<?xml version="1.0" encoding="utf-8"?>
<!-- Generator: Adobe Illustrator 18.0.0, SVG Export Plug-In . SVG Version: 6.00 Build 0)  -->
<!DOCTYPE svg PUBLIC "-//W3C//DTD SVG 1.1//EN" "http://www.w3.org/Graphics/SVG/1.1/DTD/svg11.dtd">
<svg version="1.1" id="Capa_1" xmlns="http://www.w3.org/2000/svg" xmlns:xlink="http://www.w3.org/1999/xlink" x="0px" y="0px"
	 viewBox="0 0 600 600" enable-background="new 0 0 600 600" xml:space="preserve">
<path d="M564.1,244.7L564.1,244.7c6.4-1.2,11.3-6.8,11.3-13.5c0-6.7-4.9-12.3-11.3-13.5v-25.4c0-8.5-6.1-15.7-14.1-17.3v-13.9
	c0-2-1.6-3.6-3.6-3.6c-2,0-3.6,1.6-3.6,3.6V175c-8,1.7-14.1,8.8-14.1,17.3v25.4c-6.4,1.2-11.3,6.8-11.3,13.5
	c0,6.7,4.9,12.3,11.3,13.5v128.7h-78.1V238.3c0-2-1.6-3.6-3.6-3.6h-294c-2,0-3.6,1.6-3.6,3.6v135.1H71.2V244.7
	c6.4-1.2,11.2-6.8,11.2-13.5c0-6.7-4.9-12.3-11.2-13.5v-25.4c0-8.5-6.1-15.7-14.1-17.3v-13.9c0-2-1.6-3.6-3.6-3.6
	c-2,0-3.6,1.6-3.6,3.6V175c-8,1.7-14.1,8.8-14.1,17.3v25.4c-6.4,1.2-11.3,6.8-11.3,13.5c0,6.7,4.9,12.3,11.3,13.5v194.3
	c0,2,1.6,3.6,3.6,3.6h229.5c2,0,3.6-1.6,3.6-3.6v-55.8c0-15.2,12.4-27.7,27.7-27.7c15.2,0,27.7,12.4,27.7,27.7v55.8
	c0,2,1.6,3.6,3.6,3.6h229.5c2,0,3.6-1.6,3.6-3.6v-62c0-0.4-0.1-0.8-0.2-1.2V244.7z M43,192.3c0-5.8,4.7-10.5,10.5-10.5
	c5.8,0,10.5,4.7,10.5,10.5v25.2H43V192.3z M38.3,237.8c-3.6,0-6.6-3-6.6-6.6c0-3.6,2.9-6.6,6.6-6.6h30.4c3.6,0,6.6,2.9,6.6,6.6
	c0,3.6-2.9,6.6-6.6,6.6H38.3z M64.1,244.9v128.5H43V244.9H64.1z M149.5,435.4H43v-54.8h106.5V435.4z M443.5,435.4H334.9v-52.2
	c0-19.2-15.6-34.8-34.8-34.8c-19.2,0-34.8,15.6-34.8,34.8v52.2H156.7V241.8h286.8V435.4z M535.9,192.3c0-5.8,4.7-10.5,10.5-10.5
	c5.8,0,10.5,4.7,10.5,10.5v25.2h-21.1V192.3z M557.2,435.4H450.7v-54.8h106.5V435.4z M535.9,373.4V244.9H557v128.5H535.9z
	 M561.7,237.8h-30.4c-3.6,0-6.6-3-6.6-6.6c0-3.6,2.9-6.6,6.6-6.6h30.4c3.6,0,6.6,2.9,6.6,6.6C568.2,234.8,565.3,237.8,561.7,237.8z"
	/>
</svg>
