<?xml version="1.0" encoding="utf-8"?>
<!-- Generator: Adobe Illustrator 16.0.0, SVG Export Plug-In . SVG Version: 6.00 Build 0)  -->
<!DOCTYPE svg PUBLIC "-//W3C//DTD SVG 1.1//EN" "http://www.w3.org/Graphics/SVG/1.1/DTD/svg11.dtd">
<svg version="1.1" id="Layer_1" xmlns="http://www.w3.org/2000/svg" xmlns:xlink="http://www.w3.org/1999/xlink" x="0px" y="0px"
	 width="64px" height="64px" viewBox="0 0 64 64" enable-background="new 0 0 64 64" xml:space="preserve">
<g>
	<path d="M32.918,45.874c0.004,0,0.008-0.002,0.013-0.002c0.007,0,0.015,0.002,0.022,0.002c4.627,0,8.771-2.107,11.524-5.41
		c0.252-0.303,0.492-0.618,0.72-0.94c1.733-2.446,2.756-5.43,2.756-8.65c0-3.219-1.022-6.202-2.756-8.648
		c-0.228-0.323-0.467-0.638-0.72-0.94c-2.754-3.303-6.897-5.41-11.524-5.41c-0.008,0-0.016,0-0.022,0c-0.005,0-0.009,0-0.013,0
		c-0.018,0-0.035,0.002-0.052,0.002c-4.592,0.026-8.7,2.128-11.436,5.409c-0.253,0.303-0.492,0.617-0.721,0.939
		c-1.733,2.446-2.757,5.429-2.757,8.648c0,3.221,1.023,6.204,2.757,8.65c0.229,0.321,0.468,0.637,0.721,0.939
		c2.736,3.281,6.844,5.382,11.436,5.409C32.883,45.872,32.9,45.874,32.918,45.874z M33.569,44.59v-7.567
		c2.116,0.052,4.109,0.368,5.875,0.892C38.222,41.618,36.066,44.203,33.569,44.59z M37.229,43.961
		c1.4-1.336,2.564-3.301,3.361-5.667c1.081,0.399,2.053,0.881,2.889,1.429C41.846,41.663,39.692,43.152,37.229,43.961z
		 M44.206,38.785c-0.949-0.635-2.05-1.188-3.27-1.643c0.434-1.592,0.711-3.332,0.79-5.165h4.948
		C46.474,34.5,45.586,36.828,44.206,38.785z M46.72,30.747h-4.969c-0.01-2.191-0.304-4.27-0.813-6.143
		c1.218-0.453,2.318-1.006,3.268-1.64C45.762,25.173,46.693,27.852,46.72,30.747z M43.481,22.023
		c-0.837,0.55-1.811,1.032-2.894,1.432c-0.797-2.365-1.959-4.332-3.359-5.668C39.692,18.595,41.848,20.083,43.481,22.023z
		 M33.569,17.158c2.497,0.387,4.648,2.974,5.871,6.677c-1.764,0.522-3.756,0.84-5.871,0.89V17.158z M32.338,17.149v7.575
		c-2.142-0.051-4.157-0.374-5.938-0.908C27.636,20.088,29.813,17.495,32.338,17.149z M28.568,17.825
		c-1.379,1.329-2.523,3.273-3.313,5.607c-1.058-0.396-2.01-0.872-2.831-1.409C24.033,20.111,26.15,18.64,28.568,17.825z
		 M21.702,22.964c0.932,0.623,2.01,1.168,3.202,1.616c-0.515,1.88-0.81,3.965-0.82,6.167h-4.896
		C19.214,27.852,20.146,25.172,21.702,22.964z M19.232,31.978h4.876c0.08,1.843,0.358,3.592,0.796,5.19
		c-1.193,0.448-2.271,0.993-3.202,1.616C20.322,36.827,19.434,34.5,19.232,31.978z M22.428,39.723
		c0.82-0.537,1.771-1.012,2.826-1.407c0.789,2.335,1.936,4.277,3.314,5.607C26.15,43.108,24.038,41.634,22.428,39.723z
		 M32.338,44.599c-2.524-0.346-4.705-2.937-5.94-6.666c1.78-0.535,3.798-0.858,5.94-0.91V44.599z M26.053,36.777
		c-0.389-1.476-0.638-3.093-0.713-4.8l-0.024-1.23c0.01-2.067,0.279-4.02,0.742-5.774c1.895,0.579,4.023,0.93,6.28,0.984h1.231
		c2.23-0.055,4.335-0.396,6.213-0.965c0.46,1.75,0.728,3.696,0.738,5.755l-0.024,1.23c-0.075,1.699-0.323,3.31-0.708,4.779
		c-1.88-0.569-3.986-0.912-6.219-0.966h-1.231C30.078,35.846,27.948,36.196,26.053,36.777z"/>
	<path d="M28.711,32.113c0.214-0.13,0.438-0.257,0.673-0.378c0.235-0.122,0.451-0.259,0.647-0.409
		c0.196-0.149,0.356-0.325,0.482-0.525c0.127-0.2,0.19-0.447,0.19-0.738c0-0.239-0.045-0.45-0.135-0.631
		c-0.088-0.181-0.215-0.33-0.378-0.447c-0.164-0.117-0.359-0.206-0.589-0.265c-0.229-0.059-0.48-0.089-0.754-0.089
		c-0.306,0-0.581,0.045-0.827,0.131c-0.245,0.087-0.454,0.215-0.624,0.383c-0.169,0.168-0.296,0.373-0.379,0.617
		s-0.115,0.523-0.097,0.837h1.228c-0.009-0.279,0.038-0.505,0.141-0.677c0.102-0.173,0.283-0.259,0.546-0.259
		c0.152,0,0.281,0.04,0.388,0.122c0.107,0.08,0.16,0.225,0.16,0.434c0,0.083-0.021,0.157-0.062,0.223s-0.094,0.124-0.157,0.176
		c-0.063,0.053-0.13,0.101-0.202,0.145c-0.072,0.043-0.137,0.083-0.193,0.117c-0.143,0.087-0.291,0.175-0.443,0.266
		c-0.153,0.088-0.3,0.182-0.441,0.28c-0.142,0.098-0.274,0.203-0.399,0.316c-0.123,0.113-0.233,0.235-0.329,0.366
		c-0.113,0.152-0.199,0.322-0.258,0.51s-0.082,0.392-0.068,0.614h3.938v-1.11h-2.058V32.113z"/>
	<path d="M34.539,33.231V32.33h0.614v-1.111h-0.614v-2.535h-1.301l-2.077,2.418v1.229h2.019v0.901H34.539z M32.069,31.219
		l1.11-1.274v1.274H32.069z"/>
	<path d="M36.976,31.44c0-0.135,0.018-0.244,0.05-0.329s0.073-0.152,0.124-0.199c0.05-0.049,0.105-0.081,0.167-0.099
		c0.06-0.017,0.119-0.026,0.176-0.026c0.097,0,0.171,0.017,0.226,0.05c0.054,0.032,0.097,0.078,0.127,0.137
		c0.031,0.059,0.051,0.13,0.059,0.212c0.009,0.083,0.014,0.173,0.014,0.269v1.777h1.294v-2.326c0-0.196-0.032-0.365-0.095-0.51
		c-0.063-0.144-0.149-0.263-0.258-0.355c-0.109-0.094-0.233-0.165-0.373-0.213s-0.286-0.072-0.438-0.072
		c-0.274,0-0.493,0.043-0.653,0.128c-0.161,0.085-0.297,0.192-0.405,0.323h-0.014v-1.64h-1.293v4.665h1.293V31.44z"/>
	<path d="M32.602,10.09c6.39,0,12.095,2.969,15.825,7.592l-2.449,1.73l7.704,2.63l-0.8-7.505l-2.158,1.523
		c-4.243-5.344-10.785-8.781-18.122-8.781c-3.613,0-7.035,0.834-10.085,2.316l0.898,2.696C26.177,10.887,29.297,10.09,32.602,10.09z
		"/>
	<path d="M52.778,35.644c-0.707,3.017-2.108,5.917-4.238,8.442c-4.121,4.885-10.068,7.332-16.008,7.203l0.258-2.988l-6.978,4.193
		l6.252,4.227l0.228-2.631c6.818,0.201,13.666-2.584,18.396-8.191c2.33-2.763,3.898-5.915,4.732-9.203L52.778,35.644z"/>
	<path d="M12.911,38.699c-2.427-5.911-1.848-12.315,1.014-17.522l2.529,1.61l-0.493-8.127l-6.638,3.59l2.229,1.418
		c-3.331,5.953-4.027,13.313-1.24,20.099c1.371,3.345,3.442,6.192,5.972,8.451l2.153-1.856
		C16.088,44.341,14.165,41.756,12.911,38.699z"/>
</g>
</svg>
