<?xml version="1.0" encoding="utf-8"?>
<!-- Generator: Adobe Illustrator 16.0.0, SVG Export Plug-In . SVG Version: 6.00 Build 0)  -->
<!DOCTYPE svg PUBLIC "-//W3C//DTD SVG 1.1//EN" "http://www.w3.org/Graphics/SVG/1.1/DTD/svg11.dtd">
<svg version="1.1" id="Layer_1" xmlns="http://www.w3.org/2000/svg" xmlns:xlink="http://www.w3.org/1999/xlink" x="0px" y="0px"
	 width="64px" height="64px" viewBox="0 0 64 64" enable-background="new 0 0 64 64" xml:space="preserve">
<g>
	<path d="M21.407,28.952l-5.133-7.015c-2.103,2.032-2.361,5.907-0.979,10.196C17.305,31.422,19.39,30.354,21.407,28.952z"/>
	<path d="M34.874,47.352l-5.135-7.015c-1.947,1.5-3.597,3.167-4.883,4.868C28.527,47.82,32.302,48.742,34.874,47.352z"/>
	<path d="M19.843,40.409c1.227,1.528,2.553,2.858,3.912,3.96c1.361-1.823,3.097-3.59,5.15-5.171l-2.583-3.531L19.843,40.409z"/>
	<path d="M15.761,33.436c0.762,1.939,1.835,3.93,3.226,5.85l6.502-4.758l-3.247-4.436C20.116,31.571,17.908,32.69,15.761,33.436z"/>
	<path d="M13.242,25.116c-1.687,2.394-2.648,5.19-2.843,8.052c1.123-0.059,2.328-0.264,3.574-0.615
		C13.124,29.858,12.866,27.282,13.242,25.116z"/>
	<path d="M17.847,40.12c-1.481-2.045-2.622-4.177-3.42-6.266c-1.407,0.393-2.774,0.619-4.059,0.674
		c0.055,3.099,1.008,6.211,2.945,8.91L17.847,40.12z"/>
	<path d="M30.927,49.28c-2.179-0.297-4.557-1.319-6.868-2.945c-0.71,1.081-1.268,2.163-1.663,3.216
		C25.181,50.23,28.136,50.164,30.927,49.28z"/>
	<path d="M34.203,28.149l4.6-3.366c-1.987-2.663-4.664-4.512-7.601-5.501c-0.449,1.23-1.094,2.487-1.914,3.732
		C31.029,24.401,32.708,26.127,34.203,28.149z"/>
	<path d="M21.087,49.174c0.44-1.208,1.069-2.442,1.87-3.666c-1.489-1.184-2.932-2.614-4.254-4.266l-4.515,3.304
		C16.084,46.744,18.483,48.297,21.087,49.174z"/>
	<path d="M39.596,25.953l-4.581,3.353c1.169,1.75,2.09,3.549,2.769,5.316c1.437-0.406,2.829-0.639,4.139-0.695
		C41.874,31.18,41.118,28.424,39.596,25.953z"/>
	<path d="M36.458,35.043c-0.64-1.622-1.502-3.281-2.584-4.904l-6.412,4.693l2.584,3.531C32.149,36.9,34.332,35.79,36.458,35.043z"/>
	<path d="M36.923,36.347c-1.988,0.711-4.049,1.769-6.043,3.155l5.127,7.006C38.058,44.458,38.3,40.605,36.923,36.347z"/>
	<path d="M41.885,35.288c-1.146,0.06-2.372,0.272-3.644,0.635c0.865,2.729,1.119,5.339,0.727,7.523
		C40.703,41.03,41.687,38.192,41.885,35.288z"/>
	<path d="M29.895,18.9c-2.828-0.69-5.833-0.607-8.66,0.314c2.2,0.288,4.61,1.321,6.95,2.971
		C28.917,21.082,29.491,19.975,29.895,18.9z"/>
	<path d="M27.382,23.315c-3.643-2.601-7.387-3.539-9.961-2.203l5.127,7.005C24.472,26.637,26.102,24.994,27.382,23.315z"/>
	<path d="M28.481,24.155c-1.354,1.798-3.071,3.542-5.1,5.102l3.246,4.436l6.436-4.71C31.659,27.084,30.093,25.463,28.481,24.155z"/>
	<path d="M49.888,28.69l-4.695,5.267l2.975,0.169c-0.553,3.308-5.857,18.706-20.791,18.734c-0.074,0-0.148,0-0.223,0
		c-11.327,0-14.801-4.216-15.863-6.741l-1.844,0.775c1.255,2.983,5.224,7.965,17.707,7.965c0.076,0,0.153,0,0.23,0
		c16.724-0.032,22.261-17.046,22.787-20.621l2.818,0.16L49.888,28.69z"/>
	<path d="M54.388,15.773c-0.583-1.245-1.514-1.064-1.999-0.923c-0.485,0.143-4.126,1.209-4.126,1.209s-3.377-6.24-4.199-6.714
		c-0.822-0.475-1.757,0.017-1.757,0.017l2.73,7.821l-4.034,1.812l-1.982-1.773l-1.649,0.176c0,0,2.003,2.311,2.2,3.186
		c0.197,0.874-0.148,3.299-0.148,3.299l1.52-0.06l0.759-3.048l4.042-0.933l2.393,7.904c0,0,1.352,0.076,1.578-0.854
		S48.8,19.366,48.8,19.366s4.338-1.45,4.696-1.698C53.854,17.42,54.97,17.018,54.388,15.773z"/>
</g>
</svg>
