<?xml version="1.0" encoding="utf-8"?>
<!-- Generator: Adobe Illustrator 16.0.0, SVG Export Plug-In . SVG Version: 6.00 Build 0)  -->
<!DOCTYPE svg PUBLIC "-//W3C//DTD SVG 1.1//EN" "http://www.w3.org/Graphics/SVG/1.1/DTD/svg11.dtd">
<svg version="1.1" id="Layer_1" xmlns="http://www.w3.org/2000/svg" xmlns:xlink="http://www.w3.org/1999/xlink" x="0px" y="0px"
	 width="64px" height="64px" viewBox="0 0 64 64" enable-background="new 0 0 64 64" xml:space="preserve">
<g>
	<path d="M16.654,41.616c-1.244-2.009-2.152-5.083-2.152-8.371c0-9.856,8.018-17.875,17.873-17.875c2.029,0,3.974,0.357,5.793,0.982
		l-2.17-2.635c-1.177-0.219-2.385-0.348-3.623-0.348c-10.958,0-19.873,8.916-19.873,19.875c0,3.659,1.012,7.08,2.433,9.387
		L16.654,41.616z"/>
	<path d="M49.692,28.839c0.36,1.41,0.557,2.885,0.557,4.406c0,9.855-8.019,17.873-17.874,17.873c-4.185,0-8.028-1.453-11.072-3.875
		l-1.769,1.128c3.463,2.954,7.941,4.747,12.841,4.747c10.959,0,19.874-8.915,19.874-19.873c0-0.725-0.051-1.436-0.127-2.139
		L49.692,28.839z"/>
	<path d="M55.065,27.807c-0.248-1.183-5.137-8.079-5.137-8.079s4.154-4.012,4.428-4.488s1.325-1.543-0.015-2.645
		c-1.342-1.101-2.303-0.389-2.779,0.036c-0.476,0.427-4.044,3.622-4.044,3.622s-7.241-5.272-8.436-5.365
		c-1.196-0.094-1.993,0.975-1.993,0.975l7.366,7.427l-3.611,4.259l-3.224-0.941l-1.783,1.098c0,0,3.539,1.543,4.239,2.432
		c0.701,0.889,1.625,3.84,1.625,3.84l1.699-0.895l-0.793-3.885l4.098-3.262l7.025,7.704C53.731,29.639,55.313,28.989,55.065,27.807z
		"/>
	<path d="M38.525,27.31c-0.666-0.625-1.728-1.018-1.728-1.018c-8.801,8.551-19.783,17.969-22.172,18.273
		c-0.907,0.066-1.48-0.146-1.705-0.634c-0.255-0.556-0.563-0.917,0.087-1.569l-1.857-4.137c-1.772,1.782-2.859,5.212-1.863,7.377
		c0.868,1.888,2.735,2.973,5.061,2.973c0.188,0,0.381-0.007,0.575-0.021c4.727-0.352,20.071-14.933,24.662-19.393
		C39.585,29.161,39.191,27.935,38.525,27.31z"/>
</g>
</svg>
