<?xml version="1.0" encoding="utf-8"?>
<!-- Generator: Adobe Illustrator 16.0.0, SVG Export Plug-In . SVG Version: 6.00 Build 0)  -->
<!DOCTYPE svg PUBLIC "-//W3C//DTD SVG 1.1//EN" "http://www.w3.org/Graphics/SVG/1.1/DTD/svg11.dtd">
<svg version="1.1" id="Layer_1" xmlns="http://www.w3.org/2000/svg" xmlns:xlink="http://www.w3.org/1999/xlink" x="0px" y="0px"
	 width="64px" height="64px" viewBox="0 0 64 64" enable-background="new 0 0 64 64" xml:space="preserve">
<g>
	<path d="M28.592,30.528c0.251-0.392,0.087-1.673,0.087-1.673c-9.441-3.253-16.504-7.33-16.105-8.987
		c0.197-0.819,0.47-1.178,0.659-1.241c0.423-0.138,1.378,0.363,2.548,1.134l1.945-2.284c-0.92-0.565-3.188-2.431-5.416-1.705
		c-0.909,0.294-2.107,1.122-2.653,3.394c-1.28,5.32,11.41,10.122,18.217,12.484C27.873,31.651,28.341,30.92,28.592,30.528z"/>
	<path d="M50.679,20.216c-0.311-0.439-0.637-0.868-0.98-1.281c-3.752-4.501-9.396-7.372-15.701-7.372
		c-0.011,0-0.02,0.001-0.03,0.001c-0.007,0-0.013-0.001-0.019-0.001c-0.023,0-0.046,0.003-0.07,0.003
		c-6.256,0.036-11.852,2.898-15.58,7.37c-0.344,0.413-0.67,0.841-0.98,1.28c-0.236,0.334-0.456,0.681-0.673,1.029
		c0.427,0.27,0.91,0.557,1.449,0.859c0.186-0.297,0.372-0.595,0.574-0.881c1.271,0.849,2.739,1.59,4.364,2.202
		c-0.09,0.325-0.158,0.667-0.238,1c0.497,0.217,1.02,0.435,1.553,0.652c0.084-0.375,0.16-0.754,0.256-1.117
		c2.581,0.791,5.481,1.266,8.557,1.34v2.131l0.104,0.066l0.146,0.876l0.225,1.342l1.201,0.311V25.3
		c0.595-0.014,1.176-0.056,1.756-0.099l0.439-1.244l0.169-0.48c-0.774,0.074-1.56,0.128-2.364,0.147V13.313
		c3.404,0.526,6.335,4.051,8.001,9.097c-0.806,0.239-1.659,0.433-2.53,0.605c0.57,0.286,1.135,0.729,1.537,1.356
		c0.492-0.122,0.986-0.242,1.459-0.385c0.626,2.384,0.99,5.035,1.005,7.84h-2.598c-0.028,0.17-0.054,0.33-0.083,0.509
		c1.017,0.418,2.227,0.916,2.49,1.024c0.777,0.321,1.357,0.803,1.745,1.392c0.033-0.414,0.069-0.826,0.088-1.248h4.024
		c-0.071,0.519-0.137,1.042-0.23,1.542c0.255-0.131,0.477-0.386,0.594-0.868c0.063-0.261,0.07-0.478,0.056-0.674h2.299
		c-0.274,3.435-1.483,6.607-3.364,9.273c-1.293-0.864-2.791-1.619-4.453-2.237c0.091-0.332,0.166-0.676,0.246-1.017
		c-0.532,0.417-1.199,0.65-1.953,0.65c-0.33,0-0.609-0.042-0.795-0.069l-0.057-0.01c-0.2-0.014-0.481-0.038-2.181-0.62
		c0.201-0.27,0.438-0.623,0.7-1.035V37.6c0.79,0.271,1.463,0.49,1.621,0.501c0.436,0.031,1.558,0.414,1.881-0.921
		c0.323-1.336-0.516-1.777-0.983-1.97c-0.264-0.108-1.495-0.614-2.519-1.035v-1.698l-0.584,1.457
		c-0.508-0.209-0.873-0.359-0.873-0.359s1.265-6.982,0.92-7.866c-0.346-0.884-1.383-1.085-1.383-1.085l-2.758,7.812l-2.998-0.776
		l0,0l-1.283-0.332l-0.439-2.623L30.04,27.81c-0.001,0,0.082,2.162-0.124,3.328c-0.039,0.22-0.089,0.405-0.151,0.533
		c-0.023,0.048-0.065,0.108-0.099,0.162c-0.146,0.242-0.375,0.531-0.629,0.823c-0.001,0.002-0.003,0.003-0.004,0.005
		c-0.12,0.138-0.246,0.276-0.371,0.41c-0.014,0.015-0.027,0.03-0.041,0.044c-0.119,0.126-0.236,0.248-0.349,0.362
		c-0.381,0.388-0.686,0.676-0.686,0.676l1.223,0.904l2.036-1.553h0.001l0.461-0.352l0.731,0.352l0,0l1.852,0.891l0.944,0.455v0
		l0.211,0.102l-3.074,7.664c0,0,1.008,0.905,1.766,0.321c0.759-0.584,3.992-6.447,3.992-6.447s0.566,0.208,1.306,0.475l-0.172,0.429
		c0.1-0.003,0.195-0.014,0.296-0.017v1.758c-0.074-0.026-0.143-0.05-0.221-0.078c-0.108-0.016-0.221-0.026-0.329-0.041
		c-0.33,0.583-0.632,1.106-0.904,1.569c1.816,0.203,3.548,0.536,5.136,1.006c-1.667,5.047-4.602,8.57-8.006,9.096v-6.086
		c-0.493,0.343-1.068,0.532-1.676,0.533V50.7c-3.439-0.472-6.41-4.002-8.094-9.083c1.715-0.516,3.599-0.878,5.584-1.076l0.696-1.737
		c-2.403,0.185-4.683,0.604-6.751,1.239c-0.529-2.009-0.867-4.214-0.971-6.538h1.73l0.44-0.413
		c-1.368-0.468-2.659-0.939-3.875-1.414c-0.001,0.05-0.005,0.099-0.005,0.149h-6.672c0.009-1.039,0.109-2.056,0.283-3.048
		c-0.539-0.29-1.052-0.58-1.536-0.872c-0.271,1.324-0.429,2.689-0.429,4.093c0,4.387,1.395,8.451,3.756,11.784
		c0.311,0.439,0.637,0.868,0.98,1.28c3.729,4.472,9.324,7.334,15.58,7.37c0.024,0,0.047,0.003,0.07,0.003
		c0.006,0,0.012-0.001,0.019-0.001c0.011,0,0.02,0.001,0.03,0.001c6.305,0,11.949-2.871,15.701-7.371
		c0.344-0.413,0.67-0.842,0.98-1.281c2.361-3.333,3.755-7.397,3.755-11.784C54.434,27.614,53.04,23.549,50.679,20.216z
		 M23.509,21.861c-1.441-0.538-2.738-1.186-3.856-1.919c2.192-2.604,5.077-4.61,8.372-5.72
		C26.146,16.033,24.585,18.682,23.509,21.861z M33.159,23.624c-2.918-0.071-5.665-0.511-8.09-1.239
		c1.684-5.08,4.65-8.613,8.09-9.085V23.624z M15.304,33.505h6.643c0.109,2.51,0.489,4.893,1.085,7.071
		c-1.625,0.611-3.094,1.354-4.363,2.202C16.788,40.111,15.578,36.94,15.304,33.505z M19.657,44.056
		c1.117-0.731,2.412-1.378,3.85-1.916c1.076,3.18,2.639,5.827,4.518,7.638C24.729,48.669,21.851,46.66,19.657,44.056z M39.821,49.83
		c1.908-1.819,3.494-4.497,4.58-7.72c1.473,0.544,2.797,1.201,3.937,1.947C46.112,46.7,43.179,48.73,39.821,49.83z M39.821,14.17
		c3.357,1.1,6.293,3.128,8.52,5.772c-0.979,0.641-2.102,1.211-3.33,1.706c-0.056-0.016-0.096-0.025-0.096-0.025l-0.026,0.074
		c-0.163,0.065-0.322,0.133-0.49,0.195C43.313,18.67,41.729,15.99,39.821,14.17z M45.983,31.828
		c-0.014-2.986-0.413-5.817-1.108-8.369c1.659-0.617,3.158-1.371,4.451-2.234c2.12,3.008,3.39,6.658,3.426,10.604H45.983z"/>
</g>
</svg>
