<?xml version="1.0" encoding="utf-8"?>
<!-- Generator: Adobe Illustrator 16.0.0, SVG Export Plug-In . SVG Version: 6.00 Build 0)  -->
<!DOCTYPE svg PUBLIC "-//W3C//DTD SVG 1.1//EN" "http://www.w3.org/Graphics/SVG/1.1/DTD/svg11.dtd">
<svg version="1.1" id="Layer_1" xmlns="http://www.w3.org/2000/svg" xmlns:xlink="http://www.w3.org/1999/xlink" x="0px" y="0px"
	 width="64px" height="64px" viewBox="0 0 64 64" enable-background="new 0 0 64 64" xml:space="preserve">
<g>
	<path d="M56.374,32.232c0-3.513-4.426-6.066-10.495-7.562c2.078-5.377,2.441-10.031-0.244-12.021
		c-0.736-0.545-1.642-0.821-2.692-0.821c-3.136,0-7.464,2.515-11.92,6.696c-4.505-4.464-8.874-7.16-11.989-7.16
		c-0.953,0-1.78,0.247-2.461,0.734c-2.11,1.514-2.42,4.939-0.895,9.905c0.299,0.974,0.676,1.99,1.099,3.027
		c-5.364,1.529-9.149,3.954-9.149,7.201c0,3.2,3.675,5.601,8.914,7.134c-2.223,5.557-2.687,10.406,0.069,12.449
		c0.736,0.545,1.642,0.82,2.692,0.82c3.133,0,7.454-2.51,11.905-6.683c4.264,4.069,8.354,6.493,11.313,6.493
		c0.952,0,1.78-0.247,2.461-0.734c2.605-1.869,2.261-6.434,0.257-11.769C51.632,38.473,56.374,35.868,56.374,32.232z M42.942,13.828
		c0.612,0,1.117,0.144,1.501,0.429c1.588,1.176,1.411,4.945-0.553,9.975c-2.708-0.539-5.657-0.884-8.637-1.029
		c-0.938-1.15-1.885-2.229-2.832-3.238C36.751,15.923,40.628,13.828,42.942,13.828z M23.583,37.063
		c0.468,0.652,0.942,1.286,1.42,1.908c-2.074-0.229-3.982-0.557-5.702-0.953c0.609-1.318,1.317-2.695,2.146-4.125
		C22.123,34.952,22.83,36.012,23.583,37.063z M19.553,26.394c1.568-0.353,3.287-0.646,5.145-0.86
		c-0.317,0.408-0.634,0.816-0.946,1.237c-0.794,1.072-1.556,2.178-2.284,3.299C20.759,28.825,20.12,27.596,19.553,26.394z
		 M22.603,31.984c0.83-1.315,1.747-2.661,2.756-4.022c0.7-0.945,1.403-1.832,2.105-2.685c1.45-0.1,2.962-0.156,4.535-0.156
		c0.769,0,1.52,0.015,2.26,0.04c0.694,0.874,1.391,1.783,2.085,2.751c1.176,1.64,2.213,3.246,3.144,4.81
		c-0.791,1.238-1.655,2.502-2.604,3.781c-0.727,0.981-1.457,1.902-2.186,2.783c-0.881,0.035-1.777,0.058-2.699,0.058
		c-1.475,0-2.891-0.054-4.259-0.142c-0.843-1.037-1.688-2.129-2.532-3.305C24.277,34.599,23.408,33.288,22.603,31.984z
		 M38.492,37.694c0.73-0.986,1.43-2.002,2.105-3.029c0.719,1.318,1.347,2.588,1.882,3.801c-1.571,0.279-3.268,0.5-5.074,0.65
		C37.769,38.649,38.133,38.179,38.492,37.694z M37.969,26.746c-0.353-0.491-0.709-0.97-1.066-1.443
		c2.235,0.167,4.313,0.442,6.194,0.804c-0.674,1.492-1.478,3.063-2.438,4.699C39.813,29.427,38.914,28.063,37.969,26.746z
		 M32.583,23.126c-0.194-0.002-0.389-0.005-0.583-0.005c-0.91,0-1.825,0.021-2.738,0.06c0.581-0.645,1.156-1.244,1.728-1.822
		C31.516,21.92,32.047,22.507,32.583,23.126z M17.738,13.724c0.333-0.238,0.769-0.359,1.295-0.359c2.281,0,6.181,2.238,10.558,6.56
		c-1.048,1.062-2.096,2.204-3.131,3.429c-2.703,0.229-5.333,0.623-7.731,1.177c-0.444-1.07-0.832-2.114-1.139-3.112
		C16.393,17.524,16.449,14.648,17.738,13.724z M9.626,32.232c0-1.911,2.974-3.945,7.956-5.347c0.766,1.66,1.668,3.367,2.688,5.094
		c-1.112,1.848-2.104,3.712-2.934,5.531C12.501,36.112,9.626,34.112,9.626,32.232z M19.302,50.636c-0.612,0-1.118-0.144-1.501-0.428
		c-1.624-1.204-1.4-5.123,0.694-10.327c2.542,0.602,5.353,1.021,8.241,1.252c1.012,1.214,2.03,2.354,3.047,3.403
		C25.47,48.554,21.609,50.636,19.302,50.636z M29.511,41.296c0.83,0.031,1.661,0.048,2.488,0.048c0.312,0,0.623-0.003,0.935-0.008
		c-0.575,0.636-1.145,1.23-1.711,1.802C30.658,42.558,30.087,41.943,29.511,41.296z M43.816,50.087
		c-1.701,1.22-6.061-0.703-11.168-5.541c1.013-1.025,2.023-2.127,3.025-3.307c2.607-0.145,5.183-0.441,7.586-0.887
		C45.16,45.321,45.339,48.993,43.816,50.087z M44.48,38.063c-0.751-1.735-1.658-3.525-2.671-5.312
		c1.263-2.073,2.387-4.175,3.291-6.208c5.771,1.396,9.273,3.614,9.273,5.688C54.374,34.38,50.618,36.679,44.48,38.063z"/>
	<circle cx="32" cy="32.232" r="3.882"/>
</g>
</svg>
