<?xml version="1.0" encoding="utf-8"?>
<!-- Generator: Adobe Illustrator 16.0.0, SVG Export Plug-In . SVG Version: 6.00 Build 0)  -->
<!DOCTYPE svg PUBLIC "-//W3C//DTD SVG 1.1//EN" "http://www.w3.org/Graphics/SVG/1.1/DTD/svg11.dtd">
<svg version="1.1" id="Layer_1" xmlns="http://www.w3.org/2000/svg" xmlns:xlink="http://www.w3.org/1999/xlink" x="0px" y="0px"
	 width="64px" height="64px" viewBox="0 0 64 64" enable-background="new 0 0 64 64" xml:space="preserve">
<g>
	<path d="M21.352,20.533C24.244,21.4,27.521,21.925,31,22.01V9.698C26.898,10.261,23.36,14.474,21.352,20.533z"/>
	<path d="M31,54.302V41.991c-3.481,0.085-6.76,0.61-9.653,1.479C23.354,49.53,26.897,53.739,31,54.302z"/>
	<path d="M20.786,41.593c3.081-0.945,6.543-1.513,10.214-1.601v-6.197H19.629C19.751,36.567,20.155,39.196,20.786,41.593z"/>
	<path d="M19.589,31.794H31v-7.786c-3.667-0.087-7.126-0.655-10.204-1.598C20.044,25.263,19.605,28.436,19.589,31.794z"/>
	<path d="M24.876,10.796c-3.93,1.324-7.369,3.716-9.984,6.823c1.334,0.874,2.881,1.646,4.6,2.289
		C20.774,16.116,22.635,12.957,24.876,10.796z"/>
	<path d="M18.922,21.773c-1.938-0.729-3.689-1.614-5.204-2.626c-2.529,3.588-4.043,7.942-4.086,12.647h7.957
		C17.606,28.217,18.086,24.827,18.922,21.773z"/>
	<path d="M14.897,46.378c2.615,3.106,6.049,5.502,9.979,6.826c-2.241-2.161-4.104-5.318-5.387-9.11
		C17.774,44.735,16.23,45.506,14.897,46.378z"/>
	<path d="M46.296,31.794h8.072c-0.043-4.706-1.557-9.059-4.086-12.646c-1.542,1.03-3.329,1.929-5.309,2.665
		C45.803,24.856,46.278,28.233,46.296,31.794z"/>
	<path d="M17.628,33.794H9.705c0.327,4.097,1.771,7.879,4.013,11.06c1.514-1.012,3.266-1.897,5.203-2.626
		C18.211,39.63,17.757,36.789,17.628,33.794z"/>
	<path d="M44.973,42.188c1.981,0.737,3.77,1.636,5.312,2.667c2.243-3.18,3.685-6.963,4.012-11.061h-8.041
		C46.127,36.773,45.677,39.6,44.973,42.188z"/>
	<path d="M44.255,33.794H33v6.197c3.628,0.086,7.052,0.643,10.105,1.568C43.731,39.171,44.134,36.554,44.255,33.794z"/>
	<path d="M33,41.991v12.296c4.06-0.627,7.56-4.828,9.547-10.848C39.679,42.589,36.439,42.075,33,41.991z"/>
	<path d="M38.946,53.265c4.004-1.312,7.502-3.732,10.157-6.886c-1.358-0.89-2.938-1.673-4.695-2.322
		C43.114,47.901,41.222,51.095,38.946,53.265z"/>
	<path d="M49.107,17.62c-2.655-3.154-6.157-5.573-10.161-6.884c2.275,2.169,4.164,5.366,5.459,9.209
		C46.165,19.295,47.747,18.511,49.107,17.62z"/>
	<path d="M33,9.713V22.01c3.438-0.083,6.676-0.598,9.542-1.447C40.555,14.545,37.06,10.34,33,9.713z"/>
	<path d="M43.097,22.443c-3.051,0.923-6.472,1.479-10.097,1.565v7.786h11.296C44.278,28.449,43.844,25.287,43.097,22.443z"/>
</g>
</svg>
