<?xml version="1.0" encoding="utf-8"?>
<!-- Generator: Adobe Illustrator 16.0.0, SVG Export Plug-In . SVG Version: 6.00 Build 0)  -->
<!DOCTYPE svg PUBLIC "-//W3C//DTD SVG 1.1//EN" "http://www.w3.org/Graphics/SVG/1.1/DTD/svg11.dtd">
<svg version="1.1" id="Layer_1" xmlns="http://www.w3.org/2000/svg" xmlns:xlink="http://www.w3.org/1999/xlink" x="0px" y="0px"
	 width="64px" height="64px" viewBox="0 0 64 64" enable-background="new 0 0 64 64" xml:space="preserve">
<g>
	<path d="M20.426,51.325c-0.105-0.063-0.212-0.126-0.316-0.19C20.215,51.199,20.319,51.263,20.426,51.325z"/>
	<path d="M44.6,50.596c-0.034,0.022-0.066,0.046-0.101,0.068C44.533,50.642,44.565,50.618,44.6,50.596z"/>
	<path d="M12.741,43.771c-0.05-0.08-0.098-0.16-0.146-0.241C12.644,43.611,12.691,43.691,12.741,43.771z"/>
	<path d="M18.943,50.36c-0.176-0.124-0.354-0.246-0.525-0.376C18.59,50.114,18.767,50.236,18.943,50.36z"/>
	<path d="M41.775,52.229c-0.052,0.025-0.103,0.05-0.154,0.074C41.673,52.278,41.724,52.254,41.775,52.229z"/>
	<path d="M51.747,42.718c0.002-0.002,0.003-0.005,0.005-0.008C51.75,42.713,51.749,42.716,51.747,42.718z"/>
	<path d="M47.793,41.235c0-2.007,1.627-3.634,3.634-3.634c0.803,0,1.534,0.271,2.134,0.713c0.402-1.372,0.677-2.798,0.811-4.265
		c-0.66,0.914-1.73,1.514-2.944,1.514c-2.007,0-3.634-1.627-3.634-3.635c0-2.007,1.627-3.634,3.634-3.634
		c1.207,0,2.271,0.593,2.932,1.499c-0.142-1.455-0.425-2.867-0.831-4.227c-0.593,0.432-1.311,0.699-2.101,0.699
		c-2.007,0-3.634-1.626-3.634-3.634c0-1.657,1.117-3.036,2.635-3.473c-1.425-2.038-3.177-3.83-5.184-5.299
		c-0.262,1.749-1.744,3.099-3.565,3.099c-2.008,0-3.635-1.627-3.635-3.634c0-1.036,0.453-1.95,1.152-2.608
		c-2.278-0.773-4.719-1.199-7.26-1.199c-2.747,0-5.378,0.492-7.813,1.39c0.588,0.642,0.961,1.479,0.961,2.418
		c0,2.007-1.627,3.634-3.634,3.634c-1.649,0-3.015-1.107-3.455-2.614c-1.867,1.47-3.497,3.225-4.818,5.204
		c1.047,0.635,1.755,1.77,1.755,3.083c0,2.008-1.627,3.634-3.634,3.634c-0.386,0-0.75-0.074-1.097-0.189
		c-0.235,0.86-0.422,1.739-0.554,2.637c0.497-0.258,1.052-0.419,1.65-0.419c2.007,0,3.634,1.627,3.634,3.634
		c0,2.008-1.627,3.635-3.634,3.635c-0.605,0-1.168-0.164-1.67-0.428c0.127,0.906,0.307,1.796,0.538,2.664
		c0.356-0.122,0.733-0.198,1.132-0.198c2.007,0,3.634,1.627,3.634,3.634c0,1.34-0.728,2.506-1.809,3.133
		c1.366,2.064,3.065,3.89,5.02,5.402c0.435-1.518,1.814-2.633,3.471-2.633c2.007,0,3.634,1.627,3.634,3.635
		c0,0.922-0.355,1.752-0.924,2.39c2.378,0.853,4.94,1.319,7.612,1.319c2.55,0,4.997-0.429,7.281-1.207
		c-0.622-0.651-1.011-1.529-1.011-2.502c0-2.008,1.627-3.635,3.635-3.635c1.754,0,3.199,1.25,3.537,2.905
		c1.985-1.476,3.717-3.271,5.123-5.308C48.945,44.325,47.793,42.921,47.793,41.235z M21.451,44.87c-2.007,0-3.634-1.627-3.634-3.635
		c0-2.007,1.627-3.634,3.634-3.634s3.634,1.627,3.634,3.634C25.085,43.243,23.458,44.87,21.451,44.87z M21.451,35.563
		c-2.007,0-3.634-1.627-3.634-3.635c0-2.007,1.627-3.634,3.634-3.634s3.634,1.627,3.634,3.634
		C25.085,33.937,23.458,35.563,21.451,35.563z M21.451,26.267c-2.007,0-3.634-1.626-3.634-3.634c0-2.007,1.627-3.634,3.634-3.634
		s3.634,1.627,3.634,3.634C25.085,24.641,23.458,26.267,21.451,26.267z M31.526,9.692c2.007,0,3.634,1.627,3.634,3.634
		s-1.627,3.634-3.634,3.634c-2.008,0-3.634-1.627-3.634-3.634S29.519,9.692,31.526,9.692z M31.526,18.999
		c2.007,0,3.634,1.627,3.634,3.634c0,2.008-1.627,3.634-3.634,3.634c-2.008,0-3.634-1.626-3.634-3.634
		C27.893,20.626,29.519,18.999,31.526,18.999z M31.526,28.295c2.007,0,3.634,1.627,3.634,3.634c0,2.008-1.627,3.635-3.634,3.635
		c-2.008,0-3.634-1.627-3.634-3.635C27.893,29.922,29.519,28.295,31.526,28.295z M31.526,37.602c2.007,0,3.634,1.627,3.634,3.634
		c0,2.008-1.627,3.635-3.634,3.635c-2.008,0-3.634-1.627-3.634-3.635C27.893,39.229,29.519,37.602,31.526,37.602z M31.689,54.406
		c-2.008,0-3.634-1.627-3.634-3.634c0-2.008,1.626-3.635,3.634-3.635c2.007,0,3.634,1.627,3.634,3.635
		C35.323,52.779,33.696,54.406,31.689,54.406z M41.679,44.87c-2.008,0-3.635-1.627-3.635-3.635c0-2.007,1.627-3.634,3.635-3.634
		c2.007,0,3.634,1.627,3.634,3.634C45.313,43.243,43.686,44.87,41.679,44.87z M41.679,35.563c-2.008,0-3.635-1.627-3.635-3.635
		c0-2.007,1.627-3.634,3.635-3.634c2.007,0,3.634,1.627,3.634,3.634C45.313,33.937,43.686,35.563,41.679,35.563z M41.679,26.267
		c-2.008,0-3.635-1.626-3.635-3.634c0-2.007,1.627-3.634,3.635-3.634c2.007,0,3.634,1.627,3.634,3.634
		C45.313,24.641,43.686,26.267,41.679,26.267z"/>
</g>
</svg>
