<?xml version="1.0" encoding="utf-8"?>
<!-- Generator: Adobe Illustrator 16.0.0, SVG Export Plug-In . SVG Version: 6.00 Build 0)  -->
<!DOCTYPE svg PUBLIC "-//W3C//DTD SVG 1.1//EN" "http://www.w3.org/Graphics/SVG/1.1/DTD/svg11.dtd">
<svg version="1.1" id="Layer_1" xmlns="http://www.w3.org/2000/svg" xmlns:xlink="http://www.w3.org/1999/xlink" x="0px" y="0px"
	 width="64px" height="64px" viewBox="0 0 64 64" enable-background="new 0 0 64 64" xml:space="preserve">
<path d="M51.292,17.129c-0.001-0.046,0-0.087-0.001-0.133L51.19,17C46.725,11.3,39.785,7.626,32,7.626
	C18.56,7.626,7.626,18.56,7.626,31.999c0,13.44,10.934,24.375,24.373,24.375c13.44,0,24.374-10.935,24.374-24.375
	C56.374,26.404,54.474,21.247,51.292,17.129z M48.01,39.44c-2.882,2.312-6.148,4.933-6.344,12.71l0.05,0.001
	c-2.484,1.203-5.225,1.953-8.113,2.159c0.511-9.554,4.374-12.681,8.465-15.963c4.303-3.452,8.724-7.036,9.198-17.706
	c1.063,1.796,1.885,3.75,2.414,5.82l-0.102,0.004C53.86,34.746,51.019,37.026,48.01,39.44z M49.3,17.83
	c0.225,11.937-4.002,15.361-8.484,18.957c-4.282,3.436-8.693,7.006-9.216,17.577c-2.004-0.036-3.944-0.336-5.788-0.867
	c0.32-11.293,4.686-14.804,9.309-18.514c4.913-3.941,9.981-8.018,10.045-21.058C46.703,15.049,48.094,16.359,49.3,17.83z
	 M33.869,33.424c-4.693,3.765-9.53,7.678-10.025,19.404c-1.813-0.713-3.511-1.652-5.059-2.789
	c0.412-10.853,4.72-14.297,9.286-17.922c5.014-3.98,10.192-8.093,10.051-21.633c1.778,0.507,3.465,1.228,5.034,2.134
	C43.426,25.746,38.783,29.48,33.869,33.424z M22.196,24.634c-4.545,2.831-9.623,6.026-10.84,15.987
	c-0.621-1.482-1.082-3.046-1.373-4.668c0.217-8.516,3.681-10.674,7.348-12.958c3.472-2.163,7.05-4.403,6.848-11.956
	c1.95-0.729,4.029-1.19,6.191-1.348C30.854,19.209,26.838,21.742,22.196,24.634z M22.187,11.898
	c-0.06,5.732-2.676,7.383-5.913,9.399c-2.109,1.313-4.375,2.729-6.006,5.396C11.856,20.187,16.296,14.785,22.187,11.898z
	 M13.101,43.952c0.383-11.518,5.346-14.626,10.153-17.621c4.746-2.956,9.631-6.034,9.113-16.696
	c1.277,0.021,2.528,0.149,3.745,0.376c0.26,12.952-4.377,16.644-9.284,20.54c-4.517,3.586-9.175,7.292-9.963,17.908
	C15.421,47.131,14.156,45.615,13.101,43.952z M43.722,51.047c0.427-5.94,2.914-7.939,5.54-10.047
	c1.785-1.432,3.599-2.898,4.827-5.448C53.04,42.094,49.147,47.696,43.722,51.047z"/>
</svg>
