<?xml version="1.0" encoding="utf-8"?>
<!-- Generator: Adobe Illustrator 16.0.0, SVG Export Plug-In . SVG Version: 6.00 Build 0)  -->
<!DOCTYPE svg PUBLIC "-//W3C//DTD SVG 1.1//EN" "http://www.w3.org/Graphics/SVG/1.1/DTD/svg11.dtd">
<svg version="1.1" id="Layer_1" xmlns="http://www.w3.org/2000/svg" xmlns:xlink="http://www.w3.org/1999/xlink" x="0px" y="0px"
	 width="64px" height="64px" viewBox="0 0 64 64" enable-background="new 0 0 64 64" xml:space="preserve">
<g>
	<path d="M39.159,23.964c0.05,0.426,0.095,0.862,0.137,1.308c0.361,0.032,0.741,0.059,1.09,0.096
		c-0.051-0.434-0.097-0.876-0.155-1.29C39.881,24.037,39.522,23.999,39.159,23.964z"/>
	<path d="M40.681,16.785c0.16,0.515,0.315,1.056,0.465,1.62c0.311,0.05,0.611,0.104,0.91,0.158c-0.16-0.564-0.325-1.098-0.494-1.602
		C41.274,16.9,40.98,16.843,40.681,16.785z"/>
	<path d="M41.988,22.281c0.322,0.046,0.643,0.092,0.952,0.142c-0.107-0.594-0.224-1.158-0.346-1.706
		c-0.308-0.063-0.622-0.125-0.944-0.184C41.77,21.097,41.884,21.676,41.988,22.281z"/>
	<path d="M40.684,28.869c-0.025-0.502-0.067-0.975-0.104-1.456c-0.366-0.041-0.742-0.079-1.123-0.115
		c0.031,0.492,0.059,0.995,0.08,1.509C39.928,28.826,40.31,28.847,40.684,28.869z"/>
	<path d="M43.744,31.901c0-0.275-0.015-0.525-0.018-0.795c-0.317-0.028-0.643-0.057-0.976-0.084
		c0.004,0.291,0.011,0.577,0.011,0.873c0,0.367-0.007,0.723-0.013,1.08c0.334-0.016,0.659-0.032,0.974-0.049
		C43.728,32.582,43.744,32.257,43.744,31.901z"/>
	<path d="M31.383,24.958c0.243-0.002,0.481-0.006,0.729-0.006c0.311,0,0.594,0.012,0.897,0.016
		c-0.019-0.438-0.037-0.879-0.058-1.321c-0.245-0.002-0.485-0.007-0.736-0.007c-0.248,0-0.473,0.011-0.716,0.014
		C31.459,24.092,31.42,24.527,31.383,24.958z"/>
	<path d="M40.674,35.063c-0.368,0.013-0.745,0.025-1.133,0.036c-0.024,0.598-0.057,1.177-0.094,1.745
		c0.376-0.038,0.748-0.076,1.108-0.119C40.601,36.182,40.644,35.635,40.674,35.063z"/>
	<path d="M40.138,40.317c0.077-0.499,0.143-1.022,0.207-1.55c-0.348,0.039-0.699,0.077-1.061,0.112
		c-0.052,0.534-0.107,1.058-0.169,1.564C39.462,40.404,39.805,40.362,40.138,40.317z"/>
	<path d="M43.668,34.936c-0.317,0.017-0.645,0.032-0.98,0.048c-0.024,0.498-0.055,0.985-0.089,1.464
		c0.339-0.054,0.657-0.111,0.98-0.168C43.61,35.836,43.646,35.398,43.668,34.936z"/>
	<path d="M44.762,21.224c0.101,0.51,0.196,1.036,0.284,1.58c0.455,0.093,0.889,0.189,1.31,0.288
		c-0.102-0.523-0.212-1.021-0.327-1.505C45.622,21.463,45.204,21.341,44.762,21.224z"/>
	<path d="M43.856,17.537c0.141,0.473,0.275,0.971,0.406,1.485c0.396,0.093,0.782,0.188,1.153,0.288
		c-0.159-0.512-0.324-0.993-0.491-1.451C44.584,17.749,44.225,17.643,43.856,17.537z"/>
	<path d="M39.352,13.208c0.192,0.438,0.386,0.906,0.576,1.404c0.275,0.043,0.533,0.094,0.798,0.142c-0.222-0.523-0.44-1-0.655-1.431
		C39.839,13.282,39.595,13.245,39.352,13.208z"/>
	<path d="M47.104,29.456c-0.016-0.325-0.043-0.629-0.064-0.944c-0.449-0.105-0.916-0.208-1.407-0.308
		c0.021,0.356,0.041,0.717,0.056,1.084C46.18,29.343,46.654,29.398,47.104,29.456z"/>
	<path d="M46.469,16.255c0.107,0.038,0.226,0.075,0.33,0.114c-0.274-0.45-0.53-0.827-0.766-1.151
		C46.18,15.544,46.324,15.895,46.469,16.255z"/>
	<path d="M43.681,29.09c-0.021-0.437-0.059-0.839-0.087-1.259c-0.321-0.053-0.639-0.106-0.974-0.155
		c0.029,0.437,0.055,0.88,0.075,1.332C43.031,29.034,43.359,29.062,43.681,29.09z"/>
	<path d="M43.223,39.795c0.064-0.464,0.116-0.959,0.17-1.448c-0.321,0.053-0.649,0.104-0.985,0.153
		c-0.056,0.508-0.117,1.004-0.185,1.487C42.564,39.926,42.897,39.861,43.223,39.795z"/>
	<path d="M42.296,24.355c0.053,0.413,0.102,0.835,0.146,1.265c0.334,0.046,0.651,0.096,0.973,0.146
		c-0.046-0.424-0.093-0.846-0.146-1.25C42.952,24.461,42.628,24.407,42.296,24.355z"/>
	<path d="M42.541,13.872c0.184,0.43,0.368,0.888,0.55,1.376c0.278,0.068,0.558,0.135,0.822,0.206
		c-0.253-0.526-0.498-0.992-0.733-1.406C42.979,13.987,42.755,13.931,42.541,13.872z"/>
	<path d="M31.688,21.645c0.177-0.001,0.349-0.005,0.527-0.005c0.22,0,0.43,0.004,0.646,0.006c-0.03-0.653-0.061-1.299-0.091-1.934
		c-0.296-0.004-0.589-0.009-0.891-0.01C31.813,20.346,31.75,20.995,31.688,21.645z"/>
	<path d="M32.153,49.506c0.064,0.607,0.126,1.187,0.185,1.73c0.024,0,0.046-0.002,0.069-0.002c0.033-0.463,0.074-1.042,0.121-1.721
		c-0.006,0-0.011,0-0.017,0C32.388,49.514,32.276,49.507,32.153,49.506z"/>
	<path d="M32.745,46.177c-0.149,0.001-0.294,0.005-0.446,0.005c-0.164,0-0.32-0.005-0.482-0.006
		c0.044,0.449,0.088,0.891,0.131,1.325c0.192,0.002,0.369,0.013,0.564,0.013c0.052,0,0.098-0.003,0.149-0.003
		C32.688,47.082,32.717,46.638,32.745,46.177z"/>
	<path d="M47.164,31.929c0-0.152-0.009-0.29-0.011-0.439c-0.451-0.061-0.92-0.119-1.416-0.176c0.002,0.196,0.007,0.388,0.007,0.588
		c0,0.307-0.006,0.604-0.01,0.903c0.502-0.035,0.974-0.07,1.413-0.107C47.151,32.438,47.164,32.195,47.164,31.929z"/>
	<path d="M47.097,34.713c-0.443,0.035-0.914,0.07-1.415,0.104c-0.017,0.361-0.037,0.712-0.059,1.063
		c0.496-0.108,0.968-0.221,1.419-0.336C47.06,35.265,47.083,34.999,47.097,34.713z"/>
	<path d="M32.479,14.025c0.002,0,0.003,0,0.005,0c-0.001-0.009-0.001-0.019-0.002-0.028C32.48,14.007,32.479,14.017,32.479,14.025z"
		/>
	<path d="M32.95,9.864c-0.03,0.254-0.064,0.551-0.102,0.874c0.201,0.001,0.396,0.004,0.592,0.007
		C33.253,10.387,33.088,10.094,32.95,9.864z"/>
	<path d="M45.347,24.925c0.047,0.39,0.089,0.789,0.128,1.194c0.471,0.09,0.944,0.18,1.381,0.275
		c-0.044-0.389-0.092-0.77-0.144-1.142C46.277,25.141,45.824,25.031,45.347,24.925z"/>
	<path d="M32.084,17.705c0.198,0,0.392,0.004,0.587,0.006c-0.028-0.583-0.057-1.148-0.084-1.684
		c-0.111-0.001-0.213-0.007-0.325-0.007C32.203,16.566,32.144,17.13,32.084,17.705z"/>
	<path d="M46.398,41.113c-0.448,0.122-0.911,0.241-1.396,0.355c-0.066,0.398-0.136,0.786-0.208,1.166
		c0.483-0.138,0.944-0.279,1.383-0.425C46.252,41.849,46.33,41.496,46.398,41.113z"/>
	<path d="M38.951,52.755c-0.216,0.033-0.454,0.057-0.677,0.087c-0.138,0.253-0.272,0.493-0.403,0.714
		c0.22-0.059,0.438-0.121,0.654-0.187C38.631,53.229,38.774,53.024,38.951,52.755z"/>
	<path d="M40.911,48.878c-0.298,0.048-0.598,0.096-0.907,0.139c-0.218,0.582-0.438,1.126-0.659,1.63
		c0.287-0.051,0.587-0.098,0.859-0.153C40.434,50.014,40.671,49.476,40.911,48.878z"/>
	<path d="M38.887,21.927c0.341,0.03,0.674,0.063,1.002,0.098c-0.12-0.639-0.25-1.245-0.388-1.832
		c-0.303-0.041-0.61-0.081-0.925-0.117C38.687,20.667,38.79,21.287,38.887,21.927z"/>
	<path d="M45.638,44.491c-0.425,0.123-0.868,0.242-1.327,0.357c-0.112,0.457-0.229,0.901-0.348,1.324
		c0.446-0.118,0.879-0.238,1.284-0.365C45.38,45.389,45.512,44.955,45.638,44.491z"/>
	<path d="M38.933,45.81c-0.252,0.03-0.502,0.061-0.761,0.087c-0.108,0.472-0.222,0.921-0.336,1.356
		c0.229-0.023,0.442-0.052,0.665-0.077C38.647,46.738,38.793,46.289,38.933,45.81z"/>
	<path d="M39.774,42.385c-0.311,0.038-0.626,0.073-0.947,0.107c-0.072,0.458-0.147,0.906-0.228,1.339
		c0.299-0.035,0.591-0.072,0.879-0.111C39.581,43.286,39.681,42.847,39.774,42.385z"/>
	<path d="M44.396,48.148c-0.372,0.097-0.753,0.191-1.151,0.281c-0.18,0.505-0.361,0.979-0.543,1.422
		c0.387-0.118,0.752-0.239,1.1-0.364C43.994,49.092,44.194,48.637,44.396,48.148z"/>
	<path d="M42.098,45.331c-0.318,0.06-0.645,0.117-0.977,0.172c-0.125,0.469-0.253,0.925-0.386,1.359
		c0.319-0.054,0.649-0.104,0.953-0.163C41.828,46.263,41.965,45.813,42.098,45.331z"/>
	<path d="M42.882,41.913c-0.326,0.061-0.658,0.118-0.998,0.174c-0.08,0.439-0.165,0.868-0.254,1.285
		c0.339-0.063,0.669-0.13,0.991-0.199C42.71,42.762,42.8,42.352,42.882,41.913z"/>
	<path d="M40.762,31.896c0-0.352-0.019-0.673-0.024-1.015c-0.373-0.023-0.755-0.045-1.146-0.065
		c0.006,0.386,0.012,0.771,0.012,1.168c0,0.378-0.005,0.745-0.011,1.112c0.391-0.012,0.771-0.023,1.142-0.037
		C40.742,32.668,40.762,32.298,40.762,31.896z"/>
	<path d="M48.265,22.358c0.084,0.415,0.158,0.854,0.232,1.293c0.441,0.129,0.854,0.261,1.251,0.393
		c-0.091-0.413-0.188-0.806-0.289-1.191C49.088,22.688,48.689,22.523,48.265,22.358z"/>
	<path d="M50.5,29.979c-0.008-0.17-0.011-0.347-0.021-0.515c-0.43-0.141-0.896-0.282-1.393-0.425
		c0.012,0.229,0.015,0.471,0.024,0.704C49.605,29.821,50.068,29.899,50.5,29.979z"/>
	<path d="M48.81,25.858c0.04,0.346,0.083,0.686,0.117,1.044c0.478,0.128,0.937,0.256,1.362,0.386
		c-0.039-0.332-0.089-0.644-0.135-0.962C49.741,26.172,49.293,26.015,48.81,25.858z"/>
	<path d="M47.357,18.768c0.124,0.401,0.245,0.81,0.36,1.241c0.336,0.114,0.66,0.229,0.97,0.346c-0.151-0.417-0.307-0.816-0.465-1.19
		C47.947,19.033,47.665,18.9,47.357,18.768z"/>
	<path d="M50.473,34.372c-0.402,0.052-0.857,0.104-1.365,0.157c-0.006,0.149-0.015,0.294-0.021,0.441
		c0.492-0.154,0.954-0.309,1.375-0.461C50.465,34.463,50.47,34.42,50.473,34.372z"/>
	<path d="M50.258,36.694c-0.411,0.137-0.852,0.272-1.313,0.407c-0.033,0.385-0.078,0.742-0.119,1.112
		c0.461-0.173,0.892-0.346,1.291-0.518C50.168,37.368,50.216,37.037,50.258,36.694z"/>
	<path d="M51.925,39.096c-0.024,0.137-0.054,0.266-0.08,0.4c0.628-0.433,1.06-0.798,1.315-1.035
		C52.792,38.665,52.377,38.878,51.925,39.096z"/>
	<path d="M48.7,43.433c-0.255,0.104-0.519,0.207-0.791,0.309c-0.101,0.428-0.207,0.827-0.314,1.224
		c0.223-0.094,0.418-0.186,0.622-0.279C48.382,44.292,48.543,43.872,48.7,43.433z"/>
	<path d="M49.685,40.052c-0.366,0.139-0.75,0.276-1.151,0.413c-0.048,0.304-0.093,0.613-0.145,0.905
		c0.387-0.167,0.75-0.334,1.087-0.5C49.545,40.598,49.619,40.337,49.685,40.052z"/>
	<path d="M53.564,38.232c-0.006,0.003-0.012,0.006-0.017,0.009l0.011,0.01C53.561,38.245,53.563,38.238,53.564,38.232z"/>
	<path d="M52.511,30.39c0.376,0.086,0.71,0.169,1.012,0.248c-0.286-0.133-0.634-0.28-1.017-0.437
		C52.508,30.264,52.509,30.327,52.511,30.39z"/>
	<path d="M50.547,32.032c-0.426-0.081-0.888-0.164-1.387-0.246c0,0.05,0.004,0.094,0.004,0.143c0,0.201-0.011,0.382-0.013,0.58
		c0.528-0.058,0.989-0.113,1.388-0.166C50.54,32.237,50.547,32.14,50.547,32.032z"/>
	<path d="M54.063,32.874c-0.292-0.09-0.686-0.203-1.18-0.328l0.236,0.839C53.529,33.18,53.839,33.008,54.063,32.874z"/>
	<path d="M54.25,35.048c-0.5,0.258-1.129,0.556-1.897,0.871c-0.022,0.235-0.034,0.486-0.06,0.716c0.976-0.543,1.6-0.993,1.91-1.237
		C54.221,35.281,54.234,35.164,54.25,35.048z"/>
	<path d="M51.826,42.479c0.149-0.277,0.295-0.558,0.433-0.842c-0.321,0.201-0.675,0.408-1.062,0.619
		c-0.093,0.327-0.191,0.633-0.291,0.941C51.393,42.86,51.687,42.607,51.826,42.479z"/>
	<path d="M50.944,20.728c0.073,0.23,0.149,0.449,0.22,0.689c0.326,0.159,0.629,0.315,0.91,0.469
		c-0.08-0.158-0.158-0.317-0.242-0.473C51.688,21.286,51.395,21.044,50.944,20.728z"/>
	<path d="M51.798,24.047c0.056,0.277,0.117,0.544,0.168,0.832c0.62,0.264,1.148,0.518,1.593,0.749
		c-0.048-0.16-0.094-0.32-0.145-0.479C53.16,24.941,52.631,24.54,51.798,24.047z"/>
	<path d="M54.168,28.292l-0.026,0.032c-0.018-0.015-0.593-0.463-1.839-1.077c0.026,0.237,0.04,0.495,0.063,0.739
		c0.745,0.277,1.369,0.538,1.875,0.771C54.219,28.602,54.193,28.446,54.168,28.292z"/>
	<path d="M34.677,17.763c0.458,0.02,0.907,0.045,1.348,0.073c-0.149-0.596-0.303-1.159-0.459-1.69
		c-0.327-0.021-0.636-0.054-0.974-0.07C34.619,16.613,34.647,17.179,34.677,17.763z"/>
	<path d="M34.774,19.771c0.03,0.628,0.061,1.268,0.091,1.914c0.673,0.022,1.328,0.051,1.963,0.088
		c-0.107-0.662-0.225-1.289-0.348-1.896C35.926,19.835,35.36,19.797,34.774,19.771z"/>
	<path d="M37.532,35.149c-0.729,0.014-1.495,0.025-2.287,0.034c-0.013,0.633-0.029,1.287-0.051,1.961
		c0.769-0.03,1.51-0.071,2.228-0.122C37.465,36.414,37.504,35.794,37.532,35.149z"/>
	<path d="M34.488,14.073c0.132,0.006,0.268,0.009,0.397,0.016c-0.155-0.429-0.309-0.829-0.459-1.198
		C34.445,13.247,34.466,13.644,34.488,14.073z"/>
	<path d="M37.604,31.983c0-0.434-0.018-0.834-0.024-1.255c-0.759-0.026-1.543-0.049-2.359-0.063
		c0.014,0.513,0.026,0.997,0.034,1.441c0.007,0.34,0.01,0.702,0.01,1.076c0.805-0.009,1.58-0.021,2.317-0.036
		C37.588,32.756,37.604,32.386,37.604,31.983z"/>
	<path d="M45.458,37.964c-0.044,0.461-0.094,0.911-0.147,1.352c0.498-0.128,0.969-0.262,1.422-0.398
		c0.053-0.407,0.096-0.838,0.14-1.267C46.421,37.758,45.947,37.862,45.458,37.964z"/>
	<path d="M37.724,49.282c-0.16,0.015-0.326,0.026-0.488,0.04c-0.199,0.618-0.399,1.184-0.599,1.708
		c0.108-0.011,0.204-0.027,0.312-0.039C37.202,50.475,37.461,49.917,37.724,49.282z"/>
	<path d="M38.958,18.1c-0.172-0.589-0.349-1.146-0.53-1.672c-0.232-0.03-0.469-0.06-0.708-0.087c0.146,0.53,0.287,1.087,0.424,1.673
		C38.417,18.041,38.692,18.068,38.958,18.1z"/>
	<path d="M36.754,42.674c-0.586,0.041-1.189,0.073-1.807,0.099c-0.024,0.456-0.049,0.907-0.074,1.352
		c0.558-0.023,1.104-0.054,1.633-0.093C36.593,43.596,36.675,43.14,36.754,42.674z"/>
	<path d="M35.056,49.459c-0.17,0.007-0.346,0.012-0.519,0.018c-0.044,0.636-0.083,1.19-0.116,1.653
		C34.628,50.629,34.841,50.078,35.056,49.459z"/>
	<path d="M36.978,12.915c-0.12-0.011-0.254-0.016-0.376-0.025c0.161,0.424,0.323,0.878,0.484,1.361
		c0.18,0.018,0.353,0.037,0.528,0.056C37.399,13.801,37.187,13.341,36.978,12.915z"/>
	<path d="M37.243,39.04c-0.688,0.046-1.392,0.084-2.123,0.111c-0.022,0.536-0.046,1.076-0.071,1.615
		c0.692-0.03,1.357-0.075,2.009-0.126C37.126,40.124,37.186,39.589,37.243,39.04z"/>
	<path d="M34.754,46.13c-0.028,0.461-0.056,0.907-0.084,1.336c0.35-0.013,0.688-0.031,1.025-0.05
		c0.122-0.434,0.244-0.875,0.362-1.352C35.632,46.091,35.197,46.112,34.754,46.13z"/>
	<path d="M35.786,53.099c-0.009,0-0.017,0.001-0.024,0.002c-0.029,0.062-0.057,0.117-0.086,0.177
		C35.71,53.224,35.75,53.155,35.786,53.099z"/>
	<path d="M46.868,47.399c-0.01,0.004-0.02,0.008-0.029,0.011c-0.014,0.038-0.027,0.074-0.041,0.112
		C46.821,47.483,46.845,47.439,46.868,47.399z"/>
	<path d="M38.353,10.464c-0.154-0.045-0.31-0.091-0.465-0.132c0.13,0.22,0.264,0.455,0.401,0.707
		c0.176,0.021,0.345,0.043,0.515,0.064C38.628,10.841,38.473,10.621,38.353,10.464z"/>
	<path d="M37.525,28.725c-0.025-0.548-0.06-1.074-0.096-1.597c-0.753-0.051-1.529-0.092-2.336-0.121
		c0.022,0.567,0.043,1.121,0.062,1.656C35.975,28.678,36.763,28.698,37.525,28.725z"/>
	<path d="M35.824,10.828c-0.127-0.2-0.242-0.378-0.352-0.538c0.084,0.168,0.17,0.346,0.258,0.533
		C35.762,10.825,35.793,10.826,35.824,10.828z"/>
	<path d="M34.955,23.688c0.02,0.439,0.039,0.878,0.058,1.313c0.776,0.026,1.514,0.068,2.243,0.114
		c-0.045-0.442-0.086-0.895-0.139-1.316C36.42,23.753,35.702,23.714,34.955,23.688z"/>
	<path d="M16.161,22.37c-0.424,0.174-0.819,0.35-1.19,0.524c-0.098,0.369-0.195,0.738-0.283,1.133
		c0.395-0.129,0.808-0.256,1.244-0.382C16.006,23.215,16.078,22.777,16.161,22.37z"/>
	<path d="M27.936,51.054c-0.188-0.536-0.378-1.127-0.564-1.764c-0.194-0.018-0.379-0.039-0.569-0.058
		c0.252,0.659,0.501,1.241,0.746,1.778C27.681,51.023,27.8,51.041,27.936,51.054z"/>
	<path d="M17.238,32.071c0,0.187,0.011,0.354,0.012,0.537c0.435,0.047,0.905,0.093,1.417,0.137
		c-0.003-0.234-0.008-0.463-0.008-0.701c0-0.235,0.006-0.462,0.008-0.694c-0.493,0.057-0.963,0.113-1.415,0.173
		C17.25,31.709,17.238,31.882,17.238,32.071z"/>
	<path d="M26.537,45.897c-0.286-0.029-0.563-0.063-0.842-0.097c0.127,0.466,0.258,0.903,0.391,1.331
		c0.243,0.029,0.488,0.058,0.739,0.084C26.726,46.796,26.63,46.353,26.537,45.897z"/>
	<path d="M25.967,42.536c-0.354-0.035-0.706-0.071-1.048-0.111c0.084,0.445,0.176,0.867,0.268,1.287
		c0.319,0.044,0.645,0.085,0.975,0.123C26.093,43.415,26.028,42.982,25.967,42.536z"/>
	<path d="M29.609,44.117c-0.04-0.445-0.08-0.893-0.119-1.341c-0.504-0.02-0.997-0.045-1.48-0.075
		c0.066,0.459,0.138,0.903,0.211,1.332C28.674,44.067,29.137,44.095,29.609,44.117z"/>
	<path d="M29.799,46.126c-0.401-0.017-0.795-0.037-1.182-0.062c0.101,0.462,0.203,0.905,0.31,1.325
		c0.336,0.021,0.655,0.052,1.003,0.067C29.886,47.02,29.843,46.577,29.799,46.126z"/>
	<path d="M29.201,39.147c-0.547-0.022-1.082-0.05-1.604-0.084c0.046,0.554,0.097,1.096,0.153,1.615
		c0.512,0.037,1.037,0.066,1.573,0.091C29.28,40.223,29.239,39.681,29.201,39.147z"/>
	<path d="M28.614,53.102c0.227,0.392,0.43,0.721,0.596,0.971c-0.144-0.282-0.297-0.604-0.457-0.961
		C28.707,53.108,28.66,53.104,28.614,53.102z"/>
	<path d="M25.208,50.708c-0.221-0.54-0.442-1.124-0.66-1.751c-0.414-0.062-0.81-0.13-1.203-0.198
		c0.257,0.661,0.512,1.238,0.758,1.757C24.455,50.585,24.829,50.646,25.208,50.708z"/>
	<path d="M20.347,46.041c-0.113-0.414-0.224-0.843-0.329-1.289c-0.427-0.11-0.84-0.224-1.239-0.342
		c0.128,0.454,0.26,0.882,0.395,1.292C19.548,45.818,19.938,45.931,20.347,46.041z"/>
	<path d="M18.916,37.856c-0.486-0.109-0.955-0.223-1.406-0.34c0.047,0.465,0.1,0.918,0.157,1.358
		c0.445,0.138,0.91,0.272,1.397,0.403C19.011,38.814,18.96,38.343,18.916,37.856z"/>
	<path d="M17.363,47.241c0.203,0.361,0.399,0.688,0.589,0.98c-0.115-0.286-0.23-0.587-0.344-0.898
		C17.527,47.295,17.442,47.269,17.363,47.241z"/>
	<path d="M18.764,35.74c-0.019-0.324-0.035-0.651-0.049-0.985c-0.508-0.043-0.98-0.088-1.42-0.133
		c0.012,0.26,0.034,0.498,0.049,0.752C17.796,35.5,18.271,35.621,18.764,35.74z"/>
	<path d="M19.549,42.53c-0.065-0.356-0.128-0.722-0.188-1.095c-0.467-0.113-0.919-0.23-1.353-0.353
		c0.066,0.358,0.139,0.692,0.21,1.031C18.643,42.257,19.087,42.396,19.549,42.53z"/>
	<path d="M30.32,51.196c-0.06-0.547-0.121-1.128-0.186-1.735c-0.21-0.009-0.422-0.015-0.629-0.025
		c0.207,0.653,0.414,1.237,0.615,1.757C30.185,51.194,30.256,51.194,30.32,51.196z"/>
	<path d="M23.048,43.363c-0.08-0.401-0.156-0.813-0.229-1.235c-0.461-0.074-0.911-0.152-1.348-0.235
		c0.074,0.417,0.158,0.8,0.239,1.192C22.143,43.183,22.587,43.276,23.048,43.363z"/>
	<path d="M21.65,49.931c-0.205-0.503-0.41-1.048-0.612-1.635c-0.341-0.079-0.661-0.163-0.983-0.247
		c0.262,0.606,0.521,1.155,0.767,1.619C21.089,49.757,21.356,49.846,21.65,49.931z"/>
	<path d="M23.871,46.811c-0.119-0.423-0.235-0.865-0.349-1.319c-0.447-0.075-0.882-0.155-1.306-0.239
		c0.123,0.462,0.249,0.898,0.378,1.318C23.008,46.655,23.432,46.735,23.871,46.811z"/>
	<path d="M25.797,53.406c0.264,0.078,0.528,0.154,0.796,0.223c-0.129-0.235-0.263-0.488-0.4-0.759
		c-0.285-0.035-0.576-0.069-0.85-0.109C25.537,53.055,25.689,53.269,25.797,53.406z"/>
	<path d="M9.976,28.584c0.523-0.241,1.217-0.531,2.095-0.842c0.019-0.182,0.03-0.374,0.051-0.552
		c-1.16,0.541-1.847,0.975-2.104,1.152C10.003,28.424,9.988,28.503,9.976,28.584z"/>
	<path d="M31.094,28.652c0.461-0.004,0.901-0.013,1.377-0.013c0.232,0,0.455,0.002,0.683,0.003c-0.019-0.541-0.04-1.101-0.063-1.674
		c-0.33-0.004-0.641-0.017-0.979-0.017c-0.31,0-0.592,0.011-0.894,0.014C31.172,27.547,31.131,28.111,31.094,28.652z"/>
	<path d="M13.392,21.075c-0.677,0.485-1.131,0.875-1.373,1.103c0.372-0.225,0.788-0.458,1.24-0.692
		C13.301,21.341,13.349,21.215,13.392,21.075z"/>
	<path d="M30.603,12.784c-0.019,0.001-0.038,0.001-0.057,0.001c-0.152,0.396-0.307,0.823-0.465,1.283
		c0.125-0.005,0.254-0.006,0.38-0.01C30.51,13.615,30.557,13.189,30.603,12.784z"/>
	<path d="M9.944,35.052c0.279,0.239,0.973,0.787,2.144,1.459c-0.029-0.277-0.048-0.572-0.071-0.858
		c-0.855-0.375-1.561-0.731-2.129-1.046C9.905,34.755,9.924,34.903,9.944,35.052z"/>
	<path d="M9.784,30.884l-0.032-0.051c-0.001,0.02-0.001,0.04-0.002,0.061C9.761,30.891,9.773,30.888,9.784,30.884z"/>
	<path d="M13.454,43.207c-0.107-0.341-0.212-0.688-0.312-1.052c-0.483-0.256-0.918-0.507-1.313-0.75
		c0.164,0.351,0.336,0.696,0.518,1.036C12.522,42.582,12.882,42.853,13.454,43.207z"/>
	<path d="M12.476,24.833c0.04-0.22,0.086-0.427,0.129-0.641c-1.022,0.656-1.624,1.189-1.87,1.428
		C11.223,25.375,11.801,25.109,12.476,24.833z"/>
	<path d="M12.521,39.453c-0.03-0.161-0.066-0.311-0.095-0.475c-0.73-0.362-1.357-0.714-1.879-1.036
		c0.002,0.008,0.004,0.016,0.007,0.024C10.829,38.225,11.469,38.777,12.521,39.453z"/>
	<path d="M11.865,33.355l0.021-0.044c-0.009-0.289-0.021-0.573-0.023-0.87c-0.465,0.104-0.878,0.201-1.211,0.286
		C10.984,32.915,11.399,33.129,11.865,33.355z"/>
	<path d="M13.906,29.992c0.434-0.075,0.897-0.15,1.389-0.226c0.013-0.314,0.028-0.624,0.047-0.93
		c-0.497,0.133-0.962,0.265-1.388,0.396C13.938,29.484,13.919,29.733,13.906,29.992z"/>
	<path d="M15.299,34.745c-0.005-0.117-0.004-0.247-0.008-0.366c-0.533-0.076-0.989-0.152-1.382-0.226
		c0.002,0.028,0.001,0.06,0.003,0.088C14.342,34.409,14.805,34.577,15.299,34.745z"/>
	<path d="M16.126,19.429c-0.119,0.287-0.235,0.603-0.352,0.915c0.306-0.121,0.628-0.239,0.958-0.356
		c0.094-0.343,0.19-0.671,0.289-0.994C16.707,19.139,16.41,19.283,16.126,19.429z"/>
	<path d="M14.164,27.078c0.419-0.12,0.865-0.238,1.338-0.356c0.03-0.301,0.074-0.574,0.109-0.865
		c-0.479,0.151-0.925,0.302-1.34,0.453C14.233,26.562,14.197,26.816,14.164,27.078z"/>
	<path d="M13.854,32.108c0.362,0.075,0.82,0.158,1.392,0.245c-0.001-0.097-0.007-0.185-0.007-0.282c0-0.091,0.006-0.172,0.007-0.262
		c-0.497,0.078-0.962,0.156-1.394,0.234C13.852,32.066,13.854,32.086,13.854,32.108z"/>
	<path d="M15.568,38.148c-0.044-0.4-0.086-0.802-0.122-1.22c-0.477-0.15-0.925-0.303-1.353-0.455
		c0.045,0.392,0.104,0.755,0.159,1.129C14.66,37.784,15.099,37.967,15.568,38.148z"/>
	<path d="M16.832,44.883c-0.111-0.399-0.223-0.798-0.327-1.229c-0.312-0.116-0.611-0.234-0.902-0.354
		c0.154,0.445,0.314,0.864,0.477,1.265C16.319,44.671,16.567,44.776,16.832,44.883z"/>
	<path d="M16.015,41.278c-0.051-0.282-0.099-0.573-0.146-0.866c-0.415-0.146-0.816-0.291-1.194-0.439
		c0.059,0.269,0.122,0.524,0.187,0.782C15.222,40.929,15.605,41.104,16.015,41.278z"/>
	<path d="M11.896,30.375c0.005-0.143,0.005-0.292,0.012-0.433c-1.076,0.421-1.712,0.755-1.964,0.898
		C10.446,30.706,11.084,30.548,11.896,30.375z"/>
	<path d="M28.972,30.684c-0.544,0.013-1.077,0.028-1.597,0.046c-0.017,0.643-0.037,1.278-0.037,1.951
		c0,0.163,0.003,0.317,0.004,0.479c0.51,0.01,1.032,0.019,1.576,0.025c-0.003-0.359-0.003-0.705,0.003-1.021
		C28.929,31.716,28.947,31.217,28.972,30.684z"/>
	<path d="M30.067,17.729c0.06-0.567,0.118-1.124,0.176-1.665c-0.262,0.01-0.539,0.008-0.795,0.022
		c-0.151,0.529-0.3,1.091-0.445,1.682C29.352,17.753,29.708,17.74,30.067,17.729z"/>
	<path d="M29.207,26.998c-0.575,0.018-1.112,0.05-1.659,0.078c-0.04,0.529-0.065,1.095-0.095,1.649
		c0.535-0.018,1.073-0.035,1.634-0.047C29.122,28.139,29.163,27.577,29.207,26.998z"/>
	<path d="M28.193,21.743c0.482-0.024,0.976-0.045,1.479-0.061c0.062-0.65,0.126-1.3,0.19-1.943c-0.447,0.015-0.886,0.035-1.314,0.06
		C28.423,20.418,28.306,21.068,28.193,21.743z"/>
	<path d="M24.832,21.997c0.422-0.043,0.854-0.082,1.295-0.118c0.104-0.669,0.219-1.303,0.336-1.921
		c-0.425,0.042-0.841,0.089-1.246,0.14C25.08,20.704,24.951,21.334,24.832,21.997z"/>
	<path d="M29.484,23.69c-0.549,0.02-1.063,0.054-1.587,0.084c-0.054,0.419-0.106,0.841-0.154,1.279
		c0.529-0.025,1.073-0.045,1.627-0.061C29.407,24.563,29.445,24.128,29.484,23.69z"/>
	<path d="M25.735,18.021c0.378-0.041,0.764-0.078,1.157-0.111c0.133-0.575,0.271-1.119,0.41-1.643
		c-0.37,0.04-0.72,0.092-1.075,0.141C26.06,16.917,25.895,17.452,25.735,18.021z"/>
	<path d="M25.602,11.255c0.205-0.031,0.407-0.063,0.618-0.092c0.18-0.345,0.353-0.658,0.518-0.942
		c-0.16,0.039-0.319,0.081-0.479,0.124C26.14,10.49,25.905,10.798,25.602,11.255z"/>
	<path d="M27.012,14.283c0.286-0.03,0.593-0.049,0.888-0.075c0.146-0.454,0.291-0.874,0.436-1.276
		c-0.269,0.024-0.513,0.06-0.772,0.088C27.382,13.407,27.198,13.828,27.012,14.283z"/>
	<path d="M29.069,37.136c-0.04-0.677-0.073-1.331-0.099-1.95c-0.55-0.007-1.077-0.016-1.594-0.025
		c0.02,0.642,0.044,1.27,0.077,1.875C27.985,37.072,28.513,37.111,29.069,37.136z"/>
	<path d="M32.299,44.182c0.192,0,0.376-0.005,0.565-0.007c0.025-0.444,0.051-0.896,0.075-1.353
		c-0.275,0.003-0.547,0.009-0.828,0.009c-0.206,0-0.403-0.005-0.605-0.007c0.039,0.451,0.079,0.901,0.121,1.349
		C31.852,44.176,32.07,44.182,32.299,44.182z"/>
	<path d="M28.676,10.904c0.154-0.012,0.314-0.021,0.472-0.032c0.189-0.437,0.37-0.837,0.535-1.173
		c-0.077,0.009-0.154,0.021-0.231,0.03C29.271,9.971,29,10.367,28.676,10.904z"/>
	<path d="M32.111,40.831c0.316,0,0.621-0.006,0.93-0.01c0.026-0.543,0.051-1.085,0.073-1.624c-0.325,0.004-0.647,0.009-0.981,0.009
		c-0.313,0-0.615-0.006-0.921-0.01c0.039,0.535,0.081,1.078,0.125,1.626C31.595,40.825,31.849,40.831,32.111,40.831z"/>
	<path d="M30.921,32.202c-0.006,0.308-0.006,0.646-0.002,0.997c0.332,0.001,0.663,0.003,1.007,0.003c0.456,0,0.9-0.001,1.338-0.003
		c-0.001-0.368-0.003-0.723-0.01-1.055c-0.009-0.461-0.021-0.967-0.036-1.501c-0.249-0.002-0.493-0.004-0.747-0.004
		c-0.517,0-0.997,0.01-1.494,0.014C30.949,31.216,30.93,31.738,30.921,32.202z"/>
	<path d="M32.133,37.206c0.366,0,0.701-0.014,1.058-0.019c0.022-0.685,0.04-1.349,0.053-1.988c-0.432,0.002-0.868,0.003-1.317,0.003
		c-0.325,0-0.637-0.002-0.952-0.003c0.026,0.629,0.063,1.295,0.104,1.985C31.433,37.189,31.769,37.206,32.133,37.206z"/>
	<path d="M23.567,18.302c0.136-0.529,0.276-1.036,0.421-1.521c-0.368,0.072-0.749,0.14-1.1,0.221
		c-0.161,0.474-0.319,0.968-0.473,1.495C22.79,18.428,23.174,18.363,23.567,18.302z"/>
	<path d="M22.954,11.755c0.056-0.103,0.111-0.205,0.166-0.302c-0.116,0.052-0.232,0.104-0.348,0.157l0.14,0.139
		c-0.001,0.001-0.014,0.016-0.018,0.019C22.914,11.763,22.935,11.759,22.954,11.755z"/>
	<path d="M32.819,54.297c0.145-0.221,0.362-0.575,0.635-1.088c-0.299,0.007-0.587,0.02-0.896,0.021
		c0.045,0.4,0.086,0.759,0.121,1.07C32.727,54.3,32.772,54.299,32.819,54.297z"/>
	<path d="M25.535,27.204c-0.456,0.036-0.926,0.067-1.359,0.108c-0.039,0.515-0.08,1.023-0.105,1.563
		c0.439-0.026,0.913-0.046,1.373-0.067C25.471,28.265,25.498,27.725,25.535,27.204z"/>
	<path d="M20.517,15.538c0.263-0.076,0.547-0.145,0.822-0.217c0.162-0.432,0.325-0.837,0.488-1.222
		c-0.231,0.065-0.449,0.132-0.667,0.199C20.952,14.669,20.737,15.081,20.517,15.538z"/>
	<path d="M22.501,40.035c-0.065-0.499-0.125-1.013-0.179-1.538c-0.461-0.07-0.908-0.146-1.345-0.225
		c0.053,0.506,0.102,1.021,0.164,1.499C21.58,39.864,22.034,39.952,22.501,40.035z"/>
	<path d="M19.046,19.263c0.371-0.103,0.751-0.202,1.146-0.298c0.118-0.456,0.24-0.901,0.366-1.323
		c-0.366,0.113-0.734,0.228-1.076,0.348C19.334,18.394,19.188,18.815,19.046,19.263z"/>
	<path d="M22.142,36.428c-0.032-0.474-0.06-0.956-0.081-1.449c-0.467-0.024-0.911-0.05-1.339-0.077
		c0.02,0.444,0.056,0.854,0.083,1.281C21.241,36.267,21.678,36.351,22.142,36.428z"/>
	<path d="M18.072,23.093c0.422-0.098,0.854-0.193,1.307-0.285c0.094-0.563,0.195-1.102,0.302-1.626
		c-0.439,0.12-0.862,0.244-1.266,0.372C18.295,22.05,18.179,22.556,18.072,23.093z"/>
	<path d="M18.958,25.994c0.036-0.356,0.074-0.71,0.115-1.054c-0.473,0.104-0.932,0.21-1.365,0.32
		c-0.046,0.321-0.085,0.657-0.125,0.991C18.021,26.163,18.483,26.077,18.958,25.994z"/>
	<path d="M20.659,32.044c0,0.295,0.015,0.563,0.019,0.852c0.421,0.027,0.863,0.054,1.327,0.078c-0.005-0.34-0.012-0.677-0.012-1.024
		c0-0.313,0.007-0.616,0.011-0.923c-0.462,0.037-0.89,0.078-1.324,0.118C20.676,31.448,20.659,31.732,20.659,32.044z"/>
	<path d="M17.927,16.413c0.147-0.365,0.294-0.722,0.441-1.051c-0.24,0.331-0.503,0.722-0.785,1.186
		C17.696,16.503,17.812,16.458,17.927,16.413z"/>
	<path d="M25.722,40.494c-0.054-0.517-0.103-1.048-0.146-1.595c-0.406-0.039-0.805-0.081-1.196-0.127
		c0.062,0.539,0.124,1.074,0.198,1.583C24.951,40.405,25.332,40.451,25.722,40.494z"/>
	<path d="M25.443,36.861c-0.029-0.567-0.051-1.152-0.068-1.75c-0.447-0.013-0.883-0.027-1.302-0.043
		c0.027,0.571,0.069,1.116,0.111,1.66C24.588,36.779,25.022,36.817,25.443,36.861z"/>
	<path d="M22.446,24.321c-0.446,0.066-0.872,0.138-1.292,0.211c-0.051,0.366-0.09,0.756-0.134,1.137
		c0.419-0.059,0.85-0.114,1.293-0.168C22.354,25.101,22.398,24.707,22.446,24.321z"/>
	<path d="M17.302,29.488c0.45-0.058,0.928-0.111,1.417-0.165c0.019-0.427,0.042-0.845,0.068-1.256
		c-0.489,0.091-0.956,0.185-1.401,0.28C17.357,28.729,17.32,29.093,17.302,29.488z"/>
	<path d="M24.505,24.052c-0.054,0.396-0.095,0.822-0.141,1.235c0.44-0.04,0.891-0.077,1.353-0.11
		c0.043-0.422,0.083-0.849,0.133-1.254C25.395,23.964,24.938,24.003,24.505,24.052z"/>
	<path d="M23.993,31.949c0,0.386,0.019,0.74,0.024,1.115c0.428,0.017,0.865,0.032,1.324,0.046c-0.001-0.145-0.004-0.283-0.004-0.43
		c0-0.644,0.021-1.248,0.035-1.865c-0.459,0.023-0.919,0.046-1.356,0.072C24.011,31.245,23.993,31.582,23.993,31.949z"/>
	<path d="M20.732,29.125c0.434-0.039,0.865-0.078,1.325-0.112c0.021-0.5,0.048-0.991,0.08-1.471
		c-0.455,0.058-0.881,0.121-1.309,0.186C20.795,28.189,20.756,28.642,20.732,29.125z"/>
	<path d="M23.744,14.775c0.32-0.062,0.636-0.123,0.968-0.179c0.163-0.441,0.327-0.854,0.491-1.249
		c-0.298,0.052-0.593,0.103-0.876,0.159C24.136,13.893,23.942,14.316,23.744,14.775z"/>
	<path d="M21.493,22.427c0.405-0.064,0.823-0.125,1.249-0.184c0.104-0.632,0.219-1.236,0.338-1.822
		c-0.417,0.073-0.823,0.151-1.218,0.233C21.732,21.222,21.607,21.809,21.493,22.427z"/>
</g>
</svg>
