<?xml version="1.0" encoding="utf-8"?>
<!-- Generator: Adobe Illustrator 16.0.0, SVG Export Plug-In . SVG Version: 6.00 Build 0)  -->
<!DOCTYPE svg PUBLIC "-//W3C//DTD SVG 1.1//EN" "http://www.w3.org/Graphics/SVG/1.1/DTD/svg11.dtd">
<svg version="1.1" id="Layer_1" xmlns="http://www.w3.org/2000/svg" xmlns:xlink="http://www.w3.org/1999/xlink" x="0px" y="0px"
	 width="64px" height="64px" viewBox="0 0 64 64" enable-background="new 0 0 64 64" xml:space="preserve">
<path d="M54.488,29.935c0.195-0.055,0.396-0.094,0.609-0.094c0.133,0,0.264,0.013,0.389,0.035c-0.002-0.026-0.004-0.054-0.006-0.08
	c-0.133,0.025-0.268,0.04-0.406,0.04c-0.209,0-0.408-0.037-0.602-0.09c-0.965-0.266-1.678-1.14-1.678-2.189
	c0-0.74,0.357-1.392,0.904-1.808c0.268-0.205,0.582-0.35,0.924-0.421c-0.014-0.04-0.023-0.081-0.035-0.121
	c-0.58-0.142-1.074-0.5-1.387-0.99c-0.152-0.241-0.264-0.513-0.316-0.805c-0.025-0.135-0.043-0.273-0.043-0.416
	c0-0.47,0.154-0.896,0.4-1.256c-0.311-0.64-0.648-1.262-1.014-1.867c-0.229,0.249-0.51,0.45-0.83,0.577
	c0.09,0.15,0.176,0.304,0.262,0.456c0.701,0.389,1.184,1.128,1.184,1.986c0,0.113-0.018,0.222-0.033,0.33
	c-0.162,1.103-1.102,1.95-2.248,1.95c-1.258,0-2.279-1.021-2.279-2.28c0-1.259,1.021-2.279,2.279-2.279
	c-1.258,0-2.279-1.021-2.279-2.279c0-0.539,0.195-1.027,0.508-1.418c0.211-0.265,0.48-0.481,0.787-0.632
	c-0.473-0.53-0.973-1.037-1.492-1.521c-0.154,0.305-0.377,0.57-0.646,0.778c-0.385,0.298-0.863,0.482-1.389,0.482
	c-1.258,0-2.279-1.021-2.279-2.28c0-0.315,0.064-0.616,0.182-0.89c0.135-0.316,0.342-0.591,0.598-0.815
	c-0.604-0.379-1.225-0.73-1.861-1.056c-0.354,0.23-0.768,0.373-1.221,0.373c-0.148,0-0.291-0.017-0.432-0.044
	c-0.309-0.059-0.598-0.179-0.85-0.35c-0.475-0.323-0.813-0.823-0.939-1.402c-0.033-0.012-0.068-0.024-0.104-0.035
	c-0.045,0.344-0.146,0.671-0.326,0.949c-0.408,0.625-1.109,1.04-1.91,1.04c-1.141,0-2.076-0.839-2.244-1.931
	c-0.018-0.115-0.035-0.229-0.035-0.349c0-0.228,0.043-0.443,0.105-0.651c-0.063-0.007-0.125-0.017-0.188-0.023
	c0.049,0.184,0.082,0.373,0.082,0.571c0,0.151-0.018,0.299-0.045,0.441c-0.207,1.048-1.127,1.838-2.234,1.838
	c-1.131,0-2.063-0.824-2.242-1.903c-0.021-0.123-0.039-0.247-0.039-0.376c0-0.222,0.043-0.431,0.102-0.632
	c-0.078,0.006-0.156,0.011-0.234,0.018c0.078,0.229,0.133,0.47,0.133,0.727c0,0.092-0.016,0.18-0.027,0.269
	c-0.135,1.131-1.086,2.011-2.252,2.011c-0.875,0-1.627-0.499-2.008-1.223c-0.154-0.291-0.246-0.619-0.26-0.969
	c-0.01,0.003-0.02,0.006-0.029,0.008c-0.041,0.447-0.207,0.855-0.469,1.191c-0.416,0.537-1.061,0.889-1.793,0.889
	c-0.139,0-0.273-0.018-0.404-0.041c-0.439-0.079-0.826-0.292-1.139-0.584c-0.66,0.322-1.305,0.673-1.93,1.053
	c0.318,0.169,0.59,0.411,0.797,0.704c0.262,0.371,0.42,0.821,0.42,1.311c0,1.26-1.021,2.28-2.281,2.28
	c-0.738,0-1.387-0.356-1.803-0.9c-0.213-0.278-0.365-0.604-0.434-0.961c-0.049,0.043-0.1,0.084-0.148,0.128
	c-0.223,0.748-0.814,1.33-1.568,1.538c-0.049,0.053-0.102,0.104-0.15,0.157c0.354,0.083,0.678,0.244,0.949,0.47
	c0.5,0.419,0.826,1.041,0.826,1.745c0,1.259-1.02,2.279-2.279,2.279c1.26,0,2.281,1.021,2.281,2.279c0,1.26-1.021,2.28-2.281,2.28
	c-1.258,0-2.279-1.021-2.279-2.28c0-1.259,1.021-2.279,2.279-2.279c-0.488,0-0.939-0.157-1.311-0.419
	c-0.287-0.203-0.525-0.473-0.695-0.784c-0.367,0.579-0.709,1.175-1.025,1.786c0.287,0.264,0.512,0.593,0.633,0.974
	c0.07,0.22,0.119,0.449,0.119,0.692c0,0.873-0.496,1.622-1.217,2.006c-0.318,0.169-0.676,0.274-1.063,0.274
	c-0.027,0-0.053-0.009-0.08-0.011c-0.002,0.006-0.002,0.011-0.004,0.016c0.012,0,0.023-0.005,0.035-0.005
	c0.34,0,0.66,0.079,0.949,0.213c0.783,0.36,1.33,1.147,1.33,2.067c0,1.236-0.986,2.238-2.215,2.272
	c-0.021,0.001-0.043,0.007-0.064,0.007c-0.33,0-0.637-0.082-0.92-0.209c-0.016,0.154-0.027,0.309-0.041,0.464
	c0.301-0.147,0.627-0.25,0.984-0.25c0.014,0,0.025,0.004,0.039,0.004c1.24,0.021,2.242,1.029,2.242,2.275
	c0,1.248-1.004,2.259-2.248,2.276c-0.01,0.001-0.021,0.004-0.033,0.004c-0.359,0-0.688-0.104-0.988-0.252
	c0.012,0.151,0.021,0.304,0.037,0.455c0.277-0.124,0.58-0.203,0.904-0.203c0.027,0,0.053,0.008,0.082,0.008
	c1.219,0.045,2.197,1.041,2.197,2.272c0,0.917-0.545,1.702-1.326,2.064c-0.291,0.134-0.611,0.215-0.953,0.215
	c-0.012,0-0.02-0.004-0.031-0.005c0.002,0.006,0.004,0.012,0.006,0.018c0.033-0.002,0.063-0.013,0.096-0.013
	c0.377,0,0.725,0.1,1.037,0.261c0.736,0.378,1.244,1.135,1.244,2.019c0,0.259-0.053,0.502-0.133,0.733
	c-0.127,0.375-0.354,0.698-0.643,0.955c0.316,0.612,0.656,1.209,1.021,1.789c0.174-0.309,0.414-0.574,0.703-0.772
	c0.365-0.249,0.807-0.395,1.281-0.395c1.26,0,2.279,1.021,2.279,2.28c0,0.692-0.314,1.306-0.803,1.724
	c-0.266,0.229-0.586,0.393-0.938,0.481c0.063,0.068,0.129,0.134,0.193,0.202c0.678,0.223,1.211,0.748,1.441,1.423
	c0.076,0.068,0.156,0.134,0.232,0.202c0.102-0.339,0.271-0.647,0.504-0.901c0.416-0.454,1.01-0.743,1.674-0.743
	c1.26,0,2.279,1.021,2.279,2.279c0,0.412-0.117,0.794-0.309,1.127c-0.174,0.305-0.424,0.558-0.713,0.753
	c0.541,0.326,1.1,0.628,1.668,0.91c0.293-0.291,0.656-0.51,1.074-0.605c0.164-0.038,0.336-0.063,0.512-0.063
	c0.785,0,1.479,0.397,1.889,1.003c0.227,0.334,0.352,0.735,0.373,1.165c0.016,0.004,0.031,0.008,0.047,0.013
	c0.033-0.347,0.129-0.674,0.299-0.958c0.396-0.668,1.119-1.119,1.951-1.119c1.133,0,2.066,0.828,2.244,1.911
	c0.02,0.121,0.037,0.243,0.037,0.369c0,0.22-0.041,0.428-0.1,0.629c0.082,0.008,0.164,0.013,0.248,0.019
	c-0.088-0.238-0.148-0.49-0.148-0.76c0-0.086,0.016-0.168,0.025-0.252c0.127-1.14,1.082-2.028,2.254-2.028
	c1.156,0,2.102,0.864,2.25,1.981c0.012,0.099,0.029,0.196,0.029,0.299c0,0.255-0.055,0.493-0.133,0.722
	c0.074-0.008,0.148-0.02,0.223-0.027c-0.053-0.189-0.09-0.385-0.09-0.591c0-0.141,0.018-0.278,0.041-0.412
	c0.195-1.063,1.121-1.868,2.238-1.868c0.787,0,1.48,0.398,1.891,1.005c0.188,0.275,0.289,0.602,0.34,0.945
	c0.023-0.007,0.045-0.016,0.068-0.023c0.041-0.462,0.217-0.884,0.492-1.227c0.418-0.52,1.051-0.858,1.77-0.858
	c0.084,0,0.162,0.016,0.242,0.024c0.461,0.05,0.871,0.244,1.207,0.523c0.586-0.303,1.158-0.629,1.713-0.979
	c-0.262-0.217-0.479-0.485-0.623-0.799c-0.133-0.289-0.211-0.607-0.211-0.947c0-1.259,1.02-2.279,2.279-2.279
	c0.551,0,1.049,0.203,1.443,0.528c0.264,0.218,0.475,0.492,0.621,0.804c0.525-0.486,1.027-0.996,1.506-1.528
	c-0.309-0.148-0.58-0.361-0.795-0.625c-0.32-0.393-0.52-0.887-0.52-1.433c0-1.26,1.021-2.28,2.279-2.28
	c0.307,0,0.598,0.063,0.865,0.172c0.318,0.131,0.596,0.337,0.822,0.59c0.35-0.576,0.67-1.17,0.969-1.776
	c-0.203-0.341-0.328-0.735-0.328-1.162c0-1.047,0.711-1.919,1.672-2.187c0.016-0.052,0.029-0.104,0.045-0.154
	c-0.34-0.078-0.652-0.228-0.918-0.438c-0.527-0.418-0.871-1.056-0.871-1.779c0-1.049,0.713-1.923,1.676-2.189
	c0.193-0.053,0.395-0.091,0.605-0.091c0.141,0,0.277,0.016,0.41,0.041c0.002-0.024,0.004-0.05,0.008-0.074
	c-0.121,0.021-0.244,0.033-0.371,0.033c-0.219,0-0.428-0.041-0.627-0.099c-0.953-0.274-1.652-1.142-1.652-2.182
	C52.818,31.074,53.527,30.202,54.488,29.935z M50.516,25.173c1.258,0,2.279,1.021,2.279,2.28c0,1.259-1.021,2.279-2.279,2.279
	c-1.26,0-2.281-1.021-2.281-2.279C48.234,26.193,49.256,25.173,50.516,25.173z M27.764,43.449c-1.258,0-2.279-1.021-2.279-2.28
	c0-1.259,1.021-2.279,2.279-2.279c1.26,0,2.281,1.021,2.281,2.279C30.045,42.429,29.023,43.449,27.764,43.449z M29.996,45.729
	c0,1.259-1.021,2.279-2.279,2.279c-1.26,0-2.281-1.021-2.281-2.279c0-1.26,1.021-2.28,2.281-2.28
	C28.975,43.449,29.996,44.47,29.996,45.729z M16.342,32.001c0,1.26-1.02,2.28-2.279,2.28s-2.279-1.021-2.279-2.28
	c0-1.259,1.02-2.279,2.279-2.279S16.342,30.742,16.342,32.001z M16.318,27.541c0-1.26,1.02-2.28,2.279-2.28
	c1.258,0,2.279,1.021,2.279,2.28c0,1.259-1.021,2.279-2.279,2.279C17.338,29.82,16.318,28.8,16.318,27.541z M18.621,29.825
	c1.26,0,2.281,1.021,2.281,2.279c0,1.26-1.021,2.28-2.281,2.28c-1.258,0-2.279-1.021-2.279-2.28
	C16.342,30.846,17.363,29.825,18.621,29.825z M25.484,18.367c0-1.26,1.021-2.28,2.281-2.28c1.258,0,2.279,1.021,2.279,2.28
	c0,1.259-1.021,2.279-2.279,2.279c1.258,0,2.279,1.021,2.279,2.279c0,1.26-1.021,2.28-2.279,2.28c-1.26,0-2.281-1.021-2.281-2.28
	c0-1.259,1.021-2.279,2.281-2.279C26.506,20.646,25.484,19.626,25.484,18.367z M30.045,18.255c0-1.26,1.021-2.28,2.279-2.28
	c1.26,0,2.279,1.021,2.279,2.28c0,1.259-1.02,2.279-2.279,2.279c1.26,0,2.281,1.021,2.281,2.279c0,1.26-1.021,2.28-2.281,2.28
	c-1.258,0-2.279-1.021-2.279-2.28c0-1.259,1.021-2.279,2.279-2.279C31.066,20.534,30.045,19.514,30.045,18.255z M39.164,18.2
	c0-1.26,1.021-2.28,2.279-2.28c1.26,0,2.279,1.021,2.279,2.28c0,1.259-1.02,2.279-2.279,2.279c1.26,0,2.281,1.021,2.281,2.279
	c0,1.26-1.021,2.28-2.281,2.28c-1.258,0-2.279-1.021-2.279-2.28c0-1.259,1.021-2.279,2.279-2.279
	C40.186,20.479,39.164,19.459,39.164,18.2z M27.74,34.33c-1.258,0-2.279-1.021-2.279-2.28c0-1.259,1.021-2.279,2.279-2.279
	c1.26,0,2.281,1.021,2.281,2.279C30.021,33.31,29,34.33,27.74,34.33z M29.973,36.61c0,1.259-1.021,2.279-2.279,2.279
	c-1.26,0-2.281-1.021-2.281-2.279c0-1.26,1.021-2.28,2.281-2.28C28.951,34.33,29.973,35.351,29.973,36.61z M23.182,34.227
	c-1.26,0-2.279-1.021-2.279-2.28c0-1.259,1.02-2.279,2.279-2.279s2.279,1.021,2.279,2.279
	C25.461,33.206,24.441,34.227,23.182,34.227z M34.557,27.478c0-1.26,1.02-2.28,2.279-2.28c1.258,0,2.279,1.021,2.279,2.28
	c0,1.259-1.021,2.279-2.279,2.279C35.576,29.757,34.557,28.736,34.557,27.478z M34.58,31.938c0,1.26-1.02,2.28-2.279,2.28
	s-2.279-1.021-2.279-2.28c0-1.259,1.02-2.279,2.279-2.279S34.58,30.679,34.58,31.938z M32.277,29.653
	c-1.26,0-2.281-1.021-2.281-2.279c0-1.26,1.021-2.28,2.281-2.28c1.258,0,2.279,1.021,2.279,2.28
	C34.557,28.633,33.535,29.653,32.277,29.653z M32.252,34.218c1.26,0,2.279,1.021,2.279,2.28c0,1.259-1.02,2.279-2.279,2.279
	c-1.258,0-2.279-1.021-2.279-2.279C29.973,35.238,30.994,34.218,32.252,34.218z M32.324,38.777c1.26,0,2.279,1.021,2.279,2.279
	c0,1.26-1.02,2.28-2.279,2.28s-2.279-1.021-2.279-2.28C30.045,39.798,31.064,38.777,32.324,38.777z M34.531,36.602
	c0-1.26,1.021-2.28,2.281-2.28c1.258,0,2.279,1.021,2.279,2.28c0,1.259-1.021,2.279-2.279,2.279
	C35.553,38.881,34.531,37.86,34.531,36.602z M36.859,34.321c-1.258,0-2.279-1.021-2.279-2.28c0-1.259,1.021-2.279,2.279-2.279
	c1.26,0,2.281,1.021,2.281,2.279C39.141,33.301,38.119,34.321,36.859,34.321z M41.371,34.163c1.26,0,2.279,1.021,2.279,2.28
	c0,1.259-1.02,2.279-2.279,2.279c-1.258,0-2.279-1.021-2.279-2.279C39.092,35.184,40.113,34.163,41.371,34.163z M41.42,34.163
	c-1.26,0-2.279-1.021-2.279-2.28c0-1.259,1.02-2.279,2.279-2.279s2.279,1.021,2.279,2.279C43.699,33.143,42.68,34.163,41.42,34.163z
	 M43.676,27.423c0-1.26,1.02-2.28,2.279-2.28c1.258,0,2.279,1.021,2.279,2.28c0,1.259-1.021,2.279-2.279,2.279
	C44.695,29.702,43.676,28.682,43.676,27.423z M41.396,29.599c-1.26,0-2.281-1.021-2.281-2.279c0-1.26,1.021-2.28,2.281-2.28
	c1.258,0,2.279,1.021,2.279,2.28C43.676,28.578,42.654,29.599,41.396,29.599z M36.885,20.638c1.258,0,2.279,1.021,2.279,2.279
	c0,1.26-1.021,2.28-2.279,2.28c-1.26,0-2.281-1.021-2.281-2.28C34.604,21.658,35.625,20.638,36.885,20.638
	c-1.26,0-2.281-1.021-2.281-2.279c0-1.26,1.021-2.28,2.281-2.28c1.258,0,2.279,1.021,2.279,2.28
	C39.164,19.617,38.143,20.638,36.885,20.638z M27.717,25.206c1.258,0,2.279,1.021,2.279,2.28c0,1.259-1.021,2.279-2.279,2.279
	c-1.26,0-2.279-1.021-2.279-2.279C25.438,26.227,26.457,25.206,27.717,25.206z M23.158,29.662c-1.26,0-2.281-1.021-2.281-2.279
	c0-1.26,1.021-2.28,2.281-2.28c1.258,0,2.279,1.021,2.279,2.28C25.438,28.642,24.416,29.662,23.158,29.662z M18.574,34.385
	c1.258,0,2.279,1.021,2.279,2.28c0,1.259-1.021,2.279-2.279,2.279c-1.26,0-2.281-1.021-2.281-2.279
	C16.293,35.405,17.314,34.385,18.574,34.385z M18.645,38.944c1.26,0,2.281,1.021,2.281,2.279c0,1.26-1.021,2.28-2.281,2.28
	c-1.258,0-2.279-1.021-2.279-2.28C16.365,39.965,17.387,38.944,18.645,38.944z M20.854,36.507c0-1.26,1.021-2.28,2.279-2.28
	c1.26,0,2.279,1.021,2.279,2.28c0,1.259-1.02,2.279-2.279,2.279C21.875,38.786,20.854,37.766,20.854,36.507z M23.205,38.786
	c1.26,0,2.279,1.021,2.279,2.279c0,1.26-1.02,2.28-2.279,2.28s-2.279-1.021-2.279-2.28C20.926,39.807,21.945,38.786,23.205,38.786z
	 M32.275,43.337c1.26,0,2.279,1.021,2.279,2.28c0,1.259-1.02,2.279-2.279,2.279c-1.258,0-2.279-1.021-2.279-2.279
	C29.996,44.357,31.018,43.337,32.275,43.337z M36.836,43.44c1.258,0,2.279,1.021,2.279,2.28c0,1.259-1.021,2.279-2.279,2.279
	c-1.26,0-2.281-1.021-2.281-2.279C34.555,44.461,35.576,43.44,36.836,43.44z M36.883,43.44c-1.258,0-2.279-1.021-2.279-2.28
	c0-1.259,1.021-2.279,2.279-2.279c1.26,0,2.281,1.021,2.281,2.279C39.164,42.42,38.143,43.44,36.883,43.44z M41.395,43.282
	c1.26,0,2.279,1.021,2.279,2.28c0,1.259-1.02,2.279-2.279,2.279c-1.258,0-2.279-1.021-2.279-2.279
	C39.115,44.303,40.137,43.282,41.395,43.282z M41.443,43.282c-1.26,0-2.279-1.021-2.279-2.28c0-1.259,1.02-2.279,2.279-2.279
	s2.279,1.021,2.279,2.279C43.723,42.262,42.703,43.282,41.443,43.282z M43.65,36.547c0-1.26,1.021-2.28,2.281-2.28
	c1.258,0,2.279,1.021,2.279,2.28c0,1.259-1.021,2.279-2.279,2.279C44.672,38.826,43.65,37.806,43.65,36.547z M45.979,34.267
	c-1.258,0-2.279-1.021-2.279-2.28c0-1.259,1.021-2.279,2.279-2.279c1.26,0,2.281,1.021,2.281,2.279
	C48.26,33.246,47.238,34.267,45.979,34.267z M46.004,16.023c1.258,0,2.279,1.021,2.279,2.28c0,1.259-1.021,2.279-2.279,2.279
	c1.258,0,2.279,1.021,2.279,2.279c0,1.26-1.021,2.28-2.279,2.28c-1.26,0-2.281-1.021-2.281-2.28c0-1.259,1.021-2.279,2.281-2.279
	c-1.26,0-2.281-1.021-2.281-2.279C43.723,17.044,44.744,16.023,46.004,16.023z M41.207,11.39c0.096-0.013,0.188-0.029,0.285-0.029
	c0.871,0,1.621,0.495,2.004,1.214c0.17,0.319,0.275,0.679,0.275,1.065c0,1.26-1.02,2.28-2.279,2.28s-2.279-1.021-2.279-2.28
	C39.213,12.479,40.084,11.53,41.207,11.39z M36.932,11.519c1.26,0,2.281,1.021,2.281,2.279c0,1.26-1.021,2.28-2.281,2.28
	c-1.258,0-2.279-1.021-2.279-2.28C34.652,12.539,35.674,11.519,36.932,11.519z M32.373,11.415c1.26,0,2.279,1.021,2.279,2.279
	c0,1.26-1.02,2.28-2.279,2.28s-2.279-1.021-2.279-2.28C30.094,12.436,31.113,11.415,32.373,11.415z M27.813,11.527
	c1.26,0,2.281,1.021,2.281,2.279c0,1.26-1.021,2.28-2.281,2.28c-1.258,0-2.279-1.021-2.279-2.28
	C25.533,12.548,26.555,11.527,27.813,11.527z M23.254,11.424c1.26,0,2.279,1.021,2.279,2.279c0,1.26-1.02,2.28-2.279,2.28
	s-2.279-1.021-2.279-2.28C20.975,12.444,21.994,11.424,23.254,11.424z M23.205,15.983c1.26,0,2.279,1.021,2.279,2.28
	c0,1.259-1.02,2.279-2.279,2.279c1.26,0,2.281,1.021,2.281,2.279c0,1.26-1.021,2.28-2.281,2.28c-1.258,0-2.279-1.021-2.279-2.28
	c0-1.259,1.021-2.279,2.279-2.279c-1.258,0-2.279-1.021-2.279-2.279C20.926,17.004,21.947,15.983,23.205,15.983z M18.646,20.701
	c-1.26,0-2.281-1.021-2.281-2.279c0-1.26,1.021-2.28,2.281-2.28c1.258,0,2.279,1.021,2.279,2.28
	C20.926,19.681,19.904,20.701,18.646,20.701c1.258,0,2.279,1.021,2.279,2.279c0,1.26-1.021,2.28-2.279,2.28
	c-1.26,0-2.281-1.021-2.281-2.28C16.365,21.722,17.387,20.701,18.646,20.701z M11.758,27.438c0-1.26,1.021-2.28,2.281-2.28
	c1.258,0,2.279,1.021,2.279,2.28c0,1.259-1.021,2.279-2.279,2.279C12.779,29.717,11.758,28.696,11.758,27.438z M11.734,36.562
	c0-1.26,1.021-2.28,2.279-2.28c1.26,0,2.279,1.021,2.279,2.28c0,1.259-1.02,2.279-2.279,2.279
	C12.756,38.841,11.734,37.82,11.734,36.562z M14.086,43.4c-1.26,0-2.279-1.021-2.279-2.28c0-1.259,1.02-2.279,2.279-2.279
	s2.279,1.021,2.279,2.279C16.365,42.38,15.346,43.4,14.086,43.4z M18.598,48.063c-1.26,0-2.281-1.021-2.281-2.279
	c0-1.26,1.021-2.28,2.281-2.28c1.258,0,2.279,1.021,2.279,2.28C20.877,47.043,19.855,48.063,18.598,48.063z M20.877,45.626
	c0-1.26,1.021-2.28,2.279-2.28c1.26,0,2.279,1.021,2.279,2.28c0,1.259-1.02,2.279-2.279,2.279
	C21.898,47.905,20.877,46.885,20.877,45.626z M23.182,52.47c-1.26,0-2.279-1.021-2.279-2.28c0-1.259,1.02-2.279,2.279-2.279
	c1.258,0,2.279,1.021,2.279,2.279C25.461,51.449,24.439,52.47,23.182,52.47z M27.74,52.573c-1.26,0-2.279-1.021-2.279-2.28
	c0-1.259,1.02-2.279,2.279-2.279s2.279,1.021,2.279,2.279C30.02,51.553,29,52.573,27.74,52.573z M32.301,52.461
	c-1.26,0-2.279-1.021-2.279-2.28c0-1.259,1.02-2.279,2.279-2.279c1.258,0,2.279,1.021,2.279,2.279
	C34.58,51.44,33.559,52.461,32.301,52.461z M36.859,52.564c-1.26,0-2.279-1.021-2.279-2.28c0-1.259,1.02-2.279,2.279-2.279
	s2.279,1.021,2.279,2.279C39.139,51.544,38.119,52.564,36.859,52.564z M43.098,51.659c-0.445,0.252-0.896,0.493-1.357,0.715
	c-0.105,0.015-0.211,0.032-0.32,0.032c-1.26,0-2.279-1.021-2.279-2.28c0-1.259,1.02-2.279,2.279-2.279
	c1.258,0,2.279,1.021,2.279,2.279C43.699,50.719,43.467,51.254,43.098,51.659z M45.955,47.945c-1.26,0-2.281-1.021-2.281-2.279
	c0-1.26,1.021-2.28,2.281-2.28c1.258,0,2.279,1.021,2.279,2.28C48.234,46.925,47.213,47.945,45.955,47.945z M46.002,43.386
	c-1.258,0-2.279-1.021-2.279-2.28c0-1.259,1.021-2.279,2.279-2.279c1.26,0,2.281,1.021,2.281,2.279
	C48.283,42.365,47.262,43.386,46.002,43.386z M52.807,40.786c0.018,0.115,0.035,0.23,0.035,0.35c0,0.868-0.49,1.613-1.203,1.998
	c-0.32,0.174-0.684,0.282-1.076,0.282c-1.26,0-2.279-1.021-2.279-2.28c0-1.259,1.02-2.279,2.279-2.279
	C51.701,38.856,52.639,39.694,52.807,40.786z M50.49,38.856c-1.258,0-2.279-1.021-2.279-2.279c0-1.26,1.021-2.28,2.279-2.28
	c1.26,0,2.279,1.021,2.279,2.28C52.77,37.836,51.75,38.856,50.49,38.856z M50.539,34.297c-1.26,0-2.279-1.021-2.279-2.28
	c0-1.259,1.02-2.279,2.279-2.279s2.279,1.021,2.279,2.279C52.818,33.276,51.799,34.297,50.539,34.297z"/>
</svg>
