<?xml version="1.0" encoding="utf-8"?>
<!-- Generator: Adobe Illustrator 16.0.0, SVG Export Plug-In . SVG Version: 6.00 Build 0)  -->
<!DOCTYPE svg PUBLIC "-//W3C//DTD SVG 1.1//EN" "http://www.w3.org/Graphics/SVG/1.1/DTD/svg11.dtd">
<svg version="1.1" id="Layer_1" xmlns="http://www.w3.org/2000/svg" xmlns:xlink="http://www.w3.org/1999/xlink" x="0px" y="0px"
	 width="64px" height="64px" viewBox="0 0 64 64" enable-background="new 0 0 64 64" xml:space="preserve">
<path d="M53.82,21.158l0.007-0.358c-0.009,0-0.076-0.001-0.191-0.001C49.572,12.981,41.402,7.626,32,7.626
	C18.56,7.626,7.626,18.56,7.626,32S18.56,56.374,32,56.374c13.44,0,24.374-10.934,24.374-24.374
	C56.374,28.106,55.451,24.426,53.82,21.158z M47.689,39.484c1.192,2.952,1.528,5.455,1.052,7.336
	c-1.171,1.321-2.496,2.502-3.946,3.518c-0.416,0.067-0.857,0.106-1.331,0.106c-1.842,0-3.987-0.524-6.273-1.472
	c1.959-1.61,4.001-3.47,5.879-5.543c1.446-1.596,2.84-3.31,4.144-5.011C47.377,38.773,47.547,39.132,47.689,39.484z M42.33,42.757
	c-1.967,2.171-4.121,4.113-6.161,5.764c-1.743-0.805-3.551-1.84-5.365-3.082c1.4-1.92,2.811-4.056,4.075-6.324
	c3.602-1.279,7.119-2.958,10.2-4.625c0.621,0.978,1.167,1.951,1.653,2.914C45.358,39.217,43.872,41.055,42.33,42.757z
	 M22.435,52.222c0.727-1.799,2.056-5.346,3.125-9.607c1.259,1.104,2.543,2.124,3.835,3.048c-2.393,3.187-4.655,5.678-5.934,7.014
	C23.115,52.533,22.772,52.382,22.435,52.222z M10.298,37.439l0.198,0.245c0.049-0.04,2.631-2.112,6.536-4.676
	c0.632,0.941,1.307,1.881,2.045,2.814c-0.455,1.879-0.842,3.675-1.168,5.326c-2.946,0.147-5.234,0.099-6.292,0.061
	C11.071,40.004,10.626,38.745,10.298,37.439z M13.65,19.221c0.759-1.086,1.607-2.105,2.542-3.04c0.768-0.336,1.665-0.526,2.72-0.526
	c1.701,0,3.66,0.448,5.749,1.261c0.136,0.667,0.271,1.368,0.4,2.098c-1.533,3.09-3.039,6.566-4.138,10.095
	c-0.039,0.126-0.077,0.251-0.115,0.377c-1.24,0.725-2.407,1.448-3.494,2.147c-1.079-1.696-1.966-3.384-2.626-5.019
	C13.484,23.633,13.152,21.108,13.65,19.221z M32,9.626c3.538,0,6.885,0.829,9.862,2.297l-0.083-0.009
	c-0.008,0.073-0.484,4.454-1.803,10.162c-1.25,0.232-2.529,0.507-3.816,0.832c-2.938-2.49-6.001-4.518-8.919-5.941
	c1.74-3.258,3.373-5.873,4.321-7.33C31.708,9.634,31.853,9.626,32,9.626z M24.327,40.126c-1.517-1.47-2.903-3.001-4.158-4.553
	c0.433-1.756,0.925-3.578,1.481-5.418c1.414-0.818,2.911-1.629,4.457-2.397c0.064,1.192,0.095,2.396,0.078,3.595
	c-0.045,3.074-0.51,6.206-1.143,9.103c-0.105,0.016-0.21,0.03-0.316,0.045C24.593,40.375,24.458,40.254,24.327,40.126z
	 M26.779,17.84c2.666,1.299,5.471,3.138,8.191,5.383c-1.603,0.443-3.203,0.965-4.753,1.584c-1.083,0.433-2.154,0.911-3.21,1.407
	c-0.195-2.482-0.527-4.881-0.904-7.049C26.328,18.715,26.554,18.273,26.779,17.84z M25.805,17.547
	c-0.011-0.056-0.022-0.114-0.033-0.17c0.032,0.014,0.065,0.03,0.098,0.045C25.849,17.464,25.827,17.505,25.805,17.547z
	 M26.039,26.675c-1.362,0.667-2.683,1.369-3.951,2.083c0.907-2.783,2.056-5.522,3.258-8.046
	C25.641,22.589,25.89,24.606,26.039,26.675z M25.868,41.34c2.492-0.395,5.08-0.958,7.585-1.749
	c-1.099,1.878-2.284,3.654-3.465,5.272c-1.401-1.005-2.798-2.124-4.162-3.346C25.84,41.458,25.854,41.4,25.868,41.34z M36.02,34.57
	c-0.544,1.269-1.161,2.515-1.824,3.726c-2.646,0.916-5.42,1.554-8.095,1.995c0.604-2.85,1.04-5.913,1.084-8.922
	c0.02-1.364-0.02-2.733-0.103-4.086c1.151-0.549,2.322-1.073,3.506-1.546c1.729-0.691,3.522-1.259,5.312-1.729
	c0.726,0.629,1.445,1.281,2.151,1.965c0.25,0.243,0.485,0.492,0.728,0.737C38.034,29.305,37.123,31.998,36.02,34.57z M39.582,27.522
	c1.893,1.992,3.549,4.063,4.94,6.134c-2.722,1.469-5.783,2.944-8.938,4.136c0.481-0.929,0.943-1.869,1.354-2.828
	C37.983,32.529,38.855,29.989,39.582,27.522z M38.747,25.254c-0.549-0.532-1.107-1.042-1.67-1.542
	c0.89-0.213,1.774-0.404,2.646-0.572c-0.195,0.802-0.406,1.624-0.634,2.461C38.973,25.486,38.864,25.368,38.747,25.254z
	 M26.332,16.546c-0.268-0.12-0.534-0.238-0.798-0.347c-0.467-2.229-0.932-4.042-1.25-5.201c1.909-0.704,3.94-1.148,6.051-1.304
	C29.345,11.244,27.878,13.646,26.332,16.546z M24.419,15.765c-1.989-0.719-3.859-1.11-5.507-1.11c-0.4,0-0.768,0.042-1.135,0.085
	c1.671-1.379,3.545-2.521,5.571-3.373C23.629,12.397,24.019,13.917,24.419,15.765z M20.384,30.904
	c-0.361,1.242-0.693,2.471-0.998,3.674c-0.538-0.703-1.042-1.408-1.516-2.114C18.663,31.954,19.506,31.431,20.384,30.904z
	 M19.876,36.788c1.103,1.322,2.296,2.624,3.583,3.883c-1.592,0.197-3.116,0.33-4.519,0.418
	C19.21,39.739,19.521,38.294,19.876,36.788z M24.39,41.557c0.11,0.103,0.218,0.208,0.329,0.308c-1.06,4.371-2.43,8.042-3.179,9.905
	c-1.412-0.75-2.734-1.647-3.946-2.67c0.199-1.485,0.567-3.961,1.149-6.998C20.47,41.999,22.382,41.83,24.39,41.557z M30.21,46.24
	c1.711,1.17,3.423,2.172,5.085,2.972c-3.084,2.412-5.785,4.106-7.024,4.846c-1.309-0.221-2.58-0.553-3.802-0.991
	C25.808,51.649,27.951,49.251,30.21,46.24z M45.956,34.01c2.09-1.159,3.946-2.289,5.458-3.254c-1.105,1.682-2.48,3.687-4.019,5.762
	C46.959,35.686,46.487,34.85,45.956,34.01z M45.402,33.175c-1.53-2.29-3.386-4.573-5.503-6.755c0.333-1.191,0.632-2.357,0.899-3.479
	c4.658-0.821,8.815-1.057,11.116-1.121c0.831,1.618,1.469,3.35,1.886,5.165c-0.258,0.427-0.609,0.998-1.058,1.709
	C51.045,29.832,48.47,31.477,45.402,33.175z M51.378,20.839c-2.334,0.082-6.11,0.329-10.335,1.047
	c1.057-4.664,1.551-8.382,1.688-9.512C46.33,14.35,49.326,17.289,51.378,20.839z M12.437,21.16c0.021,1.702,0.449,3.66,1.324,5.829
	c0.683,1.693,1.6,3.438,2.715,5.19c-3.285,2.158-5.622,3.952-6.348,4.522C9.802,35.185,9.626,33.613,9.626,32
	C9.626,28.069,10.649,24.374,12.437,21.16z M12.11,42.225c0.483,0.013,1.095,0.023,1.823,0.023c1.05,0,2.337-0.023,3.781-0.091
	c-0.481,2.534-0.812,4.664-1.02,6.14C14.842,46.556,13.287,44.504,12.11,42.225z M29.839,54.268c1.536-0.963,3.892-2.535,6.48-4.591
	c2.445,1.069,4.752,1.679,6.76,1.749c-3.27,1.873-7.05,2.949-11.08,2.949C31.271,54.374,30.55,54.336,29.839,54.268z M49.957,45.331
	c0.047-1.787-0.398-3.889-1.34-6.221c-0.213-0.529-0.455-1.063-0.712-1.602c2.318-3.096,4.276-6.059,5.569-8.101
	c0.248-0.167,0.479-0.325,0.686-0.466c0.137,1.001,0.214,2.021,0.214,3.059C54.374,36.991,52.729,41.605,49.957,45.331z"/>
</svg>
