<?xml version="1.0" encoding="utf-8"?>
<!-- Generator: Adobe Illustrator 16.0.0, SVG Export Plug-In . SVG Version: 6.00 Build 0)  -->
<!DOCTYPE svg PUBLIC "-//W3C//DTD SVG 1.1//EN" "http://www.w3.org/Graphics/SVG/1.1/DTD/svg11.dtd">
<svg version="1.1" id="Layer_1" xmlns="http://www.w3.org/2000/svg" xmlns:xlink="http://www.w3.org/1999/xlink" x="0px" y="0px"
	 width="64px" height="64px" viewBox="0 0 64 64" enable-background="new 0 0 64 64" xml:space="preserve">
<g>
	<circle cx="41.42" cy="31.883" r="2.28"/>
	<circle cx="41.371" cy="36.443" r="2.28"/>
	<circle cx="45.955" cy="27.422" r="2.28"/>
	<circle cx="36.859" cy="32.042" r="2.28"/>
	<circle cx="32.277" cy="27.374" r="2.28"/>
	<circle cx="41.396" cy="27.319" r="2.28"/>
	<circle cx="32.324" cy="41.057" r="2.28"/>
	<circle cx="36.813" cy="36.601" r="2.28"/>
	<circle cx="32.252" cy="36.498" r="2.28"/>
	<circle cx="23.133" cy="36.506" r="2.28"/>
	<circle cx="18.645" cy="41.224" r="2.28"/>
	<circle cx="23.205" cy="41.066" r="2.28"/>
	<circle cx="18.574" cy="36.665" r="2.28"/>
	<circle cx="27.717" cy="27.486" r="2.28"/>
	<circle cx="36.885" cy="18.358" r="2.28"/>
	<circle cx="36.884" cy="22.917" r="2.28"/>
	<circle cx="23.158" cy="27.382" r="2.28"/>
	<circle cx="18.598" cy="27.541" r="2.279"/>
	<circle cx="18.621" cy="32.105" r="2.28"/>
	<circle cx="32.275" cy="45.617" r="2.28"/>
	<circle cx="32.301" cy="31.938" r="2.28"/>
	<circle cx="27.717" cy="45.729" r="2.28"/>
	<circle cx="27.764" cy="41.169" r="2.28"/>
	<circle cx="14.087" cy="22.877" r="2.28"/>
	<circle cx="27.765" cy="22.926" r="2.28"/>
	<circle cx="50.516" cy="27.453" r="2.28"/>
	<circle cx="27.765" cy="18.367" r="2.28"/>
	<circle cx="27.74" cy="32.05" r="2.28"/>
	<circle cx="23.182" cy="31.947" r="2.28"/>
	<circle cx="27.693" cy="36.61" r="2.28"/>
	<circle cx="36.836" cy="27.477" r="2.28"/>
	<circle cx="41.444" cy="22.759" r="2.28"/>
	<circle cx="32.325" cy="22.813" r="2.28"/>
	<circle cx="32.324" cy="18.255" r="2.279"/>
	<circle cx="41.443" cy="18.2" r="2.279"/>
	<circle cx="27.813" cy="13.807" r="2.28"/>
	<circle cx="23.156" cy="45.625" r="2.28"/>
	<circle cx="18.598" cy="45.784" r="2.28"/>
	<circle cx="23.182" cy="50.19" r="2.28"/>
	<circle cx="27.74" cy="50.293" r="2.28"/>
	<circle cx="14.086" cy="41.121" r="2.28"/>
	<circle cx="14.063" cy="32.001" r="2.28"/>
	<circle cx="32.301" cy="50.181" r="2.28"/>
	<circle cx="14.014" cy="36.561" r="2.28"/>
	<circle cx="50.49" cy="36.577" r="2.28"/>
	<circle cx="36.859" cy="50.285" r="2.28"/>
	<circle cx="50.539" cy="32.017" r="2.28"/>
	<path d="M56.521,30.354c-0.022-0.331-0.047-0.66-0.082-0.987c-0.146-1.371-0.411-2.708-0.775-4.004
		c-0.014-0.049-0.027-0.099-0.042-0.148c-0.419-1.455-0.968-2.855-1.635-4.188c-0.191-0.381-0.393-0.757-0.603-1.126
		c-0.132-0.233-0.264-0.466-0.403-0.694c-0.069-0.113-0.144-0.223-0.214-0.334c-0.625-0.985-1.317-1.923-2.072-2.807
		c-0.006-0.007-0.012-0.014-0.018-0.021c-0.726-0.848-1.506-1.646-2.338-2.389c-0.008-0.007-0.016-0.014-0.023-0.021
		c-0.864-0.769-1.782-1.479-2.75-2.121c-0.103-0.068-0.207-0.133-0.312-0.199c-0.271-0.175-0.544-0.345-0.822-0.508
		c-0.335-0.197-0.675-0.387-1.02-0.568c-1.318-0.694-2.706-1.277-4.151-1.725c-0.074-0.023-0.15-0.042-0.225-0.064
		c-1.218-0.364-2.476-0.635-3.765-0.807c-0.44-0.06-0.885-0.105-1.332-0.141C33.299,7.452,32.653,7.419,32,7.419
		c-0.398,0-0.793,0.012-1.187,0.03c-0.502,0.023-0.998,0.064-1.491,0.118c-1.219,0.133-2.411,0.354-3.569,0.658
		c-0.135,0.035-0.267,0.076-0.4,0.114c-1.476,0.415-2.896,0.962-4.245,1.632c-0.11,0.056-0.22,0.113-0.329,0.169
		c-0.825,0.426-1.626,0.894-2.395,1.406c-0.039,0.026-0.079,0.05-0.118,0.076c-0.544,0.367-1.068,0.761-1.58,1.17
		c-0.128,0.103-0.257,0.202-0.383,0.308c-1.032,0.857-1.989,1.803-2.868,2.816c-0.092,0.105-0.186,0.21-0.275,0.317
		c-0.466,0.556-0.906,1.134-1.322,1.73c-0.02,0.028-0.04,0.056-0.06,0.083c-0.524,0.759-1.01,1.547-1.448,2.363
		c-0.252,0.096-0.35,0.2-0.137,0.267c-0.692,1.329-1.271,2.728-1.713,4.184c-0.06,0.196-0.114,0.395-0.169,0.592
		c-0.296,1.071-0.521,2.172-0.67,3.296c-0.099,0.739-0.166,1.488-0.196,2.246C7.431,31.329,7.419,31.663,7.419,32
		c0,0.315,0.012,0.628,0.023,0.94c0.028,0.752,0.093,1.494,0.188,2.228c0.146,1.131,0.368,2.237,0.663,3.315
		c0.055,0.2,0.11,0.399,0.17,0.598c0.439,1.456,1.012,2.854,1.7,4.184c0.046,0.088,0.089,0.177,0.135,0.264
		c0.434,0.813,0.912,1.6,1.432,2.355c0.017,0.024,0.034,0.048,0.051,0.072c0.438,0.633,0.905,1.245,1.399,1.834
		c0.078,0.093,0.159,0.184,0.239,0.275c0.866,1.001,1.81,1.934,2.826,2.784c0.068,0.058,0.136,0.115,0.205,0.172
		c0.701,0.574,1.437,1.106,2.198,1.602c0.007,0.004,0.014,0.009,0.021,0.013c0.596,0.387,1.208,0.749,1.838,1.084
		c0.16,0.085,0.323,0.168,0.486,0.25c1.348,0.677,2.765,1.233,4.238,1.656c0.117,0.033,0.233,0.068,0.352,0.1
		c1.213,0.329,2.462,0.568,3.741,0.707c0.514,0.057,1.032,0.097,1.556,0.12c0.371,0.017,0.744,0.028,1.12,0.028
		c0.557,0,1.107-0.025,1.655-0.063c0.495-0.032,0.986-0.081,1.474-0.144c1.311-0.167,2.589-0.437,3.827-0.803
		c0.095-0.028,0.19-0.052,0.284-0.081c1.463-0.451,2.866-1.04,4.199-1.744c0.25-0.132,0.496-0.27,0.74-0.409
		c0.432-0.247,0.856-0.507,1.271-0.779c0.046-0.03,0.094-0.059,0.14-0.089c0.928-0.618,1.809-1.299,2.642-2.034
		c0.013-0.011,0.024-0.021,0.036-0.031c0.848-0.749,1.641-1.557,2.378-2.414c0.01-0.012,0.019-0.022,0.028-0.033
		c0.747-0.873,1.433-1.798,2.053-2.77c0.42-0.657,0.809-1.335,1.165-2.032c0.676-1.32,1.236-2.708,1.667-4.152
		c0.012-0.039,0.022-0.079,0.033-0.119c0.381-1.3,0.656-2.644,0.816-4.022c0.037-0.318,0.066-0.64,0.092-0.962
		c0.048-0.627,0.08-1.26,0.08-1.899C56.581,31.446,56.557,30.898,56.521,30.354z M54.471,34.302
		c0.199,0.058,0.408,0.099,0.627,0.099c0.127,0,0.25-0.013,0.371-0.033c-0.004,0.024-0.006,0.05-0.008,0.074
		c-0.133-0.025-0.27-0.041-0.41-0.041c-0.211,0-0.412,0.038-0.605,0.091c-0.963,0.267-1.676,1.141-1.676,2.189
		c0,0.724,0.344,1.361,0.871,1.779c0.266,0.211,0.578,0.36,0.918,0.438c-0.016,0.051-0.029,0.103-0.045,0.154
		c-0.961,0.268-1.672,1.14-1.672,2.187c0,0.427,0.125,0.821,0.328,1.162c-0.299,0.606-0.619,1.2-0.969,1.776
		c-0.227-0.253-0.504-0.459-0.822-0.59c-0.268-0.109-0.559-0.172-0.865-0.172c-1.258,0-2.279,1.021-2.279,2.28
		c0,0.546,0.199,1.04,0.52,1.433c0.215,0.264,0.486,0.477,0.795,0.625c-0.479,0.532-0.98,1.042-1.506,1.528
		c-0.146-0.312-0.357-0.586-0.621-0.804c-0.395-0.325-0.893-0.528-1.443-0.528c-1.26,0-2.279,1.021-2.279,2.279
		c0,0.34,0.078,0.658,0.211,0.947c0.145,0.313,0.361,0.582,0.623,0.799c-0.555,0.35-1.127,0.676-1.713,0.979
		c-0.336-0.279-0.746-0.474-1.207-0.523c-0.08-0.009-0.158-0.024-0.242-0.024c-0.719,0-1.352,0.339-1.77,0.858
		c-0.275,0.343-0.451,0.765-0.492,1.227c-0.023,0.008-0.045,0.017-0.068,0.023c-0.051-0.344-0.152-0.67-0.34-0.945
		c-0.41-0.606-1.104-1.005-1.891-1.005c-1.117,0-2.043,0.806-2.238,1.868c-0.023,0.134-0.041,0.271-0.041,0.412
		c0,0.206,0.037,0.401,0.09,0.591c-0.074,0.008-0.148,0.02-0.223,0.027c0.078-0.229,0.133-0.467,0.133-0.722
		c0-0.103-0.018-0.2-0.029-0.299c-0.148-1.117-1.094-1.981-2.25-1.981c-1.172,0-2.127,0.889-2.254,2.028
		c-0.01,0.084-0.025,0.166-0.025,0.252c0,0.27,0.061,0.521,0.148,0.76c-0.084-0.006-0.166-0.011-0.248-0.019
		c0.059-0.201,0.1-0.409,0.1-0.629c0-0.126-0.018-0.248-0.037-0.369c-0.178-1.083-1.111-1.911-2.244-1.911
		c-0.832,0-1.555,0.451-1.951,1.119c-0.17,0.284-0.266,0.611-0.299,0.958c-0.016-0.005-0.031-0.009-0.047-0.013
		c-0.021-0.43-0.146-0.831-0.373-1.165c-0.41-0.605-1.104-1.003-1.889-1.003c-0.176,0-0.348,0.024-0.512,0.063
		c-0.418,0.096-0.781,0.314-1.074,0.605c-0.568-0.282-1.127-0.584-1.668-0.91c0.289-0.195,0.539-0.448,0.713-0.753
		c0.191-0.333,0.309-0.715,0.309-1.127c0-1.259-1.02-2.279-2.279-2.279c-0.664,0-1.258,0.289-1.674,0.743
		c-0.232,0.254-0.402,0.563-0.504,0.901c-0.076-0.068-0.156-0.134-0.232-0.202c-0.23-0.675-0.764-1.2-1.441-1.423
		c-0.064-0.068-0.131-0.134-0.193-0.202c0.352-0.089,0.672-0.253,0.938-0.481c0.488-0.418,0.803-1.031,0.803-1.724
		c0-1.26-1.02-2.28-2.279-2.28c-0.475,0-0.916,0.146-1.281,0.395c-0.289,0.198-0.529,0.464-0.703,0.772
		c-0.365-0.58-0.705-1.177-1.021-1.789c0.289-0.257,0.516-0.58,0.643-0.955c0.08-0.231,0.133-0.475,0.133-0.733
		c0-0.884-0.508-1.641-1.244-2.019c-0.313-0.161-0.66-0.261-1.037-0.261c-0.033,0-0.063,0.011-0.096,0.013
		c-0.002-0.006-0.004-0.012-0.006-0.018c0.012,0.001,0.02,0.005,0.031,0.005c0.342,0,0.662-0.081,0.953-0.215
		c0.781-0.362,1.326-1.147,1.326-2.064c0-1.231-0.979-2.228-2.197-2.272c-0.029,0-0.055-0.008-0.082-0.008
		c-0.324,0-0.627,0.079-0.904,0.203c-0.016-0.151-0.025-0.304-0.037-0.455c0.301,0.148,0.629,0.252,0.988,0.252
		c0.012,0,0.023-0.003,0.033-0.004c1.244-0.018,2.248-1.028,2.248-2.276c0-1.246-1.002-2.255-2.242-2.275
		c-0.014,0-0.025-0.004-0.039-0.004c-0.357,0-0.684,0.103-0.984,0.25c0.014-0.155,0.025-0.31,0.041-0.464
		c0.283,0.127,0.59,0.209,0.92,0.209c0.021,0,0.043-0.006,0.064-0.007c1.229-0.034,2.215-1.036,2.215-2.272
		c0-0.92-0.547-1.707-1.33-2.067c-0.289-0.134-0.609-0.213-0.949-0.213c-0.012,0-0.023,0.005-0.035,0.005
		c0.002-0.005,0.002-0.01,0.004-0.016c0.027,0.002,0.053,0.011,0.08,0.011c0.387,0,0.744-0.105,1.063-0.274
		c0.721-0.384,1.217-1.133,1.217-2.006c0-0.243-0.049-0.473-0.119-0.692c-0.121-0.381-0.346-0.71-0.633-0.974
		c0.316-0.611,0.658-1.207,1.025-1.786c0.17,0.312,0.408,0.581,0.695,0.784c0.371,0.262,0.822,0.419,1.311,0.419
		c1.26,0,2.279-1.021,2.279-2.279c0-0.704-0.326-1.326-0.826-1.745c-0.271-0.226-0.596-0.387-0.949-0.47
		c0.049-0.054,0.102-0.104,0.15-0.157c0.754-0.208,1.346-0.79,1.568-1.538c0.049-0.044,0.1-0.085,0.148-0.128
		c0.068,0.356,0.221,0.683,0.434,0.961c0.416,0.544,1.064,0.9,1.803,0.9c1.26,0,2.281-1.021,2.281-2.28
		c0-0.489-0.158-0.939-0.42-1.311c-0.207-0.293-0.479-0.535-0.797-0.704c0.625-0.38,1.27-0.73,1.93-1.053
		c0.313,0.292,0.699,0.505,1.139,0.584c0.131,0.023,0.266,0.041,0.404,0.041c0.732,0,1.377-0.352,1.793-0.889
		c0.262-0.336,0.428-0.744,0.469-1.191c0.01-0.002,0.02-0.005,0.029-0.008c0.014,0.35,0.105,0.678,0.26,0.969
		c0.381,0.724,1.133,1.223,2.008,1.223c1.166,0,2.117-0.88,2.252-2.011c0.012-0.089,0.027-0.177,0.027-0.269
		c0-0.257-0.055-0.497-0.133-0.727c0.078-0.007,0.156-0.012,0.234-0.018c-0.059,0.201-0.102,0.41-0.102,0.632
		c0,0.129,0.018,0.253,0.039,0.376c0.18,1.079,1.111,1.903,2.242,1.903c1.107,0,2.027-0.79,2.234-1.838
		c0.027-0.143,0.045-0.29,0.045-0.441c0-0.198-0.033-0.388-0.082-0.571c0.063,0.007,0.125,0.017,0.188,0.023
		c-0.063,0.208-0.105,0.424-0.105,0.651c0,0.119,0.018,0.233,0.035,0.349c0.168,1.092,1.104,1.931,2.244,1.931
		c0.801,0,1.502-0.415,1.91-1.04c0.18-0.278,0.281-0.605,0.326-0.949c0.035,0.011,0.07,0.023,0.104,0.035
		c0.127,0.579,0.465,1.079,0.939,1.402c0.252,0.171,0.541,0.291,0.85,0.35c0.141,0.027,0.283,0.044,0.432,0.044
		c0.453,0,0.867-0.143,1.221-0.373c0.637,0.325,1.258,0.677,1.861,1.056c-0.256,0.225-0.463,0.499-0.598,0.815
		c-0.117,0.273-0.182,0.574-0.182,0.89c0,1.26,1.021,2.28,2.279,2.28c0.525,0,1.004-0.185,1.389-0.482
		c0.27-0.208,0.492-0.474,0.646-0.778c0.52,0.484,1.02,0.991,1.492,1.521c-0.307,0.15-0.576,0.367-0.787,0.632
		c-0.313,0.391-0.508,0.879-0.508,1.418c0,1.259,1.021,2.279,2.279,2.279c-1.258,0-2.279,1.021-2.279,2.279
		c0,1.26,1.021,2.28,2.279,2.28c1.146,0,2.086-0.848,2.248-1.95c0.016-0.108,0.033-0.217,0.033-0.33
		c0-0.858-0.482-1.598-1.184-1.986c-0.086-0.152-0.172-0.306-0.262-0.456c0.32-0.127,0.602-0.328,0.83-0.577
		c0.365,0.605,0.703,1.228,1.014,1.867c-0.246,0.36-0.4,0.786-0.4,1.256c0,0.143,0.018,0.281,0.043,0.416
		c0.053,0.292,0.164,0.563,0.316,0.805c0.313,0.49,0.807,0.849,1.387,0.99c0.012,0.04,0.021,0.081,0.035,0.121
		c-0.342,0.071-0.656,0.216-0.924,0.421c-0.547,0.416-0.904,1.067-0.904,1.808c0,1.05,0.713,1.924,1.678,2.189
		c0.193,0.053,0.393,0.09,0.602,0.09c0.139,0,0.273-0.015,0.406-0.04c0.002,0.026,0.004,0.054,0.006,0.08
		c-0.125-0.022-0.256-0.035-0.389-0.035c-0.213,0-0.414,0.039-0.609,0.094c-0.961,0.268-1.67,1.14-1.67,2.186
		C52.818,33.16,53.518,34.027,54.471,34.302z"/>
	<circle cx="36.836" cy="45.72" r="2.28"/>
	<path d="M41.42,47.847c-1.26,0-2.279,1.021-2.279,2.279c0,1.26,1.02,2.28,2.279,2.28c0.109,0,0.215-0.018,0.32-0.032
		c0.461-0.222,0.912-0.463,1.357-0.715c0.369-0.405,0.602-0.94,0.602-1.533C43.699,48.867,42.678,47.847,41.42,47.847z"/>
	<path d="M50.563,38.856c-1.26,0-2.279,1.021-2.279,2.279c0,1.26,1.02,2.28,2.279,2.28c0.393,0,0.756-0.108,1.076-0.282
		c0.713-0.385,1.203-1.13,1.203-1.998c0-0.119-0.018-0.234-0.035-0.35C52.639,39.694,51.701,38.856,50.563,38.856z"/>
	<circle cx="45.955" cy="45.666" r="2.28"/>
	<circle cx="14.039" cy="27.437" r="2.28"/>
	<circle cx="18.646" cy="22.981" r="2.28"/>
	<circle cx="45.932" cy="36.546" r="2.28"/>
	<circle cx="46.003" cy="22.862" r="2.28"/>
	<circle cx="46.004" cy="18.303" r="2.28"/>
	<circle cx="46.002" cy="41.106" r="2.28"/>
	<circle cx="36.883" cy="41.161" r="2.28"/>
	<circle cx="41.443" cy="41.002" r="2.28"/>
	<circle cx="41.395" cy="45.562" r="2.28"/>
	<circle cx="45.979" cy="31.987" r="2.28"/>
	<circle cx="23.206" cy="22.822" r="2.28"/>
	<circle cx="23.205" cy="18.263" r="2.28"/>
	<circle cx="18.646" cy="18.422" r="2.28"/>
	<path d="M41.492,15.92c1.26,0,2.279-1.021,2.279-2.28c0-0.387-0.105-0.746-0.275-1.065c-0.383-0.719-1.133-1.214-2.004-1.214
		c-0.098,0-0.189,0.017-0.285,0.029c-1.123,0.141-1.994,1.089-1.994,2.25C39.213,14.899,40.232,15.92,41.492,15.92z"/>
	<circle cx="36.932" cy="13.798" r="2.28"/>
	<circle cx="32.373" cy="13.695" r="2.28"/>
	<circle cx="23.254" cy="13.704" r="2.28"/>
</g>
</svg>
