<?xml version="1.0" encoding="utf-8"?>
<!-- Generator: Adobe Illustrator 16.0.0, SVG Export Plug-In . SVG Version: 6.00 Build 0)  -->
<!DOCTYPE svg PUBLIC "-//W3C//DTD SVG 1.1//EN" "http://www.w3.org/Graphics/SVG/1.1/DTD/svg11.dtd">
<svg version="1.1" id="Layer_1" xmlns="http://www.w3.org/2000/svg" xmlns:xlink="http://www.w3.org/1999/xlink" x="0px" y="0px"
	 width="64px" height="64px" viewBox="0 0 64 64" enable-background="new 0 0 64 64" xml:space="preserve">
<g>
	<path d="M52.59,31.529l-4.287-0.635c-0.193-3.89-1.81-7.405-4.356-10.029l4.039-4.038l-0.28-0.28l-4.037,4.036
		c-2.712-2.656-6.391-4.318-10.453-4.422l-0.568-3.837l0,3.825h0v-3.825l-0.571,3.854c-3.899,0.186-7.424,1.804-10.054,4.355
		l-4.03-3.986l-0.301,0.301l4.028,3.985c-2.621,2.685-4.267,6.312-4.399,10.319L13.618,31.7l3.705,0.549
		c0.147,3.952,1.769,7.529,4.342,10.192l-3.975,3.953l0.301,0.301l3.972-3.949c2.674,2.621,6.29,4.271,10.286,4.418l0.568,3.84
		l0-3.812h0v3.812l0.568-3.841c3.976-0.145,7.574-1.78,10.244-4.379l4.054,4.054l0.301-0.302l-4.053-4.053
		c2.615-2.688,4.257-6.314,4.385-10.321L52.59,31.529z M28.94,29.431l-4.201,0.622c0.285-1.426,0.94-2.709,1.856-3.768L28.94,29.431
		z M27.501,25.388c0.987-0.837,2.166-1.439,3.469-1.74l-0.565,3.815L27.501,25.388z M31.106,22.729
		c-0.213,0.04-0.425,0.086-0.632,0.142l-0.298-1.691c0.388-0.098,0.788-0.16,1.191-0.212L31.106,22.729z M30.267,22.923
		c-0.647,0.188-1.265,0.444-1.845,0.765L27.6,22.186c0.74-0.409,1.537-0.726,2.37-0.953L30.267,22.923z M28.24,23.797
		c-0.525,0.307-1.003,0.679-1.455,1.079l-1.43-1.021c0.623-0.596,1.312-1.123,2.063-1.558L28.24,23.797z M26.072,25.584
		c-0.427,0.473-0.819,0.979-1.142,1.534l-1.368-1.04c0.417-0.688,0.917-1.313,1.47-1.89L26.072,25.584z M24.82,27.302
		c-0.324,0.592-0.578,1.228-0.766,1.89l-1.657-0.421c0.246-0.889,0.602-1.729,1.055-2.509L24.82,27.302z M24.002,29.399
		c-0.067,0.258-0.111,0.521-0.155,0.786l-1.77,0.262c0.059-0.5,0.144-0.991,0.266-1.469L24.002,29.399z M29.869,29.725l1.117,0.776
		l0.001,0.024c-0.126,0.229-0.215,0.479-0.257,0.746H19.425L29.869,29.725z M26.438,36.858c-0.819-1.003-1.4-2.194-1.675-3.508
		l3.782,0.561L26.438,36.858z M30.515,35.445l0.634,4.282c-1.46-0.304-2.771-0.99-3.838-1.952L30.515,35.445z M23.858,33.216
		c0.048,0.297,0.105,0.591,0.185,0.877l-1.692,0.288c-0.12-0.464-0.202-0.942-0.264-1.427L23.858,33.216z M24.096,34.3
		c0.213,0.703,0.514,1.365,0.881,1.986l-1.553,0.738c-0.436-0.76-0.778-1.576-1.021-2.437L24.096,34.3z M25.087,36.47
		c0.247,0.395,0.532,0.761,0.833,1.111l-1.017,1.422c-0.512-0.552-0.979-1.146-1.369-1.795L25.087,36.47z M26.596,38.293
		c0.482,0.453,1.008,0.861,1.581,1.202l-0.948,1.424c-0.744-0.451-1.428-0.991-2.041-1.602L26.596,38.293z M28.359,39.607
		c0.611,0.345,1.267,0.618,1.955,0.815l-0.44,1.651c-0.871-0.245-1.695-0.598-2.462-1.043L28.359,39.607z M30.521,40.476
		c0.249,0.064,0.505,0.106,0.761,0.151l0.262,1.771c-0.498-0.062-0.988-0.147-1.463-0.271L30.521,40.476z M30.849,34.788
		l0.082-0.161l0.688-0.99l0.308-0.018c0.146,0.076,0.303,0.135,0.465,0.18l-0.001,11.399L30.849,34.788z M31.548,31.613
		c0-0.781,0.637-1.417,1.42-1.417c0.781,0,1.417,0.636,1.417,1.417c0,0.783-0.636,1.419-1.417,1.419
		C32.185,33.032,31.548,32.396,31.548,31.613z M36.882,33.855l4.022-0.596c-0.272,1.379-0.884,2.632-1.751,3.672L36.882,33.855z
		 M38.229,37.887c-0.901,0.784-1.968,1.381-3.148,1.718l-0.033,0.007l0.001,0.002c-0.182,0.051-0.375,0.076-0.562,0.114l0.613-4.142
		l0.05,0.1L38.229,37.887z M34.981,28.099l-0.671-4.536c1.523,0.281,2.889,0.985,3.996,1.979L34.981,28.099z M39.068,26.323
		c0.842,0.983,1.45,2.161,1.756,3.463l-3.827-0.566L39.068,26.323z M41.738,29.921c-0.027-0.136-0.043-0.275-0.076-0.41l1.683-0.324
		c0.077,0.326,0.129,0.661,0.173,0.998L41.738,29.921z M41.609,29.304c-0.205-0.756-0.497-1.473-0.878-2.137l1.525-0.783
		c0.453,0.807,0.8,1.678,1.034,2.596L41.609,29.304z M40.622,26.985c-0.299-0.496-0.657-0.95-1.041-1.379l1.02-1.427
		c0.589,0.611,1.112,1.286,1.545,2.023L40.622,26.985z M39,25.008c-0.484-0.451-1.009-0.858-1.583-1.196l0.976-1.408
		c0.722,0.437,1.382,0.961,1.981,1.548L39,25.008z M37.234,23.701c-0.578-0.321-1.195-0.581-1.843-0.771l0.569-1.619
		c0.793,0.241,1.545,0.576,2.249,0.982L37.234,23.701z M35.185,22.875c-0.327-0.088-0.665-0.146-1.005-0.199l-0.261-1.765
		c0.627,0.066,1.243,0.177,1.835,0.344L35.185,22.875z M34.62,28.575l-0.687,0.987c-0.264-0.124-0.555-0.195-0.86-0.208
		l0.001-11.224L34.62,28.575z M34.354,40.629c0.287-0.047,0.571-0.102,0.849-0.178l0.313,1.686c-0.462,0.119-0.94,0.201-1.423,0.261
		L34.354,40.629z M35.41,40.4c0.696-0.208,1.354-0.5,1.97-0.857l0.759,1.541c-0.756,0.428-1.563,0.763-2.416,1.001L35.41,40.4z
		 M37.563,39.432c0.491-0.302,0.94-0.66,1.364-1.046l1.43,1.022c-0.613,0.598-1.296,1.124-2.038,1.564L37.563,39.432z
		 M39.668,37.628c0.343-0.395,0.666-0.808,0.938-1.258l1.39,1.007c-0.373,0.597-0.814,1.143-1.292,1.654L39.668,37.628z
		 M40.719,36.188c0.388-0.676,0.689-1.407,0.895-2.177l1.632,0.522c-0.261,0.946-0.646,1.837-1.138,2.661L40.719,36.188z
		 M41.667,33.804c0.053-0.221,0.087-0.449,0.125-0.677l1.751-0.259c-0.054,0.495-0.126,0.985-0.246,1.458L41.667,33.804z
		 M36.34,33.502l-1.116-0.775l-0.039-0.657c0.008-0.038,0.021-0.075,0.026-0.113h11.413c0,0.008-0.001,0.016-0.001,0.024
		L36.34,33.502z M46.587,30.639l-2.63-0.39c-0.315-2.485-1.436-4.719-3.102-6.426l0.386-0.539l-0.518,0.398
		c-1.8-1.781-4.201-2.952-6.867-3.199l-0.386-2.607C40.445,18.204,46.074,23.713,46.587,30.639z M32.647,17.852l0,3.405
		L32.647,17.852L32.647,17.852z M31.822,17.894l-0.391,2.638c-0.45,0.053-0.896,0.12-1.33,0.228l-0.001-0.008l-0.21,0.037
		l0.005,0.024c-1.869,0.504-3.542,1.482-4.894,2.789l-0.872-0.623l0.634,0.851c-1.723,1.766-2.864,4.096-3.13,6.684l-2.599,0.385
		C19.418,23.966,24.92,18.389,31.822,17.894z M19.039,32.502l2.619,0.388c0.175,1.588,0.664,3.082,1.43,4.402l0.051,0.104
		l0.012-0.005c0.424,0.714,0.931,1.37,1.496,1.972l-0.517,0.723l0.711-0.517c1.77,1.789,4.133,2.979,6.768,3.265l0.386,2.611
		C25.036,45.034,19.458,39.461,19.039,32.502z M32.818,45.488l0-3.418L32.818,45.488L32.818,45.488z M33.641,45.446l0.388-2.618
		c2.591-0.28,4.921-1.432,6.68-3.168l0.972,0.694l-0.714-0.968c1.664-1.756,2.764-4.043,3.021-6.584l2.613-0.387
		C46.222,39.415,40.629,45.031,33.641,45.446z"/>
	<polygon points="32.004,9.111 32.015,9.111 33.444,11.019 34.919,11.019 34.919,7.613 33.631,7.613 33.631,9.501 33.617,9.501 
		32.252,7.613 30.717,7.613 30.717,11.019 32.004,11.019 	"/>
	<path d="M33.668,54.173l-1.607-0.238c-0.066-0.009-0.113-0.028-0.138-0.06c-0.025-0.03-0.039-0.069-0.039-0.116
		c0-0.073,0.04-0.132,0.119-0.178c0.079-0.044,0.22-0.066,0.42-0.066c0.073,0,0.147,0.006,0.22,0.018
		c0.073,0.011,0.141,0.029,0.199,0.055c0.065,0.025,0.115,0.06,0.152,0.103c0.035,0.042,0.055,0.099,0.055,0.169h1.563
		c-0.012-0.182-0.062-0.342-0.149-0.479c-0.088-0.139-0.22-0.255-0.396-0.348c-0.177-0.094-0.399-0.167-0.67-0.215
		c-0.271-0.05-0.595-0.074-0.974-0.074c-0.277,0-0.535,0.017-0.775,0.05s-0.448,0.093-0.625,0.18
		c-0.176,0.086-0.314,0.2-0.417,0.345c-0.102,0.146-0.152,0.327-0.152,0.547c0,0.121,0.018,0.234,0.053,0.339
		c0.034,0.105,0.089,0.198,0.164,0.281c0.075,0.082,0.172,0.153,0.288,0.213c0.117,0.059,0.259,0.101,0.426,0.126l1.535,0.229
		c0.093,0.017,0.156,0.046,0.191,0.088c0.035,0.043,0.053,0.092,0.053,0.142c0,0.082-0.037,0.149-0.11,0.2s-0.215,0.076-0.425,0.076
		c-0.207,0-0.358-0.023-0.457-0.071c-0.093-0.051-0.14-0.132-0.144-0.243h-1.621c0,0.251,0.063,0.451,0.192,0.602
		c0.129,0.148,0.297,0.265,0.506,0.345c0.207,0.082,0.44,0.136,0.698,0.16c0.258,0.025,0.516,0.038,0.773,0.038
		c0.757,0,1.311-0.099,1.662-0.298c0.352-0.198,0.526-0.506,0.526-0.924c0-0.289-0.096-0.514-0.29-0.675
		S34.012,54.225,33.668,54.173z"/>
	<polygon points="10.841,32.042 10.831,32.042 10.334,29.962 9.261,29.962 8.76,32.042 8.751,32.042 8.312,29.962 7.011,29.962 
		8.002,33.369 9.323,33.369 9.791,31.48 9.8,31.48 10.264,33.369 11.584,33.369 12.581,29.962 11.279,29.962 	"/>
	<polygon points="56.989,30.578 56.989,29.748 53.369,29.748 53.369,33.154 56.989,33.154 56.989,32.324 54.715,32.324 
		54.715,31.866 56.827,31.866 56.827,31.036 54.715,31.036 54.715,30.578 	"/>
</g>
</svg>
