<?xml version="1.0" encoding="utf-8"?>
<!-- Generator: Adobe Illustrator 16.0.0, SVG Export Plug-In . SVG Version: 6.00 Build 0)  -->
<!DOCTYPE svg PUBLIC "-//W3C//DTD SVG 1.1//EN" "http://www.w3.org/Graphics/SVG/1.1/DTD/svg11.dtd">
<svg version="1.1" id="Layer_1" xmlns="http://www.w3.org/2000/svg" xmlns:xlink="http://www.w3.org/1999/xlink" x="0px" y="0px"
	 width="64px" height="64px" viewBox="0 0 64 64" enable-background="new 0 0 64 64" xml:space="preserve">
<g>
	<path d="M53.95,30.642c-0.675-11.019-9.575-19.852-20.625-20.409V7.689h-2.688v2.578c-10.832,0.779-19.494,9.511-20.159,20.374
		H7.889v2.688h2.589c0.67,10.941,9.451,19.722,20.393,20.392v2.59h2.688v-2.59c10.941-0.67,19.723-9.451,20.393-20.392h2.161v-2.688
		H53.95z M32.214,51.767c-10.907,0-19.781-8.874-19.781-19.781s8.874-19.781,19.781-19.781s19.781,8.874,19.781,19.781
		S43.121,51.767,32.214,51.767z"/>
	<polygon points="30.401,16.52 30.413,16.52 32.093,18.76 33.824,18.76 33.824,14.761 32.312,14.761 32.312,16.979 32.295,16.979 
		30.692,14.761 28.89,14.761 28.89,18.76 30.401,18.76 	"/>
	<path d="M33.803,46.041l-1.888-0.28c-0.079-0.011-0.133-0.034-0.163-0.069c-0.029-0.036-0.044-0.082-0.044-0.138
		c0-0.086,0.046-0.155,0.14-0.207c0.093-0.053,0.258-0.079,0.493-0.079c0.086,0,0.171,0.007,0.257,0.021
		c0.086,0.013,0.165,0.034,0.235,0.063c0.075,0.03,0.134,0.07,0.177,0.121c0.043,0.05,0.064,0.116,0.064,0.198h1.837
		c-0.015-0.213-0.073-0.4-0.176-0.563c-0.104-0.162-0.258-0.299-0.465-0.409c-0.208-0.109-0.47-0.194-0.787-0.252
		s-0.698-0.087-1.143-0.087c-0.325,0-0.629,0.02-0.91,0.059c-0.282,0.04-0.527,0.109-0.734,0.211
		c-0.207,0.101-0.37,0.235-0.49,0.405c-0.119,0.17-0.179,0.384-0.179,0.642c0,0.143,0.021,0.274,0.062,0.397
		c0.041,0.124,0.105,0.233,0.193,0.331c0.088,0.097,0.2,0.18,0.339,0.249c0.138,0.069,0.304,0.118,0.498,0.148l1.804,0.269
		c0.108,0.02,0.183,0.054,0.225,0.104c0.041,0.051,0.062,0.106,0.062,0.166c0,0.097-0.043,0.175-0.129,0.235
		c-0.086,0.06-0.252,0.089-0.499,0.089c-0.242,0-0.422-0.027-0.537-0.084c-0.108-0.06-0.165-0.154-0.168-0.285h-1.905
		c0,0.295,0.076,0.53,0.228,0.706c0.151,0.175,0.349,0.311,0.594,0.405c0.244,0.096,0.518,0.158,0.82,0.188
		c0.303,0.029,0.604,0.044,0.907,0.044c0.889,0,1.54-0.116,1.952-0.35c0.413-0.233,0.619-0.595,0.619-1.084
		c0-0.34-0.114-0.604-0.342-0.793C34.521,46.225,34.206,46.101,33.803,46.041z"/>
	<polygon points="18.059,32.672 18.047,32.672 17.465,30.23 16.204,30.23 15.616,32.672 15.605,32.672 15.09,30.23 13.561,30.23 
		14.726,34.229 16.277,34.229 16.826,32.012 16.837,32.012 17.381,34.229 18.933,34.229 20.103,30.23 18.574,30.23 	"/>
	<polygon points="45.827,33.329 50.078,33.329 50.078,32.354 47.406,32.354 47.406,31.816 49.888,31.816 49.888,30.842 
		47.406,30.842 47.406,30.305 50.078,30.305 50.078,29.33 45.827,29.33 	"/>
	<path d="M22.348,43.016l13.664-7.01l5.603-13.998L27.95,29.019L22.348,43.016z M32.247,30.379c1.179,0,2.134,0.955,2.134,2.133
		c0,1.179-0.955,2.134-2.134,2.134c-1.178,0-2.133-0.955-2.133-2.134C30.114,31.334,31.069,30.379,32.247,30.379z"/>
</g>
</svg>
