<?xml version="1.0" encoding="utf-8"?>
<!-- Generator: Adobe Illustrator 16.0.0, SVG Export Plug-In . SVG Version: 6.00 Build 0)  -->
<!DOCTYPE svg PUBLIC "-//W3C//DTD SVG 1.1//EN" "http://www.w3.org/Graphics/SVG/1.1/DTD/svg11.dtd">
<svg version="1.1" id="Layer_1" xmlns="http://www.w3.org/2000/svg" xmlns:xlink="http://www.w3.org/1999/xlink" x="0px" y="0px"
	 width="64px" height="64px" viewBox="0 0 64 64" enable-background="new 0 0 64 64" xml:space="preserve">
<g>
	<path d="M32,7.741C18.624,7.741,7.741,18.624,7.741,32c0,13.376,10.883,24.259,24.259,24.259c13.377,0,24.259-10.883,24.259-24.259
		C56.259,18.624,45.377,7.741,32,7.741z M32,54.481C19.604,54.481,9.519,44.396,9.519,32C9.519,19.604,19.604,9.519,32,9.519
		S54.481,19.604,54.481,32C54.481,44.396,44.396,54.481,32,54.481z"/>
	<path d="M28.575,29.301l0.126-0.116l4.655-3.143c-0.435-0.104-0.888-0.164-1.356-0.164c-3.252,0-5.888,2.635-5.888,5.889
		c0,0.535,0.078,1.051,0.213,1.543L28.575,29.301z"/>
	<path d="M34.541,34.653l-0.129,0.116l-3.955,2.671c0.492,0.134,1.007,0.214,1.543,0.214c3.252,0,5.888-2.635,5.888-5.887
		c0-0.801-0.173-1.559-0.462-2.255L34.541,34.653z"/>
	<path d="M32,11.321c-11.402,0-20.68,9.277-20.68,20.68S20.598,52.68,32,52.68c11.403,0,20.68-9.277,20.68-20.68
		S43.403,11.321,32,11.321z M29.782,12.856h1.603l1.425,1.971h0.015v-1.971h1.345v3.555H32.63l-1.494-1.991h-0.009v1.991h-1.345
		V12.856z M17.17,34.769h-1.379l-0.483-1.972h-0.01l-0.488,1.972h-1.379l-1.036-3.555h1.359l0.459,2.17h0.01l0.522-2.17h1.12
		l0.518,2.17h0.011l0.458-2.17h1.359L17.17,34.769z M33.559,50.829c-0.366,0.208-0.945,0.312-1.735,0.312
		c-0.269,0-0.537-0.013-0.807-0.039c-0.269-0.027-0.512-0.083-0.729-0.167c-0.217-0.085-0.393-0.205-0.527-0.361
		c-0.135-0.155-0.202-0.365-0.202-0.627h1.693c0.003,0.116,0.053,0.2,0.149,0.253c0.103,0.051,0.262,0.075,0.478,0.075
		c0.22,0,0.367-0.026,0.443-0.079c0.076-0.054,0.115-0.123,0.115-0.21c0-0.053-0.019-0.102-0.056-0.147
		c-0.037-0.044-0.103-0.074-0.199-0.092l-1.603-0.238c-0.173-0.027-0.321-0.07-0.443-0.132c-0.123-0.062-0.224-0.136-0.302-0.222
		c-0.078-0.087-0.135-0.184-0.172-0.295c-0.036-0.109-0.055-0.226-0.055-0.353c0-0.229,0.054-0.42,0.159-0.57
		c0.106-0.151,0.252-0.271,0.437-0.36c0.184-0.09,0.401-0.152,0.652-0.188c0.25-0.034,0.52-0.052,0.809-0.052
		c0.396,0,0.733,0.025,1.016,0.077c0.282,0.051,0.516,0.127,0.7,0.224c0.184,0.099,0.321,0.22,0.413,0.364
		c0.091,0.143,0.144,0.311,0.156,0.499h-1.633c0-0.072-0.02-0.132-0.057-0.176c-0.039-0.046-0.091-0.081-0.157-0.108
		c-0.063-0.025-0.133-0.045-0.21-0.056c-0.076-0.013-0.152-0.019-0.229-0.019c-0.209,0-0.355,0.023-0.438,0.07
		s-0.124,0.108-0.124,0.185c0,0.05,0.013,0.09,0.039,0.122c0.027,0.031,0.075,0.053,0.146,0.062l1.678,0.249
		c0.358,0.053,0.639,0.163,0.842,0.331c0.202,0.168,0.303,0.403,0.303,0.705C34.108,50.3,33.926,50.622,33.559,50.829z
		 M39.461,32.683c-0.442,3.424-3.19,6.134-6.635,6.508l-0.816,4.986l-0.817-4.986c-0.831-0.091-1.615-0.327-2.342-0.667l-8.772,5.92
		l5.242-9.342c-0.339-0.662-0.592-1.376-0.719-2.136l-5.13-0.84l5.038-0.825c0.199-3.636,2.985-6.587,6.55-7.038l0.831-5.078
		l0.826,5.047c0.841,0.078,1.635,0.307,2.372,0.642l7.951-5.366l-4.638,8.266c0.596,0.963,0.984,2.068,1.093,3.255l5.032,0.824
		L39.461,32.683z M50.948,31.199v0.867h-2.206v0.479h2.375v0.865h-3.778v-3.555h3.778v0.867h-2.375v0.477H50.948z"/>
	<path d="M36.899,28.501c-0.003-0.004-0.004-0.007-0.007-0.011l0.889-1.584c0.003,0.003,0.004,0.007,0.007,0.01l2.449-4.366
		l-4.195,2.832c0.003,0.002,0.007,0.004,0.01,0.005l-1.558,1.052c-0.003-0.002-0.007-0.003-0.011-0.005l-5.161,3.484l-2.552,4.547
		c0.003,0.004,0.004,0.009,0.006,0.013l-0.888,1.583c-0.002-0.004-0.004-0.007-0.007-0.011l-3.001,5.351l5.026-3.394
		c-0.003-0.002-0.006-0.004-0.009-0.006l1.453-0.981c0.004,0.002,0.008,0.003,0.012,0.004l4.434-2.993L36.899,28.501z M31.7,33.231
		c-0.809,0-1.464-0.656-1.464-1.464c0-0.809,0.655-1.465,1.464-1.465c0.81,0,1.465,0.656,1.465,1.465
		C33.165,32.575,32.51,33.231,31.7,33.231z"/>
</g>
</svg>
