<?xml version="1.0" encoding="utf-8"?>
<!-- Generator: Adobe Illustrator 16.0.0, SVG Export Plug-In . SVG Version: 6.00 Build 0)  -->
<!DOCTYPE svg PUBLIC "-//W3C//DTD SVG 1.1//EN" "http://www.w3.org/Graphics/SVG/1.1/DTD/svg11.dtd">
<svg version="1.1" id="Layer_1" xmlns="http://www.w3.org/2000/svg" xmlns:xlink="http://www.w3.org/1999/xlink" x="0px" y="0px"
	 width="64px" height="64px" viewBox="0 0 64 64" enable-background="new 0 0 64 64" xml:space="preserve">
<g>
	<path d="M36.772,12.151V7.462h-9.765v4.738C17.024,14.478,9.549,23.422,9.549,34.086c0,12.38,10.072,22.451,22.451,22.451
		c12.38,0,22.451-10.071,22.451-22.451C54.451,23.344,46.866,14.345,36.772,12.151z M32,52.785
		c-10.311,0-18.697-8.389-18.697-18.698S21.689,15.388,32,15.388s18.697,8.389,18.697,18.698S42.311,52.785,32,52.785z"/>
	<path d="M40.829,32.969c-0.15-1.65-0.774-3.156-1.709-4.421l3.965-7.065l-6.783,4.579c-1.044-0.585-2.207-0.981-3.457-1.099
		l-0.974-5.945L30.892,25c-4.197,0.532-7.479,4.01-7.715,8.291l-5.935,0.973l6.042,0.989c0.194,1.155,0.628,2.224,1.224,3.181
		l-4.632,8.256l7.756-5.235c1.03,0.591,2.181,0.996,3.417,1.132l0.963,5.873l0.961-5.873c4.058-0.44,7.295-3.633,7.816-7.666
		l5.969-0.979L40.829,32.969z M32,26.905c0.846,0,1.651,0.162,2.399,0.44l-5.808,3.919l-0.127,0.118l-2.863,5.104
		c-0.34-0.816-0.538-1.707-0.538-2.646C25.063,30.01,28.17,26.905,32,26.905z M22.709,43.613l6.511-11.606l11.032-7.447
		l-6.51,11.606L22.709,43.613z M32,40.776c-0.92,0-1.792-0.191-2.596-0.518l4.96-3.348l0.13-0.118l3.549-6.323
		c0.56,1.001,0.894,2.145,0.894,3.371C38.937,37.671,35.83,40.776,32,40.776z"/>
	<circle cx="31.647" cy="33.84" r="1.528"/>
</g>
</svg>
