<?xml version="1.0" encoding="utf-8"?>
<!-- Generator: Adobe Illustrator 16.0.0, SVG Export Plug-In . SVG Version: 6.00 Build 0)  -->
<!DOCTYPE svg PUBLIC "-//W3C//DTD SVG 1.1//EN" "http://www.w3.org/Graphics/SVG/1.1/DTD/svg11.dtd">
<svg version="1.1" id="Layer_1" xmlns="http://www.w3.org/2000/svg" xmlns:xlink="http://www.w3.org/1999/xlink" x="0px" y="0px"
	 width="64px" height="64px" viewBox="0 0 64 64" enable-background="new 0 0 64 64" xml:space="preserve">
<g>
	<path d="M21.514,16.91c2.008,0,3.635-1.627,3.635-3.633c0-0.998-0.411-1.889-1.064-2.543c-2.207,0.83-4.25,1.996-6.068,3.436
		C18.413,15.742,19.817,16.91,21.514,16.91z"/>
	<path d="M13.162,19.449c-1.318,1.99-2.328,4.199-2.965,6.561c0.366,0.129,0.755,0.207,1.165,0.207c2.007,0,3.634-1.625,3.634-3.633
		C14.996,21.236,14.254,20.074,13.162,19.449z"/>
	<circle cx="21.514" cy="22.583" r="3.634"/>
	<circle cx="31.589" cy="13.276" r="3.634"/>
	<path d="M41.741,16.91c1.871,0,3.395-1.42,3.594-3.238c-1.801-1.322-3.806-2.383-5.956-3.129c-0.774,0.664-1.271,1.635-1.271,2.734
		C38.107,15.283,39.734,16.91,41.741,16.91z"/>
	<circle cx="31.589" cy="22.583" r="3.634"/>
	<circle cx="41.741" cy="22.583" r="3.634"/>
	<path d="M11.362,28.246c-0.624,0-1.202,0.172-1.715,0.447c-0.147,1.043-0.229,2.105-0.229,3.188s0.081,2.145,0.229,3.186
		c0.513,0.275,1.091,0.447,1.715,0.447c2.007,0,3.634-1.627,3.634-3.635C14.996,29.873,13.369,28.246,11.362,28.246z"/>
	<circle cx="21.514" cy="31.88" r="3.634"/>
	<path d="M11.362,37.553c-0.41,0-0.798,0.078-1.163,0.205c0.639,2.365,1.651,4.578,2.974,6.57c1.089-0.625,1.823-1.795,1.823-3.143
		C14.996,39.18,13.369,37.553,11.362,37.553z"/>
	<circle cx="21.514" cy="41.187" r="3.634"/>
	<circle cx="31.589" cy="31.88" r="3.634"/>
	<circle cx="41.741" cy="31.88" r="3.634"/>
	<circle cx="31.589" cy="41.187" r="3.634"/>
	<circle cx="41.741" cy="41.187" r="3.634"/>
	<path d="M51.49,26.217c0.816,0,1.558-0.281,2.161-0.738c-0.684-2.309-1.726-4.463-3.064-6.4c-1.567,0.402-2.73,1.813-2.73,3.506
		C47.856,24.592,49.482,26.217,51.49,26.217z"/>
	<path d="M54.483,29.824c-0.655-0.953-1.75-1.578-2.993-1.578c-2.008,0-3.634,1.627-3.634,3.633c0,2.008,1.626,3.635,3.634,3.635
		c1.243,0,2.338-0.625,2.993-1.578c0.062-0.678,0.098-1.361,0.098-2.055S54.545,30.502,54.483,29.824z"/>
	<path d="M47.856,41.186c0,1.691,1.16,3.102,2.725,3.506c1.341-1.938,2.385-4.096,3.07-6.408c-0.604-0.453-1.347-0.73-2.161-0.73
		C49.482,37.553,47.856,39.18,47.856,41.186z"/>
	<path d="M21.677,47.088c-1.662,0-3.047,1.123-3.476,2.648c1.852,1.434,3.928,2.588,6.171,3.396c0.578-0.641,0.939-1.479,0.939-2.41
		C25.312,48.715,23.685,47.088,21.677,47.088z"/>
	<circle cx="31.752" cy="50.723" r="3.635"/>
	<path d="M41.904,47.088c-2.007,0-3.634,1.627-3.634,3.635c0,0.982,0.394,1.869,1.026,2.521c2.226-0.762,4.297-1.857,6.149-3.234
		C45.114,48.346,43.665,47.088,41.904,47.088z"/>
</g>
</svg>
