<?xml version="1.0" encoding="utf-8"?>
<!-- Generator: Adobe Illustrator 16.0.0, SVG Export Plug-In . SVG Version: 6.00 Build 0)  -->
<!DOCTYPE svg PUBLIC "-//W3C//DTD SVG 1.1//EN" "http://www.w3.org/Graphics/SVG/1.1/DTD/svg11.dtd">
<svg version="1.1" id="Layer_1" xmlns="http://www.w3.org/2000/svg" xmlns:xlink="http://www.w3.org/1999/xlink" x="0px" y="0px"
	 width="64px" height="64px" viewBox="0 0 64 64" enable-background="new 0 0 64 64" xml:space="preserve">
<g>
	<path d="M54.277,32.355c-0.039-0.123-0.088-0.225-0.146-0.305s-0.121-0.143-0.19-0.188c-0.069-0.043-0.133-0.078-0.191-0.104
		c-0.058-0.025-0.106-0.043-0.146-0.053c-0.039-0.008-0.059-0.018-0.059-0.027v-0.014c0-0.004,0.033-0.014,0.101-0.027
		c0.067-0.014,0.14-0.053,0.218-0.117c0.078-0.066,0.151-0.166,0.218-0.303c0.067-0.137,0.101-0.332,0.101-0.586
		c0-0.102-0.031-0.223-0.094-0.367c-0.063-0.143-0.167-0.279-0.312-0.408s-0.337-0.238-0.575-0.33
		c-0.238-0.09-0.532-0.135-0.883-0.135c-0.273,0-0.529,0.033-0.77,0.102c-0.24,0.066-0.453,0.166-0.638,0.301
		c-0.185,0.139-0.33,0.313-0.437,0.52c-0.106,0.209-0.162,0.455-0.167,0.742h1.303c-0.005-0.102,0.01-0.189,0.045-0.264
		s0.082-0.137,0.142-0.188s0.132-0.088,0.215-0.113s0.171-0.039,0.263-0.039c0.069,0,0.142,0.008,0.218,0.025
		c0.077,0.016,0.145,0.039,0.205,0.072c0.06,0.031,0.11,0.076,0.149,0.131c0.04,0.057,0.059,0.121,0.059,0.195
		c0,0.092-0.021,0.166-0.063,0.225c-0.042,0.057-0.095,0.104-0.159,0.135c-0.065,0.033-0.135,0.053-0.211,0.063
		s-0.151,0.014-0.225,0.014c-0.093,0-0.17-0.004-0.232-0.01c-0.063-0.008-0.119-0.014-0.17-0.018v0.941
		c0.051-0.008,0.105-0.016,0.163-0.023c0.058-0.006,0.137-0.01,0.239-0.01c0.078,0,0.157,0.006,0.235,0.018s0.148,0.035,0.208,0.072
		s0.108,0.088,0.146,0.152s0.056,0.15,0.056,0.256c0,0.199-0.058,0.34-0.173,0.42c-0.116,0.08-0.273,0.121-0.471,0.121
		c-0.121,0-0.23-0.016-0.33-0.049c-0.099-0.031-0.181-0.088-0.246-0.166c-0.134-0.125-0.197-0.316-0.188-0.576h-1.316
		c-0.005,0.061-0.006,0.148-0.004,0.264c0.002,0.115,0.023,0.244,0.063,0.385c0.04,0.141,0.102,0.285,0.187,0.43
		c0.085,0.146,0.208,0.279,0.368,0.398c0.159,0.121,0.364,0.219,0.613,0.295s0.554,0.115,0.915,0.115
		c0.393,0,0.72-0.053,0.981-0.156c0.261-0.104,0.469-0.232,0.624-0.385s0.263-0.316,0.326-0.492s0.094-0.338,0.094-0.484
		C54.336,32.629,54.316,32.479,54.277,32.355z"/>
	<path d="M38.521,10.818h-2.183v-0.008c0.226-0.139,0.464-0.271,0.713-0.4c0.25-0.131,0.479-0.275,0.686-0.434
		c0.208-0.16,0.379-0.346,0.513-0.559s0.201-0.473,0.201-0.783c0-0.254-0.047-0.477-0.142-0.668s-0.229-0.35-0.402-0.475
		c-0.174-0.125-0.381-0.219-0.624-0.281c-0.242-0.063-0.509-0.094-0.8-0.094c-0.324,0-0.616,0.047-0.877,0.139
		c-0.261,0.094-0.481,0.229-0.662,0.404c-0.18,0.178-0.314,0.396-0.402,0.656c-0.088,0.258-0.123,0.555-0.104,0.887h1.303
		c-0.009-0.295,0.041-0.535,0.149-0.717s0.301-0.273,0.579-0.273c0.162,0,0.299,0.043,0.413,0.127
		c0.113,0.086,0.169,0.24,0.169,0.463c0,0.086-0.021,0.166-0.065,0.234s-0.1,0.131-0.167,0.188
		c-0.067,0.055-0.139,0.105-0.215,0.152c-0.076,0.045-0.144,0.088-0.204,0.125c-0.153,0.092-0.31,0.186-0.471,0.279
		c-0.162,0.096-0.318,0.195-0.468,0.299c-0.15,0.104-0.291,0.215-0.422,0.336c-0.132,0.121-0.249,0.25-0.35,0.389
		c-0.12,0.16-0.212,0.342-0.274,0.539c-0.063,0.199-0.087,0.416-0.073,0.652h4.179V10.818z"/>
	<path d="M35.36,52.945c0.162,0,0.286,0.029,0.375,0.084c0.101,0.074,0.168,0.162,0.2,0.264h1.269
		c-0.079-0.477-0.27-0.82-0.575-1.029c-0.305-0.211-0.718-0.314-1.24-0.314c-0.265,0-0.496,0.045-0.711,0.111v1.371
		c0.029-0.057,0.05-0.119,0.087-0.17c0.069-0.096,0.152-0.172,0.249-0.229C35.111,52.975,35.226,52.945,35.36,52.945z"/>
	<path d="M36.795,53.979c-0.143-0.135-0.314-0.236-0.513-0.309c-0.199-0.07-0.413-0.107-0.644-0.107
		c-0.222,0-0.423,0.025-0.603,0.076c-0.124,0.035-0.242,0.102-0.357,0.182v1.025c0.031-0.064,0.068-0.125,0.122-0.178
		c0.125-0.121,0.282-0.184,0.471-0.184c0.217,0,0.389,0.064,0.516,0.191c0.127,0.127,0.191,0.275,0.191,0.447
		c0,0.184-0.066,0.34-0.198,0.471c-0.132,0.129-0.302,0.193-0.51,0.193c-0.194,0-0.353-0.063-0.475-0.188
		c-0.052-0.053-0.088-0.115-0.118-0.182v1.389c0.181,0.045,0.375,0.076,0.593,0.076c0.287,0,0.551-0.037,0.794-0.111
		c0.242-0.074,0.451-0.186,0.627-0.336c0.175-0.15,0.313-0.336,0.412-0.559c0.1-0.221,0.149-0.48,0.149-0.775
		c0-0.236-0.04-0.447-0.121-0.637S36.938,54.113,36.795,53.979z"/>
	<path d="M31.77,21.617h-0.633v0.326h0.151c0,0,0.009,0.07,0.022,0.16l0.387-0.031l0.243-0.15l0.063-0.305l0.314-0.027l0.123-0.256
		l-0.287-0.059L31.9,21.279L31.77,21.617z"/>
	<polygon points="30.244,22.193 30.704,22.154 30.75,21.834 30.474,21.617 30.269,21.873 	"/>
	<path d="M33.894,43.375v-7.207l-1.101-0.42l-0.073-1.1l-0.515-0.9l-1.394-0.02l-0.808-1.266l-0.716-0.35L29.25,32.5l-1.303,0.076
		l-0.478-0.664l-1.358-0.275l-1.12,1.293l-1.763-0.299l-0.127-1.986l-1.286-0.219l0.514-0.975l-0.147-0.561l-1.69,1.131
		l-1.063-0.129l-0.379-0.832l0.232-0.855l0.586-1.08l1.35-0.684l2.606-0.002l-0.007,0.795l0.936,0.436l-0.075-1.357l0.675-0.68
		l1.362-0.893l0.093-0.631l1.358-1.414l1.445-0.799l-0.128-0.105l0.979-0.92l0.359,0.094l0.164,0.207l0.372-0.412l0.091-0.041
		l-0.408-0.055l-0.412-0.139v-0.4l0.218-0.178h0.483l0.221,0.098l0.191,0.385l0.234-0.035v-0.035l0.068,0.023l0.677-0.105
		l0.096-0.33l0.386,0.098v0.357l-0.359,0.248h0.001l0.052,0.393l0.999,0.307v-0.713l-0.44-0.199l-0.055-0.256l0.495-0.168v-1.092
		l-0.495-0.301l-0.055-1.303l-1.156,0.568h-0.424l0.111-0.992L30.3,16.523l-0.65,0.492v1.502l-1.171,0.369l-0.469,0.979
		l-0.508,0.082v-1.252L26.4,18.543l-0.55-0.359l-0.221-0.811l1.969-1.152l0.964-0.293l0.097,0.648l0.537-0.029l0.042-0.326
		l0.561-0.08l0.01-0.113l-0.241-0.1l-0.055-0.344l0.69-0.059l0.417-0.434l0.022-0.031l0.006,0.002l0.128-0.131l1.45-0.184
		l0.641,0.545l-1.682,0.896l2.14,0.504l0.277-0.715h0.293v-1.717l-1.761-0.781L30.7,13.646l-0.808,0.422l0.055,1.027l-0.844-0.127
		l-0.13-0.568l0.809-0.734l-1.469-0.074l-0.422,0.127l-0.183,0.496l0.55,0.094l-0.11,0.549l-0.936,0.057l-0.147,0.365l-1.357,0.037
		c0,0-0.037-0.77-0.093-0.77c-0.054,0,1.064-0.02,1.064-0.02l0.809-0.789l-0.442-0.221l-0.587,0.57l-0.975-0.055l-0.586-0.809H23.65
		l-1.303,0.973h1.195l0.108,0.35l-0.311,0.293l1.321,0.037l0.202,0.477l-1.488-0.055l-0.073-0.367l-0.936-0.201l-0.496-0.277
		l-1.114,0.01c3.647-2.656,8.131-4.23,12.978-4.23c0.054,0,0.106,0.008,0.159,0.008V8.26c-0.053,0-0.105-0.008-0.159-0.008
		c-6.281,0-12.006,2.422-16.297,6.377c-0.999,0.922-1.918,1.928-2.751,3.006c-3.145,4.066-5.022,9.162-5.022,14.689
		c0,13.271,10.799,24.07,24.071,24.07c0.054,0,0.106-0.006,0.159-0.006v-1.98c-0.053,0.002-0.105,0.006-0.159,0.006
		c-12.181,0-22.091-9.91-22.091-22.09c0-3.066,0.63-5.99,1.764-8.646V22.99l0.791-0.961c0.273-0.518,0.568-1.021,0.882-1.514
		l0.035,0.4l-0.917,1.113c-0.284,0.539-0.55,1.086-0.791,1.648v1.258l0.918,0.441v1.748l0.88,1.502l0.716,0.109l0.092-0.514
		l-0.844-1.305l-0.166-1.266H15.5l0.21,1.303l1.22,1.781l-0.315,0.576l0.775,1.186l1.928,0.477v-0.311l0.771,0.109l-0.072,0.551
		l0.605,0.111l0.936,0.256l1.323,1.506l1.688,0.127l0.165,1.377l-1.156,0.809l-0.054,1.23l-0.166,0.752l1.671,2.094l0.128,0.715
		c0,0,0.605,0.164,0.679,0.164c0.074,0,1.359,0.975,1.359,0.975v3.781l0.458,0.129l-0.313,1.744l0.771,1.027l-0.142,1.729
		l1.019,1.791l1.308,1.143l1.315,0.025l0.128-0.424l-0.965-0.813l0.055-0.404l0.173-0.496l0.037-0.504l-0.652-0.018l-0.33-0.416
		l0.543-0.521l0.073-0.395l-0.606-0.174l0.037-0.367l0.863-0.131l1.313-0.631l0.441-0.807l1.174-1.506l0.202-0.258l-0.202-0.889
		V43.375z M26.303,22.785L25.987,23.1h-0.703l0.11-0.48l0.332-0.027l0.068-0.166l0.509-0.07V22.785z M26.469,21.916l-0.332,0.213
		l-0.412,0.078c0,0,0-0.662,0-0.73h0.743V21.916z M27.095,21.408l0.337,0.209l-0.27,0.223l-0.268-0.223L27.095,21.408z
		 M26.647,21.957h0.056l0.839,0.25v0.426h-0.702l-0.193-0.277V21.957z M26.096,20.773l0.455,0.414l-0.455,0.109V20.773z
		 M24.168,20.844l0.634-0.264h0.869v0.264h0.191v0.453h-1.321l-0.496-0.139L24.168,20.844z M24.045,22.025l0.51-0.549h0.729
		l-0.936,1.309l-0.386-0.209L24.045,22.025z M23.372,18.914l0.522,0.125l-0.18,0.701l-0.564,0.18l-0.356-0.73L23.372,18.914z
		 M20.754,15.584v-0.041h0.482l0.042-0.166h0.79v0.344l-0.227,0.303h-1.087V15.584z M21.525,16.656c0,0,0.483-0.08,0.524-0.08
		c0.042,0,0,0.48,0,0.48l-1.087,0.068l-0.207-0.248L21.525,16.656z"/>
	<path d="M47.445,15.729L34.015,30.58c-0.108-0.02-0.217-0.033-0.331-0.033c-1.029,0-1.863,0.834-1.863,1.863
		c0,1.027,0.834,1.861,1.863,1.861c0.773,0,1.437-0.471,1.718-1.143l11.46,0.031l-0.011-1.236l-11.387-0.031
		c-0.073-0.252-0.196-0.479-0.36-0.674l13.257-14.658L47.445,15.729z"/>
</g>
</svg>
