<?xml version="1.0" encoding="utf-8"?>
<!-- Generator: Adobe Illustrator 16.0.0, SVG Export Plug-In . SVG Version: 6.00 Build 0)  -->
<!DOCTYPE svg PUBLIC "-//W3C//DTD SVG 1.1//EN" "http://www.w3.org/Graphics/SVG/1.1/DTD/svg11.dtd">
<svg version="1.1" id="Layer_1" xmlns="http://www.w3.org/2000/svg" xmlns:xlink="http://www.w3.org/1999/xlink" x="0px" y="0px"
	 width="64px" height="64px" viewBox="0 0 64 64" enable-background="new 0 0 64 64" xml:space="preserve">
<g>
	<path d="M21.46,45.138c2.689,0,4.879-2.188,4.879-4.879s-2.189-4.879-4.879-4.879c-2.691,0-4.879,2.188-4.879,4.879
		S18.769,45.138,21.46,45.138z"/>
	<path d="M32.204,47.19c2.689,0,4.879-2.188,4.879-4.88c0-2.689-2.189-4.878-4.879-4.878c-2.691,0-4.879,2.188-4.879,4.878
		C27.325,45.001,29.513,47.19,32.204,47.19z"/>
	<path d="M42.442,45.138c2.689,0,4.879-2.188,4.879-4.879s-2.189-4.879-4.879-4.879c-2.691,0-4.879,2.188-4.879,4.879
		S39.751,45.138,42.442,45.138z"/>
	<path d="M39.577,54.936c-0.016-0.075-0.039-0.152-0.072-0.231c-0.189-0.442-0.377-0.886-0.566-1.33
		c-0.334-0.785-0.668-1.57-1.004-2.355c-0.279-0.658-0.559-1.316-0.84-1.975v0.001c-0.109-0.26-0.219-0.519-0.33-0.777
		c-0.174-0.41-0.49-0.563-0.816-0.543v-0.007H28.7v0.01c-0.256,0.028-0.494,0.179-0.633,0.509c-0.363,0.859-0.729,1.719-1.092,2.578
		c-0.209,0.492-0.418,0.985-0.625,1.478c-0.283,0.671-0.568,1.342-0.852,2.012c-0.488,1.154,1.203,2.157,1.695,0.992
		c0.148-0.35,0.297-0.699,0.445-1.05c0.213-0.503,0.426-1.006,0.639-1.51c0.141-0.33,0.281-0.662,0.422-0.993v0.768v1.135v2.488
		c0,0.006-0.002,0.011-0.002,0.017c0,0.126,0,0.25,0,0.376h7.25c0-0.126,0-0.251,0-0.376V53.4v-1.647v-0.1
		c0.008,0.017,0.014,0.032,0.021,0.05c0.125,0.296,0.252,0.591,0.377,0.886c0.449,1.057,0.9,2.113,1.348,3.168
		c0.252,0.593,0.799,0.653,1.242,0.423c0,0.001,0,0.001,0,0.001c0.004-0.001,0.008-0.005,0.012-0.006
		c0.047-0.025,0.092-0.055,0.137-0.086c0.012-0.008,0.023-0.016,0.035-0.024c0.041-0.032,0.08-0.067,0.119-0.104
		c0.012-0.012,0.023-0.022,0.035-0.034c0.035-0.037,0.064-0.077,0.096-0.118c0.012-0.015,0.023-0.029,0.035-0.045
		c0.025-0.04,0.049-0.082,0.07-0.125c0.01-0.021,0.021-0.039,0.031-0.061c0.018-0.041,0.029-0.085,0.043-0.129
		c0.008-0.024,0.016-0.047,0.021-0.071c0.01-0.046,0.014-0.092,0.018-0.14c0.002-0.024,0.008-0.049,0.008-0.074
		c0-0.053-0.006-0.105-0.014-0.158C39.581,54.981,39.581,54.959,39.577,54.936z"/>
	<path d="M47.003,46.217c-0.174-0.411-0.49-0.563-0.814-0.544v-0.005h-7.25v0.009c-0.256,0.027-0.494,0.179-0.633,0.509
		c-0.133,0.312-0.264,0.624-0.396,0.936c0.119,0.161,0.221,0.338,0.303,0.531l1.379,3.24l1.361,3.195
		c0.346,0.811,0.271,1.691-0.182,2.438h1.115c0-0.061,0-0.12,0-0.181h1.354c0,0.061,0,0.12,0,0.181h2.949c0-0.061,0-0.12,0-0.181
		c0-0.749,0-1.498,0-2.247v-4.497c0.582,1.368,1.164,2.736,1.746,4.104c0.525,1.234,2.33,0.171,1.809-1.052
		C48.829,50.507,47.917,48.363,47.003,46.217z"/>
	<path d="M26.62,47.624c-0.201-0.47-0.398-0.938-0.598-1.406c-0.176-0.411-0.492-0.563-0.816-0.544v-0.005h-7.25v0.009
		c-0.256,0.027-0.492,0.179-0.633,0.509c-0.855,2.022-1.713,4.045-2.568,6.067c-0.488,1.153,1.205,2.156,1.697,0.992
		c0.5-1.185,1.002-2.37,1.504-3.554v4.393c0,0.005-0.002,0.01-0.002,0.015c0,0.81,0,1.618,0,2.428h2.949c0-0.061,0-0.12,0-0.181
		h1.354c0,0.061,0,0.12,0,0.181h2.328c-0.109-0.113-0.219-0.225-0.307-0.357c-0.494-0.748-0.578-1.651-0.229-2.479l1.156-2.728
		v-1.361c0.096,0.227,0.191,0.453,0.289,0.68L26.62,47.624z"/>
	<path d="M50.874,17.263c-0.352-0.497-0.719-0.982-1.109-1.449c-4.244-5.093-10.633-8.341-17.766-8.341c-0.012,0-0.023,0-0.033,0
		c-0.008,0-0.014,0-0.021,0c-0.025,0-0.053,0.003-0.08,0.003c-7.078,0.041-13.41,3.279-17.629,8.339
		c-0.389,0.467-0.758,0.952-1.109,1.449c-2.672,3.771-4.25,8.369-4.25,13.332c0,4.964,1.578,9.563,4.25,13.334
		c0.352,0.496,0.721,0.982,1.109,1.449c0.314,0.377,0.645,0.74,0.982,1.097l0.426-1.003c0.123-0.292,0.287-0.551,0.486-0.773v-0.066
		c-0.117-0.133-0.242-0.26-0.355-0.396c0.07-0.047-0.736-0.434-1.119-1.446c-2.127-3.018-3.496-6.604-3.807-10.492h7.516
		c0.002,0.016,0.004,0.031,0.004,0.047c0.029,0.643,0.076,1.278,0.135,1.905c0.576-0.285,1.199-0.488,1.855-0.598
		c-0.035-0.434-0.07-0.866-0.092-1.308c0-0.016-0.002-0.031-0.004-0.047h10.789v0.047v3.365c0.375-0.065,0.758-0.105,1.152-0.105
		c0.254,0,0.496,0.039,0.744,0.066v-3.326v-0.047h10.678c-0.002,0.016-0.004,0.031-0.004,0.047c-0.02,0.44-0.057,0.873-0.092,1.306
		c0.656,0.107,1.279,0.31,1.855,0.594c0.061-0.625,0.105-1.259,0.135-1.899c0-0.016,0.002-0.031,0.002-0.047h7.629
		c-0.311,3.888-3.047,9.581-3.805,10.493s-1.189,1.4-1.121,1.445c-0.068,0.081-0.143,0.156-0.213,0.236v0.064
		c0.281,0.26,0.51,0.585,0.67,0.964l0.318,0.747c0.262-0.284,0.518-0.573,0.764-0.869c0.389-0.467,0.758-0.953,1.109-1.45
		c2.672-3.771,4.25-8.37,4.25-13.334C55.124,25.634,53.546,21.035,50.874,17.263z M31.052,9.438v11.681
		c-3.303-0.08-6.41-0.578-9.154-1.401C23.804,13.969,27.159,9.973,31.052,9.438z M25.241,10.481
		c-2.127,2.049-3.891,5.046-5.109,8.644c-1.631-0.609-3.098-1.343-4.363-2.172C18.249,14.005,21.513,11.737,25.241,10.481z
		 M18.327,30.402h-7.549c0.041-4.464,1.477-8.595,3.877-11.999c1.438,0.961,3.1,1.8,4.938,2.491
		C18.8,23.792,18.345,27.007,18.327,30.402z M20.226,30.402c0.016-3.188,0.432-6.196,1.145-8.902
		c2.92,0.894,6.201,1.433,9.682,1.517v7.386H20.226z M48.229,16.954c-1.291,0.846-2.791,1.59-4.461,2.206
		c-1.229-3.646-3.02-6.679-5.18-8.736C42.388,11.667,45.71,13.962,48.229,16.954z M32.948,9.453
		c3.852,0.595,7.168,4.584,9.053,10.294c-2.719,0.805-5.791,1.293-9.053,1.372V9.453z M32.948,30.402v-7.386
		c3.439-0.083,6.686-0.61,9.578-1.486c0.709,2.698,1.121,5.697,1.139,8.872H32.948z M45.562,30.402
		c-0.016-3.379-0.467-6.582-1.254-9.47c1.879-0.698,3.574-1.551,5.037-2.528c2.398,3.403,3.836,7.534,3.875,11.998H45.562z"/>
</g>
</svg>
