<?xml version="1.0" encoding="utf-8"?>
<!-- Generator: Adobe Illustrator 16.0.4, SVG Export Plug-In . SVG Version: 6.00 Build 0)  -->
<!DOCTYPE svg PUBLIC "-//W3C//DTD SVG 1.1//EN" "http://www.w3.org/Graphics/SVG/1.1/DTD/svg11.dtd">
<svg version="1.1" id="Layer_1" xmlns="http://www.w3.org/2000/svg" xmlns:xlink="http://www.w3.org/1999/xlink" x="0px" y="0px"
	 width="64px" height="64px" viewBox="0 0 64 64" enable-background="new 0 0 64 64" xml:space="preserve">
<g>
	<path d="M49.038,40.148c0.664-1.295,1.181-2.676,1.53-4.123c0.088-0.365,0.162-0.736,0.229-1.109
		c0.188-1.064,0.292-2.156,0.292-3.273c0-0.064-0.004-0.127-0.005-0.191C51.08,30.903,51.052,30.36,51,29.825
		c-0.173-1.785-0.602-3.494-1.24-5.098h0.018l-0.057-0.316l-0.103-0.041c-0.853-2.012-2.048-3.844-3.511-5.424
		c-0.096-0.105-0.193-0.205-0.291-0.307c-0.277-0.287-0.561-0.566-0.855-0.836c-3.327-3.029-7.747-4.879-12.591-4.879
		c-4.887,0-9.338,1.883-12.675,4.959c-0.777,0.715-1.492,1.498-2.14,2.336c-2.445,3.164-3.906,7.127-3.906,11.424
		c0,10.322,8.398,18.721,18.721,18.721C39.632,50.363,45.936,46.205,49.038,40.148z M49.088,27.693
		c0.021,0.098,0.046,0.195,0.068,0.293l-0.122-0.229L49.088,27.693z M47.562,23.969l0.108-0.123
		c0.142,0.277,0.276,0.559,0.402,0.842l-0.179-0.006l-0.332,0.045V23.969L47.562,23.969z M44.857,20.701l0.002-0.836
		c0.295,0.313,0.578,0.633,0.85,0.965l-0.337,0.502l-1.179-0.01l-0.074-0.246L44.857,20.701z M22.275,18.625v-0.033h0.375
		l0.032-0.129h0.614v0.268l-0.176,0.236h-0.846L22.275,18.625L22.275,18.625z M22.875,19.459c0,0,0.375-0.063,0.408-0.063
		c0.031,0,0,0.373,0,0.373l-0.847,0.053l-0.161-0.191L22.875,19.459z M32.371,48.824c-9.474,0-17.181-7.707-17.181-17.182
		c0-2.385,0.489-4.656,1.372-6.723v-0.535l0.613-0.746c0.214-0.404,0.442-0.795,0.686-1.178l0.028,0.311l-0.714,0.867l-0.613,1.281
		v0.979l0.713,0.342v1.36l0.686,1.168l0.557,0.086l0.071-0.4l-0.656-1.014l-0.128-0.984h0.385l0.162,1.014l0.951,1.385l-0.247,0.447
		l0.604,0.922l1.499,0.373v-0.242l0.6,0.084l-0.057,0.428l0.472,0.088L22.9,31.15l1.027,1.172l1.313,0.1l0.129,1.07l-0.899,0.629
		l-0.042,0.957L24.3,35.662l1.299,1.629l0.1,0.557c0,0,0.473,0.127,0.529,0.127s1.056,0.758,1.056,0.758v2.941l0.356,0.1
		l-0.242,1.355l0.6,0.801l-0.11,1.344l0.792,1.394l1.017,0.89l1.023,0.02l0.101-0.328l-0.752-0.633l0.043-0.314l0.136-0.385
		l0.028-0.393l-0.508-0.015l-0.256-0.321l0.421-0.408l0.058-0.307l-0.471-0.136l0.026-0.285l0.673-0.102l1.021-0.49l0.343-0.629
		l1.071-1.371l-0.244-1.069l0.328-0.572l0.986,0.031l0.662-0.525l0.215-2.068l0.734-0.934l0.13-0.6l-0.671-0.216l-0.443-0.728
		l-1.514-0.016l-1.2-0.457l-0.056-0.854l-0.4-0.701l-1.085-0.015l-0.628-0.983L28.91,31.48l-0.027,0.299l-1.014,0.061l-0.371-0.518
		l-1.057-0.213l-0.871,1.006l-1.371-0.232l-0.1-1.545l-1-0.17L23.5,29.41l-0.115-0.436l-1.314,0.879l-0.826-0.102l-0.295-0.646
		l0.18-0.666l0.457-0.84l1.049-0.531h2.026l-0.006,0.617l0.729,0.34l-0.058-1.057l0.524-0.527l1.06-0.697l0.072-0.49l1.057-1.098
		l1.123-0.621l-0.099-0.082l0.761-0.717l0.278,0.074l0.127,0.16l0.289-0.32l0.071-0.031l-0.316-0.045l-0.321-0.105v-0.312
		l0.171-0.139h0.375l0.172,0.076l0.148,0.299l0.183-0.027v-0.027l0.053,0.02l0.526-0.082l0.074-0.258l0.3,0.076v0.277l-0.279,0.193
		h0.002l0.041,0.305l0.953,0.295c0,0,0.001,0.004,0.003,0.012l0.22-0.02l0.015-0.412l-0.756-0.346l-0.043-0.197l0.628-0.215
		l0.027-0.6l-0.656-0.4l-0.043-1.014l-0.9,0.443H30.84l0.085-0.771L29.7,19.355l-0.507,0.383v1.168l-0.91,0.287l-0.365,0.76
		l-0.396,0.064v-0.973l-0.856-0.119l-0.428-0.279l-0.172-0.629l1.531-0.896l0.749-0.229l0.075,0.504l0.418-0.023l0.031-0.252
		l0.438-0.064l0.008-0.088l-0.188-0.076l-0.043-0.268l0.536-0.047l0.325-0.336l0.018-0.025l0.004,0.002l0.099-0.102l1.128-0.143
		l0.499,0.424l-1.309,0.697l1.665,0.393l0.216-0.557h0.728l0.258-0.486l-0.516-0.129v-0.613l-1.612-0.713l-1.113,0.127l-0.629,0.33
		l0.043,0.797l-0.656-0.098l-0.102-0.443l0.629-0.57l-1.142-0.059l-0.328,0.1l-0.143,0.387l0.428,0.072l-0.086,0.428l-0.728,0.043
		l-0.114,0.285l-1.056,0.027c0,0-0.029-0.598-0.071-0.598c-0.043,0,0.827-0.016,0.827-0.016l0.628-0.613l-0.343-0.172l-0.456,0.443
		l-0.758-0.043l-0.457-0.629h-0.97l-1.014,0.756h0.928l0.086,0.273l-0.243,0.227l1.028,0.029l0.157,0.371l-1.157-0.043l-0.057-0.285
		l-0.728-0.156l-0.386-0.215l-0.866,0.008c2.836-2.066,6.323-3.291,10.094-3.291c4.343,0,8.312,1.625,11.342,4.293l-0.204,0.365
		l-0.793,0.309l-0.333,0.363l0.076,0.424l0.409,0.055l0.247,0.617l0.705-0.283l0.117,0.824h-0.215l-0.58-0.086L42.5,21.45
		l-0.621,0.877l-0.89,0.141l-0.128,0.76l0.375,0.088l-0.107,0.49l-0.884-0.178l-0.81,0.178l-0.17,0.449l0.139,0.945l0.477,0.223
		l0.797-0.006l0.537-0.049l0.164-0.428l0.842-1.094l0.553,0.113l0.545-0.492l0.103,0.387l1.343,0.904L44.6,24.977l-0.604-0.031
		l0.231,0.33l0.373,0.082l0.437-0.184l-0.009-0.523l0.193-0.098l-0.156-0.164l-0.895-0.5l-0.234-0.662h0.742l0.238,0.234
		l0.641,0.553l0.027,0.668l0.664,0.707l0.247-0.969l0.459-0.252l0.087,0.793l0.449,0.492l0.895-0.016
		c0.174,0.447,0.329,0.9,0.465,1.363l-0.096,0.088h-1.371l-0.835-0.623l-0.878,0.086v0.537h-0.279l-0.299-0.215l-1.521-0.385v-0.986
		l-1.926,0.15l-0.6,0.322h-0.766l-0.377-0.039l-0.93,0.516v0.973l-1.898,1.369l0.158,0.586h0.385l-0.102,0.557l-0.271,0.1
		l-0.015,1.457l1.642,1.869h0.715l0.043-0.113h1.285l0.37-0.344h0.729l0.4,0.4l1.084,0.112l-0.143,1.441l1.205,2.129l-0.635,1.213
		l0.042,0.572l0.501,0.497v1.375l0.655,0.884v1.142h0.567C42.542,46.346,37.741,48.824,32.371,48.824z M23.86,21.43l0.45-0.215
		l0.407,0.096l-0.14,0.547l-0.439,0.141L23.86,21.43z M26.247,22.715v0.354H25.22l-0.385-0.107l0.097-0.246l0.493-0.205h0.674v0.205
		L26.247,22.715L26.247,22.715z M26.72,23.207v0.342l-0.258,0.166l-0.32,0.061c0,0,0-0.516,0-0.568L26.72,23.207L26.72,23.207z
		 M26.43,23.068V22.66l0.354,0.322L26.43,23.068z M26.591,23.891v0.334l-0.246,0.246h-0.546l0.085-0.375l0.258-0.021l0.054-0.129
		L26.591,23.891z M25.231,23.207h0.567l-0.728,1.018l-0.301-0.162l0.064-0.428L25.231,23.207z M27.555,23.775v0.332h-0.547
		L26.86,23.89v-0.309h0.043L27.555,23.775z M27.052,23.316l0.155-0.162l0.263,0.162l-0.21,0.174L27.052,23.316z"/>
	<polygon points="40.934,21.252 40.968,21.529 40.553,21.615 40.496,22.207 40.996,22.207 41.66,22.143 42.002,21.736 
		41.639,21.594 41.439,21.365 41.139,20.881 40.996,20.193 40.432,20.309 40.273,20.551 40.273,20.822 40.546,21.008 	"/>
	<polygon points="40.453,21.479 40.482,21.109 40.152,20.965 39.689,21.072 39.348,21.621 39.348,21.979 39.747,21.979 	"/>
	<path d="M30.943,23.055l-0.102,0.262H30.35v0.254h0.117c0,0,0.007,0.055,0.017,0.125l0.303-0.025l0.188-0.115l0.05-0.238
		l0.244-0.021l0.096-0.199l-0.224-0.045L30.943,23.055z"/>
	<polygon points="29.675,23.516 29.655,23.764 30.013,23.734 30.05,23.486 29.836,23.316 	"/>
	<path d="M47.671,14.703c0.134,0,0.265-0.01,0.394-0.027h4.184V14.65c0.992-0.121,1.748-0.723,1.748-1.453
		c0-0.818-0.944-1.479-2.109-1.479c0,0-0.002,0-0.004,0c-0.021-0.803-0.953-1.451-2.104-1.451c-1.164,0-2.107,0.662-2.107,1.479
		c-1.165,0-2.109,0.662-2.109,1.479S46.506,14.703,47.671,14.703z M49.777,13.225c0.002,0,0.002,0,0.005,0
		c0,0.002,0.001,0.006,0.001,0.008h-0.008C49.775,13.23,49.777,13.229,49.777,13.225z"/>
	<path d="M52.568,48.432c0,0-0.002,0-0.004,0c-0.02-0.723-0.858-1.307-1.895-1.307c-1.048,0-1.896,0.596-1.896,1.332
		c-1.049,0-1.899,0.596-1.899,1.332c0,0.734,0.851,1.33,1.899,1.33c0.119,0,0.238-0.01,0.354-0.023h3.768V51.07
		c0.894-0.107,1.572-0.65,1.572-1.307C54.467,49.027,53.617,48.432,52.568,48.432z M50.669,49.795c0-0.002,0.002-0.004,0.002-0.006
		c0.002,0,0.002,0,0.002,0c0.001,0.002,0.002,0.004,0.002,0.006H50.669z"/>
	<path d="M18.585,50.174c0,0-0.003,0-0.007,0c-0.033-1.295-1.537-2.34-3.39-2.34c-1.876,0-3.396,1.066-3.396,2.383
		c-1.878,0-3.4,1.066-3.4,2.385c0,1.316,1.522,2.383,3.4,2.383c0.215,0,0.427-0.018,0.633-0.043h6.743v-0.045
		c1.599-0.192,2.815-1.164,2.815-2.338C21.983,51.238,20.463,50.174,18.585,50.174z M15.185,52.613c0-0.004,0.004-0.006,0.004-0.012
		c0.003,0,0.003,0,0.006,0c0,0.004,0.001,0.008,0.001,0.012H15.185z"/>
	<path d="M20.795,11.52c0.075,0,0.149-0.006,0.222-0.016h2.361v-0.016c0.56-0.068,0.985-0.408,0.985-0.818
		c0-0.463-0.532-0.836-1.189-0.836c0,0-0.002,0-0.003,0c-0.012-0.453-0.538-0.818-1.187-0.818c-0.657,0-1.189,0.373-1.189,0.834
		c-0.657,0-1.19,0.373-1.19,0.836C19.604,11.146,20.138,11.52,20.795,11.52z M21.984,10.686c0.001,0,0.001,0,0.002,0
		c0,0,0,0.002,0,0.004h-0.004C21.982,10.688,21.984,10.688,21.984,10.686z"/>
	<path d="M49.707,42.842c0,0.461,0.533,0.834,1.189,0.834c0.076,0,0.149-0.006,0.223-0.016h2.361v-0.016
		c0.56-0.068,0.984-0.408,0.984-0.818c0-0.463-0.531-0.836-1.189-0.836h-0.002c-0.012-0.453-0.539-0.818-1.188-0.818
		c-0.656,0-1.189,0.373-1.189,0.834C50.24,42.006,49.707,42.379,49.707,42.842z M52.087,42.842c0,0,0.001,0,0.002,0
		c0,0,0,0.002,0,0.004h-0.004C52.085,42.844,52.087,42.844,52.087,42.842z"/>
	<path d="M54.419,22.027c0,0-0.002,0-0.003,0c-0.012-0.453-0.538-0.818-1.188-0.818c-0.656,0-1.188,0.373-1.188,0.834
		c-0.657,0-1.19,0.373-1.19,0.836c0,0.461,0.533,0.834,1.19,0.834c0.075,0,0.149-0.006,0.222-0.016h2.361v-0.016
		c0.561-0.068,0.984-0.408,0.984-0.818C55.607,22.4,55.076,22.027,54.419,22.027z M53.23,22.883h-0.004
		c0-0.002,0.002-0.002,0.002-0.004h0.002C53.23,22.879,53.23,22.881,53.23,22.883z"/>
	<path d="M45.309,52.902h-0.002c-0.013-0.453-0.539-0.818-1.188-0.818c-0.657,0-1.189,0.373-1.189,0.834
		c-0.656,0-1.189,0.373-1.189,0.836c0,0.461,0.533,0.834,1.189,0.834c0.075,0,0.149-0.006,0.223-0.016h2.361v-0.016
		c0.56-0.068,0.984-0.408,0.984-0.818C46.498,53.275,45.966,52.902,45.309,52.902z M44.121,53.758h-0.004
		c0-0.002,0.002-0.002,0.002-0.004c0,0,0.001,0,0.002,0C44.121,53.754,44.121,53.756,44.121,53.758z"/>
	<path d="M12.461,42.006c-0.657,0-1.19,0.373-1.19,0.836c0,0.461,0.533,0.834,1.19,0.834c0.075,0,0.149-0.006,0.222-0.016h2.361
		v-0.016c0.56-0.068,0.985-0.408,0.985-0.818c0-0.463-0.532-0.836-1.189-0.836c0,0-0.002,0-0.003,0
		c-0.012-0.453-0.538-0.818-1.187-0.818C12.993,41.172,12.461,41.545,12.461,42.006z M13.65,42.842c0.001,0,0.001,0,0.002,0
		c0,0,0,0.002,0,0.004h-0.004C13.648,42.844,13.65,42.844,13.65,42.842z"/>
	<path d="M14.821,20.635c0.47-0.057,0.827-0.342,0.827-0.688c0-0.389-0.447-0.701-0.999-0.701h-0.002
		c-0.01-0.381-0.452-0.688-0.997-0.688c-0.552,0-0.998,0.314-0.998,0.701c-0.552,0-1,0.313-1,0.701c0,0.387,0.448,0.699,1,0.699
		c0.063,0,0.125-0.004,0.186-0.012h1.983V20.635z M13.652,19.963h-0.003c0,0,0.001,0,0.001-0.002c0.001,0,0.001,0,0.002,0V19.963z"
		/>
	<path d="M27.43,51.721h-0.002c-0.01-0.381-0.452-0.688-0.997-0.688c-0.552,0-0.998,0.313-0.998,0.7c-0.552,0-1,0.314-1,0.701
		s0.448,0.701,1,0.701c0.063,0,0.125-0.006,0.186-0.014h1.983v-0.014c0.47-0.058,0.827-0.342,0.827-0.687
		C28.429,52.033,27.981,51.721,27.43,51.721z M26.433,52.438H26.43c0-0.002,0.001-0.002,0.001-0.004c0.001,0,0.001,0,0.002,0
		C26.433,52.436,26.433,52.436,26.433,52.438z"/>
	<path d="M49.85,17.279c-0.011-0.381-0.453-0.688-0.998-0.688c-0.552,0-0.998,0.314-0.998,0.701c-0.552,0-1,0.313-1,0.701
		c0,0.387,0.448,0.699,1,0.699c0.063,0,0.125-0.004,0.187-0.012h1.983v-0.014c0.47-0.057,0.826-0.342,0.826-0.688
		c0-0.389-0.447-0.701-0.998-0.701H49.85V17.279z M48.852,17.996c0,0,0,0,0-0.002c0.002,0,0.002,0,0.002,0v0.002H48.852z"/>
	<path d="M11.504,16.084c0.136,0,0.27-0.012,0.399-0.029h4.263v-0.027c1.011-0.123,1.779-0.736,1.779-1.479
		c0-0.834-0.961-1.506-2.147-1.506c0,0-0.003,0-0.005,0c-0.021-0.818-0.972-1.48-2.143-1.48c-1.186,0-2.146,0.676-2.146,1.508
		c-1.187,0-2.149,0.674-2.149,1.508C9.354,15.41,10.317,16.084,11.504,16.084z M13.65,14.578c0.002,0,0.002,0,0.004,0
		c0,0.002,0,0.004,0,0.006h-0.007C13.647,14.582,13.65,14.582,13.65,14.578z"/>
</g>
</svg>
