<?xml version="1.0" encoding="utf-8"?>
<!-- Generator: Adobe Illustrator 16.0.0, SVG Export Plug-In . SVG Version: 6.00 Build 0)  -->
<!DOCTYPE svg PUBLIC "-//W3C//DTD SVG 1.1//EN" "http://www.w3.org/Graphics/SVG/1.1/DTD/svg11.dtd">
<svg version="1.1" id="Layer_1" xmlns="http://www.w3.org/2000/svg" xmlns:xlink="http://www.w3.org/1999/xlink" x="0px" y="0px"
	 width="64px" height="64px" viewBox="0 0 64 64" enable-background="new 0 0 64 64" xml:space="preserve">
<g>
	<g>
		<path d="M22.199,21.798c2.62,0.786,5.588,1.261,8.74,1.338V11.983C27.223,12.493,24.018,16.31,22.199,21.798z"/>
		<path d="M30.939,52.389V41.236c-3.154,0.077-6.124,0.552-8.745,1.34C24.013,48.066,27.223,51.879,30.939,52.389z"/>
		<path d="M21.687,40.876c2.791-0.856,5.927-1.371,9.252-1.451v-5.614H20.638C20.749,36.323,21.115,38.705,21.687,40.876z"/>
		<path d="M20.602,32h10.337v-7.053c-3.322-0.079-6.456-0.593-9.244-1.447C21.014,26.083,20.617,28.957,20.602,32z"/>
		<path d="M25.391,12.978c-3.56,1.199-6.675,3.366-9.044,6.18c1.208,0.792,2.61,1.492,4.167,2.073
			C21.676,17.797,23.361,14.935,25.391,12.978z"/>
		<path d="M19.998,22.921c-1.755-0.66-3.342-1.461-4.714-2.378c-2.291,3.25-3.662,7.194-3.701,11.457h7.208
			C18.806,28.759,19.24,25.688,19.998,22.921z"/>
		<path d="M16.352,45.211c2.369,2.813,5.479,4.984,9.039,6.183c-2.03-1.958-3.717-4.817-4.879-8.252
			C18.958,43.723,17.56,44.421,16.352,45.211z"/>
		<path d="M44.795,32h7.313c-0.039-4.263-1.41-8.206-3.701-11.456c-1.397,0.933-3.016,1.747-4.809,2.414
			C44.348,25.715,44.779,28.773,44.795,32z"/>
		<path d="M18.826,33.812h-7.177c0.296,3.711,1.604,7.138,3.635,10.019c1.372-0.917,2.958-1.718,4.713-2.379
			C19.354,39.098,18.942,36.524,18.826,33.812z"/>
		<path d="M43.596,41.415c1.795,0.667,3.415,1.482,4.812,2.417c2.032-2.881,3.338-6.308,3.634-10.02h-7.284
			C44.642,36.51,44.234,39.071,43.596,41.415z"/>
		<path d="M42.946,33.812H32.75v5.614c3.287,0.079,6.388,0.583,9.154,1.42C42.472,38.683,42.836,36.312,42.946,33.812z"/>
		<path d="M32.75,41.236v11.139c3.678-0.568,6.848-4.374,8.648-9.827C38.801,41.778,35.866,41.313,32.75,41.236z"/>
		<path d="M38.137,51.449c3.627-1.188,6.796-3.381,9.201-6.238c-1.23-0.806-2.662-1.515-4.253-2.103
			C41.913,46.591,40.198,49.484,38.137,51.449z"/>
		<path d="M47.342,19.159c-2.405-2.857-5.578-5.048-9.205-6.236c2.061,1.965,3.772,4.861,4.945,8.343
			C44.676,20.677,46.109,19.966,47.342,19.159z"/>
		<path d="M32.75,11.997v11.139c3.115-0.076,6.047-0.542,8.644-1.311C39.594,16.374,36.428,12.565,32.75,11.997z"/>
		<path d="M41.897,23.529c-2.764,0.836-5.863,1.34-9.146,1.418V32h10.233C42.967,28.969,42.574,26.105,41.897,23.529z"/>
	</g>
	<path d="M32,56.374C18.56,56.374,7.626,45.44,7.626,32S18.56,7.626,32,7.626c13.44,0,24.374,10.934,24.374,24.374
		S45.439,56.374,32,56.374z M32,9.626C19.663,9.626,9.626,19.663,9.626,32S19.663,54.374,32,54.374
		c12.337,0,22.374-10.037,22.374-22.374S44.336,9.626,32,9.626z"/>
</g>
</svg>
