<?xml version="1.0" encoding="utf-8"?>
<!-- Generator: Adobe Illustrator 16.0.0, SVG Export Plug-In . SVG Version: 6.00 Build 0)  -->
<!DOCTYPE svg PUBLIC "-//W3C//DTD SVG 1.1//EN" "http://www.w3.org/Graphics/SVG/1.1/DTD/svg11.dtd">
<svg version="1.1" id="Layer_1" xmlns="http://www.w3.org/2000/svg" xmlns:xlink="http://www.w3.org/1999/xlink" x="0px" y="0px"
	 width="64px" height="64px" viewBox="0 0 64 64" enable-background="new 0 0 64 64" xml:space="preserve">
<g>
	<path d="M29.095,13.63c-2.679,0.368-4.988,3.119-6.3,7.075c1.889,0.566,4.027,0.909,6.3,0.964V13.63z"/>
	<path d="M29.095,42.754v-8.039c-2.273,0.056-4.414,0.398-6.304,0.966C24.103,39.638,26.416,42.387,29.095,42.754z"/>
	<path d="M29.095,29.364H21.67c0.08,1.811,0.344,3.527,0.756,5.092c2.012-0.617,4.271-0.988,6.669-1.045V29.364z"/>
	<path d="M29.095,22.975c-2.395-0.057-4.653-0.428-6.663-1.043c-0.49,1.862-0.777,3.934-0.788,6.126h7.451V22.975z"/>
	<path d="M25.096,14.348c-2.565,0.864-4.811,2.426-6.519,4.455c0.87,0.571,1.881,1.075,3.003,1.495
		C22.418,17.821,23.633,15.758,25.096,14.348z"/>
	<path d="M21.209,21.515c-1.266-0.476-2.41-1.054-3.398-1.714c-1.651,2.343-2.641,5.186-2.668,8.257h5.195
		C20.35,25.722,20.662,23.509,21.209,21.515z"/>
	<path d="M21.578,36.088c-1.119,0.419-2.127,0.923-2.998,1.492c1.709,2.028,3.95,3.593,6.516,4.457
		C23.633,40.626,22.416,38.564,21.578,36.088z"/>
	<path d="M41.685,19.801c-1.007,0.672-2.174,1.259-3.466,1.74c0.541,1.987,0.852,4.192,0.863,6.517h5.271
		C44.324,24.986,43.336,22.143,41.685,19.801z"/>
	<path d="M20.363,29.364H15.19c0.214,2.675,1.155,5.145,2.62,7.221c0.988-0.661,2.133-1.239,3.397-1.714
		C20.744,33.174,20.447,31.319,20.363,29.364z"/>
	<path d="M44.305,29.364h-5.25c-0.083,1.945-0.377,3.791-0.837,5.48c1.294,0.48,2.462,1.068,3.468,1.742
		C43.15,34.509,44.092,32.039,44.305,29.364z"/>
	<path d="M30.4,33.41c2.369,0.057,4.604,0.42,6.598,1.024c0.409-1.56,0.672-3.269,0.751-5.07H30.4V33.41z"/>
	<path d="M30.4,42.744c2.65-0.41,4.936-3.153,6.233-7.083c-1.872-0.555-3.987-0.891-6.233-0.946V42.744z"/>
	<path d="M34.283,42.077c2.614-0.856,4.898-2.437,6.632-4.496c-0.888-0.581-1.919-1.092-3.065-1.516
		C37.004,38.575,35.769,40.66,34.283,42.077z"/>
	<path d="M34.283,14.308c1.485,1.417,2.719,3.504,3.564,6.014c1.148-0.424,2.182-0.937,3.07-1.519
		C39.184,16.744,36.897,15.165,34.283,14.308z"/>
	<path d="M30.4,13.641v8.029c2.245-0.055,4.359-0.391,6.23-0.945C35.333,16.795,33.051,14.05,30.4,13.641z"/>
	<path d="M30.4,28.058h7.375c-0.012-2.184-0.295-4.249-0.783-6.105c-1.991,0.603-4.225,0.965-6.592,1.022V28.058z"/>
	<path d="M48.857,28.058c0-10.475-8.521-18.997-18.997-18.997c-0.401,0-0.798,0.017-1.192,0.041v2.406
		c0.395-0.028,0.789-0.061,1.192-0.061c9.159,0,16.61,7.452,16.61,16.611c0,9.159-7.451,16.61-16.61,16.61
		c-0.269,0-0.53-0.027-0.795-0.04v0.897v1.509v4.722h-5.899v3.182h13.389v-3.182h-5.103v-4.774
		C41.185,46.171,48.857,37.997,48.857,28.058z"/>
</g>
</svg>
