<?xml version="1.0" encoding="utf-8"?>
<!-- Generator: Adobe Illustrator 16.0.0, SVG Export Plug-In . SVG Version: 6.00 Build 0)  -->
<!DOCTYPE svg PUBLIC "-//W3C//DTD SVG 1.1//EN" "http://www.w3.org/Graphics/SVG/1.1/DTD/svg11.dtd">
<svg version="1.1" id="Layer_1" xmlns="http://www.w3.org/2000/svg" xmlns:xlink="http://www.w3.org/1999/xlink" x="0px" y="0px"
	 width="64px" height="64px" viewBox="0 0 64 64" enable-background="new 0 0 64 64" xml:space="preserve">
<path d="M52.831,44.924c0.006-0.049,0.023-0.191,0.045-0.399c2.219-3.672,3.498-7.972,3.498-12.566
	c0-6.052-2.222-11.592-5.887-15.858c0.005-0.005,0.025-0.028,0.027-0.029l-0.24-0.216c-4.47-5.067-11.003-8.271-18.275-8.271
	c-12.793,0-23.308,9.91-24.291,22.456c-0.015,0.001-0.031,0.002-0.034,0.002l0.014,0.265c-0.037,0.547-0.063,1.097-0.063,1.652
	c0,13.103,10.393,23.817,23.367,24.348c0.005,0.062,0.009,0.104,0.009,0.11l0.997-0.085c4.211,0,8.176-1.074,11.637-2.962
	c0.083-0.004,0.142-0.007,0.17-0.009l-0.005-0.086c0.891-0.495,1.747-1.045,2.564-1.644c0.047,0.012,0.082,0.02,0.101,0.024
	l0.027-0.115c1.604-1.19,3.058-2.571,4.326-4.11l0.203-0.034c-0.004-0.027-0.016-0.095-0.032-0.183
	c0.594-0.737,1.144-1.51,1.65-2.313L52.831,44.924z M12.731,43.311c-0.006-0.13-0.014-0.379-0.018-0.735
	c0.205,0.179,0.416,0.359,0.634,0.542c-0.093,0.279-0.175,0.538-0.252,0.785C12.971,43.708,12.85,43.51,12.731,43.311z
	 M44.182,13.206c-0.371,0.097-0.781,0.209-1.232,0.342c-0.246-0.293-0.487-0.574-0.725-0.844c0.724,0.021,1.172,0.058,1.269,0.066
	C43.727,12.911,43.955,13.057,44.182,13.206z M46.226,17.75c-0.092-0.062-0.186-0.122-0.278-0.184
	c-0.537-0.817-1.086-1.59-1.636-2.313c0.935-0.258,1.625-0.414,1.987-0.489c0.509,0.425,1,0.87,1.47,1.338
	C47.347,16.556,46.83,17.11,46.226,17.75z M53.688,37.459c-0.086,0.095-0.319,0.346-0.678,0.708
	c-0.015-0.296-0.032-0.599-0.054-0.907c0.317-0.159,0.612-0.311,0.883-0.452C53.79,37.026,53.742,37.245,53.688,37.459z
	 M12.918,38.043c0.289,0.143,0.573,0.285,0.885,0.432c0.167,0.619,0.355,1.226,0.561,1.82c-0.103,0.263-0.201,0.521-0.295,0.771
	c-0.47-0.406-0.902-0.798-1.292-1.164C12.81,39.333,12.854,38.712,12.918,38.043z M24.918,12.12
	c0.436,0.033,0.913,0.077,1.427,0.135c-0.21,0.414-0.427,0.853-0.648,1.316c-0.178,0.045-0.353,0.094-0.529,0.143
	c-0.441-0.19-0.864-0.365-1.266-0.525C24.261,12.797,24.602,12.441,24.918,12.12z M39.5,12.723c0.424,0.447,0.879,0.946,1.354,1.494
	c-0.193,0.066-0.387,0.134-0.587,0.206c-0.793-0.451-1.597-0.86-2.404-1.225c-0.06-0.123-0.119-0.243-0.178-0.362
	C38.331,12.782,38.936,12.746,39.5,12.723z M48.04,37.259c-0.564-1.412-1.227-2.896-1.996-4.398c1.005,0.075,1.947,0.149,2.818,0.22
	c-0.055,1.398-0.26,2.761-0.571,4.076C48.208,37.191,48.124,37.225,48.04,37.259z M47.062,40.425
	c-0.687,1.044-1.472,2.045-2.359,2.981c-0.586-0.688-1.23-1.44-1.91-2.23c1.443-0.396,2.808-0.841,4.076-1.302
	C46.935,40.061,46.998,40.243,47.062,40.425z M14.961,31.989c0.001-0.06,0.007-0.118,0.008-0.178
	c1.061-0.021,2.208-0.038,3.425-0.049c0.027,0.046,0.052,0.091,0.079,0.136c-1.082,1.789-1.996,3.563-2.759,5.22
	c-0.014-0.006-0.026-0.012-0.04-0.018c-0.102-0.233-0.204-0.466-0.298-0.7C15.09,34.977,14.936,33.501,14.961,31.989z
	 M36.846,15.805c-1.296,0.581-2.66,1.26-4.052,2.057c-0.085-0.058-0.171-0.117-0.256-0.174c0.042-1.021,0.085-1.975,0.127-2.852
	c1.384,0.072,2.733,0.304,4.041,0.65C36.752,15.59,36.799,15.699,36.846,15.805z M30.588,16.47
	c-0.838-0.496-1.658-0.946-2.451-1.354c0.827-0.141,1.669-0.234,2.525-0.277C30.638,15.358,30.613,15.902,30.588,16.47z
	 M38.656,25.501c-1.505,1.487-3.103,3.031-4.752,4.576c-0.328-0.018-0.657-0.034-0.987-0.051c-0.248-0.269-0.495-0.534-0.743-0.801
	c0.047-2.281,0.107-4.469,0.175-6.512c1.367,0.089,2.717,0.262,4.037,0.507C37.163,23.933,37.923,24.692,38.656,25.501z
	 M36.036,40.484c-1.261,0.155-2.546,0.247-3.842,0.262c-0.052-2.031-0.084-4.155-0.083-6.307c0.198-0.178,0.393-0.353,0.592-0.532
	c0.19-0.172,0.378-0.348,0.568-0.521c1.708,1.896,3.332,3.728,4.832,5.44C37.432,39.409,36.742,39.963,36.036,40.484z
	 M22.833,32.438c0.004-0.228,0.015-0.454,0.023-0.681c2.328,0.016,4.786,0.061,7.27,0.151c-0.007,0.547-0.012,1.094-0.015,1.64
	c-1.647,1.479-3.238,2.888-4.741,4.204c-0.902-0.942-1.729-1.92-2.491-2.912C22.838,34.05,22.82,33.25,22.833,32.438z M30.35,22.646
	c-0.048,1.438-0.092,2.947-0.13,4.511c-0.973-1.018-1.935-2.008-2.877-2.963c0.611-0.54,1.233-1.051,1.861-1.535
	C29.583,22.649,29.965,22.644,30.35,22.646z M24.474,24.144c-0.22,0.219-0.437,0.439-0.649,0.662
	c0.083-0.353,0.169-0.703,0.259-1.05C24.214,23.884,24.343,24.013,24.474,24.144z M25.884,25.564
	c1.364,1.382,2.772,2.839,4.186,4.342c-2.417-0.087-4.806-0.131-7.075-0.146c0.036-0.357,0.076-0.714,0.123-1.068
	C23.966,27.607,24.889,26.557,25.884,25.564z M23.864,39.069c-0.147,0.127-0.299,0.261-0.444,0.387
	c-0.062-0.346-0.119-0.693-0.172-1.046C23.449,38.631,23.656,38.85,23.864,39.069z M26.804,39.156
	c1.064-0.934,2.172-1.912,3.313-2.93c0.012,1.52,0.038,3.015,0.075,4.465c-0.594-0.03-1.183-0.071-1.763-0.13
	C27.876,40.112,27.334,39.643,26.804,39.156z M32.252,42.745c0.115-0.001,0.229-0.003,0.344-0.006
	c-0.113,0.066-0.225,0.134-0.337,0.198C32.257,42.874,32.254,42.809,32.252,42.745z M32.418,20.714
	c0.003-0.096,0.007-0.191,0.011-0.287c0.094-0.058,0.187-0.115,0.281-0.172c0.245,0.175,0.49,0.354,0.735,0.537
	C33.104,20.761,32.762,20.736,32.418,20.714z M30.471,19.292c-0.661,0.436-1.321,0.896-1.978,1.387
	c-1.235,0.055-2.436,0.169-3.6,0.325c0.518-1.588,1.088-3.073,1.662-4.42c1.244,0.615,2.574,1.342,3.936,2.19
	C30.484,18.944,30.478,19.118,30.471,19.292z M23.102,19.981c-0.49-0.477-0.959-0.931-1.411-1.366
	c0.825-0.674,1.689-1.273,2.58-1.805C23.868,17.807,23.473,18.868,23.102,19.981z M21.826,21.53
	c-1.316,0.273-2.563,0.595-3.726,0.939c0.626-0.884,1.326-1.725,2.105-2.509C20.721,20.457,21.259,20.977,21.826,21.53z
	 M22.063,23.537c-0.352,1.401-0.648,2.857-0.861,4.352c-0.472,0.617-0.921,1.24-1.349,1.866c-0.093,0.001-0.187,0.001-0.279,0.002
	c-0.943-1.715-1.71-3.379-2.327-4.903C18.7,24.37,20.318,23.911,22.063,23.537z M20.85,31.896c0,0.01,0,0.021-0.001,0.03
	c-0.003-0.005-0.006-0.01-0.009-0.015C20.843,31.907,20.847,31.901,20.85,31.896z M20.934,35.594
	c0.085,1.221,0.212,2.418,0.396,3.568c-1.333-0.39-2.59-0.819-3.745-1.269c0.603-1.305,1.297-2.679,2.097-4.072
	C20.077,34.414,20.495,35.005,20.934,35.594z M27.621,42.486c0.757,0.6,1.527,1.163,2.303,1.695c-1.62,0.807-3.215,1.487-4.71,2.056
	c-0.467-1.332-0.911-2.789-1.286-4.348C25.115,42.139,26.349,42.339,27.621,42.486z M36.791,42.409
	c1.025-0.137,2.033-0.31,3.015-0.513c-0.412,1.706-0.906,3.291-1.422,4.724c-1.429-0.652-2.949-1.422-4.487-2.313
	C34.871,43.724,35.839,43.092,36.791,42.409z M39.573,37.47c-1.475-1.684-3.067-3.48-4.742-5.34c2.12,0.115,4.158,0.24,6.073,0.367
	c0.019,1.281-0.04,2.536-0.154,3.761C40.372,36.667,39.979,37.072,39.573,37.47z M42.901,32.633c0.26,0.018,0.519,0.036,0.773,0.054
	c-0.255,0.352-0.519,0.703-0.79,1.054C42.891,33.373,42.904,33.006,42.901,32.633z M40.808,30.486
	c-1.331-0.087-2.72-0.174-4.152-0.257c1.135-1.081,2.238-2.152,3.297-3.198c0.18,0.226,0.355,0.452,0.528,0.681
	C40.625,28.625,40.735,29.55,40.808,30.486z M37.31,21.359c-0.887-0.792-1.788-1.524-2.691-2.202
	c1.032-0.558,2.043-1.051,3.016-1.487c0.509,1.266,1.005,2.633,1.451,4.08C38.501,21.608,37.909,21.478,37.31,21.359z
	 M17.292,29.775c-0.754,0.01-1.478,0.021-2.167,0.034c0.143-1.081,0.374-2.141,0.673-3.172
	C16.232,27.643,16.728,28.695,17.292,29.775z M17.1,39.872c1.3,0.498,2.721,0.968,4.234,1.386c-0.702,0.603-1.373,1.178-1.991,1.704
	C18.486,41.987,17.745,40.949,17.1,39.872z M22.173,43.172c0.281,1.084,0.593,2.104,0.917,3.077
	c-0.82-0.557-1.609-1.169-2.351-1.852C21.193,44.012,21.675,43.599,22.173,43.172z M30.384,46.208
	c0.038,0.864,0.078,1.691,0.118,2.476c-1.433-0.097-2.823-0.349-4.16-0.713C27.637,47.467,28.997,46.883,30.384,46.208z
	 M32.366,45.747c1.5,0.897,2.985,1.679,4.399,2.351c-1.381,0.345-2.805,0.565-4.258,0.619C32.458,47.786,32.41,46.792,32.366,45.747
	z M41.63,42.893c0.573,0.666,1.119,1.305,1.622,1.895c-0.875,0.751-1.808,1.41-2.779,1.988C40.89,45.575,41.282,44.273,41.63,42.893
	z M42.403,39.189c0.109-0.679,0.202-1.372,0.278-2.077c0.719-0.801,1.391-1.614,2.015-2.432c0.544,1.126,1.026,2.235,1.454,3.304
	C44.979,38.409,43.724,38.82,42.403,39.189z M47.254,30.947c0.464-0.756,0.891-1.501,1.283-2.227
	c0.145,0.772,0.243,1.557,0.295,2.351C48.329,31.031,47.802,30.99,47.254,30.947z M44.978,30.776
	c-0.023-0.002-0.046-0.003-0.069-0.005c-0.754-1.305-1.593-2.606-2.527-3.87c-0.109-0.648-0.234-1.289-0.371-1.921
	c0.071-0.071,0.146-0.146,0.216-0.216c1.822,0.615,3.521,1.311,5.046,2.01C46.625,28.046,45.864,29.398,44.978,30.776z
	 M41.368,22.372c-0.55-1.975-1.201-3.82-1.873-5.491c0.194-0.078,0.384-0.151,0.573-0.224c0.019,0.008,0.036,0.017,0.055,0.024
	c1.442,0.892,2.817,1.952,4.059,3.217c-0.767,0.798-1.603,1.658-2.499,2.57C41.578,22.436,41.473,22.404,41.368,22.372z
	 M53.296,29.981c0.423,0.261,0.77,0.482,1.036,0.656c0.018,0.301,0.026,0.604,0.031,0.907c-0.378-0.034-0.842-0.076-1.384-0.124
	C53.095,30.931,53.203,30.45,53.296,29.981z M47.341,24.586c-1.107-0.488-2.294-0.967-3.546-1.416
	c0.608-0.622,1.175-1.208,1.718-1.772c0.417,0.526,0.805,1.071,1.163,1.631C46.911,23.54,47.136,24.057,47.341,24.586z
	 M28.387,12.693c0.026-0.05,0.05-0.096,0.076-0.145c0.075,0.013,0.15,0.024,0.226,0.037C28.588,12.62,28.488,12.658,28.387,12.693z
	 M15.879,21.02c-0.047-0.153-0.093-0.305-0.136-0.449c0.19-0.135,0.387-0.27,0.586-0.405C16.177,20.447,16.025,20.731,15.879,21.02z
	 M36.676,50.746c-0.037,0.079-0.074,0.155-0.111,0.232c-0.136-0.019-0.275-0.039-0.414-0.06
	C36.327,50.861,36.501,50.807,36.676,50.746z M52.51,33.386c0.734,0.064,1.34,0.119,1.801,0.162
	c-0.018,0.251-0.035,0.503-0.061,0.752c-0.355,0.2-0.861,0.478-1.5,0.807C52.684,34.544,52.605,33.971,52.51,33.386z M53.662,27.85
	c0.03-0.207,0.059-0.411,0.085-0.611c0.066,0.079,0.124,0.149,0.169,0.204c0.042,0.208,0.076,0.419,0.113,0.629
	C53.912,28,53.789,27.926,53.662,27.85z M52.087,22.116c0,0.097,0,0.235-0.002,0.403c-0.179-0.173-0.362-0.349-0.553-0.526
	c0.071-0.201,0.136-0.392,0.198-0.573C51.853,21.649,51.972,21.881,52.087,22.116z M51.935,25.229
	c-0.043,0.475-0.099,0.988-0.169,1.536c-0.396-0.216-0.816-0.439-1.256-0.666c-0.102-0.249-0.211-0.496-0.32-0.743
	c0.202-0.456,0.388-0.894,0.56-1.313C51.182,24.461,51.58,24.861,51.935,25.229z M48.998,22.988c-0.15-0.262-0.31-0.521-0.471-0.777
	c-0.042-0.092-0.081-0.186-0.123-0.276c0.259,0.217,0.511,0.434,0.755,0.646C49.107,22.715,49.055,22.848,48.998,22.988z
	 M37.572,10.811c-0.292,0.024-0.59,0.052-0.895,0.083c-0.181-0.332-0.351-0.636-0.509-0.915c0.225,0.043,0.449,0.089,0.672,0.138
	l-0.02,0.024C36.838,10.156,37.117,10.391,37.572,10.811z M34.534,11.17c-0.51,0.08-1.032,0.174-1.562,0.279
	c-0.045-0.012-0.09-0.023-0.135-0.035c0.041-0.746,0.075-1.352,0.102-1.808c0.237,0.011,0.472,0.026,0.707,0.044
	C33.858,9.997,34.164,10.51,34.534,11.17z M30.86,10.934c-0.466-0.101-0.923-0.192-1.367-0.272c0.234-0.407,0.434-0.741,0.586-0.99
	c0.284-0.024,0.568-0.048,0.855-0.061C30.914,9.969,30.889,10.415,30.86,10.934z M27.367,10.335
	c-0.171-0.021-0.341-0.043-0.506-0.063c0.078-0.067,0.121-0.104,0.14-0.12c0.18-0.041,0.357-0.085,0.539-0.122
	C27.483,10.13,27.427,10.23,27.367,10.335z M22.199,12.016c0.002,0,0.02,0,0.031,0c-0.123,0.134-0.248,0.272-0.375,0.414
	c-0.167-0.058-0.326-0.111-0.477-0.16c0.268-0.146,0.541-0.284,0.815-0.418L22.199,12.016z M20.446,14.079
	c-0.491,0.604-0.99,1.253-1.487,1.938c-0.502-0.472-0.931-0.871-1.301-1.215c0.47-0.393,0.958-0.765,1.458-1.119
	C19.234,13.712,19.707,13.839,20.446,14.079z M17.252,17.157c-0.733,0.437-1.422,0.882-2.069,1.324
	c-0.142-0.599-0.207-0.948-0.21-0.968l-0.047,0.009c0.399-0.472,0.814-0.93,1.25-1.367C16.483,16.439,16.842,16.773,17.252,17.157z
	 M13.427,19.747c-0.109,0.083-0.213,0.165-0.319,0.247c0.09-0.143,0.18-0.286,0.273-0.426
	C13.396,19.626,13.411,19.686,13.427,19.747z M10.866,24.627c0.028-0.028,0.06-0.061,0.095-0.096
	c0.007,0.22,0.017,0.445,0.028,0.678c-0.131,0.063-0.258,0.125-0.379,0.185C10.689,25.136,10.777,24.881,10.866,24.627z
	 M12.955,22.722c0.325-0.273,0.683-0.565,1.069-0.87c0.172,0.556,0.372,1.158,0.599,1.795c-0.585,0.224-1.136,0.446-1.646,0.662
	C12.957,23.72,12.952,23.191,12.955,22.722z M13.751,26.171c-0.192,0.443-0.371,0.89-0.54,1.336
	c-0.041-0.361-0.077-0.716-0.106-1.058C13.312,26.358,13.528,26.265,13.751,26.171z M11.877,31.889
	c-0.245,1.032-0.441,2.039-0.596,3.001c-0.767-0.44-1.288-0.772-1.563-0.953c-0.057-0.652-0.092-1.31-0.092-1.976
	c0.618-0.023,1.374-0.05,2.25-0.075C11.876,31.887,11.877,31.888,11.877,31.889z M10.99,37.036
	c-0.037,0.331-0.069,0.652-0.098,0.966c-0.38-0.413-0.592-0.667-0.605-0.684l-0.006,0.005c-0.065-0.264-0.128-0.529-0.184-0.797
	C10.366,36.684,10.664,36.854,10.99,37.036z M14.575,45.97c0.104-0.374,0.254-0.888,0.456-1.52c0.44,0.331,0.899,0.662,1.378,0.99
	c-0.543,0.455-0.993,0.83-1.34,1.119C14.901,46.366,14.736,46.17,14.575,45.97z M17.643,47.016c0.285,0.452,0.572,0.889,0.861,1.309
	c-0.57,0.139-1.04,0.242-1.393,0.315c-0.227-0.202-0.449-0.411-0.667-0.623C16.768,47.749,17.167,47.416,17.643,47.016z
	 M19.784,50.08c0.153,0.198,0.304,0.391,0.454,0.579c-0.249-0.02-0.446-0.038-0.582-0.053c-0.178-0.118-0.353-0.24-0.527-0.363
	C19.337,50.192,19.554,50.138,19.784,50.08z M24.835,52.785c0.313-0.009,0.632-0.02,0.962-0.034c0.148,0.29,0.293,0.572,0.426,0.821
	c-0.273-0.073-0.546-0.149-0.815-0.232C25.27,53.209,25.077,53.025,24.835,52.785z M22.965,50.776
	c-0.339-0.391-0.698-0.819-1.067-1.282c0.43-0.128,0.88-0.268,1.346-0.419c0.342,0.131,0.689,0.255,1.04,0.373
	c0.19,0.46,0.378,0.896,0.565,1.311C24.17,50.779,23.542,50.782,22.965,50.776z M26.975,50.569c0.052,0.021,0.105,0.041,0.157,0.062
	c-0.042,0.004-0.083,0.007-0.124,0.01C26.997,50.617,26.986,50.592,26.975,50.569z M32.717,52.347
	c0.996,0.221,1.959,0.396,2.884,0.536c-0.304,0.563-0.551,0.987-0.712,1.256c-0.671,0.087-1.351,0.145-2.04,0.171
	C32.81,53.757,32.765,53.099,32.717,52.347z M37.729,53.158c0.282,0.029,0.545,0.05,0.813,0.072
	c-0.073,0.069-0.136,0.129-0.187,0.177c-0.293,0.087-0.588,0.171-0.886,0.246C37.552,53.5,37.641,53.327,37.729,53.158z
	 M40.375,51.333c-0.518-0.026-1.086-0.065-1.691-0.119c0.227-0.49,0.459-1.022,0.694-1.582c0.14-0.066,0.28-0.132,0.419-0.2
	c0.579,0.235,1.136,0.451,1.661,0.646C41.077,50.537,40.712,50.958,40.375,51.333z M42.326,48.247
	c0.292-0.134,0.582-0.271,0.867-0.413c-0.141,0.197-0.282,0.388-0.422,0.575C42.625,48.356,42.479,48.303,42.326,48.247z
	 M45.735,47.726c0.367,0.437,0.67,0.801,0.928,1.109c-0.238,0.207-0.479,0.409-0.726,0.605c-0.316-0.091-0.703-0.206-1.148-0.348
	C45.104,48.658,45.42,48.201,45.735,47.726z M46.847,45.941c0.058-0.1,0.117-0.197,0.175-0.298c0.466-0.304,0.916-0.609,1.349-0.916
	c0.205,0.785,0.358,1.442,0.467,1.94c-0.235,0.269-0.476,0.531-0.723,0.788C47.776,47.049,47.352,46.542,46.847,45.941z
	 M49.309,40.757c0.036-0.096,0.068-0.194,0.103-0.291c0.404-0.679,0.771-1.367,1.109-2.061c0.156-0.069,0.308-0.137,0.458-0.205
	c0.034,0.64,0.054,1.251,0.062,1.821c-0.464,0.41-0.982,0.852-1.549,1.31C49.432,41.142,49.373,40.953,49.309,40.757z
	 M50.335,19.158c-0.083,0.293-0.226,0.769-0.433,1.385c-0.633-0.538-1.311-1.082-2.031-1.622c0.475-0.506,0.897-0.956,1.253-1.34
	C49.551,18.087,49.954,18.615,50.335,19.158z M9.986,27.985c0.248-0.139,0.643-0.353,1.168-0.617c0.081,0.804,0.191,1.65,0.337,2.53
	c-0.669,0.02-1.263,0.04-1.771,0.059C9.779,29.291,9.87,28.633,9.986,27.985z M28.826,54.103c-0.189-0.316-0.484-0.826-0.847-1.511
	c0.877-0.084,1.789-0.198,2.727-0.351c0.049,0.785,0.096,1.477,0.137,2.061C30.162,54.267,29.49,54.198,28.826,54.103z
	 M43.08,51.383c-0.025,0-0.047,0.001-0.074,0.001c0.16-0.191,0.323-0.39,0.488-0.595c0.128,0.042,0.253,0.083,0.375,0.122
	C43.609,51.074,43.346,51.231,43.08,51.383z M50.11,43.432c0.306-0.24,0.604-0.478,0.886-0.71c-0.022,0.458-0.048,0.846-0.072,1.151
	c-0.162,0.256-0.327,0.51-0.499,0.759C50.332,44.261,50.228,43.861,50.11,43.432z"/>
</svg>
