<?xml version="1.0" encoding="utf-8"?>
<!-- Generator: Adobe Illustrator 16.0.0, SVG Export Plug-In . SVG Version: 6.00 Build 0)  -->
<!DOCTYPE svg PUBLIC "-//W3C//DTD SVG 1.1//EN" "http://www.w3.org/Graphics/SVG/1.1/DTD/svg11.dtd">
<svg version="1.1" id="Layer_1" xmlns="http://www.w3.org/2000/svg" xmlns:xlink="http://www.w3.org/1999/xlink" x="0px" y="0px"
	 width="64px" height="64px" viewBox="0 0 64 64" enable-background="new 0 0 64 64" xml:space="preserve">
<g>
	<path d="M54.52,16.656c-0.223-0.115-5.512-2.853-11.709-2.853c-5.385,0-9.646,2.063-10.828,2.696
		c-1.244-0.6-5.971-2.696-11.395-2.696c-6.223,0-10.955,2.761-11.152,2.878l-0.527,0.313v33.123l1.289-0.399
		c0.061-0.017,6.145-1.871,11.215-1.871c4.223,0,8.443,1.293,9.719,1.718l0.828,0.296l0.91-0.271
		c1.482-0.421,6.479-1.742,10.764-1.742c5.029,0,10.068,1.836,10.121,1.855l1.338,0.494V16.956L54.52,16.656z M30.844,47.184
		c-1.918-0.582-5.627-1.532-9.432-1.532c-3.953,0-8.35,1.025-10.479,1.592V18.327c1.336-0.675,5.084-2.329,9.654-2.329
		c4.6,0,8.771,1.688,10.256,2.362V47.184z M53.066,47.184c-1.918-0.582-5.627-1.532-9.434-1.532c-3.953,0-8.348,1.025-10.479,1.592
		V18.327c1.34-0.675,5.086-2.329,9.656-2.329c4.6,0,8.773,1.688,10.256,2.362V47.184z"/>
	<path d="M39.104,25.125l0.195,0.105l0.367,0.077l0.029,0.142l0.584,0.021l-0.08-0.184l-0.518-0.015l0.121-0.111l-0.043-0.134
		h-0.469l0.512-0.376h0.49l0.23,0.312l0.383,0.021l0.23-0.219l0.174,0.085l-0.318,0.304c0,0-0.439,0.008-0.416,0.008
		c0.02,0,0.035,0.296,0.035,0.296l0.533-0.015l0.057-0.141l0.369-0.021l0.041-0.211l-0.215-0.036l0.072-0.19l0.164-0.05l0.578,0.028
		l-0.318,0.283l0.051,0.218l0.332,0.049l-0.021-0.395l0.318-0.163l0.563-0.063l0.814,0.354v0.303l0.26,0.063l-0.131,0.24h-0.367
		l-0.109,0.276l-0.84-0.194l0.66-0.345l-0.252-0.211l-0.568,0.071l-0.051,0.051l-0.002-0.001l-0.01,0.012l-0.164,0.167l-0.27,0.023
		l0.02,0.132l0.096,0.038l-0.004,0.044l-0.221,0.03l-0.016,0.126l-0.211,0.01l-0.039-0.248l-0.377,0.112l-0.773,0.443l0.088,0.313
		l0.215,0.138l0.432,0.058v0.481l0.201-0.031l0.184-0.377l0.461-0.142v-0.578l0.256-0.188l0.617,0.142l-0.043,0.383h0.166
		l0.455-0.219l0.021,0.501l0.33,0.197l-0.014,0.297l-0.316,0.105l0.02,0.099l0.383,0.17l-0.008,0.206l-0.109,0.009
		c-0.002-0.003-0.002-0.006-0.002-0.006l-0.482-0.146l-0.02-0.151l0.141-0.095v-0.138l-0.152-0.038l-0.037,0.128l-0.268,0.04
		l-0.025-0.009v0.014l-0.092,0.013l-0.076-0.147l-0.086-0.038h-0.189l-0.086,0.069v0.153l0.162,0.054l0.16,0.021L42.83,27.55
		l-0.146,0.159l-0.064-0.08l-0.141-0.037l-0.385,0.354l0.051,0.04l-0.566,0.309l-0.535,0.544l-0.035,0.241l-0.537,0.345
		l-0.264,0.262l0.029,0.522l-0.367-0.169l0.002-0.305h-1.023L38.318,30l-0.23,0.415l-0.092,0.33l0.148,0.319l0.418,0.05l0.664-0.436
		l0.059,0.216l-0.203,0.375l0.504,0.084l0.051,0.765l0.693,0.115l0.439-0.498l0.533,0.106l0.188,0.255l0.512-0.029l0.016-0.148
		l0.281,0.134l0.316,0.488l0.549,0.007l0.201,0.346l0.029,0.424l0.604,0.227l0.766,0.007l0.225,0.359l0.338,0.106l-0.064,0.297
		l-0.371,0.462l-0.109,1.023l-0.336,0.26l-0.496-0.014l-0.166,0.281l0.121,0.53l-0.539,0.679l-0.174,0.311l-0.516,0.242l-0.338,0.05
		l-0.016,0.142l0.238,0.066l-0.029,0.152l-0.213,0.201l0.129,0.16l0.258,0.007l-0.014,0.194l-0.068,0.19l-0.021,0.155l0.377,0.313
		l-0.049,0.162l-0.518-0.01L41.9,39.432l-0.4-0.688l0.055-0.666l-0.303-0.396l0.123-0.671l-0.18-0.05v-1.454
		c0,0-0.506-0.375-0.533-0.375c-0.031,0-0.268-0.063-0.268-0.063l-0.051-0.274l-0.656-0.806l0.064-0.29l0.021-0.474l0.455-0.311
		l-0.064-0.53L39.5,32.335l-0.52-0.579l-0.367-0.099l-0.238-0.043l0.029-0.212l-0.303-0.043v0.121l-0.758-0.184l-0.305-0.457
		l0.125-0.221l-0.48-0.687l-0.082-0.5h-0.193l0.064,0.486l0.332,0.502l-0.037,0.198l-0.281-0.043L36.141,30v-0.672l-0.361-0.171
		v-0.483c-0.443,1.022-0.691,2.146-0.691,3.326c0,4.687,3.893,8.5,8.676,8.5c2.713,0,5.137-1.228,6.729-3.142h-0.285v-0.566
		l-0.332-0.437v-0.679l-0.252-0.247l-0.021-0.282l0.32-0.601l-0.609-1.053l0.072-0.715l-0.547-0.055l-0.203-0.198h-0.367
		l-0.188,0.169h-0.648l-0.023,0.057h-0.359l-0.828-0.924l0.008-0.722l0.135-0.05l0.053-0.274h-0.195l-0.08-0.29l0.959-0.678v-0.48
		l0.469-0.255l0.189,0.019h0.387l0.303-0.16l0.975-0.073v0.487l0.768,0.19l0.15,0.106h0.141v-0.266l0.443-0.042l0.424,0.308h0.689
		l0.051-0.044c-0.07-0.229-0.148-0.453-0.236-0.674L51.4,28.937l-0.227-0.242l-0.045-0.393l-0.23,0.125l-0.125,0.479l-0.336-0.35
		l-0.014-0.331l-0.322-0.272l-0.121-0.116h-0.375l0.119,0.327l0.451,0.248l0.078,0.08l-0.098,0.049l0.004,0.26l-0.221,0.09
		l-0.188-0.04l-0.117-0.164l0.305,0.017l0.084-0.109l-0.678-0.447l-0.053-0.191l-0.275,0.244l-0.277-0.056l-0.426,0.54l-0.082,0.212
		l-0.273,0.024l-0.4,0.003l-0.242-0.11l-0.068-0.467l0.086-0.224l0.408-0.088l0.445,0.088l0.055-0.241l-0.189-0.044l0.064-0.377
		l0.449-0.068l0.314-0.435l0.322-0.054l0.293,0.043h0.109l-0.061-0.408l-0.354,0.142l-0.127-0.305l-0.207-0.029l-0.037-0.209
		l0.168-0.179l0.4-0.154l0.102-0.18c-1.529-1.319-3.533-2.124-5.727-2.124c-1.904,0-3.664,0.605-5.098,1.628L39.104,25.125z
		 M42.572,28.086l-0.18,0.016l0.01-0.124l0.08-0.098l0.109,0.083L42.572,28.086z M43.207,27.87l-0.125,0.011l-0.023,0.116
		l-0.094,0.058l-0.154,0.014c-0.004-0.035-0.008-0.063-0.008-0.063h-0.061V27.88h0.25l0.051-0.131l0.1-0.002l0.111,0.023
		L43.207,27.87z M47.756,26.511l0.078-0.121l0.285-0.056l0.072,0.34l0.152,0.24l0.1,0.112l0.184,0.07l-0.172,0.202l-0.336,0.031
		h-0.252l0.027-0.293l0.211-0.042l-0.018-0.138l-0.195-0.12l-0.137-0.092V26.511z M47.287,27.042l0.174-0.273l0.232-0.052
		l0.166,0.069l-0.014,0.185l-0.357,0.247h-0.201V27.042z"/>
	<path d="M15.219,25.882l0.143,0.012l0.342-0.347l0.377,0.014l0.502,0.074l0.314,0.16l3.375,0.175l0.926,0.394l-0.131,0.111
		l-0.686-0.111l-0.012,0.133l0.252,0.173l-0.328,0.065v0.197l-0.674,0.044l0.512,0.48l0.086,0.394l-0.229,0.12l-0.719-0.59v-0.273
		l0.174-0.273l-0.129-0.164l-0.785,0.525l-0.619-0.056l-0.207-0.152l-0.262,0.372l0.119,0.239l0.904,0.109l0.363,0.415l-0.092,0.121
		l-0.283-0.285l-0.129,0.143l0.221,0.293l-0.047,0.55l-0.582-0.001l-0.027,0.444l0.488,0.299l0.172,0.226l-0.258,0.069l-0.914-0.699
		h-0.295l0.012,0.568l0.664,0.699l0.051,0.507l-0.334,0.279l-0.762,0.273l0.076,0.284l-0.139,0.099l-0.156-0.24l0.021-0.186
		l-0.271-0.088l-0.152,0.207l0.021,0.395l0.537,0.433l0.053,0.328l-0.324,0.217l-0.246-0.026l-0.443-0.504l-0.088,0.35l0.838,1.202
		l-0.055,0.175l-1.033-0.994v-1.006l-0.783-0.698l-0.625-0.061l-0.354,0.133l-0.221,0.474l-0.115,0.879l-0.213,0.309l-0.213-0.049
		l-0.58-0.959c0.148,4.564,3.877,8.219,8.459,8.219c3.289,0,6.137-1.882,7.539-4.631l-0.625-0.787l0.064-0.299l0.021-0.487
		l0.457-0.321L28.1,33.428l-0.668-0.051l-0.523-0.598l-0.369-0.102l-0.24-0.044l0.029-0.219l-0.305-0.044v0.124l-0.762-0.189
		l-0.307-0.471l0.125-0.229L24.598,30.9l-0.084-0.517h-0.195l0.066,0.502l0.332,0.518l-0.035,0.204l-0.283-0.044l-0.348-0.597
		v-0.692l-0.363-0.176v-0.771l0.674-0.823l-0.043-0.492l0.188-0.135l-0.225-0.211l0.014-0.372l-0.268-0.24h-0.748l-0.123,0.132
		l-0.893-0.008L21.938,26.9l0.254-0.182h0.652v-0.122l-0.305-0.046l0.197-0.152l0.428-0.066l0.639-0.437h1.104l0.602,0.183
		l0.203,0.116l0.182,0.015l0.27-0.263l0.484-0.004c-1.529-1.51-3.625-2.442-5.939-2.442c-2.199,0-4.201,0.842-5.707,2.222
		L15.219,25.882z M13.525,33.453l-0.33,0.123l-0.09-0.247l0.191-0.271l0.266,0.053L13.525,33.453z M18.584,35.325l0.016-0.101
		l0.199-0.029l0.018,0.154l-0.123-0.014v0.09H18.52v0.077h-0.17v-0.153h0.012L18.584,35.325z M18.449,35.251l-0.115-0.035v-0.079
		h0.146L18.449,35.251z M18.387,34.23l0.004,0.709l-0.158,0.016v-0.241l-0.152-0.055l0.027,0.339h-0.195v-0.531h0.096l-0.006-0.087
		L18.387,34.23z M18.26,35.168v0.083l-0.078,0.013v0.085h-0.109v0.068l-0.16,0.016v-0.084l0.104-0.098l0.07-0.083H18.26z
		 M16.703,33.979l0.76-0.414l0.102-0.09l0.084-0.227h0.131l0.043,0.224l0.09,0.038v0.72l-0.09,0.059v0.096l-0.145,0.132
		l-0.082,0.207h-0.639l-0.254-0.336V33.979z M17.822,35.251v0.098h-0.174v-0.098H17.822z M16.053,35.033h0.201V34.96l-0.152-0.051
		l-1.066-1.312l0.184-0.146l0.748,0.676l-0.01,0.11l0.16,0.212l0.58-0.008l0.021,0.27l-0.211,0.022l-0.086-0.037l0.021,0.292
		l0.537-0.015l0.436,0.276l-1.314-0.057L16.053,35.033z M20.088,39.439l-0.305,0.168l-0.379-0.041l0.355-0.395l0.334,0.036
		L20.088,39.439z M22.299,38.941l0.254-0.175l0.035-0.558l0.289-0.018l0.006,0.356l0.156-0.031l0.107,0.191l-0.291,0.166
		l-0.289,0.129l-0.271,0.179l-0.957,0.59l-0.395,0.061v-0.181l0.127-0.105l0.756-0.539L22.299,38.941z M21.617,37.458l-0.254,0.581
		l-1.029,0.973l-1.07-0.037l-0.348-0.77l-0.941,0.038l-1.162,0.4v-0.212l0.24-0.232l0.029-1.194l0.398-0.277l0.359-0.004
		l0.674-0.772l0.426-0.032v0.16h0.146l0.355-0.507h0.494l0.422,0.254L20.16,36.02l-0.234-0.048l0.016,0.318l0.123,0.075l0.443,0.033
		l0.094-0.805l0.232,0.011l0.258,0.443l0.029,0.642l0.393,0.337L21.617,37.458z M21.307,35.332h0.195V35.5h-0.393v-0.415
		l-0.225,0.021l-0.211,0.226l-0.58,0.037l-0.008-0.27h0.176l-0.008-0.132l-0.27-0.142l-0.479-0.069l-0.221-0.273l0.33-0.331
		l0.232,0.139l-0.02,0.254l0.244-0.007l0.262-0.139l0.936,0.427L21.307,35.332z"/>
	<polygon points="28.383,28.725 28.094,28.725 27.893,28.944 27.859,29.162 28.012,29.245 	"/>
	<polygon points="28.703,28.446 28.703,28.654 28.883,28.611 	"/>
	<polygon points="28.492,28.654 28.611,28.654 28.611,28.474 28.535,28.474 28.535,28.371 28.365,28.371 28.191,28.371 
		27.941,28.474 27.893,28.599 28.088,28.654 	"/>
	<polygon points="27.762,28.037 27.832,27.758 27.625,27.708 27.396,27.818 27.539,28.108 	"/>
	<path d="M29.133,28.863c-0.02-0.047-0.037-0.095-0.057-0.143l-0.057,0.062l0.105,0.089L29.133,28.863z"/>
	<path d="M29.248,29.185c-0.023-0.066-0.043-0.133-0.066-0.198l-0.238-0.07h-0.021v0.158l0.076,0.11H29.248z"/>
	<polygon points="26.592,26.386 26.592,26.562 27.021,26.562 27.111,26.442 27.111,26.441 27.111,26.305 26.994,26.305 
		26.799,26.305 26.781,26.371 26.592,26.371 	"/>
	<path d="M28.557,28.81c0,0.086,0,0.205,0,0.205L28.631,29l0.088-0.016l0.133-0.085v-0.175h-0.295
		C28.557,28.735,28.557,28.769,28.557,28.81z"/>
	<polygon points="28.584,29.102 28.557,29.167 28.426,29.179 28.383,29.371 28.66,29.371 28.734,29.294 28.785,29.245 
		28.785,29.075 28.666,29.091 	"/>
	<path d="M26.592,26.9l0.082,0.099l0.43-0.027c0,0,0.016-0.19,0-0.19c-0.018,0-0.207,0.032-0.207,0.032L26.592,26.9z"/>
</g>
</svg>
