<?xml version="1.0" encoding="utf-8"?>
<!-- Generator: Adobe Illustrator 16.0.0, SVG Export Plug-In . SVG Version: 6.00 Build 0)  -->
<!DOCTYPE svg PUBLIC "-//W3C//DTD SVG 1.1//EN" "http://www.w3.org/Graphics/SVG/1.1/DTD/svg11.dtd">
<svg version="1.1" id="Layer_1" xmlns="http://www.w3.org/2000/svg" xmlns:xlink="http://www.w3.org/1999/xlink" x="0px" y="0px"
	 width="64px" height="64px" viewBox="0 0 64 64" enable-background="new 0 0 64 64" xml:space="preserve">
<g>
	<path d="M43.615,10.247c-4.293,0-8.303,2.107-10.727,5.637l-0.886,1.291l-0.889-1.291c-2.426-3.529-6.437-5.637-10.729-5.637
		c-7.204,0-13.066,5.863-13.066,13.069c0,7.529,12.29,20.232,23.792,29.611l0.893,0.825l0.829-0.776
		c11.559-9.396,23.848-22.083,23.848-29.66C56.681,16.11,50.819,10.247,43.615,10.247z M32.707,48.731l-0.704,0.609l-0.705-0.609
		c-9.584-8.29-20.774-19.92-20.774-25.415c0-5.438,4.424-9.862,9.862-9.862c4.643,0,8.614,3.319,9.61,7.71h4.007
		c0.999-4.391,4.971-7.71,9.612-7.71c5.438,0,9.862,4.424,9.862,9.862C53.478,28.79,42.289,40.428,32.707,48.731z"/>
	<path d="M42.052,31.956c-0.094-0.972-0.326-1.901-0.675-2.775h0.01l-0.031-0.172L41.3,28.986c-0.464-1.096-1.115-2.092-1.912-2.953
		c-0.052-0.057-0.104-0.111-0.158-0.167c-0.151-0.156-0.305-0.309-0.465-0.455c-1.812-1.65-4.219-2.657-6.856-2.657
		c-2.659,0-5.084,1.025-6.9,2.7c-0.423,0.39-0.813,0.815-1.165,1.273c-1.331,1.721-2.127,3.879-2.127,6.219
		c0,5.62,4.573,10.192,10.192,10.192c3.953,0,7.386-2.264,9.075-5.562c0.361-0.705,0.643-1.457,0.833-2.244
		c0.048-0.2,0.089-0.401,0.125-0.604c0.103-0.58,0.159-1.174,0.159-1.782c0-0.035-0.002-0.069-0.003-0.104
		C42.095,32.543,42.08,32.248,42.052,31.956z M40.181,28.768l0.059-0.065c0.077,0.149,0.15,0.303,0.219,0.457l-0.097-0.002
		l-0.181,0.023V28.768z M38.707,26.99l0.002-0.456c0.159,0.169,0.314,0.345,0.462,0.525l-0.184,0.273l-0.643-0.006l-0.04-0.134
		L38.707,26.99z M26.412,25.858v-0.017h0.204l0.018-0.07h0.334v0.146l-0.096,0.128h-0.46V25.858z M26.738,26.313
		c0,0,0.204-0.034,0.222-0.034s0,0.203,0,0.203l-0.46,0.029l-0.088-0.106L26.738,26.313z M40.829,30.358h-0.745l-0.455-0.339
		l-0.478,0.047v0.292h-0.152l-0.163-0.116l-0.828-0.21v-0.536l-1.05,0.081l-0.326,0.175h-0.417l-0.204-0.02l-0.506,0.28v0.529
		l-1.034,0.745l0.086,0.32h0.21l-0.055,0.303l-0.147,0.054l-0.008,0.794l0.894,1.018h0.389l0.023-0.063h0.699l0.202-0.187h0.396
		l0.218,0.218l0.591,0.062l-0.078,0.785l0.656,1.159l-0.345,0.66l0.022,0.312l0.273,0.271v0.749l0.356,0.479v0.622h0.309
		c-1.717,2.108-4.33,3.458-7.255,3.458c-5.158,0-9.354-4.196-9.354-9.354c0-1.298,0.267-2.536,0.746-3.661v-0.291l0.335-0.405
		c0.116-0.221,0.241-0.434,0.373-0.642l0.015,0.169l-0.388,0.473l-0.335,0.696v0.533l0.39,0.187v0.74l0.372,0.636l0.304,0.047
		l0.038-0.218l-0.356-0.552l-0.07-0.537h0.21l0.088,0.554l0.518,0.753l-0.134,0.244l0.328,0.501l0.816,0.203v-0.132l0.326,0.047
		l-0.03,0.232l0.257,0.048l0.396,0.107l0.561,0.638l0.714,0.055l0.07,0.582l-0.489,0.342l-0.022,0.522l-0.07,0.318l0.707,0.886
		l0.055,0.304c0,0,0.256,0.068,0.287,0.068s0.575,0.413,0.575,0.413v1.601l0.194,0.056L29.2,39.201l0.327,0.435l-0.06,0.733
		l0.431,0.757l0.554,0.483l0.557,0.011l0.055-0.178l-0.409-0.346l0.023-0.171l0.073-0.209l0.017-0.215l-0.277-0.008l-0.14-0.176
		l0.23-0.221l0.03-0.167l-0.256-0.073l0.015-0.154l0.366-0.057l0.556-0.267l0.187-0.342l0.583-0.746l-0.133-0.585l0.18-0.311
		l0.536,0.018l0.361-0.287l0.116-1.125l0.4-0.509l0.07-0.327l-0.365-0.116l-0.241-0.396l-0.824-0.008l-0.652-0.249l-0.031-0.466
		l-0.218-0.382l-0.591-0.007l-0.342-0.537l-0.304-0.147l-0.016,0.163l-0.552,0.033l-0.201-0.282l-0.575-0.115l-0.475,0.547
		l-0.746-0.127l-0.054-0.841l-0.545-0.093l0.218-0.412l-0.063-0.238l-0.716,0.479l-0.45-0.055l-0.16-0.352l0.098-0.362l0.249-0.458
		l0.571-0.289l1.103-0.001l-0.003,0.336l0.397,0.186l-0.031-0.574l0.285-0.288l0.576-0.38l0.04-0.266l0.575-0.598l0.611-0.339
		l-0.054-0.045l0.414-0.39l0.152,0.039l0.068,0.088l0.158-0.175l0.038-0.017l-0.172-0.024l-0.176-0.058v-0.169l0.093-0.075h0.205
		l0.094,0.04l0.081,0.163l0.099-0.015V27.88l0.028,0.011l0.287-0.045l0.041-0.139l0.163,0.04v0.15l-0.152,0.106h0.001l0.021,0.166
		l0.521,0.16c0,0,0,0.003,0,0.006l0.12-0.009l0.008-0.227l-0.412-0.188l-0.023-0.107l0.343-0.116l0.015-0.327l-0.357-0.218
		l-0.022-0.552l-0.49,0.24h-0.179l0.047-0.419l-0.667-0.158l-0.275,0.208v0.637l-0.496,0.157l-0.198,0.414l-0.216,0.035v-0.53
		l-0.466-0.065l-0.233-0.152l-0.094-0.343l0.834-0.487l0.408-0.126l0.041,0.276l0.228-0.014l0.018-0.137l0.237-0.035l0.004-0.047
		l-0.103-0.044l-0.022-0.145l0.292-0.024l0.177-0.185l0.01-0.013l0.002,0.001l0.054-0.056l0.614-0.077l0.271,0.23l-0.712,0.379
		l0.906,0.214l0.117-0.303h0.396l0.141-0.264l-0.28-0.071v-0.333l-0.879-0.39l-0.605,0.07l-0.343,0.179l0.023,0.436l-0.357-0.055
		l-0.056-0.24l0.343-0.312l-0.621-0.032l-0.179,0.056l-0.078,0.21l0.232,0.039l-0.046,0.232l-0.396,0.023l-0.063,0.155l-0.574,0.016
		c0,0-0.017-0.325-0.039-0.325c-0.023,0,0.45-0.009,0.45-0.009l0.343-0.335l-0.188-0.092l-0.248,0.24l-0.412-0.023l-0.249-0.343
		h-0.529l-0.552,0.413h0.506l0.046,0.148l-0.131,0.123l0.56,0.016l0.085,0.203l-0.63-0.023l-0.03-0.156l-0.396-0.085l-0.211-0.117
		l-0.472,0.005c1.545-1.127,3.443-1.791,5.496-1.791c2.365,0,4.527,0.883,6.176,2.335l-0.111,0.2l-0.432,0.168l-0.182,0.198
		l0.042,0.229l0.223,0.031l0.135,0.336l0.384-0.156l0.063,0.449H38.09l-0.315-0.046l-0.35,0.058l-0.338,0.478l-0.484,0.077
		l-0.07,0.414l0.205,0.048l-0.059,0.267l-0.481-0.096l-0.44,0.096l-0.093,0.245l0.076,0.515l0.259,0.121l0.434-0.003l0.293-0.025
		l0.089-0.233l0.458-0.596l0.301,0.062l0.297-0.268l0.056,0.208l0.73,0.493l-0.089,0.12l-0.329-0.018l0.126,0.181l0.203,0.044
		l0.237-0.1L38.8,29.14l0.105-0.052l-0.084-0.091l-0.487-0.271l-0.129-0.36h0.406l0.128,0.128l0.35,0.301l0.015,0.363l0.361,0.384
		l0.134-0.526l0.251-0.137l0.047,0.431l0.245,0.269l0.487-0.008c0.095,0.243,0.179,0.489,0.254,0.742L40.829,30.358z M27.275,27.385
		l0.245-0.116l0.221,0.053l-0.076,0.297l-0.238,0.077L27.275,27.385z M28.575,28.085v0.192h-0.56l-0.21-0.058l0.053-0.135
		l0.268-0.111h0.367v0.111H28.575z M28.832,28.354v0.186l-0.141,0.091l-0.175,0.033c0,0,0-0.28,0-0.31H28.832z M28.674,28.277
		v-0.222l0.192,0.175L28.674,28.277z M28.762,28.726v0.182l-0.134,0.134h-0.297l0.046-0.203l0.14-0.012l0.03-0.071L28.762,28.726z
		 M28.021,28.354h0.31l-0.397,0.554l-0.163-0.087l0.035-0.234L28.021,28.354z M29.286,28.663v0.181h-0.298l-0.08-0.118v-0.167h0.022
		L29.286,28.663z M29.013,28.413l0.084-0.089l0.144,0.089l-0.115,0.096L29.013,28.413z M40.98,30.831l0.029-0.035
		c0.013,0.054,0.025,0.106,0.037,0.16L40.98,30.831z"/>
	<polygon points="36.57,27.288 36.59,27.44 36.363,27.486 36.333,27.81 36.604,27.81 36.966,27.774 37.152,27.553 36.954,27.475 
		36.846,27.351 36.683,27.087 36.604,26.713 36.298,26.775 36.212,26.907 36.212,27.056 36.359,27.156 	"/>
	<polygon points="36.309,27.413 36.325,27.212 36.146,27.133 35.894,27.191 35.707,27.49 35.707,27.686 35.925,27.686 	"/>
	<path d="M31.132,28.271l-0.056,0.143h-0.268v0.138h0.063c0,0,0.004,0.029,0.01,0.068l0.163-0.014l0.104-0.063l0.026-0.13
		l0.133-0.011l0.053-0.109l-0.122-0.025L31.132,28.271z"/>
	<polygon points="30.44,28.522 30.43,28.657 30.625,28.641 30.645,28.505 30.528,28.413 	"/>
</g>
</svg>
