<?xml version="1.0" encoding="utf-8"?>
<!-- Generator: Adobe Illustrator 16.0.0, SVG Export Plug-In . SVG Version: 6.00 Build 0)  -->
<!DOCTYPE svg PUBLIC "-//W3C//DTD SVG 1.1//EN" "http://www.w3.org/Graphics/SVG/1.1/DTD/svg11.dtd">
<svg version="1.1" id="Layer_1" xmlns="http://www.w3.org/2000/svg" xmlns:xlink="http://www.w3.org/1999/xlink" x="0px" y="0px"
	 width="64px" height="64px" viewBox="0 0 64 64" enable-background="new 0 0 64 64" xml:space="preserve">
<g>
	<path d="M54.374,32c0-1.76-0.211-3.471-0.597-5.113c-4.881,4.611-12.771,7.615-21.66,7.615c-9.008,0-16.986-3.086-21.852-7.801
		C9.852,28.4,9.626,30.174,9.626,32c0,0.432,0.015,0.861,0.04,1.287c5.291,4.375,13.387,7.182,22.451,7.182
		c8.92,0,16.906-2.717,22.201-6.973C54.352,33,54.374,32.504,54.374,32z"/>
	<path d="M15.79,47.398c4.079,4.291,9.835,6.975,16.209,6.975c6.018,0,11.483-2.393,15.51-6.27
		c-4.491,1.553-9.556,2.434-14.916,2.434C26.467,50.537,20.728,49.389,15.79,47.398z"/>
	<path d="M53.973,36.199c-5.589,3.869-13.322,6.27-21.855,6.27c-8.674,0-16.516-2.482-22.125-6.465
		c0.524,2.893,1.605,5.59,3.13,7.982c5.351,2.844,12.116,4.551,19.471,4.551c6.562,0,12.655-1.357,17.693-3.668
		C52.086,42.318,53.367,39.377,53.973,36.199z"/>
	<path d="M10.905,24.553c4.358,4.762,12.236,7.949,21.212,7.949c8.861,0,16.647-3.109,21.038-7.77
		c-0.528-1.535-1.216-2.998-2.05-4.363c-3.878,4.135-10.598,6.877-18.228,6.877c-8.325,0-15.569-3.264-19.217-8.039
		C12.516,20.844,11.584,22.637,10.905,24.553z"/>
	<path d="M44.277,13.311c-3.527-2.326-7.746-3.684-12.278-3.684c-4.048,0-7.846,1.086-11.125,2.975
		c2.2,2.887,6.747,4.879,12.004,4.879C37.691,17.48,41.909,15.809,44.277,13.311z"/>
	<path d="M19.204,13.662c-1.591,1.113-3.03,2.428-4.282,3.906c3.106,4.521,9.978,7.678,17.956,7.678
		c7.304,0,13.679-2.646,17.089-6.561c-1.172-1.578-2.549-2.994-4.088-4.215c-2.739,3.006-7.537,5.01-13.001,5.01
		C26.936,19.48,21.777,17.113,19.204,13.662z"/>
</g>
</svg>
