<?xml version="1.0" encoding="utf-8"?>
<!-- Generator: Adobe Illustrator 16.0.0, SVG Export Plug-In . SVG Version: 6.00 Build 0)  -->
<!DOCTYPE svg PUBLIC "-//W3C//DTD SVG 1.1//EN" "http://www.w3.org/Graphics/SVG/1.1/DTD/svg11.dtd">
<svg version="1.1" id="Layer_1" xmlns="http://www.w3.org/2000/svg" xmlns:xlink="http://www.w3.org/1999/xlink" x="0px" y="0px"
	 width="64px" height="64px" viewBox="0 0 64 64" enable-background="new 0 0 64 64" xml:space="preserve">
<g>
	<path d="M56.802,31.534c-0.033-2.177-0.359-4.282-0.945-6.281c-0.217-0.737-0.467-1.459-0.75-2.165
		c-0.576-1.434-1.289-2.799-2.123-4.078c-0.377-0.581-0.779-1.143-1.205-1.687c-1.168-1.492-2.508-2.839-3.994-4.015
		c-0.508-0.4-1.031-0.785-1.57-1.146c-3.756-2.501-8.26-3.962-13.1-3.962c-0.041,0-0.867-0.075-1.322-0.075l-0.133,47.491
		l1.377-0.028c0.025,0,0.053,0.003,0.078,0.003c7.83,0,14.783-3.819,19.1-9.689c0.754-1.027,1.426-2.117,2.01-3.261
		c1.311-2.563,2.172-5.391,2.469-8.384c0.078-0.775,0.119-1.564,0.119-2.36C56.812,31.775,56.804,31.654,56.802,31.534z
		 M53.683,24.831c-0.748,0.793-1.604,1.537-2.541,2.231c-0.391-1.594-0.941-3.12-1.592-4.564c0.783-0.595,1.504-1.23,2.139-1.908
		C52.499,21.917,53.169,23.338,53.683,24.831z M42.882,23.863c-0.479-1.938-1.064-3.77-1.693-5.445
		c1.01-0.392,1.938-0.867,2.789-1.404c1.078,1.44,2.156,3.078,3.088,4.867C45.815,22.659,44.411,23.328,42.882,23.863z
		 M47.899,23.619c0.641,1.459,1.162,3.002,1.502,4.6c-1.627,0.983-3.455,1.821-5.439,2.481c-0.109-1.689-0.338-3.345-0.656-4.941
		C44.974,25.186,46.515,24.463,47.899,23.619z M43.173,40.882c1.92-0.468,3.748-1.065,5.469-1.778
		c-0.961,2.82-2.377,5.353-3.816,7.457c-1.146,0.302-2.332,0.552-3.541,0.76C41.989,45.434,42.667,43.271,43.173,40.882z
		 M43.556,38.809c0.307-1.931,0.48-3.979,0.469-6.102c2.061-0.65,3.973-1.482,5.701-2.463c0.059,0.545,0.102,1.092,0.109,1.646
		c0.029,1.671-0.172,3.292-0.527,4.848C47.53,37.571,45.601,38.267,43.556,38.809z M46.608,14.855
		c1.496,1.188,2.834,2.563,3.975,4.097c-0.553,0.634-1.191,1.229-1.895,1.788c-0.951-1.799-2.031-3.442-3.115-4.89
		C45.944,15.533,46.292,15.202,46.608,14.855z M45.052,13.727c-0.203,0.213-0.436,0.412-0.664,0.612
		c-0.592-0.72-1.166-1.374-1.705-1.958C43.501,12.784,44.296,13.229,45.052,13.727z M38.257,10.771
		c0.516,0.45,2.418,2.158,4.535,4.733c-0.705,0.428-1.475,0.809-2.309,1.125c-1.055-2.535-2.137-4.609-2.934-6.017
		C37.786,10.662,38.021,10.714,38.257,10.771z M34.339,10.191c0.246,0.014,0.49,0.028,0.732,0.051
		c0.654,1.069,2.107,3.588,3.525,6.969c-1.439,0.361-2.994,0.569-4.629,0.569c-0.002,0-0.004,0-0.006,0
		C34.112,14.245,34.261,11.554,34.339,10.191z M33.882,19.723c0.029,0,0.059,0.002,0.086,0.002c1.889,0,3.688-0.256,5.35-0.703
		c0.629,1.666,1.217,3.489,1.689,5.413c-2.18,0.573-4.551,0.896-7.039,0.896c-0.092,0-0.182-0.005-0.273-0.006
		C33.751,23.332,33.815,21.448,33.882,19.723z M33.563,31.179c0.02-1.334,0.049-2.641,0.08-3.911
		c0.107,0.001,0.215,0.008,0.324,0.008c2.627,0,5.137-0.341,7.457-0.95c0.314,1.602,0.539,3.259,0.625,4.942
		c-2.641,0.692-5.506,1.084-8.502,1.11C33.552,31.978,33.556,31.578,33.563,31.179z M33.538,34.322
		c2.998-0.025,5.873-0.4,8.549-1.07c-0.025,2.104-0.25,4.133-0.6,6.043c-2.496,0.514-5.139,0.802-7.875,0.827
		C33.565,38.248,33.538,36.297,33.538,34.322z M33.665,42.059c2.559-0.025,5.031-0.283,7.396-0.726
		c-0.559,2.369-1.283,4.504-2.008,6.312c-1.672,0.2-3.387,0.314-5.141,0.322C33.821,46.196,33.735,44.198,33.665,42.059z
		 M36.257,53.395c-0.658,0.097-1.326,0.161-2.002,0.196c-0.066-0.936-0.148-2.188-0.236-3.681c1.41-0.008,2.797-0.084,4.156-0.215
		C37.341,51.52,36.608,52.809,36.257,53.395z M39.722,52.605c-0.307,0.099-0.617,0.183-0.93,0.268
		c0.475-0.889,1.057-2.056,1.656-3.455c0.877-0.129,1.744-0.272,2.59-0.449C41.556,50.816,40.267,52.092,39.722,52.605z
		 M44.345,50.486c0.561-0.682,1.148-1.441,1.742-2.276c0.713-0.204,1.418-0.42,2.105-0.657
		C47.03,48.672,45.731,49.645,44.345,50.486z M50.894,44.407c-1.006,0.462-2.064,0.872-3.15,1.251
		c1.326-2.234,2.523-4.815,3.266-7.646c1.223-0.625,2.396-1.291,3.469-2.033C53.888,39.068,52.642,41.928,50.894,44.407z
		 M54.812,33.351c-1.002,0.807-2.107,1.554-3.297,2.239c0.188-1.211,0.287-2.455,0.266-3.731c-0.016-0.931-0.102-1.844-0.234-2.742
		c0.992-0.68,1.914-1.409,2.74-2.191c0.375,1.598,0.58,3.262,0.58,4.973C54.866,32.386,54.845,32.869,54.812,33.351z"/>
	<g>
		<path d="M18.433,15.835c-0.402-0.262-0.793-0.392-1.176-0.392c-0.586,0-1.004,0.309-1.258,0.925h2.283l-0.371,0.896h-2.074
			c-0.008,0.033-0.01,0.067-0.01,0.101s0,0.07,0,0.11c0,0.047,0,0.091,0,0.132c0,0.033,0.002,0.066,0.01,0.1h1.902l-0.371,0.896
			h-1.35c0.248,0.604,0.691,0.905,1.328,0.905c0.422,0,0.889-0.168,1.398-0.502v1.871c-0.463,0.208-1.016,0.312-1.66,0.312
			c-0.805,0-1.49-0.231-2.053-0.694c-0.557-0.476-0.939-1.105-1.148-1.892h-0.783l0.373-0.896h0.279
			c-0.006-0.027-0.008-0.057-0.008-0.091c0-0.04,0-0.083,0-0.13s0-0.088,0-0.121c0-0.04,0.002-0.074,0.008-0.101h-0.674l0.373-0.896
			h0.432c0.215-0.805,0.605-1.438,1.168-1.901c0.578-0.477,1.268-0.714,2.074-0.714c0.637,0,1.311,0.187,2.021,0.563L18.433,15.835z
			"/>
	</g>
	<g>
		<path d="M14.819,49.096c-0.529,0-0.98-0.071-1.354-0.217c-0.373-0.144-0.678-0.334-0.916-0.572s-0.414-0.512-0.527-0.82
			c-0.115-0.309-0.18-0.628-0.191-0.956h2.152c0,0.087,0.008,0.185,0.025,0.292c0.016,0.107,0.055,0.21,0.111,0.307
			c0.057,0.098,0.139,0.182,0.246,0.251c0.107,0.071,0.258,0.113,0.453,0.127v-1.42c-0.135-0.04-0.273-0.078-0.418-0.115
			c-0.145-0.036-0.293-0.082-0.447-0.136c-0.275-0.094-0.527-0.193-0.754-0.297c-0.23-0.104-0.424-0.228-0.584-0.373
			c-0.162-0.144-0.285-0.314-0.373-0.513s-0.131-0.44-0.131-0.729c0-0.409,0.082-0.764,0.246-1.062s0.375-0.544,0.635-0.735
			c0.258-0.19,0.547-0.331,0.869-0.422s0.641-0.136,0.957-0.136v-0.805h0.523v0.805c0.348,0,0.684,0.045,1.006,0.136
			s0.605,0.231,0.85,0.422c0.246,0.191,0.441,0.436,0.584,0.729c0.145,0.296,0.217,0.648,0.217,1.058h-1.922
			c-0.014-0.127-0.035-0.235-0.064-0.322c-0.031-0.087-0.074-0.158-0.133-0.212c-0.057-0.054-0.129-0.097-0.215-0.13
			c-0.088-0.034-0.195-0.063-0.322-0.091v1.127c0.65,0.141,1.168,0.297,1.555,0.468c0.385,0.171,0.682,0.359,0.885,0.564
			c0.205,0.204,0.338,0.428,0.398,0.669s0.09,0.503,0.09,0.784c0,0.275-0.051,0.55-0.156,0.825
			c-0.104,0.275-0.273,0.523-0.508,0.745c-0.234,0.221-0.539,0.402-0.91,0.543c-0.373,0.142-0.824,0.211-1.354,0.211v0.997h-0.523
			V49.096z M14.819,43.159c-0.182,0-0.346,0.027-0.492,0.081c-0.148,0.053-0.223,0.181-0.223,0.382c0,0.269,0.238,0.448,0.715,0.543
			V43.159z M15.343,47.507c0.234-0.021,0.432-0.079,0.594-0.177c0.16-0.097,0.242-0.242,0.242-0.438
			c0-0.173-0.074-0.306-0.223-0.396c-0.148-0.092-0.352-0.18-0.613-0.267V47.507z"/>
	</g>
	<g>
		<path d="M22.837,21.866v-0.681h-1.98v0.681h-0.914l-0.057,6.571h9.664l0.055-6.571H22.837z M23.386,27.827
			c-1.441,0-2.611-1.17-2.611-2.614s1.17-2.613,2.611-2.613c1.445,0,2.615,1.169,2.615,2.613S24.831,27.827,23.386,27.827z
			 M28.499,23.23h-0.838c-0.25,0-0.453-0.202-0.453-0.45c0-0.252,0.203-0.454,0.453-0.454h0.838c0.25,0,0.453,0.202,0.453,0.454
			C28.952,23.028,28.749,23.23,28.499,23.23z"/>
		<circle cx="23.358" cy="25.213" r="1.798"/>
	</g>
	<g>
		<path d="M25.636,44.021c1.486,0,2.693-1.209,2.693-2.694c0-1.484-1.207-2.693-2.693-2.693s-2.693,1.209-2.693,2.693
			C22.942,42.813,24.149,44.021,25.636,44.021z"/>
		<path d="M29.665,48.169c-0.504-1.184-1.006-2.368-1.512-3.554c-0.096-0.226-0.27-0.31-0.451-0.3v-0.003H23.7v0.006
			c-0.141,0.015-0.271,0.099-0.348,0.281c-0.473,1.115-0.945,2.231-1.418,3.349c-0.27,0.637,0.664,1.191,0.938,0.548
			c0.275-0.654,0.553-1.308,0.828-1.962v2.425c0,0.003,0,0.006,0,0.009c0,2.039,0,4.078,0,6.119c0,1.049,1.627,1.049,1.627,0
			c0-1.626,0-3.252,0-4.879h0.748c0,1.627,0,3.253,0,4.879c0,1.049,1.627,1.049,1.627,0c0-1.626,0-3.252,0-4.879
			c0-0.413,0-0.827,0-1.24v-2.483c0.322,0.756,0.645,1.511,0.965,2.266C28.958,49.431,29.954,48.844,29.665,48.169z"/>
	</g>
	<path d="M24.358,37.921v-5.729h-8.945v5.729h3.65v0.37h-1.908v0.305h5.346v-0.305h-1.869v-0.37H24.358z M16.067,37.078v-4.233
		h7.637v4.233H16.067z"/>
	<path d="M24.327,9.069v9.367h5.568V9.069H24.327z M27.235,9.456c0.074,0,0.133,0.061,0.133,0.135c0,0.075-0.059,0.135-0.133,0.135
		s-0.135-0.06-0.135-0.135C27.101,9.517,27.161,9.456,27.235,9.456z M26.435,9.906h1.602v0.13h-1.602V9.906z M27.183,18.032
		c-0.178,0-0.322-0.145-0.322-0.321s0.145-0.32,0.322-0.32s0.32,0.144,0.32,0.32S27.36,18.032,27.183,18.032z M29.001,16.929
		c-1.445,0.008-3.064,0.014-3.781,0.008v-6.44l3.781-0.002V16.929z"/>
	<g>
		<path d="M12.384,24.25v-0.896h-1.863v0.905c-1.904,0.433-3.332,2.142-3.332,4.175c0,2.362,1.922,4.284,4.285,4.284
			c2.361,0,4.281-1.922,4.281-4.284C15.755,26.386,14.31,24.669,12.384,24.25z M11.474,32.003c-1.969,0-3.568-1.601-3.568-3.568
			c0-1.966,1.6-3.566,3.568-3.566c1.967,0,3.566,1.601,3.566,3.566C15.04,30.402,13.44,32.003,11.474,32.003z"/>
		<path d="M13.157,28.222c-0.029-0.314-0.148-0.603-0.326-0.843l0.756-1.348l-1.293,0.873c-0.199-0.111-0.422-0.188-0.66-0.21
			l-0.186-1.134l-0.188,1.14c-0.801,0.103-1.426,0.767-1.471,1.583l-1.133,0.186l1.152,0.189c0.039,0.221,0.121,0.425,0.232,0.606
			L9.159,30.84l1.48-0.998c0.197,0.111,0.414,0.189,0.65,0.215l0.186,1.12l0.182-1.12c0.775-0.084,1.393-0.693,1.492-1.462
			l1.141-0.187L13.157,28.222z M10.149,28.388c0-0.731,0.592-1.323,1.324-1.323c0.16,0,0.314,0.031,0.457,0.084l-1.109,0.748
			l-0.023,0.023l-0.547,0.975C10.188,28.736,10.149,28.568,10.149,28.388z M10.942,28.038l2.105-1.421l-1.242,2.215L9.7,30.252
			L10.942,28.038z M11.474,29.711c-0.176,0-0.342-0.036-0.496-0.099l0.945-0.639l0.025-0.022l0.676-1.206
			c0.107,0.19,0.172,0.409,0.172,0.643C12.796,29.119,12.204,29.711,11.474,29.711z"/>
		<circle cx="11.405" cy="28.388" r="0.292"/>
	</g>
</g>
</svg>
