<?xml version="1.0" encoding="utf-8"?>
<!-- Generator: Adobe Illustrator 16.0.0, SVG Export Plug-In . SVG Version: 6.00 Build 0)  -->
<!DOCTYPE svg PUBLIC "-//W3C//DTD SVG 1.1//EN" "http://www.w3.org/Graphics/SVG/1.1/DTD/svg11.dtd">
<svg version="1.1" id="Layer_1" xmlns="http://www.w3.org/2000/svg" xmlns:xlink="http://www.w3.org/1999/xlink" x="0px" y="0px"
	 width="64px" height="64px" viewBox="0 0 64 64" enable-background="new 0 0 64 64" xml:space="preserve">
<g>
	<path d="M41.44,38.972l0.166,3.554l-7.525-6.842l6.773-7.731l0.299,4.183c5.167-0.703,10.352-1.436,13.579-2
		c-0.95-11.73-10.765-20.957-22.741-20.957c-11.894,0-21.657,9.099-22.722,20.715c2.979,0.585,8.94,1.432,14.89,2.242l0.299-4.183
		l6.773,7.731l-7.525,6.842l0.166-3.554c-5.45-0.706-10.932-2.176-14.389-3.208c1.795,10.813,11.187,19.059,22.508,19.059
		c11.18,0,20.475-8.039,22.436-18.65C50.987,37.154,46.206,38.354,41.44,38.972z"/>
	<path fill="#FFFFFF" d="M31.991,55.072c-11.331,0-20.9-8.104-22.754-19.268l-0.065-0.396l0.383,0.115
		c3.619,1.08,9.046,2.513,14.35,3.199l0.229,0.029l-0.149,3.182l6.898-6.271l-6.217-7.097l-0.275,3.852l-0.264-0.036
		c-5.28-0.72-11.746-1.625-14.904-2.245L9,30.095l0.021-0.225C10.114,17.931,19.989,8.928,31.991,8.928
		c11.93,0,22.028,9.307,22.99,21.187L55,30.342l-0.225,0.039c-3.52,0.615-9.44,1.438-13.589,2.002l-0.264,0.035l-0.275-3.851
		l-6.217,7.097l6.898,6.271l-0.149-3.182l0.229-0.029c3.854-0.499,8.211-1.438,12.95-2.792l0.388-0.111l-0.073,0.397
		C52.653,47.143,43.114,55.072,31.991,55.072z M9.8,36.118c1.971,10.718,11.239,18.454,22.191,18.454
		c10.747,0,19.981-7.566,22.113-18.049c-4.52,1.274-8.689,2.171-12.404,2.666l0.185,3.927l-8.153-7.413l7.329-8.366l0.323,4.515
		c4.038-0.551,9.622-1.327,13.08-1.924c-1.051-11.514-10.878-20.5-22.473-20.5c-11.666,0-21.278,8.694-22.451,20.263
		c3.165,0.605,9.288,1.465,14.389,2.16l0.323-4.514l7.329,8.366l-8.153,7.413l0.185-3.927C18.534,38.512,13.375,37.173,9.8,36.118z"
		/>
</g>
</svg>
