<?xml version="1.0" encoding="utf-8"?>
<!-- Generator: Adobe Illustrator 16.0.0, SVG Export Plug-In . SVG Version: 6.00 Build 0)  -->
<!DOCTYPE svg PUBLIC "-//W3C//DTD SVG 1.1//EN" "http://www.w3.org/Graphics/SVG/1.1/DTD/svg11.dtd">
<svg version="1.1" id="Layer_1" xmlns="http://www.w3.org/2000/svg" xmlns:xlink="http://www.w3.org/1999/xlink" x="0px" y="0px"
	 width="64px" height="64px" viewBox="0 0 64 64" enable-background="new 0 0 64 64" xml:space="preserve">
<path fill="none" d="M44.839,34.139c-0.838-0.549-1.815-1.031-2.9-1.436c-0.8,2.377-1.97,4.349-3.375,5.691
	C41.038,37.582,43.199,36.088,44.839,34.139z"/>
<path fill="none" d="M45.567,17.316c-0.953,0.638-2.056,1.192-3.279,1.646c0.406,1.49,0.667,3.113,0.767,4.816
	c1.89,0.194,3.559,0.435,5.004,0.686C47.907,21.813,47.009,19.362,45.567,17.316z"/>
<path fill="none" d="M34.891,39.024c2.507-0.388,4.67-2.982,5.897-6.701c-1.772-0.525-3.772-0.842-5.897-0.895V39.024z"/>
<path fill="none" d="M46.169,32.261c-0.978-0.16-2.073-0.314-3.281-0.45c0.978,0.405,1.892,0.859,2.68,1.388
	C45.782,32.896,45.98,32.581,46.169,32.261z"/>
<path fill="none" d="M34.891,23.346c2.527,0.017,4.846,0.134,6.925,0.314c-0.1-1.524-0.336-2.974-0.688-4.308
	c-1.885,0.571-3.999,0.913-6.237,0.967V23.346z"/>
<path fill="none" d="M21.983,16.574c0.229-0.324,0.469-0.639,0.723-0.943c2.747-3.296,6.87-5.403,11.479-5.431
	c0.018,0,0.035-0.001,0.052-0.001c0.004,0,0.009,0,0.014,0c0.007,0,0.015,0,0.022,0c4.645,0,8.804,2.114,11.568,5.43
	c0.254,0.306,0.493,0.62,0.723,0.945c1.638,2.311,2.632,5.104,2.744,8.118c1.275,0.247,2.333,0.491,3.145,0.7
	c-0.011-10.209-8.319-18.511-18.53-18.511c-10.052,0-18.242,8.049-18.506,18.038c0.875-0.167,2.172-0.392,3.836-0.618
	C19.434,21.437,20.416,18.785,21.983,16.574z"/>
<path fill="none" d="M44.841,16.372c-1.64-1.946-3.804-3.443-6.277-4.254c1.405,1.342,2.573,3.315,3.373,5.689
	C43.023,17.406,44.002,16.923,44.841,16.372z"/>
<path fill="none" d="M34.891,11.487v7.596c2.124-0.051,4.124-0.369,5.895-0.893C39.558,14.472,37.398,11.875,34.891,11.487z"/>
<path fill="none" d="M29.872,38.356c-1.384-1.336-2.535-3.285-3.329-5.628c-1.059,0.396-2.013,0.872-2.836,1.41
	C25.322,36.059,27.444,37.537,29.872,38.356z"/>
<path fill="none" d="M33.655,11.479c-2.534,0.348-4.72,2.95-5.961,6.693c1.787,0.535,3.812,0.86,5.961,0.911V11.479z"/>
<path fill="none" d="M46.564,33.938c-0.23,0.325-0.469,0.641-0.723,0.944c-2.764,3.317-6.924,5.432-11.568,5.432
	c-0.008,0-0.015-0.002-0.022-0.002c-0.004,0-0.009,0.002-0.014,0.002c-0.017,0-0.034-0.002-0.052-0.002
	c-4.609-0.026-8.732-2.136-11.479-5.43c-0.253-0.305-0.494-0.621-0.723-0.944c-0.4-0.565-0.758-1.162-1.08-1.78
	c-1.79,0.23-3.141,0.462-3.977,0.62c2.855,6.563,9.395,11.166,16.996,11.166c7.432,0,13.839-4.408,16.789-10.738
	c-0.737-0.194-1.833-0.455-3.25-0.72C47.187,32.986,46.893,33.475,46.564,33.938z"/>
<path fill="none" d="M20.501,24.142c1.428-0.175,3.075-0.342,4.923-0.479c0.105-1.671,0.369-3.262,0.77-4.725
	c-1.197-0.449-2.28-0.998-3.215-1.623C21.594,19.278,20.706,21.614,20.501,24.142z"/>
<path fill="none" d="M33.655,20.319c-2.266-0.054-4.403-0.404-6.304-0.987c-0.347,1.315-0.585,2.742-0.688,4.245
	c2.107-0.133,4.446-0.221,6.993-0.233V20.319z"/>
<path fill="none" d="M29.872,12.155c-2.428,0.819-4.552,2.297-6.169,4.216c0.824,0.54,1.78,1.019,2.842,1.414
	C27.338,15.442,28.488,13.492,29.872,12.155z"/>
<path fill="none" d="M26.041,31.642c-1.401,0.104-2.679,0.227-3.813,0.355c0.232,0.412,0.479,0.815,0.75,1.2
	C23.872,32.601,24.907,32.08,26.041,31.642z"/>
<path fill="none" d="M33.655,39.033v-7.604c-2.151,0.053-4.176,0.378-5.964,0.914C28.932,36.086,31.12,38.688,33.655,39.033z"/>
<g>
	<path d="M39.588,34.464l-1.684-0.107l-0.05,0.781l1.684,0.107c0.195,0.014,0.332-0.016,0.409-0.084
		c0.077-0.07,0.119-0.162,0.126-0.273c0.007-0.107-0.023-0.201-0.09-0.283C39.916,34.522,39.784,34.476,39.588,34.464z"/>
	<path d="M32,10.132c-12.059,0-21.868,9.81-21.868,21.868S19.941,53.868,32,53.868c12.058,0,21.868-9.81,21.868-21.868
		S44.058,10.132,32,10.132z M32,13.469c10.211,0,18.519,8.302,18.53,18.511c-0.812-0.209-1.87-0.453-3.145-0.7
		c-0.112-3.014-1.106-5.808-2.744-8.118c-0.23-0.325-0.469-0.64-0.723-0.945c-2.764-3.315-6.924-5.43-11.568-5.43
		c-0.008,0-0.015,0-0.022,0c-0.004,0-0.009,0-0.014,0c-0.017,0-0.034,0.001-0.052,0.001c-4.609,0.027-8.732,2.135-11.479,5.431
		c-0.253,0.305-0.494,0.619-0.723,0.943c-1.567,2.211-2.549,4.862-2.73,7.728c-1.664,0.227-2.96,0.451-3.836,0.618
		C13.758,21.518,21.948,13.469,32,13.469z M25.771,24.759c1.242-3.743,3.427-6.346,5.961-6.693v7.604
		C29.583,25.619,27.558,25.294,25.771,24.759z M31.732,26.906v3.024c-2.546,0.013-4.886,0.101-6.993,0.233
		c0.103-1.503,0.342-2.93,0.688-4.245C27.329,26.502,29.466,26.853,31.732,26.906z M24.622,24.372
		c-1.062-0.396-2.018-0.874-2.842-1.414c1.617-1.919,3.741-3.396,6.169-4.216C26.564,20.079,25.415,22.029,24.622,24.372z
		 M24.271,25.525c-0.401,1.463-0.665,3.054-0.77,4.725c-1.848,0.137-3.495,0.304-4.923,0.479c0.205-2.527,1.093-4.863,2.477-6.826
		C21.991,24.527,23.073,25.076,24.271,25.525z M24.419,31.491l0.266,3.645l3.051-0.223l0.098,1.34l-5.02,0.366l-0.363-4.984
		L24.419,31.491z M24.118,38.229c-1.134,0.438-2.169,0.959-3.063,1.556c-0.271-0.385-0.518-0.788-0.75-1.2
		C21.439,38.455,22.717,38.333,24.118,38.229z M24.62,39.315c0.793,2.343,1.944,4.292,3.329,5.628
		c-2.428-0.819-4.55-2.298-6.165-4.218C22.607,40.188,23.561,39.712,24.62,39.315z M25.768,38.93
		c1.788-0.536,3.813-0.861,5.964-0.914v7.604C29.197,45.274,27.008,42.673,25.768,38.93z M31.582,36.354
		c-0.201,0-0.423-0.006-0.668-0.018c-0.245-0.012-0.495-0.044-0.749-0.098s-0.501-0.137-0.742-0.249
		c-0.241-0.111-0.453-0.267-0.637-0.465s-0.333-0.447-0.448-0.746c-0.115-0.298-0.172-0.665-0.172-1.099
		c0-0.43,0.057-0.795,0.172-1.096c0.114-0.301,0.263-0.551,0.448-0.749s0.396-0.354,0.637-0.465c0.24-0.112,0.487-0.195,0.742-0.249
		s0.504-0.086,0.749-0.098c0.245-0.012,0.468-0.018,0.668-0.018s0.424,0.006,0.668,0.018c0.245,0.012,0.495,0.044,0.749,0.098
		s0.502,0.137,0.742,0.249c0.24,0.111,0.453,0.267,0.637,0.465c0.184,0.198,0.333,0.448,0.448,0.749s0.171,0.666,0.171,1.096
		s-0.057,0.795-0.171,1.096s-0.264,0.551-0.448,0.749c-0.185,0.198-0.397,0.354-0.637,0.465c-0.24,0.112-0.488,0.195-0.742,0.249
		s-0.504,0.086-0.749,0.098C32.005,36.348,31.782,36.354,31.582,36.354z M38.862,24.777c-1.771,0.523-3.771,0.842-5.895,0.893
		v-7.596C35.475,18.462,37.634,21.059,38.862,24.777z M36.641,18.705c2.474,0.811,4.638,2.308,6.277,4.254
		c-0.839,0.551-1.818,1.034-2.905,1.436C39.213,22.021,38.046,20.047,36.641,18.705z M39.205,25.939
		c0.351,1.334,0.588,2.783,0.688,4.308c-2.079-0.181-4.398-0.298-6.925-0.314v-3.026C35.207,26.853,37.32,26.511,39.205,25.939z
		 M32.968,38.016c2.125,0.053,4.125,0.369,5.897,0.895c-1.228,3.719-3.39,6.313-5.897,6.701V38.016z M40.016,39.29
		c1.084,0.404,2.062,0.887,2.9,1.436c-1.64,1.949-3.801,3.443-6.275,4.256C38.046,43.639,39.216,41.667,40.016,39.29z
		 M40.965,38.397c1.208,0.136,2.303,0.29,3.281,0.45c-0.189,0.32-0.387,0.635-0.601,0.938
		C42.857,39.257,41.943,38.803,40.965,38.397z M42.03,35.669c-0.078,0.193-0.199,0.355-0.361,0.488
		c-0.163,0.133-0.371,0.229-0.625,0.291c-0.254,0.061-0.563,0.078-0.927,0.055l-4.268-0.271l0.319-4.988l4.485,0.287
		c0.517,0.033,0.885,0.162,1.104,0.389c0.219,0.229,0.316,0.543,0.29,0.949c-0.015,0.223-0.077,0.42-0.188,0.586
		c-0.112,0.17-0.267,0.285-0.468,0.346l0,0.016c0.155,0.053,0.285,0.125,0.389,0.221c0.104,0.096,0.186,0.201,0.246,0.314
		c0.061,0.113,0.102,0.229,0.122,0.344c0.021,0.115,0.028,0.219,0.022,0.313C42.154,35.255,42.107,35.476,42.03,35.669z
		 M41.131,30.365c-0.1-1.703-0.361-3.326-0.767-4.816c1.223-0.453,2.327-1.008,3.279-1.646c1.442,2.046,2.34,4.497,2.492,7.147
		C44.69,30.8,43.021,30.56,41.131,30.365z M14.953,34.256c0.05-0.285,0.139-0.539,0.266-0.762c0.128-0.222,0.285-0.413,0.474-0.572
		c0.189-0.16,0.397-0.297,0.627-0.408c0.229-0.111,0.469-0.202,0.72-0.272s0.501-0.124,0.751-0.161
		c0.545-0.081,1.024-0.114,1.439-0.098s0.771,0.08,1.068,0.191c0.298,0.112,0.539,0.273,0.724,0.487
		c0.186,0.214,0.319,0.476,0.404,0.79l-2.202,0.326c-0.047-0.125-0.109-0.223-0.188-0.294c-0.078-0.07-0.168-0.122-0.268-0.155
		c-0.099-0.032-0.205-0.048-0.318-0.048s-0.234,0.011-0.364,0.029c-0.202,0.03-0.38,0.082-0.531,0.157
		c-0.152,0.074-0.276,0.176-0.372,0.306c-0.097,0.131-0.161,0.289-0.194,0.476c-0.034,0.187-0.032,0.404,0.005,0.653
		c0.138,0.932,0.692,1.327,1.661,1.183c0.318-0.047,0.555-0.138,0.709-0.274c0.155-0.137,0.252-0.306,0.293-0.511l-0.804,0.119
		l-0.167-1.121l2.777-0.412l0.418,2.817l-0.838,0.124l-0.288-0.417c-0.108,0.13-0.23,0.246-0.366,0.349s-0.29,0.19-0.462,0.267
		c-0.173,0.074-0.37,0.141-0.591,0.197c-0.221,0.056-0.472,0.104-0.753,0.146c-0.226,0.034-0.466,0.058-0.718,0.072
		c-0.253,0.014-0.504,0.004-0.755-0.03c-0.25-0.033-0.493-0.095-0.728-0.183c-0.234-0.086-0.447-0.217-0.638-0.385
		c-0.19-0.171-0.354-0.388-0.493-0.649c-0.138-0.263-0.235-0.586-0.292-0.968C14.905,34.865,14.903,34.542,14.953,34.256z
		 M32,50.531c-7.602,0-14.141-4.604-16.996-11.166c0.835-0.158,2.187-0.39,3.977-0.62c0.321,0.618,0.679,1.215,1.08,1.78
		c0.229,0.323,0.469,0.64,0.723,0.944c2.747,3.294,6.87,5.403,11.479,5.43c0.018,0,0.035,0.002,0.052,0.002
		c0.004,0,0.009-0.002,0.014-0.002c0.007,0,0.015,0.002,0.022,0.002c4.645,0,8.804-2.114,11.568-5.432
		c0.254-0.304,0.493-0.619,0.723-0.944c0.329-0.464,0.623-0.952,0.898-1.452c1.417,0.265,2.513,0.525,3.25,0.72
		C45.839,46.123,39.432,50.531,32,50.531z M48.889,33.853l-3.314-0.409l-0.083,0.667l3.078,0.38l-0.149,1.21l-3.078-0.38
		l-0.083,0.667l3.314,0.409l-0.149,1.208l-5.273-0.651l0.613-4.96l5.273,0.651L48.889,33.853z"/>
	<path d="M39.865,33.255c0.067-0.057,0.104-0.135,0.11-0.232c0.006-0.094-0.021-0.17-0.08-0.232s-0.189-0.1-0.389-0.113
		l-1.488-0.096l-0.041,0.643l1.488,0.096C39.665,33.333,39.799,33.31,39.865,33.255z"/>
	<path d="M32.807,34.327c0.061-0.18,0.091-0.396,0.091-0.647s-0.031-0.468-0.091-0.647s-0.148-0.326-0.262-0.441
		c-0.115-0.114-0.253-0.196-0.417-0.248c-0.164-0.052-0.346-0.077-0.546-0.077c-0.205,0-0.388,0.025-0.549,0.077
		s-0.299,0.134-0.413,0.248c-0.114,0.115-0.202,0.262-0.262,0.441c-0.061,0.18-0.091,0.396-0.091,0.647s0.03,0.468,0.091,0.647
		c0.061,0.18,0.148,0.327,0.262,0.441s0.252,0.197,0.413,0.248c0.161,0.052,0.344,0.077,0.549,0.077
		c0.201,0,0.383-0.025,0.546-0.077c0.163-0.051,0.302-0.134,0.417-0.248C32.659,34.654,32.746,34.507,32.807,34.327z"/>
</g>
</svg>
