<?xml version="1.0" encoding="utf-8"?>
<!-- Generator: Adobe Illustrator 16.0.0, SVG Export Plug-In . SVG Version: 6.00 Build 0)  -->
<!DOCTYPE svg PUBLIC "-//W3C//DTD SVG 1.1//EN" "http://www.w3.org/Graphics/SVG/1.1/DTD/svg11.dtd">
<svg version="1.1" id="Layer_1" xmlns="http://www.w3.org/2000/svg" xmlns:xlink="http://www.w3.org/1999/xlink" x="0px" y="0px"
	 width="64px" height="64px" viewBox="0 0 64 64" enable-background="new 0 0 64 64" xml:space="preserve">
<g>
	<path d="M23.505,32.019l0.979,1.445l0.846-1.525c0.02-0.033,1.781-3.2,2.931-4.96c2.896-1.706,4.629-4.933,4.435-8.3
		c-0.285-4.941-4.522-8.763-9.528-8.486c-4.967,0.288-8.773,4.562-8.486,9.528c0.194,3.356,2.191,6.277,5.232,7.676
		C21.66,29.3,23.486,31.991,23.505,32.019z M16.82,19.597c-0.219-3.787,2.684-7.045,6.469-7.264
		c0.136-0.008,0.271-0.012,0.405-0.012c3.637,0,6.649,2.847,6.859,6.481c0.152,2.636-1.246,5.161-3.562,6.432l-0.229,0.126
		l-0.146,0.218c-0.704,1.051-1.652,2.666-2.325,3.842c-0.765-1.045-1.871-2.485-2.962-3.647l-0.152-0.163l-0.206-0.088
		C18.563,24.486,16.972,22.215,16.82,19.597z"/>
	<path d="M46.396,28.596c-0.244-0.344-0.498-0.68-0.769-1.003c-2.732-3.28-6.758-5.429-11.28-5.714
		c-0.334,1.308-0.896,2.549-1.668,3.652v5.732c-1.534-0.038-3.001-0.215-4.38-0.494c-0.249,0.429-0.481,0.833-0.684,1.188
		c1.584,0.358,3.285,0.575,5.063,0.618v5.111h-7.491c0.003-0.496,0.023-0.984,0.054-1.468l-0.591,1.063l-0.721-1.066
		c-0.029,0.485-0.053,0.974-0.055,1.471h-5.224c0.022-2.397,0.632-4.653,1.678-6.646c-0.277-0.363-0.577-0.744-0.887-1.122
		c-1.334,2.333-2.106,5.027-2.106,7.902c0,3.435,1.092,6.617,2.939,9.226c0.244,0.345,0.5,0.68,0.769,1.003
		c2.919,3.5,7.3,5.741,12.198,5.77c0.019,0,0.037,0.002,0.055,0.002c0.005,0,0.009,0,0.015,0c0.008,0,0.015,0,0.023,0
		c4.936,0,9.355-2.247,12.292-5.771c0.27-0.323,0.524-0.659,0.769-1.003c1.849-2.609,2.939-5.792,2.939-9.227
		C49.335,34.388,48.244,31.205,46.396,28.596z M18.7,38.999h5.2c0.085,1.966,0.383,3.831,0.85,5.536
		c-1.272,0.479-2.422,1.061-3.416,1.725C19.862,44.172,18.914,41.689,18.7,38.999z M22.108,47.26
		c0.875-0.572,1.888-1.078,3.014-1.499c0.843,2.488,2.065,4.562,3.536,5.979C26.079,50.872,23.825,49.299,22.108,47.26z
		 M32.679,52.462c-2.693-0.37-5.02-3.133-6.337-7.111c1.899-0.57,4.051-0.915,6.337-0.971V52.462z M32.679,43.067
		c-2.409,0.058-4.683,0.431-6.705,1.051c-0.414-1.573-0.679-3.299-0.76-5.119h7.465V43.067z M48.019,37.687H42.72
		c-0.012-2.338-0.323-4.555-0.868-6.552c1.299-0.483,2.473-1.073,3.484-1.75C46.997,31.74,47.991,34.598,48.019,37.687z
		 M44.565,28.381c-0.894,0.585-1.932,1.1-3.087,1.526c-0.85-2.523-2.09-4.621-3.584-6.045
		C40.523,24.723,42.822,26.311,44.565,28.381z M33.992,23.191c2.664,0.412,4.958,3.172,6.263,7.122
		c-1.881,0.558-4.007,0.895-6.263,0.95V23.191z M33.992,32.576c2.379-0.057,4.625-0.421,6.627-1.028
		c0.49,1.867,0.775,3.942,0.787,6.139h-7.414V32.576z M33.992,38.999h7.388c-0.08,1.813-0.344,3.53-0.755,5.098
		c-2.004-0.607-4.252-0.973-6.633-1.029V38.999z M33.992,52.451V44.38c2.258,0.055,4.384,0.393,6.267,0.95
		C38.954,49.282,36.656,52.04,33.992,52.451z M37.895,51.78c1.494-1.424,2.736-3.521,3.586-6.044c1.153,0.426,2.19,0.94,3.082,1.524
		C42.82,49.33,40.523,50.92,37.895,51.78z M45.338,46.26c-1.013-0.677-2.187-1.268-3.487-1.751c0.463-1.698,0.758-3.554,0.842-5.51
		h5.279C47.757,41.689,46.811,44.173,45.338,46.26z"/>
	<circle cx="23.687" cy="19.071" r="3.549"/>
</g>
</svg>
