<?xml version="1.0" encoding="utf-8"?>
<!-- Generator: Adobe Illustrator 16.0.0, SVG Export Plug-In . SVG Version: 6.00 Build 0)  -->
<!DOCTYPE svg PUBLIC "-//W3C//DTD SVG 1.1//EN" "http://www.w3.org/Graphics/SVG/1.1/DTD/svg11.dtd">
<svg version="1.1" id="Layer_1" xmlns="http://www.w3.org/2000/svg" xmlns:xlink="http://www.w3.org/1999/xlink" x="0px" y="0px"
	 width="64px" height="64px" viewBox="0 0 64 64" enable-background="new 0 0 64 64" xml:space="preserve">
<g>
	<path d="M11.367,40.621c1.218-9.961,6.295-13.156,10.841-15.987c4.642-2.892,8.657-5.425,8.174-14.942
		c-2.163,0.157-4.241,0.618-6.191,1.348c0.202,7.553-3.376,9.793-6.848,11.956c-3.667,2.284-7.131,4.442-7.348,12.958
		C10.285,37.575,10.746,39.139,11.367,40.621z"/>
	<path d="M16.285,21.298c3.236-2.017,5.853-3.667,5.912-9.399c-5.89,2.887-10.33,8.288-11.919,14.796
		C11.909,24.026,14.176,22.611,16.285,21.298z"/>
	<path d="M16.876,48.459c0.788-10.616,5.446-14.322,9.963-17.908c4.907-3.896,9.544-7.588,9.283-20.54
		c-1.217-0.227-2.467-0.354-3.744-0.375c0.518,10.661-4.367,13.739-9.113,16.695c-4.808,2.995-9.77,6.104-10.152,17.621
		C14.168,45.615,15.433,47.131,16.876,48.459z"/>
	<path d="M40.827,36.787c4.482-3.596,8.71-7.021,8.484-18.957c-1.206-1.471-2.597-2.781-4.135-3.904
		c-0.063,13.04-5.132,17.116-10.045,21.058c-4.624,3.71-8.989,7.221-9.309,18.514c1.844,0.531,3.783,0.831,5.787,0.867
		C32.135,43.793,36.546,40.223,40.827,36.787z"/>
	<path d="M48.339,41.452c-3.21,1.956-5.994,3.671-6.318,10.549c6.155-3.093,10.692-8.942,11.984-15.92
		C52.564,38.875,50.376,40.211,48.339,41.452z"/>
	<path d="M47.299,39.745c3.438-2.096,6.686-4.074,6.291-13.271l0.103-0.004c-0.529-2.074-1.352-4.031-2.416-5.829
		c-0.474,10.67-4.895,14.254-9.197,17.706c-4.092,3.282-7.954,6.409-8.465,15.963c2.229-0.159,4.369-0.645,6.372-1.411
		C40.11,44.126,43.929,41.799,47.299,39.745z"/>
	<path d="M33.88,33.424c4.915-3.943,9.558-7.678,9.287-20.806c-1.568-0.906-3.256-1.627-5.033-2.134
		c0.142,13.54-5.037,17.652-10.051,21.633c-4.566,3.625-8.875,7.069-9.286,17.922c1.547,1.137,3.245,2.076,5.059,2.789
		C24.35,41.102,29.188,37.188,33.88,33.424z"/>
</g>
</svg>
