<?xml version="1.0" encoding="utf-8"?>
<!-- Generator: Adobe Illustrator 16.0.0, SVG Export Plug-In . SVG Version: 6.00 Build 0)  -->
<!DOCTYPE svg PUBLIC "-//W3C//DTD SVG 1.1//EN" "http://www.w3.org/Graphics/SVG/1.1/DTD/svg11.dtd">
<svg version="1.1" id="Layer_1" xmlns="http://www.w3.org/2000/svg" xmlns:xlink="http://www.w3.org/1999/xlink" x="0px" y="0px"
	 width="64px" height="64px" viewBox="0 0 64 64" enable-background="new 0 0 64 64" xml:space="preserve">
<path d="M32.307,55.813c-3.648,0-6.861-2.652-8.145-6.585c-1.234,0.492-2.521,0.749-3.781,0.749c-2.203,0-4.219-0.795-5.676-2.238
	c-2.232-2.209-2.877-5.662-1.744-9.003c-2.959-1.589-4.764-4.333-4.773-7.349c-0.006-2.745,1.48-5.292,4.018-6.948
	c-0.771-3.023-0.104-5.968,1.852-7.998c1.475-1.533,3.551-2.377,5.846-2.377c1.15,0,2.332,0.214,3.471,0.623
	c1.307-3.88,4.514-6.5,8.119-6.5c3.385,0,6.434,2.304,7.873,5.84c2.822-1.157,5.916-0.904,8.146,0.696
	c2.457,1.763,3.648,4.855,3.209,8.205c3.152,1.557,5.082,4.374,5.09,7.509c0.012,3.369-2.262,6.41-5.766,7.868
	c1.732,3.578,1.334,7.495-1.115,10.039c-1.475,1.532-3.551,2.376-5.844,2.376l0,0c-1.01,0-2.02-0.157-3.02-0.47
	C38.578,53.662,35.619,55.813,32.307,55.813z M25.52,46.317l0.277,1.298c0.777,3.649,3.455,6.198,6.51,6.198
	c2.738,0,5.186-2.023,6.232-5.154l0.34-1.019l0.992,0.413c1.049,0.437,2.16,0.667,3.215,0.667l0,0c1.744,0,3.309-0.626,4.402-1.763
	c2.053-2.133,2.16-5.618,0.266-8.674l-0.691-1.115l1.258-0.371c3.293-0.971,5.5-3.524,5.49-6.354
	c-0.006-2.546-1.762-4.843-4.582-5.994l-0.77-0.314l0.168-0.813c0.594-2.866-0.281-5.538-2.281-6.973
	c-1.898-1.362-4.668-1.376-7.08-0.063l-1.088,0.592l-0.35-1.189c-0.963-3.29-3.508-5.501-6.336-5.501
	c-3.008,0-5.676,2.501-6.486,6.081l-0.279,1.229l-1.133-0.55c-1.191-0.577-2.469-0.883-3.691-0.883
	c-1.746,0-3.311,0.626-4.404,1.764c-1.596,1.657-2.031,4.181-1.168,6.752l0.266,0.792l-0.732,0.402
	c-2.307,1.269-3.682,3.364-3.676,5.607c0.008,2.491,1.707,4.766,4.434,5.937l0.926,0.398l-0.406,0.923
	c-1.25,2.843-0.867,5.857,0.971,7.678c1.098,1.086,2.574,1.66,4.27,1.66c1.32,0,2.693-0.358,3.969-1.037L25.52,46.317z M32,41.958
	c-5.445,0-9.875-4.43-9.875-9.875c0-5.444,4.43-9.874,9.875-9.874s9.875,4.43,9.875,9.874C41.875,37.529,37.445,41.958,32,41.958z
	 M32,24.209c-4.342,0-7.875,3.532-7.875,7.874c0,4.343,3.533,7.875,7.875,7.875s7.875-3.532,7.875-7.875
	C39.875,27.742,36.342,24.209,32,24.209z"/>
<g>
	<path d="M36.189,26.367c-0.191-0.785-0.432-1.529-0.688-2.208c-0.678,0.183-1.41,0.287-2.18,0.287
		c-0.012,0-0.021-0.001-0.035-0.001c-0.027,0.704-0.053,1.472-0.076,2.284c0.037,0,0.074,0.002,0.111,0.002
		C34.336,26.731,35.303,26.601,36.189,26.367z"/>
	<path d="M35.209,23.421c-0.578-1.378-1.17-2.405-1.438-2.841c-0.1-0.01-0.197-0.016-0.297-0.021
		c-0.033,0.556-0.094,1.653-0.154,3.095h0.002C33.988,23.653,34.621,23.568,35.209,23.421z"/>
	<path d="M36.916,22.726c-0.861-1.05-1.637-1.747-1.848-1.931c-0.094-0.023-0.191-0.044-0.287-0.064
		c0.324,0.573,0.766,1.419,1.195,2.454C36.316,23.055,36.629,22.899,36.916,22.726z"/>
	<path d="M41.6,27.382c-0.338,0.319-0.713,0.617-1.117,0.894c0.055,0.367,0.09,0.739,0.096,1.118
		c0.01,0.521-0.031,1.028-0.107,1.522c0.484-0.279,0.934-0.585,1.342-0.914c0.014-0.195,0.023-0.393,0.023-0.592
		C41.836,28.713,41.752,28.033,41.6,27.382z"/>
	<path d="M37.551,36.99c0.564-0.344,1.092-0.74,1.566-1.197c-0.281,0.098-0.568,0.186-0.859,0.269
		C38.018,36.401,37.777,36.711,37.551,36.99z"/>
	<path d="M36.359,27.138c-0.943,0.249-1.967,0.387-3.037,0.387c-0.045,0-0.088-0.002-0.133-0.003
		c-0.012,0.519-0.023,1.052-0.031,1.596c-0.004,0.162-0.006,0.325-0.008,0.488c1.223-0.011,2.389-0.17,3.465-0.452
		C36.58,28.466,36.488,27.791,36.359,27.138z"/>
	<path d="M38.934,35.021c0.443-0.154,0.873-0.322,1.283-0.51c0.713-1.012,1.221-2.178,1.459-3.438
		c-0.436,0.303-0.914,0.574-1.412,0.829C39.963,33.058,39.475,34.11,38.934,35.021z"/>
	<path d="M36.629,29.962c-1.088,0.273-2.26,0.427-3.482,0.437c0,0.806,0.012,1.602,0.031,2.365c1.115-0.011,2.191-0.128,3.209-0.338
		C36.527,31.647,36.619,30.82,36.629,29.962z"/>
	<path d="M37.838,22c-0.309-0.203-0.633-0.385-0.965-0.548c0.219,0.237,0.453,0.504,0.693,0.798
		C37.66,22.169,37.754,22.088,37.838,22z"/>
	<path d="M35.287,37.963c0.127-0.034,0.254-0.068,0.379-0.108c0.223-0.21,0.748-0.73,1.352-1.483
		c-0.346,0.071-0.699,0.13-1.057,0.183C35.719,37.124,35.48,37.601,35.287,37.963z"/>
	<path d="M37.744,35.389c0.588-0.857,1.164-1.891,1.555-3.041c-0.701,0.291-1.445,0.535-2.227,0.726
		c-0.207,0.975-0.482,1.856-0.77,2.625C36.795,35.614,37.279,35.512,37.744,35.389z"/>
	<path d="M33.439,38.256c0.275-0.015,0.547-0.04,0.816-0.08c0.143-0.239,0.439-0.765,0.781-1.509
		c-0.555,0.054-1.119,0.085-1.693,0.089C33.379,37.363,33.412,37.874,33.439,38.256z"/>
	<path d="M36.264,23.913c0.256,0.683,0.494,1.431,0.689,2.221c0.623-0.219,1.195-0.491,1.705-0.809
		c-0.381-0.729-0.82-1.397-1.258-1.984C37.053,23.56,36.676,23.754,36.264,23.913z"/>
	<path d="M36.213,33.258c-0.965,0.18-1.971,0.285-3.014,0.295c0.029,0.873,0.064,1.688,0.102,2.41
		c0.715-0.004,1.412-0.051,2.094-0.132C35.689,35.094,35.984,34.224,36.213,33.258z"/>
	<path d="M40.09,24.131c-0.465-0.625-1.01-1.187-1.619-1.67c-0.129,0.141-0.27,0.276-0.422,0.405
		c0.443,0.591,0.883,1.261,1.27,1.994C39.605,24.632,39.865,24.39,40.09,24.131z"/>
	<path d="M40.318,27.438c0.383-0.283,0.73-0.586,1.033-0.91c-0.207-0.608-0.48-1.188-0.811-1.729
		c-0.26,0.276-0.553,0.536-0.871,0.778C39.936,26.166,40.158,26.788,40.318,27.438z"/>
	<path d="M39.609,27.91c-0.139-0.652-0.352-1.28-0.611-1.876c-0.564,0.345-1.193,0.639-1.871,0.872
		c0.129,0.651,0.223,1.326,0.266,2.016C38.201,28.652,38.945,28.311,39.609,27.91z"/>
	<path d="M39.787,29.407c-0.004-0.226-0.021-0.449-0.045-0.671c-0.705,0.399-1.484,0.738-2.324,1.004
		c0.006,0.865-0.064,1.7-0.189,2.487c0.832-0.221,1.619-0.504,2.342-0.843C39.715,30.75,39.797,30.088,39.787,29.407z"/>
	<path d="M26.555,35.514c0.646,0.679,1.398,1.254,2.227,1.703c-0.305-0.358-0.639-0.782-0.973-1.262
		C27.381,35.822,26.959,35.676,26.555,35.514z"/>
	<path d="M25.896,31.969c-0.586-0.292-1.135-0.615-1.637-0.972c0.207,1.146,0.637,2.216,1.24,3.164
		c0.514,0.273,1.061,0.519,1.635,0.735C26.635,34.032,26.184,33.045,25.896,31.969z"/>
	<path d="M26.611,25.282c-0.34-0.294-0.643-0.609-0.898-0.944c-0.453,0.649-0.822,1.36-1.092,2.119
		c0.344,0.375,0.742,0.724,1.188,1.044C25.994,26.719,26.275,25.976,26.611,25.282z"/>
	<path d="M29.777,35.636c-0.277-0.749-0.543-1.602-0.742-2.54c-0.762-0.182-1.488-0.415-2.174-0.692
		c0.375,1.085,0.912,2.062,1.465,2.885C28.795,35.424,29.281,35.539,29.777,35.636z"/>
	<path d="M25.564,29.394c0.006-0.357,0.037-0.711,0.086-1.058c-0.471-0.314-0.902-0.658-1.283-1.027
		c-0.162,0.675-0.252,1.377-0.252,2.102c0,0.171,0.006,0.341,0.016,0.51c0.463,0.384,0.984,0.735,1.551,1.053
		C25.6,30.462,25.555,29.935,25.564,29.394z"/>
	<path d="M31.049,36.631c0.363,0.796,0.682,1.35,0.818,1.576c0.256,0.032,0.516,0.054,0.779,0.063
		c-0.027-0.394-0.063-0.912-0.098-1.527C32.041,36.725,31.541,36.688,31.049,36.631z"/>
	<path d="M29.061,36.293c0.76,0.959,1.408,1.559,1.512,1.652c0.092,0.024,0.182,0.048,0.273,0.072
		c-0.205-0.38-0.461-0.893-0.729-1.518C29.76,36.44,29.406,36.372,29.061,36.293z"/>
	<path d="M30.955,23.28c0.488,0.161,1.016,0.277,1.574,0.333c0.061-1.412,0.119-2.494,0.152-3.063
		c-0.113,0.004-0.229,0.006-0.34,0.015C32.088,20.977,31.521,21.958,30.955,23.28z"/>
	<path d="M32.506,35.944c-0.037-0.72-0.07-1.53-0.1-2.396c-0.863-0.03-1.703-0.121-2.51-0.27c0.221,0.938,0.508,1.785,0.793,2.506
		C31.281,35.868,31.887,35.922,32.506,35.944z"/>
	<path d="M26.355,29.407c-0.012,0.698,0.074,1.375,0.225,2.022c0.713,0.328,1.482,0.601,2.297,0.813
		c-0.125-0.786-0.195-1.62-0.193-2.483c-0.824-0.257-1.592-0.585-2.289-0.971C26.375,28.993,26.359,29.199,26.355,29.407z"/>
	<path d="M29.416,21.294c-0.289,0.128-0.574,0.268-0.848,0.426c0.07,0.09,0.154,0.174,0.234,0.26
		C29.016,21.728,29.223,21.498,29.416,21.294z"/>
	<path d="M29.949,26.222c0.764,0.243,1.596,0.404,2.471,0.473c0.023-0.814,0.049-1.582,0.076-2.288
		c-0.65-0.062-1.27-0.198-1.838-0.393C30.396,24.69,30.15,25.434,29.949,26.222z"/>
	<path d="M32.355,30.387c-1.006-0.044-1.971-0.187-2.883-0.41c0.012,0.858,0.104,1.685,0.246,2.464
		c0.852,0.172,1.744,0.28,2.666,0.313C32.367,31.989,32.355,31.192,32.355,30.387z"/>
	<path d="M32.359,29.594c0.002-0.163,0.004-0.327,0.006-0.489c0.01-0.553,0.021-1.092,0.033-1.617
		c-0.926-0.069-1.811-0.239-2.627-0.497c-0.145,0.704-0.246,1.436-0.285,2.178C30.389,29.4,31.352,29.549,32.359,29.594z"/>
	<path d="M29.402,22.514c0.242,0.175,0.518,0.327,0.809,0.468c0.412-0.964,0.824-1.75,1.131-2.287
		c-0.074,0.015-0.146,0.028-0.219,0.044l0.006,0.008C31.111,20.762,30.328,21.421,29.402,22.514z"/>
	<path d="M28.301,22.594c-0.145-0.146-0.275-0.296-0.393-0.453c-0.631,0.441-1.201,0.962-1.697,1.548
		c0.215,0.311,0.475,0.604,0.771,0.878C27.393,23.835,27.85,23.171,28.301,22.594z"/>
	<path d="M26.521,27.965c0.656,0.388,1.391,0.719,2.186,0.979c0.049-0.764,0.158-1.509,0.309-2.226
		c-0.643-0.259-1.232-0.574-1.756-0.936C26.939,26.468,26.678,27.2,26.521,27.965z"/>
	<path d="M27.617,25.079c0.467,0.332,0.996,0.623,1.578,0.864c0.207-0.798,0.457-1.547,0.721-2.23
		c-0.365-0.173-0.701-0.371-1.004-0.594C28.467,23.693,28.016,24.354,27.617,25.079z"/>
</g>
</svg>
