<?xml version="1.0" encoding="utf-8"?>
<!-- Generator: Adobe Illustrator 16.0.0, SVG Export Plug-In . SVG Version: 6.00 Build 0)  -->
<!DOCTYPE svg PUBLIC "-//W3C//DTD SVG 1.1//EN" "http://www.w3.org/Graphics/SVG/1.1/DTD/svg11.dtd">
<svg version="1.1" id="Layer_1" xmlns="http://www.w3.org/2000/svg" xmlns:xlink="http://www.w3.org/1999/xlink" x="0px" y="0px"
	 width="64px" height="64px" viewBox="0 0 64 64" enable-background="new 0 0 64 64" xml:space="preserve">
<g>
	<path d="M36.171,51.127c-0.147,0.288,0.2,0.981-2.768,1.233c-0.523,0.036-1.055-0.199-1.616-0.715
		c-0.357-0.329-0.7-0.754-1.03-1.245c-0.179-0.266-0.353-0.556-0.521-0.863c-0.019-0.034-0.037-0.067-0.056-0.102
		c-0.17-0.313-0.336-0.643-0.496-0.993l0,0c-1.047-2.287-1.872-5.286-2.384-8.323c-0.082-0.482-0.158-0.965-0.223-1.446l0,0
		c-0.105-0.772-0.188-1.54-0.249-2.292l4.056-0.241l-6.173-7.055l-4.291,7.677l1.185-0.07l0,0l1.477-0.088l0,0l0.755-0.045
		c0.072,0.884,0.181,1.818,0.316,2.774l0,0c0,0.002,0,0.004,0.001,0.007c0.38,2.669,1.006,5.524,1.898,8.072
		c0,0.001,0,0.002,0,0.002s0,0,0,0.001c0.286,0.815,0.6,1.595,0.939,2.33v0.001l0,0c0.778,1.686,1.697,3.123,2.765,4.105
		c1.09,1.002,2.274,1.51,3.546,1.51c0.109,0,0.219-0.004,0.329-0.011c4.57-0.388,5.774-3.598,5.772-5.14
		c0,0-0.911,0.422-1.505,0.609S36.171,51.127,36.171,51.127z"/>
	<path d="M27.429,13.592c0-0.017,0.032-1.701,3-1.953c0.525-0.039,1.055,0.198,1.616,0.715c0.515,0.474,1.001,1.137,1.456,1.933
		c0.169,0.295,0.333,0.61,0.492,0.941c0.012,0.026,0.024,0.052,0.037,0.078c0.157,0.332,0.311,0.678,0.459,1.04
		c0.959,2.346,1.703,5.28,2.151,8.203c0.074,0.485,0.14,0.969,0.197,1.451c0.065,0.544,0.123,1.086,0.166,1.618l-4.056,0.241
		l3.782,4.323l0,0l1.301,1.487l0,0l1.09,1.245l1.123-2.01l0.404-0.723l0,0l1.157-2.071l0.627-1.121v0l0.979-1.752l-1.218,0.072l0,0
		l-1.078,0.064l-1.12,0.067c-0.055-0.67-0.131-1.371-0.222-2.085l0,0c-0.001-0.002-0.001-0.003-0.001-0.005
		c-0.123-0.964-0.28-1.957-0.471-2.959v0c-0.001-0.002-0.001-0.004-0.002-0.006c-0.362-1.905-0.847-3.83-1.459-5.614l0,0
		c0-0.002-0.001-0.004-0.002-0.006c-0.214-0.624-0.446-1.225-0.691-1.807l0,0l0,0c-0.84-1.99-1.859-3.695-3.072-4.811
		c-1.183-1.088-2.479-1.589-3.875-1.499c-4.57,0.388-5.74,3.548-5.772,5.72c0,0,1.076-0.519,1.673-0.625
		C26.699,13.636,27.429,13.592,27.429,13.592z"/>
	<polygon points="31.443,29.174 31.257,28.961 31.257,32.18 30.075,32.18 32.389,34.825 32.743,35.23 32.743,33.667 35.374,33.667 
		34.073,32.18 32.743,32.18 32.743,30.661 	"/>
	<path d="M19.283,43.024c0.928-0.607,1.998-1.145,3.178-1.604c-0.088-0.491-0.169-0.979-0.241-1.46
		c-1.419,0.538-2.703,1.188-3.814,1.93c-1.667-2.365-2.74-5.177-2.983-8.224h4.438l0.832-1.487h-5.324
		c0.032-3.499,1.158-6.736,3.038-9.404c1.127,0.752,2.43,1.411,3.87,1.953c-0.532,1.943-0.854,4.076-0.949,6.315l1.64-2.933
		l0.171-0.306c0.143-0.897,0.313-1.773,0.532-2.603c1.606,0.492,3.357,0.837,5.198,1.027l-0.11-0.127l4.073-0.242l1.965-0.117
		c-0.041-0.318-0.087-0.634-0.135-0.949c-0.628,0.056-1.268,0.093-1.917,0.109v-7.561c-0.52-1.323-1.089-2.398-1.671-3.104
		c-5.214,0.265-9.854,2.74-12.995,6.508c-0.305,0.366-0.594,0.746-0.869,1.135c-2.095,2.956-3.331,6.56-3.331,10.45
		s1.236,7.495,3.331,10.45c0.275,0.39,0.564,0.77,0.869,1.136c1.721,2.063,3.892,3.734,6.357,4.873
		c-0.251-0.663-0.485-1.343-0.699-2.039C22.042,45.775,20.535,44.512,19.283,43.024z M31.257,15.75v9.155
		c-2.588-0.063-5.023-0.453-7.175-1.098C25.576,19.301,28.207,16.168,31.257,15.75z M26.703,16.566
		c-1.667,1.607-3.05,3.956-4.004,6.775c-1.278-0.478-2.429-1.052-3.421-1.702C21.224,19.33,23.78,17.551,26.703,16.566z"/>
	<path d="M46.794,21.883c-0.276-0.39-0.564-0.77-0.87-1.136c-1.698-2.039-3.837-3.696-6.266-4.834
		c0.23,0.657,0.442,1.331,0.639,2.013c1.682,0.975,3.179,2.235,4.424,3.714c-0.941,0.617-2.03,1.161-3.23,1.623
		c0.081,0.496,0.153,0.986,0.219,1.47c1.447-0.543,2.755-1.202,3.886-1.957c0.5,0.709,0.942,1.462,1.329,2.247l0.017-0.001
		l-0.01,0.017c1.063,2.16,1.679,4.579,1.702,7.142h-5.694l-2.003,3.585c-0.15,1.284-0.374,2.519-0.678,3.676
		c-2.271-0.688-4.816-1.102-7.515-1.166h-1.486c-0.746,0.018-1.478,0.068-2.197,0.137c0.066,0.492,0.142,0.98,0.224,1.464
		c0.646-0.059,1.305-0.099,1.974-0.115v7.316c0.589,1.409,1.234,2.498,1.885,3.096c0.106,0.099,0.184,0.153,0.229,0.181
		c0.093-0.01,0.17,0.011,0.251,0.023c4.932-0.44,9.302-2.857,12.303-6.458c0.305-0.366,0.594-0.747,0.87-1.136
		c2.094-2.956,3.329-6.561,3.329-10.451S48.888,24.838,46.794,21.883z M32.743,48.905v-9.143c2.558,0.063,4.967,0.445,7.1,1.077
		C38.365,45.315,35.763,48.438,32.743,48.905z M37.165,48.145c1.692-1.613,3.1-3.988,4.062-6.847
		c1.307,0.482,2.481,1.065,3.491,1.727C42.743,45.37,40.143,47.17,37.165,48.145z M45.596,41.892
		c-1.146-0.767-2.477-1.436-3.949-1.983c0.523-1.924,0.858-4.026,0.953-6.241h5.979C48.336,36.714,47.264,39.527,45.596,41.892z"/>
</g>
</svg>
