<?xml version="1.0" encoding="utf-8"?>
<!-- Generator: Adobe Illustrator 16.0.0, SVG Export Plug-In . SVG Version: 6.00 Build 0)  -->
<!DOCTYPE svg PUBLIC "-//W3C//DTD SVG 1.1//EN" "http://www.w3.org/Graphics/SVG/1.1/DTD/svg11.dtd">
<svg version="1.1" id="Layer_1" xmlns="http://www.w3.org/2000/svg" xmlns:xlink="http://www.w3.org/1999/xlink" x="0px" y="0px"
	 width="64px" height="64px" viewBox="0 0 64 64" enable-background="new 0 0 64 64" xml:space="preserve">
<g>
	<polygon points="40.355,41.121 39.023,41.158 38.969,40.438 39.185,40.527 39.707,40.475 39.652,39.809 38.213,39.826 
		37.816,39.304 37.838,39.031 35.982,37.359 35.531,37.719 38.177,40.959 38.555,41.086 38.555,41.266 38.051,41.266 38.177,41.664 
		41.435,41.807 	"/>
	<polygon points="41.883,40.501 42.085,39.987 42.443,39.663 42.443,39.427 42.666,39.28 42.666,37.502 42.443,37.409 
		42.336,36.854 42.011,36.854 41.802,37.416 41.553,37.639 39.668,38.66 39.668,39.67 40.297,40.501 	"/>
	<polygon points="42.666,39.864 42.666,41.179 43.152,41.179 43.08,40.34 43.459,40.476 43.459,41.07 43.854,41.034 43.841,39.28 
		42.889,39.65 42.9,39.864 	"/>
	<polygon points="47.808,40.753 48.475,41.104 48.492,41.428 48.06,41.428 48.077,42.094 49.518,42.004 50.041,41.445 
		50.598,41.392 50.598,42.418 51.57,42.418 51.57,42.004 51.084,42.004 50.994,40.753 48.673,39.699 48.023,40.042 47.42,40.057 
		47.466,39.43 46.891,39.088 46.07,39.906 46.62,40.582 	"/>
	<polygon points="30.741,37.053 30.967,37.664 31.785,37.359 31.875,36.514 31.216,36.383 	"/>
	<polygon points="21.128,44.183 20.012,44.039 20.012,44.902 20.408,45.371 20.103,45.838 19.652,46.361 19.652,47.313 
		20.266,47.909 20.822,47.012 21.92,45.406 22.443,42.886 21.776,42.886 	"/>
	<polygon points="43.713,41.718 43.996,41.807 44.076,41.523 43.713,41.523 	"/>
	<rect x="42.011" y="41.807" width="0.433" height="0.24"/>
	<polygon points="42.922,41.807 42.666,42.047 42.666,42.256 43.064,42.215 43.064,42.047 43.334,42.047 43.334,41.836 
		43.529,41.807 43.529,41.602 43.098,41.602 	"/>
	<polygon points="43.752,42.047 43.752,42.425 44.172,42.425 44.172,42.235 44.604,42.235 44.604,42.014 44.906,42.047 
		44.867,41.664 44.373,41.736 44.33,41.986 43.779,42.047 	"/>
	<path d="M32,7.626C18.561,7.626,7.627,18.561,7.627,32S18.561,56.374,32,56.374S56.373,45.439,56.373,32S45.439,7.626,32,7.626z
		 M32,9.626c7.845,0,14.755,4.062,18.75,10.189l-2.231-0.944l-8.37-0.432l-0.783-0.396l-1.244-0.185l-0.934-0.032l-0.848,0.856
		l-0.357-0.028l-1.127-0.836h-3.32l-1.541-0.919l-3.084,0.195l-2.344,1.048l0.019,1.215l-0.722,0.216l-0.162-1.216l-0.268-0.422
		l-0.812-0.199l-0.188,0.729l0.242,0.594l-2.88-0.188l-1.375,0.639l-0.208-0.603l-0.343,0.09l-0.251,0.665l-0.721,0.563l-1.757-0.05
		l-0.079-0.387l1.836-0.081l0.377-0.323l-2.213-1.027l-0.797,0.024C18.359,13.063,24.784,9.626,32,9.626z M20.417,26.242
		l-0.035-0.836l0.181-0.414l0.728-0.063l0.621,0.26l0.028,0.432l-0.883-0.049l-0.045,0.4l1.107,0.738v0.54l0.478,0.352v0.378
		l-0.244,0.234l-0.567-0.047l-0.109-0.17l-0.891-0.063l0.063-0.289l0.47-0.406V26.9L20.417,26.242z M15.17,30.023l-1.053-0.783
		l-1.107,0.107v0.676h-0.352l-0.377-0.27l-1.918-0.486v-1.242l-0.381,0.029c0.104-0.586,0.228-1.165,0.377-1.734l1.506,1.017
		l-0.207,0.277l-0.762-0.041l0.294,0.415l0.468,0.104l0.551-0.229l-0.01-0.662l0.244-0.123l-0.197-0.207l-1.127-0.629l-0.297-0.836
		h0.938l0.299,0.297l0.809,0.695l0.034,0.842l0.837,0.893l0.311-1.223l0.58-0.316l0.109,1l0.566,0.621l1.709-0.029l0.505,0.38v0.892
		l-0.62,0.566H15.17z M11.982,22.221l0.001-0.198c0.267-0.532,0.55-1.055,0.856-1.562v0.415l0.609,0.284l0.039,0.58l-0.857,1.275
		l-1.11-0.01c0.106-0.24,0.212-0.48,0.326-0.717L11.982,22.221z M13.569,19.356h0.344v0.433l-1.059,0.646
		c0.218-0.36,0.448-0.713,0.686-1.059L13.569,19.356z M17.216,27.295l-1.401-0.057l-0.419,0.057v-0.956l0.313-0.353l0.34-0.105
		l0.743-0.086l0.163-0.255l0.304,0.151l0.043,0.871l0.813,0.335l0.072,0.397H17.216z M16.392,48.008l0.218-0.225l0.576-1.026
		l0.738-0.163V45.73l0.486-0.576l1.026-1.404l-0.216-2.14l-0.451-0.794l2.022-1.93l2.227-3.184l-0.433-0.199l-2.313,0.488
		l-0.595-0.297l-2.431-4.578l0.172-0.199l2.408,2.926l0.059,0.905l0.558,0.559l1.134-0.073l2.367-1.715l0.742-0.484l-0.014-0.595
		l-0.79-0.103c0,0-2.772-1.307-2.772-1.365c0-0.058,0.017-1.121,0.017-1.121h0.612l0.09,0.774l1.286,0.739l1.468,0.071l3.188,0.521
		l0.746,0.471v0.729l-0.096,0.992l1.633,2.686l0.527,0.122l0.525-0.763l0.291-2.174l0.544-1.17l0.878-0.328l1.549,0.148l1.943,1.728
		v2.485l2.566,2.455l0.135-0.43l-2.08-2.971l0.217-0.865l1.1,1.246l0.611,0.064l0.807-0.536l-0.133-0.81l-1.332-1.071l-0.055-0.973
		l0.38-0.513l0.675,0.217l-0.055,0.459l0.387,0.594l0.342-0.243l-0.188-0.702l1.889-0.676l0.829-0.692l-0.126-1.251l-1.646-1.729
		l-0.027-1.404h0.729l2.268,1.729l0.64-0.172l-0.423-0.557l-1.215-0.738l0.072-1.098l1.439,0.002l0.117-1.359l-0.549-0.724
		l0.324-0.351l0.701,0.703l0.225-0.298l-0.899-1.026l-2.241-0.27l-0.297-0.594l0.648-0.918l0.513,0.377l1.538,0.136l1.945-1.296
		l0.324,0.404l-0.434,0.676v0.676l1.783,1.457l0.568-0.297l-0.217-0.973L46.9,21.355l1.672-0.108v-0.486l0.811-0.161l-0.621-0.428
		l0.027-0.329l1.701,0.274l0.294-0.248c2.267,3.497,3.589,7.661,3.589,12.131c0,4.602-1.397,8.882-3.788,12.441l-0.03-0.666
		l-0.641-1.096l-0.575-0.027l-0.235,1.988l-1.1-0.082l-0.307-0.185l-0.039-0.788l0.583,0.118l0.491-0.479l-1.045-0.629h-1.229
		l-0.883,1.253h-0.36v-0.396l-1.058,0.08l-1.674,1.907l-0.888,0.012l-0.989,0.684l-0.072,2.952l-0.595,0.576v0.522l2.88-0.99
		l2.336-0.094l0.333,0.733c-3.753,2.846-8.427,4.538-13.489,4.538C25.933,54.374,20.426,51.943,16.392,48.008z"/>
</g>
</svg>
