<?xml version="1.0" encoding="utf-8"?>
<!-- Generator: Adobe Illustrator 16.0.0, SVG Export Plug-In . SVG Version: 6.00 Build 0)  -->
<!DOCTYPE svg PUBLIC "-//W3C//DTD SVG 1.1//EN" "http://www.w3.org/Graphics/SVG/1.1/DTD/svg11.dtd">
<svg version="1.1" id="Layer_1" xmlns="http://www.w3.org/2000/svg" xmlns:xlink="http://www.w3.org/1999/xlink" x="0px" y="0px"
	 width="64px" height="64px" viewBox="0 0 64 64" enable-background="new 0 0 64 64" xml:space="preserve">
<path d="M32,7.626C16.945,7.626,7.626,20.278,7.626,32C7.626,45.44,18.56,56.374,32,56.374c13.44,0,24.374-10.934,24.374-24.374
	S45.439,7.626,32,7.626z M49.458,18.031c-1.759-0.161-4.503-0.266-7.766,0.062c-0.347-0.911-1.04-1.647-1.925-2.043
	c0.276-2.055,0.489-3.726,0.621-4.787C43.963,12.715,47.08,15.064,49.458,18.031z M42.001,42.114
	c-2.085,0.147-4.441,0.172-7.061,0.002c-0.034-0.875-0.374-1.666-0.917-2.279c1.829-4.15,3.411-8.402,3.95-11.678
	c0.28-1.701,0.545-3.402,0.791-5.044c0.599,0.866,1.184,1.785,1.742,2.774c2.542,4.505,3.397,9.298,3.484,13.553
	C42.953,39.955,42.197,40.935,42.001,42.114z M31.292,38.594c-1.575,0-2.906,1-3.423,2.396c-3.646-1.108-6.77-3.027-9.332-5.15
	c0.309-0.537,0.5-1.151,0.5-1.815c0-0.758-0.23-1.462-0.625-2.046c1.952-2.095,4.445-4.302,7.623-6.414
	c3.023-2.009,6.17-3.323,9.179-4.18c0.385,0.59,0.934,1.061,1.584,1.35c-0.248,1.659-0.515,3.378-0.799,5.101
	c-0.496,3.011-1.97,6.983-3.695,10.919C31.981,38.66,31.646,38.594,31.292,38.594z M32,9.626c2.245,0,4.412,0.336,6.458,0.954
	c-0.122,0.994-0.354,2.842-0.671,5.198c-0.716,0.097-1.361,0.397-1.884,0.847c-3.528-3.423-7.027-5.336-9.379-6.344
	C28.241,9.86,30.066,9.626,32,9.626z M23.428,11.288c1.119,0.322,6.239,2.018,11.354,7.074c-0.097,0.329-0.165,0.669-0.165,1.028
	c0,0.02,0.005,0.038,0.006,0.057c-3.16,0.913-6.478,2.314-9.695,4.452c-3.373,2.242-6.002,4.573-8.062,6.788
	c-0.457-0.204-0.958-0.323-1.491-0.323c-0.655,0-1.262,0.187-1.794,0.488c-1.694-2.059-2.776-3.784-3.188-4.482
	C12.116,19.978,16.694,14.063,23.428,11.288z M9.626,32c0-0.926,0.068-1.859,0.192-2.79c0.589,0.871,1.382,1.947,2.338,3.104
	c-0.273,0.513-0.442,1.089-0.442,1.71c0,0.872,0.317,1.662,0.826,2.291c-0.717,1.161-1.271,2.205-1.662,3.052
	C10.071,37.059,9.626,34.581,9.626,32z M11.98,41.973c0.234-0.679,0.888-2.33,2.22-4.497c0.371,0.126,0.761,0.21,1.175,0.21
	c0.605,0,1.168-0.161,1.671-0.421c2.871,2.409,6.434,4.619,10.684,5.808c0.208,0.913,0.752,1.697,1.501,2.208
	c-1.828,3.655-3.491,6.668-4.222,7.969C19.317,51.373,14.63,47.27,11.98,41.973z M32,54.374c-1.721,0-3.394-0.202-5.004-0.571
	c0.857-1.531,2.451-4.443,4.171-7.898c0.042,0.001,0.083,0.013,0.125,0.013c1.349,0,2.514-0.737,3.15-1.823
	c1.451,0.106,2.834,0.162,4.13,0.162c1.298,0,2.51-0.05,3.65-0.131c0.283,0.677,0.763,1.248,1.368,1.646
	c-0.444,3.043-1.118,5.295-1.395,6.134C39.136,53.479,35.671,54.374,32,54.374z M44.735,50.381c0.279-1.07,0.583-2.433,0.828-4.008
	c0.013,0,0.025,0.004,0.039,0.004c1.901,0,3.446-1.454,3.626-3.308c1.021-0.245,1.896-0.5,2.607-0.737
	C50.15,45.555,47.704,48.317,44.735,50.381z M48.861,41.079c-0.541-1.074-1.586-1.835-2.831-1.982
	c-0.134-4.434-1.093-9.425-3.782-14.19c-0.539-0.954-1.098-1.844-1.671-2.688c0.646-0.525,1.119-1.253,1.29-2.1
	c4.747-0.482,8.338-0.008,9.155,0.119c2.123,3.42,3.352,7.449,3.352,11.762c0,2.723-0.49,5.332-1.385,7.748
	C52.399,40.007,50.999,40.559,48.861,41.079z"/>
</svg>
