<?xml version="1.0" encoding="utf-8"?>
<!-- Generator: Adobe Illustrator 16.0.0, SVG Export Plug-In . SVG Version: 6.00 Build 0)  -->
<!DOCTYPE svg PUBLIC "-//W3C//DTD SVG 1.1//EN" "http://www.w3.org/Graphics/SVG/1.1/DTD/svg11.dtd">
<svg version="1.1" id="Layer_1" xmlns="http://www.w3.org/2000/svg" xmlns:xlink="http://www.w3.org/1999/xlink" x="0px" y="0px"
	 width="64px" height="64px" viewBox="0 0 64 64" enable-background="new 0 0 64 64" xml:space="preserve">
<g>
	<path d="M49.374,26.063C48.843,16.87,41.202,9.67,31.981,9.67c-0.328,0-0.656,0.009-0.986,0.027
		c-9.576,0.553-16.918,8.796-16.367,18.374c0.375,6.439,4.242,12.112,10.092,14.803l0.137,0.063l0.104,0.111
		c3.359,3.658,6.893,8.793,7.285,9.366l1.295,1.915l1.109-2.001c0.916-1.633,3.898-6.922,5.924-10.025l0.096-0.146l0.152-0.09
		C46.388,38.789,49.745,32.507,49.374,26.063z M25.267,14.576l0.139,0.328l-1.025-0.037l-0.041-0.208
		c0.061-0.037,0.127-0.067,0.186-0.104L25.267,14.576z M39.011,39.862l-0.301,0.167l-0.193,0.285
		c-1.506,2.255-3.559,5.783-4.648,7.686l-0.574,1.002l-0.682-0.933c-1.484-2.029-3.713-4.938-5.898-7.266l-0.201-0.214l-0.268-0.115
		c-5.111-2.198-8.484-7.013-8.807-12.564c-0.107-1.868,0.156-3.671,0.705-5.351v0.458l0.607,1.035l0.494,0.075l0.063-0.354
		l-0.582-0.897l-0.113-0.873h0.342l0.145,0.897l0.84,1.228l-0.217,0.396l0.535,0.818l1.328,0.329v-0.215l0.531,0.076l-0.051,0.378
		l0.418,0.078l0.645,0.176l0.912,1.038l1.162,0.088l0.115,0.949l-0.797,0.557l-0.039,0.849l-0.113,0.518l1.152,1.442l0.088,0.493
		c0,0,0.418,0.113,0.469,0.113s0.936,0.672,0.936,0.672v2.606l0.316,0.089l-0.217,1.201l0.531,0.709l-0.098,1.191l0.703,1.234
		l0.9,0.787l0.908,0.017l0.088-0.291l-0.666-0.561l0.039-0.277l0.119-0.342l0.025-0.349l-0.451-0.012l-0.227-0.286l0.375-0.36
		l0.051-0.272l-0.418-0.119l0.023-0.252l0.596-0.091l0.904-0.435l0.305-0.557l0.949-1.215l-0.217-0.95l0.293-0.506l0.873,0.026
		l0.588-0.465l0.189-1.833l0.652-0.828l0.113-0.531l-0.594-0.191l-0.393-0.644l-1.342-0.013l-1.063-0.405l-0.051-0.759l-0.355-0.619
		l-0.961-0.014l-0.557-0.872l-0.494-0.241l-0.023,0.266l-0.898,0.054l-0.33-0.459l-0.936-0.19l-0.771,0.894l-1.215-0.206l-0.09-1.37
		l-0.885-0.15l0.355-0.672l-0.104-0.386l-1.164,0.778l-0.732-0.089l-0.262-0.572l0.16-0.59l0.404-0.745l0.93-0.472l1.797-0.001
		l-0.006,0.549l0.645,0.301l-0.051-0.936l0.465-0.469l0.939-0.616l0.064-0.435l0.936-0.975l0.996-0.551l-0.088-0.072l0.674-0.635
		l0.248,0.066l0.111,0.142l0.258-0.284l0.063-0.028l-0.281-0.038l-0.285-0.095v-0.276l0.152-0.122h0.332l0.152,0.066l0.133,0.265
		l0.16-0.023v-0.023l0.047,0.015l0.467-0.071l0.066-0.228l0.266,0.066v0.246l-0.248,0.171h0.002l0.035,0.271l0.846,0.261
		c0,0,0.002,0.004,0.002,0.01l0.193-0.017l0.014-0.367l-0.67-0.305l-0.037-0.176l0.557-0.189l0.023-0.532l-0.58-0.354l-0.039-0.898
		l-0.797,0.391h-0.291l0.076-0.683l-1.086-0.256l-0.449,0.339v1.035l-0.807,0.255l-0.322,0.674l-0.352,0.058v-0.863l-0.758-0.104
		l-0.379-0.248l-0.154-0.559l1.357-0.794l0.664-0.203l0.068,0.446l0.369-0.02l0.029-0.224l0.387-0.056l0.008-0.079L28.647,15.3
		l-0.037-0.236l0.475-0.04l0.289-0.3l0.014-0.021l0.004,0.001l0.088-0.09l1-0.126l0.441,0.376l-1.158,0.617l1.475,0.347l0.191-0.492
		h0.645l0.229-0.431l-0.455-0.113v-0.544l-1.43-0.633l-0.988,0.113l-0.557,0.292l0.039,0.707l-0.582-0.087l-0.09-0.393l0.557-0.506
		l-1.012-0.051l-0.291,0.088l-0.127,0.341l0.379,0.064l-0.074,0.38l-0.646,0.037l-0.102,0.253l-0.936,0.025
		c0,0-0.025-0.531-0.063-0.531s0.732-0.012,0.732-0.012l0.559-0.544l-0.305-0.152l-0.404,0.393l-0.672-0.039l-0.072-0.101
		c1.648-0.783,3.465-1.276,5.396-1.388c3.719-0.218,7.176,0.996,9.877,3.137l-0.346,0.136l-0.297,0.321l0.068,0.375l0.361,0.051
		l0.221,0.546l0.623-0.252l0.105,0.73h-0.189l-0.514-0.077l-0.568,0.096l-0.551,0.778l-0.787,0.124l-0.115,0.674l0.334,0.078
		l-0.096,0.434l-0.783-0.157l-0.717,0.157l-0.152,0.399l0.123,0.837l0.422,0.196l0.707-0.003l0.477-0.044l0.145-0.38l0.746-0.969
		l0.49,0.101l0.482-0.437l0.09,0.342l1.189,0.803l-0.145,0.194l-0.537-0.028l0.207,0.292l0.33,0.072l0.387-0.162l-0.008-0.465
		l0.172-0.085l-0.139-0.146l-0.793-0.442l-0.207-0.587h0.658l0.211,0.208l0.568,0.489l0.023,0.592l0.588,0.626L44.04,20.2
		l0.408-0.222l0.076,0.702l0.398,0.437l0.375-0.007c0.188,0.416,0.355,0.842,0.504,1.277h-0.975l-0.74-0.551l-0.777,0.076v0.475
		h-0.248l-0.264-0.188l-1.35-0.342v-0.874l-1.707,0.134l-0.531,0.284h-0.678l-0.334-0.033l-0.822,0.457v0.861L35.692,23.9
		l0.139,0.519h0.342l-0.088,0.494l-0.24,0.089l-0.014,1.291l1.455,1.656h0.633l0.039-0.102h1.139l0.328-0.304h0.645l0.355,0.354
		l0.961,0.101l-0.127,1.278l1.068,1.886l-0.563,1.075l0.039,0.507l0.443,0.441v1.218l0.58,0.782v1.012h0.502
		c-0.09,0.11-0.193,0.207-0.285,0.314h0.055C41.966,37.85,40.591,38.995,39.011,39.862z"/>
	<polygon points="39.108,17.391 39.14,17.639 38.772,17.714 38.722,18.239 39.165,18.239 39.753,18.182 40.058,17.82 39.735,17.695 
		39.558,17.492 39.292,17.063 39.165,16.454 38.665,16.556 38.526,16.771 38.526,17.012 38.767,17.176 	"/>
	<polygon points="38.685,17.594 38.71,17.265 38.419,17.139 38.009,17.233 37.704,17.72 37.704,18.036 38.058,18.036 	"/>
	<path d="M30.257,18.989l-0.092,0.232h-0.436v0.225h0.104c0,0,0.008,0.048,0.016,0.11l0.268-0.022l0.166-0.103l0.045-0.21
		l0.217-0.019l0.084-0.177l-0.197-0.041L30.257,18.989z"/>
	<polygon points="29.132,19.398 29.114,19.618 29.433,19.593 29.464,19.371 29.274,19.222 	"/>
</g>
</svg>
