<?xml version="1.0" encoding="utf-8"?>
<!-- Generator: Adobe Illustrator 16.0.0, SVG Export Plug-In . SVG Version: 6.00 Build 0)  -->
<!DOCTYPE svg PUBLIC "-//W3C//DTD SVG 1.1//EN" "http://www.w3.org/Graphics/SVG/1.1/DTD/svg11.dtd">
<svg version="1.1" id="Layer_1" xmlns="http://www.w3.org/2000/svg" xmlns:xlink="http://www.w3.org/1999/xlink" x="0px" y="0px"
	 width="64px" height="64px" viewBox="0 0 64 64" enable-background="new 0 0 64 64" xml:space="preserve">
<g>
	<path d="M20.709,41.587c2.737,3.282,6.844,5.383,11.436,5.409c0.017,0,0.034,0.003,0.051,0.003c0.004,0,0.008-0.002,0.014-0.002
		c0.007,0,0.014,0.002,0.022,0.002c4.627,0,8.771-2.107,11.524-5.411c0.252-0.303,0.491-0.617,0.72-0.94
		c1.733-2.446,2.756-5.43,2.756-8.649c0-3.219-1.022-6.201-2.756-8.648c-0.229-0.322-0.467-0.637-0.72-0.939
		C41.002,19.107,36.859,17,32.232,17c-0.008,0-0.015,0-0.022,0c-0.005,0-0.009,0-0.014,0c-0.017,0-0.034,0.002-0.051,0.002
		c-4.592,0.026-8.7,2.128-11.436,5.409c-0.252,0.303-0.492,0.617-0.72,0.939c-1.733,2.447-2.757,5.429-2.757,8.648
		s1.024,6.203,2.757,8.649C20.217,40.97,20.457,41.286,20.709,41.587z M36.507,45.085c1.4-1.335,2.565-3.3,3.361-5.667
		c1.082,0.4,2.054,0.883,2.89,1.429C41.124,42.79,38.971,44.278,36.507,45.085z M43.485,39.91c-0.949-0.635-2.05-1.188-3.27-1.641
		c0.434-1.593,0.711-3.333,0.789-5.166h4.949C45.752,35.625,44.865,37.953,43.485,39.91z M45.998,31.873H41.03
		c-0.011-2.191-0.303-4.27-0.813-6.143c1.218-0.452,2.318-1.006,3.267-1.64C45.04,26.298,45.971,28.977,45.998,31.873z
		 M42.76,23.149c-0.837,0.549-1.811,1.031-2.894,1.432c-0.797-2.366-1.96-4.333-3.36-5.667C38.971,19.72,41.126,21.209,42.76,23.149
		z M32.848,18.285c2.498,0.385,4.649,2.973,5.872,6.676c-1.763,0.522-3.755,0.839-5.872,0.891V18.285z M32.848,27.081
		c2.23-0.053,4.335-0.395,6.214-0.963c0.459,1.75,0.727,3.696,0.737,5.755h-6.951V27.081z M32.848,33.103h6.927
		c-0.075,1.699-0.322,3.31-0.708,4.779c-1.879-0.569-3.986-0.912-6.219-0.965V33.103z M32.848,38.147
		c2.116,0.053,4.11,0.369,5.875,0.892c-1.223,3.704-3.377,6.29-5.875,6.676V38.147z M21.707,40.847
		c0.82-0.536,1.771-1.011,2.826-1.406c0.79,2.335,1.936,4.276,3.315,5.607C25.429,44.234,23.316,42.759,21.707,40.847z
		 M31.617,45.724c-2.525-0.347-4.705-2.938-5.941-6.666c1.781-0.535,3.798-0.858,5.941-0.911V45.724z M31.617,36.917
		c-2.259,0.054-4.39,0.403-6.286,0.986c-0.389-1.477-0.638-3.095-0.712-4.801h6.998V36.917z M31.617,31.873h-7.023
		c0.01-2.067,0.28-4.02,0.743-5.775c1.894,0.581,4.023,0.931,6.28,0.983V31.873z M31.617,18.274v7.577
		c-2.142-0.052-4.158-0.375-5.938-0.909C26.915,21.214,29.092,18.622,31.617,18.274z M27.848,18.951
		c-1.379,1.329-2.525,3.273-3.314,5.607c-1.058-0.396-2.01-0.871-2.831-1.409C23.313,21.238,25.429,19.765,27.848,18.951z
		 M20.981,24.089c0.932,0.623,2.01,1.168,3.203,1.615c-0.515,1.881-0.81,3.966-0.82,6.168h-4.897
		C18.493,28.977,19.424,26.297,20.981,24.089z M23.387,33.103c0.08,1.843,0.359,3.592,0.795,5.19
		c-1.192,0.448-2.271,0.993-3.202,1.615c-1.38-1.957-2.269-4.284-2.47-6.806H23.387z"/>
	<path d="M32.232,9c-1.677,0-3.31,0.188-4.885,0.533l0.643,2.689c1.369-0.295,2.785-0.463,4.242-0.463
		c11.161,0,20.24,9.08,20.24,20.241c0,11.16-9.08,20.24-20.24,20.24c-11.161,0-20.241-9.08-20.241-20.24
		c0-2.306,0.398-4.517,1.111-6.583l2.063,1.426l-0.171-7.489l-6.227,3.07l1.983,1.371c-0.016,0.042-0.034,0.083-0.049,0.125
		c-0.001,0.002-0.002,0.005-0.004,0.007l0.001,0.001C9.752,26.441,9.232,29.161,9.232,32c0,12.683,10.318,23,23,23
		c12.682,0,23-10.317,23-23S44.915,9,32.232,9z"/>
</g>
</svg>
