<?xml version="1.0" encoding="utf-8"?>
<!-- Generator: Adobe Illustrator 16.0.0, SVG Export Plug-In . SVG Version: 6.00 Build 0)  -->
<!DOCTYPE svg PUBLIC "-//W3C//DTD SVG 1.1//EN" "http://www.w3.org/Graphics/SVG/1.1/DTD/svg11.dtd">
<svg version="1.1" id="Layer_1" xmlns="http://www.w3.org/2000/svg" xmlns:xlink="http://www.w3.org/1999/xlink" x="0px" y="0px"
	 width="64px" height="64px" viewBox="0 0 64 64" enable-background="new 0 0 64 64" xml:space="preserve">
<g>
	<polygon points="36.834,20.852 36.879,21.219 36.334,21.332 36.26,22.113 36.918,22.113 37.793,22.029 38.244,21.492 
		37.766,21.303 37.502,21.002 37.105,20.361 36.918,19.455 36.174,19.609 35.965,19.926 35.965,20.287 36.322,20.533 	"/>
	<polygon points="36.201,21.152 36.242,20.664 35.807,20.475 35.195,20.613 34.744,21.34 34.744,21.813 35.27,21.813 	"/>
	<path d="M56.119,31.795l-0.004-0.18c-0.033-2.176-0.359-4.328-0.963-6.393c-0.217-0.74-0.475-1.482-0.766-2.205
		c-0.58-1.447-1.309-2.844-2.16-4.15c-0.379-0.584-0.791-1.162-1.227-1.717c-1.188-1.518-2.555-2.893-4.064-4.088
		c-0.551-0.434-1.074-0.814-1.602-1.166c-3.963-2.639-8.574-4.033-13.336-4.033c-4.199,0-8.344,1.107-11.986,3.203
		c-0.586,0.336-1.158,0.695-1.697,1.068c-1.551,1.072-2.977,2.326-4.234,3.721c-0.494,0.549-0.961,1.115-1.389,1.684
		c-1.145,1.527-2.1,3.195-2.855,4.955l-0.021,0.027l-0.002,0.027c-0.037,0.086-0.08,0.168-0.115,0.254
		c-0.297,0.715-0.563,1.459-0.791,2.213c-0.619,2.047-0.961,4.188-1.016,6.365L7.885,31.6c-0.004,0.129-0.008,0.258-0.008,0.387
		c0,0.697,0.033,1.412,0.102,2.186c0.24,2.637,0.906,5.197,1.986,7.613c0.549,1.229,1.197,2.41,1.926,3.508
		c4.346,6.543,11.611,10.578,19.438,10.795l0.225,0.006l0.004,0.043l0.357-0.031l0.057,0.004c0.002,0,0.004,0,0.004,0
		c7.66,0,14.928-3.688,19.469-9.865c0.764-1.039,1.453-2.156,2.047-3.318c1.371-2.684,2.217-5.555,2.512-8.535
		c0.08-0.799,0.121-1.609,0.121-2.404C56.123,31.924,56.123,31.859,56.119,31.795z M26.889,9.975l0.381-0.105
		c0.186-0.041,0.371-0.076,0.559-0.111l0.531-0.102l-0.268,0.471c-0.705,1.236-1.766,3.23-2.826,5.709l-1.369-0.605l-0.328,0.037
		c-0.258-0.156-0.516-0.313-0.738-0.473l-0.221-0.158l0.176-0.207c1.963-2.313,3.654-3.846,4.209-4.328L26.889,9.975z
		 M17.225,19.225l0.387-0.227c-0.104,0.172-0.205,0.346-0.307,0.52L17.225,19.225z M22.465,52.535l-0.521-0.283l0.154-0.148
		L22.465,52.535z M22.902,22.613l-0.127-0.018l-0.422-0.139v-0.41l0.225-0.186h0.494l0.043,0.02
		C23.043,22.125,22.969,22.371,22.902,22.613z M22.551,22.91l0.168,0.211l0.053-0.059c-0.021,0.08-0.051,0.164-0.072,0.244
		l-0.072,0.277l-0.266-0.109c-0.203-0.084-0.4-0.178-0.602-0.268l0.422-0.396L22.551,22.91z M22.096,24.965l0.193,0.078
		l-0.043,0.205c-0.398,1.891-0.658,3.768-0.773,5.576l-0.02,0.322l-0.305-0.1c-1.727-0.563-3.355-1.273-4.867-2.1l-0.031-0.553
		l0.691-0.697l1.398-0.918l0.096-0.646l1.393-1.449l0.734-0.406C21.061,24.52,21.568,24.752,22.096,24.965z M17.703,22.711
		l0.469,0.424l-0.469,0.113V22.711z M18.086,23.434v0.451l-0.34,0.219l-0.422,0.076c0,0,0-0.678,0-0.746H18.086z M17.395,24.406
		l0.521-0.072v0.439l-0.324,0.324h-0.723l0.115-0.494l0.34-0.027L17.395,24.406z M19.186,24.18v0.439h-0.719l-0.197-0.285v-0.408
		h0.057L19.186,24.18z M18.523,23.576l0.205-0.215l0.346,0.215l-0.277,0.23L18.523,23.576z M17.463,22.783v0.465h-0.348
		c0.07-0.156,0.131-0.311,0.203-0.465H17.463z M15.445,20.932l-0.184,0.719l-0.58,0.186l-0.367-0.75l0.594-0.281L15.445,20.932z
		 M15.035,31.977c0.008-0.48,0.039-0.982,0.1-1.582l0.037-0.377l0.332,0.184c1.773,0.98,3.703,1.797,5.734,2.43l0.176,0.055v0.184
		c-0.002,0.568,0.012,1.137,0.035,1.707l-0.473-0.23l-0.037,0.395l-1.338,0.078l-0.49-0.68l-1.393-0.285l-1.148,1.328l-1.352-0.229
		C15.086,33.945,15.02,32.949,15.035,31.977z M28.734,39.656l-0.582-0.963l-1.996-0.018l-1.582-0.602l-0.076-1.129l-0.529-0.926
		l-0.924-0.012c-0.076-0.873-0.127-1.738-0.139-2.59l-0.004-0.322l0.314,0.076c2.348,0.578,4.781,0.924,7.229,1.029l0.24,0.012
		v0.238c0,1.908,0.025,3.916,0.074,5.967l0.006,0.266l-0.266-0.01c-0.342-0.014-0.682-0.037-1.023-0.059l0.143-0.678L28.734,39.656z
		 M30.711,31.219c-0.008,0.412-0.014,0.822-0.018,1.234l-0.002,0.26l-0.258-0.012c-2.484-0.111-4.941-0.477-7.303-1.084
		l-0.197-0.051l0.01-0.203c0.088-1.771,0.332-3.633,0.721-5.531l0.057-0.271l0.264,0.084c2.068,0.652,4.281,1.07,6.578,1.242
		l0.236,0.018l-0.006,0.238C30.762,28.467,30.732,29.828,30.711,31.219z M24.23,17.311l-1.307,0.697l1.361,0.322
		c-0.176,0.475-0.342,0.947-0.504,1.422h-0.264l0.115-1.02l-1.615-0.381l-0.668,0.504v1.541l-1.201,0.381l-0.48,1.002l-0.461,0.072
		c-0.021-0.014-0.041-0.027-0.063-0.041v-1.23l-0.633-0.088c0.521-0.914,1.098-1.828,1.725-2.734l0.094,0.646l0.553-0.029
		l0.043-0.336l0.574-0.08l0.01-0.117l-0.246-0.102l-0.057-0.355l0.709-0.059l0.426-0.445l0.025-0.031l0.004,0.004l0.131-0.137
		l0.504-0.063C23.396,16.887,23.807,17.105,24.23,17.311z M21.6,15.891l0.055,0.996l-0.719-0.109
		c0.201-0.271,0.398-0.543,0.605-0.813L21.6,15.891z M21.678,15.789l0.012-0.016l0.008,0.006L21.678,15.789z M15.412,16.639
		l0.818,0.021l0.207,0.49l-1.439-0.053C15.135,16.943,15.273,16.791,15.412,16.639z M10.715,30.334l0.6-1.107l1.385-0.701h0.197
		c0.25,0.18,0.484,0.369,0.746,0.545l0.131,0.086l-0.021,0.156c-0.09,0.629-0.141,1.221-0.176,1.803l-1.621,1.082l-1.09-0.131
		l-0.391-0.855L10.715,30.334z M13.541,32.176c0,0.158,0.012,0.32,0.016,0.479l-0.246-0.043L13.541,32.176z M16.137,35.586
		l0.166,1.412l-0.488,0.342c-0.021-0.01-0.045-0.018-0.066-0.027l-0.111-0.053l-0.027-0.119c-0.125-0.541-0.225-1.08-0.309-1.617
		L16.137,35.586z M18.83,43.91v1.086c-0.354-0.605-0.684-1.211-0.988-1.818C18.252,43.475,18.83,43.91,18.83,43.91z M25.59,46.094
		l0.434-0.752l1.301,0.039l0.875-0.691l0.271-2.641c0.699,0.057,1.4,0.104,2.104,0.129l0.232,0.008l0.008,0.234
		c0.063,1.982,0.148,4.014,0.252,6.039l0.014,0.271l-0.273-0.01c-1.557-0.059-3.107-0.193-4.611-0.402l-0.143-0.021l-0.055-0.135
		c-0.068-0.172-0.129-0.344-0.195-0.516l0.107-0.139L25.59,46.094z M31.041,19.375c-0.068,1.779-0.135,3.717-0.193,5.768
		l-0.008,0.264l-0.262-0.021c-2.207-0.168-4.326-0.574-6.295-1.203l-0.225-0.072l0.059-0.227c0.168-0.66,0.373-1.328,0.576-1.996
		l0.297,0.076v0.367l-0.365,0.254l0.055,0.404l1.26,0.387c0,0,0,0.006,0.002,0.016l0.289-0.025l0.02-0.547l-0.996-0.453
		l-0.059-0.264l0.828-0.279l0.035-0.791l-0.863-0.527l-0.006-0.162c0.23-0.686,0.463-1.371,0.727-2.057l0.086-0.225l0.229,0.078
		c1.455,0.498,2.998,0.826,4.584,0.979l0.236,0.021L31.041,19.375z M20.748,12.371c0.654-0.377,1.361-0.732,2.164-1.086l1.137-0.5
		l-0.854,0.9c-0.518,0.547-1.037,1.127-1.543,1.719l-0.182,0.213l-0.314-0.334c-0.17-0.178-0.338-0.355-0.48-0.545l-0.174-0.225
		L20.748,12.371z M19.061,13.443l0.199-0.139l0.145,0.195c0.275,0.369,0.602,0.744,0.969,1.117l0.154,0.156l-0.135,0.174
		c-0.104,0.133-0.201,0.268-0.303,0.4l-0.111-0.006l-0.434,0.131l-0.188,0.51l0.227,0.039c-0.16,0.219-0.314,0.441-0.469,0.662
		l-0.268,0.016l-0.15,0.377l-1.391,0.035c0,0-0.039-0.787-0.096-0.787c-0.059,0,1.092-0.02,1.092-0.02l0.83-0.811l-0.455-0.229
		l-0.602,0.586l-0.996-0.055l-0.35-0.48C17.465,14.643,18.244,14.016,19.061,13.443z M9.422,33.396l-0.006-0.109
		c-0.01-0.146-0.008-0.297-0.014-0.443l1.35,0.334v-0.32l0.791,0.111l-0.076,0.566l0.623,0.113l0.959,0.264l0.633,0.721
		c0.043,0.418,0.08,0.836,0.148,1.258l0.082,0.512l-0.451-0.254c-1.469-0.824-2.799-1.727-3.955-2.684L9.422,33.396z M13.004,44.193
		l-0.059-0.031l-0.035-0.055c-1.578-2.477-2.641-5.191-3.164-8.072l-0.109-0.604l0.5,0.355c1.236,0.877,2.615,1.695,4.098,2.432
		l0.1,0.049l0.029,0.109c0.656,2.439,1.701,4.904,3.105,7.326l0.352,0.605l-0.656-0.246C15.693,45.508,14.295,44.879,13.004,44.193z
		 M14.814,46.723l1.068,0.43c0.938,0.377,1.965,0.74,3.146,1.107l0.082,0.025l0.049,0.07c0.016,0.023,0.033,0.045,0.051,0.068
		l-0.232,1.287l0.793,1.055l-0.02,0.223c-1.514-0.977-2.902-2.127-4.143-3.432L14.814,46.723z M26.561,53.941
		c-0.232-0.059-0.465-0.119-0.695-0.184l-0.098-0.055c-0.154-0.139-1.342-1.229-2.865-3.008l1.145-0.551l0.328-0.6
		c0.152,0.025,0.295,0.055,0.451,0.08l0.135,0.023l0.055,0.127c0.57,1.336,1.184,2.615,1.824,3.805l0.27,0.5L26.561,53.941z
		 M31.162,54.588c-0.656-0.023-1.326-0.078-1.992-0.162l-0.121-0.014l-0.063-0.105c-0.313-0.516-1.139-1.939-2.076-4.002
		l-0.184-0.402l0.439,0.051c1.25,0.145,2.52,0.238,3.77,0.281l0.227,0.008l0.014,0.227c0.088,1.553,0.174,2.861,0.244,3.852
		l0.02,0.277L31.162,54.588z M31.506,9.652c-0.096,1.645-0.238,4.318-0.383,7.723l-0.012,0.264l-0.264-0.025
		c-1.363-0.135-2.719-0.422-4.025-0.852l-0.258-0.084l0.107-0.252c1.463-3.424,2.943-5.955,3.514-6.885l0.066-0.109l0.129-0.008
		c0.225-0.016,0.451-0.023,0.676-0.031l0.467-0.014L31.506,9.652z M32.209,31.313h0.256l-0.133,0.736l-0.133,0.049
		C32.201,31.836,32.205,31.574,32.209,31.313z M39.984,17.979l0.23-0.09c0.045-0.018,0.09-0.043,0.137-0.061l-0.121,0.211
		l-0.195,0.078L39.984,17.979z M39.322,26.277c0.389-0.084,0.779-0.164,1.162-0.264l0.258-0.068l0.051,0.262
		c0.098,0.498,0.162,0.982,0.238,1.473l-0.715-0.182v-1.297L39.322,26.277z M48.236,25.438h-0.75l-1.465-0.063l-0.441,0.063v-1.002
		l0.33-0.367l0.355-0.111l0.777-0.092l0.17-0.264l0.318,0.158l0.043,0.91l0.457,0.188C48.102,25.051,48.17,25.244,48.236,25.438z
		 M42.973,25.379l0.877,0.932l0.324-1.275l0.607-0.332l0.113,1.045l0.592,0.65l1.789-0.031l0.527,0.398v0.932l-0.648,0.592h-1.809
		l-1.104-0.82l-1.156,0.115v0.705h-0.367l-0.063-0.043c-0.109-0.826-0.248-1.656-0.412-2.486l-0.004-0.268l0.162-0.057
		c0.191-0.064,0.375-0.141,0.564-0.209L42.973,25.379z M42.129,23.959l-0.26,0.092l-0.066-0.268
		c-0.025-0.107-0.063-0.217-0.09-0.324h0.066l0.311,0.311l0.166,0.143C42.213,23.928,42.172,23.945,42.129,23.959z M51.221,26.105
		l0.064-0.303l0.492-0.424v-0.355l-0.943-0.689l-0.039-0.875l0.191-0.432l0.762-0.064l0.648,0.27l0.029,0.453l-0.924-0.051
		l-0.045,0.418l1.158,0.771v0.566l0.113,0.084C52.49,25.705,52.26,25.936,52,26.16L51.221,26.105z M44.031,17.584l-1.121,0.688
		v0.451l0.635,0.295l0.041,0.607l-0.895,1.334l-1.557-0.016l-0.098-0.322l0.975-0.494l0.006-1.844l1.652-1.152h0.137
		c0.074,0.104,0.15,0.207,0.225,0.313V17.584z M40.119,24.287l0.301,0.201v0.002l-0.238,0.063c-0.73,0.191-1.473,0.344-2.223,0.477
		l0.576-0.75l0.73,0.148l0.719-0.65L40.119,24.287z M37.307,26.648l-0.322,0.172h-1.008l-0.049-0.004
		C36.389,26.77,36.85,26.715,37.307,26.648z M41.342,44.199l0.162,0.162v1.814l0.863,1.162v0.389
		c-0.619,0.133-1.262,0.258-1.924,0.371l-0.428,0.074l0.152-0.408C40.611,46.576,41,45.385,41.342,44.199z M48.1,30.527
		c0.156-0.082,0.313-0.164,0.467-0.248l0.855,1.037c0.012,0.227,0.023,0.449,0.027,0.66c0.006,0.35-0.004,0.705-0.018,1.063
		L48.1,30.527z M51.574,28.359c0.111-0.082,0.227-0.164,0.336-0.248h0.309l0.094,0.811l1.344,0.77l0.846,0.041
		c0.033,0.332,0.066,0.662,0.084,0.994l-0.125-0.016c0,0-2.9-1.367-2.9-1.428C51.561,29.242,51.568,28.691,51.574,28.359z
		 M45.693,14.289l0.158-0.172l0.182,0.145c1.1,0.871,2.105,1.842,3.02,2.887l-0.307,0.143l-0.219-0.631l-0.359,0.094l-0.26,0.699
		l-0.754,0.586l-0.889-0.023c-0.098-0.156-0.205-0.309-0.307-0.463l1.195-0.053l0.395-0.34l-2.316-1.074l-0.285,0.008
		c-0.111-0.154-0.219-0.311-0.332-0.463l-0.143-0.188l0.18-0.152C45.041,14.957,45.391,14.621,45.693,14.289z M41.951,11.688
		c0.908,0.447,1.713,0.904,2.463,1.4l0.25,0.164l-0.205,0.217c-0.189,0.201-0.406,0.389-0.621,0.576l-0.273,0.24l-0.162-0.201
		c-0.563-0.684-1.15-1.357-1.744-2.002l-0.914-0.988L41.951,11.688z M36.611,9.848c0.248,0.053,0.492,0.107,0.734,0.166l0.105,0.055
		c0.547,0.473,2.498,2.227,4.695,4.896l0.182,0.225l-0.246,0.148c-0.76,0.461-1.572,0.857-2.416,1.178l-0.227,0.086l-0.092-0.225
		c-1.111-2.672-2.246-4.824-3.004-6.16l-0.273-0.48L36.611,9.848z M32.621,17.455c0.145-3.449,0.291-6.15,0.389-7.811l0.014-0.248
		l0.25,0.014c0.256,0.016,0.508,0.031,0.762,0.053l0.125,0.012l0.064,0.107c0.598,0.977,2.146,3.631,3.645,7.201l0.111,0.27
		l-0.281,0.07c-1.568,0.395-3.189,0.594-4.822,0.594h-0.26L32.621,17.455z M32.346,25.219c0.059-2.051,0.125-3.988,0.193-5.764
		l0.01-0.24h0.295c0.002,0,0.004,0,0.008,0c1.877,0,3.701-0.24,5.463-0.713l0.219-0.059l0.082,0.211
		c0.063,0.172,0.113,0.342,0.176,0.512l0.057,0.318l0.055,0.008c0.184,0.512,0.365,1.023,0.529,1.535l-0.525,0.088l-0.82,1.158
		l-1.174,0.184l-0.168,1.002l0.494,0.117l-0.141,0.645l-1.166-0.232l-1.066,0.232l-0.227,0.596l0.09,0.607
		c-0.613,0.039-1.23,0.059-1.852,0.059l-0.537-0.01L32.346,25.219z M32.299,26.973l0.578,0.01c0.809,0,1.611-0.043,2.408-0.105
		l-1.033,0.574v1.281l-2.021,1.461c0.02-1.004,0.039-2.01,0.063-2.975L32.299,26.973z M32.26,40.453
		c-0.049-2.037-0.074-4.047-0.074-5.973v-0.121l1.936,2.207h0.941l0.057-0.15h1.695l0.488-0.451h0.961l0.527,0.527l1.432,0.148
		l-0.189,1.902l0.725,1.279l-0.096,0.02c-2.631,0.543-5.375,0.83-8.15,0.855l-0.246,0.002L32.26,40.453z M32.57,48.529
		c-0.105-2.031-0.189-4.078-0.254-6.082l-0.008-0.256l0.254-0.002c2.523-0.025,5.068-0.275,7.564-0.742l0.379-0.07l-0.09,0.373
		c-0.514,2.178-1.211,4.373-2.074,6.527l-0.057,0.139l-0.146,0.018c-1.787,0.213-3.576,0.324-5.318,0.334h-0.238L32.57,48.529z
		 M35.385,54.33l-0.115,0.016c-0.674,0.1-1.375,0.168-2.084,0.205l-0.246,0.014l-0.016-0.246c-0.068-0.963-0.154-2.252-0.244-3.787
		l-0.016-0.264l0.264-0.002c1.4-0.01,2.832-0.084,4.254-0.221l0.432-0.041l-0.182,0.395c-0.863,1.887-1.613,3.209-1.984,3.828
		L35.385,54.33z M38.969,53.471l-0.096,0.057c-0.297,0.094-0.6,0.176-0.9,0.258l-0.627,0.17l0.273-0.512
		c0.596-1.115,1.166-2.305,1.693-3.533l0.057-0.127l0.137-0.021c1.027-0.15,1.869-0.297,2.65-0.461l0.684-0.141l-0.438,0.543
		C40.836,51.654,39.479,52.988,38.969,53.471z M47.682,48.27c-1.162,1.121-2.508,2.146-4,3.053l-1.254,0.76l0.932-1.133
		c0.604-0.736,1.188-1.502,1.738-2.275l0.131-0.135l0.045-0.014c0.816-0.232,1.521-0.453,2.154-0.672l1.07-0.369L47.682,48.27z
		 M54.219,36.232c-0.367,1.924-0.979,3.768-1.816,5.514h-0.146l-0.678,1.355l-1.168-0.152v0.906l0.414,0.488l-0.318,0.488
		l-0.277,0.322c-0.922,0.416-1.936,0.818-3.1,1.225h-0.002l0.328-0.584l0.77-0.17v-0.904l0.51-0.604l1.074-1.469l-0.227-2.236
		l-0.063-0.111c0.184-0.525,0.34-1.053,0.49-1.578l1.217-1.16v-0.002c0.982-0.533,1.842-1.055,2.604-1.58l0.502-0.35L54.219,36.232z
		 M54.568,33.498l-0.008,0.109l-0.086,0.068c-0.346,0.279-0.727,0.545-1.1,0.813l0.18-0.258l-0.451-0.207l-2.285,0.48
		c0.025-0.229,0.063-0.461,0.078-0.688l1.15-0.076l2.479-1.793l0.096-0.063c0,0.035,0.002,0.068,0.002,0.102
		C54.623,32.445,54.605,32.926,54.568,33.498z"/>
</g>
</svg>
