<?xml version="1.0" encoding="utf-8"?>
<!-- Generator: Adobe Illustrator 16.0.0, SVG Export Plug-In . SVG Version: 6.00 Build 0)  -->
<!DOCTYPE svg PUBLIC "-//W3C//DTD SVG 1.1//EN" "http://www.w3.org/Graphics/SVG/1.1/DTD/svg11.dtd">
<svg version="1.1" id="Layer_1" xmlns="http://www.w3.org/2000/svg" xmlns:xlink="http://www.w3.org/1999/xlink" x="0px" y="0px"
	 width="64px" height="64px" viewBox="0 0 64 64" enable-background="new 0 0 64 64" xml:space="preserve">
<g>
	<path d="M20.141,30.725h10.572v-10.65c-3.213,0-6.536,0.264-9.71,0.658C20.571,23.932,20.24,27.357,20.141,30.725z"/>
	<path d="M21.624,16.625c2.974-0.334,6.063-0.551,9.089-0.551v-7.41c-2.805,0.15-5.477,0.799-7.933,1.854
		C22.416,12.244,22.009,14.322,21.624,16.625z"/>
	<path d="M22.453,53.334c2.546,1.141,5.33,1.844,8.26,2.002v-6.893c-3.133-0.094-6.29-0.389-9.278-0.787
		C21.763,49.73,22.117,51.652,22.453,53.334z"/>
	<path d="M20.848,43.527c3.163,0.457,6.543,0.807,9.865,0.912v-9.715H20.141C20.228,37.676,20.493,40.676,20.848,43.527z"/>
	<path d="M34.713,44.439c3.292-0.104,6.643-0.449,9.782-0.9c0.385-2.855,0.672-5.859,0.767-8.814H34.713V44.439z"/>
	<path d="M49.264,30.725h6.074c-0.144-2.678-0.741-5.234-1.712-7.6c-1.429-0.334-3.148-0.711-5.072-1.086
		C48.913,24.852,49.177,27.797,49.264,30.725z"/>
	<path d="M48.622,42.869c1.629-0.291,3.15-0.596,4.517-0.889c1.062-2.246,1.774-4.688,2.072-7.256h-5.947
		C49.183,37.465,48.947,40.223,48.622,42.869z"/>
	<path d="M51.038,18.447c-1.077-1.51-2.328-2.885-3.726-4.1c0.213,1.109,0.425,2.273,0.626,3.492
		C49.029,18.039,50.064,18.244,51.038,18.447z"/>
	<path d="M34.713,20.201v10.523h10.549c-0.101-3.168-0.425-6.387-0.852-9.422C41.356,20.813,38.034,20.398,34.713,20.201z"/>
	<path d="M16.884,21.324c-2.271,0.369-4.386,0.777-6.236,1.168c-1.132,2.539-1.829,5.313-1.986,8.232h7.477
		C16.226,27.549,16.507,24.348,16.884,21.324z"/>
	<path d="M13.546,46.336c1.248,1.605,2.698,3.043,4.316,4.273c-0.2-1.139-0.396-2.336-0.582-3.584
		C15.97,46.803,14.719,46.57,13.546,46.336z"/>
	<path d="M47.633,49.373c0.927-0.834,1.785-1.742,2.568-2.715c-0.705,0.131-1.426,0.26-2.171,0.387
		C47.902,47.844,47.769,48.617,47.633,49.373z"/>
	<path d="M13.392,17.859c1.295-0.238,2.659-0.473,4.079-0.688c0.224-1.416,0.459-2.758,0.693-4.008
		C16.357,14.492,14.75,16.076,13.392,17.859z"/>
	<path d="M42.548,11.145c-2.403-1.219-5.043-2.033-7.835-2.355v7.402c3.091,0.172,6.165,0.521,9.037,0.951
		C43.355,14.908,42.934,12.873,42.548,11.145z"/>
	<path d="M16.139,34.725h-7.35c0.283,2.436,0.941,4.756,1.915,6.906c1.715,0.389,3.764,0.818,6.029,1.227
		C16.433,40.213,16.214,37.459,16.139,34.725z"/>
	<path d="M34.713,55.211c2.929-0.338,5.693-1.217,8.189-2.535c0.319-1.514,0.648-3.199,0.958-5.002
		c-2.949,0.389-6.06,0.678-9.146,0.77V55.211z"/>
</g>
</svg>
