<?xml version="1.0" encoding="utf-8"?>
<!-- Generator: Adobe Illustrator 16.0.0, SVG Export Plug-In . SVG Version: 6.00 Build 0)  -->
<!DOCTYPE svg PUBLIC "-//W3C//DTD SVG 1.1//EN" "http://www.w3.org/Graphics/SVG/1.1/DTD/svg11.dtd">
<svg version="1.1" id="Layer_1" xmlns="http://www.w3.org/2000/svg" xmlns:xlink="http://www.w3.org/1999/xlink" x="0px" y="0px"
	 width="64px" height="64px" viewBox="0 0 64 64" enable-background="new 0 0 64 64" xml:space="preserve">
<g>
	<path d="M43.364,30.05c-0.206-0.292-0.421-0.575-0.649-0.85c-2.485-2.981-6.225-4.882-10.4-4.882c-0.007,0-0.014,0-0.021,0
		c-0.004,0-0.008,0-0.012,0c-0.016,0-0.031,0.001-0.047,0.001c-4.144,0.024-7.851,1.919-10.32,4.882
		c-0.228,0.274-0.443,0.558-0.649,0.849c-1.564,2.207-2.488,4.899-2.488,7.806c0,2.905,0.924,5.597,2.488,7.806
		c0.206,0.29,0.422,0.574,0.649,0.849c2.47,2.961,6.177,4.857,10.32,4.881c0.016,0,0.031,0.002,0.047,0.002
		c0.004,0,0.008-0.002,0.012-0.002c0.007,0,0.014,0.002,0.021,0.002c4.176,0,7.915-1.9,10.4-4.883
		c0.229-0.273,0.443-0.558,0.649-0.849c1.564-2.209,2.488-4.9,2.488-7.806S44.929,32.257,43.364,30.05z M28.358,26.078
		c-1.245,1.201-2.278,2.955-2.991,5.062c-0.954-0.356-1.814-0.786-2.555-1.271C24.266,28.143,26.175,26.815,28.358,26.078z
		 M22.16,30.717c0.842,0.562,1.814,1.055,2.891,1.458c-0.464,1.696-0.73,3.579-0.74,5.566h-4.42
		C19.915,35.128,20.756,32.709,22.16,30.717z M19.932,38.852h4.4c0.071,1.663,0.323,3.241,0.719,4.685
		c-1.076,0.404-2.05,0.896-2.891,1.458C20.915,43.228,20.113,41.128,19.932,38.852z M22.815,45.841
		c0.74-0.484,1.598-0.911,2.551-1.269c0.713,2.106,1.747,3.859,2.992,5.061C26.175,48.897,24.268,47.567,22.815,45.841z
		 M31.759,50.242c-2.278-0.312-4.246-2.65-5.361-6.016c1.607-0.481,3.428-0.774,5.361-0.821V50.242z M31.759,42.294
		c-2.038,0.048-3.961,0.364-5.673,0.889c-0.351-1.33-0.574-2.792-0.643-4.331h6.315V42.294z M31.759,37.742h-6.338
		c0.01-1.866,0.253-3.629,0.671-5.212c1.709,0.523,3.631,0.839,5.667,0.888V37.742z M31.759,32.306
		c-1.932-0.046-3.752-0.339-5.358-0.819c1.116-3.365,3.081-5.705,5.358-6.018V32.306z M44.737,37.742h-4.482
		c-0.011-1.979-0.274-3.854-0.734-5.545c1.1-0.407,2.092-0.906,2.948-1.479C43.873,32.71,44.714,35.128,44.737,37.742z
		 M41.815,29.869c-0.755,0.495-1.634,0.93-2.611,1.291c-0.719-2.135-1.769-3.909-3.032-5.115
		C38.396,26.773,40.342,28.119,41.815,29.869z M32.87,25.477c2.254,0.349,4.195,2.684,5.299,6.026
		c-1.592,0.471-3.39,0.757-5.299,0.803V25.477z M32.87,33.417c2.013-0.049,3.913-0.356,5.607-0.869
		c0.415,1.578,0.656,3.335,0.666,5.193H32.87V33.417z M32.87,38.852h6.251c-0.067,1.534-0.291,2.986-0.639,4.313
		c-1.696-0.513-3.598-0.823-5.612-0.87V38.852z M32.87,50.234v-6.829c1.91,0.047,3.709,0.332,5.302,0.804
		C37.068,47.552,35.124,49.885,32.87,50.234z M36.172,49.667c1.264-1.206,2.315-2.979,3.034-5.115
		c0.976,0.362,1.854,0.796,2.607,1.29C40.339,47.593,38.396,48.937,36.172,49.667z M42.47,44.996
		c-0.856-0.574-1.85-1.072-2.95-1.482c0.392-1.437,0.642-3.007,0.712-4.661h4.466C44.517,41.128,43.715,43.229,42.47,44.996z"/>
	<path d="M44.999,23.287v-6.355h2.209l-4.195-7.745l-4.196,7.745h2.209v3.618c-1.933-1.004-4.053-1.687-6.293-2v-4.462h2.208
		l-4.194-7.744l-4.196,7.744h2.209v4.312c-2.696,0.17-5.243,0.88-7.538,2.032v-3.5h2.208l-4.195-7.745l-4.195,7.745h2.209v6.132
		c-4.22,3.608-6.907,8.959-6.907,14.934c0,10.841,8.819,19.66,19.66,19.66s19.66-8.819,19.66-19.66
		C51.66,32.142,49.073,26.891,44.999,23.287z M32,54.657c-9.187,0-16.66-7.474-16.66-16.66s7.474-16.66,16.66-16.66
		s16.66,7.474,16.66,16.66S41.187,54.657,32,54.657z"/>
</g>
</svg>
