<?xml version="1.0" encoding="utf-8"?>
<!-- Generator: Adobe Illustrator 16.0.0, SVG Export Plug-In . SVG Version: 6.00 Build 0)  -->
<!DOCTYPE svg PUBLIC "-//W3C//DTD SVG 1.1//EN" "http://www.w3.org/Graphics/SVG/1.1/DTD/svg11.dtd">
<svg version="1.1" id="Layer_1" xmlns="http://www.w3.org/2000/svg" xmlns:xlink="http://www.w3.org/1999/xlink" x="0px" y="0px"
	 width="64px" height="64px" viewBox="0 0 64 64" enable-background="new 0 0 64 64" xml:space="preserve">
<g>
	<path d="M56.375,32c0-13.438-10.934-24.373-24.373-24.374H32C18.559,7.626,7.625,18.561,7.625,32c0,0.056,0.004,0.109,0.006,0.165
		c-0.002,0.028-0.006,0.057-0.006,0.086c0,0.093,0.012,0.184,0.014,0.275C7.92,45.71,18.715,56.351,31.959,56.372
		c0.014,0,0.027,0.002,0.041,0.002c0.016,0,0.029-0.002,0.043-0.002c13.244-0.024,24.035-10.664,24.318-23.846
		c0.004-0.092,0.014-0.183,0.014-0.275c0-0.029-0.004-0.058-0.006-0.086C56.371,32.109,56.375,32.056,56.375,32z M53.705,26.576
		c-2.324-2.302-6.039-4.162-10.627-5.317c-1.133-4.684-2.996-8.488-5.316-10.876C45.588,12.471,51.736,18.703,53.705,26.576z
		 M33,9.738c3.305,0.729,6.203,5.023,7.852,11.029C38.41,20.301,35.773,20.023,33,19.97V9.738z M31,9.738V19.97
		c-2.771,0.054-5.41,0.331-7.85,0.797C24.799,14.761,27.697,10.468,31,9.738z M26.238,10.382c-2.318,2.388-4.182,6.192-5.314,10.877
		c-4.588,1.155-8.305,3.015-10.629,5.317C12.262,18.702,18.412,12.469,26.238,10.382z M20.451,23.486
		c-0.455,2.492-0.711,5.188-0.738,8.015H9.695C10.25,28.153,14.461,25.191,20.451,23.486z M19.732,33.501
		c0.076,2.663,0.363,5.195,0.822,7.543c-5.744-1.615-9.873-4.383-10.75-7.543H19.732z M10.482,38.112
		c2.359,2.239,6.051,4.044,10.578,5.165c1.143,4.438,2.949,8.044,5.178,10.34C18.641,51.591,12.629,45.659,10.482,38.112z
		 M31,54.262c-3.205-0.707-6.029-4.771-7.699-10.498c2.398,0.449,4.984,0.715,7.699,0.768V54.262z M31,42.532
		c-2.92-0.063-5.713-0.398-8.264-0.95c-0.561-2.489-0.91-5.222-1.002-8.081l-0.021-2c0.033-3.022,0.355-5.918,0.912-8.559
		c2.58-0.566,5.412-0.91,8.375-0.974h2c2.963,0.063,5.795,0.408,8.375,0.974c0.557,2.641,0.881,5.536,0.912,8.559l-0.021,2
		c-0.092,2.858-0.441,5.592-1,8.081c-2.553,0.552-5.346,0.887-8.266,0.95H31z M33,54.262v-9.73c2.717-0.053,5.303-0.319,7.701-0.768
		C39.029,49.49,36.205,53.554,33,54.262z M37.764,53.616c2.229-2.296,4.035-5.902,5.178-10.339
		c4.525-1.122,8.217-2.926,10.576-5.165C51.371,45.658,45.359,51.59,37.764,53.616z M43.445,41.044
		c0.461-2.348,0.746-4.881,0.824-7.543h9.926C53.318,36.66,49.189,39.429,43.445,41.044z M44.287,31.501
		c-0.027-2.826-0.283-5.521-0.738-8.015c5.99,1.705,10.203,4.667,10.756,8.015H44.287z"/>
	<polygon points="33.643,33.926 32.168,36.906 33.617,39.262 33.643,38.271 36.447,38.252 38.275,35.061 33.662,35.073 	"/>
	<path d="M32.736,34.948h-5.09l-0.059,0.006c-0.047,0.008-1.141,0.215-1.141,2.091c0,1.01,0.342,1.668,1.039,1.962
		c0.16,0.135,0.537,0.135,1.297,0.135c1.354,0,3.564-0.067,3.588-0.068l0.578-0.019l-1.229-2.192L32.736,34.948z M31.768,38.386
		c-0.75,0.019-2.068,0.051-2.984,0.051c-0.588,0-0.809-0.014-0.891-0.021c-0.029-0.016-0.061-0.03-0.098-0.044
		c-0.176-0.063-0.643-0.232-0.643-1.326c0-1.133,0.449-1.358,0.539-1.392h3.873l-0.645,1.219L31.768,38.386z"/>
	<polygon points="29.471,32.938 27.674,30.142 24.906,30.176 25.742,30.705 24.32,33.122 26.119,36.33 28.479,32.364 	"/>
	<path d="M29.059,31.636l2.615-4.369l0.025-0.054c0.018-0.044,0.4-1.087-1.209-2.052c-0.469-0.281-0.91-0.424-1.307-0.424
		c-0.488,0-0.793,0.214-0.949,0.338c-0.227,0.112-0.633,0.731-2.525,4.127l-0.281,0.508l2.512,0.073L29.059,31.636z M28.566,25.705
		c0.037-0.022,0.068-0.047,0.094-0.068c0.09-0.072,0.24-0.195,0.523-0.195c0.268,0,0.586,0.11,0.945,0.325
		c0.975,0.582,0.934,1.083,0.918,1.177l-1.99,3.324l-0.713-1.18l-1.736-0.048C27.371,27.68,28.324,26.025,28.566,25.705z"/>
	<polygon points="32.51,29.556 35.826,29.315 37.121,26.871 36.256,27.352 34.816,24.944 31.137,24.987 33.488,28.957 	"/>
	<path d="M33.85,29.816l2.584,4.388l0.033,0.049c0.033,0.038,0.336,0.376,0.969,0.376c0.426,0,0.9-0.152,1.412-0.455
		c0.891-0.523,1.279-1.168,1.156-1.941c0.02-0.18-0.146-0.604-2.412-4.191l-0.311-0.49l-1.268,2.17L33.85,29.816z M37.305,28.909
		c0.832,1.327,1.832,2.968,1.99,3.322c0,0.033,0.004,0.069,0.012,0.108c0.035,0.184,0.127,0.672-0.816,1.228
		c-0.402,0.236-0.758,0.356-1.055,0.356c-0.25,0-0.381-0.088-0.418-0.116l-1.965-3.339l1.377-0.06L37.305,28.909z"/>
</g>
</svg>
