<?xml version="1.0" encoding="utf-8"?>
<!-- Generator: Adobe Illustrator 16.0.0, SVG Export Plug-In . SVG Version: 6.00 Build 0)  -->
<!DOCTYPE svg PUBLIC "-//W3C//DTD SVG 1.1//EN" "http://www.w3.org/Graphics/SVG/1.1/DTD/svg11.dtd">
<svg version="1.1" id="Layer_1" xmlns="http://www.w3.org/2000/svg" xmlns:xlink="http://www.w3.org/1999/xlink" x="0px" y="0px"
	 width="64px" height="64px" viewBox="0 0 64 64" enable-background="new 0 0 64 64" xml:space="preserve">
<g>
	<path fill="none" d="M26.303,9.406c0.03,0.014,0.066,0.031,0.098,0.045c1.384-0.358,2.829-0.592,4.329-0.688
		C29.186,8.844,27.708,9.063,26.303,9.406z"/>
	<path fill="none" d="M23.27,10.51c-0.066-0.02-0.136-0.041-0.187-0.056c-7.005,2.888-11.768,9.04-13.56,15.688
		c0.034,0.057,0.079,0.131,0.121,0.2C11.449,19.505,16.384,13.413,23.27,10.51z"/>
	<path fill="none" d="M11.175,42.374c1.097,2.191,2.539,4.174,4.238,5.905c-1.695-1.764-3.12-3.788-4.199-6.014
		C11.202,42.301,11.186,42.344,11.175,42.374z"/>
	<path fill="none" d="M9.068,29.302c-0.046-0.066-0.099-0.14-0.142-0.204C8.797,30.066,8.726,31.036,8.726,32
		c0,2.685,0.463,5.263,1.304,7.664c0.021-0.046,0.048-0.099,0.07-0.145c-0.784-2.337-1.215-4.835-1.215-7.436
		C8.885,31.153,8.951,30.225,9.068,29.302z"/>
	<path d="M38.02,15.126c0.329-2.451,0.571-4.374,0.697-5.407C36.589,9.075,34.335,8.726,32,8.726c-0.43,0-0.852,0.017-1.271,0.038
		c-1.5,0.096-2.945,0.329-4.329,0.688c2.446,1.059,6.036,3.039,9.659,6.555C36.603,15.538,37.273,15.227,38.02,15.126z"/>
	<path d="M29.12,45.815c-0.778-0.532-1.345-1.348-1.562-2.297c-4.421-1.237-8.127-3.536-11.113-6.042
		c-0.523,0.271-1.108,0.438-1.738,0.438c-0.431,0-0.837-0.087-1.223-0.219c-1.325,2.156-2.001,3.812-2.271,4.569
		c1.079,2.226,2.504,4.25,4.199,6.014c2.573,2.621,5.749,4.649,9.316,5.825C25.489,52.752,27.22,49.617,29.12,45.815z"/>
	<path d="M14.707,30.297c0.554,0,1.076,0.124,1.55,0.336c2.143-2.303,4.877-4.729,8.387-7.061c3.347-2.224,6.798-3.682,10.085-4.632
		c-0.001-0.019-0.006-0.037-0.006-0.059c0-0.374,0.07-0.728,0.171-1.069c-5.087-5.027-10.169-6.857-11.624-7.303
		c-6.886,2.903-11.82,8.995-13.625,15.833c0.495,0.819,1.571,2.487,3.196,4.462C13.395,30.491,14.024,30.297,14.707,30.297z"/>
	<path d="M10.898,34.105c0-0.646,0.176-1.245,0.46-1.778c-0.924-1.119-1.693-2.155-2.29-3.025c-0.117,0.923-0.184,1.852-0.184,2.782
		c0,2.601,0.431,5.099,1.215,7.436c0.401-0.856,0.95-1.886,1.658-3.03C11.229,35.835,10.898,35.013,10.898,34.105z"/>
	<path d="M42.083,17.534c3.394-0.341,6.249-0.232,8.078-0.065c-2.476-3.086-5.717-5.529-9.436-7.039
		c-0.137,1.104-0.357,2.842-0.646,4.979C41.001,15.82,41.723,16.586,42.083,17.534z"/>
	<path d="M39.036,22.758c-0.256,1.709-0.531,3.479-0.823,5.247c-0.56,3.408-2.206,7.831-4.108,12.147
		c0.565,0.639,0.919,1.46,0.954,2.371c2.726,0.177,5.176,0.15,7.345-0.002c0.204-1.227,0.99-2.246,2.068-2.779
		c-0.09-4.426-0.979-9.411-3.624-14.098C40.268,24.615,39.659,23.659,39.036,22.758z"/>
	<path d="M51.787,19.765c-0.85-0.132-4.585-0.625-9.523-0.123c-0.178,0.88-0.67,1.637-1.342,2.184
		c0.596,0.878,1.179,1.805,1.738,2.796c2.798,4.957,3.795,10.148,3.935,14.762c1.295,0.152,2.383,0.944,2.945,2.062
		c2.224-0.541,3.681-1.115,4.293-1.386c0.931-2.512,1.441-5.227,1.441-8.059C55.274,27.514,53.995,23.322,51.787,19.765z"/>
	<path d="M46.149,46.955c-0.015,0-0.027-0.004-0.041-0.004c-0.255,1.639-0.57,3.056-0.86,4.169c3.088-2.146,5.632-5.021,7.386-8.372
		c-0.74,0.246-1.65,0.512-2.712,0.767C49.733,45.442,48.127,46.955,46.149,46.955z"/>
	<path d="M42.635,44.612c-1.187,0.086-2.447,0.138-3.798,0.138c-1.348,0-2.787-0.058-4.297-0.169
		c-0.661,1.129-1.873,1.896-3.275,1.896c-0.045,0-0.087-0.012-0.131-0.014c-1.79,3.594-3.447,6.623-4.34,8.216
		c1.676,0.385,3.415,0.595,5.206,0.595c3.819,0,7.423-0.931,10.606-2.568c0.288-0.872,0.989-3.215,1.451-6.381
		C43.428,45.91,42.929,45.317,42.635,44.612z"/>
	<path d="M32.316,39.024c1.795-4.094,3.328-8.226,3.844-11.357c0.296-1.792,0.573-3.58,0.831-5.306
		c-0.677-0.301-1.247-0.79-1.647-1.404c-3.13,0.892-6.404,2.259-9.549,4.349c-3.305,2.196-5.898,4.492-7.929,6.672
		c0.41,0.607,0.65,1.34,0.65,2.128c0,0.69-0.198,1.33-0.521,1.889c2.665,2.209,5.914,4.204,9.708,5.357
		c0.536-1.451,1.922-2.492,3.561-2.492C31.632,38.859,31.98,38.928,32.316,39.024z"/>
</g>
</svg>
