<?xml version="1.0" encoding="utf-8"?>
<!-- Generator: Adobe Illustrator 16.0.0, SVG Export Plug-In . SVG Version: 6.00 Build 0)  -->
<!DOCTYPE svg PUBLIC "-//W3C//DTD SVG 1.1//EN" "http://www.w3.org/Graphics/SVG/1.1/DTD/svg11.dtd">
<svg version="1.1" id="Layer_1" xmlns="http://www.w3.org/2000/svg" xmlns:xlink="http://www.w3.org/1999/xlink" x="0px" y="0px"
	 width="64px" height="64px" viewBox="0 0 64 64" enable-background="new 0 0 64 64" xml:space="preserve">
<g>
	<path d="M33,54.349c2.395-0.105,4.689-0.59,6.832-1.394c0.541-0.95,1.762-3.365,2.797-7.219H33V54.349z"/>
	<path d="M42.729,51.627c2.688-1.475,5.037-3.488,6.912-5.891h-4.918C44.086,48.24,43.359,50.191,42.729,51.627z"/>
	<path d="M44.285,33.5H33v10.236h10.117C43.732,40.93,44.197,37.513,44.285,33.5z"/>
	<path d="M46.301,31.5h8.061c-0.088-3.912-1.18-7.578-3.035-10.751h-6.094C45.832,23.743,46.26,27.331,46.301,31.5z"/>
	<path d="M45.184,43.736h5.854c1.865-3.014,3.031-6.501,3.279-10.236h-8.029C46.203,37.474,45.773,40.896,45.184,43.736z"/>
	<path d="M43.178,20.749H33V31.5h11.301C44.256,27.305,43.801,23.709,43.178,20.749z"/>
	<path d="M39.82,11.039c-2.139-0.8-4.432-1.282-6.82-1.388v9.098h9.709C41.652,14.641,40.375,12.047,39.82,11.039z"/>
	<path d="M50.014,18.749c-1.941-2.633-4.443-4.827-7.332-6.403c0.664,1.533,1.441,3.66,2.111,6.403H50.014z"/>
	<path d="M21.75,18.749H31V9.651c-2.178,0.097-4.273,0.508-6.248,1.186C24.281,11.658,22.887,14.325,21.75,18.749z"/>
	<path d="M21.342,43.736H31V33.5H20.174C20.262,37.513,20.727,40.93,21.342,43.736z"/>
	<path d="M20.158,31.5H31V20.749h-9.719C20.658,23.708,20.203,27.305,20.158,31.5z"/>
	<path d="M24.744,53.159c1.975,0.68,4.074,1.093,6.256,1.189v-8.612h-9.17C22.949,49.904,24.285,52.388,24.744,53.159z"/>
	<path d="M21.908,12.04c-3.135,1.593-5.85,3.898-7.922,6.709h5.68C20.379,15.824,21.219,13.588,21.908,12.04z"/>
	<path d="M19.225,20.749h-6.553c-1.854,3.173-2.947,6.839-3.033,10.751h8.52C18.199,27.331,18.627,23.743,19.225,20.749z"/>
	<path d="M18.172,33.5h-8.49c0.25,3.735,1.416,7.223,3.279,10.236h6.314C18.684,40.896,18.256,37.474,18.172,33.5z"/>
	<path d="M14.357,45.736c2.012,2.578,4.574,4.704,7.51,6.202c-0.66-1.457-1.447-3.515-2.131-6.202H14.357z"/>
</g>
</svg>
