<?xml version="1.0" encoding="utf-8"?>
<!-- Generator: Adobe Illustrator 16.0.0, SVG Export Plug-In . SVG Version: 6.00 Build 0)  -->
<!DOCTYPE svg PUBLIC "-//W3C//DTD SVG 1.1//EN" "http://www.w3.org/Graphics/SVG/1.1/DTD/svg11.dtd">
<svg version="1.1" id="Layer_1" xmlns="http://www.w3.org/2000/svg" xmlns:xlink="http://www.w3.org/1999/xlink" x="0px" y="0px"
	 width="64px" height="64px" viewBox="0 0 64 64" enable-background="new 0 0 64 64" xml:space="preserve">
<path d="M49.373,26.063C48.842,16.87,41.203,9.67,31.98,9.67c-0.326,0-0.656,0.009-0.986,0.027
	c-9.576,0.553-16.918,8.796-16.365,18.374c0.373,6.439,4.24,12.112,10.092,14.803l0.137,0.063l0.102,0.111
	c3.359,3.658,6.893,8.793,7.285,9.366l1.295,1.915l1.109-2.001c0.916-1.633,3.898-6.922,5.924-10.025l0.096-0.146l0.152-0.09
	C46.387,38.789,49.744,32.507,49.373,26.063z M32.926,37.313c-0.059-1.135-0.113-2.413-0.158-3.782
	c1.637-0.016,3.219-0.181,4.732-0.464c-0.357,1.516-0.82,2.881-1.283,4.037C35.145,37.233,34.049,37.307,32.926,37.313z
	 M35.654,38.417c-0.533,1.167-1.004,1.991-1.229,2.366c-0.42,0.063-0.848,0.104-1.279,0.127c-0.043-0.6-0.096-1.401-0.152-2.354
	C33.896,38.549,34.783,38.5,35.654,38.417z M26.035,17.164c0.475,0.348,1.004,0.659,1.576,0.93
	c-0.414,1.072-0.807,2.248-1.129,3.499c-0.916-0.379-1.748-0.835-2.48-1.355C24.629,19.1,25.338,18.063,26.035,17.164z
	 M25.498,14.968c0.428-0.249,0.873-0.468,1.328-0.668c-0.301,0.319-0.627,0.68-0.963,1.074
	C25.736,15.24,25.605,15.108,25.498,14.968z M25.715,26.299c-1.25-0.408-2.402-0.928-3.436-1.534
	c0.248-1.201,0.658-2.349,1.162-3.426c0.822,0.568,1.746,1.063,2.758,1.469C25.961,23.932,25.789,25.101,25.715,26.299z
	 M25.98,31.477c-1.281-0.335-2.486-0.763-3.605-1.275c-0.238-1.017-0.373-2.079-0.355-3.174c0.008-0.327,0.031-0.65,0.063-0.971
	c1.096,0.605,2.299,1.121,3.596,1.523C25.672,28.936,25.783,30.243,25.98,31.477z M23.004,19.433
	c-0.465-0.431-0.873-0.891-1.209-1.377c0.779-0.92,1.674-1.736,2.662-2.429c0.186,0.246,0.393,0.483,0.619,0.71
	C24.367,17.244,23.65,18.284,23.004,19.433z M22.42,20.557c-0.523,1.087-0.967,2.252-1.26,3.479
	c-0.697-0.502-1.324-1.049-1.863-1.637c0.424-1.192,1.002-2.308,1.715-3.325C21.412,19.602,21.887,20.095,22.42,20.557z
	 M20.914,25.347c-0.076,0.544-0.127,1.097-0.137,1.66c-0.014,0.849,0.057,1.675,0.186,2.478c-0.889-0.498-1.709-1.05-2.436-1.653
	C18.512,27.566,18.5,27.3,18.5,27.032c0-1.138,0.141-2.24,0.398-3.296C19.498,24.315,20.176,24.854,20.914,25.347z M21.297,31.045
	c0.455,1.691,1.162,3.239,1.947,4.594c-0.902-0.34-1.764-0.725-2.568-1.152c-0.947-1.489-1.621-3.167-1.947-4.965
	C19.518,30.08,20.379,30.591,21.297,31.045z M24.303,37.299c0.525,0.753,1.049,1.418,1.527,1.979
	c-1.303-0.704-2.482-1.605-3.496-2.671C22.971,36.863,23.631,37.09,24.303,37.299z M25.117,36.254
	c-0.869-1.29-1.715-2.825-2.301-4.527c1.074,0.437,2.217,0.802,3.412,1.088c0.314,1.473,0.73,2.81,1.164,3.982
	C26.613,36.647,25.854,36.465,25.117,36.254z M27.303,31.786c-0.223-1.224-0.369-2.52-0.387-3.866
	c1.432,0.352,2.949,0.577,4.525,0.644c0,1.265,0.02,2.515,0.049,3.715C30.041,32.225,28.641,32.055,27.303,31.786z M31.459,26.551
	c-0.004,0.257-0.008,0.513-0.01,0.769c-1.58-0.07-3.096-0.304-4.51-0.669c0.059-1.164,0.219-2.311,0.445-3.415
	c1.281,0.404,2.67,0.671,4.127,0.78C31.492,24.839,31.471,25.686,31.459,26.551z M27.664,22.028
	c0.316-1.234,0.705-2.401,1.115-3.462c0.893,0.305,1.861,0.518,2.885,0.616c-0.043,1.106-0.084,2.312-0.121,3.589
	C30.168,22.665,28.863,22.412,27.664,22.028z M28.076,16.945c-0.459-0.219-0.893-0.459-1.273-0.733
	c1.457-1.713,2.686-2.747,2.715-2.771l-0.01-0.013c0.113-0.025,0.229-0.047,0.342-0.069C29.371,14.201,28.723,15.435,28.076,16.945z
	 M26.268,37.831c0.543,0.124,1.1,0.23,1.662,0.325c0.418,0.979,0.82,1.782,1.141,2.379c-0.141-0.037-0.285-0.073-0.426-0.114
	C28.48,40.274,27.461,39.334,26.268,37.831z M28.828,37.034c-0.451-1.132-0.898-2.462-1.248-3.933
	c1.27,0.231,2.588,0.377,3.943,0.423c0.045,1.358,0.1,2.63,0.156,3.759C30.709,37.247,29.758,37.163,28.828,37.034z M31.748,38.535
	c0.055,0.967,0.109,1.781,0.152,2.397c-0.412-0.015-0.82-0.049-1.225-0.1c-0.215-0.355-0.715-1.226-1.283-2.474
	C30.164,38.447,30.951,38.509,31.748,38.535z M31.715,17.938c-0.877-0.087-1.703-0.271-2.469-0.521
	c0.887-2.075,1.777-3.615,2.174-4.262c0.178-0.013,0.357-0.017,0.535-0.023C31.904,14.024,31.811,15.724,31.715,17.938z
	 M38.607,16.544c-0.451,0.274-0.945,0.518-1.479,0.72c-0.674-1.621-1.365-2.948-1.877-3.849c0.152,0.032,0.303,0.065,0.453,0.102
	C36.035,13.803,37.252,14.897,38.607,16.544z M38.539,14.547c0.52,0.259,1.029,0.542,1.514,0.859
	c-0.131,0.137-0.279,0.265-0.426,0.394C39.25,15.339,38.883,14.919,38.539,14.547z M35.924,17.636
	c-0.922,0.231-1.916,0.366-2.961,0.366c-0.002,0-0.004,0-0.006,0c0.098-2.264,0.191-3.985,0.242-4.856
	c0.158,0.01,0.314,0.019,0.469,0.032C34.088,13.863,35.016,15.475,35.924,17.636z M32.963,19.245c1.207,0,2.357-0.165,3.42-0.45
	c0.404,1.065,0.781,2.232,1.082,3.462c-1.395,0.367-2.91,0.573-4.502,0.573c-0.059,0-0.117-0.004-0.176-0.004
	c0.035-1.274,0.078-2.479,0.121-3.583C32.926,19.243,32.943,19.245,32.963,19.245z M32.963,24.073c1.678,0,3.285-0.217,4.768-0.605
	c0.203,1.024,0.348,2.083,0.402,3.161c-1.691,0.442-3.521,0.692-5.441,0.71c0.004-0.255,0.008-0.512,0.012-0.767
	c0.014-0.854,0.031-1.69,0.051-2.504C32.824,24.068,32.893,24.073,32.963,24.073z M37.58,18.409c0.646-0.252,1.24-0.556,1.785-0.898
	c0.689,0.921,1.379,1.968,1.975,3.112c-0.799,0.499-1.697,0.926-2.674,1.269C38.359,20.652,37.982,19.48,37.58,18.409z
	 M39.396,27.549c1.316-0.414,2.539-0.947,3.646-1.575c0.037,0.349,0.063,0.699,0.07,1.054c0.018,1.068-0.111,2.106-0.338,3.101
	c-1.137,0.532-2.373,0.978-3.68,1.324C39.291,30.217,39.402,28.908,39.396,27.549z M38.938,23.104
	c1.064-0.365,2.051-0.828,2.938-1.367c0.408,0.934,0.742,1.92,0.959,2.941c-1.039,0.63-2.209,1.165-3.479,1.587
	C39.285,25.184,39.139,24.125,38.938,23.104z M42.93,21.02c0.502-0.381,0.961-0.787,1.369-1.222c0.52,0.849,0.945,1.759,1.275,2.713
	c-0.479,0.507-1.025,0.983-1.627,1.427C43.699,22.918,43.348,21.942,42.93,21.02z M42.379,19.894
	c-0.609-1.15-1.299-2.201-1.992-3.127c0.234-0.204,0.459-0.414,0.662-0.637c0.959,0.759,1.813,1.638,2.541,2.62
	C43.236,19.154,42.83,19.537,42.379,19.894z M38.852,32.779c1.227-0.3,2.396-0.683,3.496-1.137c-0.613,1.804-1.52,3.425-2.439,4.769
	c-0.732,0.192-1.492,0.354-2.266,0.484C38.094,35.69,38.527,34.308,38.852,32.779z M39.602,38.924
	c0.357-0.437,0.734-0.924,1.111-1.457c0.459-0.131,0.91-0.269,1.35-0.42C41.318,37.763,40.486,38.385,39.602,38.924z M41.773,35.835
	c0.848-1.428,1.615-3.081,2.09-4.893c0.783-0.398,1.535-0.825,2.219-1.301c-0.375,1.979-1.174,3.806-2.293,5.393
	C43.146,35.329,42.469,35.594,41.773,35.835z M44.188,29.394c0.119-0.774,0.184-1.571,0.168-2.387
	c-0.008-0.596-0.063-1.18-0.15-1.754c0.637-0.435,1.227-0.902,1.756-1.402c0.238,1.021,0.371,2.087,0.371,3.182
	c0,0.312-0.016,0.621-0.035,0.929C45.656,28.478,44.947,28.956,44.188,29.394z M38.156,27.896c-0.016,1.348-0.16,2.646-0.385,3.867
	c-1.594,0.33-3.287,0.515-5.037,0.529c-0.029-1.2-0.049-2.445-0.049-3.71C34.605,28.566,36.445,28.327,38.156,27.896z
	 M37.107,38.239c0.561-0.082,1.115-0.174,1.658-0.287c-0.949,1.183-1.773,1.998-2.123,2.327c-0.195,0.063-0.395,0.116-0.594,0.17
	C36.352,39.883,36.723,39.135,37.107,38.239z M33.867,48l-0.574,1.002l-0.682-0.933c-1.402-1.915-3.467-4.608-5.531-6.863
	c1.537,0.579,3.189,0.922,4.914,0.97c0.004,0.024,0.004,0.04,0.004,0.043l0.367-0.031c0.018,0,0.033,0.003,0.051,0.003
	c1.967,0,3.846-0.382,5.572-1.067C36.559,43.346,34.834,46.312,33.867,48z"/>
</svg>
