<?xml version="1.0" encoding="utf-8"?>
<!-- Generator: Adobe Illustrator 16.0.0, SVG Export Plug-In . SVG Version: 6.00 Build 0)  -->
<!DOCTYPE svg PUBLIC "-//W3C//DTD SVG 1.1//EN" "http://www.w3.org/Graphics/SVG/1.1/DTD/svg11.dtd">
<svg version="1.1" id="Layer_1" xmlns="http://www.w3.org/2000/svg" xmlns:xlink="http://www.w3.org/1999/xlink" x="0px" y="0px"
	 width="64px" height="64px" viewBox="0 0 64 64" enable-background="new 0 0 64 64" xml:space="preserve">
<g>
	<path d="M51.322,31.677c0.072-0.677,0.112-1.363,0.112-2.059c0-0.573-0.037-1.136-0.086-1.696c3.076-2.773,4.707-5.47,3.795-7.578
		c-0.701-1.618-2.84-2.474-6.186-2.474c-0.469,0-0.964,0.022-1.472,0.054c-3.552-4.691-9.162-7.741-15.486-7.741
		c-6.354,0-11.988,3.079-15.536,7.808c-0.386-0.017-0.783-0.044-1.149-0.044c-3.754,0-6.105,0.928-6.799,2.683
		c-0.782,1.978,0.645,4.558,4.125,7.493c-0.037,0.495-0.075,0.99-0.075,1.494c0,1.04,0.105,2.053,0.264,3.049
		c-3.496,3.104-4.888,5.777-4.029,7.757c0.701,1.618,2.84,2.474,6.185,2.474c0.842,0,1.755-0.058,2.719-0.162
		c3.555,3.871,8.64,6.316,14.297,6.316c6.095,0,11.537-2.825,15.103-7.229c0.541,0.032,1.08,0.061,1.584,0.061
		c3.754,0,6.104-0.928,6.798-2.683C56.27,37.216,54.831,34.625,51.322,31.677z M19.055,41.255c-2.132-2.37-3.624-5.316-4.204-8.583
		c0.618-0.5,1.277-1,1.976-1.5c3.451,2.214,7.669,4.34,12.245,6.149c0.604,0.239,1.203,0.456,1.804,0.678
		C26.632,39.592,22.532,40.727,19.055,41.255z M15.675,30.401c-0.353,0.258-0.698,0.515-1.03,0.773
		c-0.046-0.513-0.079-1.03-0.079-1.555C14.924,29.881,15.294,30.141,15.675,30.401z M14.645,28.058
		c0.287-3.221,1.459-6.183,3.263-8.663c3.652,0.349,8.094,1.375,12.699,2.929c-0.601,0.244-1.202,0.493-1.804,0.753
		c-4.498,1.949-8.629,4.201-12,6.517C16.039,29.085,15.315,28.572,14.645,28.058z M29.55,36.112
		c-4.303-1.702-8.266-3.683-11.559-5.747c3.217-2.161,7.1-4.262,11.329-6.095c1.06-0.459,2.115-0.883,3.167-1.287
		c0.653,0.239,1.307,0.477,1.961,0.736c4.601,1.819,8.823,3.957,12.24,6.175c-3.164,2.214-7.246,4.515-12.069,6.604
		c-0.635,0.275-1.268,0.527-1.9,0.783C31.665,36.915,30.608,36.531,29.55,36.112z M34.352,22.294
		c4.28-1.521,8.34-2.531,11.723-2.923c1.779,2.438,2.956,5.342,3.271,8.502c-0.479,0.397-0.995,0.799-1.541,1.207
		c-3.564-2.364-8.013-4.646-12.878-6.569C34.734,22.434,34.544,22.369,34.352,22.294z M35.137,37.691
		c4.593-1.99,9.117-4.459,12.722-7.007c0.501,0.347,0.978,0.696,1.436,1.045c-0.395,3.248-1.683,6.217-3.614,8.664
		c-3.247-0.349-7.07-1.2-11.072-2.478C34.783,37.84,34.96,37.768,35.137,37.691z M49.435,29.618c0,0.194-0.022,0.381-0.029,0.574
		c-0.147-0.107-0.282-0.216-0.434-0.323c0.153-0.116,0.309-0.231,0.458-0.347C49.43,29.554,49.435,29.585,49.435,29.618z
		 M48.958,19.17c2.747,0,4.521,0.601,4.992,1.69c0.522,1.205-0.518,3.152-2.824,5.414c-0.448-2.568-1.396-4.96-2.75-7.078
		C48.566,19.191,48.775,19.17,48.958,19.17z M32,12.184c5.231,0,9.92,2.327,13.118,5.987c-3.7,0.52-8.094,1.707-12.637,3.42
		c-4.908-1.768-9.624-2.94-13.612-3.406C22.067,14.517,26.762,12.184,32,12.184z M9.725,21.109c0.468-1.183,2.505-1.861,5.59-1.861
		c0.086,0,0.185,0.01,0.271,0.011c-1.381,2.179-2.332,4.647-2.755,7.294C10.389,24.336,9.231,22.357,9.725,21.109z M14.984,41.598
		c-2.746,0-4.52-0.6-4.991-1.69c-0.55-1.268,0.612-3.364,3.131-5.744c0.656,2.721,1.88,5.216,3.548,7.358
		C16.087,41.565,15.516,41.598,14.984,41.598z M32,47.052c-4.569,0-8.72-1.781-11.832-4.667c3.77-0.661,8.139-1.944,12.599-3.714
		c4.253,1.455,8.335,2.464,11.87,2.923C41.457,44.947,36.975,47.052,32,47.052z M54.275,38.724
		c-0.468,1.183-2.505,1.861-5.589,1.861c-0.201,0-0.429-0.02-0.638-0.025c1.488-2.176,2.536-4.669,3.04-7.354
		C53.589,35.452,54.774,37.461,54.275,38.724z"/>
	<polygon points="49.887,47.083 52.483,45.203 51.927,48.466 54.55,50.181 50.917,50.477 49.283,53.816 48.514,50.529 
		45.224,50.571 48.149,48.545 46.635,45.099 	"/>
	<polygon points="12.72,11.325 13.959,10.428 13.692,11.984 14.944,12.802 13.211,12.944 12.432,14.537 12.064,12.968 
		10.495,12.988 11.891,12.022 11.168,10.378 	"/>
	<polygon points="50.721,12.327 51.96,11.43 51.693,12.986 52.945,13.804 51.212,13.946 50.433,15.539 50.065,13.97 48.496,13.99 
		49.892,13.024 49.169,11.38 	"/>
</g>
</svg>
