<?xml version="1.0" encoding="utf-8"?>
<!-- Generator: Adobe Illustrator 16.0.0, SVG Export Plug-In . SVG Version: 6.00 Build 0)  -->
<!DOCTYPE svg PUBLIC "-//W3C//DTD SVG 1.1//EN" "http://www.w3.org/Graphics/SVG/1.1/DTD/svg11.dtd">
<svg version="1.1" id="Layer_1" xmlns="http://www.w3.org/2000/svg" xmlns:xlink="http://www.w3.org/1999/xlink" x="0px" y="0px"
	 width="64px" height="64px" viewBox="0 0 64 64" enable-background="new 0 0 64 64" xml:space="preserve">
<g>
	<path d="M13.854,28.575c-0.414-0.079-0.621-0.118-1.035-0.197c0.098-0.555,0.156-0.826,0.284-1.356
		c0.408,0.108,0.611,0.163,1.02,0.271c0.13-0.536,0.203-0.798,0.364-1.308c-1.009-0.348-1.511-0.524-2.52-0.873
		c-0.185,0.583-0.269,0.883-0.417,1.495c0.357,0.096,0.536,0.143,0.894,0.237c-0.133,0.549-0.193,0.831-0.294,1.405
		c-0.363-0.069-0.544-0.104-0.907-0.174c-0.113,0.641-0.16,0.969-0.234,1.64c1.057,0.117,1.583,0.176,2.64,0.292
		C13.714,29.421,13.755,29.136,13.854,28.575z"/>
	<path d="M15.035,24.474c-0.111-0.132-0.165-0.196-0.274-0.33c0.212-0.499,0.325-0.742,0.567-1.213
		c0.167,0.011,0.25,0.018,0.416,0.031c0.242-0.459,0.37-0.681,0.64-1.112c-1.207-0.094-1.823-0.101-3.074-0.009
		c-0.257,0.5-0.379,0.758-0.605,1.286c0.693,1.095,1.07,1.614,1.873,2.58C14.746,25.201,14.837,24.953,15.035,24.474z
		 M13.797,22.881c0.002-0.005,0.003-0.006,0.005-0.011c0.364,0.002,0.543,0.008,0.904,0.023c-0.145,0.292-0.215,0.44-0.349,0.742
		C14.128,23.34,14.017,23.188,13.797,22.881z"/>
	<path d="M17.226,20.626c-0.257-0.198-0.386-0.298-0.644-0.496c0.179-0.237,0.269-0.354,0.456-0.581
		c0.146-0.178,0.27-0.348,0.369-0.52c0.099-0.171,0.168-0.336,0.208-0.493s0.043-0.308,0.012-0.447
		c-0.031-0.139-0.103-0.263-0.219-0.377c-0.068-0.067-0.159-0.121-0.273-0.158c-0.114-0.037-0.248-0.041-0.399-0.013
		c-0.151,0.028-0.318,0.099-0.499,0.211c-0.181,0.111-0.373,0.276-0.565,0.509c-0.583,0.701-0.857,1.075-1.366,1.86
		c0.89,0.6,1.334,0.899,2.226,1.499C16.796,21.21,16.936,21.01,17.226,20.626z M16.076,19.737c-0.173-0.134-0.258-0.198-0.431-0.332
		c0.143-0.189,0.213-0.283,0.361-0.467c0.05-0.063,0.102-0.122,0.153-0.178c0.052-0.057,0.103-0.099,0.152-0.132
		c0.051-0.033,0.101-0.053,0.148-0.056s0.095,0.016,0.141,0.056c0.051,0.045,0.079,0.097,0.081,0.153
		c0.002,0.057-0.009,0.116-0.036,0.177c-0.027,0.062-0.066,0.125-0.115,0.191s-0.098,0.128-0.149,0.192
		C16.258,19.499,16.197,19.577,16.076,19.737z"/>
	<path d="M19.816,17.887c-0.212-0.246-0.319-0.368-0.531-0.614c0.219-0.186,0.33-0.275,0.556-0.451
		c0.176-0.138,0.329-0.277,0.458-0.42c0.129-0.142,0.229-0.284,0.298-0.427s0.101-0.281,0.098-0.422
		c-0.003-0.14-0.047-0.278-0.139-0.413c-0.054-0.079-0.133-0.148-0.237-0.208c-0.104-0.061-0.232-0.096-0.386-0.102
		c-0.152-0.005-0.329,0.025-0.526,0.094c-0.198,0.067-0.417,0.187-0.649,0.365c-0.702,0.541-1.04,0.834-1.684,1.459
		c0.751,0.77,1.126,1.154,1.878,1.923C19.288,18.344,19.46,18.188,19.816,17.887z M18.513,16.372
		c0.175-0.148,0.263-0.221,0.442-0.363c0.061-0.049,0.122-0.094,0.183-0.136c0.061-0.042,0.118-0.072,0.173-0.093
		c0.056-0.021,0.11-0.025,0.157-0.018s0.089,0.036,0.125,0.084c0.042,0.054,0.057,0.107,0.048,0.162
		c-0.008,0.055-0.03,0.107-0.067,0.16c-0.038,0.053-0.088,0.106-0.149,0.158s-0.12,0.101-0.183,0.15
		c-0.151,0.121-0.226,0.183-0.374,0.308C18.726,16.62,18.655,16.538,18.513,16.372z"/>
	<path d="M22.61,15.957c0.401-0.224,0.606-0.328,1.021-0.525c-0.178-0.353-0.266-0.527-0.443-0.88
		c0.203-0.846,0.329-1.27,0.638-2.114c-0.535,0.209-0.798,0.321-1.318,0.566c-0.092,0.479-0.131,0.718-0.194,1.193
		c-0.429-0.223-0.647-0.327-1.095-0.529c-0.507,0.283-0.756,0.435-1.243,0.755c0.885,0.229,1.314,0.366,2.138,0.682
		C22.313,15.445,22.411,15.616,22.61,15.957z"/>
	<path d="M29.708,13.702c-0.034-0.271-0.05-0.405-0.084-0.676c-0.82,0.095-1.228,0.164-2.034,0.34
		c-0.031-0.129-0.045-0.193-0.076-0.322c0.723-0.158,1.088-0.223,1.823-0.316c-0.035-0.251-0.051-0.379-0.086-0.63
		c-0.759,0.097-1.136,0.164-1.883,0.327c-0.03-0.129-0.047-0.195-0.077-0.324c0.836-0.183,1.259-0.252,2.109-0.353
		c-0.035-0.271-0.052-0.404-0.086-0.675c-1.399,0.165-2.095,0.302-3.45,0.683c0.308,1.021,0.462,1.529,0.772,2.55
		C27.841,13.967,28.461,13.846,29.708,13.702z"/>
	<path d="M31.197,13.206c0.482-0.019,0.725-0.021,1.207-0.012c0.061,0.153,0.091,0.231,0.149,0.385
		c0.475,0.013,0.713,0.027,1.186,0.068c-0.441-1.105-0.702-1.654-1.298-2.729c-0.513-0.01-0.77-0.008-1.282,0.011
		c-0.585,1.085-0.838,1.638-1.261,2.751c0.458-0.048,0.688-0.066,1.148-0.088C31.106,13.438,31.136,13.36,31.197,13.206z
		 M31.806,11.806c0.004,0,0.007,0,0.011,0c0.149,0.326,0.22,0.489,0.357,0.817c-0.296-0.003-0.443,0-0.739,0.008
		C31.578,12.3,31.651,12.135,31.806,11.806z"/>
	<path d="M35.285,12.904c0.253,0.04,0.379,0.06,0.631,0.107c0.118,0.022,0.209,0.056,0.269,0.098
		c0.06,0.043,0.101,0.093,0.125,0.149s0.035,0.114,0.033,0.178c-0.001,0.063-0.007,0.128-0.014,0.189
		c-0.009,0.069-0.014,0.141-0.015,0.209c-0.002,0.069,0.002,0.138,0.014,0.209c0.447,0.1,0.67,0.157,1.111,0.283
		c-0.018-0.035-0.026-0.08-0.025-0.133c0.001-0.053,0.005-0.108,0.013-0.165c0.008-0.056,0.017-0.108,0.029-0.159
		c0.012-0.052,0.02-0.092,0.026-0.124c0.027-0.165,0.01-0.318-0.053-0.456s-0.323-0.325-0.321-0.33c0,0,0.198-0.01,0.285-0.036
		c0.087-0.027,0.163-0.063,0.227-0.108s0.117-0.094,0.16-0.153s0.075-0.126,0.095-0.192c0.037-0.121,0.034-0.236-0.011-0.346
		s-0.118-0.213-0.223-0.306c-0.104-0.092-0.234-0.173-0.388-0.242c-0.154-0.07-0.322-0.126-0.504-0.165
		c-0.977-0.208-1.472-0.283-2.466-0.383c-0.116,1.058-0.174,1.585-0.288,2.643c0.456,0.046,0.685,0.075,1.137,0.146
		C35.193,13.451,35.223,13.271,35.285,12.904z M35.472,11.821c0.235,0.037,0.354,0.056,0.587,0.1c0.239,0.045,0.396,0.1,0.472,0.163
		s0.104,0.137,0.085,0.219c-0.014,0.059-0.043,0.099-0.086,0.126s-0.092,0.046-0.147,0.054s-0.116,0.005-0.182-0.003
		s-0.126-0.017-0.181-0.027c-0.255-0.048-0.382-0.068-0.638-0.109C35.418,12.134,35.436,12.03,35.472,11.821z"/>
	<path d="M38.509,14.665c0.432,0.151,0.646,0.234,1.069,0.412c0.324-0.726,0.486-1.089,0.811-1.814
		c0.425,0.179,0.635,0.273,1.049,0.476c0.126-0.244,0.188-0.363,0.315-0.607c-1.329-0.648-2.024-0.914-3.442-1.325
		c-0.082,0.261-0.122,0.388-0.204,0.648c0.443,0.128,0.662,0.199,1.097,0.352C38.924,13.549,38.786,13.922,38.509,14.665z"/>
	<path d="M41.905,16.256c0.226-0.36,0.339-0.537,0.564-0.897c0.391,0.234,0.583,0.355,0.96,0.614
		c-0.247,0.347-0.371,0.521-0.617,0.867c0.38,0.262,0.566,0.399,0.93,0.688c0.675-0.835,1.013-1.252,1.69-2.087
		c-0.416-0.329-0.629-0.486-1.064-0.785c-0.217,0.304-0.325,0.453-0.541,0.757c-0.39-0.268-0.589-0.394-0.993-0.637
		c0.198-0.315,0.297-0.473,0.496-0.788c-0.451-0.271-0.681-0.399-1.147-0.641c-0.514,0.94-0.77,1.409-1.281,2.35
		C41.311,15.907,41.511,16.019,41.905,16.256z"/>
	<path d="M47.222,21.083c0.197,0.173,0.389,0.299,0.578,0.377c0.188,0.078,0.374,0.111,0.559,0.095s0.363-0.08,0.538-0.19
		c0.142-0.09,0.264-0.205,0.364-0.352c0.099-0.146,0.159-0.322,0.178-0.524s-0.012-0.432-0.094-0.689
		c-0.083-0.257-0.234-0.537-0.458-0.833c-0.544-0.721-0.835-1.062-1.446-1.701c-0.778,0.744-1.165,1.115-1.941,1.858
		c0.471,0.493,0.696,0.75,1.122,1.298C46.828,20.688,47.026,20.91,47.222,21.083z M47.813,18.721
		c0.107,0.13,0.161,0.194,0.266,0.327c0.149,0.188,0.245,0.355,0.289,0.497c0.043,0.141,0.055,0.264,0.039,0.362
		s-0.047,0.175-0.095,0.23c-0.048,0.058-0.089,0.1-0.123,0.125c-0.05,0.036-0.113,0.068-0.188,0.097s-0.16,0.038-0.251,0.026
		c-0.092-0.011-0.189-0.051-0.297-0.117c-0.107-0.066-0.218-0.177-0.337-0.328c-0.12-0.153-0.18-0.227-0.304-0.376
		C47.213,19.227,47.413,19.058,47.813,18.721z"/>
	<path d="M47.846,22.228c0.252,0.428,0.373,0.646,0.599,1.101c0.168-0.006,0.252-0.005,0.421-0.008
		c0.232,0.479,0.342,0.725,0.544,1.232c-0.114,0.128-0.172,0.192-0.287,0.317c0.195,0.504,0.285,0.762,0.448,1.294
		c0.826-0.944,1.214-1.45,1.937-2.525c-0.215-0.539-0.33-0.803-0.576-1.313C49.677,22.189,49.058,22.172,47.846,22.228z
		 M50.416,23.351c0.002,0.005,0.003,0.007,0.005,0.012c-0.232,0.29-0.349,0.433-0.589,0.713c-0.127-0.309-0.195-0.458-0.333-0.756
		C49.864,23.324,50.047,23.33,50.416,23.351z"/>
	<path d="M49.802,26.989c0.137,0.53,0.197,0.801,0.302,1.356c0.384-0.078,0.575-0.117,0.959-0.195
		c0.786,0.547,1.175,0.859,1.928,1.565c-0.081-0.735-0.134-1.092-0.263-1.791c-0.45-0.283-0.676-0.416-1.131-0.657
		c0.31-0.413,0.459-0.626,0.751-1.062c-0.175-0.668-0.273-0.992-0.491-1.624c-0.406,0.89-0.631,1.32-1.113,2.141
		C50.367,26.83,50.18,26.883,49.802,26.989z"/>
	<path d="M53.21,35.005c0.069-0.693,0.092-1.05,0.115-1.776c-1.062-0.033-1.593-0.05-2.654-0.083
		c-0.02,0.635-0.041,0.943-0.101,1.55c0.418,0.049,0.627,0.072,1.045,0.121c-0.06,0.601-0.098,0.896-0.193,1.471
		c-0.415-0.08-0.621-0.121-1.035-0.201c-0.096,0.58-0.155,0.861-0.288,1.413c1.029,0.284,1.544,0.428,2.573,0.712
		c0.152-0.631,0.218-0.955,0.328-1.618c-0.363-0.07-0.545-0.105-0.909-0.176c0.099-0.595,0.14-0.9,0.202-1.521
		C52.661,34.938,52.844,34.962,53.21,35.005z"/>
	<path d="M49.629,39.133c0.118,0.13,0.177,0.194,0.293,0.326c-0.189,0.54-0.294,0.804-0.519,1.313
		c-0.168,0.001-0.252-0.001-0.42-0.003c-0.226,0.497-0.346,0.736-0.604,1.203c1.223,0.012,1.848-0.027,3.104-0.219
		c0.238-0.541,0.349-0.818,0.552-1.391c-0.748-1.093-1.153-1.611-2.009-2.565C49.885,38.345,49.805,38.613,49.629,39.133z
		 M50.351,39.959c0.244,0.292,0.364,0.443,0.599,0.747c-0.002,0.005-0.004,0.007-0.006,0.012c-0.366,0.026-0.546,0.034-0.91,0.045
		C50.167,40.447,50.229,40.286,50.351,39.959z"/>
	<path d="M47.564,43.297c0.267,0.188,0.401,0.281,0.668,0.469c-0.175,0.257-0.266,0.383-0.45,0.629
		c-0.144,0.192-0.263,0.375-0.359,0.558c-0.097,0.182-0.166,0.354-0.202,0.519s-0.039,0.317-0.004,0.458
		c0.034,0.141,0.11,0.265,0.231,0.375c0.071,0.064,0.166,0.113,0.284,0.144c0.117,0.031,0.252,0.029,0.407-0.009
		c0.153-0.038,0.324-0.118,0.505-0.244c0.183-0.126,0.373-0.313,0.563-0.564c0.576-0.76,0.844-1.163,1.333-2.014
		c-0.921-0.558-1.381-0.837-2.302-1.395C47.984,42.666,47.848,42.881,47.564,43.297z M48.458,44.563
		c0.122-0.169,0.181-0.254,0.299-0.427c0.179,0.126,0.269,0.189,0.448,0.315c-0.14,0.205-0.211,0.304-0.356,0.503
		c-0.05,0.068-0.099,0.134-0.149,0.194c-0.051,0.062-0.104,0.107-0.154,0.145c-0.051,0.037-0.1,0.062-0.148,0.067
		s-0.098-0.012-0.146-0.05c-0.053-0.043-0.082-0.093-0.085-0.151c-0.004-0.058,0.005-0.119,0.031-0.184
		c0.026-0.065,0.064-0.133,0.112-0.204S48.408,44.632,48.458,44.563z"/>
	<path d="M44.979,46.26c0.222,0.239,0.332,0.358,0.554,0.599c-0.222,0.2-0.335,0.297-0.564,0.487
		c-0.18,0.148-0.335,0.297-0.466,0.448c-0.132,0.15-0.233,0.301-0.302,0.448s-0.102,0.293-0.097,0.436
		c0.004,0.142,0.053,0.277,0.149,0.409c0.056,0.078,0.139,0.146,0.248,0.201c0.108,0.057,0.241,0.086,0.399,0.084
		c0.157-0.002,0.339-0.038,0.542-0.117c0.204-0.078,0.427-0.213,0.664-0.407c0.716-0.586,1.059-0.901,1.706-1.578
		c-0.783-0.742-1.174-1.116-1.958-1.858C45.515,45.765,45.339,45.935,44.979,46.26z M46.342,47.731
		c-0.178,0.16-0.267,0.238-0.449,0.393c-0.062,0.053-0.124,0.106-0.186,0.152c-0.063,0.046-0.123,0.078-0.179,0.102
		c-0.057,0.023-0.11,0.032-0.159,0.026s-0.094-0.033-0.132-0.08c-0.043-0.053-0.06-0.105-0.051-0.161
		c0.008-0.056,0.031-0.111,0.069-0.166c0.039-0.056,0.089-0.113,0.15-0.169s0.123-0.11,0.186-0.164
		c0.153-0.131,0.229-0.197,0.379-0.333C46.119,47.492,46.193,47.57,46.342,47.731z"/>
	<path d="M42.12,48.348c-0.414,0.242-0.625,0.354-1.054,0.568c0.187,0.349,0.28,0.523,0.466,0.872
		c-0.206,0.859-0.336,1.29-0.654,2.148c0.556-0.227,0.83-0.348,1.369-0.613c0.093-0.485,0.131-0.73,0.193-1.213
		c0.446,0.208,0.676,0.308,1.141,0.493c0.523-0.308,0.779-0.472,1.279-0.818c-0.917-0.19-1.363-0.312-2.219-0.598
		C42.432,48.852,42.329,48.684,42.12,48.348z"/>
	<path d="M34.726,50.787c0.036,0.27,0.052,0.403,0.088,0.674c0.859-0.103,1.288-0.173,2.131-0.363
		c0.032,0.129,0.048,0.193,0.08,0.322c-0.757,0.171-1.139,0.239-1.909,0.34c0.037,0.251,0.054,0.375,0.09,0.626
		c0.795-0.104,1.191-0.175,1.973-0.352c0.032,0.129,0.049,0.193,0.081,0.322c-0.875,0.197-1.319,0.274-2.21,0.383
		c0.037,0.271,0.055,0.406,0.091,0.676c1.467-0.179,2.196-0.328,3.612-0.74c-0.325-1.016-0.488-1.524-0.813-2.54
		C36.681,50.502,36.032,50.632,34.726,50.787z"/>
	<path d="M33.163,51.294c-0.506,0.021-0.76,0.021-1.267,0.012c-0.063-0.153-0.094-0.232-0.155-0.386
		c-0.498-0.014-0.747-0.027-1.243-0.072c0.46,1.107,0.731,1.659,1.358,2.733c0.538,0.011,0.808,0.009,1.346-0.012
		c0.613-1.085,0.878-1.643,1.322-2.759c-0.48,0.052-0.722,0.07-1.204,0.094C33.259,51.06,33.228,51.14,33.163,51.294z
		 M32.524,52.695c-0.005,0-0.007,0-0.012,0c-0.157-0.326-0.231-0.491-0.375-0.82c0.311,0.003,0.466,0.003,0.776-0.006
		C32.764,52.201,32.687,52.366,32.524,52.695z"/>
	<path d="M28.874,51.577c-0.265-0.043-0.397-0.069-0.66-0.121c-0.123-0.024-0.216-0.058-0.278-0.101
		c-0.062-0.044-0.105-0.095-0.131-0.151s-0.038-0.116-0.036-0.18c0.002-0.063,0.007-0.126,0.015-0.188
		c0.01-0.069,0.016-0.139,0.018-0.207c0.002-0.069-0.002-0.142-0.014-0.214c-0.468-0.107-0.699-0.167-1.159-0.303
		c0.019,0.036,0.026,0.081,0.024,0.134c-0.001,0.053-0.005,0.107-0.013,0.164c-0.009,0.056-0.019,0.108-0.031,0.159
		c-0.013,0.052-0.021,0.091-0.027,0.123c-0.029,0.165-0.012,0.318,0.054,0.458s0.336,0.334,0.334,0.339c0,0-0.208,0.008-0.299,0.032
		c-0.091,0.025-0.169,0.06-0.236,0.103s-0.123,0.091-0.168,0.149s-0.079,0.121-0.1,0.188c-0.038,0.12-0.034,0.239,0.012,0.351
		c0.046,0.11,0.125,0.215,0.234,0.311c0.109,0.094,0.244,0.179,0.405,0.251c0.162,0.073,0.336,0.13,0.526,0.172
		c1.022,0.225,1.542,0.309,2.584,0.416c0.121-1.055,0.182-1.585,0.303-2.64c-0.478-0.049-0.717-0.081-1.191-0.158
		C28.974,51.029,28.94,51.212,28.874,51.577z M28.68,52.657c-0.247-0.04-0.37-0.063-0.615-0.109
		c-0.25-0.048-0.414-0.106-0.494-0.171s-0.109-0.139-0.089-0.221c0.014-0.058,0.044-0.1,0.089-0.126s0.098-0.04,0.156-0.047
		s0.121-0.007,0.189,0.002s0.132,0.021,0.189,0.032c0.267,0.052,0.401,0.075,0.669,0.119C28.736,52.345,28.717,52.449,28.68,52.657z
		"/>
	<path d="M25.51,49.744c-0.45-0.164-0.672-0.251-1.111-0.443c-0.341,0.719-0.511,1.079-0.852,1.8
		c-0.441-0.193-0.66-0.296-1.089-0.515c-0.132,0.241-0.199,0.361-0.331,0.603c1.376,0.702,2.101,0.988,3.582,1.434
		c0.085-0.26,0.129-0.389,0.215-0.648c-0.462-0.139-0.693-0.216-1.147-0.381C25.07,50.853,25.216,50.482,25.51,49.744z"/>
	<path d="M21.991,48.024c-0.237,0.354-0.356,0.532-0.593,0.887c-0.402-0.254-0.6-0.388-0.985-0.668
		c0.258-0.34,0.387-0.509,0.646-0.849c-0.39-0.283-0.58-0.432-0.95-0.743c-0.707,0.813-1.06,1.222-1.765,2.035
		c0.424,0.356,0.641,0.526,1.087,0.851c0.226-0.298,0.339-0.447,0.565-0.745c0.399,0.29,0.604,0.431,1.02,0.693
		c-0.208,0.311-0.313,0.465-0.52,0.775c0.464,0.294,0.702,0.432,1.184,0.693c0.537-0.928,0.807-1.395,1.345-2.322
		C22.604,48.403,22.397,48.28,21.991,48.024z"/>
	<path d="M16.637,42.796c-0.195-0.192-0.383-0.337-0.572-0.432c-0.188-0.094-0.376-0.141-0.564-0.137s-0.371,0.054-0.551,0.155
		c-0.146,0.083-0.274,0.197-0.38,0.343c-0.105,0.145-0.173,0.323-0.199,0.531s-0.002,0.448,0.074,0.721
		c0.076,0.271,0.221,0.57,0.44,0.891c0.533,0.78,0.821,1.15,1.433,1.843c0.809-0.714,1.213-1.073,2.022-1.787
		c-0.47-0.533-0.694-0.814-1.112-1.406C17.024,43.229,16.831,42.987,16.637,42.796z M15.969,45.192
		c-0.106-0.14-0.159-0.211-0.262-0.354c-0.147-0.204-0.239-0.383-0.279-0.532c-0.04-0.148-0.049-0.275-0.03-0.376
		s0.054-0.179,0.104-0.233c0.05-0.056,0.094-0.097,0.129-0.12c0.052-0.034,0.117-0.063,0.194-0.087s0.162-0.028,0.254-0.01
		c0.093,0.018,0.191,0.064,0.298,0.141c0.106,0.075,0.217,0.195,0.333,0.358c0.118,0.166,0.179,0.25,0.301,0.411
		C16.594,44.711,16.385,44.871,15.969,45.192z"/>
	<path d="M15.483,40.372c-0.169-0.007-0.254-0.009-0.424-0.02c-0.213-0.52-0.313-0.788-0.49-1.338
		c0.121-0.125,0.181-0.188,0.303-0.312c-0.17-0.545-0.246-0.825-0.378-1.4c-0.88,0.93-1.299,1.436-2.076,2.507
		c0.189,0.584,0.293,0.87,0.518,1.423c1.255,0.239,1.881,0.301,3.108,0.331C15.804,41.101,15.692,40.863,15.483,40.372z
		 M13.498,40.195c-0.002-0.005-0.002-0.007-0.004-0.012c0.247-0.286,0.373-0.428,0.628-0.703c0.113,0.334,0.173,0.499,0.3,0.821
		C14.053,40.269,13.867,40.246,13.498,40.195z"/>
	<path d="M14.31,36.412c-0.104-0.573-0.148-0.868-0.214-1.47c-0.389,0.051-0.581,0.075-0.97,0.126
		c-0.748-0.651-1.114-1.016-1.811-1.84c0.025,0.796,0.052,1.185,0.132,1.941c0.43,0.342,0.648,0.498,1.087,0.793
		c-0.336,0.413-0.501,0.628-0.819,1.065c0.134,0.724,0.215,1.074,0.399,1.759c0.455-0.904,0.703-1.342,1.235-2.172
		C13.733,36.533,13.926,36.494,14.31,36.412z"/>
	<path d="M32,8C18.767,8,8,18.767,8,32s10.767,24,24,24s24-10.767,24-24S45.233,8,32,8z M32,55C19.318,55,9,44.683,9,32
		S19.318,9,32,9s23,10.317,23,23S44.682,55,32,55z"/>
	<path d="M32.33,16.359c-8.772,0-15.909,7.136-15.909,15.907s7.137,15.908,15.909,15.908s15.908-7.137,15.908-15.908
		S41.102,16.359,32.33,16.359z M39.492,22.253l0.143-0.219l0.514-0.104l0.129,0.624l0.274,0.442l0.181,0.207l0.331,0.131
		l-0.312,0.369l-0.604,0.06h-0.455l0.051-0.54l0.378-0.078l-0.032-0.254l-0.352-0.22l-0.247-0.169V22.253z M38.648,23.23l0.311-0.5
		l0.422-0.099l0.3,0.13l-0.026,0.339l-0.644,0.455h-0.363V23.23z M34.995,36.612l-0.67,0.851l-0.195,1.883l-0.604,0.479
		l-0.896-0.029l-0.3,0.521l0.222,0.975l-0.976,1.249l-0.311,0.572l-0.93,0.446l-0.611,0.093l-0.026,0.259l0.43,0.125l-0.052,0.277
		l-0.384,0.371l0.232,0.293l0.463,0.014l-0.026,0.358l-0.123,0.351l-0.039,0.285l0.683,0.575l-0.091,0.3l-0.931-0.018l-0.925-0.809
		l-0.721-1.269l0.1-1.226l-0.546-0.728l0.222-1.233l-0.325-0.091v-2.679c0,0-0.91-0.688-0.962-0.688
		c-0.052,0-0.481-0.119-0.481-0.119l-0.091-0.505l-1.183-1.482l0.117-0.533l0.039-0.873l0.818-0.568l-0.116-0.979l-1.196-0.089
		l-0.937-1.066l-0.663-0.182l-0.429-0.078l0.052-0.391l-0.545-0.078v0.221l-1.366-0.337l-0.549-0.84l0.224-0.408l-0.865-1.261
		l-0.148-0.923h-0.351l0.117,0.896l0.597,0.923l-0.065,0.364l-0.506-0.077l-0.625-1.064v-1.236l-0.263-0.127
		c1.092-3.082,3.158-5.703,5.841-7.478l0.116,0.063l0.664,0.144l0.05,0.261l1.055,0.038l-0.144-0.338l-0.935-0.026l0.22-0.208
		l-0.077-0.247h-0.433c0.413-0.25,0.837-0.479,1.274-0.688h0.12l0.417,0.571l0.688,0.039l0.417-0.402l0.312,0.156l-0.573,0.559
		c0,0-0.792,0.013-0.753,0.013s0.065,0.546,0.065,0.546l0.962-0.026l0.104-0.259l0.663-0.04l0.078-0.388l-0.39-0.068l0.13-0.349
		l0.299-0.091l1.04,0.051l-0.573,0.521l0.092,0.402l0.598,0.092l-0.038-0.728l0.572-0.3l1.014-0.115l1.469,0.648v0.559l0.468,0.117
		l-0.233,0.441H32.2l-0.196,0.507l-1.516-0.357l1.191-0.633l-0.454-0.389l-1.026,0.132l-0.091,0.092l-0.003-0.001l-0.017,0.022
		l-0.295,0.307L29.305,20.5l0.038,0.243l0.171,0.069l-0.007,0.082l-0.398,0.057l-0.029,0.231l-0.38,0.019l-0.068-0.458l-0.683,0.208
		l-1.395,0.816l0.157,0.574l0.389,0.255l0.78,0.106v0.887l0.361-0.059l0.332-0.692l0.828-0.263v-1.063l0.462-0.348l1.115,0.263
		l-0.079,0.704h0.299l0.819-0.403l0.04,0.922l0.597,0.363l-0.025,0.547l-0.572,0.195l0.039,0.181l0.688,0.313l-0.013,0.378
		l-0.199,0.017c-0.002-0.007-0.003-0.01-0.003-0.01L31.7,24.365l-0.037-0.277h-0.001l0.255-0.175v-0.255l-0.274-0.068l-0.068,0.234
		l-0.479,0.074l-0.048-0.017v0.024l-0.165,0.023l-0.136-0.271l-0.157-0.068H30.25l-0.155,0.127V24l0.292,0.096l0.289,0.041
		l-0.064,0.027l-0.264,0.294l-0.116-0.146l-0.254-0.067l-0.693,0.651l0.091,0.075l-1.023,0.565l-0.961,1.001l-0.066,0.446
		l-0.964,0.633l-0.479,0.481l0.054,0.961l-0.664-0.309l0.005-0.562h-1.845l-0.956,0.483l-0.415,0.766l-0.165,0.607l0.269,0.586
		l0.753,0.092l1.196-0.799l0.104,0.397l-0.364,0.688l0.91,0.155l0.092,1.407l1.246,0.211l0.794-0.916l0.961,0.196l0.339,0.47
		l0.923-0.054l0.026-0.274l0.506,0.246l0.572,0.897l0.989,0.014L31.575,34l0.052,0.779l1.092,0.415l1.378,0.015l0.403,0.662
		l0.612,0.195L34.995,36.612z M31.378,24.573l-0.087,0.18l-0.222,0.021l-0.045,0.214l-0.171,0.108l-0.275,0.021
		c-0.01-0.063-0.014-0.111-0.014-0.111h-0.109v-0.231h0.449l0.093-0.238l0.178-0.005L31.378,24.573z M30.182,24.928l-0.032,0.227
		l-0.327,0.026l0.018-0.226l0.146-0.182L30.182,24.928z M47.238,32.267c0,3.548-1.25,6.807-3.327,9.369v-0.46l-0.597-0.805v-1.25
		l-0.456-0.454l-0.039-0.521l0.579-1.106L42.3,35.104l0.13-1.313l-0.988-0.104l-0.363-0.364h-0.665l-0.338,0.313h-1.168
		l-0.041,0.104h-0.651l-1.493-1.702l0.012-1.328l0.246-0.09l0.092-0.507h-0.351l-0.145-0.533l1.729-1.247v-0.884l0.846-0.47
		l0.344,0.034h0.696l0.545-0.292l1.756-0.138v0.898l1.384,0.351l0.272,0.193h0.254v-0.487l0.8-0.078l0.76,0.565h0.65
		C47.016,29.371,47.238,30.793,47.238,32.267z M46.063,26.721l-0.408-0.45l-0.079-0.721l-0.419,0.229l-0.224,0.882l-0.604-0.644
		l-0.024-0.609l-0.584-0.501l-0.215-0.213h-0.677l0.214,0.603l0.815,0.455l0.141,0.148l-0.177,0.089l0.008,0.477l-0.396,0.167
		l-0.339-0.074l-0.213-0.3l0.552,0.029l0.148-0.202l-1.221-0.824l-0.093-0.348l-0.497,0.447l-0.503-0.104L40.5,26.252l-0.15,0.39
		l-0.49,0.045l-0.726,0.004l-0.433-0.202l-0.125-0.861l0.155-0.409l0.736-0.163l0.805,0.163l0.098-0.444l-0.341-0.08L40.145,24
		l0.81-0.128l0.565-0.799l0.584-0.099l0.528,0.078h0.194l-0.107-0.75l-0.641,0.259l-0.226-0.561l-0.372-0.052l-0.071-0.385
		l0.305-0.33l0.423-0.166c1.748,1.533,3.136,3.461,4.018,5.65L46.063,26.721z"/>
	<circle cx="12.333" cy="31.813" r="0.875"/>
	<circle cx="52.116" cy="31.148" r="0.875"/>
</g>
</svg>
