<?xml version="1.0" encoding="utf-8"?>
<!-- Generator: Adobe Illustrator 16.0.0, SVG Export Plug-In . SVG Version: 6.00 Build 0)  -->
<!DOCTYPE svg PUBLIC "-//W3C//DTD SVG 1.1//EN" "http://www.w3.org/Graphics/SVG/1.1/DTD/svg11.dtd">
<svg version="1.1" id="Layer_1" xmlns="http://www.w3.org/2000/svg" xmlns:xlink="http://www.w3.org/1999/xlink" x="0px" y="0px"
	 width="64px" height="64px" viewBox="0 0 64 64" enable-background="new 0 0 64 64" xml:space="preserve">
<g>
	<path d="M31.999,46.233c-3.403,0-6.631-0.329-9.584-0.925c1.573,4.766,3.948,8.361,6.684,9.881
		c0.951,0.118,1.918,0.186,2.901,0.186c0.984,0,1.952-0.068,2.903-0.186c2.735-1.52,5.11-5.115,6.683-9.881
		C38.631,45.904,35.403,46.233,31.999,46.233z"/>
	<path d="M19.516,42.479C18.798,39.288,18.4,35.75,18.4,32c0-3.227,0.294-6.298,0.833-9.125c-5.116,1.593-8.972,4.091-10.505,6.985
		C8.664,30.565,8.626,31.278,8.626,32c0,1.28,0.107,2.534,0.305,3.758C10.614,38.555,14.47,40.955,19.516,42.479z"/>
	<path d="M31.999,19.032c3.562,0,6.934,0.359,9.998,1.009c-1.553-5.431-4.107-9.569-7.094-11.229
		C33.951,8.694,32.983,8.626,32,8.626c-0.983,0-1.95,0.068-2.901,0.186c-2.987,1.66-5.542,5.798-7.095,11.229
		C25.067,19.391,28.438,19.032,31.999,19.032z"/>
	<path d="M42.56,22.262c-3.208-0.784-6.798-1.23-10.561-1.23c-3.761,0-7.351,0.446-10.558,1.229C20.776,25.256,20.4,28.556,20.4,32
		c0,3.968,0.497,7.746,1.363,11.083c3.124,0.735,6.601,1.15,10.236,1.15c3.636,0,7.113-0.416,10.238-1.151
		C43.103,39.745,43.6,35.967,43.6,32C43.6,28.556,43.224,25.256,42.56,22.262z"/>
	<path d="M55.069,35.758c0.198-1.224,0.305-2.478,0.305-3.758c0-0.722-0.038-1.435-0.102-2.141
		c-1.533-2.894-5.389-5.392-10.505-6.985C45.306,25.702,45.6,28.772,45.6,32c0,3.75-0.398,7.289-1.116,10.48
		C49.53,40.955,53.386,38.554,55.069,35.758z"/>
	<path d="M43.896,44.771c-1.136,3.922-2.785,7.194-4.79,9.499c6.893-2.198,12.397-7.503,14.862-14.272
		C51.506,42.031,48.036,43.681,43.896,44.771z"/>
	<path d="M20.104,44.772c-4.141-1.09-7.61-2.74-10.073-4.773c2.465,6.769,7.97,12.075,14.863,14.272
		C22.89,51.966,21.241,48.694,20.104,44.772z"/>
	<path d="M44.266,20.591c4.294,1.177,7.84,2.962,10.253,5.152c-2.105-7.592-7.94-13.631-15.413-16.014
		C41.339,12.297,43.134,16.062,44.266,20.591z"/>
	<path d="M19.734,20.591c1.132-4.53,2.927-8.294,5.161-10.862C17.422,12.111,11.586,18.15,9.48,25.743
		C11.894,23.553,15.44,21.768,19.734,20.591z"/>
</g>
</svg>
