<?xml version="1.0" encoding="utf-8"?>
<!-- Generator: Adobe Illustrator 16.0.0, SVG Export Plug-In . SVG Version: 6.00 Build 0)  -->
<!DOCTYPE svg PUBLIC "-//W3C//DTD SVG 1.1//EN" "http://www.w3.org/Graphics/SVG/1.1/DTD/svg11.dtd">
<svg version="1.1" id="Layer_1" xmlns="http://www.w3.org/2000/svg" xmlns:xlink="http://www.w3.org/1999/xlink" x="0px" y="0px"
	 width="64px" height="64px" viewBox="0 0 64 64" enable-background="new 0 0 64 64" xml:space="preserve">
<g>
	<path d="M49.08,38.961l-1.693,2.43l-4.84-2.13l-4.486-2.714l0,0l-1.229-0.743l0,0l-2.344-1.417l0,0l-1.156-0.699l0,0l-2.412-1.459
		l-3.578,2.543l0,0l-0.607,0.433l0.607,0.427l0,0l5.031,3.527l0.789,0.554l0,0l1.727,1.21l-11.574,2.534l-8.807-4.732l-5,2.32
		l12.221,8.161l15.125,0.125l4.449,0.792l-1.83,2.625l5.41,3.767l9.609-13.786L49.08,38.961z M44.385,53.73l-2.127-1.481
		l7.32-10.505l2.129,1.481L44.385,53.73z"/>
	<path d="M13.762,34.998c3.061,3.671,7.656,6.022,12.795,6.052c0.02,0,0.039,0.003,0.057,0.003c0.006,0,0.01-0.001,0.016-0.001
		c0.008,0,0.016,0.001,0.025,0.001c0.195,0,0.385-0.026,0.58-0.033l2.775-1.076l-1.16-0.813c-0.486,0.24-0.99,0.405-1.508,0.485
		v-1.542l-1.377-0.965v2.517c-2.824-0.387-5.264-3.285-6.646-7.458c1.992-0.599,4.25-0.961,6.646-1.019v2.148l1.377-0.979v-1.17
		c0.518,0.013,1.023,0.045,1.527,0.085l0.893-0.635l0.781-0.556c-1.035-0.146-2.102-0.245-3.201-0.271v-4.268h7.75
		c-0.084,1.901-0.359,3.703-0.791,5.348c-0.922-0.279-1.9-0.5-2.91-0.676l0.564,0.342l3.77,2.279
		c0.992,0.402,1.914,0.854,2.707,1.373c-0.051,0.059-0.105,0.113-0.154,0.171l1.205,0.729c0.02-0.025,0.045-0.047,0.066-0.072
		c0.281-0.338,0.549-0.69,0.805-1.052c1.939-2.736,3.084-6.074,3.084-9.678c0-3.602-1.145-6.939-3.084-9.677
		c-0.256-0.361-0.521-0.713-0.805-1.052c-3.082-3.696-7.719-6.054-12.895-6.054c-0.01,0-0.018,0-0.025,0c-0.006,0-0.01,0-0.016,0
		c-0.018,0-0.037,0.002-0.057,0.002c-5.139,0.029-9.734,2.381-12.795,6.053c-0.283,0.339-0.551,0.69-0.807,1.052
		c-1.938,2.736-3.084,6.074-3.084,9.676c0,3.604,1.146,6.941,3.084,9.678C13.211,34.308,13.479,34.658,13.762,34.998z
		 M39.244,33.121c-1.063-0.71-2.293-1.33-3.658-1.838c0.484-1.781,0.795-3.728,0.883-5.779h5.537
		C41.781,28.326,40.789,30.931,39.244,33.121z M42.057,24.128h-5.559c-0.014-2.453-0.34-4.778-0.91-6.873
		c1.361-0.507,2.594-1.126,3.654-1.836C40.984,17.891,42.027,20.888,42.057,24.128z M38.434,14.367
		c-0.936,0.613-2.025,1.154-3.238,1.602c-0.891-2.646-2.191-4.849-3.76-6.342C34.195,10.529,36.605,12.195,38.434,14.367z
		 M27.342,8.923c2.795,0.432,5.203,3.327,6.57,7.472c-1.973,0.584-4.201,0.938-6.57,0.995V8.923z M27.342,18.768
		c2.496-0.061,4.852-0.443,6.953-1.079c0.514,1.958,0.813,4.136,0.824,6.439h-7.777V18.768z M21.748,38.87
		c-2.705-0.912-5.07-2.563-6.871-4.7c0.918-0.601,1.982-1.131,3.162-1.574C18.922,35.208,20.205,37.381,21.748,38.87z
		 M25.965,29.771c-2.527,0.062-4.912,0.452-7.033,1.103c-0.434-1.65-0.711-3.461-0.795-5.37h7.828V29.771z M25.965,24.128h-7.857
		c0.012-2.313,0.314-4.498,0.832-6.462c2.119,0.649,4.5,1.04,7.025,1.102V24.128z M25.965,8.913v8.477
		c-2.395-0.058-4.65-0.42-6.643-1.017C20.705,12.202,23.141,9.301,25.965,8.913z M21.748,9.669
		c-1.543,1.487-2.824,3.662-3.707,6.273c-1.184-0.442-2.248-0.975-3.168-1.576C16.674,12.227,19.043,10.581,21.748,9.669z
		 M14.064,15.418c1.045,0.697,2.25,1.308,3.584,1.81c-0.574,2.103-0.904,4.437-0.918,6.9h-5.479
		C11.281,20.888,12.324,17.889,14.064,15.418z M16.758,25.504c0.088,2.063,0.4,4.02,0.891,5.808
		c-1.334,0.502-2.541,1.112-3.584,1.809c-1.543-2.19-2.537-4.794-2.762-7.616H16.758z"/>
</g>
</svg>
