<?xml version="1.0" encoding="utf-8"?>
<!-- Generator: Adobe Illustrator 16.0.0, SVG Export Plug-In . SVG Version: 6.00 Build 0)  -->
<!DOCTYPE svg PUBLIC "-//W3C//DTD SVG 1.1//EN" "http://www.w3.org/Graphics/SVG/1.1/DTD/svg11.dtd">
<svg version="1.1" id="Layer_1" xmlns="http://www.w3.org/2000/svg" xmlns:xlink="http://www.w3.org/1999/xlink" x="0px" y="0px"
	 width="64px" height="64px" viewBox="0 0 64 64" enable-background="new 0 0 64 64" xml:space="preserve">
<g>
	<path d="M51.818,45.525c0.016-0.018,0.041-0.043,0.047-0.051l-0.008-0.006C51.844,45.488,51.832,45.506,51.818,45.525z"/>
	<path d="M53.938,31.172c-0.041-1.781-0.293-3.508-0.732-5.158c-2.678,1.615-8.754,4.16-20.48,4.16
		c-12.262,0-19.027-2.76-21.885-4.328c-0.461,1.678-0.729,3.436-0.777,5.25c2.199,1.232,9.25,4.494,22.287,4.494
		C45.27,35.59,51.832,32.432,53.938,31.172z"/>
	<path d="M10.117,33.391c0.109,1.4,0.352,2.764,0.711,4.076c1.297,0.943,7.943,5.234,21.574,5.234
		c12.125,0,18.504-3.393,20.631-4.799c0.42-1.418,0.713-2.889,0.84-4.408c-3.104,1.59-9.838,4.096-21.523,4.096
		C20.369,37.59,13.287,34.963,10.117,33.391z"/>
	<path d="M52.584,24.045c-0.604-1.621-1.381-3.158-2.33-4.572c-2.439,1.648-7.875,4.266-17.855,4.266
		c-9.703,0-15.557-2.785-18.393-4.645c-1.035,1.479-1.881,3.094-2.531,4.805c2.326,1.334,8.855,4.275,21.25,4.275
		C44.912,28.174,50.563,25.391,52.584,24.045z"/>
	<path d="M11.92,40.479c0.674,1.535,1.525,2.975,2.518,4.301c1.83,1.246,7.508,4.4,18.102,4.4c9.977,0,15.088-2.912,16.967-4.309
		c0.938-1.244,1.748-2.59,2.408-4.018c-3.412,1.709-9.639,3.848-19.512,3.848C21.787,44.701,15.23,42.227,11.92,40.479z"/>
	<path d="M18.578,49.014c3.705,2.881,8.359,4.6,13.42,4.6c4.857,0,9.334-1.588,12.965-4.26c-2.98,1.01-7.021,1.826-12.424,1.826
		C26.369,51.18,21.807,50.164,18.578,49.014z"/>
	<path d="M43.324,12.863c-1.787-1.078-3.73-1.926-5.801-2.463c-1.123,0.385-2.752,0.779-4.875,0.855
		c-0.199,0.008-0.398,0.012-0.594,0.012c-2.283,0-4.25-0.473-5.531-0.881c-2.123,0.545-4.111,1.414-5.936,2.527
		c2.297,1.029,6.164,2.225,11.814,2.225C37.969,15.139,41.398,13.916,43.324,12.863z"/>
	<path d="M49.059,17.863c-1.141-1.406-2.443-2.674-3.893-3.762c-2.018,1.314-5.951,3.037-12.764,3.037
		c-6.963,0-11.418-1.695-13.734-2.922c-1.26,0.965-2.408,2.064-3.432,3.273c2.633,1.676,8.133,4.248,17.162,4.248
		C41.877,21.738,46.906,19.305,49.059,17.863z"/>
</g>
</svg>
