<?xml version="1.0" encoding="utf-8"?>
<!-- Generator: Adobe Illustrator 16.0.0, SVG Export Plug-In . SVG Version: 6.00 Build 0)  -->
<!DOCTYPE svg PUBLIC "-//W3C//DTD SVG 1.1//EN" "http://www.w3.org/Graphics/SVG/1.1/DTD/svg11.dtd">
<svg version="1.1" id="Layer_1" xmlns="http://www.w3.org/2000/svg" xmlns:xlink="http://www.w3.org/1999/xlink" x="0px" y="0px"
	 width="64px" height="64px" viewBox="0 0 64 64" enable-background="new 0 0 64 64" xml:space="preserve">
<g>
	<path d="M31.999,13.879C18.245,13.879,6.626,22.178,6.626,32s11.619,18.121,25.373,18.121S57.374,41.822,57.374,32
		S45.753,13.879,31.999,13.879z M8.626,32c0-8.738,10.703-16.121,23.373-16.121S55.374,23.262,55.374,32
		c0,2.67-1.004,5.213-2.754,7.457l-0.27,0.018l-0.021,0.344c-0.166,0.199-0.334,0.396-0.511,0.59l-0.419,0.057l-0.941,0.672
		l-0.161,0.129v0.225l0.493-0.076l0.096-0.059c-4.291,4.064-11.228,6.766-18.887,6.766C19.329,48.121,8.626,40.738,8.626,32z"/>
	<polygon points="45.354,35.455 44.684,35.473 44.656,35.109 44.765,35.156 45.027,35.129 44.999,34.795 44.275,34.803 
		44.077,34.541 44.088,34.402 43.153,33.563 42.927,33.742 44.258,35.373 44.448,35.438 44.448,35.525 44.194,35.525 44.258,35.727 
		45.896,35.799 	"/>
	<polygon points="46.403,34.604 46.516,34.529 46.516,33.635 46.403,33.588 46.35,33.307 46.186,33.307 46.081,33.59 45.956,33.703 
		45.008,34.217 45.008,34.725 45.324,35.143 46.121,35.143 46.224,34.883 46.403,34.721 	"/>
	<polygon points="47.106,34.529 46.628,34.715 46.634,34.82 46.516,34.82 46.516,35.482 46.76,35.482 46.724,35.061 46.915,35.129 
		46.915,35.428 47.112,35.412 	"/>
	<polygon points="51.14,38.541 51.008,38.006 50.521,37.588 50.483,36.791 50.161,36.238 49.872,36.225 49.754,37.225 49.2,37.184 
		49.046,37.09 49.026,36.693 49.319,36.754 49.566,36.514 49.041,36.195 48.423,36.195 47.979,36.826 47.798,36.826 47.798,36.627 
		47.267,36.668 46.425,37.627 45.978,37.633 45.48,37.977 45.443,39.461 45.145,39.752 45.145,40.014 46.595,39.516 47.769,39.469 
		48.202,40.426 49.536,40.471 50.822,39.262 	"/>
	<polygon points="48.378,41.16 48.849,41.213 49.23,41.004 49.237,40.715 48.821,40.672 	"/>
	<polygon points="49.211,34.912 48.907,34.92 48.931,34.604 48.64,34.432 48.229,34.844 48.504,35.184 49.103,35.27 49.437,35.445 
		49.446,35.607 49.228,35.607 49.237,35.943 49.962,35.898 50.225,35.617 50.505,35.59 50.505,36.107 50.995,36.107 50.995,35.898 
		50.75,35.898 50.705,35.27 49.536,34.738 	"/>
	<polygon points="40.518,33.408 40.632,33.717 41.044,33.563 41.089,33.137 40.757,33.07 	"/>
	<polygon points="35.682,36.994 35.12,36.922 35.12,37.357 35.32,37.592 35.167,37.826 34.938,38.09 34.938,38.57 35.247,38.869 
		35.529,38.418 36.08,37.609 36.344,36.342 36.009,36.342 	"/>
	<polygon points="47.226,35.656 47.043,35.656 47.043,35.754 47.185,35.799 	"/>
	<rect x="46.186" y="35.799" width="0.218" height="0.121"/>
	<polygon points="46.717,35.92 46.852,35.92 46.852,35.814 46.95,35.799 46.95,35.695 46.733,35.695 46.644,35.799 46.516,35.92 
		46.516,36.025 46.717,36.004 	"/>
	<polygon points="47.273,36.014 47.491,36.014 47.491,35.902 47.643,35.92 47.622,35.727 47.375,35.766 47.353,35.889 47.076,35.92 
		47.062,35.92 47.062,36.109 47.273,36.109 	"/>
	<path d="M13.851,26.281l-0.294-0.045c0,0.018,0.022,0.332,0.045,0.332s0.203,0,0.203,0L13.851,26.281z"/>
	<polygon points="28.592,26.295 28.614,26.473 28.353,26.527 28.316,26.902 28.634,26.902 29.054,26.861 29.271,26.604 
		29.041,26.514 28.914,26.367 28.723,26.061 28.634,25.625 28.274,25.697 28.175,25.852 28.175,26.023 28.348,26.143 	"/>
	<polygon points="28.288,26.439 28.308,26.205 28.098,26.113 27.805,26.182 27.587,26.531 27.587,26.758 27.84,26.758 	"/>
	<path d="M43.32,33.322l1.29,1.236l0.068-0.219l-1.046-1.494l0.108-0.436l0.553,0.629l0.309,0.031l0.405-0.27l-0.066-0.406
		l-0.671-0.541l-0.027-0.486l0.19-0.26l0.34,0.109l-0.028,0.23l0.196,0.299l0.172-0.121l-0.095-0.354l0.95-0.34l0.417-0.35
		l-0.064-0.629l-0.828-0.869l-0.013-0.705h0.366l1.14,0.869l0.323-0.086l-0.214-0.281l-0.61-0.371l0.036-0.553l0.725,0.002
		l0.058-0.684l-0.275-0.365l0.163-0.174l0.353,0.352l0.113-0.148l-0.453-0.518l-1.127-0.135l-0.148-0.299l0.326-0.463l0.258,0.191
		l0.773,0.066l0.979-0.652l0.162,0.203l-0.218,0.34v0.34l0.896,0.734l0.286-0.148l-0.108-0.49l-0.638-0.596l0.842-0.057v-0.244
		l0.407-0.082l-0.313-0.215l0.014-0.164l0.855,0.139l0.162-0.139l-1.154-0.488l-4.209-0.217l-0.395-0.201l-0.626-0.094l-0.47-0.014
		l-0.426,0.43l-0.181-0.014l-0.567-0.422h-1.669l-0.775-0.461l-1.551,0.098l-1.18,0.525l0.01,0.613l-0.363,0.109l-0.081-0.613
		l-0.135-0.211l-0.407-0.102l-0.096,0.367l0.122,0.299l-1.449-0.094l-0.69,0.32l-0.105-0.303l-0.174,0.045l-0.125,0.334
		l-0.361,0.283l-0.885-0.025l-0.04-0.193l0.925-0.041l0.189-0.162l-1.114-0.518l-1.358,0.043l-0.76,0.389l-0.286,0.508l-0.502,0.197
		l-0.212,0.23l0.049,0.268l0.259,0.035l0.156,0.393l0.446-0.182l0.075,0.523h-0.135l-0.368-0.055l-0.407,0.068l-0.394,0.557
		l-0.564,0.09l-0.081,0.48l0.238,0.057l-0.067,0.311l-0.561-0.111l-0.514,0.111l-0.108,0.285l0.089,0.6l0.301,0.141l0.505-0.002
		l0.342-0.031l0.104-0.271l0.532-0.693l0.352,0.07l0.346-0.313l0.065,0.246l0.85,0.574L30.92,28.66l-0.384-0.02l0.147,0.209
		l0.236,0.053l0.276-0.117l-0.006-0.332l0.124-0.061l-0.101-0.105l-0.566-0.316l-0.149-0.422h0.472l0.15,0.15l0.407,0.35
		l0.017,0.424l0.422,0.447l0.155-0.613l0.293-0.16l0.054,0.504l0.286,0.313l0.858-0.014l0.255,0.189v0.449l-0.312,0.285h-0.871
		l-0.529-0.395l-0.558,0.055v0.34h-0.176l-0.189-0.137l-0.965-0.244v-0.625l-1.223,0.096l-0.381,0.203H28.18l-0.238-0.025
		l-0.59,0.328v0.617l-1.204,0.869l0.101,0.371h0.243l-0.063,0.354l-0.171,0.063l-0.009,0.924l1.039,1.186h0.454l0.026-0.072h0.815
		l0.235-0.217h0.462l0.254,0.254l0.688,0.07l-0.09,0.916l0.766,1.35l-0.404,0.77l0.027,0.361l0.317,0.318v0.869l0.416,0.561v0.725
		h1.232l0.924-0.951l0.289-0.516l0.371-0.082v-0.434l0.245-0.291l0.516-0.705l-0.108-1.076l-0.227-0.4l1.017-0.971l1.12-1.602
		l-0.217-0.1l-1.163,0.244l-0.3-0.148l-1.223-2.303l0.086-0.1l1.213,1.473l0.029,0.455l0.279,0.281l0.569-0.037l1.192-0.863
		l0.374-0.244l-0.008-0.299l-0.397-0.051c0,0-1.396-0.658-1.396-0.688s0.009-0.563,0.009-0.563h0.309l0.045,0.389l0.647,0.371
		l0.738,0.035l1.603,0.264l0.375,0.234v0.367l-0.048,0.5l0.822,1.352l0.265,0.061l0.264-0.385l0.147-1.092l0.273-0.59l0.441-0.164
		l0.779,0.074l0.978,0.869V33.322z M32.054,24.725l-0.539,0.33v0.217l0.305,0.143l0.021,0.291l-0.431,0.643l-0.748-0.008
		l-0.047-0.154l0.468-0.238l0.003-0.887l0.796-0.553h0.173V24.725z M33.715,28.5l-0.704-0.029L32.799,28.5v-0.48l0.158-0.178
		l0.171-0.055l0.374-0.043l0.08-0.127l0.154,0.076l0.021,0.438l0.409,0.17l0.035,0.199H33.715z M36.421,28.844l-0.123,0.119
		l-0.285-0.023l-0.055-0.086l-0.448-0.031l0.032-0.145l0.235-0.205v-0.172l-0.452-0.33l-0.019-0.422l0.091-0.207l0.366-0.033
		l0.313,0.133l0.014,0.217l-0.443-0.025l-0.022,0.203l0.557,0.369v0.273l0.24,0.176V28.844z"/>
	<path d="M22.193,27.605h-0.313v0.16h0.074c0,0,0.004,0.035,0.011,0.08l0.191-0.016l0.119-0.074l0.031-0.15l0.154-0.014l0.062-0.125
		l-0.143-0.031l-0.124,0.006L22.193,27.605z"/>
	<polygon points="21.439,27.891 21.668,27.871 21.689,27.713 21.554,27.605 21.452,27.732 	"/>
	<path d="M24.417,34.875l-0.958-0.008l-0.762-0.291l-0.036-0.541l-0.254-0.445l-0.688-0.01l-0.399-0.625l-0.353-0.172l-0.017,0.189
		l-0.645,0.039l-0.235-0.328l-0.67-0.137l-0.552,0.639l-0.87-0.146l-0.063-0.98l-0.634-0.107l0.254-0.48l-0.073-0.277l-0.832,0.559
		l-0.526-0.064l-0.187-0.41l0.115-0.422l0.289-0.533l0.665-0.338h1.286l-0.004,0.393l0.463,0.215l-0.038-0.67l0.333-0.334
		l0.672-0.443l0.046-0.311l0.67-0.695l0.713-0.395l-0.063-0.053l0.483-0.453l0.177,0.047l0.081,0.102l0.183-0.203l0.045-0.021
		l-0.201-0.027l-0.203-0.066v-0.197l0.108-0.09h0.238l0.109,0.049l0.094,0.189l0.115-0.018v-0.016l0.034,0.01l0.333-0.051
		l0.047-0.164l0.19,0.049v0.176l-0.176,0.121l0.025,0.195l0.605,0.188c0,0,0.001,0.002,0.002,0.006l0.139-0.012l0.009-0.262
		l-0.479-0.219l-0.028-0.127l0.399-0.135l0.017-0.381l-0.416-0.252l-0.027-0.645l-0.571,0.281h-0.208l0.056-0.488l-0.777-0.184
		l-0.321,0.24v0.742l-0.577,0.184l-0.231,0.482l-0.251,0.039v-0.617l-0.543-0.074l-0.271-0.176l-0.109-0.4l0.972-0.57l0.477-0.145
		l0.046,0.318l0.266-0.014l0.021-0.16l0.276-0.039l0.004-0.057l-0.118-0.049l-0.026-0.17l0.341-0.027l0.204-0.215l0.013-0.016
		l0.001,0.002l0.064-0.064l0.715-0.092l0.316,0.27l-0.83,0.441l1.056,0.25l0.138-0.354h0.461l0.163-0.307l-0.325-0.082v-0.389
		l-1.023-0.455l-0.706,0.082l-0.399,0.209l0.027,0.506l-0.416-0.063l-0.064-0.279l0.398-0.363l-0.724-0.037l-0.208,0.063
		l-0.092,0.246L20.461,24l-0.054,0.271l-0.463,0.027l-0.072,0.182l-0.67,0.018c0,0-0.019-0.381-0.044-0.381
		c-0.028,0,0.523-0.01,0.523-0.01l0.398-0.389l-0.217-0.107l-0.29,0.279l-0.479-0.025l-0.29-0.4h-0.615l-0.645,0.48h0.59
		l0.055,0.172l-0.155,0.146l0.652,0.018l0.1,0.236l-0.733-0.029l-0.035-0.18l-0.463-0.1l-0.245-0.137l-1.085,0.01l-0.336,0.326
		l-0.227-0.02l-0.253-0.145l-0.752-0.227H13.28l-0.798,0.543l-0.533,0.084l-0.245,0.189l0.381,0.057v0.15H11.27l-0.316,0.227
		l0.407,0.344l1.113,0.01l0.154-0.164h0.932l0.335,0.301l-0.017,0.461l0.28,0.264l-0.235,0.166l0.055,0.611l-0.843,1.023v0.961
		l0.453,0.217v0.861l0.434,0.74l0.354,0.055l0.046-0.254l-0.416-0.643l-0.082-0.623h0.244l0.104,0.643l0.603,0.877l-0.155,0.285
		l0.382,0.584l0.952,0.236v-0.154l0.379,0.053l-0.035,0.273l0.299,0.055l0.462,0.127l0.651,0.742l0.833,0.063l0.081,0.68
		l-0.57,0.398l-0.026,0.605l-0.082,0.373l0.823,1.033l0.063,0.352c0,0,0.3,0.08,0.337,0.08c0.035,0,0.67,0.48,0.67,0.48v1.865
		l0.227,0.064l-0.156,0.859l0.382,0.508l-0.071,0.854l0.503,0.883l0.646,0.563l0.648,0.014l0.063-0.209l-0.476-0.4l0.027-0.201
		l0.084-0.244l0.019-0.248l-0.321-0.01l-0.162-0.203l0.267-0.258l0.036-0.195l-0.299-0.086l0.019-0.18l0.426-0.064l0.647-0.313
		l0.217-0.398l0.68-0.869l-0.155-0.68l0.21-0.363l0.624,0.02l0.421-0.334l0.136-1.309l0.467-0.594l0.081-0.381l-0.425-0.135
		L24.417,34.875z M19.496,28.182l-0.155,0.156h-0.348l0.055-0.236l0.163-0.016l0.034-0.08l0.251-0.035V28.182z M19.578,27.754
		l-0.163,0.105l-0.204,0.037c0,0,0-0.326,0-0.359h0.367V27.754z M19.887,27.502l0.168,0.104l-0.135,0.109l-0.131-0.109
		L19.887,27.502z M19.666,27.773h0.027l0.414,0.123v0.211h-0.347l-0.095-0.137V27.773z M19.394,27.189l0.226,0.203l-0.226,0.055
		V27.189z M18.444,27.223l0.312-0.129h0.428v0.129h0.095v0.225h-0.651l-0.244-0.068L18.444,27.223z M18.383,27.807l0.25-0.27h0.36
		l-0.461,0.645l-0.19-0.102L18.383,27.807z M18.05,26.273l0.258,0.061L18.22,26.68l-0.278,0.09l-0.177-0.361L18.05,26.273z
		 M16.76,24.629v-0.02h0.237l0.021-0.082h0.389v0.17l-0.111,0.15H16.76V24.629z M17.14,25.16c0,0,0.238-0.043,0.258-0.043
		c0.021,0,0,0.238,0,0.238l-0.536,0.035l-0.102-0.123L17.14,25.16z"/>
</g>
</svg>
