<?xml version="1.0" encoding="utf-8"?>
<!-- Generator: Adobe Illustrator 16.0.0, SVG Export Plug-In . SVG Version: 6.00 Build 0)  -->
<!DOCTYPE svg PUBLIC "-//W3C//DTD SVG 1.1//EN" "http://www.w3.org/Graphics/SVG/1.1/DTD/svg11.dtd">
<svg version="1.1" id="Layer_1" xmlns="http://www.w3.org/2000/svg" xmlns:xlink="http://www.w3.org/1999/xlink" x="0px" y="0px"
	 width="64px" height="64px" viewBox="0 0 64 64" enable-background="new 0 0 64 64" xml:space="preserve">
<g>
	<path d="M32.602,10.09c6.39,0,12.095,2.968,15.825,7.592l-2.45,1.729l7.705,2.63l-0.8-7.504l-2.158,1.522
		c-4.243-5.343-10.785-8.78-18.122-8.78c-3.613,0-7.035,0.833-10.085,2.315l0.898,2.696C26.177,10.887,29.297,10.09,32.602,10.09z"
		/>
	<path d="M52.779,35.643c-0.707,3.018-2.109,5.918-4.239,8.443c-4.121,4.884-10.067,7.331-16.007,7.202l0.258-2.987l-6.978,4.193
		l6.252,4.227l0.227-2.632c6.819,0.201,13.666-2.583,18.396-8.191c2.33-2.763,3.898-5.915,4.732-9.202L52.779,35.643z"/>
	<path d="M12.911,38.699c-2.426-5.912-1.848-12.316,1.014-17.523l2.53,1.61l-0.493-8.126l-6.638,3.589l2.229,1.419
		c-3.332,5.953-4.028,13.312-1.241,20.098c1.372,3.345,3.443,6.192,5.972,8.451l2.154-1.855
		C16.088,44.34,14.166,41.756,12.911,38.699z"/>
	<path d="M47.396,30.818c0-8.271-6.729-15-15-15c-9.265,0-15,7.785-15,15c0,8.271,6.729,15,15,15
		C40.667,45.818,47.396,39.089,47.396,30.818z M40.233,42.129c0.172-0.658,0.358-1.496,0.51-2.466c0.008,0,0.016,0.003,0.023,0.003
		c1.17,0,2.121-0.895,2.232-2.036c0.628-0.151,1.167-0.308,1.604-0.454C43.566,39.16,42.061,40.859,40.233,42.129z M46.165,30.818
		c0,1.676-0.302,3.281-0.852,4.768c-0.363,0.16-1.225,0.499-2.54,0.819c-0.333-0.661-0.977-1.13-1.743-1.22
		c-0.083-2.729-0.672-5.801-2.327-8.732c-0.332-0.588-0.676-1.135-1.028-1.654c0.397-0.324,0.688-0.771,0.793-1.293
		c2.921-0.297,5.131-0.004,5.634,0.074C45.409,25.684,46.165,28.164,46.165,30.818z M37.558,18.057
		c2.2,0.893,4.118,2.338,5.582,4.164c-1.082-0.098-2.771-0.162-4.779,0.039c-0.213-0.561-0.64-1.014-1.185-1.258
		C37.347,19.738,37.477,18.709,37.558,18.057z M37.631,27.058c1.564,2.772,2.09,5.722,2.144,8.341
		c-0.638,0.314-1.104,0.918-1.224,1.645c-1.283,0.09-2.733,0.105-4.345,0c-0.021-0.538-0.23-1.024-0.564-1.402
		c1.125-2.553,2.099-5.17,2.431-7.186c0.172-1.047,0.335-2.094,0.487-3.104C36.928,25.883,37.287,26.449,37.631,27.058z
		 M24.034,30.805c1.201-1.289,2.735-2.648,4.691-3.947c1.86-1.236,3.797-2.045,5.649-2.572c0.237,0.363,0.575,0.652,0.975,0.83
		c-0.153,1.021-0.317,2.079-0.492,3.139c-0.305,1.854-1.212,4.298-2.274,6.721c-0.199-0.059-0.405-0.099-0.623-0.099
		c-0.969,0-1.789,0.616-2.106,1.474c-2.244-0.682-4.167-1.862-5.743-3.168c0.19-0.331,0.307-0.709,0.307-1.117
		C24.418,31.598,24.277,31.164,24.034,30.805z M32.396,17.049c1.382,0,2.715,0.207,3.975,0.587
		c-0.075,0.612-0.218,1.749-0.413,3.198c-0.441,0.061-0.838,0.245-1.16,0.521c-2.171-2.105-4.324-3.283-5.772-3.904
		C30.083,17.193,31.206,17.049,32.396,17.049z M27.121,18.071c0.688,0.198,3.839,1.241,6.987,4.353
		c-0.06,0.203-0.101,0.412-0.101,0.633c0,0.013,0.003,0.023,0.003,0.035c-1.945,0.563-3.987,1.424-5.967,2.74
		c-2.076,1.379-3.694,2.814-4.961,4.178c-0.281-0.126-0.59-0.199-0.917-0.199c-0.403,0-0.776,0.115-1.104,0.301
		c-1.043-1.268-1.709-2.33-1.962-2.76C20.159,23.42,22.976,19.779,27.121,18.071z M18.627,30.818c0-0.57,0.042-1.145,0.118-1.717
		c0.362,0.535,0.851,1.197,1.439,1.91c-0.168,0.314-0.272,0.67-0.272,1.053c0,0.536,0.195,1.021,0.509,1.409
		c-0.441,0.714-0.782,1.356-1.023,1.878C18.9,33.932,18.627,32.406,18.627,30.818z M20.076,36.955
		c0.144-0.418,0.546-1.434,1.366-2.768c0.229,0.078,0.468,0.129,0.723,0.129c0.373,0,0.719-0.099,1.028-0.259
		c1.767,1.483,3.959,2.843,6.575,3.575c0.128,0.561,0.463,1.043,0.924,1.357c-1.125,2.25-2.148,4.104-2.598,4.905
		C24.591,42.74,21.706,40.215,20.076,36.955z M31.883,39.375c0.026,0.001,0.051,0.008,0.077,0.008c0.83,0,1.547-0.453,1.938-1.121
		c0.893,0.064,1.745,0.099,2.542,0.099c0.799,0,1.544-0.03,2.247-0.081c0.174,0.417,0.469,0.768,0.842,1.014
		c-0.273,1.873-0.688,3.259-0.858,3.775c-1.883,0.969-4.016,1.519-6.275,1.519c-1.059,0-2.088-0.124-3.079-0.352
		C29.844,43.293,30.824,41.501,31.883,39.375z"/>
</g>
</svg>
