<?xml version="1.0" encoding="utf-8"?>
<!-- Generator: Adobe Illustrator 16.0.0, SVG Export Plug-In . SVG Version: 6.00 Build 0)  -->
<!DOCTYPE svg PUBLIC "-//W3C//DTD SVG 1.1//EN" "http://www.w3.org/Graphics/SVG/1.1/DTD/svg11.dtd">
<svg version="1.1" id="Layer_1" xmlns="http://www.w3.org/2000/svg" xmlns:xlink="http://www.w3.org/1999/xlink" x="0px" y="0px"
	 width="64px" height="64px" viewBox="0 0 64 64" enable-background="new 0 0 64 64" xml:space="preserve">
<path d="M32,8.626c-4.232,0-8.197,1.13-11.621,3.097l1.152,0.687h3.729l1.267,0.94l0.402,0.031l0.951-0.961l1.051,0.035l1.396,0.208
	l0.88,0.445l9.404,0.485l2.579,1.091l-0.364,0.309l-1.911-0.309l-0.03,0.37l0.698,0.481l-0.91,0.182v0.546l-1.881,0.122l1.426,1.334
	l0.242,1.092l-0.639,0.333l-2.001-1.637v-0.759l0.485-0.758l-0.363-0.455l-2.186,1.456l-1.729-0.152l-0.576-0.424l-0.729,1.032
	l0.334,0.667l2.518,0.303l1.011,1.153l-0.253,0.334l-0.787-0.79l-0.365,0.394l0.617,0.813l-0.133,1.528l-1.616-0.002l-0.081,1.233
	l1.365,0.829l0.475,0.627l-0.718,0.192l-2.548-1.942h-0.819l0.03,1.578l1.851,1.941l0.142,1.407l-0.932,0.777l-2.121,0.759
	l0.211,0.789l-0.386,0.273l-0.433-0.667l0.061-0.516l-0.758-0.243l-0.426,0.576l0.06,1.093l1.496,1.204l0.15,0.909l-0.905,0.603
	l-0.689-0.073l-1.234-1.4l-0.242,0.972l2.336,3.337l-0.152,0.484l-2.883-2.76v-2.791l-2.183-1.941l-1.74-0.167l-0.987,0.368
	l-0.611,1.315l-0.325,2.442l-0.591,0.857l-0.593-0.137l-1.835-3.019l0.107-1.114v-0.819l-0.838-0.527l-3.58-0.585l-1.65-0.081
	l-1.444-0.83l-0.102-0.871H9.84c0,0-0.02,1.195-0.02,1.26s3.115,1.533,3.115,1.533l0.888,0.116l0.015,0.667l-0.833,0.546
	l-2.661,1.926L9.07,32.059l-0.435-0.436C8.634,31.749,8.627,31.874,8.627,32c0,0.238,0.01,0.474,0.018,0.71l0.234,0.117l2.599-0.547
	l0.485,0.223L9.461,36.08l-0.403,0.385C11.143,47.238,20.619,55.374,32,55.374c5.874,0,11.238-2.172,15.344-5.75l-0.336,0.148
	l-0.756,0.496l-2.669,1.637l-1.101,0.168v-0.5l0.359-0.294l2.104-1.497l1.314-0.182l0.708-0.484l0.102-1.548l0.806-0.049
	l0.013,0.991l0.438-0.087l0.109,0.193C52.719,44.379,55.373,38.5,55.373,32C55.373,19.091,44.908,8.626,32,8.626z M21.813,34.364
	l-0.92,0.343l-0.254-0.688l0.534-0.752l0.741,0.146L21.813,34.364z M38.783,36.306l0.646,0.384l-0.051,0.706l0.677-0.018
	l0.729-0.385l2.608,1.184l0.101,1.404h0.547v0.466h-1.092v-1.153l-0.627,0.061l-0.588,0.626l-1.617,0.103l-0.021-0.749h0.485
	l-0.02-0.365l-0.75-0.393l-1.333-0.192l-0.617-0.758L38.783,36.306z M35.906,39.563l0.049-0.281l0.554-0.082l0.046,0.43
	l-0.342-0.038v0.25h-0.484v0.212h-0.471V39.63h0.03L35.906,39.563z M35.53,39.36l-0.318-0.099v-0.219h0.409L35.53,39.36z
	 M35.356,36.523l0.015,1.97l-0.443,0.041v-0.667l-0.426-0.152l0.081,0.942h-0.546v-1.478h0.264l-0.014-0.239L35.356,36.523z
	 M35.008,39.129v0.231l-0.22,0.034v0.236h-0.304v0.189l-0.447,0.046V39.63l0.287-0.27l0.197-0.231H35.008z M30.669,35.826
	l2.116-1.147l0.281-0.25l0.234-0.631h0.365l0.121,0.623l0.25,0.104v1.998l-0.25,0.164v0.266l-0.402,0.364l-0.228,0.577h-1.782
	l-0.706-0.934V35.826z M33.787,39.36v0.27h-0.486v-0.27H33.787z M28.852,38.753h0.566v-0.203l-0.426-0.142l-2.972-3.641l0.507-0.404
	l2.085,1.878l-0.024,0.306l0.445,0.586l1.618-0.02l0.062,0.748l-0.587,0.061l-0.243-0.102l0.061,0.809l1.498-0.041l1.212,0.77
	l-3.661-0.16L28.852,38.753z M40.1,50.984l-0.85,0.469l-1.055-0.115l0.992-1.097l0.93,0.102L40.1,50.984z M43.656,47.097l-2.871,2.7
	l-2.979-0.103l-0.972-2.136l-2.623,0.105l-3.236,1.112v-0.587l0.668-0.647l0.081-3.316l1.112-0.769l0.997-0.012l1.88-2.143
	l1.188-0.09v0.444h0.404l0.992-1.407h1.38l1.174,0.706l-0.551,0.539l-0.655-0.134l0.044,0.886l0.345,0.208l1.235,0.092l0.264-2.234
	l0.647,0.03l0.719,1.232l0.082,1.781l1.089,0.933l0.295,1.195L43.656,47.097z"/>
</svg>
