<?xml version="1.0" encoding="utf-8"?>
<!-- Generator: Adobe Illustrator 16.0.0, SVG Export Plug-In . SVG Version: 6.00 Build 0)  -->
<!DOCTYPE svg PUBLIC "-//W3C//DTD SVG 1.1//EN" "http://www.w3.org/Graphics/SVG/1.1/DTD/svg11.dtd">
<svg version="1.1" id="Layer_1" xmlns="http://www.w3.org/2000/svg" xmlns:xlink="http://www.w3.org/1999/xlink" x="0px" y="0px"
	 width="64px" height="64px" viewBox="0 0 64 64" enable-background="new 0 0 64 64" xml:space="preserve">
<g>
	<circle cx="31.139" cy="31.598" r="4.05"/>
	<path d="M40.146,31.213c-0.285-4.941-4.522-8.763-9.529-8.486c-4.966,0.288-8.773,4.562-8.486,9.528
		c0.195,3.355,2.192,6.276,5.233,7.676c1.748,1.903,3.574,4.595,3.593,4.622l0.978,1.445l0.847-1.524
		c0.019-0.033,1.781-3.2,2.931-4.961C38.607,37.808,40.341,34.579,40.146,31.213z M34.444,37.769l-0.229,0.126l-0.146,0.218
		c-0.703,1.051-1.651,2.666-2.325,3.842c-0.764-1.045-1.871-2.484-2.961-3.646l-0.153-0.164l-0.205-0.088
		c-2.41-1.035-4-3.307-4.152-5.924c-0.219-3.787,2.683-7.046,6.469-7.265c0.135-0.008,0.271-0.012,0.405-0.012
		c3.637,0,6.649,2.847,6.859,6.481C38.158,33.974,36.76,36.497,34.444,37.769z"/>
	<path d="M51.895,17.945c-0.371-0.524-0.759-1.035-1.17-1.527C46.25,11.05,39.518,7.626,32,7.626c-0.013,0-0.024,0-0.036,0
		c-0.008,0-0.015,0-0.021,0c-0.028,0-0.056,0.003-0.084,0.003c-7.461,0.043-14.136,3.457-18.582,8.79
		c-0.41,0.492-0.799,1.003-1.17,1.527c-2.816,3.975-4.479,8.821-4.479,14.053c0,5.232,1.663,10.08,4.479,14.055
		c0.371,0.523,0.76,1.035,1.17,1.527c4.447,5.332,11.121,8.746,18.582,8.789c0.028,0,0.056,0.004,0.084,0.004
		c0.007,0,0.014-0.002,0.021-0.002c0.012,0,0.023,0.002,0.036,0.002c7.519,0,14.251-3.424,18.726-8.792
		c0.41-0.492,0.799-1.004,1.17-1.528c2.816-3.975,4.479-8.822,4.479-14.055C56.374,26.769,54.711,21.921,51.895,17.945z
		 M54.368,31.794h-8.072c-0.018-3.562-0.493-6.938-1.322-9.981c1.979-0.736,3.767-1.635,5.309-2.665
		C52.811,22.735,54.325,27.089,54.368,31.794z M49.107,17.619c-1.36,0.892-2.942,1.676-4.702,2.325
		c-1.295-3.844-3.184-7.04-5.459-9.209C42.95,12.046,46.452,14.466,49.107,17.619z M24.875,10.796
		c-2.241,2.16-4.102,5.319-5.385,9.111c-1.719-0.643-3.266-1.415-4.6-2.289C17.506,14.512,20.946,12.12,24.875,10.796z
		 M13.717,19.146c1.515,1.013,3.267,1.897,5.204,2.626c-0.836,3.055-1.315,6.443-1.333,10.021H9.631
		C9.674,27.089,11.188,22.734,13.717,19.146z M9.705,33.794h7.923c0.129,2.994,0.583,5.836,1.293,8.434
		c-1.938,0.729-3.689,1.614-5.203,2.626C11.475,41.673,10.032,37.892,9.705,33.794z M14.897,46.378
		c1.333-0.872,2.877-1.643,4.592-2.285c1.283,3.793,3.146,6.949,5.387,9.111C20.946,51.88,17.512,49.483,14.897,46.378z M33,54.286
		v-6.085l-0.896,1.615L31,48.185v6.117c-4.103-0.563-7.646-4.772-9.653-10.832c1.694-0.509,3.531-0.883,5.452-1.137
		c-0.217-0.264-0.437-0.525-0.658-0.774c-0.513-0.261-0.991-0.568-1.449-0.898c-1.352,0.252-2.667,0.553-3.906,0.933
		c-0.631-2.397-1.035-5.026-1.157-7.799h0.684c-0.088-0.467-0.149-0.942-0.177-1.425c-0.011-0.193-0.003-0.384-0.004-0.575h-0.542
		c0.017-3.359,0.455-6.531,1.207-9.384c1.069,0.327,2.199,0.591,3.353,0.824c0.771-0.637,1.631-1.169,2.561-1.579
		c-1.886-0.253-3.691-0.623-5.357-1.123C23.36,14.474,26.898,10.261,31,9.697v11.019c0.043-0.001,0.087-0.004,0.13-0.004
		c0.638,0,1.261,0.063,1.87,0.168V9.713c4.06,0.627,7.555,4.831,9.542,10.85c-2.036,0.603-4.265,1.027-6.614,1.258
		c0.918,0.445,1.765,1.013,2.521,1.684c1.622-0.263,3.18-0.617,4.648-1.062c0.747,2.844,1.182,6.006,1.199,9.352h-2.16
		c-0.005,0.675-0.06,1.345-0.188,2h2.307c-0.121,2.76-0.523,5.377-1.149,7.766c-1.638-0.497-3.389-0.877-5.214-1.146
		c-0.243,0.19-0.479,0.388-0.739,0.558c-0.235,0.372-0.499,0.805-0.771,1.262c2.182,0.241,4.261,0.641,6.166,1.205
		C40.559,49.458,37.059,53.659,33,54.286z M38.946,53.265c2.275-2.17,4.168-5.363,5.462-9.208c1.757,0.649,3.337,1.433,4.695,2.321
		C46.448,49.532,42.95,51.952,38.946,53.265z M50.284,44.854c-1.542-1.031-3.33-1.931-5.312-2.668
		c0.704-2.587,1.154-5.414,1.282-8.393h8.041C53.968,37.892,52.527,41.675,50.284,44.854z"/>
</g>
</svg>
