<?xml version="1.0" encoding="utf-8"?>
<!-- Generator: Adobe Illustrator 16.0.0, SVG Export Plug-In . SVG Version: 6.00 Build 0)  -->
<!DOCTYPE svg PUBLIC "-//W3C//DTD SVG 1.1//EN" "http://www.w3.org/Graphics/SVG/1.1/DTD/svg11.dtd">
<svg version="1.1" id="Layer_1" xmlns="http://www.w3.org/2000/svg" xmlns:xlink="http://www.w3.org/1999/xlink" x="0px" y="0px"
	 width="64px" height="64px" viewBox="0 0 64 64" enable-background="new 0 0 64 64" xml:space="preserve">
<g>
	<path d="M27.586,49.088l-0.445-7.48l-2.661-0.971l-0.045,5.494l-4.772-4.463l-0.607-5.48l-2.618-1.545l0.119,8.104l4.676,6.908
		l1.032,2.268l-1.764-0.01l-0.018,3.637l9.268,0.049l0.017-3.637l-1.633-0.008L27.586,49.088z M28.651,54.488l-7.061-0.037
		l0.006-1.428l7.062,0.035L28.651,54.488z"/>
	<path d="M43.788,41.674l-4.842,4.389l0.041-5.492l-2.678,0.928l-0.56,7.473l-0.592,2.855l-1.634-0.018l-0.039,3.637l9.268,0.096
		l0.038-3.637l-1.764-0.018l1.067-2.252l4.782-6.836l0.244-8.1l-2.643,1.504L43.788,41.674z M41.678,52.996l-0.016,1.43l-7.062-0.07
		l0.016-1.432L41.678,52.996z"/>
	<path d="M44.016,33.506c0.257-0.311,0.502-0.631,0.734-0.961c1.77-2.496,2.813-5.543,2.813-8.83c0-3.285-1.044-6.332-2.813-8.83
		c-0.232-0.33-0.477-0.65-0.734-0.959c-2.812-3.373-7.041-5.523-11.766-5.523c-0.008,0-0.015,0-0.022,0c-0.005,0-0.009,0-0.014,0
		c-0.018,0-0.034,0.002-0.053,0.002c-4.687,0.027-8.881,2.172-11.674,5.521c-0.258,0.311-0.502,0.631-0.735,0.961
		c-1.77,2.496-2.814,5.541-2.814,8.828s1.045,6.334,2.814,8.83c0.233,0.328,0.478,0.65,0.735,0.959
		c2.794,3.35,6.987,5.496,11.674,5.521c0.019,0,0.035,0.004,0.053,0.004c0.005,0,0.009-0.002,0.014-0.002
		c0.008,0,0.015,0.002,0.022,0.002C36.975,39.029,41.204,36.877,44.016,33.506z M27.774,10.393
		c-1.408,1.357-2.577,3.344-3.383,5.725c-1.08-0.402-2.052-0.889-2.89-1.438C23.145,12.729,25.306,11.225,27.774,10.393z
		 M20.765,15.641c0.951,0.635,2.052,1.191,3.27,1.648c-0.525,1.92-0.826,4.049-0.838,6.297h-4.999
		C18.225,20.631,19.175,17.895,20.765,15.641z M18.243,24.844h4.978c0.081,1.879,0.366,3.666,0.813,5.297
		c-1.217,0.457-2.317,1.014-3.269,1.65C19.355,29.793,18.449,27.416,18.243,24.844z M21.506,32.748
		c0.838-0.547,1.808-1.031,2.885-1.436c0.806,2.383,1.976,4.367,3.384,5.725C25.306,36.205,23.148,34.699,21.506,32.748z
		 M31.622,37.727c-2.577-0.354-4.804-2.998-6.064-6.805c1.817-0.547,3.877-0.877,6.064-0.93V37.727z M31.622,28.736
		c-2.306,0.055-4.48,0.412-6.417,1.006c-0.396-1.506-0.65-3.158-0.727-4.898h7.144V28.736z M31.622,23.586h-7.169
		c0.01-2.111,0.286-4.104,0.758-5.895c1.935,0.592,4.107,0.949,6.411,1.004V23.586z M31.622,17.439
		c-2.186-0.055-4.244-0.385-6.062-0.928c1.262-3.807,3.484-6.453,6.062-6.809V17.439z M43.738,31.791
		c-0.969-0.648-2.093-1.213-3.338-1.676c0.442-1.625,0.726-3.402,0.806-5.271h5.052C46.053,27.416,45.146,29.795,43.738,31.791z
		 M46.304,23.586h-5.071c-0.012-2.238-0.31-4.359-0.831-6.271c1.244-0.463,2.366-1.027,3.335-1.674
		C45.325,17.895,46.276,20.631,46.304,23.586z M42.999,14.68c-0.855,0.561-1.849,1.055-2.955,1.461
		c-0.813-2.414-2-4.422-3.429-5.785C39.13,11.18,41.33,12.699,42.999,14.68z M32.879,9.713c2.55,0.395,4.746,3.035,5.994,6.816
		c-1.8,0.533-3.834,0.857-5.994,0.91V9.713z M32.879,18.695c2.277-0.055,4.427-0.404,6.343-0.984
		c0.47,1.785,0.742,3.773,0.754,5.875h-7.097V18.695z M32.879,24.844h7.071c-0.076,1.732-0.329,3.377-0.723,4.877
		c-1.918-0.582-4.069-0.93-6.349-0.984V24.844z M32.879,37.717v-7.725c2.16,0.053,4.196,0.375,5.998,0.91
		C37.628,34.684,35.429,37.322,32.879,37.717z M36.615,37.076c1.429-1.363,2.618-3.371,3.431-5.787c1.104,0.41,2.097,0.9,2.95,1.459
		C41.327,34.73,39.13,36.25,36.615,37.076z"/>
</g>
</svg>
