<?xml version="1.0" encoding="utf-8"?>
<!-- Generator: Adobe Illustrator 16.0.0, SVG Export Plug-In . SVG Version: 6.00 Build 0)  -->
<!DOCTYPE svg PUBLIC "-//W3C//DTD SVG 1.1//EN" "http://www.w3.org/Graphics/SVG/1.1/DTD/svg11.dtd">
<svg version="1.1" id="Layer_1" xmlns="http://www.w3.org/2000/svg" xmlns:xlink="http://www.w3.org/1999/xlink" x="0px" y="0px"
	 width="64px" height="64px" viewBox="0 0 64 64" enable-background="new 0 0 64 64" xml:space="preserve">
<path d="M32,7.626c-13.439,0-24.373,10.934-24.373,24.373c0,5.062,1.551,9.768,4.203,13.668v0.069h0.049
	C16.273,52.153,23.652,56.374,32,56.374c13.439,0,24.373-10.935,24.373-24.375C56.373,18.56,45.439,7.626,32,7.626z M33,18.749
	V9.651c2.389,0.105,4.682,0.588,6.82,1.388c0.556,1.008,1.834,3.602,2.89,7.71H33z M43.18,20.749
	c0.622,2.96,1.078,6.556,1.122,10.751H33V20.749H43.18z M31,18.749h-9.25c1.139-4.424,2.531-7.091,3.002-7.912
	c1.975-0.678,4.07-1.089,6.248-1.186V18.749z M31,20.749V31.5H20.158c0.045-4.195,0.5-7.792,1.123-10.751H31z M18.158,31.5h-8.52
	c0.087-3.912,1.18-7.578,3.034-10.751h6.554C18.627,23.743,18.199,27.331,18.158,31.5z M18.173,33.5
	c0.084,3.974,0.513,7.396,1.103,10.236h-6.313c-1.865-3.014-3.031-6.501-3.28-10.236H18.173z M20.174,33.5H31v10.236h-9.658
	C20.727,40.93,20.263,37.513,20.174,33.5z M31,45.736v8.612c-2.181-0.097-4.279-0.51-6.256-1.189
	c-0.458-0.771-1.794-3.255-2.914-7.423H31z M33,45.736h9.63c-1.036,3.854-2.256,6.269-2.797,7.219
	c-2.142,0.804-4.438,1.288-6.833,1.394V45.736z M33,43.736V33.5h11.287c-0.09,4.013-0.554,7.43-1.17,10.236H33z M46.287,33.5h8.03
	c-0.249,3.735-1.415,7.223-3.28,10.236h-5.854C45.774,40.896,46.203,37.474,46.287,33.5z M46.302,31.5
	c-0.042-4.169-0.469-7.757-1.067-10.751h6.093c1.854,3.173,2.947,6.839,3.034,10.751H46.302z M50.014,18.749h-5.221
	c-0.668-2.743-1.446-4.87-2.11-6.403C45.57,13.922,48.072,16.116,50.014,18.749z M21.909,12.04
	c-0.689,1.548-1.529,3.784-2.243,6.709h-5.68C16.059,15.938,18.773,13.633,21.909,12.04z M14.359,45.736h5.378
	c0.684,2.688,1.471,4.745,2.131,6.202C18.932,50.44,16.371,48.314,14.359,45.736z M42.729,51.627
	c0.631-1.436,1.357-3.387,1.994-5.891h4.918C47.767,48.139,45.416,50.152,42.729,51.627z"/>
</svg>
