<?xml version="1.0" encoding="utf-8"?>
<!-- Generator: Adobe Illustrator 16.0.0, SVG Export Plug-In . SVG Version: 6.00 Build 0)  -->
<!DOCTYPE svg PUBLIC "-//W3C//DTD SVG 1.1//EN" "http://www.w3.org/Graphics/SVG/1.1/DTD/svg11.dtd">
<svg version="1.1" id="Layer_1" xmlns="http://www.w3.org/2000/svg" xmlns:xlink="http://www.w3.org/1999/xlink" x="0px" y="0px"
	 width="64px" height="64px" viewBox="0 0 64 64" enable-background="new 0 0 64 64" xml:space="preserve">
<g>
	<polygon fill="none" points="35.489,25.966 34.35,25.207 34.397,24.794 35.304,24.845 35.275,24.4 34.637,24.133 33.888,24.198 
		33.703,24.623 33.739,25.483 34.666,26.16 34.666,26.51 34.183,26.928 34.118,27.224 35.034,27.289 35.146,27.464 35.729,27.511 
		35.98,27.271 35.98,26.882 35.489,26.521 	"/>
	<polygon fill="none" points="30.536,25.813 30.491,24.917 30.178,24.762 30.011,25.023 29.247,25.112 28.897,25.221 28.575,25.583 
		28.575,26.567 29.007,26.508 30.447,26.567 31.446,26.567 31.372,26.157 	"/>
	<polygon fill="none" points="25.073,19.535 25.066,21.348 24.109,21.833 24.205,22.152 25.733,22.166 26.614,20.854 26.573,20.256 
		25.948,19.965 25.948,19.521 27.051,18.847 27.051,18.403 26.697,18.403 	"/>
	<polygon points="44.355,36.601 44.587,37.229 45.43,36.916 45.522,36.045 44.844,35.912 	"/>
	<polygon points="34.47,43.933 33.322,43.784 33.322,44.672 33.73,45.154 33.416,45.635 32.952,46.172 32.952,47.152 33.583,47.764 
		34.157,46.842 35.284,45.19 35.823,42.599 35.137,42.599 	"/>
	<polygon points="19.976,22.06 20.021,22.42 19.484,22.531 19.41,23.3 20.059,23.3 20.919,23.217 21.363,22.688 20.891,22.504 
		20.633,22.208 20.244,21.578 20.059,20.689 19.327,20.837 19.123,21.151 19.123,21.504 19.475,21.745 	"/>
	<polygon points="19.354,22.355 19.393,21.875 18.965,21.689 18.365,21.828 17.921,22.541 17.921,23.004 18.438,23.004 	"/>
	<path d="M47.522,15.994c0.012,0.012,0.024,0.023,0.037,0.035C47.547,16.017,47.535,16.006,47.522,15.994z"/>
	<path d="M32,7.688C18.594,7.688,7.688,18.594,7.688,32S18.594,56.313,32,56.313S56.313,45.406,56.313,32S45.406,7.688,32,7.688z
		 M32,54.313C19.697,54.313,9.688,44.303,9.688,32S19.697,9.688,32,9.688c6.048,0,11.539,2.422,15.562,6.344
		c0.262,0.255,0.513,0.521,0.763,0.79h-3.153l-1.584-0.945l-3.172,0.201l-2.41,1.077l0.02,1.25l-0.742,0.222l-0.167-1.25
		l-0.277-0.434l-0.833-0.205l-0.194,0.75l0.25,0.61L33.1,17.903l-1.414,0.656l-0.214-0.619l-0.352,0.092l-0.258,0.685l-0.741,0.579
		l-1.806-0.051l-0.082-0.398l1.888-0.083l0.389-0.333l-2.276-1.056l-2.778,0.083L23.9,18.255l-0.583,1.042l-1.027,0.403l-0.433,0.47
		l0.1,0.548l0.529,0.074l0.321,0.798l0.913-0.368l0.152,1.068h-0.277l-0.751-0.111l-0.832,0.139l-0.805,1.138l-1.153,0.181
		l-0.166,0.986l0.486,0.116l-0.139,0.633l-1.145-0.229l-1.05,0.229l-0.222,0.584L18,27.182l0.617,0.288l1.032-0.006l0.698-0.063
		l0.214-0.555l1.09-1.417l0.716,0.147l0.708-0.639l0.132,0.5l1.739,1.173l-0.212,0.286l-0.784-0.042l0.303,0.428l0.481,0.106
		l0.566-0.236l-0.011-0.68l0.251-0.126l-0.202-0.214l-1.159-0.647l-0.306-0.86h0.965l0.307,0.306l0.832,0.715l0.035,0.866
		l0.861,0.917l0.32-1.256l0.597-0.325l0.111,1.027l0.583,0.639l1.758-0.029l0.519,0.39v0.917l-0.638,0.583h-1.777l-1.083-0.806
		l-1.139,0.111v0.695H25.76l-0.388-0.277l-1.973-0.5v-1.278l-2.5,0.195l-0.776,0.417h-0.992l-0.487-0.049l-1.206,0.669v1.259
		l-2.462,1.777l0.205,0.759h0.5l-0.13,0.722l-0.352,0.128l-0.018,1.889l2.127,2.425h0.927l0.055-0.148h1.666l0.48-0.444h0.945
		l0.518,0.519l1.406,0.147l-0.185,1.871l1.564,2.758l-0.824,1.574l0.056,0.741l0.649,0.647v1.781l0.85,1.145v1.481h2.519
		l1.888-1.943l0.592-1.056l0.758-0.167v-0.888l0.5-0.593l1.056-1.443l-0.222-2.201l-0.464-0.817l2.079-1.984l2.289-3.273
		l-0.444-0.205l-2.378,0.5l-0.612-0.305l-2.499-4.708l0.176-0.204l2.477,3.008l0.061,0.931l0.573,0.575l1.166-0.075l2.435-1.763
		l0.763-0.5l-0.014-0.611l-0.813-0.106c0,0-2.851-1.344-2.851-1.403c0-0.06,0.018-1.153,0.018-1.153h0.629l0.093,0.797l1.322,0.759
		l1.51,0.074l3.277,0.536l0.767,0.482v0.75l-0.098,1.02l1.679,2.763l0.542,0.125l0.541-0.785l0.298-2.235l0.56-1.204l0.903-0.336
		l1.593,0.152l1.998,1.776v2.555l2.638,2.526l0.139-0.443l-2.138-3.055l0.222-0.889l1.13,1.281l0.63,0.066l0.829-0.552l-0.138-0.833
		l-1.369-1.102l-0.055-1l0.39-0.527l0.694,0.222l-0.056,0.472l0.396,0.61l0.353-0.25l-0.193-0.722l0.754-0.27
		c0,0.013,0.001,0.025,0.001,0.038C54.313,44.303,44.303,54.313,32,54.313z M33.739,25.483l-0.036-0.86l0.185-0.425l0.749-0.064
		l0.639,0.267l0.028,0.445l-0.907-0.051l-0.047,0.413l1.139,0.759v0.555l0.492,0.361v0.389l-0.251,0.24l-0.583-0.047l-0.112-0.175
		l-0.917-0.065l0.065-0.296l0.483-0.417V26.16L33.739,25.483z M31.446,26.567h-0.999l-1.44-0.059l-0.432,0.059v-0.984l0.323-0.362
		l0.349-0.108l0.765-0.089l0.167-0.261l0.313,0.156l0.044,0.896l0.836,0.344L31.446,26.567z M26.573,20.256l0.041,0.598
		l-0.881,1.312l-1.528-0.014l-0.096-0.319l0.957-0.485l0.007-1.813l1.625-1.132h0.354v0.444l-1.103,0.674v0.444L26.573,20.256z"/>
</g>
</svg>
