<?xml version="1.0" encoding="utf-8"?>
<!-- Generator: Adobe Illustrator 16.0.0, SVG Export Plug-In . SVG Version: 6.00 Build 0)  -->
<!DOCTYPE svg PUBLIC "-//W3C//DTD SVG 1.1//EN" "http://www.w3.org/Graphics/SVG/1.1/DTD/svg11.dtd">
<svg version="1.1" id="Layer_1" xmlns="http://www.w3.org/2000/svg" xmlns:xlink="http://www.w3.org/1999/xlink" x="0px" y="0px"
	 width="64px" height="64px" viewBox="0 0 64 64" enable-background="new 0 0 64 64" xml:space="preserve">
<g>
	<path d="M27.47,44.824l0.057-0.959c-0.204-0.025-0.414-0.056-0.621-0.083C27.086,44.14,27.272,44.49,27.47,44.824z"/>
	<path d="M49.836,21.55c-0.275-0.39-0.563-0.77-0.869-1.136c-3.327-3.992-8.333-6.538-13.925-6.538c-0.009,0-0.018,0-0.026,0
		c-0.006,0-0.011,0-0.016,0c-0.021,0-0.042,0.002-0.063,0.002c-5.548,0.032-10.511,2.571-13.817,6.536
		c-0.305,0.366-0.594,0.746-0.869,1.135c-2.095,2.956-3.332,6.56-3.332,10.45c0,0.522,0.026,1.039,0.07,1.55
		c0.449,0.296,0.985,0.586,1.6,0.867c-0.053-0.357-0.095-0.718-0.124-1.082h5.892c0.043,1.017,0.144,2.005,0.283,2.968
		c0.505,0.107,1.018,0.207,1.539,0.297c-0.168-1.051-0.285-2.141-0.335-3.266h2.309l0.089-1.487h-2.427
		c0.013-2.498,0.338-4.857,0.896-6.978c2.29,0.701,4.861,1.123,7.588,1.188v5.789h-4.836l1.7,1.487h3.136v2.744l1.487,1.301v-4.044
		h8.369c-0.09,2.052-0.39,3.998-0.855,5.774c-2.073-0.628-4.386-1.014-6.825-1.127l1.867,1.633c1.606,0.18,3.14,0.475,4.543,0.891
		c-1.478,4.476-4.079,7.6-7.099,8.066v-4.344l-1.487,0.831v3.525c-1.191-0.164-2.318-0.746-3.341-1.658l-0.548,0.307l-0.767,0.428
		c0.034,0.034,0.067,0.073,0.102,0.106c-0.059-0.02-0.115-0.045-0.174-0.066l-1.685,0.942c2.166,0.936,4.548,1.464,7.051,1.479
		c0.021,0,0.042,0.002,0.063,0.002c0.005,0,0.01,0,0.016,0c0.009,0,0.018,0,0.026,0c5.592,0,10.598-2.545,13.925-6.537
		c0.305-0.366,0.594-0.747,0.869-1.136c2.095-2.956,3.331-6.561,3.331-10.451S51.931,24.505,49.836,21.55z M24.327,31.847H18.41
		c0.032-3.499,1.158-6.736,3.038-9.404c1.127,0.752,2.429,1.411,3.87,1.953C24.696,26.667,24.34,29.187,24.327,31.847z
		 M25.741,23.008c-1.277-0.478-2.428-1.052-3.42-1.702c1.944-2.31,4.502-4.088,7.424-5.073
		C28.079,17.84,26.696,20.189,25.741,23.008z M34.299,24.571c-2.587-0.063-5.022-0.453-7.175-1.098
		c1.494-4.505,4.125-7.638,7.175-8.057V24.571z M51.675,31.847h-6.002c-0.013-2.648-0.367-5.159-0.983-7.422
		c1.472-0.548,2.801-1.216,3.948-1.982C50.518,25.111,51.644,28.348,51.675,31.847z M47.764,21.307
		c-1.012,0.663-2.188,1.246-3.497,1.729c-0.963-2.858-2.366-5.235-4.059-6.848C43.186,17.163,45.789,18.962,47.764,21.307z
		 M35.786,15.428c3.02,0.466,5.617,3.593,7.095,8.067c-2.13,0.631-4.537,1.014-7.095,1.076V15.428z M35.786,31.847v-5.789
		c2.695-0.064,5.239-0.478,7.508-1.164c0.556,2.114,0.879,4.465,0.892,6.953H35.786z M40.208,47.812
		c1.692-1.613,3.099-3.988,4.061-6.847c1.307,0.482,2.482,1.065,3.492,1.727C45.786,45.037,43.186,46.837,40.208,47.812z
		 M48.639,41.559c-1.147-0.767-2.477-1.436-3.949-1.983c0.522-1.924,0.858-4.026,0.953-6.241h5.979
		C51.378,36.381,50.307,39.194,48.639,41.559z"/>
	<path d="M18.718,39.831c1.895,0.668,3.963,1.19,6.001,1.572c0.003,0,0.007,0.001,0.01,0.002l0,0c0.416,0.078,0.83,0.15,1.241,0.216
		l0,0c0.003,0,0.006,0.001,0.009,0.001c1.266,0.204,2.503,0.354,3.659,0.448l-0.188,3.159l0,0l-0.015,0.257l0.143-0.08l0,0
		l4.722-2.639l0,0l1.487-0.831l0,0l1.325-0.741l-2.155-1.885l-1.508-1.32c0,0,0,0-0.001,0l-3.392-2.967l-0.24,4.055
		c-0.682-0.055-1.377-0.13-2.076-0.222c-0.379-0.049-0.758-0.104-1.138-0.163l0,0c-0.522-0.082-1.045-0.174-1.564-0.273
		c-2.104-0.406-4.149-0.959-5.914-1.628l0,0c-0.308-0.116-0.605-0.236-0.894-0.359c-0.003-0.001-0.007-0.003-0.01-0.004
		c-0.289-0.124-0.568-0.251-0.836-0.382l0,0c-1.204-0.584-2.19-1.23-2.832-1.928c-0.517-0.562-0.75-1.09-0.717-1.59
		c0.237-2.792,1.447-2.996,1.701-3.011l0.655-3.015c-0.002,0-0.399,0-0.401,0c-1.542,0-4.557,1.206-4.946,5.798
		c-0.092,1.371,0.412,2.666,1.501,3.849c1.398,1.521,3.713,2.742,6.37,3.679l0,0C18.716,39.831,18.717,39.831,18.718,39.831z"/>
	<path d="M22.612,43.01c-0.804-0.181-1.604-0.385-2.395-0.611c0.012,0.017,0.021,0.035,0.033,0.051
		c0.275,0.39,0.564,0.77,0.869,1.136c1.67,2.002,3.764,3.639,6.14,4.775l0.097-1.625C25.555,45.789,23.951,44.521,22.612,43.01z"/>
</g>
</svg>
