<?xml version="1.0" encoding="utf-8"?>
<!-- Generator: Adobe Illustrator 16.0.0, SVG Export Plug-In . SVG Version: 6.00 Build 0)  -->
<!DOCTYPE svg PUBLIC "-//W3C//DTD SVG 1.1//EN" "http://www.w3.org/Graphics/SVG/1.1/DTD/svg11.dtd">
<svg version="1.1" id="Layer_1" xmlns="http://www.w3.org/2000/svg" xmlns:xlink="http://www.w3.org/1999/xlink" x="0px" y="0px"
	 width="64px" height="64px" viewBox="0 0 64 64" enable-background="new 0 0 64 64" xml:space="preserve">
<path d="M48.586,17.981c-2.695,0-5.215,1.323-6.736,3.54L41,22.756l-0.85-1.234c-1.523-2.217-4.041-3.54-6.736-3.54
	c-1.969,0-3.777,0.698-5.193,1.857c-2.059-1.186-4.434-1.879-6.975-1.879c-0.008,0-0.014,0-0.021,0c-0.004,0-0.008,0-0.012,0
	c-0.018,0-0.033,0.002-0.049,0.002c-4.297,0.024-8.143,1.991-10.703,5.063c-0.236,0.283-0.461,0.577-0.674,0.879
	c-1.623,2.29-2.58,5.082-2.58,8.095c0,3.015,0.957,5.807,2.58,8.097c0.213,0.301,0.438,0.596,0.674,0.879
	c2.561,3.072,6.406,5.038,10.703,5.063c0.016,0,0.031,0.002,0.049,0.002c0.004,0,0.008-0.001,0.012-0.001
	c0.008,0,0.014,0.001,0.021,0.001c4.33,0,8.209-1.973,10.785-5.064c0.236-0.283,0.461-0.578,0.674-0.88
	c0.281-0.396,0.535-0.813,0.775-1.239c2.242,2.239,4.719,4.444,7.145,6.423L41,45.625l0.32-0.3
	c7.488-6.088,15.473-14.301,15.473-19.134C56.793,21.664,53.111,17.981,48.586,17.981z M17.143,19.786
	c-1.291,1.244-2.363,3.063-3.102,5.248c-0.99-0.37-1.881-0.815-2.65-1.318C12.896,21.926,14.879,20.549,17.143,19.786z
	 M10.715,24.596c0.873,0.584,1.881,1.094,2.998,1.513c-0.482,1.76-0.758,3.712-0.768,5.772H8.361
	C8.387,29.171,9.258,26.663,10.715,24.596z M8.402,33.033h4.564c0.074,1.725,0.336,3.361,0.744,4.858
	c-1.115,0.419-2.125,0.93-2.996,1.513C9.424,37.572,8.592,35.394,8.402,33.033z M11.395,40.282c0.768-0.503,1.656-0.946,2.645-1.316
	c0.74,2.185,1.813,4.003,3.104,5.248C14.879,43.451,12.9,42.071,11.395,40.282z M20.67,44.847c-2.363-0.324-4.404-2.749-5.561-6.24
	c1.666-0.5,3.555-0.803,5.561-0.852V44.847z M20.67,36.604c-2.115,0.05-4.109,0.378-5.883,0.922
	c-0.365-1.381-0.598-2.896-0.668-4.492h6.551V36.604z M20.67,31.881h-6.574c0.01-1.935,0.264-3.762,0.695-5.405
	c1.773,0.543,3.766,0.87,5.879,0.921V31.881z M20.67,26.245c-2.004-0.049-3.893-0.352-5.559-0.851
	c1.158-3.49,3.195-5.917,5.559-6.241V26.245z M27.318,25.412c-0.209,0.062-0.43,0.11-0.643,0.166c0.039-0.43,0.119-0.847,0.234-1.25
	C27.055,24.678,27.193,25.036,27.318,25.412z M27.637,26.494c0.307,1.165,0.516,2.425,0.619,3.747
	c-0.828-1.285-1.4-2.485-1.563-3.498C27.012,26.664,27.332,26.587,27.637,26.494z M33.346,36.421
	c-1.051-1.098-2.09-2.246-3.027-3.388h3.77C33.994,34.215,33.738,35.352,33.346,36.421z M29.48,31.881
	c-0.01-2.051-0.283-3.996-0.762-5.749c1.141-0.424,2.17-0.941,3.059-1.535c1.457,2.066,2.328,4.574,2.354,7.284H29.48z
	 M28.391,25.056c-0.256-0.765-0.568-1.464-0.902-2.131c0.303-0.547,0.678-1.047,1.115-1.488c0.928,0.649,1.77,1.415,2.496,2.279
	C30.316,24.229,29.404,24.682,28.391,25.056z M27.357,20.669c-0.244,0.268-0.475,0.549-0.684,0.847
	c-0.439-0.664-0.91-1.271-1.428-1.765C25.982,19.992,26.686,20.305,27.357,20.669z M21.822,19.162
	c1.631,0.252,3.094,1.521,4.225,3.432c-0.492,1.004-0.785,2.12-0.828,3.302c-1.078,0.194-2.213,0.321-3.396,0.35V19.162z
	 M21.822,27.396c1.201-0.028,2.359-0.156,3.465-0.354c0.24,1.418,1.049,3.069,2.24,4.838h-5.705V27.396z M21.822,33.033h6.482
	c-0.07,1.59-0.301,3.098-0.662,4.474c-1.76-0.533-3.73-0.854-5.82-0.903V33.033z M21.822,44.837v-7.082
	c1.98,0.048,3.846,0.345,5.498,0.834C26.176,42.057,24.16,44.477,21.822,44.837z M25.246,44.249c1.311-1.25,2.402-3.09,3.146-5.304
	c1.012,0.374,1.922,0.825,2.705,1.337C29.568,42.099,27.553,43.493,25.246,44.249z M31.777,39.404
	c-0.889-0.594-1.918-1.112-3.059-1.537c0.301-1.105,0.52-2.288,0.645-3.526c0.979,1.204,2.082,2.434,3.273,3.663
	C32.379,38.489,32.094,38.958,31.777,39.404z M41.676,43.038L41,43.621l-0.674-0.583c-0.949-0.82-3.471-3.045-6.096-5.706
	c0.68-1.645,1.055-3.445,1.055-5.333c0-3.013-0.957-5.805-2.58-8.095c-0.213-0.303-0.436-0.597-0.674-0.88
	c-0.738-0.887-1.594-1.667-2.525-2.35c1.105-0.785,2.451-1.252,3.908-1.252c3.037,0,5.744,2.103,6.531,5.036h2.107
	c0.789-2.934,3.496-5.036,6.533-5.036c3.73,0,6.768,3.036,6.768,6.769C55.354,30.942,43.959,41.059,41.676,43.038z"/>
</svg>
