<?xml version="1.0" encoding="utf-8"?>
<!-- Generator: Adobe Illustrator 16.0.0, SVG Export Plug-In . SVG Version: 6.00 Build 0)  -->
<!DOCTYPE svg PUBLIC "-//W3C//DTD SVG 1.1//EN" "http://www.w3.org/Graphics/SVG/1.1/DTD/svg11.dtd">
<svg version="1.1" id="Layer_1" xmlns="http://www.w3.org/2000/svg" xmlns:xlink="http://www.w3.org/1999/xlink" x="0px" y="0px"
	 width="64px" height="64px" viewBox="0 0 64 64" enable-background="new 0 0 64 64" xml:space="preserve">
<g>
	<path d="M52.121,32.475v6.848c1.236-2.748,1.938-5.787,1.938-8.99c0-4.734-1.504-9.121-4.053-12.719
		c-0.336-0.475-0.688-0.938-1.059-1.383C44.896,11.371,38.805,8.273,32,8.273c-0.012,0-0.023,0-0.033,0c-0.008,0-0.014,0-0.02,0
		c-0.025,0-0.051,0.002-0.076,0.002c-6.752,0.039-12.793,3.129-16.816,7.955c-0.371,0.445-0.725,0.908-1.061,1.383
		c-2.549,3.598-4.053,7.984-4.053,12.719c0,4.506,1.375,8.691,3.705,12.186l1.406-1.16c-1.795-2.75-2.955-5.949-3.23-9.4h7.17
		c0.049,1.15,0.162,2.27,0.314,3.363l2.002,1.164c-0.256-1.447-0.436-2.959-0.506-4.527h10.291v4.127l1.006,1.125l0.805-0.807
		v-4.445H43.09c-0.021,0.479-0.064,0.945-0.105,1.414l1.854-0.547c0.02-0.289,0.051-0.574,0.063-0.867h3.26l3.412-1.811h-6.635
		c-0.016-3.225-0.445-6.279-1.195-9.033c1.791-0.668,3.408-1.48,4.803-2.412c2.289,3.246,3.66,7.188,3.699,11.445l-0.066,1.811
		C52.164,32.131,52.141,32.301,52.121,32.475z M18.957,30.146h-7.201c0.039-4.258,1.408-8.199,3.697-11.447
		c1.371,0.916,2.957,1.717,4.711,2.377C19.406,23.84,18.973,26.908,18.957,30.146z M16.516,17.316
		c2.367-2.811,5.48-4.977,9.037-6.174c-2.029,1.955-3.713,4.814-4.875,8.246C19.123,18.807,17.723,18.107,16.516,17.316z
		 M31.094,30.146H20.768c0.014-3.041,0.412-5.912,1.092-8.494c2.785,0.854,5.916,1.369,9.234,1.447V30.146z M31.094,21.291
		c-3.148-0.076-6.113-0.553-8.732-1.338c1.818-5.482,5.021-9.295,8.732-9.805V21.291z M32.904,10.162
		c3.674,0.566,6.838,4.371,8.637,9.818c-2.594,0.77-5.525,1.234-8.637,1.311V10.162z M32.904,30.146V23.1
		c3.281-0.078,6.377-0.58,9.139-1.418c0.676,2.574,1.068,5.436,1.084,8.465H32.904z M43.227,19.422
		c-1.172-3.479-2.881-6.371-4.939-8.334c3.623,1.186,6.793,3.375,9.195,6.229C46.252,18.125,44.82,18.834,43.227,19.422z"/>
	<rect x="16.209" y="43.311" width="2.916" height="12.416"/>
	<rect x="20.877" y="46.379" width="2.916" height="9.348"/>
	<rect x="25.709" y="43.311" width="2.916" height="12.416"/>
	<rect x="30.377" y="46.379" width="2.916" height="9.348"/>
	<rect x="35.209" y="43.311" width="2.916" height="12.416"/>
	<rect x="39.877" y="46.379" width="2.916" height="9.348"/>
	<rect x="44.709" y="43.871" width="2.916" height="11.855"/>
	<path d="M45.428,36.105l-3.732,4.197l-4.971-3.436l-4.311,3.162l-5.725-4.006l-4.211,3.637c-4.215-2.535-4.244-2.535-4.729-2.535
		v1.629l-0.625,1.232c0.307,0.156,2.65,1.549,4.738,2.805l0.932,0.561l4.088-3.531l5.572,3.9l4.32-3.17l5.398,3.73l5.621-6.326
		l2.127,1.662l0.199-6.764l-5.945,2.275L45.428,36.105z"/>
</g>
</svg>
