<?xml version="1.0" encoding="utf-8"?>
<!-- Generator: Adobe Illustrator 16.0.0, SVG Export Plug-In . SVG Version: 6.00 Build 0)  -->
<!DOCTYPE svg PUBLIC "-//W3C//DTD SVG 1.1//EN" "http://www.w3.org/Graphics/SVG/1.1/DTD/svg11.dtd">
<svg version="1.1" id="Layer_1" xmlns="http://www.w3.org/2000/svg" xmlns:xlink="http://www.w3.org/1999/xlink" x="0px" y="0px"
	 width="64px" height="64px" viewBox="0 0 64 64" enable-background="new 0 0 64 64" xml:space="preserve">
<g>
	<path d="M49.185,28.058c0-10.475-8.521-18.997-18.996-18.997c-0.401,0-0.799,0.017-1.193,0.041v2.406
		c0.396-0.028,0.79-0.061,1.193-0.061c9.158,0,16.609,7.452,16.609,16.611c0,9.159-7.451,16.61-16.609,16.61
		c-0.269,0-0.53-0.027-0.795-0.04v0.897v1.509v4.722h-5.899v3.182h13.388v-3.182H31.78v-4.774
		C41.513,46.171,49.185,37.997,49.185,28.058z"/>
	<g>
		<polygon fill="none" points="23.571,20.312 23.683,19.874 23.356,19.796 22.997,19.968 23.22,20.423 		"/>
		<polygon fill="none" points="24.55,21.393 24.095,21.393 23.777,21.736 23.726,22.079 23.966,22.208 		"/>
		<polygon fill="none" points="24.909,21.281 24.909,20.998 24.79,20.998 24.79,20.835 24.249,20.835 23.854,20.998 23.777,21.195 
			24.087,21.281 		"/>
		<polygon fill="none" points="25.056,20.955 25.056,21.281 25.339,21.213 		"/>
		<path fill="none" d="M43.265,25.223c-0.018-0.079-0.036-0.156-0.055-0.234l-0.043,0.051L43.265,25.223z"/>
		<polygon fill="none" points="22.545,17.807 22.545,17.592 22.054,17.592 22.026,17.695 21.727,17.695 21.727,17.721 
			21.727,17.995 22.403,17.995 		"/>
		<polygon fill="none" points="25.956,22.114 25.956,21.848 25.434,21.693 25.399,21.693 25.399,21.941 25.519,22.114 		"/>
		<path fill="none" d="M41.571,22.8l-0.068-0.635l-0.369,0.201l-0.197,0.776l-0.532-0.566l-0.021-0.535l-0.515-0.442l-0.189-0.189
			h-0.596l0.189,0.531l0.717,0.4l0.124,0.132l-0.155,0.078l0.007,0.42l-0.35,0.146l-0.298-0.066l-0.188-0.264l0.485,0.026
			l0.131-0.177l-1.075-0.725l-0.081-0.309l-0.437,0.395l-0.443-0.091l-0.674,0.876l-0.132,0.343l-0.431,0.039l-0.639,0.004
			l-0.381-0.178l-0.111-0.757l0.137-0.361l0.648-0.142l0.707,0.142l0.087-0.392l-0.301-0.071l0.103-0.609l0.713-0.111l0.498-0.704
			l0.514-0.086l0.464,0.069h0.171l-0.094-0.661l-0.564,0.228l-0.198-0.493l-0.327-0.046l-0.062-0.338l0.268-0.291l0.635-0.249
			l0.163-0.292c-2.426-2.138-5.607-3.439-9.088-3.439c-3.021,0-5.814,0.98-8.088,2.636l0.694-0.006l0.31,0.171l0.582,0.126
			l0.046,0.229l0.927,0.034l-0.125-0.297l-0.824-0.023l0.194-0.183l-0.067-0.218H22.72l0.812-0.606h0.778l0.365,0.504l0.607,0.034
			l0.365-0.355l0.275,0.137l-0.504,0.492c0,0-0.697,0.012-0.664,0.012c0.035,0,0.059,0.48,0.059,0.48l0.846-0.023l0.092-0.229
			l0.583-0.034l0.068-0.343l-0.343-0.058l0.114-0.309l0.263-0.08l0.916,0.045l-0.505,0.458l0.081,0.354l0.526,0.08l-0.034-0.641
			l0.504-0.263l0.893-0.103l1.291,0.572v0.492l0.412,0.103l-0.205,0.389h-0.584l-0.172,0.446l-1.334-0.315l1.048-0.558L28.874,17.2
			l-0.904,0.114l-0.079,0.082l-0.003-0.001l-0.015,0.02l-0.26,0.27l-0.43,0.036l0.034,0.214l0.15,0.062l-0.006,0.071l-0.35,0.05
			l-0.026,0.203l-0.335,0.018l-0.061-0.404l-0.6,0.183l-1.228,0.718l0.138,0.505l0.344,0.224l0.686,0.095v0.78l0.316-0.051
			l0.293-0.609l0.729-0.231v-0.935l0.405-0.307l0.982,0.231l-0.07,0.618h0.264l0.721-0.354l0.035,0.812l0.525,0.32l-0.023,0.481
			l-0.502,0.171l0.033,0.159l0.606,0.276l-0.012,0.331l-0.175,0.015c-0.002-0.006-0.002-0.009-0.002-0.009l-0.766-0.235
			l-0.032-0.246h-0.001l0.224-0.153V20.5l-0.24-0.061l-0.06,0.207l-0.422,0.065l-0.042-0.014v0.021l-0.146,0.022l-0.119-0.24
			l-0.139-0.061h-0.301l-0.137,0.112V20.8l0.258,0.085l0.254,0.036l-0.057,0.025l-0.232,0.257l-0.102-0.128l-0.223-0.059
			l-0.61,0.574l0.079,0.065l-0.9,0.499l-0.846,0.881l-0.059,0.392l-0.849,0.558l-0.421,0.423l0.047,0.846l-0.584-0.272l0.005-0.495
			l-1.624,0l-0.84,0.426l-0.365,0.673l-0.146,0.534l0.237,0.518l0.662,0.081l1.053-0.704l0.092,0.349l-0.32,0.607l0.801,0.137
			l0.08,1.238l1.098,0.187l0.698-0.807l0.847,0.172l0.297,0.414l0.813-0.048l0.023-0.24l0.445,0.217l0.504,0.789l0.869,0.012
			l0.32,0.561l0.045,0.686l0.962,0.366l1.212,0.012l0.355,0.583l0.537,0.172L32.19,31.9l-0.588,0.749l-0.172,1.656l-0.532,0.421
			l-0.79-0.024l-0.263,0.457l0.194,0.859l-0.857,1.098l-0.274,0.504l-0.818,0.393l-0.538,0.082l-0.022,0.229l0.378,0.108
			l-0.046,0.246l-0.338,0.326l0.205,0.258l0.407,0.011l-0.023,0.315l-0.107,0.309l-0.035,0.251l0.602,0.507l-0.08,0.264
			l-0.818-0.016l-0.815-0.712l-0.636-1.116l0.09-1.078l-0.48-0.641l0.193-1.086l-0.285-0.081v-2.356c0,0-0.801-0.607-0.846-0.607
			c-0.047,0-0.424-0.102-0.424-0.102l-0.08-0.446l-1.041-1.304l0.104-0.469l0.033-0.766l0.721-0.503l-0.104-0.858l-1.051-0.079
			l-0.824-0.939l-0.584-0.159l-0.377-0.069l0.045-0.343l-0.48-0.068v0.194l-1.201-0.297l-0.482-0.739l0.196-0.359l-0.761-1.109
			l-0.131-0.813h-0.309l0.104,0.789l0.525,0.812l-0.057,0.321l-0.447-0.068l-0.549-0.936v-1.089l-0.571-0.275v-0.783
			c-0.707,1.655-1.099,3.477-1.099,5.387c0,7.591,6.175,13.766,13.766,13.766c4.303,0,8.15-1.986,10.677-5.088h-0.454v-0.916
			l-0.525-0.707v-1.101l-0.401-0.399l-0.034-0.458l0.509-0.972l-0.966-1.705l0.114-1.156l-0.869-0.09l-0.32-0.32h-0.584
			l-0.297,0.274h-1.029l-0.034,0.091h-0.573l-1.314-1.498l0.011-1.167l0.217-0.08l0.081-0.447h-0.309l-0.126-0.469l1.521-1.098
			v-0.778l0.744-0.414l0.302,0.03h0.612l0.48-0.257l1.545-0.12v0.79l1.219,0.309l0.239,0.171h0.224v-0.43l0.703-0.068l0.67,0.498
			h1.098l0.077-0.071c-0.108-0.371-0.233-0.734-0.372-1.091l-0.718,0.012L41.571,22.8z M36.149,19.264l0.125-0.194l0.452-0.092
			l0.114,0.55l0.24,0.389l0.16,0.184l0.291,0.114l-0.273,0.327l-0.532,0.051h-0.4l0.046-0.474l0.332-0.069l-0.028-0.223l-0.31-0.195
			l-0.217-0.148V19.264z M35.405,20.123l0.275-0.44l0.371-0.086l0.264,0.114l-0.023,0.297l-0.566,0.4h-0.32V20.123z M27.927,21.816
			L27.64,21.84l0.016-0.199l0.129-0.16l0.172,0.135L27.927,21.816z M28.932,21.464l-0.196,0.017l-0.039,0.189l-0.15,0.094
			l-0.242,0.02c-0.008-0.057-0.014-0.1-0.014-0.1h-0.094v-0.204h0.395l0.082-0.21l0.156-0.003l0.18,0.037L28.932,21.464z"/>
		<path fill="none" d="M41.989,22.003v0.608l0.267-0.037l0.143,0.006c-0.102-0.229-0.209-0.453-0.323-0.675L41.989,22.003z"/>
		<path fill="none" d="M22.534,18.639c0,0,0.025-0.3,0-0.3c-0.026,0-0.327,0.051-0.327,0.051l-0.48,0.137l0.129,0.155L22.534,18.639
			z"/>
		<polygon fill="none" points="25.888,21.481 25.678,21.35 25.554,21.481 25.72,21.62 		"/>
		<path fill="none" d="M24.825,21.848l0.256-0.048l0.207-0.132v-0.274h-0.463C24.825,21.436,24.825,21.848,24.825,21.848z"/>
		<path fill="none" d="M43.763,22.611l-0.045-0.253l-0.081-0.033c0.04,0.094,0.075,0.191,0.113,0.287H43.763z"/>
		<polygon fill="none" points="24.825,22.087 24.618,22.105 24.55,22.405 24.987,22.405 25.185,22.208 25.185,21.941 24.867,21.985 
					"/>
		<path fill="none" d="M18.19,20.794c-0.195,0.307-0.379,0.621-0.55,0.944l0.571-0.694L18.19,20.794z"/>
		<path fill="none" d="M39.229,19.686l0.059,0.197l0.945,0.009l0.27-0.402c-0.217-0.267-0.443-0.524-0.68-0.774l-0.002,0.67
			L39.229,19.686z"/>
		<polygon points="36.676,19.826 36.704,20.048 36.372,20.118 36.326,20.592 36.727,20.592 37.259,20.541 37.532,20.214 
			37.241,20.101 37.081,19.917 36.841,19.528 36.727,18.979 36.274,19.07 36.149,19.264 36.149,19.482 36.366,19.631 		"/>
		<polygon points="36.292,20.008 36.315,19.711 36.052,19.597 35.681,19.683 35.405,20.123 35.405,20.409 35.726,20.409 		"/>
		<path d="M28.673,21.271l-0.082,0.21h-0.395v0.204h0.094c0,0,0.006,0.043,0.014,0.1l0.242-0.02l0.15-0.094l0.039-0.189l0.196-0.017
			l0.077-0.159l-0.18-0.037L28.673,21.271z"/>
		<polygon points="27.655,21.641 27.64,21.84 27.927,21.816 27.956,21.616 27.784,21.481 		"/>
		<path d="M44.812,27.998c-0.004-0.439-0.026-0.874-0.068-1.303c-0.139-1.43-0.48-2.8-0.993-4.084
			c-0.038-0.095-0.073-0.192-0.113-0.287c-0.683-1.612-1.642-3.08-2.813-4.347c-0.076-0.083-0.154-0.164-0.233-0.245
			c-0.222-0.23-0.448-0.455-0.685-0.67c-2.666-2.428-6.209-3.91-10.09-3.91c-3.914,0-7.482,1.509-10.156,3.973
			c-0.623,0.574-1.195,1.202-1.715,1.873c-1.959,2.535-3.129,5.71-3.129,9.154c0,8.271,6.729,15,15,15
			c5.818,0,10.869-3.332,13.355-8.186c0.531-1.037,0.946-2.144,1.225-3.303c0.071-0.293,0.133-0.59,0.186-0.89
			c0.151-0.852,0.234-1.728,0.234-2.622C44.815,28.101,44.812,28.05,44.812,27.998z M41.989,22.003l0.086-0.098
			c0.114,0.222,0.222,0.446,0.323,0.675l-0.143-0.006l-0.267,0.037V22.003z M39.821,19.385l0.002-0.67
			c0.236,0.25,0.463,0.507,0.68,0.774l-0.27,0.402l-0.945-0.009l-0.059-0.197L39.821,19.385z M21.727,17.721v-0.025h0.3l0.027-0.103
			h0.491v0.214l-0.142,0.188h-0.677V17.721z M22.207,18.39c0,0,0.301-0.051,0.327-0.051c0.025,0,0,0.3,0,0.3l-0.679,0.043
			l-0.129-0.155L22.207,18.39z M42.944,24.344h-1.098l-0.67-0.498l-0.703,0.068v0.43H40.25l-0.239-0.171l-1.219-0.309v-0.79
			l-1.545,0.12l-0.48,0.257h-0.612l-0.302-0.03l-0.744,0.414v0.778l-1.521,1.098l0.126,0.469h0.309l-0.081,0.447l-0.217,0.08
			l-0.011,1.167l1.314,1.498h0.573l0.034-0.091h1.029l0.297-0.274h0.584l0.32,0.32l0.869,0.09l-0.114,1.156l0.966,1.705
			l-0.509,0.972l0.034,0.458l0.401,0.399v1.101l0.525,0.707v0.916h0.454c-2.526,3.102-6.374,5.088-10.677,5.088
			c-7.591,0-13.766-6.175-13.766-13.766c0-1.911,0.392-3.732,1.099-5.387v-0.429l0.492-0.598c0.171-0.323,0.354-0.637,0.55-0.944
			l0.021,0.25l-0.571,0.694c-0.177,0.335-0.343,0.677-0.492,1.027v0.783l0.571,0.275v1.089l0.549,0.936l0.447,0.068l0.057-0.321
			l-0.525-0.812l-0.104-0.789h0.309l0.131,0.813l0.761,1.109l-0.196,0.359l0.482,0.739l1.201,0.297v-0.194l0.48,0.068l-0.045,0.343
			l0.377,0.069l0.584,0.159l0.824,0.939l1.051,0.079l0.104,0.858l-0.721,0.503l-0.033,0.766l-0.104,0.469l1.041,1.304l0.08,0.446
			c0,0,0.377,0.102,0.424,0.102c0.045,0,0.846,0.607,0.846,0.607v2.356l0.285,0.081l-0.193,1.086l0.48,0.641l-0.09,1.078
			l0.636,1.116l0.815,0.712l0.818,0.016l0.08-0.264l-0.602-0.507l0.035-0.251l0.107-0.309l0.023-0.315l-0.407-0.011l-0.205-0.258
			l0.338-0.326l0.046-0.246l-0.378-0.108l0.022-0.229l0.538-0.082l0.818-0.393l0.274-0.504l0.857-1.098l-0.194-0.859l0.263-0.457
			l0.79,0.024l0.532-0.421l0.172-1.656L32.19,31.9l0.104-0.48l-0.537-0.172l-0.355-0.583l-1.212-0.012l-0.962-0.366l-0.045-0.686
			l-0.32-0.561l-0.869-0.012l-0.504-0.789l-0.445-0.217l-0.023,0.24l-0.813,0.048l-0.297-0.414l-0.847-0.172l-0.698,0.807
			l-1.098-0.187l-0.08-1.238l-0.801-0.137l0.32-0.607l-0.092-0.349l-1.053,0.704l-0.662-0.081l-0.237-0.518l0.146-0.534l0.365-0.673
			l0.84-0.426l1.624,0l-0.005,0.495l0.584,0.272l-0.047-0.846l0.421-0.423l0.849-0.558l0.059-0.392l0.846-0.881l0.9-0.499
			l-0.079-0.065l0.61-0.574l0.223,0.059l0.102,0.128l0.232-0.257l0.057-0.025l-0.254-0.036L27.878,20.8v-0.249l0.137-0.112h0.301
			l0.139,0.061l0.119,0.24l0.146-0.022v-0.021l0.042,0.014l0.422-0.065l0.06-0.207l0.24,0.061v0.224l-0.224,0.153h0.001l0.032,0.246
			l0.766,0.235c0,0,0,0.003,0.002,0.009l0.175-0.015l0.012-0.331l-0.606-0.276l-0.033-0.159l0.502-0.171l0.023-0.481l-0.525-0.32
			l-0.035-0.812l-0.721,0.354h-0.264l0.07-0.618l-0.982-0.231l-0.405,0.307v0.935l-0.729,0.231l-0.293,0.609l-0.316,0.051v-0.78
			l-0.686-0.095l-0.344-0.224l-0.138-0.505l1.228-0.718l0.6-0.183l0.061,0.404l0.335-0.018l0.026-0.203l0.35-0.05l0.006-0.071
			l-0.15-0.062l-0.034-0.214l0.43-0.036l0.26-0.27l0.015-0.02l0.003,0.001l0.079-0.082l0.904-0.114l0.399,0.339l-1.048,0.558
			l1.334,0.315l0.172-0.446h0.584l0.205-0.389l-0.412-0.103v-0.492l-1.291-0.572l-0.893,0.103l-0.504,0.263l0.034,0.641l-0.526-0.08
			l-0.081-0.354l0.505-0.458l-0.916-0.045l-0.263,0.08l-0.114,0.309l0.343,0.058l-0.068,0.343l-0.583,0.034l-0.092,0.229
			l-0.846,0.023c0,0-0.023-0.48-0.059-0.48c-0.033,0,0.664-0.012,0.664-0.012l0.504-0.492l-0.275-0.137l-0.365,0.355l-0.607-0.034
			L24.31,16.25h-0.778l-0.812,0.606h0.744l0.067,0.218l-0.194,0.183l0.824,0.023l0.125,0.297l-0.927-0.034l-0.046-0.229
			l-0.582-0.126l-0.31-0.171l-0.694,0.006c2.273-1.656,5.067-2.636,8.088-2.636c3.48,0,6.662,1.301,9.088,3.439l-0.163,0.292
			l-0.635,0.249l-0.268,0.291l0.062,0.338l0.327,0.046l0.198,0.493l0.564-0.228l0.094,0.661h-0.171l-0.464-0.069l-0.514,0.086
			l-0.498,0.704L36.724,20.8l-0.103,0.609l0.301,0.071l-0.087,0.392l-0.707-0.142l-0.648,0.142l-0.137,0.361l0.111,0.757
			l0.381,0.178l0.639-0.004l0.431-0.039l0.132-0.343l0.674-0.876l0.443,0.091l0.437-0.395l0.081,0.309l1.075,0.725l-0.131,0.177
			l-0.485-0.026l0.188,0.264l0.298,0.066l0.35-0.146l-0.007-0.42l0.155-0.078l-0.124-0.132l-0.717-0.4l-0.189-0.531h0.596
			l0.189,0.189l0.515,0.442l0.021,0.535l0.532,0.566l0.197-0.776l0.369-0.201l0.068,0.635l0.36,0.395l0.718-0.012
			c0.139,0.357,0.264,0.72,0.372,1.091L42.944,24.344z M22.997,19.968l0.359-0.172l0.326,0.078l-0.111,0.438l-0.352,0.111
			L22.997,19.968z M24.909,20.998v0.283h-0.822l-0.31-0.086l0.077-0.197l0.395-0.163h0.541v0.163H24.909z M25.288,21.393v0.274
			L25.081,21.8l-0.256,0.048c0,0,0-0.412,0-0.455H25.288z M25.056,21.281v-0.327l0.283,0.258L25.056,21.281z M25.185,21.941v0.267
			l-0.197,0.197H24.55l0.068-0.3l0.207-0.018l0.042-0.103L25.185,21.941z M24.095,21.393h0.455l-0.584,0.815l-0.24-0.129
			l0.052-0.343L24.095,21.393z M25.956,21.848v0.266h-0.438l-0.119-0.173v-0.248h0.034L25.956,21.848z M25.554,21.481l0.124-0.131
			l0.21,0.131L25.72,21.62L25.554,21.481z M43.167,25.039l0.043-0.051c0.019,0.078,0.037,0.156,0.055,0.234L43.167,25.039z"/>
		<path d="M17.148,22.336v0.429c0.149-0.351,0.315-0.692,0.492-1.027L17.148,22.336z"/>
	</g>
</g>
</svg>
