<?xml version="1.0" encoding="utf-8"?>
<!-- Generator: Adobe Illustrator 16.0.0, SVG Export Plug-In . SVG Version: 6.00 Build 0)  -->
<!DOCTYPE svg PUBLIC "-//W3C//DTD SVG 1.1//EN" "http://www.w3.org/Graphics/SVG/1.1/DTD/svg11.dtd">
<svg version="1.1" id="Layer_1" xmlns="http://www.w3.org/2000/svg" xmlns:xlink="http://www.w3.org/1999/xlink" x="0px" y="0px"
	 width="64px" height="64px" viewBox="0 0 64 64" enable-background="new 0 0 64 64" xml:space="preserve">
<g>
	<path d="M22.873,16.646v30.709h18.256V16.646H22.873z M32.406,17.917c0.244,0,0.441,0.197,0.441,0.44s-0.197,0.441-0.441,0.441
		s-0.441-0.198-0.441-0.441S32.162,17.917,32.406,17.917z M29.781,19.391h5.25v0.423h-5.25V19.391z M32.234,46.028
		c-0.582,0-1.053-0.472-1.053-1.053s0.471-1.053,1.053-1.053c0.58,0,1.051,0.472,1.051,1.053S32.814,46.028,32.234,46.028z
		 M38.199,42.412c-4.742,0.025-10.047,0.045-12.398,0.024V21.323l12.398-0.004V42.412z"/>
	<path d="M27.881,35.428c0.979,1.173,2.447,1.924,4.088,1.934c0.006,0,0.012,0.001,0.02,0.001c0,0,0.002-0.001,0.004-0.001
		s0.006,0.001,0.008,0.001c1.654,0,3.135-0.753,4.121-1.935c0.088-0.108,0.174-0.221,0.256-0.337
		c0.619-0.874,0.986-1.94,0.986-3.091c0-1.151-0.367-2.218-0.986-3.092c-0.082-0.116-0.166-0.229-0.256-0.337
		c-0.986-1.182-2.467-1.934-4.121-1.934c-0.002,0-0.006,0-0.008,0s-0.004,0-0.004,0c-0.008,0-0.014,0-0.02,0
		c-1.641,0.01-3.109,0.761-4.088,1.934c-0.09,0.108-0.176,0.221-0.258,0.337c-0.619,0.874-0.986,1.94-0.986,3.092
		c0,1.15,0.367,2.217,0.986,3.091C27.705,35.207,27.791,35.319,27.881,35.428z M33.529,36.679c0.5-0.478,0.916-1.181,1.201-2.025
		c0.387,0.142,0.734,0.314,1.033,0.51C35.18,35.856,34.408,36.39,33.529,36.679z M36.023,34.828c-0.34-0.228-0.732-0.425-1.17-0.587
		c0.156-0.569,0.254-1.191,0.283-1.847h1.77C36.834,33.297,36.516,34.129,36.023,34.828z M36.922,31.955h-1.777
		c-0.004-0.784-0.107-1.527-0.291-2.196c0.438-0.163,0.83-0.359,1.168-0.587C36.578,29.961,36.912,30.919,36.922,31.955z
		 M35.764,28.836c-0.299,0.196-0.646,0.368-1.035,0.511c-0.285-0.845-0.699-1.548-1.199-2.025
		C34.408,27.609,35.18,28.142,35.764,28.836z M32.221,27.096c0.893,0.139,1.662,1.063,2.098,2.388
		c-0.629,0.187-1.342,0.3-2.098,0.318V27.096z M32.221,30.242c0.797-0.02,1.549-0.142,2.221-0.345
		c0.164,0.625,0.26,1.32,0.264,2.058h-2.484V30.242z M32.221,32.395h2.475c-0.025,0.607-0.113,1.184-0.252,1.708
		c-0.672-0.203-1.426-0.325-2.223-0.345V32.395z M32.221,34.197c0.756,0.019,1.469,0.132,2.1,0.318
		c-0.438,1.325-1.207,2.25-2.1,2.388V34.197z M28.236,35.163c0.295-0.191,0.635-0.361,1.012-0.503
		c0.281,0.835,0.691,1.529,1.186,2.005C29.568,36.374,28.813,35.847,28.236,35.163z M31.779,36.906
		c-0.902-0.124-1.682-1.05-2.123-2.384c0.637-0.19,1.357-0.307,2.123-0.325V36.906z M31.779,33.758
		c-0.807,0.02-1.568,0.145-2.246,0.353c-0.139-0.527-0.229-1.105-0.254-1.716h2.5V33.758z M31.779,31.955h-2.51
		c0.004-0.739,0.102-1.438,0.266-2.065c0.678,0.207,1.438,0.333,2.244,0.353V31.955z M31.779,27.093v2.709
		c-0.766-0.019-1.486-0.135-2.121-0.325C30.1,28.144,30.879,27.217,31.779,27.093z M30.434,27.335
		c-0.494,0.475-0.904,1.17-1.186,2.004c-0.377-0.141-0.719-0.311-1.012-0.503C28.813,28.152,29.568,27.626,30.434,27.335z
		 M27.979,29.172c0.332,0.223,0.719,0.417,1.145,0.578c-0.184,0.672-0.289,1.417-0.293,2.205h-1.752
		C27.088,30.919,27.422,29.961,27.979,29.172z M28.838,32.395c0.029,0.659,0.129,1.283,0.285,1.855
		c-0.428,0.16-0.813,0.355-1.145,0.577c-0.494-0.699-0.813-1.53-0.883-2.433H28.838z"/>
</g>
</svg>
