<?xml version="1.0" encoding="utf-8"?>
<!-- Generator: Adobe Illustrator 16.0.0, SVG Export Plug-In . SVG Version: 6.00 Build 0)  -->
<!DOCTYPE svg PUBLIC "-//W3C//DTD SVG 1.1//EN" "http://www.w3.org/Graphics/SVG/1.1/DTD/svg11.dtd">
<svg version="1.1" id="Layer_1" xmlns="http://www.w3.org/2000/svg" xmlns:xlink="http://www.w3.org/1999/xlink" x="0px" y="0px"
	 width="64px" height="64px" viewBox="0 0 64 64" enable-background="new 0 0 64 64" xml:space="preserve">
<g>
	<path d="M34.96,40.702c-9.099-0.045-18.998-0.099-25.72-3.175c0.514,2.119,1.316,4.124,2.364,5.973
		c5.403,2.396,14.603,2.442,23.003,2.484c5.738,0.028,11.084,0.057,15.485,0.749c1.132-1.392,2.108-2.915,2.899-4.546
		C48.989,40.777,41.373,40.733,34.96,40.702z"/>
	<path d="M36.377,22.649c6.624,0.032,12.727,0.066,17.452,1.121c-0.791-2.101-1.872-4.058-3.2-5.82
		c-4.066-0.534-9.296-0.561-13.898-0.583c-7.338-0.036-15.196-0.078-21.49-1.705c-1.155,1.182-2.185,2.485-3.07,3.889
		C17.322,22.552,27.313,22.605,36.377,22.649z"/>
	<path d="M36.76,11.367c2.167,0.011,4.279,0.021,6.306,0.067C39.76,9.644,35.974,8.626,31.95,8.626c-3.53,0-6.874,0.787-9.874,2.188
		C26.627,11.314,31.831,11.343,36.76,11.367z"/>
	<path d="M34.578,51.984c-5.25-0.026-10.764-0.056-15.784-0.665c3.748,2.558,8.276,4.055,13.156,4.055
		c4.31,0,8.344-1.171,11.81-3.206C40.756,52.017,37.539,51.999,34.578,51.984z"/>
	<path d="M54.884,36.514c0.286-1.462,0.44-2.97,0.44-4.515c0-0.503-0.021-1.001-0.053-1.495c-3.658-1.772-11.994-1.82-18.923-1.854
		c-9.553-0.047-19.987-0.104-26.701-3.658c-0.492,1.567-0.819,3.206-0.971,4.896c3.975,4.7,15.772,4.763,26.313,4.814
		C42.824,34.74,49.928,34.782,54.884,36.514z"/>
</g>
</svg>
