<?xml version="1.0" encoding="utf-8"?>
<!-- Generator: Adobe Illustrator 16.0.0, SVG Export Plug-In . SVG Version: 6.00 Build 0)  -->
<!DOCTYPE svg PUBLIC "-//W3C//DTD SVG 1.1//EN" "http://www.w3.org/Graphics/SVG/1.1/DTD/svg11.dtd">
<svg version="1.1" id="Layer_1" xmlns="http://www.w3.org/2000/svg" xmlns:xlink="http://www.w3.org/1999/xlink" x="0px" y="0px"
	 width="64px" height="64px" viewBox="0 0 64 64" enable-background="new 0 0 64 64" xml:space="preserve">
<g>
	<path d="M18.95,12.425v39.15h26.098l0.002-39.15H18.95z M32.55,49.61c-0.695,0-1.258-0.564-1.258-1.259s0.563-1.257,1.258-1.257
		s1.258,0.563,1.258,1.257S33.245,49.61,32.55,49.61z M41.276,45.083H22.724V16.198h18.553V45.083z"/>
	<path d="M26.239,35.553c1.368,1.641,3.422,2.69,5.717,2.704c0.009,0,0.017,0.001,0.026,0.001c0.001,0,0.004-0.001,0.006-0.001
		c0.004,0,0.008,0.001,0.012,0.001c2.313,0,4.385-1.053,5.761-2.705c0.126-0.151,0.246-0.309,0.359-0.471
		c0.867-1.223,1.379-2.714,1.379-4.323s-0.512-3.101-1.379-4.323c-0.113-0.162-0.232-0.319-0.359-0.471
		C36.385,24.313,34.313,23.26,32,23.26c-0.004,0-0.008,0-0.012,0c-0.002,0-0.005,0-0.006,0c-0.01,0-0.018,0.001-0.026,0.001
		c-2.295,0.013-4.349,1.063-5.717,2.704c-0.126,0.151-0.246,0.309-0.36,0.471c-0.866,1.223-1.378,2.714-1.378,4.323
		s0.512,3.101,1.378,4.323C25.993,35.244,26.113,35.401,26.239,35.553z M34.137,37.302c0.7-0.668,1.282-1.65,1.681-2.833
		c0.54,0.199,1.026,0.44,1.444,0.714C36.444,36.152,35.368,36.897,34.137,37.302z M37.625,34.714
		c-0.475-0.317-1.024-0.594-1.634-0.821c0.217-0.796,0.354-1.666,0.394-2.582h2.475C38.759,32.572,38.315,33.736,37.625,34.714z
		 M38.882,30.696h-2.483c-0.006-1.097-0.152-2.136-0.407-3.071c0.609-0.228,1.159-0.503,1.633-0.82
		C38.402,27.908,38.868,29.248,38.882,30.696z M37.263,26.334c-0.418,0.274-0.905,0.516-1.446,0.715
		c-0.398-1.182-0.979-2.165-1.68-2.833C35.368,24.619,36.446,25.364,37.263,26.334z M32.308,23.901
		c1.249,0.193,2.324,1.486,2.936,3.339c-0.882,0.261-1.878,0.419-2.936,0.445V23.901z M32.308,28.301
		c1.115-0.027,2.167-0.198,3.106-0.482c0.229,0.875,0.363,1.848,0.368,2.878h-3.475V28.301z M32.308,31.311h3.462
		c-0.036,0.85-0.161,1.655-0.354,2.389c-0.939-0.284-1.992-0.455-3.108-0.482V31.311z M32.308,33.832
		c1.058,0.026,2.055,0.185,2.937,0.445c-0.611,1.854-1.688,3.146-2.937,3.338V33.832z M26.737,35.183
		c0.41-0.269,0.886-0.506,1.413-0.703c0.395,1.167,0.968,2.138,1.657,2.803C28.599,36.875,27.542,36.139,26.737,35.183z
		 M31.691,37.62c-1.262-0.173-2.352-1.468-2.97-3.333c0.891-0.267,1.899-0.429,2.97-0.455V37.62z M31.691,33.217
		c-1.129,0.027-2.194,0.203-3.142,0.493c-0.194-0.737-0.319-1.546-0.356-2.399h3.498V33.217z M31.691,30.696h-3.51
		c0.005-1.034,0.14-2.011,0.371-2.888c0.947,0.289,2.011,0.465,3.139,0.492V30.696z M31.691,23.897v3.788
		c-1.07-0.026-2.078-0.188-2.968-0.455C29.342,25.366,30.431,24.07,31.691,23.897z M29.808,24.235
		c-0.689,0.664-1.262,1.636-1.656,2.803c-0.529-0.197-1.005-0.435-1.415-0.704C27.541,25.379,28.599,24.643,29.808,24.235z
		 M26.375,26.805c0.466,0.311,1.005,0.583,1.601,0.808c-0.257,0.939-0.404,1.982-0.41,3.084h-2.447
		C25.131,29.248,25.597,27.908,26.375,26.805z M27.578,31.311c0.039,0.922,0.18,1.795,0.397,2.595
		c-0.596,0.225-1.135,0.497-1.601,0.808c-0.689-0.978-1.134-2.141-1.235-3.402H27.578z"/>
</g>
</svg>
