<?xml version="1.0" encoding="utf-8"?>
<!-- Generator: Adobe Illustrator 16.0.0, SVG Export Plug-In . SVG Version: 6.00 Build 0)  -->
<!DOCTYPE svg PUBLIC "-//W3C//DTD SVG 1.1//EN" "http://www.w3.org/Graphics/SVG/1.1/DTD/svg11.dtd">
<svg version="1.1" id="Layer_1" xmlns="http://www.w3.org/2000/svg" xmlns:xlink="http://www.w3.org/1999/xlink" x="0px" y="0px"
	 width="64px" height="64px" viewBox="0 0 64 64" enable-background="new 0 0 64 64" xml:space="preserve">
<g>
	<path d="M49.372,26.063C48.841,16.87,41.202,9.67,31.979,9.67c-0.326,0-0.656,0.009-0.986,0.027
		c-9.576,0.553-16.918,8.796-16.365,18.374c0.375,6.439,4.242,12.112,10.092,14.803l0.137,0.063l0.102,0.111
		c3.359,3.658,6.893,8.793,7.285,9.366l1.295,1.915l1.111-2.001c0.914-1.633,3.896-6.922,5.922-10.025l0.096-0.146l0.152-0.09
		C46.386,38.789,49.743,32.507,49.372,26.063z M38.708,40.029l-0.191,0.285c-1.508,2.255-3.561,5.783-4.65,7.686l-0.574,1.002
		l-0.682-0.933c-1.484-2.029-3.713-4.938-5.898-7.266l-0.201-0.214l-0.268-0.115c-0.703-0.303-1.369-0.659-2.004-1.056
		c-0.322-0.41-0.652-0.844-0.986-1.322c-0.453-0.141-0.887-0.308-1.326-0.467c-0.719-0.684-1.365-1.438-1.926-2.248
		c0.678,0.332,1.375,0.646,2.111,0.923c-0.848-1.463-1.609-3.134-2.1-4.956c-0.816-0.406-1.578-0.861-2.301-1.342
		c-0.119-0.589-0.199-1.189-0.246-1.799c0.676,0.52,1.398,1.012,2.186,1.454c-0.139-0.865-0.215-1.758-0.199-2.673
		c0.01-0.606,0.063-1.204,0.146-1.792c-0.652-0.437-1.248-0.913-1.801-1.413c0.111-0.485,0.246-0.962,0.406-1.429
		c0.5,0.504,1.047,0.986,1.662,1.429c0.316-1.324,0.791-2.582,1.357-3.756c-0.449-0.389-0.846-0.806-1.211-1.237
		c0.26-0.376,0.537-0.737,0.83-1.086c0.303,0.386,0.633,0.761,1.012,1.111c0.695-1.239,1.469-2.362,2.23-3.34
		c-0.127-0.129-0.232-0.269-0.35-0.403c0.367-0.253,0.744-0.489,1.133-0.709c0.023,0.023,0.043,0.048,0.066,0.072
		c0.063-0.074,0.123-0.141,0.186-0.212c0.955-0.515,1.971-0.936,3.043-1.228c-0.541,0.513-1.334,1.308-2.215,2.345
		c0.412,0.295,0.881,0.555,1.373,0.791c0.566-1.328,1.131-2.441,1.602-3.307c0.553-0.119,1.117-0.207,1.691-0.263
		c-0.494,0.854-1.264,2.272-2.033,4.076c0.826,0.271,1.717,0.469,2.662,0.563c0.088-2.038,0.172-3.666,0.23-4.7
		c0.451-0.018,0.9-0.019,1.344,0.006c-0.059,1.026-0.146,2.679-0.234,4.762h0.004c1.127,0,2.199-0.143,3.193-0.393
		c-0.799-1.901-1.605-3.398-2.123-4.29c0.578,0.065,1.146,0.157,1.703,0.289c0.506,0.932,1.117,2.146,1.719,3.599
		c0.576-0.218,1.107-0.481,1.594-0.776c-0.906-1.102-1.752-1.972-2.352-2.55c1.111,0.347,2.174,0.808,3.156,1.397
		c0.1,0.116,0.195,0.227,0.295,0.349c0.033-0.029,0.064-0.06,0.096-0.089c0.377,0.242,0.74,0.5,1.094,0.774
		c-0.125,0.119-0.238,0.243-0.371,0.356c0.746,1,1.492,2.135,2.148,3.377c0.357-0.285,0.682-0.59,0.986-0.903
		c0.268,0.361,0.52,0.734,0.754,1.12c-0.357,0.347-0.734,0.683-1.148,0.996c0.451,0.998,0.83,2.051,1.1,3.15
		c0.51-0.377,0.969-0.781,1.398-1.2c0.156,0.467,0.287,0.944,0.395,1.432c-0.473,0.416-0.973,0.815-1.516,1.188
		c0.094,0.62,0.152,1.249,0.164,1.893c0.014,0.882-0.055,1.739-0.186,2.575c0.658-0.378,1.266-0.791,1.84-1.224
		c-0.053,0.607-0.15,1.207-0.279,1.798c-0.605,0.39-1.24,0.758-1.908,1.098c-0.51,1.955-1.336,3.738-2.252,5.279
		c0.512-0.179,0.996-0.387,1.484-0.59c-0.598,0.782-1.271,1.509-2.02,2.161c-0.203,0.063-0.4,0.131-0.607,0.189
		c-0.166,0.233-0.33,0.453-0.494,0.67c-0.461,0.329-0.938,0.64-1.441,0.916L38.708,40.029z"/>
	<path d="M37.442,21.864c-0.326-1.328-0.732-2.587-1.166-3.736c-1.146,0.309-2.387,0.484-3.689,0.484
		c-0.02,0-0.039-0.001-0.059-0.001c-0.047,1.192-0.09,2.492-0.131,3.867c0.064,0,0.127,0.004,0.189,0.004
		C34.304,22.482,35.938,22.261,37.442,21.864z"/>
	<path d="M37.729,23.17c-1.6,0.42-3.33,0.655-5.143,0.655c-0.074,0-0.148-0.005-0.225-0.005c-0.021,0.877-0.039,1.779-0.055,2.7
		c-0.006,0.275-0.008,0.551-0.01,0.826c2.066-0.018,4.043-0.287,5.863-0.767C38.103,25.419,37.948,24.276,37.729,23.17z"/>
	<path d="M38.187,27.951c-1.846,0.463-3.828,0.723-5.896,0.738c0,1.364,0.02,2.711,0.051,4.004c1.889-0.017,3.711-0.215,5.432-0.57
		C38.013,30.805,38.167,29.405,38.187,27.951z"/>
	<path d="M35.915,41.495c0.215-0.059,0.43-0.116,0.641-0.183c0.375-0.355,1.266-1.236,2.287-2.512
		c-0.584,0.122-1.182,0.221-1.787,0.312C36.642,40.076,36.241,40.883,35.915,41.495z"/>
	<path d="M42.706,31.99c-1.188,0.493-2.445,0.905-3.771,1.228c-0.35,1.648-0.814,3.142-1.303,4.444
		c0.834-0.144,1.652-0.315,2.443-0.523C41.067,35.687,42.044,33.938,42.706,31.99z"/>
	<path d="M32.784,41.991c0.467-0.023,0.928-0.069,1.383-0.136c0.242-0.404,0.746-1.294,1.322-2.553
		c-0.938,0.091-1.895,0.142-2.867,0.148C32.683,40.48,32.739,41.345,32.784,41.991z"/>
	<path d="M41.62,20.102c-0.643-1.234-1.387-2.365-2.129-3.36c-0.588,0.371-1.229,0.699-1.924,0.969
		c0.434,1.157,0.838,2.423,1.168,3.761C39.788,21.102,40.757,20.639,41.62,20.102z"/>
	<path d="M37.479,33.53c-1.631,0.306-3.336,0.481-5.102,0.501c0.049,1.477,0.109,2.855,0.17,4.078
		c1.211-0.006,2.395-0.085,3.549-0.223C36.595,36.639,37.093,35.165,37.479,33.53z"/>
	<path d="M39.479,26.189c1.369-0.455,2.629-1.033,3.752-1.712c-0.236-1.104-0.596-2.169-1.037-3.176
		c-0.953,0.581-2.018,1.082-3.166,1.476C39.247,23.881,39.403,25.023,39.479,26.189z"/>
	<path d="M39.198,31.787c1.41-0.374,2.742-0.854,3.967-1.428c0.246-1.075,0.385-2.194,0.365-3.348
		c-0.006-0.384-0.035-0.762-0.076-1.137c-1.193,0.678-2.512,1.251-3.932,1.7C39.53,29.039,39.411,30.454,39.198,31.787z"/>
	<path d="M25.329,33.256c-1.289-0.309-2.52-0.702-3.68-1.172c0.635,1.836,1.545,3.49,2.48,4.883c0.795,0.23,1.613,0.426,2.455,0.588
		C26.116,36.287,25.667,34.846,25.329,33.256z"/>
	<path d="M28.739,39.24c0.613,1.348,1.152,2.285,1.383,2.669c0.436,0.054,0.877,0.091,1.322,0.107
		c-0.047-0.665-0.105-1.546-0.166-2.587C30.419,39.399,29.571,39.336,28.739,39.24z"/>
	<path d="M25.37,38.669c1.287,1.623,2.385,2.638,2.563,2.797c0.152,0.043,0.307,0.082,0.461,0.121
		c-0.348-0.642-0.781-1.51-1.23-2.567C26.556,38.919,25.958,38.802,25.37,38.669z"/>
	<path d="M31.206,38.078c-0.063-1.219-0.121-2.591-0.168-4.056c-1.463-0.051-2.885-0.205-4.252-0.456
		c0.377,1.587,0.859,3.022,1.344,4.243C29.132,37.949,30.157,38.039,31.206,38.078z"/>
	<path d="M24.735,27.607c-1.396-0.434-2.695-0.99-3.877-1.643c-0.033,0.347-0.059,0.695-0.064,1.047
		c-0.02,1.183,0.125,2.327,0.381,3.426c1.205,0.552,2.506,1.014,3.887,1.375C24.851,30.481,24.731,29.07,24.735,27.607z"/>
	<path d="M31.188,18.546c-1.102-0.105-2.146-0.335-3.111-0.664c-0.441,1.145-0.859,2.403-1.201,3.735
		c1.293,0.414,2.701,0.688,4.184,0.802C31.099,21.04,31.144,19.739,31.188,18.546z"/>
	<path d="M26.487,32.146c1.441,0.29,2.951,0.473,4.512,0.531c-0.029-1.294-0.049-2.644-0.049-4.008
		c-1.703-0.073-3.338-0.316-4.879-0.695C26.091,29.427,26.247,30.827,26.487,32.146z"/>
	<path d="M30.968,26.498c0.014-0.934,0.035-1.848,0.055-2.737c-1.568-0.117-3.066-0.404-4.447-0.841
		c-0.244,1.192-0.418,2.429-0.48,3.686c1.525,0.393,3.158,0.646,4.861,0.721C30.96,27.051,30.962,26.774,30.968,26.498z"/>
	<path d="M25.296,22.459c-1.088-0.438-2.086-0.973-2.971-1.584c-0.545,1.16-0.986,2.4-1.252,3.695
		c1.113,0.654,2.354,1.216,3.701,1.655C24.856,24.934,25.042,23.671,25.296,22.459z"/>
	<path d="M26.819,17.371c-0.617-0.292-1.188-0.628-1.699-1.004c-0.752,0.971-1.516,2.089-2.191,3.316
		c0.791,0.562,1.688,1.056,2.674,1.465C25.948,19.798,26.374,18.527,26.819,17.371z"/>
</g>
</svg>
