<?xml version="1.0" encoding="utf-8"?>
<!-- Generator: Adobe Illustrator 16.0.0, SVG Export Plug-In . SVG Version: 6.00 Build 0)  -->
<!DOCTYPE svg PUBLIC "-//W3C//DTD SVG 1.1//EN" "http://www.w3.org/Graphics/SVG/1.1/DTD/svg11.dtd">
<svg version="1.1" id="Layer_1" xmlns="http://www.w3.org/2000/svg" xmlns:xlink="http://www.w3.org/1999/xlink" x="0px" y="0px"
	 width="64px" height="64px" viewBox="0 0 64 64" enable-background="new 0 0 64 64" xml:space="preserve">
<g>
	<path d="M54.013,43.791l-0.934,1.34l-2.669-1.176l-6.413-3.877l-2.309,1.641l4.498,3.154l-6.384,1.396l-4.856-2.609l-2.758,1.279
		l6.74,4.5l8.342,0.07l2.453,0.436l-1.01,1.447l2.984,2.078l5.3-7.604L54.013,43.791z M51.424,51.936l-1.173-0.816l4.037-5.793
		l1.174,0.816L51.424,51.936z"/>
	<path d="M24.197,46.271l-6.384-1.398l4.498-3.152l-2.31-1.643l-6.411,3.879l-2.67,1.174l-0.934-1.34l-2.985,2.078l5.3,7.604
		l2.983-2.078l-1.009-1.447l2.454-0.438l8.342-0.068l6.739-4.5l-2.758-1.281L24.197,46.271z M12.576,51.938l-4.038-5.793
		l1.174-0.818l4.037,5.795L12.576,51.938z"/>
	<path d="M20.709,35.629c2.793,3.352,6.987,5.496,11.674,5.523c0.019,0,0.035,0.002,0.053,0.002c0.004,0,0.009,0,0.014,0
		c0.007,0,0.015,0,0.022,0c4.725,0,8.954-2.15,11.766-5.523c0.257-0.309,0.501-0.631,0.734-0.961c1.77-2.496,2.813-5.541,2.813-8.83
		c0-3.285-1.044-6.33-2.813-8.828c-0.233-0.33-0.477-0.65-0.734-0.961c-2.812-3.371-7.041-5.523-11.766-5.523
		c-0.008,0-0.016,0-0.022,0c-0.005,0-0.01,0-0.014,0c-0.018,0-0.034,0.002-0.053,0.002c-4.687,0.027-8.881,2.174-11.674,5.523
		c-0.258,0.309-0.502,0.629-0.735,0.959c-1.77,2.498-2.814,5.543-2.814,8.828c0,3.289,1.045,6.334,2.814,8.83
		C20.207,35,20.451,35.322,20.709,35.629z M36.837,39.201c1.429-1.363,2.618-3.369,3.431-5.785c1.104,0.408,2.097,0.9,2.95,1.459
		C41.549,36.855,39.352,38.377,36.837,39.201z M43.959,33.916c-0.968-0.646-2.092-1.213-3.337-1.676
		c0.442-1.625,0.725-3.4,0.806-5.271h5.052C46.274,29.543,45.368,31.92,43.959,33.916z M46.525,25.713h-5.071
		c-0.012-2.238-0.311-4.359-0.831-6.271c1.243-0.463,2.366-1.027,3.335-1.674C45.547,20.021,46.498,22.756,46.525,25.713z
		 M43.22,16.807c-0.854,0.561-1.848,1.053-2.954,1.461c-0.813-2.414-2-4.424-3.429-5.787C39.352,13.305,41.551,14.826,43.22,16.807z
		 M33.101,11.84c2.55,0.393,4.746,3.035,5.994,6.814c-1.801,0.535-3.834,0.857-5.994,0.91V11.84z M33.101,20.82
		c2.277-0.055,4.426-0.404,6.343-0.982c0.47,1.785,0.742,3.771,0.754,5.875h-7.097V20.82z M33.101,26.969h7.071
		c-0.077,1.734-0.329,3.377-0.723,4.879c-1.919-0.582-4.069-0.932-6.349-0.986V26.969z M33.101,32.117
		c2.16,0.053,4.196,0.377,5.997,0.91c-1.248,3.783-3.447,6.422-5.997,6.814V32.117z M21.727,34.875
		c0.838-0.549,1.808-1.033,2.886-1.438c0.806,2.385,1.976,4.367,3.384,5.725C25.527,38.33,23.37,36.826,21.727,34.875z
		 M31.844,39.852c-2.577-0.352-4.804-2.998-6.064-6.805c1.817-0.545,3.877-0.877,6.064-0.93V39.852z M31.844,30.861
		c-2.306,0.057-4.48,0.412-6.418,1.008c-0.396-1.508-0.649-3.158-0.726-4.9h7.144V30.861z M31.844,25.713h-7.169
		c0.01-2.111,0.285-4.105,0.758-5.896c1.934,0.592,4.107,0.949,6.411,1.004V25.713z M31.844,11.83v7.734
		c-2.187-0.053-4.244-0.383-6.062-0.928C27.044,14.83,29.267,12.184,31.844,11.83z M27.996,12.52
		c-1.408,1.357-2.577,3.342-3.383,5.725c-1.08-0.404-2.052-0.889-2.89-1.438C23.366,14.854,25.527,13.352,27.996,12.52z
		 M20.985,17.766c0.952,0.637,2.053,1.191,3.27,1.65c-0.524,1.918-0.825,4.049-0.837,6.297h-4.999
		C18.446,22.756,19.396,20.02,20.985,17.766z M23.442,26.969c0.081,1.881,0.366,3.666,0.813,5.299
		c-1.217,0.457-2.318,1.014-3.27,1.648c-1.408-1.998-2.314-4.373-2.521-6.947H23.442z"/>
</g>
</svg>
