<?xml version="1.0" encoding="utf-8"?>
<!-- Generator: Adobe Illustrator 16.0.0, SVG Export Plug-In . SVG Version: 6.00 Build 0)  -->
<!DOCTYPE svg PUBLIC "-//W3C//DTD SVG 1.1//EN" "http://www.w3.org/Graphics/SVG/1.1/DTD/svg11.dtd">
<svg version="1.1" id="Layer_1" xmlns="http://www.w3.org/2000/svg" xmlns:xlink="http://www.w3.org/1999/xlink" x="0px" y="0px"
	 width="64px" height="64px" viewBox="0 0 64 64" enable-background="new 0 0 64 64" xml:space="preserve">
<g>
	<polygon fill="none" points="21.856,19.291 22.038,18.582 21.51,18.456 20.926,18.734 21.287,19.473 	"/>
	<polygon fill="none" points="23.442,21.044 22.706,21.044 22.191,21.6 22.107,22.155 22.497,22.365 	"/>
	<polygon fill="none" points="24.026,20.863 24.026,20.404 23.833,20.404 23.833,20.139 22.956,20.139 22.315,20.404 22.191,20.724 
		22.692,20.863 	"/>
	<polygon fill="none" points="24.262,20.334 24.262,20.863 24.721,20.752 	"/>
	<path fill="none" d="M53.776,27.252c-0.027-0.128-0.058-0.254-0.088-0.381l-0.07,0.082L53.776,27.252z"/>
	<polygon fill="none" points="20.194,15.23 20.194,14.883 19.396,14.883 19.354,15.051 18.867,15.051 18.867,15.092 18.867,15.537 
		19.965,15.537 	"/>
	<polygon fill="none" points="25.723,22.213 25.723,21.781 24.875,21.53 24.819,21.53 24.819,21.932 25.014,22.213 	"/>
	<path fill="none" d="M51.033,23.324l-0.112-1.029l-0.598,0.326l-0.32,1.258l-0.861-0.918l-0.035-0.867l-0.834-0.717l-0.307-0.306
		h-0.967l0.307,0.86l1.162,0.648l0.201,0.215l-0.252,0.125l0.012,0.682l-0.566,0.236l-0.484-0.105l-0.302-0.429l0.786,0.042
		l0.212-0.285l-1.742-1.176l-0.132-0.5l-0.709,0.639l-0.717-0.146l-1.092,1.42l-0.215,0.556l-0.699,0.063l-1.033,0.006l-0.617-0.288
		l-0.182-1.228l0.222-0.585l1.052-0.229l1.146,0.229l0.14-0.635l-0.487-0.115l0.166-0.987l1.154-0.182l0.808-1.14l0.833-0.14
		l0.752,0.111h0.277l-0.152-1.07l-0.914,0.369l-0.321-0.801l-0.53-0.073l-0.1-0.549l0.434-0.472l1.028-0.402l0.265-0.475
		c-3.933-3.465-9.088-5.574-14.73-5.574c-4.896,0-9.425,1.59-13.108,4.273l1.125-0.01l0.501,0.278l0.945,0.204l0.073,0.371
		l1.503,0.055l-0.204-0.481l-1.335-0.037l0.314-0.296l-0.109-0.354h-1.207l1.316-0.982h1.262l0.592,0.816l0.984,0.056l0.593-0.575
		l0.446,0.223l-0.817,0.797c0,0-1.13,0.02-1.075,0.02c0.057,0,0.094,0.777,0.094,0.777l1.371-0.037l0.148-0.37l0.945-0.056
		l0.111-0.556L25.89,13.71l0.185-0.501l0.427-0.129l1.483,0.074l-0.817,0.742l0.132,0.574l0.853,0.129l-0.056-1.037l0.816-0.428
		l1.446-0.166l2.095,0.928v0.797l0.668,0.166l-0.334,0.631h-0.945l-0.28,0.723l-2.161-0.51l1.698-0.904l-0.647-0.551l-1.465,0.186
		l-0.129,0.132l-0.006-0.002l-0.022,0.032l-0.421,0.438l-0.697,0.059l0.056,0.348l0.243,0.101L28,15.654l-0.566,0.082l-0.042,0.328
		l-0.542,0.029l-0.098-0.654l-0.974,0.297L23.79,16.9l0.224,0.818l0.556,0.363l1.112,0.153V19.5l0.514-0.084l0.474-0.987
		l1.183-0.374v-1.517l0.657-0.497l1.591,0.376l-0.112,1.001h0.428l1.168-0.574l0.056,1.316l0.852,0.519l-0.036,0.78l-0.815,0.277
		l0.056,0.258l0.982,0.447l-0.02,0.537l-0.285,0.024c-0.001-0.009-0.002-0.015-0.002-0.015l-1.24-0.383l-0.053-0.396h-0.001
		l0.362-0.25v-0.361l-0.39-0.098l-0.097,0.334l-0.684,0.105L30.2,19.916v0.035l-0.236,0.035l-0.193-0.389L29.547,19.5h-0.488
		l-0.221,0.18v0.404l0.416,0.139l0.412,0.057l-0.092,0.041L29.2,20.736l-0.166-0.208l-0.362-0.096l-0.988,0.93l0.129,0.106
		l-1.459,0.807l-1.372,1.428l-0.094,0.637l-1.376,0.903L22.83,25.93l0.075,1.371l-0.945-0.44l0.007-0.803l-2.632,0.001l-1.363,0.69
		l-0.592,1.091l-0.234,0.865l0.383,0.839l1.074,0.131l1.707-1.142l0.148,0.566l-0.52,0.983l1.299,0.222l0.129,2.006l1.78,0.303
		l1.131-1.308l1.372,0.278l0.482,0.672l1.316-0.078l0.037-0.39l0.723,0.353l0.816,1.278l1.408,0.02l0.52,0.909l0.074,1.111
		l1.558,0.594l1.966,0.02l0.574,0.943l0.871,0.279l-0.166,0.779l-0.955,1.214l-0.279,2.685l-0.861,0.682l-1.279-0.039l-0.428,0.742
		l0.316,1.392l-1.391,1.78l-0.445,0.816l-1.326,0.637l-0.871,0.133l-0.037,0.369l0.612,0.176l-0.073,0.398l-0.549,0.528l0.333,0.419
		l0.659,0.018l-0.037,0.51l-0.175,0.501l-0.056,0.407l0.975,0.822l-0.129,0.427l-1.328-0.025l-1.321-1.153l-1.029-1.809l0.144-1.746
		l-0.779-1.039l0.316-1.761l-0.463-0.13v-3.82c0,0-1.299-0.983-1.373-0.983s-0.686-0.166-0.686-0.166l-0.13-0.723l-1.688-2.114
		l0.167-0.76l0.055-1.242l1.168-0.816l-0.166-1.391l-1.705-0.129l-1.336-1.521l-0.945-0.258l-0.611-0.113l0.073-0.556l-0.778-0.11
		v0.314l-1.947-0.482l-0.783-1.198l0.318-0.581l-1.232-1.799l-0.212-1.316h-0.501l0.167,1.279l0.853,1.316l-0.093,0.52l-0.724-0.111
		l-0.889-1.517v-1.765l-0.928-0.446v-1.27C10.301,25.951,9.665,28.903,9.665,32c0,12.304,10.01,22.313,22.313,22.313
		c6.976,0,13.211-3.219,17.306-8.247h-0.736v-1.483l-0.851-1.146v-1.784l-0.65-0.647l-0.057-0.742l0.825-1.576l-1.565-2.764
		l0.186-1.873l-1.409-0.146l-0.519-0.52h-0.947l-0.48,0.445H41.41l-0.056,0.147h-0.929l-2.131-2.428l0.018-1.892l0.353-0.13
		l0.131-0.724h-0.501l-0.204-0.76l2.466-1.779v-1.262l1.207-0.67l0.488,0.049h0.993l0.777-0.417l2.504-0.195v1.28l1.976,0.5
		l0.389,0.278h0.362v-0.696l1.141-0.111l1.084,0.808h1.78l0.125-0.114c-0.177-0.601-0.378-1.189-0.604-1.769l-1.163,0.02
		L51.033,23.324z M42.243,17.594l0.205-0.314l0.732-0.148l0.185,0.891l0.39,0.63l0.26,0.298l0.472,0.184l-0.444,0.529l-0.861,0.084
		h-0.65l0.074-0.77l0.539-0.111l-0.046-0.361l-0.503-0.316l-0.352-0.24V17.594z M41.039,18.985l0.445-0.714l0.601-0.139l0.428,0.186
		L42.475,18.8l-0.918,0.649h-0.519V18.985z M28.917,21.729l-0.465,0.038l0.025-0.322l0.207-0.259l0.279,0.219L28.917,21.729z
		 M30.545,21.159l-0.317,0.027l-0.064,0.308l-0.245,0.151l-0.391,0.032c-0.014-0.092-0.022-0.162-0.022-0.162h-0.152v-0.329h0.64
		l0.132-0.341l0.255-0.005l0.29,0.06L30.545,21.159z"/>
	<path fill="none" d="M51.709,22.032v0.985l0.432-0.059l0.231,0.009c-0.165-0.37-0.339-0.734-0.522-1.094L51.709,22.032z"/>
	<path fill="none" d="M20.174,16.58c0,0,0.042-0.486,0-0.486c-0.041,0-0.529,0.082-0.529,0.082l-0.778,0.223l0.209,0.25
		L20.174,16.58z"/>
	<polygon fill="none" points="25.612,21.187 25.271,20.975 25.069,21.187 25.339,21.412 	"/>
	<path fill="none" d="M23.888,21.781l0.416-0.078l0.335-0.215v-0.444h-0.751C23.888,21.113,23.888,21.781,23.888,21.781z"/>
	<path fill="none" d="M54.584,23.018l-0.073-0.41l-0.132-0.055c0.064,0.153,0.121,0.311,0.184,0.465H54.584z"/>
	<polygon fill="none" points="23.888,22.17 23.553,22.198 23.442,22.685 24.152,22.685 24.471,22.365 24.471,21.932 23.958,22.003 	
		"/>
	<path fill="none" d="M13.135,20.074c-0.316,0.497-0.614,1.006-0.891,1.529l0.926-1.125L13.135,20.074z"/>
	<path fill="none" d="M47.237,18.276l0.096,0.319l1.53,0.014l0.438-0.651c-0.351-0.433-0.72-0.849-1.102-1.254l-0.004,1.086
		L47.237,18.276z"/>
	<polygon points="43.097,18.504 43.143,18.865 42.604,18.977 42.53,19.746 43.18,19.746 44.042,19.662 44.486,19.133 44.014,18.949 
		43.754,18.651 43.365,18.021 43.18,17.131 42.448,17.279 42.243,17.594 42.243,17.947 42.594,18.188 	"/>
	<polygon points="42.475,18.8 42.512,18.318 42.084,18.133 41.484,18.271 41.039,18.985 41.039,19.449 41.557,19.449 	"/>
	<path d="M30.125,20.846l-0.132,0.341h-0.64v0.329h0.152c0,0,0.009,0.07,0.022,0.162l0.391-0.032l0.245-0.151l0.064-0.308
		l0.317-0.027l0.124-0.259l-0.29-0.06L30.125,20.846z"/>
	<path d="M11.446,22.572v0.696c0.243-0.568,0.512-1.122,0.799-1.665L11.446,22.572z"/>
	<polygon points="27.485,31.788 27.448,32.178 26.669,32.224 28.372,32.398 28.208,32.141 	"/>
	<polygon points="25.649,31.584 24.277,31.306 23.742,31.924 26.064,32.162 	"/>
	<path d="M56.284,31.75c-0.008-0.712-0.043-1.417-0.11-2.112c-0.225-2.317-0.779-4.538-1.61-6.62
		c-0.063-0.154-0.119-0.312-0.184-0.465c-1.106-2.613-2.66-4.991-4.561-7.045c-0.123-0.135-0.25-0.266-0.377-0.396
		c-0.361-0.373-0.729-0.737-1.111-1.086c-4.321-3.936-10.063-6.338-16.354-6.338c-6.344,0-12.127,2.445-16.461,6.44
		c-1.009,0.931-1.938,1.947-2.779,3.035c-2.357,3.05-3.987,6.679-4.682,10.625l-0.021,0.009l-0.172,1.031l14.513-5.803l-0.768-1.845
		l7.493,0.768l-4.735,5.856l-0.766-1.838L7.71,32.688l0.017,0.479c-0.002,0-0.004,0.001-0.006,0.002
		c-0.004,0.002-0.007,0.003-0.011,0.005c0.006,0.135,0.023,0.268,0.032,0.402l0.003,0.101l0.004-0.002
		c0.124,1.801,0.434,3.551,0.93,5.225c0.011,0.082,0.044,0.197,0.089,0.321c0.007,0.022,0.012,0.045,0.019,0.067
		c0.001-0.001,0.003-0.002,0.005-0.002c0.096,0.252,0.213,0.505,0.213,0.505s8.546-3.588,13.294-5.509l0.468-0.189l-0.767-1.844
		l7.493,0.769l-4.735,5.857l-0.763-1.833L10.14,42.68l0.219,0.425c0,0.001,0.001,0.002,0.002,0.003l0.239,0.465l0.018-0.007
		c0.914,1.68,2.02,3.239,3.288,4.652l-0.016,0.007l0.738,0.807l7.743-3.296l-0.764-1.836l7.493,0.769l-4.735,5.856l-0.767-1.843
		l-6.267,2.771l0.924,0.6c0.005-0.002,0.012-0.005,0.017-0.007c3.907,2.681,8.621,4.267,13.706,4.267
		c9.43,0,17.617-5.4,21.648-13.267c0.861-1.682,1.533-3.476,1.984-5.354c0.115-0.476,0.215-0.956,0.301-1.442
		c0.244-1.381,0.379-2.799,0.379-4.25C56.29,31.916,56.285,31.834,56.284,31.75z M12.374,26.023l-2.092,0.855
		c0.294-1.244,0.672-2.456,1.165-3.61v-0.696l0.799-0.969c0.276-0.523,0.574-1.032,0.891-1.529l0.035,0.404l-0.926,1.125
		c-0.287,0.543-0.556,1.097-0.799,1.665v1.27l0.928,0.446V26.023z M13.119,25.72l-0.06-0.458h0.501l0.042,0.261L13.119,25.72z
		 M51.709,22.032l0.141-0.158c0.184,0.359,0.357,0.724,0.522,1.094l-0.231-0.009l-0.432,0.059V22.032z M48.195,17.79l0.004-1.086
		c0.382,0.405,0.751,0.821,1.102,1.254l-0.438,0.651l-1.53-0.014l-0.096-0.319L48.195,17.79z M20.174,16.58l-1.099,0.068
		l-0.209-0.25l0.778-0.223c0,0,0.488-0.082,0.529-0.082C20.216,16.094,20.174,16.58,20.174,16.58z M20.194,15.23l-0.229,0.307
		h-1.099v-0.445v-0.041h0.487l0.042-0.168h0.798V15.23z M21.856,19.291l-0.569,0.182l-0.36-0.738l0.584-0.278l0.527,0.126
		L21.856,19.291z M23.833,20.404l-1.216-0.125l0.339-0.141h0.877V20.404z M24.026,20.424l-0.188-0.02h0.188V20.424z M24.262,20.447
		v-0.113l0.141,0.128L24.262,20.447z M10.526,38.098c-0.476-1.676-0.754-3.432-0.824-5.24l6.205-2.593l1.509,0.374v-0.314
		l0.778,0.11l-0.073,0.556l0.611,0.113l0.945,0.258l1.336,1.521l0.174,0.014l0.27,0.648C19.475,34.348,13.572,36.833,10.526,38.098z
		 M21.065,45.204l-5.205,2.19c-1.311-1.375-2.448-2.916-3.378-4.589l10.166-4.14l0.534,0.669l0.13,0.723
		c0,0,0.611,0.166,0.686,0.166c0.022,0,0.157,0.091,0.33,0.213l0.154,0.371l0.132-0.164c0.366,0.268,0.757,0.563,0.757,0.563v2.073
		l-5.334-0.545L21.065,45.204z M53.257,25.827h-1.78l-1.084-0.808l-1.141,0.111v0.696H48.89l-0.389-0.278l-1.976-0.5v-1.28
		l-2.504,0.195l-0.777,0.417h-0.993l-0.488-0.049l-1.207,0.67v1.262l-2.466,1.779l0.204,0.76h0.501l-0.131,0.724l-0.353,0.13
		l-0.018,1.892l2.131,2.428h0.929l0.056-0.147h1.669l0.48-0.445h0.947l0.519,0.52l1.409,0.146l-0.186,1.873l1.565,2.764
		l-0.825,1.576l0.057,0.742l0.65,0.647v1.784l0.851,1.146v1.483h0.736c-4.095,5.028-10.33,8.247-17.306,8.247
		c-4.204,0-8.129-1.184-11.489-3.214c1.003-0.429,1.994-0.853,2.574-1.101l1.024,2.46l2.133-2.64l0.963,1.693l1.321,1.153
		l1.328,0.025l0.129-0.427l-0.975-0.822l0.056-0.407l0.175-0.501l0.037-0.51l-0.659-0.018l-0.333-0.419l0.549-0.528l0.073-0.398
		l-0.612-0.176l0.037-0.369l0.871-0.133l1.326-0.637l0.445-0.816l1.391-1.78l-0.316-1.392l0.428-0.742l1.279,0.039l0.861-0.682
		l0.279-2.685l0.955-1.214l0.166-0.779l-0.871-0.279l-0.574-0.943l-1.966-0.02l-1.558-0.594l-0.074-1.111l-0.517-0.905l0.998-1.234
		l-10.14-1.036l-0.056-0.867l-1.299-0.222l0.52-0.983l-0.148-0.566l-1.707,1.142l-0.993-0.121l5.452-2.278l1.025,2.463l6.95-8.598
		l-2.812-0.287l0.447-0.421l0.362,0.096l0.166,0.208l0.375-0.416l0.092-0.041l-0.412-0.057l-0.416-0.139V19.68l0.221-0.18h0.488
		l0.223,0.098l0.193,0.389l0.236-0.035v-0.035l0.068,0.023l0.684-0.105l0.097-0.334l0.39,0.098v0.361l-0.362,0.25h0.001l0.053,0.396
		l1.24,0.383c0,0,0.001,0.006,0.002,0.015l0.285-0.024l0.02-0.537l-0.982-0.447l-0.056-0.258l0.815-0.277l0.036-0.78l-0.852-0.519
		l-0.056-1.316l-1.168,0.574h-0.428l0.112-1.001l-1.591-0.376l-0.657,0.497v1.517l-1.183,0.374l-0.474,0.987L25.681,19.5v-1.265
		l-1.112-0.153l-0.556-0.363L23.79,16.9l1.989-1.164l0.974-0.297l0.098,0.654l0.542-0.029l0.042-0.328L28,15.654l0.01-0.114
		l-0.243-0.101l-0.056-0.348l0.697-0.059l0.421-0.438l0.022-0.032l0.006,0.002l0.129-0.132l1.465-0.186l0.647,0.551l-1.698,0.904
		l2.161,0.51l0.28-0.723h0.945l0.334-0.631l-0.668-0.166v-0.797l-2.095-0.928l-1.446,0.166l-0.816,0.428l0.056,1.037l-0.853-0.129
		l-0.132-0.574l0.817-0.742l-1.483-0.074l-0.427,0.129L25.89,13.71l0.556,0.094l-0.111,0.556l-0.945,0.056l-0.148,0.37l-1.371,0.037
		c0,0-0.037-0.777-0.094-0.777c-0.055,0,1.075-0.02,1.075-0.02l0.817-0.797l-0.446-0.223l-0.593,0.575l-0.984-0.056l-0.592-0.816
		h-1.262l-1.316,0.982h1.207l0.109,0.354l-0.314,0.296l1.335,0.037l0.204,0.481l-1.503-0.055l-0.073-0.371l-0.945-0.204
		l-0.501-0.278l-1.125,0.01c3.684-2.684,8.213-4.273,13.108-4.273c5.643,0,10.798,2.109,14.73,5.574l-0.265,0.475l-1.028,0.402
		l-0.434,0.472l0.1,0.549l0.53,0.073l0.321,0.801l0.914-0.369l0.152,1.07h-0.277l-0.752-0.111l-0.833,0.14l-0.808,1.14l-1.154,0.182
		l-0.166,0.987l0.487,0.115l-0.14,0.635l-1.146-0.229l-1.052,0.229l-0.222,0.585l0.182,1.228l0.617,0.288l1.033-0.006l0.699-0.063
		l0.215-0.556l1.092-1.42l0.717,0.146l0.709-0.639l0.132,0.5l1.742,1.176l-0.212,0.285l-0.786-0.042l0.302,0.429l0.484,0.105
		l0.566-0.236l-0.012-0.682l0.252-0.125l-0.201-0.215l-1.162-0.648l-0.307-0.86h0.967l0.307,0.306l0.834,0.717l0.035,0.867
		l0.861,0.918l0.32-1.258l0.598-0.326l0.112,1.029l0.583,0.64l1.163-0.02c0.226,0.579,0.427,1.168,0.604,1.769L53.257,25.827z
		 M53.618,26.953l0.07-0.082c0.03,0.127,0.061,0.253,0.088,0.381L53.618,26.953z"/>
</g>
</svg>
