<?xml version="1.0" encoding="utf-8"?>
<!-- Generator: Adobe Illustrator 16.0.0, SVG Export Plug-In . SVG Version: 6.00 Build 0)  -->
<!DOCTYPE svg PUBLIC "-//W3C//DTD SVG 1.1//EN" "http://www.w3.org/Graphics/SVG/1.1/DTD/svg11.dtd">
<svg version="1.1" id="Layer_1" xmlns="http://www.w3.org/2000/svg" xmlns:xlink="http://www.w3.org/1999/xlink" x="0px" y="0px"
	 width="64px" height="64px" viewBox="0 0 64 64" enable-background="new 0 0 64 64" xml:space="preserve">
<path d="M50.602,47.726c3.597-4.249,5.772-9.737,5.772-15.727c0-10.854-7.135-20.071-16.959-23.216
	c-0.001,0-0.001-0.001-0.001-0.001h-0.001c-1.081-0.346-2.194-0.615-3.335-0.809l-0.002-0.002l-0.002,0.002
	c-1.326-0.225-2.687-0.348-4.075-0.348c-7.062,0-13.429,3.021-17.884,7.837c-0.289,0.218-0.462,0.369-0.496,0.401l0.069,0.075
	c-3.77,4.292-6.063,9.911-6.063,16.06c0,12.088,8.846,22.144,20.402,24.046c0.036,0.046,0.065,0.08,0.077,0.094l0.076-0.065
	c1.244,0.196,2.519,0.301,3.817,0.301c4.146,0,8.054-1.044,11.476-2.878l0.094,0.083c0.021-0.023,0.097-0.115,0.196-0.242
	c2.5-1.384,4.729-3.195,6.596-5.334c0.144-0.144,0.23-0.242,0.252-0.269L50.602,47.726z M37.774,53.614
	c0.13-0.221,0.266-0.461,0.403-0.714c0.223-0.03,0.461-0.054,0.676-0.087c-0.176,0.27-0.319,0.475-0.426,0.614
	C38.211,53.493,37.993,53.556,37.774,53.614z M17.266,47.3c0.079,0.027,0.164,0.054,0.245,0.082
	c0.114,0.312,0.229,0.612,0.345,0.898C17.666,47.987,17.47,47.661,17.266,47.3z M15.981,44.624c-0.162-0.4-0.321-0.819-0.476-1.265
	c0.29,0.119,0.59,0.237,0.902,0.354c0.104,0.431,0.216,0.829,0.327,1.229C16.47,44.835,16.223,44.729,15.981,44.624z M46.701,16.428
	c-0.104-0.039-0.222-0.076-0.329-0.114c-0.145-0.36-0.289-0.711-0.436-1.037C46.172,15.601,46.427,15.978,46.701,16.428z
	 M48.125,19.223c0.159,0.374,0.313,0.773,0.466,1.19c-0.31-0.116-0.635-0.231-0.97-0.346c-0.115-0.432-0.237-0.84-0.36-1.241
	C47.568,18.959,47.851,19.092,48.125,19.223z M47.497,45.023c0.107-0.396,0.214-0.796,0.314-1.224
	c0.273-0.102,0.537-0.205,0.792-0.309c-0.158,0.439-0.319,0.859-0.484,1.253C47.915,44.838,47.721,44.93,47.497,45.023z
	 M46.771,47.458c-0.022,0.04-0.047,0.084-0.069,0.123c0.014-0.038,0.026-0.074,0.04-0.112
	C46.751,47.466,46.761,47.462,46.771,47.458z M32.241,51.295c-0.059-0.544-0.121-1.123-0.185-1.73
	c0.123,0.001,0.234,0.008,0.358,0.008c0.005,0,0.011,0,0.016,0c-0.046,0.679-0.087,1.258-0.12,1.721
	C32.286,51.293,32.265,51.295,32.241,51.295z M20.563,32.103c0-0.312,0.016-0.596,0.021-0.899c0.435-0.04,0.862-0.081,1.323-0.118
	c-0.004,0.307-0.01,0.609-0.01,0.923c0,0.348,0.006,0.685,0.011,1.024c-0.463-0.024-0.905-0.051-1.327-0.078
	C20.576,32.666,20.563,32.397,20.563,32.103z M43.647,31.96c0,0.355-0.017,0.681-0.022,1.025c-0.314,0.017-0.639,0.033-0.974,0.049
	c0.006-0.357,0.013-0.713,0.013-1.08c0-0.296-0.006-0.582-0.01-0.873c0.333,0.027,0.657,0.056,0.975,0.084
	C43.633,31.435,43.647,31.685,43.647,31.96z M43.481,36.338c-0.323,0.057-0.642,0.114-0.98,0.168
	c0.035-0.479,0.065-0.966,0.089-1.464c0.337-0.016,0.664-0.031,0.98-0.048C43.548,35.457,43.514,35.895,43.481,36.338z
	 M45.584,34.875c0.502-0.033,0.973-0.068,1.416-0.104c-0.014,0.286-0.037,0.552-0.055,0.83c-0.452,0.115-0.923,0.228-1.42,0.336
	C45.547,35.587,45.568,35.236,45.584,34.875z M23.896,32.008c0-0.367,0.018-0.704,0.023-1.062c0.438-0.026,0.897-0.049,1.355-0.072
	c-0.015,0.617-0.035,1.222-0.035,1.865c0,0.146,0.003,0.285,0.004,0.43c-0.458-0.014-0.896-0.029-1.323-0.046
	C23.914,32.748,23.896,32.394,23.896,32.008z M25.438,27.263c-0.038,0.521-0.065,1.061-0.092,1.604
	c-0.461,0.021-0.935,0.041-1.374,0.067c0.026-0.539,0.067-1.048,0.105-1.563C24.513,27.33,24.982,27.299,25.438,27.263z
	 M24.267,25.346c0.047-0.413,0.087-0.84,0.141-1.235c0.434-0.049,0.891-0.088,1.345-0.129c-0.049,0.405-0.09,0.832-0.133,1.254
	C25.158,25.269,24.707,25.306,24.267,25.346z M40.664,31.954c0,0.402-0.02,0.772-0.027,1.163c-0.369,0.014-0.75,0.025-1.141,0.037
	c0.005-0.367,0.011-0.734,0.011-1.112c0-0.396-0.006-0.782-0.012-1.168c0.39,0.021,0.772,0.042,1.146,0.065
	C40.646,31.281,40.664,31.603,40.664,31.954z M35.167,33.241c-0.001-0.374-0.004-0.736-0.01-1.076
	c-0.009-0.444-0.021-0.929-0.035-1.441c0.817,0.015,1.601,0.037,2.36,0.063c0.007,0.421,0.024,0.821,0.024,1.255
	c0,0.402-0.017,0.772-0.022,1.163C36.746,33.221,35.972,33.232,35.167,33.241z M27.24,32.739c0-0.673,0.021-1.309,0.037-1.951
	c0.521-0.018,1.053-0.033,1.598-0.046c-0.025,0.533-0.043,1.032-0.052,1.48c-0.006,0.315-0.006,0.661-0.002,1.021
	c-0.544-0.007-1.067-0.016-1.576-0.025C27.244,33.057,27.24,32.902,27.24,32.739z M30.823,32.261
	c0.009-0.464,0.028-0.986,0.056-1.549c0.498-0.004,0.979-0.014,1.495-0.014c0.254,0,0.498,0.002,0.746,0.004
	c0.016,0.534,0.028,1.04,0.037,1.501c0.006,0.332,0.009,0.687,0.009,1.055c-0.438,0.002-0.881,0.003-1.337,0.003
	c-0.345,0-0.675-0.002-1.008-0.003C30.818,32.906,30.817,32.568,30.823,32.261z M39.439,28.865c-0.021-0.514-0.048-1.017-0.08-1.509
	c0.382,0.036,0.757,0.074,1.123,0.115c0.037,0.481,0.079,0.954,0.104,1.456C40.212,28.905,39.83,28.885,39.439,28.865z
	 M37.428,28.783c-0.763-0.026-1.55-0.047-2.369-0.062c-0.019-0.535-0.039-1.089-0.062-1.656c0.806,0.029,1.583,0.07,2.336,0.121
	C37.369,27.709,37.403,28.235,37.428,28.783z M33.057,28.701c-0.229-0.001-0.451-0.003-0.683-0.003
	c-0.477,0-0.917,0.009-1.377,0.013c0.036-0.541,0.078-1.105,0.123-1.687c0.303-0.003,0.585-0.014,0.895-0.014
	c0.338,0,0.649,0.013,0.979,0.017C33.017,27.601,33.037,28.16,33.057,28.701z M28.989,28.737c-0.56,0.012-1.099,0.029-1.633,0.047
	c0.029-0.555,0.054-1.12,0.095-1.649c0.547-0.028,1.084-0.061,1.659-0.078C29.065,27.636,29.025,28.197,28.989,28.737z
	 M25.278,35.17c0.017,0.598,0.039,1.183,0.067,1.75c-0.421-0.044-0.855-0.082-1.259-0.133c-0.042-0.544-0.083-1.089-0.111-1.66
	C24.395,35.143,24.831,35.157,25.278,35.17z M27.279,35.219c0.517,0.01,1.045,0.019,1.595,0.025c0.025,0.619,0.059,1.273,0.099,1.95
	c-0.557-0.024-1.084-0.063-1.615-0.101C27.324,36.488,27.299,35.86,27.279,35.219z M30.877,35.258
	c0.315,0.001,0.627,0.003,0.952,0.003c0.449,0,0.885-0.001,1.316-0.003c-0.013,0.64-0.03,1.304-0.053,1.988
	c-0.355,0.005-0.69,0.019-1.057,0.019c-0.365,0-0.7-0.017-1.056-0.021C30.938,36.553,30.903,35.887,30.877,35.258z M35.147,35.242
	c0.793-0.009,1.559-0.021,2.287-0.034c-0.027,0.645-0.066,1.265-0.109,1.873c-0.718,0.051-1.459,0.092-2.228,0.122
	C35.119,36.529,35.136,35.875,35.147,35.242z M39.444,35.158c0.387-0.011,0.765-0.023,1.132-0.036
	c-0.029,0.571-0.073,1.118-0.118,1.662c-0.36,0.043-0.732,0.081-1.108,0.119C39.387,36.335,39.42,35.756,39.444,35.158z
	 M40.248,38.826c-0.065,0.527-0.13,1.051-0.207,1.55c-0.334,0.045-0.677,0.087-1.022,0.127c0.062-0.507,0.117-1.03,0.169-1.564
	C39.549,38.903,39.899,38.865,40.248,38.826z M42.311,38.559c0.335-0.05,0.663-0.101,0.985-0.153
	c-0.055,0.489-0.105,0.984-0.17,1.448c-0.326,0.066-0.658,0.131-1,0.192C42.193,39.563,42.254,39.066,42.311,38.559z M42.599,29.066
	c-0.021-0.452-0.047-0.896-0.076-1.332c0.336,0.049,0.652,0.103,0.974,0.155c0.029,0.42,0.067,0.822,0.087,1.259
	C43.263,29.12,42.935,29.093,42.599,29.066z M42.346,25.679c-0.045-0.43-0.094-0.852-0.147-1.265
	c0.333,0.052,0.656,0.105,0.974,0.16c0.054,0.404,0.1,0.826,0.146,1.25C42.997,25.774,42.68,25.725,42.346,25.679z M40.288,25.426
	c-0.349-0.037-0.728-0.063-1.089-0.096c-0.042-0.445-0.088-0.882-0.138-1.308c0.364,0.035,0.723,0.073,1.071,0.113
	C40.191,24.55,40.238,24.992,40.288,25.426z M37.159,25.174c-0.729-0.046-1.467-0.088-2.244-0.114
	c-0.019-0.435-0.037-0.873-0.057-1.313c0.747,0.025,1.464,0.064,2.161,0.11C37.072,24.279,37.114,24.731,37.159,25.174z
	 M32.912,25.026c-0.304-0.004-0.588-0.016-0.897-0.016c-0.248,0-0.485,0.004-0.729,0.006c0.037-0.431,0.076-0.866,0.115-1.305
	c0.244-0.003,0.469-0.014,0.717-0.014c0.25,0,0.491,0.005,0.736,0.007C32.874,24.147,32.894,24.588,32.912,25.026z M29.273,25.052
	c-0.554,0.016-1.099,0.035-1.627,0.061c0.048-0.438,0.1-0.86,0.154-1.279c0.523-0.03,1.038-0.064,1.587-0.084
	C29.349,24.187,29.31,24.622,29.273,25.052z M28.097,21.802c0.111-0.675,0.229-1.325,0.354-1.944
	c0.429-0.024,0.867-0.045,1.313-0.06c-0.064,0.644-0.128,1.293-0.19,1.943C29.071,21.757,28.579,21.777,28.097,21.802z
	 M26.03,21.938c-0.441,0.036-0.873,0.075-1.296,0.118c0.119-0.663,0.249-1.293,0.385-1.899c0.406-0.051,0.821-0.098,1.247-0.14
	C26.248,20.635,26.134,21.269,26.03,21.938z M22.646,22.302c-0.427,0.059-0.845,0.119-1.249,0.184
	c0.114-0.618,0.238-1.205,0.369-1.772c0.394-0.082,0.8-0.16,1.218-0.233C22.863,21.065,22.75,21.67,22.646,22.302z M22.349,24.38
	c-0.047,0.386-0.092,0.779-0.133,1.18c-0.442,0.054-0.873,0.109-1.292,0.168c0.043-0.381,0.083-0.771,0.133-1.137
	C21.478,24.518,21.902,24.446,22.349,24.38z M18.86,26.053c-0.475,0.083-0.936,0.169-1.374,0.258c0.04-0.334,0.078-0.67,0.124-0.991
	c0.434-0.11,0.893-0.216,1.366-0.32C18.935,25.343,18.896,25.696,18.86,26.053z M18.689,28.126c-0.026,0.411-0.05,0.829-0.067,1.256
	c-0.489,0.054-0.967,0.107-1.418,0.165c0.02-0.396,0.057-0.76,0.084-1.141C17.734,28.311,18.201,28.217,18.689,28.126z
	 M20.732,27.786c0.428-0.064,0.853-0.128,1.309-0.186c-0.032,0.479-0.06,0.971-0.081,1.471c-0.46,0.034-0.891,0.073-1.325,0.112
	C20.658,28.7,20.697,28.248,20.732,27.786z M21.963,35.037c0.022,0.493,0.05,0.976,0.082,1.449c-0.464-0.077-0.9-0.161-1.337-0.245
	c-0.028-0.427-0.063-0.837-0.083-1.281C21.052,34.987,21.496,35.013,21.963,35.037z M22.225,38.556
	c0.055,0.525,0.113,1.039,0.179,1.538c-0.467-0.083-0.92-0.171-1.358-0.264c-0.063-0.479-0.112-0.993-0.164-1.499
	C21.317,38.409,21.764,38.485,22.225,38.556z M24.283,38.831c0.391,0.046,0.789,0.088,1.196,0.127
	c0.043,0.547,0.092,1.078,0.146,1.595c-0.39-0.043-0.771-0.089-1.145-0.139C24.407,39.905,24.345,39.37,24.283,38.831z
	 M27.499,39.122c0.523,0.034,1.059,0.062,1.604,0.084c0.038,0.533,0.079,1.075,0.123,1.622c-0.537-0.024-1.062-0.054-1.573-0.091
	C27.597,40.218,27.546,39.676,27.499,39.122z M31.115,39.255c0.306,0.004,0.608,0.01,0.921,0.01c0.333,0,0.655-0.005,0.981-0.009
	c-0.023,0.539-0.048,1.081-0.073,1.624c-0.309,0.004-0.614,0.01-0.93,0.01c-0.264,0-0.517-0.006-0.774-0.009
	C31.195,40.333,31.154,39.79,31.115,39.255z M35.023,39.21c0.73-0.027,1.435-0.065,2.122-0.111
	c-0.057,0.549-0.117,1.084-0.185,1.601c-0.651,0.051-1.316,0.096-2.01,0.126C34.977,40.286,35.001,39.746,35.023,39.21z
	 M36.657,42.732c-0.08,0.466-0.162,0.922-0.248,1.357c-0.528,0.039-1.075,0.069-1.633,0.093c0.024-0.444,0.05-0.896,0.074-1.352
	C35.468,42.806,36.07,42.773,36.657,42.732z M38.73,42.551c0.32-0.034,0.636-0.069,0.946-0.107
	c-0.093,0.462-0.193,0.901-0.295,1.335c-0.288,0.039-0.581,0.076-0.879,0.111C38.582,43.457,38.657,43.009,38.73,42.551z
	 M41.787,42.146c0.339-0.056,0.672-0.113,0.997-0.174c-0.081,0.438-0.171,0.849-0.26,1.26c-0.322,0.069-0.653,0.136-0.991,0.199
	C41.622,43.014,41.706,42.585,41.787,42.146z M44.905,41.527c0.484-0.114,0.947-0.233,1.396-0.355
	c-0.069,0.383-0.146,0.735-0.222,1.097c-0.438,0.146-0.899,0.287-1.384,0.425C44.77,42.313,44.839,41.926,44.905,41.527z
	 M45.213,39.374c0.054-0.44,0.104-0.891,0.148-1.352c0.489-0.102,0.963-0.206,1.414-0.313c-0.044,0.429-0.088,0.859-0.141,1.267
	C46.182,39.112,45.711,39.246,45.213,39.374z M48.849,37.16c0.461-0.135,0.901-0.271,1.313-0.407
	c-0.042,0.343-0.091,0.674-0.141,1.002c-0.399,0.172-0.83,0.345-1.291,0.518C48.77,37.902,48.814,37.545,48.849,37.16z
	 M48.989,35.029c0.007-0.147,0.016-0.292,0.021-0.441c0.508-0.053,0.962-0.105,1.365-0.157c-0.003,0.048-0.009,0.091-0.012,0.138
	C49.943,34.721,49.48,34.875,48.989,35.029z M53.021,33.443l-0.236-0.839c0.495,0.125,0.889,0.238,1.181,0.328
	C53.742,33.066,53.433,33.238,53.021,33.443z M50.442,32.401c-0.398,0.053-0.859,0.108-1.388,0.166
	c0.002-0.198,0.013-0.379,0.013-0.58c0-0.049-0.004-0.093-0.004-0.143c0.499,0.082,0.96,0.165,1.387,0.246
	C50.45,32.198,50.443,32.296,50.442,32.401z M47.067,31.987c0,0.267-0.014,0.509-0.017,0.769c-0.439,0.037-0.911,0.072-1.413,0.107
	c0.004-0.3,0.01-0.597,0.01-0.903c0-0.2-0.005-0.392-0.007-0.588c0.496,0.057,0.965,0.115,1.416,0.176
	C47.058,31.697,47.067,31.835,47.067,31.987z M45.592,29.347c-0.016-0.367-0.034-0.728-0.056-1.084
	c0.49,0.1,0.958,0.202,1.407,0.308c0.021,0.315,0.049,0.619,0.063,0.944C46.557,29.457,46.083,29.401,45.592,29.347z M45.377,26.178
	c-0.039-0.405-0.081-0.805-0.127-1.194c0.478,0.106,0.93,0.216,1.365,0.328c0.052,0.372,0.1,0.753,0.143,1.142
	C46.321,26.357,45.849,26.268,45.377,26.178z M44.949,22.862c-0.089-0.544-0.184-1.07-0.285-1.58
	c0.442,0.117,0.861,0.239,1.267,0.363c0.115,0.484,0.226,0.981,0.328,1.505C45.837,23.052,45.404,22.955,44.949,22.862z
	 M42.843,22.481c-0.31-0.05-0.629-0.096-0.952-0.142c-0.104-0.605-0.218-1.185-0.337-1.748c0.322,0.059,0.636,0.12,0.944,0.184
	C42.62,21.323,42.735,21.888,42.843,22.481z M39.792,22.083c-0.328-0.035-0.662-0.067-1.002-0.098c-0.098-0.64-0.2-1.26-0.312-1.852
	c0.314,0.036,0.622,0.076,0.926,0.117C39.541,20.838,39.672,21.444,39.792,22.083z M36.731,21.831
	c-0.635-0.037-1.291-0.065-1.964-0.088c-0.029-0.646-0.06-1.286-0.09-1.914c0.585,0.026,1.151,0.064,1.706,0.106
	C36.506,20.542,36.624,21.169,36.731,21.831z M32.764,21.704c-0.216-0.002-0.426-0.006-0.646-0.006c-0.18,0-0.351,0.004-0.528,0.005
	c0.063-0.649,0.127-1.299,0.191-1.942c0.303,0.001,0.596,0.006,0.891,0.01C32.703,20.405,32.733,21.051,32.764,21.704z
	 M31.986,17.764c0.061-0.575,0.12-1.139,0.179-1.685c0.111,0,0.214,0.006,0.324,0.007c0.027,0.535,0.056,1.101,0.085,1.684
	C32.379,17.768,32.186,17.764,31.986,17.764z M32.382,14.084c0.001-0.009,0.002-0.019,0.003-0.028c0,0.01,0.001,0.02,0.001,0.028
	C32.385,14.084,32.383,14.084,32.382,14.084z M29.971,17.788c-0.36,0.011-0.716,0.023-1.065,0.039
	c0.146-0.591,0.294-1.152,0.446-1.682c0.255-0.015,0.533-0.013,0.795-0.022C30.088,16.664,30.029,17.221,29.971,17.788z
	 M26.795,17.969c-0.393,0.033-0.779,0.07-1.157,0.111c0.16-0.569,0.324-1.104,0.492-1.613c0.356-0.049,0.705-0.101,1.076-0.141
	C27.065,16.85,26.929,17.394,26.795,17.969z M23.47,18.36c-0.393,0.062-0.776,0.126-1.151,0.194
	c0.153-0.527,0.313-1.021,0.474-1.495c0.35-0.081,0.731-0.148,1.1-0.221C23.747,17.324,23.605,17.831,23.47,18.36z M20.095,19.023
	c-0.395,0.096-0.774,0.195-1.146,0.298c0.142-0.447,0.288-0.869,0.436-1.273c0.342-0.12,0.71-0.234,1.076-0.348
	C20.335,18.122,20.214,18.567,20.095,19.023z M19.584,21.24c-0.107,0.524-0.209,1.063-0.302,1.626
	c-0.453,0.092-0.885,0.188-1.307,0.285c0.106-0.537,0.223-1.043,0.343-1.539C18.722,21.484,19.145,21.36,19.584,21.24z
	 M15.835,23.704c-0.437,0.126-0.851,0.253-1.244,0.382c0.088-0.395,0.185-0.764,0.283-1.133c0.37-0.175,0.767-0.351,1.19-0.524
	C15.98,22.836,15.909,23.273,15.835,23.704z M15.515,25.915c-0.035,0.291-0.079,0.564-0.11,0.865
	c-0.472,0.118-0.919,0.236-1.338,0.356c0.033-0.262,0.07-0.517,0.108-0.769C14.589,26.217,15.036,26.066,15.515,25.915z
	 M15.244,28.896c-0.018,0.306-0.033,0.615-0.047,0.93c-0.491,0.075-0.954,0.15-1.388,0.226c0.013-0.259,0.03-0.508,0.048-0.759
	C14.282,29.16,14.748,29.028,15.244,28.896z M13.755,32.103c0.432-0.078,0.896-0.156,1.393-0.234c0,0.09-0.006,0.171-0.006,0.262
	c0,0.098,0.006,0.186,0.006,0.282c-0.57-0.087-1.028-0.17-1.391-0.245C13.757,32.145,13.755,32.125,13.755,32.103z M17.142,32.13
	c0-0.189,0.011-0.362,0.013-0.549c0.452-0.06,0.923-0.116,1.416-0.173c-0.003,0.232-0.008,0.459-0.008,0.694
	c0,0.238,0.005,0.467,0.007,0.701c-0.512-0.044-0.982-0.09-1.416-0.137C17.151,32.483,17.142,32.316,17.142,32.13z M18.618,34.813
	c0.013,0.334,0.03,0.661,0.048,0.985c-0.493-0.119-0.968-0.24-1.419-0.366c-0.016-0.254-0.037-0.492-0.049-0.752
	C17.638,34.726,18.11,34.771,18.618,34.813z M18.818,37.915c0.045,0.486,0.095,0.958,0.149,1.422
	c-0.487-0.131-0.952-0.266-1.398-0.403c-0.057-0.44-0.109-0.894-0.156-1.358C17.864,37.692,18.332,37.806,18.818,37.915z
	 M19.265,41.494c0.06,0.373,0.122,0.738,0.188,1.095c-0.463-0.135-0.906-0.273-1.33-0.416c-0.072-0.339-0.145-0.673-0.21-1.031
	C18.346,41.264,18.798,41.381,19.265,41.494z M21.374,41.951c0.436,0.083,0.887,0.161,1.348,0.235
	c0.072,0.422,0.148,0.834,0.229,1.235c-0.46-0.087-0.904-0.181-1.337-0.278C21.531,42.751,21.448,42.368,21.374,41.951z
	 M24.821,42.483c0.342,0.04,0.694,0.076,1.049,0.111c0.061,0.446,0.126,0.879,0.194,1.299c-0.331-0.038-0.656-0.079-0.975-0.123
	C24.998,43.351,24.905,42.929,24.821,42.483z M27.912,42.76c0.483,0.03,0.978,0.056,1.481,0.075
	c0.039,0.448,0.078,0.896,0.119,1.341c-0.473-0.022-0.936-0.05-1.389-0.084C28.05,43.663,27.979,43.219,27.912,42.76z
	 M31.408,42.883c0.203,0.002,0.4,0.007,0.606,0.007c0.281,0,0.552-0.006,0.827-0.009c-0.024,0.457-0.049,0.908-0.075,1.353
	c-0.188,0.002-0.372,0.007-0.564,0.007c-0.229,0-0.448-0.006-0.673-0.009C31.488,43.784,31.448,43.334,31.408,42.883z M32.202,46.24
	c0.151,0,0.296-0.004,0.446-0.005c-0.028,0.461-0.057,0.905-0.084,1.334c-0.052,0-0.098,0.003-0.149,0.003
	c-0.195,0-0.372-0.011-0.564-0.013c-0.044-0.435-0.088-0.876-0.131-1.325C31.881,46.235,32.038,46.24,32.202,46.24z M34.439,49.535
	c0.174-0.006,0.349-0.011,0.52-0.018c-0.216,0.619-0.428,1.17-0.636,1.671C34.356,50.726,34.396,50.171,34.439,49.535z
	 M34.573,47.524c0.027-0.429,0.056-0.875,0.084-1.336c0.443-0.018,0.877-0.039,1.303-0.065c-0.117,0.477-0.239,0.918-0.362,1.352
	C35.261,47.493,34.923,47.512,34.573,47.524z M38.075,45.955c0.259-0.026,0.509-0.057,0.761-0.087
	c-0.141,0.479-0.285,0.929-0.433,1.366c-0.222,0.025-0.437,0.054-0.665,0.077C37.854,46.876,37.966,46.427,38.075,45.955z
	 M41.023,45.562c0.332-0.055,0.659-0.112,0.978-0.172c-0.133,0.481-0.271,0.932-0.409,1.368c-0.304,0.06-0.635,0.109-0.953,0.163
	C40.771,46.486,40.898,46.03,41.023,45.562z M44.213,44.907c0.46-0.115,0.902-0.234,1.328-0.357
	c-0.127,0.464-0.258,0.897-0.391,1.316c-0.405,0.127-0.838,0.247-1.285,0.365C43.985,45.809,44.101,45.364,44.213,44.907z
	 M48.292,41.429c0.052-0.292,0.097-0.602,0.144-0.905c0.402-0.137,0.786-0.274,1.152-0.413c-0.065,0.285-0.14,0.546-0.209,0.818
	C49.042,41.095,48.678,41.262,48.292,41.429z M51.828,39.154c0.452-0.218,0.867-0.431,1.235-0.635
	c-0.256,0.237-0.688,0.603-1.315,1.035C51.773,39.42,51.803,39.291,51.828,39.154z M52.195,36.693
	c0.026-0.229,0.038-0.48,0.061-0.716c0.768-0.315,1.397-0.613,1.897-0.871c-0.017,0.116-0.029,0.233-0.048,0.35
	C53.796,35.7,53.172,36.15,52.195,36.693z M52.414,30.448c-0.002-0.063-0.003-0.126-0.005-0.188
	c0.383,0.156,0.729,0.304,1.017,0.437C53.124,30.617,52.79,30.534,52.414,30.448z M50.403,30.037
	c-0.433-0.079-0.896-0.157-1.39-0.235c-0.009-0.233-0.012-0.476-0.023-0.704c0.497,0.143,0.963,0.284,1.393,0.425
	C50.393,29.69,50.396,29.867,50.403,30.037z M48.83,26.961c-0.034-0.358-0.077-0.698-0.117-1.044
	c0.483,0.156,0.932,0.313,1.344,0.468c0.047,0.318,0.097,0.63,0.136,0.962C49.766,27.217,49.308,27.089,48.83,26.961z M48.4,23.71
	c-0.074-0.439-0.148-0.878-0.232-1.293c0.425,0.165,0.823,0.33,1.193,0.494c0.102,0.386,0.199,0.778,0.289,1.191
	C49.255,23.971,48.842,23.839,48.4,23.71z M45.318,19.369c-0.371-0.1-0.757-0.195-1.152-0.288c-0.131-0.515-0.267-1.013-0.406-1.485
	c0.367,0.105,0.728,0.212,1.067,0.322C44.995,18.376,45.159,18.857,45.318,19.369z M41.959,18.622
	c-0.299-0.055-0.601-0.108-0.911-0.158c-0.149-0.564-0.305-1.105-0.465-1.62c0.3,0.058,0.594,0.115,0.881,0.177
	C41.634,17.524,41.799,18.058,41.959,18.622z M38.861,18.158c-0.267-0.031-0.541-0.059-0.815-0.086
	c-0.136-0.586-0.277-1.143-0.423-1.673c0.239,0.027,0.476,0.057,0.708,0.087C38.513,17.013,38.689,17.569,38.861,18.158z
	 M35.927,17.895c-0.44-0.028-0.889-0.054-1.348-0.073c-0.028-0.584-0.058-1.149-0.085-1.688c0.338,0.017,0.647,0.049,0.974,0.07
	C35.625,16.735,35.778,17.299,35.927,17.895z M34.392,14.132c-0.022-0.43-0.043-0.826-0.063-1.183
	c0.151,0.369,0.304,0.77,0.459,1.198C34.659,14.141,34.522,14.138,34.392,14.132z M32.752,10.797
	c0.037-0.323,0.071-0.62,0.101-0.874c0.139,0.229,0.303,0.522,0.491,0.881C33.146,10.801,32.952,10.798,32.752,10.797z
	 M30.506,12.843c-0.046,0.405-0.093,0.831-0.142,1.274c-0.126,0.004-0.255,0.005-0.38,0.01c0.158-0.46,0.313-0.888,0.465-1.283
	C30.467,12.844,30.487,12.844,30.506,12.843z M27.803,14.267c-0.295,0.026-0.602,0.045-0.889,0.075
	c0.187-0.455,0.37-0.876,0.552-1.264c0.26-0.028,0.503-0.063,0.771-0.088C28.094,13.393,27.948,13.813,27.803,14.267z
	 M24.615,14.655c-0.332,0.056-0.648,0.117-0.968,0.179c0.197-0.459,0.392-0.883,0.582-1.269c0.283-0.057,0.579-0.107,0.877-0.159
	C24.942,13.801,24.777,14.214,24.615,14.655z M21.241,15.38c-0.274,0.072-0.559,0.141-0.822,0.217
	c0.221-0.457,0.437-0.869,0.644-1.239c0.219-0.067,0.437-0.134,0.668-0.199C21.566,14.543,21.403,14.948,21.241,15.38z
	 M17.83,16.472c-0.116,0.045-0.23,0.09-0.344,0.135c0.281-0.464,0.544-0.854,0.785-1.186C18.123,15.75,17.977,16.106,17.83,16.472z
	 M16.924,19.052c-0.099,0.323-0.195,0.651-0.289,0.994c-0.33,0.117-0.651,0.235-0.958,0.356c0.117-0.313,0.232-0.628,0.353-0.915
	C16.313,19.342,16.61,19.197,16.924,19.052z M13.161,21.544c-0.452,0.234-0.867,0.468-1.24,0.692
	c0.242-0.228,0.697-0.617,1.374-1.103C13.251,21.273,13.204,21.399,13.161,21.544z M12.378,24.892
	c-0.675,0.276-1.253,0.542-1.741,0.787c0.247-0.238,0.849-0.771,1.871-1.428C12.465,24.465,12.418,24.672,12.378,24.892z
	 M12.023,27.249c-0.02,0.178-0.031,0.37-0.05,0.552c-0.878,0.311-1.572,0.601-2.095,0.842c0.012-0.081,0.027-0.16,0.04-0.241
	C10.178,28.224,10.863,27.79,12.023,27.249z M11.799,30.434c-0.812,0.173-1.449,0.331-1.951,0.466
	c0.252-0.144,0.888-0.478,1.964-0.898C11.805,30.142,11.805,30.291,11.799,30.434z M11.766,32.5c0.003,0.297,0.016,0.581,0.024,0.87
	l-0.021,0.044c-0.467-0.227-0.881-0.44-1.214-0.628C10.888,32.701,11.302,32.604,11.766,32.5z M13.813,34.212
	c0.393,0.073,0.849,0.149,1.381,0.226c0.005,0.119,0.003,0.249,0.009,0.366c-0.495-0.168-0.958-0.336-1.388-0.504
	C13.813,34.271,13.813,34.24,13.813,34.212z M15.35,36.987c0.035,0.418,0.078,0.819,0.122,1.22c-0.47-0.182-0.908-0.364-1.316-0.546
	c-0.054-0.374-0.114-0.737-0.158-1.129C14.424,36.685,14.873,36.837,15.35,36.987z M15.772,40.471
	c0.047,0.293,0.094,0.584,0.145,0.866c-0.408-0.174-0.793-0.35-1.153-0.523c-0.063-0.258-0.127-0.514-0.186-0.782
	C14.955,40.18,15.357,40.325,15.772,40.471z M18.682,44.469c0.398,0.118,0.813,0.231,1.238,0.342
	c0.106,0.446,0.217,0.875,0.329,1.289c-0.408-0.11-0.799-0.223-1.174-0.339C18.94,45.351,18.81,44.923,18.682,44.469z
	 M22.119,45.311c0.424,0.084,0.859,0.164,1.307,0.239c0.113,0.454,0.229,0.896,0.349,1.319c-0.439-0.075-0.864-0.155-1.276-0.24
	C22.368,46.209,22.242,45.772,22.119,45.311z M25.599,45.859c0.278,0.033,0.555,0.067,0.842,0.097
	c0.093,0.455,0.188,0.898,0.287,1.318c-0.25-0.026-0.495-0.055-0.738-0.084C25.855,46.763,25.726,46.325,25.599,45.859z
	 M28.52,46.123c0.388,0.024,0.781,0.045,1.182,0.062c0.044,0.451,0.088,0.894,0.132,1.331c-0.348-0.016-0.667-0.046-1.004-0.067
	C28.724,47.028,28.62,46.585,28.52,46.123z M30.038,49.52c0.063,0.607,0.125,1.188,0.185,1.735
	c-0.063-0.002-0.135-0.002-0.198-0.004c-0.202-0.52-0.409-1.104-0.615-1.757C29.615,49.505,29.828,49.511,30.038,49.52z
	 M36.539,51.089c0.199-0.524,0.4-1.09,0.6-1.708c0.162-0.014,0.328-0.025,0.487-0.04c-0.262,0.635-0.521,1.192-0.774,1.709
	C36.744,51.062,36.648,51.078,36.539,51.089z M35.688,53.157c-0.035,0.057-0.075,0.125-0.109,0.179
	c0.028-0.06,0.057-0.115,0.085-0.177C35.673,53.158,35.681,53.157,35.688,53.157z M39.906,49.075c0.31-0.043,0.61-0.091,0.907-0.139
	c-0.239,0.598-0.477,1.136-0.706,1.615c-0.272,0.056-0.572,0.103-0.859,0.153C39.468,50.201,39.688,49.657,39.906,49.075z
	 M43.147,48.488c0.399-0.09,0.78-0.185,1.152-0.281c-0.202,0.488-0.402,0.943-0.595,1.339c-0.348,0.125-0.713,0.246-1.1,0.364
	C42.787,49.467,42.968,48.993,43.147,48.488z M51.729,42.537c-0.14,0.129-0.434,0.382-0.92,0.719
	c0.099-0.309,0.198-0.614,0.291-0.941c0.387-0.211,0.739-0.418,1.062-0.619C52.024,41.979,51.879,42.26,51.729,42.537z M53.451,38.3
	c0.005-0.003,0.011-0.006,0.016-0.009c-0.002,0.006-0.003,0.013-0.005,0.019L53.451,38.3z M52.268,28.045
	c-0.021-0.244-0.035-0.502-0.062-0.739c1.246,0.614,1.821,1.063,1.839,1.077l0.026-0.032c0.025,0.154,0.05,0.31,0.072,0.465
	C53.638,28.583,53.014,28.322,52.268,28.045z M51.869,24.938c-0.051-0.288-0.112-0.555-0.168-0.832
	c0.832,0.493,1.362,0.895,1.615,1.102c0.051,0.159,0.098,0.319,0.145,0.479C53.018,25.455,52.489,25.201,51.869,24.938z
	 M51.067,21.476c-0.07-0.24-0.146-0.459-0.22-0.689c0.45,0.316,0.744,0.559,0.888,0.686c0.083,0.155,0.162,0.314,0.242,0.473
	C51.696,21.791,51.393,21.635,51.067,21.476z M43.083,14.106c0.235,0.414,0.48,0.88,0.733,1.406
	c-0.266-0.071-0.545-0.138-0.822-0.206c-0.183-0.488-0.366-0.946-0.551-1.376C42.658,13.989,42.882,14.046,43.083,14.106z
	 M40.629,14.813c-0.266-0.048-0.523-0.099-0.798-0.142c-0.191-0.498-0.384-0.966-0.577-1.404c0.244,0.037,0.488,0.074,0.72,0.115
	C40.188,13.813,40.406,14.289,40.629,14.813z M37.518,14.365c-0.176-0.019-0.35-0.038-0.528-0.056
	c-0.161-0.483-0.323-0.938-0.484-1.361c0.122,0.01,0.256,0.015,0.375,0.025C37.09,13.399,37.302,13.859,37.518,14.365z
	 M35.633,10.882c-0.088-0.188-0.174-0.365-0.257-0.533c0.109,0.16,0.225,0.338,0.351,0.538
	C35.695,10.885,35.664,10.884,35.633,10.882z M29.05,10.931c-0.156,0.011-0.316,0.021-0.471,0.032
	c0.323-0.537,0.595-0.934,0.775-1.175c0.077-0.01,0.153-0.021,0.231-0.03C29.421,10.094,29.239,10.494,29.05,10.931z M26.123,11.222
	c-0.212,0.028-0.413,0.061-0.618,0.092c0.303-0.457,0.537-0.765,0.657-0.91c0.159-0.043,0.318-0.085,0.479-0.124
	C26.476,10.563,26.302,10.877,26.123,11.222z M22.856,11.813c-0.019,0.004-0.039,0.008-0.059,0.013
	c0.003-0.003,0.016-0.018,0.017-0.019l-0.139-0.139c0.115-0.053,0.23-0.105,0.347-0.157C22.968,11.608,22.912,11.711,22.856,11.813z
	 M9.654,30.892l0.033,0.051c-0.012,0.004-0.023,0.007-0.035,0.01C9.653,30.932,9.653,30.911,9.654,30.892z M11.919,35.711
	c0.024,0.286,0.043,0.581,0.072,0.858c-1.171-0.672-1.864-1.22-2.144-1.459c-0.021-0.148-0.039-0.297-0.057-0.445
	C10.358,34.979,11.063,35.336,11.919,35.711z M10.45,38.001c0.522,0.322,1.148,0.674,1.879,1.036
	c0.028,0.164,0.064,0.313,0.095,0.475c-1.052-0.676-1.691-1.229-1.967-1.486C10.455,38.017,10.452,38.009,10.45,38.001z
	 M13.045,42.214c0.101,0.363,0.204,0.711,0.312,1.052c-0.571-0.354-0.931-0.625-1.105-0.766c-0.182-0.34-0.354-0.686-0.518-1.036
	C12.128,41.707,12.563,41.958,13.045,42.214z M20.724,49.727c-0.245-0.464-0.504-1.013-0.767-1.619
	c0.322,0.084,0.644,0.168,0.984,0.247c0.202,0.587,0.407,1.132,0.612,1.635C21.26,49.904,20.992,49.815,20.724,49.727z
	 M23.247,48.817c0.395,0.068,0.789,0.137,1.204,0.198c0.218,0.627,0.439,1.211,0.66,1.751c-0.38-0.062-0.753-0.123-1.105-0.192
	C23.759,50.056,23.505,49.479,23.247,48.817z M26.705,49.291c0.19,0.019,0.375,0.04,0.568,0.058
	c0.187,0.637,0.376,1.228,0.565,1.764c-0.136-0.013-0.256-0.03-0.389-0.043C27.206,50.532,26.956,49.95,26.705,49.291z
	 M28.656,53.17c0.159,0.356,0.313,0.679,0.457,0.961c-0.167-0.25-0.37-0.579-0.596-0.971C28.563,53.163,28.609,53.167,28.656,53.17z
	 M32.583,54.359c-0.036-0.312-0.077-0.67-0.122-1.07c0.309-0.002,0.598-0.015,0.896-0.021c-0.273,0.513-0.49,0.867-0.636,1.088
	C32.676,54.357,32.629,54.358,32.583,54.359z M38.255,10.522c0.12,0.157,0.275,0.377,0.452,0.64
	c-0.171-0.021-0.34-0.044-0.515-0.064c-0.138-0.252-0.271-0.487-0.402-0.707C37.946,10.432,38.101,10.478,38.255,10.522z
	 M25.7,53.465c-0.107-0.138-0.261-0.352-0.454-0.646c0.273,0.04,0.563,0.074,0.85,0.109c0.137,0.271,0.271,0.523,0.4,0.759
	C26.229,53.619,25.964,53.543,25.7,53.465z"/>
</svg>
