<?xml version="1.0" encoding="utf-8"?>
<!-- Generator: Adobe Illustrator 16.0.0, SVG Export Plug-In . SVG Version: 6.00 Build 0)  -->
<!DOCTYPE svg PUBLIC "-//W3C//DTD SVG 1.1//EN" "http://www.w3.org/Graphics/SVG/1.1/DTD/svg11.dtd">
<svg version="1.1" id="Layer_1" xmlns="http://www.w3.org/2000/svg" xmlns:xlink="http://www.w3.org/1999/xlink" x="0px" y="0px"
	 width="64px" height="64px" viewBox="0 0 64 64" enable-background="new 0 0 64 64" xml:space="preserve">
<g>
	<path d="M32,15.793c-2.75,0.379-5.123,3.213-6.47,7.287c1.939,0.584,4.137,0.936,6.47,0.994V15.793z"/>
	<path d="M32,45.793v-8.281c-2.335,0.059-4.533,0.41-6.474,0.996C26.873,42.582,29.249,45.414,32,45.793z"/>
	<path d="M32,32h-7.625c0.082,1.865,0.353,3.633,0.776,5.244c2.066-0.635,4.388-1.018,6.85-1.076V32z"/>
	<path d="M32,25.418c-2.459-0.059-4.779-0.441-6.843-1.074c-0.504,1.918-0.798,4.051-0.81,6.311H32V25.418z"/>
	<path d="M27.893,16.531c-2.635,0.891-4.942,2.5-6.695,4.59c0.895,0.588,1.932,1.107,3.084,1.539
		C25.143,20.109,26.39,17.984,27.893,16.531z"/>
	<path d="M23.9,23.914c-1.299-0.49-2.474-1.086-3.49-1.766c-1.696,2.412-2.711,5.342-2.74,8.506h5.336
		C23.018,28.248,23.34,25.969,23.9,23.914z"/>
	<path d="M24.281,38.928c-1.15,0.43-2.186,0.949-3.079,1.535c1.753,2.09,4.056,3.701,6.691,4.592
		C26.39,43.602,25.141,41.477,24.281,38.928z"/>
	<path d="M44.93,22.148c-1.034,0.693-2.232,1.297-3.56,1.793c0.556,2.047,0.875,4.318,0.887,6.713h5.413
		C47.642,27.49,46.626,24.563,44.93,22.148z"/>
	<path d="M23.033,32H17.72c0.219,2.756,1.187,5.299,2.691,7.438c1.015-0.68,2.19-1.275,3.489-1.766
		C23.423,35.924,23.119,34.014,23.033,32z"/>
	<path d="M47.622,32h-5.393c-0.085,2.004-0.388,3.904-0.86,5.645c1.329,0.496,2.528,1.102,3.562,1.795
		C46.436,37.301,47.402,34.756,47.622,32z"/>
	<path d="M33.341,36.168c2.433,0.059,4.729,0.432,6.777,1.055c0.42-1.607,0.689-3.367,0.771-5.223h-7.548V36.168z"/>
	<path d="M33.341,45.783c2.723-0.422,5.07-3.248,6.402-7.297c-1.923-0.572-4.096-0.918-6.402-0.975V45.783z"/>
	<path d="M44.14,40.463c-0.911-0.598-1.971-1.125-3.149-1.561c-0.868,2.586-2.137,4.734-3.663,6.193
		C40.014,44.213,42.359,42.584,44.14,40.463z"/>
	<path d="M44.143,21.121c-1.781-2.121-4.129-3.748-6.814-4.631c1.526,1.459,2.792,3.609,3.661,6.195
		C42.169,22.248,43.23,21.721,44.143,21.121z"/>
	<path d="M33.341,15.803v8.271c2.306-0.057,4.477-0.402,6.399-0.975C38.407,19.053,36.063,16.225,33.341,15.803z"/>
	<path d="M33.341,30.654h7.575c-0.012-2.25-0.303-4.377-0.804-6.289c-2.046,0.621-4.34,0.994-6.771,1.053V30.654z"/>
	<path d="M32.602,10.09c6.39,0,12.095,2.967,15.825,7.592l-2.45,1.729l7.705,2.631l-0.8-7.504l-2.158,1.521
		c-4.243-5.342-10.785-8.779-18.122-8.779c-3.613,0-7.035,0.832-10.085,2.314l0.898,2.697C26.177,10.887,29.297,10.09,32.602,10.09z
		"/>
	<path d="M52.779,35.643c-0.707,3.018-2.109,5.918-4.239,8.443c-4.121,4.883-10.067,7.33-16.007,7.201l0.258-2.986l-6.978,4.193
		l6.252,4.227l0.227-2.633c6.819,0.201,13.666-2.582,18.396-8.191c2.33-2.762,3.898-5.914,4.732-9.201L52.779,35.643z"/>
	<path d="M12.911,38.699c-2.426-5.912-1.848-12.316,1.014-17.523l2.53,1.609l-0.493-8.125l-6.638,3.588l2.229,1.42
		c-3.332,5.953-4.028,13.311-1.241,20.098c1.372,3.344,3.443,6.191,5.972,8.451l2.154-1.855
		C16.088,44.34,14.166,41.756,12.911,38.699z"/>
</g>
</svg>
