<?xml version="1.0" encoding="utf-8"?>
<!-- Generator: Adobe Illustrator 16.0.0, SVG Export Plug-In . SVG Version: 6.00 Build 0)  -->
<!DOCTYPE svg PUBLIC "-//W3C//DTD SVG 1.1//EN" "http://www.w3.org/Graphics/SVG/1.1/DTD/svg11.dtd">
<svg version="1.1" id="Layer_1" xmlns="http://www.w3.org/2000/svg" xmlns:xlink="http://www.w3.org/1999/xlink" x="0px" y="0px"
	 width="64px" height="64px" viewBox="0 0 64 64" enable-background="new 0 0 64 64" xml:space="preserve">
<g>
	<path d="M17.409,33.729c0-2.66,0.771-5.135,2.084-7.236c-0.551-0.942-1.237-1.879-2.067-2.587
		c-2.561-2.181-4.124,7.171-4.124,7.171l-3.137,0.251L9.222,19.537l18.012-1.44l0.196,2.454c0.528-0.146,1.07-0.259,1.622-0.342
		l-0.303-3.794c-0.02-0.24-0.23-0.422-0.473-0.402L7.497,17.673c-0.244,0.02-0.423,0.232-0.404,0.473L8.53,36.125
		c0.02,0.242,0.231,0.425,0.474,0.405l8.584-0.687C17.481,35.153,17.409,34.45,17.409,33.729z"/>
	<path d="M26.708,44.375c-0.127-0.049-0.257-0.093-0.382-0.146c-0.202-0.231-0.878-1.075-1.539-2.63
		c0.583,0.152,1.228,0.285,1.921,0.396v-1.047c-0.886-0.152-1.684-0.342-2.375-0.555c-0.339-1.028-0.633-2.279-0.81-3.758
		c0.923,0.212,1.988,0.394,3.185,0.528v-1.037c-1.252-0.147-2.356-0.347-3.287-0.576c-0.043-0.593-0.074-1.207-0.074-1.867
		c0-0.45,0.012-0.884,0.032-1.303c1.082-0.277,2.386-0.523,3.922-0.684c-0.03,0.618-0.052,1.256-0.052,1.934
		c0,0.863,0.03,1.667,0.078,2.427h1.032c-0.051-0.759-0.084-1.559-0.084-2.427c0-0.714,0.025-1.381,0.06-2.026
		c0.829-0.06,1.712-0.097,2.664-0.097c0.733,0,1.413,0.025,2.068,0.063c0.042,0.704,0.071,1.436,0.071,2.224
		c0,0.214-0.008,0.412-0.011,0.618h1.027c0.003-0.206,0.01-0.405,0.01-0.618c0-0.76-0.026-1.468-0.064-2.153
		c1.663,0.146,3.055,0.394,4.19,0.682c0.018,0.401,0.03,0.813,0.03,1.244c0,0.291-0.008,0.57-0.018,0.846h0.11v1.646h1.646
		c0.959-0.334,1.668-0.671,2.138-0.933c-0.04,0.315-0.095,0.626-0.16,0.933h1.046c0.15-0.773,0.235-1.57,0.235-2.388
		c0-4.97-2.917-9.271-7.128-11.284c-0.024-0.026-0.043-0.048-0.051-0.055l-0.022,0.021c-1.61-0.757-3.406-1.183-5.3-1.183
		c-0.278,0-0.553,0.013-0.826,0.03l0-0.001l0,0.001c-6.508,0.428-11.672,5.855-11.672,12.47c0,5.452,3.514,10.088,8.392,11.792
		V44.375z M27.362,30.658c-1.504,0.146-2.807,0.372-3.904,0.635c0.147-1.604,0.43-2.953,0.765-4.063
		c1.027-0.318,2.275-0.593,3.751-0.753C27.711,27.657,27.488,29.038,27.362,30.658z M30.999,30.481
		c-0.925,0-1.783,0.036-2.596,0.091c0.138-1.636,0.375-3.028,0.65-4.187c0.547-0.035,1.112-0.06,1.717-0.06
		c0.541,0,1.052,0.019,1.547,0.047c0.282,1.145,0.526,2.531,0.673,4.16C32.359,30.5,31.698,30.481,30.999,30.481z M34.03,30.6
		c-0.135-1.607-0.364-2.981-0.632-4.146c1.631,0.164,2.988,0.47,4.098,0.819c0.317,1.087,0.583,2.4,0.72,3.966
		C37.055,30.964,35.668,30.732,34.03,30.6z M39.294,35.22c0.03-0.53,0.051-1.076,0.051-1.654c0-0.329-0.013-0.639-0.023-0.952
		c1.591,0.496,2.533,1.021,2.925,1.271C42.018,34.046,41.082,34.647,39.294,35.22z M42.247,32.691
		c-0.623-0.337-1.599-0.777-2.982-1.178c-0.106-1.461-0.317-2.73-0.587-3.815c1.76,0.712,2.622,1.444,2.719,1.531
		C41.852,30.309,42.144,31.474,42.247,32.691z M40.384,27.345c-0.546-0.289-1.23-0.598-2.059-0.886
		c-0.278-0.856-0.582-1.566-0.875-2.144C38.604,25.137,39.601,26.164,40.384,27.345z M35.558,23.224
		c0.286,0.353,0.941,1.27,1.543,2.857c-1.116-0.303-2.435-0.549-3.969-0.678c-0.407-1.457-0.854-2.495-1.19-3.153
		C33.22,22.376,34.436,22.713,35.558,23.224z M30.577,22.201c0.054,0,0.108-0.003,0.163-0.004c0.25,0.421,0.788,1.444,1.293,3.134
		c-0.409-0.018-0.826-0.03-1.262-0.03c-0.499,0-0.979,0.013-1.441,0.035C29.79,23.748,30.289,22.717,30.577,22.201z M26.197,23.169
		c0.993-0.438,2.058-0.739,3.173-0.88c-0.337,0.689-0.757,1.722-1.137,3.128c-1.377,0.126-2.576,0.346-3.601,0.617
		C25.29,24.343,25.987,23.421,26.197,23.169z M24.306,24.228c-0.301,0.58-0.618,1.305-0.911,2.186
		c-0.869,0.3-1.579,0.621-2.141,0.924C22.065,26.117,23.103,25.061,24.306,24.228z M20.241,29.219l0.019,0.019
		c0.016-0.016,0.879-0.821,2.767-1.581c-0.284,1.106-0.505,2.413-0.619,3.911c-1.405,0.406-2.4,0.848-3.024,1.173
		C19.483,31.501,19.777,30.317,20.241,29.219z M19.35,33.94c0.369-0.226,1.351-0.758,2.997-1.269
		c-0.012,0.332-0.024,0.662-0.024,1.012c0,0.551,0.019,1.073,0.048,1.58c-1.557-0.467-2.546-0.959-3.019-1.229
		C19.351,34.002,19.35,33.971,19.35,33.94z M19.454,35.252c0.663,0.327,1.65,0.737,3.001,1.114c0.141,1.379,0.383,2.571,0.672,3.6
		c-1.588-0.632-2.469-1.289-2.733-1.507C19.933,37.458,19.611,36.382,19.454,35.252z M21.519,40.38
		c0.545,0.278,1.214,0.567,2.013,0.839c0.283,0.778,0.583,1.429,0.869,1.959C23.284,42.421,22.309,41.472,21.519,40.38z"/>
	<g>
		<path d="M29.055,37.893l-0.146,17.438h25.638l0.145-17.438H29.055z M38.194,53.71c-3.83,0-6.934-3.104-6.934-6.936
			c0-3.832,3.104-6.935,6.934-6.935c3.831,0,6.935,3.103,6.935,6.935C45.129,50.606,42.025,53.71,38.194,53.71z M51.762,41.516
			h-2.226c-0.664,0-1.202-0.538-1.202-1.198c0-0.665,0.538-1.202,1.202-1.202h2.226c0.66,0,1.199,0.537,1.199,1.202
			C52.961,40.978,52.422,41.516,51.762,41.516z"/>
		<rect x="31.481" y="36.09" width="5.257" height="1.908"/>
		<path d="M42.892,46.773c0,2.64-2.136,4.771-4.77,4.771c-2.636,0-4.77-2.132-4.77-4.771c0-2.634,2.134-4.77,4.77-4.77
			C40.755,42.003,42.892,44.139,42.892,46.773z"/>
	</g>
	<path d="M12.342,23.04c0.082,0,0.161-0.007,0.238-0.017h2.534v-0.016c0.601-0.073,1.058-0.438,1.058-0.88
		c0-0.495-0.572-0.896-1.277-0.896c0,0-0.001,0-0.002,0c-0.013-0.486-0.577-0.879-1.274-0.879c-0.705,0-1.276,0.401-1.276,0.896
		c-0.705,0-1.277,0.401-1.277,0.896S11.637,23.04,12.342,23.04z M13.618,22.144c0.001,0,0.001,0,0.002,0c0,0.002,0,0.003,0,0.005
		h-0.004C13.617,22.147,13.618,22.146,13.618,22.144z"/>
	<path d="M20.031,23.04c0.082,0,0.161-0.007,0.238-0.017h2.534v-0.016c0.601-0.073,1.058-0.438,1.058-0.88
		c0-0.495-0.572-0.896-1.277-0.896c0,0-0.001,0-0.001,0c-0.014-0.486-0.578-0.879-1.275-0.879c-0.705,0-1.276,0.401-1.276,0.896
		c-0.705,0-1.277,0.401-1.277,0.896S19.326,23.04,20.031,23.04z M21.308,22.144c0.001,0,0.001,0,0.002,0c0,0.002,0,0.003,0,0.005
		h-0.004C21.307,22.147,21.308,22.146,21.308,22.144z"/>
	<path d="M19.567,48.208c-0.6-0.478-1.071-0.979-1.41-1.473l2.528,0.022c0,0-4.546-7.651-4.583-9.332
		c-0.036-1.679-5.398,9.245-5.398,9.245l3.072,0.026c0.433,1.648,1.544,3.242,3.3,4.641c2.48,1.974,6.286,3.52,10.735,3.993v-4.026
		C24.421,50.89,21.499,49.746,19.567,48.208z"/>
	<path d="M49.469,35.652c-0.497-2.453-2.336-3.921-4.736-3.919l0.058,4c0.355-0.013,0.612-0.009,0.758,0.713
		c0.006,0.031,0.006,0.07,0.012,0.104h4.027C49.565,36.242,49.528,35.941,49.469,35.652z"/>
	<path fill-rule="evenodd" clip-rule="evenodd" d="M55.941,21.453c-1.528-1.562-4.219-2.888-6.564-2.307
		c-0.688,0.073-1.507,0.039-2.051-0.088c-1.344-0.313,1.626-1.265,1.886-1.331c0.585-0.15,1.171-0.107,1.72,0.026
		c0.424,0.099,0.459-0.308,0.018-0.311c-0.538-0.001-0.998,0.016-1.553,0.157c-0.447,0.109-0.944,0.28-1.417,0.444
		c-0.564,0.19-0.415,0.055-0.862,0.276c0.206-0.451,0.083-0.332,0.265-0.917c0.144-0.464,0.293-0.948,0.387-1.384
		c0.124-0.559,0.126-1.018,0.11-1.557c-0.017-0.442-0.423-0.392-0.309,0.026c0.148,0.544,0.207,1.128,0.075,1.718
		c-0.057,0.262-0.921,3.26-1.274,1.926c-0.142-0.54-0.2-1.359-0.152-2.05c0.514-2.358-0.892-5.009-2.5-6.487
		c-0.622-0.576-1.386-0.927-1.386-0.927s-2.256,5.718-1.95,5.861c-0.197,0.759,1.326,3.021,1.326,3.021
		c-0.636,0.065-1.53-0.069-2.389,0.296c-0.516,0.223-1.02,0.627-1.45,1.372c-0.182,0.318-0.323,0.589-0.396,0.861
		c-0.053,0.204-0.206,1.237,0.312,1.62c0.518,0.385,1.707,1.432,2.739,1.148c1.029-0.284,2.348-0.753,2.348-0.753
		s-0.428,0.598-0.904,0.932c-0.344,0.243-1.221,1.178-0.867,1.49c0.353,0.317,1.233-0.56,1.465-0.912
		c0.318-0.488,0.904-0.932,0.904-0.932s-0.429,1.335-0.683,2.37c-0.252,1.038,0.608,2.245,1.228,2.704
		c0.619,0.458,1.431,0.32,1.63,0.26c0.272-0.079,0.539-0.229,0.849-0.42c0.73-0.45,1.121-0.97,1.327-1.489
		c0.346-0.872,0.179-1.761,0.222-2.397c0,0,2.311,1.453,3.061,1.235c0.154,0.3,5.803-2.129,5.803-2.129S56.531,22.057,55.941,21.453
		z"/>
</g>
</svg>
