<?xml version="1.0" encoding="utf-8"?>
<!-- Generator: Adobe Illustrator 16.0.0, SVG Export Plug-In . SVG Version: 6.00 Build 0)  -->
<!DOCTYPE svg PUBLIC "-//W3C//DTD SVG 1.1//EN" "http://www.w3.org/Graphics/SVG/1.1/DTD/svg11.dtd">
<svg version="1.1" id="Layer_1" xmlns="http://www.w3.org/2000/svg" xmlns:xlink="http://www.w3.org/1999/xlink" x="0px" y="0px"
	 width="64px" height="64px" viewBox="0 0 64 64" enable-background="new 0 0 64 64" xml:space="preserve">
<g>
	<path d="M27.814,31.772c0,2.308,1.879,4.186,4.186,4.186c2.309,0,4.186-1.878,4.186-4.186S34.309,27.588,32,27.588
		C29.693,27.588,27.814,29.465,27.814,31.772z"/>
	<path d="M37.717,32.284c-0.945,1.565-1.891,3.13-2.838,4.693h-5.758c-0.945-1.564-1.891-3.129-2.838-4.693
		c-0.648-1.078-2.469-0.279-1.811,0.808c1.145,1.89,2.285,3.779,3.428,5.67c0.191,0.314,0.48,0.466,0.777,0.5v5.688
		c0,0.005-0.002,0.009-0.002,0.015c0,3.498,0,6.999,0,10.499c0,1.801,2.793,1.801,2.793,0c0-2.791,0-5.581,0-8.371h1.283
		c0,2.79,0,5.58,0,8.371c0,1.801,2.793,1.801,2.793,0c0-2.791,0-5.581,0-8.371c0-0.709,0-1.419,0-2.128v-5.753
		c0.215-0.073,0.412-0.215,0.555-0.449c1.143-1.892,2.285-3.78,3.426-5.67C40.186,32.005,38.367,31.206,37.717,32.284z"/>
	<path d="M24.979,22.168c1.668,1.999,4.17,3.279,6.969,3.296c0.01,0,0.021,0.001,0.031,0.001c0.002,0,0.006-0.001,0.008-0.001
		c0.004,0,0.01,0.001,0.014,0.001c2.818,0,5.344-1.283,7.021-3.297c0.154-0.185,0.299-0.376,0.439-0.572
		c1.055-1.491,1.678-3.309,1.678-5.271c0-1.961-0.623-3.778-1.678-5.27c-0.141-0.196-0.285-0.388-0.439-0.572
		C37.344,8.47,34.818,7.186,32,7.186c-0.004,0-0.01,0-0.014,0c-0.002,0-0.006,0-0.008,0c-0.01,0-0.021,0.001-0.031,0.001
		c-2.799,0.016-5.301,1.296-6.969,3.296c-0.152,0.185-0.299,0.376-0.438,0.573c-1.057,1.49-1.68,3.307-1.68,5.269
		c0,1.963,0.623,3.78,1.68,5.271C24.68,21.791,24.826,21.983,24.979,22.168z M34.605,24.299c0.852-0.813,1.563-2.011,2.047-3.453
		c0.658,0.244,1.252,0.538,1.762,0.871C37.418,22.899,36.105,23.807,34.605,24.299z M38.855,21.146
		c-0.578-0.387-1.248-0.725-1.99-1.001c0.264-0.97,0.432-2.03,0.48-3.146h3.016C40.238,18.534,39.697,19.953,38.855,21.146z
		 M40.387,16.247h-3.025c-0.008-1.335-0.186-2.601-0.496-3.742c0.742-0.276,1.412-0.613,1.99-0.999
		C39.805,12.852,40.371,14.483,40.387,16.247z M38.414,10.933c-0.51,0.334-1.104,0.628-1.762,0.872
		c-0.486-1.441-1.195-2.64-2.047-3.453C36.105,8.843,37.42,9.75,38.414,10.933z M32.375,7.968c1.523,0.235,2.832,1.812,3.578,4.068
		c-1.074,0.318-2.289,0.511-3.578,0.542V7.968z M32.375,13.328c1.359-0.032,2.643-0.24,3.787-0.587
		c0.279,1.066,0.441,2.252,0.449,3.506h-4.236V13.328z M32.375,16.998h4.221c-0.047,1.034-0.197,2.016-0.432,2.912
		c-1.145-0.347-2.428-0.556-3.789-0.589V16.998z M32.375,20.071c1.289,0.031,2.504,0.225,3.58,0.543
		c-0.746,2.257-2.057,3.832-3.58,4.067V20.071z M25.588,21.717c0.498-0.327,1.078-0.616,1.721-0.856
		c0.48,1.422,1.18,2.605,2.02,3.416C27.855,23.779,26.568,22.882,25.588,21.717z M31.625,24.688
		c-1.539-0.211-2.867-1.79-3.619-4.063c1.084-0.326,2.314-0.522,3.619-0.555V24.688z M31.625,19.321
		c-1.377,0.033-2.674,0.247-3.83,0.601c-0.236-0.898-0.389-1.884-0.434-2.924h4.264V19.321z M31.625,16.247h-4.279
		c0.008-1.259,0.172-2.448,0.453-3.518c1.154,0.354,2.451,0.566,3.826,0.599V16.247z M31.625,7.962v4.616
		c-1.305-0.031-2.533-0.228-3.617-0.553C28.762,9.753,30.086,8.173,31.625,7.962z M29.328,8.374c-0.84,0.81-1.537,1.994-2.018,3.417
		c-0.645-0.241-1.227-0.531-1.725-0.858C26.566,9.767,27.855,8.87,29.328,8.374z M25.145,11.506c0.568,0.38,1.225,0.711,1.951,0.983
		c-0.313,1.146-0.492,2.417-0.5,3.758h-2.984C23.629,14.483,24.197,12.851,25.145,11.506z M26.611,16.998
		c0.049,1.122,0.219,2.188,0.484,3.162c-0.727,0.273-1.383,0.605-1.951,0.985c-0.84-1.193-1.381-2.611-1.504-4.147H26.611z"/>
</g>
</svg>
