<?xml version="1.0" encoding="utf-8"?>
<!-- Generator: Adobe Illustrator 16.0.0, SVG Export Plug-In . SVG Version: 6.00 Build 0)  -->
<!DOCTYPE svg PUBLIC "-//W3C//DTD SVG 1.1//EN" "http://www.w3.org/Graphics/SVG/1.1/DTD/svg11.dtd">
<svg version="1.1" id="Layer_1" xmlns="http://www.w3.org/2000/svg" xmlns:xlink="http://www.w3.org/1999/xlink" x="0px" y="0px"
	 width="64px" height="64px" viewBox="0 0 64 64" enable-background="new 0 0 64 64" xml:space="preserve">
<g>
	<path d="M24.876,10.797c-3.93,1.324-7.369,3.715-9.984,6.822c1.334,0.873,2.881,1.646,4.6,2.289
		C20.774,16.115,22.635,12.957,24.876,10.797z"/>
	<path d="M18.922,21.773c-1.938-0.729-3.689-1.613-5.204-2.627c-2.529,3.588-4.043,7.943-4.086,12.648h7.957
		C17.606,28.217,18.086,24.828,18.922,21.773z"/>
	<path d="M14.897,46.379c2.615,3.105,6.049,5.502,9.979,6.826c-2.241-2.162-4.104-5.318-5.387-9.111
		C17.774,44.736,16.23,45.506,14.897,46.379z"/>
	<path d="M46.296,31.795h8.072c-0.043-4.705-1.557-9.059-4.086-12.646c-1.542,1.029-3.329,1.928-5.309,2.664
		C45.803,24.857,46.278,28.232,46.296,31.795z"/>
	<path d="M17.628,33.795H9.705c0.327,4.098,1.771,7.879,4.013,11.059c1.514-1.012,3.266-1.896,5.203-2.625
		C18.211,39.631,17.757,36.789,17.628,33.795z"/>
	<path d="M44.973,42.188c1.981,0.736,3.77,1.637,5.312,2.668c2.243-3.18,3.685-6.963,4.012-11.061h-8.041
		C46.127,36.773,45.677,39.6,44.973,42.188z"/>
	<path d="M38.946,53.266c4.004-1.313,7.502-3.732,10.157-6.887c-1.358-0.889-2.938-1.672-4.695-2.322
		C43.114,47.902,41.222,51.096,38.946,53.266z"/>
	<path d="M49.107,17.619c-2.655-3.152-6.157-5.572-10.161-6.883c2.275,2.168,4.164,5.365,5.459,9.209
		C46.165,19.295,47.747,18.512,49.107,17.619z"/>
	<circle cx="31.485" cy="31.038" r="4.05"/>
	<path d="M37.549,40.373c1.948,0.27,3.817,0.66,5.556,1.188c0.626-2.389,1.028-5.006,1.149-7.766h-2.094
		C41.496,36.453,39.867,38.838,37.549,40.373z"/>
	<path d="M43.097,22.443c-1.227,0.371-2.528,0.666-3.864,0.912c1.873,1.852,3.094,4.367,3.256,7.182
		c0.024,0.422,0.012,0.842-0.013,1.258h1.82C44.278,28.449,43.844,25.287,43.097,22.443z"/>
	<path d="M42.542,20.563C40.555,14.545,37.06,10.34,33,9.713v10.559c1.463,0.203,2.835,0.691,4.061,1.414
		C38.991,21.438,40.838,21.068,42.542,20.563z"/>
	<path d="M26.086,21.582c1.419-0.803,3.031-1.313,4.767-1.412c0.049-0.004,0.098-0.002,0.147-0.004V9.697
		c-4.102,0.564-7.64,4.777-9.648,10.836C22.836,20.979,24.424,21.33,26.086,21.582z"/>
	<path d="M20.796,22.41c-0.752,2.854-1.19,6.025-1.207,9.385h0.892c-0.189-3.357,1.157-6.451,3.424-8.607
		C22.836,22.965,21.79,22.715,20.796,22.41z"/>
	<path d="M20.786,41.594c1.523-0.467,3.141-0.84,4.83-1.111c-2.423-1.525-4.139-3.918-4.815-6.688h-1.171
		C19.751,36.566,20.155,39.195,20.786,41.594z"/>
	<path d="M29.646,45.113c-0.133-0.197-1.04-1.514-2.119-2.867c-2.188,0.246-4.273,0.652-6.18,1.225
		c2.008,6.059,5.551,10.27,9.653,10.832v-7.189l-0.376-0.555L29.646,45.113z"/>
	<path d="M33,44.143l0.127-0.229c0.01-0.018,0.462-0.83,1.055-1.857l0,0c0.584-1.012,1.305-2.23,1.875-3.104
		c2.895-1.705,4.628-4.934,4.434-8.301c-0.285-4.941-4.522-8.762-9.529-8.486c-4.966,0.289-8.773,4.563-8.486,9.529
		c0.195,3.355,2.192,6.275,5.233,7.676c0.773,0.84,1.56,1.836,2.2,2.688c0.102,0.135,0.199,0.266,0.293,0.393
		c0.034,0.045,0.067,0.09,0.1,0.135c0.062,0.084,0.122,0.166,0.179,0.244c0.031,0.043,0.062,0.086,0.092,0.127
		c0.067,0.094,0.131,0.184,0.19,0.266c0.01,0.014,0.021,0.029,0.031,0.043c0.075,0.107,0.145,0.205,0.205,0.291l0,0
		c0.188,0.266,0.299,0.43,0.303,0.436l0.978,1.445L33,44.143L33,44.143z M32.089,41.395c-0.764-1.045-1.871-2.484-2.961-3.646
		l-0.153-0.164l-0.205-0.088c-2.41-1.035-4-3.307-4.152-5.924c-0.219-3.787,2.683-7.047,6.469-7.266
		c0.135-0.008,0.271-0.012,0.405-0.012c3.637,0,6.649,2.848,6.859,6.482c0.152,2.637-1.246,5.16-3.562,6.432l-0.229,0.125
		l-0.146,0.219C33.711,38.604,32.763,40.219,32.089,41.395z"/>
	<path d="M36.394,42.236c-0.523,0.889-1.063,1.836-1.518,2.648l-0.847,1.523L33,48.262v6.025c4.06-0.627,7.56-4.828,9.547-10.848
		C40.646,42.877,38.571,42.477,36.394,42.236z"/>
</g>
</svg>
