<?xml version="1.0" encoding="utf-8"?>
<!-- Generator: Adobe Illustrator 16.0.0, SVG Export Plug-In . SVG Version: 6.00 Build 0)  -->
<!DOCTYPE svg PUBLIC "-//W3C//DTD SVG 1.1//EN" "http://www.w3.org/Graphics/SVG/1.1/DTD/svg11.dtd">
<svg version="1.1" id="Layer_1" xmlns="http://www.w3.org/2000/svg" xmlns:xlink="http://www.w3.org/1999/xlink" x="0px" y="0px"
	 width="64px" height="64px" viewBox="0 0 64 64" enable-background="new 0 0 64 64" xml:space="preserve">
<g>
	<path d="M49.545,28.058c0-10.475-8.521-18.997-18.998-18.997c-0.4,0-0.797,0.017-1.191,0.041v2.406
		c0.395-0.028,0.789-0.061,1.191-0.061c9.16,0,16.611,7.452,16.611,16.611c0,9.159-7.451,16.61-16.611,16.61
		c-0.268,0-0.529-0.027-0.795-0.04v0.897v1.509v4.722h-5.898v3.182h13.389v-3.182h-5.104v-4.774
		C41.871,46.171,49.545,37.997,49.545,28.058z"/>
	<path d="M27.594,43.294c0.611,0.076,1.23,0.119,1.861,0.119c0.633,0,1.254-0.043,1.863-0.12c1.756-0.975,3.279-3.282,4.289-6.341
		c-1.895,0.383-3.967,0.594-6.152,0.594c-2.184,0-4.254-0.211-6.15-0.594C24.314,40.012,25.838,42.319,27.594,43.294z"/>
	<path d="M21.445,35.139c-0.461-2.048-0.717-4.318-0.717-6.726c0-2.071,0.189-4.042,0.535-5.856
		c-3.283,1.022-5.758,2.625-6.742,4.483c-0.041,0.453-0.066,0.91-0.066,1.374c0,0.821,0.07,1.626,0.195,2.412
		C15.73,32.62,18.205,34.16,21.445,35.139z"/>
	<path d="M29.455,20.092c2.287,0,4.451,0.23,6.416,0.647c-0.996-3.485-2.635-6.141-4.553-7.206c-0.609-0.076-1.23-0.12-1.863-0.12
		c-0.631,0-1.25,0.043-1.861,0.119c-1.918,1.065-3.557,3.721-4.553,7.207C25.008,20.322,27.17,20.092,29.455,20.092z"/>
	<path d="M36.025,35.525c0.557-2.142,0.875-4.566,0.875-7.112c0-2.21-0.242-4.327-0.668-6.249c-2.059-0.503-4.363-0.79-6.777-0.79
		s-4.717,0.287-6.775,0.789c-0.426,1.922-0.668,4.039-0.668,6.249c0,2.547,0.318,4.971,0.875,7.112
		c2.006,0.472,4.236,0.738,6.568,0.738C31.789,36.264,34.021,35.997,36.025,35.525z"/>
	<path d="M44.455,28.414c0-0.463-0.023-0.921-0.064-1.374c-0.984-1.857-3.457-3.46-6.74-4.482c0.346,1.814,0.533,3.785,0.533,5.855
		c0,2.407-0.256,4.678-0.717,6.726c3.238-0.979,5.713-2.519,6.793-4.313C44.387,30.04,44.455,29.235,44.455,28.414z"/>
	<path d="M43.555,33.546c-1.58,1.305-3.809,2.363-6.465,3.063c-0.729,2.517-1.787,4.617-3.074,6.096
		C38.439,41.295,41.973,37.89,43.555,33.546z"/>
	<path d="M21.822,36.61c-2.656-0.7-4.885-1.758-6.465-3.063c1.582,4.344,5.115,7.75,9.539,9.159
		C23.609,41.227,22.551,39.126,21.822,36.61z"/>
	<path d="M34.018,14.122c1.432,1.648,2.584,4.063,3.311,6.971c2.756,0.755,5.031,1.901,6.58,3.306
		C42.557,19.526,38.813,15.651,34.018,14.122z"/>
	<path d="M24.896,14.122c-4.797,1.529-8.541,5.404-9.893,10.276c1.549-1.405,3.826-2.551,6.58-3.306
		C22.311,18.185,23.463,15.769,24.896,14.122z"/>
</g>
</svg>
