<?xml version="1.0" encoding="utf-8"?>
<!-- Generator: Adobe Illustrator 16.0.0, SVG Export Plug-In . SVG Version: 6.00 Build 0)  -->
<!DOCTYPE svg PUBLIC "-//W3C//DTD SVG 1.1//EN" "http://www.w3.org/Graphics/SVG/1.1/DTD/svg11.dtd">
<svg version="1.1" id="Layer_1" xmlns="http://www.w3.org/2000/svg" xmlns:xlink="http://www.w3.org/1999/xlink" x="0px" y="0px"
	 width="64px" height="64px" viewBox="0 0 64 64" enable-background="new 0 0 64 64" xml:space="preserve">
<g>
	<path d="M55.584,45.334V15.115H8.416v30.219h19.252v1.945H17.604v1.605h28.18v-1.605h-9.846v-1.945H55.584z M11.865,40.884V18.565
		h40.268v22.318H11.865z"/>
	<path d="M39.1,23.91c-1.605-1.926-4.023-3.155-6.723-3.155c-0.004,0-0.008,0-0.012,0s-0.006,0-0.008,0
		c-0.01,0-0.02,0.001-0.031,0.001c-2.678,0.016-5.074,1.24-6.668,3.155c-0.148,0.177-0.289,0.359-0.422,0.548
		c-1.01,1.428-1.607,3.167-1.607,5.045s0.598,3.617,1.607,5.045c0.133,0.188,0.273,0.371,0.422,0.548
		c1.596,1.914,3.99,3.139,6.668,3.155c0.012,0,0.021,0.001,0.031,0.001c0.002,0,0.004-0.001,0.008-0.001s0.008,0.001,0.012,0.001
		c2.699,0,5.117-1.229,6.723-3.155c0.146-0.177,0.287-0.36,0.42-0.549c1.01-1.428,1.607-3.167,1.607-5.045s-0.598-3.617-1.607-5.045
		C39.387,24.271,39.246,24.087,39.1,23.91z M29.82,21.894c-0.805,0.774-1.473,1.908-1.934,3.271c-0.615-0.231-1.172-0.51-1.65-0.822
		C27.176,23.227,28.41,22.368,29.82,21.894z M25.816,24.891c0.543,0.363,1.172,0.681,1.867,0.942
		c-0.301,1.096-0.473,2.313-0.479,3.597H24.35C24.363,27.74,24.908,26.178,25.816,24.891z M24.375,30.147h2.844
		c0.047,1.075,0.209,2.095,0.465,3.027c-0.695,0.262-1.324,0.579-1.867,0.942C25.012,32.977,24.492,31.619,24.375,30.147z
		 M26.238,34.664c0.479-0.313,1.033-0.589,1.648-0.82c0.461,1.362,1.129,2.495,1.934,3.271C28.41,36.64,27.178,35.779,26.238,34.664
		z M32.018,37.509c-1.473-0.202-2.744-1.713-3.465-3.888c1.039-0.312,2.217-0.501,3.465-0.531V37.509z M32.018,32.372
		c-1.316,0.032-2.559,0.236-3.664,0.575c-0.227-0.861-0.373-1.804-0.416-2.8h4.08V32.372z M32.018,29.43h-4.094
		c0.004-1.205,0.162-2.345,0.432-3.367c1.105,0.337,2.348,0.541,3.662,0.573V29.43z M32.018,25.918
		c-1.248-0.03-2.424-0.22-3.461-0.529c0.719-2.176,1.99-3.688,3.461-3.891V25.918z M38.518,24.342
		c-0.488,0.32-1.055,0.602-1.688,0.835c-0.465-1.379-1.143-2.527-1.959-3.306C36.309,22.342,37.564,23.211,38.518,24.342z
		 M32.736,21.504c1.457,0.226,2.711,1.733,3.426,3.896c-1.029,0.304-2.191,0.488-3.426,0.519V21.504z M32.736,26.636
		c1.301-0.031,2.529-0.23,3.625-0.563c0.268,1.021,0.424,2.155,0.43,3.356h-4.055V26.636z M32.736,30.147h4.039
		c-0.043,0.99-0.188,1.931-0.412,2.787c-1.096-0.332-2.324-0.531-3.627-0.563V30.147z M32.736,37.503V33.09
		c1.234,0.03,2.398,0.215,3.428,0.52C35.451,35.771,34.193,37.278,32.736,37.503z M34.871,37.137
		c0.816-0.778,1.496-1.926,1.961-3.306c0.631,0.233,1.197,0.515,1.686,0.833C37.564,35.797,36.309,36.666,34.871,37.137z
		 M38.941,34.117c-0.555-0.369-1.195-0.691-1.906-0.957c0.252-0.929,0.414-1.943,0.459-3.013h2.887
		C40.264,31.619,39.746,32.978,38.941,34.117z M37.508,29.43c-0.004-1.277-0.176-2.49-0.473-3.582
		c0.711-0.266,1.352-0.588,1.904-0.957c0.908,1.287,1.453,2.85,1.467,4.539H37.508z"/>
</g>
</svg>
