<?xml version="1.0" encoding="utf-8"?>
<!-- Generator: Adobe Illustrator 16.0.0, SVG Export Plug-In . SVG Version: 6.00 Build 0)  -->
<!DOCTYPE svg PUBLIC "-//W3C//DTD SVG 1.1//EN" "http://www.w3.org/Graphics/SVG/1.1/DTD/svg11.dtd">
<svg version="1.1" id="Layer_1" xmlns="http://www.w3.org/2000/svg" xmlns:xlink="http://www.w3.org/1999/xlink" x="0px" y="0px"
	 width="64px" height="64px" viewBox="0 0 64 64" enable-background="new 0 0 64 64" xml:space="preserve">
<g>
	<path d="M42.792,11.789c-3.988,0-7.715,1.958-9.967,5.237l-0.822,1.199l-0.826-1.199c-2.254-3.279-5.98-5.237-9.969-5.237
		c-6.693,0-12.139,5.447-12.139,12.143c0,6.996,11.418,18.799,22.105,27.513l0.828,0.767l0.771-0.722
		c10.738-8.729,22.156-20.518,22.156-27.558C54.931,17.236,49.485,11.789,42.792,11.789z M42.792,14.769
		c2.586,0,4.92,1.081,6.588,2.811l-1.715,0.108l-2.227,0.995l0.021,1.155l-0.688,0.205l-0.152-1.156l-0.256-0.4l-0.77-0.188
		l-0.18,0.691l0.232,0.565l-2.738-0.18l-1.307,0.604l-0.197-0.571l-0.324,0.086l-0.24,0.633l-0.682,0.533l-1.67-0.047l-0.076-0.368
		l1.746-0.075l0.357-0.308l-2.104-0.976l-1.256,0.038C36.808,16.432,39.63,14.769,42.792,14.769z M41.499,26.375l-0.033-0.795
		l0.172-0.393l0.689-0.059l0.592,0.244l0.025,0.412l-0.838-0.047l-0.041,0.38l1.051,0.702v0.514l0.453,0.333v0.358l-0.232,0.223
		L42.8,28.205l-0.104-0.162l-0.848-0.061l0.061-0.273l0.447-0.386v-0.324L41.499,26.375z M39.382,27.375H38.46l-1.33-0.056
		l-0.4,0.056v-0.908l0.299-0.335l0.324-0.101l0.705-0.082l0.154-0.24l0.289,0.143l0.041,0.827l0.771,0.319L39.382,27.375z
		 M34.882,21.548l0.039,0.551l-0.814,1.212l-0.439-0.004c0.074-1.085,0.334-2.123,0.762-3.074l0.568-0.396h0.326v0.409l-1.02,0.624
		v0.409L34.882,21.548z M12.962,25.531v0.424h-0.5c-0.084-0.229-0.152-0.451-0.211-0.668h0.535v0.244H12.962z M14.528,26.801V27.2
		h-0.654l-0.18-0.259v-0.372h0.053L14.528,26.801z M13.927,26.253l0.184-0.195l0.316,0.195l-0.252,0.207L13.927,26.253z
		 M12.901,27.006l0.473-0.064v0.398l-0.205,0.205C13.073,27.362,12.985,27.183,12.901,27.006z M13.528,26.122v0.41L13.22,26.73
		l-0.385,0.07c0,0,0-0.615,0-0.679H13.528z M13.181,25.955v-0.488l0.424,0.386L13.181,25.955z M32.657,47.545l-0.654,0.566
		l-0.656-0.566c-6.668-5.769-14.174-13.278-17.523-18.83l0.021-0.142l1.266-1.315l1.344-0.745l-0.117-0.098l0.91-0.857l0.334,0.09
		l0.152,0.19l0.346-0.383l0.084-0.04l-0.377-0.051l-0.385-0.127v-0.373l0.205-0.168h0.447l0.207,0.091l0.178,0.359l0.219-0.033
		v-0.031l0.063,0.021l0.629-0.099l0.09-0.309l0.357,0.091v0.335l-0.332,0.229l0.051,0.366l1.143,0.353c0,0,0.002,0.004,0.002,0.013
		l0.264-0.022l0.018-0.495l-0.904-0.411l-0.053-0.239l0.752-0.256l0.031-0.718l-0.783-0.479l-0.053-1.214l-1.078,0.53H18.46
		l0.104-0.924l-1.465-0.347l-0.607,0.457v1.399l-1.09,0.345l-0.438,0.912l-0.475,0.074v-1.165l-1.025-0.142l-0.512-0.333
		l-0.207-0.755l1.836-1.075l0.896-0.272l0.088,0.603l0.502-0.027l0.039-0.303l0.523-0.074l0.006-0.106l-0.223-0.092l-0.051-0.32
		l0.643-0.054l0.387-0.404l0.023-0.029l0.004,0.001l0.121-0.122l1.35-0.17l0.596,0.508l-1.564,0.834l1.992,0.47l0.258-0.666h0.871
		l0.307-0.582l-0.613-0.153v-0.734l-1.932-0.855l-1.334,0.152l-0.754,0.394l0.051,0.958l-0.783-0.119l-0.123-0.529l0.754-0.685
		l-1.367-0.068l-0.395,0.118l-0.17,0.463l0.514,0.086l-0.104,0.513l-0.873,0.053l-0.135,0.341l-1.266,0.033
		c0,0-0.002-0.045-0.006-0.112c0.09-0.208,0.189-0.412,0.295-0.611c0.281-0.005,0.615-0.011,0.615-0.011l0.754-0.736l-0.412-0.205
		l-0.547,0.531l-0.16-0.009c1.604-2.668,4.518-4.463,7.85-4.463c4.912,0,9.018,3.997,9.152,8.91l0.006,0.203l-0.441,0.621
		l-1.064,0.168l-0.152,0.909l0.447,0.106l-0.127,0.585l-1.057-0.211l-0.971,0.211l-0.205,0.54l0.168,1.132l0.568,0.265l0.953-0.004
		l0.645-0.06l0.199-0.513l1.006-1.309l0.662,0.136l0.652-0.591l0.123,0.463l1.605,1.083l-0.197,0.265l-0.723-0.04l0.279,0.394
		l0.443,0.1l0.523-0.218l-0.01-0.628l0.234-0.115l-0.188-0.199l-1.07-0.597l-0.283-0.795h0.891l0.283,0.281l0.768,0.66l0.033,0.802
		l0.795,0.846l0.295-1.16l0.553-0.301l0.102,0.95l0.539,0.59l1.621-0.026l0.482,0.359v0.846l-0.59,0.539h-1.643l-1-0.745
		l-1.051,0.104v0.642h-0.334l-0.359-0.257l-1.82-0.463v-1.178l-2.309,0.18l-0.719,0.383h-0.914l-0.451-0.045l-1.113,0.618v1.164
		l-2.273,1.642l0.189,0.7h0.461l-0.121,0.667l-0.324,0.119l-0.016,1.745l1.965,2.238h0.855l0.051-0.136h1.539l0.443-0.41h0.873
		l0.479,0.478l1.297,0.135l-0.17,1.729l1.445,2.549l-0.762,1.451l0.053,0.686l0.598,0.598v1.645l0.459,0.617
		C33.21,47.064,32.933,47.306,32.657,47.545z M40.153,40.6l-0.219-0.385l1.922-1.832l2.113-3.023l-0.41-0.189l-2.195,0.462
		l-0.566-0.279l-2.307-4.349l0.162-0.188l2.289,2.778l0.055,0.86l0.529,0.53l1.076-0.069l2.248-1.629l0.707-0.46l-0.014-0.566
		l-0.752-0.097c0,0-2.633-1.24-2.633-1.295c0-0.056,0.016-1.065,0.016-1.065h0.58l0.088,0.736l1.221,0.699l1.393,0.068l2.639,0.431
		C45.976,34.532,43.171,37.604,40.153,40.6z"/>
	<polygon points="26.987,23.212 27.028,23.547 26.534,23.649 26.466,24.357 27.065,24.357 27.858,24.281 28.269,23.794 
		27.833,23.622 27.597,23.349 27.233,22.769 27.065,21.946 26.388,22.082 26.198,22.372 26.198,22.7 26.524,22.924 	"/>
	<polygon points="26.413,23.486 26.45,23.041 26.056,22.871 25.499,22.998 25.089,23.656 25.089,24.085 25.567,24.085 	"/>
</g>
</svg>
