<?xml version="1.0" encoding="utf-8"?>
<!-- Generator: Adobe Illustrator 16.0.0, SVG Export Plug-In . SVG Version: 6.00 Build 0)  -->
<!DOCTYPE svg PUBLIC "-//W3C//DTD SVG 1.1//EN" "http://www.w3.org/Graphics/SVG/1.1/DTD/svg11.dtd">
<svg version="1.1" id="Layer_1" xmlns="http://www.w3.org/2000/svg" xmlns:xlink="http://www.w3.org/1999/xlink" x="0px" y="0px"
	 width="64px" height="64px" viewBox="0 0 64 64" enable-background="new 0 0 64 64" xml:space="preserve">
<g>
	<path d="M49.726,28.058c0-10.475-8.521-18.997-18.997-18.997c-0.401,0-0.798,0.017-1.192,0.041v2.406
		c0.395-0.028,0.789-0.061,1.192-0.061c9.159,0,16.61,7.452,16.61,16.611c0,9.159-7.451,16.61-16.61,16.61
		c-0.269,0-0.53-0.027-0.795-0.04v0.897v1.509v4.722h-5.899v3.182h13.389v-3.182H32.32v-4.774
		C42.053,46.171,49.726,37.997,49.726,28.058z"/>
	<g>
		<path fill="none" d="M15.485,21.937v0.468c0.166-0.382,0.349-0.754,0.543-1.119L15.485,21.937z"/>
		<path fill="none" d="M14.515,25.636c-0.154,0.858-0.24,1.739-0.24,2.639c0,0.026,0.002,0.053,0.002,0.08
			c0.006-0.923,0.097-1.826,0.263-2.704L14.515,25.636z"/>
		<path fill="none" d="M15.485,22.536v-0.131c-0.355,0.824-0.635,1.687-0.837,2.578l0.035-0.007
			C14.884,24.133,15.15,23.317,15.485,22.536z"/>
		<path fill="none" d="M16.644,20.36l-0.009-0.103c-0.216,0.334-0.418,0.677-0.606,1.029l0.203-0.244
			C16.363,20.812,16.501,20.584,16.644,20.36z"/>
		<path fill="none" d="M31.299,13.4c-0.607-0.074-1.222-0.125-1.85-0.125c-3.329,0-6.41,1.069-8.915,2.873l0.129-0.001
			c2.515-1.787,5.597-2.843,8.93-2.843C30.171,13.304,30.739,13.339,31.299,13.4z"/>
		<polygon points="24.888,20.862 24.751,21.005 24.935,21.157 25.12,21.005 		"/>
		<path d="M16.659,20.529l-0.016-0.169c-0.143,0.224-0.28,0.451-0.412,0.682L16.659,20.529z"/>
		<polygon points="21.436,17.002 21.436,16.768 20.893,16.768 20.863,16.88 20.532,16.88 20.532,16.908 20.532,17.207 
			21.279,17.207 		"/>
		<path d="M44.167,24.883l0.107,0.199c-0.019-0.085-0.039-0.17-0.06-0.254L44.167,24.883z"/>
		<path d="M23.947,21.405l0.283-0.053l0.227-0.144V20.91h-0.51C23.947,20.956,23.947,21.405,23.947,21.405z"/>
		<path d="M43.319,22.203c-0.111-0.248-0.229-0.494-0.355-0.735l-0.095,0.106v0.663l0.294-0.04L43.319,22.203z"/>
		<path d="M21.423,17.909c0,0,0.027-0.328,0-0.328c-0.028,0-0.36,0.056-0.36,0.056l-0.53,0.15l0.143,0.168L21.423,17.909z"/>
		<path d="M40.933,19.273l0.298-0.439c-0.239-0.29-0.489-0.571-0.749-0.843l-0.002,0.73l-0.652,0.327l0.064,0.215L40.933,19.273z"/>
		<polygon points="22.689,19.254 22.33,19.169 21.933,19.357 22.178,19.853 22.565,19.731 		"/>
		<polygon points="24.202,20.432 24.202,20.788 24.515,20.713 		"/>
		<polygon points="23.313,20.301 22.878,20.479 22.793,20.694 23.134,20.788 24.041,20.788 24.041,20.479 23.909,20.479 
			23.909,20.301 		"/>
		<path d="M42.806,22.873l-0.397-0.431l-0.075-0.691l-0.406,0.219l-0.219,0.846l-0.586-0.617l-0.024-0.584l-0.566-0.481
			l-0.209-0.206h-0.657l0.208,0.579l0.79,0.435l0.137,0.145l-0.17,0.085l0.007,0.458l-0.386,0.159l-0.327-0.072l-0.206-0.288
			l0.533,0.029l0.145-0.192l-1.184-0.79l-0.09-0.337l-0.482,0.43l-0.488-0.099l-0.742,0.954l-0.146,0.375l-0.476,0.042l-0.703,0.004
			l-0.42-0.194l-0.123-0.826l0.15-0.392l0.716-0.156l0.779,0.156l0.095-0.427l-0.331-0.078l0.114-0.664l0.784-0.121l0.549-0.767
			l0.566-0.094l0.512,0.075h0.188l-0.104-0.72l-0.621,0.248l-0.219-0.538l-0.361-0.049l-0.067-0.369l0.295-0.317l0.699-0.271
			l0.181-0.318c-1.988-1.732-4.437-2.957-7.138-3.473c-0.062-0.011-0.122-0.022-0.184-0.033c-0.278-0.05-0.563-0.083-0.848-0.118
			c-0.56-0.061-1.128-0.096-1.706-0.096c-3.333,0-6.415,1.056-8.93,2.843l0.636-0.005l0.341,0.187l0.643,0.136l0.051,0.25
			l1.021,0.037l-0.139-0.324l-0.907-0.025l0.214-0.2l-0.075-0.236h-0.82l0.896-0.661h0.857l0.403,0.549l0.669,0.037l0.402-0.387
			l0.303,0.15l-0.555,0.536c0,0-0.769,0.012-0.731,0.012c0.038,0,0.064,0.523,0.064,0.523l0.932-0.025l0.101-0.249l0.644-0.038
			l0.075-0.373l-0.377-0.063l0.126-0.336l0.289-0.087l1.009,0.05l-0.556,0.499l0.09,0.386l0.58,0.087L26.81,15.88l0.555-0.287
			l0.984-0.112l1.425,0.624v0.536l0.454,0.112L30,17.176h-0.643l-0.19,0.486l-1.471-0.342l1.155-0.608l-0.44-0.37l-0.995,0.124
			l-0.089,0.089l-0.003-0.001l-0.016,0.021l-0.287,0.294l-0.474,0.04l0.038,0.234l0.165,0.067l-0.006,0.078l-0.386,0.054
			l-0.028,0.221l-0.369,0.019l-0.066-0.439l-0.662,0.199l-1.352,0.783l0.15,0.551l0.378,0.244l0.757,0.103v0.85l0.35-0.056
			l0.322-0.664l0.805-0.252v-1.02l0.447-0.333l1.081,0.252l-0.076,0.673h0.29l0.795-0.386l0.038,0.884l0.579,0.349l-0.024,0.523
			l-0.555,0.187l0.038,0.173l0.667,0.301l-0.012,0.361l-0.194,0.017c0-0.006-0.002-0.01-0.002-0.01l-0.844-0.257l-0.035-0.268
			h-0.001l0.246-0.167v-0.244l-0.265-0.065l-0.065,0.225l-0.466,0.071l-0.046-0.016v0.023l-0.161,0.024l-0.131-0.262l-0.152-0.065
			h-0.331l-0.15,0.121v0.271l0.283,0.093l0.28,0.039l-0.063,0.028l-0.256,0.279l-0.111-0.14L27.2,20.499l-0.672,0.625l0.089,0.071
			l-0.993,0.542l-0.934,0.96l-0.063,0.427l-0.935,0.608l-0.465,0.461l0.052,0.922l-0.644-0.296l0.005-0.54l-1.79,0l-0.927,0.464
			l-0.402,0.733l-0.16,0.582l0.261,0.564l0.73,0.087l1.161-0.767l0.101,0.38l-0.354,0.662l0.884,0.148l0.088,1.348l0.111,0.019
			c-0.001-0.001-0.001-0.002-0.001-0.002l0.012,0.004l1.089,0.183l0.769-0.879l0.934,0.188l0.327,0.451l0.896-0.053l0.024-0.261
			l0.493,0.236l0.555,0.859l0.958,0.014l0.354,0.611l0.05,0.747l1.061,0.399l1.336,0.013l0.392,0.634l0.592,0.188l-0.112,0.524
			l-0.65,0.815l-0.189,1.805l-0.587,0.459l-0.869-0.026l-0.291,0.498l0.216,0.936l-0.946,1.196l-0.304,0.549l-0.901,0.429
			l-0.592,0.089l-0.025,0.249l0.416,0.118l-0.05,0.268l-0.373,0.355l0.227,0.281l0.448,0.013l-0.025,0.343l-0.119,0.336
			l-0.037,0.274l0.663,0.552l-0.089,0.287l-0.903-0.017l-0.898-0.776l-0.7-1.216l0.099-1.174l-0.53-0.698l0.214-1.183l-0.313-0.088
			v-2.567c0,0-0.884-0.662-0.934-0.662c-0.051,0-0.467-0.111-0.467-0.111l-0.088-0.486l-1.148-1.421l0.113-0.511l0.038-0.835
			l0.794-0.549l-0.112-0.935l-1.16-0.086l-0.908-1.022l-0.644-0.174l-0.416-0.076l0.051-0.374l-0.53-0.075v0.212l-1.324-0.324
			l-0.533-0.806l0.185-0.331l-0.219-0.002l-0.063-0.21l0.155-0.078l-0.679-0.979l-0.145-0.885h-0.341l0.114,0.86l0.58,0.885
			l-0.063,0.35l-0.492-0.075l-0.604-1.02v-1.186l-0.631-0.3v-0.723c-0.335,0.781-0.602,1.598-0.802,2.439l0.208-0.042l0.123,0.585
			l0.26,0.415l0.173,0.196l0.313,0.121l-0.296,0.348l-0.573,0.055H14.46l0.049-0.506l0.358-0.074l-0.031-0.237l-0.297-0.186
			c-0.166,0.877-0.257,1.78-0.263,2.704c0.044,8.235,6.832,14.92,15.173,14.92c4.743,0,8.984-2.165,11.769-5.544h-0.499v-0.997
			l-0.58-0.771v-1.2l-0.441-0.435l-0.038-0.499l0.56-1.06l-1.064-1.857l0.127-1.26l-0.958-0.098l-0.354-0.349h-0.644l-0.328,0.299
			h-1.134l-0.038,0.1h-0.632l-1.448-1.632l0.011-1.272l0.24-0.087l0.089-0.486h-0.34l-0.14-0.511l1.677-1.196V23.57l0.821-0.451
			l0.332,0.033h0.676l0.528-0.28l1.703-0.132v0.86l1.343,0.337l0.265,0.187h0.247v-0.467l0.774-0.074l0.738,0.542h1.211l0.084-0.076
			c-0.119-0.404-0.256-0.8-0.41-1.189L42.806,22.873z M20.854,28.766l-0.288,0.039v-0.648l0.093-0.104
			c0.123,0.236,0.239,0.476,0.349,0.719L20.854,28.766z M21.836,31.393l0.047-0.054c0.02,0.083,0.04,0.166,0.06,0.25L21.836,31.393z
			"/>
		<polygon points="22.735,21.656 23.001,21.797 23.645,20.91 23.143,20.91 22.793,21.283 		"/>
		<polygon points="24.581,21.237 24.581,21.507 24.714,21.695 25.196,21.695 25.196,21.405 24.619,21.237 		"/>
		<polygon points="23.947,21.667 23.72,21.685 23.645,22.012 24.127,22.012 24.345,21.797 24.345,21.507 23.995,21.554 		"/>
		<path fill="#FFFFFF" d="M21.836,31.393l0.106,0.196c-0.02-0.084-0.04-0.167-0.06-0.25L21.836,31.393z"/>
		<path fill="#FFFFFF" d="M20.566,28.157v0.648l0.288-0.039l0.153,0.005c-0.109-0.243-0.226-0.482-0.349-0.719L20.566,28.157z"/>
		<polygon fill="#FFFFFF" points="22.344,28.502 22.354,28.504 22.343,28.5 		"/>
		<polygon fill="#FFFFFF" points="17.654,25.896 17.873,25.899 17.906,25.839 17.746,25.608 17.591,25.687 		"/>
		<path fill="#FFFFFF" d="M14.836,25.836l0.031,0.237l-0.358,0.074l-0.049,0.506h0.432l0.573-0.055l0.296-0.348l-0.313-0.121
			l-0.173-0.196l-0.26-0.415l-0.123-0.585l-0.208,0.042l-0.035,0.007c-0.05,0.216-0.094,0.434-0.134,0.653l0.024,0.015
			L14.836,25.836z"/>
	</g>
</g>
</svg>
