<?xml version="1.0" encoding="utf-8"?>
<!-- Generator: Adobe Illustrator 16.0.0, SVG Export Plug-In . SVG Version: 6.00 Build 0)  -->
<!DOCTYPE svg PUBLIC "-//W3C//DTD SVG 1.1//EN" "http://www.w3.org/Graphics/SVG/1.1/DTD/svg11.dtd">
<svg version="1.1" id="Layer_1" xmlns="http://www.w3.org/2000/svg" xmlns:xlink="http://www.w3.org/1999/xlink" x="0px" y="0px"
	 width="64px" height="64px" viewBox="0 0 64 64" enable-background="new 0 0 64 64" xml:space="preserve">
<g>
	<polygon points="22.757,23.584 20.318,28.51 22.714,32.404 22.757,30.768 27.393,30.735 30.415,25.46 22.787,25.48 	"/>
	<path d="M14.725,32.207C14.726,32.207,14.726,32.207,14.725,32.207c2.235,0,5.892-0.113,5.93-0.115l0.958-0.029l-2.03-3.624
		l1.679-3.163h-8.417l-0.098,0.008c-0.077,0.013-1.885,0.355-1.885,3.458c0,1.669,0.565,2.755,1.72,3.243
		C12.845,32.207,13.466,32.207,14.725,32.207z M12.917,26.439h6.405l-1.067,2.014l1.401,2.503c-1.24,0.032-3.417,0.085-4.932,0.085
		c-0.972,0-1.339-0.022-1.473-0.035c-0.048-0.026-0.103-0.052-0.162-0.073c-0.291-0.104-1.063-0.385-1.063-2.191
		C12.026,26.866,12.771,26.496,12.917,26.439z"/>
	<polygon points="15.862,21.95 12.888,17.329 8.315,17.384 9.697,18.26 7.345,22.255 10.319,27.558 14.219,21.003 	"/>
	<path d="M15.18,19.799l4.323-7.223l0.042-0.088c0.028-0.073,0.663-1.799-1.999-3.393c-0.776-0.466-1.504-0.702-2.16-0.702
		c-0.808,0-1.313,0.354-1.569,0.561c-0.373,0.186-1.047,1.208-4.175,6.821l-0.467,0.84l4.152,0.119L15.18,19.799z M14.367,9.994
		c0.062-0.037,0.112-0.078,0.153-0.112c0.148-0.12,0.396-0.323,0.865-0.323c0.442,0,0.968,0.182,1.562,0.537
		c1.61,0.963,1.546,1.791,1.518,1.945l-3.29,5.496l-1.179-1.951l-2.868-0.08C12.391,13.258,13.967,10.524,14.367,9.994z"/>
	<polygon points="20.884,16.359 26.365,15.962 28.507,11.921 27.076,12.715 24.695,8.736 18.615,8.808 22.503,15.371 	"/>
	<path d="M23.1,16.791l4.271,7.253l0.056,0.081c0.054,0.063,0.555,0.622,1.601,0.622c0.702,0,1.488-0.253,2.335-0.753
		c1.471-0.865,2.115-1.931,1.91-3.21c0.033-0.297-0.243-0.996-3.987-6.928l-0.513-0.813l-2.095,3.589L23.1,16.791z M28.81,15.292
		c1.374,2.194,3.03,4.905,3.29,5.49c0.002,0.056,0.008,0.116,0.021,0.181c0.057,0.303,0.208,1.11-1.351,2.027
		c-0.665,0.393-1.252,0.591-1.743,0.591c-0.412,0-0.63-0.145-0.691-0.192l-3.248-5.519l2.275-0.1L28.81,15.292z"/>
	<path d="M22.906,42.389c-0.46-2.348-0.746-4.88-0.823-7.543h-9.926C13.032,38.006,17.162,40.773,22.906,42.389z"/>
	<path d="M45.901,24.831c0.455,2.493,0.71,5.188,0.737,8.015h10.017C56.103,29.498,51.891,26.536,45.901,24.831z"/>
	<path d="M35.352,11.083v10.231c2.772,0.054,5.41,0.331,7.851,0.798C41.555,16.106,38.655,11.813,35.352,11.083z"/>
	<path d="M43.728,24.287c-2.58-0.565-5.413-0.91-8.376-0.974v9.532h9.288C44.607,29.823,44.283,26.928,43.728,24.287z"/>
	<path d="M25.088,42.927c2.551,0.552,5.344,0.888,8.264,0.95v-9.031h-9.266C24.178,37.705,24.527,40.438,25.088,42.927z"/>
	<path d="M56.057,27.921c-1.968-7.873-8.117-14.105-15.942-16.193c2.318,2.388,4.182,6.192,5.315,10.876
		C50.017,23.759,53.731,25.619,56.057,27.921z"/>
	<path d="M12.833,39.457c2.146,7.547,8.16,13.479,15.756,15.505c-2.229-2.296-4.034-5.902-5.178-10.34
		C18.885,43.501,15.192,41.696,12.833,39.457z"/>
	<path d="M33.352,55.606v-9.73c-2.715-0.053-5.302-0.318-7.7-0.768C27.322,50.835,30.147,54.899,33.352,55.606z"/>
	<path d="M40.114,54.961c7.596-2.026,13.607-7.958,15.755-15.504c-2.358,2.239-6.052,4.043-10.577,5.165
		C44.149,49.059,42.343,52.665,40.114,54.961z"/>
	<path d="M35.352,45.876v9.73c3.205-0.708,6.029-4.771,7.7-10.498C40.654,45.557,38.067,45.823,35.352,45.876z"/>
	<path d="M44.618,34.846h-9.267v9.031c2.921-0.063,5.714-0.398,8.265-0.95C44.177,40.438,44.526,37.704,44.618,34.846z"/>
	<path d="M45.797,42.389c5.743-1.615,9.873-4.384,10.749-7.543h-9.925C46.543,37.508,46.258,40.041,45.797,42.389z"/>
</g>
</svg>
