<?xml version="1.0" encoding="utf-8"?>
<!-- Generator: Adobe Illustrator 16.0.0, SVG Export Plug-In . SVG Version: 6.00 Build 0)  -->
<!DOCTYPE svg PUBLIC "-//W3C//DTD SVG 1.1//EN" "http://www.w3.org/Graphics/SVG/1.1/DTD/svg11.dtd">
<svg version="1.1" id="Layer_1" xmlns="http://www.w3.org/2000/svg" xmlns:xlink="http://www.w3.org/1999/xlink" x="0px" y="0px"
	 width="64px" height="64px" viewBox="0 0 64 64" enable-background="new 0 0 64 64" xml:space="preserve">
<g>
	<polygon points="19.208,41.214 16.887,40.16 16.237,40.503 15.635,40.519 15.68,39.891 15.104,39.549 14.285,40.368 14.834,41.043 
		16.021,41.214 16.688,41.563 16.706,41.889 16.273,41.889 16.291,42.556 17.731,42.464 18.255,41.907 18.813,41.853 18.813,42.879 
		19.785,42.879 19.785,42.464 19.298,42.464 	"/>
	<path d="M26.296,19.837l0.09-0.566l-0.585-0.09c0,0.035,0.045,0.656,0.09,0.656S26.296,19.837,26.296,19.837z"/>
	<path d="M43.1,21.571l-0.128,0.332H42.35v0.318h0.148c0,0,0.009,0.068,0.021,0.158l0.381-0.031l0.236-0.148l0.063-0.297
		l0.308-0.027l0.12-0.251l-0.281-0.059L43.1,21.571z"/>
	<polygon points="41.499,22.154 41.475,22.468 41.926,22.43 41.973,22.115 41.701,21.903 	"/>
	<path d="M32,7.626c-8.686,0-16.319,4.57-20.637,11.429C9,22.81,7.627,27.246,7.627,32.001c0,0.734,0.038,1.461,0.103,2.18
		c0.14,1.567,0.43,3.092,0.853,4.561c0.218,0.756,0.472,1.496,0.759,2.221c0.571,1.438,1.274,2.809,2.096,4.099
		c1.53,2.4,3.466,4.516,5.714,6.249c0.612,0.471,1.247,0.914,1.903,1.328c0.27,0.169,0.542,0.332,0.818,0.492
		c3.575,2.06,7.714,3.244,12.128,3.244c13.439,0,24.373-10.934,24.373-24.373C56.373,18.561,45.439,7.626,32,7.626z M42.533,51.733
		l-0.539-0.455l0.055-0.396l0.17-0.484l0.036-0.496l-0.641-0.018l-0.322-0.406l0.531-0.514l0.072-0.387l-0.594-0.17l0.034-0.359
		l0.847-0.129l1.288-0.618l0.432-0.793l1.351-1.728l-0.307-1.352l0.415-0.721l1.241,0.037l0.837-0.66l0.271-2.607l0.927-1.179
		l0.162-0.757l-0.846-0.27l-0.559-0.918l-1.907-0.018l-1.513-0.576l-0.072-1.08l-0.505-0.883l-1.367-0.019l-0.792-1.241
		l-0.702-0.342L40.5,32.574l-1.278,0.075l-0.468-0.651l-1.332-0.271l-1.099,1.27l-1.729-0.293l-0.126-1.948l-1.26-0.216l0.505-0.954
		l-0.146-0.55l-1.656,1.107l-1.043-0.127l-0.372-0.814l0.228-0.84l0.575-1.06l1.323-0.67l2.556-0.001l-0.008,0.779l0.919,0.428
		l-0.073-1.332l0.661-0.666l1.337-0.877l0.091-0.617l1.332-1.387l1.417-0.784l-0.126-0.103l0.96-0.903l0.352,0.093l0.161,0.203
		l0.364-0.404l0.089-0.039l-0.399-0.057l-0.404-0.134V20.44l0.215-0.176h0.474l0.217,0.095l0.188,0.378l0.229-0.035V20.67
		l0.065,0.022l0.664-0.104l0.095-0.324l0.377,0.095v0.352l-0.351,0.243h0.001l0.051,0.385l1.203,0.371c0,0,0.002,0.005,0.004,0.014
		l0.275-0.023l0.02-0.521l-0.954-0.434l-0.054-0.251l0.792-0.271l0.034-0.756l-0.826-0.504l-0.054-1.277l-1.135,0.558h-0.415
		l0.109-0.973l-1.544-0.364l-0.64,0.482v1.472l-1.148,0.364l-0.46,0.959l-0.498,0.08v-1.229l-1.079-0.148l-0.54-0.352l-0.217-0.796
		l1.931-1.13l0.945-0.287l0.094,0.634l0.527-0.027l0.04-0.319l0.551-0.078l0.01-0.112l-0.236-0.097l-0.055-0.338l0.678-0.057
		l0.408-0.426l0.022-0.031l0.005,0.002l0.125-0.128l1.423-0.18l0.629,0.534l-1.649,0.879l2.099,0.494l0.271-0.701h0.918l0.325-0.613
		l-0.648-0.161v-0.774l-2.034-0.9l-1.404,0.162l-0.793,0.414l0.055,1.009l-0.828-0.126l-0.128-0.559l0.793-0.72l-1.439-0.072
		l-0.414,0.126l-0.18,0.486l0.539,0.09l-0.107,0.541l-0.918,0.053l-0.145,0.36l-1.332,0.036c0,0-0.035-0.756-0.09-0.756
		c-0.054,0,1.044-0.018,1.044-0.018l0.793-0.775l-0.434-0.215l-0.575,0.559l-0.955-0.055l-0.575-0.792h-1.225l-1.278,0.954h1.171
		l0.107,0.342l-0.306,0.288L36,15.292l0.197,0.467l-1.459-0.053l-0.071-0.36l-0.917-0.198l-0.487-0.27l-2.159,0.018l-0.667,0.648
		l-0.45-0.036l-0.503-0.288l-1.495-0.45h-2.736l-1.584,1.079l-1.062,0.164l-0.487,0.377l0.756,0.113v0.301h-1.619l-0.631,0.449
		l0.81,0.686l2.215,0.018l0.307-0.324h1.854l0.666,0.594l-0.035,0.919l0.558,0.522l-0.468,0.332l0.107,1.215l-1.674,2.035v1.908
		l0.9,0.432v1.714l0.864,1.474l0.701,0.107l0.09-0.504l-0.827-1.279l-0.162-1.241h0.486l0.205,1.278l1.197,1.746l-0.31,0.564
		l0.761,1.164l1.891,0.468v-0.307l0.756,0.108l-0.072,0.539l0.595,0.109l0.918,0.251l1.296,1.478l1.656,0.125l0.161,1.35
		l-1.133,0.793l-0.055,1.207l-0.161,0.736l1.638,2.054l0.126,0.701c0,0,0.595,0.161,0.666,0.161c0.072,0,1.333,0.955,1.333,0.955
		v3.709l0.45,0.127l-0.308,1.709l0.757,1.008l-0.14,1.696l0.999,1.756l1.112,0.972c-2.849,1.316-6.017,2.057-9.355,2.057
		c-3.659,0-7.112-0.889-10.164-2.452l0.59-0.387l0.718-0.318l0.722-0.409l-0.267-0.474l-0.391,0.077l-0.011-0.881l-0.717,0.043
		l-0.091,1.379l-0.63,0.43l-0.738,0.103c-0.833-0.472-1.637-0.989-2.399-1.561l0.82-0.771l0.63-1.438l-0.261-1.063l-0.97-0.831
		l-0.073-1.584l-0.641-1.098l-0.575-0.026l-0.234,1.988l-1.101-0.081l-0.307-0.186l-0.038-0.789l0.582,0.119l0.491-0.479
		l-1.045-0.628h-1.229L13.79,44.31h-0.36v-0.396l-0.337,0.025c-0.247-0.389-0.484-0.784-0.707-1.188
		c-0.05-0.09-0.097-0.18-0.146-0.271c-0.042-0.08-0.082-0.161-0.124-0.243l0.094,0.029l0.08-0.283h-0.304
		c-0.077-0.152-0.153-0.305-0.227-0.46l0.309-0.028l-0.014-1.754l-0.907,0.353c-0.093-0.238-0.182-0.479-0.267-0.721
		c-0.235-0.672-0.44-1.358-0.611-2.058c-0.368-1.504-0.581-3.067-0.627-4.672l0.15-0.055l0.828-0.691l-0.126-1.252l-0.763-0.8
		c0.064-0.669,0.161-1.327,0.283-1.978l1.803,1.375l0.639-0.172l-0.423-0.558l-1.215-0.738l0.072-1.097l1.439,0.001l0.117-1.36
		l-0.549-0.723l0.324-0.351l0.702,0.703l0.225-0.298l-0.9-1.026l-0.945-0.114c0.167-0.407,0.343-0.811,0.533-1.205l0.574,0.051
		l1.945-1.297l0.323,0.406l-0.433,0.675v0.675l1.782,1.457l0.568-0.296l-0.217-0.972l-1.268-1.188l1.673-0.108v-0.486l0.811-0.162
		l-0.621-0.428l0.026-0.328l1.701,0.275l0.324-0.275l-2.296-0.972l-3.048-0.157C17.735,13.407,24.433,9.626,32,9.626
		c12.337,0,22.373,10.037,22.373,22.375C54.373,40.531,49.573,47.96,42.533,51.733z"/>
</g>
</svg>
