<?xml version="1.0" encoding="utf-8"?>
<!-- Generator: Adobe Illustrator 16.0.0, SVG Export Plug-In . SVG Version: 6.00 Build 0)  -->
<!DOCTYPE svg PUBLIC "-//W3C//DTD SVG 1.1//EN" "http://www.w3.org/Graphics/SVG/1.1/DTD/svg11.dtd">
<svg version="1.1" id="Layer_1" xmlns="http://www.w3.org/2000/svg" xmlns:xlink="http://www.w3.org/1999/xlink" x="0px" y="0px"
	 width="64px" height="64px" viewBox="0 0 64 64" enable-background="new 0 0 64 64" xml:space="preserve">
<g>
	<path d="M50.91,14.443H13.094v24.936H50.91V14.443z M47.076,35.547H16.928V18.275h30.148V35.547z"/>
	<path d="M50.904,40.537H32.537h-1.076H13.094l-5.15,6.882h48.111L50.904,40.537z M13.484,46.151l3.266-4.351h14.818h0.869h14.818
		l2.76,4.351H13.484z"/>
	<polygon points="37.203,47.919 37.203,48.761 26.891,48.761 26.891,47.919 7.65,47.919 7.65,49.557 56.348,49.557 56.348,47.919 	
		"/>
	<path d="M31.953,33.373c2.555,0,4.77-1.462,5.861-3.591c0.232-0.455,0.414-0.941,0.537-1.449c0.031-0.129,0.057-0.258,0.08-0.39
		c0.066-0.375,0.104-0.758,0.104-1.151c0-0.021-0.002-0.045-0.002-0.068c-0.002-0.191-0.012-0.383-0.029-0.57
		c-0.063-0.628-0.211-1.229-0.436-1.793h0.006l-0.021-0.111l-0.035-0.014c-0.299-0.708-0.721-1.352-1.234-1.907
		c-0.033-0.036-0.068-0.071-0.102-0.107c-0.098-0.102-0.197-0.199-0.301-0.294c-1.17-1.065-2.725-1.716-4.428-1.716
		c-1.717,0-3.281,0.662-4.455,1.744c-0.273,0.251-0.523,0.527-0.752,0.821c-0.859,1.111-1.373,2.505-1.373,4.016
		C25.373,30.421,28.326,33.373,31.953,33.373z M37.83,25.403c0.008,0.035,0.018,0.068,0.025,0.104l-0.045-0.08L37.83,25.403z
		 M37.295,24.095l0.039-0.043c0.049,0.097,0.096,0.195,0.141,0.295l-0.063-0.002l-0.117,0.016V24.095z M36.344,22.946l0.002-0.295
		c0.104,0.109,0.201,0.223,0.297,0.34l-0.117,0.177l-0.414-0.005l-0.027-0.086L36.344,22.946z M28.404,22.216v-0.012h0.133
		l0.012-0.045h0.215v0.094l-0.061,0.083h-0.299V22.216z M28.615,22.509c0,0,0.133-0.022,0.143-0.022c0.012,0,0,0.132,0,0.132
		l-0.297,0.02l-0.057-0.068L28.615,22.509z M26.396,24.429V24.24l0.215-0.263c0.076-0.141,0.156-0.279,0.242-0.414l0.01,0.109
		l-0.252,0.305C26.535,24.125,26.461,24.274,26.396,24.429v0.344l0.252,0.121v0.478l0.238,0.41l0.197,0.03l0.025-0.141l-0.23-0.356
		l-0.045-0.346h0.135l0.057,0.355l0.334,0.487l-0.086,0.157l0.213,0.324l0.525,0.131v-0.085l0.211,0.029l-0.02,0.15l0.166,0.031
		l0.256,0.07l0.361,0.411l0.461,0.035l0.045,0.376l-0.316,0.221l-0.014,0.336l-0.047,0.206l0.457,0.572l0.037,0.196
		c0,0,0.164,0.045,0.184,0.045c0.021,0,0.373,0.266,0.373,0.266v1.034l0.125,0.036l-0.086,0.476l0.211,0.281l-0.039,0.473
		l0.279,0.489l0.357,0.313l0.359,0.007l0.035-0.116l-0.264-0.222l0.016-0.11l0.047-0.136l0.01-0.138l-0.18-0.004l-0.09-0.114
		l0.148-0.144l0.02-0.107l-0.164-0.047l0.01-0.101l0.236-0.035l0.359-0.173l0.119-0.222l0.377-0.481l-0.086-0.377l0.115-0.2
		l0.348,0.01l0.232-0.185l0.076-0.727l0.258-0.329l0.045-0.21l-0.236-0.075l-0.154-0.257l-0.533-0.005l-0.42-0.16l-0.021-0.301
		l-0.141-0.247l-0.381-0.005l-0.221-0.346l-0.195-0.096l-0.01,0.106l-0.357,0.021l-0.131-0.183l-0.371-0.075l-0.307,0.354
		l-0.48-0.082l-0.035-0.543l-0.352-0.06l0.141-0.267l-0.041-0.153l-0.461,0.31l-0.291-0.035L27.939,25.9l0.063-0.234l0.16-0.295
		l0.369-0.188l0.713-0.001l-0.002,0.219l0.256,0.119l-0.021-0.371l0.186-0.186l0.373-0.245l0.025-0.173l0.371-0.387l0.395-0.217
		l-0.035-0.029l0.268-0.252l0.1,0.025l0.043,0.057l0.104-0.112l0.023-0.011l-0.111-0.016l-0.113-0.037v-0.11l0.061-0.048h0.131
		l0.063,0.025l0.053,0.106l0.063-0.011v-0.01l0.02,0.007l0.184-0.028l0.027-0.09l0.105,0.025v0.098l-0.1,0.068h0.002l0.014,0.107
		l0.336,0.104c0,0,0,0.002,0,0.004l0.076-0.007l0.006-0.145l-0.266-0.121l-0.016-0.069l0.221-0.076l0.01-0.212l-0.23-0.14
		l-0.014-0.356l-0.316,0.155h-0.115l0.029-0.271l-0.43-0.101l-0.178,0.134v0.41l-0.32,0.102l-0.129,0.268l-0.139,0.023v-0.343
		l-0.301-0.042l-0.152-0.098l-0.059-0.222l0.537-0.315l0.264-0.08l0.027,0.177l0.146-0.008l0.01-0.089l0.154-0.021l0.004-0.032
		l-0.066-0.026l-0.016-0.094l0.189-0.016l0.113-0.119l0.006-0.009h0.002l0.035-0.035l0.396-0.05l0.176,0.148l-0.461,0.244
		l0.584,0.139l0.078-0.195h0.256l0.09-0.171l-0.182-0.045v-0.216l-0.566-0.25l-0.391,0.044l-0.223,0.116l0.016,0.28l-0.23-0.035
		l-0.035-0.155l0.221-0.2l-0.4-0.021l-0.117,0.035l-0.049,0.135l0.15,0.025l-0.029,0.151l-0.258,0.015l-0.039,0.101l-0.373,0.009
		c0,0-0.008-0.21-0.023-0.21s0.291-0.005,0.291-0.005l0.221-0.216l-0.121-0.061l-0.16,0.156l-0.266-0.016l-0.16-0.222h-0.342
		l-0.357,0.267h0.328l0.029,0.096l-0.086,0.081l0.361,0.01l0.055,0.13l-0.406-0.015l-0.02-0.101l-0.256-0.056l-0.135-0.074
		l-0.305,0.003c0.996-0.727,2.223-1.157,3.547-1.157c1.527,0,2.924,0.571,3.988,1.509l-0.072,0.128l-0.277,0.109l-0.117,0.127
		l0.025,0.149l0.145,0.02l0.086,0.217l0.248-0.1l0.041,0.289h-0.074l-0.203-0.03l-0.227,0.039l-0.219,0.309l-0.313,0.049
		l-0.045,0.267l0.133,0.031l-0.037,0.172l-0.311-0.063l-0.285,0.063l-0.061,0.158l0.049,0.332l0.168,0.077h0.279l0.189-0.018
		l0.059-0.15l0.295-0.385l0.193,0.04l0.191-0.173l0.037,0.135l0.471,0.318l-0.057,0.078l-0.213-0.012l0.082,0.115l0.131,0.029
		l0.152-0.063l-0.002-0.186l0.068-0.032l-0.055-0.06l-0.316-0.176l-0.082-0.232h0.262l0.084,0.083l0.225,0.193l0.01,0.235
		l0.234,0.248l0.086-0.34l0.162-0.088l0.029,0.277l0.158,0.173l0.314-0.005c0.061,0.157,0.117,0.316,0.164,0.479l-0.033,0.032
		h-0.482l-0.295-0.22l-0.309,0.03v0.189h-0.096l-0.105-0.076l-0.535-0.136v-0.346l-0.678,0.052l-0.211,0.113h-0.27l-0.131-0.013
		l-0.328,0.182v0.341l-0.668,0.482l0.057,0.205h0.137l-0.037,0.195l-0.096,0.036l-0.004,0.512l0.576,0.658h0.252l0.016-0.041h0.451
		l0.129-0.12h0.258l0.141,0.14l0.381,0.041l-0.051,0.506l0.424,0.748l-0.223,0.427l0.014,0.201l0.178,0.176v0.482l0.23,0.311v0.402
		h0.199c-1.109,1.36-2.797,2.23-4.686,2.23c-3.33,0-6.039-2.709-6.039-6.039C25.914,25.954,26.088,25.155,26.396,24.429z
		 M28.963,23.201l0.158-0.075l0.143,0.034l-0.051,0.191l-0.152,0.05L28.963,23.201z M29.803,23.653v0.124h-0.363l-0.135-0.037
		l0.033-0.087l0.174-0.072h0.238v0.072H29.803z M29.967,23.827v0.12l-0.09,0.058l-0.111,0.021c0,0,0-0.182,0-0.199H29.967z
		 M29.865,23.777v-0.143l0.125,0.113L29.865,23.777z M29.922,24.066v0.118l-0.086,0.086h-0.193l0.031-0.132l0.092-0.008l0.018-0.045
		L29.922,24.066z M29.443,23.827h0.199l-0.256,0.357l-0.104-0.057l0.021-0.15L29.443,23.827z M30.26,24.026v0.116h-0.191
		l-0.053-0.076v-0.108h0.016L30.26,24.026z M30.084,23.865l0.055-0.058l0.092,0.058l-0.074,0.061L30.084,23.865z"/>
	<polygon points="34.965,23.139 34.977,23.236 34.83,23.267 34.811,23.476 34.986,23.476 35.219,23.452 35.34,23.31 35.213,23.26 
		35.143,23.179 35.035,23.009 34.986,22.767 34.789,22.808 34.732,22.893 34.732,22.988 34.828,23.054 	"/>
	<polygon points="34.795,23.219 34.805,23.089 34.689,23.039 34.527,23.076 34.406,23.27 34.406,23.395 34.547,23.395 	"/>
	<path d="M31.453,23.772l-0.037,0.093h-0.174v0.089h0.043c0,0,0.002,0.02,0.006,0.044l0.105-0.009l0.066-0.041l0.018-0.083
		l0.086-0.008l0.033-0.069l-0.078-0.017L31.453,23.772z"/>
	<polygon points="31.006,23.935 30.998,24.022 31.125,24.013 31.139,23.925 31.063,23.865 	"/>
</g>
</svg>
