<?xml version="1.0" encoding="utf-8"?>
<!-- Generator: Adobe Illustrator 16.0.0, SVG Export Plug-In . SVG Version: 6.00 Build 0)  -->
<!DOCTYPE svg PUBLIC "-//W3C//DTD SVG 1.1//EN" "http://www.w3.org/Graphics/SVG/1.1/DTD/svg11.dtd">
<svg version="1.1" id="Layer_1" xmlns="http://www.w3.org/2000/svg" xmlns:xlink="http://www.w3.org/1999/xlink" x="0px" y="0px"
	 width="64px" height="64px" viewBox="0 0 64 64" enable-background="new 0 0 64 64" xml:space="preserve">
<g>
	<path d="M51.895,17.945c-0.371-0.524-0.758-1.035-1.17-1.527C46.25,11.05,39.518,7.626,32,7.626c-0.014,0-0.025,0-0.037,0
		c-0.008,0-0.014,0-0.021,0c-0.027,0-0.055,0.003-0.084,0.003c-7.461,0.043-14.135,3.457-18.582,8.79
		c-0.41,0.492-0.799,1.003-1.17,1.527c-2.816,3.975-4.479,8.821-4.479,14.053c0,5.232,1.662,10.08,4.479,14.055
		c0.371,0.523,0.76,1.035,1.17,1.527c4.447,5.332,11.121,8.746,18.582,8.789c0.029,0,0.057,0.004,0.084,0.004
		c0.008,0,0.014-0.002,0.021-0.002c0.012,0,0.023,0.002,0.037,0.002c7.518,0,14.25-3.424,18.725-8.792
		c0.41-0.492,0.799-1.004,1.17-1.528c2.816-3.975,4.479-8.822,4.479-14.055C56.373,26.769,54.711,21.921,51.895,17.945z
		 M54.367,31.794h-8.072c-0.018-3.562-0.492-6.938-1.322-9.981c1.98-0.736,3.768-1.635,5.309-2.665
		C52.811,22.735,54.324,27.089,54.367,31.794z M49.107,17.619c-1.361,0.892-2.943,1.676-4.703,2.325
		c-1.295-3.844-3.184-7.04-5.459-9.209C42.949,12.046,46.451,14.466,49.107,17.619z M33,9.713c4.059,0.627,7.555,4.831,9.541,10.85
		c-2.865,0.849-6.104,1.363-9.541,1.446V9.713z M31,9.697v12.312c-3.48-0.084-6.756-0.609-9.648-1.477
		C23.359,14.474,26.898,10.261,31,9.697z M24.875,10.796c-2.24,2.16-4.102,5.319-5.385,9.111c-1.719-0.643-3.266-1.415-4.6-2.289
		C17.506,14.512,20.945,12.12,24.875,10.796z M13.717,19.146c1.516,1.013,3.268,1.897,5.205,2.626
		c-0.836,3.055-1.316,6.443-1.334,10.021H9.631C9.674,27.089,11.188,22.734,13.717,19.146z M9.705,33.794h7.922
		c0.129,2.994,0.584,5.836,1.293,8.434c-1.938,0.729-3.689,1.614-5.203,2.626C11.475,41.673,10.031,37.892,9.705,33.794z
		 M14.896,46.378c1.334-0.872,2.877-1.643,4.592-2.285c1.283,3.793,3.146,6.949,5.387,9.111
		C20.945,51.88,17.512,49.483,14.896,46.378z M31,54.302c-4.104-0.563-7.646-4.772-9.654-10.832
		c2.895-0.869,6.172-1.395,9.654-1.479V54.302z M31,39.991c-3.672,0.088-7.133,0.656-10.215,1.602
		c-0.631-2.397-1.035-5.026-1.156-7.799l-0.041-2c0.018-3.359,0.455-6.531,1.207-9.384c3.078,0.942,6.537,1.511,10.205,1.599h2
		c3.625-0.087,7.045-0.643,10.096-1.566c0.748,2.844,1.182,6.006,1.199,9.352l-0.041,2c-0.121,2.76-0.523,5.377-1.148,7.766
		c-3.055-0.926-6.479-1.482-10.105-1.568H31z M33,54.286V41.99c3.439,0.084,6.678,0.599,9.547,1.448
		C40.559,49.458,37.059,53.659,33,54.286z M38.945,53.265c2.275-2.17,4.168-5.363,5.463-9.208c1.756,0.649,3.336,1.433,4.695,2.321
		C46.447,49.532,42.949,51.952,38.945,53.265z M50.283,44.854c-1.541-1.031-3.33-1.931-5.311-2.668
		c0.703-2.587,1.154-5.414,1.281-8.393h8.041C53.969,37.892,52.527,41.675,50.283,44.854z"/>
	<path d="M25.105,34.015c0.348-0.212,0.713-0.418,1.094-0.616c0.383-0.197,0.732-0.419,1.053-0.663
		c0.318-0.244,0.58-0.529,0.785-0.854s0.307-0.726,0.307-1.2c0-0.389-0.072-0.73-0.217-1.024c-0.145-0.293-0.35-0.536-0.615-0.727
		c-0.266-0.191-0.584-0.335-0.957-0.431c-0.371-0.096-0.779-0.144-1.225-0.144c-0.496,0-0.943,0.071-1.344,0.213
		s-0.738,0.349-1.014,0.621s-0.482,0.606-0.615,1.003c-0.135,0.396-0.188,0.85-0.16,1.359h1.996
		c-0.014-0.453,0.063-0.819,0.229-1.099c0.166-0.28,0.461-0.42,0.887-0.42c0.248,0,0.457,0.065,0.631,0.196s0.26,0.366,0.26,0.706
		c0,0.135-0.033,0.255-0.1,0.361c-0.068,0.106-0.152,0.201-0.256,0.286c-0.102,0.085-0.211,0.163-0.328,0.234
		c-0.117,0.07-0.223,0.134-0.314,0.19c-0.232,0.142-0.473,0.285-0.721,0.431c-0.248,0.145-0.486,0.297-0.717,0.456
		s-0.445,0.331-0.648,0.515c-0.201,0.185-0.381,0.383-0.535,0.595c-0.184,0.248-0.324,0.524-0.42,0.828
		c-0.096,0.305-0.133,0.637-0.111,0.998h6.402v-1.805h-3.346V34.015z"/>
	<path d="M34.576,35.83v-1.465h0.998v-1.805h-0.998v-4.12h-2.113l-3.375,3.929v1.996h3.279v1.465H34.576z M30.563,32.561l1.805-2.07
		v2.07H30.563z"/>
	<path d="M38.537,32.921c0-0.219,0.025-0.397,0.078-0.536c0.055-0.138,0.121-0.246,0.203-0.323c0.08-0.078,0.17-0.131,0.27-0.159
		s0.195-0.043,0.287-0.043c0.156,0,0.277,0.026,0.367,0.08c0.088,0.053,0.156,0.127,0.207,0.223c0.049,0.096,0.08,0.211,0.094,0.345
		c0.016,0.135,0.021,0.28,0.021,0.436v2.888h2.104v-3.779c0-0.318-0.053-0.595-0.154-0.828c-0.104-0.233-0.242-0.427-0.42-0.579
		c-0.178-0.151-0.379-0.267-0.605-0.345s-0.463-0.117-0.711-0.117c-0.445,0-0.801,0.069-1.063,0.207
		c-0.262,0.139-0.48,0.313-0.658,0.525h-0.02V28.25h-2.104v7.58h2.104V32.921z"/>
</g>
</svg>
