<?xml version="1.0" encoding="utf-8"?>
<!-- Generator: Adobe Illustrator 16.0.0, SVG Export Plug-In . SVG Version: 6.00 Build 0)  -->
<!DOCTYPE svg PUBLIC "-//W3C//DTD SVG 1.1//EN" "http://www.w3.org/Graphics/SVG/1.1/DTD/svg11.dtd">
<svg version="1.1" id="Layer_1" xmlns="http://www.w3.org/2000/svg" xmlns:xlink="http://www.w3.org/1999/xlink" x="0px" y="0px"
	 width="64px" height="64px" viewBox="0 0 64 64" enable-background="new 0 0 64 64" xml:space="preserve">
<g>
	<polygon points="29.438,28.057 29.3,27.97 29.218,28.057 29.327,28.146 	"/>
	<path d="M28.737,28.295l0.17-0.032l0.135-0.086v-0.18h-0.305C28.737,28.027,28.737,28.295,28.737,28.295z"/>
	<polygon points="27.911,27.295 27.985,27.009 27.771,26.959 27.534,27.071 27.681,27.368 	"/>
	<polygon points="28.89,27.713 28.89,27.926 29.077,27.881 	"/>
	<polygon points="28.792,27.926 28.792,27.741 28.714,27.741 28.714,27.635 28.358,27.635 28.099,27.741 28.048,27.871 
		28.251,27.926 	"/>
	<polygon points="28.556,27.998 28.257,27.998 28.048,28.222 28.013,28.445 28.171,28.529 	"/>
	<polygon points="29.483,28.468 29.483,28.295 29.138,28.194 29.116,28.194 29.116,28.355 29.196,28.468 	"/>
	<polygon points="28.737,28.451 28.601,28.462 28.556,28.657 28.845,28.657 28.976,28.529 28.976,28.355 28.765,28.384 	"/>
	<path d="M55.812,30.437c-0.01-3.135-1.939-5.952-5.09-7.509c0.439-3.35-0.752-6.441-3.211-8.205
		c-2.23-1.601-5.322-1.852-8.145-0.696c-1.439-3.536-4.488-5.84-7.875-5.84c-3.605,0-6.813,2.62-8.117,6.5
		c-1.139-0.409-2.32-0.623-3.471-0.623c-2.295,0-4.371,0.844-5.848,2.377c-1.955,2.03-2.623,4.975-1.852,7.998
		c-2.537,1.656-4.023,4.204-4.016,6.948c0.008,3.015,1.813,5.76,4.771,7.349c-1.131,3.341-0.486,6.794,1.744,9.003
		c1.459,1.443,3.473,2.238,5.676,2.238c1.26,0,2.547-0.257,3.781-0.749c1.283,3.933,4.496,6.585,8.146,6.585
		c3.313,0,6.27-2.151,7.76-5.563c0.998,0.313,2.01,0.47,3.018,0.47c2.295,0,4.369-0.844,5.844-2.376
		c2.451-2.544,2.85-6.461,1.117-10.039C53.55,36.847,55.821,33.806,55.812,30.437z M48.321,36.797l-1.26,0.371l0.691,1.115
		c1.895,3.056,1.789,6.541-0.266,8.674c-1.094,1.137-2.656,1.763-4.402,1.763c-1.055,0-2.166-0.23-3.213-0.667L38.88,47.64
		l-0.342,1.019c-1.047,3.131-3.492,5.154-6.23,5.154c-3.057,0-5.734-2.549-6.512-6.198l-0.275-1.298l-1.172,0.623
		c-1.275,0.679-2.646,1.037-3.969,1.037c-1.695,0-3.172-0.574-4.268-1.66c-1.84-1.82-2.221-4.834-0.971-7.678l0.404-0.923
		l-0.926-0.398c-2.727-1.171-4.426-3.446-4.432-5.937c-0.006-2.243,1.367-4.339,3.676-5.607l0.732-0.402l-0.266-0.792
		c-0.865-2.571-0.43-5.095,1.166-6.752c1.096-1.138,2.66-1.764,4.406-1.764c1.223,0,2.498,0.306,3.691,0.883l1.133,0.55l0.277-1.229
		c0.813-3.58,3.479-6.081,6.486-6.081c2.828,0,5.375,2.211,6.338,5.5l0.348,1.19l1.09-0.592c2.41-1.313,5.18-1.3,7.08,0.063
		c2,1.435,2.873,4.106,2.281,6.973l-0.168,0.813l0.77,0.314c2.818,1.151,4.574,3.448,4.582,5.994
		C53.821,33.273,51.612,35.827,48.321,36.797z"/>
	<path d="M32.001,22.209c-5.447,0-9.875,4.43-9.875,9.874c0,5.445,4.428,9.875,9.875,9.875c5.443,0,9.873-4.43,9.873-9.875
		C41.874,26.639,37.444,22.209,32.001,22.209z M38.253,28.355l0.473,0.261l0.08,0.086l-0.102,0.051l0.004,0.274l-0.229,0.094
		l-0.195-0.042l-0.125-0.173l0.32,0.018l0.086-0.115l-0.707-0.472l-0.055-0.201l-0.287,0.257l-0.293-0.06l-0.443,0.57l-0.088,0.224
		l-0.283,0.026l-0.42,0.002l-0.25-0.116l-0.074-0.493l0.09-0.234l0.428-0.093l0.465,0.093l0.057-0.254l-0.197-0.048l0.068-0.397
		l0.469-0.07l0.328-0.459l0.338-0.056l0.305,0.044h0.053c0.338,0.407,0.632,0.85,0.883,1.32l-0.305-0.257l-0.125-0.124h-0.393
		L38.253,28.355z M37.781,26.755l-0.085,0.034l-0.094-0.23C37.664,26.622,37.721,26.69,37.781,26.755z M37.501,26.459l-0.152-0.021
		l-0.024-0.14C37.383,26.353,37.443,26.403,37.501,26.459z M26.768,26.216l0.015,0.017l0.447-0.027c0,0,0.016-0.195,0-0.195
		c-0.018,0-0.215,0.033-0.215,0.033l-0.083,0.023c0.263-0.222,0.543-0.424,0.834-0.611l0.007,0.037l0.611,0.021L28.3,25.322
		L28,25.313c0.206-0.122,0.418-0.234,0.635-0.338l0.003,0.004l0.4,0.022l0.242-0.231l0.182,0.089l-0.332,0.32
		c0,0-0.459,0.008-0.438,0.008s0.037,0.313,0.037,0.313l0.557-0.015l0.061-0.149l0.385-0.022l0.045-0.224l-0.227-0.037l0.076-0.201
		l0.172-0.052l0.604,0.029l-0.33,0.298l0.053,0.231l0.348,0.052l-0.025-0.416l0.334-0.172l0.586-0.067l0.852,0.372v0.322
		l0.271,0.065l-0.137,0.253H31.97l-0.115,0.291l-0.877-0.205l0.689-0.363l-0.262-0.221l-0.596,0.074l-0.053,0.054l-0.002-0.001
		l-0.01,0.013l-0.172,0.175l-0.283,0.024l0.023,0.14l0.1,0.04l-0.004,0.047l-0.23,0.032l-0.016,0.132l-0.221,0.012l-0.041-0.263
		l-0.396,0.119l-0.807,0.468l0.09,0.328l0.225,0.146l0.453,0.062v0.508l0.209-0.033l0.193-0.396l0.48-0.15v-0.609l0.266-0.199
		l0.646,0.15l-0.045,0.402h0.174l0.475-0.23l0.023,0.528l0.346,0.208l-0.016,0.313l-0.33,0.112l0.021,0.104l0.4,0.18l-0.008,0.216
		l-0.117,0.01c0-0.003,0-0.006,0-0.006l-0.504-0.153l-0.021-0.16l0.146-0.099v-0.146l-0.158-0.039l-0.039,0.135l-0.279,0.042
		l-0.027-0.009v0.013l-0.096,0.015l-0.078-0.156l-0.09-0.039h-0.199l-0.09,0.072v0.161l0.17,0.056l0.166,0.025l-0.037,0.015
		l-0.152,0.168l-0.066-0.084l-0.148-0.039l-0.4,0.374l0.051,0.043l-0.592,0.324l-0.559,0.573l-0.037,0.255l-0.559,0.364
		l-0.277,0.274l0.031,0.552l-0.385-0.178l0.002-0.322h-1.07l-0.553,0.277l-0.24,0.438l-0.096,0.347l0.156,0.338l0.436,0.052
		l0.695-0.458l0.059,0.228l-0.211,0.396l0.529,0.088l0.051,0.806l0.068,0.011l0.006,0.001l0.65,0.11l0.459-0.525l0.559,0.111
		l0.193,0.271l0.537-0.031l0.014-0.156l0.295,0.14l0.33,0.515l0.572,0.007l0.213,0.366l0.029,0.446l0.633,0.239l0.801,0.007
		l0.232,0.379l0.354,0.112l-0.068,0.313L33.2,35.327l-0.111,1.078l-0.352,0.274l-0.52-0.016l-0.174,0.298l0.129,0.558l-0.564,0.717
		l-0.182,0.326l-0.539,0.256l-0.354,0.055l-0.016,0.147l0.25,0.07l-0.031,0.161l-0.223,0.212l0.135,0.168l0.27,0.007l-0.016,0.205
		l-0.01,0.028c-0.4-0.057-0.793-0.137-1.171-0.252l-0.063-0.11l0.059-0.701l-0.318-0.416l0.129-0.708l-0.188-0.053v-1.534
		c0,0-0.527-0.395-0.557-0.395c-0.033,0-0.279-0.066-0.279-0.066l-0.055-0.291l-0.686-0.849l0.068-0.306l0.023-0.498l0.473-0.328
		l-0.066-0.56l-0.693-0.051l-0.543-0.611l-0.385-0.104l-0.248-0.045l0.029-0.224l-0.316-0.044v0.127l-0.789-0.193l-0.32-0.482
		l0.111-0.198l-0.131-0.001l-0.039-0.126l0.094-0.046l-0.404-0.584l-0.088-0.529h-0.041C24.933,28.336,25.729,27.143,26.768,26.216z
		 M24.405,30.207l0.346,0.528l-0.037,0.209l-0.293-0.045l-0.156-0.262c0.034-0.184,0.079-0.364,0.126-0.543L24.405,30.207z
		 M38.413,36.637v-0.361l-0.266-0.26l-0.021-0.299l0.334-0.633l-0.637-1.109l0.076-0.753l-0.572-0.059l-0.211-0.209h-0.387
		l-0.195,0.18h-0.676l-0.023,0.059h-0.377l-0.865-0.975l0.006-0.761l0.143-0.052l0.055-0.29h-0.203l-0.084-0.306l1.002-0.715v-0.506
		l0.49-0.271l0.199,0.021h0.402l0.316-0.169l1.018-0.078v0.515l0.803,0.201l0.158,0.112h0.146v-0.279l0.423-0.041
		c0.261,0.782,0.407,1.615,0.407,2.483C39.874,33.781,39.329,35.35,38.413,36.637z M38.987,28.467
		c0.099,0.19,0.193,0.383,0.277,0.582l-0.266-0.279L38.987,28.467z"/>
</g>
</svg>
