<?xml version="1.0" encoding="utf-8"?>
<!-- Generator: Adobe Illustrator 16.0.0, SVG Export Plug-In . SVG Version: 6.00 Build 0)  -->
<!DOCTYPE svg PUBLIC "-//W3C//DTD SVG 1.1//EN" "http://www.w3.org/Graphics/SVG/1.1/DTD/svg11.dtd">
<svg version="1.1" id="Layer_1" xmlns="http://www.w3.org/2000/svg" xmlns:xlink="http://www.w3.org/1999/xlink" x="0px" y="0px"
	 width="64px" height="64px" viewBox="0 0 64 64" enable-background="new 0 0 64 64" xml:space="preserve">
<g>
	<polygon points="13.479,25.81 13.516,26.09 13.099,26.178 13.04,26.775 13.546,26.775 14.216,26.71 14.562,26.298 14.193,26.154 
		13.993,25.924 13.688,25.434 13.546,24.742 12.976,24.857 12.815,25.102 12.815,25.375 13.091,25.564 	"/>
	<polygon points="43.034,38.88 43.34,38.987 43.34,39.464 43.654,39.436 43.645,38.031 42.883,38.328 42.891,38.498 42.703,38.498 
		42.703,39.551 43.092,39.551 	"/>
	<polygon points="49.02,41.631 48.509,40.752 48.048,40.73 47.858,42.324 46.979,42.258 46.732,42.109 46.701,41.479 47.168,41.573 
		47.562,41.189 46.725,40.686 45.739,40.686 45.033,41.689 44.746,41.689 44.746,41.371 43.898,41.438 42.559,42.963 41.847,42.973 
		41.056,43.521 40.997,45.885 40.521,46.347 40.521,46.764 42.828,45.971 44.697,45.897 45.39,47.42 47.515,47.492 49.562,45.568 
		50.065,44.418 49.855,43.564 49.08,42.9 	"/>
	<polygon points="45.668,48.59 46.418,48.672 47.026,48.339 47.037,47.881 46.375,47.809 	"/>
	<polygon points="48.724,48.76 48.724,49.117 49.509,48.996 51.411,47.83 51.948,47.475 52.524,47.221 53.103,46.894 52.89,46.514 
		52.577,46.576 52.567,45.87 51.992,45.904 51.922,47.009 51.416,47.354 50.479,47.483 48.979,48.551 	"/>
	<polygon points="46.994,38.641 46.512,38.652 46.548,38.149 46.087,37.877 45.432,38.532 45.869,39.073 46.822,39.21 47.354,39.49 
		47.369,39.75 47.023,39.75 47.037,40.285 48.191,40.211 48.609,39.766 49.056,39.723 49.056,40.543 49.836,40.543 49.836,40.211 
		49.444,40.211 49.373,39.21 47.515,38.366 	"/>
	<polygon points="43.542,39.982 43.77,40.054 43.833,39.826 43.542,39.826 	"/>
	<rect x="42.179" y="40.054" width="0.347" height="0.192"/>
	<polygon points="43.023,40.246 43.239,40.246 43.239,40.077 43.396,40.054 43.396,39.89 43.049,39.89 42.908,40.054 42.703,40.246 
		42.703,40.414 43.023,40.381 	"/>
	<polygon points="43.573,40.246 43.573,40.549 43.91,40.549 43.91,40.397 44.256,40.397 44.256,40.219 44.497,40.246 44.466,39.938 
		44.072,39.998 44.036,40.197 43.595,40.246 	"/>
	<polygon points="32.867,35.225 33.048,35.713 33.705,35.469 33.775,34.791 33.246,34.688 	"/>
	<path d="M39.852,12.662l-15.174-1.92l-0.581-0.072l-0.581,0.072L7.813,12.729v40.675l16.284-2.06l15.226,1.927l0.529,0.066
		l0.529-0.066l15.807-2V10.596L39.852,12.662z M39.322,33.139l-0.48-0.386l-0.043-0.78l0.303-0.408l0.221,0.07V33.139z
		 M38.88,34.637l0.442,0.045v1.784l-1.496-2.136l0.172-0.691L38.88,34.637z M39.322,13.604v6.329l-0.545-0.08l-0.747-0.025
		l-0.678,0.686l-0.289-0.023l-0.903-0.67h-2.658l-1.234-0.735l-1.334,0.085v-0.085l-1.035,0.065l-1.878,0.838l0.018,0.974
		l-0.579,0.173l-0.129-0.974l-0.216-0.338l-0.648-0.159l-0.151,0.584l0.194,0.475l-1.831-0.119v-8.852L39.322,13.604z
		 M24.697,26.475l-0.02-0.479v-0.209l0.138-0.313l0.582-0.05l0.498,0.208l0.022,0.346l-0.707-0.038l-0.036,0.32l0.886,0.591v0.434
		l0.385,0.28v0.303l-0.197,0.188l-0.452-0.038l-0.088-0.136l-0.714-0.052l0.051-0.23l0.375-0.323v-0.274L24.697,26.475z
		 M24.678,41.777l0.015,0.018l-0.015,0.021V41.777z M8.87,52.262V13.604l14.646-1.853v10.906l-0.915,0.426l-0.168-0.482
		l-0.274,0.071l-0.199,0.534l-0.578,0.449l-1.408-0.039l-0.063-0.311l1.472-0.064l0.304-0.259l-1.775-0.822l-2.162,0.065
		l-1.21,0.619l-0.456,0.811l-0.799,0.314l-0.338,0.367l0.078,0.426l0.413,0.058l0.249,0.622l0.712-0.287l0.119,0.831h-0.218
		l-0.584-0.085l-0.647,0.107l-0.525,0.742l-0.361,0.083l-0.07,0.113l-0.569,0.089l-0.129,0.768l0.379,0.091l-0.108,0.494
		l-0.89-0.179l-0.819,0.179L11.8,28.844l0.142,0.953l0.48,0.225l0.803-0.005l0.544-0.049l0.167-0.431l0.849-1.105l0.558,0.113
		l0.55-0.496l0.105,0.39l1.353,0.914l-0.165,0.223l-0.61-0.034l0.233,0.333l0.377,0.083l0.441-0.186l-0.009-0.528l0.197-0.098
		l-0.158-0.166l-0.903-0.505l-0.237-0.67h0.751l0.238,0.238l0.648,0.558l0.027,0.676l0.67,0.713L19.1,29.01l0.466-0.252l0.086,0.799
		l0.454,0.499l1.367-0.024l0.406,0.305v0.713l-0.498,0.455h-1.383l-0.846-0.628l-0.886,0.087v0.541h-0.282l-0.301-0.216l-1.535-0.39
		v-0.996l-1.947,0.153l-0.606,0.323h-0.771l-0.38-0.039l-0.939,0.521v0.98l-1.917,1.385l0.16,0.592h0.387l-0.102,0.563l-0.272,0.098
		L9.748,35.95l1.656,1.889h0.721l0.043-0.115h1.299l0.372-0.346h0.737l0.403,0.403l1.095,0.115l-0.144,1.457l1.218,2.147
		l-0.643,1.226l0.046,0.576l0.504,0.506v1.385l0.662,0.893v1.152h1.963l1.47-1.512l0.462-0.824l0.591-0.128v-0.692l0.389-0.462
		l0.821-1.124l-0.171-1.713l-0.362-0.637l0.636-0.606v10.869L8.87,52.262z M23.516,34.303v1.57l-1.854-3.493l0.139-0.159
		L23.516,34.303z M22.414,29.32h-0.779l-1.119-0.047l-0.338,0.047v-0.768l0.251-0.281l0.273-0.085l0.595-0.069l0.129-0.203
		l0.244,0.121l0.034,0.697L22.356,29L22.414,29.32z M18.618,24.404l0.031,0.466l-0.685,1.021l-1.19-0.011l-0.075-0.248l0.745-0.379
		l0.007-1.411l1.264-0.882h0.275v0.346l-0.859,0.525v0.346L18.618,24.404z M24.678,50.409v-6.743l0.347-0.557l0.877-1.287
		l0.421-2.018h-0.535l-0.519,1.037l-0.591-0.076v-3.857l0.321-0.307l1.783-2.549l-0.346-0.16l-1.759,0.371v-0.572l0.043,0.043
		l0.907-0.059l1.896-1.371l0.597-0.391l-0.011-0.475l-0.635-0.082c0,0-2.221-1.047-2.221-1.093c0-0.047,0.015-0.899,0.015-0.899
		h0.489l0.074,0.621l1.027,0.591l1.178,0.058l2.551,0.418l0.245,0.152v0.156l0.253,0.158v0.585l-0.078,0.793l1.311,2.152
		l0.421,0.097l0.421-0.61l0.234-1.739l0.435-0.939l0.704-0.261l1.24,0.118l1.556,1.383v1.99l1.993,1.91v0.441l-0.472,0.006
		l-0.317-0.418l0.018-0.219l-1.487-1.34l-0.36,0.289l2.118,2.596l0.304,0.102v0.143h-0.404l0.101,0.318l0.501,0.021v13.324
		L24.678,50.409z M55.13,50.396l-14.749,1.865V39.994l1.337,0.06l-0.863-0.548l-0.474,0.013v-1.074l0.425,0.563h1.271l0.162-0.411
		l0.286-0.259v-0.189l0.178-0.117v-1.424l-0.178-0.074l-0.086-0.444h-0.261l-0.168,0.449l-0.2,0.179l-1.43,0.775v-4.021l0.09-0.064
		l-0.09-0.336v-0.248l1.451-0.52l0.665-0.554l-0.104-1.002l-1.316-1.384l-0.021-1.124h0.583l1.815,1.383l0.514-0.138l-0.341-0.445
		l-0.971-0.592l0.057-0.879l1.152,0.002l0.094-1.088l-0.438-0.579l0.259-0.281l0.562,0.563l0.182-0.238l-0.722-0.823l-1.795-0.216
		l-0.236-0.475l0.519-0.736L42.699,24l1.23,0.107l1.559-1.037l0.259,0.324L45.4,23.936v0.541l1.428,1.166l0.455-0.236l-0.173-0.779
		l-1.016-0.951l1.339-0.086v-0.391l0.649-0.129l-0.498-0.342l0.021-0.265l1.363,0.221l0.26-0.221l-1.839-0.777l-6.703-0.346
		l-0.307-0.155v-7.581l14.749-1.866V50.396z"/>
</g>
</svg>
