<?xml version="1.0" encoding="utf-8"?>
<!-- Generator: Adobe Illustrator 16.0.0, SVG Export Plug-In . SVG Version: 6.00 Build 0)  -->
<!DOCTYPE svg PUBLIC "-//W3C//DTD SVG 1.1//EN" "http://www.w3.org/Graphics/SVG/1.1/DTD/svg11.dtd">
<svg version="1.1" id="Layer_1" xmlns="http://www.w3.org/2000/svg" xmlns:xlink="http://www.w3.org/1999/xlink" x="0px" y="0px"
	 width="64px" height="64px" viewBox="0 0 64 64" enable-background="new 0 0 64 64" xml:space="preserve">
<g>
	<path d="M56.373,32.232c0-3.513-4.426-6.066-10.494-7.562c2.078-5.377,2.441-10.031-0.244-12.021
		c-0.736-0.545-1.643-0.821-2.693-0.821c-3.135,0-7.463,2.515-11.92,6.696c-4.504-4.464-8.873-7.16-11.988-7.16
		c-0.953,0-1.781,0.247-2.461,0.734c-2.111,1.514-2.42,4.939-0.895,9.905c0.299,0.974,0.676,1.99,1.098,3.027
		c-5.363,1.529-9.148,3.954-9.148,7.201c0,3.2,3.674,5.601,8.914,7.134c-2.223,5.557-2.688,10.406,0.068,12.449
		c0.736,0.545,1.643,0.82,2.693,0.82c3.133,0,7.453-2.51,11.904-6.683c4.264,4.069,8.354,6.493,11.314,6.493
		c0.951,0,1.779-0.247,2.461-0.734c2.605-1.869,2.26-6.434,0.256-11.769C51.633,38.473,56.373,35.868,56.373,32.232z M42.941,13.828
		c0.613,0,1.117,0.144,1.502,0.429c1.588,1.176,1.41,4.945-0.553,9.975c-2.709-0.539-5.658-0.884-8.637-1.029
		c-0.939-1.15-1.885-2.229-2.832-3.238C36.752,15.923,40.629,13.828,42.941,13.828z M23.584,37.063
		c0.467,0.652,0.941,1.286,1.42,1.908c-2.074-0.229-3.982-0.557-5.703-0.953c0.609-1.318,1.318-2.695,2.146-4.125
		C22.123,34.952,22.83,36.012,23.584,37.063z M19.553,26.394c1.568-0.353,3.287-0.646,5.145-0.86
		c-0.316,0.408-0.633,0.816-0.945,1.237c-0.795,1.072-1.557,2.178-2.285,3.299C20.76,28.825,20.119,27.596,19.553,26.394z
		 M22.604,31.984c0.83-1.315,1.746-2.661,2.756-4.022c0.699-0.945,1.402-1.832,2.105-2.685c1.449-0.1,2.961-0.156,4.535-0.156
		c0.768,0,1.52,0.015,2.26,0.04c0.693,0.874,1.391,1.783,2.084,2.751c1.176,1.64,2.213,3.246,3.145,4.81
		c-0.791,1.238-1.656,2.502-2.604,3.781c-0.727,0.981-1.457,1.902-2.186,2.783c-0.881,0.035-1.777,0.058-2.699,0.058
		c-1.475,0-2.891-0.054-4.26-0.142c-0.842-1.037-1.688-2.129-2.531-3.305C24.277,34.599,23.408,33.288,22.604,31.984z
		 M38.492,37.694c0.73-0.986,1.43-2.002,2.105-3.029c0.719,1.318,1.346,2.588,1.881,3.801c-1.57,0.279-3.268,0.5-5.074,0.65
		C37.77,38.649,38.133,38.179,38.492,37.694z M37.969,26.746c-0.352-0.491-0.709-0.97-1.066-1.443
		c2.236,0.167,4.313,0.442,6.195,0.804c-0.674,1.492-1.479,3.063-2.438,4.699C39.813,29.427,38.914,28.063,37.969,26.746z
		 M32.582,23.126c-0.193-0.002-0.389-0.005-0.582-0.005c-0.91,0-1.826,0.021-2.738,0.06c0.58-0.645,1.156-1.244,1.727-1.822
		C31.516,21.92,32.047,22.507,32.582,23.126z M17.738,13.724c0.332-0.238,0.768-0.359,1.295-0.359c2.281,0,6.18,2.238,10.557,6.56
		c-1.047,1.062-2.096,2.204-3.131,3.429c-2.703,0.229-5.332,0.623-7.73,1.177c-0.445-1.07-0.832-2.114-1.139-3.112
		C16.393,17.524,16.449,14.648,17.738,13.724z M9.627,32.232c0-1.911,2.973-3.945,7.955-5.347c0.766,1.66,1.668,3.367,2.688,5.094
		c-1.111,1.848-2.104,3.712-2.934,5.531C12.502,36.112,9.627,34.112,9.627,32.232z M19.303,50.636c-0.613,0-1.119-0.144-1.502-0.428
		c-1.623-1.204-1.4-5.123,0.695-10.327c2.541,0.602,5.352,1.021,8.24,1.252c1.012,1.214,2.031,2.354,3.047,3.403
		C25.471,48.554,21.609,50.636,19.303,50.636z M29.512,41.296c0.83,0.031,1.66,0.048,2.488,0.048c0.311,0,0.623-0.003,0.934-0.008
		c-0.574,0.636-1.145,1.23-1.711,1.802C30.658,42.558,30.088,41.943,29.512,41.296z M43.816,50.087
		c-1.701,1.22-6.061-0.703-11.168-5.541c1.012-1.025,2.023-2.127,3.025-3.307c2.607-0.145,5.182-0.441,7.586-0.887
		C45.16,45.321,45.34,48.993,43.816,50.087z M44.48,38.063c-0.752-1.735-1.658-3.525-2.672-5.312
		c1.264-2.073,2.387-4.175,3.291-6.208c5.771,1.396,9.273,3.614,9.273,5.688C54.373,34.38,50.617,36.679,44.48,38.063z"/>
	<path d="M31.354,36.906c1.903,0,3.555-1.09,4.368-2.677c0.174-0.34,0.31-0.701,0.4-1.08c0.023-0.097,0.043-0.193,0.061-0.291
		c0.05-0.279,0.077-0.565,0.077-0.858c0-0.017-0.001-0.033-0.002-0.05c-0.001-0.144-0.008-0.286-0.021-0.427
		c-0.046-0.468-0.157-0.915-0.325-1.336h0.004L35.9,30.105l-0.026-0.012c-0.224-0.527-0.537-1.007-0.92-1.421
		c-0.025-0.027-0.051-0.054-0.076-0.08c-0.073-0.075-0.147-0.148-0.225-0.22c-0.872-0.794-2.03-1.278-3.3-1.278
		c-1.28,0-2.446,0.493-3.321,1.3c-0.204,0.188-0.391,0.393-0.561,0.612c-0.641,0.829-1.023,1.867-1.023,2.993
		C26.448,34.705,28.648,36.906,31.354,36.906z M34.626,29.133l0.001-0.219c0.077,0.082,0.151,0.166,0.222,0.253l-0.088,0.132
		l-0.309-0.003l-0.02-0.064L34.626,29.133z M28.708,28.589V28.58h0.099l0.009-0.033h0.16v0.069l-0.046,0.063h-0.222V28.589z
		 M28.865,28.808c0,0,0.099-0.017,0.107-0.017c0.008,0,0,0.098,0,0.098l-0.223,0.014l-0.042-0.05L28.865,28.808z M27.211,30.238
		v-0.141l0.161-0.195c0.056-0.105,0.116-0.208,0.18-0.309l0.007,0.082l-0.187,0.227C27.314,30.012,27.26,30.124,27.211,30.238v0.257
		l0.188,0.09v0.355l0.179,0.307l0.146,0.022l0.019-0.104l-0.172-0.266l-0.034-0.259h0.102l0.042,0.266l0.249,0.363l-0.064,0.117
		l0.158,0.241l0.393,0.098v-0.063l0.157,0.022l-0.015,0.112l0.124,0.022l0.19,0.052l0.27,0.308l0.344,0.025l0.034,0.281
		l-0.236,0.164L29.272,32.9l-0.034,0.153l0.341,0.427l0.026,0.146c0,0,0.123,0.033,0.139,0.033c0.015,0,0.276,0.199,0.276,0.199
		v0.771l0.094,0.026l-0.063,0.355l0.157,0.209l-0.029,0.353l0.208,0.365l0.266,0.232l0.269,0.005l0.026-0.086l-0.197-0.166
		l0.012-0.082l0.035-0.101l0.008-0.104l-0.134-0.003l-0.066-0.085l0.11-0.106l0.015-0.08l-0.123-0.036l0.007-0.074l0.176-0.026
		l0.268-0.129l0.09-0.164l0.281-0.359l-0.064-0.281l0.087-0.149l0.258,0.008l0.174-0.138l0.057-0.542l0.192-0.245l0.033-0.157
		l-0.176-0.056l-0.115-0.19l-0.397-0.004l-0.314-0.12l-0.015-0.225l-0.104-0.183l-0.284-0.005l-0.165-0.258l-0.146-0.07
		l-0.008,0.078l-0.266,0.016l-0.097-0.136L29.8,31.86l-0.229,0.264l-0.358-0.061l-0.026-0.405l-0.263-0.045l0.105-0.198l-0.03-0.114
		l-0.344,0.23l-0.217-0.026l-0.077-0.169l0.047-0.175l0.119-0.221l0.275-0.139h0.531l-0.002,0.161l0.191,0.089l-0.016-0.276
		l0.138-0.139l0.277-0.182l0.02-0.129l0.276-0.288l0.295-0.163l-0.026-0.021l0.199-0.188l0.073,0.02l0.033,0.042l0.076-0.084
		l0.019-0.008l-0.083-0.012l-0.084-0.028v-0.081l0.044-0.036h0.099l0.045,0.02l0.039,0.078l0.048-0.007v-0.008l0.014,0.005
		l0.138-0.021l0.02-0.067l0.079,0.02v0.073l-0.073,0.05l0,0l0.011,0.08l0.25,0.077c0,0,0,0.001,0.001,0.003l0.058-0.005l0.004-0.108
		l-0.198-0.09l-0.012-0.052l0.165-0.057l0.007-0.157l-0.172-0.104l-0.011-0.266l-0.236,0.115h-0.086l0.022-0.201l-0.32-0.076
		l-0.133,0.101v0.306l-0.239,0.075l-0.096,0.199l-0.104,0.018v-0.256l-0.225-0.03l-0.111-0.074l-0.046-0.164l0.401-0.235l0.197-0.06
		l0.02,0.132l0.109-0.006l0.008-0.066l0.115-0.017l0.002-0.023l-0.05-0.02l-0.011-0.07l0.141-0.012l0.085-0.089l0.005-0.006h0.001
		l0.025-0.026l0.296-0.037l0.131,0.11l-0.343,0.183l0.436,0.103l0.057-0.146h0.191l0.067-0.127l-0.135-0.033v-0.161l-0.423-0.188
		l-0.292,0.033L30.57,28.28l0.012,0.209l-0.172-0.025l-0.027-0.116l0.165-0.149l-0.299-0.016l-0.086,0.026l-0.038,0.101l0.112,0.02
		l-0.022,0.111l-0.19,0.012l-0.03,0.074l-0.276,0.008c0,0-0.008-0.156-0.019-0.156c-0.012,0,0.217-0.005,0.217-0.005l0.165-0.16
		l-0.091-0.045l-0.119,0.116l-0.198-0.012l-0.12-0.165h-0.254l-0.266,0.198h0.243l0.022,0.072l-0.063,0.06l0.269,0.007l0.042,0.098
		l-0.304-0.012l-0.015-0.074l-0.19-0.041l-0.102-0.057l-0.227,0.002c0.743-0.541,1.657-0.862,2.645-0.862
		c1.139,0,2.179,0.426,2.973,1.125l-0.054,0.096L34.065,28.8l-0.088,0.096l0.021,0.11l0.106,0.015l0.065,0.162l0.185-0.075
		l0.03,0.216h-0.056l-0.152-0.022l-0.168,0.028l-0.163,0.23l-0.232,0.036l-0.034,0.199l0.099,0.023l-0.028,0.128L33.418,29.9
		l-0.212,0.046l-0.045,0.118l0.037,0.248l0.124,0.058l0.209-0.001l0.141-0.013l0.044-0.112l0.22-0.286l0.145,0.029l0.144-0.129
		l0.026,0.101l0.352,0.237l-0.043,0.058L34.4,30.245l0.061,0.087l0.098,0.021l0.114-0.048l-0.002-0.138l0.051-0.025L34.681,30.1
		l-0.234-0.131l-0.062-0.174h0.195l0.062,0.062l0.168,0.145l0.008,0.176l0.174,0.185l0.064-0.253l0.12-0.066l0.022,0.208
		l0.118,0.129l0.234-0.004c0.046,0.116,0.086,0.235,0.122,0.356l-0.025,0.023h-0.359l-0.219-0.163l-0.229,0.022v0.141h-0.073
		l-0.079-0.057l-0.398-0.101V30.34l-0.505,0.039l-0.157,0.084h-0.2l-0.099-0.01l-0.243,0.135v0.255l-0.498,0.359l0.041,0.153h0.102
		l-0.026,0.146l-0.071,0.026l-0.004,0.382l0.431,0.49h0.188l0.011-0.03h0.337l0.097-0.09h0.191l0.104,0.104l0.284,0.03l-0.037,0.378
		l0.315,0.558l-0.166,0.317l0.011,0.15l0.132,0.131v0.359l0.172,0.231v0.3h0.148c-0.826,1.014-2.085,1.664-3.492,1.664
		c-2.482,0-4.502-2.02-4.502-4.503C26.852,31.376,26.979,30.78,27.211,30.238z M29.124,29.323l0.117-0.056l0.107,0.025l-0.037,0.143
		l-0.115,0.037L29.124,29.323z M29.749,29.661v0.092H29.48l-0.102-0.027l0.025-0.064l0.129-0.055h0.177v0.055H29.749z M29.873,29.79
		v0.089l-0.067,0.044l-0.084,0.016c0,0,0-0.135,0-0.148H29.873z M29.797,29.753v-0.106l0.093,0.084L29.797,29.753z M29.839,29.969
		v0.088l-0.064,0.064h-0.143l0.022-0.099l0.067-0.006l0.014-0.033L29.839,29.969z M29.482,29.79h0.149l-0.191,0.267l-0.078-0.043
		l0.017-0.112L29.482,29.79z M30.092,29.938v0.087h-0.144l-0.039-0.057v-0.081h0.012L30.092,29.938z M29.96,29.818l0.041-0.043
		l0.068,0.043l-0.055,0.046L29.96,29.818z"/>
</g>
</svg>
