<?xml version="1.0" encoding="utf-8"?>
<!-- Generator: Adobe Illustrator 16.0.0, SVG Export Plug-In . SVG Version: 6.00 Build 0)  -->
<!DOCTYPE svg PUBLIC "-//W3C//DTD SVG 1.1//EN" "http://www.w3.org/Graphics/SVG/1.1/DTD/svg11.dtd">
<svg version="1.1" id="Layer_1" xmlns="http://www.w3.org/2000/svg" xmlns:xlink="http://www.w3.org/1999/xlink" x="0px" y="0px"
	 width="64px" height="64px" viewBox="0 0 64 64" enable-background="new 0 0 64 64" xml:space="preserve">
<path d="M49.373,26.063C48.842,16.87,41.203,9.67,31.98,9.67c-0.326,0-0.656,0.009-0.986,0.027
	c-9.576,0.553-16.918,8.796-16.365,18.374c0.373,6.439,4.24,12.112,10.092,14.803l0.137,0.063l0.102,0.111
	c3.359,3.658,6.893,8.793,7.285,9.366l1.295,1.915l1.109-2.001c0.916-1.633,3.898-6.922,5.924-10.025l0.096-0.146l0.152-0.09
	C46.387,38.789,49.744,32.507,49.373,26.063z M45.645,21.912l-0.301,0.005l-0.395-0.432l-0.078-0.696l-0.402,0.221l-0.217,0.851
	l-0.584-0.621l-0.023-0.588l-0.564-0.484l-0.209-0.206h-0.652l0.207,0.582l0.787,0.438l0.135,0.146l-0.17,0.084l0.008,0.462
	l-0.383,0.161l-0.328-0.072l-0.205-0.29l0.533,0.028l0.143-0.193l-1.18-0.795l-0.09-0.34l-0.479,0.434l-0.486-0.1l-0.738,0.961
	l-0.145,0.377l-0.473,0.043l-0.701,0.004l-0.418-0.196l-0.121-0.83l0.148-0.396l0.711-0.157l0.777,0.157l0.096-0.431l-0.332-0.077
	l0.113-0.67l0.781-0.122l0.547-0.771l0.564-0.094l0.51,0.074h0.188l-0.104-0.725l-0.619,0.25l-0.217-0.542l-0.359-0.049
	l-0.068-0.372l0.293-0.318l0.697-0.272l0.012-0.021C43.514,17.855,44.828,19.758,45.645,21.912z M39.578,18.223l-0.342-0.214
	l-0.238-0.163v-0.239l0.139-0.213l0.496-0.101l0.125,0.604l0.264,0.426l0.176,0.201l0.318,0.126l-0.299,0.357l-0.584,0.057h-0.439
	l0.049-0.521l0.365-0.076L39.578,18.223z M39.182,18.097l-0.025,0.326l-0.621,0.438h-0.352v-0.313l0.303-0.483l0.404-0.094
	L39.182,18.097z M23.633,15.144l0.305-0.002l0.34,0.188l0.641,0.137l0.049,0.251l1.018,0.037l-0.139-0.325l-0.902-0.026l0.213-0.199
	l-0.074-0.239h-0.818l0.893-0.666h0.852l0.402,0.555l0.666,0.037l0.4-0.39l0.303,0.15l-0.553,0.539c0,0-0.766,0.014-0.729,0.014
	c0.039,0,0.063,0.527,0.063,0.527l0.928-0.025l0.102-0.251l0.641-0.037l0.076-0.377l-0.377-0.063l0.125-0.34l0.289-0.087
	l1.004,0.051l-0.553,0.501l0.088,0.389l0.578,0.089l-0.039-0.703l0.555-0.288l0.979-0.113l1.418,0.627v0.541l0.451,0.111
	l-0.227,0.428h-0.641l-0.189,0.489l-1.463-0.346l1.15-0.612l-0.438-0.373l-0.992,0.126l-0.086,0.091l-0.004-0.001l-0.018,0.021
	l-0.285,0.297l-0.471,0.04l0.037,0.233l0.166,0.067l-0.006,0.079l-0.385,0.056l-0.029,0.222L28.58,16.59l-0.066-0.442l-0.658,0.202
	l-1.348,0.787l0.152,0.555l0.375,0.245l0.752,0.104v0.855l0.348-0.057l0.322-0.668l0.799-0.254v-1.025l0.447-0.337l1.074,0.254
	l-0.074,0.678h0.287l0.793-0.388l0.037,0.89l0.576,0.352l-0.023,0.528l-0.553,0.188l0.037,0.174l0.664,0.303l-0.012,0.364
	l-0.193,0.016c-0.002-0.006-0.002-0.01-0.002-0.01l-0.838-0.259l-0.037-0.27l0.246-0.168v-0.245l-0.266-0.066l-0.064,0.226
	l-0.463,0.071l-0.047-0.014v0.022l-0.158,0.024l-0.131-0.264l-0.152-0.066h-0.328l-0.152,0.122v0.272l0.283,0.095l0.277,0.038
	l-0.061,0.028l-0.254,0.281l-0.113-0.14l-0.244-0.066l-0.668,0.631l0.086,0.07l-0.988,0.547l-0.928,0.967l-0.064,0.43l-0.932,0.612
	l-0.461,0.465l0.053,0.929l-0.641-0.299l0.004-0.543l-1.781,0.001l-0.924,0.467l-0.4,0.738l-0.158,0.586l0.26,0.568l0.727,0.088
	l1.156-0.773l0.1,0.384L23.9,26.061l0.879,0.15l0.088,1.358l1.203,0.203l0.768-0.885l0.93,0.189l0.324,0.453l0.893-0.053
	l0.023-0.263l0.49,0.238l0.551,0.866l0.955,0.013l0.352,0.615l0.051,0.752l1.053,0.402l1.332,0.014l0.389,0.638l0.59,0.188
	l-0.113,0.528l-0.645,0.82l-0.189,1.818l-0.584,0.462l-0.865-0.025l-0.291,0.501l0.215,0.942l-0.941,1.205l-0.301,0.552
	l-0.898,0.432l-0.59,0.089l-0.023,0.252l0.414,0.117l-0.051,0.271l-0.369,0.357l0.225,0.283l0.445,0.014l-0.025,0.344l-0.119,0.339
	l-0.037,0.276l0.66,0.557l-0.088,0.288l-0.898-0.017l-0.895-0.781l-0.697-1.225l0.098-1.182l-0.525-0.704l0.211-1.191l-0.313-0.088
	v-2.585c0,0-0.879-0.666-0.93-0.666c-0.049,0-0.463-0.111-0.463-0.111l-0.088-0.49l-1.143-1.432l0.113-0.515l0.037-0.841
	l0.791-0.552l-0.113-0.942l-1.154-0.086l-0.904-1.029l-0.641-0.177l-0.414-0.075l0.049-0.376l-0.525-0.075v0.213l-1.318-0.326
	l-0.529-0.813l0.217-0.392l-0.836-1.219l-0.143-0.892h-0.34l0.113,0.866l0.576,0.892l-0.063,0.353l-0.488-0.076l-0.604-1.026v-1.195
	l-0.568-0.273C19.217,19.414,21.135,16.904,23.633,15.144z M31.164,19.846l-0.084,0.175l-0.213,0.018l-0.045,0.209l-0.166,0.103
	l-0.266,0.021c-0.008-0.063-0.014-0.109-0.014-0.109h-0.104v-0.224h0.434l0.088-0.229l0.174-0.004L31.164,19.846z M30.01,20.187
	l-0.031,0.22l-0.316,0.026l0.02-0.22l0.139-0.175L30.01,20.187z M33.84,42.354c0.002,0,0.004-0.001,0.008-0.001l-0.008,0.003
	C33.84,42.354,33.84,42.354,33.84,42.354z M43.266,36.305v-0.43l-0.576-0.777v-1.207l-0.441-0.438l-0.037-0.502l0.559-1.066
	l-1.059-1.87l0.125-1.269l-0.953-0.1l-0.352-0.352h-0.643l-0.326,0.301h-1.127l-0.039,0.102h-0.629l-1.441-1.644l0.012-1.281
	l0.238-0.088l0.09-0.489h-0.34l-0.139-0.515l1.668-1.204v-0.854l0.818-0.453l0.332,0.033h0.672l0.525-0.284l1.695-0.132v0.867
	l1.336,0.34l0.264,0.188h0.246v-0.473l0.771-0.072l0.734,0.545h0.803c0.271,0.978,0.449,1.994,0.51,3.044
	C46.775,29.924,45.543,33.515,43.266,36.305z"/>
</svg>
