<?xml version="1.0" encoding="utf-8"?>
<!-- Generator: Adobe Illustrator 16.0.0, SVG Export Plug-In . SVG Version: 6.00 Build 0)  -->
<!DOCTYPE svg PUBLIC "-//W3C//DTD SVG 1.1//EN" "http://www.w3.org/Graphics/SVG/1.1/DTD/svg11.dtd">
<svg version="1.1" id="Layer_1" xmlns="http://www.w3.org/2000/svg" xmlns:xlink="http://www.w3.org/1999/xlink" x="0px" y="0px"
	 width="64px" height="64px" viewBox="0 0 64 64" enable-background="new 0 0 64 64" xml:space="preserve">
<path d="M56.365,31.603c-0.035-2.238-0.371-4.404-0.974-6.46c-0.222-0.759-0.479-1.501-0.771-2.228
	c-0.593-1.475-1.325-2.879-2.183-4.195c-0.389-0.597-0.803-1.175-1.24-1.734c-1.201-1.534-2.58-2.92-4.107-4.129
	c-0.523-0.413-1.062-0.809-1.617-1.179c-3.863-2.572-8.495-4.075-13.474-4.075c-4.407,0-8.54,1.182-12.111,3.236
	c-0.587,0.337-1.159,0.696-1.714,1.079c-1.568,1.085-3.006,2.348-4.279,3.761c-0.492,0.546-0.961,1.112-1.402,1.7
	c-1.221,1.628-2.239,3.413-3.026,5.318c-0.302,0.729-0.567,1.474-0.798,2.235c-0.619,2.045-0.971,4.202-1.026,6.433
	c-0.005,0.204-0.016,0.406-0.016,0.611c0,0.745,0.039,1.48,0.104,2.208c0.246,2.717,0.939,5.304,2.005,7.691
	c0.554,1.239,1.204,2.426,1.948,3.546c4.252,6.403,11.446,10.68,19.638,10.906c0.003,0.038,0.006,0.064,0.006,0.069l0.591-0.051
	c0.027,0,0.054,0.003,0.081,0.003c8.055,0,15.206-3.929,19.646-9.968c0.776-1.057,1.467-2.178,2.067-3.354
	c1.348-2.636,2.233-5.545,2.539-8.623c0.08-0.799,0.122-1.609,0.122-2.429C56.374,31.852,56.366,31.728,56.365,31.603z
	 M27.323,10.103c0.183-0.039,0.367-0.074,0.552-0.109c-0.771,1.354-1.814,3.336-2.853,5.767c-0.736-0.353-1.434-0.738-2.047-1.179
	c2.34-2.757,4.316-4.418,4.364-4.458L27.323,10.103z M22.458,23.233c-1.471-0.609-2.809-1.345-3.986-2.182
	c1.006-1.83,2.146-3.495,3.268-4.943c0.764,0.561,1.614,1.062,2.534,1.497C23.608,19.329,22.977,21.222,22.458,23.233z
	 M30.544,27.126c-0.032,1.325-0.062,2.688-0.084,4.079c-0.007,0.412-0.012,0.823-0.016,1.235c-2.542-0.113-4.975-0.489-7.251-1.075
	c0.094-1.873,0.352-3.716,0.717-5.492C25.971,26.523,28.203,26.951,30.544,27.126z M22.002,25.186
	c-0.381,1.807-0.656,3.688-0.777,5.613c-2.01-0.655-3.862-1.49-5.523-2.467c0.398-1.93,1.057-3.777,1.867-5.507
	C18.891,23.737,20.379,24.532,22.002,25.186z M21.164,32.858c-0.007,2.18,0.171,4.283,0.488,6.266
	c-2.059-0.537-4.001-1.227-5.799-2.05c-0.382-1.636-0.598-3.344-0.568-5.104c0.009-0.524,0.047-1.044,0.099-1.561
	C17.145,31.384,19.082,32.212,21.164,32.858z M22.052,41.274c0.504,2.369,1.173,4.518,1.872,6.406
	c-1.254-0.242-2.477-0.534-3.662-0.875c-1.395-2.076-2.754-4.542-3.699-7.277C18.292,40.229,20.128,40.814,22.052,41.274z
	 M23.779,39.621c-0.36-1.965-0.594-4.051-0.622-6.216c2.3,0.565,4.738,0.927,7.277,1.036c0,2.033,0.028,4.043,0.075,5.972
	C28.182,40.327,25.929,40.055,23.779,39.621z M30.565,42.417c0.069,2.183,0.158,4.228,0.251,6.044
	c-1.563-0.059-3.093-0.193-4.586-0.401c-0.725-1.82-1.444-3.958-2.006-6.322C26.264,42.11,28.385,42.342,30.565,42.417z
	 M30.598,25.126c-2.211-0.17-4.312-0.577-6.238-1.192c0.508-1.986,1.131-3.861,1.79-5.568c1.438,0.491,2.997,0.833,4.643,0.99
	C30.723,21.135,30.656,23.073,30.598,25.126z M23.014,11.504c-0.488,0.516-1.011,1.094-1.552,1.729
	c-0.202-0.216-0.414-0.428-0.588-0.655C21.563,12.18,22.28,11.827,23.014,11.504z M19.204,13.639
	c0.296,0.396,0.63,0.777,0.991,1.144c-1.137,1.456-2.292,3.13-3.327,4.977c-0.75-0.692-1.408-1.431-1.946-2.214
	C16.174,16.065,17.613,14.752,19.204,13.639z M13.661,19.183c0.646,0.846,1.409,1.641,2.267,2.382
	c-0.845,1.749-1.556,3.623-2.025,5.598c-1.124-0.809-2.132-1.688-2.997-2.634C11.584,22.613,12.516,20.819,13.661,19.183z
	 M9.666,33.263c-0.025-0.426-0.04-0.854-0.04-1.286c0-1.826,0.226-3.6,0.64-5.3c0.962,0.933,2.05,1.798,3.238,2.591
	c-0.124,0.875-0.204,1.765-0.219,2.669c-0.022,1.365,0.09,2.694,0.298,3.984C12.155,35.119,10.838,34.232,9.666,33.263z
	 M13.122,43.963c-1.524-2.393-2.605-5.091-3.13-7.982c1.267,0.898,2.651,1.717,4.13,2.451c0.729,2.716,1.865,5.206,3.13,7.386
	C15.801,45.271,14.418,44.651,13.122,43.963z M15.79,47.374c1.02,0.411,2.081,0.776,3.165,1.113
	c0.843,1.209,1.686,2.278,2.455,3.183C19.316,50.538,17.418,49.087,15.79,47.374z M25.935,53.507
	c-0.263-0.236-1.902-1.748-3.821-4.167c0.875,0.2,1.768,0.372,2.673,0.522c0.672,1.577,1.318,2.869,1.835,3.826
	C26.392,53.631,26.162,53.571,25.935,53.507z M29.201,54.168c-0.346-0.572-1.15-1.97-2.063-3.977
	c1.242,0.143,2.504,0.238,3.788,0.282c0.089,1.553,0.176,2.863,0.245,3.854C30.507,54.304,29.85,54.249,29.201,54.168z
	 M30.873,17.354c-1.412-0.14-2.74-0.435-3.972-0.84c1.426-3.335,2.859-5.811,3.497-6.853c0.284-0.02,0.572-0.025,0.858-0.035
	C31.174,11.063,31.024,13.795,30.873,17.354z M53.155,24.708c-0.77,0.816-1.648,1.582-2.613,2.295
	c-0.402-1.639-0.968-3.209-1.638-4.694c0.806-0.611,1.547-1.266,2.201-1.963C51.939,21.711,52.627,23.173,53.155,24.708z
	 M42.047,23.713c-0.492-1.993-1.096-3.878-1.742-5.602c1.038-0.402,1.993-0.892,2.868-1.444c1.108,1.481,2.218,3.167,3.177,5.007
	C45.063,22.475,43.619,23.162,42.047,23.713z M47.207,23.462c0.659,1.501,1.195,3.087,1.546,4.731
	c-1.675,1.011-3.554,1.873-5.596,2.552c-0.112-1.737-0.348-3.44-0.675-5.083C44.198,25.073,45.783,24.33,47.207,23.462z
	 M42.345,41.218c1.977-0.48,3.855-1.095,5.625-1.829c-0.987,2.901-2.445,5.507-3.924,7.67c-1.18,0.312-2.399,0.568-3.644,0.782
	C41.128,45.9,41.825,43.676,42.345,41.218z M42.739,39.086c0.315-1.986,0.493-4.093,0.482-6.276
	c2.118-0.669,4.085-1.524,5.865-2.533c0.06,0.56,0.103,1.123,0.112,1.693c0.028,1.719-0.179,3.387-0.544,4.987
	C46.828,37.813,44.842,38.528,42.739,39.086z M45.879,14.447c1.539,1.221,2.916,2.636,4.088,4.214
	c-0.568,0.651-1.225,1.265-1.948,1.84c-0.979-1.851-2.089-3.541-3.204-5.03C45.195,15.145,45.554,14.804,45.879,14.447z
	 M44.277,13.286c-0.208,0.22-0.447,0.424-0.683,0.63c-0.607-0.74-1.198-1.413-1.753-2.014C42.683,12.316,43.5,12.773,44.277,13.286z
	 M37.288,10.246c0.532,0.462,2.487,2.22,4.665,4.868c-0.725,0.439-1.517,0.831-2.375,1.157c-1.084-2.608-2.196-4.741-3.017-6.188
	C36.805,10.134,37.047,10.188,37.288,10.246z M33.26,9.649c0.252,0.015,0.503,0.03,0.753,0.053c0.672,1.1,2.167,3.691,3.626,7.168
	c-1.481,0.372-3.081,0.586-4.761,0.586c-0.003,0-0.005,0-0.007,0C33.024,13.819,33.178,11.051,33.26,9.649z M32.789,19.454
	c0.03,0,0.06,0.002,0.089,0.002c1.941,0,3.792-0.264,5.502-0.724c0.646,1.713,1.252,3.589,1.738,5.568
	c-2.242,0.59-4.682,0.921-7.24,0.921c-0.095,0-0.188-0.006-0.282-0.007C32.654,23.166,32.721,21.229,32.789,19.454z M32.46,31.238
	c0.022-1.373,0.051-2.717,0.083-4.024c0.112,0.001,0.223,0.008,0.335,0.008c2.701,0,5.283-0.35,7.67-0.977
	c0.324,1.648,0.555,3.352,0.643,5.083c-2.716,0.713-5.663,1.115-8.746,1.143C32.448,32.06,32.453,31.648,32.46,31.238z
	 M32.435,34.471c3.084-0.025,6.042-0.411,8.794-1.101c-0.026,2.165-0.257,4.251-0.616,6.216c-2.567,0.529-5.285,0.825-8.102,0.851
	C32.463,38.51,32.435,36.503,32.435,34.471z M32.566,42.429c2.631-0.026,5.174-0.291,7.607-0.746
	c-0.575,2.437-1.319,4.633-2.064,6.492c-1.721,0.205-3.484,0.323-5.289,0.332C32.727,46.686,32.637,44.63,32.566,42.429z
	 M35.232,54.089c-0.678,0.1-1.364,0.166-2.06,0.202c-0.068-0.963-0.154-2.251-0.243-3.785c1.45-0.01,2.876-0.087,4.275-0.222
	C36.347,52.16,35.593,53.486,35.232,54.089z M38.796,53.278c-0.314,0.101-0.636,0.187-0.956,0.273
	c0.488-0.913,1.086-2.114,1.703-3.553c0.901-0.133,1.793-0.281,2.665-0.463C40.683,51.437,39.356,52.749,38.796,53.278z
	 M43.552,51.098c0.576-0.701,1.181-1.483,1.79-2.342c0.734-0.21,1.46-0.432,2.167-0.676C46.313,49.231,44.979,50.232,43.552,51.098z
	 M50.286,44.845c-1.033,0.475-2.122,0.897-3.239,1.287c1.364-2.298,2.597-4.953,3.359-7.866c1.258-0.642,2.465-1.328,3.566-2.091
	C53.367,39.354,52.086,42.294,50.286,44.845z M54.318,33.472c-1.032,0.83-2.169,1.599-3.393,2.303
	c0.192-1.245,0.295-2.524,0.273-3.838c-0.016-0.957-0.104-1.896-0.242-2.82c1.022-0.699,1.97-1.45,2.82-2.254
	c0.386,1.644,0.597,3.354,0.597,5.114C54.374,32.479,54.352,32.977,54.318,33.472z"/>
</svg>
