<?xml version="1.0" encoding="utf-8"?>
<!-- Generator: Adobe Illustrator 16.0.0, SVG Export Plug-In . SVG Version: 6.00 Build 0)  -->
<!DOCTYPE svg PUBLIC "-//W3C//DTD SVG 1.1//EN" "http://www.w3.org/Graphics/SVG/1.1/DTD/svg11.dtd">
<svg version="1.1" id="Layer_1" xmlns="http://www.w3.org/2000/svg" xmlns:xlink="http://www.w3.org/1999/xlink" x="0px" y="0px"
	 width="64px" height="64px" viewBox="0 0 64 64" enable-background="new 0 0 64 64" xml:space="preserve">
<g>
	<path d="M27.183,22.194l-5.134-7.015c-2.102,2.032-2.361,5.907-0.979,10.196C23.08,24.664,25.165,23.596,27.183,22.194z"/>
	<path d="M40.648,40.593l-5.134-7.015c-1.948,1.5-3.597,3.167-4.883,4.868C34.303,41.062,38.076,41.983,40.648,40.593z"/>
	<path d="M25.618,33.65c1.227,1.528,2.553,2.858,3.911,3.96c1.361-1.823,3.098-3.59,5.151-5.171l-2.583-3.531L25.618,33.65z"/>
	<path d="M21.536,26.677c0.762,1.939,1.835,3.93,3.226,5.85l6.502-4.758l-3.247-4.436C25.891,24.813,23.684,25.932,21.536,26.677z"
		/>
	<path d="M19.018,18.358c-1.687,2.394-2.648,5.19-2.844,8.052c1.124-0.059,2.328-0.264,3.575-0.615
		C18.898,23.1,18.642,20.523,19.018,18.358z"/>
	<path d="M23.622,33.361c-1.481-2.045-2.622-4.177-3.42-6.266c-1.407,0.393-2.774,0.619-4.06,0.674
		c0.056,3.099,1.009,6.211,2.945,8.91L23.622,33.361z"/>
	<path d="M36.702,42.521c-2.179-0.297-4.557-1.319-6.868-2.945c-0.71,1.081-1.268,2.163-1.664,3.216
		C30.955,43.472,33.911,43.406,36.702,42.521z"/>
	<path d="M39.979,21.391l4.6-3.366c-1.987-2.663-4.664-4.512-7.602-5.501c-0.449,1.23-1.093,2.487-1.914,3.732
		C36.805,17.643,38.483,19.369,39.979,21.391z"/>
	<path d="M26.862,42.416c0.44-1.208,1.069-2.442,1.87-3.666c-1.489-1.184-2.932-2.614-4.254-4.266l-4.515,3.304
		C21.859,39.986,24.259,41.539,26.862,42.416z"/>
	<path d="M43.559,27.864c1.436-0.406,2.829-0.639,4.138-0.695c-0.047-2.747-0.804-5.503-2.325-7.975l-4.582,3.353
		C41.959,24.298,42.88,26.097,43.559,27.864z"/>
	<path d="M42.232,28.285c-0.639-1.622-1.501-3.281-2.583-4.904l-6.412,4.693l2.584,3.531C37.924,30.142,40.107,29.031,42.232,28.285
		z"/>
	<path d="M42.698,29.589c-1.988,0.711-4.049,1.769-6.043,3.155l5.126,7.006C43.833,37.7,44.075,33.847,42.698,29.589z"/>
	<path d="M47.659,28.53c-1.145,0.06-2.372,0.272-3.643,0.635c0.865,2.729,1.119,5.339,0.727,7.523
		C46.479,34.271,47.462,31.434,47.659,28.53z"/>
	<path d="M35.67,12.142c-2.828-0.69-5.833-0.607-8.66,0.314c2.2,0.288,4.609,1.321,6.95,2.971
		C34.691,14.324,35.266,13.217,35.67,12.142z"/>
	<path d="M33.156,16.557c-3.642-2.601-7.387-3.539-9.961-2.203l5.127,7.005C30.247,19.879,31.877,18.236,33.156,16.557z"/>
	<path d="M34.256,17.397c-1.353,1.798-3.07,3.542-5.1,5.102l3.247,4.436l6.435-4.71C37.434,20.326,35.867,18.705,34.256,17.397z"/>
	<path d="M13.851,35.641c-0.568,0.374-1.088,0.561-1.559,0.561c-0.709,0-1.202-0.336-1.479-1.009h1.502l0.414-0.997h-2.117
		c-0.008-0.037-0.012-0.075-0.012-0.112c0-0.045,0-0.094,0-0.146c0-0.045,0-0.086,0-0.123c0-0.038,0.004-0.075,0.012-0.112h2.309
		l0.414-0.997h-2.544c0.284-0.688,0.751-1.031,1.401-1.031c0.426,0,0.862,0.146,1.311,0.437l0.795-1.692
		c-0.791-0.418-1.542-0.627-2.252-0.627c-0.896,0-1.666,0.266-2.309,0.796c-0.627,0.515-1.061,1.221-1.299,2.118H7.956l-0.414,0.997
		h0.75c-0.008,0.03-0.011,0.067-0.011,0.112c0,0.037,0,0.082,0,0.134s0,0.101,0,0.146c0,0.038,0.003,0.071,0.011,0.101H7.979
		l-0.415,0.997h0.875c0.23,0.874,0.656,1.577,1.277,2.107c0.627,0.515,1.389,0.773,2.285,0.773c0.717,0,1.334-0.116,1.85-0.347
		V35.641z"/>
	<path d="M56.358,33.284c-0.068-0.269-0.215-0.517-0.443-0.745c-0.229-0.228-0.557-0.437-0.986-0.627s-1.006-0.364-1.73-0.521
		v-1.255c0.142,0.03,0.262,0.063,0.358,0.101c0.097,0.038,0.177,0.086,0.241,0.146c0.063,0.06,0.111,0.139,0.145,0.235
		c0.034,0.097,0.059,0.217,0.073,0.359h2.141c0-0.456-0.081-0.848-0.241-1.177c-0.16-0.329-0.377-0.6-0.65-0.813
		c-0.271-0.213-0.588-0.37-0.946-0.47c-0.358-0.101-0.731-0.151-1.12-0.151v-0.896h-0.583v0.896c-0.351,0-0.706,0.05-1.064,0.151
		c-0.358,0.101-0.682,0.257-0.97,0.47c-0.287,0.213-0.522,0.486-0.705,0.818c-0.184,0.333-0.275,0.727-0.275,1.182
		c0,0.321,0.049,0.592,0.146,0.812c0.097,0.221,0.234,0.411,0.414,0.572s0.396,0.299,0.65,0.415s0.533,0.226,0.84,0.331
		c0.172,0.06,0.338,0.11,0.499,0.151c0.16,0.041,0.315,0.084,0.465,0.129v1.58c-0.217-0.015-0.385-0.062-0.505-0.14
		c-0.119-0.078-0.211-0.171-0.273-0.28c-0.064-0.108-0.105-0.222-0.123-0.342c-0.02-0.12-0.029-0.228-0.029-0.325h-2.397
		c0.015,0.366,0.086,0.721,0.213,1.064c0.127,0.344,0.323,0.648,0.589,0.914c0.265,0.265,0.604,0.478,1.02,0.639
		c0.414,0.161,0.916,0.241,1.507,0.241v1.109h0.583v-1.109c0.59,0,1.092-0.079,1.507-0.235s0.753-0.358,1.015-0.605
		c0.261-0.247,0.449-0.523,0.565-0.829s0.173-0.612,0.173-0.919C56.458,33.844,56.425,33.553,56.358,33.284z M52.615,31.255
		c-0.53-0.104-0.796-0.306-0.796-0.605c0-0.224,0.082-0.366,0.246-0.426c0.165-0.06,0.348-0.089,0.55-0.089V31.255z M53.858,34.78
		c-0.179,0.108-0.398,0.173-0.66,0.196v-1.423c0.291,0.097,0.519,0.196,0.684,0.297c0.164,0.101,0.246,0.249,0.246,0.442
		C54.128,34.509,54.038,34.671,53.858,34.78z"/>
	<path d="M51.46,38.712l-5.957,4.206l2.977,0.757c-1.416,2.179-5.564,6.639-15.807,6.639c-11.776-0.028-16.129-7.352-17.453-10.5
		l-1.844,0.775c1.479,3.515,6.319,11.693,19.294,11.724c11.981,0,16.492-5.771,17.833-8.125l2.568,0.653L51.46,38.712z"/>
</g>
</svg>
