<?xml version="1.0" encoding="utf-8"?>
<!-- Generator: Adobe Illustrator 16.0.0, SVG Export Plug-In . SVG Version: 6.00 Build 0)  -->
<!DOCTYPE svg PUBLIC "-//W3C//DTD SVG 1.1//EN" "http://www.w3.org/Graphics/SVG/1.1/DTD/svg11.dtd">
<svg version="1.1" id="Layer_1" xmlns="http://www.w3.org/2000/svg" xmlns:xlink="http://www.w3.org/1999/xlink" x="0px" y="0px"
	 width="64px" height="64px" viewBox="0 0 64 64" enable-background="new 0 0 64 64" xml:space="preserve">
<g>
	<path d="M49.58,28.058c0-10.475-8.521-18.997-18.998-18.997c-0.4,0-0.797,0.017-1.191,0.041v2.406
		c0.395-0.028,0.789-0.061,1.191-0.061c9.16,0,16.611,7.452,16.611,16.611c0,9.159-7.451,16.61-16.611,16.61
		c-0.268,0-0.529-0.027-0.795-0.04v0.897v1.509v4.722h-5.898v3.182h13.389v-3.182h-5.104v-4.774
		C41.906,46.171,49.58,37.997,49.58,28.058z"/>
	<path d="M29.385,42.922c0.004,0,0.008,0,0.012,0c0.008,0,0.016,0,0.023,0c4.627,0,8.77-2.107,11.523-5.41
		c0.252-0.303,0.492-0.618,0.721-0.94c1.732-2.446,2.756-5.43,2.756-8.649c0-3.219-1.023-6.203-2.756-8.649
		c-0.229-0.323-0.467-0.637-0.721-0.94c-2.754-3.304-6.896-5.411-11.523-5.411c-0.008,0-0.016,0-0.023,0c-0.004,0-0.008,0-0.012,0
		c-0.018,0-0.035,0.002-0.053,0.002c-4.592,0.027-8.699,2.127-11.436,5.41c-0.252,0.303-0.492,0.617-0.721,0.939
		c-1.732,2.446-2.756,5.429-2.756,8.649s1.023,6.203,2.756,8.649c0.229,0.323,0.469,0.637,0.721,0.94
		c2.736,3.282,6.844,5.382,11.436,5.409C29.35,42.92,29.367,42.922,29.385,42.922z M33.695,41.009
		c1.4-1.335,2.564-3.301,3.361-5.667c1.08,0.399,2.053,0.881,2.889,1.429C38.311,38.712,36.158,40.202,33.695,41.009z
		 M40.672,35.833c-0.949-0.635-2.049-1.188-3.27-1.642c0.434-1.592,0.711-3.332,0.789-5.165h4.949
		C42.939,31.548,42.053,33.876,40.672,35.833z M43.186,27.796h-4.969c-0.01-2.192-0.303-4.27-0.813-6.143
		c1.217-0.453,2.318-1.006,3.266-1.64C42.227,22.221,43.158,24.9,43.186,27.796z M39.947,19.073
		c-0.836,0.548-1.811,1.031-2.893,1.431c-0.797-2.365-1.959-4.333-3.359-5.667C36.158,15.643,38.314,17.132,39.947,19.073z
		 M30.035,14.207c2.498,0.386,4.648,2.973,5.873,6.677c-1.766,0.522-3.758,0.839-5.873,0.891V14.207z M30.035,23.004
		c2.23-0.053,4.336-0.395,6.213-0.963c0.461,1.75,0.729,3.696,0.738,5.755h-6.951V23.004z M30.035,29.027h6.926
		c-0.074,1.698-0.322,3.309-0.707,4.779c-1.879-0.569-3.986-0.912-6.219-0.965V29.027z M30.035,34.071
		c2.117,0.052,4.109,0.368,5.875,0.891c-1.223,3.705-3.377,6.29-5.875,6.676V34.071z M25.035,14.873
		c-1.379,1.33-2.523,3.274-3.314,5.607c-1.057-0.396-2.01-0.871-2.83-1.409C20.5,17.16,22.617,15.688,25.035,14.873z M18.168,20.013
		c0.932,0.623,2.01,1.167,3.203,1.616c-0.514,1.88-0.811,3.966-0.82,6.167h-4.896C15.68,24.9,16.611,22.221,18.168,20.013z
		 M15.699,29.027h4.875c0.08,1.842,0.359,3.591,0.797,5.19c-1.193,0.449-2.271,0.993-3.203,1.616
		C16.789,33.876,15.9,31.548,15.699,29.027z M18.895,36.771c0.82-0.537,1.77-1.011,2.826-1.406c0.789,2.334,1.936,4.277,3.314,5.607
		C22.617,40.157,20.504,38.683,18.895,36.771z M28.805,41.647c-2.525-0.347-4.705-2.937-5.941-6.667
		c1.781-0.535,3.799-0.858,5.941-0.91V41.647z M28.805,32.84c-2.26,0.054-4.391,0.404-6.287,0.985
		c-0.387-1.475-0.637-3.093-0.711-4.799h6.998V32.84z M28.805,27.796h-7.023c0.01-2.067,0.281-4.02,0.742-5.775
		c1.895,0.58,4.023,0.93,6.281,0.983V27.796z M28.805,21.774c-2.143-0.052-4.158-0.375-5.938-0.909
		c1.236-3.729,3.412-6.321,5.938-6.668V21.774z"/>
</g>
</svg>
