<?xml version="1.0" encoding="utf-8"?>
<!-- Generator: Adobe Illustrator 16.0.0, SVG Export Plug-In . SVG Version: 6.00 Build 0)  -->
<!DOCTYPE svg PUBLIC "-//W3C//DTD SVG 1.1//EN" "http://www.w3.org/Graphics/SVG/1.1/DTD/svg11.dtd">
<svg version="1.1" id="Layer_1" xmlns="http://www.w3.org/2000/svg" xmlns:xlink="http://www.w3.org/1999/xlink" x="0px" y="0px"
	 width="64px" height="64px" viewBox="0 0 64 64" enable-background="new 0 0 64 64" xml:space="preserve">
<g>
	<path d="M23.234,53.667c2.719-1.61,7.495-4.761,12.235-9.459c-0.797-1.072-1.624-2.195-2.461-3.342
		c-0.364,0.003-0.728,0.006-1.092,0.006c-0.012,0-0.023,0-0.035,0c-0.879,0-1.746-0.022-2.601-0.063
		c-0.585,1.39-1.959,2.366-3.562,2.366c-0.408,0-0.794-0.081-1.164-0.198c-2.294,3.75-4.047,6.899-5.056,8.768
		C20.678,52.492,21.927,53.137,23.234,53.667z"/>
	<path d="M53.376,22.537c-0.997,1.719-2.168,3.679-3.486,5.784c2.087,0.58,3.905,1.196,5.402,1.757
		C55.075,27.412,54.412,24.875,53.376,22.537z"/>
	<path d="M45.165,18.455c0.11,0.36,0.188,0.734,0.188,1.13c0,1.139-0.502,2.152-1.286,2.859c0.362,0.576,0.732,1.15,1.115,1.718
		c0.824,1.223,1.683,2.428,2.554,3.6c0.041,0.01,0.084,0.02,0.125,0.03c1.749-2.77,3.248-5.306,4.436-7.386
		c-0.943-1.649-2.082-3.171-3.386-4.537C47.813,16.571,46.541,17.433,45.165,18.455z"/>
	<path d="M40.706,35.448c0.624,0,1.205,0.162,1.727,0.424c1.513-2.108,2.934-4.211,4.241-6.227
		c-0.019-0.024-0.036-0.049-0.055-0.073c-3.46-0.803-7.454-1.427-11.723-1.529c-0.61,0.726-1.212,1.476-1.797,2.256
		c-0.898,1.198-1.769,2.404-2.609,3.603c1.125,1.617,2.317,3.288,3.524,4.95c0.969-0.016,1.932-0.041,2.883-0.075
		C37.16,36.899,38.756,35.448,40.706,35.448z"/>
	<path d="M37.769,41.793c-0.259-0.307-0.48-0.646-0.636-1.023c-0.556,0.021-1.116,0.037-1.68,0.052
		c0.479,0.652,0.957,1.298,1.43,1.935C37.18,42.442,37.475,42.121,37.769,41.793z"/>
	<path d="M25.72,35.448c0.405,0,0.787,0.08,1.153,0.195c0.387-0.578,0.783-1.16,1.186-1.745c-0.31-0.45-0.621-0.902-0.915-1.339
		c-0.866-1.286-1.688-2.726-2.455-4.243c-6.898,0.418-12.815,1.194-15.966,1.659C8.666,30.643,8.63,31.317,8.63,32
		c0,0.687,0.036,1.366,0.094,2.038c2.573,1.084,7.385,2.867,13.385,3.939C22.653,36.504,24.058,35.448,25.72,35.448z"/>
	<path d="M32.318,28.036c-1.845,0.02-3.668,0.078-5.442,0.163c0.61,1.15,1.253,2.244,1.926,3.243
		c0.156,0.232,0.317,0.469,0.479,0.706c0.72-1.016,1.46-2.035,2.22-3.047C31.77,28.739,32.043,28.385,32.318,28.036z"/>
	<path d="M29.533,38.816c0.668,0.03,1.345,0.048,2.026,0.052c-0.774-1.075-1.536-2.149-2.282-3.213
		c-0.241,0.354-0.479,0.708-0.715,1.059C29.084,37.285,29.429,38.01,29.533,38.816z"/>
	<path d="M22.871,41.9c-0.479-0.527-0.815-1.181-0.945-1.912c-5.518-0.96-10.036-2.506-12.887-3.647
		c1.088,5.787,4.304,10.82,8.809,14.254C18.889,48.676,20.622,45.574,22.871,41.9z"/>
	<path d="M23.75,26.373c-2.24-4.862-3.948-10.165-4.93-13.673c-5.082,3.478-8.715,8.911-9.827,15.215
		C12.162,27.458,17.527,26.779,23.75,26.373z"/>
	<path d="M25.896,26.245c2.505-0.132,5.119-0.215,7.761-0.216c0.011,0,0.023,0,0.034,0c0.097,0,0.19,0.003,0.286,0.003
		c1.396-1.608,2.827-3.075,4.243-4.406c-0.371-0.593-0.595-1.289-0.595-2.04c0-1.017,0.401-1.934,1.043-2.624
		c-1.654-3.235-2.917-6.161-3.676-8.139c-0.979-0.125-1.977-0.197-2.99-0.197c-4.144,0-8.033,1.083-11.407,2.975
		C21.545,15.058,23.392,20.993,25.896,26.245z"/>
	<path d="M38.222,47.878c-0.482-0.638-1.002-1.33-1.537-2.044c-4.068,4.011-8.121,6.889-10.966,8.678
		c2,0.558,4.106,0.862,6.284,0.862c3.638,0,7.081-0.831,10.15-2.313C41.227,51.852,39.974,50.195,38.222,47.878z"/>
	<path d="M44.413,40.34c-0.452,1.631-1.932,2.834-3.707,2.834c-0.449,0-0.875-0.092-1.276-0.233
		c-0.44,0.497-0.883,0.982-1.327,1.451c2.314,3.092,4.414,5.831,5.854,7.694c4.793-2.859,8.474-7.383,10.248-12.775
		C51.603,39.651,48.228,40.037,44.413,40.34z"/>
	<path d="M36.604,26.108c2.916,0.155,5.676,0.527,8.206,1.016c-0.455-0.635-0.889-1.253-1.286-1.844
		c-0.425-0.631-0.836-1.271-1.238-1.916c-0.258,0.054-0.523,0.084-0.796,0.084c-0.646,0-1.247-0.174-1.782-0.455
		C38.672,23.958,37.631,24.998,36.604,26.108z"/>
	<path d="M40.373,15.906c0.355-0.108,0.725-0.184,1.116-0.184c1.002,0,1.906,0.392,2.593,1.018c1.206-0.892,2.328-1.657,3.331-2.307
		c-2.844-2.497-6.298-4.313-10.112-5.197C38.02,10.984,39.059,13.324,40.373,15.906z"/>
	<path d="M55.37,32.266c-1.489-0.578-3.393-1.249-5.627-1.886c1.816,2.307,3.598,4.404,5.184,6.197
		C55.204,35.181,55.354,33.739,55.37,32.266z"/>
	<path d="M53.01,37.449c-1.635-1.894-3.387-4.017-5.042-6.127c-1.252,1.915-2.601,3.897-4.029,5.883
		c0.224,0.342,0.385,0.724,0.491,1.129C47.692,38.071,50.625,37.748,53.01,37.449z"/>
</g>
</svg>
