<?xml version="1.0" encoding="utf-8"?>
<!-- Generator: Adobe Illustrator 16.0.0, SVG Export Plug-In . SVG Version: 6.00 Build 0)  -->
<!DOCTYPE svg PUBLIC "-//W3C//DTD SVG 1.1//EN" "http://www.w3.org/Graphics/SVG/1.1/DTD/svg11.dtd">
<svg version="1.1" id="Layer_1" xmlns="http://www.w3.org/2000/svg" xmlns:xlink="http://www.w3.org/1999/xlink" x="0px" y="0px"
	 width="64px" height="64px" viewBox="0 0 64 64" enable-background="new 0 0 64 64" xml:space="preserve">
<g>
	<path d="M21.442,23.603l1.357,1.06l1.535-1.965h9.712l1.409,2.714l1.528-0.794l-1.204-2.32l3.345-3.764l-1.287-1.144l-3.188,3.586
		h-4.904l-0.067-6.928c0.145,0.092,0.315,0.145,0.499,0.143c0.373-0.004,0.69-0.229,0.834-0.548
		c0.149,0.316,0.472,0.535,0.844,0.532c0.354-0.005,0.654-0.207,0.808-0.499c0.136,0.351,0.474,0.6,0.871,0.596
		c0.373-0.004,0.69-0.229,0.835-0.548c0.149,0.316,0.471,0.535,0.843,0.532c0.512-0.006,0.923-0.426,0.918-0.937
		c-0.001-0.039-0.008-0.076-0.013-0.114c0.004,0,0.007,0,0.011,0c-0.022-2.243-3.171-4.644-6.931-4.606
		c-3.761,0.036-6.71,2.496-6.688,4.74c0.012,0,0.022,0,0.034-0.001c0.061,0.457,0.45,0.809,0.922,0.805
		c0.373-0.004,0.69-0.229,0.834-0.548c0.15,0.316,0.472,0.535,0.845,0.531c0.353-0.004,0.653-0.206,0.808-0.498
		c0.134,0.351,0.474,0.599,0.871,0.595c0.373-0.003,0.689-0.227,0.834-0.547c0.149,0.316,0.472,0.534,0.844,0.531
		c0.183-0.002,0.351-0.058,0.493-0.15l0.067,6.919h-5.565L21.442,23.603z"/>
	<path d="M42.475,31.847l0.516,0.857c0.027-0.017,2.763-1.633,4.829-0.559c1.313,0.684,2.568,0.893,3.614,0.893
		c1.596,0,2.703-0.487,2.778-0.521L53.8,31.605c-0.024,0.013-2.63,1.157-5.519-0.347C45.722,29.929,42.605,31.769,42.475,31.847z"/>
	<path d="M51.806,44.716c-1.717,1.157-4.558,0.577-4.586,0.572l-0.206,0.979c0.064,0.014,0.842,0.173,1.862,0.173
		c1.077,0,2.425-0.178,3.488-0.894c1.477-0.997,2.649,0.384,2.777,0.543l0.783-0.621C55.297,44.672,53.627,43.494,51.806,44.716z"/>
	<path d="M47.408,49.828l0.5,0.865c2.296-1.326,3.346-0.161,3.386-0.115l0.773-0.635C52.004,49.867,50.474,48.06,47.408,49.828z"/>
	<path d="M49.776,40.858l-0.215,0.977c0.246,0.054,0.464,0.077,0.66,0.077c0.587,0,0.977-0.202,1.306-0.373
		c0.525-0.272,0.939-0.488,2.399,0.242l0.447-0.895C52.6,40,51.855,40.243,51.066,40.651C50.681,40.851,50.401,40.997,49.776,40.858
		z"/>
	<path d="M54.153,33.803c0.055-1.991-3.498,4.366-3.498,4.366h4.878C55.533,38.169,54.1,35.794,54.153,33.803z"/>
	<path d="M48.007,37.881c-0.492-2.425-2.271-3.919-4.654-3.919c-0.027,0-0.055,0-0.082,0l0.058,4
		c0.359-0.011,0.612-0.008,0.758,0.713c0.512,2.526-2.088,8.81-7.693,11.085c-6.863,2.762-11.919,1.575-14.953,0.094
		c-2.693-1.315-4.45-3.17-5.442-4.875l2.696-0.297c0,0-5.419-7.061-5.654-8.725c-0.234-1.663-4.268,9.818-4.268,9.818l2.997-0.33
		c1.34,3.26,4.211,6.193,7.916,8.003c2.666,1.302,5.621,1.953,8.714,1.953c3.076,0,6.29-0.645,9.493-1.933
		C44.799,50.664,49.001,42.786,48.007,37.881z"/>
	<path d="M10.861,13.682c-1.881,1.297-1.783,4.331-1.173,4.677c0.535,0.302,3.032-0.704,4.148-1.972l0.656,1.37l-0.496,0.158
		l0.796,1.665l-0.418,0.134l0.926,1.938l-0.401,0.128l1.018,2.128l-0.308,0.098l1.104,2.31l-0.58,0.185l1.282,2.685l-0.259,0.083
		l0.99,2.072c-0.729,1.585-1.148,3.342-1.148,5.198c0,6.893,5.607,12.5,12.5,12.5s12.5-5.607,12.5-12.5
		c0-1.779-0.379-3.471-1.053-5.005l1.149-1.522l-0.559-0.285l1.245-1.65l-0.381-0.192l1.071-1.42l-0.369-0.188l0.987-1.311
		l-0.263-0.134l0.897-1.19l-0.274-0.139l0.772-1.026l-0.132-0.065l0.181-0.238c0.263,1.156,1.066,2.098,1.482,2.137
		c0.551,0.049,1.747-2.024,0.856-3.46c0.774,0.674,1.829,1.459,2.043,0.959c0.188-0.433-0.102-1.582-0.714-2.312
		c0.693-0.303,1.074-0.684,0.525-1.131c-0.607-0.498-1.354-0.257-2.021,0.197c0.348-0.734,0.419-1.559-0.356-2.223
		c-0.654-0.563-0.993-0.219-1.155,0.462c-0.897-0.363-2.008-0.461-2.364-0.397c-0.556,0.098-0.288,0.877,0.817,1.784
		c-1.59-0.294-3.09,1.207-2.965,1.67c0.11,0.404,1.857,1.137,3.054,1.071l-0.374,0.976l-0.326-0.165l-0.457,1.185l-0.274-0.139
		l-0.53,1.377l-0.265-0.135l-0.583,1.516l-0.201-0.103l-0.634,1.644l-0.381-0.194l-0.735,1.909l-0.172-0.086l-0.101,0.263
		c-1.202-1.575-2.766-2.86-4.57-3.723c-0.023-0.026-0.043-0.048-0.051-0.055l-0.021,0.021c-1.61-0.757-3.406-1.183-5.3-1.183
		c-0.278,0-0.553,0.013-0.826,0.03l-0.001-0.001v0.001c-3.369,0.222-6.369,1.789-8.488,4.161l-0.496-2.862l-0.579,0.186
		l-0.438-2.522l-0.563,0.179l-0.402-2.324l-0.4,0.128l-0.366-2.115l-0.418,0.134l-0.316-1.819l-0.198,0.064l-0.074-0.423
		c1.479,0.914,3.267,1.068,3.716,0.689c0.598-0.504-0.403-3.815-2.795-4.384c1.475-0.091,3.345-0.349,3.029-1.075
		c-0.272-0.629-1.768-1.509-3.141-1.639c0.367-1.003,0.342-1.773-0.672-1.68c-1.124,0.102-1.608,1.099-1.789,2.231
		c-0.431-1.099-1.227-2.008-2.694-1.908c-1.241,0.083-1.213,0.773-0.656,1.63c-1.271,0.53-2.469,1.546-2.755,1.968
		C7.728,13.342,8.813,13.869,10.861,13.682z M44.839,20.882l-0.071,0.184l-0.269-0.138C44.618,20.921,44.732,20.909,44.839,20.882z
		 M18.032,36.808c0.369-0.226,1.351-0.758,2.997-1.269c-0.012,0.332-0.024,0.662-0.024,1.012c0,0.551,0.019,1.073,0.048,1.58
		c-1.557-0.467-2.546-0.959-3.019-1.229C18.033,36.87,18.032,36.839,18.032,36.808z M18.137,38.12
		c0.662,0.327,1.65,0.737,3.001,1.114c0.141,1.379,0.383,2.571,0.673,3.6c-1.589-0.632-2.47-1.289-2.733-1.507
		C18.615,40.326,18.293,39.25,18.137,38.12z M20.201,43.248c0.545,0.278,1.214,0.567,2.013,0.839
		c0.283,0.778,0.583,1.429,0.869,1.959C21.966,45.289,20.991,44.34,20.201,43.248z M26.044,33.525
		c-1.504,0.146-2.807,0.372-3.903,0.635c0.146-1.604,0.43-2.953,0.765-4.063c1.027-0.318,2.275-0.593,3.751-0.753
		C26.394,30.524,26.17,31.905,26.044,33.525z M26.76,44.012c-1.466-0.16-2.713-0.434-3.744-0.751
		c-0.339-1.028-0.633-2.279-0.81-3.758c1.104,0.253,2.397,0.469,3.896,0.604C26.252,41.634,26.488,42.928,26.76,44.012z
		 M25.983,34.564c-0.029,0.618-0.052,1.256-0.052,1.934c0,0.916,0.032,1.769,0.086,2.568c-1.521-0.149-2.828-0.381-3.914-0.648
		c-0.043-0.593-0.073-1.207-0.073-1.867c0-0.45,0.012-0.884,0.031-1.303C23.144,34.971,24.447,34.725,25.983,34.564z M25.009,47.096
		c-0.202-0.231-0.879-1.075-1.539-2.63c1.025,0.268,2.22,0.484,3.585,0.608c0.42,1.367,0.871,2.303,1.193,2.867
		C27.11,47.817,26.021,47.528,25.009,47.096z M29.681,34.375c0.733,0,1.413,0.025,2.068,0.063c0.042,0.704,0.071,1.436,0.071,2.224
		c0,0.896-0.034,1.724-0.088,2.505c-0.698,0.042-1.427,0.071-2.215,0.071c-0.877,0-1.69-0.034-2.463-0.085
		c-0.061-0.822-0.097-1.701-0.097-2.654c0-0.714,0.024-1.381,0.06-2.026C27.847,34.412,28.729,34.375,29.681,34.375z M27.085,33.439
		c0.138-1.636,0.375-3.028,0.65-4.187c0.548-0.035,1.112-0.06,1.718-0.06c0.54,0,1.052,0.019,1.547,0.047
		c0.282,1.145,0.526,2.531,0.673,4.16c-0.631-0.032-1.292-0.052-1.992-0.052C28.756,33.349,27.898,33.385,27.085,33.439z
		 M31.644,40.205c-0.158,1.554-0.404,2.856-0.685,3.924c-0.444,0.022-0.906,0.036-1.389,0.036c-0.603,0-1.167-0.025-1.714-0.061
		c-0.286-1.062-0.542-2.36-0.707-3.919c0.747,0.046,1.527,0.078,2.368,0.078C30.267,40.264,30.973,40.242,31.644,40.205z
		 M29.443,47.916c-0.156-0.221-0.72-1.095-1.273-2.76c0.449,0.021,0.916,0.034,1.4,0.034c0.376,0,0.732-0.013,1.088-0.026
		C30.179,46.65,29.684,47.539,29.443,47.916z M34.125,47.034c-1.093,0.483-2.273,0.803-3.512,0.922
		c0.326-0.597,0.757-1.53,1.153-2.858c1.46-0.115,2.731-0.335,3.809-0.614C34.938,46.018,34.292,46.837,34.125,47.034z
		 M32.049,44.049c0.267-1.091,0.496-2.391,0.64-3.917c1.617-0.137,2.987-0.371,4.133-0.646c-0.18,1.504-0.474,2.768-0.81,3.804
		C34.934,43.618,33.621,43.899,32.049,44.049z M32.781,34.508c1.663,0.146,3.056,0.394,4.19,0.682
		c0.019,0.401,0.03,0.813,0.03,1.244c0,0.693-0.032,1.338-0.077,1.958c-1.123,0.291-2.502,0.546-4.154,0.697
		c0.048-0.759,0.075-1.565,0.075-2.428C32.846,35.901,32.819,35.193,32.781,34.508z M32.713,33.468
		c-0.135-1.607-0.364-2.981-0.633-4.146c1.631,0.164,2.988,0.47,4.098,0.819c0.317,1.087,0.583,2.4,0.72,3.966
		C35.737,33.832,34.351,33.6,32.713,33.468z M36.026,45.967c0.264-0.508,0.54-1.124,0.804-1.862
		c0.758-0.259,1.402-0.534,1.929-0.802C38.003,44.335,37.079,45.236,36.026,45.967z M39.908,41.358
		c-0.286,0.241-1.146,0.89-2.689,1.506c0.289-1.042,0.533-2.252,0.675-3.664c1.409-0.417,2.385-0.874,2.984-1.208
		C40.728,39.18,40.395,40.312,39.908,41.358z M37.977,38.088c0.03-0.53,0.051-1.076,0.051-1.654c0-0.329-0.013-0.639-0.022-0.952
		c1.591,0.496,2.533,1.021,2.925,1.271C40.7,36.914,39.764,37.515,37.977,38.088z M40.079,32.097c0.455,1.08,0.747,2.245,0.85,3.462
		c-0.623-0.337-1.599-0.777-2.982-1.178c-0.106-1.461-0.316-2.73-0.587-3.815C39.12,31.277,39.981,32.01,40.079,32.097z M39,30.122
		l-0.02,0.05c-0.533-0.277-1.184-0.57-1.973-0.845c-0.278-0.856-0.582-1.566-0.875-2.144C37.256,27.983,38.227,28.979,39,30.122z
		 M34.24,26.092c0.285,0.353,0.94,1.27,1.543,2.857c-1.115-0.303-2.435-0.549-3.969-0.678c-0.406-1.457-0.854-2.495-1.19-3.153
		C31.902,25.244,33.118,25.581,34.24,26.092z M29.259,25.068c0.055,0,0.108-0.003,0.163-0.004c0.25,0.421,0.787,1.444,1.293,3.134
		c-0.408-0.018-0.825-0.03-1.262-0.03c-0.499,0-0.979,0.013-1.441,0.035C28.472,26.615,28.971,25.585,29.259,25.068z M24.88,26.037
		c0.992-0.438,2.058-0.739,3.173-0.88c-0.337,0.689-0.757,1.722-1.137,3.128c-1.378,0.126-2.576,0.346-3.601,0.617
		C23.972,27.211,24.67,26.289,24.88,26.037z M22.988,27.096c-0.301,0.58-0.617,1.305-0.911,2.186
		c-0.868,0.3-1.579,0.621-2.141,0.924C20.747,28.984,21.785,27.929,22.988,27.096z M18.924,32.087l0.019,0.019
		c0.016-0.016,0.879-0.821,2.767-1.581c-0.283,1.106-0.505,2.413-0.618,3.911c-1.405,0.406-2.4,0.848-3.024,1.173
		C18.166,34.369,18.46,33.185,18.924,32.087z M14.147,15.976l0.122,0.256l-0.411,0.132C13.969,16.235,14.069,16.106,14.147,15.976z"
		/>
</g>
</svg>
