<?xml version="1.0" encoding="utf-8"?>
<!-- Generator: Adobe Illustrator 16.0.0, SVG Export Plug-In . SVG Version: 6.00 Build 0)  -->
<!DOCTYPE svg PUBLIC "-//W3C//DTD SVG 1.1//EN" "http://www.w3.org/Graphics/SVG/1.1/DTD/svg11.dtd">
<svg version="1.1" id="Layer_1" xmlns="http://www.w3.org/2000/svg" xmlns:xlink="http://www.w3.org/1999/xlink" x="0px" y="0px"
	 width="64px" height="64px" viewBox="0 0 64 64" enable-background="new 0 0 64 64" xml:space="preserve">
<g>
	<path d="M12.104,29.754l0.377,0.27h0.352v-0.676l1.107-0.107l1.053,0.783h1.729l0.62-0.566v-0.892l-0.505-0.38l-1.709,0.029
		l-0.566-0.621l-0.109-1l-0.58,0.316l-0.311,1.223l-0.837-0.893l-0.034-0.842l-0.809-0.695l-0.299-0.297h-0.938l0.297,0.836
		l1.127,0.629l0.197,0.207l-0.244,0.123l0.01,0.662l-0.551,0.229l-0.468-0.104l-0.294-0.415l0.762,0.041l0.207-0.277l-1.506-1.017
		c-0.149,0.569-0.272,1.148-0.377,1.734l0.381-0.029v1.242L12.104,29.754z"/>
	<path d="M49.736,42.68l0.641,1.096l0.03,0.666c2.391-3.56,3.788-7.84,3.788-12.441c0-4.47-1.322-8.634-3.589-12.131l-0.294,0.248
		l-1.701-0.274l-0.027,0.329l0.621,0.428l-0.811,0.161v0.486l-1.672,0.108l1.268,1.188l0.217,0.973l-0.568,0.297l-1.783-1.457V21.68
		l0.434-0.676L45.965,20.6l-1.945,1.296l-1.538-0.136l-0.513-0.377l-0.648,0.918l0.297,0.594l2.241,0.27l0.899,1.026l-0.225,0.298
		l-0.701-0.703l-0.324,0.351l0.549,0.724l-0.117,1.359L42.5,26.217l-0.072,1.098l1.215,0.738l0.423,0.557l-0.64,0.172l-2.268-1.729
		H40.43l0.027,1.404l1.646,1.729l0.126,1.251L41.4,32.129l-1.889,0.676l0.188,0.702l-0.342,0.243l-0.387-0.594l0.055-0.459
		l-0.675-0.217l-0.38,0.513l0.055,0.973l1.332,1.071l0.133,0.81l-0.807,0.536l-0.611-0.064l-1.1-1.246l-0.217,0.865l2.08,2.971
		l-0.135,0.43l-2.566-2.455v-2.485l-1.943-1.728l-1.549-0.148l-0.878,0.328l-0.544,1.17l-0.291,2.174l-0.525,0.763l-0.527-0.122
		l-1.633-2.686l0.096-0.992v-0.729l-0.746-0.471l-3.188-0.521l-1.468-0.071l-1.286-0.739l-0.09-0.774H20.95
		c0,0-0.017,1.063-0.017,1.121c0,0.059,2.772,1.365,2.772,1.365l0.79,0.103l0.014,0.595l-0.742,0.484L21.4,35.234l-1.134,0.073
		l-0.558-0.559l-0.059-0.905l-2.408-2.926l-0.172,0.199l2.431,4.578l0.595,0.297l2.313-0.488l0.433,0.199l-2.227,3.184l-2.022,1.93
		l0.451,0.794l0.216,2.14l-1.026,1.404l-0.486,0.576v0.863l-0.738,0.163l-0.576,1.026l-0.218,0.225
		c4.034,3.936,9.541,6.366,15.608,6.366c5.063,0,9.736-1.692,13.489-4.538l-0.333-0.733l-2.336,0.094l-2.88,0.99v-0.522l0.595-0.576
		l0.072-2.952l0.989-0.684l0.888-0.012l1.674-1.907l1.058-0.08v0.396h0.36l0.883-1.253h1.229l1.045,0.629l-0.491,0.479l-0.583-0.118
		l0.039,0.788l0.307,0.185l1.1,0.082l0.235-1.988L49.736,42.68z M21.742,45.406l-1.098,1.605l-0.557,0.897l-0.613-0.596v-0.952
		l0.45-0.523l0.306-0.467l-0.396-0.469v-0.863l1.116,0.144l0.648-1.297h0.667L21.742,45.406z M31.607,37.359l-0.818,0.305
		l-0.226-0.611l0.475-0.67l0.659,0.131L31.607,37.359z M43.663,39.28l0.013,1.754l-0.395,0.036v-0.595l-0.379-0.136l0.072,0.839
		h-0.486v-1.314h0.234l-0.012-0.214L43.663,39.28z M37.999,41.664l-0.126-0.398h0.504v-0.18l-0.378-0.127l-2.646-3.24l0.451-0.359
		l1.855,1.672l-0.021,0.272l0.396,0.522l1.439-0.018l0.055,0.666l-0.522,0.053l-0.216-0.09l0.055,0.721l1.332-0.037l1.079,0.686
		L37.999,41.664z M42.266,42.047h-0.433v-0.24h0.433V42.047z M42.266,39.427v0.236l-0.358,0.324l-0.202,0.514h-1.586L39.49,39.67
		v-1.01l1.885-1.021l0.249-0.223l0.209-0.562h0.325l0.107,0.555l0.223,0.093v1.778L42.266,39.427z M43.352,41.807l-0.195,0.029
		v0.211h-0.27v0.168l-0.398,0.041v-0.209l0.256-0.24l0.176-0.205h0.432V41.807z M43.535,41.523h0.363l-0.08,0.283l-0.283-0.089
		V41.523z M44.426,42.014v0.222h-0.432v0.189h-0.42v-0.378h0.027l0.551-0.061l0.043-0.25l0.494-0.072l0.039,0.383L44.426,42.014z
		 M47.899,42.094l-0.018-0.666h0.433l-0.018-0.324l-0.667-0.351l-1.188-0.171l-0.55-0.676l0.82-0.818l0.575,0.342l-0.046,0.627
		l0.604-0.015l0.649-0.343l2.321,1.054l0.09,1.251h0.486v0.414H50.42v-1.026l-0.557,0.054l-0.523,0.559L47.899,42.094z"/>
	<path d="M11.806,22.022l-0.001,0.198l-0.136,0.068c-0.114,0.236-0.22,0.477-0.326,0.717l1.11,0.01l0.857-1.275l-0.039-0.58
		l-0.609-0.284v-0.415C12.355,20.968,12.072,21.49,11.806,22.022z"/>
	<polygon points="17.081,25.691 16.777,25.54 16.614,25.795 15.871,25.881 15.531,25.986 15.218,26.339 15.218,27.295 
		15.637,27.238 17.038,27.295 18.01,27.295 17.938,26.897 17.124,26.563 	"/>
	<polygon points="20.671,27.646 20.607,27.936 21.498,27.998 21.607,28.168 22.175,28.215 22.419,27.98 22.419,27.603 
		21.941,27.251 21.941,26.711 20.834,25.973 20.879,25.572 21.762,25.621 21.733,25.189 21.112,24.93 20.385,24.992 20.204,25.406 
		20.239,26.242 21.141,26.9 21.141,27.24 	"/>
	<path d="M29.816,16.899l1.541,0.919h3.32l1.127,0.836l0.357,0.028l0.848-0.856l0.934,0.032l1.244,0.185l0.783,0.396l8.37,0.432
		l2.231,0.944c-3.995-6.128-10.905-10.189-18.75-10.189c-7.216,0-13.641,3.437-17.734,8.756l0.797-0.024l2.213,1.027l-0.377,0.323
		l-1.836,0.081l0.079,0.387l1.757,0.05l0.721-0.563l0.251-0.665l0.343-0.09l0.208,0.603l1.375-0.639l2.88,0.188l-0.242-0.594
		l0.188-0.729l0.812,0.199l0.268,0.422l0.162,1.216l0.722-0.216l-0.019-1.215l2.344-1.048L29.816,16.899z"/>
	<path d="M13.735,19.356h-0.344l-0.029,0.021c-0.237,0.346-0.468,0.698-0.686,1.059l1.059-0.646V19.356z"/>
</g>
</svg>
