<?xml version="1.0" encoding="utf-8"?>
<!-- Generator: Adobe Illustrator 16.0.0, SVG Export Plug-In . SVG Version: 6.00 Build 0)  -->
<!DOCTYPE svg PUBLIC "-//W3C//DTD SVG 1.1//EN" "http://www.w3.org/Graphics/SVG/1.1/DTD/svg11.dtd">
<svg version="1.1" id="Layer_1" xmlns="http://www.w3.org/2000/svg" xmlns:xlink="http://www.w3.org/1999/xlink" x="0px" y="0px"
	 width="64px" height="64px" viewBox="0 0 64 64" enable-background="new 0 0 64 64" xml:space="preserve">
<polygon fill="none" points="26.438,13.287 26.619,12.578 26.092,12.452 25.508,12.73 25.867,13.469 "/>
<polygon fill="none" points="28.023,15.04 27.287,15.04 26.771,15.596 26.688,16.151 27.078,16.361 "/>
<polygon fill="none" points="28.607,14.859 28.607,14.4 28.414,14.4 28.414,14.135 27.537,14.135 26.896,14.4 26.771,14.72 
	27.273,14.859 "/>
<polygon fill="none" points="28.844,14.33 28.844,14.859 29.303,14.748 "/>
<polygon fill="none" points="24.775,9.227 24.775,8.879 23.977,8.879 23.936,9.047 23.447,9.047 23.447,9.088 23.447,9.533 
	24.547,9.533 "/>
<polygon fill="none" points="30.305,16.209 30.305,15.777 29.457,15.526 29.4,15.526 29.4,15.928 29.596,16.209 "/>
<path fill="none" d="M46.824,11.59l0.205-0.314l0.732-0.148l0.184,0.891l0.391,0.63l0.26,0.298l0.471,0.184l-0.443,0.529
	l-0.861,0.084h-0.65l0.074-0.77l0.539-0.111L47.678,12.5l-0.502-0.316l-0.352-0.24V11.59z M45.619,12.981l0.445-0.714l0.602-0.139
	l0.428,0.186l-0.037,0.481l-0.918,0.649h-0.52V12.981z M33.498,15.726l-0.465,0.038l0.025-0.322l0.207-0.259l0.279,0.219
	L33.498,15.726z M35.127,15.155l-0.318,0.027l-0.064,0.308L34.5,15.642l-0.391,0.032c-0.014-0.092-0.023-0.162-0.023-0.162h-0.152
	v-0.329h0.641l0.131-0.341l0.256-0.005l0.289,0.06L35.127,15.155z"/>
<path fill="none" d="M62.291,13.028v0.985l0.432-0.059l0.23,0.009c-0.164-0.37-0.338-0.734-0.521-1.094L62.291,13.028z"/>
<path fill="none" d="M24.756,10.576c0,0,0.041-0.486,0-0.486s-0.529,0.082-0.529,0.082l-0.779,0.223l0.209,0.25L24.756,10.576z"/>
<polygon fill="none" points="30.193,15.183 29.852,14.971 29.65,15.183 29.92,15.408 "/>
<path fill="none" d="M28.469,15.777l0.416-0.078l0.336-0.215V15.04h-0.752C28.469,15.109,28.469,15.777,28.469,15.777z"/>
<polygon fill="none" points="28.469,16.166 28.135,16.194 28.023,16.681 28.732,16.681 29.053,16.361 29.053,15.928 28.539,15.999 
	"/>
<path fill="none" d="M23.717,11.07c-0.316,0.497-0.615,1.006-0.891,1.529l0.926-1.125L23.717,11.07z"/>
<path fill="none" d="M57.818,9.272l0.096,0.319l1.529,0.014l0.438-0.651c-0.35-0.433-0.719-0.849-1.102-1.254l-0.004,1.086
	L57.818,9.272z"/>
<polygon points="53.678,9.5 53.725,9.861 53.186,9.973 53.111,10.742 53.762,10.742 54.623,10.658 55.066,10.129 54.596,9.945 
	54.336,9.647 53.945,9.018 53.762,8.127 53.029,8.275 52.824,8.59 52.824,8.943 53.176,9.184 "/>
<polygon points="47.057,12.796 47.094,12.314 46.666,12.129 46.064,12.268 45.619,12.981 45.619,13.445 46.139,13.445 "/>
<path d="M34.705,14.842l-0.131,0.341h-0.641v0.329h0.152c0,0,0.01,0.07,0.023,0.162l0.391-0.032l0.244-0.151l0.064-0.308
	l0.318-0.027l0.123-0.259l-0.289-0.06L34.705,14.842z"/>
<polygon points="33.059,15.441 33.033,15.764 33.498,15.726 33.545,15.401 33.266,15.183 "/>
<path d="M22.027,13.568v0.696c0.242-0.568,0.512-1.122,0.799-1.665L22.027,13.568z"/>
<g>
	<rect x="15.73" y="44.414" width="2.916" height="12.416"/>
	<rect x="20.396" y="47.482" width="2.916" height="9.348"/>
	<rect x="25.23" y="44.414" width="2.916" height="12.416"/>
	<rect x="29.896" y="47.482" width="2.916" height="9.348"/>
	<rect x="34.73" y="44.414" width="2.916" height="12.416"/>
	<rect x="39.396" y="47.482" width="2.916" height="9.348"/>
	<rect x="44.23" y="44.975" width="2.916" height="11.855"/>
	<path d="M49.643,33.957l-5.945,2.275l1.25,0.977l-3.732,4.197l-4.969-3.436l-4.313,3.162l-5.725-4.006l-4.211,3.637
		c-4.213-2.535-4.244-2.535-4.727-2.535v1.629l-0.625,1.232c0.305,0.156,2.648,1.549,4.736,2.805l0.932,0.561l4.088-3.531l5.572,3.9
		l4.322-3.17l5.396,3.73l5.623-6.326l2.127,1.662L49.643,33.957z"/>
	<path d="M56.307,31.232c-0.008-0.713-0.043-1.418-0.111-2.113c-0.225-2.316-0.779-4.537-1.609-6.619
		c-0.063-0.154-0.119-0.313-0.184-0.465c-1.107-2.613-2.66-4.992-4.561-7.045c-0.123-0.135-0.25-0.266-0.377-0.396
		c-0.361-0.373-0.729-0.738-1.111-1.086C44.031,9.572,38.291,7.17,32,7.17c-6.344,0-12.127,2.445-16.461,6.439
		c-1.01,0.932-1.938,1.947-2.779,3.035C9.584,20.754,7.688,25.9,7.688,31.482c0,6.371,2.467,12.174,6.49,16.514v-3.107
		c-2.818-3.734-4.49-8.379-4.49-13.406c0-3.098,0.637-6.049,1.781-8.732v-0.695l0.799-0.969c0.275-0.523,0.574-1.033,0.891-1.529
		l0.035,0.404l-0.926,1.125c-0.287,0.543-0.557,1.096-0.799,1.664v1.27l0.928,0.447v1.764l0.889,1.518l0.723,0.111l0.094-0.52
		l-0.854-1.316l-0.166-1.279h0.5l0.213,1.316l1.232,1.799l-0.318,0.58l0.783,1.199l1.947,0.482v-0.314l0.777,0.109l-0.072,0.557
		l0.611,0.113l0.945,0.258l1.336,1.521l1.705,0.129l0.166,1.391l-1.168,0.816l-0.055,1.242l-0.168,0.76l1.189,1.49l3.98-3.533
		l4.859,3.791l3.344-2.371l-0.318-0.525l-1.967-0.02l-1.557-0.594l-0.074-1.111l-0.52-0.91l-1.408-0.02l-0.816-1.277l-0.723-0.354
		l-0.037,0.391l-1.316,0.078l-0.482-0.672l-1.373-0.279l-1.131,1.309l-1.779-0.303l-0.129-2.006l-1.299-0.223l0.52-0.982
		l-0.148-0.566l-1.707,1.141l-1.074-0.131l-0.383-0.838l0.234-0.865l0.592-1.092l1.363-0.689l2.631-0.002l-0.006,0.803l0.945,0.441
		l-0.076-1.371l0.682-0.688l1.377-0.902l0.094-0.637l1.371-1.428l1.459-0.807l-0.129-0.107l0.988-0.93l0.363,0.096l0.166,0.209
		l0.375-0.416l0.092-0.041l-0.412-0.057l-0.416-0.139v-0.404l0.221-0.18h0.488l0.223,0.098l0.193,0.389l0.236-0.035v-0.035
		l0.068,0.023l0.684-0.105l0.096-0.334l0.391,0.098v0.361l-0.363,0.25H31.1l0.053,0.396l1.24,0.383c0,0,0,0.006,0.002,0.014
		l0.285-0.023l0.02-0.537l-0.982-0.447l-0.057-0.258l0.816-0.277l0.035-0.781l-0.852-0.518l-0.055-1.316L30.438,16.9H30.01
		l0.111-1.002l-1.59-0.375l-0.658,0.496v1.518l-1.182,0.373l-0.475,0.988l-0.514,0.084v-1.266l-1.111-0.152l-0.557-0.363
		l-0.223-0.818l1.988-1.164l0.975-0.297l0.098,0.654l0.541-0.029l0.043-0.328l0.566-0.082l0.01-0.115l-0.244-0.1l-0.055-0.348
		l0.697-0.059l0.42-0.438l0.023-0.033l0.006,0.002l0.129-0.131l1.465-0.186l0.646,0.551l-1.697,0.904l2.16,0.51l0.281-0.723h0.945
		l0.334-0.631l-0.668-0.166v-0.797l-2.096-0.928l-1.445,0.166l-0.816,0.428l0.055,1.037l-0.852-0.129l-0.133-0.574l0.818-0.742
		l-1.484-0.074l-0.426,0.129l-0.186,0.5l0.557,0.094l-0.111,0.557l-0.945,0.055l-0.148,0.371l-1.371,0.037
		c0,0-0.037-0.777-0.094-0.777c-0.055,0,1.074-0.02,1.074-0.02l0.818-0.797l-0.447-0.223l-0.592,0.574l-0.984-0.055l-0.592-0.816
		h-1.262l-1.316,0.982h1.207l0.109,0.354L21.5,13.822l1.334,0.037l0.205,0.482l-1.504-0.055l-0.072-0.371l-0.945-0.205l-0.502-0.277
		l-1.125,0.01C22.574,10.76,27.104,9.17,32,9.17c5.643,0,10.797,2.109,14.73,5.574l-0.266,0.475l-1.027,0.402l-0.434,0.471
		l0.1,0.549l0.529,0.074l0.322,0.801l0.914-0.369l0.152,1.07h-0.277l-0.752-0.111l-0.834,0.139l-0.807,1.141l-1.154,0.182
		l-0.166,0.986l0.486,0.115l-0.139,0.635l-1.146-0.229l-1.053,0.229l-0.221,0.586l0.182,1.227l0.617,0.289l1.033-0.006l0.699-0.064
		l0.215-0.555l1.092-1.42l0.717,0.146l0.709-0.639l0.131,0.5l1.742,1.176l-0.211,0.285l-0.787-0.043l0.303,0.43l0.484,0.105
		l0.566-0.236l-0.012-0.682l0.252-0.125l-0.201-0.215l-1.162-0.648l-0.307-0.861h0.967l0.307,0.307l0.834,0.717l0.035,0.867
		l0.861,0.918l0.32-1.258l0.598-0.326l0.111,1.029l0.584,0.639l1.162-0.02c0.227,0.58,0.428,1.168,0.604,1.77l-0.125,0.113H51.5
		l-1.084-0.807l-1.141,0.111v0.695h-0.363l-0.389-0.277l-1.975-0.5V23.25l-2.504,0.195l-0.777,0.418h-0.994l-0.488-0.049
		l-1.207,0.67v1.262l-2.465,1.779l0.203,0.76h0.502l-0.131,0.723l-0.354,0.131l-0.018,1.891l2.131,2.428h0.93l0.055-0.146h1.67
		l0.48-0.445h0.947l0.518,0.52l0.713,0.074l5.973-1.758l-0.68,9.75l-1.732,1.402l0.002,5.645c1.723-1.756,3.193-3.76,4.326-5.971
		c0.861-1.682,1.533-3.475,1.984-5.354c0.115-0.475,0.215-0.955,0.301-1.441c0.244-1.381,0.379-2.799,0.379-4.25
		C56.313,31.398,56.307,31.316,56.307,31.232z M24.494,21.848l-0.32,0.318h-0.709l0.111-0.486l0.334-0.027l0.07-0.168l0.514-0.07
		V21.848z M24.662,20.971l-0.336,0.215l-0.416,0.078c0,0,0-0.668,0-0.738h0.752V20.971z M25.293,20.457l0.342,0.211l-0.273,0.227
		l-0.27-0.227L25.293,20.457z M24.842,21.012h0.057l0.848,0.252v0.432h-0.709l-0.195-0.281V21.012z M24.285,19.816l0.459,0.418
		l-0.459,0.111V19.816z M22.338,19.887l0.641-0.266h0.877v0.266h0.193v0.459h-1.334l-0.502-0.141L22.338,19.887z M22.213,21.082
		l0.516-0.557h0.736l-0.945,1.322l-0.391-0.211L22.213,21.082z M21.533,17.938l0.527,0.127l-0.182,0.709l-0.57,0.182l-0.359-0.738
		L21.533,17.938z M20.197,16.063l-1.1,0.068l-0.209-0.25l0.779-0.223c0,0,0.488-0.082,0.529-0.082S20.197,16.063,20.197,16.063z
		 M19.377,14.533l0.041-0.168h0.799v0.348l-0.229,0.307h-1.1v-0.445v-0.041H19.377z M48.885,18.092l-1.529-0.014l-0.096-0.32
		l0.957-0.486l0.004-1.086c0.383,0.406,0.752,0.822,1.102,1.254L48.885,18.092z M52.164,22.441L51.732,22.5v-0.986l0.141-0.158
		c0.184,0.359,0.357,0.725,0.521,1.094L52.164,22.441z M53.641,26.436l0.07-0.082c0.029,0.127,0.061,0.252,0.088,0.381
		L53.641,26.436z"/>
</g>
</svg>
