<?xml version="1.0" encoding="utf-8"?>
<!-- Generator: Adobe Illustrator 16.0.0, SVG Export Plug-In . SVG Version: 6.00 Build 0)  -->
<!DOCTYPE svg PUBLIC "-//W3C//DTD SVG 1.1//EN" "http://www.w3.org/Graphics/SVG/1.1/DTD/svg11.dtd">
<svg version="1.1" id="Layer_1" xmlns="http://www.w3.org/2000/svg" xmlns:xlink="http://www.w3.org/1999/xlink" x="0px" y="0px"
	 width="64px" height="64px" viewBox="0 0 64 64" enable-background="new 0 0 64 64" xml:space="preserve">
<g>
	<path d="M49.238,28.058c0-10.475-8.521-18.997-18.997-18.997c-0.401,0-0.798,0.017-1.192,0.041v2.406
		c0.395-0.028,0.789-0.061,1.192-0.061c9.159,0,16.61,7.452,16.61,16.611c0,9.159-7.451,16.61-16.61,16.61
		c-0.269,0-0.53-0.027-0.795-0.04v0.897v1.509v4.722h-5.899v3.182h13.389v-3.182h-5.103v-4.774
		C41.565,46.171,49.238,37.997,49.238,28.058z"/>
	<g>
		<path d="M24.137,42.258c1.744-1.034,4.81-3.055,7.853-6.071c-0.512-0.688-1.042-1.409-1.58-2.145
			c-0.233,0.002-0.466,0.004-0.7,0.004c-0.008,0-0.016,0-0.022,0c-0.564,0-1.121-0.014-1.669-0.04
			c-0.376,0.892-1.258,1.518-2.286,1.518c-0.263,0-0.511-0.052-0.747-0.127c-1.473,2.406-2.598,4.428-3.245,5.626
			C22.495,41.503,23.297,41.917,24.137,42.258z"/>
		<path d="M43.482,22.28c-0.641,1.103-1.392,2.361-2.238,3.712c1.34,0.372,2.507,0.768,3.468,1.127
			C44.572,25.409,44.146,23.78,43.482,22.28z"/>
		<path d="M38.212,19.661c0.071,0.231,0.12,0.471,0.12,0.726c0,0.73-0.322,1.381-0.825,1.835c0.232,0.369,0.47,0.738,0.716,1.102
			c0.529,0.785,1.08,1.558,1.639,2.31c0.026,0.007,0.054,0.013,0.08,0.02c1.123-1.777,2.085-3.405,2.848-4.74
			c-0.605-1.059-1.337-2.035-2.174-2.912C39.911,18.452,39.096,19.004,38.212,19.661z"/>
		<path d="M35.35,30.566c0.4,0,0.773,0.104,1.108,0.272c0.971-1.353,1.884-2.703,2.723-3.996c-0.013-0.016-0.023-0.032-0.036-0.047
			c-2.22-0.515-4.783-0.916-7.523-0.981c-0.393,0.466-0.777,0.947-1.153,1.448c-0.577,0.769-1.136,1.543-1.675,2.313
			c0.723,1.038,1.488,2.11,2.262,3.176c0.623-0.01,1.24-0.026,1.851-0.048C33.074,31.497,34.099,30.566,35.35,30.566z"/>
		<path d="M33.465,34.638c-0.166-0.197-0.309-0.414-0.408-0.656c-0.356,0.013-0.717,0.024-1.078,0.034
			c0.308,0.418,0.614,0.833,0.918,1.241C33.086,35.054,33.275,34.848,33.465,34.638z"/>
		<path d="M25.731,30.566c0.26,0,0.505,0.051,0.74,0.125c0.248-0.371,0.502-0.745,0.761-1.12c-0.199-0.289-0.398-0.579-0.588-0.859
			c-0.556-0.825-1.082-1.749-1.576-2.723c-4.428,0.269-8.225,0.766-10.246,1.064c-0.037,0.429-0.061,0.861-0.061,1.3
			c0,0.441,0.023,0.876,0.061,1.308c1.652,0.696,4.74,1.84,8.591,2.528C23.764,31.243,24.664,30.566,25.731,30.566z"/>
		<path d="M29.967,25.809c-1.185,0.013-2.354,0.05-3.494,0.104c0.393,0.738,0.805,1.44,1.236,2.081
			c0.101,0.149,0.204,0.301,0.307,0.453c0.463-0.652,0.938-1.306,1.426-1.956C29.614,26.261,29.789,26.033,29.967,25.809z"/>
		<path d="M28.179,32.727c0.429,0.02,0.862,0.031,1.301,0.034c-0.497-0.69-0.986-1.379-1.465-2.062
			c-0.155,0.228-0.308,0.454-0.459,0.68C27.891,31.745,28.111,32.21,28.179,32.727z"/>
		<path d="M23.902,34.707c-0.307-0.338-0.523-0.758-0.606-1.227c-3.542-0.616-6.442-1.608-8.271-2.34
			c0.697,3.714,2.762,6.944,5.653,9.148C21.347,39.055,22.459,37.064,23.902,34.707z"/>
		<path d="M24.467,24.742c-1.438-3.12-2.534-6.523-3.164-8.774c-3.262,2.232-5.594,5.718-6.307,9.764
			C17.029,25.438,20.473,25.003,24.467,24.742z"/>
		<path d="M25.844,24.66c1.609-0.085,3.286-0.138,4.982-0.139c0.007,0,0.015,0,0.021,0c0.063,0,0.123,0.001,0.184,0.002
			c0.896-1.032,1.814-1.974,2.724-2.828c-0.238-0.381-0.382-0.827-0.382-1.309c0-0.652,0.258-1.241,0.67-1.684
			c-1.063-2.076-1.873-3.954-2.359-5.223c-0.629-0.081-1.27-0.126-1.92-0.126c-2.659,0-5.156,0.695-7.322,1.909
			C23.052,17.481,24.236,21.289,25.844,24.66z"/>
		<path d="M33.756,38.543c-0.311-0.409-0.644-0.854-0.987-1.312c-2.611,2.574-5.212,4.421-7.038,5.569
			c1.283,0.358,2.636,0.553,4.033,0.553c2.335,0,4.545-0.533,6.516-1.485C35.684,41.093,34.88,40.03,33.756,38.543z"/>
		<path d="M37.729,33.705c-0.29,1.047-1.24,1.819-2.38,1.819c-0.288,0-0.562-0.059-0.818-0.15c-0.283,0.319-0.567,0.63-0.853,0.931
			c1.485,1.984,2.833,3.742,3.757,4.938c3.077-1.834,5.439-4.738,6.578-8.198C42.344,33.263,40.178,33.51,37.729,33.705z"/>
		<path d="M32.717,24.572c1.871,0.099,3.643,0.338,5.268,0.652c-0.293-0.407-0.57-0.804-0.826-1.184
			c-0.272-0.405-0.536-0.816-0.795-1.229c-0.165,0.035-0.336,0.054-0.511,0.054c-0.415,0-0.8-0.112-1.144-0.292
			C34.045,23.192,33.376,23.859,32.717,24.572z"/>
		<path d="M35.137,18.025c0.228-0.07,0.465-0.118,0.716-0.118c0.644,0,1.224,0.251,1.665,0.653c0.773-0.572,1.493-1.063,2.137-1.48
			c-1.824-1.603-4.042-2.768-6.49-3.335C33.625,14.866,34.293,16.368,35.137,18.025z"/>
		<path d="M44.762,28.523c-0.955-0.371-2.178-0.801-3.611-1.21c1.166,1.48,2.309,2.826,3.326,3.977
			C44.654,30.394,44.752,29.469,44.762,28.523z"/>
		<path d="M43.247,31.85c-1.05-1.215-2.174-2.578-3.235-3.932c-0.805,1.229-1.67,2.501-2.587,3.775
			c0.144,0.219,0.247,0.465,0.315,0.725C39.834,32.249,41.717,32.042,43.247,31.85z"/>
	</g>
</g>
</svg>
