<?xml version="1.0" encoding="utf-8"?>
<!-- Generator: Adobe Illustrator 16.0.0, SVG Export Plug-In . SVG Version: 6.00 Build 0)  -->
<!DOCTYPE svg PUBLIC "-//W3C//DTD SVG 1.1//EN" "http://www.w3.org/Graphics/SVG/1.1/DTD/svg11.dtd">
<svg version="1.1" id="Layer_1" xmlns="http://www.w3.org/2000/svg" xmlns:xlink="http://www.w3.org/1999/xlink" x="0px" y="0px"
	 width="64px" height="64px" viewBox="0 0 64 64" enable-background="new 0 0 64 64" xml:space="preserve">
<g>
	<polygon points="39.536,34.56 39.679,34.948 40.199,34.754 40.256,34.218 39.837,34.135 	"/>
	<polygon points="33.437,39.084 32.729,38.991 32.729,39.539 32.98,39.837 32.787,40.133 32.5,40.464 32.5,41.069 32.89,41.447 
		33.244,40.878 33.939,39.859 34.271,38.26 33.849,38.26 	"/>
	<polygon points="24.495,25.589 24.522,25.811 24.191,25.879 24.146,26.354 24.545,26.354 25.077,26.303 25.35,25.977 
		25.059,25.862 24.9,25.68 24.66,25.291 24.545,24.743 24.095,24.834 23.968,25.028 23.968,25.246 24.186,25.394 	"/>
	<polygon points="24.111,25.771 24.135,25.474 23.871,25.359 23.501,25.445 23.227,25.885 23.227,26.17 23.546,26.17 	"/>
	<path d="M31.913,16.721c-8.271,0-15,6.729-15,15c0,8.271,6.729,15,15,15s15-6.729,15-15C46.913,23.45,40.184,16.721,31.913,16.721z
		 M44.698,36.01l0.086-0.274l-1.319-1.884l0.137-0.549l0.698,0.79l0.389,0.042l0.511-0.341l-0.084-0.514l-0.845-0.68l-0.035-0.617
		l0.241-0.325l0.428,0.137l-0.035,0.292l0.245,0.377l0.217-0.154l-0.118-0.445l0.465-0.167c0,0.008,0,0.017,0,0.023
		c0,7.591-6.175,13.766-13.766,13.766s-13.766-6.175-13.766-13.766c0-7.59,6.175-13.766,13.766-13.766
		c3.732,0,7.119,1.495,9.601,3.913c0.162,0.158,0.317,0.322,0.471,0.488h-1.945l-0.977-0.583l-1.957,0.124l-1.486,0.664l0.012,0.771
		l-0.458,0.137l-0.103-0.771l-0.17-0.269l-0.514-0.125l-0.12,0.462l0.154,0.377l-1.828-0.12l-0.873,0.406l-0.132-0.383l-0.218,0.057
		l-0.159,0.424l-0.458,0.356l-1.114-0.031l-0.051-0.246l1.165-0.052l0.24-0.204l-1.405-0.652l-1.714,0.051l-0.959,0.492
		l-0.359,0.643l-0.634,0.248l-0.267,0.29l0.061,0.338l0.327,0.047l0.198,0.491l0.563-0.226l0.094,0.658h-0.171l-0.463-0.068
		l-0.514,0.085l-0.497,0.702l-0.712,0.112l-0.102,0.607l0.3,0.073l-0.086,0.39l-0.706-0.142L23.3,27.632l-0.137,0.36l0.112,0.756
		l0.38,0.179l0.636-0.004l0.431-0.04l0.132-0.342l0.672-0.875l0.442,0.092l0.436-0.395l0.082,0.307l1.073,0.726l-0.131,0.176
		l-0.484-0.026l0.187,0.264l0.297,0.066l0.349-0.146l-0.006-0.419l0.155-0.079L27.802,28.1L27.087,27.7l-0.188-0.531h0.596
		l0.188,0.189l0.514,0.441l0.021,0.534l0.531,0.565l0.198-0.774l0.368-0.201l0.068,0.634l0.36,0.395l1.084-0.019l0.32,0.241v0.564
		l-0.394,0.361h-1.096l-0.667-0.498l-0.703,0.069v0.429h-0.223l-0.24-0.172l-1.217-0.309v-0.788l-1.542,0.12l-0.479,0.257h-0.612
		l-0.301-0.031l-0.744,0.413v0.777l-1.519,1.096l0.126,0.469h0.308l-0.081,0.446l-0.217,0.078l-0.01,1.166l1.313,1.496h0.572
		l0.034-0.092h1.028l0.296-0.273h0.583l0.32,0.319l0.868,0.091l-0.114,1.154l0.965,1.703l-0.509,0.97l0.035,0.457l0.4,0.399v1.099
		l0.524,0.706v0.914h1.554l1.165-1.199l0.366-0.651l0.468-0.104v-0.547l0.309-0.366l0.651-0.891l-0.137-1.357l-0.286-0.504
		l1.282-1.225l1.413-2.02l-0.274-0.126l-1.467,0.31l-0.378-0.188l-1.542-2.905l0.108-0.126l1.528,1.856l0.038,0.574l0.353,0.354
		l0.72-0.047l1.502-1.087l0.471-0.309l-0.009-0.377l-0.502-0.065c0,0-1.759-0.828-1.759-0.865c0-0.036,0.011-0.712,0.011-0.712
		h0.388l0.058,0.491l0.815,0.469l0.932,0.046l2.022,0.33l0.473,0.298v0.463l-0.06,0.63l1.036,1.704l0.334,0.078l0.334-0.485
		l0.184-1.379l0.345-0.742l0.558-0.208l0.983,0.095l1.232,1.096v1.576L44.698,36.01z"/>
	<polygon points="38.916,17.279 47.087,12.853 38.916,8.425 38.916,10.756 21.65,10.756 21.65,14.949 38.916,14.949 	"/>
	<polygon points="26.049,46.721 17.877,51.147 26.049,55.575 26.049,53.244 43.314,53.244 43.314,49.051 26.049,49.051 	"/>
</g>
</svg>
