<?xml version="1.0" encoding="utf-8"?>
<!-- Generator: Adobe Illustrator 16.0.0, SVG Export Plug-In . SVG Version: 6.00 Build 0)  -->
<!DOCTYPE svg PUBLIC "-//W3C//DTD SVG 1.1//EN" "http://www.w3.org/Graphics/SVG/1.1/DTD/svg11.dtd">
<svg version="1.1" id="Layer_1" xmlns="http://www.w3.org/2000/svg" xmlns:xlink="http://www.w3.org/1999/xlink" x="0px" y="0px"
	 width="64px" height="64px" viewBox="0 0 64 64" enable-background="new 0 0 64 64" xml:space="preserve">
<path d="M31.992,9.339c-7.664,0-14.447,3.829-18.551,9.671l3.088,0.159l2.324,0.984l-0.328,0.278l-1.723-0.278l-0.027,0.333
	l0.629,0.434l-0.82,0.163v0.493l-1.695,0.109l1.285,1.203l0.219,0.984l-0.574,0.301l-1.807-1.477v-0.684l0.439-0.684l-0.328-0.41
	l-1.971,1.313l-0.582-0.052c-0.191,0.4-0.369,0.808-0.539,1.221l0.957,0.116l0.912,1.039l-0.227,0.302l-0.713-0.712l-0.326,0.355
	l0.555,0.732l-0.119,1.377l-1.457-0.002l-0.074,1.111l1.232,0.748l0.426,0.564l-0.646,0.174l-1.826-1.392
	c-0.121,0.658-0.221,1.325-0.285,2.002l0.773,0.811l0.125,1.268l-0.838,0.7L9.348,32.65c0.047,1.626,0.264,3.209,0.635,4.732
	c0.174,0.709,0.381,1.404,0.619,2.084c0.086,0.246,0.176,0.488,0.271,0.73l0.918-0.357l0.014,1.776l-0.313,0.028
	c0.074,0.157,0.152,0.313,0.229,0.467h0.309l-0.082,0.287l-0.094-0.029c0.043,0.082,0.082,0.164,0.125,0.245
	c0.049,0.092,0.098,0.184,0.148,0.274c0.225,0.41,0.465,0.81,0.715,1.203l0.342-0.025v0.4h0.365l0.895-1.269h1.244l1.057,0.637
	l-0.496,0.485l-0.59-0.12l0.039,0.799l0.311,0.188l1.113,0.083l0.238-2.014l0.584,0.026l0.646,1.11l0.074,1.605l0.982,0.842
	l0.264,1.078l-0.637,1.454l-0.83,0.781c0.771,0.578,1.586,1.103,2.43,1.581l0.748-0.104l0.637-0.437l0.092-1.397l0.727-0.043
	l0.012,0.893l0.396-0.078l0.268,0.48l-0.73,0.414l-0.727,0.322l-0.598,0.392c3.092,1.584,6.59,2.484,10.295,2.484
	c3.381,0,6.59-0.75,9.475-2.085l-1.125-0.982l-1.014-1.779l0.143-1.717l-0.768-1.021l0.313-1.73l-0.457-0.129v-3.756
	c0,0-1.275-0.968-1.348-0.968c-0.074,0-0.676-0.163-0.676-0.163l-0.129-0.711l-1.658-2.079l0.164-0.747l0.055-1.222l1.146-0.803
	L35.951,33.4l-1.676-0.127l-1.314-1.496l-0.93-0.253l-0.602-0.11l0.074-0.547l-0.768-0.109v0.311l-1.914-0.475l-0.771-1.178
	l0.314-0.572l-1.213-1.77l-0.207-1.294h-0.494l0.166,1.257l0.836,1.295l-0.09,0.512l-0.711-0.109l-0.875-1.492v-1.735l-0.91-0.438
	v-1.932l1.695-2.061l-0.111-1.231l0.475-0.337l-0.564-0.529l0.035-0.93l-0.674-0.602h-1.879l-0.309,0.328l-2.244-0.018l-0.82-0.693
	l0.639-0.455h1.641v-0.307l-0.766-0.113l0.494-0.383l1.074-0.165l1.604-1.093h2.771l1.516,0.455l0.51,0.292l0.455,0.036l0.676-0.656
	l2.188-0.019l0.492,0.274l0.93,0.2l0.072,0.364l1.477,0.055l-0.199-0.474l-1.313-0.036l0.311-0.292l-0.109-0.347h-1.188l1.297-0.966
	h1.24l0.58,0.802l0.969,0.055l0.582-0.565l0.439,0.219l-0.803,0.784c0,0-1.111,0.019-1.059,0.019c0.057,0,0.092,0.766,0.092,0.766
	l1.348-0.036l0.146-0.365l0.93-0.055l0.109-0.547L39.07,14.42l0.182-0.492l0.42-0.127l1.457,0.072l-0.803,0.73l0.129,0.564
	l0.84,0.128l-0.057-1.022l0.803-0.418l1.424-0.164l2.059,0.912v0.783l0.658,0.164l-0.328,0.621h-0.93l-0.275,0.71l-2.127-0.501
	l1.67-0.891l-0.637-0.541l-1.441,0.183l-0.125,0.13l-0.004-0.002l-0.025,0.031l-0.412,0.431l-0.688,0.058l0.057,0.342l0.238,0.099
	l-0.01,0.113l-0.559,0.079l-0.039,0.324l-0.533,0.027l-0.096-0.643l-0.957,0.291l-1.957,1.145l0.221,0.807l0.547,0.355l1.092,0.151
	v1.243l0.506-0.081l0.467-0.972l1.162-0.368v-1.491l0.646-0.488l1.564,0.369L43.1,18.067h0.418l1.15-0.565l0.055,1.295l0.838,0.51
	l-0.037,0.766l-0.801,0.273l0.055,0.254l0.965,0.439l-0.018,0.529l-0.281,0.023c0-0.01-0.004-0.014-0.004-0.014l-1.217-0.377
	l-0.053-0.39l0,0l0.355-0.245v-0.357l-0.383-0.096l-0.096,0.329l-0.672,0.104l-0.066-0.023v0.033l-0.232,0.035l-0.191-0.383
	l-0.219-0.096h-0.48l-0.217,0.178v0.397l0.41,0.136l0.404,0.057l-0.09,0.04l-0.369,0.409l-0.164-0.205l-0.355-0.094l-0.973,0.914
	l0.127,0.104l-1.434,0.795l-1.35,1.404l-0.092,0.625l-1.355,0.889l-0.668,0.674l0.074,1.35l-0.93-0.433l0.006-0.79l-2.588,0.001
	l-1.34,0.679l-0.584,1.072l-0.229,0.852l0.375,0.825l1.057,0.128l1.678-1.121l0.148,0.557l-0.512,0.967l1.275,0.218l0.129,1.973
	l1.75,0.297l1.111-1.285l1.35,0.274l0.475,0.658l1.295-0.075l0.037-0.384l0.709,0.348l0.805,1.257l1.385,0.019l0.51,0.895
	l0.072,1.094l1.533,0.583l1.932,0.019l0.566,0.929l0.855,0.274l-0.164,0.766l-0.938,1.193l-0.275,2.641l-0.846,0.67l-1.26-0.037
	l-0.42,0.729l0.311,1.369l-1.367,1.75l-0.438,0.803l-1.303,0.627l-0.859,0.13l-0.035,0.364l0.602,0.172l-0.072,0.393l-0.537,0.52
	l0.326,0.412l0.648,0.018l-0.037,0.502l-0.172,0.491l-0.057,0.401l0.547,0.46C49.791,48.164,54.652,40.641,54.652,32
	C54.652,19.505,44.486,9.339,31.992,9.339z M19.621,43.018h-0.986v-1.039l-0.564,0.055l-0.529,0.564l-1.459,0.092l-0.018-0.674
	h0.438l-0.018-0.33l-0.676-0.354l-1.203-0.174l-0.557-0.684l0.83-0.83l0.584,0.347l-0.047,0.636l0.611-0.016l0.658-0.348
	l2.352,1.068l0.09,1.266h0.494V43.018z M26.307,19.107l-0.092,0.574c0,0-0.365,0-0.41,0c-0.047,0-0.092-0.631-0.092-0.666
	L26.307,19.107z M42.045,22.307l-0.457,0.038l0.025-0.317l0.203-0.254l0.275,0.215L42.045,22.307z M43.646,21.746l-0.311,0.027
	l-0.064,0.301l-0.24,0.15l-0.385,0.031c-0.014-0.09-0.021-0.16-0.021-0.16h-0.15v-0.322h0.629l0.131-0.336l0.25-0.006l0.285,0.061
	L43.646,21.746z"/>
</svg>
