<?xml version="1.0" encoding="utf-8"?>
<!-- Generator: Adobe Illustrator 16.0.0, SVG Export Plug-In . SVG Version: 6.00 Build 0)  -->
<!DOCTYPE svg PUBLIC "-//W3C//DTD SVG 1.1//EN" "http://www.w3.org/Graphics/SVG/1.1/DTD/svg11.dtd">
<svg version="1.1" id="Layer_1" xmlns="http://www.w3.org/2000/svg" xmlns:xlink="http://www.w3.org/1999/xlink" x="0px" y="0px"
	 width="64px" height="64px" viewBox="0 0 64 64" enable-background="new 0 0 64 64" xml:space="preserve">
<g>
	<path d="M10.961,22.217v0.722c0.253-0.59,0.531-1.164,0.829-1.727L10.961,22.217z"/>
	<polygon points="25.307,20.558 25.099,20.778 25.379,21.012 25.662,20.778 	"/>
	<path d="M12.752,20.044l-0.023-0.261l-0.014-0.159c-0.329,0.517-0.638,1.045-0.925,1.588l0.31-0.376L12.752,20.044z"/>
	<polygon points="20.039,14.599 20.039,14.237 19.211,14.237 19.167,14.411 18.662,14.411 18.662,14.454 18.662,14.915 
		19.801,14.915 	"/>
	<path d="M54.796,26.679l-0.073,0.085l0.164,0.308C54.858,26.94,54.827,26.809,54.796,26.679z"/>
	<path d="M23.872,21.396l0.433-0.081l0.346-0.223v-0.461h-0.778C23.872,20.702,23.872,21.396,23.872,21.396z"/>
	<path d="M53.43,22.627c-0.17-0.384-0.351-0.763-0.543-1.136l-0.145,0.165v1.022l0.449-0.061L53.43,22.627z"/>
	<path d="M20.02,15.998c0,0,0.043-0.505,0-0.505s-0.549,0.086-0.549,0.086l-0.809,0.231l0.217,0.26L20.02,15.998z"/>
	<path d="M49.788,18.105l0.454-0.678c-0.364-0.448-0.746-0.881-1.143-1.301l-0.004,1.128l-0.995,0.504l0.099,0.331L49.788,18.105z"
		/>
	<polygon points="21.953,18.076 21.404,17.944 20.799,18.234 21.172,19 21.764,18.813 	"/>
	<polygon points="24.261,19.894 24.261,20.442 24.738,20.328 	"/>
	<polygon points="22.904,19.692 22.24,19.966 22.111,20.299 22.631,20.442 24.015,20.442 24.015,19.966 23.814,19.966 
		23.814,19.692 	"/>
	<polygon points="22.023,21.783 22.429,22.001 23.41,20.631 22.645,20.631 22.111,21.208 	"/>
	<polygon points="24.839,21.136 24.839,21.553 25.041,21.843 25.777,21.843 25.777,21.396 24.896,21.136 	"/>
	<polygon points="23.872,21.799 23.525,21.828 23.41,22.333 24.146,22.333 24.479,22.001 24.479,21.553 23.944,21.626 	"/>
	<path d="M52.646,23.66l-0.606-0.664l-0.115-1.067l-0.619,0.338l-0.334,1.307l-0.895-0.953l-0.036-0.9l-0.864-0.744l-0.319-0.316
		h-1.003l0.318,0.894l1.205,0.672l0.209,0.223l-0.26,0.131l0.01,0.707l-0.588,0.245l-0.5-0.11l-0.314-0.445l0.814,0.045l0.221-0.297
		l-1.807-1.219l-0.137-0.521l-0.736,0.664l-0.744-0.153l-1.133,1.474l-0.223,0.577l-0.726,0.066l-1.072,0.006l-0.641-0.299
		l-0.188-1.274l0.23-0.606l1.092-0.239l1.189,0.239l0.145-0.659l-0.506-0.119l0.174-1.025l1.197-0.188l0.838-1.183l0.863-0.146
		l0.781,0.116h0.287l-0.157-1.111l-0.948,0.383l-0.334-0.83L45.863,16.6l-0.104-0.57l0.45-0.489l1.067-0.418l0.275-0.491
		c-3.033-2.673-6.77-4.563-10.891-5.36c-0.094-0.017-0.186-0.034-0.279-0.05c-0.426-0.077-0.859-0.129-1.294-0.182
		c-0.927-0.113-1.864-0.192-2.822-0.192c-5.08,0-9.78,1.649-13.603,4.434l0.197-0.001l0.97-0.008l0.521,0.288l0.98,0.211
		l0.076,0.386l1.56,0.057l-0.212-0.499l-1.385-0.039l0.326-0.308l-0.114-0.365h-1.251l1.365-1.021h1.309l0.615,0.848l1.021,0.057
		l0.615-0.597l0.462,0.231l-0.847,0.827c0,0-1.173,0.02-1.116,0.02c0.059,0,0.098,0.808,0.098,0.808l1.422-0.039l0.154-0.384
		l0.981-0.059l0.115-0.575l-0.576-0.098l0.192-0.52l0.441-0.135l1.539,0.076l-0.848,0.771l0.137,0.596l0.885,0.135l-0.058-1.076
		l0.847-0.443l1.501-0.174l2.175,0.963v0.828l0.692,0.172l-0.347,0.654h-0.98l-0.291,0.75l-2.244-0.528l1.764-0.939l-0.672-0.571
		l-1.52,0.192l-0.135,0.138l-0.005-0.002L29,13.938l-0.438,0.454l-0.723,0.062l0.058,0.361l0.253,0.104l-0.01,0.119l-0.589,0.084
		l-0.043,0.342l-0.563,0.029l-0.102-0.678l-1.011,0.307l-2.063,1.209l0.23,0.85l0.576,0.376l1.155,0.159v1.313l0.532-0.087
		l0.492-1.024l1.228-0.389v-1.574l0.683-0.515l1.65,0.39l-0.117,1.039h0.443l1.212-0.596l0.059,1.365l0.884,0.539l-0.037,0.809
		l-0.847,0.288l0.058,0.268l1.019,0.465l-0.019,0.557l-0.296,0.025c-0.001-0.009-0.003-0.016-0.003-0.016l-1.287-0.396l-0.055-0.414
		h-0.001l0.376-0.258v-0.376l-0.404-0.101l-0.1,0.347l-0.711,0.109l-0.07-0.024v0.036l-0.245,0.037l-0.2-0.404l-0.232-0.101h-0.505
		l-0.229,0.188v0.418l0.432,0.145l0.428,0.059l-0.096,0.043l-0.391,0.431l-0.17-0.216l-0.377-0.099l-1.025,0.965l0.135,0.11
		l-1.515,0.837l-1.425,1.482l-0.097,0.659l-1.427,0.938L22.774,25.7l0.078,1.424l-0.981-0.458l0.007-0.832l-2.73,0.001l-1.415,0.716
		l-0.613,1.132l-0.244,0.897l0.398,0.871l1.113,0.136l1.771-1.185l0.154,0.587l-0.54,1.021l1.349,0.229l0.135,2.081l0.17,0.029
		l0.016,0.002l1.662,0.283l1.172-1.356l1.425,0.289l0.499,0.696l1.367-0.081l0.037-0.403l0.752,0.364l0.846,1.327l1.462,0.021
		l0.54,0.943l0.076,1.153l1.617,0.616l2.039,0.02l0.597,0.979l0.903,0.29l-0.172,0.809l-0.992,1.259l-0.289,2.786l-0.895,0.708
		l-1.326-0.041l-0.444,0.77l0.329,1.444l-1.443,1.847l-0.463,0.848l-1.376,0.661l-0.903,0.138l-0.039,0.384l0.636,0.182L28.98,49.7
		l-0.568,0.549l0.346,0.435l0.684,0.019l-0.039,0.529l-0.182,0.52l-0.057,0.423l1.012,0.853L30.04,53.47l-1.378-0.025l-1.371-1.198
		l-1.067-1.877l0.149-1.813l-0.809-1.077l0.327-1.827l-0.479-0.136v-3.963c0,0-1.348-1.021-1.424-1.021
		c-0.078,0-0.713-0.171-0.713-0.171l-0.134-0.751l-1.752-2.193l0.173-0.789l0.059-1.289l1.211-0.847l-0.172-1.443l-1.77-0.134
		l-1.387-1.578l-0.98-0.269l-0.635-0.116l0.076-0.576l-0.809-0.116v0.327l-2.02-0.5l-0.814-1.244l0.282-0.511l-0.334-0.004
		l-0.098-0.324l0.237-0.12l-1.035-1.511l-0.221-1.366h-0.52l0.174,1.327l0.885,1.366l-0.097,0.54l-0.751-0.115l-0.922-1.574V24.72
		l-0.963-0.463v-1.116v-0.202c-0.542,1.271-0.969,2.604-1.277,3.979l0.054-0.011l0.318-0.064l0.188,0.903l0.396,0.641l0.264,0.302
		l0.479,0.188l-0.451,0.536l-0.874,0.085H9.396l0.074-0.78l0.547-0.113l-0.047-0.367l-0.453-0.286L9.48,27.926
		c-0.236,1.324-0.367,2.684-0.367,4.073c0,0.041,0.003,0.082,0.003,0.123c0.067,12.711,10.425,23.031,23.15,23.031
		c7.237,0,13.708-3.341,17.957-8.559h-0.763v-1.539l-0.884-1.19v-1.852l-0.675-0.671l-0.058-0.771l0.854-1.636l-1.624-2.866
		l0.192-1.945l-1.461-0.151l-0.539-0.539h-0.982l-0.5,0.462h-1.73l-0.059,0.153h-0.963l-2.211-2.52l0.018-1.963l0.365-0.135
		l0.137-0.751h-0.52l-0.213-0.789l2.559-1.847v-1.308l1.253-0.696l0.507,0.052h1.031l0.807-0.434l2.598-0.203v1.328l2.05,0.521
		l0.403,0.288h0.377v-0.722l1.182-0.115l1.126,0.837h1.848l0.129-0.118c-0.183-0.623-0.392-1.234-0.626-1.836L52.646,23.66z"/>
</g>
</svg>
