<?xml version="1.0" encoding="utf-8"?>
<!-- Generator: Adobe Illustrator 16.0.0, SVG Export Plug-In . SVG Version: 6.00 Build 0)  -->
<!DOCTYPE svg PUBLIC "-//W3C//DTD SVG 1.1//EN" "http://www.w3.org/Graphics/SVG/1.1/DTD/svg11.dtd">
<svg version="1.1" id="Layer_1" xmlns="http://www.w3.org/2000/svg" xmlns:xlink="http://www.w3.org/1999/xlink" x="0px" y="0px"
	 width="64px" height="64px" viewBox="0 0 64 64" enable-background="new 0 0 64 64" xml:space="preserve">
<g>
	<path d="M32,15.793c-2.75,0.379-5.123,3.213-6.47,7.288c1.939,0.583,4.137,0.937,6.47,0.993V15.793z"/>
	<path d="M32,45.793v-8.279c-2.335,0.057-4.533,0.41-6.474,0.994C26.873,42.584,29.249,45.415,32,45.793z"/>
	<path d="M32,32h-7.625c0.082,1.865,0.353,3.633,0.776,5.245c2.066-0.636,4.388-1.018,6.85-1.077V32z"/>
	<path d="M32,25.419c-2.459-0.06-4.779-0.44-6.843-1.075c-0.504,1.918-0.798,4.053-0.81,6.312H32V25.419z"/>
	<path d="M27.893,16.532c-2.635,0.891-4.942,2.499-6.695,4.589c0.895,0.588,1.932,1.107,3.084,1.539
		C25.143,20.109,26.39,17.985,27.893,16.532z"/>
	<path d="M23.9,23.915c-1.299-0.49-2.474-1.085-3.49-1.767c-1.696,2.414-2.711,5.342-2.74,8.507h5.336
		C23.018,28.249,23.34,25.969,23.9,23.915z"/>
	<path d="M24.281,38.928c-1.15,0.432-2.186,0.949-3.079,1.536c1.753,2.089,4.056,3.7,6.691,4.591
		C26.39,43.602,25.141,41.479,24.281,38.928z"/>
	<path d="M44.93,22.149c-1.034,0.692-2.232,1.298-3.56,1.792c0.556,2.047,0.875,4.318,0.887,6.714h5.413
		C47.642,27.49,46.626,24.563,44.93,22.149z"/>
	<path d="M23.033,32H17.72c0.219,2.756,1.187,5.3,2.691,7.439c1.015-0.682,2.19-1.276,3.489-1.767
		C23.423,35.926,23.119,34.014,23.033,32z"/>
	<path d="M47.622,32h-5.393c-0.085,2.004-0.388,3.905-0.86,5.646c1.329,0.495,2.528,1.101,3.562,1.794
		C46.436,37.301,47.402,34.756,47.622,32z"/>
	<path d="M33.341,36.168c2.433,0.059,4.729,0.434,6.777,1.055c0.42-1.605,0.689-3.366,0.771-5.223h-7.548V36.168z"/>
	<path d="M33.341,45.783c2.723-0.422,5.07-3.248,6.402-7.296c-1.923-0.572-4.096-0.918-6.402-0.974V45.783z"/>
	<path d="M44.14,40.465c-0.911-0.599-1.971-1.125-3.149-1.563c-0.868,2.586-2.137,4.734-3.663,6.193
		C40.014,44.213,42.359,42.586,44.14,40.465z"/>
	<path d="M44.143,21.121c-1.781-2.121-4.129-3.748-6.814-4.63c1.526,1.459,2.792,3.609,3.661,6.194
		C42.169,22.248,43.23,21.721,44.143,21.121z"/>
	<path d="M33.341,15.804v8.271c2.306-0.057,4.477-0.402,6.399-0.973C38.407,19.054,36.063,16.226,33.341,15.804z"/>
	<path d="M33.341,30.655h7.575c-0.012-2.251-0.303-4.377-0.804-6.29c-2.046,0.621-4.34,0.995-6.771,1.054V30.655z"/>
	<path d="M32.602,10.09c6.39,0,12.095,2.969,15.825,7.592l-2.45,1.73l7.705,2.63l-0.8-7.505l-2.158,1.523
		c-4.243-5.344-10.785-8.781-18.122-8.781c-3.613,0-7.035,0.834-10.085,2.316l0.898,2.696C26.177,10.887,29.297,10.09,32.602,10.09z
		"/>
	<path d="M52.779,35.644c-0.707,3.017-2.109,5.917-4.239,8.442c-4.121,4.885-10.067,7.332-16.007,7.203l0.258-2.988l-6.978,4.193
		l6.252,4.227l0.227-2.631c6.819,0.201,13.666-2.584,18.396-8.191c2.33-2.763,3.898-5.915,4.732-9.203L52.779,35.644z"/>
	<path d="M12.911,38.699c-2.426-5.911-1.848-12.315,1.014-17.522l2.53,1.61l-0.493-8.127l-6.638,3.59l2.229,1.418
		c-3.332,5.953-4.028,13.313-1.241,20.099c1.372,3.345,3.443,6.192,5.972,8.451l2.154-1.856
		C16.088,44.341,14.166,41.756,12.911,38.699z"/>
</g>
</svg>
