<?xml version="1.0" encoding="utf-8"?>
<!-- Generator: Adobe Illustrator 16.0.0, SVG Export Plug-In . SVG Version: 6.00 Build 0)  -->
<!DOCTYPE svg PUBLIC "-//W3C//DTD SVG 1.1//EN" "http://www.w3.org/Graphics/SVG/1.1/DTD/svg11.dtd">
<svg version="1.1" id="Layer_1" xmlns="http://www.w3.org/2000/svg" xmlns:xlink="http://www.w3.org/1999/xlink" x="0px" y="0px"
	 width="64px" height="64px" viewBox="0 0 64 64" enable-background="new 0 0 64 64" xml:space="preserve">
<g>
	<path d="M31.999,13.879C18.245,13.879,6.626,22.178,6.626,32s11.619,18.121,25.373,18.121S57.374,41.822,57.374,32
		S45.753,13.879,31.999,13.879z M8.626,32c0-8.738,10.703-16.121,23.373-16.121c7.513,0,14.333,2.596,18.643,6.529l-0.316,0.037
		l-0.4,0.209l0.029,0.506l-0.418-0.063l-0.064-0.279l0.398-0.363l-0.723-0.037L48.94,22.48l-0.094,0.246l0.273,0.045l-0.055,0.271
		l-0.463,0.027l-0.072,0.182l-0.668,0.018c0,0-0.02-0.381-0.045-0.381c-0.029,0,0.523-0.01,0.523-0.01l0.398-0.389l-0.217-0.107
		l-0.291,0.279l-0.479-0.025l-0.291-0.4h-0.615l-0.643,0.48h0.588l0.055,0.172l-0.154,0.146l0.652,0.018l0.1,0.236l-0.732-0.029
		l-0.037-0.18l-0.463-0.1l-0.244-0.137l-1.086,0.01l-0.336,0.326l-0.227-0.02l-0.252-0.145l-0.752-0.227H41.94l-0.799,0.543
		l-0.533,0.084l-0.246,0.189l0.383,0.057v0.15h-0.816l-0.316,0.227l0.408,0.344l1.111,0.01l0.154-0.164h0.932l0.336,0.301
		l-0.018,0.461l0.281,0.264l-0.234,0.166l0.053,0.611l-0.842,1.023v0.961l0.453,0.217v0.861l0.434,0.74l0.354,0.055l0.045-0.254
		l-0.416-0.643l-0.08-0.623h0.242l0.104,0.643l0.604,0.877l-0.156,0.285l0.383,0.584l0.953,0.236V30.84l0.379,0.053l-0.037,0.273
		l0.299,0.055l0.463,0.127l0.65,0.742l0.834,0.063l0.08,0.68l-0.57,0.398l-0.025,0.605l-0.082,0.373l0.822,1.033l0.064,0.352
		c0,0,0.299,0.08,0.336,0.08s0.67,0.48,0.67,0.48v1.865l0.227,0.064l-0.156,0.859l0.383,0.508l-0.072,0.854l0.504,0.883l0.645,0.563
		l0.313,0.006c-4.317,3.838-11.035,6.365-18.438,6.365C19.329,48.121,8.626,40.738,8.626,32z M47.937,25.994v0.225h-0.65
		l-0.244-0.068l0.061-0.156l0.313-0.129h0.428v0.129H47.937z M48.237,26.309v0.217l-0.164,0.105l-0.203,0.037c0,0,0-0.326,0-0.359
		H48.237z M48.054,26.219v-0.258l0.225,0.203L48.054,26.219z M47.708,26.873l0.162-0.016l0.033-0.08l0.252-0.035v0.211l-0.156,0.156
		h-0.346L47.708,26.873z M47.19,26.953l-0.189-0.102l0.041-0.273l0.25-0.27h0.361L47.19,26.953z M46.966,25.105l-0.088,0.346
		l-0.277,0.09l-0.176-0.361l0.283-0.135L46.966,25.105z M45.8,23.932c0,0,0.236-0.043,0.258-0.043s0,0.238,0,0.238l-0.537,0.035
		l-0.102-0.123L45.8,23.932z M45.419,23.619V23.4v-0.02h0.236l0.023-0.082h0.387v0.17l-0.111,0.15H45.419z M50.747,41.48
		l-0.058-0.051l0.101-0.016l0.096-0.059C50.841,41.398,50.792,41.438,50.747,41.48z M52.62,39.457l-0.27,0.018l-0.021,0.344
		c-0.166,0.199-0.334,0.396-0.51,0.59l-0.42,0.057l-0.941,0.672l-0.06,0.047l-0.036-0.029l0.025-0.201l0.084-0.244l0.02-0.248
		l-0.322-0.01l-0.162-0.203l0.268-0.258l0.035-0.195l-0.299-0.086l0.02-0.18l0.426-0.064l0.646-0.313l0.217-0.398l0.68-0.869
		l-0.154-0.68l0.209-0.363l0.625,0.02l0.42-0.334l0.137-1.309l0.467-0.594l0.08-0.381l-0.424-0.135l-0.283-0.463l-0.957-0.008
		l-0.762-0.291l-0.037-0.541l-0.254-0.445l-0.688-0.01l-0.398-0.625l-0.354-0.172l-0.016,0.189l-0.645,0.039l-0.234-0.328
		l-0.672-0.137l-0.551,0.639l-0.871-0.146l-0.063-0.98l-0.635-0.107l0.254-0.48l-0.072-0.277l-0.832,0.559l-0.527-0.064l-0.186-0.41
		l0.115-0.422l0.289-0.533l0.664-0.338h1.287l-0.004,0.393l0.463,0.215l-0.039-0.67l0.334-0.334l0.672-0.443l0.045-0.311l0.67-0.695
		l0.713-0.395l-0.063-0.053l0.484-0.453l0.176,0.047l0.082,0.102l0.182-0.203l0.045-0.021l-0.201-0.027l-0.203-0.066v-0.197
		l0.107-0.09h0.238l0.111,0.049l0.092,0.189l0.117-0.018v-0.016l0.033,0.01l0.332-0.051l0.047-0.164l0.191,0.049v0.176l-0.176,0.121
		l0.025,0.195l0.605,0.188c0,0,0,0.002,0.002,0.006l0.139-0.012l0.008-0.262l-0.479-0.219l-0.027-0.127l0.398-0.135l0.018-0.381
		L51.655,24.9l-0.027-0.645l-0.57,0.281h-0.209l0.055-0.488l-0.777-0.184l-0.32,0.24v0.742l-0.578,0.184l-0.23,0.482l-0.252,0.039
		v-0.617l-0.541-0.074l-0.271-0.176l-0.111-0.4l0.973-0.57l0.477-0.145l0.045,0.318l0.268-0.014l0.02-0.16l0.275-0.039l0.004-0.057
		l-0.117-0.049l-0.027-0.17l0.342-0.027l0.203-0.215l0.014-0.016v0.002l0.066-0.064l0.713-0.092l0.316,0.27l-0.83,0.441l1.057,0.25
		l0.137-0.354h0.068c2.241,2.465,3.551,5.352,3.551,8.404C55.374,34.67,54.37,37.213,52.62,39.457z M48.767,26.668v0.211h-0.348
		l-0.094-0.137v-0.197h0.027L48.767,26.668z M48.448,26.377l0.098-0.104l0.168,0.104l-0.135,0.109L48.448,26.377z"/>
	<polygon points="30.397,34.963 29.728,34.98 29.7,34.617 29.808,34.664 30.071,34.637 30.042,34.303 29.319,34.311 29.12,34.049 
		29.132,33.91 28.196,33.07 27.97,33.25 29.302,34.881 29.491,34.945 29.491,35.033 29.237,35.033 29.302,35.234 30.938,35.307 	"/>
	<polygon points="31.446,34.111 31.56,34.037 31.56,33.143 31.446,33.096 31.394,32.814 31.229,32.814 31.124,33.098 30.999,33.211 
		30.052,33.725 30.052,34.232 30.368,34.65 31.165,34.65 31.267,34.391 31.446,34.229 	"/>
	<polygon points="32.149,34.037 31.671,34.223 31.677,34.328 31.56,34.328 31.56,34.99 31.804,34.99 31.767,34.568 31.958,34.637 
		31.958,34.936 32.155,34.92 	"/>
	<polygon points="35.563,37.096 35.526,36.299 35.204,35.746 34.915,35.732 34.798,36.732 34.243,36.691 34.089,36.598 
		34.069,36.201 34.362,36.262 34.61,36.021 34.085,35.703 33.466,35.703 33.022,36.334 32.841,36.334 32.841,36.135 32.31,36.176 
		31.468,37.135 31.021,37.141 30.524,37.484 30.487,38.969 30.188,39.26 30.188,39.521 31.638,39.023 32.812,38.977 33.245,39.934 
		34.579,39.979 35.866,38.77 36.183,38.049 36.052,37.514 	"/>
	<polygon points="33.421,40.668 33.892,40.721 34.274,40.512 34.28,40.223 33.864,40.18 	"/>
	<polygon points="34.255,34.42 33.95,34.428 33.974,34.111 33.683,33.939 33.272,34.352 33.548,34.691 34.146,34.777 34.479,34.953 
		34.489,35.115 34.271,35.115 34.28,35.451 35.005,35.406 35.269,35.125 35.548,35.098 35.548,35.615 36.038,35.615 36.038,35.406 
		35.794,35.406 35.749,34.777 34.579,34.246 	"/>
	<polygon points="25.562,32.916 25.675,33.225 26.087,33.07 26.132,32.645 25.8,32.578 	"/>
	<polygon points="20.726,36.502 20.163,36.43 20.163,36.865 20.364,37.1 20.212,37.334 19.981,37.598 19.981,38.078 20.29,38.377 
		20.573,37.926 21.124,37.117 21.388,35.85 21.054,35.85 	"/>
	<polygon points="32.269,35.164 32.087,35.164 32.087,35.262 32.228,35.307 	"/>
	<rect x="31.229" y="35.307" width="0.217" height="0.121"/>
	<polygon points="31.761,35.428 31.896,35.428 31.896,35.322 31.993,35.307 31.993,35.203 31.776,35.203 31.687,35.307 
		31.56,35.428 31.56,35.533 31.761,35.512 	"/>
	<polygon points="32.317,35.521 32.534,35.521 32.534,35.41 32.687,35.428 32.665,35.234 32.419,35.273 32.396,35.396 32.12,35.428 
		32.104,35.428 32.104,35.617 32.317,35.617 	"/>
	<polygon points="13.636,25.803 13.657,25.98 13.396,26.035 13.36,26.41 13.679,26.41 14.097,26.369 14.313,26.111 14.085,26.021 
		13.958,25.875 13.767,25.568 13.679,25.133 13.317,25.205 13.218,25.359 13.218,25.531 13.392,25.65 	"/>
	<polygon points="13.333,25.947 13.351,25.713 13.142,25.621 12.849,25.689 12.63,26.039 12.63,26.266 12.884,26.266 	"/>
	<path d="M28.364,32.83l1.289,1.236l0.068-0.219l-1.045-1.494l0.107-0.436l0.553,0.629l0.309,0.031l0.406-0.27l-0.066-0.406
		l-0.672-0.541l-0.027-0.486l0.191-0.26l0.34,0.109l-0.029,0.23l0.197,0.299l0.172-0.121l-0.096-0.354l0.951-0.34l0.416-0.35
		l-0.064-0.629l-0.828-0.869l-0.012-0.705h0.365l1.141,0.869l0.322-0.086l-0.213-0.281l-0.611-0.371l0.037-0.553l0.725,0.002
		l0.057-0.684l-0.275-0.365l0.164-0.174l0.352,0.352l0.113-0.148l-0.453-0.518l-1.127-0.135l-0.148-0.299l0.326-0.463l0.258,0.191
		l0.773,0.066l0.979-0.652l0.162,0.203l-0.217,0.34v0.34l0.896,0.734l0.285-0.148l-0.107-0.49l-0.639-0.596l0.842-0.057v-0.244
		l0.408-0.082l-0.313-0.215l0.014-0.164l0.855,0.139l0.162-0.139l-1.154-0.488l-4.209-0.217l-0.395-0.201l-0.627-0.094l-0.469-0.014
		l-0.426,0.43l-0.182-0.014L27.63,23.24h-1.668l-0.777-0.461l-1.551,0.098l-1.18,0.525l0.012,0.613l-0.365,0.109l-0.08-0.613
		l-0.135-0.211l-0.408-0.102l-0.096,0.367l0.123,0.299l-1.449-0.094l-0.689,0.32l-0.107-0.303l-0.172,0.045l-0.125,0.334
		l-0.363,0.283l-0.883-0.025l-0.041-0.193l0.924-0.041l0.189-0.162l-1.113-0.518l-1.359,0.043l-0.758,0.389l-0.287,0.508
		l-0.502,0.197l-0.211,0.23l0.049,0.268l0.258,0.035l0.156,0.393l0.445-0.182l0.076,0.523h-0.135l-0.369-0.055l-0.406,0.068
		l-0.395,0.557l-0.563,0.09l-0.082,0.48l0.238,0.057l-0.068,0.311l-0.559-0.111l-0.514,0.111l-0.109,0.285l0.088,0.6l0.301,0.141
		l0.506-0.002l0.342-0.031l0.104-0.271l0.533-0.693l0.352,0.07l0.346-0.313l0.064,0.246l0.85,0.574l-0.102,0.139l-0.385-0.02
		l0.148,0.209l0.236,0.053l0.277-0.117l-0.008-0.332l0.125-0.061l-0.102-0.105l-0.566-0.316l-0.148-0.422h0.471l0.15,0.15
		l0.408,0.35l0.016,0.424l0.422,0.447l0.156-0.613l0.293-0.16l0.053,0.504l0.287,0.313l0.857-0.014l0.256,0.189v0.449l-0.313,0.285
		h-0.871l-0.529-0.395l-0.557,0.055v0.34h-0.176l-0.189-0.137L15.312,29v-0.625l-1.223,0.096l-0.381,0.203h-0.484l-0.238-0.025
		l-0.59,0.328v0.617l-1.205,0.869l0.102,0.371h0.242l-0.063,0.354L11.3,31.25l-0.008,0.924l1.039,1.186h0.453l0.027-0.072h0.814
		l0.236-0.217h0.461l0.256,0.254l0.688,0.07l-0.092,0.916l0.766,1.35l-0.404,0.77l0.027,0.361l0.318,0.318v0.869l0.416,0.561v0.725
		h1.232l0.924-0.951l0.289-0.516l0.371-0.082v-0.434l0.244-0.291l0.516-0.705l-0.107-1.076l-0.227-0.4l1.018-0.971l1.119-1.602
		l-0.217-0.1l-1.164,0.244l-0.299-0.148l-1.223-2.303l0.086-0.1l1.213,1.473l0.029,0.455l0.279,0.281l0.568-0.037l1.193-0.863
		l0.373-0.244l-0.008-0.299l-0.396-0.051c0,0-1.396-0.658-1.396-0.688s0.01-0.563,0.01-0.563h0.309l0.045,0.389l0.646,0.371
		l0.74,0.035l1.602,0.264l0.375,0.234v0.367l-0.047,0.5l0.82,1.352l0.266,0.061l0.264-0.385l0.146-1.092l0.273-0.59l0.441-0.164
		l0.779,0.074l0.979,0.869V32.83z M17.097,24.232l-0.539,0.33v0.217l0.305,0.143l0.021,0.291l-0.43,0.643l-0.75-0.008l-0.047-0.154
		l0.469-0.238l0.002-0.887l0.797-0.553h0.172V24.232z M18.759,28.008l-0.705-0.029l-0.211,0.029v-0.48l0.158-0.178l0.17-0.055
		l0.375-0.043l0.08-0.127l0.154,0.076l0.021,0.438l0.41,0.17l0.033,0.199H18.759z M21.466,28.352l-0.125,0.119l-0.283-0.023
		l-0.057-0.086l-0.447-0.031l0.033-0.145l0.234-0.205v-0.172l-0.451-0.33l-0.02-0.422l0.09-0.207l0.367-0.033l0.313,0.133
		l0.014,0.217l-0.443-0.025l-0.023,0.203l0.557,0.369v0.273l0.242,0.176V28.352z"/>
	<path d="M42.464,25.34l0.045-0.287l-0.293-0.045c0,0.018,0.021,0.332,0.045,0.332C42.282,25.34,42.464,25.34,42.464,25.34z"/>
	<path d="M50.915,26.213l-0.063,0.164H50.54v0.16h0.074c0,0,0.004,0.035,0.01,0.08l0.191-0.016l0.119-0.074l0.031-0.15l0.154-0.014
		l0.063-0.125l-0.143-0.031L50.915,26.213z"/>
	<polygon points="50.112,26.504 50.099,26.662 50.327,26.643 50.349,26.484 50.212,26.377 	"/>
</g>
</svg>
