<?xml version="1.0" encoding="utf-8"?>
<!-- Generator: Adobe Illustrator 16.0.0, SVG Export Plug-In . SVG Version: 6.00 Build 0)  -->
<!DOCTYPE svg PUBLIC "-//W3C//DTD SVG 1.1//EN" "http://www.w3.org/Graphics/SVG/1.1/DTD/svg11.dtd">
<svg version="1.1" id="Layer_1" xmlns="http://www.w3.org/2000/svg" xmlns:xlink="http://www.w3.org/1999/xlink" x="0px" y="0px"
	 width="64px" height="64px" viewBox="0 0 64 64" enable-background="new 0 0 64 64" xml:space="preserve">
<path d="M56.188,31.611c-0.033-2.078-0.346-4.088-0.904-5.996c-0.205-0.705-0.445-1.395-0.717-2.068
	c-0.549-1.369-1.23-2.674-2.025-3.895c-0.361-0.555-0.746-1.092-1.152-1.611c-1.115-1.424-2.395-2.711-3.813-3.832
	c-0.486-0.385-0.986-0.752-1.502-1.096c-3.586-2.387-7.887-3.783-12.51-3.783c-0.039,0-0.1,0-0.535,0l-0.008,0.102l-7.246,0.15
	l-3.127,2.77c0,0,0.066,3.105,0.096,4.658c-0.922,0.455-1.799,0.98-2.621,1.566c-1.242-0.662-3.738-1.988-3.738-1.988l-4.098,0.818
	l-4.313,8.08l-0.168,0.557l0.984,3.541c0,0,2.893,1.535,4.342,2.307c0.006,0.986,0.1,1.947,0.287,2.891
	c-1.191,0.891-3.576,2.682-3.576,2.682l-0.25,4.166l5.484,7.328c0,0,3.41,0.613,3.6,0.525c0.191-0.094,0.572-0.273,0.572-0.273
	s2.266-1.697,3.4-2.547c0.887,0.461,1.813,0.863,2.785,1.188c0.037,1.23,0.115,3.695,0.115,3.695l2.768,3.125l4.645-0.145
	l0.01,0.086l0.518-0.027c0.025,0,0.051,0.004,0.074,0.004c7.479,0,14.119-3.648,18.242-9.256c0.719-0.98,1.361-2.02,1.918-3.113
	c1.25-2.445,2.074-5.146,2.357-8.004c0.074-0.742,0.113-1.496,0.113-2.256C56.195,31.844,56.189,31.729,56.188,31.611z
	 M53.207,25.211c-0.715,0.758-1.531,1.469-2.426,2.131c-0.373-1.521-0.898-2.98-1.52-4.357c0.748-0.568,1.436-1.176,2.043-1.824
	C52.078,22.428,52.717,23.785,53.207,25.211z M42.895,24.287c-0.457-1.85-1.018-3.6-1.617-5.199c0.963-0.375,1.85-0.828,2.662-1.342
	c1.029,1.375,2.059,2.939,2.949,4.648C45.695,23.137,44.354,23.775,42.895,24.287z M47.686,24.055
	c0.611,1.393,1.109,2.865,1.434,4.393c-1.555,0.938-3.299,1.738-5.193,2.369c-0.105-1.613-0.324-3.193-0.627-4.719
	C44.893,25.551,46.363,24.859,47.686,24.055z M43.17,40.539c1.836-0.447,3.58-1.018,5.223-1.699
	c-0.916,2.695-2.27,5.113-3.643,7.121c-1.096,0.289-2.229,0.527-3.383,0.727C42.041,44.887,42.689,42.82,43.17,40.539z
	 M43.537,38.559c0.293-1.844,0.457-3.799,0.447-5.826c1.967-0.621,3.793-1.416,5.445-2.352c0.055,0.52,0.096,1.043,0.105,1.572
	c0.025,1.596-0.168,3.145-0.506,4.629C47.334,37.379,45.488,38.041,43.537,38.559z M46.451,15.686
	c1.43,1.133,2.707,2.447,3.795,3.912c-0.527,0.605-1.135,1.174-1.809,1.709c-0.908-1.719-1.938-3.289-2.973-4.672
	C45.818,16.332,46.15,16.016,46.451,15.686z M44.965,14.607c-0.193,0.203-0.416,0.395-0.635,0.584
	c-0.563-0.688-1.111-1.311-1.627-1.869C43.484,13.707,44.244,14.131,44.965,14.607z M38.477,11.785
	c0.492,0.43,2.309,2.061,4.33,4.52c-0.672,0.408-1.408,0.771-2.205,1.074c-1.006-2.422-2.039-4.402-2.799-5.746
	C38.027,11.682,38.252,11.73,38.477,11.785z M34.736,11.23c0.234,0.014,0.467,0.029,0.699,0.049
	c0.623,1.021,2.012,3.428,3.365,6.654c-1.375,0.348-2.859,0.545-4.42,0.545c-0.002,0-0.004,0-0.006,0
	C34.518,15.102,34.66,12.531,34.736,11.23z M34.299,20.334c0.027,0,0.055,0.002,0.082,0.002c1.803,0,3.521-0.244,5.109-0.672
	c0.6,1.59,1.162,3.332,1.613,5.17c-2.082,0.547-4.346,0.854-6.723,0.854c-0.088,0-0.174-0.006-0.262-0.006
	C34.174,23.779,34.236,21.98,34.299,20.334z M33.994,31.273c0.02-1.273,0.047-2.521,0.076-3.736
	c0.105,0.002,0.207,0.008,0.311,0.008c2.51,0,4.906-0.324,7.121-0.906c0.301,1.529,0.516,3.111,0.598,4.719
	c-2.521,0.662-5.258,1.035-8.121,1.061C33.982,32.037,33.986,31.654,33.994,31.273z M21.879,31.445
	c0.305-5.078,4.668-8.945,9.742-8.641c0.252,0.016,0.5,0.045,0.746,0.082c-0.104,2.578-0.174,4.568-0.152,4.57
	c-0.029,1.229-0.057,2.494-0.078,3.787c-0.004,0.23,0.086,5.414,0.178,9.854c-0.586,0.082-1.184,0.129-1.799,0.092
	C25.439,40.885,21.574,36.521,21.879,31.445z M33.971,34.275c2.863-0.023,5.609-0.383,8.164-1.021
	c-0.025,2.01-0.24,3.945-0.572,5.77c-2.383,0.492-4.908,0.768-7.521,0.791C33.996,38.025,33.971,36.162,33.971,34.275z
	 M34.092,41.662c2.443-0.023,4.805-0.27,7.063-0.691c-0.533,2.262-1.225,4.301-1.916,6.027c-1.598,0.189-3.234,0.299-4.91,0.309
	C34.24,45.615,34.158,43.707,34.092,41.662z M36.568,52.488c-0.629,0.094-1.268,0.154-1.912,0.188
	c-0.064-0.895-0.145-2.09-0.227-3.514c1.346-0.01,2.67-0.082,3.971-0.207C37.602,50.697,36.902,51.93,36.568,52.488z M39.875,51.734
	c-0.291,0.094-0.59,0.174-0.887,0.256c0.453-0.848,1.008-1.963,1.582-3.299c0.836-0.123,1.664-0.262,2.473-0.43
	C41.627,50.025,40.396,51.244,39.875,51.734z M44.291,49.711c0.535-0.65,1.096-1.377,1.662-2.174c0.682-0.195,1.355-0.4,2.012-0.627
	C46.855,47.979,45.615,48.908,44.291,49.711z M50.543,43.906c-0.959,0.441-1.971,0.832-3.006,1.195
	c1.266-2.135,2.41-4.6,3.117-7.305c1.168-0.594,2.289-1.232,3.311-1.939C53.404,38.809,52.215,41.537,50.543,43.906z M54.287,33.348
	c-0.959,0.77-2.014,1.484-3.15,2.139c0.18-1.156,0.275-2.346,0.254-3.564c-0.014-0.889-0.096-1.762-0.225-2.619
	c0.949-0.648,1.828-1.346,2.619-2.092c0.357,1.527,0.555,3.113,0.555,4.748C54.34,32.426,54.318,32.889,54.287,33.348z"/>
</svg>
