<?xml version="1.0" encoding="utf-8"?>
<!-- Generator: Adobe Illustrator 16.0.0, SVG Export Plug-In . SVG Version: 6.00 Build 0)  -->
<!DOCTYPE svg PUBLIC "-//W3C//DTD SVG 1.1//EN" "http://www.w3.org/Graphics/SVG/1.1/DTD/svg11.dtd">
<svg version="1.1" id="Layer_1" xmlns="http://www.w3.org/2000/svg" xmlns:xlink="http://www.w3.org/1999/xlink" x="0px" y="0px"
	 width="64px" height="64px" viewBox="0 0 64 64" enable-background="new 0 0 64 64" xml:space="preserve">
<g>
	<polygon points="41.776,29.618 42.204,29.618 42.771,29.563 43.064,29.215 42.753,29.094 42.583,28.897 42.326,28.483 
		42.204,27.897 41.723,27.995 41.587,28.201 41.587,28.434 41.819,28.593 42.149,28.801 42.179,29.038 41.825,29.111 	"/>
	<polygon points="41.088,28.647 40.795,29.117 40.795,29.422 41.136,29.422 41.74,28.995 41.765,28.678 41.482,28.556 	"/>
	<path d="M33.525,30.566h-0.421v0.216h0.102c0,0,0.005,0.047,0.014,0.106l0.257-0.021l0.162-0.1l0.042-0.202l0.209-0.019l0.082-0.17
		l-0.191-0.039l-0.167,0.003L33.525,30.566z"/>
	<polygon points="32.511,30.948 32.816,30.923 32.849,30.71 32.664,30.566 32.528,30.737 	"/>
	<path d="M50.828,37.518c-0.005-0.468-0.029-0.932-0.073-1.39c-0.147-1.525-0.513-2.986-1.06-4.356
		c-0.041-0.102-0.079-0.206-0.12-0.306c-0.729-1.721-1.752-3.285-3.002-4.637c-0.082-0.089-0.165-0.175-0.249-0.262
		c-0.237-0.244-0.478-0.484-0.731-0.714c-2.844-2.59-6.622-4.171-10.762-4.171c-0.585,0-1.16,0.039-1.729,0.101
		c-0.123,0.473-0.276,0.934-0.459,1.385c0.715-0.107,1.444-0.169,2.188-0.169c3.712,0,7.106,1.388,9.694,3.668l-0.174,0.313
		l-0.678,0.265l-0.284,0.31l0.065,0.362l0.349,0.048l0.212,0.526l0.602-0.242l0.1,0.704h-0.182l-0.496-0.073l-0.548,0.092
		l-0.531,0.75l-0.759,0.12l-0.11,0.649l0.32,0.076l-0.092,0.418l-0.755-0.152l-0.692,0.152l-0.146,0.384l0.119,0.809l0.406,0.189
		l0.681-0.004l0.459-0.042l0.142-0.365l0.717-0.935l0.474,0.097l0.466-0.421l0.086,0.329l1.147,0.773l-0.14,0.188l-0.517-0.028
		l0.199,0.282l0.318,0.07l0.373-0.155l-0.007-0.449l0.166-0.083l-0.133-0.141l-0.764-0.427l-0.202-0.566h0.636l0.202,0.201
		l0.548,0.472l0.023,0.57l0.567,0.604l0.211-0.828l0.393-0.214l0.073,0.677l0.384,0.422l0.765-0.014
		c0.148,0.381,0.281,0.769,0.397,1.164l-0.082,0.075h-1.171l-0.714-0.531l-0.75,0.072v0.459h-0.239l-0.255-0.184l-1.3-0.329v-0.842
		l-1.647,0.129l-0.512,0.273h-0.654l-0.321-0.032l-0.794,0.441v0.829l-1.622,1.172l0.134,0.5h0.33l-0.087,0.477L39,36.14
		l-0.012,1.245l1.403,1.598h0.61l0.038-0.098h1.098l0.316-0.292h0.624l0.341,0.341l0.927,0.098l-0.123,1.232l1.031,1.818
		l-0.542,1.037l0.037,0.488l0.428,0.427v1.174l0.56,0.755v0.976h0.485c-2.695,3.31-6.799,5.429-11.389,5.429
		c-8.097,0-14.684-6.588-14.684-14.685c0-1.526,0.235-2.999,0.669-4.384l-0.201-0.298c-0.067-0.099-0.334-0.487-0.719-1.02
		c-0.681,1.773-1.065,3.691-1.065,5.701c0,8.823,7.178,16,16,16c6.206,0,11.594-3.554,14.246-8.73
		c0.567-1.107,1.009-2.288,1.307-3.523c0.075-0.313,0.14-0.63,0.197-0.949c0.161-0.909,0.249-1.843,0.249-2.797
		C50.831,37.627,50.829,37.572,50.828,37.518z M45.944,28.87l-1.007-0.009l-0.063-0.21l0.631-0.321l0.003-0.714
		c0.251,0.266,0.494,0.541,0.725,0.825L45.944,28.87z M48.102,31.732l-0.284,0.039v-0.648l0.092-0.104
		c0.121,0.236,0.236,0.477,0.344,0.72L48.102,31.732z M49.073,34.361l0.047-0.055c0.02,0.084,0.039,0.166,0.059,0.251L49.073,34.361
		z"/>
	<path d="M31.118,26.072l-0.209,0.013c-0.698,0.847-1.508,1.605-2.441,2.216c-0.104,0.163-0.212,0.339-0.321,0.517l0.145,0.034
		l-0.121,0.468l-0.375,0.118l-0.011-0.023c-0.799,1.331-1.625,2.796-1.939,3.357L25,34.297l-1.126,2.028l0.094,0.144l1.282,0.317
		v-0.207l0.512,0.073l-0.049,0.366l0.403,0.073l0.622,0.17l0.878,1.002l1.123,0.084l0.11,0.916L28.08,39.8l-0.036,0.817l-0.11,0.501
		l1.11,1.391l0.085,0.477c0,0,0.403,0.109,0.452,0.109c0.048,0,0.903,0.646,0.903,0.646v2.514l0.305,0.086L30.581,47.5l0.512,0.684
		l-0.094,1.149l0.677,1.19l0.87,0.759l0.874,0.017l0.085-0.281l-0.643-0.541l0.038-0.268l0.115-0.33l0.024-0.335l-0.434-0.012
		l-0.219-0.276l0.361-0.348l0.048-0.262l-0.402-0.116l0.024-0.243l0.574-0.087l0.873-0.42l0.293-0.537l0.916-1.17l-0.208-0.917
		l0.282-0.488l0.842,0.025l0.567-0.448l0.183-1.767l0.629-0.799l0.109-0.513l-0.573-0.184l-0.379-0.621L35.23,40.35l-1.025-0.391
		l-0.048-0.731l-0.342-0.599l-0.927-0.013l-0.538-0.842l-0.476-0.231L31.851,37.8l-0.866,0.051l-0.317-0.442l-0.903-0.183
		l-0.745,0.86l-1.171-0.199l-0.086-1.319l-0.854-0.146l0.342-0.647L27.152,35.4l-1.123,0.752l-0.707-0.087l-0.251-0.552l0.155-0.569
		l0.389-0.718l0.896-0.454l1.732-0.001L28.238,34.3l0.623,0.29l-0.05-0.902l0.449-0.451l0.906-0.595l0.062-0.419l0.903-0.94
		l0.96-0.531l-0.084-0.069l0.65-0.612l0.238,0.063l0.109,0.137l0.247-0.273l0.06-0.026l-0.271-0.039l-0.274-0.09v-0.266l0.146-0.12
		h0.322l0.146,0.064l0.127,0.257l0.155-0.023V29.73l0.045,0.015l0.45-0.069l0.063-0.221l0.256,0.064v0.238l-0.238,0.164h0.001
		l0.034,0.262l0.816,0.252c0,0,0,0.003,0.001,0.01l0.188-0.017l0.013-0.353l-0.647-0.295l-0.036-0.17l0.537-0.183l0.023-0.513
		l-0.561-0.342l-0.037-0.865l-0.769,0.377h-0.281l0.074-0.658l-1.047-0.248l-0.433,0.326v0.998l-0.778,0.247L31.026,29.4
		l-0.338,0.055v-0.831l-0.732-0.102l-0.365-0.238l-0.148-0.539l1.31-0.766l0.64-0.196l0.064,0.432l0.357-0.02l0.028-0.216
		l0.373-0.054l0.006-0.076l-0.16-0.066l-0.037-0.228l0.458-0.039l0.277-0.289l0.015-0.021l0.003,0.002l0.084-0.088L33.827,26
		l0.427,0.362l-1.118,0.595l1.422,0.336l0.184-0.476h0.623l0.22-0.415l-0.439-0.11v-0.524l-1.379-0.61l-0.952,0.11l-0.536,0.28
		l0.037,0.684l-0.561-0.086l-0.087-0.378l0.538-0.488l-0.648-0.031c-0.113,0.167-0.247,0.318-0.369,0.479L31.118,26.072z
		 M28.593,31.341l-0.256-0.137l0.055-0.366l0.338-0.365h0.485L28.593,31.341z M29.892,31.341l-0.21,0.211h-0.467l0.072-0.32
		l0.22-0.019l0.046-0.11l0.338-0.046V31.341z M30.002,30.765l-0.22,0.142l-0.274,0.051c0,0,0-0.439,0-0.484h0.494V30.765z
		 M30.418,30.426l0.225,0.141l-0.18,0.148l-0.177-0.148L30.418,30.426z M30.121,30.792h0.037l0.558,0.165v0.284h-0.467l-0.127-0.185
		V30.792z M29.754,30.004l0.303,0.276l-0.303,0.072V30.004z M29.471,29.877v0.174h0.127v0.302h-0.877l-0.329-0.092l0.081-0.21
		l0.422-0.174H29.471z"/>
	<path d="M22.988,33.603l0.847-1.524c0.019-0.033,1.781-3.2,2.931-4.961c2.895-1.705,4.628-4.933,4.434-8.3
		c-0.285-4.941-4.522-8.763-9.529-8.486c-4.966,0.288-8.773,4.562-8.486,9.528c0.195,3.356,2.192,6.276,5.233,7.676
		c1.748,1.903,3.574,4.595,3.593,4.622L22.988,33.603z M19.682,25.749l-0.205-0.088c-2.41-1.036-4-3.307-4.152-5.925
		c-0.219-3.787,2.683-7.046,6.469-7.265c0.135-0.008,0.271-0.012,0.405-0.012c3.637,0,6.649,2.847,6.859,6.481
		c0.152,2.637-1.246,5.161-3.562,6.432l-0.229,0.126l-0.146,0.218c-0.703,1.052-1.651,2.666-2.325,3.843
		c-0.764-1.045-1.871-2.485-2.961-3.647L19.682,25.749z"/>
	<circle cx="22.191" cy="19.21" r="3.549"/>
</g>
</svg>
