<?xml version="1.0" encoding="utf-8"?>
<!-- Generator: Adobe Illustrator 16.0.0, SVG Export Plug-In . SVG Version: 6.00 Build 0)  -->
<!DOCTYPE svg PUBLIC "-//W3C//DTD SVG 1.1//EN" "http://www.w3.org/Graphics/SVG/1.1/DTD/svg11.dtd">
<svg version="1.1" id="Layer_1" xmlns="http://www.w3.org/2000/svg" xmlns:xlink="http://www.w3.org/1999/xlink" x="0px" y="0px"
	 width="64px" height="64px" viewBox="0 0 64 64" enable-background="new 0 0 64 64" xml:space="preserve">
<g>
	<path d="M36.274,25.936c-0.287-3.177-0.763-5.881-1.313-8.112c-0.966-0.055-1.963-0.092-3.017-0.092
		c-1.18,0-2.281,0.049-3.349,0.117c-0.538,2.258-1,4.974-1.269,8.162c1.586-0.106,3.258-0.176,5.062-0.176
		C33.754,25.835,35.043,25.872,36.274,25.936z"/>
	<path d="M27.453,39.166c0.322,3.039,0.821,5.571,1.38,7.642c1.066,0.068,2.166,0.117,3.341,0.117c0.94,0,1.841-0.025,2.709-0.069
		c0.546-2.082,1.026-4.623,1.334-7.651c-1.309,0.071-2.686,0.112-4.146,0.112C30.433,39.316,28.911,39.256,27.453,39.166z"/>
	<path d="M36.562,32.294c0-1.536-0.057-2.964-0.139-4.337c-1.278-0.071-2.604-0.122-4.033-0.122c-1.855,0-3.577,0.072-5.193,0.189
		c-0.067,1.258-0.116,2.558-0.116,3.951c0,1.857,0.071,3.572,0.188,5.175c1.507,0.101,3.093,0.166,4.803,0.166
		c1.536,0,2.957-0.057,4.318-0.139C36.494,35.655,36.562,34.042,36.562,32.294z"/>
	<path d="M17.687,27.417c2.139-0.513,4.679-0.951,7.612-1.237c0.245-3.159,0.681-5.853,1.193-8.155
		c-2.878,0.313-5.312,0.847-7.314,1.469C18.525,21.658,17.974,24.288,17.687,27.417z"/>
	<path d="M31.567,9.689c-0.562,1.006-1.535,3.014-2.433,6.111c0.901-0.045,1.837-0.069,2.811-0.069c0.851,0,1.664,0.024,2.461,0.06
		c-0.986-3.295-2.034-5.291-2.522-6.109C31.777,9.682,31.673,9.688,31.567,9.689z"/>
	<path d="M19.978,17.164c1.998-0.528,4.335-0.958,7.021-1.205c0.742-2.739,1.561-4.753,2.218-6.098
		c-2.175,0.275-4.252,0.861-6.188,1.716C22.618,12.069,21.258,13.866,19.978,17.164z"/>
	<path d="M54.322,30.145c-0.201-2.374-0.771-4.646-1.657-6.752c-0.19-0.169-1.87-1.597-5.303-2.985
		c0.526,2.114,0.937,4.592,1.145,7.439C51.204,28.627,53.107,29.487,54.322,30.145z"/>
	<path d="M46.665,31.85c0-0.84-0.023-1.644-0.059-2.427c-2.214-0.561-4.929-1.045-8.171-1.327c0.074,1.335,0.126,2.716,0.126,4.198
		c0,1.681-0.054,3.253-0.147,4.733c3.223-0.297,5.911-0.792,8.1-1.359C46.603,34.458,46.665,33.202,46.665,31.85z"/>
	<path d="M44.971,13.813c0.57,1.124,1.163,2.51,1.705,4.179c1.615,0.563,2.95,1.163,4.015,1.727
		C49.163,17.416,47.221,15.414,44.971,13.813z"/>
	<path d="M38.302,26.066c3.193,0.258,5.897,0.711,8.16,1.244c-0.268-3.052-0.785-5.612-1.403-7.73
		c-2.164-0.684-4.811-1.278-7.99-1.599C37.592,20.252,38.038,22.933,38.302,26.066z"/>
	<path d="M34.229,9.786c0.656,1.283,1.528,3.307,2.321,6.147c2.991,0.253,5.563,0.73,7.738,1.32
		c-1.175-3.096-2.452-4.883-3.01-5.569C39.093,10.688,36.722,10.03,34.229,9.786z"/>
	<path d="M37.008,46.698c3.065-0.291,5.624-0.839,7.726-1.482c0.655-2.019,1.229-4.483,1.579-7.415
		c-2.233,0.535-4.904,0.993-8.058,1.261C37.975,42.038,37.526,44.57,37.008,46.698z"/>
	<path d="M25.411,39.015c-2.921-0.266-5.445-0.687-7.597-1.18c0.346,2.882,0.918,5.322,1.579,7.327c2.01,0.619,4.441,1.15,7.3,1.465
		C26.165,44.513,25.704,41.989,25.411,39.015z"/>
	<path d="M46.33,46.807c-0.514,1.44-1.053,2.642-1.567,3.631c2.052-1.424,3.854-3.181,5.328-5.193
		C49.063,45.766,47.808,46.304,46.33,46.807z"/>
	<path d="M43.883,47.546c-2.1,0.544-4.579,0.972-7.427,1.198c-0.773,2.59-1.612,4.411-2.249,5.574
		c2.416-0.234,4.718-0.856,6.848-1.799C41.381,52.136,42.639,50.538,43.883,47.546z"/>
	<path d="M29.596,54.29c-0.629-1.103-1.509-2.927-2.326-5.591c-2.662-0.243-4.992-0.665-6.991-1.187
		c1.288,3.031,2.606,4.677,3.001,5.127C25.255,53.483,27.377,54.048,29.596,54.29z"/>
	<path d="M17.533,29.537c-0.039,0.817-0.062,1.663-0.062,2.541c0,1.287,0.06,2.485,0.144,3.642c2.117,0.521,4.665,0.973,7.631,1.264
		c-0.104-1.56-0.166-3.223-0.166-5.008c0-1.323,0.042-2.564,0.101-3.77C22.186,28.518,19.644,28.997,17.533,29.537z"/>
	<path d="M48.62,29.993c0.02,0.611,0.045,1.214,0.045,1.856c0,1.127-0.04,2.192-0.1,3.225c3.485-1.116,5.311-2.288,5.759-2.604
		C53.56,31.982,51.723,30.96,48.62,29.993z"/>
	<path d="M54.223,34.888c-1.17,0.653-3.071,1.544-5.819,2.356c-0.276,2.753-0.753,5.113-1.315,7.145
		c3.011-1.202,4.687-2.465,5.244-2.938C53.28,39.41,53.929,37.204,54.223,34.888z"/>
	<path d="M34.295,48.873c-0.692,0.026-1.387,0.052-2.121,0.052c-0.944,0-1.854-0.023-2.73-0.066
		c1.079,3.246,2.179,4.949,2.482,5.381C32.396,53.503,33.36,51.771,34.295,48.873z"/>
	<path d="M13.39,19.704c1.095-0.59,2.48-1.217,4.174-1.801c0.572-1.717,1.19-3.13,1.777-4.262
		C16.993,15.266,14.971,17.325,13.39,19.704z"/>
	<path d="M19.524,50.592c-0.558-1.033-1.143-2.301-1.695-3.819c-1.557-0.528-2.861-1.093-3.924-1.635
		C15.445,47.267,17.347,49.117,19.524,50.592z"/>
	<path d="M11.414,23.374c-0.904,2.14-1.478,4.451-1.672,6.867c1.218-0.634,3.158-1.495,5.897-2.288
		c0.222-2.921,0.653-5.469,1.206-7.627c-3.682,1.482-5.364,3.055-5.396,3.084L11.414,23.374z"/>
	<path d="M17.043,44.331c-0.564-2.007-1.037-4.331-1.311-7.021c-2.635-0.735-4.561-1.535-5.853-2.173
		c0.306,2.203,0.933,4.303,1.833,6.254C12.229,41.817,13.946,43.099,17.043,44.331z"/>
	<path d="M9.68,32.762c0.922,0.527,2.851,1.487,5.886,2.396c-0.057-0.987-0.094-2.007-0.094-3.08c0-0.682,0.025-1.326,0.048-1.973
		c-3.21,0.995-5.124,2.034-5.844,2.473C9.677,32.64,9.678,32.701,9.68,32.762z"/>
</g>
</svg>
