<?xml version="1.0" encoding="utf-8"?>
<!-- Generator: Adobe Illustrator 16.0.0, SVG Export Plug-In . SVG Version: 6.00 Build 0)  -->
<!DOCTYPE svg PUBLIC "-//W3C//DTD SVG 1.1//EN" "http://www.w3.org/Graphics/SVG/1.1/DTD/svg11.dtd">
<svg version="1.1" id="Layer_1" xmlns="http://www.w3.org/2000/svg" xmlns:xlink="http://www.w3.org/1999/xlink" x="0px" y="0px"
	 width="64px" height="64px" viewBox="0 0 64 64" enable-background="new 0 0 64 64" xml:space="preserve">
<g>
	<path d="M54.47,34.302c-0.951-0.274-1.65-1.142-1.65-2.182c0-1.046,0.709-1.918,1.668-2.186c0.197-0.055,0.398-0.094,0.611-0.094
		c0.133,0,0.262,0.013,0.389,0.035c-0.004-0.026-0.004-0.054-0.008-0.08c-0.131,0.025-0.266,0.04-0.404,0.04
		c-0.211,0-0.408-0.037-0.602-0.09c-0.965-0.266-1.68-1.14-1.68-2.189c0-0.74,0.359-1.392,0.904-1.808
		c0.27-0.205,0.582-0.35,0.924-0.421c-0.012-0.04-0.021-0.081-0.035-0.121c-0.578-0.142-1.072-0.5-1.385-0.99
		c-0.152-0.241-0.264-0.513-0.316-0.805c-0.025-0.135-0.043-0.273-0.043-0.416c0-0.47,0.154-0.896,0.398-1.256
		c-0.309-0.64-0.648-1.262-1.012-1.867c-0.23,0.249-0.51,0.45-0.83,0.577c0.09,0.15,0.176,0.304,0.262,0.456
		c0.701,0.389,1.182,1.128,1.182,1.986c0,0.113-0.018,0.222-0.033,0.33c-0.16,1.103-1.1,1.95-2.246,1.95
		c-1.26,0-2.279-1.021-2.279-2.28c0-1.259,1.02-2.279,2.279-2.279c-1.26,0-2.279-1.021-2.279-2.279c0-0.539,0.193-1.027,0.506-1.418
		c0.213-0.265,0.482-0.481,0.789-0.632c-0.475-0.53-0.973-1.037-1.492-1.521c-0.156,0.305-0.379,0.57-0.646,0.778
		c-0.387,0.298-0.863,0.482-1.389,0.482c-1.26,0-2.279-1.021-2.279-2.28c0-0.315,0.064-0.616,0.18-0.89
		c0.135-0.316,0.344-0.591,0.598-0.815c-0.602-0.379-1.223-0.73-1.859-1.056c-0.354,0.23-0.768,0.373-1.223,0.373
		c-0.146,0-0.291-0.017-0.43-0.044c-0.311-0.059-0.598-0.179-0.85-0.35c-0.475-0.323-0.814-0.823-0.939-1.402
		c-0.035-0.012-0.068-0.024-0.104-0.035c-0.047,0.344-0.146,0.671-0.328,0.949c-0.406,0.625-1.107,1.04-1.908,1.04
		c-1.141,0-2.076-0.839-2.246-1.931c-0.018-0.115-0.035-0.229-0.035-0.349c0-0.228,0.045-0.443,0.107-0.651
		c-0.063-0.007-0.125-0.017-0.188-0.023c0.047,0.184,0.08,0.373,0.08,0.571c0,0.151-0.016,0.299-0.043,0.441
		c-0.207,1.048-1.129,1.838-2.236,1.838c-1.129,0-2.061-0.824-2.242-1.903c-0.02-0.123-0.037-0.247-0.037-0.376
		c0-0.222,0.041-0.431,0.102-0.632c-0.078,0.006-0.156,0.011-0.236,0.018c0.08,0.229,0.135,0.47,0.135,0.727
		c0,0.092-0.018,0.18-0.027,0.269c-0.135,1.131-1.086,2.011-2.252,2.011c-0.877,0-1.627-0.499-2.01-1.223
		c-0.152-0.291-0.244-0.619-0.26-0.969c-0.01,0.003-0.02,0.006-0.029,0.008c-0.041,0.447-0.207,0.855-0.467,1.191
		c-0.418,0.537-1.063,0.889-1.795,0.889c-0.137,0-0.271-0.018-0.402-0.041c-0.441-0.079-0.826-0.292-1.139-0.584
		c-0.662,0.322-1.307,0.673-1.93,1.053c0.316,0.169,0.59,0.411,0.797,0.704c0.262,0.371,0.418,0.821,0.418,1.311
		c0,1.26-1.02,2.28-2.279,2.28c-0.738,0-1.387-0.356-1.803-0.9c-0.215-0.278-0.365-0.604-0.434-0.961
		c-0.051,0.043-0.1,0.084-0.148,0.128c-0.225,0.748-0.814,1.33-1.57,1.538c-0.049,0.053-0.1,0.104-0.148,0.157
		c0.354,0.083,0.678,0.244,0.947,0.47c0.502,0.419,0.828,1.041,0.828,1.745c0,1.259-1.02,2.279-2.279,2.279
		c1.26,0,2.279,1.021,2.279,2.279c0,1.26-1.02,2.28-2.279,2.28s-2.279-1.021-2.279-2.28c0-1.259,1.02-2.279,2.279-2.279
		c-0.488,0-0.939-0.157-1.311-0.419c-0.289-0.203-0.527-0.473-0.695-0.784c-0.367,0.579-0.709,1.175-1.025,1.786
		c0.285,0.264,0.51,0.593,0.633,0.974c0.07,0.22,0.119,0.449,0.119,0.692c0,0.873-0.496,1.622-1.217,2.006
		c-0.318,0.169-0.678,0.274-1.064,0.274c-0.027,0-0.051-0.009-0.078-0.011c-0.002,0.006-0.004,0.011-0.006,0.016
		c0.014,0,0.023-0.005,0.037-0.005c0.34,0,0.658,0.079,0.949,0.213c0.783,0.36,1.33,1.147,1.33,2.067
		c0,1.236-0.988,2.238-2.215,2.272c-0.023,0.001-0.043,0.007-0.064,0.007c-0.33,0-0.639-0.082-0.92-0.209
		c-0.016,0.154-0.027,0.309-0.041,0.464c0.301-0.147,0.627-0.25,0.984-0.25c0.014,0,0.025,0.004,0.039,0.004
		c1.24,0.021,2.24,1.029,2.24,2.275c0,1.248-1.002,2.259-2.246,2.276c-0.012,0.001-0.021,0.004-0.033,0.004
		c-0.359,0-0.688-0.104-0.99-0.252c0.014,0.151,0.021,0.304,0.037,0.455c0.279-0.124,0.58-0.203,0.904-0.203
		c0.029,0,0.055,0.008,0.084,0.008c1.219,0.045,2.197,1.041,2.197,2.272c0,0.917-0.545,1.702-1.326,2.064
		c-0.291,0.134-0.613,0.215-0.955,0.215c-0.01,0-0.02-0.004-0.029-0.005c0.002,0.006,0.002,0.012,0.004,0.018
		c0.033-0.002,0.064-0.013,0.098-0.013c0.375,0,0.725,0.1,1.037,0.261c0.734,0.378,1.242,1.135,1.242,2.019
		c0,0.259-0.051,0.502-0.131,0.733c-0.129,0.375-0.355,0.698-0.643,0.955c0.314,0.612,0.656,1.209,1.021,1.789
		c0.174-0.309,0.412-0.574,0.703-0.772c0.365-0.249,0.807-0.395,1.281-0.395c1.26,0,2.279,1.021,2.279,2.28
		c0,0.692-0.314,1.306-0.803,1.724c-0.268,0.229-0.588,0.393-0.939,0.481c0.064,0.068,0.131,0.134,0.193,0.202
		c0.678,0.223,1.211,0.748,1.441,1.423c0.078,0.068,0.156,0.134,0.234,0.202c0.102-0.339,0.27-0.647,0.504-0.901
		c0.416-0.454,1.008-0.743,1.674-0.743c1.26,0,2.279,1.021,2.279,2.279c0,0.412-0.117,0.794-0.309,1.127
		c-0.176,0.305-0.424,0.558-0.713,0.753c0.541,0.326,1.098,0.628,1.666,0.91c0.293-0.291,0.656-0.51,1.074-0.605
		c0.166-0.038,0.336-0.063,0.514-0.063c0.785,0,1.479,0.397,1.889,1.003c0.225,0.334,0.352,0.735,0.373,1.165
		c0.016,0.004,0.031,0.008,0.047,0.013c0.033-0.347,0.129-0.674,0.299-0.958c0.396-0.668,1.119-1.119,1.951-1.119
		c1.133,0,2.066,0.828,2.242,1.911c0.02,0.121,0.037,0.243,0.037,0.369c0,0.22-0.041,0.428-0.1,0.629
		c0.082,0.008,0.166,0.013,0.248,0.019c-0.086-0.238-0.148-0.49-0.148-0.76c0-0.086,0.018-0.168,0.025-0.252
		c0.127-1.14,1.082-2.028,2.256-2.028c1.156,0,2.102,0.864,2.248,1.981c0.014,0.099,0.031,0.196,0.031,0.299
		c0,0.255-0.057,0.493-0.135,0.722c0.076-0.008,0.148-0.02,0.223-0.027c-0.051-0.189-0.088-0.385-0.088-0.591
		c0-0.141,0.018-0.278,0.041-0.412c0.195-1.063,1.121-1.868,2.238-1.868c0.787,0,1.48,0.398,1.891,1.005
		c0.186,0.275,0.289,0.602,0.34,0.945c0.021-0.007,0.045-0.016,0.066-0.023c0.041-0.462,0.219-0.884,0.494-1.227
		c0.418-0.52,1.051-0.858,1.77-0.858c0.082,0,0.162,0.016,0.242,0.024c0.461,0.05,0.871,0.244,1.207,0.523
		c0.586-0.303,1.156-0.629,1.713-0.979c-0.262-0.217-0.48-0.485-0.623-0.799c-0.133-0.289-0.211-0.607-0.211-0.947
		c0-1.259,1.02-2.279,2.279-2.279c0.551,0,1.049,0.203,1.443,0.528c0.264,0.218,0.475,0.492,0.621,0.804
		c0.523-0.486,1.027-0.996,1.506-1.528c-0.309-0.148-0.58-0.361-0.795-0.625c-0.32-0.393-0.52-0.887-0.52-1.433
		c0-1.26,1.02-2.28,2.279-2.28c0.307,0,0.598,0.063,0.863,0.172c0.32,0.131,0.598,0.337,0.824,0.59
		c0.348-0.576,0.67-1.17,0.969-1.776c-0.205-0.341-0.328-0.735-0.328-1.162c0-1.047,0.709-1.919,1.67-2.187
		c0.016-0.052,0.031-0.104,0.047-0.154c-0.34-0.078-0.652-0.228-0.918-0.438c-0.527-0.418-0.871-1.056-0.871-1.779
		c0-1.049,0.713-1.923,1.676-2.189c0.193-0.053,0.395-0.091,0.604-0.091c0.141,0,0.277,0.016,0.412,0.041
		c0.002-0.024,0.004-0.05,0.006-0.074c-0.119,0.021-0.242,0.033-0.369,0.033C54.88,34.4,54.671,34.359,54.47,34.302z M52.819,32.017
		c0,1.26-1.021,2.28-2.279,2.28c-1.26,0-2.279-1.021-2.279-2.28c0-1.259,1.02-2.279,2.279-2.279
		C51.798,29.737,52.819,30.758,52.819,32.017z M50.515,25.173c1.26,0,2.279,1.021,2.279,2.28c0,1.259-1.02,2.279-2.279,2.279
		c-1.258,0-2.279-1.021-2.279-2.279C48.235,26.193,49.257,25.173,50.515,25.173z M41.208,11.39c0.094-0.013,0.188-0.029,0.285-0.029
		c0.871,0,1.621,0.495,2.004,1.214c0.17,0.319,0.275,0.679,0.275,1.065c0,1.26-1.021,2.28-2.279,2.28
		c-1.26,0-2.279-1.021-2.279-2.28C39.214,12.479,40.085,11.53,41.208,11.39z M36.933,11.519c1.26,0,2.279,1.021,2.279,2.279
		c0,1.26-1.02,2.28-2.279,2.28s-2.279-1.021-2.279-2.28C34.653,12.539,35.673,11.519,36.933,11.519z M32.374,11.415
		c1.258,0,2.279,1.021,2.279,2.279c0,1.26-1.021,2.28-2.279,2.28c-1.26,0-2.279-1.021-2.279-2.28
		C30.095,12.436,31.114,11.415,32.374,11.415z M27.813,11.527c1.26,0,2.279,1.021,2.279,2.279c0,1.26-1.02,2.28-2.279,2.28
		s-2.279-1.021-2.279-2.28C25.534,12.548,26.554,11.527,27.813,11.527z M23.255,11.424c1.258,0,2.279,1.021,2.279,2.279
		c0,1.26-1.021,2.28-2.279,2.28c-1.26,0-2.279-1.021-2.279-2.28C20.976,12.444,21.995,11.424,23.255,11.424z M11.759,27.438
		c0-1.26,1.021-2.28,2.279-2.28c1.26,0,2.279,1.021,2.279,2.28c0,1.259-1.02,2.279-2.279,2.279
		C12.78,29.717,11.759,28.696,11.759,27.438z M16.343,32.001c0,1.26-1.021,2.28-2.279,2.28c-1.26,0-2.279-1.021-2.279-2.28
		c0-1.259,1.02-2.279,2.279-2.279C15.321,29.722,16.343,30.742,16.343,32.001z M11.735,36.562c0-1.26,1.02-2.28,2.279-2.28
		s2.279,1.021,2.279,2.28c0,1.259-1.02,2.279-2.279,2.279S11.735,37.82,11.735,36.562z M14.087,43.4c-1.26,0-2.279-1.021-2.279-2.28
		c0-1.259,1.02-2.279,2.279-2.279c1.258,0,2.279,1.021,2.279,2.279C16.366,42.38,15.345,43.4,14.087,43.4z M18.597,48.063
		c-1.258,0-2.279-1.021-2.279-2.279c0-1.26,1.021-2.28,2.279-2.28c1.26,0,2.281,1.021,2.281,2.28
		C20.878,47.043,19.856,48.063,18.597,48.063z M23.183,52.47c-1.26,0-2.281-1.021-2.281-2.28c0-1.259,1.021-2.279,2.281-2.279
		c1.258,0,2.279,1.021,2.279,2.279C25.462,51.449,24.44,52.47,23.183,52.47z M27.741,52.573c-1.26,0-2.279-1.021-2.279-2.28
		c0-1.259,1.02-2.279,2.279-2.279s2.279,1.021,2.279,2.279C30.021,51.553,29.001,52.573,27.741,52.573z M32.302,52.461
		c-1.26,0-2.281-1.021-2.281-2.28c0-1.259,1.021-2.279,2.281-2.279c1.258,0,2.279,1.021,2.279,2.279
		C34.581,51.44,33.56,52.461,32.302,52.461z M36.86,52.564c-1.26,0-2.279-1.021-2.279-2.28c0-1.259,1.02-2.279,2.279-2.279
		s2.279,1.021,2.279,2.279C39.14,51.544,38.12,52.564,36.86,52.564z M43.097,51.659c-0.443,0.252-0.895,0.493-1.357,0.715
		c-0.105,0.015-0.209,0.032-0.318,0.032c-1.26,0-2.281-1.021-2.281-2.28c0-1.259,1.021-2.279,2.281-2.279
		c1.258,0,2.279,1.021,2.279,2.279C43.7,50.719,43.468,51.254,43.097,51.659z M45.954,47.945c-1.258,0-2.279-1.021-2.279-2.279
		c0-1.26,1.021-2.28,2.279-2.28c1.26,0,2.281,1.021,2.281,2.28C48.235,46.925,47.214,47.945,45.954,47.945z M46.003,43.386
		c-0.953,0-1.766-0.585-2.107-1.414c-0.463,0.553-0.973,1.063-1.508,1.547c0.76,0.369,1.287,1.142,1.287,2.044
		c0,1.259-1.02,2.279-2.279,2.279c-1.186,0-2.146-0.906-2.258-2.062c-0.01,0.005-0.02,0.01-0.029,0.015
		C39.067,47.019,38.069,48,36.835,48c-0.686,0-1.293-0.309-1.711-0.787c-0.488,0.1-0.988,0.175-1.492,0.228
		c-0.381,0.283-0.846,0.456-1.355,0.456c-0.49,0-0.941-0.158-1.314-0.422c-0.537-0.035-1.068-0.097-1.59-0.187
		c-0.416,0.441-1.002,0.721-1.656,0.721c-1.141,0-2.078-0.841-2.244-1.936c-0.027-0.012-0.051-0.024-0.076-0.036
		c-0.195,1.062-1.119,1.868-2.238,1.868c-1.26,0-2.279-1.021-2.279-2.279c0-0.78,0.393-1.467,0.988-1.878
		c-0.463-0.4-0.898-0.83-1.313-1.282c-0.406,0.624-1.107,1.038-1.908,1.038c-1.26,0-2.279-1.021-2.279-2.28
		c0-1.09,0.766-1.998,1.787-2.224c-0.018-0.034-0.033-0.07-0.051-0.105c-1.033-0.217-1.809-1.133-1.809-2.229
		c0-0.547,0.199-1.042,0.521-1.435c-0.154-0.727-0.244-1.475-0.291-2.234c-0.117-0.274-0.182-0.575-0.182-0.892
		c0-0.302,0.061-0.59,0.168-0.854c0.039-0.797,0.119-1.583,0.271-2.344c-0.287-0.382-0.465-0.852-0.465-1.366
		c0-1.045,0.707-1.916,1.666-2.186c0.027-0.06,0.057-0.119,0.084-0.178c-0.977-0.257-1.701-1.139-1.701-2.197
		c0-1.259,1.021-2.279,2.279-2.279c-1.258,0-2.279-1.021-2.279-2.279c0-1.26,1.021-2.28,2.279-2.28c1.26,0,2.281,1.021,2.281,2.28
		c0,1.259-1.021,2.279-2.281,2.279c0.75,0,1.41,0.366,1.824,0.925c0.467-0.517,0.959-1.007,1.488-1.458
		c-0.621-0.407-1.031-1.106-1.031-1.904c0-1.26,1.02-2.28,2.279-2.28c1.146,0,2.086,0.85,2.246,1.952
		c0.027-0.013,0.055-0.027,0.082-0.04c0.219-1.033,1.135-1.809,2.23-1.809c0.609,0,1.158,0.242,1.568,0.631
		c0.498-0.087,1.002-0.149,1.516-0.187c0.398-0.343,0.91-0.557,1.477-0.557c0.604,0,1.15,0.239,1.559,0.623
		c0.449,0.055,0.896,0.121,1.334,0.213c0.418-0.447,1.006-0.732,1.666-0.732c1.215,0,2.197,0.951,2.268,2.148
		c0.006,0.002,0.012,0.005,0.018,0.008c-0.002-0.012-0.004-0.022-0.004-0.034c0-1.26,1.02-2.28,2.279-2.28s2.279,1.021,2.279,2.28
		c0,0.983-0.627,1.813-1.5,2.134c0.596,0.521,1.156,1.08,1.664,1.686c0.336-0.841,1.154-1.437,2.115-1.437
		c-1.258,0-2.279-1.021-2.279-2.279c0-1.26,1.021-2.28,2.279-2.28c1.26,0,2.281,1.021,2.281,2.28c0,1.259-1.021,2.279-2.281,2.279
		c1.26,0,2.281,1.021,2.281,2.279c0,1.26-1.021,2.28-2.281,2.28c-0.031,0-0.061-0.008-0.092-0.01
		c0.002,0.005,0.004,0.01,0.006,0.014c0.014,0,0.025-0.004,0.039-0.004c1.258,0,2.279,1.021,2.279,2.28
		c0,0.766-0.381,1.439-0.961,1.853c0.057,0.317,0.109,0.635,0.146,0.958c0.508,0.418,0.838,1.044,0.838,1.753
		c0,0.707-0.328,1.332-0.834,1.75c-0.037,0.33-0.092,0.654-0.148,0.978c0.564,0.415,0.936,1.078,0.936,1.833
		c0,1.259-1.021,2.279-2.281,2.279c-0.002,0.003-0.002,0.005-0.004,0.008c0.025-0.001,0.051-0.008,0.076-0.008
		c1.26,0,2.279,1.021,2.279,2.279C48.282,42.365,47.263,43.386,46.003,43.386z M52.808,40.786c0.018,0.115,0.035,0.23,0.035,0.35
		c0,0.868-0.49,1.613-1.203,1.998c-0.322,0.174-0.686,0.282-1.076,0.282c-1.26,0-2.279-1.021-2.279-2.28
		c0-1.259,1.02-2.279,2.279-2.279C51.702,38.856,52.638,39.694,52.808,40.786z M50.491,38.856c-1.26,0-2.279-1.021-2.279-2.279
		c0-1.26,1.02-2.28,2.279-2.28s2.279,1.021,2.279,2.28C52.771,37.836,51.751,38.856,50.491,38.856z"/>
	<path d="M32.757,45.912c1.48-0.065,2.9-0.365,4.225-0.861c0.334-0.588,1.088-2.081,1.729-4.464h-5.953V45.912z"/>
	<path d="M38.772,44.229c1.66-0.912,3.115-2.157,4.273-3.643h-3.041C39.61,42.135,39.161,43.342,38.772,44.229z"/>
	<path d="M39.735,33.021h-6.979v6.329h6.256C39.394,37.615,39.681,35.502,39.735,33.021z"/>
	<path d="M40.981,31.785h4.982c-0.053-2.42-0.729-4.687-1.875-6.648h-3.768C40.69,26.988,40.956,29.207,40.981,31.785z"/>
	<path d="M40.972,33.021c-0.051,2.457-0.316,4.573-0.682,6.329h3.619c1.152-1.863,1.875-4.02,2.027-6.329H40.972z"/>
	<path d="M39.052,25.137h-6.295v6.648h6.988C39.718,29.19,39.435,26.967,39.052,25.137z"/>
	<path d="M36.974,19.134c-1.322-0.495-2.74-0.793-4.217-0.858V23.9h6.004C38.108,21.36,37.317,19.757,36.974,19.134z"/>
	<path d="M43.276,23.9c-1.201-1.628-2.748-2.984-4.533-3.959c0.41,0.948,0.893,2.263,1.305,3.959H43.276z"/>
	<path d="M25.8,23.9h5.721v-5.625c-1.348,0.06-2.643,0.314-3.863,0.733C27.366,19.517,26.505,21.165,25.8,23.9z"/>
	<path d="M25.548,39.351h5.973v-6.329h-6.695C24.882,35.502,25.167,37.615,25.548,39.351z"/>
	<path d="M24.815,31.785h6.705v-6.648h-6.01C25.126,26.967,24.845,29.19,24.815,31.785z"/>
	<path d="M27.651,45.177c1.223,0.42,2.52,0.676,3.869,0.735v-5.325h-5.67C26.542,43.164,27.368,44.699,27.651,45.177z"/>
	<path d="M25.899,19.752c-1.939,0.985-3.617,2.411-4.898,4.148h3.512C24.954,22.092,25.474,20.709,25.899,19.752z"/>
	<path d="M24.241,25.137h-4.053c-1.146,1.962-1.822,4.229-1.877,6.648h5.268C23.604,29.207,23.87,26.988,24.241,25.137z"/>
	<path d="M23.589,33.021h-5.25c0.154,2.31,0.875,4.466,2.029,6.329h3.902C23.905,37.595,23.642,35.479,23.589,33.021z"/>
	<path d="M21.231,40.587c1.244,1.595,2.826,2.909,4.643,3.835c-0.408-0.9-0.895-2.173-1.318-3.835H21.231z"/>
</g>
</svg>
