<?xml version="1.0" encoding="utf-8"?>
<!-- Generator: Adobe Illustrator 16.0.0, SVG Export Plug-In . SVG Version: 6.00 Build 0)  -->
<!DOCTYPE svg PUBLIC "-//W3C//DTD SVG 1.1//EN" "http://www.w3.org/Graphics/SVG/1.1/DTD/svg11.dtd">
<svg version="1.1" id="Layer_1" xmlns="http://www.w3.org/2000/svg" xmlns:xlink="http://www.w3.org/1999/xlink" x="0px" y="0px"
	 width="64px" height="64px" viewBox="0 0 64 64" enable-background="new 0 0 64 64" xml:space="preserve">
<g>
	<path d="M18.302,26.969c2.225,0.669,4.746,1.075,7.423,1.14v-9.501C22.569,19.043,19.847,22.294,18.302,26.969z"/>
	<path d="M25.725,53.028v-9.5c-2.679,0.065-5.201,0.471-7.427,1.141C19.842,49.346,22.569,52.594,25.725,53.028z"/>
	<path d="M17.867,43.221c2.371-0.729,5.034-1.167,7.858-1.235v-4.782h-8.749C17.07,39.343,17.381,41.371,17.867,43.221z"/>
	<path d="M16.946,35.66h8.779v-6.008c-2.822-0.067-5.482-0.506-7.851-1.233C17.296,30.62,16.958,33.068,16.946,35.66z"/>
	<path d="M21.013,19.457c-3.023,1.021-5.67,2.868-7.682,5.264c1.026,0.674,2.216,1.271,3.539,1.767
		C17.857,23.561,19.289,21.123,21.013,19.457z"/>
	<path d="M16.433,27.926c-1.491-0.562-2.839-1.245-4.004-2.026c-1.946,2.768-3.11,6.128-3.144,9.759h6.122
		C15.42,32.899,15.789,30.284,16.433,27.926z"/>
	<path d="M13.336,46.914c2.012,2.396,4.654,4.246,7.677,5.267c-1.724-1.667-3.157-4.104-4.145-7.03
		C15.549,45.646,14.361,46.24,13.336,46.914z"/>
	<path d="M15.437,37.204H9.341c0.251,3.161,1.362,6.08,3.087,8.534c1.165-0.781,2.513-1.463,4.003-2.026
		C15.885,41.706,15.536,39.513,15.437,37.204z"/>
	<path d="M36.476,43.68c1.523,0.568,2.9,1.263,4.086,2.059c1.726-2.454,2.835-5.374,3.087-8.535h-6.187
		C37.364,39.501,37.017,41.683,36.476,43.68z"/>
	<path d="M35.923,37.204h-8.66v4.782c2.792,0.067,5.426,0.496,7.775,1.209C35.521,41.353,35.83,39.333,35.923,37.204z"/>
	<path d="M27.264,43.528v9.488c3.124-0.484,5.816-3.726,7.346-8.371C32.402,43.989,29.91,43.593,27.264,43.528z"/>
	<path d="M31.839,52.227c3.081-1.012,5.772-2.88,7.815-5.313c-1.045-0.686-2.261-1.291-3.613-1.792
		C35.045,48.089,33.59,50.553,31.839,52.227z"/>
	<path d="M27.264,18.621v9.489c2.646-0.064,5.137-0.461,7.342-1.116C33.077,22.349,30.387,19.104,27.264,18.621z"/>
	<path d="M35.032,28.444c-2.347,0.713-4.979,1.141-7.769,1.208v6.008h8.691C35.941,33.078,35.607,30.638,35.032,28.444z"/>
	<path d="M47.775,13.358c-1.862-1.606-5.667-0.05-6.833,0.487c0-0.955,0-1.59,0-1.708c0-1.463-2.488-1.642-2.488,0
		c0,0.474,0,18.52,0,18.52h2.488c0,0,0-1.732,0-4.134c0-0.867,0-1.819,0-2.813c1.097-0.369,4.989-1.544,6.833-0.298
		c2.159,1.458,6.94,0.684,6.94,0.684v-9.765C54.715,14.331,49.99,15.269,47.775,13.358z"/>
	<polygon points="36.478,27.957 36.477,27.957 36.478,27.964 	"/>
	<path d="M42.52,30.245v2.294h-2.295h-1.452h-1.465c0.106,1.017,0.18,2.054,0.185,3.121h6.211c-0.02-2.15-0.444-4.201-1.185-6.094
		V30.245z"/>
	<path d="M36.478,26.327v-4.544c-1.405-1.011-2.962-1.823-4.639-2.374c1.751,1.674,3.204,4.141,4.2,7.106
		C36.193,26.458,36.327,26.387,36.478,26.327z"/>
</g>
</svg>
