<?xml version="1.0" encoding="utf-8"?>
<!-- Generator: Adobe Illustrator 16.0.0, SVG Export Plug-In . SVG Version: 6.00 Build 0)  -->
<!DOCTYPE svg PUBLIC "-//W3C//DTD SVG 1.1//EN" "http://www.w3.org/Graphics/SVG/1.1/DTD/svg11.dtd">
<svg version="1.1" id="Layer_1" xmlns="http://www.w3.org/2000/svg" xmlns:xlink="http://www.w3.org/1999/xlink" x="0px" y="0px"
	 width="64px" height="64px" viewBox="0 0 64 64" enable-background="new 0 0 64 64" xml:space="preserve">
<path d="M31.999,7.621c-13.439,0-24.373,10.935-24.373,24.374c0,13.103,10.394,23.818,23.368,24.348
	c0.005,0.062,1.005,0.025,1.005,0.025c13.44,0,24.375-10.934,24.375-24.373S45.439,7.621,31.999,7.621z M48.875,32.025
	c0.182,11.068-9.158,20.153-10.52,21.418c-0.293,0.087-0.588,0.171-0.886,0.246c1.914-3.553,5.592-11.654,5.435-21.248
	c-0.16-9.722-4.563-18.613-6.736-22.425c0.226,0.043,0.449,0.089,0.672,0.138l-0.02,0.024
	C36.938,10.276,48.681,20.143,48.875,32.025z M32.136,31.294c0.166-10.151,0.638-18.838,0.803-21.649
	c0.237,0.011,0.473,0.026,0.707,0.044c1.424,2.318,7.085,12.186,7.259,22.786c0.177,10.791-4.917,19.873-6.015,21.7
	c-0.672,0.088-1.353,0.146-2.041,0.172C32.564,50.349,31.98,40.75,32.136,31.294z M14.961,32.025
	c0.192-11.763,11.692-21.543,12.04-21.835c0.18-0.041,0.357-0.085,0.539-0.122c-2.184,3.84-6.548,12.695-6.707,22.373
	c-0.156,9.515,3.463,17.569,5.39,21.167c-0.273-0.073-0.545-0.148-0.813-0.232C23.826,51.896,14.782,42.939,14.961,32.025z
	 M9.626,31.995c0-8.952,5.287-16.689,12.901-20.264c-3.744,4.004-9.423,11.501-9.566,20.261c-0.135,8.234,4.399,15.25,7.785,19.328
	C14.103,47.437,9.626,40.231,9.626,31.995z M28.826,54.14c-1.14-1.906-6.169-10.941-5.993-21.665
	c0.173-10.551,5.8-20.403,7.247-22.766c0.284-0.024,0.568-0.048,0.854-0.061c-0.172,2.955-0.634,11.573-0.799,21.612
	c-0.154,9.407,0.418,18.953,0.708,23.078C30.162,54.304,29.49,54.233,28.826,54.14z M42.94,51.5c3.4-4.05,8.071-11.153,7.935-19.508
	c-0.146-8.854-5.945-16.418-9.687-20.389c7.767,3.514,13.186,11.329,13.186,20.392C54.374,40.359,49.758,47.661,42.94,51.5z"/>
</svg>
