<?xml version="1.0" encoding="utf-8"?>
<!-- Generator: Adobe Illustrator 16.0.0, SVG Export Plug-In . SVG Version: 6.00 Build 0)  -->
<!DOCTYPE svg PUBLIC "-//W3C//DTD SVG 1.1//EN" "http://www.w3.org/Graphics/SVG/1.1/DTD/svg11.dtd">
<svg version="1.1" id="Layer_1" xmlns="http://www.w3.org/2000/svg" xmlns:xlink="http://www.w3.org/1999/xlink" x="0px" y="0px"
	 width="64px" height="64px" viewBox="0 0 64 64" enable-background="new 0 0 64 64" xml:space="preserve">
<g>
	<path d="M56.119,31.795l-0.004-0.18c-0.035-2.176-0.359-4.328-0.965-6.393c-0.215-0.74-0.473-1.482-0.764-2.205
		c-0.582-1.447-1.309-2.844-2.16-4.15c-0.379-0.584-0.791-1.162-1.227-1.717c-1.188-1.518-2.555-2.893-4.066-4.088
		c-0.549-0.434-1.072-0.814-1.6-1.166c-3.963-2.639-8.574-4.033-13.336-4.033c-4.199,0-8.344,1.107-11.986,3.203
		c-0.586,0.336-1.158,0.695-1.697,1.068c-1.551,1.072-2.977,2.326-4.234,3.721c-0.494,0.549-0.961,1.115-1.389,1.684
		c-1.213,1.617-2.221,3.389-2.994,5.264c-0.297,0.715-0.563,1.459-0.791,2.213c-0.619,2.047-0.961,4.188-1.016,6.365L7.885,31.6
		c-0.004,0.129-0.01,0.258-0.01,0.387c0,0.697,0.035,1.412,0.104,2.186c0.238,2.637,0.906,5.197,1.984,7.613
		c0.551,1.229,1.199,2.41,1.928,3.508c4.346,6.543,11.611,10.578,19.438,10.795l0.225,0.006l0.004,0.043l0.357-0.031l0.057,0.004
		c0.002,0,0.004,0,0.004,0c7.66,0,14.928-3.688,19.469-9.865c0.764-1.039,1.453-2.156,2.047-3.318
		c1.371-2.684,2.217-5.555,2.512-8.535c0.08-0.799,0.121-1.609,0.121-2.404C56.123,31.924,56.121,31.859,56.119,31.795z
		 M54.217,36.232c-0.133,0.699-0.303,1.387-0.5,2.064l-1.584,0.875v1.049l0.598,0.805c-0.105,0.24-0.215,0.48-0.328,0.719
		l-0.93,0.025l-0.053-0.75l0.219,0.094l0.533-0.057l-0.055-0.691l-1.473,0.018l-0.406-0.543l0.023-0.283l-0.396-0.363
		c0.059-0.189,0.121-0.379,0.174-0.57l1.287,1.254l0.137-0.449l-1.006-1.461c1.313-0.678,2.42-1.328,3.373-1.986l0.502-0.35
		L54.217,36.232z M31.066,48.459l0.014,0.271l-0.273-0.01c-0.742-0.027-1.482-0.076-2.219-0.139l0.547-0.988l0.752-0.17v-0.898
		l0.498-0.6l0.531-0.738C30.961,46.273,31.01,47.367,31.066,48.459z M18.326,21.266l-0.182-0.129l0.107-0.195
		c0.918-1.668,2.023-3.344,3.289-4.977l0.148-0.191l0.197,0.145c0.744,0.545,1.582,1.041,2.494,1.473l0.209,0.098l-0.084,0.217
		c-0.055,0.143-0.096,0.283-0.148,0.424l-0.16,0.004l-1.545,0.807l-0.582,1.053l-1.021,0.406l-0.432,0.479l0.1,0.551l0.525,0.076
		l0.32,0.811l0.908-0.377l0.154,1.084h-0.279l-0.748-0.111l-0.361,0.061c-0.836-0.402-1.621-0.854-2.359-1.338L18.83,21.4
		l-0.23,0.047C18.51,21.387,18.414,21.328,18.326,21.266z M35.854,32.529c-0.555-0.268-2.703-1.303-2.703-1.355
		c0-0.061,0.016-1.166,0.016-1.166h0.627l0.092,0.805l1.314,0.768l1.504,0.074l2.443,0.406
		C38.068,32.271,36.967,32.418,35.854,32.529z M19.205,37.816h0.941l0.514,0.525l1.15,0.121c0.031,0.211,0.055,0.422,0.088,0.633
		l0.061,0.377l-0.371-0.096c-1.205-0.314-2.375-0.691-3.508-1.111h0.648L19.205,37.816z M27.07,30.186l-1.078-0.816l-1.131,0.113
		v0.703H24.5l-0.385-0.281l-1.035-0.268c0.051-0.498,0.115-1,0.188-1.508l0.211,0.049l0.563-0.24l-0.01-0.688l0.25-0.127
		l-0.203-0.217l-0.555-0.316c0.047-0.252,0.09-0.504,0.141-0.758l0.057-0.271l0.057,0.02l0.109,0.109l0.828,0.725l0.035,0.877
		l0.857,0.926l0.316-1.27l0.596-0.33l0.109,1.041l0.58,0.645l1.748-0.029l0.518,0.395v0.928l-0.637,0.59H27.07z M23.689,27.391
		l-0.211,0.287l-0.143-0.008c0.025-0.156,0.047-0.313,0.074-0.473L23.689,27.391z M42.492,39.057
		c0.088-0.561,0.162-1.123,0.227-1.686l0.119,0.027l0.539-0.795l0.297-2.262l0.553-1.217l0.902-0.34l1.586,0.154l1.986,1.795v2.486
		c-1.822,0.85-3.807,1.563-5.898,2.117l-0.371,0.098L42.492,39.057z M43.813,17.488l-1.244-0.756
		c0.154-0.092,0.318-0.17,0.471-0.266l0.195-0.125l0.139,0.186c0.238,0.32,0.465,0.641,0.691,0.961H43.813z M36.699,18.859
		l0.004,0.23l-0.74,0.225l-0.041-0.326C36.182,18.949,36.441,18.906,36.699,18.859z M30.434,32.701
		c-0.18-0.008-0.359-0.027-0.537-0.039l-0.699-1.338l0.176-0.209l1.291,1.596L30.434,32.701z M30.396,19.248l-0.064-0.191
		c0.123,0.016,0.246,0.033,0.371,0.047L30.396,19.248z M29.576,19.408l-0.738,0.584l-1.797-0.053l-0.08-0.4l1.877-0.086l0.389-0.336
		l-0.771-0.363c0.422,0.09,0.848,0.164,1.277,0.229L29.576,19.408z M25.996,18.078l0.006-0.018l0.045,0.016L25.996,18.078z
		 M16.898,23.742h0.318l0.91-0.656l0.016-0.176c0.146,0.096,0.291,0.193,0.443,0.285l-0.328,0.068l-0.072,0.779h0.645l0.855-0.084
		l0.07-0.086c0.107,0.057,0.219,0.109,0.328,0.166l-0.113,0.162l-1.148,0.184l-0.164,0.996l0.484,0.117l-0.137,0.641l-1.141-0.232
		l-1.045,0.232L16.6,26.732l0.18,1.236l0.615,0.291l1.023-0.006l0.695-0.063l0.215-0.563l1.082-1.434l0.715,0.148l0.703-0.646
		l0.133,0.506l0.105,0.072c-0.115,0.623-0.236,1.248-0.32,1.863l-2.08,0.164l-0.773,0.422h-0.984l-0.486-0.051l-0.809,0.457
		c-0.352-0.186-0.701-0.373-1.039-0.572l-0.154-0.092l0.035-0.176C15.764,26.797,16.256,25.271,16.898,23.742z M17.459,22.479
		l0.008-0.016l0.014,0.01L17.459,22.479z M15.504,30.201c0.234,0.129,0.479,0.248,0.719,0.373v0.053l-1.168,0.857
		c0.016-0.338,0.039-0.688,0.08-1.09l0.037-0.377L15.504,30.201z M16.656,39.307c1.725,0.699,3.559,1.281,5.453,1.734l0.154,0.037
		l0.031,0.154c0.197,0.924,0.434,1.855,0.699,2.793l-0.381,0.74l0.055,0.75l0.646,0.654v1.645c-1.063-0.219-2.115-0.469-3.123-0.758
		l-0.086-0.025l-0.053-0.076c-1.629-2.428-2.885-4.895-3.727-7.334l-0.18-0.521L16.656,39.307z M32.26,40.453
		c-0.004-0.166-0.006-0.328-0.008-0.494l0.57-0.553l2.277-3.313l-0.441-0.207l-2.365,0.506l-0.098-0.049
		c-0.002-0.316-0.004-0.631-0.006-0.943l0.277,0.283l1.158-0.078l2.121-1.561c1.695-0.16,3.359-0.428,4.979-0.811v0.211
		l-0.098,1.031l0.736,1.232c-0.1,1.299-0.264,2.613-0.506,3.932l-0.029,0.166l-0.166,0.035c-2.633,0.543-5.375,0.83-8.15,0.855
		l-0.246,0.002L32.26,40.453z M42.1,41.176l0.033-0.154l0.152-0.037c1.938-0.471,3.818-1.082,5.588-1.816l0.512-0.211l-0.18,0.521
		c-0.873,2.572-2.205,5.172-3.953,7.73l-0.053,0.078l-0.09,0.023c-1.129,0.299-2.363,0.563-3.666,0.787l-0.428,0.074l0.152-0.408
		C40.992,45.561,41.641,43.344,42.1,41.176z M53.139,27.096h0.699l0.285,0.219c0.191,0.91,0.328,1.826,0.408,2.746l-1.41-1.504
		l-0.025-1.424C53.109,27.119,53.125,27.107,53.139,27.096z M45.693,14.289l0.158-0.172l0.182,0.145
		c1.266,1.004,2.412,2.139,3.428,3.373l-0.732,0.754l-0.367-0.027l-1.156-0.873h-1.287c-0.416-0.623-0.846-1.246-1.305-1.857
		l-0.141-0.188l0.178-0.152C45.041,14.957,45.391,14.621,45.693,14.289z M41.951,11.688c0.906,0.447,1.713,0.904,2.463,1.4
		l0.25,0.164l-0.205,0.217c-0.191,0.201-0.406,0.389-0.621,0.576l-0.273,0.24L43.4,14.084c-0.561-0.684-1.148-1.357-1.742-2.002
		l-0.914-0.988L41.951,11.688z M36.611,9.848c0.246,0.053,0.492,0.107,0.734,0.166l0.105,0.055c0.547,0.473,2.498,2.227,4.695,4.896
		l0.182,0.225l-0.246,0.148c-0.76,0.461-1.572,0.857-2.416,1.178l-0.227,0.086l-0.092-0.225c-1.111-2.672-2.246-4.824-3.004-6.16
		l-0.273-0.48L36.611,9.848z M32.621,17.455c0.145-3.449,0.291-6.15,0.389-7.811l0.014-0.248l0.25,0.014
		c0.256,0.016,0.508,0.031,0.762,0.053l0.125,0.012l0.064,0.107c0.598,0.977,2.146,3.631,3.645,7.201l0.111,0.27l-0.281,0.07
		c-0.775,0.195-1.564,0.342-2.361,0.441l-0.641-0.16l-0.059,0.225c-0.584,0.053-1.172,0.088-1.762,0.088h-0.26L32.621,17.455z
		 M30.252,9.432l0.129-0.008c0.225-0.016,0.449-0.023,0.676-0.031l0.465-0.014l-0.016,0.273c-0.096,1.645-0.238,4.318-0.383,7.723
		l-0.012,0.264l-0.264-0.025c-1.365-0.135-2.719-0.422-4.025-0.852l-0.258-0.084l0.107-0.252c1.463-3.424,2.943-5.955,3.514-6.885
		L30.252,9.432z M26.889,9.975l0.381-0.105c0.186-0.041,0.371-0.076,0.559-0.111l0.531-0.102l-0.268,0.471
		c-0.707,1.242-1.775,3.246-2.84,5.742l-0.104,0.238l-0.234-0.111c-0.832-0.398-1.514-0.791-2.084-1.201l-0.221-0.158l0.176-0.207
		c1.961-2.313,3.654-3.846,4.207-4.328L26.889,9.975z M20.748,12.371c0.654-0.377,1.361-0.732,2.164-1.086l1.137-0.5l-0.854,0.9
		c-0.52,0.547-1.037,1.127-1.543,1.719l-0.182,0.213l-0.314-0.334c-0.17-0.178-0.338-0.355-0.48-0.545l-0.174-0.225L20.748,12.371z
		 M14.73,17.395c1.266-1.498,2.723-2.826,4.33-3.951l0.199-0.139l0.145,0.195c0.275,0.369,0.602,0.744,0.969,1.117l0.154,0.156
		l-0.135,0.174c-1.258,1.609-2.371,3.273-3.307,4.943l-0.154,0.277l-0.234-0.215c-0.785-0.725-1.451-1.484-1.982-2.256l-0.107-0.158
		L14.73,17.395z M10.67,24.455c0.678-1.914,1.615-3.732,2.785-5.406l0.197-0.279l0.207,0.271c0.619,0.811,1.369,1.6,2.23,2.344
		l0.146,0.127l-0.084,0.172c-0.898,1.861-1.574,3.729-2.008,5.547l-0.086,0.363l-0.303-0.219c-1.152-0.83-2.174-1.727-3.035-2.668
		l-0.102-0.111L10.67,24.455z M9.422,33.396l-0.006-0.109c-0.025-0.43-0.041-0.863-0.041-1.301c0-1.793,0.219-3.596,0.646-5.359
		l0.104-0.424l0.314,0.305c0.934,0.904,2.01,1.768,3.203,2.563l0.131,0.086l-0.023,0.156c-0.131,0.932-0.201,1.793-0.215,2.639
		c-0.021,1.271,0.078,2.598,0.295,3.939l0.082,0.512l-0.451-0.254c-1.469-0.824-2.799-1.727-3.955-2.684L9.422,33.396z
		 M13.004,44.193l-0.059-0.031l-0.035-0.055c-1.578-2.477-2.643-5.191-3.164-8.072l-0.109-0.604l0.5,0.355
		c1.236,0.877,2.615,1.695,4.096,2.432l0.102,0.049l0.029,0.109c0.654,2.439,1.699,4.904,3.104,7.326l0.354,0.605l-0.656-0.246
		C15.693,45.508,14.295,44.879,13.004,44.193z M21.291,51.9c-2.121-1.146-4.033-2.607-5.684-4.344l-0.793-0.834l1.068,0.43
		c0.938,0.377,1.965,0.74,3.146,1.107l0.082,0.025l0.049,0.07c0.756,1.084,1.578,2.148,2.439,3.162l0.865,1.018L21.291,51.9z
		 M26.561,53.941c-0.232-0.059-0.465-0.119-0.695-0.184l-0.098-0.055c-0.188-0.168-1.875-1.707-3.852-4.197l-0.441-0.559
		l0.693,0.158c0.633,0.146,1.299,0.275,1.99,0.4v1.121h1.244c0.459,1.025,0.936,2.023,1.438,2.953l0.27,0.5L26.561,53.941z
		 M31.162,54.588c-0.656-0.023-1.326-0.078-1.992-0.162l-0.121-0.014l-0.063-0.105c-0.311-0.512-1.127-1.92-2.057-3.957l0.367-0.383
		c1.209,0.135,2.432,0.227,3.637,0.268l0.229,0.008l0.014,0.227c0.088,1.553,0.174,2.861,0.244,3.852l0.02,0.277L31.162,54.588z
		 M32.57,48.529c-0.004-0.063-0.006-0.127-0.01-0.191l0.293-0.479l1.121-1.672l0.537-2.621h-0.684l-0.662,1.35l-0.762-0.102
		c-0.033-0.791-0.063-1.584-0.088-2.367l-0.008-0.256l0.254-0.002c2.523-0.025,5.068-0.275,7.564-0.742l0.379-0.07l-0.09,0.373
		c-0.514,2.178-1.211,4.373-2.074,6.527l-0.057,0.139l-0.146,0.018c-1.787,0.213-3.576,0.324-5.318,0.334h-0.238L32.57,48.529z
		 M35.385,54.33l-0.117,0.016c-0.672,0.1-1.373,0.168-2.082,0.205l-0.246,0.014l-0.016-0.246c-0.068-0.963-0.156-2.252-0.244-3.787
		l-0.016-0.264l0.264-0.002c1.4-0.01,2.832-0.084,4.252-0.221l0.434-0.041l-0.182,0.395c-0.863,1.887-1.613,3.209-1.984,3.828
		L35.385,54.33z M38.967,53.471l-0.096,0.057c-0.295,0.094-0.598,0.176-0.898,0.258l-0.627,0.17l0.273-0.512
		c0.596-1.115,1.166-2.305,1.693-3.533l0.055-0.127l0.139-0.021c1.027-0.15,1.869-0.297,2.65-0.461l0.682-0.141l-0.436,0.543
		C40.836,51.654,39.479,52.988,38.967,53.471z M47.682,48.27c-1.162,1.121-2.508,2.146-4,3.053l-1.254,0.76l0.93-1.133
		c0.619-0.752,1.219-1.535,1.779-2.328l0.051-0.07l0.086-0.025c0.816-0.232,1.521-0.453,2.152-0.672l1.072-0.369L47.682,48.27z
		 M50.49,45l-0.039,0.055l-0.061,0.027c-0.965,0.443-2.031,0.867-3.262,1.297l-0.646,0.225l0.35-0.59
		c1.135-1.91,2.041-3.844,2.711-5.775l1.064,1.324l0.387,0.133v0.186h-0.516l0.129,0.414l1.48,0.066
		C51.617,43.268,51.088,44.15,50.49,45z M54.566,33.498l-0.006,0.109l-0.086,0.068c-0.756,0.607-1.598,1.182-2.477,1.732v-0.006
		l-1.172-0.959c0.055-0.555,0.086-1.102,0.098-1.643l0.043-0.059l0.691,0.225l-0.057,0.479l0.396,0.615l0.35-0.252l-0.193-0.73
		l1.934-0.705l0.533-0.453c0,0.021,0.002,0.045,0.002,0.066C54.623,32.445,54.605,32.926,54.566,33.498z"/>
	<polygon points="44.07,37.816 44.162,36.936 43.486,36.803 43.002,37.498 43.232,38.135 	"/>
</g>
</svg>
