<?xml version="1.0" encoding="utf-8"?>
<!-- Generator: Adobe Illustrator 16.0.0, SVG Export Plug-In . SVG Version: 6.00 Build 0)  -->
<!DOCTYPE svg PUBLIC "-//W3C//DTD SVG 1.1//EN" "http://www.w3.org/Graphics/SVG/1.1/DTD/svg11.dtd">
<svg version="1.1" id="Layer_1" xmlns="http://www.w3.org/2000/svg" xmlns:xlink="http://www.w3.org/1999/xlink" x="0px" y="0px"
	 width="64px" height="64px" viewBox="0 0 64 64" enable-background="new 0 0 64 64" xml:space="preserve">
<path d="M56.379,31.835c0-13.116-10.415-23.839-23.408-24.349c-0.317-0.015-0.636-0.024-0.955-0.024c-0.002,0-0.005,0-0.007,0
	c-0.001,0-0.002,0-0.004,0c-0.005,0-0.012,0-0.018,0c-0.303,0.001-0.604,0.01-0.904,0.023c-13.013,0.487-23.45,11.22-23.45,24.35
	c0,0.084,0.005,0.166,0.006,0.25c-0.003,0.043-0.018,0.083-0.018,0.126c0,0.062,0.018,0.12,0.025,0.18
	c0.261,11.549,8.585,21.14,19.556,23.342c1.389,0.546,3.297,0.806,5.201,0.806c2.303,0,4.616-0.378,6.001-1.187
	c4.093-1.115,7.76-3.27,10.698-6.165c0.012-0.012,0.024-0.023,0.036-0.035C53.606,44.73,56.379,38.602,56.379,31.835z
	 M47.437,48.014c-1.516,0.976-6.823,2.304-15.033,2.304c-9.492,0-15.116-1.776-15.47-2.652c0.354-0.953,5.978-2.729,15.47-2.729
	s15.115,1.776,15.469,2.653c-0.002,0.005-0.009,0.011-0.01,0.016C47.723,47.744,47.579,47.878,47.437,48.014z M32.005,54.21
	c-1.456,0-2.879-0.145-4.259-0.411c-0.231-0.099-0.414-0.195-0.525-0.278c0.511-0.38,2.28-1.018,5.183-1.018
	c2.876,0,4.635,0.626,5.164,1.007C35.789,53.967,33.925,54.21,32.005,54.21z M25.16,53.135c-1.452-0.468-2.838-1.081-4.144-1.821
	c1.529,0.317,3.218,0.546,4.911,0.704C25.533,52.337,25.261,52.707,25.16,53.135z M10.778,38.889
	c-0.467-1.4-0.798-2.861-0.979-4.368c1.736,0.794,4.338,1.352,7.166,1.741C14.078,36.833,11.682,37.67,10.778,38.889z
	 M10.363,26.159c1.28,0.929,3.565,1.591,6.187,2.061c-2.708,0.393-5.179,0.943-6.831,1.717
	C9.827,28.644,10.043,27.381,10.363,26.159z M32.159,9.466c2.813,0.021,4.536,0.641,5.039,1.014c-0.511,0.38-2.28,1.018-5.183,1.018
	s-4.671-0.638-5.183-1.018c0.512-0.38,2.279-1.017,5.178-1.018C32.061,9.462,32.109,9.466,32.159,9.466z M47.05,36.258
	c2.83-0.392,5.433-0.95,7.164-1.748c-0.181,1.504-0.51,2.962-0.974,4.359C52.323,37.659,49.929,36.826,47.05,36.258z M32.017,35.02
	c-0.227,0-1.771,0.004-3.932,0.093C16.684,34.8,10.593,33.17,9.683,32.211c0.913-0.961,7.032-2.596,18.483-2.903
	c1.967,0.07,3.347,0.074,3.563,0.074c0.225,0,1.699-0.004,3.788-0.082c11.647,0.286,17.866,1.941,18.788,2.911
	c-0.91,0.958-6.991,2.586-18.374,2.901C33.779,35.023,32.243,35.02,32.017,35.02z M52.154,24.423
	c-0.739,0.979-6.542,2.548-16.466,2.89c-1.817-0.053-3.178-0.06-3.695-0.06c-0.543,0-2.006,0.007-3.96,0.066
	c-10.082-0.322-15.982-1.909-16.728-2.896c0.834-1.103,8.082-2.958,20.424-2.958S51.32,23.32,52.154,24.423z M47.146,28.178
	c2.859-0.529,5.287-1.294,6.395-2.394c0.378,1.342,0.633,2.733,0.753,4.163C52.583,29.14,49.981,28.574,47.146,28.178z
	 M44.221,20.217c2.42-0.521,4.39-1.259,5.3-2.279c1.025,1.291,1.918,2.694,2.643,4.193C50.284,21.214,47.319,20.612,44.221,20.217z
	 M39.281,10.683c1.707,0.589,3.319,1.378,4.813,2.341c-1.814-0.383-3.87-0.646-5.914-0.816
	C38.808,11.802,39.207,11.296,39.281,10.683z M25.808,12.179c-1.954,0.153-3.933,0.389-5.715,0.732
	c1.449-0.916,3.01-1.669,4.657-2.235C24.82,11.277,25.202,11.776,25.808,12.179z M15.882,16.349
	c1.375-1.001,6.938-2.405,15.933-2.405c9.881,0,15.64,1.696,16.231,2.689c-0.591,0.994-6.348,2.692-16.231,2.692
	c-9.836,0-15.581-1.682-16.219-2.678C15.689,16.547,15.786,16.448,15.882,16.349z M19.349,20.204
	c-2.771,0.349-5.443,0.86-7.341,1.615c0.654-1.299,1.43-2.525,2.313-3.665C15.295,19.056,17.131,19.722,19.349,20.204z
	 M27.888,37.099c2.026,0.064,3.55,0.071,4.105,0.071c0.559,0,2.091-0.008,4.128-0.072c9.408,0.362,14.858,1.917,15.503,2.881
	c-0.736,1.095-7.686,2.957-19.607,2.957c-11.923,0-18.872-1.862-19.608-2.957C13.053,39.016,18.493,37.463,27.888,37.099z
	 M44.563,44.111c2.866-0.404,5.562-1.009,7.26-1.91c-0.74,1.411-1.625,2.735-2.639,3.949C48.298,45.261,46.615,44.598,44.563,44.111
	z M12.179,42.185c1.793,0.962,4.713,1.589,7.775,1.995c-2.266,0.564-4.04,1.357-4.717,2.445
	C14.049,45.278,13.021,43.789,12.179,42.185z M39.563,52.894c-0.133-0.327-0.367-0.618-0.684-0.876
	c1.263-0.118,2.524-0.275,3.72-0.479C41.627,52.063,40.612,52.516,39.563,52.894z"/>
</svg>
