<?xml version="1.0" encoding="utf-8"?>
<!-- Generator: Adobe Illustrator 16.0.0, SVG Export Plug-In . SVG Version: 6.00 Build 0)  -->
<!DOCTYPE svg PUBLIC "-//W3C//DTD SVG 1.1//EN" "http://www.w3.org/Graphics/SVG/1.1/DTD/svg11.dtd">
<svg version="1.1" id="Layer_1" xmlns="http://www.w3.org/2000/svg" xmlns:xlink="http://www.w3.org/1999/xlink" x="0px" y="0px"
	 width="64px" height="64px" viewBox="0 0 64 64" enable-background="new 0 0 64 64" xml:space="preserve">
<g>
	<polygon points="45.979,21.605 45.356,21.862 45.236,22.173 45.722,22.308 47.017,22.308 47.017,21.862 46.829,21.862 
		46.829,21.605 	"/>
	<path d="M46.739,15.189c-0.078-0.069-0.156-0.137-0.235-0.205l0.145,0.199L46.739,15.189z"/>
	<polygon points="45.154,23.563 45.533,23.766 46.45,22.483 45.735,22.483 45.236,23.023 	"/>
	<path d="M47.005,19.256l0.541,0.352l1.078,0.148v1.229l0.499-0.08l0.46-0.959l1.039-0.33c-0.543-0.813-1.141-1.588-1.782-2.322
		l-0.12,0.037l-1.932,1.13L47.005,19.256z"/>
	<polygon points="47.45,23.766 47.45,23.346 46.951,23.415 46.884,23.577 46.559,23.604 46.45,24.076 47.14,24.076 	"/>
	<path d="M48.323,42.061c0,0-1.26-0.955-1.332-0.955s-0.666-0.161-0.666-0.161l-0.126-0.701l-1.638-2.054l0.161-0.736l0.054-1.207
		l1.134-0.793l-0.161-1.35l-1.656-0.125l-1.297-1.478l-0.918-0.251l-0.594-0.109l0.072-0.539l-0.756-0.108V31.8l-1.891-0.468
		l-0.761-1.164l0.31-0.564l-1.197-1.746l-0.205-1.278H36.37l0.162,1.241l0.827,1.279l-0.09,0.504l-0.702-0.107l-0.863-1.474v-1.714
		l-0.9-0.432v-1.908l1.674-2.035l-0.107-1.215l0.468-0.332l-0.558-0.522l0.035-0.919l-0.666-0.594h-1.854l-0.307,0.324l-2.215-0.018
		l-0.81-0.686l0.63-0.449h1.62v-0.301l-0.756-0.113l0.487-0.377l1.061-0.164l1.584-1.079h2.736l1.496,0.45l0.503,0.288l0.45,0.036
		l0.666-0.648l2.16-0.018l0.486,0.27l0.918,0.198l0.071,0.36l1.459,0.053l-0.198-0.467l-1.296-0.036l0.306-0.288l-0.107-0.342H43.57
		l1.278-0.954h0.93C41.977,11.41,37.194,9.626,32,9.626c-6.39,0-12.157,2.696-16.238,7.007l0.104,0.016l0.783,0.395l8.37,0.433
		l2.296,0.972l-0.324,0.275l-1.701-0.275l-0.027,0.328l0.621,0.428l-0.811,0.162v0.486l-1.672,0.108l1.268,1.188l0.217,0.972
		l-0.568,0.296l-1.783-1.457v-0.675l0.434-0.675l-0.324-0.406L20.698,20.5l-1.538-0.136l-0.513-0.378l-0.648,0.919l0.297,0.593
		l2.241,0.271l0.899,1.026l-0.225,0.298l-0.701-0.703l-0.324,0.351l0.549,0.723l-0.117,1.36l-1.439-0.001l-0.072,1.097l1.215,0.738
		l0.423,0.558l-0.64,0.172l-2.268-1.729h-0.729l0.027,1.404l1.646,1.727l0.126,1.252l-0.829,0.691l-1.889,0.677l0.188,0.702
		l-0.342,0.242l-0.387-0.593l0.055-0.46l-0.675-0.215l-0.38,0.512l0.055,0.973l1.332,1.07l0.133,0.811l-0.807,0.536l-0.611-0.063
		l-1.1-1.246l-0.217,0.863l2.08,2.971l-0.135,0.432l-2.566-2.457v-2.484l-1.943-1.727l-1.222-0.117
		C9.638,31.438,9.627,31.718,9.627,32c0,6.35,2.663,12.085,6.925,16.161l0.484-0.47l0.072-2.951l0.989-0.684l0.888-0.012
		l1.674-1.907l1.058-0.08v0.396h0.36l0.883-1.252h1.229l1.045,0.628l-0.491,0.479l-0.583-0.119l0.039,0.789l0.307,0.186l1.1,0.081
		l0.235-1.988l0.575,0.026l0.641,1.098l0.072,1.584l0.971,0.831l0.261,1.063l-0.63,1.438L25.174,49.7l-2.652-0.092l-0.864-1.901
		l-2.336,0.094l-2.311,0.795c3.971,3.589,9.229,5.778,14.989,5.778c6.564,0,12.477-2.843,16.573-7.36l0.201-1.117l-0.451-0.127
		V42.061z M20.342,37.885l0.013,1.754l-0.395,0.036V39.08l-0.379-0.135l0.072,0.838h-0.486v-1.314h0.234l-0.012-0.214L20.342,37.885
		z M14.678,40.269l-0.126-0.398h0.504v-0.181l-0.378-0.125l-2.646-3.24l0.451-0.359l1.855,1.671l-0.021,0.272l0.396,0.521
		l1.439-0.018l0.055,0.666l-0.522,0.055l-0.216-0.092l0.055,0.721l1.332-0.035l1.079,0.684L14.678,40.269z M18.944,40.65h-0.433
		v-0.24h0.433V40.65z M18.944,38.031v0.236l-0.358,0.324l-0.202,0.514h-1.586l-0.629-0.832v-1.009l1.885-1.021l0.249-0.222
		l0.209-0.563h0.325l0.107,0.555l0.223,0.094v1.777L18.944,38.031z M20.03,40.41l-0.195,0.031v0.209h-0.27v0.169l-0.398,0.041v-0.21
		l0.256-0.24l0.176-0.205h0.432V40.41z M20.214,40.127h0.363l-0.08,0.283l-0.283-0.088V40.127z M21.104,40.617v0.223h-0.432v0.189
		h-0.42V40.65h0.027l0.551-0.06l0.043-0.249l0.494-0.073l0.039,0.382L21.104,40.617z M28.071,41.022h-0.973v-1.026l-0.557,0.055
		l-0.523,0.557l-1.44,0.092l-0.018-0.667h0.433l-0.018-0.325l-0.667-0.35l-1.188-0.171l-0.55-0.675l0.82-0.819l0.575,0.342
		l-0.046,0.628l0.604-0.016l0.649-0.343l2.321,1.054l0.09,1.25h0.486V41.022z M24.563,50.757l-0.757,0.417l-0.938-0.103l0.883-0.977
		l0.827,0.091L24.563,50.757z M31.431,49.36l-0.719,0.318L30.04,50.12l-2.377,1.457l-0.979,0.149v-0.445l0.319-0.262l1.872-1.332
		l1.17-0.162l0.631-0.43l0.09-1.379l0.717-0.043l0.012,0.881l0.391-0.077l0.267,0.474L31.431,49.36z"/>
	<polygon points="47.788,22.955 47.788,23.346 47.977,23.618 48.666,23.618 48.666,23.199 47.843,22.955 	"/>
	<polygon points="48.226,22.416 48.03,22.623 48.293,22.841 48.558,22.623 	"/>
	<path d="M51.69,21.387v0.165l0.103,0.034C51.758,21.52,51.726,21.451,51.69,21.387z"/>
	<path d="M42.009,17.973l0.203,0.244l1.066-0.068c0,0,0.04-0.472,0-0.472c-0.041,0-0.514,0.081-0.514,0.081L42.009,17.973z"/>
	<path d="M52.078,22.143l-0.038,0.043l-0.16-0.203l-0.352-0.093l-0.96,0.903l0.126,0.103l-1.417,0.784l-1.333,1.387l-0.09,0.617
		l-1.337,0.877l-0.661,0.666l0.072,1.332l-0.918-0.428l0.008-0.779l-2.557,0.001l-1.322,0.67l-0.575,1.06l-0.228,0.84l0.372,0.814
		l1.042,0.127l1.657-1.107l0.146,0.55l-0.506,0.954l1.261,0.216l0.126,1.948l1.729,0.293l1.099-1.27l1.331,0.271l0.469,0.651
		l1.278-0.075l0.036-0.378l0.701,0.342l0.793,1.241l1.367,0.019l0.504,0.883l0.073,1.08l0.1,0.037
		c0.301-1.459,0.459-2.971,0.459-4.518C54.373,28.464,53.545,25.119,52.078,22.143z"/>
	<path d="M47.612,22.483h-0.729c0,0.067,0,0.716,0,0.716l0.404-0.074l0.324-0.21V22.483z"/>
	<polygon points="43.296,16.502 42.522,16.502 42.481,16.664 42.009,16.664 42.009,16.705 42.009,17.137 43.075,17.137 
		43.296,16.84 	"/>
	<polygon points="47.247,21.794 47.247,22.308 47.693,22.2 	"/>
	<polygon points="44.007,20.241 44.357,20.957 44.911,20.781 45.087,20.094 44.574,19.972 	"/>
	<path d="M48.027,16.412c-0.243-0.25-0.492-0.495-0.747-0.734c-0.269,0.006-0.532,0.01-0.505,0.01c0.054,0,0.09,0.756,0.09,0.756
		L48.027,16.412z"/>
</g>
</svg>
