<?xml version="1.0" encoding="utf-8"?>
<!-- Generator: Adobe Illustrator 16.0.0, SVG Export Plug-In . SVG Version: 6.00 Build 0)  -->
<!DOCTYPE svg PUBLIC "-//W3C//DTD SVG 1.1//EN" "http://www.w3.org/Graphics/SVG/1.1/DTD/svg11.dtd">
<svg version="1.1" id="Layer_1" xmlns="http://www.w3.org/2000/svg" xmlns:xlink="http://www.w3.org/1999/xlink" x="0px" y="0px"
	 width="64px" height="64px" viewBox="0 0 64 64" enable-background="new 0 0 64 64" xml:space="preserve">
<g>
	<polygon points="40.887,33.928 40.945,33.391 40.526,33.307 40.225,33.732 40.368,34.121 	"/>
	<polygon points="33.932,40.051 34.628,39.033 34.96,37.434 34.537,37.434 34.125,38.256 33.417,38.164 33.417,38.713 33.668,39.01 
		33.475,39.307 33.189,39.637 33.189,40.242 33.578,40.619 	"/>
	<polygon points="25.183,24.762 25.211,24.984 24.879,25.053 24.834,25.527 25.234,25.527 25.765,25.475 26.039,25.148 
		25.748,25.035 25.588,24.852 25.348,24.465 25.234,23.916 24.783,24.008 24.657,24.201 24.657,24.418 24.874,24.566 	"/>
	<polygon points="24.8,24.943 24.823,24.646 24.56,24.533 24.189,24.619 23.916,25.059 23.916,25.344 24.234,25.344 	"/>
	<path d="M47.602,30.895c0-8.271-6.729-15-15-15s-15,6.729-15,15c0,8.27,6.729,15,15,15S47.602,39.164,47.602,30.895z
		 M18.835,30.895c0-7.592,6.175-13.766,13.766-13.766c3.732,0,7.119,1.494,9.601,3.912c0.162,0.158,0.316,0.322,0.47,0.488h-1.945
		l-0.978-0.584l-1.957,0.125l-1.486,0.664l0.012,0.771l-0.458,0.137l-0.103-0.771l-0.171-0.268l-0.514-0.127l-0.12,0.463
		l0.154,0.377l-1.828-0.119l-0.873,0.404l-0.132-0.381l-0.217,0.057l-0.16,0.422l-0.458,0.357l-1.114-0.031l-0.05-0.246l1.164-0.051
		l0.24-0.205l-1.404-0.652l-1.714,0.053l-0.959,0.49l-0.36,0.643l-0.634,0.248l-0.267,0.289l0.062,0.34l0.327,0.045l0.198,0.492
		l0.563-0.227l0.095,0.66h-0.171l-0.464-0.068l-0.513,0.084l-0.497,0.703l-0.712,0.111l-0.102,0.607l0.3,0.072l-0.085,0.391
		l-0.707-0.141l-0.648,0.141l-0.137,0.361l0.112,0.756l0.38,0.178l0.637-0.004l0.43-0.039l0.133-0.344l0.672-0.873l0.441,0.09
		l0.437-0.395l0.082,0.309l1.073,0.725l-0.131,0.176l-0.484-0.025l0.187,0.264l0.297,0.064l0.349-0.145l-0.007-0.42l0.155-0.078
		l-0.125-0.133l-0.715-0.398l-0.188-0.531h0.595l0.189,0.189l0.514,0.441l0.021,0.535l0.531,0.564l0.197-0.775l0.368-0.199
		l0.069,0.633l0.359,0.395l1.084-0.018l0.321,0.24v0.564l-0.395,0.361h-1.096l-0.667-0.498l-0.703,0.068v0.43h-0.223l-0.239-0.172
		l-1.217-0.309v-0.789l-1.542,0.121l-0.479,0.258h-0.612l-0.301-0.031l-0.744,0.412v0.777l-1.519,1.098l0.126,0.467h0.308
		l-0.081,0.445l-0.217,0.08l-0.011,1.166l1.313,1.496h0.572l0.034-0.092h1.028l0.297-0.273h0.583l0.319,0.318l0.868,0.092
		l-0.114,1.154l0.965,1.701l-0.508,0.971l0.034,0.457l0.4,0.398v1.1l0.525,0.707v0.912h1.554l1.165-1.197l0.365-0.652l0.468-0.104
		v-0.547l0.309-0.367l0.651-0.889l-0.137-1.359l-0.286-0.504l1.283-1.223l1.412-2.02l-0.274-0.127l-1.467,0.309l-0.378-0.188
		l-1.542-2.904l0.108-0.127l1.528,1.855l0.038,0.574l0.354,0.355l0.719-0.047l1.502-1.086l0.471-0.309l-0.009-0.377l-0.501-0.066
		c0,0-1.759-0.828-1.759-0.865s0.011-0.711,0.011-0.711h0.388l0.058,0.49l0.815,0.469l0.932,0.047l2.022,0.33l0.473,0.297v0.463
		l-0.061,0.629l1.036,1.705l0.335,0.078l0.334-0.484l0.184-1.379l0.346-0.742l0.558-0.209l0.982,0.094l1.233,1.098v1.576
		l1.628,1.559l0.085-0.273l-1.319-1.885l0.137-0.549l0.697,0.791l0.389,0.039l0.512-0.34l-0.085-0.514l-0.845-0.68l-0.034-0.617
		l0.241-0.324l0.428,0.137l-0.035,0.291l0.245,0.377l0.217-0.154l-0.119-0.445l0.465-0.166c0,0.008,0,0.016,0,0.023
		c0,7.59-6.175,13.766-13.766,13.766S18.835,38.484,18.835,30.895z"/>
	<path d="M32.602,10.09c6.39,0,12.095,2.967,15.825,7.592l-2.45,1.729l7.705,2.631l-0.8-7.504l-2.158,1.521
		c-4.243-5.342-10.785-8.779-18.122-8.779c-3.613,0-7.035,0.832-10.085,2.314l0.898,2.697C26.177,10.887,29.297,10.09,32.602,10.09z
		"/>
	<path d="M52.779,35.643c-0.707,3.018-2.109,5.918-4.239,8.443c-4.121,4.883-10.067,7.33-16.007,7.201l0.258-2.986l-6.978,4.193
		l6.252,4.227l0.227-2.633c6.819,0.201,13.666-2.582,18.396-8.191c2.33-2.762,3.898-5.914,4.732-9.201L52.779,35.643z"/>
	<path d="M12.911,38.699c-2.426-5.912-1.848-12.316,1.014-17.523l2.53,1.609l-0.493-8.125l-6.638,3.588l2.229,1.42
		c-3.332,5.953-4.028,13.311-1.241,20.098c1.372,3.344,3.443,6.191,5.972,8.451l2.154-1.855
		C16.088,44.34,14.166,41.756,12.911,38.699z"/>
</g>
</svg>
