<?xml version="1.0" encoding="utf-8"?>
<!-- Generator: Adobe Illustrator 16.0.0, SVG Export Plug-In . SVG Version: 6.00 Build 0)  -->
<!DOCTYPE svg PUBLIC "-//W3C//DTD SVG 1.1//EN" "http://www.w3.org/Graphics/SVG/1.1/DTD/svg11.dtd">
<svg version="1.1" id="Layer_1" xmlns="http://www.w3.org/2000/svg" xmlns:xlink="http://www.w3.org/1999/xlink" x="0px" y="0px"
	 width="64px" height="64px" viewBox="0 0 64 64" enable-background="new 0 0 64 64" xml:space="preserve">
<g>
	<path fill="none" d="M12.23,21.541c-0.055,0.102-0.105,0.206-0.158,0.309h0.201L12.23,21.541z"/>
	<path fill="none" d="M11.545,38.539l0.18-1.819l-1.367-0.144l-0.32-0.318c0.439,2.267,1.217,4.414,2.285,6.383l0.744-1.42
		L11.545,38.539z"/>
	<path fill="none" d="M11.814,27.98l1.92,0.486l0.375,0.27h0.354v-0.676l1.107-0.107l1.053,0.783h1.729l0.619-0.566v-0.891
		l-0.504-0.38l-1.711,0.028l-0.564-0.621l-0.109-1l-0.58,0.316l-0.311,1.223l-0.838-0.892l-0.035-0.843l-0.809-0.695l-0.297-0.297
		h-0.939l0.297,0.836l1.129,0.629l0.195,0.208l-0.244,0.123l0.012,0.661l-0.551,0.23l-0.469-0.104l-0.293-0.415l0.762,0.041
		l0.207-0.277l-1.691-1.143l-0.129-0.484l-0.688,0.621l-0.066-0.014c-0.197,0.6-0.369,1.21-0.516,1.83l1.586-0.123V27.98z"/>
	<polygon fill="none" points="19.568,25.611 18.754,25.276 18.711,24.405 18.406,24.254 18.244,24.508 17.5,24.594 17.162,24.699 
		16.848,25.053 16.848,26.009 17.268,25.951 18.668,26.009 19.641,26.009 	"/>
	<polygon fill="none" points="22.771,25.613 22.771,25.954 22.301,26.36 22.238,26.648 23.129,26.711 23.238,26.882 23.805,26.928 
		24.049,26.693 24.049,26.316 23.57,25.965 23.57,25.425 22.463,24.687 22.51,24.285 23.391,24.335 23.363,23.902 22.742,23.643 
		22.014,23.705 21.834,24.119 21.869,24.955 	"/>
	<path fill="none" d="M12.504,21.406l0.094,0.309l1.486,0.015l0.857-1.276l-0.041-0.58l-0.607-0.283v-0.433l1.072-0.655V18.07
		h-0.344l-1.094,0.763c-0.166,0.226-0.33,0.452-0.486,0.686l-0.006,1.415L12.504,21.406z"/>
	<path fill="none" d="M18.729,18.098l-0.377,0.324l-1.838,0.08l0.08,0.387l1.758,0.051l0.719-0.564l0.252-0.664l0.344-0.09
		l0.207,0.602l1.375-0.639l2.881,0.189l-0.242-0.594l0.188-0.73l0.811,0.199l0.27,0.423l0.162,1.216l0.721-0.217l-0.018-1.215
		l2.342-1.047l3.086-0.195l1.539,0.918h3.32l1.127,0.837l0.359,0.028l0.846-0.856l0.936,0.032l1.244,0.185l0.781,0.396l7.451,0.385
		C44.943,12.702,38.826,9.626,32,9.626c-6.621,0-12.578,2.894-16.678,7.481l1.191-0.036L18.729,18.098z"/>
	<polygon points="40.475,39.871 40.422,39.15 40.637,39.241 41.158,39.188 41.105,38.521 39.664,38.539 39.27,38.018 39.291,37.744 
		37.434,36.073 36.982,36.433 39.629,39.673 40.006,39.799 40.006,39.979 39.504,39.979 39.629,40.377 42.887,40.52 41.809,39.835 	
		"/>
	<polygon points="44.119,36.216 43.896,36.123 43.787,35.568 43.463,35.568 43.254,36.13 43.004,36.352 41.121,37.373 
		41.121,38.383 41.75,39.215 43.336,39.215 43.537,38.701 43.896,38.377 43.896,38.141 44.119,37.994 	"/>
	<polygon points="44.119,38.578 44.119,39.893 44.604,39.893 44.533,39.054 44.91,39.189 44.91,39.783 45.307,39.748 45.293,37.994 
		44.342,38.363 44.354,38.578 	"/>
	<polygon points="32.193,35.767 32.42,36.378 33.238,36.073 33.328,35.227 32.668,35.096 	"/>
	<polygon points="22.496,40.605 21.381,40.461 21.465,43.616 21.861,44.084 21.555,44.552 21.104,45.074 21.104,46.027 
		21.717,46.623 22.275,45.725 23.373,44.12 24.189,40.52 23.521,40.52 	"/>
	<polygon points="45.529,40.236 45.164,40.236 45.164,40.432 45.447,40.52 	"/>
	<rect x="43.463" y="40.52" width="0.434" height="0.24"/>
	<polygon points="44.375,40.52 44.119,40.76 44.119,40.969 44.518,40.928 44.518,40.76 44.787,40.76 44.787,40.55 44.982,40.52 
		44.982,40.314 44.551,40.314 	"/>
	<polygon points="45.826,40.45 45.783,40.699 45.232,40.76 45.205,40.76 45.205,41.139 45.623,41.139 45.623,40.949 46.057,40.949 
		46.057,40.727 46.359,40.76 46.318,40.377 	"/>
	<path d="M13.441,19.171v0.348c0.156-0.233,0.32-0.46,0.486-0.686L13.441,19.171z"/>
	<path d="M8.816,24.49c-0.039,0.117-0.078,0.232-0.115,0.35l0.035,0.008L8.816,24.49z"/>
	<path d="M53.023,41.131v-0.414h-0.418c-0.059,0.14-0.125,0.276-0.188,0.414H53.023z"/>
	<path d="M52.537,40.717l-0.09-1.25l-2.322-1.055l-0.648,0.344l-0.604,0.015l0.045-0.628l-0.576-0.342l-0.818,0.819l0.549,0.675
		l1.188,0.172l0.666,0.35l0.02,0.324h-0.434l0.018,0.667l1.441-0.091l0.521-0.558l0.559-0.054v1.025h0.367
		c0.063-0.138,0.129-0.274,0.188-0.414H52.537z"/>
	<path d="M32,7.626c-8.703,0-16.35,4.588-20.662,11.469c-0.258,0.41-0.506,0.826-0.74,1.253c-0.473,0.865-0.889,1.766-1.256,2.691
		c-0.189,0.477-0.367,0.96-0.525,1.451l-0.08,0.357L8.701,24.84c-0.205,0.668-0.381,1.35-0.529,2.041
		c-0.031,0.15-0.063,0.301-0.092,0.451C7.785,28.844,7.627,30.403,7.627,32c0,1.539,0.15,3.044,0.424,4.505
		c0.83,4.42,2.854,8.422,5.727,11.657c0.066,0.074,0.129,0.151,0.195,0.225c4.461,4.904,10.891,7.987,18.027,7.987
		c6.443,0,12.307-2.518,16.67-6.615c1.59-1.495,2.984-3.196,4.131-5.067c2.266-3.699,3.572-8.045,3.572-12.691
		C56.373,18.561,45.439,7.626,32,7.626z M32,9.626c6.826,0,12.943,3.076,17.051,7.911L41.6,17.152l-0.781-0.396l-1.244-0.185
		l-0.936-0.032l-0.846,0.856l-0.359-0.028l-1.127-0.837h-3.32l-1.539-0.918l-3.086,0.195l-2.342,1.047l0.018,1.215l-0.721,0.217
		l-0.162-1.216l-0.27-0.423l-0.811-0.199l-0.188,0.73l0.242,0.594l-2.881-0.189l-1.375,0.639l-0.207-0.602l-0.344,0.09l-0.252,0.664
		l-0.719,0.564l-1.758-0.051l-0.08-0.387l1.838-0.08l0.377-0.324l-2.215-1.026l-1.191,0.036C19.422,12.52,25.379,9.626,32,9.626z
		 M38.689,28.012l0.918,0.396c-0.154,0.358-0.24,0.625-0.273,0.838l-0.988-0.152C38.393,28.791,38.498,28.457,38.689,28.012z
		 M37.879,20.486c-0.244-0.184-0.51-0.355-0.793-0.514l0.488-0.873c0.32,0.18,0.625,0.377,0.904,0.586L37.879,20.486z
		 M39.156,21.816l-0.117-0.168c-0.137-0.191-0.293-0.375-0.461-0.549l0.721-0.695c0.201,0.209,0.387,0.43,0.553,0.662l0.137,0.195
		L39.156,21.816z M40.516,22.229c0.15,0.35,0.26,0.71,0.326,1.07l-0.982,0.184c-0.053-0.289-0.143-0.578-0.264-0.86L40.516,22.229z
		 M39.477,29.836c0.068,0.072,0.162,0.143,0.277,0.207l-0.49,0.872c-0.203-0.114-0.377-0.247-0.514-0.392L39.477,29.836z
		 M39.115,27.08c0.133-0.287,0.268-0.586,0.389-0.9l0.934,0.361c-0.129,0.334-0.273,0.654-0.414,0.959L39.115,27.08z M39.789,25.281
		c0.076-0.318,0.119-0.613,0.131-0.905l1,0.043c-0.016,0.356-0.066,0.714-0.158,1.095L39.789,25.281z M33.945,25.498l-0.137,0.99
		c-0.254-0.034-0.541-0.051-0.848-0.068l-0.123-0.008l0.059-0.998l0.123,0.008C33.355,25.441,33.668,25.461,33.945,25.498z
		 M33.436,18.848l0.107-0.994c0.348,0.037,0.697,0.092,1.047,0.163l-0.201,0.979C34.07,18.932,33.752,18.882,33.436,18.848z
		 M33.227,29.69l0.787,0.617c-0.217,0.275-0.449,0.542-0.691,0.8l-0.729-0.686C32.816,30.187,33.029,29.942,33.227,29.69z
		 M33.777,28.909c0.172-0.28,0.318-0.56,0.432-0.829l0.922,0.389c-0.135,0.316-0.303,0.641-0.502,0.965L33.777,28.909z
		 M34.475,27.225c0.016-0.092,0.023-0.176,0.023-0.252c0-0.193-0.057-0.254-0.074-0.274l0.738-0.675
		c0.223,0.244,0.336,0.563,0.336,0.949c0,0.128-0.012,0.268-0.039,0.423L34.475,27.225z M35.322,19.232l0.291-0.957
		c0.34,0.104,0.676,0.223,0.998,0.358l-0.385,0.923C35.934,19.434,35.631,19.326,35.322,19.232z M31.518,18.83l-0.1-0.996
		c0.307-0.029,0.621-0.045,0.941-0.045c0.004,0,0.01,0,0.016,0h0.111l-0.014,1C32.078,18.779,31.795,18.802,31.518,18.83z
		 M31.92,25.332l-0.127,0.992c-0.391-0.051-0.738-0.12-1.064-0.213l0.275-0.961C31.279,25.229,31.58,25.289,31.92,25.332z
		 M32.578,31.842c-0.26,0.241-0.525,0.469-0.785,0.684l-0.635-0.772c0.246-0.202,0.496-0.419,0.742-0.646L32.578,31.842z
		 M28.148,21.085c-0.012,0.089-0.018,0.181-0.018,0.274c0,0.182,0.021,0.373,0.061,0.568l-0.98,0.199
		c-0.053-0.26-0.08-0.519-0.08-0.768c0-0.137,0.008-0.27,0.025-0.399L28.148,21.085z M27.543,19.816
		c0.195-0.33,0.461-0.629,0.787-0.887l0.621,0.783c-0.23,0.184-0.414,0.39-0.549,0.614L27.543,19.816z M28.471,22.794
		c0.127,0.298,0.27,0.571,0.428,0.812l-0.836,0.549c-0.191-0.291-0.363-0.617-0.514-0.972L28.471,22.794z M29.465,24.294
		c0.211,0.2,0.449,0.375,0.709,0.519l-0.482,0.875c-0.336-0.184-0.643-0.41-0.916-0.669L29.465,24.294z M29.709,19.27l-0.398-0.917
		c0.318-0.139,0.67-0.255,1.045-0.343l0.23,0.973C30.27,19.058,29.975,19.154,29.709,19.27z M13.436,20.934l0.006-1.415v-0.348
		l0.486-0.338l1.094-0.763h0.344v0.432l-1.072,0.655v0.433l0.607,0.283l0.041,0.58l-0.857,1.276l-1.486-0.015l-0.094-0.309
		L13.436,20.934z M12.23,21.541l0.043,0.309h-0.201C12.125,21.747,12.176,21.643,12.23,21.541z M12.322,42.641
		c-1.068-1.969-1.846-4.116-2.285-6.383l0.32,0.318l1.367,0.144l-0.18,1.819l1.521,2.682L12.322,42.641z M52.605,40.717
		l-0.188,0.414c-0.172,0.383-0.354,0.759-0.545,1.129l-0.506-0.867l-0.576-0.027l-0.234,1.988l-1.1-0.081l-0.307-0.185l-0.039-0.789
		l0.582,0.119l0.49-0.48l-1.045-0.628H47.91l-0.883,1.253h-0.359v-0.396l-1.057,0.08l-1.674,1.908l-0.889,0.012l-0.99,0.684
		l-0.072,2.951l-0.594,0.576V48.9l2.881-0.99l2.334-0.094l0.363,0.795c-3.969,3.58-9.219,5.763-14.971,5.763
		c-6.016,0-11.479-2.39-15.504-6.265l1.566-1.613l0.576-1.025l0.738-0.163v-0.864l0.484-0.576l0.762-3.348H13.42l0.063-10.354
		h-1.969l1.969-1.691v-0.006h0.006l0.057-0.049l-1.73-0.439v-1.242l-1.586,0.123c0.146-0.62,0.318-1.23,0.516-1.83l0.066,0.014
		l0.688-0.621l0.129,0.484l1.691,1.143l-0.207,0.277l-0.762-0.041l0.293,0.415l0.469,0.104l0.551-0.23l-0.012-0.661l0.244-0.123
		l-0.195-0.208l-1.129-0.629l-0.297-0.836h0.939l0.297,0.297l0.809,0.695l0.035,0.843l0.838,0.892l0.311-1.223l0.58-0.316
		l0.092,0.852l0.674-0.578v-0.527l0.314-0.354l0.338-0.105l0.572-0.065l3.686-3.17l10.396,8.808h-2.117v2.436
		c0.111-0.076,0.221-0.15,0.342-0.24l0.596,0.803c-0.227,0.168-0.434,0.312-0.641,0.453l1.174,1.93l0.527,0.123l0.525-0.764
		l0.291-2.173l0.543-1.171l0.879-0.327l1.549,0.148l1.943,1.728v2.484l2.564,2.456l0.137-0.431l-2.08-2.971l0.215-0.864l1.1,1.246
		l0.613,0.063l0.807-0.535l-0.135-0.811l-1.33-1.07l-0.055-0.973l0.379-0.513l0.676,0.216l-0.055,0.459l0.385,0.594l0.344-0.242
		l-0.188-0.703l1.889-0.676l0.828-0.691l-0.125-1.252l-1.646-1.728l-0.029-1.404h0.73l2.268,1.729l0.639-0.172l-0.422-0.558
		l-1.217-0.738l0.072-1.097l1.439,0.001l0.117-1.359l-0.547-0.723l0.322-0.352l0.703,0.703l0.225-0.297l-0.9-1.027l-2.24-0.27
		l-0.297-0.594l0.646-0.918l0.514,0.377l1.539,0.137l1.945-1.297l0.322,0.405l-0.432,0.675v0.676l1.783,1.457l0.566-0.297
		l-0.217-0.972l-1.268-1.188l1.674-0.107v-0.486l0.441-0.088C52.93,22.98,54.373,27.324,54.373,32
		C54.373,35.09,53.744,38.037,52.605,40.717z"/>
	<g>
		<rect x="23.316" y="32.295" width="2.813" height="2.813"/>
		<path d="M21.775,22.564l-6.514,5.599h-0.004v0.005L13.707,29.5h1.551v9.902h13.035V29.5h1.668L21.775,22.564z M26.957,38.066
			h-5.182v-5.81h-3.396v5.81h-1.785V29.5h10.363V38.066z"/>
	</g>
</g>
</svg>
