<?xml version="1.0" encoding="utf-8"?>
<!-- Generator: Adobe Illustrator 16.0.0, SVG Export Plug-In . SVG Version: 6.00 Build 0)  -->
<!DOCTYPE svg PUBLIC "-//W3C//DTD SVG 1.1//EN" "http://www.w3.org/Graphics/SVG/1.1/DTD/svg11.dtd">
<svg version="1.1" id="Layer_1" xmlns="http://www.w3.org/2000/svg" xmlns:xlink="http://www.w3.org/1999/xlink" x="0px" y="0px"
	 width="64px" height="64px" viewBox="0 0 64 64" enable-background="new 0 0 64 64" xml:space="preserve">
<g>
	<path fill="none" d="M12.23,21.541c-0.054,0.102-0.106,0.206-0.159,0.309h0.203L12.23,21.541z"/>
	<path fill="none" d="M11.545,38.539l0.18-1.819l-1.367-0.144l-0.32-0.318c0.439,2.267,1.216,4.414,2.285,6.383l0.743-1.42
		L11.545,38.539z"/>
	<path fill="none" d="M11.815,27.98l1.918,0.486l0.376,0.27h0.353v-0.676l1.107-0.107l1.053,0.783h1.729l0.62-0.566v-0.891
		l-0.504-0.38l-1.71,0.028l-0.566-0.621l-0.109-1l-0.58,0.316l-0.311,1.223l-0.837-0.892l-0.035-0.843l-0.809-0.695l-0.298-0.297
		h-0.938l0.297,0.836l1.128,0.629l0.196,0.208l-0.244,0.123l0.01,0.661l-0.55,0.23l-0.468-0.104l-0.294-0.415l0.762,0.041
		l0.207-0.277l-1.692-1.143l-0.128-0.484l-0.688,0.621l-0.066-0.014c-0.197,0.6-0.369,1.21-0.515,1.83l1.586-0.123V27.98z"/>
	<polygon fill="none" points="19.568,25.611 18.754,25.276 18.711,24.405 18.407,24.254 18.244,24.508 17.5,24.594 17.161,24.699 
		16.848,25.053 16.848,26.009 17.267,25.951 18.668,26.009 19.64,26.009 	"/>
	<polygon fill="none" points="22.771,25.613 22.771,25.954 22.301,26.36 22.237,26.648 23.128,26.711 23.237,26.882 23.805,26.928 
		24.049,26.693 24.049,26.316 23.571,25.965 23.571,25.425 22.463,24.687 22.509,24.285 23.391,24.335 23.363,23.902 22.742,23.643 
		22.014,23.705 21.834,24.119 21.869,24.955 	"/>
	<path fill="none" d="M52.05,41.131v-1.025l-0.558,0.054l-0.523,0.558l-1.44,0.091l-0.018-0.667h0.433l-0.018-0.324l-0.667-0.35
		l-1.188-0.172l-0.549-0.675l0.819-0.819l0.576,0.342l-0.045,0.628l0.603-0.015l0.649-0.344l2.321,1.055l0.09,1.25h0.069
		c1.138-2.68,1.769-5.627,1.769-8.717c0-4.676-1.444-9.02-3.907-12.613l-0.442,0.088v0.486l-1.673,0.107l1.268,1.188l0.217,0.972
		l-0.568,0.297l-1.783-1.457v-0.676l0.433-0.675l-0.323-0.405l-1.945,1.297l-1.539-0.137l-0.513-0.377l-0.647,0.918l0.297,0.594
		l2.241,0.27l0.9,1.027l-0.225,0.297l-0.702-0.703l-0.324,0.352l0.548,0.723l-0.117,1.359l-1.439-0.001l-0.072,1.097l1.215,0.738
		l0.423,0.558l-0.639,0.172l-2.268-1.729h-0.729l0.028,1.404l1.646,1.728l0.126,1.252l-0.829,0.691l-1.889,0.676l0.188,0.703
		l-0.343,0.242l-0.386-0.594l0.054-0.459l-0.675-0.216l-0.379,0.513l0.054,0.973l1.332,1.07l0.133,0.811l-0.806,0.535l-0.612-0.063
		l-1.1-1.246l-0.216,0.864l2.08,2.971l-0.135,0.431l-2.565-2.456v-2.484l-1.943-1.728l-1.549-0.148l-0.878,0.327l-0.544,1.171
		l-0.291,2.173l-0.526,0.764l-0.527-0.123l-1.633-2.686l0.095-0.992v-0.729l-0.745-0.47l-3.188-0.521l-1.468-0.072l-1.286-0.738
		l-0.09-0.775H22.58c0,0-0.017,1.064-0.017,1.122s2.772,1.364,2.772,1.364l0.791,0.104l0.014,0.594l-0.742,0.485l-2.368,1.715
		l-1.134,0.073l-0.558-0.559l-0.059-0.906l-2.409-2.926l-0.171,0.199l2.43,4.578l0.595,0.297l2.313-0.487l0.432,0.198L22.244,37.6
		l-2.022,1.93l0.451,0.795l0.216,2.139l-1.027,1.404l-0.486,0.576v0.864l-0.738,0.163l-0.576,1.025l-1.565,1.613
		c4.024,3.875,9.488,6.265,15.503,6.265c5.752,0,11.002-2.183,14.97-5.763l-0.362-0.795l-2.335,0.094l-2.88,0.99v-0.523l0.594-0.576
		l0.072-2.951l0.99-0.684l0.888-0.012l1.674-1.908l1.057-0.08v0.396h0.36l0.883-1.253h1.229l1.045,0.628l-0.491,0.48l-0.583-0.119
		l0.039,0.789l0.307,0.185l1.1,0.081l0.235-1.988l0.575,0.027l0.506,0.867c0.192-0.37,0.374-0.746,0.545-1.129H52.05z M23.372,44.12
		l-1.097,1.604l-0.558,0.898l-0.613-0.596v-0.953l0.451-0.522l0.306-0.468l-0.396-0.468v-0.864l1.116,0.145l0.648-1.297h0.667
		L23.372,44.12z M33.238,36.073l-0.819,0.305l-0.226-0.611l0.475-0.671l0.66,0.131L33.238,36.073z M45.293,37.994l0.013,1.754
		l-0.396,0.035v-0.594l-0.378-0.136l0.072,0.839h-0.485v-1.314h0.234l-0.012-0.215L45.293,37.994z M39.629,40.377l-0.126-0.398
		h0.503v-0.18l-0.377-0.126l-2.646-3.24l0.451-0.359l1.856,1.671l-0.021,0.273l0.396,0.521l1.44-0.018l0.054,0.666l-0.522,0.054
		l-0.216-0.091l0.054,0.721l1.333-0.036l1.079,0.685L39.629,40.377z M43.896,40.76h-0.433v-0.24h0.433V40.76z M43.896,38.141v0.236
		l-0.358,0.324l-0.202,0.514h-1.586l-0.629-0.832v-1.01l1.884-1.021l0.25-0.222l0.209-0.562h0.325l0.108,0.555l0.223,0.093v1.778
		L43.896,38.141z M44.982,40.52l-0.195,0.03v0.21h-0.27v0.168l-0.398,0.041V40.76l0.256-0.24l0.176-0.205h0.432V40.52z
		 M45.165,40.236h0.364l-0.081,0.283l-0.283-0.088V40.236z M46.056,40.727v0.223h-0.432v0.189h-0.419V40.76h0.027l0.55-0.061
		l0.043-0.249l0.493-0.073l0.04,0.383L46.056,40.727z"/>
	<path fill="none" d="M12.504,21.406l0.093,0.309l1.486,0.015l0.857-1.276l-0.04-0.58l-0.608-0.283v-0.433l1.073-0.655V18.07h-0.344
		l-1.095,0.763c-0.165,0.226-0.33,0.452-0.486,0.686l-0.006,1.415L12.504,21.406z"/>
	<path fill="none" d="M18.728,18.098l-0.377,0.324l-1.836,0.08l0.08,0.387l1.757,0.051l0.72-0.564l0.251-0.664l0.343-0.09
		l0.208,0.602l1.375-0.639l2.88,0.189l-0.243-0.594l0.188-0.73l0.811,0.199l0.269,0.423l0.162,1.216l0.721-0.217l-0.019-1.215
		l2.343-1.047l3.084-0.195l1.541,0.918h3.32l1.127,0.837l0.358,0.028l0.847-0.856l0.935,0.032l1.244,0.185l0.783,0.396l7.451,0.385
		C44.943,12.702,38.825,9.626,32,9.626c-6.622,0-12.578,2.894-16.678,7.481l1.192-0.036L18.728,18.098z"/>
	<polygon points="40.475,39.871 40.421,39.15 40.637,39.241 41.159,39.188 41.105,38.521 39.665,38.539 39.269,38.018 39.29,37.744 
		37.434,36.073 36.983,36.433 39.629,39.673 40.006,39.799 40.006,39.979 39.503,39.979 39.629,40.377 42.887,40.52 41.808,39.835 	
		"/>
	<polygon points="44.119,36.216 43.896,36.123 43.788,35.568 43.463,35.568 43.254,36.13 43.004,36.352 41.12,37.373 41.12,38.383 
		41.749,39.215 43.335,39.215 43.537,38.701 43.896,38.377 43.896,38.141 44.119,37.994 	"/>
	<polygon points="44.119,38.578 44.119,39.893 44.604,39.893 44.532,39.054 44.911,39.189 44.911,39.783 45.306,39.748 
		45.293,37.994 44.341,38.363 44.353,38.578 	"/>
	<polygon points="32.193,35.767 32.419,36.378 33.238,36.073 33.328,35.227 32.668,35.096 	"/>
	<polygon points="22.58,42.896 21.464,42.752 21.464,43.616 21.86,44.084 21.555,44.552 21.104,45.074 21.104,46.027 21.717,46.623 
		22.275,45.725 23.372,44.12 23.896,41.6 23.229,41.6 	"/>
	<polygon points="45.528,40.236 45.165,40.236 45.165,40.432 45.448,40.52 	"/>
	<rect x="43.463" y="40.52" width="0.433" height="0.24"/>
	<polygon points="44.375,40.52 44.119,40.76 44.119,40.969 44.517,40.928 44.517,40.76 44.787,40.76 44.787,40.55 44.982,40.52 
		44.982,40.314 44.55,40.314 	"/>
	<polygon points="45.826,40.45 45.782,40.699 45.232,40.76 45.205,40.76 45.205,41.139 45.624,41.139 45.624,40.949 46.056,40.949 
		46.056,40.727 46.359,40.76 46.319,40.377 	"/>
	<path d="M13.442,19.171l-0.001,0.348c0.157-0.233,0.321-0.46,0.486-0.686L13.442,19.171z"/>
	<path d="M8.815,24.49c-0.038,0.117-0.078,0.232-0.114,0.35l0.036,0.008L8.815,24.49z"/>
	<path d="M53.023,41.131v-0.414h-0.418c-0.059,0.14-0.125,0.276-0.188,0.414H53.023z"/>
	<g>
		<path d="M52.536,40.717l-0.09-1.25l-2.321-1.055l-0.649,0.344l-0.603,0.015l0.045-0.628l-0.576-0.342l-0.819,0.819l0.549,0.675
			l1.188,0.172l0.667,0.35l0.018,0.324h-0.433l0.018,0.667l1.44-0.091l0.523-0.558l0.558-0.054v1.025h0.367
			c0.062-0.138,0.128-0.274,0.188-0.414H52.536z"/>
		<path d="M32,7.626c-8.702,0-16.35,4.588-20.662,11.469c-0.257,0.41-0.506,0.826-0.74,1.253c-0.473,0.865-0.89,1.766-1.257,2.691
			c-0.189,0.477-0.366,0.96-0.525,1.451l-0.079,0.357L8.701,24.84c-0.206,0.668-0.381,1.35-0.529,2.041
			c-0.032,0.15-0.063,0.301-0.092,0.451C7.785,28.844,7.626,30.403,7.626,32c0,1.539,0.15,3.044,0.424,4.505
			c0.83,4.42,2.854,8.422,5.726,11.657c0.066,0.074,0.128,0.151,0.195,0.225c4.461,4.904,10.891,7.987,18.027,7.987
			c6.443,0,12.307-2.518,16.669-6.615c1.591-1.495,2.985-3.196,4.131-5.067c2.266-3.699,3.574-8.045,3.574-12.691
			C56.374,18.561,45.439,7.626,32,7.626z M32,9.626c6.826,0,12.944,3.076,17.051,7.911L41.6,17.152l-0.783-0.396l-1.244-0.185
			l-0.935-0.032l-0.847,0.856l-0.358-0.028l-1.127-0.837h-3.32l-1.541-0.918l-3.084,0.195l-2.343,1.047l0.019,1.215l-0.721,0.217
			l-0.162-1.216l-0.269-0.423l-0.811-0.199l-0.188,0.73l0.243,0.594l-2.88-0.189l-1.375,0.639l-0.208-0.602l-0.343,0.09
			l-0.251,0.664l-0.72,0.564l-1.757-0.051l-0.08-0.387l1.836-0.08l0.377-0.324l-2.214-1.026l-1.192,0.036
			C19.422,12.52,25.378,9.626,32,9.626z M21.869,24.955l-0.035-0.836l0.18-0.414l0.728-0.063l0.621,0.26l0.028,0.433l-0.882-0.05
			l-0.046,0.401l1.107,0.738v0.54l0.478,0.352v0.377l-0.244,0.234l-0.567-0.046l-0.109-0.171l-0.891-0.063l0.063-0.288l0.47-0.406
			v-0.341L21.869,24.955z M19.64,26.009h-0.972l-1.401-0.058l-0.419,0.058v-0.956l0.313-0.354l0.339-0.105l0.744-0.086l0.163-0.254
			l0.304,0.151l0.043,0.871l0.814,0.335L19.64,26.009z M13.435,20.934l0.006-1.415l0.001-0.348l0.485-0.338l1.095-0.763h0.344v0.432
			l-1.073,0.655v0.433l0.608,0.283l0.04,0.58l-0.857,1.276l-1.486-0.015l-0.093-0.309L13.435,20.934z M12.23,21.541l0.044,0.309
			h-0.203C12.124,21.747,12.176,21.643,12.23,21.541z M12.323,42.641c-1.069-1.969-1.846-4.116-2.285-6.383l0.32,0.318l1.367,0.144
			l-0.18,1.819l1.521,2.682L12.323,42.641z M14.462,28.061v0.676H14.11l-0.376-0.27l-1.918-0.486v-1.242l-1.586,0.123
			c0.146-0.62,0.318-1.23,0.515-1.83l0.066,0.014l0.688-0.621l0.128,0.484l1.692,1.143l-0.207,0.277l-0.762-0.041l0.294,0.415
			l0.468,0.104l0.55-0.23l-0.01-0.661l0.244-0.123l-0.196-0.208l-1.128-0.629l-0.297-0.836h0.938l0.298,0.297l0.809,0.695
			l0.035,0.843l0.837,0.892l0.311-1.223l0.58-0.316l0.109,1l0.566,0.621l1.71-0.028l0.504,0.38v0.891l-0.62,0.566h-1.729
			l-1.053-0.783L14.462,28.061z M52.417,41.131c-0.171,0.383-0.353,0.759-0.545,1.129l-0.506-0.867l-0.575-0.027l-0.235,1.988
			l-1.1-0.081l-0.307-0.185l-0.039-0.789l0.583,0.119l0.491-0.48l-1.045-0.628h-1.229l-0.883,1.253h-0.36v-0.396l-1.057,0.08
			l-1.674,1.908l-0.888,0.012l-0.99,0.684l-0.072,2.951l-0.594,0.576V48.9l2.88-0.99l2.335-0.094l0.362,0.795
			c-3.968,3.58-9.218,5.763-14.97,5.763c-6.015,0-11.479-2.39-15.503-6.265l1.565-1.613l0.576-1.025l0.738-0.163v-0.864l0.486-0.576
			l1.027-1.404l-0.216-2.139l-0.451-0.795l2.022-1.93l2.227-3.184l-0.432-0.198l-2.313,0.487l-0.595-0.297l-2.43-4.578l0.171-0.199
			l2.409,2.926l0.059,0.906l0.558,0.559l1.134-0.073l2.368-1.715l0.742-0.485l-0.014-0.594l-0.791-0.104
			c0,0-2.772-1.307-2.772-1.364s0.017-1.122,0.017-1.122h0.612l0.09,0.775l1.286,0.738l1.468,0.072l3.188,0.521l0.745,0.47v0.729
			l-0.095,0.992l1.633,2.686l0.527,0.123l0.526-0.764l0.291-2.173l0.544-1.171l0.878-0.327l1.549,0.148l1.943,1.728v2.484
			l2.565,2.456l0.135-0.431l-2.08-2.971l0.216-0.864l1.1,1.246l0.612,0.063l0.806-0.535l-0.133-0.811l-1.332-1.07l-0.054-0.973
			l0.379-0.513l0.675,0.216l-0.054,0.459l0.386,0.594l0.343-0.242l-0.188-0.703l1.889-0.676l0.829-0.691l-0.126-1.252l-1.646-1.728
			l-0.028-1.404h0.729l2.268,1.729l0.639-0.172l-0.423-0.558l-1.215-0.738l0.072-1.097l1.439,0.001l0.117-1.359l-0.548-0.723
			l0.324-0.352l0.702,0.703l0.225-0.297l-0.9-1.027l-2.241-0.27l-0.297-0.594l0.647-0.918l0.513,0.377l1.539,0.137l1.945-1.297
			l0.323,0.405l-0.433,0.675v0.676l1.783,1.457l0.568-0.297l-0.217-0.972l-1.268-1.188l1.673-0.107v-0.486l0.442-0.088
			c2.462,3.594,3.907,7.938,3.907,12.613c0,3.09-0.63,6.037-1.769,8.717L52.417,41.131z"/>
	</g>
</g>
</svg>
