<?xml version="1.0" encoding="utf-8"?>
<!-- Generator: Adobe Illustrator 16.0.0, SVG Export Plug-In . SVG Version: 6.00 Build 0)  -->
<!DOCTYPE svg PUBLIC "-//W3C//DTD SVG 1.1//EN" "http://www.w3.org/Graphics/SVG/1.1/DTD/svg11.dtd">
<svg version="1.1" id="Layer_1" xmlns="http://www.w3.org/2000/svg" xmlns:xlink="http://www.w3.org/1999/xlink" x="0px" y="0px"
	 width="64px" height="64px" viewBox="0 0 64 64" enable-background="new 0 0 64 64" xml:space="preserve">
<g>
	<path d="M21.713,31.501H31v-9.532c-2.962,0.063-5.795,0.407-8.375,0.974C22.068,25.583,21.745,28.479,21.713,31.501z"/>
	<path d="M20.451,23.486c-5.99,1.705-10.202,4.667-10.756,8.015h10.018C19.74,28.675,19.996,25.979,20.451,23.486z"/>
	<path d="M23.149,20.767c2.44-0.466,5.078-0.743,7.851-0.797V9.738C27.697,10.468,24.798,14.761,23.149,20.767z"/>
	<path d="M20.555,41.044c-0.46-2.348-0.746-4.88-0.823-7.543H9.806C10.681,36.661,14.811,39.429,20.555,41.044z"/>
	<path d="M43.55,23.486c0.455,2.493,0.71,5.188,0.737,8.015h10.018C53.75,28.153,49.539,25.191,43.55,23.486z"/>
	<path d="M33,9.738V19.97c2.772,0.054,5.41,0.331,7.851,0.798C39.203,14.762,36.304,10.468,33,9.738z"/>
	<path d="M41.376,22.942c-2.58-0.565-5.413-0.91-8.376-0.974v9.532h9.288C42.256,28.479,41.932,25.583,41.376,22.942z"/>
	<path d="M22.736,41.582c2.551,0.552,5.344,0.888,8.264,0.95v-9.031h-9.266C21.826,36.36,22.176,39.093,22.736,41.582z"/>
	<path d="M53.705,26.576c-1.969-7.873-8.117-14.105-15.942-16.193c2.318,2.388,4.182,6.192,5.315,10.876
		C47.665,22.414,51.38,24.274,53.705,26.576z"/>
	<path d="M10.481,38.112c2.146,7.547,8.16,13.479,15.756,15.505c-2.229-2.296-4.034-5.902-5.178-10.34
		C16.533,42.156,12.841,40.352,10.481,38.112z"/>
	<path d="M26.238,10.382c-7.826,2.087-13.976,8.32-15.944,16.194c2.325-2.303,6.041-4.162,10.629-5.317
		C22.057,16.574,23.92,12.77,26.238,10.382z"/>
	<path d="M31,54.262v-9.73c-2.715-0.053-5.302-0.318-7.7-0.768C24.971,49.49,27.796,53.555,31,54.262z"/>
	<path d="M37.763,53.616c7.596-2.026,13.608-7.958,15.755-15.504c-2.359,2.239-6.051,4.043-10.577,5.165
		C41.798,47.714,39.991,51.32,37.763,53.616z"/>
	<path d="M33,44.531v9.73c3.205-0.708,6.029-4.771,7.7-10.498C38.303,44.212,35.716,44.479,33,44.531z"/>
	<path d="M42.267,33.501H33v9.031c2.921-0.063,5.714-0.398,8.265-0.95C41.825,39.093,42.175,36.359,42.267,33.501z"/>
	<path d="M43.445,41.044c5.744-1.615,9.873-4.384,10.748-7.543H44.27C44.191,36.163,43.906,38.696,43.445,41.044z"/>
</g>
</svg>
