<?xml version="1.0" encoding="utf-8"?>
<!-- Generator: Adobe Illustrator 16.0.0, SVG Export Plug-In . SVG Version: 6.00 Build 0)  -->
<!DOCTYPE svg PUBLIC "-//W3C//DTD SVG 1.1//EN" "http://www.w3.org/Graphics/SVG/1.1/DTD/svg11.dtd">
<svg version="1.1" id="Layer_1" xmlns="http://www.w3.org/2000/svg" xmlns:xlink="http://www.w3.org/1999/xlink" x="0px" y="0px"
	 width="64px" height="64px" viewBox="0 0 64 64" enable-background="new 0 0 64 64" xml:space="preserve">
<g>
	<path d="M54.362,30.471c-1.475,0.975-8.023,4.697-22.041,4.697c-13.955,0-21.055-3.738-22.684-4.723
		c-0.002,0.152-0.012,0.303-0.012,0.455c0,0.635,0.033,1.26,0.086,1.881c2.971,1.541,10.145,4.387,22.609,4.387
		c12.26,0,19.08-2.76,21.963-4.324c0.055-0.641,0.09-1.289,0.09-1.943C54.374,30.756,54.366,30.613,54.362,30.471z"/>
	<path d="M10.546,36.855l-0.082,0.096l0.002,0.002c0.279,0.996,0.625,1.963,1.033,2.896c3.176,1.752,9.836,4.43,20.875,4.43
		c10.32,0,16.666-2.338,19.967-4.078c0.449-0.98,0.83-1.996,1.137-3.045c-1.52,1.109-7.924,5.123-21.104,5.123
		C17.142,42.279,10.61,36.91,10.546,36.855z"/>
	<path d="M53.659,25.287c-0.176-0.68-0.385-1.348-0.621-2.002c-1.496,1.137-7.023,4.467-20.342,4.467s-19.871-3.396-21.707-4.545
		c-0.236,0.643-0.441,1.301-0.617,1.971c2.566,1.502,9.393,4.574,22.324,4.574C45.19,29.752,51.271,26.865,53.659,25.287z"/>
	<path d="M13.837,43.943c1.223,1.697,2.676,3.217,4.314,4.512c3.246,1.207,7.941,2.303,14.359,2.303
		c5.725,0,9.938-0.912,12.959-2.006c1.842-1.393,3.459-3.066,4.795-4.953c-0.676,0.65-5.623,4.959-17.754,4.959
		C20.333,48.758,14.646,44.59,13.837,43.943z"/>
	<path d="M51.79,45.104c0.016-0.016,0.041-0.043,0.047-0.049l-0.008-0.008C51.815,45.066,51.804,45.086,51.79,45.104z"/>
	<path d="M32.62,10.836c3.002-0.109,5.037-0.855,6.012-1.305c-1.359-0.422-2.775-0.717-4.23-0.873
		c-0.789-0.084-1.59-0.131-2.402-0.131c-0.789,0-1.566,0.043-2.336,0.123c-1.496,0.156-2.949,0.459-4.344,0.896
		c0.936,0.381,3.525,1.299,6.707,1.299C32.222,10.846,32.421,10.844,32.62,10.836z"/>
	<path d="M32.687,53.463c-1.033,0.033-2.008-0.051-2.885-0.188c-1.496,0.156-2.949,0.461-4.346,0.898
		c0.938,0.379,3.527,1.299,6.709,1.299c0.195,0,0.395-0.004,0.594-0.012c3.002-0.107,5.037-0.854,6.012-1.303
		c-1.359-0.424-2.775-0.717-4.232-0.873C33.974,53.369,33.368,53.439,32.687,53.463z"/>
	<path d="M45.741,13.264c-0.563-0.438-1.145-0.85-1.746-1.234c-1.736,1.113-5.305,2.688-11.621,2.688
		c-6.297,0-10.396-1.486-12.553-2.57c-0.623,0.406-1.227,0.842-1.805,1.307c2.09,1.223,6.719,3.264,14.357,3.264
		C39.935,16.717,43.958,14.594,45.741,13.264z"/>
	<path d="M50.735,18.691c-0.367-0.559-0.758-1.1-1.17-1.623c-1.783,1.34-6.838,4.25-17.195,4.25c-9.658,0-15.281-2.943-17.672-4.586
		c-0.426,0.518-0.828,1.057-1.207,1.613c2.623,1.838,8.588,4.973,18.879,4.973C43.108,23.318,48.593,20.287,50.735,18.691z"/>
</g>
</svg>
