<?xml version="1.0" encoding="utf-8"?>
<!-- Generator: Adobe Illustrator 16.0.0, SVG Export Plug-In . SVG Version: 6.00 Build 0)  -->
<!DOCTYPE svg PUBLIC "-//W3C//DTD SVG 1.1//EN" "http://www.w3.org/Graphics/SVG/1.1/DTD/svg11.dtd">
<svg version="1.1" id="Layer_1" xmlns="http://www.w3.org/2000/svg" xmlns:xlink="http://www.w3.org/1999/xlink" x="0px" y="0px"
	 width="64px" height="64px" viewBox="0 0 64 64" enable-background="new 0 0 64 64" xml:space="preserve">
<path d="M56.305,31.326c-0.006-0.712-0.043-1.417-0.109-2.112c-0.225-2.317-0.779-4.538-1.611-6.62
	c-0.061-0.154-0.119-0.312-0.184-0.465c-1.105-2.613-2.66-4.991-4.559-7.045c-0.125-0.135-0.252-0.266-0.379-0.396
	c-0.359-0.373-0.727-0.737-1.111-1.086C44.031,9.666,38.291,7.264,32,7.264c-6.346,0-12.127,2.445-16.461,6.44
	c-1.01,0.931-1.939,1.947-2.779,3.035c-3.176,4.108-5.072,9.255-5.072,14.837c0,6.709,2.74,12.783,7.15,17.186v7.915l0.967-0.299
	c0.045-0.013,4.604-1.402,8.402-1.402c3.166,0,6.328,0.969,7.283,1.287l0.621,0.222l0.682-0.203
	c1.111-0.315,4.854-1.306,8.066-1.306c3.768,0,7.543,1.376,7.582,1.391l1.004,0.37v-8.287c1.666-1.723,3.098-3.674,4.201-5.827
	c0.861-1.682,1.533-3.476,1.986-5.354c0.113-0.476,0.213-0.956,0.299-1.442c0.246-1.381,0.381-2.799,0.381-4.25
	C56.313,31.492,56.307,31.41,56.305,31.326z M51.73,21.608l0.141-0.158c0.184,0.359,0.359,0.724,0.523,1.094l-0.23-0.009
	l-0.434,0.059V21.608z M48.217,17.366l0.004-1.086c0.381,0.405,0.75,0.821,1.102,1.254l-0.438,0.651l-1.531-0.014l-0.096-0.319
	L48.217,17.366z M18.889,14.668v-0.041h0.486l0.043-0.168h0.797v0.348l-0.229,0.307h-1.098V14.668z M19.668,15.752
	c0,0,0.486-0.082,0.529-0.082c0.041,0,0,0.486,0,0.486l-1.1,0.068l-0.209-0.25L19.668,15.752z M15.234,31.622l-0.396,0.235v13.925
	c-3.205-3.863-5.15-8.806-5.15-14.206c0-3.097,0.635-6.049,1.781-8.731v-0.696l0.797-0.969c0.277-0.523,0.574-1.032,0.891-1.529
	l0.035,0.404l-0.926,1.125c-0.287,0.543-0.555,1.097-0.797,1.665v1.27l0.926,0.446v1.765l0.891,1.517l0.723,0.111l0.092-0.52
	l-0.852-1.316l-0.166-1.279h0.5l0.211,1.316l1.234,1.799l-0.32,0.581l0.783,1.198l1.947,0.482V29.9l0.779,0.11l-0.047,0.349
	C16.422,30.931,15.314,31.574,15.234,31.622z M31.275,54.479c-1.438-0.436-4.217-1.147-7.068-1.147
	c-2.961,0-6.256,0.768-7.852,1.192V32.855c1.002-0.506,3.811-1.745,7.234-1.745c3.447,0,6.574,1.265,7.686,1.77V54.479z
	 M47.928,54.479c-1.438-0.436-4.217-1.147-7.068-1.147c-2.963,0-6.256,0.768-7.852,1.192V32.855
	c1.002-0.506,3.811-1.745,7.234-1.745c3.447,0,6.574,1.265,7.686,1.77V54.479z M53.279,25.403h-1.781l-1.084-0.808l-1.141,0.111
	v0.696h-0.361l-0.389-0.278l-1.977-0.5v-1.28l-2.502,0.195l-0.777,0.417h-0.994l-0.488-0.049l-1.207,0.67v1.262l-2.467,1.779
	l0.205,0.76h0.5l-0.131,0.724l-0.352,0.13l-0.004,0.359c-3.104,0.366-5.463,1.498-6.201,1.895c-0.934-0.449-4.475-2.021-8.539-2.021
	c-1.092,0-2.119,0.116-3.059,0.291l-0.572-0.098l0.521-0.983l-0.15-0.566l-1.707,1.142l-1.072-0.131l-0.385-0.839l0.234-0.865
	l0.594-1.091l1.361-0.69l2.633-0.001l-0.008,0.803l0.945,0.44l-0.074-1.371l0.682-0.687l1.375-0.903l0.094-0.637l1.373-1.428
	l1.459-0.807l-0.129-0.106l0.988-0.93l0.361,0.096l0.166,0.208l0.375-0.416l0.092-0.041l-0.41-0.057l-0.418-0.139v-0.404l0.223-0.18
	h0.486l0.223,0.098l0.193,0.389l0.236-0.035v-0.035l0.068,0.023l0.684-0.105l0.098-0.334l0.389,0.098v0.361l-0.361,0.25H31.1
	l0.053,0.396l1.238,0.383c0,0,0.002,0.006,0.004,0.015l0.283-0.024l0.02-0.537l-0.982-0.447l-0.055-0.258l0.814-0.277l0.037-0.78
	l-0.852-0.519l-0.057-1.316l-1.168,0.574H30.01l0.111-1.001l-1.59-0.376l-0.658,0.497v1.517l-1.184,0.374l-0.473,0.987l-0.514,0.084
	v-1.265l-1.113-0.153l-0.555-0.363l-0.225-0.818l1.99-1.164l0.973-0.297l0.098,0.654l0.543-0.029l0.041-0.328l0.568-0.082
	l0.01-0.114l-0.244-0.101l-0.057-0.348l0.697-0.059l0.422-0.438l0.023-0.032l0.004,0.002l0.129-0.132l1.465-0.186l0.648,0.551
	l-1.699,0.904l2.162,0.51l0.279-0.723h0.945l0.334-0.631l-0.668-0.166v-0.797l-2.094-0.928l-1.447,0.166l-0.816,0.428l0.057,1.037
	l-0.854-0.129l-0.131-0.574l0.816-0.742l-1.482-0.074l-0.426,0.129l-0.186,0.501l0.555,0.094l-0.111,0.556l-0.945,0.056l-0.148,0.37
	l-1.371,0.037c0,0-0.037-0.777-0.092-0.777c-0.057,0,1.074-0.02,1.074-0.02l0.816-0.797l-0.445-0.223l-0.594,0.575l-0.982-0.056
	l-0.594-0.816h-1.26l-1.316,0.982h1.205l0.111,0.354l-0.316,0.296l1.336,0.037l0.203,0.481l-1.502-0.055l-0.074-0.371l-0.945-0.204
	l-0.5-0.278l-1.125,0.01C22.574,10.854,27.104,9.264,32,9.264c5.641,0,10.797,2.109,14.73,5.574l-0.266,0.475l-1.029,0.402
	l-0.434,0.472l0.1,0.549l0.531,0.073l0.32,0.801l0.916-0.369l0.152,1.07h-0.277l-0.754-0.111l-0.832,0.14l-0.807,1.14l-1.154,0.182
	l-0.168,0.987l0.488,0.115l-0.141,0.635l-1.146-0.229l-1.051,0.229l-0.223,0.585l0.182,1.228l0.617,0.288l1.035-0.006l0.697-0.063
	l0.215-0.556l1.092-1.42l0.719,0.146l0.707-0.639l0.133,0.5l1.742,1.176l-0.213,0.285l-0.785-0.042l0.303,0.429l0.482,0.105
	l0.566-0.236l-0.01-0.682l0.25-0.125l-0.201-0.215l-1.162-0.648l-0.305-0.86h0.965l0.309,0.306l0.832,0.717l0.035,0.867l0.861,0.918
	l0.322-1.258l0.596-0.326l0.113,1.029l0.582,0.64l1.164-0.02c0.225,0.579,0.426,1.168,0.604,1.769L53.279,25.403z M20.947,18.311
	l0.584-0.278l0.529,0.126l-0.182,0.709l-0.57,0.182L20.947,18.311z M24.047,19.98v0.459h-1.334l-0.5-0.14l0.125-0.319l0.641-0.266
	h0.875v0.266H24.047z M24.66,20.62v0.444l-0.334,0.215l-0.416,0.078c0,0,0-0.668,0-0.737H24.66z M24.283,20.439V19.91l0.461,0.418
	L24.283,20.439z M24.492,21.508v0.434l-0.318,0.319h-0.709l0.109-0.486l0.336-0.028l0.068-0.167L24.492,21.508z M22.727,20.62h0.738
	l-0.945,1.321l-0.391-0.21l0.084-0.556L22.727,20.62z M25.744,21.357v0.432h-0.709l-0.193-0.281v-0.401h0.055L25.744,21.357z
	 M25.092,20.763l0.201-0.212l0.342,0.212l-0.273,0.226L25.092,20.763z M53.641,26.529l0.07-0.082
	c0.029,0.127,0.059,0.253,0.088,0.381L53.641,26.529z"/>
</svg>
