<?xml version="1.0" encoding="utf-8"?>
<!-- Generator: Adobe Illustrator 16.0.0, SVG Export Plug-In . SVG Version: 6.00 Build 0)  -->
<!DOCTYPE svg PUBLIC "-//W3C//DTD SVG 1.1//EN" "http://www.w3.org/Graphics/SVG/1.1/DTD/svg11.dtd">
<svg version="1.1" id="Layer_1" xmlns="http://www.w3.org/2000/svg" xmlns:xlink="http://www.w3.org/1999/xlink" x="0px" y="0px"
	 width="64px" height="64px" viewBox="0 0 64 64" enable-background="new 0 0 64 64" xml:space="preserve">
<g>
	<path d="M49.641,28.058c0-10.475-8.521-18.997-18.998-18.997c-0.4,0-0.797,0.017-1.191,0.041v2.406
		c0.395-0.028,0.789-0.061,1.191-0.061c9.16,0,16.611,7.452,16.611,16.611c0,9.159-7.451,16.61-16.611,16.61
		c-0.268,0-0.529-0.027-0.795-0.04v0.897v1.509v4.722h-5.898v3.182h13.389v-3.182h-5.104v-4.774
		C41.967,46.171,49.641,37.997,49.641,28.058z"/>
	<path d="M44.359,28.08c0-8.271-6.73-15-15.002-15c-9.264,0-14.998,7.786-14.998,15c0,8.271,6.729,15,14.998,15
		C37.629,43.08,44.359,36.351,44.359,28.08z M37.195,39.391c0.172-0.658,0.359-1.497,0.51-2.466c0.008,0,0.016,0.002,0.023,0.002
		c1.17,0,2.121-0.895,2.232-2.036c0.629-0.151,1.166-0.308,1.605-0.454C40.527,36.421,39.023,38.121,37.195,39.391z M43.127,28.08
		c0,1.676-0.301,3.281-0.852,4.768c-0.363,0.16-1.225,0.499-2.539,0.819c-0.334-0.661-0.977-1.129-1.744-1.22
		c-0.082-2.729-0.672-5.8-2.326-8.732c-0.332-0.587-0.676-1.135-1.029-1.654c0.398-0.323,0.689-0.771,0.793-1.292
		c2.922-0.297,5.133-0.005,5.635,0.073C42.371,22.946,43.127,25.426,43.127,28.08z M34.521,15.318
		c2.199,0.893,4.117,2.338,5.582,4.165c-1.084-0.099-2.771-0.163-4.779,0.038c-0.215-0.561-0.641-1.013-1.186-1.257
		C34.309,17,34.439,15.971,34.521,15.318z M34.594,24.319c1.564,2.773,2.09,5.722,2.143,8.341c-0.637,0.315-1.104,0.918-1.223,1.644
		c-1.283,0.09-2.734,0.106-4.346,0.001c-0.021-0.539-0.23-1.025-0.564-1.402c1.125-2.554,2.1-5.17,2.432-7.187
		c0.172-1.047,0.334-2.094,0.486-3.104C33.891,23.145,34.25,23.711,34.594,24.319z M20.996,28.066
		c1.201-1.289,2.736-2.647,4.691-3.947c1.861-1.236,3.797-2.045,5.648-2.573c0.236,0.363,0.576,0.653,0.975,0.831
		c-0.152,1.021-0.316,2.079-0.49,3.139c-0.305,1.853-1.213,4.297-2.275,6.72c-0.197-0.058-0.404-0.098-0.621-0.098
		c-0.971,0-1.789,0.615-2.107,1.474c-2.244-0.682-4.166-1.863-5.742-3.169c0.189-0.331,0.307-0.709,0.307-1.117
		C21.381,28.859,21.24,28.425,20.996,28.066z M29.357,14.311c1.383,0,2.717,0.207,3.975,0.587c-0.074,0.612-0.217,1.75-0.412,3.199
		c-0.441,0.06-0.838,0.245-1.16,0.521c-2.17-2.106-4.324-3.284-5.771-3.904C27.045,14.455,28.168,14.311,29.357,14.311z
		 M24.084,15.333c0.688,0.198,3.838,1.242,6.986,4.353c-0.059,0.203-0.102,0.412-0.102,0.633c0,0.012,0.004,0.023,0.004,0.035
		c-1.945,0.562-3.986,1.424-5.967,2.74c-2.076,1.379-3.693,2.814-4.961,4.177c-0.281-0.125-0.59-0.199-0.918-0.199
		c-0.402,0-0.775,0.115-1.104,0.301c-1.043-1.267-1.709-2.329-1.963-2.759C17.121,20.681,19.939,17.042,24.084,15.333z M15.59,28.08
		c0-0.57,0.041-1.144,0.117-1.717c0.363,0.536,0.852,1.198,1.439,1.91c-0.168,0.315-0.271,0.67-0.271,1.053
		c0,0.537,0.195,1.022,0.508,1.41c-0.441,0.714-0.781,1.357-1.021,1.878C15.863,31.193,15.59,29.668,15.59,28.08z M17.039,34.217
		c0.143-0.418,0.545-1.434,1.365-2.768c0.229,0.078,0.469,0.129,0.723,0.129c0.373,0,0.719-0.099,1.029-0.259
		c1.766,1.483,3.959,2.842,6.574,3.575c0.129,0.562,0.463,1.044,0.924,1.358c-1.123,2.25-2.148,4.104-2.598,4.905
		C21.553,40.001,18.668,37.477,17.039,34.217z M28.846,36.637c0.025,0.001,0.051,0.008,0.078,0.008c0.83,0,1.547-0.454,1.938-1.122
		c0.893,0.065,1.744,0.099,2.543,0.099s1.543-0.03,2.246-0.081c0.174,0.417,0.469,0.768,0.842,1.013
		c-0.273,1.873-0.688,3.259-0.859,3.775c-1.883,0.969-4.016,1.519-6.275,1.519c-1.059,0-2.088-0.124-3.078-0.352
		C26.807,40.555,27.787,38.763,28.846,36.637z"/>
</g>
</svg>
