<?xml version="1.0" encoding="utf-8"?>
<!-- Generator: Adobe Illustrator 16.0.0, SVG Export Plug-In . SVG Version: 6.00 Build 0)  -->
<!DOCTYPE svg PUBLIC "-//W3C//DTD SVG 1.1//EN" "http://www.w3.org/Graphics/SVG/1.1/DTD/svg11.dtd">
<svg version="1.1" id="Layer_1" xmlns="http://www.w3.org/2000/svg" xmlns:xlink="http://www.w3.org/1999/xlink" x="0px" y="0px"
	 width="64px" height="64px" viewBox="0 0 64 64" enable-background="new 0 0 64 64" xml:space="preserve">
<g>
	<path d="M49.373,26.063C48.842,16.87,41.203,9.67,31.98,9.67c-0.326,0-0.656,0.009-0.986,0.027
		c-9.576,0.553-16.918,8.796-16.365,18.374c0.373,6.439,4.24,12.112,10.092,14.803l0.137,0.063l0.102,0.111
		c3.359,3.658,6.893,8.793,7.285,9.366l1.295,1.915l1.109-2.001c0.916-1.633,3.898-6.922,5.924-10.025l0.096-0.146l0.152-0.09
		C46.387,38.789,49.744,32.507,49.373,26.063z M39.01,39.862l-0.301,0.167l-0.191,0.285c-1.508,2.255-3.561,5.783-4.65,7.686
		l-0.574,1.002l-0.682-0.933c-1.484-2.029-3.713-4.938-5.898-7.266l-0.201-0.214l-0.268-0.115
		c-5.111-2.198-8.484-7.013-8.807-12.564c-0.463-8.03,5.691-14.94,13.721-15.405c8.066-0.472,14.943,5.729,15.404,13.719
		C46.885,31.814,43.92,37.168,39.01,39.862z"/>
	<path d="M40.432,23.886l-0.234-0.255l-0.045-0.414l-0.24,0.131l-0.127,0.505l-0.348-0.368l-0.014-0.348l-0.332-0.288l-0.125-0.122
		H38.58l0.123,0.346l0.465,0.26l0.08,0.086l-0.1,0.05l0.004,0.273l-0.227,0.095l-0.193-0.042l-0.121-0.172l0.314,0.017l0.086-0.114
		l-0.699-0.472l-0.055-0.2l-0.283,0.256l-0.287-0.059l-0.438,0.57l-0.086,0.223l-0.279,0.024l-0.416,0.003l-0.248-0.116
		l-0.072-0.491l0.09-0.235l0.42-0.092l0.461,0.092l0.057-0.254l-0.197-0.047l0.068-0.396l0.463-0.072l0.324-0.457l0.332-0.056
		l0.303,0.044h0.111l-0.063-0.429l-0.365,0.148l-0.129-0.321l-0.213-0.029l-0.041-0.221l0.176-0.188l0.412-0.162l0.105-0.189
		c-1.576-1.389-3.645-2.235-5.906-2.235c-1.963,0-3.779,0.638-5.256,1.714l0.449-0.004l0.201,0.11l0.379,0.083l0.029,0.148
		l0.604,0.022l-0.082-0.193l-0.535-0.015l0.125-0.119l-0.043-0.141h-0.484l0.527-0.396h0.508l0.236,0.328l0.395,0.021l0.238-0.23
		l0.178,0.09l-0.326,0.319c0,0-0.453,0.008-0.432,0.008s0.037,0.313,0.037,0.313l0.551-0.016l0.059-0.148l0.379-0.021l0.045-0.224
		l-0.223-0.038l0.074-0.201l0.17-0.051l0.596,0.029l-0.328,0.298l0.053,0.23l0.342,0.052L31,19.716l0.328-0.172l0.578-0.066
		l0.84,0.372v0.319l0.27,0.067l-0.135,0.253h-0.379l-0.111,0.289l-0.867-0.205l0.682-0.362l-0.26-0.221l-0.588,0.075l-0.053,0.053
		l-0.002-0.001l-0.008,0.013l-0.17,0.176l-0.279,0.023l0.021,0.14l0.098,0.04l-0.002,0.047l-0.229,0.031l-0.018,0.132L30.5,20.73
		l-0.039-0.262l-0.391,0.118l-0.797,0.468l0.09,0.327l0.223,0.146l0.445,0.062v0.507l0.207-0.033l0.189-0.396l0.475-0.15v-0.607
		l0.264-0.199l0.637,0.15l-0.045,0.401h0.17l0.471-0.23l0.021,0.528l0.342,0.208l-0.016,0.313l-0.326,0.112l0.023,0.103l0.393,0.18
		l-0.006,0.215l-0.115,0.01c0-0.003-0.002-0.006-0.002-0.006l-0.496-0.153l-0.021-0.16l0.145-0.1v-0.145l-0.156-0.039l-0.039,0.134
		l-0.273,0.043l-0.027-0.01v0.014l-0.096,0.015l-0.076-0.156l-0.09-0.039h-0.195l-0.09,0.072v0.161l0.168,0.057l0.164,0.022
		l-0.035,0.017l-0.15,0.167l-0.066-0.084L31.23,22.47l-0.396,0.374l0.053,0.042l-0.586,0.325l-0.551,0.571l-0.037,0.255L29.162,24.4
		l-0.273,0.274l0.029,0.55l-0.379-0.176l0.002-0.323l-1.055,0.001l-0.547,0.276l-0.236,0.438l-0.094,0.347l0.152,0.336l0.432,0.053
		l0.684-0.457l0.061,0.226l-0.209,0.396l0.52,0.089l0.053,0.804l0.715,0.122l0.453-0.525l0.551,0.112l0.191,0.269l0.529-0.03
		l0.014-0.157l0.291,0.143l0.326,0.513l0.566,0.008l0.207,0.364l0.029,0.445l0.625,0.238l0.787,0.007l0.232,0.379l0.35,0.112
		l-0.066,0.313l-0.383,0.487l-0.113,1.075l-0.346,0.274l-0.514-0.016l-0.17,0.297l0.127,0.559l-0.559,0.713l-0.178,0.328
		l-0.531,0.255l-0.35,0.054l-0.016,0.147l0.246,0.071l-0.029,0.159l-0.221,0.212l0.133,0.168l0.266,0.008l-0.016,0.204l-0.07,0.2
		l-0.021,0.164l0.391,0.33l-0.053,0.171l-0.531-0.01l-0.529-0.464l-0.414-0.725l0.059-0.7l-0.313-0.417l0.127-0.706l-0.186-0.052
		v-1.531c0,0-0.521-0.396-0.551-0.396c-0.031,0-0.275-0.065-0.275-0.065l-0.053-0.291l-0.676-0.847l0.066-0.306l0.021-0.498
		l0.469-0.327l-0.066-0.558l-0.684-0.052l-0.535-0.609l-0.381-0.104L27,26.704l0.029-0.223l-0.311-0.044v0.125l-0.783-0.192
		l-0.313-0.48l0.127-0.232l-0.494-0.723l-0.084-0.528h-0.201l0.066,0.514l0.342,0.528l-0.037,0.209l-0.289-0.045l-0.357-0.609
		v-0.707l-0.371-0.179v-0.51c-0.459,1.076-0.715,2.26-0.715,3.502c0,4.934,4.014,8.947,8.947,8.947c2.797,0,5.297-1.291,6.939-3.307
		h-0.295v-0.596l-0.342-0.46V30.98l-0.262-0.261l-0.021-0.298l0.33-0.633l-0.627-1.106l0.074-0.752l-0.564-0.06l-0.209-0.208h-0.381
		l-0.191,0.179h-0.67l-0.021,0.06h-0.373l-0.854-0.974l0.008-0.759l0.141-0.052l0.053-0.29H35.09l-0.082-0.305l0.988-0.713v-0.506
		l0.484-0.27l0.195,0.02h0.398l0.313-0.168l1.004-0.078v0.515l0.793,0.2l0.154,0.111h0.146v-0.279l0.457-0.044l0.434,0.323h0.715
		l0.051-0.045c-0.072-0.242-0.152-0.478-0.242-0.709L40.432,23.886z M36.672,21.332l0.082-0.126l0.295-0.059l0.072,0.356
		l0.158,0.253l0.104,0.119l0.189,0.073l-0.178,0.212l-0.346,0.034h-0.262l0.031-0.309l0.215-0.044l-0.018-0.146l-0.201-0.127
		l-0.143-0.096V21.332z M36.189,21.891l0.18-0.286l0.24-0.057l0.172,0.074l-0.016,0.194l-0.367,0.26h-0.209V21.891z M31.328,22.991
		l-0.186,0.015l0.01-0.129l0.084-0.104l0.111,0.087L31.328,22.991z M31.982,22.763l-0.127,0.011l-0.027,0.123l-0.098,0.061
		l-0.156,0.013c-0.006-0.036-0.01-0.064-0.01-0.064h-0.061v-0.132h0.258l0.053-0.137l0.102-0.002l0.115,0.023L31.982,22.763z"/>
</g>
</svg>
