<?xml version="1.0" encoding="utf-8"?>
<!-- Generator: Adobe Illustrator 16.0.0, SVG Export Plug-In . SVG Version: 6.00 Build 0)  -->
<!DOCTYPE svg PUBLIC "-//W3C//DTD SVG 1.1//EN" "http://www.w3.org/Graphics/SVG/1.1/DTD/svg11.dtd">
<svg version="1.1" id="Layer_1" xmlns="http://www.w3.org/2000/svg" xmlns:xlink="http://www.w3.org/1999/xlink" x="0px" y="0px"
	 width="64px" height="64px" viewBox="0 0 64 64" enable-background="new 0 0 64 64" xml:space="preserve">
<g>
	<circle cx="31.493" cy="16.587" r="4.049"/>
	<path d="M32,50.105c-2.307,0-4.493-0.224-6.493-0.628c1.065,3.229,2.674,5.665,4.527,6.694c0.645,0.079,1.3,0.126,1.966,0.126
		s1.321-0.047,1.967-0.126c1.853-1.03,3.462-3.466,4.527-6.694C36.493,49.882,34.306,50.105,32,50.105z"/>
	<path d="M23.543,47.563c-0.486-2.162-0.757-4.56-0.757-7.101c0-2.186,0.2-4.266,0.565-6.182c-3.467,1.079-6.078,2.771-7.117,4.732
		c-0.044,0.479-0.068,0.961-0.068,1.45c0,0.866,0.072,1.717,0.206,2.546C17.512,44.903,20.124,46.53,23.543,47.563z"/>
	<path d="M47.766,39.013c-1.039-1.961-3.65-3.652-7.116-4.731c0.365,1.915,0.564,3.995,0.564,6.181c0,2.541-0.271,4.938-0.757,7.101
		c3.419-1.033,6.031-2.659,7.171-4.554c0.134-0.829,0.206-1.68,0.206-2.546C47.834,39.974,47.81,39.491,47.766,39.013z"/>
	<path d="M36.814,55.551c4.669-1.489,8.398-5.084,10.068-9.67c-1.669,1.378-4.019,2.495-6.824,3.233
		C39.289,51.771,38.172,53.988,36.814,55.551z"/>
	<path d="M17.117,45.881c1.671,4.586,5.399,8.181,10.069,9.67c-1.358-1.562-2.476-3.778-3.245-6.436
		C21.137,48.377,18.786,47.259,17.117,45.881z"/>
	<path d="M27.719,24.92c1.748,1.903,3.574,4.595,3.593,4.622l0.978,1.445l0.847-1.525c0.02-0.033,1.781-3.2,2.931-4.96
		c2.896-1.706,4.629-4.933,4.435-8.3c-0.285-4.941-4.522-8.763-9.529-8.486c-4.966,0.288-8.772,4.562-8.486,9.528
		C22.681,20.601,24.678,23.521,27.719,24.92z M31.096,9.857c0.136-0.008,0.271-0.012,0.405-0.012c3.637,0,6.649,2.847,6.859,6.481
		c0.152,2.636-1.246,5.161-3.563,6.432l-0.229,0.126l-0.146,0.218c-0.703,1.051-1.651,2.666-2.325,3.842
		c-0.764-1.045-1.87-2.485-2.961-3.647l-0.153-0.163l-0.205-0.088c-2.409-1.036-4-3.307-4.151-5.925
		C24.408,13.334,27.31,10.076,31.096,9.857z"/>
	<path d="M27.242,27.663c-0.805,1.291-1.495,2.88-2.015,4.698c1.552-0.33,3.22-0.548,4.971-0.638l-0.66-0.977
		C29.524,30.727,28.467,29.179,27.242,27.663z"/>
	<path d="M35.011,30.504l-0.7,1.258c1.563,0.104,3.063,0.302,4.462,0.599c-0.533-1.864-1.245-3.486-2.077-4.791
		C35.831,29.03,35.022,30.483,35.011,30.504z"/>
	<path d="M37.611,26.065c-0.037,0.06-0.077,0.124-0.116,0.186c1.197,1.676,2.167,3.891,2.814,6.482
		c2.909,0.797,5.312,2.006,6.946,3.49c-1.316-4.75-4.803-8.576-9.313-10.409C37.829,25.896,37.728,25.989,37.611,26.065z"/>
	<path d="M26.274,26.587c-0.301-0.159-0.587-0.335-0.868-0.518c-4.198,1.926-7.408,5.631-8.662,10.154
		c1.635-1.483,4.038-2.693,6.946-3.49C24.296,30.311,25.185,28.219,26.274,26.587z"/>
	<path d="M24.142,40.462c0,2.689,0.336,5.247,0.923,7.509c2.117,0.498,4.473,0.779,6.936,0.779c2.462,0,4.818-0.281,6.936-0.779
		c0.587-2.262,0.923-4.82,0.923-7.509c0-2.332-0.255-4.567-0.705-6.597c-1.718-0.419-3.602-0.689-5.573-0.787l-1.112,2l-1.366-2.02
		c-2.219,0.062-4.341,0.339-6.255,0.806C24.396,35.895,24.142,38.13,24.142,40.462z"/>
</g>
</svg>
