<?xml version="1.0" encoding="utf-8"?>
<!-- Generator: Adobe Illustrator 16.0.0, SVG Export Plug-In . SVG Version: 6.00 Build 0)  -->
<!DOCTYPE svg PUBLIC "-//W3C//DTD SVG 1.1//EN" "http://www.w3.org/Graphics/SVG/1.1/DTD/svg11.dtd">
<svg version="1.1" id="Layer_1" xmlns="http://www.w3.org/2000/svg" xmlns:xlink="http://www.w3.org/1999/xlink" x="0px" y="0px"
	 width="64px" height="64px" viewBox="0 0 64 64" enable-background="new 0 0 64 64" xml:space="preserve">
<g>
	<path d="M55.584,45.334V15.115H8.416v30.219h19.252v1.945H17.604v1.605h28.18v-1.605h-9.846v-1.945H55.584z M11.865,40.884V18.565
		h40.268v22.318H11.865z"/>
	<path d="M39.805,26.649L39.578,26.4l-0.045-0.399l-0.23,0.127l-0.125,0.488l-0.336-0.356l-0.014-0.338l-0.324-0.278l-0.119-0.119
		H38.01l0.119,0.335l0.451,0.252l0.078,0.084l-0.098,0.049l0.004,0.265l-0.219,0.092l-0.189-0.041l-0.117-0.167l0.307,0.018
		l0.082-0.111l-0.678-0.458l-0.053-0.194l-0.273,0.249l-0.279-0.058l-0.426,0.553l-0.084,0.216l-0.27,0.024l-0.404,0.003
		l-0.24-0.113l-0.07-0.477l0.088-0.228l0.408-0.09l0.445,0.09l0.055-0.247l-0.189-0.045l0.064-0.384l0.449-0.07l0.314-0.444
		l0.322-0.054l0.295,0.043h0.107l-0.061-0.416l-0.355,0.145l-0.123-0.312l-0.207-0.028l-0.039-0.215l0.168-0.183l0.4-0.157
		l0.104-0.183c-1.529-1.349-3.535-2.169-5.729-2.169c-1.904,0-3.666,0.617-5.1,1.661l0.438-0.003l0.195,0.108l0.367,0.079
		l0.029,0.145l0.586,0.021l-0.08-0.188l-0.52-0.015l0.121-0.115l-0.043-0.138h-0.467l0.51-0.382h0.492l0.229,0.317l0.383,0.021
		l0.232-0.223l0.172,0.086l-0.316,0.31c0,0-0.441,0.008-0.42,0.008s0.037,0.303,0.037,0.303l0.533-0.015l0.059-0.144l0.367-0.022
		l0.043-0.216l-0.217-0.037l0.072-0.194l0.166-0.05l0.578,0.029l-0.318,0.287l0.051,0.224l0.332,0.051l-0.021-0.404l0.316-0.165
		l0.563-0.064l0.816,0.359v0.311l0.26,0.065l-0.131,0.245h-0.367l-0.109,0.28l-0.842-0.197l0.662-0.353l-0.252-0.214l-0.57,0.072
		l-0.051,0.052l-0.002-0.001l-0.008,0.012l-0.164,0.171L30.508,23.2l0.021,0.135l0.096,0.039l-0.004,0.044L30.4,23.449l-0.016,0.128
		l-0.211,0.011l-0.039-0.253l-0.377,0.114l-0.775,0.453l0.088,0.319l0.215,0.141l0.434,0.06v0.491l0.199-0.032l0.184-0.383
		l0.461-0.146v-0.59l0.256-0.193l0.619,0.146l-0.045,0.39h0.166l0.455-0.224l0.021,0.512l0.332,0.201l-0.014,0.304l-0.318,0.108
		l0.021,0.101l0.383,0.174l-0.008,0.208l-0.111,0.01c0-0.004,0-0.006,0-0.006l-0.482-0.147l-0.021-0.155l0,0l0.141-0.097v-0.142
		l-0.152-0.038l-0.037,0.131l-0.266,0.041l-0.025-0.01v0.014l-0.092,0.014l-0.076-0.151l-0.086-0.038h-0.189l-0.086,0.07v0.157
		l0.16,0.054l0.16,0.023l-0.035,0.015l-0.146,0.162l-0.064-0.081l-0.141-0.037l-0.383,0.361l0.049,0.041l-0.566,0.314l-0.533,0.555
		l-0.037,0.248l-0.535,0.352l-0.266,0.267l0.029,0.533l-0.367-0.171l0.002-0.313H27.25l-0.529,0.269l-0.23,0.425l-0.092,0.336
		l0.148,0.327l0.418,0.051l0.664-0.444l0.059,0.221l-0.203,0.383l0.506,0.086l0.051,0.78l0.691,0.117l0.439-0.509l0.535,0.108
		l0.186,0.262l0.514-0.031l0.014-0.151l0.281,0.138l0.316,0.497l0.549,0.007l0.201,0.354l0.029,0.433l0.605,0.23l0.766,0.007
		l0.223,0.367l0.338,0.108l-0.064,0.305l-0.371,0.471l-0.107,1.044l-0.336,0.266l-0.496-0.015l-0.168,0.287l0.123,0.542
		l-0.541,0.692l-0.172,0.317l-0.518,0.247l-0.338,0.053l-0.014,0.143l0.238,0.069l-0.029,0.154l-0.213,0.206l0.129,0.163
		l0.256,0.007l-0.014,0.197l-0.068,0.195l-0.021,0.158l0.379,0.32l-0.051,0.166l-0.516-0.01l-0.514-0.449l-0.4-0.703l0.055-0.68
		l-0.301-0.404l0.123-0.684l-0.182-0.051v-1.486c0,0-0.504-0.382-0.533-0.382s-0.268-0.064-0.268-0.064l-0.049-0.281l-0.658-0.822
		l0.064-0.296l0.023-0.483l0.453-0.316l-0.064-0.542l-0.664-0.049l-0.518-0.593l-0.369-0.101l-0.236-0.044l0.027-0.215l-0.303-0.043
		v0.122l-0.756-0.188l-0.307-0.467l0.125-0.227l-0.48-0.699l-0.082-0.512h-0.193l0.064,0.497l0.33,0.513l-0.035,0.201l-0.281-0.043
		l-0.346-0.59v-0.686l-0.361-0.174v-0.494c-0.445,1.044-0.691,2.191-0.691,3.396c0,4.785,3.893,8.678,8.678,8.678
		c2.711,0,5.137-1.253,6.729-3.208h-0.285v-0.576l-0.33-0.447v-0.692l-0.254-0.253l-0.021-0.288l0.32-0.613l-0.609-1.074
		l0.072-0.729l-0.547-0.057l-0.203-0.202h-0.367l-0.188,0.173h-0.648l-0.023,0.058h-0.359l-0.83-0.943l0.008-0.736l0.137-0.05
		l0.051-0.282h-0.195l-0.078-0.295l0.959-0.692v-0.49l0.469-0.261l0.191,0.019h0.385l0.303-0.162l0.975-0.076v0.499l0.768,0.194
		l0.15,0.108h0.141v-0.271l0.445-0.043l0.42,0.314h0.693l0.049-0.045c-0.07-0.233-0.146-0.463-0.234-0.688L39.805,26.649z
		 M36.16,24.172l0.078-0.122l0.287-0.058l0.07,0.347l0.152,0.244l0.1,0.116l0.184,0.072l-0.172,0.205l-0.334,0.032h-0.254
		l0.029-0.299l0.209-0.044l-0.018-0.141l-0.195-0.121l-0.137-0.094V24.172z M35.691,24.714l0.174-0.278l0.232-0.055l0.168,0.074
		l-0.016,0.187l-0.357,0.252h-0.201V24.714z M30.977,25.78l-0.182,0.016l0.01-0.126l0.082-0.101l0.107,0.085L30.977,25.78z
		 M31.611,25.559l-0.125,0.011l-0.025,0.119l-0.094,0.06l-0.152,0.013c-0.006-0.036-0.01-0.063-0.01-0.063h-0.059v-0.128h0.25
		l0.051-0.132l0.1-0.002l0.111,0.023L31.611,25.559z"/>
</g>
</svg>
