<?xml version="1.0" encoding="utf-8"?>
<!-- Generator: Adobe Illustrator 16.0.0, SVG Export Plug-In . SVG Version: 6.00 Build 0)  -->
<!DOCTYPE svg PUBLIC "-//W3C//DTD SVG 1.1//EN" "http://www.w3.org/Graphics/SVG/1.1/DTD/svg11.dtd">
<svg version="1.1" id="Layer_1" xmlns="http://www.w3.org/2000/svg" xmlns:xlink="http://www.w3.org/1999/xlink" x="0px" y="0px"
	 width="64px" height="64px" viewBox="0 0 64 64" enable-background="new 0 0 64 64" xml:space="preserve">
<g>
	<path d="M29.209,43.688c1.458,0,2.876-0.174,4.236-0.497l-5.457-4.635l5.896-4.373l7.172,5.132
		c0.853-0.726,1.642-1.524,2.349-2.393h-0.603v-1.217l-0.698-0.941v-1.463l-0.534-0.531l-0.046-0.609l0.677-1.293l-1.284-2.266
		l0.152-1.538l-1.156-0.119l-0.425-0.427h-0.776l-0.396,0.364h-1.369L36.9,27.006H36.14l-1.749-1.992l0.015-1.552l0.289-0.106
		l0.107-0.594h-0.411l-0.167-0.624l2.023-1.459v-1.034l0.99-0.55l0.4,0.039h0.814l0.638-0.343l2.054-0.159v1.051l1.62,0.41
		l0.319,0.229h0.297v-0.572l0.936-0.09l0.89,0.662h1.46l0.103-0.094c-0.145-0.493-0.31-0.977-0.494-1.451l-0.954,0.015l-0.479-0.523
		l-0.092-0.844l-0.49,0.267l-0.263,1.032l-0.708-0.753l-0.028-0.712l-0.683-0.588l-0.253-0.25h-0.793l0.251,0.706l0.953,0.531
		l0.166,0.176l-0.206,0.104l0.008,0.559l-0.464,0.193l-0.397-0.086l-0.247-0.352l0.645,0.033l0.174-0.234l-1.429-0.963l-0.108-0.41
		l-0.581,0.524l-0.589-0.12l-0.896,1.163L38.635,18.7l-0.573,0.053l-0.848,0.006l-0.507-0.237l-0.149-1.007l0.182-0.479l0.863-0.189
		l0.94,0.189l0.114-0.521l-0.399-0.094l0.137-0.812l0.946-0.147l0.663-0.936l0.684-0.114l0.617,0.091h0.227l-0.124-0.878
		l-0.751,0.303l-0.264-0.655l-0.435-0.062l-0.082-0.45l0.356-0.387l0.844-0.33l0.218-0.388c-3.227-2.844-7.457-4.574-12.085-4.574
		c-4.016,0-7.731,1.304-10.754,3.506l0.924-0.008l0.411,0.229l0.774,0.166l0.061,0.305l1.232,0.045l-0.167-0.395l-1.095-0.03
		l0.258-0.243l-0.09-0.289h-0.99l1.08-0.807h1.034l0.486,0.67l0.808,0.045l0.485-0.472l0.366,0.183l-0.67,0.654
		c0,0-0.928,0.016-0.882,0.016s0.077,0.639,0.077,0.639l1.124-0.031l0.123-0.304l0.774-0.046l0.092-0.455l-0.457-0.078l0.152-0.41
		l0.351-0.106l1.217,0.062l-0.672,0.608l0.109,0.472l0.699,0.105l-0.046-0.852l0.669-0.35l1.188-0.137l1.718,0.761v0.653
		l0.548,0.137l-0.273,0.519h-0.776l-0.229,0.593l-1.772-0.42l1.394-0.741l-0.532-0.452l-1.202,0.152l-0.105,0.109l-0.003-0.002
		l-0.02,0.025l-0.346,0.36l-0.571,0.048l0.046,0.285l0.198,0.082l-0.007,0.095l-0.465,0.066l-0.034,0.269l-0.445,0.024l-0.08-0.536
		l-0.799,0.243l-1.632,0.955l0.184,0.672l0.456,0.297l0.912,0.127v1.036l0.422-0.068l0.389-0.81l0.97-0.308V12.7l0.539-0.406
		l1.305,0.307l-0.092,0.822h0.351l0.958-0.472l0.046,1.08l0.698,0.426L29.6,15.096l-0.669,0.229l0.045,0.212l0.807,0.366
		l-0.016,0.441l-0.234,0.02c0-0.007-0.001-0.012-0.001-0.012l-1.018-0.313l-0.043-0.327H28.47l0.297-0.203V15.21l-0.32-0.08
		l-0.078,0.274l-0.561,0.087l-0.057-0.02v0.027l-0.194,0.03l-0.158-0.319l-0.184-0.08h-0.399l-0.182,0.148v0.33l0.342,0.114
		l0.338,0.048l-0.076,0.032l-0.308,0.342l-0.136-0.171l-0.297-0.078l-0.811,0.762l0.105,0.087l-1.196,0.663l-1.126,1.172
		l-0.076,0.521l-1.13,0.741l-0.559,0.563l0.062,1.125l-0.776-0.36l0.006-0.659l-2.158,0.001l-1.117,0.566l-0.487,0.896l-0.191,0.709
		l0.314,0.688l0.881,0.106l1.399-0.936l0.123,0.465l-0.428,0.807l1.066,0.182l0.105,1.646l1.461,0.247l0.927-1.071l1.126,0.229
		l0.396,0.55l1.08-0.063l0.03-0.319l0.593,0.289l0.67,1.049l1.155,0.016l0.427,0.747l0.06,0.91l1.279,0.487l1.611,0.016l0.473,0.774
		l0.714,0.229l-0.138,0.641l-0.783,0.994l-0.229,2.203l-0.706,0.56l-1.05-0.032l-0.351,0.608l0.26,1.142l-1.141,1.46l-0.365,0.671
		l-1.088,0.521l-0.716,0.108l-0.029,0.304l0.502,0.145l-0.061,0.326l-0.45,0.434l0.273,0.344l0.541,0.016l-0.03,0.418l-0.144,0.41
		l-0.047,0.334l0.801,0.675l-0.106,0.35l-1.089-0.021l-1.084-0.946l-0.845-1.484l0.118-1.432l-0.64-0.853l0.26-1.444l-0.381-0.107
		v-3.132c0,0-1.064-0.808-1.125-0.808s-0.563-0.136-0.563-0.136l-0.107-0.594l-1.383-1.734l0.137-0.623l0.045-1.021l0.957-0.667
		l-0.137-1.143l-1.398-0.104l-1.095-1.248l-0.775-0.213l-0.502-0.092l0.06-0.456l-0.639-0.091v0.257l-1.597-0.395l-0.643-0.983
		l0.262-0.476l-1.012-1.477l-0.174-1.08h-0.411l0.138,1.049l0.699,1.08l-0.076,0.428l-0.593-0.091l-0.73-1.245V19.63l-0.76-0.366
		v-1.042c-0.94,2.201-1.462,4.622-1.462,7.163C10.905,35.478,19.117,43.688,29.209,43.688z M37.63,13.566l0.168-0.259l0.601-0.12
		l0.151,0.73l0.32,0.517l0.213,0.244l0.388,0.151l-0.364,0.434l-0.708,0.068h-0.532l0.06-0.632l0.442-0.091l-0.037-0.297
		l-0.412-0.259l-0.289-0.197V13.566z M36.642,14.708l0.366-0.585l0.492-0.114l0.352,0.151l-0.032,0.396l-0.752,0.531h-0.426V14.708z
		 M26.697,16.959l-0.381,0.032l0.021-0.265l0.171-0.213l0.229,0.18L26.697,16.959z M28.034,16.491l-0.261,0.022l-0.052,0.252
		l-0.201,0.125l-0.321,0.026c-0.011-0.075-0.019-0.132-0.019-0.132h-0.124v-0.271h0.523l0.109-0.278l0.208-0.005l0.238,0.05
		L28.034,16.491z"/>
	<path d="M48.211,42.333l-1.374,1.973l-3.928-1.728l-9.193-6.548l-3.396,2.415l6.377,5.479l-9.392,2.058l-7.145-3.84l-4.057,1.883
		l9.915,6.62l12.271,0.102l3.609,0.644l-1.483,2.129l4.883,3.399l7.796-11.185L48.211,42.333z M44.895,54.661l-2.219-1.546
		l5.938-8.523l2.221,1.547L44.895,54.661z"/>
</g>
</svg>
