<?xml version="1.0" encoding="utf-8"?>
<!-- Generator: Adobe Illustrator 16.0.0, SVG Export Plug-In . SVG Version: 6.00 Build 0)  -->
<!DOCTYPE svg PUBLIC "-//W3C//DTD SVG 1.1//EN" "http://www.w3.org/Graphics/SVG/1.1/DTD/svg11.dtd">
<svg version="1.1" id="Layer_1" xmlns="http://www.w3.org/2000/svg" xmlns:xlink="http://www.w3.org/1999/xlink" x="0px" y="0px"
	 width="64px" height="64px" viewBox="0 0 64 64" enable-background="new 0 0 64 64" xml:space="preserve">
<g>
	<polygon points="15.524,39.762 15.47,39.041 15.686,39.133 16.208,39.078 16.153,38.412 14.714,38.43 14.317,37.908 14.339,37.636 
		12.483,35.965 12.032,36.324 14.678,39.564 15.056,39.689 15.056,39.87 14.552,39.87 14.678,40.269 17.936,40.41 16.856,39.727 	
		"/>
	<polygon points="19.167,36.107 18.944,36.014 18.837,35.459 18.512,35.459 18.303,36.021 18.054,36.243 16.169,37.265 
		16.169,38.273 16.798,39.105 18.384,39.105 18.586,38.592 18.944,38.268 18.944,38.031 19.167,37.885 	"/>
	<polygon points="19.167,38.469 19.167,39.783 19.653,39.783 19.581,38.945 19.96,39.08 19.96,39.675 20.354,39.639 20.342,37.885 
		19.39,38.255 19.401,38.469 	"/>
	<polygon points="22.868,51.071 23.807,51.174 24.563,50.757 24.578,50.186 23.751,50.095 	"/>
	<polygon points="31.495,48.555 31.483,47.674 30.767,47.717 30.677,49.096 30.046,49.525 28.876,49.688 27.004,51.02 
		26.685,51.281 26.685,51.727 27.663,51.577 30.04,50.12 30.712,49.679 31.431,49.36 32.152,48.951 31.886,48.478 	"/>
	<polygon points="27.495,39.357 25.174,38.304 24.524,38.646 23.921,38.662 23.967,38.034 23.392,37.692 22.571,38.512 
		23.121,39.187 24.309,39.357 24.976,39.707 24.993,40.032 24.561,40.032 24.578,40.699 26.019,40.607 26.542,40.051 27.099,39.996 
		27.099,41.022 28.071,41.022 28.071,40.607 27.585,40.607 	"/>
	<polygon points="20.577,40.127 20.214,40.127 20.214,40.322 20.497,40.41 	"/>
	<rect x="18.512" y="40.41" width="0.433" height="0.24"/>
	<polygon points="19.423,40.41 19.167,40.65 19.167,40.86 19.565,40.819 19.565,40.65 19.835,40.65 19.835,40.441 20.03,40.41 
		20.03,40.205 19.599,40.205 	"/>
	<polygon points="20.874,40.342 20.831,40.591 20.28,40.65 20.253,40.65 20.253,41.029 20.673,41.029 20.673,40.84 21.104,40.84 
		21.104,40.617 21.407,40.65 21.368,40.269 	"/>
	<path d="M32,7.626C18.561,7.626,7.627,18.561,7.627,32S18.561,56.374,32,56.374S56.373,45.439,56.373,32S45.439,7.626,32,7.626z
		 M53.914,36.518l-0.1-0.037l-0.073-1.08l-0.504-0.883l-1.367-0.019l-0.793-1.241l-0.701-0.342l-0.036,0.378l-1.278,0.075
		l-0.469-0.651l-1.331-0.271l-1.099,1.27l-1.729-0.293l-0.126-1.948l-1.261-0.216l0.506-0.954l-0.146-0.55l-1.657,1.107
		l-1.042-0.127l-0.372-0.814l0.228-0.84l0.575-1.06l1.322-0.67l2.557-0.001l-0.008,0.779l0.918,0.428l-0.072-1.332l0.661-0.666
		l1.337-0.877l0.09-0.617l1.333-1.387l1.417-0.784l-0.126-0.103l0.96-0.903l0.352,0.093l0.16,0.203l0.038-0.043
		c1.467,2.977,2.295,6.321,2.295,9.857C54.373,33.547,54.215,35.059,53.914,36.518z M42.765,17.758c0,0,0.473-0.081,0.514-0.081
		c0.04,0,0,0.472,0,0.472l-1.066,0.068l-0.203-0.244L42.765,17.758z M42.009,17.137v-0.432v-0.041h0.473l0.041-0.162h0.773v0.338
		l-0.221,0.297H42.009z M44.007,20.241l0.567-0.27l0.513,0.122l-0.176,0.688l-0.554,0.176L44.007,20.241z M51.793,21.586
		l-0.103-0.034v-0.165C51.726,21.451,51.758,21.52,51.793,21.586z M48.666,23.199v0.419h-0.689l-0.188-0.272v-0.391h0.055
		L48.666,23.199z M48.03,22.623l0.195-0.207l0.332,0.207l-0.265,0.218L48.03,22.623z M48.624,20.984v-1.229l-1.078-0.148
		l-0.541-0.352l-0.217-0.796l1.932-1.13l0.12-0.037c0.642,0.734,1.239,1.509,1.782,2.322l-1.039,0.33l-0.46,0.959L48.624,20.984z
		 M47.288,23.125l-0.404,0.074c0,0,0-0.648,0-0.716h0.729v0.432L47.288,23.125z M47.45,23.346v0.42l-0.311,0.311H46.45l0.108-0.473
		l0.325-0.026l0.067-0.162L47.45,23.346z M47.247,22.308v-0.514l0.446,0.406L47.247,22.308z M48.027,16.412l-1.162,0.031
		c0,0-0.036-0.756-0.09-0.756c-0.027,0,0.236-0.004,0.505-0.01C47.535,15.917,47.784,16.162,48.027,16.412z M46.829,21.605v0.257
		h0.188v0.445h-1.295l-0.485-0.135l0.12-0.311l0.622-0.257H46.829z M46.648,15.184l-0.145-0.199
		c0.079,0.068,0.157,0.136,0.235,0.205L46.648,15.184z M45.735,22.483h0.715l-0.917,1.282l-0.379-0.203l0.082-0.539L45.735,22.483z
		 M32,54.374c-5.761,0-11.019-2.189-14.989-5.778l2.311-0.795l2.336-0.094l0.864,1.901l2.652,0.092l2.556-2.403l0.63-1.438
		l-0.261-1.063l-0.971-0.831l-0.072-1.584l-0.641-1.098l-0.575-0.026l-0.235,1.988l-1.1-0.081l-0.307-0.186l-0.039-0.789
		l0.583,0.119l0.491-0.479l-1.045-0.628H22.96l-0.883,1.252h-0.36v-0.396l-1.058,0.08l-1.674,1.907l-0.888,0.012l-0.989,0.684
		l-0.072,2.951l-0.484,0.47C12.29,44.085,9.627,38.35,9.627,32c0-0.282,0.011-0.563,0.021-0.842l1.222,0.117l1.943,1.727v2.484
		l2.566,2.457l0.135-0.432l-2.08-2.971l0.217-0.863l1.1,1.246l0.611,0.063l0.807-0.536l-0.133-0.811l-1.332-1.07l-0.055-0.973
		l0.38-0.512l0.675,0.215l-0.055,0.46l0.387,0.593l0.342-0.242l-0.188-0.702l1.889-0.677l0.829-0.691l-0.126-1.252l-1.646-1.727
		l-0.027-1.404h0.729l2.268,1.729l0.64-0.172l-0.423-0.558l-1.215-0.738l0.072-1.097l1.439,0.001l0.117-1.36l-0.549-0.723
		l0.324-0.351l0.701,0.703l0.225-0.298l-0.899-1.026l-2.241-0.271l-0.297-0.593l0.648-0.919l0.513,0.378l1.538,0.136l1.945-1.297
		l0.324,0.406l-0.434,0.675v0.675l1.783,1.457l0.568-0.296l-0.217-0.972l-1.268-1.188l1.672-0.108v-0.486l0.811-0.162l-0.621-0.428
		l0.027-0.328l1.701,0.275l0.324-0.275l-2.296-0.972l-8.37-0.433l-0.783-0.395l-0.104-0.016C19.843,12.322,25.61,9.626,32,9.626
		c5.194,0,9.977,1.784,13.778,4.766h-0.93l-1.278,0.954h1.171l0.107,0.342l-0.306,0.288l1.296,0.036l0.198,0.467l-1.459-0.053
		l-0.071-0.36l-0.918-0.198l-0.486-0.27l-2.16,0.018l-0.666,0.648l-0.45-0.036l-0.503-0.288l-1.496-0.45h-2.736l-1.584,1.079
		l-1.061,0.164l-0.487,0.377l0.756,0.113v0.301h-1.62l-0.63,0.449l0.81,0.686l2.215,0.018l0.307-0.324h1.854l0.666,0.594
		l-0.035,0.919l0.558,0.522l-0.468,0.332l0.107,1.215l-1.674,2.035v1.908l0.9,0.432v1.714l0.863,1.474l0.702,0.107l0.09-0.504
		l-0.827-1.279l-0.162-1.241h0.486l0.205,1.278l1.197,1.746l-0.31,0.564l0.761,1.164l1.891,0.468v-0.307l0.756,0.108l-0.072,0.539
		l0.594,0.109l0.918,0.251l1.297,1.478l1.656,0.125l0.161,1.35l-1.134,0.793l-0.054,1.207l-0.161,0.736l1.638,2.054l0.126,0.701
		c0,0,0.594,0.161,0.666,0.161s1.332,0.955,1.332,0.955v3.709l0.451,0.127l-0.201,1.117C44.477,51.531,38.564,54.374,32,54.374z"/>
</g>
</svg>
