<?xml version="1.0" encoding="utf-8"?>
<!-- Generator: Adobe Illustrator 16.0.0, SVG Export Plug-In . SVG Version: 6.00 Build 0)  -->
<!DOCTYPE svg PUBLIC "-//W3C//DTD SVG 1.1//EN" "http://www.w3.org/Graphics/SVG/1.1/DTD/svg11.dtd">
<svg version="1.1" id="Layer_1" xmlns="http://www.w3.org/2000/svg" xmlns:xlink="http://www.w3.org/1999/xlink" x="0px" y="0px"
	 width="64px" height="64px" viewBox="0 0 64 64" enable-background="new 0 0 64 64" xml:space="preserve">
<path d="M56.365,31.627c-0.034-2.238-0.372-4.404-0.974-6.461c-0.222-0.758-0.479-1.5-0.771-2.227
	c-0.593-1.475-1.325-2.879-2.183-4.195c-0.389-0.598-0.803-1.176-1.24-1.734c-1.201-1.535-2.58-2.92-4.108-4.129
	c-0.522-0.414-1.061-0.809-1.617-1.18c-3.861-2.572-8.494-4.074-13.473-4.074c-4.407,0-8.541,1.182-12.111,3.236
	c-0.586,0.336-1.159,0.695-1.714,1.078c-1.569,1.086-3.006,2.348-4.279,3.762c-0.491,0.545-0.961,1.111-1.401,1.699
	c-1.221,1.629-2.24,3.414-3.027,5.318c-0.301,0.729-0.567,1.475-0.798,2.236c-0.619,2.045-0.972,4.201-1.026,6.432
	C7.637,31.594,7.626,31.795,7.626,32c0,0.746,0.039,1.48,0.104,2.209c0.245,2.717,0.939,5.303,2.005,7.691
	c0.553,1.238,1.204,2.426,1.948,3.545c4.369,6.58,11.843,10.928,20.315,10.928c8.055,0,15.205-3.928,19.646-9.967
	c0.776-1.057,1.467-2.178,2.067-3.354c1.348-2.637,2.233-5.545,2.54-8.623c0.079-0.799,0.121-1.609,0.121-2.43
	C56.374,31.875,56.366,31.752,56.365,31.627z M31.999,9.627c4.531,0,8.75,1.357,12.278,3.684c-2.368,2.498-6.585,4.17-11.399,4.17
	c-5.257,0-9.804-1.992-12.004-4.879C24.153,10.713,27.95,9.627,31.999,9.627z M19.204,13.662c2.573,3.451,7.732,5.818,13.674,5.818
	c5.464,0,10.262-2.004,13.001-5.01c1.538,1.221,2.916,2.637,4.088,4.215c-3.411,3.914-9.786,6.561-17.089,6.561
	c-7.979,0-14.85-3.156-17.956-7.678C16.174,16.09,17.613,14.775,19.204,13.662z M13.661,19.207
	c3.647,4.775,10.892,8.039,19.217,8.039c7.63,0,14.35-2.742,18.229-6.877c0.833,1.365,1.52,2.828,2.049,4.363
	c-4.391,4.66-12.177,7.77-21.038,7.77c-8.976,0-16.854-3.188-21.212-7.949C11.583,22.637,12.516,20.844,13.661,19.207z
	 M32.117,34.502c8.89,0,16.778-3.004,21.66-7.615c0.386,1.643,0.597,3.354,0.597,5.113c0,0.504-0.022,1-0.056,1.496
	c-5.294,4.256-13.281,6.973-22.201,6.973c-9.064,0-17.16-2.807-22.451-7.182c-0.025-0.426-0.04-0.855-0.04-1.287
	c0-1.826,0.225-3.6,0.64-5.299C15.13,31.416,23.109,34.502,32.117,34.502z M31.999,54.373c-6.375,0-12.131-2.684-16.209-6.975
	c4.938,1.99,10.677,3.139,16.803,3.139c5.36,0,10.424-0.881,14.916-2.434C43.483,51.98,38.017,54.373,31.999,54.373z M50.286,44.869
	c-5.039,2.311-11.133,3.668-17.693,3.668c-7.354,0-14.119-1.707-19.471-4.551c-1.524-2.393-2.605-5.09-3.131-7.982
	c5.609,3.982,13.453,6.465,22.126,6.465c8.533,0,16.267-2.4,21.856-6.27C53.367,39.377,52.087,42.318,50.286,44.869z"/>
</svg>
