<?xml version="1.0" encoding="utf-8"?>
<!-- Generator: Adobe Illustrator 16.0.0, SVG Export Plug-In . SVG Version: 6.00 Build 0)  -->
<!DOCTYPE svg PUBLIC "-//W3C//DTD SVG 1.1//EN" "http://www.w3.org/Graphics/SVG/1.1/DTD/svg11.dtd">
<svg version="1.1" id="Layer_1" xmlns="http://www.w3.org/2000/svg" xmlns:xlink="http://www.w3.org/1999/xlink" x="0px" y="0px"
	 width="64px" height="64px" viewBox="0 0 64 64" enable-background="new 0 0 64 64" xml:space="preserve">
<g>
	<path d="M18.146,28.737l0.619-0.566v-0.892l-0.504-0.38l-1.71,0.029l-0.566-0.621l-0.108-1l-0.58,0.316l-0.312,1.223l-0.837-0.893
		l-0.034-0.842l-0.809-0.695l-0.298-0.297h-0.938l0.297,0.836l1.128,0.629l0.196,0.207l-0.244,0.123l0.011,0.662l-0.551,0.229
		l-0.469-0.104l-0.293-0.415l0.762,0.041l0.207-0.277l-1.691-1.142l-0.129-0.485l-0.688,0.621l-0.066-0.014
		c-0.197,0.6-0.369,1.21-0.516,1.831l1.587-0.123v1.242l1.918,0.486l0.377,0.27h0.353v-0.676l1.107-0.107l1.053,0.783H18.146z"/>
	<path d="M54.168,32.001c0-4.677-1.444-9.021-3.907-12.614l-0.441,0.088v0.486l-1.673,0.108l1.268,1.188l0.217,0.973l-0.567,0.297
		l-1.783-1.457v-0.676l0.433-0.676l-0.323-0.404l-1.945,1.296l-1.539-0.136l-0.513-0.377l-0.647,0.918l0.297,0.594l2.24,0.27
		l0.9,1.026l-0.225,0.298l-0.702-0.703l-0.324,0.351l0.549,0.724l-0.117,1.359l-1.439-0.002l-0.072,1.098l1.216,0.738l0.422,0.557
		l-0.639,0.172l-2.268-1.729h-0.729l0.027,1.404l1.646,1.729l0.126,1.251l-0.828,0.692l-1.889,0.676l0.188,0.702l-0.343,0.243
		l-0.386-0.594l0.055-0.459l-0.676-0.217l-0.379,0.513l0.055,0.973l1.331,1.071l0.134,0.81l-0.807,0.536l-0.612-0.064l-1.1-1.246
		l-0.216,0.865l2.079,2.971l-0.135,0.43l-2.565-2.455v-2.485l-1.943-1.728l-1.549-0.148l-0.879,0.328l-0.543,1.17l-0.291,2.174
		l-0.525,0.763l-0.527-0.122l-1.634-2.686l0.096-0.992v-0.729l-0.745-0.471l-3.188-0.521l-1.469-0.071l-1.285-0.739l-0.09-0.774
		h-0.612c0,0-0.017,1.063-0.017,1.121c0,0.059,2.772,1.365,2.772,1.365l0.79,0.103l0.014,0.595l-0.742,0.484l-2.367,1.715
		l-1.135,0.073l-0.557-0.559l-0.059-0.905l-2.409-2.926l-0.171,0.199l2.43,4.578l0.596,0.297l2.313-0.488l0.432,0.199l-2.226,3.184
		l-2.022,1.93l0.451,0.794l0.215,2.14l-1.026,1.404l-0.485,0.576v0.863l-0.738,0.163l-0.576,1.026l-1.565,1.612
		c4.024,3.876,9.488,6.265,15.503,6.265c5.752,0,11.003-2.182,14.97-5.762l-0.361-0.796l-2.335,0.094l-2.881,0.99v-0.522
		l0.595-0.576l0.072-2.952l0.989-0.684l0.888-0.012l1.675-1.907l1.057-0.08v0.396h0.36l0.883-1.253h1.229l1.045,0.629l-0.491,0.479
		L48.905,42.3l0.038,0.788l0.308,0.185l1.1,0.082l0.234-1.988l0.575,0.027l0.507,0.867c0.192-0.371,0.373-0.747,0.545-1.129h0.605
		v-0.414h-0.418C53.538,38.037,54.168,35.091,54.168,32.001z"/>
	<path d="M18.522,18.099l-0.377,0.323l-1.837,0.081l0.08,0.387l1.757,0.05l0.72-0.563l0.251-0.665l0.344-0.09l0.208,0.603
		l1.375-0.639l2.88,0.188l-0.242-0.594l0.188-0.729l0.812,0.199l0.269,0.422l0.162,1.216l0.721-0.216l-0.018-1.215l2.343-1.048
		l3.084-0.195l1.541,0.919h3.32l1.127,0.836l0.358,0.028l0.847-0.856l0.935,0.032l1.244,0.185l0.782,0.396l7.45,0.385
		c-4.107-4.836-10.226-7.912-17.051-7.912c-6.622,0-12.578,2.895-16.678,7.481l1.192-0.036L18.522,18.099z"/>
	<path d="M12.024,21.542c-0.055,0.102-0.106,0.205-0.159,0.309h0.203L12.024,21.542z"/>
	<polygon points="22.095,26.36 22.031,26.649 22.923,26.712 23.031,26.882 23.599,26.929 23.843,26.694 23.843,26.316 
		23.365,25.965 23.365,25.425 22.258,24.687 22.304,24.286 23.186,24.335 23.157,23.903 22.536,23.644 21.809,23.706 21.628,24.12 
		21.664,24.956 22.564,25.614 22.564,25.954 	"/>
	<polygon points="18.506,24.405 18.201,24.254 18.039,24.509 17.295,24.595 16.956,24.7 16.643,25.053 16.643,26.009 17.062,25.952 
		18.462,26.009 19.435,26.009 19.362,25.611 18.548,25.276 	"/>
	<polygon points="13.878,21.729 14.734,20.454 14.695,19.874 14.087,19.59 14.087,19.157 15.16,18.503 15.16,18.07 14.815,18.07 
		13.722,18.833 13.236,19.171 13.234,19.519 13.229,20.935 12.299,21.406 12.393,21.716 	"/>
	<path d="M11.519,36.72l-1.367-0.143l-0.319-0.319c0.438,2.267,1.216,4.415,2.285,6.384l0.743-1.42l-1.521-2.682L11.519,36.72z"/>
</g>
</svg>
