<?xml version="1.0" encoding="utf-8"?>
<!-- Generator: Adobe Illustrator 16.0.0, SVG Export Plug-In . SVG Version: 6.00 Build 0)  -->
<!DOCTYPE svg PUBLIC "-//W3C//DTD SVG 1.1//EN" "http://www.w3.org/Graphics/SVG/1.1/DTD/svg11.dtd">
<svg version="1.1" id="Layer_1" xmlns="http://www.w3.org/2000/svg" xmlns:xlink="http://www.w3.org/1999/xlink" x="0px" y="0px"
	 width="64px" height="64px" viewBox="0 0 64 64" enable-background="new 0 0 64 64" xml:space="preserve">
<path d="M42.475,9.996c-0.047-0.052-0.084-0.092-0.1-0.106l-0.041,0.042C39.193,8.456,35.691,7.626,32,7.626
	c-0.543,0-1.078,0.024-1.611,0.059l-0.002-0.001v0.001C17.697,8.52,7.627,19.103,7.627,32c0,13.44,10.934,24.374,24.373,24.374
	S56.373,45.44,56.373,32C56.373,22.308,50.688,13.921,42.475,9.996z M52.297,41.4c-0.559,0.472-2.234,1.735-5.244,2.937
	c0.563-2.031,1.039-4.391,1.314-7.145c2.748-0.813,4.65-1.703,5.82-2.355C53.893,37.153,53.244,39.359,52.297,41.4z M9.844,35.086
	c1.293,0.638,3.219,1.438,5.854,2.173c0.273,2.689,0.746,5.015,1.311,7.021c-3.098-1.232-4.814-2.513-5.33-2.939
	C10.777,39.389,10.15,37.289,9.844,35.086z M11.414,23.359c0.031-0.03,1.715-1.602,5.396-3.084
	c-0.553,2.158-0.984,4.706-1.207,7.626c-2.738,0.793-4.68,1.654-5.896,2.288c0.193-2.416,0.768-4.727,1.672-6.867L11.414,23.359z
	 M54.287,30.093c-1.215-0.657-3.119-1.517-5.816-2.298c-0.207-2.848-0.617-5.325-1.145-7.439c3.434,1.389,5.113,2.816,5.303,2.985
	C53.516,25.448,54.086,27.719,54.287,30.093z M31.891,54.188c-0.305-0.431-1.404-2.135-2.482-5.381
	c0.877,0.043,1.785,0.066,2.73,0.066c0.734,0,1.428-0.025,2.121-0.052C33.324,51.72,32.359,53.452,31.891,54.188z M32.139,46.874
	c-1.176,0-2.275-0.049-3.342-0.117c-0.559-2.07-1.057-4.602-1.379-7.642c1.457,0.089,2.979,0.15,4.617,0.15
	c1.461,0,2.838-0.042,4.146-0.113c-0.309,3.029-0.789,5.569-1.334,7.651C33.979,46.848,33.078,46.874,32.139,46.874z M32.035,37.265
	c-1.709,0-3.295-0.066-4.803-0.166c-0.117-1.603-0.188-3.318-0.188-5.175c0-1.393,0.049-2.693,0.115-3.951
	c1.617-0.117,3.338-0.189,5.193-0.189c1.43,0,2.756,0.051,4.033,0.122c0.082,1.373,0.139,2.8,0.139,4.337
	c0,1.748-0.066,3.361-0.172,4.883C34.992,37.208,33.572,37.265,32.035,37.265z M9.641,32.527c0.719-0.439,2.633-1.477,5.844-2.473
	c-0.023,0.647-0.049,1.291-0.049,1.973c0,1.073,0.037,2.092,0.094,3.08c-3.035-0.91-4.963-1.87-5.885-2.396
	C9.643,32.649,9.641,32.588,9.641,32.527z M17.436,32.027c0-0.878,0.023-1.723,0.063-2.541c2.109-0.541,4.652-1.019,7.646-1.332
	c-0.059,1.205-0.1,2.447-0.1,3.77c0,1.786,0.061,3.449,0.166,5.008c-2.967-0.291-5.514-0.743-7.631-1.264
	C17.496,34.512,17.436,33.314,17.436,32.027z M38.4,28.044c3.242,0.282,5.957,0.767,8.17,1.328c0.035,0.783,0.059,1.586,0.059,2.427
	c0,1.352-0.063,2.608-0.15,3.818c-2.189,0.567-4.877,1.063-8.1,1.359c0.094-1.479,0.146-3.053,0.146-4.733
	C38.525,30.76,38.475,29.379,38.4,28.044z M48.584,29.942c3.104,0.967,4.939,1.989,5.705,2.477c-0.449,0.316-2.273,1.488-5.76,2.604
	c0.061-1.033,0.1-2.098,0.1-3.225C48.629,31.156,48.604,30.553,48.584,29.942z M46.426,27.259c-2.262-0.534-4.967-0.987-8.16-1.245
	c-0.264-3.134-0.709-5.813-1.232-8.084c3.18,0.32,5.826,0.915,7.99,1.598C45.641,21.647,46.158,24.208,46.426,27.259z
	 M36.516,15.882c-0.793-2.84-1.666-4.864-2.322-6.147c2.492,0.244,4.863,0.902,7.051,1.898c0.557,0.687,1.834,2.474,3.01,5.57
	C42.078,16.613,39.506,16.135,36.516,15.882z M31.848,9.63c0.488,0.819,1.537,2.815,2.523,6.109c-0.797-0.035-1.611-0.06-2.461-0.06
	c-0.975,0-1.91,0.025-2.811,0.07c0.896-3.098,1.871-5.106,2.432-6.112C31.637,9.636,31.742,9.63,31.848,9.63z M31.91,17.68
	c1.053,0,2.051,0.037,3.016,0.092c0.551,2.231,1.025,4.936,1.313,8.112c-1.23-0.063-2.52-0.1-3.885-0.1
	c-1.803,0-3.475,0.069-5.061,0.176c0.268-3.189,0.73-5.905,1.268-8.163C29.629,17.729,30.73,17.68,31.91,17.68z M25.264,26.128
	c-2.934,0.287-5.475,0.726-7.613,1.237c0.287-3.128,0.84-5.758,1.492-7.924c2.002-0.621,4.436-1.156,7.314-1.469
	C25.943,20.275,25.508,22.969,25.264,26.128z M17.779,37.783c2.15,0.494,4.676,0.914,7.596,1.18
	c0.293,2.975,0.754,5.498,1.283,7.612c-2.859-0.313-5.291-0.846-7.301-1.465C18.697,43.105,18.125,40.666,17.779,37.783z
	 M27.234,48.647c0.816,2.665,1.697,4.489,2.326,5.591c-2.219-0.242-4.342-0.807-6.316-1.65c-0.395-0.45-1.713-2.096-3.002-5.126
	C22.242,47.982,24.572,48.404,27.234,48.647z M36.42,48.693c2.848-0.227,5.328-0.654,7.428-1.199
	c-1.244,2.992-2.502,4.59-2.828,4.974c-2.131,0.943-4.432,1.565-6.848,1.798C34.809,53.104,35.646,51.283,36.42,48.693z
	 M36.973,46.647c0.518-2.127,0.967-4.66,1.246-7.637c3.154-0.268,5.824-0.726,8.059-1.261c-0.35,2.932-0.924,5.396-1.58,7.416
	C42.596,45.808,40.037,46.356,36.973,46.647z M50.654,19.667c-1.064-0.564-2.398-1.163-4.014-1.727
	c-0.543-1.669-1.135-3.054-1.705-4.179C47.186,15.362,49.127,17.364,50.654,19.667z M26.963,15.908
	c-2.686,0.247-5.023,0.676-7.021,1.205c1.281-3.298,2.641-5.095,3.051-5.587c1.936-0.854,4.014-1.44,6.188-1.715
	C28.523,11.155,27.705,13.168,26.963,15.908z M19.305,13.59c-0.586,1.131-1.205,2.544-1.777,4.262
	c-1.693,0.583-3.078,1.21-4.174,1.8C14.936,17.273,16.957,15.214,19.305,13.59z M13.869,45.086c1.063,0.542,2.367,1.106,3.924,1.634
	c0.553,1.519,1.139,2.787,1.695,3.82C17.311,49.066,15.41,47.215,13.869,45.086z M44.727,50.386
	c0.516-0.989,1.055-2.191,1.568-3.631c1.477-0.503,2.732-1.042,3.76-1.563C48.58,47.205,46.779,48.962,44.727,50.386z"/>
</svg>
