<?xml version="1.0" encoding="utf-8"?>
<!-- Generator: Adobe Illustrator 16.0.0, SVG Export Plug-In . SVG Version: 6.00 Build 0)  -->
<!DOCTYPE svg PUBLIC "-//W3C//DTD SVG 1.1//EN" "http://www.w3.org/Graphics/SVG/1.1/DTD/svg11.dtd">
<svg version="1.1" id="Layer_1" xmlns="http://www.w3.org/2000/svg" xmlns:xlink="http://www.w3.org/1999/xlink" x="0px" y="0px"
	 width="64px" height="64px" viewBox="0 0 64 64" enable-background="new 0 0 64 64" xml:space="preserve">
<g>
	<path d="M56.373,32C56.373,18.562,45.439,7.627,32,7.626h-0.002C18.559,7.626,7.625,18.561,7.625,32
		c0,0.056,0.004,0.109,0.006,0.165c-0.002,0.028-0.006,0.057-0.006,0.086c0,0.093,0.01,0.184,0.014,0.275
		C7.92,45.71,18.715,56.351,31.959,56.372c0.014,0,0.027,0.002,0.041,0.002s0.029-0.002,0.043-0.002
		c13.244-0.024,24.035-10.664,24.318-23.846c0.002-0.092,0.012-0.183,0.012-0.275c0-0.029-0.004-0.058-0.004-0.086
		C56.369,32.109,56.373,32.056,56.373,32z M53.705,26.576c-2.324-2.302-6.041-4.162-10.627-5.317
		c-1.135-4.684-2.998-8.488-5.316-10.876C45.588,12.471,51.736,18.703,53.705,26.576z M33,9.738
		c3.303,0.729,6.203,5.023,7.852,11.029c-2.441-0.467-5.08-0.744-7.852-0.798V9.738z M31,9.738V19.97
		c-2.771,0.054-5.41,0.331-7.85,0.797C24.797,14.761,27.697,10.468,31,9.738z M26.238,10.382c-2.318,2.388-4.182,6.192-5.316,10.877
		c-4.586,1.155-8.303,3.015-10.629,5.317C12.262,18.702,18.412,12.469,26.238,10.382z M20.451,23.486
		c-0.455,2.492-0.711,5.188-0.738,8.015H9.695C10.248,28.153,14.461,25.191,20.451,23.486z M19.73,33.501
		c0.078,2.663,0.363,5.195,0.824,7.543c-5.744-1.615-9.873-4.383-10.75-7.543H19.73z M10.48,38.112
		c2.361,2.239,6.053,4.044,10.58,5.165c1.143,4.438,2.949,8.044,5.178,10.34C18.641,51.591,12.629,45.659,10.48,38.112z M31,54.262
		c-3.205-0.707-6.029-4.771-7.699-10.498c2.396,0.449,4.984,0.715,7.699,0.768V54.262z M31,42.532
		c-2.92-0.063-5.713-0.398-8.264-0.95c-0.561-2.489-0.91-5.222-1.002-8.081l-0.021-2c0.031-3.022,0.355-5.918,0.912-8.559
		c2.58-0.566,5.412-0.91,8.375-0.974h2c2.963,0.063,5.795,0.408,8.375,0.974c0.557,2.641,0.881,5.536,0.912,8.559l-0.021,2
		c-0.092,2.858-0.441,5.592-1.002,8.081c-2.551,0.552-5.344,0.887-8.264,0.95H31z M33,54.262v-9.73
		c2.715-0.053,5.303-0.319,7.701-0.768C39.029,49.49,36.205,53.554,33,54.262z M37.764,53.616c2.229-2.296,4.033-5.902,5.178-10.339
		c4.525-1.122,8.217-2.926,10.576-5.165C51.371,45.658,45.359,51.59,37.764,53.616z M43.445,41.044
		c0.461-2.348,0.746-4.881,0.824-7.543h9.924C53.318,36.66,49.189,39.429,43.445,41.044z M44.287,31.501
		c-0.027-2.826-0.283-5.521-0.738-8.015c5.99,1.705,10.201,4.667,10.756,8.015H44.287z"/>
	<path d="M36.465,37.779v-3.176c-0.865,0.569-1.656,0.854-2.373,0.854c-1.082,0-1.832-0.512-2.254-1.536h2.289l0.631-1.52h-3.227
		c-0.012-0.057-0.018-0.113-0.018-0.171c0-0.068,0-0.143,0-0.222c0-0.068,0-0.131,0-0.188c0-0.057,0.006-0.113,0.018-0.17h3.518
		l0.631-1.52h-3.875c0.432-1.048,1.143-1.571,2.133-1.571c0.65,0,1.316,0.222,1.998,0.666l1.213-2.578
		c-1.207-0.638-2.352-0.956-3.432-0.956c-1.367,0-2.539,0.404-3.518,1.212c-0.957,0.785-1.617,1.861-1.98,3.228h-0.734l-0.631,1.52
		h1.143c-0.012,0.045-0.016,0.103-0.016,0.17c0,0.058,0,0.126,0,0.205c0,0.08,0,0.154,0,0.223c0,0.057,0.004,0.107,0.016,0.153
		H27.52l-0.633,1.52h1.332c0.354,1.332,1.002,2.401,1.945,3.21c0.957,0.785,2.117,1.178,3.484,1.178
		C34.74,38.309,35.68,38.132,36.465,37.779z"/>
</g>
</svg>
