<?xml version="1.0" encoding="utf-8"?>
<!-- Generator: Adobe Illustrator 16.0.0, SVG Export Plug-In . SVG Version: 6.00 Build 0)  -->
<!DOCTYPE svg PUBLIC "-//W3C//DTD SVG 1.1//EN" "http://www.w3.org/Graphics/SVG/1.1/DTD/svg11.dtd">
<svg version="1.1" id="Layer_1" xmlns="http://www.w3.org/2000/svg" xmlns:xlink="http://www.w3.org/1999/xlink" x="0px" y="0px"
	 width="64px" height="64px" viewBox="0 0 64 64" enable-background="new 0 0 64 64" xml:space="preserve">
<path d="M44.022,9.553c-4.424,0-8.557,2.172-11.056,5.809l-0.964,1.405l-0.966-1.405c-2.502-3.638-6.636-5.809-11.058-5.809
	c-7.426,0-13.466,6.042-13.466,13.469c0,7.774,12.71,20.906,24.58,30.583l0.909,0.842l0.794-0.746
	c11.937-9.703,24.69-22.858,24.69-30.679C57.487,15.595,51.447,9.553,44.022,9.553z M10.147,20.09h5.016
	c-0.697,2.272-1.173,4.93-1.173,7.994c0,0.994,0.032,1.907,0.087,2.758h-0.73c-2.235-3.096-3.631-5.84-3.631-7.82
	C9.715,22.003,9.87,21.02,10.147,20.09z M30.23,22.74l0.014,0.486h0.733v7.616h-7.309c0.339-4.75,1.91-8.339,3.398-10.752h2.723
	C30.045,20.936,30.205,21.822,30.23,22.74z M33.767,22.738c0.026-0.918,0.186-1.803,0.442-2.647h3.905
	c1.593,2.36,3.227,5.919,3.5,10.752h-8.638v-7.618h0.775L33.767,22.738z M44.225,12.769c0.889,0.938,2.189,2.653,3.18,5.321h-8.236
	c-0.845-1.121-1.639-1.945-2.206-2.47c1.851-1.768,4.345-2.862,7.06-2.862C44.09,12.758,44.157,12.767,44.225,12.769z
	 M54.285,23.022c0,1.977-1.399,4.721-3.639,7.82h-0.065c0.141-1.281,0.228-2.697,0.228-4.293c0-2.474-0.287-4.604-0.726-6.459h3.771
	C54.13,21.02,54.285,22.003,54.285,23.022z M43.616,30.842c-0.238-4.619-1.603-8.182-3.117-10.752h7.533
	c0.466,1.807,0.776,3.939,0.776,6.459c0,1.623-0.095,3.033-0.241,4.293H43.616z M16.084,30.842C16.028,30,15.99,29.098,15.99,28.084
	c0-3.105,0.54-5.765,1.296-7.994h7.439c-1.428,2.602-2.762,6.178-3.058,10.752H16.084z M32.977,32.842h8.668
	c-0.102,4.184-1.221,7.623-2.533,10.236h-6.135V32.842z M30.977,43.079h-5.138c-1.208-2.588-2.217-6-2.235-10.236h7.373V43.079z
	 M49.517,18.09c-0.68-2.034-1.535-3.636-2.36-4.838c2.514,0.809,4.607,2.56,5.861,4.838H49.517z M36.571,18.09h-1.518
	c0.182-0.328,0.379-0.646,0.596-0.952C35.907,17.382,36.219,17.698,36.571,18.09z M28.454,18.09
	c0.102-0.128,0.191-0.233,0.285-0.347c0.07,0.115,0.143,0.229,0.208,0.347H28.454z M25.953,18.09h-7.892
	c1.096-2.458,2.391-4.212,3.268-5.23c2.413,0.327,4.576,1.511,6.168,3.237C27.053,16.598,26.519,17.268,25.953,18.09z M15.871,18.09
	h-4.888c1.563-2.84,4.432-4.859,7.792-5.255C17.834,14.108,16.765,15.865,15.871,18.09z M16.272,32.842h5.332
	c0.014,3.565,0.66,6.592,1.56,9.078c-2.324-2.293-4.544-4.632-6.487-6.891C16.522,34.394,16.383,33.673,16.272,32.842z
	 M26.891,45.079h4.086v4.065c-1.146-0.995-2.313-2.033-3.479-3.104C27.297,45.742,27.096,45.422,26.891,45.079z M32.977,45.079
	h4.563c-1.526,1.425-3.063,2.804-4.563,4.107V45.079z M43.646,32.842h4.623c-0.101,0.521-0.211,1.003-0.329,1.451
	c-1.653,1.969-3.535,4.011-5.527,6.041C43.108,38.166,43.584,35.664,43.646,32.842z"/>
</svg>
