<?xml version="1.0" encoding="utf-8"?>
<!-- Generator: Adobe Illustrator 16.0.0, SVG Export Plug-In . SVG Version: 6.00 Build 0)  -->
<!DOCTYPE svg PUBLIC "-//W3C//DTD SVG 1.1//EN" "http://www.w3.org/Graphics/SVG/1.1/DTD/svg11.dtd">
<svg version="1.1" id="Layer_1" xmlns="http://www.w3.org/2000/svg" xmlns:xlink="http://www.w3.org/1999/xlink" x="0px" y="0px"
	 width="64px" height="64px" viewBox="0 0 64 64" enable-background="new 0 0 64 64" xml:space="preserve">
<g>
	<polygon points="47.736,36.803 46.948,36.825 46.917,36.398 47.045,36.452 47.353,36.42 47.32,36.027 46.47,36.037 46.234,35.729 
		46.248,35.567 45.149,34.58 44.883,34.791 46.448,36.707 46.671,36.782 46.671,36.888 46.374,36.888 46.448,37.124 48.373,37.208 	
		"/>
	<polygon points="49.347,36.341 49.57,36.422 49.57,36.771 49.805,36.752 49.797,35.715 49.234,35.934 49.241,36.06 49.102,36.06 
		49.102,36.838 49.39,36.838 	"/>
	<path d="M54.165,41.279l0.373-0.85l-0.155-0.629l-0.182-0.155c0.26-0.447,0.285-0.994,0.051-1.639
		c-0.057-0.158-0.133-0.294-0.204-0.437h0.319v-0.246H54.08l-0.055-0.738l-1.372-0.624l-0.026,0.014
		c-0.553-0.375-1.181-0.657-1.832-0.901c-0.086-0.975-0.069-2.11,0.066-2.999c0.06-0.392,0.203-0.78,0.355-1.191
		c0.335-0.902,0.714-1.926,0.086-3.02c-0.229-0.399-0.544-0.731-0.907-1.008l0.048-0.063l-0.532-0.607l-1.056-0.126
		c-0.104-0.037-0.205-0.079-0.308-0.111l-0.136-0.272l0.384-0.543l0.302,0.224l0.909,0.079l1.151-0.766l0.19,0.239l-0.256,0.398
		v0.398l1.054,0.863l0.336-0.176l-0.128-0.575l-0.749-0.701l0.989-0.064v-0.288l0.479-0.095l-0.367-0.254l0.017-0.193l1.005,0.162
		l0.191-0.162l-1.356-0.574l-4.949-0.256l-0.197-0.1c-3.187-3.142-7.603-3.161-11.537-3.171c-0.012,0-0.023,0-0.034,0
		c-3.148,0-4.874,1.152-5.953,3.97c-0.056,0.146-0.104,0.295-0.156,0.442l-0.37,0.146l-0.249,0.271l0.057,0.313l0.293,0.042
		c-0.096,0.296-0.185,0.596-0.272,0.895l-0.451,0.64l-0.664,0.104l-0.095,0.566l0.279,0.067l-0.079,0.364l-0.658-0.132l-0.604,0.132
		l-0.128,0.336l0.104,0.704l0.354,0.164l0.593-0.003l0.401-0.036l0.124-0.318l0.193-0.252c-0.021,0.082-0.043,0.166-0.063,0.248
		c-0.041,0.161-0.085,0.326-0.127,0.489l-0.255,0.137h-0.569l-0.28-0.028l-0.692,0.385v0.724l-1.415,1.022l0.117,0.437h0.287
		l-0.076,0.416l-0.201,0.072l-0.01,1.087l0.985,1.123c-0.383,0.497-0.805,0.923-1.291,1.238c-0.563,0.166-1.188,0.234-1.836,0.252
		l-0.01-0.016l-1.128-0.011l-0.894-0.341l-0.044-0.638l-0.298-0.522l-0.81-0.011l-0.468-0.735l-0.415-0.201l-0.021,0.223
		l-0.756,0.045l-0.278-0.385l-0.254-0.052c0.185-0.951,0.67-1.877,1.401-2.345c-0.169,0.275-0.372,0.551-0.372,0.551l0.466,0.228
		l0.725-0.789l1.364,0.377l-0.569,2.761c0,0,0.395,0.243,0.612,0c0.22-0.24,0.951-2.407,0.951-2.407s1.538,0.271,1.687,0.256
		s0.549,0.044,0.577-0.424c0.026-0.47-0.282-0.566-0.45-0.603c-0.17-0.036-1.436-0.309-1.436-0.309s0.002-2.422-0.166-2.699
		c-0.171-0.275-0.532-0.279-0.532-0.279l-0.453,2.79l-1.505-0.113l-0.307-0.854l-0.523-0.216c0,0,0.183,0.836,0.154,1.211
		l-0.143-0.368c-1.317,0.511-2.076,2-2.264,3.413l-0.398,0.46l-1.021-0.172l-0.075-1.151l-0.746-0.128l0.3-0.564l-0.087-0.324
		l-0.505,0.338c-0.045-0.624-0.044-1.229,0.047-1.759l1.41-0.001L15.9,30.836l0.543,0.251L16.4,30.301l0.391-0.394l0.789-0.52
		l0.055-0.365l0.788-0.82l0.837-0.463l-0.073-0.061l0.567-0.534l0.206,0.055l0.096,0.12l0.216-0.238l0.053-0.024l-0.236-0.032
		l-0.237-0.08v-0.231l0.125-0.104h0.281l0.127,0.055l0.11,0.225l0.137-0.021v-0.02l0.039,0.014l0.392-0.062l0.057-0.191l0.223,0.055
		v0.209l-0.206,0.144l0.03,0.229l0.71,0.219c0,0,0.001,0.003,0.002,0.008l0.164-0.014l0.011-0.309l-0.563-0.256l-0.032-0.149
		l0.469-0.158l0.02-0.446l-0.488-0.3l-0.032-0.755l-0.67,0.33h-0.246l0.065-0.576l-0.913-0.214l-0.378,0.284v0.87l-0.679,0.216
		l-0.271,0.567l-0.296,0.047v-0.726l-0.638-0.089l-0.318-0.207l-0.109-0.4c0.488-0.323,1.015-0.613,1.57-0.875l0.111-0.034
		l0.054,0.375l0.313-0.016l0.024-0.189l0.325-0.047l0.006-0.065l-0.141-0.058l-0.031-0.199l0.4-0.034l0.242-0.25l0.014-0.018h0.002
		l0.038-0.039c0.043-0.017,0.086-0.033,0.129-0.049l0.748-0.095l0.371,0.315l-0.975,0.52l1.24,0.293l0.162-0.416h0.542l0.19-0.36
		l-0.382-0.097v-0.457l-0.456-0.202c0.72-0.231,1.439-0.442,2.131-0.645c0.657-0.191,1.286-0.375,1.86-0.562
		c1.621-0.523,3.248-1.224,3.783-3.477c0.041-0.174,0.076-0.341,0.11-0.502c0.168-0.79,0.29-1.36,0.912-1.929
		c2.154-1.969,5.062-1.569,7.874-1.182c0.715,0.097,1.392,0.185,2.06,0.241c-0.233,0.225-0.501,0.441-0.501,0.441l0.394,0.339
		l0.897-0.585l1.229,0.706l-1.238,2.532c0,0,0.32,0.333,0.593,0.152c0.271-0.179,1.521-2.095,1.521-2.095s1.423,0.646,1.571,0.667
		c0.146,0.021,0.518,0.181,0.661-0.266c0.144-0.447-0.13-0.619-0.285-0.696c-0.154-0.078-1.313-0.657-1.313-0.657
		s0.606-2.345,0.512-2.654c-0.096-0.309-0.445-0.404-0.445-0.404l-1.134,2.592l-1.429-0.484l-0.085-0.905l-0.452-0.341
		c0,0-0.035,0.945-0.172,1.261l0.021-0.322c-0.736-0.05-1.496-0.154-2.302-0.265c-2.844-0.39-6.067-0.833-8.481,1.371
		c-0.8,0.73-0.957,1.47-1.14,2.326c-0.033,0.155-0.067,0.316-0.107,0.484c-0.405,1.708-1.466,2.35-3.283,2.938
		c-0.568,0.184-1.189,0.364-1.84,0.555c-1.383,0.403-2.933,0.859-4.396,1.474l0.366-0.333l-0.852-0.044l-0.245,0.075l-0.106,0.288
		l0.32,0.052l-0.04,0.201c-0.095,0.043-0.185,0.091-0.277,0.135l-0.29,0.018l-0.063,0.156c-0.039,0.021-0.08,0.039-0.12,0.059
		l-0.689,0.018c0,0-0.021-0.446-0.053-0.446c-0.033,0,0.615-0.011,0.615-0.011l0.469-0.458l-0.255-0.128l-0.341,0.332l-0.563-0.033
		l-0.34-0.468h-0.726l-0.755,0.563h0.691l0.063,0.202l-0.182,0.171l0.769,0.021l0.115,0.277l-0.861-0.032l-0.042-0.213l-0.543-0.118
		l-0.288-0.159l-1.276,0.012l-0.395,0.383l-0.267-0.021l-0.297-0.17l-0.884-0.267h-1.618l-0.106,0.072
		c0.46-0.806,1.044-1.492,1.844-2.317c0.387-0.398,0.879-0.792,1.355-1.173c0.738-0.591,1.496-1.202,1.983-1.909
		c0.098,0.096,0.175,0.186,0.208,0.254c0.135,0.272,0.211,1.108,0.211,1.108l0.501-0.142l0.014-1.071l1.269-0.627l1.415,2.438
		c0,0,0.455-0.08,0.457-0.408c0.003-0.325-0.896-2.429-0.896-2.429s1.329-0.822,1.43-0.933c0.099-0.11,0.438-0.332,0.147-0.7
		c-0.293-0.367-0.589-0.235-0.738-0.149c-0.15,0.086-1.275,0.726-1.275,0.726s-1.611-1.809-1.922-1.902
		c-0.311-0.092-0.584,0.146-0.584,0.146l1.522,2.384l-1.198,0.918l-0.798-0.434L14.339,17.4c0,0,0.182,0.132,0.389,0.299l-0.2-0.133
		c-0.42,0.632-1.156,1.221-1.868,1.79c-0.494,0.396-1.006,0.804-1.426,1.237c-1.121,1.157-1.878,2.101-2.438,3.452l-0.324,0.05
		l-0.289,0.223l0.447,0.066v0.101c-0.01,0.026-0.02,0.051-0.028,0.077H7.673L7.3,24.829l0.479,0.404l0.603,0.005
		c-1.039,3.28-1.389,6.306-1.019,8.997c0.189,1.382,0.738,2.879,1.222,4.2l0.23,0.633c0.934,2.604,2.376,3.41,5.254,4.23
		c0.204,0.059,0.421,0.124,0.63,0.186c0.519,2.644,1.46,4.304,4.148,6.24c1.533,1.104,2.994,1.658,4.338,1.658
		c1.154,0,2.223-0.408,3.178-1.225c1.139-0.974,1.994-2.322,2.277-3.757c0.709,0.04,1.422,0.074,2.131,0.074
		c1.322,0,2.627-0.111,3.852-0.494c2.871-0.898,4.986-2.667,6.312-5.257c1.106,0.171,2.246,0.225,3.388,0.225
		c0.835,0,1.671-0.027,2.495-0.054c0.349-0.011,0.693-0.013,1.04-0.021l-0.016,0.639l-0.352,0.342v0.308l1.703-0.586l1.38-0.054
		l0.512,1.124l0.448,0.016c-0.134,0.377-0.315,0.722-0.579,0.995c-0.66,0.686-1.706,0.985-2.938,0.854
		c0.047-0.258,0.102-0.484,0.102-0.484l-0.519-0.029l-0.361,1.009l-1.405,0.18l-0.544-2.767c0,0-0.457-0.071-0.565,0.237
		c-0.107,0.308,0.057,2.587,0.057,2.587s-1.523,0.347-1.653,0.419c-0.13,0.071-0.523,0.171-0.369,0.613
		c0.157,0.442,0.48,0.413,0.649,0.381c0.169-0.031,1.442-0.27,1.442-0.27s0.936,2.233,1.199,2.423
		c0.264,0.188,0.598,0.054,0.598,0.054l-0.663-2.749l1.433-0.479l0.612,0.668l0.566-0.003c0,0-0.298-0.425-0.487-0.781
		c0.154,0.012,0.31,0.026,0.459,0.026c1.27,0,2.356-0.413,3.108-1.194c0.438-0.454,0.744-1.017,0.916-1.653l0.063,0.002
		L54.165,41.279z M53.792,37.125c-0.035-0.052-0.072-0.102-0.109-0.151l0.109-0.011V37.125z M51.167,36.034l-0.052,0.052
		l0.324,0.398l0.703,0.102l0.186,0.098c0.071,0.052,0.143,0.103,0.21,0.159l0.009,0.142H52.29l0.011,0.395l0.714-0.046
		c0.099,0.122,0.194,0.247,0.276,0.387l-0.244-0.012l-0.139,1.177l-0.65-0.05l-0.182-0.109l-0.023-0.466l0.345,0.071l0.292-0.284
		l-0.619-0.372h-0.531c-0.227-0.451-0.436-0.896-0.552-1.353c-0.031-0.124-0.06-0.261-0.085-0.403
		C50.993,35.955,51.079,35.996,51.167,36.034z M50.279,30.536c-0.163,0.441-0.332,0.896-0.406,1.389
		c-0.113,0.741-0.161,1.776-0.107,2.781l-0.564-0.196c-0.088-0.031-0.178-0.052-0.267-0.081l-0.028-0.149h-0.192l-0.027,0.074
		c-0.564-0.178-1.135-0.322-1.712-0.434l0.355-0.235l-0.08-0.478l-0.787-0.635l-0.031-0.575l0.223-0.302l0.399,0.128l-0.031,0.271
		l0.228,0.351l0.204-0.144l-0.112-0.414l1.116-0.401l0.491-0.409l-0.075-0.739l-0.973-1.021l-0.016-0.831h0.43l1.341,1.022
		l0.378-0.102l-0.25-0.33l-0.718-0.437l0.043-0.648l0.851,0.002l0.015-0.174c0.18,0.163,0.344,0.338,0.461,0.543
		C50.811,29.017,50.621,29.615,50.279,30.536z M42.31,33.574l0.131-0.97l0.321-0.692l0.52-0.193l0.915,0.087l1.15,1.022v0.852
		C44.357,33.582,43.347,33.553,42.31,33.574z M38.809,34.759c1.4,0.849,2.507,1.519,2.381,3.318c-0.013,0.198-0.157,0.546-0.263,0.8
		c-0.043,0.104-0.083,0.2-0.115,0.286c-0.094,0.25-0.205,0.481-0.312,0.718c-1.082-0.198-2.196-0.468-3.283-0.744l-0.322-0.081
		l0.251-1.209h-0.395l-0.383,0.767l-0.661-0.087v0.267c-0.068-0.014-0.132-0.027-0.201-0.041c-0.121-0.024-0.247-0.052-0.37-0.076
		l0.232-0.318l-0.128-1.264l-0.267-0.472l1.194-1.141l0.542-0.774c0.407-0.027,0.817-0.053,1.217-0.091
		c0.193-0.019,0.382-0.033,0.573-0.051C38.603,34.629,38.707,34.697,38.809,34.759z M31.826,25l0.024,0.344l-0.505,0.754
		l-0.881-0.008l-0.055-0.183l0.551-0.279l0.004-1.042l0.934-0.65h0.204v0.256l-0.635,0.387v0.255L31.826,25z M30.187,25.555
		l0.089,0.615h-0.16l-0.122-0.018c0.06-0.198,0.116-0.396,0.18-0.592L30.187,25.555z M29.478,27.997l0.338-0.307l0.077,0.288
		l0.997,0.675l-0.12,0.164l-0.451-0.024l0.173,0.245L30.77,29.1l0.325-0.135l-0.006-0.393l0.145-0.07l-0.116-0.124l-0.668-0.372
		l-0.174-0.495h0.554l0.176,0.176l0.479,0.411l0.021,0.498l0.495,0.527l0.185-0.722l0.342-0.188l0.065,0.592l0.334,0.366l1.01-0.017
		l0.014,0.01c-0.019,0.167-0.033,0.335-0.03,0.517c0.003,0.172,0.025,0.319,0.042,0.475l-0.093,0.085h-1.022l-0.622-0.463
		l-0.655,0.064v0.398h-0.208l-0.223-0.16l-1.134-0.287v-0.733l-0.816,0.063c0.014-0.051,0.027-0.103,0.04-0.153
		C29.309,28.648,29.393,28.322,29.478,27.997z M34.095,30.865c0.012,0.04,0.02,0.085,0.033,0.124l-0.054-0.101L34.095,30.865z
		 M37.433,33.901c-0.056,0.005-0.112,0.009-0.168,0.013l0.057-0.081C37.358,33.854,37.396,33.88,37.433,33.901z M35.863,33.77
		l-0.352-0.175l-0.891-1.678c0.276,0.358,0.613,0.655,1,0.916l0.014,0.202l0.329,0.331l0.483-0.032
		c0.088,0.05,0.172,0.099,0.261,0.148c0.046,0.025,0.094,0.054,0.141,0.08L35.863,33.77z M35.947,28.006l-0.021-0.495l0.106-0.243
		l0.43-0.039l0.368,0.154l0.016,0.255l-0.521-0.028l-0.027,0.237l0.654,0.437v0.318l0.283,0.209v0.224l-0.146,0.138l-0.334-0.027
		l-0.065-0.101l-0.527-0.037l0.039-0.17l0.277-0.241v-0.2L35.947,28.006z M34.046,28.629l-0.819-0.035l-0.249,0.035v-0.564
		l0.188-0.21l0.199-0.063l0.439-0.051l0.096-0.15l0.181,0.09l0.025,0.514l0.075,0.031C34.129,28.354,34.083,28.488,34.046,28.629z
		 M27.034,34.919l0.031-0.085h0.723c-0.348,0.104-0.681,0.216-0.991,0.346c0.065-0.081,0.123-0.175,0.186-0.261H27.034z M28.3,34.58
		h0.543l0.009,0.008c-0.145,0.025-0.293,0.042-0.437,0.069c-0.104,0.02-0.188,0.057-0.287,0.081L28.3,34.58z M38.685,33.797
		c-0.11-0.069-0.222-0.133-0.331-0.206c-0.392-0.26-0.776-0.479-1.145-0.686l0.824-0.597l0.44-0.287l-0.008-0.351l-0.468-0.062
		c0,0-1.64-0.771-1.64-0.807c0-0.034,0.01-0.663,0.01-0.663h0.36l0.055,0.459l0.759,0.436l0.87,0.042l1.884,0.31l0.44,0.277v0.431
		l-0.057,0.587l0.57,0.936C40.413,33.657,39.558,33.721,38.685,33.797z M45.841,33.227l0.511,0.579
		c-0.21-0.032-0.423-0.055-0.636-0.08L45.841,33.227z M35.843,20.872c0.011,0,0.022,0,0.034,0c3.404,0.009,7.182,0.026,10.08,2.161
		l-0.095-0.003l-0.5,0.507l-0.213-0.017l-0.667-0.495h-1.962l-0.91-0.544l-1.824,0.116L38.4,23.217l0.013,0.72l-0.428,0.128
		l-0.096-0.721l-0.159-0.248l-0.479-0.118l-0.112,0.431l0.145,0.352l-1.703-0.111l-0.813,0.376l-0.123-0.355l-0.202,0.054
		l-0.148,0.394l-0.426,0.332l-1.04-0.029l-0.046-0.228l1.086-0.049l0.223-0.191l-1.309-0.607l-1.597,0.049l-0.213,0.109
		C31.935,21.604,33.338,20.872,35.843,20.872z M18.325,43.747c-0.848-0.222-1.705-0.475-2.546-0.727
		c-0.145-0.043-0.282-0.082-0.425-0.125c-0.064-0.372-0.124-0.762-0.179-1.183c-0.268-2.054-0.375-4.152-0.467-6.199
		c0.309,0.245,0.656,0.436,1.032,0.582l-0.011,0.25l-0.097,0.437l0.968,1.214l0.075,0.415c0,0,0.353,0.096,0.395,0.096
		c0.043,0,0.787,0.563,0.787,0.563v2.192l0.267,0.075l-0.182,1.011l0.447,0.596L18.325,43.747z M15.357,34.291l0.979,0.074
		l0.096,0.799l-0.368,0.258c-0.594-0.225-1.089-0.565-1.416-1.088c-0.021-0.292-0.049-0.6-0.084-0.923l0.028,0.008L15.357,34.291z
		 M16.208,28.254l-0.206-0.111c0.1-0.068,0.198-0.129,0.294-0.174l-0.136-0.291l0.168-0.182h0.423L16.208,28.254z M17.343,28.254
		l-0.185,0.184h-0.407l0.064-0.279l0.191-0.016l0.04-0.096l0.296-0.041V28.254z M17.438,27.751l-0.192,0.124l-0.239,0.043
		c0,0,0-0.382,0-0.422h0.432V27.751z M17.801,27.456l0.196,0.122l-0.156,0.129l-0.155-0.129L17.801,27.456z M17.541,27.774h0.032
		l0.487,0.144v0.248h-0.407l-0.112-0.16V27.774z M17.222,27.088l0.265,0.24l-0.265,0.064V27.088z M17.086,27.129v0.264h-0.767
		l-0.286-0.081l0.072-0.183l0.366-0.152h0.504v0.152H17.086z M15.944,26.082l-0.103,0.407l-0.328,0.104l-0.061-0.124
		c0.127-0.143,0.265-0.275,0.405-0.408L15.944,26.082z M14.125,24.079v-0.023h0.279l0.025-0.097h0.457v0.2l-0.132,0.175h-0.63
		V24.079z M14.573,24.702c0,0,0.279-0.049,0.302-0.049c0.024,0,0,0.279,0,0.279l-0.631,0.041l-0.119-0.145L14.573,24.702z
		 M13.269,31.403c0.002,0.283,0.011,0.567,0.032,0.851l-0.164-0.361L13.269,31.403z M14.274,42.578
		c-2.577-0.735-3.887-1.347-4.754-3.764l-0.231-0.637c-0.471-1.285-1.004-2.743-1.184-4.044c-0.362-2.636,0.021-5.75,1.101-9.015
		l0.063-0.066h1.097l0.394,0.351l-0.021,0.544l0.329,0.308l-0.276,0.198l0.064,0.718l-0.989,1.203v1.128l0.531,0.256v1.013
		l0.51,0.871l0.416,0.063l0.052-0.299l-0.488-0.756l-0.096-0.732h0.286l0.122,0.755l0.709,1.032l-0.184,0.334l0.449,0.688
		l1.118,0.275v-0.179l0.073,0.01c0.087,0.602,0.243,1.185,0.522,1.714c0.008,0.014,0.019,0.023,0.026,0.037
		c0.001,0.02,0.003,0.042,0.004,0.061l0.015,0.329c0.1,2.241,0.203,4.559,0.499,6.836c0.039,0.296,0.08,0.576,0.123,0.85
		C14.463,42.634,14.365,42.604,14.274,42.578z M25.875,49.588c-2.24,1.919-4.821,0.802-6.589-0.473
		c-2.332-1.68-3.245-3.086-3.762-5.388c0.014,0.004,0.026,0.008,0.04,0.012c1.03,0.309,2.087,0.624,3.126,0.878l0.21,0.369
		l0.757,0.661l0.762,0.016l0.074-0.245l-0.56-0.472l0.007-0.051c0.754,0.153,1.523,0.35,2.27,0.544
		c1.483,0.385,3.018,0.784,4.544,0.857c0.377,0.018,0.761,0.041,1.147,0.063C27.628,47.604,26.846,48.758,25.875,49.588z
		 M34.398,45.266c-1.742,0.543-3.717,0.499-5.665,0.392c0.054-1.052-0.223-2.121-0.942-3.104c0.351-0.103,0.92-0.168,0.92-0.168
		l-0.152-0.498l-1.069,0.012l-0.657-1.256l2.407-1.468c0,0-0.091-0.454-0.417-0.449c-0.327,0.006-2.409,0.948-2.409,0.948
		s-0.851-1.309-0.964-1.406s-0.341-0.432-0.704-0.133c-0.361,0.301-0.222,0.593-0.133,0.741c0.088,0.148,0.753,1.259,0.753,1.259
		s-1.771,1.651-1.858,1.964c-0.087,0.312,0.158,0.579,0.158,0.579l2.349-1.573l0.945,1.178l-0.414,0.808l0.197,0.529
		c0,0,0.223-0.322,0.458-0.604c0.608,0.839,0.846,1.729,0.806,2.601c-0.008,0-0.017,0-0.024-0.001
		c-0.402-0.024-0.8-0.048-1.192-0.067c-1.448-0.069-2.944-0.458-4.391-0.834c-0.757-0.196-1.539-0.396-2.313-0.554l0.002-0.026
		l-0.139-0.004c-0.002-0.001-0.005-0.002-0.007-0.002c-0.091-0.018-0.185-0.042-0.276-0.061l-0.147-0.186l0.314-0.304l0.044-0.229
		l-0.354-0.1l0.021-0.213l0.501-0.077l0.761-0.365l0.255-0.468l0.799-1.022l-0.181-0.799l0.245-0.426l0.734,0.022l0.494-0.392
		l0.16-1.541l0.548-0.697l0.021-0.102c0.454-0.137,0.881-0.318,1.278-0.553c0.054-0.016,0.111-0.026,0.165-0.044
		c0.47-0.151,0.896-0.337,1.308-0.516c0.622-0.271,1.21-0.527,1.923-0.664c0.448-0.086,0.907-0.155,1.37-0.216l-0.083,0.859
		l0.899,1.586l-0.474,0.903l0.032,0.428l0.372,0.372v1.023l0.488,0.657v0.852h1.449l1.087-1.116l0.34-0.607l0.435-0.097v-0.511
		l0.161-0.19c0.243,0.052,0.487,0.103,0.724,0.15c0.144,0.028,0.278,0.057,0.417,0.085l-0.013,0.02l-0.267,0.31v0.563l0.362,0.354
		l0.329-0.531l0.37-0.541c0.037,0.01,0.081,0.019,0.117,0.027l0.358,0.092c1.03,0.261,2.085,0.513,3.124,0.712
		C38.916,42.873,36.992,44.455,34.398,45.266z M46.794,40.146c-1.846,0.061-3.747,0.11-5.534-0.139
		c0.084-0.193,0.177-0.379,0.253-0.581c0.03-0.078,0.067-0.167,0.106-0.262c0.14-0.336,0.298-0.717,0.318-1.037
		c0.138-1.96-0.958-2.89-2.183-3.667c0.746-0.057,1.477-0.1,2.194-0.122l0.008,0.002l0.002-0.002
		c0.046-0.002,0.093-0.005,0.139-0.006l-0.046,0.064l0.134,0.361l0.484-0.179l0.027-0.256c0.963-0.009,1.902,0.031,2.819,0.134
		l1.346,1.291l0.081-0.255l-0.66-0.941c0.604,0.094,1.197,0.23,1.783,0.396l-0.736,0.398v0.597l0.371,0.492h0.938l0.119-0.304
		l0.212-0.191v-0.141l0.132-0.086V35.27l0.491,0.171c0.081,0.028,0.161,0.057,0.241,0.084c0.045,0.372,0.104,0.728,0.185,1.044
		c0.051,0.2,0.115,0.394,0.188,0.585l-0.094,0.014l-0.026,0.147l-0.325,0.036h-0.017v0.223h0.248v-0.112h0.256v-0.132l0.03,0.004
		c0.152,0.373,0.328,0.731,0.51,1.083h-0.179v-0.234l-0.625,0.048l-0.99,1.128l-0.524,0.007l-0.584,0.403l-0.009,0.356
		C47.516,40.134,47.156,40.135,46.794,40.146z"/>
	<polygon points="56.622,41.978 56.392,42.023 56.384,41.501 55.96,41.528 55.907,42.343 55.534,42.598 54.842,42.693 
		53.734,43.481 53.547,43.636 53.547,43.898 54.127,43.81 55.53,42.948 55.928,42.688 56.353,42.5 56.779,42.258 	"/>
	<polygon points="49.721,37.155 49.887,37.208 49.936,37.04 49.721,37.04 	"/>
	<rect x="48.714" y="37.208" width="0.256" height="0.143"/>
	<polygon points="49.338,37.351 49.497,37.351 49.497,37.227 49.612,37.208 49.612,37.087 49.358,37.087 49.253,37.208 
		49.102,37.351 49.102,37.474 49.338,37.449 	"/>
	<path d="M10.652,26.357l0.055-0.336l-0.346-0.054c0,0.021,0.025,0.39,0.051,0.39C10.439,26.357,10.652,26.357,10.652,26.357z"/>
	<polygon points="27.709,26.75 28.082,26.75 28.577,26.703 28.832,26.398 28.561,26.293 28.412,26.123 28.188,25.761 28.082,25.248 
		27.66,25.334 27.543,25.515 27.543,25.718 27.746,25.857 28.033,26.037 28.06,26.244 27.752,26.309 	"/>
	<polygon points="27.107,25.903 26.853,26.313 26.853,26.581 27.149,26.581 27.677,26.207 27.699,25.931 27.453,25.824 	"/>
	<path d="M20.512,27.578h-0.367v0.188h0.088c0,0,0.004,0.041,0.012,0.093l0.225-0.019l0.141-0.088l0.037-0.175l0.183-0.016
		l0.07-0.149l-0.166-0.034l-0.146,0.004L20.512,27.578z"/>
	<polygon points="19.627,27.911 19.895,27.889 19.92,27.703 19.761,27.578 19.641,27.727 	"/>
</g>
</svg>
