<?xml version="1.0" encoding="utf-8"?>
<!-- Generator: Adobe Illustrator 16.0.0, SVG Export Plug-In . SVG Version: 6.00 Build 0)  -->
<!DOCTYPE svg PUBLIC "-//W3C//DTD SVG 1.1//EN" "http://www.w3.org/Graphics/SVG/1.1/DTD/svg11.dtd">
<svg version="1.1" id="Layer_1" xmlns="http://www.w3.org/2000/svg" xmlns:xlink="http://www.w3.org/1999/xlink" x="0px" y="0px"
	 width="64px" height="64px" viewBox="0 0 64 64" enable-background="new 0 0 64 64" xml:space="preserve">
<g>
	<g>
		<polygon fill="none" points="24.095,21.398 24.239,20.834 23.818,20.732 23.354,20.955 23.641,21.543 		"/>
		<polygon fill="none" points="25.358,22.795 24.771,22.795 24.361,23.238 24.294,23.682 24.605,23.848 		"/>
		<polygon fill="none" points="25.823,22.65 25.823,22.285 25.669,22.285 25.669,22.074 24.971,22.074 24.46,22.285 24.361,22.539 
			24.76,22.65 		"/>
		<polygon fill="none" points="26.012,22.229 26.012,22.65 26.378,22.563 		"/>
		<path fill="none" d="M49.531,27.742c-0.022-0.102-0.047-0.203-0.07-0.303l-0.056,0.064L49.531,27.742z"/>
		<polygon fill="none" points="22.77,18.162 22.77,17.887 22.134,17.887 22.101,18.02 21.712,18.02 21.712,18.053 21.712,18.406 
			22.587,18.406 		"/>
		<polygon fill="none" points="27.176,23.727 27.176,23.383 26.5,23.184 26.456,23.184 26.456,23.502 26.61,23.727 		"/>
		<path fill="none" d="M47.345,24.611l-0.09-0.818l-0.476,0.26l-0.256,1.002l-0.687-0.732l-0.028-0.691l-0.664-0.57l-0.245-0.244
			h-0.77l0.244,0.686L45.3,24.02l0.161,0.17l-0.201,0.102l0.009,0.543l-0.451,0.188l-0.386-0.084l-0.24-0.342l0.626,0.033
			l0.169-0.227l-1.388-0.938l-0.105-0.398l-0.564,0.51l-0.572-0.117l-0.87,1.131l-0.171,0.443l-0.557,0.051l-0.823,0.004
			l-0.492-0.229l-0.145-0.979l0.177-0.467l0.838-0.184l0.914,0.184l0.111-0.506l-0.389-0.092l0.133-0.787l0.92-0.143l0.643-0.91
			l0.664-0.111l0.6,0.09h0.221l-0.121-0.854l-0.729,0.295l-0.256-0.639l-0.424-0.059l-0.078-0.438l0.345-0.375l0.819-0.322
			l0.212-0.377c-3.135-2.762-7.243-4.441-11.738-4.441c-3.901,0-7.511,1.266-10.446,3.404l0.896-0.008l0.399,0.223l0.753,0.162
			l0.059,0.295l1.197,0.045l-0.162-0.385l-1.064-0.029l0.251-0.236l-0.088-0.281h-0.961l1.049-0.783h1.005l0.473,0.652l0.784,0.043
			l0.472-0.459l0.355,0.178l-0.65,0.637c0,0-0.9,0.014-0.856,0.014s0.074,0.621,0.074,0.621l1.093-0.029l0.118-0.295l0.753-0.045
			l0.089-0.443l-0.443-0.074l0.147-0.398l0.34-0.104l1.183,0.059L28.327,17.1l0.104,0.457l0.68,0.104l-0.044-0.828l0.65-0.34
			l1.152-0.133l1.669,0.74v0.635l0.532,0.133l-0.266,0.502h-0.754l-0.223,0.576l-1.723-0.406l1.354-0.721l-0.517-0.439l-1.167,0.148
			l-0.103,0.105l-0.004-0.002l-0.019,0.025l-0.336,0.35l-0.555,0.047l0.044,0.275l0.194,0.082l-0.008,0.09l-0.452,0.064
			l-0.033,0.264l-0.433,0.021l-0.077-0.521l-0.775,0.236l-1.586,0.928l0.179,0.654l0.442,0.287l0.887,0.123v1.008l0.409-0.066
			l0.378-0.787l0.942-0.299v-1.207l0.523-0.396l1.268,0.299l-0.089,0.799h0.34l0.931-0.457l0.045,1.047l0.679,0.414l-0.029,0.621
			l-0.649,0.223l0.044,0.205l0.783,0.355l-0.016,0.428l-0.227,0.02c-0.001-0.006-0.003-0.012-0.003-0.012l-0.987-0.305l-0.042-0.316
			h-0.001l0.288-0.197v-0.289l-0.31-0.078l-0.077,0.266l-0.545,0.084l-0.055-0.018v0.027l-0.188,0.029L30.4,21.643l-0.178-0.078
			h-0.388l-0.177,0.145v0.32l0.332,0.111l0.328,0.045l-0.073,0.033l-0.299,0.332l-0.132-0.166l-0.289-0.076l-0.787,0.74l0.103,0.084
			l-1.163,0.645l-1.093,1.137l-0.075,0.508l-1.097,0.719l-0.543,0.547l0.06,1.094l-0.753-0.352l0.006-0.639h-2.098l-1.086,0.551
			l-0.472,0.869L20.34,28.9l0.306,0.668l0.855,0.104l1.36-0.908l0.119,0.451l-0.415,0.783l1.035,0.176l0.104,1.6l1.418,0.24
			l0.901-1.041l1.094,0.223l0.384,0.533l1.049-0.061l0.029-0.311l0.576,0.281l0.65,1.018l1.123,0.016l0.414,0.725l0.059,0.885
			l1.241,0.475l1.566,0.014l0.458,0.754l0.694,0.223l-0.133,0.619l-0.761,0.969l-0.223,2.139l-0.687,0.543l-1.02-0.031l-0.34,0.592
			l0.252,1.109l-1.108,1.418l-0.354,0.65l-1.057,0.508l-0.695,0.105l-0.029,0.295l0.488,0.141l-0.059,0.316l-0.438,0.422
			l0.266,0.332l0.525,0.016l-0.029,0.406l-0.14,0.398l-0.045,0.324l0.777,0.656l-0.104,0.34l-1.059-0.02l-1.052-0.92l-0.82-1.441
			l0.114-1.393l-0.621-0.826l0.252-1.404l-0.369-0.104v-3.043c0,0-1.035-0.785-1.094-0.785s-0.547-0.131-0.547-0.131l-0.103-0.576
			l-1.345-1.686l0.133-0.605l0.044-0.99l0.93-0.65l-0.132-1.107l-1.359-0.104l-1.063-1.211l-0.754-0.207l-0.487-0.09l0.059-0.443
			l-0.62-0.088v0.252l-1.552-0.385l-0.624-0.955l0.254-0.463l-0.982-1.434l-0.169-1.049h-0.398l0.133,1.02l0.679,1.049l-0.073,0.414
			l-0.577-0.088l-0.708-1.209v-1.406l-0.739-0.355v-1.012c-0.912,2.137-1.419,4.49-1.419,6.957c0,9.805,7.976,17.781,17.78,17.781
			c5.558,0,10.526-2.566,13.79-6.572h-0.587v-1.182l-0.679-0.914v-1.422l-0.518-0.516l-0.045-0.592l0.657-1.256l-1.247-2.203
			l0.147-1.492l-1.123-0.117l-0.413-0.414h-0.755l-0.383,0.355h-1.33L39.632,33.1h-0.74l-1.698-1.934l0.015-1.508l0.28-0.104
			l0.104-0.576h-0.399l-0.163-0.605l1.966-1.418v-1.006l0.962-0.533l0.389,0.039h0.792l0.619-0.334l1.995-0.154v1.02l1.574,0.398
			l0.31,0.223h0.289v-0.555l0.908-0.09l0.864,0.645h1.419l0.1-0.092c-0.141-0.479-0.302-0.947-0.48-1.41l-0.927,0.016L47.345,24.611
			z M40.34,20.045l0.163-0.25l0.584-0.117l0.147,0.709l0.311,0.502l0.206,0.236l0.377,0.148l-0.354,0.422l-0.687,0.064h-0.518
			l0.059-0.611l0.43-0.09l-0.037-0.287l-0.4-0.252l-0.28-0.191V20.045z M39.381,21.154l0.354-0.568l0.479-0.111l0.341,0.148
			l-0.03,0.383l-0.73,0.518h-0.413V21.154z M29.721,23.342l-0.371,0.031l0.021-0.258l0.166-0.207l0.222,0.176L29.721,23.342z
			 M31.019,22.887l-0.253,0.021l-0.051,0.246l-0.195,0.121l-0.313,0.025c-0.01-0.074-0.018-0.129-0.018-0.129h-0.121v-0.264h0.51
			l0.105-0.271l0.202-0.004l0.231,0.049L31.019,22.887z"/>
		<path fill="none" d="M47.884,23.582v0.787l0.345-0.049l0.184,0.008c-0.131-0.295-0.27-0.586-0.417-0.871L47.884,23.582z"/>
		<path fill="none" d="M22.755,19.238c0,0,0.033-0.389,0-0.389c-0.034,0-0.422,0.066-0.422,0.066l-0.621,0.178l0.167,0.199
			L22.755,19.238z"/>
		<polygon fill="none" points="27.088,22.908 26.815,22.74 26.655,22.908 26.87,23.088 		"/>
		<path fill="none" d="M25.714,23.383l0.331-0.063l0.267-0.17v-0.355h-0.598C25.714,22.85,25.714,23.383,25.714,23.383z"/>
		<path fill="none" d="M50.175,24.369l-0.059-0.328l-0.104-0.043c0.051,0.121,0.097,0.246,0.146,0.371H50.175z"/>
		<polygon fill="none" points="25.714,23.691 25.447,23.715 25.358,24.102 25.924,24.102 26.179,23.848 26.179,23.502 
			25.769,23.559 		"/>
		<path fill="none" d="M17.145,22.021c-0.252,0.396-0.489,0.803-0.71,1.221l0.738-0.898L17.145,22.021z"/>
		<path fill="none" d="M44.319,20.59l0.076,0.254l1.22,0.012l0.349-0.52c-0.279-0.344-0.573-0.676-0.878-1l-0.003,0.867
			L44.319,20.59z"/>
		<polygon points="41.021,20.771 41.058,21.059 40.628,21.148 40.569,21.76 41.087,21.76 41.773,21.695 42.128,21.273 
			41.751,21.125 41.545,20.889 41.234,20.387 41.087,19.678 40.503,19.795 40.34,20.045 40.34,20.328 40.62,20.52 		"/>
		<polygon points="40.524,21.006 40.555,20.623 40.214,20.475 39.735,20.586 39.381,21.154 39.381,21.523 39.794,21.523 		"/>
		<path d="M30.684,22.637l-0.105,0.271h-0.51v0.264h0.121c0,0,0.008,0.055,0.018,0.129l0.313-0.025l0.195-0.121l0.051-0.246
			l0.253-0.021l0.099-0.205l-0.231-0.049L30.684,22.637z"/>
		<polygon points="29.37,23.115 29.35,23.373 29.721,23.342 29.758,23.084 29.536,22.908 		"/>
		<path d="M51.529,31.326c-0.006-0.566-0.034-1.129-0.089-1.684c-0.179-1.846-0.621-3.615-1.282-5.273
			c-0.05-0.125-0.096-0.25-0.146-0.371c-0.882-2.082-2.12-3.979-3.634-5.615c-0.1-0.105-0.2-0.211-0.302-0.314
			c-0.287-0.297-0.579-0.588-0.885-0.865c-3.443-3.137-8.019-5.051-13.031-5.051c-5.057,0-9.664,1.949-13.117,5.131
			c-0.805,0.742-1.545,1.553-2.215,2.42c-2.531,3.273-4.042,7.375-4.042,11.822c0,10.684,8.691,19.375,19.374,19.375
			c7.514,0,14.038-4.303,17.25-10.572c0.688-1.34,1.222-2.77,1.582-4.266c0.092-0.379,0.171-0.762,0.24-1.15
			c0.194-1.1,0.302-2.23,0.302-3.387C51.534,31.459,51.529,31.393,51.529,31.326z M47.884,23.582l0.111-0.125
			c0.147,0.285,0.286,0.576,0.417,0.871l-0.184-0.008l-0.345,0.049V23.582z M45.083,20.203l0.003-0.867
			c0.305,0.324,0.599,0.656,0.878,1l-0.349,0.52l-1.22-0.012l-0.076-0.254L45.083,20.203z M21.712,18.053V18.02h0.389l0.033-0.133
			h0.636v0.275l-0.183,0.244h-0.875V18.053z M22.333,18.916c0,0,0.388-0.066,0.422-0.066c0.033,0,0,0.389,0,0.389l-0.876,0.055
			l-0.167-0.199L22.333,18.916z M49.117,26.607h-1.419l-0.864-0.645l-0.908,0.09v0.555h-0.289l-0.31-0.223l-1.574-0.398v-1.02
			l-1.995,0.154l-0.619,0.334h-0.792l-0.389-0.039l-0.962,0.533v1.006l-1.966,1.418l0.163,0.605h0.399l-0.104,0.576l-0.28,0.104
			l-0.015,1.508l1.698,1.934h0.74l0.044-0.117h1.33l0.383-0.355h0.755l0.413,0.414l1.123,0.117l-0.147,1.492l1.247,2.203
			l-0.657,1.256l0.045,0.592l0.518,0.516v1.422l0.679,0.914v1.182h0.587c-3.264,4.006-8.232,6.572-13.79,6.572
			c-9.805,0-17.78-7.977-17.78-17.781c0-2.467,0.507-4.82,1.419-6.957v-0.555l0.636-0.771c0.221-0.418,0.458-0.824,0.71-1.221
			l0.028,0.322l-0.738,0.898c-0.229,0.432-0.442,0.873-0.636,1.326v1.012l0.739,0.355v1.406l0.708,1.209l0.577,0.088l0.073-0.414
			l-0.679-1.049l-0.133-1.02h0.398l0.169,1.049l0.982,1.434l-0.254,0.463l0.624,0.955l1.552,0.385v-0.252l0.62,0.088l-0.059,0.443
			l0.487,0.09l0.754,0.207l1.063,1.211l1.359,0.104l0.132,1.107l-0.93,0.65l-0.044,0.99l-0.133,0.605l1.345,1.686l0.103,0.576
			c0,0,0.488,0.131,0.547,0.131s1.094,0.785,1.094,0.785v3.043l0.369,0.104l-0.252,1.404l0.621,0.826l-0.114,1.393l0.82,1.441
			l1.052,0.92l1.059,0.02l0.104-0.34l-0.777-0.656l0.045-0.324l0.14-0.398l0.029-0.406l-0.525-0.016l-0.266-0.332l0.438-0.422
			l0.059-0.316l-0.488-0.141l0.029-0.295l0.695-0.105l1.057-0.508l0.354-0.65l1.108-1.418l-0.252-1.109l0.34-0.592l1.02,0.031
			l0.687-0.543l0.223-2.139l0.761-0.969l0.133-0.619l-0.694-0.223l-0.458-0.754l-1.566-0.014l-1.241-0.475l-0.059-0.885
			l-0.414-0.725l-1.123-0.016l-0.65-1.018l-0.576-0.281l-0.029,0.311l-1.049,0.061l-0.384-0.533l-1.094-0.223l-0.901,1.041
			l-1.418-0.24l-0.104-1.6l-1.035-0.176l0.415-0.783l-0.119-0.451l-1.36,0.908l-0.855-0.104L20.34,28.9l0.188-0.689l0.472-0.869
			l1.086-0.551h2.098l-0.006,0.639l0.753,0.352l-0.06-1.094l0.543-0.547l1.097-0.719l0.075-0.508l1.093-1.137l1.163-0.645
			l-0.103-0.084l0.787-0.74l0.289,0.076l0.132,0.166l0.299-0.332l0.073-0.033l-0.328-0.045l-0.332-0.111v-0.32l0.177-0.145h0.388
			l0.178,0.078l0.154,0.311l0.188-0.029v-0.027l0.055,0.018l0.545-0.084l0.077-0.266l0.31,0.078v0.289l-0.288,0.197h0.001
			l0.042,0.316l0.987,0.305c0,0,0.002,0.006,0.003,0.012l0.227-0.02l0.016-0.428l-0.783-0.355l-0.044-0.205l0.649-0.223l0.029-0.621
			l-0.679-0.414l-0.045-1.047l-0.931,0.457h-0.34l0.089-0.799l-1.268-0.299l-0.523,0.396v1.207l-0.942,0.299l-0.378,0.787
			l-0.409,0.066v-1.008l-0.887-0.123l-0.442-0.287l-0.179-0.654l1.586-0.928l0.775-0.236l0.077,0.521l0.433-0.021l0.033-0.264
			l0.452-0.064l0.008-0.09l-0.194-0.082l-0.044-0.275l0.555-0.047l0.336-0.35l0.019-0.025l0.004,0.002l0.103-0.105l1.167-0.148
			l0.517,0.439l-1.354,0.721l1.723,0.406l0.223-0.576h0.754l0.266-0.502l-0.532-0.133V17.1l-1.669-0.74l-1.152,0.133l-0.65,0.34
			l0.044,0.828l-0.68-0.104L28.327,17.1l0.651-0.592l-1.183-0.059l-0.34,0.104l-0.147,0.398l0.443,0.074l-0.089,0.443l-0.753,0.045
			l-0.118,0.295l-1.093,0.029c0,0-0.03-0.621-0.074-0.621s0.856-0.014,0.856-0.014l0.65-0.637l-0.355-0.178l-0.472,0.459
			l-0.784-0.043l-0.473-0.652h-1.005l-1.049,0.783h0.961l0.088,0.281l-0.251,0.236l1.064,0.029l0.162,0.385l-1.197-0.045
			l-0.059-0.295l-0.753-0.162l-0.399-0.223l-0.896,0.008c2.936-2.139,6.545-3.404,10.446-3.404c4.495,0,8.604,1.68,11.738,4.441
			l-0.212,0.377l-0.819,0.322l-0.345,0.375l0.078,0.438l0.424,0.059l0.256,0.639l0.729-0.295l0.121,0.854h-0.221l-0.6-0.09
			l-0.664,0.111l-0.643,0.91l-0.92,0.143l-0.133,0.787l0.389,0.092l-0.111,0.506l-0.914-0.184l-0.838,0.184l-0.177,0.467
			l0.145,0.979l0.492,0.229l0.823-0.004l0.557-0.051l0.171-0.443l0.87-1.131l0.572,0.117l0.564-0.51l0.105,0.398l1.388,0.938
			l-0.169,0.227l-0.626-0.033l0.24,0.342l0.386,0.084l0.451-0.188l-0.009-0.543l0.201-0.102L45.3,24.02l-0.926-0.518l-0.244-0.686
			h0.77l0.245,0.244l0.664,0.57l0.028,0.691l0.687,0.732l0.256-1.002l0.476-0.26l0.09,0.818l0.465,0.51l0.927-0.016
			c0.179,0.463,0.34,0.932,0.48,1.41L49.117,26.607z M23.354,20.955l0.465-0.223l0.421,0.102l-0.145,0.564l-0.454,0.145
			L23.354,20.955z M25.823,22.285v0.365H24.76l-0.398-0.111l0.099-0.254l0.511-0.211h0.698v0.211H25.823z M26.312,22.795v0.355
			l-0.267,0.17l-0.331,0.063c0,0,0-0.533,0-0.588H26.312z M26.012,22.65v-0.422l0.366,0.334L26.012,22.65z M26.179,23.502v0.346
			l-0.255,0.254h-0.565l0.089-0.387l0.267-0.023l0.055-0.133L26.179,23.502z M24.771,22.795h0.587l-0.753,1.053l-0.312-0.166
			l0.067-0.443L24.771,22.795z M27.176,23.383v0.344H26.61l-0.154-0.225v-0.318H26.5L27.176,23.383z M26.655,22.908l0.16-0.168
			l0.272,0.168l-0.218,0.18L26.655,22.908z M49.405,27.504l0.056-0.064c0.023,0.1,0.048,0.201,0.07,0.303L49.405,27.504z"/>
		<path d="M15.799,24.014v0.555c0.193-0.453,0.407-0.895,0.636-1.326L15.799,24.014z"/>
	</g>
	<polygon points="52.482,18.922 50.482,18.922 50.482,13.367 44.284,13.367 44.284,11.367 52.482,11.367 	"/>
	<polygon points="13.521,19.564 11.521,19.564 11.521,11.367 19.077,11.367 19.077,13.367 13.521,13.367 	"/>
	<polygon points="19.716,52.633 11.518,52.633 11.518,45.078 13.518,45.078 13.518,50.633 19.716,50.633 	"/>
	<polygon points="52.426,51.9 44.87,51.9 44.87,49.9 50.426,49.9 50.426,43.703 52.426,43.703 	"/>
</g>
</svg>
