<?xml version="1.0" encoding="utf-8"?>
<!-- Generator: Adobe Illustrator 16.0.0, SVG Export Plug-In . SVG Version: 6.00 Build 0)  -->
<!DOCTYPE svg PUBLIC "-//W3C//DTD SVG 1.1//EN" "http://www.w3.org/Graphics/SVG/1.1/DTD/svg11.dtd">
<svg version="1.1" id="Layer_1" xmlns="http://www.w3.org/2000/svg" xmlns:xlink="http://www.w3.org/1999/xlink" x="0px" y="0px"
	 width="64px" height="64px" viewBox="0 0 64 64" enable-background="new 0 0 64 64" xml:space="preserve">
<g>
	<rect x="36.511" y="35.707" width="14.084" height="1"/>
	<rect x="36.511" y="38.499" width="14.084" height="1"/>
	<rect x="36.511" y="41.207" width="14.084" height="1"/>
	<rect x="36.511" y="43.999" width="7.66" height="1"/>
	<polygon points="23.854,33.341 23.95,33.645 26.428,33.752 25.607,33.231 24.594,33.259 24.553,32.711 24.717,32.78 25.114,32.738 
		25.073,32.232 23.978,32.246 23.677,31.849 23.692,31.642 22.281,30.37 21.938,30.645 23.95,33.108 24.237,33.204 24.237,33.341 	
		"/>
	<polygon points="27.195,31.942 27.364,31.832 27.364,30.479 27.195,30.408 27.113,29.986 26.866,29.986 26.707,30.413 
		26.518,30.583 25.085,31.359 25.085,32.127 25.563,32.759 26.769,32.759 26.923,32.369 27.195,32.122 	"/>
	<polygon points="28.258,31.832 27.533,32.112 27.543,32.275 27.364,32.275 27.364,33.274 27.734,33.274 27.679,32.638 
		27.967,32.74 27.967,33.192 28.268,33.165 	"/>
	<polygon points="18.296,30.138 18.468,30.603 19.091,30.37 19.159,29.728 18.657,29.628 	"/>
	<polygon points="28.437,33.536 28.16,33.536 28.16,33.685 28.375,33.752 	"/>
	<rect x="26.866" y="33.752" width="0.329" height="0.183"/>
	<polygon points="27.667,33.935 27.873,33.935 27.873,33.775 28.021,33.752 28.021,33.595 27.692,33.595 27.56,33.752 
		27.364,33.935 27.364,34.094 27.667,34.063 	"/>
	<polygon points="28.509,34.078 28.838,34.078 28.838,33.908 29.068,33.935 29.037,33.645 28.663,33.699 28.63,33.889 
		28.211,33.935 28.19,33.935 28.19,34.222 28.509,34.222 	"/>
	<rect x="36.511" y="24.749" width="14.084" height="1"/>
	<rect x="36.511" y="27.541" width="14.084" height="1"/>
	<rect x="36.511" y="30.249" width="14.084" height="1"/>
	<rect x="36.511" y="33.041" width="14.084" height="1"/>
	<path d="M50.693,18.856H36.178c-2.922,0-5.3,2.378-5.3,5.301v7.706l-0.302-0.179l-0.623,0.623l0.418,0.514l0.507,0.073v1.458h-0.63
		l-0.671,0.953h-0.274v-0.301l-0.804,0.061l-1.272,1.45l-0.676,0.009l-0.752,0.52l-0.056,2.245l-0.451,0.438v0.397l2.19-0.753
		l1.396-0.057l0,0l0.38-0.016l0.657,1.446l0.963,0.034v7.128c0,2.923,2.378,5.301,5.3,5.301h14.516c2.922,0,5.3-2.378,5.3-5.301
		V24.157C55.993,21.234,53.615,18.856,50.693,18.856z M43.74,51.928c-0.707,0-1.281-0.573-1.281-1.281s0.574-1.281,1.281-1.281
		c0.708,0,1.281,0.573,1.281,1.281S44.448,51.928,43.74,51.928z M52.993,47.908H33.878v-8.925l0.477-1.087l-0.198-0.809
		l-0.278-0.238v-2.631h0.258v-0.316h-0.258v-9.744c0-1.269,1.031-2.301,2.3-2.301h14.516c1.269,0,2.3,1.032,2.3,2.301V47.908z"/>
	<path d="M9.88,32.343l0.851-0.812l1.692-2.42l-0.328-0.151l-1.759,0.37l-0.452-0.226l-0.388-0.73
		c0.009-0.404,0.03-0.806,0.068-1.203l0.433,0.525l0.045,0.689l0.424,0.425l0.862-0.056l1.801-1.304l0.564-0.37l-0.011-0.451
		l-0.602-0.079c0,0-2.108-0.993-2.108-1.036c0-0.045,0.014-0.854,0.014-0.854h0.465l0.068,0.59l0.978,0.562l1.117,0.055l2.424,0.396
		l0.566,0.356v0.555l-0.072,0.755l1.242,2.043l0.4,0.092l0.4-0.58l0.221-1.652l0.414-0.89l0.668-0.249l1.178,0.112l1.478,1.313v1.89
		l1.95,1.868l0.104-0.328l-1.581-2.259l0.164-0.658l0.836,0.947l0.466,0.05l0.613-0.407l-0.103-0.616l-1.012-0.814l-0.041-0.74
		l0.288-0.389l0.513,0.164l-0.041,0.349l0.293,0.452l0.261-0.186l-0.143-0.534l1.437-0.514l0.63-0.526l-0.096-0.951l-1.252-1.314
		l-0.021-1.067h0.555l1.725,1.314l0.485-0.13l-0.321-0.425l-0.924-0.561l0.055-0.835l1.095,0.002l0.089-1.034l-0.417-0.551
		l0.246-0.267l0.533,0.535l0.171-0.227l-0.684-0.78l-1.704-0.205l-0.226-0.452l0.492-0.698l0.391,0.287l1.17,0.103l1.479-0.985
		l0.247,0.308l-0.329,0.515v0.513l0.646,0.528c0.202-0.243,0.425-0.468,0.657-0.684L30.584,18.2l1.272-0.082v-0.37l0.616-0.123
		L32,17.3l0.02-0.25l1.295,0.209l0.246-0.209l-1.746-0.739l-6.365-0.328l-0.596-0.302l-0.945-0.14l-0.711-0.024l-0.644,0.651
		l-0.272-0.021l-0.857-0.636h-2.524l-1.172-0.699l-0.582,0.037c2.558-1.63,5.589-2.579,8.84-2.579c4.415,0,8.421,1.753,11.386,4.587
		h2.043c-3.296-3.711-8.087-6.065-13.429-6.065c-4.796,0-9.156,1.892-12.383,4.965h-0.002v0.001c-0.204,0.194-0.404,0.394-0.6,0.598
		c-2.4,2.509-4.081,5.708-4.713,9.267c-0.021,0.12-0.045,0.238-0.063,0.358c-0.143,0.91-0.218,1.841-0.218,2.79
		c0,2.441,0.491,4.77,1.376,6.894c2.71,6.503,9.13,11.086,16.603,11.086c0.987,0,1.948-0.101,2.893-0.255v-1.495
		c-0.941,0.168-1.904,0.271-2.893,0.271C18.114,45.27,11.518,39.729,9.88,32.343z"/>
</g>
</svg>
