<?xml version="1.0" encoding="utf-8"?>
<!-- Generator: Adobe Illustrator 16.0.0, SVG Export Plug-In . SVG Version: 6.00 Build 0)  -->
<!DOCTYPE svg PUBLIC "-//W3C//DTD SVG 1.1//EN" "http://www.w3.org/Graphics/SVG/1.1/DTD/svg11.dtd">
<svg version="1.1" id="Layer_1" xmlns="http://www.w3.org/2000/svg" xmlns:xlink="http://www.w3.org/1999/xlink" x="0px" y="0px"
	 width="64px" height="64px" viewBox="0 0 64 64" enable-background="new 0 0 64 64" xml:space="preserve">
<path d="M56.37,32.165c0-0.056,0.004-0.109,0.004-0.165c0-13.438-10.934-24.373-24.373-24.374H32h0h0
	C18.56,7.626,7.626,18.561,7.626,32c0,0.056,0.004,0.109,0.004,0.165c0,0.028-0.004,0.057-0.004,0.086
	c0,0.093,0.01,0.184,0.013,0.275c0.282,13.184,11.075,23.824,24.32,23.846c0.014,0,0.027,0.002,0.041,0.002
	c0.015,0,0.029-0.002,0.043-0.002c13.244-0.024,24.035-10.664,24.317-23.846c0.003-0.092,0.013-0.183,0.013-0.275
	C56.374,32.222,56.37,32.193,56.37,32.165z M44.288,31.501c-0.027-2.826-0.283-5.521-0.738-8.015
	c5.99,1.705,10.201,4.667,10.755,8.015H44.288z M42.288,31.501H33v-9.532c2.962,0.063,5.795,0.408,8.375,0.974
	C41.932,25.583,42.256,28.479,42.288,31.501z M33,19.97V9.738c3.303,0.729,6.203,5.023,7.851,11.029
	C38.411,20.301,35.772,20.023,33,19.97z M31,9.738V19.97c-2.772,0.054-5.41,0.331-7.851,0.797C24.798,14.761,27.697,10.468,31,9.738
	z M31,21.969v9.532h-9.288c0.032-3.022,0.356-5.918,0.912-8.559C25.205,22.376,28.038,22.032,31,21.969z M19.713,31.501H9.695
	c0.554-3.348,4.766-6.31,10.756-8.015C19.996,25.979,19.741,28.675,19.713,31.501z M19.731,33.501
	c0.078,2.663,0.363,5.195,0.824,7.543c-5.744-1.615-9.874-4.383-10.75-7.543H19.731z M21.734,33.501H31v9.031
	c-2.92-0.063-5.713-0.398-8.264-0.95C22.176,39.093,21.826,36.36,21.734,33.501z M31,44.531v9.73
	c-3.205-0.707-6.029-4.771-7.7-10.498C25.698,44.213,28.285,44.479,31,44.531z M33,54.262v-9.73c2.715-0.053,5.302-0.319,7.7-0.768
	C39.03,49.49,36.205,53.554,33,54.262z M33,42.532v-9.031h9.266c-0.092,2.858-0.441,5.592-1.002,8.081
	C38.714,42.134,35.921,42.469,33,42.532z M44.27,33.501h9.925c-0.875,3.159-5.005,5.928-10.749,7.543
	C43.906,38.696,44.191,36.163,44.27,33.501z M53.706,26.576c-2.325-2.302-6.041-4.162-10.627-5.317
	c-1.134-4.684-2.997-8.488-5.315-10.876C45.588,12.471,51.737,18.703,53.706,26.576z M26.239,10.382
	c-2.319,2.388-4.182,6.192-5.316,10.877c-4.587,1.155-8.303,3.015-10.629,5.317C12.263,18.702,18.412,12.469,26.239,10.382z
	 M10.481,38.112c2.36,2.239,6.052,4.044,10.579,5.165c1.143,4.438,2.949,8.044,5.178,10.34
	C18.642,51.591,12.628,45.659,10.481,38.112z M37.763,53.616c2.229-2.296,4.035-5.902,5.178-10.339
	c4.526-1.122,8.218-2.926,10.577-5.165C51.371,45.658,45.359,51.59,37.763,53.616z"/>
</svg>
