<?xml version="1.0" encoding="utf-8"?>
<!-- Generator: Adobe Illustrator 16.0.0, SVG Export Plug-In . SVG Version: 6.00 Build 0)  -->
<!DOCTYPE svg PUBLIC "-//W3C//DTD SVG 1.1//EN" "http://www.w3.org/Graphics/SVG/1.1/DTD/svg11.dtd">
<svg version="1.1" id="Layer_1" xmlns="http://www.w3.org/2000/svg" xmlns:xlink="http://www.w3.org/1999/xlink" x="0px" y="0px"
	 width="64px" height="64px" viewBox="0 0 64 64" enable-background="new 0 0 64 64" xml:space="preserve">
<path d="M61.055,31.202l0.062-0.514l-0.756-0.242l-0.424,0.574l0.06,1.089l1.402,1.128c0.053-0.46,0.096-0.924,0.121-1.393
	l-0.032,0.023L61.055,31.202z"/>
<path d="M60.048,34.744l-1.23-1.396l-0.242,0.968l2.018,2.882c0.262-0.881,0.471-1.785,0.627-2.706l-0.486,0.323L60.048,34.744z"/>
<polygon fill="#FFFFFF" points="41.982,23.984 40.742,23.157 40.794,22.708 41.78,22.763 41.75,22.279 41.055,21.988 40.238,22.058 
	40.036,22.521 40.077,23.458 41.085,24.195 41.085,24.577 40.56,25.031 40.489,25.354 41.487,25.425 41.608,25.616 42.244,25.667 
	42.518,25.405 42.518,24.982 41.982,24.588 "/>
<polygon fill="#FFFFFF" points="33.588,23.818 33.539,22.842 33.199,22.672 33.016,22.957 32.185,23.054 31.804,23.172 
	31.453,23.566 31.453,24.638 31.923,24.574 33.491,24.638 34.579,24.638 34.499,24.192 "/>
<polygon fill="#FFFFFF" points="27.639,16.98 27.63,18.954 26.588,19.483 26.693,19.83 28.357,19.845 29.317,18.417 29.272,17.766 
	28.592,17.448 28.592,16.965 29.792,16.231 29.792,15.747 29.407,15.747 "/>
<path d="M52.27,36.819v-2.782l-2.176-1.935l-1.734-0.166l-0.984,0.367l-0.609,1.311l-0.324,2.434l-0.588,0.854l-0.592-0.136
	l-1.828-3.009l0.105-1.111v-0.817l-0.834-0.525l-3.57-0.583L37.49,30.64l-1.439-0.827l-0.102-0.868h-0.686
	c0,0-0.02,1.191-0.02,1.256c0,0.064,3.105,1.528,3.105,1.528l0.885,0.116l0.016,0.665l-0.83,0.544l-2.652,1.919l-1.27,0.082
	l-0.623-0.626l-0.066-1.014l-2.699-3.276l-0.191,0.223l2.723,5.127l0.666,0.332l2.59-0.545l0.484,0.223l-2.494,3.565l-2.264,2.161
	l0.504,0.89l0.244,2.397l-1.152,1.572l-0.543,0.646v0.967l-0.826,0.183l-0.646,1.149l-2.055,2.117h-2.744v-1.613l-0.926-1.247v-1.94
	l-0.707-0.705l-0.061-0.807l0.898-1.714l-1.705-3.004l0.203-2.037l-1.533-0.16l-0.564-0.565H19.98l-0.523,0.484h-1.814l-0.061,0.161
	h-1.01l-2.316-2.641l0.02-2.058l0.383-0.14l0.143-0.786h-0.545l-0.223-0.827l2.682-1.936v-1.371l1.313-0.729l0.531,0.054h1.082
	l0.844-0.454l2.723-0.212v1.392l2.148,0.545l0.424,0.302h0.393V28.38l1.24-0.121l1.178,0.878h1.936l0.697-0.635v-0.998l-0.566-0.425
	l-1.914,0.031l-0.635-0.696l-0.121-1.119l-0.65,0.354l-0.348,1.368l-0.938-0.998l-0.039-0.943l-0.906-0.778l-0.334-0.333h-1.051
	l0.334,0.937l1.262,0.705l0.219,0.233l-0.271,0.137l0.01,0.741l-0.615,0.257l-0.523-0.116l-0.33-0.466l0.854,0.046l0.23-0.311
	l-1.893-1.278l-0.145-0.544l-0.77,0.695l-0.781-0.16l-1.186,1.543l-0.234,0.605l-0.76,0.069l-1.125,0.006l-0.67-0.313l-0.199-1.335
	l0.242-0.636l1.145-0.249l1.246,0.249l0.152-0.689l-0.529-0.126l0.18-1.074l1.256-0.197l0.877-1.24l0.906-0.151l0.818,0.121h0.301
	l-0.166-1.164l-0.994,0.401l-0.35-0.87l-0.576-0.081l-0.107-0.597l0.471-0.512l1.119-0.438l0.635-1.134l1.693-0.867l3.025-0.091
	l2.479,1.15l-0.424,0.362l-2.055,0.091l0.09,0.433l1.965,0.056l0.809-0.63l0.281-0.746l0.383-0.101l0.234,0.674l1.539-0.715
	l3.227,0.211l-0.271-0.665l0.211-0.817l0.908,0.223l0.301,0.473l0.182,1.362l0.809-0.242l-0.021-1.362l2.623-1.173l3.455-0.219
	l1.725,1.029h2.18c-4.23-4.228-10.072-6.842-16.523-6.842C19.666,8.626,9.201,19.091,9.201,32s10.465,23.374,23.373,23.374
	c10.381,0,19.176-6.77,22.225-16.134L52.27,36.819z M18.549,20.184l0.223-0.341l0.797-0.161l0.201,0.968l0.424,0.686l0.281,0.323
	l0.514,0.201l-0.482,0.575l-0.938,0.09h-0.707l0.082-0.837l0.584-0.121l-0.049-0.393l-0.547-0.343l-0.383-0.261V20.184z
	 M17.24,21.698l0.484-0.776l0.652-0.151l0.467,0.202l-0.043,0.524l-0.998,0.706H17.24V21.698z M36.15,46.366l-1.227,1.799
	l-0.627,1.004l-0.686-0.667v-1.067l0.504-0.585l0.342-0.523l-0.443-0.524v-0.968l1.25,0.163l0.727-1.453h0.748L36.15,46.366z
	 M47.199,37.354l-0.916,0.342l-0.254-0.685l0.533-0.75l0.738,0.146L47.199,37.354z"/>
<polygon points="29.792,16.231 28.592,16.965 28.592,17.448 29.272,17.766 29.317,18.417 28.357,19.845 26.693,19.83 26.588,19.483 
	27.63,18.954 27.639,16.98 29.407,15.747 29.792,15.747 "/>
<polygon points="33.491,24.638 31.923,24.574 31.453,24.638 31.453,23.566 31.804,23.172 32.185,23.054 33.016,22.957 
	33.199,22.672 33.539,22.842 33.588,23.818 34.499,24.192 34.579,24.638 "/>
<polygon points="42.518,25.405 42.244,25.667 41.608,25.616 41.487,25.425 40.489,25.354 40.56,25.031 41.085,24.577 41.085,24.195 
	40.077,23.458 40.036,22.521 40.238,22.058 41.055,21.988 41.75,22.279 41.78,22.763 40.794,22.708 40.742,23.157 41.982,23.984 
	41.982,24.588 42.518,24.982 "/>
</svg>
