<?xml version="1.0" encoding="utf-8"?>
<!-- Generator: Adobe Illustrator 16.0.0, SVG Export Plug-In . SVG Version: 6.00 Build 0)  -->
<!DOCTYPE svg PUBLIC "-//W3C//DTD SVG 1.1//EN" "http://www.w3.org/Graphics/SVG/1.1/DTD/svg11.dtd">
<svg version="1.1" id="Layer_1" xmlns="http://www.w3.org/2000/svg" xmlns:xlink="http://www.w3.org/1999/xlink" x="0px" y="0px"
	 width="64px" height="64px" viewBox="0 0 64 64" enable-background="new 0 0 64 64" xml:space="preserve">
<g>
	<g>
		<path d="M16.539,29.607c2.807-1.113,5.703-2.732,8.485-4.823l-7.634-9.66C14.521,18.108,14.357,23.608,16.539,29.607z"/>
		<path d="M45.045,50.12l-7.634-9.66c-2.678,2.226-4.925,4.67-6.656,7.146C36.087,51.116,41.478,52.222,45.045,50.12z"/>
		<path d="M29.152,46.481c1.832-2.651,4.195-5.244,7.021-7.589l-3.843-4.862l-8.922,7.05C25.223,43.18,27.17,44.992,29.152,46.481z"
			/>
		<path d="M22.137,39.536l8.953-7.075l-4.827-6.108c-2.932,2.205-5.997,3.904-8.997,5.073C18.445,34.129,20.068,36.89,22.137,39.536
			z"/>
		<path d="M13.266,19.782c-2.263,3.476-3.478,7.485-3.604,11.543c1.589-0.141,3.281-0.494,5.028-1.056
			C13.347,26.499,12.847,22.867,13.266,19.782z"/>
		<path d="M15.4,32.086c-1.972,0.629-3.895,1.021-5.711,1.166c0.24,4.383,1.752,8.738,4.637,12.457l6.242-4.933
			C18.364,37.958,16.638,35.001,15.4,32.086z"/>
		<path d="M27.499,53.887c3.978,0.815,8.157,0.567,12.062-0.831c-3.099-0.306-6.518-1.629-9.875-3.808
			C28.738,50.814,28.003,52.376,27.499,53.887z"/>
		<path d="M43.091,22.977l6.334-5.005c-2.951-3.665-6.838-6.142-11.047-7.389c-0.571,1.765-1.416,3.578-2.513,5.382
			C38.403,17.839,40.87,20.194,43.091,22.977z"/>
		<path d="M21.839,42.321l-6.217,4.912c2.797,3.012,6.274,5.084,10.006,6.189c0.56-1.732,1.385-3.513,2.453-5.287
			C25.914,46.538,23.796,44.59,21.839,42.321z"/>
		<path d="M48.498,31.952c2.011-0.65,3.972-1.054,5.82-1.201c-0.211-3.886-1.426-7.748-3.709-11.165l-6.31,4.985
			C46.045,26.988,47.445,29.485,48.498,31.952z"/>
		<path d="M42.73,25.812L33.9,32.79l3.842,4.862c2.9-2.182,5.932-3.868,8.9-5.036C45.654,30.355,44.346,28.052,42.73,25.812z"/>
		<path d="M38.982,39.221l7.623,9.647c2.797-3.009,2.938-8.475,0.765-14.43C44.592,35.549,41.732,37.154,38.982,39.221z"/>
		<path d="M50.636,44.379c2.328-3.511,3.572-7.58,3.701-11.7c-1.618,0.145-3.344,0.509-5.124,1.089
			C50.582,37.587,51.077,41.267,50.636,44.379z"/>
		<path d="M36.509,10.112c-4.039-0.828-8.287-0.555-12.241,0.899c3.13,0.291,6.595,1.628,9.993,3.841
			C35.24,13.251,35.994,11.655,36.509,10.112z"/>
		<path d="M18.969,13.896l7.624,9.647c2.646-2.197,4.867-4.608,6.59-7.051C27.892,13.003,22.542,11.871,18.969,13.896z"/>
	</g>
	<g>
		<path d="M37.554,22.464c-0.448-0.292-0.885-0.437-1.311-0.437c-0.65,0-1.117,0.343-1.401,1.031h2.544l-0.414,0.997h-2.309
			c-0.008,0.038-0.012,0.075-0.012,0.112c0,0.037,0,0.078,0,0.123c0,0.052,0,0.101,0,0.146c0,0.037,0.004,0.075,0.012,0.112h2.117
			l-0.414,0.997h-1.502c0.276,0.672,0.77,1.009,1.479,1.009c0.471,0,0.99-0.187,1.559-0.561v2.084
			c-0.516,0.231-1.133,0.347-1.85,0.347c-0.896,0-1.658-0.258-2.285-0.773c-0.621-0.53-1.047-1.233-1.277-2.107h-0.875l0.415-0.997
			h0.313c-0.008-0.03-0.011-0.063-0.011-0.101c0-0.044,0-0.093,0-0.146s0-0.097,0-0.134c0-0.045,0.003-0.082,0.011-0.112h-0.75
			l0.414-0.997h0.482c0.238-0.896,0.672-1.603,1.299-2.118c0.643-0.53,1.412-0.796,2.309-0.796c0.71,0,1.461,0.209,2.252,0.627
			L37.554,22.464z"/>
	</g>
</g>
</svg>
