<?xml version="1.0" encoding="utf-8"?>
<!-- Generator: Adobe Illustrator 16.0.0, SVG Export Plug-In . SVG Version: 6.00 Build 0)  -->
<!DOCTYPE svg PUBLIC "-//W3C//DTD SVG 1.1//EN" "http://www.w3.org/Graphics/SVG/1.1/DTD/svg11.dtd">
<svg version="1.1" id="Layer_1" xmlns="http://www.w3.org/2000/svg" xmlns:xlink="http://www.w3.org/1999/xlink" x="0px" y="0px"
	 width="64px" height="64px" viewBox="0 0 64 64" enable-background="new 0 0 64 64" xml:space="preserve">
<path d="M44.021,10.145c-4.26,0-8.238,2.091-10.643,5.592l-1.377,2.005l-1.377-2.005c-2.408-3.501-6.387-5.592-10.646-5.592
	c-7.148,0-12.965,5.818-12.965,12.969c0,7.597,12.613,20.591,24.42,30.216L32,53.855l0.48-0.45
	c11.863-9.644,24.506-22.646,24.506-30.291C56.986,15.963,51.17,10.145,44.021,10.145z M54.344,20.089
	c-1.768-1.097-4.523-2.425-8.426-3.515c-0.596-1.76-1.248-3.144-1.846-4.222C48.934,12.375,53.039,15.639,54.344,20.089z
	 M47.82,28.033c1.971,0.622,3.367,1.263,4.254,1.738c-0.293,0.444-0.598,0.893-0.926,1.348c-0.822,0.402-1.936,0.875-3.373,1.341
	c0.051-0.913,0.084-1.854,0.084-2.847C47.859,29.066,47.836,28.554,47.82,28.033z M48.703,34.267
	c-0.398,0.479-0.807,0.959-1.225,1.438c0.047-0.359,0.096-0.716,0.133-1.093C47.994,34.499,48.355,34.383,48.703,34.267z
	 M40.996,42.539c-1.154,0.232-2.4,0.432-3.785,0.566c0.461-1.909,0.854-4.176,1.107-6.818c2.811-0.242,5.195-0.648,7.203-1.125
	c-0.146,1.198-0.336,2.296-0.553,3.319C43.643,39.894,42.297,41.261,40.996,42.539z M20.604,40.139
	c-0.389-1.45-0.723-3.093-0.951-4.94c1.932,0.438,4.184,0.81,6.781,1.049c0.264,2.632,0.664,4.893,1.131,6.785
	c-1.855-0.209-3.508-0.519-4.967-0.885C21.941,41.498,21.273,40.828,20.604,40.139z M12.26,30.285
	c0.705-0.423,2.361-1.303,5.102-2.162c-0.018,0.56-0.041,1.112-0.041,1.7c0,0.938,0.029,1.833,0.076,2.7
	c-2.43-0.738-4.063-1.504-4.967-1.993C12.373,30.448,12.316,30.366,12.26,30.285z M17.564,34.675
	c0.096,0.933,0.227,1.797,0.371,2.633c-1.049-1.152-2.066-2.322-3.016-3.487C15.697,34.106,16.57,34.396,17.564,34.675z
	 M23.213,12.863c1.451,0.467,2.77,1.241,3.889,2.24c-1.912,0.22-3.732,0.535-5.422,0.923C22.211,14.686,22.748,13.654,23.213,12.863
	z M38.506,26.273c2.885,0.257,5.314,0.688,7.301,1.187c0.031,0.695,0.053,1.408,0.053,2.153c0,1.218-0.057,2.35-0.135,3.44
	c-1.963,0.503-4.371,0.94-7.25,1.207c0.084-1.334,0.141-2.729,0.141-4.24C38.615,28.699,38.568,27.466,38.506,26.273z
	 M38.369,24.246c-0.238-2.793-0.635-5.19-1.1-7.232c2.646,0.257,5.006,0.71,7.078,1.24c0.578,1.938,1.064,4.292,1.318,7.107
	C43.629,24.885,41.219,24.479,38.369,24.246z M43.57,15.988c-1.957-0.438-4.15-0.787-6.547-0.996
	c1.373-1.187,3.033-2.043,4.857-2.421C42.385,13.386,42.984,14.5,43.57,15.988z M36.615,30.02c0,1.57-0.061,3.019-0.152,4.389
	c-1.223,0.071-2.494,0.121-3.871,0.121c-1.535,0-2.957-0.059-4.313-0.147c-0.104-1.444-0.168-2.984-0.168-4.654
	c0-1.245,0.043-2.408,0.102-3.535c1.455-0.103,3.002-0.167,4.67-0.167c1.277,0,2.465,0.045,3.609,0.107
	C36.564,27.365,36.615,28.644,36.615,30.02z M36.291,36.422c-0.277,2.698-0.707,4.97-1.193,6.839
	c-0.773,0.038-1.576,0.059-2.412,0.059c-1.051,0-2.035-0.043-2.99-0.103c-0.498-1.856-0.943-4.115-1.234-6.819
	c1.307,0.078,2.668,0.132,4.131,0.132C33.9,36.53,35.115,36.485,36.291,36.422z M27.375,17.083
	c-0.453,2.064-0.838,4.465-1.059,7.266c-2.607,0.259-4.871,0.648-6.791,1.103c0.266-2.822,0.77-5.195,1.361-7.15
	C22.873,17.786,25.051,17.353,27.375,17.083z M26.197,26.371c-0.051,1.075-0.086,2.182-0.086,3.357c0,1.604,0.061,3.083,0.154,4.488
	c-2.641-0.263-4.918-0.665-6.816-1.129c-0.074-1.038-0.129-2.112-0.129-3.265c0-0.784,0.021-1.537,0.055-2.269
	C21.264,27.076,23.531,26.652,26.197,26.371z M28.139,45.109c0.43,1.389,0.875,2.522,1.285,3.429
	c-1.088-0.968-2.525-2.27-4.135-3.79C26.189,44.892,27.135,45.016,28.139,45.109z M30.305,45.262
	c0.768,0.035,1.559,0.058,2.381,0.058c0.631,0,1.227-0.023,1.824-0.045c-0.799,2.447-1.613,3.956-2.055,4.666
	C32.115,49.435,31.209,47.949,30.305,45.262z M36.668,45.15c0.631-0.051,1.227-0.12,1.814-0.193
	c-0.926,0.874-1.791,1.671-2.561,2.37C36.172,46.675,36.422,45.965,36.668,45.15z M30.73,22.818l2.537-0.002
	c0.061-2.15,0.77-4.15,1.934-5.814c0.475,1.977,0.887,4.349,1.143,7.118c-1.104-0.055-2.242-0.094-3.461-0.094
	c-1.615,0-3.111,0.062-4.535,0.155c0.209-2.446,0.549-4.567,0.941-6.409C30.158,19.27,30.68,20.989,30.73,22.818z M19.979,12.35
	c0.395,0,0.785,0.026,1.17,0.069c-0.594,1.077-1.244,2.459-1.842,4.213c-4.463,1.251-7.85,2.842-9.752,3.85
	C10.732,15.818,14.953,12.35,19.979,12.35z M9.223,22.958c1.004-0.587,4.42-2.472,9.383-4.009c-0.516,1.986-0.918,4.339-1.127,7.036
	c-3.365,0.981-5.404,2.069-6.293,2.609c-1.217-2.055-1.971-3.942-1.971-5.48C9.215,23.061,9.223,23.01,9.223,22.958z M31.914,50.708
	l0.27-0.216l0.082,0.065l-0.264,0.228L31.914,50.708z M53.123,28.057c-1.1-0.605-2.863-1.424-5.414-2.167
	c-0.199-2.69-0.594-5.027-1.102-7.003c4.326,1.352,6.908,2.9,8.162,3.938c0.004,0.097,0.016,0.19,0.016,0.288
	C54.785,24.514,54.16,26.208,53.123,28.057z"/>
</svg>
