<?xml version="1.0" encoding="utf-8"?>
<!-- Generator: Adobe Illustrator 16.0.0, SVG Export Plug-In . SVG Version: 6.00 Build 0)  -->
<!DOCTYPE svg PUBLIC "-//W3C//DTD SVG 1.1//EN" "http://www.w3.org/Graphics/SVG/1.1/DTD/svg11.dtd">
<svg version="1.1" id="Layer_1" xmlns="http://www.w3.org/2000/svg" xmlns:xlink="http://www.w3.org/1999/xlink" x="0px" y="0px"
	 width="64px" height="64px" viewBox="0 0 64 64" enable-background="new 0 0 64 64" xml:space="preserve">
<g>
	<path d="M27.162,21.071l-0.068,0.706h0.885l0.908-0.087l0.699-0.832l-0.703-0.277l-0.172-0.195l-0.34-0.542l-0.209-1.021
		l-1.023,0.205l-0.287,0.44v0.341l-0.607,0.139l-0.502,0.808v0.75h0.807L27.162,21.071z M27.576,20.535l0.004-0.054l0.061,0.04
		L27.576,20.535z M28.309,20.681l0.236,0.273l0.211,0.114l-0.121,0.143l-0.68,0.065h-0.311l0.023-0.251l0.539-0.111l-0.061-0.492
		L28.309,20.681z M27.352,19.616l0.092-0.14l0.33-0.066l0.117,0.579l0.074,0.145l-0.613-0.396V19.616z M26.242,21.004v-0.107
		l0.316-0.509l0.375-0.086l0.154,0.066l-0.012,0.15l-0.686,0.485H26.242z"/>
	<path d="M44.268,23.856l-1.025-0.685l0.871,0.049l-0.053-0.849l-0.791-0.327l-0.898,0.076l-0.254,0.582l0.039,0.973l0.852,0.62
		v0.083l-0.422,0.365l-0.141,0.637l1.01,0.072l0.104,0.161l0.771,0.062l0.393-0.373v-0.593l-0.455-0.333V23.856z M44.223,25.087
		l-0.076,0.072l-0.301-0.024l-0.105-0.163l-0.604-0.043l0.371-0.322v-0.565l-0.861-0.628l-0.025-0.617l0.088-0.203l0.482-0.041
		l0.32,0.133l-0.725-0.04l-0.086,0.766l1.066,0.713v0.507l0.455,0.333V25.087z"/>
	<polygon points="12.074,21.871 12.338,20.833 11.518,20.642 10.672,21.044 11.209,22.145 	"/>
	<path d="M54.715,15.794c-0.119-0.172-0.248-0.334-0.375-0.5c-2.369-3.121-6.107-5.149-10.318-5.149
		c-4.26,0-8.238,2.091-10.643,5.592l-1.377,2.005l-1.377-2.005c-2.408-3.501-6.387-5.592-10.646-5.592
		c-4.736,0-8.877,2.563-11.141,6.368c-0.1,0.167-0.203,0.33-0.295,0.502c-0.975,1.819-1.529,3.895-1.529,6.099
		c0,1.509,0.504,3.234,1.395,5.101c0.07,0.147,0.141,0.295,0.215,0.444c0.295,0.584,0.627,1.181,0.99,1.789
		c0.086,0.143,0.174,0.285,0.262,0.428c0.061,0.096,0.121,0.192,0.182,0.289c0.168,0.264,0.34,0.529,0.518,0.797
		c0.172,0.256,0.346,0.514,0.527,0.772c0.594,0.848,1.238,1.711,1.93,2.586c2.262,2.858,5.018,5.831,8.002,8.751
		c0.219,0.214,0.438,0.428,0.658,0.642c3.119,3.007,6.461,5.942,9.742,8.617L32,53.855l0.48-0.45
		c7.244-5.889,14.773-13.027,19.543-19.437c0.266-0.357,0.523-0.714,0.771-1.066c0.744-1.056,1.408-2.088,1.973-3.087
		c0.092-0.16,0.176-0.318,0.262-0.478c1.24-2.297,1.957-4.412,1.957-6.224C56.986,20.399,56.145,17.879,54.715,15.794z
		 M44.021,12.35c2.404,0,4.617,0.802,6.41,2.138l-1.879,0.12l-2.465,1.083l0.021,1.131l-0.225,0.067l-0.115-0.865l-0.348-0.587
		l-1.105-0.271l-0.262,1.011l0.111,0.272l-2.402-0.158l-1.111,0.516l-0.184-0.529l-0.674,0.178l-0.154,0.405l-2.273-1.056
		l-1.221,0.037C38.123,13.705,40.934,12.35,44.021,12.35z M34.641,19.878l0.006-1.695l0.311-0.216v0.64l0.588,0.274l0.021,0.318
		l-0.691,1.029l-0.906-0.009L34.641,19.878z M34.145,18.899l-0.002,0.673l-0.324,0.164C33.914,19.451,34.025,19.173,34.145,18.899z
		 M33.049,22.816l0.297,0.835l-0.453-0.305l-0.141-0.53H33.049z M33.834,24.583l-0.977-0.054l0.633,0.895l0.615,0.139l0.754-0.313
		l-0.01-0.64l0.166-0.082l0.002,0.068l1.172,1.245l0.381-1.496l0.129-0.069l0.07,0.66l0.67,0.733l1.648-0.027l0.313,0.233v0.61
		l-0.436,0.399h-1.463l-1.012-0.753l-1.373,0.135v0.618l-0.297-0.21l-1.717-0.454v-1.254l-2.578,0.201l-0.201,0.083l0.127-0.326
		l0.889-1.156l0.633,0.13l0.443-0.401l0.041,0.158L33.834,24.583z M33.645,23h0.434l0.908,0.811L35,24.156l-0.176-0.186
		l-1.047-0.599L33.645,23z M30.662,21.952c0.031,0.286,0.061,0.574,0.068,0.866l1.693-0.001l-0.6,0.541l-0.689-0.142l-1.102,1.433
		l-0.178,0.431l-0.469,0.044l-0.896,0.004l-0.396-0.185l-0.139-0.935l0.133-0.352l0.787-0.172l1.248,0.249l0.23-1.064l-0.459-0.109
		l0.084-0.501L30.662,21.952z M9.215,23.114c0-1.286,0.238-2.516,0.654-3.66l0.676-0.044l0.018-0.214
		c0.043-0.497,0.008-0.563-0.061-0.637l-0.078-0.083h-0.109c-0.006,0-0.018,0.001-0.035,0.003c0.027-0.056,0.053-0.111,0.08-0.166
		c0.072-0.145,0.143-0.291,0.223-0.433c0.102-0.183,0.213-0.359,0.324-0.535l-0.004-0.001l0.014-0.013c0,0,0-0.002,0.002-0.003l0,0
		l-0.002,0.003c-0.004,0.005-0.006,0.009-0.01,0.014l0.363,0.06l0.072,0.375l1.975,0.073l-0.402-0.954l-0.834-0.022l-0.193-0.614
		h-0.203c0.117-0.142,0.246-0.271,0.371-0.407h0.787l0.541,0.747l0.189,0.011c-0.189,0.031-0.189,0.094-0.188,0.227l0.004,0.248
		h0.049c0.014,0.13,0.027,0.317,0.033,0.479l0.012,0.244l1.676-0.044l0.139-0.346l0.906-0.055l0.191-0.955l-0.471-0.078l0.023-0.063
		L16.18,16.2l0.723,0.036l-0.416,0.378l0.193,0.838l0.635,0.097l-0.338,0.028l0.088,0.559l-0.281,0.04l-0.035,0.285l-0.064,0.004
		L16.586,17.8l-1.229,0.38l-2.002,1.172l0.283,1.031l0.59,0.385l0.914,0.15v1.239l0.893-0.14l0.447-0.933l1.16-0.367V19.26
		l0.414-0.312l1.137,0.269l-0.111,0.981h0.674l0.844-0.387l0.041,0.964l0.771,0.472l-0.018,0.399l-0.445,0.151v-0.036l-0.781-0.198
		l-0.111,0.388l-0.412,0.064l-0.197-0.048l-0.1-0.204l-0.291-0.127l-0.639-0.021l-0.363,0.3v0.558l-1.193,1.124l0.055,0.044
		l-1.023,0.567l-0.213,0.204v-0.629l-0.291-0.087l0.367-0.304l-0.785-0.486l-0.1,0.107l-1.039-0.942v0.135h-0.953l-0.217,0.084
		l-0.279,0.108l-0.08,0.207h-0.244h-0.426v0.219l-0.406-0.318L10.832,23l-0.053,0.666l0.922-0.077l0.025-0.18h0.08l0.025,0.168
		l0.227-0.019l-0.121,0.13l-0.111,0.765l0.705,0.38l0.957-1.336v0.604l-0.262,0.022l-0.213,0.931h1.072l0.439-0.441v-0.165
		l0.119,0.172h0.836l-0.969,1.008l-0.082,0.556l-1.215,0.804l-0.707,0.712l0.053,0.959l-0.348-0.162l0.006-0.833l-1.559,0.002
		C9.758,25.971,9.215,24.417,9.215,23.114z M15.803,16.819l-0.014,0.07l-0.84,0.051l-0.133,0.336l-0.857,0.022
		c-0.004-0.079-0.01-0.151-0.016-0.217c0.291-0.005,0.688-0.012,0.688-0.012l0.1-0.002l0.609-0.596l-0.094,0.253L15.803,16.819z
		 M21.881,17.753l-0.086,0.167h-0.893l-0.24,0.623l-1.137-0.268l1.305-0.695l-0.961-0.817l-1.545,0.194l-0.088,0.089l-0.021-0.005
		l-0.293,0.332l-0.045-0.835l0.57-0.298l1.219-0.14l1.721,0.763v0.767L21.881,17.753z M20.893,19.111l-1.195,0.588h-0.055
		l0.096-0.859L20.893,19.111z M18.021,17.991l0.537-0.559l1.154-0.146l0.232,0.198l-1.814,0.967l-0.188-0.044l-0.176,0.133
		l0.031-0.488l-0.086-0.035L18.021,17.991z M17.768,18.541l-0.625,0.47v1.341l-1.018,0.322l-0.428,0.892l-0.055,0.009v-1.091
		l-1.188-0.164l-0.385-0.25l-0.131-0.479l1.615-0.954l0.621-0.188l0.078,0.541l0.938-0.051l0.041-0.32L17.768,18.541z
		 M17.039,16.788l0.334-0.303l0.031,0.571l-0.314-0.048L17.039,16.788z M21.588,22.893l-0.004,0.093l-0.941-0.291l-0.008-0.056
		l0.156-0.107L21.588,22.893z M19.07,22.333l-0.305-0.037l-0.211-0.07v-0.074l0.043-0.036h0.307l0.076,0.033L19.07,22.333z
		 M13.438,22.707v0.168h-0.199l0.08-0.168H13.438z M12.842,23.542l-0.461,0.644l-0.01-0.005l0.039-0.265l0.346-0.374H12.842z
		 M23.119,42.66c-2.969-2.908-6.213-6.309-8.822-9.61l0.92,0.187l0.469,0.65l1.566-0.092l0.02-0.213l0.277,0.136l0.787,1.233
		l1.289,0.017l0.381,0.666l0.076,1.128l1.588,0.603l1.756,0.032l0.508,0.833l0.678,0.217l-0.094,0.44l-0.891,1.13l-0.254,2.442
		L23.119,42.66z M33.096,49.838l-1.094,0.946l-1.094-0.946c-1.232-1.064-4.135-3.621-7.428-6.826l0.367-0.292l0.262-2.509
		l0.836-1.063l0.248-1.041l-0.93-0.299l-0.555-0.911l-1.904-0.018l-1.246-0.473L20.5,35.542l-0.582-1.071l-1.307-0.017l-0.717-1.126
		l-1.057-0.513l-0.045,0.504l-0.863,0.051l-0.422-0.586l-1.502-0.306l-0.078,0.091c-1.174-1.517-2.205-3.005-2.998-4.406
		l0.785-0.001l-0.004,0.651l1.395,0.648l-0.086-1.569l0.51-0.521l1.363-0.895l0.09-0.619l1.186-1.23l1.631-0.904l-0.182-0.151
		l0.602-0.567l0.121,0.033l0.285,0.355l0.508-0.563l0.721-0.34l0.252-0.039l0.086,0.629l1.139,0.352l0.01,0.091l0.727-0.062
		l0.033-0.884l-0.807-0.366l0.586-0.2l0.047-1.036l-0.797-0.485l-0.063-1.464l-0.068,0.034l0.246-0.639h0.852l0.525-0.997
		l-0.734-0.184v-0.702l-2.143-0.948l-1.4,0.16l-0.33,0.153l0.117-0.106l-2.012-0.101l-0.555,0.167l-0.012,0.027l-0.631-0.314
		l-0.596,0.578l-0.678-0.038l-0.551-0.761h-0.561c1.936-1.856,4.555-3.005,7.441-3.005c5.309,0,9.803,3.977,10.615,9.106
		l-1.049,0.165l-0.221,1.317l0.438,0.104l-0.023,0.105l-0.867-0.173l-1.154,0.25l-0.275,0.729l0.197,1.329l0.631,0.294l-1.172,0.649
		v1.184l-2.309,1.668l0.283,1.052h0.354l-0.041,0.231l-0.352,0.13l-0.02,2.013l2.102,2.396h1.143l0.051-0.136h1.463l0.443-0.41
		h0.672l0.471,0.467l1.137,0.118l-0.154,1.561l1.416,2.499l-0.73,1.394l0.064,0.85l0.592,0.59v1.624l0.785,1.057v1.536h2.682
		l1.818-1.872l0.529-0.929l0.127-0.028v0.443l0.109,0.106C36.771,46.617,34.229,48.858,33.096,49.838z M41.793,41.645l-0.229,0.334
		c-0.488,0.484-0.967,0.952-1.441,1.41v-0.282l0.16-0.035v-0.514l0.23-0.267l0.391-0.602l-0.125-0.146l-0.314-0.368v-0.048v-0.399
		l0.266,0.034l0.564,0.073l0.125,0.017l0.297-0.593l0.012-0.026l0.316-0.633h0.174L41.793,41.645z M42.391,41.152l0.443-2.052
		h-1.098l-0.102,0.203l-0.119-1.188L41.15,37.43l1.813-1.734l2.285-3.269l-0.758-0.35l-0.775,0.163l2.174-1.575l0.824-0.536
		l-0.021-0.921l-0.926-0.119c-1.008-0.475-2.113-1.007-2.453-1.189c0.002-0.172,0.008-0.467,0.012-0.678h0.111l0.076,0.641
		l1.33,0.762l1.477,0.099l2.979,0.485l0.549,0.346v0.532l-0.098,1.024l0.635,1.044C48.09,35.176,45.189,38.332,42.391,41.152z
		 M50.705,31.723l-0.443-0.729l0.084-0.883v-0.832l-0.824-0.521l-3.15-0.532l-1.334-0.065l-1.059-0.606l-0.1-0.832h-1.047
		l-0.004,0.246c0,0-0.018,1.014-0.018,1.069c0,0.205,0,0.213,2.777,1.521l0.613,0.091l0.006,0.212l-0.602,0.392l-2.189,1.586
		l-0.891,0.058l-0.383-0.384l-0.055-0.847l-2.529-3.069l-0.467,0.543l2.426,4.57l0.717,0.354l2.197-0.463l0.064,0.029l-1.91,2.741
		l-2.063,1.967l0.5,0.879l0.189,1.883l-0.148,0.202l-1.1-0.143v1.199l0.164,0.193l-0.346,0.408v0.412l-0.16,0.186v0.148
		l-0.453,0.101l-0.584,1.044l-1.648,1.696h-1.971v-1.202l-0.785-1.057v-1.665l-0.607-0.605l-0.039-0.521l0.791-1.509l-1.473-2.599
		l0.188-1.896l-1.457-0.151l-0.49-0.488H30.02l-0.443,0.41h-1.615l-0.051,0.136h-0.568l-1.826-2.081l0.014-1.478l0.297-0.108
		l0.197-1.103h-0.568l-0.094-0.349l2.236-1.615v-1.145l0.918-0.509l0.396,0.038h0.916l0.789-0.388l1.986-0.154v1.102l1.965,0.499
		l0.385,0.276h0.664V26.72l0.73-0.072l0.988,0.737h1.822l0.742-0.679v-1.081l-0.65-0.485l-1.594,0.025l-0.406-0.446l-0.135-1.24
		l-0.977,0.532l-0.209,0.824l-0.42-0.446l-0.033-0.817l-0.838-0.719L34.283,22.5h-0.99c0.031-0.563,0.104-1.116,0.223-1.654h0.063
		l-0.018-0.129l1.58,0.015l0.938-1.395l-0.055-0.783l-0.566-0.265v-0.11l1.02-0.624v-0.799H35.82l-0.834,0.582
		c0.221-0.341,0.455-0.669,0.711-0.981l1.566-0.048l1.693,0.785l-1.945,0.084l0.174,0.85l1.959,0.055l0.809-0.631l0.205-0.543
		l0.201,0.584l1.498-0.693L44.934,17l-0.354-0.858l0.096-0.372l0.434,0.105l0.172,0.27l0.184,1.392l1.15-0.343l-0.021-1.18
		l2.035-0.909l2.391-0.151c2.301,1.976,3.766,4.898,3.766,8.161C54.785,25.401,53.119,28.47,50.705,31.723z M43.164,32.357
		l-0.863,0.182l-0.418-0.205l-1.684-3.173l1.4,1.699l0.057,0.874l0.676,0.677L43.164,32.357z"/>
</g>
</svg>
