<?xml version="1.0" encoding="utf-8"?>
<!-- Generator: Adobe Illustrator 16.0.0, SVG Export Plug-In . SVG Version: 6.00 Build 0)  -->
<!DOCTYPE svg PUBLIC "-//W3C//DTD SVG 1.1//EN" "http://www.w3.org/Graphics/SVG/1.1/DTD/svg11.dtd">
<svg version="1.1" id="Layer_1" xmlns="http://www.w3.org/2000/svg" xmlns:xlink="http://www.w3.org/1999/xlink" x="0px" y="0px"
	 width="64px" height="64px" viewBox="0 0 64 64" enable-background="new 0 0 64 64" xml:space="preserve">
<g>
	<path d="M36.346,36.918c-1.189,0.063-2.422,0.108-3.746,0.108c-1.482,0-2.861-0.054-4.184-0.134
		c0.295,2.739,0.746,5.026,1.25,6.907c0.969,0.06,1.965,0.104,3.029,0.104c0.846,0,1.658-0.021,2.441-0.059
		C35.631,41.951,36.064,39.65,36.346,36.918z"/>
	<path d="M12.006,30.7c0.057,0.083,0.115,0.165,0.172,0.249c0.916,0.495,2.568,1.271,5.031,2.019
		c-0.049-0.879-0.078-1.785-0.078-2.735c0-0.596,0.023-1.154,0.041-1.722C14.398,29.381,12.719,30.272,12.006,30.7z"/>
	<path d="M17.377,35.147c-1.006-0.282-1.891-0.576-2.678-0.865c0.961,1.181,1.992,2.365,3.055,3.532
		C17.609,36.969,17.475,36.093,17.377,35.147z"/>
	<path d="M8.93,23.278c-0.002,0.054-0.008,0.105-0.008,0.159c0,1.558,0.762,3.469,1.994,5.551c0.9-0.547,2.967-1.648,6.375-2.643
		c0.211-2.732,0.619-5.115,1.143-7.127C13.406,20.774,9.947,22.685,8.93,23.278z"/>
	<path d="M19.363,25.805c1.945-0.46,4.238-0.854,6.881-1.117c0.223-2.837,0.613-5.269,1.072-7.358
		c-2.355,0.272-4.561,0.712-6.572,1.233C20.145,20.542,19.633,22.946,19.363,25.805z"/>
	<path d="M21.008,12.605c-0.391-0.044-0.783-0.071-1.184-0.071c-5.092,0-9.365,3.514-10.559,8.236
		c1.928-1.02,5.357-2.632,9.877-3.898C19.748,15.096,20.408,13.695,21.008,12.605z"/>
	<path d="M52.332,30.18c-0.898-0.481-2.313-1.13-4.307-1.761c0.016,0.528,0.039,1.047,0.039,1.602c0,1.005-0.035,1.958-0.086,2.883
		c1.455-0.472,2.584-0.95,3.418-1.357C51.729,31.084,52.037,30.63,52.332,30.18z"/>
	<path d="M47.678,36.191c0.422-0.485,0.838-0.971,1.24-1.457c-0.352,0.117-0.717,0.234-1.104,0.35
		C47.775,35.467,47.727,35.827,47.678,36.191z"/>
	<polygon points="31.912,51.387 32.002,51.466 32.27,51.235 32.186,51.169 	"/>
	<path d="M55.078,23.438c0-0.1-0.012-0.194-0.014-0.292c-1.271-1.052-3.887-2.621-8.268-3.989c0.514,2.001,0.912,4.368,1.115,7.093
		c2.584,0.753,4.369,1.582,5.484,2.195C54.447,26.572,55.078,24.855,55.078,23.438z"/>
	<path d="M32.695,45.93c-0.834,0-1.635-0.023-2.412-0.059c0.914,2.721,1.832,4.227,2.178,4.739c0.447-0.719,1.271-2.248,2.08-4.727
		C33.936,45.905,33.334,45.93,32.695,45.93z"/>
	<path d="M45.844,25.713c-0.258-2.852-0.752-5.235-1.336-7.198c-2.1-0.537-4.49-0.996-7.172-1.257
		c0.473,2.068,0.875,4.496,1.115,7.326C41.338,24.82,43.779,25.231,45.844,25.713z"/>
	<path d="M45.137,39.002c0.219-1.035,0.412-2.147,0.559-3.361c-2.033,0.482-4.449,0.894-7.297,1.139
		c-0.256,2.677-0.652,4.973-1.121,6.906c1.402-0.136,2.666-0.337,3.836-0.572C42.43,41.819,43.793,40.434,45.137,39.002z"/>
	<path d="M36.729,45.758c-0.248,0.825-0.504,1.544-0.756,2.205c0.779-0.708,1.656-1.516,2.594-2.4
		C37.971,45.636,37.367,45.706,36.729,45.758z"/>
	<path d="M37.088,15.21c2.428,0.212,4.65,0.565,6.633,1.01c-0.596-1.508-1.201-2.635-1.713-3.462
		C40.16,13.142,38.479,14.009,37.088,15.21z"/>
	<path d="M54.633,20.374c-1.322-4.508-5.48-7.813-10.404-7.836c0.605,1.092,1.266,2.493,1.869,4.276
		C50.051,17.918,52.842,19.264,54.633,20.374z"/>
	<path d="M21.547,16.258c1.711-0.394,3.555-0.712,5.492-0.935c-1.133-1.012-2.469-1.797-3.939-2.27
		C22.629,13.855,22.084,14.9,21.547,16.258z"/>
	<path d="M46.037,30.021c0-0.755-0.021-1.478-0.053-2.182c-2.012-0.505-4.473-0.941-7.395-1.201
		c0.064,1.208,0.111,2.457,0.111,3.795c0,1.53-0.059,2.943-0.143,4.295c2.914-0.27,5.354-0.713,7.342-1.223
		C45.98,32.399,46.037,31.254,46.037,30.021z"/>
	<path d="M36.398,24.455c-0.258-2.804-0.674-5.207-1.156-7.209c-1.178,1.686-1.896,3.712-1.959,5.89l-2.57,0.002
		c-0.051-1.854-0.578-3.595-1.459-5.111c-0.398,1.865-0.742,4.014-0.953,6.492c1.441-0.095,2.957-0.157,4.594-0.157
		C34.127,24.361,35.283,24.401,36.398,24.455z"/>
	<path d="M22.477,42.717c1.479,0.371,3.152,0.685,5.029,0.896c-0.473-1.918-0.877-4.207-1.145-6.872
		c-2.629-0.242-4.912-0.62-6.867-1.063c0.23,1.872,0.57,3.535,0.963,5.004C21.135,41.38,21.811,42.059,22.477,42.717z"/>
	<path d="M26.191,34.683c-0.094-1.423-0.156-2.922-0.156-4.546c0-1.191,0.037-2.312,0.088-3.401
		c-2.701,0.285-4.998,0.715-6.91,1.199c-0.035,0.741-0.057,1.504-0.057,2.298c0,1.167,0.055,2.256,0.131,3.307
		C21.209,34.01,23.518,34.417,26.191,34.683z"/>
	<path d="M28.061,30.137c0,1.692,0.066,3.251,0.17,4.714c1.373,0.091,2.814,0.15,4.369,0.15c1.395,0,2.684-0.051,3.92-0.123
		c0.094-1.388,0.154-2.854,0.154-4.445c0-1.394-0.051-2.689-0.123-3.938c-1.16-0.063-2.363-0.107-3.656-0.107
		c-1.691,0-3.256,0.064-4.73,0.168C28.104,27.697,28.061,28.875,28.061,30.137z"/>
	<path d="M28.09,45.716c-1.018-0.094-1.977-0.22-2.887-0.366c1.631,1.54,3.084,2.859,4.188,3.84
		C28.975,48.271,28.525,47.122,28.09,45.716z"/>
</g>
</svg>
