<?xml version="1.0" encoding="utf-8"?>
<!-- Generator: Adobe Illustrator 16.0.0, SVG Export Plug-In . SVG Version: 6.00 Build 0)  -->
<!DOCTYPE svg PUBLIC "-//W3C//DTD SVG 1.1//EN" "http://www.w3.org/Graphics/SVG/1.1/DTD/svg11.dtd">
<svg version="1.1" id="Layer_1" xmlns="http://www.w3.org/2000/svg" xmlns:xlink="http://www.w3.org/1999/xlink" x="0px" y="0px"
	 width="64px" height="64px" viewBox="0 0 64 64" enable-background="new 0 0 64 64" xml:space="preserve">
<g>
	<path d="M50.874,18.79c-0.352-0.497-0.719-0.982-1.109-1.449c-0.018-0.021-1.574,1.092-1.535,1.14
		c-1.412,1.166-6.24,2.757-6.229,2.793c-2.719,0.805-5.791,1.293-9.053,1.372h-1.896c-6.078,0.001-14.018-3.337-15.283-4.166
		c0.018-0.021-1.518-1.156-1.533-1.138c-0.389,0.467-0.758,0.952-1.109,1.449c-2.672,3.771-4.25,8.369-4.25,13.332
		c0,4.964,1.578,9.563,4.25,13.334c0.352,0.496,0.721,0.982,1.109,1.449c4.221,5.059,10.551,8.297,17.629,8.338
		c0.027,0,0.055,0.004,0.08,0.004c0.008,0,0.014-0.002,0.021-0.002c0.01,0,0.021,0.002,0.033,0.002
		c7.133,0,13.521-3.248,17.766-8.341c0.389-0.467,0.758-0.953,1.109-1.45c2.672-3.771,4.25-8.37,4.25-13.334
		C55.124,27.161,53.546,22.562,50.874,18.79z M14.655,19.93c1.438,0.961,3.1,1.8,4.938,2.491c-0.793,2.898-1.248,6.113-1.266,9.508
		h-7.549C10.819,27.465,12.255,23.334,14.655,19.93z M10.849,33.826h7.516c0.123,2.841,0.553,5.536,1.227,8.001
		c-1.838,0.691-3.5,1.531-4.936,2.491C12.528,41.301,11.159,37.714,10.849,33.826z M15.774,45.765
		c1.264-0.827,2.729-1.559,4.355-2.168c1.219,3.599,2.984,6.593,5.111,8.644C21.513,50.984,18.255,48.711,15.774,45.765z
		 M31.052,53.282c-3.893-0.534-7.254-4.528-9.16-10.276c2.746-0.825,5.855-1.323,9.16-1.404V53.282z M31.052,39.705
		c-3.484,0.084-6.768,0.623-9.691,1.52c-0.598-2.274-0.982-4.769-1.098-7.398h10.789V39.705z M31.052,31.929H20.226
		c0.016-3.188,0.432-6.196,1.145-8.902c2.92,0.894,6.201,1.433,9.682,1.517V31.929z M49.345,19.931
		c2.398,3.403,3.836,7.534,3.875,11.998h-7.658c-0.016-3.379-0.467-6.582-1.254-9.47C46.187,21.761,47.882,20.908,49.345,19.931z
		 M32.948,24.543c3.439-0.083,6.686-0.61,9.578-1.486c0.709,2.698,1.121,5.697,1.139,8.872H32.948V24.543z M32.948,33.826h10.678
		c-0.115,2.618-0.496,5.101-1.09,7.367c-2.898-0.878-6.146-1.406-9.588-1.488V33.826z M32.948,53.268V41.602
		c3.264,0.08,6.336,0.568,9.057,1.374C40.12,48.687,36.8,52.673,32.948,53.268z M38.589,52.298c2.16-2.059,3.955-5.088,5.182-8.735
		c1.668,0.616,3.166,1.359,4.455,2.202C45.706,48.757,42.388,51.053,38.589,52.298z M49.347,44.319
		c-1.463-0.979-3.16-1.832-5.039-2.531c0.668-2.454,1.094-5.137,1.215-7.962h7.629C52.841,37.714,51.474,41.303,49.347,44.319z"/>
	<path d="M19.052,18.714l0.004,0.003l6.842-0.14l0.926-0.963l-0.385-2.405c0,0,3.988-1.666,6.922-1.529
		c2.938,0.138,5.506,1.298,5.506,1.298l-0.141,2.414l0.006,0.002c0.01,0.554,0.969,0.928,0.969,0.928l0.004,0.002l6.84-0.14
		l0.928-0.961l-0.299-2.405c-0.26-1.465-2.734-6.161-14.158-6.063c-11.854,0.102-14.57,5.042-14.693,6.615l-0.24,2.412l0.002,0.002
		C18.095,18.337,19.052,18.714,19.052,18.714z"/>
</g>
</svg>
