<?xml version="1.0" encoding="utf-8"?>
<!-- Generator: Adobe Illustrator 16.0.0, SVG Export Plug-In . SVG Version: 6.00 Build 0)  -->
<!DOCTYPE svg PUBLIC "-//W3C//DTD SVG 1.1//EN" "http://www.w3.org/Graphics/SVG/1.1/DTD/svg11.dtd">
<svg version="1.1" id="Layer_1" xmlns="http://www.w3.org/2000/svg" xmlns:xlink="http://www.w3.org/1999/xlink" x="0px" y="0px"
	 width="64px" height="64px" viewBox="0 0 64 64" enable-background="new 0 0 64 64" xml:space="preserve">
<path d="M49.466,17.946c-0.371-0.524-0.76-1.035-1.17-1.527c-4.446-5.333-11.121-8.747-18.582-8.79
	c-0.028,0-0.056-0.003-0.084-0.003c-0.007,0-0.014,0-0.021,0c-0.012,0-0.023,0-0.036,0c-0.353,0-0.701,0.015-1.05,0.029v46.684
	c-2.084-0.042-4.77-0.232-6.069-0.814c-0.774-0.385-1.333-0.693-1.744-0.945l1.196-1.159l0.147-8.559l-0.002-0.004
	c0,0-0.475-1.197-1.166-1.208l-0.003-0.006l-3.018,0.185c0,0-1.463-3.21-1.645-6.882c-0.182-3.671,1.886-8.666,1.886-8.666
	l3.009,0.471l1.202-1.161l0.148-8.559l-0.003-0.006c0,0-0.477-1.195-1.17-1.208l-0.001-0.004l-3.019,0.311
	c-1.967,0.162-8.137,3.577-8.218,18.409c-0.077,14.283,5.802,17.365,7.638,17.685c0.326,1.061,1.307,1.824,3.907,3.114
	c1.707,0.766,4.787,0.966,6.923,1.007v0.006c0.349,0.015,0.698,0.029,1.05,0.029c0.013,0,0.024-0.002,0.036-0.002
	c0.008,0,0.015,0.002,0.021,0.002c0.028,0,0.056-0.004,0.084-0.004c7.461-0.043,14.135-3.457,18.582-8.789
	c0.41-0.492,0.799-1.004,1.17-1.527c2.816-3.975,4.479-8.822,4.479-14.055C53.946,26.768,52.283,21.921,49.466,17.946z
	 M51.941,31.794h-7.957c-0.018-3.578-0.497-6.967-1.333-10.021c1.938-0.729,3.689-1.613,5.204-2.626
	C50.384,22.734,51.898,27.089,51.941,31.794z M46.681,17.618c-1.334,0.874-2.881,1.646-4.6,2.289
	c-1.283-3.792-3.144-6.951-5.385-9.111C40.626,12.12,44.066,14.512,46.681,17.618z M30.573,9.697
	c4.102,0.563,7.64,4.776,9.648,10.835c-2.893,0.867-6.169,1.393-9.648,1.477V9.697z M30.573,24.009
	c3.667-0.088,7.126-0.656,10.204-1.599c0.752,2.853,1.19,6.024,1.207,9.384H30.573V24.009z M30.573,33.794h11.371
	c-0.122,2.772-0.526,5.401-1.157,7.799c-3.081-0.945-6.543-1.514-10.214-1.602V33.794z M30.573,54.302V41.99
	c3.481,0.085,6.76,0.61,9.653,1.479C38.218,49.529,34.675,53.739,30.573,54.302z M36.697,53.204
	c2.241-2.162,4.104-5.318,5.387-9.111c1.715,0.643,3.259,1.413,4.592,2.285C44.06,49.483,40.626,51.88,36.697,53.204z
	 M47.855,44.854c-1.514-1.012-3.266-1.897-5.203-2.626c0.71-2.598,1.164-5.439,1.293-8.434h7.923
	C51.541,37.892,50.097,41.673,47.855,44.854z"/>
</svg>
