<?xml version="1.0" encoding="utf-8"?>
<!-- Generator: Adobe Illustrator 16.0.0, SVG Export Plug-In . SVG Version: 6.00 Build 0)  -->
<!DOCTYPE svg PUBLIC "-//W3C//DTD SVG 1.1//EN" "http://www.w3.org/Graphics/SVG/1.1/DTD/svg11.dtd">
<svg version="1.1" id="Layer_1" xmlns="http://www.w3.org/2000/svg" xmlns:xlink="http://www.w3.org/1999/xlink" x="0px" y="0px"
	 width="64px" height="64px" viewBox="0 0 64 64" enable-background="new 0 0 64 64" xml:space="preserve">
<g>
	<path d="M56.373,32C56.373,18.562,45.439,7.627,32,7.626l0,0h-0.002C18.559,7.626,7.625,18.561,7.625,32
		c0,0.056,0.004,0.109,0.006,0.165c-0.002,0.028-0.006,0.057-0.006,0.086c0,0.093,0.01,0.184,0.014,0.275
		C7.92,45.71,18.715,56.351,31.959,56.372c0.014,0,0.027,0.002,0.041,0.002s0.029-0.002,0.043-0.002
		c13.244-0.024,24.035-10.664,24.318-23.846c0.002-0.092,0.012-0.183,0.012-0.275c0-0.029-0.004-0.058-0.004-0.086
		C56.369,32.109,56.373,32.056,56.373,32z M53.705,26.576c-2.324-2.302-6.041-4.162-10.627-5.317
		c-1.135-4.684-2.998-8.488-5.316-10.876C45.588,12.471,51.736,18.703,53.705,26.576z M33,9.738
		c3.303,0.729,6.203,5.023,7.852,11.029c-2.441-0.467-5.08-0.744-7.852-0.798V9.738z M31,9.738V19.97
		c-2.771,0.054-5.41,0.331-7.85,0.797C24.797,14.761,27.697,10.468,31,9.738z M26.238,10.382c-2.318,2.388-4.182,6.192-5.316,10.877
		c-4.586,1.155-8.303,3.015-10.629,5.317C12.262,18.702,18.412,12.469,26.238,10.382z M20.451,23.486
		c-0.455,2.492-0.711,5.188-0.738,8.015H9.695C10.248,28.153,14.461,25.191,20.451,23.486z M19.73,33.501
		c0.078,2.663,0.363,5.195,0.824,7.543c-5.744-1.615-9.873-4.383-10.75-7.543H19.73z M10.48,38.112
		c2.361,2.239,6.053,4.044,10.58,5.165c1.143,4.438,2.949,8.044,5.178,10.34C18.641,51.591,12.629,45.659,10.48,38.112z M33,54.262
		h-2c-6.967-1.359-9.174-17.901-9.266-20.761l-0.021-2c0.031-3.022,0.355-5.918,0.912-8.559c2.58-0.566,5.412-0.91,8.375-0.974h2
		c2.963,0.063,5.795,0.408,8.375,0.974c0.557,2.641,0.881,5.536,0.912,8.559l-0.021,2C42.174,36.359,39.762,52.979,33,54.262z
		 M37.764,53.616c2.229-2.296,4.033-5.902,5.178-10.339c4.525-1.122,8.217-2.926,10.576-5.165
		C51.371,45.658,45.359,51.59,37.764,53.616z M43.445,41.044c0.461-2.348,0.746-4.881,0.824-7.543h9.924
		C53.318,36.66,49.189,39.429,43.445,41.044z M44.287,31.501c-0.027-2.826-0.283-5.521-0.738-8.015
		c5.99,1.705,10.201,4.667,10.756,8.015H44.287z"/>
	<path d="M32.23,32.28c2.355,0,4.27-1.915,4.27-4.271s-1.914-4.271-4.27-4.271s-4.271,1.915-4.271,4.271S29.875,32.28,32.23,32.28z"
		/>
	<path d="M36.314,33.345c-0.154-0.367-0.438-0.504-0.73-0.486v-0.006h-6.49v0.009c-0.23,0.024-0.441,0.16-0.568,0.456
		c-0.766,1.812-1.533,3.621-2.299,5.433c-0.438,1.033,1.078,1.932,1.52,0.89c0.449-1.063,0.898-2.123,1.348-3.183v3.933
		c0,0.005-0.002,0.009-0.002,0.014c0,3.309,0,6.617,0,9.926c0,1.703,2.641,1.703,2.641,0c0-2.637,0-5.275,0-7.913h1.211
		c0,2.638,0,5.276,0,7.913c0,1.703,2.641,1.703,2.641,0c0-2.637,0-5.275,0-7.913c0-0.671,0-1.342,0-2.013v-4.026
		c0.521,1.225,1.043,2.449,1.564,3.674c0.471,1.105,2.088,0.153,1.621-0.942C37.951,37.188,37.133,35.267,36.314,33.345z"/>
</g>
</svg>
