<?xml version="1.0" encoding="utf-8"?>
<!-- Generator: Adobe Illustrator 16.0.0, SVG Export Plug-In . SVG Version: 6.00 Build 0)  -->
<!DOCTYPE svg PUBLIC "-//W3C//DTD SVG 1.1//EN" "http://www.w3.org/Graphics/SVG/1.1/DTD/svg11.dtd">
<svg version="1.1" id="Layer_1" xmlns="http://www.w3.org/2000/svg" xmlns:xlink="http://www.w3.org/1999/xlink" x="0px" y="0px"
	 width="64px" height="64px" viewBox="0 0 64 64" enable-background="new 0 0 64 64" xml:space="preserve">
<g>
	<path d="M28.785,32.194c1.298,0,2.416-0.731,3.002-1.794c0.585,1.063,1.704,1.794,3.002,1.794c1.896,0,3.439-1.543,3.439-3.44
		c0-1.896-1.543-3.438-3.439-3.438c-1.298,0-2.417,0.73-3.002,1.793c-0.586-1.063-1.704-1.793-3.002-1.793
		c-1.897,0-3.439,1.543-3.439,3.438C25.346,30.651,26.888,32.194,28.785,32.194z M34.789,26.424c1.284,0,2.331,1.045,2.331,2.33
		c0,1.287-1.047,2.332-2.331,2.332c-1.286,0-2.331-1.045-2.331-2.332C32.458,27.469,33.503,26.424,34.789,26.424z M28.785,26.424
		c1.285,0,2.331,1.045,2.331,2.33c0,1.287-1.046,2.332-2.331,2.332c-1.286,0-2.331-1.045-2.331-2.332
		C26.454,27.469,27.499,26.424,28.785,26.424z"/>
	<path d="M38.006,32.955c-0.124-0.29-0.347-0.396-0.576-0.384v-0.003h-5.111v0.006c-0.15,0.016-0.282,0.111-0.382,0.271
		c-0.128-0.201-0.315-0.285-0.51-0.274v-0.003h-5.112v0.006c-0.18,0.02-0.347,0.126-0.445,0.358
		c-0.604,1.427-1.208,2.852-1.811,4.278c-0.345,0.813,0.85,1.52,1.196,0.699c0.353-0.835,0.707-1.671,1.06-2.505v3.097
		c0,0.003,0,0.007,0,0.01c0,2.604,0,5.211,0,7.815c0,1.34,2.079,1.34,2.079,0c0-2.078,0-4.154,0-6.23h0.953c0,2.076,0,4.152,0,6.23
		c0,1.34,2.08,1.34,2.08,0c0-2.078,0-4.154,0-6.23c0-0.105,0-0.208,0-0.313c-0.956-0.803-3.258-2.874-3.258-4.2
		c0-1.125,0.914-2.04,2.039-2.04c0.682,0,1.301,0.336,1.676,0.881c0.374-0.545,0.992-0.881,1.675-0.881
		c1.125,0,2.04,0.915,2.04,2.04c0,1.344-2.34,3.433-3.281,4.219c0,2.175,0,4.35,0,6.524c0,1.34,2.079,1.34,2.079,0
		c0-2.078,0-4.154,0-6.23h0.954c0,2.076,0,4.152,0,6.23c0,1.34,2.079,1.34,2.079,0c0-2.078,0-4.154,0-6.23c0-0.528,0-1.057,0-1.585
		v-3.171c0.41,0.965,0.82,1.93,1.23,2.894c0.37,0.871,1.643,0.121,1.276-0.741C39.292,35.98,38.648,34.468,38.006,32.955z"/>
	<path d="M56.374,32c0-13.438-10.934-24.373-24.373-24.374H32h-0.001C18.56,7.626,7.626,18.561,7.626,32
		c0,0.056,0.004,0.109,0.005,0.165c-0.001,0.028-0.005,0.057-0.005,0.086c0,0.093,0.01,0.184,0.014,0.275
		C7.921,45.71,18.715,56.351,31.96,56.372c0.014,0,0.027,0.002,0.041,0.002s0.028-0.002,0.043-0.002
		c13.244-0.024,24.035-10.664,24.317-23.846c0.003-0.092,0.013-0.183,0.013-0.275c0-0.029-0.004-0.058-0.004-0.086
		C56.37,32.109,56.374,32.056,56.374,32z M53.706,26.576c-2.325-2.302-6.041-4.162-10.627-5.317
		c-1.135-4.684-2.998-8.488-5.316-10.876C45.589,12.471,51.737,18.703,53.706,26.576z M33.001,9.738
		c3.303,0.729,6.203,5.023,7.851,11.029c-2.44-0.467-5.079-0.744-7.851-0.798V9.738z M31.001,9.738V19.97
		c-2.772,0.054-5.41,0.331-7.851,0.797C24.798,14.761,27.698,10.468,31.001,9.738z M26.239,10.382
		c-2.318,2.388-4.182,6.192-5.316,10.877c-4.587,1.155-8.303,3.015-10.629,5.317C12.263,18.702,18.413,12.469,26.239,10.382z
		 M20.452,23.486c-0.455,2.492-0.711,5.188-0.738,8.015H9.696C10.249,28.153,14.462,25.191,20.452,23.486z M19.731,33.501
		c0.078,2.663,0.363,5.195,0.824,7.543c-5.744-1.615-9.874-4.383-10.75-7.543H19.731z M10.481,38.112
		c2.36,2.239,6.053,4.044,10.579,5.165c1.144,4.438,2.949,8.044,5.178,10.34C18.642,51.591,12.629,45.659,10.481,38.112z
		 M33.001,54.262h-2c-6.968-1.359-9.174-17.901-9.266-20.761l-0.021-2c0.031-3.022,0.355-5.918,0.912-8.559
		c2.58-0.566,5.412-0.91,8.375-0.974h2c2.963,0.063,5.795,0.408,8.375,0.974c0.557,2.641,0.881,5.536,0.912,8.559l-0.021,2
		C42.175,36.359,39.763,52.979,33.001,54.262z M37.764,53.616c2.229-2.296,4.034-5.902,5.178-10.339
		c4.526-1.122,8.218-2.926,10.577-5.165C51.372,45.658,45.359,51.59,37.764,53.616z M43.446,41.044
		c0.461-2.348,0.746-4.881,0.824-7.543h9.924C53.319,36.66,49.19,39.429,43.446,41.044z M44.288,31.501
		c-0.027-2.826-0.283-5.521-0.738-8.015c5.99,1.705,10.201,4.667,10.756,8.015H44.288z"/>
</g>
</svg>
