<?xml version="1.0" encoding="utf-8"?>
<!-- Generator: Adobe Illustrator 16.0.0, SVG Export Plug-In . SVG Version: 6.00 Build 0)  -->
<!DOCTYPE svg PUBLIC "-//W3C//DTD SVG 1.1//EN" "http://www.w3.org/Graphics/SVG/1.1/DTD/svg11.dtd">
<svg version="1.1" id="Layer_1" xmlns="http://www.w3.org/2000/svg" xmlns:xlink="http://www.w3.org/1999/xlink" x="0px" y="0px"
	 width="64px" height="64px" viewBox="0 0 64 64" enable-background="new 0 0 64 64" xml:space="preserve">
<g>
	<path d="M45.604,36.055l0.058,4c0.359-0.009,0.612-0.008,0.758,0.713c0.512,2.526-2.088,8.81-7.693,11.085
		c-7.518,3.023-15.113,0.892-19.306-2.565c-1.837-1.515-2.904-3.215-3.01-4.706l3.059,0.026c0,0-4.546-7.651-4.583-9.332
		c-0.036-1.679-5.398,9.245-5.398,9.245l2.922,0.025c0.073,2.708,1.628,5.488,4.466,7.828c3.411,2.812,8.649,4.913,14.448,4.913
		c2.88,0,5.899-0.519,8.901-1.726c6.907-2.805,11.109-10.683,10.115-15.588C49.842,37.521,48.009,36.036,45.604,36.055z"/>
	<polygon points="33.739,7.1 33.739,22.08 46.496,21.605 	"/>
	<polygon points="31.437,9.853 21.319,22.434 31.437,22.083 	"/>
	<polygon points="32.973,6.713 32.271,6.713 32.193,22.144 32.973,22.087 	"/>
	<path d="M31.544,24.32c3.706,0,7.062,1.476,9.53,3.863c1.107-1.893,8.587-6.177,6.518-6.104
		c-2.223,0.082-28.521,1.042-29.815,1.089c-1.083,0.039,2.813,3.443,3.907,5.345C24.178,25.932,27.67,24.32,31.544,24.32z"/>
	<path d="M36.695,26.601c-0.024-0.026-0.043-0.048-0.051-0.055l-0.022,0.021c-1.61-0.757-3.406-1.183-5.3-1.183
		c-0.278,0-0.553,0.013-0.826,0.03l0-0.001l0,0.001c-6.508,0.428-11.672,5.855-11.672,12.47c0,6.893,5.607,12.5,12.5,12.5
		c6.893,0,12.5-5.607,12.5-12.5C43.823,32.915,40.907,28.613,36.695,26.601z M36.064,27.439c0.286,0.353,0.941,1.27,1.543,2.857
		c-1.116-0.303-2.435-0.549-3.969-0.678c-0.407-1.457-0.854-2.495-1.19-3.153C33.727,26.592,34.942,26.929,36.064,27.439z
		 M34.605,35.855c1.663,0.146,3.055,0.394,4.19,0.682c0.018,0.401,0.03,0.813,0.03,1.244c0,0.693-0.032,1.338-0.078,1.958
		c-1.123,0.291-2.501,0.546-4.154,0.697c0.048-0.759,0.076-1.565,0.076-2.428C34.67,37.249,34.644,36.541,34.605,35.855z
		 M34.537,34.815c-0.135-1.607-0.364-2.981-0.632-4.146c1.631,0.164,2.988,0.47,4.098,0.819c0.317,1.087,0.583,2.4,0.72,3.966
		C37.562,35.18,36.174,34.947,34.537,34.815z M31.341,40.585c-0.877,0-1.69-0.034-2.463-0.085c-0.06-0.822-0.097-1.701-0.097-2.654
		c0-0.714,0.025-1.381,0.06-2.026c0.829-0.06,1.712-0.097,2.664-0.097c0.733,0,1.413,0.025,2.068,0.063
		c0.042,0.704,0.071,1.436,0.071,2.224c0,0.896-0.035,1.724-0.088,2.505C32.858,40.556,32.129,40.585,31.341,40.585z M33.468,41.553
		c-0.158,1.554-0.404,2.856-0.685,3.924c-0.445,0.022-0.907,0.036-1.389,0.036c-0.603,0-1.167-0.025-1.713-0.061
		c-0.287-1.062-0.542-2.36-0.708-3.919c0.748,0.046,1.528,0.078,2.368,0.078C32.09,41.611,32.796,41.59,33.468,41.553z
		 M28.909,34.787c0.138-1.636,0.375-3.028,0.65-4.187c0.547-0.035,1.112-0.06,1.717-0.06c0.541,0,1.052,0.019,1.547,0.047
		c0.282,1.145,0.526,2.531,0.673,4.16c-0.631-0.032-1.292-0.052-1.992-0.052C30.58,34.696,29.722,34.732,28.909,34.787z
		 M31.083,26.416c0.054,0,0.108-0.003,0.163-0.004c0.25,0.421,0.788,1.444,1.293,3.134c-0.409-0.018-0.826-0.03-1.262-0.03
		c-0.499,0-0.979,0.013-1.441,0.035C30.296,27.963,30.795,26.933,31.083,26.416z M26.704,27.385c0.993-0.438,2.058-0.739,3.173-0.88
		c-0.337,0.689-0.757,1.722-1.137,3.128c-1.377,0.126-2.576,0.346-3.601,0.617C25.796,28.559,26.494,27.637,26.704,27.385z
		 M27.808,35.912c-0.03,0.618-0.052,1.256-0.052,1.934c0,0.916,0.032,1.769,0.085,2.568c-1.521-0.149-2.828-0.381-3.914-0.648
		c-0.043-0.593-0.074-1.207-0.074-1.867c0-0.45,0.012-0.884,0.032-1.303C24.968,36.318,26.271,36.072,27.808,35.912z M23.964,35.508
		c0.147-1.604,0.43-2.953,0.765-4.063c1.027-0.318,2.275-0.593,3.751-0.753c-0.263,1.181-0.486,2.562-0.612,4.182
		C26.364,35.02,25.061,35.245,23.964,35.508z M27.926,41.455c0.15,1.526,0.387,2.82,0.658,3.904
		c-1.466-0.16-2.713-0.434-3.744-0.751c-0.339-1.028-0.633-2.279-0.81-3.758C25.133,41.104,26.428,41.319,27.926,41.455z
		 M24.813,28.443c-0.301,0.58-0.618,1.305-0.911,2.186c-0.869,0.3-1.579,0.621-2.141,0.924
		C22.571,30.332,23.609,29.276,24.813,28.443z M20.748,33.435l0.019,0.019c0.016-0.016,0.879-0.821,2.767-1.581
		c-0.284,1.106-0.505,2.413-0.619,3.911c-1.405,0.406-2.4,0.848-3.024,1.173C19.99,35.717,20.284,34.532,20.748,33.435z
		 M19.856,38.155c0.369-0.226,1.351-0.758,2.997-1.269c-0.012,0.332-0.024,0.662-0.024,1.012c0,0.551,0.019,1.073,0.048,1.58
		c-1.557-0.467-2.546-0.959-3.019-1.229C19.857,38.218,19.856,38.187,19.856,38.155z M19.96,39.468
		c0.663,0.327,1.65,0.737,3.001,1.114c0.141,1.379,0.383,2.571,0.672,3.6c-1.588-0.632-2.469-1.289-2.733-1.507
		C20.439,41.674,20.117,40.598,19.96,39.468z M22.025,44.596c0.545,0.278,1.214,0.567,2.013,0.839
		c0.283,0.778,0.583,1.429,0.869,1.959C23.79,46.637,22.815,45.688,22.025,44.596z M26.833,48.443
		c-0.202-0.231-0.878-1.075-1.539-2.63c1.025,0.268,2.22,0.484,3.585,0.608c0.419,1.367,0.871,2.303,1.193,2.867
		C28.934,49.165,27.846,48.876,26.833,48.443z M31.267,49.264c-0.156-0.221-0.72-1.095-1.273-2.76c0.45,0.021,0.916,0.034,1.4,0.034
		c0.376,0,0.733-0.013,1.088-0.026C32.002,47.998,31.508,48.887,31.267,49.264z M35.949,48.382
		c-1.092,0.483-2.273,0.803-3.512,0.922c0.326-0.597,0.757-1.53,1.153-2.858c1.46-0.115,2.732-0.335,3.809-0.614
		C36.761,47.365,36.116,48.185,35.949,48.382z M33.873,45.396c0.266-1.091,0.496-2.391,0.64-3.917
		c1.617-0.137,2.987-0.371,4.132-0.646c-0.179,1.504-0.474,2.768-0.81,3.804C36.757,44.966,35.445,45.247,33.873,45.396z
		 M37.85,47.314c0.264-0.508,0.541-1.124,0.804-1.862c0.758-0.259,1.402-0.534,1.929-0.802
		C39.827,45.683,38.903,46.584,37.85,47.314z M41.732,42.706c-0.286,0.241-1.146,0.89-2.689,1.506
		c0.289-1.042,0.533-2.252,0.674-3.664c1.41-0.417,2.385-0.874,2.984-1.208C42.551,40.527,42.219,41.659,41.732,42.706z
		 M39.801,39.436c0.03-0.53,0.051-1.076,0.051-1.654c0-0.329-0.013-0.639-0.023-0.952c1.591,0.496,2.533,1.021,2.925,1.271
		C42.524,38.262,41.588,38.862,39.801,39.436z M42.753,36.906c-0.623-0.337-1.599-0.777-2.982-1.178
		c-0.106-1.461-0.317-2.73-0.587-3.815c1.76,0.712,2.622,1.444,2.719,1.531C42.358,34.524,42.65,35.689,42.753,36.906z
		 M38.832,30.675c-0.278-0.856-0.582-1.566-0.875-2.144c1.154,0.821,2.15,1.848,2.933,3.029
		C40.344,31.271,39.66,30.963,38.832,30.675z"/>
	<path d="M55.107,29.002c-0.021,0.014-2.077,1.413-5.236-0.193c-3.765-1.918-6.397,1.002-6.424,1.031l0.75,0.662
		c0.087-0.099,2.16-2.358,5.221-0.803c1.311,0.667,2.467,0.885,3.419,0.885c1.727,0,2.778-0.717,2.845-0.764L55.107,29.002z"/>
	<path d="M14.288,29.699c1.311,0.667,2.467,0.885,3.419,0.885c1.727,0,2.778-0.717,2.845-0.764l-0.575-0.818
		c-0.02,0.014-2.077,1.413-5.236-0.193c-3.766-1.918-6.397,1.002-6.424,1.031l0.75,0.662C9.154,30.403,11.227,28.144,14.288,29.699z
		"/>
</g>
</svg>
