<?xml version="1.0" encoding="utf-8"?>
<!-- Generator: Adobe Illustrator 16.0.0, SVG Export Plug-In . SVG Version: 6.00 Build 0)  -->
<!DOCTYPE svg PUBLIC "-//W3C//DTD SVG 1.1//EN" "http://www.w3.org/Graphics/SVG/1.1/DTD/svg11.dtd">
<svg version="1.1" id="Layer_1" xmlns="http://www.w3.org/2000/svg" xmlns:xlink="http://www.w3.org/1999/xlink" x="0px" y="0px"
	 width="64px" height="64px" viewBox="0 0 64 64" enable-background="new 0 0 64 64" xml:space="preserve">
<g>
	<path d="M18.076,41.499c-1.244-2.008-2.152-5.082-2.152-8.371c0-9.855,8.018-17.873,17.873-17.873c2.029,0,3.973,0.355,5.793,0.982
		l-2.17-2.637c-1.178-0.217-2.385-0.346-3.623-0.346c-10.959,0-19.873,8.915-19.873,19.873c0,3.66,1.012,7.081,2.432,9.388
		L18.076,41.499z"/>
	<path d="M50.014,17.374c0.027-0.192,0.051-0.384,0.064-0.572c0.172-2.318-0.771-4.261-2.59-5.267
		c-2.086-1.154-5.586-0.325-7.494,1.311l3.986,2.159c0.699-0.6,1.037-0.266,1.572,0.029c0.469,0.261,0.639,0.848,0.504,1.748
		c-0.264,1.298-3.473,4.985-7.832,9.395c-0.002,0-0.006-0.002-0.006-0.002c-8.801,8.552-19.783,17.971-22.172,18.273
		c-0.906,0.068-1.48-0.145-1.705-0.633c-0.254-0.555-0.563-0.917,0.088-1.57l-1.857-4.135c-1.773,1.781-2.859,5.211-1.863,7.377
		c0.867,1.887,2.734,2.973,5.061,2.973c0.188,0,0.381-0.008,0.574-0.021c4.668-0.349,19.684-14.565,24.479-19.216
		C45.609,24.977,49.455,20.568,50.014,17.374z"/>
	<path d="M53.543,30.989l-0.041-0.04c-0.348-2.991-1.41-5.969-3.15-8.921l-1.307,1.769c1.783,3.226,2.592,6.148,2.592,9.26
		c0,1.715-0.23,3.414-0.674,5.007c-0.02,0.063-0.031,0.128-0.051,0.19c-0.094,0.325-0.215,0.635-0.328,0.949
		c-2.494,6.87-9.068,11.8-16.787,11.8c-4.186,0-8.029-1.455-11.072-3.875l-1.77,1.127c3.463,2.954,7.941,4.748,12.842,4.748
		c10.959,0,19.873-8.916,19.873-19.875C53.67,32.405,53.619,31.693,53.543,30.989z"/>
</g>
</svg>
