<?xml version="1.0" encoding="utf-8"?>
<!-- Generator: Adobe Illustrator 16.0.0, SVG Export Plug-In . SVG Version: 6.00 Build 0)  -->
<!DOCTYPE svg PUBLIC "-//W3C//DTD SVG 1.1//EN" "http://www.w3.org/Graphics/SVG/1.1/DTD/svg11.dtd">
<svg version="1.1" id="Layer_1" xmlns="http://www.w3.org/2000/svg" xmlns:xlink="http://www.w3.org/1999/xlink" x="0px" y="0px"
	 width="64px" height="64px" viewBox="0 0 64 64" enable-background="new 0 0 64 64" xml:space="preserve">
<g>
	<polygon points="51.483,45.106 48.886,46.985 45.634,45.001 47.149,48.448 44.223,50.473 47.513,50.432 48.283,53.719 
		49.917,50.379 53.549,50.083 50.926,48.369 	"/>
	<polygon points="11.064,12.872 11.431,14.44 12.21,12.846 13.944,12.706 12.692,11.887 12.958,10.331 11.719,11.227 10.167,10.281 
		10.89,11.924 9.495,12.891 	"/>
	<polygon points="49.065,13.874 49.432,15.442 50.211,13.848 51.945,13.708 50.693,12.889 50.959,11.333 49.72,12.229 
		48.168,11.283 48.891,12.926 47.496,13.893 	"/>
	<path d="M29.894,34.881c8.557-3.191,12.758-6.471,14.716-8.753c-2.473-5.522-8.007-9.376-14.45-9.376
		c-8.746,0-15.836,7.09-15.836,15.836c0,1.861,0.337,3.639,0.927,5.298C17.51,38.069,21.864,37.681,29.894,34.881z"/>
	<path d="M52.212,19.166c-3.32-1.146-5.784-0.594-9.172,2.097l1.922,2.399c1.784-0.433,2.518-0.146,2.213,1.533
		c-0.306,1.68-4.704,6.641-16.862,11.175c-14.005,4.883-16.398,3.021-17.008,2.83c-2.29-0.707-0.896-3.511-0.094-3.739
		c-0.139-1.452-0.177-1.853-0.185-1.924c0.003,0.029,0.009,0.096,0.009,0.096s-2.916,0.396-3.946,2.399
		c-1.03,2.003-1.03,4.942,0.916,7.289c4.083,4.694,16.134,2.264,22.794-0.059c12.615-4.704,21.933-10.89,22.696-17.305
		C55.821,23.207,55.532,20.31,52.212,19.166z"/>
	<path d="M33.199,44.808c-3.833,1.336-7.911,1.955-10.906,2.521c2.162,1.109,5.288,2.069,7.885,2.069
		c6.827,0,12.619-4.33,14.84-10.387C41.812,41.116,37.844,43.076,33.199,44.808z"/>
</g>
</svg>
