<?xml version="1.0" encoding="utf-8"?>
<!-- Generator: Adobe Illustrator 16.0.0, SVG Export Plug-In . SVG Version: 6.00 Build 0)  -->
<!DOCTYPE svg PUBLIC "-//W3C//DTD SVG 1.1//EN" "http://www.w3.org/Graphics/SVG/1.1/DTD/svg11.dtd">
<svg version="1.1" id="Layer_1" xmlns="http://www.w3.org/2000/svg" xmlns:xlink="http://www.w3.org/1999/xlink" x="0px" y="0px"
	 width="64px" height="64px" viewBox="0 0 64 64" enable-background="new 0 0 64 64" xml:space="preserve">
<g>
	<path d="M41.257,33.763c0.767-5.002-2.678-9.696-7.681-10.462c-5.002-0.768-9.697,2.678-10.463,7.68
		c-0.35,2.276,0.181,4.484,1.326,6.292c-0.733,0.69-1.793,1.684-2.006,1.854c-0.063,0.051-0.013,0.205,0.107,0.417
		c-0.562,0.522-1.156,1.072-1.748,1.616c-0.586,0.539-1.166,1.069-1.71,1.563l0,0c-0.404,0.365-0.783,0.707-1.13,1.015l0,0
		c-0.104,0.092-0.211,0.188-0.309,0.273c-0.14,0.123-0.252,0.252-0.351,0.383c-0.028,0.038-0.049,0.076-0.074,0.113
		c-0.065,0.101-0.121,0.2-0.165,0.302c-0.015,0.036-0.03,0.072-0.042,0.108c-0.042,0.119-0.072,0.238-0.088,0.356
		c-0.002,0.015-0.006,0.029-0.007,0.044c-0.155,1.422,1.498,2.673,3.023,1.333c0.009-0.008,0.025-0.022,0.035-0.03l0,0
		c0.086-0.076,0.194-0.173,0.313-0.278c0.01-0.01,0.022-0.02,0.032-0.029c0.124-0.111,0.263-0.236,0.415-0.374
		c0.021-0.02,0.041-0.037,0.062-0.057c0.167-0.151,0.346-0.314,0.538-0.49c0.014-0.013,0.028-0.026,0.042-0.039
		c0.171-0.156,0.352-0.322,0.539-0.494c0.046-0.042,0.091-0.083,0.138-0.126c0.189-0.174,0.382-0.351,0.581-0.534
		c0.743-0.684,1.54-1.421,2.29-2.114c0.14,0.073,0.251,0.101,0.313,0.053c0.286-0.228,1.408-1.283,2.121-1.958
		c1.02,0.632,2.178,1.074,3.437,1.267C35.796,42.212,40.491,38.767,41.257,33.763z M31.118,39.326
		c-3.834-0.587-6.476-4.187-5.888-8.02c0.588-3.836,4.187-6.476,8.021-5.889c3.834,0.589,6.476,4.186,5.888,8.021
		C38.552,37.272,34.953,39.915,31.118,39.326z"/>
	<path d="M32,7.626c-13.439,0-24.373,10.934-24.373,24.373c0,5.062,1.551,9.768,4.203,13.668v0.069h0.049
		c0.242,0.353,0.496,0.696,0.755,1.035c1.625,2.126,3.595,3.974,5.819,5.47c3.876,2.605,8.534,4.133,13.546,4.133
		c13.439,0,24.373-10.935,24.373-24.375C56.373,18.56,45.439,7.626,32,7.626z M54.361,31.5h-8.06
		c-0.042-4.169-0.469-7.757-1.067-10.751h6.093C53.182,23.922,54.274,27.588,54.361,31.5z M50.014,18.749h-5.221
		c-0.668-2.743-1.446-4.87-2.11-6.403C45.57,13.922,48.072,16.116,50.014,18.749z M33,9.651c2.389,0.105,4.682,0.588,6.82,1.388
		c0.556,1.008,1.834,3.602,2.89,7.71H33V9.651z M31,9.651v9.098h-9.25c1.139-4.424,2.531-7.091,3.002-7.912
		C26.727,10.159,28.822,9.748,31,9.651z M21.909,12.04c-0.689,1.548-1.529,3.784-2.243,6.709h-5.68
		C16.059,15.938,18.773,13.633,21.909,12.04z M12.673,20.749h6.554c-0.6,2.994-1.027,6.582-1.068,10.751h-8.52
		C9.726,27.588,10.818,23.922,12.673,20.749z M31,43.736h-4.282h-0.29c-0.218,0.162-0.465,0.284-0.729,0.354
		c-0.586,0.542-1.199,1.107-1.784,1.646h0.859H31v8.612c-2.181-0.097-4.279-0.51-6.256-1.189c-0.365-0.615-1.288-2.336-2.214-5.112
		c-0.086-0.258-0.172-0.532-0.258-0.806c-0.425,0.387-0.784,0.711-1.013,0.911c-0.214,0.188-0.439,0.348-0.67,0.487
		c0.12,0.359,0.24,0.707,0.359,1.034c0.318,0.869,0.631,1.628,0.919,2.265c-0.688-0.351-1.353-0.739-1.997-1.156
		c-0.796-0.516-1.545-1.095-2.267-1.704c-1.108-0.314-2.043-1.144-2.465-2.266c-0.03-0.08-0.045-0.16-0.07-0.241
		c-0.239-0.276-0.485-0.547-0.71-0.835h0.551c-0.045-0.69,0.111-1.374,0.443-2h-2.391c-1.865-3.014-3.031-6.501-3.28-10.236h8.49
		c0.053,2.518,0.254,4.79,0.538,6.854c0.612-0.561,1.217-1.118,1.736-1.598c0.015-0.068,0.043-0.122,0.063-0.186
		c-0.174-1.57-0.296-3.254-0.336-5.071l-0.016-2c0.045-4.195,0.5-7.792,1.123-10.751H31h2h10.18
		c0.622,2.96,1.078,6.556,1.122,10.751l-0.015,2c-0.09,4.013-0.554,7.43-1.17,10.236H33H31z M39.833,52.955
		c-2.142,0.804-4.438,1.288-6.833,1.394v-8.612h9.63C41.594,49.59,40.374,52.005,39.833,52.955z M42.729,51.627
		c0.631-1.436,1.357-3.387,1.994-5.891h4.918C47.767,48.139,45.416,50.152,42.729,51.627z M51.037,43.736h-5.854
		c0.591-2.84,1.02-6.263,1.104-10.236h8.03C54.068,37.235,52.902,40.723,51.037,43.736z"/>
	<path d="M29.002,27.612c-0.197,0.056-0.388,0.165-0.596,0.275c-0.216,0.103-0.401,0.274-0.604,0.442
		c-0.214,0.154-0.371,0.39-0.543,0.612c-0.19,0.214-0.286,0.491-0.405,0.757c-0.054,0.149-0.104,0.236-0.158,0.437
		c-0.027,0.119-0.046,0.239-0.068,0.357c-0.023,0.116-0.042,0.235-0.058,0.352c-0.012,0.129-0.018,0.271-0.02,0.402
		c-0.012,0.267-0.001,0.519,0.042,0.745c0.027,0.229,0.083,0.441,0.152,0.635c0.113,0.385,0.297,0.678,0.433,0.867
		c0.142,0.188,0.249,0.273,0.249,0.273s0.022-0.54,0.135-1.221c0.022-0.17,0.063-0.354,0.107-0.542
		c0.029-0.192,0.083-0.382,0.135-0.566c0.022-0.096,0.044-0.19,0.068-0.288c0.038-0.112,0.073-0.227,0.105-0.342
		c0.033-0.115,0.07-0.23,0.098-0.349l0.109-0.24c0.076-0.179,0.125-0.375,0.242-0.537c0.109-0.163,0.175-0.354,0.307-0.503
		c0.124-0.149,0.213-0.33,0.349-0.462c0.128-0.136,0.229-0.302,0.357-0.417c0.125-0.114,0.227-0.254,0.336-0.352
		c0.108-0.097,0.198-0.203,0.278-0.276c0.156-0.154,0.258-0.25,0.258-0.25s-0.13-0.02-0.367-0.011
		C29.713,27.427,29.379,27.47,29.002,27.612z"/>
</g>
</svg>
