<?xml version="1.0" encoding="utf-8"?>
<!-- Generator: Adobe Illustrator 16.0.0, SVG Export Plug-In . SVG Version: 6.00 Build 0)  -->
<!DOCTYPE svg PUBLIC "-//W3C//DTD SVG 1.1//EN" "http://www.w3.org/Graphics/SVG/1.1/DTD/svg11.dtd">
<svg version="1.1" id="Layer_1" xmlns="http://www.w3.org/2000/svg" xmlns:xlink="http://www.w3.org/1999/xlink" x="0px" y="0px"
	 width="64px" height="64px" viewBox="0 0 64 64" enable-background="new 0 0 64 64" xml:space="preserve">
<g>
	<path d="M32.938,9.648c-0.165,2.813-0.637,11.498-0.803,21.65c-0.155,9.455,0.429,19.055,0.713,23.053
		c0.688-0.027,1.369-0.084,2.041-0.172c1.098-1.828,6.191-10.91,6.015-21.701c-0.174-10.6-5.835-20.467-7.259-22.785
		C33.411,9.676,33.176,9.66,32.938,9.648z"/>
	<path d="M41.188,11.607c3.741,3.971,9.541,11.535,9.687,20.389c0.137,8.355-4.534,15.459-7.935,19.508
		C49.758,47.666,54.374,40.363,54.374,32C54.374,22.938,48.955,15.121,41.188,11.607z"/>
	<path d="M36.168,10.021c2.173,3.811,6.576,12.703,6.736,22.424c0.157,9.594-3.521,17.695-5.435,21.248
		c0.298-0.074,0.593-0.158,0.886-0.246c1.361-1.264,10.701-10.35,10.52-21.418C48.681,20.146,36.938,10.281,36.82,10.184l0.02-0.025
		C36.617,10.109,36.394,10.064,36.168,10.021z"/>
	<path d="M25.409,53.381c0.269,0.084,0.54,0.158,0.813,0.232c-1.927-3.598-5.546-11.652-5.39-21.168
		c0.159-9.678,4.523-18.533,6.707-22.373c-0.182,0.037-0.359,0.082-0.539,0.123c-0.348,0.291-11.848,10.072-12.04,21.834
		C14.782,42.943,23.826,51.9,25.409,53.381z"/>
	<path d="M30.935,9.652c-0.286,0.014-0.57,0.037-0.854,0.061c-1.447,2.363-7.074,12.215-7.247,22.766
		c-0.176,10.725,4.854,19.76,5.993,21.666c0.664,0.094,1.336,0.164,2.018,0.199c-0.29-4.125-0.862-13.672-0.708-23.078
		C30.301,21.227,30.763,12.607,30.935,9.652z"/>
	<path d="M22.527,11.736C14.913,15.311,9.626,23.047,9.626,32c0,8.236,4.477,15.441,11.12,19.324
		c-3.386-4.078-7.92-11.094-7.785-19.328C13.104,23.236,18.783,15.74,22.527,11.736z"/>
</g>
</svg>
