<?xml version="1.0" encoding="utf-8"?>
<!-- Generator: Adobe Illustrator 16.0.0, SVG Export Plug-In . SVG Version: 6.00 Build 0)  -->
<!DOCTYPE svg PUBLIC "-//W3C//DTD SVG 1.1//EN" "http://www.w3.org/Graphics/SVG/1.1/DTD/svg11.dtd">
<svg version="1.1" id="Layer_1" xmlns="http://www.w3.org/2000/svg" xmlns:xlink="http://www.w3.org/1999/xlink" x="0px" y="0px"
	 width="64px" height="64px" viewBox="0 0 64 64" enable-background="new 0 0 64 64" xml:space="preserve">
<g>
	<path d="M47.347,24.628c-0.206-0.529-0.431-1.047-0.666-1.558c-0.358-0.56-0.745-1.104-1.163-1.631
		c-0.543,0.564-1.109,1.15-1.718,1.772C45.053,23.661,46.239,24.14,47.347,24.628z"/>
	<path d="M40.859,14.259c-0.475-0.548-0.93-1.047-1.354-1.494c-0.564,0.022-1.17,0.059-1.816,0.113
		c0.06,0.119,0.118,0.239,0.178,0.362c0.809,0.364,1.612,0.773,2.405,1.224C40.473,14.393,40.667,14.325,40.859,14.259z"/>
	<path d="M44.316,15.295c0.55,0.724,1.1,1.496,1.636,2.313c0.093,0.062,0.187,0.122,0.278,0.184
		c0.604-0.641,1.122-1.194,1.543-1.648c-0.47-0.468-0.961-0.913-1.47-1.338C45.942,14.881,45.252,15.037,44.316,15.295z"/>
	<path d="M32.199,40.787c1.296-0.015,2.581-0.106,3.842-0.262c0.706-0.521,1.396-1.075,2.067-1.657
		c-1.501-1.713-3.124-3.545-4.833-5.44c-0.189,0.173-0.378,0.349-0.568,0.521c-0.199,0.18-0.394,0.354-0.592,0.532
		C32.115,36.632,32.147,38.756,32.199,40.787z"/>
	<path d="M32.922,30.068c0.331,0.017,0.659,0.033,0.987,0.051c1.649-1.545,3.247-3.089,4.753-4.576
		c-0.733-0.81-1.494-1.568-2.271-2.28c-1.319-0.245-2.67-0.418-4.036-0.507c-0.068,2.043-0.129,4.23-0.176,6.512
		C32.427,29.534,32.674,29.8,32.922,30.068z"/>
	<path d="M41.688,22.51c0.896-0.912,1.731-1.772,2.498-2.57c-1.241-1.265-2.616-2.325-4.058-3.217
		c-0.019-0.008-0.037-0.017-0.056-0.024c-0.188,0.072-0.379,0.146-0.572,0.224c0.672,1.671,1.323,3.517,1.873,5.491
		C41.478,22.445,41.583,22.478,41.688,22.51z"/>
	<path d="M39.578,37.512c0.406-0.398,0.799-0.803,1.178-1.212c0.114-1.225,0.172-2.479,0.153-3.761
		c-1.915-0.127-3.953-0.252-6.073-0.367C36.511,34.031,38.104,35.828,39.578,37.512z"/>
	<path d="M39.958,27.072c-1.059,1.046-2.161,2.117-3.297,3.198c1.433,0.083,2.821,0.17,4.152,0.257
		c-0.073-0.936-0.184-1.861-0.327-2.774C40.313,27.524,40.138,27.298,39.958,27.072z"/>
	<path d="M54.316,33.59c-0.461-0.043-1.066-0.098-1.801-0.162c0.095,0.585,0.173,1.158,0.24,1.721
		c0.639-0.329,1.146-0.606,1.5-0.807C54.282,34.093,54.299,33.841,54.316,33.59z"/>
	<path d="M32.602,42.78c-0.114,0.003-0.229,0.005-0.344,0.006c0.002,0.064,0.004,0.129,0.006,0.192
		C32.377,42.914,32.489,42.847,32.602,42.78z"/>
	<path d="M48.542,28.762c-0.392,0.726-0.818,1.471-1.282,2.227c0.548,0.043,1.074,0.084,1.578,0.124
		C48.785,30.318,48.688,29.534,48.542,28.762z"/>
	<path d="M50.34,19.199c-0.381-0.543-0.783-1.07-1.21-1.577c-0.356,0.384-0.778,0.834-1.253,1.34c0.72,0.54,1.397,1.084,2.031,1.622
		C50.114,19.968,50.257,19.492,50.34,19.199z"/>
	<path d="M49.165,22.622c-0.244-0.213-0.497-0.43-0.756-0.646c0.043,0.091,0.082,0.185,0.123,0.276
		c0.161,0.257,0.321,0.516,0.471,0.777C49.06,22.89,49.112,22.757,49.165,22.622z"/>
	<path d="M41.463,50.12c-0.525-0.195-1.082-0.411-1.661-0.646c-0.139,0.068-0.279,0.134-0.419,0.2
		c-0.235,0.56-0.467,1.091-0.693,1.581c0.605,0.054,1.174,0.093,1.691,0.119C40.718,50.999,41.082,50.578,41.463,50.12z"/>
	<path d="M46.049,32.902c0.77,1.503,1.432,2.986,1.996,4.398c0.084-0.034,0.168-0.068,0.251-0.103
		c0.312-1.315,0.517-2.678,0.571-4.076C47.996,33.052,47.055,32.978,46.049,32.902z"/>
	<path d="M52.092,22.157c-0.115-0.234-0.234-0.467-0.357-0.696c-0.062,0.182-0.126,0.372-0.197,0.573
		c0.19,0.178,0.374,0.354,0.553,0.526C52.092,22.393,52.093,22.254,52.092,22.157z"/>
	<path d="M51.94,25.271c-0.355-0.368-0.754-0.768-1.187-1.186c-0.171,0.419-0.357,0.856-0.56,1.313
		c0.109,0.247,0.219,0.494,0.32,0.743c0.44,0.227,0.86,0.45,1.256,0.666C51.841,26.259,51.896,25.745,51.94,25.271z"/>
	<path d="M43.198,47.875c-0.285,0.142-0.574,0.279-0.867,0.413c0.152,0.057,0.299,0.109,0.445,0.162
		C42.916,48.263,43.057,48.072,43.198,47.875z"/>
	<path d="M41.636,42.935c-0.349,1.38-0.741,2.682-1.158,3.883c0.972-0.578,1.904-1.238,2.779-1.988
		C42.755,44.239,42.208,43.601,41.636,42.935z"/>
	<path d="M43.873,50.953c-0.121-0.039-0.246-0.08-0.374-0.122c-0.165,0.205-0.327,0.403-0.487,0.595
		c0.026-0.001,0.049-0.001,0.074-0.002C43.352,51.272,43.614,51.115,43.873,50.953z"/>
	<path d="M48.843,46.709c-0.108-0.498-0.262-1.155-0.467-1.94c-0.434,0.307-0.883,0.612-1.349,0.916
		c-0.058,0.101-0.117,0.198-0.175,0.298c0.505,0.601,0.929,1.108,1.268,1.515C48.367,47.24,48.607,46.978,48.843,46.709z"/>
	<path d="M43.499,12.812c-0.097-0.009-0.545-0.045-1.27-0.066c0.238,0.27,0.479,0.551,0.726,0.844
		c0.451-0.133,0.861-0.245,1.232-0.342C43.96,13.099,43.731,12.952,43.499,12.812z"/>
	<path d="M46.873,39.916c-1.268,0.461-2.633,0.905-4.076,1.302c0.681,0.79,1.324,1.542,1.911,2.23
		c0.887-0.937,1.672-1.938,2.358-2.981C47.003,40.284,46.94,40.103,46.873,39.916z"/>
	<path d="M32.371,45.788c0.044,1.044,0.092,2.035,0.141,2.964c1.451-0.055,2.874-0.273,4.252-0.616
		C35.352,47.464,33.868,46.685,32.371,45.788z"/>
	<path d="M50.929,43.915c0.024-0.306,0.05-0.693,0.072-1.151c-0.282,0.232-0.58,0.47-0.886,0.71c0.117,0.429,0.222,0.829,0.314,1.2
		C50.602,44.425,50.767,44.171,50.929,43.915z"/>
	<path d="M36.796,42.45c-0.951,0.684-1.92,1.315-2.895,1.898c1.538,0.891,3.059,1.66,4.487,2.313
		c0.516-1.433,1.01-3.018,1.422-4.724C38.829,42.141,37.821,42.313,36.796,42.45z"/>
	<path d="M37.475,53.694c0.298-0.075,0.593-0.159,0.886-0.246c0.051-0.048,0.114-0.107,0.188-0.177
		c-0.269-0.022-0.531-0.043-0.813-0.072C37.646,53.368,37.557,53.541,37.475,53.694z"/>
	<path d="M45.942,49.482c0.246-0.196,0.487-0.398,0.726-0.605c-0.258-0.309-0.562-0.673-0.928-1.109
		c-0.314,0.475-0.631,0.932-0.946,1.367C45.239,49.276,45.626,49.392,45.942,49.482z"/>
	<path d="M53.692,37.502c0.055-0.216,0.103-0.435,0.151-0.652c-0.271,0.142-0.565,0.293-0.883,0.452
		c0.021,0.309,0.039,0.612,0.054,0.908C53.373,37.849,53.605,37.597,53.692,37.502z"/>
	<path d="M54.337,30.679c-0.266-0.174-0.612-0.396-1.035-0.656c-0.094,0.469-0.201,0.95-0.317,1.439
		c0.542,0.048,1.006,0.09,1.385,0.124C54.363,31.282,54.354,30.979,54.337,30.679z"/>
	<path d="M53.753,27.28c-0.026,0.2-0.056,0.404-0.086,0.611c0.127,0.076,0.25,0.15,0.367,0.222c-0.037-0.21-0.07-0.421-0.113-0.629
		C53.876,27.43,53.818,27.359,53.753,27.28z"/>
	<path d="M50.983,38.242c-0.15,0.068-0.302,0.136-0.458,0.205c-0.338,0.693-0.705,1.382-1.109,2.061
		c-0.034,0.097-0.066,0.195-0.102,0.291c0.063,0.196,0.124,0.388,0.184,0.578c0.565-0.458,1.084-0.899,1.548-1.31
		C51.038,39.497,51.018,38.884,50.983,38.242z"/>
	<path d="M36.174,10.021c0.158,0.279,0.328,0.583,0.509,0.914c0.305-0.031,0.603-0.059,0.895-0.082
		c-0.455-0.421-0.734-0.655-0.752-0.67l0.021-0.024C36.623,10.109,36.398,10.063,36.174,10.021z"/>
	<path d="M36.71,15.528c-1.307-0.347-2.656-0.578-4.04-0.65c-0.042,0.877-0.084,1.83-0.127,2.852
		c0.085,0.057,0.171,0.116,0.257,0.174c1.392-0.797,2.755-1.476,4.052-2.057C36.804,15.74,36.757,15.632,36.71,15.528z"/>
	<path d="M33.65,9.692c-0.234-0.018-0.47-0.033-0.706-0.044c-0.027,0.456-0.062,1.062-0.103,1.807
		c0.046,0.013,0.091,0.023,0.137,0.036c0.529-0.105,1.051-0.199,1.56-0.279C34.169,10.552,33.863,10.038,33.65,9.692z"/>
	<path d="M36.682,50.787c-0.174,0.062-0.349,0.114-0.523,0.173c0.138,0.02,0.277,0.041,0.413,0.06
		C36.607,50.942,36.645,50.866,36.682,50.787z"/>
	<path d="M39.09,21.791c-0.445-1.447-0.941-2.814-1.45-4.08c-0.973,0.437-1.984,0.93-3.017,1.487
		c0.904,0.678,1.805,1.41,2.691,2.202C37.914,21.52,38.507,21.649,39.09,21.791z"/>
	<path d="M32.435,20.469c-0.004,0.096-0.008,0.191-0.011,0.287c0.344,0.021,0.686,0.047,1.026,0.078
		c-0.245-0.184-0.49-0.362-0.735-0.537C32.621,20.354,32.528,20.411,32.435,20.469z"/>
	<path d="M34.895,54.181c0.16-0.269,0.407-0.693,0.711-1.256c-0.924-0.14-1.888-0.315-2.884-0.536
		c0.048,0.752,0.093,1.41,0.133,1.963C33.543,54.325,34.223,54.268,34.895,54.181z"/>
	<path d="M42.408,39.23c1.321-0.369,2.576-0.78,3.747-1.205c-0.428-1.068-0.909-2.178-1.454-3.304
		c-0.624,0.817-1.296,1.631-2.015,2.432C42.61,37.858,42.518,38.552,42.408,39.23z"/>
	<path d="M42.889,33.782c0.271-0.351,0.535-0.702,0.79-1.054c-0.254-0.018-0.513-0.036-0.772-0.054
		C42.909,33.048,42.896,33.414,42.889,33.782z"/>
	<path d="M30.389,46.249c-1.387,0.676-2.747,1.26-4.042,1.763c1.337,0.364,2.728,0.616,4.161,0.713
		C30.467,47.94,30.427,47.113,30.389,46.249z"/>
	<path d="M42.232,24.806c-0.07,0.07-0.146,0.145-0.217,0.216c0.137,0.632,0.262,1.272,0.371,1.921
		c0.934,1.264,1.772,2.565,2.526,3.87c0.023,0.002,0.046,0.003,0.069,0.005c0.887-1.378,1.648-2.729,2.296-4.002
		C45.753,26.116,44.054,25.421,42.232,24.806z"/>
	<path d="M16.336,20.205c-0.2,0.136-0.397,0.271-0.588,0.406c0.043,0.146,0.089,0.296,0.136,0.45
		C16.031,20.771,16.183,20.487,16.336,20.205z"/>
	<path d="M17.297,29.816c-0.563-1.08-1.06-2.132-1.493-3.138c-0.3,1.031-0.531,2.091-0.674,3.172
		C15.818,29.837,16.542,29.826,17.297,29.816z"/>
	<path d="M18.399,31.804c-1.217,0.011-2.364,0.027-3.425,0.048c-0.002,0.06-0.008,0.119-0.009,0.179
		c-0.024,1.513,0.13,2.988,0.415,4.411c0.095,0.234,0.196,0.467,0.298,0.7c0.014,0.006,0.026,0.012,0.04,0.018
		c0.764-1.657,1.678-3.431,2.76-5.22C18.451,31.894,18.426,31.849,18.399,31.804z"/>
	<path d="M14.931,17.563l0.047-0.009c0.004,0.02,0.069,0.372,0.212,0.976c0.649-0.442,1.34-0.888,2.074-1.325
		c-0.413-0.387-0.773-0.723-1.082-1.009C15.745,16.634,15.33,17.092,14.931,17.563z"/>
	<path d="M20.845,31.953c0.003,0.005,0.007,0.01,0.01,0.015c0-0.01,0.001-0.021,0.001-0.03
		C20.852,31.942,20.849,31.948,20.845,31.953z"/>
	<path d="M18.104,22.512c1.164-0.346,2.411-0.667,3.727-0.94c-0.566-0.553-1.104-1.073-1.621-1.569
		C19.431,20.786,18.731,21.628,18.104,22.512z"/>
	<path d="M17.116,48.682c0.353-0.073,0.822-0.177,1.393-0.315c-0.289-0.42-0.576-0.856-0.861-1.309
		c-0.476,0.399-0.875,0.732-1.198,1.001C16.668,48.271,16.89,48.479,17.116,48.682z"/>
	<path d="M17.663,14.843c0.37,0.344,0.799,0.743,1.302,1.215c0.496-0.685,0.995-1.334,1.486-1.938
		c-0.739-0.239-1.212-0.366-1.33-0.396C18.62,14.078,18.133,14.45,17.663,14.843z"/>
	<path d="M22.199,11.894c-0.274,0.134-0.547,0.272-0.815,0.418c0.151,0.049,0.311,0.103,0.478,0.16
		c0.126-0.142,0.251-0.28,0.374-0.414c-0.012,0-0.028,0-0.031,0L22.199,11.894z"/>
	<path d="M17.591,37.936c1.155,0.449,2.412,0.879,3.745,1.269c-0.185-1.15-0.312-2.348-0.396-3.568
		c-0.439-0.589-0.856-1.181-1.252-1.772C18.889,35.257,18.193,36.631,17.591,37.936z"/>
	<path d="M19.578,29.798c0.092-0.001,0.187-0.001,0.279-0.002c0.428-0.626,0.877-1.249,1.349-1.866
		c0.214-1.493,0.51-2.948,0.861-4.349c-1.744,0.374-3.362,0.832-4.815,1.315C17.868,26.42,18.635,28.084,19.578,29.798z"/>
	<path d="M10.292,37.359c0.013,0.017,0.226,0.271,0.605,0.684c0.028-0.313,0.061-0.635,0.098-0.966
		c-0.325-0.182-0.624-0.352-0.894-0.51c0.056,0.268,0.119,0.533,0.185,0.797L10.292,37.359z"/>
	<path d="M30.94,9.652c-0.287,0.013-0.571,0.036-0.855,0.061c-0.152,0.249-0.352,0.582-0.586,0.989
		c0.443,0.08,0.901,0.172,1.366,0.272C30.894,10.456,30.919,10.011,30.94,9.652z"/>
	<path d="M22.179,43.214c-0.498,0.427-0.98,0.84-1.434,1.226c0.741,0.683,1.531,1.295,2.351,1.852
		C22.771,45.318,22.459,44.298,22.179,43.214z"/>
	<path d="M9.726,29.998c0.509-0.019,1.102-0.039,1.771-0.059c-0.146-0.88-0.257-1.727-0.338-2.529
		c-0.524,0.264-0.92,0.478-1.168,0.616C9.875,28.675,9.785,29.332,9.726,29.998z"/>
	<path d="M10.871,24.669c-0.089,0.254-0.177,0.509-0.256,0.767c0.121-0.06,0.248-0.122,0.379-0.185
		c-0.011-0.232-0.021-0.459-0.028-0.678C10.931,24.608,10.898,24.641,10.871,24.669z"/>
	<path d="M11.882,31.931c0-0.001,0-0.002-0.001-0.004c-0.876,0.026-1.632,0.053-2.25,0.076c0,0.666,0.035,1.323,0.093,1.976
		c0.275,0.181,0.796,0.513,1.563,0.953C11.441,33.97,11.638,32.963,11.882,31.931z"/>
	<path d="M24.854,50.801c-0.187-0.415-0.374-0.852-0.565-1.312c-0.351-0.118-0.697-0.242-1.04-0.373
		c-0.466,0.151-0.916,0.291-1.346,0.419c0.37,0.463,0.728,0.892,1.067,1.282C23.548,50.824,24.176,50.821,24.854,50.801z"/>
	<path d="M30.849,54.344c-0.041-0.584-0.088-1.275-0.138-2.061c-0.938,0.152-1.85,0.267-2.727,0.351
		c0.363,0.685,0.658,1.194,0.848,1.511C29.495,54.239,30.167,54.309,30.849,54.344z"/>
	<path d="M26.229,53.613c-0.133-0.249-0.278-0.531-0.426-0.821c-0.33,0.015-0.65,0.025-0.963,0.034
		c0.242,0.24,0.436,0.425,0.573,0.555C25.683,53.464,25.955,53.54,26.229,53.613z"/>
	<path d="M27.626,42.527c-1.272-0.146-2.506-0.347-3.693-0.597c0.375,1.559,0.819,3.016,1.286,4.348
		c1.495-0.568,3.09-1.249,4.71-2.056C29.153,43.69,28.384,43.127,27.626,42.527z"/>
	<path d="M14.029,21.893c-0.387,0.305-0.744,0.597-1.069,0.87c-0.003,0.47,0.002,0.999,0.022,1.588
		c0.51-0.216,1.061-0.438,1.646-0.661C14.401,23.051,14.202,22.448,14.029,21.893z"/>
	<path d="M27.138,50.673c-0.053-0.021-0.105-0.041-0.157-0.063c0.011,0.023,0.021,0.049,0.032,0.072
		C27.055,50.679,27.096,50.676,27.138,50.673z"/>
	<path d="M27.006,10.194c-0.018,0.016-0.061,0.052-0.139,0.12c0.165,0.019,0.335,0.04,0.506,0.062
		c0.059-0.105,0.115-0.204,0.172-0.304C27.363,10.109,27.186,10.153,27.006,10.194z"/>
	<path d="M13.11,26.492c0.029,0.341,0.065,0.696,0.106,1.057c0.168-0.446,0.347-0.892,0.539-1.335
		C13.532,26.308,13.316,26.401,13.11,26.492z"/>
	<path d="M24.898,21.045c1.163-0.156,2.364-0.271,3.6-0.325c0.656-0.49,1.317-0.951,1.978-1.387
		c0.007-0.174,0.014-0.348,0.021-0.518c-1.362-0.849-2.692-1.575-3.936-2.19C25.986,17.972,25.415,19.457,24.898,21.045z"/>
	<path d="M16.414,45.482c-0.479-0.328-0.938-0.659-1.378-0.99c-0.201,0.632-0.352,1.146-0.456,1.52
		c0.161,0.2,0.326,0.396,0.494,0.59C15.421,46.313,15.871,45.938,16.414,45.482z"/>
	<path d="M13.104,20.049c0.108-0.085,0.216-0.169,0.329-0.254c-0.017-0.063-0.032-0.125-0.047-0.186
		C13.29,19.754,13.197,19.901,13.104,20.049z"/>
	<path d="M23.107,20.022c0.371-1.114,0.766-2.174,1.168-3.171c-0.891,0.531-1.755,1.131-2.579,1.805
		C22.148,19.092,22.617,19.546,23.107,20.022z"/>
	<path d="M19.661,50.648c0.136,0.014,0.333,0.032,0.582,0.052c-0.15-0.188-0.302-0.381-0.454-0.579
		c-0.23,0.059-0.447,0.112-0.655,0.163C19.309,50.407,19.483,50.53,19.661,50.648z"/>
	<path d="M14.37,40.337c-0.206-0.595-0.395-1.201-0.562-1.82c-0.312-0.146-0.597-0.289-0.885-0.432
		c-0.064,0.669-0.109,1.289-0.141,1.859c0.39,0.366,0.822,0.758,1.292,1.164C14.169,40.857,14.268,40.6,14.37,40.337z"/>
	<path d="M12.736,43.353c0.118,0.199,0.24,0.396,0.364,0.592c0.077-0.247,0.159-0.506,0.252-0.785
		c-0.218-0.183-0.43-0.363-0.634-0.542C12.723,42.974,12.73,43.223,12.736,43.353z"/>
	<path d="M17.104,39.913c0.646,1.077,1.387,2.115,2.243,3.09c0.618-0.526,1.289-1.102,1.991-1.704
		C19.826,40.881,18.404,40.411,17.104,39.913z"/>
	<path d="M23.83,24.848c0.213-0.223,0.43-0.443,0.649-0.662c-0.131-0.131-0.261-0.26-0.39-0.388
		C23.999,24.145,23.913,24.495,23.83,24.848z"/>
	<path d="M30.197,40.732c-0.037-1.45-0.063-2.945-0.075-4.465c-1.141,1.018-2.248,1.996-3.313,2.93
		c0.529,0.487,1.072,0.956,1.624,1.405C29.015,40.661,29.603,40.702,30.197,40.732z"/>
	<path d="M30.593,16.512c0.025-0.568,0.05-1.113,0.074-1.631c-0.855,0.042-1.699,0.136-2.526,0.276
		C28.934,15.565,29.754,16.016,30.593,16.512z"/>
	<path d="M23.906,13.229c0.406,0.161,0.834,0.339,1.279,0.531c0.17-0.047,0.34-0.095,0.511-0.139
		c0.224-0.467,0.441-0.909,0.653-1.326c-0.514-0.058-0.991-0.102-1.426-0.135C24.607,12.482,24.267,12.839,23.906,13.229z"/>
	<path d="M30.355,22.688c-0.386-0.002-0.768,0.003-1.147,0.014c-0.628,0.483-1.25,0.994-1.86,1.533
		c0.942,0.955,1.904,1.945,2.877,2.963C30.264,25.636,30.308,24.126,30.355,22.688z"/>
	<path d="M30.117,33.59c0.002-0.546,0.008-1.093,0.015-1.64c-2.484-0.091-4.942-0.137-7.271-0.151
		c-0.009,0.227-0.02,0.453-0.023,0.681c-0.013,0.812,0.006,1.612,0.048,2.402c0.761,0.992,1.588,1.97,2.49,2.912
		C26.879,36.478,28.47,35.068,30.117,33.59z"/>
	<path d="M23,29.801c2.269,0.016,4.658,0.06,7.075,0.146c-1.414-1.503-2.822-2.96-4.186-4.342c-0.996,0.993-1.918,2.043-2.768,3.127
		C23.076,29.087,23.035,29.443,23,29.801z"/>
	<path d="M28.393,12.734c0.101-0.035,0.201-0.073,0.302-0.107c-0.076-0.013-0.151-0.024-0.227-0.037
		C28.442,12.639,28.418,12.685,28.393,12.734z"/>
	<path d="M23.869,39.11c-0.208-0.219-0.415-0.438-0.615-0.659c0.053,0.353,0.11,0.7,0.172,1.046
		C23.57,39.371,23.723,39.237,23.869,39.11z"/>
</g>
</svg>
