<?xml version="1.0" encoding="utf-8"?>
<!-- Generator: Adobe Illustrator 16.0.0, SVG Export Plug-In . SVG Version: 6.00 Build 0)  -->
<!DOCTYPE svg PUBLIC "-//W3C//DTD SVG 1.1//EN" "http://www.w3.org/Graphics/SVG/1.1/DTD/svg11.dtd">
<svg version="1.1" id="Layer_1" xmlns="http://www.w3.org/2000/svg" xmlns:xlink="http://www.w3.org/1999/xlink" x="0px" y="0px"
	 width="64px" height="64px" viewBox="0 0 64 64" enable-background="new 0 0 64 64" xml:space="preserve">
<path d="M32,7.626C18.56,7.626,7.626,18.56,7.626,31.999c0,13.44,10.934,24.375,24.373,24.375c13.44,0,24.374-10.935,24.374-24.375
	C56.374,18.56,45.439,7.626,32,7.626z M9.626,31.999c0-0.395,0.011-0.787,0.031-1.177c4.687,3.769,15.545,3.832,25.332,3.88
	c7.374,0.036,14.077,0.094,18.975,1.542c-0.384,1.992-1.033,3.891-1.909,5.658c-4.175-1.129-11.149-1.171-17.095-1.2
	c-8.563-0.042-17.833-0.095-24.5-2.664C9.921,36.115,9.626,34.092,9.626,31.999z M36.348,28.649
	c-9.113-0.045-19.02-0.106-25.742-3.196c0.591-1.931,1.44-3.747,2.502-5.417c5.361,2.52,14.725,2.572,23.27,2.613
	c6.121,0.03,11.782,0.072,16.337,0.909c0.839,2.051,1.38,4.253,1.573,6.553C50.268,28.728,42.719,28.681,36.348,28.649z
	 M49.275,17.798c-3.834-0.385-8.436-0.411-12.544-0.431c-6.88-0.034-14.201-0.09-20.277-1.436c2.211-2.14,4.857-3.832,7.795-4.92
	c3.996,0.309,8.349,0.335,12.511,0.355c1.35,0.007,2.667,0.017,3.967,0.032C44.069,12.82,46.997,15.031,49.275,17.798z
	 M41.833,52.092c-2.425-0.08-4.918-0.096-7.255-0.107c-4.459-0.022-9.092-0.069-13.468-0.45c-3.208-1.796-5.929-4.358-7.917-7.438
	c5.505,1.802,13.784,1.851,21.414,1.889c5.254,0.026,10.171,0.059,14.343,0.594C46.983,48.863,44.565,50.749,41.833,52.092z"/>
</svg>
