<?xml version="1.0" encoding="utf-8"?>
<!-- Generator: Adobe Illustrator 16.0.0, SVG Export Plug-In . SVG Version: 6.00 Build 0)  -->
<!DOCTYPE svg PUBLIC "-//W3C//DTD SVG 1.1//EN" "http://www.w3.org/Graphics/SVG/1.1/DTD/svg11.dtd">
<svg version="1.1" id="Layer_1" xmlns="http://www.w3.org/2000/svg" xmlns:xlink="http://www.w3.org/1999/xlink" x="0px" y="0px"
	 width="64px" height="64px" viewBox="0 0 64 64" enable-background="new 0 0 64 64" xml:space="preserve">
<g>
	<path d="M44.735,34.615l0.058,4c0.36-0.013,0.612-0.009,0.758,0.713c0.512,2.526-2.088,8.81-7.693,11.085
		c-6.864,2.762-11.919,1.575-14.953,0.094c-2.694-1.315-4.45-3.17-5.442-4.875l2.696-0.297c0,0-5.419-7.061-5.654-8.725
		c-0.234-1.663-4.268,9.818-4.268,9.818l2.997-0.33c1.34,3.26,4.211,6.193,7.916,8.003c2.667,1.302,5.621,1.953,8.714,1.953
		c3.076,0,6.29-0.645,9.493-1.933c6.907-2.805,11.109-10.683,10.115-15.588C48.974,36.082,47.157,34.623,44.735,34.615z"/>
	<path d="M55.765,16.81c-0.354-1.595-2.511-3.008-5.072-2.448c-1.042,0.165-7.666,2.581-7.666,2.581s-6.488-5.476-8.059-6.677
		c-1.575-1.201-3.639-0.438-3.639-0.438l4.731,8.569l-8.826,2.658l-3.621-4.196l-3.456-0.081c0,0,3.518,5.315,3.689,7.176
		c0.018,0.187,0.016,0.411,0.005,0.651c1.942-1.078,4.175-1.696,6.555-1.696c2.018,0,3.927,0.454,5.647,1.246l0.749-0.073
		l0.091,0.482c2.288,1.252,4.176,3.145,5.419,5.438c0.534-2.389,0.935-6.084,0.935-6.084s9.355-3.017,10.164-3.435
		C54.22,20.068,56.632,19.538,55.765,16.81z"/>
	<path d="M30.407,48.945c6.893,0,12.5-5.607,12.5-12.5c0-4.97-2.917-9.271-7.128-11.284c-0.024-0.026-0.043-0.048-0.051-0.055
		l-0.022,0.021c-1.61-0.757-3.406-1.183-5.3-1.183c-0.278,0-0.553,0.013-0.826,0.03l0-0.001l0,0.001
		c-6.508,0.428-11.672,5.855-11.672,12.47C17.908,43.338,23.515,48.945,30.407,48.945z M25.917,47.004
		c-0.202-0.231-0.878-1.075-1.539-2.63c1.025,0.268,2.22,0.484,3.585,0.608c0.419,1.367,0.871,2.303,1.193,2.867
		C28.019,47.726,26.93,47.437,25.917,47.004z M26.892,34.473c-0.03,0.618-0.052,1.256-0.052,1.934c0,0.916,0.032,1.769,0.085,2.568
		c-1.521-0.149-2.828-0.381-3.914-0.648c-0.043-0.593-0.074-1.207-0.074-1.867c0-0.45,0.012-0.884,0.032-1.303
		C24.052,34.879,25.356,34.633,26.892,34.473z M23.049,34.068c0.147-1.604,0.43-2.953,0.765-4.063
		c1.027-0.318,2.275-0.593,3.751-0.753c-0.263,1.181-0.486,2.562-0.612,4.182C25.448,33.58,24.146,33.806,23.049,34.068z
		 M27.01,40.016c0.15,1.526,0.387,2.82,0.658,3.904c-1.466-0.16-2.713-0.434-3.744-0.751c-0.339-1.028-0.633-2.279-0.81-3.758
		C24.218,39.664,25.512,39.88,27.01,40.016z M30.589,34.283c0.733,0,1.413,0.025,2.068,0.063c0.042,0.704,0.071,1.436,0.071,2.224
		c0,0.896-0.035,1.724-0.088,2.505c-0.698,0.042-1.427,0.071-2.215,0.071c-0.877,0-1.69-0.034-2.463-0.085
		c-0.06-0.822-0.097-1.701-0.097-2.654c0-0.714,0.025-1.381,0.06-2.026C28.755,34.32,29.638,34.283,30.589,34.283z M27.994,33.348
		c0.138-1.636,0.375-3.028,0.65-4.187c0.547-0.035,1.112-0.06,1.717-0.06c0.541,0,1.052,0.019,1.547,0.047
		c0.282,1.145,0.526,2.531,0.673,4.16c-0.631-0.032-1.292-0.052-1.992-0.052C29.664,33.257,28.807,33.293,27.994,33.348z
		 M32.552,40.113c-0.158,1.554-0.404,2.856-0.685,3.924c-0.445,0.022-0.907,0.036-1.389,0.036c-0.603,0-1.167-0.025-1.713-0.061
		c-0.287-1.062-0.542-2.36-0.708-3.919c0.748,0.046,1.528,0.078,2.368,0.078C31.175,40.172,31.881,40.15,32.552,40.113z
		 M30.352,47.824c-0.156-0.221-0.72-1.095-1.273-2.76c0.45,0.021,0.916,0.034,1.4,0.034c0.376,0,0.733-0.013,1.088-0.026
		C31.087,46.559,30.592,47.447,30.352,47.824z M35.033,46.942c-1.092,0.483-2.273,0.803-3.512,0.922
		c0.326-0.597,0.757-1.53,1.153-2.858c1.46-0.115,2.732-0.335,3.809-0.614C35.846,45.926,35.2,46.745,35.033,46.942z M32.958,43.957
		c0.266-1.091,0.496-2.391,0.64-3.917c1.617-0.137,2.987-0.371,4.132-0.646c-0.179,1.504-0.474,2.768-0.81,3.804
		C35.842,43.526,34.53,43.808,32.958,43.957z M33.69,34.416c1.663,0.146,3.055,0.394,4.19,0.682c0.018,0.401,0.03,0.813,0.03,1.244
		c0,0.693-0.032,1.338-0.078,1.958c-1.123,0.291-2.501,0.546-4.154,0.697c0.048-0.759,0.076-1.565,0.076-2.428
		C33.754,35.81,33.728,35.102,33.69,34.416z M33.621,33.376c-0.135-1.607-0.364-2.981-0.632-4.146
		c1.631,0.164,2.988,0.47,4.098,0.819c0.317,1.087,0.583,2.4,0.72,3.966C36.646,33.74,35.259,33.508,33.621,33.376z M36.935,45.875
		c0.264-0.508,0.541-1.124,0.804-1.862c0.758-0.259,1.402-0.534,1.929-0.802C38.911,44.243,37.987,45.145,36.935,45.875z
		 M40.817,41.267c-0.286,0.241-1.146,0.89-2.689,1.506c0.289-1.042,0.533-2.252,0.674-3.664c1.41-0.417,2.385-0.874,2.984-1.208
		C41.636,39.088,41.303,40.22,40.817,41.267z M38.885,37.996c0.03-0.53,0.051-1.076,0.051-1.654c0-0.329-0.013-0.639-0.023-0.952
		c1.591,0.496,2.533,1.021,2.925,1.271C41.608,36.822,40.672,37.423,38.885,37.996z M41.837,35.467
		c-0.623-0.337-1.599-0.777-2.982-1.178c-0.106-1.461-0.317-2.73-0.587-3.815c1.76,0.712,2.622,1.444,2.719,1.531
		C41.442,33.085,41.734,34.25,41.837,35.467z M39.975,30.121c-0.546-0.289-1.23-0.598-2.059-0.886
		c-0.278-0.856-0.582-1.566-0.875-2.144C38.195,27.913,39.191,28.939,39.975,30.121z M35.148,26c0.286,0.353,0.941,1.27,1.543,2.857
		c-1.116-0.303-2.435-0.549-3.969-0.678c-0.407-1.457-0.854-2.495-1.19-3.153C32.811,25.152,34.027,25.489,35.148,26z
		 M30.167,24.977c0.054,0,0.108-0.003,0.163-0.004c0.25,0.421,0.788,1.444,1.293,3.134c-0.409-0.018-0.826-0.03-1.262-0.03
		c-0.499,0-0.979,0.013-1.441,0.035C29.38,26.523,29.879,25.493,30.167,24.977z M25.788,25.945c0.993-0.438,2.058-0.739,3.173-0.88
		c-0.337,0.689-0.757,1.722-1.137,3.128c-1.377,0.126-2.576,0.346-3.601,0.617C24.88,27.119,25.578,26.197,25.788,25.945z
		 M23.897,27.004c-0.301,0.58-0.618,1.305-0.911,2.186c-0.869,0.3-1.579,0.621-2.141,0.924
		C21.656,28.893,22.693,27.837,23.897,27.004z M19.832,31.995l0.019,0.019c0.016-0.016,0.879-0.821,2.767-1.581
		c-0.284,1.106-0.505,2.413-0.619,3.911c-1.405,0.406-2.4,0.848-3.024,1.173C19.074,34.277,19.368,33.093,19.832,31.995z
		 M18.94,36.716c0.369-0.226,1.351-0.758,2.997-1.269c-0.012,0.332-0.024,0.662-0.024,1.012c0,0.551,0.019,1.073,0.048,1.58
		c-1.557-0.467-2.546-0.959-3.019-1.229C18.941,36.778,18.941,36.747,18.94,36.716z M19.045,38.028
		c0.663,0.327,1.65,0.737,3.001,1.114c0.141,1.379,0.383,2.571,0.672,3.6c-1.588-0.632-2.469-1.289-2.733-1.507
		C19.523,40.234,19.202,39.158,19.045,38.028z M23.122,43.995c0.283,0.778,0.583,1.429,0.869,1.959
		c-1.117-0.757-2.092-1.706-2.882-2.798C21.654,43.435,22.324,43.724,23.122,43.995z"/>
	<path d="M10.974,29.1h4.892v-0.03c1.159-0.142,2.042-0.845,2.042-1.698c0-0.956-1.104-1.729-2.465-1.729
		c-0.001,0-0.003,0.001-0.004,0.001c-0.025-0.939-1.114-1.697-2.46-1.697c-1.361,0-2.464,0.774-2.464,1.729
		c-1.361,0-2.465,0.774-2.465,1.729c0,0.954,1.104,1.729,2.465,1.729C10.671,29.132,10.824,29.119,10.974,29.1z M12.979,27.403
		c0.001,0,0.003,0,0.004,0c0,0.003,0.001,0.006,0.001,0.01h-0.007C12.977,27.409,12.979,27.407,12.979,27.403z"/>
	<path d="M51.524,25.771c-0.001,0-0.002,0.001-0.004,0.001c-0.021-0.804-0.953-1.452-2.104-1.452c-1.164,0-2.108,0.662-2.108,1.479
		c-1.165,0-2.108,0.662-2.108,1.479c0,0.816,0.944,1.479,2.108,1.479c0.134,0,0.265-0.011,0.393-0.027h4.184v-0.026
		c0.992-0.121,1.747-0.723,1.747-1.452C53.632,26.433,52.688,25.771,51.524,25.771z M49.415,27.286c0-0.003,0.001-0.005,0.001-0.008
		c0.001,0,0.002,0,0.004,0c0,0.002,0.001,0.005,0.001,0.008H49.415z"/>
	<path d="M21.436,12.275c0.082,0,0.161-0.007,0.238-0.017h2.534v-0.016c0.601-0.073,1.058-0.438,1.058-0.88
		c0-0.495-0.572-0.896-1.277-0.896c0,0-0.001,0-0.002,0c-0.013-0.486-0.577-0.879-1.274-0.879c-0.705,0-1.276,0.401-1.276,0.896
		c-0.705,0-1.277,0.401-1.277,0.896S20.73,12.275,21.436,12.275z M22.712,11.38c0.001,0,0.001,0,0.002,0c0,0.002,0,0.003,0,0.005
		h-0.004C22.711,11.383,22.712,11.382,22.712,11.38z"/>
	<path d="M42.493,9.757c0.055,0,0.108-0.005,0.161-0.011h1.708V9.735c0.405-0.05,0.713-0.295,0.713-0.594
		c0-0.334-0.386-0.604-0.861-0.604h-0.001c-0.009-0.328-0.389-0.593-0.859-0.593c-0.476,0-0.861,0.271-0.861,0.604
		c-0.475,0-0.861,0.271-0.861,0.604C41.632,9.486,42.018,9.757,42.493,9.757z M43.354,9.153c0,0,0.001,0,0.001,0l0,0.003h-0.002
		L43.354,9.153z"/>
</g>
</svg>
