<?xml version="1.0" encoding="utf-8"?>
<!-- Generator: Adobe Illustrator 16.0.0, SVG Export Plug-In . SVG Version: 6.00 Build 0)  -->
<!DOCTYPE svg PUBLIC "-//W3C//DTD SVG 1.1//EN" "http://www.w3.org/Graphics/SVG/1.1/DTD/svg11.dtd">
<svg version="1.1" id="Layer_1" xmlns="http://www.w3.org/2000/svg" xmlns:xlink="http://www.w3.org/1999/xlink" x="0px" y="0px"
	 width="64px" height="64px" viewBox="0 0 64 64" enable-background="new 0 0 64 64" xml:space="preserve">
<g>
	<polygon fill="none" points="26.799,29.242 26.909,28.813 26.589,28.736 26.236,28.904 26.455,29.352 	"/>
	<polygon fill="none" points="27.757,30.301 27.312,30.301 27,30.637 26.95,30.971 27.186,31.098 	"/>
	<polygon fill="none" points="28.109,30.191 28.109,29.914 27.992,29.914 27.992,29.754 27.463,29.754 27.077,29.914 27,30.107 
		27.303,30.191 	"/>
	<polygon fill="none" points="28.252,29.871 28.252,30.191 28.53,30.123 	"/>
	<path fill="none" d="M46.083,34.051c-0.018-0.078-0.035-0.154-0.054-0.23l-0.042,0.051L46.083,34.051z"/>
	<polygon fill="none" points="25.793,26.789 25.793,26.578 25.312,26.578 25.287,26.68 24.993,26.68 24.993,26.705 24.993,26.973 
		25.656,26.973 	"/>
	<polygon fill="none" points="29.134,31.006 29.134,30.746 28.623,30.594 28.589,30.594 28.589,30.836 28.706,31.006 	"/>
	<path fill="none" d="M44.424,31.678l-0.067-0.621l-0.36,0.197l-0.194,0.76l-0.521-0.555l-0.021-0.525l-0.503-0.432l-0.187-0.186
		h-0.583l0.185,0.52l0.702,0.393l0.122,0.129l-0.152,0.076l0.006,0.412l-0.342,0.143l-0.291-0.064l-0.184-0.258l0.475,0.025
		l0.129-0.174l-1.053-0.709l-0.08-0.303l-0.427,0.387l-0.435-0.09l-0.659,0.857l-0.13,0.336l-0.422,0.039l-0.624,0.004l-0.374-0.174
		l-0.109-0.742l0.134-0.354l0.635-0.139l0.693,0.139l0.085-0.383l-0.295-0.07l0.102-0.596l0.697-0.109l0.487-0.689l0.503-0.084
		l0.455,0.066h0.167l-0.092-0.646l-0.553,0.223l-0.194-0.482l-0.32-0.045l-0.06-0.332l0.261-0.283l0.622-0.244l0.16-0.287
		c-2.376-2.092-5.491-3.367-8.898-3.367c-2.958,0-5.694,0.961-7.92,2.582l0.68-0.006l0.303,0.168l0.571,0.123l0.044,0.225
		l0.908,0.033l-0.123-0.291L26.57,26.25l0.19-0.178l-0.067-0.213h-0.728l0.795-0.594h0.761l0.359,0.492l0.594,0.033l0.358-0.348
		l0.269,0.135l-0.493,0.482c0,0-0.683,0.012-0.649,0.012s0.057,0.469,0.057,0.469l0.828-0.021l0.09-0.225l0.571-0.033l0.067-0.336
		l-0.336-0.057l0.112-0.303l0.257-0.078l0.896,0.045l-0.494,0.449l0.08,0.346l0.515,0.08l-0.034-0.629l0.494-0.256l0.873-0.102
		l1.266,0.561v0.48l0.403,0.102l-0.201,0.381h-0.571l-0.17,0.436l-1.306-0.307l1.026-0.547l-0.392-0.332l-0.885,0.111l-0.077,0.08
		l-0.003-0.002l-0.015,0.02l-0.255,0.266l-0.421,0.035l0.034,0.209l0.147,0.061l-0.006,0.07l-0.344,0.049l-0.024,0.199l-0.328,0.016
		l-0.059-0.395l-0.588,0.18l-1.202,0.703l0.136,0.494l0.335,0.219l0.672,0.094v0.764l0.311-0.051l0.286-0.596l0.715-0.227v-0.916
		l0.397-0.301l0.961,0.229l-0.067,0.604h0.257l0.706-0.346l0.034,0.795l0.514,0.313l-0.021,0.471l-0.492,0.168l0.033,0.156
		l0.593,0.27l-0.011,0.324l-0.172,0.016c-0.001-0.006-0.003-0.01-0.003-0.01l-0.748-0.23l-0.031-0.24h-0.001l0.219-0.15v-0.219
		l-0.235-0.059l-0.059,0.201l-0.413,0.064l-0.041-0.014v0.021l-0.143,0.021l-0.117-0.236l-0.135-0.059h-0.294l-0.134,0.109v0.244
		l0.252,0.084l0.247,0.033l-0.056,0.025l-0.227,0.252l-0.1-0.127l-0.219-0.057l-0.597,0.561l0.078,0.064l-0.882,0.488l-0.829,0.861
		l-0.057,0.385l-0.831,0.547l-0.412,0.414l0.046,0.828l-0.571-0.266l0.004-0.486l-1.59,0.002l-0.822,0.416l-0.358,0.66l-0.142,0.521
		l0.231,0.508l0.648,0.078l1.031-0.689l0.091,0.342l-0.315,0.596l0.785,0.133l0.078,1.213l1.075,0.182l0.684-0.789l0.829,0.168
		l0.291,0.404l0.795-0.047l0.022-0.234l0.437,0.213l0.493,0.771l0.852,0.012l0.313,0.551l0.044,0.67l0.941,0.359l1.188,0.012
		l0.348,0.57l0.526,0.168l-0.102,0.471l-0.577,0.734l-0.167,1.621l-0.521,0.412l-0.772-0.023l-0.258,0.447l0.191,0.842l-0.841,1.074
		l-0.269,0.494l-0.801,0.385l-0.527,0.08l-0.021,0.223l0.369,0.107L31,47.225l-0.33,0.318l0.2,0.254l0.399,0.01l-0.022,0.309
		l-0.106,0.303l-0.034,0.246l0.59,0.496l-0.079,0.258l-0.803-0.016l-0.797-0.695l-0.622-1.094l0.087-1.055l-0.471-0.627l0.19-1.064
		l-0.28-0.078V42.48c0,0-0.783-0.594-0.828-0.594s-0.415-0.1-0.415-0.1L27.6,41.35l-1.02-1.277l0.102-0.459l0.033-0.75l0.705-0.492
		l-0.101-0.842l-1.03-0.076l-0.807-0.92l-0.571-0.156l-0.37-0.068l0.045-0.336l-0.471-0.066v0.189l-1.176-0.291l-0.474-0.723
		l0.193-0.352l-0.745-1.088l-0.128-0.795h-0.302l0.101,0.773l0.515,0.795l-0.056,0.314l-0.437-0.068l-0.538-0.916V32.68l-0.56-0.27
		v-0.766c-0.692,1.621-1.076,3.404-1.076,5.275c0,7.432,6.047,13.479,13.479,13.479c4.213,0,7.98-1.945,10.454-4.982h-0.445V44.52
		l-0.515-0.691V42.75l-0.393-0.393l-0.033-0.447l0.498-0.953l-0.946-1.668l0.112-1.133l-0.851-0.088l-0.314-0.314H39.91l-0.291,0.27
		h-1.008l-0.034,0.09h-0.561l-1.287-1.467l0.011-1.145l0.213-0.078l0.078-0.436h-0.302l-0.124-0.459l1.49-1.076v-0.762l0.729-0.404
		l0.295,0.029h0.601l0.47-0.252l1.512-0.119v0.773l1.193,0.303l0.235,0.168h0.219v-0.42l0.688-0.066l0.655,0.486h1.075l0.076-0.068
		c-0.107-0.363-0.229-0.719-0.365-1.068l-0.702,0.012L44.424,31.678z M39.115,28.217l0.123-0.191l0.442-0.09l0.112,0.539
		l0.235,0.381l0.156,0.18l0.285,0.111l-0.268,0.318l-0.521,0.051h-0.392l0.044-0.465l0.326-0.066l-0.028-0.219l-0.303-0.191
		l-0.213-0.145V28.217z M38.387,29.057l0.269-0.432l0.363-0.084l0.259,0.113l-0.023,0.291l-0.554,0.391h-0.313V29.057z
		 M31.063,30.715l-0.28,0.023l0.015-0.195l0.127-0.156l0.168,0.131L31.063,30.715z M32.047,30.369l-0.191,0.018l-0.039,0.186
		l-0.147,0.092l-0.237,0.02c-0.007-0.057-0.013-0.098-0.013-0.098h-0.092v-0.199h0.386l0.08-0.205l0.153-0.004l0.176,0.035
		L32.047,30.369z"/>
	<path fill="none" d="M44.833,30.896v0.596l0.263-0.035l0.139,0.006c-0.099-0.225-0.205-0.443-0.316-0.662L44.833,30.896z"/>
	<path fill="none" d="M25.783,27.604c0,0,0.025-0.295,0-0.295s-0.319,0.051-0.319,0.051l-0.471,0.135l0.126,0.15L25.783,27.604z"/>
	<polygon fill="none" points="29.068,30.387 28.862,30.258 28.74,30.387 28.903,30.521 	"/>
	<path fill="none" d="M28.026,30.746l0.252-0.047l0.201-0.131v-0.268h-0.453C28.026,30.342,28.026,30.746,28.026,30.746z"/>
	<path fill="none" d="M46.571,31.492l-0.045-0.248l-0.079-0.031c0.038,0.092,0.073,0.186,0.11,0.279H46.571z"/>
	<polygon fill="none" points="28.026,30.98 27.824,30.998 27.757,31.291 28.185,31.291 28.378,31.098 28.378,30.836 28.068,30.879 	
		"/>
	<path fill="none" d="M21.53,29.715c-0.191,0.301-0.371,0.607-0.538,0.924l0.56-0.68L21.53,29.715z"/>
	<path fill="none" d="M42.13,28.629l0.059,0.191l0.925,0.01l0.265-0.395c-0.213-0.26-0.436-0.512-0.666-0.758l-0.002,0.656
		L42.13,28.629z"/>
	<polygon points="39.63,28.766 39.659,28.984 39.333,29.051 39.289,29.516 39.68,29.516 40.202,29.465 40.469,29.146 40.184,29.035 
		40.028,28.855 39.792,28.475 39.68,27.936 39.238,28.025 39.115,28.217 39.115,28.43 39.328,28.574 	"/>
	<polygon points="39.254,28.945 39.278,28.654 39.019,28.541 38.656,28.625 38.387,29.057 38.387,29.336 38.701,29.336 	"/>
	<path d="M31.793,30.182l-0.08,0.205h-0.386v0.199h0.092c0,0,0.006,0.041,0.013,0.098l0.237-0.02l0.147-0.092l0.039-0.186
		l0.191-0.018l0.075-0.156l-0.176-0.035L31.793,30.182z"/>
	<polygon points="30.797,30.543 30.783,30.738 31.063,30.715 31.092,30.518 30.924,30.387 	"/>
	<path d="M20.51,31.225v0.42c0.146-0.344,0.308-0.678,0.481-1.006L20.51,31.225z"/>
	<path d="M57.227,18.666c-0.13-2.244-1.126-4.303-2.806-5.799c-1.543-1.375-3.529-2.131-5.595-2.131c-2.4,0-4.692,1.027-6.288,2.818
		c-2.085,2.342-2.693,5.586-1.611,8.516c-0.033,0.783-0.116,1.627-0.214,2.41c-2.262-1.424-4.936-2.248-7.8-2.248
		c-3.834,0-7.326,1.477-9.944,3.891c-0.61,0.561-1.171,1.176-1.679,1.832c-1.919,2.482-3.064,5.592-3.064,8.965
		c0,0.031,0.004,0.061,0.005,0.092c-1.104-0.43-2.305-0.637-3.542-0.568c-2.245,0.129-4.305,1.125-5.8,2.805
		s-2.247,3.84-2.116,6.084c0.256,4.447,3.943,7.932,8.396,7.932c0.163,0,0.327-0.006,0.492-0.016
		c3.132-0.182,5.855-2.045,7.16-4.881c0.145-0.133,0.295-0.266,0.448-0.398c2.583,2.258,5.952,3.639,9.645,3.639
		c5.696,0,10.643-3.264,13.077-8.016c0.521-1.016,0.926-2.1,1.199-3.234c0.069-0.287,0.129-0.578,0.182-0.871
		c0.147-0.834,0.229-1.691,0.229-2.566c0-0.051-0.004-0.102-0.004-0.152c-0.005-0.43-0.026-0.855-0.067-1.275
		c-0.136-1.4-0.471-2.742-0.973-4c-0.037-0.094-0.072-0.188-0.11-0.279c-0.516-1.217-1.193-2.346-2.001-3.369
		c0.789-0.203,1.604-0.404,2.264-0.543c0.688,0.178,1.397,0.27,2.112,0.27c2.399,0,4.691-1.027,6.288-2.82
		C56.605,23.072,57.357,20.91,57.227,18.666z M24.993,26.705V26.68h0.294l0.025-0.102h0.481v0.211l-0.138,0.184h-0.663V26.705z
		 M25.463,27.359c0,0,0.294-0.051,0.319-0.051s0,0.295,0,0.295l-0.664,0.041l-0.126-0.15L25.463,27.359z M21.306,47.045
		l-0.151,0.143l-0.083,0.191c-0.966,2.248-3.084,3.732-5.526,3.873c-3.547,0.209-6.573-2.52-6.776-6.035
		c-0.099-1.711,0.474-3.359,1.614-4.639c1.14-1.279,2.71-2.039,4.421-2.139c0.126-0.008,0.251-0.012,0.376-0.012
		c2.34,0,4.495,1.279,5.624,3.336l0.118,0.213l0.203,0.137c0.98,0.656,2.487,1.539,3.584,2.168
		C23.735,44.994,22.39,46.027,21.306,47.045z M46.029,33.82c0.019,0.076,0.036,0.152,0.054,0.23l-0.096-0.18L46.029,33.82z
		 M44.833,30.896l0.085-0.096c0.111,0.219,0.218,0.438,0.316,0.662l-0.139-0.006l-0.263,0.035V30.896z M45.479,32.053
		c0.136,0.35,0.258,0.705,0.365,1.068l-0.076,0.068h-1.075l-0.655-0.486l-0.688,0.066v0.42H43.13l-0.235-0.168l-1.193-0.303v-0.773
		l-1.512,0.119l-0.47,0.252H39.12l-0.295-0.029l-0.729,0.404v0.762l-1.49,1.076l0.124,0.459h0.302l-0.078,0.436l-0.213,0.078
		l-0.011,1.145l1.287,1.467h0.561l0.034-0.09h1.008l0.291-0.27h0.571l0.314,0.314l0.851,0.088l-0.112,1.133l0.946,1.668
		l-0.498,0.953l0.033,0.447l0.393,0.393v1.078l0.515,0.691v0.896h0.445c-2.474,3.037-6.241,4.982-10.454,4.982
		c-3.32,0-6.354-1.217-8.706-3.215c1.468-1.18,2.906-2.154,2.926-2.168l1.348-0.912l-1.422-0.791
		c-0.031-0.016-2.984-1.66-4.627-2.732c-0.733-1.246-1.766-2.244-2.966-2.957c-0.016-0.232-0.032-0.467-0.032-0.703
		c0-1.871,0.384-3.654,1.076-5.275v-0.42l0.481-0.586c0.167-0.316,0.347-0.623,0.538-0.924l0.021,0.244l-0.56,0.68
		c-0.174,0.328-0.335,0.662-0.481,1.006v0.766l0.56,0.27v1.066l0.538,0.916l0.437,0.068l0.056-0.314l-0.515-0.795l-0.101-0.773
		h0.302l0.128,0.795l0.745,1.088l-0.193,0.352l0.474,0.723l1.176,0.291v-0.189l0.471,0.066l-0.045,0.336l0.37,0.068l0.571,0.156
		l0.807,0.92l1.03,0.076l0.101,0.842l-0.705,0.492l-0.033,0.75l-0.102,0.459l1.02,1.277l0.078,0.438c0,0,0.37,0.1,0.415,0.1
		s0.828,0.594,0.828,0.594v2.309l0.28,0.078l-0.19,1.064l0.471,0.627l-0.087,1.055l0.622,1.094l0.797,0.695l0.803,0.016l0.079-0.258
		l-0.59-0.496l0.034-0.246l0.106-0.303l0.022-0.309l-0.399-0.01l-0.2-0.254L31,47.225l0.045-0.24l-0.369-0.107l0.021-0.223
		l0.527-0.08l0.801-0.385l0.269-0.494l0.841-1.074l-0.191-0.842l0.258-0.447l0.772,0.023l0.521-0.412l0.167-1.621l0.577-0.734
		l0.102-0.471l-0.526-0.168l-0.348-0.57l-1.188-0.012l-0.941-0.359l-0.044-0.67l-0.313-0.551l-0.852-0.012l-0.493-0.771
		l-0.437-0.213l-0.022,0.234l-0.795,0.047l-0.291-0.404L28.261,36.5l-0.684,0.789l-1.075-0.182l-0.078-1.213l-0.785-0.133
		l0.315-0.596l-0.091-0.342l-1.031,0.689l-0.648-0.078l-0.231-0.508l0.142-0.521l0.358-0.66l0.822-0.416l1.59-0.002l-0.004,0.486
		l0.571,0.266l-0.046-0.828l0.412-0.414l0.831-0.547l0.057-0.385l0.829-0.861l0.882-0.488l-0.078-0.064l0.597-0.561l0.219,0.057
		l0.1,0.127l0.227-0.252l0.056-0.025l-0.247-0.033l-0.252-0.084v-0.244l0.134-0.109h0.294l0.135,0.059l0.117,0.236l0.143-0.021
		v-0.021l0.041,0.014l0.413-0.064l0.059-0.201l0.235,0.059v0.219l-0.219,0.15h0.001l0.031,0.24l0.748,0.23
		c0,0,0.002,0.004,0.003,0.01l0.172-0.016l0.011-0.324l-0.593-0.27l-0.033-0.156l0.492-0.168l0.021-0.471l-0.514-0.313l-0.034-0.795
		l-0.706,0.346h-0.257l0.067-0.604l-0.961-0.229l-0.397,0.301v0.916l-0.715,0.227l-0.286,0.596l-0.311,0.051v-0.764l-0.672-0.094
		l-0.335-0.219l-0.136-0.494l1.202-0.703l0.588-0.18l0.059,0.395l0.328-0.016l0.024-0.199l0.344-0.049l0.006-0.07l-0.147-0.061
		l-0.034-0.209l0.421-0.035l0.255-0.266l0.015-0.02l0.003,0.002l0.077-0.08l0.885-0.111l0.392,0.332l-1.026,0.547l1.306,0.307
		l0.17-0.436h0.571l0.201-0.381l-0.403-0.102v-0.48l-1.266-0.561l-0.873,0.102l-0.494,0.256l0.034,0.629l-0.515-0.08l-0.08-0.346
		l0.494-0.449l-0.896-0.045l-0.257,0.078l-0.112,0.303l0.336,0.057l-0.067,0.336l-0.571,0.033l-0.09,0.225l-0.828,0.021
		c0,0-0.023-0.469-0.057-0.469s0.649-0.012,0.649-0.012l0.493-0.482l-0.269-0.135l-0.358,0.348l-0.594-0.033l-0.359-0.492H26.76
		l-0.795,0.594h0.728l0.067,0.213l-0.19,0.178l0.807,0.023l0.123,0.291l-0.908-0.033l-0.044-0.225l-0.571-0.123l-0.303-0.168
		l-0.68,0.006c2.226-1.621,4.962-2.582,7.92-2.582c2.827,0,5.445,0.887,7.615,2.381c-0.146,0.969-0.277,1.654-0.28,1.668
		l-0.309,1.598l1.564-0.445c0.007-0.002,0.17-0.049,0.429-0.121l0.055,0.385h-0.167l-0.455-0.066l-0.503,0.084l-0.487,0.689
		l-0.697,0.109l-0.102,0.596l0.295,0.07l-0.085,0.383l-0.693-0.139l-0.635,0.139l-0.134,0.354l0.109,0.742l0.374,0.174l0.624-0.004
		l0.422-0.039l0.13-0.336l0.659-0.857l0.435,0.09l0.427-0.387l0.08,0.303l1.053,0.709l-0.129,0.174l-0.475-0.025l0.184,0.258
		l0.291,0.064l0.342-0.143l-0.006-0.412l0.152-0.076l-0.122-0.129l-0.702-0.393l-0.185-0.52h0.583l0.187,0.186l0.503,0.432
		l0.021,0.525l0.521,0.555l0.194-0.76l0.36-0.197l0.067,0.621l0.353,0.387L45.479,32.053z M26.236,28.904l0.354-0.168l0.319,0.076
		l-0.109,0.43l-0.345,0.109L26.236,28.904z M28.109,29.914v0.277h-0.806L27,30.107l0.076-0.193l0.387-0.16h0.528v0.16H28.109z
		 M28.479,30.301v0.268l-0.201,0.131l-0.252,0.047c0,0,0-0.404,0-0.445H28.479z M28.252,30.191v-0.32l0.277,0.252L28.252,30.191z
		 M28.378,30.836v0.262l-0.193,0.193h-0.428l0.066-0.293l0.202-0.018l0.042-0.102L28.378,30.836z M27.312,30.301h0.445l-0.571,0.797
		l-0.236-0.127L27,30.637L27.312,30.301z M29.134,30.746v0.26h-0.429l-0.116-0.17v-0.242h0.033L29.134,30.746z M28.74,30.387
		l0.122-0.129l0.206,0.129l-0.165,0.135L28.74,30.387z M43.378,28.436l-0.265,0.395l-0.925-0.01l-0.059-0.191l0.58-0.295v-0.029
		c0.141-0.039,0.291-0.078,0.446-0.121C43.23,28.268,43.307,28.35,43.378,28.436z M53.616,23.42
		c-1.623,1.822-4.259,2.572-6.593,1.895l-0.234-0.068l-0.239,0.047c-1.03,0.205-2.468,0.572-3.636,0.885
		c-0.041-0.037-0.079-0.08-0.121-0.117c-0.079-0.072-0.167-0.135-0.247-0.205c0.169-1.148,0.346-2.602,0.388-3.922l0.007-0.207
		l-0.077-0.193c-0.905-2.273-0.457-4.82,1.17-6.648c1.216-1.365,2.964-2.148,4.794-2.148c1.574,0,3.089,0.576,4.265,1.625
		c1.28,1.139,2.04,2.709,2.139,4.422C55.33,20.494,54.756,22.141,53.616,23.42z"/>
	<g>
		<path d="M15.237,45.551c1.563,0,2.833-1.168,2.881-2.619l0.043,0.02c0,0,0.188-0.41,0.085-0.992
			c-0.103-0.582-0.598-2.568-3.009-2.467c-2.36-0.064-1.859,0.883-2.406,1.02c-1.012,0.041-0.563,2.15-0.455,2.605
			C12.523,44.48,13.741,45.551,15.237,45.551z M17.58,42.85c0,1.188-1.052,2.154-2.343,2.154c-1.271,0-2.304-0.938-2.337-2.1
			l2.248-1.355l2.412,1.123C17.566,42.73,17.58,42.787,17.58,42.85z"/>
		<path d="M17.997,45.416l-1.374,0.445l-1.118,0.943l-1.14-0.848l-1.545-0.541c0,0-0.95,4.025-0.062,4.025c0.888,0,4.555,0,5.457,0
			C19.119,49.441,17.997,45.416,17.997,45.416z"/>
	</g>
	<g>
		<path d="M48.597,20.254c1.563,0,2.833-1.168,2.881-2.619l0.043,0.021c0,0,0.188-0.412,0.085-0.992
			c-0.103-0.582-0.598-2.57-3.009-2.467c-2.36-0.064-1.859,0.881-2.406,1.018c-1.012,0.041-0.563,2.152-0.455,2.605
			C45.883,19.184,47.101,20.254,48.597,20.254z M50.94,17.553c0,1.188-1.052,2.154-2.343,2.154c-1.271,0-2.304-0.938-2.337-2.098
			l2.248-1.355l2.412,1.121C50.926,17.436,50.94,17.492,50.94,17.553z"/>
		<path d="M51.357,20.119l-1.374,0.447l-1.118,0.941l-1.14-0.846l-1.545-0.543c0,0-0.95,4.025-0.062,4.025c0.888,0,4.555,0,5.457,0
			C52.479,24.145,51.357,20.119,51.357,20.119z"/>
	</g>
</g>
</svg>
