<?xml version="1.0" encoding="utf-8"?>
<!-- Generator: Adobe Illustrator 16.0.0, SVG Export Plug-In . SVG Version: 6.00 Build 0)  -->
<!DOCTYPE svg PUBLIC "-//W3C//DTD SVG 1.1//EN" "http://www.w3.org/Graphics/SVG/1.1/DTD/svg11.dtd">
<svg version="1.1" id="Layer_1" xmlns="http://www.w3.org/2000/svg" xmlns:xlink="http://www.w3.org/1999/xlink" x="0px" y="0px"
	 width="64px" height="64px" viewBox="0 0 64 64" enable-background="new 0 0 64 64" xml:space="preserve">
<g>
	<path d="M51.151,39.654l0.061-1.342l1.261-0.882l-0.18-1.502l-1.842-0.14l-1.443-1.644l-1.021-0.279l-0.66-0.122l0.08-0.601
		l-0.843-0.12v0.341l-2.104-0.521l-0.847-1.294l0.346-0.628l-1.333-1.944l-0.229-1.422h-0.541l0.182,1.382l0.919,1.422l-0.1,0.562
		l-0.78-0.12l-0.961-1.64v-1.906l-1.002-0.481v-2.123l1.862-2.264l-0.12-1.353l0.521-0.37l-0.621-0.581l0.039-1.022l-0.739-0.661
		h-2.064l-0.34,0.361l-2.465-0.02l-0.902-0.763l0.702-0.5h1.802v-0.336l-0.841-0.125l0.542-0.42l1.182-0.182l1.763-1.202h3.045
		l1.664,0.501l0.56,0.32l0.501,0.04l0.742-0.721l1.336-0.011C44.063,11.19,38.276,8.626,31.89,8.626
		c-6.07,0-11.599,2.315-15.754,6.109l0.6,0.445l0.398,0.031l0.942-0.953l1.04,0.036l1.385,0.206l0.87,0.44l9.314,0.481l2.555,1.081
		l-0.359,0.306l-1.895-0.306l-0.029,0.366l0.691,0.476l-0.902,0.18v0.542l-1.861,0.121l1.411,1.322l0.241,1.082l-0.632,0.33
		l-1.984-1.621v-0.751l0.481-0.752l-0.359-0.451l-2.165,1.442l-1.713-0.151l-0.57-0.42l-0.721,1.022l0.33,0.66l2.493,0.301
		l1.002,1.142l-0.25,0.331l-0.781-0.782l-0.359,0.39l0.609,0.805l-0.13,1.513l-1.603-0.001l-0.08,1.221l1.353,0.821l0.47,0.62
		l-0.711,0.191l-2.523-1.924h-0.812l0.031,1.563l1.832,1.922l0.14,1.393l-0.922,0.77l-2.102,0.752l0.209,0.781l-0.382,0.27
		l-0.429-0.66l0.061-0.511l-0.752-0.24l-0.422,0.57l0.061,1.082l1.481,1.192l0.149,0.901l-0.898,0.597l-0.681-0.071l-1.224-1.387
		l-0.24,0.962l2.314,3.306l-0.151,0.479l-2.854-2.733v-2.765l-2.163-1.922l-1.724-0.165l-0.978,0.365l-0.604,1.302l-0.323,2.418
		l-0.585,0.849L10.14,35.41l-1.604-2.637c0.409,12.55,10.705,22.601,23.354,22.601c9.075,0,16.937-5.176,20.81-12.733l-1.728-2.166
		L51.151,39.654z M12.065,35.996l-0.911,0.339l-0.252-0.68l0.528-0.746l0.734,0.145L12.065,35.996z M28.874,37.918l0.64,0.38
		l-0.05,0.698l0.672-0.017l0.722-0.381l2.584,1.173l0.101,1.392h0.541v0.461H33v-1.142l-0.62,0.061l-0.582,0.621l-1.604,0.101
		l-0.02-0.742h0.482l-0.021-0.361l-0.742-0.39l-1.321-0.19l-0.611-0.751L28.874,37.918z M26.025,41.144l0.048-0.278l0.549-0.081
		l0.045,0.426l-0.337-0.037v0.247h-0.481v0.211h-0.467v-0.421h0.031L26.025,41.144z M25.653,40.943l-0.315-0.098v-0.217h0.405
		L25.653,40.943z M25.48,38.132l0.015,1.952l-0.44,0.04v-0.662l-0.42-0.151l0.079,0.933h-0.54v-1.463h0.261l-0.013-0.238
		L25.48,38.132z M25.135,40.715v0.228l-0.218,0.034v0.234h-0.3v0.187l-0.443,0.046v-0.233l0.284-0.268l0.196-0.228H25.135z
		 M20.838,37.442l2.096-1.137l0.277-0.247l0.232-0.625h0.362l0.12,0.617l0.248,0.104v1.978l-0.248,0.163v0.263l-0.399,0.361
		l-0.225,0.571h-1.765l-0.699-0.925V37.442z M23.926,40.943v0.268h-0.482v-0.268H23.926z M19.038,40.342h0.56v-0.2l-0.421-0.141
		l-2.943-3.605l0.502-0.4l2.065,1.86l-0.023,0.303l0.439,0.581l1.604-0.02l0.06,0.741l-0.581,0.06L20.06,39.42l0.06,0.802
		l1.483-0.04l1.2,0.762l-3.626-0.158L19.038,40.342z M30.179,52.457l-0.843,0.464l-1.043-0.114l0.982-1.086l0.919,0.101
		L30.179,52.457z M30.857,51.281l-2.952-0.103l-0.961-2.116l-2.599,0.104l-3.206,1.102v-0.582l0.662-0.641l0.08-3.285l1.101-0.76
		l0.989-0.013l1.862-2.123l1.176-0.089v0.44h0.401l0.982-1.394h1.367l1.163,0.699l-0.547,0.534l-0.647-0.132l0.043,0.877
		l0.342,0.206l1.224,0.091l0.261-2.212l0.641,0.03l0.712,1.22l0.082,1.764l1.079,0.924l0.29,1.184l-0.701,1.599L30.857,51.281z
		 M37.82,50.903l-0.799,0.354l-0.749,0.491l-2.645,1.621l-1.088,0.167v-0.496l0.354-0.291l2.085-1.482l1.302-0.181l0.701-0.479
		l0.101-1.535l0.798-0.047l0.013,0.981l0.435-0.086l0.296,0.527L37.82,50.903z"/>
	<polygon points="53.074,22.997 52.279,22.997 51.723,23.597 51.632,24.198 52.053,24.424 	"/>
	<polygon points="53.96,22.801 54.457,22.681 53.96,22.229 	"/>
	<polygon points="53.381,22.801 53.705,22.801 53.705,22.305 53.496,22.305 53.496,22.02 53.028,22.02 52.549,22.02 51.857,22.305 
		51.723,22.651 52.264,22.801 	"/>
	<polygon points="51.362,21.103 51.558,20.336 50.986,20.201 50.355,20.501 50.745,21.298 	"/>
	<path d="M55.147,23.375c-0.052-0.131-0.104-0.262-0.156-0.393l-0.158,0.168l0.291,0.243L55.147,23.375z"/>
	<path d="M55.28,23.716l-0.657-0.194h-0.06v0.435l0.209,0.303h0.691C55.402,24.078,55.346,23.895,55.28,23.716z"/>
	<polygon points="48.131,16.565 48.131,17.046 49.319,17.046 49.564,16.716 49.564,16.714 49.564,16.341 49.241,16.341 
		48.704,16.341 48.658,16.521 48.131,16.521 	"/>
	<path d="M53.556,23.229c0,0.237,0,0.564,0,0.564l0.207-0.038l0.243-0.044l0.362-0.233v-0.48h-0.813
		C53.556,23.021,53.556,23.115,53.556,23.229z"/>
	<polygon points="53.631,24.033 53.556,24.213 53.194,24.244 53.074,24.77 53.842,24.77 54.048,24.563 54.187,24.424 54.187,23.957 
		53.858,24.002 	"/>
	<path d="M48.131,17.977l0.227,0.271l1.187-0.076c0,0,0.045-0.525,0-0.525s-0.57,0.09-0.57,0.09L48.131,17.977z"/>
</g>
</svg>
