<?xml version="1.0" encoding="utf-8"?>
<!-- Generator: Adobe Illustrator 16.0.0, SVG Export Plug-In . SVG Version: 6.00 Build 0)  -->
<!DOCTYPE svg PUBLIC "-//W3C//DTD SVG 1.1//EN" "http://www.w3.org/Graphics/SVG/1.1/DTD/svg11.dtd">
<svg version="1.1" id="Layer_1" xmlns="http://www.w3.org/2000/svg" xmlns:xlink="http://www.w3.org/1999/xlink" x="0px" y="0px"
	 width="64px" height="64px" viewBox="0 0 64 64" enable-background="new 0 0 64 64" xml:space="preserve">
<g>
	<path d="M52.559,27.833c-0.029-1.889-0.314-3.717-0.822-5.451c-0.188-0.64-0.404-1.266-0.65-1.88
		c-0.5-1.244-1.119-2.429-1.842-3.539c-0.328-0.503-0.676-0.991-1.047-1.464c-1.014-1.294-2.178-2.463-3.465-3.483
		c-0.441-0.348-0.896-0.682-1.365-0.994C40.107,8.852,36.201,7.583,32,7.583c-3.719,0-7.207,0.997-10.219,2.73
		c-0.496,0.284-0.979,0.588-1.445,0.911c-1.324,0.915-2.537,1.98-3.611,3.173c-0.416,0.461-0.811,0.938-1.184,1.435
		c-1.029,1.373-1.891,2.879-2.553,4.486c-0.256,0.615-0.479,1.244-0.674,1.887c-0.521,1.726-0.818,3.546-0.865,5.428
		c-0.006,0.172-0.014,0.342-0.014,0.515c0,0.63,0.033,1.25,0.088,1.864c0.207,2.291,0.793,4.475,1.691,6.489
		c0.451,1.01,0.982,1.976,1.584,2.894c0,0,5.281,2.4,6.195,2.685c0.023,0.034,0.047,0.063,0.07,0.098l0.959-1.633
		c-2.965-3.609-4.15-10.916-4.125-12.401c0.006-0.442,0.039-0.882,0.082-1.317c0.697,0.387,7.17,3.371,13.771,3.359
		c6.881-0.012,13.898-3.036,14.666-3.471c0.049,0.473,0.086,0.947,0.094,1.429c0.023,1.449-1.537,10.167-4.32,12.687l1.145,1.452
		c0.592-0.17,5.301-2.069,5.301-2.069c0.629-0.865,1.193-1.779,1.684-2.739c1.137-2.224,1.885-4.679,2.143-7.275
		c0.068-0.674,0.102-1.357,0.102-2.05C52.564,28.043,52.559,27.938,52.559,27.833z M28.055,9.692
		C28.209,9.659,28.365,9.63,28.52,9.6c-0.65,1.144-1.531,2.814-2.406,4.866c-0.621-0.298-1.209-0.624-1.727-0.995
		c1.975-2.326,3.641-3.728,3.682-3.761L28.055,9.692z M24.418,10.874c-0.412,0.437-0.852,0.923-1.309,1.459
		c-0.17-0.182-0.35-0.361-0.496-0.553C23.193,11.445,23.799,11.147,24.418,10.874z M21.205,12.676
		c0.248,0.335,0.531,0.655,0.836,0.965c-0.959,1.229-1.934,2.641-2.807,4.199c-0.635-0.585-1.189-1.207-1.643-1.868
		C18.648,14.724,19.861,13.615,21.205,12.676z M13.156,29.233c-0.021-0.359-0.033-0.722-0.033-1.086c0-1.54,0.189-3.037,0.539-4.472
		c0.813,0.787,1.73,1.518,2.732,2.187c-0.105,0.738-0.172,1.489-0.184,2.252c-0.02,1.151,0.074,2.273,0.25,3.362
		C15.258,30.799,14.146,30.052,13.156,29.233z M19.557,39.826c-1.225-0.462-2.391-0.983-3.484-1.564
		c-1.287-2.02-2.197-4.296-2.641-6.735c1.068,0.759,2.238,1.448,3.484,2.067C17.531,35.886,18.49,37.987,19.557,39.826z
		 M16.73,24.086c-0.949-0.683-1.799-1.425-2.527-2.223c0.572-1.615,1.357-3.129,2.324-4.51c0.545,0.714,1.189,1.384,1.912,2.01
		C17.727,20.839,17.127,22.42,16.73,24.086z M22.908,27.154c-1.695-0.553-3.258-1.257-4.66-2.08
		c0.336-1.629,0.893-3.188,1.576-4.647c1.115,0.77,2.371,1.44,3.74,1.991C23.242,23.942,23.01,25.53,22.908,27.154z M20.586,18.931
		c0.85-1.544,1.811-2.949,2.758-4.172c0.645,0.475,1.361,0.896,2.139,1.265c-0.563,1.453-1.096,3.051-1.533,4.748
		C22.709,20.258,21.58,19.636,20.586,18.931z M30.701,27.497c-0.006,0.348-0.01,0.695-0.014,1.043
		c-2.145-0.096-4.197-0.413-6.117-0.907c0.078-1.581,0.297-3.136,0.605-4.635c1.736,0.549,3.621,0.91,5.596,1.058
		C30.744,25.174,30.721,26.323,30.701,27.497z M30.816,22.368c-1.865-0.144-3.637-0.487-5.264-1.007
		c0.43-1.675,0.955-3.258,1.512-4.697c1.213,0.414,2.527,0.703,3.916,0.836C30.922,19,30.867,20.636,30.816,22.368z M31.049,15.812
		c-1.191-0.118-2.313-0.368-3.35-0.709c1.201-2.814,2.412-4.903,2.949-5.782c0.24-0.016,0.484-0.021,0.725-0.029
		C31.303,10.502,31.178,12.808,31.049,15.812z M43.711,13.358c1.297,1.029,2.459,2.224,3.449,3.555
		c-0.48,0.55-1.033,1.067-1.645,1.553c-0.826-1.562-1.762-2.987-2.703-4.244C43.135,13.946,43.436,13.658,43.711,13.358z
		 M42.359,12.378c-0.176,0.187-0.377,0.358-0.576,0.532c-0.512-0.625-1.012-1.192-1.479-1.699
		C41.014,11.561,41.703,11.946,42.359,12.378z M36.463,9.813c0.447,0.39,2.098,1.873,3.936,4.106
		c-0.611,0.372-1.279,0.702-2.004,0.978c-0.916-2.2-1.854-4-2.545-5.222C36.055,9.719,36.26,9.764,36.463,9.813z M33.063,9.31
		c0.213,0.013,0.426,0.026,0.637,0.045c0.566,0.928,1.828,3.114,3.059,6.048c-1.25,0.314-2.6,0.494-4.016,0.494
		c-0.004,0-0.006,0-0.008,0C32.865,12.828,32.994,10.492,33.063,9.31z M32.666,17.582c0.025,0,0.051,0.003,0.076,0.003
		c1.637,0,3.199-0.224,4.641-0.611c0.547,1.445,1.057,3.027,1.467,4.698c-1.893,0.497-3.949,0.776-6.107,0.776
		c-0.08,0-0.16-0.004-0.24-0.005C32.553,20.714,32.609,19.081,32.666,17.582z M32.375,28.565c0.004-0.347,0.008-0.694,0.014-1.04
		c0.02-1.158,0.043-2.292,0.07-3.396c0.094,0.001,0.188,0.006,0.283,0.006c2.277,0,4.457-0.294,6.471-0.823
		c0.273,1.391,0.469,2.827,0.541,4.289C37.463,28.202,34.977,28.542,32.375,28.565z M39.008,16.45c0.875-0.34,1.682-0.753,2.42-1.22
		c0.936,1.25,1.871,2.673,2.68,4.226c-1.086,0.675-2.303,1.255-3.631,1.72C40.063,19.494,39.553,17.904,39.008,16.45z
		 M41.414,27.109c-0.094-1.466-0.293-2.902-0.57-4.289c1.449-0.497,2.785-1.124,3.988-1.856c0.555,1.268,1.008,2.604,1.303,3.992
		C44.723,25.81,43.137,26.536,41.414,27.109z M46.264,19.991c0.68-0.516,1.305-1.068,1.855-1.657
		c0.705,1.152,1.285,2.387,1.73,3.682c-0.648,0.689-1.391,1.335-2.205,1.937C47.307,22.569,46.828,21.244,46.264,19.991z
		 M47.43,39.006c-0.873,0.399-1.791,0.757-2.734,1.085c1.15-1.938,2.191-4.179,2.836-6.637c1.061-0.541,2.078-1.12,3.008-1.764
		C50.029,34.372,48.947,36.854,47.43,39.006z M50.83,29.409c-0.869,0.701-1.828,1.349-2.861,1.943
		c0.162-1.051,0.248-2.13,0.23-3.238c-0.014-0.808-0.088-1.6-0.205-2.38c0.863-0.59,1.664-1.224,2.381-1.901
		c0.326,1.387,0.502,2.83,0.502,4.314C50.877,28.572,50.859,28.992,50.83,29.409z"/>
	<path d="M28.408,39.491c1.451,0,2.701-0.817,3.355-2.006c0.654,1.188,1.906,2.006,3.357,2.006c2.121,0,3.846-1.726,3.846-3.847
		c0-2.12-1.725-3.846-3.846-3.846c-1.451,0-2.703,0.817-3.357,2.006c-0.654-1.188-1.904-2.006-3.355-2.006
		c-2.123,0-3.848,1.726-3.848,3.846C24.561,37.766,26.285,39.491,28.408,39.491z"/>
	<path d="M38.717,40.342c-0.139-0.324-0.387-0.443-0.643-0.429v-0.004h-5.717v0.007c-0.168,0.018-0.314,0.125-0.426,0.304
		c-0.145-0.225-0.354-0.319-0.57-0.307v-0.004h-5.717v0.007c-0.201,0.021-0.389,0.141-0.498,0.4
		c-0.676,1.596-1.35,3.189-2.025,4.784c-0.385,0.909,0.951,1.699,1.338,0.782c0.395-0.934,0.791-1.868,1.186-2.801v3.462
		c0,0.004,0,0.008,0,0.012c0,2.912,0,5.826,0,8.738c0,1.498,2.324,1.498,2.324,0c0-2.323,0-4.645,0-6.967h1.066
		c0,2.322,0,4.644,0,6.967c0,1.498,2.326,1.498,2.326,0c0-2.323,0-4.645,0-6.967c0-0.117,0-0.232,0-0.35
		c-1.068-0.897-3.643-3.213-3.643-4.696c0-1.258,1.021-2.281,2.279-2.281c0.762,0,1.455,0.376,1.873,0.985
		C32.291,41.376,32.982,41,33.744,41c1.258,0,2.281,1.023,2.281,2.281c0,1.503-2.615,3.839-3.668,4.718c0,2.432,0,4.863,0,7.295
		c0,1.498,2.324,1.498,2.324,0c0-2.323,0-4.645,0-6.967h1.066c0,2.322,0,4.644,0,6.967c0,1.498,2.326,1.498,2.326,0
		c0-2.323,0-4.645,0-6.967c0-0.591,0-1.182,0-1.771V43.01c0.457,1.079,0.916,2.157,1.375,3.235c0.414,0.974,1.836,0.136,1.428-0.829
		C40.156,43.725,39.436,42.033,38.717,40.342z"/>
</g>
</svg>
