<?xml version="1.0" encoding="utf-8"?>
<!-- Generator: Adobe Illustrator 16.0.0, SVG Export Plug-In . SVG Version: 6.00 Build 0)  -->
<!DOCTYPE svg PUBLIC "-//W3C//DTD SVG 1.1//EN" "http://www.w3.org/Graphics/SVG/1.1/DTD/svg11.dtd">
<svg version="1.1" id="Layer_1" xmlns="http://www.w3.org/2000/svg" xmlns:xlink="http://www.w3.org/1999/xlink" x="0px" y="0px"
	 width="96px" height="96px" viewBox="0 0 96 96" enable-background="new 0 0 96 96" xml:space="preserve">
<g>
	<path d="M20.287,50.405c-0.37,1.436-1.43,4.985-3.18,10.651h6.41c-1.649-5.308-2.578-8.307-2.784-9.003
		C20.525,51.358,20.377,50.809,20.287,50.405z"/>
	<path d="M43.676,56.227c-1.268,0-2.192,0.391-2.776,1.169c-0.584,0.78-0.886,2.069-0.909,3.862v0.556c0,2.02,0.301,3.466,0.9,4.341
		c0.6,0.876,1.551,1.313,2.852,1.313c1.054,0,1.893-0.484,2.516-1.456c0.622-0.97,0.934-2.381,0.934-4.232
		c0-1.851-0.315-3.238-0.943-4.163C45.623,56.69,44.764,56.227,43.676,56.227z"/>
	<path d="M94.776,20.826l-0.593-2.895c-0.445-2.176-2.574-3.582-4.743-3.147l-0.461,0.089c-0.571,0.109-1.216,0.234-1.887,0.418
		c-0.69,0.166-1.332,0.371-1.9,0.552l-0.387,0.122c-0.046,0.015-0.09,0.029-0.135,0.045c-1.49,0.525-2.981,1.155-4.485,1.898
		c-1.375,0.703-2.746,1.493-4.105,2.366c-1.264,0.828-2.524,1.729-3.767,2.693c-1.063,0.84-2.106,1.724-3.128,2.638h-7.772
		l-2.164-2.348c-0.735-0.798-1.762-1.268-2.847-1.3c-1.098-0.029-2.139,0.372-2.921,1.126l-2.623,2.521H1.14v55.689h76.727V34.83
		c0.797-0.85,1.615-1.666,2.45-2.441c0.876-0.805,1.796-1.584,2.708-2.296c0.909-0.694,1.861-1.353,2.831-1.956l0.302-0.177
		c0.364-0.214,0.729-0.431,1.108-0.619c0.05-0.026,0.101-0.052,0.151-0.08c0.333-0.184,0.677-0.34,1.02-0.499l0.752-0.329
		c0.338-0.138,0.676-0.281,1.021-0.392c0.063-0.02,0.126-0.043,0.189-0.064c0.326-0.122,0.658-0.211,0.991-0.304l0.572-0.163
		C93.976,24.915,95.199,22.881,94.776,20.826z M26.547,71.287l-1.784-5.856h-8.968l-1.784,5.856H8.391l8.684-24.701h6.376
		l8.716,24.701H26.547z M50.482,69.065c-1.295,1.705-3.06,2.559-5.292,2.559c-2.21,0-3.943-0.804-5.2-2.407h-0.354l-0.857,2.07
		h-3.921V45.104h5.132v6.092c0,0.774-0.067,2.014-0.203,3.718h0.203c1.201-1.861,2.979-2.794,5.334-2.794
		c2.221,0,3.959,0.867,5.216,2.601c1.256,1.733,1.885,4.11,1.885,7.125C52.427,64.955,51.779,67.36,50.482,69.065z M64.76,67.468
		c0.987,0,1.901-0.133,2.744-0.396c0.84-0.264,1.682-0.677,2.522-1.237v4.393c-0.829,0.527-1.667,0.891-2.514,1.094
		c-0.847,0.201-1.917,0.303-3.206,0.303c-5.856,0-8.783-3.214-8.783-9.643c0-3.197,0.795-5.639,2.389-7.328
		c1.593-1.688,3.876-2.533,6.849-2.533c2.177,0,4.128,0.428,5.855,1.28L69.1,57.371c-0.806-0.325-1.558-0.592-2.253-0.8
		c-0.697-0.207-1.392-0.311-2.087-0.311c-2.67,0-4.005,1.896-4.005,5.687C60.755,65.628,62.09,67.468,64.76,67.468z M88.749,21.901
		c-0.607,0.192-1.198,0.456-1.791,0.692c-0.582,0.275-1.169,0.53-1.735,0.844c-0.576,0.288-1.13,0.624-1.687,0.947
		c-1.1,0.682-2.168,1.42-3.202,2.211c-1.026,0.799-2.024,1.645-2.986,2.526c-1.918,1.781-3.716,3.708-5.375,5.745
		c-0.832,1.02-1.632,2.063-2.398,3.126c-0.379,0.533-0.757,1.069-1.116,1.611c-0.353,0.528-0.731,1.108-1.014,1.591l-1.817,2.988
		l-2.576-2.564L51.475,30.093l4.567-4.394l8.87,9.632c0.166-0.2,0.329-0.407,0.498-0.607c0.925-1.081,1.875-2.133,2.858-3.155
		c1.963-2.042,4.068-3.957,6.305-5.721c1.125-0.872,2.287-1.707,3.482-2.49c1.206-0.773,2.448-1.491,3.731-2.148
		c1.292-0.638,2.622-1.203,3.988-1.685c0.691-0.217,1.377-0.449,2.087-0.617c0.698-0.195,1.419-0.314,2.131-0.457l0.593,2.894
		C89.969,21.525,89.35,21.677,88.749,21.901z"/>
</g>
</svg>
