<?xml version="1.0" encoding="utf-8"?>
<!-- Generator: Adobe Illustrator 16.0.0, SVG Export Plug-In . SVG Version: 6.00 Build 0)  -->
<!DOCTYPE svg PUBLIC "-//W3C//DTD SVG 1.1//EN" "http://www.w3.org/Graphics/SVG/1.1/DTD/svg11.dtd">
<svg version="1.1" id="Layer_1" xmlns="http://www.w3.org/2000/svg" xmlns:xlink="http://www.w3.org/1999/xlink" x="0px" y="0px"
	 width="96px" height="96px" viewBox="0 0 96 96" enable-background="new 0 0 96 96" xml:space="preserve">
<g>
	<polygon points="41.536,93.685 54.464,93.643 48.128,83.183 	"/>
	<polygon points="54.464,2.315 41.536,2.357 47.872,12.817 	"/>
	<g>
		<path d="M38.353,28.131c-0.317-0.439-1.387-0.328-1.37,0.663c-0.012,0.027,0.13,1.222,1.963,5.653
			C39.156,30.85,38.901,28.909,38.353,28.131z"/>
		<path d="M50.76,53.095c-4.073-4.072-7.517-7.865-10.042-10.763v0.002l-0.188-0.214c-1.411,4.018-3.335,9.22-4.704,12.879
			c4.409-1.071,9.593-1.625,15.168-1.653L50.76,53.095z"/>
		<path d="M24.218,65.733c-0.16,0.518,0.572,1.305,1.354,0.696c0.028-0.007,0.897-0.839,3.336-4.968
			C25.907,63.455,24.51,64.826,24.218,65.733z"/>
		<path d="M76.971,13.932H19.03c-2.816,0-5.099,2.283-5.099,5.099V76.97c0,2.816,2.283,5.099,5.099,5.099h57.94
			c2.813,0,5.098-2.283,5.098-5.099V19.03C82.068,16.214,79.784,13.932,76.971,13.932z M75.835,63.229l-0.07,0.236
			c-1.032,2.768-3.097,4.331-5.682,4.321c-2.884-0.012-4.542-1.461-4.542-1.461c-3.052-2.407-6.151-5.058-9.246-7.909
			c-1.702-0.096-3.392-0.146-5.031-0.146c-6.876,0-12.794,0.834-17.598,2.478l-0.559,1.475c-2.895,7.379-6.894,8.479-9.02,8.479
			c-0.238,0-0.453-0.014-0.639-0.034c-0.449-0.05-0.728-0.137-0.779-0.154l-0.272-0.105c-1.168-0.574-1.917-1.459-2.243-2.596
			c-0.665-2.308,0.757-4.774,1.051-5.245c0,0,2.067-3.703,8.636-5.637c2.029-5.389,5.417-14.48,6.988-19.204
			c-1.267-1.552-1.909-2.397-1.913-2.404c-2.499-3.466-3.261-6.4-2.276-8.73c0.934-2.206,3.169-3.088,4.343-3.264
			c0.295-0.046,0.6-0.071,0.899-0.071c1.605,0,2.992,0.688,3.902,1.938c1.524,2.093,1.731,5.688,0.639,10.991
			c-0.027,0.125-0.061,0.273-0.104,0.441c3.034,3.602,8.853,10.22,16.05,16.986c1.199,0.089,2.401,0.2,3.578,0.328
			c4.035,0.44,6.716,0.97,7.009,1.028c0.113,0.014,4.135,0.607,6.071,3.457C75.969,59.816,76.247,61.477,75.835,63.229z"/>
		<path d="M69.961,62.449c0.539-0.04,1.005-1.009,0.153-1.514c-0.017-0.023-1.108-0.53-5.843-1.293
			C67.224,61.708,69.011,62.508,69.961,62.449z"/>
	</g>
</g>
</svg>
