<?xml version="1.0" encoding="utf-8"?>
<!-- Generator: Adobe Illustrator 16.0.0, SVG Export Plug-In . SVG Version: 6.00 Build 0)  -->
<!DOCTYPE svg PUBLIC "-//W3C//DTD SVG 1.1//EN" "http://www.w3.org/Graphics/SVG/1.1/DTD/svg11.dtd">
<svg version="1.1" id="Layer_1" xmlns="http://www.w3.org/2000/svg" xmlns:xlink="http://www.w3.org/1999/xlink" x="0px" y="0px"
	 width="96px" height="96px" viewBox="0 0 96 96" enable-background="new 0 0 96 96" xml:space="preserve">
<g>
	<path d="M34.645,20.496c-0.439-0.607-1.92-0.453-1.896,0.918c-0.016,0.037,0.18,1.691,2.717,7.826
		C35.758,24.26,35.404,21.574,34.645,20.496z"/>
	<path d="M51.82,55.054c-5.639-5.637-10.406-10.888-13.902-14.899v0.003l-0.26-0.297c-1.953,5.563-4.617,12.764-6.512,17.829
		c6.104-1.481,13.279-2.249,20.998-2.288L51.82,55.054z"/>
	<path d="M15.078,72.55c-0.222,0.716,0.792,1.807,1.874,0.963c0.039-0.01,1.243-1.161,4.618-6.877
		C17.416,69.396,15.482,71.294,15.078,72.55z"/>
	<path d="M88.105,0.839H7.896c-3.898,0-7.059,3.16-7.059,7.059v80.207c0,3.898,3.16,7.059,7.059,7.059h80.209
		c3.895,0,7.057-3.16,7.057-7.059V7.898C95.162,4,92,0.839,88.105,0.839z M86.533,69.083l-0.098,0.326
		c-1.43,3.832-4.287,5.996-7.865,5.981c-3.992-0.016-6.287-2.023-6.287-2.023c-4.225-3.331-8.516-7.001-12.799-10.948
		c-2.355-0.133-4.695-0.201-6.965-0.201c-9.52,0-17.711,1.154-24.361,3.431l-0.773,2.042c-4.008,10.215-9.543,11.738-12.486,11.738
		c-0.33,0-0.627-0.02-0.885-0.047c-0.621-0.068-1.008-0.189-1.078-0.213l-0.377-0.146c-1.617-0.795-2.652-2.021-3.105-3.594
		c-0.92-3.194,1.049-6.609,1.455-7.261c0,0,2.861-5.127,11.955-7.805c2.809-7.459,7.498-20.045,9.674-26.584
		c-1.754-2.148-2.643-3.318-2.648-3.328c-3.459-4.799-4.514-8.86-3.15-12.086c1.293-3.054,4.387-4.275,6.012-4.518
		c0.408-0.064,0.83-0.099,1.244-0.099c2.223,0,4.143,0.953,5.402,2.684c2.109,2.897,2.396,7.874,0.885,15.216
		c-0.037,0.174-0.084,0.377-0.145,0.61c4.199,4.985,12.256,14.147,22.219,23.514c1.66,0.124,3.324,0.276,4.953,0.454
		c5.586,0.609,9.297,1.342,9.703,1.424c0.156,0.02,5.725,0.84,8.404,4.784C86.719,64.359,87.104,66.658,86.533,69.083z"/>
	<path d="M78.401,68.003c0.747-0.055,1.393-1.397,0.213-2.096c-0.023-0.033-1.534-0.734-8.089-1.79
		C74.612,66.978,77.086,68.085,78.401,68.003z"/>
</g>
</svg>
