<?xml version="1.0" encoding="utf-8"?>
<!-- Generator: Adobe Illustrator 16.0.0, SVG Export Plug-In . SVG Version: 6.00 Build 0)  -->
<!DOCTYPE svg PUBLIC "-//W3C//DTD SVG 1.1//EN" "http://www.w3.org/Graphics/SVG/1.1/DTD/svg11.dtd">
<svg version="1.1" xmlns="http://www.w3.org/2000/svg" xmlns:xlink="http://www.w3.org/1999/xlink" x="0px" y="0px" width="96px"
	 height="96px" viewBox="0 0 96 96" enable-background="new 0 0 96 96" xml:space="preserve">
<g id="Layer_1">
	<g>
		<g>
			<g>
				<path d="M95.508,48.793c0-6.457-5.469-12.076-14.465-15.967c1.707-8.656,1.002-16.08-2.414-20.895
					c0.014-0.178,0.027-0.354,0.027-0.535c0-3.605-2.924-6.527-6.527-6.527c-1.633,0-3.119,0.602-4.264,1.592
					c-0.049,0-0.094-0.008-0.143-0.008c-5.551,0-11.975,2.807-18.467,7.793C42.764,9.26,36.34,6.453,30.789,6.453
					c-3.961,0-7.369,1.439-9.859,4.16c-4.313,4.713-5.332,12.729-3.461,22.213C10.877,35.678,6.189,39.457,4.15,43.814
					c-2.166,1.063-3.658,3.283-3.658,5.857c0,3.064,2.117,5.631,4.967,6.332c2.43,3.418,6.57,6.404,12.01,8.756
					c-1.871,9.484-0.852,17.5,3.461,22.213c2.49,2.721,5.898,4.158,9.859,4.158c0,0,0,0,0.002,0c5.549,0,11.973-2.805,18.465-7.791
					c6.492,4.986,12.916,7.791,18.467,7.791c3.959,0,7.369-1.438,9.859-4.158c4.313-4.713,5.332-12.729,3.461-22.213
					C90.039,60.869,95.508,55.248,95.508,48.793z M66.119,13.949c0.994,2.336,3.311,3.975,6.01,3.975
					c0.473,0,0.934-0.053,1.379-0.148c1.223,2.92,1.393,7.295,0.461,12.557c-3.373-0.957-7.055-1.717-10.988-2.248
					c-2.609-3.305-5.301-6.303-8.029-8.928C59.219,16.088,63.072,14.402,66.119,13.949z M59.836,61.471
					c-0.369,0.514-0.738,0.992-1.107,1.486c-3.014,0.305-6.18,0.475-9.473,0.475s-6.459-0.17-9.473-0.475
					c-0.369-0.494-0.738-0.973-1.107-1.486c-3.045-4.244-5.604-8.521-7.689-12.678c2.086-4.158,4.645-8.436,7.689-12.68
					c0.369-0.512,0.738-0.99,1.107-1.486c3.014-0.305,6.18-0.475,9.473-0.475s6.459,0.17,9.473,0.475
					c0.369,0.496,0.738,0.975,1.107,1.486c3.045,4.244,5.604,8.521,7.689,12.68C65.439,52.949,62.881,57.227,59.836,61.471z
					 M71.25,57.391c0.375,1.027,0.713,2.035,1.023,3.027c-1.102,0.316-2.246,0.615-3.436,0.891
					C69.682,60.004,70.486,58.697,71.25,57.391z M49.256,73.701c-1.098-1.031-2.211-2.16-3.33-3.359
					c1.098,0.033,2.205,0.057,3.33,0.057s2.232-0.023,3.332-0.057C51.469,71.541,50.355,72.67,49.256,73.701z M29.674,61.309
					c-1.189-0.275-2.334-0.574-3.436-0.891c0.311-0.992,0.648-2,1.023-3.027C28.025,58.697,28.83,60.004,29.674,61.309z
					 M27.262,40.195c-0.375-1.025-0.713-2.035-1.023-3.027c1.102-0.318,2.246-0.617,3.436-0.891
					C28.83,37.58,28.025,38.889,27.262,40.195z M49.256,23.885c1.098,1.031,2.211,2.16,3.33,3.359
					c-1.098-0.033-2.205-0.057-3.33-0.057s-2.232,0.023-3.33,0.057C47.045,26.045,48.158,24.916,49.256,23.885z M68.838,36.277
					c1.189,0.273,2.334,0.572,3.436,0.891c-0.311,0.992-0.648,2.002-1.023,3.027C70.486,38.889,69.682,37.58,68.838,36.277z
					 M26.354,15.58c1.092-1.191,2.541-1.77,4.436-1.77c3.236,0,7.719,1.717,12.771,5.346c-2.729,2.625-5.42,5.623-8.029,8.928
					c-3.934,0.531-7.615,1.291-10.988,2.248C23.336,23.52,23.971,18.186,26.354,15.58z M12.348,53.434
					c0.752-1.064,1.199-2.359,1.199-3.762c0-1.834-0.758-3.488-1.977-4.674c1.553-1.873,4.186-3.691,7.682-5.287
					c0.939,2.953,2.121,5.996,3.533,9.082c-1.412,3.086-2.594,6.129-3.533,9.082C16.287,56.52,13.938,55.006,12.348,53.434z
					 M30.789,83.775c-1.895,0-3.344-0.578-4.436-1.771c-2.383-2.604-3.018-7.938-1.811-14.75c3.373,0.957,7.055,1.717,10.988,2.248
					c2.609,3.305,5.301,6.303,8.029,8.928C38.51,82.061,34.025,83.775,30.789,83.775z M72.158,82.004
					c-1.092,1.193-2.541,1.771-4.436,1.771c-3.236,0-7.719-1.717-12.771-5.346c2.729-2.625,5.42-5.623,8.029-8.928
					c3.934-0.531,7.615-1.291,10.988-2.248C75.176,74.066,74.541,79.4,72.158,82.004z M79.26,57.875
					c-0.939-2.953-2.121-5.996-3.533-9.082c1.412-3.086,2.594-6.129,3.533-9.082c5.84,2.668,9.283,5.957,9.283,9.082
					C88.543,51.916,85.1,55.205,79.26,57.875z"/>
			</g>
		</g>
	</g>
</g>
<g id="Layer_2">
</g>
</svg>
