<?xml version="1.0" encoding="utf-8"?>
<!-- Generator: Adobe Illustrator 16.0.0, SVG Export Plug-In . SVG Version: 6.00 Build 0)  -->
<!DOCTYPE svg PUBLIC "-//W3C//DTD SVG 1.1//EN" "http://www.w3.org/Graphics/SVG/1.1/DTD/svg11.dtd">
<svg version="1.1" id="Layer_1" xmlns="http://www.w3.org/2000/svg" xmlns:xlink="http://www.w3.org/1999/xlink" x="0px" y="0px"
	 width="96px" height="96px" viewBox="0 0 96 96" enable-background="new 0 0 96 96" xml:space="preserve">
<g>
	<path d="M90.325,64.846H75.921v-5.063c0-1.627-0.932-3.111-2.395-3.82c-0.588-0.285-1.221-0.424-1.848-0.424
		c-0.939,0-1.869,0.311-2.635,0.914l-2.984,2.361l-8.969-4.131l-4.947-4.17l-8.502,8.455l-8.523-8.455l-4.947,4.17l-10.299,4.742
		c-1.523,0.625-2.875,1.705-3.781,3.227l-14.66,24.51h63.504l4.109,3.252c1.275,1.008,3.016,1.201,4.482,0.492
		c1.463-0.709,2.395-2.193,2.395-3.82V82.02h14.404c2.344,0,4.244-1.898,4.244-4.244V69.09
		C94.569,66.746,92.669,64.846,90.325,64.846z M90.325,77.775H71.677v9.311L54.423,73.434l17.254-13.65v9.307h18.648V77.775z"/>
	<path d="M43.575,51.533v0.002c0.008,0,0.02-0.002,0.029-0.002c0.004,0,0.012,0.002,0.02,0.002c0,0,0.004,0,0.006,0
		c0.004,0,0.006,0,0.008,0c0.006,0,0.014-0.002,0.02-0.002c0.01,0,0.02,0.002,0.029,0.002v-0.002
		c12.004,0.182,19.301-10.324,19.49-27.646c0.121-12.018-7.332-18.889-19.469-19.213V4.67c-0.02,0-0.033,0.002-0.051,0.002V4.67
		c-0.012,0-0.02,0-0.027,0.002C43.622,4.67,43.612,4.67,43.604,4.67v0.002c-0.02,0-0.033-0.002-0.049-0.002v0.004
		c-12.139,0.324-19.592,7.195-19.471,19.213C24.272,41.209,31.569,51.715,43.575,51.533z"/>
</g>
</svg>
