<?xml version="1.0" encoding="utf-8"?>
<!-- Generator: Adobe Illustrator 16.0.0, SVG Export Plug-In . SVG Version: 6.00 Build 0)  -->
<!DOCTYPE svg PUBLIC "-//W3C//DTD SVG 1.1//EN" "http://www.w3.org/Graphics/SVG/1.1/DTD/svg11.dtd">
<svg version="1.1" id="Layer_1" xmlns="http://www.w3.org/2000/svg" xmlns:xlink="http://www.w3.org/1999/xlink" x="0px" y="0px"
	 width="96px" height="96px" viewBox="0 0 96 96" enable-background="new 0 0 96 96" xml:space="preserve">
<g>
	<path d="M76.85,45.443c-2.806,0-5.458,0.241-7.841,1.368c0,0-7.566-3.489-21.362-3.489s-21.571,3.484-21.571,3.484
		c-2.141-0.872-4.476-1.362-6.926-1.362c-10.167,0-18.438,8.271-18.438,18.439c0,10.167,8.271,18.438,18.438,18.438
		c9.914,0,18.002-7.87,18.4-17.688c3.432,3.187,7.063,5.588,10.218,5.588c3.341,0,7.139-2.69,10.652-6.156
		c0.1,10.083,8.323,18.256,18.429,18.256c10.167,0,18.438-8.271,18.438-18.438C95.288,53.714,87.017,45.443,76.85,45.443z
		 M19.15,75.405c-6.354,0-11.524-5.169-11.524-11.523c0-6.355,5.17-11.524,11.524-11.524c6.354,0,11.524,5.169,11.524,11.524
		C30.674,70.236,25.504,75.405,19.15,75.405z M76.85,75.405c-6.354,0-11.524-5.169-11.524-11.523c0-6.355,5.17-11.524,11.524-11.524
		c6.354,0,11.524,5.169,11.524,11.524C88.374,70.236,83.204,75.405,76.85,75.405z"/>
	<path d="M19.687,55.338c-4.914,0-8.897,3.983-8.897,8.897c0,2.514,1.046,4.78,2.723,6.397c-0.54-1.147-0.85-2.423-0.85-3.775
		c0-4.915,3.983-8.898,8.897-8.898c2.4,0,4.575,0.955,6.175,2.5C26.314,57.437,23.25,55.338,19.687,55.338z"/>
	<path d="M76.708,55.339c-3.563,0-6.627,2.098-8.048,5.122c1.6-1.545,3.774-2.5,6.174-2.5c4.915,0,8.898,3.983,8.898,8.898
		c0,1.352-0.31,2.628-0.85,3.775c1.676-1.618,2.723-3.883,2.723-6.397C85.605,59.322,81.622,55.339,76.708,55.339z"/>
	<polygon points="60.333,39.642 73.313,26.661 60.333,13.68 60.26,22.028 22.688,22.028 22.688,31.294 60.26,31.294 	"/>
</g>
</svg>
