<?xml version="1.0" encoding="utf-8"?>
<!-- Generator: Adobe Illustrator 16.0.0, SVG Export Plug-In . SVG Version: 6.00 Build 0)  -->
<!DOCTYPE svg PUBLIC "-//W3C//DTD SVG 1.1//EN" "http://www.w3.org/Graphics/SVG/1.1/DTD/svg11.dtd">
<svg version="1.1" id="Layer_1" xmlns="http://www.w3.org/2000/svg" xmlns:xlink="http://www.w3.org/1999/xlink" x="0px" y="0px"
	 width="96px" height="96px" viewBox="0 0 96 96" enable-background="new 0 0 96 96" xml:space="preserve">
<g>
	<path d="M66.175,27.44c-1.904-0.521-6.465-1.327-6.465-1.327s-6.231-4.946-11.721-4.946S36.29,26.113,36.29,26.113
		s-4.561,0.806-6.465,1.327c8.529,3.114,14.647,11.286,14.647,20.88c0,3.94-1.04,7.639-2.845,10.852h6.359h0.025h6.359
		c-1.805-3.213-2.845-6.911-2.845-10.852C51.527,38.727,57.646,30.555,66.175,27.44z"/>
	<g>
		<path d="M20.976,28.389c-11.441,0-20.749,9.308-20.749,20.749c0,11.44,9.308,20.749,20.749,20.749
			c11.441,0,20.75-9.309,20.75-20.749C41.726,37.696,32.417,28.389,20.976,28.389z M20.976,62.242
			c-7.226,0-13.104-5.878-13.104-13.104c0-7.226,5.879-13.105,13.104-13.105c7.226,0,13.105,5.88,13.105,13.105
			C34.081,56.364,28.202,62.242,20.976,62.242z"/>
		<path d="M12.514,42.53c-2.838,3.68-2.595,8.762,0.33,12.146c-1.038-3.456-0.462-7.343,1.91-10.417
			c2.373-3.075,5.986-4.617,9.593-4.489C20.332,37.799,15.353,38.853,12.514,42.53z"/>
		<path d="M75.024,28.389c-11.441,0-20.75,9.308-20.75,20.749c0,11.44,9.308,20.749,20.75,20.749
			c11.441,0,20.749-9.309,20.749-20.749C95.773,37.696,86.465,28.389,75.024,28.389z M75.024,62.242
			c-7.226,0-13.105-5.878-13.105-13.104c0-7.226,5.879-13.105,13.105-13.105c7.226,0,13.104,5.88,13.104,13.105
			C88.128,56.364,82.25,62.242,75.024,62.242z"/>
		<path d="M71.653,39.771c3.607-0.128,7.22,1.414,9.593,4.489c2.373,3.074,2.948,6.961,1.91,10.417
			c2.924-3.385,3.168-8.467,0.33-12.146C80.647,38.853,75.668,37.799,71.653,39.771z"/>
	</g>
</g>
</svg>
