<?xml version="1.0" encoding="utf-8"?>
<!-- Generator: Adobe Illustrator 16.0.0, SVG Export Plug-In . SVG Version: 6.00 Build 0)  -->
<!DOCTYPE svg PUBLIC "-//W3C//DTD SVG 1.1//EN" "http://www.w3.org/Graphics/SVG/1.1/DTD/svg11.dtd">
<svg version="1.1" id="Layer_1" xmlns="http://www.w3.org/2000/svg" xmlns:xlink="http://www.w3.org/1999/xlink" x="0px" y="0px"
	 width="96px" height="96px" viewBox="0 0 96 96" enable-background="new 0 0 96 96" xml:space="preserve">
<g>
	<path d="M66.175,26.303c-1.904-0.521-4.053-0.992-6.465-1.327c-1.528,2.193-7.985,3.764-11.699,3.764h-0.021
		c-3.714,0-10.171-1.57-11.699-3.764c-2.412,0.335-4.561,0.806-6.465,1.327c8.529,3.114,14.647,11.286,14.647,20.88
		c0,3.94-1.04,7.639-2.845,10.852h6.359h0.025h6.359c-1.805-3.213-2.845-6.911-2.845-10.852
		C51.527,37.589,57.646,29.417,66.175,26.303z"/>
	<g>
		<path d="M20.976,27.251C9.535,27.251,0.227,36.559,0.227,48s9.308,20.749,20.749,20.749c11.441,0,20.75-9.308,20.75-20.749
			S32.417,27.251,20.976,27.251z M20.976,61.105C13.75,61.105,7.872,55.227,7.872,48c0-7.225,5.879-13.105,13.104-13.105
			c7.226,0,13.105,5.88,13.105,13.105C34.081,55.227,28.202,61.105,20.976,61.105z"/>
		<path d="M12.514,41.393c-2.838,3.679-2.595,8.762,0.33,12.146c-1.038-3.456-0.462-7.342,1.91-10.417
			c2.373-3.075,5.986-4.617,9.593-4.489C20.332,36.662,15.353,37.715,12.514,41.393z"/>
		<path d="M75.024,27.251c-11.441,0-20.75,9.308-20.75,20.749s9.308,20.749,20.75,20.749c11.441,0,20.749-9.308,20.749-20.749
			S86.465,27.251,75.024,27.251z M75.024,61.105c-7.226,0-13.105-5.878-13.105-13.105c0-7.225,5.879-13.105,13.105-13.105
			c7.226,0,13.104,5.88,13.104,13.105C88.128,55.227,82.25,61.105,75.024,61.105z"/>
		<path d="M71.653,38.633c3.607-0.128,7.22,1.414,9.593,4.489c2.373,3.075,2.948,6.961,1.91,10.417
			c2.924-3.384,3.168-8.467,0.33-12.146C80.647,37.715,75.668,36.662,71.653,38.633z"/>
	</g>
</g>
</svg>
