<?xml version="1.0" encoding="utf-8"?>
<!-- Generator: Adobe Illustrator 16.0.4, SVG Export Plug-In . SVG Version: 6.00 Build 0)  -->
<!DOCTYPE svg PUBLIC "-//W3C//DTD SVG 1.1//EN" "http://www.w3.org/Graphics/SVG/1.1/DTD/svg11.dtd">
<svg version="1.1" id="Layer_1" xmlns="http://www.w3.org/2000/svg" xmlns:xlink="http://www.w3.org/1999/xlink" x="0px" y="0px"
	 width="96px" height="96px" viewBox="0 0 96 96" enable-background="new 0 0 96 96" xml:space="preserve">
<path d="M80.906,16.655l3.59,3.587L67.06,37.688l-3.589-3.587L80.906,16.655z M93.846,27.234c0,8.726-5.695,16.136-13.559,18.74
	v1.516L27.252,69.682l-0.766,2.43h53.385v7.57h-5.018c0.318,0.773,0.498,1.627,0.498,2.523c0,3.486-2.656,6.312-5.931,6.312
	c-3.278,0-5.933-2.826-5.933-6.312c0-0.896,0.179-1.75,0.496-2.523H32.696c0.316,0.773,0.496,1.627,0.496,2.523
	c0,3.486-2.656,6.312-5.932,6.312c-3.278,0-5.934-2.826-5.934-6.312c0-0.896,0.18-1.75,0.5-2.523h-5.658l4.092-13.01l-9.32-44.965
	l-8.785-1.463L3.4,12.775L17.329,15.1l1.393,6.892h23.924h4.737h7.691c2.304-8.352,9.947-14.508,19.021-14.508
	C84.986,7.484,93.846,16.344,93.846,27.234z M87.846,27.234c0-7.582-6.168-13.75-13.75-13.75s-13.75,6.168-13.75,13.75
	s6.168,13.75,13.75,13.75S87.846,34.816,87.846,27.234z"/>
</svg>
