<?xml version="1.0" encoding="utf-8"?>
<!-- Generator: Adobe Illustrator 16.0.0, SVG Export Plug-In . SVG Version: 6.00 Build 0)  -->
<!DOCTYPE svg PUBLIC "-//W3C//DTD SVG 1.1//EN" "http://www.w3.org/Graphics/SVG/1.1/DTD/svg11.dtd">
<svg version="1.1" id="Layer_1" xmlns="http://www.w3.org/2000/svg" xmlns:xlink="http://www.w3.org/1999/xlink" x="0px" y="0px"
	 width="96px" height="96px" viewBox="0 0 96 96" enable-background="new 0 0 96 96" xml:space="preserve">
<g>
	<path d="M66.126,45.487l-3.389-1.237l3.267-1.53c8-3.746,12.407-10.202,12.407-18.177c0-7.521-3.916-13.917-10.744-17.548
		c-6.342-3.751-13.604-5.134-26.854-5.134c-9.941,0-20.689,0.75-26.341,1.833v89.137c3.562,0.509,10.916,1.307,22.002,1.307
		c17.098,0,28.779-2.681,35.71-8.196c6.109-4.945,9.344-11.551,9.344-19.095C81.528,56.845,75.914,49.059,66.126,45.487z
		 M34.207,16.745l1.311-0.166c2.157-0.273,4.733-0.407,7.874-0.407c9.68,0,15.012,3.888,15.012,10.946
		c0,7.279-6.372,11.625-17.045,11.625h-7.15V16.745z M42.577,79.556c-2.873,0-5.142,0-7-0.16l-1.371-0.118V52.782h7.42
		c12.041,0,18.946,4.83,18.946,13.251C60.573,74.627,54.013,79.556,42.577,79.556z"/>
</g>
</svg>
