<?xml version="1.0" encoding="utf-8"?>
<!-- Generator: Adobe Illustrator 16.0.0, SVG Export Plug-In . SVG Version: 6.00 Build 0)  -->
<!DOCTYPE svg PUBLIC "-//W3C//DTD SVG 1.1//EN" "http://www.w3.org/Graphics/SVG/1.1/DTD/svg11.dtd">
<svg version="1.1" id="Layer_1" xmlns="http://www.w3.org/2000/svg" xmlns:xlink="http://www.w3.org/1999/xlink" x="0px" y="0px"
	 width="96px" height="96px" viewBox="0 0 96 96" enable-background="new 0 0 96 96" xml:space="preserve">
<path d="M81.276,58.288H71.128v-4.932V46.54V26.933l0.02-6.699c-0.039-0.184-3.766-7.355-3.766-7.355l3.324-6.32
	c0.354-0.67,0.33-1.475-0.061-2.121c-0.393-0.648-1.094-1.045-1.85-1.045H11.38c-1.191,0-2.158,0.967-2.158,2.16l0.051,80.307
	h10.369V20.233h-6.102V7.712h51.68l-2.186,4.15c-0.328,0.625-0.332,1.369-0.006,1.998l3.295,6.373h-42.43v65.625h7.914h6.818h8.037
	l7.032,5.563c1.654,1.309,3.911,1.557,5.809,0.639c1.898-0.92,3.104-2.844,3.104-4.951v-1.25h8.521v-5.313h10.147
	c3.038,0,5.5-2.463,5.5-5.5V63.788C86.776,60.751,84.313,58.288,81.276,58.288z M80.915,74.798H56.747V86.86L34.385,69.169
	l22.361-17.693V63.54h24.168V74.798z"/>
</svg>
