<?xml version="1.0" encoding="utf-8"?>
<!-- Generator: Adobe Illustrator 16.0.0, SVG Export Plug-In . SVG Version: 6.00 Build 0)  -->
<!DOCTYPE svg PUBLIC "-//W3C//DTD SVG 1.1//EN" "http://www.w3.org/Graphics/SVG/1.1/DTD/svg11.dtd">
<svg version="1.1" id="Layer_1" xmlns="http://www.w3.org/2000/svg" xmlns:xlink="http://www.w3.org/1999/xlink" x="0px" y="0px"
	 width="96px" height="96px" viewBox="0 0 96 96" enable-background="new 0 0 96 96" xml:space="preserve">
<path d="M78.87,70.098l7.439-7.439c2.147-2.148,2.147-5.631,0-7.777l-6.264-6.264c-2.148-2.148-5.63-2.148-7.778,0l-2.281,2.281
	v-4.938V26.355l-0.03-6.701c-0.04-0.184-3.716-7.354-3.716-7.354l3.324-6.32c0.354-0.67,0.33-1.477-0.061-2.123
	c-0.392-0.648-1.094-1.045-1.85-1.045H10.238c-1.191,0-2.158,0.967-2.158,2.162l0.052,80.305h10.369V19.654h-6.103V7.133h51.68
	l-2.186,4.152c-0.328,0.623-0.331,1.369-0.006,1.998l3.295,6.371h-42.43v65.625h7.915h6.818h5.835
	c0.011,0.012,0.018,0.023,0.028,0.035l6.263,6.262c2.148,2.148,5.63,2.148,7.778,0l6.297-6.297h2.283l6.298,6.297
	c1.074,1.074,2.481,1.611,3.889,1.611s2.815-0.537,3.889-1.609l6.264-6.264c1.032-1.031,1.611-2.43,1.611-3.889
	s-0.579-2.857-1.61-3.889L78.87,70.098z M76.319,87.74L64.991,76.412L53.663,87.74L47.4,81.479L58.729,70.15L47.4,58.822
	l6.263-6.264l11.328,11.328l11.328-11.328l6.264,6.264L71.255,70.15l11.328,11.328L76.319,87.74z"/>
</svg>
