<?xml version="1.0" encoding="utf-8"?>
<!-- Generator: Adobe Illustrator 16.0.0, SVG Export Plug-In . SVG Version: 6.00 Build 0)  -->
<!DOCTYPE svg PUBLIC "-//W3C//DTD SVG 1.1//EN" "http://www.w3.org/Graphics/SVG/1.1/DTD/svg11.dtd">
<svg version="1.1" id="Layer_1" xmlns="http://www.w3.org/2000/svg" xmlns:xlink="http://www.w3.org/1999/xlink" x="0px" y="0px"
	 width="96px" height="96px" viewBox="0 0 96 96" enable-background="new 0 0 96 96" xml:space="preserve">
<g>
	<circle cx="72.425" cy="64.613" r="3.428"/>
	<rect x="69.503" y="69.83" width="5.844" height="14.977"/>
	<path d="M72.645,51.619v-3.344c0,0,0.008-25.992,0-26.07l-3.746-7.59l3.324-6.32c0.354-0.67,0.33-1.477-0.061-2.123
		c-0.392-0.648-1.094-1.045-1.85-1.045H12.896c-1.191,0-2.158,0.967-2.158,2.162l0.052,80.305h10.369V21.969h-6.103V9.447h51.68
		L64.551,13.6c-0.328,0.623-0.331,1.369-0.006,1.998l3.295,6.371H25.41v65.625h7.915h6.818H54.67h2.236
		c3.866,4,9.274,6.5,15.264,6.5c11.718,0,21.25-9.531,21.25-21.25C93.42,61.287,84.142,51.873,72.645,51.619z M72.17,87.094
		c-7.857,0-14.25-6.393-14.25-14.25s6.393-14.25,14.25-14.25s14.25,6.393,14.25,14.25S80.027,87.094,72.17,87.094z"/>
</g>
</svg>
