<?xml version="1.0" encoding="utf-8"?>
<!-- Generator: Adobe Illustrator 16.0.0, SVG Export Plug-In . SVG Version: 6.00 Build 0)  -->
<!DOCTYPE svg PUBLIC "-//W3C//DTD SVG 1.1//EN" "http://www.w3.org/Graphics/SVG/1.1/DTD/svg11.dtd">
<svg version="1.1" id="Layer_1" xmlns="http://www.w3.org/2000/svg" xmlns:xlink="http://www.w3.org/1999/xlink" x="0px" y="0px"
	 width="96px" height="96px" viewBox="0 0 96 96" enable-background="new 0 0 96 96" xml:space="preserve">
<path d="M77.986,12.994l3.667-6.969c0.391-0.738,0.363-1.627-0.067-2.34c-0.432-0.715-1.205-1.152-2.04-1.152H16.235
	c-1.314,0-2.38,1.066-2.38,2.383l0.057,88.551h11.434V21.104h-6.729V7.297h56.985l-2.409,4.578c-0.362,0.688-0.365,1.51-0.007,2.203
	l3.633,7.025H30.033v72.363h32.264h19.819V28.492v-7.429L77.986,12.994z M70,68.667c-1.521,1.521-3.279,2.737-5.226,3.613
	l-1.368,0.616l-2.681-5.956l1.368-0.615c1.222-0.551,2.329-1.316,3.289-2.276c2.095-2.095,3.249-4.886,3.249-7.857
	s-1.154-5.763-3.249-7.857c-2.095-2.096-4.886-3.249-7.858-3.249s-5.763,1.153-7.857,3.248c-3.817,3.817-4.299,9.729-1.356,14.073
	l4.705-4.705l0,14.318L38.696,72.02l4.944-4.944c-5.492-6.973-4.98-16.973,1.408-23.361c3.327-3.327,7.758-5.16,12.475-5.16
	c4.718,0,9.149,1.833,12.477,5.16C76.879,50.594,76.879,61.788,70,68.667z"/>
</svg>
