<?xml version="1.0" encoding="utf-8"?>
<!-- Generator: Adobe Illustrator 16.0.0, SVG Export Plug-In . SVG Version: 6.00 Build 0)  -->
<!DOCTYPE svg PUBLIC "-//W3C//DTD SVG 1.1//EN" "http://www.w3.org/Graphics/SVG/1.1/DTD/svg11.dtd">
<svg version="1.1" id="Layer_1" xmlns="http://www.w3.org/2000/svg" xmlns:xlink="http://www.w3.org/1999/xlink" x="0px" y="0px"
	 width="96px" height="96px" viewBox="0 0 96 96" enable-background="new 0 0 96 96" xml:space="preserve">
<path d="M84.689,65.102l-13.56-10.729v-1.016v-6.816V26.934v-6.699l-3.746-7.355l3.324-6.32c0.354-0.67,0.33-1.475-0.061-2.121
	c-0.393-0.648-1.094-1.045-1.85-1.045H11.381c-1.191,0-2.158,0.967-2.158,2.16l0.051,80.307h10.369V20.234h-6.102V7.713h51.68
	l-2.186,4.15c-0.328,0.625-0.332,1.369-0.006,1.998l3.295,6.373h-42.43v65.625h7.914h6.818h14.527h0.261v1.25
	c0,2.109,1.206,4.031,3.104,4.951c0.762,0.367,1.581,0.549,2.395,0.549c1.216,0,2.423-0.404,3.414-1.188l22.361-17.693
	c1.318-1.043,2.087-2.633,2.087-4.313C86.777,67.734,86.008,66.145,84.689,65.102z M58.015,86.75V74.686H33.847V63.428h24.168
	V51.365l22.361,17.691L58.015,86.75z"/>
</svg>
