<?xml version="1.0" encoding="utf-8"?>
<!-- Generator: Adobe Illustrator 16.0.0, SVG Export Plug-In . SVG Version: 6.00 Build 0)  -->
<!DOCTYPE svg PUBLIC "-//W3C//DTD SVG 1.1//EN" "http://www.w3.org/Graphics/SVG/1.1/DTD/svg11.dtd">
<svg version="1.1" id="Layer_1" xmlns="http://www.w3.org/2000/svg" xmlns:xlink="http://www.w3.org/1999/xlink" x="0px" y="0px"
	 width="96px" height="96px" viewBox="0 0 96 96" enable-background="new 0 0 96 96" xml:space="preserve">
<g>
	<path d="M78.624,12.25l3.745-7.117c0.398-0.754,0.37-1.661-0.07-2.39c-0.44-0.73-1.23-1.177-2.082-1.177H15.56
		c-1.342,0-2.431,1.089-2.431,2.434l0.019,90.434h11.718V20.532h-6.874v-14.1h58.197l-2.461,4.675
		c-0.368,0.702-0.372,1.542-0.006,2.25l3.71,7.175H29.652v73.902h8.912h7.678h16.359h20.241l0.028-73.776L78.624,12.25z
		 M79.149,73.532H57.786L42.978,60.255L57.786,48h21.363V73.532z"/>
	<path d="M65.84,62.176v6.722h4.636v-6.722c1.148-0.756,1.908-2.052,1.908-3.529c0-2.334-1.892-4.226-4.226-4.226
		c-2.335,0-4.226,1.892-4.226,4.226C63.933,60.124,64.692,61.42,65.84,62.176z"/>
</g>
</svg>
