<?xml version="1.0" encoding="utf-8"?>
<!-- Generator: Adobe Illustrator 16.0.0, SVG Export Plug-In . SVG Version: 6.00 Build 0)  -->
<!DOCTYPE svg PUBLIC "-//W3C//DTD SVG 1.1//EN" "http://www.w3.org/Graphics/SVG/1.1/DTD/svg11.dtd">
<svg version="1.1" id="Layer_1" xmlns="http://www.w3.org/2000/svg" xmlns:xlink="http://www.w3.org/1999/xlink" x="0px" y="0px"
	 width="96px" height="96px" viewBox="0 0 96 96" enable-background="new 0 0 96 96" xml:space="preserve">
<path d="M84.89,58.234L71.56,41.387V27.91c0,0,0.008-6.385,0-6.465l-3.746-7.59l3.324-6.32c0.354-0.67,0.33-1.475-0.061-2.121
	c-0.393-0.648-1.094-1.045-1.85-1.045H11.812c-1.191,0-2.158,0.967-2.158,2.16l0.051,80.307h10.369V21.211h-6.102V8.689h51.68
	l-2.186,4.15c-0.328,0.625-0.332,1.369-0.006,1.998l3.295,6.373h-42.43v65.625h7.914h6.818h12.997
	c0.347,2.703,2.652,4.795,5.45,4.795h11.258c3.038,0,5.5-2.463,5.5-5.5V67.463h6.563c0.007,0,0.013,0,0.021,0
	c3.037,0,5.5-2.463,5.5-5.5C86.347,60.525,85.794,59.215,84.89,58.234z M68.413,61.762V85.93H57.155V61.762H45.092L62.784,39.4
	l17.692,22.361H68.413z"/>
</svg>
