<?xml version="1.0" encoding="utf-8"?>
<!-- Generator: Adobe Illustrator 16.0.0, SVG Export Plug-In . SVG Version: 6.00 Build 0)  -->
<!DOCTYPE svg PUBLIC "-//W3C//DTD SVG 1.1//EN" "http://www.w3.org/Graphics/SVG/1.1/DTD/svg11.dtd">
<svg version="1.1" id="Layer_1" xmlns="http://www.w3.org/2000/svg" xmlns:xlink="http://www.w3.org/1999/xlink" x="0px" y="0px"
	 width="96px" height="96px" viewBox="0 0 96 96" enable-background="new 0 0 96 96" xml:space="preserve">
<g>
	<path d="M65.592,65.262c-3.084,0-5.595,2.508-5.595,5.594c0,3.084,2.511,5.592,5.595,5.592c3.083,0,5.594-2.508,5.594-5.592
		C71.186,67.77,68.675,65.262,65.592,65.262z"/>
	<path d="M83.788,62.594c0.064-0.381,0.098-0.77,0.098-1.158c0-1.879-0.731-3.646-2.061-4.975l-2.848-2.848
		c-1.555-1.563-3.919-2.305-6.124-1.947c-0.462-0.65-1.034-1.217-1.685-1.678v-2.822V27.559v-6.699h-0.031
		c-0.039-0.184-3.715-7.355-3.715-7.355l3.324-6.32c0.354-0.67,0.33-1.475-0.061-2.121c-0.393-0.648-1.094-1.045-1.85-1.045H11.421
		c-1.191,0-2.158,0.967-2.158,2.16l0.051,80.307h10.369V20.859h-6.102V8.338h51.68l-2.186,4.15
		c-0.328,0.625-0.332,1.369-0.006,1.998l3.295,6.373h-42.43v65.625h7.914h6.818h11.96l0.585,0.584
		c1.554,1.557,3.915,2.297,6.117,1.941c1.276,1.799,3.374,2.975,5.741,2.975h4.041c2.362,0,4.456-1.17,5.732-2.961
		c2.2,0.369,4.557-0.383,6.122-1.949l2.859-2.859c1.667-1.666,2.321-3.967,1.964-6.133c1.783-1.277,2.948-3.367,2.948-5.725v-4.041
		C86.737,65.961,85.572,63.871,83.788,62.594z M81.737,72.875c0,0.848-0.688,1.537-1.536,1.537h-2.443
		c-0.255,0.879-0.606,1.727-1.047,2.531l1.726,1.727c0.6,0.6,0.6,1.574,0,2.174l-2.858,2.855c-0.579,0.58-1.591,0.58-2.17,0
		l-1.729-1.727c-0.803,0.443-1.653,0.793-2.532,1.049v2.443c0,0.848-0.688,1.535-1.536,1.535H63.57
		c-0.847,0-1.535-0.688-1.535-1.535v-2.443c-0.879-0.256-1.729-0.605-2.533-1.049l-1.728,1.727c-0.557,0.561-1.613,0.559-2.17,0
		l-2.858-2.855c-0.29-0.291-0.449-0.676-0.449-1.088c0-0.404,0.164-0.801,0.45-1.086l1.726-1.727
		c-0.441-0.805-0.793-1.652-1.048-2.531h-2.443c-0.848,0-1.536-0.689-1.536-1.537v-4.041c0-0.848,0.688-1.535,1.536-1.535h2.443
		c0.255-0.879,0.606-1.729,1.048-2.533l-1.727-1.727c-0.6-0.6-0.6-1.572,0-2.172l2.858-2.857c0.579-0.58,1.591-0.58,2.17,0
		l1.728,1.727c0.804-0.443,1.654-0.793,2.533-1.049v-2.443c0-0.846,0.688-1.535,1.535-1.535h4.041c0.848,0,1.536,0.689,1.536,1.535
		v2.443c0.879,0.256,1.729,0.605,2.532,1.049l1.729-1.727c0.558-0.559,1.614-0.559,2.17,0l2.858,2.857
		c0.29,0.289,0.449,0.676,0.449,1.086c0,0.404-0.164,0.801-0.45,1.086l-1.725,1.727c0.44,0.805,0.792,1.654,1.047,2.533h2.443
		c0.848,0,1.536,0.688,1.536,1.535V72.875z"/>
</g>
</svg>
