<?xml version="1.0" encoding="utf-8"?>
<!-- Generator: Adobe Illustrator 16.0.0, SVG Export Plug-In . SVG Version: 6.00 Build 0)  -->
<!DOCTYPE svg PUBLIC "-//W3C//DTD SVG 1.1//EN" "http://www.w3.org/Graphics/SVG/1.1/DTD/svg11.dtd">
<svg version="1.1" id="Layer_1" xmlns="http://www.w3.org/2000/svg" xmlns:xlink="http://www.w3.org/1999/xlink" x="0px" y="0px"
	 width="96px" height="96px" viewBox="0 0 96 96" enable-background="new 0 0 96 96" xml:space="preserve">
<g>
	<path d="M64.274,71.256c-1.75,0-3.168,1.42-3.168,3.168c0,1.086,0.546,2.043,1.379,2.615v4.836h3.579v-4.836
		c0.832-0.572,1.378-1.529,1.378-2.615C67.442,72.676,66.024,71.256,64.274,71.256z"/>
	<path d="M80.582,58.08c-0.454-4.842-3.049-9.059-6.814-11.727V28.936v-6.701l-3.746-7.354l3.324-6.32
		c0.354-0.67,0.33-1.477-0.061-2.123c-0.393-0.648-1.094-1.045-1.85-1.045H14.02c-1.191,0-2.158,0.967-2.158,2.162l0.051,80.305
		h10.369V22.234H16.18V9.713h51.68l-2.186,4.152c-0.328,0.623-0.332,1.369-0.006,1.998l3.295,6.371h-42.43v65.625h7.914h6.818h4.139
		c0.952,1.641,2.723,2.748,4.756,2.748h28.479c3.037,0,5.5-2.463,5.5-5.5V63.227C84.139,60.873,82.66,58.865,80.582,58.08z
		 M78.613,85.381H49.936V63.346h20.672v-3.641c0-3.492-2.841-6.334-6.333-6.334s-6.332,2.842-6.332,6.334h-4.498
		c0-5.973,4.858-10.83,10.83-10.83c5.971,0,10.83,4.857,10.83,10.83v3.641h3.509V85.381z"/>
</g>
</svg>
