<?xml version="1.0" encoding="utf-8"?>
<!-- Generator: Adobe Illustrator 16.0.0, SVG Export Plug-In . SVG Version: 6.00 Build 0)  -->
<!DOCTYPE svg PUBLIC "-//W3C//DTD SVG 1.1//EN" "http://www.w3.org/Graphics/SVG/1.1/DTD/svg11.dtd">
<svg version="1.1" id="Layer_1" xmlns="http://www.w3.org/2000/svg" xmlns:xlink="http://www.w3.org/1999/xlink" x="0px" y="0px"
	 width="96px" height="96px" viewBox="0 0 96 96" enable-background="new 0 0 96 96" xml:space="preserve">
<path d="M77.985,12.994l3.667-6.969c0.392-0.738,0.362-1.627-0.067-2.34c-0.432-0.715-1.205-1.152-2.039-1.152H16.235
	c-1.314,0-2.381,1.066-2.381,2.383l0.018,88.551h11.474V21.104h-6.729V7.297h56.984l-2.408,4.578
	c-0.361,0.688-0.365,1.51-0.007,2.203l3.634,7.025H30.033v72.363h8.728h7.518h16.02h19.818V21.363L77.985,12.994z M71.738,56.911
	c-0.037,0.363-0.085,0.693-0.173,0.998c-0.076,0.305-0.143,0.578-0.221,0.822c-0.161,0.486-0.358,0.855-0.463,1.102
	c-0.117,0.248-0.193,0.375-0.193,0.375s-0.093-0.125-0.24-0.354c-0.139-0.221-0.344-0.545-0.605-0.957
	c-0.144-0.197-0.282-0.41-0.437-0.637c-0.077-0.113-0.155-0.229-0.23-0.35c-0.088-0.113-0.178-0.232-0.272-0.355
	c-0.351-0.486-0.77-0.99-1.217-1.486c-0.457-0.492-0.948-0.975-1.495-1.428c-0.521-0.469-1.131-0.893-1.74-1.338
	c-1.262-0.861-2.709-1.738-4.313-2.678c-0.922-0.549-1.888-1.127-2.852-1.742v21.33c0,0-0.012,0.463-0.012,0.699
	c0,4.615-4.209,8.357-9.398,8.357c-5.191,0-9.399-3.742-9.399-8.357s4.208-8.355,9.399-8.355c0.507,0,1,0.045,1.483,0.113
	l-0.022-24.818c0.006,0.002,2.002,1.127,2.002,1.127c0.218,0.131,0.461,0.26,0.725,0.379c0.506,0.252,1.104,0.479,1.737,0.713
	c0.655,0.229,1.351,0.457,2.124,0.707c0.77,0.25,1.589,0.521,2.464,0.832c1.734,0.619,3.663,1.422,5.573,2.541
	c0.952,0.555,1.9,1.219,2.793,1.947c0.895,0.742,1.723,1.59,2.441,2.5c0.703,0.934,1.314,1.902,1.725,2.916
	c0.439,0.99,0.67,2.004,0.806,2.914C71.834,55.353,71.835,56.188,71.738,56.911z"/>
</svg>
