<?xml version="1.0" encoding="utf-8"?>
<!-- Generator: Adobe Illustrator 16.0.0, SVG Export Plug-In . SVG Version: 6.00 Build 0)  -->
<!DOCTYPE svg PUBLIC "-//W3C//DTD SVG 1.1//EN" "http://www.w3.org/Graphics/SVG/1.1/DTD/svg11.dtd">
<svg version="1.1" id="Layer_1" xmlns="http://www.w3.org/2000/svg" xmlns:xlink="http://www.w3.org/1999/xlink" x="0px" y="0px"
	 width="96px" height="96px" viewBox="0 0 96 96" enable-background="new 0 0 96 96" xml:space="preserve">
<g>
	<path d="M84.333,82.387L72.797,70.85l0.008-52.326c-0.041-0.188-0.14-0.367-0.228-0.537l-3.607-6.979l3.396-6.453
		c0.362-0.684,0.336-1.508-0.063-2.17c-0.399-0.66-1.116-1.064-1.89-1.064H11.762c-1.217,0-2.205,0.988-2.205,2.205l0.053,82.037
		h23.021h6.964h14.84h12.707l7.009,7.008c1.359,1.361,3.168,2.109,5.091,2.109c1.924,0,3.732-0.748,5.091-2.107
		c1.361-1.361,2.111-3.17,2.111-5.094C86.443,85.553,85.693,83.744,84.333,82.387z M13.968,18.523V5.732H66.76l-2.231,4.24
		c-0.335,0.639-0.338,1.4-0.006,2.041l3.365,6.51H13.968z M81.846,89.471c-1.116,1.117-2.926,1.117-4.042,0L59.272,70.941
		c-0.074-0.076-0.132-0.164-0.198-0.244c-6.415,4.51-15.35,3.916-21.081-1.814c-6.413-6.414-6.413-16.854,0-23.266
		c6.415-6.412,16.852-6.412,23.265,0c5.731,5.732,6.326,14.666,1.816,21.082c0.079,0.064,0.166,0.123,0.243,0.199l18.528,18.529
		C82.963,86.543,82.963,88.354,81.846,89.471z"/>
	<circle cx="49.513" cy="57.119" r="11.473"/>
</g>
</svg>
