<?xml version="1.0" encoding="utf-8"?>
<!-- Generator: Adobe Illustrator 16.0.0, SVG Export Plug-In . SVG Version: 6.00 Build 0)  -->
<!DOCTYPE svg PUBLIC "-//W3C//DTD SVG 1.1//EN" "http://www.w3.org/Graphics/SVG/1.1/DTD/svg11.dtd">
<svg version="1.1" id="Layer_1" xmlns="http://www.w3.org/2000/svg" xmlns:xlink="http://www.w3.org/1999/xlink" x="0px" y="0px"
	 width="96px" height="96px" viewBox="0 0 96 96" enable-background="new 0 0 96 96" xml:space="preserve">
<path d="M67.043,17.783l-3.746-7.354l3.325-6.32c0.354-0.67,0.329-1.477-0.061-2.123c-0.392-0.648-1.093-1.045-1.85-1.045H7.295
	c-1.191,0-2.158,0.967-2.158,2.162l0.052,80.305h10.369V17.783H9.455V5.262h51.68L58.95,9.414c-0.329,0.623-0.331,1.369-0.006,1.998
	l3.295,6.371H19.809v65.625h7.915h6.818h7.761l10.038,10.039c1.032,1.031,2.431,1.611,3.889,1.611c1.459,0,2.858-0.58,3.889-1.611
	l29.132-29.133c2.148-2.148,2.148-5.631,0-7.777l-6.656-6.656c-1.032-1.033-2.431-1.611-3.889-1.611
	c-1.459,0-2.858,0.578-3.889,1.611l-7.774,7.773v-6.746V44.09V24.484 M56.383,89.559L36.255,69.43l6.656-6.656l13.472,13.473
	L78.858,53.77l6.656,6.656L56.383,89.559z"/>
</svg>
