<?xml version="1.0" encoding="utf-8"?>
<!-- Generator: Adobe Illustrator 16.0.0, SVG Export Plug-In . SVG Version: 6.00 Build 0)  -->
<!DOCTYPE svg PUBLIC "-//W3C//DTD SVG 1.1//EN" "http://www.w3.org/Graphics/SVG/1.1/DTD/svg11.dtd">
<svg version="1.1" id="Layer_1" xmlns="http://www.w3.org/2000/svg" xmlns:xlink="http://www.w3.org/1999/xlink" x="0px" y="0px"
	 width="96px" height="96px" viewBox="0 0 96 96" enable-background="new 0 0 96 96" xml:space="preserve">
<path d="M11.012,0.875v16.043v3.454V75.34v3.454v16.331h73.976V0.875H11.012z M78.081,16.918h-9.648V7.782h9.648V16.918z
	 M31.596,75.34V20.372h33.384V75.34H31.596z M64.979,78.794v9.424H31.596v-9.424H64.979z M31.596,16.918V7.782h33.384v9.136H31.596z
	 M68.433,20.372h9.648V75.34h-9.648V20.372z M17.919,7.782h10.223v9.136H17.919V7.782z M17.919,20.372h10.223V75.34H17.919V20.372z
	 M17.919,78.794h10.223v9.424H17.919V78.794z M68.433,88.218v-9.424h9.648v9.424H68.433z"/>
</svg>
