<?xml version="1.0" encoding="utf-8"?>
<!-- Generator: Adobe Illustrator 16.0.0, SVG Export Plug-In . SVG Version: 6.00 Build 0)  -->
<!DOCTYPE svg PUBLIC "-//W3C//DTD SVG 1.1//EN" "http://www.w3.org/Graphics/SVG/1.1/DTD/svg11.dtd">
<svg version="1.1" id="Layer_1" xmlns="http://www.w3.org/2000/svg" xmlns:xlink="http://www.w3.org/1999/xlink" x="0px" y="0px"
	 width="96px" height="96px" viewBox="0 0 96 96" enable-background="new 0 0 96 96" xml:space="preserve">
<g>
	<path d="M48.384,44.605c-4.468,0-6.282,4.049-6.562,6.912h12.565C54.388,48.934,53.271,44.605,48.384,44.605z"/>
	<path d="M79.658,14.479H12.614L1.449,81.523h93.102L79.658,14.479z M55.522,22.846c3.351,0,6.067,2.717,6.067,6.068
		c0,3.35-2.717,6.066-6.067,6.066s-6.067-2.717-6.067-6.066C49.455,25.563,52.172,22.846,55.522,22.846z M39.15,22.846
		c3.352,0,6.068,2.717,6.068,6.068c0,3.35-2.717,6.066-6.068,6.066c-3.351,0-6.066-2.717-6.066-6.066
		C33.084,25.563,35.8,22.846,39.15,22.846z M63.881,58.777H41.892c0.349,4.396,4.678,6.49,9.634,6.49
		c3.631,0,6.563-0.486,9.424-1.395l1.396,7.189c-3.49,1.396-7.75,2.094-12.355,2.094c-11.589,0-18.221-6.701-18.221-17.381
		c0-8.656,5.375-18.219,17.242-18.219c11.03,0,15.219,8.586,15.219,17.031C64.23,56.404,64.021,58.01,63.881,58.777z"/>
</g>
</svg>
