<?xml version="1.0" encoding="utf-8"?>
<!-- Generator: Adobe Illustrator 16.0.0, SVG Export Plug-In . SVG Version: 6.00 Build 0)  -->
<!DOCTYPE svg PUBLIC "-//W3C//DTD SVG 1.1//EN" "http://www.w3.org/Graphics/SVG/1.1/DTD/svg11.dtd">
<svg version="1.1" id="Layer_1" xmlns="http://www.w3.org/2000/svg" xmlns:xlink="http://www.w3.org/1999/xlink" x="0px" y="0px"
	 width="96px" height="96px" viewBox="0 0 96 96" enable-background="new 0 0 96 96" xml:space="preserve">
<path d="M68.836,1.119L1.119,1.12v67.716v26.045h93.762V27.164C94.881,12.779,83.22,1.119,68.836,1.119z M63.655,18.842v21.963
	l19.421,7.253c-3.188,7.58-10.683,12.903-19.421,12.903c-11.63,0-21.06-9.428-21.06-21.06
	C42.595,28.271,52.024,18.842,63.655,18.842z M84.334,87.927H41.316v-6.275h43.019V87.927z M84.356,73.219H41.405v-6.276h42.951
	V73.219z M87.294,44.284l-19.421-7.253V15.068c11.631,0,21.06,9.429,21.06,21.059C88.933,39.021,88.349,41.775,87.294,44.284z"/>
</svg>
