<?xml version="1.0" encoding="utf-8"?>
<!-- Generator: Adobe Illustrator 16.0.0, SVG Export Plug-In . SVG Version: 6.00 Build 0)  -->
<!DOCTYPE svg PUBLIC "-//W3C//DTD SVG 1.1//EN" "http://www.w3.org/Graphics/SVG/1.1/DTD/svg11.dtd">
<svg version="1.1" id="Layer_1" xmlns="http://www.w3.org/2000/svg" xmlns:xlink="http://www.w3.org/1999/xlink" x="0px" y="0px"
	 width="96px" height="96px" viewBox="0 0 96 96" enable-background="new 0 0 96 96" xml:space="preserve">
<path d="M87.698,1.486h-58.14c-0.64,0-1.209,0.289-1.601,0.736l0,0c-0.329,0.375-0.537,0.861-0.537,1.402v18.299H18.93
	c-0.639,0-1.207,0.291-1.6,0.736v0.002c-0.33,0.373-0.537,0.861-0.537,1.4v18.301H8.302c-0.639,0-1.208,0.289-1.6,0.736l0,0
	c-0.329,0.375-0.537,0.861-0.537,1.402v47.879c0,1.178,0.958,2.137,2.137,2.137h58.14c1.179,0,2.138-0.959,2.138-2.137V74.078h8.491
	c1.178,0,2.137-0.957,2.137-2.137V53.641h8.491c1.179,0,2.137-0.959,2.137-2.137V3.625C89.835,2.445,88.877,1.486,87.698,1.486z
	 M76.375,4.805c1.336,0,2.421,1.082,2.421,2.42s-1.085,2.422-2.421,2.422c-1.338,0-2.422-1.084-2.422-2.422
	S75.037,4.805,76.375,4.805z M69.227,4.805c1.336,0,2.421,1.082,2.421,2.42s-1.085,2.422-2.421,2.422
	c-1.338,0-2.422-1.084-2.422-2.422S67.889,4.805,69.227,4.805z M63.749,89.492H11.154V55.293h52.595V89.492z M45.549,48.102
	c0-1.338,1.084-2.42,2.422-2.42c1.336,0,2.421,1.082,2.421,2.42s-1.085,2.422-2.421,2.422
	C46.633,50.523,45.549,49.439,45.549,48.102z M52.697,48.102c0-1.338,1.084-2.42,2.422-2.42c1.336,0,2.421,1.082,2.421,2.42
	s-1.085,2.422-2.421,2.422C53.781,50.523,52.697,49.439,52.697,48.102z M62.136,50.523c-1.337,0-2.421-1.084-2.421-2.422
	s1.084-2.42,2.421-2.42s2.421,1.082,2.421,2.42S63.473,50.523,62.136,50.523z M74.377,69.055h-5.798V44.502
	c0-1.18-0.959-2.139-2.138-2.139h-44.66v-7.51h52.596V69.055z M56.177,27.664c0-1.338,1.085-2.422,2.421-2.422
	c1.338,0,2.422,1.084,2.422,2.422s-1.084,2.42-2.422,2.42C57.262,30.084,56.177,29.002,56.177,27.664z M63.325,27.664
	c0-1.338,1.084-2.422,2.421-2.422s2.422,1.084,2.422,2.422s-1.085,2.42-2.422,2.42S63.325,29.002,63.325,27.664z M72.764,30.084
	c-1.337,0-2.422-1.082-2.422-2.42s1.085-2.422,2.422-2.422s2.422,1.084,2.422,2.422S74.101,30.084,72.764,30.084z M85.005,48.615
	h-5.798V24.063c0-1.178-0.959-2.139-2.137-2.139H32.41v-7.508h52.595V48.615z M83.392,9.646c-1.337,0-2.421-1.084-2.421-2.422
	s1.084-2.42,2.421-2.42s2.421,1.082,2.421,2.42S84.729,9.646,83.392,9.646z"/>
</svg>
