<?xml version="1.0" encoding="utf-8"?>
<!-- Generator: Adobe Illustrator 16.0.0, SVG Export Plug-In . SVG Version: 6.00 Build 0)  -->
<!DOCTYPE svg PUBLIC "-//W3C//DTD SVG 1.1//EN" "http://www.w3.org/Graphics/SVG/1.1/DTD/svg11.dtd">
<svg version="1.1" xmlns="http://www.w3.org/2000/svg" xmlns:xlink="http://www.w3.org/1999/xlink" x="0px" y="0px" width="96px"
	 height="96px" viewBox="0 0 96 96" enable-background="new 0 0 96 96" xml:space="preserve">
<g id="Layer_1">
	<g>
		<g>
			<path d="M92.326,0.785H3.674c-1.596,0-2.89,1.293-2.89,2.89v88.65c0,1.596,1.294,2.89,2.89,2.89h88.651
				c1.596,0,2.89-1.294,2.89-2.89V3.675C95.215,2.078,93.921,0.785,92.326,0.785z M41.185,67.955c3.843,0,7.837-0.78,10.422-2.036
				l1.363-0.665l2.025,7.768l-0.9,0.451c-2.513,1.258-7.59,2.602-14.299,2.602c-16.374,0-26.955-10.822-26.955-27.571
				c0-16.826,11.688-28.577,28.422-28.577c7.626,0,11.824,1.879,12.93,2.457l0.906,0.473l-2.327,7.866l-1.317-0.638
				c-2.711-1.314-6.248-2.037-9.96-2.037c-11.939,0-19.067,7.561-19.067,20.224C22.427,60.596,29.44,67.955,41.185,67.955z
				 M83.16,42.237H67.975v9.843h14.029v6.443H67.975v16.779h-7.27V35.738H83.16V42.237z"/>
		</g>
	</g>
</g>
<g id="Layer_2">
</g>
</svg>
