<?xml version="1.0" encoding="utf-8"?>
<!-- Generator: Adobe Illustrator 16.0.0, SVG Export Plug-In . SVG Version: 6.00 Build 0)  -->
<!DOCTYPE svg PUBLIC "-//W3C//DTD SVG 1.1//EN" "http://www.w3.org/Graphics/SVG/1.1/DTD/svg11.dtd">
<svg version="1.1" id="Layer_1" xmlns="http://www.w3.org/2000/svg" xmlns:xlink="http://www.w3.org/1999/xlink" x="0px" y="0px"
	 width="96px" height="96px" viewBox="0 0 96 96" enable-background="new 0 0 96 96" xml:space="preserve">
<g>
	<path d="M49.567,13.278L49.566,1.273L33.154,17.688l16.413,16.414v-11.91c16.826,0.821,30.264,14.765,30.264,31.792
		c0,17.551-14.28,31.83-31.832,31.83c-17.553,0-31.832-14.279-31.832-31.83c0-3.886,0.69-7.679,2.054-11.273l-8.334-3.159
		c-1.747,4.607-2.632,9.464-2.632,14.433c0,22.466,18.278,40.743,40.745,40.743c22.465,0,40.745-18.277,40.745-40.743
		C88.745,32.042,71.31,14.107,49.567,13.278z"/>
	<circle cx="48" cy="53.59" r="11.147"/>
</g>
</svg>
