<?xml version="1.0" encoding="utf-8"?>
<!-- Generator: Adobe Illustrator 16.0.0, SVG Export Plug-In . SVG Version: 6.00 Build 0)  -->
<!DOCTYPE svg PUBLIC "-//W3C//DTD SVG 1.1//EN" "http://www.w3.org/Graphics/SVG/1.1/DTD/svg11.dtd">
<svg version="1.1" id="Layer_1" xmlns="http://www.w3.org/2000/svg" xmlns:xlink="http://www.w3.org/1999/xlink" x="0px" y="0px"
	 width="96px" height="96px" viewBox="0 0 96 96" enable-background="new 0 0 96 96" xml:space="preserve">
<g>
	<path d="M48.521,41.862L86.705,23.56C78.592,10.738,64.295,2.218,48,2.218c-13.513,0-25.654,5.857-34.035,15.169L48.521,41.862z"/>
	<path d="M7.819,26.045C4.25,32.563,2.218,40.044,2.218,48c0,10.825,3.766,20.766,10.047,28.603l27.562-27.886L7.819,26.045z"/>
	<path d="M51.127,52.39L19.818,84.066c7.771,6.081,17.55,9.716,28.182,9.716c25.284,0,45.782-20.498,45.782-45.782
		c0-5.207-0.882-10.204-2.482-14.867L51.127,52.39z"/>
</g>
</svg>
