<?xml version="1.0" encoding="utf-8"?>
<!-- Generator: Adobe Illustrator 16.0.0, SVG Export Plug-In . SVG Version: 6.00 Build 0)  -->
<!DOCTYPE svg PUBLIC "-//W3C//DTD SVG 1.1//EN" "http://www.w3.org/Graphics/SVG/1.1/DTD/svg11.dtd">
<svg version="1.1" id="Layer_1" xmlns="http://www.w3.org/2000/svg" xmlns:xlink="http://www.w3.org/1999/xlink" x="0px" y="0px"
	 width="96px" height="96px" viewBox="0 0 96 96" enable-background="new 0 0 96 96" xml:space="preserve">
<path d="M95,48C95,22.043,73.958,1,48,1S1,22.043,1,48s21.042,47,47,47S95,73.957,95,48z M70.273,68.466
	c-5.67,5.67-13.22,8.792-21.259,8.792c-8.038,0-15.587-3.122-21.256-8.792C16.873,57.58,16.001,40.54,25.358,28.66l-8.424-8.424
	h24.397l0.001,24.397l-8.017-8.017c-5.015,7.4-4.192,17.475,2.311,23.98c3.57,3.568,8.324,5.534,13.389,5.534
	c5.064,0,9.819-1.966,13.389-5.537c3.569-3.567,5.536-8.323,5.536-13.389c0-5.062-1.966-9.817-5.535-13.389
	c-1.637-1.634-3.522-2.938-5.604-3.876l-2.331-1.049l4.569-10.15l2.33,1.052c3.317,1.491,6.313,3.564,8.905,6.157
	C81.996,37.672,81.995,56.744,70.273,68.466z"/>
</svg>
