<?xml version="1.0" encoding="utf-8"?>
<!-- Generator: Adobe Illustrator 16.0.0, SVG Export Plug-In . SVG Version: 6.00 Build 0)  -->
<!DOCTYPE svg PUBLIC "-//W3C//DTD SVG 1.1//EN" "http://www.w3.org/Graphics/SVG/1.1/DTD/svg11.dtd">
<svg version="1.1" id="Layer_1" xmlns="http://www.w3.org/2000/svg" xmlns:xlink="http://www.w3.org/1999/xlink" x="0px" y="0px"
	 width="96px" height="96px" viewBox="0 0 96 96" enable-background="new 0 0 96 96" xml:space="preserve">
<g>
	<path d="M48,1.835C22.545,1.835,1.835,22.545,1.835,48S22.545,94.165,48,94.165S94.165,73.455,94.165,48S73.455,1.835,48,1.835z
		 M48,85.371c-20.606,0-37.371-16.765-37.371-37.371S27.394,10.629,48,10.629S85.371,27.394,85.371,48S68.606,85.371,48,85.371z"/>
	<path d="M72,45.802H52.396V20.154c0-2.428-1.968-4.397-4.396-4.397s-4.396,1.969-4.396,4.397v30.044
		c0,0.651,0.15,1.264,0.404,1.819L27.63,65.283c-0.472,0.381-0.544,1.074-0.162,1.545c0.217,0.269,0.535,0.408,0.854,0.408
		c0.243,0,0.488-0.08,0.691-0.246l16.381-13.268c0.73,0.541,1.626,0.873,2.605,0.873h24c2.428,0,4.396-1.969,4.396-4.397
		C76.396,47.771,74.428,45.802,72,45.802z"/>
</g>
</svg>
