<?xml version="1.0" encoding="utf-8"?>
<!-- Generator: Adobe Illustrator 16.0.0, SVG Export Plug-In . SVG Version: 6.00 Build 0)  -->
<!DOCTYPE svg PUBLIC "-//W3C//DTD SVG 1.1//EN" "http://www.w3.org/Graphics/SVG/1.1/DTD/svg11.dtd">
<svg version="1.1" id="Layer_1" xmlns="http://www.w3.org/2000/svg" xmlns:xlink="http://www.w3.org/1999/xlink" x="0px" y="0px"
	 width="96px" height="96px" viewBox="0 0 96 96" enable-background="new 0 0 96 96" xml:space="preserve">
<g>
	<path d="M90.015,66.314c1.354-3.1,2.372-6.377,3.015-9.79c-2.589,3.35-5.403,6.521-8.435,9.479
		C86.39,66.131,88.199,66.229,90.015,66.314z"/>
	<path d="M82.954,18.379C74.553,8.484,62.03,2.199,48.033,2.199c-4.083,0-8.038,0.539-11.805,1.541
		c1.376,15.688,4.548,30.17,9.081,42.581C61.902,39.464,75.093,29.771,82.954,18.379z"/>
	<path d="M28.563,51.941c3.987-1.059,7.853-2.257,11.561-3.601c-4.726-12.803-7.911-27.338-9.37-42.762
		C16.693,11.313,6.12,23.832,3.108,39.073c4.692,4.063,10.603,7.862,17.628,11.309c0.896-0.561,1.947-0.898,3.082-0.898
		C25.779,49.483,27.506,50.458,28.563,51.941z"/>
	<path d="M44.779,59.359c-0.904-1.875-1.771-3.796-2.599-5.77c-2.508,0.913-5.067,1.766-7.677,2.549
		C37.813,57.308,41.247,58.379,44.779,59.359z"/>
	<path d="M72.204,64.766c1.071-1.243,2.638-2.049,4.408-2.049c0.935,0,1.806,0.241,2.59,0.632
		c5.63-5.245,10.54-11.229,14.565-17.794c-0.434-8.237-3.052-15.893-7.274-22.412c-5.429,7.343-12.946,14.082-22.372,19.924
		c-5.182,3.211-10.806,6.046-16.766,8.506c1.41,3.384,2.929,6.583,4.543,9.584C58.396,62.668,65.187,63.881,72.204,64.766z"/>
	<path d="M76.612,74.391c-0.561,0-1.093-0.104-1.606-0.252c-2.854,2.108-5.831,4.064-8.928,5.838
		c2.567,2.306,5.247,4.204,8.017,5.666c5.265-3.653,9.739-8.363,13.081-13.85c-1.845-0.106-3.679-0.236-5.504-0.381
		C80.67,73.182,78.791,74.391,76.612,74.391z"/>
	<path d="M32.951,91.247c4.724,1.647,9.796,2.554,15.082,2.554c7.404,0,14.392-1.767,20.579-4.886
		c-2.657-1.703-5.24-3.771-7.729-6.188C52.253,86.957,42.855,89.89,32.951,91.247z"/>
	<path d="M55.815,67.758c1.942,2.961,3.992,5.656,6.137,8.06c3.058-1.681,6.009-3.528,8.823-5.551
		C65.66,69.602,60.676,68.751,55.815,67.758z"/>
	<path d="M27.776,59.588c-1.042,0.966-2.425,1.569-3.958,1.569c-1.468,0-2.793-0.561-3.818-1.455
		c-5.079,0.989-10.287,1.747-15.589,2.271C7.66,72.125,14.355,80.729,23.12,86.424c12.034-0.384,23.441-3.225,33.734-8.019
		c-3.033-3.567-5.901-7.685-8.567-12.338C41.038,64.277,34.173,62.108,27.776,59.588z"/>
	<path d="M2.291,45.654C2.252,46.431,2.232,47.213,2.232,48c0,2.892,0.28,5.715,0.793,8.458c4.63-0.434,9.166-1.049,13.576-1.843
		C11.179,51.845,6.401,48.843,2.291,45.654z"/>
</g>
</svg>
