<?xml version="1.0" encoding="utf-8"?>
<!-- Generator: Adobe Illustrator 16.0.0, SVG Export Plug-In . SVG Version: 6.00 Build 0)  -->
<!DOCTYPE svg PUBLIC "-//W3C//DTD SVG 1.1//EN" "http://www.w3.org/Graphics/SVG/1.1/DTD/svg11.dtd">
<svg version="1.1" id="Layer_1" xmlns="http://www.w3.org/2000/svg" xmlns:xlink="http://www.w3.org/1999/xlink" x="0px" y="0px"
	 width="96px" height="96px" viewBox="0 0 96 96" enable-background="new 0 0 96 96" xml:space="preserve">
<path d="M75.119,12.459h-9.582v-0.693c0-1.768-1.438-3.205-3.206-3.205h-6.434V4.285c0-1.768-1.438-3.205-3.206-3.205h-9.383
	c-1.768,0-3.206,1.438-3.206,3.205v4.275h-6.434c-1.768,0-3.206,1.438-3.206,3.205v0.693h-9.582c-2.393,0-4.339,1.945-4.339,4.34
	v73.785c0,2.393,1.946,4.34,4.339,4.34h54.238c2.393,0,4.339-1.947,4.339-4.34V16.799C79.458,14.404,77.512,12.459,75.119,12.459z
	 M33.695,26.416h28.609c1.71,0,3.102-1.391,3.102-3.1v-3.438h7.554l0.021,68.164l-49.94,0.021V19.881h7.554v3.436
	C30.594,25.025,31.985,26.416,33.695,26.416z"/>
</svg>
