<?xml version="1.0" encoding="utf-8"?>
<!-- Generator: Adobe Illustrator 16.0.0, SVG Export Plug-In . SVG Version: 6.00 Build 0)  -->
<!DOCTYPE svg PUBLIC "-//W3C//DTD SVG 1.1//EN" "http://www.w3.org/Graphics/SVG/1.1/DTD/svg11.dtd">
<svg version="1.1" id="Layer_1" xmlns="http://www.w3.org/2000/svg" xmlns:xlink="http://www.w3.org/1999/xlink" x="0px" y="0px"
	 width="96px" height="96px" viewBox="0 0 96 96" enable-background="new 0 0 96 96" xml:space="preserve">
<path d="M75.021,12.045h-9.008v-0.15c0-2.059-1.675-3.734-3.734-3.734h-5.87V4.44c0-2.059-1.675-3.734-3.734-3.734h-9.35
	c-2.06,0-3.734,1.675-3.734,3.734v3.72h-5.87c-2.06,0-3.734,1.675-3.734,3.734v0.15h-9.008c-2.682,0-4.864,2.182-4.864,4.864V90.43
	c0,2.682,2.182,4.864,4.864,4.864h54.043c2.682,0,4.864-2.182,4.864-4.864V16.909C79.885,14.227,77.704,12.045,75.021,12.045z
	 M45.324,7.496V5.809h5.353v1.687H45.324z M34,26.449H62c2.03,0,3.683-1.652,3.683-3.683v-2.965h7.177v68.275H23.141V19.802h7.177
	v2.965C30.318,24.797,31.97,26.449,34,26.449z"/>
</svg>
