<?xml version="1.0" encoding="utf-8"?>
<!-- Generator: Adobe Illustrator 16.0.0, SVG Export Plug-In . SVG Version: 6.00 Build 0)  -->
<!DOCTYPE svg PUBLIC "-//W3C//DTD SVG 1.1//EN" "http://www.w3.org/Graphics/SVG/1.1/DTD/svg11.dtd">
<svg version="1.1" id="Layer_1" xmlns="http://www.w3.org/2000/svg" xmlns:xlink="http://www.w3.org/1999/xlink" x="0px" y="0px"
	 width="96px" height="96px" viewBox="0 0 96 96" enable-background="new 0 0 96 96" xml:space="preserve">
<path d="M72.431,33.165V15.561c0-2.027-1.649-3.677-3.676-3.677h-9.803v-1.195c0-1.422-1.157-2.579-2.579-2.579h-6.754V3.444
	c0-1.421-1.157-2.578-2.579-2.578h-9.086c-1.421,0-2.579,1.157-2.579,2.578v4.665h-6.754c-1.422,0-2.579,1.157-2.579,2.579v1.195
	h-9.803c-2.027,0-3.676,1.649-3.676,3.677v71.443c0,2.027,1.649,3.676,3.676,3.676h23.657v4.454h43.542V33.165H72.431z
	 M18.309,85.068c-0.278,0-0.504-0.226-0.504-0.503V18.524c0-0.278,0.226-0.505,0.504-0.505h7.86v3.852
	c0,1.365,1.111,2.478,2.477,2.478h27.702c1.366,0,2.477-1.112,2.477-2.478V18.02h7.86c0.278,0,0.505,0.227,0.505,0.505v14.641
	H39.896v51.903H18.309z M78.186,89.882H45.147V38.417h33.039V89.882z"/>
</svg>
