<?xml version="1.0" encoding="utf-8"?>
<!-- Generator: Adobe Illustrator 16.0.0, SVG Export Plug-In . SVG Version: 6.00 Build 0)  -->
<!DOCTYPE svg PUBLIC "-//W3C//DTD SVG 1.1//EN" "http://www.w3.org/Graphics/SVG/1.1/DTD/svg11.dtd">
<svg version="1.1" xmlns="http://www.w3.org/2000/svg" xmlns:xlink="http://www.w3.org/1999/xlink" x="0px" y="0px" width="96px"
	 height="96px" viewBox="0 0 96 96" enable-background="new 0 0 96 96" xml:space="preserve">
<g id="Layer_1">
	<g>
		<g>
			<g>
				<path d="M75.61,12.365H65.302v-1.258c0-1.495-1.217-2.712-2.711-2.712h-7.103V3.49c0-1.494-1.216-2.711-2.711-2.711h-9.555
					c-1.494,0-2.711,1.217-2.711,2.711v4.905h-7.103c-1.494,0-2.711,1.217-2.711,2.712v1.258H20.39
					c-2.132,0-3.866,1.734-3.866,3.865v75.125c0,2.131,1.734,3.865,3.866,3.865H75.61c2.132,0,3.866-1.734,3.866-3.865V16.23
					C79.477,14.1,77.742,12.365,75.61,12.365z M44.16,4.071c0-0.16,0.13-0.287,0.289-0.287h7.102c0.159,0,0.289,0.127,0.289,0.287
					v3.646h-7.68V4.071z M74.506,89.514c0,0.299-0.242,0.542-0.541,0.542h-51.93c-0.299,0-0.541-0.243-0.541-0.542v-70.89
					c0-0.299,0.242-0.542,0.541-0.542h9.002v4.135c0,1.465,1.192,2.658,2.658,2.658h28.609c1.466,0,2.658-1.193,2.658-2.658v-4.135
					h9.002c0.299,0,0.541,0.243,0.541,0.542V89.514z"/>
			</g>
		</g>
		<g>
			<g>
				<polygon points="53.014,49.891 29.949,49.891 29.949,59.109 53.014,59.109 53.014,67.536 66.051,54.5 53.014,41.464 				"/>
			</g>
		</g>
	</g>
</g>
<g id="Layer_2">
</g>
</svg>
