<?xml version="1.0" encoding="utf-8"?>
<!-- Generator: Adobe Illustrator 16.0.0, SVG Export Plug-In . SVG Version: 6.00 Build 0)  -->
<!DOCTYPE svg PUBLIC "-//W3C//DTD SVG 1.1//EN" "http://www.w3.org/Graphics/SVG/1.1/DTD/svg11.dtd">
<svg version="1.1" id="Layer_1" xmlns="http://www.w3.org/2000/svg" xmlns:xlink="http://www.w3.org/1999/xlink" x="0px" y="0px"
	 width="96px" height="96px" viewBox="0 0 96 96" enable-background="new 0 0 96 96" xml:space="preserve">
<g>
	<path d="M20.185,19.802h7.178v2.965c0,2.03,1.652,3.683,3.683,3.683h27.999c2.03,0,3.683-1.652,3.683-3.683v-2.965h7.177v14.366
		h7.026v-17.26c0-2.682-2.182-4.863-4.864-4.863h-9.008v-0.15c0-2.059-1.675-3.734-3.734-3.734h-5.87V4.44
		c0-2.06-1.675-3.733-3.734-3.733h-9.35c-2.06,0-3.734,1.674-3.734,3.733v3.72h-5.87c-2.06,0-3.734,1.676-3.734,3.734v0.15h-9.008
		c-2.682,0-4.863,2.182-4.863,4.863V90.43c0,2.682,2.182,4.863,4.863,4.863h17.021v-7.216H20.185V19.802z M42.368,5.809h5.353v1.688
		h-5.353V5.809z"/>
	<path d="M79.743,46.438v-4.521h-5.207v4.521h-4.7v-4.521h-5.207v4.521h-4.917v-4.521h-5.206v4.521h-5.207v-4.521h-5.206v4.521
		h-3.099v48.854h41.847V46.438H79.743z M76.828,84.242h-29.82v-3.585h29.82V84.242z M76.828,72.665h-29.82V69.08h29.82V72.665z
		 M76.828,61.088h-29.82v-3.585h29.82V61.088z"/>
</g>
</svg>
