<?xml version="1.0" encoding="utf-8"?>
<!-- Generator: Adobe Illustrator 16.0.0, SVG Export Plug-In . SVG Version: 6.00 Build 0)  -->
<!DOCTYPE svg PUBLIC "-//W3C//DTD SVG 1.1//EN" "http://www.w3.org/Graphics/SVG/1.1/DTD/svg11.dtd">
<svg version="1.1" id="Layer_1" xmlns="http://www.w3.org/2000/svg" xmlns:xlink="http://www.w3.org/1999/xlink" x="0px" y="0px"
	 width="96px" height="96px" viewBox="0 0 96 96" enable-background="new 0 0 96 96" xml:space="preserve">
<g>
	<rect x="50.294" y="50.889" width="23.536" height="4.489"/>
	<rect x="50.274" y="61.115" width="23.567" height="4.489"/>
	<rect x="50.226" y="71.634" width="23.605" height="4.488"/>
	<path d="M72.322,33.231V15.705c0-2.018-1.642-3.66-3.66-3.66h-9.76v-1.19c0-1.415-1.151-2.567-2.567-2.567h-6.725V3.644
		c0-1.416-1.151-2.567-2.567-2.567h-9.045c-1.415,0-2.567,1.151-2.567,2.567v4.644h-6.725c-1.416,0-2.567,1.152-2.567,2.567v1.19
		H16.38c-2.018,0-3.66,1.643-3.66,3.66V86.83c0,2.018,1.642,3.66,3.66,3.66h23.551v4.434h43.348V33.231H72.322z M39.932,84.903
		H18.441c-0.277,0-0.502-0.225-0.502-0.501V18.656c0-0.277,0.225-0.503,0.502-0.503h7.825v3.835c0,1.358,1.106,2.466,2.466,2.466
		h27.579c1.359,0,2.466-1.107,2.466-2.466v-3.835h7.825c0.277,0,0.502,0.226,0.502,0.503v14.575H39.932V84.903z M78.051,89.695
		H45.16V38.46h32.892V89.695z"/>
</g>
</svg>
