<?xml version="1.0" encoding="utf-8"?>
<!-- Generator: Adobe Illustrator 16.0.0, SVG Export Plug-In . SVG Version: 6.00 Build 0)  -->
<!DOCTYPE svg PUBLIC "-//W3C//DTD SVG 1.1//EN" "http://www.w3.org/Graphics/SVG/1.1/DTD/svg11.dtd">
<svg version="1.1" id="Layer_1" xmlns="http://www.w3.org/2000/svg" xmlns:xlink="http://www.w3.org/1999/xlink" x="0px" y="0px"
	 width="96px" height="96px" viewBox="0 0 96 96" enable-background="new 0 0 96 96" xml:space="preserve">
<g>
	<path d="M58.661,37.714c-11.278,0-20.453,9.174-20.453,20.453S47.383,78.62,58.661,78.62s20.453-9.175,20.453-20.453
		S69.939,37.714,58.661,37.714z M74.328,61.431H55.397V43.588h6.527v11.315h12.403V61.431z"/>
	<path d="M68.889,1L1,1.001v67.887V95h94V27.111C95,12.69,83.31,1,68.889,1z M58.661,86.453c-15.597,0-28.286-12.689-28.286-28.286
		c0-15.596,12.689-28.286,28.286-28.286s28.286,12.69,28.286,28.286C86.947,73.764,74.258,86.453,58.661,86.453z"/>
</g>
</svg>
