<?xml version="1.0" encoding="utf-8"?>
<!-- Generator: Adobe Illustrator 16.0.0, SVG Export Plug-In . SVG Version: 6.00 Build 0)  -->
<!DOCTYPE svg PUBLIC "-//W3C//DTD SVG 1.1//EN" "http://www.w3.org/Graphics/SVG/1.1/DTD/svg11.dtd">
<svg version="1.1" id="Layer_1" xmlns="http://www.w3.org/2000/svg" xmlns:xlink="http://www.w3.org/1999/xlink" x="0px" y="0px"
	 width="96px" height="96px" viewBox="0 0 96 96" enable-background="new 0 0 96 96" xml:space="preserve">
<g>
	<path d="M94.75,42.149c0-2.453-1.995-4.447-4.448-4.447h-7.071c-0.741-2.545-1.757-5.001-3.036-7.331l4.998-5
		c0.827-0.827,1.303-1.973,1.303-3.146c0-1.19-0.462-2.306-1.302-3.146l-8.274-8.274c-1.613-1.615-4.673-1.618-6.29,0l-5,5
		c-2.327-1.28-4.786-2.296-7.332-3.037V5.698c0-2.453-1.995-4.448-4.447-4.448H42.149c-2.453,0-4.447,1.995-4.447,4.448v7.071
		c-2.546,0.741-5.005,1.757-7.333,3.037l-5-5c-1.68-1.679-4.609-1.679-6.288,0l-8.276,8.274c-1.734,1.734-1.734,4.555,0,6.289
		l4.999,5c-1.279,2.33-2.295,4.788-3.036,7.333H5.698c-2.453,0-4.448,1.995-4.448,4.447v11.701c0,2.453,1.995,4.447,4.448,4.447
		h7.071c0.74,2.545,1.757,5.003,3.036,7.332l-4.998,4.999c-0.827,0.827-1.303,1.973-1.303,3.146c0,1.189,0.462,2.306,1.302,3.146
		l8.274,8.274c1.614,1.614,4.674,1.618,6.29,0l5-5.001c2.328,1.28,4.786,2.297,7.333,3.038v7.071c0,2.453,1.995,4.448,4.447,4.448
		h11.701c2.453,0,4.447-1.995,4.447-4.448v-7.071c2.546-0.741,5.005-1.757,7.332-3.038l5,5.001c1.68,1.679,4.609,1.679,6.288,0
		l8.276-8.274c1.734-1.734,1.734-4.555,0-6.289l-4.999-5.001c1.279-2.329,2.295-4.787,3.036-7.332h7.071
		c2.453,0,4.448-1.995,4.448-4.447V42.149z M64.197,48c0,8.931-7.266,16.197-16.197,16.197S31.803,56.931,31.803,48
		S39.069,31.803,48,31.803S64.197,39.069,64.197,48z"/>
</g>
</svg>
