<?xml version="1.0" encoding="utf-8"?>
<!-- Generator: Adobe Illustrator 16.0.0, SVG Export Plug-In . SVG Version: 6.00 Build 0)  -->
<!DOCTYPE svg PUBLIC "-//W3C//DTD SVG 1.1//EN" "http://www.w3.org/Graphics/SVG/1.1/DTD/svg11.dtd">
<svg version="1.1" id="Layer_1" xmlns="http://www.w3.org/2000/svg" xmlns:xlink="http://www.w3.org/1999/xlink" x="0px" y="0px"
	 width="96px" height="96px" viewBox="0 0 96 96" enable-background="new 0 0 96 96" xml:space="preserve">
<g>
	<path d="M50.932,59.852c0,1.331,0.408,2.917,2.354,2.917c2.417,0,4.999-3.57,5.524-6.527l0.942-5.071
		c-0.398-0.054-0.812-0.082-1.237-0.082C54.404,51.089,50.932,55.102,50.932,59.852z"/>
	<path d="M81.88,20.523l-3.894-7.529l3.667-6.969c0.391-0.738,0.363-1.627-0.067-2.34c-0.432-0.715-1.205-1.152-2.04-1.152H16.235
		c-1.314,0-2.38,1.066-2.38,2.383l0.057,88.551h11.434V21.104h-6.729V7.297h56.985l-2.409,4.578
		c-0.362,0.688-0.365,1.51-0.007,2.203l3.633,7.025H30.033v72.363h8.728h7.518h16.019h19.819V21.104
		C82.117,21.104,81.975,20.705,81.88,20.523z M64.249,68.518c-1.572,0-2.988-0.577-3.987-1.627
		c-0.352-0.369-0.729-0.879-1.021-1.563c-1.976,2.12-4.423,3.19-7.305,3.19c-3.691,0-7.428-2.899-7.428-8.44
		c0-8.095,6.586-14.681,14.681-14.681c2.388,0,4.788,0.476,6.585,1.306l0.959,0.443L64.626,58.36
		c-0.667,3.376-0.169,4.327-0.001,4.538c0.046,0.057,0.115,0.144,0.395,0.152c1.972,0,4.674-3.104,4.674-8.933
		c0-7.799-4.694-12.643-12.249-12.643c-8.987,0-15.51,7.28-15.51,17.31c0,8.269,5.261,13.823,13.092,13.823
		c2.984,0,5.763-0.637,7.826-1.794l1.382-0.775l1.868,5.021l-1.055,0.556c-3.155,1.664-6.437,2.405-10.64,2.405
		c-10.657,0-18.392-7.948-18.392-18.898c0-13.082,9.406-22.946,21.878-22.946c10.432,0,17.718,7.24,17.718,17.605
		C75.613,63.456,69.896,68.518,64.249,68.518z"/>
</g>
</svg>
