<?xml version="1.0" encoding="utf-8"?>
<!-- Generator: Adobe Illustrator 16.0.0, SVG Export Plug-In . SVG Version: 6.00 Build 0)  -->
<!DOCTYPE svg PUBLIC "-//W3C//DTD SVG 1.1//EN" "http://www.w3.org/Graphics/SVG/1.1/DTD/svg11.dtd">
<svg version="1.1" id="Layer_1" xmlns="http://www.w3.org/2000/svg" xmlns:xlink="http://www.w3.org/1999/xlink" x="0px" y="0px"
	 width="96px" height="96px" viewBox="0 0 96 96" enable-background="new 0 0 96 96" xml:space="preserve">
<g>
	<polygon points="19.054,21.475 52.264,21.475 52.264,25.217 60.344,25.217 60.344,20.984 43.083,9.066 45.824,1.232 11.756,1.232 
		11.756,67.836 30.076,67.836 30.076,50.227 19.054,50.227 19.054,46.229 30.076,46.229 30.076,37.311 19.054,37.311 19.054,33.314 
		30.076,33.314 30.076,25.473 19.054,25.473 	"/>
	<polygon points="50.616,0.758 48.395,7.107 61.727,16.311 	"/>
	<path d="M68.341,28.641H34.273v66.604h48.587v-46.85L65.6,36.477L68.341,28.641z M74.781,77.635h-33.21v-3.996h33.21V77.635z
		 M74.781,64.721h-33.21v-3.998h33.21V64.721z M74.781,48.885v3.998h-33.21v-3.998H74.781z"/>
	<polygon points="73.133,28.168 70.912,34.516 84.244,43.721 	"/>
</g>
</svg>
