<?xml version="1.0" encoding="utf-8"?>
<!-- Generator: Adobe Illustrator 16.0.0, SVG Export Plug-In . SVG Version: 6.00 Build 0)  -->
<!DOCTYPE svg PUBLIC "-//W3C//DTD SVG 1.1//EN" "http://www.w3.org/Graphics/SVG/1.1/DTD/svg11.dtd">
<svg version="1.1" xmlns="http://www.w3.org/2000/svg" xmlns:xlink="http://www.w3.org/1999/xlink" x="0px" y="0px" width="96px"
	 height="96px" viewBox="0 0 96 96" enable-background="new 0 0 96 96" xml:space="preserve">
<g id="Layer_1">
	<g>
		<g>
			<g>
				<path d="M85.512,41.982c-4.92,3.529-11.826,8.222-14.942,8.222c-0.617,0-0.815-0.186-0.959-0.361
					c-1.272-1.568-0.928-7.066,1.025-16.335c0.194-0.918-0.291-1.841-1.152-2.204c-0.861-0.365-1.861-0.066-2.382,0.71
					c-6.721,10.021-9.799,12.123-11.195,12.123c-1.979,0-3.99-5.692-5.986-16.92c-0.16-0.896-0.915-1.549-1.813-1.601v-0.011
					c-0.019,0-0.037,0.004-0.056,0.004s-0.04-0.004-0.058-0.004v0.011c-0.895,0.052-1.649,0.705-1.811,1.601
					c-1.998,11.228-4.011,16.92-5.988,16.92c-1.396,0-4.472-2.103-11.192-12.123c-0.521-0.776-1.521-1.075-2.384-0.71
					c-0.862,0.363-1.346,1.286-1.152,2.204c1.952,9.269,2.299,14.767,1.024,16.335c-0.141,0.176-0.342,0.361-0.958,0.361
					c-3.115,0-10.021-4.692-14.943-8.222c-0.778-0.559-1.845-0.468-2.52,0.209c-0.676,0.674-0.765,1.741-0.207,2.52
					c11.253,14.391,9.135,30.91,9.135,30.91c-0.041,0.229-0.063,0.463-0.063,0.709c0,4.057,5.682,5.664,10.631,6.61
					c5.453,1.046,12.635,1.627,20.266,1.648v0.002c0.073,0,0.147,0,0.22-0.002c0.073,0.002,0.146,0.002,0.221,0.002v-0.002
					c7.63-0.021,14.812-0.603,20.263-1.648c4.951-0.946,10.633-2.554,10.633-6.61c0-0.246-0.022-0.48-0.063-0.709
					c0,0-2.118-16.52,9.133-30.91c0.559-0.778,0.471-1.846-0.205-2.52C87.358,41.515,86.292,41.424,85.512,41.982z M48.272,78.988
					h-0.015c-0.07,0-0.137,0.002-0.206,0.002c-0.07,0-0.135-0.002-0.205-0.002h-0.015c-12.127-0.036-20.144-1.447-23.682-2.658
					c3.538-1.213,11.555-2.624,23.682-2.658h0.029c0.063,0,0.126,0,0.19,0s0.124,0,0.19,0h0.03
					c12.126,0.034,20.142,1.445,23.681,2.658C68.414,77.541,60.398,78.952,48.272,78.988z"/>
			</g>
		</g>
		<g>
			<g>
				<circle cx="48.052" cy="17.323" r="5.914"/>
			</g>
		</g>
		<g>
			<g>
				<circle cx="23.089" cy="24.467" r="4.928"/>
			</g>
		</g>
		<g>
			<g>
				<circle cx="72.606" cy="24.467" r="4.928"/>
			</g>
		</g>
		<g>
			<g>
				<circle cx="4.072" cy="38.508" r="3.322"/>
			</g>
		</g>
		<g>
			<g>
				<circle cx="91.928" cy="38.508" r="3.322"/>
			</g>
		</g>
	</g>
</g>
<g id="Layer_2">
</g>
</svg>
