<?xml version="1.0" encoding="utf-8"?>
<!-- Generator: Adobe Illustrator 16.0.0, SVG Export Plug-In . SVG Version: 6.00 Build 0)  -->
<!DOCTYPE svg PUBLIC "-//W3C//DTD SVG 1.1//EN" "http://www.w3.org/Graphics/SVG/1.1/DTD/svg11.dtd">
<svg version="1.1" id="Layer_1" xmlns="http://www.w3.org/2000/svg" xmlns:xlink="http://www.w3.org/1999/xlink" x="0px" y="0px"
	 width="96px" height="96px" viewBox="0 0 96 96" enable-background="new 0 0 96 96" xml:space="preserve">
<g>
	<path d="M61.588,1.696H14.223v92.607h67.555V29.163l-24-16.572L61.588,1.696z M32.637,55.067c1.535,0,3.236-0.336,4.24-0.736
		l0.768,3.975c-0.936,0.467-3.039,0.967-5.775,0.967c-7.781,0-11.787-4.842-11.787-11.252c0-7.68,5.477-11.953,12.285-11.953
		c2.639,0,4.643,0.533,5.543,1.002l-1.033,4.041c-1.035-0.436-2.473-0.836-4.275-0.836c-4.039,0-7.178,2.438-7.178,7.447
		C25.424,52.229,28.094,55.067,32.637,55.067z M46.49,59.272c-2.572,0-5.109-0.668-6.379-1.367l1.035-4.209
		c1.369,0.701,3.473,1.402,5.645,1.402c2.336,0,3.572-0.967,3.572-2.438c0-1.402-1.068-2.203-3.773-3.17
		c-3.74-1.303-6.178-3.373-6.178-6.645c0-3.84,3.205-6.779,8.516-6.779c2.535,0,4.406,0.533,5.74,1.135l-1.135,4.109
		c-0.9-0.436-2.504-1.07-4.707-1.07s-3.273,1.002-3.273,2.17c0,1.436,1.27,2.072,4.174,3.174c3.975,1.469,5.844,3.537,5.844,6.709
		C55.57,56.069,52.666,59.272,46.49,59.272z M62.68,36.437l2.736,9.514c0.77,2.67,1.471,5.244,2.006,8.047h0.1
		c0.566-2.703,1.27-5.377,2.037-7.945l2.871-9.615h5.408l-7.58,22.504h-5.941l-7.213-22.504H62.68z"/>
	<polygon points="66.33,1.696 63.244,10.524 81.777,23.321 	"/>
</g>
</svg>
