<?xml version="1.0" encoding="utf-8"?>
<!-- Generator: Adobe Illustrator 16.0.0, SVG Export Plug-In . SVG Version: 6.00 Build 0)  -->
<!DOCTYPE svg PUBLIC "-//W3C//DTD SVG 1.1//EN" "http://www.w3.org/Graphics/SVG/1.1/DTD/svg11.dtd">
<svg version="1.1" id="Layer_1" xmlns="http://www.w3.org/2000/svg" xmlns:xlink="http://www.w3.org/1999/xlink" x="0px" y="0px"
	 width="96px" height="96px" viewBox="0 0 96 96" enable-background="new 0 0 96 96" xml:space="preserve">
<g>
	<path d="M44.902,73.274c-3.62,0-7.24-1.518-8.815-2.335l-1.811,6.655c2.219,1.401,6.364,2.686,11.268,2.686
		c9.633,0,15.529-4.904,15.529-11.618c0-4.962-3.678-8.406-8.231-9.224v-0.117c4.671-1.634,6.947-4.787,6.947-8.815
		c0-5.195-4.495-9.457-12.61-9.457c-4.903,0-9.458,1.401-11.734,2.861l1.81,6.421c1.577-0.934,4.845-2.276,7.939-2.276
		c3.736,0,5.605,1.693,5.605,3.97c0,3.211-3.795,4.32-6.772,4.378h-3.444v6.364h3.62c3.911,0,7.647,1.693,7.647,5.429
		C51.849,71.055,49.514,73.274,44.902,73.274z"/>
	<path d="M88.391,11.509h-9.035V1.99H66.644v9.519H29.356V1.99H16.644v9.519H7.609c-3.164,0-5.729,2.565-5.729,5.729v71.043
		c0,3.164,2.565,5.729,5.729,5.729h80.782c3.164,0,5.729-2.564,5.729-5.729V17.238C94.121,14.074,91.555,11.509,88.391,11.509z
		 M85.24,85.225H10.76V36.336h74.48V85.225z"/>
</g>
</svg>
