<?xml version="1.0" encoding="utf-8"?>
<!-- Generator: Adobe Illustrator 16.0.0, SVG Export Plug-In . SVG Version: 6.00 Build 0)  -->
<!DOCTYPE svg PUBLIC "-//W3C//DTD SVG 1.1//EN" "http://www.w3.org/Graphics/SVG/1.1/DTD/svg11.dtd">
<svg version="1.1" id="Layer_1" xmlns="http://www.w3.org/2000/svg" xmlns:xlink="http://www.w3.org/1999/xlink" x="0px" y="0px"
	 width="96px" height="96px" viewBox="0 0 96 96" enable-background="new 0 0 96 96" xml:space="preserve">
<g>
	<path d="M70.2,63.441c-3.251,0-5.897,2.645-5.897,5.896s2.646,5.896,5.897,5.896c3.25,0,5.896-2.645,5.896-5.896
		S73.45,63.441,70.2,63.441z"/>
	<path d="M89.035,60.961c0.087-0.445,0.132-0.898,0.132-1.355c0-1.9-0.74-3.689-2.085-5.033l-3.004-3.002
		c-1.614-1.625-4.099-2.369-6.381-1.938c-0.967-1.443-2.448-2.51-4.179-2.945V35.578c0-0.318-0.066-0.627-0.129-0.941
		c-1.326,6.578-16.344,11.766-34.717,11.766S5.282,41.215,3.956,34.637c-0.063,0.314-0.129,0.623-0.129,0.941v16.277
		c0,7.02,15.602,12.707,34.846,12.707c3.116,0,6.135-0.152,9.01-0.432c-0.352,0.842-0.552,1.762-0.552,2.729v3.693
		c-2.707,0.246-5.54,0.379-8.458,0.379c-18.373,0-33.391-5.189-34.717-11.766c-0.063,0.311-0.129,0.625-0.129,0.941v16.279
		c0,7.02,15.602,12.705,34.846,12.705c6.47,0,12.523-0.645,17.716-1.764c1.521,0.963,3.429,1.355,5.218,1.021
		c1.278,1.904,3.453,3.162,5.915,3.162h4.26c2.457,0,4.627-1.252,5.907-3.15c2.278,0.438,4.753-0.311,6.379-1.939l3.015-3.014
		c1.734-1.732,2.385-4.146,1.953-6.389c1.892-1.281,3.138-3.447,3.138-5.9v-4.26C92.173,64.408,90.927,62.242,89.035,60.961z
		 M87.221,71.467c0,0.895-0.726,1.621-1.619,1.621h-2.576c-0.269,0.926-0.64,1.82-1.104,2.668l1.819,1.82
		c0.632,0.633,0.632,1.66,0,2.291l-3.014,3.012c-0.61,0.611-1.677,0.611-2.287,0l-1.822-1.82c-0.847,0.467-1.743,0.836-2.67,1.105
		v2.576c0,0.893-0.726,1.619-1.619,1.619h-4.26c-0.893,0-1.618-0.727-1.618-1.619v-2.576c-0.927-0.27-1.823-0.639-2.671-1.105
		l-1.821,1.82c-0.587,0.59-1.7,0.588-2.287,0l-3.014-3.012c-0.306-0.307-0.474-0.711-0.474-1.146c0-0.426,0.173-0.844,0.475-1.145
		l1.819-1.82c-0.466-0.848-0.836-1.742-1.104-2.668h-2.576c-0.894,0-1.619-0.727-1.619-1.621v-4.26c0-0.893,0.726-1.617,1.619-1.617
		h2.576c0.269-0.928,0.639-1.822,1.104-2.672l-1.82-1.82c-0.632-0.631-0.632-1.656,0-2.289l3.014-3.012
		c0.61-0.611,1.677-0.611,2.287,0l1.821,1.82c0.848-0.467,1.744-0.836,2.671-1.105v-2.576c0-0.893,0.726-1.619,1.618-1.619h4.26
		c0.894,0,1.619,0.727,1.619,1.619v2.576c0.927,0.27,1.823,0.639,2.67,1.105l1.822-1.82c0.588-0.59,1.701-0.59,2.287,0l3.014,3.012
		c0.306,0.307,0.474,0.713,0.474,1.145c0,0.426-0.173,0.846-0.475,1.146l-1.818,1.82c0.464,0.848,0.835,1.742,1.104,2.67h2.576
		c0.894,0,1.619,0.725,1.619,1.617V71.467z"/>
	<path d="M38.673,40.326c19.244,0,34.846-5.686,34.846-12.705V17.195c0-7.02-15.602-12.707-34.846-12.707S3.827,10.176,3.827,17.195
		v10.426C3.827,34.641,19.429,40.326,38.673,40.326z"/>
</g>
</svg>
