<?xml version="1.0" encoding="utf-8"?>
<!-- Generator: Adobe Illustrator 16.0.0, SVG Export Plug-In . SVG Version: 6.00 Build 0)  -->
<!DOCTYPE svg PUBLIC "-//W3C//DTD SVG 1.1//EN" "http://www.w3.org/Graphics/SVG/1.1/DTD/svg11.dtd">
<svg version="1.1" xmlns="http://www.w3.org/2000/svg" xmlns:xlink="http://www.w3.org/1999/xlink" x="0px" y="0px" width="96px"
	 height="96px" viewBox="0 0 96 96" enable-background="new 0 0 96 96" xml:space="preserve">
<g id="Layer_1">
	<g>
		<g>
			<g>
				<path d="M48,0.448c-21.633,0-39.171,6.393-39.171,14.283v11.72c0,7.891,17.538,14.282,39.171,14.282s39.171-6.392,39.171-14.282
					v-11.72C87.171,6.841,69.633,0.448,48,0.448z"/>
			</g>
		</g>
		<g>
			<g>
				<path d="M48,47.563c-20.654,0-37.682-5.831-39.171-13.226c-0.071,0.353,0,19.356,0,19.356c0,7.891,17.538,14.283,39.171,14.283
					s39.171-6.393,39.171-14.283c0,0,0.044-19.004-0.027-19.356C85.654,41.732,68.654,47.563,48,47.563z"/>
			</g>
		</g>
		<path d="M87.134,61.912C85.645,69.303,68.654,75.137,48,75.137S10.314,69.303,8.825,61.912l0.004,19.356
			c0,7.891,17.538,14.283,39.171,14.283s39.171-6.393,39.171-14.283L87.134,61.912z"/>
	</g>
</g>
<g id="Layer_2">
</g>
</svg>
