<?xml version="1.0" encoding="utf-8"?>
<!-- Generator: Adobe Illustrator 16.0.0, SVG Export Plug-In . SVG Version: 6.00 Build 0)  -->
<!DOCTYPE svg PUBLIC "-//W3C//DTD SVG 1.1//EN" "http://www.w3.org/Graphics/SVG/1.1/DTD/svg11.dtd">
<svg version="1.1" id="Layer_1" xmlns="http://www.w3.org/2000/svg" xmlns:xlink="http://www.w3.org/1999/xlink" x="0px" y="0px"
	 width="96px" height="96px" viewBox="0 0 96 96" enable-background="new 0 0 96 96" xml:space="preserve">
<g>
	<path d="M91.87,50.645l-6.656-6.656c-1.031-1.031-2.43-1.611-3.889-1.611s-2.857,0.58-3.89,1.611l-5.331,5.332V36.787
		c0-0.316-0.066-0.627-0.13-0.939c-1.325,6.578-16.343,11.764-34.716,11.764c-18.374,0-33.392-5.186-34.717-11.764
		c-0.063,0.313-0.13,0.623-0.13,0.939v16.279c0,6.578,13.702,11.984,31.264,12.639c0.268,0.625,0.647,1.213,1.157,1.723l4.685,4.684
		c-0.748,0.018-1.499,0.029-2.259,0.029c-18.374,0-33.392-5.189-34.717-11.764c-0.063,0.311-0.13,0.623-0.13,0.939v16.279
		c0,7.02,15.602,12.707,34.847,12.707c6.877,0,13.283-0.73,18.684-1.982c0.867,0.541,1.868,0.846,2.907,0.846
		c1.459,0,2.857-0.578,3.889-1.611l2.28-2.279c4.115-1.975,6.685-4.402,7.042-7.043l19.81-19.811
		C94.019,56.275,94.019,52.793,91.87,50.645z M58.42,83.469L38.292,63.342l6.656-6.656L58.42,70.156L80.896,47.68l6.656,6.656
		L58.42,83.469z"/>
	<path d="M37.259,41.537c19.244,0,34.846-5.688,34.846-12.707V18.404c0-7.02-15.602-12.705-34.846-12.705
		c-19.245,0-34.847,5.686-34.847,12.705V28.83C2.412,35.85,18.014,41.537,37.259,41.537z"/>
</g>
</svg>
