<?xml version="1.0" encoding="utf-8"?>
<!-- Generator: Adobe Illustrator 16.0.0, SVG Export Plug-In . SVG Version: 6.00 Build 0)  -->
<!DOCTYPE svg PUBLIC "-//W3C//DTD SVG 1.1//EN" "http://www.w3.org/Graphics/SVG/1.1/DTD/svg11.dtd">
<svg version="1.1" id="Layer_1" xmlns="http://www.w3.org/2000/svg" xmlns:xlink="http://www.w3.org/1999/xlink" x="0px" y="0px"
	 width="96px" height="96px" viewBox="0 0 96 96" enable-background="new 0 0 96 96" xml:space="preserve">
<g>
	<path d="M83.314,67.807l7.438-7.439c2.148-2.148,2.148-5.631,0-7.777l-6.264-6.264c-2.146-2.148-5.631-2.148-7.777,0l-3.385,3.385
		V36.193c0-0.318-0.066-0.627-0.129-0.941c-0.794,3.938-6.492,7.373-14.876,9.5l-3.066,0.693c-4.975,1-10.688,1.572-16.774,1.572
		c-18.373,0-33.391-5.188-34.717-11.766c-0.063,0.314-0.129,0.623-0.129,0.941v16.277c0,7.02,15.602,12.707,34.846,12.707
		c4.665,0,9.112-0.338,13.179-0.943l3.571,3.572l-2.652,2.652c-4.31,0.697-9.076,1.088-14.098,1.088
		c-18.373,0-33.391-5.189-34.717-11.766c-0.063,0.311-0.129,0.625-0.129,0.941v16.279c0,7.02,15.602,12.705,34.846,12.705
		c5.291,0,10.304-0.432,14.795-1.201l0.779,0.779c2.146,2.148,5.631,2.148,7.777,0l4.798-4.797c1.253-0.625,2.358-1.293,3.285-1.998
		l6.796,6.795c1.073,1.074,2.481,1.611,3.889,1.611s2.815-0.537,3.889-1.609l6.264-6.264c1.031-1.031,1.611-2.43,1.611-3.889
		s-0.579-2.857-1.611-3.889L83.314,67.807z M80.688,85.396L69.36,74.068L58.032,85.396l-6.263-6.262l11.328-11.328L51.77,56.479
		l6.263-6.264L69.36,61.543l11.328-11.328l6.264,6.264L75.624,67.807l11.328,11.328L80.688,85.396z"/>
	<path d="M38.481,40.941c19.244,0,34.846-5.686,34.846-12.705V17.811c0-7.02-15.602-12.707-34.846-12.707S3.636,10.791,3.636,17.811
		v10.426C3.636,35.256,19.237,40.941,38.481,40.941z"/>
</g>
</svg>
