<?xml version="1.0" encoding="utf-8"?>
<!-- Generator: Adobe Illustrator 16.0.0, SVG Export Plug-In . SVG Version: 6.00 Build 0)  -->
<!DOCTYPE svg PUBLIC "-//W3C//DTD SVG 1.1//EN" "http://www.w3.org/Graphics/SVG/1.1/DTD/svg11.dtd">
<svg version="1.1" id="Layer_1" xmlns="http://www.w3.org/2000/svg" xmlns:xlink="http://www.w3.org/1999/xlink" x="0px" y="0px"
	 width="96px" height="96px" viewBox="0 0 96 96" enable-background="new 0 0 96 96" xml:space="preserve">
<g>
	<path d="M65.916,12.91H45.247c0.137-0.453,0.23-0.921,0.23-1.403c0-1.298-0.515-2.542-1.433-3.459l-5.211-5.21
		c-1.91-1.911-5.008-1.911-6.919,0L28.03,6.721l-3.883-3.883c-1.91-1.91-5.008-1.911-6.919,0l-5.21,5.21
		c-0.918,0.917-1.434,2.161-1.434,3.459s0.516,2.542,1.433,3.459l3.884,3.885l-3.884,3.885c-0.917,0.917-1.433,2.161-1.433,3.459
		s0.516,2.542,1.434,3.459l5.21,5.21c1.907,1.909,4.997,1.909,6.908,0.009v59.723h59.587V37.138L62.555,22.521L65.916,12.91z
		 M44.043,29.653c0.522-0.522,0.897-1.156,1.138-1.84h14.896v4.202H41.68L44.043,29.653z M20.87,31.404l-5.211-5.21l7.343-7.344
		l-7.343-7.344l5.211-5.21l7.343,7.344l7.344-7.344l5.211,5.21l-7.343,7.344l7.343,7.344l-5.211,5.21l-7.344-7.344L20.87,31.404z
		 M73.531,81.554H32.148v-4.202h41.382V81.554z M73.531,63.818H32.148v-4.202h41.382V63.818z M73.531,43.512v4.202H32.148v-4.202
		H73.531z"/>
	<polygon points="71.791,12.33 69.069,20.117 85.417,31.404 	"/>
</g>
</svg>
