<?xml version="1.0" encoding="utf-8"?>
<!-- Generator: Adobe Illustrator 16.0.0, SVG Export Plug-In . SVG Version: 6.00 Build 0)  -->
<!DOCTYPE svg PUBLIC "-//W3C//DTD SVG 1.1//EN" "http://www.w3.org/Graphics/SVG/1.1/DTD/svg11.dtd">
<svg version="1.1" id="Layer_1" xmlns="http://www.w3.org/2000/svg" xmlns:xlink="http://www.w3.org/1999/xlink" x="0px" y="0px"
	 width="96px" height="96px" viewBox="0 0 96 96" enable-background="new 0 0 96 96" xml:space="preserve">
<g>
	<path d="M86.743,70.423l6.986-6.987c1.11-1.11,1.733-2.615,1.733-4.184s-0.623-3.074-1.733-4.184l-6.177-6.177
		c-2.31-2.31-6.058-2.31-8.367,0l-6.987,6.987l-6.987-6.987c-1.11-1.109-2.615-1.733-4.184-1.733c-1.57,0-3.075,0.624-4.185,1.733
		l-2.136,2.136l-4.16-3.507l-8.384,8.338l-8.405-8.338l-4.879,4.113l-10.155,4.675c-1.502,0.618-2.835,1.683-3.729,3.183
		L0.537,83.661h48.779c0.294,0.787,0.746,1.512,1.352,2.117l6.176,6.176c2.31,2.31,6.058,2.31,8.367,0l6.987-6.987l6.987,6.987
		c1.155,1.155,2.669,1.733,4.184,1.733s3.029-0.578,4.184-1.732l6.177-6.176c1.109-1.11,1.733-2.615,1.733-4.184
		c0-1.57-0.623-3.075-1.733-4.185L86.743,70.423z M83.369,87.77L72.198,76.599L61.027,87.77l-6.177-6.175l11.172-11.171
		L54.851,59.252l6.177-6.177l11.171,11.172l11.171-11.172l6.178,6.177L78.375,70.424l11.172,11.171L83.369,87.77z"/>
	<path d="M42.098,48.526v0.003c0.009,0,0.02-0.002,0.028-0.002c0.005,0,0.013,0.002,0.02,0.002c0.001,0,0.004,0,0.007,0
		s0.006,0,0.007,0c0.007,0,0.015-0.002,0.02-0.002c0.01,0,0.019,0.002,0.028,0.002v-0.003c11.839,0.18,19.035-10.181,19.221-27.263
		C61.547,9.412,54.198,2.636,42.229,2.316V2.313c-0.019,0-0.032,0.001-0.05,0.001V2.313c-0.011,0-0.019,0-0.026,0.001
		c-0.008-0.001-0.018-0.001-0.026-0.001v0.001c-0.018,0-0.032-0.001-0.048-0.001v0.004c-11.97,0.32-19.32,7.095-19.201,18.946
		C23.063,38.345,30.259,48.706,42.098,48.526z"/>
</g>
</svg>
