<?xml version="1.0" encoding="utf-8"?>
<!-- Generator: Adobe Illustrator 16.0.0, SVG Export Plug-In . SVG Version: 6.00 Build 0)  -->
<!DOCTYPE svg PUBLIC "-//W3C//DTD SVG 1.1//EN" "http://www.w3.org/Graphics/SVG/1.1/DTD/svg11.dtd">
<svg version="1.1" id="Layer_1" xmlns="http://www.w3.org/2000/svg" xmlns:xlink="http://www.w3.org/1999/xlink" x="0px" y="0px"
	 width="96px" height="96px" viewBox="0 0 96 96" enable-background="new 0 0 96 96" xml:space="preserve">
<g>
	<polygon points="61.379,1.122 58.273,9.994 76.907,22.86 	"/>
	<path d="M79.873,71.595l7.462-7.462c2.135-2.135,2.135-5.597,0-7.732l-6.263-6.263c-1.65-1.649-4.086-2.01-6.096-1.11V29.392
		L50.849,12.733l3.832-10.949H7.063v93.095h67.912v-0.715c0.709,0.317,1.467,0.491,2.23,0.491c1.399,0,2.798-0.534,3.866-1.602
		l6.263-6.263c2.135-2.135,2.135-5.597,0-7.732L79.873,71.595z M76.788,89.538L65.459,78.21L54.131,89.538l-6.263-6.263
		l11.328-11.328L47.868,60.619l6.263-6.263l11.328,11.328l11.328-11.328l6.263,6.263L71.723,71.947l11.328,11.328L76.788,89.538z"/>
</g>
</svg>
