<?xml version="1.0" encoding="utf-8"?>
<!-- Generator: Adobe Illustrator 16.0.0, SVG Export Plug-In . SVG Version: 6.00 Build 0)  -->
<!DOCTYPE svg PUBLIC "-//W3C//DTD SVG 1.1//EN" "http://www.w3.org/Graphics/SVG/1.1/DTD/svg11.dtd">
<svg version="1.1" xmlns="http://www.w3.org/2000/svg" xmlns:xlink="http://www.w3.org/1999/xlink" x="0px" y="0px" width="96px"
	 height="96px" viewBox="0 0 96 96" enable-background="new 0 0 96 96" xml:space="preserve">
<g id="Layer_1">
	<g>
		<rect x="24.882" y="37.813" width="21.039" height="20.293"/>
		<rect x="50.114" y="37.813" width="21.004" height="20.293"/>
		<rect x="24.882" y="11.19" width="46.236" height="20.293"/>
		<rect x="50.114" y="64.514" width="21.004" height="20.296"/>
		<rect x="24.882" y="64.514" width="21.039" height="20.296"/>
		<polygon points="73.567,90.033 69.61,90.033 69.61,94.5 78.035,94.5 78.035,86.075 73.567,86.075 		"/>
		<rect x="51.689" y="90.033" width="10.542" height="4.467"/>
		<rect x="33.769" y="90.033" width="10.541" height="4.467"/>
		<polygon points="22.433,86.075 17.965,86.075 17.965,94.5 26.39,94.5 26.39,90.033 22.433,90.033 		"/>
		<rect x="17.965" y="63.756" width="4.468" height="13.129"/>
		<polygon points="17.965,54.566 22.433,54.566 22.433,41.436 17.965,41.436 17.965,46.053 1.076,31.063 1.076,65.007 
			17.965,50.018 		"/>
		<polygon points="78.035,46.053 78.035,41.436 73.567,41.436 73.567,54.566 78.035,54.566 78.035,50.018 94.924,65.007 
			94.924,31.063 		"/>
		<rect x="17.965" y="19.115" width="4.468" height="13.13"/>
		<polygon points="22.433,5.967 26.39,5.967 26.39,1.5 17.965,1.5 17.965,9.925 22.433,9.925 		"/>
		<rect x="33.769" y="1.5" width="10.542" height="4.467"/>
		<rect x="51.689" y="1.5" width="10.542" height="4.467"/>
		<polygon points="73.567,9.925 78.035,9.925 78.035,1.5 69.61,1.5 69.61,5.967 73.567,5.967 		"/>
		<rect x="73.567" y="63.755" width="4.468" height="13.13"/>
		<rect x="73.567" y="19.115" width="4.468" height="13.129"/>
	</g>
</g>
<g id="Layer_2">
</g>
</svg>
