<?xml version="1.0" encoding="utf-8"?>
<!-- Generator: Adobe Illustrator 16.0.0, SVG Export Plug-In . SVG Version: 6.00 Build 0)  -->
<!DOCTYPE svg PUBLIC "-//W3C//DTD SVG 1.1//EN" "http://www.w3.org/Graphics/SVG/1.1/DTD/svg11.dtd">
<svg version="1.1" id="Layer_1" xmlns="http://www.w3.org/2000/svg" xmlns:xlink="http://www.w3.org/1999/xlink" x="0px" y="0px"
	 width="96px" height="96px" viewBox="0 0 96 96" enable-background="new 0 0 96 96" xml:space="preserve">
<g>
	<path d="M22.406,77.232l51.693,0.01l0.01-58.475l-51.693-0.012L22.406,77.232z M47.936,40.918c3.52,0,6.373,2.85,6.373,6.369
		c0,3.521-2.854,6.375-6.373,6.375c-3.518,0-6.373-2.854-6.373-6.375C41.563,43.768,44.418,40.918,47.936,40.918z"/>
	<path d="M92.344,1.061H3.658c-1.436,0-2.598,1.162-2.598,2.596v88.686c0,1.436,1.162,2.598,2.598,2.598h88.686
		c1.434,0,2.596-1.162,2.596-2.598V3.656C94.939,2.223,93.777,1.061,92.344,1.061z M81.967,81.139c0,2.15-1.742,3.895-3.895,3.895
		H77.1L17.928,85.02c-2.15,0-3.895-1.744-3.895-3.896c0-0.074,0-0.363,0-0.438v-0.002c0,0,0-65.781,0-65.824
		c0-2.15,1.744-3.893,3.895-3.893h0.012c0,0,60.088,0,60.131,0c1.615,0.002,3,0.984,3.59,2.387c0.197,0.467,0.307,0.982,0.307,1.521
		c0,0.018-0.004,0.033-0.004,0.051C81.963,14.926,81.967,81.031,81.967,81.139z"/>
</g>
</svg>
