<?xml version="1.0" encoding="utf-8"?>
<!-- Generator: Adobe Illustrator 16.0.0, SVG Export Plug-In . SVG Version: 6.00 Build 0)  -->
<!DOCTYPE svg PUBLIC "-//W3C//DTD SVG 1.1//EN" "http://www.w3.org/Graphics/SVG/1.1/DTD/svg11.dtd">
<svg version="1.1" id="Layer_1" xmlns="http://www.w3.org/2000/svg" xmlns:xlink="http://www.w3.org/1999/xlink" x="0px" y="0px"
	 width="96px" height="96px" viewBox="0 0 96 96" enable-background="new 0 0 96 96" xml:space="preserve">
<path d="M87.067,1.625H8.933c-3.104,0-5.622,2.517-5.622,5.621v81.508c0,3.104,2.517,5.621,5.622,5.621h78.135
	c3.104,0,5.622-2.517,5.622-5.621V7.246C92.689,4.142,90.172,1.625,87.067,1.625z M23.969,84.65c-5.277,0-9.556-4.278-9.556-9.556
	s4.279-9.556,9.556-9.556s9.556,4.278,9.556,9.556S29.247,84.65,23.969,84.65z M23.969,29.843c-5.277,0-9.556-4.278-9.556-9.556
	s4.279-9.557,9.556-9.557s9.556,4.279,9.556,9.557S29.247,29.843,23.969,29.843z M48,56.544c-5.277,0-9.556-4.279-9.556-9.556
	s4.279-9.556,9.556-9.556s9.556,4.279,9.556,9.556S53.277,56.544,48,56.544z M72.031,84.65c-5.278,0-9.556-4.278-9.556-9.556
	s4.278-9.556,9.556-9.556c5.277,0,9.556,4.278,9.556,9.556S77.308,84.65,72.031,84.65z M72.031,29.843
	c-5.278,0-9.556-4.278-9.556-9.556s4.278-9.557,9.556-9.557c5.277,0,9.556,4.279,9.556,9.557S77.308,29.843,72.031,29.843z"/>
</svg>
