<?xml version="1.0" encoding="utf-8"?>
<!-- Generator: Adobe Illustrator 16.0.0, SVG Export Plug-In . SVG Version: 6.00 Build 0)  -->
<!DOCTYPE svg PUBLIC "-//W3C//DTD SVG 1.1//EN" "http://www.w3.org/Graphics/SVG/1.1/DTD/svg11.dtd">
<svg version="1.1" id="Layer_1" xmlns="http://www.w3.org/2000/svg" xmlns:xlink="http://www.w3.org/1999/xlink" x="0px" y="0px"
	 width="96px" height="96px" viewBox="0 0 96 96" enable-background="new 0 0 96 96" xml:space="preserve">
<g>
	<polygon points="66.371,1.781 63.291,10.594 81.791,23.367 	"/>
	<path d="M82.432,33.482h-0.809v-4.285L57.668,12.656l3.803-10.875H14.191v31.701h-0.623c-1.527,0-2.768,1.24-2.768,2.77v23.877
		c0,1.529,1.24,2.768,2.768,2.768h0.623v31.322h67.432V62.896h0.809c1.529,0,2.768-1.238,2.768-2.768V36.252
		C85.199,34.723,83.961,33.482,82.432,33.482z M33.072,56.236c-2.367,1.969-5.967,2.9-10.365,2.9c-2.633,0-4.5-0.166-5.768-0.332
		V36.742c1.867-0.301,4.301-0.469,6.867-0.469c4.266,0,7.031,0.766,9.199,2.4c2.334,1.734,3.799,4.5,3.799,8.465
		C36.805,51.438,35.238,54.402,33.072,56.236z M49.666,59.27c-6.666,0-10.564-5.031-10.564-11.432
		c0-6.73,4.299-11.764,10.932-11.764c6.898,0,10.664,5.166,10.664,11.365C60.697,54.803,56.23,59.27,49.666,59.27z M75.525,55.039
		c1.533,0,3.232-0.336,4.232-0.736l0.766,3.969c-0.932,0.465-3.031,0.965-5.764,0.965c-7.768,0-11.766-4.834-11.766-11.232
		c0-7.664,5.467-11.93,12.264-11.93c2.635,0,4.633,0.531,5.533,1l-1.033,4.033c-1.033-0.436-2.467-0.836-4.266-0.836
		c-4.033,0-7.166,2.434-7.166,7.432C68.326,52.205,70.992,55.039,75.525,55.039z"/>
	<path d="M49.9,40.107c-3.434,0-5.434,3.266-5.434,7.631c0,4.398,2.066,7.5,5.465,7.5c3.434,0,5.4-3.27,5.4-7.631
		C55.332,43.574,53.398,40.107,49.9,40.107z"/>
	<path d="M24.34,40.172c-1.133,0-1.867,0.1-2.299,0.201V55.07c0.432,0.102,1.133,0.102,1.766,0.102
		c4.6,0.031,7.598-2.502,7.598-7.865C31.439,42.641,28.705,40.172,24.34,40.172z"/>
</g>
</svg>
