<?xml version="1.0" encoding="utf-8"?>
<!-- Generator: Adobe Illustrator 16.0.0, SVG Export Plug-In . SVG Version: 6.00 Build 0)  -->
<!DOCTYPE svg PUBLIC "-//W3C//DTD SVG 1.1//EN" "http://www.w3.org/Graphics/SVG/1.1/DTD/svg11.dtd">
<svg version="1.1" id="Layer_1" xmlns="http://www.w3.org/2000/svg" xmlns:xlink="http://www.w3.org/1999/xlink" x="0px" y="0px"
	 width="96px" height="96px" viewBox="0 0 96 96" enable-background="new 0 0 96 96" xml:space="preserve">
<path d="M92.155,1.262H3.845c-1.427,0-2.585,1.156-2.585,2.584v88.311c0,1.428,1.158,2.586,2.585,2.586h88.311
	c1.428,0,2.585-1.158,2.585-2.586V3.846C94.74,2.418,93.583,1.262,92.155,1.262z M77.289,11.484c3.502,0,6.344,2.836,6.344,6.342
	c0,3.508-2.842,6.348-6.344,6.348c-3.505,0-6.346-2.84-6.346-6.348C70.943,14.32,73.784,11.484,77.289,11.484z M48,11.484
	c3.504,0,6.346,2.836,6.346,6.342c0,3.508-2.842,6.348-6.346,6.348s-6.346-2.84-6.346-6.348C41.654,14.32,44.496,11.484,48,11.484z
	 M18.711,11.484c3.505,0,6.346,2.836,6.346,6.342c0,3.508-2.841,6.348-6.346,6.348c-3.502,0-6.344-2.84-6.344-6.348
	C12.367,14.32,15.209,11.484,18.711,11.484z M18.711,84.52c-3.502,0-6.344-2.84-6.344-6.344c0-3.506,2.842-6.346,6.344-6.346
	c3.505,0,6.346,2.84,6.346,6.346C25.057,81.68,22.216,84.52,18.711,84.52z M48,84.52c-3.504,0-6.346-2.84-6.346-6.344
	c0-3.506,2.842-6.346,6.346-6.346s6.346,2.84,6.346,6.346C54.346,81.68,51.504,84.52,48,84.52z M77.289,84.52
	c-3.505,0-6.346-2.84-6.346-6.344c0-3.506,2.841-6.346,6.346-6.346c3.502,0,6.344,2.84,6.344,6.346
	C83.633,81.68,80.791,84.52,77.289,84.52z M81.082,51.207L81.082,51.207l-65.543-0.014c-2.143,0-3.879-1.736-3.878-3.879
	c0.001-2.141,1.736-3.877,3.878-3.877h0.001l65.543,0.014c2.142,0,3.878,1.736,3.878,3.879
	C84.96,49.471,83.225,51.207,81.082,51.207z"/>
</svg>
