<?xml version="1.0" encoding="utf-8"?>
<!-- Generator: Adobe Illustrator 16.0.0, SVG Export Plug-In . SVG Version: 6.00 Build 0)  -->
<!DOCTYPE svg PUBLIC "-//W3C//DTD SVG 1.1//EN" "http://www.w3.org/Graphics/SVG/1.1/DTD/svg11.dtd">
<svg version="1.1" id="Layer_1" xmlns="http://www.w3.org/2000/svg" xmlns:xlink="http://www.w3.org/1999/xlink" x="0px" y="0px"
	 width="96px" height="96px" viewBox="0 0 96 96" enable-background="new 0 0 96 96" xml:space="preserve">
<path d="M91.814,1.623H4.188c-1.418,0-2.566,1.148-2.566,2.564v87.627c0,1.418,1.148,2.566,2.566,2.566h87.627
	c1.416,0,2.564-1.148,2.564-2.566V4.188C94.379,2.771,93.23,1.623,91.814,1.623z M18.939,84.236c-3.477,0-6.297-2.818-6.297-6.293
	c0-3.48,2.82-6.299,6.297-6.299s6.295,2.818,6.295,6.299C25.234,81.418,22.416,84.236,18.939,84.236z M18.939,53.596
	c-3.477,0-6.297-2.818-6.297-6.299c0-3.479,2.82-6.293,6.297-6.293s6.295,2.814,6.295,6.293
	C25.234,50.777,22.416,53.596,18.939,53.596z M48,84.236c-3.477,0-6.297-2.818-6.297-6.293c0-3.48,2.82-6.299,6.297-6.299
	s6.297,2.818,6.297,6.299C54.297,81.418,51.477,84.236,48,84.236z M48,53.596c-3.477,0-6.297-2.818-6.297-6.299
	c0-3.479,2.82-6.293,6.297-6.293s6.297,2.814,6.297,6.293C54.297,50.777,51.477,53.596,48,53.596z M77.063,84.236
	c-3.477,0-6.297-2.818-6.297-6.293c0-3.48,2.82-6.299,6.297-6.299s6.295,2.818,6.295,6.299
	C83.357,81.418,80.539,84.236,77.063,84.236z M77.063,53.596c-3.477,0-6.297-2.818-6.297-6.299c0-3.479,2.82-6.293,6.297-6.293
	s6.295,2.814,6.295,6.293C83.357,50.777,80.539,53.596,77.063,53.596z M80.066,21.922H17.859c-2.125,0-3.848-1.723-3.848-3.848
	s1.723-3.848,3.848-3.848h62.207c2.125,0,3.848,1.723,3.848,3.848S82.191,21.922,80.066,21.922z"/>
</svg>
