<?xml version="1.0" encoding="utf-8"?>
<!-- Generator: Adobe Illustrator 16.0.0, SVG Export Plug-In . SVG Version: 6.00 Build 0)  -->
<!DOCTYPE svg PUBLIC "-//W3C//DTD SVG 1.1//EN" "http://www.w3.org/Graphics/SVG/1.1/DTD/svg11.dtd">
<svg version="1.1" id="Layer_1" xmlns="http://www.w3.org/2000/svg" xmlns:xlink="http://www.w3.org/1999/xlink" x="0px" y="0px"
	 width="96px" height="96px" viewBox="0 0 96 96" enable-background="new 0 0 96 96" xml:space="preserve">
<path d="M94.457,91.889V4.115c0-1.42-1.15-2.57-2.57-2.57H4.113c-1.418,0-2.568,1.15-2.568,2.57v87.773
	c0,1.418,1.15,2.568,2.568,2.568h87.773C93.307,94.457,94.457,93.307,94.457,91.889z M84.297,77.111c0,3.482-2.82,6.307-6.305,6.307
	c-3.486,0-6.309-2.824-6.309-6.307s2.822-6.307,6.309-6.307C81.477,70.805,84.297,73.629,84.297,77.111z M84.297,48.002
	c0,3.482-2.82,6.307-6.305,6.307c-3.486,0-6.309-2.824-6.309-6.307c0-3.484,2.822-6.309,6.309-6.309
	C81.477,41.693,84.297,44.518,84.297,48.002z M84.297,18.891c0,3.482-2.82,6.307-6.305,6.307c-3.486,0-6.309-2.824-6.309-6.307
	c0-3.48,2.822-6.305,6.309-6.305C81.477,12.586,84.297,15.41,84.297,18.891z M11.705,18.891c0-3.48,2.822-6.305,6.305-6.305
	c3.484,0,6.309,2.824,6.309,6.305c0,3.482-2.824,6.307-6.309,6.307C14.527,25.197,11.705,22.373,11.705,18.891z M11.705,48.002
	c0-3.484,2.822-6.309,6.305-6.309c3.484,0,6.309,2.824,6.309,6.309c0,3.482-2.824,6.307-6.309,6.307
	C14.527,54.309,11.705,51.484,11.705,48.002z M11.705,77.111c0-3.482,2.822-6.307,6.305-6.307c3.484,0,6.309,2.824,6.309,6.307
	s-2.824,6.307-6.309,6.307C14.527,83.418,11.705,80.594,11.705,77.111z M44.814,80.883L44.814,80.883l0.014-65.145
	c0-2.129,1.727-3.855,3.855-3.855c2.127,0,3.854,1.727,3.854,3.855l0,0l-0.014,65.145c0,2.129-1.727,3.855-3.855,3.854
	C46.541,84.736,44.814,83.012,44.814,80.883z"/>
</svg>
