<?xml version="1.0" encoding="utf-8"?>
<!-- Generator: Adobe Illustrator 16.0.0, SVG Export Plug-In . SVG Version: 6.00 Build 0)  -->
<!DOCTYPE svg PUBLIC "-//W3C//DTD SVG 1.1//EN" "http://www.w3.org/Graphics/SVG/1.1/DTD/svg11.dtd">
<svg version="1.1" id="Layer_1" xmlns="http://www.w3.org/2000/svg" xmlns:xlink="http://www.w3.org/1999/xlink" x="0px" y="0px"
	 width="96px" height="96px" viewBox="0 0 96 96" enable-background="new 0 0 96 96" xml:space="preserve">
<path d="M1.422,4v88.004c0,1.422,1.154,2.576,2.576,2.576h88.004c1.422,0,2.576-1.154,2.576-2.576V4
	c0-1.424-1.154-2.576-2.576-2.576H3.998C2.576,1.424,1.422,2.576,1.422,4z M54.324,17.932c0,3.494-2.832,6.324-6.324,6.324
	s-6.324-2.83-6.324-6.324s2.832-6.32,6.324-6.32S54.324,14.438,54.324,17.932z M70.863,78.072c0-3.496,2.832-6.326,6.324-6.326
	c3.49,0,6.322,2.83,6.322,6.326c0,3.49-2.832,6.32-6.322,6.32C73.695,84.393,70.863,81.563,70.863,78.072z M70.863,47.295
	c0-3.494,2.832-6.322,6.324-6.322c3.49,0,6.322,2.828,6.322,6.322s-2.832,6.324-6.322,6.324
	C73.695,53.619,70.863,50.789,70.863,47.295z M41.676,78.072c0-3.496,2.832-6.326,6.324-6.326s6.324,2.83,6.324,6.326
	c0,3.49-2.832,6.32-6.324,6.32S41.676,81.563,41.676,78.072z M14.775,75.998l60.569-61.857c1.493-1.527,3.938-1.549,5.465-0.059
	c1.524,1.494,1.551,3.939,0.058,5.465l-60.57,61.857c-0.757,0.773-1.758,1.162-2.761,1.162c-0.976,0-1.952-0.367-2.703-1.104
	C13.308,79.969,13.282,77.523,14.775,75.998z M12.49,47.295c0-3.494,2.832-6.322,6.322-6.322c3.492,0,6.324,2.828,6.324,6.322
	s-2.832,6.324-6.324,6.324C15.322,53.619,12.49,50.789,12.49,47.295z M12.49,17.932c0-3.494,2.832-6.32,6.322-6.32
	c3.492,0,6.324,2.826,6.324,6.32s-2.832,6.324-6.324,6.324C15.322,24.256,12.49,21.426,12.49,17.932z"/>
</svg>
