<?xml version="1.0" encoding="utf-8"?>
<!-- Generator: Adobe Illustrator 16.0.0, SVG Export Plug-In . SVG Version: 6.00 Build 0)  -->
<!DOCTYPE svg PUBLIC "-//W3C//DTD SVG 1.1//EN" "http://www.w3.org/Graphics/SVG/1.1/DTD/svg11.dtd">
<svg version="1.1" id="Layer_1" xmlns="http://www.w3.org/2000/svg" xmlns:xlink="http://www.w3.org/1999/xlink" x="0px" y="0px"
	 width="96px" height="96px" viewBox="0 0 96 96" enable-background="new 0 0 96 96" xml:space="preserve">
<path d="M4.56,93.984h86.88c1.404,0,2.543-1.139,2.543-2.543V4.563c0-1.406-1.139-2.545-2.543-2.545H4.56
	c-1.404,0-2.543,1.139-2.543,2.545v86.879C2.017,92.846,3.155,93.984,4.56,93.984z M76.814,12.074c3.446,0,6.242,2.795,6.242,6.242
	c0,3.449-2.795,6.244-6.242,6.244c-3.447,0-6.243-2.795-6.243-6.244C70.571,14.869,73.367,12.074,76.814,12.074z M76.814,42.455
	c3.446,0,6.242,2.795,6.242,6.244s-2.795,6.24-6.242,6.24c-3.447,0-6.243-2.791-6.243-6.24S73.367,42.455,76.814,42.455z M48,12.074
	c3.447,0,6.243,2.795,6.243,6.242c0,3.449-2.795,6.244-6.243,6.244c-3.448,0-6.243-2.795-6.243-6.244
	C41.757,14.869,44.552,12.074,48,12.074z M48,42.455c3.447,0,6.243,2.795,6.243,6.244s-2.795,6.24-6.243,6.24
	c-3.448,0-6.243-2.791-6.243-6.24S44.552,42.455,48,42.455z M19.186,12.074c3.447,0,6.243,2.795,6.243,6.242
	c0,3.449-2.796,6.244-6.243,6.244c-3.446,0-6.242-2.795-6.242-6.244C12.944,14.869,15.739,12.074,19.186,12.074z M19.186,42.455
	c3.447,0,6.243,2.795,6.243,6.244s-2.796,6.24-6.243,6.24c-3.446,0-6.242-2.791-6.242-6.24S15.739,42.455,19.186,42.455z
	 M16.208,73.859h61.676c2.107,0,3.815,1.707,3.815,3.814s-1.708,3.816-3.815,3.816H16.208c-2.107,0-3.815-1.709-3.815-3.816
	S14.1,73.859,16.208,73.859z"/>
</svg>
