<?xml version="1.0" encoding="utf-8"?>
<!-- Generator: Adobe Illustrator 16.0.0, SVG Export Plug-In . SVG Version: 6.00 Build 0)  -->
<!DOCTYPE svg PUBLIC "-//W3C//DTD SVG 1.1//EN" "http://www.w3.org/Graphics/SVG/1.1/DTD/svg11.dtd">
<svg version="1.1" id="Layer_1" xmlns="http://www.w3.org/2000/svg" xmlns:xlink="http://www.w3.org/1999/xlink" x="0px" y="0px"
	 width="96px" height="96px" viewBox="0 0 96 96" enable-background="new 0 0 96 96" xml:space="preserve">
<path d="M85.632,56.39c-5.939-5.939-13.577-8.06-20.761-5.861l-19.4-19.4c2.197-7.185,0.078-14.821-5.86-20.761
	c-5.155-5.154-11.314-7.282-18.829-6.506c-1.078,0.111-1.995,0.832-2.356,1.853c-0.364,1.02-0.105,2.157,0.66,2.922L30.608,20.16
	l-1.866,8.582l-8.583,1.865L8.638,19.086c-0.766-0.767-1.903-1.023-2.924-0.661c-1.022,0.361-1.741,1.278-1.851,2.354
	c-0.776,7.518,1.351,13.675,6.506,18.83c5.938,5.939,13.575,8.059,20.76,5.86l19.401,19.4c-2.198,7.186-0.08,14.822,5.86,20.762
	c5.155,5.154,11.314,7.283,18.83,6.506c1.077-0.111,1.995-0.83,2.355-1.853c0.364-1.02,0.106-2.157-0.659-2.922L65.393,75.839
	l1.865-8.581l8.584-1.866l11.522,11.523c0.765,0.765,1.903,1.022,2.923,0.659c0.401-0.141,0.756-0.37,1.044-0.659
	c0.448-0.447,0.741-1.042,0.807-1.695C92.914,67.703,90.787,61.543,85.632,56.39z"/>
</svg>
