<?xml version="1.0" encoding="utf-8"?>
<!-- Generator: Adobe Illustrator 16.0.0, SVG Export Plug-In . SVG Version: 6.00 Build 0)  -->
<!DOCTYPE svg PUBLIC "-//W3C//DTD SVG 1.1//EN" "http://www.w3.org/Graphics/SVG/1.1/DTD/svg11.dtd">
<svg version="1.1" id="Layer_1" xmlns="http://www.w3.org/2000/svg" xmlns:xlink="http://www.w3.org/1999/xlink" x="0px" y="0px"
	 width="96px" height="96px" viewBox="0 0 96 96" enable-background="new 0 0 96 96" xml:space="preserve">
<g>
	<path d="M41.375,13.777l-0.157-1.215c-0.162-1.262-0.866-2.391-1.927-3.092c-1.061-0.704-2.377-0.909-3.601-0.564l-3.522,0.987
		l0.343-3.19c0.133-1.236-0.267-2.47-1.097-3.394c-0.831-0.924-2.016-1.452-3.258-1.452h-8.084c-1.242,0-2.428,0.528-3.258,1.452
		c-0.831,0.924-1.229,2.157-1.098,3.394l0.337,3.138l-3.222-0.927c-1.203-0.342-2.498-0.16-3.556,0.514
		c-1.058,0.672-1.777,1.762-1.978,3l-1.251,7.757c-0.194,1.206,0.124,2.438,0.878,3.4c0.754,0.96,1.875,1.563,3.094,1.661
		l0.781,0.064L9.844,26.6c-0.765,1.029-1.039,2.34-0.753,3.591c0.287,1.249,1.105,2.31,2.242,2.902l6.56,3.424v37.847h72.115V13.777
		H41.375z M13.076,28.826l5.667-7.63l-8.654-0.699l1.251-7.757l9.479,2.725l-1.03-9.612h8.083l-1.032,9.623l9.751-2.737l1.001,7.761
		l-8.652,0.697l5.778,7.612l-7.055,3.796l-3.864-7.867l-3.471,7.874L13.076,28.826z M84.238,68.594H23.663V36.118
		c0.229-0.225,0.442-0.462,0.618-0.733c0.547,0.836,1.366,1.465,2.327,1.773c1.132,0.363,2.365,0.25,3.412-0.313l4.887-2.629h44.637
		v-5.474H39.333c-0.083-0.79-0.354-1.553-0.843-2.196l-0.943-1.243l0.68-0.056c1.195-0.096,2.297-0.678,3.051-1.607
		c0.755-0.931,1.096-2.13,0.941-3.317l-0.1-0.774h42.119V68.594z"/>
	<rect x="28.356" y="40.103" width="51.188" height="5.475"/>
	<rect x="28.356" y="52.01" width="51.188" height="5.475"/>
	<polygon points="53.805,94.143 61.301,78.406 46.601,78.425 	"/>
</g>
</svg>
