<?xml version="1.0" encoding="utf-8"?>
<!-- Generator: Adobe Illustrator 16.0.0, SVG Export Plug-In . SVG Version: 6.00 Build 0)  -->
<!DOCTYPE svg PUBLIC "-//W3C//DTD SVG 1.1//EN" "http://www.w3.org/Graphics/SVG/1.1/DTD/svg11.dtd">
<svg version="1.1" id="Layer_1" xmlns="http://www.w3.org/2000/svg" xmlns:xlink="http://www.w3.org/1999/xlink" x="0px" y="0px"
	 width="96px" height="96px" viewBox="0 0 96 96" enable-background="new 0 0 96 96" xml:space="preserve">
<g>
	<path d="M64.465,2.353H17.436v8.495c-2.146-0.399-4.227-0.606-6.185-0.609l-1.667,0.006l2.96,19.806l1.108,0.117
		c0.855,0.09,2.191,0.291,3.783,0.696v63.437H84.51V29.624L60.682,13.171L64.465,2.353z M67.616,34.504L50.582,64.522L19.765,47.09
		l19.058-0.46c-4.666-12.813-14.575-17.222-21.387-18.732v0.009c-0.793-0.184-1.589-0.346-2.366-0.462l-2.135-14.275
		c1.567,0.095,3.229,0.326,4.889,0.681l0.003-0.015c11.656,2.176,26.885,9.889,33.428,29.399L67.616,34.504z"/>
	<polygon points="71.078,1.699 68.015,10.464 86.416,23.17 	"/>
</g>
</svg>
