<?xml version="1.0" encoding="utf-8"?>
<!-- Generator: Adobe Illustrator 16.0.0, SVG Export Plug-In . SVG Version: 6.00 Build 0)  -->
<!DOCTYPE svg PUBLIC "-//W3C//DTD SVG 1.1//EN" "http://www.w3.org/Graphics/SVG/1.1/DTD/svg11.dtd">
<svg version="1.1" id="Layer_1" xmlns="http://www.w3.org/2000/svg" xmlns:xlink="http://www.w3.org/1999/xlink" x="0px" y="0px"
	 width="96px" height="96px" viewBox="0 0 96 96" enable-background="new 0 0 96 96" xml:space="preserve">
<g>
	<path d="M11.7,0.75v71.273h72.6V0.75H11.7z M68.382,53.718c-1.951-2.91-3.967-5.919-6.369-8.01
		c-2.377-2.059-4.494-2.884-6.474-2.528c-3.076,0.556-4.822,3.756-6.51,6.85c-1.305,2.392-2.654,4.865-4.24,5.192
		c-0.809,0.167-1.82-0.221-2.995-1.141c-0.539-0.436-1.084-0.974-1.662-1.543c-2.072-2.043-4.91-4.84-8.893-3.048
		c-2.966,1.262-4.558,4.256-6.097,7.151c-1.628,3.062-3.172,5.952-6.131,6.722h-0.524V7.538h59.023v55.803
		C74.039,61.629,70.963,57.569,68.382,53.718z"/>
	<polygon points="47.828,95.25 56.646,76.825 39.354,76.761 	"/>
	<circle cx="29.744" cy="25.606" r="7.225"/>
	<path d="M60.796,30.985c-0.718,0.352-1.56,0.553-2.462,0.553c-2.615,0-4.735-1.698-4.735-3.794c0-0.414,0.084-0.813,0.237-1.187
		c-1.93,0.233-3.478,1.398-3.907,2.906c-0.526-0.163-1.098-0.252-1.696-0.252c-2.615,0-4.735,1.699-4.735,3.795
		c0,2.095,2.12,3.794,4.735,3.794c0.901,0,1.745-0.203,2.463-0.554c0.763,1.275,2.388,2.156,4.271,2.156
		c1.761,0,3.298-0.772,4.113-1.916c0.577,0.201,1.214,0.314,1.884,0.314c2.572,0,4.664-1.644,4.731-3.692
		c-0.206,0.021-0.416,0.033-0.628,0.033C63.185,33.141,61.56,32.259,60.796,30.985z"/>
	<path d="M72.715,22.36c-0.635,0-1.24,0.101-1.793,0.282c-0.465-1.704-2.358-2.981-4.624-2.981c-2.253,0-4.137,1.261-4.616,2.951
		c-0.527-0.163-1.099-0.252-1.698-0.252c-2.615,0-4.734,1.699-4.734,3.794c0,2.096,2.119,3.794,4.734,3.794
		c0.902,0,1.745-0.202,2.462-0.552c0.764,1.275,2.389,2.155,4.271,2.155c1.763,0,3.297-0.772,4.113-1.915
		c0.578,0.201,1.215,0.313,1.884,0.313c2.615,0,4.735-1.698,4.735-3.794C77.45,24.059,75.33,22.36,72.715,22.36z"/>
</g>
</svg>
