<?xml version="1.0" encoding="utf-8"?>
<!-- Generator: Adobe Illustrator 16.0.4, SVG Export Plug-In . SVG Version: 6.00 Build 0)  -->
<!DOCTYPE svg PUBLIC "-//W3C//DTD SVG 1.1//EN" "http://www.w3.org/Graphics/SVG/1.1/DTD/svg11.dtd">
<svg version="1.1" id="Layer_1" xmlns="http://www.w3.org/2000/svg" xmlns:xlink="http://www.w3.org/1999/xlink" x="0px" y="0px"
	 width="96px" height="96px" viewBox="0 0 96 96" enable-background="new 0 0 96 96" xml:space="preserve">
<path d="M76.758,22.86L58.124,9.994l3.104-8.872L76.758,22.86z M89.086,73.879c0,9.174-5.99,16.963-14.26,19.696v1.304H6.914V1.784
	h47.617l-3.832,10.949l24.127,16.659v24.792C83.096,56.916,89.086,64.705,89.086,73.879z M82.586,73.878
	c0-7.856-6.393-14.25-14.25-14.25s-14.25,6.394-14.25,14.25s6.393,14.25,14.25,14.25S82.586,81.734,82.586,73.878z M57.9,80.881
	l3.59,3.59l17.441-17.444l-3.59-3.589L57.9,80.881z"/>
</svg>
