<?xml version="1.0" encoding="utf-8"?>
<!-- Generator: Adobe Illustrator 16.0.0, SVG Export Plug-In . SVG Version: 6.00 Build 0)  -->
<!DOCTYPE svg PUBLIC "-//W3C//DTD SVG 1.1//EN" "http://www.w3.org/Graphics/SVG/1.1/DTD/svg11.dtd">
<svg version="1.1" id="Layer_1" xmlns="http://www.w3.org/2000/svg" xmlns:xlink="http://www.w3.org/1999/xlink" x="0px" y="0px"
	 width="96px" height="96px" viewBox="0 0 96 96" enable-background="new 0 0 96 96" xml:space="preserve">
<g>
	<path d="M95.25,39.674C95.25,21.087,74.054,5.967,48,5.967S0.75,21.087,0.75,39.674C0.75,58.26,21.946,73.381,48,73.381
		c6.856,0,13.369-1.056,19.254-2.938l14.559,19.59l0.021-26.864C90.127,57.093,95.25,48.804,95.25,39.674z M48,64.954
		c-21.406,0-38.823-11.341-38.823-25.28c0-13.94,17.417-25.28,38.823-25.28s38.823,11.34,38.823,25.28
		C86.823,53.613,69.406,64.954,48,64.954z"/>
	<polygon points="51.23,46.612 52.478,20.933 43.465,20.933 44.769,46.612 	"/>
	<path d="M47.999,49.446c-3.004,0-5.102,2.154-5.102,5.158c0,2.948,2.041,5.159,5.102,5.159c3.062,0,5.045-2.211,5.045-5.159
		C52.987,51.601,51.004,49.446,47.999,49.446z"/>
</g>
</svg>
