<?xml version="1.0" encoding="utf-8"?>
<!-- Generator: Adobe Illustrator 16.0.0, SVG Export Plug-In . SVG Version: 6.00 Build 0)  -->
<!DOCTYPE svg PUBLIC "-//W3C//DTD SVG 1.1//EN" "http://www.w3.org/Graphics/SVG/1.1/DTD/svg11.dtd">
<svg version="1.1" id="Layer_1" xmlns="http://www.w3.org/2000/svg" xmlns:xlink="http://www.w3.org/1999/xlink" x="0px" y="0px"
	 width="96px" height="96px" viewBox="0 0 96 96" enable-background="new 0 0 96 96" xml:space="preserve">
<g>
	<path d="M26.12,32.415c0,3.422,2.784,6.206,6.206,6.206s6.206-2.784,6.206-6.206s-2.784-6.206-6.206-6.206
		S26.12,28.993,26.12,32.415z"/>
	<path d="M92.732,85.17c0,0-34.967-34.912-35.115-35.036c8.436-11.999,7.322-28.713-3.398-39.434C42.224-1.298,22.7-1.298,10.7,10.7
		c-11.999,11.997-11.999,31.521,0,43.518c10.721,10.724,27.435,11.833,39.435,3.396c0.124,0.153,35.037,35.119,35.037,35.119
		c2.087,2.088,5.473,2.088,7.561,0C94.822,90.643,94.822,87.26,92.732,85.17z M32.41,9.185c11.698,0,21.371,8.65,22.983,19.902
		C51.277,25.715,42.6,19.8,32.371,19.8c-10.155,0-18.783,5.832-22.936,9.215C11.078,17.798,20.737,9.185,32.41,9.185z
		 M45.093,32.415c0,2.791-0.913,5.362-2.44,7.463c-3.118,1.254-6.607,2.142-10.281,2.142c-3.724,0-7.26-0.91-10.411-2.192
		c-1.504-2.091-2.4-4.646-2.4-7.413c0-2.774,0.901-5.333,2.411-7.427c3.148-1.28,6.681-2.188,10.4-2.188
		c3.669,0,7.154,0.885,10.27,2.137C44.174,27.041,45.093,29.618,45.093,32.415z M32.41,55.632c-11.672,0-21.33-8.612-22.974-19.828
		c4.151,3.383,12.779,9.215,22.935,9.215c10.228,0,18.905-5.915,23.022-9.287C53.779,46.983,44.107,55.632,32.41,55.632z"/>
</g>
</svg>
