<?xml version="1.0" encoding="utf-8"?>
<!-- Generator: Adobe Illustrator 16.0.0, SVG Export Plug-In . SVG Version: 6.00 Build 0)  -->
<!DOCTYPE svg PUBLIC "-//W3C//DTD SVG 1.1//EN" "http://www.w3.org/Graphics/SVG/1.1/DTD/svg11.dtd">
<svg version="1.1" id="Layer_1" xmlns="http://www.w3.org/2000/svg" xmlns:xlink="http://www.w3.org/1999/xlink" x="0px" y="0px"
	 width="96px" height="96px" viewBox="0 0 96 96" enable-background="new 0 0 96 96" xml:space="preserve">
<g>
	<polygon points="60.979,1.122 57.873,9.994 76.508,22.86 	"/>
	<path d="M67.729,66.398c-3.084,0-5.596,2.509-5.596,5.594c0,3.084,2.512,5.593,5.596,5.593c3.082,0,5.594-2.509,5.594-5.593
		C73.322,68.907,70.811,66.398,67.729,66.398z"/>
	<path d="M86.426,64.045c0.039-0.309,0.059-0.622,0.059-0.935c0-2.011-0.781-3.902-2.207-5.33l-2.848-2.847
		c-1.594-1.601-3.973-2.406-6.252-2.13c-0.186-0.241-0.389-0.467-0.602-0.684V29.392L50.449,12.733l3.832-10.949H6.664v93.095
		h67.912v-2.974c0.209-0.212,0.406-0.435,0.59-0.67c2.275,0.281,4.648-0.526,6.252-2.134l2.859-2.858
		c1.424-1.423,2.209-3.316,2.209-5.329c0-0.316-0.02-0.629-0.059-0.938c1.77-1.38,2.908-3.531,2.908-5.944v-4.041
		C89.336,67.578,88.195,65.425,86.426,64.045z M83.873,74.012c0,0.847-0.688,1.536-1.535,1.536h-2.443
		c-0.256,0.879-0.607,1.728-1.047,2.532l1.725,1.727c0.6,0.6,0.6,1.573,0,2.173l-2.857,2.857c-0.58,0.58-1.592,0.58-2.17,0
		l-1.729-1.727c-0.803,0.442-1.654,0.793-2.533,1.049v2.442c0,0.848-0.688,1.537-1.535,1.537h-4.041
		c-0.848,0-1.535-0.688-1.535-1.537v-2.442c-0.879-0.256-1.73-0.606-2.533-1.049l-1.729,1.727c-0.557,0.559-1.613,0.558-2.17,0
		l-2.857-2.857c-0.291-0.291-0.449-0.676-0.449-1.087c0-0.404,0.164-0.801,0.449-1.086l1.727-1.726
		c-0.441-0.805-0.793-1.653-1.049-2.532h-2.443c-0.848,0-1.535-0.689-1.535-1.536v-4.041c0-0.847,0.688-1.536,1.535-1.536h2.443
		c0.256-0.879,0.607-1.728,1.049-2.533l-1.727-1.727c-0.6-0.599-0.6-1.573,0-2.172l2.857-2.857c0.58-0.58,1.592-0.58,2.17,0
		l1.729,1.727c0.803-0.442,1.654-0.793,2.533-1.049v-2.442c0-0.847,0.688-1.536,1.535-1.536h4.041c0.848,0,1.535,0.689,1.535,1.536
		v2.442c0.879,0.256,1.73,0.606,2.533,1.049l1.729-1.727c0.557-0.559,1.613-0.558,2.17,0l2.857,2.857
		c0.291,0.291,0.449,0.676,0.449,1.086c0,0.405-0.164,0.802-0.449,1.087l-1.725,1.727c0.439,0.805,0.791,1.653,1.047,2.532h2.443
		c0.848,0,1.535,0.689,1.535,1.536V74.012z"/>
</g>
</svg>
