<?xml version="1.0" encoding="utf-8"?>
<!-- Generator: Adobe Illustrator 16.0.0, SVG Export Plug-In . SVG Version: 6.00 Build 0)  -->
<!DOCTYPE svg PUBLIC "-//W3C//DTD SVG 1.1//EN" "http://www.w3.org/Graphics/SVG/1.1/DTD/svg11.dtd">
<svg version="1.1" id="Layer_1" xmlns="http://www.w3.org/2000/svg" xmlns:xlink="http://www.w3.org/1999/xlink" x="0px" y="0px"
	 width="96px" height="96px" viewBox="0 0 96 96" enable-background="new 0 0 96 96" xml:space="preserve">
<g>
	<polygon points="71.256,62.219 66.46,62.219 66.46,78 79.917,78 79.917,73.203 71.256,73.203 	"/>
	<polygon points="61.229,1.122 58.124,9.994 76.758,22.86 	"/>
	<path d="M74.826,54.183V29.392L50.699,12.733l3.832-10.949H6.914v93.095h67.912v-1.304c8.27-2.733,14.26-10.522,14.26-19.696
		S83.096,56.916,74.826,54.183z M68.336,88.128c-7.857,0-14.25-6.393-14.25-14.25s6.393-14.25,14.25-14.25s14.25,6.393,14.25,14.25
		S76.193,88.128,68.336,88.128z"/>
</g>
</svg>
