<?xml version="1.0" encoding="utf-8"?>
<!-- Generator: Adobe Illustrator 16.0.0, SVG Export Plug-In . SVG Version: 6.00 Build 0)  -->
<!DOCTYPE svg PUBLIC "-//W3C//DTD SVG 1.1//EN" "http://www.w3.org/Graphics/SVG/1.1/DTD/svg11.dtd">
<svg version="1.1" id="Layer_1" xmlns="http://www.w3.org/2000/svg" xmlns:xlink="http://www.w3.org/1999/xlink" x="0px" y="0px"
	 width="96px" height="96px" viewBox="0 0 96 96" enable-background="new 0 0 96 96" xml:space="preserve">
<path d="M85.056,34.407V13.054c0-1.273-1.033-2.306-2.305-2.306H61.143c-0.969,0-1.834,0.607-2.167,1.518l-1.743,4.796H3.454
	c-0.611,0-1.198,0.243-1.629,0.676c-0.432,0.432-0.675,1.019-0.675,1.629l0.021,63.583c0,1.151,0.85,2.098,1.956,2.267l77.32,0.019
	l14.404-50.827H85.056z M80.446,34.407h-62.96L5.778,75.835L5.76,21.67h53.087c0.969,0,1.834-0.604,2.166-1.516l1.744-4.796h17.69
	V34.407z"/>
</svg>
