<?xml version="1.0" encoding="utf-8"?>
<!-- Generator: Adobe Illustrator 16.0.0, SVG Export Plug-In . SVG Version: 6.00 Build 0)  -->
<!DOCTYPE svg PUBLIC "-//W3C//DTD SVG 1.1//EN" "http://www.w3.org/Graphics/SVG/1.1/DTD/svg11.dtd">
<svg version="1.1" id="Layer_1" xmlns="http://www.w3.org/2000/svg" xmlns:xlink="http://www.w3.org/1999/xlink" x="0px" y="0px"
	 width="96px" height="96px" viewBox="0 0 96 96" enable-background="new 0 0 96 96" xml:space="preserve">
<g>
	<path d="M46.281,40.197c-3.395,0-5.371,3.229-5.371,7.545c0,4.348,2.043,7.414,5.402,7.414c3.395,0,5.34-3.229,5.34-7.545
		C51.652,43.623,49.738,40.197,46.281,40.197z"/>
	<path d="M61.41,2.305H14.666v91.391h66.668V29.41L57.65,13.059L61.41,2.305z M60.246,36.572h5.865l4.613,8.139
		c1.318,2.34,2.637,5.107,3.625,7.609h0.1c-0.33-2.932-0.428-5.93-0.428-9.258v-6.49h4.609v22.209h-5.27l-4.744-8.57
		c-1.318-2.369-2.77-5.238-3.857-7.842l-0.1,0.035c0.135,2.932,0.199,6.063,0.199,9.686v6.691h-4.613V36.572z M32.84,40.691h-8.535
		v5.072h7.977v4.088h-7.977v8.93h-5.041V36.572H32.84V40.691z M46.051,59.141c-6.592,0-10.445-4.973-10.445-11.299
		c0-6.656,4.25-11.633,10.807-11.633c6.82,0,10.543,5.107,10.543,11.236C56.955,54.727,52.539,59.141,46.051,59.141z"/>
	<polygon points="66.09,2.305 63.045,11.016 81.334,23.645 	"/>
</g>
</svg>
