<?xml version="1.0" encoding="utf-8"?>
<!-- Generator: Adobe Illustrator 16.0.4, SVG Export Plug-In . SVG Version: 6.00 Build 0)  -->
<!DOCTYPE svg PUBLIC "-//W3C//DTD SVG 1.1//EN" "http://www.w3.org/Graphics/SVG/1.1/DTD/svg11.dtd">
<svg version="1.1" id="Layer_1" xmlns="http://www.w3.org/2000/svg" xmlns:xlink="http://www.w3.org/1999/xlink" x="0px" y="0px"
	 width="96px" height="96px" viewBox="0 0 96 96" enable-background="new 0 0 96 96" xml:space="preserve">
<path d="M74.968,60.633l3.59,3.59L61.115,81.664l-3.59-3.59L74.968,60.633z M89.339,71.234c0,11.717-9.532,21.25-21.25,21.25
	c-5.989,0-11.397-2.5-15.264-6.5h-2.236H36.063h-6.818H21.33V20.359h42.43l-3.295-6.373c-0.324-0.629-0.322-1.373,0.006-1.998
	l2.187-4.15h-51.68v12.521h6.103v65.627H6.711L6.659,5.679c0-1.193,0.967-2.16,2.158-2.16h57.416c0.756,0,1.457,0.397,1.85,1.045
	c0.391,0.646,0.415,1.451,0.061,2.121l-3.324,6.32l3.746,7.355v6.699v19.607v3.342C80.062,50.264,89.341,59.676,89.339,71.234z
	 M82.341,71.234c0-7.857-6.394-14.25-14.25-14.25s-14.25,6.393-14.25,14.25c0,7.856,6.394,14.25,14.25,14.25
	S82.341,79.091,82.341,71.234z"/>
</svg>
