<?xml version="1.0" encoding="utf-8"?>
<!-- Generator: Adobe Illustrator 16.0.0, SVG Export Plug-In . SVG Version: 6.00 Build 0)  -->
<!DOCTYPE svg PUBLIC "-//W3C//DTD SVG 1.1//EN" "http://www.w3.org/Graphics/SVG/1.1/DTD/svg11.dtd">
<svg version="1.1" id="Layer_1" xmlns="http://www.w3.org/2000/svg" xmlns:xlink="http://www.w3.org/1999/xlink" x="0px" y="0px"
	 width="96px" height="96px" viewBox="0 0 96 96" enable-background="new 0 0 96 96" xml:space="preserve">
<path d="M94.193,64.088c-0.982-1.082-2.241-1.653-3.639-1.653c-1.145,0-3.954,0.395-5.318,4.062
	c-0.344,0.922-0.444,1.413-0.908,1.364c-0.786-0.079-3.845-3.347-4.845-8.145l-2.482-11.6c1.961-3.177,3.977-5.629,5.988-7.292
	c1.081-0.882,2.314-1.349,3.808-1.43c3.816-0.26,5.203-0.74,6.14-1.399c1.546-1.115,2.397-2.728,2.397-4.542
	c0-1.596-0.604-3.019-1.75-4.115c-1.107-1.059-2.581-1.618-4.26-1.618c-2.468,0-5.239,1.142-8.473,3.49
	c-1.911,1.388-3.935,3.406-6.121,6.111c-0.712-2.653-1.32-3.889-1.771-4.628c-1.396-2.303-3.664-2.303-4.41-2.303l-0.814,0.013
	l-23.045,0.544l1.297-5.506c0.828-3.593,1.915-6.436,3.226-8.45c0.638-0.98,1.614-2.148,2.638-2.148c0.387,0,1.152,0.063,2.582,0.36
	c3.977,0.86,5.465,0.959,6.239,0.959c1.708,0,3.21-0.571,4.346-1.651c1.176-1.119,1.798-2.583,1.798-4.233
	c0-1.29-0.424-3.156-2.446-4.722c-1.396-1.081-3.311-1.629-5.692-1.629c-3.567,0-7.348,1.141-11.24,3.39
	c-3.862,2.232-7.038,5.317-9.438,9.171c-2.105,3.379-3.929,8.124-5.555,14.459H22.29l-2.238,8.831h10.186l-7.74,31.116
	c-1.603,6.443-2.777,8.028-3.098,8.361c-0.875,0.904-2.68,1.094-4.04,1.094c-1.683,0-3.477-0.121-5.349-0.362
	c-1.286-0.157-2.265-0.234-2.991-0.234c-1.878,0-3.423,0.488-4.59,1.448c-1.301,1.069-2.017,2.615-2.017,4.351
	c0,1.357,0.44,3.308,2.539,4.894c1.434,1.08,3.389,1.628,5.813,1.628c6.069,0,11.725-2.411,16.813-7.165
	c4.947-4.624,8.571-11.413,10.773-20.195l6.119-24.935l20.87,0.354l2.244,9.639l-4.573,6.748c-0.824,1.21-2.051,2.701-3.659,4.442
	c-0.84,0.92-1.398,1.426-1.72,1.69c-1.317-1.609-2.809-2.424-4.432-2.424c-1.525,0-2.91,0.624-4.002,1.803
	c-1.036,1.117-1.583,2.514-1.583,4.039c0,1.829,0.783,3.458,2.264,4.708c1.357,1.147,3.034,1.728,4.981,1.728
	c2.414,0,4.884-0.921,7.344-2.738c2.053-1.518,4.697-4.526,8.074-9.189c2.17,6.241,5.249,10.252,6.714,11.927
	c2.313,2.643,6.049,4.219,9.994,4.219c3.347,0,5.243-1.402,6.915-2.64l0.149-0.109c2.926-2.164,3.54-4.546,3.54-6.166
	C95.587,66.377,95.105,65.091,94.193,64.088z"/>
</svg>
