<?xml version="1.0" encoding="utf-8"?>
<!-- Generator: Adobe Illustrator 16.0.0, SVG Export Plug-In . SVG Version: 6.00 Build 0)  -->
<!DOCTYPE svg PUBLIC "-//W3C//DTD SVG 1.1//EN" "http://www.w3.org/Graphics/SVG/1.1/DTD/svg11.dtd">
<svg version="1.1" id="Layer_1" xmlns="http://www.w3.org/2000/svg" xmlns:xlink="http://www.w3.org/1999/xlink" x="0px" y="0px"
	 width="96px" height="96px" viewBox="0 0 96 96" enable-background="new 0 0 96 96" xml:space="preserve">
<path d="M71.75,23.5h-47.5c-11.046,0-20,8.954-20,20v9c0,11.046,8.954,20,20,20h47.5c11.046,0,20-8.954,20-20v-9
	C91.75,32.454,82.796,23.5,71.75,23.5z M42.683,52.349H32.85v9.833H24.15v-9.833h-9.833v-8.698h9.833v-9.833h8.699v9.833h9.833
	V52.349z M61,48c-4.418,0-8-3.582-8-8s3.582-8,8-8s8,3.582,8,8S65.418,48,61,48z M75.75,62.25c-4.418,0-8-3.582-8-8s3.582-8,8-8
	s8,3.582,8,8S80.168,62.25,75.75,62.25z"/>
</svg>
