<?xml version="1.0" encoding="utf-8"?>
<!-- Generator: Adobe Illustrator 16.0.0, SVG Export Plug-In . SVG Version: 6.00 Build 0)  -->
<!DOCTYPE svg PUBLIC "-//W3C//DTD SVG 1.1//EN" "http://www.w3.org/Graphics/SVG/1.1/DTD/svg11.dtd">
<svg version="1.1" id="Layer_1" xmlns="http://www.w3.org/2000/svg" xmlns:xlink="http://www.w3.org/1999/xlink" x="0px" y="0px"
	 width="96px" height="96px" viewBox="0 0 96 96" enable-background="new 0 0 96 96" xml:space="preserve">
<path d="M1.255,2v21.182v6.771v14.91v6.273v14.91v6.771V94h93.49V72.818v-6.771v-14.91v-6.273v-14.91v-6.771V2H1.255z M67.683,8.151
	h20.912v15.03H67.683V8.151z M35.083,8.151h26.448v15.03H35.083V8.151z M61.531,29.953v14.91H35.083v-14.91H61.531z M7.405,8.151
	h21.527v15.03H7.405V8.151z M7.405,29.953h21.527v14.91H7.405V29.953z M28.932,87.849H7.405v-15.03h21.527V87.849z M7.405,66.047
	v-14.91h21.527v14.91H7.405z M61.531,87.849H35.083v-15.03h26.448V87.849z M35.083,66.047v-14.91h26.448v14.91H35.083z
	 M88.595,87.849H67.683v-15.03h20.912V87.849z M88.595,66.047H67.683v-14.91h20.912V66.047z M67.683,44.863v-14.91h20.912v14.91
	H67.683z"/>
</svg>
