<?xml version="1.0" encoding="utf-8"?>
<!-- Generator: Adobe Illustrator 16.0.0, SVG Export Plug-In . SVG Version: 6.00 Build 0)  -->
<!DOCTYPE svg PUBLIC "-//W3C//DTD SVG 1.1//EN" "http://www.w3.org/Graphics/SVG/1.1/DTD/svg11.dtd">
<svg version="1.1" id="Layer_1" xmlns="http://www.w3.org/2000/svg" xmlns:xlink="http://www.w3.org/1999/xlink" x="0px" y="0px"
	 width="96px" height="96px" viewBox="0 0 96 96" enable-background="new 0 0 96 96" xml:space="preserve">
<g>
	<path d="M74.305,3.729H21.695c-1.821,0-3.297,1.477-3.297,3.297v81.947c0,1.821,1.476,3.297,3.297,3.297h52.609
		c1.821,0,3.297-1.477,3.297-3.297V7.026C77.602,5.206,76.126,3.729,74.305,3.729z M71.008,85.676H24.992V10.324h46.016V85.676z"/>
	<path d="M33.822,47.618c0.324,0.533,0.676,1.055,1.109,1.564c0.008,0.008,0.018,0.019,0.025,0.028l12.15,13.329
		c0.229,0.25,0.549,0.393,0.887,0.393h0.002c0.338,0,0.658-0.142,0.887-0.391l12.156-13.287c0.014-0.015,0.025-0.029,0.039-0.045
		c0.412-0.501,0.771-1.004,1.086-1.514l0.814-1.622c0.438-1.103,0.654-2.235,0.654-3.416c0-4.896-3.689-8.943-8.432-9.517
		l-0.633-0.059c-0.174-0.009-0.348-0.016-0.525-0.016c-2.232,0-4.34,0.754-6.043,2.146c-1.703-1.392-3.811-2.146-6.043-2.146
		c-0.166,0-0.33,0.004-0.492,0.014l-0.633,0.056c-4.76,0.559-8.465,4.615-8.465,9.521c0,1.152,0.211,2.27,0.629,3.348L33.822,47.618
		z"/>
</g>
</svg>
