<?xml version="1.0" encoding="utf-8"?>
<!-- Generator: Adobe Illustrator 16.0.0, SVG Export Plug-In . SVG Version: 6.00 Build 0)  -->
<!DOCTYPE svg PUBLIC "-//W3C//DTD SVG 1.1//EN" "http://www.w3.org/Graphics/SVG/1.1/DTD/svg11.dtd">
<svg version="1.1" id="Layer_1" xmlns="http://www.w3.org/2000/svg" xmlns:xlink="http://www.w3.org/1999/xlink" x="0px" y="0px"
	 width="96px" height="96px" viewBox="0 0 96 96" enable-background="new 0 0 96 96" xml:space="preserve">
<path d="M81.211,14.79c-18.342-18.342-48.08-18.342-66.422,0c-18.342,18.341-18.342,48.08,0,66.421
	c18.342,18.342,48.08,18.342,66.422,0C99.553,62.869,99.553,33.131,81.211,14.79z M56.405,86.044H39.731V33.802h16.674V86.044z
	 M55.256,25.147c-1.841,1.904-4.495,2.954-7.471,2.954c-5.479,0-9.61-4.192-9.61-9.751c0-5.64,4.254-9.893,9.895-9.893
	c5.649,0,9.751,4.161,9.751,9.893C57.907,20.907,56.997,23.347,55.256,25.147z"/>
</svg>
