<?xml version="1.0" encoding="utf-8"?>
<!-- Generator: Adobe Illustrator 16.0.0, SVG Export Plug-In . SVG Version: 6.00 Build 0)  -->
<!DOCTYPE svg PUBLIC "-//W3C//DTD SVG 1.1//EN" "http://www.w3.org/Graphics/SVG/1.1/DTD/svg11.dtd">
<svg version="1.1" xmlns="http://www.w3.org/2000/svg" xmlns:xlink="http://www.w3.org/1999/xlink" x="0px" y="0px" width="96px"
	 height="96px" viewBox="0 0 96 96" enable-background="new 0 0 96 96" xml:space="preserve">
<g id="Layer_1">
	<g>
		<g>
			<g>
				<path d="M61,26.734H35v17.81h26V26.734z"/>
			</g>
		</g>
		<g>
			<g>
				<path d="M61,51.567H35v17.81h26V51.567z"/>
			</g>
		</g>
		<g>
			<g>
				<path d="M93,44.433v-17.81H68.5v-7.634H61V2.68H35v16.31h-6V2.68H3v17.81h24.5v6.245H3v17.81h24.5v7.023H3v17.81h24.5v7.634H35
					v16.31h26v-16.31h6v16.31h26v-17.81H68.5v-7.023H93v-17.81H68.5v-6.245H93z M65.5,74.011h-35V21.989h35V74.011z"/>
			</g>
		</g>
	</g>
</g>
<g id="Layer_2">
</g>
</svg>
