<?xml version="1.0" encoding="utf-8"?>
<!-- Generator: Adobe Illustrator 16.0.0, SVG Export Plug-In . SVG Version: 6.00 Build 0)  -->
<!DOCTYPE svg PUBLIC "-//W3C//DTD SVG 1.1//EN" "http://www.w3.org/Graphics/SVG/1.1/DTD/svg11.dtd">
<svg version="1.1" id="Layer_1" xmlns="http://www.w3.org/2000/svg" xmlns:xlink="http://www.w3.org/1999/xlink" x="0px" y="0px"
	 width="96px" height="96px" viewBox="0 0 96 96" enable-background="new 0 0 96 96" xml:space="preserve">
<g>
	<path d="M74.184,50.047c0.186-0.227,0.369-0.461,0.557-0.682c1.035-1.215,2.102-2.389,3.203-3.537
		c2.199-2.289,4.561-4.434,7.066-6.412c1.262-0.977,2.563-1.912,3.902-2.789c1.352-0.867,2.744-1.672,4.182-2.408
		c0.781-0.387,1.582-0.746,2.389-1.082v-2.932c0-1.016-0.824-1.84-1.842-1.84H38.412c-1.016,0-1.842,0.824-1.842,1.84v35.592
		c0,1.018,0.826,1.842,1.842,1.842h55.229c1.018,0,1.842-0.824,1.842-1.842V37.529c-0.143,0.084-0.285,0.168-0.428,0.248
		c-1.232,0.766-2.43,1.592-3.588,2.479c-1.15,0.895-2.268,1.842-3.346,2.83c-2.15,1.998-4.164,4.154-6.023,6.441
		c-0.934,1.141-1.83,2.309-2.689,3.502c-0.424,0.596-0.85,1.197-1.252,1.807c-0.395,0.59-0.818,1.242-1.135,1.781l-2.035,3.348
		l-2.889-2.873L59.123,44.178l5.119-4.926L74.184,50.047z"/>
	<polygon points="28.021,43.896 27.986,43.896 18.619,34.527 18.619,43.896 0.52,43.896 0.52,52.105 18.619,52.105 18.619,61.477 
		27.986,52.105 28.021,52.105 28.021,52.074 32.094,48.002 28.021,43.93 	"/>
</g>
</svg>
