<?xml version="1.0" encoding="utf-8"?>
<!-- Generator: Adobe Illustrator 16.0.0, SVG Export Plug-In . SVG Version: 6.00 Build 0)  -->
<!DOCTYPE svg PUBLIC "-//W3C//DTD SVG 1.1//EN" "http://www.w3.org/Graphics/SVG/1.1/DTD/svg11.dtd">
<svg version="1.1" id="Layer_1" xmlns="http://www.w3.org/2000/svg" xmlns:xlink="http://www.w3.org/1999/xlink" x="0px" y="0px"
	 width="96px" height="96px" viewBox="0 0 96 96" enable-background="new 0 0 96 96" xml:space="preserve">
<path d="M92.928,39.387L42.604,8.188c-1.264-0.783-2.945-0.359-3.756,0.948L21.642,36.892c-0.076-0.015-0.22-0.041-0.49-0.09
	c-0.185-0.035-0.415-0.077-0.683-0.127c-0.271-0.047-0.694-0.086-1.11-0.121c-0.438-0.042-0.902-0.063-1.396-0.067
	c-0.495-0.021-1.043-0.019-1.633,0.031c-1.177,0.079-2.544,0.253-4.036,0.712c-1.485,0.459-3.116,1.171-4.685,2.307
	c-1.549,1.146-3.023,2.71-4.083,4.611l-0.198,0.358l-0.098,0.179l-0.05,0.09l-0.096,0.21L2.97,45.244l-0.063,0.142l-0.099,0.256
	c-0.28,0.744-0.409,1.215-0.547,1.799c-0.258,1.116-0.375,2.188-0.417,3.213c-0.069,2.05,0.117,3.946,0.44,5.748
	c0.332,1.798,0.767,3.511,1.257,5.146c0.495,1.634,1.014,3.204,1.597,4.68c1.158,2.953,2.496,5.547,3.786,7.681
	c1.294,2.132,2.533,3.804,3.453,4.944c0.471,0.566,0.846,1.007,1.123,1.301c0.285,0.303,0.437,0.465,0.437,0.465
	c0.734,0.774,1.846,1.193,2.976,0.997c1.796-0.314,2.998-2.024,2.684-3.819l-0.072-0.416c0,0-0.03-0.174-0.129-0.531
	c-0.088-0.359-0.242-0.877-0.436-1.538c-0.398-1.315-1.004-3.175-1.775-5.356c-0.771-2.179-1.722-4.676-2.704-7.304
	c-0.995-2.613-1.958-5.422-2.491-8.095c-0.272-1.327-0.471-2.613-0.482-3.702c-0.008-0.542,0.026-1.027,0.091-1.414
	c0.02-0.169,0.097-0.436,0.073-0.405l-0.006-0.012l0.046-0.121l0.103-0.265l0.011-0.033l0.008-0.017
	c0.058-0.133-0.072,0.163-0.059,0.13l0.016-0.035l0.028-0.071l0.058-0.144c0.287-0.77,0.753-1.43,1.334-1.999
	c0.563-0.586,1.26-1.083,2.011-1.461c0.611-0.323,1.246-0.572,1.867-0.767l-3.705,5.978c-0.812,1.307-0.443,3.001,0.819,3.784
	l50.323,31.199c1.264,0.783,2.944,0.359,3.756-0.948l25.469-41.082C94.558,41.864,94.191,40.17,92.928,39.387z M65.786,78.608
	l-4.917-3.049l22.227-35.852l4.918,3.049L65.786,78.608z"/>
</svg>
