<?xml version="1.0" encoding="utf-8"?>
<!-- Generator: Adobe Illustrator 16.0.0, SVG Export Plug-In . SVG Version: 6.00 Build 0)  -->
<!DOCTYPE svg PUBLIC "-//W3C//DTD SVG 1.1//EN" "http://www.w3.org/Graphics/SVG/1.1/DTD/svg11.dtd">
<svg version="1.1" id="Layer_1" xmlns="http://www.w3.org/2000/svg" xmlns:xlink="http://www.w3.org/1999/xlink" x="0px" y="0px"
	 width="96px" height="96px" viewBox="0 0 96 96" enable-background="new 0 0 96 96" xml:space="preserve">
<g>
	<polygon points="55.045,74.926 48.634,74.926 48.634,78.194 58.313,78.194 58.313,68.514 55.045,68.514 	"/>
	<polygon points="55.045,52.717 58.313,52.717 58.313,43.037 48.634,43.037 48.634,46.305 55.045,46.305 	"/>
	<polygon points="11.897,46.305 18.309,46.305 18.309,43.037 8.63,43.037 8.63,52.717 11.897,52.717 	"/>
	<polygon points="18.309,74.926 11.897,74.926 11.897,68.514 8.63,68.514 8.63,78.194 18.309,78.194 	"/>
	<rect x="16.704" y="50.263" width="33.537" height="3.59"/>
	<rect x="16.704" y="58.757" width="33.537" height="3.589"/>
	<rect x="16.704" y="67.512" width="33.537" height="3.591"/>
	<path d="M94.947,41.016c0-17.137-13.941-31.077-31.078-31.077c-15.137,0-27.772,10.882-30.515,25.231H1.053v50.892h64.838v-14.05
		C82.086,70.965,94.947,57.471,94.947,41.016z M63.87,13.403c9.313,0,17.558,4.639,22.563,11.723
		c-2.524,3.467-9.625,1.533-13.27,2.222c-1.72,0.327-3.778,1.629-4.314,3.397c-0.658,2.168,2.283,2.514,1.102,4.854
		c-0.792,1.57-2.742,1.895-4.06,2.986V35.17h-2.687c1.76-0.832,3.156-2.25,3.857-4.068c0.511-1.323,0.722-2.648,1.423-3.913
		c0.878-1.585,2.338-2.843,3.338-4.361c0.192-0.294-0.067-0.632-0.374-0.651c-4.576-0.314-6.236,4.826-9.044,7.434
		c-1.154,1.072-2.496,1.279-4.007,1.039c-0.988-0.155-0.218-0.59,0.011-1.195c0.719-1.895-2.771-2.745-4.377-3.123
		c0.919-1.319,2.907-2.058,4.172-2.886c0.558-0.364,1.835-1.316,1.206-2.14c-1.055-1.378-3.42-1.531-4.99-1.408
		c-3.188,0.25-6.063,2.229-8.779,0.405C50.508,16.012,56.888,13.403,63.87,13.403z M51.426,34.033
		c1.056-0.121,2.29,0.618,3.293,1.137h-4.242C50.459,34.588,50.683,34.121,51.426,34.033z M61.14,81.311H5.804v-41.39H61.14V81.311z
		 M70.397,67.842c-0.481-0.886-0.663-1.81,0.283-2.379c1.003-0.604,2.168-0.842,3.156-1.498c1.583-1.051,2.578-3.675,1.25-5.296
		c-1.607-1.963-4.726-2.115-7.059-2.266c-0.746-0.047-1.45-0.075-2.136-0.107V44.068c0.018,0.017,0.032,0.037,0.049,0.054
		c2.741,2.634,7.327,2.614,10.885,3.38c-1.078,2.994-1.042,6.281,2.636,7.15c2.952,0.697,6.378-0.25,9.224-1.538
		C85.119,60.396,78.443,65.885,70.397,67.842z"/>
</g>
</svg>
