<?xml version="1.0" encoding="utf-8"?>
<!-- Generator: Adobe Illustrator 16.0.0, SVG Export Plug-In . SVG Version: 6.00 Build 0)  -->
<!DOCTYPE svg PUBLIC "-//W3C//DTD SVG 1.1//EN" "http://www.w3.org/Graphics/SVG/1.1/DTD/svg11.dtd">
<svg version="1.1" xmlns="http://www.w3.org/2000/svg" xmlns:xlink="http://www.w3.org/1999/xlink" x="0px" y="0px" width="96px"
	 height="96px" viewBox="0 0 96 96" enable-background="new 0 0 96 96" xml:space="preserve">
<g id="Layer_1">
	<g>
		<path d="M70.853,42.383h-5.703v5.695l-4.651,4.656h-3.508l-0.001,3.51l-4.152,4.15h-17.98l-0.001-16.205l21.629-21.631
			l-6.082-5.906H2.063v77.314h77.314v-49.18l-5.546-5.385L70.853,42.383z M73.928,79.664h-8.586v8.586h-6.105v-8.586h-8.586v-6.104
			h8.586v-8.588h6.105v8.588h8.586V79.664z"/>
		<path d="M89.288,6.684c-4.711-4.711-11.032-6.043-14.273-3.068c-4.783-1.314-9.358-0.633-12.303,2.313
			c-3.99,3.99-3.817,10.977-0.151,17.418l-22.86,22.861l0.001,9.396h11.172l1.332-1.332l0.001-6.328h6.326l1.833-1.834v-8.52h8.522
			l4.013-4.016c6.364,3.516,13.208,3.617,17.142-0.316c2.943-2.943,3.626-7.52,2.312-12.301
			C95.331,17.715,93.999,11.395,89.288,6.684z M87.772,19.01c-1.796,1.797-5.672,0.832-8.658-2.152
			c-2.985-2.986-3.95-6.863-2.154-8.66c1.796-1.795,5.672-0.83,8.658,2.154C88.604,13.338,89.568,17.215,87.772,19.01z"/>
	</g>
</g>
<g id="Layer_2">
</g>
</svg>
