<?xml version="1.0" encoding="utf-8"?>
<!-- Generator: Adobe Illustrator 16.0.0, SVG Export Plug-In . SVG Version: 6.00 Build 0)  -->
<!DOCTYPE svg PUBLIC "-//W3C//DTD SVG 1.1//EN" "http://www.w3.org/Graphics/SVG/1.1/DTD/svg11.dtd">
<svg version="1.1" id="Layer_1" xmlns="http://www.w3.org/2000/svg" xmlns:xlink="http://www.w3.org/1999/xlink" x="0px" y="0px"
	 width="96px" height="96px" viewBox="0 0 96 96" enable-background="new 0 0 96 96" xml:space="preserve">
<path d="M68.519,1.834L1.833,1.835v66.684v25.647h92.333V27.481C94.167,13.316,82.684,1.834,68.519,1.834z M73.827,84.453h-5.509
	l-7.668-23.385L52.98,84.453h-5.508L36,52.369h12.612v5.338H43.78l3.51,10.252c1.123,3.187,2.029,6.006,2.74,8.529
	c0.75-2.762,1.622-5.625,2.521-8.551l4.925-15.568h0.32h5.705h0.321l4.924,15.568c0.899,2.926,1.772,5.789,2.521,8.551
	c0.712-2.523,1.617-5.343,2.741-8.529l3.51-10.252h-4.833v-5.338h12.613L73.827,84.453z"/>
</svg>
