<?xml version="1.0" encoding="utf-8"?>
<!-- Generator: Adobe Illustrator 16.0.0, SVG Export Plug-In . SVG Version: 6.00 Build 0)  -->
<!DOCTYPE svg PUBLIC "-//W3C//DTD SVG 1.1//EN" "http://www.w3.org/Graphics/SVG/1.1/DTD/svg11.dtd">
<svg version="1.1" xmlns="http://www.w3.org/2000/svg" xmlns:xlink="http://www.w3.org/1999/xlink" x="0px" y="0px" width="96px"
	 height="96px" viewBox="0 0 96 96" enable-background="new 0 0 96 96" xml:space="preserve">
<g id="Layer_1">
	<g>
		<path d="M23.198,39.936c1.853,1.851,5.662,1.053,8.495-1.78c2.832-2.833,3.63-6.644,1.778-8.496
			c-1.851-1.851-5.661-1.052-8.494,1.781c-1.226,1.225-2.122,2.729-2.523,4.238C22.454,35.679,21.67,38.408,23.198,39.936z"/>
		<path d="M61.252,0.672H34.748c-6.97,0-12.621,5.651-12.621,12.621v13.081c4.265-3.521,9.753-4.399,13.613-2.131
			c3.935-0.638,7.365,0.279,9.677,2.592c3.588,3.589,3.734,9.773,0.404,15.834l21.786,21.787l-0.001,8.784H57.163l-1.245-1.245
			l-0.001-5.915h-5.913l-1.713-1.715v-7.963h-7.966l-4.117-4.119c-5.087,2.792-10.396,3.135-14.081,0.936v29.488
			c0,6.97,5.651,12.621,12.621,12.621h26.504c6.97,0,12.621-5.651,12.621-12.621V13.293C73.873,6.323,68.222,0.672,61.252,0.672z"/>
	</g>
</g>
<g id="Layer_2">
</g>
</svg>
