<?xml version="1.0" encoding="utf-8"?>
<!-- Generator: Adobe Illustrator 16.0.0, SVG Export Plug-In . SVG Version: 6.00 Build 0)  -->
<!DOCTYPE svg PUBLIC "-//W3C//DTD SVG 1.1//EN" "http://www.w3.org/Graphics/SVG/1.1/DTD/svg11.dtd">
<svg version="1.1" xmlns="http://www.w3.org/2000/svg" xmlns:xlink="http://www.w3.org/1999/xlink" x="0px" y="0px" width="96px"
	 height="96px" viewBox="0 0 96 96" enable-background="new 0 0 96 96" xml:space="preserve">
<g id="Layer_1">
	<path d="M87.246,9.337c-8.229-8.228-19.27-10.556-24.931-5.359c-8.355-2.296-16.347-1.105-21.489,4.04
		c-6.971,6.969-6.668,19.172-0.265,30.424L0.633,78.373l0.002,16.412h19.517l2.326-2.326l0.002-11.054h11.047l3.202-3.203V63.32
		h14.886l7.01-7.013c11.116,6.14,23.069,6.317,29.94-0.553c5.142-5.142,6.335-13.136,4.04-21.487
		C97.8,28.605,95.475,17.565,87.246,9.337z M84.6,30.867c-3.137,3.139-9.91,1.453-15.123-3.76
		c-5.215-5.216-6.899-11.987-3.763-15.126c3.138-3.135,9.908-1.45,15.124,3.763C86.051,20.96,87.736,27.732,84.6,30.867z"/>
</g>
<g id="Layer_2">
</g>
</svg>
