<?xml version="1.0" encoding="utf-8"?>
<!-- Generator: Adobe Illustrator 16.0.0, SVG Export Plug-In . SVG Version: 6.00 Build 0)  -->
<!DOCTYPE svg PUBLIC "-//W3C//DTD SVG 1.1//EN" "http://www.w3.org/Graphics/SVG/1.1/DTD/svg11.dtd">
<svg version="1.1" xmlns="http://www.w3.org/2000/svg" xmlns:xlink="http://www.w3.org/1999/xlink" x="0px" y="0px" width="96px"
	 height="96px" viewBox="0 0 96 96" enable-background="new 0 0 96 96" xml:space="preserve">
<g id="Layer_1">
	<path d="M87.578,9.009C79.28,0.712,68.146-1.636,62.438,3.604C54.01,1.286,45.95,2.489,40.767,7.677
		c-7.03,7.031-6.725,19.337-0.269,30.682L0.232,78.631l0.003,16.55l19.682,0.001l2.344-2.345l0.003-11.149l11.14,0.002l3.23-3.232
		V63.451h15.013l7.066-7.075c11.211,6.194,23.269,6.371,30.196-0.557c5.185-5.184,6.389-13.245,4.072-21.666
		C98.222,28.439,95.877,17.309,87.578,9.009z M73.261,32.042l-5.073,7.684l-2.453-8.874l-8.874-2.453l7.684-5.072l-0.413-9.198
		l7.201,5.74l8.621-3.233l-3.233,8.621l5.739,7.199L73.261,32.042z"/>
</g>
<g id="Layer_2">
</g>
</svg>
