<?xml version="1.0" encoding="utf-8"?>
<!-- Generator: Adobe Illustrator 16.0.0, SVG Export Plug-In . SVG Version: 6.00 Build 0)  -->
<!DOCTYPE svg PUBLIC "-//W3C//DTD SVG 1.1//EN" "http://www.w3.org/Graphics/SVG/1.1/DTD/svg11.dtd">
<svg version="1.1" id="Layer_1" xmlns="http://www.w3.org/2000/svg" xmlns:xlink="http://www.w3.org/1999/xlink" x="0px" y="0px"
	 width="96px" height="96px" viewBox="0 0 96 96" enable-background="new 0 0 96 96" xml:space="preserve">
<g>
	<path d="M8.059,40.384c-3.947,3.947-4.984,9.31-2.318,11.977c2.67,2.668,8.031,1.631,11.977-2.315
		c3.947-3.947,4.984-9.31,2.316-11.978S12.006,36.437,8.059,40.384z"/>
	<path d="M49.436,85.279h-8.078l-1.848-1.851V72.681H28.762l-5.518-5.518c-7.482,4.273-15.613,4.466-20.26-0.181
		c-0.617-0.618-1.131-1.312-1.578-2.044v3.771v25.886h48.021L49.436,85.279z"/>
	<path d="M94.596,27.292c0-14.297-11.59-25.886-25.887-25.886L1.406,1.408v37.477c0.678-0.979,1.451-1.926,2.338-2.813
		c5.621-5.623,13.471-7.115,18.652-3.912c4.799-0.832,9.258,0.148,12.26,3.15c4.646,4.647,4.453,12.779,0.18,20.262l28.512,28.51
		v10.515h31.248V27.292z"/>
</g>
</svg>
