<?xml version="1.0" encoding="utf-8"?>
<!-- Generator: Adobe Illustrator 16.0.0, SVG Export Plug-In . SVG Version: 6.00 Build 0)  -->
<!DOCTYPE svg PUBLIC "-//W3C//DTD SVG 1.1//EN" "http://www.w3.org/Graphics/SVG/1.1/DTD/svg11.dtd">
<svg version="1.1" id="Layer_1" xmlns="http://www.w3.org/2000/svg" xmlns:xlink="http://www.w3.org/1999/xlink" x="0px" y="0px"
	 width="96px" height="96px" viewBox="0 0 96 96" enable-background="new 0 0 96 96" xml:space="preserve">
<g>
	<path d="M1,1.001v67.887V95h94V27.111C95,12.69,83.31,1,68.889,1L1,1.001z M70.853,83.098c-9.817,0-14.726-7.085-14.726-21.902
		c0-5.825,1.024-10.231,3.073-13.864c2.554-4.495,6.51-6.743,11.869-6.743c9.852,0,14.779,6.654,14.779,20.606
		C85.849,76.013,80.85,83.098,70.853,83.098z"/>
	<path d="M70.961,47.063c-4.244,0-6.312,4.748-6.204,14.889c0.108,9.997,2.177,14.673,6.204,14.673c4.17,0,6.256-4.748,6.256-14.889
		C77.217,51.739,75.131,47.063,70.961,47.063z"/>
</g>
</svg>
