<?xml version="1.0" encoding="utf-8"?>
<!-- Generator: Adobe Illustrator 18.0.0, SVG Export Plug-In . SVG Version: 6.00 Build 0)  -->
<!DOCTYPE svg PUBLIC "-//W3C//DTD SVG 1.1//EN" "http://www.w3.org/Graphics/SVG/1.1/DTD/svg11.dtd">
<svg version="1.1" id="Capa_1" xmlns="http://www.w3.org/2000/svg" xmlns:xlink="http://www.w3.org/1999/xlink" x="0px" y="0px"
	 viewBox="0 0 96 96" enable-background="new 0 0 96 96" xml:space="preserve">
<g id="Layer_1">
	<g>
		<g>
			<path d="M1.9,16v64h92.3V16H1.9z M53.4,33.6c0.7,0,1.3,0.1,1.9,0.3c0.5-1.7,2.3-3.1,4.5-3.3c-0.2,0.4-0.3,0.9-0.3,1.4
				c0,2.4,2.4,4.3,5.4,4.3c1,0,2-0.2,2.8-0.6c0.9,1.5,2.7,2.5,4.9,2.5c0.2,0,0.5,0,0.7,0c-0.1,2.3-2.5,4.2-5.4,4.2
				c-0.8,0-1.5-0.1-2.2-0.4c-0.9,1.3-2.7,2.2-4.7,2.2c-2.2,0-4-1-4.9-2.5c-0.8,0.4-1.8,0.6-2.8,0.6c-3,0-5.4-1.9-5.4-4.3
				S50.4,33.6,53.4,33.6z M10.6,29.5c0-4.6,3.7-8.3,8.3-8.3c4.6,0,8.3,3.7,8.3,8.3c0,4.6-3.7,8.3-8.3,8.3
				C14.3,37.7,10.6,34,10.6,29.5z M81.5,74.8H14.3v-2.1h0.5c3.4-0.9,5.1-4.2,7-7.7c1.8-3.3,3.6-6.7,7-8.2c4.6-2,7.8,1.1,10.2,3.5
				c0.7,0.7,1.3,1.3,1.9,1.8c1.3,1.1,2.5,1.5,3.4,1.3c1.8-0.4,3.4-3.2,4.8-5.9c1.9-3.5,3.9-7.2,7.4-7.8c2.3-0.4,4.7,0.5,7.4,2.9
				c2.7,2.4,5.1,5.8,7.3,9.2c3,4.5,6.1,9.1,10.2,11L81.5,74.8L81.5,74.8z M81.4,34.4c-0.8,0-1.5-0.1-2.2-0.4
				c-0.9,1.3-2.7,2.2-4.7,2.2c-2.2,0-4-1-4.9-2.5c-0.8,0.4-1.8,0.6-2.8,0.6c-3,0-5.4-1.9-5.4-4.3c0-2.4,2.4-4.3,5.4-4.3
				c0.7,0,1.3,0.1,1.9,0.3c0.5-1.9,2.7-3.4,5.3-3.4c2.6,0,4.8,1.5,5.3,3.4c0.6-0.2,1.3-0.3,2.1-0.3c3,0,5.4,1.9,5.4,4.3
				C86.8,32.5,84.4,34.4,81.4,34.4z"/>
		</g>
	</g>
</g>
<g id="Layer_2">
</g>
</svg>
