<?xml version="1.0" encoding="utf-8"?>
<!-- Generator: Adobe Illustrator 16.0.0, SVG Export Plug-In . SVG Version: 6.00 Build 0)  -->
<!DOCTYPE svg PUBLIC "-//W3C//DTD SVG 1.1//EN" "http://www.w3.org/Graphics/SVG/1.1/DTD/svg11.dtd">
<svg version="1.1" id="Layer_1" xmlns="http://www.w3.org/2000/svg" xmlns:xlink="http://www.w3.org/1999/xlink" x="0px" y="0px"
	 width="96px" height="96px" viewBox="0 0 96 96" enable-background="new 0 0 96 96" xml:space="preserve">
<g>
	<path d="M17.637,57.455V18.494c2.469-0.472,7.167-0.801,11.513-0.801c5.791,0,8.965,0.604,11.736,2.244
		c2.985,1.587,4.696,4.383,4.696,7.67c0,0.389-0.033,0.767-0.08,1.138H62.88v-16.53H1.701v51.289h26.576v-5.499
		c-0.345,0.007-0.668,0.022-1.024,0.022C22.407,58.027,19.193,57.678,17.637,57.455z"/>
	<path d="M36.837,28.732c0-3.085-2.331-4.783-6.562-4.783c-1.373,0-2.498,0.059-3.441,0.178l-0.572,0.072v9.615h2.015v-5.069h8.56
		C36.836,28.741,36.837,28.737,36.837,28.732z"/>
	<path d="M26.262,51.531l0.599,0.051c0.419,0.036,0.889,0.054,1.416,0.062V39.951h-2.015V51.531z"/>
	<polygon points="64.462,47.811 63.094,47.818 58.666,61.144 68.864,61.144 	"/>
	<path d="M33.12,32.496v51.289h61.18V32.496H33.12z M72.678,77.347l-1.953-7.425H56.809l-2.006,7.425H44.504l12.483-38.414h13.289
		l12.638,38.414H72.678z"/>
</g>
</svg>
