<?xml version="1.0" encoding="utf-8"?>
<!-- Generator: Adobe Illustrator 16.0.0, SVG Export Plug-In . SVG Version: 6.00 Build 0)  -->
<!DOCTYPE svg PUBLIC "-//W3C//DTD SVG 1.1//EN" "http://www.w3.org/Graphics/SVG/1.1/DTD/svg11.dtd">
<svg version="1.1" id="Layer_1" xmlns="http://www.w3.org/2000/svg" xmlns:xlink="http://www.w3.org/1999/xlink" x="0px" y="0px"
	 width="96px" height="96px" viewBox="0 0 96 96" enable-background="new 0 0 96 96" xml:space="preserve">
<g>
	<path d="M33.791,27.523c-0.617-2.491-1.023-4.275-1.221-5.354c-0.174,1-0.523,2.647-1.043,4.942
		c-0.521,2.295-1.672,6.816-3.457,13.563h9.15l-1.854-7.061C34.936,32.044,34.41,30.014,33.791,27.523z"/>
	<path d="M68.557,1.751L1.75,1.752v92.499h92.5V27.446C94.25,13.255,82.746,1.751,68.557,1.751z M41.752,58.267l-2.119-8.061H25.658
		l-2.178,8.061H10.713l14.033-43.189H40.25l14.209,43.189H41.752z"/>
</g>
</svg>
