<?xml version="1.0" encoding="utf-8"?>
<!-- Generator: Adobe Illustrator 16.0.0, SVG Export Plug-In . SVG Version: 6.00 Build 0)  -->
<!DOCTYPE svg PUBLIC "-//W3C//DTD SVG 1.1//EN" "http://www.w3.org/Graphics/SVG/1.1/DTD/svg11.dtd">
<svg version="1.1" id="Layer_1" xmlns="http://www.w3.org/2000/svg" xmlns:xlink="http://www.w3.org/1999/xlink" x="0px" y="0px"
	 width="96px" height="96px" viewBox="0 0 96 96" enable-background="new 0 0 96 96" xml:space="preserve">
<g>
	<path d="M27.288,18.288h-4.764v14.747h3.646c3.519,0,6.101-0.612,7.746-1.835c1.645-1.225,2.468-3.137,2.468-5.739
		c0-2.409-0.737-4.207-2.21-5.394C32.701,18.883,30.406,18.288,27.288,18.288z"/>
	<path d="M68.613,1.619L1.619,1.62v66.993v25.768h92.762V27.387C94.381,13.155,82.845,1.619,68.613,1.619z M39.139,35.303
		c-2.87,2.334-6.954,3.5-12.252,3.5h-4.362v15.694h-6.856V12.55h12.079c5.24,0,9.166,1.072,11.778,3.212
		c2.61,2.143,3.916,5.3,3.916,9.471C43.441,29.612,42.008,32.97,39.139,35.303z M63.682,85.227
		c-11.507,0-20.835-9.328-20.835-20.835c0-11.506,9.328-20.835,20.835-20.835v21.728l19.215,7.176
		C79.742,79.96,72.328,85.227,63.682,85.227z M87.068,68.727l-19.213-7.175V39.823c11.506,0,20.835,9.328,20.835,20.834
		C88.69,63.52,88.112,66.244,87.068,68.727z"/>
</g>
</svg>
