<?xml version="1.0" encoding="utf-8"?>
<!-- Generator: Adobe Illustrator 16.0.0, SVG Export Plug-In . SVG Version: 6.00 Build 0)  -->
<!DOCTYPE svg PUBLIC "-//W3C//DTD SVG 1.1//EN" "http://www.w3.org/Graphics/SVG/1.1/DTD/svg11.dtd">
<svg version="1.1" id="Layer_1" xmlns="http://www.w3.org/2000/svg" xmlns:xlink="http://www.w3.org/1999/xlink" x="0px" y="0px"
	 width="96px" height="96px" viewBox="0 0 96 96" enable-background="new 0 0 96 96" xml:space="preserve">
<g>
	<path d="M48.232,2.003c-0.031-0.001-0.062-0.01-0.094-0.01c-0.047,0-0.092,0.004-0.139,0.004s-0.092-0.004-0.139-0.004
		c-0.032,0-0.063,0.009-0.095,0.01c-13.228,0.201-23.93,11.018-23.93,24.292c0,4.145,2.169,8.12,4.682,12.722
		c3.534,6.476,7.934,14.536,7.934,26.235h23.096c0-11.7,4.399-19.76,7.935-26.235c2.511-4.602,4.681-8.577,4.681-12.722
		C72.163,13.021,61.461,2.204,48.232,2.003z M63.029,36.585c-3.121,5.717-7.239,13.259-8.299,23.593H41.269
		c-1.06-10.331-5.176-17.875-8.297-23.593c-2.179-3.991-4.062-7.439-4.062-10.29c0-10.438,8.494-19.06,18.934-19.219l0.041,0
		l0.041-0.001c0.022,0,0.045-0.001,0.067-0.002l0.081,0.002l0.041,0.001l0.041,0c10.439,0.159,18.932,8.78,18.932,19.219
		C67.088,29.145,65.206,32.593,63.029,36.585z"/>
	<path d="M59.548,68.407H36.452c-1.537,0-2.782,1.245-2.782,2.782V87.05c0,1.537,1.245,2.783,2.782,2.783h1.392v1.391
		c0,1.537,1.246,2.783,2.782,2.783h14.471c1.536,0,2.782-1.246,2.782-2.783v-1.391h1.669c1.537,0,2.782-1.246,2.782-2.783V71.189
		C62.33,69.652,61.085,68.407,59.548,68.407z"/>
</g>
</svg>
