<?xml version="1.0" encoding="utf-8"?>
<!-- Generator: Adobe Illustrator 16.0.0, SVG Export Plug-In . SVG Version: 6.00 Build 0)  -->
<!DOCTYPE svg PUBLIC "-//W3C//DTD SVG 1.1//EN" "http://www.w3.org/Graphics/SVG/1.1/DTD/svg11.dtd">
<svg version="1.1" id="Layer_1" xmlns="http://www.w3.org/2000/svg" xmlns:xlink="http://www.w3.org/1999/xlink" x="0px" y="0px"
	 width="96px" height="96px" viewBox="0 0 96 96" enable-background="new 0 0 96 96" xml:space="preserve">
<g>
	<path d="M48.237,1.209c-0.032-0.001-0.063-0.01-0.097-0.01c-0.047,0-0.094,0.005-0.141,0.005s-0.094-0.005-0.141-0.005
		c-0.034,0-0.064,0.009-0.097,0.01C34.308,1.414,23.42,12.417,23.42,25.921c0,4.216,2.207,8.26,4.763,12.941
		c3.595,6.587,8.07,14.786,8.07,26.688h23.494c0-11.901,4.476-20.101,8.071-26.688c2.555-4.682,4.762-8.726,4.762-12.941
		C72.58,12.417,61.692,1.414,48.237,1.209z"/>
	<path d="M59.747,68.759H36.253c-1.563,0-2.831,1.267-2.831,2.831v16.134c0,1.564,1.268,2.831,2.831,2.831h1.415v1.415
		c0,1.563,1.268,2.831,2.831,2.831h14.72c1.563,0,2.83-1.268,2.83-2.831v-1.415h1.698c1.563,0,2.831-1.267,2.831-2.831V71.589
		C62.578,70.026,61.311,68.759,59.747,68.759z"/>
</g>
</svg>
