<?xml version="1.0" encoding="utf-8"?>
<!-- Generator: Adobe Illustrator 16.0.0, SVG Export Plug-In . SVG Version: 6.00 Build 0)  -->
<!DOCTYPE svg PUBLIC "-//W3C//DTD SVG 1.1//EN" "http://www.w3.org/Graphics/SVG/1.1/DTD/svg11.dtd">
<svg version="1.1" id="Layer_1" xmlns="http://www.w3.org/2000/svg" xmlns:xlink="http://www.w3.org/1999/xlink" x="0px" y="0px"
	 width="96px" height="96px" viewBox="0 0 96 96" enable-background="new 0 0 96 96" xml:space="preserve">
<g>
	<path d="M11.969,1.099v70.747h72.063V1.099H11.969z M77.294,65.107H18.706V7.837h58.588V65.107z"/>
	<polygon points="47.83,94.901 56.582,76.576 39.418,76.548 	"/>
	<path d="M37.668,39.319c1.908,1.909,4.694,2.41,7.069,1.515c-0.896,2.375-0.395,5.161,1.514,7.069l8.821,8.821
		c2.599,2.598,6.824,2.598,9.423,0l2.658-2.658c2.598-2.598,2.598-6.825,0-9.422l-8.821-8.822c-1.908-1.908-4.694-2.409-7.069-1.514
		c0.896-2.375,0.395-5.162-1.514-7.069l-8.821-8.821c-2.598-2.598-6.825-2.598-9.423,0l-2.658,2.657
		c-2.598,2.598-2.598,6.825,0,9.423L37.668,39.319z M54.334,41.004l-3.124-3.123c1.407-1.278,3.589-1.243,4.947,0.115l8.821,8.821
		c1.398,1.399,1.398,3.675,0,5.074l-2.657,2.658c-1.399,1.399-3.676,1.399-5.074,0l-8.821-8.821
		c-1.358-1.358-1.395-3.541-0.114-4.947l3.123,3.123c0.799,0.8,2.101,0.8,2.899,0C55.133,43.105,55.133,41.804,54.334,41.004z
		 M31.021,23.25l2.657-2.658c1.399-1.399,3.675-1.399,5.074,0l8.821,8.821c1.358,1.357,1.394,3.541,0.115,4.946l-3.043-3.042
		c-0.8-0.799-2.101-0.799-2.899,0c-0.8,0.799-0.8,2.1,0,2.899l3.043,3.043c-1.406,1.278-3.589,1.243-4.947-0.115l-8.821-8.821
		C29.623,26.925,29.623,24.649,31.021,23.25z"/>
</g>
</svg>
