<?xml version="1.0" encoding="utf-8"?>
<!-- Generator: Adobe Illustrator 16.0.0, SVG Export Plug-In . SVG Version: 6.00 Build 0)  -->
<!DOCTYPE svg PUBLIC "-//W3C//DTD SVG 1.1//EN" "http://www.w3.org/Graphics/SVG/1.1/DTD/svg11.dtd">
<svg version="1.1" id="Layer_1" xmlns="http://www.w3.org/2000/svg" xmlns:xlink="http://www.w3.org/1999/xlink" x="0px" y="0px"
	 width="96px" height="96px" viewBox="0 0 96 96" enable-background="new 0 0 96 96" xml:space="preserve">
<g>
	<path d="M80.582,58.08c-0.454-4.842-3.049-9.059-6.814-11.727V28.936v-6.701l-3.746-7.354l3.324-6.32
		c0.354-0.67,0.33-1.477-0.061-2.123c-0.393-0.648-1.094-1.045-1.85-1.045H14.02c-1.191,0-2.158,0.967-2.158,2.162l0.051,80.305
		h10.369V22.234H16.18V9.713h51.68l-2.186,4.152c-0.328,0.623-0.332,1.369-0.006,1.998l3.295,6.371h-42.43v65.625h7.914h6.818h4.139
		c0.952,1.641,2.723,2.748,4.756,2.748h28.479c3.037,0,5.5-2.463,5.5-5.5V63.227C84.139,60.873,82.66,58.865,80.582,58.08z
		 M78.793,85.066H50.314V63.186h3.484v-3.617c0-5.93,4.824-10.754,10.754-10.754c5.931,0,10.755,4.824,10.755,10.754v3.617h3.485
		V85.066z"/>
	<path d="M64.553,53.279c-3.468,0-6.289,2.822-6.289,6.289v3.617h12.578v-3.617C70.842,56.102,68.021,53.279,64.553,53.279z"/>
	<path d="M64.553,71.172c-1.749,0-3.168,1.418-3.168,3.168c0,1.084,0.547,2.043,1.379,2.613v4.838h3.579v-4.838
		c0.833-0.57,1.379-1.529,1.379-2.613C67.722,72.59,66.303,71.172,64.553,71.172z"/>
</g>
</svg>
