<?xml version="1.0" encoding="utf-8"?>
<!-- Generator: Adobe Illustrator 16.0.0, SVG Export Plug-In . SVG Version: 6.00 Build 0)  -->
<!DOCTYPE svg PUBLIC "-//W3C//DTD SVG 1.1//EN" "http://www.w3.org/Graphics/SVG/1.1/DTD/svg11.dtd">
<svg version="1.1" id="Layer_1" xmlns="http://www.w3.org/2000/svg" xmlns:xlink="http://www.w3.org/1999/xlink" x="0px" y="0px"
	 width="96px" height="96px" viewBox="0 0 96 96" enable-background="new 0 0 96 96" xml:space="preserve">
<g>
	<path d="M72.975,52.467c-3.467,0-6.289,2.82-6.289,6.289v3.615h12.578v-3.615C79.264,55.287,76.443,52.467,72.975,52.467z"/>
	<path d="M72.975,70.357c-1.748,0-3.168,1.418-3.168,3.168c0,1.086,0.547,2.043,1.379,2.613v4.838h3.58v-4.838
		c0.832-0.57,1.379-1.527,1.379-2.613C76.145,71.775,74.725,70.357,72.975,70.357z"/>
	<path d="M89.158,56.871c-0.773-8.25-7.736-14.725-16.182-14.725v-5.359c0-0.316-0.066-0.627-0.129-0.939
		c-1.326,6.578-16.344,11.764-34.717,11.764S4.74,42.426,3.414,35.848c-0.063,0.313-0.129,0.623-0.129,0.939v16.279
		c0,7.02,15.602,12.705,34.846,12.705c5.412,0,10.535-0.449,15.105-1.252v6.363c-4.568,0.805-9.689,1.258-15.105,1.258
		c-18.373,0-33.391-5.189-34.717-11.764C3.352,60.688,3.285,61,3.285,61.316v16.279c0,7.02,15.602,12.707,34.846,12.707
		c6.453,0,12.492-0.643,17.674-1.758c0.85,0.537,1.854,0.854,2.932,0.854h28.479c3.037,0,5.5-2.463,5.5-5.5V62.018
		C92.715,59.664,91.236,57.656,89.158,56.871z M87.215,84.252H58.736V62.371h3.484v-3.615C62.221,52.824,67.045,48,72.975,48
		c5.932,0,10.756,4.824,10.756,10.756v3.615h3.484V84.252z"/>
	<path d="M38.131,41.537c19.244,0,34.846-5.688,34.846-12.707V18.404c0-7.02-15.602-12.705-34.846-12.705S3.285,11.385,3.285,18.404
		V28.83C3.285,35.85,18.887,41.537,38.131,41.537z"/>
</g>
</svg>
