<?xml version="1.0" encoding="utf-8"?>
<!-- Generator: Adobe Illustrator 16.0.0, SVG Export Plug-In . SVG Version: 6.00 Build 0)  -->
<!DOCTYPE svg PUBLIC "-//W3C//DTD SVG 1.1//EN" "http://www.w3.org/Graphics/SVG/1.1/DTD/svg11.dtd">
<svg version="1.1" id="Layer_1" xmlns="http://www.w3.org/2000/svg" xmlns:xlink="http://www.w3.org/1999/xlink" x="0px" y="0px"
	 width="96px" height="96px" viewBox="0 0 96 96" enable-background="new 0 0 96 96" xml:space="preserve">
<g>
	<polygon points="61.932,1.122 58.826,9.994 77.461,22.86 	"/>
	<path d="M84.793,61.5c-0.648-5.783-4.255-10.681-9.264-13.152V29.392L51.402,12.733l3.832-10.949H7.617v93.095h46.287h21.625h6.854
		c3.313,0,6-2.687,6-6V66.997C88.383,64.54,86.906,62.428,84.793,61.5z M82.383,89.063H53.904V67.181h3.484v-3.616
		c0-5.93,4.824-10.755,10.754-10.755c5.931,0,10.755,4.825,10.755,10.755v3.616h3.485V89.063z"/>
	<path d="M68.143,75.167c-1.749,0-3.168,1.418-3.168,3.168c0,1.085,0.547,2.042,1.379,2.613v4.838h3.579v-4.838
		c0.833-0.571,1.379-1.528,1.379-2.613C71.312,76.586,69.893,75.167,68.143,75.167z"/>
	<path d="M68.143,57.276c-3.468,0-6.289,2.821-6.289,6.289v3.616h12.578v-3.616C74.432,60.097,71.611,57.276,68.143,57.276z"/>
</g>
</svg>
