<?xml version="1.0" encoding="utf-8"?>
<!-- Generator: Adobe Illustrator 16.0.0, SVG Export Plug-In . SVG Version: 6.00 Build 0)  -->
<!DOCTYPE svg PUBLIC "-//W3C//DTD SVG 1.1//EN" "http://www.w3.org/Graphics/SVG/1.1/DTD/svg11.dtd">
<svg version="1.1" id="Layer_1" xmlns="http://www.w3.org/2000/svg" xmlns:xlink="http://www.w3.org/1999/xlink" x="0px" y="0px"
	 width="96px" height="96px" viewBox="0 0 96 96" enable-background="new 0 0 96 96" xml:space="preserve">
<path d="M70.935,95.609l18.698-15.07L77.439,65.408c0.038-0.062,0.079-0.115,0.116-0.175l3.461-6.192
	c10.097-18.174,5.716-52.762,5.716-52.762c-0.228-2.263-0.497-3.388-0.497-3.388L65.002,7.359c0,0,0.418,1.162,1.148,3.194
	c0,0,9.833,29.653,7.471,50.116L25.065,0.391L6.367,15.461l12.193,15.131c-0.038,0.062-0.079,0.115-0.116,0.175l-3.461,6.192
	C4.887,55.133,9.267,89.721,9.267,89.721c0.228,2.263,0.497,3.388,0.497,3.388l21.234-4.468c0,0-0.418-1.162-1.148-3.194
	c0,0-9.833-29.653-7.471-50.116L70.935,95.609z"/>
</svg>
