<?xml version="1.0" encoding="utf-8"?>
<!-- Generator: Adobe Illustrator 16.0.0, SVG Export Plug-In . SVG Version: 6.00 Build 0)  -->
<!DOCTYPE svg PUBLIC "-//W3C//DTD SVG 1.1//EN" "http://www.w3.org/Graphics/SVG/1.1/DTD/svg11.dtd">
<svg version="1.1" id="Layer_1" xmlns="http://www.w3.org/2000/svg" xmlns:xlink="http://www.w3.org/1999/xlink" x="0px" y="0px"
	 width="96px" height="96px" viewBox="0 0 96 96" enable-background="new 0 0 96 96" xml:space="preserve">
<g>
	<path d="M3.39,92.609c2.083,2.083,5.458,2.083,7.541,0l34.57-34.567c0.14-0.143,0.247-0.302,0.37-0.455
		c11.967,8.415,28.635,7.307,39.327-3.386c11.966-11.965,11.966-31.434,0-43.399c-11.967-11.964-31.437-11.964-43.399,0
		C31.106,21.493,29.997,38.161,38.41,50.128c-0.148,0.123-0.31,0.23-0.455,0.372L3.39,85.067C1.307,87.151,1.307,90.526,3.39,92.609
		z M42.306,32.258c0-11.821,9.585-21.403,21.402-21.403c11.82,0,21.404,9.582,21.404,21.403c0,11.82-9.583,21.402-21.404,21.402
		C51.891,53.661,42.306,44.079,42.306,32.258z"/>
	<polygon points="58.992,14.798 73.014,32.316 58.931,49.834 58.99,38.569 63.25,32.348 58.99,26.063 	"/>
</g>
</svg>
