<?xml version="1.0" encoding="utf-8"?>
<!-- Generator: Adobe Illustrator 16.0.0, SVG Export Plug-In . SVG Version: 6.00 Build 0)  -->
<!DOCTYPE svg PUBLIC "-//W3C//DTD SVG 1.1//EN" "http://www.w3.org/Graphics/SVG/1.1/DTD/svg11.dtd">
<svg version="1.1" id="Layer_1" xmlns="http://www.w3.org/2000/svg" xmlns:xlink="http://www.w3.org/1999/xlink" x="0px" y="0px"
	 width="96px" height="96px" viewBox="0 0 96 96" enable-background="new 0 0 96 96" xml:space="preserve">
<g>
	<path d="M91.996,70.133c-0.709-1.463-2.193-2.395-3.82-2.395h-5.066V53.334c0-2.344-1.898-4.244-4.244-4.244H70.18
		c-2.344,0-4.244,1.9-4.244,4.244v2.283l-6.694-3.084l-4.947-4.17l-8.502,8.455l-8.523-8.455l-4.947,4.17l-10.299,4.742
		c-1.523,0.625-2.875,1.705-3.781,3.227l-14.66,24.51h62.189l5.425,6.857c0.805,1.018,2.029,1.611,3.328,1.611
		c1.297,0,2.521-0.594,3.328-1.611l13.652-17.254C92.512,73.34,92.705,71.6,91.996,70.133z M74.523,89.236l-13.65-17.254h9.307
		V53.334h8.686v18.648h9.311L74.523,89.236z"/>
	<path d="M45.726,49.383v0.002c0.008,0,0.02-0.002,0.029-0.002c0.004,0,0.012,0.002,0.02,0.002c0,0,0.004,0,0.006,0
		c0.004,0,0.006,0,0.008,0c0.006,0,0.014-0.002,0.02-0.002c0.01,0,0.02,0.002,0.029,0.002v-0.002
		c12.004,0.182,19.301-10.324,19.49-27.646C65.448,9.719,57.995,2.848,45.858,2.523V2.52c-0.02,0-0.033,0.002-0.051,0.002V2.52
		c-0.012,0-0.02,0-0.027,0.002C45.772,2.52,45.763,2.52,45.755,2.52v0.002c-0.02,0-0.033-0.002-0.049-0.002v0.004
		C33.567,2.848,26.114,9.719,26.235,21.736C26.423,39.059,33.72,49.564,45.726,49.383z"/>
</g>
</svg>
