<?xml version="1.0" encoding="utf-8"?>
<!-- Generator: Adobe Illustrator 16.0.0, SVG Export Plug-In . SVG Version: 6.00 Build 0)  -->
<!DOCTYPE svg PUBLIC "-//W3C//DTD SVG 1.1//EN" "http://www.w3.org/Graphics/SVG/1.1/DTD/svg11.dtd">
<svg version="1.1" id="Layer_1" xmlns="http://www.w3.org/2000/svg" xmlns:xlink="http://www.w3.org/1999/xlink" x="0px" y="0px"
	 width="96px" height="96px" viewBox="0 0 96 96" enable-background="new 0 0 96 96" xml:space="preserve">
<g>
	<path d="M92.959,70.107L75.704,56.455c-1.275-1.008-3.016-1.201-4.481-0.492c-1.464,0.709-2.395,2.193-2.395,3.82v0.434
		c-0.458-0.309-0.935-0.584-1.44-0.791l-10.297-4.742l-4.947-4.17l-8.502,8.455l-8.523-8.455l-4.947,4.17l-10.298,4.742
		c-1.523,0.625-2.875,1.705-3.781,3.227L1.431,87.162h67.402c0.028,1.596,0.948,3.047,2.39,3.744
		c0.588,0.285,1.22,0.424,1.848,0.424c0.938,0,1.869-0.311,2.634-0.914l17.255-13.652c1.017-0.805,1.61-2.029,1.61-3.328
		C94.569,72.139,93.976,70.914,92.959,70.107z M73.071,87.086v-9.307H54.423v-8.686h18.648v-9.311l17.254,13.652L73.071,87.086z"/>
	<path d="M43.575,51.533v0.002c0.009,0,0.02-0.002,0.029-0.002c0.005,0,0.013,0.002,0.02,0.002c0.001,0,0.004,0,0.007,0
		s0.006,0,0.007,0c0.007,0,0.015-0.002,0.02-0.002c0.01,0,0.02,0.002,0.029,0.002v-0.002c12.005,0.182,19.302-10.324,19.49-27.646
		c0.121-12.018-7.331-18.889-19.469-19.213V4.67c-0.019,0-0.032,0.002-0.051,0.002V4.67c-0.011,0-0.019,0-0.026,0.002
		C43.623,4.67,43.613,4.67,43.604,4.67v0.002c-0.019,0-0.033-0.002-0.049-0.002v0.004c-12.138,0.324-19.592,7.195-19.471,19.213
		C24.273,41.209,31.57,51.715,43.575,51.533z"/>
</g>
</svg>
