<?xml version="1.0" encoding="utf-8"?>
<!-- Generator: Adobe Illustrator 16.0.0, SVG Export Plug-In . SVG Version: 6.00 Build 0)  -->
<!DOCTYPE svg PUBLIC "-//W3C//DTD SVG 1.1//EN" "http://www.w3.org/Graphics/SVG/1.1/DTD/svg11.dtd">
<svg version="1.1" id="Layer_1" xmlns="http://www.w3.org/2000/svg" xmlns:xlink="http://www.w3.org/1999/xlink" x="0px" y="0px"
	 width="96px" height="96px" viewBox="0 0 96 96" enable-background="new 0 0 96 96" xml:space="preserve">
<g>
	<path d="M91.505,67.955L77.853,50.701c-0.805-1.018-2.029-1.611-3.328-1.611c-1.297,0-2.521,0.594-3.328,1.611L66.94,56.08
		l-7.7-3.547l-4.947-4.17l-8.502,8.455l-8.523-8.455l-4.947,4.17l-10.298,4.742c-1.523,0.625-2.875,1.705-3.781,3.227L3.581,85.012
		h62.358v4.225c0,2.344,1.898,4.244,4.244,4.244h8.686c2.344,0,4.244-1.9,4.244-4.244V74.832h5.063c1.627,0,3.111-0.932,3.82-2.395
		c0.285-0.588,0.424-1.221,0.424-1.848C92.419,69.65,92.109,68.721,91.505,67.955z M78.869,70.588v18.648h-8.686V70.588h-9.311
		l13.652-17.254l13.65,17.254H78.869z"/>
	<path d="M45.725,49.383v0.002c0.009,0,0.02-0.002,0.029-0.002c0.005,0,0.013,0.002,0.02,0.002c0.001,0,0.004,0,0.007,0
		s0.006,0,0.007,0c0.007,0,0.015-0.002,0.02-0.002c0.01,0,0.02,0.002,0.029,0.002v-0.002c12.005,0.182,19.302-10.324,19.49-27.646
		C65.448,9.719,57.996,2.848,45.858,2.523V2.52c-0.019,0-0.032,0.002-0.051,0.002V2.52c-0.011,0-0.019,0-0.026,0.002
		C45.773,2.52,45.763,2.52,45.754,2.52v0.002c-0.019,0-0.033-0.002-0.049-0.002v0.004C33.568,2.848,26.114,9.719,26.235,21.736
		C26.423,39.059,33.72,49.564,45.725,49.383z"/>
</g>
</svg>
