<?xml version="1.0" encoding="utf-8"?>
<!-- Generator: Adobe Illustrator 16.0.4, SVG Export Plug-In . SVG Version: 6.00 Build 0)  -->
<!DOCTYPE svg PUBLIC "-//W3C//DTD SVG 1.1//EN" "http://www.w3.org/Graphics/SVG/1.1/DTD/svg11.dtd">
<svg version="1.1" id="Layer_1" xmlns="http://www.w3.org/2000/svg" xmlns:xlink="http://www.w3.org/1999/xlink" x="0px" y="0px"
	 width="96px" height="96px" viewBox="0 0 96 96" enable-background="new 0 0 96 96" xml:space="preserve">
<path d="M79.794,59.875l3.59,3.59L65.941,80.906l-3.59-3.59L79.794,59.875z M93.318,69.875c0,11.166-9.084,20.25-20.25,20.25
	c-2.92,0-5.69-0.636-8.198-1.758H2.681l14.662-24.51c0.906-1.521,2.258-2.602,3.781-3.227l10.298-4.742l4.947-4.17l8.523,8.455
	l8.502-8.455l5.039,4.213c3.691-3.873,8.877-6.307,14.635-6.307C84.234,49.625,93.318,58.709,93.318,69.875z M87.318,69.875
	c0-7.857-6.393-14.25-14.25-14.25c-7.856,0-14.25,6.393-14.25,14.25s6.394,14.25,14.25,14.25
	C80.926,84.125,87.318,77.732,87.318,69.875z M44.826,52.738v0.002c0.009,0,0.02-0.002,0.029-0.002c0.005,0,0.013,0.002,0.02,0.002
	c0.001,0,0.004,0,0.007,0s0.006,0,0.007,0c0.007,0,0.015-0.002,0.02-0.002c0.01,0,0.02,0.002,0.029,0.002v-0.002
	c12.005,0.182,19.302-10.324,19.49-27.646c0.121-12.018-7.33-18.889-19.469-19.213V5.875c-0.019,0-0.032,0.002-0.051,0.002V5.875
	c-0.011,0-0.019,0-0.026,0.002c-0.008-0.002-0.018-0.002-0.026-0.002v0.002c-0.019,0-0.033-0.002-0.049-0.002v0.004
	c-12.138,0.324-19.592,7.195-19.471,19.213C25.524,42.414,32.821,52.92,44.826,52.738z"/>
</svg>
