<?xml version="1.0" encoding="utf-8"?>
<!-- Generator: Adobe Illustrator 16.0.0, SVG Export Plug-In . SVG Version: 6.00 Build 0)  -->
<!DOCTYPE svg PUBLIC "-//W3C//DTD SVG 1.1//EN" "http://www.w3.org/Graphics/SVG/1.1/DTD/svg11.dtd">
<svg version="1.1" id="Layer_1" xmlns="http://www.w3.org/2000/svg" xmlns:xlink="http://www.w3.org/1999/xlink" x="0px" y="0px"
	 width="96px" height="96px" viewBox="0 0 96 96" enable-background="new 0 0 96 96" xml:space="preserve">
<path d="M84.524,27.377v-9.28h9.609v-4.95h-9.609v-9.28h-6.767v4.95H17.005v-4.95h-6.768v9.28H1.866v4.95h8.371v9.28h6.768v-4.949
	h6.505c-1.306,5.662-2.224,14.693,1.817,23.449c4.729,10.247-1.382,24.477-2.324,27.696h-5.998v-4.95h-6.768v9.28H1.866v4.95h8.371
	v9.28h6.768v-4.95h60.753v4.95h6.767v-9.28h9.609v-4.95h-9.609v-9.28h-6.767v4.95h-6.351c1.476-5.679,6.693-18.489,1.52-30.289
	c-3.478-7.93-2.26-16.322-1.043-20.856h5.874v4.949H84.524z M67.309,45.876c4.729,10.247-1.382,24.477-2.323,27.696H29.425
	c1.477-5.679,6.551-18.031,1.52-30.289c-3.288-8.01-2.259-16.322-1.042-20.856h35.589C64.185,28.089,63.269,37.121,67.309,45.876z"
	/>
</svg>
