<?xml version="1.0" encoding="utf-8"?>
<!-- Generator: Adobe Illustrator 16.0.0, SVG Export Plug-In . SVG Version: 6.00 Build 0)  -->
<!DOCTYPE svg PUBLIC "-//W3C//DTD SVG 1.1//EN" "http://www.w3.org/Graphics/SVG/1.1/DTD/svg11.dtd">
<svg version="1.1" id="Layer_1" xmlns="http://www.w3.org/2000/svg" xmlns:xlink="http://www.w3.org/1999/xlink" x="0px" y="0px"
	 width="96px" height="96px" viewBox="0 0 96 96" enable-background="new 0 0 96 96" xml:space="preserve">
<g>
	<path d="M90.101,10.189l-2.122-2.121l-0.023-0.023l-2.122-2.121c-5.206-5.205-11.757-7.09-16.962-1.887l-3.469,3.471l23.113,23.113
		l3.468-3.471C97.189,21.947,95.305,15.393,90.101,10.189z"/>
	<path d="M55.249,17.662c-2.989,2.99-4.252,7.045-3.807,10.941c-2.109,0.574-4.103,1.68-5.759,3.336L9.951,73.324l-0.174,8.328
		l-8.848,8.877l4.517,4.52l8.927-8.865l8.325-0.111l41.386-35.73c1.655-1.656,2.761-3.652,3.334-5.76
		c3.898,0.445,7.954-0.818,10.942-3.809l6.542-6.541L61.791,11.119L55.249,17.662z"/>
</g>
</svg>
