<?xml version="1.0" encoding="utf-8"?>
<!-- Generator: Adobe Illustrator 16.0.0, SVG Export Plug-In . SVG Version: 6.00 Build 0)  -->
<!DOCTYPE svg PUBLIC "-//W3C//DTD SVG 1.1//EN" "http://www.w3.org/Graphics/SVG/1.1/DTD/svg11.dtd">
<svg version="1.1" id="Layer_1" xmlns="http://www.w3.org/2000/svg" xmlns:xlink="http://www.w3.org/1999/xlink" x="0px" y="0px"
	 width="96px" height="96px" viewBox="0 0 96 96" enable-background="new 0 0 96 96" xml:space="preserve">
<path d="M92.393,1.01H3.607c-1.436,0-2.6,1.164-2.6,2.6v88.785c0,1.436,1.164,2.6,2.6,2.6h88.785c1.436,0,2.6-1.164,2.6-2.6V3.609
	C94.992,2.174,93.828,1.01,92.393,1.01z M18.555,84.717c-3.523,0-6.379-2.855-6.379-6.379c0-3.525,2.855-6.381,6.379-6.381
	c3.521,0,6.379,2.855,6.379,6.381C24.934,81.861,22.076,84.717,18.555,84.717z M18.555,53.67c-3.523,0-6.379-2.855-6.379-6.381
	s2.855-6.379,6.379-6.379c3.521,0,6.379,2.854,6.379,6.379S22.076,53.67,18.555,53.67z M18.555,24.045
	c-3.523,0-6.379-2.855-6.379-6.381c0-3.523,2.855-6.377,6.379-6.377c3.521,0,6.379,2.854,6.379,6.377
	C24.934,21.189,22.076,24.045,18.555,24.045z M48,84.717c-3.523,0-6.379-2.855-6.379-6.379c0-3.525,2.855-6.381,6.379-6.381
	s6.381,2.855,6.381,6.381C54.381,81.861,51.523,84.717,48,84.717z M48,53.67c-3.523,0-6.379-2.855-6.379-6.381
	S44.477,40.91,48,40.91s6.381,2.854,6.381,6.379S51.523,53.67,48,53.67z M48,24.045c-3.523,0-6.379-2.855-6.379-6.381
	c0-3.523,2.855-6.377,6.379-6.377s6.381,2.854,6.381,6.377C54.381,21.189,51.523,24.045,48,24.045z M77.447,84.717
	c-3.523,0-6.381-2.855-6.381-6.379c0-3.525,2.857-6.381,6.381-6.381c3.521,0,6.379,2.855,6.379,6.381
	C83.826,81.861,80.969,84.717,77.447,84.717z M77.447,53.67c-3.523,0-6.381-2.855-6.381-6.381s2.857-6.379,6.381-6.379
	c3.521,0,6.379,2.854,6.379,6.379S80.969,53.67,77.447,53.67z M77.447,24.045c-3.523,0-6.381-2.855-6.381-6.381
	c0-3.523,2.857-6.377,6.381-6.377c3.521,0,6.379,2.854,6.379,6.377C83.826,21.189,80.969,24.045,77.447,24.045z"/>
</svg>
