<?xml version="1.0" encoding="utf-8"?>
<!-- Generator: Adobe Illustrator 16.0.0, SVG Export Plug-In . SVG Version: 6.00 Build 0)  -->
<!DOCTYPE svg PUBLIC "-//W3C//DTD SVG 1.1//EN" "http://www.w3.org/Graphics/SVG/1.1/DTD/svg11.dtd">
<svg version="1.1" xmlns="http://www.w3.org/2000/svg" xmlns:xlink="http://www.w3.org/1999/xlink" x="0px" y="0px" width="96px"
	 height="96px" viewBox="0 0 96 96" enable-background="new 0 0 96 96" xml:space="preserve">
<g id="Layer_1">
	<g>
		<g>
			<g>
				<path d="M40.175,35.197c-0.596-1.311-1.405-2.301-2.408-2.947c-1.002-0.646-2.34-0.975-3.977-0.975
					c-1.621,0-2.961,0.33-3.982,0.979c-1.02,0.646-1.847,1.654-2.459,2.998c-0.611,1.33-1.037,3.111-1.268,5.299
					c-0.237,2.26-0.357,4.775-0.357,7.479c0,2.977,0.105,5.492,0.314,7.479c0.202,1.924,0.635,3.664,1.288,5.17
					c0.564,1.332,1.357,2.348,2.36,3.027c0.998,0.678,2.378,1.02,4.104,1.02c1.62,0,2.967-0.33,4.001-0.98s1.82-1.623,2.402-2.977
					c0.637-1.473,1.075-3.238,1.306-5.254c0.236-2.074,0.356-4.611,0.356-7.543c0-2.893-0.12-5.436-0.357-7.559
					C41.27,38.359,40.824,36.605,40.175,35.197z"/>
			</g>
		</g>
		<g>
			<g>
				<path d="M1.859,16v64h92.281V16H1.859z M45.938,65.627c-2.616,3.91-6.703,5.893-12.148,5.893c-5.527,0-9.637-2.012-12.215-5.977
					c-2.488-3.828-3.75-9.721-3.75-17.514c0-7.854,1.278-13.771,3.798-17.592c2.606-3.953,6.7-5.957,12.167-5.957
					c5.53,0,9.641,2.037,12.218,6.055c2.485,3.877,3.746,9.742,3.746,17.436C49.754,55.904,48.47,61.844,45.938,65.627z
					 M78.175,70.619h-25.42v-6.418h9.008V37.203h-9.008v-5.951h1c1.168,0,2.439-0.1,3.778-0.295
					c1.272-0.186,2.227-0.447,2.836-0.777c0.745-0.404,1.337-0.92,1.759-1.531c0.406-0.592,0.646-1.434,0.711-2.502l0.058-0.939
					h6.444v38.994h8.834V70.619z"/>
			</g>
		</g>
	</g>
</g>
<g id="Layer_2">
</g>
</svg>
