<?xml version="1.0" encoding="utf-8"?>
<!-- Generator: Adobe Illustrator 16.0.0, SVG Export Plug-In . SVG Version: 6.00 Build 0)  -->
<!DOCTYPE svg PUBLIC "-//W3C//DTD SVG 1.1//EN" "http://www.w3.org/Graphics/SVG/1.1/DTD/svg11.dtd">
<svg version="1.1" id="Layer_1" xmlns="http://www.w3.org/2000/svg" xmlns:xlink="http://www.w3.org/1999/xlink" x="0px" y="0px"
	 width="96px" height="96px" viewBox="0 0 96 96" enable-background="new 0 0 96 96" xml:space="preserve">
<path d="M95.591,20.284l-0.597-2.911c-0.448-2.19-2.589-3.604-4.772-3.168l-0.464,0.09c-0.575,0.109-1.224,0.237-1.899,0.422
	c-0.695,0.167-1.34,0.371-1.912,0.554l-0.39,0.123c-0.046,0.015-0.09,0.029-0.135,0.045c-1.499,0.527-3,1.163-4.513,1.911
	c-1.382,0.706-2.762,1.501-4.129,2.379c-1.272,0.834-2.54,1.74-3.79,2.711c-1.07,0.845-2.12,1.733-3.147,2.655h-7.819l-2.177-2.362
	c-0.741-0.803-1.773-1.276-2.865-1.309c-1.104-0.03-2.152,0.374-2.939,1.132l-2.639,2.539H1.381v56.029h77.196V34.373
	c0.802-0.854,1.625-1.675,2.465-2.455c0.882-0.81,1.808-1.594,2.726-2.309c0.915-0.701,1.872-1.361,2.848-1.97l0.304-0.178
	c0.367-0.216,0.734-0.433,1.115-0.623c0.05-0.026,0.101-0.052,0.152-0.08c0.335-0.185,0.681-0.341,1.026-0.502l0.756-0.331
	c0.34-0.14,0.68-0.283,1.028-0.393c0.063-0.021,0.127-0.044,0.19-0.067c0.327-0.122,0.662-0.212,0.997-0.306l0.575-0.164
	C94.785,24.398,96.015,22.352,95.591,20.284z M18.331,73.307h-4.472l0.016-16.451l-3.879,3.415L7.84,57.579l6.815-5.427h3.676
	V73.307z M46.678,73.307H31.889v-3.11l5.311-5.369c1.572-1.609,2.6-2.728,3.082-3.349c0.483-0.622,0.83-1.198,1.043-1.729
	c0.212-0.53,0.318-1.08,0.318-1.65c0-0.848-0.234-1.479-0.703-1.896c-0.468-0.414-1.092-0.621-1.873-0.621
	c-0.821,0-1.616,0.188-2.389,0.564c-0.771,0.377-1.576,0.911-2.416,1.605l-2.431-2.879c1.042-0.889,1.905-1.516,2.59-1.881
	c0.684-0.366,1.432-0.648,2.243-0.847c0.81-0.197,1.716-0.298,2.72-0.298c1.321,0,2.489,0.241,3.501,0.724
	c1.014,0.483,1.8,1.159,2.359,2.026c0.559,0.869,0.838,1.862,0.838,2.981c0,0.974-0.17,1.889-0.513,2.742
	c-0.343,0.853-0.873,1.728-1.592,2.625s-1.984,2.178-3.798,3.835l-2.721,2.562v0.202h9.218V73.307z M68.875,71.897
	c-1.476,1.134-3.583,1.7-6.324,1.7c-2.295,0-4.331-0.381-6.106-1.143v-3.808c0.82,0.415,1.722,0.755,2.706,1.015
	c0.985,0.26,1.958,0.39,2.923,0.39c1.476,0,2.566-0.251,3.27-0.753c0.705-0.502,1.057-1.307,1.057-2.416
	c0-0.993-0.406-1.698-1.216-2.112c-0.81-0.415-2.103-0.622-3.878-0.622h-1.606v-3.431h1.635c1.64,0,2.839-0.214,3.596-0.642
	c0.757-0.43,1.136-1.167,1.136-2.209c0-1.601-1.003-2.4-3.01-2.4c-0.694,0-1.401,0.115-2.12,0.347
	c-0.718,0.231-1.516,0.631-2.394,1.201l-2.07-3.083c1.929-1.389,4.23-2.084,6.902-2.084c2.19,0,3.919,0.445,5.188,1.332
	c1.268,0.888,1.903,2.123,1.903,3.704c0,1.321-0.4,2.445-1.202,3.373c-0.8,0.925-1.924,1.563-3.371,1.909v0.088
	c1.707,0.21,3,0.729,3.878,1.555c0.877,0.825,1.316,1.936,1.316,3.335C71.089,69.179,70.351,70.763,68.875,71.897z M89.526,21.366
	c-0.611,0.195-1.206,0.459-1.803,0.697c-0.585,0.277-1.176,0.533-1.745,0.85c-0.58,0.289-1.137,0.626-1.698,0.953
	c-1.107,0.685-2.182,1.428-3.221,2.223c-1.033,0.806-2.037,1.653-3.004,2.543c-1.93,1.791-3.738,3.73-5.408,5.78
	c-0.837,1.025-1.642,2.074-2.413,3.146c-0.381,0.534-0.762,1.073-1.123,1.619c-0.355,0.532-0.736,1.114-1.02,1.601l-1.828,3.007
	l-2.592-2.58L52.024,29.609l4.595-4.42l8.925,9.688c0.167-0.202,0.331-0.41,0.499-0.61c0.931-1.088,1.887-2.146,2.876-3.174
	c1.975-2.056,4.093-3.982,6.344-5.756c1.13-0.879,2.301-1.719,3.502-2.505c1.213-0.779,2.463-1.501,3.754-2.163
	c1.299-0.642,2.638-1.212,4.011-1.694c0.697-0.22,1.387-0.454,2.101-0.62c0.702-0.198,1.428-0.318,2.144-0.461l0.597,2.911
	C90.754,20.988,90.131,21.141,89.526,21.366z"/>
</svg>
