<?xml version="1.0" encoding="utf-8"?>
<!-- Generator: Adobe Illustrator 16.0.0, SVG Export Plug-In . SVG Version: 6.00 Build 0)  -->
<!DOCTYPE svg PUBLIC "-//W3C//DTD SVG 1.1//EN" "http://www.w3.org/Graphics/SVG/1.1/DTD/svg11.dtd">
<svg version="1.1" xmlns="http://www.w3.org/2000/svg" xmlns:xlink="http://www.w3.org/1999/xlink" x="0px" y="0px" width="96px"
	 height="96px" viewBox="0 0 96 96" enable-background="new 0 0 96 96" xml:space="preserve">
<g id="Layer_1">
	<g>
		<g>
			<g>
				<polygon points="39.167,52.549 53.089,52.549 55.333,43.479 41.411,43.479 				"/>
			</g>
		</g>
		<g>
			<g>
				<path d="M1.859,16v64h92.281V16H1.859z M70.98,43.538h-9.916l-2.19,8.953h10.198l-1.5,5.932H57.364l-3.029,12.264h-5.818
					l3.029-12.264H37.741l-3.029,12.264h-5.818l3.03-12.264H23.52l1.5-5.932h8.416l2.19-8.953h-8.698l1.5-5.933h8.709l3.059-12.292
					h5.818l-3.058,12.292H56.76l3.059-12.292h5.818l-3.059,12.292h9.901L70.98,43.538z"/>
			</g>
		</g>
	</g>
</g>
<g id="Layer_2">
</g>
</svg>
