<?xml version="1.0" encoding="utf-8"?>
<!-- Generator: Adobe Illustrator 16.0.0, SVG Export Plug-In . SVG Version: 6.00 Build 0)  -->
<!DOCTYPE svg PUBLIC "-//W3C//DTD SVG 1.1//EN" "http://www.w3.org/Graphics/SVG/1.1/DTD/svg11.dtd">
<svg version="1.1" id="Layer_1" xmlns="http://www.w3.org/2000/svg" xmlns:xlink="http://www.w3.org/1999/xlink" x="0px" y="0px"
	 width="96px" height="96px" viewBox="0 0 96 96" enable-background="new 0 0 96 96" xml:space="preserve">
<path d="M34.819,79.641l-2.623-2.155c-3.064-2.513-13.056-11.977-13.056-28.296c0-17.932,11.818-29.52,30.112-29.52
	c17.839,0,28.922,10.948,28.922,28.573c0,16.471-9.248,25.965-13.226,29.284l-2.571,2.15V90.69h32.873V76.331H84.685
	c5.208-8.366,7.847-17.8,7.847-28.088c0-25.68-17.393-42.934-43.279-42.934C23.074,5.31,4.79,23.355,4.79,49.189
	c0,9.521,2.705,19.052,7.663,27.142H0.749V90.69h34.071V79.641z"/>
</svg>
