<?xml version="1.0" encoding="utf-8"?>
<!-- Generator: Adobe Illustrator 16.0.0, SVG Export Plug-In . SVG Version: 6.00 Build 0)  -->
<!DOCTYPE svg PUBLIC "-//W3C//DTD SVG 1.1//EN" "http://www.w3.org/Graphics/SVG/1.1/DTD/svg11.dtd">
<svg version="1.1" id="Layer_1" xmlns="http://www.w3.org/2000/svg" xmlns:xlink="http://www.w3.org/1999/xlink" x="0px" y="0px"
	 width="96px" height="96px" viewBox="0 0 96 96" enable-background="new 0 0 96 96" xml:space="preserve">
<g>
	<path d="M12.594,1.914v69.518h70.813V1.914H12.594z M76.786,64.811H19.214V8.535h57.572V64.811z"/>
	<polygon points="47.833,94.086 56.434,76.08 39.566,76.052 	"/>
	<path d="M42.372,48.74l-1.098-0.902c-1.282-1.051-5.465-5.014-5.465-11.843c0-7.506,4.946-12.356,12.604-12.356
		c7.468,0,12.106,4.583,12.106,11.959c0,6.895-3.871,10.869-5.536,12.258l-1.076,0.9v4.609h12.399v-6.011h-3.063
		c2.181-3.501,3.285-7.45,3.285-11.757c0-10.748-7.281-17.97-18.116-17.97c-10.957,0-18.61,7.553-18.61,18.367
		c0,3.985,1.132,7.974,3.207,11.36h-3.539v6.011h12.901V48.74z"/>
</g>
</svg>
