<?xml version="1.0" encoding="utf-8"?>
<!-- Generator: Adobe Illustrator 16.0.0, SVG Export Plug-In . SVG Version: 6.00 Build 0)  -->
<!DOCTYPE svg PUBLIC "-//W3C//DTD SVG 1.1//EN" "http://www.w3.org/Graphics/SVG/1.1/DTD/svg11.dtd">
<svg version="1.1" id="Layer_1" xmlns="http://www.w3.org/2000/svg" xmlns:xlink="http://www.w3.org/1999/xlink" x="0px" y="0px"
	 width="96px" height="96px" viewBox="0 0 96 96" enable-background="new 0 0 96 96" xml:space="preserve">
<path d="M90.409,48.561c-3.738-4.625-8.47-7.16-14.517-8.867c0.119-1.611,0.185-3.291,0.185-5.059H65.414
	c0,1.121-0.035,2.188-0.091,3.221c-5.188-0.441-10.644-0.346-15.933,0.135c-0.071-1.48-0.129-2.992-0.172-4.549
	c13.438-0.91,25.599-3.855,37.031-8.963l-4.35-9.736c-10.102,4.514-20.887,7.152-32.828,8.02c-0.057-4.695-0.082-7.408,0.157-14.109
	L38.572,8.271c-0.252,7.039-0.219,9.986-0.16,14.799c-7.338-0.08-15.36-0.719-24.38-1.957l-1.45,10.564
	c9.569,1.313,18.117,1.986,25.979,2.059c0.053,1.973,0.129,3.885,0.227,5.744C22.893,42.535,6.1,49.492,1.982,60.961
	C-1.696,71.299,2.756,77,5.739,79.479c3.912,3.25,9.513,4.654,15.762,4.654c7.86,0,16.744-2.227,24.581-5.793
	c0.264,0.648,0.53,1.305,0.797,1.953c0.666,1.627,1.294,3.162,1.641,4.129l10.037-3.6c-0.426-1.189-1.098-2.83-1.809-4.568
	c-0.396-0.967-0.83-2.027-1.234-3.043c6.824-4.15,14.879-10.281,18.553-22.992c10.747,2,10.932,12.381,9.775,15.746
	c-1.642,4.775-7.525,9.201-15.355,11.551l3.064,10.213c11.398-3.42,19.654-10.078,22.475-18.289
	C95.63,64.771,97.183,56.941,90.409,48.561z M12.554,71.275c-0.617-0.512-2.346-2.858-0.529-6.725
	c2.583-5.499,13.294-11.445,27.631-14.371c0.705,6.289,1.739,12.225,3.129,17.939C30.425,74.102,16.91,74.895,12.554,71.275z
	 M52.439,62.516c-0.959-4.441-1.696-9.053-2.228-13.898c4.723-0.439,9.209-0.506,13.247-0.23
	C61.113,55.412,56.929,59.457,52.439,62.516z"/>
</svg>
