<?xml version="1.0" encoding="utf-8"?>
<!-- Generator: Adobe Illustrator 16.0.0, SVG Export Plug-In . SVG Version: 6.00 Build 0)  -->
<!DOCTYPE svg PUBLIC "-//W3C//DTD SVG 1.1//EN" "http://www.w3.org/Graphics/SVG/1.1/DTD/svg11.dtd">
<svg version="1.1" id="Layer_1" xmlns="http://www.w3.org/2000/svg" xmlns:xlink="http://www.w3.org/1999/xlink" x="0px" y="0px"
	 width="96px" height="96px" viewBox="0 0 96 96" enable-background="new 0 0 96 96" xml:space="preserve">
<g>
	<path d="M30.961,40.503c-3.402,0-5.384,3.236-5.384,7.563c0,4.36,2.047,7.432,5.416,7.432c3.402,0,5.352-3.236,5.352-7.563
		C36.345,43.938,34.428,40.503,30.961,40.503z"/>
	<path d="M60.493,2.522H13.638v91.607h66.825V29.692L56.723,13.3L60.493,2.522z M30.729,59.494c-6.605,0-10.47-4.987-10.47-11.329
		c0-6.671,4.261-11.66,10.833-11.66c6.837,0,10.569,5.12,10.569,11.263C41.661,55.068,37.235,59.494,30.729,59.494z M62.132,36.87
		h13.608v4.129h-8.554v5.086h7.993v4.095h-7.993v8.951h-5.054V36.87z M59.46,36.87v4.228h-6.078v18.033H48.33V41.098h-5.979V36.87
		H59.46z"/>
	<polygon points="65.183,2.522 62.13,11.254 80.463,23.913 	"/>
</g>
</svg>
