<?xml version="1.0" encoding="utf-8"?>
<!-- Generator: Adobe Illustrator 16.0.0, SVG Export Plug-In . SVG Version: 6.00 Build 0)  -->
<!DOCTYPE svg PUBLIC "-//W3C//DTD SVG 1.1//EN" "http://www.w3.org/Graphics/SVG/1.1/DTD/svg11.dtd">
<svg version="1.1" id="Layer_1" xmlns="http://www.w3.org/2000/svg" xmlns:xlink="http://www.w3.org/1999/xlink" x="0px" y="0px"
	 width="96px" height="96px" viewBox="0 0 96 96" enable-background="new 0 0 96 96" xml:space="preserve">
<g>
	<rect x="31.748" y="26.131" width="9.33" height="9.329"/>
	<rect x="31.748" y="45.091" width="9.33" height="9.329"/>
	<g>
		<path d="M95.25,39.674C95.25,21.087,74.054,5.967,48,5.967S0.75,21.087,0.75,39.674C0.75,58.26,21.946,73.381,48,73.381
			c6.856,0,13.369-1.056,19.254-2.938l14.559,19.59l0.021-26.864C90.127,57.093,95.25,48.804,95.25,39.674z M9.177,39.674
			c0-13.94,17.417-25.28,38.823-25.28s38.823,11.34,38.823,25.28c0,13.939-17.417,25.28-38.823,25.28S9.177,53.613,9.177,39.674z"/>
		<path d="M54.936,26.869c0.418,0.499,10.104,12.353,0,24.427l6.058,5.067c11.436-13.669,5.001-28.584,0-34.561L54.936,26.869z"/>
	</g>
</g>
</svg>
