<?xml version="1.0" encoding="utf-8"?>
<!-- Generator: Adobe Illustrator 16.0.0, SVG Export Plug-In . SVG Version: 6.00 Build 0)  -->
<!DOCTYPE svg PUBLIC "-//W3C//DTD SVG 1.1//EN" "http://www.w3.org/Graphics/SVG/1.1/DTD/svg11.dtd">
<svg version="1.1" id="Layer_1" xmlns="http://www.w3.org/2000/svg" xmlns:xlink="http://www.w3.org/1999/xlink" x="0px" y="0px"
	 width="96px" height="96px" viewBox="0 0 96 96" enable-background="new 0 0 96 96" xml:space="preserve">
<path d="M48,6.598c-26.607,0-47.451,14.602-47.451,33.242c0,12.35,9.157,22.924,23.076,28.654l2.517,20.908L39.76,72.59
	c2.672,0.314,5.421,0.488,8.24,0.488c26.608,0,47.451-14.6,47.451-33.238C95.451,21.199,74.608,6.598,48,6.598z M48,62.457
	c-19.964,0-36.83-10.357-36.83-22.617c0-12.264,16.866-22.621,36.83-22.621S84.83,27.576,84.83,39.84
	C84.83,52.1,67.964,62.457,48,62.457z"/>
</svg>
