<?xml version="1.0" encoding="utf-8"?>
<!-- Generator: Adobe Illustrator 16.0.0, SVG Export Plug-In . SVG Version: 6.00 Build 0)  -->
<!DOCTYPE svg PUBLIC "-//W3C//DTD SVG 1.1//EN" "http://www.w3.org/Graphics/SVG/1.1/DTD/svg11.dtd">
<svg version="1.1" id="Layer_1" xmlns="http://www.w3.org/2000/svg" xmlns:xlink="http://www.w3.org/1999/xlink" x="0px" y="0px"
	 width="96px" height="96px" viewBox="0 0 96 96" enable-background="new 0 0 96 96" xml:space="preserve">
<g>
	<path d="M95.438,66.815l-21.661,0.022V47.993h0.017V26.809c0-7.109-5.783-12.833-12.891-12.833l-46.563-0.017
		c-7.254,0.024-12.45,4.394-13.572,11.064c-0.323,1.93-0.188,4.001-0.188,4.001l21.568,0.003c0,6.41,0.006,12.27-0.003,18.197
		c-0.016,6.95-0.148,13.901-0.041,20.85c0.142,9.207,4.439,13.742,13.646,13.866c15.266,0.204,30.538,0.036,45.807,0.036
		c12.379,0,13.775-12.354,13.832-13.121C95.482,67.604,95.438,66.815,95.438,66.815z M69.511,66.737l-26.072-0.015l0.01,2.17
		c0,0,0.447,8.692-8.408,8.692c-8.916,0-8.433-8.635-8.433-8.635l-0.031-36.348c0.012-4.805,0.335-9.652-3.41-14.388L62.006,18.2
		c4.241,0.319,7.516,4.229,7.516,8.608L69.511,66.737z"/>
</g>
</svg>
