<?xml version="1.0" encoding="utf-8"?>
<!-- Generator: Adobe Illustrator 16.0.0, SVG Export Plug-In . SVG Version: 6.00 Build 0)  -->
<!DOCTYPE svg PUBLIC "-//W3C//DTD SVG 1.1//EN" "http://www.w3.org/Graphics/SVG/1.1/DTD/svg11.dtd">
<svg version="1.1" id="Layer_1" xmlns="http://www.w3.org/2000/svg" xmlns:xlink="http://www.w3.org/1999/xlink" x="0px" y="0px"
	 width="96px" height="96px" viewBox="0 0 96 96" enable-background="new 0 0 96 96" xml:space="preserve">
<path d="M54.625,0.832c-7.745,0-14.045,6.3-14.045,14.044v41.869c0,2.341,1.898,4.24,4.24,4.24c2.341,0,4.24-1.898,4.24-4.24V14.876
	c0-3.068,2.496-5.565,5.565-5.565c3.068,0,5.564,2.497,5.564,5.565v15.377v26.492v17.754c0,6.722-5.468,12.189-12.189,12.189
	s-12.189-5.468-12.189-12.189V30.253c0-2.342-1.898-4.24-4.24-4.24c-2.341,0-4.24,1.898-4.24,4.24v44.246
	c0,11.397,9.272,20.669,20.669,20.669s20.669-9.272,20.669-20.669V56.745V30.253V14.876C68.669,7.132,62.369,0.832,54.625,0.832z"/>
</svg>
