<?xml version="1.0" encoding="utf-8"?>
<!-- Generator: Adobe Illustrator 16.0.0, SVG Export Plug-In . SVG Version: 6.00 Build 0)  -->
<!DOCTYPE svg PUBLIC "-//W3C//DTD SVG 1.1//EN" "http://www.w3.org/Graphics/SVG/1.1/DTD/svg11.dtd">
<svg version="1.1" id="Layer_1" xmlns="http://www.w3.org/2000/svg" xmlns:xlink="http://www.w3.org/1999/xlink" x="0px" y="0px"
	 width="96px" height="96px" viewBox="0 0 96 96" enable-background="new 0 0 96 96" xml:space="preserve">
<g>
	<path d="M92.103,43.5l-7.122-7.123c-0.993-0.995-2.341-1.553-3.745-1.553c-1.406,0-2.754,0.559-3.746,1.553l-1.97,1.971V1.208
		H2.345v93.584H75.52V67.84l16.583-16.85C94.173,48.923,94.173,45.568,92.103,43.5z M67.573,86.846H10.29V9.154h57.283v37.313
		l-6.956,6.96V48H17.909v5.463H60.58L47.984,66.063c-0.622,0.624-1.08,1.393-1.331,2.235l-3.031,10.19
		c-0.554,1.864-0.042,3.881,1.333,5.256c1.006,1.009,2.359,1.552,3.745,1.552c0.504,0,1.012-0.072,1.511-0.221l10.191-3.03
		c0.843-0.251,1.611-0.708,2.235-1.331l4.936-4.934V86.846z M58.664,77.128l-10.192,3.031l3.032-10.191l22.865-22.874l7.171,7.17
		L58.664,77.128z M83.879,51.656l-7.122-7.123l4.251-4.252l7.122,7.123L83.879,51.656z"/>
	<rect x="17.909" y="18.783" width="42.708" height="5.462"/>
	<rect x="17.909" y="33.185" width="42.708" height="5.464"/>
</g>
</svg>
