<?xml version="1.0" encoding="utf-8"?>
<!-- Generator: Adobe Illustrator 16.0.0, SVG Export Plug-In . SVG Version: 6.00 Build 0)  -->
<!DOCTYPE svg PUBLIC "-//W3C//DTD SVG 1.1//EN" "http://www.w3.org/Graphics/SVG/1.1/DTD/svg11.dtd">
<svg version="1.1" id="Layer_1" xmlns="http://www.w3.org/2000/svg" xmlns:xlink="http://www.w3.org/1999/xlink" x="0px" y="0px"
	 width="96px" height="96px" viewBox="0 0 96 96" enable-background="new 0 0 96 96" xml:space="preserve">
<g>
	<path d="M73.484,72.551c-1.749,0-3.168,1.418-3.168,3.168c0,1.086,0.547,2.043,1.379,2.613v4.838h3.579v-4.838
		c0.833-0.57,1.379-1.527,1.379-2.613C76.653,73.969,75.234,72.551,73.484,72.551z"/>
	<path d="M89.439,59.418c-0.774-8.248-7.736-14.725-16.184-14.725c-6.476,0-12.06,3.815-14.669,9.31l-4.87-4.104l-8.502,8.455
		l-8.523-8.455l-4.947,4.17l-10.298,4.742c-1.523,0.625-2.875,1.705-3.781,3.227L3.004,86.547h50.519
		c0.055,2.99,2.492,5.398,5.495,5.398h28.479c3.038,0,5.5-2.463,5.5-5.5V64.564C92.996,62.211,91.518,60.203,89.439,59.418z
		 M87.725,86.445H59.246V64.564h20.527v-3.615c0-3.469-2.82-6.289-6.289-6.289c-3.468,0-6.289,2.82-6.289,6.289v0.01H62.73v-0.01
		c0-5.932,4.824-10.756,10.754-10.756c5.931,0,10.755,4.824,10.755,10.756v3.615h3.485V86.445z"/>
	<path d="M45.148,50.918v0.002c0.009,0,0.02-0.002,0.029-0.002c0.005,0,0.013,0.002,0.02,0.002c0,0,0.004,0,0.007,0s0.006,0,0.007,0
		c0.007,0,0.015-0.002,0.02-0.002c0.01,0,0.02,0.002,0.029,0.002v-0.002C57.265,51.1,64.562,40.594,64.75,23.271
		c0.121-12.018-7.331-18.889-19.469-19.213V4.055c-0.019,0-0.032,0.002-0.051,0.002V4.055c-0.011,0-0.019,0-0.026,0.002
		c-0.008-0.002-0.018-0.002-0.026-0.002v0.002c-0.019,0-0.033-0.002-0.049-0.002v0.004c-12.138,0.324-19.592,7.195-19.471,19.213
		C25.847,40.594,33.144,51.1,45.148,50.918z"/>
</g>
</svg>
