<?xml version="1.0" encoding="utf-8"?>
<!-- Generator: Adobe Illustrator 16.0.0, SVG Export Plug-In . SVG Version: 6.00 Build 0)  -->
<!DOCTYPE svg PUBLIC "-//W3C//DTD SVG 1.1//EN" "http://www.w3.org/Graphics/SVG/1.1/DTD/svg11.dtd">
<svg version="1.1" id="Layer_1" xmlns="http://www.w3.org/2000/svg" xmlns:xlink="http://www.w3.org/1999/xlink" x="0px" y="0px"
	 width="96px" height="96px" viewBox="0 0 96 96" enable-background="new 0 0 96 96" xml:space="preserve">
<g>
	<path d="M80.241,70.293c-1.094-1.827-2.732-3.105-4.575-3.827l-12.485-5.653l-5.112-4.634l-10.142,9.258l-9.913-9.34l-5.785,4.879
		l-12.044,5.542c-1.778,0.731-3.361,1.996-4.427,3.775L1.75,93.719h92.5L80.241,70.293z"/>
	<path d="M30.167,41c0.292-0.665,2.644-14.589,25.708-23c11.083-4.042,9.788,23,9.788,23c4.462-2.125,5.575-15.149,5.572-16.784
		c-0.024-14.041-9.1-22.257-24.196-21.926c-14.54,0.337-22.996,8.389-22.416,22.477C24.688,26.344,25.625,38.25,30.167,41z"/>
</g>
</svg>
