<?xml version="1.0" encoding="utf-8"?>
<!-- Generator: Adobe Illustrator 16.0.0, SVG Export Plug-In . SVG Version: 6.00 Build 0)  -->
<!DOCTYPE svg PUBLIC "-//W3C//DTD SVG 1.1//EN" "http://www.w3.org/Graphics/SVG/1.1/DTD/svg11.dtd">
<svg version="1.1" id="Layer_1" xmlns="http://www.w3.org/2000/svg" xmlns:xlink="http://www.w3.org/1999/xlink" x="0px" y="0px"
	 width="96px" height="96px" viewBox="0 0 96 96" enable-background="new 0 0 96 96" xml:space="preserve">
<g>
	<path d="M71.606,64.69c-3.084,0-5.595,2.508-5.595,5.594c0,3.084,2.511,5.593,5.595,5.593c3.083,0,5.594-2.509,5.594-5.593
		C77.2,67.198,74.689,64.69,71.606,64.69z"/>
	<path d="M90.824,62.317c0.039-0.31,0.06-0.622,0.06-0.936c0-2.013-0.783-3.906-2.207-5.329l-2.847-2.846
		c-1.595-1.603-3.975-2.41-6.254-2.132c-1.38-1.785-3.541-2.937-5.967-2.937h-4.041c-2.419,0-4.575,1.146-5.955,2.923
		c-2.247-0.281-4.597,0.513-6.203,2.09l-4.433-3.738l-8.502,8.455l-8.523-8.455l-4.947,4.171l-10.298,4.741
		c-1.523,0.626-2.875,1.707-3.781,3.228L2.265,86.062h53.784l1.308,1.306c1.595,1.598,3.973,2.403,6.246,2.125
		c1.38,1.786,3.541,2.937,5.966,2.937h4.041c2.419,0,4.576-1.146,5.956-2.923c2.268,0.282,4.647-0.526,6.252-2.133l2.859-2.858
		c1.424-1.423,2.208-3.316,2.208-5.33c0-0.316-0.02-0.628-0.058-0.937c1.769-1.38,2.908-3.532,2.908-5.945v-4.041
		C93.735,65.85,92.595,63.697,90.824,62.317z M87.752,72.304c0,0.848-0.688,1.537-1.536,1.537h-2.443
		c-0.255,0.879-0.606,1.727-1.047,2.531l1.726,1.727c0.6,0.6,0.6,1.574,0,2.174l-2.858,2.856c-0.579,0.58-1.591,0.58-2.17,0
		l-1.729-1.727c-0.803,0.442-1.653,0.793-2.532,1.049v2.442c0,0.848-0.688,1.536-1.536,1.536h-4.041
		c-0.847,0-1.535-0.688-1.535-1.536v-2.442c-0.879-0.256-1.729-0.606-2.533-1.049l-1.728,1.727c-0.557,0.56-1.613,0.558-2.17,0
		l-2.858-2.856c-0.29-0.291-0.449-0.676-0.449-1.088c0-0.404,0.164-0.801,0.45-1.086l1.726-1.727
		c-0.441-0.805-0.793-1.652-1.048-2.531h-2.443c-0.848,0-1.536-0.689-1.536-1.537v-4.041c0-0.847,0.688-1.535,1.536-1.535h2.443
		c0.255-0.879,0.606-1.729,1.048-2.533l-1.727-1.727c-0.6-0.6-0.6-1.572,0-2.172l2.858-2.857c0.579-0.58,1.591-0.58,2.17,0
		l1.728,1.727c0.804-0.442,1.654-0.793,2.533-1.049v-2.442c0-0.847,0.688-1.536,1.535-1.536h4.041c0.848,0,1.536,0.689,1.536,1.536
		v2.442c0.879,0.256,1.729,0.606,2.532,1.049l1.729-1.727c0.558-0.559,1.614-0.559,2.17,0l2.858,2.857
		c0.29,0.29,0.449,0.676,0.449,1.086c0,0.404-0.164,0.802-0.45,1.087l-1.725,1.727c0.44,0.805,0.792,1.653,1.047,2.532h2.443
		c0.848,0,1.536,0.688,1.536,1.535V72.304z"/>
	<path d="M44.409,50.433v0.003c0.009,0,0.02-0.002,0.029-0.002c0.005,0,0.013,0.002,0.02,0.002c0.001,0,0.004,0,0.007,0
		s0.006,0,0.006,0c0.008,0,0.016-0.002,0.021-0.002c0.01,0,0.02,0.002,0.029,0.002v-0.003c12.005,0.183,19.302-10.324,19.49-27.646
		C64.132,10.769,56.68,3.898,44.542,3.574V3.57c-0.019,0-0.032,0.001-0.051,0.001V3.57c-0.011,0-0.019,0-0.026,0.001
		C44.457,3.57,44.447,3.57,44.438,3.57v0.001c-0.019,0-0.033-0.001-0.049-0.001v0.004c-12.138,0.324-19.592,7.195-19.471,19.212
		C25.107,40.108,32.404,50.615,44.409,50.433z"/>
</g>
</svg>
