<?xml version="1.0" encoding="utf-8"?>
<!-- Generator: Adobe Illustrator 16.0.0, SVG Export Plug-In . SVG Version: 6.00 Build 0)  -->
<!DOCTYPE svg PUBLIC "-//W3C//DTD SVG 1.1//EN" "http://www.w3.org/Graphics/SVG/1.1/DTD/svg11.dtd">
<svg version="1.1" id="Layer_1" xmlns="http://www.w3.org/2000/svg" xmlns:xlink="http://www.w3.org/1999/xlink" x="0px" y="0px"
	 width="96px" height="96px" viewBox="0 0 96 96" enable-background="new 0 0 96 96" xml:space="preserve">
<g>
	<rect x="72.141" y="66.473" width="5.486" height="14.06"/>
	<circle cx="74.885" cy="61.576" r="3.217"/>
	<path d="M74.723,48.905c-6.041,0-11.475,2.579-15.311,6.672l-1.068-0.492l-4.947-4.171l-8.502,8.455l-8.523-8.455l-4.947,4.171
		l-10.299,4.741c-1.523,0.626-2.875,1.707-3.781,3.228L0.266,87.562l63.133,0.028c3.273,2.104,7.154,3.339,11.324,3.339
		c11.586,0,21.012-9.426,21.012-21.012C95.734,58.331,86.309,48.905,74.723,48.905z M74.723,84.703
		c-8.154,0-14.787-6.633-14.787-14.786s6.633-14.786,14.787-14.786c8.152,0,14.785,6.633,14.785,14.786S82.875,84.703,74.723,84.703
		z"/>
	<path d="M44.828,51.933v0.003c0.008,0,0.02-0.002,0.029-0.002c0.004,0,0.012,0.002,0.02,0.002c0,0,0.004,0,0.006,0
		c0.004,0,0.006,0,0.008,0c0.006,0,0.014-0.002,0.02-0.002c0.01,0,0.02,0.002,0.029,0.002v-0.003
		c12.004,0.183,19.301-10.324,19.49-27.646C64.551,12.27,57.098,5.399,44.961,5.075V5.071c-0.02,0-0.033,0.001-0.051,0.001V5.071
		c-0.012,0-0.02,0-0.027,0.001c-0.008-0.001-0.018-0.001-0.025-0.001v0.001c-0.02,0-0.033-0.001-0.049-0.001v0.004
		C32.67,5.399,25.217,12.27,25.338,24.287C25.525,41.609,32.822,52.116,44.828,51.933z"/>
</g>
</svg>
