<?xml version="1.0" encoding="utf-8"?>
<!-- Generator: Adobe Illustrator 16.0.0, SVG Export Plug-In . SVG Version: 6.00 Build 0)  -->
<!DOCTYPE svg PUBLIC "-//W3C//DTD SVG 1.1//EN" "http://www.w3.org/Graphics/SVG/1.1/DTD/svg11.dtd">
<svg version="1.1" id="Layer_1" xmlns="http://www.w3.org/2000/svg" xmlns:xlink="http://www.w3.org/1999/xlink" x="0px" y="0px"
	 width="96px" height="96px" viewBox="0 0 96 96" enable-background="new 0 0 96 96" xml:space="preserve">
<path d="M78.893,11.936l3.777-7.18c0.403-0.761,0.374-1.676-0.069-2.41c-0.445-0.736-1.242-1.188-2.101-1.188H15.274
	c-1.354,0-2.452,1.099-2.452,2.455l0.008,91.229h70.319V20.393L78.893,11.936z M66.057,74.161c-1.714,1.185-4.623,2.23-8.744,0.49
	l-0.05-0.022c-6.362-2.974-11.853-6.765-16.793-11.592l-0.019-0.02c-4.839-4.951-8.637-10.451-11.611-16.811l-0.023-0.051
	c-1.739-4.12-0.693-7.029,0.49-8.744c1.894-2.743,5.393-4.17,7.087-4.107c0.377,0.015,0.729,0.168,0.994,0.432
	c0.032,0.033,0.063,0.067,0.094,0.104l8.148,9.793c0.28,0.335,0.396,0.775,0.321,1.207c-0.269,1.528-0.985,2.927-2.072,4.044
	l-0.534,0.549c-0.516,0.529-1.099,0.985-1.731,1.351l-0.608,0.351l0.408,0.57c2.832,3.967,6.385,7.519,10.35,10.351l0.572,0.408
	l0.351-0.608c0.365-0.634,0.82-1.218,1.352-1.734l0.545-0.529c1.119-1.088,2.517-1.805,4.046-2.073
	c0.431-0.076,0.871,0.041,1.208,0.322l9.792,8.148c0.328,0.27,0.518,0.665,0.534,1.086C70.227,68.769,68.8,72.27,66.057,74.161z
	 M17.728,20.29V6.066h58.708l-2.481,4.716c-0.373,0.709-0.376,1.556-0.007,2.271l3.743,7.237H17.728z"/>
</svg>
