<?xml version="1.0" encoding="utf-8"?>
<!-- Generator: Adobe Illustrator 16.0.0, SVG Export Plug-In . SVG Version: 6.00 Build 0)  -->
<!DOCTYPE svg PUBLIC "-//W3C//DTD SVG 1.1//EN" "http://www.w3.org/Graphics/SVG/1.1/DTD/svg11.dtd">
<svg version="1.1" id="Layer_1" xmlns="http://www.w3.org/2000/svg" xmlns:xlink="http://www.w3.org/1999/xlink" x="0px" y="0px"
	 width="96px" height="96px" viewBox="0 0 96 96" enable-background="new 0 0 96 96" xml:space="preserve">
<g>
	<path d="M87.451,21.238l-3.213-0.001L80.105,9.484H47.061l-4.126,11.733l-9.638-0.004L8.549,21.238
		c-3.963,0-7.174,3.213-7.174,7.174v50.93c0,3.961,3.211,7.174,7.174,7.174h78.902c3.963,0,7.174-3.213,7.174-7.174v-50.93
		C94.625,24.451,91.414,21.238,87.451,21.238z M58.76,74.32c-12.281,0-22.236-9.955-22.236-22.236s9.955-22.236,22.236-22.236
		s22.236,9.955,22.236,22.236S71.041,74.32,58.76,74.32z"/>
	<path d="M24.738,18.602c0-2.506-2.031-4.535-4.537-4.535h-5.443c-2.505,0-4.536,2.029-4.536,4.535v0.605h14.517V18.602z"/>
	<path d="M58.76,39.854c-6.734,0-12.194,5.459-12.194,12.193s5.46,12.195,12.194,12.195s12.193-5.461,12.193-12.195
		S65.494,39.854,58.76,39.854z M58.76,52.047c-3.764,0-6.814-2.113-6.814-4.723s3.051-4.723,6.814-4.723s6.814,2.113,6.814,4.723
		S62.523,52.047,58.76,52.047z"/>
</g>
</svg>
