<?xml version="1.0" encoding="utf-8"?>
<!-- Generator: Adobe Illustrator 16.0.0, SVG Export Plug-In . SVG Version: 6.00 Build 0)  -->
<!DOCTYPE svg PUBLIC "-//W3C//DTD SVG 1.1//EN" "http://www.w3.org/Graphics/SVG/1.1/DTD/svg11.dtd">
<svg version="1.1" id="Layer_1" xmlns="http://www.w3.org/2000/svg" xmlns:xlink="http://www.w3.org/1999/xlink" x="0px" y="0px"
	 width="96px" height="96px" viewBox="0 0 96 96" enable-background="new 0 0 96 96" xml:space="preserve">
<g>
	<path d="M12.239,1.834v92.332h71.521V1.834H12.239z M74.968,85.371H21.032V10.628h53.936V85.371z"/>
	<path d="M28.534,24.639v8.344h13.291c2.862-4.09,5.427-7.326,6.245-8.344H28.534z"/>
	<path d="M68.164,32.982v-8.344H48.628c0.818,1.018,3.382,4.254,6.245,8.344H68.164z"/>
	<path d="M68.164,50.294v-8.343h-7.577c1.653,2.938,3.016,5.838,3.717,8.343H68.164z"/>
	<path d="M28.534,41.951v8.343h3.859c0.701-2.505,2.064-5.404,3.717-8.343H28.534z"/>
	<path d="M33.271,60.098h-4.737v8.344h12.949C37.826,66.759,34.892,63.788,33.271,60.098z"/>
	<path d="M55.215,68.441h12.949v-8.344h-4.738C61.806,63.788,58.871,66.759,55.215,68.441z"/>
	<path d="M54.873,32.982H41.824c-1.924,2.749-3.974,5.877-5.714,8.969h24.477C58.847,38.859,56.797,35.731,54.873,32.982z"/>
	<path d="M64.817,53.486c0-0.953-0.19-2.033-0.513-3.192H32.393c-0.323,1.159-0.513,2.239-0.513,3.192
		c0,2.354,0.502,4.586,1.391,6.611h30.155C64.315,58.072,64.817,55.84,64.817,53.486z"/>
	<path d="M48.349,69.955c2.454,0,4.774-0.552,6.866-1.514H41.482C43.575,69.403,45.895,69.955,48.349,69.955z"/>
</g>
</svg>
