<?xml version="1.0" encoding="utf-8"?>
<!-- Generator: Adobe Illustrator 16.0.0, SVG Export Plug-In . SVG Version: 6.00 Build 0)  -->
<!DOCTYPE svg PUBLIC "-//W3C//DTD SVG 1.1//EN" "http://www.w3.org/Graphics/SVG/1.1/DTD/svg11.dtd">
<svg version="1.1" id="Layer_1" xmlns="http://www.w3.org/2000/svg" xmlns:xlink="http://www.w3.org/1999/xlink" x="0px" y="0px"
	 width="96px" height="96px" viewBox="0 0 96 96" enable-background="new 0 0 96 96" xml:space="preserve">
<g>
	<path d="M74.305,3.729H21.695c-1.821,0-3.297,1.477-3.297,3.297v81.947c0,1.821,1.476,3.297,3.297,3.297h52.609
		c1.821,0,3.297-1.477,3.297-3.297V7.026C77.602,5.206,76.126,3.729,74.305,3.729z M71.008,85.676H24.992V10.324h46.016V85.676z"/>
	<path d="M41.567,55.707c1.766,0,3.382-0.607,4.676-1.613c0.706,6.377-7.644,7.187-7.227,6.946v2.21h17.969v-2.21
		c0.365,0.206-7.78-0.482-7.152-6.983c1.281,0.97,2.872,1.65,4.602,1.65c4.226,0,7.651-3.426,7.651-7.652
		c0-3.813-2.791-6.965-6.44-7.547c0.002-0.036,0.006-0.07,0.006-0.105c0-4.226-3.426-7.652-7.651-7.652s-7.651,3.425-7.651,7.652
		c0,0.035,0.004,0.069,0.006,0.105c-3.648,0.582-6.44,3.734-6.44,7.547C33.914,52.28,37.34,55.707,41.567,55.707z"/>
</g>
</svg>
