<?xml version="1.0" encoding="utf-8"?>
<!-- Generator: Adobe Illustrator 16.0.0, SVG Export Plug-In . SVG Version: 6.00 Build 0)  -->
<!DOCTYPE svg PUBLIC "-//W3C//DTD SVG 1.1//EN" "http://www.w3.org/Graphics/SVG/1.1/DTD/svg11.dtd">
<svg version="1.1" xmlns="http://www.w3.org/2000/svg" xmlns:xlink="http://www.w3.org/1999/xlink" x="0px" y="0px" width="96px"
	 height="96px" viewBox="0 0 96 96" enable-background="new 0 0 96 96" xml:space="preserve">
<g id="Layer_1">
	<g>
		<g>
			<path d="M85.144,43.796h9.94V3.675c0-1.597-1.294-2.89-2.89-2.89H3.806c-1.596,0-2.89,1.293-2.89,2.89v40.121h11.702
				C14.84,35.49,23.49,29.294,33.832,29.294v7.728h11.633v6.333H33.832v9.292h11.633v6.333H33.832v7.727
				c-10.342,0-18.992-6.196-21.214-14.502H0.916v40.121c0,1.596,1.294,2.89,2.89,2.89h88.389c1.596,0,2.89-1.294,2.89-2.89V52.204
				h-9.94C82.922,60.51,74.271,66.706,63.93,66.706V29.294C74.271,29.294,82.922,35.49,85.144,43.796z"/>
		</g>
	</g>
</g>
<g id="Layer_2">
</g>
</svg>
