<?xml version="1.0" encoding="utf-8"?>
<!-- Generator: Adobe Illustrator 16.0.0, SVG Export Plug-In . SVG Version: 6.00 Build 0)  -->
<!DOCTYPE svg PUBLIC "-//W3C//DTD SVG 1.1//EN" "http://www.w3.org/Graphics/SVG/1.1/DTD/svg11.dtd">
<svg version="1.1" id="Layer_1" xmlns="http://www.w3.org/2000/svg" xmlns:xlink="http://www.w3.org/1999/xlink" x="0px" y="0px"
	 width="96px" height="96px" viewBox="0 0 96 96" enable-background="new 0 0 96 96" xml:space="preserve">
<g>
	<polygon points="63.611,1.167 1.167,1.167 1.167,63.612 22.921,63.612 22.921,22.921 63.611,22.921 	"/>
	<path d="M32.389,32.39v62.443h62.444V32.39H32.389z M63.568,39.269v-0.006c0.01,0.002,0.019,0.002,0.028,0.004v-0.004
		c0.005,0.002,0.01,0.002,0.015,0.002s0.01,0,0.015-0.002v0.004c0.01-0.002,0.018-0.002,0.028-0.004v0.006
		c6.779,0.178,10.941,4.016,10.873,10.727c-0.104,9.676-4.18,15.545-10.884,15.441v0.002c-0.006,0-0.012-0.002-0.017-0.002
		c-0.003,0-0.007,0.002-0.01,0.002c-0.001,0-0.003,0-0.004,0s-0.003,0-0.004,0c-0.003,0-0.007-0.002-0.01-0.002
		c-0.005,0-0.011,0.002-0.017,0.002v-0.002c-6.704,0.104-10.78-5.766-10.884-15.441C52.626,43.284,56.789,39.446,63.568,39.269z
		 M66.112,87.896l-2.501-15.623l-2.501,15.623l-21.894,0.016c0.006-0.773,0.212-1.545,0.622-2.234l8.392-14.029
		c0.507-0.85,1.263-1.453,2.114-1.803l5.75-2.646l2.763-2.33l4.761,4.721l4.748-4.721l2.763,2.33l5.75,2.646
		c0.851,0.35,1.606,0.953,2.114,1.803l8.392,14.029c0.411,0.689,0.617,1.461,0.622,2.234L66.112,87.896z"/>
</g>
</svg>
