<?xml version="1.0" encoding="utf-8"?>
<!-- Generator: Adobe Illustrator 16.0.0, SVG Export Plug-In . SVG Version: 6.00 Build 0)  -->
<!DOCTYPE svg PUBLIC "-//W3C//DTD SVG 1.1//EN" "http://www.w3.org/Graphics/SVG/1.1/DTD/svg11.dtd">
<svg version="1.1" id="Layer_1" xmlns="http://www.w3.org/2000/svg" xmlns:xlink="http://www.w3.org/1999/xlink" x="0px" y="0px"
	 width="96px" height="96px" viewBox="0 0 96 96" enable-background="new 0 0 96 96" xml:space="preserve">
<g>
	<path d="M47.357,40.598c-1.023,0-1.714,0.099-2.078,0.198v6.562c0.429,0.099,0.956,0.132,1.682,0.132
		c2.671,0,4.32-1.352,4.32-3.627C51.281,41.817,49.864,40.598,47.357,40.598z"/>
	<path d="M28.202,40.598c-1.023,0-1.714,0.099-2.078,0.198v6.562c0.429,0.099,0.956,0.132,1.682,0.132
		c2.671,0,4.32-1.352,4.32-3.627C32.126,41.817,30.708,40.598,28.202,40.598z"/>
	<path d="M60.472,2.596H13.694v91.458H80.41V29.722L56.709,13.357L60.472,2.596z M57.774,36.971h17.081v4.221h-6.067v18.004h-5.045
		V41.191h-5.968V36.971z M35.06,49.006c-1.714,1.615-4.252,2.342-7.22,2.342c-0.661,0-1.253-0.034-1.716-0.099v7.947h-4.979V37.268
		c1.55-0.265,3.726-0.463,6.792-0.463c3.1,0,5.309,0.594,6.794,1.782c1.417,1.121,2.374,2.967,2.374,5.144
		C37.105,45.907,36.379,47.752,35.06,49.006z M54.215,49.006c-1.714,1.615-4.253,2.342-7.22,2.342c-0.661,0-1.253-0.034-1.716-0.099
		v7.947H40.3V37.268c1.55-0.265,3.726-0.463,6.793-0.463c3.099,0,5.308,0.594,6.792,1.782c1.418,1.121,2.374,2.967,2.374,5.144
		C56.26,45.907,55.536,47.752,54.215,49.006z"/>
	<polygon points="65.154,2.693 62.106,11.412 80.41,24.05 	"/>
</g>
</svg>
