<?xml version="1.0" encoding="utf-8"?>
<!-- Generator: Adobe Illustrator 16.0.0, SVG Export Plug-In . SVG Version: 6.00 Build 0)  -->
<!DOCTYPE svg PUBLIC "-//W3C//DTD SVG 1.1//EN" "http://www.w3.org/Graphics/SVG/1.1/DTD/svg11.dtd">
<svg version="1.1" id="Layer_1" xmlns="http://www.w3.org/2000/svg" xmlns:xlink="http://www.w3.org/1999/xlink" x="0px" y="0px"
	 width="96px" height="96px" viewBox="0 0 96 96" enable-background="new 0 0 96 96" xml:space="preserve">
<path d="M78.594,21.886h-8.81V2.515H26.216v19.371h-8.81c-7.564,0-13.698,18.212-13.698,24.135v21.097
	c0,5.923,6.134,10.727,13.698,10.727h7.264v15.642h46.66V77.844h7.264c7.564,0,13.698-4.804,13.698-10.727V46.021
	C92.292,40.098,86.158,21.886,78.594,21.886z M30.813,7.111h34.375v39.268H30.813V7.111z M72.671,72.608h-6.212v16.063H29.541
	V72.608h-6.212v-3.218h49.342V72.608z M78.57,59.799c-1.629,0-2.949-1.32-2.949-2.949s1.32-2.95,2.949-2.95s2.95,1.321,2.95,2.95
	S80.199,59.799,78.57,59.799z"/>
</svg>
