<?xml version="1.0" encoding="utf-8"?>
<!-- Generator: Adobe Illustrator 16.0.0, SVG Export Plug-In . SVG Version: 6.00 Build 0)  -->
<!DOCTYPE svg PUBLIC "-//W3C//DTD SVG 1.1//EN" "http://www.w3.org/Graphics/SVG/1.1/DTD/svg11.dtd">
<svg version="1.1" id="Layer_1" xmlns="http://www.w3.org/2000/svg" xmlns:xlink="http://www.w3.org/1999/xlink" x="0px" y="0px"
	 width="96px" height="96px" viewBox="0 0 96 96" enable-background="new 0 0 96 96" xml:space="preserve">
<g>
	<polygon points="61.23,1.122 58.125,9.994 76.758,22.86 	"/>
	<path d="M74.826,54.183V29.392L50.699,12.733l3.832-10.949H6.914v93.095h67.912v-1.304c8.27-2.733,14.26-10.522,14.26-19.696
		S83.096,56.916,74.826,54.183z M68.336,88.128c-7.857,0-14.25-6.393-14.25-14.25s6.393-14.25,14.25-14.25s14.25,6.393,14.25,14.25
		S76.193,88.128,68.336,88.128z"/>
	<path d="M68.53,62.441c-2.463,0-4.543,0.693-5.791,1.421l1.179,3.779c0.902-0.624,2.288-1.041,3.434-1.041
		c1.732,0.07,2.53,0.867,2.53,2.081c0,1.179-0.901,2.288-2.012,3.605c-1.56,1.873-2.149,3.675-2.045,5.443l0.035,0.902h4.61v-0.624
		c-0.035-1.56,0.485-2.913,1.769-4.334c1.317-1.456,2.947-3.19,2.947-5.824C75.187,64.972,73.106,62.441,68.53,62.441z"/>
	<path d="M68.044,80.262c-1.803,0-3.086,1.317-3.086,3.155c0,1.803,1.248,3.155,3.086,3.155c1.872,0,3.12-1.353,3.12-3.155
		C71.13,81.58,69.916,80.262,68.044,80.262z"/>
</g>
</svg>
