<?xml version="1.0" encoding="utf-8"?>
<!-- Generator: Adobe Illustrator 16.0.0, SVG Export Plug-In . SVG Version: 6.00 Build 0)  -->
<!DOCTYPE svg PUBLIC "-//W3C//DTD SVG 1.1//EN" "http://www.w3.org/Graphics/SVG/1.1/DTD/svg11.dtd">
<svg version="1.1" id="Layer_1" xmlns="http://www.w3.org/2000/svg" xmlns:xlink="http://www.w3.org/1999/xlink" x="0px" y="0px"
	 width="96px" height="96px" viewBox="0 0 96 96" enable-background="new 0 0 96 96" xml:space="preserve">
<path d="M81.211,14.79c-18.342-18.342-48.08-18.342-66.422,0c-18.342,18.341-18.342,48.08,0,66.421
	c18.342,18.342,48.08,18.342,66.422,0C99.553,62.869,99.553,33.131,81.211,14.79z M45.176,84.15c-4.057,0-7.001-3.072-7.001-7.305
	c0-4.291,2.987-7.404,7.102-7.404c4.123,0,7.001,3.044,7.001,7.404C52.278,81.146,49.358,84.15,45.176,84.15z M55.763,45.953
	c-4.15,4.906-5.796,9.118-5.503,14.088l0.096,2.495c0.011,0.062,0.017,0.125,0.017,0.189c0,0.58-0.47,1.051-1.05,1.051
	c-0.003-0.001-0.007-0.001-0.011,0h-7.867c-0.549,0-1.005-0.423-1.047-0.97l-0.202-2.623c-0.676-6.082,1.508-12.218,6.494-18.202
	c4.319-5.087,6.816-8.866,6.816-13.145c0-4.829-3.036-7.536-8.548-7.624c-3.403,0-7.242,1.171-9.534,2.913
	c-0.264,0.201-0.607,0.264-0.925,0.173c-0.318-0.091-0.575-0.327-0.693-0.636l-2.42-6.354c-0.169-0.443-0.02-0.944,0.364-1.224
	c3.538-2.573,9.441-4.235,15.041-4.235c12.361,0,17.894,7.974,17.894,15.877C64.684,34.797,60.818,39.951,55.763,45.953z"/>
</svg>
