<?xml version="1.0" encoding="utf-8"?>
<!-- Generator: Adobe Illustrator 16.0.0, SVG Export Plug-In . SVG Version: 6.00 Build 0)  -->
<!DOCTYPE svg PUBLIC "-//W3C//DTD SVG 1.1//EN" "http://www.w3.org/Graphics/SVG/1.1/DTD/svg11.dtd">
<svg version="1.1" id="Layer_1" xmlns="http://www.w3.org/2000/svg" xmlns:xlink="http://www.w3.org/1999/xlink" x="0px" y="0px"
	 width="96px" height="96px" viewBox="0 0 96 96" enable-background="new 0 0 96 96" xml:space="preserve">
<g>
	<polygon points="69.952,60.174 65.156,60.174 65.156,75.955 78.613,75.955 78.613,71.158 69.952,71.158 	"/>
	<path d="M68.565,50.008v-3.342V27.059c0,0,0.008-6.385,0-6.465l-3.746-7.59l3.324-6.32c0.354-0.67,0.33-1.475-0.061-2.121
		c-0.392-0.648-1.094-1.045-1.85-1.045H8.817c-1.191,0-2.158,0.967-2.158,2.16l0.052,80.307H17.08V20.359h-6.103V7.838h51.68
		l-2.186,4.15c-0.328,0.625-0.331,1.369-0.006,1.998l3.295,6.373h-42.43v65.625h7.915h6.818h14.526h2.236
		c3.866,4,9.274,6.5,15.264,6.5c11.718,0,21.25-9.533,21.25-21.25C89.341,59.676,80.063,50.264,68.565,50.008z M68.091,85.484
		c-7.857,0-14.25-6.393-14.25-14.25s6.393-14.25,14.25-14.25s14.25,6.393,14.25,14.25S75.948,85.484,68.091,85.484z"/>
</g>
</svg>
