<?xml version="1.0" encoding="utf-8"?>
<!-- Generator: Adobe Illustrator 16.0.0, SVG Export Plug-In . SVG Version: 6.00 Build 0)  -->
<!DOCTYPE svg PUBLIC "-//W3C//DTD SVG 1.1//EN" "http://www.w3.org/Graphics/SVG/1.1/DTD/svg11.dtd">
<svg version="1.1" id="Layer_1" xmlns="http://www.w3.org/2000/svg" xmlns:xlink="http://www.w3.org/1999/xlink" x="0px" y="0px"
	 width="96px" height="96px" viewBox="0 0 96 96" enable-background="new 0 0 96 96" xml:space="preserve">
<g>
	<path d="M31.708,19.417c1.379,0,2.5-1.122,2.5-2.5V14.25c0-1.378-1.121-2.5-2.5-2.5H18.719v7.667H31.708z"/>
	<path d="M18.719,2.5v4.25h12.989c4.136,0,7.5,3.364,7.5,7.5v2.667c0,4.136-3.364,7.5-7.5,7.5H18.719V93.5h68.406v-91H18.719z"/>
	<path d="M16.375,19.417c-1.378,0-2.5-1.122-2.5-2.5V14.25c0-1.378,1.122-2.5,2.5-2.5h2.344v-5h-2.344c-4.136,0-7.5,3.364-7.5,7.5
		v2.667c0,4.136,3.364,7.5,7.5,7.5h2.344v-5H16.375z"/>
</g>
</svg>
