<?xml version="1.0" encoding="utf-8"?>
<!-- Generator: Adobe Illustrator 16.0.0, SVG Export Plug-In . SVG Version: 6.00 Build 0)  -->
<!DOCTYPE svg PUBLIC "-//W3C//DTD SVG 1.1//EN" "http://www.w3.org/Graphics/SVG/1.1/DTD/svg11.dtd">
<svg version="1.1" id="Layer_1" xmlns="http://www.w3.org/2000/svg" xmlns:xlink="http://www.w3.org/1999/xlink" x="0px" y="0px"
	 width="96px" height="96px" viewBox="0 0 96 96" enable-background="new 0 0 96 96" xml:space="preserve">
<path d="M89.515,1.469H6.484c-0.915,0-1.725,0.414-2.286,1.052v0.001c-0.47,0.535-0.767,1.23-0.767,2.001v86.956
	c0,1.683,1.369,3.051,3.053,3.051h83.031c1.685,0,3.054-1.369,3.054-3.051V4.524C92.569,2.84,91.2,1.469,89.515,1.469z
	 M31.259,87.355H10.556V75.954h20.704V87.355z M31.259,68.779H10.556v-11.45h20.704V68.779z M85.491,50.307H10.556V38.272h74.936
	V50.307z M31.259,31.251H10.556V19.935h20.704V31.251z M58.314,87.355H38.28V75.954h20.034V87.355z M58.314,68.779H38.28v-11.45
	h20.034V68.779z M58.314,31.251H38.28V19.935h20.034V31.251z M85.67,87.355H65.335V75.954H85.67V87.355z M85.67,68.779H65.335
	v-11.45H85.67V68.779z M85.67,31.251H65.335V19.935H85.67V31.251z"/>
</svg>
