<?xml version="1.0" encoding="utf-8"?>
<!-- Generator: Adobe Illustrator 16.0.0, SVG Export Plug-In . SVG Version: 6.00 Build 0)  -->
<!DOCTYPE svg PUBLIC "-//W3C//DTD SVG 1.1//EN" "http://www.w3.org/Graphics/SVG/1.1/DTD/svg11.dtd">
<svg version="1.1" id="Layer_1" xmlns="http://www.w3.org/2000/svg" xmlns:xlink="http://www.w3.org/1999/xlink" x="0px" y="0px"
	 width="96px" height="96px" viewBox="0 0 96 96" enable-background="new 0 0 96 96" xml:space="preserve">
<g>
	<path d="M11.764,1.833v92.334h72.473V1.833H11.764z M77.47,87.4H18.53V8.6H77.47V87.4z"/>
	<path d="M70.949,44.443V30.21h-5.392V19.682H25.051v56.637h40.507V65.731h5.392V51.498h-5.392v-7.055H70.949z M28.23,23.332h34.146
		v6.878H28.23V23.332z M28.23,44.629h34.146v6.869H28.23V44.629z M62.377,72.668H28.23v-6.934h34.146V72.668z M67.77,55.248v6.834
		H28.23v-6.869L67.77,55.248z M28.23,40.793v-6.877L67.77,33.91v6.883H28.23z"/>
</g>
</svg>
