<?xml version="1.0" encoding="utf-8"?>
<!-- Generator: Adobe Illustrator 16.0.0, SVG Export Plug-In . SVG Version: 6.00 Build 0)  -->
<!DOCTYPE svg PUBLIC "-//W3C//DTD SVG 1.1//EN" "http://www.w3.org/Graphics/SVG/1.1/DTD/svg11.dtd">
<svg version="1.1" xmlns="http://www.w3.org/2000/svg" xmlns:xlink="http://www.w3.org/1999/xlink" x="0px" y="0px" width="96px"
	 height="96px" viewBox="0 0 96 96" enable-background="new 0 0 96 96" xml:space="preserve">
<g id="Layer_1">
	<g>
		<g>
			<g>
				<rect x="3" y="2.68" width="26" height="17.81"/>
			</g>
		</g>
		<g>
			<g>
				<rect x="35" y="2.68" width="26" height="17.81"/>
			</g>
		</g>
		<g>
			<g>
				<rect x="3" y="26.734" width="26" height="17.81"/>
			</g>
		</g>
		<g>
			<g>
				<path d="M35,44.544h26v-17.81H35V44.544z M38,29.734h20v11.81H38V29.734z"/>
			</g>
		</g>
		<g>
			<g>
				<rect x="3" y="51.567" width="26" height="17.81"/>
			</g>
		</g>
		<g>
			<g>
				<path d="M35,69.377h26v-17.81H35V69.377z M38,54.567h20v11.81H38V54.567z"/>
			</g>
		</g>
		<g>
			<g>
				<rect x="67" y="26.623" width="26" height="17.81"/>
			</g>
		</g>
		<g>
			<g>
				<rect x="67" y="50.678" width="26" height="17.81"/>
			</g>
		</g>
		<g>
			<g>
				<rect x="35" y="75.511" width="26" height="17.81"/>
			</g>
		</g>
		<g>
			<g>
				<rect x="67" y="75.511" width="26" height="17.81"/>
			</g>
		</g>
	</g>
</g>
<g id="Layer_2">
</g>
</svg>
