<?xml version="1.0" encoding="utf-8"?>
<!-- Generator: Adobe Illustrator 16.0.0, SVG Export Plug-In . SVG Version: 6.00 Build 0)  -->
<!DOCTYPE svg PUBLIC "-//W3C//DTD SVG 1.1//EN" "http://www.w3.org/Graphics/SVG/1.1/DTD/svg11.dtd">
<svg version="1.1" id="Layer_1" xmlns="http://www.w3.org/2000/svg" xmlns:xlink="http://www.w3.org/1999/xlink" x="0px" y="0px"
	 width="96px" height="96px" viewBox="0 0 96 96" enable-background="new 0 0 96 96" xml:space="preserve">
<g>
	<rect x="17.476" y="29.416" width="31.024" height="7.751"/>
	<path d="M91.683,81.715L59.682,49.71c7.617-12.207,5.888-28.083-4.392-38.366c-5.859-5.859-13.661-9.087-21.972-9.087
		c-8.309,0-16.111,3.228-21.972,9.087c-5.86,5.858-9.088,13.662-9.088,21.973c0,8.308,3.228,16.111,9.088,21.97
		c5.847,5.849,13.636,9.069,21.931,9.069c5.867,0,11.514-1.613,16.437-4.68l32.003,32.005c1.332,1.331,3.102,2.063,4.982,2.063
		c1.88,0,3.648-0.731,4.983-2.063C94.429,88.929,94.428,84.46,91.683,81.715z M33.118,53.369c-11.186,0-20.286-9.102-20.286-20.283
		c0-11.186,9.101-20.287,20.286-20.287c11.185,0,20.285,9.102,20.285,20.287C53.403,44.268,44.303,53.369,33.118,53.369z"/>
</g>
</svg>
