<?xml version="1.0" encoding="utf-8"?>
<!-- Generator: Adobe Illustrator 16.0.0, SVG Export Plug-In . SVG Version: 6.00 Build 0)  -->
<!DOCTYPE svg PUBLIC "-//W3C//DTD SVG 1.1//EN" "http://www.w3.org/Graphics/SVG/1.1/DTD/svg11.dtd">
<svg version="1.1" id="Layer_1" xmlns="http://www.w3.org/2000/svg" xmlns:xlink="http://www.w3.org/1999/xlink" x="0px" y="0px"
	 width="96px" height="96px" viewBox="0 0 96 96" enable-background="new 0 0 96 96" xml:space="preserve">
<path d="M48,1C22.042,1,1,22.043,1,48s21.042,47,47,47s47-21.043,47-47S73.958,1,48,1z M70.274,70.049
	c-2.591,2.593-5.587,4.666-8.905,6.157l-2.33,1.052l-4.569-10.15l2.331-1.049c2.083-0.938,3.968-2.242,5.604-3.876
	c3.569-3.571,5.535-8.327,5.535-13.389c0-5.065-1.967-9.821-5.536-13.389c-3.57-3.571-8.325-5.537-13.389-5.537
	c-5.064,0-9.819,1.966-13.389,5.534c-6.503,6.506-7.326,16.58-2.311,23.98l8.017-8.017l-0.001,24.397H16.935l8.424-8.424
	c-9.357-11.88-8.485-28.92,2.399-39.806c5.669-5.67,13.219-8.792,21.256-8.792c8.04,0,15.589,3.122,21.259,8.792
	C81.995,39.256,81.996,58.328,70.274,70.049z"/>
</svg>
