<?xml version="1.0" encoding="utf-8"?>
<!-- Generator: Adobe Illustrator 16.0.0, SVG Export Plug-In . SVG Version: 6.00 Build 0)  -->
<!DOCTYPE svg PUBLIC "-//W3C//DTD SVG 1.1//EN" "http://www.w3.org/Graphics/SVG/1.1/DTD/svg11.dtd">
<svg version="1.1" id="Layer_1" xmlns="http://www.w3.org/2000/svg" xmlns:xlink="http://www.w3.org/1999/xlink" x="0px" y="0px"
	 width="96px" height="96px" viewBox="0 0 96 96" enable-background="new 0 0 96 96" xml:space="preserve">
<g>
	<path d="M29.794,40.59c-1.211,0-1.897,0.098-2.259,0.163v6.086H29.5c2.487,0,3.958-1.244,3.958-3.174
		C33.458,41.637,32.085,40.622,29.794,40.59z"/>
	<path d="M60.376,2.946H13.958v90.753H80.16V29.863L56.642,13.624L60.376,2.946z M34.146,59.109
		c-0.36-0.621-0.884-2.422-1.538-5.137c-0.589-2.748-1.538-3.5-3.566-3.534h-1.506v8.671h-4.94V37.35
		c1.603-0.263,3.992-0.459,6.643-0.459c3.271,0,5.562,0.491,7.133,1.734c1.309,1.047,2.028,2.585,2.028,4.614
		c0,2.813-1.996,4.744-3.894,5.432v0.098c1.538,0.621,2.389,2.094,2.944,4.122c0.688,2.487,1.375,5.367,1.8,6.217H34.146z
		 M59.923,37.056h13.482v4.09H64.93v5.039h7.918v4.057H64.93v8.868h-5.007V37.056z M57.275,37.056v4.188h-6.021v17.865h-5.006
		V41.244h-5.923v-4.188H57.275z"/>
	<polygon points="65.022,2.775 61.998,11.427 80.16,23.967 	"/>
</g>
</svg>
