<?xml version="1.0" encoding="utf-8"?>
<!-- Generator: Adobe Illustrator 16.0.0, SVG Export Plug-In . SVG Version: 6.00 Build 0)  -->
<!DOCTYPE svg PUBLIC "-//W3C//DTD SVG 1.1//EN" "http://www.w3.org/Graphics/SVG/1.1/DTD/svg11.dtd">
<svg version="1.1" id="Layer_1" xmlns="http://www.w3.org/2000/svg" xmlns:xlink="http://www.w3.org/1999/xlink" x="0px" y="0px"
	 width="96px" height="96px" viewBox="0 0 96 96" enable-background="new 0 0 96 96" xml:space="preserve">
<path d="M79.729,15.75h4.967V1.375H48.061h-0.121H11.305V15.75h4.967C18.345,31.528,27.113,44.147,38.442,48
	c-11.329,3.853-20.098,16.472-22.171,32.25h-4.967v14.375h36.635h0.121h36.635V80.25h-4.967C77.655,64.472,68.887,51.853,57.558,48
	C68.887,44.147,77.655,31.528,79.729,15.75z M54.212,42.345c-0.431,4.025-0.703,18.347,3.969,20.057
	c10.768,4.183,14.865,16.595,14.865,16.595H22.954c0,0,4.098-12.412,14.865-16.595c4.672-1.71,4.399-16.032,3.969-20.057
	c-12.881-3.018-18.485-17.398-18.485-17.398h49.395C72.697,24.947,67.093,39.327,54.212,42.345z"/>
</svg>
