<?xml version="1.0" encoding="utf-8"?>
<!-- Generator: Adobe Illustrator 16.0.0, SVG Export Plug-In . SVG Version: 6.00 Build 0)  -->
<!DOCTYPE svg PUBLIC "-//W3C//DTD SVG 1.1//EN" "http://www.w3.org/Graphics/SVG/1.1/DTD/svg11.dtd">
<svg version="1.1" id="Layer_1" xmlns="http://www.w3.org/2000/svg" xmlns:xlink="http://www.w3.org/1999/xlink" x="0px" y="0px"
	 width="96px" height="96px" viewBox="0 0 96 96" enable-background="new 0 0 96 96" xml:space="preserve">
<path d="M56.154,23.507c0.015-0.03,0.031-0.062,0.045-0.092c2.47,5.263,7.805,8.923,13.993,8.923
	c8.526,0,15.464-6.937,15.464-15.464S78.719,1.41,70.192,1.41c-5.123,0-9.66,2.515-12.476,6.364
	c-0.001,0.002-0.005,0.002-0.006,0.005L57.56,7.974l-0.603,0.774c-0.405,0.517-0.782,1.026-1.16,1.551
	c-0.775,1.031-1.47,2.104-2.183,3.17c-1.428,2.127-2.752,4.317-4.035,6.526c-0.394,0.685-0.771,1.379-1.152,2.07l-0.416,0.769H48
	h-0.012l-0.416-0.769c-0.381-0.691-0.758-1.386-1.152-2.07c-1.283-2.209-2.607-4.399-4.035-6.526
	c-0.713-1.066-1.408-2.139-2.183-3.17c-0.377-0.524-0.754-1.034-1.16-1.551L38.44,7.974l-0.151-0.194
	c-0.001-0.003-0.005-0.003-0.006-0.005c-2.815-3.85-7.353-6.364-12.476-6.364c-8.526,0-15.464,6.937-15.464,15.464
	s6.938,15.464,15.464,15.464c6.188,0,11.522-3.66,13.993-8.923c0.015,0.03,0.031,0.062,0.045,0.092l3.314,6.686
	c0.04,0.078,0.074,0.159,0.115,0.237c-0.514,1.069-1.02,2.142-1.518,3.218c0,0-0.618,0.096-1.586,0.358
	c-1.889,0.4-3.408,4.661-3.87,5.915c0,0-11.236,31.113-10.943,54.647l2.612,0.021C33.208,66.559,47.438,46.155,48,45.357
	c0.562,0.798,14.792,21.201,20.03,49.232l2.612-0.021c0.293-23.534-10.943-54.647-10.943-54.647c-0.462-1.254-1.98-5.515-3.87-5.915
	c-0.969-0.263-1.586-0.358-1.586-0.358c-0.499-1.076-1.004-2.148-1.518-3.218c0.041-0.078,0.075-0.159,0.115-0.237L56.154,23.507z
	 M70.192,8.548c4.591,0,8.327,3.734,8.327,8.326s-3.735,8.327-8.327,8.327s-8.327-3.735-8.327-8.327S65.601,8.548,70.192,8.548z
	 M25.808,25.201c-4.591,0-8.327-3.735-8.327-8.327s3.735-8.326,8.327-8.326s8.327,3.734,8.327,8.326S30.399,25.201,25.808,25.201z"
	/>
</svg>
