<?xml version="1.0" encoding="utf-8"?>
<!-- Generator: Adobe Illustrator 16.0.0, SVG Export Plug-In . SVG Version: 6.00 Build 0)  -->
<!DOCTYPE svg PUBLIC "-//W3C//DTD SVG 1.1//EN" "http://www.w3.org/Graphics/SVG/1.1/DTD/svg11.dtd">
<svg version="1.1" id="Layer_1" xmlns="http://www.w3.org/2000/svg" xmlns:xlink="http://www.w3.org/1999/xlink" x="0px" y="0px"
	 width="96px" height="96px" viewBox="0 0 96 96" enable-background="new 0 0 96 96" xml:space="preserve">
<path d="M92.863,73.442L59.458,40.039c-1.251-1.252-3.108-1.503-4.62-0.784l-3.319-3.319c1.331-1.629,1.256-4.02-0.263-5.538
	c-1.62-1.62-4.244-1.62-5.862,0L40.43,35.36L20.751,15.683l0.013-0.014l0.507-0.507l-3.83-6.581L8.054,1.944L7.546,2.452
	L2.452,7.547L1.945,8.055l6.636,9.388l6.582,3.827l0.507-0.505l0.012-0.014l19.679,19.68l-4.963,4.964
	c-1.619,1.617-1.62,4.241,0,5.861c1.519,1.519,3.911,1.594,5.538,0.263l3.32,3.319c-0.719,1.512-0.468,3.369,0.784,4.621
	l33.404,33.404c1.589,1.589,4.166,1.589,5.754,0l13.666-13.666C94.453,77.609,94.453,75.032,92.863,73.442z"/>
</svg>
