<?xml version="1.0" encoding="utf-8"?>
<!-- Generator: Adobe Illustrator 16.0.0, SVG Export Plug-In . SVG Version: 6.00 Build 0)  -->
<!DOCTYPE svg PUBLIC "-//W3C//DTD SVG 1.1//EN" "http://www.w3.org/Graphics/SVG/1.1/DTD/svg11.dtd">
<svg version="1.1" id="Layer_1" xmlns="http://www.w3.org/2000/svg" xmlns:xlink="http://www.w3.org/1999/xlink" x="0px" y="0px"
	 width="96px" height="96px" viewBox="0 0 96 96" enable-background="new 0 0 96 96" xml:space="preserve">
<g>
	<polygon points="59.833,2.194 56.758,10.989 75.224,23.74 	"/>
	<path d="M85.641,78.675l-10.58-10.582V29.56L51.149,13.05l3.796-10.856H7.753v92.268h67.308v-1.669
		c1.298,0.712,2.758,1.095,4.279,1.095c2.38,0,4.618-0.927,6.301-2.61C89.116,87.803,89.116,82.149,85.641,78.675z M82.194,87.369
		c-1.321,1.322-3.464,1.322-4.786,0L55.464,65.427c-0.089-0.09-0.156-0.192-0.234-0.289c-7.597,5.342-18.177,4.639-24.964-2.149
		c-7.596-7.595-7.596-19.954,0-27.549c7.597-7.595,19.955-7.595,27.549,0c6.786,6.787,7.49,17.367,2.15,24.963
		c0.095,0.078,0.197,0.146,0.289,0.236l21.94,21.942C83.517,83.904,83.517,86.047,82.194,87.369z"/>
	<circle cx="43.906" cy="49.06" r="13.586"/>
</g>
</svg>
