<?xml version="1.0" encoding="utf-8"?>
<!-- Generator: Adobe Illustrator 16.0.0, SVG Export Plug-In . SVG Version: 6.00 Build 0)  -->
<!DOCTYPE svg PUBLIC "-//W3C//DTD SVG 1.1//EN" "http://www.w3.org/Graphics/SVG/1.1/DTD/svg11.dtd">
<svg version="1.1" id="Layer_1" xmlns="http://www.w3.org/2000/svg" xmlns:xlink="http://www.w3.org/1999/xlink" x="0px" y="0px"
	 width="96px" height="96px" viewBox="0 0 96 96" enable-background="new 0 0 96 96" xml:space="preserve">
<g>
	<path d="M39.675,57.248c3.318,0,6.511-0.912,9.294-2.646l18.095,18.095c0.753,0.753,1.753,1.167,2.816,1.167
		s2.063-0.414,2.818-1.167c1.552-1.555,1.552-4.083,0-5.635L54.604,48.967c4.307-6.903,3.329-15.88-2.481-21.692
		c-3.313-3.314-7.725-5.138-12.423-5.138c-4.699,0-9.109,1.823-12.423,5.138c-3.313,3.313-5.14,7.724-5.14,12.423
		c0,4.698,1.826,9.108,5.14,12.423C30.581,55.427,34.984,57.248,39.675,57.248z M39.585,29.227c5.7,0,10.34,4.64,10.34,10.34
		c0,5.701-4.64,10.338-10.34,10.338c-5.701,0-10.338-4.637-10.338-10.338C29.247,33.866,33.884,29.227,39.585,29.227z"/>
	<path d="M15.307,2.155v91.689h65.387V2.155H15.307z M75.057,88.208H20.943V7.792h54.113V88.208z"/>
</g>
</svg>
