<?xml version="1.0" encoding="utf-8"?>
<!-- Generator: Adobe Illustrator 16.0.0, SVG Export Plug-In . SVG Version: 6.00 Build 0)  -->
<!DOCTYPE svg PUBLIC "-//W3C//DTD SVG 1.1//EN" "http://www.w3.org/Graphics/SVG/1.1/DTD/svg11.dtd">
<svg version="1.1" id="Layer_1" xmlns="http://www.w3.org/2000/svg" xmlns:xlink="http://www.w3.org/1999/xlink" x="0px" y="0px"
	 width="96px" height="96px" viewBox="0 0 96 96" enable-background="new 0 0 96 96" xml:space="preserve">
<g>
	<path d="M92.729,85.168l-34.66-34.661c-0.144-0.141-0.306-0.249-0.454-0.374c8.436-11.996,7.322-28.71-3.396-39.431
		c-11.996-11.997-31.52-11.997-43.518,0s-11.998,31.52,0,43.516C21.42,64.94,38.134,66.051,50.132,57.612
		c0.124,0.153,0.231,0.313,0.373,0.457L85.167,92.73c2.09,2.088,5.472,2.088,7.563,0C94.818,90.64,94.818,87.258,92.729,85.168z
		 M32.248,53.676c-11.852,0-21.461-9.607-21.461-21.459c0-11.854,9.609-21.462,21.461-21.462c11.85,0,21.46,9.607,21.46,21.462
		C53.708,44.068,44.098,53.676,32.248,53.676z"/>
	<path d="M37.277,15.527h-10.12l-9.505,29.256h7.84l1.529-5.654h10.598l1.488,5.654h7.794L37.277,15.527z M28.437,32.443
		l3.371-10.147l1.043,0.004l3.352,10.144H28.437z"/>
</g>
</svg>
