<?xml version="1.0" encoding="utf-8"?>
<!-- Generator: Adobe Illustrator 16.0.0, SVG Export Plug-In . SVG Version: 6.00 Build 0)  -->
<!DOCTYPE svg PUBLIC "-//W3C//DTD SVG 1.1//EN" "http://www.w3.org/Graphics/SVG/1.1/DTD/svg11.dtd">
<svg version="1.1" id="Layer_1" xmlns="http://www.w3.org/2000/svg" xmlns:xlink="http://www.w3.org/1999/xlink" x="0px" y="0px"
	 width="96px" height="96px" viewBox="0 0 96 96" enable-background="new 0 0 96 96" xml:space="preserve">
<path d="M60.092,16.8V1.562H14.369L2.707,13.747V79.2h33.201v15.238h57.385V16.8H60.092z M35.908,73.575H8.332V16.007l8.439-8.818
	h37.695V16.8H35.908v1.406H12.553v4.404h23.355v6.701c-0.59,0.301-1.164,0.633-1.723,0.992H12.553v4.402h16.73
	c-2.014,2.504-3.389,5.414-4.037,8.537H12.553v4.404h12.264c0.027,2.791,0.617,5.488,1.705,7.973H12.553v4.404h16.613
	c0.498,0.631,1.021,1.244,1.598,1.818c1.529,1.531,3.27,2.773,5.145,3.73V73.575z M76.291,74.571c1.078,1.076,1.078,2.822,0,3.898
	c-1.076,1.076-2.82,1.076-3.898,0c0,0-17.998-18.027-18.063-18.105c-6.186,4.35-14.803,3.777-20.33-1.75
	c-6.186-6.186-6.186-16.252,0-22.436c6.188-6.186,16.252-6.186,22.436,0c5.529,5.525,6.121,14.133,1.771,20.32
	C58.285,56.562,76.291,74.571,76.291,74.571z M87.668,88.813H41.535V67.46c1.18,0.211,2.385,0.332,3.607,0.332
	c2.91,0,5.734-0.605,8.336-1.771l4.838,4.838H45.754v4.404h16.967l6.436,6.438c1.371,1.371,3.193,2.125,5.133,2.125
	c1.938,0,3.762-0.754,5.131-2.125c1.748-1.748,2.414-4.172,2.002-6.438h2.027v-4.404h-4.607l-7.971-7.973h12.578v-4.404H66.467
	l-2.721-2.723c0.842-1.871,1.381-3.832,1.627-5.813h18.076v-4.404h-18.01c-0.25-2.668-1.025-5.285-2.314-7.693h20.324v-4.402H59.938
	c-0.125-0.133-0.242-0.273-0.371-0.402c-3.842-3.842-8.957-5.959-14.4-5.959c-1.232,0-2.445,0.123-3.631,0.336v-4.994h46.133V88.813
	z"/>
</svg>
