<?xml version="1.0" encoding="utf-8"?>
<!-- Generator: Adobe Illustrator 16.0.0, SVG Export Plug-In . SVG Version: 6.00 Build 0)  -->
<!DOCTYPE svg PUBLIC "-//W3C//DTD SVG 1.1//EN" "http://www.w3.org/Graphics/SVG/1.1/DTD/svg11.dtd">
<svg version="1.1" id="Layer_1" xmlns="http://www.w3.org/2000/svg" xmlns:xlink="http://www.w3.org/1999/xlink" x="0px" y="0px"
	 width="96px" height="96px" viewBox="0 0 96 96" enable-background="new 0 0 96 96" xml:space="preserve">
<g>
	<path d="M15.25,2.075v91.85h65.5V2.075H15.25z M73.006,72.74c-0.756,0.754-1.758,1.169-2.822,1.169
		c-1.065,0-2.067-0.415-2.822-1.169L49.235,54.613c-2.788,1.737-5.986,2.651-9.31,2.651c-4.698,0-9.109-1.825-12.421-5.138
		c-3.319-3.318-5.147-7.737-5.147-12.443c0-4.707,1.828-9.126,5.147-12.444c3.319-3.319,7.738-5.147,12.444-5.147
		c4.707,0,9.126,1.828,12.444,5.147c5.822,5.823,6.802,14.815,2.487,21.73l18.125,18.126C74.561,68.65,74.562,71.183,73.006,72.74z"
		/>
	<path d="M39.836,29.195c-5.711,0-10.357,4.646-10.357,10.357c0,5.71,4.646,10.356,10.357,10.356c5.71,0,10.356-4.646,10.356-10.356
		C50.192,33.842,45.546,29.195,39.836,29.195z"/>
</g>
</svg>
