<?xml version="1.0" encoding="utf-8"?>
<!-- Generator: Adobe Illustrator 16.0.0, SVG Export Plug-In . SVG Version: 6.00 Build 0)  -->
<!DOCTYPE svg PUBLIC "-//W3C//DTD SVG 1.1//EN" "http://www.w3.org/Graphics/SVG/1.1/DTD/svg11.dtd">
<svg version="1.1" id="Layer_1" xmlns="http://www.w3.org/2000/svg" xmlns:xlink="http://www.w3.org/1999/xlink" x="0px" y="0px"
	 width="96px" height="96px" viewBox="0 0 96 96" enable-background="new 0 0 96 96" xml:space="preserve">
<g>
	<rect x="22.503" y="14.82" width="50.582" height="10.172"/>
	<rect x="15.786" y="33.227" width="64.698" height="10.172"/>
	<rect x="15.786" y="52.602" width="64.736" height="10.172"/>
	<rect x="15.478" y="71.008" width="65.007" height="10.172"/>
	<polygon points="87.473,89.424 78.319,89.424 78.319,94 92.049,94 92.049,80.271 87.473,80.271 	"/>
	<rect x="37.894" y="89.424" width="20.212" height="4.576"/>
	<polygon points="8.527,80.271 3.951,80.271 3.951,94 17.681,94 17.681,89.424 8.527,89.424 	"/>
	<rect x="3.951" y="37.242" width="4.577" height="21.515"/>
	<polygon points="8.527,6.576 17.681,6.576 17.681,2 3.951,2 3.951,15.729 8.527,15.729 	"/>
	<rect x="37.893" y="2" width="20.213" height="4.576"/>
	<polygon points="78.319,2 78.319,6.576 87.473,6.576 87.473,15.729 92.049,15.729 92.049,2 	"/>
	<rect x="87.473" y="37.243" width="4.577" height="21.515"/>
</g>
</svg>
