<?xml version="1.0" encoding="utf-8"?>
<!-- Generator: Adobe Illustrator 16.0.0, SVG Export Plug-In . SVG Version: 6.00 Build 0)  -->
<!DOCTYPE svg PUBLIC "-//W3C//DTD SVG 1.1//EN" "http://www.w3.org/Graphics/SVG/1.1/DTD/svg11.dtd">
<svg version="1.1" id="Layer_1" xmlns="http://www.w3.org/2000/svg" xmlns:xlink="http://www.w3.org/1999/xlink" x="0px" y="0px"
	 width="96px" height="96px" viewBox="0 0 96 96" enable-background="new 0 0 96 96" xml:space="preserve">
<path d="M61.697,8.087c0-4.046-6.133-7.325-13.697-7.325S34.303,4.041,34.303,8.087H28.25V90.64H39.4v4.599h17.2V90.64H67.75V8.087
	H61.697z M48,82.282c-5.41,0-9.795-4.385-9.795-9.795c0-5.409,4.385-9.794,9.795-9.794c5.41,0,9.795,4.385,9.795,9.794
	C57.795,77.897,53.41,82.282,48,82.282z M48,57.438c-5.41,0-9.795-4.387-9.795-9.796c0-5.41,4.385-9.795,9.795-9.795
	c5.41,0,9.795,4.385,9.795,9.795C57.795,53.051,53.41,57.438,48,57.438z M48,33.307c-5.41,0-9.795-4.385-9.795-9.794
	c0-5.41,4.385-9.795,9.795-9.795c5.41,0,9.795,4.385,9.795,9.795C57.795,28.922,53.41,33.307,48,33.307z"/>
</svg>
