<?xml version="1.0" encoding="utf-8"?>
<!-- Generator: Adobe Illustrator 16.0.0, SVG Export Plug-In . SVG Version: 6.00 Build 0)  -->
<!DOCTYPE svg PUBLIC "-//W3C//DTD SVG 1.1//EN" "http://www.w3.org/Graphics/SVG/1.1/DTD/svg11.dtd">
<svg version="1.1" id="Layer_1" xmlns="http://www.w3.org/2000/svg" xmlns:xlink="http://www.w3.org/1999/xlink" x="0px" y="0px"
	 width="96px" height="96px" viewBox="0 0 96 96" enable-background="new 0 0 96 96" xml:space="preserve">
<g>
	<polygon points="14.435,8.698 64.014,8.698 64.014,11.911 68.423,11.911 68.423,1.075 64.014,1.075 64.014,4.29 14.435,4.29 
		14.435,1.075 10.024,1.075 10.024,11.911 14.435,11.911 	"/>
	<polygon points="86.232,22.599 86.232,18.19 75.394,18.19 75.394,22.599 78.609,22.599 78.609,90.517 75.394,90.517 75.394,94.925 
		86.232,94.925 86.232,90.517 83.018,90.517 83.018,22.599 	"/>
	<path d="M9.768,94.925H68.68V18.19H9.768V94.925z M14.545,22.968h49.358v67.182H14.545V22.968z"/>
</g>
</svg>
