<?xml version="1.0" encoding="utf-8"?>
<!-- Generator: Adobe Illustrator 16.0.0, SVG Export Plug-In . SVG Version: 6.00 Build 0)  -->
<!DOCTYPE svg PUBLIC "-//W3C//DTD SVG 1.1//EN" "http://www.w3.org/Graphics/SVG/1.1/DTD/svg11.dtd">
<svg version="1.1" id="Layer_1" xmlns="http://www.w3.org/2000/svg" xmlns:xlink="http://www.w3.org/1999/xlink" x="0px" y="0px"
	 width="96px" height="96px" viewBox="0 0 96 96" enable-background="new 0 0 96 96" xml:space="preserve">
<g>
	<path d="M69.081,22.662c-3.084,0-5.595,2.508-5.595,5.594c0,3.084,2.511,5.592,5.595,5.592c3.083,0,5.594-2.508,5.594-5.592
		C74.675,25.17,72.164,22.662,69.081,22.662z"/>
	<path d="M87.777,20.182c0.064-0.381,0.098-0.77,0.098-1.158c0-1.879-0.731-3.646-2.061-4.975l-2.848-2.848
		c-1.553-1.561-3.914-2.303-6.125-1.947c-1.276-1.799-3.374-2.975-5.742-2.975H67.06c-2.361,0-4.455,1.17-5.732,2.961
		c-2.196-0.365-4.557,0.383-6.123,1.951l-2.859,2.857c-1.666,1.666-2.32,3.967-1.962,6.133c-1.056,0.756-1.887,1.801-2.396,3.014
		h-2.224H21.841l-1.394-6.893L6.519,13.979l-1.245,7.469l8.785,1.463l9.32,44.965l-4.092,13.01h5.658
		c-0.32,0.773-0.5,1.627-0.5,2.523c0,3.486,2.656,6.313,5.934,6.313c3.276,0,5.932-2.826,5.932-6.313c0-0.896-0.18-1.75-0.496-2.523
		h31.289c-0.318,0.773-0.496,1.627-0.496,2.523c0,3.486,2.654,6.313,5.932,6.313c3.274,0,5.931-2.826,5.931-6.313
		c0-0.896-0.18-1.75-0.498-2.523h5.017v-7.57H29.604l0.766-2.43l53.035-22.191v-4.482l2.41-2.408
		c1.667-1.666,2.321-3.967,1.963-6.133c1.784-1.277,2.949-3.367,2.949-5.725v-4.041C90.727,23.549,89.562,21.459,87.777,20.182z
		 M85.227,30.275c0,0.848-0.688,1.537-1.536,1.537h-2.443c-0.255,0.879-0.606,1.727-1.047,2.531l1.726,1.727
		c0.6,0.6,0.6,1.574,0,2.174L79.067,41.1c-0.579,0.58-1.591,0.58-2.17,0l-1.729-1.727c-0.803,0.443-1.653,0.793-2.532,1.049v2.443
		c0,0.848-0.688,1.535-1.536,1.535H67.06c-0.847,0-1.535-0.688-1.535-1.535v-2.443c-0.879-0.256-1.729-0.605-2.533-1.049
		L61.264,41.1c-0.557,0.561-1.613,0.559-2.17,0l-2.858-2.855c-0.29-0.291-0.449-0.676-0.449-1.088c0-0.404,0.164-0.801,0.45-1.086
		l1.726-1.727c-0.441-0.805-0.793-1.652-1.048-2.531h-2.443c-0.848,0-1.536-0.689-1.536-1.537v-4.041
		c0-0.848,0.688-1.535,1.536-1.535h2.443c0.255-0.879,0.606-1.729,1.048-2.533l-1.727-1.727c-0.6-0.6-0.6-1.572,0-2.172l2.858-2.857
		c0.579-0.58,1.591-0.58,2.17,0l1.728,1.727c0.804-0.443,1.654-0.793,2.533-1.049v-2.443c0-0.846,0.688-1.535,1.535-1.535h4.041
		c0.848,0,1.536,0.689,1.536,1.535v2.443c0.879,0.256,1.729,0.605,2.532,1.049l1.729-1.727c0.558-0.559,1.614-0.559,2.17,0
		l2.858,2.857c0.29,0.289,0.449,0.676,0.449,1.086c0,0.404-0.164,0.801-0.45,1.086L80.2,22.166c0.44,0.805,0.792,1.654,1.047,2.533
		h2.443c0.848,0,1.536,0.688,1.536,1.535V30.275z"/>
</g>
</svg>
