<?xml version="1.0" encoding="utf-8"?>
<!-- Generator: Adobe Illustrator 16.0.0, SVG Export Plug-In . SVG Version: 6.00 Build 0)  -->
<!DOCTYPE svg PUBLIC "-//W3C//DTD SVG 1.1//EN" "http://www.w3.org/Graphics/SVG/1.1/DTD/svg11.dtd">
<svg version="1.1" id="Layer_1" xmlns="http://www.w3.org/2000/svg" xmlns:xlink="http://www.w3.org/1999/xlink" x="0px" y="0px"
	 width="96px" height="96px" viewBox="0 0 96 96" enable-background="new 0 0 96 96" xml:space="preserve">
<path d="M90.115,29.961L72.674,7.916c-1.043-1.318-2.631-2.088-4.313-2.088s-3.27,0.77-4.314,2.088l-12.445,15.73h-1.945h-4.738
	H20.996l-1.395-6.893L5.674,14.43l-1.246,7.469l8.785,1.463l9.32,44.965l-4.092,13.01H24.1c-0.32,0.773-0.5,1.627-0.5,2.523
	c0,3.486,2.656,6.313,5.934,6.313s5.932-2.826,5.932-6.313c0-0.896-0.18-1.75-0.496-2.523h31.289
	c-0.318,0.773-0.496,1.627-0.496,2.523c0,3.486,2.654,6.313,5.932,6.313c3.275,0,5.932-2.826,5.932-6.313
	c0-0.896-0.18-1.75-0.498-2.523h5.016v-7.57H28.76l0.766-2.43l28-11.717c0.734,2.172,2.787,3.738,5.207,3.738H73.99
	c3.037,0,5.5-2.463,5.5-5.5V50.43l-0.045-11.217l3.115-0.023h3.492c0.008,0,0.016,0.002,0.02,0c3.037,0,5.5-2.463,5.5-5.5
	C91.572,32.252,91.02,30.941,90.115,29.961z M73.99,34.189v24.168H62.732V34.189H50.668l17.693-22.361l17.691,22.361H73.99z"/>
</svg>
