<?xml version="1.0" encoding="utf-8"?>
<!-- Generator: Adobe Illustrator 16.0.0, SVG Export Plug-In . SVG Version: 6.00 Build 0)  -->
<!DOCTYPE svg PUBLIC "-//W3C//DTD SVG 1.1//EN" "http://www.w3.org/Graphics/SVG/1.1/DTD/svg11.dtd">
<svg version="1.1" id="Layer_1" xmlns="http://www.w3.org/2000/svg" xmlns:xlink="http://www.w3.org/1999/xlink" x="0px" y="0px"
	 width="96px" height="96px" viewBox="0 0 96 96" enable-background="new 0 0 96 96" xml:space="preserve">
<g>
	<path d="M69.734,33.08c-1.75,0-3.168,1.418-3.168,3.168c0,1.086,0.546,2.043,1.379,2.613v4.838h3.579v-4.838
		c0.832-0.57,1.378-1.527,1.378-2.613C72.902,34.498,71.484,33.08,69.734,33.08z"/>
	<path d="M86.039,20.682c-0.773-8.248-7.736-14.725-16.184-14.725c-8.446,0-15.409,6.477-16.183,14.725
		c-1.348,0.51-2.435,1.537-3.037,2.836h-3.741H22.972l-1.394-6.893L7.649,14.301L6.404,21.77l8.785,1.463l9.32,44.965l-4.092,13.01
		h5.658c-0.32,0.773-0.5,1.627-0.5,2.523c0,3.486,2.656,6.313,5.934,6.313c3.276,0,5.932-2.826,5.932-6.313
		c0-0.896-0.18-1.75-0.496-2.523h31.289c-0.318,0.773-0.496,1.627-0.496,2.523c0,3.486,2.654,6.313,5.932,6.313
		c3.274,0,5.931-2.826,5.931-6.313c0-0.896-0.18-1.75-0.498-2.523h5.017v-7.57H30.735l0.766-2.43l43.014-17.998h9.581
		c3.038,0,5.5-2.463,5.5-5.5V25.828C89.596,23.475,88.118,21.467,86.039,20.682z M84.073,47.205H55.396V25.17h20.672v-3.643
		c0-3.492-2.841-6.332-6.333-6.332s-6.332,2.84-6.332,6.332h-4.498c0-5.971,4.858-10.83,10.83-10.83
		c5.971,0,10.83,4.859,10.83,10.83v3.643h3.509V47.205z"/>
</g>
</svg>
