<?xml version="1.0" encoding="utf-8"?>
<!-- Generator: Adobe Illustrator 16.0.0, SVG Export Plug-In . SVG Version: 6.00 Build 0)  -->
<!DOCTYPE svg PUBLIC "-//W3C//DTD SVG 1.1//EN" "http://www.w3.org/Graphics/SVG/1.1/DTD/svg11.dtd">
<svg version="1.1" id="Layer_1" xmlns="http://www.w3.org/2000/svg" xmlns:xlink="http://www.w3.org/1999/xlink" x="0px" y="0px"
	 width="96px" height="96px" viewBox="0 0 96 96" enable-background="new 0 0 96 96" xml:space="preserve">
<path d="M62.098,56.721l3.779,4.777c1.043,1.318,2.631,2.088,4.313,2.088s3.27-0.77,4.314-2.088l17.693-22.361
	c1.309-1.654,1.555-3.91,0.637-5.809s-2.842-3.104-4.951-3.104h-6.564V11.557c0-3.037-2.463-5.5-5.5-5.5H64.561
	c-3.037,0-5.5,2.463-5.5,5.5v11.861H47.846h-4.738H19.186l-1.395-6.893L3.863,14.201L2.617,21.67l8.785,1.463l9.32,44.965
	l-4.092,13.01h5.658c-0.32,0.773-0.5,1.627-0.5,2.523c0,3.486,2.656,6.313,5.934,6.313s5.932-2.826,5.932-6.313
	c0-0.896-0.18-1.75-0.496-2.523h31.289c-0.318,0.773-0.496,1.627-0.496,2.523c0,3.486,2.654,6.313,5.932,6.313
	c3.275,0,5.932-2.826,5.932-6.313c0-0.896-0.18-1.75-0.498-2.523h5.016v-7.57H26.949l0.766-2.43L62.098,56.721z M64.637,35.225
	V11.057h11.258v24.168h12.064L70.266,57.586L52.574,35.225H64.637z"/>
</svg>
