<?xml version="1.0" encoding="utf-8"?>
<!-- Generator: Adobe Illustrator 16.0.0, SVG Export Plug-In . SVG Version: 6.00 Build 0)  -->
<!DOCTYPE svg PUBLIC "-//W3C//DTD SVG 1.1//EN" "http://www.w3.org/Graphics/SVG/1.1/DTD/svg11.dtd">
<svg version="1.1" id="Layer_1" xmlns="http://www.w3.org/2000/svg" xmlns:xlink="http://www.w3.org/1999/xlink" x="0px" y="0px"
	 width="96px" height="96px" viewBox="0 0 96 96" enable-background="new 0 0 96 96" xml:space="preserve">
<path d="M90.09,25.906L67.729,8.215c-1.654-1.307-3.912-1.557-5.809-0.639c-1.898,0.92-3.105,2.844-3.105,4.951v6.564H40.146
	c-2.275,0-4.229,1.383-5.064,3.355H20.393l-1.395-6.893L5.07,13.23l-1.246,7.469l8.785,1.463l9.32,44.965l-4.092,13.01h5.658
	c-0.32,0.773-0.5,1.627-0.5,2.523c0,3.486,2.656,6.313,5.934,6.313s5.932-2.826,5.932-6.313c0-0.896-0.18-1.75-0.496-2.523h31.289
	c-0.318,0.773-0.496,1.627-0.496,2.523c0,3.486,2.654,6.313,5.932,6.313c3.275,0,5.932-2.826,5.932-6.313
	c0-0.896-0.18-1.75-0.498-2.523h5.016v-7.57H28.156l0.766-2.43l53.035-22.191v-5.818v-1.158l8.133-6.436
	c1.318-1.043,2.086-2.631,2.086-4.313S91.408,26.949,90.09,25.906z M64.387,47.799V35.736H40.219V24.479h24.168V12.414
	l22.361,17.693L64.387,47.799z"/>
</svg>
