<?xml version="1.0" encoding="utf-8"?>
<!-- Generator: Adobe Illustrator 16.0.0, SVG Export Plug-In . SVG Version: 6.00 Build 0)  -->
<!DOCTYPE svg PUBLIC "-//W3C//DTD SVG 1.1//EN" "http://www.w3.org/Graphics/SVG/1.1/DTD/svg11.dtd">
<svg version="1.1" id="Layer_1" xmlns="http://www.w3.org/2000/svg" xmlns:xlink="http://www.w3.org/1999/xlink" x="0px" y="0px"
	 width="96px" height="96px" viewBox="0 0 96 96" enable-background="new 0 0 96 96" xml:space="preserve">
<g>
	<g>
		<path d="M74.486,15.238c-2.387,0-4.402,0.672-5.611,1.377l1.143,3.662c0.874-0.605,2.217-1.008,3.326-1.008
			c1.679,0.066,2.452,0.84,2.452,2.016c0,1.143-0.874,2.219-1.949,3.494c-1.512,1.814-2.083,3.561-1.981,5.273l0.034,0.875h4.467
			v-0.605c-0.034-1.512,0.47-2.822,1.714-4.201c1.276-1.408,2.855-3.09,2.855-5.643C80.936,17.691,78.92,15.238,74.486,15.238z"/>
		<path d="M74.015,32.506c-1.747,0-2.99,1.277-2.99,3.057c0,1.746,1.21,3.057,2.99,3.057c1.814,0,3.023-1.311,3.023-3.057
			C77.005,33.783,75.829,32.506,74.015,32.506z"/>
	</g>
	<path d="M74.096,7.484c-9.074,0-16.717,6.156-19.021,14.508h-7.691h-4.738H18.723L17.328,15.1L3.4,12.775l-1.246,7.469l8.785,1.463
		l9.32,44.965l-4.092,13.01h5.658c-0.32,0.773-0.5,1.627-0.5,2.523c0,3.486,2.656,6.313,5.934,6.313s5.932-2.826,5.932-6.313
		c0-0.896-0.18-1.75-0.496-2.523h31.289c-0.318,0.773-0.496,1.627-0.496,2.523c0,3.486,2.654,6.313,5.932,6.313
		c3.275,0,5.932-2.826,5.932-6.313c0-0.896-0.18-1.75-0.498-2.523h5.016v-7.57H26.486l0.766-2.43L80.287,47.49v-1.516
		c7.863-2.604,13.559-10.014,13.559-18.74C93.846,16.344,84.986,7.484,74.096,7.484z M74.096,40.984
		c-7.582,0-13.75-6.168-13.75-13.75s6.168-13.75,13.75-13.75s13.75,6.168,13.75,13.75S81.678,40.984,74.096,40.984z"/>
</g>
</svg>
