<?xml version="1.0" encoding="utf-8"?>
<!-- Generator: Adobe Illustrator 16.0.0, SVG Export Plug-In . SVG Version: 6.00 Build 0)  -->
<!DOCTYPE svg PUBLIC "-//W3C//DTD SVG 1.1//EN" "http://www.w3.org/Graphics/SVG/1.1/DTD/svg11.dtd">
<svg version="1.1" id="Layer_1" xmlns="http://www.w3.org/2000/svg" xmlns:xlink="http://www.w3.org/1999/xlink" x="0px" y="0px"
	 width="96px" height="96px" viewBox="0 0 96 96" enable-background="new 0 0 96 96" xml:space="preserve">
<g>
	<polygon points="76.42,16.186 71.625,16.186 71.625,31.967 85.082,31.967 85.082,27.17 76.42,27.17 	"/>
	<path d="M74.095,7.484c-9.073,0-16.717,6.156-19.021,14.508h-7.691h-4.737H18.722L17.329,15.1L3.4,12.775l-1.245,7.469l8.785,1.463
		l9.32,44.965l-4.092,13.01h5.658c-0.32,0.773-0.5,1.627-0.5,2.523c0,3.486,2.656,6.313,5.934,6.313
		c3.276,0,5.932-2.826,5.932-6.313c0-0.896-0.18-1.75-0.496-2.523h31.289c-0.318,0.773-0.496,1.627-0.496,2.523
		c0,3.486,2.654,6.313,5.932,6.313c3.274,0,5.931-2.826,5.931-6.313c0-0.896-0.18-1.75-0.498-2.523h5.017v-7.57H26.486l0.766-2.43
		L80.287,47.49v-1.516c7.864-2.604,13.559-10.014,13.559-18.74C93.845,16.344,84.986,7.484,74.095,7.484z M74.095,40.984
		c-7.582,0-13.75-6.168-13.75-13.75s6.168-13.75,13.75-13.75s13.75,6.168,13.75,13.75S81.677,40.984,74.095,40.984z"/>
</g>
</svg>
