<?xml version="1.0" encoding="utf-8"?>
<!-- Generator: Adobe Illustrator 16.0.0, SVG Export Plug-In . SVG Version: 6.00 Build 0)  -->
<!DOCTYPE svg PUBLIC "-//W3C//DTD SVG 1.1//EN" "http://www.w3.org/Graphics/SVG/1.1/DTD/svg11.dtd">
<svg version="1.1" id="Layer_1" xmlns="http://www.w3.org/2000/svg" xmlns:xlink="http://www.w3.org/1999/xlink" x="0px" y="0px"
	 width="96px" height="96px" viewBox="0 0 96 96" enable-background="new 0 0 96 96" xml:space="preserve">
<g>
	<path d="M74.602,61.931c-0.963-2.457-1.91-5.17-2.982-8.537l-0.174-0.551l0.24-0.523c0.951-2.061,1.879-4.197,2.758-6.351
		c4.828-11.813,8.223-24.134,10.666-38.726H70.064c-1.309,7.093-2.826,13.552-4.627,19.711l-1.115,3.806l-1.666-3.598
		c-0.809-1.745-1.613-3.318-2.461-4.809C54.947,13.12,45.553,7.607,35.063,7.607c-1.926,0-3.879,0.189-5.809,0.561
		c-10.197,1.969-18.83,9.624-23.686,21.002c-5.844,13.703-6.316,29.33-1.23,40.782c3.719,8.372,10.027,14.14,18.746,17.144
		c13.545,4.665,26.082-0.494,37.229-15.248l1.557-2.061l1.166,2.773c2.33,5.355,5.58,10.169,10.205,15.1h21.932
		C86.293,80.199,79.143,73.527,74.602,61.931z M55.592,51.783c-1.441,2.753-2.871,5.246-4.369,7.62
		c-5.906,9.366-12.416,14.114-19.348,14.114c-1.146,0-2.314-0.135-3.473-0.398C17.109,70.537,15.76,59.645,15.727,51.677
		c-0.033-8.473,2.633-20.395,10.258-26.116c2.838-2.13,5.764-3.21,8.695-3.21c5.734,0,11.246,4.299,14.748,11.5
		c2.672,5.49,4.592,11.322,6.27,16.805l0.178,0.585L55.592,51.783z"/>
</g>
</svg>
