<?xml version="1.0" encoding="utf-8"?>
<!-- Generator: Adobe Illustrator 16.0.0, SVG Export Plug-In . SVG Version: 6.00 Build 0)  -->
<!DOCTYPE svg PUBLIC "-//W3C//DTD SVG 1.1//EN" "http://www.w3.org/Graphics/SVG/1.1/DTD/svg11.dtd">
<svg version="1.1" id="Layer_1" xmlns="http://www.w3.org/2000/svg" xmlns:xlink="http://www.w3.org/1999/xlink" x="0px" y="0px"
	 width="96px" height="96px" viewBox="0 0 96 96" enable-background="new 0 0 96 96" xml:space="preserve">
<path d="M95.375,18.661H52.65c-1.158-4.996-2.624-9.657-4.466-14.118l-9.612,3.97c1.333,3.226,2.429,6.597,3.356,10.148H0.625
	v10.399h43.417c0.42,2.848,0.744,5.836,0.979,8.988c-10.819-7.305-22.103-6.115-28.94-2.516c-6.18,3.254-9.637,8.68-9.024,14.156
	c0.384,3.431,2.736,9.639,14.178,12.701c0,0,2.123,0.508,4.439,0.439c8.281-0.241,14.745-2.543,19.768-5.832
	c-0.08,4.936-0.249,9.882-0.427,14.739l-0.481,6.432l10.399,13.288c0-6.346,0.242-12.952,0.476-19.342
	c0.286-7.826,0.555-15.883,0.435-23.877c13.316-6.749,19.164-6.304,21.513-5.362c1.048,0.418,2.903,1.136,3.754,3.872
	c0.968,3.111-0.827,4.683-1.167,5.063c-2.121,2.367-8.374,3.381-14.147,2.197l-2.084,10.189c2.271,0.464,4.733,0.721,7.224,0.721
	c6.521,0,13.232-1.763,17.174-6.183c2.445-2.738,4.842-7.583,2.387-15.111c-1.644-5.038-4.854-8.638-9.283-10.407
	c-6.255-2.497-14.76-1.273-25.847,3.729c-0.209-2.734-0.485-5.356-0.826-7.886h40.834V18.661z M17.392,48.535
	c-0.083-0.738,0.983-2.455,3.534-3.799c4.47-2.354,12.198-2.889,19.725,2.983C35.882,51.17,20.46,53.856,17.392,48.535z"/>
</svg>
