<?xml version="1.0" encoding="utf-8"?>
<!-- Generator: Adobe Illustrator 16.0.4, SVG Export Plug-In . SVG Version: 6.00 Build 0)  -->
<!DOCTYPE svg PUBLIC "-//W3C//DTD SVG 1.1//EN" "http://www.w3.org/Graphics/SVG/1.1/DTD/svg11.dtd">
<svg version="1.1" id="Layer_1" xmlns="http://www.w3.org/2000/svg" xmlns:xlink="http://www.w3.org/1999/xlink" x="0px" y="0px"
	 width="96px" height="96px" viewBox="0 0 96 96" enable-background="new 0 0 96 96" xml:space="preserve">
<path d="M48.329,62.984l12.075,12.079L48.325,87.14L36.25,75.061L48.329,62.984z M71.877,8.865l-4.432,14.99
	c8.016,2.367,10.621,11.765,11.445,18.557H28.732c-7.52,0-10.984-1.62-11.67-3.008c-1.557-3.159,2.457-12.252,7.084-18.268
	l-12.365-9.564C9.145,14.974-3.664,32.63,3.023,46.281C6.85,54.087,15.5,58.043,28.732,58.043H94.38l0.451-7.336
	C94.918,49.302,96.662,16.189,71.877,8.865z"/>
</svg>
