<?xml version="1.0" encoding="utf-8"?>
<!-- Generator: Adobe Illustrator 16.0.0, SVG Export Plug-In . SVG Version: 6.00 Build 0)  -->
<!DOCTYPE svg PUBLIC "-//W3C//DTD SVG 1.1//EN" "http://www.w3.org/Graphics/SVG/1.1/DTD/svg11.dtd">
<svg version="1.1" id="Layer_1" xmlns="http://www.w3.org/2000/svg" xmlns:xlink="http://www.w3.org/1999/xlink" x="0px" y="0px"
	 width="96px" height="96px" viewBox="0 0 96 96" enable-background="new 0 0 96 96" xml:space="preserve">
<path d="M80.604,75.871c-1.344-2.851-2.58-6.051-3.717-9.088l-0.566-1.541c-1.012-2.761-2.061-5.615-3.369-8.436
	c-0.818-1.766-1.779-3.452-2.855-5.014c-0.195-0.279-0.402-0.562-0.625-0.85c0.367-0.36,0.691-0.72,0.99-1.092
	c1.41-1.621,2.596-3.613,3.393-5.716c0.688-1.698,1.217-3.568,1.658-5.856c0.391-2.004,0.641-3.918,0.836-5.526l0.174-1.405
	c0.361-2.943,0.703-5.723,1.35-8.009c0.344-1.208,0.789-2.293,1.283-3.131c0.592-0.872,1.141-1.218,1.141-1.218
	c1.186-0.695,3.115,0.167,3.115,0.167l0.291,0.106c1.504,0.533,3.131,0.62,4.691,0.246c4.434-1.063,7.178-5.537,6.115-9.973
	c-0.895-3.736-4.201-6.347-8.039-6.347c-15.303,0-19.043,15.558-19.441,17.651c-0.383,2.137-0.666,4.244-0.938,6.281
	c-0.188,1.396-0.371,2.768-0.582,4.102c-0.242,1.492-0.523,3.076-0.936,4.5c-0.346,1.335-0.814,2.535-1.363,3.509
	c-0.432,0.817-0.943,1.438-1.584,1.933c0,0-1.551,1.192-4.918,0.685c-2.883-0.476-1.943-0.369-2.145-0.413V3.19H41.438v38.247
	c-0.201,0.044,0.738-0.063-2.145,0.413c-3.367,0.507-4.918-0.685-4.918-0.685c-0.641-0.494-1.152-1.115-1.584-1.933
	c-0.549-0.974-1.018-2.174-1.363-3.509c-0.412-1.424-0.693-3.008-0.936-4.5c-0.211-1.334-0.395-2.706-0.582-4.102
	c-0.271-2.037-0.555-4.145-0.938-6.281C28.574,18.748,24.834,3.19,9.531,3.19c-3.838,0-7.145,2.61-8.039,6.347
	c-1.063,4.436,1.682,8.91,6.115,9.973c1.561,0.374,3.188,0.287,4.691-0.246l0.291-0.106c0,0,1.93-0.862,3.115-0.167
	c0,0,0.549,0.346,1.141,1.218c0.494,0.838,0.939,1.923,1.283,3.131c0.646,2.286,0.988,5.065,1.35,8.009l0.174,1.405
	c0.195,1.608,0.445,3.522,0.836,5.526c0.441,2.288,0.971,4.158,1.658,5.856c0.797,2.103,1.982,4.095,3.393,5.716
	c0.299,0.372,0.623,0.731,0.99,1.092c-0.223,0.288-0.43,0.57-0.625,0.85c-1.076,1.562-2.037,3.248-2.855,5.014
	c-1.309,2.82-2.357,5.675-3.369,8.436l-0.566,1.541c-1.137,3.037-2.373,6.237-3.717,9.088c-0.037,0.078-3.648,7.891-10.309,14.572
	L2.729,92.81h19.711l-0.41-1.71c-0.568-2.365,1.363-6.539,2.643-9.302c0.234-0.51,0.455-0.987,0.646-1.417
	c1.188-2.668,2.391-5.494,3.578-8.279l0.502-1.179c1.504-3.456,2.791-6.208,4.176-8.391c0.746-1.152,1.467-2.063,2.139-2.702
	c0,0,2.959-2.971,6.021-2.283l0.004,35.228h12.523l0.004-35.228c3.063-0.688,6.021,2.283,6.021,2.283
	c0.672,0.64,1.393,1.55,2.139,2.702c1.385,2.183,2.672,4.935,4.176,8.391l0.502,1.179c1.188,2.785,2.391,5.611,3.578,8.279
	c0.191,0.43,0.412,0.907,0.646,1.417c1.279,2.763,3.211,6.937,2.643,9.302l-0.41,1.71h19.711l-2.359-2.366
	C84.252,83.762,80.641,75.949,80.604,75.871z"/>
</svg>
