<?xml version="1.0" encoding="utf-8"?>
<!-- Generator: Adobe Illustrator 16.0.0, SVG Export Plug-In . SVG Version: 6.00 Build 0)  -->
<!DOCTYPE svg PUBLIC "-//W3C//DTD SVG 1.1//EN" "http://www.w3.org/Graphics/SVG/1.1/DTD/svg11.dtd">
<svg version="1.1" id="Layer_1" xmlns="http://www.w3.org/2000/svg" xmlns:xlink="http://www.w3.org/1999/xlink" x="0px" y="0px"
	 width="96px" height="96px" viewBox="0 0 96 96" enable-background="new 0 0 96 96" xml:space="preserve">
<g>
	<rect x="3.634" y="21.574" width="28.731" height="19.68"/>
	<rect x="3.634" y="48.155" width="28.731" height="19.68"/>
	<rect x="3.634" y="75.596" width="28.731" height="19.68"/>
	<rect x="39.209" y="75.596" width="28.731" height="19.68"/>
	<path d="M86.372,20.677l5.994-6.001L78.398,0.724l-11.018,11.02l0.031,0.03l-9.801,9.8H39.209v19.68h3.824l-2.128,6.9h-1.696v19.68
		H67.94v-19.68h-9.547l0.764-0.218l6.688-6.682h2.096V39.16l18.465-18.45L86.372,20.677z M56.452,43.823l-10.289,2.948l3.153-10.224
		l22.906-22.905l7.225,7.205L56.452,43.823z M81.12,19.111l-7.201-7.227l4.277-4.278l7.216,7.207L81.12,19.111z"/>
</g>
</svg>
