<?xml version="1.0" encoding="utf-8"?>
<!-- Generator: Adobe Illustrator 16.0.0, SVG Export Plug-In . SVG Version: 6.00 Build 0)  -->
<!DOCTYPE svg PUBLIC "-//W3C//DTD SVG 1.1//EN" "http://www.w3.org/Graphics/SVG/1.1/DTD/svg11.dtd">
<svg version="1.1" id="Layer_1" xmlns="http://www.w3.org/2000/svg" xmlns:xlink="http://www.w3.org/1999/xlink" x="0px" y="0px"
	 width="96px" height="96px" viewBox="0 0 96 96" enable-background="new 0 0 96 96" xml:space="preserve">
<path d="M94.705,92.123V3.879c0-1.426-1.156-2.582-2.582-2.582H3.879c-1.426,0-2.584,1.156-2.584,2.582v88.244
	c0,1.426,1.158,2.584,2.584,2.584h88.244C93.549,94.707,94.705,93.549,94.705,92.123z M11.51,18.734c0-3.5,2.838-6.34,6.34-6.34
	c3.504,0,6.342,2.84,6.342,6.34c0,3.502-2.838,6.342-6.342,6.342C14.348,25.076,11.51,22.236,11.51,18.734z M42.367,18.734
	c0-3.5,2.838-6.34,6.342-6.34s6.34,2.84,6.34,6.34c0,3.502-2.836,6.342-6.34,6.342S42.367,22.236,42.367,18.734z M11.51,48.002
	c0-3.502,2.838-6.342,6.34-6.342c3.504,0,6.342,2.84,6.342,6.342s-2.838,6.34-6.342,6.34C14.348,54.342,11.51,51.504,11.51,48.002z
	 M42.367,48.002c0-3.502,2.838-6.342,6.342-6.342s6.34,2.84,6.34,6.342s-2.836,6.34-6.34,6.34S42.367,51.504,42.367,48.002z
	 M11.51,77.268c0-3.502,2.838-6.34,6.34-6.34c3.504,0,6.342,2.838,6.342,6.34c0,3.5-2.838,6.34-6.342,6.34
	C14.348,83.607,11.51,80.768,11.51,77.268z M42.367,77.268c0-3.502,2.838-6.34,6.342-6.34s6.34,2.838,6.34,6.34
	c0,3.5-2.836,6.34-6.34,6.34S42.367,80.768,42.367,77.268z M74.264,80.293V17.648c0-2.141,1.734-3.875,3.875-3.875
	s3.875,1.734,3.875,3.875v62.645c0,2.141-1.734,3.875-3.875,3.875S74.264,82.434,74.264,80.293z"/>
</svg>
