<?xml version="1.0" encoding="utf-8"?>
<!-- Generator: Adobe Illustrator 16.0.0, SVG Export Plug-In . SVG Version: 6.00 Build 0)  -->
<!DOCTYPE svg PUBLIC "-//W3C//DTD SVG 1.1//EN" "http://www.w3.org/Graphics/SVG/1.1/DTD/svg11.dtd">
<svg version="1.1" id="Layer_1" xmlns="http://www.w3.org/2000/svg" xmlns:xlink="http://www.w3.org/1999/xlink" x="0px" y="0px"
	 width="96px" height="96px" viewBox="0 0 96 96" enable-background="new 0 0 96 96" xml:space="preserve">
<path d="M1.676,4.24v87.523c0,1.414,1.148,2.561,2.563,2.561h87.523c1.414,0,2.563-1.146,2.563-2.561V4.24
	c0-1.416-1.148-2.563-2.563-2.563H4.238C2.824,1.678,1.676,2.824,1.676,4.24z M84.192,77.029c0,3.473-2.815,6.287-6.286,6.287
	c-3.476,0-6.291-2.814-6.291-6.287c0-3.475,2.815-6.289,6.291-6.289C81.377,70.74,84.192,73.555,84.192,77.029z M53.588,77.029
	c0,3.473-2.815,6.287-6.291,6.287c-3.475,0-6.287-2.814-6.287-6.287c0-3.475,2.813-6.289,6.287-6.289
	C50.772,70.74,53.588,73.555,53.588,77.029z M84.192,48.002c0,3.473-2.815,6.289-6.286,6.289c-3.476,0-6.291-2.816-6.291-6.289
	s2.815-6.289,6.291-6.289C81.377,41.713,84.192,44.529,84.192,48.002z M53.588,48.002c0,3.473-2.815,6.289-6.291,6.289
	c-3.475,0-6.287-2.816-6.287-6.289s2.813-6.289,6.287-6.289C50.772,41.713,53.588,44.529,53.588,48.002z M84.192,18.973
	c0,3.475-2.815,6.291-6.286,6.291c-3.476,0-6.291-2.816-6.291-6.291c0-3.471,2.815-6.287,6.291-6.287
	C81.377,12.686,84.192,15.502,84.192,18.973z M53.588,18.973c0,3.475-2.815,6.291-6.291,6.291c-3.475,0-6.287-2.816-6.287-6.291
	c0-3.471,2.813-6.287,6.287-6.287C50.772,12.686,53.588,15.502,53.588,18.973z M21.951,15.975v62.131
	c0,2.125-1.72,3.844-3.844,3.844c-2.123,0-3.843-1.719-3.843-3.844V15.975c0-2.123,1.72-3.844,3.843-3.844
	C20.231,12.131,21.951,13.852,21.951,15.975z"/>
</svg>
