<?xml version="1.0" encoding="utf-8"?>
<!-- Generator: Adobe Illustrator 16.0.0, SVG Export Plug-In . SVG Version: 6.00 Build 0)  -->
<!DOCTYPE svg PUBLIC "-//W3C//DTD SVG 1.1//EN" "http://www.w3.org/Graphics/SVG/1.1/DTD/svg11.dtd">
<svg version="1.1" id="Layer_1" xmlns="http://www.w3.org/2000/svg" xmlns:xlink="http://www.w3.org/1999/xlink" x="0px" y="0px"
	 width="96px" height="96px" viewBox="0 0 96 96" enable-background="new 0 0 96 96" xml:space="preserve">
<g>
	<path d="M91.639,1.807H4.361c-1.41,0-2.555,1.145-2.555,2.557v87.277c0,1.41,1.145,2.555,2.555,2.555h87.277
		c1.412,0,2.557-1.145,2.557-2.555V4.363C94.195,2.951,93.051,1.807,91.639,1.807z M76.947,11.91c3.461,0,6.27,2.805,6.27,6.27
		s-2.809,6.273-6.27,6.273c-3.463,0-6.271-2.809-6.271-6.273S73.484,11.91,76.947,11.91z M19.055,11.91
		c3.463,0,6.271,2.805,6.271,6.27s-2.809,6.273-6.271,6.273s-6.271-2.809-6.271-6.273S15.592,11.91,19.055,11.91z M19.055,84.092
		c-3.463,0-6.271-2.807-6.271-6.268c0-3.467,2.809-6.273,6.271-6.273s6.271,2.807,6.271,6.273
		C25.326,81.285,22.518,84.092,19.055,84.092z M76.947,84.092c-3.463,0-6.271-2.807-6.271-6.268c0-3.467,2.809-6.273,6.271-6.273
		c3.461,0,6.27,2.807,6.27,6.273C83.217,81.285,80.408,84.092,76.947,84.092z M80.695,51.17l-28.861-0.006l-0.008,29.227
		c0,2.117-1.717,3.832-3.834,3.832c-2.115,0-3.83-1.715-3.83-3.832l0.006-29.229L15.92,51.156c-2.117,0-3.834-1.717-3.834-3.834
		c0-2.115,1.717-3.83,3.834-3.83l28.25,0.004l0.004-27.883c0-2.117,1.717-3.832,3.834-3.832c2.115,0,3.832,1.717,3.832,3.832
		l-0.006,27.885l28.863,0.006c2.117,0,3.832,1.717,3.83,3.834C84.527,49.453,82.813,51.17,80.695,51.17z"/>
</g>
</svg>
