<?xml version="1.0" encoding="utf-8"?>
<!-- Generator: Adobe Illustrator 16.0.0, SVG Export Plug-In . SVG Version: 6.00 Build 0)  -->
<!DOCTYPE svg PUBLIC "-//W3C//DTD SVG 1.1//EN" "http://www.w3.org/Graphics/SVG/1.1/DTD/svg11.dtd">
<svg version="1.1" xmlns="http://www.w3.org/2000/svg" xmlns:xlink="http://www.w3.org/1999/xlink" x="0px" y="0px" width="96px"
	 height="96px" viewBox="0 0 96 96" enable-background="new 0 0 96 96" xml:space="preserve">
<g id="Layer_1">
	<g>
		<g>
			<g>
				<path d="M51.299,66.706V29.294c10.342,0,18.992,6.196,21.215,14.502h22.701V3.675c0-1.597-1.293-2.89-2.889-2.89H3.674
					c-1.596,0-2.89,1.293-2.89,2.89v40.121h22.702c2.222-8.306,10.873-14.502,21.214-14.502v37.412
					c-10.342,0-18.993-6.196-21.214-14.502H0.785v40.121c0,1.596,1.294,2.89,2.89,2.89h88.652c1.596,0,2.889-1.294,2.889-2.89
					V52.204H72.514C70.291,60.51,61.641,66.706,51.299,66.706z"/>
			</g>
		</g>
	</g>
</g>
<g id="Layer_2">
</g>
</svg>
