<?xml version="1.0" encoding="utf-8"?>
<!-- Generator: Adobe Illustrator 16.0.0, SVG Export Plug-In . SVG Version: 6.00 Build 0)  -->
<!DOCTYPE svg PUBLIC "-//W3C//DTD SVG 1.1//EN" "http://www.w3.org/Graphics/SVG/1.1/DTD/svg11.dtd">
<svg version="1.1" id="Layer_1" xmlns="http://www.w3.org/2000/svg" xmlns:xlink="http://www.w3.org/1999/xlink" x="0px" y="0px"
	 width="96px" height="96px" viewBox="0 0 96 96" enable-background="new 0 0 96 96" xml:space="preserve">
<path d="M91.878,1.555H4.122c-1.419,0-2.569,1.15-2.569,2.568v87.756c0,1.42,1.15,2.57,2.569,2.57h87.756
	c1.419,0,2.569-1.15,2.569-2.57V4.123C94.447,2.705,93.297,1.555,91.878,1.555z M48,11.713c3.482,0,6.306,2.82,6.306,6.303
	c0,3.484-2.823,6.309-6.306,6.309s-6.306-2.824-6.306-6.309C41.694,14.533,44.518,11.713,48,11.713z M18.896,84.291
	c-3.481,0-6.305-2.822-6.305-6.305c0-3.484,2.823-6.307,6.305-6.307s6.306,2.822,6.306,6.307
	C25.201,81.469,22.377,84.291,18.896,84.291z M18.896,53.604c-3.481,0-6.305-2.822-6.305-6.307s2.823-6.303,6.305-6.303
	s6.306,2.818,6.306,6.303S22.377,53.604,18.896,53.604z M48,84.291c-3.482,0-6.306-2.822-6.306-6.305
	c0-3.484,2.823-6.307,6.306-6.307s6.306,2.822,6.306,6.307C54.306,81.469,51.482,84.291,48,84.291z M81.074,81.369
	c-0.75,0.734-1.724,1.1-2.696,1.1c-0.999,0-1.998-0.387-2.753-1.158L15.226,19.627c-1.489-1.52-1.464-3.961,0.058-5.449
	c1.521-1.486,3.959-1.465,5.449,0.059L81.131,75.92C82.62,77.439,82.595,79.879,81.074,81.369z M77.104,53.604
	c-3.481,0-6.306-2.822-6.306-6.307s2.824-6.303,6.306-6.303s6.305,2.818,6.305,6.303S80.586,53.604,77.104,53.604z M77.104,24.324
	c-3.481,0-6.306-2.824-6.306-6.309c0-3.482,2.824-6.303,6.306-6.303s6.305,2.82,6.305,6.303
	C83.409,21.5,80.586,24.324,77.104,24.324z"/>
</svg>
