<?xml version="1.0" encoding="utf-8"?>
<!-- Generator: Adobe Illustrator 16.0.0, SVG Export Plug-In . SVG Version: 6.00 Build 0)  -->
<!DOCTYPE svg PUBLIC "-//W3C//DTD SVG 1.1//EN" "http://www.w3.org/Graphics/SVG/1.1/DTD/svg11.dtd">
<svg version="1.1" id="Layer_1" xmlns="http://www.w3.org/2000/svg" xmlns:xlink="http://www.w3.org/1999/xlink" x="0px" y="0px"
	 width="96px" height="96px" viewBox="0 0 96 96" enable-background="new 0 0 96 96" xml:space="preserve">
<path d="M94.242,37.618H58.916L48,4.021L37.084,37.618H1.758l28.579,20.764L19.42,91.979L48,71.216l28.58,20.763L65.663,58.382
	L94.242,37.618z M57.449,61.051l2.703,8.319l-7.076-5.143L48,60.54l-5.076,3.688l-7.076,5.143l2.703-8.319l1.938-5.969l-5.076-3.688
	l-7.072-5.139h8.743h6.274l1.938-5.967L48,31.97l2.703,8.318l1.938,5.967h6.274h8.743l-7.072,5.139l-5.076,3.688L57.449,61.051z"/>
</svg>
