<?xml version="1.0" encoding="utf-8"?>
<!-- Generator: Adobe Illustrator 16.0.0, SVG Export Plug-In . SVG Version: 6.00 Build 0)  -->
<!DOCTYPE svg PUBLIC "-//W3C//DTD SVG 1.1//EN" "http://www.w3.org/Graphics/SVG/1.1/DTD/svg11.dtd">
<svg version="1.1" id="Layer_1" xmlns="http://www.w3.org/2000/svg" xmlns:xlink="http://www.w3.org/1999/xlink" x="0px" y="0px"
	 width="96px" height="96px" viewBox="0 0 96 96" enable-background="new 0 0 96 96" xml:space="preserve">
<path d="M90.52,43.033H59.415c-1.265-0.676-2.575-1.351-3.986-2.026c-6.423-3.065-10.495-5.19-12.214-6.372
	c-1.721-1.18-2.975-2.402-3.762-3.667c-0.788-1.264-1.181-2.746-1.181-4.445c0-2.736,0.973-4.952,2.921-6.652
	c1.948-1.697,4.746-2.548,8.394-2.548c3.066,0,6.184,0.396,9.354,1.182c3.17,0.788,7.179,2.175,12.028,4.165l6.215-14.981
	c-4.682-2.029-9.167-3.604-13.458-4.723c-4.289-1.12-8.794-1.679-13.518-1.679c-9.615,0-17.147,2.3-22.597,6.9
	c-5.45,4.6-8.175,10.92-8.175,18.958c0,4.27,0.83,7.999,2.486,11.189c0.871,1.678,1.906,3.239,3.087,4.699H5.48v9.935h32.975
	c0.838,0.425,1.701,0.851,2.615,1.28c5.926,2.817,9.854,4.87,11.779,6.153c1.926,1.285,3.387,2.621,4.382,4.01
	c0.995,1.388,1.491,2.973,1.491,4.754c0,3.191-1.13,5.595-3.387,7.211c-2.26,1.616-5.503,2.423-9.727,2.423
	c-3.524,0-7.409-0.559-11.656-1.678c-4.25-1.119-9.438-3.046-15.572-5.782v17.903c7.46,3.647,16.037,5.471,25.734,5.471
	c10.525,0,18.742-2.363,24.648-7.086c5.903-4.725,8.855-11.189,8.855-19.395c0-5.926-1.575-10.93-4.724-15.011
	c-0.065-0.085-0.149-0.169-0.217-0.254H90.52V43.033z"/>
</svg>
