<?xml version="1.0" encoding="utf-8"?>
<!-- Generator: Adobe Illustrator 16.0.0, SVG Export Plug-In . SVG Version: 6.00 Build 0)  -->
<!DOCTYPE svg PUBLIC "-//W3C//DTD SVG 1.1//EN" "http://www.w3.org/Graphics/SVG/1.1/DTD/svg11.dtd">
<svg version="1.1" id="Layer_1" xmlns="http://www.w3.org/2000/svg" xmlns:xlink="http://www.w3.org/1999/xlink" x="0px" y="0px"
	 width="96px" height="96px" viewBox="0 0 96 96" enable-background="new 0 0 96 96" xml:space="preserve">
<path d="M60.632,0.97H35.368c-5.813,0-10.527,4.714-10.527,10.526v73.008c0,5.813,4.713,10.526,10.527,10.526h25.264
	c5.813,0,10.527-4.714,10.527-10.526V11.496C71.159,5.684,66.445,0.97,60.632,0.97z M44.754,81.84h-9.825v-8.246h9.825V81.84z
	 M44.754,66.402h-9.825v-8.247h9.825V66.402z M44.754,52.542h-9.825v-8.246h9.825V52.542z M61.071,64.735v1.667V81.84h-9.825V66.402
	v-1.667v-6.58h9.825V64.735z M61.071,52.542h-9.825v-8.246h9.825V52.542z M61.737,38.946H34.368V10.875h27.369V38.946z"/>
</svg>
