<?xml version="1.0" encoding="utf-8"?>
<!-- Generator: Adobe Illustrator 16.0.0, SVG Export Plug-In . SVG Version: 6.00 Build 0)  -->
<!DOCTYPE svg PUBLIC "-//W3C//DTD SVG 1.1//EN" "http://www.w3.org/Graphics/SVG/1.1/DTD/svg11.dtd">
<svg version="1.1" id="Layer_1" xmlns="http://www.w3.org/2000/svg" xmlns:xlink="http://www.w3.org/1999/xlink" x="0px" y="0px"
	 width="96px" height="96px" viewBox="0 0 96 96" enable-background="new 0 0 96 96" xml:space="preserve">
<g>
	<path d="M11.783,1.857v92.285h72.434V1.857H11.783z M77.454,87.38H18.546V8.62h58.908V87.38z"/>
	<polygon points="68.368,26.419 73.02,26.419 73.02,12.644 59.242,12.644 59.242,17.293 68.368,17.293 	"/>
	<polygon points="27.632,17.293 36.757,17.293 36.757,12.644 22.98,12.644 22.98,26.419 27.632,26.419 	"/>
	<polygon points="36.757,78.707 27.632,78.707 27.632,69.581 22.98,69.581 22.98,83.356 36.757,83.356 	"/>
	<polygon points="68.368,78.707 59.242,78.707 59.242,83.356 73.02,83.356 73.02,69.581 68.368,69.581 	"/>
	<rect x="33.081" y="37.766" width="29.838" height="5.109"/>
	<rect x="33.081" y="24.928" width="29.838" height="5.11"/>
	<rect x="33.081" y="51.589" width="29.838" height="5.111"/>
	<rect x="33.081" y="65.96" width="29.838" height="5.112"/>
</g>
</svg>
