<?xml version="1.0" encoding="utf-8"?>
<!-- Generator: Adobe Illustrator 16.0.0, SVG Export Plug-In . SVG Version: 6.00 Build 0)  -->
<!DOCTYPE svg PUBLIC "-//W3C//DTD SVG 1.1//EN" "http://www.w3.org/Graphics/SVG/1.1/DTD/svg11.dtd">
<svg version="1.1" id="Layer_1" xmlns="http://www.w3.org/2000/svg" xmlns:xlink="http://www.w3.org/1999/xlink" x="0px" y="0px"
	 width="96px" height="96px" viewBox="0 0 96 96" enable-background="new 0 0 96 96" xml:space="preserve">
<g>
	<rect x="16.713" y="26.567" width="78.5" height="10.786"/>
	<rect x="26.612" y="47.11" width="68.64" height="10.785"/>
	<rect x="38.979" y="66.627" width="56.234" height="10.785"/>
	<path d="M6.05,37.353h3.186V17.527H6.578l-5.83,4.584l1.6,2.019c1.727-1.402,2.741-2.232,3.044-2.496
		c0.303-0.262,0.559-0.501,0.766-0.718c-0.073,0.895-0.108,2.106-0.108,3.634V37.353z"/>
	<path d="M22.664,59.11l-6.518-17.495h-3.099L6.528,59.11h3.003l1.705-4.838h6.662l1.74,4.838H22.664z M12.07,51.817l1.573-4.542
		c0.413-1.158,0.727-2.228,0.941-3.204c0.079,0.316,0.224,0.816,0.435,1.501c0.21,0.683,0.376,1.184,0.494,1.502l1.633,4.742H12.07z
		"/>
	<path d="M25.71,62.934c-0.86,0-1.772,0.111-2.739,0.331c-0.968,0.223-1.858,0.544-2.673,0.971l1.033,2.278
		c0.65-0.308,1.328-0.574,2.032-0.8c0.707-0.227,1.442-0.341,2.211-0.341c0.939,0,1.634,0.238,2.082,0.713
		c0.447,0.475,0.672,1.191,0.672,2.147v0.802l-2.591,0.081c-2.351,0.072-4.099,0.5-5.248,1.288c-1.148,0.787-1.722,1.954-1.722,3.5
		c0,1.455,0.413,2.58,1.24,3.375c0.827,0.795,1.977,1.193,3.452,1.193c1.148,0,2.088-0.164,2.82-0.494
		c0.731-0.33,1.46-0.952,2.183-1.866h0.109l0.637,2.088h2.279V68.1c0-1.781-0.486-3.088-1.458-3.92
		C29.057,63.35,27.617,62.934,25.71,62.934z M28.299,72.344c0,1.167-0.35,2.073-1.051,2.719c-0.701,0.647-1.629,0.97-2.786,0.97
		c-0.796,0-1.393-0.184-1.79-0.55c-0.398-0.366-0.597-0.883-0.597-1.552c0-0.923,0.341-1.608,1.024-2.055
		c0.683-0.448,1.774-0.699,3.275-0.753l1.925-0.082V72.344z"/>
</g>
</svg>
