<?xml version="1.0" encoding="utf-8"?>
<!-- Generator: Adobe Illustrator 16.0.0, SVG Export Plug-In . SVG Version: 6.00 Build 0)  -->
<!DOCTYPE svg PUBLIC "-//W3C//DTD SVG 1.1//EN" "http://www.w3.org/Graphics/SVG/1.1/DTD/svg11.dtd">
<svg version="1.1" id="Layer_1" xmlns="http://www.w3.org/2000/svg" xmlns:xlink="http://www.w3.org/1999/xlink" x="0px" y="0px"
	 width="96px" height="96px" viewBox="0 0 96 96" enable-background="new 0 0 96 96" xml:space="preserve">
<path d="M82.005,20.421l-3.908-7.559l3.68-6.993c0.393-0.739,0.364-1.632-0.068-2.349s-1.209-1.154-2.046-1.154H16.117
	c-1.318,0-2.389,1.07-2.389,2.39l0.058,88.878h24.94h7.546H62.35h19.893V73.741l0.006-52.737
	C82.203,20.802,82.1,20.605,82.005,20.421z M25.263,86.813h-3.528v-59.59h3.528V86.813z M71.285,45.306h-5.631v-2.847
	c0-0.95-0.507-1.392-1.391-1.392h-8.984v33.781h5.432v5.441h-5.432h-6.327h-5.431v-5.441h5.431V41.067H39.97
	c-0.886,0-1.392,0.441-1.392,1.392v2.847h-5.631v-5.883c0-2.849,0.95-3.797,3.796-3.797h30.745c2.848,0,3.797,0.948,3.797,3.797
	V45.306z M18.508,21.004V7.146h57.195l-2.418,4.594c-0.363,0.691-0.366,1.517-0.007,2.211l3.646,7.053H18.508z"/>
</svg>
