<?xml version="1.0" encoding="utf-8"?>
<!-- Generator: Adobe Illustrator 16.0.0, SVG Export Plug-In . SVG Version: 6.00 Build 0)  -->
<!DOCTYPE svg PUBLIC "-//W3C//DTD SVG 1.1//EN" "http://www.w3.org/Graphics/SVG/1.1/DTD/svg11.dtd">
<svg version="1.1" id="Layer_1" xmlns="http://www.w3.org/2000/svg" xmlns:xlink="http://www.w3.org/1999/xlink" x="0px" y="0px"
	 width="96px" height="96px" viewBox="0 0 96 96" enable-background="new 0 0 96 96" xml:space="preserve">
<path d="M82.387,18.359V1.168H12.432v51.576H2.93v26.678h9.502v15.414h69.955V45.037H93.07V18.359H82.387z M25.475,11.643h45.055
	v4.742H25.475V11.643z M25.475,24.092h22.527v4.742H25.475V24.092z M25.475,45.631h45.055v4.742H25.475V45.631z M6.916,74.639V56.48
	h35.57v18.158H6.916z M70.529,85.744H25.475v-4.742h45.055V85.744z M70.926,61.439H49.584v-4.742h21.342V61.439z M88.727,40.473
	h-35.57v-18.16h35.57V40.473z"/>
</svg>
