<?xml version="1.0" encoding="utf-8"?>
<!-- Generator: Adobe Illustrator 16.0.0, SVG Export Plug-In . SVG Version: 6.00 Build 0)  -->
<!DOCTYPE svg PUBLIC "-//W3C//DTD SVG 1.1//EN" "http://www.w3.org/Graphics/SVG/1.1/DTD/svg11.dtd">
<svg version="1.1" id="Layer_1" xmlns="http://www.w3.org/2000/svg" xmlns:xlink="http://www.w3.org/1999/xlink" x="0px" y="0px"
	 width="96px" height="96px" viewBox="0 0 96 96" enable-background="new 0 0 96 96" xml:space="preserve">
<g>
	<path d="M14.25,1.634v92.732h67.5V1.634H14.25z M75.596,88.211H20.404V7.789h55.191V88.211z"/>
	<rect x="28.229" y="17.586" width="39.545" height="5.219"/>
	<rect x="28.229" y="73.195" width="39.545" height="5.219"/>
	<path d="M71.201,39.257l-0.568-2.769c-0.303-1.486-1.461-2.579-2.859-2.872v-2.574H28.229v5.218h29.959
		c-0.234,0.111-0.469,0.207-0.703,0.322c-1.311,0.671-2.615,1.423-3.908,2.254c-1.203,0.787-2.406,1.646-3.594,2.569
		c-1.324,1.044-2.613,2.16-3.865,3.325L43,47.798l-2.918-3.068l-2.824-3.066c-0.674-0.73-1.613-1.16-2.605-1.189
		c-0.992-0.035-1.957,0.34-2.672,1.029l-4.369,4.203c-0.715,0.688-1.123,1.637-1.133,2.629c-0.008,0.994,0.385,1.948,1.088,2.648
		l7.938,7.902h-7.275v5.218h12.516l0.361,0.358c0.695,0.693,1.635,1.076,2.605,1.076c0.146,0,0.295-0.009,0.443-0.027
		c0.979-0.118,1.848-0.639,2.447-1.407h21.172v-5.218H49.926c0.188-0.27,0.373-0.545,0.557-0.803c0.688-0.953,1.412-1.9,2.162-2.818
		c1.486-1.824,3.098-3.547,4.773-5.105c0.078-0.072,0.16-0.141,0.24-0.211h10.115V44.73h-2.502l0.68-0.298
		c0.33-0.135,0.662-0.274,1-0.383c0.057-0.019,0.113-0.038,0.17-0.059c0.316-0.118,0.641-0.205,0.965-0.296l0.541-0.154
		C70.734,43.047,71.586,41.137,71.201,39.257z M65.828,40.476c-0.58,0.185-1.146,0.436-1.713,0.662
		c-0.557,0.264-1.119,0.506-1.66,0.807c-0.551,0.275-1.08,0.598-1.613,0.906c-1.053,0.652-2.076,1.357-3.064,2.114
		c-0.98,0.766-1.934,1.572-2.855,2.417c-1.834,1.705-3.555,3.547-5.141,5.497c-0.797,0.974-1.563,1.972-2.295,2.99
		c-0.361,0.509-0.725,1.021-1.068,1.54c-0.338,0.506-0.699,1.061-0.969,1.521l-1.738,2.859l-2.465-2.453L30.172,48.312l4.369-4.203
		l8.484,9.213c0.16-0.191,0.316-0.391,0.477-0.58c0.883-1.035,1.793-2.041,2.734-3.02c1.877-1.953,3.891-3.785,6.031-5.472
		c1.074-0.835,2.188-1.633,3.33-2.382c1.154-0.74,2.342-1.427,3.568-2.055c1.234-0.611,2.508-1.152,3.814-1.612
		c0.662-0.208,1.318-0.43,1.998-0.591c0.668-0.186,1.357-0.301,2.037-0.438l0.568,2.77C66.996,40.115,66.402,40.261,65.828,40.476z"
		/>
</g>
</svg>
