<?xml version="1.0" encoding="utf-8"?>
<!-- Generator: Adobe Illustrator 16.0.0, SVG Export Plug-In . SVG Version: 6.00 Build 0)  -->
<!DOCTYPE svg PUBLIC "-//W3C//DTD SVG 1.1//EN" "http://www.w3.org/Graphics/SVG/1.1/DTD/svg11.dtd">
<svg version="1.1" id="Layer_1" xmlns="http://www.w3.org/2000/svg" xmlns:xlink="http://www.w3.org/1999/xlink" x="0px" y="0px"
	 width="96px" height="96px" viewBox="0 0 96 96" enable-background="new 0 0 96 96" xml:space="preserve">
<g>
	<polygon points="75.059,58.28 70.262,58.28 70.262,74.062 83.719,74.062 83.719,69.265 75.059,69.265 	"/>
	<path d="M72.895,50.25c-5.268,0-10.055,2.036-13.656,5.347l-0.723-0.332l-4.947-4.172l-8.502,8.455l-8.523-8.455l-4.947,4.172
		l-10.297,4.74c-1.523,0.627-2.875,1.707-3.781,3.228L2.855,87.741h59.48c3.078,1.895,6.686,3.009,10.559,3.009
		c11.166,0,20.25-9.084,20.25-20.25S84.061,50.25,72.895,50.25z M72.895,84.75c-7.857,0-14.25-6.393-14.25-14.25
		s6.393-14.25,14.25-14.25s14.25,6.393,14.25,14.25S80.752,84.75,72.895,84.75z"/>
	<path d="M45,52.112v0.004c0.01,0,0.02-0.002,0.029-0.002c0.006,0,0.014,0.002,0.02,0.002c0.002,0,0.004,0,0.008,0
		c0.002,0,0.006,0,0.006,0c0.008,0,0.016-0.002,0.02-0.002c0.01,0,0.02,0.002,0.029,0.002v-0.004
		c12.006,0.183,19.303-10.324,19.49-27.646c0.121-12.018-7.33-18.889-19.469-19.213V5.25c-0.018,0-0.031,0.002-0.051,0.002V5.25
		c-0.01,0-0.018,0-0.025,0.002C45.049,5.25,45.039,5.25,45.029,5.25v0.002c-0.018,0-0.033-0.002-0.049-0.002v0.004
		C32.844,5.578,25.389,12.449,25.51,24.467C25.699,41.788,32.996,52.295,45,52.112z"/>
</g>
</svg>
