<?xml version="1.0" encoding="utf-8"?>
<!-- Generator: Adobe Illustrator 16.0.0, SVG Export Plug-In . SVG Version: 6.00 Build 0)  -->
<!DOCTYPE svg PUBLIC "-//W3C//DTD SVG 1.1//EN" "http://www.w3.org/Graphics/SVG/1.1/DTD/svg11.dtd">
<svg version="1.1" id="Layer_1" xmlns="http://www.w3.org/2000/svg" xmlns:xlink="http://www.w3.org/1999/xlink" x="0px" y="0px"
	 width="96px" height="96px" viewBox="0 0 96 96" enable-background="new 0 0 96 96" xml:space="preserve">
<g>
	<path d="M75.843,6.137h-9.214V4.76c0-2.027-1.645-3.67-3.672-3.67H33.043c-2.028,0-3.672,1.643-3.672,3.67v1.377h-9.214
		c-2.026,0-3.672,1.644-3.672,3.672v4.283c0,2.026,1.646,3.671,3.672,3.671h55.687c2.026,0,3.672-1.645,3.672-3.671V9.809
		C79.515,7.78,77.87,6.137,75.843,6.137z"/>
	<path d="M21.132,90.062c0,2.677,2.17,4.849,4.849,4.849h44.038c2.678,0,4.849-2.172,4.849-4.849V20.616H21.132V90.062z
		 M60.424,34.127c0-2.007,1.629-3.637,3.637-3.637s3.636,1.63,3.636,3.637v46.061c0,2.01-1.629,3.636-3.636,3.636
		s-3.637-1.626-3.637-3.636V34.127z M44.364,34.127c0-2.007,1.628-3.637,3.636-3.637s3.636,1.63,3.636,3.637v46.061
		c0,2.01-1.628,3.636-3.636,3.636s-3.636-1.626-3.636-3.636V34.127z M28.606,34.127c0-2.007,1.629-3.637,3.637-3.637
		c2.007,0,3.636,1.63,3.636,3.637v46.061c0,2.01-1.629,3.636-3.636,3.636c-2.008,0-3.637-1.626-3.637-3.636V34.127z"/>
</g>
</svg>
