<?xml version="1.0" encoding="utf-8"?>
<!-- Generator: Adobe Illustrator 16.0.0, SVG Export Plug-In . SVG Version: 6.00 Build 0)  -->
<!DOCTYPE svg PUBLIC "-//W3C//DTD SVG 1.1//EN" "http://www.w3.org/Graphics/SVG/1.1/DTD/svg11.dtd">
<svg version="1.1" id="Layer_1" xmlns="http://www.w3.org/2000/svg" xmlns:xlink="http://www.w3.org/1999/xlink" x="0px" y="0px"
	 width="96px" height="96px" viewBox="0 0 96 96" enable-background="new 0 0 96 96" xml:space="preserve">
<g>
	<path d="M70,43.913c0-2.021-1.4-3.225-3.876-3.225c-1.011,0-1.693,0.098-2.053,0.195v6.482c0.424,0.098,0.944,0.13,1.662,0.13
		C68.372,47.495,70,46.16,70,43.913z"/>
	<path d="M60.321,3.147H14.11v90.348h65.907V29.944L56.604,13.777L60.321,3.147z M59.152,37.398c1.531-0.262,3.681-0.458,6.71-0.458
		c3.062,0,5.245,0.587,6.711,1.76c1.4,1.107,2.345,2.932,2.345,5.082c0,2.151-0.717,3.974-2.02,5.212
		c-1.694,1.596-4.201,2.313-7.133,2.313c-0.653,0-1.238-0.033-1.695-0.098v7.851h-4.919V37.398z M37.955,41.274H31.96V59.06h-4.983
		V41.274h-5.896v-4.169h16.874V41.274z M56.518,41.274h-5.994V59.06h-4.983V41.274h-5.896v-4.169h16.874V41.274z"/>
	<polygon points="64.946,3.147 61.935,11.76 80.017,24.245 	"/>
</g>
</svg>
