<?xml version="1.0" encoding="utf-8"?>
<!-- Generator: Adobe Illustrator 16.0.0, SVG Export Plug-In . SVG Version: 6.00 Build 0)  -->
<!DOCTYPE svg PUBLIC "-//W3C//DTD SVG 1.1//EN" "http://www.w3.org/Graphics/SVG/1.1/DTD/svg11.dtd">
<svg version="1.1" id="Layer_1" xmlns="http://www.w3.org/2000/svg" xmlns:xlink="http://www.w3.org/1999/xlink" x="0px" y="0px"
	 width="96px" height="96px" viewBox="0 0 96 96" enable-background="new 0 0 96 96" xml:space="preserve">
<path d="M7.499,1.357v18.35v5.869v18.352h81.002V25.576v-5.869V1.357H7.499z M31.479,38.6H12.827V25.576h18.652V38.6z
	 M31.479,19.707H12.827V6.686h18.652V19.707z M59.724,38.6H36.809V25.576h22.915V38.6z M59.724,19.707H36.809V6.686h22.915V19.707z
	 M83.172,38.6H65.054V25.576h18.118V38.6z M83.172,19.707H65.054V6.686h18.118V19.707z M7.499,70.422v5.869v18.352h81.002V76.291
	v-5.869v-18.35H7.499V70.422z M65.054,57.4h18.118v13.021H65.054V57.4z M65.054,76.291h18.118v13.021H65.054V76.291z M36.809,57.4
	h22.915v13.021H36.809V57.4z M36.809,76.291h22.915v13.021H36.809V76.291z M12.827,57.4h18.652v13.021H12.827V57.4z M12.827,76.291
	h18.652v13.021H12.827V76.291z"/>
</svg>
