<?xml version="1.0" encoding="utf-8"?>
<!-- Generator: Adobe Illustrator 16.0.0, SVG Export Plug-In . SVG Version: 6.00 Build 0)  -->
<!DOCTYPE svg PUBLIC "-//W3C//DTD SVG 1.1//EN" "http://www.w3.org/Graphics/SVG/1.1/DTD/svg11.dtd">
<svg version="1.1" id="Layer_1" xmlns="http://www.w3.org/2000/svg" xmlns:xlink="http://www.w3.org/1999/xlink" x="0px" y="0px"
	 width="96px" height="96px" viewBox="0 0 96 96" enable-background="new 0 0 96 96" xml:space="preserve">
<path d="M48,1C22.042,1,1,22.043,1,48s21.042,47,47,47s47-21.043,47-47S73.958,1,48,1z M10.05,30.668l9.032,4.125
	c3.597-7.24,9.607-12.876,17.148-15.998c8.266-3.424,17.369-3.423,25.635,0c8.266,3.424,14.703,9.861,18.126,18.128l-7.885,3.267
	c-2.552-6.161-7.349-10.957-13.508-13.508s-12.943-2.553-19.102,0c-5.529,2.289-9.954,6.391-12.647,11.659l10.019,4.576L17.333,50.2
	L10.05,30.668z M76.918,61.207c-3.597,7.24-9.607,12.876-17.148,15.998c-8.266,3.424-17.369,3.423-25.635,0
	c-8.266-3.424-14.703-9.861-18.126-18.128l7.885-3.267c2.552,6.161,7.349,10.957,13.508,13.509c6.159,2.55,12.943,2.552,19.102,0
	c5.529-2.291,9.954-6.393,12.647-11.66l-10.019-4.576L78.667,45.8l7.283,19.532L76.918,61.207z"/>
</svg>
