<?xml version="1.0" encoding="utf-8"?>
<!-- Generator: Adobe Illustrator 16.0.0, SVG Export Plug-In . SVG Version: 6.00 Build 0)  -->
<!DOCTYPE svg PUBLIC "-//W3C//DTD SVG 1.1//EN" "http://www.w3.org/Graphics/SVG/1.1/DTD/svg11.dtd">
<svg version="1.1" id="Layer_1" xmlns="http://www.w3.org/2000/svg" xmlns:xlink="http://www.w3.org/1999/xlink" x="0px" y="0px"
	 width="96px" height="96px" viewBox="0 0 96 96" enable-background="new 0 0 96 96" xml:space="preserve">
<g>
	<path d="M79.744,62.54V15.154c0-1.168-0.948-2.116-2.115-2.116H26.562c-0.632,0-1.195,0.286-1.583,0.728
		c-0.327,0.374-0.532,0.855-0.532,1.389v16.291h-7.66c-0.633,0-1.195,0.286-1.583,0.729c-0.326,0.372-0.531,0.855-0.531,1.388
		v46.576c0,1.166,0.948,2.114,2.115,2.114h51.067c1.166,0,2.115-0.948,2.115-2.114V64.653h7.66
		C78.795,64.653,79.744,63.706,79.744,62.54z M66.421,17.132c1.323,0,2.397,1.069,2.397,2.396c0,1.323-1.074,2.394-2.397,2.394
		c-1.323,0-2.396-1.07-2.396-2.394C64.025,18.201,65.099,17.132,66.421,17.132z M59.349,17.132c1.323,0,2.395,1.069,2.395,2.396
		c0,1.323-1.072,2.394-2.395,2.394c-1.324,0-2.396-1.07-2.396-2.394C56.953,18.201,58.024,17.132,59.349,17.132z M65.189,77.278
		H19.61V44.242h45.579V77.278z M47.177,37.934c0-1.322,1.073-2.394,2.396-2.394s2.396,1.071,2.396,2.394
		c0,1.324-1.073,2.396-2.396,2.396S47.177,39.258,47.177,37.934z M54.251,37.934c0-1.322,1.073-2.394,2.397-2.394
		c1.322,0,2.396,1.071,2.396,2.394c0,1.324-1.074,2.396-2.396,2.396C55.324,40.33,54.251,39.258,54.251,37.934z M63.591,40.33
		c-1.323,0-2.396-1.072-2.396-2.396c0-1.322,1.073-2.394,2.396-2.394c1.324,0,2.397,1.071,2.397,2.394
		C65.988,39.258,64.915,40.33,63.591,40.33z M74.963,59.682h-4.994v-26.12c0-1.168-0.949-2.116-2.115-2.116H29.386v-5.611h45.577
		V59.682z M73.367,21.922c-1.323,0-2.396-1.07-2.396-2.394c0-1.327,1.073-2.396,2.396-2.396c1.324,0,2.397,1.069,2.397,2.396
		C75.764,20.852,74.691,21.922,73.367,21.922z"/>
	<path d="M14.635,18.711l-2.559,4.012c-0.313-1.232-0.544-2.419-0.661-3.533c-0.266-2.519-0.133-5.971,2.007-8.109
		c2.683-2.683,7.37-2.325,10.828-1.554l1.023-4.583C18.666,3.467,13.421,4.441,10.102,7.76c-2.73,2.729-3.891,6.851-3.357,11.921
		c0.167,1.575,0.504,3.246,0.987,4.985l-5.153-3.288l-2.525,3.959l11.32,7.22l7.222-11.318L14.635,18.711z"/>
	<path d="M95.947,70.664l-11.319-7.223l-7.221,11.32l3.959,2.526l2.557-4.01c0.313,1.232,0.544,2.417,0.661,3.532
		c0.266,2.519,0.133,5.972-2.007,8.109c-2.683,2.683-7.369,2.325-10.828,1.555l-1.023,4.582c6.609,1.477,11.853,0.501,15.172-2.815
		c2.73-2.729,3.891-6.852,3.357-11.922c-0.167-1.576-0.504-3.245-0.987-4.984l5.153,3.288L95.947,70.664z"/>
</g>
</svg>
