<?xml version="1.0" encoding="utf-8"?>
<!-- Generator: Adobe Illustrator 16.0.0, SVG Export Plug-In . SVG Version: 6.00 Build 0)  -->
<!DOCTYPE svg PUBLIC "-//W3C//DTD SVG 1.1//EN" "http://www.w3.org/Graphics/SVG/1.1/DTD/svg11.dtd">
<svg version="1.1" xmlns="http://www.w3.org/2000/svg" xmlns:xlink="http://www.w3.org/1999/xlink" x="0px" y="0px" width="96px"
	 height="96px" viewBox="0 0 96 96" enable-background="new 0 0 96 96" xml:space="preserve">
<g id="Layer_1">
	<g>
		<path d="M58.781,13.391C58.781,7.592,45.895,2.895,30,2.895c-15.896,0-28.781,4.697-28.781,10.496v8.611
			c0,5.797,12.885,10.494,28.781,10.494c1.086,0,2.156-0.023,3.211-0.067c0.559-7.487,12.34-11.897,25.57-12.98V13.391z"/>
		<path d="M1.215,27.797l0.004,0.777V42.02c0,5.798,12.885,10.495,28.781,10.495c1.074,0,2.135-0.023,3.18-0.065V37.448
			c-1.045,0.042-2.105,0.066-3.18,0.066C14.822,37.515,2.309,33.229,1.215,27.797z"/>
		<path d="M1.225,48.057l-0.006,0.777v13.447c0,5.796,12.885,10.493,28.781,10.493c1.074,0,2.135-0.023,3.18-0.065V61.612v-3.904
			c-1.045,0.044-2.105,0.066-3.18,0.066C14.822,57.774,2.318,53.488,1.225,48.057z"/>
		<path d="M66.004,23.226c-15.895,0-28.783,4.697-28.783,10.493v8.612c0,5.799,12.889,10.493,28.783,10.493
			s28.781-4.694,28.781-10.493v-8.612C94.785,27.923,81.898,23.226,66.004,23.226z"/>
		<path d="M66.004,57.844c-15.176,0-27.68-4.284-28.773-9.718l-0.01,0.777v13.444c0,5.799,12.889,10.496,28.783,10.496
			s28.781-4.697,28.781-10.496V48.903c0-0.263-0.055-0.518-0.107-0.777C93.582,53.56,81.18,57.844,66.004,57.844z"/>
		<path d="M66.004,78.104c-15.176,0-27.67-4.286-28.764-9.716l-0.02,0.774v13.447c0,5.799,12.889,10.496,28.783,10.496
			s28.781-4.697,28.781-10.496V69.162c0-0.26-0.055-0.52-0.107-0.774C93.582,73.817,81.18,78.104,66.004,78.104z"/>
	</g>
</g>
<g id="Layer_2">
</g>
</svg>
