<?xml version="1.0" encoding="utf-8"?>
<!-- Generator: Adobe Illustrator 16.0.0, SVG Export Plug-In . SVG Version: 6.00 Build 0)  -->
<!DOCTYPE svg PUBLIC "-//W3C//DTD SVG 1.1//EN" "http://www.w3.org/Graphics/SVG/1.1/DTD/svg11.dtd">
<svg version="1.1" id="Layer_1" xmlns="http://www.w3.org/2000/svg" xmlns:xlink="http://www.w3.org/1999/xlink" x="0px" y="0px"
	 width="96px" height="96px" viewBox="0 0 96 96" enable-background="new 0 0 96 96" xml:space="preserve">
<g>
	<path d="M70.775,18.563c0,4.098-3.334,7.433-7.433,7.433H45.225V14.567L23.678,30.846l21.546,16.277v-11.43h18.118
		c9.446,0,17.13-7.685,17.13-17.13s-7.685-17.13-17.13-17.13H15.527v9.696h47.815C67.441,11.13,70.775,14.464,70.775,18.563z"/>
	<path d="M63.342,48.877H15.527v9.697h47.815c4.099,0,7.433,3.335,7.433,7.432c0,4.101-3.334,7.435-7.433,7.435H45.225v-11.43
		L23.678,78.289l21.546,16.277v-11.43h18.118c9.446,0,17.13-7.685,17.13-17.131C80.473,56.562,72.788,48.877,63.342,48.877z"/>
</g>
</svg>
