<?xml version="1.0" encoding="utf-8"?>
<!-- Generator: Adobe Illustrator 16.0.0, SVG Export Plug-In . SVG Version: 6.00 Build 0)  -->
<!DOCTYPE svg PUBLIC "-//W3C//DTD SVG 1.1//EN" "http://www.w3.org/Graphics/SVG/1.1/DTD/svg11.dtd">
<svg version="1.1" id="Layer_1" xmlns="http://www.w3.org/2000/svg" xmlns:xlink="http://www.w3.org/1999/xlink" x="0px" y="0px"
	 width="96px" height="96px" viewBox="0 0 96 96" enable-background="new 0 0 96 96" xml:space="preserve">
<g>
	<path d="M60.355,3.02H14.014v90.604h66.094V29.893L56.628,13.68L60.355,3.02z M37.109,41.173h-6.011v17.835h-4.998V41.173h-5.913
		v-4.181h16.922V41.173z M58.891,36.992h16.922v4.181h-6.012v17.835h-4.997V41.173h-5.913V36.992z M57.359,36.992l-6.206,10.747
		l6.533,11.27h-5.75l-1.993-3.985c-0.815-1.536-1.339-2.679-1.959-3.952h-0.065c-0.458,1.273-1.014,2.417-1.699,3.952l-1.829,3.985
		h-5.684l6.369-11.14l-6.141-10.877h5.717l1.928,4.017c0.652,1.34,1.143,2.418,1.665,3.66h0.065c0.522-1.404,0.947-2.385,1.503-3.66
		l1.862-4.017H57.359z"/>
	<polygon points="64.994,3.117 61.975,11.754 80.107,24.274 	"/>
</g>
</svg>
