<?xml version="1.0" encoding="utf-8"?>
<!-- Generator: Adobe Illustrator 16.0.0, SVG Export Plug-In . SVG Version: 6.00 Build 0)  -->
<!DOCTYPE svg PUBLIC "-//W3C//DTD SVG 1.1//EN" "http://www.w3.org/Graphics/SVG/1.1/DTD/svg11.dtd">
<svg version="1.1" id="Layer_1" xmlns="http://www.w3.org/2000/svg" xmlns:xlink="http://www.w3.org/1999/xlink" x="0px" y="0px"
	 width="96px" height="96px" viewBox="0 0 96 96" enable-background="new 0 0 96 96" xml:space="preserve">
<g>
	<path d="M62.063,1.333v43.155c0,5.478-1.103,9.496-3.31,12.058c-2.208,2.561-5.759,3.842-10.655,3.842
		c-5.06,0-8.684-1.272-10.874-3.818c-2.191-2.544-3.286-6.54-3.286-11.985V1.333H19.005v45.523c0,8.087,2.512,14.458,7.539,19.113
		c5.025,4.656,12.08,6.983,21.166,6.983c6.024,0,11.245-1.046,15.657-3.142c4.415-2.094,7.79-5.105,10.125-9.037
		c2.336-3.93,3.503-8.505,3.503-13.724V1.333H62.063z"/>
	<rect x="19.005" y="80.233" width="57.99" height="14.433"/>
</g>
</svg>
