<?xml version="1.0" encoding="utf-8"?>
<!-- Generator: Adobe Illustrator 16.0.0, SVG Export Plug-In . SVG Version: 6.00 Build 0)  -->
<!DOCTYPE svg PUBLIC "-//W3C//DTD SVG 1.1//EN" "http://www.w3.org/Graphics/SVG/1.1/DTD/svg11.dtd">
<svg version="1.1" id="Layer_1" xmlns="http://www.w3.org/2000/svg" xmlns:xlink="http://www.w3.org/1999/xlink" x="0px" y="0px"
	 width="96px" height="96px" viewBox="0 0 96 96" enable-background="new 0 0 96 96" xml:space="preserve">
<g>
	<polygon points="61.932,1.122 58.826,9.994 77.461,22.86 	"/>
	<path d="M68.144,74.41c-1.75,0-3.168,1.419-3.168,3.168c0,1.086,0.546,2.043,1.379,2.614v4.837h3.579v-4.837
		c0.832-0.571,1.378-1.528,1.378-2.614C71.312,75.829,69.894,74.41,68.144,74.41z"/>
	<path d="M84.793,61.5c-0.648-5.783-4.255-10.681-9.264-13.152V29.392L51.402,12.733l3.832-10.949H7.617v93.095h46.287h21.625h6.854
		c3.313,0,6-2.687,6-6V66.997C88.383,64.54,86.906,62.428,84.793,61.5z M82.482,88.535H53.805V66.5h20.672v-3.642
		c0-3.492-2.841-6.333-6.333-6.333s-6.332,2.841-6.332,6.333h-4.498c0-5.972,4.858-10.83,10.83-10.83
		c5.971,0,10.83,4.858,10.83,10.83V66.5h3.509V88.535z"/>
</g>
</svg>
