<?xml version="1.0" encoding="utf-8"?>
<!-- Generator: Adobe Illustrator 16.0.0, SVG Export Plug-In . SVG Version: 6.00 Build 0)  -->
<!DOCTYPE svg PUBLIC "-//W3C//DTD SVG 1.1//EN" "http://www.w3.org/Graphics/SVG/1.1/DTD/svg11.dtd">
<svg version="1.1" id="Layer_1" xmlns="http://www.w3.org/2000/svg" xmlns:xlink="http://www.w3.org/1999/xlink" x="0px" y="0px"
	 width="96px" height="96px" viewBox="0 0 96 96" enable-background="new 0 0 96 96" xml:space="preserve">
<g>
	<polygon points="26.604,26.82 0.95,69.494 52.256,69.494 	"/>
	<polygon points="69.397,69.494 95.05,26.82 43.744,26.82 	"/>
	<g>
		<path d="M45.486,9.732c6.193-0.467,12.222,1.201,17.236,4.727l-3.69,4.319l14.229,1.688L69.63,6.374l-2.953,3.455
			c-6.254-4.564-13.842-6.745-21.647-6.155c-8.692,0.656-16.607,4.659-22.291,11.27l4.607,3.961
			C31.97,13.523,38.411,10.267,45.486,9.732z"/>
		<path d="M50.514,86.268c-6.192,0.467-12.221-1.201-17.236-4.727l3.69-4.319l-14.229-1.688l3.633,14.092l2.952-3.455
			c6.254,4.564,13.842,6.745,21.649,6.155c8.69-0.656,16.606-4.659,22.289-11.27l-4.607-3.96
			C64.031,82.477,57.589,85.733,50.514,86.268z"/>
	</g>
</g>
</svg>
