<?xml version="1.0" encoding="utf-8"?>
<!-- Generator: Adobe Illustrator 16.0.0, SVG Export Plug-In . SVG Version: 6.00 Build 0)  -->
<!DOCTYPE svg PUBLIC "-//W3C//DTD SVG 1.1//EN" "http://www.w3.org/Graphics/SVG/1.1/DTD/svg11.dtd">
<svg version="1.1" id="Layer_1" xmlns="http://www.w3.org/2000/svg" xmlns:xlink="http://www.w3.org/1999/xlink" x="0px" y="0px"
	 width="96px" height="96px" viewBox="0 0 96 96" enable-background="new 0 0 96 96" xml:space="preserve">
<g>
	<polygon points="33.697,37.086 32.345,37.094 27.966,50.277 38.054,50.277 	"/>
	<path d="M63.268,56.572c0,2.465,1.644,3.666,3.793,3.666c2.403,0,4.362-1.58,4.994-3.541c0.127-0.506,0.191-1.074,0.191-1.643
		v-3.352C67.188,51.639,63.268,52.842,63.268,56.572z"/>
	<path d="M1,13.889v68.227h94V13.889H1z M41.826,66.307l-1.929-7.346h-13.77l-1.984,7.346H13.956l12.347-38.002H39.45l12.502,38.002
		H41.826z M73.383,66.307l-0.568-3.098h-0.19c-2.023,2.467-5.183,3.793-8.851,3.793c-6.258,0-9.988-4.551-9.988-9.482
		c0-8.029,7.206-11.887,18.143-11.822v-0.443c0-1.643-0.885-3.982-5.626-3.982c-3.161,0-6.512,1.076-8.535,2.34l-1.77-6.195
		c2.149-1.201,6.385-2.719,12.012-2.719c10.305,0,13.592,6.068,13.592,13.34v10.746c0,2.971,0.125,5.816,0.442,7.523H73.383z"/>
</g>
</svg>
