<?xml version="1.0" encoding="utf-8"?>
<!-- Generator: Adobe Illustrator 16.0.0, SVG Export Plug-In . SVG Version: 6.00 Build 0)  -->
<!DOCTYPE svg PUBLIC "-//W3C//DTD SVG 1.1//EN" "http://www.w3.org/Graphics/SVG/1.1/DTD/svg11.dtd">
<svg version="1.1" id="Layer_1" xmlns="http://www.w3.org/2000/svg" xmlns:xlink="http://www.w3.org/1999/xlink" x="0px" y="0px"
	 width="96px" height="96px" viewBox="0 0 96 96" enable-background="new 0 0 96 96" xml:space="preserve">
<g>
	<path d="M1.676,14.379v67.244h92.648V14.379H1.676z M34.152,65.896l-0.561-3.053h-0.188c-1.992,2.43-5.107,3.736-8.723,3.736
		c-6.168,0-9.844-4.482-9.844-9.344c0-7.912,7.104-11.715,17.883-11.652v-0.436c0-1.621-0.873-3.926-5.546-3.926
		c-3.116,0-6.418,1.059-8.412,2.305l-1.745-6.105c2.119-1.184,6.293-2.68,11.84-2.68c10.156,0,13.396,5.982,13.396,13.148v10.59
		c0,2.93,0.123,5.734,0.436,7.416H34.152z M75.151,65.896l-1.903-7.238h-13.57l-1.955,7.238H47.682l12.17-37.455H72.81
		l12.321,37.455H75.151z"/>
	<polygon points="67.139,37.098 65.808,37.104 61.49,50.098 71.433,50.098 	"/>
	<path d="M24.184,56.303c0,2.428,1.62,3.613,3.738,3.613c2.368,0,4.299-1.559,4.922-3.49c0.125-0.498,0.188-1.061,0.188-1.621
		v-3.303C28.047,51.441,24.184,52.627,24.184,56.303z"/>
</g>
</svg>
