<?xml version="1.0" encoding="utf-8"?>
<!-- Generator: Adobe Illustrator 16.0.0, SVG Export Plug-In . SVG Version: 6.00 Build 0)  -->
<!DOCTYPE svg PUBLIC "-//W3C//DTD SVG 1.1//EN" "http://www.w3.org/Graphics/SVG/1.1/DTD/svg11.dtd">
<svg version="1.1" id="Layer_1" xmlns="http://www.w3.org/2000/svg" xmlns:xlink="http://www.w3.org/1999/xlink" x="0px" y="0px"
	 width="96px" height="96px" viewBox="0 0 96 96" enable-background="new 0 0 96 96" xml:space="preserve">
<g>
	<path d="M93.318,56.298l-6.393-6.393c-1.079-1.08-2.545-1.688-4.073-1.688s-2.993,0.607-4.074,1.688l-8.857,8.858
		c-0.825-0.946-1.849-1.656-2.97-2.117l-10.297-4.74l-4.947-4.172l-8.502,8.455l-8.523-8.455l-4.947,4.172l-10.298,4.74
		c-1.523,0.627-2.875,1.707-3.781,3.228L0.994,84.383h48.164l8.039,8.038c1.079,1.08,2.545,1.688,4.073,1.688
		s2.993-0.607,4.075-1.688l8.037-8.038h12.012l-4.496-7.517l12.421-12.421C95.568,62.195,95.568,58.548,93.318,56.298z
		 M61.207,87.866L41.879,68.539l6.393-6.392l12.936,12.936L82.79,53.5l6.391,6.392L61.207,87.866z"/>
	<path d="M43.139,48.754v0.004c0.009,0,0.02-0.002,0.029-0.002c0.005,0,0.013,0.002,0.02,0.002c0.001,0,0.004,0,0.007,0
		s0.006,0,0.007,0c0.007,0,0.015-0.002,0.02-0.002c0.01,0,0.02,0.002,0.029,0.002v-0.004c12.005,0.183,19.302-10.324,19.49-27.646
		C62.861,9.091,55.409,2.22,43.271,1.896V1.892c-0.019,0-0.032,0.002-0.051,0.002V1.892c-0.011,0-0.019,0-0.026,0.002
		c-0.008-0.002-0.018-0.002-0.026-0.002v0.002c-0.019,0-0.033-0.002-0.049-0.002v0.004C30.981,2.22,23.527,9.091,23.648,21.108
		C23.837,38.43,31.134,48.937,43.139,48.754z"/>
</g>
</svg>
