<?xml version="1.0" encoding="utf-8"?>
<!-- Generator: Adobe Illustrator 16.0.0, SVG Export Plug-In . SVG Version: 6.00 Build 0)  -->
<!DOCTYPE svg PUBLIC "-//W3C//DTD SVG 1.1//EN" "http://www.w3.org/Graphics/SVG/1.1/DTD/svg11.dtd">
<svg version="1.1" id="Layer_1" xmlns="http://www.w3.org/2000/svg" xmlns:xlink="http://www.w3.org/1999/xlink" x="0px" y="0px"
	 width="96px" height="96px" viewBox="0 0 96 96" enable-background="new 0 0 96 96" xml:space="preserve">
<path d="M92.36,13.178l-6.656-6.656c-1.031-1.031-2.43-1.611-3.889-1.611s-2.857,0.58-3.89,1.611L59.884,24.564h-1.088l-9.039-9.037
	c-2.146-2.148-5.631-2.148-7.777,0l-6.656,6.656c-0.686,0.684-1.127,1.512-1.375,2.381H18.595l-1.394-6.893L3.272,15.35
	l-1.245,7.467l8.785,1.465l9.32,44.965l-4.092,13.01h5.658c-0.32,0.771-0.5,1.625-0.5,2.521c0,3.486,2.656,6.313,5.934,6.313
	c3.276,0,5.932-2.826,5.932-6.313c0-0.896-0.18-1.75-0.496-2.521h31.289c-0.318,0.771-0.496,1.625-0.496,2.521
	c0,3.486,2.654,6.313,5.932,6.313c3.274,0,5.931-2.826,5.931-6.313c0-0.896-0.18-1.75-0.498-2.521h5.017v-7.572H26.358l0.766-2.43
	l53.035-22.189v-5.82v-4.738v-6.35L92.36,20.955C94.509,18.809,94.509,15.326,92.36,13.178z M59.01,46.85L38.882,26.721l6.656-6.656
	L59.01,33.537l22.476-22.477l6.656,6.656L59.01,46.85z"/>
</svg>
