<?xml version="1.0" encoding="utf-8"?>
<!-- Generator: Adobe Illustrator 16.0.0, SVG Export Plug-In . SVG Version: 6.00 Build 0)  -->
<!DOCTYPE svg PUBLIC "-//W3C//DTD SVG 1.1//EN" "http://www.w3.org/Graphics/SVG/1.1/DTD/svg11.dtd">
<svg version="1.1" id="Layer_1" xmlns="http://www.w3.org/2000/svg" xmlns:xlink="http://www.w3.org/1999/xlink" x="0px" y="0px"
	 width="96px" height="96px" viewBox="0 0 96 96" enable-background="new 0 0 96 96" xml:space="preserve">
<path d="M48,82.75c12.706,0,23.318,4.472,25.896,10.439H95.25c0-11.078-10.663-20.66-26.181-25.296
	c-0.435-2.31-1.11-4.516-2.038-6.54c8.08-5.889,13.352-15.398,13.352-26.161C80.383,17.309,65.885,2.811,48,2.811
	S15.617,17.309,15.617,35.192c0,10.763,5.271,20.272,13.352,26.161c-0.928,2.024-1.604,4.23-2.038,6.54
	C11.414,72.529,0.75,82.111,0.75,93.189h21.354C24.682,87.222,35.294,82.75,48,82.75z M48,11.646c2.356,0,4.268,1.909,4.268,4.266
	S50.356,20.18,48,20.18s-4.268-1.912-4.268-4.269S45.644,11.646,48,11.646z M48,25.012c7.9,0,14.304,6.403,14.304,14.304
	c0,7.899-6.403,14.304-14.304,14.304s-14.304-6.404-14.304-14.304C33.696,31.415,40.1,25.012,48,25.012z"/>
</svg>
