<?xml version="1.0" encoding="utf-8"?>
<!-- Generator: Adobe Illustrator 16.0.0, SVG Export Plug-In . SVG Version: 6.00 Build 0)  -->
<!DOCTYPE svg PUBLIC "-//W3C//DTD SVG 1.1//EN" "http://www.w3.org/Graphics/SVG/1.1/DTD/svg11.dtd">
<svg version="1.1" xmlns="http://www.w3.org/2000/svg" xmlns:xlink="http://www.w3.org/1999/xlink" x="0px" y="0px" width="96px"
	 height="96px" viewBox="0 0 96 96" enable-background="new 0 0 96 96" xml:space="preserve">
<g id="Layer_1">
	<path d="M92.326,0.785H3.674c-1.596,0-2.889,1.293-2.889,2.89v88.65c0,1.596,1.293,2.89,2.889,2.89h88.652
		c1.596,0,2.889-1.294,2.889-2.89V3.675C95.215,2.078,93.922,0.785,92.326,0.785z M44.274,73.794l-20.012,4.527V51.825l20.012-0.199
		V73.794z M44.274,44.474l-20.012-0.598V17.679l20.012,3.359V44.474z M71.737,67.58l-20.012,4.526v-20.48l20.012-0.199V67.58z
		 M71.737,45.271l-20.012-0.697V22.289l20.012,3.359V45.271z"/>
</g>
<g id="Layer_2">
</g>
</svg>
