<?xml version="1.0" encoding="utf-8"?>
<!-- Generator: Adobe Illustrator 16.0.0, SVG Export Plug-In . SVG Version: 6.00 Build 0)  -->
<!DOCTYPE svg PUBLIC "-//W3C//DTD SVG 1.1//EN" "http://www.w3.org/Graphics/SVG/1.1/DTD/svg11.dtd">
<svg version="1.1" id="Layer_1" xmlns="http://www.w3.org/2000/svg" xmlns:xlink="http://www.w3.org/1999/xlink" x="0px" y="0px"
	 width="96px" height="96px" viewBox="0 0 96 96" enable-background="new 0 0 96 96" xml:space="preserve">
<path d="M92.069,17.978H39.053c-0.339-1.096-1.029-2.058-2.001-2.701c-1.212-0.802-2.715-1.039-4.111-0.645l-3.287,0.922
	l0.313-2.915c0.151-1.413-0.304-2.822-1.253-3.877c-0.949-1.057-2.301-1.66-3.721-1.66h-8.621c-1.419,0-2.773,0.603-3.722,1.66
	c-0.949,1.056-1.404,2.465-1.251,3.877l0.306,2.854l-2.962-0.852c-1.375-0.394-2.854-0.182-4.062,0.585
	c-1.208,0.767-2.031,2.015-2.259,3.428l-1.333,8.271c-0.223,1.378,0.142,2.786,1.002,3.884c0.861,1.098,2.142,1.787,3.533,1.899
	l0.237,0.019l-0.664,0.896c-0.875,1.175-1.188,2.674-0.861,4.101c0.328,1.427,1.264,2.64,2.562,3.316l3.206,1.673v43.277
	c0,1.603,1.303,2.907,2.906,2.907h79.06c1.603,0,2.907-1.304,2.907-2.907V20.884C94.976,19.282,93.672,17.978,92.069,17.978z
	 M76.671,22.488c1.817,0,3.292,1.474,3.292,3.293c0,1.818-1.475,3.292-3.292,3.292c-1.819,0-3.293-1.474-3.293-3.292
	C73.378,23.962,74.853,22.488,76.671,22.488z M66.951,22.488c1.817,0,3.292,1.474,3.292,3.293c0,1.818-1.475,3.292-3.292,3.292
	c-1.818,0-3.292-1.474-3.292-3.292C63.659,23.962,65.133,22.488,66.951,22.488z M9.092,36.512l6.044-8.137l-9.229-0.747l1.334-8.271
	l10.111,2.905l-1.1-10.251h8.622l-1.102,10.262l10.4-2.917l1.067,8.275l-9.227,0.744l6.161,8.12l-7.523,4.047l-4.122-8.39
	l-3.702,8.398L9.092,36.512z M88.407,82.065H53.041h-3.285H16.887V45.643c0.02,0,0.041,0.003,0.06,0.003
	c0.558,0,1.117-0.093,1.654-0.281c0.898-0.315,1.679-0.875,2.26-1.606c0.61,0.763,1.435,1.338,2.38,1.641
	c1.293,0.414,2.701,0.286,3.897-0.358l7.525-4.048c1.287-0.693,2.207-1.914,2.518-3.342c0.151-0.698,0.146-1.41,0.001-2.092h51.224
	V82.065z M86.213,29.074c-1.817,0-3.292-1.474-3.292-3.292c0-1.819,1.475-3.293,3.292-3.293c1.819,0,3.293,1.474,3.293,3.293
	C89.506,27.6,88.032,29.074,86.213,29.074z"/>
</svg>
