<?xml version="1.0" encoding="utf-8"?>
<!-- Generator: Adobe Illustrator 16.0.0, SVG Export Plug-In . SVG Version: 6.00 Build 0)  -->
<!DOCTYPE svg PUBLIC "-//W3C//DTD SVG 1.1//EN" "http://www.w3.org/Graphics/SVG/1.1/DTD/svg11.dtd">
<svg version="1.1" id="Layer_1" xmlns="http://www.w3.org/2000/svg" xmlns:xlink="http://www.w3.org/1999/xlink" x="0px" y="0px"
	 width="96px" height="96px" viewBox="0 0 96 96" enable-background="new 0 0 96 96" xml:space="preserve">
<g>
	<path d="M60.492,2.522H13.638v91.607h66.825V29.692L56.724,13.3L60.492,2.522z M34.776,59.147l-2.015-4.029
		c-0.826-1.552-1.356-2.708-1.983-3.996h-0.063c-0.464,1.287-1.026,2.443-1.721,3.996l-1.849,4.029h-5.746l6.44-11.263l-6.21-10.998
		h5.781l1.947,4.062c0.662,1.354,1.157,2.445,1.686,3.7h0.064c0.53-1.42,0.959-2.412,1.521-3.7l1.881-4.062h5.747l-6.275,10.867
		l6.607,11.394H34.776z M65.717,49.8c-3.699-1.288-6.111-3.335-6.111-6.572c0-3.799,3.173-6.706,8.424-6.706
		c2.51,0,4.358,0.529,5.68,1.124l-1.123,4.062c-0.892-0.429-2.476-1.056-4.656-1.056s-3.236,0.99-3.236,2.146
		c0,1.42,1.254,2.048,4.129,3.137c3.93,1.454,5.778,3.501,5.778,6.639c0,3.733-2.872,6.904-8.982,6.904
		c-2.543,0-5.053-0.662-6.31-1.354l1.026-4.162c1.353,0.694,3.435,1.388,5.58,1.388c2.313,0,3.534-0.959,3.534-2.411
		C69.449,51.55,68.394,50.757,65.717,49.8z M57.2,54.919v4.228H43.293V36.886h5.056v18.033H57.2z"/>
	<polygon points="65.183,2.522 62.13,11.254 80.463,23.913 	"/>
</g>
</svg>
