<?xml version="1.0" encoding="utf-8"?>
<!-- Generator: Adobe Illustrator 16.0.0, SVG Export Plug-In . SVG Version: 6.00 Build 0)  -->
<!DOCTYPE svg PUBLIC "-//W3C//DTD SVG 1.1//EN" "http://www.w3.org/Graphics/SVG/1.1/DTD/svg11.dtd">
<svg version="1.1" id="Layer_1" xmlns="http://www.w3.org/2000/svg" xmlns:xlink="http://www.w3.org/1999/xlink" x="0px" y="0px"
	 width="96px" height="96px" viewBox="0 0 96 96" enable-background="new 0 0 96 96" xml:space="preserve">
<g>
	<polygon points="65.049,2.872 62.02,11.538 80.212,24.099 	"/>
	<path d="M81.631,34.048h-1.305v-4.215L56.769,13.567L60.51,2.872H14.015v31.176h-0.271c-1.504,0-2.723,1.219-2.723,2.722v23.65
		c0,1.503,1.219,2.722,2.723,2.722h0.271v30.631h66.312V63.143h1.305c1.504,0,2.723-1.219,2.723-2.722v-23.65
		C84.354,35.267,83.135,34.048,81.631,34.048z M29.764,59.045l-1.999-3.999c-0.818-1.541-1.345-2.688-1.967-3.965h-0.064
		c-0.46,1.277-1.018,2.425-1.706,3.965l-1.835,3.999H16.49l6.391-11.177l-6.162-10.913h5.737l1.933,4.03
		c0.656,1.344,1.148,2.426,1.672,3.671h0.064c0.525-1.409,0.951-2.393,1.51-3.671l1.866-4.03h5.702l-6.227,10.783l6.557,11.307
		H29.764z M57.227,59.045l-0.33-8.456c-0.099-2.654-0.196-5.867-0.196-9.079h-0.099c-0.686,2.818-1.605,5.964-2.457,8.554
		l-2.688,8.62h-3.899l-2.361-8.554c-0.72-2.589-1.473-5.736-1.999-8.62h-0.063c-0.133,2.983-0.231,6.391-0.394,9.144l-0.394,8.391
		h-4.623l1.411-22.09h6.652l2.164,7.374c0.688,2.558,1.377,5.311,1.868,7.9h0.099c0.622-2.558,1.374-5.474,2.098-7.932l2.358-7.342
		h6.521l1.215,22.09H57.227z M79.735,59.045H65.938v-22.09h5.014V54.85h8.783V59.045z"/>
</g>
</svg>
