<?xml version="1.0" encoding="utf-8"?>
<!-- Generator: Adobe Illustrator 17.1.0, SVG Export Plug-In . SVG Version: 6.00 Build 0)  -->
<!DOCTYPE svg PUBLIC "-//W3C//DTD SVG 1.1//EN" "http://www.w3.org/Graphics/SVG/1.1/DTD/svg11.dtd">
<svg version="1.1" id="Layer_1" xmlns="http://www.w3.org/2000/svg" xmlns:xlink="http://www.w3.org/1999/xlink" x="0px" y="0px"
	 width="1000px" height="1000px" viewBox="0 0 1000 1000" enable-background="new 0 0 1000 1000" xml:space="preserve">
<g>
	<path d="M419.7,149.9v297.6h-91.5l0.1,75h91.4v297.6c0,39.4,34.2,71.5,76.3,71.5h269.3v-75H496c-0.5,0-0.9,0-1.3-0.1v-294h257.5
		v-75H494.7v-294c0.4-0.1,0.8-0.1,1.3-0.1h269.3v-75H496C453.9,78.4,419.7,110.5,419.7,149.9z"/>
	<circle cx="164.1" cy="256.9" r="58.7"/>
	<path d="M303.3,447.5l-0.1-57.5c1.3-29.7-15.1-47.5-40.8-47.5h-44c-6.5,0-12.4,3.8-15.2,9.7l-22.6,49.4l-7-14.7l-4.5-9.4l12.9-27.1
		c1.3-2.7,0.2-5.8-2.2-7.2c-0.8-0.5-1.8-0.8-2.9-0.8h-25.7c-1.1,0-2,0.3-2.9,0.8c-2.3,1.4-3.5,4.5-2.2,7.2l12.9,27.1l-4.5,9.4
		l-7,14.7L125,352.2c-2.7-5.9-8.6-9.7-15.2-9.7h-44c-25.6,0-42.1,17.8-40.8,47.5l-0.3,183.9c0,13.2,12,19.7,23.9,19.7
		c11.7,0,23.3-6.3,23.3-18.6l0.3-146l19,0.1L92,804.5c0,18.9,16,28.3,32,28.3c16,0,32.1-9.5,32.1-28.5l0-185.7h16.3l0,185.7
		c0,19,16,28.5,32.1,28.5c16,0,32-9.4,32-28.3l0.6-375.5l19,0.1l0.3,145.8c0,12.4,11.6,18.6,23.3,18.6c11.9,0,23.9-6.5,23.9-19.7
		l-0.1-51.3L303.3,447.5z"/>
	<path d="M929.6,29.3h-82.7c-25,0-45.2,20.3-45.2,45.2v82.7c0,25,20.3,45.2,45.2,45.2h82.7c25,0,45.2-20.3,45.2-45.2V74.5
		C974.8,49.6,954.6,29.3,929.6,29.3z"/>
	<path d="M929.6,398.4h-82.7c-25,0-45.2,20.3-45.2,45.2v82.7c0,25,20.3,45.2,45.2,45.2h82.7c25,0,45.2-20.3,45.2-45.2v-82.7
		C974.8,418.7,954.6,398.4,929.6,398.4z"/>
	<path d="M929.6,767.5h-82.7c-25,0-45.2,20.3-45.2,45.2v82.7c0,25,20.3,45.2,45.2,45.2h82.7c25,0,45.2-20.3,45.2-45.2v-82.7
		C974.8,787.8,954.6,767.5,929.6,767.5z"/>
</g>
</svg>
