<?xml version="1.0" encoding="utf-8"?>
<!-- Generator: Adobe Illustrator 17.1.0, SVG Export Plug-In . SVG Version: 6.00 Build 0)  -->
<!DOCTYPE svg PUBLIC "-//W3C//DTD SVG 1.1//EN" "http://www.w3.org/Graphics/SVG/1.1/DTD/svg11.dtd">
<svg version="1.1" id="Layer_1" xmlns="http://www.w3.org/2000/svg" xmlns:xlink="http://www.w3.org/1999/xlink" x="0px" y="0px"
	 width="1000px" height="1000px" viewBox="0 0 1000 1000" enable-background="new 0 0 1000 1000" xml:space="preserve">
<g>
	<path d="M385.3,97h90c34.4,0,63.1,24.7,69.4,57.2h50.5C588.5,94,537.3,47,475.3,47h-90c-62,0-113.2,47-120,107.2h50.5
		C322.3,121.7,351,97,385.3,97z"/>
	<path d="M123.1,669.3h460.6c-2.2-11.6-3.3-23.5-3.3-35.7c0-106.1,86.4-192.5,192.5-192.5c21.1,0,41.5,3.4,60.5,9.7V289.4
		c-4.3,8.9-9.3,17.7-14.9,26.4c-21.8,33.4-52.9,63.2-92.2,88.6c-61.3,39.6-138,65.5-221.2,75.1v8.6v23.2c0,37.9-30.8,68.7-68.7,68.7
		h-11.9c-37.9,0-68.7-30.8-68.7-68.7v-23.2v-8.6c-83.1-9.7-159.9-35.5-221.2-75.1c-39.4-25.4-70.4-55.2-92.2-88.6
		c-5.7-8.7-10.6-17.4-14.9-26.4v284.2C27.3,626.5,70.2,669.3,123.1,669.3z"/>
	<path d="M156.2,370.8c72.9,47.1,170.3,73.1,274.1,73.1s201.2-25.9,274.1-73.1c65.6-42.4,103.6-97,108.4-155
		c-17.5-22.2-44.7-36.5-75.2-36.5H596h-50H314.6h-50H123.1c-30.5,0-57.7,14.3-75.2,36.5C52.6,273.7,90.6,328.4,156.2,370.8z"/>
	<path d="M395.7,511.3c0,15.9,12.9,28.7,28.7,28.7h11.9c15.9,0,28.7-12.9,28.7-28.7v-23.2h-69.3L395.7,511.3L395.7,511.3z"/>
	<path d="M833.3,563.8c-16.2-14.1-37.4-22.6-60.5-22.6c-51,0-92.5,41.5-92.5,92.5c0,12.6,2.5,24.7,7.2,35.7c1.8,4.3,4,8.5,6.4,12.5
		c2.7,4.4,5.8,8.6,9.2,12.5c1.5,1.7,3,3.3,4.6,4.9h25.5c35.3,0,67-15.2,88.9-39.4c17.6-19.4,28.9-44.6,30.8-72.5
		c-2.1-3.7-4.5-7.2-7.1-10.5C842.1,572.1,837.9,567.7,833.3,563.8z"/>
	<path d="M932.7,740.8l-9-9.1l-5.7-5.8c-1.1-1.1-2.2-2.1-3.4-3.1c16.3-25.8,25.7-56.4,25.7-89.1c0-61.1-32.9-114.7-82-144
		c-4.1-2.4-8.2-4.7-12.5-6.8c-4.1-2-8.2-3.8-12.5-5.5c-18.8-7.3-39.2-11.3-60.5-11.3c-92.4,0-167.5,75.1-167.5,167.5
		c0,12.2,1.3,24.2,3.8,35.7c0.9,4.2,2,8.4,3.2,12.5c1.3,4.2,2.7,8.4,4.3,12.5c24.4,62.5,85.1,106.8,156.1,106.8
		c32.7,0,63.3-9.4,89.1-25.7c0.8,1,1.7,2,2.6,3l6.2,6.3l8.9,9.1l43,43.7c7.3,7.5,17,11.2,26.7,11.2c9.5,0,19-3.6,26.3-10.8
		c14.8-14.5,15-38.3,0.5-53L932.7,740.8z M772.8,751.2c-38.3,0-72.4-18.4-93.9-46.9c-1.2-1.6-2.4-3.3-3.6-5
		c-1.1-1.6-2.1-3.3-3.1-4.9c-0.5-0.9-1-1.7-1.5-2.6c-1.8-3.2-3.5-6.5-5-9.9c-1.8-4-3.4-8.2-4.8-12.5c-3.6-11.3-5.5-23.2-5.5-35.7
		c0-64.8,52.7-117.5,117.5-117.5c22.1,0,42.8,6.1,60.5,16.8c4.4,2.6,8.5,5.5,12.5,8.7c2.5,2,5,4.1,7.3,6.3c1.4,1.3,2.8,2.7,4.2,4.1
		c0.3,0.3,0.7,0.7,1,1c5.6,5.9,10.5,12.4,14.8,19.3c10.9,17.8,17.2,38.8,17.2,61.2C890.3,698.5,837.6,751.2,772.8,751.2z"/>
</g>
</svg>
