<?xml version="1.0" encoding="utf-8"?>
<!-- Generator: Adobe Illustrator 17.1.0, SVG Export Plug-In . SVG Version: 6.00 Build 0)  -->
<!DOCTYPE svg PUBLIC "-//W3C//DTD SVG 1.1//EN" "http://www.w3.org/Graphics/SVG/1.1/DTD/svg11.dtd">
<svg version="1.1" id="Layer_1" xmlns="http://www.w3.org/2000/svg" xmlns:xlink="http://www.w3.org/1999/xlink" x="0px" y="0px"
	 width="1000px" height="1000px" viewBox="0 0 1000 1000" enable-background="new 0 0 1000 1000" xml:space="preserve">
<path d="M905.1,235c-27.7-42.3-61.8-79.6-101.5-111c-40.1-31.7-84.8-56.3-132.8-73.3C621.1,33.2,569,24.3,515.9,24.3
	c-79.7,0-158.3,20.5-227.3,59.3c-60.3,33.9-112.7,81.3-152.6,137.8l-28.2-13c-10.3-4.8-21.9,3.5-20.9,14.8l12.5,135.2
	c1,11.3,14,17.3,23.2,10.7l110.9-78.4c9.3-6.6,8-20.7-2.4-25.5l-25.7-11.8c32.3-42.5,73.3-78.2,119.8-104.4
	c57.9-32.5,123.8-49.7,190.6-49.7c44.6,0,88.3,7.5,129.9,22.2c40.2,14.2,77.7,34.9,111.3,61.4c33.3,26.3,62,57.6,85.2,93.1
	c23.6,36.1,40.9,75.5,51.4,117.1c4.3,17,19.6,28.3,36.3,28.3c3,0,6.1-0.4,9.2-1.2c20.1-5.1,32.2-25.5,27.2-45.6
	C953.9,325,933.2,278,905.1,235z"/>
<path d="M933.5,642.3c-1-11.3-14-17.3-23.2-10.7l-110.9,78.4c-9.3,6.6-8,20.7,2.4,25.5l25.7,11.8c-32.3,42.5-73.3,78.2-119.8,104.4
	c-57.9,32.5-123.8,49.7-190.6,49.7c-44.6,0-88.3-7.5-129.9-22.2c-40.2-14.2-77.7-34.9-111.3-61.4c-33.3-26.3-62-57.6-85.2-93.1
	c-23.6-36.1-40.9-75.5-51.4-117.1c-5.1-20.1-25.5-32.2-45.6-27.2c-20.1,5.1-32.2,25.5-27.2,45.6c12.6,49.7,33.2,96.7,61.4,139.8
	c27.7,42.3,61.8,79.6,101.5,111c40.1,31.7,84.8,56.3,132.8,73.3c49.6,17.5,101.8,26.4,154.9,26.4c79.7,0,158.3-20.5,227.3-59.3
	c60.3-33.9,112.7-81.3,152.6-137.8l28.2,13c10.3,4.8,21.9-3.5,20.9-14.8L933.5,642.3z"/>
<path d="M392.5,790.2c39.3,16.6,80.9,25,123.9,25s84.6-8.4,123.9-25c37.9-16,71.9-39,101.1-68.2c29.2-29.2,52.2-63.2,68.2-101.1
	c16.6-39.3,25-80.9,25-123.9s-8.4-84.6-25-123.9c-16-37.9-39-71.9-68.2-101.1c-29.2-29.2-63.2-52.2-101.1-68.2
	c-39.3-16.6-80.9-25-123.9-25s-84.6,8.4-123.9,25c-37.9,16-71.9,39-101.1,68.2c-29.2,29.2-52.2,63.2-68.2,101.1
	c-16.6,39.3-25,80.9-25,123.9s8.4,84.6,25,123.9c16,37.9,39,71.9,68.2,101.1C320.6,751.3,354.6,774.2,392.5,790.2z M325.1,459.5h-49
	c7.8-50.7,31.4-97.5,68.4-134.5c37-37,83.8-60.6,134.5-68.4v49c0,20.7,16.8,37.5,37.5,37.5c20.7,0,37.5-16.8,37.5-37.5v-49
	c50.7,7.8,97.5,31.4,134.5,68.4c37,37,60.6,83.8,68.4,134.5h-49c-20.7,0-37.5,16.8-37.5,37.5s16.8,37.5,37.5,37.5h49
	C749,585.2,725.4,632,688.4,669c-37,37-83.8,60.6-134.5,68.4v-49c0-20.7-16.8-37.5-37.5-37.5s-37.5,16.8-37.5,37.5v49
	c-50.7-7.8-97.5-31.4-134.5-68.4c-37-37-60.6-83.8-68.4-134.5h49c20.7,0,37.5-16.8,37.5-37.5S345.8,459.5,325.1,459.5z"/>
<path d="M489.7,519.7c1.4,1.7,3.1,3.2,4.8,4.4c0.9,0.7,1.8,1.4,2.7,2c0.3,0.2,0.6,0.4,1,0.6l132.9,90.9c3.1,2.1,6.7-1.8,4.3-4.7
	l-87.9-105.8L650,348.3c2.5-3.8-2.5-8.1-5.9-5.1L493.5,475.4c-2.1,1.9-4.2,4.2-5.8,6.7c-6.1,9.4-6.6,20.9-2.3,30.4
	C486.5,515,487.9,517.5,489.7,519.7z"/>
</svg>
