<?xml version="1.0" encoding="utf-8"?>
<!-- Generator: Adobe Illustrator 17.1.0, SVG Export Plug-In . SVG Version: 6.00 Build 0)  -->
<!DOCTYPE svg PUBLIC "-//W3C//DTD SVG 1.1//EN" "http://www.w3.org/Graphics/SVG/1.1/DTD/svg11.dtd">
<svg version="1.1" id="Layer_1" xmlns="http://www.w3.org/2000/svg" xmlns:xlink="http://www.w3.org/1999/xlink" x="0px" y="0px"
	 width="1000px" height="1000px" viewBox="0 0 1000 1000" enable-background="new 0 0 1000 1000" xml:space="preserve">
<path d="M738.7,745v64.8c4.4-2,8.3-5,11.7-8.9c6.1-6.9,9.1-15.4,9.1-25.9c0-8.7-1.9-15.3-5.9-20.2
	C751.5,752.3,747.3,748.8,738.7,745z"/>
<g>
	<path d="M454.6,725.9c0-36.1,7.1-71.1,21-104.1c13.5-31.8,32.7-60.4,57.3-85c22-22,47.3-39.8,75.2-52.9
		c-6.7-24.3-29-42.1-55.4-42.1h-63.9c-11.3,0-21.8,5.5-28.4,14.7l-94.3,133.3l-23-48.3l36.6-77c5-10.5-2.7-22.7-14.3-22.7h-73.3
		c-11.7,0-19.4,12.2-14.3,22.7l36.6,77L291.9,589l-91.2-132.2c-6.5-9.4-17.2-15-28.6-15h-67.1c-31.8,0-57.5,25.7-57.5,57.5v382.1
		h457.1c-11.5-16-21.1-33.2-28.9-51.5C461.7,797,454.6,761.9,454.6,725.9z"/>
	<path d="M327.8,34.6c-102.2,0-185.3,83.1-185.3,185.3s83.1,185.3,185.3,185.3s185.3-83.1,185.3-185.3S430,34.6,327.8,34.6z"/>
	<path d="M721,482.8c-40.3,0-78.3,9.8-111.7,27.2c-77.6,40.4-130.6,121.6-130.6,215.1c0,59.2,21.3,113.5,56.6,155.6
		c44.5,53,111.2,86.8,185.8,86.8c133.8,0,242.4-108.5,242.4-242.4S854.8,482.8,721,482.8z M789.8,831.4
		c-13.1,13.7-29.6,22-49.1,24.8v21.6c0,5.5-4.5,10-10,10h-17.9c-5.5,0-10-4.5-10-10V856c-12.4-2.2-23-5.5-31.6-9.9
		c-11-5.7-20.6-14.8-28.5-27.2c-7.8-12.3-12.3-27.3-13.6-44.6c-0.4-5.1,3.1-9.6,8.1-10.5l30.5-5.7c2.7-0.5,5.4,0.1,7.7,1.7
		c2.2,1.6,3.7,4,4.1,6.7c2.1,14.5,5.6,25,10.5,31.2c3.9,4.9,8.1,8.6,12.8,11v-75.3c-10.9-2.9-22-7.5-33.1-13.7
		c-11.3-6.3-20.1-15.1-26.2-26.3c-6-11-9.1-23.5-9.1-37.3c0-24.5,8.9-44.6,26.3-59.9c10.1-8.9,24.2-14.8,42.1-17.8v-5.7
		c0-5.5,4.5-10,10-10h17.9c5.5,0,10,4.5,10,10v5.7c15.5,2.7,28.4,8.2,38.4,16.6c15.1,12.6,24.4,29.9,27.4,51.6
		c0.8,5.4-3,10.5-8.4,11.3l-31.3,4.7c-5.5,0.8-10.6-2.9-11.4-8.4c-1.5-9.9-4.4-17.4-8.8-22.2c-1.7-1.9-3.6-3.5-5.9-4.9v65.3
		c11.7,3.1,19.7,5.5,24.3,7.5c10.6,4.7,19.4,10.5,26.2,17.3c6.9,6.9,12.3,15.2,16,24.7c3.6,9.3,5.5,19.5,5.5,30.3
		C812.7,795.5,805,815.5,789.8,831.4z"/>
</g>
<path d="M690.5,634.1c-5.2,5.8-7.7,12.5-7.7,20.5c0,8,2.1,14.4,6.4,19.5c2.6,3.2,6.5,6,11.7,8.6v-56.2
	C696.8,628.3,693.3,630.8,690.5,634.1z"/>
</svg>
