<?xml version="1.0" encoding="utf-8"?>
<!-- Generator: Adobe Illustrator 17.1.0, SVG Export Plug-In . SVG Version: 6.00 Build 0)  -->
<!DOCTYPE svg PUBLIC "-//W3C//DTD SVG 1.1//EN" "http://www.w3.org/Graphics/SVG/1.1/DTD/svg11.dtd">
<svg version="1.1" id="Layer_1" xmlns="http://www.w3.org/2000/svg" xmlns:xlink="http://www.w3.org/1999/xlink" x="0px" y="0px"
	 width="1000px" height="1000px" viewBox="0 0 1000 1000" enable-background="new 0 0 1000 1000" xml:space="preserve">
<path d="M974.6,653.5c-5.8-44.8-13.1-89.3-22.7-133.2c-11-50.4-21.3-103.7-48.6-146.7c-24.4-38.4-56.9-51.4-93.2-62.9
	c-16.4-5.2-33.9,3.8-39.7,20.3c-10,28.8-25.3,79-35.8,114c-3.4,11.5-19.6,11.5-23.1,0c-10.5-35-25.7-85.2-35.8-114
	c-5.7-16.5-23.2-25.5-39.7-20.3c-28.1,8.9-53.9,18.7-75.4,40.5l60.8,86.5c5.4,7.6,7.4,16.9,5.8,26.1s-6.7,17.2-14.3,22.6l-12.5,8.8
	c-5.6,20.4-8.9,42.2-6.6,62.3c2.3,20,25,46.3,22,65.3c-1.2,7.8-5.7,16.9-10,27.1c-4,9.4,3,19.9,13.2,19.9h208.1
	c10.2,0,17.2-10.4,13.2-19.9c-4.3-10.2-8.8-19.3-10-27.1c4.1-22.9,19.9-41.5,22-64.8c2.4-27.1,0.1-66.2-8.5-89.3
	c24.4,30.5,42.7,119.4,54.8,189.2c1.2,6.9,7.2,11.9,14.1,11.9h47.6C969,669.6,975.7,662,974.6,653.5z"/>
<path d="M471.6,653.5c-1.1,8.6,5.6,16.1,14.2,16.1h47.6c7,0,12.9-5,14.1-11.9c9.1-52,25.2-114.6,43-155.8l-107.4,75.5
	C478.7,602.7,474.9,628,471.6,653.5z"/>
<path d="M830.5,88.2c-25.8-33.3-66.1-57.3-107.5-57.3s-81.6,24-107.5,57.3c-28.6,37-24.5,80.8-35.6,123.9
	c-4.1,16.1-9,32.1-14.8,47.6c28.6,12.6,58.7,2,79.2-8.8c21.1,18.3,48.6,49.5,78.7,49.5s57.6-31.2,78.7-49.5
	c20.5,10.7,50.6,21.4,79.2,8.8c-5.8-15.5-10.7-31.5-14.8-47.6C855,169,859.2,125.2,830.5,88.2z"/>
<path d="M138.9,936.9c-2.3-1.4-4.1-2.3-6.1-3.6L88,906.8L65.7,894c-9.2-5.3-20.9-2.1-26.2,7.1l-2.7,4.7c-5.3,9.2-2.1,20.9,7.1,26.2
	l72.8,41.6c9.2,5.3,20.9,2.1,26.2-7.1l2.7-4.7C150.7,953,147.4,942.4,138.9,936.9z"/>
<path d="M314.9,695.6l-14.5,10.2l-15.7,39.5c4.6,2.5,9.4,3.8,14.1,3.8c12.4,0,21.7-8.4,26-15.5c3.4-5.7,4.3-13.1,2.5-20.3
	C325.5,706.1,321.1,699.9,314.9,695.6z"/>
<path d="M339.5,463.5c-0.5,4.1,0.5,7.8,2.9,11.2c2.4,3.5,5.3,5.6,8.7,6.5c2.1,0.6,4.7,0.6,7.7,0.1L341.6,457
	C340.4,459,339.7,461.2,339.5,463.5z"/>
<path d="M604.3,473.9c0.7-0.5,1.3-1,1.9-1.5c0.9-0.8,1.7-1.6,2.4-2.6c5.3-6.7,5.8-16.4,0.6-23.7l-58.7-83.5l-47.7-67.9
	c-3.9-5.5-10-8.5-16.3-8.5c-4,0-8,1.2-11.4,3.6L144.7,522.1c-9,6.3-11.2,18.7-4.9,27.8l33.9,48.3l6.2,8.8l6.7,9.5l31.2,44.4l4.9,6.9
	l15.1-24.4l1.9-3l4-6.4l12.5-20.1c3.7-6.2,8.8-10.9,14.6-14.2c3.6-2,7.5-3.4,11.5-4.2c9-1.8,18.7-0.3,27.2,4.7
	c13.3,7.9,19.4,22.1,17.6,36.3c-0.7,5.3-2.4,10.6-5.3,15.6l-0.8,2.1l-10.4,26.3l1.8-1.2l10.5-7.4l10.5-7.4l153.8-108L604.3,473.9z
	 M442.8,518.6c-1.5,9.9-6.1,18.6-13.7,25.7l6.6,9.3c1.7,2.4,1.1,5.7-1.3,7.4l-7.7,5.5c-2.4,1.7-5.7,1.1-7.4-1.3l-6.6-9.4
	c-6,2.8-11.6,4.6-16.7,5.3c-6.5,0.9-13.5-0.1-20.6-3.1c-7.1-2.9-13.7-8-19.5-15.2c-1.7-2.1-1.6-5.1,0.3-7l11.5-11.8
	c1-1,2.4-1.6,3.8-1.6c1.4,0,2.8,0.6,3.8,1.7c5.3,5.6,10.1,9.1,14,10.3c3.2,0.9,6.1,1.2,8.9,0.8l-23-32.6c-5.6,2.1-11.8,3.5-18.5,4.2
	c-6.8,0.7-13.3-0.4-19.4-3.4c-6-2.9-11.1-7.4-15.3-13.4c-7.5-10.6-9.8-22-6.9-34c1.7-6.9,6-13.8,12.8-20.5L326,433
	c-1.7-2.4-1.1-5.7,1.3-7.4l7.7-5.5c2.4-1.7,5.7-1.1,7.4,1.3l1.8,2.5c7.5-3.6,14.8-5.1,21.7-4.5c10.4,0.8,19.7,5.5,27.6,14
	c2,2.1,1.9,5.4-0.2,7.5l-12.1,11.6c-2.1,2-5.5,2-7.5-0.2c-3.7-3.8-7.2-6.2-10.6-6.9c-1.3-0.3-2.7-0.4-4-0.3l20,28.3
	c6-2.3,10.2-3.6,12.8-4.2c6-1.2,11.6-1.4,16.6-0.5c5.1,0.9,10,2.8,14.5,5.8c4.4,2.9,8.3,6.8,11.6,11.4
	C441.7,496,444.5,507.1,442.8,518.6z"/>
<path d="M403.7,496.4c-1.6-0.5-4.5-0.7-9.4,0.3l19.8,28.1c1.3-2.2,2.1-4.7,2.4-7.4c0.5-4.9-0.8-9.4-4-14
	C409.7,499.6,406.9,497.4,403.7,496.4z"/>
<path d="M307.2,644c5.8-9.8,2.6-22.4-7.2-28.2c-9.8-5.8-22.4-2.6-28.2,7.2l-17.3,30.2l-18.9,33l-4.1,7.2l-4.1,7.2l-1.9,3.4l-18,30.8
	c-2.7,4.3-6.9,6.8-11.7,7.1c-0.3,0-0.5,0-0.8,0c-4.6,0-8.9-2.1-11.6-5.8c-1.4-1.8-13.2-18.4-8.4-35.4c1.9-6.7,7-15.9,20.7-21.4
	c0.3-0.1,0.6-0.2,0.9-0.3l12.7-4.1l-44-62.6c-1-0.1-1.9-0.1-2.9-0.1c-7,0-12.3,1.6-15.7,4.7c-13.5,12.6-45.7,109.2-82.1,246
	c-1.7,6.4,1.1,13.3,6.8,16.6l68.9,40.9c2.3,1.4,4.9,2.1,7.6,2.1c5,0,9.6-2.5,12.4-6.6l89.9-134.5l24.4-59l4.5-11l5.3-12.9l22.4-54.1
	L307.2,644z"/>
</svg>
