<?xml version="1.0" encoding="utf-8"?>
<!-- Generator: Adobe Illustrator 17.1.0, SVG Export Plug-In . SVG Version: 6.00 Build 0)  -->
<!DOCTYPE svg PUBLIC "-//W3C//DTD SVG 1.1//EN" "http://www.w3.org/Graphics/SVG/1.1/DTD/svg11.dtd">
<svg version="1.1" id="Layer_1" xmlns="http://www.w3.org/2000/svg" xmlns:xlink="http://www.w3.org/1999/xlink" x="0px" y="0px"
	 width="1000px" height="1000px" viewBox="0 0 1000 1000" enable-background="new 0 0 1000 1000" xml:space="preserve">
<g>
	<path d="M262.6,181.8V32.6c-10.4,1.5-20.2,6.3-27.7,13.8L104.6,177.8c-7.4,7.4-12.1,17-13.6,27.3h148.3
		C252.1,205.1,262.6,194.7,262.6,181.8z"/>
	<path d="M90.5,771.6c0,26.7,21.7,48.4,48.4,48.4h248.7c-11.7-14.8-21.8-30.8-30.3-47.8c-10.4-20.9-18.1-43-22.8-65.7
		c-17.9-1.6-33.4-11.6-42.6-25.9h-75.9c-14.1,0-25.5-11.4-25.5-25.5s11.4-25.5,25.5-25.5h70.7c7.6-19.7,25.9-34.2,47.8-36.2
		c3.5-16.7,8.5-32.9,15-48.6H215.9c-14.1,0-25.5-11.4-25.5-25.5s11.4-25.5,25.5-25.5h161.3c9.5-13.7,20.2-26.6,32.1-38.5
		c18.3-18.3,38.9-33.8,61.4-46.3H215.9c-14.1,0-25.5-11.4-25.5-25.5s11.4-25.5,25.5-25.5h338.5c9.7-17.4,28.3-29.2,49.6-29.2
		c29.6,0,53.9,22.7,56.5,51.6c21.3,4.5,42,11.4,61.7,20.9V80.5c0-26.7-21.7-48.4-48.4-48.4H312.6v149.7c0,40.4-32.9,73.3-73.3,73.3
		H90.5V771.6z M418.3,173h181.4c14.1,0,25.5,11.4,25.5,25.5S613.8,224,599.7,224H418.3c-14.1,0-25.5-11.4-25.5-25.5
		S404.3,173,418.3,173z"/>
	<path d="M929.6,976.5c14.6-14.6,14.6-38.4,0-53L822.9,816.8l-8.9-8.9l-8.9-8.9c25-33.6,41.8-73.7,47.4-117.3h16
		c17.5,0,31.8-14.2,31.8-31.8c0-17.5-14.2-31.8-31.8-31.8h-16c-9.1-71.6-48.6-133.9-105.2-173.5c-4.1-2.9-8.2-5.6-12.5-8.2
		c-4.1-2.5-8.3-4.9-12.5-7.2c-26.4-14.2-55.5-23.8-86.5-27.7v-16c0-17.5-14.2-31.8-31.8-31.8c-9.6,0-18.2,4.3-24.1,11
		c-4.8,5.6-7.7,12.8-7.7,20.7v16c-12.4,1.6-24.6,4.1-36.3,7.4c-50.9,14.4-95.2,44.5-127.4,84.8c-12.5,15.6-23.1,32.7-31.6,51
		c-10.6,22.8-17.9,47.5-21.2,73.4h-16c-9.8,0-18.5,4.4-24.4,11.4c-4.6,5.5-7.4,12.6-7.4,20.4c0,14.6,9.9,26.9,23.3,30.6
		c2.7,0.7,5.6,1.2,8.5,1.2h16c6.7,53,30.2,101,64.8,138.3c4,4.3,8.1,8.5,12.4,12.5c4.6,4.3,9.4,8.5,14.4,12.5
		c35.1,28.3,78.1,47.3,125,53.3v16c0,17.5,14.2,31.8,31.8,31.8c17.5,0,31.8-14.2,31.8-31.8v-16c43-5.5,82.7-21.9,116.1-46.4l8.9,8.9
		l9,9l106.8,106.8c7.3,7.3,16.9,11,26.5,11S922.3,983.8,929.6,976.5z M747.2,772c-4.6,5.3-9.4,10.4-14.6,15.2
		c-8.8,8.2-18.4,15.6-28.6,22.1c-4.1,2.6-8.4,5-12.7,7.3c-12.9,6.8-26.8,12.1-41.2,15.8c-14.7,3.7-30.2,5.7-46.1,5.7
		c-15.9,0-31.3-2-46.1-5.7c-12.1-3-23.7-7.2-34.8-12.5c-54.7-26-94.9-77.7-105-139.5c-1.6-10-2.5-20.2-2.5-30.6
		c0-6.9,0.4-13.7,1.1-20.4c3.4-31.2,14.3-60.1,31-84.8c13.6-20.1,30.9-37.4,51-51c30-20.3,66.2-32.1,105.2-32.1
		c44.8,0,85.9,15.6,118.2,41.8c4.3,3.5,8.5,7.2,12.5,11c4.4,4.2,8.5,8.7,12.5,13.3c28.1,32.9,45,75.6,45,122.2
		C792.3,696.5,775.3,739.2,747.2,772z"/>
	<path d="M674.3,643.2c-6.8-6.8-15.6-12.6-26.2-17.3c-4.6-2-12.6-4.4-24.3-7.5v-65.3c2.2,1.4,4.2,3,5.9,4.9
		c4.3,4.8,7.3,12.3,8.8,22.2c0.8,5.5,5.9,9.2,11.4,8.4l31.3-4.7c5.4-0.8,9.2-5.8,8.4-11.3c-3-21.7-12.3-39-27.4-51.6
		c-10-8.4-22.9-13.9-38.4-16.6v-5.7c0-5.5-4.5-10-10-10H596c-5.5,0-10,4.5-10,10v5.7c-17.8,2.9-32,8.9-42.1,17.8
		c-17.5,15.3-26.3,35.4-26.3,59.9c0,13.8,3,26.3,9.1,37.3c6.1,11.2,14.9,20,26.2,26.3c11.1,6.2,22.2,10.8,33.1,13.7v75.3
		c-4.6-2.4-8.9-6-12.8-11c-4.8-6.2-8.4-16.7-10.5-31.2c-0.4-2.7-1.9-5.1-4.1-6.7c-2.2-1.6-5-2.2-7.7-1.7l-30.5,5.7
		c-5,0.9-8.5,5.5-8.1,10.5c1.2,17.3,5.8,32.3,13.6,44.6c7.8,12.4,17.4,21.5,28.5,27.2c8.5,4.4,19.1,7.7,31.6,9.9v21.7
		c0,5.5,4.5,10,10,10h17.9c5.5,0,10-4.5,10-10v-21.6c19.6-2.7,36.1-11.1,49.1-24.8c15.1-15.9,22.8-35.9,22.8-59.5
		c0-10.8-1.8-20.9-5.5-30.3C686.6,658.4,681.2,650.2,674.3,643.2z M584,608.8c-5.2-2.5-9.1-5.4-11.7-8.6c-4.3-5.2-6.4-11.5-6.4-19.5
		c0-8,2.5-14.7,7.7-20.5c2.9-3.2,6.3-5.8,10.4-7.6V608.8z M633.6,727.1c-3.4,3.9-7.3,6.8-11.7,8.9v-64.8c8.6,3.9,12.8,7.3,14.8,9.8
		c4,4.9,5.9,11.5,5.9,20.2C642.6,711.7,639.6,720.1,633.6,727.1z"/>
</g>
</svg>
