<?xml version="1.0" encoding="utf-8"?>
<!-- Generator: Adobe Illustrator 17.1.0, SVG Export Plug-In . SVG Version: 6.00 Build 0)  -->
<!DOCTYPE svg PUBLIC "-//W3C//DTD SVG 1.1//EN" "http://www.w3.org/Graphics/SVG/1.1/DTD/svg11.dtd">
<svg version="1.1" id="Layer_1" xmlns="http://www.w3.org/2000/svg" xmlns:xlink="http://www.w3.org/1999/xlink" x="0px" y="0px"
	 width="1000px" height="1000px" viewBox="0 0 1000 1000" enable-background="new 0 0 1000 1000" xml:space="preserve">
<circle cx="178.76" cy="396.073" r="59.369"/>
<path d="M278.117,482.62h-44.466c-6.594,0-12.583,3.844-15.328,9.84l-22.871,49.952l-7.006-14.726l-4.587-9.642l13.014-27.356
	c1.274-2.678,0.234-5.643-1.975-7.12c-0.88-0.588-1.939-0.947-3.12-0.948h-0.001h-26.036h-0.001c-1.181,0-2.24,0.359-3.12,0.948
	c-2.208,1.477-3.249,4.442-1.975,7.12l13.014,27.356l-4.588,9.643l-7.005,14.725l-22.871-49.952
	c-2.745-5.995-8.734-9.84-15.328-9.84H79.403c-25.936,0-42.559,18.036-41.248,48.041L37.89,655.47
	c0,13.346,12.127,19.906,24.159,19.906c11.851,0,23.608-6.358,23.608-18.857l0.293-93.165l19.23,0.087l0.604,276.054
	c0,19.083,16.152,28.636,32.319,28.636c16.203,0,32.421-9.591,32.421-28.797L170.52,706.37H187l-0.005,132.964
	c0,19.203,16.22,28.797,32.421,28.797c16.169,0,32.32-9.551,32.32-28.636l0.604-276.054l19.231,0.142l0.292,92.936
	c0,12.498,11.759,18.857,23.608,18.857c12.033,0,24.159-6.558,24.159-19.906l-0.266-124.809
	C320.676,500.656,304.052,482.62,278.117,482.62z"/>
<path d="M505.385,475.672l-99.765,81.19c-5.727,4.661-9.051,11.652-9.051,19.035v273.526c0,13.554,10.988,24.542,24.542,24.542
	h90.475c13.554,0,24.542-10.988,24.542-24.542V490.29C536.127,474.414,517.698,465.651,505.385,475.672z"/>
<path d="M721.266,299.985l-99.765,81.19c-5.727,4.66-9.051,11.652-9.051,19.035v449.213c0,13.554,10.988,24.542,24.542,24.542
	h90.475c13.554,0,24.542-10.988,24.542-24.542V314.603C752.009,298.727,733.58,289.964,721.266,299.985z"/>
<path d="M937.147,124.298l-99.765,81.19c-5.727,4.66-9.051,11.652-9.051,19.035v624.9c0,13.554,10.988,24.542,24.542,24.542h90.475
	c13.554,0,24.542-10.988,24.542-24.542V138.916C967.89,123.04,949.461,114.277,937.147,124.298z"/>
</svg>
