<?xml version="1.0" encoding="utf-8"?>
<!-- Generator: Adobe Illustrator 17.1.0, SVG Export Plug-In . SVG Version: 6.00 Build 0)  -->
<!DOCTYPE svg PUBLIC "-//W3C//DTD SVG 1.1//EN" "http://www.w3.org/Graphics/SVG/1.1/DTD/svg11.dtd">
<svg version="1.1" id="Layer_1" xmlns="http://www.w3.org/2000/svg" xmlns:xlink="http://www.w3.org/1999/xlink" x="0px" y="0px"
	 width="1000px" height="1000px" viewBox="0 0 1000 1000" enable-background="new 0 0 1000 1000" xml:space="preserve">
<g>
	<path d="M436.4,92.6h309.3c13.5,0,24.5-11,24.5-24.5v-0.5c0-13.5-11-24.5-24.5-24.5H436.4c-13.5,0-24.5,11-24.5,24.5v0.5
		C411.8,81.6,422.8,92.6,436.4,92.6z"/>
	<path d="M411.8,162c0,13.5,11,24.5,24.5,24.5h416c13.5,0,24.5-11,24.5-24.5v-0.5c0-13.5-11-24.5-24.5-24.5h-416
		c-13.5,0-24.5,11-24.5,24.5L411.8,162L411.8,162z"/>
	<path d="M411.8,255.8c0,13.5,11,24.5,24.5,24.5h416c13.5,0,24.5-11,24.5-24.5v-0.5c0-13.5-11-24.5-24.5-24.5h-416
		c-13.5,0-24.5,11-24.5,24.5L411.8,255.8L411.8,255.8z"/>
	<path d="M411.8,397c0,13.5,11,24.5,24.5,24.5h309.3c13.5,0,24.5-11,24.5-24.5v-0.5c0-13.5-11-24.5-24.5-24.5H436.4
		c-13.5,0-24.5,11-24.5,24.5L411.8,397L411.8,397z"/>
	<path d="M411.8,490.9c0,13.5,11,24.5,24.5,24.5h223.5c13.5,0,24.5-11,24.5-24.5v-0.5c0-13.5-11-24.5-24.5-24.5H436.4
		c-13.5,0-24.5,11-24.5,24.5L411.8,490.9L411.8,490.9z"/>
	<path d="M411.8,584.7c0,13.5,11,24.5,24.5,24.5h416c13.5,0,24.5-11,24.5-24.5v-0.5c0-13.5-11-24.5-24.5-24.5h-416
		c-13.5,0-24.5,11-24.5,24.5L411.8,584.7L411.8,584.7z"/>
	<path d="M411.8,745.3c0,13.2,10.7,23.8,23.8,23.8h403.9c13.2,0,23.8-10.7,23.8-23.8v-0.5c0-13.2-10.7-23.8-23.8-23.8H435.6
		c-13.2,0-23.8,10.7-23.8,23.8L411.8,745.3L411.8,745.3z"/>
	<path d="M411.8,836.5c0,13.2,10.7,23.8,23.8,23.8h350.3c13.2,0,23.8-10.7,23.8-23.8V836c0-13.2-10.7-23.8-23.8-23.8H435.6
		c-13.2,0-23.8,10.7-23.8,23.8L411.8,836.5L411.8,836.5z"/>
	<path d="M411.8,927.6c0,13.2,10.7,23.8,23.8,23.8h159.9c13.2,0,23.8-10.7,23.8-23.8v-0.5c0-13.2-10.7-23.8-23.8-23.8H435.6
		c-13.2,0-23.8,10.7-23.8,23.8L411.8,927.6L411.8,927.6z"/>
	<path d="M138.1,176.3v125.4h198.6V176.3c0-10.4-9.1-18.9-20.3-18.9h-22.6c-4,0-7.7,1.8-10,4.8l-33.3,43.7l-8.1-15.8l12.9-25.3
		c1.8-3.5-0.9-7.5-5.1-7.5h-25.9c-4.1,0-6.8,4-5.1,7.5l12.9,25.3l-8,15.6l-32.2-43.4c-2.3-3.1-6.1-4.9-10.1-4.9h-23.7
		C147.2,157.4,138.1,165.8,138.1,176.3z"/>
	<path d="M237.4,143.4c33.5,0,60.8-27.3,60.8-60.8c0-33.5-27.3-60.8-60.8-60.8S176.6,49,176.6,82.6
		C176.6,116.1,203.9,143.4,237.4,143.4z"/>
	<path d="M138.1,630.6h198.6V505.2c0-10.4-9.1-18.9-20.3-18.9h-22.6c-4,0-7.7,1.8-10,4.8l-33.3,43.7l-8.1-15.8l12.9-25.3
		c1.8-3.5-0.9-7.5-5.1-7.5h-25.9c-4.1,0-6.8,4-5.1,7.5l12.9,25.3l-8,15.6l-32.2-43.4c-2.3-3.1-6.1-4.9-10.1-4.9h-23.7
		c-11.2,0-20.3,8.5-20.3,18.9L138.1,630.6L138.1,630.6z"/>
	<path d="M176.6,411.5c0,33.5,27.3,60.8,60.8,60.8s60.8-27.3,60.8-60.8c0-33.5-27.3-60.8-60.8-60.8S176.6,377.9,176.6,411.5z"/>
	<path d="M336.7,850.8c0-10.4-9.1-18.9-20.3-18.9h-22.6c-4,0-7.7,1.8-10,4.8l-33.3,43.7l-8.1-15.8l12.9-25.3
		c1.8-3.5-0.9-7.5-5.1-7.5h-25.9c-4.1,0-6.8,4-5.1,7.5l12.9,25.3l-8,15.6l-32.2-43.4c-2.3-3.1-6.1-4.9-10.1-4.9h-23.7
		c-11.2,0-20.3,8.5-20.3,18.9v125.4h198.6L336.7,850.8L336.7,850.8z"/>
	<path d="M176.6,757.1c0,33.5,27.3,60.8,60.8,60.8s60.8-27.3,60.8-60.8s-27.3-60.8-60.8-60.8S176.6,723.5,176.6,757.1z"/>
</g>
</svg>
