<?xml version="1.0" encoding="utf-8"?>
<!-- Generator: Adobe Illustrator 17.1.0, SVG Export Plug-In . SVG Version: 6.00 Build 0)  -->
<!DOCTYPE svg PUBLIC "-//W3C//DTD SVG 1.1//EN" "http://www.w3.org/Graphics/SVG/1.1/DTD/svg11.dtd">
<svg version="1.1" id="Layer_1" xmlns="http://www.w3.org/2000/svg" xmlns:xlink="http://www.w3.org/1999/xlink" x="0px" y="0px"
	 width="1000px" height="1000px" viewBox="0 0 1000 1000" enable-background="new 0 0 1000 1000" xml:space="preserve">
<g>
	<g>
		<path d="M720.4,557.8c0,13.7,11.1,24.8,24.7,24.8v4.2c-29.4,3.8-57.2,14.4-81.6,30.9L652,606.3c-2.3-2.3-5.4-3.5-8.5-3.5
			s-6.1,1.2-8.5,3.5l-36.3,36.3c-4.7,4.7-4.7,12.2,0,16.9l11.8,11.8c-20.2,30.7-31,66.6-31,104.2c0,50.8,19.8,98.6,55.7,134.5
			c35.9,35.9,83.7,55.7,134.5,55.7S868.5,946,904.4,910c35.9-35.9,55.7-83.7,55.7-134.5s-19.8-98.6-55.7-134.5
			c-30-30-68.3-48.8-109.7-54.1v-4.2c13.7-0.1,24.7-11.2,24.7-24.8c0-13.7-11.1-24.8-24.8-24.8h-49.4
			C731.5,533,720.4,544.1,720.4,557.8z M769.9,626.4c82.4,0,149.1,66.8,149.1,149.1c0,82.4-66.8,149.1-149.1,149.1
			s-149.1-66.8-149.1-149.1C620.8,693.2,687.6,626.4,769.9,626.4z"/>
		<path d="M649.1,725.4c-6.4,15.4-9.9,32.3-9.9,50.1c0,68,52,124,118.4,130.2c6.7,0.6,18.2,0.6,24.9,0
			c66.4-6.3,118.4-62.2,118.4-130.2s-52-124-118.4-130.2c-6.7-0.6-18.2-0.6-24.9,0c-13.2,1.2-25.8,4.4-37.5,9.3
			c-4.1,1.7-8.1,3.6-12,5.7c-22.5,12.1-41.1,30.7-53.2,53.2C652.7,717.3,650.8,721.3,649.1,725.4z"/>
	</g>
	<path d="M94.8,701.2h179.4v199.3c0,33,26.8,59.8,59.8,59.8c33,0,59.8-26.8,59.8-59.8V641.4c0-33-26.8-59.8-59.8-59.8H157.1
		c7.3-85.9,43.6-188.6,110.9-246.1L318.3,440l0.1-0.1C325,453,338.3,462,353.9,462h199.3c22,0,39.9-17.9,39.9-39.9
		s-17.9-39.9-39.9-39.9H397.5c-17.1-35.5-34.2-71.1-51.4-106.6c-15.7-32.6-28.7-72.7-71.9-72.7c-9.6,0-18.6,2.5-26.6,6.5l-0.1-0.2
		C110.5,277.7,35,431.2,35,641.4C35,674.4,61.8,701.2,94.8,701.2z"/>
	<circle cx="407.1" cy="144.9" r="87.6"/>
	<path d="M689.7,370.6L639,503.9H484.5c-13.8,0-25,11.2-25,25s11.2,25,25,25h171.7c10.4,0,19.7-6.4,23.4-16.1l56.9-149.4
		c4.9-12.9-1.6-27.3-14.5-32.3C709.1,351.2,694.7,357.7,689.7,370.6z"/>
</g>
</svg>
