<?xml version="1.0" encoding="utf-8"?>
<!-- Generator: Adobe Illustrator 17.1.0, SVG Export Plug-In . SVG Version: 6.00 Build 0)  -->
<!DOCTYPE svg PUBLIC "-//W3C//DTD SVG 1.1//EN" "http://www.w3.org/Graphics/SVG/1.1/DTD/svg11.dtd">
<svg version="1.1" id="Layer_1" xmlns="http://www.w3.org/2000/svg" xmlns:xlink="http://www.w3.org/1999/xlink" x="0px" y="0px"
	 width="1000px" height="1000px" viewBox="0 0 1000 1000" enable-background="new 0 0 1000 1000" xml:space="preserve">
<g>
	<path d="M725.7,557.8c0,13.7,11.1,24.8,24.7,24.8v4.2c-29.4,3.8-57.2,14.4-81.6,30.9l-11.5-11.5c-2.3-2.3-5.4-3.5-8.5-3.5
		s-6.1,1.2-8.5,3.5l-36.3,36.3c-4.7,4.7-4.7,12.2,0,16.9l11.8,11.8c-20.2,30.7-31,66.6-31,104.2c0,50.8,19.8,98.6,55.7,134.5
		c35.9,35.9,83.7,55.7,134.5,55.7S873.9,946,909.8,910c35.9-35.9,55.7-83.7,55.7-134.5s-19.8-98.6-55.7-134.5
		c-30-30-68.3-48.8-109.7-54.1v-4.2c13.7-0.1,24.7-11.2,24.7-24.8c0-13.7-11.1-24.8-24.8-24.8h-49.4
		C736.9,533,725.7,544.1,725.7,557.8z M775.3,626.4c82.4,0,149.1,66.8,149.1,149.1c0,82.4-66.8,149.1-149.1,149.1
		s-149.1-66.8-149.1-149.1C626.2,693.2,692.9,626.4,775.3,626.4z"/>
	<path d="M785.8,905.8c66.4-6.3,118.4-62.2,118.4-130.2s-52-124-118.4-130.2c-4.9-0.5-9.3,2.2-11.3,6.3c-0.7,1.5-1.1,3.1-1.1,4.9
		v237.9c0,1.7,0.4,3.4,1.1,4.9C776.4,903.5,780.9,906.2,785.8,905.8z"/>
	<path d="M100.2,701.2h179.4v199.3c0,33,26.8,59.8,59.8,59.8c33,0,59.8-26.8,59.8-59.8V641.4c0-33-26.8-59.8-59.8-59.8H162.5
		c7.3-85.9,43.6-188.6,110.9-246.1L323.6,440l0.1-0.1c6.6,13.1,19.9,22.1,35.5,22.1h199.3c22,0,39.9-17.9,39.9-39.9
		s-17.9-39.9-39.9-39.9H402.8c-17.5-36.2-34.9-72.5-52.4-108.7c-7.9-16.4-14.3-36.8-26.5-50.6c-11.2-12.7-27.5-20.1-44.4-20.1
		c-9.6,0-18.6,2.5-26.6,6.5l-0.1-0.2c-137,68.5-212.4,222-212.4,432.1C40.4,674.4,67.2,701.2,100.2,701.2z"/>
	<circle cx="412.5" cy="144.9" r="87.6"/>
	<path d="M695.1,370.6l-50.8,133.3H489.9c-13.8,0-25,11.2-25,25s11.2,25,25,25h171.7c10.4,0,19.7-6.4,23.4-16.1l56.9-149.4
		c4.9-12.9-1.6-27.3-14.5-32.3C714.5,351.2,700,357.7,695.1,370.6z"/>
</g>
</svg>
