<?xml version="1.0" encoding="utf-8"?>
<!-- Generator: Adobe Illustrator 17.1.0, SVG Export Plug-In . SVG Version: 6.00 Build 0)  -->
<!DOCTYPE svg PUBLIC "-//W3C//DTD SVG 1.1//EN" "http://www.w3.org/Graphics/SVG/1.1/DTD/svg11.dtd">
<svg version="1.1" id="Layer_1" xmlns="http://www.w3.org/2000/svg" xmlns:xlink="http://www.w3.org/1999/xlink" x="0px" y="0px"
	 width="1000px" height="1000px" viewBox="0 0 1000 1000" enable-background="new 0 0 1000 1000" xml:space="preserve">
<g>
	<path d="M156.8,434.6c9.7,0,18.4-2.1,25.9-6.2c8.1-4.4,14.1-11,17.8-19.5c3.3-7.6,5-17.4,5-30.1V291c0-6.9-5.6-12.5-12.5-12.5H176
		c-6.9,0-12.5,5.6-12.5,12.5v88.8c0,8.3-0.8,11.3-1.1,12c-0.2,0.6-0.5,1-1.3,1.5c-1.1,0.7-2.5,1-4.4,1c-3.1,0-4-0.9-4.3-1.3
		c0,0-1.9-2.6-2.3-12.4c-0.1-3.5-1.8-6.8-4.5-9.1c-2.7-2.3-6.2-3.3-9.7-2.8l-15.4,2.1c-6.1,0.8-10.7,6-10.8,12.2
		c-0.3,16.1,3.7,28.8,12,37.7C130.1,430,141.9,434.6,156.8,434.6z"/>
	<path d="M251.7,424c11.5,7.1,24.6,10.6,39.1,10.6c13.3,0,25.8-3.2,37.3-9.5c11.9-6.5,21.1-16.2,27.5-28.7c6.2-12,9.3-25.8,9.3-40.8
		c0-14.8-3-28.3-8.8-40.1c-6.1-12.3-15-22.1-26.7-29c-11.5-6.8-24.4-10.3-38.6-10.3c-21.6,0-39.7,7.4-53.5,22
		c-13.7,14.4-20.7,34.2-20.7,58.8c0,13.2,2.9,25.8,8.6,37.6C231.3,407,240.2,416.9,251.7,424z M268.4,324.9c6.3-6,13.7-9,22.5-9
		c6.1,0,11.5,1.5,16.3,4.5c4.8,3,8.3,7.2,10.8,12.8c2.8,6.2,4.2,13.7,4.2,22.3c0,13.3-3.1,23.4-9.1,30c-6,6.5-13.1,9.5-22.5,9.5
		c-9.2,0-16.3-3-22.3-9.4c-6.2-6.6-9.2-15.8-9.2-28.2C259.3,341.7,262.3,330.7,268.4,324.9z"/>
	<path d="M490.7,324c0-8.3-2.3-16.2-6.9-23.6c-4.7-7.6-11.3-13.3-19.6-16.9c-7.6-3.3-17-5-28.7-5h-48.3c-6.9,0-12.5,5.6-12.5,12.5
		v128.8c0,6.9,5.6,12.5,12.5,12.5h49.1c9.3,0,17.1-0.8,23.9-2.5c7.2-1.8,13.5-4.7,18.5-8.5c5.3-4,9.8-9.5,13.2-16.5
		c3.4-6.9,5.1-14.4,5.1-22.3c0-10.3-3-19.4-8.8-27.1c-1.7-2.3-3.7-4.4-5.8-6.3c0.8-1,1.5-2,2.1-3.1
		C488.6,339.3,490.7,331.8,490.7,324z M416.7,318.8H430c11.1,0,14.9,0.9,15.8,1.2c1.1,0.4,1.6,0.8,2,1.4c0.5,0.8,1.1,2.1,1.1,4.6
		c0,1.8-0.3,3.1-0.9,3.8c-0.7,0.9-2.2,1.5-3.4,1.9c-0.7,0.2-3.8,1-12.6,1h-15.4V318.8z M453.3,387.4c-0.7,1.2-1.3,2-2.1,2.5
		c-0.9,0.5-2.5,1.3-5.5,1.8c-0.5,0.1-2.7,0.4-9.3,0.4h-19.6v-19.3H434c9,0,13.2,1,14.9,1.5c2.3,0.8,3.3,1.9,3.9,2.7
		c0.6,0.9,1.5,2.4,1.5,5.4C454.3,384.5,454,386.1,453.3,387.4z"/>
	<path d="M564.5,516.8c7.6-9,15.9-17.3,24.8-25H133.6c-13.8,0-25,11.2-25,25s11.2,25,25,25h412.5
		C551.7,533.1,557.8,524.7,564.5,516.8z"/>
	<path d="M812,276.8H535.1c-13.8,0-25,11.2-25,25s11.2,25,25,25H812c13.8,0,25-11.2,25-25S825.8,276.8,812,276.8z"/>
	<path d="M837,407.7c0-13.8-11.2-25-25-25H535.1c-13.8,0-25,11.2-25,25s11.2,25,25,25H812C825.8,432.7,837,421.5,837,407.7z"/>
	<path d="M108.6,629.1c0,13.8,11.2,25,25,25h377.5c0.3-8.5,1.1-16.8,2.3-25c1.3-8.5,3-16.8,5.2-25h-385
		C119.8,604.1,108.6,615.3,108.6,629.1z"/>
	<path d="M621.4,873.5h-14.9h-11.9h-11.9H368.4h-11.9h-11.9h-14.9c-10.8,0-19.6,8.8-19.6,19.6v12.7c0,10.8,8.8,19.6,19.6,19.6h291.6
		c10.8,0,19.6-8.8,19.6-19.6v-12.7C640.9,882.3,632.2,873.5,621.4,873.5z"/>
	<path d="M350.7,763.2h11.9h11.9l-4.7,85.3h211.6l-1.3-23.7c-18.4-17.7-33.8-38.6-45.4-61.6c-7.8-15.5-13.8-32.1-17.9-49.4
		c0-0.2-0.1-0.4-0.1-0.6H365.3h-11.9H73.1c-5,0-9.1-4.1-9.1-9.1v-481c0-5,4.1-9.1,9.1-9.1H878c5,0,9.1,4.1,9.1,9.1v272.4
		c20.4,18.5,37.4,40.6,50,65.3V223.1c0-32.6-26.5-59.1-59.1-59.1H73.1C40.5,164,14,190.5,14,223.1v481c0,32.6,26.5,59.1,59.1,59.1
		L350.7,763.2L350.7,763.2z"/>
	<path d="M919.5,793.2l-8.9-9.1l-6.2-6.3c-0.9-0.9-1.9-1.8-2.9-2.6c5.8-8.5,11-17.5,15.5-26.9c12.4-26,19.3-55.1,19.3-85.8
		c0-50.3-18.6-96.3-49.3-131.5c-36.7-42.1-90.8-68.8-150.9-68.8c-38.3,0-74.1,10.8-104.5,29.5c-11.7,7.2-22.7,15.6-32.7,25
		c-8.2,7.7-15.7,16-22.5,25c-14,18.5-24.9,39.5-31.9,62.3c-2.5,8.1-4.5,16.5-5.9,25c-1.4,8.2-2.3,16.5-2.6,25
		c-0.1,2.8-0.2,5.7-0.2,8.5c0,9.3,0.7,18.5,1.9,27.5c0.5,4,1.2,7.9,2,11.8c0.8,3.8,1.6,7.5,2.6,11.3c0,0.2,0.1,0.4,0.2,0.6
		c4.6,17.5,11.6,34.1,20.5,49.4c4.5,7.6,9.4,15,14.8,21.9c4,5.1,8.2,10.1,12.7,14.8c4,4.2,8.2,8.3,12.5,12.2
		c35.4,31.6,82,50.8,133.1,50.8c41.8,0,80.6-12.9,112.7-34.8c0.7,0.8,1.4,1.6,2.2,2.4l6.6,6.7l8.9,9l53.9,54.9
		c7.3,7.5,17,11.2,26.7,11.2c9.5,0,19-3.6,26.3-10.8c14.8-14.5,15-38.3,0.5-53L919.5,793.2z M867.2,713.2c-7.4,19-18.8,36-33.1,50
		c-25.3,24.6-59.9,39.9-97.9,39.9c-38,0-72.6-15.2-97.9-39.9c-14.4-14-25.7-31-33.1-50c-6.1-15.7-9.4-32.8-9.4-50.6
		c0-2.9,0.1-5.7,0.3-8.5c0.5-8.6,1.8-16.9,3.8-25c2.1-8.7,5.1-17,8.7-25c11.9-26,31.6-47.7,56-62.3c21-12.5,45.5-19.7,71.7-19.7
		c26.2,0,50.7,7.2,71.7,19.7c41.2,24.5,68.8,69.5,68.8,120.8C876.6,680.4,873.3,697.5,867.2,713.2z"/>
</g>
</svg>
