<?xml version="1.0" encoding="utf-8"?>
<!-- Generator: Adobe Illustrator 17.1.0, SVG Export Plug-In . SVG Version: 6.00 Build 0)  -->
<!DOCTYPE svg PUBLIC "-//W3C//DTD SVG 1.1//EN" "http://www.w3.org/Graphics/SVG/1.1/DTD/svg11.dtd">
<svg version="1.1" id="Layer_1" xmlns="http://www.w3.org/2000/svg" xmlns:xlink="http://www.w3.org/1999/xlink" x="0px" y="0px"
	 width="1000px" height="1000px" viewBox="0 0 1000 1000" enable-background="new 0 0 1000 1000" xml:space="preserve">
<path d="M293.543,254.662v152.196h272.293V254.662c0-15.364-12.455-27.818-27.818-27.818h-30.931
	c-5.454,0-10.569,2.646-13.719,7.098l-45.627,64.477l-11.109-23.352l17.718-37.241c2.425-5.098-1.292-10.982-6.937-10.982h-35.445
	c-5.645,0-9.362,5.885-6.937,10.982l17.717,37.241l-10.93,22.975l-44.145-63.94c-3.138-4.545-8.308-7.258-13.831-7.258h-32.481
	C305.998,226.844,293.543,239.298,293.543,254.662z"/>
<path d="M429.69,209.119c49.425,0,89.635-40.21,89.635-89.635s-40.21-89.635-89.635-89.635s-89.635,40.21-89.635,89.635
	S380.265,209.119,429.69,209.119z"/>
<path d="M718.924,380.384h189.163c20.829,0,37.714-16.885,37.714-37.714V134.911c0-20.829-16.885-37.714-37.714-37.714H733.05
	h-51.84H579.672c-8.965,0-13.348,10.935-6.864,17.126L681.21,217.84v124.83C681.21,363.499,698.095,380.384,718.924,380.384z"/>
<path d="M91.086,511.835h16.256v360.239c0,21.549,18.329,39.019,40.94,39.019h110.875v-16.606c0-61.674,50.176-111.85,111.85-111.85
	h117.365c61.674,0,111.85,50.175,111.85,111.85v16.606h105.039c22.61,0,40.94-17.469,40.94-39.019V511.835h17.401
	c22.61,0,40.94-17.469,40.94-39.019v-1.94c0-21.549-18.329-39.019-40.94-39.019H565.836H293.543H91.086
	c-22.61,0-40.94,17.469-40.94,39.019v1.94C50.147,494.366,68.476,511.835,91.086,511.835z M429.69,541.527
	c57.72,0,104.678,46.958,104.678,104.678c0,57.72-46.958,104.678-104.678,104.678s-104.678-46.958-104.678-104.678
	C325.012,588.485,371.97,541.527,429.69,541.527z"/>
</svg>
