<?xml version="1.0" encoding="utf-8"?>
<!-- Generator: Adobe Illustrator 17.1.0, SVG Export Plug-In . SVG Version: 6.00 Build 0)  -->
<!DOCTYPE svg PUBLIC "-//W3C//DTD SVG 1.1//EN" "http://www.w3.org/Graphics/SVG/1.1/DTD/svg11.dtd">
<svg version="1.1" id="Layer_1" xmlns="http://www.w3.org/2000/svg" xmlns:xlink="http://www.w3.org/1999/xlink" x="0px" y="0px"
	 width="1000px" height="1000px" viewBox="0 0 1000 1000" enable-background="new 0 0 1000 1000" xml:space="preserve">
<path d="M126.546,881.696c16.495-94.58,50.286-214.984,83.363-256.259c-13.703,36.548-25.178,80.795-20.611,120.195
	c3.134,27.036,33.848,62.66,29.771,88.491c-1.661,10.526-7.778,22.924-13.576,36.725c-5.368,12.779,4.04,26.905,17.9,26.905h281.818
	c7.261,0,13.295-3.88,16.628-9.409c-11.191-15.648-20.624-32.48-28.187-50.36c-13.708-32.409-20.658-66.822-20.658-102.282
	s6.95-69.873,20.658-102.282c13.235-31.291,32.177-59.388,56.299-83.51c18.618-18.618,39.612-34.134,62.606-46.338
	c-1.37-2.305-2.761-4.597-4.199-6.861c-32.998-51.959-77.046-69.671-126.276-85.247c-22.236-7.035-45.954,5.139-53.723,27.46
	c-13.597,39.062-34.277,107.029-48.439,154.442c-4.634,15.515-26.603,15.515-31.237,0c-14.162-47.413-34.843-115.38-48.439-154.442
	c-7.769-22.321-31.486-34.495-53.723-27.46c-49.229,15.575-93.277,33.288-126.276,85.247
	C83.204,555.04,69.228,627.263,54.391,695.463c-12.93,59.436-22.925,119.756-30.736,180.427
	c-1.493,11.596,7.563,21.862,19.255,21.862h64.523C116.859,897.752,124.927,890.981,126.546,881.696z"/>
<path d="M364.303,32.647c-56.065,0-110.591,32.452-145.57,77.603c-38.774,50.05-33.171,109.434-48.166,167.769
	c-5.593,21.758-12.174,43.422-20.076,64.463c38.691,17.096,79.52,2.643,107.236-11.899c28.556,24.756,65.816,66.993,106.576,66.993
	c40.76,0,78.02-42.237,106.576-66.993c27.716,14.542,68.545,28.995,107.236,11.899c-7.902-21.042-14.483-42.705-20.076-64.463
	c-14.995-58.335-9.391-117.719-48.166-167.769C474.894,65.099,420.368,32.647,364.303,32.647z"/>
<path d="M735.745,497.952c-40.231,0-78.119,10.007-111.335,27.645c-75.196,39.93-126.414,119.03-126.414,210.104
	c0,29.561,5.41,57.854,15.269,83.963C547.198,909.532,634,973.451,735.745,973.451c131.305,0,237.749-106.444,237.749-237.75
	S867.05,497.952,735.745,497.952z M871.875,671.29L700.451,842.714l-6.016,6.016c-0.387,0.387-0.787,0.753-1.192,1.11
	c-4.707,4.138-10.594,6.213-16.485,6.213c-6.398,0-12.796-2.44-17.678-7.322l-59.464-59.465c-9.763-9.764-9.763-25.593,0-35.355
	c9.763-9.762,25.593-9.763,35.355,0l41.786,41.787l14.121-14.121L836.52,635.935c9.764-9.764,25.592-9.764,35.355,0
	C881.638,645.698,881.638,661.527,871.875,671.29z"/>
</svg>
