<?xml version="1.0" encoding="utf-8"?>
<!-- Generator: Adobe Illustrator 16.0.0, SVG Export Plug-In . SVG Version: 6.00 Build 0)  -->
<!DOCTYPE svg PUBLIC "-//W3C//DTD SVG 1.1//EN" "http://www.w3.org/Graphics/SVG/1.1/DTD/svg11.dtd">
<svg version="1.1" id="Layer_1" xmlns="http://www.w3.org/2000/svg" xmlns:xlink="http://www.w3.org/1999/xlink" x="0px" y="0px"
	 width="50px" height="50px" viewBox="0 0 50 50" enable-background="new 0 0 50 50" xml:space="preserve">
<g>
	<path d="M16.592,26.066c-0.014-0.005-0.026-0.013-0.037-0.026c0,0-0.082-0.056-0.113-0.096l-0.017,0.023l0.105,0.137L16.592,26.066
		z"/>
	<path d="M17.067,26.818c0-0.752-0.457-1.396-1.107-1.673c-0.004-0.002-0.009-0.003-0.013-0.005
		c-0.048-0.021-0.097-0.039-0.147-0.054c-0.009-0.003-0.018-0.005-0.027-0.008c-0.046-0.014-0.094-0.026-0.143-0.037
		c-0.01-0.002-0.021-0.004-0.032-0.007C15.485,25.013,15.369,25,15.25,25c-0.118,0-0.234,0.012-0.345,0.034
		c-0.013,0.003-0.027,0.005-0.04,0.008c-0.045,0.01-0.09,0.021-0.134,0.035c-0.012,0.003-0.023,0.006-0.035,0.01
		c-0.046,0.015-0.092,0.032-0.137,0.05c-0.008,0.003-0.016,0.006-0.024,0.009c-0.323,0.138-0.598,0.367-0.793,0.655
		c0,0,0,0-0.001,0.001c-0.032,0.048-0.062,0.097-0.09,0.148c0,0.001-0.001,0.002-0.001,0.002c-0.028,0.051-0.053,0.104-0.076,0.158
		v0c-0.092,0.217-0.143,0.456-0.143,0.707c0,0.816,0.537,1.506,1.277,1.737c0.171,0.053,0.353,0.082,0.541,0.082
		C16.253,28.636,17.067,27.822,17.067,26.818z M14.183,25.56c0.064,0.095-0.088,0.111-0.088,0.111
		c-0.016,0.005-0.031,0.011-0.047,0.019C14.09,25.644,14.135,25.601,14.183,25.56z M14.347,27.152
		c-0.057,0.072-0.05,0.144-0.05,0.144c0.073,0.256-0.073,0.256-0.073,0.256c-0.105,0.016-0.064,0.144-0.064,0.144
		c0,0.073-0.041,0.129-0.041,0.129c0.041,0.056,0.008,0.12,0.008,0.12c-0.008,0.013-0.012,0.027-0.012,0.041
		c-0.312-0.297-0.507-0.717-0.507-1.182c0-0.096,0.009-0.19,0.024-0.281c0.009-0.017,0.015-0.026,0.015-0.026l0.065,0.041
		c0.057-0.024,0.089,0.064,0.089,0.064c0.049-0.008,0.065,0.08,0.065,0.08c0.122-0.048,0.146,0.175,0.146,0.175
		c0.065,0,0.138,0.08,0.138,0.08c0.122,0,0.146,0.081,0.146,0.081C14.403,27,14.347,27.152,14.347,27.152z M14.391,25.482
		c-0.01,0.089-0.166,0.078-0.203,0.074c0.065-0.055,0.134-0.105,0.208-0.149L14.391,25.482z M16.353,27.376
		c0,0-0.057,0.04-0.057,0.135c0,0,0,0.081-0.089,0.081c0,0-0.098,0.207-0.374,0.167c0,0,0-0.15-0.081-0.327
		c0,0-0.074-0.096,0.039-0.208c0,0,0.107-0.048-0.056-0.232c0,0-0.106-0.088-0.049-0.184c0,0,0.016-0.081-0.024-0.104
		c0,0-0.114,0.023-0.138-0.056c0,0-0.211,0.08-0.309,0.04c0,0-0.122,0.08-0.22-0.104c0,0-0.162-0.096-0.105-0.184
		c0,0,0.017-0.088,0.017-0.176c0,0,0.015-0.144,0.178-0.216c0,0,0.049-0.145,0.122-0.145c0,0,0.154-0.008,0.236-0.04
		c0,0,0.105-0.032,0.169-0.016c0,0,0.042,0.063,0.017,0.104c0,0,0.113-0.04,0.187,0.048c0,0,0.073-0.008,0.057-0.063
		c0,0,0.187,0.112,0.285,0.048c0,0,0.024-0.16-0.064-0.152c0,0-0.139,0.008-0.204-0.088c0,0-0.073-0.032-0.057,0.016
		c0,0,0.008,0.048,0.065,0.064c0,0-0.016,0.048-0.073,0.024c0,0-0.048-0.016-0.065-0.121c0,0-0.13-0.024-0.163-0.08
		c0,0-0.081,0.024,0.105,0.112c0,0,0.074,0.056-0.024,0.096c0,0-0.065-0.032,0.008-0.047c0,0-0.016-0.033-0.089-0.057
		c0,0-0.049-0.048-0.057-0.08c0,0-0.097,0.064-0.138,0.023c0,0-0.017,0.08-0.065,0.08c0,0-0.009,0.12-0.171,0.073h-0.049
		c0,0-0.04-0.112,0.017-0.145c0,0,0.105,0.024,0.129,0c0.025-0.023,0.041-0.064-0.024-0.08c0,0-0.097-0.024-0.057-0.073
		c0,0,0.048-0.056,0.097,0.017c0,0,0.081-0.056,0.187-0.064c0,0,0.188-0.081,0.138-0.137c0,0-0.121,0.072-0.178,0.033
		c0,0-0.16-0.053-0.03-0.18c0.564,0.054,1.044,0.397,1.293,0.877c-0.024,0.01-0.058,0.02-0.088,0.012
		c0.025,0.025,0.129,0.142,0.035,0.227c0,0-0.032,0.088-0.129,0.136c0,0-0.138-0.336-0.31-0.408c0,0,0.179,0.312,0.326,0.456
		c0,0,0.04,0.024,0.105-0.007c0,0,0.008,0.264-0.146,0.44c0,0-0.04,0.096-0.024,0.2C16.458,27.112,16.482,27.288,16.353,27.376z"/>
	<path d="M25.842,21.253c-0.014-0.005-0.026-0.013-0.037-0.026c0,0-0.082-0.056-0.113-0.096l-0.017,0.023l0.105,0.137L25.842,21.253
		z"/>
	<path d="M23.958,23.742c0.171,0.053,0.353,0.082,0.541,0.082c1.004,0,1.818-0.814,1.818-1.819c0-0.752-0.457-1.396-1.107-1.673
		c-0.004-0.002-0.009-0.003-0.013-0.005c-0.048-0.021-0.097-0.039-0.147-0.054c-0.009-0.003-0.018-0.005-0.027-0.008
		c-0.046-0.014-0.094-0.026-0.143-0.037c-0.01-0.002-0.021-0.004-0.032-0.007c-0.113-0.021-0.229-0.034-0.349-0.034
		c-0.118,0-0.234,0.012-0.345,0.034c-0.013,0.003-0.027,0.005-0.04,0.008c-0.045,0.01-0.09,0.021-0.134,0.035
		c-0.012,0.003-0.023,0.006-0.035,0.01c-0.046,0.015-0.092,0.032-0.137,0.05c-0.008,0.003-0.016,0.006-0.024,0.009
		c-0.323,0.138-0.598,0.367-0.793,0.655c0,0,0,0-0.001,0.001c-0.032,0.048-0.062,0.097-0.09,0.148c0,0.001-0.001,0.002-0.001,0.002
		c-0.028,0.051-0.053,0.104-0.076,0.158c0,0,0,0,0,0c-0.092,0.217-0.143,0.456-0.143,0.707
		C22.681,22.821,23.218,23.512,23.958,23.742z M24.141,21.587c0,0,0.017-0.088,0.017-0.176c0,0,0.015-0.144,0.178-0.216
		c0,0,0.049-0.145,0.122-0.145c0,0,0.154-0.008,0.236-0.04c0,0,0.105-0.032,0.169-0.016c0,0,0.042,0.063,0.017,0.104
		c0,0,0.113-0.04,0.187,0.048c0,0,0.073-0.008,0.057-0.063c0,0,0.187,0.112,0.285,0.048c0,0,0.024-0.16-0.064-0.152
		c0,0-0.139,0.008-0.204-0.088c0,0-0.073-0.032-0.057,0.016c0,0,0.008,0.048,0.065,0.064c0,0-0.016,0.048-0.073,0.024
		c0,0-0.048-0.016-0.065-0.121c0,0-0.13-0.024-0.163-0.08c0,0-0.081,0.024,0.105,0.112c0,0,0.074,0.056-0.024,0.096
		c0,0-0.065-0.032,0.008-0.047c0,0-0.016-0.033-0.089-0.057c0,0-0.049-0.048-0.057-0.08c0,0-0.097,0.064-0.138,0.023
		c0,0-0.017,0.08-0.065,0.08c0,0-0.009,0.12-0.171,0.073h-0.049c0,0-0.04-0.112,0.017-0.145c0,0,0.105,0.024,0.129,0
		c0.025-0.023,0.041-0.064-0.024-0.08c0,0-0.097-0.024-0.057-0.073c0,0,0.048-0.056,0.097,0.017c0,0,0.081-0.056,0.187-0.064
		c0,0,0.188-0.081,0.138-0.137c0,0-0.121,0.072-0.178,0.033c0,0-0.16-0.053-0.03-0.18c0.564,0.054,1.044,0.397,1.293,0.877
		c-0.024,0.01-0.058,0.02-0.088,0.012c0.025,0.025,0.129,0.142,0.035,0.227c0,0-0.032,0.088-0.129,0.136c0,0-0.138-0.336-0.31-0.408
		c0,0,0.179,0.312,0.326,0.456c0,0,0.04,0.024,0.105-0.007c0,0,0.008,0.264-0.146,0.44c0,0-0.04,0.096-0.024,0.2
		c0,0,0.024,0.176-0.106,0.265c0,0-0.057,0.04-0.057,0.135c0,0,0,0.081-0.089,0.081c0,0-0.098,0.207-0.374,0.167
		c0,0,0-0.15-0.081-0.327c0,0-0.074-0.096,0.039-0.208c0,0,0.107-0.048-0.056-0.232c0,0-0.106-0.088-0.049-0.184
		c0,0,0.016-0.081-0.024-0.104c0,0-0.114,0.023-0.138-0.056c0,0-0.211,0.08-0.309,0.04c0,0-0.122,0.08-0.22-0.104
		C24.246,21.771,24.083,21.675,24.141,21.587z M23.646,20.595l-0.005,0.075c-0.01,0.089-0.166,0.078-0.203,0.074
		C23.503,20.689,23.572,20.639,23.646,20.595z M23.433,20.748c0.064,0.095-0.088,0.111-0.088,0.111
		c-0.016,0.005-0.031,0.011-0.047,0.019C23.34,20.832,23.385,20.789,23.433,20.748z M22.882,21.709
		c0.009-0.017,0.015-0.026,0.015-0.026l0.065,0.041c0.057-0.024,0.089,0.064,0.089,0.064c0.049-0.008,0.065,0.08,0.065,0.08
		c0.122-0.048,0.146,0.175,0.146,0.175c0.065,0,0.138,0.08,0.138,0.08c0.122,0,0.146,0.081,0.146,0.081
		c0.106-0.017,0.05,0.136,0.05,0.136c-0.057,0.072-0.05,0.144-0.05,0.144c0.073,0.256-0.073,0.256-0.073,0.256
		c-0.105,0.016-0.064,0.144-0.064,0.144c0,0.073-0.041,0.129-0.041,0.129c0.041,0.056,0.008,0.12,0.008,0.12
		c-0.008,0.013-0.012,0.027-0.012,0.041c-0.312-0.297-0.507-0.717-0.507-1.182C22.857,21.895,22.866,21.801,22.882,21.709z"/>
	<path d="M19.561,33.222c-0.014-0.005-0.026-0.013-0.037-0.026c0,0-0.082-0.056-0.113-0.096l-0.017,0.023L19.5,33.26L19.561,33.222z
		"/>
	<path d="M18.929,32.301c-0.004-0.002-0.009-0.003-0.013-0.005c-0.048-0.021-0.097-0.039-0.147-0.054
		c-0.009-0.003-0.018-0.005-0.027-0.008c-0.046-0.014-0.094-0.026-0.143-0.037c-0.01-0.002-0.021-0.004-0.032-0.007
		c-0.113-0.021-0.229-0.034-0.349-0.034c-0.118,0-0.234,0.012-0.345,0.034c-0.013,0.003-0.027,0.005-0.04,0.008
		c-0.045,0.01-0.09,0.021-0.134,0.035c-0.012,0.003-0.023,0.006-0.035,0.01c-0.046,0.015-0.092,0.032-0.137,0.05
		c-0.008,0.003-0.016,0.006-0.024,0.009c-0.323,0.138-0.598,0.367-0.793,0.655c0,0,0,0-0.001,0.001
		c-0.032,0.048-0.062,0.097-0.09,0.148c0,0.001-0.001,0.002-0.001,0.002c-0.028,0.052-0.053,0.104-0.076,0.158v0
		c-0.092,0.217-0.143,0.456-0.143,0.707c0,0.816,0.537,1.506,1.277,1.737c0.171,0.053,0.353,0.082,0.541,0.082
		c1.004,0,1.818-0.814,1.818-1.819C20.036,33.222,19.58,32.578,18.929,32.301z M17.151,32.716c0.064,0.095-0.088,0.111-0.088,0.111
		c-0.016,0.005-0.031,0.011-0.047,0.019C17.059,32.8,17.104,32.757,17.151,32.716z M17.315,34.309
		c-0.057,0.072-0.05,0.144-0.05,0.144c0.073,0.256-0.073,0.256-0.073,0.256c-0.105,0.016-0.064,0.144-0.064,0.144
		c0,0.073-0.041,0.129-0.041,0.129c0.041,0.056,0.008,0.12,0.008,0.12c-0.008,0.013-0.012,0.027-0.012,0.041
		c-0.312-0.297-0.507-0.717-0.507-1.182c0-0.096,0.009-0.19,0.024-0.281c0.009-0.017,0.015-0.026,0.015-0.026l0.065,0.041
		c0.057-0.024,0.089,0.064,0.089,0.064c0.049-0.008,0.065,0.08,0.065,0.08c0.122-0.048,0.146,0.175,0.146,0.175
		c0.065,0,0.138,0.08,0.138,0.08c0.122,0,0.146,0.081,0.146,0.081C17.372,34.156,17.315,34.309,17.315,34.309z M17.359,32.639
		c-0.01,0.089-0.166,0.078-0.203,0.074c0.065-0.055,0.134-0.105,0.208-0.149L17.359,32.639z M19.659,33.213
		c-0.024,0.01-0.058,0.02-0.088,0.012c0.025,0.025,0.129,0.142,0.035,0.227c0,0-0.032,0.088-0.129,0.136c0,0-0.138-0.336-0.31-0.408
		c0,0,0.179,0.312,0.326,0.456c0,0,0.04,0.024,0.105-0.007c0,0,0.008,0.264-0.146,0.44c0,0-0.04,0.096-0.024,0.2
		c0,0,0.024,0.176-0.106,0.265c0,0-0.057,0.04-0.057,0.135c0,0,0,0.081-0.089,0.081c0,0-0.098,0.207-0.374,0.167
		c0,0,0-0.15-0.081-0.327c0,0-0.074-0.096,0.039-0.208c0,0,0.107-0.048-0.056-0.232c0,0-0.106-0.088-0.049-0.184
		c0,0,0.016-0.081-0.024-0.104c0,0-0.114,0.023-0.138-0.056c0,0-0.211,0.08-0.309,0.04c0,0-0.122,0.08-0.22-0.104
		c0,0-0.162-0.096-0.105-0.184c0,0,0.017-0.088,0.017-0.176c0,0,0.015-0.144,0.178-0.216c0,0,0.049-0.145,0.122-0.145
		c0,0,0.154-0.008,0.236-0.04c0,0,0.105-0.032,0.169-0.016c0,0,0.042,0.063,0.017,0.104c0,0,0.113-0.04,0.187,0.048
		c0,0,0.073-0.008,0.057-0.063c0,0,0.187,0.112,0.285,0.048c0,0,0.024-0.16-0.064-0.152c0,0-0.139,0.008-0.204-0.088
		c0,0-0.073-0.032-0.057,0.016c0,0,0.008,0.048,0.065,0.064c0,0-0.016,0.048-0.073,0.024c0,0-0.048-0.016-0.065-0.121
		c0,0-0.13-0.024-0.163-0.08c0,0-0.081,0.024,0.105,0.112c0,0,0.074,0.056-0.024,0.096c0,0-0.065-0.032,0.008-0.047
		c0,0-0.016-0.033-0.089-0.057c0,0-0.049-0.048-0.057-0.08c0,0-0.097,0.064-0.138,0.023c0,0-0.017,0.08-0.065,0.08
		c0,0-0.009,0.12-0.171,0.073h-0.049c0,0-0.04-0.112,0.017-0.145c0,0,0.105,0.024,0.129,0c0.025-0.023,0.041-0.064-0.024-0.08
		c0,0-0.097-0.024-0.057-0.073c0,0,0.048-0.056,0.097,0.017c0,0,0.081-0.056,0.187-0.064c0,0,0.188-0.081,0.138-0.137
		c0,0-0.121,0.072-0.178,0.033c0,0-0.16-0.053-0.03-0.18C18.93,32.39,19.41,32.732,19.659,33.213z"/>
	<path d="M17.307,31.842c0.088-0.036,0.147-0.058,0.207-0.077c0.097-0.029,0.152-0.043,0.209-0.056
		c0.185-0.036,0.335-0.049,0.477-0.051l-1.325-3.191c-0.411,0.405-0.97,0.656-1.588,0.666l1.328,3.195
		C16.818,32.129,17.043,31.955,17.307,31.842z"/>
	<path d="M13.424,28.246l-2.805,4.535l1.464,0.905l2.845-4.598c-0.123-0.017-0.249-0.019-0.368-0.056
		C14.096,28.888,13.707,28.607,13.424,28.246z"/>
	<path d="M30.739,17.949l3.345,1.93l-7.594,13.152l-0.924-8.979c-0.321,0.168-0.679,0.272-1.065,0.272
		c-0.234,0-0.466-0.035-0.689-0.104c-0.433-0.135-0.796-0.389-1.074-0.715l-4.316,8.17c0.079,0.008,0.16,0.009,0.24,0.025
		c0.105,0.022,0.167,0.038,0.228,0.057c0.096,0.029,0.16,0.053,0.224,0.08c0.338,0.144,0.609,0.373,0.838,0.635l3.975-7.523
		l0.911,8.83c0.065-0.036,0.122-0.087,0.191-0.117c0.088-0.036,0.147-0.058,0.207-0.077c0.097-0.029,0.152-0.043,0.209-0.056
		c0.395-0.077,0.65-0.065,0.937-0.011c0.105,0.022,0.167,0.038,0.228,0.057c0.096,0.029,0.16,0.053,0.224,0.08
		c0.363,0.154,0.654,0.403,0.89,0.693l7.854-13.608l3.187,1.839l0.619-10.336L30.739,17.949z"/>
	<path d="M27.28,35.041c-0.014-0.005-0.026-0.013-0.037-0.026c0,0-0.082-0.056-0.113-0.096l-0.017,0.023l0.105,0.137L27.28,35.041z"
		/>
	<path d="M26.648,34.12c-0.004-0.002-0.009-0.003-0.013-0.005c-0.048-0.021-0.097-0.039-0.147-0.054
		c-0.009-0.003-0.018-0.005-0.027-0.008c-0.046-0.014-0.094-0.026-0.143-0.037c-0.01-0.002-0.021-0.004-0.032-0.007
		c-0.113-0.021-0.229-0.034-0.349-0.034c-0.118,0-0.234,0.012-0.345,0.034c-0.013,0.003-0.027,0.005-0.04,0.008
		c-0.045,0.01-0.09,0.021-0.134,0.035c-0.012,0.003-0.023,0.006-0.035,0.01c-0.046,0.015-0.092,0.032-0.137,0.05
		c-0.008,0.003-0.016,0.006-0.024,0.009c-0.323,0.138-0.598,0.367-0.793,0.655c0,0,0,0-0.001,0.001
		c-0.032,0.048-0.062,0.097-0.09,0.148c0,0.001-0.001,0.002-0.001,0.002c-0.028,0.051-0.053,0.104-0.076,0.158v0
		c-0.092,0.217-0.143,0.456-0.143,0.707c0,0.816,0.537,1.506,1.277,1.737c0.171,0.053,0.353,0.082,0.541,0.082
		c1.004,0,1.818-0.814,1.818-1.819C27.755,35.041,27.298,34.396,26.648,34.12z M24.87,34.535c0.064,0.095-0.088,0.111-0.088,0.111
		c-0.016,0.005-0.031,0.011-0.047,0.019C24.777,34.619,24.823,34.576,24.87,34.535z M25.034,36.127
		c-0.057,0.072-0.05,0.144-0.05,0.144c0.073,0.256-0.073,0.256-0.073,0.256c-0.105,0.016-0.064,0.144-0.064,0.144
		c0,0.073-0.041,0.129-0.041,0.129c0.041,0.056,0.008,0.12,0.008,0.12c-0.008,0.013-0.012,0.027-0.012,0.041
		c-0.312-0.297-0.507-0.717-0.507-1.182c0-0.096,0.009-0.19,0.024-0.281c0.009-0.017,0.015-0.026,0.015-0.026l0.065,0.041
		c0.057-0.024,0.089,0.064,0.089,0.064c0.049-0.008,0.065,0.08,0.065,0.08c0.122-0.048,0.146,0.175,0.146,0.175
		c0.065,0,0.138,0.08,0.138,0.08c0.122,0,0.146,0.081,0.146,0.081C25.09,35.975,25.034,36.127,25.034,36.127z M25.078,34.458
		c-0.01,0.089-0.166,0.078-0.203,0.074c0.065-0.055,0.134-0.105,0.208-0.149L25.078,34.458z M27.377,35.032
		c-0.024,0.01-0.058,0.02-0.088,0.012c0.025,0.025,0.129,0.142,0.035,0.227c0,0-0.032,0.088-0.129,0.136c0,0-0.138-0.336-0.31-0.408
		c0,0,0.179,0.312,0.326,0.456c0,0,0.04,0.024,0.105-0.007c0,0,0.008,0.264-0.146,0.44c0,0-0.04,0.096-0.024,0.2
		c0,0,0.024,0.176-0.106,0.265c0,0-0.057,0.04-0.057,0.135c0,0,0,0.081-0.089,0.081c0,0-0.098,0.207-0.374,0.167
		c0,0,0-0.15-0.081-0.327c0,0-0.074-0.096,0.039-0.208c0,0,0.107-0.048-0.056-0.232c0,0-0.106-0.088-0.049-0.184
		c0,0,0.016-0.081-0.024-0.104c0,0-0.114,0.023-0.138-0.056c0,0-0.211,0.08-0.309,0.04c0,0-0.122,0.08-0.22-0.104
		c0,0-0.162-0.096-0.105-0.184c0,0,0.017-0.088,0.017-0.176c0,0,0.015-0.144,0.178-0.216c0,0,0.049-0.145,0.122-0.145
		c0,0,0.154-0.008,0.236-0.04c0,0,0.105-0.032,0.169-0.016c0,0,0.042,0.063,0.017,0.104c0,0,0.113-0.04,0.187,0.048
		c0,0,0.073-0.008,0.057-0.063c0,0,0.187,0.112,0.285,0.048c0,0,0.024-0.16-0.064-0.152c0,0-0.139,0.008-0.204-0.088
		c0,0-0.073-0.032-0.057,0.016c0,0,0.008,0.048,0.065,0.064c0,0-0.016,0.048-0.073,0.024c0,0-0.048-0.016-0.065-0.121
		c0,0-0.13-0.024-0.163-0.08c0,0-0.081,0.024,0.105,0.112c0,0,0.074,0.056-0.024,0.096c0,0-0.065-0.032,0.008-0.047
		c0,0-0.016-0.033-0.089-0.057c0,0-0.049-0.048-0.057-0.08c0,0-0.097,0.064-0.138,0.023c0,0-0.017,0.08-0.065,0.08
		c0,0-0.009,0.12-0.171,0.073h-0.049c0,0-0.04-0.112,0.017-0.145c0,0,0.105,0.024,0.129,0c0.025-0.023,0.041-0.064-0.024-0.08
		c0,0-0.097-0.024-0.057-0.073c0,0,0.048-0.056,0.097,0.017c0,0,0.081-0.056,0.187-0.064c0,0,0.188-0.081,0.138-0.137
		c0,0-0.121,0.072-0.178,0.033c0,0-0.16-0.053-0.03-0.18C26.649,34.208,27.129,34.551,27.377,35.032z"/>
</g>
</svg>
