<?xml version="1.0" encoding="utf-8"?>
<!-- Generator: Adobe Illustrator 16.0.0, SVG Export Plug-In . SVG Version: 6.00 Build 0)  -->
<!DOCTYPE svg PUBLIC "-//W3C//DTD SVG 1.1//EN" "http://www.w3.org/Graphics/SVG/1.1/DTD/svg11.dtd">
<svg version="1.1" id="Layer_1" xmlns="http://www.w3.org/2000/svg" xmlns:xlink="http://www.w3.org/1999/xlink" x="0px" y="0px"
	 width="50px" height="50px" viewBox="0 0 50 50" enable-background="new 0 0 50 50" xml:space="preserve">
<g>
	<path d="M21.658,15.702h0.653v4.118h-0.653V15.702z"/>
	<path d="M21.984,22.94c0.247,0,0.465,0.085,0.653,0.251c0.189,0.167,0.284,0.404,0.284,0.714v2.216c0,0.29-0.095,0.52-0.284,0.687
		c-0.188,0.167-0.406,0.25-0.653,0.25c-0.249,0-0.474-0.083-0.656-0.25c-0.188-0.167-0.279-0.396-0.279-0.687v-2.216
		c0-0.31,0.092-0.547,0.279-0.714C21.511,23.025,21.735,22.94,21.984,22.94z M21.705,26.215c0,0.188,0.09,0.283,0.279,0.283
		s0.281-0.094,0.281-0.283v-2.434c0-0.187-0.092-0.28-0.281-0.28s-0.279,0.094-0.279,0.28V26.215z"/>
	<path d="M21.984,30.18c0.247,0,0.465,0.084,0.653,0.25c0.189,0.165,0.284,0.404,0.284,0.716v2.214c0,0.289-0.095,0.52-0.284,0.686
		c-0.188,0.167-0.406,0.251-0.653,0.251c-0.249,0-0.474-0.084-0.656-0.251c-0.188-0.166-0.279-0.397-0.279-0.686v-2.214
		c0-0.312,0.092-0.551,0.279-0.716C21.511,30.264,21.735,30.18,21.984,30.18z M21.705,33.454c0,0.189,0.09,0.283,0.279,0.283
		s0.281-0.094,0.281-0.283v-2.431c0-0.189-0.092-0.284-0.281-0.284s-0.279,0.094-0.279,0.284V33.454z"/>
	<path d="M15.951,15.702c0.248,0,0.467,0.083,0.655,0.25c0.187,0.167,0.283,0.404,0.283,0.717v2.213
		c0,0.291-0.097,0.521-0.283,0.687c-0.188,0.167-0.407,0.251-0.655,0.251c-0.252,0-0.47-0.085-0.658-0.251
		c-0.183-0.166-0.279-0.396-0.279-0.687v-2.213c0-0.312,0.097-0.55,0.279-0.717C15.481,15.785,15.699,15.702,15.951,15.702z
		 M15.67,18.976c0,0.189,0.094,0.283,0.281,0.283c0.189,0,0.285-0.094,0.285-0.283v-2.432c0-0.189-0.096-0.283-0.285-0.283
		c-0.188,0-0.281,0.094-0.281,0.283V18.976z"/>
	<path d="M15.951,22.94c0.248,0,0.467,0.085,0.655,0.251c0.187,0.167,0.283,0.404,0.283,0.714v2.216c0,0.29-0.097,0.52-0.283,0.687
		c-0.188,0.167-0.407,0.25-0.655,0.25c-0.252,0-0.47-0.083-0.658-0.25c-0.183-0.167-0.279-0.396-0.279-0.687v-2.216
		c0-0.31,0.097-0.547,0.279-0.714C15.481,23.025,15.699,22.94,15.951,22.94z M15.67,26.215c0,0.188,0.094,0.283,0.281,0.283
		c0.189,0,0.285-0.094,0.285-0.283v-2.434c0-0.187-0.096-0.28-0.285-0.28c-0.188,0-0.281,0.094-0.281,0.28V26.215z"/>
	<path d="M15.626,30.18h0.655v4.118h-0.655V30.18z"/>
	<path d="M28.018,15.702c0.248,0,0.465,0.083,0.654,0.25c0.188,0.167,0.283,0.404,0.283,0.717v2.213
		c0,0.291-0.096,0.521-0.283,0.687c-0.189,0.167-0.406,0.251-0.654,0.251c-0.251,0-0.472-0.085-0.656-0.251
		c-0.187-0.166-0.28-0.396-0.28-0.687v-2.213c0-0.312,0.094-0.55,0.28-0.717C27.546,15.785,27.767,15.702,28.018,15.702z
		 M27.734,18.976c0,0.189,0.096,0.283,0.283,0.283s0.284-0.094,0.284-0.283v-2.432c0-0.189-0.097-0.283-0.284-0.283
		s-0.283,0.094-0.283,0.283V18.976z"/>
	<path d="M28.018,22.94c0.248,0,0.465,0.085,0.654,0.251c0.188,0.167,0.283,0.404,0.283,0.714v2.216c0,0.29-0.096,0.52-0.283,0.687
		c-0.189,0.167-0.406,0.25-0.654,0.25c-0.251,0-0.472-0.083-0.656-0.25c-0.187-0.167-0.28-0.396-0.28-0.687v-2.216
		c0-0.31,0.094-0.547,0.28-0.714C27.546,23.025,27.767,22.94,28.018,22.94z M27.734,26.215c0,0.188,0.096,0.283,0.283,0.283
		s0.284-0.094,0.284-0.283v-2.434c0-0.187-0.097-0.28-0.284-0.28s-0.283,0.094-0.283,0.28V26.215z"/>
	<path d="M27.688,30.18h0.656v4.118h-0.656V30.18z"/>
	<path d="M34.049,15.702c0.248,0,0.467,0.083,0.655,0.25c0.186,0.167,0.282,0.404,0.282,0.717v2.213
		c0,0.291-0.097,0.521-0.282,0.687c-0.188,0.167-0.407,0.251-0.655,0.251c-0.252,0-0.47-0.085-0.658-0.251
		c-0.184-0.166-0.28-0.396-0.28-0.687v-2.213c0-0.312,0.097-0.55,0.28-0.717C33.579,15.785,33.797,15.702,34.049,15.702z
		 M33.767,18.976c0,0.189,0.093,0.283,0.282,0.283c0.188,0,0.284-0.094,0.284-0.283v-2.432c0-0.189-0.097-0.283-0.284-0.283
		c-0.189,0-0.282,0.094-0.282,0.283V18.976z"/>
	<path d="M34.049,22.94c0.248,0,0.467,0.085,0.655,0.251c0.186,0.167,0.282,0.404,0.282,0.714v2.216c0,0.29-0.097,0.52-0.282,0.687
		c-0.188,0.167-0.407,0.25-0.655,0.25c-0.252,0-0.47-0.083-0.658-0.25c-0.184-0.167-0.28-0.396-0.28-0.687v-2.216
		c0-0.31,0.097-0.547,0.28-0.714C33.579,23.025,33.797,22.94,34.049,22.94z M33.767,26.215c0,0.188,0.093,0.283,0.282,0.283
		c0.188,0,0.284-0.094,0.284-0.283v-2.434c0-0.187-0.097-0.28-0.284-0.28c-0.189,0-0.282,0.094-0.282,0.28V26.215z"/>
	<path d="M33.724,30.18h0.65v4.118h-0.65V30.18z"/>
</g>
</svg>
