<?xml version="1.0" encoding="utf-8"?>
<!-- Generator: Adobe Illustrator 16.0.0, SVG Export Plug-In . SVG Version: 6.00 Build 0)  -->
<!DOCTYPE svg PUBLIC "-//W3C//DTD SVG 1.1//EN" "http://www.w3.org/Graphics/SVG/1.1/DTD/svg11.dtd">
<svg version="1.1" id="Layer_1" xmlns="http://www.w3.org/2000/svg" xmlns:xlink="http://www.w3.org/1999/xlink" x="0px" y="0px"
	 width="50px" height="50px" viewBox="0 0 50 50" enable-background="new 0 0 50 50" xml:space="preserve">
<g>
	<g>
		<path d="M31.597,12.75H18.403c-3.108,0-3.769,0.658-3.769,3.77V33.48c0,3.109,0.66,3.77,3.769,3.77h12.722v-1H18.403
			c-2.562,0-2.769-0.207-2.769-2.77V16.52c0-2.562,0.207-2.77,2.769-2.77h13.193c2.562,0,2.769,0.207,2.769,2.77v16.49h1V16.52
			C35.365,13.408,34.705,12.75,31.597,12.75z"/>
		<polygon points="31.745,36.629 34.745,33.629 31.745,33.629 		"/>
	</g>
	<g>
		<path d="M22.36,17.656h0.517v3.252H22.36V17.656z"/>
		<path d="M22.617,23.373c0.196,0,0.368,0.067,0.518,0.199c0.148,0.131,0.224,0.319,0.224,0.564v1.75
			c0,0.229-0.075,0.411-0.224,0.542c-0.149,0.131-0.321,0.197-0.518,0.197c-0.195,0-0.373-0.066-0.518-0.197
			c-0.147-0.132-0.221-0.313-0.221-0.542v-1.75c0-0.245,0.073-0.433,0.221-0.564C22.244,23.44,22.422,23.373,22.617,23.373z
			 M22.397,25.96c0,0.149,0.071,0.223,0.22,0.223c0.15,0,0.224-0.074,0.224-0.223v-1.923c0-0.147-0.073-0.221-0.224-0.221
			c-0.148,0-0.22,0.074-0.22,0.221V25.96z"/>
		<path d="M22.617,29.092c0.196,0,0.368,0.066,0.518,0.197c0.148,0.131,0.224,0.32,0.224,0.566v1.749
			c0,0.228-0.075,0.411-0.224,0.542c-0.149,0.131-0.321,0.198-0.518,0.198c-0.195,0-0.373-0.066-0.518-0.198
			c-0.147-0.131-0.221-0.314-0.221-0.542v-1.749c0-0.246,0.073-0.435,0.221-0.566C22.244,29.158,22.422,29.092,22.617,29.092z
			 M22.397,31.678c0,0.149,0.071,0.223,0.22,0.223c0.15,0,0.224-0.074,0.224-0.223v-1.921c0-0.149-0.073-0.224-0.224-0.224
			c-0.148,0-0.22,0.074-0.22,0.224V31.678z"/>
		<path d="M17.853,17.656c0.196,0,0.369,0.065,0.518,0.197c0.147,0.131,0.225,0.319,0.225,0.566v1.748
			c0,0.229-0.077,0.411-0.225,0.542c-0.148,0.131-0.321,0.198-0.518,0.198c-0.199,0-0.371-0.067-0.52-0.198
			c-0.144-0.131-0.221-0.313-0.221-0.542v-1.748c0-0.247,0.077-0.435,0.221-0.566C17.481,17.722,17.653,17.656,17.853,17.656z
			 M17.631,20.242c0,0.149,0.074,0.223,0.222,0.223c0.15,0,0.226-0.074,0.226-0.223v-1.921c0-0.149-0.075-0.224-0.226-0.224
			c-0.147,0-0.222,0.074-0.222,0.224V20.242z"/>
		<path d="M17.853,23.373c0.196,0,0.369,0.067,0.518,0.199c0.147,0.131,0.225,0.319,0.225,0.564v1.75
			c0,0.229-0.077,0.411-0.225,0.542c-0.148,0.131-0.321,0.197-0.518,0.197c-0.199,0-0.371-0.066-0.52-0.197
			c-0.144-0.132-0.221-0.313-0.221-0.542v-1.75c0-0.245,0.077-0.433,0.221-0.564C17.481,23.44,17.653,23.373,17.853,23.373z
			 M17.631,25.96c0,0.149,0.074,0.223,0.222,0.223c0.15,0,0.226-0.074,0.226-0.223v-1.923c0-0.147-0.075-0.221-0.226-0.221
			c-0.147,0-0.222,0.074-0.222,0.221V25.96z"/>
		<path d="M17.596,29.092h0.518v3.252h-0.518V29.092z"/>
		<path d="M27.383,17.656c0.196,0,0.368,0.065,0.518,0.197c0.147,0.131,0.224,0.319,0.224,0.566v1.748
			c0,0.229-0.076,0.411-0.224,0.542c-0.149,0.131-0.321,0.198-0.518,0.198c-0.198,0-0.371-0.067-0.518-0.198
			c-0.147-0.131-0.222-0.313-0.222-0.542v-1.748c0-0.247,0.074-0.435,0.222-0.566C27.012,17.722,27.185,17.656,27.383,17.656z
			 M27.16,20.242c0,0.149,0.075,0.223,0.223,0.223c0.148,0,0.226-0.074,0.226-0.223v-1.921c0-0.149-0.077-0.224-0.226-0.224
			c-0.147,0-0.223,0.074-0.223,0.224V20.242z"/>
		<path d="M27.383,23.373c0.196,0,0.368,0.067,0.518,0.199c0.147,0.131,0.224,0.319,0.224,0.564v1.75
			c0,0.229-0.076,0.411-0.224,0.542c-0.149,0.131-0.321,0.197-0.518,0.197c-0.198,0-0.371-0.066-0.518-0.197
			c-0.147-0.132-0.222-0.313-0.222-0.542v-1.75c0-0.245,0.074-0.433,0.222-0.564C27.012,23.44,27.185,23.373,27.383,23.373z
			 M27.16,25.96c0,0.149,0.075,0.223,0.223,0.223c0.148,0,0.226-0.074,0.226-0.223v-1.923c0-0.147-0.077-0.221-0.226-0.221
			c-0.147,0-0.223,0.074-0.223,0.221V25.96z"/>
		<path d="M27.124,29.092h0.518v3.252h-0.518V29.092z"/>
		<path d="M32.147,17.656c0.195,0,0.368,0.065,0.518,0.197c0.146,0.131,0.223,0.319,0.223,0.566v1.748
			c0,0.229-0.076,0.411-0.223,0.542c-0.149,0.131-0.322,0.198-0.518,0.198c-0.199,0-0.371-0.067-0.521-0.198
			c-0.145-0.131-0.222-0.313-0.222-0.542v-1.748c0-0.247,0.077-0.435,0.222-0.566C31.776,17.722,31.948,17.656,32.147,17.656z
			 M31.924,20.242c0,0.149,0.073,0.223,0.224,0.223c0.147,0,0.225-0.074,0.225-0.223v-1.921c0-0.149-0.077-0.224-0.225-0.224
			c-0.15,0-0.224,0.074-0.224,0.224V20.242z"/>
		<path d="M32.147,23.373c0.195,0,0.368,0.067,0.518,0.199c0.146,0.131,0.223,0.319,0.223,0.564v1.75
			c0,0.229-0.076,0.411-0.223,0.542c-0.149,0.131-0.322,0.197-0.518,0.197c-0.199,0-0.371-0.066-0.521-0.197
			c-0.145-0.132-0.222-0.313-0.222-0.542v-1.75c0-0.245,0.077-0.433,0.222-0.564C31.776,23.44,31.948,23.373,32.147,23.373z
			 M31.924,25.96c0,0.149,0.073,0.223,0.224,0.223c0.147,0,0.225-0.074,0.225-0.223v-1.923c0-0.147-0.077-0.221-0.225-0.221
			c-0.15,0-0.224,0.074-0.224,0.221V25.96z"/>
		<path d="M31.89,29.092h0.515v3.252H31.89V29.092z"/>
	</g>
</g>
</svg>
