<?xml version="1.0" encoding="utf-8"?>
<!-- Generator: Adobe Illustrator 16.0.4, SVG Export Plug-In . SVG Version: 6.00 Build 0)  -->
<!DOCTYPE svg PUBLIC "-//W3C//DTD SVG 1.1//EN" "http://www.w3.org/Graphics/SVG/1.1/DTD/svg11.dtd">
<svg version="1.1" id="Layer_1" xmlns="http://www.w3.org/2000/svg" xmlns:xlink="http://www.w3.org/1999/xlink" x="0px" y="0px"
	 width="50px" height="50px" viewBox="0 0 50 50" enable-background="new 0 0 50 50" xml:space="preserve">
<path d="M22.877,20.908H22.36v-3.252h0.517V20.908z M23.359,25.886c0,0.229-0.075,0.411-0.224,0.542
	c-0.149,0.131-0.321,0.197-0.518,0.197c-0.195,0-0.373-0.066-0.518-0.197c-0.147-0.132-0.221-0.312-0.221-0.542v-1.75
	c0-0.245,0.073-0.433,0.221-0.563c0.145-0.132,0.323-0.199,0.518-0.199c0.196,0,0.368,0.067,0.518,0.199
	c0.148,0.131,0.224,0.319,0.224,0.563V25.886z M22.841,24.037c0-0.147-0.073-0.221-0.224-0.221c-0.148,0-0.22,0.074-0.22,0.221
	v1.923c0,0.149,0.071,0.224,0.22,0.224c0.15,0,0.224-0.074,0.224-0.224V24.037z M23.135,29.289c0.148,0.131,0.224,0.32,0.224,0.566
	v1.748c0,0.229-0.075,0.412-0.224,0.543c-0.149,0.131-0.321,0.197-0.518,0.197c-0.195,0-0.373-0.066-0.518-0.197
	c-0.147-0.131-0.221-0.314-0.221-0.543v-1.748c0-0.246,0.073-0.436,0.221-0.566c0.145-0.131,0.323-0.197,0.518-0.197
	C22.813,29.092,22.985,29.158,23.135,29.289z M22.841,29.757c0-0.149-0.073-0.224-0.224-0.224c-0.148,0-0.22,0.074-0.22,0.224v1.921
	c0,0.149,0.071,0.223,0.22,0.223c0.15,0,0.224-0.073,0.224-0.223V29.757z M18.596,20.167c0,0.229-0.077,0.411-0.225,0.542
	s-0.321,0.198-0.518,0.198c-0.199,0-0.371-0.067-0.52-0.198c-0.144-0.131-0.221-0.313-0.221-0.542v-1.748
	c0-0.247,0.077-0.435,0.221-0.566c0.148-0.131,0.32-0.197,0.52-0.197c0.196,0,0.369,0.065,0.518,0.197
	c0.147,0.131,0.225,0.319,0.225,0.566V20.167z M18.079,18.321c0-0.149-0.075-0.224-0.226-0.224c-0.147,0-0.222,0.074-0.222,0.224
	v1.921c0,0.149,0.074,0.223,0.222,0.223c0.15,0,0.226-0.074,0.226-0.223V18.321z M18.371,26.428
	c-0.148,0.131-0.321,0.197-0.518,0.197c-0.199,0-0.371-0.066-0.52-0.197c-0.144-0.132-0.221-0.312-0.221-0.542v-1.75
	c0-0.245,0.077-0.433,0.221-0.563c0.148-0.132,0.32-0.199,0.52-0.199c0.196,0,0.369,0.067,0.518,0.199
	c0.147,0.131,0.225,0.319,0.225,0.563v1.75C18.596,26.115,18.519,26.297,18.371,26.428z M18.079,24.037
	c0-0.147-0.075-0.221-0.226-0.221c-0.147,0-0.222,0.074-0.222,0.221v1.923c0,0.149,0.074,0.224,0.222,0.224
	c0.15,0,0.226-0.074,0.226-0.224V24.037z M17.596,32.344h0.518v-3.252h-0.518V32.344z M27.383,20.907
	c-0.197,0-0.371-0.067-0.518-0.198c-0.147-0.131-0.223-0.313-0.223-0.542v-1.748c0-0.247,0.074-0.435,0.223-0.566
	c0.146-0.131,0.32-0.197,0.518-0.197c0.196,0,0.368,0.065,0.518,0.197c0.147,0.131,0.225,0.319,0.225,0.566v1.748
	c0,0.229-0.076,0.411-0.225,0.542S27.58,20.907,27.383,20.907z M27.383,20.465c0.148,0,0.227-0.074,0.227-0.223v-1.921
	c0-0.149-0.077-0.224-0.227-0.224c-0.146,0-0.223,0.074-0.223,0.224v1.921C27.16,20.391,27.234,20.465,27.383,20.465z
	 M32.146,20.907c-0.198,0-0.371-0.067-0.521-0.198c-0.146-0.131-0.222-0.313-0.222-0.542v-1.748c0-0.247,0.076-0.435,0.222-0.566
	c0.149-0.131,0.322-0.197,0.521-0.197c0.195,0,0.369,0.065,0.519,0.197c0.146,0.131,0.224,0.319,0.224,0.566v1.748
	c0,0.229-0.076,0.411-0.224,0.542C32.516,20.84,32.343,20.907,32.146,20.907z M32.148,20.465c0.146,0,0.225-0.074,0.225-0.223
	v-1.921c0-0.149-0.077-0.224-0.225-0.224c-0.15,0-0.225,0.074-0.225,0.224v1.921C31.924,20.391,31.997,20.465,32.148,20.465z
	 M15.635,33.48V16.52c0-2.562,0.207-2.77,2.769-2.77h13.194c2.562,0,2.769,0.207,2.769,2.77v6.758c0.354,0.244,0.694,0.511,1,0.818
	V16.52c0-3.111-0.66-3.77-3.769-3.77H18.403c-3.108,0-3.769,0.658-3.769,3.77v16.96c0,3.108,0.66,3.77,3.769,3.77h12.722v-1H18.403
	C15.842,36.25,15.635,36.043,15.635,33.48z M35.592,26.018c1.646,2.852,0.666,6.514-2.188,8.159
	c-2.853,1.646-6.514,0.668-8.16-2.188c-1.647-2.851-0.666-6.511,2.186-8.158C30.282,22.186,33.943,23.165,35.592,26.018z
	 M34.734,26.514c-1.375-2.381-4.43-3.199-6.811-1.827c-2.381,1.375-3.2,4.429-1.822,6.809c1.373,2.38,4.428,3.203,6.808,1.827
	C35.291,31.947,36.107,28.895,34.734,26.514z M34.905,33.81l-2.567,1.484l1.978,3.423l2.567-1.484L34.905,33.81z M37.15,37.701
	l-2.569,1.482c0.41,0.711,1.317,0.952,2.026,0.545C37.316,39.318,37.561,38.411,37.15,37.701z"/>
</svg>
