<?xml version="1.0" encoding="utf-8"?>
<!-- Generator: Adobe Illustrator 16.0.0, SVG Export Plug-In . SVG Version: 6.00 Build 0)  -->
<!DOCTYPE svg PUBLIC "-//W3C//DTD SVG 1.1//EN" "http://www.w3.org/Graphics/SVG/1.1/DTD/svg11.dtd">
<svg version="1.1" id="Layer_1" xmlns="http://www.w3.org/2000/svg" xmlns:xlink="http://www.w3.org/1999/xlink" x="0px" y="0px"
	 width="50px" height="50px" viewBox="0 0 50 50" enable-background="new 0 0 50 50" xml:space="preserve">
<g>
	<path d="M31.059,11.117H18.941c-1.937,0-3.521,1.584-3.521,3.52v22.417c0,1.936,1.585,3.52,3.521,3.52h12.117
		c1.936,0,3.521-1.584,3.521-3.52V14.637C34.579,12.702,32.994,11.117,31.059,11.117z M25.001,39.002
		c-0.678,0-1.229-0.549-1.229-1.226c0-0.676,0.551-1.226,1.229-1.226c0.675,0,1.224,0.55,1.224,1.226
		C26.225,38.453,25.676,39.002,25.001,39.002z M33.143,32.746c0,1.147-0.936,2.085-2.084,2.085H18.941
		c-1.149,0-2.085-0.938-2.085-2.085V14.637c0-1.147,0.936-2.083,2.085-2.083h12.117c1.148,0,2.084,0.936,2.084,2.083V32.746z"/>
	<rect x="22.727" y="17.155" width="0.445" height="2.801"/>
	<path d="M22.947,22.078c-0.168,0-0.321,0.058-0.445,0.171c-0.127,0.113-0.19,0.275-0.19,0.485v1.507
		c0,0.198,0.063,0.354,0.19,0.467c0.124,0.113,0.277,0.17,0.445,0.17c0.169,0,0.317-0.057,0.446-0.17
		c0.127-0.114,0.192-0.27,0.192-0.467v-1.507c0-0.21-0.065-0.372-0.192-0.485C23.265,22.136,23.116,22.078,22.947,22.078z
		 M23.141,24.306c0,0.128-0.063,0.192-0.193,0.192c-0.128,0-0.189-0.064-0.189-0.192V22.65c0-0.126,0.062-0.19,0.189-0.19
		c0.13,0,0.193,0.064,0.193,0.19V24.306z"/>
	<path d="M22.947,27.003c-0.168,0-0.321,0.057-0.445,0.17c-0.127,0.112-0.19,0.275-0.19,0.487v1.506c0,0.196,0.063,0.354,0.19,0.467
		c0.124,0.113,0.277,0.17,0.445,0.17c0.169,0,0.317-0.058,0.446-0.17c0.127-0.113,0.192-0.271,0.192-0.467v-1.506
		c0-0.212-0.065-0.375-0.192-0.487C23.265,27.06,23.116,27.003,22.947,27.003z M23.141,29.23c0,0.128-0.063,0.192-0.193,0.192
		c-0.128,0-0.189-0.063-0.189-0.192v-1.654c0-0.128,0.062-0.192,0.189-0.192c0.13,0,0.193,0.064,0.193,0.192V29.23z"/>
	<path d="M18.844,17.155c-0.171,0-0.318,0.057-0.447,0.17c-0.123,0.113-0.189,0.274-0.189,0.488v1.505
		c0,0.197,0.066,0.354,0.189,0.467c0.129,0.113,0.276,0.171,0.447,0.171c0.17,0,0.318-0.058,0.446-0.171
		c0.127-0.113,0.194-0.27,0.194-0.467v-1.505c0-0.213-0.067-0.375-0.194-0.488C19.162,17.212,19.014,17.155,18.844,17.155z
		 M19.039,19.382c0,0.128-0.064,0.192-0.195,0.192c-0.126,0-0.19-0.063-0.19-0.192v-1.654c0-0.128,0.064-0.192,0.19-0.192
		c0.131,0,0.195,0.064,0.195,0.192V19.382z"/>
	<path d="M18.844,22.078c-0.171,0-0.318,0.058-0.447,0.171c-0.123,0.113-0.189,0.275-0.189,0.485v1.507
		c0,0.198,0.066,0.354,0.189,0.467c0.129,0.113,0.276,0.17,0.447,0.17c0.17,0,0.318-0.057,0.446-0.17
		c0.127-0.114,0.194-0.27,0.194-0.467v-1.507c0-0.21-0.067-0.372-0.194-0.485C19.162,22.136,19.014,22.078,18.844,22.078z
		 M19.039,24.306c0,0.128-0.064,0.192-0.195,0.192c-0.126,0-0.19-0.064-0.19-0.192V22.65c0-0.126,0.064-0.19,0.19-0.19
		c0.131,0,0.195,0.064,0.195,0.19V24.306z"/>
	<rect x="18.623" y="27.003" width="0.445" height="2.801"/>
	<path d="M27.051,17.155c-0.17,0-0.318,0.057-0.445,0.17c-0.126,0.113-0.19,0.274-0.19,0.488v1.505c0,0.197,0.064,0.354,0.19,0.467
		c0.127,0.113,0.275,0.171,0.445,0.171s0.317-0.058,0.446-0.171c0.127-0.113,0.192-0.27,0.192-0.467v-1.505
		c0-0.213-0.065-0.375-0.192-0.488C27.368,17.212,27.221,17.155,27.051,17.155z M27.246,19.382c0,0.128-0.066,0.192-0.195,0.192
		c-0.126,0-0.191-0.063-0.191-0.192v-1.654c0-0.128,0.065-0.192,0.191-0.192c0.129,0,0.195,0.064,0.195,0.192V19.382z"/>
	<path d="M27.051,22.078c-0.17,0-0.318,0.058-0.445,0.171c-0.126,0.113-0.19,0.275-0.19,0.485v1.507c0,0.198,0.064,0.354,0.19,0.467
		c0.127,0.113,0.275,0.17,0.445,0.17s0.317-0.057,0.446-0.17c0.127-0.114,0.192-0.27,0.192-0.467v-1.507
		c0-0.21-0.065-0.372-0.192-0.485C27.368,22.136,27.221,22.078,27.051,22.078z M27.246,24.306c0,0.128-0.066,0.192-0.195,0.192
		c-0.126,0-0.191-0.064-0.191-0.192V22.65c0-0.126,0.065-0.19,0.191-0.19c0.129,0,0.195,0.064,0.195,0.19V24.306z"/>
	<rect x="26.828" y="27.003" width="0.446" height="2.801"/>
	<path d="M31.155,17.155c-0.172,0-0.32,0.057-0.449,0.17c-0.124,0.113-0.19,0.274-0.19,0.488v1.505c0,0.197,0.066,0.354,0.19,0.467
		c0.129,0.113,0.277,0.171,0.449,0.171c0.167,0,0.316-0.058,0.445-0.171c0.126-0.113,0.191-0.27,0.191-0.467v-1.505
		c0-0.213-0.065-0.375-0.191-0.488C31.472,17.212,31.322,17.155,31.155,17.155z M31.349,19.382c0,0.128-0.067,0.192-0.193,0.192
		c-0.131,0-0.193-0.063-0.193-0.192v-1.654c0-0.128,0.062-0.192,0.193-0.192c0.126,0,0.193,0.064,0.193,0.192V19.382z"/>
	<path d="M31.155,22.078c-0.172,0-0.32,0.058-0.449,0.171c-0.124,0.113-0.19,0.275-0.19,0.485v1.507c0,0.198,0.066,0.354,0.19,0.467
		c0.129,0.113,0.277,0.17,0.449,0.17c0.167,0,0.316-0.057,0.445-0.17c0.126-0.114,0.191-0.27,0.191-0.467v-1.507
		c0-0.21-0.065-0.372-0.191-0.485C31.472,22.136,31.322,22.078,31.155,22.078z M31.349,24.306c0,0.128-0.067,0.192-0.193,0.192
		c-0.131,0-0.193-0.064-0.193-0.192V22.65c0-0.126,0.062-0.19,0.193-0.19c0.126,0,0.193,0.064,0.193,0.19V24.306z"/>
	<rect x="30.933" y="27.003" width="0.443" height="2.801"/>
</g>
</svg>
