<?xml version="1.0" encoding="utf-8"?>
<!-- Generator: Adobe Illustrator 16.0.0, SVG Export Plug-In . SVG Version: 6.00 Build 0)  -->
<!DOCTYPE svg PUBLIC "-//W3C//DTD SVG 1.1//EN" "http://www.w3.org/Graphics/SVG/1.1/DTD/svg11.dtd">
<svg version="1.1" id="Layer_1" xmlns="http://www.w3.org/2000/svg" xmlns:xlink="http://www.w3.org/1999/xlink" x="0px" y="0px"
	 width="50px" height="50px" viewBox="0 0 50 50" enable-background="new 0 0 50 50" xml:space="preserve">
<g>
	<g>
		<g>
			<path d="M25.889,10.556H14.684c-2.64,0-3.201,0.56-3.201,3.202v14.404c0,2.642,0.561,3.202,3.201,3.202h10.804v-0.85H14.684
				c-2.175,0-2.351-0.176-2.351-2.353V13.757c0-2.176,0.176-2.353,2.351-2.353h11.205c2.175,0,2.351,0.176,2.351,2.353v14.004h0.85
				V13.757C29.089,11.115,28.528,10.556,25.889,10.556z"/>
			<polygon points="26.015,30.835 28.562,28.288 26.015,28.288 			"/>
		</g>
		<g>
			<path d="M18.044,14.722h0.438v2.762h-0.438V14.722z"/>
			<path d="M18.263,19.578c0.167,0,0.312,0.057,0.44,0.168c0.126,0.111,0.19,0.271,0.19,0.479v1.486c0,0.195-0.064,0.348-0.19,0.46
				c-0.127,0.112-0.273,0.167-0.44,0.167c-0.166,0-0.317-0.056-0.439-0.167c-0.125-0.112-0.188-0.266-0.188-0.46v-1.486
				c0-0.208,0.062-0.368,0.188-0.479C17.946,19.634,18.097,19.578,18.263,19.578z M18.076,21.775c0,0.126,0.06,0.189,0.187,0.189
				c0.128,0,0.19-0.063,0.19-0.189v-1.633c0-0.125-0.062-0.188-0.19-0.188c-0.126,0-0.187,0.063-0.187,0.188V21.775z"/>
			<path d="M18.263,24.435c0.167,0,0.312,0.056,0.44,0.167c0.126,0.112,0.19,0.272,0.19,0.481v1.485c0,0.194-0.064,0.349-0.19,0.46
				c-0.127,0.111-0.273,0.168-0.44,0.168c-0.166,0-0.317-0.057-0.439-0.168c-0.125-0.111-0.188-0.267-0.188-0.46v-1.485
				c0-0.208,0.062-0.369,0.188-0.481C17.946,24.49,18.097,24.435,18.263,24.435z M18.076,26.63c0,0.127,0.06,0.189,0.187,0.189
				c0.128,0,0.19-0.062,0.19-0.189V25c0-0.127-0.062-0.19-0.19-0.19c-0.126,0-0.187,0.062-0.187,0.19V26.63z"/>
			<path d="M14.216,14.722c0.167,0,0.313,0.056,0.44,0.168c0.125,0.111,0.19,0.271,0.19,0.481v1.484c0,0.195-0.066,0.349-0.19,0.46
				c-0.126,0.111-0.273,0.168-0.44,0.168c-0.169,0-0.315-0.057-0.441-0.168c-0.122-0.111-0.188-0.266-0.188-0.46v-1.484
				c0-0.21,0.066-0.37,0.188-0.481C13.901,14.778,14.047,14.722,14.216,14.722z M14.028,16.919c0,0.126,0.063,0.189,0.188,0.189
				c0.128,0,0.191-0.063,0.191-0.189v-1.632c0-0.126-0.063-0.189-0.191-0.189c-0.125,0-0.188,0.063-0.188,0.189V16.919z"/>
			<path d="M14.216,19.578c0.167,0,0.313,0.057,0.44,0.168c0.125,0.111,0.19,0.271,0.19,0.479v1.486c0,0.195-0.066,0.348-0.19,0.46
				c-0.126,0.112-0.273,0.167-0.44,0.167c-0.169,0-0.315-0.056-0.441-0.167c-0.122-0.112-0.188-0.266-0.188-0.46v-1.486
				c0-0.208,0.066-0.368,0.188-0.479C13.901,19.634,14.047,19.578,14.216,19.578z M14.028,21.775c0,0.126,0.063,0.189,0.188,0.189
				c0.128,0,0.191-0.063,0.191-0.189v-1.633c0-0.125-0.063-0.188-0.191-0.188c-0.125,0-0.188,0.063-0.188,0.188V21.775z"/>
			<path d="M13.998,24.435h0.44v2.762h-0.44V24.435z"/>
			<path d="M22.31,14.722c0.167,0,0.312,0.056,0.439,0.168c0.125,0.111,0.19,0.271,0.19,0.481v1.484c0,0.195-0.064,0.349-0.19,0.46
				c-0.127,0.111-0.273,0.168-0.439,0.168c-0.168,0-0.315-0.057-0.44-0.168s-0.188-0.266-0.188-0.46v-1.484
				c0-0.21,0.063-0.37,0.188-0.481C21.995,14.778,22.142,14.722,22.31,14.722z M22.121,16.919c0,0.126,0.064,0.189,0.189,0.189
				c0.126,0,0.191-0.063,0.191-0.189v-1.632c0-0.126-0.065-0.189-0.191-0.189c-0.125,0-0.189,0.063-0.189,0.189V16.919z"/>
			<path d="M22.31,19.578c0.167,0,0.312,0.057,0.439,0.168c0.125,0.111,0.19,0.271,0.19,0.479v1.486c0,0.195-0.064,0.348-0.19,0.46
				c-0.127,0.112-0.273,0.167-0.439,0.167c-0.168,0-0.315-0.056-0.44-0.167c-0.125-0.112-0.188-0.266-0.188-0.46v-1.486
				c0-0.208,0.063-0.368,0.188-0.479C21.995,19.634,22.142,19.578,22.31,19.578z M22.121,21.775c0,0.126,0.064,0.189,0.189,0.189
				c0.126,0,0.191-0.063,0.191-0.189v-1.633c0-0.125-0.065-0.188-0.191-0.188c-0.125,0-0.189,0.063-0.189,0.188V21.775z"/>
			<path d="M22.09,24.435h0.439v2.762H22.09V24.435z"/>
			<path d="M26.356,14.722c0.166,0,0.313,0.056,0.439,0.168c0.125,0.111,0.189,0.271,0.189,0.481v1.484
				c0,0.195-0.065,0.349-0.189,0.46c-0.126,0.111-0.273,0.168-0.439,0.168c-0.169,0-0.315-0.057-0.442-0.168
				c-0.123-0.111-0.188-0.266-0.188-0.46v-1.484c0-0.21,0.066-0.37,0.188-0.481C26.041,14.778,26.187,14.722,26.356,14.722z
				 M26.167,16.919c0,0.126,0.062,0.189,0.19,0.189c0.125,0,0.191-0.063,0.191-0.189v-1.632c0-0.126-0.066-0.189-0.191-0.189
				c-0.127,0-0.19,0.063-0.19,0.189V16.919z"/>
			<path d="M26.356,19.578c0.166,0,0.313,0.057,0.439,0.168c0.125,0.111,0.189,0.271,0.189,0.479v1.486
				c0,0.195-0.065,0.348-0.189,0.46c-0.126,0.112-0.273,0.167-0.439,0.167c-0.169,0-0.315-0.056-0.442-0.167
				c-0.123-0.112-0.188-0.266-0.188-0.46v-1.486c0-0.208,0.066-0.368,0.188-0.479C26.041,19.634,26.187,19.578,26.356,19.578z
				 M26.167,21.775c0,0.126,0.062,0.189,0.19,0.189c0.125,0,0.191-0.063,0.191-0.189v-1.633c0-0.125-0.066-0.188-0.191-0.188
				c-0.127,0-0.19,0.063-0.19,0.188V21.775z"/>
			<path d="M26.137,24.435h0.438v2.762h-0.438V24.435z"/>
		</g>
	</g>
	<path d="M37.766,24.31l0.639-0.237c0.089-0.033,0.134-0.131,0.101-0.219l-0.533-1.443c-0.031-0.088-0.131-0.135-0.22-0.102
		l-0.637,0.237c-0.09,0.033-0.197,0.018-0.24-0.033c-0.042-0.049-0.133-0.244-0.092-0.329l0.285-0.617
		c0.038-0.086,0-0.188-0.084-0.228l-1.397-0.644c-0.084-0.039-0.188-0.001-0.227,0.083l-0.285,0.619
		c-0.041,0.084-0.125,0.151-0.19,0.147c-0.065-0.003-0.267-0.076-0.3-0.166l-0.236-0.641c-0.033-0.086-0.131-0.132-0.219-0.101
		l-1.443,0.532c-0.089,0.033-0.135,0.131-0.102,0.221l0.236,0.641c0.033,0.086,0.019,0.195-0.032,0.237
		c-0.049,0.042-0.243,0.132-0.328,0.094l-0.619-0.286c-0.084-0.039-0.187-0.001-0.226,0.084l-0.644,1.398
		c-0.04,0.084-0.001,0.187,0.084,0.225l0.617,0.286c0.086,0.038,0.151,0.125,0.149,0.19c-0.006,0.064-0.08,0.265-0.167,0.298
		l-0.64,0.235c-0.087,0.032-0.133,0.13-0.101,0.22l0.533,1.445c0.033,0.087,0.132,0.134,0.219,0.101l0.641-0.237
		c0.088-0.033,0.196-0.019,0.238,0.033c0.043,0.049,0.133,0.242,0.094,0.329l-0.287,0.617c-0.04,0.084-0.001,0.187,0.083,0.227
		l1.398,0.644c0.085,0.04,0.189,0.002,0.226-0.082l0.285-0.62c0.04-0.084,0.125-0.15,0.191-0.146
		c0.064,0.003,0.265,0.076,0.298,0.166l0.236,0.639c0.032,0.088,0.131,0.135,0.22,0.102l1.443-0.533
		c0.088-0.033,0.134-0.131,0.101-0.22l-0.236-0.64c-0.033-0.088-0.019-0.196,0.031-0.238c0.051-0.043,0.244-0.133,0.331-0.094
		l0.617,0.286c0.087,0.039,0.188,0.001,0.228-0.084l0.643-1.397c0.04-0.085,0.002-0.187-0.083-0.226l-0.617-0.285
		c-0.085-0.039-0.142-0.245-0.142-0.311C37.606,24.422,37.677,24.342,37.766,24.31z M35.302,26.039
		c-0.886,0.326-1.869-0.126-2.196-1.013c-0.326-0.885,0.126-1.869,1.013-2.196c0.885-0.326,1.869,0.127,2.195,1.014
		C36.642,24.727,36.189,25.711,35.302,26.039z"/>
	<path d="M37.071,33.937l0.896-0.332c0.125-0.046,0.188-0.184,0.142-0.308l-0.746-2.021c-0.045-0.124-0.184-0.189-0.309-0.143
		l-0.892,0.332c-0.127,0.046-0.276,0.024-0.337-0.046c-0.059-0.069-0.186-0.342-0.128-0.46l0.399-0.864
		c0.052-0.122,0-0.264-0.118-0.319l-1.958-0.902c-0.119-0.055-0.263-0.002-0.317,0.117l-0.399,0.867
		c-0.057,0.119-0.176,0.212-0.266,0.206c-0.092-0.005-0.375-0.107-0.42-0.232l-0.331-0.896c-0.046-0.122-0.184-0.186-0.307-0.142
		l-2.021,0.746c-0.125,0.046-0.188,0.184-0.143,0.309l0.331,0.897c0.046,0.122,0.026,0.273-0.044,0.332
		c-0.069,0.059-0.34,0.186-0.46,0.132l-0.866-0.401c-0.118-0.054-0.261-0.001-0.317,0.119l-0.902,1.959
		c-0.056,0.118-0.002,0.261,0.119,0.315l0.864,0.401c0.12,0.053,0.212,0.175,0.209,0.266c-0.008,0.091-0.112,0.372-0.233,0.417
		l-0.897,0.33c-0.122,0.045-0.186,0.183-0.142,0.308l0.746,2.025c0.046,0.121,0.186,0.187,0.308,0.141l0.897-0.332
		c0.123-0.046,0.274-0.026,0.333,0.046c0.061,0.069,0.186,0.338,0.131,0.46l-0.401,0.864c-0.056,0.119-0.002,0.262,0.117,0.317
		l1.959,0.903c0.12,0.056,0.264,0.003,0.317-0.116l0.399-0.867c0.056-0.119,0.176-0.211,0.268-0.206
		c0.09,0.005,0.372,0.107,0.417,0.232l0.331,0.896c0.044,0.123,0.184,0.189,0.309,0.143l2.021-0.746
		c0.124-0.046,0.188-0.184,0.142-0.309l-0.33-0.896c-0.046-0.124-0.026-0.274,0.042-0.334c0.072-0.061,0.342-0.186,0.463-0.131
		l0.865,0.401c0.121,0.054,0.263,0.001,0.318-0.118l0.901-1.958c0.056-0.12,0.003-0.261-0.117-0.317l-0.865-0.399
		c-0.12-0.055-0.199-0.344-0.199-0.436C36.848,34.095,36.946,33.983,37.071,33.937z M33.62,36.359
		c-1.241,0.457-2.618-0.177-3.077-1.42c-0.457-1.239,0.178-2.618,1.42-3.077c1.239-0.457,2.618,0.177,3.075,1.42
		C35.497,34.522,34.862,35.901,33.62,36.359z"/>
</g>
</svg>
