<?xml version="1.0" encoding="utf-8"?>
<!-- Generator: Adobe Illustrator 16.0.0, SVG Export Plug-In . SVG Version: 6.00 Build 0)  -->
<!DOCTYPE svg PUBLIC "-//W3C//DTD SVG 1.1//EN" "http://www.w3.org/Graphics/SVG/1.1/DTD/svg11.dtd">
<svg version="1.1" id="Layer_1" xmlns="http://www.w3.org/2000/svg" xmlns:xlink="http://www.w3.org/1999/xlink" x="0px" y="0px"
	 width="50px" height="50px" viewBox="0 0 50 50" enable-background="new 0 0 50 50" xml:space="preserve">
<g>
	<circle cx="14.544" cy="33.956" r="0.673"/>
	<circle cx="14.544" cy="27.956" r="0.673"/>
	<circle cx="14.544" cy="21.956" r="0.673"/>
	<path d="M13.461,35.828c-0.514,0-0.936-0.421-0.936-0.937V33.02c0-0.516,0.422-0.937,0.936-0.937h7.481l-0.133-0.359
		c-0.252-0.712,0.11-1.49,0.805-1.746l0.341-0.125l-0.056-0.026h-8.438c-0.514,0-0.936-0.421-0.936-0.937V27.02
		c0-0.516,0.422-0.937,0.936-0.937h8.338l0.517-1.121c0.301-0.656,1.135-0.971,1.798-0.67l0.332,0.154l-0.124-0.337
		c-0.033-0.093-0.055-0.188-0.067-0.282H13.461c-0.514,0-0.936-0.421-0.936-0.937V21.02c0-0.516,0.422-0.937,0.936-0.937h16.848
		c0.514,0,0.936,0.421,0.936,0.937v0.273c0.248-0.037,0.506-0.01,0.742,0.098l0.193,0.089v-0.46c0-0.021-0.01-0.037-0.01-0.057
		l-1.867-6.797c-0.056-0.511-0.57-0.93-1.143-0.93H14.609c-0.572,0-1.087,0.419-1.143,0.93L11.6,20.963
		c0,0.02-0.01,0.036-0.01,0.057v1.871c0,0.486,0.191,0.927,0.496,1.26L11.6,26.963c0,0.02-0.01,0.036-0.01,0.057v1.871
		c0,0.486,0.191,0.927,0.496,1.26L11.6,32.963c0,0.02-0.01,0.036-0.01,0.057v1.871c0,1.032,0.84,1.872,1.871,1.872h10.353
		c-0.104-0.31-0.085-0.636,0.038-0.936H13.461z"/>
	<path d="M37.411,31.526l-1.298-0.599c-0.18-0.082-0.299-0.516-0.299-0.654s0.149-0.306,0.337-0.375l1.344-0.499
		c0.187-0.068,0.28-0.276,0.212-0.46l-1.12-3.034c-0.066-0.185-0.276-0.283-0.463-0.214l-1.34,0.499
		c-0.19,0.069-0.414,0.037-0.506-0.069c-0.089-0.104-0.277-0.513-0.191-0.691l0.599-1.297c0.078-0.183,0-0.395-0.178-0.479
		l-2.937-1.354c-0.178-0.081-0.395-0.002-0.477,0.175l-0.599,1.302c-0.086,0.178-0.265,0.319-0.399,0.309
		c-0.139-0.007-0.562-0.16-0.632-0.348l-0.495-1.346c-0.069-0.183-0.276-0.278-0.462-0.212l-3.033,1.12
		c-0.187,0.069-0.282,0.276-0.215,0.464l0.496,1.346c0.07,0.182,0.039,0.409-0.066,0.499c-0.103,0.088-0.511,0.279-0.69,0.197
		L23.7,25.203c-0.179-0.081-0.394-0.003-0.477,0.178l-1.354,2.939c-0.083,0.177-0.002,0.392,0.179,0.474l1.296,0.602
		c0.181,0.079,0.318,0.261,0.313,0.399c-0.012,0.136-0.167,0.558-0.351,0.626l-1.347,0.497c-0.182,0.067-0.278,0.273-0.212,0.461
		l1.121,3.039c0.068,0.182,0.277,0.28,0.461,0.211l1.346-0.498c0.186-0.069,0.412-0.04,0.501,0.069
		c0.091,0.104,0.279,0.509,0.197,0.69l-0.602,1.297c-0.085,0.178-0.004,0.393,0.175,0.477l2.939,1.354
		c0.18,0.083,0.396,0.005,0.477-0.172l0.599-1.302c0.084-0.178,0.264-0.316,0.402-0.308c0.136,0.007,0.557,0.16,0.626,0.347
		l0.496,1.345c0.066,0.185,0.275,0.283,0.464,0.215l3.033-1.12c0.185-0.069,0.28-0.277,0.212-0.465L33.7,35.213
		c-0.07-0.186-0.041-0.413,0.063-0.501c0.108-0.091,0.513-0.279,0.694-0.197l1.298,0.602c0.183,0.082,0.396,0.003,0.479-0.178
		l1.351-2.937C37.669,31.822,37.591,31.61,37.411,31.526z M28.403,34.272c0,0,0.873-0.436,0.512-1.289
		c-0.161,0.029-0.624,0.114-0.983,0.161s-0.672-0.171-0.738-0.35c-0.066-0.18,0.128-0.502,0.047-0.606
		c-0.08-0.103-0.352-0.4-0.257-0.656s0.048-0.387,0.048-0.387s-0.52-0.102-0.567-0.292c-0.047-0.189,0.71-1.354,0.71-1.354
		s-0.161-0.284-0.199-0.436c-0.037-0.151,0-0.965,0.492-1.893c0.494-0.928,1.62-1.259,3.125-1.07
		c1.506,0.189,2.393,1.708,2.396,2.623c0.006,1.817-1.282,2.65-1.298,3.304c-0.028,1.174,1.304,2.245,1.304,2.245H28.403z"/>
</g>
</svg>
