<?xml version="1.0" encoding="utf-8"?>
<!-- Generator: Adobe Illustrator 16.0.0, SVG Export Plug-In . SVG Version: 6.00 Build 0)  -->
<!DOCTYPE svg PUBLIC "-//W3C//DTD SVG 1.1//EN" "http://www.w3.org/Graphics/SVG/1.1/DTD/svg11.dtd">
<svg version="1.1" id="Layer_1" xmlns="http://www.w3.org/2000/svg" xmlns:xlink="http://www.w3.org/1999/xlink" x="0px" y="0px"
	 width="50px" height="50px" viewBox="0 0 50 50" enable-background="new 0 0 50 50" xml:space="preserve">
<g>
	<path d="M37.706,23.365c-0.514-1.841-1.981-3.18-3.729-3.18c-0.02,0-0.038,0.007-0.058,0.007c-0.281-3.498-2.779-6.246-5.853-6.246
		c-1.73,0-3.272,0.884-4.354,2.265c-0.682-0.658-1.546-1.069-2.499-1.069c-2.14,0-3.874,1.992-3.931,4.471
		c-0.375-0.166-0.778-0.268-1.203-0.268c-1.885,0-3.412,1.78-3.412,3.977c-1.334,0-2.414,1.26-2.414,2.812s1.08,2.812,2.414,2.812
		c0.001,0,2.899,0,6.709,0v-5.408c0-1.488,1.211-2.698,2.699-2.698h5.847c1.488,0,2.699,1.21,2.699,2.698v5.408
		c3.81,0,6.71,0,6.71,0c1.334,0,2.414-1.26,2.414-2.812C39.746,24.729,38.861,23.575,37.706,23.365z"/>
	<path d="M27.923,21.84h-5.847c-0.935,0-1.699,0.765-1.699,1.698v10.817c0,0.934,0.765,1.698,1.699,1.698h5.847
		c0.935,0,1.699-0.765,1.699-1.698V23.538C29.622,22.604,28.857,21.84,27.923,21.84z M25,35.295c-0.327,0-0.593-0.265-0.593-0.592
		c0-0.326,0.266-0.592,0.593-0.592c0.326,0,0.591,0.266,0.591,0.592C25.591,35.03,25.326,35.295,25,35.295z M28.929,32.276
		c0,0.554-0.451,1.006-1.006,1.006h-5.847c-0.555,0-1.006-0.452-1.006-1.006v-8.738c0-0.554,0.451-1.005,1.006-1.005h5.847
		c0.555,0,1.006,0.451,1.006,1.005V32.276z"/>
	<path d="M21.529,27.122l0.502,0.5c1.638-1.638,4.303-1.637,5.938,0.001l0.501-0.501C26.558,25.208,23.443,25.208,21.529,27.122z"/>
	<path d="M22.396,27.988l0.501,0.501c1.159-1.159,3.047-1.159,4.206,0l0.501-0.501C26.17,26.552,23.833,26.552,22.396,27.988z"/>
	<path d="M23.29,28.882l0.502,0.502c0.666-0.667,1.75-0.667,2.418,0l0.5-0.502C25.768,27.939,24.232,27.939,23.29,28.882z"/>
	<circle cx="24.999" cy="30.057" r="0.673"/>
</g>
</svg>
