<?xml version="1.0" encoding="utf-8"?>
<!-- Generator: Adobe Illustrator 16.0.0, SVG Export Plug-In . SVG Version: 6.00 Build 0)  -->
<!DOCTYPE svg PUBLIC "-//W3C//DTD SVG 1.1//EN" "http://www.w3.org/Graphics/SVG/1.1/DTD/svg11.dtd">
<svg version="1.1" id="Layer_1" xmlns="http://www.w3.org/2000/svg" xmlns:xlink="http://www.w3.org/1999/xlink" x="0px" y="0px"
	 width="50px" height="50px" viewBox="0 0 50 50" enable-background="new 0 0 50 50" xml:space="preserve">
<g>
	<circle cx="13.647" cy="25" r="3.548"/>
	<circle cx="34.225" cy="25" r="5.676"/>
	<path d="M31.858,18.34c0.479-0.171,0.981-0.284,1.502-0.349c-1.386-2.181-3.817-3.635-6.587-3.635h-2.129v1.419h2.129
		C28.857,15.776,30.692,16.793,31.858,18.34z"/>
	<path d="M15.034,20.255c0.797-2.521,3.095-4.367,5.854-4.458l-0.975-0.73l0.93-0.697c-3.455,0.112-6.344,2.475-7.25,5.669
		c0.018,0,0.035-0.005,0.053-0.005C14.133,20.033,14.592,20.125,15.034,20.255z"/>
	<path d="M26.982,34.204l0.975,0.73l-0.93,0.697c2.664-0.086,4.99-1.509,6.333-3.623c-0.521-0.064-1.022-0.177-1.502-0.349
		C30.732,33.154,28.979,34.138,26.982,34.204z"/>
	<path d="M15.034,29.745c-0.442,0.13-0.901,0.222-1.388,0.222c-0.018,0-0.035-0.005-0.053-0.005
		c0.928,3.274,3.937,5.682,7.504,5.682h2.129v-1.419h-2.129C18.244,34.224,15.852,32.331,15.034,29.745z"/>
	<polygon points="23.936,37.062 26.773,34.934 23.936,32.805 	"/>
	<polygon points="23.936,12.938 21.098,15.066 23.936,17.195 	"/>
</g>
</svg>
