<?xml version="1.0" encoding="utf-8"?>
<!-- Generator: Adobe Illustrator 16.0.0, SVG Export Plug-In . SVG Version: 6.00 Build 0)  -->
<!DOCTYPE svg PUBLIC "-//W3C//DTD SVG 1.1//EN" "http://www.w3.org/Graphics/SVG/1.1/DTD/svg11.dtd">
<svg version="1.1" id="Layer_1" xmlns="http://www.w3.org/2000/svg" xmlns:xlink="http://www.w3.org/1999/xlink" x="0px" y="0px"
	 width="50px" height="50px" viewBox="0 0 50 50" enable-background="new 0 0 50 50" xml:space="preserve">
<g>
	<path d="M37.325,21.764c-0.322-1.149-1.237-1.984-2.328-1.984c-0.013,0-0.024,0.004-0.037,0.004
		c-0.175-2.184-1.733-3.898-3.651-3.898c-1.08,0-2.043,0.552-2.718,1.414c-0.425-0.411-0.964-0.667-1.559-0.667
		c-1.336,0-2.419,1.243-2.454,2.79c-0.233-0.104-0.486-0.167-0.751-0.167c-1.176,0-2.129,1.111-2.129,2.482
		c-0.833,0-1.507,0.786-1.507,1.755s0.674,1.755,1.507,1.755c0.056,0,3.878,0,7.699,0c3.825,0,7.649,0,7.693,0
		c0.833,0,1.507-0.786,1.507-1.755C38.598,22.616,38.046,21.896,37.325,21.764z"/>
	<path d="M18.554,18.655l-5.595-2.77h-1.558v18.229h1.558l5.595-6.922V18.655z M17.863,26.947l-4.212,5.209V17.001l4.212,2.084
		V26.947z"/>
	<polygon points="28.771,27.575 28.771,29.369 17.954,29.369 17.954,30.617 30.02,30.617 30.019,27.575 31.267,27.575 
		29.397,25.248 27.522,27.575 	"/>
</g>
</svg>
