<?xml version="1.0" encoding="utf-8"?>
<!-- Generator: Adobe Illustrator 16.0.0, SVG Export Plug-In . SVG Version: 6.00 Build 0)  -->
<!DOCTYPE svg PUBLIC "-//W3C//DTD SVG 1.1//EN" "http://www.w3.org/Graphics/SVG/1.1/DTD/svg11.dtd">
<svg version="1.1" id="Layer_1" xmlns="http://www.w3.org/2000/svg" xmlns:xlink="http://www.w3.org/1999/xlink" x="0px" y="0px"
	 width="50px" height="50px" viewBox="0 0 50 50" enable-background="new 0 0 50 50" xml:space="preserve">
<g>
	<path d="M37.706,22.084c-0.514-1.841-1.981-3.18-3.729-3.18c-0.02,0-0.038,0.006-0.058,0.007c-0.281-3.498-2.779-6.246-5.853-6.246
		c-1.73,0-3.272,0.884-4.354,2.265c-0.682-0.658-1.546-1.07-2.499-1.07c-2.14,0-3.874,1.993-3.931,4.471
		c-0.375-0.166-0.778-0.268-1.203-0.268c-1.885,0-3.412,1.781-3.412,3.977c-1.334,0-2.414,1.259-2.414,2.812s1.08,2.812,2.414,2.812
		c0.055,0,2.318,0,5.446,0v-1.923c0-0.938,0.729-1.7,1.651-1.771v-0.843c0-2.887,2.348-5.235,5.234-5.235s5.234,2.349,5.234,5.235
		v0.842c0.921,0.068,1.651,0.832,1.651,1.771v1.923c3.137,0,5.403,0,5.446,0c1.334,0,2.414-1.259,2.414-2.812
		C39.746,23.448,38.861,22.294,37.706,22.084z"/>
	<path d="M29.234,24.564v-1.436c0-2.336-1.899-4.235-4.234-4.235c-2.334,0-4.234,1.899-4.234,4.235v1.436h1.57v-1.436
		c0-1.47,1.195-2.666,2.664-2.666s2.666,1.195,2.666,2.666v1.436H29.234z"/>
	<path d="M30.104,24.958H19.9c-0.431,0-0.786,0.353-0.786,0.784v7.847c0,0.432,0.355,0.786,0.786,0.786h10.203
		c0.429,0,0.782-0.354,0.782-0.786v-7.847C30.886,25.311,30.532,24.958,30.104,24.958z"/>
</g>
</svg>
