<?xml version="1.0" encoding="utf-8"?>
<!-- Generator: Adobe Illustrator 16.0.0, SVG Export Plug-In . SVG Version: 6.00 Build 0)  -->
<!DOCTYPE svg PUBLIC "-//W3C//DTD SVG 1.1//EN" "http://www.w3.org/Graphics/SVG/1.1/DTD/svg11.dtd">
<svg version="1.1" id="Layer_1" xmlns="http://www.w3.org/2000/svg" xmlns:xlink="http://www.w3.org/1999/xlink" x="0px" y="0px"
	 width="50px" height="50px" viewBox="0 0 50 50" enable-background="new 0 0 50 50" xml:space="preserve">
<g>
	<path d="M37.106,28.863c-0.322-1.148-1.237-1.984-2.328-1.984c-0.013,0-0.024,0.005-0.037,0.005
		c-0.175-2.184-1.733-3.898-3.651-3.898c-1.08,0-2.043,0.552-2.718,1.413c-0.425-0.41-0.964-0.667-1.559-0.667
		c-1.336,0-2.419,1.243-2.454,2.79c-0.233-0.104-0.486-0.167-0.751-0.167c-1.176,0-2.129,1.111-2.129,2.481
		c-0.833,0-1.507,0.787-1.507,1.756s0.674,1.756,1.507,1.756c0.046,0,2.593,0,5.604,0l2.093-4.186l2.093,4.186
		c3.016,0,5.567,0,5.604,0c0.833,0,1.507-0.787,1.507-1.756C38.379,29.715,37.827,28.995,37.106,28.863z"/>
	<path d="M37.706,23.538c-0.514-1.841-1.981-3.18-3.729-3.18c-0.02,0-0.038,0.007-0.058,0.007c-0.281-3.498-2.779-6.246-5.853-6.246
		c-1.73,0-3.272,0.884-4.354,2.265c-0.682-0.658-1.546-1.069-2.499-1.069c-2.14,0-3.874,1.992-3.931,4.471
		c-0.375-0.166-0.778-0.268-1.203-0.268c-1.885,0-3.412,1.78-3.412,3.977c-1.334,0-2.414,1.26-2.414,2.812s1.08,2.812,2.414,2.812
		c0,0,0.094,0,0.263,0L15,24.98l2.069,4.139c0.714,0,1.481,0,2.299,0c0.283-0.49,0.699-0.878,1.196-1.094
		c0.324-1.506,1.529-2.635,2.973-2.67c0.459-1.537,1.746-2.624,3.276-2.624c0.495,0,0.983,0.123,1.431,0.354
		c0.814-0.708,1.812-1.101,2.846-1.101c2.185,0,4.021,1.675,4.529,4.009c0.988,0.276,1.822,1.034,2.269,2.082
		c0.289,0.14,0.532,0.352,0.749,0.591c0.666-0.501,1.109-1.368,1.109-2.36C39.746,24.902,38.861,23.748,37.706,23.538z"/>
	<path d="M28.676,31.25v1c0,1.45-1.57,2.631-3.5,2.631H19c-1.93,0-3.5-1.181-3.5-2.631v-4.131l-0.5-1l-0.5,1v4.131
		c0,2.002,2.019,3.631,4.5,3.631h6.176c2.481,0,4.5-1.629,4.5-3.631v-1l-0.5-1L28.676,31.25z"/>
</g>
</svg>
