<?xml version="1.0" encoding="utf-8"?>
<!-- Generator: Adobe Illustrator 16.0.0, SVG Export Plug-In . SVG Version: 6.00 Build 0)  -->
<!DOCTYPE svg PUBLIC "-//W3C//DTD SVG 1.1//EN" "http://www.w3.org/Graphics/SVG/1.1/DTD/svg11.dtd">
<svg version="1.1" id="Layer_1" xmlns="http://www.w3.org/2000/svg" xmlns:xlink="http://www.w3.org/1999/xlink" x="0px" y="0px"
	 width="50px" height="50px" viewBox="0 0 50 50" enable-background="new 0 0 50 50" xml:space="preserve">
<g>
	<path d="M37.706,21.812c-0.514-1.58-1.981-2.729-3.729-2.729c-0.02,0-0.038,0.005-0.058,0.006
		c-0.281-3.001-2.779-5.359-5.853-5.359c-1.73,0-3.272,0.758-4.354,1.943c-0.682-0.565-1.546-0.918-2.499-0.918
		c-2.14,0-3.874,1.71-3.931,3.836c-0.375-0.142-0.778-0.229-1.203-0.229c-1.885,0-3.412,1.528-3.412,3.413
		c-1.334,0-2.414,1.081-2.414,2.414s1.08,2.414,2.414,2.414c0.539,0,24.242,0,24.664,0c1.334,0,2.414-1.081,2.414-2.414
		C39.746,22.982,38.861,21.992,37.706,21.812z"/>
	<polygon points="23.345,24.38 15.934,28.658 15.542,27.98 14.318,30.104 16.769,30.104 16.377,29.426 23.788,25.149 19.511,32.557 
		18.833,32.166 18.833,34.618 20.956,33.392 20.279,33.001 24.557,25.591 24.557,34.147 23.773,34.147 25,36.271 26.227,34.147 
		25.443,34.147 25.443,25.595 29.721,33.002 29.044,33.394 31.167,34.619 31.167,32.167 30.489,32.559 26.213,25.152 33.62,29.428 
		33.229,30.105 35.68,30.105 34.455,27.981 34.063,28.659 26.651,24.38 	"/>
</g>
</svg>
