<?xml version="1.0" encoding="utf-8"?>
<!-- Generator: Adobe Illustrator 16.0.0, SVG Export Plug-In . SVG Version: 6.00 Build 0)  -->
<!DOCTYPE svg PUBLIC "-//W3C//DTD SVG 1.1//EN" "http://www.w3.org/Graphics/SVG/1.1/DTD/svg11.dtd">
<svg version="1.1" id="Layer_1" xmlns="http://www.w3.org/2000/svg" xmlns:xlink="http://www.w3.org/1999/xlink" x="0px" y="0px"
	 width="50px" height="50px" viewBox="0 0 50 50" enable-background="new 0 0 50 50" xml:space="preserve">
<g>
	<path d="M37.706,23.669c-0.514-1.841-1.981-3.18-3.729-3.18c-0.02,0-0.038,0.007-0.058,0.007c-0.281-3.498-2.779-6.246-5.853-6.246
		c-1.73,0-3.272,0.884-4.354,2.265c-0.682-0.658-1.546-1.069-2.499-1.069c-2.14,0-3.874,1.992-3.931,4.471
		c-0.375-0.166-0.778-0.268-1.203-0.268c-1.885,0-3.412,1.78-3.412,3.977c-1.334,0-2.414,1.26-2.414,2.812s1.08,2.812,2.414,2.812
		c0.001,0,2.082,0,5.029,0c0-4.136,3.364-7.5,7.5-7.5s7.5,3.364,7.5,7.5c2.737,0,4.635,0,4.635,0c1.334,0,2.414-1.26,2.414-2.812
		C39.746,25.033,38.861,23.879,37.706,23.669z"/>
	<g>
		<path d="M29.998,26.56c-0.048-0.017-0.094-0.047-0.13-0.094c0,0-0.291-0.201-0.405-0.345l-0.062,0.085l0.378,0.489L29.998,26.56z"
			/>
		<path d="M31.697,29.249c0-2.688-1.632-4.993-3.958-5.982c-0.015-0.008-0.031-0.013-0.046-0.019
			c-0.173-0.073-0.349-0.137-0.528-0.193c-0.032-0.011-0.064-0.019-0.096-0.028c-0.166-0.05-0.336-0.095-0.509-0.131
			c-0.038-0.009-0.077-0.016-0.115-0.023c-0.405-0.078-0.821-0.122-1.248-0.122c-0.422,0-0.835,0.043-1.233,0.12
			c-0.048,0.01-0.096,0.019-0.142,0.027c-0.162,0.036-0.321,0.077-0.479,0.124c-0.042,0.012-0.083,0.022-0.125,0.037
			c-0.166,0.053-0.329,0.113-0.489,0.18c-0.027,0.01-0.056,0.021-0.086,0.033c-1.155,0.493-2.139,1.312-2.835,2.342
			c-0.002,0.002-0.002,0.003-0.003,0.004c-0.115,0.172-0.223,0.348-0.32,0.529c-0.003,0.004-0.004,0.006-0.006,0.009
			c-0.1,0.183-0.189,0.371-0.271,0.563c0,0.001,0,0.001,0,0.001c-0.329,0.776-0.511,1.632-0.511,2.529
			c0,2.917,1.921,5.385,4.567,6.208c0.611,0.19,1.26,0.293,1.934,0.293C28.787,35.749,31.697,32.839,31.697,29.249z M21.384,24.751
			c0.229,0.341-0.316,0.397-0.316,0.397c-0.057,0.017-0.111,0.039-0.169,0.067C21.052,25.052,21.215,24.897,21.384,24.751z
			 M21.97,30.443c-0.204,0.257-0.177,0.515-0.177,0.515c0.262,0.916-0.262,0.916-0.262,0.916c-0.377,0.058-0.23,0.514-0.23,0.514
			c0,0.259-0.146,0.46-0.146,0.46c0.146,0.199,0.031,0.429,0.031,0.429c-0.03,0.045-0.044,0.095-0.045,0.145
			c-1.114-1.062-1.813-2.562-1.813-4.226c0-0.342,0.031-0.678,0.088-1.005c0.033-0.059,0.055-0.094,0.055-0.094l0.233,0.145
			c0.204-0.087,0.317,0.229,0.317,0.229c0.176-0.03,0.234,0.286,0.234,0.286c0.436-0.173,0.522,0.627,0.522,0.627
			c0.232,0,0.495,0.286,0.495,0.286c0.436,0,0.521,0.288,0.521,0.288C22.172,29.898,21.97,30.443,21.97,30.443z M22.128,24.475
			c-0.037,0.316-0.592,0.276-0.725,0.263c0.231-0.195,0.479-0.375,0.741-0.532L22.128,24.475z M24.291,28.41
			c0,0-0.58-0.344-0.376-0.657c0,0,0.059-0.314,0.059-0.63c0,0,0.056-0.515,0.639-0.771c0,0,0.174-0.517,0.435-0.517
			c0,0,0.552-0.029,0.844-0.142c0,0,0.376-0.115,0.606-0.058c0,0,0.147,0.229,0.06,0.371c0,0,0.405-0.143,0.669,0.171
			c0,0,0.261-0.027,0.201-0.228c0,0,0.669,0.401,1.019,0.171c0,0,0.086-0.572-0.231-0.543c0,0-0.494,0.028-0.728-0.315
			c0,0-0.261-0.114-0.204,0.059c0,0,0.03,0.172,0.233,0.228c0,0-0.058,0.173-0.261,0.087c0,0-0.174-0.058-0.232-0.431
			c0,0-0.466-0.085-0.581-0.285c0,0-0.289,0.086,0.377,0.401c0,0,0.263,0.198-0.088,0.342c0,0-0.233-0.114,0.029-0.17
			c0,0-0.058-0.116-0.318-0.202c0,0-0.175-0.171-0.204-0.285c0,0-0.347,0.229-0.493,0.085c0,0-0.06,0.286-0.232,0.286
			c0,0-0.031,0.429-0.61,0.259h-0.174c0,0-0.145-0.4,0.059-0.516c0,0,0.377,0.085,0.463,0c0.088-0.085,0.146-0.229-0.086-0.284
			c0,0-0.348-0.089-0.203-0.261c0,0,0.173-0.199,0.348,0.059c0,0,0.291-0.2,0.667-0.229c0,0,0.67-0.289,0.493-0.488
			c0,0-0.432,0.258-0.637,0.117c0,0-0.572-0.189-0.106-0.645c2.019,0.193,3.734,1.419,4.623,3.138
			c-0.088,0.036-0.208,0.069-0.316,0.041c0.09,0.091,0.462,0.508,0.126,0.812c0,0-0.114,0.314-0.463,0.486
			c0,0-0.493-1.201-1.105-1.459c0,0,0.641,1.116,1.163,1.632c0,0,0.145,0.087,0.377-0.027c0,0,0.028,0.943-0.522,1.573
			c0,0-0.144,0.343-0.087,0.715c0,0,0.087,0.629-0.378,0.945c0,0-0.205,0.142-0.205,0.484c0,0,0,0.287-0.318,0.287
			c0,0-0.349,0.74-1.336,0.597c0,0,0-0.537-0.288-1.168c0,0-0.264-0.344,0.141-0.745c0,0,0.381-0.171-0.199-0.829
			c0,0-0.379-0.316-0.176-0.658c0,0,0.059-0.287-0.087-0.372c0,0-0.406,0.085-0.493-0.2c0,0-0.755,0.285-1.104,0.143
			C25.075,28.783,24.642,29.068,24.291,28.41z"/>
	</g>
</g>
</svg>
