<?xml version="1.0" encoding="utf-8"?>
<!-- Generator: Adobe Illustrator 16.0.0, SVG Export Plug-In . SVG Version: 6.00 Build 0)  -->
<!DOCTYPE svg PUBLIC "-//W3C//DTD SVG 1.1//EN" "http://www.w3.org/Graphics/SVG/1.1/DTD/svg11.dtd">
<svg version="1.1" id="Layer_1" xmlns="http://www.w3.org/2000/svg" xmlns:xlink="http://www.w3.org/1999/xlink" x="0px" y="0px"
	 width="50px" height="50px" viewBox="0 0 50 50" enable-background="new 0 0 50 50" xml:space="preserve">
<g>
	<circle cx="21.392" cy="37.503" r="0.331"/>
	<path d="M29.137,28.76c-0.027-0.251-0.279-0.457-0.562-0.457h-7.15c-0.282,0-0.534,0.206-0.562,0.457l-0.917,8.255
		c0,0.009-0.006,0.017-0.006,0.027v0.92c0,0.508,0.413,0.92,0.92,0.92h8.279c0.507,0,0.92-0.413,0.92-0.92v-0.92
		c0-0.01-0.006-0.018-0.006-0.027L29.137,28.76z M29.6,37.962c0,0.253-0.207,0.46-0.46,0.46H20.86c-0.253,0-0.46-0.208-0.46-0.46
		v-0.92c0-0.253,0.207-0.459,0.46-0.459h8.279c0.253,0,0.46,0.207,0.46,0.459V37.962z"/>
	<path d="M18.485,16.826c-0.146,0-0.222,0.074-0.222,0.22v1.914c0,0.148,0.075,0.222,0.222,0.222c0.148,0,0.226-0.074,0.226-0.222
		v-1.914C18.711,16.899,18.634,16.826,18.485,16.826z"/>
	<path d="M23.45,22.737c0-0.149-0.073-0.223-0.225-0.223c-0.147,0-0.218,0.073-0.218,0.223v1.367h0.442V22.737z"/>
	<path d="M27.97,13.491c0.146,0,0.224-0.074,0.224-0.222v-1.912c0-0.148-0.077-0.222-0.224-0.222c-0.147,0-0.223,0.074-0.223,0.222
		v1.912C27.747,13.417,27.822,13.491,27.97,13.491z"/>
	<path d="M23.226,16.826c-0.147,0-0.218,0.074-0.218,0.22v1.914c0,0.148,0.07,0.222,0.218,0.222c0.151,0,0.225-0.074,0.225-0.222
		v-1.914C23.45,16.899,23.377,16.826,23.226,16.826z"/>
	<path d="M32.486,17.045v1.914c0,0.148,0.073,0.222,0.224,0.222c0.146,0,0.224-0.074,0.224-0.222v-1.914
		c0-0.146-0.077-0.22-0.224-0.22C32.56,16.826,32.486,16.899,32.486,17.045z"/>
	<path d="M27.97,16.826c-0.147,0-0.223,0.074-0.223,0.22v1.914c0,0.148,0.075,0.222,0.223,0.222c0.146,0,0.224-0.074,0.224-0.222
		v-1.914C28.193,16.899,28.116,16.826,27.97,16.826z"/>
	<path d="M36.021,19.264c-0.408-1.462-1.515-2.548-2.861-2.722c0.022,0.015,0.046,0.022,0.065,0.04
		c0.146,0.13,0.223,0.317,0.223,0.561v1.742c0,0.229-0.077,0.408-0.223,0.54c-0.147,0.131-0.32,0.196-0.515,0.196
		c-0.198,0-0.37-0.065-0.519-0.196c-0.143-0.132-0.22-0.311-0.22-0.54v-1.742c0-0.244,0.077-0.431,0.22-0.561
		c0.148-0.131,0.32-0.198,0.519-0.198c0.002,0,0.004,0.001,0.006,0.001c-0.257-2.582-1.899-4.669-4.052-5.172
		c0.021,0.075,0.042,0.151,0.042,0.243v1.739c0,0.229-0.075,0.41-0.222,0.54c-0.148,0.131-0.321,0.197-0.515,0.197
		c-0.196,0-0.372-0.066-0.517-0.197c-0.146-0.13-0.221-0.311-0.221-0.54v-1.739c0-0.13,0.023-0.242,0.065-0.339
		c-1.354,0.113-2.554,0.842-3.414,1.941c-0.125-0.121-0.261-0.227-0.399-0.327v1.2h-0.513v-1.504
		c-0.39-0.186-0.81-0.296-1.255-0.296c-1.021,0-1.923,0.533-2.548,1.359c-0.036,0.094-0.092,0.177-0.169,0.244
		c-0.004,0.005-0.011,0.006-0.015,0.01c-0.407,0.637-0.659,1.415-0.679,2.264c-0.325-0.143-0.676-0.232-1.043-0.232
		c-1.635,0-2.96,1.545-2.96,3.449c-1.156,0-2.095,1.093-2.095,2.44c0,1.347,0.938,2.439,2.095,2.439h3.926v-2.029h0.515v2.029h3.747
		v-1.27c0-0.244,0.072-0.432,0.22-0.563c0.144-0.13,0.32-0.196,0.515-0.196c0.196,0,0.366,0.065,0.518,0.196
		c0.146,0.131,0.222,0.319,0.222,0.563v1.27h0.502l-0.001,1.043h-1.242l1.777,2.458l1.776-2.458h-1.248v-1.043h2.182v-2.029h0.515
		v2.029h4.227v-2.029h0.513v2.029h2.731c1.156,0,2.095-1.092,2.095-2.439C37.791,20.447,37.023,19.446,36.021,19.264z
		 M19.225,18.885c0,0.229-0.078,0.408-0.225,0.54c-0.148,0.131-0.32,0.196-0.515,0.196c-0.198,0-0.369-0.065-0.517-0.196
		c-0.144-0.132-0.22-0.311-0.22-0.54v-1.742c0-0.244,0.076-0.431,0.22-0.561c0.147-0.131,0.318-0.198,0.517-0.198
		c0.194,0,0.366,0.067,0.515,0.198c0.146,0.13,0.225,0.317,0.225,0.561V18.885z M23.965,18.885c0,0.229-0.075,0.408-0.222,0.54
		c-0.151,0.131-0.321,0.196-0.518,0.196c-0.194,0-0.371-0.065-0.515-0.196c-0.147-0.132-0.22-0.311-0.22-0.54v-1.742
		c0-0.244,0.072-0.431,0.22-0.561c0.144-0.131,0.32-0.198,0.515-0.198c0.196,0,0.366,0.067,0.518,0.198
		c0.146,0.13,0.222,0.317,0.222,0.561V18.885z M28.706,18.885c0,0.229-0.075,0.408-0.222,0.54c-0.148,0.131-0.321,0.196-0.515,0.196
		c-0.196,0-0.372-0.065-0.517-0.196c-0.146-0.132-0.221-0.311-0.221-0.54v-1.742c0-0.244,0.075-0.431,0.221-0.561
		c0.145-0.131,0.32-0.198,0.517-0.198c0.193,0,0.366,0.067,0.515,0.198c0.146,0.13,0.222,0.317,0.222,0.561V18.885z"/>
</g>
</svg>
