<?xml version="1.0" encoding="utf-8"?>
<!-- Generator: Adobe Illustrator 16.0.0, SVG Export Plug-In . SVG Version: 6.00 Build 0)  -->
<!DOCTYPE svg PUBLIC "-//W3C//DTD SVG 1.1//EN" "http://www.w3.org/Graphics/SVG/1.1/DTD/svg11.dtd">
<svg version="1.1" id="Layer_1" xmlns="http://www.w3.org/2000/svg" xmlns:xlink="http://www.w3.org/1999/xlink" x="0px" y="0px"
	 width="50px" height="50px" viewBox="0 0 50 50" enable-background="new 0 0 50 50" xml:space="preserve">
<g>
	<path d="M24.499,25.8c2.635,0,4.99-0.47,6.584-1.211l2.107-4.098v-1.645c0-1.921-3.891-3.477-8.691-3.477s-8.691,1.556-8.691,3.477
		v3.477C15.808,24.244,19.698,25.8,24.499,25.8z M24.499,16.239c4.775,0,7.822,1.544,7.822,2.607s-3.047,2.607-7.822,2.607
		s-7.822-1.544-7.822-2.607S19.724,16.239,24.499,16.239z"/>
	<path d="M29.931,31.988c-1.488,0.478-3.375,0.765-5.432,0.765c-4.801,0-8.691-1.556-8.691-3.477v3.477
		c0,1.921,3.891,3.477,8.691,3.477c2.384,0,4.542-0.384,6.111-1.005l0.809-3.236H29.931z"/>
	<path d="M24.499,31.015c1.216,0,2.373-0.101,3.424-0.281l2.042-3.971c-1.494,0.484-3.394,0.775-5.466,0.775
		c-4.801,0-8.691-1.556-8.691-3.477v3.477C15.808,29.459,19.698,31.015,24.499,31.015z"/>
	<polygon points="31.799,29.787 33.241,22.58 28.917,30.988 32.7,30.988 30.259,40.754 35.583,29.787 	"/>
</g>
</svg>
