<?xml version="1.0" encoding="utf-8"?>
<!-- Generator: Adobe Illustrator 16.0.0, SVG Export Plug-In . SVG Version: 6.00 Build 0)  -->
<!DOCTYPE svg PUBLIC "-//W3C//DTD SVG 1.1//EN" "http://www.w3.org/Graphics/SVG/1.1/DTD/svg11.dtd">
<svg version="1.1" id="Layer_1" xmlns="http://www.w3.org/2000/svg" xmlns:xlink="http://www.w3.org/1999/xlink" x="0px" y="0px"
	 width="50px" height="50px" viewBox="0 0 50 50" enable-background="new 0 0 50 50" xml:space="preserve">
<g>
	<g>
		<path d="M25.054,25.278c-3.604,0-6.525-1.168-6.525-2.61v2.61c0,1.442,2.921,2.61,6.525,2.61c3.604,0,6.524-1.168,6.524-2.61
			v-2.61C31.578,24.11,28.657,25.278,25.054,25.278z"/>
		<path d="M25.054,29.193c-3.604,0-6.525-1.168-6.525-2.61v2.61c0,1.442,2.921,2.61,6.525,2.61c3.604,0,6.524-1.168,6.524-2.61
			v-2.61C31.578,28.025,28.657,29.193,25.054,29.193z"/>
		<path d="M25.054,16.143c-3.604,0-6.525,1.168-6.525,2.61v2.61c0,1.443,2.921,2.61,6.525,2.61c3.604,0,6.524-1.167,6.524-2.61
			v-2.61C31.578,17.311,28.657,16.143,25.054,16.143z M25.054,20.71c-3.586,0-5.873-1.159-5.873-1.958s2.287-1.958,5.873-1.958
			c3.585,0,5.872,1.159,5.872,1.958S28.639,20.71,25.054,20.71z"/>
	</g>
	<polygon points="39.402,23.973 36.027,22.286 36.027,23.473 34.578,23.473 34.578,24.481 36.027,24.481 36.027,25.661 	"/>
	<polygon points="10.704,23.974 14.079,25.661 14.079,24.474 15.528,24.474 15.528,23.465 14.079,23.465 14.079,22.286 	"/>
	<polygon points="32.227,11.546 29.078,13.625 30.105,14.219 29.381,15.474 30.254,15.978 30.979,14.723 32.001,15.312 	"/>
	<polygon points="17.878,36.4 21.027,34.32 19.998,33.727 20.723,32.472 19.85,31.968 19.125,33.223 18.104,32.633 	"/>
	<polygon points="17.878,11.546 18.104,15.312 19.132,14.719 19.856,15.974 20.729,15.47 20.005,14.215 21.026,13.625 	"/>
	<polygon points="32.228,36.399 32.001,32.632 30.973,33.227 30.248,31.972 29.375,32.476 30.1,33.73 29.078,34.32 	"/>
</g>
</svg>
