<?xml version="1.0" encoding="utf-8"?>
<!-- Generator: Adobe Illustrator 16.0.0, SVG Export Plug-In . SVG Version: 6.00 Build 0)  -->
<!DOCTYPE svg PUBLIC "-//W3C//DTD SVG 1.1//EN" "http://www.w3.org/Graphics/SVG/1.1/DTD/svg11.dtd">
<svg version="1.1" id="Layer_1" xmlns="http://www.w3.org/2000/svg" xmlns:xlink="http://www.w3.org/1999/xlink" x="0px" y="0px"
	 width="50px" height="50px" viewBox="0 0 50 50" enable-background="new 0 0 50 50" xml:space="preserve">
<g>
	<path d="M28.416,22.336h1.41c0.722-0.507,1.141-1.093,1.141-1.719v-3.477c0-1.92-3.891-3.477-8.691-3.477s-8.691,1.557-8.691,3.477
		v3.477c0,1.922,3.891,3.478,8.691,3.478c1.06,0,2.071-0.08,3.01-0.219C26.019,22.945,27.142,22.336,28.416,22.336z M22.275,19.748
		c-4.775,0-7.822-1.543-7.822-2.607c0-1.062,3.047-2.607,7.822-2.607s7.822,1.545,7.822,2.607
		C30.098,18.205,27.051,19.748,22.275,19.748z"/>
	<path d="M22.275,29.31c0.74,0,1.455-0.041,2.141-0.11v-2.863c0-0.212,0.031-0.416,0.062-0.62c-0.705,0.074-1.44,0.117-2.203,0.117
		c-4.801,0-8.691-1.556-8.691-3.477v3.477C13.584,27.754,17.475,29.31,22.275,29.31z"/>
	<path d="M24.416,30.938c-0.686,0.069-1.4,0.11-2.141,0.11c-4.801,0-8.691-1.556-8.691-3.477v3.477c0,1.921,3.891,3.477,8.691,3.477
		c0.798,0,1.567-0.047,2.302-0.127c-0.094-0.341-0.161-0.691-0.161-1.062V30.938z"/>
	<path d="M33.416,23.336h-5c-1.65,0-3,1.35-3,3v7c0,1.65,1.35,3,3,3h5c1.65,0,3-1.35,3-3v-7
		C36.416,24.686,35.066,23.336,33.416,23.336z M33.416,30.586h-2.5v1.25l-2.5-2l2.5-2v1.25h2.5V30.586z"/>
</g>
</svg>
