<?xml version="1.0" encoding="utf-8"?>
<!-- Generator: Adobe Illustrator 16.0.0, SVG Export Plug-In . SVG Version: 6.00 Build 0)  -->
<!DOCTYPE svg PUBLIC "-//W3C//DTD SVG 1.1//EN" "http://www.w3.org/Graphics/SVG/1.1/DTD/svg11.dtd">
<svg version="1.1" id="Layer_1" xmlns="http://www.w3.org/2000/svg" xmlns:xlink="http://www.w3.org/1999/xlink" x="0px" y="0px"
	 width="50px" height="50px" viewBox="0 0 50 50" enable-background="new 0 0 50 50" xml:space="preserve">
<g>
	<path d="M22.5,24.346c4.801,0,8.691-1.557,8.691-3.477v-3.477c0-1.922-3.891-3.477-8.691-3.477s-8.691,1.555-8.691,3.477v3.477
		C13.809,22.789,17.699,24.346,22.5,24.346z M22.5,14.785c4.775,0,7.822,1.543,7.822,2.607c0,1.062-3.047,2.607-7.822,2.607
		s-7.822-1.545-7.822-2.607C14.678,16.328,17.725,14.785,22.5,14.785z"/>
	<path d="M22.5,29.561c1.037,0,2.027-0.076,2.949-0.209c0.745-2.467,3.036-4.268,5.742-4.268v-2.477c0,1.92-3.891,3.477-8.691,3.477
		s-8.691-1.557-8.691-3.477v3.477C13.809,28.005,17.699,29.561,22.5,29.561z"/>
	<path d="M22.5,31.299c-4.801,0-8.691-1.556-8.691-3.477v3.477c0,1.921,3.891,3.477,8.691,3.477c1.332,0,2.59-0.123,3.719-0.338
		c-0.641-0.947-1.017-2.086-1.025-3.311C24.345,31.237,23.441,31.299,22.5,31.299z"/>
	<path d="M31.191,26.084c-2.761,0-5,2.238-5,5s2.239,5,5,5s5-2.238,5-5S33.952,26.084,31.191,26.084z M30.139,33.565l-2.493-2.753
		l1.1-0.997l1.536,1.698l3.501-2.918l0.951,1.14L30.139,33.565z"/>
</g>
</svg>
