<?xml version="1.0" encoding="utf-8"?>
<!-- Generator: Adobe Illustrator 16.0.0, SVG Export Plug-In . SVG Version: 6.00 Build 0)  -->
<!DOCTYPE svg PUBLIC "-//W3C//DTD SVG 1.1//EN" "http://www.w3.org/Graphics/SVG/1.1/DTD/svg11.dtd">
<svg version="1.1" id="Layer_1" xmlns="http://www.w3.org/2000/svg" xmlns:xlink="http://www.w3.org/1999/xlink" x="0px" y="0px"
	 width="50px" height="50px" viewBox="0 0 50 50" enable-background="new 0 0 50 50" xml:space="preserve">
<g>
	<path d="M36.305,13.745H12.866c-1.348,0-2.451,1.103-2.451,2.451v15.608c0,1.348,1.104,2.451,2.451,2.451h10.72v2.088h-7.5l-1,1v1
		h19v-1l-1-1h-7.5v-2.088h10.719c1.349,0,2.451-1.103,2.451-2.451V16.196C38.756,14.848,37.653,13.745,36.305,13.745z
		 M36.892,14.871c0.059,0.026,0.113,0.058,0.167,0.091v0.36c0,0.055-0.029,0.083-0.084,0.083s-0.083-0.028-0.083-0.083V14.871z
		 M35.119,14.745h0.165v0.577c0,0.055-0.027,0.083-0.083,0.083c-0.055,0-0.082-0.028-0.082-0.083V14.745z M33.346,14.745h0.166
		v0.577c0,0.055-0.027,0.083-0.083,0.083s-0.083-0.028-0.083-0.083V14.745z M31.57,14.745h0.167v0.577
		c0,0.055-0.029,0.083-0.084,0.083c-0.056,0-0.083-0.028-0.083-0.083V14.745z M29.798,14.745h0.167v0.577
		c0,0.055-0.029,0.083-0.084,0.083s-0.083-0.028-0.083-0.083V14.745z M28.026,14.745h0.165v0.577c0,0.055-0.027,0.083-0.083,0.083
		s-0.082-0.028-0.082-0.083V14.745z M26.252,14.745h0.166v0.577c0,0.055-0.027,0.083-0.083,0.083c-0.055,0-0.083-0.028-0.083-0.083
		V14.745z M24.525,14.745h0.167v0.577c0,0.055-0.028,0.083-0.084,0.083s-0.083-0.028-0.083-0.083V14.745z M22.752,14.745h0.168
		v0.577c0,0.055-0.029,0.083-0.084,0.083s-0.084-0.028-0.084-0.083V14.745z M20.98,14.745h0.165v0.577
		c0,0.055-0.027,0.083-0.083,0.083s-0.082-0.028-0.082-0.083V14.745z M19.207,14.745h0.167v0.577c0,0.055-0.028,0.083-0.084,0.083
		c-0.055,0-0.083-0.028-0.083-0.083V14.745z M17.432,14.745h0.167v0.577c0,0.055-0.028,0.083-0.084,0.083s-0.083-0.028-0.083-0.083
		V14.745z M15.659,14.745h0.167v0.577c0,0.055-0.029,0.083-0.084,0.083s-0.083-0.028-0.083-0.083V14.745z M13.887,14.745h0.165
		v0.577c0,0.055-0.027,0.083-0.082,0.083c-0.056,0-0.083-0.028-0.083-0.083V14.745z M12.113,14.961
		c0.054-0.033,0.108-0.065,0.167-0.091v0.451c0,0.055-0.028,0.083-0.084,0.083c-0.055,0-0.083-0.028-0.083-0.083V14.961z
		 M14.052,30.244c0,0.008-0.011,0.005-0.012,0.012h-0.142c-0.001-0.007-0.012-0.004-0.012-0.012v-0.715
		c0-0.055,0.027-0.083,0.083-0.083c0.055,0,0.082,0.028,0.082,0.083V30.244z M21.146,30.244c0,0.008-0.011,0.005-0.012,0.012h-0.142
		c-0.001-0.007-0.012-0.004-0.012-0.012v-0.715c0-0.055,0.026-0.083,0.082-0.083s0.083,0.028,0.083,0.083V30.244z M28.191,30.244
		c0,0.008-0.011,0.005-0.012,0.012h-0.142c-0.001-0.007-0.012-0.004-0.012-0.012v-0.715c0-0.055,0.026-0.083,0.082-0.083
		s0.083,0.028,0.083,0.083V30.244z M35.284,30.244c0,0.008-0.011,0.005-0.012,0.012h-0.142c-0.001-0.007-0.012-0.004-0.012-0.012
		v-0.715c0-0.055,0.027-0.083,0.082-0.083c0.056,0,0.083,0.028,0.083,0.083V30.244z M37.756,28.804c0,0.519-0.275,0.971-0.686,1.228
		v-0.75h-0.192v0.855c-0.176,0.076-0.369,0.119-0.573,0.119h-0.844c0.003-0.015,0.017-0.022,0.017-0.039v-0.651
		c0-0.091-0.028-0.162-0.084-0.21c-0.056-0.049-0.12-0.074-0.192-0.074s-0.139,0.025-0.192,0.074
		c-0.056,0.048-0.082,0.119-0.082,0.21v0.651c0,0.017,0.014,0.024,0.016,0.039h-1.417v-0.974h-0.192v0.974h-1.584v-0.974h-0.191
		v0.974h-1.581v-0.974h-0.192v0.974h-1.417c0.003-0.015,0.017-0.022,0.017-0.039v-0.651c0-0.091-0.028-0.162-0.084-0.21
		c-0.056-0.049-0.119-0.074-0.191-0.074c-0.073,0-0.14,0.025-0.193,0.074c-0.056,0.048-0.082,0.119-0.082,0.21v0.651
		c0,0.017,0.014,0.024,0.016,0.039h-1.417v-0.974h-0.192v0.974h-1.535v-0.974h-0.19v0.974h-1.581v-0.974h-0.193v0.974h-1.417
		c0.002-0.015,0.016-0.022,0.016-0.039v-0.651c0-0.091-0.027-0.162-0.083-0.21c-0.056-0.049-0.12-0.074-0.192-0.074
		s-0.139,0.025-0.192,0.074c-0.055,0.048-0.082,0.119-0.082,0.21v0.651c0,0.017,0.014,0.024,0.016,0.039h-1.417v-0.974h-0.192v0.974
		H17.61v-0.974h-0.19v0.974h-1.581v-0.974h-0.192v0.974h-1.418c0.003-0.015,0.017-0.022,0.017-0.039v-0.651
		c0-0.091-0.028-0.162-0.084-0.21c-0.056-0.049-0.119-0.074-0.191-0.074c-0.073,0-0.14,0.025-0.193,0.074
		c-0.055,0.048-0.082,0.119-0.082,0.21v0.651c0,0.017,0.014,0.024,0.016,0.039h-0.844c-0.203,0-0.396-0.043-0.572-0.119v-0.855
		h-0.193v0.75c-0.41-0.257-0.686-0.709-0.686-1.228V16.196c0-0.438,0.199-0.826,0.506-1.092v0.19c0,0.085,0.028,0.152,0.082,0.201
		c0.056,0.049,0.119,0.074,0.193,0.074c0.073,0,0.137-0.024,0.192-0.074c0.056-0.049,0.083-0.116,0.083-0.201v-0.488
		c0.126-0.036,0.257-0.062,0.395-0.062h0.828v0.55c0,0.085,0.027,0.152,0.082,0.201c0.054,0.049,0.12,0.074,0.193,0.074
		c0.072,0,0.136-0.024,0.191-0.074c0.056-0.049,0.084-0.116,0.084-0.201v-0.55h1.222v0.55c0,0.085,0.028,0.152,0.083,0.201
		c0.054,0.049,0.119,0.074,0.192,0.074s0.137-0.024,0.192-0.074c0.056-0.049,0.083-0.116,0.083-0.201v-0.55h1.221v0.55
		c0,0.085,0.029,0.152,0.083,0.201c0.056,0.049,0.119,0.074,0.193,0.074c0.073,0,0.137-0.024,0.193-0.074
		c0.054-0.049,0.082-0.116,0.082-0.201v-0.55h1.225v0.55c0,0.085,0.028,0.152,0.082,0.201c0.055,0.049,0.119,0.074,0.193,0.074
		c0.072,0,0.137-0.024,0.192-0.074c0.055-0.049,0.083-0.116,0.083-0.201v-0.55h1.223v0.55c0,0.085,0.027,0.152,0.082,0.201
		c0.054,0.049,0.12,0.074,0.192,0.074s0.137-0.024,0.192-0.074c0.056-0.049,0.083-0.116,0.083-0.201v-0.55h1.223v0.55
		c0,0.085,0.028,0.152,0.083,0.201c0.054,0.049,0.119,0.074,0.192,0.074c0.072,0,0.137-0.024,0.191-0.074
		c0.057-0.049,0.084-0.116,0.084-0.201v-0.55h1.221v0.55c0,0.085,0.029,0.152,0.083,0.201c0.055,0.049,0.119,0.074,0.193,0.074
		c0.073,0,0.137-0.024,0.192-0.074c0.055-0.049,0.083-0.116,0.083-0.201v-0.55h1.176v0.55c0,0.085,0.028,0.152,0.082,0.201
		c0.056,0.049,0.12,0.074,0.193,0.074c0.072,0,0.138-0.024,0.192-0.074c0.055-0.049,0.084-0.116,0.084-0.201v-0.55h1.222v0.55
		c0,0.085,0.026,0.152,0.082,0.201c0.054,0.049,0.12,0.074,0.193,0.074c0.072,0,0.136-0.024,0.191-0.074
		c0.056-0.049,0.084-0.116,0.084-0.201v-0.55h1.223v0.55c0,0.085,0.026,0.152,0.082,0.201c0.054,0.049,0.119,0.074,0.192,0.074
		s0.137-0.024,0.192-0.074c0.055-0.049,0.083-0.116,0.083-0.201v-0.55h1.222v0.55c0,0.085,0.028,0.152,0.082,0.201
		c0.056,0.049,0.12,0.074,0.193,0.074c0.072,0,0.138-0.024,0.192-0.074c0.055-0.049,0.083-0.116,0.083-0.201v-0.55h1.225v0.55
		c0,0.085,0.028,0.152,0.082,0.201c0.056,0.049,0.119,0.074,0.193,0.074c0.072,0,0.137-0.024,0.192-0.074
		c0.055-0.049,0.083-0.116,0.083-0.201v-0.55h1.223v0.55c0,0.085,0.026,0.152,0.082,0.201c0.054,0.049,0.12,0.074,0.192,0.074
		s0.137-0.024,0.192-0.074c0.056-0.049,0.084-0.116,0.084-0.201v-0.55h0.827c0.138,0,0.269,0.025,0.395,0.062v0.488
		c0,0.085,0.027,0.152,0.083,0.201c0.054,0.049,0.119,0.074,0.192,0.074c0.072,0,0.137-0.024,0.192-0.074
		c0.055-0.049,0.083-0.116,0.083-0.201v-0.19c0.308,0.266,0.506,0.654,0.506,1.092V28.804z"/>
	<path d="M13.97,16.487c-0.073,0-0.14,0.025-0.193,0.074c-0.055,0.048-0.082,0.119-0.082,0.21v0.651
		c0,0.085,0.027,0.153,0.082,0.201c0.054,0.049,0.12,0.074,0.193,0.074c0.072,0,0.136-0.025,0.191-0.074
		c0.056-0.048,0.084-0.116,0.084-0.201v-0.651c0-0.091-0.028-0.162-0.084-0.21C14.105,16.512,14.042,16.487,13.97,16.487z
		 M14.052,17.449c0,0.055-0.027,0.083-0.082,0.083c-0.056,0-0.083-0.028-0.083-0.083v-0.714c0-0.056,0.027-0.083,0.083-0.083
		c0.055,0,0.082,0.028,0.082,0.083V17.449z"/>
	<rect x="12.101" y="16.487" width="0.193" height="1.21"/>
	<rect x="15.646" y="16.487" width="0.192" height="1.21"/>
	<rect x="17.42" y="16.487" width="0.19" height="1.21"/>
	<rect x="13.873" y="18.68" width="0.192" height="1.21"/>
	<path d="M13.97,20.807c-0.073,0-0.14,0.025-0.193,0.074c-0.055,0.049-0.082,0.119-0.082,0.21v0.651
		c0,0.085,0.027,0.153,0.082,0.202c0.054,0.049,0.12,0.074,0.193,0.074c0.072,0,0.136-0.024,0.191-0.074
		c0.056-0.049,0.084-0.117,0.084-0.202v-0.651c0-0.091-0.028-0.161-0.084-0.21C14.105,20.832,14.042,20.807,13.97,20.807z
		 M14.052,21.77c0,0.055-0.027,0.083-0.082,0.083c-0.056,0-0.083-0.028-0.083-0.083v-0.715c0-0.055,0.027-0.083,0.083-0.083
		c0.055,0,0.082,0.028,0.082,0.083V21.77z"/>
	<path d="M13.97,22.935c-0.073,0-0.14,0.024-0.193,0.073c-0.055,0.049-0.082,0.119-0.082,0.21v0.651
		c0,0.084,0.027,0.152,0.082,0.201c0.054,0.049,0.12,0.074,0.193,0.074c0.072,0,0.136-0.025,0.191-0.074
		c0.056-0.049,0.084-0.117,0.084-0.201v-0.651c0-0.091-0.028-0.162-0.084-0.21S14.042,22.935,13.97,22.935z M14.052,23.897
		c0,0.055-0.027,0.083-0.082,0.083c-0.056,0-0.083-0.028-0.083-0.083v-0.715c0-0.055,0.027-0.083,0.083-0.083
		c0.055,0,0.082,0.028,0.082,0.083V23.897z"/>
	<path d="M12.196,18.68c-0.074,0-0.138,0.024-0.193,0.074c-0.054,0.049-0.082,0.119-0.082,0.21v0.65
		c0,0.085,0.028,0.153,0.082,0.202c0.056,0.049,0.119,0.074,0.193,0.074c0.073,0,0.137-0.025,0.192-0.074
		c0.056-0.049,0.083-0.117,0.083-0.202v-0.65c0-0.092-0.027-0.162-0.083-0.21C12.333,18.705,12.27,18.68,12.196,18.68z
		 M12.28,19.643c0,0.055-0.028,0.083-0.084,0.083c-0.055,0-0.083-0.028-0.083-0.083v-0.715c0-0.056,0.028-0.083,0.083-0.083
		c0.056,0,0.084,0.027,0.084,0.083V19.643z"/>
	<path d="M12.196,20.807c-0.074,0-0.138,0.025-0.193,0.074c-0.054,0.049-0.082,0.119-0.082,0.21v0.651
		c0,0.085,0.028,0.153,0.082,0.202c0.056,0.049,0.119,0.074,0.193,0.074c0.073,0,0.137-0.024,0.192-0.074
		c0.056-0.049,0.083-0.117,0.083-0.202v-0.651c0-0.091-0.027-0.161-0.083-0.21C12.333,20.832,12.27,20.807,12.196,20.807z
		 M12.28,21.77c0,0.055-0.028,0.083-0.084,0.083c-0.055,0-0.083-0.028-0.083-0.083v-0.715c0-0.055,0.028-0.083,0.083-0.083
		c0.056,0,0.084,0.028,0.084,0.083V21.77z"/>
	<rect x="12.101" y="22.935" width="0.193" height="1.21"/>
	<path d="M15.742,18.68c-0.073,0-0.139,0.024-0.192,0.074c-0.055,0.049-0.083,0.119-0.083,0.21v0.65
		c0,0.085,0.028,0.153,0.083,0.202c0.054,0.049,0.119,0.074,0.192,0.074s0.137-0.025,0.192-0.074
		c0.056-0.049,0.083-0.117,0.083-0.202v-0.65c0-0.092-0.027-0.162-0.083-0.21C15.879,18.705,15.815,18.68,15.742,18.68z
		 M15.826,19.643c0,0.055-0.029,0.083-0.084,0.083s-0.083-0.028-0.083-0.083v-0.715c0-0.056,0.028-0.083,0.083-0.083
		s0.084,0.027,0.084,0.083V19.643z"/>
	<path d="M15.742,20.807c-0.073,0-0.139,0.025-0.192,0.074c-0.055,0.049-0.083,0.119-0.083,0.21v0.651
		c0,0.085,0.028,0.153,0.083,0.202c0.054,0.049,0.119,0.074,0.192,0.074s0.137-0.024,0.192-0.074
		c0.056-0.049,0.083-0.117,0.083-0.202v-0.651c0-0.091-0.027-0.161-0.083-0.21C15.879,20.832,15.815,20.807,15.742,20.807z
		 M15.826,21.77c0,0.055-0.029,0.083-0.084,0.083s-0.083-0.028-0.083-0.083v-0.715c0-0.055,0.028-0.083,0.083-0.083
		s0.084,0.028,0.084,0.083V21.77z"/>
	<rect x="15.646" y="22.935" width="0.192" height="1.21"/>
	<path d="M17.515,18.68c-0.074,0-0.138,0.024-0.193,0.074c-0.054,0.049-0.083,0.119-0.083,0.21v0.65
		c0,0.085,0.029,0.153,0.083,0.202c0.056,0.049,0.119,0.074,0.193,0.074c0.073,0,0.137-0.025,0.193-0.074
		c0.054-0.049,0.082-0.117,0.082-0.202v-0.65c0-0.092-0.028-0.162-0.082-0.21C17.651,18.705,17.588,18.68,17.515,18.68z
		 M17.599,19.643c0,0.055-0.028,0.083-0.084,0.083s-0.083-0.028-0.083-0.083v-0.715c0-0.056,0.027-0.083,0.083-0.083
		s0.084,0.027,0.084,0.083V19.643z"/>
	<rect x="17.42" y="22.935" width="0.19" height="1.21"/>
	<rect x="19.194" y="16.487" width="0.192" height="1.21"/>
	<path d="M28.108,17.697c0.072,0,0.136-0.025,0.191-0.074c0.056-0.048,0.084-0.116,0.084-0.201v-0.651
		c0-0.091-0.028-0.162-0.084-0.21c-0.056-0.049-0.119-0.074-0.191-0.074c-0.073,0-0.14,0.025-0.193,0.074
		c-0.056,0.048-0.082,0.119-0.082,0.21v0.651c0,0.085,0.026,0.153,0.082,0.201C27.969,17.672,28.035,17.697,28.108,17.697z
		 M28.026,16.735c0-0.056,0.026-0.083,0.082-0.083s0.083,0.028,0.083,0.083v0.714c0,0.055-0.027,0.083-0.083,0.083
		s-0.082-0.028-0.082-0.083V16.735z"/>
	<rect x="29.784" y="16.487" width="0.192" height="1.21"/>
	<rect x="31.558" y="16.487" width="0.191" height="1.21"/>
	<path d="M31.653,18.68c-0.073,0-0.138,0.024-0.193,0.074c-0.054,0.049-0.082,0.119-0.082,0.21v0.65
		c0,0.085,0.028,0.153,0.082,0.202c0.056,0.049,0.12,0.074,0.193,0.074c0.072,0,0.138-0.025,0.192-0.074
		c0.055-0.049,0.083-0.117,0.083-0.202v-0.65c0-0.092-0.028-0.162-0.083-0.21C31.791,18.705,31.726,18.68,31.653,18.68z
		 M31.737,19.643c0,0.055-0.029,0.083-0.084,0.083c-0.056,0-0.083-0.028-0.083-0.083v-0.715c0-0.056,0.027-0.083,0.083-0.083
		c0.055,0,0.084,0.027,0.084,0.083V19.643z"/>
	<path d="M31.653,20.807c-0.073,0-0.138,0.025-0.193,0.074c-0.054,0.049-0.082,0.119-0.082,0.21v0.651
		c0,0.085,0.028,0.153,0.082,0.202c0.056,0.049,0.12,0.074,0.193,0.074c0.072,0,0.138-0.024,0.192-0.074
		c0.055-0.049,0.083-0.117,0.083-0.202v-0.651c0-0.091-0.028-0.161-0.083-0.21C31.791,20.832,31.726,20.807,31.653,20.807z
		 M31.737,21.77c0,0.055-0.029,0.083-0.084,0.083c-0.056,0-0.083-0.028-0.083-0.083v-0.715c0-0.055,0.027-0.083,0.083-0.083
		c0.055,0,0.084,0.028,0.084,0.083V21.77z"/>
	<rect x="31.558" y="22.935" width="0.191" height="1.21"/>
	<path d="M35.201,16.487c-0.072,0-0.139,0.025-0.192,0.074c-0.056,0.048-0.082,0.119-0.082,0.21v0.651
		c0,0.085,0.026,0.153,0.082,0.201c0.054,0.049,0.12,0.074,0.192,0.074s0.137-0.025,0.192-0.074
		c0.056-0.048,0.084-0.116,0.084-0.201v-0.651c0-0.091-0.028-0.162-0.084-0.21C35.338,16.512,35.273,16.487,35.201,16.487z
		 M35.284,17.449c0,0.055-0.027,0.083-0.083,0.083c-0.055,0-0.082-0.028-0.082-0.083v-0.714c0-0.056,0.027-0.083,0.082-0.083
		c0.056,0,0.083,0.028,0.083,0.083V17.449z"/>
	<rect x="33.333" y="16.487" width="0.192" height="1.21"/>
	<rect x="36.878" y="16.487" width="0.192" height="1.21"/>
	<rect x="35.105" y="18.68" width="0.191" height="1.21"/>
	<path d="M35.201,20.807c-0.072,0-0.139,0.025-0.192,0.074c-0.056,0.049-0.082,0.119-0.082,0.21v0.651
		c0,0.085,0.026,0.153,0.082,0.202c0.054,0.049,0.12,0.074,0.192,0.074s0.137-0.024,0.192-0.074
		c0.056-0.049,0.084-0.117,0.084-0.202v-0.651c0-0.091-0.028-0.161-0.084-0.21C35.338,20.832,35.273,20.807,35.201,20.807z
		 M35.284,21.77c0,0.055-0.027,0.083-0.083,0.083c-0.055,0-0.082-0.028-0.082-0.083v-0.715c0-0.055,0.027-0.083,0.082-0.083
		c0.056,0,0.083,0.028,0.083,0.083V21.77z"/>
	<path d="M35.201,22.935c-0.072,0-0.139,0.024-0.192,0.073c-0.056,0.049-0.082,0.119-0.082,0.21v0.651
		c0,0.084,0.026,0.152,0.082,0.201c0.054,0.049,0.12,0.074,0.192,0.074s0.137-0.025,0.192-0.074
		c0.056-0.049,0.084-0.117,0.084-0.201v-0.651c0-0.091-0.028-0.162-0.084-0.21S35.273,22.935,35.201,22.935z M35.284,23.897
		c0,0.055-0.027,0.083-0.083,0.083c-0.055,0-0.082-0.028-0.082-0.083v-0.715c0-0.055,0.027-0.083,0.082-0.083
		c0.056,0,0.083,0.028,0.083,0.083V23.897z"/>
	<path d="M33.429,18.68c-0.074,0-0.138,0.024-0.193,0.074c-0.054,0.049-0.082,0.119-0.082,0.21v0.65
		c0,0.085,0.028,0.153,0.082,0.202c0.056,0.049,0.119,0.074,0.193,0.074c0.072,0,0.137-0.025,0.192-0.074
		c0.055-0.049,0.083-0.117,0.083-0.202v-0.65c0-0.092-0.028-0.162-0.083-0.21C33.565,18.705,33.501,18.68,33.429,18.68z
		 M33.512,19.643c0,0.055-0.027,0.083-0.083,0.083s-0.083-0.028-0.083-0.083v-0.715c0-0.056,0.027-0.083,0.083-0.083
		s0.083,0.027,0.083,0.083V19.643z"/>
	<path d="M33.429,20.807c-0.074,0-0.138,0.025-0.193,0.074c-0.054,0.049-0.082,0.119-0.082,0.21v0.651
		c0,0.085,0.028,0.153,0.082,0.202c0.056,0.049,0.119,0.074,0.193,0.074c0.072,0,0.137-0.024,0.192-0.074
		c0.055-0.049,0.083-0.117,0.083-0.202v-0.651c0-0.091-0.028-0.161-0.083-0.21C33.565,20.832,33.501,20.807,33.429,20.807z
		 M33.512,21.77c0,0.055-0.027,0.083-0.083,0.083s-0.083-0.028-0.083-0.083v-0.715c0-0.055,0.027-0.083,0.083-0.083
		s0.083,0.028,0.083,0.083V21.77z"/>
	<rect x="33.333" y="22.935" width="0.192" height="1.21"/>
	<path d="M36.975,18.68c-0.073,0-0.139,0.024-0.192,0.074c-0.056,0.049-0.083,0.119-0.083,0.21v0.65
		c0,0.085,0.027,0.153,0.083,0.202c0.054,0.049,0.119,0.074,0.192,0.074c0.072,0,0.137-0.025,0.192-0.074
		c0.055-0.049,0.083-0.117,0.083-0.202v-0.65c0-0.092-0.028-0.162-0.083-0.21C37.111,18.705,37.047,18.68,36.975,18.68z
		 M37.059,19.643c0,0.055-0.029,0.083-0.084,0.083s-0.083-0.028-0.083-0.083v-0.715c0-0.056,0.028-0.083,0.083-0.083
		s0.084,0.027,0.084,0.083V19.643z"/>
	<path d="M36.975,20.807c-0.073,0-0.139,0.025-0.192,0.074c-0.056,0.049-0.083,0.119-0.083,0.21v0.651
		c0,0.085,0.027,0.153,0.083,0.202c0.054,0.049,0.119,0.074,0.192,0.074c0.072,0,0.137-0.024,0.192-0.074
		c0.055-0.049,0.083-0.117,0.083-0.202v-0.651c0-0.091-0.028-0.161-0.083-0.21C37.111,20.832,37.047,20.807,36.975,20.807z
		 M37.059,21.77c0,0.055-0.029,0.083-0.084,0.083s-0.083-0.028-0.083-0.083v-0.715c0-0.055,0.028-0.083,0.083-0.083
		s0.084,0.028,0.084,0.083V21.77z"/>
	<rect x="36.878" y="22.935" width="0.192" height="1.21"/>
	<rect x="13.873" y="25.026" width="0.192" height="1.21"/>
	<path d="M13.97,27.154c-0.073,0-0.14,0.025-0.193,0.074c-0.055,0.049-0.082,0.119-0.082,0.21v0.651
		c0,0.085,0.027,0.153,0.082,0.202c0.054,0.049,0.12,0.073,0.193,0.073c0.072,0,0.136-0.024,0.191-0.073
		c0.056-0.049,0.084-0.117,0.084-0.202v-0.651c0-0.091-0.028-0.161-0.084-0.21S14.042,27.154,13.97,27.154z M14.052,28.116
		c0,0.056-0.027,0.083-0.082,0.083c-0.056,0-0.083-0.028-0.083-0.083v-0.715c0-0.055,0.027-0.083,0.083-0.083
		c0.055,0,0.082,0.027,0.082,0.083V28.116z"/>
	<path d="M12.196,25.026c-0.074,0-0.138,0.025-0.193,0.074c-0.054,0.049-0.082,0.119-0.082,0.211v0.65
		c0,0.086,0.028,0.153,0.082,0.202c0.056,0.049,0.119,0.074,0.193,0.074c0.073,0,0.137-0.025,0.192-0.074s0.083-0.116,0.083-0.202
		v-0.65c0-0.092-0.027-0.162-0.083-0.211S12.27,25.026,12.196,25.026z M12.28,25.989c0,0.056-0.028,0.083-0.084,0.083
		c-0.055,0-0.083-0.028-0.083-0.083v-0.715c0-0.055,0.028-0.083,0.083-0.083c0.056,0,0.084,0.028,0.084,0.083V25.989z"/>
	<path d="M12.196,27.154c-0.074,0-0.138,0.025-0.193,0.074c-0.054,0.049-0.082,0.119-0.082,0.21v0.651
		c0,0.085,0.028,0.153,0.082,0.202c0.056,0.049,0.119,0.073,0.193,0.073c0.073,0,0.137-0.024,0.192-0.073
		c0.056-0.049,0.083-0.117,0.083-0.202v-0.651c0-0.091-0.027-0.161-0.083-0.21S12.27,27.154,12.196,27.154z M12.28,28.116
		c0,0.056-0.028,0.083-0.084,0.083c-0.055,0-0.083-0.028-0.083-0.083v-0.715c0-0.055,0.028-0.083,0.083-0.083
		c0.056,0,0.084,0.027,0.084,0.083V28.116z"/>
	<path d="M15.742,25.026c-0.073,0-0.139,0.025-0.192,0.074c-0.055,0.049-0.083,0.119-0.083,0.211v0.65
		c0,0.086,0.028,0.153,0.083,0.202c0.054,0.049,0.119,0.074,0.192,0.074s0.137-0.025,0.192-0.074s0.083-0.116,0.083-0.202v-0.65
		c0-0.092-0.027-0.162-0.083-0.211S15.815,25.026,15.742,25.026z M15.826,25.989c0,0.056-0.029,0.083-0.084,0.083
		s-0.083-0.028-0.083-0.083v-0.715c0-0.055,0.028-0.083,0.083-0.083s0.084,0.028,0.084,0.083V25.989z"/>
	<path d="M15.742,27.154c-0.073,0-0.139,0.025-0.192,0.074c-0.055,0.049-0.083,0.119-0.083,0.21v0.651
		c0,0.085,0.028,0.153,0.083,0.202c0.054,0.049,0.119,0.073,0.192,0.073s0.137-0.024,0.192-0.073
		c0.056-0.049,0.083-0.117,0.083-0.202v-0.651c0-0.091-0.027-0.161-0.083-0.21S15.815,27.154,15.742,27.154z M15.826,28.116
		c0,0.056-0.029,0.083-0.084,0.083s-0.083-0.028-0.083-0.083v-0.715c0-0.055,0.028-0.083,0.083-0.083s0.084,0.027,0.084,0.083
		V28.116z"/>
	<path d="M17.515,25.026c-0.074,0-0.138,0.025-0.193,0.074c-0.054,0.049-0.083,0.119-0.083,0.211v0.65
		c0,0.086,0.029,0.153,0.083,0.202c0.056,0.049,0.119,0.074,0.193,0.074c0.073,0,0.137-0.025,0.193-0.074
		c0.054-0.049,0.082-0.116,0.082-0.202v-0.65c0-0.092-0.028-0.162-0.082-0.211C17.651,25.051,17.588,25.026,17.515,25.026z
		 M17.599,25.989c0,0.056-0.028,0.083-0.084,0.083s-0.083-0.028-0.083-0.083v-0.715c0-0.055,0.027-0.083,0.083-0.083
		s0.084,0.028,0.084,0.083V25.989z"/>
	<path d="M17.515,27.154c-0.074,0-0.138,0.025-0.193,0.074c-0.054,0.049-0.083,0.119-0.083,0.21v0.651
		c0,0.085,0.029,0.153,0.083,0.202c0.056,0.049,0.119,0.073,0.193,0.073c0.073,0,0.137-0.024,0.193-0.073
		c0.054-0.049,0.082-0.117,0.082-0.202v-0.651c0-0.091-0.028-0.161-0.082-0.21C17.651,27.179,17.588,27.154,17.515,27.154z
		 M17.599,28.116c0,0.056-0.028,0.083-0.084,0.083s-0.083-0.028-0.083-0.083v-0.715c0-0.055,0.027-0.083,0.083-0.083
		s0.084,0.027,0.084,0.083V28.116z"/>
	<path d="M19.29,27.154c-0.074,0-0.139,0.025-0.193,0.074c-0.054,0.049-0.082,0.119-0.082,0.21v0.651
		c0,0.085,0.028,0.153,0.082,0.202c0.055,0.049,0.119,0.073,0.193,0.073c0.072,0,0.137-0.024,0.192-0.073
		c0.055-0.049,0.083-0.117,0.083-0.202v-0.651c0-0.091-0.028-0.161-0.083-0.21C19.427,27.179,19.362,27.154,19.29,27.154z
		 M19.374,28.116c0,0.056-0.028,0.083-0.084,0.083c-0.055,0-0.083-0.028-0.083-0.083v-0.715c0-0.055,0.028-0.083,0.083-0.083
		c0.056,0,0.084,0.027,0.084,0.083V28.116z"/>
	<path d="M28.191,28.116c0,0.056-0.027,0.083-0.083,0.083s-0.082-0.028-0.082-0.083v-0.271c-0.062,0.043-0.129,0.081-0.193,0.122
		v0.122c0,0.085,0.026,0.153,0.082,0.202c0.054,0.049,0.12,0.073,0.193,0.073c0.072,0,0.136-0.024,0.191-0.073
		c0.056-0.049,0.084-0.117,0.084-0.202v-0.511c-0.062,0.05-0.128,0.096-0.192,0.144V28.116z"/>
	<path d="M29.881,27.154c-0.073,0-0.139,0.025-0.192,0.074c-0.056,0.049-0.082,0.119-0.082,0.21v0.651
		c0,0.085,0.026,0.153,0.082,0.202c0.054,0.049,0.119,0.073,0.192,0.073s0.137-0.024,0.192-0.073
		c0.055-0.049,0.083-0.117,0.083-0.202v-0.651c0-0.091-0.028-0.161-0.083-0.21C30.018,27.179,29.954,27.154,29.881,27.154z
		 M29.965,28.116c0,0.056-0.029,0.083-0.084,0.083s-0.083-0.028-0.083-0.083v-0.715c0-0.055,0.028-0.083,0.083-0.083
		s0.084,0.027,0.084,0.083V28.116z"/>
	<path d="M31.653,25.026c-0.073,0-0.138,0.025-0.193,0.074c-0.054,0.049-0.082,0.119-0.082,0.211v0.65
		c0,0.086,0.028,0.153,0.082,0.202c0.056,0.049,0.12,0.074,0.193,0.074c0.072,0,0.138-0.025,0.192-0.074s0.083-0.116,0.083-0.202
		v-0.65c0-0.092-0.028-0.162-0.083-0.211S31.726,25.026,31.653,25.026z M31.737,25.989c0,0.056-0.029,0.083-0.084,0.083
		c-0.056,0-0.083-0.028-0.083-0.083v-0.715c0-0.055,0.027-0.083,0.083-0.083c0.055,0,0.084,0.028,0.084,0.083V25.989z"/>
	<path d="M31.653,27.154c-0.073,0-0.138,0.025-0.193,0.074c-0.054,0.049-0.082,0.119-0.082,0.21v0.651
		c0,0.085,0.028,0.153,0.082,0.202c0.056,0.049,0.12,0.073,0.193,0.073c0.072,0,0.138-0.024,0.192-0.073
		c0.055-0.049,0.083-0.117,0.083-0.202v-0.651c0-0.091-0.028-0.161-0.083-0.21S31.726,27.154,31.653,27.154z M31.737,28.116
		c0,0.056-0.029,0.083-0.084,0.083c-0.056,0-0.083-0.028-0.083-0.083v-0.715c0-0.055,0.027-0.083,0.083-0.083
		c0.055,0,0.084,0.027,0.084,0.083V28.116z"/>
	<rect x="35.105" y="25.026" width="0.191" height="1.21"/>
	<path d="M35.201,27.154c-0.072,0-0.139,0.025-0.192,0.074c-0.056,0.049-0.082,0.119-0.082,0.21v0.651
		c0,0.085,0.026,0.153,0.082,0.202c0.054,0.049,0.12,0.073,0.192,0.073s0.137-0.024,0.192-0.073
		c0.056-0.049,0.084-0.117,0.084-0.202v-0.651c0-0.091-0.028-0.161-0.084-0.21S35.273,27.154,35.201,27.154z M35.284,28.116
		c0,0.056-0.027,0.083-0.083,0.083c-0.055,0-0.082-0.028-0.082-0.083v-0.715c0-0.055,0.027-0.083,0.082-0.083
		c0.056,0,0.083,0.027,0.083,0.083V28.116z"/>
	<path d="M33.429,25.026c-0.074,0-0.138,0.025-0.193,0.074c-0.054,0.049-0.082,0.119-0.082,0.211v0.65
		c0,0.086,0.028,0.153,0.082,0.202c0.056,0.049,0.119,0.074,0.193,0.074c0.072,0,0.137-0.025,0.192-0.074
		c0.055-0.049,0.083-0.116,0.083-0.202v-0.65c0-0.092-0.028-0.162-0.083-0.211C33.565,25.051,33.501,25.026,33.429,25.026z
		 M33.512,25.989c0,0.056-0.027,0.083-0.083,0.083s-0.083-0.028-0.083-0.083v-0.715c0-0.055,0.027-0.083,0.083-0.083
		s0.083,0.028,0.083,0.083V25.989z"/>
	<path d="M33.429,27.154c-0.074,0-0.138,0.025-0.193,0.074c-0.054,0.049-0.082,0.119-0.082,0.21v0.651
		c0,0.085,0.028,0.153,0.082,0.202c0.056,0.049,0.119,0.073,0.193,0.073c0.072,0,0.137-0.024,0.192-0.073
		c0.055-0.049,0.083-0.117,0.083-0.202v-0.651c0-0.091-0.028-0.161-0.083-0.21C33.565,27.179,33.501,27.154,33.429,27.154z
		 M33.512,28.116c0,0.056-0.027,0.083-0.083,0.083s-0.083-0.028-0.083-0.083v-0.715c0-0.055,0.027-0.083,0.083-0.083
		s0.083,0.027,0.083,0.083V28.116z"/>
	<path d="M36.975,25.026c-0.073,0-0.139,0.025-0.192,0.074c-0.056,0.049-0.083,0.119-0.083,0.211v0.65
		c0,0.086,0.027,0.153,0.083,0.202c0.054,0.049,0.119,0.074,0.192,0.074c0.072,0,0.137-0.025,0.192-0.074
		c0.055-0.049,0.083-0.116,0.083-0.202v-0.65c0-0.092-0.028-0.162-0.083-0.211C37.111,25.051,37.047,25.026,36.975,25.026z
		 M37.059,25.989c0,0.056-0.029,0.083-0.084,0.083s-0.083-0.028-0.083-0.083v-0.715c0-0.055,0.028-0.083,0.083-0.083
		s0.084,0.028,0.084,0.083V25.989z"/>
	<path d="M36.975,27.154c-0.073,0-0.139,0.025-0.192,0.074c-0.056,0.049-0.083,0.119-0.083,0.21v0.651
		c0,0.085,0.027,0.153,0.083,0.202c0.054,0.049,0.119,0.073,0.192,0.073c0.072,0,0.137-0.024,0.192-0.073
		c0.055-0.049,0.083-0.117,0.083-0.202v-0.651c0-0.091-0.028-0.161-0.083-0.21C37.111,27.179,37.047,27.154,36.975,27.154z
		 M37.059,28.116c0,0.056-0.029,0.083-0.084,0.083s-0.083-0.028-0.083-0.083v-0.715c0-0.055,0.028-0.083,0.083-0.083
		s0.084,0.027,0.084,0.083V28.116z"/>
	<path d="M29.881,18.68c-0.073,0-0.139,0.024-0.192,0.074c-0.056,0.049-0.082,0.119-0.082,0.21v0.389
		c0.115,0.167,0.224,0.34,0.322,0.519c0.052-0.009,0.103-0.019,0.145-0.056c0.055-0.049,0.083-0.117,0.083-0.202v-0.65
		c0-0.092-0.028-0.162-0.083-0.21C30.018,18.705,29.954,18.68,29.881,18.68z M29.965,19.643c0,0.055-0.029,0.083-0.084,0.083
		s-0.083-0.028-0.083-0.083v-0.715c0-0.056,0.028-0.083,0.083-0.083s0.084,0.027,0.084,0.083V19.643z"/>
	<path d="M19.021,25.297c-0.001,0.006-0.006,0.008-0.006,0.014v0.65c0,0.086,0.028,0.153,0.082,0.202
		c0.055,0.049,0.119,0.074,0.193,0.074c0.072,0,0.137-0.025,0.192-0.074c0.003-0.003,0.002-0.009,0.005-0.012
		c-0.04-0.061-0.075-0.124-0.113-0.186v0.023c0,0.056-0.028,0.083-0.084,0.083c-0.055,0-0.083-0.028-0.083-0.083v-0.305
		C19.14,25.558,19.079,25.428,19.021,25.297z"/>
	<path d="M21.146,28.116c0,0.056-0.027,0.083-0.083,0.083s-0.082-0.028-0.082-0.083v-0.395c-0.064-0.048-0.13-0.094-0.192-0.144
		v0.511c0,0.085,0.027,0.153,0.082,0.202c0.054,0.049,0.12,0.073,0.192,0.073s0.137-0.024,0.192-0.073
		c0.056-0.049,0.083-0.117,0.083-0.202v-0.123c-0.064-0.041-0.13-0.079-0.192-0.121V28.116z"/>
	<path d="M17.485,22.006v-0.183c-0.023-0.013-0.054-0.018-0.054-0.054v-0.715c0-0.055,0.027-0.083,0.083-0.083
		c0.021,0,0.018,0.023,0.03,0.03c0.008-0.058,0.018-0.116,0.027-0.173c-0.021-0.004-0.036-0.022-0.058-0.022
		c-0.074,0-0.138,0.025-0.193,0.074c-0.054,0.049-0.083,0.119-0.083,0.21v0.651c0,0.085,0.029,0.153,0.083,0.202
		C17.368,21.986,17.425,22,17.485,22.006z"/>
	<path d="M24.586,17.336v5.475H19.11c0,3.024,2.451,5.476,5.476,5.476s5.476-2.451,5.476-5.476
		C30.062,19.787,27.61,17.336,24.586,17.336z"/>
	<path d="M23.586,16.336c-3.024,0-5.476,2.451-5.476,5.475h5.476V16.336z"/>
</g>
</svg>
