<?xml version="1.0" encoding="utf-8"?>
<!-- Generator: Adobe Illustrator 16.0.0, SVG Export Plug-In . SVG Version: 6.00 Build 0)  -->
<!DOCTYPE svg PUBLIC "-//W3C//DTD SVG 1.1//EN" "http://www.w3.org/Graphics/SVG/1.1/DTD/svg11.dtd">
<svg version="1.1" id="Layer_1" xmlns="http://www.w3.org/2000/svg" xmlns:xlink="http://www.w3.org/1999/xlink" x="0px" y="0px"
	 width="50px" height="50px" viewBox="0 0 50 50" enable-background="new 0 0 50 50" xml:space="preserve">
<g>
	<path d="M36.719,12.7H13.281c-1.348,0-2.451,1.104-2.451,2.451v15.609c0,1.348,1.104,2.451,2.451,2.451H24V35.3h-7.5l-1,1v1h19v-1
		l-1-1H26v-2.088h10.719c1.35,0,2.451-1.104,2.451-2.451V15.151C39.17,13.804,38.068,12.7,36.719,12.7z M38.17,27.761
		c0,0.8-0.65,1.451-1.451,1.451H13.281c-0.801,0-1.451-0.651-1.451-1.451V15.151c0-0.8,0.65-1.451,1.451-1.451h23.438
		c0.801,0,1.451,0.651,1.451,1.451V27.761z"/>
	<path d="M29.789,19.749c0.438-0.254,0.589-0.813,0.335-1.252c-0.252-0.438-0.813-0.588-1.251-0.335
		c-0.363,0.209-0.513,0.625-0.417,1.01l-3.206,1.852v-3.7c0.382-0.11,0.667-0.448,0.667-0.866c0-0.506-0.41-0.917-0.916-0.917
		c-0.507,0-0.917,0.41-0.917,0.917c0,0.417,0.284,0.755,0.666,0.866v3.701l-3.205-1.851c0.095-0.386-0.055-0.802-0.417-1.011
		c-0.438-0.253-0.999-0.103-1.252,0.335s-0.103,0.999,0.335,1.252c0.361,0.209,0.797,0.131,1.083-0.144l3.205,1.851l-3.203,1.85
		c-0.286-0.275-0.722-0.354-1.083-0.145c-0.439,0.253-0.59,0.813-0.336,1.252c0.253,0.438,0.814,0.588,1.252,0.335
		c0.361-0.208,0.512-0.625,0.417-1.009l3.204-1.85v3.701c-0.382,0.111-0.666,0.448-0.666,0.866c0,0.506,0.41,0.917,0.917,0.917
		c0.506,0,0.916-0.41,0.916-0.917c0-0.418-0.285-0.756-0.667-0.866v-3.701l3.205,1.85c-0.096,0.386,0.055,0.801,0.416,1.01
		c0.439,0.253,0.999,0.104,1.252-0.336c0.254-0.438,0.104-0.998-0.335-1.251c-0.362-0.209-0.798-0.131-1.083,0.145l-3.205-1.85
		l3.206-1.852C28.992,19.88,29.428,19.958,29.789,19.749z"/>
</g>
</svg>
