<?xml version="1.0" encoding="utf-8"?>
<!-- Generator: Adobe Illustrator 16.0.0, SVG Export Plug-In . SVG Version: 6.00 Build 0)  -->
<!DOCTYPE svg PUBLIC "-//W3C//DTD SVG 1.1//EN" "http://www.w3.org/Graphics/SVG/1.1/DTD/svg11.dtd">
<svg version="1.1" id="Layer_1" xmlns="http://www.w3.org/2000/svg" xmlns:xlink="http://www.w3.org/1999/xlink" x="0px" y="0px"
	 width="50px" height="50px" viewBox="0 0 50 50" enable-background="new 0 0 50 50" xml:space="preserve">
<g>
	<path d="M36.325,13.745H12.887c-1.349,0-2.451,1.103-2.451,2.451v15.608c0,1.348,1.103,2.451,2.451,2.451h10.719v2.088h-7.5l-1,1v1
		h19v-1l-1-1h-7.5v-2.088h10.719c1.349,0,2.451-1.103,2.451-2.451V16.196C38.776,14.848,37.674,13.745,36.325,13.745z
		 M37.776,28.804c0,0.8-0.651,1.451-1.451,1.451H12.887c-0.8,0-1.451-0.651-1.451-1.451V16.196c0-0.8,0.651-1.451,1.451-1.451
		h23.438c0.8,0,1.451,0.651,1.451,1.451V28.804z"/>
	<path d="M28.425,19.833l-0.802,0.296c-0.111,0.041-0.246,0.023-0.299-0.04c-0.054-0.063-0.166-0.306-0.117-0.413l0.357-0.776
		c0.05-0.107,0.002-0.235-0.105-0.285l-1.752-0.808c-0.107-0.049-0.235-0.002-0.285,0.105l-0.358,0.776
		c-0.049,0.107-0.157,0.191-0.239,0.186c-0.082-0.005-0.334-0.097-0.375-0.208l-0.296-0.803c-0.041-0.111-0.165-0.167-0.276-0.127
		l-1.812,0.668c-0.111,0.041-0.168,0.165-0.127,0.276l0.296,0.803c0.042,0.111,0.023,0.246-0.04,0.299
		c-0.062,0.054-0.305,0.166-0.412,0.117l-0.775-0.358c-0.107-0.049-0.235-0.002-0.285,0.105l-0.809,1.754
		c-0.05,0.107-0.002,0.235,0.105,0.285l0.775,0.357c0.107,0.049,0.191,0.157,0.186,0.238c-0.005,0.082-0.097,0.334-0.208,0.375
		l-0.803,0.296c-0.111,0.041-0.167,0.165-0.127,0.275l0.668,1.813c0.041,0.11,0.165,0.167,0.275,0.127l0.803-0.297
		c0.111-0.041,0.246-0.023,0.299,0.04c0.054,0.062,0.166,0.305,0.117,0.413l-0.358,0.774c-0.049,0.107-0.002,0.235,0.104,0.285
		l1.755,0.809c0.107,0.049,0.236,0.002,0.285-0.105l0.357-0.775c0.049-0.107,0.157-0.19,0.239-0.186
		c0.082,0.005,0.333,0.097,0.374,0.208l0.296,0.802c0.041,0.111,0.165,0.168,0.275,0.127l1.812-0.668
		c0.111-0.041,0.168-0.165,0.127-0.276l-0.296-0.803c-0.041-0.111-0.023-0.245,0.04-0.299c0.063-0.054,0.306-0.166,0.413-0.117
		l0.776,0.357c0.107,0.049,0.235,0.002,0.285-0.105l0.808-1.753c0.049-0.107,0.002-0.235-0.105-0.285l-0.775-0.357
		c-0.107-0.05-0.179-0.307-0.179-0.39c0-0.083,0.09-0.184,0.202-0.225l0.803-0.296c0.111-0.041,0.167-0.165,0.127-0.275L28.7,19.96
		C28.66,19.85,28.536,19.792,28.425,19.833z M25.349,24.514c-1.111,0.41-2.346-0.159-2.756-1.271
		c-0.41-1.112,0.16-2.346,1.271-2.756s2.346,0.159,2.756,1.271C27.029,22.869,26.46,24.103,25.349,24.514z"/>
</g>
</svg>
