<?xml version="1.0" encoding="utf-8"?>
<!-- Generator: Adobe Illustrator 16.0.0, SVG Export Plug-In . SVG Version: 6.00 Build 0)  -->
<!DOCTYPE svg PUBLIC "-//W3C//DTD SVG 1.1//EN" "http://www.w3.org/Graphics/SVG/1.1/DTD/svg11.dtd">
<svg version="1.1" id="Layer_1" xmlns="http://www.w3.org/2000/svg" xmlns:xlink="http://www.w3.org/1999/xlink" x="0px" y="0px"
	 width="50px" height="50px" viewBox="0 0 50 50" enable-background="new 0 0 50 50" xml:space="preserve">
<g>
	<polygon points="31.21,22.999 24.46,19.625 24.46,21.998 21.562,21.998 21.562,24.015 24.46,24.015 24.46,26.375 	"/>
	<path d="M36.719,33.212c0.513,0,0.989-0.161,1.384-0.433h-4.496c-1.157,0-2.099-0.942-2.099-2.1l0.019-1.305l0.019-0.163H13.281
		c-0.801,0-1.451-0.651-1.451-1.451V15.151c0-0.8,0.65-1.451,1.451-1.451h23.438c0.801,0,1.451,0.651,1.451,1.451v2.987h1v-2.987
		c0-1.348-1.102-2.451-2.451-2.451H13.281c-1.348,0-2.451,1.104-2.451,2.451v15.609c0,1.348,1.104,2.451,2.451,2.451H24V35.3h-7.5
		l-1,1v1h19v-1l-1-1H26v-2.088H36.719z"/>
	<g>
		<circle cx="34.242" cy="30.13" r="0.395"/>
		<path d="M44.592,29.548l-1.096-9.863c-0.033-0.3-0.335-0.546-0.671-0.546H34.28c-0.336,0-0.638,0.246-0.671,0.546l-1.096,9.863
			c0,0.011-0.006,0.021-0.006,0.033v1.099c0,0.606,0.493,1.1,1.099,1.1h9.893c0.605,0,1.099-0.493,1.099-1.1v-1.099
			C44.598,29.569,44.592,29.559,44.592,29.548z M36.565,23.28h1.391v-1.391h1.193v1.391h1.391v1.191h-1.391v1.391h-1.193v-1.391
			h-1.391V23.28z M44.049,30.68c0,0.303-0.248,0.55-0.55,0.55h-9.893c-0.302,0-0.55-0.247-0.55-0.55v-1.099
			c0-0.303,0.248-0.55,0.55-0.55h9.893c0.302,0,0.55,0.247,0.55,0.55V30.68z"/>
	</g>
</g>
</svg>
