<?xml version="1.0" encoding="utf-8"?>
<!-- Generator: Adobe Illustrator 16.0.0, SVG Export Plug-In . SVG Version: 6.00 Build 0)  -->
<!DOCTYPE svg PUBLIC "-//W3C//DTD SVG 1.1//EN" "http://www.w3.org/Graphics/SVG/1.1/DTD/svg11.dtd">
<svg version="1.1" id="Layer_1" xmlns="http://www.w3.org/2000/svg" xmlns:xlink="http://www.w3.org/1999/xlink" x="0px" y="0px"
	 width="50px" height="50px" viewBox="0 0 50 50" enable-background="new 0 0 50 50" xml:space="preserve">
<g>
	<path d="M33.05,19.069l-0.117,0.161l0.717,0.928l0.415-0.257c-0.092-0.032-0.178-0.088-0.247-0.178
		C33.817,19.722,33.266,19.341,33.05,19.069z"/>
	<path d="M29.783,13.659c-0.028-0.014-0.06-0.024-0.088-0.035c-0.327-0.139-0.66-0.26-1.002-0.367
		c-0.061-0.021-0.121-0.035-0.181-0.054c-0.314-0.094-0.637-0.18-0.964-0.248c-0.072-0.017-0.146-0.029-0.219-0.044
		c-0.768-0.148-1.557-0.231-2.365-0.231c-0.088,0-0.172,0.011-0.26,0.013v2.543c-0.031-0.035-0.073-0.068-0.087-0.105l-0.763-2.072
		c-0.105-0.282-0.424-0.429-0.709-0.327l-4.666,1.722c-0.289,0.107-0.437,0.425-0.33,0.714l0.762,2.072
		c0.107,0.28,0.061,0.629-0.102,0.767c-0.159,0.135-0.785,0.428-1.062,0.302l-2-0.925c-0.273-0.125-0.604-0.004-0.731,0.273
		l-2.083,4.522c-0.129,0.272-0.004,0.603,0.272,0.729l1.995,0.925c0.278,0.122,0.49,0.403,0.482,0.614
		c-0.019,0.209-0.258,0.858-0.539,0.964l-2.071,0.763c-0.28,0.103-0.429,0.421-0.325,0.71l1.722,4.674
		c0.106,0.28,0.429,0.432,0.709,0.326l2.072-0.767c0.284-0.105,0.634-0.06,0.77,0.106c0.142,0.159,0.43,0.782,0.304,1.062
		l-0.926,1.996c-0.129,0.273-0.004,0.604,0.27,0.732l4.521,2.083c0.277,0.128,0.611,0.008,0.732-0.265l0.924-2.003
		c0.127-0.273,0.404-0.486,0.617-0.475c0.055,0.003,0.143,0.023,0.242,0.056V37.3c0.088,0.002,0.172,0.02,0.262,0.02
		c6.803-0.002,12.318-5.518,12.318-12.322C37.285,19.903,34.192,15.534,29.783,13.659z M34.365,21.455c0,0-0.217,0.597-0.877,0.923
		c0,0-0.935-2.277-2.096-2.766c0,0,1.215,2.116,2.205,3.093c0,0,0.274,0.165,0.715-0.051c0,0,0.053,1.788-0.99,2.982
		c0,0-0.272,0.649-0.165,1.355c0,0,0.165,1.192-0.716,1.792c0,0-0.39,0.268-0.39,0.918c0,0,0,0.544-0.603,0.544
		c0,0-0.661,1.403-2.533,1.13c0,0,0-1.018-0.545-2.213c0,0-0.5-0.652,0.266-1.412c0,0,0.723-0.324-0.377-1.571
		c0,0-0.719-0.6-0.334-1.248c0,0,0.111-0.545-0.164-0.706c0,0-0.77,0.161-0.936-0.379c0,0-1.43,0.54-2.094,0.27
		c0,0-0.014,0.008-0.027,0.016v6.395c-2.127-0.125-4.084-1.475-4.871-3.605c-1.055-2.861,0.41-6.044,3.277-7.103
		c0.525-0.193,1.061-0.275,1.594-0.306v-0.987c0.126-0.008,1.059-0.069,1.573-0.267c0,0,0.714-0.219,1.15-0.109
		c0,0,0.278,0.433,0.112,0.704c0,0,0.769-0.271,1.268,0.323c0,0,0.494-0.051,0.383-0.431c0,0,1.267,0.761,1.93,0.324
		c0,0,0.163-1.084-0.438-1.029c0,0-0.937,0.054-1.38-0.598c0,0-0.494-0.216-0.387,0.111c0,0,0.058,0.326,0.443,0.432
		c0,0-0.109,0.327-0.494,0.165c0,0-0.33-0.109-0.441-0.816c0,0-0.883-0.161-1.102-0.541c0,0-0.547,0.163,0.715,0.761
		c0,0,0.498,0.375-0.166,0.648c0,0-0.442-0.217,0.055-0.323c0,0-0.109-0.22-0.604-0.383c0,0-0.33-0.324-0.387-0.541
		c0,0-0.657,0.436-0.934,0.161c0,0-0.113,0.542-0.441,0.542c0,0-0.054,0.647-0.855,0.549v-0.972
		c0.151,0.005,0.297-0.003,0.357-0.064c0.167-0.161,0.277-0.433-0.163-0.538c0,0-0.093-0.024-0.194-0.071v-0.545
		c0.125-0.04,0.295-0.022,0.469,0.232c0,0,0.551-0.379,1.265-0.434c0,0,1.269-0.548,0.935-0.925c0,0-0.818,0.488-1.207,0.222
		c0,0-1.085-0.359-0.201-1.222c3.825,0.366,7.077,2.689,8.762,5.948c-0.167,0.068-0.395,0.131-0.6,0.077
		C34.297,20.089,35.002,20.879,34.365,21.455z"/>
</g>
</svg>
