<?xml version="1.0" encoding="utf-8"?>
<!-- Generator: Adobe Illustrator 16.0.0, SVG Export Plug-In . SVG Version: 6.00 Build 0)  -->
<!DOCTYPE svg PUBLIC "-//W3C//DTD SVG 1.1//EN" "http://www.w3.org/Graphics/SVG/1.1/DTD/svg11.dtd">
<svg version="1.1" id="Layer_1" xmlns="http://www.w3.org/2000/svg" xmlns:xlink="http://www.w3.org/1999/xlink" x="0px" y="0px"
	 width="50px" height="50px" viewBox="0 0 50 50" enable-background="new 0 0 50 50" xml:space="preserve">
<g>
	<g>
		<path d="M16.079,21.081c0.794-1.801,2.119-3.312,3.773-4.346V16.15c-1.926,1.125-3.457,2.853-4.32,4.931H16.079z"/>
		<path d="M30.148,16.735c1.655,1.035,2.979,2.545,3.773,4.346h0.546c-0.863-2.078-2.394-3.806-4.32-4.931V16.735z"/>
		<path d="M19.852,33.264c-1.654-1.034-2.979-2.545-3.773-4.345h-0.547c0.863,2.078,2.394,3.805,4.32,4.93V33.264z"/>
		<path d="M33.921,28.919c-0.794,1.8-2.119,3.311-3.773,4.345v0.584c1.926-1.125,3.457-2.852,4.32-4.93H33.921z"/>
	</g>
	<g>
		<g>
			<path d="M28.975,18.705h-7.949c-0.372,0-0.673-0.302-0.673-0.673v-4.616c0-0.371,0.302-0.673,0.673-0.673h7.949
				c0.372,0,0.673,0.302,0.673,0.673v4.616C29.648,18.403,29.346,18.705,28.975,18.705z"/>
			<path d="M26.026,18.893v0.266h-2.052v-0.266h-4.528c0,0.379,0.221,0.688,0.492,0.688h10.123c0.271,0,0.492-0.31,0.492-0.688
				H26.026z"/>
		</g>
		<g>
			<path d="M28.975,36.381h-7.949c-0.372,0-0.673-0.302-0.673-0.673v-4.616c0-0.371,0.302-0.673,0.673-0.673h7.949
				c0.372,0,0.673,0.302,0.673,0.673v4.616C29.648,36.079,29.346,36.381,28.975,36.381z"/>
			<path d="M26.026,36.568v0.266h-2.052v-0.266h-4.528c0,0.379,0.221,0.688,0.492,0.688h10.123c0.271,0,0.492-0.31,0.492-0.688
				H26.026z"/>
		</g>
		<g>
			<path d="M21.32,27.543h-7.949c-0.372,0-0.673-0.302-0.673-0.673v-4.616c0-0.371,0.302-0.673,0.673-0.673h7.949
				c0.372,0,0.673,0.302,0.673,0.673v4.616C21.994,27.241,21.692,27.543,21.32,27.543z"/>
			<path d="M18.372,27.73v0.266H16.32V27.73h-4.528c0,0.379,0.221,0.688,0.492,0.688h10.123c0.271,0,0.492-0.31,0.492-0.688H18.372z
				"/>
		</g>
		<g>
			<path d="M36.629,27.543H28.68c-0.372,0-0.673-0.302-0.673-0.673v-4.616c0-0.371,0.302-0.673,0.673-0.673h7.949
				c0.372,0,0.673,0.302,0.673,0.673v4.616C37.303,27.241,37.001,27.543,36.629,27.543z"/>
			<path d="M33.681,27.73v0.266h-2.052V27.73h-4.528c0,0.379,0.221,0.688,0.492,0.688h10.123c0.271,0,0.492-0.31,0.492-0.688H33.681
				z"/>
		</g>
	</g>
</g>
</svg>
