<?xml version="1.0" encoding="utf-8"?>
<!-- Generator: Adobe Illustrator 16.0.0, SVG Export Plug-In . SVG Version: 6.00 Build 0)  -->
<!DOCTYPE svg PUBLIC "-//W3C//DTD SVG 1.1//EN" "http://www.w3.org/Graphics/SVG/1.1/DTD/svg11.dtd">
<svg version="1.1" id="Layer_1" xmlns="http://www.w3.org/2000/svg" xmlns:xlink="http://www.w3.org/1999/xlink" x="0px" y="0px"
	 width="50px" height="50px" viewBox="0 0 50 50" enable-background="new 0 0 50 50" xml:space="preserve">
<g>
	<path d="M17.042,30.216c-2.734,0-4.95-0.887-4.95-1.98v1.98c0,1.094,2.216,1.979,4.95,1.979c2.734,0,4.95-0.886,4.95-1.979v-1.98
		C21.991,29.329,19.775,30.216,17.042,30.216z"/>
	<path d="M17.042,33.186c-2.734,0-4.95-0.886-4.95-1.98v1.98c0,1.094,2.216,1.979,4.95,1.979c2.734,0,4.95-0.886,4.95-1.979v-1.98
		C21.991,32.3,19.775,33.186,17.042,33.186z"/>
	<path d="M32.958,30.217c-2.734,0-4.95-0.887-4.95-1.98v1.98c0,1.094,2.216,1.979,4.95,1.979c2.734,0,4.95-0.886,4.95-1.979v-1.98
		C37.908,29.33,35.692,30.217,32.958,30.217z"/>
	<path d="M32.958,33.187c-2.734,0-4.95-0.886-4.95-1.98v1.98c0,1.094,2.216,1.979,4.95,1.979c2.734,0,4.95-0.886,4.95-1.979v-1.98
		C37.908,32.301,35.692,33.187,32.958,33.187z"/>
	<path d="M33.458,23.307v-5.05c0-0.276-0.224-0.5-0.5-0.5l-15.917-0.002c-0.133,0-0.26,0.053-0.354,0.146s-0.146,0.221-0.146,0.354
		v5.051c-2.496,0.102-4.45,0.935-4.45,1.959v1.98c0,1.095,2.216,1.98,4.95,1.98c2.734,0,4.95-0.886,4.95-1.98v-1.98
		c0-1.024-1.955-1.857-4.45-1.959v-4.551l14.917,0.002v4.55c-2.496,0.102-4.45,0.935-4.45,1.959v1.98c0,1.095,2.216,1.98,4.95,1.98
		c2.734,0,4.95-0.886,4.95-1.98v-1.98C37.908,24.241,35.954,23.408,33.458,23.307z M21.496,25.265c0,0.606-1.735,1.485-4.455,1.485
		c-2.72,0-4.455-0.879-4.455-1.485c0-0.565,1.531-1.363,3.955-1.464v1.454c0,0.276,0.224,0.5,0.5,0.5s0.5-0.224,0.5-0.5V23.8
		C19.964,23.901,21.496,24.699,21.496,25.265z M32.958,26.751c-2.72,0-4.455-0.879-4.455-1.485c0-0.565,1.531-1.362,3.955-1.464
		v1.455c0,0.276,0.224,0.5,0.5,0.5s0.5-0.224,0.5-0.5v-1.455c2.423,0.101,3.955,0.898,3.955,1.464
		C37.413,25.872,35.678,26.751,32.958,26.751z"/>
	<polygon points="21.163,16.678 22.663,15.756 21.163,14.834 21.163,15.334 19.319,15.334 19.319,16.178 21.163,16.178 	"/>
	<polygon points="29.163,16.678 30.663,15.756 29.163,14.834 29.163,15.334 27.319,15.334 27.319,16.178 29.163,16.178 	"/>
	<polygon points="14.569,22.428 15.413,22.428 15.413,20.584 15.913,20.584 14.991,19.084 14.069,20.584 14.569,20.584 	"/>
	<polygon points="31.285,22.428 31.285,20.988 31.675,20.988 30.956,19.817 30.236,20.988 30.626,20.988 30.626,22.428 	"/>
	<polygon points="28.296,19.707 22.857,19.707 22.857,19.316 21.686,20.035 22.857,20.756 22.857,20.365 28.296,20.365 	"/>
	<polygon points="35.913,20.928 35.413,20.928 35.413,19.084 34.569,19.084 34.569,20.928 34.069,20.928 34.991,22.428 	"/>
	<polygon points="18.698,19.817 18.698,21.257 18.307,21.257 19.027,22.428 19.747,21.257 19.356,21.257 19.356,19.817 	"/>
</g>
</svg>
