<?xml version="1.0" encoding="utf-8"?>
<!-- Generator: Adobe Illustrator 16.0.0, SVG Export Plug-In . SVG Version: 6.00 Build 0)  -->
<!DOCTYPE svg PUBLIC "-//W3C//DTD SVG 1.1//EN" "http://www.w3.org/Graphics/SVG/1.1/DTD/svg11.dtd">
<svg version="1.1" id="Layer_1" xmlns="http://www.w3.org/2000/svg" xmlns:xlink="http://www.w3.org/1999/xlink" x="0px" y="0px"
	 width="50px" height="50px" viewBox="0 0 50 50" enable-background="new 0 0 50 50" xml:space="preserve">
<g>
	<path d="M37.706,22.084c-0.514-1.841-1.981-3.18-3.729-3.18c-0.02,0-0.038,0.006-0.058,0.007c-0.281-3.498-2.779-6.246-5.853-6.246
		c-1.73,0-3.272,0.884-4.354,2.265c-0.682-0.658-1.546-1.07-2.499-1.07c-2.14,0-3.874,1.993-3.931,4.471
		c-0.375-0.166-0.778-0.268-1.203-0.268c-1.885,0-3.412,1.781-3.412,3.977c-1.334,0-2.414,1.259-2.414,2.812s1.08,2.812,2.414,2.812
		c0.051,0,1.923,0,4.607,0v-2.102c0-1.015,0.826-1.84,1.842-1.84h0.68v-3.202c0-1.015,0.826-1.841,1.842-1.841
		c1.015,0,1.84,0.826,1.84,1.841v3.202h3.043v-3.202c0-1.015,0.825-1.841,1.84-1.841c1.016,0,1.842,0.826,1.842,1.841v3.202h0.68
		c1.016,0,1.842,0.825,1.842,1.84v2.102c2.692,0,4.566,0,4.607,0c1.334,0,2.414-1.259,2.414-2.812
		C39.746,23.448,38.861,22.294,37.706,22.084z"/>
	<path d="M30.883,24.724h-1.68v-4.202c0-0.465-0.377-0.841-0.842-0.841c-0.464,0-0.84,0.375-0.84,0.841v4.202h-5.043v-4.202
		c0-0.465-0.376-0.841-0.84-0.841c-0.465,0-0.842,0.375-0.842,0.841v4.202h-1.68c-0.463,0-0.842,0.378-0.842,0.84v4.203
		c0,0.924,0.757,1.681,1.682,1.681h3.361v2.521c0,0.928,0.753,1.681,1.682,1.681s1.682-0.753,1.682-1.681v-2.521h3.361
		c0.925,0,1.682-0.757,1.682-1.681v-4.203C31.725,25.102,31.346,24.724,30.883,24.724z"/>
</g>
</svg>
