<?xml version="1.0" encoding="utf-8"?>
<!-- Generator: Adobe Illustrator 16.0.0, SVG Export Plug-In . SVG Version: 6.00 Build 0)  -->
<!DOCTYPE svg PUBLIC "-//W3C//DTD SVG 1.1//EN" "http://www.w3.org/Graphics/SVG/1.1/DTD/svg11.dtd">
<svg version="1.1" id="Layer_1" xmlns="http://www.w3.org/2000/svg" xmlns:xlink="http://www.w3.org/1999/xlink" x="0px" y="0px"
	 width="50px" height="50px" viewBox="0 0 50 50" enable-background="new 0 0 50 50" xml:space="preserve">
<g>
	<path d="M23.683,28.926c0.876,0,1.759,0,2.635,0v-0.794h-2.635V28.926z"/>
	<path d="M37.706,23.345c-0.514-1.841-1.981-3.18-3.729-3.18c-0.02,0-0.038,0.006-0.058,0.007c-0.281-3.498-2.779-6.246-5.853-6.246
		c-1.73,0-3.272,0.884-4.354,2.265c-0.682-0.658-1.546-1.07-2.499-1.07c-2.14,0-3.874,1.993-3.931,4.471
		c-0.375-0.166-0.778-0.268-1.203-0.268c-1.885,0-3.412,1.781-3.412,3.977c-1.334,0-2.414,1.259-2.414,2.812s1.08,2.812,2.414,2.812
		c0.002,0,2.647,0,6.198,0v-0.794h-0.749l-1.808-5.037h17.382l-1.808,5.037h-0.749v0.794c3.551,0,6.197,0,6.198,0
		c1.334,0,2.414-1.259,2.414-2.812C39.746,24.708,38.861,23.555,37.706,23.345z"/>
	<polygon points="21.684,28.57 19.866,28.57 19.866,31.614 20.865,31.614 20.865,29.569 22.683,29.569 22.683,25.613 21.684,25.613 
			"/>
	<polygon points="29.135,31.614 30.134,31.614 30.134,28.57 28.316,28.57 28.316,25.613 27.317,25.613 27.317,29.569 29.135,29.569 
			"/>
	<polygon points="21.244,34.355 21.509,34.355 21.509,35.249 20.616,35.249 20.616,34.355 20.88,34.355 20.88,31.879 19.851,31.879 
		19.851,34.355 20.116,34.355 20.116,35.249 19.222,35.249 19.222,34.355 19.487,34.355 19.487,31.879 18.859,31.879 18.859,36.074 
		21.873,36.074 21.873,31.879 21.244,31.879 	"/>
	<rect x="19.487" y="34.62" width="0.363" height="0.364"/>
	<rect x="20.88" y="34.62" width="0.364" height="0.364"/>
	<polygon points="30.513,34.355 30.778,34.355 30.778,35.249 29.884,35.249 29.884,34.355 30.149,34.355 30.149,31.879 
		29.12,31.879 29.12,34.355 29.384,34.355 29.384,35.249 28.491,35.249 28.491,34.355 28.756,34.355 28.756,31.879 28.128,31.879 
		28.128,36.074 31.141,36.074 31.141,31.879 30.513,31.879 	"/>
	<rect x="28.756" y="34.62" width="0.364" height="0.364"/>
	<rect x="30.149" y="34.62" width="0.363" height="0.364"/>
	<polygon points="25.672,24.822 30.089,24.822 29.684,26.433 28.816,26.433 28.816,27.131 31.179,27.131 32.27,24.095 17.73,24.095 
		18.821,27.131 21.184,27.131 21.184,26.434 20.316,26.434 19.911,24.822 24.328,24.822 24.328,26.433 23.183,26.433 23.183,27.131 
		26.817,27.131 26.817,26.433 25.672,26.433 	"/>
</g>
</svg>
