<?xml version="1.0" encoding="utf-8"?>
<!-- Generator: Adobe Illustrator 16.0.0, SVG Export Plug-In . SVG Version: 6.00 Build 0)  -->
<!DOCTYPE svg PUBLIC "-//W3C//DTD SVG 1.1//EN" "http://www.w3.org/Graphics/SVG/1.1/DTD/svg11.dtd">
<svg version="1.1" id="Layer_1" xmlns="http://www.w3.org/2000/svg" xmlns:xlink="http://www.w3.org/1999/xlink" x="0px" y="0px"
	 width="50px" height="50px" viewBox="0 0 50 50" enable-background="new 0 0 50 50" xml:space="preserve">
<g>
	<path d="M37.749,24.776c-0.516-1.847-1.989-3.19-3.742-3.19c-0.02,0-0.038,0.007-0.058,0.007c-0.282-3.509-2.788-6.267-5.872-6.267
		c-1.736,0-3.283,0.888-4.368,2.272c-0.685-0.66-1.551-1.073-2.508-1.073c-2.147,0-3.886,1.998-3.943,4.485
		c-0.377-0.166-0.781-0.269-1.208-0.269c-1.891,0-3.424,1.787-3.424,3.991c-1.338,0-2.422,1.264-2.422,2.822
		c0,1.557,1.084,2.82,2.422,2.82c0.001,0,3.016,0,6.939,0l-1.299-1.299v-0.001l-1.772-1.766l0.71-0.711
		c2.08-2.079,4.848-3.225,7.796-3.225c2.948,0,5.716,1.146,7.794,3.225l0.71,0.709l-1.77,1.769l-1.298,1.299
		c3.922,0,6.936,0,6.936,0c1.338,0,2.422-1.264,2.422-2.82C39.795,26.146,38.907,24.987,37.749,24.776z"/>
	<g>
		<path d="M17.914,27.309l1.023,1.021c3.343-3.344,8.785-3.34,12.125,0.002l1.022-1.022C28.18,23.4,21.822,23.4,17.914,27.309z"/>
		<path d="M19.684,29.077l1.022,1.023c2.367-2.368,6.221-2.368,8.587,0l1.024-1.023C27.388,26.146,22.616,26.146,19.684,29.077z"/>
		<path d="M21.508,30.901l1.024,1.025c1.36-1.361,3.572-1.361,4.937,0l1.021-1.025C26.566,28.977,23.432,28.977,21.508,30.901z"/>
		<path d="M24.997,31.927c-0.757,0-1.372,0.613-1.372,1.376c0,0.754,0.614,1.371,1.372,1.371c0.76,0,1.374-0.617,1.374-1.371
			C26.373,32.54,25.757,31.927,24.997,31.927z"/>
	</g>
</g>
</svg>
