<?xml version="1.0" encoding="utf-8"?>
<!-- Generator: Adobe Illustrator 16.0.0, SVG Export Plug-In . SVG Version: 6.00 Build 0)  -->
<!DOCTYPE svg PUBLIC "-//W3C//DTD SVG 1.1//EN" "http://www.w3.org/Graphics/SVG/1.1/DTD/svg11.dtd">
<svg version="1.1" id="Layer_1" xmlns="http://www.w3.org/2000/svg" xmlns:xlink="http://www.w3.org/1999/xlink" x="0px" y="0px"
	 width="50px" height="50px" viewBox="0 0 50 50" enable-background="new 0 0 50 50" xml:space="preserve">
<g>
	<path d="M36.149,21.964v1.556c0,0.12,0.061,0.183,0.18,0.183s0.183-0.062,0.183-0.183v-1.556c0-0.118-0.063-0.178-0.183-0.178
		S36.149,21.846,36.149,21.964z"/>
	<path d="M21.383,21.786c-0.12,0-0.181,0.06-0.181,0.178v1.556c0,0.12,0.061,0.183,0.181,0.183c0.118,0,0.183-0.062,0.183-0.183
		v-1.556C21.565,21.846,21.501,21.786,21.383,21.786z"/>
	<path d="M24.756,30.963c-0.122,0-0.182,0.059-0.182,0.178v1.556c0,0.122,0.06,0.181,0.182,0.181c0.12,0,0.182-0.059,0.182-0.181
		v-1.556C24.938,31.021,24.876,30.963,24.756,30.963z"/>
	<path d="M21.383,30.963c-0.12,0-0.181,0.059-0.181,0.178v1.556c0,0.122,0.061,0.181,0.181,0.181c0.118,0,0.183-0.059,0.183-0.181
		v-1.556C21.565,31.021,21.501,30.963,21.383,30.963z"/>
	<path d="M24.756,17.157c-0.122,0-0.182,0.059-0.182,0.181v1.555c0,0.119,0.06,0.18,0.182,0.18c0.12,0,0.182-0.061,0.182-0.18
		v-1.555C24.938,17.216,24.876,17.157,24.756,17.157z"/>
	<path d="M24.756,21.786c-0.122,0-0.182,0.06-0.182,0.178v1.556c0,0.12,0.06,0.183,0.182,0.183c0.12,0,0.182-0.062,0.182-0.183
		v-1.556C24.938,21.846,24.876,21.786,24.756,21.786z"/>
	<path d="M21.383,35.588c-0.12,0-0.181,0.06-0.181,0.182v1.137h0.363V35.77C21.565,35.647,21.501,35.588,21.383,35.588z"/>
	<path d="M24.756,35.588c-0.122,0-0.182,0.06-0.182,0.182v1.137h0.363V35.77C24.938,35.647,24.876,35.588,24.756,35.588z"/>
	<path d="M17.528,21.786c-0.122,0-0.182,0.06-0.182,0.178v1.556c0,0.12,0.06,0.183,0.182,0.183c0.117,0,0.177-0.062,0.177-0.183
		v-1.556C17.705,21.846,17.646,21.786,17.528,21.786z"/>
	<path d="M28.617,30.963c-0.122,0-0.182,0.059-0.182,0.178v1.556c0,0.122,0.06,0.181,0.182,0.181c0.121,0,0.181-0.059,0.181-0.181
		v-1.556C28.798,31.021,28.738,30.963,28.617,30.963z"/>
	<path d="M28.617,35.588c-0.122,0-0.182,0.06-0.182,0.182v1.137h0.362V35.77C28.798,35.647,28.738,35.588,28.617,35.588z"/>
	<path d="M17.528,26.413c-0.122,0-0.182,0.059-0.182,0.18v1.555c0,0.121,0.06,0.181,0.182,0.181c0.117,0,0.177-0.06,0.177-0.181
		v-1.555C17.705,26.472,17.646,26.413,17.528,26.413z"/>
	<path d="M21.383,17.157c-0.12,0-0.181,0.059-0.181,0.181v1.555c0,0.119,0.061,0.18,0.181,0.18c0.118,0,0.183-0.061,0.183-0.18
		v-1.555C21.565,17.216,21.501,17.157,21.383,17.157z"/>
	<path d="M32.472,21.786c-0.118,0-0.178,0.06-0.178,0.178v1.556c0,0.12,0.06,0.183,0.178,0.183c0.122,0,0.182-0.062,0.182-0.183
		v-1.556C32.653,21.846,32.594,21.786,32.472,21.786z"/>
	<path d="M28.617,17.157c-0.122,0-0.182,0.059-0.182,0.181v1.555c0,0.119,0.06,0.18,0.182,0.18c0.121,0,0.181-0.061,0.181-0.18
		v-1.555C28.798,17.216,28.738,17.157,28.617,17.157z"/>
	<path d="M32.472,26.413c-0.118,0-0.178,0.059-0.178,0.18v1.555c0,0.121,0.06,0.181,0.178,0.181c0.122,0,0.182-0.06,0.182-0.181
		v-1.555C32.653,26.472,32.594,26.413,32.472,26.413z"/>
	<path d="M13.852,23.52v-1.556c0-0.118-0.061-0.178-0.183-0.178c-0.118,0-0.18,0.06-0.18,0.178v1.556c0,0.12,0.062,0.183,0.18,0.183
		C13.791,23.702,13.852,23.64,13.852,23.52z"/>
	<path d="M36.906,23.581c-0.022,0.125-0.067,0.235-0.157,0.315c-0.122,0.109-0.262,0.162-0.42,0.162
		c-0.157,0-0.301-0.053-0.418-0.162c-0.121-0.105-0.181-0.252-0.181-0.438v-1.416c0-0.197,0.06-0.351,0.181-0.457
		c0.117-0.106,0.261-0.161,0.418-0.161c0.158,0,0.298,0.055,0.42,0.161c0.09,0.08,0.135,0.195,0.157,0.328v-1.379h-7.441v-7.441
		h-0.637v1.567h-0.419v-1.567h-3.445v1.567h-0.417v-1.567h-2.953v1.567h-0.419v-1.567h-0.64v7.441h-7.441v1.379
		c0.022-0.133,0.067-0.248,0.156-0.328c0.12-0.106,0.258-0.161,0.419-0.161c0.159,0,0.298,0.055,0.42,0.161
		c0.121,0.106,0.181,0.26,0.181,0.457v1.416c0,0.186-0.06,0.332-0.181,0.438c-0.122,0.109-0.261,0.162-0.42,0.162
		c-0.161,0-0.299-0.053-0.419-0.162c-0.089-0.08-0.134-0.189-0.156-0.315v5.884h7.441v7.441h0.248v-1.06
		c0-0.199,0.062-0.351,0.181-0.457c0.116-0.105,0.259-0.157,0.419-0.157c0.159,0,0.298,0.052,0.417,0.157
		c0.122,0.106,0.182,0.258,0.182,0.457v1.06h2.176v-1.06c0-0.199,0.061-0.351,0.178-0.457c0.121-0.105,0.262-0.157,0.421-0.157
		c0.157,0,0.299,0.052,0.419,0.157c0.118,0.106,0.18,0.258,0.18,0.457v1.06h2.664v-1.06c0-0.199,0.061-0.351,0.178-0.457
		c0.121-0.105,0.26-0.157,0.421-0.157c0.157,0,0.298,0.052,0.419,0.157c0.118,0.106,0.18,0.258,0.18,0.457v1.06h0.249v-7.441h7.441
		V23.581z M13.883,28.687h-0.422v-2.631h0.422V28.687z M18.126,28.088c0,0.184-0.061,0.33-0.183,0.438
		c-0.121,0.108-0.258,0.161-0.415,0.161c-0.16,0-0.305-0.053-0.421-0.161c-0.12-0.107-0.179-0.254-0.179-0.438v-1.417
		c0-0.199,0.059-0.353,0.179-0.458c0.116-0.107,0.261-0.157,0.421-0.157c0.157,0,0.294,0.05,0.415,0.157
		c0.122,0.105,0.183,0.259,0.183,0.458V28.088z M18.126,23.459c0,0.186-0.061,0.332-0.183,0.438
		c-0.121,0.109-0.258,0.162-0.415,0.162c-0.16,0-0.305-0.053-0.421-0.162c-0.12-0.105-0.179-0.252-0.179-0.438v-1.416
		c0-0.197,0.059-0.351,0.179-0.457c0.116-0.106,0.261-0.161,0.421-0.161c0.157,0,0.294,0.055,0.415,0.161
		c0.122,0.106,0.183,0.26,0.183,0.457V23.459z M21.981,32.636c0,0.186-0.06,0.332-0.182,0.438c-0.119,0.107-0.258,0.16-0.417,0.16
		c-0.16,0-0.303-0.053-0.419-0.16c-0.118-0.106-0.181-0.253-0.181-0.438v-1.415c0-0.199,0.062-0.353,0.181-0.458
		c0.116-0.107,0.259-0.161,0.419-0.161c0.159,0,0.298,0.054,0.417,0.161c0.122,0.105,0.182,0.259,0.182,0.458V32.636z
		 M21.175,28.687v-2.631h0.419v2.631H21.175z M21.981,23.459c0,0.186-0.06,0.332-0.182,0.438c-0.119,0.109-0.258,0.162-0.417,0.162
		c-0.16,0-0.303-0.053-0.419-0.162c-0.118-0.105-0.181-0.252-0.181-0.438v-1.416c0-0.197,0.062-0.351,0.181-0.457
		c0.116-0.106,0.259-0.161,0.419-0.161c0.159,0,0.298,0.055,0.417,0.161c0.122,0.106,0.182,0.26,0.182,0.457V23.459z M21.981,18.833
		c0,0.184-0.06,0.331-0.182,0.438c-0.119,0.106-0.258,0.162-0.417,0.162c-0.16,0-0.303-0.056-0.419-0.162
		c-0.118-0.106-0.181-0.254-0.181-0.438v-1.414c0-0.2,0.062-0.353,0.181-0.458c0.116-0.108,0.259-0.163,0.419-0.163
		c0.159,0,0.298,0.055,0.417,0.163c0.122,0.105,0.182,0.258,0.182,0.458V18.833z M25.354,32.636c0,0.186-0.062,0.332-0.18,0.438
		c-0.12,0.107-0.262,0.16-0.419,0.16c-0.159,0-0.3-0.053-0.421-0.16c-0.117-0.106-0.178-0.253-0.178-0.438v-1.415
		c0-0.199,0.061-0.353,0.178-0.458c0.121-0.107,0.262-0.161,0.421-0.161c0.157,0,0.299,0.054,0.419,0.161
		c0.118,0.105,0.18,0.259,0.18,0.458V32.636z M24.547,28.687v-2.631h0.417v2.631H24.547z M25.354,23.459
		c0,0.186-0.062,0.332-0.18,0.438c-0.12,0.109-0.262,0.162-0.419,0.162c-0.159,0-0.3-0.053-0.421-0.162
		c-0.117-0.105-0.178-0.252-0.178-0.438v-1.416c0-0.197,0.061-0.351,0.178-0.457c0.121-0.106,0.262-0.161,0.421-0.161
		c0.157,0,0.299,0.055,0.419,0.161c0.118,0.106,0.18,0.26,0.18,0.457V23.459z M25.354,18.833c0,0.184-0.062,0.331-0.18,0.438
		c-0.12,0.106-0.262,0.162-0.419,0.162c-0.159,0-0.3-0.056-0.421-0.162c-0.117-0.106-0.178-0.254-0.178-0.438v-1.414
		c0-0.2,0.061-0.353,0.178-0.458c0.121-0.108,0.262-0.163,0.421-0.163c0.157,0,0.299,0.055,0.419,0.163
		c0.118,0.105,0.18,0.258,0.18,0.458V18.833z M29.216,32.636c0,0.186-0.062,0.332-0.18,0.438c-0.121,0.107-0.262,0.16-0.419,0.16
		c-0.161,0-0.3-0.053-0.421-0.16c-0.117-0.106-0.178-0.253-0.178-0.438v-1.415c0-0.199,0.061-0.353,0.178-0.458
		c0.121-0.107,0.26-0.161,0.421-0.161c0.157,0,0.298,0.054,0.419,0.161c0.118,0.105,0.18,0.259,0.18,0.458V32.636z M28.409,28.687
		v-2.631h0.419v2.631H28.409z M29.216,23.459c0,0.186-0.062,0.332-0.18,0.438c-0.121,0.109-0.262,0.162-0.419,0.162
		c-0.161,0-0.3-0.053-0.421-0.162c-0.117-0.105-0.178-0.252-0.178-0.438v-1.416c0-0.197,0.061-0.351,0.178-0.457
		c0.121-0.106,0.26-0.161,0.421-0.161c0.157,0,0.298,0.055,0.419,0.161c0.118,0.106,0.18,0.26,0.18,0.457V23.459z M29.216,18.833
		c0,0.184-0.062,0.331-0.18,0.438c-0.121,0.106-0.262,0.162-0.419,0.162c-0.161,0-0.3-0.056-0.421-0.162
		c-0.117-0.106-0.178-0.254-0.178-0.438v-1.414c0-0.2,0.061-0.353,0.178-0.458c0.121-0.108,0.26-0.163,0.421-0.163
		c0.157,0,0.298,0.055,0.419,0.163c0.118,0.105,0.18,0.258,0.18,0.458V18.833z M33.072,28.088c0,0.184-0.06,0.33-0.181,0.438
		c-0.122,0.108-0.262,0.161-0.42,0.161c-0.157,0-0.301-0.053-0.417-0.161c-0.121-0.107-0.18-0.254-0.18-0.438v-1.417
		c0-0.199,0.059-0.353,0.18-0.458c0.116-0.107,0.26-0.157,0.417-0.157c0.158,0,0.298,0.05,0.42,0.157
		c0.121,0.105,0.181,0.259,0.181,0.458V28.088z M33.072,23.459c0,0.186-0.06,0.332-0.181,0.438c-0.122,0.109-0.262,0.162-0.42,0.162
		c-0.157,0-0.301-0.053-0.417-0.162c-0.121-0.105-0.18-0.252-0.18-0.438v-1.416c0-0.197,0.059-0.351,0.18-0.457
		c0.116-0.106,0.26-0.161,0.417-0.161c0.158,0,0.298,0.055,0.42,0.161c0.121,0.106,0.181,0.26,0.181,0.457V23.459z M36.539,28.687
		H36.12v-2.631h0.419V28.687z"/>
	<path d="M28.617,21.786c-0.122,0-0.182,0.06-0.182,0.178v1.556c0,0.12,0.06,0.183,0.182,0.183c0.121,0,0.181-0.062,0.181-0.183
		v-1.556C28.798,21.846,28.738,21.786,28.617,21.786z"/>
</g>
</svg>
