<?xml version="1.0" encoding="utf-8"?>
<!-- Generator: Adobe Illustrator 16.0.0, SVG Export Plug-In . SVG Version: 6.00 Build 0)  -->
<!DOCTYPE svg PUBLIC "-//W3C//DTD SVG 1.1//EN" "http://www.w3.org/Graphics/SVG/1.1/DTD/svg11.dtd">
<svg version="1.1" id="Layer_1" xmlns="http://www.w3.org/2000/svg" xmlns:xlink="http://www.w3.org/1999/xlink" x="0px" y="0px"
	 width="50px" height="50px" viewBox="0 0 50 50" enable-background="new 0 0 50 50" xml:space="preserve">
<g>
	<path d="M35.295,21.02c0-0.021-0.011-0.037-0.011-0.057l-1.867-6.797c-0.056-0.511-0.57-0.93-1.143-0.93H17.725
		c-0.572,0-1.087,0.419-1.143,0.93l-1.867,6.797c0,0.02-0.011,0.036-0.011,0.057v1.871c0,0.486,0.191,0.927,0.497,1.26l-0.486,2.812
		c0,0.02-0.011,0.036-0.011,0.057v1.871c0,0.486,0.191,0.927,0.497,1.26l-0.486,2.812c0,0.02-0.011,0.036-0.011,0.057v1.871
		c0,1.032,0.84,1.872,1.872,1.872h16.847c1.032,0,1.872-0.84,1.872-1.872V33.02c0-0.021-0.011-0.037-0.011-0.057l-0.486-2.812
		c0.306-0.333,0.497-0.773,0.497-1.26V27.02c0-0.021-0.011-0.037-0.011-0.057l-0.486-2.812c0.306-0.333,0.497-0.773,0.497-1.26
		V21.02z M34.359,34.891c0,0.516-0.421,0.937-0.936,0.937H16.577c-0.515,0-0.936-0.421-0.936-0.937V33.02
		c0-0.516,0.421-0.937,0.936-0.937h16.847c0.515,0,0.936,0.421,0.936,0.937V34.891z M34.359,28.891c0,0.516-0.421,0.937-0.936,0.937
		H16.577c-0.515,0-0.936-0.421-0.936-0.937V27.02c0-0.516,0.421-0.937,0.936-0.937h16.847c0.515,0,0.936,0.421,0.936,0.937V28.891z
		 M34.359,22.891c0,0.516-0.421,0.937-0.936,0.937H16.577c-0.515,0-0.936-0.421-0.936-0.937V21.02c0-0.516,0.421-0.937,0.936-0.937
		h16.847c0.515,0,0.936,0.421,0.936,0.937V22.891z"/>
	<circle cx="17.659" cy="33.955" r="0.673"/>
	<circle cx="17.659" cy="27.955" r="0.673"/>
	<circle cx="17.659" cy="21.955" r="0.673"/>
</g>
</svg>
