<?xml version="1.0" encoding="utf-8"?>
<!-- Generator: Adobe Illustrator 16.0.0, SVG Export Plug-In . SVG Version: 6.00 Build 0)  -->
<!DOCTYPE svg PUBLIC "-//W3C//DTD SVG 1.1//EN" "http://www.w3.org/Graphics/SVG/1.1/DTD/svg11.dtd">
<svg version="1.1" id="Layer_1" xmlns="http://www.w3.org/2000/svg" xmlns:xlink="http://www.w3.org/1999/xlink" x="0px" y="0px"
	 width="50px" height="50px" viewBox="0 0 50 50" enable-background="new 0 0 50 50" xml:space="preserve">
<g>
	<path d="M37.706,22.084c-0.514-1.841-1.981-3.18-3.729-3.18c-0.02,0-0.038,0.006-0.058,0.007c-0.281-3.498-2.779-6.246-5.853-6.246
		c-1.73,0-3.272,0.884-4.354,2.265c-0.682-0.658-1.546-1.07-2.499-1.07c-2.14,0-3.874,1.993-3.931,4.471
		c-0.375-0.166-0.778-0.268-1.203-0.268c-1.885,0-3.412,1.781-3.412,3.977c-1.334,0-2.414,1.259-2.414,2.812s1.08,2.812,2.414,2.812
		c0.054,0,2.191,0,5.18,0v-4.229h1.412v-1.075h1.412v-1.075h1.412v-1.075h10.068v7.453c2.997,0,5.138,0,5.18,0
		c1.334,0,2.414-1.259,2.414-2.812C39.746,23.448,38.861,22.294,37.706,22.084z"/>
	<polygon points="23.084,21.749 30.446,21.749 30.446,30.894 31.152,30.894 31.152,21.212 23.084,21.212 	"/>
	<polygon points="21.672,22.824 29.034,22.824 29.034,31.969 29.74,31.969 29.74,22.287 21.672,22.287 	"/>
	<polygon points="20.26,23.899 27.622,23.899 27.622,33.043 28.328,33.043 28.328,23.361 20.26,23.361 	"/>
	<rect x="18.848" y="24.436" width="8.068" height="9.682"/>
</g>
</svg>
