<?xml version="1.0" encoding="utf-8"?>
<!-- Generator: Adobe Illustrator 16.0.0, SVG Export Plug-In . SVG Version: 6.00 Build 0)  -->
<!DOCTYPE svg PUBLIC "-//W3C//DTD SVG 1.1//EN" "http://www.w3.org/Graphics/SVG/1.1/DTD/svg11.dtd">
<svg version="1.1" id="Layer_1" xmlns="http://www.w3.org/2000/svg" xmlns:xlink="http://www.w3.org/1999/xlink" x="0px" y="0px"
	 width="50px" height="50px" viewBox="0 0 50 50" enable-background="new 0 0 50 50" xml:space="preserve">
<g>
	<g>
		<path d="M23.873,23.368c-0.276,0-0.527-0.078-0.759-0.191v1.127c0,0.207-0.059,0.397-0.146,0.572
			c0.284-0.228,0.629-0.384,1.02-0.384h2.133c0.402,0,0.757,0.161,1.044,0.4v-1.549c0-0.116,0.048-0.215,0.066-0.326
			c-0.287,0.205-0.618,0.351-0.995,0.351H23.873z"/>
		<path d="M27.982,19.467v2.153c0,0.038-0.019,0.069-0.021,0.105c0.236-0.193,0.517-0.32,0.815-0.404v-1.125
			C28.419,20.077,28.128,19.811,27.982,19.467z"/>
		<path d="M27.776,28.142v0.139c0,0.914-0.743,1.656-1.656,1.656h-2.133c-0.914,0-1.656-0.743-1.656-1.656v-2.133
			c0-0.303,0.104-0.571,0.247-0.816c-0.22,0.167-0.48,0.283-0.777,0.283h-1.258c-0.723,0-1.312-0.589-1.312-1.312v-1.258
			c0-0.724,0.589-1.312,1.312-1.312h1.258c0.128,0,0.246,0.039,0.363,0.074c-0.007-0.064-0.038-0.121-0.038-0.187v-2.363
			c0-0.482,0.198-0.92,0.516-1.236h-0.123c-0.723,0-1.312-0.588-1.312-1.312V15.45c0-0.723,0.589-1.312,1.312-1.312h1.257
			c0.724,0,1.312,0.589,1.312,1.312v1.258c0,0.307-0.122,0.578-0.3,0.802h1.447c0.781,0,1.42,0.525,1.643,1.234v-1.047
			c0-0.577,0.379-1.052,0.897-1.228v-1.274c0-1.348-1.103-2.451-2.451-2.451H14.887c-1.349,0-2.451,1.103-2.451,2.451v19.608
			c0,1.348,1.103,2.451,2.451,2.451h11.438c1.349,0,2.451-1.103,2.451-2.451v-6.13C28.396,28.576,28.044,28.413,27.776,28.142z
			 M18.528,20.193V19.17c0-0.672,0.547-1.219,1.219-1.219h1.022c0.673,0,1.22,0.547,1.22,1.219v1.023
			c0,0.672-0.547,1.219-1.22,1.219h-1.022C19.075,21.412,18.528,20.865,18.528,20.193z"/>
	</g>
	<g>
		<path d="M27.981,26.658c0,0.717,0.586,1.304,1.305,1.304h3.314c0.717,0,1.304-0.587,1.304-1.304v-3.315
			c0-0.717-0.587-1.305-1.304-1.305h-3.314c-0.718,0-1.305,0.587-1.305,1.305V26.658z"/>
		<path d="M20.048,24.304c0,0.272,0.223,0.495,0.495,0.495h1.258c0.272,0,0.495-0.223,0.495-0.495v-1.258
			c0-0.272-0.223-0.495-0.495-0.495h-1.258c-0.272,0-0.495,0.222-0.495,0.495V24.304z"/>
		<path d="M19.346,20.193c0,0.222,0.18,0.402,0.402,0.402h1.022c0.221,0,0.403-0.181,0.403-0.402V19.17
			c0-0.221-0.182-0.402-0.403-0.402h-1.022c-0.222,0-0.402,0.181-0.402,0.402V20.193z"/>
		<path d="M35.737,23.976c0,0.222,0.18,0.402,0.402,0.402h1.022c0.221,0,0.403-0.18,0.403-0.402v-1.023
			c0-0.221-0.182-0.402-0.403-0.402h-1.022c-0.222,0-0.402,0.181-0.402,0.402V23.976z"/>
		<path d="M32.078,16.249c0,0.174,0.142,0.316,0.316,0.316h0.803c0.173,0,0.316-0.142,0.316-0.316v-0.803
			c0-0.174-0.143-0.316-0.316-0.316h-0.803c-0.174,0-0.316,0.142-0.316,0.316V16.249z"/>
		<path d="M28.696,18.956c0,0.272,0.223,0.495,0.495,0.495h1.257c0.272,0,0.496-0.223,0.496-0.495v-1.258
			c0-0.272-0.224-0.495-0.496-0.495H29.19c-0.272,0-0.495,0.223-0.495,0.495V18.956z"/>
		<path d="M22.024,16.708c0,0.272,0.223,0.495,0.495,0.495h1.257c0.272,0,0.496-0.223,0.496-0.495V15.45
			c0-0.272-0.223-0.495-0.496-0.495h-1.257c-0.272,0-0.495,0.223-0.495,0.495V16.708z"/>
		<path d="M33.26,20.176c0,0.462,0.377,0.839,0.839,0.839h2.133c0.462,0,0.839-0.377,0.839-0.839v-2.133
			c0-0.462-0.377-0.839-0.839-0.839H34.1c-0.462,0-0.839,0.377-0.839,0.839V20.176z"/>
		<path d="M23.148,28.281c0,0.462,0.377,0.839,0.839,0.839h2.133c0.462,0,0.839-0.377,0.839-0.839v-2.133
			c0-0.462-0.377-0.839-0.839-0.839h-2.133c-0.462,0-0.839,0.377-0.839,0.839V28.281z"/>
		<path d="M22.943,21.62c0,0.512,0.418,0.931,0.93,0.931h2.363c0.511,0,0.93-0.419,0.93-0.931v-2.363c0-0.51-0.419-0.929-0.93-0.929
			h-2.363c-0.511,0-0.93,0.419-0.93,0.929V21.62z"/>
	</g>
</g>
</svg>
