<?xml version="1.0" encoding="utf-8"?>
<!-- Generator: Adobe Illustrator 16.0.0, SVG Export Plug-In . SVG Version: 6.00 Build 0)  -->
<!DOCTYPE svg PUBLIC "-//W3C//DTD SVG 1.1//EN" "http://www.w3.org/Graphics/SVG/1.1/DTD/svg11.dtd">
<svg version="1.1" id="Layer_1" xmlns="http://www.w3.org/2000/svg" xmlns:xlink="http://www.w3.org/1999/xlink" x="0px" y="0px"
	 width="50px" height="50px" viewBox="0 0 50 50" enable-background="new 0 0 50 50" xml:space="preserve">
<g>
	<path d="M35.285,31.964l-1.867-16.797c-0.056-0.511-0.57-0.93-1.143-0.93H17.725c-0.572,0-1.087,0.419-1.143,0.93l-1.867,16.797
		c0,0.02-0.011,0.036-0.011,0.057v1.871c0,1.032,0.84,1.872,1.872,1.872h16.847c1.032,0,1.872-0.84,1.872-1.872v-1.871
		C35.295,32,35.285,31.983,35.285,31.964z M21.706,20.563l2.07,2.289l4.719-3.933l1.282,1.536l-6.195,5.162l-3.36-3.71
		L21.706,20.563z M34.359,33.892c0,0.516-0.421,0.937-0.936,0.937H16.577c-0.515,0-0.936-0.421-0.936-0.937v-1.871
		c0-0.516,0.421-0.937,0.936-0.937h16.847c0.515,0,0.936,0.421,0.936,0.937V33.892z"/>
	<circle cx="17.659" cy="32.956" r="0.673"/>
</g>
</svg>
