<?xml version="1.0" encoding="utf-8"?>
<!-- Generator: Adobe Illustrator 16.0.0, SVG Export Plug-In . SVG Version: 6.00 Build 0)  -->
<!DOCTYPE svg PUBLIC "-//W3C//DTD SVG 1.1//EN" "http://www.w3.org/Graphics/SVG/1.1/DTD/svg11.dtd">
<svg version="1.1" id="Layer_1" xmlns="http://www.w3.org/2000/svg" xmlns:xlink="http://www.w3.org/1999/xlink" x="0px" y="0px"
	 width="50px" height="50px" viewBox="0 0 50 50" enable-background="new 0 0 50 50" xml:space="preserve">
<g>
	<path d="M37.706,22.084c-0.514-1.841-1.981-3.18-3.729-3.18c-0.02,0-0.038,0.006-0.058,0.007c-0.281-3.498-2.779-6.246-5.853-6.246
		c-1.73,0-3.272,0.884-4.354,2.265c-0.682-0.658-1.546-1.07-2.499-1.07c-2.14,0-3.874,1.993-3.931,4.471
		c-0.375-0.166-0.778-0.268-1.203-0.268c-1.885,0-3.412,1.781-3.412,3.977c-1.334,0-2.414,1.259-2.414,2.812s1.08,2.812,2.414,2.812
		c0.015,0,1.781,0,4.352,0c0-3.74,2.592-6.935,6.159-7.767v-2.25l5.06,3.162l0.414-0.258l0.529,0.327
		c2.378,1.47,3.799,4.007,3.799,6.786c2.574,0,4.34,0,4.352,0c1.334,0,2.414-1.259,2.414-2.812
		C39.746,23.448,38.861,22.294,37.706,22.084z"/>
	<path d="M19.662,27.665c0-2.663,1.963-4.871,4.517-5.268v1.162l3.285-2.053l-3.285-2.053v1.284
		c-3.463,0.409-6.159,3.357-6.159,6.928c0,2.508,1.333,4.705,3.325,5.935l1.61-1.006C21.024,31.79,19.662,29.884,19.662,27.665z"/>
	<path d="M28.655,21.73l-1.61,1.006c1.931,0.804,3.293,2.71,3.293,4.929c0,2.663-1.963,4.871-4.517,5.268v-1.162l-3.285,2.053
		l3.285,2.053v-1.284c3.463-0.409,6.159-3.357,6.159-6.928C31.98,25.157,30.646,22.96,28.655,21.73z"/>
</g>
</svg>
