<?xml version="1.0" encoding="utf-8"?>
<!-- Generator: Adobe Illustrator 16.0.0, SVG Export Plug-In . SVG Version: 6.00 Build 0)  -->
<!DOCTYPE svg PUBLIC "-//W3C//DTD SVG 1.1//EN" "http://www.w3.org/Graphics/SVG/1.1/DTD/svg11.dtd">
<svg version="1.1" id="Layer_1" xmlns="http://www.w3.org/2000/svg" xmlns:xlink="http://www.w3.org/1999/xlink" x="0px" y="0px"
	 width="50px" height="50px" viewBox="0 0 50 50" enable-background="new 0 0 50 50" xml:space="preserve">
<g>
	<polygon points="17.601,23.188 27.987,21.415 27.611,19.735 17.219,21.454 	"/>
	<path d="M19.16,30.286l0.387,1.761l4.234-0.835c0-0.006-0.002-0.01-0.002-0.016v-1.797L19.16,30.286z"/>
	<path d="M18.57,27.602l5.208-0.957v-1.394c0-0.136,0.014-0.267,0.039-0.395l-5.629,1.006L18.57,27.602z"/>
	<path d="M23.778,33.942l-5.254,1.078l-3.449-15.743l13.523-2.142l1.072,4.776c0.243-0.017,0.488-0.027,0.733-0.032l-2.027-9.021
		l-15.043,2.189l4.596,21.008l5.856-1.217c-0.001-0.025-0.007-0.05-0.007-0.076V33.942z"/>
	<path d="M30.723,31.196c-3.284,0-5.945-1.064-5.945-2.378v2.378c0,1.313,2.661,2.378,5.945,2.378s5.945-1.064,5.945-2.378v-2.378
		C36.667,30.132,34.006,31.196,30.723,31.196z"/>
	<path d="M30.723,34.764c-3.284,0-5.945-1.064-5.945-2.379v2.379c0,1.313,2.661,2.378,5.945,2.378s5.945-1.064,5.945-2.378v-2.379
		C36.667,33.699,34.006,34.764,30.723,34.764z"/>
	<path d="M30.723,22.873c-3.284,0-5.945,1.064-5.945,2.378v2.378c0,1.314,2.661,2.379,5.945,2.379s5.945-1.064,5.945-2.379v-2.378
		C36.667,23.938,34.006,22.873,30.723,22.873z M30.723,27.034c-3.267,0-5.351-1.056-5.351-1.783s2.084-1.784,5.351-1.784
		s5.351,1.057,5.351,1.784S33.989,27.034,30.723,27.034z"/>
</g>
</svg>
