<?xml version="1.0" encoding="utf-8"?>
<!-- Generator: Adobe Illustrator 16.0.0, SVG Export Plug-In . SVG Version: 6.00 Build 0)  -->
<!DOCTYPE svg PUBLIC "-//W3C//DTD SVG 1.1//EN" "http://www.w3.org/Graphics/SVG/1.1/DTD/svg11.dtd">
<svg version="1.1" id="Layer_1" xmlns="http://www.w3.org/2000/svg" xmlns:xlink="http://www.w3.org/1999/xlink" x="0px" y="0px"
	 width="50px" height="50px" viewBox="0 0 50 50" enable-background="new 0 0 50 50" xml:space="preserve">
<g>
	<circle cx="17.659" cy="32.956" r="0.673"/>
	<circle cx="25" cy="22.327" r="1.531"/>
	<path d="M35.285,31.964l-1.867-16.797c-0.056-0.511-0.57-0.93-1.143-0.93H17.725c-0.572,0-1.087,0.419-1.143,0.93l-1.867,16.797
		c0,0.02-0.01,0.036-0.01,0.057v1.871c0,1.032,0.84,1.872,1.871,1.872h16.848c1.031,0,1.871-0.84,1.871-1.872v-1.871
		C35.295,32,35.285,31.983,35.285,31.964z M21.691,22.649l0.573-0.211c0.078-0.029,0.145-0.209,0.149-0.267
		c0.002-0.059-0.057-0.137-0.133-0.17l-0.553-0.257c-0.077-0.034-0.111-0.126-0.076-0.201l0.577-1.252
		c0.035-0.077,0.127-0.11,0.202-0.076l0.554,0.257c0.077,0.034,0.25-0.047,0.294-0.084c0.046-0.038,0.059-0.135,0.028-0.213
		l-0.211-0.573c-0.029-0.08,0.012-0.168,0.092-0.197l1.292-0.477c0.078-0.028,0.167,0.013,0.196,0.09l0.211,0.573
		c0.029,0.08,0.21,0.146,0.269,0.148c0.058,0.004,0.134-0.056,0.17-0.131l0.256-0.555c0.034-0.076,0.127-0.109,0.202-0.075
		l1.251,0.577c0.076,0.035,0.109,0.126,0.076,0.203l-0.256,0.553c-0.036,0.076,0.045,0.25,0.082,0.294
		c0.039,0.046,0.135,0.06,0.216,0.029l0.57-0.212c0.079-0.029,0.169,0.013,0.197,0.092l0.477,1.292
		c0.029,0.078-0.011,0.167-0.09,0.196l-0.572,0.212c-0.08,0.029-0.144,0.101-0.144,0.159c0,0.06,0.051,0.244,0.127,0.278
		l0.553,0.256c0.077,0.035,0.11,0.126,0.075,0.202l-0.576,1.251c-0.035,0.077-0.126,0.11-0.203,0.076l-0.553-0.257
		c-0.078-0.034-0.25,0.046-0.296,0.084c-0.045,0.038-0.058,0.135-0.027,0.214l0.211,0.572c0.029,0.08-0.012,0.168-0.091,0.197
		l-1.292,0.477c-0.079,0.029-0.169-0.013-0.197-0.091l-0.211-0.572c-0.029-0.08-0.209-0.146-0.267-0.148
		c-0.059-0.003-0.136,0.056-0.171,0.131L24.418,25.6c-0.033,0.076-0.126,0.109-0.202,0.074l-1.252-0.577
		c-0.076-0.035-0.11-0.127-0.075-0.202l0.257-0.553c0.034-0.078-0.046-0.25-0.084-0.294c-0.038-0.047-0.135-0.06-0.214-0.029
		l-0.573,0.212c-0.077,0.029-0.167-0.013-0.196-0.091l-0.477-1.294C21.573,22.767,21.614,22.678,21.691,22.649z M34.359,33.892
		c0,0.516-0.422,0.937-0.936,0.937H16.576c-0.514,0-0.936-0.421-0.936-0.937v-1.871c0-0.516,0.422-0.937,0.936-0.937h16.848
		c0.514,0,0.936,0.421,0.936,0.937V33.892z"/>
</g>
</svg>
