<?xml version="1.0" encoding="utf-8"?>
<!-- Generator: Adobe Illustrator 16.0.0, SVG Export Plug-In . SVG Version: 6.00 Build 0)  -->
<!DOCTYPE svg PUBLIC "-//W3C//DTD SVG 1.1//EN" "http://www.w3.org/Graphics/SVG/1.1/DTD/svg11.dtd">
<svg version="1.1" id="Layer_1" xmlns="http://www.w3.org/2000/svg" xmlns:xlink="http://www.w3.org/1999/xlink" x="0px" y="0px"
	 width="50px" height="50px" viewBox="0 0 50 50" enable-background="new 0 0 50 50" xml:space="preserve">
<g>
	<path d="M24.038,26.346c0.08,0.107,0.133,0.213,0.133,0.312c0,0.676-1.938,1.658-4.973,1.658c-3.036,0-4.974-0.981-4.974-1.658
		S16.162,25,19.198,25c0.14,0,0.266,0.012,0.401,0.016c-0.226-0.171-0.417-0.359-0.566-0.562c-2.975,0.036-5.361,1.005-5.361,2.204
		v7.736c0,1.221,2.474,2.21,5.526,2.21c3.052,0,5.525-0.989,5.525-2.21v-7.736c0-0.097-0.041-0.19-0.071-0.283
		C24.447,26.37,24.242,26.36,24.038,26.346z"/>
	<path d="M30.967,24.454c-0.149,0.203-0.341,0.391-0.566,0.562C30.536,25.012,30.662,25,30.802,25c3.036,0,4.974,0.981,4.974,1.658
		s-1.938,1.658-4.974,1.658s-4.973-0.981-4.973-1.658c0-0.098,0.053-0.204,0.133-0.312c-0.204,0.014-0.409,0.023-0.614,0.028
		c-0.03,0.093-0.071,0.186-0.071,0.283v7.736c0,1.221,2.474,2.21,5.525,2.21c3.053,0,5.526-0.989,5.526-2.21v-7.736
		C36.328,25.459,33.941,24.49,30.967,24.454z"/>
	<g>
		<path d="M25,13.396c-3.052,0-5.525,0.989-5.525,2.21v7.736c0,1.221,2.474,2.21,5.525,2.21s5.525-0.989,5.525-2.21v-7.736
			C30.525,14.385,28.052,13.396,25,13.396z M25,13.949c3.036,0,4.974,0.981,4.974,1.658c0,0.676-1.938,1.658-4.974,1.658
			s-4.974-0.982-4.974-1.658C20.026,14.93,21.964,13.949,25,13.949z"/>
	</g>
</g>
</svg>
