<?xml version="1.0" encoding="utf-8"?>
<!-- Generator: Adobe Illustrator 16.0.0, SVG Export Plug-In . SVG Version: 6.00 Build 0)  -->
<!DOCTYPE svg PUBLIC "-//W3C//DTD SVG 1.1//EN" "http://www.w3.org/Graphics/SVG/1.1/DTD/svg11.dtd">
<svg version="1.1" id="Layer_1" xmlns="http://www.w3.org/2000/svg" xmlns:xlink="http://www.w3.org/1999/xlink" x="0px" y="0px"
	 width="50px" height="50px" viewBox="0 0 50 50" enable-background="new 0 0 50 50" xml:space="preserve">
<g>
	<circle cx="17.659" cy="33.956" r="0.673"/>
	<circle cx="17.659" cy="27.956" r="0.673"/>
	<circle cx="17.659" cy="21.956" r="0.673"/>
	<path d="M16.576,35.828c-0.514,0-0.936-0.421-0.936-0.937V33.02c0-0.516,0.422-0.937,0.936-0.937h8.674c0-0.001,0-0.002,0-0.003
		c0-0.79,0.141-1.546,0.387-2.253h-9.061c-0.514,0-0.936-0.421-0.936-0.937V27.02c0-0.516,0.422-0.937,0.936-0.937h12.197
		c0.992-0.557,2.135-0.878,3.352-0.878c1.066,0,2.073,0.251,2.975,0.687l-0.301-1.741c0.305-0.333,0.496-0.773,0.496-1.26V21.02
		c0-0.021-0.01-0.037-0.01-0.057l-1.867-6.797c-0.056-0.511-0.57-0.93-1.143-0.93H17.725c-0.572,0-1.087,0.419-1.143,0.93
		l-1.867,6.797c0,0.02-0.01,0.036-0.01,0.057v1.871c0,0.486,0.191,0.927,0.496,1.26l-0.486,2.812c0,0.02-0.01,0.036-0.01,0.057
		v1.871c0,0.486,0.191,0.927,0.496,1.26l-0.486,2.812c0,0.02-0.01,0.036-0.01,0.057v1.871c0,1.032,0.84,1.872,1.871,1.872h10.529
		c-0.271-0.291-0.519-0.602-0.737-0.936H16.576z M15.641,21.02c0-0.516,0.422-0.937,0.936-0.937h16.848
		c0.514,0,0.936,0.421,0.936,0.937v1.871c0,0.516-0.422,0.937-0.936,0.937H16.576c-0.514,0-0.936-0.421-0.936-0.937V21.02z"/>
	<path d="M32.125,26.206c-3.244,0-5.875,2.63-5.875,5.875s2.631,5.875,5.875,5.875S38,35.325,38,32.081S35.369,26.206,32.125,26.206
		z M35.062,32.962h-2.057v2.056h-1.762v-2.056h-2.057v-1.763h2.057v-2.056h1.762v2.056h2.057V32.962z"/>
</g>
</svg>
