<?xml version="1.0" encoding="utf-8"?>
<!-- Generator: Adobe Illustrator 16.0.4, SVG Export Plug-In . SVG Version: 6.00 Build 0)  -->
<!DOCTYPE svg PUBLIC "-//W3C//DTD SVG 1.1//EN" "http://www.w3.org/Graphics/SVG/1.1/DTD/svg11.dtd">
<svg version="1.1" id="Layer_1" xmlns="http://www.w3.org/2000/svg" xmlns:xlink="http://www.w3.org/1999/xlink" x="0px" y="0px"
	 width="50px" height="50px" viewBox="0 0 50 50" enable-background="new 0 0 50 50" xml:space="preserve">
<path d="M30.973,32.542l0.836,1.449c-0.518,0.354-1.136,0.569-1.809,0.569H20c-1.792,0-3.25-1.459-3.25-3.25v-12
	c0-1.792,1.458-3.25,3.25-3.25h10c1.792,0,3.25,1.458,3.25,3.25v0.137c-1.029-0.567-2.197-0.887-3.408-0.887
	c-1.23,0-2.443,0.326-3.511,0.942c-3.362,1.942-4.518,6.257-2.578,9.619c1.254,2.171,3.595,3.52,6.108,3.52
	C30.236,32.641,30.605,32.602,30.973,32.542z M35.084,22.579c1.666,2.885,0.674,6.587-2.211,8.253s-6.588,0.674-8.254-2.211
	c-1.665-2.885-0.673-6.586,2.212-8.252C29.716,18.704,33.418,19.694,35.084,22.579z M26.157,23.216c0,0.074,0.036,0.112,0.11,0.112
	c0.075,0,0.113-0.037,0.113-0.112v-0.963c0-0.075-0.038-0.112-0.113-0.112c-0.074,0-0.11,0.037-0.11,0.112V23.216z M33.323,23.216
	c0,0.074,0.036,0.112,0.11,0.112s0.112-0.037,0.112-0.112v-0.963c0-0.075-0.038-0.112-0.112-0.112s-0.11,0.037-0.11,0.112V23.216z
	 M33.062,23.178v-0.876c0-0.124,0.039-0.218,0.11-0.284c0.039-0.034,0.093-0.035,0.138-0.052c-1.578-1.498-4.002-1.873-5.979-0.731
	c-0.354,0.205-0.665,0.457-0.949,0.728c0.05,0.016,0.104,0.019,0.146,0.056c0.074,0.066,0.113,0.16,0.113,0.284v0.876
	c0,0.114-0.039,0.206-0.113,0.271c-0.074,0.066-0.16,0.1-0.26,0.1s-0.186-0.034-0.261-0.1c-0.071-0.065-0.11-0.156-0.11-0.271
	v-0.691c-1.234,1.573-1.471,3.799-0.411,5.634c0.187,0.323,0.411,0.614,0.653,0.88v-1.35h0.26v1.59
	c1.578,1.492,3.998,1.865,5.975,0.725c0.348-0.201,0.652-0.445,0.934-0.71v-1.604h0.258v1.326c1.433-1.58,1.775-3.954,0.653-5.897
	c-0.12-0.208-0.268-0.388-0.411-0.572v0.67c0,0.114-0.039,0.206-0.111,0.271c-0.075,0.066-0.162,0.1-0.26,0.1
	c-0.101,0-0.188-0.034-0.262-0.1C33.102,23.385,33.062,23.293,33.062,23.178z M34.393,30.461l-2.598,1.5l2,3.464l2.598-1.5
	L34.393,30.461z M36.661,34.395l-2.599,1.5c0.414,0.719,1.332,0.963,2.049,0.549C36.83,36.03,37.076,35.113,36.661,34.395z
	 M28.787,21.919h-0.26v1.63h0.26V21.919z M28.916,24.885c0.075,0.066,0.111,0.16,0.111,0.283v0.877c0,0.115-0.036,0.206-0.111,0.271
	c-0.074,0.066-0.161,0.1-0.259,0.1c-0.099,0-0.188-0.033-0.261-0.1c-0.073-0.065-0.109-0.156-0.109-0.271v-0.877
	c0-0.123,0.036-0.217,0.109-0.283c0.072-0.066,0.162-0.1,0.261-0.1C28.755,24.785,28.842,24.819,28.916,24.885z M28.77,25.119
	c0-0.074-0.037-0.111-0.111-0.111s-0.11,0.037-0.11,0.111v0.964c0,0.074,0.036,0.112,0.11,0.112s0.111-0.038,0.111-0.112V25.119z
	 M28.916,27.751c0.075,0.065,0.111,0.16,0.111,0.283v0.877c0,0.114-0.036,0.206-0.111,0.271c-0.074,0.066-0.161,0.101-0.259,0.101
	c-0.099,0-0.188-0.034-0.261-0.101c-0.073-0.064-0.109-0.156-0.109-0.271v-0.877c0-0.123,0.036-0.218,0.109-0.283
	c0.072-0.065,0.162-0.099,0.261-0.099C28.755,27.652,28.842,27.686,28.916,27.751z M28.77,27.986c0-0.075-0.037-0.112-0.111-0.112
	s-0.11,0.037-0.11,0.112v0.963c0,0.074,0.036,0.111,0.11,0.111s0.111-0.037,0.111-0.111V27.986z M26.529,24.885
	c0.072,0.066,0.111,0.16,0.111,0.283v0.877c0,0.115-0.039,0.206-0.111,0.271c-0.075,0.066-0.161,0.1-0.26,0.1
	c-0.101,0-0.187-0.033-0.262-0.1c-0.072-0.065-0.109-0.156-0.109-0.271v-0.877c0-0.123,0.037-0.217,0.109-0.283
	c0.075-0.066,0.161-0.1,0.262-0.1C26.367,24.785,26.453,24.819,26.529,24.885z M26.382,25.119c0-0.074-0.038-0.111-0.112-0.111
	s-0.111,0.037-0.111,0.111v0.964c0,0.074,0.037,0.112,0.111,0.112s0.112-0.038,0.112-0.112V25.119z M31.307,22.018
	c0.073,0.066,0.111,0.16,0.111,0.284v0.876c0,0.114-0.038,0.206-0.111,0.271c-0.076,0.066-0.162,0.1-0.261,0.1
	s-0.187-0.034-0.26-0.1c-0.073-0.065-0.11-0.156-0.11-0.271v-0.876c0-0.124,0.037-0.218,0.11-0.284s0.161-0.099,0.26-0.099
	S31.23,21.953,31.307,22.018z M31.159,22.253c0-0.075-0.039-0.112-0.113-0.112c-0.073,0-0.11,0.037-0.11,0.112v0.963
	c0,0.074,0.037,0.112,0.11,0.112c0.074,0,0.113-0.037,0.113-0.112V22.253z M31.307,24.885c0.073,0.066,0.111,0.16,0.111,0.283v0.877
	c0,0.115-0.038,0.206-0.111,0.271c-0.076,0.066-0.162,0.1-0.261,0.1s-0.187-0.033-0.26-0.1c-0.073-0.065-0.11-0.156-0.11-0.271
	v-0.877c0-0.123,0.037-0.217,0.11-0.283c0.073-0.066,0.161-0.1,0.26-0.1S31.23,24.819,31.307,24.885z M31.159,25.119
	c0-0.074-0.039-0.111-0.113-0.111c-0.073,0-0.11,0.037-0.11,0.111v0.964c0,0.074,0.037,0.112,0.11,0.112
	c0.074,0,0.113-0.038,0.113-0.112V25.119z M30.916,29.282h0.26v-1.63h-0.26V29.282z M33.062,25.168c0-0.123,0.039-0.217,0.11-0.283
	c0.074-0.066,0.161-0.1,0.261-0.1c0.099,0,0.186,0.034,0.26,0.1c0.074,0.066,0.111,0.16,0.111,0.283v0.877
	c0,0.115-0.037,0.206-0.111,0.271c-0.074,0.066-0.161,0.1-0.26,0.1c-0.1,0-0.187-0.033-0.261-0.1
	c-0.071-0.065-0.11-0.156-0.11-0.271V25.168z M33.323,26.083c0,0.074,0.036,0.112,0.11,0.112s0.112-0.038,0.112-0.112v-0.964
	c0-0.074-0.038-0.111-0.112-0.111s-0.11,0.037-0.11,0.111V26.083z"/>
</svg>
