<?xml version="1.0" encoding="utf-8"?>
<!-- Generator: Adobe Illustrator 16.0.0, SVG Export Plug-In . SVG Version: 6.00 Build 0)  -->
<!DOCTYPE svg PUBLIC "-//W3C//DTD SVG 1.1//EN" "http://www.w3.org/Graphics/SVG/1.1/DTD/svg11.dtd">
<svg version="1.1" id="Layer_1" xmlns="http://www.w3.org/2000/svg" xmlns:xlink="http://www.w3.org/1999/xlink" x="0px" y="0px"
	 width="50px" height="50px" viewBox="0 0 50 50" enable-background="new 0 0 50 50" xml:space="preserve">
<g>
	<g>
		<path d="M35.087,18.056v1.211l2.051,0.376c0.4,0.073,0.658,0.43,0.578,0.796c-0.069,0.321-0.378,0.544-0.722,0.544
			c-0.048,0-0.097-0.004-0.146-0.014l-1.762-0.323v0.493l2.024,0.303c0.402,0.059,0.676,0.408,0.61,0.777
			c-0.059,0.332-0.373,0.568-0.728,0.568c-0.04,0-0.08-0.003-0.119-0.009l-1.788-0.267v0.466l2.013,0.268
			c0.402,0.053,0.683,0.397,0.624,0.769c-0.054,0.336-0.369,0.578-0.729,0.578c-0.036,0-0.071-0.003-0.108-0.007l-1.799-0.24v0.488
			l1.992,0.214c0.404,0.044,0.694,0.379,0.647,0.751c-0.045,0.344-0.364,0.598-0.732,0.598c-0.028,0-0.058-0.002-0.088-0.005
			l-1.819-0.196v8.644h2.951V18.599L35.087,18.056z M36.398,28.524c-0.339,0-0.615-0.252-0.615-0.564
			c0-0.311,0.276-0.564,0.615-0.564s0.614,0.253,0.614,0.564C37.013,28.271,36.737,28.524,36.398,28.524z"/>
	</g>
	<g>
		<path d="M31.15,17.3v1.265l2.052,0.393c0.4,0.077,0.658,0.45,0.578,0.833c-0.07,0.335-0.379,0.568-0.723,0.568
			c-0.048,0-0.097-0.005-0.146-0.014l-1.761-0.337v0.515l2.024,0.316c0.402,0.062,0.676,0.426,0.61,0.812
			c-0.059,0.347-0.372,0.594-0.728,0.594c-0.039,0-0.079-0.003-0.119-0.01l-1.788-0.279v0.487l2.013,0.281
			c0.403,0.056,0.683,0.415,0.624,0.803c-0.054,0.352-0.369,0.604-0.729,0.604c-0.035,0-0.07-0.002-0.107-0.007l-1.8-0.25v0.51
			l1.993,0.224c0.404,0.046,0.693,0.397,0.646,0.786c-0.044,0.359-0.363,0.625-0.732,0.625c-0.028,0-0.057-0.002-0.088-0.005
			l-1.819-0.205v9.033h2.952V17.866L31.15,17.3z M32.462,28.24c-0.339,0-0.615-0.264-0.615-0.59c0-0.325,0.276-0.589,0.615-0.589
			c0.34,0,0.615,0.264,0.615,0.589C33.077,27.976,32.802,28.24,32.462,28.24z"/>
	</g>
	<g>
		<g>
			<polygon points="11.962,34.84 19.834,34.84 19.834,15.16 11.962,19.096 			"/>
		</g>
		<g>
			<path d="M20.326,15.16v1.349c0.049,0,0.096-0.011,0.145,0l8.795,1.758c0.399,0.08,0.659,0.469,0.579,0.869
				c-0.07,0.351-0.379,0.593-0.724,0.593c-0.047,0-0.097-0.005-0.146-0.015l-8.649-1.729v0.816c0.039,0,0.078-0.01,0.118-0.003
				l8.794,1.433c0.403,0.065,0.677,0.445,0.61,0.847c-0.059,0.362-0.371,0.62-0.728,0.62c-0.039,0-0.079-0.003-0.119-0.01
				l-8.676-1.413v0.65c0.036-0.001,0.07-0.012,0.106-0.007l8.794,1.279c0.403,0.058,0.683,0.434,0.625,0.837
				c-0.054,0.367-0.369,0.631-0.73,0.631c-0.035,0-0.07-0.003-0.107-0.008l-8.688-1.264v0.744c0.029-0.001,0.057-0.012,0.086-0.009
				l8.795,1.033c0.405,0.048,0.694,0.415,0.647,0.82c-0.045,0.375-0.363,0.652-0.733,0.652c-0.028,0-0.057-0.002-0.086-0.005
				l-8.709-1.022V34.84h9.841V17.128L20.326,15.16z M28.525,27.953c-0.338,0-0.615-0.276-0.615-0.615s0.277-0.615,0.615-0.615
				c0.34,0,0.615,0.276,0.615,0.615S28.865,27.953,28.525,27.953z"/>
		</g>
	</g>
</g>
</svg>
