<?xml version="1.0" encoding="utf-8"?>
<!-- Generator: Adobe Illustrator 16.0.0, SVG Export Plug-In . SVG Version: 6.00 Build 0)  -->
<!DOCTYPE svg PUBLIC "-//W3C//DTD SVG 1.1//EN" "http://www.w3.org/Graphics/SVG/1.1/DTD/svg11.dtd">
<svg version="1.1" id="Layer_1" xmlns="http://www.w3.org/2000/svg" xmlns:xlink="http://www.w3.org/1999/xlink" x="0px" y="0px"
	 width="50px" height="50px" viewBox="0 0 50 50" enable-background="new 0 0 50 50" xml:space="preserve">
<g>
	<path d="M26.753,34.5h-9c-1.378,0-2.5-1.122-2.5-2.5V21c0-1.378,1.122-2.5,2.5-2.5h9c1.206,0,2.216,0.859,2.449,1.997
		c0.324-0.091,0.65-0.163,0.979-0.203c-0.328-1.592-1.74-2.794-3.428-2.794h-5.306c0.232-1.14,1.242-2,2.449-2h4.856
		c1.378,0,2.5,1.122,2.5,2.5v2.259c0.337,0.015,0.671,0.058,1,0.125V18c0-1.93-1.57-3.5-3.5-3.5h-4.856
		c-1.758,0-3.204,1.309-3.449,3h-2.694c-1.93,0-3.5,1.57-3.5,3.5v11c0,1.93,1.57,3.5,3.5,3.5h9c1.517,0,2.798-0.976,3.283-2.327
		c-0.331-0.048-0.655-0.123-0.974-0.221C28.687,33.859,27.794,34.5,26.753,34.5z"/>
	<rect x="17.253" y="21.125" width="6.656" height="0.75"/>
	<rect x="17.253" y="24.458" width="5.125" height="0.75"/>
	<rect x="17.253" y="27.792" width="5.125" height="0.75"/>
	<rect x="17.253" y="31.125" width="6.656" height="0.75"/>
	<path d="M34.671,26.473l0.917-0.338c0.126-0.046,0.191-0.188,0.145-0.314l-0.764-2.066c-0.046-0.126-0.188-0.192-0.314-0.145
		l-0.915,0.337c-0.127,0.047-0.28,0.026-0.341-0.045c-0.062-0.073-0.189-0.35-0.133-0.471l0.408-0.885
		c0.057-0.122,0.003-0.269-0.12-0.325l-1.999-0.922c-0.123-0.056-0.269-0.002-0.325,0.12l-0.408,0.885
		c-0.056,0.123-0.179,0.218-0.273,0.211c-0.093-0.006-0.381-0.11-0.428-0.236l-0.337-0.917c-0.047-0.126-0.188-0.191-0.315-0.145
		l-2.066,0.762c-0.127,0.047-0.192,0.188-0.145,0.315l0.337,0.916c0.047,0.126,0.027,0.28-0.045,0.341
		c-0.071,0.062-0.347,0.189-0.47,0.133l-0.884-0.408c-0.122-0.057-0.268-0.002-0.325,0.12l-0.923,2
		c-0.057,0.122-0.002,0.268,0.12,0.325l0.884,0.408c0.123,0.056,0.218,0.179,0.211,0.272c-0.005,0.093-0.11,0.381-0.236,0.428
		l-0.916,0.337c-0.126,0.047-0.191,0.188-0.145,0.314l0.762,2.068c0.046,0.126,0.188,0.191,0.314,0.145l0.916-0.338
		c0.126-0.047,0.28-0.026,0.341,0.045c0.062,0.071,0.189,0.348,0.133,0.471l-0.408,0.883c-0.057,0.122-0.002,0.269,0.119,0.325
		l2.001,0.923c0.123,0.057,0.269,0.002,0.325-0.12l0.408-0.884c0.056-0.123,0.179-0.217,0.272-0.212
		c0.093,0.006,0.38,0.11,0.427,0.237l0.338,0.915c0.046,0.127,0.188,0.192,0.314,0.146l2.067-0.762
		c0.126-0.047,0.191-0.188,0.145-0.315l-0.337-0.916c-0.047-0.126-0.026-0.28,0.045-0.341c0.072-0.062,0.349-0.189,0.471-0.133
		l0.885,0.408c0.122,0.056,0.268,0.002,0.325-0.12l0.921-2c0.057-0.122,0.002-0.269-0.12-0.325l-0.884-0.408
		c-0.122-0.057-0.205-0.351-0.205-0.444C34.441,26.635,34.544,26.52,34.671,26.473z M31.146,28.948
		c-1.268,0.467-2.676-0.182-3.144-1.45c-0.467-1.268,0.182-2.676,1.45-3.144s2.676,0.181,3.144,1.449
		C33.063,27.072,32.414,28.48,31.146,28.948z"/>
</g>
</svg>
