<?xml version="1.0" encoding="utf-8"?>
<!-- Generator: Adobe Illustrator 16.0.0, SVG Export Plug-In . SVG Version: 6.00 Build 0)  -->
<!DOCTYPE svg PUBLIC "-//W3C//DTD SVG 1.1//EN" "http://www.w3.org/Graphics/SVG/1.1/DTD/svg11.dtd">
<svg version="1.1" id="Layer_1" xmlns="http://www.w3.org/2000/svg" xmlns:xlink="http://www.w3.org/1999/xlink" x="0px" y="0px"
	 width="50px" height="50px" viewBox="0 0 50 50" enable-background="new 0 0 50 50" xml:space="preserve">
<g>
	<path d="M22.135,12.694c-5.214,0-9.44,1.69-9.44,3.776v3.776c0,2.087,4.226,3.776,9.44,3.776s9.44-1.689,9.44-3.776V16.47
		C31.576,14.384,27.35,12.694,22.135,12.694z M22.135,19.302c-5.187,0-8.497-1.677-8.497-2.832s3.31-2.832,8.497-2.832
		s8.497,1.677,8.497,2.832S27.322,19.302,22.135,19.302z"/>
	<path d="M31.576,24.759v-2.624c0,2.086-4.226,3.776-9.44,3.776s-9.44-1.689-9.44-3.776v3.776c0,2.086,4.226,3.776,9.44,3.776
		c1.032,0,2.021-0.068,2.951-0.191C25.968,26.752,28.542,24.759,31.576,24.759z"/>
	<path d="M24.759,31.576c0-0.052,0.006-0.102,0.008-0.152c-0.836,0.097-1.717,0.151-2.632,0.151c-5.214,0-9.44-1.689-9.44-3.776
		v3.776c0,2.087,4.226,3.776,9.44,3.776c1.274,0,2.488-0.103,3.597-0.285C25.119,34.044,24.759,32.853,24.759,31.576z"/>
	<path d="M31.576,25.845c-3.165,0-5.73,2.566-5.73,5.731c0,3.164,2.565,5.729,5.73,5.729s5.73-2.565,5.73-5.729
		C37.306,28.411,34.74,25.845,31.576,25.845z M33.865,34.68h-0.9l-0.128-0.922l-2.298-3.98c-0.101,0.014-0.2-0.008-0.292-0.047
		c-1.472,0.893-2.177,1.392-2.352,2.338c-0.21-0.951,0.015-1.767,1.896-2.973c-0.026-0.217,0.075-0.44,0.276-0.556l0.382-0.22
		c0.171-0.1,0.371-0.087,0.535-0.002l1.198-0.839l0.747-0.431l0.606,1.05l-0.746,0.431c0,0-0.287-0.073-1.397,0.529
		c-0.011,0.104-0.042,0.206-0.106,0.29l2.297,3.98l0.735,0.572L33.865,34.68z"/>
</g>
</svg>
