<?xml version="1.0" encoding="utf-8"?>
<!-- Generator: Adobe Illustrator 16.0.0, SVG Export Plug-In . SVG Version: 6.00 Build 0)  -->
<!DOCTYPE svg PUBLIC "-//W3C//DTD SVG 1.1//EN" "http://www.w3.org/Graphics/SVG/1.1/DTD/svg11.dtd">
<svg version="1.1" id="Layer_1" xmlns="http://www.w3.org/2000/svg" xmlns:xlink="http://www.w3.org/1999/xlink" x="0px" y="0px"
	 width="50px" height="50px" viewBox="0 0 50 50" enable-background="new 0 0 50 50" xml:space="preserve">
<g>
	<path d="M20.697,19.339c0-2.373,1.93-4.304,4.303-4.304c2.372,0,4.303,1.931,4.303,4.304v2.32h2.534v-2.32
		c0-3.771-3.067-6.838-6.837-6.838c-3.771,0-6.838,3.067-6.838,6.838v2.32h2.535V19.339z"/>
	<path d="M33.237,22.293H16.763c-0.696,0-1.267,0.57-1.267,1.267v12.672c0,0.697,0.571,1.267,1.267,1.267h16.474
		c0.696,0,1.267-0.57,1.267-1.267V23.56C34.504,22.863,33.933,22.293,33.237,22.293z M20.165,34.292h-0.233
		c-0.524,0-0.95-0.426-0.95-0.95c0-0.525,0.426-0.951,0.95-0.951h0.233c0.525,0,0.95,0.426,0.95,0.951
		C21.115,33.866,20.689,34.292,20.165,34.292z M20.165,30.846h-0.233c-0.524,0-0.95-0.425-0.95-0.95s0.426-0.95,0.95-0.95h0.233
		c0.525,0,0.95,0.425,0.95,0.95S20.689,30.846,20.165,30.846z M20.165,27.401h-0.233c-0.524,0-0.95-0.426-0.95-0.951
		c0-0.524,0.426-0.95,0.95-0.95h0.233c0.525,0,0.95,0.426,0.95,0.95C21.115,26.976,20.689,27.401,20.165,27.401z M30.069,34.292
		h-6.77c-0.525,0-0.951-0.426-0.951-0.95c0-0.525,0.426-0.951,0.951-0.951h6.77c0.524,0,0.95,0.426,0.95,0.951
		C31.019,33.866,30.593,34.292,30.069,34.292z M30.069,30.846h-6.77c-0.525,0-0.951-0.425-0.951-0.95s0.426-0.95,0.951-0.95h6.77
		c0.524,0,0.95,0.425,0.95,0.95S30.593,30.846,30.069,30.846z M30.069,27.401h-6.77c-0.525,0-0.951-0.426-0.951-0.951
		c0-0.524,0.426-0.95,0.951-0.95h6.77c0.524,0,0.95,0.426,0.95,0.95C31.019,26.976,30.593,27.401,30.069,27.401z"/>
</g>
</svg>
