<?xml version="1.0" encoding="utf-8"?>
<!-- Generator: Adobe Illustrator 16.0.0, SVG Export Plug-In . SVG Version: 6.00 Build 0)  -->
<!DOCTYPE svg PUBLIC "-//W3C//DTD SVG 1.1//EN" "http://www.w3.org/Graphics/SVG/1.1/DTD/svg11.dtd">
<svg version="1.1" id="Layer_1" xmlns="http://www.w3.org/2000/svg" xmlns:xlink="http://www.w3.org/1999/xlink" x="0px" y="0px"
	 width="50px" height="50px" viewBox="0 0 50 50" enable-background="new 0 0 50 50" xml:space="preserve">
<g>
	<path d="M36.719,12.7H13.281c-1.348,0-2.451,1.104-2.451,2.451v15.609c0,1.348,1.104,2.451,2.451,2.451H24V35.3h-7.5l-1,1v1h19v-1
		l-1-1H26v-2.088h10.719c1.349,0,2.451-1.104,2.451-2.451V15.151C39.17,13.804,38.068,12.7,36.719,12.7z M38.17,27.761
		c0,0.8-0.651,1.451-1.451,1.451H13.281c-0.8,0-1.451-0.651-1.451-1.451V15.151c0-0.8,0.651-1.451,1.451-1.451h23.438
		c0.8,0,1.451,0.651,1.451,1.451V27.761z"/>
	<path d="M25,15.42c-3.313,0-6,2.688-6,6c0,0.783,0.15,1.531,0.423,2.217C20.305,25.854,22.47,27.42,25,27.42
		c2.529,0,4.693-1.565,5.576-3.78C30.85,22.953,31,22.204,31,21.42C31,18.107,28.313,15.42,25,15.42z M25.343,21.8l-0.707-0.707
		l3.451-2.744L25.343,21.8z M29.879,23.362l-0.464-0.186c0.223-0.559,0.335-1.149,0.335-1.757c0-1.311-0.533-2.498-1.394-3.358
		l-0.263,0.264c-0.827-0.825-1.925-1.28-3.093-1.28c-2.412,0-4.375,1.963-4.375,4.375c0,0.559,0.104,1.103,0.308,1.616l-0.581,0.231
		l-0.232,0.092l-0.348,0.139c-0.263-0.661-0.397-1.36-0.397-2.078c0-3.102,2.523-5.625,5.625-5.625c1.502,0,2.914,0.584,3.976,1.646
		l-0.267,0.267c0.952,0.95,1.541,2.264,1.541,3.712C30.25,22.091,30.125,22.744,29.879,23.362z"/>
</g>
</svg>
