<?xml version="1.0" encoding="utf-8"?>
<!-- Generator: Adobe Illustrator 16.0.0, SVG Export Plug-In . SVG Version: 6.00 Build 0)  -->
<!DOCTYPE svg PUBLIC "-//W3C//DTD SVG 1.1//EN" "http://www.w3.org/Graphics/SVG/1.1/DTD/svg11.dtd">
<svg version="1.1" id="Layer_1" xmlns="http://www.w3.org/2000/svg" xmlns:xlink="http://www.w3.org/1999/xlink" x="0px" y="0px"
	 width="50px" height="50px" viewBox="0 0 50 50" enable-background="new 0 0 50 50" xml:space="preserve">
<g>
	<path d="M36.325,13.745H12.887c-1.348,0-2.451,1.103-2.451,2.451v15.608c0,1.348,1.104,2.451,2.451,2.451h10.72v2.088h-7.5l-1,1v1
		h19v-1l-1-1h-7.5v-2.088h10.719c1.349,0,2.451-1.103,2.451-2.451V16.196C38.776,14.848,37.674,13.745,36.325,13.745z
		 M37.776,28.804c0,0.8-0.651,1.451-1.451,1.451H12.887c-0.8,0-1.451-0.651-1.451-1.451V16.196c0-0.8,0.651-1.451,1.451-1.451
		h23.438c0.8,0,1.451,0.651,1.451,1.451V28.804z"/>
	<path d="M16.282,15.312c-0.138,0-0.262,0.047-0.363,0.138c-0.102,0.092-0.152,0.224-0.152,0.394v1.223
		c0,0.16,0.051,0.287,0.152,0.378c0.102,0.093,0.226,0.139,0.363,0.139c0.136,0,0.257-0.046,0.36-0.139
		c0.105-0.091,0.156-0.218,0.156-0.378v-1.223c0-0.17-0.051-0.302-0.156-0.394C16.539,15.359,16.418,15.312,16.282,15.312z
		 M16.438,17.12c0,0.104-0.052,0.156-0.156,0.156c-0.104,0-0.153-0.053-0.153-0.156v-1.343c0-0.103,0.05-0.154,0.153-0.154
		c0.104,0,0.156,0.052,0.156,0.154V17.12z"/>
	<path d="M16.282,19.308c-0.138,0-0.262,0.046-0.363,0.138c-0.102,0.092-0.152,0.223-0.152,0.396v1.222
		c0,0.16,0.051,0.287,0.152,0.378c0.102,0.093,0.226,0.139,0.363,0.139c0.136,0,0.257-0.046,0.36-0.139
		c0.105-0.091,0.156-0.218,0.156-0.378v-1.222c0-0.172-0.051-0.304-0.156-0.396C16.539,19.354,16.418,19.308,16.282,19.308z
		 M16.438,21.114c0,0.104-0.052,0.156-0.156,0.156c-0.104,0-0.153-0.052-0.153-0.156v-1.341c0-0.105,0.05-0.157,0.153-0.157
		c0.104,0,0.156,0.052,0.156,0.157V21.114z"/>
	<path d="M12.953,15.312c-0.14,0-0.26,0.047-0.362,0.138c-0.101,0.092-0.155,0.224-0.155,0.394v1.223
		c0,0.16,0.055,0.287,0.155,0.378c0.103,0.093,0.223,0.139,0.362,0.139c0.136,0,0.256-0.046,0.361-0.139
		c0.104-0.091,0.156-0.218,0.156-0.378v-1.223c0-0.17-0.053-0.302-0.156-0.394C13.209,15.359,13.089,15.312,12.953,15.312z
		 M13.111,17.12c0,0.104-0.054,0.156-0.158,0.156c-0.103,0-0.155-0.053-0.155-0.156v-1.343c0-0.103,0.053-0.154,0.155-0.154
		c0.104,0,0.158,0.052,0.158,0.154V17.12z"/>
	<rect x="12.774" y="19.308" width="0.361" height="2.272"/>
	<path d="M19.611,15.312c-0.138,0-0.26,0.047-0.362,0.138c-0.102,0.092-0.154,0.224-0.154,0.394v1.223
		c0,0.16,0.053,0.287,0.154,0.378c0.103,0.093,0.225,0.139,0.362,0.139c0.137,0,0.257-0.046,0.361-0.139
		c0.104-0.091,0.156-0.218,0.156-0.378v-1.223c0-0.17-0.053-0.302-0.156-0.394C19.868,15.359,19.748,15.312,19.611,15.312z
		 M19.77,17.12c0,0.104-0.054,0.156-0.158,0.156c-0.104,0-0.155-0.053-0.155-0.156v-1.343c0-0.103,0.052-0.154,0.155-0.154
		c0.104,0,0.158,0.052,0.158,0.154V17.12z"/>
	<rect x="19.431" y="19.308" width="0.362" height="2.272"/>
	<path d="M22.939,15.312c-0.139,0-0.259,0.047-0.363,0.138c-0.101,0.092-0.154,0.224-0.154,0.394v1.223
		c0,0.16,0.054,0.287,0.154,0.378c0.104,0.093,0.225,0.139,0.363,0.139c0.137,0,0.258-0.046,0.362-0.139
		c0.103-0.091,0.155-0.218,0.155-0.378v-1.223c0-0.17-0.053-0.302-0.155-0.394C23.197,15.359,23.076,15.312,22.939,15.312z
		 M23.098,17.12c0,0.104-0.055,0.156-0.158,0.156s-0.155-0.053-0.155-0.156v-1.343c0-0.103,0.052-0.154,0.155-0.154
		s0.158,0.052,0.158,0.154V17.12z"/>
	<rect x="22.761" y="19.308" width="0.359" height="2.272"/>
	<rect x="16.103" y="23.426" width="0.361" height="2.272"/>
	<path d="M16.282,27.42c-0.138,0-0.262,0.047-0.363,0.139c-0.102,0.092-0.152,0.223-0.152,0.393v1.224
		c0,0.159,0.051,0.286,0.152,0.379c0.102,0.091,0.226,0.137,0.363,0.137c0.136,0,0.257-0.046,0.36-0.137
		c0.105-0.093,0.156-0.22,0.156-0.379v-1.224c0-0.17-0.051-0.301-0.156-0.393C16.539,27.467,16.418,27.42,16.282,27.42z
		 M16.438,29.228c0,0.104-0.052,0.156-0.156,0.156c-0.104,0-0.153-0.053-0.153-0.156v-1.343c0-0.103,0.05-0.155,0.153-0.155
		c0.104,0,0.156,0.052,0.156,0.155V29.228z"/>
	<path d="M12.953,23.426c-0.14,0-0.26,0.046-0.362,0.138c-0.101,0.092-0.155,0.223-0.155,0.395v1.222
		c0,0.16,0.055,0.287,0.155,0.379c0.103,0.091,0.223,0.138,0.362,0.138c0.136,0,0.256-0.047,0.361-0.138
		c0.104-0.092,0.156-0.219,0.156-0.379v-1.222c0-0.172-0.053-0.303-0.156-0.395C13.209,23.472,13.089,23.426,12.953,23.426z
		 M13.111,25.232c0,0.105-0.054,0.156-0.158,0.156c-0.103,0-0.155-0.051-0.155-0.156V23.89c0-0.104,0.053-0.156,0.155-0.156
		c0.104,0,0.158,0.053,0.158,0.156V25.232z"/>
	<path d="M12.953,27.42c-0.14,0-0.26,0.047-0.362,0.139c-0.101,0.092-0.155,0.223-0.155,0.393v1.224
		c0,0.159,0.055,0.286,0.155,0.379c0.103,0.091,0.223,0.137,0.362,0.137c0.136,0,0.256-0.046,0.361-0.137
		c0.104-0.093,0.156-0.22,0.156-0.379v-1.224c0-0.17-0.053-0.301-0.156-0.393C13.209,27.467,13.089,27.42,12.953,27.42z
		 M13.111,29.228c0,0.104-0.054,0.156-0.158,0.156c-0.103,0-0.155-0.053-0.155-0.156v-1.343c0-0.103,0.053-0.155,0.155-0.155
		c0.104,0,0.158,0.052,0.158,0.155V29.228z"/>
	<path d="M19.611,23.426c-0.138,0-0.26,0.046-0.362,0.138c-0.102,0.092-0.154,0.223-0.154,0.395v1.222
		c0,0.16,0.053,0.287,0.154,0.379c0.103,0.091,0.225,0.138,0.362,0.138c0.137,0,0.257-0.047,0.361-0.138
		c0.104-0.092,0.156-0.219,0.156-0.379v-1.222c0-0.172-0.053-0.303-0.156-0.395C19.868,23.472,19.748,23.426,19.611,23.426z
		 M19.77,25.232c0,0.105-0.054,0.156-0.158,0.156c-0.104,0-0.155-0.051-0.155-0.156V23.89c0-0.104,0.052-0.156,0.155-0.156
		c0.104,0,0.158,0.053,0.158,0.156V25.232z"/>
	<path d="M19.611,27.42c-0.138,0-0.26,0.047-0.362,0.139c-0.102,0.092-0.154,0.223-0.154,0.393v1.224
		c0,0.159,0.053,0.286,0.154,0.379c0.103,0.091,0.225,0.137,0.362,0.137c0.137,0,0.257-0.046,0.361-0.137
		c0.104-0.093,0.156-0.22,0.156-0.379v-1.224c0-0.17-0.053-0.301-0.156-0.393C19.868,27.467,19.748,27.42,19.611,27.42z
		 M19.77,29.228c0,0.104-0.054,0.156-0.158,0.156c-0.104,0-0.155-0.053-0.155-0.156v-1.343c0-0.103,0.052-0.155,0.155-0.155
		c0.104,0,0.158,0.052,0.158,0.155V29.228z"/>
	<path d="M22.939,23.426c-0.139,0-0.259,0.046-0.363,0.138c-0.101,0.092-0.154,0.223-0.154,0.395v1.222
		c0,0.16,0.054,0.287,0.154,0.379c0.104,0.091,0.225,0.138,0.363,0.138c0.137,0,0.258-0.047,0.362-0.138
		c0.103-0.092,0.155-0.219,0.155-0.379v-1.222c0-0.172-0.053-0.303-0.155-0.395C23.197,23.472,23.076,23.426,22.939,23.426z
		 M23.098,25.232c0,0.105-0.055,0.156-0.158,0.156s-0.155-0.051-0.155-0.156V23.89c0-0.104,0.052-0.156,0.155-0.156
		s0.158,0.053,0.158,0.156V25.232z"/>
	<path d="M22.939,27.42c-0.139,0-0.259,0.047-0.363,0.139c-0.101,0.092-0.154,0.223-0.154,0.393v1.224
		c0,0.159,0.054,0.286,0.154,0.379c0.104,0.091,0.225,0.137,0.363,0.137c0.137,0,0.258-0.046,0.362-0.137
		c0.103-0.093,0.155-0.22,0.155-0.379v-1.224c0-0.17-0.053-0.301-0.155-0.393C23.197,27.467,23.076,27.42,22.939,27.42z
		 M23.098,29.228c0,0.104-0.055,0.156-0.158,0.156s-0.155-0.053-0.155-0.156v-1.343c0-0.103,0.052-0.155,0.155-0.155
		s0.158,0.052,0.158,0.155V29.228z"/>
	<path d="M29.604,15.312c-0.138,0-0.263,0.047-0.363,0.138c-0.104,0.092-0.153,0.224-0.153,0.394v1.223
		c0,0.16,0.05,0.287,0.153,0.378c0.101,0.093,0.226,0.139,0.363,0.139c0.136,0,0.256-0.046,0.36-0.139
		c0.103-0.091,0.155-0.218,0.155-0.378v-1.223c0-0.17-0.053-0.302-0.155-0.394C29.859,15.359,29.739,15.312,29.604,15.312z
		 M29.757,17.12c0,0.104-0.05,0.156-0.153,0.156c-0.105,0-0.156-0.053-0.156-0.156v-1.343c0-0.103,0.051-0.154,0.156-0.154
		c0.104,0,0.153,0.052,0.153,0.154V17.12z"/>
	<path d="M29.604,19.308c-0.138,0-0.263,0.046-0.363,0.138c-0.104,0.092-0.153,0.223-0.153,0.396v1.222
		c0,0.16,0.05,0.287,0.153,0.378c0.101,0.093,0.226,0.139,0.363,0.139c0.136,0,0.256-0.046,0.36-0.139
		c0.103-0.091,0.155-0.218,0.155-0.378v-1.222c0-0.172-0.053-0.304-0.155-0.396C29.859,19.354,29.739,19.308,29.604,19.308z
		 M29.757,21.114c0,0.104-0.05,0.156-0.153,0.156c-0.105,0-0.156-0.052-0.156-0.156v-1.341c0-0.105,0.051-0.157,0.156-0.157
		c0.104,0,0.153,0.052,0.153,0.157V21.114z"/>
	<path d="M26.273,15.312c-0.139,0-0.26,0.047-0.364,0.138c-0.101,0.092-0.152,0.224-0.152,0.394v1.223
		c0,0.16,0.052,0.287,0.152,0.378c0.104,0.093,0.226,0.139,0.364,0.139c0.137,0,0.257-0.046,0.362-0.139
		c0.102-0.091,0.155-0.218,0.155-0.378v-1.223c0-0.17-0.054-0.302-0.155-0.394C26.53,15.359,26.41,15.312,26.273,15.312z
		 M26.43,17.12c0,0.104-0.053,0.156-0.156,0.156s-0.156-0.053-0.156-0.156v-1.343c0-0.103,0.053-0.154,0.156-0.154
		s0.156,0.052,0.156,0.154V17.12z"/>
	<rect x="26.094" y="19.308" width="0.361" height="2.272"/>
	<path d="M32.933,15.312c-0.139,0-0.261,0.047-0.363,0.138c-0.103,0.092-0.155,0.224-0.155,0.394v1.223
		c0,0.16,0.053,0.287,0.155,0.378c0.103,0.093,0.225,0.139,0.363,0.139c0.136,0,0.256-0.046,0.361-0.139
		c0.102-0.091,0.155-0.218,0.155-0.378v-1.223c0-0.17-0.054-0.302-0.155-0.394C33.188,15.359,33.068,15.312,32.933,15.312z
		 M33.089,17.12c0,0.104-0.055,0.156-0.156,0.156c-0.104,0-0.158-0.053-0.158-0.156v-1.343c0-0.103,0.054-0.154,0.158-0.154
		c0.102,0,0.156,0.052,0.156,0.154V17.12z"/>
	<rect x="32.749" y="19.308" width="0.362" height="2.272"/>
	<path d="M36.261,15.312c-0.139,0-0.26,0.047-0.364,0.138c-0.102,0.092-0.154,0.224-0.154,0.394v1.223
		c0,0.16,0.053,0.287,0.154,0.378c0.104,0.093,0.226,0.139,0.364,0.139c0.137,0,0.257-0.046,0.361-0.139
		c0.101-0.091,0.155-0.218,0.155-0.378v-1.223c0-0.17-0.055-0.302-0.155-0.394C36.518,15.359,36.397,15.312,36.261,15.312z
		 M36.416,17.12c0,0.104-0.054,0.156-0.155,0.156c-0.105,0-0.157-0.053-0.157-0.156v-1.343c0-0.103,0.052-0.154,0.157-0.154
		c0.102,0,0.155,0.052,0.155,0.154V17.12z"/>
	<rect x="36.08" y="19.308" width="0.358" height="2.272"/>
	<rect x="29.422" y="23.426" width="0.36" height="2.272"/>
	<path d="M29.604,27.42c-0.138,0-0.263,0.047-0.363,0.139c-0.104,0.092-0.153,0.223-0.153,0.393v1.224
		c0,0.159,0.05,0.286,0.153,0.379c0.101,0.091,0.226,0.137,0.363,0.137c0.136,0,0.256-0.046,0.36-0.137
		c0.103-0.093,0.155-0.22,0.155-0.379v-1.224c0-0.17-0.053-0.301-0.155-0.393C29.859,27.467,29.739,27.42,29.604,27.42z
		 M29.757,29.228c0,0.104-0.05,0.156-0.153,0.156c-0.105,0-0.156-0.053-0.156-0.156v-1.343c0-0.103,0.051-0.155,0.156-0.155
		c0.104,0,0.153,0.052,0.153,0.155V29.228z"/>
	<path d="M26.273,23.426c-0.139,0-0.26,0.046-0.364,0.138c-0.101,0.092-0.152,0.223-0.152,0.395v1.222
		c0,0.16,0.052,0.287,0.152,0.379c0.104,0.091,0.226,0.138,0.364,0.138c0.137,0,0.257-0.047,0.362-0.138
		c0.102-0.092,0.155-0.219,0.155-0.379v-1.222c0-0.172-0.054-0.303-0.155-0.395C26.53,23.472,26.41,23.426,26.273,23.426z
		 M26.43,25.232c0,0.105-0.053,0.156-0.156,0.156s-0.156-0.051-0.156-0.156V23.89c0-0.104,0.053-0.156,0.156-0.156
		s0.156,0.053,0.156,0.156V25.232z"/>
	<path d="M26.273,27.42c-0.139,0-0.26,0.047-0.364,0.139c-0.101,0.092-0.152,0.223-0.152,0.393v1.224
		c0,0.159,0.052,0.286,0.152,0.379c0.104,0.091,0.226,0.137,0.364,0.137c0.137,0,0.257-0.046,0.362-0.137
		c0.102-0.093,0.155-0.22,0.155-0.379v-1.224c0-0.17-0.054-0.301-0.155-0.393C26.53,27.467,26.41,27.42,26.273,27.42z M26.43,29.228
		c0,0.104-0.053,0.156-0.156,0.156s-0.156-0.053-0.156-0.156v-1.343c0-0.103,0.053-0.155,0.156-0.155s0.156,0.052,0.156,0.155
		V29.228z"/>
	<path d="M32.933,23.426c-0.139,0-0.261,0.046-0.363,0.138s-0.155,0.223-0.155,0.395v1.222c0,0.16,0.053,0.287,0.155,0.379
		c0.103,0.091,0.225,0.138,0.363,0.138c0.136,0,0.256-0.047,0.361-0.138c0.102-0.092,0.155-0.219,0.155-0.379v-1.222
		c0-0.172-0.054-0.303-0.155-0.395C33.188,23.472,33.068,23.426,32.933,23.426z M33.089,25.232c0,0.105-0.055,0.156-0.156,0.156
		c-0.104,0-0.158-0.051-0.158-0.156V23.89c0-0.104,0.054-0.156,0.158-0.156c0.102,0,0.156,0.053,0.156,0.156V25.232z"/>
	<path d="M32.933,27.42c-0.139,0-0.261,0.047-0.363,0.139c-0.103,0.092-0.155,0.223-0.155,0.393v1.224
		c0,0.159,0.053,0.286,0.155,0.379c0.103,0.091,0.225,0.137,0.363,0.137c0.136,0,0.256-0.046,0.361-0.137
		c0.102-0.093,0.155-0.22,0.155-0.379v-1.224c0-0.17-0.054-0.301-0.155-0.393C33.188,27.467,33.068,27.42,32.933,27.42z
		 M33.089,29.228c0,0.104-0.055,0.156-0.156,0.156c-0.104,0-0.158-0.053-0.158-0.156v-1.343c0-0.103,0.054-0.155,0.158-0.155
		c0.102,0,0.156,0.052,0.156,0.155V29.228z"/>
	<path d="M36.261,23.426c-0.139,0-0.26,0.046-0.364,0.138c-0.102,0.092-0.154,0.223-0.154,0.395v1.222
		c0,0.16,0.053,0.287,0.154,0.379c0.104,0.091,0.226,0.138,0.364,0.138c0.137,0,0.257-0.047,0.361-0.138
		c0.101-0.092,0.155-0.219,0.155-0.379v-1.222c0-0.172-0.055-0.303-0.155-0.395C36.518,23.472,36.397,23.426,36.261,23.426z
		 M36.416,25.232c0,0.105-0.054,0.156-0.155,0.156c-0.105,0-0.157-0.051-0.157-0.156V23.89c0-0.104,0.052-0.156,0.157-0.156
		c0.102,0,0.155,0.053,0.155,0.156V25.232z"/>
	<path d="M36.261,27.42c-0.139,0-0.26,0.047-0.364,0.139c-0.102,0.092-0.154,0.223-0.154,0.393v1.224
		c0,0.159,0.053,0.286,0.154,0.379c0.104,0.091,0.226,0.137,0.364,0.137c0.137,0,0.257-0.046,0.361-0.137
		c0.101-0.093,0.155-0.22,0.155-0.379v-1.224c0-0.17-0.055-0.301-0.155-0.393C36.518,27.467,36.397,27.42,36.261,27.42z
		 M36.416,29.228c0,0.104-0.054,0.156-0.155,0.156c-0.105,0-0.157-0.053-0.157-0.156v-1.343c0-0.103,0.052-0.155,0.157-0.155
		c0.102,0,0.155,0.052,0.155,0.155V29.228z"/>
</g>
</svg>
