<?xml version="1.0" encoding="utf-8"?>
<!-- Generator: Adobe Illustrator 16.0.4, SVG Export Plug-In . SVG Version: 6.00 Build 0)  -->
<!DOCTYPE svg PUBLIC "-//W3C//DTD SVG 1.1//EN" "http://www.w3.org/Graphics/SVG/1.1/DTD/svg11.dtd">
<svg version="1.1" id="Layer_1" xmlns="http://www.w3.org/2000/svg" xmlns:xlink="http://www.w3.org/1999/xlink" x="0px" y="0px"
	 width="50px" height="50px" viewBox="0 0 50 50" enable-background="new 0 0 50 50" xml:space="preserve">
<path d="M26,33.212V35.3h7.5l1,1v1h-19v-1l1-1H24v-2.089H13.281c-1.347,0-2.451-1.104-2.451-2.451V15.151
	c0-1.347,1.103-2.451,2.451-2.451h23.438c1.35,0,2.451,1.103,2.451,2.451v5.002c-0.309-0.341-0.636-0.662-1-0.938v-4.064
	c0-0.8-0.65-1.451-1.451-1.451H13.281c-0.801,0-1.451,0.651-1.451,1.451v12.61c0,0.8,0.65,1.451,1.451,1.451h14.463
	c1.359,1.944,3.597,3.138,5.999,3.138c0.399,0,0.795-0.043,1.187-0.108l0.562,0.971H26z M39.209,21.872
	c1.742,3.017,0.705,6.892-2.314,8.632c-3.018,1.742-6.891,0.708-8.633-2.314c-1.742-3.015-0.705-6.888,2.312-8.63
	C33.591,17.818,37.466,18.854,39.209,21.872z M38.303,22.397c-1.455-2.519-4.687-3.384-7.205-1.933
	c-2.519,1.455-3.386,4.685-1.929,7.204c1.454,2.518,4.685,3.389,7.202,1.934C38.891,28.146,39.755,24.915,38.303,22.397z
	 M38.482,30.114l-2.717,1.57l2.094,3.62l2.717-1.57L38.482,30.114z M40.857,34.232l-2.719,1.568
	c0.436,0.752,1.395,1.008,2.146,0.576S41.292,34.984,40.857,34.232z M28.16,17.2H15v1h13.16V17.2z M24.75,19.562H15v1h9.75V19.562z
	 M24.75,21.925H15v1h9.75V21.925z M15,25.287h9.75v-1H15V25.287z"/>
</svg>
