<?xml version="1.0" encoding="utf-8"?>
<!-- Generator: Adobe Illustrator 16.0.0, SVG Export Plug-In . SVG Version: 6.00 Build 0)  -->
<!DOCTYPE svg PUBLIC "-//W3C//DTD SVG 1.1//EN" "http://www.w3.org/Graphics/SVG/1.1/DTD/svg11.dtd">
<svg version="1.1" id="Layer_1" xmlns="http://www.w3.org/2000/svg" xmlns:xlink="http://www.w3.org/1999/xlink" x="0px" y="0px"
	 width="50px" height="50px" viewBox="0 0 50 50" enable-background="new 0 0 50 50" xml:space="preserve">
<g>
	<path d="M36.719,12.7H13.281c-1.348,0-2.451,1.104-2.451,2.451v15.609c0,1.348,1.104,2.451,2.451,2.451H24V35.3h-7.5l-1,1v1h19v-1
		l-1-1H26v-2.088h10.719c1.349,0,2.451-1.104,2.451-2.451V15.151C39.17,13.804,38.068,12.7,36.719,12.7z M38.17,27.761
		c0,0.8-0.651,1.451-1.451,1.451H13.281c-0.8,0-1.451-0.651-1.451-1.451V15.151c0-0.8,0.651-1.451,1.451-1.451h23.438
		c0.8,0,1.451,0.651,1.451,1.451V27.761z"/>
	<g>
		<path d="M31.903,21.207c-0.279-1-1.077-1.728-2.026-1.728c-0.011,0-0.021,0.004-0.031,0.004c-0.153-1.9-1.51-3.394-3.18-3.394
			c-0.94,0-1.778,0.48-2.365,1.23c-0.371-0.357-0.84-0.581-1.358-0.581c-1.163,0-2.104,1.082-2.135,2.429
			c-0.204-0.09-0.423-0.146-0.654-0.146c-1.024,0-1.854,0.968-1.854,2.161c-0.725,0-1.312,0.685-1.312,1.528
			c0,0.843,0.587,1.527,1.312,1.527c0,0,1.633,0,3.757,0l-0.704-0.703v-0.001l-0.959-0.956l0.385-0.385
			c1.126-1.126,2.625-1.746,4.222-1.746c1.596,0,3.095,0.62,4.221,1.746l0.384,0.384l-0.958,0.958l-0.703,0.703
			c2.124,0,3.756,0,3.756,0c0.725,0,1.312-0.685,1.312-1.527C33.012,21.948,32.531,21.321,31.903,21.207z"/>
		<g>
			<path d="M21.163,22.578l0.554,0.553c1.811-1.811,4.757-1.809,6.566,0.001l0.554-0.554C26.722,20.462,23.279,20.462,21.163,22.578
				z"/>
			<path d="M22.122,23.536l0.554,0.554c1.282-1.282,3.369-1.282,4.65,0l0.554-0.554C26.293,21.948,23.709,21.948,22.122,23.536z"/>
			<path d="M23.109,24.523l0.555,0.556c0.737-0.737,1.935-0.737,2.673,0l0.553-0.556C25.848,23.481,24.151,23.481,23.109,24.523z"/>
			<circle cx="24.999" cy="25.823" r="0.744"/>
		</g>
	</g>
</g>
</svg>
