<?xml version="1.0" encoding="utf-8"?>
<!-- Generator: Adobe Illustrator 16.0.0, SVG Export Plug-In . SVG Version: 6.00 Build 0)  -->
<!DOCTYPE svg PUBLIC "-//W3C//DTD SVG 1.1//EN" "http://www.w3.org/Graphics/SVG/1.1/DTD/svg11.dtd">
<svg version="1.1" id="Layer_1" xmlns="http://www.w3.org/2000/svg" xmlns:xlink="http://www.w3.org/1999/xlink" x="0px" y="0px"
	 width="50px" height="50px" viewBox="0 0 50 50" enable-background="new 0 0 50 50" xml:space="preserve">
<g>
	<path d="M31.21,29.335v-0.123H13.281c-0.801,0-1.451-0.651-1.451-1.451V15.151c0-0.8,0.65-1.451,1.451-1.451h23.438
		c0.801,0,1.451,0.651,1.451,1.451v0.838h1v-0.838c0-1.348-1.102-2.451-2.451-2.451H13.281c-1.348,0-2.451,1.104-2.451,2.451v15.609
		c0,1.348,1.104,2.451,2.451,2.451H24V35.3h-7.5l-1,1v1h19v-1l-1-1H26v-2.088h10.719c0.892,0,1.667-0.487,2.096-1.202h-4.929
		C32.41,32.01,31.21,30.81,31.21,29.335z"/>
	<polygon points="31.21,22.999 24.46,19.625 24.46,21.998 21.562,21.998 21.562,24.015 24.46,24.015 24.46,26.375 	"/>
	<path d="M33.77,22.426h5.999V16.99H33.77V22.426z M37.648,19.332h1.312v1.312h-1.312V19.332z M34.578,19.332h1.312v1.312h-1.312
		V19.332z"/>
	<path d="M41.162,22.999c-0.018,0.148-0.201,0.25-0.521,0.25h-7.742c-0.319,0-0.504-0.101-0.521-0.25
		c-0.022,0.082-0.035,0.176-0.035,0.29v5.991c0,0.951,0.797,1.73,1.771,1.73h0.001h0.002h5.309h0.002h0.001
		c0.974,0,1.771-0.779,1.771-1.73v-5.991C41.197,23.175,41.185,23.08,41.162,22.999z M38.008,25.711c-0.067-0.001-0.136,0-0.205,0
		C37.8,25.717,37.8,25.72,37.8,25.726c0,0.154,0,0.306,0,0.461c0.003,0.146-0.054,0.271-0.151,0.377
		c-0.06,0.064-0.126,0.122-0.188,0.181c-0.169,0.161-0.337,0.319-0.507,0.481c-0.047,0.044-0.068,0.1-0.076,0.161
		c-0.001,0.018-0.004,0.034-0.004,0.05c0,0.367,0,0.732,0,1.098c0,0.015,0.004,0.019,0.02,0.024c0.207,0.049,0.361,0.222,0.39,0.435
		c0.038,0.271-0.15,0.531-0.424,0.576c-0.277,0.045-0.537-0.133-0.594-0.409c-0.056-0.27,0.118-0.54,0.384-0.601
		c0.017-0.006,0.02-0.012,0.02-0.028c-0.001-0.109-0.001-0.217-0.001-0.325c0-0.075-0.024-0.14-0.069-0.198
		c-0.004-0.004-0.005-0.007-0.012-0.011c-0.223-0.214-0.45-0.425-0.673-0.642c-0.108-0.106-0.17-0.241-0.17-0.4
		c0-0.158,0-0.316,0-0.476c0-0.011-0.004-0.017-0.018-0.022c-0.128-0.051-0.206-0.182-0.191-0.318
		c0.019-0.144,0.128-0.254,0.271-0.272c0.188-0.025,0.357,0.129,0.346,0.32c-0.004,0.129-0.071,0.219-0.193,0.272
		c-0.01,0.003-0.013,0.009-0.013,0.019c0,0.166,0,0.333,0.001,0.499c0.002,0.085,0.033,0.157,0.094,0.216
		c0.206,0.194,0.41,0.389,0.614,0.581c0.006,0.003,0.01,0.007,0.014,0.015c0-1.056,0-2.108,0-3.16c-0.082,0-0.166,0-0.255,0
		c0.121-0.209,0.239-0.413,0.358-0.62c0.122,0.207,0.239,0.41,0.36,0.618c-0.09,0-0.173,0-0.255,0c0,0.794-0.003,1.589,0,2.385
		c0.003-0.002,0.005-0.006,0.009-0.007c0.211-0.2,0.423-0.398,0.631-0.599c0.044-0.042,0.066-0.097,0.076-0.156
		c0.004-0.016,0.004-0.032,0.004-0.047c0-0.161,0-0.318,0-0.48c0-0.003,0-0.006,0-0.012c-0.069,0-0.136,0-0.205,0
		c0-0.208,0-0.413,0-0.618c0.205,0,0.409,0,0.617,0C38.008,25.298,38.008,25.503,38.008,25.711z"/>
</g>
</svg>
