<?xml version="1.0" encoding="utf-8"?>
<!-- Generator: Adobe Illustrator 16.0.0, SVG Export Plug-In . SVG Version: 6.00 Build 0)  -->
<!DOCTYPE svg PUBLIC "-//W3C//DTD SVG 1.1//EN" "http://www.w3.org/Graphics/SVG/1.1/DTD/svg11.dtd">
<svg version="1.1" id="Layer_1" xmlns="http://www.w3.org/2000/svg" xmlns:xlink="http://www.w3.org/1999/xlink" x="0px" y="0px"
	 width="50px" height="50px" viewBox="0 0 50 50" enable-background="new 0 0 50 50" xml:space="preserve">
<g>
	<polygon points="31.21,22.999 24.46,19.625 24.46,21.998 21.562,21.998 21.562,24.015 24.46,24.015 24.46,26.375 	"/>
	<path d="M36.719,33.212c0.492,0,0.95-0.15,1.335-0.402c-0.114,0.002-0.229,0.007-0.344,0.007c-3.511,0-7.064-1.177-7.064-3.426
		v-0.18H13.281c-0.801,0-1.451-0.651-1.451-1.451V15.151c0-0.8,0.65-1.451,1.451-1.451h23.438c0.801,0,1.451,0.651,1.451,1.451
		v1.121c0.336,0.01,0.67,0.03,1,0.061v-1.182c0-1.348-1.102-2.451-2.451-2.451H13.281c-1.348,0-2.451,1.104-2.451,2.451v15.609
		c0,1.348,1.104,2.451,2.451,2.451H24V35.3h-7.5l-1,1v1h19v-1l-1-1H26v-2.088H36.719z"/>
	<g>
		<path d="M37.71,25.753c-3.35,0-6.064-1.085-6.064-2.426v2.426c0,1.34,2.715,2.426,6.064,2.426s6.064-1.085,6.064-2.426v-2.426
			C43.774,24.667,41.06,25.753,37.71,25.753z"/>
		<path d="M37.71,29.392c-3.35,0-6.064-1.085-6.064-2.426v2.426c0,1.34,2.715,2.426,6.064,2.426s6.064-1.085,6.064-2.426v-2.426
			C43.774,28.306,41.06,29.392,37.71,29.392z"/>
		<path d="M37.71,17.262c-3.35,0-6.064,1.085-6.064,2.426v2.426c0,1.341,2.715,2.426,6.064,2.426s6.064-1.085,6.064-2.426v-2.426
			C43.774,18.348,41.06,17.262,37.71,17.262z M37.71,21.507c-3.332,0-5.458-1.077-5.458-1.819s2.126-1.819,5.458-1.819
			s5.458,1.077,5.458,1.819S41.042,21.507,37.71,21.507z"/>
	</g>
</g>
</svg>
