<?xml version="1.0" encoding="utf-8"?>
<!-- Generator: Adobe Illustrator 16.0.0, SVG Export Plug-In . SVG Version: 6.00 Build 0)  -->
<!DOCTYPE svg PUBLIC "-//W3C//DTD SVG 1.1//EN" "http://www.w3.org/Graphics/SVG/1.1/DTD/svg11.dtd">
<svg version="1.1" id="Layer_1" xmlns="http://www.w3.org/2000/svg" xmlns:xlink="http://www.w3.org/1999/xlink" x="0px" y="0px"
	 width="50px" height="50px" viewBox="0 0 50 50" enable-background="new 0 0 50 50" xml:space="preserve">
<g>
	<path d="M36.719,12.7H13.281c-1.348,0-2.451,1.104-2.451,2.451v15.609c0,1.348,1.104,2.451,2.451,2.451H24V35.3h-7.5l-1,1v1h19v-1
		l-1-1H26v-2.088h10.719c1.35,0,2.451-1.104,2.451-2.451V15.151C39.17,13.804,38.068,12.7,36.719,12.7z M38.17,27.761
		c0,0.8-0.65,1.451-1.451,1.451H13.281c-0.801,0-1.451-0.651-1.451-1.451V15.151c0-0.8,0.65-1.451,1.451-1.451h23.438
		c0.801,0,1.451,0.651,1.451,1.451V27.761z"/>
	<g>
		<path d="M22.884,18.438c0-1.168,0.949-2.118,2.116-2.118s2.118,0.95,2.118,2.118v1.141h1.247v-1.141
			c0-1.856-1.51-3.365-3.365-3.365c-1.854,0-3.365,1.509-3.365,3.365v1.141h1.249V18.438z"/>
		<path d="M29.055,19.891h-8.105c-0.343,0-0.625,0.281-0.625,0.623v6.234c0,0.343,0.282,0.624,0.625,0.624h8.105
			c0.342,0,0.621-0.281,0.621-0.624v-6.234C29.676,20.172,29.396,19.891,29.055,19.891z"/>
	</g>
</g>
</svg>
