<?xml version="1.0" encoding="utf-8"?>
<!-- Generator: Adobe Illustrator 16.0.4, SVG Export Plug-In . SVG Version: 6.00 Build 0)  -->
<!DOCTYPE svg PUBLIC "-//W3C//DTD SVG 1.1//EN" "http://www.w3.org/Graphics/SVG/1.1/DTD/svg11.dtd">
<svg version="1.1" id="Layer_1" xmlns="http://www.w3.org/2000/svg" xmlns:xlink="http://www.w3.org/1999/xlink" x="0px" y="0px"
	 width="50px" height="50px" viewBox="0 0 50 50" enable-background="new 0 0 50 50" xml:space="preserve">
<path d="M38.73,30.262l-0.982-1.701c0.396-0.463,0.721-0.979,0.982-1.533V30.262z M35.238,33.211l-1.391-2.41
	c-0.408,0.076-0.822,0.129-1.238,0.129c-1.684,0-3.276-0.637-4.504-1.719H12.841c-0.8,0-1.451-0.65-1.451-1.451V15.151
	c0-0.8,0.651-1.451,1.451-1.451h23.438c0.801,0,1.451,0.651,1.451,1.451v4.565c0.276,0.319,0.535,0.656,0.75,1.028
	c0.092,0.16,0.172,0.324,0.25,0.488v-6.081c0-1.348-1.103-2.451-2.451-2.451H12.841c-1.348,0-2.451,1.103-2.451,2.451V30.76
	c0,1.348,1.104,2.451,2.451,2.451h10.72v2.088h-7.5l-1,1v1h19v-1l-1-1h-7.5v-2.088H35.238z M37.831,21.118
	c1.666,2.885,0.674,6.587-2.211,8.253c-2.886,1.666-6.588,0.674-8.254-2.211c-1.665-2.884-0.673-6.586,2.212-8.252
	C32.462,17.243,36.165,18.233,37.831,21.118z M36.07,21.755c0,0.074,0.035,0.112,0.111,0.112c0.073,0,0.111-0.037,0.111-0.112
	v-0.963c0-0.075-0.038-0.112-0.111-0.112c-0.076,0-0.111,0.037-0.111,0.112V21.755z M28.904,21.755c0,0.074,0.037,0.112,0.111,0.112
	s0.112-0.037,0.112-0.112v-0.963c0-0.075-0.038-0.112-0.112-0.112s-0.111,0.037-0.111,0.112V21.755z M36.963,21.619
	c-0.12-0.208-0.268-0.388-0.412-0.572v0.67c0,0.114-0.037,0.206-0.111,0.271c-0.074,0.066-0.162,0.1-0.26,0.1
	c-0.1,0-0.187-0.034-0.261-0.1c-0.071-0.065-0.11-0.156-0.11-0.271v-0.876c0-0.124,0.039-0.218,0.11-0.284
	c0.039-0.034,0.093-0.035,0.138-0.052c-1.578-1.498-4.002-1.873-5.979-0.731c-0.354,0.205-0.664,0.456-0.949,0.728
	c0.05,0.016,0.104,0.019,0.146,0.056c0.074,0.066,0.113,0.16,0.113,0.284v0.876c0,0.114-0.039,0.206-0.113,0.271
	c-0.074,0.066-0.16,0.1-0.26,0.1s-0.186-0.034-0.261-0.1c-0.071-0.065-0.11-0.156-0.11-0.271v-0.691
	c-1.234,1.573-1.471,3.799-0.41,5.634c0.187,0.323,0.41,0.614,0.652,0.88v-1.35h0.26v1.589c1.578,1.493,3.998,1.866,5.975,0.726
	c0.349-0.201,0.652-0.445,0.933-0.71v-1.604h0.259v1.326C37.744,25.938,38.086,23.563,36.963,21.619z M37.139,29l-2.598,1.5l2,3.464
	l2.599-1.501L37.139,29z M39.408,32.934l-2.6,1.5c0.416,0.719,1.332,0.963,2.051,0.549C39.577,34.568,39.823,33.652,39.408,32.934z
	 M31.534,20.458h-0.259v1.63h0.259V20.458z M31.663,23.424c0.075,0.066,0.112,0.16,0.112,0.283v0.877
	c0,0.115-0.037,0.206-0.112,0.272c-0.074,0.066-0.161,0.099-0.259,0.099c-0.1,0-0.188-0.033-0.26-0.099
	c-0.074-0.066-0.11-0.157-0.11-0.272v-0.877c0-0.123,0.036-0.217,0.11-0.283c0.071-0.066,0.16-0.1,0.26-0.1
	C31.501,23.324,31.588,23.358,31.663,23.424z M31.516,23.658c0-0.074-0.037-0.111-0.111-0.111s-0.11,0.037-0.11,0.111v0.964
	c0,0.074,0.036,0.112,0.11,0.112s0.111-0.038,0.111-0.112V23.658z M31.663,26.29c0.075,0.065,0.112,0.16,0.112,0.283v0.877
	c0,0.114-0.037,0.206-0.112,0.271c-0.074,0.066-0.161,0.1-0.259,0.1c-0.1,0-0.188-0.033-0.26-0.1
	c-0.074-0.064-0.11-0.156-0.11-0.271v-0.877c0-0.123,0.036-0.218,0.11-0.283c0.071-0.065,0.16-0.099,0.26-0.099
	C31.501,26.191,31.588,26.225,31.663,26.29z M31.516,26.525c0-0.075-0.037-0.112-0.111-0.112s-0.11,0.037-0.11,0.112v0.963
	c0,0.074,0.036,0.111,0.11,0.111s0.111-0.037,0.111-0.111V26.525z M29.275,23.424c0.072,0.066,0.111,0.16,0.111,0.283v0.877
	c0,0.115-0.039,0.206-0.111,0.272c-0.075,0.066-0.162,0.099-0.26,0.099c-0.101,0-0.187-0.033-0.262-0.099
	c-0.072-0.066-0.109-0.157-0.109-0.272v-0.877c0-0.123,0.037-0.217,0.109-0.283c0.075-0.066,0.161-0.1,0.262-0.1
	C29.113,23.324,29.2,23.358,29.275,23.424z M29.128,23.658c0-0.074-0.038-0.111-0.112-0.111s-0.111,0.037-0.111,0.111v0.964
	c0,0.074,0.037,0.112,0.111,0.112s0.112-0.038,0.112-0.112V23.658z M34.052,20.557c0.074,0.066,0.112,0.16,0.112,0.284v0.876
	c0,0.114-0.038,0.206-0.112,0.271c-0.075,0.066-0.161,0.1-0.26,0.1s-0.187-0.034-0.26-0.1c-0.073-0.065-0.11-0.156-0.11-0.271
	v-0.876c0-0.124,0.037-0.218,0.11-0.284s0.161-0.099,0.26-0.099S33.977,20.492,34.052,20.557z M33.906,20.792
	c0-0.075-0.039-0.112-0.113-0.112s-0.111,0.037-0.111,0.112v0.963c0,0.074,0.037,0.112,0.111,0.112s0.113-0.037,0.113-0.112V20.792z
	 M34.052,23.424c0.074,0.066,0.112,0.16,0.112,0.283v0.877c0,0.115-0.038,0.206-0.112,0.272c-0.075,0.066-0.161,0.099-0.26,0.099
	s-0.187-0.033-0.26-0.099s-0.11-0.157-0.11-0.272v-0.877c0-0.123,0.037-0.217,0.11-0.283c0.073-0.066,0.161-0.1,0.26-0.1
	S33.977,23.358,34.052,23.424z M33.906,23.658c0-0.074-0.039-0.111-0.113-0.111s-0.111,0.037-0.111,0.111v0.964
	c0,0.074,0.037,0.112,0.111,0.112s0.113-0.038,0.113-0.112V23.658z M33.663,27.82h0.26v-1.629h-0.26V27.82z M36.441,23.424
	c0.072,0.066,0.11,0.16,0.11,0.283v0.877c0,0.115-0.038,0.206-0.11,0.272c-0.075,0.066-0.162,0.099-0.26,0.099
	c-0.101,0-0.188-0.033-0.262-0.099c-0.072-0.066-0.111-0.157-0.111-0.272v-0.877c0-0.123,0.039-0.217,0.111-0.283
	c0.074-0.066,0.161-0.1,0.262-0.1C36.279,23.324,36.366,23.358,36.441,23.424z M36.293,23.658c0-0.074-0.038-0.111-0.111-0.111
	c-0.076,0-0.111,0.037-0.111,0.111v0.964c0,0.074,0.035,0.112,0.111,0.112c0.073,0,0.111-0.038,0.111-0.112V23.658z"/>
</svg>
