<?xml version="1.0" encoding="utf-8"?>
<!-- Generator: Adobe Illustrator 16.0.0, SVG Export Plug-In . SVG Version: 6.00 Build 0)  -->
<!DOCTYPE svg PUBLIC "-//W3C//DTD SVG 1.1//EN" "http://www.w3.org/Graphics/SVG/1.1/DTD/svg11.dtd">
<svg version="1.1" id="Layer_1" xmlns="http://www.w3.org/2000/svg" xmlns:xlink="http://www.w3.org/1999/xlink" x="0px" y="0px"
	 width="50px" height="50px" viewBox="0 0 50 50" enable-background="new 0 0 50 50" xml:space="preserve">
<g>
	<path d="M36.325,13.745H12.887c-1.348,0-2.451,1.103-2.451,2.451v15.608c0,1.348,1.104,2.451,2.451,2.451h10.72v2.088h-7.5l-1,1v1
		h19v-1l-1-1h-7.5v-2.088h10.719c1.349,0,2.451-1.103,2.451-2.451V16.196C38.776,14.848,37.674,13.745,36.325,13.745z
		 M37.776,28.804c0,0.8-0.651,1.451-1.451,1.451H12.887c-0.8,0-1.451-0.651-1.451-1.451V16.196c0-0.8,0.651-1.451,1.451-1.451
		h23.438c0.8,0,1.451,0.651,1.451,1.451V28.804z"/>
	<path d="M20.562,26.516l4.524-6.123l4.491,2.51l2.163-4.936l4.006-2.223H12.887c-0.249,0-0.451,0.202-0.451,0.451v12.333
		l3.729-2.952L20.562,26.516z"/>
	<path d="M30.052,24.313l-4.685-2.617l-4.384,5.932l-4.567-0.975l-3.286,2.602h23.195c0.249,0,0.451-0.202,0.451-0.451V16.316
		l-4.255,2.362L30.052,24.313z"/>
</g>
</svg>
