<?xml version="1.0" encoding="utf-8"?>
<!-- Generator: Adobe Illustrator 16.0.0, SVG Export Plug-In . SVG Version: 6.00 Build 0)  -->
<!DOCTYPE svg PUBLIC "-//W3C//DTD SVG 1.1//EN" "http://www.w3.org/Graphics/SVG/1.1/DTD/svg11.dtd">
<svg version="1.1" id="Layer_1" xmlns="http://www.w3.org/2000/svg" xmlns:xlink="http://www.w3.org/1999/xlink" x="0px" y="0px"
	 width="50px" height="50px" viewBox="0 0 50 50" enable-background="new 0 0 50 50" xml:space="preserve">
<path d="M34.481,18.777H22.928v-0.889c0-1.47-1.196-2.667-2.666-2.667h-4.74c-1.47,0-2.666,1.197-2.666,2.667v15.403l-0.002,0.305
	c-0.004,0.508-0.007,0.788,0.189,0.985c0.179,0.181,0.435,0.195,0.778,0.195l20.659-0.004c1.47,0,2.666-1.196,2.666-2.666V21.443
	C37.147,19.974,35.951,18.777,34.481,18.777z M20.311,27.934v1.529h-3.506v-1.529H20.311z M16.805,27.488v-1.53h3.506v1.53H16.805z
	 M20.311,29.909v1.529h-3.506v-1.529H20.311z M23.816,29.463v-1.529h3.506v1.529H23.816z M27.322,29.909v1.529h-3.506v-1.529H27.322
	z M27.211,25.342h-4.999v3.208h1.185v0.297h-1.185h-0.296h-1.185V28.55h1.185v-3.208v-0.297h0.296h4.999V25.342z M27.322,25.958
	v-1.529h3.505v1.529H27.322z M36.555,32.107c0,1.144-0.931,2.073-2.074,2.073h-0.425c0.254-0.217,0.425-0.529,0.425-0.889V22.628
	c0-0.651-0.534-1.185-1.185-1.185H21.447c-0.651,0-1.185-0.534-1.185-1.186v-1.185c0-0.651-0.533-1.185-1.185-1.185h-4.74
	c-0.358,0-0.671,0.17-0.889,0.424v-0.424c0-1.144,0.931-2.074,2.074-2.074h4.74c1.143,0,2.074,0.931,2.074,2.074v1.48h12.146
	c1.143,0,2.074,0.931,2.074,2.074V32.107z"/>
</svg>
