<?xml version="1.0" encoding="utf-8"?>
<!-- Generator: Adobe Illustrator 16.0.0, SVG Export Plug-In . SVG Version: 6.00 Build 0)  -->
<!DOCTYPE svg PUBLIC "-//W3C//DTD SVG 1.1//EN" "http://www.w3.org/Graphics/SVG/1.1/DTD/svg11.dtd">
<svg version="1.1" id="Layer_1" xmlns="http://www.w3.org/2000/svg" xmlns:xlink="http://www.w3.org/1999/xlink" x="0px" y="0px"
	 width="50px" height="50px" viewBox="0 0 50 50" enable-background="new 0 0 50 50" xml:space="preserve">
<g>
	<path d="M31.597,12.75H18.403c-3.108,0-3.769,0.658-3.769,3.77V33.48c0,3.109,0.66,3.77,3.769,3.77h12.722v-1H18.403
		c-2.562,0-2.769-0.207-2.769-2.77V16.52c0-2.562,0.207-2.77,2.769-2.77h13.193c2.562,0,2.769,0.207,2.769,2.77v16.49h1V16.52
		C35.365,13.408,34.705,12.75,31.597,12.75z"/>
	<polygon points="31.745,36.629 34.745,33.629 31.745,33.629 	"/>
	<path d="M25,18c-3.867,0-7,3.135-7,7c0,3.866,3.133,7,7,7s7-3.134,7-7C32,21.135,28.867,18,25,18z M25,27.334
		c-1.288,0-2.333-1.046-2.333-2.334s1.045-2.334,2.333-2.334s2.333,1.046,2.333,2.334S26.288,27.334,25,27.334z"/>
	<circle cx="25" cy="25" r="1.75"/>
</g>
</svg>
