<?xml version="1.0" encoding="utf-8"?>
<!-- Generator: Adobe Illustrator 16.0.0, SVG Export Plug-In . SVG Version: 6.00 Build 0)  -->
<!DOCTYPE svg PUBLIC "-//W3C//DTD SVG 1.1//EN" "http://www.w3.org/Graphics/SVG/1.1/DTD/svg11.dtd">
<svg version="1.1" id="Layer_1" xmlns="http://www.w3.org/2000/svg" xmlns:xlink="http://www.w3.org/1999/xlink" x="0px" y="0px"
	 width="50px" height="50px" viewBox="0 0 50 50" enable-background="new 0 0 50 50" xml:space="preserve">
<g>
	<g>
		<path d="M25.104,15.724h-9.991c-2.354,0-2.854,0.498-2.854,2.854v12.844c0,2.354,0.5,2.854,2.854,2.854h9.635V33.52h-9.635
			c-1.939,0-2.096-0.157-2.096-2.098V18.578c0-1.94,0.156-2.098,2.096-2.098h9.991c1.94,0,2.097,0.157,2.097,2.098v12.487h0.758
			V18.578C27.959,16.222,27.459,15.724,25.104,15.724z"/>
		<polygon points="25.217,33.807 27.488,31.534 25.217,31.534 		"/>
		<rect x="14.531" y="22.729" width="7.928" height="0.646"/>
		<rect x="14.531" y="25.602" width="6.106" height="0.649"/>
		<rect x="14.531" y="28.477" width="6.106" height="0.648"/>
		<rect x="14.531" y="31.352" width="7.928" height="0.647"/>
	</g>
	<path d="M36.347,16.141h-0.175h-4.703c-1.148,0-1.393,0.243-1.393,1.394v6.27c0,1.15,0.244,1.394,1.393,1.394h4.703h0.175
		c1.149,0,1.394-0.243,1.394-1.394V23.63v-5.922v-0.174C37.74,16.384,37.496,16.141,36.347,16.141z M37.369,23.63v0.174
		c0,0.947-0.076,1.024-1.022,1.024h-0.175h-4.703c-0.946,0-1.022-0.077-1.022-1.024v-6.27c0-0.947,0.076-1.024,1.022-1.024h4.703
		h0.175c0.946,0,1.022,0.077,1.022,1.024v0.174V23.63z"/>
	<polygon points="29.053,19.919 31.553,19.919 31.553,18.669 34.053,20.669 31.553,22.669 31.553,21.419 29.053,21.419 	"/>
</g>
</svg>
