<?xml version="1.0" encoding="utf-8"?>
<!-- Generator: Adobe Illustrator 16.0.0, SVG Export Plug-In . SVG Version: 6.00 Build 0)  -->
<!DOCTYPE svg PUBLIC "-//W3C//DTD SVG 1.1//EN" "http://www.w3.org/Graphics/SVG/1.1/DTD/svg11.dtd">
<svg version="1.1" id="Layer_1" xmlns="http://www.w3.org/2000/svg" xmlns:xlink="http://www.w3.org/1999/xlink" x="0px" y="0px"
	 width="50px" height="50px" viewBox="0 0 50 50" enable-background="new 0 0 50 50" xml:space="preserve">
<g>
	<g>
		<path d="M18.385,36.202v-2.608c-1.839-0.083-3.623-0.577-4.667-1.18l0.823-3.214c1.154,0.633,2.772,1.209,4.559,1.209
			c1.565,0,2.636-0.605,2.636-1.702c0-1.044-0.879-1.703-2.912-2.389c-2.937-0.988-4.94-2.361-4.94-5.025
			c0-2.416,1.701-4.31,4.639-4.887v-2.608h2.691v2.417c1.84,0.082,3.074,0.466,3.981,0.905l-0.797,3.102
			c-0.713-0.3-1.976-0.932-3.954-0.932c-1.784,0-2.36,0.768-2.36,1.537c0,0.906,0.961,1.482,3.294,2.362
			c3.267,1.152,4.585,2.662,4.585,5.133c0,2.443-1.729,4.53-4.887,5.079v2.801H18.385z"/>
	</g>
	<polygon points="31.372,26.706 26.963,26.706 26.963,23.296 31.372,23.296 31.372,21.659 36.282,25 31.372,28.342 	"/>
</g>
</svg>
