<?xml version="1.0" encoding="utf-8"?>
<!-- Generator: Adobe Illustrator 16.0.0, SVG Export Plug-In . SVG Version: 6.00 Build 0)  -->
<!DOCTYPE svg PUBLIC "-//W3C//DTD SVG 1.1//EN" "http://www.w3.org/Graphics/SVG/1.1/DTD/svg11.dtd">
<svg version="1.1" id="Layer_1" xmlns="http://www.w3.org/2000/svg" xmlns:xlink="http://www.w3.org/1999/xlink" x="0px" y="0px"
	 width="50px" height="50px" viewBox="0 0 50 50" enable-background="new 0 0 50 50" xml:space="preserve">
<g>
	<path d="M33.597,10.75H20.403c-2.831,0-3.629,0.553-3.749,3h0.993c0.065-1.828,0.482-2,2.756-2h13.193
		c2.562,0,2.769,0.207,2.769,2.77v16.49h1V14.52C37.365,11.408,36.705,10.75,33.597,10.75z"/>
	<polygon points="34.365,34.009 36.745,31.629 34.365,31.629 	"/>
	<path d="M29.597,14.75H16.403c-3.108,0-3.769,0.658-3.769,3.77V35.48c0,3.109,0.66,3.77,3.769,3.77h12.722v-1H16.403
		c-2.562,0-2.769-0.207-2.769-2.77V18.52c0-2.562,0.207-2.77,2.769-2.77h13.193c2.562,0,2.769,0.207,2.769,2.77v16.49h1V18.52
		C33.365,15.408,32.705,14.75,29.597,14.75z"/>
	<polygon points="29.745,38.629 32.745,35.629 29.745,35.629 	"/>
	<path d="M19.869,31.894v-1.223c1.379-0.24,2.135-1.151,2.135-2.219c0-1.08-0.576-1.739-2.003-2.243
		c-1.02-0.384-1.439-0.636-1.439-1.031c0-0.336,0.252-0.672,1.032-0.672c0.863,0,1.415,0.276,1.727,0.408l0.348-1.355
		c-0.396-0.191-0.936-0.359-1.739-0.396v-1.056h-1.176v1.14c-1.283,0.252-2.027,1.079-2.027,2.135c0,1.163,0.875,1.763,2.159,2.194
		c0.887,0.3,1.271,0.588,1.271,1.044c0,0.479-0.468,0.743-1.151,0.743c-0.779,0-1.487-0.252-1.991-0.527l-0.36,1.403
		c0.456,0.264,1.235,0.479,2.039,0.516v1.139H19.869z"/>
	<rect x="23.551" y="23.96" width="6.917" height="1"/>
	<rect x="23.551" y="26.501" width="6.917" height="1"/>
	<rect x="23.551" y="29.042" width="6.917" height="1"/>
</g>
</svg>
