<?xml version="1.0" encoding="utf-8"?>
<!-- Generator: Adobe Illustrator 16.0.0, SVG Export Plug-In . SVG Version: 6.00 Build 0)  -->
<!DOCTYPE svg PUBLIC "-//W3C//DTD SVG 1.1//EN" "http://www.w3.org/Graphics/SVG/1.1/DTD/svg11.dtd">
<svg version="1.1" id="Layer_1" xmlns="http://www.w3.org/2000/svg" xmlns:xlink="http://www.w3.org/1999/xlink" x="0px" y="0px"
	 width="50px" height="50px" viewBox="0 0 50 50" enable-background="new 0 0 50 50" xml:space="preserve">
<g>
	<path d="M18.485,18.297c-0.146,0-0.222,0.074-0.222,0.22v1.914c0,0.148,0.075,0.222,0.222,0.222c0.148,0,0.226-0.074,0.226-0.222
		v-1.914C18.711,18.371,18.634,18.297,18.485,18.297z"/>
	<path d="M23.45,24.208c0-0.149-0.073-0.223-0.225-0.223c-0.147,0-0.218,0.073-0.218,0.223v1.367h0.442V24.208z"/>
	<path d="M27.97,14.962c0.146,0,0.224-0.074,0.224-0.222v-1.912c0-0.148-0.077-0.222-0.224-0.222c-0.147,0-0.223,0.074-0.223,0.222
		v1.912C27.747,14.888,27.822,14.962,27.97,14.962z"/>
	<path d="M23.226,18.297c-0.147,0-0.218,0.074-0.218,0.22v1.914c0,0.148,0.07,0.222,0.218,0.222c0.151,0,0.225-0.074,0.225-0.222
		v-1.914C23.45,18.371,23.377,18.297,23.226,18.297z"/>
	<path d="M32.486,18.517v1.914c0,0.148,0.073,0.222,0.224,0.222c0.146,0,0.224-0.074,0.224-0.222v-1.914
		c0-0.146-0.077-0.22-0.224-0.22C32.56,18.297,32.486,18.371,32.486,18.517z"/>
	<path d="M27.97,18.297c-0.147,0-0.223,0.074-0.223,0.22v1.914c0,0.148,0.075,0.222,0.223,0.222c0.146,0,0.224-0.074,0.224-0.222
		v-1.914C28.193,18.371,28.116,18.297,27.97,18.297z"/>
	<path d="M36.021,20.735c-0.408-1.462-1.515-2.548-2.861-2.722c0.022,0.015,0.046,0.022,0.065,0.04
		c0.146,0.13,0.223,0.317,0.223,0.561v1.742c0,0.229-0.077,0.408-0.223,0.54c-0.147,0.131-0.32,0.196-0.515,0.196
		c-0.198,0-0.37-0.065-0.519-0.196c-0.143-0.132-0.22-0.311-0.22-0.54v-1.742c0-0.244,0.077-0.431,0.22-0.561
		c0.148-0.131,0.32-0.198,0.519-0.198c0.002,0,0.004,0.001,0.006,0.001c-0.257-2.582-1.899-4.669-4.052-5.172
		c0.021,0.075,0.042,0.151,0.042,0.243v1.739c0,0.229-0.075,0.41-0.222,0.54c-0.148,0.131-0.321,0.197-0.515,0.197
		c-0.196,0-0.372-0.066-0.517-0.197c-0.146-0.13-0.221-0.311-0.221-0.54v-1.739c0-0.13,0.023-0.242,0.065-0.339
		c-1.354,0.113-2.554,0.842-3.414,1.941c-0.125-0.121-0.261-0.227-0.399-0.327v1.2h-0.513v-1.504
		c-0.39-0.186-0.81-0.296-1.255-0.296c-1.021,0-1.923,0.533-2.548,1.359c-0.036,0.094-0.092,0.177-0.169,0.244
		c-0.004,0.005-0.011,0.006-0.015,0.01c-0.407,0.637-0.659,1.415-0.679,2.264c-0.325-0.143-0.676-0.232-1.043-0.232
		c-1.635,0-2.96,1.545-2.96,3.449c-1.156,0-2.095,1.093-2.095,2.44c0,1.347,0.938,2.439,2.095,2.439h3.926v-2.029h0.515v2.029h3.747
		v-1.27c0-0.244,0.072-0.432,0.22-0.563c0.144-0.13,0.32-0.196,0.515-0.196c0.196,0,0.366,0.065,0.518,0.196
		c0.146,0.131,0.222,0.319,0.222,0.563v1.27h0.502l-0.001,1.043h-1.242l1.777,2.458l1.776-2.458h-1.248v-1.043h2.182v-2.029h0.515
		v2.029h4.227v-2.029h0.513v2.029h2.731c1.156,0,2.095-1.092,2.095-2.439C37.791,21.918,37.023,20.917,36.021,20.735z
		 M19.225,20.356c0,0.229-0.078,0.408-0.225,0.54c-0.148,0.131-0.32,0.196-0.515,0.196c-0.198,0-0.369-0.065-0.517-0.196
		c-0.144-0.132-0.22-0.311-0.22-0.54v-1.742c0-0.244,0.076-0.431,0.22-0.561c0.147-0.131,0.318-0.198,0.517-0.198
		c0.194,0,0.366,0.067,0.515,0.198c0.146,0.13,0.225,0.317,0.225,0.561V20.356z M23.965,20.356c0,0.229-0.075,0.408-0.222,0.54
		c-0.151,0.131-0.321,0.196-0.518,0.196c-0.194,0-0.371-0.065-0.515-0.196c-0.147-0.132-0.22-0.311-0.22-0.54v-1.742
		c0-0.244,0.072-0.431,0.22-0.561c0.144-0.131,0.32-0.198,0.515-0.198c0.196,0,0.366,0.067,0.518,0.198
		c0.146,0.13,0.222,0.317,0.222,0.561V20.356z M28.706,20.356c0,0.229-0.075,0.408-0.222,0.54c-0.148,0.131-0.321,0.196-0.515,0.196
		c-0.196,0-0.372-0.065-0.517-0.196c-0.146-0.132-0.221-0.311-0.221-0.54v-1.742c0-0.244,0.075-0.431,0.221-0.561
		c0.145-0.131,0.32-0.198,0.517-0.198c0.193,0,0.366,0.067,0.515,0.198c0.146,0.13,0.222,0.317,0.222,0.561V20.356z"/>
	<path d="M26.698,32.312c-0.189-0.041-0.447,0.003-0.702,0.15c-0.391,0.225-0.605,0.583-0.479,0.8
		c0.125,0.217,0.543,0.21,0.933-0.015c0.33-0.191,0.521-0.473,0.5-0.687h0.016v-2.447h-0.074h-0.192h-2.181h-0.227h-0.039v2.198
		c-0.189-0.041-0.448,0.003-0.702,0.15c-0.391,0.225-0.605,0.583-0.479,0.8c0.124,0.217,0.542,0.21,0.933-0.015
		c0.33-0.191,0.521-0.473,0.499-0.687h0.016v-1.677h2.181V32.312z"/>
	<path d="M21.965,31.521h-2.735h-0.284h-0.049v2.757c-0.237-0.051-0.562,0.004-0.881,0.189c-0.49,0.282-0.759,0.732-0.602,1.004
		c0.156,0.272,0.681,0.263,1.17-0.019c0.414-0.24,0.653-0.593,0.626-0.862h0.02v-2.104h2.735v1.792
		c-0.237-0.051-0.561,0.004-0.88,0.189c-0.49,0.282-0.76,0.732-0.602,1.004c0.156,0.272,0.681,0.263,1.17-0.019
		c0.414-0.24,0.652-0.593,0.627-0.862h0.02v-3.069h-0.093H21.965z"/>
	<path d="M28.074,34.638h-1.829h-0.19h-0.032v1.844c-0.159-0.034-0.376,0.003-0.589,0.126c-0.328,0.189-0.508,0.49-0.402,0.671
		c0.104,0.182,0.455,0.176,0.782-0.013c0.277-0.16,0.437-0.396,0.419-0.576h0.013v-1.406h1.829v1.198
		c-0.159-0.034-0.375,0.003-0.589,0.126c-0.327,0.189-0.508,0.49-0.402,0.671c0.104,0.182,0.456,0.176,0.782-0.013
		c0.277-0.16,0.437-0.396,0.42-0.576h0.013v-2.052h-0.062H28.074z"/>
	<path d="M31.667,32.786h-1.393h-0.146h-0.024v1.405c-0.121-0.027-0.287,0.002-0.448,0.096c-0.25,0.144-0.388,0.373-0.307,0.511
		c0.079,0.139,0.346,0.134,0.596-0.01c0.211-0.122,0.332-0.301,0.318-0.439h0.011v-1.071h1.393v0.913
		c-0.121-0.027-0.286,0.002-0.448,0.096c-0.249,0.144-0.387,0.373-0.307,0.511c0.08,0.139,0.347,0.134,0.596-0.01
		c0.211-0.122,0.332-0.301,0.319-0.439h0.011v-1.563h-0.047H31.667z"/>
	<path d="M21.433,30.115c-0.126,0.073-0.195,0.189-0.155,0.259c0.041,0.07,0.176,0.068,0.303-0.005
		c0.106-0.062,0.168-0.153,0.161-0.222h0.006v-0.792h-0.024H21.66h-0.706h-0.073h-0.013v0.712c-0.062-0.013-0.146,0.001-0.228,0.049
		c-0.127,0.073-0.196,0.189-0.155,0.259c0.04,0.07,0.175,0.068,0.302-0.005c0.107-0.062,0.169-0.153,0.162-0.222h0.005v-0.543h0.706
		v0.462C21.599,30.053,21.516,30.068,21.433,30.115z"/>
	<path d="M29.565,32.024h0.006v-0.792h-0.024h-0.062h-0.706h-0.073h-0.013v0.712c-0.062-0.013-0.146,0.001-0.228,0.049
		c-0.127,0.073-0.196,0.189-0.155,0.259c0.04,0.07,0.175,0.068,0.302-0.005c0.107-0.062,0.169-0.153,0.162-0.222h0.005v-0.543h0.706
		v0.462c-0.062-0.013-0.145,0.001-0.228,0.049c-0.126,0.073-0.195,0.189-0.155,0.259c0.041,0.07,0.176,0.068,0.303-0.005
		C29.511,32.185,29.572,32.094,29.565,32.024z"/>
	<path d="M30.904,30.654c-0.126,0.073-0.195,0.189-0.155,0.259c0.041,0.07,0.176,0.068,0.303-0.005
		c0.106-0.062,0.168-0.153,0.161-0.222h0.006v-0.792h-0.024h-0.062h-0.706h-0.073H30.34v0.712c-0.062-0.013-0.146,0.001-0.228,0.049
		c-0.127,0.073-0.196,0.189-0.155,0.259c0.04,0.07,0.175,0.068,0.302-0.005c0.107-0.062,0.169-0.153,0.162-0.222h0.005v-0.543h0.706
		v0.462C31.07,30.592,30.987,30.607,30.904,30.654z"/>
	<path d="M18.134,31.496c-0.093-0.02-0.217,0.002-0.341,0.073c-0.189,0.109-0.293,0.283-0.233,0.388
		c0.062,0.105,0.264,0.102,0.454-0.008c0.159-0.092,0.252-0.229,0.241-0.333h0.009v-1.188h-0.037h-0.093h-1.059h-0.109h-0.02v1.067
		c-0.092-0.02-0.218,0.002-0.341,0.073c-0.189,0.109-0.294,0.283-0.232,0.388c0.061,0.105,0.262,0.102,0.452-0.008
		c0.161-0.092,0.253-0.229,0.243-0.333h0.007v-0.813h1.059V31.496z"/>
</g>
</svg>
