<?xml version="1.0" encoding="utf-8"?>
<!-- Generator: Adobe Illustrator 16.0.4, SVG Export Plug-In . SVG Version: 6.00 Build 0)  -->
<!DOCTYPE svg PUBLIC "-//W3C//DTD SVG 1.1//EN" "http://www.w3.org/Graphics/SVG/1.1/DTD/svg11.dtd">
<svg version="1.1" id="Layer_1" xmlns="http://www.w3.org/2000/svg" xmlns:xlink="http://www.w3.org/1999/xlink" x="0px" y="0px"
	 width="50px" height="50px" viewBox="0 0 50 50" enable-background="new 0 0 50 50" xml:space="preserve">
<g>
	<polygon points="25.706,19.258 26.007,19.258 26.305,19.258 26.305,19.108 26.081,19.108 26.007,19.034 25.631,19.034 
		25.631,19.108 25.706,19.108 	"/>
	<path d="M29.822,28.463v-0.15h-0.299C29.691,28.544,29.475,28.434,29.822,28.463z"/>
	<polygon points="28.325,27.34 28.176,27.34 27.502,27.864 27.357,27.777 27.354,28.088 27.502,28.163 27.951,28.389 28.025,28.463 
		28.4,27.79 28.325,27.715 28.325,27.564 28.4,27.49 28.477,27.34 	"/>
	<path d="M31.993,28.762c0.124,0.002,0.243-0.215,0.299-0.299l-0.513,0.173C31.854,28.729,31.781,28.762,31.993,28.762z"/>
	<polygon points="28.701,26.441 28.701,26.518 28.701,26.592 28.773,26.592 28.773,26.518 28.773,26.218 28.852,26.145 
		28.852,26.068 28.773,25.994 28.701,25.994 28.625,26.218 28.625,26.367 28.701,26.367 	"/>
	<polygon points="27.541,25.73 27.316,25.956 27.615,25.807 	"/>
	<path d="M28.551,28.537l0.074,0.076l0.027-0.32l0.199,0.244v-0.148v-0.076l0.067-0.227l-0.294,0.002l0.298-0.085
		c0.216-0.019,0.125,0.003,0.228-0.139h-0.377c-0.207,0-0.18,0.058-0.223,0.224l-0.074,0.075L28.551,28.537z"/>
	<polygon points="28.773,25.395 28.742,25.225 28.625,25.47 28.773,25.544 	"/>
	<path d="M29.898,24.27l0.16,0.087l0.063-0.087l0.078-0.081l0.157,0.093l0.062-0.087l0.298-0.075l0.15-0.074l0.075-0.3l0.074-0.074
		v-0.149l-0.074-0.225h0.148l0.32-0.104l-0.331-0.208l-0.063,0.087l-0.238,0.155l0.076,0.207l-0.062,0.088v0.15h0.001l-0.147,0.224
		h-0.151c-0.136,0.09-0.132,0.15-0.3,0.15h-0.073c-0.288,0-0.028-0.023-0.226,0.074l-0.086,0.062l-0.064,0.087v0.225h0.152V24.27z"
		/>
	<polygon points="28.708,29.057 28.456,29.094 28.684,29.238 28.852,28.912 28.625,28.912 	"/>
	<polygon points="28.852,26.667 28.773,26.741 28.857,26.969 28.773,27.261 28.986,27.195 29.074,27.34 29.223,27.34 29.297,27.04 
		29.297,26.966 29.15,27.04 29,27.04 29.223,26.741 29.223,26.592 29.074,26.592 29.059,26.832 28.924,26.667 	"/>
	<path d="M29.008,29.155l0.305-0.136C28.951,29.016,29.168,28.906,29.008,29.155z"/>
	<polygon points="29,26.592 28.996,26.432 28.852,26.518 	"/>
	<path d="M30.57,28.167l-0.299,0.222l-0.148-0.3h-0.225l0.074,0.15v0.225h0.225l0.225,0.074l0.221,0.155l-0.08,0.293l0.383,0.076
		h0.226l0.116-0.242l0.182,0.094c0.156,0.232,0.148,0.291,0.524,0.299l-0.375-0.375l0.081-0.146L30.57,28.167z"/>
	<polygon points="24.284,26.966 24.134,26.966 24.134,27.266 24.371,27.338 24.284,27.116 	"/>
	<path d="M20.692,29.436l-0.074,0.15l-0.074,0.074l-0.077,0.074l-0.074,0.076h-0.225v0.373c0,0.168-0.058,0.164-0.149,0.299
		l0.147,0.377c0.613-0.146,0.298-0.373,0.602-0.824v-0.225l0.075-0.076V29.66l-0.075-0.225H20.692z"/>
	<polygon points="16.142,23.312 16.203,23.449 16.203,23.673 16.277,23.673 16.277,23.449 16.36,23.303 16.206,23.217 	"/>
	<polygon points="21.292,20.156 21.523,20.152 21.44,20.007 21.44,19.932 21.516,19.857 21.591,19.857 21.591,19.783 21.815,19.707 
		22.863,19.558 22.86,19.388 21.591,19.633 21.516,19.707 21.44,19.783 21.216,19.857 20.991,19.932 20.997,20.065 	"/>
	<rect x="21.965" y="18.959" width="0.149" height="0.149"/>
	<path d="M37.059,27.674c-0.802,0-1.486,0.494-1.772,1.192l-1.398-0.438c0.187-0.758,0.296-1.545,0.296-2.359
		c0-3.248-1.578-6.126-4-7.933l0.983-1.659c0.155,0.068,0.326,0.107,0.507,0.107c0.706,0,1.278-0.572,1.278-1.278
		c0-0.706-0.572-1.278-1.278-1.278c-0.705,0-1.277,0.572-1.277,1.278c0,0.41,0.206,0.758,0.506,0.992l-0.976,1.645
		c-1.603-1.118-3.548-1.778-5.646-1.778c-3.202,0-6.045,1.534-7.856,3.898l-1.843-1.322c0.172-0.287,0.277-0.619,0.277-0.978
		c0-1.059-0.858-1.917-1.917-1.917s-1.917,0.858-1.917,1.917c0,1.059,0.858,1.917,1.917,1.917c0.585,0,1.102-0.268,1.454-0.681
		l1.839,1.319c-1.163,1.623-1.855,3.605-1.855,5.75c0,0.809,0.108,1.59,0.292,2.342l-1.075,0.607
		c-0.233-0.312-0.587-0.527-1.007-0.527c-0.706,0-1.278,0.572-1.278,1.277c0,0.706,0.572,1.278,1.278,1.278
		c0.706,0,1.278-0.572,1.278-1.278c0-0.17-0.037-0.331-0.097-0.479l0.984-0.556c1.167,4.169,4.992,7.238,9.528,7.238
		c4.536,0,8.359-3.067,9.528-7.233l1.383,0.435c-0.03,0.135-0.049,0.274-0.049,0.419c0,1.06,0.857,1.917,1.916,1.917
		s1.918-0.857,1.918-1.917C38.977,28.532,38.117,27.674,37.059,27.674z M17.857,19.408h0.067c-0.014-0.019-0.015-0.024-0.024-0.039
		c1.663-1.585,3.908-2.565,6.381-2.565c2.571,0,4.9,1.055,6.58,2.752h-0.29v0.149h0.426c0.024,0.026,0.048,0.053,0.072,0.08
		c-0.037-0.001-0.068-0.002-0.123-0.003v0.149l-0.225,0.15h-0.226l-0.777,0.022l-0.194-0.292l-1.717-0.028l0.066-0.219l-0.145-0.082
		h-0.076h-0.524v-0.074h-0.149h-0.074l-0.075-0.225c-0.39,0-0.291-0.067-0.45,0.151h0.225v0.074l-0.897,0.149l-0.599,0.075h-0.074
		l-0.15,0.074l-0.15,0.076h-0.522v0.149l-0.299,0.007l-0.538,0.08l0.087,0.063l0.074,0.225l0.006,0.153l-0.081,0.146h-0.151
		l-0.058-0.061l0.146-0.175l-0.088-0.062v-0.375h-0.225c-0.201,0-0.314,0.141-0.373,0.299l0.074,0.075l-0.074,0.075l-0.225-0.075
		h-0.074l-0.45-0.075v0.15h-0.149h-0.448h-0.6v-0.15h-0.15c0.028,0.074,0.036,0.11,0.037,0.133c0.022,0.012,0.054,0.036,0.113,0.092
		h-0.076L20.32,20.53v-0.149h-0.151v0.224H19.87h-0.074l-0.375-0.224l-0.148-0.075c-0.543,0-0.631-0.15-1.124-0.15h-0.075
		c-0.203,0-0.207,0.037-0.373,0.075l-0.524,0.15l-0.076,0.074l-0.146,0.082l-0.085-0.004C17.17,20.133,17.498,19.755,17.857,19.408z
		 M23.912,20.381v0.074h-0.077L23.912,20.381z M22.113,23.076l-0.371,0.092l0.073-0.317l0.296-0.084L22.113,23.076z M21.235,23.894
		l-0.244,0.002c-0.143,0-0.132-0.023-0.223-0.074l-0.026-0.302l-0.274-0.372v-0.223l0.674-0.149v0.137l-0.02,0.018
		c-0.244,0.062-0.181,0.008-0.199,0.279l0.219,0.089h0.074l0.083,0.145l-0.157,0.004L21.235,23.894z M15.905,23.897
		c-0.322,0-0.484,0.058-0.651,0.122c0.044-0.195,0.093-0.389,0.149-0.579c0.088-0.007,0.11,0.125,0.203-0.217h0.225l0.149-0.074
		l0.15-0.075h0.225l0.299,0.299l0.225,0.151l0.075,0.075l-0.075,0.148h-0.225c0.019,0.025,0.3,0.353,0.3,0.076l0.149-0.076
		c0.057-0.059,0.081-0.091,0.093-0.112c0.021-0.001,0.057-0.008,0.131-0.036l-0.148-0.15l-0.151-0.075h-0.073l-0.415-0.413
		l0.189-0.036l0.299,0.224l0.226,0.074l0.062,0.089l0.088,0.061v0.151l0.257,0.35l0.193-0.046l-0.087-0.301l0.16-0.078H18h0.149
		l0.075,0.225l0.074,0.15l0.074,0.074l0.225,0.076l0.076-0.076h0.075l0.091,0.295l0.133,0.004v-0.224h0.076h0.147l-0.128,0.53
		l-0.171-0.006l-0.299,0.074h-0.299l-0.074-0.074c-0.412-0.009-0.383-0.15-0.599-0.15c-0.122,0-0.174,0.206-0.223,0.3l-0.376-0.076
		l-0.161-0.215l-0.138-0.009h-0.075c-0.311,0-0.16-0.162-0.223-0.299v-0.15H15.905z M16.277,21.428h0.075l0.076,0.075l0.073,0.074
		h0.074v0.076l-0.147,0.224c0.984,0,0.417-0.321,0.896-0.449v-0.15l-0.166-0.004l0.091-0.294l0.298-0.15
		c0.136-0.068,0.242-0.161,0.375,0l-0.076,0.074l-0.219,0.089l-0.004,0.285h0.149l0.169,0.364l-0.316-0.073l-0.149,0.383h-0.377
		h-0.076L16.8,22.026h-0.076l-0.298-0.074H16.35v-0.149l0.076-0.149v-0.076l-0.145,0.004L16.2,21.728v0.076v0.075v0.148
		l-0.244,0.003c0.079-0.161,0.156-0.322,0.244-0.478C16.228,21.531,16.229,21.494,16.277,21.428z M19.048,22.925V22.85h0.073
		l0.372-0.092l-0.089,0.312l0.316,0.079l0.135,0.166l-0.059,0.134h-1.048l-0.45,0.076l0.062-0.088l-0.062-0.213l0.151-0.074V23
		l0.074-0.075l0.15-0.074l0.075-0.075l0.148,0.075L18.972,23l0.149,0.074v-0.149H19.048z M19.12,20.831v-0.15h0.001h0.524v0.074
		H19.42c-0.143,0-0.133,0.023-0.226,0.076H19.12z M18.449,21.354l-0.375-0.075h0.375V21.354z M18.971,24.869h0.076l0.147,0.075
		l0.078,0.075l0.074,0.076c0.118,0.225,0.139,0.314,0.258,0.565c0.065,0.14,0.3,0.311,0.415,0.484v0.297l-0.062,0.088l-0.161-0.163
		l-0.418-0.472l-0.032-0.276l-0.375-0.674V24.869z M24.281,35.332c-4.649,0-8.499-3.447-9.154-7.917h0.029l0.147-0.075l0.456-0.001
		l0.074,0.236l0.145-0.084h0.225l0.074,0.149v0.225v0.15v0.073L16.19,28.15l0.385,0.387c0.088,0.182,0.151,0.328,0.151,0.6v0.149
		c0,0.26-0.151,0.114-0.151,0.374v0.224c0,0.283,0.185,0.5,0.301,0.675c0,0.306,0.39,1.271,0.599,1.271h0.448
		c0.406,0,0.964-0.561,0.972-0.973c0.096-0.051,0.299-0.104,0.299-0.225c0-0.201-0.034-0.207-0.074-0.374l0.59-0.462l0.009-0.661
		l-0.148-0.374v-0.226l0.087-0.062l0.062-0.088l0.674-0.673l0.299-0.375v-0.075l0.076-0.074l0.149-0.449h-0.074l-0.523,0.074h-0.226
		v-0.224h0.149l0.076-0.075l0.523-0.149l0.138-0.009l0.161-0.215l0.374-0.149l0.086-0.062l0.063-0.088V25.77
		c0.069-0.047,0.226-0.123,0.226-0.226c0-0.043-0.103-0.155-0.149-0.225h-0.151l-0.09-0.175l-0.285,0.175h-0.225v-0.074V25.02
		l-0.223-0.075l-0.15-0.075v-0.224l0.197,0.027l0.404,0.337l0.372,0.085l0.075,0.075h1.048v0.148
		c0.157,0.137,0.255,0.273,0.387,0.461l0.063-0.086l0.074-0.074l0.151,0.449l0.148,0.447l0.005,0.145l0.144,0.081l0.107,0.411
		l0.341-0.336l0.016-0.506l0.435-0.316c0.293-0.196,0.277-0.123,0.449-0.45h0.225l0.13-0.061l0.318,0.36l0.227,0.374l0.139,0.004
		l0.084,0.146v0.074l0.074,0.074v0.15c-0.023,0.294-0.156,0.318,0,0.45l0.076,0.073l0.149,0.301v0.074l0.075,0.225l-0.633-0.43
		l0.558,0.879l0.599,0.523l0.075,0.074l0.744,0.171l0.079-0.021c0.283,0,0.143,0.049,0.449,0.074v-0.149l-0.672-0.149l-0.674-0.076
		v-0.449l-0.301-0.149v-0.073l-0.074-0.076l-0.086-0.086l0.074-0.029l0.157,0.042l-0.081-0.439l-0.214-0.159h-0.075l-0.076-0.076
		V27.04l-0.074-0.074l0.084-0.46l0.514,0.387l0.375-0.076l0.15-0.074v-0.149c0-0.313,0.004-0.157-0.074-0.225v-0.074
		c-0.064-0.096-0.301-0.325-0.301-0.375c0-0.2,0.109-0.221,0.229-0.312l0.16,0.1l0.062-0.087h0.149l0.144-0.004l0.082-0.146h0.3
		l0.598-0.673v-0.149l-0.072-0.226l-0.166-0.315l0.166-0.133l0.223-0.15h-0.15h-0.148L28.417,23.7l0.209-0.176l0.147-0.076
		l0.006,0.236l0.146-0.085H29l0.137,0.004l0.086,0.22h0.151v0.074v0.225h0.074c0.112-0.027,0.224-0.016,0.224-0.149
		c0-0.18-0.122-0.22-0.224-0.374c0.366-0.099,0.149-0.177,0.522-0.375l0.243,0.018l0.655-0.69v-0.224l0.148-0.076v0.599h0.151
		v-0.299l0.073-0.076l-0.073-0.374l-0.062-0.061l-0.164,0.135v-0.075l-0.162-0.163l-0.063,0.087l-0.375-0.074
		c0.31-0.422,1.015-0.583,1.722-0.599l0.076,0.075h0.145c0.11,0.189,0.212,0.382,0.309,0.579c0.007,0.146,0.042,0.177,0.11,0.358
		l0.042-0.042c0.51,1.146,0.799,2.412,0.799,3.746c0,1.746-0.495,3.375-1.338,4.771l-0.698-0.77l-0.04-0.187l-0.074-0.224
		l-0.15-0.074l-0.073-0.15v-0.074l-0.147-0.086l-0.004,0.162v0.299l-0.072,0.148l-0.524-0.074l-0.075-0.074l0.078-0.375h-0.228
		h-0.226l-0.149,0.074l-0.076,0.074l-0.085,0.146l-0.212-0.07c-0.552,0.145-0.437,0.678-1.273,0.748l-0.296,0.152l-0.003,0.146
		c0,0.163-0.056,0.225,0.074,0.225c0.012,0.484,0.013,1.039,0.448,1.047l0.076-0.074h0.075h0.373l0.3-0.225h0.226L29.6,31.53
		l0.672,0.3l0.063,0.086l0.157-0.092l-0.065,0.23l0.294-0.076l0.146,0.302l0.229-0.003h0.04
		C29.439,34.148,26.999,35.332,24.281,35.332z"/>
</g>
</svg>
