<?xml version="1.0" encoding="utf-8"?>
<!-- Generator: Adobe Illustrator 16.0.0, SVG Export Plug-In . SVG Version: 6.00 Build 0)  -->
<!DOCTYPE svg PUBLIC "-//W3C//DTD SVG 1.1//EN" "http://www.w3.org/Graphics/SVG/1.1/DTD/svg11.dtd">
<svg version="1.1" id="Layer_1" xmlns="http://www.w3.org/2000/svg" xmlns:xlink="http://www.w3.org/1999/xlink" x="0px" y="0px"
	 width="50px" height="50px" viewBox="0 0 50 50" enable-background="new 0 0 50 50" xml:space="preserve">
<g>
	<path d="M34.244,29.241c0,0.717-0.583,1.301-1.301,1.301h-21.01c-0.718,0-1.301-0.584-1.301-1.301V17.937
		c0-0.717,0.583-1.301,1.301-1.301h11.633V15.74H11.933c-1.208,0-2.197,0.989-2.197,2.197V31.93c0,1.208,0.989,2.197,2.197,2.197
		h9.608v1.871h-6.723l-0.896,0.897v0.896h17.032v-0.896l-0.897-0.897h-6.723v-1.871h9.608c1.21,0,2.198-0.989,2.198-2.197v-8.554
		h-0.896V29.241z"/>
	<polygon points="40.264,12.208 24.462,12.208 32.363,17.343 	"/>
	<polygon points="24.462,12.998 24.462,19.098 32.708,19.098 32.708,22.479 40.264,22.479 40.264,12.998 32.363,18.134 	"/>
	<polygon points="21.409,20.514 21.409,26.757 31.812,26.757 31.812,20.514 26.61,23.896 	"/>
	<polygon points="21.409,19.994 26.61,23.376 31.812,19.994 	"/>
</g>
</svg>
