<?xml version="1.0" encoding="utf-8"?>
<!-- Generator: Adobe Illustrator 16.0.0, SVG Export Plug-In . SVG Version: 6.00 Build 0)  -->
<!DOCTYPE svg PUBLIC "-//W3C//DTD SVG 1.1//EN" "http://www.w3.org/Graphics/SVG/1.1/DTD/svg11.dtd">
<svg version="1.1" id="Layer_1" xmlns="http://www.w3.org/2000/svg" xmlns:xlink="http://www.w3.org/1999/xlink" x="0px" y="0px"
	 width="50px" height="50px" viewBox="0 0 50 50" enable-background="new 0 0 50 50" xml:space="preserve">
<g>
	<path d="M34.5,31.367V36.5c0,0.275-0.225,0.5-0.5,0.5H16c-0.275,0-0.5-0.225-0.5-0.5V15.068h19v5.816v3.074h1V13.5
		c0-0.827-0.673-1.5-1.5-1.5H16c-0.827,0-1.5,0.673-1.5,1.5v23c0,0.827,0.673,1.5,1.5,1.5h18c0.827,0,1.5-0.673,1.5-1.5v-8.207h-1
		V31.367z M33.383,13.066c0.396,0,0.717,0.321,0.717,0.718s-0.32,0.718-0.717,0.718s-0.719-0.321-0.719-0.718
		S32.986,13.066,33.383,13.066z M30.969,13.066c0.396,0,0.718,0.321,0.718,0.718s-0.321,0.718-0.718,0.718s-0.718-0.321-0.718-0.718
		S30.572,13.066,30.969,13.066z M28.555,13.066c0.396,0,0.719,0.321,0.719,0.718s-0.322,0.718-0.719,0.718s-0.717-0.321-0.717-0.718
		S28.158,13.066,28.555,13.066z"/>
	<polygon points="33.5,24.959 33.5,22.626 27.5,26.126 33.5,29.626 33.5,27.293 41.5,27.293 41.5,24.959 	"/>
</g>
</svg>
