<?xml version="1.0" encoding="utf-8"?>
<!-- Generator: Adobe Illustrator 16.0.4, SVG Export Plug-In . SVG Version: 6.00 Build 0)  -->
<!DOCTYPE svg PUBLIC "-//W3C//DTD SVG 1.1//EN" "http://www.w3.org/Graphics/SVG/1.1/DTD/svg11.dtd">
<svg version="1.1" id="Layer_1" xmlns="http://www.w3.org/2000/svg" xmlns:xlink="http://www.w3.org/1999/xlink" x="0px" y="0px"
	 width="50px" height="50px" viewBox="0 0 50 50" enable-background="new 0 0 50 50" xml:space="preserve">
<path d="M24.221,23.623l-12.252-7.964h24.503L24.221,23.623z M32.455,31.445c-2.109,0-4.071-1.131-5.12-2.952
	c-0.789-1.361-0.999-2.952-0.588-4.478c0.101-0.374,0.235-0.73,0.401-1.07l-2.928,1.903l-12.252-7.966v14.705h21.327l-0.109-0.19
	C32.943,31.428,32.699,31.445,32.455,31.445z M36.473,16.883l-4.264,2.772c0.077-0.002,0.152-0.015,0.229-0.015
	c1.518,0,2.953,0.592,4.035,1.598V16.883z M36.615,23.138c1.324,2.298,0.535,5.247-1.762,6.573
	c-2.299,1.325-5.248,0.537-6.574-1.763c-1.327-2.296-0.535-5.245,1.761-6.572C32.337,20.051,35.289,20.839,36.615,23.138z
	 M35.924,23.536c-1.105-1.917-3.566-2.576-5.484-1.471c-1.916,1.108-2.576,3.567-1.469,5.485c1.107,1.917,3.566,2.58,5.482,1.472
	C36.374,27.914,37.029,25.455,35.924,23.536z M36.064,29.412l-2.072,1.196l1.592,2.757l2.072-1.195L36.064,29.412z M37.871,32.548
	l-2.07,1.195c0.331,0.573,1.061,0.768,1.635,0.438C38.004,33.854,38.2,33.121,37.871,32.548z"/>
</svg>
