<?xml version="1.0" encoding="utf-8"?>
<!-- Generator: Adobe Illustrator 16.0.0, SVG Export Plug-In . SVG Version: 6.00 Build 0)  -->
<!DOCTYPE svg PUBLIC "-//W3C//DTD SVG 1.1//EN" "http://www.w3.org/Graphics/SVG/1.1/DTD/svg11.dtd">
<svg version="1.1" id="Layer_1" xmlns="http://www.w3.org/2000/svg" xmlns:xlink="http://www.w3.org/1999/xlink" x="0px" y="0px"
	 width="50px" height="50px" viewBox="0 0 50 50" enable-background="new 0 0 50 50" xml:space="preserve">
<g>
	<path d="M37.706,22.084c-0.514-1.841-1.981-3.18-3.729-3.18c-0.02,0-0.038,0.006-0.058,0.007c-0.281-3.498-2.779-6.246-5.853-6.246
		c-1.73,0-3.272,0.884-4.354,2.265c-0.682-0.658-1.546-1.07-2.499-1.07c-2.14,0-3.874,1.993-3.931,4.471
		c-0.375-0.166-0.778-0.268-1.203-0.268c-1.885,0-3.412,1.781-3.412,3.977c-1.334,0-2.414,1.259-2.414,2.812s1.08,2.812,2.414,2.812
		c0.051,0,2.108,0,5.011,0v-2.81c0-1.907,1.552-3.458,3.459-3.458h1.177c0.533-1.246,1.773-2.107,3.172-2.107h3.377
		c1.907,0,3.458,1.551,3.458,3.458v4.389c0,0.18-0.036,0.353-0.063,0.527c2.939,0,5.03,0,5.074,0c1.334,0,2.414-1.259,2.414-2.812
		C39.746,23.448,38.861,22.294,37.706,22.084z"/>
	<rect x="20.788" y="24.943" width="4.676" height="0.526"/>
	<rect x="20.788" y="27.285" width="3.602" height="0.527"/>
	<rect x="20.788" y="29.625" width="3.602" height="0.527"/>
	<rect x="20.788" y="31.967" width="4.676" height="0.527"/>
	<path d="M28.863,20.29h-3.377c-1.235,0-2.251,0.919-2.423,2.107h-1.926c-1.356,0-2.459,1.104-2.459,2.458v7.726
		c0,1.355,1.103,2.458,2.459,2.458h6.321c1.355,0,2.458-1.103,2.458-2.458v-3.237c0.827-0.395,1.404-1.23,1.404-2.207v-4.389
		C31.321,21.393,30.219,20.29,28.863,20.29z M29.214,32.582c0,0.968-0.786,1.756-1.755,1.756h-6.321
		c-0.97,0-1.756-0.788-1.756-1.756v-7.726c0-0.968,0.786-1.756,1.756-1.756h6.321c0.969,0,1.755,0.788,1.755,1.756V32.582z
		 M30.62,27.138c0,0.571-0.279,1.076-0.703,1.396v-3.678c0-1.355-1.103-2.458-2.458-2.458h-3.692c0.163-0.8,0.871-1.405,1.72-1.405
		h3.377c0.969,0,1.757,0.788,1.757,1.756V27.138z"/>
</g>
</svg>
