<?xml version="1.0" encoding="utf-8"?>
<!-- Generator: Adobe Illustrator 16.0.0, SVG Export Plug-In . SVG Version: 6.00 Build 0)  -->
<!DOCTYPE svg PUBLIC "-//W3C//DTD SVG 1.1//EN" "http://www.w3.org/Graphics/SVG/1.1/DTD/svg11.dtd">
<svg version="1.1" id="Layer_1" xmlns="http://www.w3.org/2000/svg" xmlns:xlink="http://www.w3.org/1999/xlink" x="0px" y="0px"
	 width="50px" height="50px" viewBox="0 0 50 50" enable-background="new 0 0 50 50" xml:space="preserve">
<g>
	<path d="M27.406,34.5h-9c-1.378,0-2.5-1.122-2.5-2.5V21c0-1.378,1.122-2.5,2.5-2.5h9c1.206,0,2.216,0.859,2.449,1.997
		c0.324-0.091,0.65-0.163,0.979-0.203c-0.328-1.592-1.74-2.794-3.428-2.794H22.1c0.232-1.14,1.242-2,2.449-2h4.856
		c1.378,0,2.5,1.122,2.5,2.5v2.259c0.337,0.015,0.671,0.058,1,0.125V18c0-1.93-1.57-3.5-3.5-3.5h-4.856
		c-1.758,0-3.204,1.309-3.449,3h-2.694c-1.93,0-3.5,1.57-3.5,3.5v11c0,1.93,1.57,3.5,3.5,3.5h9c1.517,0,2.798-0.976,3.283-2.327
		c-0.331-0.048-0.655-0.123-0.974-0.221C29.34,33.859,28.447,34.5,27.406,34.5z"/>
	<rect x="17.906" y="21.125" width="6.656" height="0.75"/>
	<rect x="17.906" y="24.458" width="5.125" height="0.75"/>
	<rect x="17.906" y="27.792" width="5.125" height="0.75"/>
	<rect x="17.906" y="31.125" width="6.656" height="0.75"/>
	<path d="M27.971,24.184v1.011h1.105v-1.011c0-1.035,0.841-1.876,1.876-1.876c1.034,0,1.876,0.841,1.876,1.876v1.011h1.104v-1.011
		c0-1.644-1.337-2.981-2.98-2.981C29.308,21.203,27.971,22.54,27.971,24.184z"/>
	<path d="M34.542,25.472h-7.182c-0.303,0-0.552,0.249-0.552,0.552v5.523c0,0.304,0.249,0.553,0.552,0.553h7.182
		c0.303,0,0.552-0.249,0.552-0.553v-5.523C35.094,25.72,34.845,25.472,34.542,25.472z"/>
</g>
</svg>
