<?xml version="1.0" encoding="utf-8"?>
<!-- Generator: Adobe Illustrator 16.0.0, SVG Export Plug-In . SVG Version: 6.00 Build 0)  -->
<!DOCTYPE svg PUBLIC "-//W3C//DTD SVG 1.1//EN" "http://www.w3.org/Graphics/SVG/1.1/DTD/svg11.dtd">
<svg version="1.1" id="Layer_1" xmlns="http://www.w3.org/2000/svg" xmlns:xlink="http://www.w3.org/1999/xlink" x="0px" y="0px"
	 width="50px" height="50px" viewBox="0 0 50 50" enable-background="new 0 0 50 50" xml:space="preserve">
<g>
	<path d="M37.706,22.084c-0.514-1.841-1.981-3.18-3.729-3.18c-0.02,0-0.038,0.006-0.058,0.007c-0.281-3.498-2.779-6.246-5.853-6.246
		c-1.73,0-3.272,0.884-4.354,2.265c-0.682-0.658-1.546-1.07-2.499-1.07c-2.14,0-3.874,1.993-3.931,4.471
		c-0.375-0.166-0.778-0.268-1.203-0.268c-1.885,0-3.412,1.781-3.412,3.977c-1.334,0-2.414,1.259-2.414,2.812s1.08,2.812,2.414,2.812
		c0.064,0,2.848,0,6.519,0v-0.773c0-0.2,0.024-0.392,0.071-0.57l1.481-3.808v-3.469h8.521v3.477l1.482,3.8
		c0.047,0.179,0.071,0.371,0.071,0.57v0.773c3.68,0,6.468,0,6.519,0c1.334,0,2.414-1.259,2.414-2.812
		C39.746,23.448,38.861,22.294,37.706,22.084z"/>
	<path d="M21.739,20.045v5.909h6.521v-5.909H21.739z M24.044,24.016h-1.426V22.59h1.426V24.016z M27.381,24.016h-1.426V22.59h1.426
		V24.016z"/>
	<path d="M29.208,26.848h-8.416c-0.348,0-0.548-0.11-0.567-0.271c-0.023,0.089-0.038,0.192-0.038,0.315v6.512
		c0,1.034,0.866,1.881,1.925,1.881h0.001h0.002h5.771h0.002h0.001c1.059,0,1.925-0.847,1.925-1.881v-6.512
		c0-0.124-0.015-0.227-0.038-0.315C29.756,26.738,29.556,26.848,29.208,26.848z M26.346,29.525c-0.073-0.001-0.147,0-0.223,0
		c-0.003,0.006-0.003,0.01-0.003,0.016c0,0.167,0,0.333,0,0.501c0.003,0.158-0.059,0.295-0.165,0.411
		c-0.064,0.07-0.137,0.132-0.205,0.196c-0.183,0.175-0.366,0.347-0.551,0.523c-0.051,0.047-0.074,0.108-0.083,0.175
		c-0.001,0.019-0.004,0.037-0.004,0.054c0,0.399,0,0.796,0,1.194c0,0.017,0.004,0.021,0.021,0.026
		c0.225,0.054,0.393,0.241,0.424,0.473c0.041,0.295-0.164,0.577-0.461,0.626c-0.302,0.049-0.584-0.144-0.646-0.444
		c-0.061-0.293,0.128-0.586,0.417-0.653c0.019-0.007,0.021-0.013,0.021-0.031c-0.001-0.118-0.001-0.235-0.001-0.353
		c0-0.081-0.026-0.151-0.075-0.215c-0.005-0.004-0.006-0.008-0.013-0.012c-0.242-0.232-0.49-0.462-0.731-0.697
		c-0.118-0.116-0.186-0.262-0.186-0.436c0-0.172,0-0.343,0-0.517c0-0.012-0.004-0.019-0.019-0.024
		c-0.14-0.056-0.224-0.198-0.208-0.346c0.021-0.156,0.139-0.276,0.294-0.296c0.204-0.027,0.389,0.14,0.376,0.349
		c-0.005,0.141-0.078,0.238-0.21,0.295c-0.011,0.003-0.015,0.01-0.015,0.02c0,0.18,0,0.362,0.002,0.542
		c0.002,0.093,0.035,0.171,0.102,0.235c0.224,0.211,0.445,0.422,0.668,0.631c0.006,0.004,0.01,0.008,0.015,0.017
		c0-1.148,0-2.292,0-3.435c-0.089,0-0.181,0-0.277,0c0.132-0.228,0.26-0.449,0.39-0.674c0.133,0.225,0.26,0.446,0.392,0.672
		c-0.098,0-0.188,0-0.277,0c0,0.864-0.003,1.728,0,2.593c0.004-0.002,0.006-0.006,0.01-0.007c0.229-0.217,0.46-0.433,0.686-0.651
		c0.048-0.046,0.072-0.105,0.083-0.169c0.005-0.018,0.005-0.035,0.005-0.051c0-0.174,0-0.346,0-0.522c0-0.004,0-0.007,0-0.014
		c-0.076,0-0.148,0-0.224,0c0-0.225,0-0.449,0-0.672c0.224,0,0.445,0,0.671,0C26.346,29.076,26.346,29.3,26.346,29.525z"/>
</g>
</svg>
