<?xml version="1.0" encoding="utf-8"?>
<!-- Generator: Adobe Illustrator 16.0.0, SVG Export Plug-In . SVG Version: 6.00 Build 0)  -->
<!DOCTYPE svg PUBLIC "-//W3C//DTD SVG 1.1//EN" "http://www.w3.org/Graphics/SVG/1.1/DTD/svg11.dtd">
<svg version="1.1" id="Layer_1" xmlns="http://www.w3.org/2000/svg" xmlns:xlink="http://www.w3.org/1999/xlink" x="0px" y="0px"
	 width="50px" height="50px" viewBox="0 0 50 50" enable-background="new 0 0 50 50" xml:space="preserve">
<g>
	<path d="M31.597,12.75H18.403c-3.108,0-3.769,0.658-3.769,3.77V33.48c0,3.109,0.66,3.77,3.769,3.77h12.722v-1H18.403
		c-2.562,0-2.769-0.207-2.769-2.77V16.52c0-2.562,0.207-2.77,2.769-2.77h13.193c2.562,0,2.769,0.207,2.769,2.77v16.49h1V16.52
		C35.365,13.408,34.705,12.75,31.597,12.75z"/>
	<polygon points="31.745,36.629 34.745,33.629 31.745,33.629 	"/>
	<polygon points="22.706,22.977 22.706,21.08 18.356,21.08 18.356,22.977 20.348,22.977 20.348,23.645 20.011,23.645 20.531,24.686 
		21.053,23.645 20.715,23.645 20.715,22.977 	"/>
	<rect x="27.294" y="19.182" width="4.35" height="1.898"/>
	<polygon points="22.706,26.896 22.706,25 18.356,25 18.356,26.896 20.348,26.896 20.348,27.541 20.01,27.541 20.531,28.584 
		21.053,27.541 20.715,27.541 20.715,26.896 	"/>
	<rect x="18.356" y="28.922" width="4.35" height="1.898"/>
	<polygon points="23.228,22.029 23.228,29.871 23.596,29.871 23.596,26.133 25.065,26.133 25.065,20.312 26.857,20.312 
		26.857,19.945 24.697,19.945 24.697,25.766 23.596,25.766 23.596,22.029 	"/>
</g>
</svg>
