<?xml version="1.0" encoding="utf-8"?>
<!-- Generator: Adobe Illustrator 16.0.0, SVG Export Plug-In . SVG Version: 6.00 Build 0)  -->
<!DOCTYPE svg PUBLIC "-//W3C//DTD SVG 1.1//EN" "http://www.w3.org/Graphics/SVG/1.1/DTD/svg11.dtd">
<svg version="1.1" id="Layer_1" xmlns="http://www.w3.org/2000/svg" xmlns:xlink="http://www.w3.org/1999/xlink" x="0px" y="0px"
	 width="50px" height="50px" viewBox="0 0 50 50" enable-background="new 0 0 50 50" xml:space="preserve">
<g>
	<polygon points="22.706,22.977 22.706,21.08 18.356,21.08 18.356,22.977 20.348,22.977 20.348,23.645 20.011,23.645 20.531,24.686 
		21.053,23.645 20.715,23.645 20.715,22.977 	"/>
	<rect x="27.294" y="19.182" width="4.35" height="1.898"/>
	<polygon points="22.706,26.896 22.706,25 18.356,25 18.356,26.896 20.348,26.896 20.348,27.541 20.01,27.541 20.531,28.584 
		21.053,27.541 20.715,27.541 20.715,26.896 	"/>
	<rect x="18.356" y="28.922" width="4.35" height="1.898"/>
	<polygon points="23.228,22.029 23.228,29.871 23.596,29.871 23.596,26.133 25.065,26.133 25.065,20.312 26.857,20.312 
		26.857,19.945 24.697,19.945 24.697,25.766 23.596,25.766 23.596,22.029 	"/>
	<path d="M15.635,33.48V16.52c0-2.562,0.207-2.77,2.769-2.77h13.193c2.562,0,2.769,0.207,2.769,2.77v9.04
		c0.353,0.069,0.684,0.188,1,0.337V16.52c0-3.111-0.66-3.77-3.769-3.77H18.403c-3.108,0-3.769,0.658-3.769,3.77V33.48
		c0,3.109,0.66,3.77,3.769,3.77h9.544v-1h-9.544C15.842,36.25,15.635,36.043,15.635,33.48z"/>
	<path d="M30.236,29.783v1.12h1.226v-1.12c0-1.148,0.934-2.081,2.079-2.081c1.146,0,2.081,0.933,2.081,2.081v1.12h1.225v-1.12
		c0-1.823-1.482-3.307-3.306-3.307C31.72,26.477,30.236,27.96,30.236,29.783z"/>
	<path d="M37.525,31.21h-7.965c-0.336,0-0.613,0.276-0.613,0.613v6.124c0,0.338,0.277,0.614,0.613,0.614h7.965
		c0.334,0,0.61-0.276,0.61-0.614v-6.124C38.136,31.486,37.859,31.21,37.525,31.21z"/>
</g>
</svg>
