<?xml version="1.0" encoding="utf-8"?>
<!-- Generator: Adobe Illustrator 16.0.0, SVG Export Plug-In . SVG Version: 6.00 Build 0)  -->
<!DOCTYPE svg PUBLIC "-//W3C//DTD SVG 1.1//EN" "http://www.w3.org/Graphics/SVG/1.1/DTD/svg11.dtd">
<svg version="1.1" id="Layer_1" xmlns="http://www.w3.org/2000/svg" xmlns:xlink="http://www.w3.org/1999/xlink" x="0px" y="0px"
	 width="50px" height="50px" viewBox="0 0 50 50" enable-background="new 0 0 50 50" xml:space="preserve">
<g>
	<path d="M36.504,19.248h-14.38c-0.79,0-1.438-0.647-1.438-1.438v-1.438c0-0.79-0.647-1.438-1.438-1.438h-5.752
		c-0.79,0-1.438,0.647-1.438,1.438v17.256c0,0.79,0.647,1.438,1.438,1.438h13.219c-0.944-1.061-1.523-2.453-1.523-3.981
		c0-3.309,2.691-6,6-6s6,2.691,6,6c0,1.528-0.579,2.921-1.523,3.981h0.836c0.79,0,1.438-0.647,1.438-1.438V20.687
		C37.941,19.896,37.294,19.248,36.504,19.248z"/>
	<path d="M31.191,26.084c-2.761,0-5,2.238-5,5s2.239,5,5,5s5-2.238,5-5S33.952,26.084,31.191,26.084z M29.689,29.841
		c0-0.828,0.674-1.502,1.502-1.502s1.502,0.674,1.502,1.502v0.509h-0.557v-0.509c0-0.521-0.425-0.945-0.945-0.945
		s-0.945,0.424-0.945,0.945v0.509h-0.557V29.841z M33.279,33.551c0,0.153-0.126,0.279-0.277,0.279h-3.619
		c-0.152,0-0.279-0.126-0.279-0.279v-2.783c0-0.152,0.127-0.277,0.279-0.277h3.619c0.151,0,0.277,0.125,0.277,0.277V33.551z"/>
</g>
</svg>
