<?xml version="1.0" encoding="utf-8"?>
<!-- Generator: Adobe Illustrator 16.0.0, SVG Export Plug-In . SVG Version: 6.00 Build 0)  -->
<!DOCTYPE svg PUBLIC "-//W3C//DTD SVG 1.1//EN" "http://www.w3.org/Graphics/SVG/1.1/DTD/svg11.dtd">
<svg version="1.1" id="Layer_1" xmlns="http://www.w3.org/2000/svg" xmlns:xlink="http://www.w3.org/1999/xlink" x="0px" y="0px"
	 width="50px" height="50px" viewBox="0 0 50 50" enable-background="new 0 0 50 50" xml:space="preserve">
<g>
	<polygon points="38,27.481 38,15.481 26,15.481 26,12.481 20,12.481 20,16.481 20,19.481 32,19.481 32,26.481 32,27.481 32,36.981 
		35.458,36.981 35.458,37.519 37.534,36.481 35.458,35.442 35.458,35.981 33,35.981 33,27.481 	"/>
	<polygon points="18,18.481 12,18.481 12,33.481 26.077,33.481 26.077,35.981 23.62,35.981 23.62,35.442 21.543,36.481 
		23.62,37.519 23.62,36.981 27.077,36.981 27.077,33.481 30,33.481 30,21.481 18,21.481 	"/>
</g>
</svg>
