<?xml version="1.0" encoding="utf-8"?>
<!-- Generator: Adobe Illustrator 16.0.0, SVG Export Plug-In . SVG Version: 6.00 Build 0)  -->
<!DOCTYPE svg PUBLIC "-//W3C//DTD SVG 1.1//EN" "http://www.w3.org/Graphics/SVG/1.1/DTD/svg11.dtd">
<svg version="1.1" id="Layer_1" xmlns="http://www.w3.org/2000/svg" xmlns:xlink="http://www.w3.org/1999/xlink" x="0px" y="0px"
	 width="50px" height="50px" viewBox="0 0 50 50" enable-background="new 0 0 50 50" xml:space="preserve">
<g>
	<path d="M36.504,19.248h-14.38c-0.79,0-1.438-0.647-1.438-1.438v-1.438c0-0.79-0.647-1.438-1.438-1.438h-5.752
		c-0.79,0-1.438,0.647-1.438,1.438v17.256c0,0.79,0.647,1.438,1.438,1.438h13.219c-0.944-1.061-1.523-2.453-1.523-3.981
		c0-3.309,2.691-6,6-6s6,2.691,6,6c0,1.528-0.579,2.921-1.523,3.981h0.836c0.79,0,1.438-0.647,1.438-1.438V20.687
		C37.941,19.896,37.294,19.248,36.504,19.248z"/>
	<circle cx="31.191" cy="31.084" r="1.424"/>
	<path d="M31.191,26.084c-2.761,0-5,2.238-5,5s2.239,5,5,5s5-2.238,5-5S33.952,26.084,31.191,26.084z M34.267,30.783l-0.532,0.197
		c-0.074,0.027-0.133,0.094-0.133,0.148s0.047,0.227,0.118,0.259l0.514,0.237c0.071,0.033,0.103,0.117,0.069,0.188l-0.535,1.163
		c-0.033,0.071-0.117,0.103-0.189,0.07l-0.514-0.238c-0.072-0.032-0.232,0.042-0.275,0.078c-0.041,0.035-0.053,0.125-0.025,0.198
		l0.196,0.532c0.027,0.074-0.011,0.156-0.084,0.184l-1.201,0.443c-0.074,0.027-0.157-0.012-0.184-0.085l-0.196-0.532
		c-0.027-0.074-0.194-0.135-0.248-0.138c-0.055-0.003-0.126,0.052-0.159,0.122l-0.237,0.516c-0.031,0.07-0.117,0.102-0.188,0.068
		l-1.164-0.536c-0.07-0.033-0.103-0.118-0.069-0.188l0.238-0.514c0.032-0.072-0.042-0.232-0.078-0.273
		c-0.035-0.043-0.125-0.055-0.198-0.027l-0.533,0.197c-0.072,0.027-0.155-0.012-0.183-0.084l-0.443-1.203
		c-0.026-0.074,0.012-0.156,0.084-0.183l0.533-0.196c0.072-0.027,0.134-0.194,0.139-0.248c0.002-0.055-0.053-0.127-0.124-0.158
		l-0.514-0.238c-0.071-0.032-0.104-0.117-0.07-0.188l0.536-1.164c0.033-0.071,0.118-0.103,0.188-0.07l0.515,0.238
		c0.071,0.032,0.232-0.043,0.273-0.078c0.042-0.035,0.054-0.125,0.026-0.197l-0.196-0.533c-0.027-0.074,0.011-0.156,0.085-0.184
		l1.201-0.443c0.073-0.026,0.155,0.012,0.183,0.084l0.196,0.533c0.027,0.074,0.195,0.135,0.25,0.138
		c0.054,0.004,0.124-0.052,0.158-0.122l0.237-0.516c0.032-0.07,0.118-0.102,0.188-0.069l1.163,0.536
		c0.07,0.033,0.102,0.117,0.07,0.189l-0.237,0.514c-0.034,0.07,0.041,0.232,0.076,0.273c0.036,0.042,0.125,0.055,0.2,0.027
		l0.53-0.197c0.074-0.027,0.157,0.012,0.184,0.085l0.443,1.201C34.378,30.674,34.341,30.756,34.267,30.783z"/>
</g>
</svg>
