<?xml version="1.0" encoding="utf-8"?>
<!-- Generator: Adobe Illustrator 16.0.0, SVG Export Plug-In . SVG Version: 6.00 Build 0)  -->
<!DOCTYPE svg PUBLIC "-//W3C//DTD SVG 1.1//EN" "http://www.w3.org/Graphics/SVG/1.1/DTD/svg11.dtd">
<svg version="1.1" id="Layer_1" xmlns="http://www.w3.org/2000/svg" xmlns:xlink="http://www.w3.org/1999/xlink" x="0px" y="0px"
	 width="50px" height="50px" viewBox="0 0 50 50" enable-background="new 0 0 50 50" xml:space="preserve">
<g>
	<path d="M36.504,19.248h-14.38c-0.79,0-1.438-0.647-1.438-1.438v-1.438c0-0.79-0.647-1.438-1.438-1.438h-5.752
		c-0.79,0-1.438,0.647-1.438,1.438v17.256c0,0.79,0.647,1.438,1.438,1.438h13.219c-0.944-1.061-1.523-2.453-1.523-3.981
		c0-3.309,2.691-6,6-6s6,2.691,6,6c0,1.528-0.579,2.921-1.523,3.981h0.836c0.79,0,1.438-0.647,1.438-1.438V20.687
		C37.941,19.896,37.294,19.248,36.504,19.248z"/>
	<path d="M31.191,26.084c-2.761,0-5,2.239-5,5c0,2.762,2.239,5,5,5s5-2.238,5-5C36.191,28.323,33.952,26.084,31.191,26.084z
		 M33.691,31.834h-1.75v1.75h-1.5v-1.75h-1.75v-1.5h1.75v-1.75h1.5v1.75h1.75V31.834z"/>
</g>
</svg>
