<?xml version="1.0" encoding="utf-8"?>
<!-- Generator: Adobe Illustrator 16.0.0, SVG Export Plug-In . SVG Version: 6.00 Build 0)  -->
<!DOCTYPE svg PUBLIC "-//W3C//DTD SVG 1.1//EN" "http://www.w3.org/Graphics/SVG/1.1/DTD/svg11.dtd">
<svg version="1.1" id="Layer_1" xmlns="http://www.w3.org/2000/svg" xmlns:xlink="http://www.w3.org/1999/xlink" x="0px" y="0px"
	 width="50px" height="50px" viewBox="0 0 50 50" enable-background="new 0 0 50 50" xml:space="preserve">
<g>
	<path d="M31.059,11.117H18.941c-1.937,0-3.521,1.584-3.521,3.52v22.417c0,1.936,1.585,3.52,3.521,3.52h12.117
		c1.936,0,3.521-1.584,3.521-3.52V14.637C34.579,12.702,32.994,11.117,31.059,11.117z M25.001,39.002
		c-0.678,0-1.229-0.549-1.229-1.226c0-0.676,0.551-1.226,1.229-1.226c0.675,0,1.224,0.55,1.224,1.226
		C26.225,38.453,25.676,39.002,25.001,39.002z M33.143,32.746c0,1.147-0.936,2.085-2.084,2.085H18.941
		c-1.149,0-2.085-0.938-2.085-2.085V14.637c0-1.147,0.936-2.083,2.085-2.083h12.117c1.148,0,2.084,0.936,2.084,2.083V32.746z"/>
	<rect x="18.337" y="25.324" width="2.962" height="7.035"/>
	<rect x="23.521" y="23.103" width="2.96" height="9.256"/>
	<rect x="28.702" y="20.881" width="2.962" height="11.478"/>
</g>
</svg>
