<?xml version="1.0" encoding="utf-8"?>
<!-- Generator: Adobe Illustrator 16.0.0, SVG Export Plug-In . SVG Version: 6.00 Build 0)  -->
<!DOCTYPE svg PUBLIC "-//W3C//DTD SVG 1.1//EN" "http://www.w3.org/Graphics/SVG/1.1/DTD/svg11.dtd">
<svg version="1.1" id="Layer_1" xmlns="http://www.w3.org/2000/svg" xmlns:xlink="http://www.w3.org/1999/xlink" x="0px" y="0px"
	 width="50px" height="50px" viewBox="0 0 50 50" enable-background="new 0 0 50 50" xml:space="preserve">
<g>
	<circle cx="17.659" cy="32.956" r="0.673"/>
	<path d="M35.285,31.964l-1.867-16.797c-0.056-0.511-0.57-0.93-1.143-0.93H17.725c-0.572,0-1.087,0.419-1.143,0.93l-1.867,16.797
		c0,0.02-0.01,0.036-0.01,0.057v1.871c0,1.032,0.84,1.872,1.871,1.872h16.848c1.031,0,1.871-0.84,1.871-1.872v-1.871
		C35.295,32,35.285,31.983,35.285,31.964z M23.984,22.304V18.92h2.031v3.384h1.691L25,25.688l-2.707-3.384H23.984z M34.359,33.892
		c0,0.516-0.422,0.937-0.936,0.937H16.576c-0.514,0-0.936-0.421-0.936-0.937v-1.871c0-0.516,0.422-0.937,0.936-0.937h16.848
		c0.514,0,0.936,0.421,0.936,0.937V33.892z"/>
</g>
</svg>
