<?xml version="1.0" encoding="utf-8"?>
<!-- Generator: Adobe Illustrator 16.0.4, SVG Export Plug-In . SVG Version: 6.00 Build 0)  -->
<!DOCTYPE svg PUBLIC "-//W3C//DTD SVG 1.1//EN" "http://www.w3.org/Graphics/SVG/1.1/DTD/svg11.dtd">
<svg version="1.1" id="Layer_1" xmlns="http://www.w3.org/2000/svg" xmlns:xlink="http://www.w3.org/1999/xlink" x="0px" y="0px"
	 width="50px" height="50px" viewBox="0 0 50 50" enable-background="new 0 0 50 50" xml:space="preserve">
<path d="M17.659,33.283c0.372,0,0.673,0.301,0.673,0.673s-0.301,0.673-0.673,0.673c-0.372,0-0.673-0.301-0.673-0.673
	S17.287,33.283,17.659,33.283z M16.986,27.956c0,0.372,0.301,0.673,0.673,0.673c0.372,0,0.673-0.301,0.673-0.673
	s-0.301-0.673-0.673-0.673C17.287,27.283,16.986,27.584,16.986,27.956z M16.986,21.956c0,0.372,0.301,0.673,0.673,0.673
	c0.372,0,0.673-0.301,0.673-0.673s-0.301-0.673-0.673-0.673C17.287,21.283,16.986,21.584,16.986,21.956z M30.427,35.977
	c-0.462,0-0.913-0.061-1.356-0.148H16.576c-0.514,0-0.936-0.421-0.936-0.938V33.02c0-0.516,0.422-0.937,0.936-0.937h7.594
	c-0.355-0.717-0.584-1.478-0.676-2.256h-6.918c-0.514,0-0.936-0.421-0.936-0.937V27.02c0-0.516,0.422-0.937,0.936-0.937h7.517
	c0.395-0.86,0.954-1.625,1.654-2.256h-9.171c-0.514,0-0.936-0.421-0.936-0.937v-1.87c0-0.516,0.422-0.937,0.936-0.937h16.848
	c0.514,0,0.936,0.421,0.936,0.937v1.871c0,0.12-0.026,0.232-0.067,0.337c0.265,0.176,0.515,0.369,0.752,0.58
	c0.156-0.271,0.252-0.582,0.252-0.917V21.02c0-0.021-0.01-0.037-0.01-0.057l-1.867-6.797c-0.056-0.511-0.569-0.93-1.144-0.93h-14.55
	c-0.572,0-1.087,0.419-1.143,0.93l-1.867,6.797c0,0.02-0.01,0.036-0.01,0.057v1.871c0,0.486,0.191,0.927,0.496,1.26l-0.486,2.812
	c0,0.02-0.01,0.036-0.01,0.057v1.871c0,0.486,0.191,0.928,0.496,1.26l-0.486,2.812c0,0.02-0.01,0.036-0.01,0.057v1.871
	c0,1.032,0.84,1.873,1.871,1.873h15.453l-0.51-0.885C31.158,35.938,30.794,35.977,30.427,35.977z M35.592,26.018
	c1.646,2.852,0.666,6.514-2.188,8.159c-2.853,1.646-6.514,0.668-8.16-2.188c-1.647-2.851-0.666-6.511,2.186-8.158
	C30.282,22.186,33.943,23.165,35.592,26.018z M34.734,26.514c-1.375-2.381-4.43-3.199-6.811-1.827
	c-2.381,1.375-3.2,4.429-1.822,6.809c1.373,2.38,4.428,3.203,6.808,1.827C35.291,31.947,36.107,28.895,34.734,26.514z M34.905,33.81
	l-2.567,1.484l1.978,3.423l2.567-1.484L34.905,33.81z M37.15,37.701l-2.569,1.482c0.41,0.711,1.317,0.952,2.026,0.545
	C37.316,39.318,37.561,38.411,37.15,37.701z"/>
</svg>
