<?xml version="1.0" encoding="utf-8"?>
<!-- Generator: Adobe Illustrator 16.0.0, SVG Export Plug-In . SVG Version: 6.00 Build 0)  -->
<!DOCTYPE svg PUBLIC "-//W3C//DTD SVG 1.1//EN" "http://www.w3.org/Graphics/SVG/1.1/DTD/svg11.dtd">
<svg version="1.1" id="Layer_1" xmlns="http://www.w3.org/2000/svg" xmlns:xlink="http://www.w3.org/1999/xlink" x="0px" y="0px"
	 width="50px" height="50px" viewBox="0 0 50 50" enable-background="new 0 0 50 50" xml:space="preserve">
<g>
	<path d="M30.052,26.016c0.052-2.584-0.097-5.298-0.448-7.122c-0.33-0.352-0.711-0.668-1.137-0.927c0.451,2.11,0.6,6.337,0.443,9.84
		C29.173,27.31,29.623,26.732,30.052,26.016z"/>
	<path d="M30.251,19.717c0.24,1.467,0.361,3.322,0.365,5.186c0.306-0.738,0.525-1.598,0.521-2.63
		C31.134,21.534,30.824,20.588,30.251,19.717z"/>
	<path d="M30.901,32.776c0.029-0.045,0.057-0.091,0.085-0.141c-0.08-0.07-0.183-0.166-0.306-0.286
		c-0.086,0.167-0.178,0.305-0.275,0.426H30.901z"/>
	<path d="M26.706,17.328c0.368,2.871,0.364,12.709-0.01,15.449h1.027c0.694-2.577,0.725-11.972,0.09-15.138
		C27.467,17.494,27.098,17.386,26.706,17.328z"/>
	<path d="M29.984,31.591c-0.132,0.495-0.284,0.899-0.458,1.185h0.59c0.127-0.169,0.246-0.381,0.355-0.638
		C30.318,31.98,30.153,31.797,29.984,31.591z"/>
	<path d="M29.61,31.1c-0.338-0.482-0.64-1.04-0.802-1.632c-0.116,1.435-0.292,2.628-0.532,3.309h0.83
		C29.305,32.391,29.474,31.817,29.61,31.1z"/>
	<path d="M23.313,32.776h1.026c-0.377-2.763-0.378-12.745,0-15.519c-0.38,0.035-0.738,0.098-1.074,0.186
		c-0.541,2.354-0.64,9.028-0.298,12.976c0.191-0.034,0.361-0.064,0.46-0.082c0.348,0.819,0.092,1.435-0.243,1.843
		C23.224,32.406,23.267,32.606,23.313,32.776z"/>
	<path d="M22.711,32.619c-0.146,0.105-0.251,0.158-0.251,0.158h0.298C22.742,32.729,22.728,32.671,22.711,32.619z"/>
	<path d="M21.574,18.256c-0.715,2.822-0.792,8.867-0.229,12.377c0.075,0.002,0.145,0.019,0.222,0.008
		c0.242-0.032,0.505-0.073,0.762-0.115c-0.437-3.815-0.334-10.368,0.311-12.878C22.244,17.808,21.882,18.004,21.574,18.256z"/>
	<path d="M18.862,26.126c0.003,0.105,0.006,0.211,0.011,0.315c0.099,0.103,0.264,0.187,0.434,0.253
		c-0.023-0.501-0.037-1.009-0.039-1.52c-0.173,0.31-0.321,0.6-0.405,0.819C18.862,26.038,18.862,26.082,18.862,26.126z"/>
	<path d="M24.972,17.224c-0.176,2.749-0.177,12.755-0.001,15.552h1.095c0.174-2.784,0.174-12.71,0-15.514
		C25.687,17.231,25.321,17.218,24.972,17.224z"/>
	<path d="M20.688,19.334c-0.932,1.756-1.003,3.297-0.932,3.584c0.072,0.287,0.377,0.824,0.377,0.824s-0.233,0.36-0.505,0.811
		c-0.009,0.756,0.004,1.517,0.04,2.258c0.113,0.03,0.195,0.047,0.195,0.047s0.088,0.249-0.092,0.733
		c-0.179,0.484,0.334,1.046,0.487,1.242c0.153,0.195-0.214,0.806-0.09,1.146c0.075,0.204,0.327,0.42,0.653,0.552
		c-0.569-3.231-0.537-8.553,0.098-11.543C20.842,19.101,20.755,19.208,20.688,19.334z"/>
	<path d="M25,35c-5.514,0-10-4.486-10-10s4.486-10,10-10c0.16,0,0.319,0.004,0.477,0.011l0.047-0.999C25.35,14.004,25.175,14,25,14
		c-6.065,0-11,4.935-11,11s4.935,11,11,11c0.175,0,0.35-0.004,0.523-0.012l-0.047-0.999C25.319,34.996,25.16,35,25,35z"/>
	<path d="M26.456,34.895l0.144,0.989c0.359-0.052,0.713-0.122,1.061-0.208l-0.242-0.971C27.103,34.784,26.782,34.848,26.456,34.895z
		"/>
	<path d="M27.677,14.329c-0.347-0.087-0.701-0.157-1.06-0.21l-0.146,0.989c0.326,0.048,0.647,0.111,0.962,0.19L27.677,14.329z"/>
	<path d="M33.154,17.617c-0.242-0.267-0.497-0.522-0.763-0.764l-0.672,0.74c0.242,0.22,0.474,0.452,0.694,0.695L33.154,17.617z"/>
	<path d="M29.708,15.056c-0.324-0.153-0.657-0.291-0.997-0.414l-0.338,0.941c0.309,0.111,0.612,0.237,0.907,0.376L29.708,15.056z"/>
	<path d="M34.894,23.539l0.989-0.146c-0.053-0.359-0.123-0.712-0.208-1.059l-0.971,0.24C34.782,22.891,34.846,23.212,34.894,23.539z
		"/>
	<path d="M34.42,21.637l0.941-0.337c-0.122-0.34-0.26-0.674-0.413-0.998l-0.904,0.428C34.184,21.024,34.31,21.327,34.42,21.637z"/>
	<path d="M33.582,19.864l0.857-0.515c-0.186-0.31-0.386-0.609-0.601-0.898l-0.803,0.597C33.231,19.31,33.413,19.583,33.582,19.864z"
		/>
	<path d="M35.987,24.468l-0.999,0.049C34.996,24.678,35,24.838,35,25c0,0.167-0.004,0.334-0.012,0.5l0.999,0.048
		C35.996,25.366,36,25.183,36,25C36,24.822,35.996,24.645,35.987,24.468z"/>
	<path d="M28.357,34.422l0.337,0.941c0.34-0.122,0.673-0.259,0.998-0.413l-0.427-0.904C28.97,34.187,28.667,34.312,28.357,34.422z"
		/>
	<path d="M34.701,27.439l0.97,0.243c0.087-0.347,0.158-0.701,0.21-1.06l-0.989-0.146C34.844,26.803,34.78,27.124,34.701,27.439z"/>
	<path d="M34.038,29.284l0.903,0.43c0.154-0.324,0.292-0.657,0.415-0.998l-0.941-0.338C34.304,28.688,34.178,28.99,34.038,29.284z"
		/>
	<path d="M30.144,16.423c0.282,0.169,0.554,0.352,0.816,0.547l0.597-0.803c-0.289-0.214-0.588-0.415-0.897-0.601L30.144,16.423z"/>
	<path d="M30.131,33.585l0.515,0.857c0.309-0.186,0.609-0.386,0.897-0.6l-0.595-0.804C30.686,33.234,30.413,33.417,30.131,33.585z"
		/>
	<path d="M31.708,32.417l0.672,0.741c0.267-0.242,0.522-0.497,0.764-0.763l-0.74-0.672C32.183,31.965,31.951,32.197,31.708,32.417z"
		/>
	<path d="M33.027,30.964l0.802,0.598c0.215-0.289,0.416-0.588,0.602-0.897l-0.857-0.515C33.405,30.431,33.223,30.702,33.027,30.964z
		"/>
</g>
</svg>
