<?xml version="1.0" encoding="utf-8"?>
<!-- Generator: Adobe Illustrator 16.0.0, SVG Export Plug-In . SVG Version: 6.00 Build 0)  -->
<!DOCTYPE svg PUBLIC "-//W3C//DTD SVG 1.1//EN" "http://www.w3.org/Graphics/SVG/1.1/DTD/svg11.dtd">
<svg version="1.1" id="Layer_1" xmlns="http://www.w3.org/2000/svg" xmlns:xlink="http://www.w3.org/1999/xlink" x="0px" y="0px"
	 width="50px" height="50px" viewBox="0 0 50 50" enable-background="new 0 0 50 50" xml:space="preserve">
<g>
	<g>
		<path d="M26.859,24.925c-2.551,0-4.618-0.826-4.618-1.847v1.847c0,1.021,2.067,1.848,4.618,1.848c2.551,0,4.619-0.827,4.619-1.848
			v-1.847C31.478,24.1,29.411,24.925,26.859,24.925z"/>
		<path d="M26.859,18.46c-2.551,0-4.618,0.827-4.618,1.847v1.848c0,1.021,2.067,1.848,4.618,1.848c2.551,0,4.619-0.827,4.619-1.848
			v-1.848C31.478,19.287,29.411,18.46,26.859,18.46z M26.859,21.693c-2.538,0-4.156-0.821-4.156-1.386
			c0-0.564,1.619-1.385,4.156-1.385c2.538,0,4.157,0.82,4.157,1.385C31.016,20.872,29.397,21.693,26.859,21.693z"/>
		<path d="M25.05,28.859c1.564-0.738,4.097-0.902,6.104-0.493c0.202-0.208,0.324-0.432,0.324-0.668v-1.848
			c0,1.021-2.067,1.848-4.619,1.848c-0.756,0-1.459-0.08-2.09-0.209c0.165,0.248,0.281,0.515,0.281,0.818V28.859z"/>
		<path d="M23.61,30.597c0-0.542,0.308-0.986,0.79-1.35v-0.94c0-1.02-2.067-1.847-4.619-1.847c-2.551,0-4.618,0.827-4.618,1.847
			v1.848c0,1.021,2.067,1.848,4.618,1.848c1.594,0,2.999-0.323,3.829-0.813V30.597z M15.626,28.307c0-0.564,1.619-1.385,4.156-1.385
			c2.538,0,4.157,0.82,4.157,1.385c0,0.565-1.619,1.386-4.157,1.386C17.245,29.692,15.626,28.872,15.626,28.307z"/>
		<path d="M23.61,32.112c-0.83,0.491-2.234,0.813-3.829,0.813c-2.551,0-4.618-0.826-4.618-1.847v1.847
			c0,1.021,2.067,1.848,4.618,1.848c1.594,0,2.999-0.323,3.829-0.814V32.112z"/>
		<g>
			<path d="M28.878,35.215c-2.551,0-4.618-0.826-4.618-1.847v1.847c0,1.021,2.067,1.848,4.618,1.848
				c2.551,0,4.619-0.827,4.619-1.848v-1.847C33.497,34.389,31.43,35.215,28.878,35.215z"/>
			<path d="M28.878,28.75c-2.551,0-4.618,0.827-4.618,1.847v1.848c0,1.021,2.067,1.848,4.618,1.848c2.551,0,4.619-0.827,4.619-1.848
				v-1.848C33.497,29.577,31.43,28.75,28.878,28.75z M28.878,31.982c-2.538,0-4.156-0.82-4.156-1.386
				c0-0.564,1.619-1.385,4.156-1.385c2.538,0,4.157,0.821,4.157,1.385C33.035,31.162,31.417,31.982,28.878,31.982z"/>
		</g>
	</g>
	<polygon points="19.782,27.947 18.699,25.348 13.881,25.348 13.881,20.8 19.782,20.8 	"/>
	<polygon points="26.562,20.084 25.479,17.485 20.66,17.485 20.66,12.937 26.562,12.937 	"/>
	<polygon points="30.217,31.521 31.3,28.922 36.119,28.922 36.119,24.374 30.217,24.374 	"/>
</g>
</svg>
