<?xml version="1.0" encoding="utf-8"?>
<!-- Generator: Adobe Illustrator 16.0.0, SVG Export Plug-In . SVG Version: 6.00 Build 0)  -->
<!DOCTYPE svg PUBLIC "-//W3C//DTD SVG 1.1//EN" "http://www.w3.org/Graphics/SVG/1.1/DTD/svg11.dtd">
<svg version="1.1" id="Layer_1" xmlns="http://www.w3.org/2000/svg" xmlns:xlink="http://www.w3.org/1999/xlink" x="0px" y="0px"
	 width="50px" height="50px" viewBox="0 0 50 50" enable-background="new 0 0 50 50" xml:space="preserve">
<g>
	<g>
		<g>
			<path d="M35.976,32.023H14.024c-1.025,0-1.859-0.834-1.859-1.859V17.419c0-1.025,0.834-1.859,1.859-1.859h21.951
				c1.025,0,1.859,0.834,1.859,1.859v12.745C37.834,31.189,37,32.023,35.976,32.023z M14.024,16.56
				c-0.474,0-0.859,0.386-0.859,0.859v12.745c0,0.474,0.385,0.859,0.859,0.859h21.951c0.474,0,0.859-0.386,0.859-0.859V17.419
				c0-0.474-0.385-0.859-0.859-0.859H14.024z"/>
		</g>
		<path d="M27.833,32.539v0.735h-5.667v-0.735H9.666c0,1.048,0.61,1.901,1.359,1.901h27.951c0.749,0,1.359-0.854,1.359-1.901H27.833
			z"/>
	</g>
	<g>
		<path d="M31.903,23.671c-0.279-1-1.077-1.728-2.026-1.728c-0.011,0-0.021,0.004-0.031,0.004c-0.153-1.9-1.51-3.394-3.18-3.394
			c-0.94,0-1.778,0.48-2.365,1.23c-0.371-0.357-0.84-0.581-1.358-0.581c-1.163,0-2.104,1.082-2.135,2.429
			c-0.204-0.09-0.423-0.146-0.654-0.146c-1.024,0-1.854,0.968-1.854,2.161c-0.725,0-1.312,0.685-1.312,1.528
			c0,0.843,0.587,1.527,1.312,1.527c0,0,1.633,0,3.757,0L21.354,26v-0.001l-0.959-0.956l0.385-0.385
			c1.126-1.126,2.625-1.746,4.222-1.746c1.596,0,3.095,0.62,4.221,1.746l0.384,0.384L28.647,26l-0.703,0.703
			c2.124,0,3.756,0,3.756,0c0.725,0,1.312-0.685,1.312-1.527C33.012,24.412,32.531,23.785,31.903,23.671z"/>
		<g>
			<path d="M21.163,25.042l0.554,0.553c1.811-1.811,4.757-1.809,6.566,0.001l0.554-0.554C26.722,22.926,23.279,22.926,21.163,25.042
				z"/>
			<path d="M22.122,26l0.554,0.554c1.282-1.282,3.369-1.282,4.65,0L27.879,26C26.293,24.412,23.709,24.412,22.122,26z"/>
			<path d="M23.109,26.987l0.555,0.556c0.737-0.737,1.935-0.737,2.673,0l0.553-0.556C25.848,25.945,24.151,25.945,23.109,26.987z"/>
			<circle cx="24.999" cy="28.287" r="0.744"/>
		</g>
	</g>
</g>
</svg>
