<?xml version="1.0" encoding="utf-8"?>
<!-- Generator: Adobe Illustrator 16.0.0, SVG Export Plug-In . SVG Version: 6.00 Build 0)  -->
<!DOCTYPE svg PUBLIC "-//W3C//DTD SVG 1.1//EN" "http://www.w3.org/Graphics/SVG/1.1/DTD/svg11.dtd">
<svg version="1.1" id="Layer_1" xmlns="http://www.w3.org/2000/svg" xmlns:xlink="http://www.w3.org/1999/xlink" x="0px" y="0px"
	 width="50px" height="50px" viewBox="0 0 50 50" enable-background="new 0 0 50 50" xml:space="preserve">
<g>
	<path d="M28.889,23.444v-3.111c0,0.859-1.741,1.555-3.889,1.555s-3.889-0.696-3.889-1.555v3.111C21.111,24.304,22.852,25,25,25
		S28.889,24.304,28.889,23.444z"/>
	<path d="M25,17.222c2.148,0,3.889-0.696,3.889-1.556v-3.111C28.889,11.696,27.148,11,25,11s-3.889,0.696-3.889,1.556v3.111
		C21.111,16.526,22.852,17.222,25,17.222z M25,11.389c2.137,0,3.5,0.691,3.5,1.167c0,0.476-1.363,1.167-3.5,1.167
		s-3.5-0.691-3.5-1.167C21.5,12.08,22.863,11.389,25,11.389z"/>
	<path d="M17.223,35.889c-2.148,0-3.889-0.696-3.889-1.555v3.111c0,0.859,1.741,1.556,3.889,1.556s3.889-0.696,3.889-1.556v-3.111
		C21.111,35.193,19.371,35.889,17.223,35.889z"/>
	<path d="M32.777,32c-2.148,0-3.889-0.696-3.889-1.556v1.833h-7.777v-1.833c0,0.859-1.741,1.556-3.889,1.556
		s-3.889-0.696-3.889-1.556v3.111c0,0.859,1.741,1.556,3.889,1.556s3.889-0.696,3.889-1.556v-0.278h7.777v0.278
		c0,0.859,1.741,1.556,3.889,1.556s3.889-0.696,3.889-1.556v-3.111C36.666,31.304,34.925,32,32.777,32z"/>
	<path d="M32.777,35.889c-2.148,0-3.889-0.696-3.889-1.555v3.111c0,0.859,1.741,1.556,3.889,1.556s3.889-0.696,3.889-1.556v-3.111
		C36.666,35.193,34.925,35.889,32.777,35.889z"/>
	<path d="M33.382,25.024l-4.494-7.189v-1.391C28.889,17.304,27.148,18,25,18s-3.889-0.696-3.889-1.556v1.391l-4.494,7.189
		c-1.858,0.117-3.284,0.755-3.284,1.531v3.111c0,0.859,1.741,1.556,3.889,1.556s3.889-0.696,3.889-1.556v-3.111
		c0-0.781-1.44-1.42-3.313-1.532l3.343-5.35c0.153,0.803,1.812,1.438,3.859,1.438s3.706-0.634,3.859-1.438l3.343,5.35
		c-1.873,0.112-3.313,0.751-3.313,1.532v3.111c0,0.859,1.741,1.556,3.889,1.556s3.889-0.696,3.889-1.556v-3.111
		C36.666,25.779,35.241,25.141,33.382,25.024z M20.723,26.556c0,0.476-1.363,1.167-3.5,1.167s-3.5-0.691-3.5-1.167
		c0-0.476,1.363-1.167,3.5-1.167S20.723,26.08,20.723,26.556z M32.777,27.722c-2.137,0-3.5-0.691-3.5-1.167
		c0-0.476,1.363-1.167,3.5-1.167s3.5,0.691,3.5,1.167C36.277,27.031,34.914,27.722,32.777,27.722z"/>
</g>
</svg>
