<?xml version="1.0" encoding="utf-8"?>
<!-- Generator: Adobe Illustrator 16.0.0, SVG Export Plug-In . SVG Version: 6.00 Build 0)  -->
<!DOCTYPE svg PUBLIC "-//W3C//DTD SVG 1.1//EN" "http://www.w3.org/Graphics/SVG/1.1/DTD/svg11.dtd">
<svg version="1.1" id="Layer_1" xmlns="http://www.w3.org/2000/svg" xmlns:xlink="http://www.w3.org/1999/xlink" x="0px" y="0px"
	 width="50px" height="50px" viewBox="0 0 50 50" enable-background="new 0 0 50 50" xml:space="preserve">
<g>
	<path d="M32.418,15.199c-2.902-5.026-9.355-6.752-14.381-3.853c-5.026,2.902-6.756,9.354-3.853,14.376
		c2.901,5.033,9.354,6.756,14.38,3.854C33.592,26.678,35.319,20.225,32.418,15.199z M15.696,24.854
		c-2.427-4.195-0.982-9.576,3.212-11.999c4.195-2.418,9.578-0.976,12.002,3.219c2.419,4.194,0.979,9.575-3.218,11.999
		C23.498,30.498,18.117,29.048,15.696,24.854z"/>
	<polygon points="31.209,28.931 26.684,31.547 30.168,37.578 34.693,34.968 	"/>
	<path d="M35.166,35.787L30.637,38.4c0.725,1.252,2.323,1.678,3.572,0.958C35.46,38.639,35.888,37.039,35.166,35.787z"/>
	<rect x="18.66" y="19.136" width="2.062" height="5.864"/>
	<rect x="22.27" y="17.589" width="2.062" height="7.411"/>
	<rect x="25.878" y="16.042" width="2.062" height="8.958"/>
</g>
</svg>
