<?xml version="1.0" encoding="utf-8"?>
<!-- Generator: Adobe Illustrator 16.0.0, SVG Export Plug-In . SVG Version: 6.00 Build 0)  -->
<!DOCTYPE svg PUBLIC "-//W3C//DTD SVG 1.1//EN" "http://www.w3.org/Graphics/SVG/1.1/DTD/svg11.dtd">
<svg version="1.1" id="Layer_1" xmlns="http://www.w3.org/2000/svg" xmlns:xlink="http://www.w3.org/1999/xlink" x="0px" y="0px"
	 width="50px" height="50px" viewBox="0 0 50 50" enable-background="new 0 0 50 50" xml:space="preserve">
<g>
	<path d="M26.774,26.234c-0.114,0-0.171,0.057-0.171,0.171v1.469c0,0.114,0.057,0.171,0.171,0.171s0.174-0.057,0.174-0.171v-1.469
		C26.948,26.291,26.889,26.234,26.774,26.234z"/>
	<path d="M23.226,17.562c-0.116,0-0.171,0.057-0.171,0.169v1.47c0,0.115,0.055,0.171,0.171,0.171c0.114,0,0.172-0.056,0.172-0.171
		v-1.47C23.397,17.619,23.34,17.562,23.226,17.562z"/>
	<path d="M30.418,23.746c0.116,0,0.173-0.057,0.173-0.171v-1.469c0-0.114-0.057-0.172-0.173-0.172c-0.114,0-0.166,0.058-0.166,0.172
		v1.469C30.252,23.689,30.304,23.746,30.418,23.746z"/>
	<path d="M15.937,30.608c-0.114,0-0.169,0.056-0.169,0.169v1.47c0,0.113,0.055,0.17,0.169,0.17c0.116,0,0.17-0.057,0.17-0.17v-1.47
		C16.106,30.665,16.053,30.608,15.937,30.608z"/>
	<path d="M26.774,30.608c-0.114,0-0.171,0.056-0.171,0.169v1.47c0,0.113,0.057,0.17,0.171,0.17s0.174-0.057,0.174-0.17v-1.47
		C26.948,30.665,26.889,30.608,26.774,30.608z"/>
	<path d="M19.583,30.608c-0.114,0-0.174,0.056-0.174,0.169v1.47c0,0.113,0.06,0.17,0.174,0.17c0.113,0,0.171-0.057,0.171-0.17v-1.47
		C19.754,30.665,19.696,30.608,19.583,30.608z"/>
	<path d="M23.226,30.608c-0.116,0-0.171,0.056-0.171,0.169v1.47c0,0.113,0.055,0.17,0.171,0.17c0.114,0,0.172-0.057,0.172-0.17
		v-1.47C23.397,30.665,23.34,30.608,23.226,30.608z"/>
	<path d="M19.583,17.562c-0.114,0-0.174,0.057-0.174,0.169v1.47c0,0.115,0.06,0.171,0.174,0.171c0.113,0,0.171-0.056,0.171-0.171
		v-1.47C19.754,17.619,19.696,17.562,19.583,17.562z"/>
	<path d="M23.226,26.234c-0.116,0-0.171,0.057-0.171,0.171v1.469c0,0.114,0.055,0.171,0.171,0.171c0.114,0,0.172-0.057,0.172-0.171
		v-1.469C23.397,26.291,23.34,26.234,23.226,26.234z"/>
	<path d="M30.617,27.823v0.561h-0.396v-0.677c-0.634-0.175-1.297-0.322-1.988-0.432c2.172-1.564,3.65-4.509,3.65-7.142
		c0-2.976-1.898-5.486-4.542-6.447v1.085c0,0.175-0.058,0.314-0.17,0.415c-0.116,0.101-0.248,0.152-0.397,0.152
		c-0.151,0-0.282-0.051-0.396-0.152c-0.11-0.1-0.171-0.239-0.171-0.415v-1.337c0-0.023,0.01-0.04,0.011-0.061
		C25.821,13.301,25.417,13.25,25,13.25s-0.821,0.052-1.218,0.123c0.001,0.021,0.011,0.038,0.011,0.061v1.337
		c0,0.175-0.061,0.314-0.173,0.415c-0.114,0.101-0.244,0.152-0.395,0.152c-0.152,0-0.284-0.051-0.398-0.152
		c-0.111-0.1-0.169-0.239-0.169-0.415v-1.085c-2.644,0.961-4.542,3.472-4.542,6.447c0,2.633,1.479,5.578,3.65,7.142
		c-0.558,0.089-1.096,0.203-1.617,0.334v0.208c0,0.175-0.059,0.314-0.173,0.415c-0.115,0.102-0.244,0.152-0.394,0.152
		c-0.152,0-0.286-0.05-0.397-0.152c-0.087-0.077-0.13-0.184-0.149-0.305c-3.632,1.185-6.083,3.414-6.083,5.974
		c0,0.744,0.932,1.341,2.418,1.794v-0.468c0-0.188,0.055-0.333,0.169-0.432c0.11-0.101,0.247-0.151,0.396-0.151
		s0.281,0.051,0.395,0.151c0.115,0.1,0.173,0.245,0.173,0.432v0.763c0.858,0.19,1.83,0.346,2.879,0.465v-1.812h0.396v1.854
		c1.034,0.106,2.128,0.18,3.25,0.219v-2.073h0.394v2.085c1.048,0.029,2.106,0.029,3.154,0v-2.085h0.396v2.073
		c0.988-0.034,1.955-0.096,2.88-0.184v-1.306c0-0.188,0.056-0.333,0.17-0.432c0.111-0.101,0.246-0.151,0.395-0.151
		c0.151,0,0.281,0.051,0.396,0.151c0.116,0.1,0.174,0.245,0.174,0.432v1.183c1.06-0.131,2.032-0.299,2.878-0.506v-1.26h0.397v1.158
		c1.699-0.464,2.784-1.096,2.784-1.9C37.047,31.26,34.438,28.976,30.617,27.823z M29.854,17.805c0-0.186,0.056-0.331,0.17-0.431
		c0.111-0.1,0.246-0.152,0.395-0.152c0.151,0,0.281,0.052,0.396,0.152c0.116,0.1,0.174,0.245,0.174,0.431v1.339
		c0,0.175-0.058,0.315-0.174,0.415c-0.114,0.101-0.244,0.151-0.396,0.151c-0.148,0-0.283-0.05-0.395-0.151
		c-0.114-0.1-0.17-0.24-0.17-0.415V17.805z M29.854,22.18c0-0.188,0.056-0.332,0.17-0.432c0.111-0.101,0.246-0.151,0.395-0.151
		c0.151,0,0.281,0.051,0.396,0.151c0.116,0.1,0.174,0.244,0.174,0.432v1.338c0,0.174-0.058,0.314-0.174,0.415
		c-0.114,0.099-0.244,0.151-0.396,0.151c-0.148,0-0.283-0.052-0.395-0.151c-0.114-0.101-0.17-0.241-0.17-0.415V22.18z
		 M19.779,24.084h-0.396v-2.487h0.396V24.084z M20.149,19.144c0,0.175-0.059,0.315-0.173,0.415
		c-0.115,0.101-0.244,0.151-0.394,0.151c-0.152,0-0.286-0.05-0.397-0.151c-0.113-0.1-0.17-0.24-0.17-0.415v-1.339
		c0-0.186,0.057-0.331,0.17-0.431c0.111-0.1,0.245-0.152,0.397-0.152c0.149,0,0.278,0.052,0.394,0.152
		c0.114,0.1,0.173,0.245,0.173,0.431V19.144z M16.504,32.191c0,0.175-0.058,0.314-0.173,0.415c-0.113,0.101-0.245,0.151-0.395,0.151
		s-0.286-0.05-0.396-0.151c-0.114-0.1-0.169-0.239-0.169-0.415v-1.338c0-0.188,0.055-0.332,0.169-0.432
		c0.11-0.1,0.247-0.152,0.396-0.152s0.281,0.052,0.395,0.152c0.115,0.1,0.173,0.244,0.173,0.432V32.191z M20.149,32.191
		c0,0.175-0.059,0.314-0.173,0.415c-0.115,0.101-0.244,0.151-0.394,0.151c-0.152,0-0.286-0.05-0.397-0.151
		c-0.113-0.1-0.17-0.239-0.17-0.415v-1.338c0-0.188,0.057-0.332,0.17-0.432c0.111-0.1,0.245-0.152,0.397-0.152
		c0.149,0,0.278,0.052,0.394,0.152c0.114,0.1,0.173,0.244,0.173,0.432V32.191z M23.793,32.191c0,0.175-0.061,0.314-0.173,0.415
		c-0.114,0.101-0.244,0.151-0.395,0.151c-0.152,0-0.284-0.05-0.398-0.151c-0.111-0.1-0.169-0.239-0.169-0.415v-1.338
		c0-0.188,0.058-0.332,0.169-0.432c0.114-0.1,0.246-0.152,0.398-0.152c0.15,0,0.28,0.052,0.395,0.152
		c0.112,0.1,0.173,0.244,0.173,0.432V32.191z M23.793,27.817c0,0.175-0.061,0.314-0.173,0.415c-0.114,0.102-0.244,0.152-0.395,0.152
		c-0.152,0-0.284-0.05-0.398-0.152c-0.111-0.1-0.169-0.239-0.169-0.415v-1.336c0-0.19,0.058-0.333,0.169-0.434
		c0.114-0.101,0.246-0.151,0.398-0.151c0.15,0,0.28,0.05,0.395,0.151c0.112,0.101,0.173,0.244,0.173,0.434V27.817z M23.029,24.084
		v-2.487h0.394v2.487H23.029z M23.793,19.144c0,0.175-0.061,0.315-0.173,0.415c-0.114,0.101-0.244,0.151-0.395,0.151
		c-0.152,0-0.284-0.05-0.398-0.151c-0.111-0.1-0.169-0.24-0.169-0.415v-1.339c0-0.186,0.058-0.331,0.169-0.431
		c0.114-0.1,0.246-0.152,0.398-0.152c0.15,0,0.28,0.052,0.395,0.152c0.112,0.1,0.173,0.245,0.173,0.431V19.144z M27.342,32.191
		c0,0.175-0.058,0.314-0.17,0.415c-0.116,0.101-0.248,0.151-0.397,0.151c-0.151,0-0.282-0.05-0.396-0.151
		c-0.11-0.1-0.171-0.239-0.171-0.415v-1.338c0-0.188,0.061-0.332,0.171-0.432c0.114-0.1,0.245-0.152,0.396-0.152
		c0.149,0,0.281,0.052,0.397,0.152c0.112,0.1,0.17,0.244,0.17,0.432V32.191z M27.342,27.817c0,0.175-0.058,0.314-0.17,0.415
		c-0.116,0.102-0.248,0.152-0.397,0.152c-0.151,0-0.282-0.05-0.396-0.152c-0.11-0.1-0.171-0.239-0.171-0.415v-1.336
		c0-0.19,0.061-0.333,0.171-0.434c0.114-0.101,0.245-0.151,0.396-0.151c0.149,0,0.281,0.05,0.397,0.151
		c0.112,0.101,0.17,0.244,0.17,0.434V27.817z M26.577,24.084v-2.487h0.396v2.487H26.577z M27.342,19.144
		c0,0.175-0.058,0.315-0.17,0.415c-0.116,0.101-0.248,0.151-0.397,0.151c-0.151,0-0.282-0.05-0.396-0.151
		c-0.11-0.1-0.171-0.24-0.171-0.415v-1.339c0-0.186,0.061-0.331,0.171-0.431c0.114-0.1,0.245-0.152,0.396-0.152
		c0.149,0,0.281,0.052,0.397,0.152c0.112,0.1,0.17,0.245,0.17,0.431V19.144z M30.987,32.191c0,0.175-0.058,0.314-0.174,0.415
		c-0.114,0.101-0.244,0.151-0.396,0.151c-0.148,0-0.283-0.05-0.395-0.151c-0.114-0.1-0.17-0.239-0.17-0.415v-1.338
		c0-0.188,0.056-0.332,0.17-0.432c0.111-0.1,0.246-0.152,0.395-0.152c0.151,0,0.281,0.052,0.396,0.152
		c0.116,0.1,0.174,0.244,0.174,0.432V32.191z M34.631,32.191c0,0.175-0.057,0.314-0.171,0.415c-0.114,0.101-0.246,0.151-0.396,0.151
		c-0.151,0-0.285-0.05-0.396-0.151c-0.114-0.1-0.169-0.239-0.169-0.415v-1.338c0-0.188,0.055-0.332,0.169-0.432
		c0.111-0.1,0.245-0.152,0.396-0.152c0.149,0,0.281,0.052,0.396,0.152s0.171,0.244,0.171,0.432V32.191z"/>
	<path d="M30.418,30.608c-0.114,0-0.166,0.056-0.166,0.169v1.47c0,0.113,0.052,0.17,0.166,0.17c0.116,0,0.173-0.057,0.173-0.17
		v-1.47C30.591,30.665,30.534,30.608,30.418,30.608z"/>
	<path d="M34.064,30.608c-0.114,0-0.171,0.056-0.171,0.169v1.47c0,0.113,0.057,0.17,0.171,0.17c0.113,0,0.172-0.057,0.172-0.17
		v-1.47C34.236,30.665,34.178,30.608,34.064,30.608z"/>
	<path d="M23.226,14.999c0.114,0,0.172-0.057,0.172-0.17v-1.372c-0.117,0.028-0.228,0.072-0.343,0.107v1.265
		C23.055,14.941,23.109,14.999,23.226,14.999z"/>
	<path d="M30.418,19.372c0.116,0,0.173-0.056,0.173-0.171v-1.47c0-0.112-0.057-0.169-0.173-0.169c-0.114,0-0.166,0.057-0.166,0.169
		v1.47C30.252,19.315,30.304,19.372,30.418,19.372z"/>
	<path d="M26.774,14.999c0.114,0,0.174-0.057,0.174-0.17v-1.265c-0.115-0.034-0.226-0.079-0.345-0.107v1.372
		C26.604,14.941,26.66,14.999,26.774,14.999z"/>
	<path d="M19.583,28.046c0.113,0,0.171-0.057,0.171-0.171v-0.161c-0.116,0.033-0.23,0.067-0.345,0.102v0.06
		C19.409,27.989,19.469,28.046,19.583,28.046z"/>
	<path d="M26.774,17.562c-0.114,0-0.171,0.057-0.171,0.169v1.47c0,0.115,0.057,0.171,0.171,0.171s0.174-0.056,0.174-0.171v-1.47
		C26.948,17.619,26.889,17.562,26.774,17.562z"/>
	<path d="M30.418,34.98c-0.114,0-0.166,0.057-0.166,0.171v1.342c0.112-0.011,0.227-0.022,0.339-0.035v-1.307
		C30.591,35.038,30.534,34.98,30.418,34.98z"/>
	<path d="M15.937,34.98c-0.114,0-0.169,0.057-0.169,0.171v0.658c0.11,0.03,0.223,0.059,0.339,0.086v-0.744
		C16.106,35.038,16.053,34.98,15.937,34.98z"/>
</g>
</svg>
