<?xml version="1.0" encoding="utf-8"?>
<!-- Generator: Adobe Illustrator 16.0.0, SVG Export Plug-In . SVG Version: 6.00 Build 0)  -->
<!DOCTYPE svg PUBLIC "-//W3C//DTD SVG 1.1//EN" "http://www.w3.org/Graphics/SVG/1.1/DTD/svg11.dtd">
<svg version="1.1" id="Layer_1" xmlns="http://www.w3.org/2000/svg" xmlns:xlink="http://www.w3.org/1999/xlink" x="0px" y="0px"
	 width="50px" height="50px" viewBox="0 0 50 50" enable-background="new 0 0 50 50" xml:space="preserve">
<g>
	<path d="M31.5,17.5h-13c-0.55,0-1,0.45-1,1v13c0,0.55,0.45,1,1,1h13c0.55,0,1-0.45,1-1v-13C32.5,17.95,32.05,17.5,31.5,17.5z"/>
	<path d="M34,22.625h4c0.414,0,0.75-0.336,0.75-0.75s-0.336-0.75-0.75-0.75h-4c-0.414,0-0.75,0.336-0.75,0.75
		S33.586,22.625,34,22.625z"/>
	<path d="M38,24.25h-4c-0.414,0-0.75,0.336-0.75,0.75s0.336,0.75,0.75,0.75h4c0.414,0,0.75-0.336,0.75-0.75S38.414,24.25,38,24.25z"
		/>
	<path d="M38,27.375h-4c-0.414,0-0.75,0.336-0.75,0.75s0.336,0.75,0.75,0.75h4c0.414,0,0.75-0.336,0.75-0.75
		S38.414,27.375,38,27.375z"/>
	<path d="M16,21.125h-4c-0.414,0-0.75,0.336-0.75,0.75s0.336,0.75,0.75,0.75h4c0.414,0,0.75-0.336,0.75-0.75
		S16.414,21.125,16,21.125z"/>
	<path d="M16,24.25h-4c-0.414,0-0.75,0.336-0.75,0.75s0.336,0.75,0.75,0.75h4c0.414,0,0.75-0.336,0.75-0.75S16.414,24.25,16,24.25z"
		/>
	<path d="M16,27.375h-4c-0.414,0-0.75,0.336-0.75,0.75s0.336,0.75,0.75,0.75h4c0.414,0,0.75-0.336,0.75-0.75
		S16.414,27.375,16,27.375z"/>
	<path d="M21.875,16.75c0.414,0,0.75-0.336,0.75-0.75v-4c0-0.414-0.336-0.75-0.75-0.75s-0.75,0.336-0.75,0.75v4
		C21.125,16.414,21.461,16.75,21.875,16.75z"/>
	<path d="M25,16.75c0.414,0,0.75-0.336,0.75-0.75v-4c0-0.414-0.336-0.75-0.75-0.75s-0.75,0.336-0.75,0.75v4
		C24.25,16.414,24.586,16.75,25,16.75z"/>
	<path d="M28.125,16.75c0.414,0,0.75-0.336,0.75-0.75v-4c0-0.414-0.336-0.75-0.75-0.75s-0.75,0.336-0.75,0.75v4
		C27.375,16.414,27.711,16.75,28.125,16.75z"/>
	<path d="M21.875,33.25c-0.414,0-0.75,0.336-0.75,0.75v4c0,0.414,0.336,0.75,0.75,0.75s0.75-0.336,0.75-0.75v-4
		C22.625,33.586,22.289,33.25,21.875,33.25z"/>
	<path d="M25,33.25c-0.414,0-0.75,0.336-0.75,0.75v4c0,0.414,0.336,0.75,0.75,0.75s0.75-0.336,0.75-0.75v-4
		C25.75,33.586,25.414,33.25,25,33.25z"/>
	<path d="M28.125,33.25c-0.414,0-0.75,0.336-0.75,0.75v4c0,0.414,0.336,0.75,0.75,0.75s0.75-0.336,0.75-0.75v-4
		C28.875,33.586,28.539,33.25,28.125,33.25z"/>
</g>
</svg>
