<?xml version="1.0" encoding="utf-8"?>
<!-- Generator: Adobe Illustrator 16.0.0, SVG Export Plug-In . SVG Version: 6.00 Build 0)  -->
<!DOCTYPE svg PUBLIC "-//W3C//DTD SVG 1.1//EN" "http://www.w3.org/Graphics/SVG/1.1/DTD/svg11.dtd">
<svg version="1.1" id="Layer_1" xmlns="http://www.w3.org/2000/svg" xmlns:xlink="http://www.w3.org/1999/xlink" x="0px" y="0px"
	 width="50px" height="50px" viewBox="0 0 50 50" enable-background="new 0 0 50 50" xml:space="preserve">
<g>
	<polygon points="21.521,13.282 21.521,14.258 34.89,14.258 34.89,30.864 36.171,30.864 36.171,13.282 	"/>
	<polygon points="18.958,16.21 32.326,16.21 32.326,32.815 33.607,32.815 33.607,15.233 18.958,15.233 	"/>
	<polygon points="16.393,18.162 29.761,18.162 29.761,34.767 31.042,34.767 31.042,17.185 16.393,17.185 	"/>
	<path d="M13.829,36.718h14.65V19.137h-14.65V36.718z M16.967,23.512h7.552v0.615h-7.552V23.512z M16.967,26.25h5.817v0.616h-5.817
		V26.25z M16.967,28.988h5.817v0.617h-5.817V28.988z M16.967,31.727h7.552v0.616h-7.552V31.727z"/>
</g>
</svg>
