<?xml version="1.0" encoding="utf-8"?>
<!-- Generator: Adobe Illustrator 16.0.0, SVG Export Plug-In . SVG Version: 6.00 Build 0)  -->
<!DOCTYPE svg PUBLIC "-//W3C//DTD SVG 1.1//EN" "http://www.w3.org/Graphics/SVG/1.1/DTD/svg11.dtd">
<svg version="1.1" id="Layer_1" xmlns="http://www.w3.org/2000/svg" xmlns:xlink="http://www.w3.org/1999/xlink" x="0px" y="0px"
	 width="50px" height="50px" viewBox="0 0 50 50" enable-background="new 0 0 50 50" xml:space="preserve">
<g>
	<g>
		<rect x="29.095" y="18.304" width="7.396" height="0.926"/>
	</g>
	<g>
		<rect x="29.095" y="20.154" width="7.396" height="0.924"/>
	</g>
	<path d="M20.837,21.559V19.89c0-0.599-0.489-1.089-1.087-1.089h-0.795c-0.151-0.421-0.552-0.726-1.022-0.726h-1.455
		c-0.469,0-0.869,0.305-1.021,0.726h-0.794c-0.601,0-1.088,0.491-1.088,1.089v2.179c0,0.6,0.487,1.09,1.088,1.09h4.439
		C19.593,22.539,20.176,21.998,20.837,21.559z M17.205,22.433c-0.802,0-1.454-0.651-1.454-1.453c0-0.803,0.652-1.453,1.454-1.453
		c0.804,0,1.456,0.65,1.456,1.453C18.661,21.781,18.009,22.433,17.205,22.433z"/>
	<path d="M18.119,24.778h-6.926v-8.322h12.022v4.068c0.303-0.073,0.609-0.133,0.925-0.169V15.53h-13.87v10.172h7.508
		C17.872,25.385,17.986,25.077,18.119,24.778z"/>
	<path d="M29.767,22.004c0.341,0.279,0.652,0.591,0.94,0.925h5.784v-0.925H29.767z"/>
	<path d="M25.856,15.53v4.824c0.315,0.036,0.623,0.096,0.926,0.169v-4.068h12.021v8.322h-6.925c0.133,0.299,0.246,0.607,0.341,0.925
		h7.51V15.53H25.856z"/>
	<path d="M24.999,21.196c-3.666,0-6.637,2.97-6.637,6.637c0,3.666,2.971,6.636,6.637,6.636s6.637-2.971,6.637-6.636
		C31.636,24.167,28.665,21.196,24.999,21.196z M23.229,30.93v-6.193l5.309,3.097L23.229,30.93z"/>
</g>
</svg>
