<?xml version="1.0" encoding="utf-8"?>
<!-- Generator: Adobe Illustrator 16.0.0, SVG Export Plug-In . SVG Version: 6.00 Build 0)  -->
<!DOCTYPE svg PUBLIC "-//W3C//DTD SVG 1.1//EN" "http://www.w3.org/Graphics/SVG/1.1/DTD/svg11.dtd">
<svg version="1.1" id="Layer_1" xmlns="http://www.w3.org/2000/svg" xmlns:xlink="http://www.w3.org/1999/xlink" x="0px" y="0px"
	 width="50px" height="50px" viewBox="0 0 50 50" enable-background="new 0 0 50 50" xml:space="preserve">
<g>
	<g>
		<path d="M37.706,23.938c-0.514-1.841-1.981-3.18-3.729-3.18c-0.02,0-0.038,0.006-0.058,0.007
			c-0.281-3.498-2.779-6.246-5.853-6.246c-1.73,0-3.272,0.884-4.354,2.265c-0.682-0.658-1.546-1.07-2.499-1.07
			c-2.14,0-3.874,1.993-3.931,4.471c-0.375-0.166-0.778-0.268-1.203-0.268c-1.885,0-3.412,1.781-3.412,3.977
			c-1.334,0-2.414,1.259-2.414,2.812s1.08,2.812,2.414,2.812c0.005,0,3.384,0,7.636,0v-6.963h11.783v6.963c3.058,0,5.241,0,5.245,0
			c1.334,0,2.414-1.259,2.414-2.812C39.746,25.301,38.861,24.147,37.706,23.938z"/>
	</g>
	<path d="M31.087,23.555h-0.266h-0.694h-7.864h-0.817h-0.143v7.927c-0.682-0.146-1.615,0.013-2.533,0.543
		c-1.407,0.812-2.181,2.105-1.729,2.886c0.45,0.782,1.956,0.757,3.363-0.055c1.191-0.688,1.879-1.703,1.803-2.478h0.056v-6.046
		h7.864v5.15c-0.682-0.146-1.615,0.013-2.533,0.543c-1.407,0.812-2.182,2.105-1.73,2.886c0.451,0.782,1.957,0.757,3.364-0.055
		c1.191-0.688,1.879-1.703,1.802-2.478h0.056V23.555z"/>
</g>
</svg>
