<?xml version="1.0" encoding="utf-8"?>
<!-- Generator: Adobe Illustrator 16.0.0, SVG Export Plug-In . SVG Version: 6.00 Build 0)  -->
<!DOCTYPE svg PUBLIC "-//W3C//DTD SVG 1.1//EN" "http://www.w3.org/Graphics/SVG/1.1/DTD/svg11.dtd">
<svg version="1.1" id="Layer_1" xmlns="http://www.w3.org/2000/svg" xmlns:xlink="http://www.w3.org/1999/xlink" x="0px" y="0px"
	 width="50px" height="50px" viewBox="0 0 50 50" enable-background="new 0 0 50 50" xml:space="preserve">
<path d="M38.284,25.949h-3.321v-3.795c0-1.308-1.063-2.372-2.372-2.372h-2.847v-4.27c0-0.521-0.427-0.949-0.948-0.949h-7.592
	c-0.521,0-0.948,0.427-0.948,0.949v4.27h-2.847c-1.309,0-2.372,1.064-2.372,2.372v3.795h-3.321c-0.521,0-0.949,0.427-0.949,0.949
	v7.591c0,0.521,0.428,0.949,0.949,0.949h7.591c0.521,0,0.949-0.427,0.949-0.949v-7.591c0-0.522-0.428-0.949-0.949-0.949h-3.321
	v-3.795c0-0.785,0.639-1.423,1.424-1.423h2.847v2.372c0,0.522,0.427,0.949,0.948,0.949h7.592c0.521,0,0.948-0.427,0.948-0.949V20.73
	h2.847c0.785,0,1.424,0.639,1.424,1.423v3.795h-3.321c-0.521,0-0.949,0.427-0.949,0.949v7.591c0,0.521,0.428,0.949,0.949,0.949
	h7.591c0.521,0,0.949-0.427,0.949-0.949v-7.591C39.233,26.376,38.806,25.949,38.284,25.949z"/>
</svg>
