<?xml version="1.0" encoding="utf-8"?>
<!-- Generator: Adobe Illustrator 16.0.0, SVG Export Plug-In . SVG Version: 6.00 Build 0)  -->
<!DOCTYPE svg PUBLIC "-//W3C//DTD SVG 1.1//EN" "http://www.w3.org/Graphics/SVG/1.1/DTD/svg11.dtd">
<svg version="1.1" id="Layer_1" xmlns="http://www.w3.org/2000/svg" xmlns:xlink="http://www.w3.org/1999/xlink" x="0px" y="0px"
	 width="50px" height="50px" viewBox="0 0 50 50" enable-background="new 0 0 50 50" xml:space="preserve">
<g>
	<path d="M19.777,23.591l9.655-0.001c0.688,0,1.247-0.56,1.247-1.246v-4.984c0-0.687-0.559-1.246-1.247-1.246h-5.399v-0.415
		c0-0.688-0.559-1.247-1.246-1.247h-2.215c-0.687,0-1.246,0.559-1.246,1.247v7.199l-0.001,0.143
		c-0.002,0.237-0.003,0.368,0.088,0.46C19.497,23.584,19.617,23.591,19.777,23.591z M19.602,15.698c0-0.535,0.435-0.97,0.969-0.97
		h2.215c0.534,0,0.969,0.435,0.969,0.97v0.691h5.676c0.535,0,0.97,0.435,0.97,0.97v4.984c0,0.534-0.435,0.968-0.97,0.968h-0.198
		c0.119-0.101,0.198-0.247,0.198-0.415v-4.984c0-0.304-0.249-0.554-0.553-0.554H23.34c-0.305,0-0.554-0.25-0.554-0.554v-0.554
		c0-0.304-0.249-0.553-0.554-0.553h-2.214c-0.168,0-0.314,0.079-0.416,0.198V15.698z"/>
	<path d="M19.772,30.62v-4.003c0-0.552-0.45-1.001-1.001-1.001h-4.336v-0.333c0-0.552-0.45-1.001-1-1.001h-1.78
		c-0.552,0-1,0.449-1,1.001v5.782l-0.001,0.115c-0.001,0.191-0.003,0.295,0.072,0.37c0.067,0.068,0.163,0.073,0.292,0.073
		l7.755-0.001C19.323,31.62,19.772,31.171,19.772,30.62z M18.326,26.616h-4.448c-0.245,0-0.444-0.2-0.444-0.445v-0.445
		c0-0.244-0.201-0.445-0.445-0.445h-1.779c-0.134,0-0.252,0.064-0.334,0.159v-0.159c0-0.429,0.35-0.778,0.779-0.778h1.78
		c0.428,0,0.778,0.35,0.778,0.778v0.556h4.559c0.43,0,0.779,0.349,0.779,0.778v4.003c0,0.429-0.349,0.778-0.779,0.778h-0.159
		c0.095-0.081,0.159-0.199,0.159-0.333v-4.003C18.771,26.816,18.571,26.616,18.326,26.616z"/>
	<path d="M38.347,25.619h-4.334v-0.334c0-0.551-0.449-1-1.001-1h-1.778c-0.552,0-1.001,0.449-1.001,1v5.78l0,0.114
		c-0.001,0.191-0.002,0.296,0.072,0.37c0.067,0.068,0.163,0.073,0.291,0.073l7.752-0.001c0.551,0,1-0.449,1-1v-4.001
		C39.348,26.067,38.898,25.619,38.347,25.619z M39.125,30.62c0,0.428-0.349,0.777-0.778,0.777h-0.159
		c0.095-0.081,0.159-0.199,0.159-0.333v-4.001c0-0.244-0.2-0.444-0.445-0.444h-4.445c-0.245,0-0.445-0.201-0.445-0.445v-0.444
		c0-0.244-0.2-0.445-0.444-0.445h-1.778c-0.135,0-0.251,0.064-0.333,0.159v-0.159c0-0.428,0.349-0.778,0.778-0.778h1.778
		c0.429,0,0.778,0.35,0.778,0.778v0.556h4.557c0.429,0,0.778,0.349,0.778,0.778V30.62z"/>
	<polygon points="33.584,34.938 25.03,34.938 25.03,24.507 24.419,24.507 24.419,34.938 15.864,34.938 15.864,32.692 15.253,32.692 
		15.253,34.938 15.253,35.549 15.864,35.549 24.419,35.549 25.03,35.549 33.584,35.549 34.195,35.549 34.195,34.938 34.195,32.692 
		33.584,32.692 	"/>
</g>
</svg>
