<?xml version="1.0" encoding="utf-8"?>
<!-- Generator: Adobe Illustrator 16.0.0, SVG Export Plug-In . SVG Version: 6.00 Build 0)  -->
<!DOCTYPE svg PUBLIC "-//W3C//DTD SVG 1.1//EN" "http://www.w3.org/Graphics/SVG/1.1/DTD/svg11.dtd">
<svg version="1.1" id="Layer_1" xmlns="http://www.w3.org/2000/svg" xmlns:xlink="http://www.w3.org/1999/xlink" x="0px" y="0px"
	 width="50px" height="50px" viewBox="0 0 50 50" enable-background="new 0 0 50 50" xml:space="preserve">
<g>
	<path d="M20.985,38.378h13.913c0,0-4.037-3.245-3.951-6.802c0.048-1.983,3.951-4.505,3.93-10.014
		c-0.01-2.77-2.697-7.374-7.259-7.948c-4.562-0.574-7.976,0.43-9.469,3.242c-1.492,2.812-1.606,5.279-1.492,5.738
		c0.116,0.459,0.603,1.32,0.603,1.32s-2.295,3.528-2.152,4.102c0.144,0.575,1.72,0.885,1.72,0.885s0.141,0.398-0.146,1.173
		c-0.286,0.775,0.535,1.675,0.779,1.988c0.245,0.314-0.344,1.291-0.144,1.836c0.201,0.545,1.148,1.205,2.238,1.062
		c1.09-0.144,2.492-0.401,2.978-0.488C23.63,37.056,20.985,38.378,20.985,38.378z M24.507,22.009l0.65-0.239
		c0.088-0.033,0.163-0.236,0.169-0.302c0.002-0.066-0.065-0.155-0.151-0.193l-0.626-0.291c-0.087-0.04-0.126-0.144-0.086-0.229
		l0.653-1.42c0.041-0.087,0.145-0.125,0.23-0.086l0.628,0.291c0.087,0.039,0.284-0.053,0.334-0.095
		c0.051-0.042,0.065-0.152,0.032-0.241l-0.24-0.65c-0.033-0.09,0.013-0.19,0.104-0.224l1.465-0.541
		c0.089-0.032,0.189,0.014,0.223,0.103l0.24,0.65c0.033,0.09,0.238,0.165,0.305,0.168c0.065,0.004,0.151-0.063,0.193-0.149
		l0.29-0.628c0.04-0.086,0.144-0.125,0.23-0.084l1.419,0.653c0.085,0.041,0.124,0.143,0.085,0.231l-0.289,0.626
		c-0.042,0.086,0.05,0.284,0.092,0.333c0.044,0.051,0.153,0.067,0.245,0.034l0.646-0.241c0.091-0.034,0.191,0.014,0.224,0.104
		l0.541,1.465c0.034,0.09-0.012,0.19-0.103,0.223l-0.649,0.241c-0.09,0.034-0.162,0.114-0.162,0.181
		c0,0.067,0.057,0.276,0.144,0.316l0.627,0.29c0.087,0.041,0.125,0.143,0.084,0.23l-0.653,1.418
		c-0.041,0.087-0.143,0.125-0.231,0.086l-0.626-0.291c-0.088-0.04-0.284,0.051-0.336,0.095c-0.05,0.043-0.064,0.152-0.031,0.242
		l0.239,0.649c0.033,0.09-0.013,0.19-0.103,0.224l-1.465,0.541c-0.091,0.033-0.192-0.015-0.224-0.104l-0.24-0.649
		c-0.033-0.09-0.236-0.165-0.302-0.168c-0.067-0.004-0.154,0.063-0.194,0.149l-0.29,0.628c-0.039,0.086-0.143,0.125-0.23,0.084
		l-1.42-0.654c-0.086-0.041-0.125-0.144-0.084-0.23l0.291-0.626c0.04-0.088-0.051-0.284-0.095-0.334
		c-0.042-0.052-0.152-0.067-0.242-0.034l-0.65,0.241c-0.088,0.034-0.189-0.014-0.223-0.102l-0.541-1.468
		C24.372,22.142,24.418,22.042,24.507,22.009z"/>
	<circle cx="28.259" cy="21.644" r="1.736"/>
</g>
</svg>
