<?xml version="1.0" encoding="utf-8"?>
<!-- Generator: Adobe Illustrator 16.0.0, SVG Export Plug-In . SVG Version: 6.00 Build 0)  -->
<!DOCTYPE svg PUBLIC "-//W3C//DTD SVG 1.1//EN" "http://www.w3.org/Graphics/SVG/1.1/DTD/svg11.dtd">
<svg version="1.1" id="Layer_1" xmlns="http://www.w3.org/2000/svg" xmlns:xlink="http://www.w3.org/1999/xlink" x="0px" y="0px"
	 width="50px" height="50px" viewBox="0 0 50 50" enable-background="new 0 0 50 50" xml:space="preserve">
<g>
	<path d="M36.719,12.7H13.281c-1.348,0-2.451,1.104-2.451,2.451v15.609c0,1.348,1.104,2.451,2.451,2.451H24V35.3h-7.5l-1,1v1h19v-1
		l-1-1H26v-2.088h10.719c1.349,0,2.451-1.104,2.451-2.451V15.151C39.17,13.804,38.068,12.7,36.719,12.7z M38.17,27.761
		c0,0.8-0.651,1.451-1.451,1.451H13.281c-0.8,0-1.451-0.651-1.451-1.451V15.151c0-0.8,0.651-1.451,1.451-1.451h23.438
		c0.8,0,1.451,0.651,1.451,1.451V27.761z"/>
	<path d="M29.66,18.2l-0.976,0.363c-0.138,0.05-0.301,0.026-0.369-0.05c-0.064-0.076-0.202-0.374-0.139-0.503l0.437-0.945
		c0.058-0.133,0-0.288-0.13-0.349l-2.14-0.986c-0.129-0.059-0.287-0.001-0.347,0.127l-0.437,0.95
		c-0.062,0.129-0.192,0.232-0.291,0.224c-0.101-0.004-0.41-0.116-0.46-0.252l-0.361-0.981c-0.05-0.134-0.201-0.203-0.336-0.155
		l-2.21,0.816c-0.136,0.051-0.207,0.201-0.157,0.338l0.361,0.981c0.051,0.132,0.029,0.298-0.048,0.363
		c-0.075,0.064-0.372,0.203-0.504,0.144l-0.947-0.439c-0.129-0.059-0.286-0.001-0.346,0.13l-0.987,2.142
		c-0.061,0.129-0.002,0.286,0.129,0.345l0.945,0.438c0.132,0.058,0.232,0.19,0.229,0.291c-0.009,0.1-0.122,0.406-0.255,0.457
		l-0.981,0.361c-0.133,0.049-0.204,0.2-0.155,0.336l0.816,2.214c0.049,0.132,0.203,0.204,0.336,0.154l0.98-0.363
		c0.135-0.05,0.3-0.028,0.366,0.05c0.065,0.076,0.203,0.371,0.143,0.503l-0.438,0.945c-0.061,0.13-0.002,0.286,0.127,0.348
		l2.143,0.986c0.131,0.061,0.29,0.004,0.347-0.125l0.437-0.95c0.061-0.129,0.193-0.23,0.293-0.224
		c0.099,0.005,0.406,0.117,0.457,0.253l0.361,0.98c0.048,0.134,0.201,0.206,0.338,0.156l2.21-0.816
		c0.135-0.051,0.205-0.201,0.154-0.338l-0.361-0.979c-0.051-0.135-0.029-0.3,0.046-0.365c0.079-0.066,0.374-0.203,0.507-0.144
		l0.945,0.438c0.133,0.06,0.288,0.002,0.348-0.13l0.985-2.14c0.062-0.131,0.004-0.286-0.127-0.346l-0.945-0.437
		c-0.131-0.06-0.217-0.376-0.217-0.477c0-0.1,0.107-0.222,0.244-0.273l0.98-0.362c0.136-0.05,0.204-0.202,0.154-0.336l-0.816-2.21
		C29.949,18.221,29.796,18.149,29.66,18.2z M24.034,24.452c0,0,0.636-0.318,0.373-0.939c-0.117,0.021-0.453,0.083-0.715,0.118
		s-0.491-0.124-0.539-0.255c-0.048-0.13,0.094-0.366,0.035-0.441c-0.059-0.075-0.257-0.292-0.188-0.478
		c0.07-0.186,0.036-0.282,0.036-0.282s-0.38-0.074-0.415-0.212c-0.034-0.139,0.518-0.987,0.518-0.987s-0.117-0.207-0.145-0.318
		c-0.027-0.109,0-0.704,0.358-1.379c0.359-0.676,1.18-0.918,2.277-0.78c1.098,0.138,1.744,1.245,1.745,1.911
		c0.006,1.324-0.933,1.931-0.945,2.408c-0.021,0.855,0.951,1.635,0.951,1.635H24.034z"/>
</g>
</svg>
