<?xml version="1.0" encoding="utf-8"?>
<!-- Generator: Adobe Illustrator 16.0.0, SVG Export Plug-In . SVG Version: 6.00 Build 0)  -->
<!DOCTYPE svg PUBLIC "-//W3C//DTD SVG 1.1//EN" "http://www.w3.org/Graphics/SVG/1.1/DTD/svg11.dtd">
<svg version="1.1" id="Layer_1" xmlns="http://www.w3.org/2000/svg" xmlns:xlink="http://www.w3.org/1999/xlink" x="0px" y="0px"
	 width="50px" height="50px" viewBox="0 0 50 50" enable-background="new 0 0 50 50" xml:space="preserve">
<g>
	<path d="M30.091,29.843c0.04-1.698,3.383-3.857,3.364-8.572c-0.009-2.371-2.309-6.312-6.214-6.804
		c-3.905-0.492-6.827,0.368-8.105,2.775c-1.277,2.407-1.375,4.52-1.276,4.912c0.099,0.394,0.516,1.13,0.516,1.13
		s-1.966,3.021-1.843,3.512c0.123,0.492,1.473,0.757,1.473,0.757s0.12,0.341-0.126,1.004c-0.244,0.663,0.458,1.434,0.667,1.702
		c0.211,0.269-0.294,1.105-0.122,1.572s0.982,1.032,1.916,0.909c0.934-0.123,2.132-0.343,2.549-0.418
		c0.939,2.211-1.326,3.343-1.326,3.343h11.911C33.474,35.666,30.018,32.889,30.091,29.843z M25.949,19.153
		c0-0.951,0.774-1.725,1.726-1.725c0.952,0,1.726,0.774,1.726,1.725v0.586h-0.64v-0.586c0-0.598-0.487-1.085-1.086-1.085
		s-1.085,0.487-1.085,1.085v0.586h-0.641V19.153z M30.072,23.415c0,0.176-0.143,0.32-0.318,0.32h-4.155
		c-0.177,0-0.321-0.144-0.321-0.32v-3.197c0-0.175,0.145-0.319,0.321-0.319h4.155c0.176,0,0.318,0.144,0.318,0.319V23.415z"/>
	<path d="M25,8.475C15.888,8.475,8.475,15.888,8.475,25c0,9.112,7.413,16.525,16.525,16.525S41.525,34.112,41.525,25
		C41.525,15.888,34.112,8.475,25,8.475z M25,39.525c-8.01,0-14.525-6.516-14.525-14.525S16.99,10.475,25,10.475
		S39.525,16.99,39.525,25S33.01,39.525,25,39.525z"/>
</g>
</svg>
