<?xml version="1.0" encoding="utf-8"?>
<!-- Generator: Adobe Illustrator 16.0.0, SVG Export Plug-In . SVG Version: 6.00 Build 0)  -->
<!DOCTYPE svg PUBLIC "-//W3C//DTD SVG 1.1//EN" "http://www.w3.org/Graphics/SVG/1.1/DTD/svg11.dtd">
<svg version="1.1" id="Layer_1" xmlns="http://www.w3.org/2000/svg" xmlns:xlink="http://www.w3.org/1999/xlink" x="0px" y="0px"
	 width="50px" height="50px" viewBox="0 0 50 50" enable-background="new 0 0 50 50" xml:space="preserve">
<g>
	<path d="M36.719,12.7H13.281c-1.348,0-2.451,1.104-2.451,2.451v15.609c0,1.348,1.104,2.451,2.451,2.451H24V35.3h-7.5l-1,1v1h19v-1
		l-1-1H26v-2.088h10.719c1.349,0,2.451-1.104,2.451-2.451V15.151C39.17,13.804,38.068,12.7,36.719,12.7z M38.17,27.761
		c0,0.8-0.651,1.451-1.451,1.451H13.281c-0.8,0-1.451-0.651-1.451-1.451V15.151c0-0.8,0.651-1.451,1.451-1.451h23.438
		c0.8,0,1.451,0.651,1.451,1.451V27.761z"/>
	<path d="M25,15.848c-3.176,0-5.75,2.574-5.75,5.75s2.574,5.75,5.75,5.75s5.75-2.574,5.75-5.75S28.176,15.848,25,15.848z
		 M22.689,24.551v-5.906l5.906,2.953L22.689,24.551z"/>
</g>
</svg>
