<?xml version="1.0" encoding="utf-8"?>
<!-- Generator: Adobe Illustrator 16.0.0, SVG Export Plug-In . SVG Version: 6.00 Build 0)  -->
<!DOCTYPE svg PUBLIC "-//W3C//DTD SVG 1.1//EN" "http://www.w3.org/Graphics/SVG/1.1/DTD/svg11.dtd">
<svg version="1.1" id="Layer_1" xmlns="http://www.w3.org/2000/svg" xmlns:xlink="http://www.w3.org/1999/xlink" x="0px" y="0px"
	 width="50px" height="50px" viewBox="0 0 50 50" enable-background="new 0 0 50 50" xml:space="preserve">
<g>
	<path d="M25,19c-3.314,0-6,2.685-6,6c0,3.314,2.686,6,6,6s6-2.686,6-6C31,21.685,28.314,19,25,19z M23.4,27.8v-5.6l4.799,2.8
		L23.4,27.8z"/>
	<path d="M19.522,19.522l-1.061-1.06C16.787,20.137,15.75,22.45,15.75,25s1.037,4.863,2.712,6.538l1.061-1.06
		C18.119,29.074,17.25,27.137,17.25,25S18.119,20.926,19.522,19.522z"/>
	<path d="M31.538,18.462l-1.061,1.06c1.403,1.403,2.272,3.341,2.272,5.478s-0.869,4.074-2.272,5.478l1.061,1.06
		C33.213,29.863,34.25,27.55,34.25,25S33.213,20.137,31.538,18.462z"/>
	<path d="M17.226,17.226l-1.061-1.061C13.901,18.429,12.5,21.554,12.5,25s1.401,6.571,3.665,8.835l1.061-1.061
		C15.233,30.783,14,28.033,14,25S15.233,19.217,17.226,17.226z"/>
	<path d="M33.835,16.165l-1.061,1.061C34.767,19.217,36,21.967,36,25s-1.233,5.783-3.226,7.774l1.061,1.061
		C36.099,31.571,37.5,28.446,37.5,25S36.099,18.429,33.835,16.165z"/>
</g>
</svg>
