<?xml version="1.0" encoding="utf-8"?>
<!-- Generator: Adobe Illustrator 16.0.0, SVG Export Plug-In . SVG Version: 6.00 Build 0)  -->
<!DOCTYPE svg PUBLIC "-//W3C//DTD SVG 1.1//EN" "http://www.w3.org/Graphics/SVG/1.1/DTD/svg11.dtd">
<svg version="1.1" id="Layer_1" xmlns="http://www.w3.org/2000/svg" xmlns:xlink="http://www.w3.org/1999/xlink" x="0px" y="0px"
	 width="50px" height="50px" viewBox="0 0 50 50" enable-background="new 0 0 50 50" xml:space="preserve">
<g>
	<path d="M22.681,18.838H12.072c-0.487,0-0.884,0.396-0.884,0.884v10.555c0,0.487,0.396,0.884,0.884,0.884h10.608
		c0.487,0,0.884-0.396,0.884-0.884V19.722C23.564,19.235,23.168,18.838,22.681,18.838z M22.317,19.467
		c0.233,0,0.422,0.189,0.422,0.423c0,0.234-0.188,0.423-0.422,0.423c-0.234,0-0.424-0.189-0.424-0.423
		C21.894,19.656,22.083,19.467,22.317,19.467z M20.895,19.467c0.233,0,0.423,0.189,0.423,0.423c0,0.234-0.189,0.423-0.423,0.423
		c-0.234,0-0.423-0.189-0.423-0.423C20.472,19.656,20.66,19.467,20.895,19.467z M19.472,19.467c0.233,0,0.424,0.189,0.424,0.423
		c0,0.234-0.19,0.423-0.424,0.423c-0.234,0-0.423-0.189-0.423-0.423C19.049,19.656,19.237,19.467,19.472,19.467z M22.976,30.277
		c0,0.162-0.133,0.294-0.295,0.294H12.072c-0.162,0-0.295-0.132-0.295-0.294v-9.631h11.198V30.277z"/>
	<path d="M37.927,18.838H27.318c-0.487,0-0.884,0.396-0.884,0.884v10.555c0,0.487,0.396,0.884,0.884,0.884h10.608
		c0.487,0,0.884-0.396,0.884-0.884V19.722C38.811,19.235,38.414,18.838,37.927,18.838z M37.563,19.467
		c0.233,0,0.422,0.189,0.422,0.423c0,0.234-0.188,0.423-0.422,0.423c-0.234,0-0.424-0.189-0.424-0.423
		C37.14,19.656,37.329,19.467,37.563,19.467z M36.141,19.467c0.233,0,0.423,0.189,0.423,0.423c0,0.234-0.189,0.423-0.423,0.423
		c-0.234,0-0.423-0.189-0.423-0.423C35.718,19.656,35.906,19.467,36.141,19.467z M34.718,19.467c0.233,0,0.424,0.189,0.424,0.423
		c0,0.234-0.19,0.423-0.424,0.423c-0.234,0-0.423-0.189-0.423-0.423C34.295,19.656,34.483,19.467,34.718,19.467z M38.222,30.277
		c0,0.162-0.133,0.294-0.295,0.294H27.318c-0.162,0-0.295-0.132-0.295-0.294v-9.631h11.198V30.277z"/>
	<polygon points="26.436,16.542 26.436,16.118 33.584,16.118 33.584,18.364 34.194,18.364 34.194,16.118 34.194,15.507 
		33.584,15.507 26.436,15.507 26.436,15.042 23.565,15.042 23.565,15.507 15.864,15.507 15.253,15.507 15.253,16.118 15.253,18.364 
		15.864,18.364 15.864,16.118 23.565,16.118 23.565,16.542 	"/>
</g>
</svg>
