<?xml version="1.0" encoding="utf-8"?>
<!-- Generator: Adobe Illustrator 16.0.0, SVG Export Plug-In . SVG Version: 6.00 Build 0)  -->
<!DOCTYPE svg PUBLIC "-//W3C//DTD SVG 1.1//EN" "http://www.w3.org/Graphics/SVG/1.1/DTD/svg11.dtd">
<svg version="1.1" id="Layer_1" xmlns="http://www.w3.org/2000/svg" xmlns:xlink="http://www.w3.org/1999/xlink" x="0px" y="0px"
	 width="50px" height="50px" viewBox="0 0 50 50" enable-background="new 0 0 50 50" xml:space="preserve">
<path d="M37.222,27.604l-2.064-0.953c-0.286-0.13-0.474-0.821-0.474-1.041c0-0.219,0.236-0.487,0.534-0.597l2.138-0.793
	c0.297-0.109,0.446-0.439,0.337-0.733l-1.781-4.826c-0.107-0.294-0.44-0.45-0.738-0.341l-2.131,0.793
	c-0.303,0.109-0.659,0.059-0.805-0.109c-0.141-0.166-0.442-0.816-0.305-1.099l0.953-2.063c0.125-0.291,0-0.628-0.283-0.762
	l-4.672-2.153c-0.283-0.129-0.627-0.004-0.758,0.278l-0.953,2.072c-0.138,0.283-0.42,0.507-0.636,0.491
	c-0.22-0.011-0.895-0.255-1.005-0.553l-0.788-2.142c-0.11-0.291-0.44-0.443-0.735-0.338l-4.826,1.782
	c-0.298,0.11-0.45,0.439-0.341,0.738l0.788,2.142c0.111,0.29,0.063,0.651-0.105,0.793c-0.165,0.141-0.812,0.443-1.1,0.314
	l-2.067-0.958c-0.283-0.129-0.625-0.004-0.757,0.284l-2.155,4.676c-0.133,0.281-0.004,0.624,0.283,0.754l2.063,0.957
	c0.287,0.125,0.507,0.416,0.499,0.635c-0.02,0.217-0.267,0.887-0.558,0.997l-2.142,0.79c-0.29,0.106-0.444,0.435-0.337,0.733
	l1.782,4.834c0.109,0.29,0.443,0.446,0.734,0.337l2.141-0.793c0.294-0.11,0.656-0.062,0.797,0.11
	c0.144,0.165,0.444,0.809,0.313,1.098l-0.957,2.064c-0.134,0.283-0.004,0.624,0.278,0.759l4.677,2.153
	c0.286,0.132,0.631,0.009,0.757-0.274l0.953-2.072c0.134-0.283,0.42-0.502,0.64-0.49c0.216,0.011,0.887,0.255,0.997,0.552
	l0.788,2.14c0.106,0.294,0.439,0.451,0.738,0.341l4.827-1.781c0.294-0.11,0.446-0.44,0.337-0.739l-0.789-2.137
	c-0.11-0.295-0.063-0.656,0.102-0.797c0.173-0.145,0.816-0.443,1.106-0.313l2.063,0.957c0.292,0.13,0.629,0.005,0.762-0.283
	l2.149-4.672C37.634,28.075,37.509,27.737,37.222,27.604z M22.892,31.973c0,0,1.389-0.694,0.813-2.05
	c-0.255,0.046-0.991,0.181-1.563,0.256c-0.572,0.075-1.069-0.271-1.175-0.557c-0.105-0.287,0.204-0.799,0.075-0.964
	c-0.128-0.164-0.559-0.637-0.409-1.043c0.151-0.407,0.077-0.616,0.077-0.616s-0.827-0.163-0.903-0.464
	c-0.075-0.301,1.13-2.153,1.13-2.153s-0.256-0.453-0.316-0.694c-0.06-0.24,0-1.536,0.783-3.012c0.784-1.477,2.576-2.003,4.971-1.702
	c2.395,0.301,3.806,2.719,3.811,4.173c0.011,2.892-2.039,4.216-2.063,5.257c-0.045,1.868,2.075,3.571,2.075,3.571H22.892z"/>
</svg>
