<?xml version="1.0" encoding="utf-8"?>
<!-- Generator: Adobe Illustrator 16.0.0, SVG Export Plug-In . SVG Version: 6.00 Build 0)  -->
<!DOCTYPE svg PUBLIC "-//W3C//DTD SVG 1.1//EN" "http://www.w3.org/Graphics/SVG/1.1/DTD/svg11.dtd">
<svg version="1.1" id="Layer_1" xmlns="http://www.w3.org/2000/svg" xmlns:xlink="http://www.w3.org/1999/xlink" x="0px" y="0px"
	 width="50px" height="50px" viewBox="0 0 50 50" enable-background="new 0 0 50 50" xml:space="preserve">
<g>
	<g>
		<rect x="15.393" y="27.287" width="4.271" height="10.143"/>
		<rect x="22.866" y="24.084" width="4.269" height="13.346"/>
		<rect x="30.338" y="20.881" width="4.271" height="16.549"/>
	</g>
	<path d="M30.313,18.885l-1.045-2.825c-0.062-0.173-0.257-0.262-0.432-0.198l-1.249,0.462c-0.174,0.063-0.384,0.036-0.467-0.061
		c-0.086-0.1-0.261-0.479-0.183-0.645l0.557-1.211c0.077-0.167,0.005-0.367-0.164-0.443l-2.732-1.262
		c-0.167-0.076-0.368-0.002-0.445,0.165l-0.559,1.21c-0.075,0.167-0.242,0.298-0.372,0.289c-0.127-0.009-0.521-0.151-0.586-0.324
		l-0.461-1.252c-0.063-0.173-0.258-0.261-0.431-0.198l-2.826,1.042c-0.174,0.064-0.264,0.257-0.199,0.43l0.463,1.252
		c0.064,0.173,0.037,0.383-0.062,0.466c-0.1,0.084-0.476,0.259-0.644,0.182l-1.209-0.558c-0.168-0.078-0.367-0.003-0.445,0.164
		l-1.26,2.736c-0.079,0.167-0.006,0.367,0.162,0.444l1.21,0.557c0.169,0.077,0.298,0.245,0.288,0.372
		c-0.006,0.128-0.148,0.521-0.322,0.585l-1.253,0.461c-0.173,0.064-0.26,0.257-0.198,0.43l1.043,2.829
		c0.063,0.172,0.256,0.261,0.43,0.198l1.252-0.463c0.175-0.064,0.384-0.036,0.468,0.062c0.083,0.099,0.259,0.477,0.183,0.645
		l-0.559,1.208C18.188,25.8,18.264,26,18.43,26.077l0.455,0.21h1.778h1.203v-3.091c-0.946-0.304-1.754-1.011-2.126-2.016
		c-0.639-1.734,0.248-3.66,1.982-4.299c1.733-0.64,3.659,0.247,4.3,1.982c0.618,1.677-0.199,3.521-1.82,4.221h3.933h1.203v-2.112
		l-0.51-0.235c-0.169-0.079-0.28-0.479-0.28-0.608c0-0.129,0.141-0.287,0.313-0.352l1.254-0.463
		C30.288,19.251,30.377,19.058,30.313,18.885z"/>
</g>
</svg>
