<?xml version="1.0" encoding="utf-8"?>
<!-- Generator: Adobe Illustrator 16.0.4, SVG Export Plug-In . SVG Version: 6.00 Build 0)  -->
<!DOCTYPE svg PUBLIC "-//W3C//DTD SVG 1.1//EN" "http://www.w3.org/Graphics/SVG/1.1/DTD/svg11.dtd">
<svg version="1.1" id="Layer_1" xmlns="http://www.w3.org/2000/svg" xmlns:xlink="http://www.w3.org/1999/xlink" x="0px" y="0px"
	 width="50px" height="50px" viewBox="0 0 50 50" enable-background="new 0 0 50 50" xml:space="preserve">
<path d="M22.249,23.322c0.574-1.369,1.577-2.572,2.96-3.371c1.066-0.616,2.281-0.942,3.512-0.942c1.023,0,2.016,0.234,2.92,0.646
	v-3.272c0-1.92-3.891-3.477-8.69-3.477c-4.8,0-8.691,1.557-8.691,3.477v3.477C14.258,21.687,17.776,23.18,22.249,23.322z
	 M22.949,13.775c4.775,0,7.822,1.545,7.822,2.607c0,1.064-3.047,2.607-7.822,2.607s-7.822-1.543-7.822-2.607
	C15.127,15.32,18.174,13.775,22.949,13.775z M14.257,25.076v-3.477c0,1.76,3.271,3.21,7.512,3.44
	c-0.169,1.156-0.05,2.357,0.381,3.496C17.725,28.374,14.258,26.889,14.257,25.076z M28.209,33.055
	c-1.461,0.444-3.281,0.713-5.26,0.713c-4.8,0-8.691-1.557-8.691-3.478v-3.478c0,1.922,3.89,3.478,8.691,3.478
	c0.055,0,0.108-0.003,0.163-0.003C24.326,31.891,26.188,32.898,28.209,33.055z M33.962,23.028c-1.666-2.885-5.368-3.877-8.253-2.211
	s-3.877,5.367-2.212,8.251c1.666,2.886,5.369,3.877,8.254,2.213C34.637,29.616,35.628,25.913,33.962,23.028z M24.364,28.568
	c-1.391-2.405-0.562-5.495,1.845-6.886c2.407-1.389,5.497-0.562,6.887,1.846c1.391,2.408,0.562,5.498-1.845,6.887
	C28.843,31.807,25.754,30.979,24.364,28.568z M35.271,34.373l-2.599,1.5l-2.001-3.464l2.599-1.501L35.271,34.373z M34.99,36.893
	c-0.719,0.414-1.635,0.17-2.051-0.55l2.6-1.5C35.954,35.562,35.708,36.479,34.99,36.893z"/>
</svg>
