<?xml version="1.0" encoding="utf-8"?>
<!-- Generator: Adobe Illustrator 16.0.0, SVG Export Plug-In . SVG Version: 6.00 Build 0)  -->
<!DOCTYPE svg PUBLIC "-//W3C//DTD SVG 1.1//EN" "http://www.w3.org/Graphics/SVG/1.1/DTD/svg11.dtd">
<svg version="1.1" id="Layer_1" xmlns="http://www.w3.org/2000/svg" xmlns:xlink="http://www.w3.org/1999/xlink" x="0px" y="0px"
	 width="50px" height="50px" viewBox="0 0 50 50" enable-background="new 0 0 50 50" xml:space="preserve">
<g>
	<g>
		<rect x="10.213" y="14.942" width="3.471" height="1.309"/>
		<rect x="10.213" y="17.156" width="3.471" height="1.309"/>
		<rect x="10.213" y="19.37" width="3.471" height="1.309"/>
		<rect x="15.434" y="19.37" width="3.471" height="1.309"/>
		<rect x="10.213" y="21.584" width="3.471" height="1.309"/>
		<rect x="10.213" y="23.798" width="3.471" height="1.309"/>
		<rect x="15.434" y="14.942" width="3.471" height="1.309"/>
		<rect x="15.434" y="17.156" width="3.471" height="1.309"/>
		<rect x="25.875" y="14.942" width="3.472" height="1.309"/>
		<rect x="25.875" y="17.156" width="3.472" height="1.309"/>
		<rect x="25.875" y="19.37" width="3.472" height="1.309"/>
		<rect x="31.095" y="14.942" width="3.471" height="1.309"/>
		<rect x="31.095" y="17.156" width="3.471" height="1.309"/>
		<rect x="31.095" y="19.37" width="3.471" height="1.309"/>
		<rect x="36.316" y="14.942" width="3.471" height="1.309"/>
		<rect x="36.316" y="17.156" width="3.471" height="1.309"/>
		<rect x="36.316" y="19.37" width="3.471" height="1.309"/>
		<rect x="36.316" y="21.584" width="3.471" height="1.309"/>
	</g>
	<polygon points="39.787,26.557 35.128,24.228 35.128,25.866 32.805,25.866 29.878,22.539 26.021,28.004 22.153,14.942 
		20.133,29.206 17.449,21.546 14.921,25.866 10.213,25.866 10.213,27.259 15.719,27.259 17.132,24.849 20.711,35.058 22.636,21.474 
		25.5,31.153 29.996,24.783 32.173,27.259 35.128,27.259 35.128,28.887 	"/>
</g>
</svg>
