<?xml version="1.0" encoding="utf-8"?>
<!-- Generator: Adobe Illustrator 16.0.0, SVG Export Plug-In . SVG Version: 6.00 Build 0)  -->
<!DOCTYPE svg PUBLIC "-//W3C//DTD SVG 1.1//EN" "http://www.w3.org/Graphics/SVG/1.1/DTD/svg11.dtd">
<svg version="1.1" id="Layer_1" xmlns="http://www.w3.org/2000/svg" xmlns:xlink="http://www.w3.org/1999/xlink" x="0px" y="0px"
	 width="50px" height="50px" viewBox="0 0 50 50" enable-background="new 0 0 50 50" xml:space="preserve">
<g>
	<path d="M37.706,22.084c-0.514-1.841-1.981-3.18-3.729-3.18c-0.02,0-0.038,0.006-0.058,0.007c-0.281-3.498-2.779-6.246-5.853-6.246
		c-1.73,0-3.272,0.884-4.354,2.265c-0.682-0.658-1.546-1.07-2.499-1.07c-2.14,0-3.874,1.993-3.931,4.471
		c-0.375-0.166-0.778-0.268-1.203-0.268c-1.885,0-3.412,1.781-3.412,3.977c-1.334,0-2.414,1.259-2.414,2.812s1.08,2.812,2.414,2.812
		c0.035,0,0.974,0,2.457,0c0-5.445,4.43-9.875,9.875-9.875s9.875,4.43,9.875,9.875c1.489,0,2.43,0,2.457,0
		c1.334,0,2.414-1.259,2.414-2.812C39.746,23.448,38.861,22.294,37.706,22.084z"/>
	<path d="M25,18.79c-4.901,0-8.875,3.975-8.875,8.875c0,1.159,0.223,2.264,0.625,3.279c1.305,3.279,4.508,5.596,8.25,5.596
		c3.741,0,6.942-2.315,8.248-5.592c0.404-1.015,0.627-2.123,0.627-3.283C33.875,22.765,29.901,18.79,25,18.79z M25.507,28.228
		l-1.046-1.046l5.105-4.06L25.507,28.228z M32.217,30.538l-0.687-0.273c0.329-0.826,0.496-1.701,0.496-2.599
		c0-1.938-0.789-3.695-2.062-4.968l-0.39,0.39c-1.223-1.221-2.847-1.894-4.574-1.894c-3.568,0-6.472,2.903-6.472,6.471
		c0,0.827,0.153,1.631,0.456,2.391l-0.858,0.342l-0.344,0.137l-0.516,0.205c-0.389-0.979-0.587-2.013-0.587-3.075
		c0-4.588,3.732-8.32,8.32-8.32c2.222,0,4.31,0.865,5.881,2.435l-0.395,0.395c1.407,1.406,2.279,3.349,2.279,5.491
		C32.766,28.658,32.581,29.624,32.217,30.538z"/>
</g>
</svg>
