<?xml version="1.0" encoding="utf-8"?>
<!-- Generator: Adobe Illustrator 16.0.0, SVG Export Plug-In . SVG Version: 6.00 Build 0)  -->
<!DOCTYPE svg PUBLIC "-//W3C//DTD SVG 1.1//EN" "http://www.w3.org/Graphics/SVG/1.1/DTD/svg11.dtd">
<svg version="1.1" id="Layer_1" xmlns="http://www.w3.org/2000/svg" xmlns:xlink="http://www.w3.org/1999/xlink" x="0px" y="0px"
	 width="50px" height="50px" viewBox="0 0 50 50" enable-background="new 0 0 50 50" xml:space="preserve">
<path d="M25,13c-6.626,0-12,5.374-12,12c0,1.567,0.3,3.062,0.846,4.433C15.61,33.867,19.939,37,25,37
	c5.059,0,9.387-3.13,11.152-7.561C36.699,28.067,37,26.569,37,25C37,18.374,31.627,13,25,13z M25.685,25.76l-1.414-1.414
	l6.903-5.489L25.685,25.76z M34.758,28.884l-0.929-0.37C34.274,27.397,34.5,26.215,34.5,25c0-2.621-1.066-4.996-2.788-6.717
	l-0.527,0.527C29.532,17.159,27.336,16.25,25,16.25c-4.825,0-8.75,3.925-8.75,8.75c0,1.118,0.208,2.205,0.616,3.232l-1.161,0.462
	l-0.464,0.185l-0.697,0.277C14.017,27.834,13.75,26.436,13.75,25c0-6.203,5.047-11.25,11.25-11.25c3.003,0,5.827,1.169,7.952,3.292
	l-0.534,0.534C34.321,19.478,35.5,22.104,35.5,25C35.5,26.342,35.25,27.649,34.758,28.884z"/>
</svg>
