<?xml version="1.0" encoding="utf-8"?>
<!-- Generator: Adobe Illustrator 16.0.0, SVG Export Plug-In . SVG Version: 6.00 Build 0)  -->
<!DOCTYPE svg PUBLIC "-//W3C//DTD SVG 1.1//EN" "http://www.w3.org/Graphics/SVG/1.1/DTD/svg11.dtd">
<svg version="1.1" id="Layer_1" xmlns="http://www.w3.org/2000/svg" xmlns:xlink="http://www.w3.org/1999/xlink" x="0px" y="0px"
	 width="50px" height="50px" viewBox="0 0 50 50" enable-background="new 0 0 50 50" xml:space="preserve">
<g>
	<path d="M19.867,18.561v-3.318c0-0.717-0.585-1.305-1.303-1.305h-3.318c-0.716,0-1.304,0.588-1.304,1.305v3.318
		c0,0.716,0.588,1.305,1.304,1.305h3.318C19.282,19.866,19.867,19.277,19.867,18.561z"/>
	<path d="M27.238,18.561v-3.318c0-0.717-0.585-1.305-1.303-1.305h-3.317c-0.717,0-1.305,0.588-1.305,1.305v3.318
		c0,0.716,0.588,1.305,1.305,1.305h3.317C26.653,19.866,27.238,19.277,27.238,18.561z"/>
	<path d="M34.609,18.561v-3.318c0-0.717-0.584-1.305-1.303-1.305h-3.317c-0.716,0-1.304,0.588-1.304,1.305v3.318
		c0,0.716,0.588,1.305,1.304,1.305h3.317C34.025,19.866,34.609,19.277,34.609,18.561z"/>
	<path d="M19.867,25.936v-3.318c0-0.717-0.585-1.305-1.303-1.305h-3.318c-0.716,0-1.304,0.587-1.304,1.305v3.318
		c0,0.715,0.588,1.305,1.304,1.305h3.318C19.282,27.24,19.867,26.651,19.867,25.936z"/>
	<path d="M27.238,25.936v-3.318c0-0.717-0.585-1.305-1.303-1.305h-3.317c-0.717,0-1.305,0.587-1.305,1.305v3.318
		c0,0.715,0.588,1.305,1.305,1.305h3.317C26.653,27.24,27.238,26.651,27.238,25.936z"/>
	<path d="M34.609,25.936v-3.318c0-0.717-0.584-1.305-1.303-1.305h-3.317c-0.716,0-1.304,0.587-1.304,1.305v3.318
		c0,0.715,0.588,1.305,1.304,1.305h3.317C34.025,27.24,34.609,26.651,34.609,25.936z"/>
	<path d="M19.867,33.31v-3.317c0-0.717-0.585-1.305-1.303-1.305h-3.318c-0.716,0-1.304,0.588-1.304,1.305v3.317
		c0,0.716,0.588,1.305,1.304,1.305h3.318C19.282,34.615,19.867,34.025,19.867,33.31z"/>
	<path d="M27.238,33.31v-3.317c0-0.717-0.585-1.305-1.303-1.305h-3.317c-0.717,0-1.305,0.588-1.305,1.305v3.317
		c0,0.716,0.588,1.305,1.305,1.305h3.317C26.653,34.615,27.238,34.025,27.238,33.31z"/>
	<path d="M36.057,34.757v-3.318c0-0.717-0.585-1.305-1.303-1.305h-3.317c-0.717,0-1.305,0.587-1.305,1.305v3.318
		c0,0.715,0.588,1.305,1.305,1.305h3.317C35.472,36.062,36.057,35.472,36.057,34.757z"/>
</g>
</svg>
