<?xml version="1.0" encoding="utf-8"?>
<!-- Generator: Adobe Illustrator 16.0.0, SVG Export Plug-In . SVG Version: 6.00 Build 0)  -->
<!DOCTYPE svg PUBLIC "-//W3C//DTD SVG 1.1//EN" "http://www.w3.org/Graphics/SVG/1.1/DTD/svg11.dtd">
<svg version="1.1" id="Layer_1" xmlns="http://www.w3.org/2000/svg" xmlns:xlink="http://www.w3.org/1999/xlink" x="0px" y="0px"
	 width="50px" height="50px" viewBox="0 0 50 50" enable-background="new 0 0 50 50" xml:space="preserve">
<g>
	<circle cx="17.659" cy="34.591" r="0.673"/>
	<circle cx="17.659" cy="28.591" r="0.673"/>
	<circle cx="17.659" cy="22.591" r="0.673"/>
	<path d="M16.577,36.463c-0.515,0-0.936-0.421-0.936-0.937v-1.871c0-0.516,0.421-0.937,0.936-0.937h11.556
		c0.021-0.788,0.16-1.547,0.417-2.256H16.577c-0.515,0-0.936-0.421-0.936-0.937v-1.871c0-0.516,0.421-0.937,0.936-0.937h15.12
		c0.58-0.337,1.2-0.614,1.872-0.779v-1.506c-0.049,0.008-0.094,0.029-0.145,0.029H16.577c-0.515,0-0.936-0.421-0.936-0.937v-1.871
		c0-0.516,0.421-0.937,0.936-0.937h16.847c0.515,0,0.936,0.421,0.936,0.937v1.871c0,0.247-0.101,0.47-0.259,0.637l0.794,0.497
		c0.246-0.315,0.4-0.705,0.4-1.134v-1.871c0-0.021-0.011-0.037-0.011-0.057l-1.867-6.797c-0.056-0.511-0.57-0.93-1.143-0.93H17.725
		c-0.572,0-1.087,0.419-1.143,0.93l-1.867,6.797c0,0.02-0.011,0.036-0.011,0.057v1.871c0,0.486,0.191,0.927,0.497,1.26l-0.486,2.812
		c0,0.02-0.011,0.036-0.011,0.057v1.871c0,0.486,0.191,0.927,0.497,1.26l-0.486,2.812c0,0.02-0.011,0.036-0.011,0.057v1.871
		c0,1.032,0.84,1.872,1.872,1.872h13.141c-0.241-0.297-0.463-0.606-0.653-0.936H16.577z"/>
	<path d="M30.57,32.905c0-2.357,1.737-4.312,3.998-4.664v1.028l2.908-1.817l-2.908-1.817v1.137
		c-3.065,0.361-5.452,2.971-5.452,6.132c0,2.22,1.18,4.164,2.943,5.253l1.426-0.891C31.776,36.556,30.57,34.869,30.57,32.905z"/>
	<path d="M38.531,27.651l-1.426,0.891c1.709,0.711,2.915,2.399,2.915,4.363c0,2.357-1.737,4.312-3.998,4.663V36.54l-2.908,1.817
		l2.908,1.817v-1.137c3.065-0.361,5.452-2.971,5.452-6.132C41.474,30.684,40.294,28.74,38.531,27.651z"/>
</g>
</svg>
