<?xml version="1.0" encoding="utf-8"?>
<!-- Generator: Adobe Illustrator 16.0.0, SVG Export Plug-In . SVG Version: 6.00 Build 0)  -->
<!DOCTYPE svg PUBLIC "-//W3C//DTD SVG 1.1//EN" "http://www.w3.org/Graphics/SVG/1.1/DTD/svg11.dtd">
<svg version="1.1" id="Layer_1" xmlns="http://www.w3.org/2000/svg" xmlns:xlink="http://www.w3.org/1999/xlink" x="0px" y="0px"
	 width="50px" height="50px" viewBox="0 0 50 50" enable-background="new 0 0 50 50" xml:space="preserve">
<g>
	<g>
		<path d="M32.18,21.02c0-0.021-0.01-0.037-0.01-0.057l-1.867-6.797c-0.056-0.511-0.57-0.93-1.143-0.93H14.609
			c-0.572,0-1.087,0.419-1.143,0.93L11.6,20.963c0,0.02-0.01,0.036-0.01,0.057v1.871c0,0.486,0.191,0.927,0.496,1.26L11.6,26.963
			c0,0.02-0.01,0.036-0.01,0.057v1.871c0,0.486,0.191,0.927,0.496,1.26L11.6,32.963c0,0.02-0.01,0.036-0.01,0.057v1.871
			c0,1.032,0.84,1.872,1.871,1.872h16.848c1.031,0,1.871-0.84,1.871-1.872V33.02c0-0.021-0.01-0.037-0.01-0.057l-0.486-2.812
			c0.305-0.333,0.496-0.773,0.496-1.26V27.02c0-0.021-0.01-0.037-0.01-0.057l-0.486-2.812c0.305-0.333,0.496-0.773,0.496-1.26V21.02
			z M31.244,34.891c0,0.516-0.422,0.937-0.936,0.937H13.461c-0.514,0-0.936-0.421-0.936-0.937V33.02
			c0-0.516,0.422-0.937,0.936-0.937h16.848c0.514,0,0.936,0.421,0.936,0.937V34.891z M31.244,28.891
			c0,0.516-0.422,0.937-0.936,0.937H13.461c-0.514,0-0.936-0.421-0.936-0.937V27.02c0-0.516,0.422-0.937,0.936-0.937h16.848
			c0.514,0,0.936,0.421,0.936,0.937V28.891z M31.244,22.891c0,0.516-0.422,0.937-0.936,0.937H13.461
			c-0.514,0-0.936-0.421-0.936-0.937V21.02c0-0.516,0.422-0.937,0.936-0.937h16.848c0.514,0,0.936,0.421,0.936,0.937V22.891z"/>
		<circle cx="14.544" cy="33.956" r="0.673"/>
		<circle cx="14.544" cy="27.956" r="0.673"/>
		<circle cx="14.544" cy="21.956" r="0.673"/>
	</g>
	<polygon points="38.41,25.103 37.994,25.103 37.994,19.75 37.994,19.25 37.494,19.25 33.656,19.25 33.656,19.75 37.494,19.75 
		37.494,25.103 37.077,25.103 37.077,26.75 33.656,26.75 33.656,27.25 37.077,27.25 37.077,28.896 37.494,28.896 37.494,34.25 
		33.656,34.25 33.656,34.75 37.494,34.75 37.994,34.75 37.994,34.25 37.994,28.896 38.41,28.896 	"/>
</g>
</svg>
