<?xml version="1.0" encoding="utf-8"?>
<!-- Generator: Adobe Illustrator 16.0.0, SVG Export Plug-In . SVG Version: 6.00 Build 0)  -->
<!DOCTYPE svg PUBLIC "-//W3C//DTD SVG 1.1//EN" "http://www.w3.org/Graphics/SVG/1.1/DTD/svg11.dtd">
<svg version="1.1" id="Layer_1" xmlns="http://www.w3.org/2000/svg" xmlns:xlink="http://www.w3.org/1999/xlink" x="0px" y="0px"
	 width="50px" height="50px" viewBox="0 0 50 50" enable-background="new 0 0 50 50" xml:space="preserve">
<g>
	<path d="M34,12H16c-0.827,0-1.5,0.673-1.5,1.5v23c0,0.827,0.673,1.5,1.5,1.5h18c0.827,0,1.5-0.673,1.5-1.5v-23
		C35.5,12.673,34.827,12,34,12z M33.383,13.066c0.396,0,0.717,0.321,0.717,0.718s-0.32,0.718-0.717,0.718s-0.719-0.321-0.719-0.718
		S32.986,13.066,33.383,13.066z M30.969,13.066c0.396,0,0.718,0.321,0.718,0.718s-0.321,0.718-0.718,0.718s-0.718-0.321-0.718-0.718
		S30.572,13.066,30.969,13.066z M28.555,13.066c0.396,0,0.719,0.321,0.719,0.718s-0.322,0.718-0.719,0.718s-0.717-0.321-0.717-0.718
		S28.158,13.066,28.555,13.066z M34.5,36.5c0,0.275-0.225,0.5-0.5,0.5H16c-0.275,0-0.5-0.225-0.5-0.5V15.068h19V36.5z"/>
	<polygon points="20.946,24.913 23.018,30.821 24.132,22.96 25.79,28.562 28.392,24.875 29.651,26.308 33.058,26.308 33.058,25.502 
		30.017,25.502 28.323,23.576 26.091,26.739 23.853,19.18 22.684,27.435 21.13,23.002 19.667,25.502 16.942,25.502 16.942,26.308 
		20.129,26.308 	"/>
	<rect x="16.942" y="31.5" width="16.115" height="4.209"/>
</g>
</svg>
