<?xml version="1.0" encoding="utf-8"?>
<!-- Generator: Adobe Illustrator 16.0.0, SVG Export Plug-In . SVG Version: 6.00 Build 0)  -->
<!DOCTYPE svg PUBLIC "-//W3C//DTD SVG 1.1//EN" "http://www.w3.org/Graphics/SVG/1.1/DTD/svg11.dtd">
<svg version="1.1" id="Layer_1" xmlns="http://www.w3.org/2000/svg" xmlns:xlink="http://www.w3.org/1999/xlink" x="0px" y="0px"
	 width="50px" height="50px" viewBox="0 0 50 50" enable-background="new 0 0 50 50" xml:space="preserve">
<g>
	<circle cx="17.659" cy="33.956" r="0.673"/>
	<circle cx="17.659" cy="27.956" r="0.673"/>
	<circle cx="17.659" cy="21.956" r="0.673"/>
	<path d="M15.641,28.891V27.02c0-0.516,0.422-0.937,0.936-0.937H27.44c0.398-0.917,1.048-1.7,1.866-2.256h-12.73
		c-0.514,0-0.936-0.421-0.936-0.937V21.02c0-0.516,0.422-0.937,0.936-0.937h16.848c0.514,0,0.936,0.421,0.936,0.937v1.871
		c0,0.16-0.051,0.303-0.121,0.435c0.29,0.121,0.564,0.271,0.826,0.44c0.143-0.262,0.23-0.557,0.23-0.875V21.02
		c0-0.021-0.01-0.037-0.01-0.057l-1.867-6.797c-0.056-0.511-0.57-0.93-1.143-0.93H17.725c-0.572,0-1.087,0.419-1.143,0.93
		l-1.867,6.797c0,0.02-0.01,0.036-0.01,0.057v1.871c0,0.486,0.191,0.927,0.496,1.26l-0.486,2.812c0,0.02-0.01,0.036-0.01,0.057
		v1.871c0,0.486,0.191,0.927,0.496,1.26l-0.486,2.812c0,0.02-0.01,0.036-0.01,0.057v1.871c0,1.032,0.84,1.872,1.871,1.872h8.778
		v-0.936h-8.778c-0.514,0-0.936-0.421-0.936-0.937V33.02c0-0.516,0.422-0.937,0.936-0.937h8.778v-1.31
		c0-0.349,0.102-0.673,0.275-0.946h-9.054C16.062,29.828,15.641,29.407,15.641,28.891z"/>
	<path d="M36.475,29.597v-1.436c0-2.336-1.899-4.235-4.234-4.235c-2.334,0-4.234,1.899-4.234,4.235v1.436h1.57v-1.436
		c0-1.47,1.195-2.666,2.664-2.666s2.666,1.195,2.666,2.666v1.436H36.475z"/>
	<path d="M37.344,29.99H27.141c-0.431,0-0.786,0.353-0.786,0.784v7.847c0,0.432,0.355,0.786,0.786,0.786h10.203
		c0.429,0,0.782-0.354,0.782-0.786v-7.847C38.126,30.343,37.772,29.99,37.344,29.99z"/>
</g>
</svg>
