<?xml version="1.0" encoding="utf-8"?>
<!-- Generator: Adobe Illustrator 16.0.0, SVG Export Plug-In . SVG Version: 6.00 Build 0)  -->
<!DOCTYPE svg PUBLIC "-//W3C//DTD SVG 1.1//EN" "http://www.w3.org/Graphics/SVG/1.1/DTD/svg11.dtd">
<svg version="1.1" id="Layer_1" xmlns="http://www.w3.org/2000/svg" xmlns:xlink="http://www.w3.org/1999/xlink" x="0px" y="0px"
	 width="50px" height="50px" viewBox="0 0 50 50" enable-background="new 0 0 50 50" xml:space="preserve">
<g>
	<g>
		<path d="M21.011,14.23c-4.142,0-7.5,1.119-7.5,2.5v16.539c0,1.381,3.358,2.5,7.5,2.5c4.142,0,7.5-1.119,7.5-2.5V16.73
			C28.511,15.35,25.153,14.23,21.011,14.23z M21.011,14.73c4.273,0,7,1.185,7,2s-2.727,2-7,2s-7-1.185-7-2
			S16.738,14.73,21.011,14.73z M20.625,24.02h-1.656v4.916h-1.377V24.02h-1.629v-1.152h4.663V24.02z M25.225,28.449
			c-0.441,0.351-1.179,0.549-2.386,0.549c-0.675,0-1.179-0.045-1.485-0.09v-5.96c0.36-0.072,1.089-0.126,1.773-0.126
			c0.837,0,1.351,0.081,1.792,0.342c0.423,0.225,0.729,0.639,0.729,1.188c0,0.541-0.315,1.044-1,1.296v0.018
			c0.693,0.189,1.207,0.711,1.207,1.495C25.855,27.711,25.603,28.143,25.225,28.449z"/>
		<path d="M23.181,26.253h-0.468v1.71c0.135,0.018,0.297,0.018,0.531,0.018c0.621,0,1.17-0.234,1.17-0.874
			C24.415,26.496,23.865,26.253,23.181,26.253z"/>
		<path d="M24.271,24.524c0-0.459-0.351-0.703-0.973-0.703c-0.297,0-0.468,0.018-0.585,0.036v1.414h0.45
			C23.883,25.271,24.271,24.974,24.271,24.524z"/>
	</g>
	<g>
		<g>
			<rect x="31.628" y="14.4" width="0.641" height="5.562"/>
			<rect x="31.628" y="21.884" width="0.641" height="13.715"/>
		</g>
		<g>
			<rect x="29.96" y="20.282" width="3.977" height="1.282"/>
		</g>
		<g>
			<g>
				<rect x="33.925" y="14.24" width="2.563" height="0.32"/>
			</g>
			<g>
				<rect x="33.925" y="15.87" width="2.563" height="0.321"/>
			</g>
			<g>
				<rect x="33.925" y="17.501" width="2.563" height="0.32"/>
			</g>
			<g>
				<rect x="33.925" y="19.132" width="2.563" height="0.32"/>
			</g>
			<g>
				<rect x="33.925" y="20.763" width="2.563" height="0.321"/>
			</g>
			<g>
				<rect x="33.925" y="22.393" width="2.563" height="0.321"/>
			</g>
			<g>
				<rect x="33.925" y="24.024" width="2.563" height="0.32"/>
			</g>
			<g>
				<rect x="33.925" y="25.655" width="2.563" height="0.32"/>
			</g>
			<g>
				<rect x="33.925" y="27.286" width="2.563" height="0.321"/>
			</g>
			<g>
				<rect x="33.925" y="28.916" width="2.563" height="0.321"/>
			</g>
			<g>
				<rect x="33.925" y="30.547" width="2.563" height="0.32"/>
			</g>
			<g>
				<rect x="33.925" y="32.178" width="2.563" height="0.32"/>
			</g>
			<g>
				<rect x="33.925" y="33.809" width="2.563" height="0.321"/>
			</g>
			<g>
				<rect x="33.925" y="35.439" width="2.563" height="0.32"/>
			</g>
		</g>
	</g>
</g>
</svg>
