<?xml version="1.0" encoding="utf-8"?>
<!-- Generator: Adobe Illustrator 16.0.0, SVG Export Plug-In . SVG Version: 6.00 Build 0)  -->
<!DOCTYPE svg PUBLIC "-//W3C//DTD SVG 1.1//EN" "http://www.w3.org/Graphics/SVG/1.1/DTD/svg11.dtd">
<svg version="1.1" id="Layer_1" xmlns="http://www.w3.org/2000/svg" xmlns:xlink="http://www.w3.org/1999/xlink" x="0px" y="0px"
	 width="50px" height="50px" viewBox="0 0 50 50" enable-background="new 0 0 50 50" xml:space="preserve">
<g>
	<path d="M35.683,19.307c-0.064-0.022-0.126-0.062-0.174-0.126c0,0-0.391-0.27-0.543-0.462l-0.083,0.114l0.507,0.655L35.683,19.307z
		"/>
	<path d="M26.765,14.565c-0.056,0.016-0.111,0.029-0.167,0.05c-0.223,0.07-0.441,0.151-0.656,0.24
		c-0.036,0.014-0.074,0.027-0.115,0.045c-1.548,0.661-2.866,1.759-3.799,3.138c-0.003,0.003-0.003,0.004-0.004,0.006
		c-0.154,0.23-0.299,0.466-0.43,0.709c-0.004,0.006-0.005,0.008-0.008,0.012c-0.134,0.245-0.254,0.498-0.363,0.756v0.001
		c-0.441,1.04-0.685,2.187-0.685,3.39c0,3.909,2.574,7.217,6.121,8.319c0.192,0.061,0.396,0.091,0.595,0.138
		c0.009-0.058,0.034-0.109,0.034-0.17V30.69c-0.143-0.037-0.289-0.055-0.431-0.1c-3.379-1.051-5.649-4.137-5.649-7.68
		c0-1.088,0.212-2.14,0.631-3.128c0.096-0.226,0.2-0.446,0.315-0.661l0.007-0.008l0.023-0.045c0.111-0.205,0.231-0.404,0.361-0.601
		l0.014-0.014l0.03-0.053c0.87-1.282,2.081-2.28,3.496-2.885l0.112-0.043c0.197-0.082,0.397-0.155,0.619-0.228
		c0.034-0.011,0.066-0.02,0.139-0.039c0.104-0.031,0.223-0.057,0.332-0.085v-0.19c0-0.17-0.038-0.331-0.102-0.478
		C27.045,14.49,26.903,14.523,26.765,14.565z"/>
	<path d="M29.919,18.217c0.092-0.021,0.185-0.042,0.259-0.071c0,0,0.504-0.154,0.813-0.077c0,0,0.197,0.307,0.079,0.498
		c0,0,0.544-0.191,0.896,0.229c0,0,0.35-0.036,0.27-0.305c0,0,0.897,0.538,1.365,0.229c0,0,0.115-0.767-0.31-0.728
		c0,0-0.662,0.038-0.976-0.423c0,0-0.35-0.152-0.273,0.079c0,0,0.041,0.23,0.312,0.305c0,0-0.077,0.231-0.349,0.116
		c0,0-0.233-0.077-0.312-0.577c0,0-0.625-0.113-0.779-0.382c0,0-0.387,0.115,0.506,0.538c0,0,0.352,0.266-0.118,0.458
		c0,0-0.312-0.153,0.039-0.228c0,0-0.077-0.156-0.427-0.271c0,0-0.234-0.229-0.273-0.382c0,0-0.465,0.308-0.661,0.114
		c0,0-0.02,0.086-0.062,0.176V18.217z"/>
	<path d="M32.655,14.894c-0.02-0.011-0.042-0.017-0.062-0.024c-0.231-0.099-0.467-0.184-0.708-0.26
		c-0.043-0.015-0.086-0.024-0.128-0.038c-0.223-0.066-0.45-0.127-0.682-0.175c-0.052-0.012-0.104-0.021-0.154-0.031
		c-0.352-0.068-0.711-0.107-1.073-0.134c0.042,0.228,0.07,0.461,0.07,0.701v0.17c0.015-0.016,0.02-0.028,0.037-0.044
		c2.705,0.259,5.004,1.901,6.195,4.205c-0.118,0.048-0.279,0.093-0.424,0.055c0.12,0.122,0.619,0.681,0.169,1.088
		c0,0-0.153,0.421-0.621,0.651c0,0-0.66-1.609-1.481-1.955c0,0,0.858,1.496,1.559,2.187c0,0,0.194,0.117,0.506-0.036
		c0,0,0.038,1.264-0.7,2.108c0,0-0.192,0.459-0.117,0.958c0,0,0.117,0.843-0.506,1.267c0,0-0.275,0.19-0.275,0.649
		c0,0,0,0.385-0.427,0.385c0,0-0.467,0.992-1.79,0.8c0,0,0-0.72-0.386-1.565c0,0-0.354-0.461,0.188-0.999c0,0,0.51-0.229-0.268-1.11
		c0,0-0.508-0.425-0.235-0.883c0,0,0.079-0.385-0.116-0.498c0,0-0.545,0.113-0.661-0.269c0,0-0.3,0.111-0.646,0.184v9.311
		c4.497-0.345,8.041-4.095,8.041-8.679C37.96,19.308,35.773,16.22,32.655,14.894z"/>
	<path d="M30.951,15.766c0,0-0.578,0.345-0.853,0.156c0,0-0.088-0.031-0.18-0.093v0.661c0.112-0.032,0.237-0.061,0.372-0.07
		C30.291,16.42,31.188,16.032,30.951,15.766z"/>
	<path d="M26.086,11.772H15.203c-1.739,0-3.163,1.422-3.163,3.16v20.136c0,1.737,1.424,3.16,3.163,3.16h10.883
		c1.739,0,3.163-1.423,3.163-3.16V14.933C29.249,13.194,27.825,11.772,26.086,11.772z M20.646,36.816
		c-0.609,0-1.104-0.493-1.104-1.102c0-0.607,0.494-1.103,1.104-1.103c0.606,0,1.099,0.495,1.099,1.103
		C21.744,36.323,21.252,36.816,20.646,36.816z M27.958,31.198c0,1.03-0.84,1.871-1.872,1.871H15.203
		c-1.032,0-1.873-0.841-1.873-1.871V14.933c0-1.029,0.841-1.87,1.873-1.87h10.883c1.032,0,1.872,0.841,1.872,1.87V31.198z"/>
	<rect x="14.875" y="16.558" width="4.125" height="0.484"/>
	<rect x="14.875" y="17.962" width="4.125" height="0.484"/>
	<rect x="14.875" y="19.366" width="2.146" height="0.484"/>
	<rect x="14.875" y="20.771" width="2.146" height="0.484"/>
	<rect x="14.875" y="22.175" width="2.146" height="0.484"/>
</g>
</svg>
