<?xml version="1.0" encoding="utf-8"?>
<!-- Generator: Adobe Illustrator 16.0.0, SVG Export Plug-In . SVG Version: 6.00 Build 0)  -->
<!DOCTYPE svg PUBLIC "-//W3C//DTD SVG 1.1//EN" "http://www.w3.org/Graphics/SVG/1.1/DTD/svg11.dtd">
<svg version="1.1" id="Layer_1" xmlns="http://www.w3.org/2000/svg" xmlns:xlink="http://www.w3.org/1999/xlink" x="0px" y="0px"
	 width="50px" height="50px" viewBox="0 0 50 50" enable-background="new 0 0 50 50" xml:space="preserve">
<g>
	<path d="M21.459,31.506h-7.326c-1.475,0-1.594-0.121-1.594-1.596v-9.766c0-1.477,0.119-1.596,1.594-1.596h7.597
		c1.475,0,1.594,0.119,1.594,1.596v9.494H23.9v-9.494c0-1.792-0.38-2.172-2.17-2.172h-7.597c-1.79,0-2.17,0.38-2.17,2.172v9.766
		c0,1.789,0.38,2.17,2.17,2.17h7.326V31.506z"/>
	<polygon points="21.816,31.724 23.543,29.996 21.816,29.996 	"/>
	<rect x="14.477" y="22.699" width="6.91" height="0.576"/>
	<rect x="14.477" y="24.739" width="6.91" height="0.576"/>
	<rect x="14.477" y="26.779" width="6.91" height="0.574"/>
	<path d="M36.427,17.973H28.83c-1.79,0-2.17,0.38-2.17,2.172v9.766c0,1.789,0.38,2.17,2.17,2.17h7.326v-0.574H28.83
		c-1.475,0-1.594-0.121-1.594-1.596v-9.766c0-1.477,0.12-1.596,1.594-1.596h7.597c1.475,0,1.594,0.119,1.594,1.596v9.494h0.576
		v-9.494C38.597,18.353,38.217,17.973,36.427,17.973z"/>
	<polygon points="36.513,31.724 38.24,29.996 36.513,29.996 	"/>
	<rect x="29.173" y="22.699" width="6.91" height="0.576"/>
	<rect x="29.173" y="24.739" width="6.91" height="0.576"/>
	<rect x="29.173" y="26.779" width="6.91" height="0.574"/>
	<path d="M18.876,16.857l1.683-0.117l-0.425-0.736c1.518-0.871,3.274-1.37,5.146-1.37c2.485,0,4.767,0.879,6.557,2.339h1.493
		c-2.063-2.062-4.91-3.339-8.05-3.339c-2.054,0-3.977,0.555-5.643,1.509l-0.578-1l-1.83,2.83h1.493
		C18.772,16.933,18.826,16.897,18.876,16.857z"/>
	<path d="M31.726,33.161l-1.764,0.089l0.461,0.799c-1.518,0.869-3.272,1.368-5.143,1.368c-2.483,0-4.764-0.878-6.554-2.337h-1.494
		c2.062,2.061,4.909,3.337,8.047,3.337c2.053,0,3.975-0.554,5.64-1.508l0.542,0.938l1.866-2.768h-1.494
		C31.799,33.108,31.761,33.133,31.726,33.161z"/>
</g>
</svg>
