<?xml version="1.0" encoding="utf-8"?>
<!-- Generator: Adobe Illustrator 16.0.0, SVG Export Plug-In . SVG Version: 6.00 Build 0)  -->
<!DOCTYPE svg PUBLIC "-//W3C//DTD SVG 1.1//EN" "http://www.w3.org/Graphics/SVG/1.1/DTD/svg11.dtd">
<svg version="1.1" id="Layer_1" xmlns="http://www.w3.org/2000/svg" xmlns:xlink="http://www.w3.org/1999/xlink" x="0px" y="0px"
	 width="50px" height="50px" viewBox="0 0 50 50" enable-background="new 0 0 50 50" xml:space="preserve">
<g>
	<path d="M31.21,29.335v-0.123H13.281c-0.8,0-1.451-0.651-1.451-1.451V15.151c0-0.8,0.651-1.451,1.451-1.451h23.438
		c0.8,0,1.451,0.651,1.451,1.451v0.838h1v-0.838c0-1.348-1.103-2.451-2.451-2.451H13.281c-1.348,0-2.451,1.104-2.451,2.451v15.609
		c0,1.348,1.104,2.451,2.451,2.451H24V35.3h-7.5l-1,1v1h19v-1l-1-1H26v-2.088h10.719c0.891,0,1.667-0.487,2.096-1.202h-4.929
		C32.41,32.01,31.21,30.81,31.21,29.335z"/>
	<path d="M39.653,16.99h-5.768c-0.921,0-1.676,0.753-1.676,1.675v10.67c0,0.921,0.754,1.675,1.676,1.675h5.768
		c0.921,0,1.676-0.754,1.676-1.675v-10.67C41.329,17.743,40.575,16.99,39.653,16.99z M36.77,30.261
		c-0.323,0-0.585-0.261-0.585-0.583c0-0.322,0.262-0.584,0.585-0.584c0.321,0,0.582,0.263,0.582,0.584
		C37.352,30,37.091,30.261,36.77,30.261z M40.645,27.284c0,0.546-0.445,0.992-0.992,0.992h-5.768c-0.547,0-0.992-0.446-0.992-0.992
		v-8.62c0-0.545,0.445-0.991,0.992-0.991h5.768c0.547,0,0.992,0.446,0.992,0.991V27.284z"/>
	<polygon points="31.21,22.999 24.46,19.625 24.46,21.998 21.562,21.998 21.562,24.015 24.46,24.015 24.46,26.375 	"/>
</g>
</svg>
