<?xml version="1.0" encoding="utf-8"?>
<!-- Generator: Adobe Illustrator 16.0.0, SVG Export Plug-In . SVG Version: 6.00 Build 0)  -->
<!DOCTYPE svg PUBLIC "-//W3C//DTD SVG 1.1//EN" "http://www.w3.org/Graphics/SVG/1.1/DTD/svg11.dtd">
<svg version="1.1" id="Layer_1" xmlns="http://www.w3.org/2000/svg" xmlns:xlink="http://www.w3.org/1999/xlink" x="0px" y="0px"
	 width="50px" height="50px" viewBox="0 0 50 50" enable-background="new 0 0 50 50" xml:space="preserve">
<path d="M32.709,13.293c-2.735,0-4.959,2.155-5.111,4.854h-5.197c-0.151-2.699-2.375-4.854-5.111-4.854
	c-2.833,0-5.14,2.306-5.14,5.14s2.306,5.14,5.14,5.14c0.847,0,1.635-0.226,2.341-0.59l2.529,4.308c-1.384,0.922-2.3,2.494-2.3,4.278
	c0,2.833,2.306,5.14,5.14,5.14s5.14-2.306,5.14-5.14c0-1.782-0.913-3.352-2.294-4.275l2.529-4.308
	c0.704,0.363,1.49,0.588,2.335,0.588c2.833,0,5.14-2.306,5.14-5.14C37.849,15.6,35.543,13.293,32.709,13.293z M16.262,21.624
	c0,0,0.678-0.339,0.396-1c-0.125,0.022-0.483,0.088-0.763,0.125c-0.279,0.037-0.521-0.132-0.573-0.272
	c-0.051-0.14,0.1-0.39,0.037-0.47s-0.273-0.311-0.2-0.509c0.074-0.198,0.038-0.3,0.038-0.3s-0.404-0.08-0.44-0.227
	s0.551-1.051,0.551-1.051s-0.125-0.221-0.155-0.338c-0.029-0.118,0-0.75,0.382-1.47s1.257-0.978,2.425-0.83
	c1.168,0.147,1.856,1.326,1.859,2.036c0.005,1.411-0.994,2.057-1.007,2.564c-0.022,0.911,1.012,1.742,1.012,1.742H16.262z
	 M23.972,34.759c0,0,0.678-0.339,0.396-1c-0.125,0.022-0.483,0.088-0.763,0.125c-0.279,0.037-0.521-0.132-0.573-0.272
	c-0.051-0.14,0.1-0.39,0.037-0.47s-0.273-0.311-0.2-0.509c0.074-0.198,0.038-0.3,0.038-0.3s-0.404-0.08-0.44-0.227
	s0.551-1.051,0.551-1.051s-0.125-0.221-0.155-0.338c-0.029-0.118,0-0.75,0.382-1.47s1.257-0.978,2.425-0.83
	c1.168,0.147,1.856,1.326,1.859,2.036c0.005,1.411-0.994,2.057-1.007,2.564c-0.022,0.911,1.012,1.742,1.012,1.742H23.972z
	 M27.343,27.02c-0.706-0.366-1.495-0.592-2.343-0.592c-0.846,0-1.633,0.225-2.338,0.589l-2.529-4.308
	c1.307-0.872,2.175-2.328,2.269-3.991h5.197c0.093,1.665,0.964,3.123,2.274,3.995L27.343,27.02z M31.681,21.624
	c0,0,0.678-0.339,0.396-1c-0.125,0.022-0.483,0.088-0.763,0.125c-0.279,0.037-0.521-0.132-0.573-0.272
	c-0.051-0.14,0.1-0.39,0.037-0.47s-0.273-0.311-0.2-0.509c0.074-0.198,0.038-0.3,0.038-0.3s-0.404-0.08-0.44-0.227
	s0.551-1.051,0.551-1.051s-0.125-0.221-0.155-0.338c-0.029-0.118,0-0.75,0.382-1.47s1.257-0.978,2.425-0.83
	c1.168,0.147,1.856,1.326,1.859,2.036c0.005,1.411-0.994,2.057-1.007,2.564c-0.022,0.911,1.012,1.742,1.012,1.742H31.681z"/>
</svg>
