<?xml version="1.0" encoding="utf-8"?>
<!-- Generator: Adobe Illustrator 16.0.0, SVG Export Plug-In . SVG Version: 6.00 Build 0)  -->
<!DOCTYPE svg PUBLIC "-//W3C//DTD SVG 1.1//EN" "http://www.w3.org/Graphics/SVG/1.1/DTD/svg11.dtd">
<svg version="1.1" id="Layer_1" xmlns="http://www.w3.org/2000/svg" xmlns:xlink="http://www.w3.org/1999/xlink" x="0px" y="0px"
	 width="50px" height="50px" viewBox="0 0 50 50" enable-background="new 0 0 50 50" xml:space="preserve">
<g>
	<path d="M26.926,31.354c0-1.221,0.35-2.35,0.917-3.337l-0.257-6.739h3.032l-0.162,4.186c0.745-0.405,1.565-0.669,2.446-0.769
		l-0.131-3.417h3.771v-1.684l-12.628-5.999l-12.628,5.999v1.684h3.771L14.64,32.222h-1.248v0.842h-2.104v1.684h16.588
		C27.286,33.748,26.926,32.597,26.926,31.354z M19.825,32.222h-2.193l-0.419-10.944h3.032L19.825,32.222z M25.012,32.222h-2.193
		l-0.42-10.944h3.032L25.012,32.222z"/>
	<path d="M33.661,26.302c-2.789,0-5.051,2.262-5.051,5.052s2.262,5.051,5.051,5.051s5.052-2.262,5.052-5.051
		S36.45,26.302,33.661,26.302z M32.634,33.489l-2.164-2.39l0.729-0.661l1.529,1.691l3.494-2.912l0.631,0.755L32.634,33.489z"/>
</g>
</svg>
