<?xml version="1.0" encoding="utf-8"?>
<!-- Generator: Adobe Illustrator 16.0.4, SVG Export Plug-In . SVG Version: 6.00 Build 0)  -->
<!DOCTYPE svg PUBLIC "-//W3C//DTD SVG 1.1//EN" "http://www.w3.org/Graphics/SVG/1.1/DTD/svg11.dtd">
<svg version="1.1" id="Layer_1" xmlns="http://www.w3.org/2000/svg" xmlns:xlink="http://www.w3.org/1999/xlink" x="0px" y="0px"
	 width="50px" height="50px" viewBox="0 0 50 50" enable-background="new 0 0 50 50" xml:space="preserve">
<path d="M27.948,31.807c0.317,0.098,0.643,0.172,0.973,0.221c-0.485,1.352-1.767,2.328-3.282,2.328h-9c-1.93,0-3.5-1.57-3.5-3.5v-11
	c0-1.93,1.57-3.5,3.5-3.5h2.694c0.245-1.691,1.691-3,3.449-3h4.856c1.93,0,3.5,1.57,3.5,3.5v2.384c-0.328-0.067-0.662-0.11-1-0.125
	v-2.259c0-1.378-1.121-2.5-2.5-2.5h-4.856c-1.207,0-2.217,0.86-2.449,2h5.307c1.688,0,3.1,1.202,3.428,2.794
	c-0.33,0.04-0.655,0.112-0.979,0.203c-0.233-1.138-1.243-1.997-2.448-1.997h-9c-1.378,0-2.5,1.122-2.5,2.5v11
	c0,1.377,1.122,2.5,2.5,2.5h9C26.68,33.355,27.573,32.714,27.948,31.807z M32.873,30.833c-2.885,1.666-6.587,0.673-8.253-2.211
	s-0.673-6.587,2.211-8.252c2.884-1.665,6.587-0.674,8.253,2.211C36.75,25.466,35.757,29.167,32.873,30.833z M32.373,29.968
	c2.408-1.39,3.234-4.479,1.845-6.887s-4.479-3.236-6.887-1.846s-3.235,4.479-1.845,6.887C26.876,30.53,29.965,31.357,32.373,29.968z
	 M34.391,30.461l-2.599,1.5l2,3.463l2.599-1.5L34.391,30.461z M36.661,34.395l-2.599,1.5c0.414,0.719,1.332,0.965,2.049,0.549
	C36.829,36.03,37.076,35.113,36.661,34.395z M22.794,19.979h-6.656v0.75h6.656V19.979z M21.263,23.313h-5.125v0.75h5.125V23.313z
	 M16.138,27.396h5.125v-0.75h-5.125V27.396z M16.138,30.729h6.656v-0.75h-6.656V30.729z M28.878,26.641l-1.553-1.72l-0.742,0.671
	l2.196,2.43l4.291-3.574l-0.641-0.768L28.878,26.641z"/>
</svg>
