<?xml version="1.0" encoding="utf-8"?>
<!-- Generator: Adobe Illustrator 16.0.0, SVG Export Plug-In . SVG Version: 6.00 Build 0)  -->
<!DOCTYPE svg PUBLIC "-//W3C//DTD SVG 1.1//EN" "http://www.w3.org/Graphics/SVG/1.1/DTD/svg11.dtd">
<svg version="1.1" id="Layer_1" xmlns="http://www.w3.org/2000/svg" xmlns:xlink="http://www.w3.org/1999/xlink" x="0px" y="0px"
	 width="50px" height="50px" viewBox="0 0 50 50" enable-background="new 0 0 50 50" xml:space="preserve">
<g>
	<path d="M20.364,23.892h1.57c0.34,0,0.619-0.279,0.619-0.618v-1.571c0-0.339-0.279-0.618-0.619-0.618h-1.57
		c-0.341,0-0.618,0.278-0.618,0.618v1.571C19.746,23.613,20.023,23.892,20.364,23.892z"/>
	<path d="M25.211,22.062h1.894c0.409,0,0.744-0.335,0.744-0.744v-1.893c0-0.41-0.335-0.744-0.744-0.744h-1.894
		c-0.409,0-0.744,0.334-0.744,0.744v1.893C24.467,21.727,24.802,22.062,25.211,22.062z"/>
	<path d="M26.618,28.42h-1.894c-0.409,0-0.744,0.334-0.744,0.744v1.893c0,0.408,0.335,0.744,0.744,0.744h1.894
		c0.409,0,0.744-0.336,0.744-0.744v-1.893C27.362,28.755,27.027,28.42,26.618,28.42z"/>
	<path d="M29.895,26.768v-2.293c0-0.496-0.404-0.902-0.9-0.902h-2.293c-0.495,0-0.901,0.406-0.901,0.902v2.293
		c0,0.495,0.406,0.902,0.901,0.902h2.293C29.49,27.67,29.895,27.263,29.895,26.768z"/>
	<path d="M29.337,16.937h1.067c0.229,0,0.419-0.189,0.419-0.419v-1.066c0-0.23-0.189-0.419-0.419-0.419h-1.067
		c-0.229,0-0.419,0.189-0.419,0.419v1.066C28.918,16.748,29.108,16.937,29.337,16.937z"/>
	<path d="M33.151,25h-1.066c-0.23,0-0.419,0.189-0.419,0.42v1.066c0,0.231,0.188,0.42,0.419,0.42h1.066
		c0.23,0,0.419-0.188,0.419-0.42V25.42C33.57,25.189,33.382,25,33.151,25z"/>
	<path d="M24.431,26.162c0.193,0,0.354-0.16,0.354-0.354v-0.901c0-0.195-0.161-0.354-0.354-0.354h-0.902
		c-0.018,0-0.027,0.017-0.047,0.02v-7.42l-6.921-3.425h-1.927v22.547h1.927l6.921-8.562v-1.569c0.02,0.002,0.029,0.02,0.047,0.02
		H24.431z M22.626,27.408l-5.209,6.443V15.105l5.209,2.578V27.408z"/>
	<path d="M30.852,28.42H29.95c-0.193,0-0.354,0.16-0.354,0.354v0.9c0,0.195,0.16,0.355,0.354,0.355h0.901
		c0.194,0,0.354-0.16,0.354-0.355v-0.9C31.206,28.58,31.046,28.42,30.852,28.42z"/>
	<path d="M34.156,18.081H31.08c-0.665,0-1.208,0.544-1.208,1.209v3.074c0,0.664,0.543,1.209,1.208,1.209h3.076
		c0.666,0,1.209-0.545,1.209-1.209V19.29C35.365,18.625,34.822,18.081,34.156,18.081z"/>
</g>
</svg>
