<?xml version="1.0" encoding="utf-8"?>
<!-- Generator: Adobe Illustrator 16.0.0, SVG Export Plug-In . SVG Version: 6.00 Build 0)  -->
<!DOCTYPE svg PUBLIC "-//W3C//DTD SVG 1.1//EN" "http://www.w3.org/Graphics/SVG/1.1/DTD/svg11.dtd">
<svg version="1.1" id="Layer_1" xmlns="http://www.w3.org/2000/svg" xmlns:xlink="http://www.w3.org/1999/xlink" x="0px" y="0px"
	 width="50px" height="50px" viewBox="0 0 50 50" enable-background="new 0 0 50 50" xml:space="preserve">
<g>
	<path d="M34,12H16c-0.827,0-1.5,0.673-1.5,1.5v23c0,0.827,0.673,1.5,1.5,1.5h18c0.827,0,1.5-0.673,1.5-1.5v-23
		C35.5,12.673,34.827,12,34,12z M33.382,13.066c0.396,0,0.718,0.321,0.718,0.718s-0.321,0.718-0.718,0.718s-0.718-0.321-0.718-0.718
		S32.986,13.066,33.382,13.066z M30.969,13.066c0.396,0,0.718,0.321,0.718,0.718s-0.321,0.718-0.718,0.718s-0.718-0.321-0.718-0.718
		S30.572,13.066,30.969,13.066z M28.555,13.066c0.396,0,0.718,0.321,0.718,0.718s-0.321,0.718-0.718,0.718s-0.718-0.321-0.718-0.718
		S28.159,13.066,28.555,13.066z M34.5,36.5c0,0.275-0.224,0.5-0.5,0.5H16c-0.276,0-0.5-0.225-0.5-0.5V15.068h19V36.5z"/>
	<path d="M20.02,23.567h1.83c0.396,0,0.719-0.324,0.719-0.72v-1.83c0-0.396-0.323-0.72-0.719-0.72h-1.83
		c-0.395,0-0.719,0.324-0.719,0.72v1.83C19.3,23.243,19.625,23.567,20.02,23.567z"/>
	<path d="M24.085,23.567h1.83c0.396,0,0.719-0.324,0.719-0.72v-1.83c0-0.396-0.323-0.72-0.719-0.72h-1.83
		c-0.395,0-0.719,0.324-0.719,0.72v1.83C23.366,23.243,23.69,23.567,24.085,23.567z"/>
	<path d="M28.151,23.567h1.83c0.396,0,0.719-0.324,0.719-0.72v-1.83c0-0.396-0.322-0.72-0.719-0.72h-1.83
		c-0.395,0-0.719,0.324-0.719,0.72v1.83C27.432,23.243,27.756,23.567,28.151,23.567z"/>
	<path d="M20.02,27.635h1.83c0.396,0,0.719-0.325,0.719-0.72v-1.83c0-0.396-0.323-0.72-0.719-0.72h-1.83
		c-0.395,0-0.719,0.324-0.719,0.72v1.83C19.3,27.31,19.625,27.635,20.02,27.635z"/>
	<path d="M24.085,27.635h1.83c0.396,0,0.719-0.325,0.719-0.72v-1.83c0-0.396-0.323-0.72-0.719-0.72h-1.83
		c-0.395,0-0.719,0.324-0.719,0.72v1.83C23.366,27.31,23.69,27.635,24.085,27.635z"/>
	<path d="M28.151,27.635h1.83c0.396,0,0.719-0.325,0.719-0.72v-1.83c0-0.396-0.322-0.72-0.719-0.72h-1.83
		c-0.395,0-0.719,0.324-0.719,0.72v1.83C27.432,27.31,27.756,27.635,28.151,27.635z"/>
	<path d="M20.02,31.703h1.83c0.396,0,0.719-0.325,0.719-0.721v-1.829c0-0.396-0.323-0.72-0.719-0.72h-1.83
		c-0.395,0-0.719,0.324-0.719,0.72v1.829C19.3,31.378,19.625,31.703,20.02,31.703z"/>
	<path d="M24.085,31.703h1.83c0.396,0,0.719-0.325,0.719-0.721v-1.829c0-0.396-0.323-0.72-0.719-0.72h-1.83
		c-0.395,0-0.719,0.324-0.719,0.72v1.829C23.366,31.378,23.69,31.703,24.085,31.703z"/>
</g>
</svg>
