<?xml version="1.0" encoding="utf-8"?>
<!-- Generator: Adobe Illustrator 16.0.4, SVG Export Plug-In . SVG Version: 6.00 Build 0)  -->
<!DOCTYPE svg PUBLIC "-//W3C//DTD SVG 1.1//EN" "http://www.w3.org/Graphics/SVG/1.1/DTD/svg11.dtd">
<svg version="1.1" id="Layer_1" xmlns="http://www.w3.org/2000/svg" xmlns:xlink="http://www.w3.org/1999/xlink" x="0px" y="0px"
	 width="50px" height="50px" viewBox="0 0 50 50" enable-background="new 0 0 50 50" xml:space="preserve">
<path d="M32.956,19.423l-0.64-0.828l0.104-0.144c0.193,0.243,0.686,0.583,0.686,0.583c0.062,0.079,0.14,0.131,0.221,0.159
	L32.956,19.423z M29.409,33.271l0.295,0.513c-1.377,0.618-2.899,0.973-4.506,0.973c-1.14,0-2.238-0.174-3.273-0.496
	c-4.481-1.394-7.734-5.573-7.734-10.512c0-1.519,0.308-2.968,0.865-4.282c0,0,0,0,0-0.002c0.138-0.326,0.291-0.645,0.459-0.954
	c0.003-0.005,0.005-0.009,0.01-0.015c0.165-0.307,0.347-0.605,0.542-0.896c0.002-0.001,0.002-0.003,0.005-0.006
	c1.179-1.742,2.843-3.13,4.8-3.965c0.052-0.021,0.1-0.039,0.146-0.056c0.271-0.112,0.547-0.215,0.828-0.304
	c0.071-0.024,0.141-0.042,0.212-0.062c0.267-0.079,0.536-0.149,0.81-0.21c0.078-0.015,0.159-0.029,0.24-0.046
	c0.674-0.131,1.374-0.204,2.088-0.204c0.723,0,1.427,0.075,2.113,0.207c0.064,0.013,0.131,0.024,0.195,0.039
	c0.293,0.061,0.581,0.138,0.862,0.222c0.053,0.016,0.106,0.029,0.161,0.047c0.306,0.096,0.604,0.204,0.896,0.328
	c0.025,0.01,0.054,0.018,0.078,0.031c3.938,1.675,6.702,5.577,6.702,10.129c0,1.253-0.219,2.452-0.605,3.573
	c0.344-1.767,0.053-3.572-0.854-5.142c-0.327-0.566-0.725-1.078-1.178-1.53c0.015-0.031,0.029-0.064,0.029-0.064
	c0.568-0.515-0.062-1.221-0.214-1.374c0.185,0.048,0.388-0.008,0.536-0.07c-1.505-2.91-4.41-4.985-7.828-5.312
	c-0.789,0.77,0.18,1.091,0.18,1.091c0.349,0.238,1.08-0.199,1.08-0.199c0.299,0.337-0.836,0.827-0.836,0.827
	c-0.637,0.048-1.13,0.387-1.13,0.387c-0.295-0.437-0.588-0.1-0.588-0.1c-0.245,0.291,0.344,0.441,0.344,0.441
	c0.394,0.094,0.294,0.337,0.146,0.481c-0.146,0.144-0.784,0-0.784,0c-0.345,0.195-0.1,0.873-0.1,0.873h0.294
	c0.982,0.288,1.035-0.438,1.035-0.438c0.293,0,0.394-0.484,0.394-0.484c0.248,0.244,0.835-0.144,0.835-0.144
	c0.049,0.193,0.346,0.482,0.346,0.482c0.441,0.145,0.538,0.342,0.538,0.342c-0.444,0.095-0.049,0.288-0.049,0.288
	c0.593-0.244,0.147-0.579,0.147-0.579c-1.127-0.534-0.637-0.68-0.637-0.68c0.194,0.339,0.983,0.483,0.983,0.483
	c0.101,0.632,0.394,0.729,0.394,0.729c0.344,0.146,0.441-0.146,0.441-0.146c-0.346-0.094-0.396-0.385-0.396-0.385
	c-0.095-0.293,0.347-0.1,0.347-0.1c0.395,0.582,1.231,0.534,1.231,0.534c0.536-0.05,0.391,0.919,0.391,0.919
	c-0.592,0.39-1.725-0.29-1.725-0.29c0.055,0.18-0.045,0.274-0.148,0.326c-0.092-0.006-0.182-0.015-0.274-0.018
	c-0.444-0.419-1.05-0.212-1.05-0.212c0.148-0.242-0.102-0.629-0.102-0.629c-0.39-0.097-1.026,0.098-1.026,0.098
	c-0.494,0.19-1.428,0.239-1.428,0.239c-0.441,0-0.736,0.875-0.736,0.875c-0.987,0.435-1.081,1.306-1.081,1.306
	c0,0.135-0.007,0.271-0.016,0.398c-0.965,0.93-1.67,2.102-2.026,3.433c-0.517,1.927-0.253,3.935,0.742,5.656
	c1.326,2.301,3.805,3.729,6.468,3.729C28.668,33.364,29.041,33.327,29.409,33.271z M17.918,16.918
	c0.098-0.048,0.19-0.086,0.286-0.114c0,0,0.923-0.095,0.536-0.673C18.454,16.379,18.178,16.641,17.918,16.918z M19.433,24.946
	c0,0-0.144-0.488-0.881-0.488c0,0-0.444-0.484-0.838-0.484c0,0-0.148-1.354-0.885-1.062c0,0-0.1-0.535-0.397-0.484
	c0,0-0.192-0.534-0.538-0.387l-0.395-0.245c0,0-0.036,0.06-0.092,0.159c-0.096,0.555-0.149,1.123-0.149,1.702
	c0,2.815,1.184,5.354,3.07,7.153c0.001-0.084,0.025-0.168,0.076-0.244c0,0,0.195-0.39-0.053-0.727c0,0,0.248-0.341,0.248-0.779
	c0,0-0.247-0.771,0.391-0.869c0,0,0.886,0,0.443-1.551c0,0-0.046-0.437,0.3-0.871C19.733,25.77,20.075,24.846,19.433,24.946z
	 M20.028,15.207c-0.443,0.266-0.863,0.57-1.255,0.901c0.225,0.023,1.164,0.091,1.227-0.445L20.028,15.207z M30.939,18.936
	c0,0,0.012,0.02,0.015,0.025c0.021,0.008,0.04,0.013,0.06,0.021C30.988,18.968,30.965,18.946,30.939,18.936z M33.759,22.747
	c1.742,3.017,0.705,6.892-2.313,8.632c-3.019,1.742-6.891,0.708-8.633-2.314c-1.743-3.015-0.705-6.888,2.312-8.63
	C28.141,18.693,32.016,19.729,33.759,22.747z M25.646,21.339c-2.519,1.455-3.385,4.685-1.929,7.204
	c1.454,2.518,4.685,3.389,7.202,1.934c2.52-1.455,3.385-4.687,1.932-7.205C31.396,20.753,28.165,19.888,25.646,21.339z
	 M33.033,30.989l-2.717,1.57l2.092,3.62l2.718-1.57L33.033,30.989z M32.689,36.676c0.435,0.752,1.394,1.008,2.145,0.576
	c0.75-0.432,1.007-1.393,0.574-2.145L32.689,36.676z"/>
</svg>
