<?xml version="1.0" encoding="utf-8"?>
<!-- Generator: Adobe Illustrator 16.0.4, SVG Export Plug-In . SVG Version: 6.00 Build 0)  -->
<!DOCTYPE svg PUBLIC "-//W3C//DTD SVG 1.1//EN" "http://www.w3.org/Graphics/SVG/1.1/DTD/svg11.dtd">
<svg version="1.1" id="Capa_1" xmlns="http://www.w3.org/2000/svg" xmlns:xlink="http://www.w3.org/1999/xlink" x="0px" y="0px"
	 width="34px" height="34px" viewBox="0 0 34 34" enable-background="new 0 0 34 34" xml:space="preserve">
<g id="money_6">
	<g>
		<path fill="#231F20" d="M6.656,12.511H1v5.755v3.889v5.742h5.658h14.779h5.735v-5.738v-3.896v-5.75h-5.735H6.656V12.511z
			 M16.459,22.038c-0.086,0.188-0.207,0.353-0.357,0.492c-0.15,0.139-0.33,0.252-0.537,0.338c-0.207,0.088-0.434,0.139-0.678,0.153
			v0.511h-1.131v-0.664c-0.061-0.027-0.117-0.052-0.174-0.076c-0.059-0.022-0.113-0.051-0.166-0.076v0.25h-1.135v-1.698h1.135
			c0.096,0.106,0.191,0.2,0.287,0.278c0.094,0.078,0.191,0.144,0.291,0.193c0.1,0.053,0.211,0.09,0.33,0.112
			c0.123,0.025,0.262,0.037,0.418,0.037c0.205,0,0.375-0.041,0.51-0.125c0.135-0.084,0.203-0.193,0.203-0.328
			c0-0.112-0.035-0.211-0.105-0.295c-0.07-0.084-0.16-0.156-0.271-0.215c-0.109-0.061-0.23-0.107-0.363-0.143
			c-0.133-0.036-0.264-0.062-0.393-0.084c-0.459-0.07-0.826-0.178-1.102-0.324c-0.276-0.146-0.486-0.305-0.635-0.479
			c-0.148-0.172-0.246-0.349-0.291-0.529c-0.047-0.18-0.07-0.34-0.07-0.48c0-0.205,0.039-0.4,0.115-0.584
			c0.074-0.184,0.18-0.346,0.318-0.488c0.139-0.145,0.301-0.262,0.486-0.354c0.186-0.096,0.389-0.16,0.611-0.191v-0.535h1.131v0.615
			c0.17,0.049,0.32,0.113,0.453,0.195V17.3h1.135v1.701h-1.143c-0.09-0.104-0.18-0.192-0.266-0.271s-0.18-0.144-0.275-0.195
			c-0.096-0.051-0.205-0.09-0.318-0.117c-0.117-0.027-0.254-0.041-0.41-0.041c-0.227,0-0.4,0.055-0.521,0.164
			c-0.121,0.107-0.182,0.223-0.182,0.348c0,0.351,0.377,0.582,1.131,0.695c0.471,0.07,0.846,0.186,1.121,0.344
			c0.279,0.16,0.49,0.332,0.637,0.518c0.147,0.187,0.238,0.369,0.279,0.552s0.061,0.328,0.061,0.44
			C16.588,21.652,16.545,21.854,16.459,22.038z M6.473,26.3c-0.506-1.901-1.986-3.403-3.877-3.938v-4.309
			c1.895-0.533,3.377-2.039,3.879-3.947h4.479c-2.086,1.201-3.496,3.451-3.496,6.027c0,2.678,1.525,5.006,3.752,6.166L6.473,26.3
			L6.473,26.3z M25.578,18.075v4.268c-1.928,0.513-3.443,2.027-3.955,3.957h-4.018c2.227-1.159,3.75-3.487,3.75-6.166
			c0-2.575-1.41-4.826-3.494-6.027h3.758C22.129,16.042,23.646,17.562,25.578,18.075z"/>
		<path fill="#231F20" d="M9.502,9.351H3.846v2.203h2.811h2.465c0.076-0.197,0.145-0.4,0.199-0.607h15.145
			c0.056,0.207,0.125,0.41,0.201,0.607h2.508h0.959v0.957v2.314c0.099,0.031,0.193,0.063,0.291,0.088v4.269
			c-0.098,0.024-0.192,0.057-0.291,0.088v2.889v2.576h1.89v-5.738V15.1V9.351h-5.738H9.502z"/>
		<path fill="#231F20" d="M27.262,6.104h-14.78H6.824v2.203h2.813H12.1c0.078-0.197,0.146-0.398,0.201-0.607h15.145
			c0.056,0.209,0.123,0.41,0.199,0.607h2.51h0.957v0.959v2.313c0.099,0.031,0.193,0.063,0.293,0.09v4.266
			c-0.1,0.027-0.194,0.057-0.293,0.09v2.887v2.576H33v-5.736v-3.898v-5.75H27.262z"/>
	</g>
</g>
</svg>
