<?xml version="1.0" encoding="utf-8"?>
<!-- Generator: Adobe Illustrator 16.0.4, SVG Export Plug-In . SVG Version: 6.00 Build 0)  -->
<!DOCTYPE svg PUBLIC "-//W3C//DTD SVG 1.1//EN" "http://www.w3.org/Graphics/SVG/1.1/DTD/svg11.dtd">
<svg version="1.1" id="Capa_1" xmlns="http://www.w3.org/2000/svg" xmlns:xlink="http://www.w3.org/1999/xlink" x="0px" y="0px"
	 width="34px" height="34px" viewBox="0 0 34 34" enable-background="new 0 0 34 34" xml:space="preserve">
<g id="eye_on_money">
	<path fill="#231F20" d="M33.836,27.754L19.16,5.133c-0.186-0.287-0.506-0.463-0.848-0.467s-0.666,0.166-0.859,0.451L2.174,27.738
		c-0.211,0.312-0.232,0.717-0.055,1.051c0.178,0.336,0.525,0.545,0.904,0.545h29.954c0.375,0,0.719-0.205,0.897-0.535
		S34.039,28.068,33.836,27.754z M14.256,19.279c-0.113,0.365-0.174,0.754-0.174,1.156c0,2.164,1.754,3.918,3.918,3.918
		s3.918-1.754,3.918-3.918c0-0.369-0.055-0.724-0.148-1.062c1.443,0.856,2.861,1.938,3.847,2.765
		c-1.986,1.698-5.228,4.057-7.4,4.057c-2.209,0-5.705-2.424-7.832-4.133C11.166,21.371,12.658,20.195,14.256,19.279z M18.285,7.543
		l6.934,10.686c-2.037-1.651-4.738-3.412-7.004-3.412c-2.199,0-4.93,1.666-7.057,3.275L18.285,7.543z M8.078,22.654
		c0.979,0.856,3.92,3.324,6.854,4.633H4.949L8.078,22.654z M21.439,27.287c2.918-1.348,5.752-3.922,6.592-4.721l3.062,4.721H21.439z
		"/>
</g>
</svg>
