<?xml version="1.0" encoding="utf-8"?>
<!-- Generator: Adobe Illustrator 16.0.4, SVG Export Plug-In . SVG Version: 6.00 Build 0)  -->
<!DOCTYPE svg PUBLIC "-//W3C//DTD SVG 1.1//EN" "http://www.w3.org/Graphics/SVG/1.1/DTD/svg11.dtd">
<svg version="1.1" id="Capa_1" xmlns="http://www.w3.org/2000/svg" xmlns:xlink="http://www.w3.org/1999/xlink" x="0px" y="0px"
	 width="34px" height="34px" viewBox="0 0 34 34" enable-background="new 0 0 34 34" xml:space="preserve">
<g id="cards_2">
	<g>
		<path fill="#231F20" d="M24.217,11.405H7.871v10.219h2.943v0.83h15.359V13.22h-1.957L24.217,11.405L24.217,11.405z M23.029,20.419
			H9.086v-1.383h13.943V20.419z M23.029,16.638H9.086v-4.057h13.943V16.638z"/>
		<path fill="#231F20" d="M33,3.757l-8.705-2.135L23.83,10.61l2.555-1.893c0,0,3.336,3.496,1.072,9.838
			c7.902-7,3.262-13.109,3.262-13.109L33,3.757z"/>
		<path fill="#231F20" d="M6.542,15.442c-7.903,7.001-3.263,13.109-3.263,13.109L1,30.241l8.703,2.137l0.466-8.987l-2.556,1.89
			C7.613,25.28,4.278,21.784,6.542,15.442z"/>
	</g>
</g>
</svg>
