<?xml version="1.0" encoding="utf-8"?>
<!-- Generator: Adobe Illustrator 16.0.4, SVG Export Plug-In . SVG Version: 6.00 Build 0)  -->
<!DOCTYPE svg PUBLIC "-//W3C//DTD SVG 1.1//EN" "http://www.w3.org/Graphics/SVG/1.1/DTD/svg11.dtd">
<svg version="1.1" id="Capa_1" xmlns="http://www.w3.org/2000/svg" xmlns:xlink="http://www.w3.org/1999/xlink" x="0px" y="0px"
	 width="34px" height="34px" viewBox="0 0 34 34" enable-background="new 0 0 34 34" xml:space="preserve">
<g id="money_2">
	<g>
		<path fill="#231F20" d="M12.734,19.798c-1.023,0.236-2.23,0.382-3.553,0.382c-3.922,0-6.854-1.271-6.854-2.408
			c0-1.011,2.316-2.124,5.582-2.359v-0.984c-3.365,0.232-6.541,1.379-6.563,3.324l0,0v3.066c0,0.654,0.58,1.254,1.561,1.738V20.49
			c0.258,0.104,0.529,0.197,0.813,0.285v2.123c0.488,0.176,1.041,0.33,1.641,0.453v-2.17c0.264,0.049,0.535,0.096,0.813,0.135v2.182
			c0.531,0.082,1.094,0.141,1.676,0.18v-2.195c0.268,0.017,0.539,0.025,0.813,0.031v2.197c0.164,0.004,0.328,0.008,0.494,0.008
			c0.395,0,0.783-0.012,1.162-0.033v-2.203c0.275-0.014,0.547-0.034,0.814-0.061v2.201c0.555-0.053,1.088-0.129,1.588-0.225v-2.193
			c0.279-0.051,0.551-0.107,0.813-0.17v2.186c0.5-0.127,0.961-0.272,1.371-0.436v-2.15c0.285-0.1,0.557-0.207,0.813-0.32v2.084
			c0.805-0.455,1.283-0.996,1.303-1.58v-0.727c-0.229,0.006-0.461,0.01-0.693,0.01C15.039,20.102,13.822,19.993,12.734,19.798z"/>
		<path fill="#231F20" d="M19.047,13.593c-0.225-0.1-0.549-0.191-0.969-0.277c-0.422-0.086-0.982-0.146-1.684-0.184
			c-1.131-0.061-1.693-0.182-1.689-0.367c0.002-0.064,0.092-0.125,0.273-0.18c0.18-0.057,0.438-0.084,0.773-0.084
			c0.23,0,0.432,0.006,0.605,0.021c0.17,0.012,0.328,0.033,0.473,0.059c0.145,0.027,0.281,0.063,0.41,0.104
			c0.129,0.039,0.262,0.088,0.4,0.141l1.699-0.002l-0.057-0.877h-1.66l0.004,0.125c-0.199-0.041-0.42-0.074-0.666-0.1l-0.008-0.313
			h-1.65l-0.002,0.271c-0.324,0.016-0.623,0.049-0.898,0.096c-0.273,0.049-0.512,0.109-0.717,0.184s-0.367,0.158-0.482,0.252
			c-0.117,0.096-0.178,0.197-0.184,0.303c-0.002,0.074,0.029,0.158,0.092,0.254c0.064,0.096,0.207,0.191,0.424,0.283
			c0.221,0.092,0.537,0.176,0.947,0.254c0.416,0.078,0.969,0.137,1.662,0.174c0.195,0.014,0.393,0.029,0.592,0.047
			c0.201,0.018,0.387,0.045,0.553,0.078c0.17,0.031,0.31,0.072,0.416,0.117c0.106,0.045,0.164,0.1,0.166,0.162
			c0.002,0.072-0.099,0.133-0.304,0.18c-0.205,0.047-0.462,0.07-0.776,0.07c-0.238-0.002-0.451-0.008-0.637-0.021
			c-0.186-0.013-0.354-0.035-0.506-0.063c-0.154-0.027-0.301-0.064-0.445-0.107c-0.143-0.043-0.289-0.094-0.434-0.152h-1.723
			L13,14.986h1.75l0.004-0.143c0.08,0.016,0.168,0.029,0.254,0.043c0.088,0.016,0.176,0.029,0.268,0.045l-0.002,0.377l1.76,0.002
			l-0.008-0.293c0.375-0.01,0.723-0.037,1.041-0.086c0.318-0.049,0.593-0.113,0.82-0.191c0.227-0.078,0.404-0.17,0.531-0.273
			c0.125-0.1,0.182-0.215,0.174-0.332c-0.004-0.062-0.039-0.137-0.107-0.24C19.42,13.794,19.273,13.692,19.047,13.593z"/>
		<path fill="#231F20" d="M18.248,19.355c0.557-0.055,1.088-0.131,1.59-0.227v-2.193c0.277-0.051,0.549-0.107,0.812-0.168v2.184
			c0.502-0.125,0.961-0.271,1.369-0.437v-2.147c0.287-0.1,0.56-0.209,0.813-0.322v2.084c0.808-0.453,1.283-0.996,1.304-1.578v-2.621
			c-0.021-0.137,0-0.279,0-0.426c0-2.203-4.037-3.391-7.835-3.391c-3.799,0-7.836,1.188-7.836,3.391c0-0.008,0-0.014,0-0.021l0,0
			v3.068c0,0.652,0.58,1.255,1.559,1.738v-2.068c0.258,0.104,0.529,0.197,0.813,0.285v2.125c0.49,0.177,1.041,0.328,1.641,0.453
			v-2.172c0.264,0.051,0.535,0.096,0.813,0.135v2.183c0.533,0.084,1.096,0.143,1.678,0.18v-2.195
			c0.268,0.016,0.539,0.027,0.813,0.033v2.195c0.164,0.004,0.328,0.008,0.494,0.008c0.395,0,0.783-0.012,1.162-0.033v-2.201
			c0.275-0.016,0.547-0.035,0.813-0.061v2.199H18.248z M16.301,15.911c-3.924,0-6.854-1.271-6.854-2.406
			c0-1.137,2.93-2.408,6.854-2.408c3.922,0,6.852,1.271,6.852,2.408C23.152,14.64,20.223,15.911,16.301,15.911z"/>
		<path fill="#231F20" d="M33.344,17.427c0-2.201-4.037-3.389-7.834-3.389c-0.266,0-0.529,0.008-0.795,0.02v0.98
			c0.26-0.012,0.525-0.018,0.795-0.018c3.922,0,6.852,1.27,6.852,2.406c0,1.137-2.93,2.408-6.852,2.408
			c-1.463,0-2.787-0.178-3.871-0.459c-1.117,0.354-2.475,0.594-3.965,0.684v0.414c0,0.652,0.58,1.256,1.561,1.74v-2.066
			c0.259,0.101,0.529,0.195,0.813,0.283v2.125c0.488,0.176,1.039,0.328,1.64,0.451v-2.17c0.266,0.051,0.537,0.096,0.813,0.135v2.182
			c0.531,0.082,1.095,0.144,1.679,0.179v-2.192c0.266,0.016,0.536,0.024,0.812,0.03v2.199c0.162,0.004,0.326,0.004,0.492,0.004
			c0.395,0,0.783-0.011,1.162-0.031v-2.2c0.274-0.017,0.547-0.035,0.812-0.063v2.203c0.559-0.056,1.088-0.132,1.592-0.228v-2.193
			c0.277-0.051,0.549-0.106,0.812-0.17v2.187c0.5-0.125,0.96-0.271,1.369-0.438V20.29c0.285-0.101,0.558-0.205,0.813-0.322v2.087
			c0.806-0.455,1.283-0.996,1.302-1.58v-2.619C33.326,17.718,33.344,17.575,33.344,17.427z"/>
		<path fill="#231F20" d="M26.59,18.234c-0.205,0.05-0.463,0.07-0.775,0.074c-0.239-0.004-0.453-0.01-0.637-0.022
			c-0.188-0.015-0.354-0.035-0.508-0.063c-0.152-0.029-0.301-0.063-0.443-0.106c-0.045-0.015-0.088-0.027-0.133-0.043
			c-0.312,0.307-0.736,0.586-1.254,0.836h0.936l0.002-0.144c0.082,0.017,0.168,0.029,0.255,0.043
			c0.088,0.015,0.178,0.029,0.27,0.045L24.3,19.229l1.759,0.002l-0.007-0.293c0.375-0.008,0.724-0.037,1.039-0.084
			c0.32-0.049,0.593-0.112,0.82-0.192c0.229-0.076,0.403-0.168,0.53-0.272c0.127-0.099,0.187-0.212,0.177-0.332
			c-0.005-0.063-0.039-0.138-0.106-0.24c-0.068-0.099-0.216-0.197-0.441-0.299c-0.225-0.101-0.549-0.193-0.969-0.277
			s-0.98-0.146-1.685-0.184c-0.272-0.016-0.515-0.033-0.719-0.055c-0.029,0.209-0.105,0.41-0.224,0.604
			c0.213,0.02,0.441,0.035,0.691,0.051c0.195,0.01,0.395,0.025,0.594,0.043c0.201,0.02,0.385,0.045,0.553,0.078
			c0.17,0.033,0.308,0.072,0.414,0.117c0.109,0.045,0.164,0.1,0.168,0.162C26.896,18.13,26.795,18.189,26.59,18.234z"/>
		<path fill="#231F20" d="M25.379,16.444c0.172,0.014,0.328,0.035,0.473,0.061c0.146,0.027,0.283,0.061,0.412,0.102
			s0.262,0.088,0.4,0.141h1.697l-0.055-0.877h-1.66l0.004,0.123c-0.199-0.041-0.422-0.074-0.668-0.1l-0.006-0.309h-1.263v0.84
			c0.021-0.002,0.037-0.002,0.06-0.002C25.006,16.423,25.207,16.431,25.379,16.444z"/>
		<path fill="#231F20" d="M9.295,18.645c-0.092-0.004-0.18-0.009-0.26-0.017c-0.184-0.012-0.354-0.033-0.506-0.063
			c-0.152-0.026-0.301-0.062-0.443-0.104c-0.145-0.043-0.289-0.096-0.436-0.153H5.928l-0.043,0.944h1.75l0.002-0.142
			c0.082,0.017,0.168,0.029,0.254,0.043c0.09,0.015,0.178,0.027,0.27,0.043l-0.004,0.378l1.76,0.002L9.91,19.284
			c0.242-0.007,0.471-0.021,0.688-0.043C10.105,19.062,9.668,18.864,9.295,18.645z"/>
		<path fill="#231F20" d="M7.586,17.032c0.002-0.064,0.092-0.125,0.275-0.182c0.014-0.004,0.031-0.008,0.049-0.012v-0.621
			c-0.221,0.02-0.43,0.041-0.625,0.076c-0.275,0.049-0.514,0.109-0.719,0.182c-0.205,0.074-0.367,0.158-0.48,0.254
			c-0.117,0.094-0.18,0.197-0.184,0.303c-0.004,0.074,0.027,0.158,0.092,0.254c0.063,0.096,0.205,0.189,0.424,0.28
			c0.219,0.093,0.535,0.179,0.947,0.257c0.283,0.053,0.637,0.098,1.053,0.133c-0.203-0.224-0.35-0.455-0.432-0.699
			C7.723,17.196,7.586,17.122,7.586,17.032z"/>
	</g>
</g>
</svg>
