<?xml version="1.0" encoding="utf-8"?>
<!-- Generator: Adobe Illustrator 16.0.4, SVG Export Plug-In . SVG Version: 6.00 Build 0)  -->
<!DOCTYPE svg PUBLIC "-//W3C//DTD SVG 1.1//EN" "http://www.w3.org/Graphics/SVG/1.1/DTD/svg11.dtd">
<svg version="1.1" id="Capa_1" xmlns="http://www.w3.org/2000/svg" xmlns:xlink="http://www.w3.org/1999/xlink" x="0px" y="0px"
	 width="34px" height="34px" viewBox="0 0 34 34" enable-background="new 0 0 34 34" xml:space="preserve">
<g id="money_3">
	<g>
		<path fill="#231F20" d="M23.77,12.527c0.48-0.381,0.697-1.029,0.49-1.643c-0.178-0.52-0.611-0.871-1.113-0.975
			c0.541-1.035,0.98-2.256,1.215-3.199c0.354-1.418,0.582-3.377-0.342-4.656C23.391,1.183,22.629,1,22.1,1
			c-1.227,0-2.312,0.975-3.271,1.834c-0.32,0.287-0.781,0.701-1.052,0.865c-0.243-0.135-0.579-0.355-0.905-0.57
			c-1.145-0.756-2.568-1.695-4.01-1.695c-0.553,0-1.063,0.139-1.516,0.41c-0.43,0.26-0.957,0.818-1.014,2.006
			c-0.08,1.67,0.807,4.303,1.787,6.08c-0.441,0.119-0.824,0.432-1.004,0.891c-0.242,0.619-0.037,1.297,0.453,1.695
			c-2.473,2.83-5.645,8.332-5.645,11.236C5.924,29.283,10.576,33,17.5,33s11.576-3.718,11.576-9.249
			C29.076,20.83,26.129,15.392,23.77,12.527z M12.588,3.714c0.064-0.025,0.152-0.047,0.273-0.047c0.771,0,1.932,0.766,2.779,1.326
			c0.566,0.373,1.055,0.695,1.504,0.875c0.191,0.076,0.396,0.115,0.607,0.115l0,0c0.908,0,1.679-0.689,2.567-1.486
			c0.492-0.441,1.408-1.264,1.765-1.268c0.013,0.006,0.06,0.043,0.123,0.133c0.875,1.211-0.752,5.594-1.666,6.51
			c-0.414,0.07-1.381,0.203-2.664,0.203c-1.328,0-2.707-0.25-3.277-0.367C13.715,8.714,12.252,4.714,12.588,3.714z M17.5,30.766
			c-4.311,0-9.342-1.836-9.342-7.015c0-2.33,3.453-8.26,5.686-10.404c0.371,0.07,0.75,0.129,1.129,0.178
			c0.246,0.037,0.494,0.066,0.74,0.088c0.029,0.004,0.057,0.006,0.086,0.01c0.184,0.016,0.363,0.027,0.541,0.039
			c1.75,0.117,3.525,0.025,5.217-0.283c2.189,2.307,5.285,7.975,5.285,10.373C26.842,28.93,21.811,30.766,17.5,30.766z"/>
		<path fill="#231F20" d="M20.473,23.189c-0.201-0.258-0.496-0.498-0.883-0.722c-0.387-0.221-0.906-0.379-1.559-0.477
			c-1.049-0.158-1.574-0.48-1.574-0.968c0-0.174,0.084-0.334,0.254-0.483c0.168-0.149,0.41-0.226,0.725-0.226
			c0.218,0,0.408,0.019,0.568,0.056c0.162,0.039,0.311,0.092,0.445,0.164c0.135,0.069,0.262,0.161,0.383,0.271
			c0.117,0.108,0.242,0.233,0.371,0.377h1.586V18.82h-1.576v0.338c-0.188-0.113-0.396-0.203-0.629-0.271v-0.854h-1.576v0.742
			c-0.307,0.045-0.59,0.133-0.848,0.264c-0.258,0.131-0.484,0.297-0.676,0.496c-0.191,0.197-0.34,0.424-0.443,0.68
			c-0.105,0.254-0.158,0.525-0.158,0.811c0,0.193,0.033,0.418,0.096,0.668c0.063,0.252,0.199,0.496,0.404,0.736
			c0.207,0.24,0.5,0.461,0.883,0.664c0.383,0.203,0.893,0.354,1.529,0.451c0.182,0.029,0.363,0.068,0.547,0.117
			s0.352,0.115,0.506,0.197s0.279,0.182,0.377,0.297c0.099,0.117,0.146,0.254,0.146,0.412c0,0.188-0.094,0.338-0.281,0.455
			c-0.188,0.115-0.424,0.174-0.709,0.174c-0.217,0-0.41-0.018-0.578-0.051c-0.17-0.033-0.322-0.086-0.463-0.156
			c-0.139-0.072-0.273-0.162-0.404-0.271c-0.131-0.107-0.264-0.236-0.398-0.387h-1.576v2.361h1.576v-0.351
			c0.074,0.039,0.15,0.074,0.23,0.107c0.078,0.032,0.158,0.069,0.24,0.106v0.922h1.576V26.77c0.336-0.021,0.65-0.092,0.939-0.213
			c0.287-0.121,0.537-0.276,0.748-0.473c0.209-0.195,0.375-0.422,0.494-0.68c0.121-0.26,0.18-0.539,0.18-0.838
			c0-0.158-0.027-0.363-0.084-0.613S20.676,23.447,20.473,23.189z"/>
	</g>
</g>
</svg>
