<?xml version="1.0" encoding="utf-8"?>
<!-- Generator: Adobe Illustrator 16.0.4, SVG Export Plug-In . SVG Version: 6.00 Build 0)  -->
<!DOCTYPE svg PUBLIC "-//W3C//DTD SVG 1.1//EN" "http://www.w3.org/Graphics/SVG/1.1/DTD/svg11.dtd">
<svg version="1.1" id="Capa_1" xmlns="http://www.w3.org/2000/svg" xmlns:xlink="http://www.w3.org/1999/xlink" x="0px" y="0px"
	 width="34px" height="34px" viewBox="0 0 34 34" enable-background="new 0 0 34 34" xml:space="preserve">
<g id="money_8">
	<g>
		<path fill="#231F20" d="M11.715,11.093H7.727v4.055v2.741v4.047h3.988h10.416h4.043v-4.045v-2.747v-4.051h-4.043H11.715z
			 M11.584,20.811c-0.355-1.343-1.398-2.398-2.732-2.773V15c1.336-0.377,2.381-1.438,2.734-2.783h3.156
			c-1.471,0.848-2.463,2.434-2.463,4.248c0,1.889,1.074,3.529,2.643,4.346H11.584L11.584,20.811z M18.621,17.809
			c-0.061,0.131-0.145,0.246-0.25,0.346c-0.107,0.098-0.232,0.178-0.379,0.24c-0.146,0.059-0.307,0.096-0.477,0.106v0.358h-0.8
			v-0.467c-0.043-0.021-0.082-0.037-0.123-0.055c-0.041-0.02-0.078-0.037-0.117-0.055v0.176h-0.799v-1.197h0.799
			c0.068,0.076,0.137,0.141,0.203,0.197c0.066,0.055,0.135,0.1,0.205,0.137c0.07,0.035,0.148,0.063,0.234,0.08
			c0.086,0.018,0.184,0.025,0.293,0.025c0.146,0,0.264-0.029,0.358-0.088c0.096-0.059,0.144-0.137,0.144-0.232
			c0-0.08-0.024-0.148-0.074-0.209c-0.049-0.059-0.112-0.107-0.19-0.15c-0.076-0.041-0.163-0.074-0.256-0.1
			c-0.094-0.026-0.186-0.045-0.277-0.059c-0.322-0.051-0.582-0.125-0.775-0.229c-0.193-0.104-0.342-0.215-0.447-0.338
			c-0.105-0.121-0.174-0.246-0.205-0.373c-0.033-0.127-0.049-0.24-0.049-0.34c0-0.145,0.027-0.279,0.08-0.41
			c0.053-0.129,0.129-0.244,0.225-0.344c0.098-0.102,0.211-0.186,0.344-0.252c0.131-0.066,0.273-0.111,0.43-0.135v-0.375h0.8v0.432
			c0.116,0.035,0.225,0.08,0.317,0.139v-0.172h0.799v1.197h-0.805c-0.063-0.072-0.127-0.135-0.188-0.191
			c-0.061-0.055-0.125-0.1-0.192-0.135c-0.068-0.037-0.145-0.064-0.225-0.084c-0.084-0.02-0.18-0.027-0.289-0.027
			c-0.16,0-0.283,0.037-0.369,0.113c-0.084,0.074-0.127,0.156-0.127,0.244c0,0.248,0.266,0.41,0.799,0.492
			c0.33,0.049,0.594,0.129,0.789,0.242c0.195,0.111,0.347,0.232,0.447,0.365c0.104,0.129,0.168,0.26,0.197,0.387
			s0.043,0.23,0.043,0.311C18.713,17.536,18.684,17.677,18.621,17.809z M25.049,15.015v3.008c-1.357,0.358-2.426,1.428-2.787,2.787
			H19.43c1.568-0.816,2.644-2.457,2.644-4.347c0-1.814-0.992-3.4-2.464-4.248h2.65C22.619,13.581,23.688,14.651,25.049,15.015z"/>
		<path fill="#231F20" d="M33,3.626l-8.703-2.137l-0.467,8.988l2.557-1.893c0,0,3.334,3.498,1.07,9.838
			c7.904-7,3.264-13.107,3.264-13.107L33,3.626z"/>
		<path fill="#231F20" d="M6.543,14.927c-7.902,7-3.264,13.109-3.264,13.109L1,29.727l8.705,2.137l0.465-8.99l-2.555,1.893
			C7.615,24.766,4.279,21.27,6.543,14.927z"/>
	</g>
</g>
</svg>
