<?xml version="1.0" encoding="utf-8"?>
<!-- Generator: Adobe Illustrator 16.0.4, SVG Export Plug-In . SVG Version: 6.00 Build 0)  -->
<!DOCTYPE svg PUBLIC "-//W3C//DTD SVG 1.1//EN" "http://www.w3.org/Graphics/SVG/1.1/DTD/svg11.dtd">
<svg version="1.1" id="Capa_1" xmlns="http://www.w3.org/2000/svg" xmlns:xlink="http://www.w3.org/1999/xlink" x="0px" y="0px"
	 width="34px" height="34px" viewBox="0 0 34 34" enable-background="new 0 0 34 34" xml:space="preserve">
<g id="money_5">
	<g>
		<path fill="#231F20" d="M33,22.768c0-1.705-1.387-3.093-3.092-3.093c-0.074,0-0.145,0.013-0.217,0.017
			c0.305-0.724,0.473-1.531,0.473-2.415c0-2.066-2.639-6.803-4.363-8.369c-0.945,0.203-1.949,0.313-2.99,0.313
			c-1.074,0-2.104-0.117-3.074-0.332c-1.702,1.375-4.683,6.258-4.683,8.389c0,0.359,0.033,0.701,0.092,1.027
			c-0.514-0.035-1.037-0.055-1.57-0.055c-1.379,0-2.707,0.15-3.963,0.424c-0.037-0.457-0.063-0.736-0.063-0.736h-8.19
			c0,0-0.359,3-0.359,6.697s0.359,6.695,0.359,6.695h8.189c0,0,0.072-0.783,0.15-1.893c1.219-0.205,2.467,0.117,3.908,1.012
			c1.828,1.193,4.08,1.902,6.518,1.902c2.472,0,4.594-0.73,6.36-1.955l0.002,0.002c0.021-0.015,0.041-0.031,0.068-0.054
			c0.5-0.352,0.973-0.741,1.414-1.168c0.346-0.354,0.816-0.807,1.518-1.495c2.361-2.32,2.652-2.779,2.652-2.779s-0.004,0-0.008,0
			C32.668,24.348,33,23.598,33,22.768z M20.832,14.72c0.076-0.184,0.184-0.348,0.32-0.49c0.139-0.145,0.301-0.264,0.488-0.357
			c0.188-0.096,0.391-0.158,0.612-0.191v-0.537h1.138v0.619c0.168,0.047,0.319,0.113,0.455,0.193v-0.242h1.139v1.705h-1.146
			c-0.092-0.102-0.182-0.193-0.268-0.271c-0.088-0.078-0.18-0.145-0.277-0.195c-0.098-0.05-0.203-0.09-0.32-0.117
			c-0.117-0.027-0.252-0.041-0.41-0.041c-0.227,0-0.401,0.055-0.524,0.162c-0.121,0.109-0.183,0.225-0.183,0.35
			c0,0.352,0.379,0.584,1.14,0.699c0.471,0.07,0.846,0.186,1.125,0.344c0.276,0.16,0.489,0.334,0.637,0.521
			c0.146,0.186,0.24,0.371,0.281,0.553c0.041,0.183,0.062,0.328,0.062,0.441c0,0.217-0.043,0.42-0.132,0.604
			c-0.086,0.188-0.204,0.353-0.356,0.492c-0.15,0.141-0.332,0.254-0.539,0.342c-0.209,0.086-0.436,0.137-0.68,0.154v0.512h-1.138
			v-0.666c-0.062-0.027-0.116-0.053-0.176-0.078c-0.058-0.022-0.111-0.049-0.166-0.076v0.25h-1.138v-1.705h1.138
			c0.099,0.109,0.192,0.201,0.289,0.281c0.094,0.078,0.19,0.144,0.293,0.193c0.101,0.053,0.211,0.09,0.332,0.115
			c0.123,0.023,0.262,0.035,0.42,0.035c0.205,0,0.375-0.041,0.512-0.125c0.136-0.084,0.203-0.193,0.203-0.33
			c0-0.113-0.037-0.211-0.106-0.297c-0.07-0.083-0.16-0.154-0.271-0.215c-0.111-0.059-0.232-0.107-0.365-0.141
			c-0.133-0.035-0.264-0.064-0.395-0.086c-0.461-0.07-0.828-0.18-1.105-0.326c-0.275-0.145-0.488-0.305-0.637-0.479
			c-0.148-0.174-0.248-0.352-0.293-0.533c-0.047-0.18-0.07-0.342-0.07-0.482C20.717,15.101,20.756,14.905,20.832,14.72z
			 M31.121,23.979c-0.414,0.41-2.164,2.215-2.639,2.68c-1.228,1.205-1.801,1.77-2.07,2.082l-0.006-0.004
			c-0.188,0.168-0.385,0.32-0.586,0.467c-1.584,1.072-3.557,1.713-5.695,1.713c-2.158,0-4.146-0.65-5.736-1.738h-0.01
			c-1.377-0.838-2.99-1.354-4.586-1.197c0.064-1.102,0.115-2.309,0.115-3.346c0-1.443-0.1-3.211-0.191-4.57
			c1.213-0.274,2.51-0.426,3.857-0.426c4.117,0,7.76,1.361,9.992,3.494c0.262,0.293,0.428,0.678,0.428,1.102
			c0,0.914-0.744,1.658-1.658,1.658c-0.033,0-0.066-0.01-0.102-0.012L22.23,25.9c-0.853-0.03-2.188-0.387-4.443-1.25l-0.512,1.343
			c2.383,0.907,3.952,1.317,5.066,1.344v-0.01c1.394-0.002,2.572-0.933,2.955-2.201v0.002c0.483-0.801,2.287-2.469,3.313-3.381
			v0.002c0.011-0.013,0.021-0.021,0.029-0.029c0.189-0.168,0.354-0.312,0.471-0.413c0.216-0.138,0.441-0.195,0.798-0.195
			c0.913,0,1.657,0.744,1.657,1.658C31.566,23.227,31.363,23.657,31.121,23.979z"/>
		<path fill="#231F20" d="M20.129,7.874c0,0,1.389,0.33,2.752,0.33c1.361,0,2.256-0.193,2.256-0.193
			c0.791-0.389,2.57-4.49,1.527-5.936c-1.166-1.613-3.115,1.893-4.014,1.533c-0.896-0.359-2.808-2.229-4.07-1.467
			C17.484,2.804,19.266,7.233,20.129,7.874z"/>
	</g>
</g>
</svg>
