<?xml version="1.0" encoding="utf-8"?>
<!-- Generator: Adobe Illustrator 16.0.4, SVG Export Plug-In . SVG Version: 6.00 Build 0)  -->
<!DOCTYPE svg PUBLIC "-//W3C//DTD SVG 1.1//EN" "http://www.w3.org/Graphics/SVG/1.1/DTD/svg11.dtd">
<svg version="1.1" id="Capa_1" xmlns="http://www.w3.org/2000/svg" xmlns:xlink="http://www.w3.org/1999/xlink" x="0px" y="0px"
	 width="34px" height="34px" viewBox="0 0 34 34" enable-background="new 0 0 34 34" xml:space="preserve">
<g id="money_4">
	<g>
		<path fill="#231F20" d="M33,23.325c0-1.705-1.387-3.093-3.092-3.093c-0.637,0-1.227,0.199-1.717,0.529h-0.002
			c0,0.002-0.002,0.002-0.002,0.004c-0.207,0.142-0.398,0.301-0.566,0.486l0.008,0.008c-0.641,0.576-1.666,1.543-2.41,2.422
			c-0.16-0.412-0.404-0.787-0.717-1.092c-3.053-2.688-6.723-3.781-10.93-3.781c-1.377,0-2.705,0.15-3.961,0.424
			c-0.037-0.457-0.063-0.735-0.063-0.735H1.359c0,0-0.359,2.998-0.359,6.694c0,3.697,0.359,6.695,0.359,6.695h8.189
			c0,0,0.072-0.781,0.15-1.893c1.219-0.205,2.465,0.117,3.908,1.012c1.828,1.195,4.08,1.902,6.518,1.902
			c2.472,0,4.594-0.729,6.36-1.955l0.002,0.002c0.019-0.014,0.041-0.031,0.068-0.051c0.5-0.353,0.973-0.742,1.414-1.168
			c0.346-0.354,0.814-0.807,1.518-1.496c2.361-2.32,2.652-2.781,2.652-2.781s-0.006,0.002-0.008,0.002
			C32.668,24.907,33,24.157,33,23.325z M31.121,24.538c-0.414,0.41-2.166,2.215-2.639,2.678c-1.228,1.207-1.801,1.771-2.072,2.084
			l-0.004-0.006c-0.188,0.168-0.385,0.322-0.586,0.47c-1.584,1.071-3.557,1.711-5.695,1.711c-2.158,0-4.146-0.648-5.736-1.736
			h-0.012c-1.375-0.84-2.988-1.354-4.584-1.197c0.063-1.102,0.115-2.311,0.115-3.348c0-1.441-0.1-3.211-0.193-4.568
			c1.215-0.275,2.512-0.428,3.857-0.428c4.12,0,7.762,1.363,9.995,3.496c0.262,0.293,0.428,0.678,0.428,1.1
			c0,0.916-0.744,1.658-1.658,1.658c-0.035,0-0.068-0.008-0.102-0.01l-0.004,0.02c-0.854-0.031-2.188-0.389-4.443-1.25l-0.512,1.34
			c2.383,0.91,3.952,1.318,5.066,1.346v-0.01c1.394-0.004,2.572-0.932,2.955-2.201v0.002c0.483-0.801,2.287-2.471,3.313-3.383
			l0.002,0.002c0.01-0.01,0.02-0.018,0.027-0.026c0.19-0.171,0.354-0.313,0.473-0.416c0.215-0.136,0.44-0.193,0.797-0.193
			c0.914,0,1.656,0.744,1.656,1.656C31.564,23.784,31.363,24.218,31.121,24.538z"/>
		<path fill="#231F20" d="M22.973,19.609c5.105,0,9.26-4.153,9.26-9.259s-4.153-9.26-9.26-9.26s-9.26,4.154-9.26,9.26
			S17.865,19.609,22.973,19.609z M22.973,2.704c4.215,0,7.646,3.432,7.646,7.646c0,4.214-3.431,7.646-7.646,7.646
			c-4.217,0-7.646-3.432-7.646-7.646C15.327,6.136,18.756,2.704,22.973,2.704z"/>
		<path fill="#231F20" d="M20.545,10.038c0.197,0.23,0.48,0.441,0.848,0.637c0.365,0.193,0.855,0.338,1.467,0.43
			c0.173,0.029,0.347,0.066,0.521,0.115c0.178,0.045,0.338,0.109,0.486,0.188c0.146,0.08,0.268,0.176,0.361,0.287
			c0.094,0.109,0.141,0.242,0.141,0.393c0,0.18-0.09,0.324-0.27,0.438c-0.183,0.111-0.406,0.166-0.681,0.166
			c-0.209,0-0.396-0.016-0.558-0.049c-0.159-0.031-0.309-0.082-0.44-0.15c-0.132-0.068-0.262-0.154-0.389-0.26
			c-0.125-0.104-0.253-0.227-0.384-0.371h-1.51v2.266h1.51V13.79c0.072,0.037,0.146,0.072,0.224,0.104
			c0.073,0.033,0.151,0.066,0.229,0.102v0.885h1.51V14.2c0.324-0.021,0.625-0.09,0.9-0.205c0.277-0.113,0.518-0.266,0.719-0.453
			c0.201-0.186,0.359-0.404,0.474-0.652c0.116-0.248,0.174-0.516,0.174-0.803c0-0.15-0.026-0.346-0.082-0.588
			c-0.053-0.24-0.178-0.486-0.371-0.734c-0.192-0.248-0.477-0.477-0.846-0.689c-0.371-0.213-0.869-0.365-1.494-0.459
			c-1.008-0.15-1.51-0.459-1.51-0.926c0-0.166,0.079-0.32,0.241-0.465c0.162-0.143,0.396-0.215,0.695-0.215
			c0.209,0,0.391,0.018,0.545,0.053c0.154,0.037,0.297,0.09,0.426,0.156c0.129,0.068,0.252,0.154,0.367,0.26
			c0.115,0.104,0.232,0.225,0.355,0.361h1.52V6.575h-1.508v0.324c-0.18-0.109-0.383-0.195-0.605-0.26v-0.82h-1.51v0.713
			c-0.295,0.043-0.565,0.129-0.813,0.254s-0.463,0.283-0.646,0.475c-0.185,0.189-0.326,0.408-0.427,0.652
			c-0.103,0.244-0.151,0.502-0.151,0.777c0,0.186,0.031,0.4,0.092,0.641C20.219,9.571,20.348,9.808,20.545,10.038z"/>
	</g>
</g>
</svg>
