<?xml version="1.0" encoding="utf-8"?>
<!-- Generator: Adobe Illustrator 16.0.4, SVG Export Plug-In . SVG Version: 6.00 Build 0)  -->
<!DOCTYPE svg PUBLIC "-//W3C//DTD SVG 1.1//EN" "http://www.w3.org/Graphics/SVG/1.1/DTD/svg11.dtd">
<svg version="1.1" id="Capa_1" xmlns="http://www.w3.org/2000/svg" xmlns:xlink="http://www.w3.org/1999/xlink" x="0px" y="0px"
	 width="34px" height="34px" viewBox="0 0 34 34" enable-background="new 0 0 34 34" xml:space="preserve">
<g id="chart">
	<path fill="#231F20" d="M19.592,3.839c-7.02,0-12.621,3.021-13.375,7.029l-5.154-0.131v13.318c-0.002,0.004-0.006,0.01-0.008,0.014
		c1.789,2.632,5.475,5.371,11.508,6.093l3.225-2.269v-0.008c1.441,0.305,2.996,0.477,4.637,0.477c5.834,0,10.728-2.092,12.632-5.1
		V11.794C33.055,7.333,27.141,3.839,19.592,3.839z M19.592,5.485c6.404,0,11.816,2.889,11.816,6.309
		c0,3.418-5.412,6.308-11.816,6.308c-1.164,0-2.293-0.099-3.363-0.273l4.626-6.551l0.037-0.037L7.904,10.911
		C8.736,7.892,13.746,5.485,19.592,5.485z M11.117,17.775c-4.043-0.737-6.836-2.645-7.402-4.911l12.191,0.312L11.117,17.775z
		 M3.121,23.62v-7.602c1.525,1.766,4.086,3.107,7.365,3.742v8.043C6.883,26.941,4.449,25.266,3.121,23.62z M31.408,22.686
		c-1.754,2.334-6.076,4.03-10.984,4.03c-1.637,0-3.205-0.192-4.637-0.53v-6.754c1.203,0.202,2.477,0.315,3.805,0.315
		c5.156,0,9.549-1.631,11.816-4.086V22.686z"/>
</g>
</svg>
