<?xml version="1.0" encoding="utf-8"?>
<!-- Generator: Adobe Illustrator 16.0.4, SVG Export Plug-In . SVG Version: 6.00 Build 0)  -->
<!DOCTYPE svg PUBLIC "-//W3C//DTD SVG 1.1//EN" "http://www.w3.org/Graphics/SVG/1.1/DTD/svg11.dtd">
<svg version="1.1" id="Capa_1" xmlns="http://www.w3.org/2000/svg" xmlns:xlink="http://www.w3.org/1999/xlink" x="0px" y="0px"
	 width="34px" height="34px" viewBox="0 0 34 34" enable-background="new 0 0 34 34" xml:space="preserve">
<path fill="#231F20" d="M27.459,15.75c0.1,0.82,0.16,1.701,0.16,2.631c0,5.307-1.932,8.988-2.014,9.143L25.4,27.906H3.759
	l-0.215-0.33c-0.082-0.129-2.045-3.221-2.045-9.193c0-5.97,1.963-9.064,2.045-9.193l0.215-0.33h21.64l0.207,0.385
	c0.021,0.037,0.158,0.295,0.349,0.744l-1.104,1.137c-0.132-0.341-0.248-0.619-0.338-0.818H4.577c-0.459,0.9-1.631,3.631-1.631,8.076
	c0,4.476,1.168,7.183,1.629,8.076h19.934c0.468-1.037,1.662-4.09,1.662-8.076c0-0.44-0.017-0.87-0.041-1.289L27.459,15.75z
	 M22.032,22.141H11.294v1.379h10.738V22.141z M18.536,21.057l0.84-0.187l-0.653-0.654L18.536,21.057z M21.641,20.366l-2.416-2.414
	l-0.442,1.996l0.862,0.862L21.641,20.366z M22.205,19.799L33.5,8.507l-2.414-2.415L19.791,17.383L22.205,19.799z M17.557,12.958
	H5.685v1.045h11.872V12.958z M5.685,19.087h8.027v-1.045H5.685V19.087z M5.685,16.622h9.809v-1.045H5.685V16.622z"/>
</svg>
