<?xml version="1.0" encoding="utf-8"?>
<!-- Generator: Adobe Illustrator 16.0.4, SVG Export Plug-In . SVG Version: 6.00 Build 0)  -->
<!DOCTYPE svg PUBLIC "-//W3C//DTD SVG 1.1//EN" "http://www.w3.org/Graphics/SVG/1.1/DTD/svg11.dtd">
<svg version="1.1" id="Capa_1" xmlns="http://www.w3.org/2000/svg" xmlns:xlink="http://www.w3.org/1999/xlink" x="0px" y="0px"
	 width="34px" height="34px" viewBox="0 0 34 34" enable-background="new 0 0 34 34" xml:space="preserve">
<g id="safe_box">
	<g>
		<path fill="#231F20" d="M33,12.159c0-1.504-0.221-2.523-0.221-2.523h-1.947c-0.238-1.971-0.498-3.15-0.518-3.24l-0.168-0.744
			H1.854L1.75,6.487C1.719,6.731,1,12.53,1,16.753c0,4.24,0.723,8.994,0.752,9.195l0.125,0.811h1.279
			c0,0.74,0.182,1.589,0.182,1.589h6.559c0,0,0.211-0.591,0.219-1.589H21.71c0,0.74,0.185,1.591,0.185,1.591h6.557
			c0,0,0.211-0.593,0.219-1.591h1.455l0.184-0.717c0.021-0.082,0.316-1.248,0.568-3.322h1.596c0,0,0.221-0.889,0.221-2.393
			c0-1.507-0.221-2.522-0.221-2.522h-1.254c0.01-0.437,0.018-0.882,0.018-1.349c0-0.66-0.012-1.293-0.03-1.902h1.576
			C32.779,14.554,33,13.665,33,12.159z M29.324,16.456c0,0.467-0.006,0.912-0.018,1.349h-3.396c0,0-0.185,1.52-0.185,2.598
			c0,1.08,0.185,2.317,0.185,2.317h3.034c-0.116,0.929-0.241,1.646-0.336,2.13H3.527c-0.205-1.541-0.617-5.013-0.617-8.097
			c0-3.18,0.436-7.418,0.637-9.193h25.049c0.086,0.482,0.199,1.188,0.312,2.076h-2.687c0,0-0.182,1.521-0.182,2.6
			c0,1.078,0.182,2.318,0.182,2.318h3.07C29.312,15.163,29.324,15.796,29.324,16.456z"/>
		<path fill="#231F20" d="M15.994,9.776c-0.357-0.061-0.721-0.092-1.082-0.092c-3.193,0-5.895,2.289-6.424,5.443
			c-0.592,3.545,1.809,6.912,5.354,7.506c0.357,0.059,0.721,0.09,1.082,0.09c3.193,0,5.896-2.289,6.424-5.442
			C21.941,13.735,19.539,10.368,15.994,9.776z M17.922,12.263c0.215-0.215,0.561-0.215,0.773,0c0.215,0.215,0.213,0.561,0,0.773
			l-0.853,0.85c-0.227-0.287-0.496-0.541-0.797-0.75L17.922,12.263z M10.977,12.255c0.215-0.213,0.561-0.213,0.773,0l0.947,0.951
			c-0.295,0.217-0.555,0.479-0.773,0.771l-0.949-0.947C10.762,12.813,10.762,12.47,10.977,12.255z M9.922,16.661
			c-0.303,0-0.549-0.246-0.547-0.547c0-0.303,0.244-0.549,0.547-0.549l0,0l1.318,0.002c-0.037,0.207-0.059,0.42-0.059,0.639
			c0,0.154,0.012,0.307,0.031,0.457L9.922,16.661z M11.742,19.977c-0.105,0.104-0.246,0.159-0.385,0.159
			c-0.141,0-0.281-0.055-0.389-0.161c-0.213-0.214-0.213-0.56,0.002-0.773l0.873-0.873c0.211,0.303,0.463,0.57,0.75,0.799
			L11.742,19.977z M15.375,21.03c0,0.301-0.246,0.547-0.547,0.547h-0.002c-0.301,0-0.547-0.246-0.547-0.55l0.002-1.145
			c0.207,0.035,0.42,0.057,0.637,0.057c0.154,0,0.307-0.012,0.457-0.028V21.03z M14.906,18.97c-1.539,0-2.785-1.245-2.785-2.783
			c0-1.143,0.689-2.127,1.674-2.555c0.34-0.148,1.111-1.752,1.111-1.752s0.701,1.588,1.018,1.713
			c1.035,0.406,1.768,1.414,1.768,2.594C17.691,17.725,16.443,18.97,14.906,18.97z M18.688,19.98
			c-0.106,0.107-0.246,0.16-0.387,0.16s-0.279-0.053-0.387-0.16l-0.775-0.774c0.295-0.222,0.556-0.479,0.775-0.774l0.775,0.776
			C18.902,19.421,18.902,19.77,18.688,19.98z M20.291,16.124c0,0.301-0.246,0.547-0.547,0.547h-0.002l-1.119-0.002
			c0.02-0.152,0.031-0.307,0.031-0.463c0-0.217-0.021-0.426-0.057-0.633l1.146,0.002C20.047,15.577,20.291,15.821,20.291,16.124z"/>
	</g>
</g>
</svg>
