<?xml version="1.0" encoding="utf-8"?>
<!-- Generator: Adobe Illustrator 16.0.4, SVG Export Plug-In . SVG Version: 6.00 Build 0)  -->
<!DOCTYPE svg PUBLIC "-//W3C//DTD SVG 1.1//EN" "http://www.w3.org/Graphics/SVG/1.1/DTD/svg11.dtd">
<svg version="1.1" id="Capa_1" xmlns="http://www.w3.org/2000/svg" xmlns:xlink="http://www.w3.org/1999/xlink" x="0px" y="0px"
	 width="34px" height="34px" viewBox="0 0 34 34" enable-background="new 0 0 34 34" xml:space="preserve">
<g id="wallet">
	<g>
		<path fill="#231F20" d="M32.484,14.278l-0.213-0.42h-1.9c-0.365-2.504-0.816-4.354-0.848-4.482l-0.201-0.814h-2.713l-3.08-6.43
			l-11.135,6.43H3.493L3.261,9.317C3.188,9.551,1.5,15.092,1.5,19.77c0,4.681,1.69,10.088,1.763,10.314l0.236,0.748h25.823
			l0.201-0.812c0.035-0.144,0.576-2.365,0.953-5.254h-2.164c-0.229,1.666-0.506,3.086-0.687,3.926H5.087
			c-0.451-1.613-1.445-5.549-1.445-8.922c0-3.387,1-7.419,1.45-9.065h22.535c0.15,0.707,0.371,1.826,0.574,3.154h-9.486
			l-0.186,0.498c-0.041,0.109-1.01,2.717-1.01,4.949c0,2.229,0.969,4.838,1.01,4.947l0.186,0.498h13.557l0.213-0.419
			c0.041-0.082,1.017-2.037,1.017-5.024C33.5,16.315,32.525,14.36,32.484,14.278z M31.289,23.213h-11.49
			c-0.264-0.816-0.742-2.492-0.742-3.908c0-1.418,0.479-3.094,0.742-3.91h11.49c0.248,0.662,0.672,2.063,0.672,3.91
			C31.961,21.15,31.537,22.551,31.289,23.213z"/>
		<circle fill="#231F20" cx="23.115" cy="19.304" r="2.034"/>
	</g>
</g>
</svg>
