<?xml version="1.0" encoding="utf-8"?>
<!-- Generator: Adobe Illustrator 16.0.4, SVG Export Plug-In . SVG Version: 6.00 Build 0)  -->
<!DOCTYPE svg PUBLIC "-//W3C//DTD SVG 1.1//EN" "http://www.w3.org/Graphics/SVG/1.1/DTD/svg11.dtd">
<svg version="1.1" id="Layer_1" xmlns="http://www.w3.org/2000/svg" xmlns:xlink="http://www.w3.org/1999/xlink" x="0px" y="0px"
	 width="32px" height="32px" viewBox="0 0 32 32" enable-background="new 0 0 32 32" xml:space="preserve">
<g>
	<path fill="#282828" d="M6.779,7.115H6.018c-0.422,0-0.764,0.342-0.764,0.763h1.499h1.401h1.582c0-0.421-0.342-0.763-0.764-0.763
		H8.115V6.448h2.369c0.587,0,1.063-0.476,1.063-1.063V2.169c0-0.587-0.476-1.063-1.063-1.063H4.409
		c-0.587,0-1.063,0.476-1.063,1.063v3.216c0,0.587,0.476,1.063,1.063,1.063h2.37V7.115z"/>
	<path fill="#282828" d="M17.003,7.115H16.24c-0.421,0-0.763,0.342-0.763,0.763h1.5h1.4h1.582c0-0.421-0.342-0.763-0.764-0.763
		h-0.857V6.448h2.369c0.587,0,1.062-0.476,1.062-1.063V2.169c0-0.587-0.476-1.063-1.062-1.063h-6.075
		c-0.587,0-1.063,0.476-1.063,1.063v3.216c0,0.587,0.476,1.063,1.063,1.063h2.37L17.003,7.115L17.003,7.115z"/>
	<path fill="#282828" d="M27.227,7.115h-0.762c-0.422,0-0.764,0.342-0.764,0.763H27.2h1.401h1.582c0-0.421-0.343-0.763-0.765-0.763
		h-0.856V6.448h2.369c0.586,0,1.062-0.476,1.062-1.063V2.169c0-0.587-0.477-1.063-1.062-1.063h-6.076
		c-0.586,0-1.062,0.476-1.062,1.063v3.216c0,0.587,0.477,1.063,1.062,1.063h2.371V7.115L27.227,7.115z"/>
	<path fill="#282828" d="M10.682,9.376c-0.087,0.263,0.058,0.547,0.32,0.633l11.299,3.705c0.002,0,0.004,0,0.004,0
		c0.023,0.008,0.049,0.014,0.073,0.018h0.002c0.024,0.004,0.052,0.006,0.078,0.006c0.021,0,0.04-0.001,0.062-0.003
		c0.004,0,0.01-0.002,0.017-0.003c0.014-0.002,0.028-0.004,0.042-0.008c0.006-0.001,0.012-0.003,0.018-0.005
		c0.014-0.004,0.026-0.008,0.039-0.012c0.006-0.002,0.012-0.005,0.016-0.007c0.015-0.005,0.026-0.011,0.041-0.017
		c0.004-0.003,0.011-0.006,0.016-0.01c0.012-0.007,0.023-0.014,0.035-0.021c0.006-0.004,0.012-0.009,0.018-0.013
		c0.01-0.008,0.021-0.015,0.03-0.024c0.006-0.005,0.013-0.012,0.019-0.018c0.008-0.008,0.018-0.016,0.024-0.024
		c0.007-0.007,0.013-0.015,0.019-0.023c0.006-0.007,0.012-0.012,0.017-0.019l2.655-3.705c0.164-0.226,0.11-0.539-0.114-0.7
		c-0.224-0.163-0.537-0.111-0.7,0.115l-2.281,3.183l-2.729-3.215c-0.18-0.211-0.495-0.236-0.707-0.058
		c-0.213,0.179-0.237,0.496-0.059,0.708l1.993,2.35l-9.609-3.151C11.054,8.969,10.768,9.113,10.682,9.376z"/>
	<circle fill="#282828" cx="8.562" cy="15.667" r="4.409"/>
	<path fill="#282828" d="M22.605,24.523c-0.654-0.735-1.78-0.803-2.52-0.147l-3.506,3.113l-4.373-5.375l-3.646,4.753l-3.696-5.083
		c-1.758,1.21-4.169,4.041-4.83,10.536h3.562c0.105-1,0.271-1.903,0.558-2.668v2.668h8.923v-3.541l1.935,2.408
		c0.308,0.379,0.743,0.614,1.229,0.653c0.049,0.005,0.091,0.007,0.139,0.007c0.434,0,0.854-0.16,1.184-0.451l4.896-4.354
		C23.197,26.391,23.262,25.262,22.605,24.523z"/>
	<path fill="#282828" d="M10.726,20.555l-1.045,0.439c-0.215-0.37-0.61-0.619-1.067-0.619c-0.453,0-0.847,0.247-1.063,0.609
		l-1.047-0.448c-0.152-0.065-0.337-0.05-0.477,0.042c-0.139,0.092-0.232,0.247-0.232,0.413v1.303c0,0.157,0.084,0.304,0.211,0.397
		c0.126,0.094,0.294,0.121,0.442,0.076c0.411-0.125,0.922-0.281,1.212-0.369c0.227,0.273,0.567,0.453,0.951,0.453
		c0.372,0,0.703-0.168,0.931-0.429c0.295,0.091,0.815,0.246,1.232,0.372c0.149,0.045,0.323,0.018,0.449-0.077
		c0.125-0.093,0.211-0.239,0.211-0.396V21.01c0-0.166-0.095-0.32-0.232-0.412C11.064,20.505,10.877,20.489,10.726,20.555z"/>
	<polygon fill="#282828" points="17.645,25.113 16.026,25.113 16.706,25.945 	"/>
	<path fill="#282828" d="M30.82,26.611c0.647,0,1.174-0.524,1.174-1.172V15.363c0-0.648-0.525-1.173-1.174-1.173H13.838
		c0.132,0.47,0.205,0.964,0.205,1.476c0,1.15-0.358,2.218-0.966,3.102v2.717l1.499,1.844v-7.639h15.919v9.422h-6.433
		c0.209,0.975-0.099,2.029-0.894,2.734l-2.226,1.979h3.22h3.548v-0.481c0-0.641-0.52-1.161-1.161-1.161h-2.407v-0.613
		c0-0.528,0.428-0.957,0.955-0.957H30.82L30.82,26.611z"/>
</g>
</svg>
