<?xml version="1.0" encoding="utf-8"?>
<!-- Generator: Adobe Illustrator 16.0.4, SVG Export Plug-In . SVG Version: 6.00 Build 0)  -->
<!DOCTYPE svg PUBLIC "-//W3C//DTD SVG 1.1//EN" "http://www.w3.org/Graphics/SVG/1.1/DTD/svg11.dtd">
<svg version="1.1" id="Layer_1" xmlns="http://www.w3.org/2000/svg" xmlns:xlink="http://www.w3.org/1999/xlink" x="0px" y="0px"
	 width="32px" height="32px" viewBox="0 0 32 32" enable-background="new 0 0 32 32" xml:space="preserve">
<g>
	<path fill="#282828" d="M30.961,18.455h-8.607c-0.556,0-1.006,0.48-1.006,1.037v6.716c0,0.556,0.451,1.006,1.006,1.006h3.244v1.16
		h-1.224c-0.504,0-0.901,0.385-0.901,0.89v0.59h5.989v-0.59c0-0.505-0.392-0.89-0.896-0.89h-1.101v-1.16h3.495
		c0.557,0,1.014-0.45,1.014-1.006v-6.716C31.975,18.936,31.518,18.455,30.961,18.455z M30.494,25.668h-7.665v-5.667h7.665V25.668z"
		/>
	<path fill="#282828" d="M6.797,19.1H1.331c-0.378,0-0.721,0.32-0.721,0.7v9.566c0,0.379,0.343,0.682,0.721,0.682h0.018H6.78h0.017
		c0.379,0,0.705-0.303,0.705-0.682V19.8C7.501,19.42,7.176,19.1,6.797,19.1z M6.148,27.277H2.027v-6.826h4.122L6.148,27.277
		L6.148,27.277z"/>
	<circle fill="#282828" cx="14.351" cy="4.683" r="4.018"/>
	<path fill="#282828" d="M12.589,14.244c0-0.375,0.104-0.727,0.284-1.025l-1.75-2.411c-0.903,0.62-1.992,1.786-2.882,3.718h4.349
		L12.589,14.244L12.589,14.244z"/>
	<path fill="#282828" d="M16.053,12.889c0.328,0.357,0.529,0.833,0.529,1.355v0.281h3.863c-0.889-1.932-1.979-3.098-2.881-3.718
		L16.053,12.889z"/>
	<path fill="#282828" d="M16.741,11.108c0.116-0.086,0.163-0.22,0.163-0.361V9.55c0-0.149-0.057-0.291-0.18-0.374
		c-0.129-0.083-0.267-0.098-0.404-0.039l-0.95,0.398c-0.198-0.336-0.557-0.563-0.973-0.563c-0.415,0-0.773,0.227-0.969,0.557
		l-0.955-0.407c-0.136-0.061-0.313-0.045-0.438,0.037c-0.127,0.085-0.218,0.226-0.218,0.377v1.187c0,0.143,0.083,0.277,0.199,0.361
		c0.114,0.086,0.271,0.11,0.408,0.069c0.373-0.114,0.838-0.254,1.103-0.336c0.206,0.25,0.518,0.412,0.87,0.412
		c0.336,0,0.639-0.151,0.847-0.389c0.271,0.081,0.739,0.226,1.122,0.337C16.499,11.219,16.63,11.193,16.741,11.108z"/>
	<path fill="#282828" d="M20.406,23.768l-2.654-2.111c0.158-0.396,0.258-0.826,0.258-1.278c0-1.538-1.041-2.841-2.394-3.28v-2.853
		c0-0.571-0.46-1.033-1.03-1.033c-0.57,0-1.03,0.462-1.03,1.033v2.853c-1.417,0.438-2.418,1.74-2.418,3.28
		c0,0.427,0.071,0.834,0.212,1.209L8.5,23.754C8.046,24.1,7.957,24.746,8.301,25.2c0.204,0.267,0.511,0.407,0.822,0.407
		c0.218,0,0.437-0.069,0.624-0.213l2.872-2.185c0.552,0.38,1.222,0.604,1.943,0.604c0.695,0,1.342-0.209,1.883-0.563l2.677,2.131
		c0.19,0.151,0.417,0.226,0.642,0.226c0.305,0,0.604-0.133,0.81-0.39C20.926,24.771,20.852,24.123,20.406,23.768z"/>
</g>
</svg>
