<?xml version="1.0" encoding="utf-8"?>
<!-- Generator: Adobe Illustrator 16.0.4, SVG Export Plug-In . SVG Version: 6.00 Build 0)  -->
<!DOCTYPE svg PUBLIC "-//W3C//DTD SVG 1.1//EN" "http://www.w3.org/Graphics/SVG/1.1/DTD/svg11.dtd">
<svg version="1.1" id="Layer_1" xmlns="http://www.w3.org/2000/svg" xmlns:xlink="http://www.w3.org/1999/xlink" x="0px" y="0px"
	 width="32px" height="32px" viewBox="0 0 32 32" enable-background="new 0 0 32 32" xml:space="preserve">
<g>
	<path fill="#282828" d="M16.689,10.53c0.078,0,0.156-0.026,0.231-0.052c2.433-0.836,2.621-2.809,2.621-3.391
		c0-1.587-1.333-2.886-2.909-2.833c-0.925-1.466-2.815-2.198-4.507-1.626c-0.871-1.056-2.154-1.672-3.537-1.672
		c-1.938,0-3.629,1.206-4.295,2.967c-0.255-0.067-0.517-0.1-0.783-0.1c-1.843,0-3.522,1.609-3.522,3.377
		c0,0.569,0.165,2.484,2.286,3.247c0.077,0.028,0.158,0.056,0.24,0.056L16.689,10.53L16.689,10.53z M2.648,9.065
		c-1.072-0.44-1.235-1.351-1.235-1.867c-0.001-1.272,1.713-2.44,3-1.704C4.614,5.609,4.858,5.62,5.068,5.521
		c0.209-0.098,0.358-0.292,0.398-0.52c0.27-1.52,1.583-2.623,3.122-2.623c1.095,0,2.101,0.561,2.689,1.501
		c0.197,0.313,0.601,0.424,0.93,0.254C13.51,3.46,15.03,4.072,15.59,5.31c0.14,0.309,0.48,0.477,0.807,0.4
		c0.115-0.026,0.216-0.039,0.312-0.039c0.777,0,1.408,0.631,1.408,1.407c0,0.535-0.205,1.491-1.553,2L2.648,9.065z"/>
	<circle fill="#282828" cx="22.409" cy="15.26" r="5.399"/>
	<path fill="#282828" d="M26.779,23.109l-4.491,6.191L18.07,23.5c-1.686,1.158-3.859,3.712-5.115,8.5H32
		C30.762,26.936,28.512,24.299,26.779,23.109z"/>
	<path fill="#282828" d="M25.055,21.243l-1.275,0.538c-0.264-0.452-0.747-0.758-1.307-0.758c-0.559,0-1.039,0.304-1.302,0.748
		l-1.282-0.547c-0.185-0.082-0.41-0.062-0.58,0.049c-0.17,0.112-0.283,0.302-0.283,0.504v1.596c0,0.193,0.103,0.373,0.258,0.486
		c0.152,0.115,0.359,0.147,0.543,0.093c0.501-0.154,1.125-0.341,1.48-0.452c0.277,0.336,0.695,0.555,1.166,0.555
		c0.452,0,0.859-0.205,1.139-0.522c0.361,0.11,0.994,0.302,1.507,0.454c0.181,0.055,0.383,0.021,0.532-0.096
		c0.156-0.113,0.244-0.293,0.244-0.484V21.8c0-0.202-0.102-0.393-0.269-0.503C25.454,21.186,25.24,21.166,25.055,21.243z"/>
	<path fill="#282828" d="M24.305,7c0,0,1.617-0.583,2.506,0.631c0.225,0.309,0.393,0.627,0.518,0.932
		c0.089,0.215,0.309,0.348,0.54,0.326s0.422-0.192,0.47-0.421c0.18-0.869,0.202-1.947-0.336-2.957
		c-1.171-2.198-3.506-2.728-3.506-2.728l0.041-0.903c0.006-0.126-0.062-0.245-0.176-0.302c-0.113-0.057-0.25-0.043-0.348,0.037
		L21.26,3.831c-0.199,0.161-0.326,0.396-0.352,0.651s0.054,0.51,0.219,0.707l2.562,3.051c0.084,0.102,0.224,0.141,0.35,0.098
		s0.212-0.158,0.219-0.291L24.305,7z"/>
	<path fill="#282828" d="M12.119,13.447c-0.092-0.096-0.233-0.125-0.356-0.075c-0.123,0.051-0.202,0.172-0.199,0.305l0.021,1.047
		c0,0-1.577,0.688-2.542-0.466c-0.245-0.292-0.433-0.6-0.577-0.895c-0.103-0.209-0.33-0.327-0.56-0.29
		c-0.23,0.037-0.409,0.22-0.441,0.451c-0.123,0.879-0.073,1.955,0.529,2.927c1.312,2.117,3.677,2.492,3.677,2.492l0.018,0.904
		c0.003,0.125,0.079,0.239,0.196,0.289c0.117,0.051,0.251,0.027,0.345-0.059l2.602-2.391c0.189-0.174,0.3-0.418,0.309-0.674
		c0.008-0.256-0.087-0.506-0.265-0.69L12.119,13.447z"/>
</g>
</svg>
