<?xml version="1.0" encoding="utf-8"?>
<!-- Generator: Adobe Illustrator 16.0.4, SVG Export Plug-In . SVG Version: 6.00 Build 0)  -->
<!DOCTYPE svg PUBLIC "-//W3C//DTD SVG 1.1//EN" "http://www.w3.org/Graphics/SVG/1.1/DTD/svg11.dtd">
<svg version="1.1" id="Layer_1" xmlns="http://www.w3.org/2000/svg" xmlns:xlink="http://www.w3.org/1999/xlink" x="0px" y="0px"
	 width="32px" height="32px" viewBox="0 0 32 32" enable-background="new 0 0 32 32" xml:space="preserve">
<g>
	<path fill="#282828" d="M6.808,6.665c1.815,0,3.285-1.471,3.285-3.285c0-1.817-1.47-3.286-3.285-3.286
		c-1.816,0-3.286,1.469-3.286,3.286C3.522,5.194,4.992,6.665,6.808,6.665z"/>
	<path fill="#282828" d="M17.165,11.857c0.549-0.486,0.597-1.328,0.108-1.879c-0.488-0.549-1.329-0.598-1.878-0.11l-2.612,2.32
		L9.525,8.183l-2.717,3.544L4.054,7.929C2.513,8.988,0.3,11.713,0.319,18.538c0.002,0.735,0.599,1.348,1.332,1.348h0.002
		c0.736,0,1.354-0.618,1.353-1.354C3,16.543,3.071,14.989,3.529,13.802V18.1c0,0.619,0.196,1.196,0.391,1.693v10.782
		c0,0.737,0.639,1.329,1.372,1.329c0.736,0,1.372-0.592,1.372-1.329v-9.159c0,0.005,0.127,0.011,0.198,0.011
		c0.067,0,0.194-0.006,0.194-0.011v9.159c0,0.737,0.637,1.329,1.371,1.329c0.735,0,1.373-0.592,1.373-1.329V19.793
		c0.195-0.495,0.391-1.074,0.391-1.693v-4.95l1.432,1.796c0.229,0.283,0.551,0.459,0.913,0.486c0.035,0.003,0.064,0.006,0.099,0.006
		c0.324,0,0.638-0.117,0.881-0.338L17.165,11.857z"/>
	<path fill="#282828" d="M8.419,7.021L7.64,7.351C7.48,7.073,7.188,6.888,6.847,6.888c-0.34,0-0.631,0.183-0.793,0.453l-0.78-0.332
		c-0.113-0.049-0.24-0.037-0.342,0.03C4.827,7.108,4.77,7.222,4.77,7.349v0.969c0,0.117,0.051,0.228,0.145,0.296
		C5.01,8.682,5.128,8.706,5.24,8.67c0.307-0.093,0.683-0.208,0.9-0.272C6.309,8.6,6.56,8.731,6.847,8.731
		c0.276,0,0.523-0.125,0.692-0.318c0.22,0.068,0.607,0.184,0.918,0.278c0.11,0.032,0.241,0.012,0.334-0.058
		c0.096-0.07,0.159-0.18,0.159-0.297V7.36c0-0.124-0.072-0.238-0.175-0.308C8.672,6.984,8.532,6.973,8.419,7.021z"/>
	<path fill="#282828" d="M15.102,0.161c-1.053,0-1.906,0.854-1.906,1.906v8.881l1.766-1.568c0.361-0.32,0.824-0.497,1.304-0.5V3.231
		h12.28v25.604h-12.28V13.53l-2.316,2.059c-0.217,0.197-0.476,0.339-0.753,0.422v13.988c0,1.053,0.854,1.905,1.906,1.905h14.672
		c1.053,0,1.906-0.854,1.906-1.905V2.067c0-1.053-0.854-1.906-1.906-1.906H15.102z"/>
	<path fill="#282828" d="M17.311,27.596H27.5v-6.729H17.311V27.596z M18.29,21.912h8.229v4.638H18.29V21.912z"/>
	<rect x="24.561" y="22.695" fill="#282828" width="0.979" height="3.07"/>
	<rect x="22.928" y="22.695" fill="#282828" width="1.045" height="3.07"/>
	<path fill="#282828" d="M20.335,22.552c-0.905,0-1.646,0.738-1.646,1.646c0,0.905,0.738,1.644,1.646,1.644s1.646-0.738,1.646-1.644
		C21.979,23.29,21.241,22.552,20.335,22.552z M20.335,24.816c-0.342,0-0.62-0.278-0.62-0.619c0-0.342,0.278-0.62,0.62-0.62
		c0.341,0,0.619,0.278,0.619,0.62C20.954,24.538,20.676,24.816,20.335,24.816z"/>
	<path fill="#282828" d="M27.5,12.701H17.311v6.729H27.5V12.701z M26.52,18.385H18.29v-4.704h8.229V18.385z"/>
	<rect x="24.561" y="14.466" fill="#282828" width="0.979" height="3.069"/>
	<rect x="22.928" y="14.466" fill="#282828" width="1.045" height="3.069"/>
	<path fill="#282828" d="M20.335,17.641c0.906,0,1.646-0.736,1.646-1.645c0-0.906-0.738-1.645-1.646-1.645s-1.646,0.738-1.646,1.645
		C18.689,16.902,19.43,17.641,20.335,17.641z M20.335,15.377c0.341,0,0.619,0.278,0.619,0.619c0,0.342-0.278,0.619-0.619,0.619
		c-0.342,0-0.62-0.277-0.62-0.619C19.715,15.655,19.993,15.377,20.335,15.377z"/>
	<path fill="#282828" d="M27.5,4.472H17.311v4.696c0.166,0.103,0.318,0.227,0.451,0.375c0.416,0.471,0.57,1.084,0.473,1.656H27.5
		V4.472z M26.52,10.156H18.29V5.519h8.229V10.156z"/>
	<rect x="24.561" y="6.3" fill="#282828" width="0.979" height="3.071"/>
	<rect x="22.928" y="6.3" fill="#282828" width="1.045" height="3.071"/>
	<path fill="#282828" d="M20.335,9.441c0.906,0,1.646-0.738,1.646-1.646c0-0.906-0.738-1.645-1.646-1.645s-1.646,0.74-1.646,1.646
		C18.689,8.703,19.43,9.441,20.335,9.441z M20.335,7.176c0.341,0,0.619,0.279,0.619,0.62c0,0.342-0.278,0.62-0.619,0.62
		c-0.342,0-0.62-0.278-0.62-0.62C19.715,7.455,19.993,7.176,20.335,7.176z"/>
</g>
</svg>
