<?xml version="1.0" encoding="utf-8"?>
<!-- Generator: Adobe Illustrator 16.0.4, SVG Export Plug-In . SVG Version: 6.00 Build 0)  -->
<!DOCTYPE svg PUBLIC "-//W3C//DTD SVG 1.1//EN" "http://www.w3.org/Graphics/SVG/1.1/DTD/svg11.dtd">
<svg version="1.1" id="Layer_1" xmlns="http://www.w3.org/2000/svg" xmlns:xlink="http://www.w3.org/1999/xlink" x="0px" y="0px"
	 width="32px" height="32px" viewBox="0 0 32 32" enable-background="new 0 0 32 32" xml:space="preserve">
<g>
	<path fill="#282828" d="M26.9,19.227c0-0.563-0.457-1.021-1.021-1.021h-1.225v-1.02h3.761c0.627,0,1.136-0.51,1.136-1.137v-7.52
		c0-0.627-0.509-1.136-1.136-1.136h-9.354c-0.627,0-1.137,0.509-1.137,1.136v7.52c0,0.627,0.51,1.137,1.137,1.137h3.76v1.02h-1.223
		c-0.563,0-1.021,0.457-1.021,1.021h-4.37c-0.291,0-0.527,0.235-0.527,0.526v1.19c0,0.291,0.236,0.527,0.527,0.527h1.513v10.607
		h12.24V21.471h1.514c0.291,0,0.526-0.236,0.526-0.527v-1.19c0-0.291-0.235-0.526-0.526-0.526H26.9z M20.691,15.553
		c-0.627,0-1.135-0.509-1.135-1.136v-4.255c0-0.627,0.508-1.136,1.135-1.136h6.093c0.627,0,1.136,0.509,1.136,1.136v4.255
		c0,0.627-0.509,1.136-1.136,1.136H20.691z"/>
	<circle fill="#282828" cx="6.351" cy="4.103" r="3.216"/>
	<path fill="#282828" d="M16.596,10.563c-0.479-0.537-1.301-0.586-1.84-0.108l-2.557,2.271L9.01,8.806l-2.66,3.467L3.655,8.556
		C2.148,9.592-0.02,12.252,0,18.936c0.002,0.717,0.585,1.312,1.303,1.312c0.001,0,0.002,0,0.003,0c0.719,0,1.315-0.601,1.313-1.319
		c-0.006-1.945,0.095-3.46,0.503-4.623v4.207c0,0.606,0.204,1.172,0.408,1.657v10.554c0,0.721,0.606,1.303,1.326,1.303
		c0.72,0,1.327-0.582,1.327-1.303v-8.965c0,0.004,0.136,0.01,0.204,0.01c0.067,0,0.204-0.006,0.204-0.01v8.965
		c0,0.721,0.606,1.303,1.326,1.303c0.719,0,1.326-0.582,1.326-1.303V20.169c0.204-0.485,0.408-1.051,0.408-1.658v-4.844l1.407,1.757
		c0.224,0.276,0.54,0.448,0.895,0.476c0.034,0.004,0.064,0.005,0.099,0.005c0.316,0,0.623-0.116,0.862-0.329l3.572-3.176
		C17.025,11.925,17.072,11.101,16.596,10.563z"/>
	<path fill="#282828" d="M6.388,7.537c-0.332,0-0.618,0.18-0.775,0.446L4.85,7.655c-0.111-0.048-0.24-0.037-0.341,0.03
		c-0.101,0.067-0.162,0.18-0.162,0.301v0.95c0,0.114,0.054,0.222,0.146,0.29c0.092,0.068,0.211,0.088,0.32,0.055
		c0.299-0.091,0.67-0.205,0.881-0.269c0.166,0.2,0.413,0.33,0.693,0.33c0.271,0,0.512-0.123,0.678-0.312
		C7.281,9.096,7.66,9.21,7.963,9.302c0.109,0.033,0.228,0.012,0.319-0.056c0.092-0.068,0.146-0.176,0.146-0.29V8
		c0-0.121-0.061-0.234-0.161-0.3c-0.101-0.068-0.229-0.08-0.34-0.033L7.166,7.988C7.009,7.719,6.721,7.537,6.388,7.537z"/>
</g>
</svg>
