<?xml version="1.0" encoding="utf-8"?>
<!-- Generator: Adobe Illustrator 16.0.4, SVG Export Plug-In . SVG Version: 6.00 Build 0)  -->
<!DOCTYPE svg PUBLIC "-//W3C//DTD SVG 1.1//EN" "http://www.w3.org/Graphics/SVG/1.1/DTD/svg11.dtd">
<svg version="1.1" id="Layer_1" xmlns="http://www.w3.org/2000/svg" xmlns:xlink="http://www.w3.org/1999/xlink" x="0px" y="0px"
	 width="32px" height="32px" viewBox="0 0 32 32" enable-background="new 0 0 32 32" xml:space="preserve">
<g>
	<circle fill="#282828" cx="4.185" cy="6.335" r="2.156"/>
	<path fill="#282828" d="M7.508,17.312c0.481,0,0.874-0.402,0.874-0.886c0.013-4.48-1.44-6.271-2.45-6.965L4.137,11.94L2.452,9.617
		C1.441,10.313-0.013,12.088,0,16.568c0.002,0.481,0.393,0.871,0.875,0.871h0.002c0.482,0,0.87-0.395,0.869-0.875
		c-0.003-1.308,0.073-2.312,0.326-3.091v2.82c0,0.406,0.192,0.785,0.319,1.111v7.076c0,0.482,0.405,0.875,0.888,0.875
		c0.483,0,0.89-0.393,0.89-0.875l0.072-0.004c0,0.481,0.401,0.879,0.884,0.879c0.481,0,0.901-0.403,0.901-0.888v-7.219
		c0.129-0.326,0.319-0.705,0.319-1.111v-2.821c0.19,0.78,0.313,1.799,0.308,3.105c-0.001,0.482,0.372,0.891,0.853,0.891H7.508
		L7.508,17.312z"/>
	<path fill="#282828" d="M5.243,8.726L4.732,8.939C4.627,8.761,4.434,8.636,4.21,8.636c-0.223,0-0.415,0.122-0.521,0.301
		L3.176,8.716c-0.07-0.031-0.16-0.023-0.227,0.021c-0.067,0.045-0.111,0.12-0.111,0.2v0.639c0,0.076,0.039,0.148,0.1,0.194
		C3,9.815,3.081,9.829,3.153,9.807c0.201-0.061,0.45-0.135,0.591-0.181c0.11,0.135,0.278,0.223,0.466,0.223
		c0.181,0,0.343-0.083,0.455-0.209C4.81,9.683,5.061,9.76,5.266,9.82c0.072,0.022,0.155,0.01,0.216-0.036
		C5.544,9.737,5.58,9.665,5.58,9.59V8.947c0-0.081-0.043-0.157-0.108-0.201C5.403,8.7,5.315,8.692,5.243,8.726z"/>
	<circle fill="#282828" cx="16.109" cy="11.708" r="2.269"/>
	<path fill="#282828" d="M19.605,23.243c0.504,0,0.918-0.417,0.92-0.925c0.013-4.713-1.517-6.591-2.578-7.322l-1.89,2.607
		l-1.772-2.441c-1.063,0.73-2.593,2.62-2.577,7.334c0.002,0.507,0.411,0.938,0.919,0.938h0.002c0.507,0,0.939-0.436,0.938-0.94
		c-0.004-1.376,0.048-2.455,0.366-3.274v2.967c0,0.43,0.128,0.826,0.256,1.17v7.445c0,0.508,0.443,0.92,0.95,0.92
		c0.508,0,0.944-0.412,0.944-0.92l0.081-0.007c0,0.507,0.406,0.927,0.914,0.927c0.509,0,0.936-0.425,0.936-0.934v-7.596
		c0.191-0.342,0.319-0.739,0.319-1.166v-2.971c0.255,0.82,0.353,1.887,0.349,3.26c-0.002,0.509,0.414,0.929,0.922,0.929H19.605z"/>
	<path fill="#282828" d="M17.221,14.225l-0.535,0.225c-0.112-0.188-0.313-0.319-0.551-0.319c-0.234,0-0.436,0.129-0.547,0.315
		l-0.54-0.231c-0.075-0.033-0.164-0.023-0.236,0.021c-0.071,0.049-0.111,0.127-0.111,0.212v0.671c0,0.08,0.036,0.156,0.101,0.204
		c0.064,0.05,0.148,0.062,0.224,0.039c0.212-0.064,0.473-0.142,0.623-0.189c0.117,0.141,0.29,0.233,0.487,0.233
		c0.191,0,0.362-0.086,0.479-0.221c0.15,0.046,0.417,0.127,0.633,0.191c0.076,0.022,0.158,0.009,0.223-0.039s0.1-0.123,0.1-0.204
		v-0.675c0-0.087-0.041-0.167-0.111-0.212C17.389,14.198,17.299,14.19,17.221,14.225z"/>
	<circle fill="#282828" cx="27.766" cy="6.33" r="2.156"/>
	<path fill="#282828" d="M29.512,9.459l-1.795,2.478l-1.685-2.323c-1.011,0.694-2.466,2.473-2.452,6.952
		c0.002,0.481,0.393,0.873,0.875,0.873h0.002c0.48,0,0.877-0.396,0.876-0.877c-0.004-1.307,0.017-2.314,0.335-3.094v2.82
		c0,0.406,0.127,0.784,0.318,1.109v7.078c0,0.482,0.396,0.873,0.88,0.873c0.481,0,0.887-0.391,0.887-0.873l0.069-0.006
		c0,0.482,0.408,0.879,0.89,0.879c0.483,0,0.908-0.4,0.908-0.885v-7.219c0.128-0.327,0.256-0.705,0.256-1.111v-2.822
		c0.255,0.778,0.338,1.802,0.333,3.107c-0.001,0.48,0.396,0.893,0.878,0.893h0.002c0.479,0,0.873-0.404,0.873-0.888
		C31.977,11.943,30.521,10.154,29.512,9.459z"/>
	<path fill="#282828" d="M28.822,8.721l-0.512,0.214c-0.104-0.181-0.297-0.304-0.521-0.304s-0.415,0.121-0.521,0.301l-0.514-0.221
		c-0.072-0.032-0.152-0.023-0.221,0.021c-0.068,0.046-0.104,0.121-0.104,0.201V9.57c0,0.076,0.03,0.149,0.094,0.194
		c0.061,0.046,0.138,0.059,0.209,0.037c0.203-0.063,0.449-0.136,0.591-0.181c0.11,0.134,0.276,0.222,0.465,0.222
		c0.181,0,0.343-0.082,0.454-0.209c0.145,0.044,0.396,0.12,0.602,0.181c0.073,0.022,0.162,0.009,0.221-0.037
		c0.063-0.045,0.107-0.117,0.107-0.194V8.941c0-0.081-0.051-0.157-0.115-0.201C28.988,8.695,28.896,8.688,28.822,8.721z"/>
	<circle fill="#282828" cx="16.104" cy="1.977" r="1.238"/>
	<path fill="#282828" d="M14.203,8.385h0.002c0.277,0,0.5-0.239,0.499-0.517C14.7,7.116,14.7,6.525,14.89,6.078v1.62
		c0,0.235,0.064,0.451,0.191,0.638v0.521c0.702-0.133,1.404-0.141,2.104-0.048v-0.56c0.062-0.188,0.129-0.405,0.129-0.638V5.988
		c0.127,0.447,0.194,1.021,0.192,1.771c-0.001,0.277,0.229,0.499,0.505,0.499h0.002c0.277,0,0.502-0.218,0.502-0.497
		c0.008-2.573-0.826-3.596-1.408-3.994l-1.03,1.427l-0.968-1.332c-0.581,0.399-1.416,1.434-1.407,4.009
		C13.702,8.146,13.926,8.385,14.203,8.385z"/>
	<path fill="#282828" d="M16.711,3.351l-0.292,0.123c-0.061-0.104-0.17-0.177-0.299-0.177s-0.239,0.07-0.3,0.175l-0.293-0.127
		c-0.044-0.02-0.091-0.014-0.13,0.012s-0.061,0.07-0.061,0.117v0.364c0,0.045,0.02,0.086,0.054,0.112
		c0.035,0.027,0.082,0.035,0.124,0.022c0.115-0.037,0.256-0.078,0.339-0.104c0.062,0.076,0.158,0.126,0.267,0.126
		c0.104,0,0.196-0.046,0.262-0.12c0.081,0.026,0.228,0.069,0.345,0.105c0.041,0.012,0.102,0.006,0.135-0.022
		c0.037-0.025,0.07-0.067,0.07-0.111V3.478c0-0.048-0.037-0.09-0.076-0.116C16.816,3.335,16.755,3.331,16.711,3.351z"/>
	<path fill="#282828" d="M12.803,26.238l-3.996-3.317c-0.413-0.344-1.026-0.287-1.37,0.127c-0.343,0.412-0.285,1.025,0.128,1.368
		l3.995,3.318c0.182,0.152,0.401,0.225,0.621,0.225c0.279,0,0.556-0.119,0.749-0.352C13.273,27.195,13.214,26.582,12.803,26.238z"/>
	<path fill="#282828" d="M23.452,22.921l-3.996,3.317c-0.413,0.344-0.472,0.957-0.126,1.369c0.189,0.231,0.469,0.352,0.749,0.352
		c0.218,0,0.438-0.072,0.619-0.225l3.995-3.318c0.414-0.343,0.471-0.956,0.127-1.368C24.479,22.634,23.863,22.576,23.452,22.921z"/>
	<path fill="#282828" d="M8.187,8.509c0.22,0,0.438-0.072,0.62-0.224l3.996-3.317c0.411-0.345,0.471-0.956,0.127-1.37
		c-0.345-0.414-0.957-0.472-1.37-0.127L7.564,6.789c-0.413,0.344-0.47,0.956-0.127,1.369C7.63,8.39,7.907,8.509,8.187,8.509z"/>
	<path fill="#282828" d="M19.456,4.968l3.996,3.317c0.181,0.151,0.399,0.224,0.62,0.224c0.279,0,0.558-0.119,0.748-0.351
		c0.344-0.413,0.287-1.025-0.127-1.369l-3.995-3.318c-0.412-0.345-1.025-0.285-1.368,0.127C18.984,4.012,19.043,4.623,19.456,4.968z
		"/>
</g>
</svg>
