<?xml version="1.0" encoding="utf-8"?>
<!-- Generator: Adobe Illustrator 16.0.4, SVG Export Plug-In . SVG Version: 6.00 Build 0)  -->
<!DOCTYPE svg PUBLIC "-//W3C//DTD SVG 1.1//EN" "http://www.w3.org/Graphics/SVG/1.1/DTD/svg11.dtd">
<svg version="1.1" id="Layer_1" xmlns="http://www.w3.org/2000/svg" xmlns:xlink="http://www.w3.org/1999/xlink" x="0px" y="0px"
	 width="32px" height="32px" viewBox="0 0 32 32" enable-background="new 0 0 32 32" xml:space="preserve">
<g>
	<path fill="#282828" d="M22.283,4.343c-0.229,0-0.416,0.186-0.416,0.416v2.776c0,0.23,0.188,0.416,0.416,0.416h1.354v0.47h-0.519
		c-0.209,0-0.378,0.169-0.378,0.377v0.25h2.488v-0.25c0-0.208-0.17-0.377-0.379-0.377h-0.451v-0.47h1.441
		c0.229,0,0.416-0.186,0.416-0.416V4.759c0-0.23-0.188-0.416-0.416-0.416H22.283z M25.654,7.323h-3.184V4.97h3.184V7.323z"/>
	<path fill="#282828" d="M10.32,9.048c0.172,0,0.319-0.143,0.319-0.313V4.394c0-0.172-0.147-0.321-0.319-0.321H7.841
		c-0.172,0-0.314,0.149-0.314,0.321v4.341c0,0.171,0.143,0.313,0.314,0.313h0.008h2.464H10.32z M10.013,7.793h-1.86V4.702h1.86
		V7.793z"/>
	<path fill="#282828" d="M15.397,4.656h3.101c0.171,0,0.299-0.137,0.299-0.309v-3.72c0-0.172-0.128-0.318-0.299-0.318h-3.101
		c-0.172,0-0.319,0.146-0.319,0.318v2.824v0.897V4.41h0.015C15.123,4.544,15.247,4.656,15.397,4.656z M15.704,0.936h2.489v2.51
		h-2.489V0.936z"/>
	<circle fill="#282828" cx="16.678" cy="8.645" r="2.689"/>
	<path fill="#282828" d="M23.707,13.957l-2.139,1.899l-2.666-3.278l-2.205,2.874l-2.205-2.874l-2.666,3.278l-2.138-1.899
		c-0.452-0.4-1.14-0.358-1.539,0.091c-0.398,0.449-0.36,1.139,0.09,1.537l2.987,2.657c0.2,0.178,0.457,0.273,0.721,0.273
		c0.029,0,0.055,0,0.083-0.004c0.299-0.023,0.562-0.166,0.75-0.397l1.176-1.47v4.051c0,0.507,0.18,0.979,0.359,1.387v8.825
		c0,0.603,0.519,1.09,1.119,1.09c0.603,0,1.123-0.487,1.123-1.09v-7.493h0.357v7.493c0,0.603,0.52,1.09,1.12,1.09
		s1.12-0.487,1.12-1.09v-8.825c0.18-0.406,0.359-0.879,0.359-1.387v-4.051l1.139,1.469c0.188,0.23,0.433,0.375,0.729,0.398
		c0.027,0.004,0.043,0.004,0.072,0.004c0.267,0,0.517-0.097,0.717-0.273l2.985-2.657c0.449-0.398,0.486-1.088,0.088-1.537
		C24.846,13.598,24.158,13.557,23.707,13.957z"/>
	<path fill="#282828" d="M17.996,11.626l-0.637,0.268c-0.131-0.225-0.371-0.378-0.649-0.378c-0.277,0-0.517,0.151-0.649,0.373
		l-0.637-0.273c-0.093-0.04-0.197-0.031-0.281,0.025c-0.085,0.056-0.133,0.15-0.133,0.252v0.794c0,0.096,0.043,0.186,0.12,0.243
		c0.075,0.057,0.173,0.074,0.265,0.046c0.25-0.077,0.559-0.171,0.736-0.226c0.139,0.167,0.345,0.276,0.579,0.276
		c0.228,0,0.431-0.103,0.565-0.261c0.181,0.055,0.498,0.15,0.752,0.227c0.091,0.027,0.19,0.009,0.268-0.047
		c0.076-0.057,0.121-0.147,0.121-0.242v-0.8c0-0.101-0.051-0.195-0.135-0.251C18.197,11.596,18.09,11.586,17.996,11.626z"/>
	<path fill="#282828" d="M11.313,4.442c0.869-0.865,1.918-1.546,3.093-1.974v-0.65c-1.242,0.418-2.363,1.098-3.302,1.97
		c0.133,0.174,0.209,0.388,0.209,0.606V4.442z"/>
	<path fill="#282828" d="M23.372,3.67c-1.099-0.98-2.429-1.704-3.903-2.065V2.24c1.078,0.284,2.072,0.778,2.938,1.431L23.372,3.67
		L23.372,3.67z"/>
</g>
</svg>
