<?xml version="1.0" encoding="utf-8"?>
<!-- Generator: Adobe Illustrator 16.0.4, SVG Export Plug-In . SVG Version: 6.00 Build 0)  -->
<!DOCTYPE svg PUBLIC "-//W3C//DTD SVG 1.1//EN" "http://www.w3.org/Graphics/SVG/1.1/DTD/svg11.dtd">
<svg version="1.1" id="Layer_1" xmlns="http://www.w3.org/2000/svg" xmlns:xlink="http://www.w3.org/1999/xlink" x="0px" y="0px"
	 width="32px" height="32px" viewBox="0 0 32 32" enable-background="new 0 0 32 32" xml:space="preserve">
<g>
	<path fill="#282828" d="M6.235,16.613c-0.048,0.302,0.157,0.584,0.458,0.634c0.031,0.005,0.061,0.007,0.091,0.007
		c0.266,0,0.501-0.191,0.548-0.463c0.012-0.066,0.311-1.661,2.248-2.169c0.297-0.078,0.475-0.382,0.397-0.679
		c-0.079-0.296-0.382-0.472-0.68-0.397C6.641,14.244,6.25,16.518,6.235,16.613z"/>
	<path fill="#282828" d="M8.973,12.44c0.298-0.079,0.476-0.382,0.398-0.679c-0.078-0.297-0.38-0.472-0.679-0.396
		c-4.351,1.14-4.983,4.826-5.008,4.982c-0.048,0.302,0.157,0.585,0.46,0.634c0.03,0.004,0.06,0.008,0.09,0.008
		c0.267,0,0.502-0.195,0.548-0.467C4.803,16.395,5.345,13.39,8.973,12.44z"/>
	<path fill="#282828" d="M8.532,9.919C8.829,9.841,9.007,9.538,8.929,9.24C8.851,8.942,8.546,8.767,8.251,8.843
		c-6.053,1.585-6.932,6.691-6.966,6.908c-0.048,0.303,0.158,0.588,0.461,0.636c0.03,0.005,0.059,0.007,0.088,0.007
		c0.268,0,0.504-0.195,0.548-0.469C2.39,15.879,3.174,11.322,8.532,9.919z"/>
	<circle fill="#282828" cx="16.842" cy="5.966" r="5.966"/>
	<path fill="#282828" d="M9.994,32.052c0.046-1.896,0.193-3.534,0.417-4.979v-7.193c0-0.954,0.773-1.727,1.727-1.727h2.59
		l-2.887-3.953c-2.688,1.85-6.504,6.464-6.756,17.853H9.994z"/>
	<path fill="#282828" d="M19.766,12.578l-1.412,0.596c-0.289-0.499-0.824-0.838-1.442-0.838c-0.615,0-1.146,0.334-1.438,0.827
		l-1.415-0.607c-0.207-0.089-0.424-0.068-0.611,0.057c-0.188,0.124-0.28,0.333-0.28,0.558v1.762c0,0.212,0.08,0.411,0.25,0.538
		c0.17,0.126,0.38,0.165,0.583,0.102c0.554-0.169,1.237-0.379,1.629-0.498c0.308,0.371,0.764,0.612,1.284,0.612
		c0.503,0,0.948-0.228,1.256-0.579c0.399,0.122,1.101,0.333,1.664,0.502c0.203,0.061,0.378,0.022,0.547-0.104
		c0.17-0.127,0.226-0.326,0.226-0.537v-1.774c0-0.224-0.068-0.434-0.254-0.558C20.165,12.513,19.973,12.491,19.766,12.578z"/>
	<path fill="#282828" d="M22.757,13.426c-0.005-0.002-0.011-0.004-0.016-0.007l-3.664,4.733h2.796
		c0.025,0.018,4.704,3.467,3.554,5.955c-0.491,1.062-1.133,1.367-1.581,1.5c-0.021,0.006-0.045,0.009-0.066,0.015
		c-0.969,0.265-2.168,0.065-3.209-0.259c-0.055-0.018-0.088-0.071-0.079-0.127c0.009-0.057,0.057-0.098,0.114-0.096
		c0.406,0.002,0.771-0.007,1.086-0.023c0.318-0.018,0.567-0.282,0.567-0.602V20.88c0-0.593-0.481-1.073-1.073-1.073h-8.6
		c-0.593,0-1.074,0.48-1.074,1.073v11.172H22.27l-0.012-0.258c-3.535-0.297-5.217-2.033-5.887-2.994
		c-0.052-0.075-0.046-0.175,0.014-0.243c0.061-0.067,0.159-0.086,0.24-0.043c1.107,0.582,3.543,1.682,6.152,1.682
		c0.304,0,0.611-0.02,0.918-0.051c0.471-0.049,0.945-0.134,1.414-0.272c1.959-0.582,3.471-1.942,4.369-3.935
		C31.994,20.369,26.436,15.454,22.757,13.426z M13.473,22.516c-0.384,0-0.695-0.312-0.695-0.695s0.311-0.695,0.695-0.695
		c0.384,0,0.695,0.312,0.695,0.695C14.168,22.204,13.857,22.516,13.473,22.516z"/>
</g>
</svg>
