<?xml version="1.0" encoding="utf-8"?>
<!-- Generator: Adobe Illustrator 16.0.4, SVG Export Plug-In . SVG Version: 6.00 Build 0)  -->
<!DOCTYPE svg PUBLIC "-//W3C//DTD SVG 1.1//EN" "http://www.w3.org/Graphics/SVG/1.1/DTD/svg11.dtd">
<svg version="1.1" id="Layer_1" xmlns="http://www.w3.org/2000/svg" xmlns:xlink="http://www.w3.org/1999/xlink" x="0px" y="0px"
	 width="50px" height="50px" viewBox="0 0 50 50" enable-background="new 0 0 50 50" xml:space="preserve">
<g>
	<path d="M23.132,39.899h-0.006c-0.308-0.003-0.553-0.255-0.55-0.562c0.041-3.523-0.25-6.062-0.839-7.334
		c-0.227-0.486-0.645-0.892-1.048-1.281c-0.492-0.476-0.958-0.924-1.114-1.532c-0.107-0.286-0.177-0.639-0.19-0.995
		c-0.025-0.825,0.249-1.632,0.773-2.273c0.095-0.116,0.23-0.189,0.38-0.202c0.146-0.013,0.297,0.034,0.41,0.13
		c0.187,0.159,0.376,0.288,0.565,0.384c0.396,0.202,0.839,0.31,1.282,0.31l0.107-0.003c0.667-0.021,1.312-0.284,1.807-0.738
		c0.2-0.187,0.51-0.194,0.722-0.026c0.501,0.397,1.129,0.617,1.767,0.617l0.104-0.003c0.474-0.016,0.941-0.153,1.354-0.397
		c0.14-0.084,0.27-0.186,0.392-0.292c0.113-0.098,0.263-0.145,0.411-0.133c0.149,0.012,0.287,0.084,0.383,0.201
		c0.48,0.585,0.748,1.292,0.773,2.043c0.011,0.358-0.034,0.715-0.133,1.059c-0.11,0.606-0.583,1.123-1.082,1.67
		c-0.396,0.434-0.809,0.884-1.026,1.396c-0.56,1.302-0.834,3.862-0.796,7.401c0.003,0.307-0.243,0.559-0.55,0.562h-0.007
		c-0.305,0-0.554-0.246-0.557-0.549c-0.04-3.747,0.258-6.388,0.885-7.854c0.296-0.687,0.791-1.229,1.229-1.708
		c0.39-0.427,0.758-0.829,0.823-1.175c0.079-0.285,0.107-0.524,0.101-0.768c-0.011-0.326-0.09-0.641-0.231-0.927l-0.044,0.026
		c-0.577,0.342-1.229,0.533-1.892,0.556l-0.123,0.003h-0.001c-0.748,0-1.476-0.209-2.1-0.598c-0.633,0.457-1.393,0.72-2.181,0.745
		l-0.126,0.002c-0.628,0-1.245-0.147-1.797-0.43c-0.093-0.047-0.185-0.099-0.275-0.157c-0.166,0.337-0.248,0.711-0.236,1.09
		c0.008,0.237,0.054,0.475,0.139,0.701c0.096,0.358,0.449,0.7,0.825,1.064c0.456,0.439,0.974,0.938,1.286,1.613
		c0.668,1.444,0.984,4.073,0.941,7.814C23.685,39.655,23.438,39.899,23.132,39.899z"/>
	<path d="M22.798,25.489c-0.535,0-1.066-0.128-1.546-0.373c-1.109-0.562-1.823-1.685-1.867-2.927
		c-0.011-0.358,0.034-0.715,0.133-1.059c0.11-0.607,0.583-1.124,1.084-1.672c0.396-0.434,0.807-0.882,1.024-1.396
		c0.56-1.302,0.834-3.862,0.796-7.401c-0.003-0.307,0.243-0.559,0.55-0.562c0.333,0.011,0.561,0.242,0.562,0.549
		c0.04,3.747-0.258,6.388-0.885,7.854c-0.296,0.687-0.791,1.229-1.229,1.706c-0.39,0.428-0.758,0.83-0.823,1.177
		c-0.079,0.285-0.107,0.524-0.101,0.767c0.028,0.836,0.511,1.593,1.26,1.974c0.345,0.176,0.73,0.266,1.119,0.249
		c0.688-0.021,1.323-0.349,1.745-0.893c0.101-0.131,0.255-0.209,0.42-0.216c0.156-0.005,0.324,0.062,0.435,0.186
		c0.459,0.515,1.106,0.782,1.805,0.773c0.386-0.013,0.767-0.126,1.102-0.325c0.72-0.431,1.15-1.219,1.122-2.058
		c-0.008-0.238-0.054-0.476-0.139-0.701c-0.096-0.358-0.449-0.702-0.826-1.064c-0.455-0.439-0.972-0.938-1.285-1.613
		c-0.668-1.444-0.984-4.073-0.941-7.814c0.003-0.308,0.201-0.546,0.562-0.549c0.308,0.003,0.553,0.255,0.55,0.562
		c-0.041,3.523,0.25,6.062,0.839,7.334c0.227,0.486,0.645,0.891,1.047,1.28c0.493,0.475,0.959,0.924,1.115,1.534
		c0.107,0.285,0.178,0.638,0.19,0.994c0.041,1.244-0.599,2.412-1.665,3.05c-0.496,0.295-1.062,0.461-1.633,0.482
		c-0.805,0.033-1.601-0.233-2.229-0.73c-0.593,0.538-1.358,0.852-2.173,0.88L22.798,25.489z"/>
</g>
</svg>
