<?xml version="1.0" encoding="utf-8"?>
<!-- Generator: Adobe Illustrator 16.0.4, SVG Export Plug-In . SVG Version: 6.00 Build 0)  -->
<!DOCTYPE svg PUBLIC "-//W3C//DTD SVG 1.1//EN" "http://www.w3.org/Graphics/SVG/1.1/DTD/svg11.dtd">
<svg version="1.1" id="Layer_1" xmlns="http://www.w3.org/2000/svg" xmlns:xlink="http://www.w3.org/1999/xlink" x="0px" y="0px"
	 width="50px" height="50px" viewBox="0 0 50 50" enable-background="new 0 0 50 50" xml:space="preserve">
<path d="M35.471,18.439c-1.06-3.148-2.545-5.19-4.412-6.067c-1.326-0.625-2.464-0.463-2.947-0.342
	c-2.063-1.128-4.305-1.411-6.49-0.819c-2.855,0.774-5.14,2.883-6.138,4.63C11.143,23.438,12.093,32,14.815,36.74
	c0.876,1.526,1.919,2.315,3.101,2.35c0.025,0,0.049,0.001,0.075,0.001c2.104-0.001,3.735-2.47,3.804-2.577
	c0.081-0.123,0.104-0.273,0.065-0.416c-0.039-0.142-0.135-0.261-0.267-0.327c-0.58-0.29-1.042-0.82-1.413-1.246
	c-0.099-0.114-0.192-0.222-0.277-0.312c-0.826-0.892-1.57-3.228-1.96-5.189c4.563-1.727,9.25-8.221,10.485-10.021
	c4.503,3.417,4.268,7.896,3.541,11.448c-0.694,3.4-3.571,6.043-3.6,6.069c-0.113,0.104-0.177,0.251-0.168,0.404
	c0.006,0.152,0.081,0.295,0.201,0.388c1.108,0.848,2.226,1.194,3.316,1.033c1.691-0.249,2.863-1.628,3.599-2.644
	C39.392,30.063,36.75,22.229,35.471,18.439z M34.48,35.096c-0.625,0.864-1.606,2.035-2.913,2.229
	c-0.652,0.099-1.341-0.07-2.045-0.495c0.905-0.945,2.865-3.269,3.458-6.173c0.812-3.971,1.048-9.014-4.387-12.812
	c-0.114-0.079-0.257-0.11-0.393-0.084c-0.139,0.027-0.259,0.108-0.334,0.225c-0.063,0.099-5.634,8.562-10.51,10.169
	c-0.046,0.003-0.062,0.002-0.095,0.008c-0.075,0.013-0.141,0.041-0.2,0.081c-0.619,0.169-1.222,0.221-1.799,0.127
	c-0.274-0.047-0.547,0.143-0.592,0.425c-0.046,0.281,0.144,0.546,0.425,0.593c0.607,0.101,1.227,0.068,1.854-0.069
	c0.409,2.018,1.185,4.503,2.197,5.595c0.08,0.085,0.164,0.183,0.256,0.288c0.31,0.355,0.706,0.811,1.211,1.176
	c-0.561,0.691-1.591,1.681-2.625,1.681c-0.015,0-0.03,0-0.046-0.001c-0.797-0.022-1.548-0.639-2.233-1.832
	c-2.58-4.493-3.47-12.629,0.67-19.874c0.863-1.512,2.956-3.453,5.511-4.146c0.668-0.181,1.333-0.271,1.992-0.271
	c1.329,0,2.637,0.367,3.909,1.098c0.133,0.077,0.295,0.091,0.441,0.034c0.009-0.004,1.071-0.379,2.387,0.237
	c1.581,0.744,2.92,2.633,3.882,5.49C35.81,22.672,38.244,29.891,34.48,35.096z"/>
</svg>
