<?xml version="1.0" encoding="utf-8"?>
<!-- Generator: Adobe Illustrator 16.0.4, SVG Export Plug-In . SVG Version: 6.00 Build 0)  -->
<!DOCTYPE svg PUBLIC "-//W3C//DTD SVG 1.1//EN" "http://www.w3.org/Graphics/SVG/1.1/DTD/svg11.dtd">
<svg version="1.1" id="Layer_1" xmlns="http://www.w3.org/2000/svg" xmlns:xlink="http://www.w3.org/1999/xlink" x="0px" y="0px"
	 width="50px" height="50px" viewBox="0 0 50 50" enable-background="new 0 0 50 50" xml:space="preserve">
<path d="M35.472,18.439c-1.912-5.674-4.828-6.521-6.396-6.521c-0.421,0-0.753,0.06-0.965,0.113
	c-1.362-0.747-2.786-1.125-4.233-1.125c-4.09,0-7.261,2.951-8.395,4.935c-4.34,7.596-3.389,16.161-0.668,20.901
	c0.896,1.561,1.964,2.352,3.176,2.352c2.104,0,3.735-2.471,3.804-2.576c0.081-0.123,0.104-0.273,0.065-0.417
	c-0.039-0.142-0.135-0.261-0.267-0.326c-0.717-0.358-3.183-3.476-3.731-7.176c-0.277-1.87,0.045-3.501,0.221-4.191h3.333
	c0.241,0,0.449-0.167,0.503-0.401l0.681-2.973l0.696,2.769c0.058,0.229,0.264,0.39,0.5,0.39h8.162
	c0.051,1.233,0.143,4.492-0.237,6.049c-1.095,4.496-3.296,6.236-3.316,6.252c-0.129,0.099-0.204,0.25-0.204,0.41
	c0,0.161,0.074,0.313,0.202,0.411c0.932,0.71,1.872,1.071,2.797,1.071c2.179,0,3.639-2.02,4.118-2.684
	C39.391,30.067,36.75,22.231,35.472,18.439z M34.481,35.098c-0.699,0.968-1.802,2.255-3.282,2.255c-0.534,0-1.091-0.172-1.66-0.513
	c0.794-0.824,2.312-2.784,3.183-6.357c0.509-2.081,0.253-6.645,0.242-6.837c-0.015-0.273-0.242-0.487-0.515-0.487h-8.25
	l-1.121-4.462c-0.059-0.229-0.265-0.39-0.501-0.39c-0.002,0-0.004,0-0.004,0c-0.24,0.003-0.445,0.168-0.499,0.401l-1.069,4.666
	h-3.312c-0.221,0-0.417,0.141-0.489,0.35c-0.031,0.092-0.767,2.299-0.362,5.024c0.529,3.574,2.599,6.535,3.799,7.594
	c-0.486,0.609-1.525,1.719-2.65,1.719c-0.815,0-1.583-0.617-2.281-1.833c-2.58-4.494-3.47-12.63,0.67-19.875
	c0.975-1.707,3.873-4.415,7.498-4.415c1.333,0,2.649,0.37,3.915,1.097c0.133,0.077,0.295,0.091,0.438,0.035
	c0.003-0.001,0.333-0.12,0.846-0.12c1.292,0,3.713,0.755,5.428,5.845C35.81,22.673,38.245,29.894,34.481,35.098z"/>
</svg>
