<?xml version="1.0" encoding="utf-8"?>
<!-- Generator: Adobe Illustrator 16.0.4, SVG Export Plug-In . SVG Version: 6.00 Build 0)  -->
<!DOCTYPE svg PUBLIC "-//W3C//DTD SVG 1.1//EN" "http://www.w3.org/Graphics/SVG/1.1/DTD/svg11.dtd">
<svg version="1.1" id="Layer_1" xmlns="http://www.w3.org/2000/svg" xmlns:xlink="http://www.w3.org/1999/xlink" x="0px" y="0px"
	 width="50px" height="50px" viewBox="0 0 50 50" enable-background="new 0 0 50 50" xml:space="preserve">
<path d="M36.256,27.664h-2.513c-0.406-0.945-0.77-1.724-0.871-1.94h2.954c0.276,0,0.5-0.224,0.5-0.5s-0.224-0.5-0.5-0.5h-7.374
	c-0.276,0-0.5,0.224-0.5,0.5s0.224,0.5,0.5,0.5h3.496c-0.18,0.379-1.149,2.461-1.749,4.151H19.644c-0.44,0-0.799-0.426-0.799-0.947
	s0.357-0.944,0.799-0.944h5.59c0.277,0,0.5-0.224,0.5-0.5c0-0.003-0.002-0.006-0.002-0.009s0.002-0.006,0.002-0.01
	c0-0.275-0.223-0.5-0.5-0.5h-7.694c-0.44,0-0.8-0.408-0.8-0.912c0-0.48,0.33-0.865,0.744-0.899h7.75c0.277,0,0.5-0.224,0.5-0.5
	c0-0.002,0-0.004,0-0.006s0-0.004,0-0.006c0-0.276-0.223-0.5-0.5-0.5h-7.694c-0.041,0-0.078,0.01-0.118,0.013h-2.48
	c-0.441,0-0.801-0.416-0.801-0.928c0-0.513,0.358-0.93,0.801-0.93h1.633c0.045,0.004,0.089,0.015,0.135,0.015h8.527
	c0.275,0,0.5-0.224,0.5-0.5c0-0.002-0.002-0.005-0.002-0.007s0.002-0.005,0.002-0.007c0-0.276-0.225-0.5-0.5-0.5h-8.59
	c-0.41-0.039-0.737-0.428-0.737-0.914c0-0.513,0.358-0.93,0.8-0.93h5.355h2.843c0.149,1.047,0.831,1.485,2.243,1.485h2.703
	c0.276,0,0.5-0.224,0.5-0.5s-0.224-0.5-0.5-0.5h-2.703c-1.215,0-1.275-0.251-1.275-0.979c0-0.276-0.225-0.5-0.5-0.5
	c-0.02,0-0.034,0.009-0.053,0.011c-0.028-0.005-0.057-0.018-0.086-0.018h-3.172c-0.441,0-0.801-0.427-0.801-0.951
	c0-0.522,0.356-0.947,0.797-0.95c0,0,0.002,0.001,0.004,0.001h8.059c1.102,0,1.996,0.801,1.996,1.784v0.857
	c0,0.134,0.054,0.261,0.146,0.354c0.094,0.093,0.221,0.146,0.354,0.146c0.001,0,0.003,0,0.004,0l3.743-0.03
	c0.276-0.002,0.497-0.228,0.495-0.504c-0.002-0.275-0.225-0.496-0.5-0.496c0,0-0.002,0-0.004,0l-3.238,0.026v-0.354
	c0-1.535-1.344-2.784-2.996-2.784h-4.877c-0.004,0-0.006-0.002-0.01-0.002h-3.172c-0.992,0-1.801,0.875-1.801,1.951
	c0,0.347,0.092,0.668,0.238,0.951h-3.794c-0.992,0-1.8,0.865-1.8,1.93c0,0.333,0.086,0.641,0.225,0.914H14.94
	c-0.992,0-1.801,0.865-1.801,1.93c0,1.062,0.809,1.928,1.801,1.928h1.021c-0.137,0.27-0.222,0.572-0.222,0.899
	c0,1.055,0.808,1.912,1.8,1.912h0.552c-0.152,0.285-0.246,0.611-0.246,0.964c0,1.073,0.809,1.946,1.801,1.946h10.237
	c-0.098,0.359-0.159,0.668-0.159,0.888c0,1.481,1.207,2.688,2.688,2.688s2.688-1.207,2.688-2.688c0-0.604-0.444-1.872-0.938-3.099
	l2.097,0.002c0.276,0,0.5-0.225,0.5-0.5C36.759,27.89,36.532,27.664,36.256,27.664z M32.41,33.449c-0.931,0-1.688-0.758-1.688-1.689
	c0-0.662,0.906-2.902,1.688-4.646c0.78,1.744,1.688,3.984,1.688,4.646C34.099,32.691,33.341,33.449,32.41,33.449z"/>
</svg>
