<?xml version="1.0" encoding="utf-8"?>
<!-- Generator: Adobe Illustrator 16.0.4, SVG Export Plug-In . SVG Version: 6.00 Build 0)  -->
<!DOCTYPE svg PUBLIC "-//W3C//DTD SVG 1.1//EN" "http://www.w3.org/Graphics/SVG/1.1/DTD/svg11.dtd">
<svg version="1.1" id="Layer_1" xmlns="http://www.w3.org/2000/svg" xmlns:xlink="http://www.w3.org/1999/xlink" x="0px" y="0px"
	 width="50px" height="50px" viewBox="0 0 50 50" enable-background="new 0 0 50 50" xml:space="preserve">
<path d="M21.827,23.279c-0.332-0.37-0.521-0.783-0.657-1.135c-0.266-0.711-0.314-1.209-0.314-1.209s0.119,0.49,0.467,1.141
	c0.177,0.318,0.412,0.682,0.744,0.965c0.166,0.143,0.351,0.266,0.554,0.338c0.098,0.051,0.208,0.059,0.308,0.088l0.366,0.059
	c0.499,0.084,1.044,0.207,1.504,0.554c0.229,0.172,0.41,0.407,0.533,0.655c0.058,0.125,0.093,0.252,0.133,0.375
	c0.019,0.123,0.037,0.244,0.054,0.356c0.002,0.007,0.002,0.011,0.002,0.019c0.562,0.311,0.928,1.198,0.846,2.215
	c-0.1,1.232-0.805,2.182-1.576,2.119s-1.316-1.111-1.219-2.342c0.074-0.941,0.505-1.711,1.048-1.999
	c-0.002-0.067-0.002-0.14-0.002-0.215c-0.017-0.065-0.021-0.145-0.044-0.216c-0.049-0.144-0.121-0.288-0.25-0.416
	c-0.256-0.263-0.688-0.448-1.146-0.587l-0.357-0.105c-0.131-0.057-0.269-0.092-0.383-0.168
	C22.189,23.642,21.993,23.464,21.827,23.279z M28.833,24.992h-2.819c-0.078,0-0.147,0.049-0.175,0.122
	c-0.026,0.073-0.002,0.155,0.06,0.202c0.574,0.467,0.895,1.413,0.814,2.413c-0.111,1.393-0.908,2.441-1.855,2.441
	c-0.031,0-0.063,0-0.099-0.004c-0.979-0.08-1.655-1.273-1.538-2.721c0.068-0.875,0.428-1.658,0.959-2.094
	c0.059-0.049,0.082-0.127,0.057-0.201c-0.043-0.129-0.043-0.129-2.557-0.135c-0.103,0-0.185,0.082-0.186,0.184
	c0,0.102,0.082,0.185,0.184,0.185c0.616,0.001,1.445,0.005,1.944,0.009c-0.427,0.512-0.705,1.235-0.769,2.024
	c-0.133,1.652,0.69,3.021,1.875,3.115c0.043,0.006,0.086,0.006,0.129,0.006c1.139,0,2.094-1.195,2.222-2.781
	c0.075-0.938-0.161-1.812-0.628-2.397h2.382c0.103,0,0.185-0.084,0.185-0.186S28.936,24.992,28.833,24.992z M24.57,23.154
	c0.166,0.201,0.363,0.394,0.605,0.533c0.115,0.082,0.252,0.119,0.383,0.18l0.357,0.115c0.461,0.149,0.893,0.352,1.146,0.636
	c0.047,0.052,0.082,0.108,0.115,0.164h0.912c-0.007-0.019-0.012-0.036-0.018-0.054c-0.124-0.269-0.305-0.523-0.535-0.709
	c-0.459-0.377-1.003-0.511-1.502-0.6l-0.366-0.062c-0.101-0.035-0.212-0.043-0.31-0.096c-0.201-0.08-0.387-0.214-0.551-0.365
	c-0.334-0.31-0.57-0.701-0.746-1.049c-0.35-0.701-0.465-1.233-0.465-1.233s0.049,0.54,0.312,1.31
	C24.052,22.304,24.238,22.751,24.57,23.154z M15.236,31.781V19.845c0-0.226,0.183-0.408,0.408-0.408h18.711
	c0.226,0,0.406,0.184,0.406,0.408v11.936c0,0.225-0.182,0.406-0.406,0.406H15.645C15.419,32.188,15.236,32.006,15.236,31.781z
	 M16.051,31.375h17.898V20.251H16.051V31.375z M40,17.302c0,0.227-0.182,0.407-0.407,0.407h-2.39V32.98
	c0,0.908-0.739,1.648-1.648,1.648H14.445c-0.908,0-1.647-0.74-1.647-1.648V17.709h-2.39c-0.227,0-0.407-0.183-0.407-0.407
	c0-0.224,0.183-0.406,0.407-0.406h29.186C39.818,16.896,40,17.079,40,17.302z M36.391,17.709H13.609V32.98
	c0,0.461,0.375,0.836,0.836,0.836h21.109c0.461,0,0.834-0.375,0.834-0.836V17.709H36.391z M10.407,16.185h29.186
	c0.226,0,0.407-0.183,0.407-0.408c0-0.223-0.182-0.405-0.407-0.405H10.407c-0.226,0-0.407,0.183-0.407,0.405
	C10,16.002,10.182,16.185,10.407,16.185z"/>
</svg>
