<?xml version="1.0" encoding="utf-8"?>
<!-- Generator: Adobe Illustrator 16.0.4, SVG Export Plug-In . SVG Version: 6.00 Build 0)  -->
<!DOCTYPE svg PUBLIC "-//W3C//DTD SVG 1.1//EN" "http://www.w3.org/Graphics/SVG/1.1/DTD/svg11.dtd">
<svg version="1.1" id="Layer_1" xmlns="http://www.w3.org/2000/svg" xmlns:xlink="http://www.w3.org/1999/xlink" x="0px" y="0px"
	 width="50px" height="50px" viewBox="0 0 50 50" enable-background="new 0 0 50 50" xml:space="preserve">
<path d="M30.35,21.441c-1.048-1.178-2.355-1.982-3.794-2.377c0.037-0.129,0.059-0.26,0.109-0.387
	c0.46-1.135,1.437-1.975,2.897-2.496c0.37-0.133,0.562-0.541,0.43-0.912c-0.132-0.369-0.537-0.559-0.911-0.43
	c-1.857,0.665-3.115,1.776-3.735,3.303c-0.09,0.221-0.138,0.446-0.197,0.67c-0.211-0.017-0.421-0.033-0.635-0.033
	c-0.465,0-0.928,0.049-1.386,0.131c0.021-0.415,0.077-0.835,0.186-1.25c0.413-1.582,1.479-2.868,3.173-3.824
	c0.342-0.193,0.463-0.629,0.27-0.971c-0.193-0.346-0.63-0.465-0.97-0.271c-2.042,1.154-3.336,2.738-3.849,4.706
	c-0.176,0.675-0.245,1.349-0.244,2.004c-0.835,0.315-1.62,0.786-2.339,1.365c-0.302-1.496-0.182-3.281,0.925-5.256
	c0.192-0.343,0.069-0.776-0.274-0.97c-0.344-0.19-0.777-0.07-0.969,0.273c-1.515,2.704-1.439,5.133-0.831,7.069
	c-2.552,2.965-2.693,7.163-0.155,10.25c2.034,2.476,7.667,5.464,11.611,5.464c1.051,0,1.931-0.211,2.618-0.627
	c0.715-0.436,1.181-1.344,1.385-2.703C34.199,30.61,32.867,24.273,30.35,21.441z M32.257,33.959
	c-0.188,1.255-0.562,1.604-0.716,1.696c-0.46,0.279-1.091,0.422-1.878,0.422c-3.473,0-8.682-2.719-10.512-4.943
	c-1.916-2.331-1.956-5.434-0.322-7.818c0.955,1.871,2.226,3.003,2.253,3.027c0.135,0.115,0.299,0.174,0.464,0.174
	c0.2,0,0.399-0.084,0.54-0.248c0.256-0.298,0.223-0.746-0.075-1.003c-0.103-0.09-1.401-1.244-2.195-3.106
	c0.082-0.075,0.143-0.163,0.229-0.236c0.542-0.467,1.146-0.823,1.774-1.106c0.369,2.297,1.423,4.067,1.488,4.175
	c0.135,0.22,0.37,0.342,0.609,0.342c0.126,0,0.254-0.033,0.37-0.103c0.336-0.205,0.442-0.644,0.239-0.979
	c-0.015-0.024-1.033-1.757-1.323-3.899c0.433-0.091,0.871-0.146,1.312-0.146c0.139,0,0.271,0.035,0.408,0.044
	c-0.065,2.13,0.822,3.988,0.873,4.092c0.124,0.252,0.376,0.399,0.641,0.399c0.104,0,0.211-0.023,0.312-0.072
	c0.354-0.173,0.499-0.601,0.327-0.953c-0.011-0.019-0.721-1.514-0.731-3.202c1.108,0.34,2.124,0.957,2.94,1.876
	C31.455,24.829,32.732,30.79,32.257,33.959z"/>
</svg>
