<?xml version="1.0" encoding="utf-8"?>
<!-- Generator: Adobe Illustrator 16.0.4, SVG Export Plug-In . SVG Version: 6.00 Build 0)  -->
<!DOCTYPE svg PUBLIC "-//W3C//DTD SVG 1.1//EN" "http://www.w3.org/Graphics/SVG/1.1/DTD/svg11.dtd">
<svg version="1.1" id="Layer_1" xmlns="http://www.w3.org/2000/svg" xmlns:xlink="http://www.w3.org/1999/xlink" x="0px" y="0px"
	 width="50px" height="50px" viewBox="0 0 50 50" enable-background="new 0 0 50 50" xml:space="preserve">
<g>
	<path d="M34.747,32.509c-0.207-2.008-0.947-3.55-1.541-4.789c-0.471-0.98-0.842-1.757-0.719-2.298
		c1.515-6.65,0.586-12.227,0.253-13.833c-0.179-0.912-0.695-1.287-1.097-1.441c-1.193-0.458-3.162,0.33-5.842,2.347
		c-2.533,1.906-6.021,2.652-6.057,2.66c-0.156,0.032-0.287,0.138-0.353,0.283c-1.76,3.888,0.692,6.264,1.934,7.161
		c-8.461,6.785-5.747,16.688-5.718,16.789c0.075,0.267,0.349,0.415,0.617,0.343c0.266-0.074,0.42-0.353,0.344-0.617
		c-0.112-0.396-2.662-9.782,5.922-16.151c0.139-0.103,0.214-0.271,0.2-0.443c-0.016-0.172-0.117-0.325-0.271-0.404
		c-0.161-0.082-3.861-2.028-2.214-6.04c0.888-0.214,3.863-1.025,6.197-2.781c2.25-1.693,4.077-2.516,4.882-2.212
		c0.156,0.061,0.374,0.197,0.486,0.767c0.311,1.501,1.21,6.898-0.26,13.352c-0.201,0.882,0.235,1.796,0.792,2.953
		c0.561,1.17,1.258,2.626,1.447,4.461c0.203,1.969,0.011,4.892-0.754,6.667c-0.108,0.253,0.008,0.548,0.262,0.655l0.197,0.041
		c0.193,0,0.378-0.112,0.459-0.303C34.787,37.651,34.957,34.543,34.747,32.509z"/>
	<path d="M25.733,26.606c-1.694,0-3.536,0.744-5.052,2.043c-1.352,1.156-2.305,2.623-2.684,4.132
		c-0.396,1.568-0.128,2.999,0.752,4.025c0.768,0.896,1.941,1.388,3.309,1.388c1.693,0,3.534-0.744,5.051-2.043
		c2.836-2.43,3.702-6.09,1.931-8.157C28.274,27.1,27.101,26.606,25.733,26.606z M26.459,35.393c-1.338,1.146-2.94,1.804-4.399,1.804
		c-1.085,0-1.967-0.359-2.548-1.038c-0.663-0.774-0.855-1.888-0.543-3.134c0.329-1.308,1.169-2.592,2.363-3.613
		c1.338-1.146,2.941-1.804,4.401-1.804c1.085,0,1.966,0.358,2.547,1.037C29.693,30.295,28.876,33.322,26.459,35.393z"/>
	<path d="M27.528,29.651c-0.806-0.552-1.297-0.079-1.546,0.324c0.31-0.74,0.368-1.456-0.053-1.678l-0.088-0.039
		c-0.445-0.171-0.677,0.253-0.677,0.253c0.018,0.568-0.299,1.046-0.564,1.269c-1.271,1.063-0.691,2.441-0.691,2.441l0.104,0.155
		l-0.045,0.005c-0.771-0.794-1.247-0.986-1.529-0.798c-0.933,0.617,0.561,2.438,0.561,2.438c-1.377-1.574-2.382-0.918-2.554-0.742
		c-1.193,1.219-0.408,2.841,0.297,3.261c2.325,1.388,3.069-1.372,3.069-1.372c2.005,0.666,3.068-1.016,3.584-1.888
		C29.099,30.388,27.528,29.651,27.528,29.651z"/>
</g>
</svg>
