<?xml version="1.0" encoding="utf-8"?>
<!-- Generator: Adobe Illustrator 16.0.4, SVG Export Plug-In . SVG Version: 6.00 Build 0)  -->
<!DOCTYPE svg PUBLIC "-//W3C//DTD SVG 1.1//EN" "http://www.w3.org/Graphics/SVG/1.1/DTD/svg11.dtd">
<svg version="1.1" id="Layer_1" xmlns="http://www.w3.org/2000/svg" xmlns:xlink="http://www.w3.org/1999/xlink" x="0px" y="0px"
	 width="50px" height="50px" viewBox="0 0 50 50" enable-background="new 0 0 50 50" xml:space="preserve">
<path d="M24.439,23.014c-0.159,0-0.317,0.022-0.477,0.045c0.013-0.131,0.028-0.264,0.062-0.396c0.169-0.647,0.608-1.179,1.309-1.573
	c0.195-0.109,0.264-0.359,0.153-0.555c-0.111-0.197-0.359-0.264-0.556-0.154c-0.897,0.51-1.469,1.206-1.694,2.077
	c-0.071,0.272-0.095,0.545-0.099,0.812c-0.294,0.117-0.568,0.281-0.831,0.475c-0.086-0.588-0.009-1.271,0.408-2.018
	c0.11-0.196,0.04-0.443-0.156-0.555c-0.194-0.109-0.443-0.041-0.554,0.156c-0.648,1.161-0.632,2.205-0.381,3.046
	c-1.091,1.303-1.138,3.129-0.03,4.477c0.884,1.074,3.332,2.375,5.046,2.375c0.469,0,0.861-0.096,1.172-0.283
	c0.334-0.203,0.549-0.615,0.641-1.229c0.231-1.543-0.347-4.295-1.441-5.527C26.34,23.43,25.427,23.014,24.439,23.014z
	 M27.649,29.592c-0.062,0.404-0.178,0.605-0.258,0.656c-0.182,0.107-0.434,0.164-0.75,0.164c-1.46,0-3.647-1.145-4.418-2.078
	c-0.75-0.914-0.802-2.115-0.227-3.076c0.406,0.728,0.896,1.162,0.907,1.171c0.077,0.064,0.171,0.098,0.265,0.098
	c0.114,0,0.229-0.047,0.308-0.141c0.147-0.17,0.13-0.426-0.039-0.574c-0.042-0.037-0.555-0.492-0.885-1.232
	c0.017-0.014,0.026-0.028,0.041-0.043c0.191-0.164,0.401-0.293,0.619-0.4c0.179,0.937,0.595,1.646,0.622,1.689
	c0.077,0.125,0.212,0.195,0.348,0.195c0.073,0,0.146-0.02,0.212-0.061c0.192-0.117,0.254-0.365,0.138-0.558
	c-0.007-0.01-0.401-0.687-0.537-1.534c0.146-0.024,0.295-0.041,0.444-0.041c0.751,0,1.448,0.319,1.965,0.899
	C27.315,25.752,27.851,28.26,27.649,29.592z M15.645,32.188h18.712c0.226,0,0.406-0.182,0.406-0.404V19.845
	c0-0.225-0.182-0.407-0.406-0.407H15.645c-0.226,0-0.406,0.184-0.406,0.407v11.938C15.237,32.006,15.419,32.188,15.645,32.188z
	 M16.051,20.252h17.898v11.123H16.051V20.252z M39.593,16.897H10.407c-0.227,0-0.407,0.183-0.407,0.405
	c0,0.226,0.182,0.407,0.407,0.407h2.39v15.269c0,0.91,0.739,1.65,1.648,1.65h21.108c0.909,0,1.648-0.74,1.648-1.65V17.709h2.39
	c0.227,0,0.407-0.182,0.407-0.407C40,17.08,39.818,16.897,39.593,16.897z M36.39,32.979c0,0.461-0.374,0.836-0.835,0.836H14.446
	c-0.461,0-0.835-0.375-0.835-0.836V17.709H36.39V32.979z M10,15.778c0-0.225,0.182-0.406,0.407-0.406h29.186
	c0.227,0,0.407,0.184,0.407,0.406c0,0.226-0.182,0.406-0.407,0.406H10.407C10.182,16.186,10,16.003,10,15.778z"/>
</svg>
