<?xml version="1.0" encoding="utf-8"?>
<!-- Generator: Adobe Illustrator 16.0.4, SVG Export Plug-In . SVG Version: 6.00 Build 0)  -->
<!DOCTYPE svg PUBLIC "-//W3C//DTD SVG 1.1//EN" "http://www.w3.org/Graphics/SVG/1.1/DTD/svg11.dtd">
<svg version="1.1" id="Layer_1" xmlns="http://www.w3.org/2000/svg" xmlns:xlink="http://www.w3.org/1999/xlink" x="0px" y="0px"
	 width="50px" height="50px" viewBox="0 0 50 50" enable-background="new 0 0 50 50" xml:space="preserve">
<g>
	<path d="M30.381,14.585c-0.907-0.692-1.694-0.885-2.347-0.568c-1.025,0.5-1.071,2.016-1.073,2.215
		c0.031,0.946-0.168,1.402-0.365,1.514c-0.148,0.085-0.436,0.024-0.72-0.159c-0.422-0.272-0.635-0.662-0.621-0.828
		c0.238-2.651-1.539-3.82-2.791-3.959c-1.731-0.198-3.144,0.159-4.208,1.046c-1.623,1.355-1.782,3.456-1.79,3.58
		c-0.059,4.363,3.324,4.436,5.141,4.473c0.354,0.008,0.678,0.013,0.941,0.048c1.19,0.162,1.344,1.188,1.456,2.861
		c0.044,0.66,0.085,1.281,0.285,1.759c1.137,2.707,1.355,9.969,1.356,10.042c0.011,0.358,0.305,0.644,0.662,0.644h0.018
		c0.366-0.01,0.655-0.314,0.644-0.68c-0.009-0.309-0.228-7.584-1.457-10.517c-0.115-0.274-0.151-0.813-0.187-1.335
		c-0.099-1.5-0.252-3.769-2.601-4.084c-0.304-0.042-0.679-0.052-1.09-0.06c-2.275-0.049-3.882-0.301-3.845-3.095
		c0.001-0.016,0.136-1.641,1.326-2.625c0.776-0.643,1.857-0.889,3.202-0.74c0.679,0.075,1.783,0.692,1.619,2.524
		c-0.075,0.83,0.56,1.632,1.222,2.06c0.713,0.46,1.495,0.535,2.089,0.198c0.732-0.415,1.081-1.327,1.037-2.678
		c0.008-0.398,0.152-0.927,0.33-1.013c0.083-0.042,0.396-0.005,0.962,0.429c1.95,1.487,2.908,3.536,2.565,5.478
		c-0.146,0.827-0.765,2.539-1.174,3.671c-0.19,0.53-0.344,0.955-0.401,1.154c-0.57,1.96-0.21,6.022,0.026,8.711
		c0.072,0.82,0.132,1.455,0.132,1.755c0,0.366,0.296,0.662,0.662,0.662c0.365,0,0.661-0.296,0.661-0.662
		c0-0.321-0.059-0.997-0.136-1.871c-0.202-2.271-0.576-6.502-0.074-8.225c0.054-0.186,0.197-0.579,0.375-1.074
		c0.45-1.247,1.067-2.952,1.231-3.891C33.878,18.907,32.732,16.379,30.381,14.585z"/>
</g>
</svg>
