<?xml version="1.0" encoding="utf-8"?>
<!-- Generator: Adobe Illustrator 16.0.4, SVG Export Plug-In . SVG Version: 6.00 Build 0)  -->
<!DOCTYPE svg PUBLIC "-//W3C//DTD SVG 1.1//EN" "http://www.w3.org/Graphics/SVG/1.1/DTD/svg11.dtd">
<svg version="1.1" id="Layer_1" xmlns="http://www.w3.org/2000/svg" xmlns:xlink="http://www.w3.org/1999/xlink" x="0px" y="0px"
	 width="50px" height="50px" viewBox="0 0 50 50" enable-background="new 0 0 50 50" xml:space="preserve">
<g>
	<path d="M35.695,29.01c-0.207-0.222-0.447-0.407-0.674-0.531c-0.475-0.323-1.066-0.352-1.695-0.379
		c-0.491-0.021-0.998-0.045-1.43-0.218c-0.917-0.365-2.24-1.375-3.858-2.928c1.575-1.501,2.838-2.438,3.751-2.774
		c0.417-0.153,0.904-0.146,1.372-0.136c0.557,0.011,1.131,0.021,1.549-0.23c0.281-0.131,0.536-0.301,0.757-0.508
		c0.771-0.724,1.092-1.81,0.832-2.837c-0.12-0.474-0.358-0.913-0.692-1.271c-0.467-0.499-1.086-0.812-1.752-0.897
		c-0.04-0.671-0.312-1.311-0.778-1.811c-0.334-0.358-0.757-0.627-1.222-0.777c-1.007-0.329-2.112-0.083-2.888,0.64
		c-0.222,0.207-0.407,0.447-0.531,0.674c-0.322,0.474-0.351,1.066-0.378,1.694c-0.022,0.491-0.047,0.999-0.219,1.431
		c-0.363,0.911-1.322,2.179-2.837,3.766c-1.499-1.573-2.479-2.864-2.839-3.766c-0.172-0.432-0.195-0.939-0.218-1.431
		c-0.028-0.628-0.056-1.221-0.354-1.654c-0.148-0.267-0.335-0.507-0.558-0.715c-0.767-0.717-1.897-0.96-2.884-0.639
		c-0.467,0.15-0.89,0.419-1.224,0.777c-0.468,0.5-0.738,1.14-0.778,1.811c-0.666,0.088-1.29,0.404-1.753,0.898
		c-0.333,0.358-0.572,0.798-0.693,1.272c-0.258,1.026,0.062,2.112,0.834,2.837c0.22,0.206,0.475,0.376,0.711,0.482
		c0.383,0.228,0.837,0.259,1.271,0.259l0.649-0.008c0.328,0,0.709,0.017,1.045,0.141c0.901,0.331,2.188,1.288,3.752,2.775
		c-1.63,1.566-2.93,2.554-3.858,2.926c-0.432,0.173-0.938,0.195-1.43,0.218c-0.629,0.027-1.222,0.056-1.655,0.354
		c-0.267,0.148-0.507,0.335-0.715,0.559c-0.723,0.772-0.967,1.879-0.639,2.883c0.15,0.467,0.42,0.891,0.778,1.225
		c0.499,0.467,1.138,0.738,1.81,0.778c0.086,0.666,0.399,1.285,0.898,1.753c0.358,0.333,0.798,0.572,1.272,0.692
		c0.235,0.06,0.474,0.089,0.71,0.089c0.795,0,1.569-0.326,2.127-0.923c0.206-0.22,0.376-0.475,0.482-0.711
		c0.276-0.464,0.266-1.039,0.256-1.596c-0.009-0.469-0.018-0.954,0.136-1.37c0.337-0.919,1.33-2.247,2.864-3.847
		c1.909,1.993,2.618,3.182,2.863,3.846c0.153,0.417,0.145,0.903,0.137,1.372c-0.01,0.557-0.021,1.131,0.23,1.55
		c0.131,0.281,0.301,0.536,0.508,0.757c0.557,0.595,1.311,0.922,2.123,0.922c0.24,0,0.479-0.03,0.714-0.09
		c0.474-0.119,0.913-0.358,1.272-0.692c0.499-0.468,0.812-1.087,0.896-1.753c0.677-0.041,1.313-0.312,1.811-0.777
		c0.358-0.335,0.629-0.759,0.777-1.223C36.663,30.891,36.419,29.784,35.695,29.01z M28.769,18.52
		c0.234-0.588,0.264-1.209,0.289-1.756c0.021-0.482,0.042-0.938,0.229-1.216c0.097-0.175,0.22-0.333,0.364-0.469
		c0.508-0.473,1.23-0.633,1.896-0.418c0.306,0.099,0.581,0.274,0.8,0.508c0.39,0.417,0.57,0.979,0.498,1.546
		c-0.019,0.146,0.029,0.295,0.132,0.403c0.102,0.108,0.243,0.178,0.394,0.158c0.569-0.028,1.119,0.187,1.507,0.602
		c0.219,0.235,0.377,0.524,0.455,0.835c0.17,0.674-0.04,1.388-0.545,1.862c-0.144,0.133-0.31,0.244-0.539,0.354
		c-0.22,0.129-0.63,0.122-1.064,0.114c-0.534-0.009-1.143-0.021-1.736,0.197c-1.044,0.385-2.433,1.402-4.119,3.012
		c-0.101-0.101-0.197-0.195-0.3-0.299l-0.938-0.938c-0.135-0.132-0.257-0.257-0.386-0.386C27.32,20.937,28.356,19.553,28.769,18.52z
		 M21.199,31.487c-0.217,0.592-0.206,1.198-0.196,1.733c0.008,0.436,0.016,0.847-0.14,1.111c-0.085,0.186-0.196,0.352-0.328,0.493
		c-0.477,0.507-1.19,0.714-1.862,0.547c-0.312-0.079-0.601-0.237-0.835-0.455c-0.415-0.389-0.635-0.938-0.603-1.508
		c0.009-0.148-0.05-0.293-0.158-0.394c-0.108-0.102-0.257-0.151-0.403-0.132c-0.571,0.071-1.129-0.108-1.544-0.499
		c-0.238-0.222-0.41-0.49-0.51-0.802c-0.216-0.66-0.056-1.385,0.417-1.892c0.137-0.146,0.295-0.27,0.51-0.391
		c0.238-0.162,0.693-0.184,1.176-0.205c0.548-0.024,1.168-0.054,1.756-0.288c1.067-0.427,2.447-1.465,4.204-3.155
		c0.129,0.129,0.255,0.253,0.388,0.389l0.937,0.938c0.106,0.104,0.192,0.193,0.293,0.294C22.639,29.003,21.591,30.422,21.199,31.487
		z M35.384,31.587c-0.099,0.306-0.273,0.581-0.51,0.802c-0.411,0.386-0.983,0.566-1.544,0.498c-0.156-0.021-0.296,0.029-0.403,0.131
		c-0.108,0.102-0.167,0.245-0.157,0.394c0.031,0.569-0.188,1.119-0.603,1.507c-0.234,0.22-0.523,0.377-0.835,0.455
		c-0.672,0.171-1.389-0.041-1.862-0.545c-0.133-0.144-0.243-0.31-0.354-0.539c-0.13-0.22-0.122-0.631-0.115-1.065
		c0.01-0.536,0.021-1.144-0.196-1.735c-0.464-1.261-1.843-3.018-4.095-5.218l-0.929-0.93c-2.202-2.255-3.959-3.634-5.222-4.098
		c-0.483-0.179-0.975-0.202-1.391-0.202l-0.649,0.008c-0.278,0-0.585-0.014-0.807-0.143c-0.185-0.085-0.351-0.196-0.493-0.328
		c-0.506-0.476-0.716-1.189-0.547-1.862c0.079-0.312,0.237-0.601,0.455-0.835c0.365-0.391,0.861-0.605,1.398-0.605l0.109,0.003
		c0.146,0.021,0.292-0.05,0.394-0.158s0.149-0.257,0.131-0.403c-0.072-0.566,0.109-1.129,0.498-1.546
		c0.219-0.233,0.495-0.409,0.802-0.508c0.648-0.211,1.39-0.052,1.893,0.417c0.146,0.137,0.269,0.295,0.39,0.51
		c0.163,0.238,0.184,0.693,0.205,1.176c0.025,0.547,0.054,1.168,0.289,1.756c0.499,1.25,1.896,3.003,4.148,5.207l0.931,0.93
		c2.21,2.257,3.963,3.654,5.211,4.152c0.588,0.234,1.208,0.264,1.756,0.288c0.482,0.021,0.938,0.043,1.216,0.229
		c0.175,0.097,0.333,0.22,0.469,0.364C35.44,30.2,35.601,30.925,35.384,31.587z"/>
</g>
</svg>
