<?xml version="1.0" encoding="utf-8"?>
<!-- Generator: Adobe Illustrator 16.0.4, SVG Export Plug-In . SVG Version: 6.00 Build 0)  -->
<!DOCTYPE svg PUBLIC "-//W3C//DTD SVG 1.1//EN" "http://www.w3.org/Graphics/SVG/1.1/DTD/svg11.dtd">
<svg version="1.1" id="Layer_1" xmlns="http://www.w3.org/2000/svg" xmlns:xlink="http://www.w3.org/1999/xlink" x="0px" y="0px"
	 width="50px" height="50px" viewBox="0 0 50 50" enable-background="new 0 0 50 50" xml:space="preserve">
<path d="M29.604,27.246c-0.252-0.172-0.554-0.186-0.844-0.199c-0.201-0.008-0.41-0.018-0.57-0.082
	c-0.264-0.105-0.729-0.395-1.502-1.119c0.75-0.697,1.199-0.958,1.449-1.05c0.15-0.057,0.338-0.053,0.538-0.049
	c0.267,0.002,0.55,0.01,0.767-0.119c0.145-0.068,0.272-0.154,0.382-0.256c0.391-0.365,0.552-0.916,0.421-1.434
	c-0.061-0.238-0.182-0.463-0.352-0.646c-0.201-0.215-0.459-0.362-0.74-0.428c-0.045-0.285-0.176-0.554-0.377-0.769
	c-0.17-0.182-0.385-0.318-0.616-0.393c-0.511-0.164-1.067-0.043-1.459,0.322c-0.111,0.104-0.206,0.225-0.263,0.328
	c-0.172,0.254-0.187,0.555-0.199,0.846c-0.01,0.201-0.018,0.41-0.081,0.57c-0.101,0.25-0.374,0.701-1.08,1.461
	c-0.697-0.748-0.979-1.203-1.081-1.461c-0.062-0.16-0.073-0.369-0.083-0.57c-0.013-0.291-0.026-0.592-0.181-0.814
	c-0.074-0.135-0.17-0.256-0.28-0.359c-0.388-0.358-0.96-0.481-1.456-0.323c-0.234,0.075-0.45,0.213-0.62,0.396
	c-0.201,0.217-0.331,0.481-0.377,0.768c-0.281,0.066-0.54,0.215-0.74,0.428c-0.17,0.182-0.29,0.406-0.351,0.645
	c-0.131,0.519,0.031,1.068,0.42,1.433c0.109,0.104,0.238,0.188,0.348,0.239c0.207,0.121,0.438,0.14,0.654,0.14l0.288-0.004
	c0.128,0,0.276,0.006,0.396,0.051c0.258,0.095,0.709,0.365,1.45,1.051c-0.784,0.734-1.247,1.018-1.501,1.119
	c-0.162,0.062-0.37,0.074-0.57,0.082c-0.291,0.014-0.593,0.027-0.812,0.18c-0.137,0.076-0.258,0.17-0.361,0.281
	c-0.365,0.393-0.488,0.951-0.322,1.459c0.076,0.236,0.213,0.451,0.393,0.617c0.216,0.203,0.482,0.332,0.77,0.379
	c0.064,0.279,0.211,0.537,0.428,0.74c0.182,0.168,0.404,0.289,0.644,0.35c0.119,0.029,0.239,0.043,0.358,0.043
	c0.4,0,0.793-0.164,1.074-0.465c0.104-0.109,0.189-0.238,0.237-0.346c0.148-0.25,0.144-0.531,0.14-0.805
	c-0.004-0.197-0.008-0.387,0.049-0.537c0.093-0.254,0.363-0.715,1.088-1.49c0.715,0.766,0.994,1.229,1.09,1.488
	c0.057,0.152,0.053,0.344,0.05,0.539c-0.006,0.271-0.011,0.555,0.119,0.77c0.065,0.143,0.151,0.27,0.257,0.383
	c0.277,0.295,0.67,0.465,1.073,0.465c0.121,0,0.242-0.016,0.358-0.045c0.238-0.061,0.463-0.182,0.646-0.352
	c0.215-0.201,0.36-0.459,0.427-0.738c0.287-0.047,0.553-0.178,0.769-0.377c0.181-0.168,0.315-0.383,0.395-0.619
	c0.165-0.508,0.041-1.066-0.323-1.459C29.829,27.396,29.707,27.303,29.604,27.246z M26.912,23.075
	c0.115-0.289,0.128-0.58,0.14-0.836c0.009-0.162,0.017-0.361,0.077-0.453c0.034-0.062,0.076-0.117,0.126-0.162
	c0.177-0.164,0.429-0.217,0.653-0.145c0.104,0.033,0.197,0.094,0.273,0.174c0.133,0.145,0.195,0.338,0.172,0.533
	c-0.016,0.119,0.022,0.237,0.105,0.328c0.083,0.088,0.2,0.143,0.32,0.127c0.195-0.013,0.386,0.063,0.518,0.207
	c0.077,0.084,0.131,0.18,0.157,0.286c0.06,0.232-0.013,0.479-0.188,0.644c-0.047,0.045-0.104,0.082-0.203,0.131
	c-0.051,0.031-0.244,0.029-0.373,0.023c-0.24-0.002-0.539-0.009-0.834,0.1c-0.463,0.17-1.043,0.59-1.748,1.248
	c-0.002-0.004-0.004-0.004-0.006-0.008l-0.416-0.414c-0.017-0.017-0.027-0.029-0.045-0.045
	C26.303,24.106,26.729,23.53,26.912,23.075z M23.223,28.664c-0.106,0.295-0.102,0.594-0.098,0.834
	c0.002,0.127,0.006,0.32-0.044,0.408c-0.03,0.064-0.067,0.123-0.11,0.168c-0.166,0.176-0.414,0.246-0.645,0.189
	c-0.105-0.027-0.204-0.08-0.286-0.156c-0.142-0.133-0.217-0.322-0.207-0.52c0.007-0.121-0.04-0.238-0.129-0.32
	c-0.088-0.08-0.209-0.123-0.328-0.105c-0.192,0.023-0.388-0.039-0.53-0.172c-0.08-0.074-0.142-0.17-0.176-0.275
	c-0.074-0.227-0.02-0.477,0.145-0.652c0.047-0.049,0.101-0.09,0.193-0.145c0.062-0.041,0.262-0.051,0.422-0.059
	c0.256-0.01,0.547-0.023,0.836-0.139c0.463-0.186,1.053-0.625,1.78-1.309c0.017,0.016,0.029,0.027,0.046,0.045l0.415,0.416
	c0.001,0,0.001,0,0.002,0.002C23.827,27.602,23.396,28.193,23.223,28.664z M29.482,28.715c-0.034,0.105-0.096,0.201-0.176,0.275
	c-0.143,0.133-0.328,0.197-0.531,0.172c-0.118-0.018-0.24,0.025-0.327,0.105c-0.089,0.082-0.136,0.199-0.13,0.32
	c0.012,0.197-0.064,0.387-0.205,0.52c-0.084,0.076-0.18,0.129-0.288,0.156c-0.228,0.059-0.479-0.016-0.642-0.188
	c-0.045-0.049-0.082-0.105-0.131-0.205c-0.031-0.055-0.027-0.246-0.025-0.373c0.005-0.24,0.01-0.539-0.1-0.834
	c-0.218-0.596-0.824-1.369-1.85-2.371l-0.409-0.408c-1.004-1.029-1.78-1.635-2.374-1.854c-0.24-0.089-0.477-0.101-0.678-0.101
	l-0.288,0.002c-0.17,0-0.224-0.016-0.274-0.043c-0.064-0.031-0.123-0.067-0.17-0.115c-0.175-0.161-0.246-0.407-0.188-0.641
	c0.025-0.107,0.078-0.203,0.154-0.287c0.127-0.133,0.32-0.229,0.52-0.207c0.119,0.017,0.238-0.039,0.32-0.127
	c0.082-0.09,0.121-0.209,0.105-0.328c-0.023-0.194,0.038-0.389,0.172-0.533c0.075-0.079,0.17-0.141,0.275-0.174
	c0.225-0.071,0.479-0.018,0.65,0.146c0.051,0.045,0.092,0.101,0.146,0.19c0.043,0.062,0.051,0.263,0.06,0.425
	c0.012,0.256,0.023,0.547,0.141,0.836c0.232,0.582,0.846,1.356,1.871,2.36l0.41,0.408c1.006,1.029,1.78,1.643,2.363,1.875
	c0.29,0.117,0.58,0.131,0.836,0.141c0.161,0.01,0.361,0.02,0.455,0.078c0.061,0.035,0.115,0.076,0.161,0.125
	C29.502,28.238,29.557,28.488,29.482,28.715z M15.645,32.188h18.711c0.227,0,0.408-0.182,0.408-0.404V19.846
	c0-0.225-0.183-0.406-0.408-0.406H15.645c-0.226,0-0.406,0.183-0.406,0.406v11.937C15.236,32.006,15.419,32.188,15.645,32.188z
	 M16.051,20.252h17.898v11.123H16.051V20.252z M39.593,16.897H10.407c-0.226,0-0.407,0.182-0.407,0.405s0.182,0.408,0.407,0.408
	h2.39v15.27c0,0.908,0.739,1.648,1.648,1.648h21.109c0.908,0,1.647-0.74,1.647-1.648V17.71h2.39c0.227,0,0.407-0.185,0.407-0.408
	S39.818,16.897,39.593,16.897z M36.391,32.98c0,0.461-0.375,0.834-0.836,0.834H14.445c-0.461,0-0.834-0.373-0.834-0.834V17.71
	h22.779V32.98L36.391,32.98z M10,15.778c0-0.226,0.182-0.406,0.407-0.406h29.186c0.226,0,0.407,0.182,0.407,0.406
	c0,0.224-0.182,0.408-0.407,0.408H10.407C10.182,16.186,10,16.002,10,15.778z"/>
</svg>
