<?xml version="1.0" encoding="utf-8"?>
<!-- Generator: Adobe Illustrator 16.0.4, SVG Export Plug-In . SVG Version: 6.00 Build 0)  -->
<!DOCTYPE svg PUBLIC "-//W3C//DTD SVG 1.1//EN" "http://www.w3.org/Graphics/SVG/1.1/DTD/svg11.dtd">
<svg version="1.1" id="Layer_1" xmlns="http://www.w3.org/2000/svg" xmlns:xlink="http://www.w3.org/1999/xlink" x="0px" y="0px"
	 width="50px" height="50px" viewBox="0 0 50 50" enable-background="new 0 0 50 50" xml:space="preserve">
<g>
	<path d="M36.726,32.87c-0.117-0.117-0.25-0.21-0.39-0.282c-0.546-0.346-1.573-0.332-2.42-0.243l-7.345-7.344l7.345-7.345
		c0.847,0.089,1.874,0.104,2.42-0.243c0.142-0.071,0.272-0.165,0.39-0.282c0.412-0.412,0.541-0.997,0.392-1.519
		c-0.069-0.242-0.199-0.471-0.392-0.662c-0.338-0.338-0.791-0.486-1.231-0.444c0.04-0.442-0.106-0.897-0.445-1.235
		c-0.19-0.19-0.42-0.319-0.661-0.391c-0.521-0.149-1.107-0.02-1.519,0.391c-0.117,0.119-0.211,0.25-0.282,0.391
		c-0.346,0.545-0.332,1.573-0.243,2.42L25,23.427l-7.347-7.345c0.092-0.847,0.104-1.876-0.24-2.42
		c-0.071-0.141-0.165-0.272-0.282-0.391c-0.411-0.41-0.996-0.54-1.519-0.391c-0.241,0.071-0.471,0.2-0.661,0.391
		c-0.339,0.338-0.485,0.793-0.444,1.232c-0.441-0.041-0.896,0.109-1.234,0.447c-0.189,0.191-0.32,0.418-0.392,0.662
		c-0.147,0.522-0.021,1.106,0.392,1.519c0.119,0.117,0.25,0.21,0.392,0.282c0.546,0.346,1.571,0.331,2.419,0.241L23.428,25
		l-7.344,7.344c-0.849-0.089-1.876-0.104-2.42,0.243c-0.142,0.071-0.272,0.165-0.392,0.282c-0.41,0.412-0.539,0.997-0.392,1.52
		c0.071,0.241,0.2,0.471,0.392,0.661c0.338,0.339,0.793,0.486,1.232,0.444c-0.041,0.441,0.107,0.896,0.446,1.234
		c0.19,0.19,0.419,0.321,0.661,0.392c0.521,0.149,1.106,0.021,1.519-0.392c0.117-0.119,0.211-0.25,0.282-0.391
		c0.346-0.545,0.331-1.572,0.24-2.418L25,26.574l7.344,7.344c-0.089,0.846-0.104,1.875,0.243,2.42
		c0.068,0.141,0.165,0.271,0.282,0.391c0.411,0.412,0.996,0.541,1.519,0.391c0.241-0.07,0.471-0.198,0.661-0.391
		c0.339-0.338,0.485-0.793,0.444-1.232c0.441,0.041,0.896-0.107,1.232-0.445c0.191-0.191,0.321-0.42,0.394-0.662
		C37.267,33.866,37.138,33.279,36.726,32.87z"/>
</g>
</svg>
