<?xml version="1.0" encoding="utf-8"?>
<!-- Generator: Adobe Illustrator 16.0.4, SVG Export Plug-In . SVG Version: 6.00 Build 0)  -->
<!DOCTYPE svg PUBLIC "-//W3C//DTD SVG 1.1//EN" "http://www.w3.org/Graphics/SVG/1.1/DTD/svg11.dtd">
<svg version="1.1" id="Layer_1" xmlns="http://www.w3.org/2000/svg" xmlns:xlink="http://www.w3.org/1999/xlink" x="0px" y="0px"
	 width="50px" height="50px" viewBox="0 0 50 50" enable-background="new 0 0 50 50" xml:space="preserve">
<path d="M18.871,26.918c0.475,0,0.859,0.385,0.859,0.859c0,0.476-0.385,0.859-0.859,0.859s-0.859-0.385-0.859-0.859
	S18.396,26.918,18.871,26.918z M31.129,18.375c-0.277,0-0.5,0.224-0.5,0.5s0.223,0.5,0.5,0.5c3.102,0,5.625,2.523,5.625,5.625
	c0,3.102-2.523,5.625-5.625,5.625S25.504,28.102,25.504,25c0-0.276-0.225-0.5-0.5-0.5c-0.002,0-0.002,0-0.004,0s-0.002,0-0.004,0
	c-0.275,0-0.5,0.224-0.5,0.5c0,3.102-2.523,5.625-5.625,5.625S13.246,28.102,13.246,25c0-3.102,2.523-5.625,5.625-5.625
	c0.277,0,0.5-0.224,0.5-0.5s-0.223-0.5-0.5-0.5c-3.652,0-6.625,2.972-6.625,6.625c0,3.652,2.973,6.625,6.625,6.625
	c2.766,0,5.139-1.704,6.129-4.116c0.99,2.412,3.363,4.116,6.129,4.116c3.652,0,6.625-2.973,6.625-6.625
	C37.754,21.347,34.781,18.375,31.129,18.375z M31.129,28.639c0.475,0,0.859-0.386,0.859-0.859c0-0.477-0.385-0.86-0.859-0.86
	s-0.859,0.386-0.859,0.86C30.27,28.253,30.654,28.639,31.129,28.639z"/>
</svg>
