<?xml version="1.0" encoding="utf-8"?>
<!-- Generator: Adobe Illustrator 16.0.4, SVG Export Plug-In . SVG Version: 6.00 Build 0)  -->
<!DOCTYPE svg PUBLIC "-//W3C//DTD SVG 1.1//EN" "http://www.w3.org/Graphics/SVG/1.1/DTD/svg11.dtd">
<svg version="1.1" id="Layer_1" xmlns="http://www.w3.org/2000/svg" xmlns:xlink="http://www.w3.org/1999/xlink" x="0px" y="0px"
	 width="50px" height="50px" viewBox="0 0 50 50" enable-background="new 0 0 50 50" xml:space="preserve">
<g>
	<path d="M17.139,38.421c0,0-6.418-8.862-1.427-22.819c0,0,2.037-9.065,11.613-7.64c0,0,8.354,0.306,8.863,14.058l-0.103,14.873
		c0,0-3.464,0.918-4.891-3.056c0,0-0.713,4.075,0.408,6.315c0,0-2.038-4.687-1.732-8.252c0,0-1.73,6.52-0.609,8.761
		c0,0-1.632-7.741-1.021-10.595c0,0,4.788-2.953,3.057-10.695c0,0-2.548-3.871-4.277-4.482c0,0-2.445,2.854-3.975,3.158
		c0,0,0.713-0.714,1.223-1.527c0,0-3.157,2.342-4.788,2.75c0,0-2.954,7.028,3.26,10.696c0,0-1.121,8.966-3.26,10.493
		c0,0,0.306-1.732,0.103-4.279c0,0-0.917,5.705-2.853,6.01c0,0,1.731-2.139,1.324-6.416C18.056,35.771,16.731,37.3,17.139,38.421z"
		/>
</g>
</svg>
