<?xml version="1.0" encoding="utf-8"?>
<!-- Generator: Adobe Illustrator 16.0.4, SVG Export Plug-In . SVG Version: 6.00 Build 0)  -->
<!DOCTYPE svg PUBLIC "-//W3C//DTD SVG 1.1//EN" "http://www.w3.org/Graphics/SVG/1.1/DTD/svg11.dtd">
<svg version="1.1" id="Layer_1" xmlns="http://www.w3.org/2000/svg" xmlns:xlink="http://www.w3.org/1999/xlink" x="0px" y="0px"
	 width="50px" height="50px" viewBox="0 0 50 50" enable-background="new 0 0 50 50" xml:space="preserve">
<path d="M31.681,14.665c-0.275-0.241-0.695-0.208-0.935,0.066c-0.24,0.276-0.211,0.694,0.063,0.935
	c0.088,0.076,0.67,0.596,1.422,1.509c-5.967-1.773-11.717-0.697-14.513,0.065c0.774-0.95,1.382-1.496,1.472-1.574
	c0.275-0.241,0.306-0.659,0.064-0.935c-0.238-0.274-0.658-0.308-0.936-0.066c-0.092,0.082-9.248,8.218-4.409,20.413
	c0.104,0.261,0.353,0.418,0.616,0.418c0.082,0,0.164-0.016,0.244-0.046c0.342-0.135,0.508-0.521,0.373-0.861
	c-1.117-2.812-1.445-5.376-1.311-7.648c0.331-0.178,5.288-2.783,8.229-1.049c1.365,0.806,2.115,2.493,2.246,5.007v1.077
	c-0.07,1.127-0.543,2.062-0.884,2.357c-0.274,0.241-0.304,0.659-0.063,0.938c0.132,0.149,0.315,0.227,0.5,0.227
	c0.156,0,0.311-0.054,0.438-0.163c0.044-0.039,0.088-0.091,0.135-0.137c0.118,0.177,0.311,0.3,0.539,0.3
	c0.24,0,0.441-0.135,0.559-0.326c0.052,0.057,0.104,0.116,0.158,0.163c0.127,0.109,0.28,0.163,0.437,0.163
	c0.187,0,0.369-0.076,0.5-0.227c0.241-0.277,0.212-0.695-0.063-0.938c-0.359-0.312-0.881-1.334-0.901-2.55
	c0-0.025,0.004-0.05,0.004-0.076c0-0.058-0.007-0.107-0.007-0.165c0.029-2.874,0.789-4.778,2.269-5.65
	c2.979-1.755,8.036,0.943,8.242,1.057c0.136,2.271-0.194,4.832-1.31,7.641c-0.135,0.341,0.031,0.728,0.371,0.861
	c0.08,0.031,0.164,0.046,0.246,0.046c0.264,0,0.512-0.158,0.615-0.418C40.929,22.883,31.772,14.747,31.681,14.665z M27.255,24.747
	c-1.021,0.602-1.773,1.544-2.261,2.799c-0.489-1.255-1.237-2.197-2.261-2.799c-2.885-1.699-6.973-0.175-8.724,0.628
	c0.416-2.598,1.413-4.735,2.429-6.343c0.002-0.001,0.006,0,0.008-0.001c0.086-0.034,8.81-3.307,17.103-0.003
	c0.005,0.002,0.009,0.001,0.015,0.003c1.016,1.609,2.014,3.75,2.43,6.352C34.249,24.581,30.147,23.043,27.255,24.747z"/>
</svg>
