<?xml version="1.0" encoding="utf-8"?>
<!-- Generator: Adobe Illustrator 16.0.4, SVG Export Plug-In . SVG Version: 6.00 Build 0)  -->
<!DOCTYPE svg PUBLIC "-//W3C//DTD SVG 1.1//EN" "http://www.w3.org/Graphics/SVG/1.1/DTD/svg11.dtd">
<svg version="1.1" id="Layer_1" xmlns="http://www.w3.org/2000/svg" xmlns:xlink="http://www.w3.org/1999/xlink" x="0px" y="0px"
	 width="50px" height="50px" viewBox="0 0 50 50" enable-background="new 0 0 50 50" xml:space="preserve">
<path d="M29.275,23.551c2.979-5.713,0.624-10.412,0.521-10.609c-0.127-0.245-0.428-0.342-0.674-0.215
	c-0.245,0.126-0.342,0.428-0.215,0.674c0.021,0.043,2.221,4.43-0.521,9.688c-0.393,0.754-1.024,3.135-0.978,5.172l-1.883-0.846
	c-0.181-0.081-0.391-0.048-0.537,0.083c-3.118-11.925-0.703-14.039-0.625-14.101c0.223-0.148,0.291-0.447,0.149-0.677
	c-0.144-0.238-0.452-0.312-0.687-0.167c-0.343,0.208-3.237,2.422,0.325,15.696l-0.591,0.531c-0.102,0.092-0.161,0.222-0.165,0.359
	l-0.043,1.873l-3.969,3.649c-0.103,0.095-0.161,0.229-0.161,0.368v1.991c0,0.275,0.225,0.5,0.5,0.5h5.358
	c0.108,0,0.214-0.035,0.301-0.102l3.272-2.465c0.119-0.09,0.191-0.228,0.197-0.377l0.236-5.217c0.01-0.205-0.106-0.396-0.294-0.479
	l-0.37-0.167C28.246,26.734,28.939,24.197,29.275,23.551z M27.869,34.301l-2.95,2.224h-4.691v-1.271l3.965-3.646
	c0.1-0.092,0.157-0.222,0.16-0.356l0.043-1.87l1.021-0.919l2.664,1.197L27.869,34.301z M25.088,33.612l1.253-1.252v-1.833
	c0-0.276,0.224-0.5,0.5-0.5s0.5,0.224,0.5,0.5v2.04c0,0.133-0.053,0.26-0.146,0.354l-1.399,1.398
	c-0.098,0.098-0.226,0.146-0.354,0.146s-0.257-0.049-0.354-0.146C24.893,34.124,24.893,33.808,25.088,33.612z M26.744,21.695
	c1.033-3.192,0.235-6.376,0.229-6.408c-0.067-0.268,0.094-0.54,0.36-0.608c0.265-0.07,0.54,0.092,0.608,0.36
	c0.035,0.141,0.876,3.499-0.246,6.965c-0.068,0.211-0.266,0.346-0.477,0.346c-0.051,0-0.103-0.008-0.154-0.024
	C26.803,22.24,26.659,21.958,26.744,21.695z"/>
</svg>
