<?xml version="1.0" encoding="utf-8"?>
<!-- Generator: Adobe Illustrator 16.0.4, SVG Export Plug-In . SVG Version: 6.00 Build 0)  -->
<!DOCTYPE svg PUBLIC "-//W3C//DTD SVG 1.1//EN" "http://www.w3.org/Graphics/SVG/1.1/DTD/svg11.dtd">
<svg version="1.1" id="Layer_1" xmlns="http://www.w3.org/2000/svg" xmlns:xlink="http://www.w3.org/1999/xlink" x="0px" y="0px"
	 width="50px" height="50px" viewBox="0 0 50 50" enable-background="new 0 0 50 50" xml:space="preserve">
<path d="M35.666,25.001c0-5.882-4.783-10.667-10.666-10.667s-10.666,4.784-10.666,10.667c0,2.437,0.807,4.735,2.331,6.646
	c0.004,0.001,0.004,0.002,0.004,0.003c2.038,2.553,5.075,4.016,8.331,4.016c3.252,0,6.291-1.463,8.331-4.016
	c0.004-0.001,0-0.002,0.004-0.003C34.859,29.736,35.666,27.438,35.666,25.001z M25,15.956c4.986,0,9.047,4.058,9.047,9.046
	c0,1.741-0.488,3.396-1.412,4.846c-0.021-0.021-0.044-0.038-0.062-0.059c-0.094-0.097-0.195-0.183-0.295-0.273
	c-0.18-0.169-0.36-0.336-0.549-0.491c-0.119-0.097-0.242-0.185-0.365-0.276c-0.18-0.135-0.36-0.268-0.551-0.391
	c-0.133-0.087-0.266-0.168-0.4-0.249c-0.189-0.11-0.381-0.218-0.576-0.317c-0.143-0.072-0.285-0.142-0.43-0.207
	c-0.2-0.092-0.403-0.174-0.607-0.252c-0.146-0.057-0.292-0.113-0.439-0.162c-0.215-0.071-0.435-0.131-0.655-0.189
	c-0.146-0.038-0.288-0.079-0.433-0.111c-0.248-0.053-0.498-0.091-0.748-0.125c-0.123-0.019-0.25-0.043-0.377-0.058
	c-0.375-0.041-0.76-0.065-1.146-0.065s-0.771,0.024-1.147,0.065c-0.127,0.013-0.248,0.038-0.371,0.058
	c-0.252,0.034-0.506,0.072-0.752,0.127c-0.144,0.031-0.282,0.071-0.424,0.108c-0.227,0.06-0.449,0.119-0.668,0.192
	c-0.146,0.047-0.285,0.103-0.429,0.156c-0.211,0.08-0.417,0.166-0.623,0.258c-0.14,0.064-0.278,0.131-0.418,0.203
	c-0.198,0.102-0.392,0.211-0.585,0.324c-0.133,0.078-0.264,0.156-0.393,0.24c-0.192,0.126-0.381,0.264-0.566,0.402
	c-0.117,0.088-0.232,0.172-0.348,0.266c-0.196,0.16-0.383,0.333-0.569,0.508c-0.092,0.086-0.187,0.167-0.276,0.256
	c-0.021,0.022-0.043,0.041-0.064,0.062c-0.924-1.449-1.412-3.105-1.412-4.846C15.953,20.014,20.014,15.956,25,15.956z
	 M18.378,31.153c0.041-0.044,0.079-0.091,0.12-0.133c0.107-0.114,0.218-0.222,0.332-0.328c0.127-0.118,0.253-0.233,0.386-0.344
	c0.117-0.099,0.237-0.19,0.357-0.283c0.14-0.104,0.282-0.206,0.425-0.303c0.123-0.082,0.25-0.163,0.376-0.238
	c0.151-0.091,0.308-0.174,0.462-0.256c0.13-0.067,0.257-0.134,0.389-0.194c0.166-0.076,0.334-0.143,0.5-0.209
	c0.133-0.051,0.264-0.105,0.396-0.15c0.18-0.061,0.363-0.108,0.547-0.157c0.13-0.034,0.253-0.073,0.383-0.103
	c0.209-0.045,0.422-0.076,0.633-0.106c0.11-0.017,0.219-0.04,0.33-0.052c0.324-0.035,0.654-0.055,0.986-0.055
	s0.658,0.02,0.984,0.055c0.109,0.013,0.222,0.037,0.332,0.052c0.211,0.03,0.42,0.062,0.629,0.106
	c0.131,0.028,0.257,0.068,0.387,0.104c0.184,0.048,0.367,0.098,0.545,0.156c0.137,0.045,0.266,0.1,0.398,0.15
	c0.166,0.066,0.334,0.131,0.496,0.207c0.133,0.062,0.263,0.129,0.393,0.197c0.154,0.081,0.311,0.164,0.459,0.255
	c0.129,0.076,0.253,0.156,0.376,0.238c0.146,0.099,0.292,0.2,0.431,0.307c0.117,0.089,0.234,0.181,0.348,0.274
	c0.138,0.115,0.272,0.236,0.402,0.361c0.107,0.1,0.213,0.199,0.313,0.305c0.044,0.046,0.085,0.097,0.129,0.144
	C29.907,33,27.531,34.045,25,34.045C22.466,34.045,20.089,32.998,18.378,31.153z M26.787,31.185c0,0.987-0.801,1.788-1.787,1.788
	s-1.787-0.801-1.787-1.788c0-0.989,0.801-1.79,1.787-1.79S26.787,30.195,26.787,31.185z"/>
</svg>
