<?xml version="1.0" encoding="utf-8"?>
<!-- Generator: Adobe Illustrator 16.0.4, SVG Export Plug-In . SVG Version: 6.00 Build 0)  -->
<!DOCTYPE svg PUBLIC "-//W3C//DTD SVG 1.1//EN" "http://www.w3.org/Graphics/SVG/1.1/DTD/svg11.dtd">
<svg version="1.1" id="Layer_1" xmlns="http://www.w3.org/2000/svg" xmlns:xlink="http://www.w3.org/1999/xlink" x="0px" y="0px"
	 width="50px" height="50px" viewBox="0 0 50 50" enable-background="new 0 0 50 50" xml:space="preserve">
<path d="M33.902,29.585l-3.639-0.001c-0.134,0-0.261,0.053-0.354,0.146c-0.095,0.093-0.146,0.221-0.146,0.354
	c0,0.938-0.896,1.702-1.996,1.702h-0.494H24.54c0.148-0.281,0.24-0.603,0.241-0.947c0.001-0.541-0.208-1.062-0.573-1.428
	c-0.009-0.009-0.019-0.015-0.027-0.022c0.365-0.355,0.599-0.865,0.601-1.435c0.001-0.541-0.208-1.062-0.573-1.429
	c-0.013-0.012-0.029-0.021-0.043-0.035c0.374-0.356,0.615-0.87,0.616-1.448c0.001-0.541-0.208-1.062-0.573-1.428
	c-0.021-0.021-0.044-0.035-0.065-0.054c0.271-0.25,0.471-0.583,0.568-0.964c0.03,0,0.054,0.004,0.085,0.004h2.702
	c0.276,0,0.5-0.224,0.5-0.5s-0.224-0.5-0.5-0.5h-2.703c-1.215,0-1.276-0.251-1.276-0.979c0-0.088-0.029-0.166-0.068-0.238
	c-0.068-0.194-0.249-0.335-0.467-0.335H19.43c-0.303-0.136-0.52-0.478-0.52-0.884c0-0.522,0.355-0.946,0.793-0.951
	c0.002,0,0.004,0.001,0.007,0.001h8.06c1.102,0,1.996,0.8,1.996,1.783v0.858c0,0.134,0.053,0.261,0.146,0.355
	c0.094,0.093,0.221,0.145,0.354,0.145c0,0,0.002,0,0.004,0l3.742-0.031c0.276-0.002,0.498-0.229,0.496-0.504
	c-0.002-0.275-0.226-0.496-0.5-0.496c-0.001,0-0.003,0-0.004,0l-3.238,0.027V20c0-1.534-1.345-2.783-2.996-2.783h-4.873
	c-0.005,0-0.009-0.003-0.015-0.003H19.71c-0.992,0-1.8,0.876-1.8,1.952c0,0.36,0.097,0.693,0.254,0.983h-0.872
	c-0.992,0-1.8,0.872-1.8,1.944c0,0.593,0.251,1.118,0.639,1.476c-0.388,0.357-0.639,0.881-0.639,1.474
	c0,0.582,0.242,1.1,0.618,1.457c-0.376,0.355-0.618,0.873-0.618,1.455c0,0.575,0.235,1.086,0.602,1.443
	c-0.367,0.355-0.602,0.867-0.602,1.439c0,1.074,0.808,1.948,1.8,1.948h0.078h9.903h0.494c1.463,0,2.684-0.95,2.943-2.202
	l3.191,0.001c0.275,0,0.5-0.224,0.5-0.5S34.18,29.585,33.902,29.585z M17.291,25.99c-0.441,0-0.8-0.426-0.8-0.947
	c0-0.521,0.358-0.944,0.8-0.944h5.589c0.002,0,0.003-0.001,0.005-0.001h0.099c0.242,0,0.414,0.121,0.516,0.224
	c0.18,0.18,0.282,0.442,0.281,0.72c-0.001,0.521-0.362,0.942-0.804,0.942h-5.589c-0.01,0-0.019,0.006-0.029,0.007L17.291,25.99
	L17.291,25.99z M17.291,21.149h5.268c0.111,0.708,0.474,1.13,1.149,1.323c-0.125,0.331-0.406,0.563-0.732,0.563h-5.589
	c-0.01,0-0.019,0.005-0.029,0.006h-0.067c-0.441,0-0.8-0.425-0.8-0.947C16.492,21.573,16.85,21.149,17.291,21.149z M16.492,27.954
	c0-0.521,0.358-0.944,0.8-0.944h5.589c0.002,0,0.003-0.001,0.005-0.001h0.099c0.241,0,0.414,0.121,0.516,0.224
	c0.18,0.181,0.282,0.442,0.281,0.721c-0.001,0.517-0.358,0.938-0.796,0.941c0,0,0,0-0.001,0h-0.104h-4.186h-1.403
	c-0.009,0-0.017,0.002-0.025,0.002C16.837,28.879,16.492,28.466,16.492,27.954z M16.492,30.838c0-0.51,0.346-0.922,0.774-0.938
	c0.009,0,0.017,0.002,0.025,0.002h4.549c0.012,0,0.022-0.006,0.034-0.006h1.103c0.003,0,0.007-0.002,0.01-0.002
	c0.24,0.002,0.411,0.121,0.512,0.224c0.18,0.18,0.282,0.442,0.281,0.72c-0.001,0.52-0.361,0.941-0.804,0.941h-5.589
	c-0.012,0-0.022,0.007-0.034,0.008h-0.062C16.85,31.786,16.492,31.359,16.492,30.838z"/>
</svg>
