<?xml version="1.0" encoding="utf-8"?>
<!-- Generator: Adobe Illustrator 16.0.4, SVG Export Plug-In . SVG Version: 6.00 Build 0)  -->
<!DOCTYPE svg PUBLIC "-//W3C//DTD SVG 1.1//EN" "http://www.w3.org/Graphics/SVG/1.1/DTD/svg11.dtd">
<svg version="1.1" id="Layer_1" xmlns="http://www.w3.org/2000/svg" xmlns:xlink="http://www.w3.org/1999/xlink" x="0px" y="0px"
	 width="50px" height="50px" viewBox="0 0 50 50" enable-background="new 0 0 50 50" xml:space="preserve">
<g>
	<path d="M28.984,26.629c0.246-1.13,0.5-4.965-1.24-6.473c-0.506-0.439-1.707-1.281-2.047-1.732
		c-0.064-0.085-0.107-0.215-0.133-0.363c0.188-0.44,0.471-1.009,0.471-1.009c0.252-0.327,0.686-0.225,0.92-0.198
		c0.668,0.066,0.83-0.134,0.83-0.134c0.145-0.092,0.068-0.463,0.068-0.463c-0.06-0.19,0.026-0.287,0.08-0.362
		c0.143-0.209,0.055-0.302,0.055-0.302l-0.018-0.089c0.161-0.057,0.17-0.145,0.17-0.145l-0.011-0.297
		c-0.028-0.203,0.062-0.217,0.062-0.217c0.369-0.016,0.355-0.254,0.355-0.254c0.012-0.131-0.449-0.904-0.449-0.904
		c-0.217-0.396,0.074-0.642,0.09-0.849c0.072-0.954-0.262-1.53-0.709-1.981c-0.737-0.75-1.67-0.873-2.277-0.856
		c-1.558,0.045-2.177,0.552-2.642,1.093c-0.969,1.127-0.74,2.094-0.74,2.094c0.037,0.576,0.854,1.608,0.854,1.608
		c0.652,0.897,0.354,1.606,0.354,1.606l0.011,0.002c0.006,0.561-0.09,1.205-0.492,1.599c-1.312,1.281-2.409,3.494-1.155,6.981
		c0.541,1.502,2.666,4.972,1.891,6.091c-0.936,1.351-2.783,3.202-0.893,6.51c0,0-0.097,1.019-0.175,2.415h5.263
		c0.016-0.316,0.383-1.697,0.371-2.048c-0.052-1.517,0.03-3.423,0.211-4.304c0.323-1.601,1.049-3.467,0.944-6.459
		C28.998,26.973,28.99,26.789,28.984,26.629z M24.605,28.062l0.141,0.053c0.119,0.267,0.219,0.535,0.295,0.802l-0.072,0.13
		l-0.027,0.004l-0.102-0.076c-0.074-0.256-0.17-0.516-0.285-0.772L24.605,28.062z M24.306,27.496l-0.061,0.02l-0.078-0.041
		c-0.158-0.264-0.293-0.508-0.416-0.744l0.045-0.143l0.141,0.045c0.121,0.234,0.256,0.475,0.398,0.715L24.306,27.496z
		 M23.337,19.378c0.248-0.468,0.461-0.716,0.469-0.726l0.148-0.012l0.01,0.148c-0.002,0.003-0.207,0.24-0.439,0.686l-0.094,0.057
		l-0.049-0.012L23.337,19.378z M23.582,25.882l-0.055,0.138l-0.043,0.01l-0.096-0.063c-0.113-0.263-0.216-0.53-0.306-0.791
		l0.065-0.134l0.134,0.064C23.369,25.361,23.47,25.624,23.582,25.882z M22.824,22.67l-0.104,0.107h-0.003l-0.104-0.104l-0.004-0.225
		c0-0.211,0.01-0.422,0.027-0.626l0.112-0.095l0.097,0.112c-0.019,0.199-0.025,0.403-0.025,0.607L22.824,22.67z M22.775,23.404
		l0.119,0.09c0.037,0.268,0.09,0.541,0.155,0.814l-0.077,0.127l-0.025,0.002l-0.102-0.08c-0.066-0.278-0.121-0.562-0.16-0.834
		L22.775,23.404z M22.968,21.025l-0.104,0.082l-0.021-0.002l-0.08-0.125c0.06-0.276,0.137-0.554,0.232-0.819l0.135-0.063
		l0.062,0.135C23.101,20.49,23.025,20.757,22.968,21.025z M23.257,32.744l-0.133,0.046l-0.164-0.078
		c-0.072-0.091-0.059-0.224,0.033-0.296c2.273-1.818,0.266-4.867,0.246-4.898c-3.268-5.467-0.373-8.899-0.344-8.935l0.297-0.021
		l0.021,0.297c-0.112,0.13-2.717,3.248,0.379,8.435C23.611,27.316,25.828,30.688,23.257,32.744z M24.972,31.455
		c-0.115,0.262-0.27,0.509-0.461,0.734l-0.08,0.037l-0.068-0.024l-0.012-0.147c0.178-0.212,0.322-0.44,0.428-0.685l0.14-0.054
		L24.972,31.455z M25.203,30.619l-0.105,0.092l-0.014-0.001l-0.09-0.117c0.018-0.137,0.027-0.278,0.027-0.422
		c0-0.128-0.008-0.259-0.023-0.392l0.094-0.116l0.117,0.094c0.014,0.142,0.021,0.279,0.021,0.414
		C25.23,30.323,25.22,30.475,25.203,30.619z"/>
</g>
</svg>
