<?xml version="1.0" encoding="utf-8"?>
<!-- Generator: Adobe Illustrator 16.0.4, SVG Export Plug-In . SVG Version: 6.00 Build 0)  -->
<!DOCTYPE svg PUBLIC "-//W3C//DTD SVG 1.1//EN" "http://www.w3.org/Graphics/SVG/1.1/DTD/svg11.dtd">
<svg version="1.1" id="Layer_1" xmlns="http://www.w3.org/2000/svg" xmlns:xlink="http://www.w3.org/1999/xlink" x="0px" y="0px"
	 width="50px" height="50px" viewBox="0 0 50 50" enable-background="new 0 0 50 50" xml:space="preserve">
<path d="M36.211,23.252v13.978c0,0.401-0.326,0.729-0.729,0.729c-0.4,0-0.727-0.325-0.727-0.729V23.252
	c0-5.38-4.377-9.756-9.756-9.756c-5.38,0-9.756,4.376-9.756,9.756V36.72c0,0.401-0.325,0.727-0.727,0.727
	c-0.402,0-0.727-0.323-0.727-0.727V23.252c0-6.181,5.029-11.21,11.21-11.21C31.182,12.042,36.211,17.071,36.211,23.252z"/>
<path d="M28.418,22.235c0.006,0,0.013,0,0.017,0c2.192,0,3.752-1.548,3.817-1.614c0.282-0.285,0.279-0.745-0.006-1.027
	c-0.287-0.283-0.747-0.279-1.028,0.006c-0.012,0.012-1.215,1.183-2.783,1.183c-0.004,0-0.008,0-0.011,0
	c-0.934-0.004-1.839-0.438-2.698-1.261v-2.299c0-0.401-0.325-0.728-0.727-0.728c-0.402,0-0.728,0.325-0.728,0.728v2.301
	c-0.854,0.816-1.753,1.25-2.682,1.259c-0.008,0-0.017,0-0.025,0c-1.575,0-2.773-1.173-2.787-1.187
	c-0.283-0.281-0.742-0.281-1.026,0.002c-0.284,0.282-0.285,0.739-0.004,1.023c0.066,0.066,1.625,1.614,3.817,1.614
	c0.008,0,0.014,0,0.02,0c0.939-0.005,1.838-0.312,2.688-0.866v2.908c-0.854,0.816-1.753,1.25-2.682,1.258c-0.008,0-0.017,0-0.025,0
	c-1.575,0-2.773-1.173-2.787-1.186c-0.283-0.281-0.742-0.282-1.026,0.002c-0.284,0.281-0.285,0.738-0.004,1.022
	c0.066,0.065,1.625,1.614,3.817,1.614c0.008,0,0.014,0,0.02,0c0.939-0.004,1.838-0.312,2.688-0.866v3.541
	c-0.853,0.816-1.753,1.251-2.682,1.26c-0.008,0-0.017,0-0.024,0c-1.575,0-2.775-1.174-2.789-1.188c-0.282-0.279-0.74-0.28-1.026,0
	c-0.284,0.283-0.285,0.74-0.004,1.023c0.064,0.067,1.625,1.616,3.817,1.616c0.008,0,0.014,0,0.02,0
	c0.939-0.005,1.838-0.312,2.688-0.868v1.271c0,0.4,0.325,0.728,0.728,0.728c0.401,0,0.727-0.323,0.727-0.728v-1.271
	c0.854,0.557,1.75,0.863,2.692,0.868c0.006,0,0.013,0,0.017,0c2.192,0,3.752-1.549,3.817-1.616c0.282-0.285,0.279-0.744-0.006-1.027
	c-0.287-0.282-0.747-0.276-1.028,0.007c-0.012,0.012-1.215,1.187-2.783,1.187c-0.004,0-0.008,0-0.011,0
	c-0.935-0.006-1.839-0.438-2.698-1.265V26.12c0.854,0.558,1.75,0.863,2.692,0.867c0.006,0,0.013,0,0.017,0
	c2.192,0,3.752-1.549,3.817-1.614c0.282-0.285,0.279-0.745-0.006-1.028c-0.287-0.283-0.747-0.277-1.028,0.006
	c-0.012,0.013-1.215,1.184-2.783,1.184c-0.004,0-0.008,0-0.01,0c-0.935-0.004-1.84-0.438-2.699-1.262v-2.905
	C26.578,21.926,27.476,22.23,28.418,22.235z"/>
<path d="M25,23.562c-0.794,0-1.438,0.643-1.438,1.438c0,0.792,0.644,1.438,1.438,1.438s1.438-0.645,1.438-1.438
	C26.438,24.205,25.794,23.562,25,23.562z"/>
</svg>
