<?xml version="1.0" encoding="utf-8"?>
<!-- Generator: Adobe Illustrator 16.0.4, SVG Export Plug-In . SVG Version: 6.00 Build 0)  -->
<!DOCTYPE svg PUBLIC "-//W3C//DTD SVG 1.1//EN" "http://www.w3.org/Graphics/SVG/1.1/DTD/svg11.dtd">
<svg version="1.1" id="Layer_1" xmlns="http://www.w3.org/2000/svg" xmlns:xlink="http://www.w3.org/1999/xlink" x="0px" y="0px"
	 width="50px" height="50px" viewBox="0 0 50 50" enable-background="new 0 0 50 50" xml:space="preserve">
<path d="M31.13,25.233H29.98v-1.148c0-0.59-0.479-1.07-1.069-1.07h-1.509c-0.59,0-1.069,0.48-1.069,1.07v1.148h-1.149
	c-0.59,0-1.07,0.479-1.07,1.07v1.508c0,0.59,0.479,1.07,1.07,1.07h1.149v1.148c0,0.591,0.479,1.068,1.069,1.068h1.509
	c0.59,0,1.069-0.479,1.069-1.068v-1.148h1.149c0.589,0,1.07-0.48,1.07-1.07v-1.508C32.2,25.714,31.719,25.233,31.13,25.233z
	 M31.48,27.812c0,0.193-0.157,0.352-0.352,0.352h-1.51c-0.198,0-0.359,0.162-0.359,0.359v1.509c0,0.194-0.158,0.352-0.351,0.352
	H27.4c-0.193,0-0.351-0.157-0.351-0.352v-1.509c0-0.197-0.161-0.359-0.36-0.359h-1.508c-0.194,0-0.351-0.157-0.351-0.352v-1.508
	c0-0.193,0.157-0.352,0.351-0.352h1.508c0.199,0,0.36-0.161,0.36-0.36v-1.508c0-0.192,0.157-0.353,0.351-0.353h1.509
	c0.192,0,0.351,0.158,0.351,0.353v1.508c0,0.199,0.161,0.36,0.359,0.36h1.51c0.193,0,0.352,0.156,0.352,0.352V27.812z
	 M34.389,27.058c0-2.154-1.102-4.058-2.771-5.177l0.001-1.321c-0.004-1.478-1.207-2.678-2.682-2.678c-0.002,0-0.002,0-0.004,0
	L25.9,17.885c1.195-0.759,1.992-2.091,1.992-3.608c0-2.356-1.918-4.276-4.277-4.276c-2.358,0-4.277,1.92-4.277,4.276
	c0,1.521,0.8,2.854,1.999,3.613l-3.048,0.004c-1.478,0-2.678,1.205-2.677,2.684v9.042c0,0.198,0.161,0.36,0.36,0.36h3.077v7.338
	c0,1.479,1.151,2.683,2.567,2.683h4c1.416,0,2.567-1.202,2.567-2.683v-4.028C31.605,33.272,34.389,30.485,34.389,27.058z
	 M20.056,14.276c0-1.963,1.596-3.559,3.558-3.559c1.962,0,3.559,1.596,3.559,3.559c0,1.962-1.597,3.558-3.559,3.558
	C21.652,17.834,20.056,16.238,20.056,14.276z M25.614,39.278h-1.679c0.023-0.047,0.038-0.098,0.038-0.153V32.56
	c0-0.199-0.161-0.358-0.359-0.358c-0.198,0-0.359,0.159-0.359,0.358v6.565c0,0.056,0.016,0.106,0.039,0.153h-1.679
	c-1.019,0-1.848-0.879-1.848-1.961v-7.691c0-0.003,0.001-0.005,0.001-0.008c0-0.002-0.001-0.004-0.001-0.008v-6.131
	c0-0.199-0.161-0.36-0.36-0.36c-0.199,0-0.359,0.161-0.359,0.36v5.778h-2.717v-8.684c0-0.523,0.203-1.017,0.573-1.388
	c0.371-0.371,0.863-0.576,1.387-0.576l10.645-0.012h0.002c1.08,0,1.961,0.881,1.963,1.961v0.91
	c-0.828-0.408-1.758-0.645-2.742-0.645c-3.437,0-6.231,2.795-6.231,6.23c0,3.201,2.427,5.844,5.538,6.19v4.067
	C27.463,38.399,26.634,39.278,25.614,39.278z M28.157,32.569c-3.04,0-5.513-2.473-5.513-5.512s2.473-5.513,5.513-5.513
	c3.039,0,5.512,2.474,5.512,5.513C33.668,30.099,31.196,32.569,28.157,32.569z"/>
</svg>
