<?xml version="1.0" encoding="utf-8"?>
<!-- Generator: Adobe Illustrator 16.0.4, SVG Export Plug-In . SVG Version: 6.00 Build 0)  -->
<!DOCTYPE svg PUBLIC "-//W3C//DTD SVG 1.1//EN" "http://www.w3.org/Graphics/SVG/1.1/DTD/svg11.dtd">
<svg version="1.1" id="Layer_1" xmlns="http://www.w3.org/2000/svg" xmlns:xlink="http://www.w3.org/1999/xlink" x="0px" y="0px"
	 width="50px" height="50px" viewBox="0 0 50 50" enable-background="new 0 0 50 50" xml:space="preserve">
<path d="M38.171,19.875c-0.417-1.898-1.673-3.312-3.634-4.09c-1.02-0.405-4.025-0.916-5.783,0.458
	c-0.177-0.243-0.346-0.489-0.557-0.707c-1.294-1.354-3.037-2.099-4.909-2.099c-1.758,0-3.426,0.67-4.697,1.887
	c-1.311,1.254-2.054,2.941-2.093,4.757c-0.035,1.571,0.49,3.058,1.438,4.278l-6.034,5.771c-0.285,0.273-0.294,0.727-0.022,1.012
	c0.141,0.146,0.328,0.221,0.516,0.221c0.177,0,0.356-0.064,0.494-0.198l6.036-5.771c0.385,0.326,0.797,0.604,1.236,0.838
	c0.986,1.086,1.274,1.713,1.432,2.42c0.029,0.134,0.112,0.572,0.12,0.715c0.271,6.379,2.45,7.072,3.156,7.132
	c0.164,0.042,0.325,0.063,0.483,0.063c0.312,0,0.606-0.084,0.876-0.248c1.173-0.721,1.51-2.816,1.809-4.668
	c0.104-0.637,0.201-1.238,0.31-1.573c0.05-0.156,0.098-0.276,0.14-0.368c0.049,0.095,0.089,0.189,0.102,0.251
	c0.039,0.269,0.067,0.614,0.099,1.002c0.16,1.979,0.427,5.278,2.787,5.536c0.285,0.062,0.712,0.023,1.148-0.24
	c1.084-0.658,1.878-2.484,2.356-5.424l0.069-0.458c0.163-1.111,0.388-2.636,1.274-3.57C37.639,25.419,38.721,22.379,38.171,19.875z
	 M19.58,16.357c1.004-0.961,2.32-1.491,3.708-1.491c1.477,0,2.854,0.59,3.877,1.657c0.989,1.033,1.52,2.391,1.488,3.819
	c-0.031,1.435-0.62,2.771-1.657,3.763c-1.002,0.961-2.317,1.488-3.708,1.488c-1.479,0-2.855-0.589-3.877-1.654
	c-0.989-1.037-1.517-2.394-1.485-3.828C17.958,18.68,18.545,17.346,19.58,16.357z M35.286,25.814
	c-1.201,1.266-1.473,3.121-1.653,4.35L33.568,30.6c-0.694,4.258-1.806,4.486-1.753,4.51c-0.051-0.018-0.106-0.028-0.16-0.033
	c-1.21-0.104-1.419-2.688-1.544-4.232c-0.035-0.425-0.065-0.801-0.107-1.095c-0.06-0.404-0.532-1.613-1.455-1.69
	c-0.666-0.057-1.207,0.472-1.562,1.576c-0.144,0.438-0.243,1.063-0.36,1.787c-0.197,1.233-0.531,3.301-1.146,3.676
	c-0.039,0.022-0.101,0.067-0.279,0.01c-0.077-0.025-0.126-0.03-0.186-0.03c-0.456-0.06-1.68-1.209-1.875-5.771
	c-0.007-0.18-0.111-0.781-0.152-0.967c-0.113-0.5-0.286-0.949-0.533-1.398c0.276,0.033,0.549,0.084,0.833,0.084
	c1.759,0,3.426-0.67,4.696-1.885c1.312-1.256,2.059-2.947,2.096-4.766c0.021-1.01-0.196-1.98-0.593-2.878
	c1.033-0.993,3.473-0.801,4.521-0.382c1.521,0.603,2.45,1.633,2.767,3.066C37.249,22.34,36.215,24.841,35.286,25.814z"/>
</svg>
