<?xml version="1.0" encoding="utf-8"?>
<!-- Generator: Adobe Illustrator 16.0.4, SVG Export Plug-In . SVG Version: 6.00 Build 0)  -->
<!DOCTYPE svg PUBLIC "-//W3C//DTD SVG 1.1//EN" "http://www.w3.org/Graphics/SVG/1.1/DTD/svg11.dtd">
<svg version="1.1" id="Layer_1" xmlns="http://www.w3.org/2000/svg" xmlns:xlink="http://www.w3.org/1999/xlink" x="0px" y="0px"
	 width="50px" height="50px" viewBox="0 0 50 50" enable-background="new 0 0 50 50" xml:space="preserve">
<path d="M33.86,18.831c-0.156-0.353-0.439-0.62-0.798-0.758l-9.417-3.617c-0.72-0.276-1.582,0.11-1.858,0.827l-5.677,14.777
	c-0.138,0.359-0.128,0.752,0.028,1.103c0.156,0.353,0.439,0.62,0.798,0.758l9.417,3.617c0.165,0.063,0.339,0.096,0.515,0.096
	c0.591,0,1.131-0.37,1.344-0.923l5.678-14.777C34.026,19.573,34.018,19.182,33.86,18.831z M32.955,19.573l-5.677,14.778
	c-0.085,0.221-0.345,0.338-0.566,0.252l-9.416-3.617c-0.109-0.041-0.195-0.123-0.243-0.229c-0.047-0.106-0.05-0.227-0.008-0.336
	l5.677-14.778c0.065-0.172,0.227-0.281,0.41-0.281c0.053,0,0.106,0.01,0.156,0.029l9.416,3.616c0.109,0.042,0.195,0.124,0.243,0.229
	C32.994,19.345,32.997,19.464,32.955,19.573z M27.541,19.775l-4.149,10.803c-0.076,0.197-0.266,0.32-0.467,0.32
	c-0.06,0-0.12-0.012-0.18-0.033c-0.258-0.1-0.386-0.389-0.287-0.646l4.149-10.802c0.099-0.257,0.387-0.384,0.646-0.287
	C27.513,19.229,27.641,19.52,27.541,19.775z M30.68,22.264c-0.266,0.648-1.007,0.961-1.656,0.698
	c-0.65-0.265-0.963-1.006-0.699-1.655s1.006-0.963,1.656-0.699C30.628,20.871,30.941,21.611,30.68,22.264z M22.63,19.119
	c0.265-0.65,1.006-0.963,1.657-0.699c0.649,0.266,0.962,1.006,0.698,1.656c-0.264,0.648-1.006,0.962-1.655,0.697
	C22.681,20.51,22.367,19.77,22.63,19.119z M29.024,26.568c-0.266,0.649-1.006,0.963-1.656,0.699c-0.65-0.265-0.963-1.007-0.7-1.654
	c0.266-0.651,1.007-0.965,1.657-0.7C28.975,25.178,29.287,25.919,29.024,26.568z M21.676,25.081c-0.649-0.265-0.963-1.006-0.7-1.655
	c0.265-0.65,1.006-0.963,1.656-0.699c0.65,0.266,0.963,1.006,0.699,1.655C23.067,25.032,22.325,25.345,21.676,25.081z M27.37,30.876
	c-0.265,0.649-1.006,0.962-1.656,0.698c-0.65-0.266-0.963-1.006-0.7-1.655c0.265-0.649,1.007-0.963,1.657-0.699
	C27.319,29.482,27.633,30.227,27.37,30.876z M21.677,28.688c-0.264,0.649-1.006,0.963-1.655,0.699
	c-0.649-0.265-0.963-1.006-0.7-1.654c0.265-0.65,1.006-0.963,1.656-0.699S21.94,28.039,21.677,28.688z"/>
</svg>
