<?xml version="1.0" encoding="utf-8"?>
<!-- Generator: Adobe Illustrator 16.0.4, SVG Export Plug-In . SVG Version: 6.00 Build 0)  -->
<!DOCTYPE svg PUBLIC "-//W3C//DTD SVG 1.1//EN" "http://www.w3.org/Graphics/SVG/1.1/DTD/svg11.dtd">
<svg version="1.1" id="Layer_1" xmlns="http://www.w3.org/2000/svg" xmlns:xlink="http://www.w3.org/1999/xlink" x="0px" y="0px"
	 width="50px" height="50px" viewBox="0 0 50 50" enable-background="new 0 0 50 50" xml:space="preserve">
<path d="M28.657,27.368c-0.162,0.646-0.053,1.513,0.057,2.353c0.073,0.573,0.149,1.165,0.149,1.734c0,3.333-2.647,6.044-5.901,6.044
	c-3.253,0-5.9-2.711-5.9-6.044c0-0.374,0.303-0.678,0.678-0.678c0.373,0,0.677,0.304,0.677,0.678c0,2.586,2.039,4.689,4.547,4.689
	c2.509,0,4.548-2.104,4.548-4.689c0-0.482-0.068-1.006-0.14-1.562c-0.124-0.965-0.252-1.963-0.024-2.856
	c0.192-0.763,0.855-1.548,1.625-2.458c1.164-1.381,2.612-3.099,2.612-5.055c0-4.185-3.541-5.668-6.571-5.668
	c-3.638,0-6.597,3.047-6.597,6.794c0,0.375-0.303,0.677-0.677,0.677c-0.375,0-0.678-0.303-0.678-0.677
	c0-4.493,3.566-8.148,7.949-8.148c4.742,0,7.928,2.822,7.928,7.023c0,2.451-1.627,4.379-2.935,5.928
	C29.371,26.2,28.772,26.908,28.657,27.368z M23.22,31.686c-0.521,0.017-1.016-0.164-1.408-0.535
	c-0.436-0.413-0.686-0.995-0.686-1.596c0-0.375-0.303-0.678-0.677-0.678s-0.677,0.303-0.677,0.678c0,0.971,0.402,1.912,1.105,2.578
	c0.623,0.59,1.413,0.909,2.24,0.909c0.058,0,0.115-0.001,0.174-0.005c0.657-0.035,1.598-0.168,2.166-0.916
	c0.691-0.907,0.562-2.32,0.126-4.305c-0.149-0.688-0.187-1.439-0.093-1.961c0.08-0.456,0.873-1.186,1.57-1.832
	c1.142-1.053,2.32-2.143,2.32-3.435c0-2.389-1.838-3.993-4.57-3.993c-2.527,0-4.584,2.057-4.584,4.584
	c0,0.375,0.303,0.677,0.676,0.677c0.375,0,0.679-0.303,0.679-0.677c0-1.782,1.448-3.23,3.229-3.23c1.556,0,3.217,0.693,3.217,2.639
	c0,0.7-1.002,1.624-1.885,2.44c-0.938,0.866-1.824,1.685-1.985,2.588c-0.124,0.695-0.086,1.625,0.104,2.486
	c0.266,1.213,0.519,2.672,0.119,3.194C24.319,31.383,24.126,31.636,23.22,31.686z"/>
</svg>
