<?xml version="1.0" encoding="utf-8"?>
<!-- Generator: Adobe Illustrator 16.0.4, SVG Export Plug-In . SVG Version: 6.00 Build 0)  -->
<!DOCTYPE svg PUBLIC "-//W3C//DTD SVG 1.1//EN" "http://www.w3.org/Graphics/SVG/1.1/DTD/svg11.dtd">
<svg version="1.1" id="Layer_1" xmlns="http://www.w3.org/2000/svg" xmlns:xlink="http://www.w3.org/1999/xlink" x="0px" y="0px"
	 width="50px" height="50px" viewBox="0 0 50 50" enable-background="new 0 0 50 50" xml:space="preserve">
<path d="M37.826,26.441l-5.78-1.959c-0.271-5.377-4.729-9.668-10.173-9.668c-1.354,0-2.643,0.271-3.822,0.75h-0.002
	c-0.001,0-0.001,0.002-0.003,0.002c-3.724,1.517-6.358,5.172-6.358,9.434c0,1.459,0.314,2.844,0.869,4.1
	c0.002,0.002,0.002,0.006,0.002,0.008s0.002,0.002,0.004,0.004c1.582,3.572,5.158,6.074,9.312,6.074
	c3.244,0,6.261-1.529,8.183-4.119l5.334,1.933c0.366,0.135,0.781-0.056,0.914-0.429c0.135-0.37-0.058-0.78-0.429-0.914l-5.849-2.119
	c-0.312-0.115-0.657,0-0.84,0.277c-0.033,0.053-0.078,0.099-0.113,0.151c-0.538-1.071-1.154-2.702-0.963-3.562
	c0.084-0.385-0.158-0.768-0.543-0.854c-0.389-0.083-0.768,0.159-0.854,0.543c-0.403,1.823,1.147,4.655,1.326,4.973
	c0.017,0.026,0.045,0.039,0.062,0.062c-1.471,1.498-3.429,2.418-5.545,2.584c-0.096-0.455-0.547-3.107,2.033-3.924
	c0.377-0.119,0.585-0.521,0.467-0.896c-0.119-0.377-0.521-0.58-0.896-0.467c-0.898,0.284-1.537,0.747-2.01,1.288
	c-0.543-0.646-1.401-1.209-2.576-0.946c-0.385,0.086-0.629,0.467-0.543,0.854c0.085,0.385,0.468,0.629,0.854,0.543
	c0.846-0.188,1.312,0.595,1.459,0.896c-0.338,0.939-0.345,1.912-0.229,2.655c-3.062-0.264-5.676-2.11-7.021-4.717
	c1.709-1.188,3.202-3.133,4.153-5.446c0.948-2.318,1.207-4.756,0.799-6.832c0.89-0.305,1.837-0.478,2.828-0.478
	c3.017,0,5.683,1.534,7.256,3.86c-0.532,0.203-2.11,0.86-3.496,1.943c-0.327-0.218-0.581-0.466-0.694-0.792
	c-0.312-0.896,0.231-1.971,0.248-2c0.183-0.349,0.051-0.78-0.297-0.965c-0.348-0.187-0.781-0.054-0.968,0.296
	c-0.034,0.064-0.85,1.631-0.339,3.126c0.186,0.534,0.518,0.976,0.969,1.34c-0.719,0.814-1.145,1.679-1.244,2.58
	c-0.043,0.394,0.237,0.747,0.631,0.79c0.027,0.003,0.055,0.004,0.08,0.004c0.358,0,0.67-0.271,0.709-0.635
	c0.088-0.789,0.568-1.575,1.426-2.333c1.507-1.326,3.615-2.067,3.639-2.074c0.014-0.004,0.023-0.016,0.036-0.022
	c0.51,1.111,0.802,2.34,0.802,3.638c0,0.306,0.195,0.578,0.485,0.677l6.255,2.119c0.372,0.123,0.777-0.072,0.904-0.447
	C38.4,26.975,38.201,26.568,37.826,26.441z M16.923,23.011c-0.799,1.949-2.012,3.591-3.394,4.636
	c-0.268-0.834-0.412-1.724-0.412-2.646c0-3.317,1.855-6.211,4.583-7.694C17.971,19.042,17.723,21.062,16.923,23.011z"/>
</svg>
