<?xml version="1.0" encoding="utf-8"?>
<!-- Generator: Adobe Illustrator 16.0.4, SVG Export Plug-In . SVG Version: 6.00 Build 0)  -->
<!DOCTYPE svg PUBLIC "-//W3C//DTD SVG 1.1//EN" "http://www.w3.org/Graphics/SVG/1.1/DTD/svg11.dtd">
<svg version="1.1" id="Layer_1" xmlns="http://www.w3.org/2000/svg" xmlns:xlink="http://www.w3.org/1999/xlink" x="0px" y="0px"
	 width="50px" height="50px" viewBox="0 0 50 50" enable-background="new 0 0 50 50" xml:space="preserve">
<path d="M26.311,30.507c-0.653,0-1.083,0.246-1.342,0.479c-0.359-0.324-0.811-0.494-1.326-0.494c-1.759,0-3.832,1.971-3.919,2.054
	c-0.072,0.07-0.113,0.166-0.115,0.268c-0.001,0.1,0.038,0.197,0.11,0.269c1.565,1.566,3.282,2.36,5.101,2.36
	c3.112,0,5.374-2.312,5.468-2.411c0.071-0.074,0.11-0.176,0.104-0.279c-0.006-0.103-0.054-0.2-0.131-0.266
	C28.709,31.171,27.381,30.507,26.311,30.507z M24.673,31.773c0.075,0.106,0.197,0.174,0.334,0.156
	c0.13-0.011,0.248-0.089,0.306-0.206c0.002-0.006,0.255-0.469,1-0.469c0.533,0,1.446,0.25,2.842,1.307
	c-0.666,0.107-1.693,0.253-2.403,0.253c-0.196,0-0.422-0.035-0.673-0.073c-0.354-0.053-0.751-0.112-1.193-0.112
	c-0.462,0-0.871,0.082-1.2,0.147c-0.228,0.045-0.426,0.085-0.573,0.085c-0.956,0-1.787-0.144-2.307-0.259
	c0.683-0.547,1.864-1.363,2.839-1.363C24.08,31.241,24.417,31.415,24.673,31.773z M21.341,33.469
	c0.498,0.078,1.103,0.143,1.77,0.143c0.222,0,0.465-0.049,0.721-0.101c0.622-0.125,1.483-0.127,2.135-0.028
	c0.292,0.044,0.557,0.082,0.784,0.082c0.56,0,1.278-0.08,1.896-0.167c-0.892,0.604-2.25,1.296-3.827,1.296
	C23.61,34.692,22.447,34.27,21.341,33.469z M36.325,20.285c0.143,0.151,0.135,0.388-0.015,0.529
	c-0.074,0.068-0.166,0.103-0.258,0.103c-0.1,0-0.199-0.039-0.271-0.117l-0.157-0.166c0.063,0.147,0.052,0.32-0.078,0.429
	c-0.071,0.058-0.155,0.086-0.239,0.086c-0.107,0-0.214-0.045-0.289-0.134l-0.119-0.141c0.127,0.161,0.102,0.395-0.061,0.521
	c-0.068,0.055-0.15,0.082-0.232,0.082c-0.11,0-0.22-0.048-0.293-0.142l-0.246-0.309c-0.586,0.251-1.209,0.345-1.81,0.345
	c-1.715,0-3.255-0.762-3.282-0.775c-0.184-0.093-0.258-0.318-0.164-0.502c0.094-0.185,0.321-0.26,0.502-0.166
	c0.039,0.018,3.893,1.917,5.734-0.633c0.121-0.168,0.354-0.204,0.523-0.084c0.127,0.094,0.152,0.25,0.113,0.395L36.325,20.285z
	 M32.637,17.989c-0.211,0.039-0.402-0.089-0.443-0.291c-0.041-0.203,0.09-0.401,0.293-0.443c0.715-0.148,2.193-0.047,2.687,1.375
	c0.068,0.196-0.036,0.409-0.229,0.477c-0.043,0.015-0.084,0.021-0.123,0.021c-0.155,0-0.301-0.096-0.354-0.251
	C34.061,17.71,32.691,17.978,32.637,17.989z M37.409,16.12c-0.136,0.156-0.372,0.175-0.528,0.038
	c-2.849-2.467-7.398,1.318-7.445,1.357c-0.069,0.059-0.156,0.088-0.242,0.088c-0.105,0-0.211-0.045-0.286-0.133
	c-0.134-0.157-0.113-0.394,0.045-0.528c0.208-0.173,5.09-4.234,8.419-1.35C37.527,15.728,37.544,15.964,37.409,16.12z
	 M17.742,21.372c-0.6,0-1.222-0.093-1.808-0.345l-0.248,0.31c-0.074,0.093-0.183,0.141-0.292,0.141
	c-0.082,0-0.165-0.027-0.234-0.082c-0.16-0.128-0.187-0.361-0.06-0.523l-0.12,0.143c-0.074,0.089-0.18,0.134-0.288,0.134
	c-0.085,0-0.17-0.028-0.24-0.086c-0.13-0.109-0.141-0.281-0.079-0.428l-0.155,0.165c-0.073,0.078-0.172,0.117-0.272,0.117
	c-0.093,0-0.184-0.034-0.257-0.103c-0.15-0.141-0.157-0.378-0.015-0.529l0.638-0.677c-0.039-0.145-0.015-0.302,0.114-0.396
	c0.167-0.12,0.401-0.084,0.523,0.084c1.846,2.557,5.696,0.65,5.735,0.633c0.185-0.095,0.411-0.021,0.503,0.165
	c0.094,0.185,0.02,0.411-0.165,0.503C20.997,20.61,19.457,21.372,17.742,21.372z M17.515,17.255
	c0.201,0.042,0.332,0.239,0.292,0.441c-0.042,0.2-0.235,0.331-0.441,0.292c-0.059-0.011-1.429-0.267-1.829,0.886
	c-0.054,0.155-0.199,0.252-0.354,0.252c-0.041,0-0.082-0.006-0.122-0.021c-0.196-0.067-0.3-0.28-0.231-0.476
	C15.321,17.208,16.798,17.106,17.515,17.255z M13.119,16.158c-0.156,0.138-0.392,0.118-0.528-0.038
	c-0.135-0.156-0.118-0.393,0.038-0.528c3.332-2.888,8.213,1.176,8.419,1.35c0.158,0.134,0.178,0.371,0.045,0.528
	c-0.074,0.087-0.18,0.133-0.287,0.133c-0.085,0-0.17-0.029-0.241-0.088C20.521,17.476,15.967,13.693,13.119,16.158z M22.042,28.521
	c-0.152-0.14-0.165-0.374-0.027-0.528c0.054-0.06,0.524-0.586,1.162-0.535c0.239,0.02,0.585,0.134,0.875,0.578
	c0.012,0,0.508,0.485,1.132,0.456c0.339-0.011,0.645-0.173,0.938-0.497c0.002-0.016,0.379-0.582,0.956-0.582
	c0.361,0,0.679,0.212,0.943,0.63c0.11,0.175,0.06,0.406-0.114,0.518c-0.173,0.111-0.406,0.061-0.517-0.115
	c-0.113-0.178-0.229-0.283-0.312-0.283c-0.121,0-0.297,0.181-0.362,0.283c-0.469,0.529-0.967,0.78-1.515,0.795
	c-0.017,0-0.033,0-0.05,0c-0.933,0-1.645-0.701-1.675-0.731c-0.149-0.213-0.252-0.295-0.357-0.303
	c-0.185-0.042-0.455,0.189-0.548,0.291C22.432,28.647,22.192,28.657,22.042,28.521z"/>
</svg>
