<?xml version="1.0" encoding="utf-8"?>
<!-- Generator: Adobe Illustrator 16.0.4, SVG Export Plug-In . SVG Version: 6.00 Build 0)  -->
<!DOCTYPE svg PUBLIC "-//W3C//DTD SVG 1.1//EN" "http://www.w3.org/Graphics/SVG/1.1/DTD/svg11.dtd">
<svg version="1.1" id="Layer_1" xmlns="http://www.w3.org/2000/svg" xmlns:xlink="http://www.w3.org/1999/xlink" x="0px" y="0px"
	 width="50px" height="50px" viewBox="0 0 50 50" enable-background="new 0 0 50 50" xml:space="preserve">
<path d="M33.304,27.677c-2.586-5.051-0.549-7.055-0.448-7.146c0.077-0.07,0.12-0.162,0.146-0.256
	c0.663-0.821,1.077-1.852,1.077-2.987c0-2.64-2.147-4.788-4.788-4.788c-0.298,0-0.539,0.242-0.539,0.54
	c0,0.299,0.241,0.54,0.539,0.54c2.044,0,3.708,1.663,3.708,3.708c0,2.044-1.664,3.706-3.708,3.706s-3.707-1.662-3.707-3.706
	c0-0.298-0.242-0.54-0.541-0.54c-0.016,0-0.028,0.008-0.044,0.01c-0.016-0.002-0.028-0.01-0.044-0.01c-0.299,0-0.54,0.242-0.54,0.54
	c0,2.044-1.665,3.706-3.71,3.706c-2.043,0-3.705-1.662-3.705-3.706c0-2.045,1.662-3.708,3.705-3.708c0.299,0,0.54-0.241,0.54-0.54
	c0-0.298-0.241-0.54-0.54-0.54c-2.639,0-4.785,2.148-4.785,4.788c0,1.139,0.416,2.172,1.081,2.993
	c0.026,0.092,0.069,0.181,0.144,0.25c0.09,0.083,2.145,2.082-0.448,7.146c-2.292,4.477-1.767,6.749-0.772,9.469
	c0.08,0.218,0.286,0.354,0.507,0.354c0.062,0,0.125-0.011,0.187-0.032c0.278-0.103,0.424-0.413,0.321-0.693
	c-0.5-1.369-0.845-2.582-0.742-4.042c1.151,0.527,4.308,1.757,8.634,1.757c1.625,0,3.417-0.18,5.328-0.63
	c0.009,0,0.016,0.007,0.024,0.007c0.077,0,0.153-0.028,0.228-0.062c1.094-0.271,2.229-0.641,3.392-1.11
	c0.112,1.479-0.232,2.702-0.738,4.082c-0.102,0.28,0.043,0.591,0.322,0.693c0.062,0.021,0.124,0.033,0.187,0.033
	c0.221,0,0.427-0.137,0.507-0.354C35.069,34.426,35.596,32.154,33.304,27.677z M31.498,32.36c0.113-0.371,0.139-0.667,0.14-0.692
	c0.02-0.297-0.207-0.551-0.504-0.569c-0.278-0.008-0.553,0.207-0.573,0.503c-0.001,0.009-0.063,0.774-0.538,1.169
	c-4.011,0.948-7.489,0.628-9.95,0.074c-0.56-0.361-0.631-1.217-0.633-1.242c-0.019-0.296-0.271-0.521-0.57-0.505
	c-0.298,0.017-0.525,0.271-0.507,0.57c0.001,0.027,0.026,0.359,0.163,0.768c-1.136-0.349-1.892-0.69-2.165-0.824
	c0.212-0.985,0.605-2.092,1.298-3.442c1.528-2.984,1.582-5.088,1.254-6.45c0.555,0.226,1.159,0.355,1.794,0.355
	c1.893,0,3.517-1.11,4.294-2.706c0.778,1.596,2.401,2.706,4.292,2.706c0.637,0,1.241-0.13,1.797-0.355
	c-0.328,1.362-0.273,3.466,1.254,6.451c0.688,1.344,1.081,2.444,1.294,3.426C32.91,31.897,32.199,32.145,31.498,32.36z
	 M25.762,30.031c0,0.421-0.341,0.763-0.762,0.763s-0.763-0.342-0.763-0.763s0.342-0.761,0.763-0.761S25.762,29.611,25.762,30.031z
	 M28.39,19.412c0-0.359,0.293-0.653,0.654-0.653c0.36,0,0.653,0.293,0.653,0.653c0,0.361-0.293,0.653-0.653,0.653
	C28.683,20.065,28.39,19.773,28.39,19.412z M20.955,18.759c0.361,0,0.654,0.293,0.654,0.653c0,0.361-0.293,0.653-0.654,0.653
	c-0.36,0-0.653-0.292-0.653-0.653C20.301,19.052,20.594,18.759,20.955,18.759z"/>
</svg>
