<?xml version="1.0" encoding="utf-8"?>
<!-- Generator: Adobe Illustrator 16.0.4, SVG Export Plug-In . SVG Version: 6.00 Build 0)  -->
<!DOCTYPE svg PUBLIC "-//W3C//DTD SVG 1.1//EN" "http://www.w3.org/Graphics/SVG/1.1/DTD/svg11.dtd">
<svg version="1.1" id="Layer_1" xmlns="http://www.w3.org/2000/svg" xmlns:xlink="http://www.w3.org/1999/xlink" x="0px" y="0px"
	 width="50px" height="50px" viewBox="0 0 50 50" enable-background="new 0 0 50 50" xml:space="preserve">
<path d="M34.47,14.541c-1.876-1.411-4.171-1.608-6.826-0.597c-0.897-0.502-4.315-2.18-8.1-0.978
	c-3.198,1.016-5.758,3.803-7.607,8.283c-1.419,3.431-0.742,8.925,1.956,15.89c0.06,0.156,0.195,0.271,0.358,0.309
	c0.166,0.038,0.335-0.013,0.455-0.129c0.163-0.158,3.904-3.845,4.101-9.302c2.516-0.636,5.741-2.187,8.67-5.786
	c0.125,1.74,0.781,4.584,3.563,6.342c2.788,1.76,3.872,2.827,5.093,7.883c0.052,0.215,0.24,0.371,0.462,0.381
	c0.014,0,0.027,0.002,0.04,0c0.206-0.006,0.389-0.139,0.457-0.338c0.041-0.121,1.008-3.006,1.617-8.926
	C39.101,23.778,38.044,17.229,34.47,14.541z M37.715,27.469c-0.328,3.183-0.766,5.488-1.096,6.924
	c-1.085-3.646-2.326-4.949-5.044-6.667c-3.394-2.144-3.144-6.327-3.101-6.827c0.458-0.658,0.909-1.354,1.342-2.132
	c0.136-0.242,0.047-0.546-0.193-0.68c-0.241-0.131-0.545-0.048-0.681,0.194c-3.377,6.07-7.588,8.174-10.578,8.865
	c-0.013-0.001-0.024-0.008-0.038-0.008c-0.093,0.004-0.172,0.032-0.243,0.069c-1.979,0.41-3.364,0.207-3.502,0.184
	c-0.268-0.046-0.53,0.139-0.575,0.411s0.137,0.53,0.41,0.575c0.022,0.002,0.583,0.09,1.508,0.059
	c0.515-0.018,1.146-0.074,1.856-0.197c-0.226,3.729-2.257,6.605-3.245,7.78c-2.362-6.356-2.943-11.32-1.675-14.388
	c1.73-4.188,4.078-6.783,6.976-7.708c3.875-1.238,7.462,0.976,7.498,1c0.137,0.086,0.306,0.101,0.454,0.041
	c2.41-0.975,4.455-0.845,6.081,0.377C37.096,17.767,38.072,24.013,37.715,27.469z"/>
</svg>
