<?xml version="1.0" encoding="utf-8"?>
<!-- Generator: Adobe Illustrator 16.0.4, SVG Export Plug-In . SVG Version: 6.00 Build 0)  -->
<!DOCTYPE svg PUBLIC "-//W3C//DTD SVG 1.1//EN" "http://www.w3.org/Graphics/SVG/1.1/DTD/svg11.dtd">
<svg version="1.1" id="Layer_1" xmlns="http://www.w3.org/2000/svg" xmlns:xlink="http://www.w3.org/1999/xlink" x="0px" y="0px"
	 width="50px" height="50px" viewBox="0 0 50 50" enable-background="new 0 0 50 50" xml:space="preserve">
<path d="M35.32,29.978l0.054-0.143c1.196-3.145,3.999-10.509,0.219-14.904c-1.578-1.836-3.67-3.489-8.202-3.16
	c-0.769-0.337-4.535-1.825-8.184-0.399c-2.382,0.931-4.188,2.898-5.363,5.84c-0.051,0.123-5.023,12.418,4.487,21.866
	c0.102,0.102,0.238,0.157,0.379,0.157c0.025,0,0.052-0.002,0.078-0.005c0.167-0.025,0.313-0.126,0.394-0.275
	c0.066-0.121,1.595-2.979,0.028-5.288c-1.236-1.819-2.337-3.931-1.077-7.914c0.27-0.851,1.075-2.84,1.726-4.226
	c0.562,1.059,1.902,2.437,5.101,3.213c1.585,0.383,3.189,0.121,4.671-0.424c-0.692,2.27-1.619,7.557,2.459,12.695
	c0.513,0.643,2.479,1.524,2.869,1.694c0.229,0.101,0.496,0.03,0.646-0.169s0.143-0.476-0.017-0.668
	C35.565,37.842,33.366,35.113,35.32,29.978z M34.313,29.595c-1.31,3.444-0.918,5.944-0.376,7.416
	c-0.492-0.267-0.884-0.518-1.004-0.668c-4.653-5.86-2.343-11.732-1.957-12.606c1.46-0.715,2.743-1.616,3.689-2.28l-0.309-0.44
	l-0.383-0.389c-1.921,1.349-5.497,3.861-8.76,3.067c-4.659-1.13-4.682-3.486-4.681-3.579c0.009-0.245-0.147-0.465-0.381-0.537
	c-0.233-0.07-0.487,0.025-0.616,0.234c-0.67,1.097-2.042,4.395-2.428,5.616c-1.407,4.441-0.113,6.894,1.211,8.844
	c0.796,1.172,0.501,2.623,0.211,3.466c-8.231-8.845-3.74-19.999-3.691-20.12c1.062-2.659,2.661-4.422,4.751-5.242
	c0.994-0.39,2.009-0.529,2.961-0.529c2.461,0,4.482,0.942,4.512,0.955c0.086,0.041,0.179,0.056,0.273,0.05
	c4.145-0.327,6.03,1.139,7.441,2.779c3.361,3.909,0.718,10.854-0.41,13.819L34.313,29.595z"/>
</svg>
