<?xml version="1.0" encoding="utf-8"?>
<!-- Generator: Adobe Illustrator 16.0.4, SVG Export Plug-In . SVG Version: 6.00 Build 0)  -->
<!DOCTYPE svg PUBLIC "-//W3C//DTD SVG 1.1//EN" "http://www.w3.org/Graphics/SVG/1.1/DTD/svg11.dtd">
<svg version="1.1" id="Layer_1" xmlns="http://www.w3.org/2000/svg" xmlns:xlink="http://www.w3.org/1999/xlink" x="0px" y="0px"
	 width="50px" height="50px" viewBox="0 0 50 50" enable-background="new 0 0 50 50" xml:space="preserve">
<path d="M39.082,27.875c0.15,0.161,0.145,0.414-0.018,0.564c-0.077,0.073-0.175,0.109-0.273,0.109c-0.106,0-0.212-0.043-0.291-0.126
	l-0.725-0.767c-0.009,0.01-0.019,0.017-0.027,0.025l0.417,0.501c0.141,0.17,0.118,0.422-0.053,0.563
	c-0.072,0.062-0.163,0.093-0.255,0.093c-0.113,0-0.229-0.05-0.308-0.146L37.138,28.2c-0.034,0.023-0.068,0.047-0.102,0.069
	l0.262,0.329c0.138,0.173,0.109,0.425-0.063,0.562c-0.073,0.058-0.161,0.088-0.25,0.088c-0.116,0-0.233-0.052-0.312-0.151
	l-0.342-0.43c-0.736,0.326-1.521,0.45-2.277,0.45c-2.121,0-4.029-0.944-4.062-0.96c-0.197-0.101-0.275-0.342-0.178-0.537
	c0.1-0.197,0.335-0.275,0.538-0.179c0.047,0.024,4.908,2.423,7.239-0.81c0.129-0.179,0.378-0.219,0.559-0.09
	c0.154,0.11,0.198,0.31,0.126,0.479L39.082,27.875z M34.513,24.897c0.074-0.016,1.84-0.347,2.359,1.149
	c0.058,0.165,0.212,0.27,0.378,0.27c0.043,0,0.088-0.008,0.131-0.021c0.209-0.073,0.319-0.3,0.247-0.509
	c-0.602-1.731-2.409-1.854-3.274-1.672c-0.216,0.044-0.354,0.255-0.312,0.471C34.085,24.798,34.292,24.936,34.513,24.897z
	 M40.392,22.022c-4.113-3.562-10.163,1.47-10.418,1.686c-0.169,0.143-0.189,0.396-0.048,0.563c0.079,0.094,0.192,0.143,0.306,0.143
	c0.093,0,0.184-0.031,0.259-0.095c0.059-0.049,5.777-4.81,9.379-1.691c0.166,0.145,0.42,0.126,0.563-0.041
	C40.577,22.42,40.559,22.167,40.392,22.022z M19.646,27.442c-0.049,0.025-4.905,2.43-7.24-0.81c-0.129-0.179-0.378-0.219-0.559-0.09
	c-0.154,0.11-0.198,0.311-0.126,0.479l-0.804,0.853c-0.151,0.161-0.145,0.414,0.017,0.564c0.077,0.073,0.176,0.109,0.274,0.109
	c0.106,0,0.212-0.043,0.291-0.126l0.723-0.767c0.009,0.009,0.019,0.017,0.028,0.025l-0.418,0.5c-0.142,0.17-0.119,0.422,0.05,0.563
	c0.075,0.062,0.166,0.094,0.257,0.094c0.114,0,0.228-0.049,0.307-0.145l0.415-0.495c0.034,0.023,0.068,0.047,0.103,0.07
	l-0.262,0.328c-0.138,0.173-0.109,0.425,0.062,0.562c0.074,0.059,0.162,0.088,0.25,0.088c0.117,0,0.233-0.053,0.312-0.15
	l0.343-0.429c0.736,0.326,1.52,0.449,2.276,0.449c2.121,0,4.029-0.944,4.062-0.96c0.197-0.102,0.276-0.342,0.177-0.538
	C20.083,27.423,19.841,27.347,19.646,27.442z M12.373,25.786c-0.072,0.209,0.038,0.437,0.247,0.509
	c0.043,0.015,0.088,0.021,0.131,0.021c0.166,0,0.32-0.104,0.378-0.27c0.518-1.497,2.284-1.166,2.358-1.149
	c0.219,0.039,0.428-0.099,0.471-0.313c0.044-0.216-0.096-0.427-0.312-0.471C14.78,23.933,12.973,24.054,12.373,25.786z
	 M19.511,24.319c0.075,0.063,0.166,0.095,0.258,0.095c0.113,0,0.227-0.049,0.306-0.143c0.143-0.169,0.121-0.421-0.048-0.563
	c-0.255-0.216-6.306-5.246-10.418-1.686c-0.167,0.145-0.186,0.397-0.041,0.564s0.398,0.186,0.564,0.041
	C13.728,19.51,19.453,24.271,19.511,24.319z"/>
</svg>
