<?xml version="1.0" encoding="utf-8"?>
<!-- Generator: Adobe Illustrator 16.0.4, SVG Export Plug-In . SVG Version: 6.00 Build 0)  -->
<!DOCTYPE svg PUBLIC "-//W3C//DTD SVG 1.1//EN" "http://www.w3.org/Graphics/SVG/1.1/DTD/svg11.dtd">
<svg version="1.1" id="Layer_1" xmlns="http://www.w3.org/2000/svg" xmlns:xlink="http://www.w3.org/1999/xlink" x="0px" y="0px"
	 width="50px" height="50px" viewBox="0 0 50 50" enable-background="new 0 0 50 50" xml:space="preserve">
<g>
	<path d="M27.486,12.244c0,0-8.29-4.41-12.699,5.821c0,0-4.645,12.758,4.292,20.636c0,0-2.881-3.881-2.234-5.82
		c0,0,0.883,1.822,2.411,2.409c0,0-3.938-4.115-1.94-9.171c0,0,1.764-3.88,1.822-4.646c0,0,1.705,2.529,7.114,3.471
		c0,0,2.882,0.47,4.41,2.822c0,0-0.588-3.059-4.821-4.938c0,0,4.469-0.236,6.114,5.114c0,0-1.059,6.938,0.822,8.877l2.471,1.412
		c0,0-2.765-1.471-0.354-8.174c0,0,3.352-8.523,0.117-12.875C35.012,17.182,31.955,11.891,27.486,12.244z"/>
</g>
</svg>
