<?xml version="1.0" encoding="utf-8"?>
<!-- Generator: Adobe Illustrator 16.0.4, SVG Export Plug-In . SVG Version: 6.00 Build 0)  -->
<!DOCTYPE svg PUBLIC "-//W3C//DTD SVG 1.1//EN" "http://www.w3.org/Graphics/SVG/1.1/DTD/svg11.dtd">
<svg version="1.1" id="Layer_1" xmlns="http://www.w3.org/2000/svg" xmlns:xlink="http://www.w3.org/1999/xlink" x="0px" y="0px"
	 width="50px" height="50px" viewBox="0 0 50 50" enable-background="new 0 0 50 50" xml:space="preserve">
<g>
	<path d="M32.96,14.171c0,0-6.79-6.438-14.816,0.97c0,0-4.32,3.528-3.438,14.022c0,0-0.617,5.292-3.352,5.558
		c0,0,2.91,0.088,3.969-1.677c0,0,0.088,3.526-3.528,4.41c0,0,3.616-0.265,4.852-2.293c0,0,0.353,2.028-2.293,2.733
		c0,0,5.203,0.177,7.408-2.205c0,0-2.91-4.058-1.94-6.262c0,0,2.47-6.085,6.351-6.879c0,0-1.5,2.293-2.822,2.999
		c0,0,6.438-0.969,9.438-3.174c0,0,0.528-0.089,0.528,0.97c0,0,0.44,3.439,1.588,4.851c0,0,0.266,8.289-5.292,10.229
		c0,0,8.202-0.528,8.996-10.143C38.605,28.281,39.487,14.524,32.96,14.171z"/>
</g>
</svg>
