<?xml version="1.0" encoding="utf-8"?>
<!-- Generator: Adobe Illustrator 16.0.4, SVG Export Plug-In . SVG Version: 6.00 Build 0)  -->
<!DOCTYPE svg PUBLIC "-//W3C//DTD SVG 1.1//EN" "http://www.w3.org/Graphics/SVG/1.1/DTD/svg11.dtd">
<svg version="1.1" id="Layer_1" xmlns="http://www.w3.org/2000/svg" xmlns:xlink="http://www.w3.org/1999/xlink" x="0px" y="0px"
	 width="50px" height="50px" viewBox="0 0 50 50" enable-background="new 0 0 50 50" xml:space="preserve">
<g>
	<path d="M31.52,20.437c0-3.595-2.926-6.52-6.52-6.52s-6.519,2.925-6.519,6.52c0,3.353,2.556,6.09,5.815,6.446
		c-0.048,0.103-0.079,0.212-0.079,0.331v3.264h-2.608c-0.433,0-0.783,0.35-0.783,0.781s0.35,0.782,0.783,0.782h2.608v3.26
		c0,0.433,0.35,0.782,0.782,0.782s0.782-0.35,0.782-0.782v-3.26h2.607c0.433,0,0.781-0.351,0.781-0.782s-0.35-0.781-0.781-0.781
		h-2.607v-3.264c0-0.119-0.031-0.229-0.079-0.331C28.964,26.526,31.52,23.788,31.52,20.437z M25.001,25.39
		c-2.732,0-4.954-2.222-4.954-4.953c0-2.732,2.222-4.955,4.954-4.955c2.731,0,4.954,2.223,4.954,4.955
		C29.955,23.168,27.732,25.39,25.001,25.39z"/>
</g>
</svg>
