<?xml version="1.0" encoding="utf-8"?>
<!-- Generator: Adobe Illustrator 16.0.4, SVG Export Plug-In . SVG Version: 6.00 Build 0)  -->
<!DOCTYPE svg PUBLIC "-//W3C//DTD SVG 1.1//EN" "http://www.w3.org/Graphics/SVG/1.1/DTD/svg11.dtd">
<svg version="1.1" id="Layer_1" xmlns="http://www.w3.org/2000/svg" xmlns:xlink="http://www.w3.org/1999/xlink" x="0px" y="0px"
	 width="50px" height="50px" viewBox="0 0 50 50" enable-background="new 0 0 50 50" xml:space="preserve">
<g>
	<path d="M32.483,21.654l-0.246-0.384c-1.091-1.685-2.449-3.78,0.298-6.942c0.181-0.209,0.158-0.524-0.05-0.706
		c-0.209-0.181-0.522-0.157-0.706,0.05c-3.239,3.73-1.45,6.492-0.382,8.142l0.237,0.372c4.623,7.367,2.181,12.261,1.538,13.314
		h-7.678v-4.396l-0.009-0.047l0.166-0.049l2.58-1.111c0.253-0.109,0.37-0.403,0.261-0.657c-0.109-0.253-0.405-0.372-0.657-0.261
		l-2.581,1.111c-0.125,0.055-0.392,0.055-0.519,0l-2.58-1.111c-0.252-0.112-0.549,0.006-0.657,0.261
		c-0.109,0.254,0.008,0.548,0.261,0.657l2.58,1.111l0.166,0.049l-0.009,0.047V35.5h-7.618c-2.352-7.384-1.052-9.316,0.736-11.978
		c0.325-0.484,0.662-0.987,0.991-1.542c2.983-5.03-0.343-8.308-0.377-8.341c-0.199-0.191-0.516-0.183-0.707,0.016
		c-0.19,0.199-0.184,0.516,0.016,0.707c0.028,0.026,2.792,2.753,0.209,7.108c-0.319,0.537-0.646,1.024-0.962,1.493
		c-1.899,2.827-3.399,5.061-0.746,13.191c0.067,0.205,0.259,0.345,0.476,0.345L33.445,36.5c0.159,0,0.31-0.076,0.403-0.205
		C34.02,36.061,37.992,30.434,32.483,21.654z"/>
	<circle cx="24.995" cy="24.111" r="0.729"/>
</g>
</svg>
