<?xml version="1.0" encoding="utf-8"?>
<!-- Generator: Adobe Illustrator 16.0.4, SVG Export Plug-In . SVG Version: 6.00 Build 0)  -->
<!DOCTYPE svg PUBLIC "-//W3C//DTD SVG 1.1//EN" "http://www.w3.org/Graphics/SVG/1.1/DTD/svg11.dtd">
<svg version="1.1" id="Layer_1" xmlns="http://www.w3.org/2000/svg" xmlns:xlink="http://www.w3.org/1999/xlink" x="0px" y="0px"
	 width="50px" height="50px" viewBox="0 0 50 50" enable-background="new 0 0 50 50" xml:space="preserve">
<g>
	<path d="M31.188,11.301c-2.318-0.904-4.242-0.948-5.72-0.128c-2.295,1.273-2.866,4.324-3.081,5.473
		c-0.267,1.431-1.26,4.063-4.914,5.63c-1.229,0.526-5.022,2.799-2.241,9.951l0.126,0.317c0.585,1.455,1.188,2.963-0.93,5.832
		c-0.164,0.223-0.117,0.535,0.105,0.699c0.221,0.164,0.536,0.117,0.699-0.104c2.45-3.319,1.676-5.249,1.053-6.8l-0.122-0.309
		c-2.389-6.143,0.396-8.108,1.704-8.667c4.081-1.75,5.199-4.74,5.502-6.366c0.326-1.739,0.914-3.855,2.583-4.782
		c1.205-0.668,2.844-0.606,4.871,0.186c4.336,1.691,5.116,6.279,2.317,13.64c-1.078,2.834-4.686,8.36-8.52,8.914
		c-0.631,0.092-1.374,0.035-2.164-0.023c-1.574-0.12-3.204-0.243-4.349,0.771c-0.775,0.688-1.186,1.785-1.255,3.354
		c-0.012,0.275,0.202,0.51,0.478,0.521h0.022c0.267,0,0.487-0.209,0.5-0.478c0.056-1.286,0.356-2.153,0.918-2.649
		c0.828-0.736,2.243-0.629,3.61-0.523c0.808,0.061,1.644,0.125,2.382,0.018c4.496-0.65,8.276-6.83,9.312-9.55
		C37.854,16.294,34.589,12.628,31.188,11.301z"/>
	<path d="M19.91,25.638c-1.24,0.253-1.773,1.079-1.831,1.172c-1.004,1.655-0.784,3.153-0.422,4.12
		c0.588,1.572,1.854,2.607,2.779,2.902c0.682,0.219,1.316,0.326,1.9,0.326c0.83,0,1.559-0.219,2.179-0.656
		c1.411-0.994,1.823-2.836,1.941-3.729l0.143,0.001c4.276,0,5.571-4.143,6.073-5.747c0.873-2.794,0.888-4.943,0.041-6.389
		c-0.689-1.178-1.717-1.435-1.739-1.435v0.001c-0.947-0.367-1.764-0.344-2.424,0.073l-0.062,0.041
		c-0.047-0.512-0.169-0.952-0.364-1.291c-0.231-0.401-0.568-0.67-0.974-0.774l-0.254-0.051c-1.102-0.148-1.632,0.704-1.761,1.176
		l-0.001,0.258c0.266,1.018-0.157,1.942-0.448,2.329c-1.303,1.731-1.164,3.397-0.819,4.488c-0.97-0.443-1.962-0.637-2.579,0.017
		c-0.372,0.396-0.546,0.894-0.502,1.438c0.048,0.6,0.354,1.211,0.746,1.766C20.961,25.545,20.421,25.533,19.91,25.638z
		 M24.182,26.963c-0.637-0.49-2.31-2.011-2.399-3.136c-0.021-0.267,0.053-0.48,0.232-0.672c0.233-0.245,1.075-0.126,2.752,0.948
		l0.171,0.069c0.545,0.436,1.151,0.632,1.791,0.582c1.915-0.146,3.452-2.49,3.517-2.59c0.149-0.231,0.083-0.541-0.147-0.69
		c-0.23-0.148-0.539-0.085-0.691,0.146c-0.366,0.564-1.576,2.048-2.754,2.137c-0.521,0.037-0.983-0.188-1.401-0.656
		c-0.063-0.089-1.526-2.195,0.234-4.535c0.476-0.631,0.918-1.787,0.654-3.025c0.074-0.162,0.254-0.402,0.626-0.348l0.129,0.025
		c0.094,0.024,0.232,0.083,0.362,0.309c0.271,0.468,0.325,1.329,0.167,2.325c-0.186,0.552-0.223,1.019-0.226,1.056
		c-0.018,0.257,0.161,0.485,0.414,0.529c0.266,0.046,0.499-0.113,0.567-0.36c0.093-0.338,0.166-0.668,0.22-0.988
		c0.132-0.365,0.345-0.751,0.686-0.967c0.378-0.237,0.891-0.235,1.599,0.036c0.028,0.007,0.708,0.176,1.185,1.014
		c0.468,0.821,0.821,2.452-0.148,5.556c-0.783,2.506-2.138,5.33-5.669,5.021c-0.13-0.008-0.271,0.031-0.375,0.123
		c-0.104,0.092-0.163,0.221-0.17,0.357c-0.001,0.023-0.105,2.432-1.568,3.459c-0.787,0.555-1.861,0.617-3.195,0.191
		c-0.708-0.226-1.702-1.108-2.147-2.301c-0.284-0.759-0.456-1.938,0.341-3.25c0.003-0.006,0.35-0.543,1.176-0.711
		c0.158-0.031,0.323-0.049,0.494-0.049c0.863,0,1.883,0.407,2.981,1.197c0.225,0.16,0.529,0.111,0.693-0.107
		C24.44,27.439,24.398,27.131,24.182,26.963z"/>
</g>
</svg>
