<?xml version="1.0" encoding="utf-8"?>
<!-- Generator: Adobe Illustrator 16.0.4, SVG Export Plug-In . SVG Version: 6.00 Build 0)  -->
<!DOCTYPE svg PUBLIC "-//W3C//DTD SVG 1.1//EN" "http://www.w3.org/Graphics/SVG/1.1/DTD/svg11.dtd">
<svg version="1.1" id="Layer_1" xmlns="http://www.w3.org/2000/svg" xmlns:xlink="http://www.w3.org/1999/xlink" x="0px" y="0px"
	 width="50px" height="50px" viewBox="0 0 50 50" enable-background="new 0 0 50 50" xml:space="preserve">
<path d="M29.938,22.068h-2.006v-2.006c0-0.926-0.753-1.68-1.679-1.68h-2.506c-0.926,0-1.679,0.754-1.679,1.68v2.006h-2.005
	c-0.927,0-1.681,0.752-1.681,1.679v2.506c0,0.927,0.754,1.679,1.681,1.679h2.005v2.006c0,0.926,0.753,1.68,1.679,1.68h2.506
	c0.926,0,1.679-0.754,1.679-1.68v-2.006h2.006c0.926,0,1.68-0.752,1.68-1.679v-2.506C31.616,22.82,30.862,22.068,29.938,22.068z
	 M30.616,26.253c0,0.374-0.306,0.679-0.681,0.679h-2.505c-0.275,0-0.5,0.225-0.5,0.5v2.506c0,0.375-0.305,0.68-0.679,0.68h-2.506
	c-0.374,0-0.679-0.305-0.679-0.68v-2.506c0-0.275-0.225-0.5-0.5-0.5h-2.505c-0.375,0-0.681-0.305-0.681-0.679v-2.506
	c0-0.374,0.306-0.679,0.681-0.679h2.505c0.275,0,0.5-0.225,0.5-0.5v-2.506c0-0.375,0.305-0.68,0.679-0.68h2.506
	c0.374,0,0.679,0.305,0.679,0.68v2.506c0,0.275,0.225,0.5,0.5,0.5h2.505c0.375,0,0.681,0.305,0.681,0.679V26.253z M25,14.75
	c-5.652,0-10.25,4.598-10.25,10.25S19.348,35.25,25,35.25S35.25,30.652,35.25,25S30.652,14.75,25,14.75z M25,34.25
	c-5.101,0-9.25-4.148-9.25-9.25s4.149-9.25,9.25-9.25s9.25,4.148,9.25,9.25S30.101,34.25,25,34.25z"/>
</svg>
