<?xml version="1.0" encoding="utf-8"?>
<!-- Generator: Adobe Illustrator 16.0.4, SVG Export Plug-In . SVG Version: 6.00 Build 0)  -->
<!DOCTYPE svg PUBLIC "-//W3C//DTD SVG 1.1//EN" "http://www.w3.org/Graphics/SVG/1.1/DTD/svg11.dtd">
<svg version="1.1" id="Layer_1" xmlns="http://www.w3.org/2000/svg" xmlns:xlink="http://www.w3.org/1999/xlink" x="0px" y="0px"
	 width="50px" height="50px" viewBox="0 0 50 50" enable-background="new 0 0 50 50" xml:space="preserve">
<g>
	<path d="M30.225,22.518l-0.004,0.011c-0.502-0.198-1.572-0.264-1.59-0.264c-1.14,0-2.062,0.84-2.354,2.142
		c-0.227,1.018-0.053,2.006,0.529,3.021l0.293,0.496c0.25,0.417,0.483,0.81,0.674,1.225c0.508,1.112,0.42,2.187-0.258,3.188
		c-0.184,0.271-0.459,0.502-0.75,0.746l-0.089,0.074c-0.196,0.165-0.401,0.318-0.608,0.474c-0.293,0.219-0.586,0.438-0.854,0.688
		c-0.834,0.773-1.276,1.844-1.354,3.268c-0.074,1.34,0.58,2.433,1.795,2.998c0.465,0.217,1.013,0.446,1.623,0.446
		c0.138,0,0.275-0.011,0.418-0.035c1.105-0.196,1.955-0.918,2.521-2.146c0.155-0.336,0.26-0.688,0.346-0.994
		c0.295-1.048,0.824-2.049,1.619-3.061l0.463-0.586c0.491-0.616,0.998-1.253,1.455-1.924c0.707-1.035,1.129-2.215,1.256-3.503
		c0.142-1.444-0.336-2.77-1.42-3.938C32.982,23.821,31.768,23.06,30.225,22.518z M33.273,31.722
		c-0.438,0.641-0.933,1.263-1.412,1.864l-0.469,0.592c-0.875,1.117-1.463,2.231-1.793,3.406c-0.076,0.269-0.166,0.576-0.291,0.846
		c-0.435,0.938-1.002,1.44-1.789,1.58c-0.506,0.089-0.985-0.12-1.444-0.333c-0.849-0.396-1.271-1.1-1.22-2.037
		c0.064-1.169,0.396-1.991,1.037-2.588c0.244-0.226,0.51-0.423,0.773-0.621c0.223-0.166,0.445-0.332,0.656-0.511l0.085-0.071
		c0.315-0.265,0.674-0.563,0.937-0.952c0.874-1.294,0.992-2.732,0.34-4.164c-0.213-0.466-0.475-0.9-0.726-1.321l-0.284-0.481
		c-0.459-0.8-0.593-1.533-0.421-2.306c0.188-0.852,0.704-1.358,1.384-1.358c0.338,0,1.008,0.129,1.205,0.18l0.049,0.018
		c1.389,0.487,2.473,1.163,3.312,2.064c0.893,0.963,1.27,1.995,1.154,3.158C34.249,29.805,33.884,30.827,33.273,31.722z"/>
	<path d="M30.078,20.845c0.869-0.789,1.277-2.601,0.834-3.694c-0.443-1.097-1.451-1.264-2.227-0.363
		c-0.121,0.14-0.233,0.288-0.33,0.449c-0.114,0.188-0.207,0.394-0.269,0.513c-0.303,0.864-0.394,1.651-0.162,2.447
		C28.253,21.333,29.221,21.622,30.078,20.845z"/>
	<path d="M32.861,22.028c0.304-0.219,0.537-0.548,0.697-0.983c0.195-0.501,0.256-1.017,0.117-1.536
		c-0.209-0.797-0.88-1.035-1.502-0.546c-0.699,0.553-1.025,1.808-0.689,2.646C31.741,22.251,32.311,22.423,32.861,22.028z"/>
	<path d="M34.882,23.506c0.644-0.377,1.048-1.454,0.817-2.188c-0.159-0.51-0.588-0.693-1.036-0.438
		c-0.372,0.21-0.59,0.562-0.763,0.959c-0.131,0.398-0.201,0.804-0.084,1.218C33.971,23.594,34.415,23.782,34.882,23.506z"/>
	<path d="M36.836,24.104c0.023-0.213,0.077-0.428,0.064-0.638c-0.025-0.459-0.364-0.685-0.776-0.553
		c-0.548,0.177-1.021,0.948-0.95,1.553c0.055,0.446,0.369,0.676,0.771,0.541C36.367,24.866,36.628,24.528,36.836,24.104z"/>
	<path d="M37.264,25.307c-0.111-0.366-0.438-0.506-0.73-0.278c-0.178,0.139-0.311,0.346-0.479,0.538
		c-0.009,0.274-0.053,0.539-0.013,0.784c0.072,0.411,0.416,0.539,0.75,0.317C37.175,26.412,37.402,25.758,37.264,25.307z"/>
	<path d="M26.143,30.35c-0.078-1.424-0.521-2.492-1.355-3.269c-0.271-0.25-0.564-0.472-0.857-0.69
		c-0.205-0.152-0.41-0.305-0.606-0.472L23.24,25.85c-0.293-0.245-0.57-0.478-0.756-0.749c-0.678-1.004-0.764-2.076-0.258-3.188
		c0.19-0.416,0.426-0.81,0.674-1.227l0.293-0.496c0.584-1.017,0.757-2.005,0.531-3.021c-0.291-1.3-1.216-2.142-2.359-2.142
		c-0.012,0-1.081,0.064-1.582,0.265l-0.006-0.012c-1.543,0.543-2.758,1.305-3.711,2.33c-1.084,1.167-1.562,2.491-1.42,3.936
		c0.127,1.29,0.549,2.469,1.256,3.503c0.457,0.672,0.964,1.309,1.455,1.925l0.463,0.586c0.795,1.011,1.324,2.012,1.619,3.062
		c0.086,0.305,0.189,0.657,0.346,0.994c0.566,1.226,1.416,1.946,2.523,2.145c0.141,0.025,0.278,0.036,0.416,0.036
		c0.61,0,1.158-0.23,1.623-0.447C25.562,32.783,26.216,31.689,26.143,30.35z M22.48,32.774c-0.787-0.141-1.355-0.643-1.789-1.58
		c-0.125-0.27-0.217-0.576-0.291-0.846c-0.332-1.177-0.92-2.291-1.795-3.406l-0.469-0.592c-0.479-0.602-0.975-1.224-1.41-1.865
		c-0.61-0.894-0.977-1.916-1.086-3.036c-0.113-1.162,0.264-2.195,1.155-3.156c0.841-0.904,1.925-1.581,3.312-2.067l0.045-0.016
		c0.195-0.05,0.873-0.182,1.215-0.182c0.674,0,1.189,0.509,1.379,1.358c0.172,0.773,0.038,1.506-0.421,2.307l-0.284,0.481
		c-0.251,0.421-0.512,0.856-0.727,1.323c-0.65,1.429-0.533,2.869,0.34,4.164c0.265,0.388,0.623,0.688,0.941,0.954l0.079,0.066
		c0.212,0.179,0.433,0.344,0.653,0.509c0.268,0.198,0.533,0.396,0.775,0.622c0.645,0.6,0.975,1.421,1.039,2.59
		c0.051,0.938-0.371,1.643-1.22,2.037C23.466,32.654,22.98,32.865,22.48,32.774z"/>
	<path d="M22.074,12.961c0.23-0.797,0.141-1.583-0.162-2.448c-0.062-0.119-0.153-0.324-0.268-0.512
		c-0.098-0.162-0.211-0.312-0.332-0.451c-0.773-0.899-1.781-0.731-2.226,0.364c-0.444,1.095-0.035,2.905,0.834,3.694
		C20.779,14.385,21.747,14.096,22.074,12.961z"/>
	<path d="M17.139,14.793c0.551,0.396,1.12,0.222,1.377-0.419c0.336-0.84,0.01-2.095-0.689-2.646
		c-0.622-0.488-1.293-0.252-1.502,0.545c-0.139,0.521-0.078,1.036,0.117,1.537C16.602,14.245,16.835,14.575,17.139,14.793z"/>
	<path d="M15.118,16.27c0.468,0.276,0.911,0.088,1.065-0.451c0.116-0.414,0.047-0.817-0.086-1.217
		c-0.172-0.397-0.39-0.75-0.762-0.96c-0.447-0.254-0.877-0.07-1.036,0.44C14.07,14.815,14.477,15.893,15.118,16.27z"/>
	<path d="M13.876,15.679c-0.412-0.132-0.751,0.094-0.776,0.553c-0.013,0.21,0.041,0.426,0.064,0.639
		c0.208,0.423,0.469,0.76,0.891,0.901c0.402,0.137,0.719-0.094,0.771-0.541C14.896,16.628,14.424,15.854,13.876,15.679z"/>
	<path d="M13.468,17.793c-0.294-0.229-0.62-0.088-0.731,0.278c-0.139,0.451,0.09,1.104,0.474,1.361
		c0.334,0.222,0.679,0.093,0.75-0.317c0.04-0.245-0.004-0.511-0.012-0.783C13.777,18.137,13.646,17.93,13.468,17.793z"/>
</g>
</svg>
