<?xml version="1.0" encoding="utf-8"?>
<!-- Generator: Adobe Illustrator 16.0.4, SVG Export Plug-In . SVG Version: 6.00 Build 0)  -->
<!DOCTYPE svg PUBLIC "-//W3C//DTD SVG 1.1//EN" "http://www.w3.org/Graphics/SVG/1.1/DTD/svg11.dtd">
<svg version="1.1" id="Layer_1" xmlns="http://www.w3.org/2000/svg" xmlns:xlink="http://www.w3.org/1999/xlink" x="0px" y="0px"
	 width="50px" height="50px" viewBox="0 0 50 50" enable-background="new 0 0 50 50" xml:space="preserve">
<g>
	<path d="M37.779,27.024l-0.137-0.306c-0.525-1.159-1.067-2.359-1.041-4.981v-5.49c0-0.276-0.225-0.5-0.5-0.5
		c-0.276,0-0.5,0.224-0.5,0.5v5.485c-0.029,2.838,0.586,4.198,1.129,5.398l0.135,0.3c0.894,2.015,1.056,3.622,0.47,4.651
		c-0.607,1.064-1.86,1.231-1.844,1.233H15.375c-2.439-0.069-3.071-1.489-3.059-2.317c0.006-0.471,0.2-0.771,0.33-0.771
		c1.23,0,3.373-0.233,4.396-0.437c3.142-0.615,9.28-3.861,10.999-6.909c0.519-0.916,0.721-3.033,0.619-6.471l-0.006-0.227
		c0-0.276-0.224-0.5-0.5-0.5s-0.5,0.224-0.5,0.5l0.006,0.256c0.123,4.203-0.254,5.531-0.49,5.949
		c-1.538,2.728-7.346,5.836-10.321,6.421c-0.979,0.191-3.028,0.416-4.203,0.416c-0.756,0-1.315,0.738-1.33,1.757
		c-0.022,1.55,1.229,3.252,4.044,3.332l20.186-0.003c0.072-0.008,1.775-0.207,2.649-1.723
		C38.965,31.256,38.825,29.385,37.779,27.024z"/>
	<path d="M29.773,29.033c0.478,0.072,0.921,0.108,1.329,0.108c1.309,0,2.259-0.371,2.834-1.108c1.218-1.564,0.17-4.11,0.125-4.218
		c-0.106-0.254-0.402-0.374-0.654-0.268c-0.255,0.106-0.375,0.4-0.268,0.654c0.244,0.583,0.724,2.298,0.008,3.216
		c-0.516,0.66-1.601,0.873-3.225,0.627c-0.271-0.045-0.527,0.146-0.568,0.418C29.312,28.737,29.5,28.992,29.773,29.033z"/>
</g>
</svg>
