<?xml version="1.0" encoding="utf-8"?>
<!-- Generator: Adobe Illustrator 16.0.4, SVG Export Plug-In . SVG Version: 6.00 Build 0)  -->
<!DOCTYPE svg PUBLIC "-//W3C//DTD SVG 1.1//EN" "http://www.w3.org/Graphics/SVG/1.1/DTD/svg11.dtd">
<svg version="1.1" id="Layer_1" xmlns="http://www.w3.org/2000/svg" xmlns:xlink="http://www.w3.org/1999/xlink" x="0px" y="0px"
	 width="50px" height="50px" viewBox="0 0 50 50" enable-background="new 0 0 50 50" xml:space="preserve">
<path d="M25.104,20.94c-3.227,0.229-5.882,2.266-6.176,4.736c-0.123,1.027,0.071,1.836,0.574,2.402
	c0.467,0.525,1.174,0.805,2.044,0.805c0,0,0,0,0.001,0c0.309,0,0.635-0.037,0.962-0.107c-0.121,0.43-0.44,1.098-1.296,1.496
	c-0.204,0.096-0.292,0.338-0.197,0.541c0.069,0.146,0.215,0.234,0.369,0.234c0.058,0,0.116-0.012,0.171-0.037
	c1.542-0.719,1.793-2.105,1.833-2.508c0.035-0.016,0.072-0.025,0.107-0.041c0.575-0.246,0.976-0.621,1.33-0.951
	c0.375-0.35,0.629-0.584,0.943-0.561c2.655,0.311,4.295,0.027,5.066-0.873c0.412-0.48,0.559-1.125,0.436-1.918
	C30.956,22.1,28.359,20.715,25.104,20.94z M30.219,25.547c-0.291,0.338-0.83,0.555-1.596,0.65c0.095-0.441,0.21-1.332-0.236-1.904
	c-0.183-0.234-0.541-0.51-1.183-0.48c-0.226,0.011-0.397,0.201-0.388,0.424c0.009,0.22,0.188,0.39,0.406,0.39
	c0.004,0,0.012,0,0.018,0c0.363-0.022,0.469,0.121,0.505,0.168c0.241,0.31,0.149,1.04,0.034,1.428c-0.002,0.008,0,0.018-0.002,0.029
	c-0.557,0.008-1.189-0.025-1.911-0.109c-0.679-0.072-1.146,0.357-1.594,0.775c-0.321,0.297-0.651,0.605-1.096,0.797
	c-0.535,0.229-1.113,0.355-1.628,0.355h-0.001c-0.44,0-1.046-0.094-1.437-0.531c-0.342-0.387-0.468-0.98-0.375-1.766
	c0.077-0.644,0.353-1.251,0.778-1.794c0.235-0.11,0.967-0.36,1.407-0.108c0.256,0.147,0.406,0.473,0.445,0.967
	c0.017,0.213,0.195,0.375,0.405,0.375c0.011,0,0.022-0.002,0.033-0.002c0.224-0.019,0.391-0.215,0.373-0.438
	c-0.062-0.778-0.349-1.319-0.853-1.606c-0.223-0.129-0.464-0.188-0.702-0.211c0.953-0.66,2.187-1.104,3.54-1.201
	c0.216-0.017,0.428-0.022,0.637-0.022c2.478,0,4.442,1.074,4.67,2.553C30.555,24.838,30.473,25.252,30.219,25.547z M15.644,32.188
	h18.711c0.226,0,0.408-0.182,0.408-0.404V19.846c0-0.225-0.183-0.406-0.408-0.406H15.644c-0.225,0-0.407,0.183-0.407,0.406v11.937
	C15.237,32.006,15.419,32.188,15.644,32.188z M16.051,20.252h17.898v11.123H16.051V20.252z M39.593,16.897H10.406
	c-0.225,0-0.407,0.182-0.407,0.405s0.182,0.408,0.407,0.408h2.39v15.27c0,0.908,0.74,1.648,1.649,1.648h21.11
	c0.909,0,1.649-0.74,1.649-1.648V17.71h2.39c0.225,0,0.407-0.185,0.407-0.408S39.818,16.897,39.593,16.897z M36.391,32.98
	c0,0.461-0.375,0.834-0.836,0.834H14.446c-0.461,0-0.835-0.373-0.835-0.834V17.71h22.78V32.98z M10,15.778
	c0-0.226,0.182-0.406,0.407-0.406h29.186c0.226,0,0.407,0.182,0.407,0.406c0,0.224-0.182,0.408-0.407,0.408H10.406
	C10.182,16.186,10,16.002,10,15.778z"/>
</svg>
