<?xml version="1.0" encoding="utf-8"?>
<!-- Generator: Adobe Illustrator 16.0.4, SVG Export Plug-In . SVG Version: 6.00 Build 0)  -->
<!DOCTYPE svg PUBLIC "-//W3C//DTD SVG 1.1//EN" "http://www.w3.org/Graphics/SVG/1.1/DTD/svg11.dtd">
<svg version="1.1" id="Layer_1" xmlns="http://www.w3.org/2000/svg" xmlns:xlink="http://www.w3.org/1999/xlink" x="0px" y="0px"
	 width="50px" height="50px" viewBox="0 0 50 50" enable-background="new 0 0 50 50" xml:space="preserve">
<path d="M27.306,17.614c0,0.127-0.108,0.229-0.242,0.229c-0.135,0-0.242-0.103-0.242-0.229c0-0.128,0.107-0.231,0.242-0.231
	C27.197,17.383,27.306,17.486,27.306,17.614z M22.937,17.383c-0.136,0-0.242,0.104-0.242,0.231c0,0.127,0.106,0.229,0.242,0.229
	c0.133,0,0.242-0.103,0.242-0.229C23.179,17.486,23.069,17.383,22.937,17.383z M23.42,20.179v1.822c0,0.089,0.071,0.161,0.161,0.161
	c0.088,0,0.16-0.072,0.16-0.161v-1.822c0-0.693,0.562-1.257,1.257-1.257s1.258,0.564,1.258,1.257v1.891
	c0,0.089,0.072,0.161,0.161,0.161s0.161-0.072,0.161-0.161v-1.891c0-0.871-0.709-1.579-1.58-1.579
	C24.128,18.6,23.42,19.308,23.42,20.179z M25.796,21.054c-0.001,0.001-0.146,0.142-0.333,0.142h-0.001
	c-0.104,0-0.204-0.047-0.303-0.136v-0.341c0.097,0.045,0.197,0.069,0.302,0.069c0.001,0,0.001,0,0.001,0
	c0.324,0,0.553-0.227,0.562-0.237c0.062-0.062,0.062-0.163,0-0.226c-0.063-0.062-0.164-0.063-0.229-0.001
	c-0.002,0.001-0.156,0.156-0.337,0.143c-0.103-0.001-0.203-0.048-0.301-0.136v-0.256c0.097,0.046,0.196,0.069,0.302,0.07
	c0.001,0,0.001,0,0.001,0c0.324,0,0.554-0.227,0.562-0.237c0.062-0.062,0.062-0.163,0-0.226c-0.062-0.062-0.164-0.063-0.228-0.001
	c-0.002,0.001-0.155,0.143-0.337,0.142c-0.104-0.001-0.203-0.048-0.301-0.135v-0.284c0-0.089-0.071-0.161-0.161-0.161
	c-0.088,0-0.16,0.072-0.16,0.161v0.284c-0.098,0.087-0.198,0.134-0.3,0.135c-0.001,0-0.003,0-0.003,0
	c-0.187,0-0.331-0.138-0.334-0.142c-0.062-0.062-0.164-0.062-0.228,0c-0.062,0.063-0.063,0.165-0.002,0.228
	c0.01,0.01,0.239,0.237,0.562,0.237h0.003c0.104,0,0.204-0.024,0.301-0.07v0.256c-0.098,0.087-0.198,0.134-0.3,0.136
	c-0.193-0.009-0.334-0.139-0.337-0.143c-0.062-0.062-0.164-0.062-0.228,0c-0.062,0.063-0.063,0.165-0.002,0.228
	c0.01,0.01,0.239,0.237,0.562,0.237h0.003c0.104,0,0.204-0.024,0.301-0.069v0.341c-0.097,0.087-0.198,0.135-0.3,0.136
	c-0.193,0.006-0.333-0.139-0.337-0.142c-0.062-0.062-0.164-0.063-0.228-0.001c-0.062,0.062-0.063,0.165-0.002,0.228
	c0.01,0.01,0.239,0.237,0.562,0.237h0.003c0.104,0,0.204-0.024,0.301-0.07v0.062c0,0.089,0.072,0.161,0.16,0.161
	c0.09,0,0.161-0.072,0.161-0.161V21.45c0.097,0.046,0.197,0.069,0.302,0.07c0.001,0,0.001,0,0.001,0
	c0.324,0,0.553-0.228,0.562-0.237c0.062-0.063,0.062-0.165-0.002-0.228C25.961,20.99,25.858,20.991,25.796,21.054z M25,21.917
	c-0.108,0-0.194,0.087-0.194,0.194s0.086,0.195,0.194,0.195c0.106,0,0.192-0.087,0.192-0.195S25.106,21.917,25,21.917z
	 M20.002,16.727c-1.08,0.81-2.024-0.136-2.063-0.177c-0.062-0.063-0.164-0.064-0.229-0.003c-0.062,0.062-0.064,0.163-0.004,0.227
	c0.009,0.009,0.594,0.601,1.398,0.601c0.334,0,0.707-0.102,1.09-0.39c0.07-0.054,0.086-0.154,0.033-0.226
	C20.174,16.688,20.072,16.674,20.002,16.727z M21.774,15.327c-0.332-0.037-0.606,0.037-0.812,0.219
	c-0.35,0.309-0.359,0.814-0.359,0.835c0,0.089,0.07,0.162,0.16,0.163h0.002c0.088,0,0.158-0.071,0.159-0.159
	c0-0.004,0.013-0.387,0.251-0.598c0.135-0.119,0.324-0.166,0.562-0.14c0.084,0.008,0.168-0.054,0.179-0.142
	C21.927,15.416,21.862,15.336,21.774,15.327z M17.172,16.675c-0.188-0.048-0.387-0.121-0.479-0.171
	c0.016-0.048,0.039-0.103,0.074-0.134c0.065-0.059,0.071-0.161,0.014-0.227c-0.061-0.066-0.161-0.072-0.229-0.012
	c-0.162,0.145-0.193,0.389-0.197,0.416c-0.004,0.04,0.006,0.08,0.029,0.113c0.117,0.163,0.534,0.284,0.708,0.328
	c0.015,0.003,0.026,0.005,0.04,0.005c0.071,0,0.137-0.048,0.156-0.121C17.31,16.785,17.258,16.697,17.172,16.675z M32.062,16.55
	c-0.039,0.041-0.979,0.99-2.063,0.177c-0.071-0.053-0.172-0.039-0.226,0.032c-0.053,0.071-0.039,0.172,0.031,0.226
	c0.385,0.288,0.756,0.39,1.09,0.39c0.807,0,1.392-0.592,1.398-0.601c0.062-0.064,0.061-0.166-0.004-0.228
	C32.226,16.484,32.123,16.486,32.062,16.55z M28.224,15.327c-0.088,0.01-0.151,0.089-0.143,0.178
	c0.01,0.088,0.089,0.151,0.178,0.142c0.239-0.026,0.428,0.02,0.562,0.139c0.242,0.212,0.252,0.596,0.252,0.6
	c0.001,0.087,0.072,0.158,0.16,0.158h0.002c0.09-0.001,0.16-0.074,0.158-0.163c0-0.021-0.01-0.527-0.358-0.835
	C28.83,15.364,28.556,15.29,28.224,15.327z M32.867,16.992c0.014,0,0.026-0.001,0.04-0.005c0.173-0.044,0.589-0.165,0.707-0.328
	c0.023-0.033,0.035-0.073,0.029-0.113c-0.004-0.027-0.035-0.271-0.196-0.416c-0.066-0.059-0.168-0.054-0.228,0.012
	s-0.055,0.168,0.012,0.227c0.035,0.032,0.06,0.086,0.074,0.133c-0.094,0.052-0.289,0.124-0.479,0.172
	c-0.086,0.022-0.138,0.109-0.116,0.195C32.729,16.943,32.795,16.992,32.867,16.992z M34.128,16.656
	c0.006,0.049-0.013,0.098-0.048,0.133c-0.05,0.048-1.233,1.176-2.949,1.325c-0.44,0.038-0.844,0.057-1.208,0.057
	c-0.576,0-1.056-0.05-1.455-0.146c-0.006,0.014-0.012,0.027-0.021,0.04c0.062,0.195,0.095,0.397,0.095,0.604
	c0,0.558-0.23,1.084-0.641,1.461c0.119,0.318,0.183,0.67,0.183,1.025c0,0.624-0.192,1.22-0.528,1.654
	c0.266,0.407,2.573,4.162,0.562,7.601c0.305,0.376,0.869,1.704-0.287,6.004l0.246,0.222c0.031,0.03,0.053,0.071,0.054,0.116
	l0.015,0.748l1.565,1.441c0.033,0.031,0.052,0.074,0.052,0.119v0.779c0,0.09-0.07,0.161-0.16,0.161h-2.101
	c-0.035,0-0.067-0.011-0.097-0.032l-1.282-0.966c-0.039-0.028-0.062-0.073-0.063-0.122l-0.093-2.044
	c-0.003-0.065,0.034-0.127,0.095-0.153l0.168-0.076c0-0.004-0.002-0.01-0.002-0.016c0.073-0.787-0.203-1.792-0.336-2.048
	c-1.096-2.103-0.34-3.847-0.22-4.096c-0.002-0.003-0.006-0.005-0.007-0.009c-0.023-0.09-0.443-1.648-0.656-2.818
	c-0.213,1.169-0.633,2.729-0.656,2.818c-0.004,0.013-0.012,0.021-0.018,0.033c0.146,0.316,0.838,2.023-0.229,4.071
	c-0.135,0.256-0.41,1.261-0.336,2.047c0,0.007-0.002,0.011-0.002,0.017l0.166,0.074c0.062,0.027,0.099,0.088,0.096,0.154
	l-0.092,2.044c-0.002,0.048-0.025,0.093-0.063,0.122l-1.283,0.966C22.563,39.989,22.53,40,22.495,40h-2.102
	c-0.088,0-0.16-0.072-0.16-0.161v-0.78c0-0.045,0.02-0.088,0.053-0.119l1.566-1.439l0.018-0.749
	c0.001-0.044,0.021-0.086,0.054-0.116l0.246-0.222c-1.172-4.358-0.575-5.664-0.274-6.021c-1.896-3.262,0.086-6.804,0.517-7.5
	c-0.38-0.438-0.599-1.065-0.599-1.738c0-0.355,0.062-0.708,0.183-1.025c-0.407-0.376-0.64-0.903-0.64-1.461
	c0-0.208,0.031-0.41,0.095-0.604c-0.004-0.005-0.007-0.011-0.009-0.016c-0.381,0.082-0.832,0.123-1.364,0.123
	c-0.365,0-0.769-0.019-1.209-0.057c-1.716-0.148-2.899-1.277-2.949-1.325c-0.035-0.035-0.054-0.083-0.048-0.133
	c0.173-1.607,1.998-3.638,2.074-3.723c0.277-0.217,0.927-0.112,1.119-0.074c0.026,0.005,0.054,0.018,0.074,0.036
	c0.424,0.367,0.37,0.825,0.368,0.844c-0.005,0.037-0.022,0.072-0.05,0.097l-0.363,0.339c-0.029,0.028-0.068,0.043-0.109,0.043
	h-0.608c-0.325,0.567-0.458,0.989-0.506,1.284c0.298-0.229,0.685-0.358,1.091-0.358c0.53,0,1.014,0.216,1.321,0.571
	c0.204-0.561,0.743-0.959,1.366-0.959c0.354,0,0.695,0.13,0.961,0.354c0.003-0.001,0.003-0.004,0.005-0.006
	c0.175-0.183,0.374-0.342,0.593-0.471c0.152-0.089,0.312-0.164,0.482-0.223V13.91c-0.336-0.386-0.549-1.105-0.549-1.859
	c0-1.132,0.812-2.052,1.808-2.052c0.997,0,1.809,0.92,1.809,2.052c0,0.742-0.219,1.477-0.549,1.859v0.501
	c0.168,0.059,0.33,0.133,0.481,0.223c0.217,0.127,0.416,0.286,0.595,0.471c0.019,0.02,0.028,0.044,0.036,0.069
	c0.272-0.264,0.646-0.417,1.029-0.417c0.625,0,1.164,0.398,1.368,0.959c0.31-0.355,0.791-0.571,1.32-0.571
	c0.407,0,0.793,0.129,1.092,0.358c-0.048-0.295-0.182-0.718-0.506-1.284h-0.61c-0.039,0-0.08-0.015-0.108-0.043l-0.363-0.339
	c-0.026-0.026-0.045-0.06-0.05-0.098c-0.002-0.019-0.055-0.477,0.367-0.844c0.021-0.018,0.046-0.03,0.072-0.036
	c0.227-0.05,0.983-0.196,1.241,0.004c0.009,0.007,0.019,0.016,0.026,0.025C32.271,12.976,33.956,15.053,34.128,16.656z
	 M22.709,23.021c-0.11,0.177-0.41,0.677-0.692,1.381c0.474,0.206,2.291,1.03,2.993,1.866c0.701-0.835,2.521-1.661,2.993-1.866
	c-0.283-0.704-0.582-1.204-0.693-1.381H22.709z M23.704,36.93l-1.086-0.488l-0.43,0.387l-0.017,0.748
	c-0.001,0.044-0.021,0.085-0.052,0.115l-1.564,1.439v0.549h1.885l1.181-0.889L23.704,36.93z M24.81,26.564
	c-0.002-0.008,0.002-0.016,0.002-0.023c-0.576-0.777-2.42-1.622-2.91-1.837c-0.525,1.448-0.894,3.584,0.307,5.59
	c0.014,0.011,0.025,0.022,0.035,0.038c0.046,0.074,0.023,0.171-0.051,0.219c-0.025,0.02-1.014,0.84,0.246,5.62l0.041-0.038
	c0.049-0.043,0.117-0.054,0.176-0.027l0.789,0.354c-0.032-0.805,0.222-1.767,0.377-2.065c1.08-2.07,0.213-3.813,0.205-3.83
	c-0.029-0.057-0.021-0.121,0.014-0.168c0-0.014-0.001-0.028,0.003-0.043C24.05,30.324,24.854,27.333,24.81,26.564z M27.877,37.689
	c-0.03-0.029-0.051-0.07-0.052-0.114l-0.018-0.748l-0.429-0.386l-1.086,0.488l0.084,1.859l1.181,0.888h1.885v-0.548L27.877,37.689z
	 M28.118,24.704c-0.491,0.215-2.334,1.062-2.91,1.837c0,0.008,0.004,0.016,0.003,0.023c-0.048,0.769,0.758,3.759,0.767,3.789
	c0.008,0.025,0.006,0.052,0,0.076c0.018,0.041,0.02,0.09-0.004,0.133c-0.009,0.018-0.875,1.761,0.204,3.83
	c0.155,0.299,0.409,1.262,0.378,2.066l0.788-0.354c0.06-0.026,0.128-0.017,0.175,0.026l0.043,0.038
	c1.27-4.82,0.254-5.613,0.244-5.621c-0.07-0.05-0.092-0.148-0.044-0.222c0.015-0.022,0.036-0.04,0.06-0.052
	C29.008,28.275,28.642,26.146,28.118,24.704z M33.798,16.61c-0.199-1.423-1.67-3.295-1.833-3.5
	c-0.104-0.053-0.522-0.028-0.924,0.055c-0.192,0.185-0.228,0.388-0.231,0.482l0.269,0.25h0.639c0.058,0,0.11,0.03,0.14,0.079
	c0.574,0.972,0.648,1.597,0.611,1.95c-0.007,0.066-0.054,0.121-0.117,0.138c-0.065,0.018-0.133-0.006-0.172-0.06
	c-0.248-0.337-0.675-0.539-1.14-0.539c-0.558,0-1.049,0.286-1.251,0.729c-0.03,0.067-0.104,0.103-0.176,0.091
	c-0.072-0.013-0.127-0.074-0.131-0.148c-0.039-0.594-0.534-1.06-1.131-1.06c-0.354,0-0.692,0.164-0.91,0.438
	c-0.056,0.07-0.155,0.082-0.226,0.027c-0.052-0.041-0.071-0.107-0.056-0.167c-0.04-0.002-0.079-0.018-0.109-0.049
	c-0.156-0.163-0.332-0.303-0.523-0.416c-0.164-0.095-0.34-0.173-0.526-0.229c-0.067-0.021-0.114-0.083-0.114-0.154v-0.68
	c0-0.042,0.018-0.082,0.047-0.112c0.291-0.3,0.504-1.008,0.504-1.685c0-0.954-0.668-1.73-1.487-1.73s-1.485,0.776-1.485,1.73
	c0,0.697,0.202,1.375,0.503,1.685c0.029,0.03,0.046,0.07,0.046,0.112v0.68c0,0.071-0.047,0.133-0.113,0.154
	c-0.187,0.057-0.363,0.134-0.527,0.229c-0.191,0.114-0.369,0.254-0.523,0.416c-0.007,0.006-0.015,0.01-0.021,0.015
	c0.035,0.067,0.021,0.151-0.039,0.201c-0.07,0.054-0.171,0.042-0.227-0.027c-0.217-0.274-0.558-0.438-0.91-0.438
	c-0.596,0-1.092,0.466-1.131,1.06c-0.004,0.074-0.059,0.135-0.132,0.148c-0.075,0.012-0.145-0.025-0.175-0.091
	c-0.197-0.436-0.701-0.729-1.251-0.729c-0.466,0-0.892,0.202-1.138,0.539c-0.04,0.053-0.108,0.077-0.172,0.06
	c-0.064-0.017-0.111-0.072-0.118-0.138c-0.038-0.352,0.036-0.976,0.612-1.95c0.027-0.049,0.08-0.079,0.138-0.079h0.639l0.269-0.25
	c-0.004-0.093-0.037-0.296-0.229-0.48c-0.319-0.056-0.704-0.07-0.796,0.001c0.002,0.001-1.748,1.949-1.963,3.442
	c0.252,0.22,1.301,1.062,2.693,1.183c1.129,0.098,1.979,0.068,2.599-0.088c-0.132-0.202-0.205-0.431-0.205-0.675
	c0-0.089,0.071-0.161,0.16-0.161s0.161,0.072,0.161,0.161c0,0.616,0.641,1.116,1.429,1.116c0.787,0,1.428-0.5,1.428-1.116v-0.659
	c0-0.089,0.072-0.161,0.16-0.161c0.089,0,0.161,0.072,0.161,0.161v0.659c0,0.793-0.784,1.438-1.749,1.438
	c-0.483,0-0.921-0.162-1.237-0.422c-0.08,0.198-0.123,0.407-0.123,0.623c0,0.501,0.223,0.972,0.611,1.291
	c0.055,0.045,0.074,0.122,0.046,0.188c-0.131,0.306-0.198,0.655-0.198,1.008c0,0.606,0.193,1.164,0.532,1.545h4.573
	c0.006-0.011,0.01-0.022,0.018-0.032c0.319-0.381,0.504-0.932,0.504-1.513c0-0.354-0.07-0.702-0.199-1.008
	c-0.028-0.066-0.01-0.142,0.045-0.188c0.389-0.319,0.611-0.79,0.611-1.291c0-0.193-0.039-0.38-0.104-0.561
	c-0.309,0.223-0.713,0.36-1.154,0.36c-0.965,0-1.749-0.645-1.749-1.438v-0.659c0-0.089,0.072-0.161,0.161-0.161
	s0.16,0.072,0.16,0.161v0.659c0,0.616,0.641,1.116,1.428,1.116c0.788,0,1.43-0.5,1.43-1.116c0-0.089,0.071-0.161,0.16-0.161
	c0.088,0,0.16,0.072,0.16,0.161c0,0.244-0.074,0.474-0.205,0.675c0.619,0.157,1.471,0.187,2.598,0.088
	C32.498,17.672,33.546,16.83,33.798,16.61z M22.444,26.414c0.014-0.088-0.047-0.169-0.135-0.182
	c-0.088-0.012-0.17,0.048-0.184,0.136c-0.013,0.091-0.311,2.246,0.604,3.53c0.031,0.045,0.08,0.067,0.131,0.067
	c0.033,0,0.064-0.01,0.094-0.03c0.072-0.051,0.089-0.151,0.038-0.224C22.153,28.532,22.442,26.436,22.444,26.414z M27.892,26.368
	c-0.013-0.088-0.097-0.147-0.183-0.136c-0.088,0.013-0.147,0.094-0.136,0.182c0.003,0.021,0.293,2.117-0.547,3.298
	c-0.051,0.072-0.034,0.172,0.037,0.224c0.028,0.021,0.062,0.03,0.095,0.03c0.05,0,0.099-0.022,0.131-0.067
	C28.202,28.613,27.905,26.458,27.892,26.368z M22.521,38.754c0.03,0.031,0.071,0.047,0.112,0.047c0.042,0,0.083-0.016,0.114-0.047
	l0.549-0.547c0.029-0.03,0.047-0.071,0.047-0.114v-0.8c0-0.088-0.072-0.161-0.16-0.161c-0.09,0-0.16,0.072-0.16,0.161v0.732
	l-0.502,0.5C22.458,38.589,22.458,38.689,22.521,38.754z M23.384,31.115c-0.086,0.021-0.138,0.109-0.115,0.195
	c0.004,0.014,0.318,1.271-0.09,2.531c-0.027,0.084,0.02,0.176,0.104,0.203c0.017,0.005,0.032,0.007,0.049,0.007
	c0.067,0,0.132-0.043,0.153-0.11c0.437-1.349,0.109-2.656,0.096-2.711C23.558,31.145,23.47,31.093,23.384,31.115z M26.976,38.025
	v-0.732c0-0.088-0.07-0.161-0.16-0.161c-0.088,0-0.16,0.072-0.16,0.161v0.8c0,0.043,0.018,0.084,0.047,0.114l0.549,0.547
	c0.031,0.031,0.072,0.047,0.114,0.047c0.041,0,0.082-0.016,0.112-0.047c0.062-0.062,0.062-0.165,0-0.229L26.976,38.025z
	 M26.729,31.311c0.021-0.086-0.029-0.174-0.115-0.195c-0.088-0.022-0.174,0.029-0.196,0.115c-0.015,0.056-0.341,1.362,0.097,2.711
	c0.021,0.067,0.084,0.11,0.152,0.11c0.016,0,0.032-0.002,0.049-0.007c0.086-0.027,0.131-0.118,0.104-0.203
	C26.412,32.585,26.728,31.324,26.729,31.311z"/>
</svg>
