<?xml version="1.0" encoding="utf-8"?>
<!-- Generator: Adobe Illustrator 16.0.4, SVG Export Plug-In . SVG Version: 6.00 Build 0)  -->
<!DOCTYPE svg PUBLIC "-//W3C//DTD SVG 1.1//EN" "http://www.w3.org/Graphics/SVG/1.1/DTD/svg11.dtd">
<svg version="1.1" id="Layer_1" xmlns="http://www.w3.org/2000/svg" xmlns:xlink="http://www.w3.org/1999/xlink" x="0px" y="0px"
	 width="50px" height="50px" viewBox="0 0 50 50" enable-background="new 0 0 50 50" xml:space="preserve">
<g>
	<path d="M18.187,20.089c0.314,0.206,0.688,0.3,1.04,0.45l0.975,0.291c1.255,0.376,2.429,0.883,3.123,1.595
		c0.35,0.354,0.547,0.746,0.68,1.132c0.061,0.197,0.075,0.409,0.121,0.594c0,0.202,0,0.396,0.003,0.583
		c-1.475,0.782-2.645,2.875-2.848,5.435c-0.271,3.353,1.214,6.206,3.313,6.376c2.102,0.166,4.021-2.413,4.291-5.765
		c0.223-2.776-0.768-5.188-2.304-6.036l-0.003-0.045c-0.047-0.31-0.096-0.638-0.145-0.97c-0.109-0.337-0.205-0.685-0.363-1.023
		c-0.334-0.673-0.825-1.317-1.451-1.783c-1.251-0.945-2.732-1.282-4.09-1.506l-0.996-0.158c-0.274-0.086-0.575-0.104-0.84-0.238
		c-0.551-0.201-1.055-0.539-1.506-0.921c-0.905-0.771-1.546-1.762-2.025-2.629c-0.948-1.765-1.267-3.101-1.267-3.101
		s0.131,1.357,0.854,3.289c0.376,0.954,0.887,2.078,1.791,3.092C16.99,19.251,17.528,19.736,18.187,20.089z"/>
	<path d="M35.605,23.408H27.93c-0.213,0-0.4,0.134-0.473,0.333c-0.07,0.2-0.008,0.423,0.156,0.556
		c1.566,1.266,2.438,3.839,2.222,6.559c-0.306,3.791-2.478,6.65-5.051,6.65c-0.087,0-0.175-0.002-0.267-0.01
		c-2.667-0.217-4.507-3.471-4.189-7.405c0.189-2.384,1.164-4.515,2.608-5.699c0.16-0.132,0.223-0.349,0.157-0.545
		c-0.117-0.35-0.117-0.35-6.961-0.369h-0.001c-0.275,0-0.499,0.223-0.5,0.499c-0.001,0.275,0.223,0.5,0.499,0.501
		c1.678,0.005,3.936,0.013,5.293,0.019c-1.16,1.394-1.922,3.369-2.092,5.515c-0.363,4.494,1.879,8.221,5.104,8.481
		c0.117,0.01,0.234,0.014,0.349,0.014c3.101,0,5.7-3.255,6.047-7.569c0.204-2.553-0.438-4.938-1.709-6.527h6.483
		c0.275,0,0.5-0.224,0.5-0.5C36.105,23.634,35.883,23.408,35.605,23.408z"/>
	<path d="M24.008,18.409c0.45,0.543,0.988,1.068,1.646,1.451c0.312,0.223,0.688,0.324,1.039,0.487l0.976,0.315
		c1.255,0.407,2.429,0.957,3.123,1.729c0.129,0.142,0.22,0.294,0.312,0.445h2.485l-0.051-0.142
		c-0.336-0.729-0.826-1.428-1.453-1.933c-1.25-1.024-2.731-1.39-4.089-1.632l-0.997-0.171c-0.272-0.094-0.575-0.113-0.839-0.259
		c-0.551-0.218-1.055-0.584-1.506-0.998c-0.906-0.836-1.546-1.908-2.026-2.849c-0.948-1.912-1.266-3.359-1.266-3.359
		s0.131,1.471,0.853,3.564C22.593,16.092,23.104,17.31,24.008,18.409z"/>
</g>
</svg>
