<?xml version="1.0" encoding="utf-8"?>
<!-- Generator: Adobe Illustrator 16.0.4, SVG Export Plug-In . SVG Version: 6.00 Build 0)  -->
<!DOCTYPE svg PUBLIC "-//W3C//DTD SVG 1.1//EN" "http://www.w3.org/Graphics/SVG/1.1/DTD/svg11.dtd">
<svg version="1.1" id="Layer_1" xmlns="http://www.w3.org/2000/svg" xmlns:xlink="http://www.w3.org/1999/xlink" x="0px" y="0px"
	 width="50px" height="50px" viewBox="0 0 50 50" enable-background="new 0 0 50 50" xml:space="preserve">
<path d="M18.166,28.305l-0.092-0.686c0.361-0.137,2.237-0.717,2.237-0.717c0.589-0.111,0.224,1.354,0.224,1.354
	C20.211,28.871,18.166,28.305,18.166,28.305z M18.583,29.559l0.226,0.693c2.124-0.604,2.172-0.67,1.988-1.162
	C20.497,28.289,18.583,29.559,18.583,29.559z M20.883,27.018c-0.252,0.762,0.053,1.691,0.345,2.158
	c0.434,0.691,0.899-0.102,0.899-0.102c0.572-1.098-0.245-2.197-0.245-2.197C21.248,26.098,20.883,27.018,20.883,27.018z
	 M22.034,25.988c0,0-0.192-0.236,0.631-1.465c0,0,0.667-0.063,0.361-0.559c0,0-0.646-0.691-0.82-0.094c0,0-0.048,0.232-0.005,0.398
	l-0.654,1.119c0,0-0.64,0.256-0.32,0.635C21.228,26.023,22.027,26.631,22.034,25.988z M23.318,23.316l0.536-0.736
	c0,0,0.647,0.117,0.351-0.423c0,0-0.529-0.675-0.701-0.233c0,0-0.028,0.229,0.03,0.365l-0.504,0.684c0,0-0.802,0.057-0.17,0.618
	C22.86,23.59,23.518,24.08,23.318,23.316z M24.441,21.964c0.152-0.049,0.288-0.338,0.397-0.5c0.399-0.588-0.088-0.512-0.181-0.438
	C23.71,21.782,24.212,22.038,24.441,21.964z M25.199,28.557c0.171,0.027,0.641,0.438,0.585-0.375
	c-0.015-0.223,0.104-0.666-0.857-0.238c-0.418,0.186-1.402,0.293-1.835-0.025c0,0,0.156-0.416,1.896-0.672
	c0,0,0.794,0.439,0.899-0.104c0.041-0.219,0.129-0.822-0.5-0.73c-0.157,0.023-0.401,0.148-0.523,0.357c0,0-2.139,0.758-2.01,0.238
	c0,0,1.158-0.965,2.038-0.975c0,0,0.862,0.18,0.644-0.652c-0.017-0.063-0.081-0.771-0.915,0.04
	c-0.341,0.333-1.221,0.805-1.842,0.879c-0.277,0.033-0.855-0.238-0.412,1.031c0,0,0.233,0.977,0.2,1.271c0,0-0.19,0.953,0.509,0.682
	c0,0,1.11-0.223,1.813,0.189c0,0,0.902,0.576,0.7-0.273c-0.049-0.209-0.137-0.479-0.841-0.266c-0.372,0.113-1.594,0.059-1.539-0.236
	C23.247,28.498,23.819,28.316,25.199,28.557z M27.093,29.473c-0.312,0.068-0.659-0.037-0.729-0.131
	c-0.037-0.053-0.107-0.115-0.141-0.16c-0.361-0.49-0.474,0.553-0.474,0.553c0.147,0.225,0.306,0.006,0.403-0.018
	c0.104-0.023,0.308,0.088,0.408,0.125c0.446,0.166,0.401,0.217,0.513,0.316c0.29,0.266,0.401-0.447,0.401-0.447
	C27.58,29.268,27.093,29.473,27.093,29.473z M28.617,29.801c-0.229,0.09-0.5,0.051-0.562-0.01c-0.033-0.033-0.095-0.076-0.123-0.105
	c-0.328-0.324-0.291,0.469-0.291,0.469c0.139,0.154,0.23-0.029,0.301-0.059c0.076-0.029,0.242,0.029,0.32,0.047
	c0.354,0.072,0.327,0.113,0.422,0.176c0.25,0.168,0.25-0.379,0.25-0.379C28.958,29.59,28.617,29.801,28.617,29.801z M29.708,28.045
	c-0.049-0.346-0.36-0.059-0.36-0.059c-0.219,0.141-0.516,0.168-0.593,0.123c-0.043-0.023-0.114-0.051-0.153-0.072
	c-0.414-0.24-0.203,0.527-0.203,0.527c0.178,0.117,0.233-0.086,0.304-0.129c0.071-0.051,0.26-0.029,0.346-0.033
	c0.39-0.014,0.367,0.033,0.481,0.074C29.827,28.576,29.708,28.045,29.708,28.045z M29.715,25.846
	c-0.288,0.174-0.67,0.215-0.771,0.162c-0.053-0.025-0.147-0.053-0.196-0.076c-0.528-0.268-0.279,0.627-0.279,0.627
	c0.226,0.129,0.308-0.109,0.396-0.164c0.095-0.061,0.337-0.043,0.45-0.049c0.502-0.029,0.474,0.025,0.619,0.066
	c0.381,0.109,0.246-0.512,0.246-0.512C30.127,25.497,29.715,25.846,29.715,25.846z M28.227,24.429
	c0.076-0.08,0.313-0.131,0.42-0.166c0.478-0.164,0.465-0.103,0.617-0.101c0.396,0.004,0.1-0.56,0.1-0.56
	c-0.156-0.375-0.463,0.068-0.463,0.068c-0.23,0.245-0.59,0.389-0.699,0.366c-0.059-0.013-0.157-0.015-0.21-0.024
	c-0.58-0.115-0.103,0.68-0.103,0.68C28.141,24.758,28.154,24.507,28.227,24.429z M30.057,23.705
	c0.075-0.081,0.254-0.104,0.359-0.143c0.113-0.039,0.23-0.17,0.143-0.302c-0.15-0.221-0.514,0.142-0.623,0.121
	c-0.062-0.013-0.104-0.065-0.158-0.069c-0.396-0.041-0.183,0.525-0.045,0.627C29.941,24.095,29.984,23.781,30.057,23.705z
	 M30.752,25.775c-0.057-0.023-0.089-0.084-0.143-0.098c-0.381-0.111-0.254,0.412-0.137,0.537c0.115,0.123,0.254-0.041,0.34-0.102
	c0.09-0.068,0.27-0.059,0.381-0.074c0.117-0.018,0.258-0.125,0.191-0.27C31.279,25.523,30.857,25.814,30.752,25.775z M30.291,27.967
	c-0.057-0.021-0.089-0.08-0.143-0.098c-0.381-0.111-0.254,0.414-0.137,0.541c0.115,0.121,0.256-0.041,0.34-0.105
	c0.09-0.066,0.27-0.055,0.381-0.07c0.117-0.02,0.258-0.125,0.193-0.271C30.818,27.719,30.395,28.01,30.291,27.967z M29.587,29.818
	c-0.058-0.021-0.09-0.08-0.142-0.096c-0.383-0.109-0.254,0.412-0.139,0.537c0.115,0.123,0.256-0.037,0.342-0.104
	c0.088-0.066,0.268-0.055,0.379-0.072c0.119-0.018,0.259-0.125,0.195-0.27C30.115,29.57,29.691,29.859,29.587,29.818z
	 M27.605,26.084c-0.203,0.203-0.806,0.346-0.937,0.301c-0.069-0.023-0.175-0.049-0.239-0.068c-0.684-0.238-0.111,0.865-0.111,0.865
	c0.296,0.121,0.32-0.188,0.406-0.271c0.094-0.088,0.375-0.109,0.502-0.139c0.569-0.123,0.555-0.047,0.732-0.021
	c0.471,0.068,0.118-0.678,0.118-0.678C27.9,25.582,27.605,26.084,27.605,26.084z M26.297,25.353c0.08-0.101,0.357-0.158,0.479-0.201
	c0.549-0.197,0.543-0.12,0.726-0.117c0.476,0.006,0.024-0.689,0.024-0.689c-0.238-0.459-0.463,0.076-0.463,0.076
	c-0.176,0.227-0.754,0.448-0.889,0.419c-0.072-0.014-0.179-0.022-0.246-0.038c-0.71-0.146,0.004,0.874,0.004,0.874
	C26.239,25.756,26.223,25.448,26.297,25.353z M27.975,28.502c0.221-0.236,0.105-0.594-0.053-0.705
	c-0.229-0.158-0.432,0.158-0.432,0.158s-0.881,0.205-1.012,0.012c-0.125-0.188-0.304-0.158-0.369-0.059
	c-0.154,0.25-0.147,0.57,0.031,0.664c0.215,0.113,0.329-0.107,0.434-0.156c0.219-0.104,0.783-0.158,0.969,0
	C27.706,28.553,27.879,28.604,27.975,28.502z M15.237,31.781V19.845c0-0.226,0.182-0.408,0.407-0.408h18.711
	c0.226,0,0.408,0.184,0.408,0.408v11.936c0,0.225-0.183,0.406-0.408,0.406H15.644C15.419,32.188,15.237,32.006,15.237,31.781z
	 M16.051,31.375h17.898V20.251H16.051V31.375z M40,17.302c0,0.227-0.182,0.407-0.407,0.407h-2.39V32.98
	c0,0.908-0.74,1.648-1.648,1.648h-21.11c-0.909,0-1.649-0.74-1.649-1.648V17.709h-2.39c-0.225,0-0.407-0.183-0.407-0.407
	c0-0.224,0.182-0.406,0.407-0.406h29.187C39.818,16.896,40,17.079,40,17.302z M36.391,17.709h-22.78V32.98
	c0,0.461,0.374,0.836,0.835,0.836h21.109c0.461,0,0.836-0.375,0.836-0.836V17.709z M10.407,16.185h29.187
	c0.225,0,0.407-0.183,0.407-0.408c0-0.223-0.183-0.405-0.407-0.405H10.407c-0.225,0-0.407,0.183-0.407,0.405
	C10,16.002,10.182,16.185,10.407,16.185z"/>
</svg>
