<?xml version="1.0" encoding="utf-8"?>
<!-- Generator: Adobe Illustrator 16.0.4, SVG Export Plug-In . SVG Version: 6.00 Build 0)  -->
<!DOCTYPE svg PUBLIC "-//W3C//DTD SVG 1.1//EN" "http://www.w3.org/Graphics/SVG/1.1/DTD/svg11.dtd">
<svg version="1.1" id="Layer_1" xmlns="http://www.w3.org/2000/svg" xmlns:xlink="http://www.w3.org/1999/xlink" x="0px" y="0px"
	 width="50px" height="50px" viewBox="0 0 50 50" enable-background="new 0 0 50 50" xml:space="preserve">
<g>
	<path d="M29.821,20.09h3.593l-1.909-2.5l1.909-2.5h-3.593v-0.17c0-1.156-0.903-2.097-2.014-2.097c-1.109,0-2.014,0.94-2.014,2.097
		v4.523c-0.318-0.213-0.697-0.34-1.105-0.34c-0.604,0-1.143,0.277-1.516,0.709c-0.374-0.432-0.912-0.709-1.518-0.709
		c-0.604,0-1.143,0.277-1.516,0.709c-0.373-0.432-0.912-0.709-1.517-0.709c-1.086,0-1.97,0.883-2.026,1.986l-0.011,0.055v0.057
		v2.052v1.187v4.248v1.242c0,4.268,3.358,7.247,8.17,7.247s8.17-2.979,8.17-7.247v-5.039c0-0.322-0.251-0.688-0.42-0.832
		c-0.345-0.299-1.493-0.531-2.692-0.701l0.006-0.027v-3.24H29.821z M26.795,20.09h2.026v3.141c-0.424-0.049-0.83-0.09-1.176-0.123
		c-0.324-0.034-0.601-0.027-0.852-0.002L26.795,20.09L26.795,20.09z M31.394,19.09h-4.455v-3h4.455l-1.146,1.5L31.394,19.09z
		 M27.81,13.823c0.559,0,1.012,0.491,1.012,1.097v0.17h-2.025v-0.17C26.795,14.314,27.25,13.823,27.81,13.823z M24.688,20.104
		c0.572,0,1.039,0.492,1.039,1.099v2.045l0.041,0.196c-0.359,0.242-0.566,0.57-0.681,0.881c-0.142,0.387-0.151,0.791-0.058,1.168
		c-0.09,0.027-0.184,0.045-0.28,0.045c-0.558,0-1.007-0.471-1.028-1.055l0.004-0.043v-3.318l-0.029-0.146
		C23.798,20.48,24.192,20.104,24.688,20.104z M21.657,20.104c0.521,0,0.938,0.418,1.01,0.949l-0.016,0.148v3.378l0.023,0.118
		c-0.111,0.478-0.502,0.839-0.986,0.839c-0.553,0-0.994-0.461-1.026-1.036l0.001-0.005v-0.058v-3.236V21.12l-0.014-0.07
		C20.722,20.52,21.136,20.104,21.657,20.104z M17.588,23.253v-2.052c0-0.605,0.465-1.098,1.037-1.098
		c0.522,0,0.938,0.416,1.01,0.948L19.62,21.2v3.462c-0.102,0.494-0.497,0.873-0.994,0.873c-0.572,0-1.038-0.492-1.038-1.098V23.253z
		 M31.847,24.809l0.081,0.082v5.039c0,3.678-2.948,6.247-7.17,6.247s-7.17-2.569-7.17-6.247v-1.242v-2.453
		c0.306,0.188,0.657,0.303,1.038,0.303c0.613,0,1.157-0.286,1.531-0.729c0.373,0.441,0.918,0.729,1.531,0.729
		c0.612,0,1.156-0.286,1.53-0.729c0.374,0.441,0.918,0.729,1.531,0.729c0.263,0,0.519-0.066,0.761-0.168
		c0.232,0.261,0.527,0.477,0.889,0.607l3.191,0.883c0.264,0.07,0.542-0.084,0.615-0.351c0.072-0.266-0.083-0.541-0.35-0.614
		l-3.152-0.869c-0.57-0.211-0.874-0.818-0.678-1.357c0.078-0.211,0.254-0.71,1.517-0.564C29.356,24.27,31.522,24.592,31.847,24.809z
		"/>
</g>
</svg>
