<?xml version="1.0" encoding="utf-8"?>
<!-- Generator: Adobe Illustrator 16.0.4, SVG Export Plug-In . SVG Version: 6.00 Build 0)  -->
<!DOCTYPE svg PUBLIC "-//W3C//DTD SVG 1.1//EN" "http://www.w3.org/Graphics/SVG/1.1/DTD/svg11.dtd">
<svg version="1.1" id="Layer_1" xmlns="http://www.w3.org/2000/svg" xmlns:xlink="http://www.w3.org/1999/xlink" x="0px" y="0px"
	 width="50px" height="50px" viewBox="0 0 50 50" enable-background="new 0 0 50 50" xml:space="preserve">
<g>
	<path d="M32.751,24.133c-0.346-0.299-1.506-0.539-2.719-0.717l0.031-0.158V17.93c0-1.156-0.902-2.096-2.013-2.096
		c-0.37,0-0.715,0.111-1.014,0.295v-1.281c0-1.158-0.914-2.1-2.038-2.1c-1.042,0-1.895,0.812-2.014,1.854
		c-0.308-0.19-0.664-0.309-1.049-0.309c-1.123,0-2.037,0.941-2.037,2.1v1.195c-0.305-0.186-0.654-0.299-1.032-0.299
		c-1.123,0-2.037,0.941-2.037,2.098v3.941v5.434v1.242c0,4.268,3.358,7.248,8.17,7.248s8.17-2.98,8.17-7.248v-5.039
		C33.171,24.643,32.92,24.277,32.751,24.133z M27.038,17.93c0-0.604,0.455-1.096,1.014-1.096s1.014,0.492,1.014,1.096v5.328
		l0.006,0.029c-0.437-0.053-0.855-0.098-1.215-0.133c-0.301-0.021-0.566-0.006-0.817,0.025L27.038,17.93L27.038,17.93z
		 M32.171,30.004c0,3.678-2.947,6.248-7.17,6.248s-7.17-2.57-7.17-6.248v-1.242v-5.434v-3.941c0-0.604,0.465-1.098,1.037-1.098
		c0.562,0,1.016,0.477,1.031,1.066v4.754l0.006,0.029v0.432c0,0.274,0.225,0.5,0.5,0.5c0.277,0,0.5-0.226,0.5-0.5v-5.185
		l-0.006-0.061v-2.935c0-0.604,0.467-1.1,1.039-1.1c0.549,0,0.986,0.457,1.023,1.027v8.248c0,0.276,0.225,0.5,0.5,0.5
		s0.5-0.224,0.5-0.5v-1.021l0.014-0.067v-7.088l-0.014-0.142v-1.404c0-0.604,0.465-1.1,1.037-1.1s1.038,0.493,1.038,1.1v3.082v5.604
		c-0.315,0.207-0.565,0.48-0.706,0.863c-0.387,1.056,0.184,2.24,1.311,2.652l3.192,0.883c0.265,0.07,0.541-0.084,0.615-0.35
		c0.073-0.266-0.083-0.541-0.351-0.615l-3.152-0.869c-0.569-0.211-0.873-0.818-0.676-1.357c0.066-0.186,0.25-0.678,1.502-0.592
		c1.818,0.181,3.992,0.517,4.315,0.732l0.081,0.082v5.043H32.171z M25.994,28.947l-1.104,0.25l-0.252-1.105
		c-0.203-0.891-1.119-1.469-2.009-1.264c-0.438,0.098-0.812,0.361-1.05,0.742c-0.238,0.379-0.314,0.828-0.217,1.266l0.252,1.105
		l-1.106,0.25c-0.901,0.205-1.47,1.106-1.266,2.01c0.175,0.771,0.849,1.309,1.638,1.309c0.124,0,0.249-0.014,0.371-0.041
		l1.105-0.252l0.252,1.105c0.175,0.77,0.847,1.307,1.635,1.307c0.125,0,0.251-0.014,0.373-0.041c0.438-0.1,0.811-0.363,1.05-0.742
		s0.315-0.83,0.217-1.266l-0.251-1.105l1.105-0.252c0.438-0.1,0.811-0.363,1.05-0.742s0.315-0.83,0.216-1.268
		C27.802,29.322,26.894,28.74,25.994,28.947z M22.426,28.102c0.097-0.151,0.247-0.26,0.425-0.299l0.151-0.018
		c0.317,0,0.59,0.217,0.661,0.529l0.251,1.104l-1.325,0.301l-0.251-1.104C22.298,28.438,22.329,28.256,22.426,28.102z
		 M24.819,34.312c-0.096,0.151-0.248,0.26-0.426,0.301c-0.361,0.076-0.729-0.15-0.812-0.512l-0.251-1.105l1.324-0.301l0.252,1.104
		C24.948,33.977,24.917,34.158,24.819,34.312z M26.517,31.248l-5.486,1.246c-0.356,0.078-0.73-0.158-0.812-0.514
		c-0.082-0.365,0.146-0.73,0.514-0.814l5.484-1.244l0.15-0.018c0.314,0,0.594,0.223,0.662,0.529
		C27.11,30.801,26.882,31.166,26.517,31.248z"/>
</g>
</svg>
