<?xml version="1.0" encoding="utf-8"?>
<!-- Generator: Adobe Illustrator 16.0.4, SVG Export Plug-In . SVG Version: 6.00 Build 0)  -->
<!DOCTYPE svg PUBLIC "-//W3C//DTD SVG 1.1//EN" "http://www.w3.org/Graphics/SVG/1.1/DTD/svg11.dtd">
<svg version="1.1" id="Layer_1" xmlns="http://www.w3.org/2000/svg" xmlns:xlink="http://www.w3.org/1999/xlink" x="0px" y="0px"
	 width="50px" height="50px" viewBox="0 0 50 50" enable-background="new 0 0 50 50" xml:space="preserve">
<path d="M36.909,29.549h-3.639c-0.133,0-0.26,0.053-0.354,0.146s-0.146,0.222-0.146,0.354c0,0.938-0.896,1.701-1.996,1.701H30.28
	h-2.734c0.148-0.281,0.24-0.602,0.242-0.947c0-0.543-0.209-1.062-0.576-1.43c-0.008-0.008-0.018-0.014-0.025-0.021
	c0.365-0.354,0.601-0.863,0.603-1.435c0-0.541-0.209-1.062-0.576-1.429c-0.014-0.013-0.028-0.022-0.041-0.034
	c0.373-0.355,0.615-0.869,0.617-1.448c0-0.542-0.209-1.062-0.576-1.429c-0.332-0.333-0.766-0.517-1.221-0.517h-0.104H24.94
	c-0.029-0.006-0.06-0.019-0.092-0.019h-6.052v-1.893h3.856c0.021,0.001,0.041,0.007,0.062,0.007h2.842
	c0.15,1.047,0.832,1.485,2.244,1.485h2.703c0.277,0,0.5-0.224,0.5-0.5c0-0.276-0.223-0.5-0.5-0.5h-2.703
	c-1.215,0-1.275-0.251-1.275-0.979c0-0.276-0.225-0.5-0.5-0.5c-0.014,0-0.022,0.006-0.036,0.007
	c-0.033-0.007-0.066-0.021-0.104-0.021h-3.199c-0.428-0.019-0.771-0.431-0.771-0.943c0-0.522,0.354-0.946,0.793-0.951
	c0.004,0,0.006,0.001,0.008,0.001h8.06c1.1,0,1.996,0.8,1.996,1.783v0.858c0,0.134,0.053,0.261,0.146,0.355
	c0.095,0.093,0.222,0.145,0.354,0.145c0,0,0.002,0,0.004,0l3.742-0.031c0.276-0.002,0.498-0.229,0.496-0.504s-0.226-0.496-0.5-0.496
	c0,0-0.002,0-0.004,0l-3.238,0.027v-0.354c0-1.534-1.344-2.783-2.996-2.783h-4.873c-0.006,0-0.01-0.003-0.016-0.003h-3.171
	c-0.991,0-1.801,0.876-1.801,1.952c0,0.344,0.09,0.663,0.233,0.943h-6.864c-0.992,0-1.8,0.872-1.8,1.944
	c0,1.074,0.808,1.948,1.8,1.948h4.459c-0.152,0.285-0.246,0.612-0.246,0.964c0,0.583,0.242,1.1,0.619,1.458
	c-0.377,0.355-0.619,0.873-0.619,1.455c0,0.573,0.235,1.086,0.604,1.442c-0.367,0.356-0.604,0.867-0.604,1.44
	c0,1.074,0.81,1.949,1.801,1.949h0.078h9.904h0.493c1.464,0,2.685-0.951,2.943-2.203l3.191,0.002c0.275,0,0.5-0.225,0.5-0.5
	C37.409,29.771,37.185,29.549,36.909,29.549z M25.991,24.062c0.24,0,0.412,0.121,0.514,0.223c0.18,0.181,0.283,0.443,0.283,0.72
	c-0.002,0.521-0.363,0.943-0.805,0.943h-5.59c-0.013,0-0.021,0.007-0.033,0.007h-0.062c-0.441,0-0.801-0.425-0.801-0.947
	c0-0.521,0.359-0.945,0.801-0.945h1.404h4.184L25.991,24.062L25.991,24.062z M17.796,23.044h-1.938v-1.893h1.938V23.044z
	 M13.485,22.095c0-0.521,0.356-0.944,0.799-0.944h0.574v1.893h-0.574C13.843,23.044,13.485,22.619,13.485,22.095z M19.497,27.92
	c0-0.521,0.359-0.944,0.801-0.944h5.588c0.002,0,0.004-0.001,0.006-0.001h0.101c0.239,0,0.411,0.121,0.514,0.223
	c0.181,0.182,0.283,0.443,0.283,0.721c-0.002,0.516-0.356,0.935-0.795,0.941h-0.002h-4.289c-0.002,0-0.004,0.001-0.006,0.001h-1.398
	c-0.008,0-0.016,0.002-0.022,0.002C19.845,28.846,19.497,28.433,19.497,27.92z M19.497,30.803c0-0.512,0.348-0.924,0.777-0.939
	c0.008,0,0.016,0.002,0.022,0.002h4.55c0.012,0,0.02-0.005,0.028-0.006h1.106c0.004,0,0.009-0.001,0.015-0.001
	c0.235,0.002,0.405,0.121,0.508,0.222c0.181,0.18,0.283,0.442,0.283,0.719c-0.002,0.521-0.363,0.945-0.806,0.945h-5.59
	c-0.012,0-0.021,0.006-0.033,0.006h-0.062C19.856,31.752,19.497,31.326,19.497,30.803z"/>
</svg>
