<?xml version="1.0" encoding="utf-8"?>
<!-- Generator: Adobe Illustrator 16.0.4, SVG Export Plug-In . SVG Version: 6.00 Build 0)  -->
<!DOCTYPE svg PUBLIC "-//W3C//DTD SVG 1.1//EN" "http://www.w3.org/Graphics/SVG/1.1/DTD/svg11.dtd">
<svg version="1.1" id="Layer_1" xmlns="http://www.w3.org/2000/svg" xmlns:xlink="http://www.w3.org/1999/xlink" x="0px" y="0px"
	 width="50px" height="50px" viewBox="0 0 50 50" enable-background="new 0 0 50 50" xml:space="preserve">
<g>
	<path d="M31.552,25.545V24.69c0-0.862-0.68-1.564-1.515-1.564c-0.399,0-0.763,0.164-1.033,0.427v-3.777
		c0-0.862-0.67-1.563-1.494-1.563c-0.384,0-0.729,0.156-0.995,0.405v-1.378c0-0.862-0.68-1.564-1.515-1.564
		s-1.515,0.702-1.515,1.564v0.108c-0.268-0.248-0.616-0.402-1.004-0.402c-0.834,0-1.515,0.702-1.515,1.564v1.306
		c-0.269-0.25-0.62-0.408-1.011-0.408c-0.835,0-1.514,0.701-1.514,1.562v3.242v4.468v1.021c0,3.108,2.145,4.621,6.558,4.621
		s6.558-1.513,6.558-4.621v-4.145L31.552,25.545z M25.001,33.826c-4.133,0-6.059-1.31-6.059-4.119v-1.022v-4.468v-3.242
		c0-0.586,0.455-1.063,1.015-1.063c0.553,0,1,0.467,1.011,1.043v4.111l0.004,0.009v0.986c0,0.139,0.112,0.25,0.25,0.25
		c0.139,0,0.25-0.111,0.25-0.25v-5.086l-0.004-0.04v-2.422c0-0.587,0.455-1.063,1.016-1.063c0.541,0,0.975,0.449,1.004,1.009v6.78
		l0.011,0.026v0.689c0,0.139,0.112,0.25,0.25,0.25s0.25-0.111,0.25-0.25v-7.439l-0.011-0.11v-1.161c0-0.587,0.455-1.064,1.014-1.064
		c0.561,0,1.016,0.479,1.016,1.064v2.536v4.619v1.628c0,0.139,0.111,0.25,0.25,0.25c0.137,0,0.25-0.111,0.25-0.25v-1.628v-4.619
		c0-0.586,0.445-1.063,0.994-1.063s0.994,0.478,0.994,1.063v7.71c0,0.139,0.112,0.25,0.25,0.25c0.139,0,0.25-0.111,0.25-0.25v-0.339
		l0.02-0.045v-2.412c0-0.587,0.455-1.064,1.015-1.064s1.015,0.478,1.015,1.064v2.292l0.008,0.018v2.705
		C31.06,32.517,29.134,33.826,25.001,33.826z"/>
	<path d="M24.627,25.928c-0.138,0-0.25,0.113-0.25,0.25c0,0.139,0.112,0.25,0.25,0.25h0.669c0.139,0,0.25-0.111,0.25-0.25
		c0-0.137-0.111-0.25-0.25-0.25h-0.085v-2.095h0.085c0.139,0,0.25-0.112,0.25-0.25c0-0.138-0.111-0.25-0.25-0.25h-0.669
		c-0.138,0-0.25,0.112-0.25,0.25c0,0.138,0.112,0.25,0.25,0.25h0.084v2.095H24.627z"/>
	<path d="M23.062,26.778c0-0.138-0.111-0.25-0.25-0.25h-0.668c-0.138,0-0.25,0.112-0.25,0.25s0.112,0.25,0.25,0.25h0.065l0.881,4.47
		H23c-0.138,0-0.25,0.111-0.25,0.25c0,0.137,0.112,0.25,0.25,0.25h0.72c0.139,0,0.25-0.113,0.25-0.25c0-0.139-0.111-0.25-0.25-0.25
		h-0.121l-0.881-4.47h0.094C22.949,27.028,23.062,26.916,23.062,26.778z"/>
	<path d="M24.627,31.394c-0.138,0-0.25,0.112-0.25,0.25s0.112,0.25,0.25,0.25h0.669c0.139,0,0.25-0.112,0.25-0.25
		s-0.111-0.25-0.25-0.25h-0.074v-4.365h0.074c0.139,0,0.25-0.112,0.25-0.25s-0.111-0.25-0.25-0.25h-0.669
		c-0.138,0-0.25,0.112-0.25,0.25s0.112,0.25,0.25,0.25h0.095v4.365H24.627z"/>
	<path d="M24.627,22.715c-0.138,0-0.25,0.112-0.25,0.25c0,0.138,0.112,0.25,0.25,0.25h0.669c0.139,0,0.25-0.112,0.25-0.25
		c0-0.138-0.111-0.25-0.25-0.25h-0.085V20.62h0.085c0.139,0,0.25-0.112,0.25-0.25c0-0.138-0.111-0.25-0.25-0.25h-0.669
		c-0.138,0-0.25,0.112-0.25,0.25c0,0.138,0.112,0.25,0.25,0.25h0.084v2.096H24.627z"/>
	<path d="M24.627,19.502c-0.138,0-0.25,0.112-0.25,0.25c0,0.138,0.112,0.25,0.25,0.25h0.669c0.139,0,0.25-0.112,0.25-0.25
		c0-0.138-0.111-0.25-0.25-0.25h-0.085v-2.096h0.085c0.139,0,0.25-0.112,0.25-0.25c0-0.138-0.111-0.25-0.25-0.25h-0.669
		c-0.138,0-0.25,0.112-0.25,0.25c0,0.138,0.112,0.25,0.25,0.25h0.084v2.096H24.627z"/>
	<path d="M22.135,25.928c-0.138,0-0.25,0.113-0.25,0.25c0,0.139,0.112,0.25,0.25,0.25h0.669c0.139,0,0.25-0.111,0.25-0.25
		c0-0.137-0.111-0.25-0.25-0.25H22.72v-2.095h0.084c0.139,0,0.25-0.112,0.25-0.25c0-0.138-0.111-0.25-0.25-0.25h-0.669
		c-0.138,0-0.25,0.112-0.25,0.25c0,0.138,0.112,0.25,0.25,0.25h0.085v2.095H22.135z"/>
	<path d="M22.135,22.715c-0.138,0-0.25,0.112-0.25,0.25c0,0.138,0.112,0.25,0.25,0.25h0.669c0.139,0,0.25-0.112,0.25-0.25
		c0-0.138-0.111-0.25-0.25-0.25H22.72V20.62h0.084c0.139,0,0.25-0.112,0.25-0.25c0-0.138-0.111-0.25-0.25-0.25h-0.669
		c-0.138,0-0.25,0.112-0.25,0.25c0,0.138,0.112,0.25,0.25,0.25h0.085v2.096H22.135z"/>
	<path d="M19.53,25.928c-0.139,0-0.25,0.113-0.25,0.25c0,0.139,0.111,0.25,0.25,0.25h0.669c0.138,0,0.25-0.111,0.25-0.25
		c0-0.137-0.112-0.25-0.25-0.25h-0.085v-2.095h0.085c0.138,0,0.25-0.112,0.25-0.25c0-0.138-0.112-0.25-0.25-0.25H19.53
		c-0.139,0-0.25,0.112-0.25,0.25c0,0.138,0.111,0.25,0.25,0.25h0.084v2.095H19.53z"/>
	<path d="M19.53,22.715c-0.139,0-0.25,0.112-0.25,0.25c0,0.138,0.111,0.25,0.25,0.25h0.669c0.138,0,0.25-0.112,0.25-0.25
		c0-0.138-0.112-0.25-0.25-0.25h-0.085v-1.538h0.085c0.138,0,0.25-0.112,0.25-0.25c0-0.138-0.112-0.25-0.25-0.25H19.53
		c-0.139,0-0.25,0.112-0.25,0.25c0,0.138,0.111,0.25,0.25,0.25h0.084v1.538H19.53z"/>
	<path d="M22.135,19.502c-0.138,0-0.25,0.112-0.25,0.25c0,0.138,0.112,0.25,0.25,0.25h0.669c0.139,0,0.25-0.112,0.25-0.25
		c0-0.138-0.111-0.25-0.25-0.25H22.72v-1.066h0.084c0.139,0,0.25-0.112,0.25-0.25s-0.111-0.25-0.25-0.25h-0.669
		c-0.138,0-0.25,0.112-0.25,0.25s0.112,0.25,0.25,0.25h0.085v1.066H22.135z"/>
	<path d="M27.841,23.833c0.139,0,0.25-0.112,0.25-0.25c0-0.138-0.111-0.25-0.25-0.25h-0.669c-0.138,0-0.25,0.112-0.25,0.25
		c0,0.138,0.112,0.25,0.25,0.25h0.084v2.096h-0.084c-0.138,0-0.25,0.111-0.25,0.25c0,0.138,0.112,0.25,0.25,0.25h0.669
		c0.139,0,0.25-0.112,0.25-0.25c0-0.139-0.111-0.25-0.25-0.25h-0.085v-2.096H27.841z"/>
	<path d="M30.308,25.324c0.137,0,0.25-0.112,0.25-0.25c0-0.138-0.113-0.25-0.25-0.25H29.64c-0.138,0-0.25,0.112-0.25,0.25
		c0,0.138,0.112,0.25,0.25,0.25h0.084v2.096H29.64c-0.138,0-0.25,0.111-0.25,0.25c0,0.138,0.112,0.25,0.25,0.25h0.668
		c0.137,0,0.25-0.112,0.25-0.25c0-0.139-0.113-0.25-0.25-0.25h-0.084v-2.096H30.308z"/>
	<path d="M30.308,28.104H29.64c-0.138,0-0.25,0.112-0.25,0.25l0.127,0.198l-1.779,2.943h-0.23c-0.138,0-0.25,0.112-0.25,0.25
		c0,0.139,0.112,0.25,0.25,0.25h0.721c0.137,0,0.25-0.111,0.25-0.25c0-0.107-0.078-0.185-0.176-0.219l1.768-2.924h0.238
		c0.139,0,0.25-0.111,0.25-0.25S30.444,28.104,30.308,28.104z"/>
	<path d="M27.095,20.054h0.161v2.661h-0.084c-0.138,0-0.25,0.112-0.25,0.25c0,0.138,0.112,0.25,0.25,0.25h0.669
		c0.139,0,0.25-0.112,0.25-0.25c0-0.138-0.111-0.25-0.25-0.25h-0.085v-2.661h0.161c0.139,0,0.25-0.112,0.25-0.25
		c0-0.138-0.111-0.25-0.25-0.25h-0.822c-0.138,0-0.25,0.112-0.25,0.25C26.845,19.942,26.957,20.054,27.095,20.054z"/>
	<path d="M28.259,32.457h-6.781c-0.138,0-0.25,0.112-0.25,0.25c0,0.139,0.112,0.25,0.25,0.25h6.781c0.139,0,0.25-0.111,0.25-0.25
		C28.509,32.569,28.397,32.457,28.259,32.457z"/>
	<path d="M22.091,31.998c0.139,0,0.25-0.113,0.25-0.25c0-0.139-0.111-0.25-0.25-0.25h-0.109v-0.015l-1.77-4.491
		c0.089-0.039,0.16-0.111,0.16-0.214c0-0.138-0.112-0.25-0.25-0.25h-0.668c-0.139,0-0.25,0.112-0.25,0.25s0.111,0.25,0.25,0.25
		h0.234l1.761,4.47h-0.077c-0.139,0-0.25,0.111-0.25,0.25c0,0.137,0.111,0.25,0.25,0.25H22.091z"/>
	<path d="M25.998,31.998h0.719c0.138,0,0.25-0.113,0.25-0.25c0-0.125-0.097-0.218-0.217-0.236l0.835-4.483h0.145
		c0.138,0,0.25-0.112,0.25-0.25s-0.112-0.25-0.25-0.25h-0.668c-0.139,0-0.25,0.112-0.25,0.25s0.111,0.25,0.25,0.25h0.015
		l-0.831,4.47h-0.246c-0.139,0-0.25,0.111-0.25,0.25C25.749,31.885,25.86,31.998,25.998,31.998z"/>
</g>
</svg>
