<?xml version="1.0" encoding="utf-8"?>
<!-- Generator: Adobe Illustrator 16.0.4, SVG Export Plug-In . SVG Version: 6.00 Build 0)  -->
<!DOCTYPE svg PUBLIC "-//W3C//DTD SVG 1.1//EN" "http://www.w3.org/Graphics/SVG/1.1/DTD/svg11.dtd">
<svg version="1.1" id="Layer_1" xmlns="http://www.w3.org/2000/svg" xmlns:xlink="http://www.w3.org/1999/xlink" x="0px" y="0px"
	 width="50px" height="50px" viewBox="0 0 50 50" enable-background="new 0 0 50 50" xml:space="preserve">
<path d="M36.908,29.549l-3.64-0.002c-0.133,0-0.26,0.054-0.354,0.146c-0.094,0.094-0.146,0.221-0.146,0.354
	c0,0.938-0.896,1.703-1.996,1.703h-0.494h-2.733c0.147-0.283,0.24-0.603,0.242-0.949c0-0.541-0.209-1.062-0.576-1.428
	c-0.008-0.009-0.018-0.015-0.025-0.021c0.365-0.355,0.6-0.863,0.602-1.434c0-0.543-0.209-1.062-0.576-1.43
	c-0.012-0.013-0.028-0.021-0.041-0.035c0.373-0.354,0.615-0.869,0.617-1.447c0.002-0.542-0.209-1.062-0.574-1.429
	c-0.332-0.333-0.768-0.517-1.223-0.517h-0.104h-0.947c-0.031-0.006-0.059-0.019-0.092-0.019H14.285c-0.44,0-0.799-0.426-0.799-0.948
	c0-0.521,0.358-0.944,0.799-0.944h8.369c0.021,0.001,0.041,0.007,0.062,0.007h2.843c0.148,1.047,0.831,1.485,2.243,1.485h2.704
	c0.275,0,0.5-0.224,0.5-0.5s-0.225-0.5-0.5-0.5h-2.704c-1.214,0-1.275-0.251-1.275-0.979c0-0.276-0.224-0.5-0.5-0.5
	c-0.013,0-0.022,0.006-0.036,0.007c-0.033-0.007-0.066-0.021-0.104-0.021h-3.199c-0.428-0.019-0.771-0.431-0.771-0.943
	c0-0.522,0.355-0.946,0.793-0.951c0.002,0,0.004,0.001,0.007,0.001h8.059c1.102,0,1.996,0.8,1.996,1.783v0.858
	c0,0.134,0.055,0.261,0.146,0.355c0.095,0.093,0.222,0.145,0.354,0.145c0.001,0,0.003,0,0.004,0l3.743-0.031
	c0.276-0.002,0.498-0.229,0.496-0.504s-0.226-0.496-0.5-0.496c-0.001,0-0.003,0-0.003,0l-3.24,0.027v-0.354
	c0-1.534-1.344-2.783-2.996-2.783h-4.873c-0.005,0-0.009-0.003-0.015-0.003h-3.171c-0.992,0-1.8,0.876-1.8,1.952
	c0,0.344,0.09,0.663,0.234,0.943h-6.866c-0.992,0-1.799,0.872-1.799,1.944c0,1.074,0.807,1.948,1.799,1.948h4.46
	c-0.152,0.285-0.246,0.612-0.246,0.964c0,0.583,0.242,1.1,0.618,1.458c-0.376,0.355-0.618,0.873-0.618,1.455
	c0,0.573,0.235,1.086,0.603,1.442c-0.367,0.356-0.603,0.867-0.603,1.44c0,1.074,0.808,1.949,1.8,1.949h0.078h9.905h0.493
	c1.464,0,2.685-0.951,2.944-2.203l3.189,0.002c0.276,0,0.5-0.225,0.5-0.5C37.408,29.771,37.184,29.549,36.908,29.549z M25.99,24.062
	c0.24,0,0.412,0.121,0.514,0.223c0.181,0.181,0.283,0.443,0.283,0.72c-0.002,0.521-0.363,0.943-0.806,0.943h-5.589
	c-0.012,0-0.022,0.006-0.034,0.008h-0.062c-0.441,0-0.8-0.426-0.8-0.948c0-0.521,0.358-0.945,0.8-0.945h1.404h4.185L25.99,24.062
	L25.99,24.062z M19.497,27.918c0-0.521,0.358-0.943,0.8-0.943h5.589c0.002,0,0.003-0.001,0.005-0.001h0.1
	c0.241,0,0.412,0.12,0.516,0.223c0.18,0.181,0.281,0.443,0.281,0.72c-0.002,0.517-0.356,0.936-0.793,0.942c-0.002,0-0.002,0-0.004,0
	h-4.289c-0.002,0-0.003,0.001-0.005,0.001h-1.399c-0.008,0-0.015,0.002-0.022,0.002C19.843,28.844,19.497,28.432,19.497,27.918z
	 M19.497,30.801c0-0.51,0.347-0.924,0.777-0.938c0.008,0,0.015,0.002,0.022,0.002h4.55c0.01,0,0.019-0.005,0.029-0.006h1.106
	c0.005,0,0.01-0.001,0.014-0.001c0.238,0.002,0.407,0.121,0.51,0.221c0.18,0.182,0.281,0.443,0.281,0.721
	c-0.002,0.521-0.363,0.943-0.805,0.943h-5.589c-0.012,0-0.022,0.006-0.034,0.008h-0.062C19.854,31.75,19.497,31.324,19.497,30.801z"
	/>
</svg>
