<?xml version="1.0" encoding="utf-8"?>
<!-- Generator: Adobe Illustrator 16.0.4, SVG Export Plug-In . SVG Version: 6.00 Build 0)  -->
<!DOCTYPE svg PUBLIC "-//W3C//DTD SVG 1.1//EN" "http://www.w3.org/Graphics/SVG/1.1/DTD/svg11.dtd">
<svg version="1.1" id="Layer_1" xmlns="http://www.w3.org/2000/svg" xmlns:xlink="http://www.w3.org/1999/xlink" x="0px" y="0px"
	 width="50px" height="50px" viewBox="0 0 50 50" enable-background="new 0 0 50 50" xml:space="preserve">
<g>
	<path d="M32.749,24.133c-0.347-0.299-1.505-0.539-2.718-0.717l0.031-0.158V17.93c0-1.156-0.902-2.096-2.013-2.096
		c-0.37,0-0.715,0.111-1.014,0.295v-1.281c0-1.158-0.914-2.1-2.038-2.1c-1.042,0-1.894,0.812-2.013,1.854
		c-0.307-0.19-0.664-0.309-1.048-0.309c-1.124,0-2.038,0.941-2.038,2.1v1.195c-0.304-0.186-0.654-0.299-1.032-0.299
		c-1.123,0-2.037,0.941-2.037,2.098v3.941v5.434v1.242c0,4.268,3.359,7.248,8.17,7.248c4.811,0,8.17-2.98,8.17-7.248v-5.039
		C33.169,24.643,32.918,24.277,32.749,24.133z M28.05,16.834c0.56,0,1.013,0.492,1.013,1.096v5.328l0.006,0.029
		c-0.436-0.053-0.854-0.098-1.213-0.133c-0.301-0.021-0.567-0.006-0.818,0.025v-5.25C27.036,17.326,27.491,16.834,28.05,16.834z
		 M32.169,30.004c0,3.678-2.948,6.248-7.17,6.248c-4.222,0-7.17-2.57-7.17-6.248v-1.242v-5.434v-3.941
		c0-0.604,0.465-1.098,1.037-1.098c0.562,0,1.016,0.477,1.032,1.066v4.754l0.006,0.029v0.432c0,0.274,0.224,0.5,0.5,0.5
		c0.276,0,0.5-0.226,0.5-0.5v-5.185l-0.006-0.061v-2.935c0-0.604,0.466-1.1,1.038-1.1c0.548,0,0.988,0.457,1.024,1.027v8.248
		c0,0.276,0.224,0.5,0.5,0.5s0.5-0.224,0.5-0.5v-1.021l0.014-0.067v-7.088l-0.014-0.142v-1.404c0-0.604,0.465-1.1,1.037-1.1
		c0.571,0,1.038,0.494,1.038,1.1v3.082v5.604c-0.316,0.209-0.566,0.482-0.706,0.865c-0.386,1.055,0.185,2.239,1.312,2.651
		l3.191,0.884c0.264,0.069,0.541-0.084,0.615-0.351c0.072-0.267-0.083-0.541-0.35-0.615l-3.152-0.868
		c-0.57-0.212-0.875-0.818-0.678-1.357c0.067-0.186,0.246-0.676,1.502-0.592c1.819,0.18,3.994,0.516,4.316,0.731l0.081,0.082v5.042
		H32.169z"/>
</g>
</svg>
