<?xml version="1.0" encoding="utf-8"?>
<!-- Generator: Adobe Illustrator 16.0.4, SVG Export Plug-In . SVG Version: 6.00 Build 0)  -->
<!DOCTYPE svg PUBLIC "-//W3C//DTD SVG 1.1//EN" "http://www.w3.org/Graphics/SVG/1.1/DTD/svg11.dtd">
<svg version="1.1" id="Layer_1" xmlns="http://www.w3.org/2000/svg" xmlns:xlink="http://www.w3.org/1999/xlink" x="0px" y="0px"
	 width="50px" height="50px" viewBox="0 0 50 50" enable-background="new 0 0 50 50" xml:space="preserve">
<g>
	<path d="M32.752,24.059c-0.344-0.299-1.493-0.531-2.691-0.701l0.004-0.027v-8.41c0-1.156-0.902-2.097-2.013-2.097
		s-2.014,0.94-2.014,2.097v4.523c-0.319-0.213-0.698-0.34-1.105-0.34c-0.604,0-1.142,0.277-1.516,0.709
		c-0.374-0.432-0.912-0.709-1.517-0.709c-0.604,0-1.142,0.277-1.516,0.709c-0.374-0.432-0.912-0.709-1.517-0.709
		c-1.086,0-1.969,0.883-2.026,1.986l-0.011,0.055v0.057v2.052v1.187v4.248v1.242c0,4.268,3.359,7.247,8.17,7.247
		c4.811,0,8.17-2.979,8.17-7.247v-5.039C33.172,24.568,32.921,24.202,32.752,24.059z M28.053,13.823
		c0.559,0,1.014,0.491,1.014,1.097v8.311c-0.424-0.049-0.83-0.09-1.176-0.123c-0.326-0.034-0.6-0.026-0.852,0V14.92
		C27.039,14.314,27.494,13.823,28.053,13.823z M24.934,20.104c0.572,0,1.039,0.492,1.039,1.099v2.045l0.04,0.196
		c-0.358,0.242-0.566,0.568-0.68,0.881c-0.142,0.387-0.152,0.791-0.056,1.168c-0.091,0.027-0.184,0.045-0.282,0.045
		c-0.558,0-1.007-0.471-1.03-1.055l0.004-0.043V21.12l-0.03-0.147C24.042,20.48,24.438,20.104,24.934,20.104z M21.901,20.104
		c0.522,0,0.938,0.418,1.01,0.949l-0.015,0.148v3.378l0.024,0.118c-0.113,0.478-0.502,0.839-0.988,0.839
		c-0.552,0-0.995-0.461-1.026-1.036l0.001-0.005v-0.058v-3.236V21.12l-0.014-0.07C20.965,20.52,21.38,20.104,21.901,20.104z
		 M18.869,20.104c0.522,0,0.938,0.418,1.01,0.949l-0.015,0.148v3.462c-0.101,0.494-0.497,0.873-0.994,0.873
		c-0.572,0-1.038-0.492-1.038-1.099v-1.186V21.2C17.832,20.596,18.297,20.104,18.869,20.104z M32.172,29.93
		c0,3.678-2.947,6.247-7.17,6.247c-4.222,0-7.17-2.569-7.17-6.247v-1.242v-2.453c0.305,0.188,0.658,0.303,1.038,0.303
		c0.613,0,1.157-0.286,1.531-0.729c0.374,0.441,0.918,0.729,1.532,0.729c0.613,0,1.157-0.286,1.531-0.729
		c0.374,0.441,0.918,0.729,1.532,0.729c0.263,0,0.52-0.066,0.76-0.168c0.232,0.26,0.528,0.477,0.889,0.607l3.191,0.883
		c0.266,0.07,0.541-0.084,0.615-0.351c0.072-0.266-0.083-0.541-0.35-0.614l-3.152-0.869c-0.57-0.211-0.874-0.818-0.678-1.357
		c0.076-0.211,0.252-0.712,1.517-0.564c1.812,0.168,3.979,0.489,4.303,0.705l0.081,0.082V29.93L32.172,29.93z"/>
</g>
</svg>
