<?xml version="1.0" encoding="utf-8"?>
<!-- Generator: Adobe Illustrator 16.0.4, SVG Export Plug-In . SVG Version: 6.00 Build 0)  -->
<!DOCTYPE svg PUBLIC "-//W3C//DTD SVG 1.1//EN" "http://www.w3.org/Graphics/SVG/1.1/DTD/svg11.dtd">
<svg version="1.1" id="Layer_1" xmlns="http://www.w3.org/2000/svg" xmlns:xlink="http://www.w3.org/1999/xlink" x="0px" y="0px"
	 width="50px" height="50px" viewBox="0 0 50 50" enable-background="new 0 0 50 50" xml:space="preserve">
<g>
	<path d="M33.161,24.92v-1.014c0-1.156-0.914-2.098-2.038-2.098c-0.389,0-0.75,0.118-1.061,0.313V17.93
		c0-1.156-0.902-2.096-2.013-2.096c-0.37,0-0.715,0.111-1.014,0.295v-1.281c0-1.158-0.914-2.1-2.038-2.1
		c-1.042,0-1.894,0.812-2.013,1.854c-0.307-0.19-0.664-0.309-1.048-0.309c-1.124,0-2.038,0.941-2.038,2.1v1.195
		c-0.304-0.186-0.654-0.299-1.032-0.299c-1.123,0-2.037,0.941-2.037,2.098v3.941v5.434v1.242c0,4.268,3.359,7.248,8.17,7.248
		c4.811,0,8.17-2.98,8.17-7.248v-5.039L33.161,24.92z M25,36.252c-4.222,0-7.17-2.57-7.17-6.248v-1.242v-5.434v-3.941
		c0-0.604,0.465-1.098,1.037-1.098c0.562,0,1.016,0.477,1.032,1.066v5.004l0.006,0.029v1.182c0,0.274,0.224,0.5,0.5,0.5
		c0.276,0,0.5-0.226,0.5-0.5v-6.185l-0.006-0.061v-2.935c0-0.604,0.466-1.1,1.038-1.1c0.548,0,0.988,0.457,1.024,1.027v8.248
		l0.014,0.067v0.804c0,0.274,0.224,0.5,0.5,0.5s0.5-0.226,0.5-0.5v-9.047l-0.014-0.142v-1.404c0-0.604,0.465-1.1,1.037-1.1
		s1.038,0.494,1.038,1.1v3.082v5.617v1.979c0,0.277,0.224,0.5,0.5,0.5s0.5-0.223,0.5-0.5v-1.979V17.93
		c0-0.604,0.455-1.096,1.014-1.096c0.56,0,1.013,0.492,1.013,1.096v9.377c0,0.275,0.225,0.5,0.5,0.5c0.276,0,0.5-0.225,0.5-0.5
		v-0.354l0.022-0.111v-2.934c0-0.605,0.465-1.099,1.037-1.099c0.571,0,1.038,0.492,1.038,1.099v2.786l0.009,0.046v3.266
		C32.17,33.682,29.223,36.252,25,36.252z"/>
</g>
</svg>
