<?xml version="1.0" encoding="utf-8"?>
<!-- Generator: Adobe Illustrator 16.0.4, SVG Export Plug-In . SVG Version: 6.00 Build 0)  -->
<!DOCTYPE svg PUBLIC "-//W3C//DTD SVG 1.1//EN" "http://www.w3.org/Graphics/SVG/1.1/DTD/svg11.dtd">
<svg version="1.1" id="Layer_1" xmlns="http://www.w3.org/2000/svg" xmlns:xlink="http://www.w3.org/1999/xlink" x="0px" y="0px"
	 width="50px" height="50px" viewBox="0 0 50 50" enable-background="new 0 0 50 50" xml:space="preserve">
<path d="M36.91,29.547l-3.641-0.001c-0.133,0-0.26,0.054-0.354,0.146c-0.094,0.094-0.146,0.222-0.146,0.354
	c0,0.938-0.895,1.702-1.994,1.702h-0.494h-2.734c0.148-0.281,0.24-0.602,0.241-0.947c0.001-0.541-0.208-1.062-0.574-1.43
	c-0.332-0.333-0.767-0.518-1.222-0.518h-1.106c-0.013,0-0.025-0.008-0.039-0.008H14.285c-0.441,0-0.8-0.425-0.8-0.947
	c0-0.521,0.358-0.943,0.8-0.943h11.604c0.275,0,0.5-0.225,0.5-0.5c0-0.276-0.225-0.5-0.5-0.5h-0.91
	c-0.042-0.012-0.084-0.026-0.131-0.026H14.286c-0.441,0-0.8-0.425-0.8-0.947c0-0.516,0.353-0.934,0.789-0.941
	c0.004,0,0.007,0.001,0.011,0.001h10.562c0.007,0,0.013-0.003,0.02-0.004h1.021c0.276,0,0.5-0.224,0.5-0.5
	c0-0.276-0.224-0.5-0.5-0.5H14.286c-0.004,0-0.007,0.001-0.011,0.001c-0.436-0.007-0.789-0.428-0.789-0.945
	c0-0.521,0.358-0.944,0.8-0.944h8.359c0.024,0.001,0.047,0.008,0.071,0.008h2.843c0.15,1.047,0.832,1.484,2.244,1.484h2.703
	c0.276,0,0.5-0.224,0.5-0.5s-0.224-0.5-0.5-0.5h-2.703c-1.215,0-1.275-0.251-1.275-0.979c0-0.276-0.225-0.5-0.5-0.5
	c-0.014,0-0.023,0.006-0.035,0.007c-0.035-0.008-0.067-0.021-0.104-0.021h-3.205c-0.426-0.021-0.768-0.433-0.768-0.943
	c0-0.522,0.355-0.946,0.793-0.951c0.002,0,0.004,0.001,0.007,0.001h8.06c1.102,0,1.996,0.8,1.996,1.783v0.858
	c0,0.134,0.054,0.261,0.146,0.355c0.094,0.093,0.221,0.145,0.354,0.145c0,0,0.002,0,0.004,0l3.744-0.031
	c0.275-0.002,0.498-0.229,0.496-0.504s-0.227-0.496-0.5-0.496c-0.002,0-0.004,0-0.004,0l-3.24,0.027v-0.354
	c0-1.534-1.345-2.783-2.996-2.783h-4.873c-0.004,0-0.008-0.003-0.014-0.003h-3.173c-0.992,0-1.8,0.876-1.8,1.952
	c0,0.344,0.089,0.663,0.234,0.943h-6.865c-0.992,0-1.8,0.872-1.8,1.944c0,0.576,0.237,1.089,0.605,1.446
	c-0.368,0.356-0.605,0.868-0.605,1.443c0,0.583,0.244,1.103,0.622,1.46c-0.377,0.355-0.622,0.875-0.622,1.457
	c0,1.074,0.808,1.947,1.8,1.947h4.455c-0.149,0.283-0.241,0.605-0.241,0.953c0,1.074,0.808,1.948,1.8,1.948h0.078h9.904h0.494
	c1.461,0,2.683-0.95,2.942-2.202l3.191,0.001c0.276,0,0.5-0.224,0.5-0.5S37.188,29.547,36.91,29.547z M19.499,30.8
	c0-0.521,0.358-0.944,0.8-0.944h5.59c0.002,0,0.002,0,0.004,0h0.101c0.241,0,0.411,0.121,0.514,0.224
	c0.181,0.18,0.283,0.442,0.282,0.721c-0.001,0.521-0.361,0.942-0.805,0.942h-5.588c-0.012,0-0.022,0.006-0.034,0.007H20.3
	C19.857,31.749,19.499,31.323,19.499,30.8z"/>
</svg>
