<?xml version="1.0" encoding="utf-8"?>
<!-- Generator: Adobe Illustrator 16.0.4, SVG Export Plug-In . SVG Version: 6.00 Build 0)  -->
<!DOCTYPE svg PUBLIC "-//W3C//DTD SVG 1.1//EN" "http://www.w3.org/Graphics/SVG/1.1/DTD/svg11.dtd">
<svg version="1.1" id="Layer_1" xmlns="http://www.w3.org/2000/svg" xmlns:xlink="http://www.w3.org/1999/xlink" x="0px" y="0px"
	 width="50px" height="50px" viewBox="0 0 50 50" enable-background="new 0 0 50 50" xml:space="preserve">
<g>
	<path d="M33.162,23.161v-1.014c0-1.156-0.914-2.099-2.038-2.099c-0.391,0-0.75,0.119-1.061,0.313V16.17
		c0-1.155-0.902-2.096-2.013-2.096c-0.37,0-0.715,0.11-1.014,0.295v-1.281c0-1.157-0.914-2.101-2.038-2.101
		c-1.042,0-1.895,0.812-2.014,1.854c-0.308-0.19-0.664-0.309-1.049-0.309c-1.123,0-2.037,0.94-2.037,2.1v1.195
		c-0.305-0.187-0.654-0.3-1.032-0.3c-1.123,0-2.037,0.941-2.037,2.099v3.94v5.435v1.242c0,3.358,2.089,5.916,5.323,6.854
		c-0.123,0.362-0.202,0.69-0.202,0.948c0,1.638,1.327,2.966,2.966,2.966s2.965-1.328,2.965-2.966c0-0.246-0.072-0.56-0.188-0.903
		c3.322-0.9,5.476-3.486,5.476-6.898v-5.039L33.162,23.161z M27.321,34.204c-0.858-1.881-2.403-4.156-2.403-4.156
		s-1.521,2.24-2.385,4.113c-1.462-0.41-2.657-1.186-3.478-2.238l5.973-2.516c0.254-0.107,0.373-0.4,0.267-0.654
		s-0.399-0.373-0.655-0.268l-6.129,2.582c-0.436-0.832-0.68-1.781-0.68-2.822v-1.242v-5.434v-3.941c0-0.605,0.465-1.098,1.037-1.098
		c0.562,0,1.016,0.477,1.031,1.065v5.005l0.006,0.028v1.183c0,0.274,0.225,0.5,0.5,0.5c0.277,0,0.5-0.226,0.5-0.5v-6.185
		l-0.006-0.062v-2.934c0-0.605,0.467-1.1,1.039-1.1c0.549,0,0.986,0.457,1.023,1.027v8.248l0.014,0.067v0.803
		c0,0.275,0.225,0.5,0.5,0.5c0.276,0,0.5-0.225,0.5-0.5v-9.047l-0.014-0.142v-1.403c0-0.604,0.465-1.101,1.037-1.101
		s1.038,0.494,1.038,1.101v3.082v5.617v1.979c0,0.277,0.224,0.5,0.5,0.5s0.5-0.223,0.5-0.5v-1.979v-5.617
		c0-0.604,0.454-1.097,1.014-1.097s1.013,0.492,1.013,1.097v9.377c0,0.274,0.225,0.5,0.5,0.5c0.276,0,0.5-0.226,0.5-0.5V25.19
		l0.022-0.111v-2.934c0-0.605,0.465-1.099,1.037-1.099c0.571,0,1.038,0.492,1.038,1.099v2.786l0.009,0.046v3.266
		C32.171,31.202,30.263,33.44,27.321,34.204z"/>
</g>
</svg>
