<?xml version="1.0" encoding="utf-8"?>
<!-- Generator: Adobe Illustrator 16.0.4, SVG Export Plug-In . SVG Version: 6.00 Build 0)  -->
<!DOCTYPE svg PUBLIC "-//W3C//DTD SVG 1.1//EN" "http://www.w3.org/Graphics/SVG/1.1/DTD/svg11.dtd">
<svg version="1.1" id="Layer_1" xmlns="http://www.w3.org/2000/svg" xmlns:xlink="http://www.w3.org/1999/xlink" x="0px" y="0px"
	 width="50px" height="50px" viewBox="0 0 50 50" enable-background="new 0 0 50 50" xml:space="preserve">
<path d="M21.846,19.966c-0.851-1.021-2.375-1.308-3.527-0.678c-0.897,0.498-1.458,1.442-1.458,2.468
	c0,0.339-0.274,0.615-0.615,0.615c-0.342,0-0.616-0.276-0.616-0.615c0-1.472,0.802-2.831,2.094-3.545
	c1.658-0.912,3.848-0.501,5.067,0.967c0.218,0.262,0.183,0.649-0.078,0.865C22.451,20.26,22.062,20.227,21.846,19.966z
	 M39.636,26.105c0,0.34-0.275,0.615-0.616,0.615h-4.815c-2.935,4.084-9.13,8.01-9.453,8.215c-0.101,0.062-0.213,0.094-0.327,0.094
	c-0.113,0-0.228-0.031-0.327-0.094c-0.324-0.205-6.562-4.154-9.493-8.281h-3.624c-0.34,0-0.615-0.276-0.615-0.615
	c0-0.342,0.274-0.616,0.615-0.616h2.872c-0.291-0.551-0.521-1.099-0.641-1.633c-0.207-0.623-0.32-1.327-0.32-2.034
	c0-2.468,1.343-4.745,3.507-5.939c1.002-0.555,2.135-0.846,3.274-0.846c1.789,0,3.486,0.7,4.751,1.941
	c1.263-1.241,2.957-1.941,4.746-1.941c1.143,0,2.274,0.291,3.275,0.846c2.165,1.197,3.509,3.473,3.509,5.939
	c0,0.707-0.113,1.409-0.334,2.092c-0.12,0.537-0.354,1.088-0.65,1.644h4.052C39.359,25.49,39.636,25.766,39.636,26.105z
	 M15.271,25.423h5.939c0.206,0,0.397,0.104,0.513,0.274l1.3,1.947l4.026-6.117c0.128-0.195,0.357-0.301,0.587-0.274
	c0.231,0.026,0.427,0.183,0.506,0.401l1.396,3.836h4.004c0.426-0.672,0.748-1.334,0.889-1.967c0.197-0.616,0.29-1.19,0.29-1.769
	c0-2.021-1.101-3.885-2.872-4.862c-0.817-0.453-1.745-0.69-2.681-0.69c-1.656,0-3.213,0.733-4.271,2.011
	c-0.117,0.141-0.29,0.223-0.474,0.223c-0.183,0-0.356-0.082-0.474-0.223c-1.062-1.277-2.622-2.011-4.278-2.011
	c-0.935,0-1.859,0.237-2.679,0.69c-1.771,0.979-2.871,2.842-2.871,4.862c0,0.577,0.093,1.151,0.274,1.707
	C14.538,24.096,14.854,24.757,15.271,25.423z M32.65,26.723h-3.544c-0.258,0-0.49-0.164-0.578-0.406l-1.124-3.088L23.543,29.1
	c-0.114,0.172-0.308,0.275-0.512,0.277c-0.002,0-0.002,0-0.003,0c-0.205,0-0.397-0.104-0.512-0.273l-1.633-2.448H16.15
	c2.562,3.165,7.032,6.21,8.274,7.024C25.66,32.867,30.09,29.85,32.65,26.723z"/>
</svg>
