<?xml version="1.0" encoding="utf-8"?>
<!-- Generator: Adobe Illustrator 16.0.4, SVG Export Plug-In . SVG Version: 6.00 Build 0)  -->
<!DOCTYPE svg PUBLIC "-//W3C//DTD SVG 1.1//EN" "http://www.w3.org/Graphics/SVG/1.1/DTD/svg11.dtd">
<svg version="1.1" id="Layer_1" xmlns="http://www.w3.org/2000/svg" xmlns:xlink="http://www.w3.org/1999/xlink" x="0px" y="0px"
	 width="50px" height="50px" viewBox="0 0 50 50" enable-background="new 0 0 50 50" xml:space="preserve">
<g>
	<path d="M31.933,17.072c-0.86-0.477-1.836-0.727-2.819-0.727c-1.554,0-3.021,0.61-4.111,1.692
		c-1.094-1.082-2.563-1.692-4.117-1.692c-0.979,0-1.955,0.25-2.819,0.727c-1.863,1.031-3.021,2.992-3.021,5.117
		c0,0.609,0.098,1.217,0.275,1.756c0.95,4.275,9.069,9.416,9.416,9.633c0.082,0.051,0.174,0.076,0.266,0.076
		c0.094,0,0.187-0.025,0.266-0.076c0.347-0.217,8.462-5.355,9.4-9.586c0.191-0.584,0.287-1.19,0.287-1.803
		C34.954,20.064,33.798,18.104,31.933,17.072z M33.702,23.729c-0.771,3.467-7.295,7.908-8.701,8.83
		c-1.24-0.812-6.455-4.363-8.211-7.598h2.174c0.229,0,0.428-0.154,0.484-0.375l0.717-2.779l1.139,7.645
		c0.035,0.24,0.238,0.421,0.482,0.427h0.012c0.238,0,0.443-0.169,0.49-0.403l1.047-5.342l0.053,0.325
		c0.039,0.242,0.248,0.42,0.492,0.42h4.75c0.277,0,0.5-0.224,0.5-0.5s-0.223-0.5-0.5-0.5h-4.324l-0.432-2.663
		c-0.039-0.238-0.244-0.416-0.486-0.42H23.38c-0.238,0-0.442,0.169-0.49,0.404l-1.024,5.232l-1.072-7.211
		c-0.035-0.234-0.229-0.414-0.469-0.426c-0.236-0.035-0.451,0.145-0.51,0.374l-1.236,4.792h-1.947l-0.235,0.066
		c-0.037-0.114-0.084-0.231-0.109-0.346c-0.16-0.486-0.24-0.988-0.24-1.492c0-1.762,0.959-3.387,2.504-4.241
		c0.715-0.396,1.523-0.603,2.336-0.603c1.445,0,2.808,0.639,3.732,1.752c0.096,0.114,0.236,0.182,0.385,0.182
		c0.15,0,0.291-0.066,0.385-0.182c0.925-1.113,2.281-1.752,3.728-1.752c0.813,0,1.623,0.207,2.338,0.602
		c1.545,0.855,2.504,2.48,2.504,4.242C33.954,22.695,33.874,23.197,33.702,23.729z"/>
</g>
</svg>
