<?xml version="1.0" encoding="utf-8"?>
<!-- Generator: Adobe Illustrator 16.0.4, SVG Export Plug-In . SVG Version: 6.00 Build 0)  -->
<!DOCTYPE svg PUBLIC "-//W3C//DTD SVG 1.1//EN" "http://www.w3.org/Graphics/SVG/1.1/DTD/svg11.dtd">
<svg version="1.1" id="Layer_1" xmlns="http://www.w3.org/2000/svg" xmlns:xlink="http://www.w3.org/1999/xlink" x="0px" y="0px"
	 width="50px" height="50px" viewBox="0 0 50 50" enable-background="new 0 0 50 50" xml:space="preserve">
<g>
	<path d="M34.996,13.813c-1.143-0.63-2.455-0.992-3.854-0.992c-2.469,0-4.68,1.125-6.14,2.889c-1.467-1.764-3.676-2.889-6.148-2.889
		c-1.396,0-2.705,0.362-3.851,0.992c-2.459,1.362-4.125,3.98-4.125,6.989c0,0.861,0.14,1.687,0.394,2.46
		c1.369,6.155,13.73,13.916,13.73,13.916s12.353-7.761,13.724-13.916c0.254-0.773,0.395-1.6,0.395-2.46
		C39.121,17.794,37.455,15.177,34.996,13.813z"/>
</g>
</svg>
