<?xml version="1.0" encoding="utf-8"?>
<!-- Generator: Adobe Illustrator 16.0.4, SVG Export Plug-In . SVG Version: 6.00 Build 0)  -->
<!DOCTYPE svg PUBLIC "-//W3C//DTD SVG 1.1//EN" "http://www.w3.org/Graphics/SVG/1.1/DTD/svg11.dtd">
<svg version="1.1" id="Layer_1" xmlns="http://www.w3.org/2000/svg" xmlns:xlink="http://www.w3.org/1999/xlink" x="0px" y="0px"
	 width="50px" height="50px" viewBox="0 0 50 50" enable-background="new 0 0 50 50" xml:space="preserve">
<g>
	<path d="M18.251,18.458c0,0-3.184,3.164-0.203,7.963c0.871,1.376,1.485,3.23,2.194,6.154c0.506,2.104,2.382,8.755,7.353,5.575
		c0,0,8.35-9.243,4.978-17.307c-0.267-0.614-0.692-1.209-1.271-1.75l1.324-3.08c1.067-2.355-0.547-2.924-0.547-2.924
		c-1.271-0.803-2.675,2.251-3.45,4.336c-0.734-0.292-1.525-0.516-2.376-0.646l-0.047-3.184c0-2.59-1.49-2.59-1.49-2.59
		c-1.62-0.146-1.495,3.554-1.276,5.717c-0.438,0.047-0.875,0.109-1.334,0.213c-0.729-1.115-1.918-2.902-2.461-3.643
		c-0.953-1.328-2.578,0-2.578,0c-1.221,1.215,0.4,3.93,1.233,5.144L18.251,18.458z"/>
</g>
</svg>
