<?xml version="1.0" encoding="utf-8"?>
<!-- Generator: Adobe Illustrator 16.0.4, SVG Export Plug-In . SVG Version: 6.00 Build 0)  -->
<!DOCTYPE svg PUBLIC "-//W3C//DTD SVG 1.1//EN" "http://www.w3.org/Graphics/SVG/1.1/DTD/svg11.dtd">
<svg version="1.1" id="Layer_1" xmlns="http://www.w3.org/2000/svg" xmlns:xlink="http://www.w3.org/1999/xlink" x="0px" y="0px"
	 width="50px" height="50px" viewBox="0 0 50 50" enable-background="new 0 0 50 50" xml:space="preserve">
<g>
	<path d="M28.32,27.27c0.695-0.043,0.556-0.199,0.556-0.199c-0.455-0.426,0.269-0.682,0.269-0.682
		c1.504-0.383,1.324-1.129,1.265-1.574c-0.16-1.147-1.171-1.729-1.854-2.016c-1.6-0.664-2.377,0.264-2.914,0.795
		c-0.146,0.146-0.453,0.342-0.752,0.355h-0.131c-0.298-0.014-0.604-0.209-0.752-0.355c-0.537-0.531-1.314-1.459-2.913-0.795
		c-0.684,0.285-1.696,0.867-1.854,2.016c-0.062,0.445-0.24,1.191,1.265,1.574c0,0,0.724,0.256,0.271,0.682
		c0,0-0.144,0.156,0.554,0.199c0,0,0.653,0.851,1.034,0.467c0.215-0.215,0.396-0.368,1.135,0.343c0,0,0.525,0.412,1.121,0.101
		c0,0,0.469-0.214-0.27-0.441c0,0-2.162-0.383-1.856-1.984c0.239-1.277,1.589-0.354,2.026-0.1c0.07,0.039,0.154,0.07,0.308,0.082
		c0.151-0.012,0.235-0.043,0.307-0.082c0.44-0.254,1.787-1.178,2.029,0.1c0.303,1.602-1.859,1.984-1.859,1.984
		c-0.737,0.229-0.27,0.441-0.27,0.441c0.596,0.312,1.12-0.101,1.12-0.101c0.738-0.711,0.922-0.558,1.136-0.343
		C27.666,28.119,28.32,27.27,28.32,27.27z"/>
	<path d="M24.857,25.738c-0.017,0-0.021-0.004-0.035-0.004s-0.021,0.004-0.034,0.004H24.857z"/>
	<path d="M21.777,28.035l-0.469-0.355c-0.354-0.34-0.539-0.1-0.539-0.1c-0.299,0.654-0.795,0.299-0.795,0.299
		c-0.043-0.383-0.142-0.439-0.256-0.482c-0.756-0.28-0.752,0.668-0.752,0.668c-0.523,0.611-0.015,1.021-0.015,1.021
		c0.468,0.27,0.327,1.334,0.327,1.334l1.263,0.027c0,0-0.206-1.051,0-1.305c0.173-0.215,0.31-0.521,0.481-0.611
		c0.139-0.07,0.625-0.027,0.625-0.027C22.146,28.275,21.777,28.035,21.777,28.035z"/>
	<path d="M29.893,27.396c-0.113,0.043-0.211,0.1-0.254,0.481c0,0-0.498,0.354-0.797-0.299c0,0-0.184-0.24-0.537,0.101l-0.469,0.354
		c0,0-0.37,0.239,0.127,0.469c0,0,0.486-0.043,0.624,0.026c0.173,0.091,0.31,0.396,0.481,0.611c0.207,0.254,0,1.305,0,1.305
		l1.264-0.026c0,0-0.141-1.063,0.326-1.334c0,0,0.511-0.41-0.014-1.021C30.645,28.064,30.646,27.115,29.893,27.396z"/>
	<path d="M24.077,22.885v0.312c0.026,0.254,0.298,0.326,0.298,0.326h0.41h0.042h0.411c0,0,0.271-0.072,0.3-0.326v-0.312
		c0,0,0.724-0.568,0.539-0.709c0,0-0.071-0.182-0.823,0.424h-0.431H24.79h-0.431c-0.752-0.604-0.822-0.424-0.822-0.424
		C23.354,22.316,24.077,22.885,24.077,22.885z"/>
	<path d="M24.077,21.645v0.312c0.026,0.256,0.298,0.326,0.298,0.326h0.41h0.042h0.411c0,0,0.271-0.07,0.3-0.326v-0.312
		c0,0,0.724-0.565,0.539-0.707c0,0-0.071-0.182-0.823,0.424h-0.431H24.79h-0.431c-0.752-0.604-0.822-0.424-0.822-0.424
		C23.354,21.078,24.077,21.645,24.077,21.645z"/>
	<path d="M15.645,32.188h18.711c0.227,0,0.408-0.182,0.408-0.405V19.846c0-0.225-0.183-0.406-0.408-0.406H15.645
		c-0.226,0-0.406,0.183-0.406,0.406v11.937C15.236,32.006,15.419,32.188,15.645,32.188z M16.051,20.252h17.898v11.123H16.051V20.252
		z"/>
	<path d="M39.593,16.896H10.407c-0.226,0-0.407,0.182-0.407,0.405s0.182,0.408,0.407,0.408h2.39V32.98
		c0,0.908,0.739,1.647,1.648,1.647h21.109c0.908,0,1.647-0.739,1.647-1.647V17.71h2.39c0.227,0,0.407-0.185,0.407-0.408
		S39.818,16.896,39.593,16.896z M36.391,32.98c0,0.461-0.375,0.834-0.836,0.834H14.445c-0.461,0-0.836-0.373-0.836-0.834V17.71
		h22.781V32.98z"/>
	<path d="M10.407,16.186h29.186c0.226,0,0.407-0.184,0.407-0.408c0-0.223-0.182-0.405-0.407-0.405H10.407
		c-0.226,0-0.407,0.183-0.407,0.405C10,16.002,10.182,16.186,10.407,16.186z"/>
</g>
</svg>
