<?xml version="1.0" encoding="utf-8"?>
<!-- Generator: Adobe Illustrator 16.0.4, SVG Export Plug-In . SVG Version: 6.00 Build 0)  -->
<!DOCTYPE svg PUBLIC "-//W3C//DTD SVG 1.1//EN" "http://www.w3.org/Graphics/SVG/1.1/DTD/svg11.dtd">
<svg version="1.1" id="Layer_1" xmlns="http://www.w3.org/2000/svg" xmlns:xlink="http://www.w3.org/1999/xlink" x="0px" y="0px"
	 width="50px" height="50px" viewBox="0 0 50 50" enable-background="new 0 0 50 50" xml:space="preserve">
<g>
	<path d="M30.598,24.862c-0.178-0.221-0.405-0.52-0.472-0.694c-0.108-0.3-0.188-1.261-0.188-1.261
		c-0.033-1.137-0.312-1.629-0.312-1.629c-0.481-0.769-0.571-2.2-0.571-2.2l-0.021-2.418c-0.167-1.65-1.385-1.662-1.385-1.662
		c-1.229-0.185-1.399-0.58-1.399-0.58c-0.261-0.374-0.112-1.093-0.112-1.093c0.216-0.176,0.299-0.643,0.299-0.643
		c0.358-0.273,0.343-0.678,0.179-0.673c-0.136,0.003-0.104-0.106-0.104-0.106c0.225-1.812-1.385-1.902-1.385-1.902h-0.246
		c0,0-1.607,0.092-1.385,1.902c0,0,0.03,0.109-0.104,0.106c-0.165-0.005-0.181,0.398,0.179,0.673c0,0,0.083,0.467,0.299,0.643
		c0,0,0.147,0.719-0.112,1.093c0,0-0.17,0.396-1.398,0.58c0,0-1.219,0.012-1.386,1.662l-0.021,2.418c0,0-0.09,1.433-0.571,2.2
		c0,0-0.278,0.492-0.312,1.629c0,0-0.081,0.961-0.189,1.261c-0.065,0.176-0.294,0.474-0.472,0.694
		c-0.35,0.438-0.938,1.347-0.624,1.447c0,0,0.244,0.024,0.567-0.617c0,0-0.006,0.246-0.267,0.963
		c-0.05,0.135-0.267,0.812,0.084,0.568c0,0,0.161-0.111,0.374-0.811c0,0-0.113,1.177,0.012,1.236
		c0.164,0.08,0.255-0.151,0.329-1.184c0,0,0.076-0.332,0.111,0.939c0.002,0.064,0.1,0.391,0.232,0.113
		c0.112-0.233,0.062-0.854,0.062-1.062c0,0,0.146,0.803,0.28,0.803c0,0,0.158,0.188,0.095-0.809
		c-0.012-0.163,0.045-0.498,0.052-0.597l0.017-0.383c0,0-0.04-0.438-0.04-0.619c0-0.045,0.155-0.643,0.569-1.272
		c0,0,0.859-1.524,0.805-2.521c0,0-0.013-0.951,0.334-1.49c0,0,0.245,2.693,0.079,3.449c0,0-0.772,1.857-0.604,3.243
		c0.126,1.03,0.368,3.234,0.614,4.104c0.127,0.449,0.052,1.585,0.155,1.867c0.046,0.123,0.021,0.235-0.077,0.517
		c-0.35,0.976-0.305,1.662,0.568,4.252c0,0,0.269,0.573,0.135,1.604c0,0-0.559,1.146-0.2,1.17c0,0,0.028,0.076,0.147,0.015
		c0,0,0.192,0.198,0.401,0.092c0,0,0.193,0.152,0.357,0.017c0,0,0.135,0.15,0.327,0.029c0,0,0.253,0.168,0.402-0.016
		c0,0,0.268,0.062-0.209-1.146c0,0-0.183-1.277-0.282-1.527c-0.19-0.479-0.057-1.781-0.015-2.062c0.065-0.466,0.031-1.264-0.09-1.88
		c-0.087-0.442,0.15-1.276,0.237-1.788c0.183-1.08,0.535-3.836,0.491-4.355l0.146,0.051c0.105,0,0.174-0.051,0.174-0.051
		c-0.044,0.521,0.308,3.275,0.492,4.355c0.087,0.512,0.324,1.346,0.237,1.788c-0.121,0.616-0.155,1.414-0.09,1.88
		c0.042,0.281,0.177,1.584-0.015,2.062c-0.101,0.25-0.282,1.527-0.282,1.527c-0.477,1.207-0.209,1.146-0.209,1.146
		c0.149,0.184,0.403,0.016,0.403,0.016c0.192,0.121,0.327-0.029,0.327-0.029c0.164,0.137,0.357-0.017,0.357-0.017
		c0.209,0.106,0.401-0.092,0.401-0.092c0.119,0.062,0.147-0.015,0.147-0.015c0.357-0.023-0.2-1.17-0.2-1.17
		c-0.134-1.031,0.135-1.604,0.135-1.604c0.873-2.59,0.918-3.276,0.568-4.252c-0.1-0.28-0.123-0.394-0.077-0.517
		c0.104-0.282,0.028-1.418,0.155-1.867c0.246-0.869,0.488-3.073,0.614-4.104c0.169-1.386-0.604-3.243-0.604-3.243
		c-0.166-0.756,0.079-3.449,0.079-3.449c0.347,0.539,0.334,1.49,0.334,1.49c-0.056,0.996,0.805,2.521,0.805,2.521
		c0.414,0.631,0.569,1.228,0.569,1.272c0,0.182-0.04,0.619-0.04,0.619l0.017,0.383c0.007,0.099,0.062,0.434,0.052,0.597
		c-0.063,0.995,0.095,0.809,0.095,0.809c0.136,0,0.28-0.803,0.28-0.803c0,0.207-0.05,0.828,0.062,1.062
		c0.134,0.276,0.23-0.049,0.232-0.113c0.035-1.271,0.111-0.939,0.111-0.939c0.074,1.031,0.165,1.264,0.33,1.184
		c0.124-0.061,0.011-1.236,0.011-1.236c0.213,0.697,0.374,0.811,0.374,0.811c0.35,0.244,0.134-0.435,0.084-0.568
		c-0.261-0.717-0.267-0.963-0.267-0.963c0.323,0.643,0.567,0.617,0.567,0.617C31.536,26.209,30.945,25.3,30.598,24.862z
		 M24.512,22.976c0,0,0.031-0.078,0.367,0.191h0.19h0.016h0.19c0.336-0.271,0.368-0.191,0.368-0.191l-0.24,0.316v0.141
		c-0.014,0.113-0.133,0.146-0.133,0.146h-0.185h-0.019h-0.186c0,0-0.119-0.031-0.132-0.146v-0.141L24.512,22.976z M24.512,23.528
		c0,0,0.031-0.079,0.367,0.188h0.19h0.016h0.19c0.336-0.269,0.368-0.188,0.368-0.188l-0.24,0.315v0.14
		c-0.014,0.112-0.133,0.146-0.133,0.146h-0.185h-0.019h-0.186c0,0-0.119-0.032-0.132-0.146v-0.14L24.512,23.528z M23.671,26.349
		l-0.278,0.014c-0.076,0.039-0.138,0.177-0.216,0.271c-0.091,0.114,0,0.581,0,0.581l-0.562-0.012c0,0,0.062-0.475-0.146-0.596
		c0,0-0.228-0.184,0.007-0.455c0,0-0.001-0.422,0.335-0.297c0.052,0.021,0.096,0.045,0.114,0.215c0,0,0.223,0.158,0.354-0.133
		c0,0,0.083-0.106,0.24,0.045l0.208,0.158C23.728,26.142,23.893,26.247,23.671,26.349z M27.68,26.151
		c0.234,0.271,0.007,0.455,0.007,0.455c-0.209,0.121-0.146,0.596-0.146,0.596l-0.562,0.012c0,0,0.093-0.467,0-0.581
		c-0.076-0.095-0.138-0.231-0.214-0.271l-0.277-0.014c-0.222-0.102-0.059-0.207-0.059-0.207l0.209-0.16
		c0.158-0.15,0.24-0.043,0.24-0.043c0.132,0.289,0.354,0.133,0.354,0.133c0.019-0.172,0.062-0.195,0.112-0.215
		C27.681,25.729,27.68,26.151,27.68,26.151z M27.574,24.705c0.025,0.198,0.105,0.53-0.563,0.701c0,0-0.321,0.112-0.12,0.304
		c0,0,0.064,0.07-0.244,0.089c0,0-0.293,0.379-0.464,0.208c-0.095-0.096-0.177-0.164-0.506,0.151c0,0-0.233,0.184-0.5,0.045
		c0,0-0.208-0.097,0.12-0.196c0,0,0.964-0.17,0.829-0.885c-0.107-0.568-0.708-0.157-0.905-0.044l-0.137,0.036l0.016,0.003h-0.029
		l0.015-0.003l-0.136-0.036c-0.196-0.113-0.797-0.524-0.905,0.044c-0.135,0.715,0.829,0.885,0.829,0.885
		c0.329,0.102,0.12,0.196,0.12,0.196c-0.266,0.139-0.5-0.045-0.5-0.045c-0.328-0.315-0.41-0.247-0.505-0.151
		c-0.171,0.171-0.462-0.208-0.462-0.208c-0.312-0.019-0.247-0.089-0.247-0.089c0.202-0.189-0.12-0.304-0.12-0.304
		c-0.671-0.171-0.59-0.503-0.562-0.701c0.07-0.513,0.522-0.771,0.826-0.897c0.713-0.298,1.06,0.117,1.299,0.354
		c0.065,0.064,0.202,0.15,0.334,0.158h0.06c0.133-0.008,0.271-0.094,0.336-0.158c0.239-0.236,0.585-0.651,1.298-0.354
		C27.052,23.935,27.503,24.192,27.574,24.705z"/>
</g>
</svg>
