<?xml version="1.0" encoding="utf-8"?>
<!-- Generator: Adobe Illustrator 16.0.4, SVG Export Plug-In . SVG Version: 6.00 Build 0)  -->
<!DOCTYPE svg PUBLIC "-//W3C//DTD SVG 1.1//EN" "http://www.w3.org/Graphics/SVG/1.1/DTD/svg11.dtd">
<svg version="1.1" id="Layer_1" xmlns="http://www.w3.org/2000/svg" xmlns:xlink="http://www.w3.org/1999/xlink" x="0px" y="0px"
	 width="50px" height="50px" viewBox="0 0 50 50" enable-background="new 0 0 50 50" xml:space="preserve">
<g>
	<path d="M22.416,21.209c0,0,0.456,0.162,0.17,0.431c0,0-0.089,0.098,0.35,0.125c0,0,0.412,0.536,0.652,0.295
		c0.135-0.136,0.25-0.231,0.716,0.215c0,0,0.331,0.261,0.707,0.062c0,0,0.295-0.134-0.171-0.277c0,0-1.362-0.24-1.172-1.252
		c0.152-0.806,1.002-0.223,1.28-0.062c0.044,0.025,0.097,0.045,0.193,0.053c0.096-0.008,0.149-0.025,0.193-0.053
		c0.277-0.159,1.127-0.742,1.279,0.062c0.191,1.012-1.172,1.252-1.172,1.252c-0.465,0.145-0.17,0.277-0.17,0.277
		c0.375,0.197,0.708-0.062,0.708-0.062c0.465-0.446,0.58-0.351,0.715-0.215c0.24,0.241,0.654-0.295,0.654-0.295
		c0.438-0.027,0.348-0.125,0.348-0.125c-0.285-0.269,0.171-0.431,0.171-0.431c0.948-0.24,0.835-0.712,0.797-0.992
		c-0.101-0.724-0.738-1.091-1.17-1.271c-1.009-0.42-1.498,0.166-1.837,0.502c-0.094,0.092-0.286,0.214-0.475,0.223h-0.082
		c-0.188-0.009-0.381-0.131-0.474-0.223c-0.339-0.336-0.829-0.922-1.837-0.502c-0.431,0.18-1.069,0.547-1.169,1.271
		C21.581,20.497,21.467,20.969,22.416,21.209z"/>
	<polygon points="25.163,20.8 25.141,20.797 25.119,20.8 	"/>
	<path d="M21.44,22.91c0.296,0.169,0.206,0.84,0.206,0.84l0.796,0.019c0,0-0.129-0.662,0-0.822c0.109-0.135,0.196-0.328,0.305-0.385
		l0.394-0.019c0.313-0.144,0.081-0.296,0.081-0.296l-0.296-0.225c-0.224-0.215-0.34-0.062-0.34-0.062
		c-0.188,0.412-0.501,0.188-0.501,0.188c-0.027-0.241-0.089-0.277-0.161-0.306c-0.476-0.178-0.474,0.421-0.474,0.421
		C21.119,22.649,21.44,22.91,21.44,22.91z"/>
	<path d="M28.337,21.845c-0.071,0.027-0.134,0.063-0.161,0.305c0,0-0.312,0.225-0.5-0.188c0,0-0.117-0.152-0.341,0.062l-0.296,0.224
		c0,0-0.232,0.151,0.081,0.296l0.394,0.018c0.109,0.058,0.195,0.25,0.305,0.385c0.13,0.16,0,0.824,0,0.824l0.797-0.02
		c0,0-0.09-0.671,0.205-0.84c0,0,0.322-0.26-0.01-0.645C28.811,22.267,28.812,21.667,28.337,21.845z"/>
	<path d="M24.669,19v0.196c0.019,0.16,0.188,0.207,0.188,0.207h0.26h0.026h0.26c0,0,0.17-0.047,0.188-0.207V19
		c0,0,0.456-0.358,0.341-0.447c0,0-0.045-0.112-0.52,0.269h-0.271H25.12h-0.271c-0.475-0.381-0.52-0.269-0.52-0.269
		C24.213,18.642,24.669,19,24.669,19z"/>
	<path d="M24.669,18.219v0.197c0.019,0.161,0.188,0.205,0.188,0.205h0.26h0.026h0.26c0,0,0.17-0.044,0.188-0.205v-0.197
		c0,0,0.456-0.358,0.341-0.446c0,0-0.045-0.113-0.52,0.269h-0.271H25.12h-0.271c-0.475-0.382-0.52-0.269-0.52-0.269
		C24.213,17.86,24.669,18.219,24.669,18.219z"/>
	<path d="M32.916,15.155h-3.62c-0.396-1.161-1.376-1.188-1.376-1.188c-1.355-0.202-1.544-0.64-1.544-0.64
		c-0.287-0.413-0.123-1.205-0.123-1.205c0.238-0.194,0.33-0.708,0.33-0.708c0.396-0.304,0.376-0.747,0.194-0.742
		c-0.147,0.004-0.114-0.118-0.114-0.118c0.247-1.996-1.527-2.099-1.527-2.099h-0.271c0,0-1.774,0.103-1.527,2.099
		c0,0,0.033,0.122-0.115,0.118c-0.182-0.005-0.199,0.438,0.195,0.742c0,0,0.092,0.514,0.33,0.708c0,0,0.164,0.792-0.123,1.205
		c0,0-0.188,0.438-1.544,0.64c0,0-0.981,0.026-1.376,1.188h-3.621c-0.276,0-0.5,0.224-0.5,0.5v9.334c0,0.275,0.224,0.5,0.5,0.5
		h1.296c-0.27,0.437-0.467,0.883-0.241,0.955c0,0,0.27,0.026,0.627-0.682c0,0-0.007,0.272-0.294,1.062
		c-0.055,0.148-0.294,0.898,0.093,0.628c0,0,0.178-0.123,0.412-0.894c0,0-0.125,1.297,0.013,1.364
		c0.182,0.088,0.281-0.168,0.363-1.306c0,0,0.084-0.366,0.123,1.035c0.002,0.072,0.109,0.432,0.257,0.125
		c0.124-0.258,0.069-0.941,0.069-1.17c0,0,0.16,0.886,0.309,0.886c0,0,0.176,0.206,0.104-0.894c-0.012-0.18,0.05-0.549,0.058-0.656
		l0.017-0.422l-0.003-0.035h1.271c-0.028,0.31-0.04,0.617-0.005,0.906c0.139,1.137,0.406,3.567,0.678,4.525
		c0.141,0.496,0.057,1.748,0.172,2.061c0.05,0.135,0.024,0.26-0.086,0.568c-0.384,1.076-0.335,1.834,0.628,4.689
		c0,0,0.296,0.633,0.147,1.771c0,0-0.615,1.265-0.221,1.29c0,0,0.032,0.084,0.164,0.018c0,0,0.213,0.219,0.443,0.101
		c0,0,0.213,0.169,0.395,0.019c0,0,0.147,0.168,0.36,0.032c0,0,0.279,0.187,0.444-0.017c0,0,0.295,0.066-0.23-1.264
		c0,0-0.201-1.41-0.312-1.687c-0.211-0.527-0.062-1.965-0.017-2.274c0.074-0.515,0.035-1.395-0.099-2.074
		c-0.096-0.487,0.167-1.407,0.263-1.973c0.201-1.191,0.591-4.23,0.542-4.804l0.162,0.056c0.117,0,0.191-0.056,0.191-0.056
		c-0.049,0.573,0.34,3.612,0.542,4.804c0.096,0.564,0.358,1.484,0.264,1.973c-0.135,0.681-0.174,1.561-0.1,2.074
		c0.047,0.311,0.194,1.747-0.017,2.274c-0.11,0.274-0.312,1.687-0.312,1.687c-0.526,1.33-0.23,1.264-0.23,1.264
		c0.165,0.201,0.443,0.017,0.443,0.017c0.213,0.136,0.36-0.032,0.36-0.032c0.183,0.15,0.396-0.019,0.396-0.019
		c0.229,0.118,0.443-0.101,0.443-0.101c0.131,0.066,0.163-0.018,0.163-0.018c0.396-0.025-0.221-1.29-0.221-1.29
		c-0.147-1.138,0.147-1.771,0.147-1.771c0.963-2.855,1.012-3.613,0.627-4.689c-0.109-0.311-0.136-0.434-0.086-0.568
		c0.115-0.312,0.031-1.563,0.172-2.061c0.271-0.958,0.539-3.391,0.679-4.525c0.034-0.289,0.022-0.598-0.005-0.906h1.271
		l-0.003,0.035l0.018,0.422c0.008,0.107,0.068,0.478,0.058,0.656c-0.071,1.1,0.104,0.894,0.104,0.894
		c0.147,0,0.309-0.886,0.309-0.886c0,0.229-0.055,0.912,0.068,1.17c0.147,0.307,0.256-0.053,0.258-0.125
		c0.039-1.401,0.123-1.035,0.123-1.035c0.082,1.138,0.182,1.394,0.363,1.306c0.137-0.067,0.012-1.364,0.012-1.364
		c0.234,0.771,0.412,0.894,0.412,0.894c0.387,0.271,0.147-0.479,0.094-0.628c-0.287-0.789-0.295-1.062-0.295-1.062
		c0.357,0.708,0.628,0.682,0.628,0.682c0.226-0.072,0.028-0.52-0.241-0.955h1.295c0.275,0,0.5-0.225,0.5-0.5v-9.334
		C33.416,15.379,33.191,15.155,32.916,15.155z M32.416,24.489H17.583v-8.334h14.833V24.489L32.416,24.489z"/>
</g>
</svg>
