<?xml version="1.0" encoding="utf-8"?>
<!-- Generator: Adobe Illustrator 16.0.4, SVG Export Plug-In . SVG Version: 6.00 Build 0)  -->
<!DOCTYPE svg PUBLIC "-//W3C//DTD SVG 1.1//EN" "http://www.w3.org/Graphics/SVG/1.1/DTD/svg11.dtd">
<svg version="1.1" id="Layer_1" xmlns="http://www.w3.org/2000/svg" xmlns:xlink="http://www.w3.org/1999/xlink" x="0px" y="0px"
	 width="50px" height="50px" viewBox="0 0 50 50" enable-background="new 0 0 50 50" xml:space="preserve">
<g>
	<path d="M26.393,5.715c0,0-1.241-0.613-2.346,0.138c0,0-0.995,0.288-0.818,2.188c0,0,0.11,0.31,0.222,0.443
		c0,0-0.066,0.685,0.375,1.194c0,0,0.132,0.861,0.619,0.773l0.199-0.044c0,0,0.111,0.354,0.055,0.575c0,0-1.005,0.608-1.193,0.85
		c0,0-1.307,0.285-1.525,0.488c-0.399,0.368-1.028,0.519-0.895,1.978c0,0-0.265,0.597,0.087,1.437c0,0-0.839,1.37-0.795,3.073
		c0,0-0.973,0.553-1.238,2.387l-0.818,2.631c0,0-0.376,0.221-0.376,0.708c0,0-1.171,0.907-1.194,1.128
		c-0.021,0.22-0.066,0.087-0.066,0.087s-0.729,0.485-0.508,0.753c0,0,0.353,0.131,0.751-0.399c0,0,0.199,1.039-0.552,1.879
		c0,0-0.229,0.354,0.153,0.279c0,0,0.399-0.412,0.532-0.663c0,0-0.073,0.84-0.192,0.943c0,0-0.043,0.427,0.31,0.178l0.384-1.135
		c0,0,0.087,0.309-0.03,0.973c0,0,0.161,0.338,0.324-0.089l0.176-0.884c0,0,0.089,0.854,0.221,0.868c0,0,0.236,0.118,0.192-0.383
		l0.014-0.811c0,0,0.03-0.237,0.162-0.516c0,0,0.34-0.708,0.354-1.371c0,0,1.827-2.491,1.93-2.815c0,0,0.753-0.708,0.929-1.695
		c0,0,0.206-0.767,0.162-1.119c0,0,0.457-0.753,0.486-1.151c0,0,0.087,0.678-0.089,1.151c0,0-0.457,0.53-0.265,1.738
		c0,0-0.255,0.833-0.294,1.119c-0.203,1.448-0.103,4.877,0.324,5.836c0,0,0.619,2.33,1.532,3.405c0,0,0.014,1.871,0.502,2.682
		c0,0-0.399,2.373,0.574,4.29c0,0,0.751,1.135,0.619,2.785c0,0-0.708,0.899-0.84,1.194l-0.206,0.25c0,0-0.398,0.045-0.53,0.413
		c0,0-0.324,0.619-0.059,0.87l0.206,0.103c0,0,0.354,0.265,0.678-0.103c0,0,0.708,0.014,0.84-0.517c0,0,0.472-0.898,0.973-0.84
		c0,0,0.648-0.132,0.529-0.736c0,0-0.072-1.135-0.234-1.444v-3.064c0,0,0.5-1.681-0.605-3.405c0,0,0.03-3.729-0.265-4.672
		c0,0,0.206-1.784,0.103-2.254c0,0,1.269,2.815,1.533,3.154c0,0,0.089,0.797,0.28,1.017c0,0-0.029,1.416,0.546,1.844l0.413,0.573
		l0.028,1.976c0,0-0.089,0.691,0.457,1.562c0,0,0.524,0.689,0.854,2.684c0.014,0.088-0.073,1.297,0.486,1.475l0.913,1.179
		c0,0-0.059,0.706,0.561,0.706c0,0,0.413,0.384,0.648,0.208c0,0,0.502-0.396,0.354-1.237c0,0-0.043-0.547-0.634-1.105L31.4,40.115
		c0,0-0.014-0.59-0.206-0.914c0,0-0.029-0.547,0.088-0.958c0,0,0.737-3.76-0.766-5.852c0,0-0.279-1.032-0.119-2.034
		c0,0-0.043-3.198-0.722-4.216c0,0-0.133-0.633-0.117-1.001c0,0,0.162-1.606-0.31-2.136c0,0-0.324-0.664-0.147-1.121
		c0,0,0.074-0.914-0.088-1.311c0,0-0.089-0.516,0.088-0.795c0,0,0.074-0.207,0.088-0.429c0,0,0.517-0.53,0.545-0.722
		c0,0,0.06,0.854,0.281,1.149c0,0,0.073,0.502-0.016,0.664c0,0-0.338,1.371,0.089,2.52c0,0,0.324,0.929,0.383,1.107
		c0,0,0,0.604,0.368,1.044c0,0,0.059,1.091,0.235,1.239c0,0-0.045,0.884,0.236,1.282c0,0,0,0.943-0.162,1.253
		c0,0-0.119,0.412,0.25,0.192c0,0,0.179-0.488,0.208-0.724c0,0,0.088-0.161,0.117,0.075c0,0-0.043,0.868-0.117,1.001
		c0,0,0.06,0.324,0.324,0.134c0,0,0.176-0.664,0.162-0.987c0,0,0.117-0.222,0.162,0.251c0,0-0.061,0.897,0.206,0.986
		c0,0,0.176,0.06,0.162-0.309l-0.043-1.121c0,0,0.131-0.043,0.146,0.296c0,0,0.148,0.941,0.31,0.971c0,0,0.398,0.104-0.028-1.65
		l-0.075-0.633c0,0,0.413,0.473,0.855,0.354c0,0,0.295-0.03-0.28-0.486c0,0-0.265-0.191-0.354-0.516c0,0-0.457-0.53-0.751-0.767
		c0,0-0.251-1.944-0.103-2.624c0,0,0.103-2.254-0.502-3.154c0,0-0.087-0.574,0.089-1.076c0,0,0.206-2.003-0.206-2.638
		c0,0,0.294-2.24-0.119-2.889c0,0-0.5-2.122-1.975-1.857c0,0-0.161-0.368-1.045-0.192c0,0-0.43-0.943-1.209-1.06
		c0,0-0.338-1.445-0.192-1.77C27.142,8.689,27.839,6.483,26.393,5.715z"/>
</g>
</svg>
