<?xml version="1.0" encoding="utf-8"?>
<!-- Generator: Adobe Illustrator 16.0.4, SVG Export Plug-In . SVG Version: 6.00 Build 0)  -->
<!DOCTYPE svg PUBLIC "-//W3C//DTD SVG 1.1//EN" "http://www.w3.org/Graphics/SVG/1.1/DTD/svg11.dtd">
<svg version="1.1" id="Layer_1" xmlns="http://www.w3.org/2000/svg" xmlns:xlink="http://www.w3.org/1999/xlink" x="0px" y="0px"
	 width="50px" height="50px" viewBox="0 0 50 50" enable-background="new 0 0 50 50" xml:space="preserve">
<path d="M34.227,16.572c-2.776-4.223-8.518-3.877-8.529-3.87L25.311,12.7c-7.02,0-8.91,1.825-9.803,4.978
	c-0.119,0.417-0.221,1.549-0.221,1.607c-0.051,0.217-0.555,1.314-0.946,2.128c-0.513,0.688-0.003,1.567,0.349,1.942
	c0.147,0.191,0.123,0.424,0.101,0.527c-0.245,0.311-0.503,0.486-0.5,0.486c-0.459,0.246-0.579,0.562-0.601,0.781
	c-0.033,0.381,0.203,0.65,0.318,0.76c0.444,0.542,1.1,1.419,1.213,1.734c-0.015,0.07-0.218,0.241-0.398,0.32
	c-0.154,0.057-0.624,0.229-0.646,0.673c-0.008,0.155,0.047,0.302,0.157,0.425l-0.174,0.219c-0.349,0.404-0.468,0.793-0.351,1.154
	c0.121,0.381,0.484,0.596,0.696,0.644c1.24,0.478,2.822,0.187,4.063-0.138c0.582-0.152,1.135-0.297,1.562-0.297
	c0.243,0,0.422,0.045,0.509,0.088c0.077,0.133,0.065,0.617,0.002,0.73c-0.586,0.576-2.264,1.025-3.822,1.025
	c-0.524,0-0.979-0.055-1.314-0.168c-0.297-0.101-0.553-0.187-0.807-0.187c-0.021,0-0.106,0.005-0.127,0.009
	c-0.272,0.03-0.482,0.182-0.576,0.412c-0.167,0.411,0.13,0.869,0.35,1.137c0.268,0.277,0.145,0.692,0.146,0.692
	c0,0,0.001,0,0.001-0.001c-0.478,1.046-0.296,1.744-0.146,2.066c0.15,0.324,0.396,0.555,0.67,0.632
	c0.531,0.149,1.09,0.227,1.658,0.227c1.204,0,2.311-0.349,2.958-0.932c0.357-0.304,3.015-0.986,5.341-1.464
	c1.329-0.475,1.252-2.766,1.223-3.234c-0.163-1.699,0.709-2.873,0.711-2.951c0.138,0.032,0.463,0.42,0.627,0.713
	c0.247,0.688,0.814,0.99,0.88,1.022c0.049,0.024,0.103,0.041,0.155,0.048c0.197,0.027,0.394,0.039,0.589,0.039
	c2.437,0,4.663-1.938,4.784-2.046C39.092,23.201,34.257,16.613,34.227,16.572z M14.369,25.562l0.305-0.401
	c0.021,0.038,0.016,0.126-0.016,0.161c0.001,0,0.011-0.012,0.048-0.036L14.369,25.562z M28.809,29.534
	c-0.09-0.066-0.261-0.222-0.363-0.496c-0.163-0.308-0.758-1.308-1.524-1.308c-0.228,0-0.553,0.084-0.8,0.455
	c-0.046,0.061-1.123,1.482-0.922,3.573c0.051,0.826-0.115,2.056-0.493,2.194c-1.174,0.238-5.056,1.064-5.74,1.681
	c-0.463,0.417-1.341,0.677-2.29,0.677c-0.477,0-0.943-0.063-1.349-0.174c-0.08-0.058-0.317-0.476,0.091-1.376
	c0.114-0.319,0.188-0.937-0.115-1.454c1.457,0.438,4.836,0.057,6.041-1.13c0.312-0.308,0.379-0.907,0.34-1.327
	c-0.039-0.423-0.188-0.731-0.431-0.895c-0.696-0.469-1.771-0.284-2.937,0.02c-1.16,0.301-2.452,0.559-3.449,0.172
	c-0.002,0-0.006-0.002-0.008-0.002c-0.023,0-0.07,0.026-0.094,0.026c0-0.001,0.012-0.076,0.164-0.252l0.465-0.591
	c0.078-0.122,0.107-0.36,0.066-0.498c-0.005-0.021-0.012-0.04-0.02-0.061c0.543-0.312,0.938-0.847,0.72-1.461
	c-0.212-0.596-1.19-1.805-1.399-2.06c0.01-0.006,0.021-0.013,0.033-0.021c0.049-0.029,0.473-0.308,0.854-0.824
	c0.027-0.036,0.049-0.077,0.064-0.121c0.115-0.312,0.196-0.983-0.261-1.574c-0.183-0.194-0.396-0.584-0.263-0.778
	c0.228-0.459,0.974-1.991,1.082-2.493c0.039-0.443,0.127-1.24,0.197-1.486c0.658-2.326,1.778-4.252,8.84-4.252h0.422
	c0.043-0.006,3.103-0.184,5.639,1.451c-1.828,0.055-3.262,0.434-4.293,1.134c-0.055-0.005-0.107-0.007-0.162,0.007
	c-0.547,0.133-2.182,0.337-2.55-0.473c-0.114-0.252-0.41-0.359-0.662-0.248c-0.251,0.115-0.362,0.41-0.248,0.662
	c0.438,0.963,1.493,1.184,2.366,1.184c0.035,0,0.064-0.004,0.1-0.005c-0.389,0.575-0.646,1.254-0.756,2.047
	c-0.038,0.272,0.152,0.524,0.428,0.563c0.021,0.002,0.045,0.004,0.068,0.004c0.245,0,0.46-0.181,0.494-0.432
	c0.513-3.686,4.881-3.507,6.309-3.453c0.053,0.002,0.08,0.002,0.124,0.004c0.293,0.299,0.572,0.625,0.82,1.002
	c0.042,0.055,3.735,5.106,0.71,9.561c-0.032-0.016-0.062-0.035-0.098-0.043c-0.142-0.032-3.445-0.822-3.112-4.594
	c0.024-0.275-0.179-0.519-0.454-0.543c-0.268-0.008-0.52,0.181-0.542,0.455c-0.08,0.901,0.021,1.662,0.229,2.31
	c-0.709-0.034-1.67,0.224-2.504,1.305c-0.168,0.22-0.127,0.532,0.092,0.701c0.092,0.069,0.199,0.104,0.306,0.104
	c0.149,0,0.298-0.067,0.396-0.195c0.961-1.248,1.918-0.893,2.027-0.848c0.066,0.028,0.135,0.039,0.203,0.039
	c0.855,1.328,2.184,1.922,2.8,2.137c-0.073,0.082-0.129,0.164-0.207,0.246C33.232,27.801,30.998,29.777,28.809,29.534z
	 M18.288,24.898c-0.121,0.304-0.601,1.106-1.172,0.571c-0.206-0.192-0.14-0.391-0.015-0.991c0.062-0.293-0.438-0.644-0.656-1.129
	c-0.172-0.384-0.148-0.941,0.32-0.99C17.46,22.287,18.908,23.343,18.288,24.898z"/>
</svg>
