<?xml version="1.0" encoding="utf-8"?>
<!-- Generator: Adobe Illustrator 16.0.4, SVG Export Plug-In . SVG Version: 6.00 Build 0)  -->
<!DOCTYPE svg PUBLIC "-//W3C//DTD SVG 1.1//EN" "http://www.w3.org/Graphics/SVG/1.1/DTD/svg11.dtd">
<svg version="1.1" id="Layer_1" xmlns="http://www.w3.org/2000/svg" xmlns:xlink="http://www.w3.org/1999/xlink" x="0px" y="0px"
	 width="50px" height="50px" viewBox="0 0 50 50" enable-background="new 0 0 50 50" xml:space="preserve">
<g>
	<path d="M37.438,33.322c-0.599-0.379-1.726-0.363-2.654-0.266l-2.235-2.236c0.229-0.189,0.403-0.443,0.478-0.786
		c0,0,0.479-1.106-0.717-2.519c0,0-0.32-1.369,0.072-2.822c0.35-1.286,0.453-3.294-0.184-5.169l2.586-2.585
		c0.929,0.098,2.057,0.115,2.656-0.266c0.152-0.078,0.297-0.18,0.428-0.31c0.451-0.451,0.594-1.093,0.429-1.667
		c-0.078-0.264-0.22-0.515-0.429-0.725c-0.371-0.371-0.868-0.533-1.354-0.487c0.045-0.485-0.119-0.984-0.488-1.354
		c-0.211-0.21-0.461-0.352-0.727-0.429c-0.572-0.165-1.216-0.023-1.666,0.429c-0.13,0.129-0.23,0.273-0.311,0.429
		c-0.379,0.598-0.364,1.725-0.266,2.655l-2.091,2.088c-0.391-0.469-0.856-0.897-1.423-1.263c-1.079-0.694-2.314-1.288-4.963-1.332
		c-1.686-0.027-4.121,0.294-5.945,2.201l-1.693-1.694c0.097-0.93,0.113-2.058-0.269-2.656c-0.077-0.154-0.179-0.299-0.31-0.427
		c-0.45-0.452-1.094-0.594-1.666-0.429c-0.266,0.077-0.516,0.219-0.727,0.429c-0.369,0.37-0.531,0.868-0.486,1.351
		c-0.483-0.044-0.983,0.119-1.354,0.489c-0.208,0.211-0.353,0.461-0.428,0.727c-0.165,0.573-0.022,1.214,0.428,1.667
		c0.13,0.128,0.274,0.231,0.431,0.309c0.598,0.381,1.726,0.365,2.652,0.266l2.038,2.038c-0.179,0.385-0.347,0.792-0.485,1.246
		c0,0-0.738,2.504,0.391,5.976c0,0,0.107,1.015-0.578,1.736c-0.551,0.58-1.087,2.426,0.622,3.135l-1.986,1.986
		c-0.928-0.099-2.056-0.115-2.653,0.267c-0.153,0.077-0.299,0.179-0.429,0.309c-0.45,0.451-0.594,1.095-0.429,1.667
		c0.078,0.264,0.22,0.516,0.429,0.727c0.37,0.369,0.868,0.531,1.353,0.486c-0.045,0.485,0.119,0.984,0.488,1.355
		c0.211,0.208,0.461,0.351,0.728,0.427c0.571,0.166,1.214,0.022,1.666-0.427c0.129-0.129,0.231-0.275,0.309-0.43
		c0.382-0.599,0.364-1.726,0.267-2.653l3.08-3.081c0.211,0.382,0.453,1.146,0.582,2.688c0,0,0.084,1.102,1.041,0.928
		c0,0,0.491-0.029,0.578-2.113c0,0,0.551-0.521,0.521,0.723c0,0-0.146,1.448,0.781,1.361c0,0,0.52,0.318,0.723-1.273
		c0,0,0-1.39,0.493-0.869c0,0,0.144,2.026,0.724,2.229c0,0,0.839,0.261,0.984-0.84c0,0-0.002-1.765,0.462-1.446
		c0,0,0.174,0.116,0.202,1.186c0,0-0.028,1.129,0.695,1.072c0,0,0.752,0,0.955-1.736c0,0-0.127-1.946,0.85-2.271l3.443,3.444
		c-0.099,0.928-0.113,2.057,0.268,2.655c0.076,0.154,0.18,0.3,0.31,0.428c0.451,0.452,1.095,0.594,1.666,0.429
		c0.265-0.077,0.517-0.219,0.726-0.429c0.371-0.37,0.533-0.868,0.488-1.354c0.483,0.045,0.982-0.119,1.354-0.488
		c0.209-0.211,0.351-0.461,0.429-0.725c0.164-0.574,0.022-1.216-0.429-1.668C37.737,33.502,37.594,33.4,37.438,33.322z
		 M20.45,29.066c-0.329-0.065-0.629-0.188-0.897-0.346c-0.864-0.509-1.364-1.421-1.18-2.337c0.245-1.198,1.569-1.938,2.961-1.656
		c0.581,0.119,1.071,0.402,1.438,0.771c0.516,0.519,0.778,1.213,0.638,1.911C23.166,28.609,21.842,29.352,20.45,29.066z
		 M25.44,30.662c-0.102,0.072-0.215,0.116-0.334,0.116c-0.215,0-0.406-0.132-0.533-0.337c-0.127,0.205-0.317,0.337-0.532,0.337
		c-0.12,0-0.235-0.044-0.334-0.116c-0.214-0.159-0.358-0.462-0.358-0.812c0-0.1,0.014-0.195,0.035-0.285
		c0.119-0.717,1.189-1.619,1.189-1.619s1.07,0.902,1.189,1.619c0.022,0.089,0.034,0.186,0.034,0.285
		C25.798,30.2,25.651,30.503,25.44,30.662z M30.05,28.322c-0.365,0.357-0.849,0.63-1.415,0.744
		c-0.468,0.097-0.924,0.067-1.338-0.047c-0.817-0.228-1.46-0.812-1.623-1.608l-0.001-0.017c-0.175-0.896,0.307-1.793,1.146-2.303
		c0.274-0.167,0.59-0.293,0.933-0.363c1.392-0.283,2.715,0.458,2.959,1.656C30.856,27.096,30.582,27.801,30.05,28.322z"/>
</g>
</svg>
