<?xml version="1.0" encoding="utf-8"?>
<!-- Generator: Adobe Illustrator 16.0.4, SVG Export Plug-In . SVG Version: 6.00 Build 0)  -->
<!DOCTYPE svg PUBLIC "-//W3C//DTD SVG 1.1//EN" "http://www.w3.org/Graphics/SVG/1.1/DTD/svg11.dtd">
<svg version="1.1" id="Layer_1" xmlns="http://www.w3.org/2000/svg" xmlns:xlink="http://www.w3.org/1999/xlink" x="0px" y="0px"
	 width="50px" height="50px" viewBox="0 0 50 50" enable-background="new 0 0 50 50" xml:space="preserve">
<g>
	<path d="M23.724,35.948c0,0,0.217,5.012,0.325,5.992l1.744,0.219c0,0,2.724-4.687,1.416-5.886
		C27.209,36.273,23.832,34.423,23.724,35.948z"/>
	<path d="M29.442,36.166c-2.178,0.223-0.271,5.774-0.271,5.774l1.852-0.108C30.914,36.191,30.778,36.028,29.442,36.166z"/>
	<path d="M30.261,32.87c-2.343-2.125-5.584-0.817-5.584-0.817c-2.342,1.062-0.299,2.562-0.299,2.562
		c1.715,1.116,4.217,0.966,5.557,0.545C31.921,34.534,30.261,32.87,30.261,32.87z"/>
	<path d="M22.579,31.099c0,0-0.708,0.327-3.216-2.506c0,0,0.273-1.688-1.143-1.253c0,0-2.125,1.145-0.764,1.961
		c0,0,0.545,0.272,0.98,0.272l2.342,2.344c0,0,0.219,1.743,1.361,1.198C22.142,33.115,24.159,31.535,22.579,31.099z"/>
	<path d="M16.804,26.194l-1.472-1.798c0,0,0.708-1.523-0.817-1.144c0,0-2.016,0.871-1.035,1.579c0,0,0.545,0.219,0.928,0.164
		l1.361,1.688c0,0-0.381,2.017,1.416,0.816C17.185,27.503,18.818,26.194,16.804,26.194z"/>
	<path d="M14.189,22.546c-0.023-0.408-0.649-0.928-0.981-1.31c-1.19-1.363-1.319-0.111-1.198,0.164
		C13.263,24.233,14.222,23.16,14.189,22.546z"/>
	<path d="M32.821,24.396c-0.553-0.014-1.271,0.03-1.199,1.907c0.039,0.993-0.889,3.978-1.58,3.65
		c-0.477-0.226-0.559-1.757,0.928-5.014c0.184-0.402,1.494-1.301-0.546-1.688c-0.558-0.106-1.577-0.691-1.146,1.962
		c0.189,1.157-0.184,3.656-1.252,4.521c0,0-0.926-0.653-0.437-5.121c0,0,1.603-1.678,0.327-2.288
		c-0.51-0.243-1.947-0.852-2.125,0.764c-0.045,0.402,0.109,1.089,0.545,1.524c0,0,0.489,5.774-0.709,5.121
		c0,0-1.633-3.485-1.088-5.666c0,0,0.996-2.017-1.199-2.017c-0.164,0-1.957-0.297-0.489,2.289c0.6,1.057,1.197,3.541,0.979,5.121
		c-0.097,0.704-1.144,1.961,2.289,1.688c0,0,2.562,0.056,3.269,0.327c0,0,2.233,1.09,2.016-0.816c0,0,0.164-2.888,1.636-4.358
		C33.039,26.305,35.056,24.452,32.821,24.396z"/>
	<path d="M35.3,20.066c-1.033-0.546-0.845,0.789-0.845,0.789c-0.026,0.818-0.517,1.607-0.79,1.718
		c-0.146,0.059-0.355,0.191-0.489,0.244c-1.444,0.572,1.062,1.525,1.062,1.525c0.654-0.218,0.212-0.751,0.218-1.008
		c0.007-0.272,0.416-0.704,0.573-0.926c0.701-0.998,0.791-0.854,1.115-1.062C36.987,20.803,35.3,20.066,35.3,20.066z"/>
	<path d="M36.799,16.616c-0.839-0.287-0.54,0.69-0.54,0.69c0.075,0.616-0.199,1.267-0.391,1.379
		c-0.104,0.062-0.244,0.188-0.338,0.242c-1.016,0.599,0.975,1.021,0.975,1.021c0.465-0.241,0.07-0.589,0.045-0.782
		c-0.027-0.204,0.229-0.576,0.32-0.763c0.408-0.829,0.494-0.731,0.713-0.928C38.151,16.969,36.799,16.616,36.799,16.616z"/>
	<path d="M33.063,17.043c0.4-0.362-0.061-0.635-0.127-0.833c-0.071-0.208,0.098-0.658,0.146-0.875
		c0.217-0.97,0.321-0.888,0.492-1.145c0.444-0.667-0.953-0.72-0.953-0.72c-0.882-0.104-0.375,0.854-0.375,0.854
		c0.208,0.63,0.082,1.377-0.079,1.542l-0.277,0.334C31.03,17.069,33.063,17.043,33.063,17.043z"/>
	<path d="M28.144,15.57c0.467-0.473-0.069-0.825-0.146-1.084c-0.083-0.272,0.111-0.859,0.17-1.143
		c0.251-1.264,0.375-1.156,0.573-1.49c0.516-0.871-1.11-0.938-1.11-0.938c-1.027-0.135-0.438,1.112-0.438,1.112
		c0.242,0.82,0.096,1.796-0.094,2.011c-0.102,0.116-0.229,0.33-0.322,0.435C25.774,15.606,28.144,15.57,28.144,15.57z"/>
	<path d="M21.423,11.443c-1.025,0.146-0.124,1.191-0.124,1.191c0.452,0.726,0.572,1.704,0.447,1.961
		c-0.065,0.139-0.134,0.38-0.194,0.506c-0.662,1.358,1.611,0.691,1.611,0.691c0.322-0.58-0.289-0.778-0.434-1.006
		c-0.152-0.24-0.121-0.858-0.142-1.146c-0.095-1.285,0.054-1.214,0.154-1.589C23.008,11.076,21.423,11.443,21.423,11.443z"/>
	<path d="M22.498,10.751c0.52-0.415-0.232-0.726-0.377-0.952c-0.152-0.24-0.092-0.695-0.113-0.982
		c-0.023-0.306-0.271-0.682-0.654-0.545C20.709,8.5,21.372,9.633,21.248,9.89c-0.066,0.139-0.229,0.212-0.275,0.344
		C20.618,11.187,22.154,11.023,22.498,10.751z"/>
	<path d="M28.599,10.396c0.381-0.205,0.066-0.656-0.033-0.906c-0.106-0.266,0.037-0.701,0.065-0.987
		c0.032-0.305-0.146-0.719-0.544-0.654c-0.674,0.108-0.229,1.341-0.396,1.571c-0.092,0.125-0.262,0.168-0.334,0.288
		C26.836,10.581,28.213,10.604,28.599,10.396z"/>
	<path d="M33.72,12.957c0.381-0.205,0.066-0.657-0.033-0.907c-0.106-0.265,0.037-0.701,0.066-0.987
		c0.031-0.305-0.146-0.719-0.545-0.653c-0.674,0.108-0.229,1.342-0.396,1.571c-0.092,0.124-0.263,0.168-0.334,0.288
		C31.957,13.142,33.334,13.165,33.72,12.957z"/>
	<path d="M37.81,14.986c-0.106-0.264,0.037-0.699,0.066-0.985c0.032-0.306-0.146-0.72-0.544-0.654
		c-0.675,0.108-0.229,1.342-0.397,1.571c-0.092,0.125-0.262,0.168-0.332,0.288c-0.521,0.874,0.855,0.896,1.242,0.688
		C38.224,15.689,37.91,15.237,37.81,14.986z"/>
	<path d="M26.228,20.448c-1.03,1.535,2.067,0.838,2.067,0.838c0.491-0.653-0.256-0.911-0.405-1.181
		c-0.16-0.285-0.033-0.997-0.019-1.329c0.063-1.486,0.237-1.397,0.421-1.825c0.475-1.115-1.602-0.727-1.602-0.727
		c-1.32,0.119-0.271,1.172-0.271,1.172c0.367,0.634,0.329,2.215,0.137,2.506C26.45,20.061,26.324,20.306,26.228,20.448z"/>
	<path d="M22.072,16.466c-1.295,0.291-0.115,1.197-0.115,1.197c0.445,0.578,0.616,2.15,0.463,2.465
		c-0.084,0.17-0.177,0.43-0.253,0.583c-0.821,1.659,2.159,0.56,2.159,0.56c0.4-0.712-0.373-0.869-0.559-1.115
		c-0.193-0.262-0.162-0.984-0.19-1.315c-0.134-1.482,0.054-1.417,0.178-1.865C24.08,15.806,22.072,16.466,22.072,16.466z"/>
	<path d="M31.623,22.628c0.418-0.461-0.054-0.883-0.108-1.172c-0.119-0.607,0.119-2.04,0.627-2.397
		c0.444-0.312,0.681-0.708,0.488-1.008c-0.443-0.699-1.395-0.646-1.771-0.326c-0.543,0.463,0.109,1.171,0.109,1.171
		s-0.062,2.31-0.626,2.506c-0.545,0.191-0.595,0.647-0.382,0.872C30.478,22.817,31.274,23.01,31.623,22.628z"/>
</g>
</svg>
