<?xml version="1.0" encoding="utf-8"?>
<!-- Generator: Adobe Illustrator 16.0.4, SVG Export Plug-In . SVG Version: 6.00 Build 0)  -->
<!DOCTYPE svg PUBLIC "-//W3C//DTD SVG 1.1//EN" "http://www.w3.org/Graphics/SVG/1.1/DTD/svg11.dtd">
<svg version="1.1" id="Layer_1" xmlns="http://www.w3.org/2000/svg" xmlns:xlink="http://www.w3.org/1999/xlink" x="0px" y="0px"
	 width="50px" height="50px" viewBox="0 0 50 50" enable-background="new 0 0 50 50" xml:space="preserve">
<g>
	<path d="M22.399,28.729c-0.402-0.608-0.916-1.142-1.349-1.731c-0.303-0.415-0.632-0.841-0.808-1.315
		c-0.562-1.522-0.293-2.938,0.769-4.145c0.516-0.585,1.122-1.087,1.691-1.621c0.801-0.749,1.324-1.625,1.368-2.779
		c0.045-1.228-0.558-2.231-1.658-2.532c-0.56-0.153-1.73-0.237-1.733-0.212c-1.682,0.083-3.299,0.434-4.779,1.285
		c-1.35,0.776-2.318,1.878-2.587,3.488c-0.227,1.354-0.101,2.704,0.376,3.98c0.426,1.142,0.965,2.238,1.469,3.35
		c0.593,1.306,0.984,2.661,1.016,4.111c0.008,0.374,0.022,0.752,0.093,1.116c0.234,1.224,0.805,2.211,1.958,2.748
		c0.695,0.323,1.428,0.258,2.154,0.153c1.363-0.196,2.257-1.005,2.53-2.285C23.182,31.073,23.129,29.836,22.399,28.729z"/>
	<path d="M24.349,12.531c0.506-0.622,0.704-1.354,0.729-2.236c-0.016-0.129-0.028-0.346-0.069-0.559
		c-0.033-0.178-0.086-0.354-0.15-0.523c-0.409-1.089-1.427-1.319-2.245-0.511c-0.816,0.807-1.082,2.569-0.541,3.599
		C22.604,13.312,23.626,13.418,24.349,12.531z"/>
	<path d="M20.459,12.452c0.623-0.62,0.767-1.859,0.302-2.612c-0.413-0.67-1.135-0.708-1.623-0.077
		c-0.317,0.41-0.447,0.89-0.443,1.409c-0.005,0.447,0.1,0.829,0.308,1.136C19.382,12.867,19.984,12.926,20.459,12.452z"/>
	<path d="M17.727,12.862c0.262-0.324,0.341-0.71,0.358-1.115c-0.019-0.417-0.101-0.812-0.375-1.137
		c-0.335-0.396-0.808-0.393-1.143,0c-0.482,0.567-0.49,1.677-0.015,2.254C16.896,13.285,17.387,13.285,17.727,12.862z"/>
	<path d="M15.926,13.608c0.284-0.51,0.116-1.374-0.339-1.736c-0.343-0.273-0.747-0.198-0.938,0.199
		c-0.086,0.183-0.114,0.393-0.169,0.591c0.045,0.455,0.172,0.852,0.521,1.138C15.333,14.072,15.716,13.985,15.926,13.608z"/>
	<path d="M14.423,14.958c0.129-0.201,0.181-0.454,0.272-0.701c-0.09-0.236-0.141-0.47-0.26-0.659
		c-0.197-0.313-0.556-0.311-0.795-0.025c-0.294,0.35-0.315,1.016-0.042,1.387C13.837,15.283,14.207,15.298,14.423,14.958z"/>
	<path d="M29.711,21.74c0.003-0.025-1.146-0.257-1.728-0.257c-1.142-0.003-1.988,0.804-2.271,1.999
		c-0.268,1.124,0.007,2.107,0.578,3.043c0.406,0.667,0.857,1.312,1.198,2.015c0.702,1.444,0.587,2.88-0.361,4.198
		c-0.296,0.411-0.728,0.733-1.129,1.054c-0.573,0.455-1.209,0.83-1.76,1.311c-0.999,0.872-1.378,2.051-1.453,3.346
		c-0.077,1.308,0.568,2.323,1.83,2.876c0.673,0.295,1.361,0.552,2.117,0.426c1.255-0.211,2.069-1.013,2.619-2.127
		c0.164-0.333,0.28-0.694,0.387-1.053c0.416-1.391,1.153-2.593,2.073-3.693c0.78-0.937,1.593-1.851,2.309-2.837
		c0.799-1.104,1.278-2.371,1.421-3.736c0.17-1.624-0.472-2.943-1.563-4.051C32.773,23.035,31.31,22.268,29.711,21.74z"/>
	<path d="M28.928,19.353c0.794-0.848,1.007-2.618,0.435-3.614c-0.572-0.996-1.613-1.045-2.299-0.104
		c-0.106,0.146-0.205,0.302-0.285,0.465c-0.095,0.193-0.165,0.398-0.215,0.52c-0.21,0.856-0.214,1.616,0.108,2.35
		C27.131,20.017,28.144,20.187,28.928,19.353z"/>
	<path d="M31.884,20.176c0.283-0.241,0.484-0.581,0.599-1.014c0.143-0.5,0.146-0.997-0.053-1.478
		c-0.302-0.737-1.008-0.892-1.585-0.356c-0.647,0.603-0.84,1.835-0.404,2.598C30.771,20.51,31.368,20.612,31.884,20.176z"/>
	<path d="M34.098,21.365c0.611-0.43,0.899-1.501,0.585-2.176c-0.219-0.469-0.673-0.597-1.101-0.305
		c-0.353,0.24-0.535,0.599-0.665,0.996c-0.09,0.396-0.116,0.788,0.049,1.17C33.182,21.548,33.652,21.679,34.098,21.365z"/>
	<path d="M34.502,22.25c0.103,0.418,0.449,0.604,0.842,0.431c0.412-0.183,0.641-0.531,0.804-0.958c0-0.206,0.03-0.416-0.006-0.615
		c-0.077-0.435-0.446-0.613-0.851-0.441C34.756,20.894,34.363,21.682,34.502,22.25z"/>
	<path d="M36.715,22.822c-0.154-0.338-0.5-0.438-0.772-0.188c-0.165,0.151-0.276,0.362-0.426,0.566
		c0.021,0.263,0.006,0.52,0.075,0.748c0.118,0.385,0.479,0.469,0.795,0.221C36.748,23.884,36.904,23.237,36.715,22.822z"/>
</g>
</svg>
