<?xml version="1.0" encoding="utf-8"?>
<!-- Generator: Adobe Illustrator 16.0.4, SVG Export Plug-In . SVG Version: 6.00 Build 0)  -->
<!DOCTYPE svg PUBLIC "-//W3C//DTD SVG 1.1//EN" "http://www.w3.org/Graphics/SVG/1.1/DTD/svg11.dtd">
<svg version="1.1" id="Layer_1" xmlns="http://www.w3.org/2000/svg" xmlns:xlink="http://www.w3.org/1999/xlink" x="0px" y="0px"
	 width="50px" height="50px" viewBox="0 0 50 50" enable-background="new 0 0 50 50" xml:space="preserve">
<g>
	<path d="M30.519,25.079c-0.174-0.22-0.399-0.513-0.464-0.687c-0.108-0.295-0.187-1.242-0.187-1.242
		c-0.033-1.118-0.31-1.604-0.31-1.604c-0.473-0.757-0.562-2.169-0.562-2.169l-0.022-2.384c-0.165-1.627-1.365-1.64-1.365-1.64
		c-1.211-0.181-1.38-0.57-1.38-0.57h-0.012c-0.123-0.195-0.825-1.361-0.475-1.883c0,0,0.48-0.655,0.488-1.012
		c0,0,0.119-0.603-0.504-1.275c-0.3-0.323-0.695-0.622-1.656-0.613c-0.376,0.003-0.948,0.102-1.386,0.581
		c-0.266,0.289-0.458,0.651-0.392,1.239c0.014,0.128,0.199,0.271,0.075,0.521l-0.257,0.569c0,0-0.002,0.147,0.225,0.147
		c0,0,0.058,0.006,0.043,0.133v0.183c0,0,0.008,0.056,0.108,0.086l-0.008,0.056c0,0-0.052,0.061,0.041,0.186
		c0.035,0.046,0.089,0.103,0.058,0.222c0,0-0.038,0.229,0.053,0.284c0,0,0.104,0.12,0.516,0.062c0.144-0.021,0.41-0.095,0.572,0.103
		c0,0,0.028,0.239,0.056,0.412H23.77c0,0-0.169,0.391-1.38,0.571c0,0-1.2,0.012-1.365,1.639l-0.021,2.384
		c0,0-0.088,1.412-0.562,2.169c0,0-0.275,0.486-0.308,1.605c0,0-0.08,0.947-0.187,1.242c-0.064,0.174-0.29,0.467-0.464,0.686
		c-0.344,0.429-0.925,1.326-0.615,1.425c0,0,0.241,0.023,0.561-0.607c0,0-0.006,0.242-0.263,0.947
		c-0.049,0.133-0.263,0.803,0.083,0.562c0,0,0.159-0.11,0.369-0.799c0,0-0.112,1.16,0.011,1.221c0.163,0.078,0.252-0.15,0.325-1.167
		c0,0,0.075-0.327,0.11,0.926c0.001,0.063,0.098,0.386,0.229,0.111c0.111-0.229,0.062-0.843,0.062-1.048
		c0,0,0.143,0.793,0.275,0.793c0,0,0.157,0.185,0.094-0.799c-0.011-0.16,0.044-0.489,0.052-0.586l0.015-0.377
		c0,0-0.04-0.433-0.04-0.611c0-0.045,0.155-0.633,0.562-1.254c0,0,0.847-1.504,0.792-2.485c0,0-0.012-0.938,0.329-1.468
		c0,0,0.243,2.654,0.078,3.4c0,0-0.762,1.829-0.594,3.196c0.124,1.015,0.363,3.188,0.606,4.044c0.125,0.443,0.05,1.562,0.153,1.842
		c0.044,0.12,0.022,0.231-0.077,0.508c-0.343,0.963-0.299,1.64,0.562,4.191c0,0,0.265,0.564,0.131,1.582c0,0-0.55,1.13-0.197,1.152
		c0,0,0.029,0.074,0.146,0.016c0,0,0.19,0.195,0.396,0.089c0,0,0.19,0.151,0.353,0.017c0,0,0.131,0.149,0.322,0.029
		c0,0,0.25,0.166,0.397-0.015c0,0,0.264,0.062-0.206-1.129c0,0-0.179-1.261-0.278-1.507c-0.188-0.473-0.056-1.756-0.015-2.034
		c0.066-0.458,0.031-1.245-0.088-1.853c-0.085-0.437,0.149-1.259,0.235-1.764c0.18-1.064,0.528-3.779,0.484-4.293l0.145,0.05
		c0.105,0,0.171-0.05,0.171-0.05c-0.043,0.514,0.304,3.229,0.484,4.293c0.085,0.505,0.32,1.327,0.235,1.764
		c-0.119,0.606-0.155,1.395-0.088,1.853c0.042,0.278,0.174,1.562-0.016,2.034c-0.099,0.246-0.278,1.507-0.278,1.507
		c-0.47,1.188-0.206,1.129-0.206,1.129c0.147,0.181,0.396,0.015,0.396,0.015c0.19,0.12,0.322-0.029,0.322-0.029
		c0.162,0.136,0.353-0.017,0.353-0.017c0.206,0.106,0.396-0.089,0.396-0.089c0.118,0.061,0.146-0.016,0.146-0.016
		c0.353-0.022-0.196-1.152-0.196-1.152c-0.134-1.018,0.132-1.582,0.132-1.582c0.86-2.553,0.904-3.229,0.561-4.191
		c-0.099-0.275-0.122-0.388-0.077-0.508c0.104-0.279,0.028-1.397,0.154-1.842c0.243-0.855,0.482-3.029,0.606-4.044
		c0.167-1.367-0.596-3.196-0.596-3.196c-0.165-0.746,0.078-3.4,0.078-3.4c0.341,0.529,0.33,1.468,0.33,1.468
		c-0.055,0.981,0.792,2.485,0.792,2.485c0.407,0.621,0.562,1.209,0.562,1.254c0,0.179-0.039,0.611-0.039,0.611l0.015,0.377
		c0.007,0.097,0.062,0.426,0.052,0.586c-0.063,0.982,0.094,0.799,0.094,0.799c0.133,0,0.275-0.793,0.275-0.793
		c0,0.205-0.049,0.817,0.062,1.048c0.132,0.272,0.228-0.048,0.229-0.111c0.035-1.253,0.11-0.926,0.11-0.926
		c0.073,1.017,0.163,1.245,0.325,1.167c0.123-0.061,0.011-1.221,0.011-1.221c0.209,0.688,0.368,0.799,0.368,0.799
		c0.345,0.24,0.132-0.43,0.083-0.562c-0.256-0.705-0.264-0.947-0.264-0.947c0.319,0.633,0.562,0.607,0.562,0.607
		C31.443,26.404,30.861,25.508,30.519,25.079z M23.487,13.951c-0.119,0.129-0.396,0.204-0.656,0.158
		c-0.051-0.008-0.134-0.109-0.063-0.311l-0.058-0.191l-0.023-0.108l0.122,0.015c0.226,0.051,0.735-0.065,0.887-0.242l-0.025-0.228
		c-0.222-0.116-0.606,0.244-1.005,0.138c0,0-0.138-0.02-0.039-0.154l0.062-0.094l-0.038-0.041l0.031-0.057l0.098-0.161l-0.241-0.278
		c0,0-0.086-0.056,0.015-0.121l0.104-0.121l-0.042-0.162l-0.076-0.203l0.131-0.379l0.011-0.251c0.079-0.416,0.264-0.767,1.489-0.874
		c0,0,0.872-0.146,1.356,0.441c0,0,0.847,0.903,0.134,1.772c0,0-0.368,0.383-0.768,0.369l-0.112-0.107c0,0-0.169-0.247-0.25-0.098
		c0,0-0.142,0.219-0.083,0.521c0,0,0.059,0.363-0.103,0.438C24.349,13.621,23.583,13.853,23.487,13.951z"/>
	<path d="M22.871,11.915l-0.037,0.16l0.122,0.166c-0.011,0.097-0.019,0.128,0.018,0.155c0.099,0.073,0.164-0.06,0.179-0.108
		C23.229,12.035,22.98,11.894,22.871,11.915z"/>
</g>
</svg>
