<?xml version="1.0" encoding="utf-8"?>
<!-- Generator: Adobe Illustrator 16.0.4, SVG Export Plug-In . SVG Version: 6.00 Build 0)  -->
<!DOCTYPE svg PUBLIC "-//W3C//DTD SVG 1.1//EN" "http://www.w3.org/Graphics/SVG/1.1/DTD/svg11.dtd">
<svg version="1.1" id="Layer_1" xmlns="http://www.w3.org/2000/svg" xmlns:xlink="http://www.w3.org/1999/xlink" x="0px" y="0px"
	 width="50px" height="50px" viewBox="0 0 50 50" enable-background="new 0 0 50 50" xml:space="preserve">
<path d="M34.493,18.546c-1.323-1.136-2.748-1.385-3.6-1.418c0.324-2.852-2.082-4.816-2.192-4.905
	c-0.194-0.156-0.47-0.164-0.673-0.022c-0.203,0.143-0.289,0.403-0.211,0.639c0.547,1.638-0.626,3.004-1.101,3.472
	c-1.345-0.231-6.96-0.969-10.757,2.106c-2.294,1.859-3.459,4.739-3.46,8.561c-0.001,2.433-0.003,6.961,2.822,10.698
	c0.108,0.144,0.275,0.224,0.447,0.224c0.077,0,0.155-0.016,0.229-0.049c0.238-0.105,0.372-0.361,0.323-0.619
	c-0.012-0.062-1.14-6.188,1.728-8.318c0.461,0.438,0.97,0.753,1.532,0.952c2.405,0.849,5.125-0.716,7.522-2.097l0.462-0.266
	c1.246-0.713,2.677-1.352,3.831-0.697c1.188,0.674,2.63,3.034,2.772,10.455c0.005,0.262,0.188,0.485,0.445,0.539
	c0.251,0.051,0.515-0.076,0.625-0.312c0.091-0.194,2.236-4.854,2.261-9.734C37.52,23.376,36.507,20.279,34.493,18.546z
	 M35.169,34.506c-0.354-4.804-1.414-7.65-3.218-8.676c-1.867-1.062-3.944,0.127-4.943,0.697l-0.465,0.269
	c-2.189,1.259-4.669,2.69-6.589,2.011c-1.099-0.387-1.963-1.431-2.645-3.188c-0.112-0.29-0.438-0.432-0.726-0.32
	c-0.29,0.112-0.433,0.438-0.32,0.727c0.308,0.798,0.659,1.475,1.053,2.035c-2.056,1.582-2.399,4.647-2.346,6.847
	c-1.35-2.944-1.349-6.076-1.348-7.929c0.001-3.461,1.024-6.047,3.04-7.683c2.105-1.708,4.934-2.094,7.063-2.094
	c1.743,0,3.019,0.259,3.045,0.264c0.167,0.033,0.341-0.008,0.474-0.116c0.08-0.066,1.521-1.275,1.795-3.057
	c0.528,0.802,0.989,1.951,0.628,3.272c-0.049,0.184-0.003,0.378,0.123,0.521c0.126,0.142,0.316,0.213,0.503,0.182
	c0.077-0.012,1.868-0.254,3.481,1.146c1.743,1.511,2.617,4.315,2.599,8.333C36.364,30.247,35.742,32.738,35.169,34.506z"/>
</svg>
