<?xml version="1.0" encoding="utf-8"?>
<!-- Generator: Adobe Illustrator 16.0.4, SVG Export Plug-In . SVG Version: 6.00 Build 0)  -->
<!DOCTYPE svg PUBLIC "-//W3C//DTD SVG 1.1//EN" "http://www.w3.org/Graphics/SVG/1.1/DTD/svg11.dtd">
<svg version="1.1" id="Layer_1" xmlns="http://www.w3.org/2000/svg" xmlns:xlink="http://www.w3.org/1999/xlink" x="0px" y="0px"
	 width="50px" height="50px" viewBox="0 0 50 50" enable-background="new 0 0 50 50" xml:space="preserve">
<path d="M27.822,18.943c-0.191-0.041-0.396-0.004-0.564,0.101c-0.166,0.108-0.283,0.277-0.326,0.473
	c-0.107,0.501-0.52,2.491-0.832,4.924h-0.354V14.439c0-0.413-0.334-0.747-0.746-0.747c-0.414,0-0.746,0.334-0.746,0.747v10.002
	h-0.354c-0.312-2.434-0.724-4.423-0.831-4.924c-0.043-0.196-0.16-0.365-0.326-0.473c-0.166-0.106-0.37-0.143-0.565-0.101
	c-5.606,1.228-9.678,6.288-9.678,12.031c0,1.404,0.248,2.812,0.74,4.18c0.088,0.244,0.295,0.424,0.546,0.479
	c0.128,0.027,3.178,0.675,5.715,0.675c0.003,0,0.003,0,0.003,0c1.671,0,2.772-0.288,3.361-0.878
	c1.584-1.582,1.578-5.787,1.205-9.495h1.859c-0.373,3.708-0.379,7.914,1.205,9.495c0.588,0.59,1.689,0.878,3.363,0.878
	c2.537,0,5.588-0.647,5.715-0.675c0.254-0.055,0.461-0.236,0.549-0.479c0.49-1.369,0.738-2.775,0.738-4.18
	C37.5,25.231,33.43,20.17,27.822,18.943z M21.811,34.375c-0.103,0.103-0.574,0.439-2.307,0.439c0,0,0,0-0.003,0
	c-1.852,0-4.085-0.386-4.989-0.561c-0.344-1.08-0.519-2.18-0.519-3.279c0-4.792,3.225-9.045,7.772-10.385
	C22.708,25.35,23.472,32.713,21.811,34.375z M35.492,34.254c-0.908,0.174-3.139,0.561-4.992,0.561c-1.734,0-2.207-0.337-2.311-0.439
	c-1.658-1.66-0.896-9.023,0.045-13.786c4.549,1.34,7.771,5.592,7.771,10.385C36.008,32.072,35.836,33.172,35.492,34.254z"/>
</svg>
