<?xml version="1.0" encoding="utf-8"?>
<!-- Generator: Adobe Illustrator 16.0.4, SVG Export Plug-In . SVG Version: 6.00 Build 0)  -->
<!DOCTYPE svg PUBLIC "-//W3C//DTD SVG 1.1//EN" "http://www.w3.org/Graphics/SVG/1.1/DTD/svg11.dtd">
<svg version="1.1" id="Layer_1" xmlns="http://www.w3.org/2000/svg" xmlns:xlink="http://www.w3.org/1999/xlink" x="0px" y="0px"
	 width="50px" height="50px" viewBox="0 0 50 50" enable-background="new 0 0 50 50" xml:space="preserve">
<g>
	<path d="M35.104,15.638c-3.031-4.613-9.312-4.187-9.312-4.187c-8.757-0.085-10.308,2.327-11.148,5.297
		c-0.125,0.439-0.245,1.814-0.245,1.814c-0.107,0.472-1.186,2.659-1.186,2.659c-0.46,0.619,0.395,1.538,0.395,1.538
		c0.428,0.555,0.182,1.217,0.182,1.217c-0.384,0.523-0.822,0.802-0.822,0.802c-0.758,0.405-0.182,0.864-0.182,0.864
		s1.293,1.57,1.517,2.2c0.235,0.662-0.801,1.1-0.801,1.1c-0.523,0.192-0.363,0.346-0.257,0.396c0.338,0.159,0.235,0.32,0.235,0.32
		l-0.502,0.63c-0.79,0.918,0.171,1.152,0.171,1.152c2.758,1.067,5.722-1.286,7.219-0.276c0.346,0.231,0.318,1.373,0.021,1.665
		c-1.193,1.175-4.888,1.657-6.447,1.132c-0.365-0.123-0.639-0.218-0.857-0.191c-0.523,0.062,0.086,0.812,0.086,0.812
		c0.576,0.598,0.277,1.431,0.277,1.431c-0.641,1.409-0.116,2.208,0.235,2.307c1.815,0.514,3.825,0.16,4.763-0.684
		c0.73-0.658,6.321-1.794,6.321-1.794c1.196-0.427,1.025-3.118,1.025-3.118c-0.213-2.222,0.938-3.716,0.938-3.716
		c0.685-1.025,1.709,0.896,1.709,0.896c0.214,0.598,0.728,0.854,0.728,0.854c2.817,0.384,5.681-2.136,5.681-2.136
		C40.487,22.813,35.104,15.638,35.104,15.638z M17.192,25.299c-0.139,0.348-0.689,1.271-1.346,0.656
		c-0.236-0.223-0.16-0.448-0.016-1.139c0.07-0.337-0.503-0.738-0.753-1.297c-0.198-0.439-0.172-1.081,0.368-1.138
		C16.243,22.3,17.904,23.512,17.192,25.299z"/>
	<path d="M19.122,31.265c-0.187,0.046-0.396,0.115-0.63,0.2v0.92c0.207-0.07,0.417-0.15,0.63-0.238V31.265z"/>
	<path d="M18.234,31.559c-0.212,0.079-0.443,0.167-0.693,0.261v0.84c0.227-0.054,0.457-0.115,0.693-0.189V31.559z"/>
	<path d="M17.285,31.915c-0.094,0.035-0.188,0.068-0.288,0.104c-0.116,0.042-0.242,0.078-0.374,0.111v0.697
		c0.215-0.028,0.436-0.065,0.662-0.112V31.915z"/>
	<path d="M13.611,32.054c-0.184-0.052-0.365-0.113-0.545-0.185c-0.208-0.084-0.284,0.26-0.273,0.633
		c0.178,0.062,0.456,0.146,0.818,0.225V32.054z"/>
	<path d="M19.352,31.218h0.025v0.817c0.283-0.126,0.57-0.268,0.861-0.429l-0.06-0.102C19.997,31.229,19.729,31.161,19.352,31.218z"
		/>
	<path d="M16.367,32.186c-0.209,0.039-0.431,0.067-0.662,0.083v0.637c0.212-0.008,0.434-0.022,0.662-0.048V32.186z"/>
	<path d="M14.529,32.236c-0.22-0.026-0.441-0.063-0.662-0.115v0.654c0.201,0.036,0.422,0.068,0.662,0.093V32.236z"/>
	<path d="M15.448,32.282c-0.215,0.005-0.437-0.002-0.661-0.021v0.627c0.208,0.015,0.43,0.021,0.661,0.021V32.282z"/>
	<path d="M14.787,33.723c0.219,0.028,0.437,0.053,0.661,0.068v-0.626l-0.04,0.001c-0.218,0-0.424-0.008-0.621-0.021V33.723z"/>
	<path d="M16.623,33.765c0.206-0.021,0.425-0.057,0.662-0.104v-0.686c-0.226,0.046-0.447,0.081-0.662,0.109V33.765z"/>
	<path d="M17.542,33.605c0.216-0.049,0.445-0.107,0.693-0.18v-0.688c-0.236,0.071-0.467,0.134-0.693,0.186V33.605z"/>
	<path d="M18.492,33.349c0.198-0.062,0.408-0.131,0.63-0.208v-0.717c-0.213,0.086-0.423,0.163-0.63,0.231V33.349z"/>
	<path d="M19.376,33.05l0.076-0.027c0.336-0.123,1.012-0.548,0.876-1.172c-0.322,0.177-0.64,0.331-0.952,0.466V33.05L19.376,33.05z"
		/>
	<path d="M15.705,33.804c0.208,0.006,0.427,0.003,0.662-0.015v-0.673c-0.229,0.021-0.449,0.037-0.662,0.044V33.804z"/>
	<path d="M13.611,33.572v-0.585c-0.333-0.067-0.602-0.145-0.796-0.207c0.028,0.202,0.079,0.386,0.145,0.478
		C13.095,33.448,13.3,33.521,13.611,33.572z"/>
	<path d="M13.868,33.607c0.137,0.018,0.289,0.033,0.459,0.057l0.203,0.025v-0.564c-0.238-0.022-0.46-0.055-0.662-0.089V33.607z"/>
</g>
</svg>
