<?xml version="1.0" encoding="utf-8"?>
<!-- Generator: Adobe Illustrator 16.0.4, SVG Export Plug-In . SVG Version: 6.00 Build 0)  -->
<!DOCTYPE svg PUBLIC "-//W3C//DTD SVG 1.1//EN" "http://www.w3.org/Graphics/SVG/1.1/DTD/svg11.dtd">
<svg version="1.1" id="Layer_1" xmlns="http://www.w3.org/2000/svg" xmlns:xlink="http://www.w3.org/1999/xlink" x="0px" y="0px"
	 width="50px" height="50px" viewBox="0 0 50 50" enable-background="new 0 0 50 50" xml:space="preserve">
<g>
	<path d="M23.372,17.553l-0.013,0.013c-0.113,0.062-0.175,0.138-0.175,0.205c0,0.186,0.456,0.393,1.067,0.393
		c0.185,0,0.364-0.02,0.523-0.055v-0.405c-0.15,0.03-0.314,0.048-0.483,0.048C23.91,17.75,23.584,17.675,23.372,17.553z"/>
	<path d="M23.45,17.022c-0.102,0.061-0.164,0.127-0.164,0.189c0,0.175,0.43,0.369,1.004,0.369c0.17,0,0.335-0.018,0.483-0.05v-0.356
		c-0.135,0.023-0.281,0.037-0.43,0.037C24.009,17.213,23.662,17.147,23.45,17.022z"/>
	<path d="M24.102,15.987c-0.174,0.059-0.287,0.152-0.287,0.242c0,0.144,0.281,0.303,0.687,0.303c0.095,0,0.187-0.01,0.272-0.027
		v-0.281l-0.106,0.01C24.402,16.231,24.184,16.131,24.102,15.987z"/>
	<path d="M23.815,16.51c-0.271,0.066-0.396,0.169-0.396,0.237l0.063,0.097l0.034,0.022c0.142,0.094,0.434,0.18,0.828,0.18
		c0.151,0,0.298-0.014,0.43-0.039v-0.331c-0.086,0.017-0.179,0.023-0.272,0.023C24.215,16.699,23.969,16.625,23.815,16.51z"/>
	<path d="M23.737,19.46c-0.392-0.008-0.722-0.236-0.881-0.566c-0.003,0.109,0.015,0.222,0.053,0.327
		c0.078,0.21,0.227,0.373,0.42,0.462c0.179,0.08,0.379,0.086,0.562,0.017c0.209-0.079,0.333-0.261,0.419-0.433
		c-0.15,0.105-0.334,0.193-0.556,0.193H23.737z"/>
	<path d="M23.632,19.915c-0.126,0-0.252-0.027-0.372-0.081c-0.156-0.071-0.285-0.187-0.384-0.327l0.029,0.104
		c0.072,0.218,0.218,0.389,0.4,0.471c0.152,0.068,0.32,0.07,0.473,0.007c0.113-0.049,0.197-0.135,0.264-0.231l0.005-0.016
		l0.013-0.038l-0.108,0.054C23.848,19.896,23.74,19.915,23.632,19.915z"/>
	<path d="M23.549,20.301c-0.106,0-0.212-0.022-0.313-0.067c-0.103-0.047-0.195-0.116-0.275-0.203
		c0.071,0.21,0.197,0.367,0.352,0.436c0.117,0.053,0.238,0.049,0.353-0.009c0.1-0.049,0.173-0.142,0.232-0.245l-0.055,0.029
		C23.748,20.28,23.648,20.301,23.549,20.301z"/>
	<path d="M23.064,17.931l-0.003,0.033c0,0.469,0.512,0.85,1.141,0.85c0.202,0,0.4-0.041,0.572-0.115v-0.42
		c-0.163,0.033-0.341,0.053-0.523,0.053C23.669,18.33,23.208,18.166,23.064,17.931z"/>
	<path d="M26.113,16.372l0.033-0.027l0.06-0.115c0-0.092-0.114-0.184-0.288-0.242c-0.081,0.145-0.299,0.246-0.566,0.246l-0.106-0.01
		v0.281c0.086,0.018,0.178,0.027,0.272,0.027C25.788,16.532,26,16.461,26.113,16.372z"/>
	<path d="M22.945,18.244l-0.024,0.2c0,0.467,0.36,0.839,0.82,0.85h0.014c0.28,0,0.496-0.177,0.653-0.326l-0.206,0.014
		C23.606,18.979,23.103,18.668,22.945,18.244z"/>
	<path d="M26.76,19.834c-0.12,0.054-0.245,0.081-0.372,0.081c-0.108,0-0.216-0.021-0.32-0.061l-0.107-0.053l0.012,0.037l0.005,0.016
		c0.067,0.099,0.151,0.185,0.265,0.231c0.152,0.063,0.32,0.062,0.472-0.007c0.182-0.082,0.327-0.253,0.4-0.471l0.026-0.101
		C27.044,19.649,26.915,19.763,26.76,19.834z"/>
	<path d="M26.283,19.46h-0.019c-0.222,0-0.406-0.088-0.557-0.193c0.085,0.172,0.211,0.354,0.419,0.433
		c0.184,0.069,0.383,0.063,0.562-0.017c0.193-0.089,0.342-0.252,0.419-0.462c0.04-0.104,0.057-0.218,0.055-0.327
		C27.004,19.226,26.673,19.452,26.283,19.46z"/>
	<path d="M26.471,20.301c-0.099,0-0.199-0.021-0.294-0.061l-0.055-0.029c0.058,0.104,0.132,0.196,0.23,0.245
		c0.114,0.059,0.236,0.062,0.354,0.009c0.155-0.067,0.281-0.226,0.352-0.437c-0.08,0.088-0.172,0.158-0.274,0.203
		C26.683,20.278,26.577,20.301,26.471,20.301z"/>
	<path d="M30.599,24.862c-0.177-0.221-0.406-0.52-0.471-0.694c-0.109-0.3-0.189-1.261-0.189-1.261
		c-0.034-1.137-0.312-1.629-0.312-1.629c-0.481-0.769-0.57-2.199-0.57-2.199l-0.021-2.419c-0.167-1.65-1.386-1.662-1.386-1.662
		c-1.229-0.185-1.399-0.58-1.399-0.58c-0.26-0.374-0.112-1.093-0.112-1.093c0.216-0.176,0.299-0.643,0.299-0.643
		c0.358-0.273,0.341-0.677,0.177-0.673c-0.134,0.003-0.104-0.106-0.104-0.106c0.224-1.812-1.385-1.902-1.385-1.902h-0.246
		c0,0-1.609,0.092-1.385,1.902c0,0,0.03,0.109-0.104,0.106c-0.165-0.004-0.181,0.398,0.177,0.673c0,0,0.083,0.467,0.299,0.643
		c0,0,0.148,0.719-0.112,1.093c0,0-0.171,0.396-1.4,0.58c0,0-1.218,0.012-1.385,1.662l-0.022,2.419c0,0-0.089,1.432-0.57,2.199
		c0,0-0.279,0.492-0.312,1.629c0,0-0.081,0.961-0.19,1.261c-0.065,0.176-0.293,0.474-0.471,0.694
		c-0.349,0.438-0.938,1.347-0.625,1.447c0,0,0.245,0.024,0.568-0.617c0,0-0.006,0.246-0.267,0.963
		c-0.049,0.135-0.266,0.813,0.084,0.568c0,0,0.162-0.111,0.374-0.811c0,0-0.114,1.177,0.011,1.236
		c0.165,0.08,0.255-0.151,0.33-1.183c0,0,0.076-0.333,0.111,0.938c0.002,0.064,0.1,0.391,0.233,0.113
		c0.112-0.233,0.062-0.854,0.062-1.062c0,0,0.145,0.803,0.28,0.803c0,0,0.159,0.188,0.095-0.809
		c-0.011-0.163,0.044-0.498,0.052-0.597l0.015-0.383c0,0-0.04-0.438-0.04-0.619c0-0.045,0.157-0.643,0.571-1.272
		c0,0,0.859-1.524,0.804-2.521c0,0-0.012-0.951,0.334-1.49c0,0,0.246,2.693,0.079,3.449c0,0-0.773,1.857-0.603,3.243
		c0.126,1.03,0.369,3.234,0.615,4.104c0.127,0.449,0.051,1.585,0.156,1.867c0.045,0.123,0.022,0.235-0.078,0.517
		c-0.348,0.976-0.304,1.662,0.569,4.252c0,0,0.268,0.573,0.133,1.604c0,0-0.558,1.146-0.2,1.17c0,0,0.03,0.076,0.149,0.015
		c0,0,0.192,0.198,0.401,0.092c0,0,0.193,0.152,0.358,0.017c0,0,0.134,0.15,0.327,0.029c0,0,0.253,0.168,0.403-0.016
		c0,0,0.268,0.062-0.209-1.146c0,0-0.183-1.277-0.283-1.527c-0.191-0.479-0.056-1.781-0.015-2.062
		c0.067-0.466,0.032-1.264-0.089-1.88c-0.087-0.442,0.151-1.276,0.238-1.788c0.183-1.08,0.536-3.836,0.492-4.355l0.146,0.051
		c0.106,0,0.174-0.051,0.174-0.051c-0.044,0.521,0.308,3.275,0.491,4.355c0.086,0.512,0.325,1.346,0.238,1.788
		c-0.121,0.616-0.157,1.414-0.089,1.88c0.042,0.281,0.177,1.584-0.015,2.062c-0.101,0.25-0.283,1.527-0.283,1.527
		c-0.477,1.207-0.209,1.146-0.209,1.146c0.149,0.184,0.402,0.016,0.402,0.016c0.193,0.121,0.327-0.029,0.327-0.029
		c0.165,0.137,0.358-0.017,0.358-0.017c0.209,0.106,0.401-0.092,0.401-0.092c0.119,0.062,0.148-0.015,0.148-0.015
		c0.357-0.023-0.2-1.17-0.2-1.17c-0.134-1.031,0.135-1.604,0.135-1.604c0.873-2.59,0.917-3.276,0.568-4.252
		c-0.1-0.28-0.123-0.394-0.078-0.517c0.104-0.282,0.028-1.418,0.155-1.867c0.247-0.869,0.489-3.073,0.615-4.104
		c0.169-1.386-0.604-3.243-0.604-3.243c-0.167-0.756,0.079-3.449,0.079-3.449c0.346,0.539,0.334,1.49,0.334,1.49
		c-0.056,0.996,0.805,2.521,0.805,2.521c0.413,0.631,0.57,1.228,0.57,1.272c0,0.182-0.04,0.619-0.04,0.619l0.016,0.383
		c0.007,0.099,0.062,0.434,0.052,0.597c-0.064,0.996,0.095,0.809,0.095,0.809c0.135,0,0.28-0.803,0.28-0.803
		c0,0.207-0.05,0.828,0.062,1.062c0.135,0.276,0.231-0.049,0.233-0.113c0.035-1.271,0.111-0.938,0.111-0.938
		c0.074,1.03,0.165,1.263,0.33,1.183c0.125-0.061,0.011-1.236,0.011-1.236c0.212,0.697,0.374,0.811,0.374,0.811
		c0.35,0.245,0.133-0.435,0.084-0.568c-0.261-0.717-0.268-0.963-0.268-0.963c0.324,0.643,0.568,0.617,0.568,0.617
		C31.538,26.209,30.946,25.3,30.599,24.862z M27.305,19.548c0.01,0.124-0.015,0.286-0.07,0.48c-0.08,0.281-0.248,0.496-0.46,0.59
		l-0.234,0.05l-0.261-0.062c-0.264-0.131-0.382-0.459-0.452-0.678c-0.092-0.14-0.151-0.291-0.193-0.402l-0.045-0.111l-0.007-0.033
		l-0.111-0.238l-0.05-0.111l-0.007-0.025l-0.087-0.084l-0.021-0.025l-0.06-0.021v0.012c0,0.131-0.106,0.236-0.235,0.236
		c-0.131,0-0.236-0.105-0.236-0.236v-0.012l-0.06,0.021l-0.02,0.025l-0.087,0.084l-0.007,0.025l-0.049,0.111l-0.112,0.238
		l-0.007,0.033l-0.044,0.111c-0.043,0.111-0.102,0.264-0.193,0.402c-0.071,0.219-0.189,0.547-0.453,0.678l-0.26,0.062l-0.235-0.049
		c-0.213-0.095-0.38-0.31-0.461-0.591c-0.034-0.121-0.051-0.248-0.05-0.377l0.003-0.018c-0.069-0.219-0.084-0.417-0.044-0.588
		l0.004-0.011c-0.021-0.168-0.002-0.339,0.061-0.498l-0.005-0.095c0-0.182,0.046-0.358,0.135-0.515l0.008-0.009l0.039-0.216
		c0.044-0.129,0.119-0.247,0.222-0.353l-0.038-0.141c0-0.082,0.038-0.195,0.194-0.303l-0.062-0.163c0-0.158,0.158-0.292,0.438-0.376
		l-0.042-0.143c0-0.175,0.159-0.324,0.426-0.406c0.034-0.188,0.281-0.326,0.595-0.326l0.083,0.083l-0.083,0.083
		c-0.249,0-0.435,0.105-0.435,0.201s0.186,0.201,0.435,0.201l0.122-0.012c0.033-0.09,0.119-0.154,0.221-0.154
		c0.101,0,0.188,0.064,0.221,0.154l0.121,0.012c0.24,0,0.418-0.099,0.433-0.19V15.86l0.001-0.002
		c-0.003-0.094-0.188-0.199-0.434-0.199l-0.083-0.083l0.083-0.083c0.314,0,0.562,0.14,0.596,0.326
		c0.263,0.082,0.424,0.233,0.424,0.406l-0.041,0.143c0.278,0.083,0.438,0.218,0.438,0.376l-0.062,0.163
		c0.158,0.107,0.193,0.223,0.193,0.303l-0.038,0.139c0.159,0.164,0.25,0.361,0.262,0.568c0.091,0.157,0.142,0.338,0.142,0.523
		l-0.005,0.096l0.002,0.004c0.069,0.179,0.085,0.372,0.051,0.561l0,0c0.026,0.147,0.021,0.297-0.01,0.442L27.305,19.548z"/>
	<path d="M26.959,17.974l-0.017-0.022c-0.158,0.226-0.609,0.38-1.173,0.38c-0.183,0-0.36-0.02-0.523-0.053v0.42
		c0.173,0.074,0.371,0.115,0.572,0.115C26.442,18.813,26.951,18.437,26.959,17.974z"/>
	<path d="M26.837,17.771c0-0.07-0.071-0.148-0.193-0.215c-0.211,0.12-0.537,0.194-0.915,0.194c-0.168,0-0.333-0.019-0.482-0.048
		v0.404c0.16,0.035,0.34,0.056,0.523,0.056C26.38,18.162,26.837,17.955,26.837,17.771z"/>
	<path d="M26.687,17.313l0.005-0.008l0.003-0.003l0.038-0.091c0-0.062-0.058-0.13-0.163-0.189c-0.21,0.125-0.559,0.189-0.895,0.189
		c-0.149,0-0.295-0.014-0.43-0.037v0.355c0.148,0.033,0.312,0.051,0.482,0.051C26.192,17.582,26.562,17.455,26.687,17.313z"/>
	<path d="M26.601,16.747c0-0.07-0.137-0.173-0.396-0.237c-0.154,0.115-0.4,0.189-0.688,0.189c-0.093,0-0.186-0.009-0.272-0.023
		v0.331c0.133,0.025,0.278,0.039,0.43,0.039C26.241,17.046,26.601,16.869,26.601,16.747z"/>
	<path d="M27.098,18.444l-0.025-0.197c-0.157,0.422-0.66,0.732-1.254,0.732l-0.207-0.013c0.16,0.153,0.385,0.333,0.667,0.326
		C26.738,19.283,27.098,18.911,27.098,18.444z"/>
</g>
</svg>
