<?xml version="1.0" encoding="utf-8"?>
<!-- Generator: Adobe Illustrator 16.0.4, SVG Export Plug-In . SVG Version: 6.00 Build 0)  -->
<!DOCTYPE svg PUBLIC "-//W3C//DTD SVG 1.1//EN" "http://www.w3.org/Graphics/SVG/1.1/DTD/svg11.dtd">
<svg version="1.1" id="Layer_1" xmlns="http://www.w3.org/2000/svg" xmlns:xlink="http://www.w3.org/1999/xlink" x="0px" y="0px"
	 width="50px" height="50px" viewBox="0 0 50 50" enable-background="new 0 0 50 50" xml:space="preserve">
<path d="M28.224,31.408c0,0.195-0.031,0.385-0.091,0.561c-0.312,1.406-3.131,3.177-3.131,3.177s-2.821-1.771-3.134-3.177
	c-0.059-0.176-0.092-0.364-0.092-0.561c0-0.688,0.381-1.285,0.942-1.596c0.261-0.145,0.562-0.227,0.88-0.227
	c0.563,0,1.067,0.256,1.402,0.658c0.333-0.402,0.837-0.658,1.4-0.658c0.318,0,0.617,0.082,0.879,0.227
	C27.844,30.123,28.224,30.722,28.224,31.408z M34.313,30.227v4.919c0,0.276-0.225,0.5-0.5,0.5c-0.276,0-0.5-0.224-0.5-0.5v-4.919
	c0-3.234-1.424-4.853-4.711-5.388c-0.938,1.31-2.188,2.266-3.603,2.266s-2.663-0.956-3.603-2.266
	c-3.289,0.533-4.711,2.15-4.711,5.388v4.919c0,0.276-0.224,0.5-0.5,0.5c-0.275,0-0.5-0.224-0.5-0.5v-4.919
	c0-4.575,2.75-5.851,5.125-6.309c-0.748-1.361-1.188-2.924-1.188-4.188c0-2.964,2.411-5.375,5.375-5.375s5.375,2.411,5.375,5.375
	c0,1.264-0.438,2.826-1.188,4.188C31.573,24.376,34.313,25.66,34.313,30.227z M29.376,19.729c0-2.412-1.963-4.375-4.375-4.375
	s-4.375,1.963-4.375,4.375c0,2.459,2.002,6.375,4.375,6.375S29.376,22.188,29.376,19.729z M19.729,30.562
	c-0.275,0-0.5,0.224-0.5,0.5v4.083c0,0.275,0.225,0.5,0.5,0.5c0.276,0,0.5-0.225,0.5-0.5v-4.083
	C20.229,30.785,20.007,30.562,19.729,30.562z M30.272,30.562c-0.276,0-0.5,0.224-0.5,0.5v4.083c0,0.275,0.224,0.5,0.5,0.5
	c0.275,0,0.5-0.225,0.5-0.5v-4.083C30.772,30.785,30.548,30.562,30.272,30.562z"/>
</svg>
