<?xml version="1.0" encoding="utf-8"?>
<!-- Generator: Adobe Illustrator 16.0.4, SVG Export Plug-In . SVG Version: 6.00 Build 0)  -->
<!DOCTYPE svg PUBLIC "-//W3C//DTD SVG 1.1//EN" "http://www.w3.org/Graphics/SVG/1.1/DTD/svg11.dtd">
<svg version="1.1" id="Layer_1" xmlns="http://www.w3.org/2000/svg" xmlns:xlink="http://www.w3.org/1999/xlink" x="0px" y="0px"
	 width="50px" height="50px" viewBox="0 0 50 50" enable-background="new 0 0 50 50" xml:space="preserve">
<g>
	<path d="M30.598,24.862c-0.178-0.221-0.406-0.52-0.472-0.694c-0.108-0.3-0.188-1.261-0.188-1.261
		c-0.033-1.137-0.312-1.629-0.312-1.629c-0.48-0.769-0.57-2.2-0.57-2.2l-0.021-2.418c-0.167-1.65-1.385-1.662-1.385-1.662
		c-1.229-0.185-1.399-0.58-1.399-0.58c-0.261-0.374-0.112-1.093-0.112-1.093c0.217-0.176,0.299-0.643,0.299-0.643
		c0.358-0.273,0.342-0.678,0.179-0.673c-0.136,0.003-0.104-0.106-0.104-0.106c0.225-1.812-1.385-1.902-1.385-1.902h-0.246
		c0,0-1.607,0.092-1.385,1.902c0,0,0.029,0.109-0.104,0.106c-0.166-0.005-0.182,0.398,0.178,0.673c0,0,0.082,0.467,0.299,0.643
		c0,0,0.148,0.719-0.112,1.093c0,0-0.171,0.396-1.399,0.58c0,0-1.217,0.012-1.385,1.662l-0.021,2.418c0,0-0.091,1.433-0.571,2.2
		c0,0-0.277,0.492-0.312,1.629c0,0-0.08,0.961-0.188,1.261c-0.065,0.176-0.294,0.474-0.472,0.694
		c-0.35,0.438-0.938,1.347-0.624,1.447c0,0,0.243,0.024,0.567-0.617c0,0-0.006,0.246-0.267,0.963
		c-0.05,0.135-0.267,0.812,0.084,0.568c0,0,0.161-0.111,0.374-0.811c0,0-0.113,1.177,0.011,1.236c0.165,0.08,0.257-0.151,0.33-1.184
		c0,0,0.076-0.332,0.111,0.939c0.002,0.064,0.1,0.391,0.233,0.113c0.111-0.233,0.062-0.854,0.062-1.062c0,0,0.146,0.803,0.28,0.803
		c0,0,0.158,0.188,0.095-0.809c-0.013-0.163,0.045-0.498,0.052-0.597l0.016-0.383c0,0-0.039-0.438-0.039-0.619
		c0-0.045,0.156-0.643,0.569-1.272c0,0,0.859-1.524,0.804-2.521c0,0-0.012-0.951,0.334-1.49c0,0,0.246,2.693,0.08,3.449
		c0,0-0.773,1.857-0.604,3.243c0.126,1.03,0.368,3.234,0.614,4.104c0.127,0.449,0.052,1.585,0.155,1.867
		c0.045,0.123,0.021,0.235-0.078,0.517c-0.349,0.976-0.303,1.662,0.57,4.252c0,0,0.268,0.573,0.133,1.604
		c0,0-0.558,1.146-0.199,1.17c0,0,0.029,0.076,0.147,0.015c0,0,0.192,0.198,0.401,0.092c0,0,0.193,0.152,0.357,0.017
		c0,0,0.135,0.15,0.328,0.029c0,0,0.252,0.168,0.401-0.016c0,0,0.269,0.062-0.209-1.146c0,0-0.183-1.277-0.282-1.527
		c-0.191-0.479-0.057-1.781-0.015-2.062c0.065-0.466,0.03-1.264-0.091-1.88c-0.086-0.442,0.151-1.276,0.238-1.788
		c0.182-1.08,0.535-3.836,0.491-4.355l0.146,0.051c0.106,0,0.175-0.051,0.175-0.051c-0.044,0.521,0.308,3.275,0.492,4.355
		c0.086,0.512,0.324,1.346,0.238,1.788c-0.121,0.616-0.156,1.414-0.091,1.88c0.042,0.281,0.177,1.584-0.015,2.062
		c-0.1,0.25-0.282,1.527-0.282,1.527c-0.478,1.207-0.209,1.146-0.209,1.146c0.149,0.184,0.402,0.016,0.402,0.016
		c0.193,0.121,0.328-0.029,0.328-0.029c0.164,0.137,0.356-0.017,0.356-0.017c0.21,0.106,0.401-0.092,0.401-0.092
		c0.119,0.062,0.148-0.015,0.148-0.015c0.357-0.023-0.199-1.17-0.199-1.17c-0.135-1.031,0.133-1.604,0.133-1.604
		c0.873-2.59,0.918-3.276,0.57-4.252c-0.101-0.28-0.123-0.394-0.078-0.517c0.104-0.282,0.027-1.418,0.155-1.867
		c0.246-0.869,0.488-3.073,0.614-4.104c0.169-1.386-0.604-3.243-0.604-3.243c-0.166-0.756,0.08-3.449,0.08-3.449
		c0.346,0.539,0.334,1.49,0.334,1.49c-0.057,0.996,0.803,2.521,0.803,2.521c0.414,0.631,0.57,1.228,0.57,1.272
		c0,0.182-0.039,0.619-0.039,0.619l0.016,0.383c0.007,0.099,0.062,0.434,0.052,0.597c-0.063,0.995,0.095,0.809,0.095,0.809
		c0.135,0,0.28-0.803,0.28-0.803c0,0.207-0.05,0.828,0.062,1.062c0.135,0.276,0.231-0.049,0.233-0.113
		c0.035-1.271,0.111-0.939,0.111-0.939c0.073,1.031,0.165,1.264,0.329,1.184c0.125-0.061,0.012-1.236,0.012-1.236
		c0.213,0.697,0.374,0.811,0.374,0.811c0.351,0.244,0.134-0.435,0.084-0.568c-0.261-0.717-0.267-0.963-0.267-0.963
		c0.322,0.643,0.567,0.617,0.567,0.617C31.536,26.209,30.945,25.3,30.598,24.862z M24.911,15.175h0.312v0.18h-0.312V15.175z
		 M24.911,15.531h0.312v0.178h-0.312V15.531z M24.911,15.888h0.312v0.178h-0.312V15.888z M27.161,19.045
		c-0.101,0.157-0.427,0.351-0.774-0.153c-0.162-0.234-0.893,0.213-0.989-0.562v-1.514l-0.332-0.33l-0.33,0.33v1.514
		c-0.098,0.775-0.827,0.328-0.989,0.562c-0.349,0.504-0.675,0.312-0.774,0.153c-0.854-1.338,1.183-3.469,1.183-3.469
		c0.581-0.582,0.581,0.019,0.581,0.019v1.001l0.177-0.176v-0.177h0.312v0.177l0.176,0.176v-1.001c0,0,0-0.601,0.583-0.019
		C25.979,15.576,28.016,17.707,27.161,19.045z"/>
</g>
</svg>
