<?xml version="1.0" encoding="utf-8"?>
<!-- Generator: Adobe Illustrator 16.0.4, SVG Export Plug-In . SVG Version: 6.00 Build 0)  -->
<!DOCTYPE svg PUBLIC "-//W3C//DTD SVG 1.1//EN" "http://www.w3.org/Graphics/SVG/1.1/DTD/svg11.dtd">
<svg version="1.1" id="Layer_1" xmlns="http://www.w3.org/2000/svg" xmlns:xlink="http://www.w3.org/1999/xlink" x="0px" y="0px"
	 width="50px" height="50px" viewBox="0 0 50 50" enable-background="new 0 0 50 50" xml:space="preserve">
<path d="M37.085,23.082c-0.052-0.021-0.144-0.063-0.272-0.122c-1.181-0.53-4.771-2.144-7.978-2.144
	c-0.183,0-0.362,0.005-0.547,0.016c-1.454,0.102-2.198,0.342-3.288,0.722c-1.062-0.371-1.809-0.617-3.29-0.722
	c-3.333-0.197-7.271,1.567-8.521,2.128c-0.127,0.057-0.219,0.099-0.271,0.12c-0.073,0.02-0.142,0.052-0.202,0.099
	c-0.13,0.101-0.21,0.256-0.217,0.422c-0.02,0.555,3.732,5.209,8.596,5.549c1.745,0.118,2.598-0.077,3.904-0.462
	c1.053,0.311,1.814,0.497,2.984,0.497c0.279,0,0.582-0.013,0.922-0.035c4.861-0.34,8.613-4.995,8.594-5.549
	C37.491,23.351,37.316,23.144,37.085,23.082z M21.637,21.94c1.385,0.096,1.998,0.311,3.182,0.726c0.115,0.04,0.312,0.02,0.433-0.022
	c1.115-0.391,1.729-0.607,3.108-0.703c2.451-0.151,5.289,0.88,6.955,1.579c-6.776,1.758-13.864,1.761-20.645,0.008
	c1.561-0.653,4.167-1.601,6.5-1.601C21.328,21.926,21.486,21.932,21.637,21.94z M28.828,28.041c-1.628,0.113-2.391-0.086-3.67-0.467
	c-0.053-0.015-0.104-0.021-0.158-0.021c-0.052,0-0.105,0.007-0.158,0.021c-1.279,0.381-2.047,0.582-3.668,0.467
	c-2.777-0.194-5.139-2.031-6.479-3.362c3.379,0.848,6.828,1.298,10.281,1.298c3.478,0,6.946-0.455,10.346-1.314
	C33.984,25.996,31.613,27.847,28.828,28.041z"/>
</svg>
