<?xml version="1.0" encoding="utf-8"?>
<!-- Generator: Adobe Illustrator 16.0.4, SVG Export Plug-In . SVG Version: 6.00 Build 0)  -->
<!DOCTYPE svg PUBLIC "-//W3C//DTD SVG 1.1//EN" "http://www.w3.org/Graphics/SVG/1.1/DTD/svg11.dtd">
<svg version="1.1" id="Layer_1" xmlns="http://www.w3.org/2000/svg" xmlns:xlink="http://www.w3.org/1999/xlink" x="0px" y="0px"
	 width="50px" height="50px" viewBox="0 0 50 50" enable-background="new 0 0 50 50" xml:space="preserve">
<g>
	<path d="M30.599,24.862c-0.177-0.221-0.406-0.52-0.471-0.694c-0.109-0.3-0.189-1.261-0.189-1.261
		c-0.034-1.137-0.312-1.629-0.312-1.629c-0.481-0.769-0.57-2.199-0.57-2.199l-0.021-2.419c-0.167-1.65-1.386-1.662-1.386-1.662
		c-1.229-0.185-1.399-0.58-1.399-0.58c-0.261-0.374-0.112-1.093-0.112-1.093c0.216-0.176,0.299-0.643,0.299-0.643
		c0.358-0.273,0.341-0.677,0.177-0.673c-0.134,0.003-0.104-0.106-0.104-0.106c0.224-1.812-1.385-1.902-1.385-1.902h-0.246
		c0,0-1.609,0.092-1.385,1.902c0,0,0.03,0.109-0.104,0.106c-0.165-0.004-0.181,0.398,0.177,0.673c0,0,0.083,0.467,0.299,0.643
		c0,0,0.148,0.719-0.112,1.093c0,0-0.171,0.396-1.4,0.58c0,0-1.218,0.012-1.385,1.662l-0.022,2.419c0,0-0.089,1.432-0.57,2.199
		c0,0-0.279,0.492-0.312,1.629c0,0-0.081,0.961-0.19,1.261c-0.065,0.176-0.293,0.474-0.471,0.694
		c-0.349,0.438-0.938,1.347-0.625,1.447c0,0,0.245,0.024,0.568-0.617c0,0-0.006,0.246-0.267,0.963
		c-0.049,0.135-0.266,0.813,0.084,0.568c0,0,0.162-0.111,0.374-0.811c0,0-0.114,1.177,0.011,1.236
		c0.165,0.08,0.255-0.151,0.33-1.183c0,0,0.076-0.333,0.111,0.938c0.002,0.064,0.1,0.391,0.233,0.113
		c0.112-0.233,0.062-0.854,0.062-1.062c0,0,0.145,0.803,0.28,0.803c0,0,0.159,0.188,0.095-0.809
		c-0.011-0.163,0.044-0.498,0.052-0.597l0.015-0.383c0,0-0.04-0.438-0.04-0.619c0-0.045,0.157-0.643,0.571-1.272
		c0,0,0.859-1.524,0.804-2.521c0,0-0.012-0.951,0.334-1.49c0,0,0.246,2.693,0.079,3.449c0,0-0.773,1.857-0.603,3.243
		c0.126,1.03,0.369,3.234,0.615,4.104c0.127,0.449,0.051,1.585,0.156,1.867c0.045,0.123,0.022,0.235-0.078,0.517
		c-0.348,0.976-0.304,1.662,0.569,4.252c0,0,0.268,0.573,0.133,1.604c0,0-0.558,1.146-0.2,1.17c0,0,0.03,0.076,0.149,0.015
		c0,0,0.192,0.198,0.401,0.092c0,0,0.193,0.152,0.358,0.017c0,0,0.134,0.15,0.327,0.029c0,0,0.253,0.168,0.403-0.016
		c0,0,0.268,0.062-0.209-1.146c0,0-0.183-1.277-0.283-1.527c-0.191-0.479-0.056-1.781-0.015-2.062
		c0.067-0.466,0.032-1.264-0.089-1.88c-0.087-0.442,0.151-1.276,0.238-1.788c0.183-1.08,0.536-3.836,0.492-4.355l0.146,0.051
		c0.106,0,0.174-0.051,0.174-0.051c-0.044,0.521,0.308,3.275,0.492,4.355c0.086,0.512,0.325,1.346,0.238,1.788
		c-0.121,0.616-0.157,1.414-0.089,1.88c0.042,0.281,0.177,1.584-0.016,2.062c-0.1,0.25-0.282,1.527-0.282,1.527
		c-0.477,1.207-0.209,1.146-0.209,1.146c0.149,0.184,0.402,0.016,0.402,0.016c0.193,0.121,0.327-0.029,0.327-0.029
		c0.165,0.137,0.358-0.017,0.358-0.017c0.209,0.106,0.4-0.092,0.4-0.092c0.12,0.062,0.149-0.015,0.149-0.015
		c0.357-0.023-0.2-1.17-0.2-1.17c-0.134-1.031,0.134-1.604,0.134-1.604c0.874-2.59,0.917-3.276,0.569-4.252
		c-0.1-0.28-0.123-0.394-0.078-0.517c0.104-0.282,0.028-1.418,0.155-1.867c0.247-0.869,0.489-3.073,0.615-4.104
		c0.169-1.386-0.604-3.243-0.604-3.243c-0.167-0.756,0.079-3.449,0.079-3.449c0.346,0.539,0.334,1.49,0.334,1.49
		c-0.056,0.996,0.804,2.521,0.804,2.521c0.414,0.631,0.571,1.228,0.571,1.272c0,0.182-0.04,0.619-0.04,0.619l0.016,0.383
		c0.007,0.099,0.062,0.434,0.052,0.597c-0.064,0.996,0.095,0.809,0.095,0.809c0.135,0,0.28-0.803,0.28-0.803
		c0,0.207-0.05,0.828,0.062,1.062c0.134,0.276,0.231-0.049,0.233-0.113c0.035-1.271,0.111-0.938,0.111-0.938
		c0.074,1.03,0.164,1.263,0.329,1.183c0.125-0.061,0.012-1.236,0.012-1.236c0.212,0.697,0.374,0.811,0.374,0.811
		c0.35,0.245,0.133-0.435,0.084-0.568c-0.262-0.717-0.268-0.963-0.268-0.963c0.324,0.643,0.568,0.617,0.568,0.617
		C31.538,26.209,30.946,25.3,30.599,24.862z M26.753,23.081c-0.156,0.197-0.545,0.466-1.005,0.04c0,0-0.242-0.267-0.059-0.497
		l0.067-0.155l-0.123,0.056c-0.14,0.104-0.338,0.396-0.439,1.186c0.229,0.057,0.394,0.208,0.394,0.389
		c0,0.193-0.194,0.355-0.452,0.398c-0.008,0.243-0.009,0.512-0.001,0.816l0.003,0.106h-0.274l0.003-0.106
		c0.007-0.306,0.006-0.573-0.001-0.816c-0.259-0.043-0.452-0.205-0.452-0.398c0-0.181,0.165-0.332,0.394-0.389
		c-0.101-0.789-0.3-1.08-0.439-1.186l-0.123-0.056l0.067,0.155c0.184,0.23-0.058,0.497-0.058,0.497
		c-0.46,0.426-0.85,0.157-1.006-0.04c-0.473-0.602,0.028-1.445,0.367-1.729c0.408-0.341,0.685-0.08,0.814,0.078
		c0.167,0.207,0.087,0.502-0.009,0.623L24.29,22.26l0.194,0.087c0.252,0.178,0.426,0.586,0.52,1.213
		c0.093-0.627,0.267-1.035,0.519-1.213l0.194-0.087l-0.132-0.206c-0.097-0.121-0.177-0.416-0.009-0.623
		c0.129-0.158,0.405-0.419,0.812-0.078C26.726,21.636,27.227,22.479,26.753,23.081z"/>
</g>
</svg>
