<?xml version="1.0" encoding="utf-8"?>
<!-- Generator: Adobe Illustrator 16.0.4, SVG Export Plug-In . SVG Version: 6.00 Build 0)  -->
<!DOCTYPE svg PUBLIC "-//W3C//DTD SVG 1.1//EN" "http://www.w3.org/Graphics/SVG/1.1/DTD/svg11.dtd">
<svg version="1.1" id="Layer_1" xmlns="http://www.w3.org/2000/svg" xmlns:xlink="http://www.w3.org/1999/xlink" x="0px" y="0px"
	 width="50px" height="50px" viewBox="0 0 50 50" enable-background="new 0 0 50 50" xml:space="preserve">
<g>
	<path d="M37.344,30.453l-0.003-0.009c0.184-1.002,0.095-2.034-0.274-2.986l-0.012-0.019c0.015-0.167,0.024-0.337,0.024-0.509
		c0-0.993-0.269-1.958-0.759-2.798c-0.061-1.1-0.547-2.156-1.394-3.029c0.127-0.233,0.202-0.479,0.202-0.737
		c0-0.431-0.194-1.04-1.036-1.616c0.21-0.26,0.332-0.549,0.332-0.868c0-0.85-0.842-1.567-2.334-2.016
		c0.132-0.237,0.222-0.485,0.222-0.749c0-0.926-0.863-1.737-2.267-2.175c-0.178-0.992-1.5-1.744-3.177-1.744
		c-0.247,0-0.446,0.198-0.446,0.445s0.199,0.446,0.446,0.446c1.315,0,2.298,0.557,2.315,1.062l-0.007,0.016l-0.003,0.055
		c-0.069,0.492-1.027,1.02-2.307,1.02c-0.225,0-0.438-0.031-0.65-0.062c-0.177-0.479-0.634-0.824-1.175-0.824
		c-0.542,0-1,0.346-1.177,0.824c-0.211,0.031-0.426,0.062-0.65,0.062c-1.327,0-2.319-0.567-2.319-1.075s0.992-1.075,2.319-1.075
		c0.247,0,0.446-0.2,0.446-0.446s-0.2-0.445-0.446-0.445c-1.675,0-2.998,0.751-3.175,1.743c-1.421,0.439-2.269,1.238-2.269,2.175
		c0,0.264,0.091,0.512,0.222,0.749c-1.492,0.451-2.333,1.169-2.333,2.016c0,0.319,0.122,0.608,0.333,0.868
		c-0.833,0.571-1.037,1.176-1.037,1.615c0,0.259,0.075,0.506,0.203,0.74c-0.55,0.566-0.953,1.197-1.183,1.885
		c-0.126,0.374-0.188,0.76-0.208,1.148l-0.043,0.049c-0.472,0.828-0.721,1.776-0.721,2.742c0,0.17,0.009,0.338,0.024,0.505
		c-0.333,0.848-0.429,1.758-0.322,2.658l-0.024,0.053c-0.215,0.914-0.129,1.972,0.239,3.138l-0.02,0.091
		c-0.009,0.686,0.081,1.361,0.266,2.01c0.428,1.5,1.325,2.648,2.459,3.149c0.405,0.179,0.829,0.269,1.251,0.269
		c0.471,0,0.942-0.112,1.387-0.332c1.41-0.699,2.041-2.451,2.421-3.614c0.488-0.742,0.8-1.551,1.028-2.151
		c0.088-0.232,0.165-0.437,0.238-0.596l0.04-0.173c0.246-0.462,0.44-0.911,0.595-1.278c0.097-0.231,0.182-0.436,0.262-0.594
		l0.037-0.134c0.176-0.177,0.333-0.334,0.467-0.451l0.108-0.139c0.107-0.036,0.215-0.07,0.321-0.11v0.065
		c0,0.693,0.563,1.256,1.258,1.256c0.693,0,1.256-0.562,1.256-1.256v-0.065c0.104,0.04,0.213,0.074,0.321,0.11l0.106,0.139
		c0.135,0.117,0.291,0.274,0.467,0.45l0.037,0.135c0.081,0.159,0.167,0.364,0.265,0.597c0.153,0.366,0.349,0.813,0.594,1.274
		l0.04,0.175c0.072,0.159,0.149,0.363,0.237,0.595c0.229,0.602,0.541,1.412,1.029,2.153c0.38,1.164,1.011,2.913,2.419,3.612
		c0.446,0.22,0.917,0.332,1.389,0.332c0.423,0,0.847-0.09,1.253-0.27c1.134-0.501,2.029-1.649,2.458-3.148
		c0.297-1.037,0.423-1.898,0.375-2.561l-0.005-0.016C37.458,32.035,37.48,31.232,37.344,30.453z M30.209,34.462l-0.028-0.086
		l-0.064-0.199c0.182,0.104,0.368,0.203,0.575,0.282c0.555,0.211,1.131,0.316,1.708,0.316c0.674,0,1.347-0.144,1.98-0.43
		c0.829-0.376,1.515-0.98,2.039-1.729c-0.04,0.181-0.084,0.36-0.144,0.537c-0.388,1.155-1.166,2.069-2.135,2.507
		c-0.811,0.364-1.705,0.378-2.521,0.031C31.018,35.438,30.566,34.981,30.209,34.462z M16.231,22.235l0.07-0.062
		c1.127,0.647,2.874,1.049,4.908,1.049c0.896,0,1.771-0.092,2.576-0.251v2.161c-0.854,0.189-1.812,0.294-2.796,0.294
		c-3.258,0-5.693-1.104-5.693-2.092C15.296,22.972,15.628,22.581,16.231,22.235z M26.301,22.972
		c0.804,0.159,1.679,0.251,2.576,0.251c2.019,0,3.755-0.396,4.883-1.034c0.651,0.354,1.03,0.768,1.03,1.146
		c0,0.987-2.436,2.092-5.693,2.092c-0.984,0-1.942-0.104-2.796-0.294V22.972z M36.188,26.93c0,2.491-1.92,4.481-4.372,4.531
		c-1.518,0.061-2.705-0.914-3.561-1.742c0.363,0.045,0.73,0.072,1.102,0.072c3.173,0,5.854-1.655,6.697-3.912
		C36.133,26.222,36.188,26.571,36.188,26.93z M36.247,31.079c-0.414,1.115-1.208,1.987-2.237,2.454
		c-0.957,0.433-2.021,0.466-3.001,0.093c-1.114-0.425-1.78-1.397-2.238-2.314c0.801,0.571,1.785,1.043,2.969,1.043l0.096-0.001
		c2.088-0.043,3.851-1.26,4.7-3.026C36.549,29.916,36.458,30.51,36.247,31.079z M34.038,20.845l-0.02,0.014L33.994,20.9
		c-0.665,0.75-2.638,1.431-5.117,1.431c-0.906,0-1.786-0.098-2.576-0.269v-1.896c0.72,0.124,1.498,0.197,2.296,0.197
		c1.79,0,3.649-0.352,4.772-1.018c0.558,0.322,0.866,0.682,0.866,1.019C34.236,20.522,34.165,20.686,34.038,20.845z M33.533,17.881
		c0,0.648-1.923,1.589-4.937,1.589c-0.806,0-1.588-0.077-2.296-0.209v-1.767c0.466,0.083,0.958,0.127,1.456,0.127
		c1.523,0,2.84-0.397,3.663-1.012C32.803,16.952,33.533,17.497,33.533,17.881z M29.89,13.823c0.93,0.311,1.531,0.807,1.531,1.293
		c0,0.205-0.116,0.415-0.315,0.613l-0.172,0.146c-0.606,0.477-1.741,0.854-3.178,0.854c-0.506,0-0.997-0.054-1.456-0.146v-1.501
		c0.188,0.02,0.372,0.05,0.569,0.05C28.29,15.131,29.456,14.591,29.89,13.823z M20.199,13.824c0.435,0.768,1.6,1.308,3.019,1.308
		c0.197,0,0.38-0.03,0.569-0.05v1.501c-0.458,0.093-0.95,0.146-1.456,0.146c-2.159,0-3.664-0.851-3.664-1.613
		C18.667,14.634,19.272,14.135,20.199,13.824z M18.667,16.609c0.823,0.614,2.139,1.013,3.664,1.013c0.499,0,0.99-0.044,1.456-0.127
		v1.767c-0.708,0.132-1.49,0.209-2.296,0.209c-2.105,0-3.659-0.46-4.416-0.958l-0.183-0.119c-0.219-0.176-0.337-0.353-0.337-0.512
		C16.554,17.51,17.224,16.966,18.667,16.609z M16.724,19.351c1.125,0.664,2.98,1.013,4.767,1.013c0.798,0,1.576-0.073,2.296-0.197
		v1.896c-0.79,0.171-1.67,0.269-2.576,0.269c-3.067,0-5.36-1.039-5.36-1.967C15.851,20.03,16.174,19.67,16.724,19.351z
		 M18.469,35.692c-0.816,0.347-1.71,0.333-2.522-0.031c-0.969-0.438-1.747-1.352-2.134-2.507c-0.063-0.189-0.107-0.369-0.154-0.551
		c0.525,0.754,1.215,1.364,2.049,1.743c0.634,0.287,1.306,0.43,1.98,0.43c0.576,0,1.153-0.104,1.706-0.316
		c0.207-0.079,0.396-0.178,0.578-0.283l-0.065,0.2l-0.028,0.084C19.521,34.98,19.07,35.438,18.469,35.692z M18.347,31.462
		l-0.075-0.001c-2.451-0.05-4.372-2.041-4.372-4.531c0-0.362,0.048-0.719,0.129-1.065c0.838,2.265,3.522,3.927,6.702,3.927
		c0.371,0,0.738-0.026,1.101-0.071C20.993,30.525,19.84,31.462,18.347,31.462z M18.251,32.353l0.095,0.001
		c1.185,0,2.168-0.473,2.97-1.043c-0.458,0.917-1.124,1.89-2.239,2.314c-0.977,0.373-2.041,0.34-3-0.093
		c-1.028-0.467-1.823-1.338-2.237-2.454c-0.211-0.57-0.303-1.165-0.289-1.754C14.4,31.092,16.164,32.31,18.251,32.353z
		 M17.873,37.669c-0.611,0.304-1.262,0.32-1.881,0.047c-0.83-0.367-1.502-1.208-1.879-2.325c0.424,0.461,0.919,0.834,1.469,1.083
		c0.536,0.241,1.101,0.362,1.665,0.362c0.532,0,1.063-0.107,1.57-0.322c0.104-0.044,0.194-0.104,0.292-0.158
		C18.798,36.914,18.403,37.406,17.873,37.669z M20.73,28.897c-3.355,0-6.086-2.032-6.086-4.531l0.015-0.184
		c0.769,1.262,3.234,2.136,6.331,2.136c0.975,0,1.927-0.102,2.796-0.278v2.241C22.862,28.682,21.809,28.897,20.73,28.897z
		 M26.301,26.041c0.87,0.177,1.821,0.278,2.796,0.278c3.005,0,5.413-0.822,6.258-2.022l0.084,0.123
		c-0.039,2.474-2.75,4.479-6.083,4.479c-1.079,0-2.133-0.216-3.056-0.615L26.301,26.041L26.301,26.041z M34.098,37.716
		c-0.62,0.274-1.271,0.257-1.884-0.047c-0.531-0.263-0.925-0.755-1.235-1.312c0.099,0.053,0.188,0.113,0.292,0.158
		c0.507,0.214,1.039,0.322,1.57,0.322c0.563,0,1.128-0.121,1.665-0.362c0.55-0.249,1.045-0.622,1.469-1.083
		C35.599,36.508,34.927,37.35,34.098,37.716z"/>
</g>
</svg>
