<?xml version="1.0" encoding="utf-8"?>
<!-- Generator: Adobe Illustrator 16.0.4, SVG Export Plug-In . SVG Version: 6.00 Build 0)  -->
<!DOCTYPE svg PUBLIC "-//W3C//DTD SVG 1.1//EN" "http://www.w3.org/Graphics/SVG/1.1/DTD/svg11.dtd">
<svg version="1.1" id="Layer_1" xmlns="http://www.w3.org/2000/svg" xmlns:xlink="http://www.w3.org/1999/xlink" x="0px" y="0px"
	 width="50px" height="50px" viewBox="0 0 50 50" enable-background="new 0 0 50 50" xml:space="preserve">
<g>
	<path d="M23.298,18.507c0,0-0.777,0.771-0.051,1.942c0.213,0.336,0.363,0.786,0.537,1.501c0.121,0.513,0.58,2.135,1.793,1.359
		c0,0,2.035-2.256,1.213-4.222c-0.064-0.149-0.17-0.294-0.311-0.427l0.324-0.751c0.26-0.574-0.136-0.714-0.136-0.714
		c-0.31-0.195-0.651,0.55-0.84,1.059c-0.181-0.07-0.373-0.127-0.58-0.156l-0.013-0.777c0-0.631-0.362-0.631-0.362-0.631
		c-0.396-0.037-0.365,0.865-0.312,1.394c-0.105,0.012-0.213,0.026-0.324,0.053c-0.178-0.272-0.469-0.708-0.602-0.889
		c-0.23-0.324-0.63,0-0.63,0c-0.297,0.296,0.101,0.958,0.304,1.254L23.298,18.507z"/>
	<path d="M32.915,15.155h-3.619c-0.395-1.161-1.377-1.188-1.377-1.188c-1.355-0.202-1.543-0.64-1.543-0.64
		c-0.287-0.413-0.123-1.205-0.123-1.205c0.238-0.194,0.33-0.708,0.33-0.708c0.395-0.304,0.375-0.747,0.195-0.742
		c-0.148,0.004-0.115-0.118-0.115-0.118c0.246-1.996-1.527-2.099-1.527-2.099h-0.271c0,0-1.775,0.103-1.527,2.099
		c0,0,0.033,0.122-0.114,0.118c-0.183-0.005-0.199,0.438,0.194,0.742c0,0,0.093,0.514,0.33,0.708c0,0,0.164,0.792-0.123,1.205
		c0,0-0.188,0.438-1.545,0.64c0,0-0.979,0.026-1.375,1.188h-3.621c-0.276,0-0.5,0.224-0.5,0.5v9.334c0,0.275,0.224,0.5,0.5,0.5
		h1.295c-0.271,0.437-0.467,0.883-0.239,0.955c0,0,0.27,0.026,0.627-0.682c0,0-0.009,0.272-0.295,1.062
		c-0.056,0.148-0.293,0.898,0.094,0.628c0,0,0.178-0.123,0.412-0.894c0,0-0.125,1.297,0.012,1.364
		c0.182,0.088,0.281-0.168,0.363-1.306c0,0,0.084-0.366,0.123,1.035c0.002,0.072,0.108,0.432,0.258,0.125
		c0.123-0.258,0.067-0.941,0.067-1.17c0,0,0.16,0.886,0.31,0.886c0,0,0.176,0.206,0.104-0.894c-0.012-0.18,0.05-0.549,0.058-0.656
		l0.018-0.422l-0.004-0.035h1.271c-0.029,0.31-0.041,0.617-0.006,0.906c0.139,1.137,0.405,3.567,0.678,4.525
		c0.141,0.496,0.057,1.748,0.172,2.061c0.051,0.135,0.024,0.26-0.086,0.568c-0.383,1.076-0.334,1.834,0.629,4.689
		c0,0,0.295,0.633,0.146,1.771c0,0-0.614,1.265-0.221,1.29c0,0,0.032,0.084,0.164,0.018c0,0,0.213,0.219,0.442,0.101
		c0,0,0.213,0.169,0.396,0.019c0,0,0.147,0.168,0.36,0.032c0,0,0.279,0.187,0.443-0.017c0,0,0.295,0.066-0.23-1.264
		c0,0-0.2-1.41-0.311-1.687c-0.211-0.527-0.062-1.965-0.018-2.274c0.074-0.515,0.035-1.395-0.098-2.074
		c-0.097-0.487,0.166-1.407,0.262-1.973c0.201-1.191,0.592-4.23,0.543-4.804l0.162,0.056c0.117,0,0.19-0.056,0.19-0.056
		c-0.049,0.573,0.341,3.612,0.541,4.804c0.097,0.564,0.359,1.484,0.265,1.973c-0.135,0.681-0.174,1.561-0.101,2.074
		c0.048,0.311,0.195,1.747-0.016,2.274c-0.111,0.274-0.312,1.687-0.312,1.687c-0.525,1.33-0.23,1.264-0.23,1.264
		c0.166,0.201,0.445,0.017,0.445,0.017c0.213,0.136,0.358-0.032,0.358-0.032c0.183,0.15,0.396-0.019,0.396-0.019
		c0.229,0.118,0.442-0.101,0.442-0.101c0.134,0.066,0.164-0.018,0.164-0.018c0.396-0.025-0.221-1.29-0.221-1.29
		c-0.148-1.138,0.147-1.771,0.147-1.771c0.963-2.855,1.012-3.613,0.627-4.689c-0.108-0.311-0.135-0.434-0.086-0.568
		c0.115-0.312,0.031-1.563,0.172-2.061c0.271-0.958,0.539-3.391,0.678-4.525c0.035-0.289,0.023-0.598-0.004-0.906h1.271
		l-0.002,0.035l0.017,0.422c0.008,0.107,0.069,0.478,0.059,0.656c-0.072,1.1,0.104,0.894,0.104,0.894c0.148,0,0.31-0.886,0.31-0.886
		c0,0.229-0.056,0.912,0.069,1.17c0.146,0.307,0.254-0.053,0.256-0.125c0.039-1.401,0.123-1.035,0.123-1.035
		c0.082,1.138,0.183,1.394,0.363,1.306c0.139-0.067,0.014-1.364,0.014-1.364c0.234,0.771,0.412,0.894,0.412,0.894
		c0.386,0.271,0.146-0.479,0.092-0.628c-0.286-0.789-0.293-1.062-0.293-1.062c0.357,0.708,0.628,0.682,0.628,0.682
		c0.225-0.072,0.026-0.52-0.242-0.955h1.295c0.276,0,0.5-0.225,0.5-0.5v-9.334C33.415,15.379,33.192,15.155,32.915,15.155z
		 M32.415,24.489H17.583v-8.334h14.832V24.489z"/>
</g>
</svg>
