<?xml version="1.0" encoding="utf-8"?>
<!-- Generator: Adobe Illustrator 16.0.4, SVG Export Plug-In . SVG Version: 6.00 Build 0)  -->
<!DOCTYPE svg PUBLIC "-//W3C//DTD SVG 1.1//EN" "http://www.w3.org/Graphics/SVG/1.1/DTD/svg11.dtd">
<svg version="1.1" id="Layer_1" xmlns="http://www.w3.org/2000/svg" xmlns:xlink="http://www.w3.org/1999/xlink" x="0px" y="0px"
	 width="50px" height="50px" viewBox="0 0 50 50" enable-background="new 0 0 50 50" xml:space="preserve">
<g>
	<path d="M32.783,24.133c-0.346-0.299-1.506-0.539-2.719-0.717l0.033-0.158V17.93c0-1.156-0.904-2.096-2.014-2.096
		c-0.371,0-0.715,0.111-1.014,0.295v-1.281c0-1.158-0.914-2.1-2.038-2.1c-1.042,0-1.894,0.812-2.013,1.854
		c-0.307-0.19-0.664-0.309-1.048-0.309c-1.124,0-2.038,0.941-2.038,2.1v3.121c-0.317-0.209-0.693-0.336-1.099-0.336
		c-1.086,0-1.969,0.883-2.026,1.988l-0.011,0.053v0.057v3.238v4.248l0.066,0.234v1.008c0,4.268,3.359,7.248,8.17,7.248
		c4.811,0,8.17-2.98,8.17-7.248v-5.039C33.203,24.643,32.952,24.277,32.783,24.133z M27.07,17.93c0-0.604,0.455-1.096,1.014-1.096
		s1.014,0.492,1.014,1.096v5.328l0.006,0.029c-0.437-0.053-0.855-0.098-1.215-0.133c-0.301-0.021-0.568-0.006-0.818,0.022V17.93
		L27.07,17.93z M17.797,21.275c0-0.605,0.465-1.099,1.037-1.099c0.572,0,1.038,0.492,1.038,1.099v3.238
		c0,0.604-0.465,1.098-1.037,1.098c-0.456,0-0.833-0.318-0.972-0.752v-1.531l-0.066-0.236V21.275z M32.203,30.004
		c0,3.678-2.948,6.248-7.17,6.248c-4.222,0-7.17-2.57-7.17-6.248v-3.658c0.29,0.164,0.618,0.266,0.972,0.266
		c1.086,0,1.969-0.883,2.026-1.987l0.011-0.054v-0.057v-0.178l0.061-0.227v-7.717c0-0.605,0.466-1.101,1.038-1.101
		c0.548,0,0.988,0.457,1.024,1.026v8.248c0,0.277,0.224,0.5,0.5,0.5s0.5-0.223,0.5-0.5v-1.02l0.014-0.068v-7.088l-0.014-0.141
		v-1.404c0-0.604,0.465-1.1,1.037-1.1c0.571,0,1.038,0.494,1.038,1.1v3.082v5.604c-0.316,0.207-0.566,0.481-0.706,0.864
		c-0.386,1.056,0.184,2.24,1.311,2.652l3.192,0.883c0.263,0.07,0.542-0.084,0.615-0.35c0.072-0.266-0.084-0.541-0.351-0.615
		l-3.151-0.869c-0.57-0.211-0.875-0.817-0.678-1.356c0.067-0.187,0.247-0.677,1.502-0.593c1.819,0.181,3.993,0.517,4.316,0.732
		l0.081,0.082L32.203,30.004L32.203,30.004z"/>
</g>
</svg>
