<?xml version="1.0" encoding="utf-8"?>
<!-- Generator: Adobe Illustrator 16.0.4, SVG Export Plug-In . SVG Version: 6.00 Build 0)  -->
<!DOCTYPE svg PUBLIC "-//W3C//DTD SVG 1.1//EN" "http://www.w3.org/Graphics/SVG/1.1/DTD/svg11.dtd">
<svg version="1.1" id="Layer_1" xmlns="http://www.w3.org/2000/svg" xmlns:xlink="http://www.w3.org/1999/xlink" x="0px" y="0px"
	 width="50px" height="50px" viewBox="0 0 50 50" enable-background="new 0 0 50 50" xml:space="preserve">
<path d="M32.068,17.852h-2.356v-1.819c0-0.355-0.288-0.643-0.644-0.643h-3.424v-2.247c0-0.355-0.289-0.643-0.644-0.643
	s-0.643,0.287-0.643,0.643v2.247H20.93c-0.355,0-0.643,0.288-0.643,0.643v1.819h-2.354c-0.355,0-0.643,0.288-0.643,0.643v15.738
	c0,0.355,0.288,0.643,0.643,0.643h3.784c0.342,1.5,1.681,2.625,3.283,2.625c1.602,0,2.939-1.125,3.283-2.625h3.783
	c0.355,0,0.644-0.287,0.644-0.643V18.495C32.71,18.139,32.423,17.852,32.068,17.852z M25.001,36.215
	c-1.152,0-2.088-0.937-2.088-2.088c0-0.82,1.118-3.558,2.088-5.703c0.97,2.146,2.088,4.882,2.088,5.703
	C27.089,35.278,26.152,36.215,25.001,36.215z M31.425,33.59h-3.116c-0.199-1.041-0.847-2.715-1.469-4.174h1.534
	c0.354,0,0.642-0.287,0.642-0.643s-0.287-0.643-0.642-0.643h-2.097c-0.342-0.76-0.613-1.336-0.696-1.51
	c-0.213-0.447-0.946-0.447-1.159,0c-0.083,0.174-0.355,0.75-0.696,1.51h-2.097c-0.355,0-0.642,0.287-0.642,0.643
	s0.287,0.643,0.642,0.643h1.534c-0.623,1.459-1.271,3.135-1.468,4.174h-3.117V19.135h2.354c0.355,0,0.642-0.287,0.642-0.642v-1.819
	h6.854v1.819c0,0.355,0.288,0.642,0.643,0.642h2.356V33.59H31.425z M29.016,21.708c0,0.355-0.287,0.643-0.642,0.643h-6.746
	c-0.355,0-0.642-0.288-0.642-0.643s0.287-0.643,0.642-0.643h6.746C28.729,21.064,29.016,21.353,29.016,21.708z M29.016,25.241
	c0,0.355-0.287,0.642-0.642,0.642h-6.746c-0.355,0-0.642-0.286-0.642-0.642c0-0.355,0.287-0.642,0.642-0.642h6.746
	C28.729,24.599,29.016,24.885,29.016,25.241z"/>
</svg>
