<?xml version="1.0" encoding="utf-8"?>
<!-- Generator: Adobe Illustrator 16.0.4, SVG Export Plug-In . SVG Version: 6.00 Build 0)  -->
<!DOCTYPE svg PUBLIC "-//W3C//DTD SVG 1.1//EN" "http://www.w3.org/Graphics/SVG/1.1/DTD/svg11.dtd">
<svg version="1.1" id="Layer_1" xmlns="http://www.w3.org/2000/svg" xmlns:xlink="http://www.w3.org/1999/xlink" x="0px" y="0px"
	 width="50px" height="50px" viewBox="0 0 50 50" enable-background="new 0 0 50 50" xml:space="preserve">
<path d="M36.776,20.099c-0.452-1.95-1.772-3.382-3.817-4.14c-1.208-0.447-3.939-0.849-5.566,0.254
	c-0.047-0.116-0.096-0.232-0.178-0.334l-2.426-2.963c-0.404-0.502-1.205-0.586-1.708-0.177l-2.372,1.938l-1.938-2.373
	c-0.206-0.25-0.497-0.406-0.82-0.438c-0.322-0.032-0.641,0.064-0.887,0.271l-2.967,2.424c-0.25,0.205-0.407,0.495-0.44,0.818
	c-0.033,0.322,0.062,0.639,0.267,0.89l1.94,2.371l-2.374,1.94c-0.25,0.204-0.404,0.495-0.438,0.818
	c-0.031,0.323,0.064,0.639,0.271,0.888l2.424,2.968c0.228,0.277,0.562,0.437,0.921,0.442c0.258,0.451,0.555,0.863,0.883,1.223
	c1.133,1.246,1.461,1.967,1.646,2.789c0.042,0.191,0.135,0.723,0.141,0.834c0.288,6.883,2.643,7.484,3.211,7.529
	c0.166,0.046,0.326,0.068,0.484,0.068c0.288,0,0.562-0.077,0.812-0.229c1.17-0.721,1.529-2.946,1.848-4.909
	c0.113-0.707,0.222-1.375,0.346-1.763c0.206-0.639,0.377-0.805,0.377-0.836c0.152,0.082,0.403,0.563,0.434,0.755
	c0.043,0.297,0.074,0.682,0.108,1.113c0.181,2.216,0.45,5.557,2.815,5.798c0.167,0.038,0.568,0.072,1.062-0.226
	c1.113-0.676,1.937-2.605,2.445-5.736l0.076-0.499c0.184-1.252,0.436-2.967,1.468-4.052C36.016,26.304,37.463,23.065,36.776,20.099z
	 M14.697,15.637c-0.048-0.06-0.05-0.122-0.046-0.154c0.003-0.033,0.019-0.096,0.077-0.146l2.97-2.426
	c0.06-0.049,0.123-0.052,0.155-0.047c0.033,0.003,0.096,0.018,0.143,0.075l1.938,2.373l-3.297,2.694L14.697,15.637z M14.095,21.654
	c-0.049-0.06-0.051-0.123-0.047-0.155c0.002-0.033,0.017-0.096,0.074-0.144l9.59-7.84c0.049-0.039,0.1-0.048,0.135-0.048
	c0.064,0,0.125,0.027,0.166,0.08l2.427,2.965c0.05,0.061,0.051,0.125,0.048,0.158c-0.004,0.032-0.018,0.094-0.077,0.143l-9.589,7.84
	c-0.135,0.112-0.237,0.047-0.301-0.029L14.095,21.654z M23.896,20.16l1.942,2.373c0.045,0.054,0.049,0.112,0.045,0.151
	c-0.004,0.033-0.018,0.098-0.078,0.146l-2.967,2.426c-0.091,0.072-0.228,0.061-0.3-0.029l-1.938-2.374L23.896,20.16z M34.098,26.868
	c-1.252,1.315-1.541,3.29-1.732,4.598l-0.073,0.482c-0.583,3.582-1.446,4.669-1.909,4.998c-0.238,0.169-0.391,0.148-0.373,0.154
	c-0.035-0.012-0.074-0.02-0.111-0.022c-1.561-0.135-1.791-2.993-1.944-4.886c-0.037-0.457-0.069-0.863-0.116-1.177
	c-0.048-0.334-0.484-1.539-1.332-1.61c-0.938-0.1-1.292,1.131-1.42,1.529c-0.146,0.46-0.256,1.131-0.381,1.908
	c-0.24,1.488-0.604,3.736-1.385,4.218c-0.104,0.063-0.262,0.127-0.537,0.039c-0.039-0.013-0.104-0.021-0.145-0.023
	c-0.021-0.001-2.035-0.194-2.305-6.579c-0.011-0.221-0.126-0.837-0.162-1.004c-0.255-1.138-0.765-2.017-1.883-3.246
	c-0.253-0.275-0.48-0.596-0.688-0.94l2.226-1.819l1.938,2.375c0.238,0.292,0.588,0.441,0.938,0.441c0.271,0,0.541-0.088,0.767-0.271
	l2.969-2.426c0.252-0.207,0.408-0.499,0.439-0.823c0.03-0.321-0.064-0.636-0.27-0.884l-1.94-2.371l2.196-1.796
	c0.212,0.073,0.452,0.007,0.579-0.19c0.935-1.437,3.873-1.121,5.166-0.643c1.739,0.645,2.812,1.797,3.19,3.427
	C36.381,22.819,35.184,25.728,34.098,26.868z"/>
</svg>
