<?xml version="1.0" encoding="utf-8"?>
<!-- Generator: Adobe Illustrator 16.0.4, SVG Export Plug-In . SVG Version: 6.00 Build 0)  -->
<!DOCTYPE svg PUBLIC "-//W3C//DTD SVG 1.1//EN" "http://www.w3.org/Graphics/SVG/1.1/DTD/svg11.dtd">
<svg version="1.1" id="Layer_1" xmlns="http://www.w3.org/2000/svg" xmlns:xlink="http://www.w3.org/1999/xlink" x="0px" y="0px"
	 width="50px" height="50px" viewBox="0 0 50 50" enable-background="new 0 0 50 50" xml:space="preserve">
<path d="M34.18,18.237c-1.024-1.157-2.514-1.875-3.885-1.875c-1.152,0-2.033,0.493-2.416,1.356
	c-0.562,1.266-0.533,2.477-0.285,3.651h-1.311v-5.114c0-0.275-0.225-0.5-0.5-0.5s-0.5,0.225-0.5,0.5v5.114h-0.381v-5.114
	c0-0.275-0.224-0.5-0.5-0.5c-0.276,0-0.5,0.225-0.5,0.5v7.141h-1.398c0.144-1.002,0.091-2.031-0.383-3.102
	c-0.383-0.861-1.263-1.355-2.416-1.355c-1.371,0-2.859,0.719-3.885,1.875c-0.866,0.979-1.829,2.72-1.496,5.462
	c0.674,5.551,5.354,7.362,6.892,7.362c0.888,0,0.945-0.565,0.948-0.682c0.004-0.219-0.09-0.465-0.261-0.913
	c-0.382-1.001-1.093-2.864-0.547-4.669c0.124-0.41,0.261-0.812,0.396-1.21c0.198-0.582,0.392-1.172,0.546-1.771h1.604v9.35
	c0,0.275,0.224,0.5,0.5,0.5c0.276,0,0.5-0.225,0.5-0.5v-9.35h0.381v9.35c0,0.275,0.225,0.5,0.5,0.5s0.5-0.225,0.5-0.5V22.37h1.568
	c0.123,0.409,0.259,0.815,0.396,1.218c0.136,0.397,0.272,0.801,0.396,1.209c0.547,1.807-0.164,3.669-0.547,4.67
	c-0.17,0.447-0.265,0.694-0.261,0.913c0.003,0.114,0.062,0.683,0.949,0.683c1.537,0,6.217-1.813,6.892-7.363
	C36.01,20.957,35.047,19.215,34.18,18.237z M20.806,25.844c-0.139,0.408-0.278,0.821-0.406,1.242
	c-0.645,2.131,0.146,4.203,0.569,5.314c0.028,0.074,0.06,0.154,0.088,0.23c-1.315-0.129-5.166-1.754-5.74-6.477
	c-0.288-2.372,0.522-3.854,1.253-4.678c0.841-0.948,2.042-1.539,3.136-1.539c0.739,0,1.287,0.278,1.502,0.764
	C21.97,22.42,21.431,24.007,20.806,25.844z M25.283,23.396h-0.381v-1.025h0.381V23.396z M34.684,23.578
	c-0.574,4.723-4.426,6.348-5.739,6.477c0.028-0.076,0.06-0.156,0.086-0.229c0.425-1.112,1.215-3.185,0.569-5.315
	c-0.127-0.421-0.268-0.834-0.405-1.242c-0.158-0.463-0.31-0.91-0.437-1.348c0-0.017,0.01-0.029,0.01-0.048
	c0-0.104-0.041-0.196-0.096-0.276c-0.308-1.177-0.4-2.293,0.121-3.47c0.215-0.485,0.764-0.763,1.502-0.763
	c1.094,0,2.295,0.589,3.137,1.537C34.161,19.725,34.973,21.206,34.684,23.578z"/>
</svg>
