<?xml version="1.0" encoding="utf-8"?>
<!-- Generator: Adobe Illustrator 16.0.4, SVG Export Plug-In . SVG Version: 6.00 Build 0)  -->
<!DOCTYPE svg PUBLIC "-//W3C//DTD SVG 1.1//EN" "http://www.w3.org/Graphics/SVG/1.1/DTD/svg11.dtd">
<svg version="1.1" id="Layer_1" xmlns="http://www.w3.org/2000/svg" xmlns:xlink="http://www.w3.org/1999/xlink" x="0px" y="0px"
	 width="50px" height="50px" viewBox="0 0 50 50" enable-background="new 0 0 50 50" xml:space="preserve">
<path d="M29.923,23.093c-0.928,0-1.682,0.754-1.682,1.682v1.964c-0.046-0.054-0.081-0.11-0.132-0.16
	c-0.932-0.933-2.559-0.933-3.49,0c-0.963,0.962-0.963,2.528,0,3.489c0.467,0.468,1.087,0.725,1.744,0.725
	c0.66,0,1.279-0.257,1.746-0.725c0.1-0.098,0.182-0.207,0.26-0.316c0.253,0.609,0.854,1.041,1.554,1.041
	c0.929,0,1.683-0.754,1.683-1.682v-4.336C31.605,23.847,30.852,23.093,29.923,23.093z M29.923,23.812
	c0.531,0,0.964,0.432,0.964,0.963v1.808H28.96v-1.808C28.96,24.243,29.393,23.812,29.923,23.812z M25.127,27.085
	c0.331-0.33,0.771-0.513,1.236-0.513c0.346,0,0.675,0.101,0.957,0.284l-2.422,2.422C24.456,28.601,24.531,27.681,25.127,27.085z
	 M27.604,29.56c-0.576,0.576-1.521,0.649-2.191,0.226l2.419-2.419C28.271,28.044,28.197,28.964,27.604,29.56z M29.923,30.072
	c-0.53,0-0.963-0.433-0.963-0.964v-1.808h1.927v1.808C30.887,29.642,30.454,30.072,29.923,30.072z M34.389,27.06
	c0-2.156-1.102-4.06-2.77-5.179l0.001-1.321c-0.005-1.478-1.207-2.678-2.683-2.678c-0.002,0-0.002,0-0.004,0l-3.031,0.003
	c1.193-0.759,1.99-2.091,1.99-3.608c0-2.357-1.918-4.276-4.277-4.276c-2.358,0-4.277,1.919-4.277,4.276
	c0,1.521,0.801,2.854,1.999,3.613l-3.048,0.004c-1.479,0-2.68,1.205-2.678,2.684v9.042c0,0.198,0.16,0.358,0.359,0.358h3.076v7.342
	c0,1.478,1.15,2.681,2.566,2.681h4c1.416,0,2.568-1.203,2.568-2.681v-4.03C31.605,33.272,34.389,30.485,34.389,27.06z
	 M20.057,14.276c0-1.963,1.598-3.56,3.56-3.56c1.963,0,3.56,1.597,3.56,3.56c0,1.962-1.597,3.558-3.56,3.558
	C21.652,17.834,20.057,16.238,20.057,14.276z M25.615,39.28h-1.68c0.022-0.049,0.039-0.1,0.039-0.155V32.56
	c0-0.197-0.16-0.358-0.359-0.358c-0.198,0-0.359,0.161-0.359,0.358v6.565c0,0.056,0.016,0.106,0.039,0.155h-1.68
	c-1.02,0-1.85-0.881-1.85-1.963v-7.692c0-0.002,0.002-0.004,0.002-0.007s-0.002-0.004-0.002-0.008v-6.133
	c0-0.197-0.16-0.358-0.358-0.358s-0.359,0.161-0.359,0.358v5.78h-2.717v-8.684c-0.001-0.522,0.202-1.017,0.571-1.388
	c0.371-0.371,0.863-0.575,1.388-0.576l10.646-0.012h0.002c1.08,0,1.961,0.881,1.963,1.961v0.91
	c-0.828-0.408-1.758-0.645-2.742-0.645c-3.436,0-6.23,2.795-6.23,6.23c0,3.201,2.428,5.844,5.537,6.19v4.069
	C27.464,38.399,26.635,39.28,25.615,39.28z M28.157,32.569c-3.039,0-5.513-2.473-5.513-5.512s2.474-5.513,5.513-5.513
	c3.04,0,5.512,2.474,5.512,5.513C33.669,30.099,31.197,32.569,28.157,32.569z"/>
</svg>
