<?xml version="1.0" encoding="utf-8"?>
<!-- Generator: Adobe Illustrator 16.0.4, SVG Export Plug-In . SVG Version: 6.00 Build 0)  -->
<!DOCTYPE svg PUBLIC "-//W3C//DTD SVG 1.1//EN" "http://www.w3.org/Graphics/SVG/1.1/DTD/svg11.dtd">
<svg version="1.1" id="Layer_1" xmlns="http://www.w3.org/2000/svg" xmlns:xlink="http://www.w3.org/1999/xlink" x="0px" y="0px"
	 width="50px" height="50px" viewBox="0 0 50 50" enable-background="new 0 0 50 50" xml:space="preserve">
<path d="M18.203,24.148c-1.942,3.795-1.525,5.619-0.667,7.97c0.095,0.26-0.039,0.547-0.299,0.642
	c-0.057,0.021-0.114,0.03-0.172,0.03c-0.203,0-0.396-0.126-0.469-0.328c-0.92-2.519-1.406-4.622,0.715-8.769
	c2.4-4.688,0.498-6.541,0.416-6.616c-0.201-0.187-0.216-0.502-0.031-0.704c0.185-0.204,0.494-0.223,0.699-0.04
	C18.502,16.428,20.981,18.721,18.203,24.148z M32.688,23.693c-2.395-4.676-0.508-6.53-0.416-6.615
	c0.203-0.186,0.221-0.498,0.039-0.703c-0.186-0.207-0.502-0.225-0.707-0.042c-0.105,0.095-2.586,2.388,0.193,7.815
	c1.941,3.795,1.525,5.619,0.667,7.97c-0.095,0.26,0.039,0.547,0.298,0.642c0.057,0.021,0.115,0.03,0.172,0.03
	c0.205,0,0.396-0.126,0.471-0.328C34.323,29.943,34.811,27.84,32.688,23.693z M29.592,26.464c0.399,0.573,1.039,2.118,0.458,3.231
	c-0.256,0.488-0.845,1.072-2.204,1.072c-0.271,0-0.568-0.022-0.888-0.068c0.106,0.791,0.155,1.971-0.358,2.617
	c-0.248,0.312-0.595,0.477-1.004,0.477c-0.256,0-0.529-0.062-0.833-0.189c-0.959-0.402-1.262-2.11-1-3.528
	c0.297-1.609,1.234-2.597,2.511-2.64c0.004,0,0.104-0.002,0.108-0.002c0.093,0,0.306-0.002,0.362-0.041
	c-0.006,0,0.059-0.207-0.244-0.885l-0.098-0.207c-0.184-0.391-0.438-0.933-0.52-1.479c-0.673,0.316-1.611,0.679-2.375,0.679
	c-0.201,0-0.378-0.024-0.529-0.065c0.054,0.291,0.17,0.623,0.401,0.949c0.365,0.518,0.601,1.949,0.164,2.793
	c-0.376,0.725-1.147,0.907-2.08,0.404c-1.253-0.677-1.444-1.729-1.389-4.548c0.003-0.12-0.03-0.28-0.062-0.461
	c-0.104-0.601-0.248-1.421,0.234-1.996c0.441-0.524,1.227-0.658,2.436-0.396c0.334,0.07,0.764,0.111,1.18,0.111
	c0.843,0,1.529-0.167,1.884-0.457c0.195-0.159,1.213-0.951,2.143-0.951c0.404,0,0.752,0.148,1.004,0.432
	c0.406,0.457,0.541,1.232,0.412,2.373C29.165,24.943,29.273,26.007,29.592,26.464z M28.771,27.035
	c-0.635-0.914-0.561-2.559-0.459-3.457c0.129-1.129-0.071-1.492-0.164-1.596c-0.043-0.049-0.106-0.098-0.258-0.098
	c-0.453,0-1.15,0.434-1.509,0.727c-0.688,0.562-1.75,0.683-2.516,0.683c-0.483,0-0.989-0.05-1.391-0.135
	c-0.332-0.072-0.619-0.108-0.854-0.108c-0.211,0-0.487,0.029-0.605,0.17c-0.184,0.219-0.086,0.774-0.016,1.182
	c0.044,0.255,0.08,0.483,0.076,0.652c-0.059,2.875,0.189,3.284,0.863,3.646c0.256,0.139,0.416,0.168,0.504,0.168
	c0.074,0,0.141-0.012,0.213-0.151c0.242-0.467,0.09-1.498-0.092-1.755c-0.924-1.306-0.557-2.665-0.541-2.722
	c0.061-0.214,0.252-0.361,0.474-0.365c0.229-0.008,0.418,0.138,0.485,0.349c0.033,0.104,0.088,0.276,0.524,0.276
	c0.877,0,2.28-0.722,2.747-1c0.079-0.047,0.168-0.069,0.256-0.069c0.135,0,0.266,0.053,0.362,0.154
	c0.161,0.17,0.185,0.428,0.054,0.622c-0.236,0.354,0.182,1.24,0.383,1.667l0.104,0.225c0.377,0.844,0.43,1.43,0.164,1.846
	c-0.309,0.479-0.877,0.486-1.184,0.488c-1.201,0.039-1.55,1.287-1.647,1.821c-0.235,1.278,0.133,2.312,0.403,2.427
	c0.541,0.228,0.585,0.116,0.666,0.014c0.328-0.41,0.219-1.713,0.035-2.508c-0.037-0.166,0.012-0.343,0.133-0.465
	c0.121-0.123,0.298-0.175,0.466-0.135c1.459,0.33,2.423,0.205,2.715-0.354C29.488,28.609,29.087,27.488,28.771,27.035z"/>
</svg>
