<?xml version="1.0" encoding="utf-8"?>
<!-- Generator: Adobe Illustrator 16.0.4, SVG Export Plug-In . SVG Version: 6.00 Build 0)  -->
<!DOCTYPE svg PUBLIC "-//W3C//DTD SVG 1.1//EN" "http://www.w3.org/Graphics/SVG/1.1/DTD/svg11.dtd">
<svg version="1.1" id="Layer_1" xmlns="http://www.w3.org/2000/svg" xmlns:xlink="http://www.w3.org/1999/xlink" x="0px" y="0px"
	 width="50px" height="50px" viewBox="0 0 50 50" enable-background="new 0 0 50 50" xml:space="preserve">
<path d="M19.717,22.314c-0.118-2.082,1.118-4.148,2.316-5.188c2.947-2.556,5.758-6.366,5.945-6.774
	c0.088-0.261,0.363-0.393,0.628-0.305c0.263,0.087,0.399,0.383,0.312,0.645c-0.17,0.509-3.196,4.559-6.23,7.19
	c-1.021,0.886-2.073,2.632-1.974,4.376c0.078,1.378,0.854,2.582,2.31,3.58c1.262,0.866,4.064,1.441,6.208-0.702
	c0.392-0.391,1.48-1.86-0.896-4.372c-1.456-1.537-1.205-3.47,0.838-6.457c0.862-1.262,2.153-3.168,2.153-3.168l0.828,0.562
	c0,0-1.293,1.907-2.155,3.171c-2.162,3.162-1.729,4.37-0.938,5.205c2.384,2.518,2.017,4.63,0.878,5.768
	c-1.306,1.307-2.821,1.768-4.196,1.768c-1.332,0-2.532-0.432-3.284-0.947C20.737,25.48,19.814,24.018,19.717,22.314z M31.425,27.281
	c-0.193-0.674-0.745-0.857-0.808-0.876c-0.157-0.05-0.326-0.015-0.454,0.086c-1.742,1.38-3.527,1.96-5.312,1.729
	c-3.137-0.411-5.269-3.222-5.289-3.25c-0.131-0.176-0.361-0.247-0.567-0.173c-0.075,0.026-0.744,0.283-1.029,1.124
	c-0.344,1.015,0.046,2.392,1.157,4.089c0.348,0.531,0.77,1.037,1.217,1.572c1.49,1.785,3.18,3.809,3.075,7.886
	c-0.007,0.276,0.211,0.507,0.487,0.513c0.004,0,0.009,0,0.013,0c0.271,0,0.493-0.215,0.5-0.486c0.114-4.455-1.783-6.727-3.308-8.553
	c-0.428-0.512-0.832-0.996-1.148-1.479c-1.209-1.849-1.179-2.797-1.054-3.197c0.042-0.136,0.104-0.238,0.167-0.316
	c0.75,0.859,2.791,2.885,5.641,3.262c1.945,0.255,3.877-0.309,5.742-1.684c0.006,0.018,0.011,0.035,0.016,0.055
	c0.071,0.304,0.021,1.258-1.987,3.536c-1.339,1.521-1.248,4.942,0.21,7.963c0.121,0.249,0.42,0.354,0.668,0.231
	c0.248-0.119,0.354-0.418,0.232-0.668c-1.272-2.635-1.431-5.65-0.36-6.867C31,29.771,31.717,28.301,31.425,27.281z M25.665,24.664
	c-0.271,0.05-0.452,0.311-0.403,0.581c0.044,0.241,0.254,0.411,0.491,0.411c0.03,0,0.06-0.004,0.09-0.008
	c1.289-0.233,2.101-0.771,2.413-1.599c0.557-1.473-0.801-3.215-0.858-3.288c-0.172-0.218-0.485-0.255-0.702-0.083
	c-0.216,0.171-0.254,0.485-0.083,0.702c0.299,0.379,1.006,1.535,0.708,2.317C27.139,24.173,26.583,24.498,25.665,24.664z"/>
</svg>
