<?xml version="1.0" encoding="utf-8"?>
<!-- Generator: Adobe Illustrator 16.0.4, SVG Export Plug-In . SVG Version: 6.00 Build 0)  -->
<!DOCTYPE svg PUBLIC "-//W3C//DTD SVG 1.1//EN" "http://www.w3.org/Graphics/SVG/1.1/DTD/svg11.dtd">
<svg version="1.1" id="Layer_1" xmlns="http://www.w3.org/2000/svg" xmlns:xlink="http://www.w3.org/1999/xlink" x="0px" y="0px"
	 width="50px" height="50px" viewBox="0 0 50 50" enable-background="new 0 0 50 50" xml:space="preserve">
<g>
	<path d="M38.102,21.031c0-0.361-0.074-0.717-0.221-1.062c0.197-0.347,0.301-0.725,0.301-1.104c0-0.508-0.18-0.999-0.513-1.421
		c0.284-0.447,0.433-0.948,0.433-1.47c0-1.36-1.02-2.537-2.408-2.827c-0.797-1.199-2.488-1.705-3.87-1.084
		c-1.138-0.508-2.497-0.269-3.374,0.504c-0.954-1.003-2.605-0.99-3.548,0.024c-1.044-0.898-2.779-1.057-4.017-0.308
		c-1.196-0.744-2.842-0.608-3.894,0.297c-0.514-0.307-1.104-0.473-1.702-0.473c-1.78,0-3.229,1.374-3.229,3.063
		c0,0.489,0.121,0.964,0.354,1.394c-0.386,0.506-0.595,1.11-0.595,1.737c0,0.367,0.075,0.729,0.223,1.081
		c-0.147,0.271-0.223,0.555-0.223,0.845c0,0.53,0.237,1.025,0.67,1.425c-0.433,0.399-0.67,0.895-0.67,1.425
		c0,0.532,0.235,1.029,0.67,1.433c-0.099,0.306-0.148,0.618-0.148,0.935c0,1.563,1.182,2.882,2.722,3.073
		c0.255,0.221,0.531,0.426,0.821,0.612c1.303,0.836,2.854,1.309,3.385,0.482c0.465-0.72-0.304-1.698-1.238-2.438
		c0.343-0.509,0.527-1.106,0.527-1.73c0-0.631-0.19-1.231-0.554-1.754c0.074-0.199,0.112-0.404,0.112-0.613
		c0-0.53-0.237-1.025-0.67-1.425c0.433-0.399,0.67-0.895,0.67-1.425c0-0.29-0.075-0.573-0.223-0.845
		c0.147-0.352,0.223-0.714,0.223-1.081c0-0.192-0.021-0.385-0.061-0.573c1.044,0.363,2.238,0.167,3.092-0.481
		c1.21,0.593,2.78,0.384,3.754-0.454c0.942,1.015,2.595,1.027,3.548,0.024c0.882,0.776,2.235,1.014,3.375,0.502
		c0.2,0.088,0.407,0.154,0.625,0.2l0.024,0.038c-0.281,0.397-0.429,0.843-0.429,1.307c0,0.319,0.073,0.634,0.218,0.938
		c-0.195,0.388-0.298,0.807-0.298,1.228c0,0.562,0.179,1.112,0.509,1.585c-0.281,0.396-0.429,0.842-0.429,1.306
		c0,0.433,0.132,0.855,0.38,1.233c-0.691,0.547-1.104,1.354-1.104,2.218l0.004,0.084c-0.406,0.314-0.723,0.729-0.914,1.188
		c-0.825-0.054-1.648,0.229-2.262,0.769c-0.487-0.293-1.051-0.451-1.625-0.451c-0.95,0-1.824,0.411-2.404,1.115
		c-1.951-0.435-3.714,1.027-3.714,2.833c0,0.471,0.124,0.935,0.361,1.355c-0.069,0.427,0.011,1.149,0.214,2.518
		c0.057,0.378,0.12,0.807,0.12,0.923c0,0.275,0.224,0.5,0.5,0.5s0.5-0.225,0.5-0.5c0-0.183-0.047-0.509-0.131-1.07
		c-0.094-0.632-0.289-1.945-0.246-2.162c0.113-0.169,0.113-0.39-0.001-0.559c-0.207-0.31-0.317-0.656-0.317-1.005
		c0-1.052,0.928-1.905,2.068-1.905c0.22,0,0.445,0.039,0.689,0.12c0.216,0.071,0.457-0.015,0.58-0.207
		c0.379-0.6,1.045-0.956,1.781-0.956c0.496,0,0.98,0.174,1.365,0.488c0.209,0.175,0.521,0.146,0.698-0.062
		c0.499-0.59,1.336-0.851,2.069-0.702c0.271,0.057,0.525-0.114,0.586-0.378c0.109-0.479,0.43-0.914,0.875-1.188
		c0.173-0.105,0.257-0.354,0.225-0.553l-0.021-0.194c0-0.685,0.412-1.318,1.074-1.657c0.145-0.074,0.244-0.214,0.268-0.375
		c0.021-0.16-0.033-0.322-0.15-0.434c-0.214-0.203-0.469-0.538-0.469-0.985c0-0.425,0.234-0.751,0.432-0.949
		c0.188-0.191,0.192-0.499,0.008-0.695c-0.336-0.353-0.52-0.796-0.52-1.246c0-0.332,0.098-0.652,0.291-0.954
		c0.104-0.163,0.105-0.372,0.002-0.536c-0.142-0.225-0.213-0.452-0.213-0.676c0-0.424,0.234-0.75,0.432-0.949
		c0.188-0.192,0.192-0.5,0.008-0.695c-0.112-0.118-0.211-0.251-0.289-0.395c-0.075-0.14-0.215-0.234-0.371-0.256
		c-0.272-0.036-0.528-0.118-0.762-0.246c-0.148-0.08-0.33-0.08-0.479,0c-0.978,0.533-2.177,0.234-2.767-0.577
		c-0.1-0.137-0.236-0.226-0.43-0.205c-0.168,0.008-0.32,0.1-0.406,0.245c-0.299,0.508-0.783,0.812-1.295,0.812
		c-0.519,0-1.006-0.311-1.308-0.83c-0.084-0.146-0.234-0.239-0.402-0.249c-0.164-0.013-0.329,0.064-0.43,0.198
		c-0.673,0.895-2.174,1.147-3.192,0.503c-0.193-0.125-0.448-0.098-0.614,0.062c-0.794,0.762-2.149,0.838-3.047,0.123
		c-0.213-0.172-0.571-0.081-0.744,0.129l-0.076,0.086c-0.183,0.166-0.217,0.44-0.081,0.646c0.215,0.323,0.323,0.672,0.323,1.036
		c0,0.296-0.078,0.591-0.233,0.878c-0.092,0.171-0.077,0.379,0.039,0.535c0.129,0.174,0.194,0.347,0.194,0.513
		c0,0.366-0.281,0.725-0.771,0.982c-0.164,0.087-0.267,0.257-0.267,0.442s0.103,0.355,0.267,0.442
		c0.49,0.258,0.771,0.616,0.771,0.982c0,0.142-0.041,0.278-0.125,0.42c-0.109,0.185-0.09,0.418,0.05,0.581
		c0.235,0.275,0.517,0.736,0.517,1.366c0,0.554-0.214,1.076-0.603,1.475c-0.104,0.105-0.155,0.252-0.14,0.398
		c0.015,0.147,0.094,0.28,0.216,0.363c0.831,0.566,1.254,1.113,1.352,1.362c-0.271,0.021-1.011-0.146-1.959-0.755
		c-0.292-0.188-0.567-0.397-0.817-0.623c-0.083-0.075-0.189-0.12-0.301-0.128c-1.102-0.075-1.965-0.994-1.965-2.094
		c0-0.299,0.067-0.597,0.202-0.886c0.103-0.221,0.03-0.484-0.171-0.622c-0.207-0.142-0.553-0.441-0.553-0.859
		c0-0.366,0.281-0.725,0.771-0.982c0.164-0.087,0.267-0.257,0.267-0.442s-0.103-0.355-0.267-0.442
		c-0.49-0.258-0.771-0.616-0.771-0.982c0-0.166,0.065-0.339,0.194-0.513c0.116-0.156,0.131-0.364,0.039-0.535
		c-0.155-0.287-0.233-0.582-0.233-0.878c0-0.492,0.202-0.968,0.569-1.337c0.173-0.175,0.194-0.448,0.05-0.646
		c-0.248-0.341-0.379-0.737-0.379-1.147c0-1.138,1-2.063,2.229-2.063c0.529,0,1.029,0.176,1.447,0.509
		c0.209,0.167,0.512,0.141,0.688-0.061c0.766-0.873,2.205-1.013,3.149-0.271c0.181,0.141,0.434,0.143,0.614,0.002
		c1.005-0.773,2.65-0.564,3.36,0.381c0.101,0.134,0.264,0.21,0.43,0.198c0.168-0.01,0.318-0.104,0.402-0.249
		c0.301-0.52,0.789-0.83,1.307-0.83c0.512,0,0.996,0.304,1.297,0.812c0.084,0.146,0.238,0.237,0.406,0.245
		c0.188,0.026,0.329-0.069,0.428-0.205c0.593-0.812,1.808-1.104,2.767-0.579c0.149,0.081,0.331,0.083,0.479,0
		c1.045-0.57,2.359-0.171,2.883,0.782c0.076,0.14,0.216,0.235,0.373,0.256c1.018,0.132,1.783,0.938,1.783,1.877
		c0,0.536-0.25,0.937-0.459,1.178c-0.179,0.206-0.16,0.516,0.041,0.698c0.229,0.206,0.498,0.55,0.498,1.015
		c0,0.267-0.093,0.526-0.274,0.771c-0.117,0.157-0.132,0.369-0.036,0.54c0.152,0.279,0.23,0.566,0.23,0.854
		c0,0.535-0.25,0.937-0.459,1.179c-0.179,0.205-0.16,0.516,0.041,0.697c0.321,0.291,0.498,0.651,0.498,1.015
		c0,0.57-0.416,1.1-1.086,1.383c-0.152,0.064-0.264,0.199-0.297,0.36c-0.031,0.162,0.016,0.329,0.131,0.447
		c0.342,0.354,0.53,0.802,0.53,1.26c0,0.634-0.345,1.225-0.922,1.581c-0.172,0.105-0.257,0.34-0.226,0.539l0.022,0.207
		c0,1.051-0.929,1.905-2.069,1.905c-0.15,0-0.299-0.018-0.44-0.046c-0.269-0.058-0.526,0.115-0.587,0.379
		c-0.199,0.877-1.049,1.514-2.021,1.514c-0.504,0-0.976-0.169-1.365-0.489c-0.209-0.172-0.521-0.146-0.699,0.062
		c-0.541,0.64-1.369,0.94-2.315,0.627c-0.212-0.071-0.486,0.077-0.612,0.266c-0.112,0.169-0.138,0.34-0.024,0.508
		c0.09,0.278-0.049,1.602-0.108,2.166c-0.041,0.395-0.073,0.718-0.073,0.865c0,0.275,0.224,0.5,0.5,0.5c0.276,0,0.5-0.225,0.5-0.5
		c0-0.129,0.031-0.414,0.068-0.762c0.092-0.869,0.145-1.491,0.141-1.938c0.877,0.095,1.729-0.197,2.367-0.757
		c0.487,0.293,1.051,0.451,1.623,0.451c1.271,0,2.405-0.757,2.857-1.853c1.738,0.105,3.262-1.236,3.262-2.899l-0.002-0.082
		c0.71-0.551,1.126-1.368,1.126-2.245c0-0.511-0.146-1.008-0.417-1.448c0.715-0.483,1.139-1.212,1.139-2.002
		c0-0.508-0.18-1-0.513-1.421C37.953,22.052,38.102,21.551,38.102,21.031z"/>
</g>
</svg>
