<?xml version="1.0" encoding="utf-8"?>
<!-- Generator: Adobe Illustrator 16.0.4, SVG Export Plug-In . SVG Version: 6.00 Build 0)  -->
<!DOCTYPE svg PUBLIC "-//W3C//DTD SVG 1.1//EN" "http://www.w3.org/Graphics/SVG/1.1/DTD/svg11.dtd">
<svg version="1.1" id="Layer_1" xmlns="http://www.w3.org/2000/svg" xmlns:xlink="http://www.w3.org/1999/xlink" x="0px" y="0px"
	 width="50px" height="50px" viewBox="0 0 50 50" enable-background="new 0 0 50 50" xml:space="preserve">
<path d="M25.831,35.856c-0.376,0-0.802-0.103-1.263-0.303c-1.426-0.623-1.875-3.465-1.471-5.742
	c0.465-2.621,1.913-4.228,3.876-4.295l0.178-0.004c0.312-0.004,0.742-0.008,0.865-0.209c0.062-0.1,0.217-0.531-0.367-1.891
	l-0.164-0.369c-0.351-0.771-0.862-1.906-0.877-2.951c-1.096,0.572-2.871,1.365-4.266,1.367c-0.551,0-0.969-0.122-1.284-0.307
	c0.033,0.664,0.215,1.533,0.799,2.392c0.566,0.832,0.903,3.173,0.248,4.485c-0.537,1.078-1.649,1.32-3.019,0.556
	c-1.94-1.085-2.237-2.846-2.146-7.582c0.004-0.2-0.051-0.522-0.107-0.866c-0.164-0.974-0.389-2.307,0.318-3.183
	c0.646-0.8,1.875-0.99,3.744-0.569c0.58,0.129,1.324,0.202,2.043,0.202c1.506,0,2.699-0.309,3.362-0.872
	c0.312-0.262,1.931-1.572,3.367-1.572c0.579,0,1.072,0.218,1.429,0.631c0.613,0.715,0.812,1.975,0.605,3.851
	c-0.252,2.292-0.053,4.181,0.533,5.054c0.631,0.94,1.644,3.463,0.742,5.254c-0.744,1.481-2.504,1.996-5.272,1.481
	c0.198,1.246,0.423,3.597-0.46,4.749C26.899,35.617,26.41,35.856,25.831,35.856L25.831,35.856z M27.362,18.562
	c0.135,0,0.267,0.058,0.363,0.162c0.16,0.178,0.184,0.444,0.053,0.646c-0.5,0.777,0.197,2.316,0.611,3.232l0.174,0.388
	c0.58,1.349,0.674,2.262,0.295,2.874c-0.414,0.674-1.217,0.682-1.696,0.688l-0.154,0.006c-2.104,0.069-2.748,2.432-2.927,3.442
	c-0.384,2.167,0.165,4.286,0.875,4.597c0.719,0.312,1.211,0.308,1.508-0.078c0.654-0.854,0.423-3.305,0.123-4.649
	c-0.039-0.172,0.012-0.354,0.133-0.481c0.121-0.129,0.297-0.184,0.465-0.141c2.631,0.616,4.338,0.341,4.91-0.795
	c0.637-1.266-0.142-3.38-0.678-4.18c-1.002-1.49-0.873-4.252-0.707-5.765c0.212-1.923-0.078-2.714-0.357-3.04
	c-0.168-0.195-0.385-0.285-0.683-0.285c-0.913,0-2.188,0.877-2.733,1.34c-1.078,0.914-2.768,1.104-3.996,1.104
	c-0.785,0-1.607-0.083-2.254-0.228c-1.43-0.319-2.391-0.24-2.768,0.226c-0.408,0.503-0.236,1.521-0.1,2.335
	c0.068,0.41,0.129,0.766,0.123,1.064c-0.096,4.896,0.3,5.91,1.619,6.646c0.395,0.221,0.73,0.333,1.002,0.333
	c0.199,0,0.455-0.051,0.653-0.45c0.478-0.957,0.171-2.898-0.177-3.41c-1.452-2.131-0.881-4.336-0.855-4.43
	c0.061-0.222,0.252-0.376,0.474-0.38c0.214,0,0.418,0.146,0.485,0.363c0.104,0.337,0.332,0.725,1.198,0.725
	c1.856-0.003,4.735-1.77,4.764-1.786C27.187,18.587,27.274,18.562,27.362,18.562z"/>
</svg>
