<?xml version="1.0" encoding="utf-8"?>
<!-- Generator: Adobe Illustrator 16.0.4, SVG Export Plug-In . SVG Version: 6.00 Build 0)  -->
<!DOCTYPE svg PUBLIC "-//W3C//DTD SVG 1.1//EN" "http://www.w3.org/Graphics/SVG/1.1/DTD/svg11.dtd">
<svg version="1.1" id="Layer_1" xmlns="http://www.w3.org/2000/svg" xmlns:xlink="http://www.w3.org/1999/xlink" x="0px" y="0px"
	 width="50px" height="50px" viewBox="0 0 50 50" enable-background="new 0 0 50 50" xml:space="preserve">
<path d="M23.543,24.017c-0.319-0.384-0.896-0.49-1.323-0.254c-0.338,0.187-0.548,0.541-0.548,0.926c0,0.226-0.182,0.406-0.407,0.406
	s-0.407-0.182-0.407-0.406c0-0.681,0.371-1.309,0.969-1.638c0.758-0.419,1.776-0.229,2.34,0.445
	c0.144,0.173,0.121,0.429-0.051,0.573C23.943,24.213,23.688,24.191,23.543,24.017z M31.387,26.545c0,0.227-0.182,0.406-0.406,0.406
	h-1.984c-1.289,1.746-3.888,3.396-4.025,3.48c-0.066,0.041-0.141,0.062-0.216,0.062c-0.075,0-0.15-0.021-0.216-0.062
	c-0.138-0.086-2.748-1.74-4.04-3.51H19.02c-0.225,0-0.407-0.182-0.407-0.406s0.182-0.406,0.407-0.406h0.995
	c-0.079-0.176-0.146-0.352-0.185-0.521c-0.089-0.268-0.14-0.582-0.14-0.899c0-1.104,0.602-2.123,1.57-2.66
	c1.118-0.613,2.566-0.437,3.494,0.396c0.93-0.833,2.38-1.008,3.492-0.396c0.969,0.537,1.57,1.556,1.57,2.66
	c0,0.317-0.051,0.633-0.149,0.938c-0.037,0.168-0.104,0.34-0.183,0.512h1.496C31.205,26.139,31.387,26.32,31.387,26.545z
	 M20.935,26.109h2.449c0.136,0,0.263,0.066,0.339,0.18l0.434,0.652l1.598-2.43c0.085-0.129,0.233-0.199,0.388-0.182
	c0.153,0.02,0.282,0.121,0.334,0.266l0.562,1.542h1.524c0.154-0.248,0.27-0.496,0.32-0.727c0.083-0.26,0.121-0.49,0.121-0.723
	c0-0.81-0.441-1.555-1.15-1.948c-0.91-0.5-2.117-0.274-2.785,0.528c-0.077,0.094-0.191,0.147-0.313,0.147
	c-0.121,0-0.235-0.054-0.313-0.147c-0.425-0.512-1.05-0.804-1.714-0.804c-0.378,0-0.74,0.093-1.074,0.276
	c-0.708,0.391-1.149,1.138-1.149,1.945c0,0.232,0.038,0.463,0.11,0.686C20.667,25.607,20.782,25.855,20.935,26.109z M27.943,26.951
	h-1.191c-0.171,0-0.324-0.105-0.382-0.268l-0.382-1.049L24.499,27.9c-0.075,0.115-0.203,0.184-0.338,0.184c0,0,0,0-0.001,0
	c-0.136,0-0.263-0.068-0.338-0.182l-0.654-0.98h-1.622c0.956,1.084,2.391,2.145,3.209,2.684
	C25.568,29.068,26.992,28.02,27.943,26.951z M15.237,31.781V19.845c0-0.226,0.182-0.408,0.407-0.408h18.711
	c0.226,0,0.408,0.184,0.408,0.408v11.936c0,0.225-0.183,0.406-0.408,0.406H15.644C15.419,32.188,15.237,32.006,15.237,31.781z
	 M16.051,31.375h17.898V20.251H16.051V31.375z M40,17.302c0,0.227-0.182,0.407-0.407,0.407h-2.39V32.98
	c0,0.908-0.74,1.648-1.648,1.648h-21.11c-0.909,0-1.649-0.74-1.649-1.648V17.709h-2.39c-0.225,0-0.407-0.183-0.407-0.407
	c0-0.224,0.182-0.406,0.407-0.406h29.187C39.818,16.896,40,17.079,40,17.302z M36.391,17.709H13.61V32.98
	c0,0.461,0.374,0.836,0.835,0.836h21.11c0.461,0,0.834-0.375,0.834-0.836V17.709H36.391z M10.407,16.185h29.187
	c0.225,0,0.407-0.183,0.407-0.408c0-0.223-0.183-0.405-0.407-0.405H10.407c-0.225,0-0.407,0.183-0.407,0.405
	C10,16.002,10.182,16.185,10.407,16.185z"/>
</svg>
