<?xml version="1.0" encoding="utf-8"?>
<!-- Generator: Adobe Illustrator 16.0.4, SVG Export Plug-In . SVG Version: 6.00 Build 0)  -->
<!DOCTYPE svg PUBLIC "-//W3C//DTD SVG 1.1//EN" "http://www.w3.org/Graphics/SVG/1.1/DTD/svg11.dtd">
<svg version="1.1" id="Layer_1" xmlns="http://www.w3.org/2000/svg" xmlns:xlink="http://www.w3.org/1999/xlink" x="0px" y="0px"
	 width="50px" height="50px" viewBox="0 0 50 50" enable-background="new 0 0 50 50" xml:space="preserve">
<path d="M21.75,28.577c0-0.437,0.354-0.79,0.791-0.79s0.791,0.354,0.791,0.79c0,0.922,0.749,1.671,1.669,1.671
	c0.437,0,0.791,0.354,0.791,0.79c0,0.438-0.354,0.791-0.791,0.791C23.208,31.829,21.75,30.37,21.75,28.577z M35.508,34.255
	c0,2.562-6.605,3.245-10.508,3.245c-3.903,0-10.508-0.684-10.508-3.245c0-1.544,2.371-2.354,4.698-2.772
	c-0.441-0.879-0.713-1.855-0.713-2.904c0-3.248,5.214-14.4,5.809-15.66c0.259-0.557,1.17-0.557,1.43,0
	c0.595,1.26,5.81,12.412,5.81,15.66c0,1.049-0.271,2.025-0.713,2.904C33.143,31.904,35.508,32.714,35.508,34.255z M20.058,28.577
	c0,2.728,2.217,4.944,4.942,4.944c2.727,0,4.943-2.219,4.943-4.944c0-2.138-3.104-9.401-4.943-13.44
	C23.161,19.176,20.058,26.439,20.058,28.577z M33.936,34.21c-0.119-0.187-1.287-0.86-4.106-1.285
	c-1.195,1.327-2.907,2.179-4.829,2.179s-3.634-0.852-4.828-2.179c-2.822,0.425-3.989,1.104-4.105,1.373
	c0.218,0.415,3.097,1.621,8.934,1.621S33.716,34.713,33.936,34.21z"/>
</svg>
