<?xml version="1.0" encoding="utf-8"?>
<!-- Generator: Adobe Illustrator 16.0.4, SVG Export Plug-In . SVG Version: 6.00 Build 0)  -->
<!DOCTYPE svg PUBLIC "-//W3C//DTD SVG 1.1//EN" "http://www.w3.org/Graphics/SVG/1.1/DTD/svg11.dtd">
<svg version="1.1" id="Layer_1" xmlns="http://www.w3.org/2000/svg" xmlns:xlink="http://www.w3.org/1999/xlink" x="0px" y="0px"
	 width="50px" height="50px" viewBox="0 0 50 50" enable-background="new 0 0 50 50" xml:space="preserve">
<g>
	<path d="M37.395,20.3c-0.529-0.797-1.726-1.763-4.412-1.833l-0.193-0.002c-0.54,0-1.223,0.052-1.943,0.106
		c-1.406,0.107-2.947,0.188-3.66,0.019c-0.684-0.161-1.529-0.523-2.428-0.907c-1.809-0.774-3.857-1.652-6.046-1.652
		c-0.578,0-1.142,0.063-1.677,0.189c-2.102,0.494-4.312,3.548-4.735,6.534c-0.252,1.776-0.676,9.292,2.063,10.868
		c0.384,0.219,0.922,0.346,1.478,0.346c1.095,0,2.024-0.467,2.556-1.277c1.147-1.761,2.148-2.875,8.019-3.581
		c4.081-0.489,5.423-1.601,6.401-2.409l0.086-0.07c0.348-0.287,0.912-0.629,1.51-0.994c1.359-0.825,2.9-1.761,3.322-2.849
		C37.957,22.21,38.003,21.214,37.395,20.3z M26.475,28.094l-0.181,0.023c-6.185,0.743-7.426,2.018-8.737,4.026
		c-0.484,0.743-1.361,0.823-1.717,0.823c-0.447,0-0.8-0.109-0.979-0.213c-1.803-1.035-1.982-6.969-1.572-9.858
		c0.393-2.777,2.458-5.345,3.975-5.702c0.461-0.108,0.946-0.163,1.447-0.163c1.982,0,3.934,0.835,5.652,1.571
		c0.689,0.295,1.352,0.577,1.959,0.778C26.508,19.88,28.135,24.531,26.475,28.094z M36.802,22.424
		c-0.3,0.771-1.747,1.651-2.909,2.357c-0.631,0.383-1.226,0.744-1.627,1.076l-0.088,0.072c-0.77,0.636-1.789,1.477-4.541,1.984
		c1.182-3.182,0.297-6.793-0.169-8.272c0.901,0.093,2.212,0.022,3.451-0.073c0.703-0.054,1.367-0.104,1.869-0.104l0.167,0.002
		c2.259,0.06,3.208,0.787,3.607,1.387C36.984,21.491,36.912,22.141,36.802,22.424z"/>
</g>
</svg>
