<?xml version="1.0" encoding="utf-8"?>
<!-- Generator: Adobe Illustrator 16.0.4, SVG Export Plug-In . SVG Version: 6.00 Build 0)  -->
<!DOCTYPE svg PUBLIC "-//W3C//DTD SVG 1.1//EN" "http://www.w3.org/Graphics/SVG/1.1/DTD/svg11.dtd">
<svg version="1.1" id="Layer_1" xmlns="http://www.w3.org/2000/svg" xmlns:xlink="http://www.w3.org/1999/xlink" x="0px" y="0px"
	 width="50px" height="50px" viewBox="0 0 50 50" enable-background="new 0 0 50 50" xml:space="preserve">
<path d="M27.986,21.175c-0.313-0.057-0.615-0.085-0.896-0.085c-1.723,0-2.546,1.008-2.97,2.115c-0.577-0.604-0.932-1.627-1.03-2.044
	c-0.062-0.269-0.33-0.435-0.601-0.372c-0.27,0.062-0.437,0.332-0.372,0.602c0.021,0.086,0.495,2.008,1.706,2.861
	c-0.081,0.4-0.131,0.778-0.168,1.082l-0.024,0.191c-0.212,1.64-1.817,2.049-3.522,2.246c-1.403,0.162-1.643,0.934-1.68,1.258
	c-0.091,0.787,0.586,1.539,1.266,1.783c1.302,0.47,2.568,0.707,3.766,0.707c2.448,0,4.625-1.021,5.97-2.799
	c1.836-2.427,1.725-4.207,1.309-5.273C30.283,22.286,29.204,21.395,27.986,21.175z M28.631,28.117
	c-1.154,1.525-3.04,2.402-5.172,2.402c-1.081,0-2.233-0.219-3.427-0.647c-0.358-0.129-0.637-0.509-0.61-0.729
	c0.021-0.179,0.328-0.322,0.802-0.377c1.215-0.143,4.058-0.473,4.399-3.111l0.024-0.197c0.211-1.704,0.574-3.367,2.442-3.367
	c0.224,0,0.466,0.023,0.72,0.069c0.67,0.12,1.596,0.626,1.996,1.651C30.27,25,29.863,26.489,28.631,28.117z M18.203,24.65
	c-1.942,3.793-1.525,5.619-0.667,7.969c0.095,0.26-0.039,0.547-0.299,0.642c-0.057,0.021-0.114,0.03-0.172,0.03
	c-0.203,0-0.396-0.126-0.469-0.328c-0.92-2.52-1.406-4.622,0.715-8.768c2.4-4.689,0.498-6.541,0.416-6.617
	c-0.201-0.188-0.216-0.502-0.031-0.704c0.185-0.204,0.494-0.222,0.699-0.04C18.502,16.93,20.981,19.223,18.203,24.65z
	 M33.404,32.963c-0.074,0.202-0.266,0.328-0.471,0.328c-0.057,0-0.115-0.01-0.172-0.03c-0.259-0.095-0.393-0.382-0.298-0.642
	c0.858-2.35,1.274-4.176-0.667-7.969c-2.779-5.43-0.3-7.723-0.193-7.816c0.205-0.182,0.522-0.165,0.707,0.042
	c0.182,0.205,0.164,0.519-0.039,0.703c-0.092,0.085-1.979,1.938,0.416,6.616C34.811,28.341,34.323,30.443,33.404,32.963z"/>
</svg>
