<?xml version="1.0" encoding="utf-8"?>
<!-- Generator: Adobe Illustrator 16.0.4, SVG Export Plug-In . SVG Version: 6.00 Build 0)  -->
<!DOCTYPE svg PUBLIC "-//W3C//DTD SVG 1.1//EN" "http://www.w3.org/Graphics/SVG/1.1/DTD/svg11.dtd">
<svg version="1.1" id="Layer_1" xmlns="http://www.w3.org/2000/svg" xmlns:xlink="http://www.w3.org/1999/xlink" x="0px" y="0px"
	 width="50px" height="50px" viewBox="0 0 50 50" enable-background="new 0 0 50 50" xml:space="preserve">
<g>
	<path d="M22.532,9.28c0,0-6.418,0.307-7.182,7.947c0,0-0.076,2.062-1.451,2.902c0,0-2.14,1.375-1.07,5.042
		c0,0,0.459,2.292-1.528,3.591c0,0-1.681,1.452-0.61,3.516c0,0,0.688,0.688-0.535,1.91c0,0-1.07,1.91,0.764,4.508
		c0,0-0.229-1.909,0.229-2.368c0,0,1.604,1.909,1.223,3.209c0,0,2.598-1.452,6.341-1.757c0,0,4.508-0.842,4.05-6.571
		c0,0-4.202-3.285-4.05-6.189l0.535-4.278c0,0,1.758-2.137,1.91-2.979c0,0,1.223,1.833-0.306,3.208c0,0,2.675-0.611,1.758-4.432
		c0,0,0.61-1.375,0.993-1.298c0,0,1.299,3.361,5.12,3.591c0,0,0.61,3.819,2.979,4.202c0,0,0.076,5.729-3.286,8.099
		c0,0-0.764,6.724,5.96,7.029c0,0-1.223,3.056,1.451,3.667c0,0-0.458-2.979,1.758-2.979l0.993,1.221c0,0,2.369-2.979,1.299-5.041
		c0,0-2.216-1.07-1.375-3.896c0,0,1.375-1.068-0.535-2.445c0,0-0.382-0.535,0.308-1.146c0,0,2.367-1.987-1.605-6.342l-0.152-3.973
		c0,0-1.069-5.959-8.327-8.787C28.188,8.44,22.991,7.446,22.532,9.28z"/>
</g>
</svg>
