<?xml version="1.0" encoding="utf-8"?>
<!-- Generator: Adobe Illustrator 16.0.4, SVG Export Plug-In . SVG Version: 6.00 Build 0)  -->
<!DOCTYPE svg PUBLIC "-//W3C//DTD SVG 1.1//EN" "http://www.w3.org/Graphics/SVG/1.1/DTD/svg11.dtd">
<svg version="1.1" id="Layer_1" xmlns="http://www.w3.org/2000/svg" xmlns:xlink="http://www.w3.org/1999/xlink" x="0px" y="0px"
	 width="50px" height="50px" viewBox="0 0 50 50" enable-background="new 0 0 50 50" xml:space="preserve">
<g>
	<path d="M29.362,17.258c-2.778-2.778-2.778,0.093-2.778,0.093v4.785l-0.844-0.844v-0.84h-1.482v0.84l-0.844,0.844v-4.785
		c0,0,0-2.871-2.778-0.093c0,0-9.728,10.19-5.65,16.582c0.479,0.752,2.037,1.668,3.705-0.74c0.772-1.117,4.262,1.02,4.725-2.687
		v-7.229L25,21.6l1.584,1.585v7.229c0.463,3.705,3.951,1.568,4.725,2.687c1.668,2.408,3.228,1.492,3.705,0.74
		C39.09,27.449,29.362,17.258,29.362,17.258z"/>
	<rect x="24.258" y="15.344" width="1.482" height="0.854"/>
	<rect x="24.258" y="17.046" width="1.482" height="0.853"/>
	<rect x="24.258" y="18.75" width="1.482" height="0.851"/>
</g>
</svg>
