<?xml version="1.0" encoding="utf-8"?>
<!-- Generator: Adobe Illustrator 16.0.4, SVG Export Plug-In . SVG Version: 6.00 Build 0)  -->
<!DOCTYPE svg PUBLIC "-//W3C//DTD SVG 1.1//EN" "http://www.w3.org/Graphics/SVG/1.1/DTD/svg11.dtd">
<svg version="1.1" id="Layer_1" xmlns="http://www.w3.org/2000/svg" xmlns:xlink="http://www.w3.org/1999/xlink" x="0px" y="0px"
	 width="50px" height="50px" viewBox="0 0 50 50" enable-background="new 0 0 50 50" xml:space="preserve">
<path d="M29.283,33.951c0,0.434-0.093,0.848-0.253,1.236c0,0-2.521,0.467-3.061,0c-0.468-0.404-0.488-1.51-0.383-2.559h-1.175
	c0.104,1.049,0.085,2.154-0.382,2.559c-0.54,0.467-3.061,0-3.061,0c-0.16-0.389-0.254-0.803-0.254-1.236
	c0-1.744,1.42-3.199,3.312-3.559c0,0,0.134,0.535,0.252,1.253c0.027-0.005,0.055-0.017,0.084-0.017h0.134v-2.883
	c0-0.277,0.224-0.5,0.5-0.5s0.5,0.223,0.5,0.5v2.883h0.136c0.029,0,0.055,0.012,0.083,0.017c0.119-0.717,0.253-1.253,0.253-1.253
	C27.864,30.752,29.283,32.207,29.283,33.951z M34.313,30.227v4.919c0,0.276-0.225,0.5-0.5,0.5c-0.276,0-0.5-0.224-0.5-0.5v-4.919
	c0-3.234-1.424-4.853-4.711-5.388c-0.938,1.31-2.188,2.266-3.603,2.266s-2.663-0.956-3.603-2.266
	c-3.289,0.533-4.711,2.15-4.711,5.388v4.919c0,0.276-0.224,0.5-0.5,0.5c-0.275,0-0.5-0.224-0.5-0.5v-4.919
	c0-4.575,2.75-5.851,5.125-6.309c-0.748-1.361-1.188-2.924-1.188-4.188c0-2.964,2.411-5.375,5.375-5.375s5.375,2.411,5.375,5.375
	c0,1.264-0.438,2.826-1.188,4.188C31.573,24.376,34.313,25.66,34.313,30.227z M29.376,19.729c0-2.412-1.963-4.375-4.375-4.375
	s-4.375,1.963-4.375,4.375c0,2.459,2.002,6.375,4.375,6.375S29.376,22.188,29.376,19.729z M19.729,30.562
	c-0.275,0-0.5,0.224-0.5,0.5v4.083c0,0.275,0.225,0.5,0.5,0.5c0.276,0,0.5-0.225,0.5-0.5v-4.083
	C20.229,30.785,20.007,30.562,19.729,30.562z M30.272,30.562c-0.276,0-0.5,0.224-0.5,0.5v4.083c0,0.275,0.224,0.5,0.5,0.5
	c0.275,0,0.5-0.225,0.5-0.5v-4.083C30.772,30.785,30.548,30.562,30.272,30.562z"/>
</svg>
