<?xml version="1.0" encoding="utf-8"?>
<!-- Generator: Adobe Illustrator 16.0.4, SVG Export Plug-In . SVG Version: 6.00 Build 0)  -->
<!DOCTYPE svg PUBLIC "-//W3C//DTD SVG 1.1//EN" "http://www.w3.org/Graphics/SVG/1.1/DTD/svg11.dtd">
<svg version="1.1" id="Layer_1" xmlns="http://www.w3.org/2000/svg" xmlns:xlink="http://www.w3.org/1999/xlink" x="0px" y="0px"
	 width="50px" height="50px" viewBox="0 0 50 50" enable-background="new 0 0 50 50" xml:space="preserve">
<path d="M29.234,24.315c-0.192-0.039-0.379,0.082-0.422,0.271c-0.052,0.221-0.156,0.713-0.254,1.316v-3.01
	c0-0.199-0.16-0.358-0.358-0.358s-0.359,0.159-0.359,0.358v3.006c-0.096-0.603-0.2-1.092-0.252-1.312
	c-0.044-0.191-0.233-0.312-0.423-0.271c-2.07,0.424-3.574,2.181-3.574,4.178c0,0.49,0.094,0.982,0.276,1.459
	c0.044,0.115,0.144,0.199,0.265,0.225c0.047,0.01,1.156,0.229,2.08,0.229h0.001c0.634,0,1.037-0.103,1.271-0.32
	c0.59-0.551,0.611-1.935,0.485-3.192h0.462c-0.125,1.258-0.103,2.643,0.485,3.192c0.233,0.22,0.637,0.32,1.271,0.32
	c0.924,0,2.033-0.222,2.08-0.229c0.121-0.025,0.221-0.109,0.266-0.225c0.184-0.477,0.275-0.969,0.275-1.459
	C32.811,26.496,31.307,24.739,29.234,24.315z M26.993,29.562c-0.007,0.006-0.144,0.127-0.779,0.127h-0.001
	c-0.632,0-1.387-0.119-1.738-0.181c-0.107-0.335-0.162-0.675-0.162-1.015c0-1.545,1.097-2.92,2.653-3.387
	C27.309,26.774,27.521,29.065,26.993,29.562z M31.928,29.508c-0.353,0.062-1.107,0.181-1.738,0.181
	c-0.639,0-0.774-0.121-0.779-0.127c-0.527-0.494-0.314-2.785,0.025-4.455c1.559,0.468,2.654,1.843,2.654,3.388
	C32.09,28.833,32.035,29.173,31.928,29.508z M34.389,27.06c0-2.156-1.102-4.06-2.77-5.179l0.001-1.321
	c-0.005-1.478-1.207-2.678-2.683-2.678c0,0-0.002,0-0.004,0l-3.031,0.003c1.193-0.759,1.99-2.091,1.99-3.608
	c0-2.357-1.918-4.276-4.277-4.276c-2.358,0-4.277,1.919-4.277,4.276c0,1.521,0.801,2.854,1.999,3.613l-3.048,0.004
	c-1.479,0-2.68,1.205-2.678,2.684v9.042c0,0.198,0.16,0.358,0.358,0.358h3.077v7.342c0,1.478,1.15,2.681,2.566,2.681h4
	c1.416,0,2.568-1.203,2.568-2.681v-4.03C31.605,33.272,34.389,30.485,34.389,27.06z M20.057,14.276c0-1.963,1.598-3.56,3.56-3.56
	c1.963,0,3.56,1.597,3.56,3.56c0,1.962-1.597,3.558-3.56,3.558C21.652,17.834,20.057,16.238,20.057,14.276z M25.615,39.28h-1.68
	c0.022-0.049,0.039-0.1,0.039-0.155V32.56c0-0.197-0.16-0.358-0.359-0.358c-0.198,0-0.359,0.161-0.359,0.358v6.565
	c0,0.056,0.016,0.106,0.039,0.155h-1.68c-1.02,0-1.85-0.881-1.85-1.963v-7.692c0-0.002,0.002-0.004,0.002-0.007
	s-0.002-0.004-0.002-0.008v-6.133c0-0.197-0.16-0.358-0.358-0.358s-0.359,0.161-0.359,0.358v5.78h-2.717v-8.684
	c-0.001-0.522,0.202-1.017,0.571-1.388c0.371-0.371,0.863-0.575,1.388-0.576l10.646-0.012h0.002c1.08,0,1.961,0.881,1.963,1.961
	v0.91c-0.828-0.408-1.758-0.645-2.742-0.645c-3.437,0-6.231,2.795-6.231,6.23c0,3.201,2.429,5.844,5.538,6.19v4.069
	C27.464,38.399,26.635,39.28,25.615,39.28z M28.157,32.569c-3.039,0-5.513-2.473-5.513-5.512s2.474-5.513,5.513-5.513
	c3.04,0,5.512,2.474,5.512,5.513C33.669,30.099,31.197,32.569,28.157,32.569z"/>
</svg>
