<?xml version="1.0" encoding="utf-8"?>
<!-- Generator: Adobe Illustrator 16.0.4, SVG Export Plug-In . SVG Version: 6.00 Build 0)  -->
<!DOCTYPE svg PUBLIC "-//W3C//DTD SVG 1.1//EN" "http://www.w3.org/Graphics/SVG/1.1/DTD/svg11.dtd">
<svg version="1.1" id="Layer_1" xmlns="http://www.w3.org/2000/svg" xmlns:xlink="http://www.w3.org/1999/xlink" x="0px" y="0px"
	 width="50px" height="50px" viewBox="0 0 50 50" enable-background="new 0 0 50 50" xml:space="preserve">
<g>
	<path d="M32.915,15.155h-3.619c-0.395-1.161-1.377-1.188-1.377-1.188c-1.355-0.202-1.543-0.64-1.543-0.64
		c-0.287-0.413-0.123-1.205-0.123-1.205c0.238-0.194,0.33-0.708,0.33-0.708c0.395-0.304,0.375-0.747,0.195-0.742
		c-0.148,0.004-0.115-0.118-0.115-0.118c0.246-1.996-1.527-2.099-1.527-2.099h-0.271c0,0-1.775,0.103-1.527,2.099
		c0,0,0.033,0.122-0.114,0.118c-0.183-0.005-0.199,0.438,0.194,0.742c0,0,0.093,0.514,0.33,0.708c0,0,0.164,0.792-0.123,1.205
		c0,0-0.188,0.438-1.545,0.64c0,0-0.979,0.026-1.375,1.188h-3.621c-0.276,0-0.5,0.224-0.5,0.5v9.334c0,0.275,0.224,0.5,0.5,0.5
		h1.295c-0.271,0.437-0.467,0.883-0.239,0.955c0,0,0.27,0.026,0.627-0.682c0,0-0.009,0.272-0.295,1.062
		c-0.056,0.148-0.293,0.898,0.094,0.628c0,0,0.178-0.123,0.412-0.894c0,0-0.125,1.297,0.012,1.364
		c0.182,0.088,0.281-0.168,0.363-1.306c0,0,0.084-0.366,0.123,1.035c0.002,0.072,0.108,0.432,0.258,0.125
		c0.123-0.258,0.067-0.941,0.067-1.17c0,0,0.16,0.886,0.31,0.886c0,0,0.176,0.206,0.104-0.894c-0.012-0.18,0.05-0.549,0.058-0.656
		l0.018-0.422l-0.004-0.035h1.271c-0.029,0.31-0.041,0.617-0.007,0.906c0.14,1.137,0.406,3.567,0.679,4.525
		c0.141,0.496,0.057,1.748,0.172,2.061c0.051,0.135,0.024,0.26-0.086,0.568c-0.383,1.076-0.334,1.834,0.629,4.689
		c0,0,0.295,0.633,0.146,1.771c0,0-0.614,1.265-0.221,1.29c0,0,0.032,0.084,0.164,0.018c0,0,0.213,0.219,0.442,0.101
		c0,0,0.213,0.169,0.396,0.019c0,0,0.147,0.168,0.36,0.032c0,0,0.279,0.187,0.443-0.017c0,0,0.295,0.066-0.23-1.264
		c0,0-0.2-1.41-0.311-1.687c-0.211-0.527-0.062-1.965-0.018-2.274c0.074-0.515,0.035-1.395-0.098-2.074
		c-0.097-0.487,0.166-1.407,0.262-1.973c0.201-1.191,0.592-4.23,0.543-4.804l0.162,0.056c0.117,0,0.19-0.056,0.19-0.056
		c-0.049,0.573,0.341,3.612,0.541,4.804c0.097,0.564,0.359,1.484,0.265,1.973c-0.136,0.681-0.174,1.561-0.101,2.074
		c0.047,0.311,0.195,1.747-0.017,2.274c-0.11,0.274-0.312,1.687-0.312,1.687c-0.524,1.33-0.229,1.264-0.229,1.264
		c0.166,0.201,0.445,0.017,0.445,0.017c0.213,0.136,0.358-0.032,0.358-0.032c0.183,0.15,0.396-0.019,0.396-0.019
		c0.229,0.118,0.442-0.101,0.442-0.101c0.133,0.066,0.164-0.018,0.164-0.018c0.396-0.025-0.222-1.29-0.222-1.29
		c-0.147-1.138,0.148-1.771,0.148-1.771c0.963-2.855,1.012-3.613,0.627-4.689c-0.109-0.311-0.135-0.434-0.086-0.568
		c0.115-0.312,0.031-1.563,0.172-2.061c0.271-0.958,0.539-3.391,0.678-4.525c0.035-0.289,0.023-0.598-0.004-0.906h1.271
		l-0.002,0.035l0.017,0.422c0.008,0.107,0.069,0.478,0.059,0.656c-0.072,1.1,0.104,0.894,0.104,0.894
		c0.148,0,0.309-0.886,0.309-0.886c0,0.229-0.055,0.912,0.07,1.17c0.146,0.307,0.254-0.053,0.256-0.125
		c0.039-1.401,0.123-1.035,0.123-1.035c0.082,1.138,0.183,1.394,0.363,1.306c0.139-0.067,0.014-1.364,0.014-1.364
		c0.234,0.771,0.412,0.894,0.412,0.894c0.385,0.271,0.146-0.479,0.092-0.628c-0.287-0.789-0.293-1.062-0.293-1.062
		c0.357,0.708,0.627,0.682,0.627,0.682c0.226-0.072,0.027-0.52-0.241-0.955h1.295c0.276,0,0.5-0.225,0.5-0.5v-9.334
		C33.415,15.379,33.192,15.155,32.915,15.155z M32.415,24.489h-7.166c0.002-0.187,0.004-0.371,0.008-0.543
		c0.494-0.081,0.863-0.391,0.863-0.762c0-0.344-0.314-0.632-0.75-0.738c0.191-1.506,0.57-2.062,0.838-2.262l0.234-0.105
		c-0.014,0.117-0.062,0.215-0.129,0.298c-0.353,0.442,0.108,0.947,0.108,0.947c0.88,0.812,1.621,0.302,1.918-0.075
		c0.902-1.146-0.051-2.76-0.696-3.298c-0.779-0.648-1.31-0.153-1.554,0.149c-0.319,0.396-0.168,0.957,0.019,1.189
		c0.117,0.146,0.197,0.275,0.252,0.393c-0.109,0.021-0.236,0.068-0.371,0.163c-0.48,0.343-0.811,1.117-0.99,2.316
		c-0.178-1.199-0.51-1.976-0.99-2.316c-0.133-0.096-0.26-0.142-0.369-0.163c0.054-0.115,0.133-0.244,0.252-0.393
		c0.185-0.232,0.336-0.795,0.019-1.189c-0.246-0.304-0.774-0.799-1.554-0.149c-0.646,0.538-1.602,2.151-0.698,3.298
		c0.297,0.377,1.041,0.887,1.918,0.075c0,0,0.461-0.505,0.108-0.947c-0.063-0.083-0.114-0.179-0.127-0.297
		c0.064,0.012,0.144,0.037,0.234,0.104c0.266,0.199,0.645,0.756,0.838,2.262c-0.436,0.106-0.752,0.396-0.752,0.738
		c0,0.371,0.369,0.681,0.863,0.762c0.006,0.172,0.008,0.356,0.01,0.543h-7.168v-8.334h14.832V24.489L32.415,24.489z"/>
</g>
</svg>
