<?xml version="1.0" encoding="utf-8"?>
<!-- Generator: Adobe Illustrator 16.0.4, SVG Export Plug-In . SVG Version: 6.00 Build 0)  -->
<!DOCTYPE svg PUBLIC "-//W3C//DTD SVG 1.1//EN" "http://www.w3.org/Graphics/SVG/1.1/DTD/svg11.dtd">
<svg version="1.1" id="Layer_1" xmlns="http://www.w3.org/2000/svg" xmlns:xlink="http://www.w3.org/1999/xlink" x="0px" y="0px"
	 width="50px" height="50px" viewBox="0 0 50 50" enable-background="new 0 0 50 50" xml:space="preserve">
<g>
	<path d="M16.095,35.455c0,0-3.011-9.169,2.266-11.234c0,0,5.035,3.83,10.647,0.778c0,0,5.602-3.642,5.85,9.312
		c0,0,2.238-3.379,1.797-7.887c0,0,0.51,1.119,0.654,1.778c0,0,0.193-10.679-8.668-11.981c0,0,2.375-0.93,3.654,0.004
		c0,0-5.105-2.922-9.182-0.635c0,0-0.413-0.729,0.711-1.045c0,0-5.915-0.034-6.172,3.873c0,0-5.902,0.628-4.83,8.044l0.65-0.749
		C13.472,25.713,13.551,32.191,16.095,35.455z"/>
</g>
</svg>
