<?xml version="1.0" encoding="utf-8"?>
<!-- Generator: Adobe Illustrator 16.0.4, SVG Export Plug-In . SVG Version: 6.00 Build 0)  -->
<!DOCTYPE svg PUBLIC "-//W3C//DTD SVG 1.1//EN" "http://www.w3.org/Graphics/SVG/1.1/DTD/svg11.dtd">
<svg version="1.1" id="Layer_1" xmlns="http://www.w3.org/2000/svg" xmlns:xlink="http://www.w3.org/1999/xlink" x="0px" y="0px"
	 width="50px" height="50px" viewBox="0 0 50 50" enable-background="new 0 0 50 50" xml:space="preserve">
<path d="M31.113,30.532c0.069,1.657-0.339,2.829-1.215,3.481c-0.551,0.41-1.189,0.547-1.799,0.547c-0.673,0-1.307-0.166-1.738-0.315
	c-1.268-0.438-2.369-0.242-3.435-0.052c-0.456,0.082-0.928,0.166-1.4,0.197c-1.327,0.09-2.172-0.23-2.507-0.955
	c-0.553-1.192,0.676-2.841,1.01-3.186c1.847-1.902,2.415-3.243,2.602-3.684c3.562-8.357,5.913-10.87,6.012-10.974
	c0.19-0.2,0.507-0.205,0.705-0.017c0.2,0.19,0.208,0.507,0.02,0.707c-0.023,0.024-2.344,2.529-5.802,10.644
	c-0.218,0.513-0.841,1.981-2.817,4.019c-0.414,0.428-1.055,1.563-0.82,2.068c0.138,0.297,0.688,0.441,1.532,0.379
	c0.418-0.029,0.843-0.104,1.292-0.186c1.137-0.202,2.424-0.432,3.937,0.091c0.515,0.177,1.794,0.524,2.613-0.087
	c0.595-0.443,0.868-1.33,0.812-2.638c-0.021-0.509-0.25-1.207-0.825-1.503c-0.568-0.288-1.358-0.118-2.288,0.492
	c-0.229,0.148-0.54,0.088-0.692-0.145c-0.15-0.23-0.088-0.54,0.145-0.691c1.575-1.037,2.658-0.867,3.293-0.545
	C30.544,28.594,31.069,29.494,31.113,30.532z"/>
</svg>
