<?xml version="1.0" encoding="utf-8"?>
<!-- Generator: Adobe Illustrator 16.0.4, SVG Export Plug-In . SVG Version: 6.00 Build 0)  -->
<!DOCTYPE svg PUBLIC "-//W3C//DTD SVG 1.1//EN" "http://www.w3.org/Graphics/SVG/1.1/DTD/svg11.dtd">
<svg version="1.1" id="Layer_1" xmlns="http://www.w3.org/2000/svg" xmlns:xlink="http://www.w3.org/1999/xlink" x="0px" y="0px"
	 width="50px" height="50px" viewBox="0 0 50 50" enable-background="new 0 0 50 50" xml:space="preserve">
<g>
	<path d="M34.314,13.272c-1.735-1.938-4.032-3.738-9.705-3.78c-2.217-0.018-5.601,0.507-8.233,3.291
		c-1.593,1.682-2.767,3.805-2.433,7.278c0.074,0.753,1.148,1.625,0.393,3.081c0,0-1.623,2.855-1.566,3.332
		c0,0-0.028,0.869,1.314,0.896c0,0,0.336,0.043,0.239,0.784l-0.015,1.08c0,0,0.041,0.321,0.631,0.518c0,0,0.11,0.111-0.057,0.323
		c0,0-0.311,0.346,0.223,1.091c0.199,0.274,0.52,0.616,0.322,1.317c0,0-0.252,1.356,0.28,1.681c0,0,0.604,0.718,3.039,0.419
		c0.851-0.104,2.423-0.518,3.36,0.659c0,0,2.24,4.256,2.41,5.265c0,0,3.822-6.806,8.486-7.855c0,0-1.136-2.563,1.176-5.882
		c0,0,2.897-3.823,2.983-5.924C37.165,20.845,37.93,17.307,34.314,13.272z"/>
</g>
</svg>
