<?xml version="1.0" encoding="utf-8"?>
<!-- Generator: Adobe Illustrator 16.0.4, SVG Export Plug-In . SVG Version: 6.00 Build 0)  -->
<!DOCTYPE svg PUBLIC "-//W3C//DTD SVG 1.1//EN" "http://www.w3.org/Graphics/SVG/1.1/DTD/svg11.dtd">
<svg version="1.1" id="Layer_1" xmlns="http://www.w3.org/2000/svg" xmlns:xlink="http://www.w3.org/1999/xlink" x="0px" y="0px"
	 width="50px" height="50px" viewBox="0 0 50 50" enable-background="new 0 0 50 50" xml:space="preserve">
<path d="M36.755,29.953c0,0.275-0.224,0.5-0.5,0.5l-3.19-0.001c-0.26,1.26-1.48,2.211-2.944,2.211h-0.494h-9.904h-0.078
	c-0.992,0-1.8-0.874-1.8-1.947c0-0.352,0.094-0.678,0.246-0.963h-0.551c-0.992,0-1.8-0.858-1.8-1.913
	c0-0.326,0.085-0.63,0.221-0.898h-1.021c-0.991,0-1.8-0.865-1.8-1.928c0-1.064,0.809-1.93,1.8-1.93h0.193
	c-0.139-0.273-0.225-0.582-0.225-0.914c0-1.064,0.808-1.93,1.8-1.93h3.794c-0.147-0.283-0.238-0.604-0.238-0.951
	c0-1.076,0.809-1.951,1.8-1.951h3.172c0.004,0,0.007,0.002,0.011,0.002h4.877c1.651,0,2.996,1.249,2.996,2.784v0.354l3.238-0.026
	c0.001,0,0.003,0,0.005,0c0.273,0,0.497,0.221,0.5,0.496c0.002,0.276-0.221,0.502-0.496,0.504l-3.743,0.03c-0.001,0-0.003,0-0.004,0
	c-0.132,0-0.26-0.052-0.354-0.146c-0.094-0.094-0.146-0.221-0.146-0.354v-0.857c0-0.983-0.896-1.784-1.996-1.784h-8.06
	c-0.001,0-0.003-0.001-0.004-0.001c-0.438,0.003-0.795,0.428-0.795,0.95c0,0.524,0.358,0.951,0.8,0.951h3.172
	c0.031,0,0.058,0.012,0.087,0.018c0.018-0.002,0.033-0.011,0.052-0.011c0.275,0,0.5,0.224,0.5,0.5c0,0.728,0.062,0.979,1.274,0.979
	h2.704c0.276,0,0.5,0.224,0.5,0.5s-0.224,0.5-0.5,0.5h-2.704c-1.411,0-2.093-0.438-2.242-1.485h-2.844h-5.354
	c-0.441,0-0.8,0.417-0.8,0.93c0,0.486,0.326,0.875,0.736,0.914h8.59c0.276,0,0.5,0.224,0.5,0.5c0,0.002-0.001,0.005-0.001,0.007
	s0.001,0.005,0.001,0.007c0,0.276-0.224,0.5-0.5,0.5h-8.526c-0.046,0-0.09-0.011-0.135-0.015H14.94c-0.44,0-0.8,0.417-0.8,0.93
	c0,0.511,0.358,0.927,0.8,0.927h2.481c0.04-0.002,0.078-0.012,0.118-0.012h7.694c0.276,0,0.5,0.223,0.5,0.5
	c0,0.002-0.001,0.004-0.001,0.006s0.001,0.004,0.001,0.006c0,0.275-0.224,0.5-0.5,0.5h-7.75c-0.413,0.033-0.744,0.418-0.744,0.898
	c0,0.504,0.357,0.913,0.8,0.913h7.694c0.276,0,0.5,0.224,0.5,0.5c0,0.003-0.002,0.006-0.002,0.009c0,0.004,0.002,0.006,0.002,0.01
	c0,0.275-0.224,0.5-0.5,0.5h-5.59c-0.44,0-0.8,0.424-0.8,0.943c0,0.521,0.358,0.947,0.8,0.947h0.078h9.904h0.494
	c1.101,0,1.996-0.764,1.996-1.701c0-0.133,0.053-0.266,0.146-0.357c0.093-0.094,0.221-0.151,0.354-0.151l3.64,0.001
	C36.531,29.453,36.755,29.677,36.755,29.953z"/>
</svg>
