<?xml version="1.0" encoding="utf-8"?>
<!-- Generator: Adobe Illustrator 16.0.4, SVG Export Plug-In . SVG Version: 6.00 Build 0)  -->
<!DOCTYPE svg PUBLIC "-//W3C//DTD SVG 1.1//EN" "http://www.w3.org/Graphics/SVG/1.1/DTD/svg11.dtd">
<svg version="1.1" id="Layer_1" xmlns="http://www.w3.org/2000/svg" xmlns:xlink="http://www.w3.org/1999/xlink" x="0px" y="0px"
	 width="50px" height="50px" viewBox="0 0 50 50" enable-background="new 0 0 50 50" xml:space="preserve">
<path d="M32.484,26.802l0.001-6.242c-0.004-1.478-1.206-2.678-2.681-2.678c-0.001,0-0.003,0-0.006,0l-3.03,0.003
	c1.194-0.759,1.992-2.091,1.992-3.608c0-2.357-1.919-4.276-4.278-4.276c-2.358,0-4.277,1.919-4.277,4.276
	c0,1.521,0.8,2.854,1.999,3.613l-3.048,0.004c-1.478,0-2.679,1.205-2.677,2.684v9.042c0,0.198,0.161,0.358,0.36,0.358h3.077v7.342
	c0,1.478,1.151,2.681,2.567,2.681h4c1.416,0,2.568-1.203,2.568-2.681v-3.092c0.211,0.035,0.424,0.064,0.646,0.064
	c2.108,0,3.823-1.716,3.823-3.824C33.518,29.745,33.063,28.324,32.484,26.802z M20.922,14.276c0-1.963,1.596-3.56,3.559-3.56
	s3.56,1.597,3.56,3.56c0,1.962-1.598,3.558-3.56,3.558S20.922,16.238,20.922,14.276z M28.33,37.317c0,1.082-0.83,1.963-1.849,1.963
	h-1.679c0.023-0.049,0.039-0.1,0.039-0.155V32.56c0-0.197-0.161-0.358-0.359-0.358c-0.198,0-0.359,0.161-0.359,0.358v6.565
	c0,0.056,0.015,0.106,0.039,0.155h-1.68c-1.019,0-1.848-0.881-1.848-1.963v-7.692c0-0.002,0.001-0.004,0.001-0.007
	s-0.001-0.004-0.001-0.008v-6.133c0-0.197-0.161-0.358-0.359-0.358c-0.198,0-0.359,0.161-0.359,0.358v5.78H17.2v-8.684
	c-0.001-0.522,0.203-1.017,0.573-1.388s0.862-0.575,1.387-0.576l10.645-0.012c0.001,0,0.002,0,0.002,0
	c1.081,0,1.961,0.881,1.964,1.961l-0.001,4.443c-0.838-2.014-1.677-3.8-1.748-3.947c-0.118-0.252-0.531-0.252-0.65,0
	c-0.144,0.303-3.498,7.44-3.498,9.41c0,1.627,1.024,3.01,2.459,3.562v3.289H28.33z M29.693,33.573c-1.711,0-3.104-1.395-3.104-3.105
	c0-1.353,2.008-6.014,3.104-8.404c1.096,2.392,3.105,7.053,3.105,8.404C32.799,32.181,31.406,33.573,29.693,33.573z M30.054,31.955
	c0,0.198-0.161,0.358-0.36,0.358c-1.017,0-1.845-0.828-1.845-1.847c0-0.198,0.161-0.358,0.36-0.358s0.358,0.16,0.358,0.358
	c0,0.622,0.505,1.128,1.126,1.128C29.893,31.597,30.054,31.757,30.054,31.955z"/>
</svg>
