<?xml version="1.0" encoding="utf-8"?>
<!-- Generator: Adobe Illustrator 16.0.4, SVG Export Plug-In . SVG Version: 6.00 Build 0)  -->
<!DOCTYPE svg PUBLIC "-//W3C//DTD SVG 1.1//EN" "http://www.w3.org/Graphics/SVG/1.1/DTD/svg11.dtd">
<svg version="1.1" id="Layer_1" xmlns="http://www.w3.org/2000/svg" xmlns:xlink="http://www.w3.org/1999/xlink" x="0px" y="0px"
	 width="50px" height="50px" viewBox="0 0 50 50" enable-background="new 0 0 50 50" xml:space="preserve">
<g>
	<path d="M33.734,11.111h-5.189c-0.356,0-0.647,0.289-0.647,0.646c0,0.358,0.29,0.646,0.647,0.646h3.625l-4.467,4.468l-0.146,0.237
		c-0.955-0.77-2.118-1.209-3.36-1.209c-1.443,0-2.797,0.562-3.816,1.58c-0.979,0.98-1.483,2.248-1.551,3.535
		c-1.887,0.842-3.209,2.729-3.209,4.922c0,2.775,2.115,5.043,4.813,5.338c-0.041,0.084-0.065,0.176-0.065,0.273v2.701h-2.16
		c-0.357,0-0.646,0.289-0.646,0.646s0.289,0.647,0.646,0.647h2.16v2.698c0,0.357,0.289,0.646,0.647,0.646
		c0.357,0,0.646-0.289,0.646-0.646v-2.698h2.158c0.356,0,0.647-0.29,0.647-0.647s-0.291-0.646-0.647-0.646h-2.158v-2.701
		c0-0.099-0.025-0.189-0.066-0.273c2.607-0.284,4.646-2.409,4.787-5.057c0.598-0.266,1.15-0.631,1.627-1.105
		c1.963-1.965,2.07-5.061,0.369-7.18l0.24-0.146l4.467-4.468v3.625c0,0.358,0.289,0.648,0.648,0.648c0.356,0,0.646-0.29,0.646-0.648
		v-5.188C34.381,11.4,34.092,11.111,33.734,11.111z M21.016,30.041c-2.262,0-4.102-1.84-4.102-4.102
		c0-1.496,0.813-2.795,2.016-3.512c0.207,0.983,0.687,1.924,1.449,2.686c1.019,1.021,2.373,1.582,3.814,1.582
		c0.289,0,0.571-0.039,0.854-0.084C24.725,28.553,23.047,30.041,21.016,30.041z M20.156,21.934c0.276-0.061,0.563-0.095,0.858-0.095
		c2.031,0,3.711,1.489,4.033,3.433c-1.324,0.266-2.771-0.088-3.754-1.072C20.656,23.561,20.285,22.763,20.156,21.934z
		 M27.094,24.197c-0.242,0.244-0.52,0.435-0.809,0.602c-0.527-2.429-2.688-4.255-5.271-4.255c-0.295,0-0.575,0.042-0.854,0.086
		c0.133-0.817,0.506-1.603,1.135-2.231c0.773-0.773,1.805-1.199,2.9-1.199c1.095,0,2.125,0.426,2.897,1.199
		C28.693,19.997,28.693,22.6,27.094,24.197z"/>
</g>
</svg>
