<?xml version="1.0" encoding="utf-8"?>
<!-- Generator: Adobe Illustrator 16.0.4, SVG Export Plug-In . SVG Version: 6.00 Build 0)  -->
<!DOCTYPE svg PUBLIC "-//W3C//DTD SVG 1.1//EN" "http://www.w3.org/Graphics/SVG/1.1/DTD/svg11.dtd">
<svg version="1.1" id="Layer_1" xmlns="http://www.w3.org/2000/svg" xmlns:xlink="http://www.w3.org/1999/xlink" x="0px" y="0px"
	 width="50px" height="50px" viewBox="0 0 50 50" enable-background="new 0 0 50 50" xml:space="preserve">
<g>
	<path d="M36.198,37.743c-0.056-0.023-5.47-2.403-6.882-5.933c-0.102-0.255-0.393-0.379-0.645-0.279
		c-0.35,0.135-8.541,3.209-14.155-3.178c0.203-1.821,1.873-14.906,8.028-15.984c1.3-0.226,5.748,0.033,6.386,0.557
		c0.178,1.384-0.023,1.683-0.015,1.683c-0.298,0.17-1.506,0.292-2.454,0.311c-0.173,0.003-0.331,0.095-0.42,0.243
		c-0.089,0.146-0.095,0.33-0.018,0.483c0.229,0.446,0.423,0.973,0.468,1.239c-1.185,0.338-3.318,0.521-4.622,0.243l-0.046-0.009
		c-0.452-0.103-0.803-0.259-0.965-0.488c-0.161-0.226-0.473-0.275-0.698-0.116c-0.226,0.161-0.276,0.475-0.116,0.698
		c0.282,0.394,0.749,0.65,1.307,0.815c0.194,0.902,0.713,3.771-0.023,5.907l-0.014,0.243c-0.416,0.729-0.672,1.562-0.672,2.458
		c0,0.276,0.224,0.5,0.5,0.5c0.275,0,0.5-0.224,0.5-0.5c0-2.213,1.799-4.013,4.013-4.013c2.213,0,4.013,1.8,4.013,4.013
		c0,0.276,0.225,0.5,0.5,0.5c0.276,0,0.5-0.224,0.5-0.5c0-1.064-0.34-2.05-0.908-2.862c0.353-0.675,1.957-3.324,5.185-2.572
		c0.272,0.062,0.538-0.105,0.601-0.374c0.062-0.27-0.105-0.538-0.374-0.602c-3.44-0.796-5.401,1.647-6.1,2.763
		c-0.897-0.841-2.093-1.364-3.415-1.364c-1.143,0-2.184,0.398-3.028,1.045c0.213-1.719-0.031-3.479-0.214-4.441
		c1.776,0.177,3.905-0.227,4.591-0.455c0.195-0.064,0.35-0.21,0.43-0.405c0.152-0.373,0.002-0.961-0.203-1.48
		c0.724-0.045,1.729-0.151,2.182-0.41c0.559-0.316,0.713-1.168,0.5-2.758c-0.021-0.157-0.104-0.386-0.381-0.589
		c-1.161-0.851-6.016-0.945-7.159-0.745c-7.334,1.283-8.814,16.442-8.874,17.087c-0.012,0.134,0.03,0.269,0.117,0.37
		c5.31,6.237,13.025,4.373,14.963,3.773c1.784,3.655,6.99,5.945,7.22,6.046l0.198,0.041c0.192,0,0.377-0.112,0.459-0.301
		C36.566,38.146,36.451,37.853,36.198,37.743z"/>
</g>
</svg>
