<?xml version="1.0" encoding="utf-8"?>
<!-- Generator: Adobe Illustrator 16.0.4, SVG Export Plug-In . SVG Version: 6.00 Build 0)  -->
<!DOCTYPE svg PUBLIC "-//W3C//DTD SVG 1.1//EN" "http://www.w3.org/Graphics/SVG/1.1/DTD/svg11.dtd">
<svg version="1.1" id="Layer_1" xmlns="http://www.w3.org/2000/svg" xmlns:xlink="http://www.w3.org/1999/xlink" x="0px" y="0px"
	 width="50px" height="50px" viewBox="0 0 50 50" enable-background="new 0 0 50 50" xml:space="preserve">
<path d="M22.119,22.626c0.08,0.112,0.054,0.269-0.059,0.349c-0.044,0.03-0.094,0.047-0.145,0.047c-0.078,0-0.155-0.037-0.204-0.104
	c-1.322-1.86-0.892-4.978-0.873-5.108c0.02-0.137,0.149-0.229,0.283-0.211c0.137,0.02,0.231,0.146,0.212,0.282
	C21.33,17.909,20.914,20.93,22.119,22.626z M28.116,23.021c0.077,0,0.155-0.037,0.204-0.104c1.322-1.86,0.892-4.978,0.873-5.108
	c-0.021-0.137-0.15-0.229-0.283-0.211c-0.137,0.021-0.23,0.146-0.213,0.282c0.005,0.03,0.423,3.048-0.784,4.747
	c-0.08,0.112-0.054,0.27,0.06,0.35C28.016,23.005,28.064,23.021,28.116,23.021z M21.412,35.695c0.049,0.05,0.112,0.074,0.176,0.074
	s0.128-0.024,0.177-0.074l0.792-0.788c0.047-0.048,0.073-0.11,0.073-0.177v-1.154c0-0.139-0.112-0.249-0.25-0.249
	c-0.138,0-0.25,0.11-0.25,0.249v1.051l-0.718,0.717C21.314,35.439,21.314,35.6,21.412,35.695z M22.666,24.645
	c-0.134,0.035-0.214,0.17-0.18,0.305c0.005,0.019,0.457,1.834-0.129,3.643c-0.042,0.131,0.029,0.272,0.16,0.314
	c0.026,0.009,0.052,0.013,0.077,0.013c0.105,0,0.204-0.067,0.238-0.173c0.631-1.951,0.158-3.842,0.138-3.921
	C22.935,24.689,22.797,24.609,22.666,24.645z M31.895,36.124v1.126c0,0.139-0.111,0.25-0.25,0.25h-3.031
	c-0.053,0-0.106-0.018-0.149-0.05l-1.853-1.396c-0.06-0.045-0.096-0.113-0.098-0.188l-0.134-2.951
	c-0.005-0.104,0.054-0.197,0.146-0.239l0.23-0.104c0-0.005-0.002-0.009-0.001-0.015c0.104-1.131-0.29-2.576-0.481-2.945
	c-1.569-3.01-0.51-5.518-0.321-5.916c-0.001-0.004-0.005-0.006-0.007-0.01c-0.034-0.129-0.617-2.297-0.93-3.975
	c-0.312,1.678-0.896,3.846-0.931,3.975c-0.004,0.016-0.014,0.027-0.021,0.043c0.219,0.478,1.2,2.937-0.336,5.883
	c-0.192,0.369-0.588,1.814-0.482,2.945c0,0.006-0.001,0.01-0.001,0.015l0.23,0.104c0.093,0.042,0.151,0.138,0.146,0.239
	l-0.133,2.951c-0.003,0.074-0.04,0.143-0.099,0.188l-1.852,1.396c-0.043,0.032-0.096,0.05-0.15,0.05h-3.031
	c-0.138,0-0.25-0.111-0.25-0.25v-1.126c0-0.069,0.029-0.136,0.081-0.185l2.256-2.073l0.024-1.073
	c0.001-0.068,0.032-0.134,0.082-0.18l0.348-0.313c-1.678-6.243-0.837-8.149-0.397-8.682c-3.03-5.229,0.824-10.952,0.864-11.011
	c0.047-0.067,0.124-0.107,0.206-0.107h6.892c0.082,0,0.159,0.04,0.206,0.107c0.04,0.059,3.905,5.799,0.853,11.033
	c0.444,0.562,1.239,2.502-0.416,8.658l0.349,0.312c0.05,0.047,0.081,0.111,0.082,0.181l0.024,1.073l2.256,2.074
	C31.866,35.988,31.895,36.055,31.895,36.124z M20.719,14.965c0.707,0.309,3.28,1.482,4.296,2.674c1.016-1.19,3.59-2.365,4.297-2.674
	c-0.401-0.995-0.824-1.706-0.986-1.965h-6.621C21.542,13.259,21.121,13.97,20.719,14.965z M23.115,33.064l-1.547-0.695l-0.603,0.543
	l-0.024,1.072c-0.001,0.066-0.031,0.132-0.081,0.178l-2.253,2.072V37h2.698l1.69-1.271L23.115,33.064z M24.708,18.095
	c0-0.01,0.004-0.019,0.004-0.028c-0.828-1.107-3.445-2.313-4.173-2.633c-0.753,2.086-1.274,5.153,0.448,8.035
	c0.018,0.018,0.036,0.031,0.049,0.055c0.07,0.115,0.036,0.265-0.076,0.338c-0.041,0.031-1.444,1.218,0.354,8.063l0.039-0.034
	c0.073-0.067,0.178-0.084,0.27-0.043l1.114,0.5c-0.04-1.16,0.324-2.533,0.548-2.963c1.553-2.979,0.307-5.484,0.294-5.511
	c-0.043-0.085-0.031-0.183,0.02-0.255c0-0.021-0.001-0.041,0.004-0.062C23.615,23.514,24.776,19.202,24.708,18.095z M27.266,32.348
	l1.113-0.5c0.092-0.041,0.196-0.023,0.27,0.043l0.039,0.034c1.814-6.909,0.369-8.054,0.354-8.063
	c-0.107-0.078-0.141-0.231-0.064-0.344c0.021-0.035,0.053-0.06,0.086-0.078c1.701-2.873,1.182-5.928,0.432-8.006
	c-0.729,0.319-3.346,1.524-4.173,2.633c0,0.011,0.005,0.02,0.004,0.029c-0.068,1.106,1.093,5.418,1.104,5.463
	c0.01,0.037,0.01,0.074,0.002,0.111c0.025,0.064,0.026,0.139-0.008,0.204c-0.013,0.024-1.259,2.532,0.294,5.511
	C26.941,29.814,27.305,31.188,27.266,32.348z M31.396,36.234l-2.254-2.072c-0.05-0.046-0.078-0.11-0.08-0.178l-0.024-1.072
	l-0.603-0.543l-1.547,0.695l0.119,2.662l1.689,1.272h2.699V36.234z M27.872,34.627v-1.051c0-0.139-0.112-0.249-0.25-0.249
	s-0.25,0.11-0.25,0.249v1.154c0,0.065,0.026,0.129,0.073,0.177l0.791,0.788c0.05,0.05,0.113,0.074,0.178,0.074
	s0.127-0.024,0.176-0.074c0.098-0.098,0.098-0.256,0-0.353L27.872,34.627z M27.484,28.905c0.131-0.042,0.203-0.185,0.16-0.314
	c-0.586-1.809-0.135-3.624-0.129-3.643c0.033-0.134-0.047-0.271-0.181-0.304c-0.133-0.035-0.271,0.045-0.304,0.18
	c-0.021,0.078-0.494,1.97,0.138,3.921c0.034,0.104,0.132,0.173,0.237,0.173C27.434,28.918,27.459,28.914,27.484,28.905z"/>
</svg>
