<?xml version="1.0" encoding="utf-8"?>
<!-- Generator: Adobe Illustrator 16.0.4, SVG Export Plug-In . SVG Version: 6.00 Build 0)  -->
<!DOCTYPE svg PUBLIC "-//W3C//DTD SVG 1.1//EN" "http://www.w3.org/Graphics/SVG/1.1/DTD/svg11.dtd">
<svg version="1.1" id="Layer_1" xmlns="http://www.w3.org/2000/svg" xmlns:xlink="http://www.w3.org/1999/xlink" x="0px" y="0px"
	 width="50px" height="50px" viewBox="0 0 50 50" enable-background="new 0 0 50 50" xml:space="preserve">
<path d="M36.857,27.255c-0.27,0.284-0.656,0.451-1.153,0.5c-0.001,0.048,0.001,0.112,0.013,0.2l0.019,1.091
	c-0.015,0.138-0.083,0.495-0.515,0.774c0.089,0.273,0.107,0.742-0.344,1.373c-0.22,0.297-0.339,0.457-0.231,0.834
	c0.078,0.416,0.245,1.646-0.432,2.132c-0.243,0.229-1.08,0.782-3.289,0.508l-0.329-0.047c-0.996-0.149-1.87-0.216-2.436,0.494
	c-0.763,1.469-2.095,4.165-2.204,4.81c-0.041,0.244-0.253,0.417-0.492,0.417c-0.028,0-0.056-0.002-0.084-0.007
	c-0.271-0.046-0.456-0.305-0.41-0.576c0.172-1.015,2.134-4.764,2.357-5.188c1.021-1.299,2.521-1.074,3.417-0.938l0.303,0.043
	c1.936,0.235,2.48-0.243,2.485-0.248c0.035-0.042,0.057-0.056,0.103-0.084c0.095-0.102,0.117-0.645,0.036-1.09
	c-0.228-0.805,0.146-1.31,0.348-1.58c0.284-0.396,0.25-0.544,0.25-0.545c-0.273-0.338-0.193-0.729,0.008-0.933
	c0.056-0.057,0.124-0.098,0.197-0.122c0.15-0.05,0.226-0.104,0.26-0.134l-0.013-0.914c-0.054-0.385,0.011-0.729,0.194-0.967
	c0.18-0.232,0.407-0.277,0.473-0.285c0.604-0.016,0.812-0.198,0.82-0.365c-0.034-0.321-0.771-1.774-1.434-2.94
	c-0.627-1.201-0.189-2.103,0.1-2.697c0.102-0.211,0.198-0.41,0.211-0.545c0.332-3.427-0.998-5.312-2.193-6.574
	c-2.365-2.504-5.361-3.006-7.512-2.992c-5.412,0.039-7.441,1.802-8.92,3.451c-3.25,3.628-2.617,6.775-2.611,6.808
	c0.074,1.604,2.021,4.489,2.767,5.474c2.356,3.385,1.231,6.023,1.184,6.135c-0.113,0.252-0.411,0.365-0.659,0.255
	c-0.252-0.111-0.365-0.405-0.256-0.657c0.039-0.091,0.932-2.261-1.077-5.145c-0.104-0.14-2.855-3.793-2.944-5.936
	c-0.021-0.062-0.731-3.597,2.854-7.602c1.739-1.94,4.113-3.743,9.656-3.783c2.354-0.005,5.633,0.541,8.246,3.306
	c1.341,1.415,2.833,3.529,2.463,7.357c-0.03,0.312-0.171,0.603-0.308,0.884c-0.261,0.537-0.507,1.045-0.121,1.785
	c1.074,1.892,1.601,3.067,1.552,3.479C37.21,26.475,37.206,26.887,36.857,27.255z M25.087,22.999l-1.989,1.625
	c-0.182,0.147-0.399,0.219-0.616,0.219c-0.285,0-0.566-0.123-0.76-0.36l-1.189-1.457l-1.46,1.194
	c-0.176,0.144-0.395,0.22-0.618,0.22c-0.295,0-0.571-0.129-0.757-0.355l-1.624-1.986c-0.166-0.203-0.243-0.459-0.217-0.719
	c0.025-0.26,0.151-0.493,0.354-0.656l1.46-1.193l-1.196-1.461c-0.164-0.2-0.239-0.453-0.215-0.713
	c0.026-0.263,0.153-0.498,0.356-0.662l1.983-1.621c0.2-0.165,0.451-0.24,0.717-0.219c0.26,0.025,0.492,0.15,0.658,0.353l1.194,1.462
	l1.459-1.193c0.406-0.332,1.052-0.26,1.377,0.146l1.622,1.979c0.166,0.203,0.242,0.459,0.216,0.721
	c-0.026,0.261-0.153,0.494-0.356,0.656l-1.457,1.191l1.193,1.459C25.562,22.04,25.502,22.656,25.087,22.999z M18.44,18.896
	l1.952-1.599L19.2,15.836l-1.953,1.628L18.44,18.896z M24.855,18.198l-1.629-1.951l-6.386,5.248l1.614,1.937L24.855,18.198z
	 M24.452,22.226l-1.194-1.431l-1.953,1.599l1.192,1.457L24.452,22.226z"/>
</svg>
