<?xml version="1.0" encoding="utf-8"?>
<!-- Generator: Adobe Illustrator 16.0.4, SVG Export Plug-In . SVG Version: 6.00 Build 0)  -->
<!DOCTYPE svg PUBLIC "-//W3C//DTD SVG 1.1//EN" "http://www.w3.org/Graphics/SVG/1.1/DTD/svg11.dtd">
<svg version="1.1" id="Layer_1" xmlns="http://www.w3.org/2000/svg" xmlns:xlink="http://www.w3.org/1999/xlink" x="0px" y="0px"
	 width="50px" height="50px" viewBox="0 0 50 50" enable-background="new 0 0 50 50" xml:space="preserve">
<path d="M35.363,26.246c0.005,0,0,0.375-0.314,0.707c-0.227,0.239-0.545,0.387-0.948,0.438c0.001,0.024,0.004,0.054,0.009,0.088
	l0.016,0.929c-0.013,0.127-0.07,0.438-0.42,0.688c0.064,0.253,0.054,0.652-0.316,1.17c-0.188,0.252-0.265,0.355-0.186,0.637
	c0.07,0.369,0.215,1.443-0.391,1.879c-0.226,0.207-0.96,0.678-2.829,0.444l-0.279-0.039c-0.814-0.123-1.526-0.179-1.979,0.388
	c-0.632,1.221-1.751,3.482-1.843,4.018c-0.041,0.244-0.253,0.416-0.491,0.416c-0.028,0-0.057-0.002-0.084-0.006
	c-0.272-0.047-0.456-0.305-0.41-0.576c0.144-0.85,1.688-3.811,1.995-4.396c0.897-1.143,2.188-0.947,2.961-0.832l0.253,0.036
	c1.581,0.19,2.027-0.187,2.032-0.188c0.034-0.043,0.053-0.053,0.1-0.08c0.042-0.076,0.053-0.51-0.007-0.836
	c-0.201-0.711,0.13-1.155,0.308-1.396c0.157-0.219,0.192-0.336,0.195-0.381c-0.234-0.354-0.152-0.688,0.027-0.871
	c0.056-0.058,0.124-0.099,0.197-0.123c0.088-0.028,0.141-0.06,0.169-0.079l-0.015-0.729c-0.047-0.336,0.012-0.645,0.18-0.863
	c0.165-0.214,0.37-0.262,0.45-0.271c0.305-0.008,0.497-0.062,0.58-0.149c0-0.024,0.044-0.11,0.047-0.136
	c-0.039-0.203-0.652-1.416-1.201-2.382c-0.547-1.05-0.169-1.831,0.082-2.348c0.079-0.164,0.161-0.333,0.17-0.432
	c0.276-2.854-0.831-4.428-1.826-5.479c-1.944-2.058-4.426-2.498-6.192-2.498c-0.027,0-0.054,0-0.081,0
	c-4.529,0.033-6.225,1.505-7.459,2.883c-2.689,3.001-2.203,5.562-2.182,5.671c0.062,1.344,1.691,3.755,2.315,4.578
	c2.014,2.893,1.049,5.154,1.007,5.25c-0.113,0.252-0.411,0.367-0.659,0.254c-0.252-0.11-0.366-0.404-0.256-0.656
	c0.034-0.082,0.761-1.874-0.9-4.26c-0.237-0.312-2.422-3.244-2.496-5.042c-0.016-0.042-0.624-3.058,2.427-6.462
	c1.478-1.649,3.493-3.181,8.195-3.215c2.005,0.021,4.785,0.461,7.008,2.811c1.141,1.204,2.411,3.005,2.097,6.262
	c-0.026,0.277-0.147,0.528-0.267,0.771c-0.22,0.454-0.409,0.846-0.104,1.435C35.428,25.699,35.38,26.096,35.363,26.246z
	 M25.119,21.059c-0.351,0-0.623,0.24-1.041,0.63c-0.386,0.36-0.867,0.81-1.528,1.094c-0.034,0.015-0.07,0.025-0.105,0.039
	c-0.053,0.488-0.355,2.053-2.11,2.87c-0.068,0.032-0.14,0.047-0.211,0.047c-0.188,0-0.368-0.105-0.453-0.289
	c-0.117-0.25-0.008-0.548,0.242-0.664c0.927-0.432,1.298-1.148,1.446-1.633c-0.357,0.073-0.712,0.114-1.05,0.114c0,0,0,0-0.001,0
	c-1.004,0-1.82-0.321-2.361-0.931c-0.582-0.655-0.806-1.588-0.664-2.771c0.337-2.838,3.384-5.177,7.086-5.44
	c3.731-0.252,6.715,1.335,7.081,3.705c0.142,0.917-0.029,1.663-0.507,2.22c-0.891,1.04-2.775,1.361-5.815,1.009
	C25.125,21.059,25.122,21.059,25.119,21.059z M25.243,20.064c0.811,0.095,1.521,0.131,2.148,0.124c0.001-0.003,0-0.006,0.001-0.009
	c0.108-0.368,0.244-1.243-0.033-1.598c-0.038-0.048-0.15-0.196-0.548-0.178c-0.008,0.001-0.017,0.001-0.022,0.001
	c-0.267,0-0.486-0.209-0.499-0.479c-0.013-0.275,0.2-0.51,0.478-0.521c0.729-0.039,1.166,0.285,1.382,0.562
	c0.501,0.643,0.393,1.633,0.286,2.158c0.841-0.111,1.431-0.354,1.75-0.727c0.282-0.33,0.373-0.793,0.276-1.417
	c-0.258-1.672-2.484-2.886-5.296-2.886c-0.238,0-0.479,0.009-0.725,0.026c-1.502,0.106-2.865,0.598-3.937,1.32
	c0.241,0.032,0.483,0.096,0.71,0.227c0.585,0.335,0.919,0.962,0.99,1.862c0.022,0.275-0.183,0.517-0.458,0.538
	c-0.014,0.001-0.027,0.002-0.041,0.002c-0.258,0-0.477-0.198-0.497-0.46c-0.044-0.551-0.209-0.912-0.489-1.074
	c-0.465-0.268-1.219-0.028-1.53,0.107c-0.49,0.617-0.826,1.303-0.914,2.038c-0.105,0.887,0.036,1.556,0.42,1.988
	c0.437,0.491,1.118,0.595,1.614,0.595c0.584,0,1.239-0.144,1.846-0.403c0.501-0.216,0.877-0.566,1.24-0.905
	C23.913,20.477,24.451,19.975,25.243,20.064z"/>
</svg>
