<?xml version="1.0" encoding="utf-8"?>
<!-- Generator: Adobe Illustrator 16.0.4, SVG Export Plug-In . SVG Version: 6.00 Build 0)  -->
<!DOCTYPE svg PUBLIC "-//W3C//DTD SVG 1.1//EN" "http://www.w3.org/Graphics/SVG/1.1/DTD/svg11.dtd">
<svg version="1.1" id="Layer_1" xmlns="http://www.w3.org/2000/svg" xmlns:xlink="http://www.w3.org/1999/xlink" x="0px" y="0px"
	 width="50px" height="50px" viewBox="0 0 50 50" enable-background="new 0 0 50 50" xml:space="preserve">
<path d="M32.311,13.833c-0.094-0.136-0.246-0.217-0.412-0.217H18.101c-0.164,0-0.317,0.081-0.412,0.217
	c-0.08,0.116-7.935,11.771-1.58,22.31c0.091,0.149,0.254,0.241,0.429,0.241h6.117c0.226,0,0.424-0.151,0.481-0.368
	c0.069-0.257,1.237-4.597,1.863-7.955c0.626,3.358,1.794,7.698,1.864,7.955c0.059,0.217,0.257,0.368,0.482,0.368h6.117
	c0.176,0,0.338-0.092,0.43-0.241C40.245,25.604,32.391,13.949,32.311,13.833z M18.373,14.616h13.254
	c0.327,0.519,1.171,1.941,1.977,3.935c-1.416,0.617-6.568,2.966-8.604,5.354c-2.034-2.387-7.188-4.737-8.602-5.354
	C17.202,16.558,18.045,15.135,18.373,14.616z M22.269,35.384h-5.446c-3.313-5.711-2.275-11.767-0.784-15.897
	c1.457,0.64,6.695,3.053,8.354,5.272c-0.002,0.02-0.01,0.038-0.009,0.058C24.503,26.77,22.713,33.7,22.269,35.384z M33.18,35.384
	H27.73c-0.443-1.684-2.234-8.614-2.113-10.566c0.001-0.02-0.008-0.038-0.01-0.058c1.658-2.218,6.897-4.632,8.354-5.272
	C35.453,23.617,36.491,29.672,33.18,35.384z M19.2,33.889c0.159,0.226,0.106,0.537-0.117,0.696c-0.088,0.062-0.188,0.093-0.29,0.093
	c-0.156,0-0.311-0.072-0.407-0.21c-2.646-3.726-1.784-9.962-1.747-10.226c0.039-0.274,0.297-0.458,0.566-0.424
	c0.273,0.039,0.463,0.293,0.424,0.566C17.62,24.445,16.788,30.491,19.2,33.889z M31.613,34.468c-0.098,0.138-0.252,0.21-0.407,0.21
	c-0.101,0-0.202-0.029-0.29-0.093c-0.225-0.159-0.277-0.472-0.117-0.696c2.417-3.402,1.581-9.442,1.572-9.504
	c-0.039-0.273,0.15-0.526,0.424-0.566c0.266-0.034,0.525,0.149,0.566,0.424C33.398,24.506,34.261,30.743,31.613,34.468z"/>
</svg>
