<?xml version="1.0" encoding="utf-8"?>
<!-- Generator: Adobe Illustrator 16.0.4, SVG Export Plug-In . SVG Version: 6.00 Build 0)  -->
<!DOCTYPE svg PUBLIC "-//W3C//DTD SVG 1.1//EN" "http://www.w3.org/Graphics/SVG/1.1/DTD/svg11.dtd">
<svg version="1.1" id="Layer_1" xmlns="http://www.w3.org/2000/svg" xmlns:xlink="http://www.w3.org/1999/xlink" x="0px" y="0px"
	 width="50px" height="50px" viewBox="0 0 50 50" enable-background="new 0 0 50 50" xml:space="preserve">
<path d="M32.231,24.41c-0.12-0.158-0.347-0.188-0.505-0.065l-1.102,0.844l-0.107-0.141c-0.146-0.191-0.356-0.314-0.595-0.347
	c-0.24-0.031-0.474,0.03-0.665,0.177l-3.63,2.778l-0.067-0.087c-0.118-0.159-0.348-0.188-0.503-0.067
	c-0.157,0.119-0.188,0.345-0.067,0.503l0.721,0.945l-0.873,0.667l-0.356-0.47c-0.121-0.159-0.348-0.188-0.505-0.067
	c-0.156,0.12-0.188,0.347-0.066,0.503l1.152,1.514c0.07,0.094,0.178,0.143,0.285,0.143c0.076,0,0.153-0.023,0.219-0.073
	c0.157-0.12,0.188-0.346,0.067-0.504l-0.359-0.472l0.873-0.668l0.719,0.945c0.07,0.092,0.178,0.141,0.286,0.141
	c0.076,0,0.152-0.022,0.218-0.072c0.158-0.12,0.188-0.346,0.068-0.504l-0.067-0.089l3.633-2.781c0.393-0.3,0.467-0.864,0.168-1.259
	l-0.109-0.143l1.104-0.847C32.322,24.794,32.353,24.567,32.231,24.41z M30.566,26.59l-0.644,0.491l-0.354-0.466
	c-0.121-0.16-0.349-0.188-0.503-0.068c-0.158,0.12-0.189,0.347-0.068,0.504l0.355,0.468l-0.194,0.148l-0.354-0.465
	c-0.12-0.159-0.348-0.188-0.503-0.068c-0.158,0.12-0.188,0.346-0.067,0.504l0.354,0.467l-0.194,0.148l-0.354-0.467
	c-0.121-0.159-0.349-0.188-0.504-0.066c-0.157,0.119-0.188,0.344-0.067,0.502l0.355,0.469l-0.891,0.681l-0.868-1.142l3.631-2.779
	c0.038-0.029,0.086-0.044,0.133-0.035c0.047,0.006,0.088,0.031,0.118,0.068l0.651,0.855C30.658,26.417,30.644,26.53,30.566,26.59z
	 M34.389,27.06c0-2.156-1.102-4.06-2.77-5.179l0.001-1.321c-0.005-1.478-1.207-2.678-2.682-2.678c0,0-0.004,0-0.006,0l-3.03,0.003
	c1.193-0.759,1.99-2.091,1.99-3.608c0-2.357-1.919-4.276-4.277-4.276s-4.277,1.919-4.277,4.276c0,1.521,0.8,2.854,1.999,3.613
	l-3.048,0.004c-1.479,0-2.679,1.205-2.678,2.684v9.042c0,0.198,0.16,0.358,0.358,0.358h3.077v7.342c0,1.478,1.151,2.681,2.567,2.681
	h4c1.415,0,2.566-1.203,2.566-2.681v-4.03C31.606,33.272,34.389,30.485,34.389,27.06z M20.057,14.276c0-1.963,1.598-3.56,3.56-3.56
	c1.963,0,3.56,1.597,3.56,3.56c0,1.962-1.597,3.558-3.56,3.558S20.057,16.238,20.057,14.276z M25.615,39.28h-1.68
	c0.022-0.049,0.038-0.1,0.038-0.155V32.56c0-0.197-0.159-0.358-0.358-0.358c-0.198,0-0.359,0.161-0.359,0.358v6.565
	c0,0.056,0.016,0.106,0.039,0.155h-1.68c-1.021,0-1.85-0.881-1.85-1.963v-7.692c0-0.002,0.002-0.004,0.002-0.007
	s-0.002-0.004-0.002-0.008v-6.133c0-0.197-0.159-0.358-0.358-0.358c-0.198,0-0.359,0.161-0.359,0.358v5.78h-2.717v-8.684
	c-0.001-0.522,0.202-1.017,0.572-1.388s0.861-0.575,1.387-0.576l10.645-0.012h0.003c1.08,0,1.961,0.881,1.964,1.961v0.91
	c-0.829-0.408-1.759-0.645-2.743-0.645c-3.437,0-6.231,2.795-6.231,6.23c0,3.201,2.428,5.844,5.538,6.19v4.069
	C27.464,38.399,26.635,39.28,25.615,39.28z M28.157,32.569c-3.039,0-5.514-2.473-5.514-5.512s2.475-5.513,5.514-5.513
	c3.04,0,5.512,2.474,5.512,5.513C33.669,30.099,31.197,32.569,28.157,32.569z"/>
</svg>
