<?xml version="1.0" encoding="utf-8"?>
<!-- Generator: Adobe Illustrator 16.0.4, SVG Export Plug-In . SVG Version: 6.00 Build 0)  -->
<!DOCTYPE svg PUBLIC "-//W3C//DTD SVG 1.1//EN" "http://www.w3.org/Graphics/SVG/1.1/DTD/svg11.dtd">
<svg version="1.1" id="Layer_1" xmlns="http://www.w3.org/2000/svg" xmlns:xlink="http://www.w3.org/1999/xlink" x="0px" y="0px"
	 width="50px" height="50px" viewBox="0 0 50 50" enable-background="new 0 0 50 50" xml:space="preserve">
<g>
	<path d="M34.722,14.397H27.66c-0.487,0-0.881,0.396-0.881,0.881c0,0.487,0.394,0.882,0.881,0.882h4.934l-6.078,6.078
		c-0.096,0.096-0.158,0.205-0.2,0.323c-1.3-1.046-2.884-1.644-4.576-1.644c-1.962,0-3.806,0.763-5.193,2.149
		c-2.862,2.863-2.862,7.521,0,10.386c1.386,1.387,3.231,2.15,5.192,2.15c1.962,0,3.806-0.766,5.193-2.15
		c2.67-2.674,2.815-6.889,0.503-9.77c0.119-0.042,0.23-0.105,0.326-0.2l6.077-6.078v4.935c0,0.486,0.395,0.881,0.882,0.881
		c0.486,0,0.881-0.395,0.881-0.881v-7.062C35.603,14.792,35.207,14.397,34.722,14.397z M25.686,32.207
		c-2.11,2.109-5.785,2.109-7.892,0c-2.176-2.176-2.176-5.717,0-7.893c1.053-1.054,2.455-1.634,3.947-1.634
		c1.489,0,2.892,0.579,3.945,1.634C27.861,26.49,27.861,30.031,25.686,32.207z"/>
</g>
</svg>
