<?xml version="1.0" encoding="utf-8"?>
<!-- Generator: Adobe Illustrator 16.0.4, SVG Export Plug-In . SVG Version: 6.00 Build 0)  -->
<!DOCTYPE svg PUBLIC "-//W3C//DTD SVG 1.1//EN" "http://www.w3.org/Graphics/SVG/1.1/DTD/svg11.dtd">
<svg version="1.1" id="Layer_1" xmlns="http://www.w3.org/2000/svg" xmlns:xlink="http://www.w3.org/1999/xlink" x="0px" y="0px"
	 width="50px" height="50px" viewBox="0 0 50 50" enable-background="new 0 0 50 50" xml:space="preserve">
<g>
	<path d="M30.52,25.074c-0.174-0.22-0.4-0.513-0.463-0.688c-0.109-0.295-0.189-1.243-0.189-1.243
		c-0.033-1.119-0.309-1.604-0.309-1.604c-0.475-0.757-0.562-2.17-0.562-2.17l-0.021-2.386c-0.164-1.627-1.365-1.64-1.365-1.64
		c-0.938-0.14-1.246-0.403-1.342-0.517l0.014-0.002c0,0-0.883-1.354-0.5-1.924c0,0,0.48-0.655,0.488-1.012
		c0,0,0.119-0.604-0.504-1.277C25.464,10.29,25.07,9.99,24.109,10c-0.377,0.003-0.948,0.103-1.387,0.582
		c-0.267,0.288-0.459,0.651-0.393,1.239c0.014,0.128,0.199,0.271,0.074,0.521l-0.256,0.569c0,0-0.004,0.146,0.225,0.148
		c0,0,0.059,0.006,0.043,0.133l0.001,0.183c0,0,0.008,0.056,0.108,0.086l-0.01,0.056c0,0-0.052,0.06,0.041,0.185
		c0.035,0.046,0.09,0.104,0.06,0.223l0.052,0.283c0,0,0.105,0.121,0.518,0.063c0.145-0.021,0.41-0.095,0.571,0.103
		c0,0,0.026,0.228,0.054,0.397h-0.041c0,0-0.168,0.393-1.379,0.572c0,0-1.201,0.012-1.367,1.641l-0.021,2.385
		c0,0-0.088,1.412-0.562,2.17c0,0-0.275,0.486-0.309,1.605c0,0-0.08,0.947-0.188,1.242c-0.064,0.174-0.289,0.469-0.465,0.688
		c-0.344,0.43-0.926,1.326-0.615,1.427c0,0,0.24,0.022,0.562-0.608c0,0-0.007,0.242-0.264,0.947
		c-0.05,0.133-0.263,0.805,0.083,0.562c0,0,0.158-0.11,0.367-0.799c0,0-0.11,1.159,0.013,1.221c0.162,0.078,0.252-0.149,0.325-1.168
		c0,0,0.074-0.326,0.109,0.927c0.002,0.063,0.098,0.386,0.229,0.112c0.111-0.23,0.062-0.844,0.062-1.047
		c0,0,0.144,0.791,0.274,0.791c0,0,0.157,0.185,0.095-0.797c-0.012-0.162,0.045-0.492,0.051-0.589l0.016-0.377
		c0,0-0.039-0.433-0.039-0.61c0-0.045,0.154-0.633,0.562-1.256c0,0,0.848-1.502,0.793-2.485c0,0-0.013-0.938,0.328-1.47
		c0,0,0.243,2.656,0.078,3.401c0,0-0.763,1.832-0.595,3.199c0.124,1.016,0.362,3.188,0.606,4.046
		c0.125,0.443,0.051,1.562,0.152,1.843c0.044,0.12,0.021,0.231-0.076,0.509c-0.344,0.961-0.301,1.64,0.562,4.192
		c0,0,0.265,0.563,0.132,1.582c0,0-0.55,1.131-0.197,1.153c0,0,0.029,0.074,0.146,0.016c0,0,0.189,0.195,0.396,0.089
		c0,0,0.189,0.151,0.352,0.017c0,0,0.133,0.149,0.322,0.029c0,0,0.25,0.166,0.397-0.015c0,0,0.265,0.062-0.206-1.13
		c0,0-0.18-1.262-0.277-1.508c-0.188-0.471-0.057-1.756-0.016-2.034c0.066-0.459,0.031-1.245-0.089-1.853
		c-0.085-0.438,0.149-1.26,0.235-1.766c0.18-1.064,0.527-3.782,0.483-4.294l0.146,0.05c0.104,0,0.17-0.05,0.17-0.05
		c-0.043,0.512,0.306,3.229,0.487,4.294c0.084,0.506,0.318,1.327,0.232,1.766c-0.119,0.606-0.152,1.394-0.088,1.853
		c0.041,0.278,0.174,1.563-0.014,2.034c-0.1,0.246-0.279,1.508-0.279,1.508c-0.472,1.189-0.206,1.13-0.206,1.13
		c0.146,0.181,0.397,0.015,0.397,0.015c0.189,0.12,0.32-0.029,0.32-0.029c0.164,0.136,0.354-0.017,0.354-0.017
		c0.207,0.106,0.396-0.089,0.396-0.089c0.117,0.061,0.146-0.016,0.146-0.016c0.354-0.022-0.197-1.153-0.197-1.153
		c-0.133-1.019,0.133-1.582,0.133-1.582c0.859-2.554,0.904-3.231,0.562-4.192c-0.102-0.276-0.123-0.389-0.078-0.509
		c0.104-0.278,0.029-1.399,0.154-1.843c0.242-0.855,0.48-3.03,0.605-4.046c0.166-1.367-0.596-3.199-0.596-3.199
		c-0.164-0.745,0.078-3.401,0.078-3.401c0.342,0.531,0.33,1.47,0.33,1.47c-0.057,0.983,0.793,2.485,0.793,2.485
		c0.406,0.623,0.561,1.211,0.561,1.256c0,0.179-0.039,0.61-0.039,0.61l0.016,0.377c0.008,0.097,0.062,0.427,0.053,0.589
		c-0.064,0.98,0.092,0.797,0.092,0.797c0.133,0,0.277-0.791,0.277-0.791c0,0.203-0.049,0.815,0.061,1.047
		c0.133,0.272,0.229-0.049,0.23-0.112c0.033-1.253,0.107-0.926,0.107-0.926c0.074,1.018,0.164,1.245,0.326,1.167
		c0.123-0.062,0.01-1.221,0.01-1.221c0.211,0.688,0.369,0.799,0.369,0.799c0.346,0.242,0.133-0.43,0.084-0.562
		c-0.258-0.705-0.264-0.947-0.264-0.947c0.326,0.633,0.568,0.609,0.568,0.609C31.445,26.399,30.863,25.504,30.52,25.074z
		 M22.937,11.603c-0.088-0.088-0.164-0.17-0.178-0.285c-0.031-0.278,0.03-0.4,0.166-0.549c0.362-0.396,0.836-0.484,1.17-0.49
		c0.897-0.008,1.217,0.255,1.467,0.523c0.412,0.446,0.443,0.836,0.439,0.977l0.004,0.051c0.01,0.516-0.371,0.924-0.848,0.947
		c-0.334,0.018-0.354-0.207-0.516-0.377l-0.066,0.006c-0.393,0.019-0.326-0.399-0.48-0.512
		C23.726,11.628,23.212,11.873,22.937,11.603z"/>
</g>
</svg>
