<?xml version="1.0" encoding="utf-8"?>
<!-- Generator: Adobe Illustrator 16.0.4, SVG Export Plug-In . SVG Version: 6.00 Build 0)  -->
<!DOCTYPE svg PUBLIC "-//W3C//DTD SVG 1.1//EN" "http://www.w3.org/Graphics/SVG/1.1/DTD/svg11.dtd">
<svg version="1.1" id="Layer_1" xmlns="http://www.w3.org/2000/svg" xmlns:xlink="http://www.w3.org/1999/xlink" x="0px" y="0px"
	 width="50px" height="50px" viewBox="0 0 50 50" enable-background="new 0 0 50 50" xml:space="preserve">
<path d="M27.552,34.06c-0.893,1.179-2.754,2.089-5.403,1.135c-0.558-0.2-0.979-1.09,0.178-1.223
	c0.699-0.081,2.163-0.253,2.335-1.579c0.018-0.133,0.038-0.294,0.062-0.463c-0.072-0.004-0.146-0.018-0.216-0.057
	c-0.876-0.481-1.199-1.766-1.231-1.91c-0.063-0.269,0.103-0.535,0.371-0.601c0.27-0.062,0.536,0.103,0.602,0.371
	c0.061,0.254,0.325,1.021,0.732,1.257c0.271-0.617,0.789-1.109,1.902-0.91C27.978,30.275,29.326,31.713,27.552,34.06z
	 M34.313,30.227v4.919c0,0.276-0.225,0.5-0.5,0.5c-0.276,0-0.5-0.224-0.5-0.5v-4.919c0-3.234-1.425-4.853-4.711-5.388
	c-0.938,1.31-2.188,2.266-3.603,2.266s-2.663-0.956-3.603-2.266c-3.288,0.533-4.711,2.15-4.711,5.388v4.919
	c0,0.276-0.224,0.5-0.5,0.5c-0.275,0-0.5-0.224-0.5-0.5v-4.919c0-4.575,2.749-5.851,5.124-6.309
	c-0.747-1.361-1.187-2.924-1.187-4.188c0-2.964,2.411-5.375,5.375-5.375s5.375,2.411,5.375,5.375c0,1.264-0.438,2.826-1.188,4.188
	C31.573,24.376,34.313,25.66,34.313,30.227z M29.376,19.729c0-2.412-1.963-4.375-4.375-4.375s-4.375,1.963-4.375,4.375
	c0,2.459,2.002,6.375,4.375,6.375S29.376,22.188,29.376,19.729z M19.729,30.562c-0.275,0-0.5,0.224-0.5,0.5v4.083
	c0,0.275,0.225,0.5,0.5,0.5c0.276,0,0.5-0.225,0.5-0.5v-4.083C20.229,30.785,20.007,30.562,19.729,30.562z M30.272,30.562
	c-0.276,0-0.5,0.224-0.5,0.5v4.083c0,0.275,0.224,0.5,0.5,0.5c0.275,0,0.5-0.225,0.5-0.5v-4.083
	C30.772,30.785,30.548,30.562,30.272,30.562z"/>
</svg>
