<?xml version="1.0" encoding="utf-8"?>
<!-- Generator: Adobe Illustrator 16.0.4, SVG Export Plug-In . SVG Version: 6.00 Build 0)  -->
<!DOCTYPE svg PUBLIC "-//W3C//DTD SVG 1.1//EN" "http://www.w3.org/Graphics/SVG/1.1/DTD/svg11.dtd">
<svg version="1.1" id="Layer_1" xmlns="http://www.w3.org/2000/svg" xmlns:xlink="http://www.w3.org/1999/xlink" x="0px" y="0px"
	 width="50px" height="50px" viewBox="0 0 50 50" enable-background="new 0 0 50 50" xml:space="preserve">
<path d="M26.18,24.109c0.127,0.154,0.106,0.379-0.046,0.507c-0.151,0.127-0.379,0.106-0.506-0.046
	c-0.497-0.596-1.386-0.764-2.06-0.396c-0.524,0.29-0.851,0.843-0.851,1.44c0,0.197-0.161,0.359-0.359,0.359
	c-0.198,0-0.359-0.162-0.359-0.359c0-0.859,0.468-1.653,1.222-2.069C24.188,23.016,25.467,23.255,26.18,24.109z M36.016,28.156
	c0,0.197-0.162,0.359-0.361,0.359h-2.812c-1.713,2.385-5.331,4.676-5.519,4.795c-0.059,0.037-0.124,0.056-0.191,0.056
	c-0.066,0-0.133-0.019-0.191-0.056c-0.032-0.021-0.176-0.111-0.385-0.252v4.26c0,1.479-1.153,2.682-2.568,2.682h-4
	c-1.416,0-2.567-1.203-2.567-2.682v-7.34h-3.077c-0.199,0-0.36-0.16-0.36-0.359v-9.042c-0.001-1.478,1.199-2.683,2.677-2.685
	l3.048-0.002c-1.199-0.76-1.999-2.093-1.999-3.613c0-2.358,1.919-4.277,4.277-4.277c2.359,0,4.278,1.919,4.278,4.277
	c0,1.518-0.796,2.85-1.992,3.607l3.033-0.003c0.002,0,0.002,0,0.004,0c1.476,0,2.678,1.2,2.682,2.679v1.1
	c0.637,0.016,1.265,0.18,1.822,0.486c1.265,0.699,2.049,2.027,2.049,3.47c0,0.411-0.066,0.823-0.195,1.222
	c-0.07,0.312-0.206,0.635-0.379,0.959h2.365C35.854,27.797,36.016,27.957,36.016,28.156z M21.989,17.835
	c1.962,0,3.559-1.597,3.559-3.558c0-1.963-1.597-3.56-3.559-3.56c-1.962,0-3.559,1.597-3.559,3.56
	C18.43,16.238,20.026,17.835,21.989,17.835z M31.469,22.775c-0.478-0.264-1.019-0.401-1.564-0.401c-0.967,0-1.877,0.428-2.494,1.173
	c-0.068,0.083-0.169,0.13-0.276,0.13c-0.106,0-0.208-0.047-0.276-0.13c-0.621-0.745-1.53-1.173-2.499-1.173
	c-0.545,0-1.085,0.14-1.564,0.403c-1.034,0.57-1.676,1.658-1.676,2.839c0,0.337,0.054,0.673,0.161,0.997
	c0.082,0.369,0.267,0.755,0.511,1.145h3.468c0.12,0,0.232,0.061,0.3,0.159l0.758,1.14l2.352-3.574
	c0.075-0.113,0.208-0.17,0.342-0.159c0.135,0.017,0.25,0.106,0.297,0.233l0.813,2.24h2.338c0.249-0.393,0.437-0.779,0.519-1.148
	c0.115-0.358,0.17-0.694,0.17-1.031C33.146,24.438,32.503,23.35,31.469,22.775z M25.837,32.564c-1.26-0.893-3.286-2.463-4.439-4.088
	h-2.116c-0.199,0-0.359-0.162-0.359-0.359c0-0.199,0.161-0.359,0.359-0.359h1.676c-0.169-0.32-0.304-0.642-0.374-0.953
	c-0.121-0.363-0.187-0.775-0.187-1.188c0-1.441,0.784-2.771,2.047-3.47c0.586-0.321,1.247-0.492,1.912-0.492
	c1.045,0,2.037,0.408,2.774,1.133c0.587-0.575,1.336-0.941,2.144-1.071v-1.153c-0.004-1.08-0.883-1.961-1.963-1.961
	c0,0-0.002,0-0.004,0l-10.645,0.012c-0.524,0-1.017,0.205-1.387,0.576s-0.574,0.863-0.573,1.388v8.684h2.717v-5.78
	c0-0.197,0.161-0.358,0.359-0.358c0.198,0,0.359,0.161,0.359,0.358v6.133c0,0.004,0.001,0.005,0.001,0.008s-0.001,0.005-0.001,0.007
	v7.692c0,1.082,0.83,1.963,1.848,1.963h1.679c-0.022-0.049-0.038-0.1-0.038-0.155v-6.565c0-0.197,0.161-0.358,0.359-0.358
	c0.198,0,0.359,0.161,0.359,0.358v6.565c0,0.056-0.015,0.106-0.038,0.155h1.679c1.02,0,1.849-0.881,1.849-1.963v-4.756H25.837z
	 M31.938,28.516h-2.069c-0.151,0-0.287-0.095-0.339-0.236l-0.655-1.803l-2.255,3.428c-0.067,0.102-0.18,0.162-0.299,0.162
	c0,0,0,0-0.002,0c-0.119,0-0.231-0.061-0.299-0.159l-0.954-1.431h-2.764c1.497,1.85,4.106,3.627,4.832,4.103
	C27.854,32.104,30.441,30.341,31.938,28.516z"/>
</svg>
