<?xml version="1.0" encoding="utf-8"?>
<!-- Generator: Adobe Illustrator 16.0.4, SVG Export Plug-In . SVG Version: 6.00 Build 0)  -->
<!DOCTYPE svg PUBLIC "-//W3C//DTD SVG 1.1//EN" "http://www.w3.org/Graphics/SVG/1.1/DTD/svg11.dtd">
<svg version="1.1" id="Layer_1" xmlns="http://www.w3.org/2000/svg" xmlns:xlink="http://www.w3.org/1999/xlink" x="0px" y="0px"
	 width="50px" height="50px" viewBox="0 0 50 50" enable-background="new 0 0 50 50" xml:space="preserve">
<g>
	<path d="M23.022,18.685c0.117,0.129,0.256,0.254,0.426,0.346c0.081,0.053,0.177,0.076,0.269,0.115l0.252,0.076
		c0.323,0.096,0.628,0.228,0.807,0.41c0.09,0.092,0.142,0.193,0.176,0.293l0.031,0.153v0.149c-0.38,0.203-0.683,0.744-0.735,1.404
		c-0.069,0.866,0.313,1.604,0.856,1.646c0.542,0.043,1.039-0.623,1.108-1.488c0.058-0.718-0.198-1.341-0.596-1.561l-0.001-0.012
		l-0.036-0.25l-0.094-0.266c-0.088-0.174-0.214-0.339-0.376-0.46c-0.322-0.244-0.706-0.331-1.056-0.39l-0.258-0.041l-0.217-0.062
		c-0.142-0.052-0.272-0.14-0.39-0.237c-0.233-0.199-0.398-0.455-0.522-0.681c-0.245-0.455-0.327-0.8-0.327-0.8s0.033,0.35,0.22,0.85
		C22.657,18.131,22.789,18.421,23.022,18.685z"/>
	<path d="M25.842,19.972l0.041,0.146c0.405,0.327,0.631,0.991,0.573,1.692c-0.079,0.979-0.64,1.719-1.305,1.719l-0.069-0.002
		c-0.688-0.057-1.163-0.896-1.081-1.912c0.049-0.617,0.3-1.168,0.673-1.475l0.041-0.141c-0.03-0.09-0.03-0.09-1.798-0.096h-0.001
		l-0.129,0.13l0.129,0.129c0.434,0.001,1.018,0.003,1.368,0.005c-0.3,0.359-0.497,0.87-0.541,1.425
		c-0.094,1.161,0.485,2.123,1.318,2.19l0.09,0.004c0.802,0,1.473-0.842,1.562-1.955c0.053-0.66-0.113-1.275-0.441-1.688h1.674
		l0.131-0.129l-0.131-0.129h-1.981L25.842,19.972z"/>
	<path d="M24.952,18.595c0.116,0.141,0.255,0.275,0.425,0.375c0.081,0.059,0.178,0.084,0.27,0.127l0.252,0.081
		c0.324,0.104,0.627,0.247,0.807,0.446l0.081,0.113h0.642l-0.013-0.035c-0.087-0.189-0.213-0.369-0.375-0.499
		c-0.323-0.265-0.706-0.359-1.058-0.422l-0.258-0.044l-0.217-0.066c-0.143-0.057-0.271-0.15-0.389-0.258
		c-0.234-0.217-0.399-0.493-0.523-0.736c-0.244-0.494-0.326-0.867-0.326-0.867s0.033,0.379,0.22,0.92
		C24.586,17.996,24.718,18.312,24.952,18.595z"/>
	<path d="M32.916,15.155h-3.62c-0.396-1.161-1.376-1.188-1.376-1.188c-1.355-0.202-1.544-0.64-1.544-0.64
		c-0.287-0.413-0.123-1.205-0.123-1.205c0.238-0.194,0.33-0.708,0.33-0.708c0.396-0.304,0.376-0.747,0.194-0.742
		c-0.147,0.004-0.114-0.118-0.114-0.118c0.247-1.996-1.527-2.099-1.527-2.099h-0.271c0,0-1.774,0.103-1.527,2.099
		c0,0,0.033,0.122-0.115,0.118c-0.182-0.005-0.199,0.438,0.195,0.742c0,0,0.092,0.514,0.33,0.708c0,0,0.164,0.792-0.123,1.205
		c0,0-0.188,0.438-1.544,0.64c0,0-0.981,0.026-1.376,1.188h-3.621c-0.276,0-0.5,0.224-0.5,0.5v9.334c0,0.275,0.224,0.5,0.5,0.5
		h1.296c-0.27,0.437-0.467,0.883-0.241,0.955c0,0,0.27,0.026,0.627-0.682c0,0-0.007,0.272-0.294,1.062
		c-0.055,0.148-0.294,0.898,0.093,0.628c0,0,0.178-0.123,0.412-0.894c0,0-0.125,1.297,0.013,1.364
		c0.182,0.088,0.281-0.168,0.363-1.306c0,0,0.084-0.366,0.123,1.035c0.002,0.072,0.109,0.432,0.257,0.125
		c0.124-0.258,0.069-0.941,0.069-1.17c0,0,0.16,0.886,0.309,0.886c0,0,0.176,0.206,0.104-0.894c-0.012-0.18,0.05-0.549,0.058-0.656
		l0.017-0.422l-0.003-0.035h1.271c-0.028,0.31-0.04,0.617-0.005,0.906c0.139,1.137,0.406,3.567,0.678,4.525
		c0.141,0.496,0.057,1.748,0.172,2.061c0.05,0.135,0.024,0.26-0.086,0.568c-0.384,1.076-0.335,1.834,0.628,4.689
		c0,0,0.296,0.633,0.147,1.771c0,0-0.615,1.265-0.221,1.29c0,0,0.032,0.084,0.164,0.018c0,0,0.213,0.219,0.443,0.101
		c0,0,0.213,0.169,0.395,0.019c0,0,0.147,0.168,0.36,0.032c0,0,0.279,0.187,0.444-0.017c0,0,0.295,0.066-0.23-1.264
		c0,0-0.201-1.41-0.312-1.687c-0.211-0.527-0.062-1.965-0.017-2.274c0.074-0.515,0.035-1.395-0.099-2.074
		c-0.096-0.487,0.167-1.407,0.263-1.973c0.201-1.191,0.591-4.23,0.542-4.804l0.162,0.056c0.117,0,0.191-0.056,0.191-0.056
		c-0.049,0.573,0.34,3.612,0.542,4.804c0.096,0.564,0.358,1.484,0.264,1.973c-0.135,0.681-0.174,1.561-0.1,2.074
		c0.047,0.311,0.194,1.747-0.017,2.274c-0.11,0.274-0.312,1.687-0.312,1.687c-0.527,1.33-0.23,1.264-0.23,1.264
		c0.165,0.201,0.443,0.017,0.443,0.017c0.213,0.136,0.36-0.032,0.36-0.032c0.183,0.15,0.396-0.019,0.396-0.019
		c0.229,0.118,0.442-0.101,0.442-0.101c0.132,0.066,0.164-0.018,0.164-0.018c0.396-0.025-0.221-1.29-0.221-1.29
		c-0.147-1.138,0.147-1.771,0.147-1.771c0.963-2.855,1.012-3.613,0.627-4.689c-0.109-0.311-0.136-0.434-0.086-0.568
		c0.115-0.312,0.031-1.563,0.172-2.061c0.271-0.958,0.539-3.391,0.679-4.525c0.034-0.289,0.022-0.598-0.005-0.906h1.271
		l-0.003,0.035l0.018,0.422c0.008,0.107,0.068,0.478,0.058,0.656c-0.071,1.1,0.104,0.894,0.104,0.894
		c0.147,0,0.309-0.886,0.309-0.886c0,0.229-0.055,0.912,0.068,1.17c0.147,0.307,0.256-0.053,0.258-0.125
		c0.039-1.401,0.123-1.035,0.123-1.035c0.082,1.138,0.182,1.394,0.363,1.306c0.137-0.067,0.012-1.364,0.012-1.364
		c0.234,0.771,0.412,0.894,0.412,0.894c0.387,0.271,0.147-0.479,0.094-0.628c-0.287-0.789-0.295-1.062-0.295-1.062
		c0.357,0.708,0.628,0.682,0.628,0.682c0.226-0.072,0.028-0.52-0.241-0.955h1.295c0.275,0,0.5-0.225,0.5-0.5v-9.334
		C33.416,15.379,33.191,15.155,32.916,15.155z M32.416,24.489H17.583v-8.334h14.833V24.489z"/>
</g>
</svg>
