<?xml version="1.0" encoding="utf-8"?>
<!-- Generator: Adobe Illustrator 16.0.4, SVG Export Plug-In . SVG Version: 6.00 Build 0)  -->
<!DOCTYPE svg PUBLIC "-//W3C//DTD SVG 1.1//EN" "http://www.w3.org/Graphics/SVG/1.1/DTD/svg11.dtd">
<svg version="1.1" id="Layer_1" xmlns="http://www.w3.org/2000/svg" xmlns:xlink="http://www.w3.org/1999/xlink" x="0px" y="0px"
	 width="50px" height="50px" viewBox="0 0 50 50" enable-background="new 0 0 50 50" xml:space="preserve">
<g>
	<path d="M14.765,34.506c0,0-1.029-5.3,1.325-6.771c0,0,1.472-1.178,1.128-3.042c0,0-0.539-3.729,2.258-4.366
		c0,0,3.092-0.982,5.84,0.343c0,0,2.602-2.355,6.625-0.245c0,0,1.965,0.687,1.425,5.152c0,0-0.148,1.03,1.227,2.062
		c0,0,1.669,1.521,0.245,7.264c0,0,2.775-3.938,1.816-10.648c-0.736-5.152-1.743-5.695-2.799-6.429
		c-2.646-1.841-7.508-3.683-12.711-2.16c-2.627,0.769-7.213,1.474-7.998,7.804c0,0,0.244-0.099,0.688-0.246
		C13.832,23.219,12.31,26.311,14.765,34.506z"/>
</g>
</svg>
