<?xml version="1.0" encoding="utf-8"?>
<!-- Generator: Adobe Illustrator 16.0.4, SVG Export Plug-In . SVG Version: 6.00 Build 0)  -->
<!DOCTYPE svg PUBLIC "-//W3C//DTD SVG 1.1//EN" "http://www.w3.org/Graphics/SVG/1.1/DTD/svg11.dtd">
<svg version="1.1" id="Layer_1" xmlns="http://www.w3.org/2000/svg" xmlns:xlink="http://www.w3.org/1999/xlink" x="0px" y="0px"
	 width="50px" height="50px" viewBox="0 0 50 50" enable-background="new 0 0 50 50" xml:space="preserve">
<path d="M21.186,44.828c0,0.276-0.225,0.5-0.5,0.5c-2.996,0-5.434-3.224-5.434-7.187c0-1.104,0.193-2.197,0.562-3.188
	c-1.267-1.172-1.985-2.808-1.985-4.543c0-0.826,0.161-1.629,0.479-2.388c0.105-0.255,0.396-0.373,0.653-0.269
	c0.255,0.106,0.375,0.399,0.269,0.654c-0.267,0.635-0.4,1.309-0.4,2.002c0,1.559,0.691,3.021,1.898,4.012
	c0.172,0.143,0.229,0.379,0.144,0.582c-0.405,0.955-0.619,2.039-0.619,3.137c0,3.41,1.988,6.188,4.433,6.188
	C20.961,44.328,21.186,44.551,21.186,44.828z M14.52,18.676c1.222,0,2.367,0.48,3.226,1.354c0.094,0.096,0.223,0.148,0.356,0.148
	c0.137,0.05,0.268-0.057,0.36-0.154c0.481-0.505,1.03-0.94,1.63-1.293c0.508-0.298,1.059-0.538,1.639-0.714
	c0.211-0.064,0.354-0.259,0.354-0.479v-2.113c0-0.13-0.051-0.255-0.142-0.349c-0.996-1.024-1.565-2.492-1.565-4.025
	c0-2.967,2.073-5.381,4.622-5.381c2.548,0,4.621,2.414,4.621,5.381c0,1.534-0.57,3.002-1.564,4.025
	c-0.092,0.094-0.143,0.219-0.143,0.349v2.113c0,0.22,0.145,0.414,0.354,0.479c0.578,0.175,1.129,0.416,1.639,0.714
	c0.597,0.352,1.146,0.786,1.631,1.293c0.095,0.098,0.263,0.176,0.361,0.154c0.134,0,0.263-0.054,0.355-0.148
	c0.857-0.872,2.003-1.354,3.227-1.354c0.275,0,0.5-0.224,0.5-0.5c0-0.276-0.225-0.5-0.5-0.5c-1.326,0-2.576,0.462-3.572,1.31
	c-0.458-0.427-0.959-0.801-1.495-1.117c-0.472-0.276-0.976-0.509-1.499-0.692v-1.553c1.087-1.199,1.707-2.853,1.707-4.572
	c0-3.519-2.521-6.381-5.621-6.381s-5.622,2.862-5.622,6.381c0,1.718,0.62,3.372,1.707,4.571v1.554
	c-0.526,0.184-1.028,0.416-1.5,0.693c-0.537,0.315-1.039,0.69-1.495,1.116c-0.997-0.848-2.247-1.31-3.57-1.31
	c-0.275,0-0.5,0.224-0.5,0.5C14.02,18.453,14.243,18.676,14.52,18.676z M36.171,30.412c0-0.824-0.161-1.627-0.479-2.388
	c-0.105-0.256-0.399-0.373-0.652-0.269c-0.255,0.105-0.375,0.397-0.27,0.652c0.268,0.639,0.401,1.312,0.401,2.002
	c0,1.559-0.692,3.021-1.899,4.014c-0.172,0.142-0.229,0.377-0.144,0.582c0.405,0.953,0.62,2.037,0.62,3.136
	c0,3.411-1.988,6.187-4.434,6.187c-0.275,0-0.5,0.225-0.5,0.5c0,0.276,0.225,0.5,0.5,0.5c2.996,0,5.434-3.224,5.434-7.187
	c0-1.104-0.193-2.198-0.564-3.188C35.451,33.783,36.171,32.147,36.171,30.412z M25,23.672c-0.275,0-0.5,0.224-0.5,0.5v15.796
	c0,0.277,0.225,0.5,0.5,0.5s0.5-0.223,0.5-0.5V24.172C25.5,23.896,25.275,23.672,25,23.672z M25,20.711c-0.275,0-0.5,0.224-0.5,0.5
	v1.232c0,0.276,0.225,0.5,0.5,0.5s0.5-0.224,0.5-0.5v-1.232C25.5,20.936,25.275,20.711,25,20.711z M25,41.211
	c-0.275,0-0.5,0.225-0.5,0.5v1.232c0,0.275,0.225,0.5,0.5,0.5s0.5-0.225,0.5-0.5v-1.232C25.5,41.436,25.275,41.211,25,41.211z
	 M33.21,23.71c-1.61,5.221-5.106,4.354-5.255,4.312c-0.268-0.071-0.539,0.084-0.613,0.349c-0.074,0.267,0.081,0.541,0.348,0.615
	c0.013,0.004,0.377,0.1,0.937,0.1c1.438,0,4.168-0.631,5.54-5.081c0.082-0.264-0.066-0.544-0.33-0.625
	C33.572,23.296,33.291,23.447,33.21,23.71z M32.277,33.451c0.113-0.252,0-0.548-0.252-0.66c-0.25-0.113-0.547,0-0.659,0.252
	c-1.368,3.054-4.093,3.119-4.22,3.119c-0.275,0.002-0.5,0.226-0.5,0.5c0,0.276,0.225,0.5,0.5,0.5
	C27.289,37.162,30.635,37.121,32.277,33.451z M22.043,28.024c-0.146,0.038-3.629,0.946-5.252-4.313
	c-0.081-0.264-0.359-0.412-0.625-0.33c-0.264,0.081-0.412,0.361-0.33,0.625c1.372,4.449,4.104,5.082,5.54,5.082
	c0.56,0,0.924-0.096,0.937-0.1c0.267-0.074,0.422-0.351,0.348-0.617C22.585,28.105,22.311,27.949,22.043,28.024z M22.854,36.162
	c-0.027,0-2.836-0.035-4.219-3.119c-0.113-0.252-0.41-0.367-0.66-0.252c-0.252,0.112-0.365,0.408-0.252,0.66
	c1.645,3.67,4.989,3.711,5.131,3.711c0.276,0,0.5-0.224,0.5-0.5C23.354,36.387,23.13,36.162,22.854,36.162z"/>
</svg>
