<?xml version="1.0" encoding="utf-8"?>
<!-- Generator: Adobe Illustrator 16.0.4, SVG Export Plug-In . SVG Version: 6.00 Build 0)  -->
<!DOCTYPE svg PUBLIC "-//W3C//DTD SVG 1.1//EN" "http://www.w3.org/Graphics/SVG/1.1/DTD/svg11.dtd">
<svg version="1.1" id="Layer_1" xmlns="http://www.w3.org/2000/svg" xmlns:xlink="http://www.w3.org/1999/xlink" x="0px" y="0px"
	 width="50px" height="50px" viewBox="0 0 50 50" enable-background="new 0 0 50 50" xml:space="preserve">
<g>
	<path d="M21.212,22.933l0.246,0.021c0.91-0.755,1.48-1.369,1.691-1.827c0.1-0.214,0.114-0.44,0.127-0.642
		c0.011-0.164,0.021-0.32,0.088-0.416l0.142-0.178c0.087-0.08,0.195-0.138,0.311-0.164l0.018,0.098
		c0.046,0.189,0.136,0.369,0.264,0.521l0.026,0.029c0.168,0.186,0.386,0.314,0.626,0.374c0.033,0.229,0.131,0.449,0.283,0.631h0.001
		l0.027,0.028c0.139,0.154,0.318,0.273,0.52,0.343l0.016,0.006c-0.039,0.093-0.101,0.177-0.178,0.245l-0.204,0.135
		c-0.098,0.055-0.269,0.047-0.452,0.04c-0.205-0.007-0.438-0.016-0.663,0.054c-0.481,0.147-1.179,0.617-2.074,1.394l-0.019,0.247
		l0.001,0.002l0.248,0.018c0.846-0.731,1.52-1.19,1.948-1.322c0.169-0.053,0.359-0.045,0.546-0.037
		c0.233,0.008,0.454,0.017,0.624-0.081c0.104-0.048,0.197-0.108,0.282-0.185c0.176-0.16,0.291-0.369,0.335-0.604l-0.03-0.134
		l-0.116-0.072l-0.15-0.034c-0.143-0.05-0.271-0.136-0.372-0.247l-0.022-0.023c-0.129-0.153-0.204-0.351-0.211-0.553l-0.153-0.17
		c-0.21-0.025-0.406-0.129-0.548-0.285l-0.021-0.023c-0.09-0.107-0.156-0.236-0.188-0.374l-0.023-0.216l-0.053-0.125l-0.127-0.051
		c-0.262,0.004-0.513,0.103-0.706,0.277l-0.201,0.249c-0.114,0.163-0.128,0.367-0.141,0.583c-0.013,0.178-0.024,0.362-0.097,0.518
		c-0.186,0.401-0.738,0.992-1.597,1.703L21.212,22.933L21.212,22.933z"/>
	<path d="M24.618,19.901l0.025,0.027c0.173,0.191,0.405,0.312,0.656,0.346c0.01,0.254,0.108,0.498,0.279,0.688
		c0.122,0.137,0.277,0.236,0.449,0.297c0.373,0.127,0.785,0.042,1.076-0.222l0.201-0.249c0.114-0.163,0.129-0.367,0.143-0.585
		c0.012-0.179,0.023-0.36,0.095-0.517c0.187-0.4,0.739-0.99,1.597-1.701l0.023-0.248l-0.247-0.023
		c-0.911,0.756-1.479,1.369-1.692,1.827c-0.099,0.214-0.113,0.438-0.127,0.64c-0.011,0.166-0.021,0.322-0.088,0.42l-0.141,0.176
		c-0.196,0.178-0.475,0.236-0.727,0.15c-0.115-0.039-0.221-0.109-0.303-0.199c-0.148-0.164-0.212-0.379-0.184-0.596l-0.043-0.143
		l-0.138-0.059c-0.217,0.01-0.426-0.076-0.572-0.238c-0.085-0.092-0.141-0.2-0.167-0.32c-0.062-0.26,0.021-0.53,0.218-0.709
		l0.206-0.132c0.097-0.056,0.268-0.05,0.449-0.044c0.207,0.009,0.438,0.018,0.664-0.051c0.481-0.149,1.179-0.617,2.074-1.395
		l0.02-0.247l-0.001-0.002l-0.249-0.019c-0.846,0.733-1.52,1.192-1.947,1.324c-0.168,0.051-0.359,0.043-0.545,0.037
		c-0.234-0.01-0.456-0.018-0.625,0.08c-0.104,0.046-0.198,0.107-0.282,0.186c-0.291,0.265-0.416,0.666-0.325,1.049
		C24.432,19.618,24.509,19.772,24.618,19.901z"/>
	<path d="M32.916,15.155h-3.62c-0.396-1.161-1.376-1.188-1.376-1.188c-1.355-0.202-1.544-0.64-1.544-0.64
		c-0.287-0.413-0.123-1.205-0.123-1.205c0.238-0.194,0.33-0.708,0.33-0.708c0.396-0.304,0.376-0.747,0.194-0.742
		c-0.147,0.004-0.114-0.118-0.114-0.118c0.247-1.996-1.527-2.099-1.527-2.099h-0.271c0,0-1.774,0.103-1.527,2.099
		c0,0,0.033,0.122-0.115,0.118c-0.182-0.005-0.199,0.438,0.195,0.742c0,0,0.092,0.514,0.33,0.708c0,0,0.164,0.792-0.123,1.205
		c0,0-0.188,0.438-1.544,0.64c0,0-0.981,0.026-1.376,1.188h-3.621c-0.276,0-0.5,0.224-0.5,0.5v9.334c0,0.275,0.224,0.5,0.5,0.5
		h1.296c-0.27,0.437-0.467,0.883-0.241,0.955c0,0,0.27,0.026,0.627-0.682c0,0-0.007,0.272-0.294,1.062
		c-0.055,0.148-0.294,0.898,0.093,0.628c0,0,0.178-0.123,0.412-0.894c0,0-0.125,1.297,0.013,1.364
		c0.182,0.088,0.281-0.168,0.363-1.306c0,0,0.084-0.366,0.123,1.035c0.002,0.072,0.109,0.432,0.257,0.125
		c0.124-0.258,0.069-0.941,0.069-1.17c0,0,0.16,0.886,0.309,0.886c0,0,0.176,0.206,0.104-0.894c-0.012-0.18,0.05-0.549,0.058-0.656
		l0.017-0.422l-0.003-0.035h1.271c-0.028,0.31-0.04,0.617-0.005,0.906c0.139,1.137,0.406,3.567,0.678,4.525
		c0.141,0.496,0.057,1.748,0.172,2.061c0.05,0.135,0.024,0.26-0.086,0.568c-0.384,1.076-0.335,1.834,0.628,4.689
		c0,0,0.296,0.633,0.147,1.771c0,0-0.615,1.265-0.221,1.29c0,0,0.032,0.084,0.164,0.018c0,0,0.213,0.219,0.443,0.101
		c0,0,0.213,0.169,0.395,0.019c0,0,0.147,0.168,0.36,0.032c0,0,0.279,0.187,0.444-0.017c0,0,0.295,0.066-0.23-1.264
		c0,0-0.201-1.41-0.312-1.687c-0.211-0.527-0.062-1.965-0.017-2.274c0.074-0.515,0.035-1.395-0.099-2.074
		c-0.096-0.487,0.167-1.407,0.263-1.973c0.201-1.191,0.591-4.23,0.542-4.804l0.162,0.056c0.117,0,0.191-0.056,0.191-0.056
		c-0.049,0.573,0.34,3.612,0.542,4.804c0.096,0.564,0.358,1.484,0.264,1.973c-0.135,0.681-0.174,1.561-0.1,2.074
		c0.047,0.311,0.194,1.747-0.017,2.274c-0.11,0.274-0.312,1.687-0.312,1.687c-0.527,1.33-0.23,1.264-0.23,1.264
		c0.165,0.201,0.443,0.017,0.443,0.017c0.213,0.136,0.36-0.032,0.36-0.032c0.183,0.15,0.396-0.019,0.396-0.019
		c0.229,0.118,0.442-0.101,0.442-0.101c0.132,0.066,0.164-0.018,0.164-0.018c0.396-0.025-0.221-1.29-0.221-1.29
		c-0.147-1.138,0.147-1.771,0.147-1.771c0.963-2.855,1.012-3.613,0.627-4.689c-0.109-0.311-0.136-0.434-0.086-0.568
		c0.115-0.312,0.031-1.563,0.172-2.061c0.271-0.958,0.539-3.391,0.679-4.525c0.034-0.289,0.022-0.598-0.005-0.906h1.271
		l-0.003,0.035l0.018,0.422c0.008,0.107,0.068,0.478,0.058,0.656c-0.071,1.1,0.104,0.894,0.104,0.894
		c0.147,0,0.309-0.886,0.309-0.886c0,0.229-0.055,0.912,0.068,1.17c0.147,0.307,0.256-0.053,0.258-0.125
		c0.039-1.401,0.123-1.035,0.123-1.035c0.082,1.138,0.182,1.394,0.363,1.306c0.137-0.067,0.012-1.364,0.012-1.364
		c0.234,0.771,0.412,0.894,0.412,0.894c0.387,0.271,0.147-0.479,0.094-0.628c-0.287-0.789-0.295-1.062-0.295-1.062
		c0.357,0.708,0.627,0.682,0.627,0.682c0.227-0.072,0.029-0.52-0.24-0.955h1.295c0.275,0,0.5-0.225,0.5-0.5v-9.334
		C33.416,15.379,33.191,15.155,32.916,15.155z M32.416,24.489H17.583v-8.334h14.833V24.489z"/>
</g>
</svg>
