<?xml version="1.0" encoding="utf-8"?>
<!-- Generator: Adobe Illustrator 16.0.4, SVG Export Plug-In . SVG Version: 6.00 Build 0)  -->
<!DOCTYPE svg PUBLIC "-//W3C//DTD SVG 1.1//EN" "http://www.w3.org/Graphics/SVG/1.1/DTD/svg11.dtd">
<svg version="1.1" id="Layer_1" xmlns="http://www.w3.org/2000/svg" xmlns:xlink="http://www.w3.org/1999/xlink" x="0px" y="0px"
	 width="50px" height="50px" viewBox="0 0 50 50" enable-background="new 0 0 50 50" xml:space="preserve">
<path d="M27.692,26.801c0.399,0.572,1.089,2.705-1.761,2.062c0,0,0.578,2.502-0.858,1.898c-0.75-0.314-0.741-3.174,0.827-3.227
	c0.273-0.01,0.895,0.064,0.414-1.012c-0.152-0.342-0.552-1.057-0.275-1.47c0,0-2.162,1.285-2.482,0.274c0,0-0.203,0.727,0.29,1.426
	c0.28,0.395,0.417,2.176-0.788,1.527c-0.602-0.324-0.733-0.797-0.697-2.539c0.009-0.48-0.648-1.878,1.242-1.472
	c0.531,0.115,1.63,0.156,2.16-0.275c0.369-0.303,1.958-1.372,1.701,0.873C27.408,25.352,27.355,26.316,27.692,26.801z
	 M33.004,20.559l-0.002,9.042c0,0.199-0.16,0.357-0.356,0.359l-3.079,0.02v7.338C29.566,38.797,28.414,40,27,40h-4
	c-1.416,0-2.567-1.203-2.567-2.682v-7.342h-3.077c-0.199,0-0.359-0.16-0.359-0.357v-9.042c-0.001-0.717,0.277-1.391,0.783-1.896
	c0.506-0.506,1.179-0.785,1.895-0.787l3.047-0.002c-1.198-0.76-1.999-2.093-1.999-3.613C20.723,11.919,22.642,10,25,10
	c2.359,0,4.278,1.919,4.278,4.277c0,1.518-0.796,2.85-1.992,3.607l3.032-0.002c0.002,0,0.003,0,0.005,0
	C31.797,17.881,33,19.082,33.004,20.559z M25,17.833c1.961,0,3.559-1.597,3.559-3.558c0-1.963-1.598-3.56-3.559-3.56
	c-1.962,0-3.559,1.597-3.559,3.56C21.44,16.237,23.037,17.833,25,17.833z M32.285,20.561c-0.004-1.08-0.884-1.961-1.963-1.961
	c-0.001,0-0.003,0-0.003,0l-10.646,0.012c-0.524,0.001-1.017,0.205-1.387,0.576s-0.573,0.863-0.573,1.388v8.684h2.717v-5.781
	c0-0.197,0.161-0.358,0.359-0.358c0.198,0,0.36,0.161,0.36,0.358v6.132c0,0.004,0.001,0.006,0.001,0.008
	c0,0.004-0.001,0.006-0.001,0.008v7.691c0,1.082,0.829,1.963,1.848,1.963h1.679c-0.022-0.049-0.038-0.1-0.038-0.154v-6.566
	c0-0.197,0.161-0.357,0.359-0.357c0.198,0,0.36,0.16,0.36,0.357v6.566c0,0.055-0.016,0.105-0.039,0.154h1.68
	c1.02,0,1.849-0.881,1.849-1.963V23.479c0-0.197,0.161-0.358,0.358-0.358c0.198,0,0.359,0.161,0.359,0.358v5.783l2.717-0.016
	L32.285,20.561z"/>
</svg>
