<?xml version="1.0" encoding="utf-8"?>
<!-- Generator: Adobe Illustrator 16.0.4, SVG Export Plug-In . SVG Version: 6.00 Build 0)  -->
<!DOCTYPE svg PUBLIC "-//W3C//DTD SVG 1.1//EN" "http://www.w3.org/Graphics/SVG/1.1/DTD/svg11.dtd">
<svg version="1.1" id="Layer_1" xmlns="http://www.w3.org/2000/svg" xmlns:xlink="http://www.w3.org/1999/xlink" x="0px" y="0px"
	 width="50px" height="50px" viewBox="0 0 50 50" enable-background="new 0 0 50 50" xml:space="preserve">
<g>
	<path d="M22.321,22.438c0,0-0.049-1.129-0.449-0.927c0,0-1.227,0.816-1.457,0.993l0.211,0.473
		C20.626,22.978,22.218,22.951,22.321,22.438z"/>
	<path d="M21.192,23.794l0.309,0.449c1.402-0.885,1.422-0.943,1.186-1.258C22.3,22.472,21.192,23.794,21.192,23.794z"/>
	<path d="M22.997,21.161c-0.623-0.428-0.688,0.314-0.688,0.314c-0.021,0.602,0.396,1.207,0.705,1.479
		c0.459,0.403,0.625-0.267,0.625-0.267C23.817,21.778,22.997,21.161,22.997,21.161z"/>
	<path d="M22.345,20.687c0,0,0.705,0.268,0.574-0.197c0,0-0.189-0.127,0.143-1.188c0,0,0.467-0.188,0.142-0.477
		c0,0-0.608-0.361-0.606,0.104c0,0,0.014,0.178,0.079,0.288l-0.233,0.944C22.44,20.161,22.036,20.481,22.345,20.687z"/>
	<path d="M23.005,18.587c0,0,0.578,0.212,0.271-0.295l0.229-0.643c0,0,0.49-0.054,0.164-0.379c0,0-0.525-0.375-0.555-0.021
		l0.1,0.257l-0.217,0.601C22.997,18.106,22.431,18.317,23.005,18.587z"/>
	<path d="M23.798,17.08c0.1-0.067,0.135-0.304,0.18-0.444c0.162-0.506-0.172-0.35-0.223-0.277
		C23.231,17.103,23.647,17.183,23.798,17.08z"/>
	<path d="M23.442,21.39c0,0,0.375,0.651,0.414,0.871c0,0,0.063,0.727,0.512,0.383c0,0,0.75-0.396,1.344-0.25
		c0,0,0.771,0.227,0.447-0.345c-0.08-0.142-0.201-0.315-0.664-0.012c-0.242,0.159-1.133,0.379-1.156,0.155
		c-0.016-0.153,0.357-0.406,1.4-0.527c0.131-0.016,0.555,0.18,0.344-0.395c-0.059-0.156-0.066-0.502-0.668,0.012
		c-0.262,0.223-0.947,0.508-1.326,0.371c0,0,0.023-0.334,1.221-0.889c0,0,0.664,0.149,0.625-0.265
		c-0.016-0.166-0.082-0.619-0.514-0.419c-0.107,0.05-0.256,0.193-0.301,0.369c0,0-1.379,0.998-1.396,0.599
		c0,0,0.631-0.94,1.26-1.134c0,0,0.658-0.055,0.326-0.607c-0.024-0.041-0.223-0.537-0.649,0.223
		c-0.175,0.312-0.709,0.842-1.14,1.025C23.327,20.64,22.854,20.565,23.442,21.39z"/>
	<path d="M27.296,21.922c-0.209,0.117-0.482,0.113-0.551,0.062l-0.137-0.084c-0.361-0.276-0.223,0.498-0.223,0.498
		c0.153,0.131,0.223-0.062,0.286-0.099l0.32,0.003c0.356,0.024,0.336,0.071,0.437,0.119c0.266,0.131,0.194-0.406,0.194-0.406
		C27.603,21.672,27.296,21.922,27.296,21.922z"/>
	<path d="M28.462,21.838c-0.143,0.112-0.348,0.144-0.406,0.11l-0.111-0.049c-0.305-0.164-0.108,0.399-0.108,0.399
		c0.134,0.079,0.16-0.071,0.205-0.106l0.237-0.037c0.271-0.021,0.261,0.015,0.345,0.041c0.213,0.064,0.097-0.328,0.097-0.328
		C28.663,21.612,28.462,21.838,28.462,21.838z"/>
	<path d="M28.876,20.339c-0.107-0.236-0.273,0.037-0.273,0.037c-0.125,0.146-0.332,0.229-0.397,0.213l-0.127-0.02
		c-0.349-0.084-0.033,0.423-0.033,0.423c0.152,0.048,0.149-0.11,0.188-0.156l0.244-0.099c0.275-0.092,0.271-0.055,0.361-0.049
		C29.075,20.698,28.876,20.339,28.876,20.339z"/>
	<path d="M28.415,18.756c-0.17,0.185-0.438,0.296-0.521,0.282l-0.156-0.018c-0.438-0.08-0.069,0.511-0.069,0.511
		c0.19,0.047,0.199-0.142,0.252-0.201l0.312-0.131c0.355-0.128,0.349-0.08,0.461-0.081c0.3-0.003,0.068-0.422,0.068-0.422
		C28.638,18.417,28.415,18.756,28.415,18.756z"/>
	<path d="M26.856,18.313c0.194-0.008,0.151-0.191,0.188-0.264l0.268-0.209c0.31-0.219,0.312-0.171,0.422-0.201
		c0.287-0.082-0.047-0.425-0.047-0.425c-0.192-0.235-0.317,0.149-0.317,0.149c-0.113,0.224-0.345,0.402-0.427,0.408L26.787,17.8
		C26.345,17.842,26.856,18.313,26.856,18.313z"/>
	<path d="M28.024,17.38c0.182,0.068,0.145-0.168,0.182-0.238l0.23-0.179c0.071-0.053,0.129-0.172,0.037-0.247
		c-0.154-0.127-0.341,0.212-0.423,0.221l-0.129-0.02C27.63,16.974,27.903,17.336,28.024,17.38z"/>
	<path d="M29.245,18.669l0.26-0.133l0.082-0.236c-0.131-0.154-0.373,0.146-0.455,0.139l-0.125-0.041
		c-0.297,0.004-0.094,0.354,0.016,0.418C29.133,18.88,29.198,18.731,29.245,18.669z"/>
	<path d="M29.157,20.122c-0.301,0.001-0.096,0.35,0.016,0.416c0.109,0.064,0.174-0.083,0.223-0.146l0.258-0.133l0.082-0.236
		c-0.131-0.151-0.372,0.146-0.457,0.14L29.157,20.122z"/>
	<path d="M29.165,21.646l-0.121-0.041c-0.301,0.002-0.096,0.352,0.016,0.416c0.107,0.066,0.174-0.082,0.224-0.146l0.258-0.133
		l0.082-0.236C29.491,21.354,29.249,21.651,29.165,21.646z"/>
	<path d="M26.489,20.155l0.332-0.205c0.383-0.209,0.387-0.152,0.523-0.172c0.352-0.049-0.062-0.514-0.062-0.514
		c-0.229-0.312-0.336,0.109-0.336,0.109c-0.105,0.189-0.509,0.42-0.611,0.416h-0.187c-0.543-0.025,0.104,0.646,0.104,0.646
		C26.493,20.463,26.444,20.235,26.489,20.155z"/>
	<path d="M25.655,19.437c0.24-0.006,0.162-0.225,0.197-0.31l0.301-0.247c0.354-0.259,0.365-0.202,0.496-0.238
		c0.344-0.097-0.127-0.5-0.127-0.5c-0.271-0.283-0.318,0.152-0.318,0.152c-0.078,0.2-0.449,0.48-0.551,0.489l-0.184,0.024
		C24.927,18.854,25.655,19.437,25.655,19.437z"/>
	<path d="M27.538,20.542c-0.197-0.066-0.277,0.205-0.277,0.205s-0.59,0.335-0.725,0.223c-0.131-0.107-0.254-0.05-0.277,0.037
		c-0.059,0.212,0.014,0.441,0.164,0.473c0.178,0.034,0.213-0.147,0.277-0.207c0.135-0.121,0.531-0.278,0.697-0.205
		c0.146,0.064,0.283,0.063,0.326-0.029C27.833,20.817,27.677,20.588,27.538,20.542z"/>
	<path d="M32.915,15.155h-3.619c-0.395-1.161-1.377-1.188-1.377-1.188c-1.355-0.202-1.543-0.64-1.543-0.64
		c-0.287-0.413-0.123-1.205-0.123-1.205c0.238-0.194,0.33-0.708,0.33-0.708c0.395-0.304,0.375-0.747,0.195-0.742
		c-0.148,0.004-0.115-0.118-0.115-0.118c0.246-1.996-1.527-2.099-1.527-2.099h-0.271c0,0-1.775,0.103-1.527,2.099
		c0,0,0.033,0.122-0.114,0.118c-0.183-0.005-0.199,0.438,0.194,0.742c0,0,0.093,0.514,0.33,0.708c0,0,0.164,0.792-0.123,1.205
		c0,0-0.188,0.438-1.545,0.64c0,0-0.979,0.026-1.375,1.188h-3.621c-0.276,0-0.5,0.224-0.5,0.5v9.334c0,0.275,0.224,0.5,0.5,0.5
		h1.295c-0.271,0.437-0.467,0.883-0.239,0.955c0,0,0.27,0.026,0.627-0.682c0,0-0.009,0.272-0.295,1.062
		c-0.056,0.148-0.293,0.898,0.094,0.628c0,0,0.178-0.123,0.412-0.894c0,0-0.125,1.297,0.012,1.364
		c0.182,0.088,0.281-0.168,0.363-1.306c0,0,0.084-0.366,0.123,1.035c0.002,0.072,0.108,0.432,0.258,0.125
		c0.123-0.258,0.068-0.941,0.068-1.17c0,0,0.159,0.886,0.309,0.886c0,0,0.176,0.206,0.104-0.894c-0.012-0.18,0.05-0.549,0.058-0.656
		l0.018-0.422l-0.004-0.035h1.271c-0.029,0.31-0.041,0.617-0.006,0.906c0.139,1.137,0.405,3.567,0.678,4.525
		c0.141,0.496,0.057,1.748,0.172,2.061c0.051,0.135,0.025,0.26-0.086,0.568c-0.383,1.076-0.334,1.834,0.629,4.689
		c0,0,0.295,0.633,0.146,1.771c0,0-0.614,1.265-0.221,1.29c0,0,0.032,0.084,0.164,0.018c0,0,0.213,0.219,0.442,0.101
		c0,0,0.213,0.169,0.396,0.019c0,0,0.147,0.168,0.36,0.032c0,0,0.279,0.187,0.443-0.017c0,0,0.295,0.066-0.23-1.264
		c0,0-0.2-1.41-0.311-1.687c-0.211-0.527-0.062-1.965-0.018-2.274c0.074-0.515,0.035-1.395-0.098-2.074
		c-0.097-0.487,0.166-1.407,0.262-1.973c0.201-1.191,0.592-4.23,0.543-4.804l0.162,0.056c0.117,0,0.19-0.056,0.19-0.056
		c-0.049,0.573,0.341,3.612,0.541,4.804c0.097,0.564,0.359,1.484,0.265,1.973c-0.135,0.681-0.174,1.561-0.101,2.074
		c0.048,0.311,0.195,1.747-0.016,2.274c-0.111,0.274-0.312,1.687-0.312,1.687c-0.525,1.33-0.23,1.264-0.23,1.264
		c0.166,0.201,0.445,0.017,0.445,0.017c0.213,0.136,0.358-0.032,0.358-0.032c0.183,0.15,0.396-0.019,0.396-0.019
		c0.229,0.118,0.442-0.101,0.442-0.101c0.134,0.066,0.164-0.018,0.164-0.018c0.396-0.025-0.221-1.29-0.221-1.29
		c-0.147-1.138,0.147-1.771,0.147-1.771c0.963-2.855,1.012-3.613,0.627-4.689c-0.108-0.311-0.135-0.434-0.086-0.568
		c0.115-0.312,0.031-1.563,0.172-2.061c0.271-0.958,0.539-3.391,0.678-4.525c0.035-0.289,0.023-0.598-0.004-0.906h1.271
		l-0.002,0.035l0.017,0.422c0.008,0.107,0.069,0.478,0.059,0.656c-0.072,1.1,0.104,0.894,0.104,0.894c0.148,0,0.31-0.886,0.31-0.886
		c0,0.229-0.056,0.912,0.069,1.17c0.146,0.307,0.254-0.053,0.256-0.125c0.039-1.401,0.123-1.035,0.123-1.035
		c0.082,1.138,0.183,1.394,0.363,1.306c0.139-0.067,0.014-1.364,0.014-1.364c0.234,0.771,0.412,0.894,0.412,0.894
		c0.386,0.271,0.146-0.479,0.093-0.628c-0.287-0.789-0.294-1.062-0.294-1.062c0.357,0.708,0.628,0.682,0.628,0.682
		c0.225-0.072,0.026-0.52-0.242-0.955h1.295c0.276,0,0.5-0.225,0.5-0.5v-9.334C33.415,15.379,33.192,15.155,32.915,15.155z
		 M32.415,24.489H17.583v-8.334h14.832V24.489z"/>
</g>
</svg>
