<?xml version="1.0" encoding="utf-8"?>
<!-- Generator: Adobe Illustrator 16.0.4, SVG Export Plug-In . SVG Version: 6.00 Build 0)  -->
<!DOCTYPE svg PUBLIC "-//W3C//DTD SVG 1.1//EN" "http://www.w3.org/Graphics/SVG/1.1/DTD/svg11.dtd">
<svg version="1.1" id="Layer_1" xmlns="http://www.w3.org/2000/svg" xmlns:xlink="http://www.w3.org/1999/xlink" x="0px" y="0px"
	 width="50px" height="50px" viewBox="0 0 50 50" enable-background="new 0 0 50 50" xml:space="preserve">
<g>
	<path d="M33.204,19.887H29.53v-2.139c0-0.395-0.318-0.715-0.713-0.715h-7.633c-0.396,0-0.713,0.32-0.713,0.715v2.139h-3.676
		c-0.395,0-0.713,0.32-0.713,0.715v11.65c0,0.395,0.318,0.715,0.713,0.715h16.407c0.396,0,0.714-0.32,0.714-0.715v-11.65
		C33.918,20.207,33.599,19.887,33.204,19.887z M21.897,18.461h6.205v1.426h-6.205V18.461z M32.491,31.539h-14.98V21.314h14.98
		V31.539z"/>
	<path d="M27.274,26.084h-1.562v-1.561c0-0.394-0.317-0.713-0.713-0.713s-0.713,0.319-0.713,0.713v1.561h-1.562
		c-0.395,0-0.714,0.32-0.714,0.715c0,0.393,0.319,0.713,0.714,0.713h1.562v1.562c0,0.395,0.317,0.713,0.713,0.713
		s0.713-0.317,0.713-0.713v-1.562h1.562c0.395,0,0.713-0.32,0.713-0.713C27.987,26.404,27.669,26.084,27.274,26.084z"/>
</g>
</svg>
