<?xml version="1.0" encoding="utf-8"?>
<!-- Generator: Adobe Illustrator 16.0.4, SVG Export Plug-In . SVG Version: 6.00 Build 0)  -->
<!DOCTYPE svg PUBLIC "-//W3C//DTD SVG 1.1//EN" "http://www.w3.org/Graphics/SVG/1.1/DTD/svg11.dtd">
<svg version="1.1" id="Layer_1" xmlns="http://www.w3.org/2000/svg" xmlns:xlink="http://www.w3.org/1999/xlink" x="0px" y="0px"
	 width="50px" height="50px" viewBox="0 0 50 50" enable-background="new 0 0 50 50" xml:space="preserve">
<path d="M37.133,23.982c-0.244-0.094-0.517-0.012-0.668,0.199c-0.764,1.07-1.533,1.612-2.291,1.612
	c-1.023,0-1.852-1.017-2.084-1.407c-1.835-3.08-2.984-4.171-4.559-4.32c-1.063-0.098-1.877,0.021-2.532,0.345
	c-0.656-0.323-1.476-0.442-2.531-0.345c-1.522,0.146-2.629,1.192-4.554,4.312c-0.301,0.488-1.127,1.413-2.096,1.413
	c-0.754,0-1.521-0.541-2.284-1.61c-0.152-0.211-0.425-0.295-0.668-0.199c-0.243,0.092-0.394,0.336-0.363,0.596
	c0.007,0.054,0.667,5.389,6.14,5.389c0.988,0,2.086-0.18,3.26-0.531c1.13-0.341,2.246-1.098,3.099-2.08
	c0.606,0.701,1.644,1.643,3.099,2.08c1.174,0.353,2.271,0.531,3.258,0.531c5.475,0,6.134-5.335,6.141-5.389
	C37.525,24.318,37.376,24.074,37.133,23.982z M31.355,28.826c-0.877,0-1.862-0.162-2.93-0.483c-1.111-0.335-2.219-1.172-2.959-2.241
	c-0.105-0.153-0.281-0.244-0.469-0.244s-0.361,0.091-0.469,0.246c-0.739,1.067-1.846,1.904-2.957,2.239
	c-1.067,0.321-2.055,0.483-2.932,0.483c-2.33,0-3.588-1.155-4.26-2.28c0.467,0.257,0.945,0.388,1.436,0.388
	c1.81,0,2.943-1.756,3.066-1.955c1.887-3.059,2.752-3.687,3.689-3.773c0.945-0.094,1.645,0.025,2.107,0.337
	c0.19,0.129,0.441,0.128,0.633,0.001c0.465-0.312,1.162-0.434,2.109-0.338c0.969,0.091,1.881,0.736,3.686,3.768
	c0.434,0.729,1.565,1.965,3.063,1.965c0.493,0,0.976-0.131,1.442-0.391C34.943,27.671,33.688,28.826,31.355,28.826z"/>
</svg>
