<?xml version="1.0" encoding="utf-8"?>
<!-- Generator: Adobe Illustrator 16.0.4, SVG Export Plug-In . SVG Version: 6.00 Build 0)  -->
<!DOCTYPE svg PUBLIC "-//W3C//DTD SVG 1.1//EN" "http://www.w3.org/Graphics/SVG/1.1/DTD/svg11.dtd">
<svg version="1.1" id="Layer_1" xmlns="http://www.w3.org/2000/svg" xmlns:xlink="http://www.w3.org/1999/xlink" x="0px" y="0px"
	 width="50px" height="50px" viewBox="0 0 50 50" enable-background="new 0 0 50 50" xml:space="preserve">
<path d="M37.379,21.513c-0.078-0.097-0.182-0.162-0.297-0.191c-0.053-0.022-0.143-0.063-0.27-0.12
	c-1.283-0.577-5.191-2.318-8.525-2.128c-1.453,0.102-2.197,0.342-3.287,0.722c-1.062-0.371-1.808-0.618-3.291-0.722
	c-3.315-0.195-7.237,1.551-8.521,2.128c-0.127,0.057-0.219,0.098-0.271,0.12c-0.113,0.029-0.219,0.094-0.296,0.191
	c-0.13,0.161-0.157,0.39-0.075,0.58c0.17,0.385,3.618,4.781,8.276,5.267c0.817,2.145,2.329,3.566,4.112,3.582
	c0.01,0,0.021,0,0.029,0c1.329,0,2.565-0.789,3.483-2.225c0.262-0.409,0.477-0.869,0.668-1.35c4.688-0.451,8.166-4.888,8.338-5.275
	C37.535,21.901,37.508,21.672,37.379,21.513z M21.636,20.183c1.385,0.097,1.998,0.312,3.182,0.726
	c0.115,0.041,0.312,0.02,0.434-0.022c1.116-0.391,1.729-0.606,3.11-0.704c1.814-0.108,4.146,0.428,6.951,1.586
	c-6.771,1.752-13.852,1.752-20.622,0C17.496,20.611,19.836,20.072,21.636,20.183z M14.687,22.913
	c1.813,0.457,3.647,0.794,5.494,1.006c0.019,0.792,0.114,1.548,0.28,2.251C17.99,25.742,15.908,24.128,14.687,22.913z
	 M27.512,28.117c-0.705,1.105-1.609,1.711-2.547,1.711c-0.006,0-0.013,0-0.02,0c-1.916-0.016-3.524-2.623-3.651-5.792
	c1.048,0.092,2.099,0.15,3.149,0.164v2.329c0,0.308,0.248,0.556,0.557,0.556c0.307,0,0.557-0.248,0.557-0.556V24.2
	c1.045-0.014,2.088-0.07,3.131-0.162C28.609,25.588,28.209,27.027,27.512,28.117z M29.807,23.92c1.852-0.213,3.689-0.55,5.51-1.008
	c-1.23,1.223-3.328,2.849-5.816,3.263C29.68,25.46,29.779,24.702,29.807,23.92z"/>
</svg>
