<?xml version="1.0" encoding="utf-8"?>
<!-- Generator: Adobe Illustrator 16.0.4, SVG Export Plug-In . SVG Version: 6.00 Build 0)  -->
<!DOCTYPE svg PUBLIC "-//W3C//DTD SVG 1.1//EN" "http://www.w3.org/Graphics/SVG/1.1/DTD/svg11.dtd">
<svg version="1.1" id="Layer_1" xmlns="http://www.w3.org/2000/svg" xmlns:xlink="http://www.w3.org/1999/xlink" x="0px" y="0px"
	 width="50px" height="50px" viewBox="0 0 50 50" enable-background="new 0 0 50 50" xml:space="preserve">
<path d="M27.793,30.068c0.164,0.222,0.119,0.535-0.102,0.701c-1.478,1.106-2.906,1.5-4.193,1.5c-3.096,0-5.35-2.277-5.381-2.312
	c-0.191-0.198-0.188-0.515,0.012-0.706c0.197-0.193,0.516-0.186,0.705,0.01c0.158,0.162,3.93,3.95,8.257,0.706
	C27.312,29.802,27.627,29.848,27.793,30.068z M33.943,24.513c-1.267-0.139-2.303,0.136-3.08,0.823
	c-1.324,1.171-1.363,3.096-1.363,3.178c-0.004,0.274,0.217,0.5,0.492,0.504c0.002,0,0.006,0,0.008,0c0.271,0,0.494-0.219,0.5-0.49
	c0-0.017,0.039-1.573,1.029-2.445c0.559-0.489,1.34-0.683,2.303-0.574c0.285,0.023,0.523-0.168,0.553-0.441
	C34.416,24.792,34.219,24.543,33.943,24.513z M15.897,29.791c-0.82-0.211-1.654-0.523-1.996-0.739
	c0.059-0.22,0.172-0.514,0.356-0.682c0.205-0.185,0.224-0.501,0.037-0.706s-0.502-0.225-0.707-0.036
	c-0.596,0.537-0.717,1.442-0.729,1.545c-0.016,0.125,0.019,0.251,0.093,0.353c0.438,0.604,2.03,1.063,2.696,1.234
	c0.043,0.012,0.084,0.016,0.125,0.016c0.224,0,0.426-0.149,0.484-0.375C16.327,30.131,16.165,29.859,15.897,29.791z M39.035,27.879
	c-0.248,5.266-3.76,7.512-11.738,7.512c-0.002,0-0.002,0-0.002,0c-1.416,0-3-0.076-4.71-0.224
	c-6.676-0.577-11.281-4.964-11.473-5.149c-0.111-0.107-0.166-0.261-0.15-0.414c0.674-6.253,7.791-14.174,8.094-14.509
	c0.434-0.346,1.037-0.485,1.912-0.485c1.115,0,2.297,0.226,2.348,0.235c0.086,0.017,0.166,0.056,0.232,0.113
	c1.605,1.393,1.41,3.117,1.4,3.19c-0.014,0.116-0.068,0.223-0.154,0.303l-1.422,1.328c-0.092,0.087-0.215,0.135-0.342,0.135h-2.463
	c-1.433,2.482-1.938,4.274-2.08,5.464c1.178-1.005,2.762-1.58,4.447-1.58c2.123,0,4.046,0.899,5.22,2.37
	c0.721-2.261,2.842-3.887,5.309-3.887c1.547,0,3.047,0.641,4.113,1.759C38.584,25.097,39.104,26.46,39.035,27.879z M38.037,27.833
	c0.055-1.144-0.367-2.245-1.184-3.102c-0.879-0.921-2.115-1.449-3.392-1.449c-2.399,0-4.401,1.877-4.56,4.272
	c-0.016,0.229-0.184,0.418-0.409,0.459c-0.231,0.034-0.451-0.076-0.545-0.285c-0.798-1.752-2.811-2.931-5.016-2.931
	c-1.863,0-3.568,0.808-4.562,2.161c-0.121,0.167-0.334,0.239-0.533,0.188c-0.198-0.055-0.346-0.225-0.366-0.43
	c-0.146-1.362,0.147-3.778,2.377-7.557c0.09-0.152,0.254-0.246,0.432-0.246h2.553l1.129-1.054c-0.006-0.362-0.113-1.257-0.971-2.058
	c-0.328-0.057-1.213-0.193-2.023-0.193c-0.887,0-1.17,0.165-1.234,0.216c-0.008,0.021-6.938,7.735-7.746,13.636
	c0.9,0.795,5.08,4.227,10.685,4.71c1.683,0.146,3.238,0.22,4.625,0.22C36.463,34.391,37.877,31.239,38.037,27.833z"/>
</svg>
