<?xml version="1.0" encoding="utf-8"?>
<!-- Generator: Adobe Illustrator 16.0.4, SVG Export Plug-In . SVG Version: 6.00 Build 0)  -->
<!DOCTYPE svg PUBLIC "-//W3C//DTD SVG 1.1//EN" "http://www.w3.org/Graphics/SVG/1.1/DTD/svg11.dtd">
<svg version="1.1" id="Layer_1" xmlns="http://www.w3.org/2000/svg" xmlns:xlink="http://www.w3.org/1999/xlink" x="0px" y="0px"
	 width="50px" height="50px" viewBox="0 0 50 50" enable-background="new 0 0 50 50" xml:space="preserve">
<g>
	<path d="M36.547,21.037c1.625,1.375,1.583,1.948,1.605,2.58c0.077,2.179-3.575,0.611-4.53,0c-5.942-3.801-6.402-3.638-8.544-2.924
		L25,20.723l-0.076-0.03c-2.142-0.714-2.603-0.877-8.544,2.924c-0.955,0.611-4.607,2.179-4.532,0
		c0.023-0.632-0.018-1.205,1.606-2.58c0,0-4.664,0.172-3.154,4.989c0.73,2.327,2.82,6.532,14.699,0.826
		c11.88,5.706,13.97,1.501,14.699-0.826C41.212,21.208,36.547,21.037,36.547,21.037z"/>
</g>
</svg>
