<?xml version="1.0" encoding="utf-8"?>
<!-- Generator: Adobe Illustrator 16.0.4, SVG Export Plug-In . SVG Version: 6.00 Build 0)  -->
<!DOCTYPE svg PUBLIC "-//W3C//DTD SVG 1.1//EN" "http://www.w3.org/Graphics/SVG/1.1/DTD/svg11.dtd">
<svg version="1.1" id="Layer_1" xmlns="http://www.w3.org/2000/svg" xmlns:xlink="http://www.w3.org/1999/xlink" x="0px" y="0px"
	 width="50px" height="50px" viewBox="0 0 50 50" enable-background="new 0 0 50 50" xml:space="preserve">
<g>
	<path d="M30.229,26.867c-0.896-2.355-2.683-7.674-2.205-9.485c0.096-0.36,1.021-1.344,1.826-2.035
		c0.277-0.24,0.312-0.658,0.07-0.936c-0.238-0.279-0.656-0.307-0.934-0.073c-0.467,0.399-2.002,1.773-2.247,2.705
		c-0.708,2.686,2.084,9.889,2.405,10.703c0.102,0.254,0.345,0.42,0.617,0.42c1.321,0,2.396,1.074,2.396,2.395
		c0,1.322-1.073,2.396-2.396,2.396c-0.496,0-0.973-0.154-1.38-0.443c-0.147-0.104-0.332-0.146-0.511-0.111
		c-0.176,0.034-0.334,0.139-0.434,0.29C26.635,33.936,26.091,34.49,25,34.49c-1.133,0-1.769-0.681-2.426-1.777
		c-0.097-0.158-0.255-0.271-0.435-0.307c-0.182-0.037-0.369,0-0.521,0.106c-0.41,0.292-0.888,0.444-1.382,0.444
		c-1.322,0-2.396-1.074-2.396-2.396s1.073-2.396,2.396-2.396c0.279,0,0.527-0.174,0.625-0.437c0.298-0.817,2.882-8.063,2.078-10.709
		c-0.287-0.942-2.086-2.313-2.631-2.711c-0.293-0.215-0.711-0.151-0.926,0.144c-0.218,0.295-0.152,0.71,0.143,0.927
		c1.048,0.766,2.049,1.713,2.145,2.027c0.539,1.774-1.081,7.091-1.91,9.463c-1.83,0.235-3.246,1.801-3.246,3.691
		c0,2.053,1.67,3.725,3.723,3.725c0.539,0,1.066-0.117,1.551-0.34c0.689,0.995,1.639,1.872,3.212,1.872
		c1.584,0,2.465-0.838,3.201-1.878c0.487,0.227,1.017,0.346,1.562,0.346c2.053,0,3.723-1.672,3.723-3.725
		C33.485,28.666,32.062,27.099,30.229,26.867z"/>
</g>
</svg>
