<?xml version="1.0" encoding="utf-8"?>
<!-- Generator: Adobe Illustrator 16.0.4, SVG Export Plug-In . SVG Version: 6.00 Build 0)  -->
<!DOCTYPE svg PUBLIC "-//W3C//DTD SVG 1.1//EN" "http://www.w3.org/Graphics/SVG/1.1/DTD/svg11.dtd">
<svg version="1.1" id="Layer_1" xmlns="http://www.w3.org/2000/svg" xmlns:xlink="http://www.w3.org/1999/xlink" x="0px" y="0px"
	 width="50px" height="50px" viewBox="0 0 50 50" enable-background="new 0 0 50 50" xml:space="preserve">
<path d="M37.371,32.493c-0.146-0.177-0.392-0.25-0.606-0.183c-0.598,0.186-1.22,0.278-1.85,0.278c-1.798,0-3.477-0.769-4.662-2.104
	c0.133-0.463,0.186-0.939,0.186-1.396c0-2.997-4.709-15.197-4.908-15.716c-0.086-0.218-0.295-0.362-0.529-0.362
	c-0.232,0-0.443,0.145-0.527,0.362c-0.201,0.518-4.91,12.719-4.91,15.716c0,0.457,0.054,0.933,0.185,1.397
	c-1.187,1.336-2.871,2.104-4.663,2.104c-0.63,0-1.252-0.093-1.85-0.277c-0.215-0.07-0.459,0.002-0.606,0.182
	c-0.146,0.179-0.169,0.428-0.06,0.631c1.293,2.383,3.779,3.864,6.488,3.864c2.359,0,4.562-1.134,5.942-3.013
	c1.38,1.879,3.583,3.013,5.942,3.013c2.709,0,5.195-1.481,6.488-3.864C37.54,32.92,37.517,32.671,37.371,32.493z M25,15.172
	c1.56,4.142,4.304,11.865,4.304,13.917c0,0.388-0.039,0.81-0.175,1.218c-0.044,0.069-0.075,0.146-0.088,0.228
	c-0.416,0.954-1.467,1.772-4.041,1.772c-3.856,0-4.304-1.836-4.304-3.218C20.696,27.037,23.44,19.314,25,15.172z M19.056,35.852
	c-1.839,0-3.557-0.806-4.729-2.166c2.176,0.22,4.371-0.562,5.934-2.099c0.629,0.913,1.771,1.627,3.754,1.806
	C22.842,34.927,21.015,35.852,19.056,35.852z M30.942,35.852c-1.959,0-3.786-0.925-4.959-2.457c1.979-0.178,3.123-0.891,3.752-1.802
	c1.562,1.538,3.748,2.316,5.937,2.093C34.499,35.046,32.781,35.852,30.942,35.852z"/>
</svg>
