<?xml version="1.0" encoding="utf-8"?>
<!-- Generator: Adobe Illustrator 16.0.4, SVG Export Plug-In . SVG Version: 6.00 Build 0)  -->
<!DOCTYPE svg PUBLIC "-//W3C//DTD SVG 1.1//EN" "http://www.w3.org/Graphics/SVG/1.1/DTD/svg11.dtd">
<svg version="1.1" id="Layer_1" xmlns="http://www.w3.org/2000/svg" xmlns:xlink="http://www.w3.org/1999/xlink" x="0px" y="0px"
	 width="50px" height="50px" viewBox="0 0 50 50" enable-background="new 0 0 50 50" xml:space="preserve">
<g>
	<path d="M32.378,33.24c-0.271-0.199-0.647-0.172-0.886,0.062c-2.188,2.146-5.081,3.328-8.146,3.328
		c-6.412,0-11.632-5.218-11.632-11.631s5.22-11.631,11.632-11.631c6.414,0,11.633,5.218,11.633,11.631
		c0,1.716-0.366,3.369-1.088,4.915c-0.136,0.292-0.049,0.64,0.207,0.834l4.315,3.263c0.302,0.229,0.729,0.17,0.958-0.132
		s0.169-0.731-0.132-0.958l-3.884-2.938c0.656-1.58,0.99-3.254,0.99-4.984c0-7.168-5.832-13-13-13s-13,5.832-13,13s5.832,13,13,13
		c3.229,0,6.287-1.175,8.676-3.318l3.547,2.615c0.302,0.223,0.732,0.161,0.955-0.145c0.226-0.305,0.162-0.731-0.144-0.957
		L32.378,33.24z"/>
	<path d="M39.365,35.503l-6.994-4.95c0.248-0.404,0.48-0.822,0.678-1.265c1.146-2.591,1.213-5.473,0.188-8.116
		c-1.569-4.056-5.546-6.782-9.892-6.782c-0.313,0-0.623,0.016-0.933,0.043l0.001-0.035l-0.842,0.143l-0.068,0.016
		c-0.242,0.043-0.484,0.101-0.727,0.162c-0.094,0.023-0.188,0.04-0.282,0.066c-0.328,0.092-0.653,0.199-0.978,0.323
		c-0.313,0.122-0.617,0.258-0.914,0.406l-0.248,0.135c-0.213,0.113-0.422,0.229-0.625,0.354l-0.246,0.163
		c-0.202,0.133-0.398,0.27-0.588,0.415L16.7,16.735c-0.213,0.169-0.416,0.345-0.613,0.529l-0.104,0.099
		c-1.483,1.423-2.514,3.246-2.971,5.253l-0.031,0.135c-0.051,0.24-0.092,0.483-0.125,0.728c-0.018,0.105-0.035,0.209-0.047,0.314
		c-0.014,0.103-0.016,0.208-0.023,0.312c-0.08,0.927-0.044,1.86,0.125,2.782l0.072,0.483l0.033-0.013
		c0.113,0.496,0.252,0.988,0.438,1.471c1.569,4.057,5.546,6.781,9.894,6.781c1.309,0,2.596-0.241,3.826-0.717
		c1.754-0.681,3.256-1.793,4.408-3.22l6.991,4.949c0.12,0.084,0.258,0.125,0.396,0.125c0.215,0,0.426-0.101,0.56-0.289
		C39.746,36.148,39.674,35.721,39.365,35.503z M26.68,33.613c-1.072,0.416-2.192,0.625-3.332,0.625
		c-3.787,0-7.248-2.375-8.615-5.907c-0.186-0.479-0.319-0.972-0.424-1.465c4.402-1.753,7.524-6.062,7.99-11.042
		c0.348-0.04,0.695-0.067,1.047-0.067c3.785,0,7.248,2.375,8.616,5.908c0.892,2.301,0.831,4.812-0.165,7.067
		C30.801,30.99,28.982,32.723,26.68,33.613z"/>
</g>
</svg>
