<?xml version="1.0" encoding="utf-8"?>
<!-- Generator: Adobe Illustrator 16.0.4, SVG Export Plug-In . SVG Version: 6.00 Build 0)  -->
<!DOCTYPE svg PUBLIC "-//W3C//DTD SVG 1.1//EN" "http://www.w3.org/Graphics/SVG/1.1/DTD/svg11.dtd">
<svg version="1.1" id="Layer_1" xmlns="http://www.w3.org/2000/svg" xmlns:xlink="http://www.w3.org/1999/xlink" x="0px" y="0px"
	 width="50px" height="50px" viewBox="0 0 50 50" enable-background="new 0 0 50 50" xml:space="preserve">
<g>
	<path d="M33.244,28.729c1.632-0.102,1.299-0.466,1.299-0.466c-1.065-0.999,0.632-1.599,0.632-1.599
		c3.528-0.897,3.104-2.649,2.962-3.693c-0.372-2.693-2.746-4.058-4.35-4.726c-3.75-1.562-5.574,0.619-6.833,1.864
		c-0.347,0.343-1.064,0.798-1.764,0.832h-0.306c-0.699-0.034-1.417-0.489-1.764-0.832c-1.26-1.246-3.083-3.426-6.833-1.864
		c-1.603,0.668-3.977,2.033-4.349,4.726c-0.144,1.044-0.565,2.795,2.962,3.693c0,0,1.697,0.6,0.632,1.599
		c0,0-0.332,0.364,1.299,0.466c0,0,1.536,1.994,2.428,1.098c0.502-0.503,0.932-0.866,2.664,0.799c0,0,1.231,0.965,2.629,0.232
		c0,0,1.098-0.499-0.633-1.031c0,0-5.07-0.9-4.359-4.66c0.565-2.995,3.728-0.827,4.759-0.232c0.166,0.095,0.353,0.172,0.718,0.198
		c0.365-0.026,0.553-0.103,0.718-0.198c1.032-0.595,4.194-2.763,4.76,0.232c0.71,3.759-4.36,4.66-4.36,4.66
		c-1.729,0.533-0.632,1.031-0.632,1.031c1.398,0.731,2.629-0.232,2.629-0.232c1.731-1.665,2.161-1.302,2.662-0.799
		C31.708,30.724,33.244,28.729,33.244,28.729z"/>
	<polygon points="25.118,25.14 25.037,25.132 24.957,25.14 	"/>
	<path d="M17.896,30.525l-1.098-0.832c-0.832-0.799-1.265-0.233-1.265-0.233c-0.699,1.531-1.863,0.699-1.863,0.699
		c-0.1-0.897-0.331-1.031-0.599-1.132c-1.771-0.659-1.764,1.563-1.764,1.563c-1.231,1.433-0.034,2.396-0.034,2.396
		c1.099,0.632,0.766,3.128,0.766,3.128L15,36.182c0,0-0.481-2.469,0-3.062c0.407-0.502,0.727-1.221,1.132-1.431
		c0.325-0.168,1.465-0.067,1.465-0.067C18.761,31.091,17.896,30.525,17.896,30.525z"/>
	<path d="M38.692,30.592c0,0,0.008-2.224-1.764-1.563c-0.268,0.1-0.498,0.233-0.598,1.131c0,0-1.165,0.832-1.863-0.699
		c0,0-0.433-0.564-1.265,0.233l-1.099,0.832c0,0-0.866,0.565,0.299,1.099c0,0,1.141-0.102,1.466,0.067
		C34.272,31.9,34.593,32.62,35,33.122c0.48,0.594,0,3.062,0,3.062l2.961-0.066c0,0-0.333-2.496,0.766-3.128
		C38.727,32.988,39.925,32.023,38.692,30.592z"/>
	<path d="M23.288,18.445v0.732c0.066,0.599,0.698,0.765,0.698,0.765h0.966h0.099h0.965c0,0,0.633-0.166,0.7-0.765v-0.732
		c0,0,1.696-1.332,1.264-1.665c0,0-0.166-0.421-1.93,0.999h-1.011h-0.076h-1.01c-1.765-1.42-1.931-0.999-1.931-0.999
		C21.59,17.113,23.288,18.445,23.288,18.445z"/>
	<path d="M23.288,15.538v0.732c0.066,0.599,0.698,0.765,0.698,0.765h0.966h0.099h0.965c0,0,0.633-0.166,0.7-0.765v-0.732
		c0,0,1.696-1.332,1.264-1.664c0,0-0.166-0.421-1.93,0.999h-1.011h-0.076h-1.01c-1.765-1.42-1.931-0.999-1.931-0.999
		C21.59,14.207,23.288,15.538,23.288,15.538z"/>
</g>
</svg>
