<?xml version="1.0" encoding="utf-8"?>
<!-- Generator: Adobe Illustrator 16.0.4, SVG Export Plug-In . SVG Version: 6.00 Build 0)  -->
<!DOCTYPE svg PUBLIC "-//W3C//DTD SVG 1.1//EN" "http://www.w3.org/Graphics/SVG/1.1/DTD/svg11.dtd">
<svg version="1.1" id="Layer_1" xmlns="http://www.w3.org/2000/svg" xmlns:xlink="http://www.w3.org/1999/xlink" x="0px" y="0px"
	 width="50px" height="50px" viewBox="0 0 50 50" enable-background="new 0 0 50 50" xml:space="preserve">
<path d="M30.9,19.617h-1v-2.228c0-0.81-0.657-1.468-1.467-1.468h-6.868c-0.809,0-1.466,0.658-1.466,1.468v2.228h-1.001
	c-1.191,0-2.16,0.969-2.16,2.159V31.92c0,1.189,0.969,2.158,2.16,2.158H30.9c1.191,0,2.16-0.969,2.16-2.158V21.776
	C33.061,20.585,32.092,19.617,30.9,19.617z M21.1,17.389c0-0.258,0.209-0.467,0.466-0.467h0.315v2.068c0,0.275,0.224,0.5,0.5,0.5
	c0.276,0,0.5-0.225,0.5-0.5v-2.068h0.642v1.366c0,0.276,0.224,0.5,0.5,0.5s0.5-0.224,0.5-0.5v-1.366h3.911
	c0.258,0,0.467,0.209,0.467,0.467v2.229h-7.8V17.389z M17.939,23.673h7.441v6.583h-7.441V23.673z M32.061,31.92
	c0,0.639-0.521,1.158-1.16,1.158H19.099c-0.64,0-1.16-0.52-1.16-1.158v-0.664h7.941c0.276,0,0.5-0.225,0.5-0.5v-7.583
	c0-0.276-0.224-0.5-0.5-0.5h-7.941v-0.896c0-0.641,0.521-1.16,1.16-1.16H30.9c0.641,0,1.16,0.521,1.16,1.16V31.92z"/>
</svg>
