<?xml version="1.0" encoding="utf-8"?>
<!-- Generator: Adobe Illustrator 16.0.4, SVG Export Plug-In . SVG Version: 6.00 Build 0)  -->
<!DOCTYPE svg PUBLIC "-//W3C//DTD SVG 1.1//EN" "http://www.w3.org/Graphics/SVG/1.1/DTD/svg11.dtd">
<svg version="1.1" id="Layer_1" xmlns="http://www.w3.org/2000/svg" xmlns:xlink="http://www.w3.org/1999/xlink" x="0px" y="0px"
	 width="50px" height="50px" viewBox="0 0 50 50" enable-background="new 0 0 50 50" xml:space="preserve">
<path d="M17.86,21.302c0-1.195,0.971-2.165,2.168-2.165c1.195,0,2.166,0.97,2.166,2.165c0,1.198-0.97,2.168-2.166,2.168
	C18.832,23.47,17.86,22.5,17.86,21.302z M35.963,13.203v16.938c0,0.39-0.314,0.705-0.705,0.705h-8.301v5.949
	c0,0.188-0.074,0.366-0.206,0.498S26.439,37.5,26.253,37.5h-0.001l-11.48-0.023c-0.388,0-0.703-0.314-0.703-0.703l-0.032-23.567
	c0-0.187,0.075-0.367,0.207-0.499c0.132-0.132,0.311-0.207,0.498-0.207h20.517C35.646,12.499,35.963,12.814,35.963,13.203z
	 M34.555,13.908H15.447l0.024,18.672h1.355v-0.986c0-0.389,0.315-0.703,0.705-0.703c0.389,0,0.704,0.314,0.704,0.703v0.986h1.581
	v-0.986c0-0.389,0.315-0.703,0.705-0.703c0.389,0,0.704,0.314,0.704,0.703v0.986h1.948c0.389,0,0.704,0.314,0.704,0.705
	c0,0.389-0.315,0.704-0.704,0.704h-1.948v0.987c0,0.39-0.315,0.705-0.704,0.705c-0.39,0-0.705-0.315-0.705-0.705v-0.987h-1.581
	v0.987c0,0.39-0.315,0.705-0.704,0.705c-0.39,0-0.705-0.315-0.705-0.705v-0.987h-1.354l0.002,2.079l10.073,0.021v-5.947
	c0-0.39,0.314-0.705,0.705-0.705h8.301V13.908H34.555z"/>
</svg>
