<?xml version="1.0" encoding="utf-8"?>
<!-- Generator: Adobe Illustrator 16.0.4, SVG Export Plug-In . SVG Version: 6.00 Build 0)  -->
<!DOCTYPE svg PUBLIC "-//W3C//DTD SVG 1.1//EN" "http://www.w3.org/Graphics/SVG/1.1/DTD/svg11.dtd">
<svg version="1.1" id="Layer_1" xmlns="http://www.w3.org/2000/svg" xmlns:xlink="http://www.w3.org/1999/xlink" x="0px" y="0px"
	 width="50px" height="50px" viewBox="0 0 50 50" enable-background="new 0 0 50 50" xml:space="preserve">
<path d="M35.741,28.379c0,3.02-2.513,5.477-5.603,5.477c-2.299,0-4.274-1.361-5.139-3.301c-0.863,1.939-2.84,3.301-5.139,3.301
	c-3.091,0-5.603-2.457-5.603-5.477c0-0.275,0.224-0.5,0.5-0.5c0.275,0,0.5,0.225,0.5,0.5c0,2.469,2.064,4.477,4.603,4.477
	s4.602-2.008,4.602-4.477V27.74c-0.988,1.41-2.615,2.341-4.461,2.341c-3.012,0-5.463-2.456-5.463-5.476c0-0.276,0.225-0.5,0.5-0.5
	c0.277,0,0.5,0.224,0.5,0.5c0,2.468,2.002,4.476,4.463,4.476c2.453,0,4.451-1.998,4.461-4.456v-0.649
	c-0.924,1.347-2.396,2.229-4.063,2.229c-2.796,0-5.068-2.456-5.068-5.476c0-0.276,0.223-0.5,0.5-0.5c0.275,0,0.5,0.224,0.5,0.5
	c0,2.468,1.824,4.476,4.068,4.476c2.229,0,4.038-1.979,4.063-4.422v-0.58c-0.791,0.962-1.973,1.582-3.299,1.582
	c-2.375,0-4.308-1.967-4.308-4.385c0-0.276,0.224-0.5,0.5-0.5c0.275,0,0.5,0.224,0.5,0.5c0,1.866,1.482,3.385,3.308,3.385
	c1.791,0,3.246-1.466,3.299-3.286v-0.854c0-0.276,0.225-0.5,0.5-0.5c0.014,0,0.023,0.006,0.037,0.007
	c0.014-0.001,0.022-0.007,0.037-0.007c0.274,0,0.5,0.224,0.5,0.5v0.854c0.053,1.82,1.508,3.286,3.299,3.286
	c1.824,0,3.307-1.519,3.307-3.385c0-0.276,0.226-0.5,0.5-0.5c0.277,0,0.5,0.224,0.5,0.5c0,2.418-1.932,4.385-4.307,4.385
	c-1.326,0-2.508-0.619-3.299-1.582v0.581c0.024,2.443,1.836,4.422,4.063,4.422c2.244,0,4.068-2.008,4.068-4.476
	c0-0.276,0.225-0.5,0.5-0.5c0.277,0,0.5,0.224,0.5,0.5c0,3.02-2.273,5.476-5.068,5.476c-1.668,0-3.141-0.883-4.063-2.229v0.639
	c0.004,2.463,2.004,4.466,4.461,4.466c2.461,0,4.463-2.008,4.463-4.476c0-0.276,0.223-0.5,0.5-0.5c0.275,0,0.5,0.224,0.5,0.5
	c0,3.02-2.451,5.476-5.463,5.476c-1.848,0-3.473-0.932-4.461-2.342v0.64c0,2.468,2.063,4.476,4.602,4.476s4.603-2.008,4.603-4.476
	c0-0.276,0.225-0.5,0.5-0.5C35.519,27.879,35.741,28.104,35.741,28.379z"/>
</svg>
