<?xml version="1.0" encoding="utf-8"?>
<!-- Generator: Adobe Illustrator 16.0.4, SVG Export Plug-In . SVG Version: 6.00 Build 0)  -->
<!DOCTYPE svg PUBLIC "-//W3C//DTD SVG 1.1//EN" "http://www.w3.org/Graphics/SVG/1.1/DTD/svg11.dtd">
<svg version="1.1" id="Layer_1" xmlns="http://www.w3.org/2000/svg" xmlns:xlink="http://www.w3.org/1999/xlink" x="0px" y="0px"
	 width="50px" height="50px" viewBox="0 0 50 50" enable-background="new 0 0 50 50" xml:space="preserve">
<g>
	<path d="M16.613,33.297c0,0-7.084-18.941,11.076-17.128c0,0,4.521-1.767,6.353,2.649c0,0-1.954-1.029-2.81,0
		c0,0,6.131,0.652,2.199,12.957c-0.277,0.869-0.855,1.547-2.361,2.404c0,0,0.771-3.976,0.813-4.563c0,0-0.813,1.767-1.385,1.864
		c0,0,1.343-3.043,1.101-5.84c0,0-1.629,1.473-2.443,1.864c0,0,1.373-4.012-0.814-4.073c0,0-2.728,3.19-3.99,2.896
		c0,0,0.979-1.227,1.06-2.258c0,0-1.386,1.031-1.833,0.981c0,0,0.602-1.153,0.295-1.741c0,0-1.913,3.152-3.359,2.871
		c0,0,1.313-2.173,1.437-3.203c0,0-2.353,1.03-2.627,3.35c0,0-1.404-0.883-0.996-2.158C18.325,24.17,16.126,27.311,16.613,33.297z"
		/>
</g>
</svg>
