<?xml version="1.0" encoding="utf-8"?>
<!-- Generator: Adobe Illustrator 16.0.4, SVG Export Plug-In . SVG Version: 6.00 Build 0)  -->
<!DOCTYPE svg PUBLIC "-//W3C//DTD SVG 1.1//EN" "http://www.w3.org/Graphics/SVG/1.1/DTD/svg11.dtd">
<svg version="1.1" id="Layer_1" xmlns="http://www.w3.org/2000/svg" xmlns:xlink="http://www.w3.org/1999/xlink" x="0px" y="0px"
	 width="50px" height="50px" viewBox="0 0 50 50" enable-background="new 0 0 50 50" xml:space="preserve">
<path d="M37.626,28.677v3.606c0,0.308-0.248,0.556-0.555,0.556s-0.557-0.248-0.557-0.556v-3.606c0-0.918-0.746-1.665-1.664-1.665
	h-4.178c-0.527,1.191-0.725,2.7-0.564,4.529c0.027,0.307-0.198,0.574-0.504,0.602c-0.017,0.002-0.033,0.002-0.049,0.002
	c-0.285,0-0.527-0.218-0.553-0.506c-0.156-1.799-0.001-3.345,0.462-4.627h-4.341c-0.383,1.25-0.574,2.733-0.417,4.529
	c0.026,0.307-0.199,0.574-0.504,0.602c-0.019,0.002-0.033,0.002-0.05,0.002c-0.284,0-0.526-0.217-0.553-0.506
	c-0.156-1.795,0.004-3.322,0.362-4.627h-4.418c-0.271,1.322-0.387,2.812-0.235,4.529c0.026,0.307-0.199,0.574-0.504,0.602
	c-0.019,0.002-0.033,0.002-0.051,0.002c-0.283,0-0.525-0.217-0.552-0.506c-0.151-1.738-0.04-3.259,0.224-4.627h-3.277
	c-0.918,0-1.664,0.747-1.664,1.666v3.605c0,0.308-0.25,0.556-0.557,0.556s-0.555-0.248-0.555-0.556v-3.605
	c0-1.531,1.244-2.775,2.773-2.775h3.521c1.873-6.729,8.033-8.693,8.111-8.717c0.291-0.088,0.602,0.076,0.689,0.369
	c0.09,0.293-0.076,0.604-0.369,0.692c-0.279,0.086-5.522,1.793-7.281,7.654h4.515c1.851-4.619,6.3-5.853,6.358-5.868
	c0.3-0.08,0.601,0.102,0.678,0.395c0.078,0.297-0.098,0.601-0.395,0.68c-0.207,0.056-3.75,1.07-5.438,4.795h4.449
	c0.18-0.305,0.373-0.598,0.599-0.862c1.491-1.753,3.438-1.914,3.519-1.921c0.291-0.015,0.572,0.207,0.597,0.513
	c0.021,0.307-0.206,0.571-0.511,0.596c-0.029,0.002-1.598,0.152-2.772,1.55c-0.031,0.036-0.05,0.088-0.08,0.125h3.513
	C36.382,25.9,37.626,27.146,37.626,28.677z M33.325,29.578c0-0.346-0.279-0.624-0.624-0.624s-0.625,0.278-0.625,0.624
	c0,0.345,0.28,0.624,0.625,0.624S33.325,29.923,33.325,29.578z M34.505,28.398c-0.27,0-0.486,0.219-0.486,0.485
	s0.219,0.485,0.486,0.485s0.484-0.219,0.484-0.485S34.772,28.398,34.505,28.398z M32.979,31.223c-0.205,0-0.369,0.163-0.369,0.367
	s0.164,0.369,0.369,0.369c0.203,0,0.367-0.165,0.367-0.369S33.183,31.223,32.979,31.223z M27.151,28.052
	c-0.461,0-0.832,0.373-0.832,0.833c0,0.459,0.371,0.832,0.832,0.832c0.459,0,0.832-0.373,0.832-0.832
	C27.983,28.425,27.61,28.052,27.151,28.052z M26.278,30.759c-0.307-0.017-0.567,0.22-0.584,0.524
	c-0.016,0.307,0.221,0.568,0.525,0.583c0.307,0.017,0.567-0.22,0.583-0.524C26.819,31.035,26.585,30.773,26.278,30.759z
	 M20.839,28.885c0-0.268-0.218-0.484-0.484-0.484c-0.268,0-0.485,0.218-0.485,0.484c0,0.268,0.218,0.485,0.485,0.485
	C20.621,29.37,20.839,29.152,20.839,28.885z M21.187,30.202c-0.574,0-1.041,0.467-1.041,1.041c0,0.573,0.467,1.04,1.041,1.04
	c0.573,0,1.041-0.467,1.041-1.04C22.228,30.669,21.76,30.202,21.187,30.202z M15.845,28.398c-0.383,0-0.693,0.312-0.693,0.693
	c0,0.383,0.312,0.693,0.693,0.693c0.383,0,0.693-0.311,0.693-0.693C16.538,28.71,16.228,28.398,15.845,28.398z M15.497,31.174
	c-0.344,0-0.624,0.279-0.624,0.624s0.28,0.625,0.624,0.625c0.345,0,0.625-0.28,0.625-0.625S15.842,31.174,15.497,31.174z"/>
</svg>
