<?xml version="1.0" encoding="utf-8"?>
<!-- Generator: Adobe Illustrator 16.0.4, SVG Export Plug-In . SVG Version: 6.00 Build 0)  -->
<!DOCTYPE svg PUBLIC "-//W3C//DTD SVG 1.1//EN" "http://www.w3.org/Graphics/SVG/1.1/DTD/svg11.dtd">
<svg version="1.1" id="Layer_1" xmlns="http://www.w3.org/2000/svg" xmlns:xlink="http://www.w3.org/1999/xlink" x="0px" y="0px"
	 width="50px" height="50px" viewBox="0 0 50 50" enable-background="new 0 0 50 50" xml:space="preserve">
<path d="M36.862,12.78H13.138c-0.353,0-0.638,0.285-0.638,0.637v17c0,0.353,0.285,0.637,0.638,0.637h4.592v5.529
	c0,0.353,0.285,0.637,0.638,0.637h13.261c0.354,0,0.639-0.284,0.639-0.637v-5.529h4.595c0.353,0,0.638-0.284,0.638-0.637v-17
	C37.5,13.065,37.215,12.78,36.862,12.78z M36.226,29.779h-4.595c-0.354,0-0.639,0.285-0.639,0.638v5.529h-3.113v-5.504
	c0-0.354-0.285-0.639-0.637-0.639c-0.353,0-0.638,0.285-0.638,0.639v5.504h-3.208v-5.504c0-0.354-0.285-0.639-0.638-0.639
	c-0.352,0-0.637,0.285-0.637,0.639v5.504h-3.116v-5.529c0-0.353-0.285-0.638-0.638-0.638h-4.592V14.055h22.449L36.226,29.779
	L36.226,29.779z M18.667,21.497c0-1.083,0.878-1.96,1.962-1.96c1.082,0,1.961,0.877,1.961,1.96c0,1.084-0.879,1.962-1.961,1.962
	C19.543,23.459,18.667,22.581,18.667,21.497z M27.412,21.497c0-1.083,0.879-1.96,1.963-1.96c1.082,0,1.959,0.877,1.959,1.96
	c0,1.084-0.877,1.962-1.959,1.962C28.291,23.459,27.412,22.581,27.412,21.497z"/>
</svg>
