<?xml version="1.0" encoding="utf-8"?>
<!-- Generator: Adobe Illustrator 16.0.4, SVG Export Plug-In . SVG Version: 6.00 Build 0)  -->
<!DOCTYPE svg PUBLIC "-//W3C//DTD SVG 1.1//EN" "http://www.w3.org/Graphics/SVG/1.1/DTD/svg11.dtd">
<svg version="1.1" id="Layer_1" xmlns="http://www.w3.org/2000/svg" xmlns:xlink="http://www.w3.org/1999/xlink" x="0px" y="0px"
	 width="50px" height="50px" viewBox="0 0 50 50" enable-background="new 0 0 50 50" xml:space="preserve">
<path d="M37.377,34.034l-2.166-2.291c-0.172-0.182-0.457-0.19-0.639-0.019l-0.609,0.576l-2.021-2.005h0.719
	c0.25,0,0.451-0.202,0.451-0.452V18.62l0.863-0.913l0.602,0.567c0.086,0.082,0.193,0.127,0.322,0.124
	c0.121-0.004,0.233-0.055,0.315-0.142l2.163-2.293c0.083-0.086,0.127-0.203,0.124-0.323c-0.003-0.12-0.056-0.233-0.142-0.315
	l-3.408-3.214c-0.182-0.173-0.469-0.163-0.639,0.019l-2.162,2.291c-0.084,0.086-0.127,0.203-0.125,0.323
	c0.004,0.12,0.056,0.233,0.143,0.316l0.602,0.566l-2.287,2.421H20.5c-0.014-0.021-0.022-0.045-0.04-0.064l-2.227-2.357l0.601-0.566
	c0.087-0.083,0.139-0.196,0.142-0.316s-0.041-0.237-0.124-0.323l-2.163-2.291c-0.169-0.182-0.456-0.191-0.638-0.019l-3.408,3.214
	c-0.087,0.082-0.139,0.195-0.142,0.315c-0.003,0.12,0.041,0.237,0.124,0.323l2.163,2.293c0.082,0.087,0.195,0.138,0.315,0.142
	c0.135,0.008,0.237-0.041,0.323-0.124l0.601-0.567l0.463,0.49c-0.073,0.081-0.12,0.185-0.12,0.301v11.346
	c0,0.25,0.202,0.452,0.452,0.452h1.089l-1.885,1.995l-0.598-0.566c-0.182-0.173-0.468-0.163-0.639,0.019l-2.166,2.291
	c-0.082,0.087-0.127,0.204-0.124,0.323c0.004,0.119,0.055,0.233,0.142,0.315l3.408,3.216c0.087,0.083,0.199,0.124,0.31,0.124
	c0.12,0,0.24-0.048,0.329-0.141l2.163-2.29c0.171-0.183,0.164-0.467-0.018-0.64l-0.6-0.567l1.627-1.725v1.31
	c0,0.25,0.202,0.452,0.452,0.452h8.852c0.25,0,0.452-0.202,0.452-0.452V32.1l2.149,2.275l-0.601,0.567
	c-0.181,0.173-0.188,0.457-0.019,0.64l2.164,2.29c0.088,0.093,0.207,0.141,0.328,0.141c0.111,0,0.223-0.041,0.311-0.124l3.408-3.216
	c0.086-0.082,0.138-0.196,0.142-0.315C37.504,34.238,37.459,34.121,37.377,34.034z M32.736,15.916
	c0.082-0.087,0.127-0.204,0.123-0.324c-0.002-0.12-0.055-0.233-0.142-0.316l-0.601-0.566l1.542-1.633l1.016,0.958l-0.478,0.507
	c-0.17,0.181-0.162,0.467,0.02,0.638c0.088,0.083,0.199,0.124,0.311,0.124c0.119,0,0.24-0.047,0.328-0.142l0.478-0.506l1.077,1.016
	l-1.542,1.635l-0.603-0.567c-0.086-0.083-0.217-0.139-0.322-0.124c-0.121,0.003-0.233,0.055-0.315,0.142l-1.216,1.288h-1.686
	L32.736,15.916z M15.737,16.739l-0.602,0.567l-1.542-1.635l1.077-1.016l0.477,0.506c0.089,0.095,0.209,0.142,0.329,0.142
	c0.111,0,0.223-0.041,0.31-0.124c0.182-0.171,0.19-0.457,0.02-0.638l-0.478-0.507l1.016-0.958l1.542,1.633l-0.601,0.566
	c-0.087,0.083-0.139,0.196-0.142,0.316c-0.003,0.12,0.041,0.236,0.124,0.324l2.011,2.129h-1.685l-1.217-1.289
	C16.205,16.576,15.917,16.566,15.737,16.739z M17.269,34.082c-0.171,0.182-0.164,0.467,0.018,0.639l0.599,0.567l-1.543,1.633
	l-1.077-1.016l0.538-0.568c0.171-0.181,0.164-0.467-0.018-0.639c-0.181-0.173-0.467-0.163-0.639,0.018l-0.539,0.569l-1.016-0.958
	l1.544-1.634l0.6,0.566c0.088,0.082,0.208,0.126,0.324,0.124c0.12-0.003,0.233-0.055,0.315-0.141l2.782-2.945h0.705v1.039
	L17.269,34.082z M26.689,33.508V29.86c0-0.25-0.201-0.451-0.451-0.451s-0.452,0.201-0.452,0.451v3.647h-2.088V29.86
	c0-0.25-0.202-0.451-0.452-0.451s-0.452,0.201-0.452,0.451v3.647h-2.027v-3.664c0-0.25-0.202-0.452-0.452-0.452h-3.039V18.95h14.822
	c0.014,0.016,0.021,0.035,0.035,0.049c0.021,0.021,0.051,0.032,0.075,0.047v10.345h-3.042c-0.25,0-0.452,0.202-0.452,0.452v1.093
	c0,0.008,0,0.017,0,0.024v2.547L26.689,33.508L26.689,33.508z M35.395,35.285l-0.539-0.569c-0.172-0.18-0.459-0.19-0.64-0.018
	c-0.181,0.172-0.188,0.458-0.019,0.639l0.539,0.568l-1.077,1.016l-1.543-1.633l0.599-0.567c0.182-0.172,0.189-0.458,0.018-0.639
	l-3.114-3.299v-0.487h1.071c0.02,0.032,0.035,0.064,0.062,0.093l2.885,2.862c0.172,0.171,0.45,0.175,0.629,0.008l0.601-0.566
	l1.544,1.634L35.395,35.285z M23.134,23.89c0,0.724-0.587,1.31-1.309,1.31c-0.725,0-1.311-0.586-1.311-1.31
	c0-0.722,0.586-1.308,1.311-1.308C22.547,22.582,23.134,23.168,23.134,23.89z M28.969,23.89c0,0.724-0.586,1.31-1.308,1.31
	s-1.31-0.586-1.31-1.31c0-0.722,0.586-1.308,1.31-1.308C28.383,22.582,28.969,23.168,28.969,23.89z"/>
</svg>
