<?xml version="1.0" encoding="utf-8"?>
<!-- Generator: Adobe Illustrator 16.0.4, SVG Export Plug-In . SVG Version: 6.00 Build 0)  -->
<!DOCTYPE svg PUBLIC "-//W3C//DTD SVG 1.1//EN" "http://www.w3.org/Graphics/SVG/1.1/DTD/svg11.dtd">
<svg version="1.1" id="Layer_1" xmlns="http://www.w3.org/2000/svg" xmlns:xlink="http://www.w3.org/1999/xlink" x="0px" y="0px"
	 width="50px" height="50px" viewBox="0 0 50 50" enable-background="new 0 0 50 50" xml:space="preserve">
<path d="M34.302,15.416H15.697c-0.276,0-0.5,0.225-0.5,0.5v13.332c0,0.275,0.224,0.5,0.5,0.5h3.602v4.336c0,0.275,0.224,0.5,0.5,0.5
	h10.4c0.275,0,0.5-0.225,0.5-0.5v-4.336h3.604c0.276,0,0.5-0.225,0.5-0.5V15.916C34.802,15.641,34.578,15.416,34.302,15.416z
	 M33.802,28.748h-3.604c-0.276,0-0.5,0.223-0.5,0.5v4.336h-2.441v-4.316c0-0.276-0.224-0.5-0.5-0.5s-0.5,0.224-0.5,0.5v4.316h-2.516
	v-4.316c0-0.276-0.225-0.5-0.5-0.5c-0.276,0-0.5,0.224-0.5,0.5v4.316h-2.443v-4.336c0-0.277-0.224-0.5-0.5-0.5h-3.602V16.416h17.604
	L33.802,28.748L33.802,28.748z M26.89,22.252c0-0.848,0.689-1.537,1.539-1.537c0.849,0,1.537,0.689,1.537,1.537
	c0,0.852-0.688,1.539-1.537,1.539C27.579,23.791,26.89,23.104,26.89,22.252z M18.434,23.494c-0.021,0.215,0.042,0.424,0.178,0.588
	l1.022,1.252c0.152,0.186,0.378,0.291,0.62,0.291c0.183,0,0.362-0.062,0.506-0.18l0.775-0.635l0.632,0.772
	c0.157,0.192,0.388,0.295,0.621,0.295c0.177,0,0.355-0.06,0.506-0.18l1.253-1.023c0.341-0.28,0.39-0.784,0.11-1.125l-0.635-0.774
	l0.773-0.631c0.166-0.136,0.27-0.326,0.292-0.539c0.021-0.215-0.041-0.424-0.177-0.59L23.89,19.77
	c-0.268-0.332-0.797-0.39-1.128-0.117l-0.775,0.635l-0.635-0.777c-0.136-0.166-0.328-0.268-0.542-0.289
	c-0.22-0.014-0.422,0.045-0.583,0.178l-1.25,1.021c-0.167,0.137-0.27,0.328-0.291,0.543c-0.021,0.213,0.042,0.42,0.178,0.584
	l0.635,0.775l-0.773,0.633C18.559,23.09,18.455,23.281,18.434,23.494z M23.757,24.029l-0.94,0.77l-0.508-0.621l0.941-0.77
	L23.757,24.029z M23.241,20.555l0.771,0.939l-3.729,3.051l-0.771-0.941L23.241,20.555z M19.766,21.068l0.942-0.771l0.506,0.621
	l-0.941,0.771L19.766,21.068z"/>
</svg>
