<?xml version="1.0" encoding="utf-8"?>
<!-- Generator: Adobe Illustrator 16.0.4, SVG Export Plug-In . SVG Version: 6.00 Build 0)  -->
<!DOCTYPE svg PUBLIC "-//W3C//DTD SVG 1.1//EN" "http://www.w3.org/Graphics/SVG/1.1/DTD/svg11.dtd">
<svg version="1.1" id="Layer_1" xmlns="http://www.w3.org/2000/svg" xmlns:xlink="http://www.w3.org/1999/xlink" x="0px" y="0px"
	 width="50px" height="50px" viewBox="0 0 50 50" enable-background="new 0 0 50 50" xml:space="preserve">
<g>
	<path d="M36.179,28.189c-0.078-0.415-0.316-1.952,0.118-3.558c0.919-3.38,0.574-9.511-4.144-12.546
		c-1.778-1.146-3.594-1.867-7.144-1.926l-0.278-0.002c-3.905,0-8.99,1.387-11.041,8.003c-0.043,0.147-1.039,3.647,0.527,8.521
		c0.012,0.225,0.018,1.242-0.672,1.968c-0.587,0.619-1.07,1.912-0.809,3.087c0.147,0.672,0.602,1.58,1.912,2.096l3.388,0.346
		c0.094,0.074,0.688,0.654,0.95,3.802c0.049,0.612,0.459,1.771,1.671,1.771c0.112,0,0.231-0.01,0.302-0.025
		c0.359-0.021,0.782-0.329,1.042-1.451c0.063,0.348,0.192,0.715,0.44,0.988c0.261,0.287,0.606,0.412,1.019,0.428l0.228,0.031
		c0.623,0,1.051-0.59,1.274-1.799c0.192,0.84,0.53,1.656,1.114,1.861c0.031,0.01,0.203,0.059,0.438,0.059
		c0.305,0,1.278-0.106,1.543-1.498c0.059,0.344,0.188,0.766,0.476,1.062c0.229,0.234,0.524,0.359,0.929,0.359h0.014
		c0.152,0,1.498-0.08,1.823-2.939c-0.042-0.66,0.052-2.545,0.976-2.674c0.16,0.021,0.584,0.072,1.117,0.072h0.002
		c2.145,0,3.496-0.787,3.772-2.123C37.196,32.027,37.905,30.312,36.179,28.189z M36.218,31.797
		c-0.253,1.181-1.676,1.428-2.824,1.428c-0.586,0-1.024-0.068-1.029-0.07l-0.059-0.009l-0.058,0.004
		c-1.722,0.124-2.033,2.41-1.945,3.651c-0.178,1.527-0.683,1.938-0.899,1.968l-0.152-0.062c-0.172-0.176-0.242-0.642-0.236-0.94
		c-0.043-1.543-0.291-1.904-0.498-2.043c-0.137-0.095-0.281-0.142-0.43-0.142c-0.754,0-0.882,1.067-0.93,1.471
		c-0.062,0.512-0.065,1.023-0.062,1.027c-0.103,0.762-0.447,0.762-0.578,0.762l-0.123-0.01c-0.265-0.168-0.582-1.424-0.67-2.652
		l-0.014-0.178l-0.123-0.131c-0.199-0.211-0.414-0.318-0.638-0.318c-0.751,0-0.908,1.016-0.904,1.804
		c-0.129,1.013-0.338,1.298-0.362,1.354l-0.086-0.037l-0.166,0.017c-0.137,0-0.197-0.047-0.244-0.099
		c-0.24-0.264-0.261-0.951-0.229-1.279c0.017-0.727-0.091-1.168-0.349-1.432c-0.146-0.15-0.342-0.233-0.547-0.233
		c-0.343,0-0.601,0.22-0.672,0.287l-0.146,0.14l-0.01,0.203c-0.074,1.82-0.379,2.352-0.469,2.469
		c-0.664,0.069-0.771-0.754-0.779-0.846c-0.323-3.889-1.188-4.709-1.812-4.709h-0.002l-3.219-0.312
		c-0.687-0.287-1.103-0.742-1.239-1.355c-0.195-0.88,0.219-1.822,0.559-2.182c1.099-1.156,0.944-2.737,0.938-2.805l-0.021-0.103
		c-1.492-4.592-0.549-7.956-0.541-7.981c1.867-6.028,6.516-7.293,10.084-7.293l0.264,0.002c3.669,0.061,5.279,0.905,6.617,1.767
		c4.266,2.745,4.562,8.347,3.72,11.443c-0.573,2.111-0.124,4.075-0.104,4.157l0.027,0.117l0.077,0.092
		C36.744,30.406,36.267,31.658,36.218,31.797z"/>
	<path d="M30.22,23.965c-0.308,0-0.617,0.031-0.924,0.094c-2.195,0.447-3.662,2.379-3.27,4.308c0.334,1.637,1.885,2.78,3.77,2.78
		c0.309,0,0.618-0.03,0.924-0.095c2.195-0.446,3.661-2.379,3.27-4.309C33.655,25.107,32.104,23.965,30.22,23.965z M30.521,30.072
		c-0.24,0.051-0.482,0.074-0.725,0.074c-1.404,0-2.552-0.814-2.789-1.979c-0.283-1.389,0.834-2.792,2.488-3.128
		c0.24-0.05,0.482-0.074,0.725-0.074c1.404,0,2.553,0.813,2.789,1.979C33.292,28.332,32.175,29.735,30.521,30.072z"/>
	<path d="M23.868,28.367c0.193-0.947-0.051-1.922-0.684-2.74c-0.617-0.797-1.535-1.354-2.584-1.567
		c-0.307-0.062-0.617-0.094-0.925-0.094c-1.886,0-3.437,1.143-3.771,2.779c-0.393,1.93,1.074,3.861,3.27,4.309
		c0.305,0.062,0.616,0.095,0.924,0.095C21.985,31.146,23.535,30.004,23.868,28.367z M22.888,28.168
		c-0.236,1.164-1.384,1.979-2.787,1.979c-0.242,0-0.484-0.025-0.726-0.074c-1.653-0.337-2.771-1.74-2.488-3.129
		c0.237-1.165,1.386-1.979,2.79-1.979c0.24,0,0.484,0.024,0.725,0.074c0.814,0.166,1.522,0.592,1.992,1.199
		C22.847,26.824,23.022,27.51,22.888,28.168z"/>
	<path d="M25.313,28.625l-0.322-0.271l-0.322,0.271c-0.166,0.141-1.631,1.402-1.812,2.504c-0.041,0.166-0.062,0.342-0.062,0.519
		c0,0.632,0.261,1.203,0.698,1.526c0.451,0.336,1.056,0.332,1.499,0.019c0.22,0.156,0.473,0.241,0.737,0.241
		c0.269,0,0.53-0.09,0.76-0.26c0.438-0.323,0.699-0.896,0.699-1.526c0-0.174-0.021-0.349-0.055-0.479
		C26.944,30.027,25.479,28.766,25.313,28.625z M25.896,32.371c-0.221,0.16-0.422-0.074-0.479-0.168l-0.427-0.685l-0.424,0.687
		c-0.059,0.092-0.267,0.321-0.478,0.166c-0.136-0.101-0.294-0.351-0.294-0.725c0-0.096,0.012-0.188,0.041-0.314
		c0.079-0.478,0.661-1.17,1.154-1.648c0.496,0.479,1.08,1.179,1.164,1.686c0.022,0.09,0.033,0.184,0.033,0.278
		C26.188,32.021,26.028,32.271,25.896,32.371z"/>
</g>
</svg>
