<?xml version="1.0" encoding="utf-8"?>
<!-- Generator: Adobe Illustrator 16.0.4, SVG Export Plug-In . SVG Version: 6.00 Build 0)  -->
<!DOCTYPE svg PUBLIC "-//W3C//DTD SVG 1.1//EN" "http://www.w3.org/Graphics/SVG/1.1/DTD/svg11.dtd">
<svg version="1.1" id="Layer_1" xmlns="http://www.w3.org/2000/svg" xmlns:xlink="http://www.w3.org/1999/xlink" x="0px" y="0px"
	 width="50px" height="50px" viewBox="0 0 50 50" enable-background="new 0 0 50 50" xml:space="preserve">
<path d="M33.102,20.064c-0.164-0.352-0.74-0.352-0.903,0c-0.401,0.853-3.925,8.39-3.925,10.58c0,2.414,1.963,4.379,4.377,4.379
	s4.379-1.965,4.379-4.379C37.029,28.454,33.504,20.917,33.102,20.064z M32.648,34.023c-1.861,0-3.377-1.517-3.377-3.379
	c0-1.465,2.138-6.457,3.377-9.178c1.242,2.721,3.381,7.713,3.381,9.178C36.029,32.508,34.514,34.023,32.648,34.023z M33.148,32.309
	c0,0.276-0.224,0.5-0.5,0.5c-1.192,0-2.164-0.971-2.164-2.164c0-0.275,0.225-0.5,0.5-0.5c0.277,0,0.5,0.225,0.5,0.5
	c0,0.643,0.522,1.164,1.164,1.164C32.926,31.809,33.148,32.032,33.148,32.309z M29.104,19.809v-0.619h3.131
	c0.277,0,0.5-0.224,0.5-0.5c0-0.275-0.223-0.5-0.5-0.5h-3.131v-0.616c0-0.894-0.727-1.618-1.617-1.618l-9.744-0.001v-0.478
	c0-0.275-0.224-0.5-0.5-0.5c-0.276,0-0.5,0.225-0.5,0.5l0.001,2.715l-2.773-0.002v-1.475c0-0.275-0.224-0.5-0.5-0.5
	c-0.276,0-0.5,0.225-0.5,0.5l0.001,3.949c0,0.275,0.224,0.5,0.5,0.5c0.276,0,0.5-0.225,0.5-0.5v-1.475l2.773,0.002l0.001,2.713
	c0,0.275,0.224,0.5,0.5,0.5s0.5-0.225,0.5-0.5v-0.479h9.744C28.379,21.426,29.104,20.7,29.104,19.809z M17.742,16.953l9.744,0.001
	c0.34,0,0.617,0.276,0.617,0.618l0.002,2.234c0,0.342-0.277,0.618-0.617,0.618h-1.924v-1.461c0-0.276-0.225-0.5-0.5-0.5
	s-0.5,0.224-0.5,0.5v1.461h-1.002v-1.461c0-0.276-0.224-0.5-0.5-0.5s-0.5,0.224-0.5,0.5v1.461h-1v-1.461c0-0.276-0.224-0.5-0.5-0.5
	s-0.5,0.224-0.5,0.5v1.461h-2.819L17.742,16.953z"/>
</svg>
