<?xml version="1.0" encoding="utf-8"?>
<!-- Generator: Adobe Illustrator 16.0.4, SVG Export Plug-In . SVG Version: 6.00 Build 0)  -->
<!DOCTYPE svg PUBLIC "-//W3C//DTD SVG 1.1//EN" "http://www.w3.org/Graphics/SVG/1.1/DTD/svg11.dtd">
<svg version="1.1" id="Layer_1" xmlns="http://www.w3.org/2000/svg" xmlns:xlink="http://www.w3.org/1999/xlink" x="0px" y="0px"
	 width="50px" height="50px" viewBox="0 0 50 50" enable-background="new 0 0 50 50" xml:space="preserve">
<path d="M37.234,22.518c-0.053-0.031-0.148-0.097-0.281-0.187c-1.191-0.804-4.822-3.25-8.07-3.25c-0.186,0-0.369,0.009-0.558,0.026
	c-1.474,0.152-2.226,0.516-3.324,1.093c-1.073-0.563-1.825-0.937-3.328-1.095c-3.358-0.308-7.36,2.375-8.624,3.225
	c-0.132,0.089-0.227,0.154-0.279,0.188c-0.15,0.057-0.261,0.197-0.27,0.364c-0.027,0.523,3.691,7.475,8.546,7.982
	c1.765,0.184,2.636-0.115,3.955-0.699c1.062,0.47,1.833,0.752,3.017,0.752c0.287,0,0.598-0.017,0.939-0.053
	c4.854-0.507,8.57-7.459,8.543-7.982C37.491,22.715,37.383,22.575,37.234,22.518z M25.41,27.656V25.65
	c0.713-0.01,1.427-0.043,2.141-0.099v1.857C26.857,27.547,26.143,27.631,25.41,27.656z M35.182,23.237
	c-1.277,0.4-2.562,0.723-3.85,0.973v-1.074C32.889,23.167,34.21,23.205,35.182,23.237z M30.512,24.364
	c-0.713,0.119-1.427,0.215-2.141,0.289v-1.563c0.746,0.009,1.461,0.019,2.141,0.031V24.364z M27.551,24.731
	c-0.714,0.059-1.428,0.09-2.141,0.101v-1.763c0.73,0.002,1.447,0.006,2.141,0.012V24.731z M24.59,24.835
	c-0.715-0.007-1.429-0.038-2.141-0.092v-1.663c0.693-0.006,1.41-0.01,2.141-0.012V24.835z M21.629,24.672
	c-0.716-0.072-1.43-0.167-2.141-0.287v-1.265c0.68-0.013,1.395-0.022,2.141-0.031V24.672z M18.668,24.235
	c-1.309-0.254-2.605-0.582-3.889-0.998c0.977-0.03,2.312-0.068,3.889-0.103V24.235z M18.668,25.073v1.078
	c-1.266-0.588-2.366-1.257-3.236-1.861C16.502,24.604,17.581,24.867,18.668,25.073z M19.488,25.215
	c0.711,0.116,1.425,0.212,2.141,0.281v1.726c-0.747-0.193-1.463-0.438-2.141-0.715V25.215z M22.449,27.337v-1.771
	c0.712,0.052,1.426,0.082,2.141,0.089v2.002c-0.736-0.025-1.457-0.11-2.154-0.249C22.439,27.383,22.449,27.361,22.449,27.337z
	 M28.371,25.477c0.714-0.072,1.428-0.166,2.141-0.283v1.316c-0.678,0.276-1.394,0.521-2.141,0.713V25.477z M31.332,25.045
	c1.1-0.209,2.197-0.475,3.29-0.789c-0.879,0.611-1.999,1.298-3.29,1.896V25.045z M21.124,19.903c0.159,0,0.317,0.006,0.47,0.02
	c1.396,0.146,2.018,0.473,3.217,1.104c0.119,0.063,0.33,0.026,0.451-0.035c1.129-0.594,1.75-0.922,3.145-1.066
	c2.542-0.236,5.548,1.448,7.21,2.508c-2.024-0.068-6.034-0.182-10.615-0.182c-4.577,0-8.584,0.111-10.61,0.182
	C15.951,21.438,18.695,19.903,21.124,19.903z M28.873,30.049c-1.643,0.174-2.411-0.129-3.705-0.706
	c-0.055-0.022-0.109-0.034-0.167-0.034s-0.114,0.012-0.167,0.034c-1.294,0.578-2.062,0.882-3.703,0.706
	c-3.038-0.316-5.609-3.551-6.917-5.611c2.073,1.569,6.091,4.054,10.786,4.054c1.021,0,2.005-0.129,2.949-0.329
	c0.005,0,0.008,0.003,0.012,0.003c0.062,0,0.122-0.018,0.176-0.043c3.314-0.745,6.057-2.479,7.648-3.685
	C34.477,26.499,31.904,29.732,28.873,30.049z"/>
</svg>
