<?xml version="1.0" encoding="utf-8"?>
<!-- Generator: Adobe Illustrator 16.0.4, SVG Export Plug-In . SVG Version: 6.00 Build 0)  -->
<!DOCTYPE svg PUBLIC "-//W3C//DTD SVG 1.1//EN" "http://www.w3.org/Graphics/SVG/1.1/DTD/svg11.dtd">
<svg version="1.1" id="Layer_1" xmlns="http://www.w3.org/2000/svg" xmlns:xlink="http://www.w3.org/1999/xlink" x="0px" y="0px"
	 width="50px" height="50px" viewBox="0 0 50 50" enable-background="new 0 0 50 50" xml:space="preserve">
<path d="M37.417,21.311c-0.634-4.111-5.854-6.896-12.403-6.426c-6.502,0.462-11.851,4.553-12.442,9.514
	c-0.244,2.045,0.137,3.652,1.132,4.772c0.922,1.038,2.322,1.586,4.049,1.586c0.698,0,1.438-0.104,2.177-0.28
	c-0.192,0.875-0.804,2.483-2.791,3.408c-0.336,0.156-0.483,0.557-0.326,0.893c0.114,0.246,0.355,0.39,0.609,0.39
	c0.096,0,0.192-0.021,0.284-0.063c3.218-1.498,3.607-4.454,3.654-5.081c0.101-0.04,0.204-0.07,0.304-0.113
	c1.145-0.492,1.953-1.245,2.665-1.909c0.767-0.716,1.328-1.276,2.047-1.183c5.344,0.621,8.652,0.064,10.187-1.724
	C37.372,24.154,37.659,22.88,37.417,21.311z M35.543,24.22c-0.643,0.75-1.854,1.211-3.571,1.397
	c0.188-0.765,0.546-2.742-0.403-3.959c-0.353-0.451-1.023-0.984-2.281-0.918c-0.371,0.016-0.658,0.331-0.641,0.701
	c0.016,0.37,0.26,0.669,0.702,0.641c0.843-0.017,1.074,0.293,1.158,0.402c0.595,0.759,0.263,2.499,0.098,3.049
	c-0.018,0.057-0.014,0.111-0.016,0.169c-1.178,0.024-2.519-0.04-4.056-0.219c-1.301-0.143-2.193,0.669-3.122,1.535
	c-0.662,0.619-1.348,1.258-2.277,1.657c-1.108,0.476-2.309,0.738-3.381,0.738c-0.929,0-2.21-0.197-3.043-1.136
	c-0.729-0.82-1-2.071-0.804-3.719c0.162-1.354,0.742-2.633,1.644-3.767c0.003-0.001,0.006-0.001,0.01-0.002
	c0.019-0.008,1.891-0.879,3.031-0.226c0.569,0.326,0.901,1.03,0.986,2.092c0.028,0.352,0.322,0.618,0.668,0.618
	c0.019,0,0.037-0.001,0.055-0.002c0.371-0.029,0.646-0.353,0.616-0.724c-0.122-1.531-0.681-2.591-1.658-3.152
	c-0.582-0.333-1.229-0.421-1.844-0.403c2.012-1.525,4.716-2.553,7.694-2.766c0.442-0.031,0.88-0.047,1.31-0.047
	c5.127,0,9.193,2.245,9.669,5.336C36.271,22.696,36.092,23.58,35.543,24.22z"/>
</svg>
