<?xml version="1.0" encoding="utf-8"?>
<!-- Generator: Adobe Illustrator 16.0.4, SVG Export Plug-In . SVG Version: 6.00 Build 0)  -->
<!DOCTYPE svg PUBLIC "-//W3C//DTD SVG 1.1//EN" "http://www.w3.org/Graphics/SVG/1.1/DTD/svg11.dtd">
<svg version="1.1" id="Layer_1" xmlns="http://www.w3.org/2000/svg" xmlns:xlink="http://www.w3.org/1999/xlink" x="0px" y="0px"
	 width="50px" height="50px" viewBox="0 0 50 50" enable-background="new 0 0 50 50" xml:space="preserve">
<path d="M30.127,24.147c-0.197-0.035-0.387-0.055-0.564-0.055c-1.06,0-1.582,0.596-1.857,1.268
	c-0.316-0.369-0.514-0.943-0.571-1.186c-0.045-0.191-0.237-0.312-0.433-0.267c-0.192,0.046-0.312,0.239-0.268,0.432
	c0.032,0.136,0.319,1.249,1.051,1.784c-0.047,0.236-0.075,0.461-0.098,0.643l-0.016,0.117c-0.127,0.981-1.104,1.229-2.139,1.35
	c-0.904,0.104-1.061,0.609-1.084,0.822c-0.061,0.519,0.367,0.996,0.815,1.156c0.812,0.292,1.603,0.439,2.349,0.439
	c1.533,0,2.896-0.639,3.737-1.752c1.151-1.521,1.079-2.644,0.817-3.314C31.58,24.851,30.896,24.286,30.127,24.147z M30.479,28.467
	c-1.065,1.407-3.094,1.853-5.271,1.069c-0.207-0.074-0.356-0.294-0.347-0.396c0.01-0.07,0.166-0.158,0.457-0.191
	c0.763-0.09,2.549-0.297,2.767-1.971l0.015-0.121c0.135-1.076,0.346-2.043,1.463-2.043c0.135,0,0.279,0.014,0.438,0.043
	c0.402,0.071,0.958,0.375,1.199,0.992C31.479,26.567,31.23,27.474,30.479,28.467z M34.389,27.06c0-2.156-1.102-4.06-2.77-5.179
	l0.001-1.321c-0.005-1.478-1.207-2.678-2.683-2.678c-0.002,0-0.002,0-0.004,0l-3.031,0.003c1.193-0.759,1.99-2.091,1.99-3.608
	c0-2.357-1.918-4.276-4.277-4.276c-2.358,0-4.277,1.919-4.277,4.276c0,1.521,0.801,2.854,1.999,3.613l-3.048,0.004
	c-1.479,0-2.68,1.205-2.678,2.684v9.042c0,0.198,0.16,0.358,0.359,0.358h3.076v7.342c0,1.478,1.151,2.681,2.566,2.681h4
	c1.416,0,2.568-1.203,2.568-2.681v-4.03C31.605,33.272,34.389,30.485,34.389,27.06z M20.057,14.276c0-1.963,1.598-3.56,3.56-3.56
	c1.963,0,3.56,1.597,3.56,3.56c0,1.962-1.597,3.558-3.56,3.558C21.652,17.834,20.057,16.238,20.057,14.276z M25.615,39.28h-1.68
	c0.022-0.049,0.039-0.1,0.039-0.155V32.56c0-0.197-0.16-0.358-0.359-0.358c-0.198,0-0.359,0.161-0.359,0.358v6.565
	c0,0.056,0.016,0.106,0.039,0.155h-1.68c-1.02,0-1.85-0.881-1.85-1.963v-7.692c0-0.002,0.002-0.004,0.002-0.007
	s-0.002-0.004-0.002-0.008v-6.133c0-0.197-0.16-0.358-0.358-0.358s-0.359,0.161-0.359,0.358v5.78h-2.717v-8.684
	c-0.001-0.522,0.202-1.017,0.571-1.388c0.371-0.371,0.863-0.575,1.388-0.576l10.646-0.012h0.002c1.08,0,1.961,0.881,1.963,1.961
	v0.91c-0.828-0.408-1.758-0.645-2.742-0.645c-3.436,0-6.231,2.795-6.231,6.23c0,3.201,2.429,5.844,5.538,6.19v4.069
	C27.464,38.399,26.635,39.28,25.615,39.28z M28.157,32.569c-3.039,0-5.513-2.473-5.513-5.512s2.474-5.513,5.513-5.513
	c3.04,0,5.512,2.474,5.512,5.513C33.669,30.099,31.197,32.569,28.157,32.569z"/>
</svg>
