<?xml version="1.0" encoding="utf-8"?>
<!-- Generator: Adobe Illustrator 16.0.4, SVG Export Plug-In . SVG Version: 6.00 Build 0)  -->
<!DOCTYPE svg PUBLIC "-//W3C//DTD SVG 1.1//EN" "http://www.w3.org/Graphics/SVG/1.1/DTD/svg11.dtd">
<svg version="1.1" id="Layer_1" xmlns="http://www.w3.org/2000/svg" xmlns:xlink="http://www.w3.org/1999/xlink" x="0px" y="0px"
	 width="50px" height="50px" viewBox="0 0 50 50" enable-background="new 0 0 50 50" xml:space="preserve">
<g>
	<path d="M22.006,22.274c-0.003,0.162,0.019,0.322,0.062,0.477c0.101,0.355,0.314,0.628,0.582,0.746
		c0.097,0.043,0.197,0.064,0.298,0.064c0.111,0,0.223-0.027,0.328-0.08c0.334-0.166,0.483-0.58,0.574-0.855
		c0.115-0.177,0.189-0.368,0.244-0.51l0.056-0.143l0.01-0.039c0.058-0.11,0.104-0.218,0.141-0.306l0.062-0.142l0.009-0.03
		l0.11-0.106l0.026-0.033l0.076-0.025v0.016c0,0.164,0.133,0.299,0.298,0.299c0.164,0,0.297-0.135,0.297-0.299v-0.016l0.076,0.025
		l0.026,0.033l0.11,0.106l0.009,0.03l0.062,0.143c0.037,0.087,0.082,0.193,0.142,0.303l0.01,0.041l0.057,0.143
		c0.055,0.142,0.128,0.334,0.243,0.51c0.091,0.275,0.239,0.689,0.574,0.855c0.104,0.053,0.217,0.08,0.327,0.08
		c0.102,0,0.201-0.021,0.299-0.064c0.269-0.118,0.48-0.391,0.582-0.746c0.07-0.246,0.101-0.45,0.089-0.605v-0.004
		c0.039-0.184,0.045-0.373,0.013-0.56l-0.001-0.002c0.044-0.237,0.022-0.481-0.063-0.708l-0.004-0.004l0.006-0.121
		c0-0.234-0.062-0.464-0.18-0.663c-0.015-0.261-0.129-0.511-0.33-0.719l0.047-0.175c0-0.102-0.045-0.246-0.244-0.383l0.078-0.205
		c0-0.201-0.199-0.373-0.553-0.479l0.053-0.177c0-0.221-0.205-0.411-0.539-0.516c-0.041-0.236-0.354-0.414-0.751-0.414l-0.105,0.105
		l0.105,0.105c0.312,0,0.544,0.131,0.548,0.252l-0.001,0.004l-0.001,0.013c-0.018,0.116-0.243,0.241-0.546,0.241l-0.154-0.016
		c-0.042-0.113-0.15-0.195-0.278-0.195c-0.128,0-0.237,0.082-0.279,0.195l-0.153,0.016c-0.314,0-0.551-0.135-0.551-0.256
		c0-0.119,0.236-0.254,0.551-0.254l0.104-0.105l-0.104-0.105c-0.397,0-0.711,0.178-0.754,0.414
		c-0.336,0.104-0.537,0.293-0.537,0.516l0.053,0.177c-0.354,0.106-0.553,0.278-0.553,0.479l0.078,0.205
		c-0.197,0.135-0.245,0.278-0.245,0.383l0.048,0.177c-0.131,0.134-0.227,0.282-0.28,0.446c-0.03,0.088-0.044,0.18-0.05,0.271
		l-0.01,0.012c-0.112,0.196-0.171,0.422-0.171,0.649l0.006,0.119c-0.079,0.202-0.102,0.418-0.076,0.631l-0.006,0.013
		c-0.052,0.217-0.03,0.467,0.057,0.743L22.006,22.274z M27.03,23.304c-0.147,0.065-0.302,0.062-0.447-0.011
		c-0.126-0.062-0.219-0.181-0.293-0.312l0.069,0.037c0.119,0.051,0.246,0.076,0.371,0.076c0.135,0,0.269-0.027,0.396-0.086
		c0.13-0.06,0.248-0.146,0.349-0.257C27.384,23.019,27.225,23.217,27.03,23.304z M27.544,22.224
		c-0.091,0.272-0.276,0.489-0.506,0.594c-0.19,0.086-0.404,0.09-0.597,0.008c-0.145-0.061-0.25-0.168-0.336-0.291L26.1,22.513
		l-0.017-0.048l0.138,0.065c0.131,0.052,0.268,0.076,0.404,0.076c0.159,0,0.318-0.035,0.469-0.103
		c0.197-0.089,0.359-0.231,0.484-0.41L27.544,22.224z M27.607,21.315c0.002,0.14-0.02,0.279-0.068,0.414
		c-0.1,0.266-0.287,0.472-0.531,0.582c-0.226,0.104-0.479,0.11-0.71,0.021c-0.264-0.102-0.423-0.331-0.53-0.548
		c0.189,0.135,0.424,0.247,0.703,0.247l0.021-0.002C26.988,22.022,27.406,21.733,27.607,21.315z M27.525,20.747
		c0,0.59-0.457,1.062-1.037,1.074h-0.018c-0.354,0-0.629-0.223-0.826-0.412l0.26,0.016c0.753,0,1.389-0.393,1.588-0.927
		L27.525,20.747z M25.18,17.938l0.136,0.013c0.336,0,0.614-0.128,0.715-0.31c0.222,0.072,0.363,0.189,0.363,0.307l-0.074,0.145
		l-0.041,0.034c-0.145,0.112-0.412,0.204-0.754,0.204c-0.119,0-0.236-0.014-0.345-0.035V17.938z M25.18,18.511
		c0.11,0.02,0.229,0.03,0.345,0.03c0.361,0,0.674-0.095,0.869-0.239c0.326,0.08,0.5,0.21,0.5,0.301c0,0.153-0.455,0.377-1.17,0.377
		c-0.19,0-0.375-0.019-0.544-0.049V18.511z M25.18,19.146c0.172,0.027,0.356,0.045,0.544,0.045c0.426,0,0.864-0.082,1.131-0.24
		c0.134,0.076,0.207,0.162,0.207,0.242l-0.049,0.113L27.01,19.31l-0.006,0.008c-0.156,0.18-0.625,0.341-1.213,0.341
		c-0.215,0-0.424-0.022-0.611-0.063V19.146z M25.18,19.81c0.19,0.037,0.398,0.061,0.611,0.061c0.479,0,0.891-0.094,1.157-0.245
		c0.153,0.083,0.243,0.183,0.243,0.271c0,0.233-0.576,0.496-1.35,0.496c-0.232,0-0.46-0.024-0.663-0.07L25.18,19.81L25.18,19.81z
		 M25.18,20.536c0.206,0.042,0.433,0.066,0.663,0.066c0.712,0,1.283-0.195,1.484-0.479l0.021,0.028
		c-0.011,0.586-0.652,1.062-1.443,1.062c-0.254,0-0.505-0.051-0.724-0.146V20.536L25.18,20.536z M23.183,23.293
		c-0.145,0.071-0.299,0.076-0.445,0.011c-0.197-0.087-0.356-0.285-0.446-0.551c0.101,0.109,0.218,0.197,0.349,0.257
		c0.127,0.058,0.261,0.086,0.395,0.086c0.126,0,0.252-0.024,0.372-0.075l0.069-0.037C23.402,23.112,23.309,23.229,23.183,23.293z
		 M23.666,22.513l-0.007,0.02c-0.085,0.123-0.192,0.232-0.334,0.293c-0.194,0.082-0.405,0.078-0.598-0.008
		c-0.23-0.104-0.414-0.32-0.506-0.594l-0.037-0.132c0.125,0.179,0.289,0.323,0.486,0.414c0.149,0.065,0.31,0.103,0.469,0.103
		c0.137,0,0.273-0.025,0.404-0.076l0.137-0.066L23.666,22.513z M23.734,17.642c0.104,0.182,0.38,0.31,0.717,0.31l0.135-0.013v0.356
		c-0.109,0.022-0.227,0.035-0.346,0.035c-0.512,0-0.868-0.202-0.868-0.384C23.372,17.833,23.515,17.715,23.734,17.642z
		 M23.372,18.302c0.195,0.145,0.507,0.239,0.868,0.239c0.118,0,0.235-0.011,0.346-0.03v0.42c-0.169,0.03-0.354,0.049-0.545,0.049
		c-0.499,0-0.867-0.108-1.047-0.228l-0.043-0.028l-0.081-0.121C22.87,18.515,23.029,18.386,23.372,18.302z M22.911,18.951
		c0.268,0.155,0.706,0.239,1.13,0.239c0.189,0,0.373-0.019,0.545-0.047v0.449c-0.188,0.041-0.396,0.063-0.611,0.063
		c-0.728,0-1.271-0.246-1.271-0.466C22.704,19.112,22.781,19.026,22.911,18.951z M22.794,19.635l0.017-0.015
		c0.267,0.152,0.681,0.249,1.163,0.249c0.212,0,0.42-0.022,0.611-0.06v0.512c-0.203,0.045-0.431,0.07-0.663,0.07
		c-0.772,0-1.35-0.264-1.35-0.496C22.573,19.81,22.651,19.716,22.794,19.635z M22.421,20.097c0.182,0.299,0.766,0.506,1.501,0.506
		c0.23,0,0.456-0.023,0.663-0.065v0.53c-0.22,0.097-0.469,0.146-0.726,0.146c-0.795,0-1.442-0.482-1.442-1.074L22.421,20.097z
		 M22.272,20.495c0.199,0.535,0.835,0.93,1.588,0.93l0.261-0.016c-0.198,0.191-0.472,0.412-0.825,0.412h-0.018
		c-0.581-0.012-1.036-0.484-1.036-1.074L22.272,20.495z M23.273,22.032l0.022,0.001c0.281,0,0.514-0.112,0.704-0.247
		c-0.108,0.217-0.267,0.447-0.53,0.548c-0.232,0.089-0.484,0.081-0.712-0.022c-0.243-0.109-0.433-0.315-0.53-0.58
		c-0.05-0.135-0.071-0.276-0.068-0.416C22.36,21.733,22.778,22.022,23.273,22.032z"/>
	<path d="M32.916,15.155h-3.62c-0.396-1.161-1.376-1.188-1.376-1.188c-1.355-0.202-1.544-0.64-1.544-0.64
		c-0.287-0.413-0.123-1.205-0.123-1.205c0.238-0.194,0.33-0.708,0.33-0.708c0.396-0.304,0.376-0.747,0.194-0.742
		c-0.147,0.004-0.114-0.118-0.114-0.118c0.247-1.996-1.527-2.099-1.527-2.099h-0.271c0,0-1.774,0.103-1.527,2.099
		c0,0,0.033,0.122-0.115,0.118c-0.182-0.005-0.199,0.438,0.195,0.742c0,0,0.092,0.514,0.33,0.708c0,0,0.164,0.792-0.123,1.205
		c0,0-0.188,0.438-1.544,0.64c0,0-0.981,0.026-1.376,1.188h-3.621c-0.276,0-0.5,0.224-0.5,0.5v9.334c0,0.275,0.224,0.5,0.5,0.5
		h1.296c-0.27,0.437-0.467,0.883-0.241,0.955c0,0,0.27,0.026,0.627-0.682c0,0-0.007,0.272-0.294,1.062
		c-0.055,0.148-0.294,0.898,0.093,0.628c0,0,0.178-0.123,0.412-0.894c0,0-0.125,1.297,0.013,1.364
		c0.182,0.088,0.281-0.168,0.363-1.306c0,0,0.084-0.366,0.123,1.035c0.002,0.072,0.109,0.432,0.257,0.125
		c0.124-0.258,0.069-0.941,0.069-1.17c0,0,0.16,0.886,0.309,0.886c0,0,0.176,0.206,0.104-0.894c-0.012-0.18,0.05-0.549,0.058-0.656
		l0.017-0.422l-0.003-0.035h1.271c-0.028,0.31-0.04,0.617-0.005,0.906c0.139,1.137,0.406,3.567,0.678,4.525
		c0.141,0.496,0.057,1.748,0.172,2.061c0.05,0.135,0.024,0.26-0.086,0.568c-0.384,1.076-0.335,1.834,0.628,4.689
		c0,0,0.296,0.633,0.147,1.771c0,0-0.615,1.265-0.221,1.29c0,0,0.032,0.084,0.164,0.018c0,0,0.213,0.219,0.443,0.101
		c0,0,0.213,0.169,0.395,0.019c0,0,0.147,0.168,0.36,0.032c0,0,0.279,0.187,0.444-0.017c0,0,0.295,0.066-0.23-1.264
		c0,0-0.201-1.41-0.312-1.687c-0.211-0.527-0.062-1.965-0.017-2.274c0.074-0.515,0.035-1.395-0.099-2.074
		c-0.096-0.487,0.167-1.407,0.263-1.973c0.201-1.191,0.591-4.23,0.542-4.804l0.162,0.056c0.117,0,0.191-0.056,0.191-0.056
		c-0.049,0.573,0.34,3.612,0.542,4.804c0.096,0.564,0.358,1.484,0.264,1.973c-0.135,0.681-0.174,1.561-0.1,2.074
		c0.047,0.311,0.194,1.747-0.017,2.274c-0.11,0.274-0.312,1.687-0.312,1.687c-0.526,1.33-0.23,1.264-0.23,1.264
		c0.165,0.201,0.443,0.017,0.443,0.017c0.213,0.136,0.36-0.032,0.36-0.032c0.183,0.15,0.396-0.019,0.396-0.019
		c0.229,0.118,0.443-0.101,0.443-0.101c0.131,0.066,0.163-0.018,0.163-0.018c0.396-0.025-0.221-1.29-0.221-1.29
		c-0.147-1.138,0.147-1.771,0.147-1.771c0.963-2.855,1.012-3.613,0.627-4.689c-0.109-0.311-0.136-0.434-0.086-0.568
		c0.115-0.312,0.031-1.563,0.172-2.061c0.271-0.958,0.539-3.391,0.679-4.525c0.034-0.289,0.022-0.598-0.005-0.906h1.271
		l-0.003,0.035l0.018,0.422c0.008,0.107,0.068,0.478,0.058,0.656c-0.071,1.1,0.104,0.894,0.104,0.894
		c0.147,0,0.309-0.886,0.309-0.886c0,0.229-0.055,0.912,0.068,1.17c0.147,0.307,0.256-0.053,0.258-0.125
		c0.039-1.401,0.123-1.035,0.123-1.035c0.082,1.138,0.182,1.394,0.363,1.306c0.137-0.067,0.012-1.364,0.012-1.364
		c0.234,0.771,0.412,0.894,0.412,0.894c0.387,0.271,0.147-0.479,0.094-0.628c-0.287-0.789-0.295-1.062-0.295-1.062
		c0.357,0.708,0.628,0.682,0.628,0.682c0.226-0.072,0.028-0.52-0.241-0.955h1.295c0.275,0,0.5-0.225,0.5-0.5v-9.334
		C33.416,15.379,33.191,15.155,32.916,15.155z M32.416,24.489H17.583v-8.334h14.833V24.489L32.416,24.489z"/>
</g>
</svg>
