<?xml version="1.0" encoding="utf-8"?>
<!-- Generator: Adobe Illustrator 16.0.4, SVG Export Plug-In . SVG Version: 6.00 Build 0)  -->
<!DOCTYPE svg PUBLIC "-//W3C//DTD SVG 1.1//EN" "http://www.w3.org/Graphics/SVG/1.1/DTD/svg11.dtd">
<svg version="1.1" id="Layer_1" xmlns="http://www.w3.org/2000/svg" xmlns:xlink="http://www.w3.org/1999/xlink" x="0px" y="0px"
	 width="50px" height="50px" viewBox="0 0 50 50" enable-background="new 0 0 50 50" xml:space="preserve">
<g>
	<path d="M32.916,15.155h-3.62c-0.396-1.161-1.376-1.188-1.376-1.188c-1.355-0.202-1.544-0.64-1.544-0.64
		c-0.287-0.413-0.123-1.205-0.123-1.205c0.238-0.194,0.33-0.708,0.33-0.708c0.396-0.304,0.376-0.747,0.194-0.742
		c-0.147,0.004-0.114-0.118-0.114-0.118c0.247-1.996-1.527-2.099-1.527-2.099h-0.271c0,0-1.774,0.103-1.527,2.099
		c0,0,0.033,0.122-0.115,0.118c-0.182-0.005-0.199,0.438,0.195,0.742c0,0,0.092,0.514,0.33,0.708c0,0,0.164,0.792-0.123,1.205
		c0,0-0.188,0.438-1.544,0.64c0,0-0.981,0.026-1.376,1.188h-3.621c-0.276,0-0.5,0.224-0.5,0.5v9.334c0,0.275,0.224,0.5,0.5,0.5
		h1.296c-0.27,0.437-0.467,0.883-0.241,0.955c0,0,0.27,0.026,0.627-0.682c0,0-0.007,0.272-0.294,1.062
		c-0.055,0.148-0.294,0.898,0.093,0.628c0,0,0.178-0.123,0.412-0.894c0,0-0.125,1.297,0.013,1.364
		c0.182,0.088,0.281-0.168,0.363-1.306c0,0,0.084-0.366,0.123,1.035c0.002,0.072,0.109,0.432,0.257,0.125
		c0.124-0.258,0.069-0.941,0.069-1.17c0,0,0.16,0.886,0.309,0.886c0,0,0.176,0.206,0.104-0.894c-0.012-0.18,0.05-0.549,0.058-0.656
		l0.017-0.422l-0.003-0.035h1.271c-0.028,0.31-0.04,0.617-0.005,0.906c0.139,1.137,0.406,3.567,0.678,4.525
		c0.141,0.496,0.057,1.748,0.172,2.061c0.05,0.135,0.024,0.26-0.086,0.568c-0.384,1.076-0.335,1.834,0.628,4.689
		c0,0,0.296,0.633,0.147,1.771c0,0-0.615,1.265-0.221,1.29c0,0,0.032,0.084,0.164,0.018c0,0,0.213,0.219,0.443,0.101
		c0,0,0.213,0.169,0.395,0.019c0,0,0.147,0.168,0.36,0.032c0,0,0.279,0.187,0.444-0.017c0,0,0.295,0.066-0.23-1.264
		c0,0-0.201-1.41-0.312-1.687c-0.211-0.527-0.062-1.965-0.017-2.274c0.074-0.515,0.035-1.395-0.099-2.074
		c-0.096-0.487,0.167-1.407,0.263-1.973c0.201-1.191,0.591-4.23,0.542-4.804l0.162,0.056c0.117,0,0.191-0.056,0.191-0.056
		c-0.049,0.573,0.34,3.612,0.542,4.804c0.096,0.564,0.358,1.484,0.264,1.973c-0.135,0.681-0.174,1.561-0.1,2.074
		c0.047,0.311,0.194,1.747-0.017,2.274c-0.11,0.274-0.312,1.687-0.312,1.687c-0.527,1.33-0.23,1.264-0.23,1.264
		c0.165,0.201,0.443,0.017,0.443,0.017c0.213,0.136,0.36-0.032,0.36-0.032c0.183,0.15,0.396-0.019,0.396-0.019
		c0.229,0.118,0.442-0.101,0.442-0.101c0.132,0.066,0.164-0.018,0.164-0.018c0.396-0.025-0.221-1.29-0.221-1.29
		c-0.147-1.138,0.147-1.771,0.147-1.771c0.963-2.855,1.012-3.613,0.627-4.689c-0.109-0.311-0.136-0.434-0.086-0.568
		c0.115-0.312,0.031-1.563,0.172-2.061c0.271-0.958,0.539-3.391,0.679-4.525c0.034-0.289,0.022-0.598-0.005-0.906h1.271
		l-0.003,0.035l0.018,0.422c0.008,0.107,0.068,0.478,0.058,0.656c-0.071,1.1,0.104,0.894,0.104,0.894
		c0.147,0,0.309-0.886,0.309-0.886c0,0.229-0.055,0.912,0.068,1.17c0.147,0.307,0.256-0.053,0.258-0.125
		c0.039-1.401,0.123-1.035,0.123-1.035c0.082,1.138,0.182,1.394,0.363,1.306c0.137-0.067,0.012-1.364,0.012-1.364
		c0.234,0.771,0.412,0.894,0.412,0.894c0.387,0.271,0.147-0.479,0.094-0.628c-0.287-0.789-0.295-1.062-0.295-1.062
		c0.357,0.708,0.628,0.682,0.628,0.682c0.226-0.072,0.028-0.52-0.241-0.955h1.295c0.275,0,0.5-0.225,0.5-0.5v-9.334
		C33.416,15.379,33.191,15.155,32.916,15.155z M32.416,24.489h-7.288c0.005-0.141,0.087-0.682,0.027-0.77l0.01-0.019l0.205,0.036
		c0.198,0,0.373-0.088,0.487-0.225c0.109,0.09,0.25,0.146,0.408,0.146c0.299,0,0.549-0.199,0.608-0.461l0.13,0.013
		c0.346,0,0.624-0.262,0.624-0.583L27.62,22.55c0.169-0.104,0.28-0.283,0.28-0.486c0-0.15-0.062-0.287-0.162-0.391
		c0.199-0.085,0.338-0.252,0.338-0.447c0-0.13-0.062-0.246-0.16-0.336c0.087-0.101,0.143-0.227,0.143-0.365
		c0-0.097-0.029-0.187-0.072-0.266c0.058-0.076,0.091-0.166,0.091-0.26c0-0.13-0.062-0.247-0.16-0.336
		c0.087-0.102,0.142-0.229,0.142-0.366c0-0.295-0.235-0.536-0.539-0.576c-0.104-0.188-0.311-0.319-0.553-0.319
		c-0.113,0-0.22,0.033-0.311,0.082c-0.094-0.049-0.198-0.082-0.312-0.082c-0.216,0-0.404,0.104-0.518,0.259
		c-0.09-0.155-0.244-0.259-0.418-0.259c-0.177,0-0.331,0.105-0.423,0.264c-0.119-0.157-0.321-0.264-0.551-0.264
		c-0.167,0-0.318,0.058-0.436,0.146c-0.114-0.09-0.26-0.146-0.421-0.146c-0.206,0-0.388,0.093-0.509,0.229
		c-0.115-0.093-0.264-0.151-0.427-0.151c-0.366,0-0.663,0.279-0.663,0.623c0,0.129,0.044,0.25,0.116,0.351
		c-0.107,0.106-0.174,0.251-0.174,0.409c0,0.099,0.027,0.188,0.071,0.271L21.92,20.33c0,0.141,0.099,0.266,0.253,0.346
		c-0.154,0.08-0.253,0.204-0.253,0.347c0,0.119,0.071,0.229,0.187,0.31c-0.037,0.081-0.06,0.17-0.06,0.265
		c0,0.336,0.261,0.606,0.589,0.629l0.214,0.164c0.295,0.188,0.588,0.258,0.655,0.153c0.063-0.101-0.103-0.319-0.373-0.503
		c0.111-0.114,0.181-0.271,0.181-0.443c0-0.156-0.061-0.3-0.155-0.408l0.048-0.166c0-0.142-0.1-0.266-0.252-0.346
		c0.152-0.08,0.252-0.205,0.252-0.346l-0.07-0.197c0.043-0.081,0.07-0.172,0.07-0.271c0-0.115-0.036-0.226-0.099-0.316l0.042-0.048
		c0.116,0.092,0.263,0.149,0.428,0.149c0.185,0,0.351-0.07,0.472-0.188c0.108,0.068,0.239,0.111,0.385,0.111
		c0.229,0,0.432-0.104,0.551-0.264c0.092,0.158,0.246,0.264,0.423,0.264c0.174,0,0.328-0.104,0.418-0.258
		c0.113,0.154,0.302,0.258,0.518,0.258c0.113,0,0.219-0.032,0.312-0.082l0.227,0.072l0.088,0.121
		c-0.086,0.088-0.141,0.195-0.141,0.316l0.07,0.229c-0.057,0.088-0.09,0.188-0.09,0.297c0,0.148,0.062,0.283,0.159,0.387
		c-0.086,0.087-0.141,0.195-0.141,0.314c0,0.125,0.06,0.238,0.151,0.328c-0.193,0.098-0.326,0.287-0.326,0.51l0.009,0.078
		c-0.136,0.082-0.231,0.211-0.269,0.363l-0.131-0.013c-0.197,0-0.373,0.089-0.486,0.224c-0.108-0.091-0.252-0.146-0.408-0.146
		c-0.228,0-0.426,0.117-0.535,0.289l-0.205-0.035c-0.344,0-0.623,0.263-0.623,0.584c0,0.115,0.037,0.221,0.098,0.312
		c-0.053,0.079,0.037,0.567,0.061,0.769h-6.582v-8.334h14.833V24.489L32.416,24.489z"/>
</g>
</svg>
