<?xml version="1.0" encoding="utf-8"?>
<!-- Generator: Adobe Illustrator 16.0.4, SVG Export Plug-In . SVG Version: 6.00 Build 0)  -->
<!DOCTYPE svg PUBLIC "-//W3C//DTD SVG 1.1//EN" "http://www.w3.org/Graphics/SVG/1.1/DTD/svg11.dtd">
<svg version="1.1" id="Layer_1" xmlns="http://www.w3.org/2000/svg" xmlns:xlink="http://www.w3.org/1999/xlink" x="0px" y="0px"
	 width="50px" height="50px" viewBox="0 0 50 50" enable-background="new 0 0 50 50" xml:space="preserve">
<g>
	<path d="M23.234,20.387c-0.367,0.146-0.578,0.515-0.668,0.714c-0.202-0.082-0.607-0.205-0.976-0.06
		c-0.367,0.147-0.577,0.517-0.668,0.714c-0.201-0.081-0.607-0.205-0.976-0.059l0.086,0.215c0.294-0.118,0.641-0.01,0.81,0.061
		l-0.003,0.008l0.007,0.004c-0.075,0.164-0.252,0.482-0.546,0.601l0.085,0.214c0.368-0.146,0.578-0.516,0.668-0.714
		c0.202,0.082,0.607,0.205,0.976,0.06c0.367-0.146,0.578-0.517,0.668-0.715c0.202,0.082,0.607,0.206,0.976,0.059
		c0.367-0.146,0.578-0.516,0.668-0.715c0.159,0.065,0.445,0.153,0.74,0.116c0.298,0.052,0.592-0.03,0.756-0.09
		c0.084,0.201,0.281,0.576,0.644,0.733c0.363,0.158,0.772,0.049,0.979-0.026c0.084,0.203,0.282,0.578,0.645,0.735
		c0.362,0.158,0.771,0.049,0.978-0.026c0.084,0.201,0.282,0.576,0.646,0.735l0.092-0.211c-0.291-0.127-0.457-0.451-0.525-0.618
		l0.007-0.005l-0.002-0.006c0.169-0.063,0.519-0.162,0.812-0.035l0.092-0.211c-0.361-0.158-0.771-0.049-0.977,0.027
		c-0.084-0.201-0.283-0.578-0.646-0.736s-0.771-0.049-0.978,0.027c-0.084-0.201-0.281-0.578-0.644-0.736
		c-0.362-0.156-0.772-0.047-0.978,0.027l-0.088-0.18l0.094-0.177c0.201,0.081,0.606,0.204,0.975,0.059s0.579-0.516,0.669-0.715
		c0.202,0.083,0.606,0.207,0.976,0.06c0.367-0.146,0.578-0.515,0.668-0.713c0.201,0.082,0.606,0.204,0.977,0.06l-0.086-0.216
		c-0.294,0.119-0.643,0.009-0.811-0.062l0.004-0.007L29.35,18.58c0.075-0.166,0.252-0.483,0.547-0.603l-0.086-0.213
		c-0.367,0.146-0.578,0.516-0.668,0.715c-0.201-0.082-0.607-0.207-0.977-0.06c-0.367,0.146-0.577,0.515-0.668,0.714
		c-0.201-0.082-0.607-0.205-0.975-0.06c-0.368,0.146-0.578,0.517-0.668,0.715c-0.159-0.065-0.445-0.153-0.74-0.116
		c-0.297-0.051-0.592,0.031-0.756,0.092c-0.084-0.201-0.281-0.578-0.645-0.734c-0.362-0.159-0.772-0.049-0.978,0.025
		c-0.084-0.201-0.281-0.576-0.644-0.734c-0.363-0.158-0.771-0.049-0.977,0.027c-0.084-0.203-0.282-0.578-0.645-0.735l-0.093,0.211
		c0.291,0.127,0.457,0.45,0.526,0.618l-0.007,0.004l0.002,0.007c-0.17,0.063-0.521,0.159-0.811,0.034l-0.093,0.211
		c0.363,0.158,0.772,0.049,0.978-0.027c0.083,0.202,0.281,0.577,0.645,0.734c0.362,0.16,0.771,0.05,0.977-0.025
		c0.084,0.202,0.281,0.577,0.644,0.734c0.362,0.16,0.772,0.05,0.978-0.025l0.087,0.18l-0.093,0.178
		C24.007,20.362,23.602,20.239,23.234,20.387z M21.944,21.928c-0.295,0.118-0.642,0.009-0.81-0.062l0.002-0.006l-0.006-0.006
		c0.074-0.164,0.251-0.481,0.546-0.601c0.294-0.117,0.642-0.007,0.809,0.062l-0.002,0.008l0.006,0.004
		C22.415,21.491,22.238,21.812,21.944,21.928z M23.587,21.272c-0.295,0.117-0.642,0.008-0.81-0.062l0.002-0.007L22.773,21.2
		c0.074-0.165,0.25-0.483,0.545-0.602c0.295-0.117,0.642-0.008,0.81,0.062l-0.002,0.007l0.007,0.003
		C24.058,20.837,23.882,21.153,23.587,21.272z M27.673,21.399c0.17-0.062,0.521-0.16,0.812-0.033
		c0.289,0.127,0.455,0.451,0.524,0.619l-0.007,0.002l0.002,0.009c-0.17,0.062-0.521,0.161-0.811,0.032
		c-0.291-0.127-0.457-0.449-0.525-0.617l0.007-0.004L27.673,21.399z M26.052,20.692c0.171-0.063,0.521-0.162,0.812-0.035
		c0.289,0.128,0.455,0.449,0.525,0.619l-0.008,0.002l0.002,0.009c-0.17,0.062-0.521,0.161-0.811,0.032
		c-0.29-0.127-0.456-0.449-0.525-0.616l0.008-0.003L26.052,20.692z M28.249,18.635c0.294-0.116,0.642-0.009,0.81,0.062l-0.002,0.008
		l0.006,0.003c-0.073,0.165-0.252,0.483-0.545,0.601c-0.295,0.118-0.643,0.01-0.811-0.061l0.003-0.008l-0.007-0.004
		C27.777,19.069,27.954,18.752,28.249,18.635z M26.605,19.29c0.295-0.118,0.643-0.008,0.81,0.061l-0.002,0.008l0.007,0.002
		c-0.074,0.166-0.25,0.483-0.545,0.602s-0.643,0.01-0.811-0.061l0.002-0.006l-0.006-0.004C26.134,19.726,26.311,19.407,26.605,19.29
		z M25.771,20.006l-0.002,0.007l0.006,0.004l-0.026,0.06l-0.099-0.114L25.771,20.006z M25.742,20.508l0.025,0.06l-0.008,0.004
		l0.002,0.009l-0.123,0.04L25.742,20.508z M24.962,19.944l0.14-0.037l0.14,0.043c0.163,0.07,0.287,0.205,0.377,0.34
		c-0.096,0.13-0.222,0.261-0.388,0.327l-0.141,0.038l-0.139-0.043c-0.164-0.071-0.287-0.207-0.377-0.342
		C24.669,20.142,24.796,20.012,24.962,19.944z M24.431,19.983l0.122-0.039l-0.102,0.108l-0.025-0.061l0.007-0.003L24.431,19.983z
		 M24.445,20.487l0.099,0.113l-0.122-0.045l0.002-0.007l-0.007-0.004L24.445,20.487z M22.52,19.161
		c-0.169,0.062-0.519,0.162-0.811,0.033c-0.291-0.125-0.456-0.449-0.525-0.616l0.006-0.004l-0.002-0.007
		c0.17-0.062,0.521-0.162,0.811-0.035c0.291,0.127,0.457,0.451,0.526,0.617l-0.007,0.004L22.52,19.161z M24.141,19.869
		c-0.169,0.063-0.519,0.161-0.811,0.034c-0.29-0.127-0.456-0.449-0.525-0.618l0.007-0.003l-0.002-0.008
		c0.169-0.062,0.519-0.162,0.811-0.033c0.29,0.127,0.456,0.451,0.525,0.617l-0.007,0.005L24.141,19.869z"/>
	<path d="M32.916,15.155h-3.62c-0.396-1.161-1.376-1.188-1.376-1.188c-1.355-0.202-1.544-0.64-1.544-0.64
		c-0.287-0.413-0.123-1.205-0.123-1.205c0.238-0.194,0.33-0.708,0.33-0.708c0.396-0.304,0.376-0.747,0.194-0.742
		c-0.147,0.004-0.114-0.118-0.114-0.118c0.247-1.996-1.527-2.099-1.527-2.099h-0.271c0,0-1.774,0.103-1.527,2.099
		c0,0,0.033,0.122-0.115,0.118c-0.182-0.005-0.199,0.438,0.195,0.742c0,0,0.092,0.514,0.33,0.708c0,0,0.164,0.792-0.123,1.205
		c0,0-0.188,0.438-1.544,0.64c0,0-0.981,0.026-1.376,1.188h-3.621c-0.276,0-0.5,0.224-0.5,0.5v9.334c0,0.275,0.224,0.5,0.5,0.5
		h1.296c-0.27,0.437-0.467,0.883-0.241,0.955c0,0,0.27,0.026,0.627-0.682c0,0-0.007,0.272-0.294,1.062
		c-0.055,0.148-0.294,0.898,0.093,0.628c0,0,0.178-0.123,0.412-0.894c0,0-0.125,1.297,0.013,1.364
		c0.182,0.088,0.281-0.168,0.363-1.306c0,0,0.084-0.366,0.123,1.035c0.002,0.072,0.109,0.432,0.257,0.125
		c0.124-0.258,0.069-0.941,0.069-1.17c0,0,0.16,0.886,0.309,0.886c0,0,0.176,0.206,0.104-0.894c-0.012-0.18,0.05-0.549,0.058-0.656
		l0.017-0.422l-0.003-0.035h1.271c-0.028,0.31-0.04,0.617-0.005,0.906c0.139,1.137,0.406,3.567,0.678,4.525
		c0.141,0.496,0.057,1.748,0.172,2.061c0.05,0.135,0.024,0.26-0.086,0.568c-0.384,1.076-0.335,1.834,0.628,4.689
		c0,0,0.296,0.633,0.147,1.771c0,0-0.615,1.265-0.221,1.29c0,0,0.032,0.084,0.164,0.018c0,0,0.213,0.219,0.443,0.101
		c0,0,0.213,0.169,0.395,0.019c0,0,0.147,0.168,0.36,0.032c0,0,0.279,0.187,0.444-0.017c0,0,0.295,0.066-0.23-1.264
		c0,0-0.201-1.41-0.312-1.687c-0.211-0.527-0.062-1.965-0.017-2.274c0.074-0.515,0.035-1.395-0.099-2.074
		c-0.096-0.487,0.167-1.407,0.263-1.973c0.201-1.191,0.591-4.23,0.542-4.804l0.162,0.056c0.117,0,0.191-0.056,0.191-0.056
		c-0.049,0.573,0.34,3.612,0.542,4.804c0.096,0.564,0.358,1.484,0.264,1.973c-0.135,0.681-0.174,1.561-0.1,2.074
		c0.047,0.311,0.194,1.747-0.017,2.274c-0.11,0.274-0.312,1.687-0.312,1.687c-0.526,1.33-0.23,1.264-0.23,1.264
		c0.165,0.201,0.443,0.017,0.443,0.017c0.213,0.136,0.36-0.032,0.36-0.032c0.183,0.15,0.396-0.019,0.396-0.019
		c0.229,0.118,0.442-0.101,0.442-0.101c0.132,0.066,0.164-0.018,0.164-0.018c0.396-0.025-0.221-1.29-0.221-1.29
		c-0.147-1.138,0.147-1.771,0.147-1.771c0.963-2.855,1.012-3.613,0.627-4.689c-0.109-0.311-0.136-0.434-0.086-0.568
		c0.115-0.312,0.031-1.563,0.172-2.061c0.271-0.958,0.539-3.391,0.679-4.525c0.034-0.289,0.022-0.598-0.005-0.906h1.271
		l-0.003,0.035l0.018,0.422c0.008,0.107,0.068,0.478,0.058,0.656c-0.071,1.1,0.104,0.894,0.104,0.894
		c0.147,0,0.309-0.886,0.309-0.886c0,0.229-0.055,0.912,0.068,1.17c0.147,0.307,0.256-0.053,0.258-0.125
		c0.039-1.401,0.123-1.035,0.123-1.035c0.082,1.138,0.182,1.394,0.363,1.306c0.137-0.067,0.012-1.364,0.012-1.364
		c0.234,0.771,0.412,0.894,0.412,0.894c0.387,0.271,0.147-0.479,0.094-0.628c-0.287-0.789-0.294-1.062-0.294-1.062
		c0.356,0.708,0.627,0.682,0.627,0.682c0.226-0.072,0.028-0.52-0.241-0.955h1.295c0.275,0,0.5-0.225,0.5-0.5v-9.334
		C33.416,15.379,33.191,15.155,32.916,15.155z M32.416,24.489H17.583v-8.334h14.833V24.489L32.416,24.489z"/>
</g>
</svg>
