<?xml version="1.0" encoding="utf-8"?>
<!-- Generator: Adobe Illustrator 16.0.4, SVG Export Plug-In . SVG Version: 6.00 Build 0)  -->
<!DOCTYPE svg PUBLIC "-//W3C//DTD SVG 1.1//EN" "http://www.w3.org/Graphics/SVG/1.1/DTD/svg11.dtd">
<svg version="1.1" id="Layer_1" xmlns="http://www.w3.org/2000/svg" xmlns:xlink="http://www.w3.org/1999/xlink" x="0px" y="0px"
	 width="50px" height="50px" viewBox="0 0 50 50" enable-background="new 0 0 50 50" xml:space="preserve">
<g>
	<path d="M25.039,12.226c0,0-0.154,0.131-0.171,0.234l-0.004,0.04l0.05,0.117l0.048,0.017l0.077-0.048l0.076,0.048l0.049-0.017
		l0.051-0.117l-0.004-0.04C25.193,12.357,25.039,12.226,25.039,12.226z"/>
	<path d="M24.137,12.003c0.035-0.172,0.226-0.279,0.426-0.238c0.2,0.04,0.334,0.213,0.299,0.386
		c-0.035,0.173-0.226,0.28-0.426,0.239C24.236,12.349,24.103,12.176,24.137,12.003z M25.195,12.142
		c-0.035-0.174,0.1-0.346,0.3-0.387c0.199-0.041,0.393,0.066,0.426,0.238c0.035,0.173-0.1,0.346-0.3,0.387
		S25.23,12.314,25.195,12.142z"/>
	<path d="M30.601,24.863c-0.178-0.223-0.406-0.521-0.472-0.695c-0.108-0.3-0.188-1.261-0.188-1.261
		c-0.035-1.136-0.312-1.628-0.312-1.628c-0.48-0.77-0.57-2.2-0.57-2.2l-0.021-2.419c-0.167-1.65-1.386-1.662-1.386-1.662
		c-1.229-0.184-1.399-0.58-1.399-0.58c-0.261-0.374-0.112-1.093-0.112-1.093c0.217-0.177,0.299-0.642,0.299-0.642
		c0.358-0.274,0.342-0.678,0.178-0.674c-0.135,0.004-0.104-0.106-0.104-0.106C26.733,10.091,25.126,10,25.126,10H24.88
		c0,0-1.609,0.092-1.385,1.902c0,0,0.03,0.11-0.104,0.106c-0.165-0.004-0.181,0.398,0.177,0.674c0,0,0.083,0.465,0.299,0.642
		c0,0,0.148,0.719-0.112,1.093c0,0-0.171,0.396-1.4,0.58c0,0-1.218,0.012-1.385,1.662l-0.022,2.419c0,0-0.089,1.433-0.57,2.2
		c0,0-0.279,0.492-0.312,1.628c0,0-0.081,0.961-0.19,1.261c-0.065,0.176-0.293,0.475-0.471,0.695
		c-0.349,0.437-0.938,1.346-0.625,1.449c0,0,0.245,0.022,0.568-0.619c0,0-0.006,0.248-0.267,0.964
		c-0.049,0.135-0.266,0.812,0.084,0.569c0,0,0.162-0.113,0.374-0.812c0,0-0.114,1.177,0.011,1.236
		c0.165,0.08,0.255-0.151,0.33-1.185c0,0,0.076-0.332,0.111,0.938c0.002,0.065,0.1,0.392,0.233,0.115
		c0.112-0.234,0.062-0.855,0.062-1.062c0,0,0.145,0.803,0.28,0.803c0,0,0.159,0.188,0.095-0.809
		c-0.011-0.163,0.044-0.498,0.052-0.596l0.015-0.384c0,0-0.04-0.438-0.04-0.621c0-0.045,0.157-0.642,0.571-1.271
		c0,0,0.859-1.523,0.804-2.521c0,0-0.012-0.951,0.334-1.488c0,0,0.246,2.693,0.079,3.449c0,0-0.773,1.856-0.603,3.243
		c0.126,1.03,0.369,3.234,0.615,4.104c0.127,0.447,0.051,1.585,0.156,1.867c0.045,0.121,0.022,0.234-0.078,0.517
		c-0.348,0.978-0.304,1.662,0.569,4.252c0,0,0.268,0.573,0.133,1.604c0,0-0.558,1.146-0.2,1.17c0,0,0.03,0.076,0.149,0.016
		c0,0,0.192,0.198,0.401,0.092c0,0,0.193,0.152,0.358,0.016c0,0,0.134,0.151,0.327,0.031c0,0,0.253,0.168,0.403-0.017
		c0,0,0.268,0.062-0.209-1.146c0,0-0.183-1.278-0.283-1.528c-0.191-0.479-0.056-1.781-0.015-2.062
		c0.067-0.467,0.032-1.265-0.089-1.881c-0.087-0.44,0.151-1.276,0.238-1.787c0.183-1.079,0.536-3.837,0.492-4.354l0.146,0.05
		c0.106,0,0.174-0.05,0.174-0.05c-0.044,0.52,0.308,3.275,0.491,4.354c0.086,0.511,0.324,1.347,0.238,1.787
		c-0.121,0.616-0.158,1.414-0.09,1.881c0.042,0.28,0.178,1.584-0.015,2.062c-0.101,0.25-0.283,1.528-0.283,1.528
		c-0.477,1.207-0.209,1.146-0.209,1.146c0.149,0.185,0.401,0.017,0.401,0.017c0.193,0.12,0.328-0.031,0.328-0.031
		c0.164,0.139,0.357-0.016,0.357-0.016c0.209,0.106,0.4-0.092,0.4-0.092c0.119,0.062,0.148-0.016,0.148-0.016
		c0.357-0.022-0.199-1.17-0.199-1.17c-0.135-1.03,0.135-1.604,0.135-1.604c0.873-2.59,0.916-3.274,0.568-4.252
		c-0.101-0.279-0.123-0.396-0.078-0.517c0.104-0.282,0.027-1.42,0.155-1.867c0.246-0.869,0.488-3.073,0.614-4.104
		c0.169-1.386-0.604-3.243-0.604-3.243c-0.168-0.756,0.078-3.449,0.078-3.449c0.348,0.537,0.334,1.488,0.334,1.488
		c-0.056,0.996,0.805,2.521,0.805,2.521c0.414,0.631,0.57,1.229,0.57,1.271c0,0.183-0.039,0.621-0.039,0.621l0.016,0.383
		c0.007,0.098,0.062,0.433,0.052,0.596c-0.063,0.996,0.095,0.809,0.095,0.809c0.135,0,0.28-0.803,0.28-0.803
		c0,0.207-0.05,0.828,0.062,1.062c0.136,0.274,0.231-0.05,0.233-0.115c0.035-1.271,0.111-0.938,0.111-0.938
		c0.073,1.031,0.165,1.265,0.329,1.185c0.125-0.062,0.012-1.236,0.012-1.236c0.212,0.697,0.374,0.812,0.374,0.812
		c0.351,0.243,0.133-0.437,0.084-0.569c-0.261-0.716-0.269-0.964-0.269-0.964c0.324,0.644,0.568,0.619,0.568,0.619
		C31.539,26.209,30.946,25.299,30.601,24.863z M25.797,12.71c-0.174,0.012-0.153,0.333-0.153,0.333
		c-0.029,0.25-0.138,0.25-0.138,0.25c-0.105,0.009-0.102-0.153-0.102-0.153c-0.004-0.153-0.027-0.172-0.027-0.172l-0.068,0.209
		c-0.021,0.159-0.142,0.121-0.142,0.121l-0.104-0.32l-0.071,0.123c-0.029,0.23-0.104,0.186-0.104,0.186
		c-0.133,0.013-0.113-0.196-0.113-0.196c0.004-0.181-0.075-0.104-0.075-0.104c-0.013,0.3-0.083,0.304-0.083,0.304
		c-0.138,0.023-0.151-0.134-0.151-0.134c-0.038-0.45-0.141-0.441-0.141-0.441l-0.343-0.034c-0.254-0.1-0.175-0.369-0.095-0.453
		c0.099-0.104,0.083-0.252,0.083-0.252c-0.163-0.5-0.056-0.859-0.056-0.859c0.219-0.708,0.781-0.801,1.126-0.796
		c0.382,0.007,0.561,0.092,0.715,0.192c0.479,0.309,0.495,0.93,0.409,1.246c-0.058,0.211-0.011,0.406-0.011,0.406
		c0.173,0.205,0.104,0.363,0.104,0.363C26.204,12.775,25.797,12.71,25.797,12.71z"/>
</g>
</svg>
