<?xml version="1.0" encoding="utf-8"?>
<!-- Generator: Adobe Illustrator 16.0.4, SVG Export Plug-In . SVG Version: 6.00 Build 0)  -->
<!DOCTYPE svg PUBLIC "-//W3C//DTD SVG 1.1//EN" "http://www.w3.org/Graphics/SVG/1.1/DTD/svg11.dtd">
<svg version="1.1" id="Layer_1" xmlns="http://www.w3.org/2000/svg" xmlns:xlink="http://www.w3.org/1999/xlink" x="0px" y="0px"
	 width="50px" height="50px" viewBox="0 0 50 50" enable-background="new 0 0 50 50" xml:space="preserve">
<path d="M34.141,28.546c-0.229-0.229-0.637-0.229-0.865,0l-0.858,0.858L28.015,25l4.402-4.404l0.858,0.859
	c0.114,0.115,0.27,0.179,0.432,0.179s0.318-0.064,0.434-0.179l3.182-3.182c0.239-0.239,0.239-0.625,0-0.865l-4.729-4.73
	c-0.114-0.115-0.27-0.179-0.433-0.179s-0.318,0.064-0.432,0.179l-3.183,3.182c-0.114,0.115-0.179,0.27-0.179,0.432
	c0,0.163,0.064,0.318,0.179,0.433l0.857,0.856l-4.404,4.404l-4.402-4.401l0.857-0.859c0.239-0.239,0.239-0.625,0-0.865l-3.182-3.181
	c-0.239-0.239-0.625-0.239-0.865,0l-4.729,4.729c-0.239,0.239-0.239,0.626,0,0.865l3.182,3.184c0.229,0.229,0.636,0.229,0.865,0
	l0.856-0.858L21.983,25l-4.402,4.402l-0.856-0.858c-0.114-0.115-0.27-0.179-0.432-0.179s-0.318,0.063-0.433,0.179l-3.182,3.183
	c-0.239,0.238-0.239,0.625,0,0.864l4.729,4.729c0.12,0.119,0.276,0.179,0.433,0.179c0.156,0,0.313-0.06,0.432-0.179l3.182-3.182
	c0.239-0.238,0.239-0.626,0-0.865l-0.857-0.858l4.401-4.401l4.405,4.404l-0.857,0.857c-0.238,0.238-0.238,0.625,0,0.865l3.183,3.182
	c0.113,0.115,0.27,0.179,0.432,0.179s0.318-0.063,0.433-0.179l4.729-4.73c0.239-0.238,0.239-0.626,0-0.865L34.141,28.546z
	 M18.016,19.302c-0.229-0.229-0.635-0.229-0.865,0l-0.856,0.857l-2.317-2.318l1.542-1.542l0.729,0.729
	c0.12,0.12,0.276,0.179,0.433,0.179c0.157,0,0.313-0.06,0.433-0.179c0.239-0.239,0.239-0.626,0-0.865l-0.729-0.729l1.458-1.458
	l2.317,2.316l-0.858,0.859c-0.239,0.239-0.239,0.626,0,0.865l4.834,4.833l-1.285,1.285L18.016,19.302z M19.301,32.85l0.858,0.858
	l-2.317,2.315l-1.456-1.457l0.814-0.813c0.239-0.239,0.239-0.626,0-0.865c-0.239-0.239-0.626-0.239-0.865,0l-0.814,0.814
	l-1.543-1.543l2.317-2.317l0.856,0.857c0.115,0.115,0.27,0.179,0.432,0.179c0.163,0,0.318-0.063,0.433-0.179l12.686-12.685
	c0.115-0.115,0.179-0.27,0.179-0.433s-0.063-0.318-0.179-0.433l-0.858-0.856l2.317-2.317l1.543,1.542l-0.729,0.729
	c-0.239,0.239-0.239,0.626,0,0.865c0.119,0.119,0.275,0.179,0.433,0.179c0.156,0,0.313-0.06,0.432-0.179l0.729-0.729l1.458,1.458
	l-2.317,2.317l-0.856-0.859c-0.115-0.115-0.271-0.179-0.434-0.179s-0.317,0.064-0.432,0.179L19.303,31.982
	C19.062,32.223,19.062,32.609,19.301,32.85z M34.568,33.617l-0.814-0.814c-0.238-0.238-0.626-0.238-0.864,0
	c-0.239,0.239-0.239,0.626,0,0.865l0.814,0.814l-1.543,1.543l-2.317-2.316l0.858-0.857c0.115-0.115,0.179-0.271,0.179-0.433
	c0-0.163-0.063-0.317-0.179-0.433l-4.837-4.836l1.286-1.285l4.836,4.837c0.229,0.229,0.635,0.229,0.865,0l0.856-0.859l2.317,2.317
	L34.568,33.617z"/>
</svg>
