<?xml version="1.0" encoding="utf-8"?>
<!-- Generator: Adobe Illustrator 16.0.4, SVG Export Plug-In . SVG Version: 6.00 Build 0)  -->
<!DOCTYPE svg PUBLIC "-//W3C//DTD SVG 1.1//EN" "http://www.w3.org/Graphics/SVG/1.1/DTD/svg11.dtd">
<svg version="1.1" id="Layer_1" xmlns="http://www.w3.org/2000/svg" xmlns:xlink="http://www.w3.org/1999/xlink" x="0px" y="0px"
	 width="50px" height="50px" viewBox="0 0 50 50" enable-background="new 0 0 50 50" xml:space="preserve">
<g>
	<path d="M25,37.323c-4.339,0-7.867-3.528-7.867-7.867c0-3.968,6.342-15.095,7.064-16.353c0.332-0.569,1.271-0.569,1.605,0
		c0.723,1.258,7.064,12.385,7.064,16.353C32.867,33.795,29.34,37.323,25,37.323z M25,15.453c-2.207,3.99-6.018,11.416-6.018,14.003
		c0,3.317,2.699,6.017,6.018,6.017c3.318,0,6.017-2.699,6.017-6.017C31.018,26.867,27.207,19.443,25,15.453z"/>
	<path d="M25,33.621c-0.512,0-0.926-0.414-0.926-0.926S24.489,31.77,25,31.77c1.275,0,2.312-1.033,2.312-2.306
		c0-0.512,0.414-0.926,0.926-0.926c0.514,0,0.928,0.414,0.928,0.926C29.166,31.757,27.297,33.621,25,33.621z"/>
</g>
</svg>
