<?xml version="1.0" encoding="utf-8"?>
<!-- Generator: Adobe Illustrator 16.0.4, SVG Export Plug-In . SVG Version: 6.00 Build 0)  -->
<!DOCTYPE svg PUBLIC "-//W3C//DTD SVG 1.1//EN" "http://www.w3.org/Graphics/SVG/1.1/DTD/svg11.dtd">
<svg version="1.1" id="Layer_1" xmlns="http://www.w3.org/2000/svg" xmlns:xlink="http://www.w3.org/1999/xlink" x="0px" y="0px"
	 width="50px" height="50px" viewBox="0 0 50 50" enable-background="new 0 0 50 50" xml:space="preserve">
<path d="M35.555,19.078c-2.091-3.283-4.472-4.948-7.075-4.948c-1.686,0-2.955,0.726-3.479,1.084
	c-0.525-0.358-1.795-1.084-3.48-1.084c-2.605,0-4.984,1.665-7.075,4.948c-0.915,1.438-3.038,5.875-1.896,9.092
	c0.501,1.411,1.547,2.391,3.107,2.91c0.86,0.287,2.223,0.459,3.643,0.459c0.438,0,1.06-0.023,1.736-0.093l3.584,4.183
	c0.131,0.153,0.317,0.241,0.516,0.241c0.195,0,0.384-0.088,0.514-0.24l3.465-4.043c0.031-0.038,0.049-0.082,0.068-0.125
	c0.604,0.058,1.154,0.077,1.55,0.077c1.399,0,2.749-0.172,3.61-0.459c1.562-0.521,2.607-1.5,3.107-2.91
	C38.594,24.951,36.47,20.515,35.555,19.078z M15.974,30.131c-1.271-0.424-2.084-1.175-2.482-2.295
	c-0.896-2.521,0.627-6.381,1.797-8.221c1.895-2.978,3.99-4.485,6.231-4.485c1.511,0,2.634,0.709,2.979,0.957v13.015
	c-0.658,0.876-2.647,1.438-5.201,1.438C18.001,30.539,16.727,30.383,15.974,30.131z M25.135,34.693l-2.929-3.418
	c1.08-0.213,2.158-0.593,2.845-1.267c0.718,0.71,1.862,1.091,2.985,1.297L25.135,34.693z M36.507,27.835
	c-0.396,1.121-1.209,1.872-2.48,2.296c-0.754,0.252-2.016,0.408-3.294,0.408c-2.638,0-4.687-0.617-5.231-1.57V16.087
	c0.347-0.248,1.47-0.957,2.979-0.957c2.24,0,4.337,1.509,6.23,4.485C35.88,21.454,37.404,25.312,36.507,27.835z M29.354,23.056
	c-0.83-0.059-1.62,0.758-1.628,0.766c-0.187,0.203-0.5,0.218-0.705,0.032c-0.204-0.187-0.22-0.5-0.035-0.705
	c0.046-0.049,1.078-1.175,2.441-1.089c0.815,0.062,1.53,0.554,2.127,1.459c0.151,0.229,0.088,0.539-0.144,0.691
	c-0.084,0.056-0.181,0.082-0.274,0.082c-0.162,0-0.321-0.079-0.418-0.226C30.304,23.437,29.845,23.096,29.354,23.056z
	 M18.005,20.162c-0.215-0.171-0.254-0.483-0.084-0.7c0.045-0.056,1.106-1.315,2.438-1.324c0.762,0.021,1.438,0.442,2.01,1.256
	c0.158,0.227,0.104,0.537-0.121,0.696c-0.227,0.158-0.537,0.104-0.696-0.121c-0.38-0.539-0.788-0.817-1.216-0.831
	c-0.715,0.008-1.412,0.676-1.627,0.942c-0.099,0.125-0.244,0.189-0.393,0.189C18.206,20.27,18.098,20.234,18.005,20.162z
	 M24.023,24.348c0.163,0.224,0.114,0.536-0.108,0.698c-0.222,0.162-0.535,0.115-0.697-0.107c-0.362-0.495-0.747-0.742-1.178-0.758
	c-0.793,0.001-1.605,0.748-1.855,1.049c-0.1,0.118-0.241,0.18-0.385,0.18c-0.112,0-0.227-0.037-0.319-0.115
	c-0.212-0.176-0.241-0.49-0.065-0.702c0.049-0.059,1.184-1.41,2.588-1.41c0.021,0,0.043,0,0.065,0.001
	C22.816,23.205,23.475,23.597,24.023,24.348z M15.468,23.578c-0.1,0.12-0.241,0.182-0.385,0.182c-0.112,0-0.227-0.037-0.318-0.113
	c-0.213-0.178-0.243-0.491-0.066-0.704c0.049-0.06,1.184-1.411,2.588-1.411c0.021,0,0.043,0.001,0.065,0.001
	c0.749,0.022,1.407,0.415,1.956,1.167c0.163,0.223,0.113,0.536-0.107,0.698c-0.224,0.163-0.535,0.113-0.699-0.108
	c-0.362-0.496-0.748-0.744-1.18-0.757c-0.013,0-0.023-0.001-0.037-0.001C16.361,22.53,15.478,23.567,15.468,23.578z M34.282,26.191
	c0.163,0.223,0.114,0.535-0.107,0.697c-0.223,0.163-0.536,0.114-0.698-0.107c-0.362-0.496-0.749-0.743-1.181-0.756
	c-0.946-0.062-1.844,1.036-1.854,1.047c-0.099,0.12-0.24,0.182-0.385,0.182c-0.112,0-0.227-0.037-0.318-0.114
	c-0.213-0.177-0.242-0.49-0.066-0.703c0.049-0.06,1.184-1.411,2.589-1.411c0.022,0,0.044,0,0.065,0.001
	C33.075,25.048,33.733,25.44,34.282,26.191z M28.048,20.383c-0.211-0.176-0.24-0.489-0.064-0.702c0.049-0.059,1.184-1.41,2.59-1.41
	c0.021,0,0.043,0,0.064,0.001c0.749,0.021,1.406,0.415,1.955,1.166c0.162,0.223,0.113,0.535-0.108,0.697s-0.534,0.114-0.698-0.107
	c-0.361-0.495-0.746-0.742-1.176-0.756c-0.013-0.001-0.025-0.001-0.037-0.001c-0.773,0-1.574,0.754-1.82,1.049
	c-0.1,0.119-0.24,0.18-0.385,0.18C28.255,20.498,28.143,20.461,28.048,20.383z M19.98,26.584c0.163,0.223,0.114,0.536-0.108,0.698
	c-0.223,0.163-0.535,0.114-0.697-0.108c-0.363-0.496-0.75-0.743-1.18-0.757c-0.981-0.021-1.847,1.036-1.854,1.048
	c-0.099,0.119-0.241,0.182-0.386,0.182c-0.111,0-0.226-0.038-0.318-0.115c-0.212-0.176-0.242-0.491-0.064-0.704
	c0.049-0.059,1.244-1.487,2.653-1.408C18.773,25.44,19.432,25.833,19.98,26.584z"/>
</svg>
