<?xml version="1.0" encoding="utf-8"?>
<!-- Generator: Adobe Illustrator 16.0.4, SVG Export Plug-In . SVG Version: 6.00 Build 0)  -->
<!DOCTYPE svg PUBLIC "-//W3C//DTD SVG 1.1//EN" "http://www.w3.org/Graphics/SVG/1.1/DTD/svg11.dtd">
<svg version="1.1" id="Layer_1" xmlns="http://www.w3.org/2000/svg" xmlns:xlink="http://www.w3.org/1999/xlink" x="0px" y="0px"
	 width="50px" height="50px" viewBox="0 0 50 50" enable-background="new 0 0 50 50" xml:space="preserve">
<g>
	<path d="M27.916,15.042H25.5v-3.416h2.332c0.277,0,0.5-0.224,0.5-0.5s-0.223-0.5-0.5-0.5h-5.666c-0.275,0-0.5,0.224-0.5,0.5
		s0.225,0.5,0.5,0.5H24.5v3.416h-2.416c-0.277,0-0.5,0.224-0.5,0.5v14.415c0,1.713,1.271,3.122,2.916,3.366v5.551
		c0,0.276,0.225,0.5,0.5,0.5c0.277,0,0.5-0.224,0.5-0.5v-5.551c1.646-0.244,2.916-1.653,2.916-3.366V15.542
		C28.416,15.266,28.193,15.042,27.916,15.042z M27.416,16.042v8.249H25.5v-8.249H27.416z M24.5,16.042v8.249h-1.916v-8.249H24.5z
		 M25,32.374c-1.332,0-2.416-1.084-2.416-2.417v-4.666h4.832v4.666C27.416,31.29,26.332,32.374,25,32.374z"/>
</g>
</svg>
