<?xml version="1.0" encoding="utf-8"?>
<!-- Generator: Adobe Illustrator 16.0.4, SVG Export Plug-In . SVG Version: 6.00 Build 0)  -->
<!DOCTYPE svg PUBLIC "-//W3C//DTD SVG 1.1//EN" "http://www.w3.org/Graphics/SVG/1.1/DTD/svg11.dtd">
<svg version="1.1" id="Layer_1" xmlns="http://www.w3.org/2000/svg" xmlns:xlink="http://www.w3.org/1999/xlink" x="0px" y="0px"
	 width="50px" height="50px" viewBox="0 0 50 50" enable-background="new 0 0 50 50" xml:space="preserve">
<path d="M32.284,12.517c-2.875,0-5.218,2.341-5.218,5.216v7.871c-0.323-0.542-0.694-1.063-1.16-1.529
	c-1.484-1.484-3.457-2.301-5.554-2.301c-2.098,0-4.071,0.817-5.555,2.301c-3.062,3.062-3.062,8.046,0,11.108
	c1.484,1.483,3.457,2.301,5.555,2.301s4.07-0.817,5.554-2.301c0.536-0.537,0.944-1.146,1.294-1.781
	c0.52,2.331,2.598,4.082,5.083,4.082c2.876,0,5.217-2.341,5.217-5.216V17.732C37.501,14.857,35.16,12.517,32.284,12.517z
	 M32.284,14.082c2.014,0,3.651,1.638,3.651,3.652v6.485h-7.304v-6.485C28.632,15.719,30.271,14.082,32.284,14.082z M15.904,25.181
	c1.189-1.187,2.767-1.843,4.448-1.843c1.415,0,2.742,0.488,3.84,1.344l-8.786,8.785C13.493,31.002,13.641,27.443,15.904,25.181z
	 M24.8,34.078c-2.189,2.188-5.857,2.336-8.283,0.493l8.781-8.78C27.21,28.256,27.062,31.813,24.8,34.078z M32.284,35.92
	c-2.015,0-3.652-1.639-3.652-3.652v-6.484h7.304v6.484C35.937,34.281,34.298,35.92,32.284,35.92z"/>
</svg>
