<?xml version="1.0" encoding="utf-8"?>
<!-- Generator: Adobe Illustrator 16.0.4, SVG Export Plug-In . SVG Version: 6.00 Build 0)  -->
<!DOCTYPE svg PUBLIC "-//W3C//DTD SVG 1.1//EN" "http://www.w3.org/Graphics/SVG/1.1/DTD/svg11.dtd">
<svg version="1.1" id="Layer_1" xmlns="http://www.w3.org/2000/svg" xmlns:xlink="http://www.w3.org/1999/xlink" x="0px" y="0px"
	 width="50px" height="50px" viewBox="0 0 50 50" enable-background="new 0 0 50 50" xml:space="preserve">
<g>
	<path d="M25.184,30.396h-0.023h-0.153h-0.03c-9.489-0.08-14.631-6.249-14.846-6.513c-0.144-0.177-0.171-0.421-0.073-0.625
		c0.1-0.206,0.318-0.317,0.537-0.331h0.002c0.48,0,4.3-0.055,7.24-1.832c0.252-0.153,2.531-1.493,4.66-1.493
		c1.099,0,1.949,0.36,2.51,1.056c0.562-0.695,1.412-1.056,2.51-1.056c2.13,0,4.408,1.34,4.661,1.493
		c2.944,1.78,6.773,1.832,7.2,1.832c0.224,0,0.453,0.128,0.551,0.329c0.099,0.202,0.099,0.442-0.04,0.618
		c-0.206,0.264-5.146,6.43-14.67,6.521H25.184z M11.909,24.036c1.797,1.687,6.336,5.165,13.176,5.188
		c6.9-0.023,11.325-3.509,13.056-5.188c-1.593-0.136-4.305-0.569-6.566-1.938c-0.813-0.492-2.582-1.324-4.056-1.324
		c-1.049,0-1.669,0.415-1.952,1.306c-0.152,0.485-0.962,0.485-1.116,0c-0.283-0.891-0.903-1.306-1.952-1.306
		c-1.471,0-3.24,0.832-4.054,1.324C16.188,23.463,13.482,23.898,11.909,24.036z"/>
	<path d="M25,24.811c-4.011,0-7.789-0.221-11.105-0.608c2.813,0.982,6.75,1.596,11.105,1.596c4.356,0,8.292-0.613,11.105-1.596
		C32.789,24.59,29.011,24.811,25,24.811z"/>
</g>
</svg>
