<?xml version="1.0" encoding="utf-8"?>
<!-- Generator: Adobe Illustrator 16.0.4, SVG Export Plug-In . SVG Version: 6.00 Build 0)  -->
<!DOCTYPE svg PUBLIC "-//W3C//DTD SVG 1.1//EN" "http://www.w3.org/Graphics/SVG/1.1/DTD/svg11.dtd">
<svg version="1.1" id="Layer_1" xmlns="http://www.w3.org/2000/svg" xmlns:xlink="http://www.w3.org/1999/xlink" x="0px" y="0px"
	 width="50px" height="50px" viewBox="0 0 50 50" enable-background="new 0 0 50 50" xml:space="preserve">
<g>
	<path d="M36.31,33.306c-0.121-0.114-0.291-0.161-0.454-0.123c-0.066,0.015-1.6,0.345-2.234-1.335
		c-0.146-0.361-3.583-8.9-4.574-10.445c-0.343-0.535-0.688-1.935-0.807-2.739c-0.162-1.102,0.003-4.567,0.004-4.602
		c0.014-0.276-0.199-0.511-0.476-0.523c-0.306-0.026-0.51,0.199-0.522,0.475c-0.009,0.146-0.172,3.599,0.004,4.795
		c0.082,0.554,0.432,2.317,0.955,3.135c0.94,1.466,4.453,10.19,4.483,10.27c0.675,1.775,2.187,2.086,3.101,1.992
		c0.148,0.17,0.287,0.385,0.237,0.556c-0.087,0.293-0.668,0.576-1.03,0.643c-0.606,0.111-1.953,0.032-2.649-0.008
		c-1.241-0.07-2.479-2.092-2.844-2.848c-0.642-1.469-4.271-2.791-4.967-3.031c-1.382-0.562-0.936-2.083-0.312-3.726
		c0.088-0.229,0.166-0.438,0.221-0.608c1.352-4.201-2.855-8.041-3.035-8.202c-0.164-0.149-0.408-0.171-0.598-0.053
		c-0.19,0.118-0.278,0.346-0.218,0.56c0.082,0.293,0.018,1.063-0.04,1.743c-0.076,0.898-0.155,1.827-0.007,2.435
		c0.451,1.852,0.361,3.427,0.323,3.867c-0.056,0.635-0.212,1.607-0.363,2.549c-0.166,1.036-0.338,2.106-0.394,2.826
		c-0.096,1.263,0.19,2.197,0.852,2.779c0.681,0.601,1.558,0.633,2.009,0.597c0.189,0.232,0.235,0.392,0.209,0.464
		c-0.084,0.23-0.766,0.468-1.328,0.525c-0.537,0.063-2.079,0.188-2.777,0.013c-2.114-0.536-2.523-3.11-2.821-4.99
		c-0.068-0.432-0.13-0.819-0.204-1.13c-0.235-0.986-1.704-3.179-1.998-3.612c-0.332-0.928,0.311-1.586,1.321-2.476
		c0.407-0.358,0.791-0.696,1.01-1.062c1.351-2.252-0.885-7.574-1.144-8.174c-0.11-0.255-0.405-0.371-0.657-0.261
		c-0.254,0.109-0.37,0.404-0.261,0.657c0.647,1.499,2.127,5.725,1.204,7.264c-0.14,0.232-0.467,0.521-0.812,0.825
		c-0.941,0.828-2.229,1.963-1.574,3.641l0.054,0.102c0.646,0.944,1.731,2.686,1.885,3.328c0.068,0.29,0.125,0.652,0.189,1.056
		c0.322,2.033,0.81,5.104,3.562,5.803c1.003,0.253,2.925,0.037,3.132,0.013c0.3-0.028,1.813-0.228,2.16-1.178
		c0.188-0.52-0.011-1.086-0.594-1.683c-0.117-0.119-0.294-0.169-0.455-0.142c-0.009,0.004-0.893,0.166-1.452-0.333
		c-0.41-0.363-0.582-1.021-0.511-1.948c0.052-0.679,0.22-1.729,0.384-2.743c0.161-1.003,0.312-1.95,0.371-2.621
		c0.111-1.274-0.019-2.841-0.349-4.189c-0.108-0.449-0.034-1.333,0.032-2.113c0.02-0.233,0.039-0.458,0.054-0.671
		c1.077,1.286,2.689,3.743,1.89,6.231c-0.052,0.159-0.124,0.349-0.204,0.56c-0.497,1.309-1.531,4.029,0.894,5.018
		c1.621,0.562,4.061,1.708,4.41,2.513c0.163,0.338,1.647,3.312,3.742,3.432c0.436,0.025,1.09,0.063,1.705,0.063
		c0.429,0,0.838-0.019,1.135-0.073c0.416-0.076,1.551-0.465,1.811-1.343C37.101,34.65,37.078,34.031,36.31,33.306z"/>
</g>
</svg>
