<?xml version="1.0" encoding="utf-8"?>
<!-- Generator: Adobe Illustrator 16.0.4, SVG Export Plug-In . SVG Version: 6.00 Build 0)  -->
<!DOCTYPE svg PUBLIC "-//W3C//DTD SVG 1.1//EN" "http://www.w3.org/Graphics/SVG/1.1/DTD/svg11.dtd">
<svg version="1.1" id="Layer_1" xmlns="http://www.w3.org/2000/svg" xmlns:xlink="http://www.w3.org/1999/xlink" x="0px" y="0px"
	 width="50px" height="50px" viewBox="0 0 50 50" enable-background="new 0 0 50 50" xml:space="preserve">
<path d="M35.784,18.205c-0.467-2.017-1.831-3.495-3.946-4.278c-1.41-0.521-4.841-0.996-6.351,0.779
	c-4.871-2.887-7.439-1.314-9.166,0.541c-3.812,4.095-2.068,8.22-0.438,10.011c1.179,1.296,1.519,2.046,1.71,2.903
	c0.043,0.189,0.141,0.745,0.145,0.865c0.302,7.132,2.734,7.744,3.315,7.787c0.169,0.049,0.337,0.071,0.498,0.071
	c0.296,0,0.577-0.079,0.832-0.235c1.208-0.741,1.58-3.045,1.907-5.075c0.119-0.734,0.23-1.427,0.359-1.831
	c0.227-0.698,0.412-0.857,0.41-0.881c0.162,0.072,0.436,0.594,0.465,0.8c0.045,0.308,0.078,0.706,0.113,1.153
	c0.187,2.291,0.465,5.746,2.902,5.996c0.173,0.037,0.583,0.076,1.089-0.23c1.149-0.697,1.999-2.693,2.526-5.936l0.078-0.519
	c0.19-1.3,0.453-3.081,1.526-4.21C34.998,24.621,36.495,21.272,35.784,18.205z M33.038,25.229c-1.293,1.358-1.594,3.401-1.791,4.754
	l-0.076,0.504c-0.607,3.728-1.509,4.854-1.992,5.195c-0.254,0.18-0.414,0.153-0.396,0.16c-0.037-0.013-0.075-0.021-0.113-0.023
	c-1.633-0.142-1.873-3.114-2.032-5.084c-0.039-0.473-0.072-0.893-0.119-1.217c-0.049-0.33-0.513-1.582-1.368-1.653
	c-0.922-0.074-1.318,1.165-1.449,1.571c-0.153,0.478-0.266,1.174-0.396,1.979c-0.25,1.545-0.627,3.881-1.443,4.383
	c-0.11,0.069-0.274,0.14-0.572,0.043c-0.049-0.016-0.1-0.022-0.15-0.022c-0.005,0-0.009,0-0.014,0c-0.023,0-2.109-0.252-2.387-6.836
	c-0.01-0.229-0.131-0.877-0.168-1.039c-0.262-1.176-0.789-2.084-1.945-3.357c-0.387-0.424-3.652-4.27,0.43-8.656
	c1.815-1.949,4.463-3.289,10.327,1.299l-3.166,1.584c-0.159,0.08-0.265,0.238-0.274,0.418c-0.012,0.178,0.074,0.349,0.224,0.446
	l2.927,1.927l-2.436,2.65c-0.188,0.203-0.174,0.52,0.029,0.706s0.52,0.175,0.707-0.03l2.833-3.082
	c0.101-0.107,0.146-0.255,0.129-0.399c-0.019-0.146-0.1-0.275-0.222-0.356l-2.693-1.771l3.086-1.545
	c0.151-0.076,0.254-0.225,0.273-0.393s-0.049-0.335-0.18-0.441c-0.805-0.66-1.561-1.221-2.27-1.691
	c1.158-1.163,3.891-0.846,5.142-0.383c1.811,0.67,2.928,1.869,3.319,3.566C35.41,21.022,34.167,24.044,33.038,25.229z"/>
</svg>
