<?xml version="1.0" encoding="utf-8"?>
<!-- Generator: Adobe Illustrator 16.0.4, SVG Export Plug-In . SVG Version: 6.00 Build 0)  -->
<!DOCTYPE svg PUBLIC "-//W3C//DTD SVG 1.1//EN" "http://www.w3.org/Graphics/SVG/1.1/DTD/svg11.dtd">
<svg version="1.1" id="Layer_1" xmlns="http://www.w3.org/2000/svg" xmlns:xlink="http://www.w3.org/1999/xlink" x="0px" y="0px"
	 width="50px" height="50px" viewBox="0 0 50 50" enable-background="new 0 0 50 50" xml:space="preserve">
<path d="M39.164,21.842c-0.467-2.016-1.831-3.494-3.946-4.277c-1.409-0.521-4.84-0.998-6.351,0.779
	c-4.871-2.885-7.439-1.316-9.166,0.541c-3.812,4.094-2.068,8.219-0.438,10.01c1.178,1.297,1.519,2.047,1.709,2.904
	c0.043,0.189,0.141,0.744,0.146,0.865c0.301,7.131,2.733,7.744,3.315,7.787c0.168,0.049,0.336,0.072,0.498,0.072
	c0.295,0,0.576-0.08,0.832-0.236c1.207-0.742,1.579-3.045,1.906-5.076c0.119-0.734,0.23-1.426,0.359-1.83
	c0.226-0.699,0.412-0.857,0.41-0.881c0.162,0.072,0.436,0.594,0.465,0.799c0.046,0.309,0.078,0.707,0.113,1.154
	c0.187,2.291,0.465,5.746,2.902,5.996c0.174,0.037,0.583,0.076,1.089-0.23c1.149-0.697,1.999-2.695,2.526-5.936l0.078-0.518
	c0.191-1.302,0.453-3.082,1.527-4.211C38.378,28.258,39.875,24.91,39.164,21.842z M36.418,28.865
	c-1.293,1.359-1.593,3.402-1.791,4.756l-0.076,0.502c-0.607,3.729-1.509,4.855-1.992,5.195c-0.254,0.18-0.414,0.154-0.396,0.162
	c-0.037-0.015-0.075-0.021-0.113-0.023c-1.633-0.143-1.873-3.115-2.032-5.084c-0.039-0.473-0.072-0.893-0.119-1.219
	c-0.049-0.328-0.512-1.58-1.367-1.652c-0.926-0.072-1.318,1.164-1.449,1.572c-0.152,0.477-0.266,1.172-0.396,1.979
	c-0.25,1.545-0.627,3.881-1.443,4.383c-0.111,0.068-0.275,0.14-0.572,0.043c-0.049-0.016-0.1-0.022-0.15-0.022
	c-0.004,0-0.009,0-0.014,0c-0.025,0-2.109-0.252-2.387-6.836c-0.01-0.229-0.131-0.877-0.167-1.039
	c-0.263-1.176-0.79-2.084-1.946-3.356c-0.387-0.425-3.652-4.271,0.43-8.656c1.877-2.016,4.645-3.379,10.93,1.783
	c0.212,0.174,0.526,0.145,0.704-0.07c0.175-0.213,0.144-0.527-0.069-0.703c-0.806-0.66-1.562-1.221-2.271-1.691
	c1.16-1.164,3.892-0.846,5.143-0.383c1.811,0.67,2.928,1.869,3.32,3.566C38.79,24.66,37.547,27.682,36.418,28.865z M16.819,21.977
	c0,0.277-0.225,0.5-0.5,0.5h-5.166c-0.215,0-0.406-0.137-0.476-0.342c-0.067-0.203,0.003-0.428,0.175-0.559l4.269-3.201
	l-4.036-5.434c-0.135-0.183-0.131-0.431,0.009-0.607c0.14-0.178,0.38-0.24,0.589-0.15l6.182,2.627l1.82-5.004
	c0.071-0.199,0.26-0.33,0.469-0.33c0.009,0,0.017,0,0.024,0.002c0.22,0.011,0.405,0.162,0.46,0.373l1.5,5.834
	c0.068,0.269-0.093,0.539-0.359,0.609c-0.271,0.068-0.539-0.092-0.608-0.359l-1.099-4.27l-1.447,3.982
	c-0.047,0.129-0.145,0.231-0.271,0.287c-0.125,0.055-0.268,0.055-0.395,0.002l-4.973-2.113l3.234,4.355
	c0.164,0.221,0.119,0.53-0.102,0.696l-3.467,2.601h3.666C16.596,21.477,16.819,21.701,16.819,21.977z"/>
</svg>
