<?xml version="1.0" encoding="utf-8"?>
<!-- Generator: Adobe Illustrator 16.0.4, SVG Export Plug-In . SVG Version: 6.00 Build 0)  -->
<!DOCTYPE svg PUBLIC "-//W3C//DTD SVG 1.1//EN" "http://www.w3.org/Graphics/SVG/1.1/DTD/svg11.dtd">
<svg version="1.1" id="Layer_1" xmlns="http://www.w3.org/2000/svg" xmlns:xlink="http://www.w3.org/1999/xlink" x="0px" y="0px"
	 width="50px" height="50px" viewBox="0 0 50 50" enable-background="new 0 0 50 50" xml:space="preserve">
<path d="M30.471,23.532c-0.472-0.174-1.508-0.316-2.086,0.181c-1.213-0.671-2.177-0.573-2.977,0.283
	c-1.29,1.387-0.694,2.79-0.139,3.399c0.336,0.371,0.434,0.578,0.485,0.814c0.011,0.043,0.036,0.184,0.04,0.232
	c0.098,2.301,0.911,2.594,1.203,2.623c0.064,0.018,0.129,0.024,0.191,0.024c0.129,0,0.252-0.034,0.365-0.104
	c0.457-0.279,0.579-1.047,0.688-1.726c0.009-0.052,0.017-0.104,0.024-0.153c0.062,0.739,0.189,1.86,1.07,1.959
	c0.096,0.017,0.27,0.023,0.477-0.102c0.416-0.253,0.707-0.904,0.885-1.993l0.023-0.159c0.055-0.381,0.131-0.9,0.424-1.207
	c0.496-0.522,0.896-1.662,0.682-2.597C31.668,24.312,31.198,23.801,30.471,23.532z M30.627,27.11c-0.45,0.473-0.548,1.149-0.613,1.6
	l-0.021,0.148c-0.2,1.228-0.495,1.461-0.553,1.496c-0.004-0.002-0.008-0.002-0.012-0.002c-0.339-0.028-0.412-0.955-0.447-1.4
	c-0.014-0.152-0.024-0.287-0.039-0.393c-0.024-0.172-0.217-0.656-0.611-0.689c-0.324-0.012-0.521,0.188-0.662,0.631
	c-0.053,0.164-0.09,0.389-0.132,0.646c-0.05,0.311-0.183,1.134-0.365,1.221c-0.034-0.012-0.04-0.016-0.069-0.016
	c-0.002,0-0.006,0-0.011,0s-0.501-0.168-0.575-1.938c-0.002-0.066-0.043-0.296-0.058-0.361c-0.089-0.399-0.272-0.721-0.655-1.142
	c-0.107-0.118-1.018-1.188,0.133-2.427c0.316-0.34,0.949-1.021,2.688,0.231l-0.692,0.349c-0.115,0.058-0.19,0.172-0.199,0.301
	c-0.008,0.129,0.055,0.251,0.162,0.32l0.713,0.471l-0.599,0.65c-0.134,0.146-0.125,0.373,0.021,0.508
	c0.146,0.135,0.375,0.125,0.509-0.021l0.885-0.962c0.071-0.077,0.104-0.183,0.093-0.287c-0.013-0.104-0.072-0.196-0.16-0.256
	l-0.545-0.358l0.646-0.324c0.109-0.057,0.184-0.162,0.197-0.282c0.013-0.12-0.035-0.24-0.129-0.317
	c-0.158-0.13-0.312-0.249-0.463-0.357c0.351-0.111,0.885-0.043,1.158,0.059c0.497,0.186,0.803,0.51,0.908,0.968
	C31.298,25.903,30.939,26.782,30.627,27.11z M34.389,27.06c0-2.156-1.102-4.06-2.77-5.179l0.001-1.321
	c-0.005-1.478-1.207-2.678-2.683-2.678c-0.002,0-0.002,0-0.004,0l-3.031,0.003c1.193-0.759,1.99-2.091,1.99-3.608
	c0-2.357-1.918-4.276-4.277-4.276c-2.358,0-4.277,1.919-4.277,4.276c0,1.521,0.801,2.854,1.999,3.613l-3.048,0.004
	c-1.479,0-2.68,1.205-2.678,2.684v9.042c0,0.198,0.16,0.358,0.359,0.358h3.076v7.342c0,1.478,1.151,2.681,2.566,2.681h4
	c1.416,0,2.568-1.203,2.568-2.681v-4.03C31.605,33.272,34.389,30.485,34.389,27.06z M20.057,14.276c0-1.963,1.598-3.56,3.56-3.56
	c1.963,0,3.56,1.597,3.56,3.56c0,1.962-1.597,3.558-3.56,3.558C21.652,17.834,20.057,16.238,20.057,14.276z M25.615,39.28h-1.68
	c0.022-0.049,0.039-0.1,0.039-0.155V32.56c0-0.197-0.16-0.358-0.359-0.358c-0.198,0-0.359,0.161-0.359,0.358v6.565
	c0,0.056,0.016,0.106,0.039,0.155h-1.68c-1.02,0-1.85-0.881-1.85-1.963v-7.692c0-0.002,0.002-0.004,0.002-0.007
	s-0.002-0.004-0.002-0.008v-6.133c0-0.197-0.16-0.358-0.358-0.358s-0.359,0.161-0.359,0.358v5.78h-2.717v-8.684
	c-0.001-0.522,0.202-1.017,0.571-1.388c0.371-0.371,0.863-0.575,1.388-0.576l10.646-0.012h0.002c1.08,0,1.961,0.881,1.963,1.961
	v0.91c-0.828-0.408-1.758-0.645-2.742-0.645c-3.436,0-6.231,2.795-6.231,6.23c0,3.201,2.429,5.844,5.538,6.19v4.069
	C27.464,38.399,26.635,39.28,25.615,39.28z M28.157,32.569c-3.039,0-5.513-2.473-5.513-5.512s2.474-5.513,5.513-5.513
	c3.04,0,5.512,2.474,5.512,5.513C33.669,30.099,31.197,32.569,28.157,32.569z"/>
</svg>
