<?xml version="1.0" encoding="utf-8"?>
<!-- Generator: Adobe Illustrator 16.0.4, SVG Export Plug-In . SVG Version: 6.00 Build 0)  -->
<!DOCTYPE svg PUBLIC "-//W3C//DTD SVG 1.1//EN" "http://www.w3.org/Graphics/SVG/1.1/DTD/svg11.dtd">
<svg version="1.1" id="Layer_1" xmlns="http://www.w3.org/2000/svg" xmlns:xlink="http://www.w3.org/1999/xlink" x="0px" y="0px"
	 width="50px" height="50px" viewBox="0 0 50 50" enable-background="new 0 0 50 50" xml:space="preserve">
<g>
	<path d="M35.784,18.205c-0.468-2.017-1.831-3.495-3.946-4.278c-1.41-0.521-4.841-0.997-6.352,0.779
		c-4.871-2.886-7.439-1.314-9.166,0.541c-3.812,4.095-2.068,8.22-0.438,10.011c1.178,1.296,1.519,2.046,1.71,2.903
		c0.043,0.189,0.14,0.745,0.145,0.864c0.301,7.133,2.733,7.744,3.315,7.788c0.169,0.048,0.336,0.071,0.498,0.071
		c0.296,0,0.577-0.079,0.832-0.235c1.208-0.741,1.58-3.045,1.907-5.075c0.119-0.734,0.23-1.428,0.36-1.831
		c0.225-0.698,0.411-0.857,0.409-0.882c0.162,0.073,0.436,0.595,0.466,0.801c0.045,0.308,0.077,0.706,0.113,1.153
		c0.187,2.291,0.465,5.746,2.902,5.995c0.173,0.037,0.584,0.076,1.089-0.229c1.148-0.697,1.999-2.694,2.525-5.936l0.079-0.519
		c0.19-1.3,0.452-3.081,1.526-4.21C34.998,24.621,36.495,21.272,35.784,18.205z M33.038,25.229
		c-1.293,1.359-1.594,3.402-1.791,4.755l-0.076,0.503c-0.607,3.729-1.509,4.855-1.992,5.195c-0.254,0.18-0.414,0.154-0.396,0.161
		l-0.113-0.023c-1.633-0.142-1.873-3.114-2.032-5.084c-0.039-0.473-0.073-0.893-0.12-1.218c-0.048-0.329-0.512-1.581-1.367-1.652
		c-0.919-0.062-1.318,1.163-1.449,1.571c-0.153,0.478-0.266,1.173-0.396,1.979c-0.25,1.545-0.627,3.881-1.444,4.383
		c-0.11,0.068-0.275,0.138-0.572,0.043l-0.151-0.023h-0.013c-0.025,0-2.109-0.252-2.387-6.835c-0.01-0.229-0.131-0.877-0.167-1.04
		c-0.263-1.175-0.79-2.084-1.946-3.356c-0.387-0.424-3.653-4.271,0.43-8.656c1.876-2.015,4.644-3.379,10.93,1.783
		c0.214,0.174,0.527,0.145,0.704-0.069c0.176-0.214,0.145-0.527-0.068-0.704c-0.806-0.66-1.562-1.221-2.271-1.69
		c1.159-1.163,3.892-0.847,5.143-0.383c1.811,0.67,2.928,1.869,3.319,3.565C35.41,21.021,34.167,24.044,33.038,25.229z"/>
</g>
</svg>
