<?xml version="1.0" encoding="utf-8"?>
<!-- Generator: Adobe Illustrator 16.0.4, SVG Export Plug-In . SVG Version: 6.00 Build 0)  -->
<!DOCTYPE svg PUBLIC "-//W3C//DTD SVG 1.1//EN" "http://www.w3.org/Graphics/SVG/1.1/DTD/svg11.dtd">
<svg version="1.1" id="Layer_1" xmlns="http://www.w3.org/2000/svg" xmlns:xlink="http://www.w3.org/1999/xlink" x="0px" y="0px"
	 width="50px" height="50px" viewBox="0 0 50 50" enable-background="new 0 0 50 50" xml:space="preserve">
<path d="M27.499,21.327c-0.534-0.197-1.707-0.359-2.361,0.203c-1.372-0.758-2.463-0.647-3.368,0.32
	c-1.459,1.57-0.785,3.157-0.156,3.849c0.381,0.418,0.49,0.652,0.55,0.922c0.011,0.047,0.041,0.207,0.045,0.264
	c0.11,2.602,1.031,2.934,1.362,2.967c0.073,0.02,0.146,0.029,0.217,0.029c0.146,0,0.286-0.039,0.413-0.119
	c0.517-0.314,0.656-1.184,0.78-1.951c0.01-0.059,0.019-0.117,0.029-0.174c0.069,0.838,0.214,2.105,1.211,2.215
	c0.106,0.02,0.307,0.029,0.538-0.111c0.474-0.287,0.8-1.023,1.002-2.258l0.027-0.182c0.062-0.428,0.147-1.018,0.479-1.365
	c0.562-0.589,1.016-1.88,0.771-2.936C28.854,22.208,28.32,21.63,27.499,21.327z M27.675,25.375c-0.509,0.535-0.62,1.302-0.694,1.81
	l-0.024,0.168c-0.228,1.391-0.56,1.652-0.625,1.693c-0.005-0.002-0.009-0.002-0.015-0.002c-0.383-0.033-0.467-1.082-0.506-1.586
	c-0.016-0.172-0.027-0.324-0.045-0.441c-0.027-0.195-0.244-0.744-0.69-0.783c-0.358-0.021-0.59,0.213-0.75,0.715
	c-0.06,0.186-0.101,0.438-0.149,0.732c-0.056,0.352-0.207,1.281-0.414,1.381c-0.039-0.014-0.045-0.018-0.078-0.018
	c-0.004,0-0.008,0-0.013,0c-0.005-0.002-0.566-0.191-0.651-2.193c-0.003-0.076-0.048-0.336-0.065-0.41
	c-0.101-0.453-0.309-0.814-0.741-1.289c-0.123-0.135-1.152-1.349,0.15-2.746c0.358-0.383,1.074-1.155,3.042,0.262l-0.785,0.395
	c-0.13,0.065-0.215,0.193-0.224,0.34c-0.009,0.146,0.062,0.283,0.182,0.365l0.808,0.529l-0.677,0.737
	c-0.151,0.165-0.141,0.423,0.025,0.573c0.165,0.152,0.422,0.143,0.574-0.023l1-1.087c0.082-0.088,0.119-0.207,0.104-0.326
	c-0.015-0.117-0.08-0.225-0.181-0.289l-0.617-0.406l0.732-0.367c0.123-0.062,0.209-0.184,0.223-0.319
	c0.016-0.136-0.039-0.271-0.146-0.358c-0.179-0.146-0.353-0.281-0.522-0.404c0.396-0.127,1.002-0.049,1.312,0.065
	c0.562,0.208,0.907,0.575,1.027,1.095C28.436,24.009,28.029,25.003,27.675,25.375z M15.644,32.188h18.711
	c0.226,0,0.408-0.182,0.408-0.404V19.845c0-0.225-0.183-0.407-0.408-0.407H15.644c-0.225,0-0.407,0.184-0.407,0.407v11.938
	C15.237,32.006,15.419,32.188,15.644,32.188z M16.051,20.252h17.898v11.123H16.051V20.252z M39.593,16.897H10.406
	c-0.225,0-0.407,0.183-0.407,0.405c0,0.226,0.182,0.407,0.407,0.407h2.39v15.269c0,0.91,0.74,1.65,1.649,1.65h21.11
	c0.908,0,1.648-0.74,1.648-1.65V17.709h2.39c0.226,0,0.407-0.182,0.407-0.407C40,17.08,39.818,16.897,39.593,16.897z M36.391,32.979
	c0,0.461-0.375,0.836-0.836,0.836H14.446c-0.461,0-0.835-0.375-0.835-0.836V17.709h22.78V32.979L36.391,32.979z M10,15.778
	c0-0.225,0.182-0.406,0.407-0.406h29.187c0.225,0,0.407,0.184,0.407,0.406c0,0.226-0.183,0.406-0.407,0.406H10.407
	C10.182,16.186,10,16.003,10,15.778z"/>
</svg>
