<?xml version="1.0" encoding="utf-8"?>
<!-- Generator: Adobe Illustrator 16.0.4, SVG Export Plug-In . SVG Version: 6.00 Build 0)  -->
<!DOCTYPE svg PUBLIC "-//W3C//DTD SVG 1.1//EN" "http://www.w3.org/Graphics/SVG/1.1/DTD/svg11.dtd">
<svg version="1.1" id="Layer_1" xmlns="http://www.w3.org/2000/svg" xmlns:xlink="http://www.w3.org/1999/xlink" x="0px" y="0px"
	 width="50px" height="50px" viewBox="0 0 50 50" enable-background="new 0 0 50 50" xml:space="preserve">
<path d="M36.91,29.549l-3.639-0.002c-0.133,0-0.26,0.054-0.354,0.146c-0.094,0.094-0.146,0.221-0.146,0.354
	c0,0.938-0.896,1.701-1.996,1.701h-0.494h-2.734c0.148-0.281,0.24-0.602,0.242-0.947c0.002-0.541-0.209-1.062-0.574-1.428
	c-0.008-0.009-0.019-0.015-0.026-0.021c0.365-0.355,0.599-0.863,0.601-1.434c0.002-0.543-0.209-1.062-0.574-1.43
	c-0.332-0.333-0.768-0.518-1.223-0.518h-0.945c-0.061-0.025-0.128-0.041-0.199-0.041H14.287c-0.441,0-0.8-0.426-0.8-0.948
	c0-0.516,0.353-0.934,0.789-0.941c0.004,0,0.007,0.001,0.011,0.001h10.562c0.007,0,0.013-0.003,0.02-0.004h1.02
	c0.275,0,0.5-0.224,0.5-0.5c0-0.276-0.225-0.5-0.5-0.5H14.287c-0.004,0-0.007,0.001-0.011,0.001
	c-0.436-0.007-0.789-0.427-0.789-0.944c0-0.521,0.358-0.944,0.8-0.944h8.368c0.021,0.001,0.041,0.007,0.062,0.007h2.843
	c0.149,1.047,0.831,1.485,2.243,1.485h2.703c0.277,0,0.5-0.224,0.5-0.5s-0.223-0.5-0.5-0.5h-2.703c-1.215,0-1.275-0.251-1.275-0.979
	c0-0.276-0.225-0.5-0.5-0.5c-0.013,0-0.023,0.006-0.035,0.007c-0.035-0.007-0.068-0.021-0.104-0.021h-3.199
	c-0.428-0.019-0.771-0.431-0.771-0.943c0-0.523,0.356-0.948,0.795-0.951c0.001,0,0.003,0.001,0.004,0.001h8.059
	c1.102,0,1.996,0.801,1.996,1.784v0.857c0,0.134,0.055,0.261,0.146,0.355c0.095,0.093,0.222,0.145,0.354,0.145
	c0.001,0,0.003,0,0.004,0l3.743-0.03c0.276-0.002,0.498-0.228,0.496-0.504c-0.002-0.275-0.226-0.496-0.5-0.496
	c-0.001,0-0.003,0-0.003,0l-3.24,0.026V20.04c0-1.535-1.344-2.784-2.996-2.784h-4.878c-0.003,0-0.006-0.002-0.01-0.002h-3.171
	c-0.992,0-1.8,0.876-1.8,1.952c0,0.344,0.09,0.663,0.234,0.943h-6.865c-0.992,0-1.8,0.872-1.8,1.944
	c0,0.575,0.236,1.088,0.605,1.445c-0.369,0.356-0.605,0.868-0.605,1.443c0,1.074,0.808,1.947,1.8,1.947h4.471
	c-0.16,0.291-0.258,0.625-0.258,0.988c0,0.574,0.235,1.086,0.603,1.442c-0.367,0.356-0.603,0.867-0.603,1.44
	c0,1.074,0.808,1.947,1.8,1.947h0.078h9.904h0.494c1.463,0,2.685-0.949,2.944-2.201l3.189,0.002c0.276,0,0.5-0.225,0.5-0.5
	C37.408,29.771,37.187,29.549,36.91,29.549z M19.5,27.918c0-0.521,0.358-0.944,0.8-0.944h5.589c0.002,0,0.003-0.001,0.005-0.001
	h0.101c0.24,0,0.412,0.121,0.514,0.223c0.181,0.182,0.283,0.443,0.283,0.721c-0.002,0.516-0.357,0.935-0.795,0.941h-0.002h-4.29
	c-0.002,0-0.003,0.001-0.005,0.001H20.3c-0.008,0-0.015,0.002-0.022,0.002C19.846,28.844,19.5,28.431,19.5,27.918z M19.5,30.801
	c0-0.51,0.347-0.924,0.777-0.938c0.008,0,0.015,0.002,0.022,0.002h4.55c0.01,0,0.019-0.005,0.029-0.006h1.106
	c0.005,0,0.009-0.001,0.015-0.001c0.237,0.002,0.406,0.121,0.508,0.221c0.181,0.182,0.283,0.443,0.283,0.721
	c-0.002,0.521-0.363,0.943-0.806,0.943h-5.589c-0.01,0-0.019,0.006-0.029,0.006h-0.067C19.857,31.748,19.5,31.324,19.5,30.801z"/>
</svg>
