<?xml version="1.0" encoding="utf-8"?>
<!-- Generator: Adobe Illustrator 16.0.4, SVG Export Plug-In . SVG Version: 6.00 Build 0)  -->
<!DOCTYPE svg PUBLIC "-//W3C//DTD SVG 1.1//EN" "http://www.w3.org/Graphics/SVG/1.1/DTD/svg11.dtd">
<svg version="1.1" id="Layer_1" xmlns="http://www.w3.org/2000/svg" xmlns:xlink="http://www.w3.org/1999/xlink" x="0px" y="0px"
	 width="50px" height="50px" viewBox="0 0 50 50" enable-background="new 0 0 50 50" xml:space="preserve">
<g>
	<path d="M32.751,23.957c-0.344-0.299-1.49-0.531-2.687-0.701v-6.986c0-1.155-0.903-2.098-2.014-2.098
		c-0.393,0-0.757,0.123-1.066,0.326c-0.229-0.902-1.02-1.574-1.966-1.574c-1.123,0-2.037,0.941-2.037,2.098v4.308
		c-0.314-0.203-0.683-0.326-1.081-0.326c-0.604,0-1.142,0.279-1.516,0.711c-0.374-0.432-0.912-0.711-1.517-0.711
		c-1.086,0-1.969,0.883-2.026,1.988l-0.011,0.053v0.056v2.053v1.187v4.248v1.242c0,4.27,3.359,7.248,8.17,7.248
		c4.811,0,8.17-2.979,8.17-7.248V24.79C33.171,24.466,32.92,24.101,32.751,23.957z M28.052,15.171c0.56,0,1.013,0.492,1.013,1.098
		v6.859c-0.422-0.049-0.83-0.09-1.176-0.123c-0.324-0.035-0.6-0.027-0.851-0.002v-5.846l0.019-0.092v-0.896
		C27.105,15.613,27.525,15.171,28.052,15.171z M21.9,20.001c0.572,0,1.038,0.492,1.038,1.098v3.295l0.01,0.049
		c-0.053,0.554-0.48,0.992-1.017,0.992c-0.552,0-0.995-0.461-1.026-1.037l0.001-0.004v-0.057v-3.238v-0.08l-0.014-0.069
		C20.964,20.417,21.379,20.001,21.9,20.001z M18.868,20.001c0.522,0,0.938,0.418,1.01,0.949l-0.015,0.148v3.463
		c-0.101,0.494-0.497,0.873-0.994,0.873c-0.572,0-1.038-0.492-1.038-1.099V23.15v-2.051C17.831,20.494,18.296,20.001,18.868,20.001z
		 M32.171,29.828c0,3.678-2.948,6.248-7.17,6.248c-4.222,0-7.17-2.57-7.17-6.248v-1.242v-2.453c0.305,0.188,0.657,0.303,1.038,0.303
		c0.613,0,1.157-0.287,1.531-0.729c0.374,0.441,0.918,0.729,1.532,0.729c1.123,0,2.037-0.941,2.037-2.098v-1.529l0.013-0.062v-7.726
		c0-0.604,0.465-1.098,1.037-1.098c0.572,0,1.038,0.492,1.038,1.098v1.058l-0.019,0.19v7.054c-0.377,0.241-0.589,0.579-0.706,0.899
		c-0.386,1.055,0.184,2.241,1.311,2.653l3.192,0.883c0.265,0.07,0.541-0.084,0.615-0.35c0.073-0.266-0.083-0.541-0.351-0.615
		l-3.151-0.869c-0.57-0.211-0.874-0.819-0.677-1.358c0.041-0.112,0.115-0.307,0.364-0.44l0.179-0.076
		c0.219-0.067,0.524-0.1,0.973-0.047c1.812,0.166,3.979,0.488,4.303,0.705l0.081,0.082V29.828L32.171,29.828z"/>
</g>
</svg>
