<?xml version="1.0" encoding="utf-8"?>
<!-- Generator: Adobe Illustrator 16.0.4, SVG Export Plug-In . SVG Version: 6.00 Build 0)  -->
<!DOCTYPE svg PUBLIC "-//W3C//DTD SVG 1.1//EN" "http://www.w3.org/Graphics/SVG/1.1/DTD/svg11.dtd">
<svg version="1.1" id="Layer_1" xmlns="http://www.w3.org/2000/svg" xmlns:xlink="http://www.w3.org/1999/xlink" x="0px" y="0px"
	 width="50px" height="50px" viewBox="0 0 50 50" enable-background="new 0 0 50 50" xml:space="preserve">
<path d="M29.544,23.92c-1.172,0-2.174,0.672-2.588,1.618c-0.507-0.383-1.161-0.598-1.955-0.598c-0.795,0-1.45,0.215-1.957,0.6
	c-0.413-0.948-1.415-1.62-2.588-1.62c-1.54,0-2.793,1.156-2.793,2.577c0,1.422,1.253,2.576,2.793,2.576c0.276,0,0.5-0.223,0.5-0.5
	c0-0.031-0.013-0.059-0.019-0.09c0.06-0.097,0.103-0.203,0.103-0.326c0-0.354-0.287-0.641-0.641-0.641
	c-0.285,0-0.52,0.188-0.604,0.442c-0.663-0.231-1.134-0.799-1.134-1.463c0-0.869,0.805-1.577,1.793-1.577s1.793,0.708,1.793,1.577
	c0,0.01,0.005,0.021,0.006,0.028c-0.228,0.479-0.359,1.043-0.359,1.707c0,1.906,1.977,3.752,2.605,4.293v1.513
	c0,0.276,0.224,0.5,0.5,0.5s0.5-0.224,0.5-0.5v-1.511c0.629-0.541,2.604-2.389,2.604-4.295c0-0.664-0.132-1.229-0.358-1.707
	c0.001-0.01,0.006-0.02,0.006-0.028c0-0.869,0.805-1.577,1.793-1.577s1.793,0.708,1.793,1.577c0,0.664-0.471,1.229-1.134,1.463
	c-0.084-0.256-0.317-0.442-0.602-0.442c-0.354,0-0.643,0.286-0.643,0.641c0,0.123,0.043,0.229,0.102,0.326
	c-0.005,0.031-0.018,0.059-0.018,0.09c0,0.277,0.224,0.5,0.5,0.5c1.54,0,2.793-1.154,2.793-2.576
	C32.337,25.077,31.084,23.92,29.544,23.92z M25,31.638c-0.785-0.703-2.104-2.147-2.104-3.404c0-1.896,1.145-2.293,2.104-2.293
	c0.959,0,2.104,0.396,2.104,2.293C27.104,29.485,25.785,30.933,25,31.638z M17.536,31.374c0.095,0.26-0.039,0.547-0.298,0.643
	c-0.058,0.021-0.115,0.029-0.172,0.029c-0.204,0-0.396-0.125-0.471-0.328c-0.919-2.518-1.405-4.621,0.716-8.768
	c2.4-4.689,0.498-6.541,0.416-6.617c-0.2-0.186-0.216-0.502-0.03-0.703c0.183-0.205,0.494-0.223,0.698-0.041
	c0.106,0.096,2.587,2.389-0.192,7.816C16.26,27.2,16.677,29.024,17.536,31.374z M33.404,31.718
	c-0.074,0.203-0.267,0.328-0.471,0.328c-0.057,0-0.114-0.01-0.172-0.029c-0.259-0.096-0.393-0.383-0.298-0.643
	c0.858-2.35,1.275-4.174-0.667-7.969c-2.779-5.428-0.3-7.721-0.193-7.816c0.205-0.182,0.522-0.164,0.706,0.043
	c0.183,0.205,0.165,0.518-0.037,0.703c-0.093,0.084-1.979,1.939,0.415,6.615C34.811,27.097,34.323,29.2,33.404,31.718z"/>
</svg>
