<?xml version="1.0" encoding="utf-8"?>
<!-- Generator: Adobe Illustrator 16.0.4, SVG Export Plug-In . SVG Version: 6.00 Build 0)  -->
<!DOCTYPE svg PUBLIC "-//W3C//DTD SVG 1.1//EN" "http://www.w3.org/Graphics/SVG/1.1/DTD/svg11.dtd">
<svg version="1.1" id="Layer_1" xmlns="http://www.w3.org/2000/svg" xmlns:xlink="http://www.w3.org/1999/xlink" x="0px" y="0px"
	 width="50px" height="50px" viewBox="0 0 50 50" enable-background="new 0 0 50 50" xml:space="preserve">
<path d="M32.937,16.042c-2.088,0-3.834,1.298-4.375,3.055c-0.869-0.818-2.066-1.277-3.561-1.277s-2.689,0.458-3.561,1.277
	c-0.541-1.757-2.287-3.055-4.375-3.055c-2.518,0-4.564,1.878-4.564,4.188c0,2.308,2.048,4.186,4.564,4.186
	c0.248,0,0.451-0.162,0.525-0.383c0.292-0.202,0.495-0.523,0.495-0.905c0-0.618-0.502-1.12-1.12-1.12
	c-0.604,0-1.089,0.481-1.111,1.079c-1.301-0.438-2.23-1.548-2.23-2.856c0-1.689,1.545-3.064,3.441-3.064
	c1.897,0,3.442,1.375,3.442,3.064c0,0.038,0.015,0.07,0.022,0.105c-0.407,0.809-0.641,1.781-0.641,2.924
	c0,3.321,3.623,6.578,4.549,7.354v2.782c0,0.311,0.25,0.562,0.562,0.562s0.562-0.251,0.562-0.562v-2.782
	c0.926-0.777,4.549-4.034,4.549-7.354c0-1.143-0.232-2.115-0.641-2.924c0.008-0.035,0.022-0.068,0.022-0.105
	c0-1.689,1.545-3.064,3.442-3.064c1.896,0,3.441,1.375,3.441,3.064c0,1.308-0.932,2.418-2.23,2.856
	c-0.022-0.598-0.508-1.079-1.111-1.079c-0.618,0-1.12,0.502-1.12,1.12c0,0.382,0.203,0.703,0.495,0.905
	c0.074,0.222,0.277,0.383,0.525,0.383c2.518,0,4.564-1.878,4.564-4.186C37.501,17.92,35.453,16.042,32.937,16.042z M25.069,29.553
	c-0.023-0.003-0.045-0.014-0.068-0.014s-0.045,0.011-0.068,0.014c-1.082-0.955-3.918-3.701-3.918-6.294
	c0-3.755,2.498-4.315,3.986-4.315s3.986,0.561,3.986,4.315C28.987,25.846,26.151,28.598,25.069,29.553z"/>
</svg>
