<?xml version="1.0" encoding="utf-8"?>
<!-- Generator: Adobe Illustrator 16.0.4, SVG Export Plug-In . SVG Version: 6.00 Build 0)  -->
<!DOCTYPE svg PUBLIC "-//W3C//DTD SVG 1.1//EN" "http://www.w3.org/Graphics/SVG/1.1/DTD/svg11.dtd">
<svg version="1.1" id="Layer_1" xmlns="http://www.w3.org/2000/svg" xmlns:xlink="http://www.w3.org/1999/xlink" x="0px" y="0px"
	 width="50px" height="50px" viewBox="0 0 50 50" enable-background="new 0 0 50 50" xml:space="preserve">
<path d="M36.434,33.402c-0.093,0.251-0.33,0.407-0.584,0.407c-0.07,0-0.143-0.012-0.213-0.038c-0.32-0.116-0.486-0.474-0.369-0.796
	c0.652-1.789,1.117-3.357,0.949-5.287c-1.488,0.609-2.943,1.085-4.345,1.435c-0.099,0.056-0.206,0.086-0.312,0.086
	c-0.013,0-0.022-0.009-0.035-0.009c-2.418,0.569-4.688,0.798-6.742,0.798c-5.608,0-9.646-1.632-11.004-2.266
	c-0.155,1.908,0.307,3.468,0.953,5.243c0.117,0.323-0.049,0.68-0.369,0.796c-0.07,0.025-0.143,0.038-0.213,0.038
	c-0.254,0-0.491-0.156-0.584-0.407c-1.25-3.43-1.914-6.292,0.977-11.938c0.828-1.617,1.352-3.134,1.553-4.506
	c0.051-0.338,0.359-0.559,0.704-0.524c0.339,0.051,0.574,0.366,0.524,0.706c-0.223,1.506-0.786,3.151-1.676,4.889
	c-0.885,1.729-1.407,3.157-1.676,4.417c0.276,0.137,1.303,0.616,2.924,1.107c-0.205-0.56-0.238-1.032-0.239-1.069
	c-0.021-0.342,0.241-0.636,0.583-0.655c0.33-0.041,0.634,0.239,0.656,0.581c0,0.012,0.088,1.148,0.836,1.626
	c3.127,0.706,7.552,1.115,12.651-0.094c0.634-0.515,0.718-1.52,0.718-1.53c0.021-0.343,0.309-0.606,0.656-0.583
	c0.342,0.02,0.604,0.313,0.583,0.655c-0.001,0.035-0.034,0.458-0.209,0.975c0.948-0.288,1.908-0.617,2.892-1.029
	c-0.27-1.255-0.791-2.678-1.672-4.4c-0.939-1.836-1.517-3.566-1.709-5.143c-0.043-0.34,0.198-0.651,0.539-0.692
	c0.346-0.044,0.648,0.199,0.691,0.54c0.177,1.432,0.709,3.023,1.583,4.73C38.348,27.11,37.684,29.973,36.434,33.402z M25,25.38
	c0.532,0,0.964-0.432,0.964-0.964c0-0.533-0.432-0.965-0.964-0.965c-0.533,0-0.965,0.432-0.965,0.965S24.467,25.38,25,25.38z"/>
</svg>
