<?xml version="1.0" encoding="utf-8"?>
<!-- Generator: Adobe Illustrator 16.0.4, SVG Export Plug-In . SVG Version: 6.00 Build 0)  -->
<!DOCTYPE svg PUBLIC "-//W3C//DTD SVG 1.1//EN" "http://www.w3.org/Graphics/SVG/1.1/DTD/svg11.dtd">
<svg version="1.1" id="Layer_1" xmlns="http://www.w3.org/2000/svg" xmlns:xlink="http://www.w3.org/1999/xlink" x="0px" y="0px"
	 width="50px" height="50px" viewBox="0 0 50 50" enable-background="new 0 0 50 50" xml:space="preserve">
<g>
	<path d="M24.877,8.299c0,0-11.576-0.516-10.25,17.402c0,0-0.073,14.673,6.489,16.001c0,0-2.875-3.318-2.064-5.679
		c0,0,3.613-0.664,3.098-6.192c0,0-3.024-2.655-3.393-4.498c0,0,0-5.752,0.517-6.489c0,0,2.876,0.221,3.17,0
		c0,0,2.36-2.139,2.876-3.244c0,0,0.442,1.916-0.663,3.098h3.022c0,0,0.959-0.959,1.105-1.991c0,0,0.295,1.844-0.146,2.063h1.771
		c0,0,0.958,5.088,0.736,6.563c0,0-1.695,3.759-3.392,4.422c0,0-0.591,5.68,3.539,6.415c0,0-0.369,5.089-2.877,5.31
		c0,0,4.204,1.106,6.638-7.89c0,0,1.18-12.534-0.394-16.614C34.661,16.977,33.137,9.258,24.877,8.299z"/>
</g>
</svg>
