<?xml version="1.0" encoding="utf-8"?>
<!-- Generator: Adobe Illustrator 16.0.4, SVG Export Plug-In . SVG Version: 6.00 Build 0)  -->
<!DOCTYPE svg PUBLIC "-//W3C//DTD SVG 1.1//EN" "http://www.w3.org/Graphics/SVG/1.1/DTD/svg11.dtd">
<svg version="1.1" id="Layer_1" xmlns="http://www.w3.org/2000/svg" xmlns:xlink="http://www.w3.org/1999/xlink" x="0px" y="0px"
	 width="50px" height="50px" viewBox="0 0 50 50" enable-background="new 0 0 50 50" xml:space="preserve">
<g>
	<path d="M15.029,16.419l0.045-0.052L15.029,16.419z"/>
	<path d="M36.58,18.366c0,0-0.538,1.75-1.066,1.377c0,0-0.093-3.561-0.569-3.881c0,0-0.435,2.178-1.019,2.068
		c0,0,0.118-2.765-0.518-3.298c0,0-1.711,2.757-2.342,1.16c0,0,0.054-1.503,0.39-1.958c-0.393,0.43-1.906,1.891-2.771-0.229
		c0,0-1.489,0.686-1.758,1.162l-0.048-1.328c0,0-2.562,2.965-2.656-0.224l-2.557,1.742c0,0-1.327-0.11-0.208-1.224l1.333-1.108
		c0,0-4.038,0.037-7.14,5.392c0,0-0.465,0.643-0.653-0.17l-0.036-0.205c-0.113-0.817-0.001-1.119,0.066-1.225
		c-0.313,0.377-2.322,3.111-1.378,10.621c0.298,2.379,1.185,9.514,1.185,9.514s1.386-1.27,0.99-8.812c0,0,0.663-6.48,8.617-2.943
		c0,0,5.855-3.057,8.708,1.416c0,0,0.827,5.422,0.278,9.775c0,0,0.209,1.064,0.846,1.385c0,0,0.349-7.754,1.101-9.451
		C35.375,27.922,36.782,21.022,36.58,18.366z"/>
	<path d="M31.456,13.835l0.096-0.11L31.456,13.835z"/>
</g>
</svg>
