<?xml version="1.0" encoding="utf-8"?>
<!-- Generator: Adobe Illustrator 16.0.0, SVG Export Plug-In . SVG Version: 6.00 Build 0)  -->
<!DOCTYPE svg PUBLIC "-//W3C//DTD SVG 1.1//EN" "http://www.w3.org/Graphics/SVG/1.1/DTD/svg11.dtd">
<svg version="1.1" id="Layer_1" xmlns="http://www.w3.org/2000/svg" xmlns:xlink="http://www.w3.org/1999/xlink" x="0px" y="0px"
	 width="32px" height="32px" viewBox="0 0 32 32" enable-background="new 0 0 32 32" xml:space="preserve">
<g>
	<path d="M25.054,22.003c0.252-0.199,0.354-0.534,0.255-0.84c-0.1-0.306-0.379-0.517-0.699-0.529l-5.545-0.227l-1.908-5.151
		c0.347-0.239,0.591-0.622,0.591-1.077c0-0.269-0.099-0.506-0.235-0.714h5.461c0.788,0,1.428-0.64,1.428-1.428V1.67
		c0-0.788-0.64-1.428-1.428-1.428H9.862c-0.788,0-1.428,0.64-1.428,1.428v10.367c0,0.788,0.64,1.428,1.428,1.428h5.46
		c-0.136,0.208-0.235,0.445-0.235,0.714c0,0.455,0.242,0.839,0.593,1.078l-1.909,5.15l-5.544,0.227
		c-0.321,0.013-0.6,0.224-0.699,0.529s0.002,0.641,0.254,0.84l4.353,3.441l-1.499,5.341c-0.087,0.31,0.028,0.64,0.288,0.828
		c0.26,0.189,0.609,0.196,0.877,0.019l4.618-3.073l4.616,3.073c0.268,0.178,0.617,0.171,0.877-0.019
		c0.26-0.188,0.375-0.52,0.288-0.828l-1.498-5.341L25.054,22.003z M9.637,2.146c0-0.387,0.313-0.7,0.7-0.7h12.162
		c0.387,0,0.7,0.313,0.7,0.7v9.416c0,0.387-0.313,0.7-0.7,0.7H10.337c-0.387,0-0.7-0.313-0.7-0.7V2.146z"/>
	<path d="M11.267,9.374c0,0.788,0.64,1.428,1.428,1.428h7.445c0.788,0,1.428-0.64,1.428-1.428V4.333c0-0.788-0.64-1.428-1.428-1.428
		h-7.445c-0.788,0-1.428,0.64-1.428,1.428V9.374z"/>
</g>
</svg>
