<?xml version="1.0" encoding="utf-8"?>
<!-- Generator: Adobe Illustrator 16.0.0, SVG Export Plug-In . SVG Version: 6.00 Build 0)  -->
<!DOCTYPE svg PUBLIC "-//W3C//DTD SVG 1.1//EN" "http://www.w3.org/Graphics/SVG/1.1/DTD/svg11.dtd">
<svg version="1.1" id="Layer_1" xmlns="http://www.w3.org/2000/svg" xmlns:xlink="http://www.w3.org/1999/xlink" x="0px" y="0px"
	 width="32px" height="32px" viewBox="0 0 32 32" enable-background="new 0 0 32 32" xml:space="preserve">
<path d="M21.596,29.327l1.613-13.818c0.05-0.424-0.084-0.85-0.368-1.169c-0.285-0.32-0.69-0.502-1.119-0.502h-4.078
	c-0.112-0.419-0.393-0.771-0.788-0.938V9.975l2.533,1.688c0.2,0.133,0.462,0.128,0.655-0.014c0.195-0.141,0.28-0.388,0.217-0.619
	l-1.005-3.585l2.919-2.307c0.188-0.15,0.265-0.4,0.189-0.629c-0.074-0.228-0.282-0.387-0.523-0.396l-3.717-0.15l-1.293-3.49
	c-0.084-0.225-0.298-0.374-0.538-0.374c-0.241,0-0.455,0.149-0.539,0.374l-1.294,3.49l-3.717,0.15
	c-0.241,0.01-0.449,0.169-0.523,0.396c-0.074,0.229,0.001,0.479,0.189,0.629l2.92,2.307l-1.005,3.585
	c-0.064,0.231,0.021,0.478,0.215,0.618c0.194,0.142,0.456,0.147,0.656,0.015l2.526-1.683v2.945
	c-0.374,0.173-0.642,0.509-0.752,0.913h-4.08c-0.428,0-0.833,0.182-1.117,0.502c-0.285,0.319-0.419,0.745-0.37,1.169l1.614,13.818
	H9.833c-0.947,0-1.715,0.768-1.715,1.715v0.912h16.325v-0.912c0-0.947-0.768-1.715-1.715-1.715H21.596z"/>
</svg>
