<?xml version="1.0" encoding="utf-8"?>
<!-- Generator: Adobe Illustrator 17.0.0, SVG Export Plug-In . SVG Version: 6.00 Build 0)  -->
<!DOCTYPE svg PUBLIC "-//W3C//DTD SVG 1.1//EN" "http://www.w3.org/Graphics/SVG/1.1/DTD/svg11.dtd">
<svg version="1.1" id="Layer_1" xmlns="http://www.w3.org/2000/svg" xmlns:xlink="http://www.w3.org/1999/xlink" x="0px" y="0px"
	 width="32px" height="32px" viewBox="0 0 32 32" enable-background="new 0 0 32 32" xml:space="preserve">
<g>
	<path d="M4.63,15.663c0.062-0.116,0.062-0.256,0-0.374l-1.048-2.027c-0.296-0.572-0.351-1.248-0.151-1.858
		c0.013-0.04,0.035-0.076,0.052-0.116H0.995c-0.291,0-0.56,0.156-0.702,0.41c-0.144,0.253-0.139,0.564,0.012,0.813l1.793,2.965
		l-1.793,2.968c-0.15,0.249-0.155,0.56-0.013,0.813c0.144,0.254,0.411,0.41,0.702,0.41h2.488c-0.017-0.043-0.039-0.078-0.052-0.119
		c-0.199-0.606-0.145-1.283,0.149-1.855L4.63,15.663z"/>
	<path d="M26.448,16.117c-0.208-0.401-0.208-0.881,0-1.282l1.049-2.025c0.173-0.34,0.206-0.734,0.089-1.098
		c-0.119-0.362-0.377-0.662-0.719-0.835l-2.035-1.018c-0.409-0.205-0.69-0.594-0.759-1.044l-0.339-2.251
		c-0.056-0.377-0.264-0.715-0.572-0.94c-0.307-0.226-0.694-0.317-1.069-0.256l-2.25,0.372c-0.449,0.075-0.906-0.072-1.223-0.398
		L17.018,3.72c-0.269-0.271-0.636-0.426-1.016-0.426c-0.008,0-0.016,0.002-0.024,0.002c-0.008,0-0.016-0.002-0.024-0.002
		c-0.38,0-0.747,0.155-1.016,0.426l-1.602,1.622c-0.317,0.326-0.774,0.473-1.223,0.398l-2.25-0.372
		c-0.375-0.061-0.762,0.03-1.069,0.256c-0.308,0.225-0.516,0.563-0.572,0.94L7.883,8.815c-0.069,0.45-0.35,0.839-0.759,1.044
		l-2.035,1.018c-0.342,0.173-0.6,0.473-0.719,0.835c-0.117,0.364-0.084,0.758,0.089,1.098l1.049,2.025
		c0.208,0.401,0.208,0.881,0,1.282l-1.049,2.024c-0.173,0.341-0.206,0.735-0.089,1.099c0.119,0.362,0.377,0.662,0.719,0.834
		l2.035,1.018c0.409,0.206,0.689,0.595,0.759,1.045l0.339,2.251c0.057,0.378,0.265,0.718,0.572,0.939
		c0.308,0.227,0.694,0.316,1.069,0.256l2.251-0.371c0.448-0.076,0.905,0.072,1.223,0.398l1.602,1.623
		c0.269,0.269,0.636,0.424,1.016,0.424c0.008,0,0.015-0.002,0.023-0.002c0.008,0,0.015,0.002,0.023,0.002
		c0.38,0,0.747-0.155,1.016-0.424l1.602-1.623c0.318-0.326,0.775-0.474,1.223-0.398l2.251,0.371c0.375,0.06,0.761-0.029,1.069-0.256
		c0.307-0.221,0.515-0.561,0.572-0.939l0.339-2.251c0.07-0.45,0.35-0.839,0.759-1.045l2.035-1.018
		c0.342-0.172,0.6-0.472,0.719-0.834c0.117-0.364,0.084-0.758-0.089-1.099L26.448,16.117z M16.002,23.942
		c-0.008,0-0.016-0.001-0.024-0.001c-0.008,0-0.016,0.001-0.024,0.001c-4.785,0-8.679-3.894-8.679-8.681
		c0-4.785,3.894-8.679,8.679-8.679c0.008,0,0.016,0.001,0.024,0.001c0.008,0,0.016-0.001,0.024-0.001
		c4.785,0,8.679,3.894,8.679,8.679C24.681,20.048,20.787,23.942,16.002,23.942z"/>
	<path d="M16,7.834c-0.008,0-0.015,0.001-0.022,0.001c-0.008,0-0.015-0.001-0.022-0.001c-4.09,0-7.415,3.327-7.415,7.417
		c0,4.087,3.325,7.413,7.415,7.413c0.007,0,0.015-0.001,0.022-0.001c0.007,0,0.015,0.001,0.022,0.001
		c4.09,0,7.415-3.326,7.415-7.413C23.415,11.161,20.09,7.834,16,7.834z"/>
	<path d="M29.858,15.476l1.793-2.965c0.151-0.249,0.156-0.56,0.012-0.813c-0.142-0.254-0.411-0.41-0.702-0.41h-2.488
		c0.017,0.04,0.039,0.076,0.052,0.116c0.2,0.61,0.145,1.286-0.151,1.858l-1.048,2.027c-0.062,0.118-0.062,0.258,0,0.374l1.051,2.03
		c0.294,0.572,0.348,1.249,0.149,1.855c-0.013,0.041-0.035,0.076-0.052,0.119h2.488c0.291,0,0.558-0.156,0.702-0.41
		c0.142-0.253,0.137-0.564-0.013-0.813L29.858,15.476z"/>
</g>
</svg>
