<?xml version="1.0" encoding="utf-8"?>
<!-- Generator: Adobe Illustrator 16.0.0, SVG Export Plug-In . SVG Version: 6.00 Build 0)  -->
<!DOCTYPE svg PUBLIC "-//W3C//DTD SVG 1.1//EN" "http://www.w3.org/Graphics/SVG/1.1/DTD/svg11.dtd">
<svg version="1.1" id="Layer_1" xmlns="http://www.w3.org/2000/svg" xmlns:xlink="http://www.w3.org/1999/xlink" x="0px" y="0px"
	 width="32px" height="32px" viewBox="0 0 32 32" enable-background="new 0 0 32 32" xml:space="preserve">
<g>
	<path d="M15.518,16.718c-4.161,0-7.544,3.386-7.544,7.544c0,4.162,3.384,7.546,7.544,7.546s7.545-3.384,7.545-7.546
		C23.063,20.104,19.679,16.718,15.518,16.718z M18.552,28.555c0.029,0.103-0.009,0.213-0.096,0.275
		c-0.086,0.063-0.202,0.064-0.291,0.006l-2.647-1.763l-2.647,1.763c-0.088,0.059-0.205,0.057-0.291-0.006
		c-0.086-0.063-0.125-0.173-0.096-0.275l0.859-3.063l-2.496-1.974c-0.083-0.066-0.117-0.178-0.084-0.278
		c0.033-0.102,0.125-0.172,0.232-0.176l3.179-0.129l1.104-2.981c0.037-0.1,0.132-0.166,0.239-0.166s0.202,0.066,0.239,0.166
		l1.105,2.981l3.179,0.129c0.106,0.004,0.199,0.074,0.232,0.176c0.033,0.101,0,0.212-0.084,0.278l-2.496,1.974L18.552,28.555z"/>
	<path d="M15.518,0.188h-0.135c-5.144,0-12.798,2.325-12.798,8.729c0,3.365,2.576,7.488,5.247,10.861
		c0.167-0.285,0.35-0.561,0.547-0.824c-2.64-3.391-4.856-7.149-4.856-10.037c0-5.717,7.093-7.792,11.86-7.792h0.135
		c5.712,0,11.86,2.438,11.86,7.792c0,2.808-2.055,6.492-4.748,10.001c0.198,0.263,0.381,0.536,0.55,0.819
		c2.634-3.368,5.135-7.445,5.135-10.82C28.316,2.92,21.682,0.188,15.518,0.188z"/>
	<path d="M19.782,16.443c2.17-2.83,3.845-5.681,3.845-7.525c0-3.825-7.984-4.04-8.078-4.041h-0.166
		c-1.334,0-8.108,0.704-8.108,4.041c0,2.022,1.972,5.049,3.93,7.555c0.277-0.153,0.561-0.296,0.854-0.42
		c-2.232-2.839-3.847-5.556-3.847-7.135c0-2.148,5.196-3.104,7.171-3.104h0.166c1.417,0.02,7.14,0.633,7.14,3.104
		c0,1.577-1.583,4.283-3.772,7.112C19.214,16.154,19.502,16.29,19.782,16.443z"/>
	<path d="M26.44,8.918c0-5.422-7.112-6.854-10.922-6.854h-0.135c-3.038,0-10.922,1.231-10.922,6.854c0,2.745,2.17,6.273,4.531,9.301
		c0.427-0.462,0.899-0.879,1.414-1.241c-2.193-2.821-4.069-5.891-4.069-8.06c0-4.133,7.136-4.979,9.047-4.979h0.184
		c0.09,0,8.999,0.136,8.999,4.979c0,2.161-1.834,5.211-3.984,8.021c0.518,0.36,0.992,0.775,1.423,1.233
		C24.319,15.155,26.44,11.648,26.44,8.918z"/>
</g>
</svg>
