<?xml version="1.0" encoding="utf-8"?>
<!-- Generator: Adobe Illustrator 16.0.0, SVG Export Plug-In . SVG Version: 6.00 Build 0)  -->
<!DOCTYPE svg PUBLIC "-//W3C//DTD SVG 1.1//EN" "http://www.w3.org/Graphics/SVG/1.1/DTD/svg11.dtd">
<svg version="1.1" id="Layer_1" xmlns="http://www.w3.org/2000/svg" xmlns:xlink="http://www.w3.org/1999/xlink" x="0px" y="0px"
	 width="32px" height="32px" viewBox="0 0 32 32" enable-background="new 0 0 32 32" xml:space="preserve">
<g>
	<rect x="0.153" y="26.365" width="31.701" height="3.938"/>
	<path d="M16.582,8.587c1.344-0.269,2.358-1.454,2.358-2.878c0-1.622-1.315-2.937-2.937-2.937s-2.937,1.314-2.937,2.937
		c0,1.425,1.015,2.61,2.36,2.879L7.773,19.676l-7.62-3.136v8.628h31.701v-8.628l-7.597,3.14L16.582,8.587z M1.054,23.21v-5.138
		l2.568,2.569L1.054,23.21z M16,23.21l-2.568-2.569L16,18.072l2.568,2.569L16,23.21z M30.954,18.072v5.138l-2.568-2.569
		L30.954,18.072z"/>
	<path d="M7.138,17.533l5.226-7.569c-1.227-1.691-3.207-2.803-5.456-2.803c-3.73,0-6.754,3.024-6.754,6.754
		c0,0.266,0.049,0.519,0.078,0.777L7.138,17.533z"/>
	<path d="M31.776,14.692c0.03-0.258,0.078-0.511,0.078-0.777c0-3.73-3.023-6.754-6.754-6.754c-2.249,0-4.229,1.112-5.456,2.803
		l5.227,7.569L31.776,14.692z"/>
</g>
</svg>
