<?xml version="1.0" encoding="utf-8"?>
<!-- Generator: Adobe Illustrator 16.0.0, SVG Export Plug-In . SVG Version: 6.00 Build 0)  -->
<!DOCTYPE svg PUBLIC "-//W3C//DTD SVG 1.1//EN" "http://www.w3.org/Graphics/SVG/1.1/DTD/svg11.dtd">
<svg version="1.1" id="Layer_1" xmlns="http://www.w3.org/2000/svg" xmlns:xlink="http://www.w3.org/1999/xlink" x="0px" y="0px"
	 width="32px" height="32px" viewBox="0 0 32 32" enable-background="new 0 0 32 32" xml:space="preserve">
<g>
	<path d="M26.196,18.16c-3.112,0-5.642,2.531-5.642,5.642c0,3.113,2.53,5.643,5.642,5.643c3.111,0,5.642-2.529,5.642-5.643
		C31.838,20.691,29.307,18.16,26.196,18.16z M28.439,26.922c0.025,0.091-0.008,0.188-0.084,0.243
		c-0.076,0.055-0.179,0.057-0.257,0.005l-1.902-1.267l-1.902,1.267c-0.078,0.052-0.181,0.05-0.257-0.005
		c-0.076-0.056-0.11-0.152-0.084-0.243l0.617-2.199l-1.793-1.42c-0.074-0.059-0.104-0.156-0.074-0.246
		c0.029-0.09,0.111-0.151,0.205-0.155l2.285-0.092l0.793-2.143c0.033-0.088,0.117-0.147,0.211-0.147s0.179,0.06,0.211,0.147
		L27.2,22.81l2.284,0.092c0.094,0.004,0.176,0.065,0.205,0.155c0.029,0.09,0,0.188-0.074,0.246l-1.793,1.42L28.439,26.922z"/>
	<path d="M1.145,3.509C0.568,3.509,0.1,3.977,0.1,4.554V23.86c0,0.577,0.468,1.045,1.045,1.045h18.514
		c-0.061-0.36-0.1-0.727-0.1-1.104c0-0.301,0.027-0.594,0.066-0.884H5.735c0-2.013-1.633-3.647-3.648-3.647V9.224
		c2.015,0,3.648-1.634,3.648-3.648c0-0.027-0.005-0.052-0.006-0.08h20.49c-0.001,0.028-0.006,0.053-0.006,0.08
		c0,2.015,1.633,3.648,3.648,3.648c0.014,0,0.027-0.003,0.042-0.004v9.08c0.809,0.547,1.485,1.271,1.987,2.11V4.554
		c0-0.577-0.468-1.045-1.045-1.045H1.145z"/>
	<rect x="7.818" y="9.261" width="16.353" height="1.986"/>
	<rect x="7.818" y="13.214" width="16.353" height="1.986"/>
	<path d="M7.818,19.152h13.649c0.745-0.757,1.669-1.335,2.703-1.668v-0.318H7.818V19.152z"/>
</g>
</svg>
