<?xml version="1.0" encoding="utf-8"?>
<!-- Generator: Adobe Illustrator 16.0.0, SVG Export Plug-In . SVG Version: 6.00 Build 0)  -->
<!DOCTYPE svg PUBLIC "-//W3C//DTD SVG 1.1//EN" "http://www.w3.org/Graphics/SVG/1.1/DTD/svg11.dtd">
<svg version="1.1" id="Layer_1" xmlns="http://www.w3.org/2000/svg" xmlns:xlink="http://www.w3.org/1999/xlink" x="0px" y="0px"
	 width="32px" height="32px" viewBox="0 0 32 32" enable-background="new 0 0 32 32" xml:space="preserve">
<path d="M30.538,2.918c-0.139-0.485-0.479-0.886-0.938-1.101c-0.456-0.214-0.984-0.221-1.446-0.018
	c-1.437,0.636-3.684,1.479-6.567,2.088l-0.204-1.47c-0.104-0.754-0.716-1.334-1.476-1.398C12.304,0.37,5.95,2.559,2.309,4.247
	L2.237,4.062C2.183,3.926,2.078,3.816,1.943,3.757C1.809,3.699,1.657,3.696,1.52,3.749L0.491,4.152
	C0.353,4.207,0.244,4.312,0.185,4.446C0.126,4.581,0.124,4.733,0.176,4.87l10.305,26.285c0.054,0.137,0.158,0.247,0.293,0.306
	c0.134,0.059,0.286,0.063,0.424,0.008l1.029-0.403c0.283-0.111,0.424-0.433,0.313-0.717L5.551,12.517
	c5.065-2.367,9.676-3.151,12.773-3.349c0,0,0.352,1.743,0.586,2.942c0.12,0.612,0.702,1.017,1.317,0.916
	c3.27-0.532,7.005-1.592,10.745-3.623c0.717-0.39,1.07-1.227,0.846-2.012L30.538,2.918z M21.493,10.379
	c-0.218,0.589-0.769,1.138-1.605,1.603c-0.063,0.035-0.139,0.038-0.202,0.008s-0.11-0.088-0.125-0.158l-0.566-2.704
	c0.538-0.066,2.285-0.083,2.548,0.243C21.673,9.534,21.659,9.922,21.493,10.379z"/>
</svg>
