<?xml version="1.0" encoding="utf-8"?>
<!-- Generator: Adobe Illustrator 16.0.0, SVG Export Plug-In . SVG Version: 6.00 Build 0)  -->
<!DOCTYPE svg PUBLIC "-//W3C//DTD SVG 1.1//EN" "http://www.w3.org/Graphics/SVG/1.1/DTD/svg11.dtd">
<svg version="1.1" id="Layer_1" xmlns="http://www.w3.org/2000/svg" xmlns:xlink="http://www.w3.org/1999/xlink" x="0px" y="0px"
	 width="32px" height="32px" viewBox="0 0 32 32" enable-background="new 0 0 32 32" xml:space="preserve">
<g>
	<path d="M31.891,20.742c0-0.473-0.279-0.87-0.675-1.066v-7.353c0.089-0.034,0.146-0.119,0.144-0.213
		c0-0.095-0.062-0.179-0.149-0.21L16.041,6.548c-0.194-0.069-0.406-0.069-0.601,0L0.271,11.9c-0.089,0.031-0.149,0.115-0.15,0.21
		c-0.001,0.094,0.056,0.179,0.144,0.213l15.148,5.897c0.211,0.081,0.444,0.081,0.655,0l14.102-5.492v6.947
		c-0.396,0.195-0.675,0.594-0.675,1.065c0,0.493,0.3,0.919,0.728,1.102c-0.428,0.847-0.728,2.585-0.728,3.081
		c0,0.661,0.537,1.197,1.198,1.197c0.66,0,1.197-0.536,1.197-1.197c0-0.496-0.3-2.234-0.728-3.081
		C31.591,21.661,31.891,21.234,31.891,20.742z"/>
	<path d="M5.009,15.293c0.001,1.696,0.002,3.693,0.002,4.009c0,3.158,4.753,5.728,10.73,5.89c5.976-0.162,10.729-2.73,10.729-5.89
		c0-0.315,0-2.313,0.002-4.009l-10.405,4.051c-0.211,0.082-0.444,0.082-0.655,0L5.009,15.293z"/>
</g>
</svg>
