<?xml version="1.0" encoding="utf-8"?>
<!-- Generator: Adobe Illustrator 17.0.0, SVG Export Plug-In . SVG Version: 6.00 Build 0)  -->
<!DOCTYPE svg PUBLIC "-//W3C//DTD SVG 1.1//EN" "http://www.w3.org/Graphics/SVG/1.1/DTD/svg11.dtd">
<svg version="1.1" id="Layer_1" xmlns="http://www.w3.org/2000/svg" xmlns:xlink="http://www.w3.org/1999/xlink" x="0px" y="0px"
	 width="32px" height="32px" viewBox="0 0 32 32" enable-background="new 0 0 32 32" xml:space="preserve">
<g>
	<path d="M12.356,25.179l-2.539,0.413c-0.711,0.114-1.4-0.058-1.961-0.468c-0.558-0.402-0.94-1.031-1.043-1.72L6.59,21.922
		l-4.407,4.407c-0.219,0.219-0.299,0.542-0.207,0.838c0.092,0.296,0.34,0.518,0.645,0.575l2.801,0.523l0.523,2.801
		c0.057,0.305,0.278,0.554,0.574,0.646c0.296,0.092,0.62,0.012,0.839-0.208l5.755-5.755l-0.422-0.427
		C12.602,25.231,12.48,25.179,12.356,25.179z"/>
	<path d="M20.394,24.151l2.458,0.404c0.411,0.068,0.833-0.031,1.17-0.278c0.336-0.243,0.562-0.614,0.624-1.026l0.37-2.458
		c0.076-0.492,0.383-0.917,0.829-1.14l2.224-1.112c0.372-0.188,0.656-0.516,0.784-0.912c0.13-0.397,0.093-0.828-0.097-1.199
		l-1.143-2.211c-0.229-0.439-0.229-0.964,0-1.403l1.144-2.211c0.19-0.37,0.226-0.802,0.097-1.199
		c-0.129-0.394-0.412-0.723-0.785-0.911l-2.223-1.112c-0.447-0.224-0.753-0.648-0.829-1.14l-0.37-2.458
		c-0.062-0.412-0.288-0.782-0.624-1.026c-0.337-0.247-0.759-0.346-1.17-0.279l-2.457,0.405c-0.489,0.082-0.987-0.08-1.335-0.434
		l-1.75-1.773c-0.282-0.284-0.663-0.447-1.061-0.459c-0.398,0.013-0.779,0.175-1.061,0.459l-1.75,1.773
		c-0.348,0.354-0.846,0.516-1.335,0.434L9.647,2.48c-0.411-0.067-0.833,0.032-1.17,0.279C8.141,3.003,7.915,3.373,7.853,3.785
		l-0.37,2.458c-0.076,0.492-0.382,0.916-0.829,1.14L4.431,8.495C4.058,8.683,3.775,9.012,3.646,9.406
		c-0.129,0.397-0.093,0.829,0.097,1.199l1.144,2.211c0.229,0.439,0.229,0.964,0,1.403L3.744,16.43
		c-0.19,0.371-0.227,0.802-0.097,1.199c0.128,0.396,0.412,0.724,0.784,0.912l2.224,1.112c0.446,0.223,0.753,0.648,0.829,1.14
		l0.37,2.458c0.062,0.412,0.288,0.783,0.624,1.026c0.337,0.247,0.759,0.346,1.17,0.278l2.458-0.404
		c0.489-0.082,0.987,0.08,1.335,0.435l1.75,1.772c0.281,0.284,0.661,0.446,1.059,0.459c0.398-0.013,0.778-0.175,1.059-0.459
		l1.75-1.772C19.407,24.231,19.905,24.069,20.394,24.151z M16.25,22.761c-5.205-0.026-9.431-4.266-9.431-9.477
		c0-5.21,4.226-9.451,9.431-9.478c5.205,0.026,9.431,4.268,9.431,9.478C25.681,18.495,21.455,22.734,16.25,22.761z"/>
	<path d="M16.25,5.174C11.806,5.202,8.2,8.822,8.2,13.271c0,4.447,3.606,8.068,8.05,8.096c4.444-0.027,8.05-3.648,8.05-8.096
		C24.3,8.822,20.694,5.202,16.25,5.174z"/>
	<path d="M30.317,26.329l-4.407-4.407l-0.223,1.482c-0.103,0.689-0.485,1.318-1.043,1.72c-0.561,0.41-1.25,0.582-1.961,0.468
		l-2.539-0.413c-0.124,0-0.246,0.052-0.335,0.143l-0.422,0.427l5.755,5.755c0.219,0.22,0.543,0.3,0.839,0.208
		c0.296-0.092,0.517-0.341,0.574-0.646l0.523-2.801l2.801-0.523c0.305-0.057,0.553-0.279,0.645-0.575
		C30.616,26.871,30.536,26.548,30.317,26.329z"/>
</g>
</svg>
