<?xml version="1.0" encoding="utf-8"?>
<!-- Generator: Adobe Illustrator 16.0.0, SVG Export Plug-In . SVG Version: 6.00 Build 0)  -->
<!DOCTYPE svg PUBLIC "-//W3C//DTD SVG 1.1//EN" "http://www.w3.org/Graphics/SVG/1.1/DTD/svg11.dtd">
<svg version="1.1" id="Layer_1" xmlns="http://www.w3.org/2000/svg" xmlns:xlink="http://www.w3.org/1999/xlink" x="0px" y="0px"
	 width="32px" height="32px" viewBox="0 0 32 32" enable-background="new 0 0 32 32" xml:space="preserve">
<path d="M31.749,13.886c0.087-0.168,0.08-0.368-0.018-0.529s-0.272-0.26-0.461-0.26h-3.398v-2.944c0-0.299-0.242-0.54-0.54-0.54
	H4.67c-0.298,0-0.54,0.241-0.54,0.54v2.944H0.732c-0.188,0-0.364,0.099-0.461,0.26s-0.104,0.361-0.018,0.529l1.403,2.695
	l-1.403,2.695c-0.087,0.168-0.08,0.368,0.018,0.529s0.273,0.26,0.461,0.26h6.577c0.298,0,0.54-0.241,0.54-0.54v-2.944h16.305v2.944
	c0,0.299,0.242,0.54,0.54,0.54h6.577c0.189,0,0.364-0.099,0.461-0.26s0.104-0.361,0.018-0.529l-1.402-2.695L31.749,13.886z
	 M7.228,19.483L4.13,16.581h3.098V19.483z M24.774,19.483v-2.902h3.098L24.774,19.483z"/>
</svg>
