<?xml version="1.0" encoding="utf-8"?>
<!-- Generator: Adobe Illustrator 16.0.0, SVG Export Plug-In . SVG Version: 6.00 Build 0)  -->
<!DOCTYPE svg PUBLIC "-//W3C//DTD SVG 1.1//EN" "http://www.w3.org/Graphics/SVG/1.1/DTD/svg11.dtd">
<svg version="1.1" id="Layer_1" xmlns="http://www.w3.org/2000/svg" xmlns:xlink="http://www.w3.org/1999/xlink" x="0px" y="0px"
	 width="32px" height="32px" viewBox="0 0 32 32" enable-background="new 0 0 32 32" xml:space="preserve">
<g>
	<path d="M16.492,0.153C9.127,0.175,11.006,7.552,3.793,8.418C2.948,8.52,2.328,9.255,2.368,10.104
		c0.688,14.64,10.7,20.306,13.437,21.586c0.437,0.204,0.939,0.204,1.375,0c2.738-1.281,12.749-6.947,13.437-21.586
		c0.04-0.848-0.582-1.584-1.425-1.686C21.979,7.552,23.857,0.175,16.492,0.153z M17.223,30.364c-0.46,0.232-1.004,0.232-1.464,0
		c-3.05-1.541-11.127-6.761-12.144-19.217C3.549,10.337,4.094,9.602,4.889,9.43c3.357-0.722,4.83-2.856,6.06-4.634
		c1.332-1.928,2.382-3.451,5.543-3.461c3.16,0.01,4.211,1.533,5.543,3.461c1.228,1.778,2.7,3.912,6.057,4.634
		c0.795,0.171,1.342,0.905,1.275,1.715C28.35,23.605,20.269,28.826,17.223,30.364z"/>
	<path d="M21.062,5.466c-1.311-1.897-2.033-2.942-4.563-2.95c-2.545,0.008-3.268,1.053-4.578,2.95
		c-1.186,1.717-2.701,3.913-5.888,4.89c-0.75,0.23-1.226,0.963-1.133,1.743c1.243,10.392,7.719,15.179,10.802,16.895
		c0.49,0.272,1.089,0.273,1.579,0c3.081-1.715,9.56-6.502,10.802-16.895c0.093-0.778-0.384-1.513-1.134-1.743
		C23.763,9.379,22.249,7.184,21.062,5.466z"/>
</g>
</svg>
