<?xml version="1.0" encoding="utf-8"?>
<!-- Generator: Adobe Illustrator 16.0.0, SVG Export Plug-In . SVG Version: 6.00 Build 0)  -->
<!DOCTYPE svg PUBLIC "-//W3C//DTD SVG 1.1//EN" "http://www.w3.org/Graphics/SVG/1.1/DTD/svg11.dtd">
<svg version="1.1" id="Layer_1" xmlns="http://www.w3.org/2000/svg" xmlns:xlink="http://www.w3.org/1999/xlink" x="0px" y="0px"
	 width="32px" height="32px" viewBox="0 0 32 32" enable-background="new 0 0 32 32" xml:space="preserve">
<g>
	<path d="M16.855,16.859c-0.06-0.162-0.213-0.27-0.385-0.27s-0.326,0.107-0.386,0.27l-1.34,3.615l-3.852,0.156
		c-0.172,0.008-0.322,0.121-0.375,0.284c-0.053,0.164,0.001,0.343,0.136,0.45l3.025,2.393l-1.042,3.713
		c-0.046,0.165,0.015,0.342,0.154,0.443s0.327,0.105,0.47,0.01l3.208-2.137l3.209,2.137c0.144,0.096,0.331,0.092,0.47-0.01
		c0.14-0.102,0.201-0.278,0.154-0.443l-1.041-3.713l3.025-2.393c0.135-0.106,0.189-0.286,0.136-0.45
		c-0.053-0.164-0.202-0.276-0.375-0.284l-3.853-0.156L16.855,16.859z"/>
	<polygon points="4.497,0.185 11.122,9.438 13.837,9.438 15.893,6.561 11.312,0.185 	"/>
	<path d="M21.073,13.71v-3.245l7.347-10.28h-6.811L13.18,11.981h6.802v1.23c-1.09-0.428-2.271-0.67-3.512-0.67
		c-1.241,0-2.424,0.243-3.513,0.67v-1.98l0.725-1.089h-1.814v3.568c-2.999,1.634-5.034,4.813-5.034,8.468
		c0,5.322,4.314,9.637,9.637,9.637c5.323,0,9.636-4.314,9.636-9.637C26.107,18.523,24.072,15.344,21.073,13.71z M16.47,30.607
		c-4.648,0-8.428-3.781-8.428-8.43c0-4.646,3.78-8.428,8.428-8.428c4.647,0,8.428,3.781,8.428,8.428
		C24.898,26.826,21.118,30.607,16.47,30.607z"/>
</g>
</svg>
