<?xml version="1.0" encoding="utf-8"?>
<!-- Generator: Adobe Illustrator 16.0.0, SVG Export Plug-In . SVG Version: 6.00 Build 0)  -->
<!DOCTYPE svg PUBLIC "-//W3C//DTD SVG 1.1//EN" "http://www.w3.org/Graphics/SVG/1.1/DTD/svg11.dtd">
<svg version="1.1" id="Layer_1" xmlns="http://www.w3.org/2000/svg" xmlns:xlink="http://www.w3.org/1999/xlink" x="0px" y="0px"
	 width="32px" height="32px" viewBox="0 0 32 32" enable-background="new 0 0 32 32" xml:space="preserve">
<path d="M24.05,26.318c0-1.382-1.121-2.503-2.503-2.503h-4.016v-6.064l5.022,3.346c0.216,0.144,0.498,0.138,0.707-0.015
	c0.209-0.152,0.302-0.418,0.232-0.667l-1.973-7.037l5.733-4.534c0.203-0.161,0.285-0.431,0.205-0.677
	c-0.08-0.246-0.305-0.417-0.563-0.427L19.592,7.44l-2.541-6.852c-0.09-0.243-0.322-0.404-0.581-0.404s-0.49,0.161-0.581,0.404
	L13.35,7.44L6.047,7.739C5.789,7.75,5.564,7.92,5.484,8.167c-0.08,0.246,0.001,0.516,0.205,0.677l5.733,4.534L9.45,20.415
	c-0.07,0.249,0.023,0.516,0.232,0.668c0.209,0.152,0.491,0.158,0.707,0.014l5.023-3.346v6.064h-4.017
	c-1.382,0-2.503,1.121-2.503,2.503v2.122h-2.12v3.469H26.17V28.44h-2.12V26.318z M12.882,12.903L7.875,8.944l8.597,1.579V2.697
	l2.22,5.985l6.377,0.261l-0.042,0.033l-8.555,1.546l-5.272,8.387L12.882,12.903z M25.142,29.467v1.413H7.8v-1.413H25.142z"/>
</svg>
