<?xml version="1.0" encoding="utf-8"?>
<!-- Generator: Adobe Illustrator 16.0.0, SVG Export Plug-In . SVG Version: 6.00 Build 0)  -->
<!DOCTYPE svg PUBLIC "-//W3C//DTD SVG 1.1//EN" "http://www.w3.org/Graphics/SVG/1.1/DTD/svg11.dtd">
<svg version="1.1" id="Layer_1" xmlns="http://www.w3.org/2000/svg" xmlns:xlink="http://www.w3.org/1999/xlink" x="0px" y="0px"
	 width="32px" height="32px" viewBox="0 0 32 32" enable-background="new 0 0 32 32" xml:space="preserve">
<path d="M30.646,17.631c0.539-0.29,1.215-1.538,1.215-1.538s-1.414-0.125-1.953,0.165c-0.053,0.029-0.096,0.072-0.146,0.106
	c0.074-0.503,0.122-1.014,0.142-1.533c0.338,0.091,0.825-0.062,1.178-0.375c0.459-0.406,0.829-1.776,0.829-1.776
	s-1.404,0.204-1.862,0.61c-0.057,0.05-0.097,0.113-0.146,0.17c-0.032-0.538-0.1-1.066-0.191-1.586
	c0.346,0.002,0.777-0.259,1.047-0.638c0.354-0.499,0.405-1.917,0.405-1.917s-1.322,0.516-1.676,1.015
	c-0.037,0.052-0.057,0.112-0.088,0.168c-0.116-0.409-0.252-0.809-0.404-1.202c0.345-0.057,0.726-0.396,0.918-0.827
	c0.252-0.558,0.028-1.959,0.028-1.959s-1.198,0.762-1.449,1.32c-0.028,0.063-0.038,0.131-0.058,0.197
	c-0.213-0.421-0.448-0.83-0.701-1.225c0.314-0.131,0.613-0.513,0.731-0.946c0.162-0.591-0.278-1.939-0.278-1.939
	s-1.064,0.939-1.225,1.53c-0.021,0.075-0.021,0.153-0.03,0.23c-0.329-0.417-0.678-0.816-1.051-1.193
	c0.285-0.193,0.497-0.645,0.514-1.103c0.023-0.611-0.712-1.825-0.712-1.825s-0.822,1.158-0.845,1.769
	c-0.002,0.07,0,0.141,0.007,0.21c-0.307-0.254-0.623-0.497-0.951-0.725c-0.089-0.302-0.331-0.623-0.664-0.824
	c-0.524-0.315-1.941-0.261-1.941-0.261s0.612,1.279,1.136,1.595c0.232,0.14,0.497,0.21,0.742,0.226
	c0.251,0.17,0.498,0.346,0.736,0.533c-0.638,0.068-1.687,0.7-1.687,0.7s1.156,0.821,1.768,0.844
	c0.468,0.017,0.943-0.171,1.149-0.452c0.252,0.253,0.49,0.52,0.721,0.793c-0.643-0.064-1.776,0.302-1.776,0.302
	s0.938,1.063,1.53,1.224c0.461,0.125,0.97,0.042,1.23-0.197c0.187,0.289,0.361,0.585,0.524,0.889
	c-0.611-0.186-1.846,0.008-1.846,0.008s0.761,1.197,1.32,1.447c0.415,0.187,0.909,0.196,1.208,0.029
	c0.101,0.261,0.193,0.527,0.277,0.796c-0.557-0.307-1.825-0.356-1.825-0.356s0.517,1.321,1.016,1.675
	c0.376,0.267,0.867,0.373,1.194,0.26c0.063,0.355,0.111,0.715,0.145,1.08c-0.496-0.411-1.665-0.73-1.665-0.73
	s0.205,1.404,0.612,1.861c0.301,0.34,0.747,0.551,1.089,0.522c-0.013,0.364-0.036,0.726-0.078,1.083
	c-0.36-0.523-1.48-1.134-1.48-1.134s-0.124,1.414,0.167,1.952c0.233,0.434,0.662,0.747,1.02,0.752
	c-0.079,0.317-0.163,0.632-0.264,0.939c-0.256-0.567-1.366-1.352-1.366-1.352s-0.289,1.389-0.063,1.958
	c0.165,0.419,0.508,0.767,0.836,0.86c-0.133,0.282-0.271,0.562-0.423,0.832c-0.145-0.605-1.09-1.583-1.09-1.583
	s-0.543,1.311-0.428,1.912c0.083,0.438,0.349,0.841,0.65,0.998c-0.195,0.265-0.396,0.524-0.611,0.773
	c-0.01-0.617-0.767-1.786-0.767-1.786s-0.786,1.181-0.789,1.792c-0.003,0.454,0.185,0.908,0.458,1.116
	c-0.236,0.215-0.478,0.425-0.729,0.623c0.001-0.011,0.005-0.022,0.006-0.033c0.074-0.608-0.555-1.88-0.555-1.88
	s-0.917,1.082-0.991,1.689c-0.052,0.417,0.067,0.843,0.281,1.094c-0.309,0.189-0.625,0.366-0.951,0.529
	c0.033-0.088,0.062-0.178,0.08-0.271c0.117-0.601-0.42-1.914-0.42-1.914s-0.992,1.015-1.108,1.616
	c-0.081,0.413,0.008,0.846,0.204,1.112c-0.571,0.215-1.164,0.381-1.768,0.517c-0.355-1.17-1.43-2.028-2.716-2.028
	s-2.361,0.857-2.716,2.028c-0.604-0.135-1.197-0.302-1.768-0.517c0.196-0.266,0.285-0.699,0.204-1.112
	c-0.116-0.601-1.108-1.616-1.108-1.616s-0.538,1.313-0.42,1.914c0.018,0.093,0.047,0.183,0.08,0.271
	c-0.326-0.163-0.642-0.34-0.951-0.529c0.213-0.251,0.333-0.677,0.281-1.094c-0.074-0.607-0.991-1.689-0.991-1.689
	s-0.628,1.271-0.555,1.88c0.001,0.011,0.005,0.022,0.006,0.033c-0.251-0.198-0.493-0.407-0.729-0.623
	c0.272-0.208,0.461-0.663,0.458-1.116c-0.003-0.612-0.789-1.792-0.789-1.792s-0.757,1.169-0.767,1.786
	c-0.214-0.249-0.416-0.508-0.611-0.773c0.301-0.157,0.567-0.559,0.65-0.998c0.116-0.602-0.428-1.912-0.428-1.912
	s-0.945,0.979-1.09,1.583c-0.152-0.271-0.29-0.55-0.423-0.832c0.329-0.093,0.671-0.441,0.836-0.86
	c0.226-0.57-0.063-1.958-0.063-1.958s-1.11,0.785-1.366,1.352c-0.102-0.308-0.186-0.622-0.264-0.939
	c0.358-0.005,0.787-0.318,1.02-0.752c0.291-0.539,0.167-1.952,0.167-1.952s-1.121,0.611-1.48,1.134
	c-0.042-0.356-0.065-0.718-0.078-1.083c0.342,0.029,0.788-0.183,1.089-0.522c0.407-0.457,0.612-1.861,0.612-1.861
	s-1.168,0.319-1.665,0.73c0.033-0.364,0.082-0.725,0.145-1.08c0.327,0.113,0.818,0.007,1.194-0.26
	c0.499-0.354,1.016-1.675,1.016-1.675s-1.268,0.049-1.825,0.356c0.084-0.27,0.176-0.535,0.277-0.796
	c0.3,0.167,0.794,0.157,1.208-0.029c0.559-0.25,1.32-1.447,1.32-1.447S5.228,8.003,4.617,8.189C4.781,7.885,4.955,7.588,5.142,7.3
	c0.26,0.238,0.769,0.322,1.23,0.197c0.591-0.161,1.53-1.224,1.53-1.224S6.768,5.907,6.125,5.971c0.231-0.273,0.469-0.54,0.721-0.793
	C7.052,5.459,7.527,5.646,7.995,5.63c0.611-0.022,1.768-0.844,1.768-0.844s-1.049-0.632-1.687-0.7
	C8.314,3.9,8.561,3.724,8.812,3.554c0.245-0.016,0.51-0.086,0.742-0.226c0.524-0.316,1.136-1.595,1.136-1.595
	S9.273,1.678,8.749,1.993C8.416,2.194,8.174,2.515,8.084,2.817C7.756,3.045,7.44,3.288,7.134,3.542
	c0.006-0.07,0.009-0.14,0.007-0.21C7.118,2.72,6.296,1.563,6.296,1.563S5.56,2.776,5.583,3.387C5.6,3.845,5.812,4.297,6.097,4.489
	C5.725,4.867,5.375,5.266,5.046,5.683c-0.01-0.077-0.01-0.155-0.03-0.23c-0.161-0.591-1.225-1.53-1.225-1.53
	s-0.44,1.349-0.278,1.939C3.631,6.296,3.93,6.678,4.245,6.809C3.992,7.204,3.757,7.612,3.544,8.034
	c-0.02-0.066-0.03-0.134-0.058-0.197c-0.251-0.558-1.449-1.32-1.449-1.32S1.813,7.917,2.065,8.475
	c0.193,0.43,0.574,0.77,0.918,0.827c-0.151,0.393-0.288,0.793-0.404,1.202c-0.031-0.056-0.051-0.116-0.088-0.168
	C2.137,9.836,0.815,9.32,0.815,9.32s0.05,1.418,0.405,1.917c0.27,0.378,0.701,0.64,1.047,0.638c-0.092,0.52-0.159,1.048-0.191,1.586
	c-0.049-0.057-0.09-0.12-0.146-0.17c-0.458-0.407-1.862-0.61-1.862-0.61s0.37,1.37,0.829,1.776c0.353,0.313,0.84,0.466,1.178,0.375
	c0.02,0.519,0.067,1.029,0.142,1.533c-0.05-0.034-0.092-0.077-0.146-0.106c-0.539-0.291-1.953-0.165-1.953-0.165
	s0.676,1.248,1.215,1.538c0.386,0.207,0.851,0.25,1.162,0.125c0.1,0.394,0.214,0.78,0.347,1.16c-0.045-0.023-0.083-0.055-0.13-0.073
	c-0.569-0.225-1.958,0.065-1.958,0.065s0.817,1.16,1.387,1.384c0.442,0.175,0.956,0.149,1.241-0.056
	c0.181,0.384,0.376,0.759,0.589,1.124c-0.045-0.013-0.091-0.027-0.137-0.036c-0.601-0.115-1.912,0.429-1.912,0.429
	s1.019,0.988,1.621,1.102c0.473,0.09,0.977-0.036,1.215-0.297c0.257,0.351,0.528,0.689,0.816,1.015
	c-0.039-0.002-0.077-0.008-0.116-0.007c-0.612,0.004-1.793,0.791-1.793,0.791s1.19,0.771,1.802,0.768
	c0.472-0.003,0.941-0.214,1.132-0.507c0.276,0.253,0.559,0.497,0.854,0.728c-0.026,0.002-0.052-0.004-0.078-0.001
	c-0.608,0.075-1.689,0.993-1.689,0.993s1.271,0.629,1.878,0.554c0.503-0.062,0.973-0.361,1.094-0.704
	c0.236,0.147,0.468,0.3,0.713,0.434c-0.601,0.25-1.413,1.042-1.413,1.042S9.27,28.198,9.87,28.08
	c0.485-0.094,0.922-0.413,1.033-0.753c0.724,0.288,1.479,0.512,2.255,0.677c0.105,1.479,1.326,2.649,2.831,2.649
	s2.725-1.17,2.831-2.649c0.776-0.165,1.531-0.389,2.255-0.677c0.11,0.341,0.548,0.659,1.033,0.753
	c0.601,0.118,1.914-0.419,1.914-0.419s-0.812-0.792-1.413-1.042c0.245-0.134,0.477-0.286,0.713-0.434
	c0.121,0.343,0.591,0.642,1.094,0.704c0.607,0.075,1.878-0.554,1.878-0.554s-1.081-0.917-1.689-0.993
	c-0.026-0.003-0.052,0.003-0.078,0.001c0.295-0.231,0.578-0.475,0.854-0.728c0.191,0.293,0.66,0.504,1.132,0.507
	c0.612,0.004,1.802-0.768,1.802-0.768s-1.181-0.787-1.793-0.791c-0.039,0-0.077,0.005-0.116,0.007
	c0.288-0.325,0.559-0.664,0.816-1.015c0.238,0.261,0.742,0.388,1.215,0.297c0.602-0.114,1.621-1.102,1.621-1.102
	s-1.311-0.544-1.912-0.429c-0.046,0.009-0.092,0.023-0.137,0.036c0.213-0.364,0.409-0.739,0.589-1.124
	c0.285,0.205,0.798,0.231,1.241,0.056c0.57-0.224,1.387-1.384,1.387-1.384s-1.389-0.29-1.958-0.065
	c-0.047,0.019-0.085,0.05-0.13,0.073c0.133-0.379,0.247-0.766,0.347-1.16C29.795,17.881,30.26,17.838,30.646,17.631z"/>
</svg>
