<?xml version="1.0" encoding="utf-8"?>
<!-- Generator: Adobe Illustrator 16.0.0, SVG Export Plug-In . SVG Version: 6.00 Build 0)  -->
<!DOCTYPE svg PUBLIC "-//W3C//DTD SVG 1.1//EN" "http://www.w3.org/Graphics/SVG/1.1/DTD/svg11.dtd">
<svg version="1.1" id="Layer_1" xmlns="http://www.w3.org/2000/svg" xmlns:xlink="http://www.w3.org/1999/xlink" x="0px" y="0px"
	 width="32px" height="32px" viewBox="0 0 32 32" enable-background="new 0 0 32 32" xml:space="preserve">
<path d="M16,0.193c-8.729,0-15.807,7.077-15.807,15.808c0,8.729,7.077,15.807,15.807,15.807c8.73,0,15.808-7.077,15.808-15.807
	C31.808,7.271,24.73,0.193,16,0.193z M23.739,16.001c0,4.274-3.464,7.738-7.739,7.738c-4.274,0-7.738-3.464-7.738-7.738
	c0-4.275,3.464-7.739,7.738-7.739C20.275,8.262,23.739,11.726,23.739,16.001z M27.733,20.088c0.501-0.198,1.726,0.058,1.726,0.058
	s-0.72,1.023-1.224,1.22c-0.389,0.155-0.842,0.133-1.092-0.05c-0.162,0.341-0.334,0.67-0.523,0.988
	c0.042-0.01,0.083-0.022,0.123-0.028c0.528-0.102,1.686,0.378,1.686,0.378s-0.9,0.871-1.429,0.971
	c-0.417,0.079-0.86-0.032-1.071-0.262c-0.227,0.311-0.464,0.607-0.72,0.894c0.036-0.001,0.069-0.007,0.103-0.007
	c0.54,0.005,1.581,0.699,1.581,0.699s-1.047,0.678-1.591,0.676c-0.414-0.003-0.828-0.189-0.996-0.447
	c-0.244,0.225-0.495,0.438-0.753,0.643c0.023,0.002,0.048-0.003,0.069-0.001c0.536,0.065,1.487,0.873,1.487,0.873
	s-1.119,0.555-1.655,0.489c-0.441-0.055-0.856-0.319-0.963-0.62c-0.21,0.13-0.414,0.265-0.627,0.381
	c0.527,0.222,1.244,0.919,1.244,0.919s-1.157,0.475-1.688,0.37c-0.425-0.084-0.813-0.363-0.909-0.665
	c-0.64,0.255-1.307,0.453-1.989,0.599c-0.093,1.302-1.168,2.335-2.494,2.335c-1.327,0-2.401-1.033-2.494-2.335
	c-0.685-0.146-1.351-0.345-1.989-0.599c-0.097,0.302-0.483,0.581-0.909,0.665c-0.532,0.104-1.688-0.37-1.688-0.37
	s0.717-0.697,1.244-0.919c-0.213-0.116-0.416-0.251-0.627-0.381c-0.105,0.301-0.518,0.565-0.964,0.62
	c-0.534,0.065-1.654-0.489-1.654-0.489s0.95-0.808,1.487-0.873c0.025-0.002,0.046,0.003,0.069,0.001
	c-0.261-0.205-0.51-0.418-0.753-0.643c-0.17,0.258-0.582,0.444-0.997,0.447c-0.54,0.002-1.59-0.676-1.59-0.676
	s1.041-0.694,1.58-0.699c0.033,0,0.067,0.006,0.104,0.007c-0.255-0.286-0.493-0.583-0.721-0.894
	c-0.21,0.229-0.653,0.341-1.068,0.262c-0.53-0.1-1.43-0.971-1.43-0.971s1.156-0.479,1.686-0.378c0.04,0.006,0.08,0.019,0.121,0.028
	c-0.189-0.318-0.36-0.647-0.521-0.988c-0.25,0.183-0.703,0.205-1.093,0.05c-0.503-0.196-1.222-1.22-1.222-1.22
	s1.223-0.256,1.726-0.058c0.04,0.018,0.074,0.046,0.115,0.064c-0.119-0.336-0.218-0.677-0.308-1.021
	c-0.274,0.11-0.685,0.072-1.022-0.11c-0.475-0.256-1.07-1.354-1.07-1.354s1.244-0.111,1.722,0.146
	c0.046,0.024,0.083,0.064,0.127,0.092c-0.066-0.442-0.105-0.891-0.125-1.35c-0.295,0.079-0.729-0.055-1.038-0.331
	c-0.404-0.356-0.73-1.564-0.73-1.564s1.237,0.179,1.644,0.538c0.046,0.042,0.084,0.098,0.127,0.15
	c0.028-0.477,0.089-0.941,0.169-1.399c-0.305,0.002-0.685-0.229-0.924-0.562c-0.313-0.44-0.357-1.689-0.357-1.689
	s1.164,0.454,1.479,0.895c0.033,0.043,0.051,0.099,0.077,0.148c0.1-0.361,0.223-0.713,0.354-1.06c-0.302-0.05-0.64-0.35-0.81-0.729
	C3.531,10.46,3.73,9.224,3.73,9.224s1.057,0.671,1.277,1.164c0.025,0.055,0.034,0.114,0.052,0.173
	c0.188-0.372,0.396-0.729,0.616-1.078C5.399,9.367,5.137,9.031,5.033,8.648c-0.143-0.52,0.243-1.709,0.243-1.709
	s0.938,0.825,1.08,1.349c0.017,0.064,0.017,0.134,0.027,0.203c0.29-0.368,0.596-0.723,0.927-1.055
	C7.057,7.268,6.871,6.871,6.857,6.465C6.835,5.928,7.485,4.856,7.485,4.856s0.724,1.021,0.745,1.56c0,0.062,0,0.124-0.008,0.187
	c0.271-0.225,0.549-0.439,0.839-0.639c0.079-0.266,0.293-0.551,0.583-0.728c0.463-0.277,1.711-0.228,1.711-0.228
	s-0.539,1.127-1,1.404c-0.204,0.122-0.437,0.186-0.652,0.2C9.48,6.765,9.266,6.919,9.055,7.081c0.561,0.061,1.485,0.618,1.485,0.618
	S9.521,8.424,8.982,8.443C8.569,8.458,8.151,8.292,7.969,8.045C7.748,8.268,7.537,8.503,7.333,8.744
	C7.901,8.688,8.9,9.009,8.9,9.009s-0.829,0.938-1.348,1.08c-0.411,0.109-0.855,0.035-1.086-0.175
	c-0.163,0.254-0.317,0.515-0.462,0.785c0.538-0.165,1.628,0.007,1.628,0.007S6.96,11.76,6.467,11.981
	c-0.363,0.164-0.799,0.171-1.063,0.024c-0.089,0.232-0.171,0.464-0.243,0.703c0.489-0.27,1.607-0.315,1.607-0.315
	s-0.456,1.167-0.896,1.479c-0.331,0.234-0.765,0.327-1.053,0.229c-0.054,0.312-0.097,0.629-0.125,0.948
	c0.438-0.361,1.464-0.64,1.464-0.64s-0.179,1.239-0.537,1.64c-0.265,0.3-0.658,0.487-0.96,0.461c0.01,0.321,0.033,0.639,0.068,0.954
	c0.319-0.462,1.305-1,1.305-1s0.109,1.246-0.146,1.719c-0.203,0.384-0.583,0.658-0.899,0.662c0.071,0.281,0.145,0.56,0.234,0.831
	c0.225-0.503,1.202-1.192,1.202-1.192s0.259,1.223,0.056,1.728c-0.145,0.37-0.447,0.674-0.736,0.756
	c0.118,0.249,0.241,0.496,0.374,0.733c0.127-0.529,0.96-1.394,0.96-1.394s0.479,1.154,0.377,1.683
	c-0.072,0.387-0.309,0.741-0.571,0.88c0.17,0.233,0.349,0.463,0.536,0.682c0.01-0.543,0.675-1.575,0.675-1.575
	s0.694,1.041,0.697,1.583c0.004,0.399-0.165,0.799-0.403,0.983c0.208,0.188,0.422,0.375,0.643,0.549
	c-0.001-0.012-0.005-0.021-0.005-0.03c-0.067-0.536,0.489-1.658,0.489-1.658s0.807,0.954,0.871,1.488
	c0.048,0.371-0.057,0.745-0.248,0.967c0.274,0.165,0.552,0.322,0.838,0.465c-0.024-0.076-0.054-0.155-0.069-0.235
	c-0.104-0.531,0.371-1.688,0.371-1.688s0.874,0.895,0.977,1.424c0.071,0.364-0.007,0.746-0.18,0.98
	c0.505,0.188,1.027,0.336,1.56,0.455c0.312-1.033,1.261-1.787,2.394-1.787c1.134,0,2.082,0.754,2.395,1.787
	c0.532-0.119,1.056-0.268,1.561-0.455c-0.177-0.234-0.255-0.616-0.183-0.98c0.104-0.529,0.978-1.424,0.978-1.424
	s0.475,1.157,0.369,1.688c-0.014,0.08-0.043,0.159-0.069,0.235c0.287-0.143,0.565-0.3,0.837-0.465
	c-0.188-0.222-0.294-0.596-0.247-0.967c0.067-0.534,0.872-1.488,0.872-1.488s0.557,1.122,0.491,1.658
	c-0.002,0.01-0.006,0.019-0.007,0.03c0.221-0.174,0.436-0.361,0.646-0.549c-0.241-0.185-0.409-0.584-0.406-0.983
	c0.003-0.542,0.695-1.583,0.695-1.583s0.669,1.032,0.677,1.575c0.189-0.219,0.366-0.448,0.54-0.682
	c-0.267-0.139-0.503-0.493-0.575-0.88c-0.104-0.528,0.378-1.683,0.378-1.683s0.835,0.864,0.96,1.394
	c0.134-0.237,0.255-0.484,0.373-0.733c-0.29-0.082-0.591-0.386-0.736-0.756c-0.201-0.505,0.055-1.728,0.055-1.728
	s0.979,0.689,1.204,1.192c0.09-0.271,0.164-0.55,0.232-0.831c-0.315-0.004-0.694-0.278-0.898-0.662
	c-0.257-0.473-0.146-1.719-0.146-1.719s0.989,0.538,1.307,1c0.035-0.315,0.056-0.633,0.067-0.954
	c-0.302,0.026-0.693-0.161-0.959-0.461c-0.36-0.4-0.539-1.64-0.539-1.64s1.029,0.278,1.465,0.64
	c-0.027-0.319-0.071-0.637-0.126-0.948c-0.29,0.098-0.72,0.005-1.054-0.229c-0.439-0.312-0.896-1.479-0.896-1.479
	s1.119,0.046,1.611,0.315c-0.075-0.239-0.156-0.471-0.246-0.703c-0.264,0.146-0.699,0.14-1.063-0.024
	c-0.492-0.222-1.163-1.275-1.163-1.275s1.088-0.172,1.626-0.007c-0.145-0.271-0.299-0.531-0.463-0.785
	c-0.229,0.21-0.677,0.284-1.085,0.175c-0.519-0.143-1.349-1.08-1.349-1.08s1-0.321,1.566-0.265
	c-0.203-0.241-0.413-0.477-0.635-0.699c-0.181,0.247-0.602,0.413-1.014,0.398c-0.54-0.02-1.557-0.744-1.557-0.744
	s0.926-0.558,1.487-0.618c-0.214-0.162-0.428-0.316-0.649-0.468c-0.218-0.015-0.449-0.078-0.654-0.2
	c-0.459-0.277-0.999-1.404-0.999-1.404s1.246-0.05,1.71,0.228c0.291,0.177,0.506,0.462,0.584,0.728
	c0.289,0.199,0.567,0.414,0.839,0.639c-0.006-0.063-0.011-0.125-0.008-0.187c0.022-0.539,0.746-1.56,0.746-1.56
	s0.648,1.071,0.628,1.608c-0.015,0.406-0.2,0.803-0.454,0.973c0.33,0.331,0.636,0.686,0.927,1.054
	c0.01-0.069,0.01-0.139,0.026-0.203c0.145-0.523,1.079-1.349,1.079-1.349s0.389,1.189,0.245,1.709
	c-0.104,0.383-0.369,0.719-0.645,0.834c0.224,0.349,0.431,0.706,0.619,1.078c0.017-0.059,0.025-0.118,0.053-0.173
	c0.218-0.493,1.275-1.164,1.275-1.164s0.196,1.236-0.026,1.728c-0.169,0.379-0.505,0.679-0.809,0.729
	c0.133,0.347,0.256,0.698,0.356,1.06c0.027-0.05,0.044-0.105,0.078-0.148c0.313-0.44,1.476-0.895,1.476-0.895
	s-0.043,1.249-0.355,1.689c-0.237,0.332-0.617,0.563-0.922,0.562c0.079,0.458,0.14,0.923,0.168,1.399
	c0.043-0.053,0.079-0.108,0.129-0.15c0.403-0.359,1.64-0.538,1.64-0.538s-0.323,1.208-0.729,1.564
	c-0.31,0.276-0.739,0.41-1.037,0.331c-0.018,0.459-0.06,0.907-0.125,1.35c0.043-0.027,0.082-0.067,0.128-0.092
	c0.475-0.257,1.721-0.146,1.721-0.146s-0.592,1.099-1.069,1.354c-0.342,0.183-0.751,0.221-1.024,0.11
	c-0.089,0.345-0.19,0.686-0.308,1.021C27.657,20.134,27.693,20.105,27.733,20.088z"/>
</svg>
