<?xml version="1.0" encoding="utf-8"?>
<!-- Generator: Adobe Illustrator 16.0.0, SVG Export Plug-In . SVG Version: 6.00 Build 0)  -->
<!DOCTYPE svg PUBLIC "-//W3C//DTD SVG 1.1//EN" "http://www.w3.org/Graphics/SVG/1.1/DTD/svg11.dtd">
<svg version="1.1" id="Layer_1" xmlns="http://www.w3.org/2000/svg" xmlns:xlink="http://www.w3.org/1999/xlink" x="0px" y="0px"
	 width="48px" height="48px" viewBox="0 0 48 48" enable-background="new 0 0 48 48" xml:space="preserve">
<g>
	<path d="M6.194,14.754c2.582-3.942,6.609-6.849,11.32-7.988c0.363-0.087,0.662-0.344,0.802-0.689
		c0.141-0.346,0.107-0.738-0.091-1.055c-1.508-2.404-4.176-4.005-7.224-4.005c-4.712,0-8.533,3.82-8.533,8.532
		c0,2,0.691,3.837,1.845,5.29c0.231,0.293,0.589,0.455,0.962,0.438C5.648,15.26,5.99,15.065,6.194,14.754z"/>
	<path d="M36.999,1.017c-3.034,0-5.693,1.586-7.204,3.974c-0.201,0.316-0.236,0.711-0.094,1.059
		c0.142,0.349,0.443,0.605,0.809,0.691c4.723,1.112,8.765,3.999,11.369,7.928c0.207,0.312,0.552,0.505,0.926,0.518
		c0.375,0.014,0.732-0.154,0.961-0.451c1.106-1.436,1.766-3.232,1.766-5.186C45.531,4.837,41.711,1.017,36.999,1.017z"/>
	<path d="M42.865,27.149c0-3.294-0.857-6.39-2.351-9.084c-2.768-4.99-7.742-8.577-13.594-9.475c-0.933-0.143-1.88-0.24-2.853-0.24
		c-1.016,0-2.006,0.104-2.979,0.26c-5.829,0.935-10.777,4.537-13.516,9.533c-1.467,2.676-2.304,5.744-2.304,9.006
		c0,5.586,2.463,10.596,6.343,14.041l-1.584,2.232c-0.682,0.96-0.456,2.291,0.505,2.974c0.375,0.266,0.806,0.394,1.233,0.394
		c0.668,0,1.326-0.313,1.741-0.898l1.583-2.231c2.669,1.457,5.728,2.287,8.978,2.287c3.249,0,6.308-0.83,8.977-2.287l1.583,2.231
		c0.416,0.586,1.073,0.898,1.741,0.898c0.427,0,0.858-0.128,1.233-0.394c0.96-0.683,1.187-2.014,0.505-2.974l-1.584-2.232
		C40.402,37.745,42.865,32.735,42.865,27.149z M24.067,40.691c-7.468,0-13.542-6.075-13.542-13.542c0-2.328,0.591-4.519,1.629-6.435
		c1.976-3.644,5.58-6.269,9.826-6.93c0.682-0.106,1.375-0.178,2.087-0.178c0.67,0,1.325,0.065,1.97,0.16
		c4.283,0.628,7.925,3.253,9.924,6.913c1.05,1.923,1.648,4.126,1.648,6.469C37.608,34.616,31.534,40.691,24.067,40.691z"/>
	<path d="M31.654,30.317l-5.166-3.191c-0.108-0.603-0.435-1.124-0.893-1.493l0.236-6.483c0.03-0.828-0.617-1.523-1.444-1.554
		c-0.825-0.038-1.523,0.616-1.554,1.444l-0.237,6.489c-0.641,0.452-1.063,1.196-1.063,2.041c0,1.38,1.119,2.499,2.5,2.499
		c0.393,0,0.76-0.099,1.09-0.26l4.955,3.061c0.246,0.151,0.518,0.224,0.787,0.224c0.503,0,0.994-0.253,1.278-0.712
		C32.578,31.678,32.359,30.753,31.654,30.317z"/>
</g>
</svg>
