<?xml version="1.0" encoding="utf-8"?>
<!-- Generator: Adobe Illustrator 16.0.0, SVG Export Plug-In . SVG Version: 6.00 Build 0)  -->
<!DOCTYPE svg PUBLIC "-//W3C//DTD SVG 1.1//EN" "http://www.w3.org/Graphics/SVG/1.1/DTD/svg11.dtd">
<svg version="1.1" id="Layer_1" xmlns="http://www.w3.org/2000/svg" xmlns:xlink="http://www.w3.org/1999/xlink" x="0px" y="0px"
	 width="48px" height="48px" viewBox="0 0 48 48" enable-background="new 0 0 48 48" xml:space="preserve">
<g>
	<circle cx="8.166" cy="12.018" r="1.327"/>
	<circle cx="11.887" cy="10.691" r="1.328"/>
	<circle cx="10.558" cy="14.617" r="1.327"/>
	<path d="M43.285,41.496c2.203-1.505,3.477-3.414,3.477-5.726c0-1.232-0.365-4.352-1.041-6.492c-0.337-1.074-1.332-1.81-2.458-1.81
		H3.841V6.015c0-0.541,0.44-0.958,0.98-0.958h2.038c0.539,0,0.963,0.417,0.963,0.958v1.018c0,0.827,0.682,1.497,1.507,1.497
		c0.827,0,1.508-0.67,1.508-1.497V5.526c0-1.924-1.566-3.483-3.49-3.483H4.334c-1.925,0-3.508,1.56-3.508,3.483
		c0,0,0.023,30.11,0.023,30.244c0,2.312,1.272,4.221,3.477,5.726l-2.002,2.023c-0.776,0.783-0.771,2.047,0.013,2.822
		c0.39,0.386,0.897,0.578,1.405,0.578c0.515,0,1.027-0.197,1.418-0.591l2.925-2.955c4.107,1.522,9.638,2.288,15.722,2.288
		c6.081,0,11.612-0.766,15.72-2.288l2.924,2.955c0.392,0.394,0.903,0.591,1.419,0.591c0.508,0,1.016-0.192,1.404-0.578
		c0.784-0.775,0.79-2.039,0.014-2.822L43.285,41.496z"/>
</g>
</svg>
