<?xml version="1.0" encoding="utf-8"?>
<!-- Generator: Adobe Illustrator 16.0.0, SVG Export Plug-In . SVG Version: 6.00 Build 0)  -->
<!DOCTYPE svg PUBLIC "-//W3C//DTD SVG 1.1//EN" "http://www.w3.org/Graphics/SVG/1.1/DTD/svg11.dtd">
<svg version="1.1" id="Layer_1" xmlns="http://www.w3.org/2000/svg" xmlns:xlink="http://www.w3.org/1999/xlink" x="0px" y="0px"
	 width="48px" height="48px" viewBox="0 0 48 48" enable-background="new 0 0 48 48" xml:space="preserve">
<g>
	<g>
		<path d="M27.845,28.898c0-2.254-1.827-4.081-4.081-4.081H6.105c-2.254,0-4.081,1.827-4.081,4.081v4.685
			c0,2.254,1.827,4.081,4.081,4.081h17.659c2.254,0,4.081-1.827,4.081-4.081V28.898z"/>
	</g>
	<g>
		<path d="M25.286,18.606h7.734c0.964,0,1.797-0.705,2.001-1.646l0.51-2.346c0.133-0.606-0.017-1.265-0.405-1.745
			c-0.389-0.483-0.975-0.757-1.594-0.757h-7.736c-0.963,0-1.796,0.671-2,1.612l-0.511,2.334c-0.131,0.606,0.018,1.261,0.406,1.744
			C24.08,18.286,24.667,18.606,25.286,18.606z"/>
	</g>
	<g>
		<path d="M42.77,7.031H20.28c-1.831,0-3.273,1.427-3.273,3.257v5.6c0.423-0.117,1.083-0.179,1.653-0.179l2.582,0.016
			c0.006-0.032,0.011-0.052,0.018-0.083l0.513-2.314c0.411-1.891,2.066-3.191,4.023-3.191h7.736c1.27,0,2.438,0.525,3.208,1.48
			c0.787,0.976,1.084,2.226,0.816,3.451l-0.166,0.759l4.273,0.025c1.723,0.012,3.294,0.715,4.423,1.845v-7.409
			C46.087,8.458,44.602,7.031,42.77,7.031z"/>
	</g>
	<g>
		<path d="M41.676,17.924l-4.758-0.005c-0.576,1.638-2.149,2.805-3.898,2.805h-7.734c-1.219,0-2.417-0.609-3.209-1.591
			c-0.314-0.391-0.55-0.849-0.703-1.322l-2.709-0.023c-1.112-0.006-2.205,0.306-3.157,0.881l-6.883,4.172h14.729
			c3.515,0,6.359,2.79,6.359,6.29v5.181c0,0.783-0.163,1.527-0.469,2.198l15.082-9.03c0.977-0.586,1.622-1.644,1.622-2.784v-2.503
			C45.946,19.847,44.025,17.938,41.676,17.924z"/>
	</g>
</g>
</svg>
