<?xml version="1.0" encoding="utf-8"?>
<!-- Generator: Adobe Illustrator 16.0.0, SVG Export Plug-In . SVG Version: 6.00 Build 0)  -->
<!DOCTYPE svg PUBLIC "-//W3C//DTD SVG 1.1//EN" "http://www.w3.org/Graphics/SVG/1.1/DTD/svg11.dtd">
<svg version="1.1" id="Layer_1" xmlns="http://www.w3.org/2000/svg" xmlns:xlink="http://www.w3.org/1999/xlink" x="0px" y="0px"
	 width="48px" height="48px" viewBox="0 0 48 48" enable-background="new 0 0 48 48" xml:space="preserve">
<g>
	<path d="M40.596,30.944c-1.437-2.188-5.541-3.667-9.554-4.506c-2.014,1.487-4.501,2.366-7.189,2.366
		c-2.692,0-5.181-0.881-7.195-2.369c-4.019,0.838-8.132,2.318-9.568,4.509C4.886,34.3,7.089,47,7.089,47h33.507
		C40.596,47,42.8,34.3,40.596,30.944z M23.842,42.191c-1.051,0-1.9-0.851-1.9-1.9s0.85-1.9,1.9-1.9c1.05,0,1.9,0.851,1.9,1.9
		S24.892,42.191,23.842,42.191z M23.842,35.676c-1.051,0-1.9-0.852-1.9-1.9s0.85-1.9,1.9-1.9c1.05,0,1.9,0.852,1.9,1.9
		S24.892,35.676,23.842,35.676z"/>
	<path d="M23.842,25.747c5.005,0,9.075-4.071,9.075-9.075c0-1.164-0.22-2.266-0.621-3.301h-1.33h-1.782
		c0.596,0.956,0.941,2.092,0.941,3.301c0,3.465-2.818,6.283-6.283,6.283c-3.464,0-6.282-2.819-6.282-6.283
		c0-1.211,0.346-2.345,0.939-3.301h-1.8h-1.311c-0.4,1.035-0.621,2.137-0.621,3.301C14.768,21.676,18.838,25.747,23.842,25.747z"/>
	<path d="M31.005,2.588c0-0.797-0.657-1.41-1.455-1.41H18.172c-0.796,0-1.432,0.613-1.432,1.41v8.711h14.265V2.588z"/>
</g>
</svg>
