<?xml version="1.0" encoding="utf-8"?>
<!-- Generator: Adobe Illustrator 16.0.0, SVG Export Plug-In . SVG Version: 6.00 Build 0)  -->
<!DOCTYPE svg PUBLIC "-//W3C//DTD SVG 1.1//EN" "http://www.w3.org/Graphics/SVG/1.1/DTD/svg11.dtd">
<svg version="1.1" id="Layer_1" xmlns="http://www.w3.org/2000/svg" xmlns:xlink="http://www.w3.org/1999/xlink" x="0px" y="0px"
	 width="48px" height="48px" viewBox="0 0 48 48" enable-background="new 0 0 48 48" xml:space="preserve">
<g>
	<path d="M21.335,30.935c3.616,0,6.557-2.951,6.557-6.565c0-0.99-0.221-1.935-0.616-2.783H15.396
		c-0.396,0.849-0.617,1.795-0.617,2.785C14.779,27.988,17.721,30.935,21.335,30.935z"/>
	<path d="M34.09,21.586h-3.552c0.264,0.915,0.407,1.822,0.407,2.785c0,5.3-4.311,9.617-9.61,9.617c-5.299,0-9.61-4.319-9.61-9.619
		c0-0.964,0.144-1.868,0.409-2.783H8.582c-0.446,0-0.871,0.205-1.163,0.543c-0.294,0.337-0.427,0.788-0.364,1.231L10.22,45.97
		c0.085,0.61,0.607,1.067,1.224,1.067h19.54c0.61,0,1.13-0.447,1.222-1.051l3.409-22.61c0.067-0.444-0.063-0.901-0.356-1.241
		C34.966,21.793,34.539,21.586,34.09,21.586z"/>
	<path d="M36.339,3.639L31,1.173c-0.824-0.38-1.803-0.04-2.214,0.771l-0.74,1.456c-0.208,0.41-0.24,0.886-0.089,1.319
		c0.15,0.433,0.471,0.787,0.887,0.98l5.45,2.515c0.416,0.192,0.894,0.207,1.321,0.04c0.428-0.166,0.77-0.5,0.945-0.924l0.63-1.506
		C37.54,4.985,37.163,4.02,36.339,3.639z"/>
	<path d="M20.627,19.237h10.857c0.394,0,0.743-0.234,0.87-0.605l1.935-5.615c0.281-0.818-0.102-1.715-0.889-2.079l-6.053-2.792
		c-0.788-0.364-1.723-0.07-2.163,0.676l-5.348,9.059c-0.169,0.284-0.171,0.622-0.008,0.909
		C19.993,19.075,20.298,19.237,20.627,19.237z"/>
</g>
</svg>
