<?xml version="1.0" encoding="utf-8"?>
<!-- Generator: Adobe Illustrator 16.0.0, SVG Export Plug-In . SVG Version: 6.00 Build 0)  -->
<!DOCTYPE svg PUBLIC "-//W3C//DTD SVG 1.1//EN" "http://www.w3.org/Graphics/SVG/1.1/DTD/svg11.dtd">
<svg version="1.1" id="Layer_1" xmlns="http://www.w3.org/2000/svg" xmlns:xlink="http://www.w3.org/1999/xlink" x="0px" y="0px"
	 width="48px" height="48px" viewBox="0 0 48 48" enable-background="new 0 0 48 48" xml:space="preserve">
<g>
	<path d="M17.29,16.24c0.01-1.538,0.24-4.942,0.648-9.586c0.119-1.352-0.337-2.697-1.25-3.695c-0.912-1-2.214-1.573-3.57-1.573
		h-0.562c-1.353,0-2.653,0.575-3.57,1.577c-0.913,0.999-1.37,2.346-1.25,3.692c0.287,3.26,0.635,7.553,0.646,9.507
		c0.032,4.791-1.742,16.142-2.802,22.479C5.236,40.707,5.813,42.807,7.16,44.4c1.352,1.597,3.326,2.514,5.42,2.514h0.511
		c2.09,0,4.064-0.918,5.417-2.519c1.351-1.597,1.927-3.693,1.582-5.756C19.031,32.326,17.262,21.018,17.29,16.24z M11.177,4.975
		c0.355-0.388,0.858-0.603,1.38-0.603h0.562c0.523,0,1.026,0.212,1.38,0.601c0.354,0.385,0.528,0.902,0.482,1.425
		c-0.188,2.146-0.401,4.729-0.533,6.856h-3.219c-0.131-2.119-0.345-4.71-0.534-6.856C10.647,5.879,10.823,5.361,11.177,4.975z
		 M16.24,42.471c-0.786,0.932-1.935,1.458-3.149,1.458H12.58c-1.217,0-2.365-0.524-3.152-1.453
		c-0.784-0.929-1.118-2.146-0.919-3.349c1.15-6.873,2.489-15.662,2.784-20.947h3.084c0.289,5.256,1.632,14.065,2.783,20.947
		C17.362,40.325,17.026,41.542,16.24,42.471z"/>
	<path d="M32.096,26.543c-5.488,0-9.938,4.449-9.938,9.938c0,5.487,4.45,9.938,9.938,9.938s9.938-4.451,9.938-9.938
		C42.034,30.992,37.584,26.543,32.096,26.543z M27.807,39.244c-1.207,0-2.185-0.978-2.185-2.186s0.978-2.187,2.185-2.187
		c1.208,0,2.186,0.979,2.186,2.187S29.015,39.244,27.807,39.244z M31.765,34.294c-1.206,0-2.185-0.978-2.185-2.185
		c0-1.206,0.979-2.185,2.185-2.185c1.208,0,2.187,0.979,2.187,2.185C33.951,33.316,32.973,34.294,31.765,34.294z M35.725,39.244
		c-1.207,0-2.185-0.978-2.185-2.186s0.978-2.187,2.185-2.187c1.206,0,2.185,0.979,2.185,2.187S36.931,39.244,35.725,39.244z"/>
</g>
</svg>
