<?xml version="1.0" encoding="utf-8"?>
<!-- Generator: Adobe Illustrator 16.0.0, SVG Export Plug-In . SVG Version: 6.00 Build 0)  -->
<!DOCTYPE svg PUBLIC "-//W3C//DTD SVG 1.1//EN" "http://www.w3.org/Graphics/SVG/1.1/DTD/svg11.dtd">
<svg version="1.1" id="Layer_1" xmlns="http://www.w3.org/2000/svg" xmlns:xlink="http://www.w3.org/1999/xlink" x="0px" y="0px"
	 width="48px" height="48px" viewBox="0 0 48 48" enable-background="new 0 0 48 48" xml:space="preserve">
<g>
	<path d="M45.102,12.172c-0.563-0.564-1.329-0.89-2.126-0.89h-5.209V9.2c0-2.978-2.407-5.351-5.383-5.351H15.374
		c-2.976,0-5.351,2.373-5.351,5.351v2.082H4.874c-1.653,0-2.996,1.346-3.002,2.998L1.772,41.579
		c-0.002,0.676,0.264,1.336,0.742,1.814c0.478,0.479,1.127,0.757,1.804,0.757h39.014c1.402,0,2.54-1.14,2.545-2.543l0.099-27.296
		C45.98,13.512,45.665,12.736,45.102,12.172z M14.763,9.2c0-0.334,0.278-0.607,0.61-0.607h17.009c0.333,0,0.642,0.273,0.642,0.607
		v2.082H14.763V9.2z M23.871,40.721c-7.17,0-13.004-5.835-13.004-13.004c0-7.17,5.833-13.003,13.004-13.003
		c7.17,0,13.004,5.833,13.004,13.003C36.875,34.886,31.041,40.721,23.871,40.721z"/>
	<path d="M23.873,17.638c-5.584,0-10.127,4.543-10.127,10.127c0,5.585,4.543,10.128,10.127,10.128C29.457,37.893,34,33.35,34,27.765
		C34,22.181,29.457,17.638,23.873,17.638z M29.692,28.416c0,0.79-0.661,1.446-1.451,1.446h-2.265v2.271
		c0,0.787-0.661,1.444-1.452,1.444h-1.239c-0.79,0-1.409-0.657-1.409-1.444v-2.271h-2.371c-0.79,0-1.41-0.656-1.41-1.446v-1.239
		c0-0.789,0.62-1.415,1.41-1.415h2.371v-2.364c0-0.791,0.619-1.415,1.409-1.415h1.239c0.791,0,1.452,0.624,1.452,1.415v2.364h2.265
		c0.79,0,1.451,0.626,1.451,1.415V28.416z"/>
</g>
</svg>
