<?xml version="1.0" encoding="utf-8"?>
<!-- Generator: Adobe Illustrator 16.0.0, SVG Export Plug-In . SVG Version: 6.00 Build 0)  -->
<!DOCTYPE svg PUBLIC "-//W3C//DTD SVG 1.1//EN" "http://www.w3.org/Graphics/SVG/1.1/DTD/svg11.dtd">
<svg version="1.1" id="Layer_1" xmlns="http://www.w3.org/2000/svg" xmlns:xlink="http://www.w3.org/1999/xlink" x="0px" y="0px"
	 width="48px" height="48px" viewBox="0 0 48 48" enable-background="new 0 0 48 48" xml:space="preserve">
<g>
	<path d="M43.318,17.266h-9.493V6.191c0-1.908-1.561-3.445-3.47-3.445H17.564c-1.909,0-3.419,1.537-3.419,3.445v11.074h-2.339
		v-1.703c0-0.783-0.602-1.443-1.386-1.443H6c-0.784,0-1.454,0.66-1.454,1.443v1.692c-1.855,0.011-3.388,1.554-3.388,3.455v21.088
		c0,1.909,1.534,3.456,3.443,3.456h38.717c1.909,0,3.493-1.547,3.493-3.456V20.71C46.811,18.801,45.227,17.266,43.318,17.266z
		 M17.209,6.989c0-0.784,0.636-1.421,1.42-1.421h10.63c0.785,0,1.42,0.637,1.42,1.421v1.274c0,0.783-0.635,1.42-1.42,1.42h-10.63
		c-0.784,0-1.42-0.637-1.42-1.42V6.989z M23.96,43.082c-6.523,0-11.829-5.306-11.829-11.827c0-6.522,5.306-11.829,11.829-11.829
		c6.522,0,11.828,5.307,11.828,11.829C35.788,37.776,30.482,43.082,23.96,43.082z"/>
	<path d="M23.96,23.574c-4.235,0-7.681,3.445-7.681,7.681s3.446,7.679,7.681,7.679s7.68-3.443,7.68-7.679
		S28.195,23.574,23.96,23.574z"/>
</g>
</svg>
