<?xml version="1.0" encoding="utf-8"?>
<!-- Generator: Adobe Illustrator 16.0.0, SVG Export Plug-In . SVG Version: 6.00 Build 0)  -->
<!DOCTYPE svg PUBLIC "-//W3C//DTD SVG 1.1//EN" "http://www.w3.org/Graphics/SVG/1.1/DTD/svg11.dtd">
<svg version="1.1" id="Layer_1" xmlns="http://www.w3.org/2000/svg" xmlns:xlink="http://www.w3.org/1999/xlink" x="0px" y="0px"
	 width="48px" height="48px" viewBox="0 0 48 48" enable-background="new 0 0 48 48" xml:space="preserve">
<g>
	<path d="M23.497,40.648c-6.45,0-11.697-5.246-11.697-11.695c0-1.308,0.217-2.565,0.614-3.741l-8.691-8.539
		c-0.367-0.362-0.633-0.782-0.826-1.235c-1.137,0.549-1.92,1.725-1.92,3.089v20.853c0,1.888,1.489,3.383,3.377,3.383H30.31
		l-2.88-2.812C26.2,40.391,24.876,40.648,23.497,40.648z"/>
	<path d="M42.64,15.158h-9.42V4.168c0-1.887-1.511-3.402-3.398-3.402H17.172c-1.888,0-3.376,1.516-3.376,3.402v8.098l5.77,5.672
		c1.23-0.44,2.554-0.682,3.933-0.682c6.45,0,11.696,5.247,11.696,11.697c0,1.309-0.216,2.566-0.614,3.74l8.688,8.538
		c0.364,0.357,0.659,0.776,0.857,1.235c1.164-0.549,1.992-1.725,1.992-3.088V18.526C46.117,16.639,44.527,15.158,42.64,15.158z
		 M30.153,6.218c0,0.774-0.64,1.39-1.416,1.39H18.225c-0.775,0-1.441-0.615-1.441-1.39V4.957c0-0.774,0.667-1.438,1.441-1.438
		h10.512c0.776,0,1.416,0.664,1.416,1.438V6.218z"/>
	<path d="M23.936,36.534l-8.027-7.888c-0.003,0.102-0.006,0.203-0.006,0.307c0,4.188,3.407,7.594,7.595,7.594
		C23.645,36.547,23.791,36.543,23.936,36.534z"/>
	<path d="M23.497,21.357c-0.147,0-0.294,0.005-0.439,0.014l8.027,7.889c0.004-0.102,0.007-0.204,0.007-0.307
		C31.091,24.764,27.684,21.357,23.497,21.357z"/>
	<path d="M8.793,11.513c-0.182-0.178-0.432-0.272-0.711-0.272c-0.055,0-0.11,0.003-0.166,0.01c-0.346,0.045-0.693,0.227-0.964,0.502
		l-0.943,0.96c-0.565,0.575-0.658,1.401-0.206,1.845L38.2,46.392c0.182,0.177,0.433,0.273,0.712,0.273
		c0.054,0,0.11-0.004,0.166-0.011c0.345-0.045,0.692-0.226,0.963-0.502l0.943-0.96c0.564-0.575,0.657-1.401,0.206-1.845
		L8.793,11.513z"/>
</g>
</svg>
