<?xml version="1.0" encoding="utf-8"?>
<!-- Generator: Adobe Illustrator 16.0.0, SVG Export Plug-In . SVG Version: 6.00 Build 0)  -->
<!DOCTYPE svg PUBLIC "-//W3C//DTD SVG 1.1//EN" "http://www.w3.org/Graphics/SVG/1.1/DTD/svg11.dtd">
<svg version="1.1" id="Layer_1" xmlns="http://www.w3.org/2000/svg" xmlns:xlink="http://www.w3.org/1999/xlink" x="0px" y="0px"
	 width="48px" height="48px" viewBox="0 0 48 48" enable-background="new 0 0 48 48" xml:space="preserve">
<g>
	<path d="M21.197,25.558l0.72-0.602c1.126-1.006,2.073-2.047,2.073-3.355c0-1.414-0.97-2.444-2.732-2.444
		c-1.054,0-1.965,0.36-2.553,0.805l0.516,1.306c0.407-0.313,0.995-0.646,1.666-0.646c0.899,0,1.283,0.502,1.283,1.138
		c-0.025,0.909-0.85,1.785-2.552,3.308l-1.006,0.911v1.099h5.498v-1.484h-2.914V25.558z"/>
	<path d="M30.212,19.269h-2.227l-2.941,4.766v1.172h3.463v1.869h1.705v-1.869h0.934v-1.374h-0.934V19.269z M28.507,22.129v1.703
		h-1.759v-0.001l1.038-1.692c0.264-0.491,0.463-0.945,0.715-1.44h0.047C28.513,21.193,28.507,21.662,28.507,22.129z"/>
	<path d="M35.649,21.088c-0.336,0-0.679,0.08-0.942,0.223c-0.287,0.156-0.522,0.377-0.713,0.598H33.95v-3.354h-1.814v8.521h1.814
		v-3.472c0-0.133,0.021-0.288,0.07-0.407c0.132-0.323,0.429-0.637,0.909-0.637c0.683,0,0.945,0.528,0.945,1.296v3.22h1.814v-3.424
		C37.688,21.889,36.812,21.088,35.649,21.088z"/>
	<path d="M22.274,32.653l-5.037-2.926c-0.191-0.904-0.687-1.698-1.375-2.267l0.022-13.229c0.002-1.409-1.138-2.549-2.548-2.549
		c-0.001,0-0.003,0-0.004,0c-1.408,0-2.55,1.132-2.553,2.54l-0.023,13.234c-0.899,0.737-1.473,1.854-1.473,3.108
		c0,2.22,1.8,4.019,4.021,4.019c0.559,0,1.09-0.115,1.574-0.321l4.833,2.806c0.403,0.235,0.844,0.346,1.279,0.346
		c0.88,0,1.737-0.454,2.21-1.271C23.909,34.924,23.494,33.361,22.274,32.653z"/>
	<path d="M38.515,1.294H9.49c-4.523,0-8.193,3.705-8.193,8.229v29.024c0,4.524,3.669,8.208,8.193,8.208h29.025
		c4.523,0,8.188-3.684,8.188-8.208V9.522C46.703,4.999,43.038,1.294,38.515,1.294z M41.59,38.547c0,1.709-1.367,3.096-3.076,3.096
		H9.49c-1.708,0-3.08-1.387-3.08-3.096V9.522c0-1.708,1.372-3.116,3.08-3.116h29.025c1.708,0,3.076,1.408,3.076,3.116V38.547z"/>
</g>
</svg>
