<?xml version="1.0" encoding="utf-8"?>
<!-- Generator: Adobe Illustrator 16.0.0, SVG Export Plug-In . SVG Version: 6.00 Build 0)  -->
<!DOCTYPE svg PUBLIC "-//W3C//DTD SVG 1.1//EN" "http://www.w3.org/Graphics/SVG/1.1/DTD/svg11.dtd">
<svg version="1.1" id="Layer_1" xmlns="http://www.w3.org/2000/svg" xmlns:xlink="http://www.w3.org/1999/xlink" x="0px" y="0px"
	 width="48px" height="48px" viewBox="0 0 48 48" enable-background="new 0 0 48 48" xml:space="preserve">
<g>
	<path d="M46.561,33.583l-6.898-20.327l0.488-0.167c0.46-0.157,1.396-0.633,1.443-1.652c0.063-1.328-0.945-1.845-1.466-2.114
		c-0.429-0.222-16.587-7.96-16.587-7.96c-2.009-0.94-4.391-0.394-5.793,1.327c0,0-12.01,14.738-16.013,19.65
		c-0.594,0.729-1.094,1.8-0.469,2.784c0.632,0.995,1.575,0.73,2.035,0.573l0.63-0.215l6.898,20.328
		c0.156,0.459,0.5,0.868,0.937,1.083c0.436,0.214,0.944,0.26,1.404,0.103l32.258-11.079C46.38,35.59,46.885,34.539,46.561,33.583z
		 M36.465,19.076l-2.522,0.88l0.469,1.342l2.378-0.83l0.415,1.189l-2.379,0.83l0.536,1.535l2.657-0.927l0.418,1.199l-4.125,1.439
		l-2.255-6.465l3.99-1.392L36.465,19.076z M31.196,24.798c-0.14-0.403-0.527-0.526-1.401-0.533c-1.205,0-2.113-0.35-2.44-1.29
		c-0.385-1.103,0.242-2.269,1.767-2.8c0.729-0.254,1.32-0.289,1.763-0.25l0.085,1.293c-0.302-0.034-0.827-0.055-1.459,0.166
		c-0.633,0.22-0.839,0.615-0.723,0.951c0.144,0.412,0.572,0.467,1.517,0.493c1.289,0.024,2.033,0.431,2.351,1.342
		c0.378,1.084-0.135,2.296-1.909,2.915c-0.738,0.257-1.535,0.32-1.97,0.246l-0.124-1.313c0.463,0.065,1.138,0.055,1.761-0.162
		C31.086,25.621,31.344,25.22,31.196,24.798z M20.842,26.861c-0.676-1.937,0.055-3.817,1.964-4.483
		c1.986-0.693,3.588,0.415,4.211,2.2c0.739,2.12-0.098,3.853-1.987,4.512C23.111,29.76,21.484,28.702,20.842,26.861z M21.749,30.116
		l-4.039,1.409l-2.255-6.464l1.467-0.512l1.828,5.237l2.571-0.896L21.749,30.116z M20.104,4.61c0.521-0.638,1.405-0.84,2.15-0.491
		l13.717,6.408L7.259,20.373L20.104,4.61z M10.609,30.484c-0.77-2.206,0.375-3.982,2.332-4.666c0.758-0.264,1.387-0.311,1.693-0.267
		l0.108,1.265c-0.341-0.021-0.793,0.008-1.312,0.188c-1.161,0.405-1.818,1.42-1.316,2.858c0.453,1.295,1.503,1.842,2.808,1.388
		c0.441-0.154,0.897-0.421,1.145-0.636l0.619,1.063c-0.222,0.229-0.776,0.583-1.563,0.858
		C12.888,33.315,11.252,32.326,10.609,30.484z M40.804,29.934l-27.635,9.427c-0.148,0.051-0.298,0.077-0.447,0.081
		c-0.647,0.02-1.26-0.381-1.481-1.026c-0.271-0.794,0.151-1.657,0.945-1.928l27.637-9.428c0.793-0.27,1.655,0.153,1.927,0.945
		C42.021,28.799,41.597,29.663,40.804,29.934z"/>
	<path d="M24.701,27.903c0.988-0.345,1.227-1.482,0.789-2.739c-0.406-1.16-1.31-1.964-2.316-1.612
		c-0.989,0.345-1.236,1.485-0.798,2.742C22.818,27.56,23.724,28.244,24.701,27.903z"/>
</g>
</svg>
