<?xml version="1.0" encoding="utf-8"?>
<!-- Generator: Adobe Illustrator 16.0.0, SVG Export Plug-In . SVG Version: 6.00 Build 0)  -->
<!DOCTYPE svg PUBLIC "-//W3C//DTD SVG 1.1//EN" "http://www.w3.org/Graphics/SVG/1.1/DTD/svg11.dtd">
<svg version="1.1" id="Layer_1" xmlns="http://www.w3.org/2000/svg" xmlns:xlink="http://www.w3.org/1999/xlink" x="0px" y="0px"
	 width="48px" height="48px" viewBox="0 0 48 48" enable-background="new 0 0 48 48" xml:space="preserve">
<path d="M46.643,31.242c0-3.038-1.812-5.807-4.656-6.88l-16.086-6.221l-0.051-2.066c3.08-0.883,5.349-3.72,5.349-7.082
	c0-4.064-3.304-7.371-7.367-7.371c-2,0-4.768,1.547-6.271,3.821c-0.375,0.564-0.41,1.324-0.086,1.923
	c0.322,0.6,0.945,1.003,1.626,1.003h0.035c0.637,0,1.225-0.373,1.538-0.928c0.661-1.178,2.05-2.003,3.162-2.003
	c1.965,0,3.568,1.612,3.568,3.577c0,1.971-1.603,3.58-3.568,3.58c-0.003,0-0.006,0-0.009,0c-0.468,0-0.919,0.17-1.246,0.501
	c-0.331,0.333-0.515,0.776-0.509,1.246l0.045,3.791L5.699,24.363C2.857,25.438,1,28.2,1,31.24v1.173
	c0,3.409,2.666,6.372,6.073,6.372h9.355l-1.525-3.849h-7.83c-1.309,0-2.299-1.211-2.299-2.523V31.24
	c0-1.469,0.885-2.804,2.257-3.322l12.545-4.752c-0.642,1.771-0.596,3.421-0.344,4.708l-2.498,1.025
	c-1.003,0.413-1.488,1.556-1.086,2.564l5.209,13.07c0.29,0.727,0.858,1.307,1.578,1.612c0.364,0.153,0.753,0.231,1.141,0.231
	c0.379,0,0.757-0.073,1.114-0.219l4.651-1.911c1.485-0.609,2.202-2.301,1.608-3.792l-5.216-13.092
	c-0.196-0.49-0.58-0.883-1.067-1.089c-0.246-0.104-0.509-0.157-0.771-0.157c-0.256,0-0.512,0.05-0.753,0.15l-2.073,0.851
	c-0.191-1.347-0.038-3.131,1.269-5l1.517-0.574l16.79,6.373c1.375,0.519,2.243,1.854,2.243,3.322v1.173
	c0,1.313-0.98,2.523-2.289,2.523h-9.718l1.525,3.849H40.6c3.405,0,6.105-2.938,6.105-6.345L46.643,31.242z M22.851,30.277
	c0.346,0.842-0.056,1.805-0.9,2.153c-0.842,0.344-1.805-0.059-2.152-0.899c-0.209-0.51-0.144-1.065,0.127-1.501
	c0.146,0.315,0.253,0.492,0.26,0.504c0.187,0.302,0.51,0.468,0.842,0.468c0.178,0,0.358-0.05,0.521-0.149
	c0.464-0.289,0.607-0.896,0.319-1.362c-0.012-0.02-0.048-0.078-0.099-0.175C22.24,29.449,22.648,29.788,22.851,30.277z"/>
</svg>
