<?xml version="1.0" encoding="utf-8"?>
<!-- Generator: Adobe Illustrator 16.0.0, SVG Export Plug-In . SVG Version: 6.00 Build 0)  -->
<!DOCTYPE svg PUBLIC "-//W3C//DTD SVG 1.1//EN" "http://www.w3.org/Graphics/SVG/1.1/DTD/svg11.dtd">
<svg version="1.1" id="Layer_1" xmlns="http://www.w3.org/2000/svg" xmlns:xlink="http://www.w3.org/1999/xlink" x="0px" y="0px"
	 width="48px" height="48px" viewBox="0 0 48 48" enable-background="new 0 0 48 48" xml:space="preserve">
<g>
	<path d="M37.92,15.252c-0.491,0-1.115,0.041-1.387,0.116v0.003c-0.816-1.355-1.908-2.619-3.023-3.705h0.05
		c1.342,0,2.429-1.088,2.429-2.429V8.391c0-1.341-1.087-2.428-2.429-2.428H6.64c-1.342,0-2.429,1.087-2.429,2.428v0.847
		c0,1.341,1.087,2.429,2.429,2.429C3.158,15.197,1,19.905,1,25.197C1,35.73,9.537,44.27,20.074,44.27
		c7.642,0,14.285-4.498,17.273-10.988v0c0.271,0.01,0.344,0.015,0.517,0.015c4.983,0,9.051-4.04,9.051-9.021
		C46.915,19.291,42.905,15.252,37.92,15.252z M20.075,40.261c-8.309,0-15.069-6.826-15.069-15.134c0-4.036,1.603-7.757,4.44-10.745
		h21.256c2.836,2.988,4.438,6.708,4.438,10.745C35.141,33.436,28.384,40.261,20.075,40.261z M38.72,29.211
		c0.277-1.295,0.429-2.639,0.429-4.018c0-2.041-0.323-4.005-0.918-5.848c2.519,0.273,4.651,2.349,4.651,4.929
		C42.882,26.749,41.079,28.804,38.72,29.211z"/>
	<path d="M20.608,24.94c-4.605-0.706-7.691-0.958-11.506,0.694c0.233,5.858,5.044,10.542,10.96,10.542
		c6.066,0,10.982-4.917,10.982-10.982c0-0.338-0.02-0.671-0.051-1.002C27.513,25.6,24.367,25.519,20.608,24.94z"/>
</g>
</svg>
