<?xml version="1.0" encoding="utf-8"?>
<!-- Generator: Adobe Illustrator 16.0.0, SVG Export Plug-In . SVG Version: 6.00 Build 0)  -->
<!DOCTYPE svg PUBLIC "-//W3C//DTD SVG 1.1//EN" "http://www.w3.org/Graphics/SVG/1.1/DTD/svg11.dtd">
<svg version="1.1" id="Layer_1" xmlns="http://www.w3.org/2000/svg" xmlns:xlink="http://www.w3.org/1999/xlink" x="0px" y="0px"
	 width="48px" height="48px" viewBox="0 0 48 48" enable-background="new 0 0 48 48" xml:space="preserve">
<g>
	<path d="M24.038,18.787c-1.36,0-2.618,0.436-3.651,1.169c-0.162,0.116-0.266,0.296-0.282,0.495s0.055,0.395,0.196,0.535
		l0.517,0.517c0.229,0.229,0.586,0.263,0.854,0.082c0.677-0.456,1.489-0.724,2.365-0.724c0.876,0,1.688,0.268,2.366,0.724
		c0.268,0.181,0.626,0.146,0.855-0.082l0.517-0.518c0.141-0.14,0.212-0.335,0.196-0.534c-0.017-0.198-0.12-0.379-0.282-0.495
		C26.657,19.223,25.398,18.787,24.038,18.787z"/>
	<path d="M24.038,15.044c-2.425,0-4.684,0.706-6.599,1.912c-0.173,0.109-0.288,0.292-0.311,0.496
		c-0.023,0.205,0.048,0.409,0.193,0.554l0.517,0.518c0.221,0.221,0.563,0.26,0.829,0.099c1.567-0.954,3.406-1.503,5.371-1.503
		s3.804,0.549,5.371,1.503c0.267,0.161,0.608,0.121,0.829-0.099l0.517-0.518c0.145-0.145,0.216-0.348,0.193-0.554
		c-0.023-0.204-0.138-0.387-0.312-0.496C28.722,15.75,26.463,15.044,24.038,15.044z"/>
	<path d="M15.101,15.785c0.225,0.225,0.575,0.262,0.843,0.09c2.338-1.501,5.116-2.374,8.095-2.374c2.979,0,5.756,0.873,8.095,2.374
		c0.268,0.172,0.619,0.135,0.843-0.09l0.522-0.522c0.144-0.144,0.215-0.345,0.194-0.547c-0.021-0.203-0.132-0.385-0.302-0.496
		c-2.689-1.765-5.902-2.794-9.352-2.794c-3.449,0-6.662,1.029-9.352,2.794c-0.169,0.111-0.28,0.293-0.301,0.496
		c-0.021,0.202,0.05,0.403,0.193,0.547L15.101,15.785z"/>
	<circle cx="24.125" cy="24.126" r="1.54"/>
	<path d="M7.4,33.088h33.2c1.146,0,2.074-0.93,2.074-2.075V5.075C42.675,3.929,41.747,3,40.601,3H7.4
		C6.254,3,5.325,3.929,5.325,5.075v25.938C5.325,32.158,6.254,33.088,7.4,33.088z M8.438,6.717c0-0.334,0.271-0.604,0.604-0.604
		h29.916c0.334,0,0.605,0.271,0.605,0.604V29.37c0,0.334-0.271,0.604-0.605,0.604H9.042c-0.333,0-0.604-0.271-0.604-0.604V6.717z"/>
	<path d="M46.824,40.659l-1.556-4.149c-0.304-0.811-1.078-1.347-1.943-1.347H4.701c-0.866,0-1.64,0.536-1.943,1.347l-1.556,4.149
		c-0.239,0.638-0.15,1.351,0.238,1.911c0.387,0.559,1.024,0.893,1.706,0.893h41.736c0.681,0,1.318-0.334,1.706-0.893
		C46.975,42.01,47.063,41.297,46.824,40.659z"/>
</g>
</svg>
