<?xml version="1.0" encoding="utf-8"?>
<!-- Generator: Adobe Illustrator 16.0.0, SVG Export Plug-In . SVG Version: 6.00 Build 0)  -->
<!DOCTYPE svg PUBLIC "-//W3C//DTD SVG 1.1//EN" "http://www.w3.org/Graphics/SVG/1.1/DTD/svg11.dtd">
<svg version="1.1" id="Layer_1" xmlns="http://www.w3.org/2000/svg" xmlns:xlink="http://www.w3.org/1999/xlink" x="0px" y="0px"
	 width="48px" height="48px" viewBox="0 0 48 48" enable-background="new 0 0 48 48" xml:space="preserve">
<g>
	<path d="M44.786,22.638L25.064,2.915c-0.777-0.777-1.795-1.166-2.813-1.166c-1.018,0-2.037,0.389-2.813,1.166L8.638,13.713
		c-1.554,1.554-1.554,4.122,0,5.676l1.79,1.839h4.129l-3.854-3.904c-0.27-0.271-0.31-0.61-0.31-0.774s0.04-0.491,0.31-0.761
		l1.426-1.382l6.777,6.821h6.501L15.379,11.15l6.123-6.147c0.27-0.27,0.585-0.321,0.749-0.321c0.164,0,0.479,0.034,0.749,0.303
		l19.722,19.72c0.27,0.27,0.311,0.583,0.311,0.748c0,0.164-0.07,0.478-0.34,0.749l-1.119,1.091v4.129l3.184-3.156
		C46.312,26.71,46.34,24.192,44.786,22.638z"/>
	<path d="M35.532,23.077H7.639c-2.197,0-4.076,1.77-4.076,3.967v10.55h35.898v-10.55C39.461,24.847,37.729,23.077,35.532,23.077z
		 M13.311,34.002c-0.779,0-1.484-0.309-2.004-0.809c-0.52,0.5-1.226,0.809-2.003,0.809c-1.598,0-2.895-1.295-2.895-2.895
		c0-1.599,1.296-2.895,2.895-2.895c0.778,0,1.484,0.309,2.003,0.809c0.52-0.5,1.225-0.809,2.004-0.809
		c1.599,0,2.895,1.296,2.895,2.895C16.206,32.707,14.91,34.002,13.311,34.002z"/>
	<path d="M3.563,42.316c0,2.197,1.878,3.989,4.076,3.989h27.893c2.197,0,3.93-1.792,3.93-3.989v-0.235H3.563V42.316z"/>
</g>
</svg>
