<?xml version="1.0" encoding="utf-8"?>
<!-- Generator: Adobe Illustrator 16.0.0, SVG Export Plug-In . SVG Version: 6.00 Build 0)  -->
<!DOCTYPE svg PUBLIC "-//W3C//DTD SVG 1.1//EN" "http://www.w3.org/Graphics/SVG/1.1/DTD/svg11.dtd">
<svg version="1.1" id="Layer_1" xmlns="http://www.w3.org/2000/svg" xmlns:xlink="http://www.w3.org/1999/xlink" x="0px" y="0px"
	 width="48px" height="48px" viewBox="0 0 48 48" enable-background="new 0 0 48 48" xml:space="preserve">
<g>
	<path d="M6.994,33.289c-0.09,0.572,0.075,1.143,0.452,1.582c0.377,0.44,0.927,0.68,1.506,0.68h29.629
		c0.579,0,1.128-0.24,1.505-0.68c0.376-0.439,0.543-1.017,0.453-1.588c-1.108-7.03-6.501-12.629-13.432-14.012
		c0.196-0.447,0.305-0.938,0.305-1.455c0-2.011-1.635-3.645-3.646-3.645c-2.01,0-3.645,1.635-3.645,3.645
		c0,0.518,0.109,1.012,0.305,1.458C13.495,20.657,8.103,26.26,6.994,33.289z"/>
	<path d="M42.188,39.873c-0.243-0.85-1.02-1.441-1.903-1.441H7.247c-0.884,0-1.661,0.592-1.903,1.441l-1.208,4.229
		c-0.091,0.318-0.027,0.65,0.172,0.914c0.2,0.264,0.511,0.41,0.841,0.41h37.233c0.331,0,0.642-0.145,0.841-0.408
		s0.262-0.596,0.172-0.913L42.188,39.873z"/>
	<path d="M12.347,16.221c0.294,0.305,0.686,0.457,1.078,0.457c0.376,0,0.753-0.141,1.044-0.422c0.596-0.578,0.611-1.527,0.034-2.123
		L5.175,4.502C4.597,3.905,3.646,3.891,3.052,4.467C2.457,5.045,2.441,5.994,3.018,6.59L12.347,16.221z"/>
	<path d="M15.524,14.004c0.103,0.752,0.747,1.299,1.485,1.299c0.067,0,0.136-0.005,0.205-0.014c0.821-0.112,1.396-0.869,1.285-1.69
		l-1.125-8.256c-0.113-0.821-0.871-1.396-1.69-1.284c-0.821,0.111-1.396,0.868-1.285,1.689L15.524,14.004z"/>
	<path d="M10.758,19.68c0.677,0,1.292-0.461,1.458-1.146c0.195-0.807-0.299-1.617-1.105-1.813l-8.255-2.002
		c-0.806-0.192-1.618,0.301-1.813,1.105s0.299,1.617,1.105,1.813l8.255,2.001C10.522,19.666,10.642,19.68,10.758,19.68z"/>
	<path d="M33.318,16.193c0.292,0.281,0.668,0.422,1.044,0.422c0.392,0,0.784-0.152,1.078-0.457l9.329-9.631
		c0.577-0.596,0.562-1.546-0.034-2.123c-0.594-0.574-1.544-0.562-2.123,0.035l-9.329,9.631
		C32.708,14.666,32.723,15.615,33.318,16.193z"/>
	<path d="M30.574,15.227c0.069,0.009,0.137,0.013,0.205,0.013c0.739,0,1.383-0.546,1.485-1.298l1.125-8.256
		c0.112-0.82-0.463-1.578-1.284-1.689c-0.827-0.111-1.579,0.463-1.69,1.283l-1.125,8.256C29.178,14.357,29.753,15.114,30.574,15.227
		z"/>
	<path d="M46.746,15.762c-0.196-0.805-1.005-1.3-1.813-1.105l-8.255,2.002c-0.806,0.195-1.3,1.006-1.105,1.813
		c0.167,0.686,0.781,1.147,1.458,1.147c0.116,0,0.236-0.015,0.354-0.043l8.255-2.001C46.446,17.379,46.94,16.566,46.746,15.762z"/>
</g>
</svg>
