<?xml version="1.0" encoding="utf-8"?>
<!-- Generator: Adobe Illustrator 16.0.0, SVG Export Plug-In . SVG Version: 6.00 Build 0)  -->
<!DOCTYPE svg PUBLIC "-//W3C//DTD SVG 1.1//EN" "http://www.w3.org/Graphics/SVG/1.1/DTD/svg11.dtd">
<svg version="1.1" id="Layer_1" xmlns="http://www.w3.org/2000/svg" xmlns:xlink="http://www.w3.org/1999/xlink" x="0px" y="0px"
	 width="48px" height="48px" viewBox="0 0 48 48" enable-background="new 0 0 48 48" xml:space="preserve">
<g>
	<path d="M43.299,7.224h-23.84c0.267,1.042,0.402,2.105,0.402,3.257v25.729c0,0.97-0.093,1.863-0.285,2.744h23.724
		c1.794,0,3.244-1.447,3.244-3.242V10.504C46.543,8.709,45.094,7.224,43.299,7.224z M29.129,35.362
		c-0.964,0-1.747-0.781-1.747-1.746c0-0.963,0.782-1.746,1.747-1.746c0.963,0,1.746,0.782,1.746,1.746
		C30.875,34.581,30.092,35.362,29.129,35.362z M29.129,30.375c-0.964,0-1.747-0.782-1.747-1.746c0-0.964,0.782-1.746,1.747-1.746
		c0.963,0,1.746,0.782,1.746,1.746C30.875,29.593,30.092,30.375,29.129,30.375z M29.129,25.386c-0.964,0-1.747-0.781-1.747-1.746
		c0-0.964,0.782-1.746,1.747-1.746c0.963,0,1.746,0.782,1.746,1.746C30.875,24.604,30.092,25.386,29.129,25.386z M33.818,35.438
		c-0.964,0-1.747-0.781-1.747-1.746c0-0.963,0.782-1.746,1.747-1.746c0.964,0,1.746,0.782,1.746,1.746
		C35.564,34.657,34.782,35.438,33.818,35.438z M33.818,30.451c-0.964,0-1.747-0.782-1.747-1.746c0-0.964,0.782-1.746,1.747-1.746
		c0.964,0,1.746,0.782,1.746,1.746C35.564,29.668,34.782,30.451,33.818,30.451z M33.818,25.462c-0.964,0-1.747-0.782-1.747-1.746
		c0-0.964,0.782-1.747,1.747-1.747c0.964,0,1.746,0.783,1.746,1.747C35.564,24.68,34.782,25.462,33.818,25.462z M38.583,35.438
		c-0.964,0-1.747-0.781-1.747-1.746c0-0.963,0.782-1.746,1.747-1.746c0.964,0,1.746,0.782,1.746,1.746
		C40.329,34.657,39.547,35.438,38.583,35.438z M38.583,30.451c-0.964,0-1.747-0.782-1.747-1.746c0-0.964,0.782-1.746,1.747-1.746
		c0.964,0,1.746,0.782,1.746,1.746C40.329,29.668,39.547,30.451,38.583,30.451z M38.583,25.462c-0.964,0-1.747-0.782-1.747-1.746
		c0-0.964,0.782-1.747,1.747-1.747c0.964,0,1.746,0.783,1.746,1.747C40.329,24.68,39.547,25.462,38.583,25.462z M42.858,15.776
		c0,1.693-1.374,3.067-3.067,3.067H27.975c-1.693,0-3.066-1.374-3.066-3.067v-1.559c0-1.694,1.373-3.067,3.066-3.067h11.816
		c1.693,0,3.067,1.373,3.067,3.067V15.776z"/>
	<path d="M4.81,7.224H4.349c-1.794,0-3.238,1.485-3.238,3.28v25.209c0,1.794,1.444,3.242,3.238,3.242h0.344
		c-0.191-0.881-0.297-1.774-0.297-2.744V10.481C4.396,9.33,4.543,8.266,4.81,7.224z"/>
	<path d="M13.642,4.74h-3.015c-1.794,0-3.267,2.587-3.267,5.741v25.729c0,3.153,1.473,5.709,3.267,5.709h3.015
		c1.794,0,3.254-2.556,3.254-5.709V10.481C16.896,7.328,15.436,4.74,13.642,4.74z"/>
</g>
</svg>
