<?xml version="1.0" encoding="utf-8"?>
<!-- Generator: Adobe Illustrator 16.0.0, SVG Export Plug-In . SVG Version: 6.00 Build 0)  -->
<!DOCTYPE svg PUBLIC "-//W3C//DTD SVG 1.1//EN" "http://www.w3.org/Graphics/SVG/1.1/DTD/svg11.dtd">
<svg version="1.1" id="Layer_1" xmlns="http://www.w3.org/2000/svg" xmlns:xlink="http://www.w3.org/1999/xlink" x="0px" y="0px"
	 width="48px" height="48px" viewBox="0 0 48 48" enable-background="new 0 0 48 48" xml:space="preserve">
<g>
	<path d="M39.903,30.3c-0.734,0.865-1.339,1.887-1.749,3.047H9.827c-0.437-1.153-1.079-2.176-1.85-3.047H5.235
		c-1.168,0-2.326-0.332-3.331-0.945H1v2.921c0,1.291,0.84,2.686,1.523,3.277c0.543,0.469,1.694,0.945,2.712,0.945H42.78
		c2.325,0,4.235-1.898,4.235-4.222v-3.602c-1.123,1.01-2.608,1.626-4.235,1.626H39.903z"/>
	<path d="M42.78,2.933H5.235C2.91,2.933,1,4.781,1,7.105v16.862c0,1.291,0.839,2.693,1.523,3.286
		c0.543,0.47,1.694,0.945,2.712,0.945H42.78c2.325,0,4.235-1.907,4.235-4.231V7.105C47.016,4.781,45.105,2.933,42.78,2.933z
		 M43.864,19.23c-2.47,0.886-4.686,2.928-5.71,5.817H9.827c-1.054-2.784-3.311-4.829-5.675-5.755v-7.483
		c2.417-0.892,4.614-2.888,5.658-5.777H38.18c1.018,3.046,3.163,4.979,5.685,5.831V19.23z"/>
	<path d="M23.973,8.085c-4.122,0-7.463,3.341-7.463,7.464c0,4.122,3.341,7.464,7.463,7.464c4.123,0,7.464-3.342,7.464-7.464
		C31.437,11.426,28.096,8.085,23.973,8.085z M24.586,19.821v1.391h-1.313v-1.295c-0.946-0.041-1.833-0.289-2.356-0.593l0.408-1.613
		c0.579,0.317,1.39,0.606,2.285,0.606c0.786,0,1.322-0.304,1.322-0.854c0-0.524-0.442-0.855-1.462-1.2
		c-1.476-0.497-2.479-1.186-2.479-2.524c0-1.213,0.862-2.165,2.333-2.454V9.972h1.366v1.218c0.893,0.041,1.533,0.234,1.987,0.455
		l-0.404,1.558c-0.359-0.151-0.996-0.469-1.988-0.469c-0.896,0-1.187,0.386-1.187,0.772c0,0.455,0.48,0.744,1.653,1.186
		c1.641,0.579,2.295,1.337,2.295,2.579C27.048,18.498,26.162,19.546,24.586,19.821z"/>
	<path d="M39.903,38.6c-0.734,0.865-1.339,1.886-1.749,3.046H9.827c-0.437-1.152-1.079-2.176-1.85-3.046H5.235
		c-1.168,0-2.326-0.332-3.331-0.946H1v2.922c0,1.291,0.84,2.686,1.523,3.276c0.543,0.47,1.694,0.946,2.712,0.946H42.78
		c2.325,0,4.235-1.898,4.235-4.222v-3.603c-1.123,1.011-2.608,1.627-4.235,1.627H39.903z"/>
</g>
</svg>
