<?xml version="1.0" encoding="utf-8"?>
<!-- Generator: Adobe Illustrator 16.0.0, SVG Export Plug-In . SVG Version: 6.00 Build 0)  -->
<!DOCTYPE svg PUBLIC "-//W3C//DTD SVG 1.1//EN" "http://www.w3.org/Graphics/SVG/1.1/DTD/svg11.dtd">
<svg version="1.1" id="Layer_1" xmlns="http://www.w3.org/2000/svg" xmlns:xlink="http://www.w3.org/1999/xlink" x="0px" y="0px"
	 width="48px" height="48px" viewBox="0 0 48 48" enable-background="new 0 0 48 48" xml:space="preserve">
<g>
	<path d="M18.979,31.351c0,2.223,1.808,4.031,4.03,4.031c0.566,0,1.105-0.119,1.596-0.33l-5.297-5.297
		C19.096,30.244,18.979,30.784,18.979,31.351z"/>
	<path d="M30.097,17.013h-0.002c-0.269-0.104-0.47-0.334-0.539-0.613c-0.068-0.279,0.002-0.576,0.191-0.794
		c1.345-1.547,2.158-3.569,2.158-5.78c0-4.854-3.935-8.805-8.771-8.805c-3.854,0-7.131,2.511-8.301,5.989
		c-0.198,0.591-0.103,1.243,0.263,1.751c0.364,0.507,0.95,0.808,1.574,0.808c0.807,0,1.518-0.52,1.764-1.286
		c0.646-2,2.5-3.453,4.698-3.453c2.737,0,4.962,2.241,4.962,4.996c0,1.515-0.767,3.188-1.709,3.837
		c-1.021,0.703-10.151,3.372-10.151,3.372c-1.751,0.663-2.914,2.341-2.914,4.215v20.965c0,2.491,2.025,4.513,4.514,4.513h10.599
		c2.491,0,4.539-2.021,4.539-4.513V21.208C32.971,19.355,31.822,17.69,30.097,17.013z M30.383,38.724
		c-0.291,0.292-0.671,0.437-1.054,0.437c-0.38,0-0.762-0.145-1.053-0.437l-1.478-1.478c-1.094,0.705-2.396,1.115-3.79,1.115
		c-3.866,0-7.011-3.145-7.011-7.011c0-1.396,0.41-2.696,1.115-3.79l-1.478-1.479c-0.582-0.582-0.582-1.523,0-2.105
		s1.524-0.582,2.105,0l1.479,1.478c1.093-0.705,2.395-1.114,3.789-1.114c3.866,0,7.012,3.145,7.012,7.011
		c0,1.395-0.41,2.696-1.115,3.789l1.478,1.478C30.965,37.199,30.965,38.143,30.383,38.724z"/>
	<path d="M23.009,27.318c-0.566,0-1.105,0.118-1.595,0.33l5.297,5.296c0.212-0.489,0.329-1.027,0.329-1.594
		C27.04,29.127,25.231,27.318,23.009,27.318z"/>
</g>
</svg>
