<?xml version="1.0" encoding="utf-8"?>
<!-- Generator: Adobe Illustrator 16.0.0, SVG Export Plug-In . SVG Version: 6.00 Build 0)  -->
<!DOCTYPE svg PUBLIC "-//W3C//DTD SVG 1.1//EN" "http://www.w3.org/Graphics/SVG/1.1/DTD/svg11.dtd">
<svg version="1.1" id="Layer_1" xmlns="http://www.w3.org/2000/svg" xmlns:xlink="http://www.w3.org/1999/xlink" x="0px" y="0px"
	 width="48px" height="48px" viewBox="0 0 48 48" enable-background="new 0 0 48 48" xml:space="preserve">
<path d="M43.225,18.409v-1.675c0-1.922-1.558-3.495-3.479-3.495h-2.761c-1.921,0-3.479,1.573-3.479,3.495v4.693H14.971v-4.693
	c0-1.922-1.558-3.495-3.479-3.495H8.731c-1.921,0-3.479,1.573-3.479,3.495v1.675c-1.979,0-3.6,1.617-3.6,3.613v6.172
	c0,1.996,1.71,3.613,3.6,3.613v1.675c0,1.922,1.558,3.512,3.479,3.512h2.761c1.921,0,3.479-1.59,3.479-3.512v-4.677h18.536v4.677
	c0,1.922,1.558,3.512,3.479,3.512h2.761c1.921,0,3.479-1.59,3.479-3.512v-1.675c1.979,0,3.6-1.618,3.6-3.613v-6.172
	C46.824,20.026,45.114,18.409,43.225,18.409z"/>
</svg>
