<?xml version="1.0" encoding="utf-8"?>
<!-- Generator: Adobe Illustrator 16.0.0, SVG Export Plug-In . SVG Version: 6.00 Build 0)  -->
<!DOCTYPE svg PUBLIC "-//W3C//DTD SVG 1.1//EN" "http://www.w3.org/Graphics/SVG/1.1/DTD/svg11.dtd">
<svg version="1.1" id="Layer_1" xmlns="http://www.w3.org/2000/svg" xmlns:xlink="http://www.w3.org/1999/xlink" x="0px" y="0px"
	 width="48px" height="48px" viewBox="0 0 48 48" enable-background="new 0 0 48 48" xml:space="preserve">
<g>
	<path d="M33.711,2.121H14.266c-1.425,0-2.567,1.296-2.567,2.894v37.971c0,1.598,1.143,2.894,2.567,2.894h19.445
		c1.425,0,2.577-1.296,2.577-2.894V5.015C36.288,3.417,35.136,2.121,33.711,2.121z M33.723,41.953c0,0.831-0.577,1.504-1.319,1.504
		h-16.83c-0.742,0-1.357-0.673-1.357-1.504V8.383c0-0.832,0.615-1.518,1.357-1.518h16.83c0.742,0,1.319,0.686,1.319,1.518V41.953z"
		/>
	<path d="M46.854,21.55l-3.891-3.892c-0.449-0.451-1.178-0.451-1.628,0l-3.892,3.892c-0.371,0.369-0.444,0.942-0.179,1.396
		c0.264,0.452,0.804,0.669,1.308,0.527l1.732-0.482v6.537c0,0.637,0.504,1.152,1.143,1.152h1.405c0.637,0,1.132-0.516,1.132-1.152
		V22.99l1.736,0.482c0.504,0.142,1.045-0.075,1.309-0.527C47.294,22.492,47.226,21.919,46.854,21.55z"/>
	<path d="M9.736,24.607L8.021,25.09v-7.264c0-0.637-0.535-1.135-1.173-1.135H5.442c-0.638,0-1.149,0.498-1.149,1.135v7.264
		l-1.729-0.482c-0.503-0.142-1.04,0.075-1.304,0.527c-0.265,0.453-0.191,1.025,0.179,1.396l3.892,3.892
		c0.449,0.451,1.178,0.451,1.628,0l3.892-3.892c0.371-0.37,0.45-0.942,0.185-1.396C10.771,24.683,10.24,24.466,9.736,24.607z"/>
	<path d="M28.426,18.344c-0.114-1.215-1.133-2.137-2.354-2.137h-4.167c-1.221,0-2.239,0.922-2.354,2.137l-0.756,8.127
		c-0.013,0.199,0.057,0.396,0.195,0.542c0.135,0.146,0.327,0.23,0.525,0.23h1.427l0.025,13.138c0,0.4,0.352,0.705,0.752,0.705h1.211
		c0.401,0,0.723-0.301,0.723-0.701V29.473c0-0.184,0.162-0.303,0.346-0.303s0.332,0.119,0.332,0.303v10.912
		c0,0.4,0.313,0.701,0.714,0.701h1.21c0.4,0,0.739-0.301,0.739-0.701V27.243h1.466c0.198,0,0.389-0.083,0.525-0.229
		c0.139-0.145,0.208-0.339,0.194-0.538L28.426,18.344z"/>
	<circle cx="23.988" cy="12.184" r="2.992"/>
</g>
</svg>
