<?xml version="1.0" encoding="utf-8"?>
<!-- Generator: Adobe Illustrator 16.0.0, SVG Export Plug-In . SVG Version: 6.00 Build 0)  -->
<!DOCTYPE svg PUBLIC "-//W3C//DTD SVG 1.1//EN" "http://www.w3.org/Graphics/SVG/1.1/DTD/svg11.dtd">
<svg version="1.1" id="Layer_1" xmlns="http://www.w3.org/2000/svg" xmlns:xlink="http://www.w3.org/1999/xlink" x="0px" y="0px"
	 width="48px" height="48px" viewBox="0 0 48 48" enable-background="new 0 0 48 48" xml:space="preserve">
<g>
	<path d="M20.614,17.147c0.003,0,0.009-0.057,0.009-0.092c0-1.354-2.355-2.516-5.725-3.031v1.807c0,2.168-1.749,3.93-3.915,3.93
		c-2.167,0-3.915-1.762-3.915-3.93v-1.807c-3.369,0.515-5.748,1.675-5.748,3.027c0,0.036-0.017,0.096-0.013,0.096H1.303
		l3.192,27.944c0.095,0.835,0.803,1.486,1.645,1.486h9.643c0.842,0,1.55-0.651,1.645-1.486l3.192-27.944H20.614z M17.113,29.777
		l-0.569,4.548c-0.104,0.829-0.808,1.451-1.643,1.451H7.02c-0.834,0-1.539-0.628-1.643-1.456l-0.568-4.55
		C4.75,29.3,4.896,28.845,5.211,28.489c0.314-0.357,0.766-0.54,1.241-0.54h9.018c0.475,0,0.927,0.182,1.241,0.538
		S17.171,29.307,17.113,29.777z"/>
	<path d="M10.934,17.796c1.085,0,1.982-0.88,1.982-1.965v-8.16c0-0.583,0.42-1.081,0.994-1.186l6.576-1.201
		c1.067-0.196,1.775-1.22,1.58-2.287c-0.174-0.95-1.005-1.61-1.938-1.61c-0.114,0-0.23,0.011-0.347,0.03l-6.596,1.202
		C10.745,3.066,8.953,5.19,8.953,7.671v8.16C8.953,16.916,9.85,17.796,10.934,17.796z"/>
	<path d="M23.222,35.776h20.553c0.25,0,0.487-0.228,0.644-0.422c0.157-0.194,0.217-0.507,0.165-0.752
		c-1.102-5.119-5.642-8.986-11.085-8.986c-5.442,0-9.982,3.825-11.084,8.945c-0.053,0.243,0.008,0.605,0.165,0.801
		C22.736,35.557,22.972,35.776,23.222,35.776z M40.175,29.675c0.445,0,0.807,0.362,0.807,0.808c0,0.447-0.362,0.81-0.807,0.81
		c-0.446,0-0.807-0.362-0.807-0.81C39.369,30.037,39.729,29.675,40.175,29.675z M35.7,31.658c0,0.445-0.362,0.807-0.808,0.807
		s-0.807-0.361-0.807-0.807c0-0.447,0.361-0.809,0.807-0.809S35.7,31.211,35.7,31.658z M34.306,26.741
		c0.446,0,0.806,0.362,0.806,0.808s-0.36,0.807-0.806,0.807c-0.446,0-0.808-0.361-0.808-0.807S33.859,26.741,34.306,26.741z
		 M29.609,27.915c0.446,0,0.807,0.362,0.807,0.808s-0.361,0.807-0.807,0.807c-0.445,0-0.807-0.361-0.807-0.807
		S29.164,27.915,29.609,27.915z M27.262,31.437c0.446,0,0.807,0.36,0.807,0.808s-0.361,0.808-0.807,0.808
		c-0.446,0-0.808-0.36-0.808-0.808S26.815,31.437,27.262,31.437z"/>
	<path d="M43.895,41.129H23.102c-0.243,0-0.473,0.141-0.63,0.326c-0.156,0.186-0.224,0.447-0.185,0.688
		c0.806,4.956,5.512,4.398,11.212,4.398c5.7,0,10.405,0.571,11.212-4.388c0.039-0.238-0.029-0.514-0.186-0.698
		C44.368,41.269,44.137,41.129,43.895,41.129z"/>
	<path d="M45.418,36.668h-23.84c-0.873,0-1.626,0.706-1.626,1.58v0.36c0,0.873,0.754,1.529,1.626,1.529h0.287h23.266h0.287
		c0.874,0,1.587-0.656,1.587-1.529v-0.36C47.005,37.374,46.292,36.668,45.418,36.668z"/>
</g>
</svg>
