<?xml version="1.0" encoding="utf-8"?>
<!-- Generator: Adobe Illustrator 16.0.0, SVG Export Plug-In . SVG Version: 6.00 Build 0)  -->
<!DOCTYPE svg PUBLIC "-//W3C//DTD SVG 1.1//EN" "http://www.w3.org/Graphics/SVG/1.1/DTD/svg11.dtd">
<svg version="1.1" id="Layer_1" xmlns="http://www.w3.org/2000/svg" xmlns:xlink="http://www.w3.org/1999/xlink" x="0px" y="0px"
	 width="48px" height="48px" viewBox="0 0 48 48" enable-background="new 0 0 48 48" xml:space="preserve">
<path d="M40.308,1.955C40,1.716,39.619,1.631,39.241,1.725l-8.769,2.193c-0.564,0.141-0.956,0.646-0.956,1.227v0.649
	c-1.466-0.091-3.54-0.47-6-1.62C19.172,2.139,12.682,1.303,9.346,3.426C7.958,4.308,7.224,5.612,7.224,7.199
	c0,1.564,0.614,2.844,1.775,3.696C10.094,11.702,11.542,12,12.958,12c0.267,0,0.497-0.011,0.812-0.032v1.579h-1.565
	c-1.507,0-2.74,1.213-2.784,2.719L8.639,43.665C8.617,44.418,8.9,45.15,9.425,45.688c0.524,0.541,1.245,0.849,1.997,0.849h10.279
	c0.752,0,1.472-0.305,1.997-0.844c0.525-0.541,0.809-1.269,0.787-2.021l-0.783-27.407c-0.043-1.506-1.277-2.719-2.784-2.719H19.36
	V9.81c0-1.562-1.251-2.827-2.812-2.827c-1.327,0-2.433,0.914-2.736,2.148c-1.298,0.143-2.491-0.032-3.143-0.511
	c-0.268-0.198-0.621-0.557-0.621-1.421c0-0.604,0.25-1.033,0.812-1.391c2.142-1.362,7.498-0.932,11.459,0.923
	c2.914,1.364,5.401,1.804,7.197,1.894v1.054c0,0.617,0.439,1.146,1.049,1.248l8.764,1.462c0.367,0.062,0.733-0.043,1.017-0.283
	c0.284-0.24,0.43-0.595,0.43-0.966V2.952C40.776,2.563,40.615,2.195,40.308,1.955z"/>
</svg>
