<?xml version="1.0" encoding="utf-8"?>
<!-- Generator: Adobe Illustrator 16.0.0, SVG Export Plug-In . SVG Version: 6.00 Build 0)  -->
<!DOCTYPE svg PUBLIC "-//W3C//DTD SVG 1.1//EN" "http://www.w3.org/Graphics/SVG/1.1/DTD/svg11.dtd">
<svg version="1.1" id="Layer_1" xmlns="http://www.w3.org/2000/svg" xmlns:xlink="http://www.w3.org/1999/xlink" x="0px" y="0px"
	 width="48px" height="48px" viewBox="0 0 48 48" enable-background="new 0 0 48 48" xml:space="preserve">
<g>
	<path d="M15.513,23.618c0.164-0.118,0.245-0.32,0.211-0.519l-0.414-2.414c-0.029-0.172,0.028-0.348,0.153-0.47l1.755-1.709
		c0.144-0.141,0.196-0.352,0.134-0.544s-0.229-0.333-0.429-0.361l-2.424-0.352c-0.173-0.025-0.322-0.133-0.399-0.291l-1.085-2.196
		c-0.089-0.182-0.273-0.296-0.475-0.296c-0.202,0-0.387,0.114-0.477,0.296l-1.084,2.196c-0.077,0.157-0.227,0.265-0.399,0.291
		l-2.425,0.353c-0.2,0.028-0.366,0.169-0.428,0.361c-0.063,0.192-0.011,0.403,0.134,0.544l1.754,1.709
		c0.126,0.122,0.184,0.298,0.153,0.47L9.354,23.1c-0.034,0.199,0.048,0.4,0.21,0.519c0.164,0.119,0.381,0.135,0.561,0.04
		l2.168-1.139c0.154-0.082,0.339-0.082,0.493,0l2.168,1.139C15.133,23.753,15.35,23.737,15.513,23.618z"/>
	<path d="M27,23.618c0.163-0.118,0.245-0.32,0.211-0.519l-0.414-2.414c-0.03-0.172,0.027-0.348,0.153-0.47l1.753-1.709
		c0.146-0.141,0.197-0.352,0.136-0.544c-0.063-0.192-0.229-0.333-0.429-0.361l-2.424-0.352c-0.173-0.025-0.322-0.133-0.399-0.291
		l-1.085-2.196c-0.089-0.182-0.273-0.296-0.476-0.296c-0.201,0-0.386,0.114-0.476,0.296l-1.084,2.196
		c-0.077,0.157-0.228,0.265-0.399,0.291l-2.425,0.352c-0.2,0.029-0.366,0.169-0.428,0.361c-0.063,0.192-0.01,0.403,0.134,0.544
		l1.754,1.709c0.126,0.122,0.182,0.298,0.153,0.47L20.842,23.1c-0.034,0.199,0.047,0.4,0.21,0.519
		c0.164,0.119,0.381,0.135,0.56,0.04l2.169-1.139c0.154-0.082,0.339-0.082,0.493,0l2.167,1.139
		C26.62,23.753,26.837,23.737,27,23.618z"/>
	<path d="M22.666,29.088l-2.423-0.352c-0.173-0.025-0.323-0.134-0.399-0.29L18.76,26.25c-0.09-0.181-0.275-0.296-0.477-0.296
		s-0.387,0.115-0.477,0.296l-1.084,2.197c-0.076,0.156-0.227,0.265-0.399,0.29L13.9,29.088c-0.201,0.029-0.367,0.169-0.43,0.361
		c-0.062,0.192-0.011,0.403,0.135,0.544l1.754,1.71c0.125,0.122,0.182,0.297,0.152,0.469l-0.414,2.414
		c-0.033,0.199,0.048,0.401,0.212,0.519c0.163,0.119,0.38,0.135,0.559,0.041l2.168-1.14c0.154-0.082,0.34-0.082,0.494,0l2.167,1.14
		c0.179,0.094,0.395,0.078,0.559-0.041c0.164-0.118,0.246-0.32,0.212-0.519l-0.414-2.414c-0.03-0.172,0.027-0.348,0.152-0.47
		l1.755-1.71c0.144-0.141,0.196-0.352,0.134-0.544S22.866,29.118,22.666,29.088z"/>
	<path d="M34.154,29.089l-2.423-0.353c-0.173-0.025-0.323-0.134-0.4-0.29l-1.084-2.197c-0.09-0.181-0.274-0.296-0.476-0.296
		c-0.202,0-0.387,0.115-0.477,0.296l-1.084,2.197c-0.077,0.156-0.227,0.265-0.399,0.29l-2.424,0.353
		c-0.199,0.029-0.366,0.169-0.429,0.361s-0.01,0.403,0.134,0.543l1.755,1.71c0.125,0.122,0.183,0.297,0.152,0.47l-0.414,2.414
		c-0.034,0.199,0.048,0.4,0.212,0.52c0.162,0.118,0.38,0.134,0.559,0.04l2.168-1.14c0.154-0.082,0.339-0.082,0.493,0l2.168,1.14
		c0.179,0.094,0.396,0.078,0.559-0.04c0.164-0.119,0.245-0.32,0.211-0.52l-0.413-2.414c-0.03-0.172,0.027-0.348,0.152-0.47
		l1.755-1.71c0.144-0.141,0.196-0.351,0.134-0.543C34.521,29.258,34.355,29.118,34.154,29.089z"/>
	<path d="M39.897,17.601l-2.423-0.352c-0.173-0.025-0.323-0.133-0.399-0.291l-1.084-2.196c-0.09-0.182-0.273-0.296-0.477-0.296
		c-0.201,0-0.387,0.114-0.477,0.296l-1.084,2.196c-0.076,0.157-0.227,0.265-0.399,0.291l-2.423,0.352
		c-0.2,0.029-0.366,0.169-0.43,0.361c-0.062,0.192-0.01,0.403,0.135,0.544l1.754,1.709c0.125,0.122,0.183,0.298,0.152,0.47
		L32.33,23.1c-0.034,0.199,0.047,0.4,0.211,0.519c0.163,0.119,0.38,0.135,0.559,0.04l2.168-1.139c0.154-0.082,0.34-0.082,0.494,0
		l2.167,1.139c0.179,0.094,0.396,0.079,0.559-0.041c0.164-0.118,0.246-0.32,0.212-0.519l-0.414-2.414
		c-0.03-0.172,0.027-0.348,0.152-0.47l1.755-1.709c0.146-0.141,0.196-0.352,0.135-0.544C40.265,17.77,40.099,17.629,39.897,17.601z"
		/>
	<path d="M42.567,7.217H5.487C3.01,7.217,1,9.211,1,11.688v26.299C1,40.463,3.01,42.5,5.487,42.5h37.08
		c2.478,0,4.474-2.037,4.474-4.513V11.688C47.041,9.211,45.045,7.217,42.567,7.217z M43.166,37.951c0,0.316-0.256,0.572-0.571,0.572
		H5.498c-0.316,0-0.571-0.256-0.571-0.572V11.663c0-0.315,0.255-0.571,0.571-0.571h37.097c0.315,0,0.571,0.255,0.571,0.571V37.951z"
		/>
</g>
</svg>
