<?xml version="1.0" encoding="utf-8"?>
<!-- Generator: Adobe Illustrator 16.0.0, SVG Export Plug-In . SVG Version: 6.00 Build 0)  -->
<!DOCTYPE svg PUBLIC "-//W3C//DTD SVG 1.1//EN" "http://www.w3.org/Graphics/SVG/1.1/DTD/svg11.dtd">
<svg version="1.1" id="Layer_1" xmlns="http://www.w3.org/2000/svg" xmlns:xlink="http://www.w3.org/1999/xlink" x="0px" y="0px"
	 width="48px" height="48px" viewBox="0 0 48 48" enable-background="new 0 0 48 48" xml:space="preserve">
<g>
	<path d="M43.178,35.799l-30.877-0.063c-2.587-0.006-4.694-2.104-4.694-4.692V5.913c0-1.605-1.291-2.907-2.897-2.907
		c-1.606,0-2.897,1.302-2.897,2.907v26.581c0,4.993,4.044,9.049,9.038,9.06l2.037,0.005c0.138,2.906,2.546,5.229,5.486,5.229
		c2.932,0,5.335-2.31,5.485-5.205l7.448,0.016c0.159,2.889,2.558,5.189,5.484,5.189c2.918,0,5.312-2.288,5.482-5.164l0.894,0.001
		c0.001,0,0.003,0,0.005,0c1.604,0,2.905-1.304,2.908-2.907C46.084,37.111,44.784,35.801,43.178,35.799z M18.375,43.879
		c-1.425,0-2.584-1.16-2.584-2.586c0-1.424,1.159-2.584,2.584-2.584c1.426,0,2.585,1.16,2.585,2.584
		C20.959,42.719,19.8,43.879,18.375,43.879z M36.792,43.879c-1.425,0-2.585-1.16-2.585-2.586c0-1.424,1.16-2.584,2.585-2.584
		s2.585,1.16,2.585,2.584C39.377,42.719,38.217,43.879,36.792,43.879z"/>
	<path d="M31.119,12.289c0.17-0.359,0.265-0.761,0.265-1.186c0-1.531-1.241-2.772-2.773-2.772c-1.531,0-2.773,1.242-2.773,2.772
		c0,0.426,0.095,0.826,0.265,1.186c-6.999,1.162-12.38,7.141-12.68,14.359h30.375C43.5,19.43,38.118,13.451,31.119,12.289z
		 M16.531,25.623c-0.472,0-0.854-0.382-0.854-0.854c0-0.473,0.382-0.854,0.854-0.854c0.472,0,0.854,0.381,0.854,0.854
		C17.385,25.241,17.003,25.623,16.531,25.623z M26.041,15.092c-0.059,0.017-5.896,1.617-8.12,7.625
		c-0.121,0.324-0.427,0.524-0.753,0.524c-0.093,0-0.187-0.017-0.279-0.051c-0.417-0.154-0.629-0.616-0.475-1.032
		c2.523-6.813,8.95-8.55,9.222-8.621c0.429-0.113,0.868,0.147,0.979,0.577C26.727,14.543,26.469,14.98,26.041,15.092z"/>
	<path d="M12.544,33.156h32.133c1.331,0,2.409-1.121,2.409-2.451c0-1.332-1.079-2.451-2.409-2.451H12.544
		c-1.332,0-2.41,1.119-2.41,2.451C10.135,32.035,11.213,33.156,12.544,33.156z"/>
</g>
</svg>
