<?xml version="1.0" encoding="utf-8"?>
<!-- Generator: Adobe Illustrator 16.0.0, SVG Export Plug-In . SVG Version: 6.00 Build 0)  -->
<!DOCTYPE svg PUBLIC "-//W3C//DTD SVG 1.1//EN" "http://www.w3.org/Graphics/SVG/1.1/DTD/svg11.dtd">
<svg version="1.1" id="Layer_1" xmlns="http://www.w3.org/2000/svg" xmlns:xlink="http://www.w3.org/1999/xlink" x="0px" y="0px"
	 width="48px" height="48px" viewBox="0 0 48 48" enable-background="new 0 0 48 48" xml:space="preserve">
<path d="M23.863,29.277c-2.685,0-5.262,0.166-7.659,0.471V11.207l6.237-2.723c0.549-0.24,0.887-0.796,0.852-1.395
	c-0.035-0.598-0.437-1.109-1.01-1.283l-6.079-1.834V3.517c0-0.833-0.685-1.508-1.518-1.508c-0.833,0-1.518,0.675-1.518,1.508v26.708
	C5.783,31.619,0.74,34.414,0.74,37.635c0,4.615,10.353,8.357,23.123,8.357s23.123-3.742,23.123-8.357S36.633,29.277,23.863,29.277z
	 M14.689,36.315c-1.735,0-3.142-0.534-3.142-1.194c0-0.457,0.679-0.855,1.674-1.055c0.174,0.644,0.766,1.118,1.464,1.118
	s1.291-0.476,1.464-1.12c0.999,0.2,1.68,0.599,1.68,1.057C17.831,35.781,16.424,36.315,14.689,36.315z M34.921,41.656
	c-1.11,0-2.011-0.9-2.011-2.011s0.9-2.011,2.011-2.011s2.01,0.9,2.01,2.011S36.032,41.656,34.921,41.656z"/>
</svg>
