<?xml version="1.0" encoding="utf-8"?>
<!-- Generator: Adobe Illustrator 16.0.0, SVG Export Plug-In . SVG Version: 6.00 Build 0)  -->
<!DOCTYPE svg PUBLIC "-//W3C//DTD SVG 1.1//EN" "http://www.w3.org/Graphics/SVG/1.1/DTD/svg11.dtd">
<svg version="1.1" id="Layer_1" xmlns="http://www.w3.org/2000/svg" xmlns:xlink="http://www.w3.org/1999/xlink" x="0px" y="0px"
	 width="48px" height="48px" viewBox="0 0 48 48" enable-background="new 0 0 48 48" xml:space="preserve">
<g>
	<path d="M40.939,15.146c-1.007-0.208-2.093,0.264-2.54,1.188l-4.976,10.309c-0.448,0.93-0.093,2.096,0.696,2.752l3.351,2.396
		c0.579,0.414,1.313,0.55,2.001,0.37c0.689-0.181,1.262-0.657,1.565-1.302l5.265-11.207c0.295-0.629,0.304-1.356,0.021-1.992
		c-0.282-0.636-0.826-1.118-1.491-1.321L40.939,15.146z"/>
	<path d="M42.997,41.443c-7.382-5.237-11.409-3.625-16.506-1.582c-3.33,1.331-7.104,2.843-13.042,2.988
		c-2.692,0.069-6.167-0.296-7.421-2.397c-0.674-1.13-0.658-2.635-0.367-4.064c1.329,0.332,2.755-0.264,3.43-1.515l7.724-14.302
		l10.892,5.258c1.321,0.639,2.91,0.083,3.548-1.237l4.369-9.051c0.258-0.535,0.294-1.151,0.098-1.713
		c-0.196-0.562-0.607-1.022-1.142-1.279L15.36,3.271C12.222,1.756,8.449,3.071,6.933,6.21L5.922,8.305
		c-0.728,1.508-0.827,3.243-0.275,4.824c0.453,1.298,1.315,2.404,2.445,3.162L1.672,31.293c-0.572,1.336-0.118,2.861,1.025,3.684
		c-0.566,2.194-0.763,4.879,0.564,7.112c1.572,2.644,4.8,3.981,9.601,3.981c0.218,0,0.44-0.002,0.666-0.008
		c6.515-0.161,10.752-1.858,14.156-3.221c4.837-1.936,7.501-3.002,13.453,1.223c0.724,0.512,1.727,0.342,2.24-0.382
		S43.72,41.957,42.997,41.443z M9.983,9.14c0.865-1.792,3.021-2.545,4.815-1.679c1.792,0.868,2.544,3.022,1.679,4.816
		c-0.866,1.793-3.021,2.544-4.814,1.679C9.869,13.092,9.116,10.935,9.983,9.14z"/>
</g>
</svg>
