<?xml version="1.0" encoding="utf-8"?>
<!-- Generator: Adobe Illustrator 16.0.0, SVG Export Plug-In . SVG Version: 6.00 Build 0)  -->
<!DOCTYPE svg PUBLIC "-//W3C//DTD SVG 1.1//EN" "http://www.w3.org/Graphics/SVG/1.1/DTD/svg11.dtd">
<svg version="1.1" id="Layer_1" xmlns="http://www.w3.org/2000/svg" xmlns:xlink="http://www.w3.org/1999/xlink" x="0px" y="0px"
	 width="48px" height="48px" viewBox="0 0 48 48" enable-background="new 0 0 48 48" xml:space="preserve">
<g>
	<path d="M45.204,11.785c0.795,0,1.442-0.676,1.442-1.473c0-0.795-0.647-1.473-1.442-1.473h-8.639V6.967h8.639
		c0.795,0,1.442-0.644,1.442-1.439s-0.647-1.439-1.442-1.439H31.7c-1.042,0-1.894,0.818-1.894,1.859v37.586
		c0,1.04,0.852,1.855,1.894,1.855h13.504c0.795,0,1.442-0.642,1.442-1.438s-0.647-1.44-1.442-1.44h-8.639v-1.873h8.639
		c0.795,0,1.442-0.677,1.442-1.473c0-0.797-0.647-1.473-1.442-1.473h-8.639v-1.875h8.639c0.795,0,1.442-0.644,1.442-1.438
		c0-0.798-0.647-1.44-1.442-1.44h-8.639v-1.94h8.639c0.795,0,1.442-0.643,1.442-1.438c0-0.797-0.647-1.44-1.442-1.44h-8.639v-1.94
		h8.639c0.795,0,1.442-0.644,1.442-1.439s-0.647-1.439-1.442-1.439h-8.639v-1.94h8.639c0.795,0,1.442-0.644,1.442-1.44
		c0-0.795-0.647-1.438-1.442-1.438h-8.639v-1.941h8.639c0.795,0,1.442-0.643,1.442-1.44c0-0.795-0.647-1.438-1.442-1.438h-8.639
		v-1.876H45.204z"/>
	<path d="M26.502,34.395c-1.146-1.075-2.645-1.639-4.217-1.586c-0.232,0.007-0.467,0.03-0.698,0.064l-4.12-7.041l9.642-16.481
		c0.462-0.79,0.64-1.702,0.491-2.536c-0.147-0.837-0.605-1.524-1.274-1.917l-0.743-0.436c-0.488-0.285-1.155-0.05-1.492,0.526
		L14.683,21.07L5.274,4.988c-0.337-0.576-1.004-0.812-1.49-0.526L3.04,4.897C2.37,5.29,1.912,5.978,1.764,6.814
		C1.616,7.648,1.795,8.561,2.257,9.351l9.642,16.481l-4.121,7.041c-0.23-0.034-0.465-0.058-0.699-0.064
		c-1.57-0.053-3.068,0.511-4.214,1.586c-1.148,1.072-1.809,2.53-1.86,4.102c-0.095,2.85,1.858,5.353,4.644,5.946
		c0.341,0.074,0.692,0.117,1.044,0.129c1.57,0.052,3.067-0.511,4.216-1.585c1.147-1.074,1.808-2.531,1.859-4.103
		c0.042-1.244-0.308-2.42-0.944-3.402l2.86-4.889l2.86,4.889c-0.637,0.982-0.987,2.158-0.945,3.402
		c0.053,1.571,0.712,3.028,1.86,4.103c1.147,1.074,2.646,1.637,4.215,1.585c0.353-0.012,0.702-0.055,1.044-0.129
		c2.787-0.594,4.738-3.097,4.644-5.946C28.31,36.925,27.648,35.467,26.502,34.395z M9.883,38.788
		c-0.025,0.801-0.362,1.543-0.947,2.091c-0.585,0.547-1.349,0.835-2.149,0.808c-0.18-0.006-0.359-0.026-0.535-0.064
		c-1.417-0.304-2.411-1.579-2.364-3.03c0.027-0.803,0.364-1.545,0.948-2.093c0.585-0.547,1.348-0.834,2.149-0.807
		c0.18,0.006,0.36,0.027,0.534,0.064C8.937,36.061,9.931,37.335,9.883,38.788z M14.603,27.289c-0.895,0-1.623-0.727-1.623-1.623
		s0.729-1.622,1.623-1.622c0.896,0,1.624,0.726,1.624,1.622S15.498,27.289,14.603,27.289z M23.112,41.622
		c-0.173,0.038-0.354,0.059-0.534,0.064c-0.8,0.027-1.563-0.261-2.147-0.808c-0.586-0.548-0.923-1.29-0.949-2.091
		c-0.048-1.453,0.946-2.728,2.364-3.031c0.175-0.037,0.354-0.059,0.535-0.064c0.802-0.027,1.564,0.26,2.149,0.807
		c0.585,0.548,0.921,1.29,0.947,2.093C25.526,40.043,24.531,41.318,23.112,41.622z"/>
</g>
</svg>
