<?xml version="1.0" encoding="utf-8"?>
<!-- Generator: Adobe Illustrator 16.0.0, SVG Export Plug-In . SVG Version: 6.00 Build 0)  -->
<!DOCTYPE svg PUBLIC "-//W3C//DTD SVG 1.1//EN" "http://www.w3.org/Graphics/SVG/1.1/DTD/svg11.dtd">
<svg version="1.1" id="Layer_1" xmlns="http://www.w3.org/2000/svg" xmlns:xlink="http://www.w3.org/1999/xlink" x="0px" y="0px"
	 width="48px" height="48px" viewBox="0 0 48 48" enable-background="new 0 0 48 48" xml:space="preserve">
<g>
	<path d="M6.869,19.492h34.718c0.422,0,0.822-0.375,1.086-0.704c0.266-0.327,0.367-0.851,0.278-1.264
		C41.09,8.877,33.421,2.347,24.228,2.347S7.365,8.811,5.503,17.457c-0.088,0.412,0.014,1.014,0.279,1.344
		C6.047,19.129,6.447,19.492,6.869,19.492z M35.507,9.208c0.753,0,1.364,0.609,1.364,1.362c0,0.754-0.611,1.364-1.364,1.364
		c-0.753,0-1.363-0.61-1.363-1.364C34.144,9.817,34.753,9.208,35.507,9.208z M27.946,12.554c0,0.753-0.61,1.363-1.363,1.363
		c-0.753,0-1.364-0.61-1.364-1.363c0-0.754,0.61-1.363,1.364-1.363C27.335,11.19,27.946,11.8,27.946,12.554z M25.591,4.25
		c0.753,0,1.364,0.61,1.364,1.363c0,0.754-0.61,1.363-1.364,1.363s-1.363-0.609-1.363-1.363C24.228,4.86,24.837,4.25,25.591,4.25z
		 M17.658,6.233c0.753,0,1.364,0.609,1.364,1.362c0,0.754-0.61,1.364-1.364,1.364c-0.753,0-1.363-0.61-1.363-1.364
		C16.295,6.843,16.905,6.233,17.658,6.233z M13.692,12.183c0.753,0,1.363,0.609,1.363,1.362c0,0.755-0.61,1.364-1.363,1.364
		c-0.753,0-1.363-0.609-1.363-1.364C12.329,12.792,12.939,12.183,13.692,12.183z"/>
	<path d="M43.581,34.974c-0.598,0.971-1.323,1.764-2.14,2.408c0.477,0.128,0.894,0.256,1.25,0.381
		c0.189,0.066,0.315,0.245,0.315,0.445s-0.126,0.378-0.315,0.444c-2.709,0.952-8.944,2.068-18.462,2.068
		c-9.515,0-15.75-1.116-18.459-2.067c-0.189-0.066-0.316-0.245-0.316-0.445s0.126-0.379,0.315-0.446
		c0.356-0.125,0.774-0.253,1.252-0.381c-0.817-0.645-1.542-1.438-2.14-2.408c-2.094,0.779-3.477,1.827-3.477,3.235
		c0,5.222,19.014,5.487,22.825,5.487s22.826-0.266,22.826-5.487C47.054,36.8,45.672,35.754,43.581,34.974z"/>
	<path d="M41.79,28.636H6.666c-0.41,0-0.798,0.198-1.064,0.512c-0.265,0.313-0.38,0.733-0.314,1.14
		c1.363,8.37,9.312,7.419,18.94,7.419c9.628,0,17.577,0.958,18.939-7.414c0.066-0.404-0.049-0.832-0.314-1.145
		C42.588,28.834,42.2,28.636,41.79,28.636z"/>
	<path d="M4.093,26.948h0.484h39.301h0.484c1.476,0,2.67-1.178,2.67-2.654v-0.607c0-1.478-1.195-2.67-2.67-2.67H4.093
		c-1.476,0-2.667,1.192-2.667,2.67v0.607C1.426,25.771,2.618,26.948,4.093,26.948z"/>
</g>
</svg>
