<?xml version="1.0" encoding="utf-8"?>
<!-- Generator: Adobe Illustrator 16.0.0, SVG Export Plug-In . SVG Version: 6.00 Build 0)  -->
<!DOCTYPE svg PUBLIC "-//W3C//DTD SVG 1.1//EN" "http://www.w3.org/Graphics/SVG/1.1/DTD/svg11.dtd">
<svg version="1.1" id="Layer_1" xmlns="http://www.w3.org/2000/svg" xmlns:xlink="http://www.w3.org/1999/xlink" x="0px" y="0px"
	 width="48px" height="48px" viewBox="0 0 48 48" enable-background="new 0 0 48 48" xml:space="preserve">
<path d="M30.54,17.06c-0.271-0.106-0.473-0.336-0.541-0.618c-0.069-0.282,0.003-0.58,0.192-0.799
	c1.354-1.558,2.174-3.594,2.174-5.82c0-4.888-3.962-8.865-8.832-8.865c-3.881,0-7.18,2.529-8.358,6.031
	c-0.199,0.596-0.103,1.251,0.266,1.763c0.366,0.51,0.956,0.813,1.585,0.813c0.812,0,1.527-0.523,1.775-1.295
	c0.65-2.014,2.518-3.477,4.731-3.477c2.755,0,4.995,2.257,4.995,5.03c0,1.525-0.771,3.21-1.72,3.863
	c-1.028,0.708-10.231,3.396-10.231,3.396c-1.764,0.668-2.943,2.358-2.943,4.245v21.109c0,2.507,2.058,4.564,4.563,4.564h10.672
	c2.508,0,4.562-2.058,4.562-4.564V21.284C33.43,19.418,32.277,17.743,30.54,17.06z"/>
</svg>
