<?xml version="1.0" encoding="utf-8"?>
<!-- Generator: Adobe Illustrator 16.0.0, SVG Export Plug-In . SVG Version: 6.00 Build 0)  -->
<!DOCTYPE svg PUBLIC "-//W3C//DTD SVG 1.1//EN" "http://www.w3.org/Graphics/SVG/1.1/DTD/svg11.dtd">
<svg version="1.1" id="Layer_1" xmlns="http://www.w3.org/2000/svg" xmlns:xlink="http://www.w3.org/1999/xlink" x="0px" y="0px"
	 width="48px" height="48px" viewBox="0 0 48 48" enable-background="new 0 0 48 48" xml:space="preserve">
<path d="M47.119,31.509c0-3.07-1.831-5.866-4.705-6.952l-16.255-6.294l-0.051-2.079c3.113-0.892,5.405-3.759,5.405-7.156
	c0-4.107-3.339-7.448-7.445-7.448c-2.021,0-4.818,1.563-6.336,3.861c-0.38,0.571-0.414,1.324-0.088,1.929
	c0.325,0.606,0.955,1.001,1.644,1.001h0.034c0.644,0,1.238-0.364,1.555-0.925c0.668-1.189,2.072-2.018,3.195-2.018
	c1.986,0,3.606,1.622,3.606,3.607c0,1.99-1.62,3.609-3.606,3.609c-0.004,0-0.006,0-0.009,0c-0.473,0-0.928,0.183-1.259,0.518
	c-0.333,0.337-0.52,0.79-0.514,1.265l0.045,3.834L5.747,24.557C2.876,25.643,1,28.435,1,31.507v1.187
	c0,3.443,2.693,6.418,6.135,6.418h33.878c3.44,0,6.168-2.96,6.168-6.402L47.119,31.509z M43.345,32.693
	c0,1.324-1.011,2.55-2.333,2.55H7.135c-1.322,0-2.318-1.226-2.318-2.55v-1.187c0-1.484,0.892-2.833,2.278-3.356l16.999-6.44
	l16.976,6.44c1.389,0.523,2.276,1.872,2.276,3.356V32.693z"/>
</svg>
