<?xml version="1.0" encoding="utf-8"?>
<!-- Generator: Adobe Illustrator 16.0.0, SVG Export Plug-In . SVG Version: 6.00 Build 0)  -->
<!DOCTYPE svg PUBLIC "-//W3C//DTD SVG 1.1//EN" "http://www.w3.org/Graphics/SVG/1.1/DTD/svg11.dtd">
<svg version="1.1" id="Layer_1" xmlns="http://www.w3.org/2000/svg" xmlns:xlink="http://www.w3.org/1999/xlink" x="0px" y="0px"
	 width="48px" height="48px" viewBox="0 0 48 48" enable-background="new 0 0 48 48" xml:space="preserve">
<g>
	<path d="M37.86,19.464l-13.045-4.942l-0.044-1.778C27.271,12.028,29.11,9.726,29.11,7c0-3.297-2.68-5.979-5.976-5.979
		c-1.622,0-3.867,1.254-5.086,3.1c-0.305,0.46-0.332,1.064-0.07,1.55c0.261,0.486,0.767,0.804,1.319,0.804h0.027
		c0.517,0,0.994-0.293,1.248-0.743c0.536-0.955,1.663-1.62,2.564-1.62c1.595,0,2.895,1.296,2.895,2.891
		c0,1.597-1.3,2.892-2.895,2.892c-0.003,0-0.005,0-0.007,0c-0.38,0-0.745,0.151-1.011,0.421c-0.268,0.27-0.417,0.636-0.412,1.017
		l0.036,3.079L8.422,19.463c-2.305,0.872-3.818,3.114-3.818,5.579v0.953c0,2.764,2.177,5.132,4.939,5.132h1.233v-3.088H9.543
		c-1.062,0-1.853-0.981-1.853-2.044v-0.953c0-1.19,0.712-2.272,1.824-2.693l13.643-5.169l13.627,5.169
		c1.114,0.42,1.828,1.503,1.828,2.693v0.953c0,1.063-0.816,2.044-1.877,2.044h-1.154v3.088h1.154c2.761,0,4.951-2.367,4.951-5.129
		l-0.05-0.955C41.637,22.58,40.167,20.335,37.86,19.464z"/>
	<path d="M33.121,44.53c0,1.249-1.012,2.261-2.261,2.261H15.429c-1.249,0-2.261-1.012-2.261-2.261V28.094
		c0-1.249,1.012-2.261,2.261-2.261H30.86c1.249,0,2.261,1.012,2.261,2.261V44.53z"/>
</g>
</svg>
