<?xml version="1.0" encoding="utf-8"?>
<!-- Generator: Adobe Illustrator 16.0.0, SVG Export Plug-In . SVG Version: 6.00 Build 0)  -->
<!DOCTYPE svg PUBLIC "-//W3C//DTD SVG 1.1//EN" "http://www.w3.org/Graphics/SVG/1.1/DTD/svg11.dtd">
<svg version="1.1" id="Layer_1" xmlns="http://www.w3.org/2000/svg" xmlns:xlink="http://www.w3.org/1999/xlink" x="0px" y="0px"
	 width="48px" height="48px" viewBox="0 0 48 48" enable-background="new 0 0 48 48" xml:space="preserve">
<path d="M38.169,7.496c1.5,0,2.734-1.198,2.734-2.697V4.469c0-1.493-1.229-2.695-2.723-2.695H11.313h-0.265
	c-1.604,0-2.796,1.207-2.796,2.707v0.318c0,1.499,1.192,2.697,2.691,2.697h0.143V33.9h-0.143c-1.5,0-2.691,1.214-2.691,2.713v0.317
	c0,1.5,1.192,2.691,2.691,2.691h0.143v6.562h9.659v-6.68c0-1.22,1.012-2.192,2.232-2.192h3.157c1.22,0,2.223,0.972,2.223,2.192v6.68
	h9.659v-6.562h0.153c1.5,0,2.734-1.191,2.734-2.691v-0.317c0-1.95-1.707-2.713-2.734-2.713h-0.153V7.496H38.169z M20.063,32.378
	c0,0.58-0.47,1.05-1.05,1.05h-2.678c-0.58,0-1.05-0.47-1.05-1.05v-2.677c0-0.58,0.47-1.05,1.05-1.05h2.678
	c0.58,0,1.05,0.47,1.05,1.05V32.378z M20.063,25.501c0,0.58-0.47,1.05-1.05,1.05h-2.677c-0.58,0-1.05-0.47-1.05-1.05v-2.677
	c0-0.58,0.47-1.05,1.05-1.05h2.677c0.58,0,1.05,0.47,1.05,1.05V25.501z M20.063,18.625c0,0.58-0.47,1.05-1.05,1.05h-2.677
	c-0.58,0-1.05-0.47-1.05-1.05v-2.677c0-0.58,0.47-1.05,1.05-1.05h2.677c0.58,0,1.05,0.47,1.05,1.05V18.625z M20.063,11.748
	c0,0.58-0.47,1.05-1.05,1.05h-2.677c-0.58,0-1.05-0.47-1.05-1.05V9.07c0-0.58,0.47-1.05,1.05-1.05h2.677c0.58,0,1.05,0.47,1.05,1.05
	V11.748z M26.94,32.378c0,0.58-0.47,1.05-1.05,1.05h-2.678c-0.58,0-1.05-0.47-1.05-1.05v-2.677c0-0.58,0.47-1.05,1.05-1.05h2.678
	c0.58,0,1.05,0.47,1.05,1.05V32.378z M26.94,25.501c0,0.58-0.47,1.05-1.05,1.05h-2.677c-0.58,0-1.05-0.47-1.05-1.05v-2.677
	c0-0.58,0.47-1.05,1.05-1.05h2.677c0.58,0,1.05,0.47,1.05,1.05V25.501z M26.94,18.625c0,0.58-0.47,1.05-1.05,1.05h-2.678
	c-0.58,0-1.05-0.47-1.05-1.05v-2.678c0-0.58,0.47-1.05,1.05-1.05h2.678c0.58,0,1.05,0.47,1.05,1.05V18.625z M26.94,11.748
	c0,0.58-0.47,1.05-1.05,1.05h-2.678c-0.58,0-1.05-0.47-1.05-1.05V9.07c0-0.58,0.47-1.05,1.05-1.05h2.678c0.58,0,1.05,0.47,1.05,1.05
	V11.748z M33.817,32.378c0,0.58-0.47,1.05-1.05,1.05h-2.678c-0.58,0-1.05-0.47-1.05-1.05v-2.678c0-0.58,0.47-1.05,1.05-1.05h2.678
	c0.58,0,1.05,0.47,1.05,1.05V32.378z M33.817,25.501c0,0.58-0.47,1.05-1.05,1.05H30.09c-0.58,0-1.05-0.47-1.05-1.05v-2.677
	c0-0.58,0.47-1.05,1.05-1.05h2.677c0.58,0,1.05,0.47,1.05,1.05V25.501z M33.817,18.625c0,0.58-0.47,1.05-1.05,1.05h-2.678
	c-0.58,0-1.05-0.47-1.05-1.05v-2.678c0-0.58,0.47-1.05,1.05-1.05h2.678c0.58,0,1.05,0.47,1.05,1.05V18.625z M33.817,11.748
	c0,0.58-0.47,1.05-1.05,1.05h-2.678c-0.58,0-1.05-0.47-1.05-1.05V9.07c0-0.58,0.47-1.05,1.05-1.05h2.678c0.58,0,1.05,0.47,1.05,1.05
	V11.748z"/>
</svg>
