<?xml version="1.0" encoding="utf-8"?>
<!-- Generator: Adobe Illustrator 16.0.0, SVG Export Plug-In . SVG Version: 6.00 Build 0)  -->
<!DOCTYPE svg PUBLIC "-//W3C//DTD SVG 1.1//EN" "http://www.w3.org/Graphics/SVG/1.1/DTD/svg11.dtd">
<svg version="1.1" id="Layer_1" xmlns="http://www.w3.org/2000/svg" xmlns:xlink="http://www.w3.org/1999/xlink" x="0px" y="0px"
	 width="48px" height="48px" viewBox="0 0 48 48" enable-background="new 0 0 48 48" xml:space="preserve">
<g>
	<path d="M22.74,45.684c0.214,0.771,0.914,1.303,1.712,1.303c0.799,0,1.499-0.532,1.713-1.303l1.052-3.786l-5.21,1.151L22.74,45.684
		z"/>
	<path d="M16.868,14.761c-0.43-1.521-0.391-3.135,0.128-4.664c0.864-2.538,2.935-4.415,5.441-5.077
		c-0.709-0.939-1.698-1.682-2.897-2.091c-3.188-1.083-6.652,0.621-7.735,3.81c-1.086,3.188,0.619,6.653,3.808,7.739
		C16.028,14.619,16.448,14.713,16.868,14.761z"/>
	<polygon points="19.063,32.458 30.546,29.922 32.029,24.593 17.754,27.746 	"/>
	<path d="M32.324,15.132h-0.4h-2.182c0.091-0.214,0.174-0.401,0.243-0.608c1.038-3.056-0.596-6.384-3.652-7.422
		c-0.623-0.213-1.257-0.313-1.883-0.313c-2.432,0-4.703,1.538-5.531,3.971c-0.509,1.49-0.377,3.017,0.243,4.373h-2.185h-0.396
		c-0.555,0-1.079,0.253-1.415,0.696c-0.336,0.44-0.445,1.012-0.297,1.547l2.066,7.434l16.016-3.538l1.083-3.899
		c0.15-0.534,0.039-1.103-0.297-1.543C33.402,15.385,32.879,15.132,32.324,15.132z"/>
	<polygon points="21.191,40.11 28.142,38.575 29.623,33.245 19.881,35.396 	"/>
	<g>
		<path d="M32.037,14.761c0.43-1.521,0.391-3.135-0.128-4.664c-0.864-2.538-2.935-4.415-5.441-5.077
			c0.709-0.939,1.698-1.682,2.897-2.091c3.188-1.083,6.652,0.621,7.735,3.81c1.086,3.188-0.619,6.653-3.808,7.739
			C32.877,14.619,32.457,14.713,32.037,14.761z"/>
	</g>
</g>
</svg>
