<?xml version="1.0" encoding="utf-8"?>
<!-- Generator: Adobe Illustrator 16.0.0, SVG Export Plug-In . SVG Version: 6.00 Build 0)  -->
<!DOCTYPE svg PUBLIC "-//W3C//DTD SVG 1.1//EN" "http://www.w3.org/Graphics/SVG/1.1/DTD/svg11.dtd">
<svg version="1.1" id="Layer_1" xmlns="http://www.w3.org/2000/svg" xmlns:xlink="http://www.w3.org/1999/xlink" x="0px" y="0px"
	 width="48px" height="48px" viewBox="0 0 48 48" enable-background="new 0 0 48 48" xml:space="preserve">
<g>
	<path d="M42.422,36.379c-0.725-0.002-1.311-0.591-1.309-1.315l0.005-3.092c0.001-0.349-0.137-0.683-0.383-0.93
		c-0.246-0.247-0.58-0.386-0.929-0.386l-3.074-0.002c-0.726,0-1.313-0.589-1.313-1.314l0.001-2.734c0-0.35-0.139-0.685-0.386-0.931
		c-0.248-0.247-0.583-0.384-0.933-0.383l-1.378,0.005c-0.447,0.002-0.851-0.267-1.021-0.68s-0.076-0.888,0.241-1.203
		c0.249-0.247,0.388-0.581,0.389-0.929s-0.138-0.683-0.384-0.929l-2.113-2.113c1.377-4.969,0.033-10.313-3.795-14.14
		C20.317-0.422,11.052-0.44,5.327,5.285C-0.397,11.01-0.464,20.359,5.26,26.084c3.802,3.802,8.99,5.264,13.966,3.896l16.19,16.19
		c0.503,0.503,1.22,0.73,1.921,0.608l6.405-1.115c0.912-0.159,1.625-0.875,1.78-1.787l1.014-5.953
		c0.065-0.38-0.041-0.771-0.289-1.066c-0.249-0.295-0.614-0.466-1.001-0.468L42.422,36.379z M13.503,13.474
		c-1.457,1.457-3.819,1.457-5.275,0c-1.457-1.457-1.457-3.818,0-5.275c1.455-1.457,3.818-1.457,5.275,0
		C14.959,9.656,14.959,12.018,13.503,13.474z"/>
</g>
</svg>
