<?xml version="1.0" encoding="utf-8"?>
<!-- Generator: Adobe Illustrator 16.0.0, SVG Export Plug-In . SVG Version: 6.00 Build 0)  -->
<!DOCTYPE svg PUBLIC "-//W3C//DTD SVG 1.1//EN" "http://www.w3.org/Graphics/SVG/1.1/DTD/svg11.dtd">
<svg version="1.1" id="Layer_1" xmlns="http://www.w3.org/2000/svg" xmlns:xlink="http://www.w3.org/1999/xlink" x="0px" y="0px"
	 width="48px" height="48px" viewBox="0 0 48 48" enable-background="new 0 0 48 48" xml:space="preserve">
<path d="M44.734,23.119c-0.204-0.182-0.477-0.266-0.748-0.228l-1.98,0.274c-0.507,0.07-0.977-0.283-1.048-0.791l-0.304-2.168
	c-0.035-0.244-0.165-0.464-0.361-0.612c-0.197-0.149-0.445-0.212-0.689-0.179l-2.155,0.305c-0.508,0.072-0.979-0.282-1.05-0.79
	l-0.271-1.916c-0.035-0.245-0.166-0.466-0.363-0.614c-0.198-0.147-0.447-0.211-0.691-0.176l-0.965,0.141
	c-0.313,0.046-0.622-0.102-0.783-0.375c-0.161-0.271-0.141-0.613,0.049-0.866l0.001-0.001c0.149-0.197,0.213-0.444,0.179-0.688
	c-0.034-0.244-0.165-0.464-0.361-0.612l-1.691-1.27c0.469-3.621-1.003-7.229-4.066-9.53C22.858-0.42,16.365,0.49,12.923,5.07
	c-0.184,0.245-0.355,0.496-0.514,0.752c-3.289,0.012-7.102,1.23-9.043,5.484c-2.41,5.285,1.007,10.838,3.547,13.949l-1.17,0.691
	c-0.963,0.57-1.282,1.813-0.712,2.774l10.309,17.431c0.569,0.961,1.811,1.281,2.773,0.712l6.1-3.608
	c0.462-0.273,0.797-0.719,0.931-1.238c0.134-0.521,0.055-1.072-0.219-1.535l-10.308-17.43c-0.274-0.463-0.719-0.797-1.24-0.932
	c-0.52-0.133-1.072-0.055-1.535,0.219l-2.279,1.348c-2.12-2.49-5.255-7.127-3.433-11.12c1.118-2.45,3.109-3.362,4.978-3.62
	c-0.917,3.898,0.448,8.154,3.838,10.703c3.042,2.287,6.823,2.794,10.172,1.34l12.956,9.732c0.403,0.303,0.927,0.39,1.406,0.234
	l4.375-1.418c0.624-0.201,1.051-0.773,1.07-1.429l0.118-4.272C45.051,23.564,44.938,23.302,44.734,23.119z M12.119,26.455
	c0.474,0.803,0.209,1.837-0.594,2.313c-0.802,0.475-1.836,0.209-2.311-0.594c-0.121-0.205-0.193-0.424-0.222-0.646
	c0.117,0.113,0.194,0.184,0.223,0.21c0.292,0.266,0.658,0.397,1.023,0.397c0.412,0,0.823-0.167,1.123-0.496
	c0.448-0.491,0.512-1.195,0.211-1.748C11.789,26.028,11.979,26.218,12.119,26.455z M19.466,9.995
	c-0.876,1.167-2.529,1.401-3.696,0.524c-0.481-0.36-0.803-0.854-0.955-1.391c0.439,0.095,0.722,0.182,0.777,0.199
	c0.794,0.26,1.651-0.178,1.911-0.975s-0.176-1.654-0.973-1.914c-0.212-0.069-0.44-0.135-0.681-0.197
	c0.91-0.632,2.157-0.645,3.092,0.058C20.107,7.176,20.342,8.83,19.466,9.995z"/>
</svg>
