<?xml version="1.0" encoding="utf-8"?>
<!-- Generator: Adobe Illustrator 16.0.0, SVG Export Plug-In . SVG Version: 6.00 Build 0)  -->
<!DOCTYPE svg PUBLIC "-//W3C//DTD SVG 1.1//EN" "http://www.w3.org/Graphics/SVG/1.1/DTD/svg11.dtd">
<svg version="1.1" id="Layer_1" xmlns="http://www.w3.org/2000/svg" xmlns:xlink="http://www.w3.org/1999/xlink" x="0px" y="0px"
	 width="48px" height="48px" viewBox="0 0 48 48" enable-background="new 0 0 48 48" xml:space="preserve">
<g>
	<path d="M16.099,17.698c2.95,0.052,5.554-1.347,6.996-3.782l12.558,0.221c0.391,0.009,0.76-0.176,0.99-0.49l2.103-2.88
		c0.299-0.409,0.309-0.963,0.022-1.383L36.9,6.647c-0.12-0.175-0.31-0.288-0.521-0.311c-0.211-0.021-0.42,0.051-0.574,0.197
		l-1.118,1.071c-0.287,0.275-0.743,0.267-1.018-0.02l-1.175-1.224c-0.133-0.138-0.315-0.218-0.506-0.222
		c-0.191-0.003-0.376,0.069-0.514,0.202l-1.214,1.171c-0.137,0.132-0.322,0.204-0.513,0.201c-0.19-0.003-0.373-0.083-0.505-0.22
		l-1.041-1.08c-0.133-0.138-0.315-0.218-0.507-0.221c-0.192-0.003-0.377,0.07-0.514,0.204l-0.542,0.526
		c-0.176,0.171-0.42,0.22-0.645,0.121c-0.225-0.098-0.572-1.303-1.077-1.303l-1.644-0.028c-1.351-2.487-3.918-4.083-6.886-4.135
		c-4.44-0.079-8.103,3.443-8.183,7.885C8.125,13.902,11.66,17.619,16.099,17.698z M12.539,7.499c1.13,0.021,2.03,0.952,2.009,2.082
		s-0.951,2.029-2.082,2.009c-1.13-0.02-2.029-0.952-2.009-2.081C10.477,8.379,11.409,7.479,12.539,7.499z"/>
	<path d="M38.154,26.427h-4.276v-1.724c0-2.088-1.699-3.762-3.788-3.762H17.087c-2.089,0-3.818,1.674-3.818,3.762v1.724H9.024
		c-1.267,0-2.279,1.04-2.279,2.309v15.936c0,1.268,1.012,2.292,2.279,2.292h29.13c1.267,0,2.248-1.024,2.248-2.292V28.735
		C40.402,27.467,39.421,26.427,38.154,26.427z M30.913,26.427H16.234v-1.724c0-0.441,0.41-0.797,0.853-0.797h13.004
		c0.442,0,0.822,0.355,0.822,0.797V26.427z"/>
</g>
</svg>
