<?xml version="1.0" encoding="utf-8"?>
<!-- Generator: Adobe Illustrator 16.0.0, SVG Export Plug-In . SVG Version: 6.00 Build 0)  -->
<!DOCTYPE svg PUBLIC "-//W3C//DTD SVG 1.1//EN" "http://www.w3.org/Graphics/SVG/1.1/DTD/svg11.dtd">
<svg version="1.1" id="Layer_1" xmlns="http://www.w3.org/2000/svg" xmlns:xlink="http://www.w3.org/1999/xlink" x="0px" y="0px"
	 width="48px" height="48px" viewBox="0 0 48 48" enable-background="new 0 0 48 48" xml:space="preserve">
<path d="M33.666,12.553h-4.073V3.332c0-1.239-0.991-2.25-2.23-2.25h-7.48c-1.24,0-2.23,1.011-2.23,2.25v9.221h-4.073
	c-1.613,0-2.92,1.307-2.92,2.92v27.08c0,1.613,1.308,2.92,2.92,2.92h2.126c0.221,0.861,1.002,1.499,1.933,1.499
	s1.712-0.638,1.933-1.499h8.104c0.221,0.861,1.003,1.499,1.934,1.499c0.93,0,1.712-0.638,1.933-1.499h2.125
	c1.613,0,2.92-1.307,2.92-2.92v-27.08C36.586,13.859,35.279,12.553,33.666,12.553z M20.636,6.47c0-0.493,0.394-0.909,0.887-0.909
	h4.197c0.494,0,0.887,0.416,0.887,0.909v6.083h-5.972V6.47z M32.6,21.51H14.645c-0.826,0-1.496-0.666-1.496-1.494
	c0-0.826,0.67-1.492,1.496-1.492H32.6c0.827,0,1.496,0.666,1.496,1.492C34.096,20.844,33.426,21.51,32.6,21.51z"/>
</svg>
