<?xml version="1.0" encoding="utf-8"?>
<!-- Generator: Adobe Illustrator 16.0.0, SVG Export Plug-In . SVG Version: 6.00 Build 0)  -->
<!DOCTYPE svg PUBLIC "-//W3C//DTD SVG 1.1//EN" "http://www.w3.org/Graphics/SVG/1.1/DTD/svg11.dtd">
<svg version="1.1" id="Layer_1" xmlns="http://www.w3.org/2000/svg" xmlns:xlink="http://www.w3.org/1999/xlink" x="0px" y="0px"
	 width="48px" height="48px" viewBox="0 0 48 48" enable-background="new 0 0 48 48" xml:space="preserve">
<g>
	<path d="M14.778,35.198h19.42c4.313,0,7.786-3.487,7.786-7.799V27.22H6.958v0.179C6.958,31.71,10.466,35.198,14.778,35.198z"/>
	<path d="M41.984,14.984c0-4.312-3.473-7.823-7.786-7.823h-2.167V5.797c0-2.575-2.109-4.638-4.685-4.638h-5.716
		c-2.575,0-4.644,2.063-4.644,4.638v1.364h-2.209c-4.313,0-7.82,3.511-7.82,7.823v7.221h35.026V14.984z M28.992,7.162H19.95V5.797
		c0-0.919,0.762-1.675,1.681-1.675h5.716c0.919,0,1.646,0.756,1.646,1.675V7.162z"/>
	<path d="M40.505,37.629H8.472c-1.105,0-2.002,0.87-2.002,1.975c0,1.106,0.896,1.976,2.002,1.976h2.529
		c-0.519,0.559-0.836,1.306-0.836,2.129c0,1.729,1.402,3.131,3.132,3.131s3.132-1.403,3.132-3.131c0-0.823-0.317-1.571-0.835-2.129
		h17.79c-0.518,0.559-0.836,1.306-0.836,2.129c0,1.729,1.403,3.131,3.132,3.131c1.729,0,3.132-1.403,3.132-3.131
		c0-0.823-0.317-1.571-0.835-2.129h2.528c1.106,0,2.002-0.87,2.002-1.976C42.507,38.499,41.611,37.629,40.505,37.629z"/>
</g>
</svg>
