<?xml version="1.0" encoding="utf-8"?>
<!-- Generator: Adobe Illustrator 16.0.0, SVG Export Plug-In . SVG Version: 6.00 Build 0)  -->
<!DOCTYPE svg PUBLIC "-//W3C//DTD SVG 1.1//EN" "http://www.w3.org/Graphics/SVG/1.1/DTD/svg11.dtd">
<svg version="1.1" id="Layer_1" xmlns="http://www.w3.org/2000/svg" xmlns:xlink="http://www.w3.org/1999/xlink" x="0px" y="0px"
	 width="48px" height="48px" viewBox="0 0 48 48" enable-background="new 0 0 48 48" xml:space="preserve">
<g>
	<path d="M30.421,26.628c0.197-0.21,0.298-0.497,0.281-0.784l-1.087-11.677c-0.163-1.746-1.628-3.071-3.381-3.071H20.25
		c-1.752,0-3.216,1.324-3.378,3.07l-1.086,11.67c-0.019,0.288,0.083,0.58,0.279,0.79c0.196,0.208,0.471,0.34,0.758,0.34h1.09
		L16.71,33.53c-0.119,0.646,0.058,1.307,0.478,1.813c0.42,0.505,1.043,0.793,1.701,0.793l0.02,9.685
		c0,0.574,0.502,1.016,1.079,1.016h1.738c0.576,0,1.005-0.442,1.005-1.016v-9.68h0.966v9.68c0,0.573,0.49,1.016,1.065,1.016H26.5
		c0.574,0,1.06-0.442,1.06-1.016v-9.68h0.107c0.657,0,1.28-0.293,1.702-0.799c0.42-0.506,0.594-1.165,0.476-1.811l-1.202-6.566h1.02
		C29.95,26.966,30.223,26.836,30.421,26.628z M26.732,32.33c0,0.632-0.485,1.121-1.119,1.121h-4.741
		c-0.634,0-1.178-0.489-1.178-1.121v-7.297h7.038V32.33z"/>
	<circle cx="23.242" cy="5.319" r="4.297"/>
</g>
</svg>
