<?xml version="1.0" encoding="utf-8"?>
<!-- Generator: Adobe Illustrator 16.0.0, SVG Export Plug-In . SVG Version: 6.00 Build 0)  -->
<!DOCTYPE svg PUBLIC "-//W3C//DTD SVG 1.1//EN" "http://www.w3.org/Graphics/SVG/1.1/DTD/svg11.dtd">
<svg version="1.1" id="Layer_1" xmlns="http://www.w3.org/2000/svg" xmlns:xlink="http://www.w3.org/1999/xlink" x="0px" y="0px"
	 width="48px" height="48px" viewBox="0 0 48 48" enable-background="new 0 0 48 48" xml:space="preserve">
<g>
	<path d="M6.312,25.163c-2.795,0-5.031,2.286-5.031,5.082v4.656c0,2.795,2.236,5.04,5.031,5.04h18.939L10.209,25.163H6.312z"/>
	<path d="M42.58,25.163H25.029l4.021,3.995h13.521c0.616,0,1.113,0.477,1.113,1.092v4.678c0,0.614-0.497,1.153-1.113,1.153h-6.47
		l3.969,3.86h2.51c2.795,0,5.031-2.245,5.031-5.04v-4.656C47.611,27.449,45.375,25.163,42.58,25.163z"/>
	<path d="M39.241,19.282c-0.598,0.911-0.343,2.135,0.569,2.732c0.333,0.218,0.708,0.322,1.08,0.322c0.642,0,1.272-0.313,1.651-0.891
		c4.078-6.221,2.502-9,0.02-11.987c-1.249-1.503-2.328-2.799-2.328-5.391c0-1.09-0.883-1.973-1.974-1.973
		c-1.09,0-1.974,0.883-1.974,1.973c0,4.018,1.872,6.27,3.24,7.914C41.254,14.06,42.043,15.01,39.241,19.282z"/>
	<path d="M36.663,43.158c0.315-0.314,0.491-0.743,0.488-1.188s-0.185-0.871-0.504-1.182L14.443,19.147
		c-0.653-0.636-1.695-0.63-2.34,0.015c-0.239,0.239-0.479,0.479-0.719,0.719c-0.315,0.314-0.49,0.743-0.488,1.188
		c0.003,0.445,0.185,0.871,0.504,1.182l22.205,21.64c0.653,0.636,1.695,0.63,2.34-0.015C36.185,43.637,36.424,43.397,36.663,43.158z
		"/>
</g>
</svg>
