<?xml version="1.0" encoding="utf-8"?>
<!-- Generator: Adobe Illustrator 16.0.0, SVG Export Plug-In . SVG Version: 6.00 Build 0)  -->
<!DOCTYPE svg PUBLIC "-//W3C//DTD SVG 1.1//EN" "http://www.w3.org/Graphics/SVG/1.1/DTD/svg11.dtd">
<svg version="1.1" id="Layer_1" xmlns="http://www.w3.org/2000/svg" xmlns:xlink="http://www.w3.org/1999/xlink" x="0px" y="0px"
	 width="48px" height="48px" viewBox="0 0 48 48" enable-background="new 0 0 48 48" xml:space="preserve">
<g>
	<path d="M22.466,24.981c-0.205-0.593-0.738-0.805-1.464-0.552c-0.297,0.102-0.489,0.199-0.583,0.264l0.658,1.904
		c0.135-0.014,0.29-0.058,0.501-0.131C22.352,26.199,22.694,25.642,22.466,24.981z"/>
	<path d="M14.896,26.54c-0.986,0.341-1.235,1.476-0.803,2.729c0.438,1.263,1.337,1.947,2.313,1.61
		c0.985-0.341,1.226-1.472,0.793-2.726C16.798,26.995,15.901,26.192,14.896,26.54z"/>
	<path d="M46.481,33.445l-6.868-20.237l0.486-0.166c0.458-0.156,1.229-0.604,1.37-1.526c0.182-1.194-0.874-1.956-1.392-2.223
		c-0.427-0.221-16.513-7.924-16.513-7.924c-2-0.936-4.372-0.393-5.768,1.321c0,0-11.938,14.687-15.942,19.563
		c-1.166,1.42-0.605,2.644-0.26,2.98c0.531,0.518,1.361,0.519,1.819,0.361l0.799-0.335l6.867,20.238
		c0.156,0.458,0.498,0.864,0.932,1.078c0.434,0.213,0.939,0.259,1.397,0.102l31.943-10.908
		C46.301,35.442,46.803,34.396,46.481,33.445z M32.157,24.437l0.67,1.94l-1.338,0.463l-2.227-6.446l1.701-0.588l2.155,1.899
		c0.617,0.545,1.278,1.218,1.817,1.845l0.028-0.01c-0.39-0.818-0.72-1.678-1.053-2.644l-0.652-1.885l1.339-0.463l2.228,6.445
		l-1.529,0.53l-2.238-2.01c-0.62-0.557-1.329-1.243-1.906-1.89l-0.025,0.021C31.46,22.482,31.793,23.384,32.157,24.437z
		 M26.489,24.19l2.373-0.82l0.411,1.186l-2.373,0.82l0.529,1.531l2.649-0.917l0.413,1.196l-4.112,1.421l-2.23-6.446l3.979-1.375
		l0.415,1.196l-2.517,0.869L26.489,24.19z M7.354,20.292L20.142,4.6c0.519-0.635,1.399-0.836,2.141-0.489l13.656,6.38L7.354,20.292z
		 M22.264,30.03l-1.444,0.499l-2.198-6.359c0.423-0.232,1.034-0.508,1.924-0.815c0.898-0.311,1.599-0.361,2.148-0.166
		c0.524,0.184,0.987,0.624,1.205,1.255c0.217,0.63,0.192,1.238-0.064,1.733c-0.335,0.643-1,1.107-1.86,1.404
		c-0.19,0.067-0.366,0.117-0.506,0.143L22.264,30.03z M16.73,32.062c-1.913,0.662-3.531-0.396-4.165-2.231
		c-0.668-1.932,0.065-3.803,1.969-4.462c1.98-0.684,3.573,0.423,4.188,2.204C19.453,29.686,18.614,31.41,16.73,32.062z
		 M41.01,29.695l-27.773,9.501c-0.147,0.051-0.297,0.077-0.445,0.081c-0.645,0.02-1.254-0.379-1.475-1.021
		c-0.271-0.791,0.151-1.649,0.94-1.919l27.774-9.502c0.79-0.268,1.648,0.152,1.919,0.941C42.221,28.565,41.799,29.425,41.01,29.695z
		"/>
</g>
</svg>
