<?xml version="1.0" encoding="utf-8"?>
<!-- Generator: Adobe Illustrator 16.0.0, SVG Export Plug-In . SVG Version: 6.00 Build 0)  -->
<!DOCTYPE svg PUBLIC "-//W3C//DTD SVG 1.1//EN" "http://www.w3.org/Graphics/SVG/1.1/DTD/svg11.dtd">
<svg version="1.1" id="Layer_1" xmlns="http://www.w3.org/2000/svg" xmlns:xlink="http://www.w3.org/1999/xlink" x="0px" y="0px"
	 width="48px" height="48px" viewBox="0 0 48 48" enable-background="new 0 0 48 48" xml:space="preserve">
<g>
	<path d="M7.815,41.509h18.14c0.273,0,0.533-0.103,0.716-0.306c0.182-0.203,0.27-0.467,0.242-0.739
		c-0.406-3.869-2.999-7.08-6.522-8.386V4.434c0-1.936-1.552-3.505-3.488-3.505c-1.937,0-3.488,1.57-3.488,3.505v27.645
		c-3.523,1.306-6.134,4.523-6.54,8.393C6.846,40.742,6.925,41,7.108,41.202C7.291,41.405,7.542,41.509,7.815,41.509z M16.884,3.761
		c0.719,0,1.301,0.583,1.301,1.301s-0.583,1.3-1.301,1.3c-0.718,0-1.3-0.583-1.3-1.3S16.167,3.761,16.884,3.761z"/>
	<path d="M28.937,44.891c0-1.089-0.883-1.973-1.973-1.973H6.822c-1.089,0-1.973,0.883-1.973,1.973s0.883,1.973,1.973,1.973h20.142
		C28.053,46.864,28.937,45.98,28.937,44.891z"/>
	<path d="M38.393,0.922c-1.771,0-3.206,1.435-3.206,3.206v39.606c0,1.768,1.438,3.201,3.206,3.201c1.769,0,3.206-1.433,3.206-3.201
		V4.128C41.599,2.357,40.164,0.922,38.393,0.922z M38.364,44.177c-0.718,0-1.3-0.582-1.3-1.3s0.583-1.3,1.3-1.3
		c0.719,0,1.301,0.582,1.301,1.3S39.083,44.177,38.364,44.177z"/>
	<path d="M31.886,2.473h-6.465c-0.842,0-1.522,0.71-1.522,1.55c0,0.841,0.681,1.551,1.522,1.551h6.465
		c0.841,0,1.523-0.71,1.523-1.551C33.409,3.183,32.727,2.473,31.886,2.473z"/>
	<path d="M31.886,7.053h-6.465c-0.842,0-1.522,0.675-1.522,1.516c0,0.84,0.681,1.515,1.522,1.515h6.465
		c0.841,0,1.523-0.674,1.523-1.515C33.409,7.728,32.727,7.053,31.886,7.053z"/>
	<path d="M31.886,11.633h-6.465c-0.842,0-1.522,0.674-1.522,1.515c0,0.84,0.681,1.515,1.522,1.515h6.465
		c0.841,0,1.523-0.675,1.523-1.515C33.409,12.308,32.727,11.633,31.886,11.633z"/>
	<path d="M31.886,16.213h-6.465c-0.842,0-1.522,0.674-1.522,1.515c0,0.841,0.681,1.515,1.522,1.515h6.465
		c0.841,0,1.523-0.674,1.523-1.515C33.409,16.888,32.727,16.213,31.886,16.213z"/>
</g>
</svg>
