<?xml version="1.0" encoding="utf-8"?>
<!-- Generator: Adobe Illustrator 16.0.0, SVG Export Plug-In . SVG Version: 6.00 Build 0)  -->
<!DOCTYPE svg PUBLIC "-//W3C//DTD SVG 1.1//EN" "http://www.w3.org/Graphics/SVG/1.1/DTD/svg11.dtd">
<svg version="1.1" id="Layer_1" xmlns="http://www.w3.org/2000/svg" xmlns:xlink="http://www.w3.org/1999/xlink" x="0px" y="0px"
	 width="48px" height="48px" viewBox="0 0 48 48" enable-background="new 0 0 48 48" xml:space="preserve">
<g>
	<path d="M24.47,1.9c-12.44,0-22.526,10.086-22.526,22.526c0,12.444,10.086,22.53,22.526,22.53c12.444,0,22.53-10.086,22.53-22.53
		C47,11.986,36.914,1.9,24.47,1.9z M24.472,36.117c-6.455,0-11.688-5.233-11.688-11.688s5.233-11.688,11.688-11.688
		s11.688,5.232,11.688,11.688S30.927,36.117,24.472,36.117z"/>
	<path d="M27.239,24.227v-0.073c1.97-0.806,2.492-2.145,2.492-3.577c0-2.708-2.258-4.607-5.417-4.607
		c-3.16,0-5.415,1.899-5.415,4.607c0,1.433,0.529,2.771,2.498,3.577v0.073c-1.969,0.782-3.017,2.143-3.017,4.108
		c0,2.199,1.839,4.558,5.925,4.558c4.087,0,5.938-2.358,5.938-4.558C30.244,26.369,29.209,25.009,27.239,24.227z M24.307,18.563
		c1.228,0.053,1.864,0.887,1.864,1.888c0,0.976-0.703,2.059-1.864,2.059c-1.16,0-1.864-1.083-1.864-2.059
		C22.442,19.449,23.079,18.615,24.307,18.563z M24.307,30.24c-1.321,0-2.139-1.155-2.115-2.284c0-1.185,0.745-2.407,2.115-2.407
		c1.371,0,2.116,1.223,2.116,2.407C26.447,29.085,25.63,30.24,24.307,30.24z"/>
</g>
</svg>
