<?xml version="1.0" encoding="utf-8"?>
<!-- Generator: Adobe Illustrator 16.0.0, SVG Export Plug-In . SVG Version: 6.00 Build 0)  -->
<!DOCTYPE svg PUBLIC "-//W3C//DTD SVG 1.1//EN" "http://www.w3.org/Graphics/SVG/1.1/DTD/svg11.dtd">
<svg version="1.1" id="Layer_1" xmlns="http://www.w3.org/2000/svg" xmlns:xlink="http://www.w3.org/1999/xlink" x="0px" y="0px"
	 width="48px" height="48px" viewBox="0 0 48 48" enable-background="new 0 0 48 48" xml:space="preserve">
<g>
	<path d="M44.874,40.055H3.271c-1.094,0-1.98,0.887-1.98,1.98c0,1.095,0.887,1.982,1.98,1.982h41.604c1.094,0,1.98-0.888,1.98-1.982
		C46.854,40.941,45.968,40.055,44.874,40.055z"/>
	<path d="M4.741,37.82h8.899c0.175,0,0.342-0.092,0.455-0.223c0.113-0.133,0.178-0.323,0.15-0.495c-0.334-2.115-1.94-3.8-4.03-4.211
		v-0.743c0-0.547-0.461-0.99-1.009-0.99s-1.009,0.443-1.009,0.99v0.742c-2.089,0.41-3.713,2.096-4.047,4.212
		c-0.027,0.172,0.023,0.362,0.137,0.495C4.401,37.729,4.567,37.82,4.741,37.82z"/>
	<path d="M18.321,37.82H42.87c0.231,0,0.429-0.182,0.465-0.411c0.292-1.837,1.399-9.536-0.064-11.765
		c-0.987-1.503-3.522-2.535-6.273-3.193c-0.021,0.016-6.416,14.375-6.416,14.375s-6.226-14.398-6.241-14.411
		c-2.763,0.657-5.429,1.721-6.418,3.229c-1.464,2.229-0.356,9.928-0.065,11.765C17.894,37.638,18.09,37.82,18.321,37.82z"/>
	<path d="M30.596,21.713c3.786,0,6.865-3.08,6.865-6.865s-3.079-6.865-6.865-6.865c-3.785,0-6.864,3.08-6.864,6.865
		S26.811,21.713,30.596,21.713z M25.893,14.166c0.109-0.013,0.231-0.029,0.365-0.051c1.473-0.234,4.258-0.984,5.329-3.363
		c0,0,1.013,2.248,3.354,2.174c0.196,0.526,0.407,1.238,0.407,1.922c0,2.62-2.132,4.753-4.753,4.753
		c-2.62,0-4.753-2.133-4.753-4.753C25.843,14.616,25.86,14.389,25.893,14.166z"/>
	<path d="M29.832,22.618c-0.202,0-0.379,0.198-0.379,0.43v8.254c0,0.089,0.031,0.175,0.077,0.246l0.769,1.2
		c0.067,0.107,0.178,0.17,0.293,0.172s0.225-0.058,0.295-0.162l0.806-1.207c0.049-0.074,0.066-0.164,0.066-0.256v-8.247
		c0-0.231-0.144-0.43-0.347-0.43H29.832z"/>
</g>
</svg>
