<?xml version="1.0" encoding="utf-8"?>
<!-- Generator: Adobe Illustrator 16.0.0, SVG Export Plug-In . SVG Version: 6.00 Build 0)  -->
<!DOCTYPE svg PUBLIC "-//W3C//DTD SVG 1.1//EN" "http://www.w3.org/Graphics/SVG/1.1/DTD/svg11.dtd">
<svg version="1.1" id="Layer_1" xmlns="http://www.w3.org/2000/svg" xmlns:xlink="http://www.w3.org/1999/xlink" x="0px" y="0px"
	 width="48px" height="48px" viewBox="0 0 48 48" enable-background="new 0 0 48 48" xml:space="preserve">
<g>
	<path d="M20.71,32.556c0.334,0.063,0.613,0.29,0.743,0.603c0.132,0.313,0.099,0.671-0.089,0.953l-1.304,1.964l2.544,4.062V28.553
		c-2.239-0.211-4.302-1.034-6.019-2.301c-1.081,0.226-2.168,0.498-3.208,0.818l2.394,4.541L20.71,32.556z"/>
	<path d="M40.418,30.734c-0.792-1.208-2.403-2.199-4.363-2.984l-2.795,5.242c-0.146,0.27-0.403,0.461-0.704,0.518l-3.92,0.751
		l0.82,1.238c0.22,0.331,0.226,0.761,0.016,1.099l-4.763,7.607c-0.189,0.301-0.517,0.474-0.859,0.474c-0.039,0-0.193,0-0.231,0
		c-0.342,0-0.67-0.173-0.86-0.474l-4.761-7.608c-0.212-0.337-0.205-0.767,0.015-1.099l0.821-1.237l-3.921-0.751
		c-0.301-0.058-0.563-0.25-0.706-0.522l-2.762-5.237c-1.958,0.785-3.569,1.776-4.361,2.984c-2.193,3.338,0,15.975,0,15.975h33.335
		C40.418,46.709,42.611,34.072,40.418,30.734z"/>
	<path d="M26.759,32.556l4.939-0.945l2.42-4.54c-1.044-0.322-2.136-0.596-3.221-0.822c-1.721,1.272-3.792,2.098-6.039,2.306v11.583
		l2.546-4.062l-1.301-1.964c-0.188-0.282-0.222-0.641-0.089-0.953C26.146,32.846,26.425,32.619,26.759,32.556z"/>
	<path d="M23.738,25.564c4.979,0,9.029-4.051,9.029-9.028c0-3.606-2.125-6.724-5.188-8.17c0.785-0.729,1.278-1.685,1.331-2.735
		c0.003-0.063,0.005-0.125,0.005-0.188c0-2.405-2.312-4.356-5.165-4.356c-2.854,0-5.168,1.951-5.168,4.356
		c0,0.06,0.003,0.119,0.007,0.179c0.05,1.052,0.542,2.007,1.323,2.738c-3.07,1.443-5.202,4.564-5.202,8.177
		C14.711,21.514,18.761,25.564,23.738,25.564z M23.738,10.285c3.447,0,6.252,2.804,6.252,6.251c0,3.446-2.805,6.25-6.252,6.25
		c-3.446,0-6.251-2.804-6.251-6.25C17.487,13.089,20.292,10.285,23.738,10.285z"/>
</g>
</svg>
