<?xml version="1.0" encoding="utf-8"?>
<!-- Generator: Adobe Illustrator 16.0.0, SVG Export Plug-In . SVG Version: 6.00 Build 0)  -->
<!DOCTYPE svg PUBLIC "-//W3C//DTD SVG 1.1//EN" "http://www.w3.org/Graphics/SVG/1.1/DTD/svg11.dtd">
<svg version="1.1" id="Layer_1" xmlns="http://www.w3.org/2000/svg" xmlns:xlink="http://www.w3.org/1999/xlink" x="0px" y="0px"
	 width="48px" height="48px" viewBox="0 0 48 48" enable-background="new 0 0 48 48" xml:space="preserve">
<g>
	<path d="M22.296,1.333c-1.139,0-2.048,0.924-2.048,2.064v10.66c0,1.46-1.115,2.658-2.605,2.749V3.397
		c0-1.14-0.908-2.064-2.047-2.064c-1.141,0-2.048,0.924-2.048,2.064v13.408c-1.49-0.09-2.606-1.288-2.606-2.749V3.397
		c0-1.14-0.908-2.064-2.047-2.064c-1.142,0-2.049,0.924-2.049,2.064v10.66c0,3.494,2.605,6.386,5.982,6.823l-1.357,21.729
		c-0.01,0.161-0.014,0.348-0.004,0.513c0.143,2.279,2.104,4.013,4.384,3.871c2.279-0.142,4.012-2.105,3.869-4.384L18.358,20.88
		c3.378-0.437,5.985-3.329,5.985-6.823V3.397C24.344,2.257,23.437,1.333,22.296,1.333z"/>
	<path d="M37.665,42.728L36.78,2.275c0-0.455-0.229-0.875-0.621-1.103c-0.393-0.229-0.876-0.23-1.271-0.005
		c-2.557,1.461-6.681,4.332-6.681,7.634v19.081c0,1.325,0.943,2.43,2.19,2.689l-0.753,12.156c-0.009,0.157-0.009,0.339,0.001,0.5
		c0.139,2.218,2.043,3.904,4.26,3.766C36.123,46.855,37.803,44.946,37.665,42.728z"/>
</g>
</svg>
