<?xml version="1.0" encoding="utf-8"?>
<!-- Generator: Adobe Illustrator 16.0.0, SVG Export Plug-In . SVG Version: 6.00 Build 0)  -->
<!DOCTYPE svg PUBLIC "-//W3C//DTD SVG 1.1//EN" "http://www.w3.org/Graphics/SVG/1.1/DTD/svg11.dtd">
<svg version="1.1" id="Layer_1" xmlns="http://www.w3.org/2000/svg" xmlns:xlink="http://www.w3.org/1999/xlink" x="0px" y="0px"
	 width="48px" height="48px" viewBox="0 0 48 48" enable-background="new 0 0 48 48" xml:space="preserve">
<g>
	<path d="M0.982,23.94c0,10.08,6.479,18.646,15.501,21.761c0.93,0.321,1.957,0.173,2.758-0.398c0.801-0.57,1.276-1.493,1.276-2.477
		V5.054c0-0.982-0.476-1.905-1.276-2.477c-0.801-0.57-1.828-0.72-2.758-0.398C7.462,5.293,0.982,13.859,0.982,23.94z"/>
	<path d="M47.018,23.94c0-9.63-5.914-17.876-14.309-21.31c-0.938-0.384-2.006-0.275-2.847,0.29s-1.345,1.513-1.345,2.525v36.987
		c0,1.013,0.505,1.96,1.346,2.524c0.841,0.565,1.908,0.675,2.846,0.292C41.104,41.816,47.018,33.569,47.018,23.94z"/>
</g>
</svg>
