<?xml version="1.0" encoding="utf-8"?>
<!-- Generator: Adobe Illustrator 16.0.0, SVG Export Plug-In . SVG Version: 6.00 Build 0)  -->
<!DOCTYPE svg PUBLIC "-//W3C//DTD SVG 1.1//EN" "http://www.w3.org/Graphics/SVG/1.1/DTD/svg11.dtd">
<svg version="1.1" id="Layer_1" xmlns="http://www.w3.org/2000/svg" xmlns:xlink="http://www.w3.org/1999/xlink" x="0px" y="0px"
	 width="48px" height="48px" viewBox="0 0 48 48" enable-background="new 0 0 48 48" xml:space="preserve">
<g>
	<path d="M47.033,31.201c0-2.777-2.25-5.027-5.026-5.027H5.993c-2.776,0-5.026,2.25-5.026,5.027v4.622
		c0,2.776,2.25,5.026,5.026,5.026h36.014c2.776,0,5.026-2.25,5.026-5.026V31.201z M43.109,35.849c0,0.61-0.499,1.128-1.11,1.128
		H22.063v-6.879h19.936c0.611,0,1.11,0.496,1.11,1.107V35.849z"/>
	<path d="M38.692,20.314c-0.594,0.904-0.341,2.12,0.564,2.713c0.331,0.217,0.704,0.32,1.072,0.32c0.638,0,1.265-0.311,1.641-0.885
		c4.049-6.177,2.484-8.938,0.019-11.903c-1.24-1.491-2.312-2.779-2.312-5.353c0-1.082-0.877-1.96-1.959-1.96s-1.96,0.878-1.96,1.96
		c0,3.99,1.859,6.226,3.217,7.858C40.69,15.129,41.474,16.071,38.692,20.314z"/>
</g>
</svg>
