<?xml version="1.0" encoding="utf-8"?>
<!-- Generator: Adobe Illustrator 16.0.0, SVG Export Plug-In . SVG Version: 6.00 Build 0)  -->
<!DOCTYPE svg PUBLIC "-//W3C//DTD SVG 1.1//EN" "http://www.w3.org/Graphics/SVG/1.1/DTD/svg11.dtd">
<svg version="1.1" id="Layer_1" xmlns="http://www.w3.org/2000/svg" xmlns:xlink="http://www.w3.org/1999/xlink" x="0px" y="0px"
	 width="48px" height="48px" viewBox="0 0 48 48" enable-background="new 0 0 48 48" xml:space="preserve">
<g>
	<path d="M14.681,41.688c-0.783,1.15-1.364,2.367-1.691,3.754c-0.113,0.479-0.001,0.772,0.304,1.157c0.305,0.385,0.769,0.4,1.26,0.4
		h19.293c0.491,0,0.954-0.043,1.258-0.428c0.305-0.384,0.418-0.797,0.306-1.274c-0.328-1.387-0.909-2.503-1.692-3.655
		C38.567,39.441,42.515,35,44.875,31H3.524C5.884,35,9.833,39.487,14.681,41.688z"/>
	<path d="M5.018,21c-1.015,0-1.974,0.87-2.604,1.666c-0.63,0.796-0.863,1.917-0.628,2.904C1.89,26.012,2.006,27,2.134,27h44.132
		c0.128,0,0.244-0.785,0.349-1.226c0.235-0.989,0.003-2.373-0.626-3.17C45.357,21.807,44.397,21,43.381,21H5.018z"/>
	<path d="M20.108,10.369c0.615,4.392,6.027,5.862,7.934,8.43c0.125,0.169,0.345,0.238,0.544,0.172
		c0.2-0.066,0.334-0.253,0.333-0.463c-0.012-3.845-4.719-5.555-4.867-9.163c-0.144-3.524,1.735-5.849,3.167-7.098
		c0.167-0.146,0.215-0.386,0.115-0.585c-0.1-0.198-0.321-0.304-0.538-0.257C23.97,2.015,19.215,3.991,20.108,10.369z"/>
	<path d="M12.229,10.444c0.422,3.012,3.959,4.126,5.506,5.815c0.145,0.158,0.375,0.203,0.568,0.111
		c0.193-0.092,0.304-0.299,0.272-0.511c-0.365-2.457-3.389-3.699-3.489-6.157c-0.093-2.268,0.971-3.85,1.937-4.809
		c0.157-0.156,0.189-0.398,0.078-0.589c-0.111-0.191-0.337-0.283-0.55-0.225C14.495,4.647,11.635,6.2,12.229,10.444z"/>
	<path d="M27.926,10.444c0.422,3.012,3.959,4.126,5.506,5.815c0.145,0.158,0.375,0.203,0.568,0.111
		c0.193-0.092,0.304-0.299,0.272-0.511c-0.365-2.457-3.389-3.699-3.489-6.157c-0.093-2.268,0.971-3.85,1.937-4.809
		c0.157-0.156,0.189-0.398,0.078-0.589c-0.111-0.191-0.337-0.283-0.55-0.225C30.191,4.647,27.332,6.2,27.926,10.444z"/>
</g>
</svg>
