<?xml version="1.0" encoding="utf-8"?>
<!-- Generator: Adobe Illustrator 16.0.0, SVG Export Plug-In . SVG Version: 6.00 Build 0)  -->
<!DOCTYPE svg PUBLIC "-//W3C//DTD SVG 1.1//EN" "http://www.w3.org/Graphics/SVG/1.1/DTD/svg11.dtd">
<svg version="1.1" id="Layer_1" xmlns="http://www.w3.org/2000/svg" xmlns:xlink="http://www.w3.org/1999/xlink" x="0px" y="0px"
	 width="48px" height="48px" viewBox="0 0 48 48" enable-background="new 0 0 48 48" xml:space="preserve">
<g>
	<path d="M19.286,22.327l1.866,3.465c0.053,0.098,0.08,0.267,0.08,0.379l-0.01,9.506c0,0.396,0.157,0.775,0.437,1.055
		c0.28,0.28,0.659,0.438,1.056,0.438c0.822,0,1.49-0.667,1.49-1.489l0.01-9.622c0.002-0.606-0.15-1.208-0.438-1.739l-1.8-3.332
		c0.866-1.105,1.015-2.672,0.254-3.952c-0.021-0.037-0.045-0.071-0.067-0.108c1.005,0.953,2.555,1.167,3.801,0.425
		c1.47-0.872,1.977-2.747,1.168-4.239c1.001,0.802,2.433,0.945,3.601,0.252c1.208-0.718,1.765-2.11,1.477-3.414l0.163-0.096
		c0.877-0.521,1.298-1.61,1.153-2.622c-0.147-1.009-0.941-1.924-1.93-2.176l-14.73-3.755C11.699-0.017,6.454,3.116,5.14,8.282
		L1.408,23.044c-0.25,0.989,0.147,2.079,0.963,2.691c0.813,0.609,1.969,0.764,2.845,0.251c1.005,0.875,2.496,1.053,3.703,0.336
		c1.202-0.715,1.759-2.099,1.479-3.396c0.899,1.496,2.84,1.987,4.34,1.095c1.202-0.715,1.76-2.1,1.479-3.397
		C16.885,21.738,18.073,22.348,19.286,22.327z M10.111,8.404L7.255,19.753C7.084,20.43,6.478,20.88,5.81,20.88
		c-0.12,0-0.242-0.015-0.364-0.045c-0.801-0.201-1.284-1.012-1.082-1.811L7.221,7.676c0.201-0.798,1.011-1.284,1.811-1.08
		C9.83,6.795,10.314,7.605,10.111,8.404z"/>
	<path d="M42.942,44.47c0.093-0.53-0.031-1.075-0.344-1.514c-0.313-0.438-0.788-0.731-1.319-0.816l-27.281-4.328
		c-0.032-0.016-0.064-0.031-0.097-0.044c-0.007-0.005-0.013-0.012-0.018-0.019l-8.24-9.741c-0.709-0.839-1.964-0.943-2.804-0.234
		c-0.837,0.71-0.943,1.964-0.234,2.804l7.547,8.922l-4.141,3.504c-0.838,0.71-0.942,1.965-0.232,2.804
		c0.395,0.464,0.955,0.703,1.52,0.703c0.453,0,0.91-0.154,1.284-0.471l5.033-4.262l27.077,4.298
		C41.755,46.243,42.757,45.529,42.942,44.47z"/>
</g>
</svg>
