<?xml version="1.0" encoding="utf-8"?>
<!-- Generator: Adobe Illustrator 16.0.0, SVG Export Plug-In . SVG Version: 6.00 Build 0)  -->
<!DOCTYPE svg PUBLIC "-//W3C//DTD SVG 1.1//EN" "http://www.w3.org/Graphics/SVG/1.1/DTD/svg11.dtd">
<svg version="1.1" id="Layer_1" xmlns="http://www.w3.org/2000/svg" xmlns:xlink="http://www.w3.org/1999/xlink" x="0px" y="0px"
	 width="48px" height="48px" viewBox="0 0 48 48" enable-background="new 0 0 48 48" xml:space="preserve">
<path d="M42.085,7.072c-0.054-0.011-0.107-0.017-0.161-0.02l0.001-0.01l-30.88-5.61l-0.002,0.011
	c-1.725-0.092-3.724,3.28-4.528,7.711c-0.805,4.43-0.233,8.246,1.414,8.769l6.322,1.182v6.816c0,0.432,0.008,1.019-0.036,1.153
	c0,0.001-0.117,0.175-0.572,0.461l-6.617,3.967v-3.656c0-0.716-0.56-1.304-1.276-1.304H2.738c-0.717,0-1.273,0.588-1.273,1.304
	v17.583c0,0.717,0.557,1.297,1.273,1.297h3.011c0.717,0,1.276-0.58,1.276-1.297v-7.021l9.731-5.829
	c3.435-2.164,3.457-4.655,3.457-6.658v-5.733c0,0,18.811,3.417,18.863,3.427c1.76,0.323,3.86-3.123,4.69-7.691
	C44.597,11.354,43.844,7.391,42.085,7.072z M12.284,7.148c-0.803-0.145-1.337-0.914-1.19-1.72c0.146-0.804,0.913-1.339,1.721-1.191
	l22.059,4.008c0.804,0.145,1.337,0.916,1.189,1.721c-0.13,0.714-0.751,1.215-1.453,1.215c-0.087,0-0.177-0.009-0.268-0.024
	L12.284,7.148z M40.765,15.477c-0.563,3.093-1.982,5.425-3.175,5.207c-0.913-0.165-1.428-1.785-1.361-3.927
	c1.011-0.002,1.909-0.725,2.097-1.754s-0.395-2.017-1.338-2.378c0.693-1.994,1.732-3.302,2.637-3.137
	C40.816,9.702,41.326,12.386,40.765,15.477z"/>
</svg>
