<?xml version="1.0" encoding="utf-8"?>
<!-- Generator: Adobe Illustrator 16.0.0, SVG Export Plug-In . SVG Version: 6.00 Build 0)  -->
<!DOCTYPE svg PUBLIC "-//W3C//DTD SVG 1.1//EN" "http://www.w3.org/Graphics/SVG/1.1/DTD/svg11.dtd">
<svg version="1.1" id="Layer_1" xmlns="http://www.w3.org/2000/svg" xmlns:xlink="http://www.w3.org/1999/xlink" x="0px" y="0px"
	 width="48px" height="48px" viewBox="0 0 48 48" enable-background="new 0 0 48 48" xml:space="preserve">
<g>
	<path d="M29.315,20.045L39.603,5.838c0.967-1.346,0.659-3.22-0.687-4.187c-1.346-0.968-3.221-0.659-4.187,0.687L24.541,16.611
		c-1.11-0.692-2.371-1.076-3.69-1.076c-1.78,0-3.479,0.669-4.781,1.883L3.236,29.384c-0.873,0.815-1.187,2.072-0.799,3.201
		c0.389,1.131,1.409,1.929,2.6,2.033l3.191,0.299l1.993,5.033c0.352,0.889,1.112,1.566,2.035,1.813l5.042,1.355l1.153,1.945
		c0.542,0.916,1.541,1.485,2.606,1.485l0.166-0.004c1.132-0.063,2.126-0.742,2.594-1.775l7.45-16.435
		C32.58,25.442,31.742,22.04,29.315,20.045z M8.617,31.933c-0.051-0.007-3.335-0.355-3.335-0.355l7.405-6.904l1.881,1.351
		L8.617,31.933z M16.83,39.877l-3.818-1.03l-1.994-5.034c-0.003-0.009-0.008-0.016-0.012-0.024l6.033-5.989l3.979,2.858
		L16.83,39.877z M21.22,43.467c0,0-1.47-2.076-1.592-2.215l3.912-8.754l2.024,1.608L21.22,43.467z M28.536,27.098l-1.805,3.972
		l-11.807-8.482l3.19-2.975c0.745-0.694,1.717-1.077,2.735-1.077c0.843,0,1.651,0.261,2.337,0.754l4.036,2.897
		C28.771,23.298,29.322,25.363,28.536,27.098z"/>
	<circle cx="31.787" cy="43.083" r="3.583"/>
	<circle cx="38.347" cy="41.357" r="1.857"/>
	<circle cx="42.705" cy="44.38" r="1.167"/>
</g>
</svg>
