<?xml version="1.0" encoding="utf-8"?>
<!-- Generator: Adobe Illustrator 16.0.0, SVG Export Plug-In . SVG Version: 6.00 Build 0)  -->
<!DOCTYPE svg PUBLIC "-//W3C//DTD SVG 1.1//EN" "http://www.w3.org/Graphics/SVG/1.1/DTD/svg11.dtd">
<svg version="1.1" id="Layer_1" xmlns="http://www.w3.org/2000/svg" xmlns:xlink="http://www.w3.org/1999/xlink" x="0px" y="0px"
	 width="48px" height="48px" viewBox="0 0 48 48" enable-background="new 0 0 48 48" xml:space="preserve">
<g>
	<path d="M16.667,1.391h-4.561c-1.168,0-2.116,0.946-2.116,2.114c0,1.169,0.947,2.113,2.116,2.113h2.648
		c0.29,0,0.502,0.239,0.502,0.528v6.956l-4.749,3.173v-3.579c0-1.57-1.262-2.85-2.833-2.85h-4.56C1.948,9.847,1,10.793,1,11.961
		s0.947,2.113,2.116,2.113h2.648c0.29,0,0.516,0.245,0.516,0.534v29.886c0,1.168,0.946,2.115,2.114,2.115
		c1.168,0,2.114-0.947,2.114-2.115v-7.48l4.749-3.174v2.192c0,1.168,0.946,2.115,2.114,2.115c1.168,0,2.114-0.947,2.114-2.115V4.234
		C19.486,2.664,18.238,1.391,16.667,1.391z M15.258,16.916v4.648l-4.749,3.173v-4.648L15.258,16.916z M10.509,33.199v-4.648
		l4.749-3.173v4.648L10.509,33.199z"/>
	<path d="M27.779,25.668c2.521,0,5.103-1.479,7.24-2.704c4.448-2.549,6.791-3.467,9.044-0.843c0.571,0.665,1.572,0.739,2.237,0.169
		c0.665-0.571,0.741-1.571,0.169-2.237c-4.208-4.9-9.307-1.976-13.029,0.157c-4.613,2.646-6.542,3.356-8.498,0.284
		c-0.471-0.738-1.451-0.954-2.19-0.486c-0.739,0.471-0.957,1.452-0.486,2.19C23.911,24.781,25.827,25.668,27.779,25.668z"/>
	<path d="M33.441,28.058c-4.613,2.645-6.542,3.355-8.498,0.284c-0.471-0.739-1.451-0.955-2.19-0.486
		c-0.739,0.471-0.957,1.452-0.486,2.19c1.645,2.581,3.56,3.47,5.512,3.47c2.521,0,5.104-1.48,7.24-2.705
		c4.45-2.551,6.792-3.465,9.044-0.843c0.571,0.666,1.572,0.74,2.237,0.169c0.665-0.571,0.741-1.572,0.169-2.237
		C42.26,23.001,37.163,25.924,33.441,28.058z"/>
	<path d="M33.441,35.904c-4.613,2.644-6.542,3.355-8.498,0.283c-0.471-0.738-1.451-0.955-2.19-0.486
		c-0.739,0.472-0.957,1.452-0.486,2.191c1.645,2.582,3.56,3.47,5.513,3.47c2.521,0,5.103-1.48,7.24-2.705
		c4.448-2.549,6.791-3.465,9.044-0.843c0.571,0.666,1.572,0.74,2.237,0.17c0.665-0.571,0.741-1.572,0.169-2.237
		C42.262,30.848,37.163,33.771,33.441,35.904z"/>
</g>
</svg>
