<?xml version="1.0" encoding="utf-8"?>
<!-- Generator: Adobe Illustrator 16.0.0, SVG Export Plug-In . SVG Version: 6.00 Build 0)  -->
<!DOCTYPE svg PUBLIC "-//W3C//DTD SVG 1.1//EN" "http://www.w3.org/Graphics/SVG/1.1/DTD/svg11.dtd">
<svg version="1.1" id="Layer_1" xmlns="http://www.w3.org/2000/svg" xmlns:xlink="http://www.w3.org/1999/xlink" x="0px" y="0px"
	 width="48px" height="48px" viewBox="0 0 48 48" enable-background="new 0 0 48 48" xml:space="preserve">
<path d="M45.283,16.293h-2.695c-0.89,0-1.648,0.75-1.648,1.639c0,0,0.022,0.803,0.024,0.842l-0.897,0.966l-1.079-4.171
	c-0.683-2.631-3.057-4.482-5.774-4.482h-2.258V7.736c0-1.152-0.769-2.195-1.92-2.195h-10.2c-1.152,0-1.875,1.043-1.875,2.195v3.352
	h-2.295c-2.717,0-5.091,1.852-5.774,4.482l-1.072,4.139l-0.868-0.934c0.002-0.04,0.025-0.842,0.025-0.842
	c0-0.889-0.759-1.639-1.649-1.639H2.63c-0.89,0-1.63,0.75-1.63,1.639v0.724c0,0.889,0.74,1.648,1.63,1.648h2.695
	c0.085,0,0.168-0.027,0.25-0.04l0.967,1.03c-1.912,0.497-3.324,2.238-3.324,4.305v7.247c0,2.206,1.622,4.036,3.755,4.381v4.606
	c0,0.975,0.752,1.769,1.727,1.769h4.674c0.975,0,1.791-0.793,1.791-1.769v-4.546h17.581v4.546c0,0.975,0.758,1.769,1.733,1.769
	h4.674c0.974,0,1.786-0.793,1.786-1.769v-4.596c2.133-0.321,3.755-2.165,3.755-4.391v-7.247c0-2.069-1.416-3.806-3.33-4.299
	l0.974-1.036c0.082,0.013,0.165,0.04,0.25,0.04h2.695c0.89,0,1.63-0.759,1.63-1.648v-0.724
	C46.913,17.043,46.172,16.293,45.283,16.293z M9.583,31.832c-1.461,0-2.646-1.186-2.646-2.647c0-1.463,1.185-2.647,2.646-2.647
	c1.463,0,2.647,1.185,2.647,2.647C12.23,30.646,11.046,31.832,9.583,31.832z M32.747,30.273c0,0.904-0.733,1.637-1.637,1.637H16.803
	c-0.904,0-1.637-0.733-1.637-1.637v-2.103c0-0.904,0.733-1.637,1.637-1.637h14.306c0.904,0,1.637,0.733,1.637,1.637V30.273z
	 M10.534,21.158l1.251-4.84c0.34-1.312,1.523-2.244,2.878-2.244h18.549c1.355,0,2.539,0.932,2.878,2.244l1.251,4.84H10.534z
	 M38.601,31.832c-1.461,0-2.647-1.186-2.647-2.647c0-1.463,1.186-2.647,2.647-2.647c1.462,0,2.646,1.185,2.646,2.647
	C41.247,30.646,40.063,31.832,38.601,31.832z"/>
</svg>
