<?xml version="1.0" encoding="utf-8"?>
<!-- Generator: Adobe Illustrator 16.0.0, SVG Export Plug-In . SVG Version: 6.00 Build 0)  -->
<!DOCTYPE svg PUBLIC "-//W3C//DTD SVG 1.1//EN" "http://www.w3.org/Graphics/SVG/1.1/DTD/svg11.dtd">
<svg version="1.1" id="Layer_1" xmlns="http://www.w3.org/2000/svg" xmlns:xlink="http://www.w3.org/1999/xlink" x="0px" y="0px"
	 width="48px" height="48px" viewBox="0 0 48 48" enable-background="new 0 0 48 48" xml:space="preserve">
<g>
	<path d="M4.104,3.445c-2.143,0.748-3.181,3.354-2.32,5.821l12.005,34.417c0.86,2.468,3.295,3.861,5.437,3.115l3.033-1.059
		L7.136,2.389L4.104,3.445z"/>
	<path d="M15.001,13.387c0.688-0.24,1.251-0.742,1.568-1.398c0.317-0.655,0.36-1.41,0.12-2.098l-2.466-7.068
		c-0.24-0.688-0.743-1.25-1.399-1.567c-0.655-0.317-1.409-0.359-2.097-0.12l-2.12,0.74l4.273,12.252L15.001,13.387z"/>
	<path d="M25.072,33.924c-0.239-0.688-0.743-1.252-1.398-1.568c-0.655-0.316-1.411-0.359-2.098-0.12l-2.121,0.739l4.274,12.253
		l2.121-0.739c1.431-0.5,2.187-2.064,1.688-3.497L25.072,33.924z"/>
	<path d="M26.111,19.24l0.584-0.5c0.939-0.84,1.721-1.708,1.721-2.797c0-1.179-0.813-2.037-2.281-2.037
		c-0.879,0-1.64,0.3-2.129,0.669l0.429,1.089c0.339-0.26,0.828-0.539,1.388-0.539c0.749,0,1.068,0.419,1.068,0.949
		c-0.021,0.758-0.707,1.488-2.125,2.756l-0.836,0.76v0.902h4.613v-1.247h-2.431V19.24z"/>
	<path d="M33.592,14.008h-1.856l-2.446,3.963v0.963h2.868v1.559h1.434v-1.559h0.811v-1.123h-0.811V14.008z M32.159,16.383v1.428
		h-1.434v-0.01l0.855-1.408c0.22-0.41,0.376-0.826,0.586-1.2h0.04C32.176,15.566,32.159,15.993,32.159,16.383z"/>
	<path d="M38.125,15.514c-0.279,0-0.566,0.064-0.786,0.184c-0.239,0.131-0.436,0.305-0.596,0.492H36.71v-2.742h-1.497v7.045h1.497
		v-2.88c0-0.11,0.017-0.241,0.058-0.341c0.11-0.27,0.367-0.529,0.766-0.529c0.569,0,0.797,0.439,0.797,1.079v2.671h1.496v-2.84
		C39.827,16.184,39.094,15.514,38.125,15.514z"/>
	<path d="M31.882,3.156c-8.072,0-14.639,6.566-14.639,14.639c0,8.071,6.567,14.639,14.639,14.639
		c8.071,0,14.638-6.567,14.638-14.639C46.52,9.723,39.953,3.156,31.882,3.156z M31.882,28.439c-5.871,0-10.646-4.775-10.646-10.645
		S26.012,7.148,31.882,7.148c5.869,0,10.645,4.777,10.645,10.646S37.751,28.439,31.882,28.439z"/>
</g>
</svg>
