<?xml version="1.0" encoding="utf-8"?>
<!-- Generator: Adobe Illustrator 16.0.0, SVG Export Plug-In . SVG Version: 6.00 Build 0)  -->
<!DOCTYPE svg PUBLIC "-//W3C//DTD SVG 1.1//EN" "http://www.w3.org/Graphics/SVG/1.1/DTD/svg11.dtd">
<svg version="1.1" id="Layer_1" xmlns="http://www.w3.org/2000/svg" xmlns:xlink="http://www.w3.org/1999/xlink" x="0px" y="0px"
	 width="48px" height="48px" viewBox="0 0 48 48" enable-background="new 0 0 48 48" xml:space="preserve">
<g>
	<path d="M28.108,39.341c0,0.972,0.398,1.851,1.04,2.485c0.321-0.709,0.503-1.494,0.503-2.322c0-0.914-0.221-1.777-0.607-2.54
		C28.465,37.588,28.108,38.424,28.108,39.341z"/>
	<path d="M18.395,39.504c0,0.828,0.18,1.613,0.502,2.321c0.64-0.634,1.038-1.514,1.038-2.484c0-0.917-0.354-1.753-0.934-2.376
		C18.613,37.728,18.395,38.59,18.395,39.504z"/>
	<path d="M25.923,39.341c0-1.614,0.678-3.073,1.762-4.108c-0.984-0.844-2.263-1.355-3.662-1.355s-2.679,0.512-3.663,1.356
		c1.083,1.035,1.761,2.493,1.761,4.107c0,1.701-0.753,3.229-1.94,4.271c1.005,0.941,2.356,1.519,3.843,1.519
		s2.837-0.577,3.843-1.518C26.676,42.57,25.923,41.042,25.923,39.341z"/>
	<path d="M44.644,5.177c-1.822-1.981-4.421-3.028-7.514-3.028c-4.266,0-8.885,1.998-12.672,5.484
		c-6.134,5.641-8.205,13.596-5.123,18.597l-5.345,4.917c-1.105-0.385-2.381-0.166-3.303,0.682l-8.629,7.938
		c-1.331,1.226-1.42,3.301-0.192,4.633c0.646,0.703,1.527,1.06,2.413,1.06c0.793,0,1.59-0.287,2.22-0.866l8.628-7.938
		c0.862-0.795,1.203-1.946,1.002-3.021l5.421-4.987c1.692,1.265,3.836,1.927,6.292,1.927c4.266,0,8.886-2,12.674-5.485
		c3.167-2.912,5.37-6.522,6.205-10.166C47.606,11.057,46.869,7.595,44.644,5.177z M37.208,11.422l1.247,5.198l-5.067-1.685
		l-1.257-5.189L37.208,11.422z M35.789,5.514l0.818,3.408l-5.082-1.678l-0.102-0.417C32.879,6.141,34.362,5.691,35.789,5.514z
		 M26.677,10.045c0.588-0.539,1.202-1.039,1.834-1.494l1.178,0.389l1.254,5.183l-4.986-1.659l-0.33-1.373
		C25.96,10.732,26.31,10.384,26.677,10.045z M23.438,13.929l0.675,0.225l1.229,5.139l-3.748-1.233
		C21.964,16.693,22.586,15.289,23.438,13.929z M22.743,25.326c-1.188-1.291-1.671-3.091-1.529-5.092l4.724,1.555l1.313,5.488
		C25.823,27.188,24.051,26.748,22.743,25.326z M27.78,20.096l-1.227-5.13l4.995,1.661l1.24,5.117L27.78,20.096z M29.473,27.17
		l-1.095-4.577l5.016,1.651l0.375,1.545C32.341,26.487,30.883,26.959,29.473,27.17z M38.296,22.676
		c-0.239,0.221-0.484,0.434-0.732,0.641l-2.331-0.768l-1.238-5.108l5.062,1.683l0.537,2.246
		C39.187,21.818,38.754,22.256,38.296,22.676z M43.524,14.19c-0.298,1.3-0.738,2.376-1.448,3.635l0,0l-1.179-0.392l-1.249-5.205
		l4.004,1.322C43.617,13.762,43.574,13.975,43.524,14.19z M39.049,9.729l-1.021-4.26c1.369,0.131,2.986,0.604,4.204,1.928
		c0.93,1.012,1.455,2.348,1.556,3.896L39.049,9.729z"/>
</g>
</svg>
