<?xml version="1.0" encoding="utf-8"?>
<!-- Generator: Adobe Illustrator 16.0.0, SVG Export Plug-In . SVG Version: 6.00 Build 0)  -->
<!DOCTYPE svg PUBLIC "-//W3C//DTD SVG 1.1//EN" "http://www.w3.org/Graphics/SVG/1.1/DTD/svg11.dtd">
<svg version="1.1" id="Layer_1" xmlns="http://www.w3.org/2000/svg" xmlns:xlink="http://www.w3.org/1999/xlink" x="0px" y="0px"
	 width="48px" height="48px" viewBox="0 0 48 48" enable-background="new 0 0 48 48" xml:space="preserve">
<g>
	<path d="M17.167,32.421V5.745c0-2.005-1.641-3.624-3.645-3.624h-0.679c-2.006,0-3.643,1.619-3.643,3.624V32.42
		c-2.318,1.372-3.938,3.925-3.938,6.848c0,4.372,3.547,7.915,7.916,7.915c4.372,0,7.923-3.543,7.923-7.915
		C21.102,36.345,19.484,33.792,17.167,32.421z M13.182,43.178c-2.158,0-3.909-1.75-3.909-3.91c0-2.159,1.751-3.909,3.909-3.909
		c2.161,0,3.911,1.75,3.911,3.909C17.093,41.428,15.343,43.178,13.182,43.178z"/>
	<path d="M20.938,6.332c-0.42-0.061-0.854,0.063-1.175,0.341c-0.321,0.277-0.516,0.681-0.516,1.105v0.056
		c0,0.727,0.54,1.34,1.258,1.446c4.148,0.613,7.349,4.197,7.349,8.514s-3.202,7.9-7.35,8.513c-0.718,0.106-1.257,0.722-1.257,1.446
		v0.106c0,0.41,0.187,0.801,0.497,1.07s0.727,0.391,1.134,0.332c5.616-0.795,9.955-5.634,9.955-11.468
		C30.833,11.979,26.527,7.151,20.938,6.332z"/>
	<path d="M44.358,16.329H33.439c-0.821,0-1.488,0.663-1.488,1.484c0,0.822,0.667,1.487,1.488,1.487h10.919
		c0.822,0,1.488-0.665,1.488-1.487C45.847,16.992,45.181,16.329,44.358,16.329z"/>
	<path d="M32.061,12.229c0.382,0,0.763-0.146,1.054-0.438l7.719-7.72c0.582-0.581,0.582-1.523,0-2.105
		c-0.582-0.581-1.523-0.581-2.104,0l-7.72,7.721c-0.582,0.581-0.582,1.522,0,2.104C31.3,12.082,31.681,12.229,32.061,12.229z"/>
	<path d="M33.114,24.001c-0.581-0.581-1.523-0.581-2.105,0s-0.582,1.524,0,2.105l7.72,7.72c0.291,0.29,0.672,0.437,1.052,0.437
		c0.383,0,0.763-0.146,1.053-0.437c0.582-0.582,0.582-1.524,0-2.105L33.114,24.001z"/>
</g>
</svg>
