<?xml version="1.0" encoding="utf-8"?>
<!-- Generator: Adobe Illustrator 16.0.0, SVG Export Plug-In . SVG Version: 6.00 Build 0)  -->
<!DOCTYPE svg PUBLIC "-//W3C//DTD SVG 1.1//EN" "http://www.w3.org/Graphics/SVG/1.1/DTD/svg11.dtd">
<svg version="1.1" id="Layer_1" xmlns="http://www.w3.org/2000/svg" xmlns:xlink="http://www.w3.org/1999/xlink" x="0px" y="0px"
	 width="48px" height="48px" viewBox="0 0 48 48" enable-background="new 0 0 48 48" xml:space="preserve">
<g>
	<g>
		<path d="M16.074,32.105c0,0-0.002-0.001-0.003-0.002V5.189c0-2.024-1.638-3.682-3.661-3.682h-0.684
			c-2.023,0-3.658,1.657-3.658,3.682v26.912c-0.002,0.001-0.003,0.002-0.006,0.004c-2.38,1.382-3.979,3.958-3.979,6.909
			c0,4.41,3.576,7.985,7.985,7.985c4.41,0,7.985-3.575,7.985-7.985C20.054,36.064,18.454,33.487,16.074,32.105z M12.068,42.959
			c-2.179,0-3.945-1.766-3.945-3.944c0-2.18,1.767-3.946,3.945-3.946s3.945,1.767,3.945,3.946
			C16.014,41.193,14.247,42.959,12.068,42.959z"/>
		<path d="M44.692,21.735h-8.988l5.204-5.214c0.586-0.588,0.586-1.542,0-2.13c-0.588-0.587-1.538-0.579-2.125,0.009l-7.327,7.335
			H19.42c-0.829,0-1.502,0.65-1.502,1.48c0,0.829,0.673,1.48,1.502,1.48h11.993l7.37,7.382c0.293,0.293,0.677,0.445,1.062,0.445
			s0.77-0.144,1.063-0.438c0.586-0.587,0.586-1.547,0-2.134l-5.247-5.256h9.031c0.829,0,1.503-0.651,1.503-1.48
			C46.195,22.386,45.521,21.735,44.692,21.735z"/>
		<path d="M19.42,17.596c0.385,0,0.77-0.144,1.063-0.438l3.556-3.552h8.019c0.829,0,1.502-0.684,1.502-1.513
			c0-0.83-0.673-1.512-1.502-1.512h-5.014l1.229-1.223c0.586-0.587,0.586-1.533,0-2.12c-0.587-0.587-1.531-0.585-2.117,0.002
			L24.83,8.573V2.911c0-0.831-0.683-1.503-1.513-1.503c-0.828,0-1.512,0.672-1.512,1.503v8.644c0,0.007,0.004,0.016,0.004,0.022
			l-3.453,3.455c-0.587,0.587-0.586,1.537,0.001,2.124C18.651,17.449,19.035,17.596,19.42,17.596z"/>
	</g>
	<path d="M19.42,28.414c0.385,0,0.77,0.144,1.063,0.438l3.556,3.552h8.019c0.829,0,1.502,0.684,1.502,1.513
		c0,0.83-0.673,1.512-1.502,1.512h-5.014l1.229,1.223c0.586,0.587,0.586,1.533,0,2.12c-0.587,0.587-1.531,0.585-2.117-0.002
		l-1.324-1.332v5.662c0,0.831-0.683,1.503-1.513,1.503c-0.828,0-1.512-0.672-1.512-1.503v-8.644c0-0.007,0.004-0.016,0.004-0.022
		l-3.453-3.455c-0.587-0.587-0.586-1.537,0.001-2.124C18.651,28.561,19.035,28.414,19.42,28.414z"/>
</g>
</svg>
