<?xml version="1.0" encoding="utf-8"?>
<!-- Generator: Adobe Illustrator 16.0.0, SVG Export Plug-In . SVG Version: 6.00 Build 0)  -->
<!DOCTYPE svg PUBLIC "-//W3C//DTD SVG 1.1//EN" "http://www.w3.org/Graphics/SVG/1.1/DTD/svg11.dtd">
<svg version="1.1" id="Layer_1" xmlns="http://www.w3.org/2000/svg" xmlns:xlink="http://www.w3.org/1999/xlink" x="0px" y="0px"
	 width="48px" height="48px" viewBox="0 0 48 48" enable-background="new 0 0 48 48" xml:space="preserve">
<g>
	<path d="M17.932,14.166c-0.162-1.736-1.618-3.065-3.363-3.065H8.613c-1.745,0-3.201,1.329-3.363,3.065L4.169,25.785
		c-0.019,0.285,0.083,0.571,0.279,0.779c0.195,0.208,0.469,0.333,0.753,0.333h2.038l0.037,18.778c0,0.572,0.501,1.012,1.074,1.012
		h1.729c0.572,0,1.013-0.439,1.013-1.012V30.081c0-0.263,0.236-0.433,0.498-0.433l0,0c0.262,0,0.479,0.17,0.479,0.433v15.595
		c0,0.572,0.46,1.012,1.031,1.012h1.729c0.573,0,1.055-0.439,1.055-1.012V26.897h2.095c0.284,0,0.558-0.12,0.753-0.328
		c0.196-0.208,0.298-0.491,0.279-0.776L17.932,14.166z"/>
	<circle cx="11.591" cy="5.373" r="4.276"/>
	<path d="M24.671,1.58c-0.821,0-1.509,0.666-1.509,1.487v41.649c0,0.821,0.688,1.487,1.509,1.487c0.822,0,1.51-0.666,1.51-1.487
		V3.067C26.181,2.246,25.493,1.58,24.671,1.58z"/>
	<path d="M44.914,26.569c0.196-0.208,0.297-0.491,0.279-0.776l-1.081-11.627c-0.162-1.736-1.62-3.065-3.365-3.065h-5.954
		c-1.744,0-3.2,1.329-3.362,3.065L30.35,25.785c-0.019,0.285,0.083,0.571,0.278,0.779s0.469,0.333,0.754,0.333h1.085l-1.196,6.54
		c-0.118,0.644,0.058,1.306,0.476,1.809c0.418,0.502,1.038,0.792,1.692,0.792l0.02,9.638c0,0.572,0.5,1.012,1.073,1.012h1.729
		c0.573,0,1.014-0.439,1.014-1.012v-9.638h0.976v9.638c0,0.572,0.46,1.012,1.032,1.012h1.73c0.571,0,1.054-0.439,1.054-1.012v-9.638
		h0.107c0.653,0,1.273-0.29,1.693-0.792c0.418-0.503,0.591-1.165,0.474-1.809l-1.196-6.54h1.015
		C44.445,26.897,44.717,26.777,44.914,26.569z"/>
	<circle cx="37.771" cy="5.373" r="4.276"/>
</g>
</svg>
