<?xml version="1.0" encoding="utf-8"?>
<!-- Generator: Adobe Illustrator 16.0.0, SVG Export Plug-In . SVG Version: 6.00 Build 0)  -->
<!DOCTYPE svg PUBLIC "-//W3C//DTD SVG 1.1//EN" "http://www.w3.org/Graphics/SVG/1.1/DTD/svg11.dtd">
<svg version="1.1" id="Layer_1" xmlns="http://www.w3.org/2000/svg" xmlns:xlink="http://www.w3.org/1999/xlink" x="0px" y="0px"
	 width="48px" height="48px" viewBox="0 0 48 48" enable-background="new 0 0 48 48" xml:space="preserve">
<g>
	<path d="M22.973,1.208H4.944c-0.35,0-0.686,0.133-0.927,0.388c-0.24,0.255-0.365,0.592-0.345,0.942L5.6,36.119
		c0.04,0.674,0.597,1.197,1.273,1.197h14.173c0.676,0,1.232-0.525,1.272-1.2l1.926-33.584c0.021-0.35-0.104-0.681-0.345-0.937
		C23.658,1.341,23.322,1.208,22.973,1.208z"/>
	<path d="M22.272,40.939c0-0.704-0.595-1.304-1.299-1.304H6.943c-0.704,0-1.285,0.6-1.285,1.304c0,0,0.01,3.792,0.01,3.871
		c0,1.275,3.713,2.302,8.292,2.302c4.577,0,8.29-1.023,8.29-2.298C22.25,44.734,22.272,40.939,22.272,40.939z"/>
	<path d="M39.915,1.333L39.915,1.333c-1.567,0-2.857,1.28-2.857,2.847v40.194c0,1.565,1.272,2.833,2.836,2.833
		c1.565,0,2.838-1.268,2.838-2.833V4.18C42.731,2.613,41.482,1.333,39.915,1.333z"/>
	<path d="M34.154,2.72h-5.722c-0.745,0-1.345,0.611-1.345,1.354c0,0.745,0.6,1.356,1.345,1.356h5.722
		c0.746,0,1.349-0.611,1.349-1.356C35.503,3.331,34.9,2.72,34.154,2.72z"/>
	<path d="M34.154,6.754h-5.722c-0.745,0-1.345,0.611-1.345,1.355s0.6,1.355,1.345,1.355h5.722c0.746,0,1.349-0.611,1.349-1.355
		S34.9,6.754,34.154,6.754z"/>
	<path d="M34.154,10.851h-5.722c-0.745,0-1.345,0.58-1.345,1.324s0.6,1.324,1.345,1.324h5.722c0.746,0,1.349-0.58,1.349-1.324
		S34.9,10.851,34.154,10.851z"/>
	<path d="M34.154,14.885h-5.722c-0.745,0-1.345,0.58-1.345,1.324c0,0.744,0.6,1.323,1.345,1.323h5.722
		c0.746,0,1.349-0.58,1.349-1.323C35.503,15.465,34.9,14.885,34.154,14.885z"/>
</g>
</svg>
