<?xml version="1.0" encoding="utf-8"?>
<!-- Generator: Adobe Illustrator 16.0.0, SVG Export Plug-In . SVG Version: 6.00 Build 0)  -->
<!DOCTYPE svg PUBLIC "-//W3C//DTD SVG 1.1//EN" "http://www.w3.org/Graphics/SVG/1.1/DTD/svg11.dtd">
<svg version="1.1" id="Layer_1" xmlns="http://www.w3.org/2000/svg" xmlns:xlink="http://www.w3.org/1999/xlink" x="0px" y="0px"
	 width="48px" height="48px" viewBox="0 0 48 48" enable-background="new 0 0 48 48" xml:space="preserve">
<g>
	<path d="M43.537,11.18v5.789h0.85c1.599,0,2.895-1.296,2.895-2.895c0-1.598-1.296-2.894-2.895-2.894H43.537z"/>
	<path d="M17.937,38.658c-2.325,0-4.191-1.833-4.191-4.158V18.99H9.117v21.675c0,1.156,0.919,2.042,2.075,2.042h20.979
		c1.155,0,2.111-0.886,2.111-2.042v-2.007H17.937z"/>
	<path d="M13.745,13.77c0-1.402-1.154-2.59-2.557-2.59H3.893C2.295,11.18,1,12.475,1,14.073c0,1.597,1.295,2.892,2.893,2.892h7.296
		c1.402,0,2.557-1.085,2.557-2.487V13.77z"/>
	<path d="M11.125,6.842c-1.119,0-2.025,0.868-2.025,2.025h1.449c3.034,0,5.511,2.51,5.511,5.543v20.181
		c0,1.156,0.919,2.042,2.074,2.042h20.978c1.156,0,2.112-0.886,2.112-2.042V11.096c0-2.322-1.899-4.254-4.222-4.254H11.125z"/>
</g>
</svg>
