<?xml version="1.0" encoding="utf-8"?>
<!-- Generator: Adobe Illustrator 16.0.0, SVG Export Plug-In . SVG Version: 6.00 Build 0)  -->
<!DOCTYPE svg PUBLIC "-//W3C//DTD SVG 1.1//EN" "http://www.w3.org/Graphics/SVG/1.1/DTD/svg11.dtd">
<svg version="1.1" id="Layer_1" xmlns="http://www.w3.org/2000/svg" xmlns:xlink="http://www.w3.org/1999/xlink" x="0px" y="0px"
	 width="48px" height="48px" viewBox="0 0 48 48" enable-background="new 0 0 48 48" xml:space="preserve">
<g>
	<path d="M27.089,13.078c0.211-0.447,0.33-0.952,0.33-1.479c0-1.904-1.543-3.45-3.447-3.45s-3.448,1.542-3.448,3.446
		c0,0.527,0.118,1.037,0.33,1.483C12.152,14.523,5.461,21.91,5.089,30.943h37.765C42.482,21.91,35.791,14.522,27.089,13.078z
		 M8.953,29.644c-0.586,0-1.062-0.475-1.062-1.061c0-0.587,0.475-1.062,1.062-1.062c0.587,0,1.062,0.474,1.062,1.062
		C10.014,29.169,9.54,29.644,8.953,29.644z M20.776,16.552c-0.073,0.02-7.329,2.011-10.094,9.479
		c-0.15,0.403-0.532,0.652-0.937,0.652c-0.116,0-0.233-0.02-0.347-0.063c-0.518-0.192-0.782-0.767-0.59-1.283
		c3.137-8.471,11.127-10.63,11.465-10.718c0.534-0.142,1.08,0.182,1.217,0.716C21.629,15.869,21.309,16.413,20.776,16.552z"/>
	<path d="M43.947,32.934H3.996C2.341,32.934,1,34.291,1,35.945s1.341,3.011,2.996,3.011h39.951c1.655,0,2.996-1.356,2.996-3.011
		S45.602,32.934,43.947,32.934z"/>
</g>
</svg>
