<?xml version="1.0" encoding="utf-8"?>
<!-- Generator: Adobe Illustrator 16.0.0, SVG Export Plug-In . SVG Version: 6.00 Build 0)  -->
<!DOCTYPE svg PUBLIC "-//W3C//DTD SVG 1.1//EN" "http://www.w3.org/Graphics/SVG/1.1/DTD/svg11.dtd">
<svg version="1.1" id="Layer_1" xmlns="http://www.w3.org/2000/svg" xmlns:xlink="http://www.w3.org/1999/xlink" x="0px" y="0px"
	 width="48px" height="48px" viewBox="0 0 48 48" enable-background="new 0 0 48 48" xml:space="preserve">
<g>
	<path d="M22.233,29.535l-2.779-0.404c-0.362-0.052-0.677-0.28-0.84-0.609l-1.243-2.521c-0.034-0.068-0.15-0.069-0.185,0
		l-1.243,2.52c-0.164,0.33-0.478,0.558-0.841,0.61l-2.78,0.404c-0.037,0.005-0.07,0.033-0.082,0.069
		c-0.013,0.038-0.002,0.078,0.025,0.105l2.012,1.962c0.265,0.257,0.386,0.626,0.321,0.989l-0.474,2.769
		c-0.006,0.039,0.009,0.078,0.041,0.101l0.106,0.007l2.487-1.307c0.159-0.084,0.339-0.129,0.519-0.129
		c0.181,0,0.359,0.044,0.519,0.128l2.535,1.32c0.016,0,0.039-0.004,0.062-0.021c0.03-0.021,0.046-0.061,0.04-0.098l-0.476-2.771
		c-0.063-0.36,0.058-0.73,0.322-0.987l2.012-1.961c0.026-0.027,0.037-0.068,0.025-0.105C22.306,29.568,22.272,29.541,22.233,29.535z
		"/>
	<path d="M44.222,7.184H3.491c-1.537,0-2.782,1.246-2.782,2.783v28.889c0,1.537,1.245,2.783,2.782,2.783h40.73
		c1.537,0,2.782-1.246,2.782-2.783V9.967C47.004,8.43,45.759,7.184,44.222,7.184z M10.405,21.497l-2.487,1.307
		c-0.205,0.108-0.453,0.09-0.641-0.046s-0.281-0.367-0.242-0.596l0.475-2.77c0.034-0.198-0.032-0.399-0.175-0.539l-2.013-1.962
		c-0.167-0.161-0.227-0.403-0.154-0.624c0.071-0.22,0.262-0.381,0.491-0.414l2.78-0.404c0.199-0.029,0.37-0.154,0.459-0.333
		l1.244-2.52c0.103-0.208,0.314-0.339,0.546-0.339c0.232,0,0.443,0.132,0.547,0.339l1.243,2.52c0.089,0.18,0.26,0.305,0.459,0.333
		l2.78,0.404c0.229,0.033,0.42,0.194,0.492,0.414c0.071,0.221,0.012,0.463-0.154,0.624l-2.013,1.962
		c-0.144,0.14-0.21,0.341-0.176,0.539l0.476,2.77c0.038,0.229-0.056,0.459-0.243,0.596c-0.187,0.136-0.436,0.154-0.642,0.046
		l-2.485-1.307C10.795,21.404,10.582,21.404,10.405,21.497z M22.998,30.437l-2.012,1.96l0.445,2.86
		c0.072,0.42-0.097,0.838-0.442,1.091c-0.193,0.14-0.421,0.214-0.657,0.214c-0.18,0-0.359-0.045-0.521-0.129l-2.485-1.308
		l-2.583,1.308c-0.369,0.194-0.836,0.16-1.173-0.083c-0.348-0.254-0.518-0.672-0.444-1.093l0.474-2.77l-2.04-2.051
		c-0.308-0.299-0.415-0.737-0.284-1.144c0.129-0.4,0.482-0.699,0.899-0.76l2.782-0.404l1.32-2.575
		c0.19-0.384,0.574-0.623,1.001-0.623c0.428,0,0.812,0.238,1.001,0.622l1.244,2.52l2.858,0.46c0.418,0.062,0.771,0.36,0.899,0.76
		C23.413,29.699,23.306,30.137,22.998,30.437z M23.585,21.497l-2.486,1.307c-0.205,0.108-0.453,0.09-0.641-0.046
		c-0.188-0.136-0.283-0.367-0.243-0.596l0.476-2.77c0.033-0.198-0.032-0.399-0.176-0.539l-2.013-1.962
		c-0.166-0.161-0.226-0.403-0.154-0.624c0.071-0.22,0.263-0.381,0.491-0.414l2.781-0.404c0.198-0.029,0.37-0.154,0.458-0.333
		l1.244-2.52c0.104-0.208,0.314-0.339,0.546-0.339c0.232,0,0.443,0.132,0.547,0.339l1.243,2.52c0.089,0.18,0.261,0.305,0.459,0.333
		l2.78,0.404c0.229,0.033,0.421,0.194,0.492,0.414c0.071,0.221,0.012,0.463-0.154,0.624l-2.013,1.962
		c-0.143,0.14-0.209,0.341-0.175,0.539l0.475,2.77c0.039,0.229-0.055,0.459-0.242,0.596s-0.437,0.154-0.641,0.046l-2.488-1.307
		C23.976,21.404,23.763,21.404,23.585,21.497z M36.179,30.437l-2.012,1.96l0.445,2.86c0.072,0.42-0.098,0.838-0.442,1.091
		c-0.194,0.14-0.421,0.214-0.658,0.214c-0.18,0-0.358-0.045-0.52-0.129l-2.485-1.308l-2.583,1.308
		c-0.369,0.194-0.836,0.16-1.175-0.083c-0.347-0.254-0.516-0.672-0.442-1.093l0.473-2.77l-2.041-2.051
		c-0.306-0.299-0.414-0.737-0.282-1.144c0.129-0.4,0.482-0.699,0.898-0.76l2.783-0.404l1.32-2.575
		c0.19-0.384,0.572-0.623,1.001-0.623c0.428,0,0.811,0.238,1.002,0.622l1.243,2.52l2.857,0.46c0.418,0.062,0.771,0.36,0.9,0.76
		C36.594,29.699,36.486,30.137,36.179,30.437z M42.416,16.892l-2.014,1.962c-0.144,0.14-0.208,0.341-0.175,0.539l0.476,2.77
		c0.039,0.229-0.055,0.459-0.242,0.596c-0.188,0.136-0.437,0.154-0.642,0.046l-2.487-1.307c-0.178-0.093-0.389-0.093-0.566,0
		l-2.487,1.307c-0.205,0.108-0.454,0.09-0.641-0.046c-0.188-0.136-0.282-0.367-0.243-0.596l0.476-2.77
		c0.034-0.198-0.031-0.399-0.175-0.539l-2.014-1.962c-0.165-0.161-0.226-0.403-0.153-0.624c0.072-0.22,0.262-0.381,0.491-0.414
		l2.781-0.404c0.198-0.029,0.369-0.154,0.458-0.333l1.244-2.52c0.103-0.208,0.314-0.339,0.546-0.339s0.443,0.132,0.546,0.339
		l1.244,2.52c0.089,0.18,0.26,0.305,0.458,0.333l2.781,0.404c0.229,0.033,0.42,0.194,0.492,0.414
		C42.641,16.489,42.581,16.731,42.416,16.892z"/>
	<path d="M35.414,29.535l-2.78-0.404c-0.362-0.052-0.677-0.28-0.84-0.609l-1.243-2.521c-0.033-0.068-0.15-0.069-0.184,0l-1.244,2.52
		c-0.163,0.33-0.478,0.558-0.841,0.61l-2.779,0.404c-0.038,0.005-0.07,0.033-0.083,0.069c-0.012,0.038-0.002,0.078,0.026,0.105
		l2.012,1.962c0.265,0.257,0.385,0.626,0.32,0.989l-0.473,2.769c-0.008,0.039,0.009,0.078,0.04,0.101l0.107,0.007l2.486-1.307
		c0.16-0.084,0.34-0.129,0.52-0.129c0.181,0,0.358,0.044,0.519,0.128l2.534,1.32c0.017,0,0.039-0.004,0.062-0.021
		c0.03-0.021,0.046-0.061,0.04-0.098l-0.476-2.771c-0.063-0.36,0.058-0.73,0.321-0.987l2.013-1.961
		c0.027-0.027,0.037-0.068,0.025-0.105C35.485,29.568,35.453,29.541,35.414,29.535z"/>
</g>
</svg>
