<?xml version="1.0" encoding="utf-8"?>
<!-- Generator: Adobe Illustrator 16.0.0, SVG Export Plug-In . SVG Version: 6.00 Build 0)  -->
<!DOCTYPE svg PUBLIC "-//W3C//DTD SVG 1.1//EN" "http://www.w3.org/Graphics/SVG/1.1/DTD/svg11.dtd">
<svg version="1.1" id="Layer_1" xmlns="http://www.w3.org/2000/svg" xmlns:xlink="http://www.w3.org/1999/xlink" x="0px" y="0px"
	 width="48px" height="48px" viewBox="0 0 48 48" enable-background="new 0 0 48 48" xml:space="preserve">
<g>
	<path d="M35.654,1.873H12.547c-5.204,0-9.484,4.207-9.484,9.411v17.411c0,5.205,4.281,9.46,9.484,9.46h9.11v1.95h-8.829
		c-2.543,0-4.605,2.033-4.605,4.576C8.224,45.978,9.274,47,10.57,47h27.061c1.296,0,2.346-1.022,2.346-2.319
		c0-2.542-2.062-4.576-4.605-4.576h-8.84v-1.95h9.122c5.204,0,9.472-4.256,9.472-9.46V11.284C45.126,6.08,40.857,1.873,35.654,1.873
		z M41.226,28.791c0,3.054-1.918,5.465-4.856,5.465H11.831c-2.938,0-4.868-2.412-4.868-5.465V11.1c0-3.054,1.93-5.258,4.868-5.258
		H36.37c2.938,0,4.856,2.204,4.856,5.258V28.791z"/>
	<path d="M12.369,8.768c-1.563,0-2.83,1.256-2.833,2.818L9.515,24.802L29.803,8.768H12.369z"/>
	<path d="M35.826,8.768h-2.844L9.512,27.313l-0.004,2.452c0,0.377,0.215,0.719,0.554,0.882c0.339,0.165,0.743,0.12,1.038-0.115
		l25.336-20.012c0.328-0.259,0.456-0.71,0.318-1.104C36.616,9.021,36.244,8.768,35.826,8.768z"/>
</g>
</svg>
