<?xml version="1.0" encoding="utf-8"?>
<!-- Generator: Adobe Illustrator 16.0.0, SVG Export Plug-In . SVG Version: 6.00 Build 0)  -->
<!DOCTYPE svg PUBLIC "-//W3C//DTD SVG 1.1//EN" "http://www.w3.org/Graphics/SVG/1.1/DTD/svg11.dtd">
<svg version="1.1" id="Layer_1" xmlns="http://www.w3.org/2000/svg" xmlns:xlink="http://www.w3.org/1999/xlink" x="0px" y="0px"
	 width="48px" height="48px" viewBox="0 0 48 48" enable-background="new 0 0 48 48" xml:space="preserve">
<g>
	<path d="M33.016,10.265l-17.997,0.003c-1.714-0.003-3.211,1.153-3.644,2.811c-0.436,1.658,0.298,3.398,1.794,4.233l5.104,2.882
		l-5.609,5.608c-1.467,1.47-1.474,3.854,0.003,5.329l3.249,3.249c1.475,1.473,3.859,1.47,5.326,0l5.612-5.608l2.878,5.106
		c0.838,1.493,2.581,2.23,4.236,1.792c1.658-0.433,2.814-1.928,2.807-3.641l0.005-17.998C36.78,11.95,35.097,10.265,33.016,10.265z"
		/>
	<path d="M46.699,11.322c0-5.817-4.715-10.532-10.531-10.532H11.832c-5.816,0-10.531,4.715-10.531,10.532v23.355
		c0,5.817,4.715,10.532,10.531,10.532h24.336c5.816,0,10.531-4.715,10.531-10.532V11.322z M41.928,34.709
		c0,3.164-2.565,5.729-5.728,5.729H11.862c-3.163,0-5.728-2.564-5.728-5.729V11.352c0-3.164,2.564-5.729,5.728-5.729H36.2
		c3.162,0,5.728,2.564,5.728,5.729V34.709z"/>
</g>
</svg>
