<?xml version="1.0" encoding="utf-8"?>
<!-- Generator: Adobe Illustrator 16.0.0, SVG Export Plug-In . SVG Version: 6.00 Build 0)  -->
<!DOCTYPE svg PUBLIC "-//W3C//DTD SVG 1.1//EN" "http://www.w3.org/Graphics/SVG/1.1/DTD/svg11.dtd">
<svg version="1.1" id="Layer_1" xmlns="http://www.w3.org/2000/svg" xmlns:xlink="http://www.w3.org/1999/xlink" x="0px" y="0px"
	 width="48px" height="48px" viewBox="0 0 48 48" enable-background="new 0 0 48 48" xml:space="preserve">
<g>
	<path d="M9.989,11.525c-1.731,0-3.175,1.332-3.336,3.054L5.581,26.111c-0.018,0.282,0.083,0.576,0.277,0.783
		c0.194,0.206,0.465,0.338,0.747,0.338h2.021l0.037,18.614c0,0.566,0.497,0.99,1.066,0.99h1.715c0.567,0,0.992-0.422,0.992-0.988
		V30.38c0-0.259,0.229-0.428,0.488-0.428c0.259,0,0.47,0.169,0.47,0.428v15.469c0,0.566,0.48,0.988,1.046,0.988h1.716
		c0.568,0,1.046-0.43,1.046-0.996l-0.093-30.492l1.712-0.002v-3.796L9.989,11.525z"/>
	<circle cx="12.943" cy="5.873" r="4.241"/>
	<path d="M30.792,11.509l-2.073,0.007v3.797l2.083-0.008c0.603-0.002,1.109-0.49,1.109-1.095v-1.606c0-0.292-0.123-0.57-0.329-0.776
		C31.377,11.622,31.083,11.508,30.792,11.509z"/>
	<path d="M20.801,19.293c0,0.924,0.754,1.684,1.678,1.684h2.607c0.923,0,1.654-0.76,1.654-1.684v-8.215h-5.939V19.293z"/>
	<path d="M29.03,8.077h10.529c0.103,0,0.201-0.042,0.27-0.117c0.068-0.078,0.101-0.179,0.089-0.281
		c-0.283-2.518-2.217-4.532-4.693-4.942c0.064-0.136,0.101-0.284,0.101-0.442c0-0.57-0.462-1.033-1.032-1.033
		c-0.571,0-1.033,0.463-1.033,1.033c0,0.159,0.037,0.31,0.102,0.443c-2.476,0.411-4.408,2.427-4.692,4.943
		c-0.012,0.102,0.021,0.201,0.09,0.278C28.829,8.035,28.927,8.077,29.03,8.077z"/>
	<path d="M40.277,8.715H28.31c-0.496,0-0.898,0.398-0.898,0.895s0.402,0.895,0.897,0.895h11.968c0.496,0,0.897-0.398,0.897-0.895
		S40.773,8.715,40.277,8.715z"/>
</g>
</svg>
