<?xml version="1.0" encoding="utf-8"?>
<!-- Generator: Adobe Illustrator 16.0.0, SVG Export Plug-In . SVG Version: 6.00 Build 0)  -->
<!DOCTYPE svg PUBLIC "-//W3C//DTD SVG 1.1//EN" "http://www.w3.org/Graphics/SVG/1.1/DTD/svg11.dtd">
<svg version="1.1" id="Layer_1" xmlns="http://www.w3.org/2000/svg" xmlns:xlink="http://www.w3.org/1999/xlink" x="0px" y="0px"
	 width="48px" height="48px" viewBox="0 0 48 48" enable-background="new 0 0 48 48" xml:space="preserve">
<g>
	<path d="M38.232,1.676H10.981c-2.177,0-4.292,2.21-4.292,4.388v33.34C6.69,41.581,8.45,44,10.626,44h1.847v0.846
		c0,0.83,0.68,1.478,1.509,1.478h1.803c0.83,0,1.499-0.648,1.499-1.478V44h14.432v0.846c0,0.83,0.668,1.478,1.499,1.478h1.803
		c0.83,0,1.509-0.648,1.509-1.478V44h1.732c2.177,0,4.051-2.418,4.051-4.596V6.082C42.31,3.904,40.409,1.676,38.232,1.676z
		 M10.649,7.589V6.212C10.649,5.53,11.178,5,11.859,5h4.262c0.682,0,1.23,0.53,1.23,1.212v1.377c0,0.681-0.548,1.249-1.23,1.249
		h-4.262C11.178,8.838,10.649,8.271,10.649,7.589z M24.423,36.522c-7.1,0-12.855-5.755-12.855-12.855
		c0-7.099,5.755-12.854,12.855-12.854c7.099,0,12.854,5.755,12.854,12.854C37.277,30.767,31.522,36.522,24.423,36.522z"/>
	<path d="M24.423,13.863c-5.416,0-9.806,4.39-9.806,9.805c0,5.416,4.39,9.806,9.806,9.806s9.806-4.39,9.806-9.806
		C34.229,18.252,29.839,13.863,24.423,13.863z M24.423,29.564c-3.252,0-5.897-2.645-5.897-5.896c0-3.251,2.645-5.896,5.897-5.896
		c3.251,0,5.896,2.645,5.896,5.896C30.32,26.919,27.675,29.564,24.423,29.564z"/>
	<path d="M21.961,21.748c-0.756,0.644-1.237,1.6-1.237,2.671c0,1.938,1.57,3.507,3.508,3.507c1.517,0,2.806-0.965,3.294-2.313
		C25.251,25.039,23.279,23.633,21.961,21.748z"/>
</g>
</svg>
