<?xml version="1.0" encoding="utf-8"?>
<!-- Generator: Adobe Illustrator 16.0.0, SVG Export Plug-In . SVG Version: 6.00 Build 0)  -->
<!DOCTYPE svg PUBLIC "-//W3C//DTD SVG 1.1//EN" "http://www.w3.org/Graphics/SVG/1.1/DTD/svg11.dtd">
<svg version="1.1" id="Layer_5" xmlns="http://www.w3.org/2000/svg" xmlns:xlink="http://www.w3.org/1999/xlink" x="0px" y="0px"
	 width="100px" height="100px" viewBox="0 0 100 100" enable-background="new 0 0 100 100" xml:space="preserve">
<path d="M89.353,23.112H37.922c-1.687,0-3.059,1.372-3.059,3.059v13.406H10.647c-1.687,0-3.059,1.372-3.059,3.059v31.193
	c0,1.687,1.372,3.059,3.059,3.059h51.431c1.687,0,3.059-1.372,3.059-3.059V60.423h24.216c1.687,0,3.059-1.372,3.059-3.059V26.171
	C92.411,24.484,91.039,23.112,89.353,23.112z M62.137,73.829c0,0.032-0.026,0.059-0.059,0.059l-51.489-0.059l0.059-31.252
	l51.489,0.059V73.829z M89.411,57.364c0,0.032-0.026,0.059-0.059,0.059l-24.216-0.028V42.636c0-1.687-1.372-3.059-3.059-3.059
	H37.896l0.025-13.465l51.489,0.059V57.364z"/>
</svg>
