<?xml version="1.0" encoding="utf-8"?>
<!-- Generator: Adobe Illustrator 16.0.0, SVG Export Plug-In . SVG Version: 6.00 Build 0)  -->
<!DOCTYPE svg PUBLIC "-//W3C//DTD SVG 1.1//EN" "http://www.w3.org/Graphics/SVG/1.1/DTD/svg11.dtd">
<svg version="1.1" id="Layer_5" xmlns="http://www.w3.org/2000/svg" xmlns:xlink="http://www.w3.org/1999/xlink" x="0px" y="0px"
	 width="100px" height="100px" viewBox="0 0 100 100" enable-background="new 0 0 100 100" xml:space="preserve">
<path d="M45.849,21.44H9.15c-1.193,0-2.164,0.971-2.164,2.164v22.258c0,1.193,0.971,2.164,2.164,2.164h36.698
	c1.192,0,2.164-0.971,2.164-2.164V23.604C48.013,22.411,47.041,21.44,45.849,21.44z M45.909,45.862c0,0.033-0.027,0.06-0.061,0.06
	H9.15c-0.033,0-0.061-0.027-0.061-0.06V23.604c0-0.033,0.027-0.06,0.061-0.06h36.698c0.033,0,0.061,0.027,0.061,0.06V45.862z
	 M90.849,21.44H54.15c-1.193,0-2.164,0.971-2.164,2.164v22.258c0,1.193,0.971,2.164,2.164,2.164h36.698
	c1.192,0,2.164-0.971,2.164-2.164V23.604C93.013,22.411,92.041,21.44,90.849,21.44z M90.909,45.862c0,0.033-0.027,0.06-0.061,0.06
	H54.15c-0.033,0-0.061-0.027-0.061-0.06V23.604c0-0.033,0.027-0.06,0.061-0.06h36.698c0.033,0,0.061,0.027,0.061,0.06V45.862z
	 M45.849,51.973H9.15c-1.193,0-2.164,0.971-2.164,2.164v22.258c0,1.193,0.971,2.164,2.164,2.164h36.698
	c1.192,0,2.164-0.971,2.164-2.164V54.137C48.013,52.944,47.041,51.973,45.849,51.973z M45.909,76.395c0,0.033-0.027,0.06-0.061,0.06
	H9.15c-0.033,0-0.061-0.027-0.061-0.06V54.137c0-0.033,0.027-0.06,0.061-0.06h36.698c0.033,0,0.061,0.027,0.061,0.06V76.395z
	 M90.849,51.973H54.15c-1.193,0-2.164,0.971-2.164,2.164v22.258c0,1.193,0.971,2.164,2.164,2.164h36.698
	c1.192,0,2.164-0.971,2.164-2.164V54.137C93.013,52.944,92.041,51.973,90.849,51.973z M90.909,76.395c0,0.033-0.027,0.06-0.061,0.06
	H54.15c-0.033,0-0.061-0.027-0.061-0.06V54.137c0-0.033,0.027-0.06,0.061-0.06h36.698c0.033,0,0.061,0.027,0.061,0.06V76.395z"/>
</svg>
