<?xml version="1.0" encoding="utf-8"?>
<!-- Generator: Adobe Illustrator 16.0.0, SVG Export Plug-In . SVG Version: 6.00 Build 0)  -->
<!DOCTYPE svg PUBLIC "-//W3C//DTD SVG 1.1//EN" "http://www.w3.org/Graphics/SVG/1.1/DTD/svg11.dtd">
<svg version="1.1" id="Layer_7" xmlns="http://www.w3.org/2000/svg" xmlns:xlink="http://www.w3.org/1999/xlink" x="0px" y="0px"
	 width="100px" height="100px" viewBox="0 0 100 100" enable-background="new 0 0 100 100" xml:space="preserve">
<path d="M50,9.775C27.82,9.775,9.775,27.82,9.775,50S27.82,90.225,50,90.225S90.225,72.18,90.225,50S72.18,9.775,50,9.775z
	 M50,86.225c-19.974,0-36.225-16.25-36.225-36.225S30.026,13.775,50,13.775S86.225,30.025,86.225,50S69.974,86.225,50,86.225z
	 M70.354,37.869c0,3.503-2.84,6.343-6.343,6.343s-6.343-2.84-6.343-6.343s2.84-6.343,6.343-6.343S70.354,34.366,70.354,37.869z
	 M42.479,41.734l-14.333-3.869l1.042-3.861l14.333,3.869L42.479,41.734z M66.967,57.44c0,8.685-7.611,15.75-16.966,15.75
	s-16.967-7.065-16.967-15.75c0-0.828,0.671-1.5,1.5-1.5s1.5,0.672,1.5,1.5c0,7.03,6.266,12.75,13.967,12.75
	s13.966-5.72,13.966-12.75c0-0.828,0.671-1.5,1.5-1.5S66.967,56.612,66.967,57.44z"/>
</svg>
