<?xml version="1.0" encoding="utf-8"?>
<!-- Generator: Adobe Illustrator 16.0.0, SVG Export Plug-In . SVG Version: 6.00 Build 0)  -->
<!DOCTYPE svg PUBLIC "-//W3C//DTD SVG 1.1//EN" "http://www.w3.org/Graphics/SVG/1.1/DTD/svg11.dtd">
<svg version="1.1" id="Layer_6" xmlns="http://www.w3.org/2000/svg" xmlns:xlink="http://www.w3.org/1999/xlink" x="0px" y="0px"
	 width="100px" height="100px" viewBox="0 0 100 100" enable-background="new 0 0 100 100" xml:space="preserve">
<path d="M65.052,17.203l-3.819,1.805l3.432-2.465L65.052,17.203z M66.639,12.475L63.25,9.573l2.843,3.437L66.639,12.475z
	 M74.276,4.443l-4.715,7.362l0.661,0.384L74.276,4.443z M71.02,13.799l9.909-0.825l-9.944,0.062L71.02,13.799z M67.154,15.23
	c0.455,7.556,8.862,14.01,5.297,21.737c-1.1,2.383-3.174,3.969-4.963,5.798l-3.079-2.751l-3.448,3.859
	c-4.137-2.449-8.962-3.859-14.118-3.859c-15.338,0-27.771,12.434-27.771,27.771c0,15.338,12.434,27.771,27.771,27.771
	c15.337,0,27.771-12.434,27.771-27.771c0-6.059-1.946-11.66-5.239-16.225l3.532-3.954l-3.688-3.295
	c0.287-0.311,0.594-0.62,0.924-0.932c2.294-2.17,4.101-4.339,5.127-7.373c2.575-7.606-5.388-13.571-5.82-20.776
	C69.359,13.762,67.065,13.753,67.154,15.23z"/>
</svg>
