<?xml version="1.0" encoding="utf-8"?>
<!-- Generator: Adobe Illustrator 16.0.0, SVG Export Plug-In . SVG Version: 6.00 Build 0)  -->
<!DOCTYPE svg PUBLIC "-//W3C//DTD SVG 1.1//EN" "http://www.w3.org/Graphics/SVG/1.1/DTD/svg11.dtd">
<svg version="1.1" id="Layer_5" xmlns="http://www.w3.org/2000/svg" xmlns:xlink="http://www.w3.org/1999/xlink" x="0px" y="0px"
	 width="100px" height="100px" viewBox="0 0 100 100" enable-background="new 0 0 100 100" xml:space="preserve">
<path d="M51.854,45.056h31.441c1.021,0,1.854-0.832,1.854-1.854V24.133c0-1.022-0.832-1.854-1.854-1.854H51.854
	c-1.021,0-1.854,0.832-1.854,1.854v9.58l-4.698,16.278v-7.552c0-1.022-0.832-1.854-1.854-1.854H12.007
	c-1.021,0-1.854,0.832-1.854,1.854v19.069c0,1.022,0.832,1.854,1.854,1.854h31.441c1.021,0,1.854-0.832,1.854-1.854v-7.859
	L50,67.198v10.169c0,1.022,0.832,1.854,1.854,1.854h31.441c1.021,0,1.854-0.832,1.854-1.854V58.298c0-1.022-0.832-1.854-1.854-1.854
	H51.854c-1.021,0-1.854,0.832-1.854,1.854v5.846L45.774,51.96L50,37.32v5.882C50,44.225,50.832,45.056,51.854,45.056z M43.5,61.508
	c0,0.029-0.023,0.052-0.052,0.052H12.007c-0.028,0-0.052-0.023-0.052-0.052V42.439c0-0.028,0.023-0.051,0.052-0.051h31.441
	c0.028,0,0.052,0.023,0.052,0.051V61.508z M51.802,58.298c0-0.028,0.023-0.051,0.052-0.051h31.441c0.028,0,0.052,0.023,0.052,0.051
	v19.069c0,0.029-0.023,0.052-0.052,0.052H51.854c-0.028,0-0.052-0.023-0.052-0.052V58.298z M51.802,24.133
	c0-0.028,0.023-0.051,0.052-0.051h31.441c0.028,0,0.052,0.023,0.052,0.051v19.069c0,0.029-0.023,0.052-0.052,0.052H51.854
	c-0.028,0-0.052-0.023-0.052-0.052V24.133z"/>
</svg>
