<?xml version="1.0" encoding="utf-8"?>
<!-- Generator: Adobe Illustrator 16.0.0, SVG Export Plug-In . SVG Version: 6.00 Build 0)  -->
<!DOCTYPE svg PUBLIC "-//W3C//DTD SVG 1.1//EN" "http://www.w3.org/Graphics/SVG/1.1/DTD/svg11.dtd">
<svg version="1.1" id="Layer_6" xmlns="http://www.w3.org/2000/svg" xmlns:xlink="http://www.w3.org/1999/xlink" x="0px" y="0px"
	 width="100px" height="100px" viewBox="0 0 100 100" enable-background="new 0 0 100 100" xml:space="preserve">
<path d="M47.907,47.331l-4.279-1.182l-2.593-4.219l-1.394,1.394c-5.108-2.391-11.393-1.48-15.605,2.732L9.31,60.784
	c-5.377,5.376-5.377,14.124-0.001,19.5s14.124,5.376,19.5-0.001l14.728-14.727c4.395-4.394,5.193-11.041,2.403-16.258L47.907,47.331
	z M39.036,61.057L24.309,75.784c-2.895,2.895-7.604,2.895-10.5,0c-2.895-2.896-2.895-7.605,0-10.5l14.728-14.728
	c1.639-1.638,3.859-2.348,6.004-2.131l-3.932,3.932c-1.691,1.691-1.691,4.444,0,6.137c1.691,1.691,4.444,1.691,6.137-0.001
	l4.283-4.283C41.551,56.602,40.892,59.201,39.036,61.057z M93.846,24.635c-2.667-7.119-10.63-10.741-17.749-8.073l-19.504,7.307
	c-5.579,2.09-9.01,7.432-8.949,13.072l-3.619,1.355l0.58,4.647l3.636,3.04l2.232-0.837c3.594,4.701,9.976,6.726,15.795,4.545
	l19.503-7.307C92.891,39.718,96.513,31.756,93.846,24.635z M83.538,36.426l-19.503,7.307c-2.458,0.921-5.097,0.445-7.058-1.022
	l3.506-1.313c2.24-0.84,3.38-3.345,2.541-5.585c-0.84-2.241-3.345-3.381-5.585-2.542l-3.04,1.14c0.69-2.042,2.256-3.77,4.426-4.583
	l19.504-7.307c3.834-1.437,8.121,0.514,9.558,4.348C89.322,30.702,87.372,34.99,83.538,36.426z M49.614,47.324l5.944,3.531
	l-2.257,8.267l-1.674-0.457l1.909-6.991l-5.655-3.361L49.614,47.324z M35.776,38.006l-3.521-6.628l1.533-0.814l3.103,5.839
	l3.336,0.444l2.243,3.649l-1.262,1.262l-2.029-3.3L35.776,38.006z"/>
</svg>
