<?xml version="1.0" encoding="utf-8"?>
<!-- Generator: Adobe Illustrator 16.0.0, SVG Export Plug-In . SVG Version: 6.00 Build 0)  -->
<!DOCTYPE svg PUBLIC "-//W3C//DTD SVG 1.1//EN" "http://www.w3.org/Graphics/SVG/1.1/DTD/svg11.dtd">
<svg version="1.1" id="Layer_5" xmlns="http://www.w3.org/2000/svg" xmlns:xlink="http://www.w3.org/1999/xlink" x="0px" y="0px"
	 width="100px" height="100px" viewBox="0 0 100 100" enable-background="new 0 0 100 100" xml:space="preserve">
<path d="M64.369,34.559c-0.121-0.75,0.39-1.458,1.14-1.58c0.331-0.054,8.114-1.398,8.582-8.104c0.052-0.75,0.7-1.324,1.468-1.279
	c0.76,0.054,1.333,0.713,1.281,1.471C76.218,33.97,66.048,35.684,65.946,35.7c-0.071,0.011-0.145,0.017-0.218,0.017
	C65.049,35.717,64.478,35.23,64.369,34.559z M33.729,35.699c0.074,0.012,0.148,0.018,0.221,0.018c0.679,0,1.25-0.487,1.359-1.159
	c0.121-0.749-0.391-1.458-1.14-1.579c-0.331-0.054-8.114-1.398-8.582-8.105c-0.053-0.75-0.688-1.333-1.471-1.278
	c-0.758,0.053-1.331,0.712-1.278,1.47C23.46,33.97,33.63,35.684,33.729,35.699z M82.313,54.212
	c-1.882-7.53-11.26-8.006-11.653-8.022l-0.071-0.002c-0.736,0-1.337,0.58-1.368,1.32c-0.016,0.368,0.113,0.72,0.362,0.991
	s0.589,0.429,0.955,0.444c0.077,0.003,7.723,0.424,9.102,5.938c0.154,0.614,0.703,1.043,1.336,1.043
	c0.113,0,0.226-0.014,0.334-0.042c0.357-0.089,0.658-0.312,0.848-0.627C82.347,54.939,82.402,54.569,82.313,54.212z M30.779,47.506
	c-0.032-0.739-0.636-1.318-1.376-1.318l-0.058,0.001c-0.398,0.017-9.776,0.493-11.658,8.023c-0.089,0.357-0.034,0.727,0.155,1.043
	c0.189,0.315,0.49,0.539,0.847,0.627c0.109,0.028,0.223,0.042,0.335,0.042c0.633,0,1.182-0.429,1.336-1.043
	c1.374-5.495,9.027-5.935,9.103-5.938C30.222,48.908,30.812,48.264,30.779,47.506z M34.249,36.706l-0.293,0.523l0.545,0.249
	c3.152,1.436,9.562,3.844,17.073,3.844h0c5.075,0,9.791-1.114,14.016-3.313l0.492-0.255l-0.258-0.49
	c-2.253-4.275-5.617-7.549-9.508-9.265c0.035-0.274,0.053-0.55,0.053-0.823c0-3.575-2.908-6.484-6.483-6.484
	c-3.576,0-6.484,2.909-6.484,6.484c0,0.273,0.018,0.548,0.053,0.823C39.746,29.634,36.489,32.711,34.249,36.706z M66.787,39.311
	l-0.23-0.553l-0.532,0.275c-3.512,1.815-9.191,2.868-13.335,3.247l-0.386,0.035l-0.097,0.375c-1.126,4.344-1.79,9.673-2.18,14.619
	c-0.618-7.865-1.525-14.532-1.54-14.634l-0.498,0.068l0.029-0.541c-7.223-0.773-12.969-3.267-14.047-3.758l-0.506-0.231
	l-0.227,0.508c-1.503,3.373-2.297,7.193-2.297,11.049c0,12.762,8.498,23.146,18.944,23.146c10.445,0,18.943-10.383,18.943-23.146
	C68.829,46.091,68.142,42.572,66.787,39.311z M34.915,66.909c-0.113,0-0.227,0.014-0.336,0.042
	c-0.374,0.094-9.176,2.387-10.398,10.782c-0.109,0.752,0.414,1.453,1.165,1.562c0.067,0.01,0.134,0.015,0.2,0.015
	c0.679,0,1.265-0.507,1.362-1.179c0.948-6.518,8.27-8.488,8.341-8.506c0.736-0.185,1.185-0.934,1.001-1.67
	C36.096,67.338,35.547,66.909,34.915,66.909z M65.421,66.951c-0.728-0.184-1.491,0.277-1.672,1.002
	c-0.089,0.357-0.034,0.728,0.155,1.043s0.49,0.539,0.846,0.627c0.074,0.019,7.389,1.964,8.341,8.506
	c0.098,0.672,0.683,1.18,1.362,1.18c0.066,0,0.133-0.004,0.199-0.014c0.751-0.109,1.274-0.81,1.166-1.562
	C74.596,69.337,65.794,67.044,65.421,66.951z"/>
</svg>
