<?xml version="1.0" encoding="utf-8"?>
<!-- Generator: Adobe Illustrator 16.0.0, SVG Export Plug-In . SVG Version: 6.00 Build 0)  -->
<!DOCTYPE svg PUBLIC "-//W3C//DTD SVG 1.1//EN" "http://www.w3.org/Graphics/SVG/1.1/DTD/svg11.dtd">
<svg version="1.1" id="Layer_4" xmlns="http://www.w3.org/2000/svg" xmlns:xlink="http://www.w3.org/1999/xlink" x="0px" y="0px"
	 width="100px" height="100px" viewBox="0 0 100 100" enable-background="new 0 0 100 100" xml:space="preserve">
<path d="M76.263,11.796H23.737c-1.24,0-2.245,1.004-2.245,2.245v71.919c0,1.24,1.005,2.245,2.245,2.245h52.525
	c1.239,0,2.245-1.005,2.245-2.245V14.041C78.507,12.8,77.502,11.796,76.263,11.796z M35.925,77.46c0,1.153-0.888,2.088-1.981,2.088
	h-5.451c-1.093,0-1.981-0.935-1.981-2.088v-3.654c0-1.153,0.888-2.087,1.981-2.087h5.451c1.094,0,1.981,0.935,1.981,2.087V77.46z
	 M35.925,65.194c0,1.153-0.888,2.088-1.981,2.088h-5.451c-1.093,0-1.981-0.935-1.981-2.088V61.54c0-1.153,0.888-2.088,1.981-2.088
	h5.451c1.094,0,1.981,0.935,1.981,2.088V65.194z M35.925,53.45c0,1.153-0.888,2.087-1.981,2.087h-5.451
	c-1.093,0-1.981-0.935-1.981-2.087v-3.654c0-1.154,0.888-2.089,1.981-2.089h5.451c1.094,0,1.981,0.935,1.981,2.089V53.45z
	 M48.313,77.46c0,1.153-0.887,2.088-1.981,2.088h-5.45c-1.095,0-1.982-0.935-1.982-2.088v-3.654c0-1.153,0.888-2.087,1.982-2.087
	h5.45c1.095,0,1.981,0.935,1.981,2.087V77.46z M48.313,65.194c0,1.153-0.887,2.088-1.981,2.088h-5.45
	c-1.095,0-1.982-0.935-1.982-2.088V61.54c0-1.153,0.888-2.088,1.982-2.088h5.45c1.095,0,1.981,0.935,1.981,2.088V65.194z
	 M48.313,53.45c0,1.153-0.887,2.087-1.981,2.087h-5.45c-1.095,0-1.982-0.935-1.982-2.087v-3.654c0-1.154,0.888-2.089,1.982-2.089
	h5.45c1.095,0,1.981,0.935,1.981,2.089V53.45z M60.701,77.46c0,1.153-0.888,2.088-1.982,2.088h-5.45
	c-1.095,0-1.982-0.935-1.982-2.088v-3.654c0-1.153,0.888-2.087,1.982-2.087h5.45c1.095,0,1.982,0.935,1.982,2.087V77.46z
	 M49.361,42.24v-6.032h23.566v6.032H49.361z M60.701,65.194c0,1.153-0.888,2.088-1.982,2.088h-5.45
	c-1.095,0-1.982-0.935-1.982-2.088V61.54c0-1.153,0.888-2.088,1.982-2.088h5.45c1.095,0,1.982,0.935,1.982,2.088V65.194z
	 M60.701,53.45c0,1.153-0.888,2.087-1.982,2.087h-5.45c-1.095,0-1.982-0.935-1.982-2.087v-3.654c0-1.154,0.888-2.089,1.982-2.089
	h5.45c1.095,0,1.982,0.935,1.982,2.089V53.45z M73.489,77.982c0,1.153-0.888,2.087-1.982,2.087h-5.45
	c-1.095,0-1.983-0.935-1.983-2.087V61.801c0-1.153,0.888-2.087,1.983-2.087h5.45c1.095,0,1.982,0.935,1.982,2.087V77.982z
	 M73.489,55.538c0,1.153-0.888,2.088-1.982,2.088h-5.45c-1.095,0-1.983-0.935-1.983-2.088v-5.741c0-1.154,0.888-2.089,1.983-2.089
	h5.45c1.095,0,1.982,0.935,1.982,2.089V55.538z M73.489,28.225c0,1.239-1.005,2.245-2.244,2.245H28.974
	c-1.24,0-2.245-1.005-2.245-2.245v-7.327c0-1.24,1.005-2.245,2.245-2.245h42.271c1.239,0,2.244,1.005,2.244,2.245V28.225z
	 M55.674,36.909h0.491v4.699h-0.491V36.909z M61.25,36.909h0.491v4.699H61.25V36.909z M66.966,36.909h0.491v4.699h-0.491V36.909z"/>
</svg>
