<?xml version="1.0" encoding="utf-8"?>
<!-- Generator: Adobe Illustrator 16.0.0, SVG Export Plug-In . SVG Version: 6.00 Build 0)  -->
<!DOCTYPE svg PUBLIC "-//W3C//DTD SVG 1.1//EN" "http://www.w3.org/Graphics/SVG/1.1/DTD/svg11.dtd">
<svg version="1.1" id="Layer_5" xmlns="http://www.w3.org/2000/svg" xmlns:xlink="http://www.w3.org/1999/xlink" x="0px" y="0px"
	 width="100px" height="100px" viewBox="0 0 100 100" enable-background="new 0 0 100 100" xml:space="preserve">
<path d="M89.58,63.618H57.35c-1.049,0-1.9,0.853-1.9,1.9v7.18h-9.105V61.304h20.898c1.047,0,1.9-0.853,1.9-1.9V39.854
	c0-1.048-0.854-1.9-1.9-1.9h-32.23c-1.049,0-1.9,0.853-1.9,1.9v7.923h-8.719V36.382H42.65c1.049,0,1.9-0.853,1.9-1.9V14.934
	c0-1.048-0.852-1.9-1.9-1.9H10.42c-1.047,0-1.9,0.853-1.9,1.9v19.548c0,1.048,0.854,1.9,1.9,1.9h11.973v13.396h10.719v9.626
	c0,1.048,0.852,1.9,1.9,1.9h9.332v13.395h11.105v10.368c0,1.048,0.852,1.9,1.9,1.9h32.23c1.047,0,1.9-0.853,1.9-1.9V65.519
	C91.48,64.471,90.627,63.618,89.58,63.618z M10.42,34.534c-0.029,0-0.053-0.023-0.053-0.053V14.934c0-0.029,0.023-0.053,0.053-0.053
	h32.23c0.029,0,0.055,0.023,0.055,0.053v19.548c0,0.029-0.025,0.053-0.055,0.053H10.42z M35.012,59.456
	c-0.029,0-0.053-0.024-0.053-0.053v-9.626v-2v-7.923c0-0.028,0.023-0.053,0.053-0.053h32.23c0.029,0,0.053,0.024,0.053,0.053v19.549
	c0,0.028-0.023,0.053-0.053,0.053H35.012z M89.633,85.066c0,0.029-0.023,0.053-0.053,0.053H57.35c-0.029,0-0.055-0.023-0.055-0.053
	V65.519c0-0.029,0.025-0.053,0.055-0.053h32.23c0.029,0,0.053,0.023,0.053,0.053V85.066z"/>
</svg>
