<?xml version="1.0" encoding="utf-8"?>
<!-- Generator: Adobe Illustrator 16.0.0, SVG Export Plug-In . SVG Version: 6.00 Build 0)  -->
<!DOCTYPE svg PUBLIC "-//W3C//DTD SVG 1.1//EN" "http://www.w3.org/Graphics/SVG/1.1/DTD/svg11.dtd">
<svg version="1.1" id="Layer_6" xmlns="http://www.w3.org/2000/svg" xmlns:xlink="http://www.w3.org/1999/xlink" x="0px" y="0px"
	 width="100px" height="100px" viewBox="0 0 100 100" enable-background="new 0 0 100 100" xml:space="preserve">
<path d="M87.861,89.586V45.252V34.284h-4.959v6.95h-3.911V23.746H58.106v17.488h-5.723v-6.95h-4.959v6.95h-5.627V23.174H20.913
	v18.061h-3.816v-6.95h-4.958v10.968l0.034,44.334h27.9V73.572c0-5.535,4.486-10.022,10.021-10.022s10.021,4.487,10.021,10.022
	v16.014H87.861z M37.06,41.246H25.65v-5.501c0-3.15,2.554-5.705,5.705-5.705c3.15,0,5.704,2.555,5.704,5.705V41.246z M62.559,35.745
	c0-3.15,2.554-5.705,5.704-5.705c3.151,0,5.705,2.555,5.705,5.705v5.501H62.559V35.745z M42.685,21.743H20.026l11.329-11.329
	L42.685,21.743z M79.592,21.743H56.934l11.329-11.329L79.592,21.743z"/>
</svg>
