<?xml version="1.0" encoding="utf-8"?>
<!-- Generator: Adobe Illustrator 16.0.0, SVG Export Plug-In . SVG Version: 6.00 Build 0)  -->
<!DOCTYPE svg PUBLIC "-//W3C//DTD SVG 1.1//EN" "http://www.w3.org/Graphics/SVG/1.1/DTD/svg11.dtd">
<svg version="1.1" id="Layer_6" xmlns="http://www.w3.org/2000/svg" xmlns:xlink="http://www.w3.org/1999/xlink" x="0px" y="0px"
	 width="100px" height="100px" viewBox="0 0 100 100" enable-background="new 0 0 100 100" xml:space="preserve">
<path d="M40.617,36.369L24.008,19.76c7.003-6.027,16.108-9.679,26.073-9.679c20.911,0,38.064,16.049,39.838,36.5H66.373
	c-1.608-7.523-8.288-13.167-16.292-13.167C46.563,33.414,43.306,34.509,40.617,36.369z M33.414,50.081
	c0-3.152,0.892-6.09,2.411-8.604L19.113,24.767c-5.644,6.896-9.032,15.708-9.032,25.314c0,20.911,16.049,38.063,36.5,39.838V66.373
	C39.058,64.764,33.414,58.084,33.414,50.081z M53.581,66.373v23.546c19.297-1.674,34.664-17.042,36.338-36.338H66.373
	C65.006,59.975,59.976,65.006,53.581,66.373z"/>
</svg>
