<?xml version="1.0" encoding="utf-8"?>
<!-- Generator: Adobe Illustrator 16.0.0, SVG Export Plug-In . SVG Version: 6.00 Build 0)  -->
<!DOCTYPE svg PUBLIC "-//W3C//DTD SVG 1.1//EN" "http://www.w3.org/Graphics/SVG/1.1/DTD/svg11.dtd">
<svg version="1.1" id="Layer_6" xmlns="http://www.w3.org/2000/svg" xmlns:xlink="http://www.w3.org/1999/xlink" x="0px" y="0px"
	 width="100px" height="100px" viewBox="0 0 100 100" enable-background="new 0 0 100 100" xml:space="preserve">
<path d="M51.071,52.222l32.319,5.761C79.791,73.093,66.213,84.333,50,84.333c-5.204,0-10.135-1.164-14.555-3.236L51.071,52.222z
	 M84.089,54.045c0.155-1.328,0.245-2.676,0.245-4.045c0-18.962-15.372-34.333-34.334-34.333c-5.721,0-11.109,1.407-15.854,3.881
	l17.103,28.644L84.089,54.045z M30.711,21.596C21.631,27.774,15.666,38.189,15.666,50c0,12.33,6.503,23.136,16.263,29.191
	L47.7,50.048L30.711,21.596z"/>
</svg>
