<?xml version="1.0" encoding="utf-8"?>
<!-- Generator: Adobe Illustrator 16.0.0, SVG Export Plug-In . SVG Version: 6.00 Build 0)  -->
<!DOCTYPE svg PUBLIC "-//W3C//DTD SVG 1.1//EN" "http://www.w3.org/Graphics/SVG/1.1/DTD/svg11.dtd">
<svg version="1.1" id="Layer_6" xmlns="http://www.w3.org/2000/svg" xmlns:xlink="http://www.w3.org/1999/xlink" x="0px" y="0px"
	 width="100px" height="100px" viewBox="0 0 100 100" enable-background="new 0 0 100 100" xml:space="preserve">
<path d="M84.583,76.667v4H11.25V12h4v64.667H84.583z M28.262,27.5h-7.241V44h7.241V27.5z M38.481,22.084H31.24v16.5h7.241V22.084z
	 M49.317,22.084h-7.241v24.25h7.241V22.084z M59.268,25h-7.241v15.917h7.241V25z M69.139,19.542h-7.241v15.917h7.241V19.542z
	 M79.25,25h-7.241v15.917h7.241V25z M27.444,57.334h-7.241v11.727h7.241V57.334z M37.664,53.485h-7.241v11.727h7.241V53.485z
	 M48.5,53.485h-7.241v17.234H48.5V53.485z M58.451,55.558h-7.241V66.87h7.241V55.558z M68.321,51.678H61.08v11.313h7.241V51.678z
	 M78.432,61.213h-7.241v5.656h7.241V61.213z"/>
</svg>
