<?xml version="1.0" encoding="utf-8"?>
<!-- Generator: Adobe Illustrator 16.0.0, SVG Export Plug-In . SVG Version: 6.00 Build 0)  -->
<!DOCTYPE svg PUBLIC "-//W3C//DTD SVG 1.1//EN" "http://www.w3.org/Graphics/SVG/1.1/DTD/svg11.dtd">
<svg version="1.1" id="Layer_4" xmlns="http://www.w3.org/2000/svg" xmlns:xlink="http://www.w3.org/1999/xlink" x="0px" y="0px"
	 width="100px" height="100px" viewBox="0 0 100 100" enable-background="new 0 0 100 100" xml:space="preserve">
<path d="M94.791,80.549V50.416h-47.18v30.133H65.52v2.243c-5.051,0.24-8.541,0.746-8.541,1.334c0,0.82,6.765,1.484,15.11,1.484
	s15.11-0.664,15.11-1.484c0-0.654-4.323-1.208-10.315-1.406v-2.171H94.791z M50.71,77.966V52.74h40.981v25.226H50.71z
	 M59.229,27.373c0-0.895,0.725-1.619,1.618-1.619h16.549c0.895,0,1.619,0.724,1.619,1.619v14.391c0,0.895-0.725,1.619-1.619,1.619
	c-0.894,0-1.618-0.724-1.618-1.619V28.991H60.847C59.953,28.991,59.229,28.267,59.229,27.373z M34.48,46.547v-2.023h17.908V14.39
	H5.209v30.133h17.907v2.023c-5.527,0.221-9.428,0.752-9.428,1.375c0,0.818,6.765,1.483,15.11,1.483s15.109-0.665,15.109-1.483
	C43.908,47.299,40.008,46.768,34.48,46.547z M8.307,41.94V16.714h40.981V41.94H8.307z"/>
</svg>
