<?xml version="1.0" encoding="utf-8"?>
<!-- Generator: Adobe Illustrator 16.0.0, SVG Export Plug-In . SVG Version: 6.00 Build 0)  -->
<!DOCTYPE svg PUBLIC "-//W3C//DTD SVG 1.1//EN" "http://www.w3.org/Graphics/SVG/1.1/DTD/svg11.dtd">
<svg version="1.1" id="Layer_7" xmlns="http://www.w3.org/2000/svg" xmlns:xlink="http://www.w3.org/1999/xlink" x="0px" y="0px"
	 width="100px" height="100px" viewBox="0 0 100 100" enable-background="new 0 0 100 100" xml:space="preserve">
<path d="M87.629,47.974c0,9.067-7.193,16.466-16.169,16.843c-0.038-0.93-0.34-1.85-0.928-2.628c-0.264-0.349-0.583-0.643-0.93-0.899
	h1.147c7.342,0,13.316-5.974,13.316-13.316c0-7.343-5.974-13.316-13.316-13.316c-0.691,0-1.419,0.066-2.228,0.203l-1.139,0.192
	l-0.64-0.962c-2.481-3.726-6.627-5.95-11.092-5.95c-0.445,0-0.9,0.023-1.347,0.067l-1.502,0.153l-0.396-1.458
	c-1.573-5.783-6.851-9.822-12.837-9.822c-7.342,0-13.315,5.974-13.315,13.316c0,0.922,0.098,1.856,0.293,2.777l0.338,1.594
	l-1.556,0.479c-5.62,1.729-9.396,6.844-9.396,12.728c0,7.343,5.974,13.316,13.315,13.316h1.147
	c-0.349,0.257-0.668,0.552-0.935,0.903c-0.566,0.756-0.885,1.681-0.926,2.624c-8.976-0.378-16.165-7.776-16.165-16.843
	c0-6.931,4.133-13.02,10.434-15.605c-0.077-0.658-0.117-1.317-0.117-1.973c0-9.308,7.572-16.879,16.88-16.879
	c7.102,0,13.416,4.48,15.831,11.062c5.386-0.068,10.407,2.385,13.648,6.612c0.587-0.064,1.149-0.096,1.702-0.096
	C80.056,31.094,87.629,38.666,87.629,47.974z M50.706,41.074c-0.168-0.219-0.43-0.348-0.707-0.348s-0.536,0.129-0.705,0.348
	L32.517,62.896c-0.245,0.317-0.245,0.758-0.004,1.078c0.241,0.32,0.666,0.439,1.039,0.292l11.109-4.388v25.716
	c0,0.492,0.398,0.89,0.89,0.89h8.902c0.492,0,0.889-0.398,0.889-0.89V59.877l11.109,4.388c0.373,0.147,0.798,0.028,1.039-0.292
	c0.119-0.159,0.179-0.347,0.179-0.536c0-0.191-0.062-0.383-0.185-0.542L50.706,41.074z"/>
</svg>
