<?xml version="1.0" encoding="utf-8"?>
<!-- Generator: Adobe Illustrator 16.0.0, SVG Export Plug-In . SVG Version: 6.00 Build 0)  -->
<!DOCTYPE svg PUBLIC "-//W3C//DTD SVG 1.1//EN" "http://www.w3.org/Graphics/SVG/1.1/DTD/svg11.dtd">
<svg version="1.1" id="Layer_7" xmlns="http://www.w3.org/2000/svg" xmlns:xlink="http://www.w3.org/1999/xlink" x="0px" y="0px"
	 width="100px" height="100px" viewBox="0 0 100 100" enable-background="new 0 0 100 100" xml:space="preserve">
<path d="M92.393,57.405c0,10.487-8.532,19.017-19.017,19.017h-0.012h-2.764c-4.487,4.138-10.44,6.619-16.718,6.619
	c-0.112,0-0.222,0-0.334-0.002c-9.104-0.125-16.85-5.259-21.292-13.897l-1.316,2.911c-0.307,0.68-0.978,1.083-1.679,1.083
	c-0.253,0-0.511-0.052-0.758-0.164c-0.927-0.419-1.338-1.51-0.919-2.437l3.204-7.085c0.414-0.917,1.488-1.332,2.412-0.929
	l6.363,2.768c0.932,0.405,1.359,1.49,0.954,2.423c-0.406,0.932-1.488,1.362-2.423,0.954l-2.505-1.09
	c3.827,7.33,10.371,11.676,18.013,11.782c3.873,0.042,7.615-1.029,10.858-2.934h-4.281H47.98c-2.341-0.85-4.482-2.215-6.355-4.014
	h31.752c8.272,0,15.002-6.73,15.002-15.003c0-7.038-4.877-12.941-11.424-14.553c0.117-1.39,0.12-2.761,0.029-4.11
	C85.749,40.433,92.393,48.153,92.393,57.405z M27.889,74.608c-0.986-0.447-1.667-1.279-1.975-2.237
	c-7.941-0.373-14.293-6.933-14.293-14.966c0-6.628,4.253-12.391,10.583-14.338l1.755-0.541l-0.382-1.795
	c-0.22-1.038-0.332-2.09-0.332-3.129c0-8.272,6.729-15.002,15.001-15.002c6.745,0,12.692,4.551,14.462,11.066l0.445,1.642
	l1.693-0.172c0.504-0.05,1.017-0.076,1.519-0.076c5.029,0,9.7,2.506,12.495,6.704l0.685,1.029c0.253-2.381,0.068-4.68-0.489-6.848
	l-12.974-4.897c-1.303-3.548-3.619-6.545-6.549-8.716c0,0-0.821-0.631-2.223-1.374c6.731-1.181,13.841,0.995,18.708,6
	c5.328,5.479,6.882,13.178,4.406,21.067l-1-2.543c-0.374-0.946-1.441-1.411-2.388-1.039c-0.946,0.373-1.411,1.441-1.039,2.388
	l2.541,6.457c0.286,0.724,0.979,1.167,1.714,1.167c0.216,0,0.436-0.039,0.649-0.12l7.275-2.744c0.952-0.359,1.432-1.422,1.073-2.373
	c-0.358-0.951-1.419-1.434-2.373-1.073l-2.989,1.128c2.967-9.25,1.119-18.357-5.229-24.884c-6.969-7.166-17.849-9.409-27.073-5.586
	c-0.056,0.023-0.104,0.056-0.156,0.084c-1.003-0.186-2.067-0.303-3.184-0.303c-10.486,0-19.016,8.53-19.016,19.016
	c0,0.738,0.043,1.481,0.132,2.223c-7.099,2.912-11.756,9.772-11.756,17.581c0,10.487,8.53,19.017,19.016,19.017h4.533"/>
</svg>
