<?xml version="1.0" encoding="utf-8"?>
<!-- Generator: Adobe Illustrator 16.0.0, SVG Export Plug-In . SVG Version: 6.00 Build 0)  -->
<!DOCTYPE svg PUBLIC "-//W3C//DTD SVG 1.1//EN" "http://www.w3.org/Graphics/SVG/1.1/DTD/svg11.dtd">
<svg version="1.1" id="Layer_7" xmlns="http://www.w3.org/2000/svg" xmlns:xlink="http://www.w3.org/1999/xlink" x="0px" y="0px"
	 width="100px" height="100px" viewBox="0 0 100 100" enable-background="new 0 0 100 100" xml:space="preserve">
<path d="M70.908,36.078c-0.556,0-1.123,0.032-1.716,0.098c-3.266-4.26-8.324-6.731-13.751-6.663
	c-2.435-6.632-8.797-11.146-15.953-11.146c-9.379,0-17.009,7.63-17.009,17.009c0,0.661,0.039,1.325,0.118,1.988
	c-6.35,2.604-10.516,8.74-10.516,15.725c0,9.379,7.63,17.009,17.009,17.009h41.817c9.379,0,17.01-7.63,17.01-17.009
	S80.287,36.078,70.908,36.078z M70.908,66.507H29.091c-7.398,0-13.418-6.02-13.418-13.419c0-5.929,3.804-11.083,9.467-12.825
	l1.568-0.483l-0.341-1.605c-0.197-0.928-0.297-1.869-0.297-2.799c0-7.398,6.02-13.418,13.418-13.418
	c6.033,0,11.352,4.07,12.936,9.897l0.398,1.469l1.514-0.153c0.451-0.045,0.909-0.068,1.359-0.068c4.497,0,8.676,2.241,11.175,5.996
	l0.646,0.969l1.147-0.192c0.815-0.138,1.549-0.205,2.245-0.205c7.399,0,13.419,6.02,13.419,13.419S78.308,66.507,70.908,66.507z
	 M55.385,77.799h11.48v2.921h-11.48v0.914H42.673V80.72H28.521v-2.921h14.151v-1.461h3.709V72.67l5.294-0.001v3.669h3.709V77.799z"
	/>
</svg>
