<?xml version="1.0" encoding="utf-8"?>
<!-- Generator: Adobe Illustrator 16.0.0, SVG Export Plug-In . SVG Version: 6.00 Build 0)  -->
<!DOCTYPE svg PUBLIC "-//W3C//DTD SVG 1.1//EN" "http://www.w3.org/Graphics/SVG/1.1/DTD/svg11.dtd">
<svg version="1.1" id="Layer_7" xmlns="http://www.w3.org/2000/svg" xmlns:xlink="http://www.w3.org/1999/xlink" x="0px" y="0px"
	 width="100px" height="100px" viewBox="0 0 100 100" enable-background="new 0 0 100 100" xml:space="preserve">
<path d="M50,9.775C27.82,9.775,9.775,27.82,9.775,50S27.82,90.225,50,90.225S90.225,72.18,90.225,50S72.18,9.775,50,9.775z
	 M50,86.225c-19.975,0-36.225-16.25-36.225-36.225S30.025,13.775,50,13.775S86.225,30.025,86.225,50S69.975,86.225,50,86.225z
	 M34.848,43.135c-3.503,0-6.343-2.84-6.343-6.343s2.84-6.343,6.343-6.343s6.343,2.84,6.343,6.343S38.351,43.135,34.848,43.135z
	 M71.691,36.792c0,3.503-2.84,6.343-6.343,6.343s-6.343-2.84-6.343-6.343s2.84-6.343,6.343-6.343S71.691,33.289,71.691,36.792z
	 M41.132,52.101c0-4.896,3.971-8.868,8.868-8.868s8.868,3.972,8.868,8.868S54.897,60.969,50,60.969S41.132,56.997,41.132,52.101z
	 M66.967,60.941c0,8.685-7.61,15.75-16.966,15.75s-16.967-7.065-16.967-15.75c0-0.828,0.671-1.5,1.5-1.5c0.828,0,1.5,0.672,1.5,1.5
	c0,7.03,6.266,12.75,13.967,12.75s13.966-5.72,13.966-12.75c0-0.828,0.671-1.5,1.5-1.5S66.967,60.113,66.967,60.941z"/>
</svg>
