<?xml version="1.0" encoding="utf-8"?>
<!-- Generator: Adobe Illustrator 16.0.0, SVG Export Plug-In . SVG Version: 6.00 Build 0)  -->
<!DOCTYPE svg PUBLIC "-//W3C//DTD SVG 1.1//EN" "http://www.w3.org/Graphics/SVG/1.1/DTD/svg11.dtd">
<svg version="1.1" id="Layer_5" xmlns="http://www.w3.org/2000/svg" xmlns:xlink="http://www.w3.org/1999/xlink" x="0px" y="0px"
	 width="100px" height="100px" viewBox="0 0 100 100" enable-background="new 0 0 100 100" xml:space="preserve">
<path d="M89.11,37.471v22.085H53.009V37.471H89.11z M16.554,41.895h-3.469v3.079v6.159v4.141h3.469v-4.141h14.794v-6.159H16.554
	V41.895z M86.35,69.325h-4.46v-4.672H47.063c-0.938,0-1.699-0.761-1.699-1.699v-4.105h2.761v-2.69h-2.761v-3.681h2.761v-2.69h-2.761
	v-3.256h2.761v-2.69h-2.761v-3.681h2.761v-2.69h-2.761v-2.548c0-0.938,0.761-1.699,1.699-1.699H81.89v-2.548h4.46
	c0.938,0,1.699-0.761,1.699-1.699V23.03c0-0.938-0.761-1.699-1.699-1.699H52.514c-0.938,0-1.699,0.761-1.699,1.699v1.062H36.869
	c-0.938,0-1.699,0.761-1.699,1.699v11.68h-2.194v2.69h2.194v3.681h-2.194v2.69h2.194v3.256h-2.194v2.69h2.194v3.681h-2.194v2.69
	h2.194V72.51c0,0.938,0.761,1.699,1.699,1.699h13.945v2.761c0,0.938,0.761,1.699,1.699,1.699H86.35c0.938,0,1.699-0.761,1.699-1.699
	v-5.946C88.049,70.085,87.288,69.325,86.35,69.325z M17.261,55.982h-4.672c-0.938,0-1.699,0.761-1.699,1.699v0.566
	c0,0.938,0.761,1.699,1.699,1.699h4.672c0.938,0,1.699-0.761,1.699-1.699v-0.566C18.96,56.743,18.199,55.982,17.261,55.982z
	 M12.589,41.045h4.672c0.938,0,1.699-0.76,1.699-1.699V38.78c0-0.938-0.761-1.699-1.699-1.699h-4.672
	c-0.938,0-1.699,0.761-1.699,1.699v0.566C10.89,40.285,11.65,41.045,12.589,41.045z"/>
</svg>
