<?xml version="1.0" encoding="utf-8"?>
<!-- Generator: Adobe Illustrator 16.0.0, SVG Export Plug-In . SVG Version: 6.00 Build 0)  -->
<!DOCTYPE svg PUBLIC "-//W3C//DTD SVG 1.1//EN" "http://www.w3.org/Graphics/SVG/1.1/DTD/svg11.dtd">
<svg version="1.1" id="Layer_5" xmlns="http://www.w3.org/2000/svg" xmlns:xlink="http://www.w3.org/1999/xlink" x="0px" y="0px"
	 width="100px" height="100px" viewBox="0 0 100 100" enable-background="new 0 0 100 100" xml:space="preserve">
<path d="M58.75,54.885c0,2.179-0.807,4.267-2.271,5.88c-0.296,0.326-0.702,0.492-1.11,0.492c-0.36,0-0.721-0.128-1.008-0.39
	c-0.614-0.557-0.659-1.505-0.103-2.119c0.962-1.06,1.491-2.431,1.491-3.863c0-3.17-2.579-5.75-5.75-5.75s-5.75,2.58-5.75,5.75
	c0,1.408,0.514,2.763,1.447,3.814c0.551,0.619,0.494,1.567-0.125,2.118c-0.622,0.55-1.569,0.492-2.117-0.125
	c-1.422-1.601-2.205-3.663-2.205-5.806c0-4.825,3.925-8.75,8.75-8.75S58.75,50.06,58.75,54.885z M50,33.885c-11.579,0-21,9.42-21,21
	c0,5.467,2.091,10.645,5.887,14.58c0.294,0.305,0.687,0.458,1.079,0.458c0.375,0,0.75-0.14,1.041-0.42
	c0.597-0.575,0.613-1.525,0.038-2.121C33.792,64.009,32,59.571,32,54.885c0-9.925,8.075-18,18-18s18,8.075,18,18
	c0,4.687-1.791,9.125-5.044,12.496c-0.575,0.596-0.559,1.546,0.038,2.121s1.546,0.559,2.12-0.038C68.91,65.53,71,60.353,71,54.885
	C71,43.305,61.579,33.885,50,33.885z M50,20.885c-18.748,0-34,15.252-34,34c0,8.943,3.444,17.388,9.698,23.779
	c0.579,0.592,1.53,0.601,2.121,0.023c0.593-0.58,0.603-1.529,0.023-2.122C22.141,70.739,19,63.039,19,54.885
	c0-17.093,13.906-31,31-31s31,13.907,31,31c0,8.155-3.141,15.855-8.844,21.681c-0.579,0.592-0.569,1.542,0.023,2.121
	c0.291,0.286,0.67,0.428,1.049,0.428c0.389,0,0.778-0.15,1.072-0.451C80.556,72.274,84,63.829,84,54.885
	C84,36.137,68.748,20.885,50,20.885z"/>
</svg>
