<?xml version="1.0" encoding="utf-8"?>
<!-- Generator: Adobe Illustrator 16.0.0, SVG Export Plug-In . SVG Version: 6.00 Build 0)  -->
<!DOCTYPE svg PUBLIC "-//W3C//DTD SVG 1.1//EN" "http://www.w3.org/Graphics/SVG/1.1/DTD/svg11.dtd">
<svg version="1.1" id="Layer_7" xmlns="http://www.w3.org/2000/svg" xmlns:xlink="http://www.w3.org/1999/xlink" x="0px" y="0px"
	 width="100px" height="100px" viewBox="0 0 100 100" enable-background="new 0 0 100 100" xml:space="preserve">
<path d="M67.651,44.352c-12.825,0-23.259,8.656-23.259,19.299c0,10.27,9.719,18.691,21.927,19.268
	c-1.253,1.754-2.957,3.342-5.087,4.732c-0.542,0.355-0.789,1.021-0.615,1.645c0.176,0.623,0.736,1.063,1.385,1.082l0.182,0.004
	c0,0,0,0,0.001,0c1.308,0,12.75-0.295,17.757-10.34c6.779-3.506,10.967-9.742,10.967-16.391
	C90.909,53.008,80.475,44.352,67.651,44.352z M78.169,77.607c-0.304,0.152-0.55,0.4-0.693,0.709
	c-2.429,5.234-6.946,7.459-10.462,8.402c1.362-1.426,2.446-2.979,3.243-4.645c0.226-0.473,0.187-1.027-0.103-1.463
	c-0.275-0.416-0.741-0.664-1.235-0.664c-0.025,0-0.049,0.002-0.072,0.002c-0.396,0.02-0.794,0.031-1.196,0.031
	c-11.188,0-20.289-7.326-20.289-16.33s9.102-16.33,20.289-16.33c11.187,0,20.289,7.326,20.289,16.33
	C87.94,69.391,84.287,74.609,78.169,77.607z M38.769,52.92c-2.131-1.393-3.834-2.979-5.088-4.732
	c12.208-0.576,21.927-8.998,21.927-19.27c0-10.641-10.434-19.299-23.259-19.299c-12.824,0-23.257,8.658-23.257,19.299
	c0,6.648,4.188,12.887,10.967,16.393c5.007,10.043,16.449,10.338,17.757,10.338h0l0.183-0.002c0.648-0.02,1.209-0.459,1.385-1.084
	C39.558,53.939,39.311,53.275,38.769,52.92z M22.524,43.586c-0.144-0.309-0.389-0.559-0.693-0.709
	c-6.118-2.998-9.771-8.217-9.771-13.959c0-9.004,9.102-16.33,20.289-16.33c11.188,0,20.29,7.326,20.29,16.33
	c0,9.006-9.102,16.332-20.29,16.332c-0.401,0-0.8-0.012-1.195-0.031c-0.023,0-0.048-0.002-0.072-0.002
	c-0.495,0-0.96,0.248-1.235,0.664c-0.29,0.434-0.329,0.988-0.104,1.461c0.798,1.668,1.882,3.219,3.243,4.645
	C29.47,51.045,24.953,48.818,22.524,43.586z"/>
</svg>
