<?xml version="1.0" encoding="utf-8"?>
<!-- Generator: Adobe Illustrator 16.0.0, SVG Export Plug-In . SVG Version: 6.00 Build 0)  -->
<!DOCTYPE svg PUBLIC "-//W3C//DTD SVG 1.1//EN" "http://www.w3.org/Graphics/SVG/1.1/DTD/svg11.dtd">
<svg version="1.1" id="Layer_5" xmlns="http://www.w3.org/2000/svg" xmlns:xlink="http://www.w3.org/1999/xlink" x="0px" y="0px"
	 width="100px" height="100px" viewBox="0 0 100 100" enable-background="new 0 0 100 100" xml:space="preserve">
<path d="M16.024,32.712h50.912c0.915,0,1.655-0.741,1.655-1.655V16.01c0-0.914-0.74-1.655-1.655-1.655H16.024
	c-0.915,0-1.655,0.741-1.655,1.655v15.047C14.369,31.971,15.109,32.712,16.024,32.712z M19.75,18.762h21.73v8.692H19.75V18.762z
	 M68.592,46.28v-8.074c0-0.914-0.74-1.655-1.655-1.655H16.024c-0.915,0-1.655,0.741-1.655,1.655v15.047
	c0,0.915,0.74,1.656,1.655,1.656h30.879v-2.725c0-3.256,2.648-5.904,5.904-5.904H68.592z M41.48,49.427H19.75v-8.692h21.73V49.427z
	 M14.369,60.189v15.047c0,0.914,0.74,1.655,1.655,1.655h30.879V58.534H16.024C15.109,58.534,14.369,59.275,14.369,60.189z
	 M19.75,63.367h21.73v8.692H19.75V63.367z M82.821,49.78C82.821,49.78,82.821,49.78,82.821,49.78h-28.56
	c-1.326,0-2.404,1.078-2.404,2.404v25.622h0.008c0.039,0.416,0.376,0.741,0.793,0.741s0.756-0.325,0.794-0.741h0.008V52.185
	c0-0.442,0.36-0.801,0.802-0.801h24.584c0.441,0,0.802,0.358,0.802,0.801v31.057c0,0.441-0.36,0.801-0.802,0.801H75.64
	c-0.295-0.126-1.478-0.688-1.478-1.557c0-1,1.542-1.62,1.555-1.625c0.362-0.137,0.576-0.512,0.506-0.893
	c-0.069-0.383-0.4-0.66-0.788-0.66H52.711c-1.742,0-3.159,1.417-3.159,3.159s1.417,3.159,3.159,3.159H74.57
	c-0.001,0.007-0.001,0.013-0.004,0.02h4.279c1.325,0,2.404-1.078,2.404-2.404V52.482c0.012-1.129,1.385-1.099,1.54-1.099h0.007
	c0.679,0,1.231,0.553,1.231,1.231c0,0.68-0.553,1.232-1.231,1.232c-0.442,0-0.802,0.358-0.802,0.802s0.359,0.801,0.802,0.801
	c1.563,0,2.834-1.271,2.834-2.835S84.359,49.78,82.821,49.78z M73.055,84.022H52.711c-0.857,0-1.556-0.698-1.556-1.556
	c0-0.858,0.698-1.556,1.556-1.556h20.366c-0.305,0.429-0.518,0.951-0.518,1.574C72.56,83.094,72.762,83.604,73.055,84.022z"/>
</svg>
