<?xml version="1.0" encoding="utf-8"?>
<!-- Generator: Adobe Illustrator 16.0.0, SVG Export Plug-In . SVG Version: 6.00 Build 0)  -->
<!DOCTYPE svg PUBLIC "-//W3C//DTD SVG 1.1//EN" "http://www.w3.org/Graphics/SVG/1.1/DTD/svg11.dtd">
<svg version="1.1" id="Layer_5" xmlns="http://www.w3.org/2000/svg" xmlns:xlink="http://www.w3.org/1999/xlink" x="0px" y="0px"
	 width="100px" height="100px" viewBox="0 0 100 100" enable-background="new 0 0 100 100" xml:space="preserve">
<path d="M75.456,18.179H24.544c-0.915,0-1.656,0.741-1.656,1.655v15.047c0,0.914,0.741,1.655,1.656,1.655h50.912
	c0.915,0,1.656-0.741,1.656-1.655V19.834C77.112,18.92,76.371,18.179,75.456,18.179z M50,31.278H28.269v-8.692H50V31.278z
	 M75.456,40.375H24.544c-0.915,0-1.656,0.741-1.656,1.655v15.047c0,0.915,0.741,1.656,1.656,1.656h50.912
	c0.915,0,1.656-0.741,1.656-1.656V42.03C77.112,41.116,76.371,40.375,75.456,40.375z M50,53.251H28.269v-8.692H50V53.251z
	 M75.456,62.358H24.544c-0.915,0-1.656,0.741-1.656,1.655v15.047c0,0.914,0.741,1.655,1.656,1.655h50.912
	c0.915,0,1.656-0.741,1.656-1.655V64.014C77.112,63.1,76.371,62.358,75.456,62.358z M50,75.884H28.269v-8.692H50V75.884z"/>
</svg>
