<?xml version="1.0" encoding="utf-8"?>
<!-- Generator: Adobe Illustrator 16.0.0, SVG Export Plug-In . SVG Version: 6.00 Build 0)  -->
<!DOCTYPE svg PUBLIC "-//W3C//DTD SVG 1.1//EN" "http://www.w3.org/Graphics/SVG/1.1/DTD/svg11.dtd">
<svg version="1.1" id="Layer_5" xmlns="http://www.w3.org/2000/svg" xmlns:xlink="http://www.w3.org/1999/xlink" x="0px" y="0px"
	 width="100px" height="100px" viewBox="0 0 100 100" enable-background="new 0 0 100 100" xml:space="preserve">
<path d="M13.863,63.522c0-0.19,0.06-0.385,0.182-0.549c0.248-0.325,0.682-0.447,1.063-0.298l11.36,4.488v-47.57
	c0-0.503,0.409-0.909,0.911-0.909h9.105c0.502,0,0.909,0.406,0.909,0.909v47.57l11.361-4.488c0.381-0.149,0.815-0.027,1.062,0.298
	c0.246,0.328,0.245,0.778-0.006,1.104L32.653,86.396c-0.173,0.224-0.44,0.355-0.723,0.355c-0.281,0-0.549-0.132-0.722-0.355
	L14.053,64.077C13.926,63.913,13.863,63.717,13.863,63.522z M48.581,84.392h25.958v-6H48.581V84.392z M56.265,74.225h18.274v-6
	H56.265V74.225z M65.401,63.975h9.138v-6h-9.138V63.975z"/>
</svg>
