<?xml version="1.0" encoding="utf-8"?>
<!-- Generator: Adobe Illustrator 16.0.0, SVG Export Plug-In . SVG Version: 6.00 Build 0)  -->
<!DOCTYPE svg PUBLIC "-//W3C//DTD SVG 1.1//EN" "http://www.w3.org/Graphics/SVG/1.1/DTD/svg11.dtd">
<svg version="1.1" id="Layer_6" xmlns="http://www.w3.org/2000/svg" xmlns:xlink="http://www.w3.org/1999/xlink" x="0px" y="0px"
	 width="100px" height="100px" viewBox="0 0 100 100" enable-background="new 0 0 100 100" xml:space="preserve">
<path d="M85.184,43.691c0,2.057-0.189,4.07-0.529,6.033l-0.616,2.863c-1.953,7.467-6.306,13.973-12.178,18.645
	c0.073-1.219-0.26-2.457-1.03-3.477c-0.096-0.129-0.201-0.246-0.307-0.363c0.016-0.014,0.034-0.025,0.05-0.041
	c-1.456-3.645-5.656-5.873-5.288-10.672c0.862-8.176,10.288-4.67,15.596-7.455c0.32-1.799,0.498-3.646,0.498-5.533
	c0-11.75-6.494-22.004-16.076-27.381c0.156,0.145,0.318,0.289,0.458,0.432c6.18,6.18,2.851,6.656,3.803,13.787
	c0,2.379,4.913,1.98,4.439,6.26c-0.952,4.281-1.11,8.479-5.391,4.912c-4.277-3.566-7.13-0.711-8.558-1.188
	c-1.901-0.951-2.851-5.229-5.228-5.229c-4.07,0.289-4.055,5.373-5.273,8.414h-3.966c-0.933,0-1.808,0.246-2.568,0.674
	c-7.1-5.773,0.467-21.006-8.848-27.764c-6.123,3.592-10.924,9.199-13.49,15.906c2.369,0.678,4.775,1.707,5.549,3.598
	c1.862,4.119-0.765,5.98-2.094,8.725c-0.141,1.16-0.364,2.227-0.676,3.08c0.255,4.266,7.479,8.127,7.163,12.363
	c-0.261,3.504-2.882,3.699-5.5,2.51c1.292,1.678,2.757,3.213,4.355,4.6c-0.105,0.115-0.209,0.23-0.304,0.357
	c-0.685,0.906-1.063,2.033-1.063,3.17c0,0.105,0.02,0.207,0.026,0.311c-8.109-6.449-13.322-16.393-13.322-27.537
	c0-19.402,15.782-35.186,35.182-35.186C69.398,8.506,85.184,24.289,85.184,43.691z M66.302,68.166l-11.009,4.35V47.029
	c0-0.488-0.395-0.883-0.883-0.883h-8.822c-0.487,0-0.882,0.395-0.882,0.883v25.486l-11.008-4.35
	c-0.369-0.146-0.79-0.029-1.028,0.289c-0.119,0.156-0.178,0.344-0.178,0.531c0,0.189,0.061,0.379,0.183,0.537l16.626,21.625
	c0.167,0.219,0.425,0.346,0.699,0.346c0.273,0,0.532-0.127,0.699-0.346l16.626-21.625c0.243-0.314,0.244-0.752,0.005-1.068
	C67.091,68.137,66.67,68.02,66.302,68.166z"/>
</svg>
