<?xml version="1.0" encoding="utf-8"?>
<!-- Generator: Adobe Illustrator 16.0.0, SVG Export Plug-In . SVG Version: 6.00 Build 0)  -->
<!DOCTYPE svg PUBLIC "-//W3C//DTD SVG 1.1//EN" "http://www.w3.org/Graphics/SVG/1.1/DTD/svg11.dtd">
<svg version="1.1" id="Layer_5" xmlns="http://www.w3.org/2000/svg" xmlns:xlink="http://www.w3.org/1999/xlink" x="0px" y="0px"
	 width="100px" height="100px" viewBox="0 0 100 100" enable-background="new 0 0 100 100" xml:space="preserve">
<path d="M74.722,40.152c0,0.38-0.308,0.688-0.688,0.688s-0.688-0.308-0.688-0.688s0.309-0.688,0.688-0.688
	S74.722,39.772,74.722,40.152z M53.595,39.464c-0.38,0-0.688,0.308-0.688,0.688s0.309,0.688,0.688,0.688s0.688-0.308,0.688-0.688
	S53.975,39.464,53.595,39.464z M32.845,39.464c-0.38,0-0.688,0.308-0.688,0.688s0.309,0.688,0.688,0.688s0.688-0.308,0.688-0.688
	S33.225,39.464,32.845,39.464z M83.5,47c0,4.556,3.693,8.25,8.25,8.25V65.5h-2.5v6H86v-6h-3.648v6h-3.25v-6H75.17v6h-3.25v-6h-3.648
	v6h-3.25v-6h-3.729v6h-3.25v-6h-3.648v6h-3.25v-6h-3.5v6h-3.25v-6h-3.25v6h-3.25v-6h-3.996v6h-3.25v-6H27v6h-3.25v-6h-3.5v6H17v-6
	h-3.25v6H10.5v-6H8.25V55.25c4.557,0,8.25-3.694,8.25-8.25s-3.693-8.25-8.25-8.25V28.5h83.5v10.25C87.193,38.75,83.5,42.444,83.5,47
	z M37.465,40.826h-1.344v-0.33h-1.311v-1.884h-8.912v1.851h-1.344v0.329h-1.344v0.836h1.344v0.506h1.344v1.129h-1.344v0.33h-1.344
	v0.835h1.344v0.506h1.344v1.295h-1.344v0.329h-1.344v0.836h1.344v0.506h1.344v1.212h-1.344v0.33h-1.344v0.835h1.344v0.506h1.344
	v1.081h-1.344v0.33h-1.344v0.835h1.344v0.506h1.344v1.852h8.912V53.57h1.311v-0.506h1.344v-0.835h-1.344v-0.33h-1.311v-1.081h1.311
	v-0.506h1.344v-0.835h-1.344v-0.329h-1.311v-1.212h1.311v-0.506h1.344v-0.835h-1.344v-0.33h-1.311v-1.295h1.311v-0.506h1.344v-0.835
	h-1.344v-0.329h-1.311v-1.129h1.311v-0.506h1.344V40.826z M58.465,40.826h-1.344v-0.33h-1.311v-1.884h-8.912v1.851h-1.344v0.329
	h-1.344v0.836h1.344v0.506h1.344v1.129h-1.344v0.33h-1.344v0.835h1.344v0.506h1.344v1.295h-1.344v0.329h-1.344v0.836h1.344v0.506
	h1.344v1.212h-1.344v0.33h-1.344v0.835h1.344v0.506h1.344v1.081h-1.344v0.33h-1.344v0.835h1.344v0.506h1.344v1.852h8.912V53.57
	h1.311v-0.506h1.344v-0.835h-1.344v-0.33h-1.311v-1.081h1.311v-0.506h1.344v-0.835h-1.344v-0.329h-1.311v-1.212h1.311v-0.506h1.344
	v-0.835h-1.344v-0.33h-1.311v-1.295h1.311v-0.506h1.344v-0.835h-1.344v-0.329h-1.311v-1.129h1.311v-0.506h1.344V40.826z
	 M78.654,40.826h-1.344v-0.33H76v-1.884h-8.912v1.851h-1.344v0.329H64.4v0.836h1.344v0.506h1.344v1.129h-1.344v0.33H64.4v0.835
	h1.344v0.506h1.344v1.295h-1.344v0.329H64.4v0.836h1.344v0.506h1.344v1.212h-1.344v0.33H64.4v0.835h1.344v0.506h1.344v1.081h-1.344
	v0.33H64.4v0.835h1.344v0.506h1.344v1.852H76V53.57h1.311v-0.506h1.344v-0.835h-1.344v-0.33H76v-1.081h1.311v-0.506h1.344v-0.835
	h-1.344v-0.329H76v-1.212h1.311v-0.506h1.344v-0.835h-1.344v-0.33H76v-1.295h1.311v-0.506h1.344v-0.835h-1.344v-0.329H76v-1.129
	h1.311v-0.506h1.344V40.826z"/>
</svg>
