<?xml version="1.0" encoding="utf-8"?>
<!-- Generator: Adobe Illustrator 16.0.0, SVG Export Plug-In . SVG Version: 6.00 Build 0)  -->
<!DOCTYPE svg PUBLIC "-//W3C//DTD SVG 1.1//EN" "http://www.w3.org/Graphics/SVG/1.1/DTD/svg11.dtd">
<svg version="1.1" id="Layer_6" xmlns="http://www.w3.org/2000/svg" xmlns:xlink="http://www.w3.org/1999/xlink" x="0px" y="0px"
	 width="100px" height="100px" viewBox="0 0 100 100" enable-background="new 0 0 100 100" xml:space="preserve">
<path d="M81.524,19.499c-3.008,3.63-6.064,6.296-10.707,3.489c-4.091-2.472-7.004-5.667-12.192-5.157
	c-4.041,0.394-7.323,3.785-8.473,7.502c-0.166,0.537-0.22,1.095-0.217,1.666c-3.121-0.07-6.231,1.123-8.513,3.471l-0.09-0.067
	L12.087,69.745l0.021,0.015c-0.106,0.128-0.218,0.249-0.319,0.386C8,75.242,9.06,82.447,14.156,86.235
	c5.098,3.79,12.302,2.729,16.091-2.368c0.101-0.136,0.185-0.278,0.277-0.417l0.021,0.017l29.246-39.342l-0.09-0.067
	c2.761-4.964,1.496-11.321-3.187-14.802c-1.118-0.832-2.338-1.423-3.601-1.794c0.015-1.965,1.045-3.687,2.534-5.021
	c2.353-2.108,5.481-2.005,8.202-0.761c3.895,1.781,6.655,5.939,11.391,5.652c3.886-0.236,6.563-3.236,8.891-6.043
	C85.168,19.798,82.754,18.015,81.524,19.499z M53.209,29.733c0.708,0.311,1.403,0.704,2.063,1.195
	c3.837,2.852,5.083,7.669,2.786,10.759c-2.297,3.091-7.27,3.285-11.106,0.433c-3.838-2.853-5.083-7.67-2.786-10.761
	c1.335-1.796,3.575-2.605,5.971-2.416c0.455,2.563,1.379,5.19-0.292,7.19c-1.241,1.487,1.172,3.269,2.407,1.79
	C54.335,35.43,53.737,32.606,53.209,29.733z M79.875,16.461l-2.421-4.969l3.277,4.452L79.875,16.461z M89.827,13.985l-3.742,4.479
	l-0.709-0.706L89.827,13.985z M96.709,28.33l-10.195-5.183l0.492-0.87L96.709,28.33z M85.419,24.157l0.235,13.008l-1.234-12.95
	L85.419,24.157z"/>
</svg>
