<?xml version="1.0" encoding="utf-8"?>
<!-- Generator: Adobe Illustrator 16.0.0, SVG Export Plug-In . SVG Version: 6.00 Build 0)  -->
<!DOCTYPE svg PUBLIC "-//W3C//DTD SVG 1.1//EN" "http://www.w3.org/Graphics/SVG/1.1/DTD/svg11.dtd">
<svg version="1.1" id="Layer_7" xmlns="http://www.w3.org/2000/svg" xmlns:xlink="http://www.w3.org/1999/xlink" x="0px" y="0px"
	 width="100px" height="100px" viewBox="0 0 100 100" enable-background="new 0 0 100 100" xml:space="preserve">
<path d="M71.486,44.694H12.422c-0.361,0-0.654,0.294-0.654,0.656v40.688c0,0.362,0.293,0.656,0.654,0.656h59.064
	c0.361,0,0.656-0.294,0.656-0.656V45.351C72.143,44.988,71.848,44.694,71.486,44.694z M61.498,49.944L41.955,64.276L22.412,49.944
	H61.498z M66.893,81.444H17.018V52.5l24.549,18.003c0.232,0.17,0.545,0.17,0.777,0L66.893,52.5V81.444z M88.232,40.141
	c0,1.568-0.143,3.104-0.4,4.602l-0.469,2.185c-1.697,6.487-5.768,12.024-11.223,15.626v-3.591c0.322-0.252,0.643-0.506,0.951-0.773
	c-0.238-0.596-0.574-1.142-0.951-1.668V46.04c2.617-0.881,6.313-0.368,8.811-1.68c0.246-1.371,0.381-2.779,0.381-4.22
	c0-8.961-4.951-16.783-12.26-20.883c0.117,0.109,0.24,0.221,0.348,0.328c4.715,4.713,2.176,5.077,2.902,10.517
	c0,1.813,3.746,1.51,3.385,4.773c-0.725,3.264-0.848,6.47-4.111,3.749c-3.262-2.721-3.627,0.501-6.527-0.907
	c-1.451-0.726-2.176-3.989-3.988-3.989c-5.078,0.361-1.813,10.516-7.979,7.617c-7.145-3.744-0.266-16.414-7.773-21.859
	c-4.67,2.739-8.332,7.014-10.291,12.131c1.809,0.518,3.643,1.302,4.234,2.744c1.42,3.141-0.584,4.563-1.598,6.654
	c-0.039,0.313-0.088,0.611-0.141,0.901h-6.904c-0.039-0.588-0.066-1.179-0.066-1.776c0-14.798,12.039-26.835,26.836-26.835
	S88.232,25.343,88.232,40.141z"/>
</svg>
