<?xml version="1.0" encoding="utf-8"?>
<!-- Generator: Adobe Illustrator 16.0.0, SVG Export Plug-In . SVG Version: 6.00 Build 0)  -->
<!DOCTYPE svg PUBLIC "-//W3C//DTD SVG 1.1//EN" "http://www.w3.org/Graphics/SVG/1.1/DTD/svg11.dtd">
<svg version="1.1" id="Layer_7" xmlns="http://www.w3.org/2000/svg" xmlns:xlink="http://www.w3.org/1999/xlink" x="0px" y="0px"
	 width="100px" height="100px" viewBox="0 0 100 100" enable-background="new 0 0 100 100" xml:space="preserve">
<path d="M50,9.775C27.82,9.775,9.775,27.82,9.775,50S27.82,90.225,50,90.225S90.225,72.18,90.225,50S72.18,9.775,50,9.775z
	 M50,86.225c-19.974,0-36.225-16.25-36.225-36.225S30.026,13.775,50,13.775S86.225,30.025,86.225,50S69.974,86.225,50,86.225z
	 M70.354,37.869c0,3.503-2.84,6.343-6.343,6.343s-6.343-2.84-6.343-6.343s2.84-6.343,6.343-6.343S70.354,34.366,70.354,37.869z
	 M30.933,37.869c0-3.503,2.84-6.343,6.344-6.343c3.502,0,6.342,2.84,6.342,6.343s-2.84,6.343-6.342,6.343
	C33.772,44.212,30.933,41.372,30.933,37.869z M67.776,72.112c0.697,3.688-1.727,7.241-5.414,7.938s-7.241-1.727-7.938-5.414
	l-0.688-3.634c-6.874,1.14-15.036,0.801-21.438-4.503v-4H67.7v4c0,0-0.322,0.168-0.902,0.438L67.776,72.112z"/>
</svg>
