<?xml version="1.0" encoding="utf-8"?>
<!-- Generator: Adobe Illustrator 16.0.0, SVG Export Plug-In . SVG Version: 6.00 Build 0)  -->
<!DOCTYPE svg PUBLIC "-//W3C//DTD SVG 1.1//EN" "http://www.w3.org/Graphics/SVG/1.1/DTD/svg11.dtd">
<svg version="1.1" id="Layer_7" xmlns="http://www.w3.org/2000/svg" xmlns:xlink="http://www.w3.org/1999/xlink" x="0px" y="0px"
	 width="100px" height="100px" viewBox="0 0 100 100" enable-background="new 0 0 100 100" xml:space="preserve">
<path d="M24.174,11.662v76.676h51.652V11.662H24.174z M26.099,13.587h47.8c-0.285,1.274-3.584,15.217-11.354,15.495h-23.74
	c-0.128,0-12.706-1.147-12.706-15.399V13.587z M26.362,86.413c0.944-3.569,4.32-14.194,11.093-14.437h23.74
	c0.125,0,12.123,1.102,12.679,14.437H26.362z M61.195,70.051l-23.775,0c-5.818,0.208-9.38,6.169-11.321,11.006V22.485
	c3.451,6.801,10.538,8.522,12.706,8.522l23.774-0.001C68.398,30.798,71.96,24.837,73.9,20v58.573
	C70.449,71.772,63.362,70.051,61.195,70.051z"/>
</svg>
