<?xml version="1.0" encoding="utf-8"?>
<!-- Generator: Adobe Illustrator 16.0.0, SVG Export Plug-In . SVG Version: 6.00 Build 0)  -->
<!DOCTYPE svg PUBLIC "-//W3C//DTD SVG 1.1//EN" "http://www.w3.org/Graphics/SVG/1.1/DTD/svg11.dtd">
<svg version="1.1" id="Layer_6" xmlns="http://www.w3.org/2000/svg" xmlns:xlink="http://www.w3.org/1999/xlink" x="0px" y="0px"
	 width="100px" height="100px" viewBox="0 0 100 100" enable-background="new 0 0 100 100" xml:space="preserve">
<path d="M57.613,75.045l3.451-3.574l2.253,4.607c0,0-2.94,12.561-6.798,13.123c-3.859,0.561-10.85-5.623-10.85-5.623l1.635-3.154
	l1.569-3.027l3.025-0.434l1.541-3.283l4.021-0.648L57.613,75.045z M42.534,46.16c-3.126,4.547-7.104,5.4-7.104,5.4v7.389
	c0,0,0.267,1.584,6.398,0.17C40.251,58.031,45.37,42.035,42.534,46.16z M42.534,58.949c-0.245,0.061-0.479,0.115-0.707,0.17
	C41.987,59.23,42.218,59.188,42.534,58.949z M69.388,42.072L64.5,36.916c0,0-2.301,3.83-6.228,5.902
	c4.365,0.17,7.517,2.664,7.517,2.664L69.388,42.072z M55.969,24.523l-1.298-1.371c0,0-0.611,1.018-1.654,1.568
	c1.16,0.045,1.997,0.707,1.997,0.707L55.969,24.523z M29.23,30.799l-1.298-1.369c0,0-0.611,1.018-1.654,1.568
	c1.159,0.045,1.996,0.707,1.996,0.707L29.23,30.799z M58.601,72.768c0,0-0.113-0.297-0.022-0.633
	c-0.251,0.248-0.597,0.332-0.597,0.332l0.274,0.492L58.601,72.768z M56.475,70.59l0.505,0.91l0.636-0.354
	c0,0-0.209-0.551-0.041-1.168C57.112,70.438,56.475,70.59,56.475,70.59z M46.833,73.703c1.159,0.043,1.996,0.707,1.996,0.707
	l0.956-0.906l-1.298-1.369C48.487,72.135,47.876,73.15,46.833,73.703z M65.046,68.229c-0.338,0.447-0.772,0.701-1.044,0.83
	l6.649-26.324l-4.881,4.627L64.808,46.6c-0.012-0.01-0.13-0.1-0.336-0.236l-3.653,23.783l0.246,1.324l2.664-1.324l0.106-0.418
	l0.063,0.418l1.41-0.217C65.307,69.93,64.939,69.111,65.046,68.229z M85.077,60.328c-2.461,3.609-6.247,4.959-6.247,4.959
	l0.981,4.859l6.964-1.406C86.776,68.74,84.751,64.758,85.077,60.328z M42.532,57.951c-0.103-0.072-0.219-0.125-0.339-0.158
	l0.183,0.385L42.532,57.951z M14.589,36.916L3.517,40.545l41.865,36.482l1.451-0.475L14.589,36.916z M43.112,44.063
	c0.465,0,0.901,0.207,1.198,0.57c0.55,0.67,0.537,1.58,0.062,4.139l10.122,22.699h1.494L43.304,13.605l-11.189,7.672L42.36,44.256
	C42.58,44.141,42.827,44.063,43.112,44.063z M78.728,10.764l-9.442,4.264l-3.302,21.494l4.925,5.197L78.728,10.764z M96.483,42.537
	l-9.236-2.93l-22.593,34.67l0.71,3.412l11.74-13.262l-0.014-0.068l0.107-0.037L96.483,42.537z M69.388,60.328l9.442-19.129
	l-3.33,0.52L69.388,60.328z M27.09,36.84l-0.812,2.082l8.63,9.707L27.09,36.84z M55.907,40.744l1.546-14.064l-1.957,1.08
	L55.907,40.744z"/>
</svg>
