<?xml version="1.0" encoding="utf-8"?>
<!-- Generator: Adobe Illustrator 16.0.0, SVG Export Plug-In . SVG Version: 6.00 Build 0)  -->
<!DOCTYPE svg PUBLIC "-//W3C//DTD SVG 1.1//EN" "http://www.w3.org/Graphics/SVG/1.1/DTD/svg11.dtd">
<svg version="1.1" id="Layer_6" xmlns="http://www.w3.org/2000/svg" xmlns:xlink="http://www.w3.org/1999/xlink" x="0px" y="0px"
	 width="100px" height="100px" viewBox="0 0 100 100" enable-background="new 0 0 100 100" xml:space="preserve">
<path d="M11.563,11.532v76.937H88.5V11.532H11.563z M50.031,72.685c-12.232,0-22.184-9.952-22.184-22.185
	s9.951-22.185,22.184-22.185S72.215,38.268,72.215,50.5S62.264,72.685,50.031,72.685z M14.563,14.532h33.969v11.835
	C36.557,27.104,26.917,36.591,25.938,48.5H14.563V14.532z M14.563,51.5h11.311c0.445,10.89,8.122,19.942,18.348,22.474
	c-7.562,2.434-13.4,8.667-15.748,11.494h-13.91V51.5z M46.641,85.468V74.442c0.623,0.088,1.254,0.152,1.891,0.191v10.835H46.641z
	 M51.531,74.633c0.616-0.038,1.226-0.1,1.828-0.183v11.018h-1.828V74.633z M85.5,85.468H70.412
	c-5.494-7.291-11.307-10.312-14.527-11.504c10.204-2.547,17.859-11.59,18.305-22.464H85.5V85.468z M85.5,48.5H74.125
	c-0.979-11.909-10.619-21.396-22.594-22.133V14.532H85.5V48.5z M68.381,50.6c0,10.079-8.171,18.25-18.25,18.25
	s-18.25-8.171-18.25-18.25s8.171-18.25,18.25-18.25S68.381,40.521,68.381,50.6z"/>
</svg>
