<?xml version="1.0" encoding="utf-8"?>
<!-- Generator: Adobe Illustrator 16.0.0, SVG Export Plug-In . SVG Version: 6.00 Build 0)  -->
<!DOCTYPE svg PUBLIC "-//W3C//DTD SVG 1.1//EN" "http://www.w3.org/Graphics/SVG/1.1/DTD/svg11.dtd">
<svg version="1.1" id="Layer_7" xmlns="http://www.w3.org/2000/svg" xmlns:xlink="http://www.w3.org/1999/xlink" x="0px" y="0px"
	 width="100px" height="100px" viewBox="0 0 100 100" enable-background="new 0 0 100 100" xml:space="preserve">
<path d="M85.269,27.816h-1.287V6.184H39.648v21.633H14.731c-1.104,0-2,0.896-2,2v62c0,1.104,0.896,2,2,2h70.537c1.104,0,2-0.896,2-2
	v-62C87.269,28.712,86.373,27.816,85.269,27.816z M40.648,7.184h42.333v20.633H40.648V7.184z M31.481,51.395
	c0,0.849-0.608,1.553-1.412,1.705v15.434c0.804,0.153,1.412,0.856,1.412,1.705V88.81c0,0.96-0.778,1.738-1.737,1.738H19.97
	c-0.96,0-1.738-0.778-1.738-1.738V70.238c0-0.849,0.608-1.552,1.412-1.705V53.1c-0.804-0.152-1.412-0.856-1.412-1.705V32.823
	c0-0.96,0.778-1.737,1.738-1.737h9.774c0.959,0,1.737,0.777,1.737,1.737V51.395z M37.398,46.817V32.483c0-1.104,0.896-2,2-2h40.503
	c1.104,0,2.7,0.896,2.7,2v14.334c0,1.104-1.596,2-2.7,2H39.398C38.294,48.817,37.398,47.922,37.398,46.817z M38.231,54.941v-1.375
	c0-1.104,0.896-2,2-2h12.25c1.104,0,2,0.896,2,2v1.375c0,1.104-0.896,2-2,2h-12.25C39.127,56.941,38.231,56.046,38.231,54.941z
	 M47.453,89.058c0,0.611-0.495,1.107-1.107,1.107h-6.229c-0.611,0-1.107-0.496-1.107-1.107v-6.229c0-0.612,0.496-1.107,1.107-1.107
	h6.229c0.612,0,1.107,0.495,1.107,1.107V89.058z M47.453,78.683c0,0.611-0.495,1.107-1.107,1.107h-6.229
	c-0.611,0-1.107-0.496-1.107-1.107v-6.229c0-0.612,0.496-1.107,1.107-1.107h6.229c0.612,0,1.107,0.495,1.107,1.107V78.683z
	 M47.453,68.683c0,0.611-0.495,1.107-1.107,1.107h-6.229c-0.611,0-1.107-0.496-1.107-1.107v-6.229c0-0.612,0.496-1.107,1.107-1.107
	h6.229c0.612,0,1.107,0.495,1.107,1.107V68.683z M58.203,89.058c0,0.611-0.495,1.107-1.107,1.107h-6.229
	c-0.611,0-1.107-0.496-1.107-1.107v-6.229c0-0.612,0.496-1.107,1.107-1.107h6.229c0.612,0,1.107,0.495,1.107,1.107V89.058z
	 M58.203,78.683c0,0.611-0.495,1.107-1.107,1.107h-6.229c-0.611,0-1.107-0.496-1.107-1.107v-6.229c0-0.612,0.496-1.107,1.107-1.107
	h6.229c0.612,0,1.107,0.495,1.107,1.107V78.683z M58.203,68.683c0,0.611-0.495,1.107-1.107,1.107h-6.229
	c-0.611,0-1.107-0.496-1.107-1.107v-6.229c0-0.612,0.496-1.107,1.107-1.107h6.229c0.612,0,1.107,0.495,1.107,1.107V68.683z
	 M68.578,89.058c0,0.611-0.495,1.107-1.107,1.107h-6.229c-0.611,0-1.107-0.496-1.107-1.107v-6.229c0-0.612,0.496-1.107,1.107-1.107
	h6.229c0.612,0,1.107,0.495,1.107,1.107V89.058z M68.578,78.683c0,0.611-0.495,1.107-1.107,1.107h-6.229
	c-0.611,0-1.107-0.496-1.107-1.107v-6.229c0-0.612,0.496-1.107,1.107-1.107h6.229c0.612,0,1.107,0.495,1.107,1.107V78.683z
	 M68.578,68.683c0,0.611-0.495,1.107-1.107,1.107h-6.229c-0.611,0-1.107-0.496-1.107-1.107v-6.229c0-0.612,0.496-1.107,1.107-1.107
	h6.229c0.612,0,1.107,0.495,1.107,1.107V68.683z M73.086,56.941h-12.25c-1.104,0-2-0.896-2-2v-1.375c0-1.104,0.896-2,2-2h12.25
	c1.104,0,2,0.896,2,2v1.375C75.086,56.046,74.19,56.941,73.086,56.941z M83.481,89.058c0,0.611-0.495,1.107-1.107,1.107h-6.229
	c-0.611,0-1.107-0.496-1.107-1.107v-6.229c0-0.612,0.496-1.107,1.107-1.107h6.229c0.612,0,1.107,0.495,1.107,1.107V89.058z
	 M83.481,78.683c0,0.611-0.495,1.107-1.107,1.107h-6.229c-0.611,0-1.107-0.496-1.107-1.107v-6.229c0-0.612,0.496-1.107,1.107-1.107
	h6.229c0.612,0,1.107,0.495,1.107,1.107V78.683z M83.481,68.683c0,0.611-0.495,1.107-1.107,1.107h-6.229
	c-0.611,0-1.107-0.496-1.107-1.107v-6.229c0-0.612,0.496-1.107,1.107-1.107h6.229c0.612,0,1.107,0.495,1.107,1.107V68.683z
	 M78.451,11.317v1.333H44.284v-1.333H78.451z M49.751,17.502h24.334v1.333H49.751V17.502z M49.751,23.285h24.334v1.333H49.751
	V23.285z"/>
</svg>
