<?xml version="1.0" encoding="utf-8"?>
<!-- Generator: Adobe Illustrator 16.0.4, SVG Export Plug-In . SVG Version: 6.00 Build 0)  -->
<!DOCTYPE svg PUBLIC "-//W3C//DTD SVG 1.1//EN" "http://www.w3.org/Graphics/SVG/1.1/DTD/svg11.dtd">
<svg version="1.1" id="Capa_1" xmlns="http://www.w3.org/2000/svg" xmlns:xlink="http://www.w3.org/1999/xlink" x="0px" y="0px"
	 width="100px" height="100px" viewBox="0 0 100 100" enable-background="new 0 0 100 100" xml:space="preserve">
<g id="Layer_8">
	<path d="M82.706,19.743c0-1.086-0.886-1.97-1.972-1.97H19.265c-1.087,0-1.971,0.884-1.971,1.97v9.195
		c0,0.227,0.046,0.44,0.117,0.643c-0.071,0.203-0.117,0.417-0.117,0.643v9.195c0,1.086,0.884,1.97,1.971,1.97h1.313V80.65
		c0,0.871,0.707,1.576,1.576,1.576h55.692c0.87,0,1.576-0.705,1.576-1.576V41.389h1.312c1.086,0,1.972-0.884,1.972-1.97v-9.195
		c0-0.226-0.047-0.439-0.117-0.643c0.07-0.202,0.117-0.416,0.117-0.643V19.743z M70.867,18.562l5.271,9.692h-6.306l-5.271-9.692
		H70.867z M60.573,29.581l-0.294,0.539h-5.719l-0.293-0.539l0.293-0.539h5.719L60.573,29.581z M54.58,18.562l5.271,9.692h-6.306
		l-5.271-9.692H54.58z M53.546,30.908h6.306L54.58,40.6h-6.305L53.546,30.908z M43.497,29.581l-0.293,0.539h-5.719l-0.293-0.539
		l0.293-0.539h5.719L43.497,29.581z M37.504,18.562l5.271,9.692H36.47l-5.271-9.692H37.504z M36.471,30.908h6.305L37.505,40.6H31.2
		L36.471,30.908z M18.082,19.743c0-0.651,0.53-1.182,1.183-1.182h1.821l5.271,9.692h-6.306l-1.97-3.623L18.082,19.743L18.082,19.743
		z M21.086,40.601h-1.821c-0.652,0-1.183-0.53-1.183-1.182v-4.888l1.97-3.623h6.306L21.086,40.601z M26.786,30.12h-5.719
		l-0.293-0.539l0.293-0.539h5.719l0.293,0.539L26.786,30.12z M71.936,63.294H28.063v-2.542h43.871v2.542H71.936z M71.936,52.521
		H28.063v-2.541h43.871v2.541H71.936z M70.867,40.601h-6.305l5.271-9.692h6.306L70.867,40.601z M76.566,30.12h-5.719l-0.293-0.539
		l0.293-0.539h5.719l0.293,0.539L76.566,30.12z"/>
</g>
</svg>
