<?xml version="1.0" encoding="utf-8"?>
<!-- Generator: Adobe Illustrator 16.0.4, SVG Export Plug-In . SVG Version: 6.00 Build 0)  -->
<!DOCTYPE svg PUBLIC "-//W3C//DTD SVG 1.1//EN" "http://www.w3.org/Graphics/SVG/1.1/DTD/svg11.dtd">
<svg version="1.1" id="Capa_1" xmlns="http://www.w3.org/2000/svg" xmlns:xlink="http://www.w3.org/1999/xlink" x="0px" y="0px"
	 width="100px" height="100px" viewBox="0 0 100 100" enable-background="new 0 0 100 100" xml:space="preserve">
<g id="Layer_8">
	<path d="M53.932,75.318V24.071H18.729v51.248H53.932z M22.914,29.104c0-0.758,0.65-1.373,1.449-1.373
		c0.801,0,1.449,0.615,1.449,1.373V69.98c0,0.756-0.648,1.373-1.449,1.373c-0.799,0-1.449-0.615-1.449-1.373V29.104z M88.031,33.813
		v-2.06h-5.295v-3.639h5.295c-0.008-1.272-1.1-2.3-2.443-2.3H56.891v2.3h2.875v3.639h-2.875v36.06h2.875v3.64h-2.875v2.565h28.697
		c1.352,0,2.443-0.14,2.443-1.42v-1.146h-5.295v-3.64h5.295v-2.935H76.184V33.813H88.031z M69.209,71.452H63.18v-3.64h6.029V71.452z
		 M69.209,31.753H63.18v-3.639h6.029V31.753z M79.232,67.812v3.64h-6.031v-3.64H79.232z M73.201,31.753v-3.639h6.031v3.639H73.201z
		 M11.969,18.885V16.14c0-1.347,1.152-2.44,2.576-2.44H58.33c1.422,0,2.576,1.093,2.576,2.44v2.746c0,1.348-1.154,2.44-2.576,2.44
		H14.545C13.121,21.326,11.969,20.233,11.969,18.885z M60.906,81.115v2.746c0,1.347-1.154,2.439-2.576,2.439H14.545
		c-1.424,0-2.576-1.093-2.576-2.439v-2.746c0-1.348,1.152-2.44,2.576-2.44H58.33C59.752,78.674,60.906,79.768,60.906,81.115z"/>
</g>
</svg>
