<?xml version="1.0" encoding="utf-8"?>
<!-- Generator: Adobe Illustrator 16.0.0, SVG Export Plug-In . SVG Version: 6.00 Build 0)  -->
<!DOCTYPE svg PUBLIC "-//W3C//DTD SVG 1.1//EN" "http://www.w3.org/Graphics/SVG/1.1/DTD/svg11.dtd">
<svg version="1.1" id="Layer_6" xmlns="http://www.w3.org/2000/svg" xmlns:xlink="http://www.w3.org/1999/xlink" x="0px" y="0px"
	 width="100px" height="100px" viewBox="0 0 100 100" enable-background="new 0 0 100 100" xml:space="preserve">
<path d="M50.932,26.257c4.68,0.336,8.455,2.673,11.227,6.942c2.143,3.308,3.027,6.823,3.36,8.147
	c0.035,0.138,0.074,0.294,0.095,0.364c0.025,0.059,0.044,0.118,0.058,0.18c0.242,1.039,0.646,2.202,0.858,2.479
	c0.446,0.36,0.536,1.01,0.198,1.48c-0.213,0.294-0.547,0.451-0.882,0.451c-0.224,0-0.445-0.066-0.639-0.205
	c-0.773-0.561-1.313-2.262-1.634-3.627c-0.049-0.134-0.092-0.309-0.163-0.593c-2.099-8.35-6.465-13.001-12.623-13.45
	c-7.469-0.374-12.641,6.504-14.848,9.441l-0.259,0.343c-0.59,0.78-1.229,1.339-1.66,1.671c-0.973,0.748-1.29,0.752-1.631,0.678
	c-0.414-0.091-0.737-0.415-0.831-0.829c-0.091-0.414,0.075-0.852,0.413-1.107c0.082-0.062,0.171-0.11,0.263-0.147
	c0.269-0.157,1.051-0.702,1.712-1.577l0.255-0.338c2.417-3.215,8.079-10.745,16.707-10.306
	C50.917,26.255,50.923,26.255,50.932,26.257z M38.881,42.989c1.52-1.153,2.823-2.502,4.027-3.978
	c0.486-0.597,1.006-1.167,1.548-1.713c0.298-0.298,0.605-0.586,0.92-0.868c0.162-0.146,0.327-0.288,0.496-0.43
	c0.084-0.071,0.17-0.141,0.258-0.212c0.021-0.018,0.19-0.151,0.232-0.186c0.756-0.581,1.563-1.096,2.413-1.531
	c0.803-0.412,1.605-0.701,2.584-0.904c0.323-0.067,0.392-0.075,0.635-0.099c0.587-0.062,1.086-0.449,1.086-1.087
	c0-0.547-0.494-1.149-1.086-1.087c-3.931,0.407-7.292,2.865-9.882,5.717c-0.494,0.544-0.937,1.128-1.413,1.685
	c-0.625,0.731-1.309,1.412-2.021,2.056c-0.733,0.662-1.325,1.136-2.191,1.633c-0.917,0.524-1.85,1.057-2.802,1.52
	c-0.327,0.16-0.608,0.263-0.977,0.375c-0.565,0.17-0.916,0.755-0.758,1.336c0.153,0.561,0.77,0.93,1.339,0.76
	c1.11-0.335,2.118-0.907,3.121-1.478C37.257,44.017,38.1,43.583,38.881,42.989z M62.889,62.172
	c-1.434-0.503-3.189-1.816-4.885-3.086c-2.457-1.84-4.514-3.942-6.241-3.629c-1.3,0.236-3.568,1.761-7.151,4.242
	c-2.582,1.791-5.508,3.819-6.783,4.179c-0.551,0.157-0.878,0.754-0.729,1.333c0.126,0.485,0.542,0.805,1,0.805
	c0.09,0,0.179-0.012,0.268-0.038c1.597-0.452,4.407-2.401,7.384-4.462c2.402-1.666,5.398-3.74,6.363-3.917
	c0.879-0.158,2.965,1.965,4.692,3.258c1.819,1.363,3.702,2.772,5.429,3.378c0.542,0.189,1.127-0.118,1.309-0.688
	C63.723,62.977,63.431,62.362,62.889,62.172z M60.516,67.947c-0.877-0.316-2.303-1.198-3.68-2.049
	c-2.913-1.798-4.762-2.89-6.088-2.66c-1.344,0.233-4.169,2.152-8.908,5.612c-0.58,0.424-1.082,0.789-1.43,1.035
	c-0.49,0.346-0.607,1.025-0.261,1.515c0.212,0.3,0.55,0.46,0.891,0.46c0.215,0,0.435-0.065,0.626-0.199
	c0.361-0.255,0.868-0.626,1.456-1.054c1.886-1.377,6.897-5.036,7.984-5.224c0.679-0.047,3.124,1.463,4.585,2.365
	c1.541,0.951,2.995,1.851,4.083,2.245c0.564,0.203,1.189-0.089,1.393-0.655C61.372,68.774,61.08,68.152,60.516,67.947z
	 M56.843,73.353c-0.612-0.399-1.172-0.8-1.716-1.186c-1.783-1.275-3.327-2.375-5.015-2.081c-1.903,0.328-4.932,3.375-5.522,3.981
	c-0.416,0.433-0.405,1.121,0.027,1.538c0.212,0.204,0.482,0.307,0.757,0.307c0.282,0,0.568-0.11,0.78-0.332
	c1.455-1.505,3.526-3.213,4.328-3.352c0.794-0.136,1.993,0.718,3.38,1.707c0.538,0.382,1.143,0.814,1.792,1.239
	c0.503,0.328,1.176,0.186,1.504-0.317C57.486,74.354,57.346,73.682,56.843,73.353z M66.09,52.191
	c-0.906-0.382-1.854-0.785-2.617-1.419c-0.839-0.698-1.23-1.616-1.404-2.675c-0.005-0.03-0.017-0.055-0.023-0.083
	c-1.158-5.092-3.438-7.865-6.146-8.87c-3.646-1.354-7.406,1.443-9.212,2.787c-0.173,0.128-0.328,0.244-0.463,0.339
	c-1.491,1.067-2.206,1.687-3.118,2.518c-1.926,1.753-3.448,3.137-8.354,4.943c-0.566,0.208-0.856,0.835-0.648,1.401
	c0.163,0.442,0.581,0.715,1.024,0.715c0.126,0,0.254-0.022,0.377-0.068c5.305-1.953,7.05-3.538,9.069-5.375
	c0.942-0.857,1.518-1.354,2.919-2.356c0.145-0.104,0.31-0.226,0.496-0.364c1.498-1.114,4.614-3.434,7.149-2.491
	c1.989,0.738,3.819,3.02,4.803,7.415c0.007,0.035,0.022,0.067,0.033,0.1c0.477,2.8,2.546,4.322,5.017,5.365
	c0.545,0.231,1.159,0.171,1.488-0.39C66.751,53.218,66.637,52.423,66.09,52.191z M64.318,57.191c-0.798-0.251-1.4-0.57-2.244-1.081
	c-1.545-0.935-2.953-2.29-3.638-4.021c-0.033-0.08-0.071-0.155-0.114-0.227c-0.009-0.022-0.012-0.044-0.021-0.065
	c-0.743-1.756-2.13-3.993-4.502-4.678c-1.818-0.526-3.818-0.021-5.991,1.535c-1.298,1.039-2.271,2.007-3.212,2.943
	c-2.025,2.012-3.773,3.751-8.195,5.571c-0.546,0.226-0.811,0.861-0.591,1.421c0.168,0.425,0.567,0.684,0.988,0.684
	c0.132,0,0.267-0.025,0.397-0.079c4.812-1.981,6.79-3.948,8.884-6.031c0.899-0.896,1.832-1.822,2.993-2.754
	c1.58-1.129,2.975-1.528,4.148-1.19c1.648,0.478,2.667,2.366,3.128,3.448c0.035,0.088,0.087,0.165,0.144,0.237
	c1.312,3.076,4.146,5.398,7.261,6.383C65.066,59.702,65.623,57.603,64.318,57.191z M88.469,11.532v76.937H11.531V11.532H88.469z
	 M85.469,14.532H51.5V24h-3v-9.468H14.531V48.5h16v3h-16v33.968H48.5v-7.135h3v7.135h33.969V51.5H70.031v-3h15.438V14.532z"/>
</svg>
