<?xml version="1.0" encoding="utf-8"?>
<!-- Generator: Adobe Illustrator 16.0.0, SVG Export Plug-In . SVG Version: 6.00 Build 0)  -->
<!DOCTYPE svg PUBLIC "-//W3C//DTD SVG 1.1//EN" "http://www.w3.org/Graphics/SVG/1.1/DTD/svg11.dtd">
<svg version="1.1" id="Layer_6" xmlns="http://www.w3.org/2000/svg" xmlns:xlink="http://www.w3.org/1999/xlink" x="0px" y="0px"
	 width="100px" height="100px" viewBox="0 0 100 100" enable-background="new 0 0 100 100" xml:space="preserve">
<path d="M77.268,40.863c-0.332,0.458-0.851,0.702-1.375,0.702c-0.346,0-0.692-0.104-0.991-0.32
	c-1.208-0.873-2.047-3.522-2.545-5.649c-0.076-0.208-0.144-0.48-0.254-0.922C68.831,21.667,62.03,14.422,52.439,13.722
	c-11.635-0.582-19.688,10.13-23.127,14.706l-0.403,0.533c-0.92,1.215-1.914,2.086-2.586,2.603c-1.515,1.164-2.01,1.172-2.541,1.056
	c-0.645-0.142-1.149-0.646-1.294-1.291c-0.141-0.645,0.116-1.327,0.644-1.726c0.127-0.096,0.265-0.171,0.407-0.229
	c0.42-0.245,1.638-1.093,2.669-2.457l0.397-0.525c3.764-5.009,12.584-16.738,26.021-16.053c0.014,0.001,0.025,0.001,0.037,0.003
	c7.29,0.524,13.173,4.164,17.487,10.815c3.34,5.151,4.717,10.627,5.235,12.689c0.056,0.216,0.115,0.458,0.146,0.567
	c0.041,0.091,0.069,0.184,0.091,0.28c0.375,1.619,1.005,3.43,1.338,3.861C77.654,39.118,77.795,40.131,77.268,40.863z
	 M33.892,36.406c2.367-1.798,4.401-3.898,6.273-6.197c0.76-0.929,1.569-1.817,2.414-2.668c0.463-0.465,0.94-0.913,1.43-1.352
	c0.255-0.228,0.512-0.45,0.773-0.669c0.132-0.11,0.266-0.221,0.401-0.331c0.034-0.028,0.298-0.236,0.363-0.29
	c1.18-0.904,2.436-1.707,3.758-2.386c1.251-0.642,2.503-1.091,4.023-1.408c0.504-0.104,0.613-0.116,0.99-0.154
	c0.917-0.096,1.694-0.699,1.694-1.693c0-0.853-0.773-1.79-1.694-1.694c-6.122,0.634-11.358,4.462-15.393,8.906
	c-0.769,0.848-1.459,1.757-2.201,2.625c-0.972,1.138-2.037,2.199-3.148,3.202c-1.143,1.031-2.063,1.769-3.411,2.543
	c-1.43,0.817-2.885,1.647-4.365,2.368c-0.51,0.249-0.948,0.41-1.521,0.583c-0.883,0.265-1.429,1.176-1.182,2.083
	c0.24,0.874,1.198,1.45,2.083,1.184c1.731-0.521,3.302-1.413,4.865-2.301C31.364,38.006,32.676,37.33,33.892,36.406z M71.288,66.286
	c-2.231-0.784-4.965-2.828-7.607-4.807c-3.827-2.867-7.031-6.142-9.722-5.654c-2.025,0.369-5.56,2.743-11.139,6.608
	c-4.022,2.789-8.582,5.948-10.564,6.509c-0.859,0.245-1.369,1.174-1.138,2.076c0.194,0.757,0.845,1.255,1.556,1.255
	c0.138,0,0.28-0.02,0.417-0.059c2.487-0.705,6.866-3.74,11.502-6.951c3.743-2.594,8.408-5.826,9.913-6.1
	c1.368-0.246,4.617,3.061,7.307,5.074c2.834,2.124,5.767,4.318,8.457,5.262c0.844,0.294,1.755-0.185,2.038-1.071
	C72.588,67.541,72.132,66.582,71.288,66.286z M67.592,75.282c-1.365-0.494-3.585-1.866-5.731-3.191
	c-4.534-2.801-7.416-4.501-9.483-4.145c-2.093,0.363-6.49,3.352-13.875,8.743c-0.903,0.66-1.684,1.229-2.227,1.612
	c-0.762,0.54-0.944,1.596-0.405,2.359c0.33,0.467,0.854,0.717,1.385,0.717c0.337,0,0.679-0.101,0.976-0.31
	c0.565-0.398,1.353-0.976,2.269-1.643c2.938-2.145,10.743-7.845,12.438-8.137c1.056-0.072,4.867,2.278,7.141,3.685
	c2.4,1.482,4.666,2.881,6.361,3.496c0.879,0.318,1.851-0.138,2.169-1.019C68.926,76.57,68.472,75.6,67.592,75.282z M61.871,83.703
	c-0.952-0.622-1.824-1.246-2.674-1.849c-2.775-1.985-5.18-3.698-7.81-3.24c-2.964,0.511-7.682,5.258-8.599,6.202
	c-0.65,0.674-0.633,1.745,0.039,2.396c0.329,0.317,0.754,0.477,1.179,0.477c0.44,0,0.886-0.172,1.216-0.517
	c2.268-2.343,5.492-5.004,6.742-5.22c1.236-0.213,3.104,1.117,5.266,2.659c0.836,0.594,1.778,1.269,2.791,1.929
	c0.779,0.511,1.831,0.29,2.341-0.493C62.874,85.261,62.653,84.215,61.871,83.703z M76.273,50.74
	c-1.411-0.596-2.887-1.223-4.074-2.212c-1.308-1.087-1.917-2.516-2.189-4.167c-0.008-0.047-0.024-0.084-0.035-0.128
	c-1.805-7.933-5.356-12.252-9.573-13.818c-5.68-2.109-11.536,2.248-14.351,4.341c-0.269,0.2-0.51,0.379-0.719,0.529
	c-2.322,1.661-3.435,2.627-4.857,3.921c-3.001,2.73-5.372,4.886-13.013,7.699c-0.881,0.324-1.332,1.301-1.008,2.183
	c0.253,0.688,0.903,1.113,1.595,1.113c0.195,0,0.394-0.034,0.587-0.105c8.264-3.042,10.98-5.513,14.126-8.375
	c1.467-1.334,2.363-2.109,4.547-3.67c0.225-0.161,0.483-0.353,0.771-0.567c2.334-1.736,7.189-5.348,11.138-3.881
	c3.1,1.151,5.949,4.705,7.481,11.55c0.012,0.055,0.035,0.104,0.052,0.156c0.743,4.362,3.964,6.731,7.814,8.355
	c0.849,0.361,1.804,0.267,2.317-0.606C77.305,52.339,77.126,51.101,76.273,50.74z M73.516,58.528
	c-1.24-0.392-2.183-0.888-3.496-1.684c-2.407-1.457-4.599-3.567-5.668-6.263c-0.049-0.125-0.11-0.241-0.176-0.353
	c-0.012-0.034-0.018-0.069-0.032-0.103c-1.16-2.734-3.32-6.217-7.013-7.286c-2.833-0.819-5.948-0.033-9.333,2.392
	c-2.021,1.618-3.537,3.125-5.003,4.583c-3.152,3.135-5.875,5.842-12.764,8.68c-0.851,0.35-1.263,1.34-0.92,2.211
	c0.26,0.663,0.882,1.066,1.54,1.066c0.206,0,0.416-0.04,0.619-0.124c7.493-3.086,10.575-6.15,13.836-9.394
	c1.403-1.395,2.854-2.838,4.664-4.29c2.459-1.758,4.632-2.381,6.459-1.854c2.572,0.745,4.157,3.685,4.873,5.371
	c0.058,0.137,0.136,0.257,0.223,0.37c2.045,4.791,6.458,8.41,11.313,9.943C74.681,62.439,75.548,59.17,73.516,58.528z"/>
</svg>
