<?xml version="1.0" encoding="utf-8"?>
<!-- Generator: Adobe Illustrator 16.0.0, SVG Export Plug-In . SVG Version: 6.00 Build 0)  -->
<!DOCTYPE svg PUBLIC "-//W3C//DTD SVG 1.1//EN" "http://www.w3.org/Graphics/SVG/1.1/DTD/svg11.dtd">
<svg version="1.1" id="Layer_6" xmlns="http://www.w3.org/2000/svg" xmlns:xlink="http://www.w3.org/1999/xlink" x="0px" y="0px"
	 width="100px" height="100px" viewBox="0 0 100 100" enable-background="new 0 0 100 100" xml:space="preserve">
<path d="M52.915,66.677h-7.17v-7.499h7.17V66.677z M45.744,88.341h7.17v-7.5h-7.17V88.341z M64.756,70.315H45.81v7.5h18.947V70.315z
	 M88.438,70.315H69.493v7.5h18.946V70.315z M57.651,88.341h18.946v-7.5H57.651V88.341z M81.334,88.341h7.302v-7.5h-7.302V88.341z
	 M76.597,59.178H57.651v7.499h18.946V59.178z M81.334,59.178v7.499h7.302v-7.499H81.334z M52.72,35.253
	c2.358,0,3.301,4.245,5.188,5.188c1.416,0.472,4.245-2.36,8.489,1.179c4.245,3.538,4.402-0.629,5.346-4.873
	c0.472-4.245-4.402-3.852-4.402-6.21c-0.943-7.073,2.359-7.545-3.773-13.677c-0.14-0.139-0.299-0.284-0.454-0.427
	c9.504,5.332,15.946,15.504,15.946,27.158c0,1.874-0.176,3.706-0.496,5.489c-5.07,2.659-13.926-0.459-15.336,6.549h14.028h3.426
	c0.387-1.049,0.73-2.118,1.017-3.212l0.61-2.841c0.337-1.946,0.523-3.944,0.523-5.985c0-19.245-15.656-34.899-34.899-34.899
	c-19.244,0-34.9,15.654-34.9,34.899c0,17.106,12.372,31.365,28.634,34.327v-0.626h0.065v-5.164h-0.065V57.083
	c-0.261-0.093-0.533-0.168-0.831-0.209c-3.461-0.48-6.244,2.651-7.197,5.657c-0.916,2.891,0.108,6.186,0.835,9.124
	c-4.417-2.124-8.252-5.27-11.215-9.118c2.597,1.181,5.196,0.988,5.456-2.487c0.313-4.203-6.852-8.032-7.105-12.266
	c0.308-0.845,0.53-1.904,0.669-3.053c1.318-2.722,3.925-4.57,2.077-8.653c-0.769-1.876-3.155-2.897-5.504-3.571
	c2.545-6.653,7.308-12.213,13.382-15.776c9.764,7.084,0.818,23.562,10.11,28.428C50.362,48.93,46.118,35.724,52.72,35.253z"/>
</svg>
