<?xml version="1.0" encoding="utf-8"?>
<!-- Generator: Adobe Illustrator 16.0.0, SVG Export Plug-In . SVG Version: 6.00 Build 0)  -->
<!DOCTYPE svg PUBLIC "-//W3C//DTD SVG 1.1//EN" "http://www.w3.org/Graphics/SVG/1.1/DTD/svg11.dtd">
<svg version="1.1" id="Layer_6" xmlns="http://www.w3.org/2000/svg" xmlns:xlink="http://www.w3.org/1999/xlink" x="0px" y="0px"
	 width="100px" height="100px" viewBox="0 0 100 100" enable-background="new 0 0 100 100" xml:space="preserve">
<path d="M71.093,75.129c-1.458,4.791-5.316,8.707-11.465,11.641c-2.052,1.076-5.008,1.672-8.317,1.672
	c-7.65,0-14.661-2.998-18.755-8.02c-4.076-5-5.279-11.732-3.576-20.008c2.346-9.352,9.621-17.506,16.655-25.393
	c0,0,14.745-12.814,16.537-23.463c0.812,4.441,2.187,12.004-6.235,22.223C42.143,49.549,44.395,58.1,45.413,60.346
	c0.941,2.072,2.696,3.311,4.695,3.313h0.001c0.461,0,0.93-0.066,1.395-0.195c4.873-1.947,4.177-6.607,3.37-12.002
	c-0.697-4.662-1.486-9.947,1.386-14.271l0.229-0.346l0,0.416c-0.008,6.25,2.478,8.699,5.357,11.535
	c1.576,1.555,3.022,3.276,4.583,5.539C71.77,62.083,72.816,69.469,71.093,75.129z"/>
</svg>
