<?xml version="1.0" encoding="utf-8"?>
<!-- Generator: Adobe Illustrator 16.0.4, SVG Export Plug-In . SVG Version: 6.00 Build 0)  -->
<!DOCTYPE svg PUBLIC "-//W3C//DTD SVG 1.1//EN" "http://www.w3.org/Graphics/SVG/1.1/DTD/svg11.dtd">
<svg version="1.1" id="Capa_1" xmlns="http://www.w3.org/2000/svg" xmlns:xlink="http://www.w3.org/1999/xlink" x="0px" y="0px"
	 width="100px" height="100px" viewBox="0 0 100 100" enable-background="new 0 0 100 100" xml:space="preserve">
<g id="Layer_8">
	<path d="M41.195,17.177c0.533-0.308,1.127-0.462,1.723-0.462c0.594,0,1.189,0.154,1.723,0.461L80.4,47.016
		c1.065,0.616,1.723,1.753,1.723,2.984c0,1.23-0.656,2.369-1.723,2.984L44.64,82.823c-1.066,0.616-2.381,0.616-3.445,0
		c-1.066-0.616-1.723-1.753-1.723-2.984V20.161C39.473,18.93,40.129,17.792,41.195,17.177z M17.877,18.128V81.87
		c0,0.761,0.617,1.379,1.377,1.378h11.369c0.762,0,1.379-0.617,1.379-1.378V18.129c0-0.762-0.617-1.379-1.379-1.378H19.254
		C18.494,16.75,17.877,17.367,17.877,18.128z"/>
</g>
</svg>
