<?xml version="1.0" encoding="utf-8"?>
<!-- Generator: Adobe Illustrator 16.0.0, SVG Export Plug-In . SVG Version: 6.00 Build 0)  -->
<!DOCTYPE svg PUBLIC "-//W3C//DTD SVG 1.1//EN" "http://www.w3.org/Graphics/SVG/1.1/DTD/svg11.dtd">
<svg version="1.1" id="Layer_5" xmlns="http://www.w3.org/2000/svg" xmlns:xlink="http://www.w3.org/1999/xlink" x="0px" y="0px"
	 width="100px" height="100px" viewBox="0 0 100 100" enable-background="new 0 0 100 100" xml:space="preserve">
<path d="M80.476,30.899C79.911,25.883,64.427,23.178,50,23.178c-14.421,0-29.9,2.703-30.475,7.717
	c-0.016,0.056-0.025,0.116-0.025,0.178v6.489c0,0.223,0.114,0.431,0.303,0.55L41.96,52.078v24.095c0,0.205,0.098,0.4,0.264,0.522
	c0.113,0.084,0.249,0.127,0.385,0.127c0.064,0,0.128-0.008,0.191-0.028l14.781-4.542c0.272-0.084,0.458-0.335,0.458-0.621V52.078
	l22.158-13.967c0.188-0.119,0.303-0.327,0.303-0.55v-6.489C80.5,31.014,80.492,30.955,80.476,30.899z M49.757,26.313
	c16.296,0,24.821,2.604,24.821,4.001c0,0.169-0.262,0.509-0.892,0.861c-2.586,0.844-4.953,1.463-7.234,1.894
	c-1.097,0.205-2.223,0.38-3.328,0.545c-4.03,0.462-8.652,0.702-13.367,0.702c-16.297,0-24.822-2.605-24.822-4.002
	C24.935,28.917,33.46,26.313,49.757,26.313z"/>
</svg>
