<?xml version="1.0" encoding="utf-8"?>
<!-- Generator: Adobe Illustrator 16.0.0, SVG Export Plug-In . SVG Version: 6.00 Build 0)  -->
<!DOCTYPE svg PUBLIC "-//W3C//DTD SVG 1.1//EN" "http://www.w3.org/Graphics/SVG/1.1/DTD/svg11.dtd">
<svg version="1.1" id="Layer_6" xmlns="http://www.w3.org/2000/svg" xmlns:xlink="http://www.w3.org/1999/xlink" x="0px" y="0px"
	 width="100px" height="100px" viewBox="0 0 100 100" enable-background="new 0 0 100 100" xml:space="preserve">
<path fill-rule="evenodd" clip-rule="evenodd" d="M51.058,73.797c7.595-0.725,14.223-3.787,19.686-9.133
	c7.933-7.768,11.232-17.265,10.021-28.266c-0.619-5.615-2.685-10.744-6.025-15.314C69.355,13.726,62.155,9.227,53.167,7.66
	c-1.794-0.313-3.627-0.394-5.44-0.582c-0.121,0-0.24,0-0.361,0c-1.694,0.186-3.396,0.309-5.081,0.567
	C24.998,10.299,12.5,26.666,14.477,44.08c0.944,8.313,4.425,15.4,10.605,21.053C32.431,71.855,41.16,74.737,51.058,73.797z
	 M22.438,53.979c-5.808-11.151-2.979-23.77,2.924-30.713c0.158,1.248,0.314,2.37,0.443,3.497c0.353,3.075,0.087,6.109-0.542,9.134
	c-0.133,0.644-0.087,1.377,0.088,2.011c0.095,0.346,0.615,0.755,0.976,0.789c0.285,0.027,0.78-0.422,0.896-0.76
	c0.207-0.604,0.216-1.281,0.279-1.931c0.045-0.458,0.046-0.923,0.079-1.64c0.469,0.38,0.811,0.61,1.094,0.896
	c0.725,0.729,1.457,1.455,2.117,2.239c0.293,0.348,0.594,0.835,0.585,1.254c-0.018,0.896,0.375,1.505,0.856,2.21
	c0.533,0.782,0.774,1.766,1.116,2.673c0.145,0.38,0.174,0.808,0.346,1.173c0.366,0.783,0.917,1.318,1.867,1.378
	c1,0.063,1.375,0.45,1.519,1.474c-0.256,0.029-0.51,0.063-0.767,0.088c-1.219,0.115-1.823,0.675-1.775,1.906
	c0.097,2.443,0.977,4.577,2.79,6.273c0.501,0.468,1.031,0.903,1.517,1.383c1.109,1.097,1.496,2.382,0.963,3.894
	c-0.255,0.722-0.605,1.43-0.718,2.175c-0.115,0.758-0.116,1.581,0.059,2.322c0.183,0.771,0.104,2.457,0.901,2.317
	c1.409-0.246,2.219,0.031,2.328-1.546c0.021-0.301-0.003-0.339-0.083-0.616c-0.419-1.481,1.482-5.685,2.625-6.45
	c0.975-0.656,1.953-1.324,2.836-2.093c1.275-1.108,1.846-2.538,1.31-4.204c-0.504-1.566,0.086-2.72,1.181-3.729
	c1.119-1.029,1.851-2.214,1.775-3.798c-0.077-1.583-1.111-2.726-2.463-2.563c-0.66,0.078-1.293,0.395-1.936,0.612
	c-0.944,0.317-1.863,0.765-2.833,0.938c-1.357,0.24-2.191-0.646-2.798-1.723c-0.488-0.866-0.647-0.932-1.493-0.393
	c-0.713,0.455-1.425,0.916-2.164,1.327c-0.767,0.43-1.186,0.27-1.776-0.371c-0.351-0.379-0.836-0.645-1.286-0.917
	c-0.322-0.198-0.76-0.252-1.02-0.501c-0.347-0.335-0.832-0.835-0.783-1.199c0.058-0.427,0.553-0.963,0.984-1.139
	c0.745-0.302,1.591-0.351,2.391-0.523c0.426-0.094,0.857-0.188,1.259-0.349c0.552-0.219,0.527-0.581,0.106-0.92
	c-0.208-0.168-0.465-0.285-0.714-0.386c-1.219-0.489-2.444-0.959-3.66-1.451c-0.304-0.122-0.601-0.271-0.873-0.447
	c-0.765-0.504-0.856-1.058-0.163-1.67c2.74-2.417,5.943-3.125,8.779,0.087c0.878,0.994,1.474,2.235,2.304,3.279
	c0.652,0.823,1.405,1.596,2.234,2.23c0.341,0.262,1.111,0.306,1.494,0.097c0.569-0.313,0.589-1.023,0.301-1.616
	c-0.247-0.515-0.538-1.021-0.887-1.473c-1.61-2.076-1.501-6.122,1.655-7.812c1.056-0.565,2.121-1.161,2.624-2.677
	c-0.604,0.164-1.042,0.27-1.473,0.4c-2.396,0.742-0.727-1.045,0.374-1.357c0.67-0.19-0.599-0.702-0.599-0.702
	c0.031-0.053,0.844-0.285,1.746-0.67c0.622-0.265,1.259-0.562,1.775-0.981c0.334-0.275,0.462-0.799,0.684-1.212
	c-0.057-0.065-0.111-0.128-0.168-0.193c-0.634,0.085-1.266,0.179-1.901,0.251c-1.074,0.119-1.327-0.092-1.427-1.177
	c-0.068-0.739-0.824-1.144-1.53-0.764c-0.477,0.258-0.89,0.633-1.348,0.93c-1.06,0.687-1.852,0.413-2.268-0.771
	c-0.247-0.704-0.593-0.838-1.24-0.443c-0.326,0.198-0.599,0.488-0.931,0.672c-0.543,0.305-1.096,0.609-1.679,0.816
	c-0.569,0.2-1.255,0.347-1.64-0.276c-0.417-0.671-0.052-1.324,0.471-1.744c0.65-0.522,1.402-0.929,2.135-1.339
	c1.045-0.589,2.151-1.077,3.159-1.719c0.739-0.473,1.063-1.241,0.823-2.149c-0.201-0.766-0.714-1.026-1.424-0.674
	c-0.586,0.291-1.1,0.747-1.701,0.98c-0.441,0.17-0.989,0.171-1.464,0.088c-0.174-0.03-0.358-0.516-0.363-0.796
	c-0.005-0.161,0.324-0.442,0.534-0.477c1.457-0.228,2.92-0.419,4.384-0.586c0.195-0.021,0.486,0.099,0.607,0.253
	c0.968,1.221,2.317,1.814,3.738,2.237c1.193,0.354,1.364,0.185,1.529-1.066c1.533-0.361,3.091-1.072,4.634-0.1
	c0.855,0.54,1.635,1.224,2.359,1.935c0.18,0.178,0.069,0.726-0.016,1.077c-0.113,0.475-0.375,0.911-0.496,1.386
	c-0.233,0.917,0.359,1.634,1.307,1.62c0.301-0.007,0.599-0.068,0.899-0.083c0.876-0.041,1.188,0.294,1.105,1.18
	c-0.112,1.252,0.097,1.403,1.362,1.188c0.362-0.061,0.783,0.105,1.154,0.234c0.22,0.078,0.392,0.289,0.589,0.438
	c1.175,0.892,2.074,0.557,2.419-0.901c0.037-0.158,0.032-0.327,0.065-0.488c0.136-0.654,0.506-0.823,0.946-0.357
	c0.937,0.99,1.813,2.036,2.763,3.115c-1.02,0.936-1.054,2.073-0.828,3.186c0.251,1.239-0.075,2.316-0.564,3.407
	c-0.469,1.045-0.982,2.085-1.296,3.179c-0.468,1.642,0.063,2.393,1.731,2.755c1.591,0.349,1.85,0.668,1.91,2.224
	c0.082,2.122,1.171,3.586,3.031,4.521c0.415,0.206,0.853,0.362,1.275,0.539c-0.21,3.268-1.144,6.672-2.74,9.901
	c-0.846-1.474-1.913-3.528-2.39-5.281c-0.692-2.547-2.355-0.086-2.493,1.576c-0.139,1.663-1.247,2.909-3.464,0.416
	c-2.218-2.494-2.634-1.939-3.325-1.939c-0.693,0-1.939,1.662-1.663,9.421c0.197,5.541,2.382,6.419,3.812,6.821
	c-2.651,1.823-5.697,3.258-9.119,4.126C42.011,71.97,28.669,65.946,22.438,53.979z M75.992,85.905
	c-1.005-8.7,2.527-21.894,2.99-23.565c0.76-1.113,1.47-2.27,2.119-3.473c4.875-9.032,5.939-19.423,3-29.256
	c-2.94-9.833-9.534-17.933-18.567-22.807c-0.604-0.326-1.362-0.104-1.689,0.505C63.518,7.916,63.744,8.673,64.351,9
	c8.447,4.558,14.611,12.132,17.361,21.326c2.749,9.194,1.754,18.911-2.806,27.357c-4.557,8.445-12.132,14.611-21.326,17.36
	c-9.196,2.75-18.911,1.754-27.357-2.805c-0.604-0.326-1.361-0.102-1.689,0.506c-0.327,0.606-0.101,1.362,0.506,1.689
	c5.688,3.069,11.911,4.628,18.196,4.628c3.698,0,7.418-0.54,11.06-1.629c2.257-0.675,4.416-1.551,6.473-2.595
	c0.545,0.101,4.74,1.196,4.735,10.778c-6.827,0.183-12.174,1.837-12.174,3.854c0,2.138,6.008,3.873,13.421,3.873
	c7.414,0,13.422-1.735,13.422-3.873C84.172,87.869,80.801,86.496,75.992,85.905z M67.465,73.328
	c2.881-1.771,5.506-3.913,7.819-6.381c-1.108,5.066-2.397,12.688-1.819,18.731c-0.479-0.027-0.972-0.048-1.472-0.062
	C71.996,77.935,69.504,74.689,67.465,73.328z"/>
</svg>
