<?xml version="1.0" encoding="utf-8"?>
<!-- Generator: Adobe Illustrator 16.0.0, SVG Export Plug-In . SVG Version: 6.00 Build 0)  -->
<!DOCTYPE svg PUBLIC "-//W3C//DTD SVG 1.1//EN" "http://www.w3.org/Graphics/SVG/1.1/DTD/svg11.dtd">
<svg version="1.1" id="Layer_5" xmlns="http://www.w3.org/2000/svg" xmlns:xlink="http://www.w3.org/1999/xlink" x="0px" y="0px"
	 width="100px" height="100px" viewBox="0 0 100 100" enable-background="new 0 0 100 100" xml:space="preserve">
<path d="M79.617,13.53v5.946c0,0.938-0.761,1.699-1.699,1.699h-4.46v2.548H38.63c-0.938,0-1.699,0.761-1.699,1.699v2.548h2.761v2.69
	h-2.761v3.681h2.761v2.69h-2.761v3.256h2.761v2.69h-2.761v3.681h2.761v2.69h-2.761v4.105c0,0.938,0.761,1.699,1.699,1.699h19.738
	V45.75h-3.901V43.5h13.464v2.25h-3.434v9.403h8.96v4.672h4.46c0.938,0,1.699,0.76,1.699,1.699v5.946
	c0,0.938-0.761,1.699-1.699,1.699H44.082c-0.938,0-1.699-0.761-1.699-1.699v-2.761H28.437c-0.938,0-1.699-0.76-1.699-1.699V49.349
	h-2.194v-2.69h2.194v-3.681h-2.194v-2.69h2.194v-3.256h-2.194v-2.69h2.194v-3.681h-2.194v-2.69h2.194v-11.68
	c0-0.938,0.761-1.699,1.699-1.699h13.945V13.53c0-0.938,0.761-1.699,1.699-1.699h33.836C78.856,11.831,79.617,12.592,79.617,13.53z
	 M64.498,72.909h-6.158v14.794H55.26v3.469h3.079h6.158h4.142v-3.469h-4.142V72.909z M71.612,85.297h-0.565
	c-0.938,0-1.699,0.761-1.699,1.699v4.672c0,0.938,0.761,1.699,1.699,1.699h0.565c0.938,0,1.699-0.761,1.699-1.699v-4.672
	C73.311,86.058,72.55,85.297,71.612,85.297z M52.711,85.297h-0.565c-0.938,0-1.699,0.761-1.699,1.699v4.672
	c0,0.938,0.761,1.699,1.699,1.699h0.565c0.938,0,1.699-0.761,1.699-1.699v-4.672C54.411,86.058,53.65,85.297,52.711,85.297z
	 M77.617,27h-30.45c-1.104,0-2,0.896-2,2v10.333c0,1.104,0.896,2,2,2h30.45c1.104,0,2-0.896,2-2V29
	C79.617,27.896,78.721,27,77.617,27z"/>
</svg>
