<?xml version="1.0" encoding="utf-8"?>
<!-- Generator: Adobe Illustrator 16.0.0, SVG Export Plug-In . SVG Version: 6.00 Build 0)  -->
<!DOCTYPE svg PUBLIC "-//W3C//DTD SVG 1.1//EN" "http://www.w3.org/Graphics/SVG/1.1/DTD/svg11.dtd">
<svg version="1.1" id="Layer_6" xmlns="http://www.w3.org/2000/svg" xmlns:xlink="http://www.w3.org/1999/xlink" x="0px" y="0px"
	 width="100px" height="100px" viewBox="0 0 100 100" enable-background="new 0 0 100 100" xml:space="preserve">
<path d="M39.941,48.822v5.393h-1.486c-0.807,0-1.459,0.652-1.459,1.458v19.391c0,0.805,0.652,1.458,1.459,1.458h23.092
	c0.805,0,1.457-0.653,1.457-1.458V55.672c0-0.806-0.652-1.458-1.457-1.458h-1.486v-5.393c0-5.548-4.514-10.061-10.061-10.061
	S39.941,43.273,39.941,48.822z M51.717,68.742v5.393h-3.561v-5.538c-0.322-0.404-0.518-0.915-0.518-1.471
	c0-1.305,1.059-2.361,2.361-2.361s2.361,1.056,2.361,2.361C52.361,67.752,52.113,68.32,51.717,68.742z M56.27,48.822v5.393H43.73
	v-5.393c0-3.458,2.813-6.27,6.27-6.27S56.27,45.364,56.27,48.822z M52.227,12.746l-2.027-1.689l-0.01,0.009l-0.008-0.006
	l-1.912,1.649L19.32,37.523v0.174l-8.932,7.71l3.908,4.528l5.023-4.338v43.345h62.607V44.986l3.879,3.199l3.805-4.615L52.227,12.746
	z M75.947,82.962H25.303V40.436L50.26,18.895l25.688,21.405V82.962z"/>
</svg>
