<?xml version="1.0" encoding="utf-8"?>
<!-- Generator: Adobe Illustrator 16.0.0, SVG Export Plug-In . SVG Version: 6.00 Build 0)  -->
<!DOCTYPE svg PUBLIC "-//W3C//DTD SVG 1.1//EN" "http://www.w3.org/Graphics/SVG/1.1/DTD/svg11.dtd">
<svg version="1.1" id="Layer_6" xmlns="http://www.w3.org/2000/svg" xmlns:xlink="http://www.w3.org/1999/xlink" x="0px" y="0px"
	 width="100px" height="100px" viewBox="0 0 100 100" enable-background="new 0 0 100 100" xml:space="preserve">
<path d="M64.548,38.248H13.102c-0.795,0-1.442,0.646-1.442,1.442v34.747c0,0.796,0.647,1.442,1.442,1.442h51.447
	c0.795,0,1.442-0.646,1.442-1.442V39.69C65.991,38.894,65.344,38.248,64.548,38.248z M30.8,70.68H16.855v-2.646H30.8V70.68z
	 M30.8,63.397H16.855v-2.645H30.8V63.397z M35.607,55.902H16.855v-2.644h18.752V55.902z M60.31,71.228h-2.032
	c0.12-2.471-1.019-5.067-1.019-5.067c-0.386-0.856-2.737-1.597-2.737-1.597c-1.256-0.442-1.265-0.883-1.265-0.883
	c-2.466,4.86-4.339,0.014-4.339,0.014c-0.172,0.655-2.709,1.424-2.709,1.424c-0.742,0.286-1.055,0.713-1.055,0.713
	c-1.097,1.627-1.225,5.247-1.225,5.247c0,0.056,0.006,0.1,0.011,0.149h-1.12V52.476h17.49V71.228z M62.294,46.887
	c0,0.796-0.647,1.443-1.444,1.443H16.857c-0.797,0-1.444-0.647-1.444-1.443v-2.525c0-0.796,0.647-1.441,1.444-1.441H60.85
	c0.796,0,1.444,0.645,1.444,1.441V46.887z M48.295,61.111c0.19,1.564,1.536,3.184,2.755,3.184c1.402,0,2.735-1.703,2.943-3.184
	c0.08-0.057,0.208-0.192,0.257-0.5c0,0,0.299-1.072-0.099-0.958c0.139-0.412,0.597-2.022-0.292-3.022c0,0-0.416-0.568-1.427-0.87
	l-0.471-0.163c-0.187-0.134-0.562-0.453-0.562-0.807c0,0-0.234,0.109-0.372,0.31c0.054-0.165,0.146-0.318,0.291-0.443
	c0,0-0.153,0.08-0.295,0.252c-0.109,0.062-0.362,0.233-0.445,0.539l0.004-0.019c0,0-0.051-0.07-0.191-0.09
	c-0.139-0.019-0.382,0.074-0.382,0.074s-1.474,0.576-1.901,1.901c0,0-0.254,0.6,0.08,2.361c-0.473-0.224-0.151,0.935-0.151,0.935
	C48.088,60.92,48.218,61.054,48.295,61.111z M50.98,54.966c-0.072,0.1-0.133,0.225-0.162,0.377l-0.053-0.02
	C50.805,55.195,50.874,55.073,50.98,54.966z M86.908,24.121H35.795c-0.791,0-1.433,0.642-1.433,1.433v10.364h28.684
	c1.92,0,3.624,0.92,4.709,2.339h14.941v18.63h-2.019c0.119-2.455-1.012-5.034-1.012-5.034c-0.383-0.851-2.719-1.586-2.719-1.586
	c-1.247-0.439-1.256-0.877-1.256-0.877c-2.45,4.828-4.311,0.014-4.311,0.014c-0.135,0.515-1.734,1.099-2.401,1.321v10.784h17.929
	c0.791,0,1.433-0.642,1.433-1.433V25.554C88.341,24.763,87.699,24.121,86.908,24.121z M84.668,32.704
	c0,0.791-0.643,1.433-1.434,1.433H39.525c-0.791,0-1.434-0.642-1.434-1.433v-2.509c0-0.791,0.643-1.432,1.434-1.432h43.708
	c0.791,0,1.434,0.641,1.434,1.432V32.704z M70.506,46.339c0.049,0.307,0.178,0.44,0.255,0.497c0.189,1.554,1.526,3.163,2.737,3.163
	c1.393,0,2.718-1.692,2.924-3.163c0.08-0.057,0.207-0.191,0.255-0.497c0,0,0.298-1.065-0.098-0.952
	c0.138-0.41,0.593-2.009-0.289-3.003c0,0-0.414-0.564-1.418-0.864l-0.468-0.162c-0.186-0.134-0.558-0.45-0.558-0.802
	c0,0-0.233,0.108-0.37,0.308c0.054-0.163,0.145-0.316,0.289-0.44c0,0-0.152,0.079-0.293,0.25c-0.108,0.062-0.359,0.232-0.442,0.536
	l0.004-0.02c0,0-0.051-0.069-0.19-0.089c-0.138-0.02-0.38,0.073-0.38,0.073S71,41.746,70.576,43.063c0,0-0.253,0.596,0.08,2.346
	C70.186,45.187,70.506,46.339,70.506,46.339z M73.428,40.731c-0.071,0.099-0.133,0.223-0.161,0.375l-0.053-0.02
	C73.254,40.958,73.322,40.837,73.428,40.731z"/>
</svg>
