<?xml version="1.0" encoding="utf-8"?>
<!-- Generator: Adobe Illustrator 16.0.0, SVG Export Plug-In . SVG Version: 6.00 Build 0)  -->
<!DOCTYPE svg PUBLIC "-//W3C//DTD SVG 1.1//EN" "http://www.w3.org/Graphics/SVG/1.1/DTD/svg11.dtd">
<svg version="1.1" id="Layer_7" xmlns="http://www.w3.org/2000/svg" xmlns:xlink="http://www.w3.org/1999/xlink" x="0px" y="0px"
	 width="100px" height="100px" viewBox="0 0 100 100" enable-background="new 0 0 100 100" xml:space="preserve">
<path d="M71.178,37.521c0,0,0.063,0.731,0.014,1.835H28.606c-0.184-1.103-0.207-1.835-0.207-1.835H17.352v24.958h65.297V37.521
	H71.178z M61.818,50H40.071c-3.413,0.139-5.825-0.95-7.535-2.532h35.761C66.899,48.953,64.845,50,61.818,50z M70.061,44.702H30.404
	c-0.476-0.858-0.845-1.74-1.121-2.58h41.569C70.681,42.962,70.426,43.844,70.061,44.702z M71.667,36.667h-43.06v-2.644h43.06V36.667
	z M71.667,31.492h-43.06v-2.644h43.06V31.492z M71.667,26.175h-43.06v-2.644h43.06V26.175z M71.667,21h-43.06v-2.644h43.06V21z"/>
</svg>
