<?xml version="1.0" encoding="utf-8"?>
<!-- Generator: Adobe Illustrator 16.0.0, SVG Export Plug-In . SVG Version: 6.00 Build 0)  -->
<!DOCTYPE svg PUBLIC "-//W3C//DTD SVG 1.1//EN" "http://www.w3.org/Graphics/SVG/1.1/DTD/svg11.dtd">
<svg version="1.1" id="Layer_5" xmlns="http://www.w3.org/2000/svg" xmlns:xlink="http://www.w3.org/1999/xlink" x="0px" y="0px"
	 width="100px" height="100px" viewBox="0 0 100 100" enable-background="new 0 0 100 100" xml:space="preserve">
<path d="M76.584,50.458l-38.339-2.53c-0.046-0.083-0.084-0.17-0.135-0.249l38.182-9.736l-0.494-1.939l-38.181,9.735l34.531-20.774
	l-1.031-1.712L36.282,44.209l26.902-28.865l-1.463-1.363L32.182,45.674c-1.913,0.702-3.285,2.522-3.285,4.679
	c0,1.412,0.59,2.682,1.531,3.59L24.4,70.149c-0.106,0.282-2.558,6.968,0.703,11.675c1.928,2.784,5.293,4.195,10.003,4.195h24.75v-4
	h-24.75c-3.313,0-5.57-0.829-6.708-2.463c-1.72-2.47-0.765-6.616-0.251-8.007l6.035-16.226c1.705-0.099,3.172-1.05,4-2.429
	l34.999,15.37l0.804-1.831l-35.15-15.436c0.028-0.214,0.063-0.425,0.063-0.646c0-0.13-0.028-0.252-0.038-0.38l37.593,2.48
	L76.584,50.458z"/>
</svg>
