<?xml version="1.0" encoding="utf-8"?>
<!-- Generator: Adobe Illustrator 16.0.0, SVG Export Plug-In . SVG Version: 6.00 Build 0)  -->
<!DOCTYPE svg PUBLIC "-//W3C//DTD SVG 1.1//EN" "http://www.w3.org/Graphics/SVG/1.1/DTD/svg11.dtd">
<svg version="1.1" id="Layer_4" xmlns="http://www.w3.org/2000/svg" xmlns:xlink="http://www.w3.org/1999/xlink" x="0px" y="0px"
	 width="100px" height="100px" viewBox="0 0 100 100" enable-background="new 0 0 100 100" xml:space="preserve">
<path d="M47.264,36.82v27.17h5.473V36.82c3.493-1.148,6.019-4.434,6.019-8.313c0-4.834-3.92-8.754-8.755-8.754
	s-8.755,3.92-8.755,8.754C41.245,32.387,43.771,35.672,47.264,36.82z M43.561,26.563c0,0,0.821-5.789,5.837-5.379
	c0.332-0.043-5.032,2.902-5.837,5.607V26.563z M79,64.297v13.762c0,1.209-0.98,2.188-2.188,2.188H23.188
	c-1.208,0-2.188-0.979-2.188-2.188V64.297c0-1.209,0.98-2.189,2.188-2.189h3.311c0.158-1.053,1.059-1.863,2.156-1.863h2.918
	c1.098,0,1.998,0.811,2.156,1.863h4.689c0.002,2.268,5.186,4.104,11.58,4.104c6.397,0,11.581-1.836,11.583-4.104h5.317
	c0.158-1.053,1.058-1.863,2.155-1.863h2.919c1.097,0,1.997,0.811,2.155,1.863h2.683C78.02,62.107,79,63.088,79,64.297z"/>
</svg>
