<?xml version="1.0" encoding="utf-8"?>
<!-- Generator: Adobe Illustrator 16.0.0, SVG Export Plug-In . SVG Version: 6.00 Build 0)  -->
<!DOCTYPE svg PUBLIC "-//W3C//DTD SVG 1.1//EN" "http://www.w3.org/Graphics/SVG/1.1/DTD/svg11.dtd">
<svg version="1.1" id="Layer_6" xmlns="http://www.w3.org/2000/svg" xmlns:xlink="http://www.w3.org/1999/xlink" x="0px" y="0px"
	 width="100px" height="100px" viewBox="0 0 100 100" enable-background="new 0 0 100 100" xml:space="preserve">
<path d="M83.652,57.822c-5.459-5.459-13.635-6.537-20.172-3.243l-40.69-40.69l-11.223-1.474l-0.326,0.326l1.474,11.223l5.039,5.039
	l5.707,0c2.156,0,3.904,1.748,3.904,3.904l0,5.706l2.35,2.351h4.788c2.155,0,3.903,1.748,3.903,3.903v4.787l1.246,1.247h5.706
	c2.156,0,3.904,1.748,3.904,3.904v5.706l5.202,5.202c-1.52,5.796-0.013,12.223,4.531,16.767c6.809,6.809,17.848,6.809,24.657,0
	C90.461,75.67,90.461,64.63,83.652,57.822z M60.076,56.833L22.768,19.524l1.288-1.289L61.54,55.72
	C61.038,56.062,60.549,56.433,60.076,56.833z M80.34,78.063c-2.236,2.235-5.86,2.235-8.096,0c-2.236-2.235-2.236-5.86,0-8.096
	c2.236-2.236,5.86-2.236,8.096,0S82.576,75.827,80.34,78.063z"/>
</svg>
