<?xml version="1.0" encoding="utf-8"?>
<!-- Generator: Adobe Illustrator 16.0.0, SVG Export Plug-In . SVG Version: 6.00 Build 0)  -->
<!DOCTYPE svg PUBLIC "-//W3C//DTD SVG 1.1//EN" "http://www.w3.org/Graphics/SVG/1.1/DTD/svg11.dtd">
<svg version="1.1" id="Layer_4" xmlns="http://www.w3.org/2000/svg" xmlns:xlink="http://www.w3.org/1999/xlink" x="0px" y="0px"
	 width="100px" height="100px" viewBox="0 0 100 100" enable-background="new 0 0 100 100" xml:space="preserve">
<path d="M70.171,25.877H29.83c-1.941,0-3.52,1.578-3.52,3.518v41.209c0,1.94,1.578,3.518,3.52,3.518h40.341
	c1.94,0,3.519-1.578,3.519-3.518V29.396C73.689,27.456,72.111,25.877,70.171,25.877z M50.477,55.826
	c0,1.412-0.594,2.636-1.781,3.673c-1.187,1.038-2.556,1.557-4.107,1.557h-5.807c-1.565,0-2.934-0.516-4.107-1.547
	s-1.761-2.253-1.761-3.665v-2.298h5.868v2.298h5.807v-8.289h-5.807c-1.565,0-2.934-0.519-4.107-1.557
	c-1.174-1.038-1.761-2.256-1.761-3.656v-9.682h17.321v5.248H38.801v4.397h5.808c1.552,0,2.917,0.519,4.098,1.557
	s1.771,2.256,1.771,3.656V55.826z M76.771,16.329H23.229c-3.492,0-6.324,2.832-6.324,6.325v54.693c0,3.493,2.832,6.325,6.324,6.325
	h53.543c3.492,0,6.324-2.832,6.324-6.325V22.653C83.096,19.161,80.264,16.329,76.771,16.329z M76.183,70.604
	c0,3.314-2.697,6.012-6.012,6.012H29.83c-3.315,0-6.013-2.697-6.013-6.012V29.396c0-3.314,2.697-6.012,6.013-6.012h40.341
	c3.314,0,6.012,2.697,6.012,6.012V70.604z"/>
</svg>
