<?xml version="1.0" encoding="utf-8"?>
<!-- Generator: Adobe Illustrator 16.0.0, SVG Export Plug-In . SVG Version: 6.00 Build 0)  -->
<!DOCTYPE svg PUBLIC "-//W3C//DTD SVG 1.1//EN" "http://www.w3.org/Graphics/SVG/1.1/DTD/svg11.dtd">
<svg version="1.1" id="Layer_4" xmlns="http://www.w3.org/2000/svg" xmlns:xlink="http://www.w3.org/1999/xlink" x="0px" y="0px"
	 width="100px" height="100px" viewBox="0 0 100 100" enable-background="new 0 0 100 100" xml:space="preserve">
<path d="M37.947,35.4h6.951v6.07h-6.951V35.4z M37.947,52.588h6.951v-6.07h-6.951V52.588z M73.689,29.396v41.209
	c0,1.94-1.578,3.518-3.519,3.518H29.83c-1.941,0-3.52-1.578-3.52-3.518V29.396c0-1.94,1.578-3.518,3.52-3.518h40.341
	C72.111,25.877,73.689,27.456,73.689,29.396z M51.687,35.383c0-1.33-0.685-2.498-2.053-3.503s-2.947-1.509-4.735-1.509H31.182
	v27.246h13.717c1.788,0,3.367-0.497,4.735-1.492c1.368-0.994,2.053-2.167,2.053-3.521v-4.544c0-0.937-0.253-1.682-0.758-2.237
	c-0.506-0.555-1.124-1.173-1.854-1.855c0.73-0.659,1.349-1.263,1.854-1.813c0.505-0.549,0.758-1.303,0.758-2.263V35.383z
	 M83.096,22.653v54.693c0,3.493-2.832,6.325-6.324,6.325H23.229c-3.492,0-6.324-2.832-6.324-6.325V22.653
	c0-3.493,2.832-6.325,6.324-6.325h53.543C80.264,16.329,83.096,19.161,83.096,22.653z M76.183,29.396
	c0-3.314-2.697-6.012-6.012-6.012H29.83c-3.315,0-6.013,2.697-6.013,6.012v41.209c0,3.314,2.697,6.012,6.013,6.012h40.341
	c3.314,0,6.012-2.697,6.012-6.012V29.396z"/>
</svg>
