<?xml version="1.0" encoding="utf-8"?>
<!-- Generator: Adobe Illustrator 16.0.0, SVG Export Plug-In . SVG Version: 6.00 Build 0)  -->
<!DOCTYPE svg PUBLIC "-//W3C//DTD SVG 1.1//EN" "http://www.w3.org/Graphics/SVG/1.1/DTD/svg11.dtd">
<svg version="1.1" id="Layer_4" xmlns="http://www.w3.org/2000/svg" xmlns:xlink="http://www.w3.org/1999/xlink" x="0px" y="0px"
	 width="100px" height="100px" viewBox="0 0 100 100" enable-background="new 0 0 100 100" xml:space="preserve">
<path d="M70.171,25.877H29.83c-1.941,0-3.52,1.578-3.52,3.518v41.209c0,1.94,1.578,3.518,3.52,3.518h40.341
	c1.94,0,3.519-1.578,3.519-3.518V29.396C73.689,27.456,72.111,25.877,70.171,25.877z M48.908,42.551
	c0,1.412-0.597,2.646-1.791,3.701s-2.573,1.583-4.138,1.583h-5.969v6.334h11.897v5.248H31.142V47.817
	c0-1.399,0.59-2.624,1.771-3.673c1.18-1.05,2.559-1.575,4.137-1.575h5.99v-6.334h-5.969v2.135h-5.93v-2.135
	c0-1.399,0.59-2.624,1.771-3.674c1.18-1.05,2.559-1.574,4.137-1.574h5.97c1.39,0,2.624,0.416,3.703,1.249
	c0.701,0.567,1.241,1.155,1.618,1.765c0.378,0.609,0.567,1.354,0.567,2.235V42.551z M76.771,16.329H23.229
	c-3.492,0-6.324,2.832-6.324,6.325v54.693c0,3.493,2.832,6.325,6.324,6.325h53.543c3.492,0,6.324-2.832,6.324-6.325V22.653
	C83.096,19.161,80.264,16.329,76.771,16.329z M76.183,70.604c0,3.314-2.697,6.012-6.012,6.012H29.83
	c-3.315,0-6.013-2.697-6.013-6.012V29.396c0-3.314,2.697-6.012,6.013-6.012h40.341c3.314,0,6.012,2.697,6.012,6.012V70.604z"/>
</svg>
