<?xml version="1.0" encoding="utf-8"?>
<!-- Generator: Adobe Illustrator 16.0.0, SVG Export Plug-In . SVG Version: 6.00 Build 0)  -->
<!DOCTYPE svg PUBLIC "-//W3C//DTD SVG 1.1//EN" "http://www.w3.org/Graphics/SVG/1.1/DTD/svg11.dtd">
<svg version="1.1" id="Layer_4" xmlns="http://www.w3.org/2000/svg" xmlns:xlink="http://www.w3.org/1999/xlink" x="0px" y="0px"
	 width="100px" height="100px" viewBox="0 0 100 100" enable-background="new 0 0 100 100" xml:space="preserve">
<path d="M66.436,39.762c-12.131,0-22,9.869-22,22s9.869,22,22,22s22-9.869,22-22S78.566,39.762,66.436,39.762z M66.436,79.762
	c-9.924,0-18-8.075-18-18s8.076-18,18-18c9.926,0,18,8.075,18,18S76.361,79.762,66.436,79.762z M78.414,54.868
	c0.494,0.665,0.355,1.604-0.311,2.098l-10.773,8c-0.266,0.198-0.58,0.296-0.895,0.296c-0.354,0-0.705-0.125-0.986-0.371l-9.156-8
	c-0.623-0.545-0.688-1.493-0.143-2.116c0.545-0.623,1.49-0.688,2.117-0.143l8.244,7.204l9.803-7.279
	C76.98,54.065,77.922,54.203,78.414,54.868z M39.32,38.004l2.375,6.876H34.5l2.34-6.912c0.461-1.453,0.85-2.942,1.17-4.324h0.105
	C38.471,35.026,38.824,36.444,39.32,38.004z M42.334,47.291l1.379,4.064c-1.617,3.308-2.527,7.021-2.527,10.943H21.783
	c-1.674,0-3.035-1.361-3.035-3.035V26.456c0-1.673,1.361-3.035,3.035-3.035H54.59c1.674,0,3.035,1.361,3.035,3.035v12.353
	c-4.797,1.754-8.906,4.941-11.818,9.036l-5.777-16.93h-3.723l-8.117,23.891h3.191l2.48-7.515H42.334z M41.236,63.815
	c0.117,1.958,0.461,3.855,1.006,5.667H16.564c-2.762,0-5-2.239-5-5V21.238c0-2.761,2.238-5,5-5h43.244c2.762,0,5,2.239,5,5v16.1
	c-1.959,0.107-3.854,0.444-5.668,0.978v-11.86c0-2.51-2.041-4.552-4.551-4.552H21.783c-2.512,0-4.553,2.042-4.553,4.552v32.808
	c0,2.51,2.041,4.552,4.553,4.552H41.236z"/>
</svg>
