<?xml version="1.0" encoding="utf-8"?>
<!-- Generator: Adobe Illustrator 16.0.0, SVG Export Plug-In . SVG Version: 6.00 Build 0)  -->
<!DOCTYPE svg PUBLIC "-//W3C//DTD SVG 1.1//EN" "http://www.w3.org/Graphics/SVG/1.1/DTD/svg11.dtd">
<svg version="1.1" id="Layer_4" xmlns="http://www.w3.org/2000/svg" xmlns:xlink="http://www.w3.org/1999/xlink" x="0px" y="0px"
	 width="100px" height="100px" viewBox="0 0 100 100" enable-background="new 0 0 100 100" xml:space="preserve">
<path d="M70.171,25.878H29.83c-1.941,0-3.52,1.578-3.52,3.518v41.209c0,1.939,1.578,3.518,3.52,3.518h40.341
	c1.94,0,3.519-1.578,3.519-3.518V29.396C73.689,27.456,72.111,25.878,70.171,25.878z M45.991,56.748l-4.133-7.271l-4.152,7.271
	h-6.997l7.641-13.445l-7.241-12.697h6.997l3.753,6.557l3.755-6.557h7.019l-7.263,12.697l7.641,13.445H45.991z M76.771,16.329H23.229
	c-3.492,0-6.324,2.832-6.324,6.324v54.693c0,3.492,2.832,6.324,6.324,6.324h53.543c3.492,0,6.324-2.832,6.324-6.324V22.653
	C83.096,19.161,80.264,16.329,76.771,16.329z M76.183,70.604c0,3.314-2.697,6.012-6.012,6.012H29.83
	c-3.315,0-6.013-2.697-6.013-6.012V29.396c0-3.314,2.697-6.012,6.013-6.012h40.341c3.314,0,6.012,2.697,6.012,6.012V70.604z"/>
</svg>
