<?xml version="1.0" encoding="utf-8"?>
<!-- Generator: Adobe Illustrator 16.0.0, SVG Export Plug-In . SVG Version: 6.00 Build 0)  -->
<!DOCTYPE svg PUBLIC "-//W3C//DTD SVG 1.1//EN" "http://www.w3.org/Graphics/SVG/1.1/DTD/svg11.dtd">
<svg version="1.1" id="Layer_4" xmlns="http://www.w3.org/2000/svg" xmlns:xlink="http://www.w3.org/1999/xlink" x="0px" y="0px"
	 width="100px" height="100px" viewBox="0 0 100 100" enable-background="new 0 0 100 100" xml:space="preserve">
<path d="M74.564,25.237H54.871c-0.869,0-1.576,0.707-1.576,1.576v24.704H28.076c-0.869,0-1.576,0.708-1.576,1.578v19.278
	c0,0.869,0.707,1.576,1.576,1.576l46.486-0.012c0.869,0,1.577-0.708,1.577-1.578l0.002-45.547
	C76.142,25.944,75.435,25.237,74.564,25.237z M50,63.991c0,1.021-0.827,1.848-1.848,1.848H37.834c-0.07,0-0.138-0.004-0.206-0.012
	v0.159l1.48,3.747c0.05,0.126,0.01,0.27-0.098,0.351c-0.054,0.041-0.118,0.061-0.181,0.061c-0.065,0-0.129-0.021-0.183-0.063
	l-7.362-5.66c-0.074-0.057-0.117-0.145-0.117-0.238c0-0.094,0.043-0.182,0.117-0.239l7.362-5.66
	c0.107-0.083,0.256-0.083,0.364-0.002c0.107,0.082,0.147,0.225,0.098,0.35l-1.388,3.515c0.038-0.002,0.075-0.006,0.114-0.006h8.47
	v-6.196c0-1.021,0.828-1.848,1.848-1.848c1.021,0,1.848,0.827,1.848,1.848V63.991z M78.019,20.052H49.894
	c-1.796,0-3.252,1.456-3.252,3.252v22.608h-24.66c-1.796,0-3.252,1.457-3.252,3.253v27.531c0,1.796,1.456,3.252,3.252,3.252h28.124
	c0.062,0,0.119-0.015,0.18-0.018h27.729c1.796,0,3.253-1.457,3.253-3.253V50.866c0-0.011,0.003-0.021,0.003-0.031V23.304
	C81.271,21.508,79.814,20.052,78.019,20.052z M77.54,72.36c0,1.643-1.336,2.979-2.978,2.979H55.146
	c-0.013,0.007-0.068,0.013-0.126,0.013H28.076c-1.642,0-2.978-1.336-2.978-2.978V53.096c0-1.643,1.336-2.978,2.978-2.978h23.817
	V26.813c0-1.642,1.336-2.978,2.978-2.978h19.693c1.643,0,2.978,1.336,2.978,2.978L77.54,72.36z"/>
</svg>
