<?xml version="1.0" encoding="utf-8"?>
<!-- Generator: Adobe Illustrator 16.0.0, SVG Export Plug-In . SVG Version: 6.00 Build 0)  -->
<!DOCTYPE svg PUBLIC "-//W3C//DTD SVG 1.1//EN" "http://www.w3.org/Graphics/SVG/1.1/DTD/svg11.dtd">
<svg version="1.1" id="Layer_4" xmlns="http://www.w3.org/2000/svg" xmlns:xlink="http://www.w3.org/1999/xlink" x="0px" y="0px"
	 width="100px" height="100px" viewBox="0 0 100 100" enable-background="new 0 0 100 100" xml:space="preserve">
<path d="M70.171,25.877H29.83c-1.941,0-3.519,1.578-3.519,3.519v41.209c0,1.94,1.578,3.519,3.519,3.519h40.341
	c1.94,0,3.518-1.578,3.518-3.519V29.396C73.689,27.455,72.111,25.877,70.171,25.877z M50.935,35.999h-6.766V33.9h-7.324v17.188
	h7.324v-6.07H39.55v-5.047h11.385v11.117c0,1.353-0.688,2.529-2.064,3.529s-2.959,1.5-4.748,1.5h-7.301
	c-1.805,0-3.383-0.497-4.736-1.492c-1.352-0.994-2.029-2.161-2.029-3.502V33.9c0-1.341,0.686-2.515,2.053-3.521
	c1.369-1.006,2.955-1.509,4.76-1.509h7.254c1.789,0,3.371,0.503,4.748,1.509s2.064,2.18,2.064,3.521V35.999z M76.771,16.328H23.229
	c-3.492,0-6.325,2.832-6.325,6.325v54.693c0,3.493,2.833,6.325,6.325,6.325h53.542c3.492,0,6.325-2.832,6.325-6.325V22.653
	C83.096,19.16,80.263,16.328,76.771,16.328z M76.183,70.604c0,3.314-2.697,6.012-6.012,6.012H29.83
	c-3.315,0-6.013-2.697-6.013-6.012V29.396c0-3.314,2.697-6.012,6.013-6.012h40.341c3.314,0,6.012,2.697,6.012,6.012V70.604z"/>
</svg>
