<?xml version="1.0" encoding="utf-8"?>
<!-- Generator: Adobe Illustrator 16.0.0, SVG Export Plug-In . SVG Version: 6.00 Build 0)  -->
<!DOCTYPE svg PUBLIC "-//W3C//DTD SVG 1.1//EN" "http://www.w3.org/Graphics/SVG/1.1/DTD/svg11.dtd">
<svg version="1.1" id="Layer_6" xmlns="http://www.w3.org/2000/svg" xmlns:xlink="http://www.w3.org/1999/xlink" x="0px" y="0px"
	 width="100px" height="100px" viewBox="0 0 100 100" enable-background="new 0 0 100 100" xml:space="preserve">
<path d="M40.716,68.977l8.98,4.387l-2.612,5.348l-4.796-2.344c-0.643-0.313-1.418-0.047-1.732,0.595s-0.048,1.418,0.595,1.731
	l4.797,2.343l-2.154,4.409l-4.796-2.343c-0.642-0.314-1.418-0.047-1.731,0.595c-0.314,0.643-0.048,1.418,0.595,1.732l4.795,2.343
	l-1.416,2.898l-8.98-4.387L40.716,68.977z M75.81,27.192v17.082c0,1.505-1.22,2.726-2.726,2.726h-6.656v5.386l-2.818,2.817
	c-1.064,1.064-1.064,2.791,0,3.855l2.818,2.818v1.23l-2.364,2.364c-1.064,1.064-1.064,2.79,0,3.854l2.364,2.363v2.322l-2.818,2.817
	c-1.064,1.065-1.064,2.791,0,3.855l2.818,2.818v4.977l-4.814,6.269h-0.321l-4.814-6.269V47h-6.656c-1.505,0-2.726-1.22-2.726-2.726
	v-4.715c-1.754-0.3-3.414-0.9-4.934-1.748c0.37,1.625,1.546,3.311,3.298,4.672v2.13c0,2.405,1.957,4.361,4.361,4.361h5.02v2.255
	c-2.142,0.802-4.484,1.062-6.8,0.68L31.325,86.13c-0.661,1.353-2.293,1.914-3.646,1.253l-1.959-0.958
	c-1.353-0.66-1.913-2.293-1.252-3.646l16.717-34.22c-3.877-3.583-5.32-9.243-3.431-14.339c-2.681-3.079-4.322-7.191-4.322-11.705
	c0-9.52,7.296-17.265,16.264-17.265c8.968,0,16.264,7.745,16.264,17.265c0,0.66-0.039,1.309-0.106,1.95h7.23
	C74.589,24.467,75.81,25.688,75.81,27.192z M49.823,24.467h13.286c0.08-0.638,0.125-1.288,0.125-1.95
	c0-8.017-6.073-14.539-13.539-14.539c-7.465,0-13.538,6.522-13.538,14.539c0,3.415,1.104,6.555,2.946,9.039
	c1.602-2.448,3.909-4.23,6.521-5.188c-0.104,0.372-0.163,0.761-0.163,1.165v5.221c-1.309,0.35-2.351,1.054-2.932,2.091
	c1.376,0.926,2.919,1.595,4.568,1.94v-9.592C47.098,25.688,48.318,24.467,49.823,24.467z M52.186,36.806
	c3.443-0.69,6.432-2.783,8.429-5.706h-5.703c-1.505,0-2.726,1.221-2.726,2.726V36.806z M59.273,47.545H58v38.161h1.272V47.545z
	 M70.448,33.826c0-1.505-1.22-2.726-2.725-2.726h-3.924c-2.357,4.347-6.443,7.506-11.256,8.412c0.466,0.832,1.346,1.4,2.368,1.4
	h12.812c1.505,0,2.725-1.22,2.725-2.725V33.826z"/>
</svg>
