<?xml version="1.0" encoding="utf-8"?>
<!-- Generator: Adobe Illustrator 16.0.0, SVG Export Plug-In . SVG Version: 6.00 Build 0)  -->
<!DOCTYPE svg PUBLIC "-//W3C//DTD SVG 1.1//EN" "http://www.w3.org/Graphics/SVG/1.1/DTD/svg11.dtd">
<svg version="1.1" id="Layer_7" xmlns="http://www.w3.org/2000/svg" xmlns:xlink="http://www.w3.org/1999/xlink" x="0px" y="0px"
	 width="100px" height="100px" viewBox="0 0 100 100" enable-background="new 0 0 100 100" xml:space="preserve">
<path d="M50,9.775C27.82,9.775,9.775,27.82,9.775,50S27.82,90.225,50,90.225S90.225,72.18,90.225,50S72.18,9.775,50,9.775z
	 M50,86.225c-19.974,0-36.225-16.25-36.225-36.225S30.026,13.775,50,13.775S86.225,30.025,86.225,50S69.974,86.225,50,86.225z
	 M70.354,37.869c0,3.503-2.84,6.343-6.343,6.343s-6.343-2.84-6.343-6.343s2.84-6.343,6.343-6.343S70.354,34.366,70.354,37.869z
	 M37.276,44.212c-3.503,0-6.343-2.84-6.343-6.343s2.84-6.343,6.343-6.343s6.343,2.84,6.343,6.343S40.779,44.212,37.276,44.212z
	 M50.35,61.994c-7.412-8.702-11.383,2.942-11.383,2.942c-0.103-0.157,11.033,18.956,22.067,0
	C56.779,52.68,50.35,61.994,50.35,61.994z M44.523,65.966h0.327l3.84-2.501c0,0,0.925,1.038,1.961,1.038s1.961-1.038,1.961-1.038
	l3.759,1.797C56.371,65.262,52.449,69.938,44.523,65.966z"/>
</svg>
