<?xml version="1.0" encoding="utf-8"?>
<!-- Generator: Adobe Illustrator 16.0.0, SVG Export Plug-In . SVG Version: 6.00 Build 0)  -->
<!DOCTYPE svg PUBLIC "-//W3C//DTD SVG 1.1//EN" "http://www.w3.org/Graphics/SVG/1.1/DTD/svg11.dtd">
<svg version="1.1" id="Layer_4" xmlns="http://www.w3.org/2000/svg" xmlns:xlink="http://www.w3.org/1999/xlink" x="0px" y="0px"
	 width="100px" height="100px" viewBox="0 0 100 100" enable-background="new 0 0 100 100" xml:space="preserve">
<path d="M75.671,25.877H35.33c-1.941,0-3.52,1.578-3.52,3.518v41.209c0,1.94,1.578,3.519,3.52,3.519h40.341
	c1.94,0,3.519-1.578,3.519-3.519V29.395C79.189,27.455,77.611,25.877,75.671,25.877z M35.854,40.348l13.419-10.314
	c0.1-0.078,0.218-0.115,0.334-0.115c0.114,0,0.23,0.037,0.329,0.111c0.197,0.145,0.271,0.408,0.181,0.637l-2.699,6.832H63.23
	c0.302,0,0.55,0.244,0.547,0.547v5.475c0.001,0.301-0.245,0.545-0.548,0.547l-15.812-0.002l2.698,6.832
	c0.09,0.229,0.016,0.49-0.181,0.639s-0.467,0.148-0.663-0.002L35.854,41.217c-0.135-0.105-0.214-0.266-0.214-0.436
	C35.64,40.611,35.72,40.451,35.854,40.348z M82.271,16.328H28.729c-3.492,0-6.324,2.832-6.324,6.324v54.693
	c0,3.493,2.832,6.325,6.324,6.325h53.543c3.492,0,6.324-2.832,6.324-6.325V22.652C88.596,19.16,85.764,16.328,82.271,16.328z
	 M81.683,70.604c0,3.314-2.697,6.012-6.012,6.012H35.33c-3.315,0-6.013-2.697-6.013-6.012V29.395c0-3.314,2.697-6.012,6.013-6.012
	h40.341c3.314,0,6.012,2.697,6.012,6.012V70.604z"/>
</svg>
