<?xml version="1.0" encoding="utf-8"?>
<!-- Generator: Adobe Illustrator 16.0.0, SVG Export Plug-In . SVG Version: 6.00 Build 0)  -->
<!DOCTYPE svg PUBLIC "-//W3C//DTD SVG 1.1//EN" "http://www.w3.org/Graphics/SVG/1.1/DTD/svg11.dtd">
<svg version="1.1" id="Layer_4" xmlns="http://www.w3.org/2000/svg" xmlns:xlink="http://www.w3.org/1999/xlink" x="0px" y="0px"
	 width="100px" height="100px" viewBox="0 0 100 100" enable-background="new 0 0 100 100" xml:space="preserve">
<path d="M36.663,33.984h7.721v17.188h-7.721V33.984z M73.689,29.396v41.209c0,1.94-1.578,3.519-3.518,3.519H29.83
	c-1.941,0-3.519-1.578-3.519-3.519V29.396c0-1.94,1.578-3.519,3.519-3.519h40.341C72.111,25.877,73.689,27.455,73.689,29.396z
	 M51.173,33.984c0-1.341-0.689-2.515-2.066-3.521c-1.375-1.006-2.957-1.509-4.746-1.509h-7.676c-1.803,0-3.385,0.503-4.746,1.509
	s-2.041,2.18-2.041,3.521v17.223c0,1.341,0.676,2.508,2.029,3.502c1.354,0.995,2.932,1.492,4.736,1.492h0.162l2.689,4.325h7.465
	l-2.525-4.343c1.787,0,3.355-0.496,4.699-1.491c1.346-0.994,2.02-2.162,2.02-3.503V33.984z M83.096,22.653v54.693
	c0,3.493-2.833,6.325-6.325,6.325H23.229c-3.492,0-6.325-2.832-6.325-6.325V22.653c0-3.493,2.833-6.325,6.325-6.325h53.542
	C80.263,16.328,83.096,19.16,83.096,22.653z M76.183,29.396c0-3.314-2.697-6.012-6.012-6.012H29.83
	c-3.315,0-6.013,2.697-6.013,6.012v41.209c0,3.314,2.697,6.012,6.013,6.012h40.341c3.314,0,6.012-2.697,6.012-6.012V29.396z"/>
</svg>
