<?xml version="1.0" encoding="utf-8"?>
<!-- Generator: Adobe Illustrator 16.0.0, SVG Export Plug-In . SVG Version: 6.00 Build 0)  -->
<!DOCTYPE svg PUBLIC "-//W3C//DTD SVG 1.1//EN" "http://www.w3.org/Graphics/SVG/1.1/DTD/svg11.dtd">
<svg version="1.1" id="Layer_4" xmlns="http://www.w3.org/2000/svg" xmlns:xlink="http://www.w3.org/1999/xlink" x="0px" y="0px"
	 width="100px" height="100px" viewBox="0 0 100 100" enable-background="new 0 0 100 100" xml:space="preserve">
<path d="M70.171,25.877H29.83c-1.941,0-3.52,1.578-3.52,3.518v41.209c0,1.94,1.578,3.518,3.52,3.518h40.341
	c1.94,0,3.519-1.578,3.519-3.518V29.396C73.689,27.456,72.111,25.877,70.171,25.877z M51.119,36.706h-6.765v-2.047h-7.278v17.188
	h7.278v-2.203h6.765v2.203c0,1.353-0.691,2.529-2.076,3.529s-2.971,1.5-4.759,1.5h-7.208c-1.805,0-3.383-0.497-4.735-1.492
	c-1.353-0.994-2.03-2.167-2.03-3.521V34.642c0-1.33,0.681-2.498,2.042-3.503c1.36-1.006,2.942-1.509,4.747-1.509h7.162
	c1.787,0,3.378,0.506,4.77,1.518c1.393,1.012,2.088,2.188,2.088,3.529V36.706z M76.771,16.329H23.229
	c-3.492,0-6.324,2.832-6.324,6.325v54.693c0,3.493,2.832,6.325,6.324,6.325h53.543c3.492,0,6.324-2.832,6.324-6.325V22.653
	C83.096,19.161,80.264,16.329,76.771,16.329z M76.183,70.604c0,3.314-2.697,6.012-6.012,6.012H29.83
	c-3.315,0-6.013-2.697-6.013-6.012V29.396c0-3.314,2.697-6.012,6.013-6.012h40.341c3.314,0,6.012,2.697,6.012,6.012V70.604z"/>
</svg>
