<?xml version="1.0" encoding="utf-8"?>
<!-- Generator: Adobe Illustrator 16.0.0, SVG Export Plug-In . SVG Version: 6.00 Build 0)  -->
<!DOCTYPE svg PUBLIC "-//W3C//DTD SVG 1.1//EN" "http://www.w3.org/Graphics/SVG/1.1/DTD/svg11.dtd">
<svg version="1.1" id="Layer_6" xmlns="http://www.w3.org/2000/svg" xmlns:xlink="http://www.w3.org/1999/xlink" x="0px" y="0px"
	 width="100px" height="100px" viewBox="0 0 100 100" enable-background="new 0 0 100 100" xml:space="preserve">
<path d="M87.936,12.063c-5.611-5.612-14.743-5.612-20.355,0L52.207,27.438c-4.398,4.397-5.35,10.958-2.853,16.291l-5.626,5.626
	c-5.333-2.497-11.893-1.546-16.291,2.853L12.063,67.581c-5.612,5.611-5.612,14.743,0,20.355c5.612,5.613,14.744,5.612,20.356,0.001
	l15.373-15.374c4.589-4.589,5.424-11.527,2.512-16.973l5.285-5.286c5.446,2.912,12.386,2.077,16.973-2.511L87.937,32.42
	C93.549,26.809,93.549,17.676,87.936,12.063z M43.096,67.865L27.722,83.24c-3.021,3.021-7.938,3.021-10.96-0.001
	c-3.022-3.022-3.022-7.939-0.002-10.961l15.374-15.374c1.712-1.712,4.031-2.451,6.269-2.225l-4.104,4.104
	c-1.766,1.767-1.766,4.641,0,6.406c1.767,1.766,4.641,1.766,6.406,0l4.472-4.472C45.722,63.215,45.033,65.929,43.096,67.865z
	 M83.239,27.722L67.865,43.096c-1.938,1.938-4.65,2.627-7.147,2.081l2.764-2.764c1.766-1.766,1.766-4.64-0.001-6.405
	c-1.766-1.766-4.639-1.766-6.404,0l-2.396,2.395c-0.227-2.237,0.513-4.557,2.224-6.268l15.374-15.374
	c3.021-3.021,7.939-3.021,10.961,0.001C86.261,19.784,86.261,24.7,83.239,27.722z"/>
</svg>
