<?xml version="1.0" encoding="utf-8"?>
<!-- Generator: Adobe Illustrator 16.0.4, SVG Export Plug-In . SVG Version: 6.00 Build 0)  -->
<!DOCTYPE svg PUBLIC "-//W3C//DTD SVG 1.1//EN" "http://www.w3.org/Graphics/SVG/1.1/DTD/svg11.dtd">
<svg version="1.1" id="Capa_1" xmlns="http://www.w3.org/2000/svg" xmlns:xlink="http://www.w3.org/1999/xlink" x="0px" y="0px"
	 width="100px" height="100px" viewBox="0 0 100 100" enable-background="new 0 0 100 100" xml:space="preserve">
<g id="Layer_7">
	<path d="M58.719,11.227c-0.797-0.491-1.791-0.533-2.629-0.115L25.582,26.398c-0.914,0.459-1.49,1.395-1.49,2.416v0.789h-12.68
		c-1.104,0-2,0.896-2,2v34.25c0,1.104,0.896,2,2,2h12.68v1.486c0,0.977,0.527,1.877,1.379,2.355l30.505,17.133
		c0.412,0.23,0.867,0.346,1.322,0.346c0.473,0,0.943-0.124,1.365-0.369c0.828-0.484,1.338-1.373,1.338-2.332V13.527
		C60.002,12.591,59.516,11.719,58.719,11.227z M54.598,81.855L29.494,67.759V30.482l25.104-12.58V81.855z M66.115,61.896
		c-0.227,0.123-0.473,0.182-0.715,0.182c-0.531,0-1.047-0.283-1.318-0.784c-0.396-0.728-0.127-1.638,0.602-2.034
		c4.09-2.223,6.533-6.414,6.533-11.212s-2.443-8.989-6.533-11.212c-0.729-0.396-0.998-1.307-0.602-2.034
		c0.396-0.729,1.307-0.995,2.033-0.603c5.072,2.757,8.102,7.934,8.102,13.849S71.188,59.141,66.115,61.896z M68.656,70.396
		c-0.227,0.123-0.473,0.182-0.715,0.182c-0.531,0-1.047-0.283-1.318-0.784c-0.396-0.728-0.127-1.638,0.602-2.034
		c7.197-3.912,11.496-11.281,11.496-19.712s-4.299-15.8-11.496-19.712c-0.729-0.396-0.998-1.307-0.602-2.034
		c0.396-0.729,1.307-0.995,2.033-0.603c8.18,4.446,13.064,12.801,13.064,22.349S76.836,65.95,68.656,70.396z M90.588,48.049
		c0,12.754-6.521,23.912-17.443,29.848c-0.227,0.123-0.473,0.183-0.715,0.183c-0.531,0-1.047-0.283-1.318-0.784
		c-0.396-0.729-0.127-1.638,0.603-2.034c9.938-5.401,15.875-15.573,15.875-27.211s-5.937-21.811-15.875-27.213
		c-0.729-0.396-0.998-1.307-0.603-2.035c0.396-0.728,1.306-0.995,2.035-0.602C84.066,24.136,90.588,35.295,90.588,48.049z"/>
</g>
</svg>
