<?xml version="1.0" encoding="utf-8"?>
<!-- Generator: Adobe Illustrator 16.0.4, SVG Export Plug-In . SVG Version: 6.00 Build 0)  -->
<!DOCTYPE svg PUBLIC "-//W3C//DTD SVG 1.1//EN" "http://www.w3.org/Graphics/SVG/1.1/DTD/svg11.dtd">
<svg version="1.1" id="Capa_1" xmlns="http://www.w3.org/2000/svg" xmlns:xlink="http://www.w3.org/1999/xlink" x="0px" y="0px"
	 width="100px" height="100px" viewBox="0 0 100 100" enable-background="new 0 0 100 100" xml:space="preserve">
<g id="Layer_7">
	<path d="M58.719,11.227c-0.797-0.491-1.791-0.533-2.63-0.115L25.583,26.398c-0.914,0.459-1.491,1.395-1.491,2.416v0.789H11.413
		c-1.104,0-2,0.896-2,2v34.25c0,1.104,0.896,2,2,2h12.679v1.486c0,0.977,0.528,1.877,1.379,2.355l30.507,17.133
		c0.412,0.23,0.867,0.346,1.321,0.346c0.474,0,0.943-0.124,1.365-0.369c0.828-0.484,1.337-1.373,1.337-2.332V13.527
		C60.001,12.591,59.516,11.719,58.719,11.227z M54.598,81.855L29.495,67.759V30.482L54.6,17.902v63.954H54.598z M66.116,61.896
		c-0.228,0.123-0.474,0.182-0.716,0.182c-0.53,0-1.047-0.283-1.318-0.784c-0.396-0.728-0.126-1.638,0.604-2.034
		c4.09-2.223,6.531-6.414,6.531-11.212s-2.441-8.989-6.531-11.212c-0.729-0.396-0.998-1.307-0.604-2.034
		c0.396-0.729,1.307-0.995,2.034-0.603c5.071,2.757,8.101,7.934,8.101,13.849S71.188,59.141,66.116,61.896z M68.657,70.396
		c-0.228,0.123-0.474,0.182-0.716,0.182c-0.53,0-1.047-0.283-1.318-0.784c-0.396-0.728-0.126-1.638,0.604-2.034
		c7.196-3.912,11.494-11.281,11.494-19.712s-4.298-15.8-11.494-19.712c-0.729-0.396-0.998-1.307-0.604-2.034
		c0.396-0.729,1.309-0.995,2.034-0.603c8.179,4.447,13.063,12.801,13.063,22.349S76.836,65.95,68.657,70.396z"/>
</g>
</svg>
