<?xml version="1.0" encoding="utf-8"?>
<!-- Generator: Adobe Illustrator 16.0.4, SVG Export Plug-In . SVG Version: 6.00 Build 0)  -->
<!DOCTYPE svg PUBLIC "-//W3C//DTD SVG 1.1//EN" "http://www.w3.org/Graphics/SVG/1.1/DTD/svg11.dtd">
<svg version="1.1" id="Capa_1" xmlns="http://www.w3.org/2000/svg" xmlns:xlink="http://www.w3.org/1999/xlink" x="0px" y="0px"
	 width="100px" height="100px" viewBox="0 0 100 100" enable-background="new 0 0 100 100" xml:space="preserve">
<g id="Layer_7">
	<path d="M66.904,11.177c-0.797-0.491-1.791-0.533-2.629-0.115L33.768,26.349c-0.914,0.459-1.491,1.395-1.491,2.416v0.789H19.598
		c-1.104,0-2,0.896-2,2v34.25c0,1.104,0.896,2,2,2h12.679v1.486c0,0.977,0.528,1.877,1.379,2.355l30.507,17.133
		c0.412,0.229,0.866,0.346,1.321,0.346c0.474,0,0.943-0.124,1.365-0.37c0.828-0.483,1.338-1.373,1.338-2.332V13.478
		C68.188,12.541,67.702,11.669,66.904,11.177z M62.784,81.807L37.68,67.709V30.433l25.104-12.58V81.807z M74.301,61.848
		c-0.228,0.122-0.473,0.182-0.715,0.182c-0.531,0-1.047-0.283-1.318-0.784c-0.396-0.728-0.127-1.638,0.603-2.034
		c4.09-2.223,6.532-6.414,6.532-11.212S76.96,39.01,72.87,36.787c-0.729-0.396-0.998-1.307-0.603-2.034
		c0.396-0.729,1.307-0.995,2.033-0.603c5.072,2.757,8.102,7.934,8.102,13.849S79.374,59.09,74.301,61.848z"/>
</g>
</svg>
