<?xml version="1.0" encoding="utf-8"?>
<!-- Generator: Adobe Illustrator 16.0.0, SVG Export Plug-In . SVG Version: 6.00 Build 0)  -->
<!DOCTYPE svg PUBLIC "-//W3C//DTD SVG 1.1//EN" "http://www.w3.org/Graphics/SVG/1.1/DTD/svg11.dtd">
<svg version="1.1" id="Layer_7" xmlns="http://www.w3.org/2000/svg" xmlns:xlink="http://www.w3.org/1999/xlink" x="0px" y="0px"
	 width="100px" height="100px" viewBox="0 0 100 100" enable-background="new 0 0 100 100" xml:space="preserve">
<path d="M80.599,25.854H73.19l0,0.003h-1.595c-1.469-3.891-5.189-6.682-9.57-6.762c-0.033,0-0.063-0.01-0.096-0.01
	c-0.018,0-0.033,0.003-0.047,0.003c-0.02,0-0.033-0.003-0.049-0.003c-0.033,0-0.063,0.01-0.096,0.01
	c-4.377,0.08-8.061,2.879-9.531,6.762h-1.409v-0.003H12.69c-0.417,0-0.754,0.338-0.754,0.755v46.782
	c0,0.417,0.337,0.754,0.754,0.754h67.909c0.417,0,0.754-0.337,0.754-0.754V26.609C81.354,26.192,81.016,25.854,80.599,25.854z
	 M55.97,38.176c0-0.006,0.004-0.009,0.004-0.016c0-1.035,0.842-1.877,1.877-1.877c1.037,0,1.877,0.842,1.877,1.877v8.923
	c0,1.266,1.027,2.292,2.295,2.292c1.264,0,2.291-1.026,2.291-2.292V38.16c0-3.054-2.131-5.614-4.983-6.285l8.36,0.019V48.9
	c0,3.23-2.627,5.86-5.857,5.86c-3.232,0-5.859-2.63-5.859-5.86V38.19C55.974,38.185,55.97,38.183,55.97,38.176z M61.882,23.674
	c1.818,0.016,3.441,0.865,4.508,2.184h-8.98C58.468,24.543,60.068,23.689,61.882,23.674z M75.317,68.109H17.972v-33.28l28.227,20.7
	c0.267,0.195,0.626,0.195,0.893,0l3.545-2.6C50.23,51.729,50,50.449,50,49.114v-3.205l-3.355,2.461L24.173,31.891l27.016-0.035
	l5.209,0.012c-2.865,0.662-5.008,3.229-5.008,6.292V48.9c0,5.759,4.682,10.445,10.443,10.445c2.069,0,3.994-0.613,5.618-1.655
	l3.167-3.167c1.043-1.625,1.656-3.553,1.656-5.624V31.754h1.575l0.035,0.213v3.912l1.433-1.051V68.109z"/>
</svg>
