<?xml version="1.0" encoding="utf-8"?>
<!-- Generator: Adobe Illustrator 16.0.0, SVG Export Plug-In . SVG Version: 6.00 Build 0)  -->
<!DOCTYPE svg PUBLIC "-//W3C//DTD SVG 1.1//EN" "http://www.w3.org/Graphics/SVG/1.1/DTD/svg11.dtd">
<svg version="1.1" id="Layer_7" xmlns="http://www.w3.org/2000/svg" xmlns:xlink="http://www.w3.org/1999/xlink" x="0px" y="0px"
	 width="100px" height="100px" viewBox="0 0 100 100" enable-background="new 0 0 100 100" xml:space="preserve">
<path d="M50.572,73.403c-0.463-0.772-0.598-1.679-0.382-2.554c0.239-0.957,0.618-1.79,1.089-2.519H21.327V35.05l28.227,20.7
	c0.267,0.195,0.626,0.195,0.893,0l3.035-2.226c-0.023-0.182-0.048-0.362-0.062-0.55c-0.063-0.899,0.229-1.771,0.821-2.453
	c0.593-0.682,1.416-1.093,2.317-1.155l0.239-0.008c0.623,0,1.207,0.179,1.712,0.48L78.673,35.05v15.302
	c0.569,0.815,0.963,1.761,1.12,2.785c1.042,0.622,2.014,1.398,2.902,2.292c0.042-0.008,0.081-0.026,0.125-0.033
	c0.066-0.011,1.011-0.183,1.889-0.704V26.83c0-0.417-0.337-0.755-0.754-0.755H16.045c-0.417,0-0.754,0.338-0.754,0.755v46.782
	c0,0.417,0.337,0.754,0.754,0.754h35.393C51.096,74.107,50.8,73.784,50.572,73.403z M72.471,32.112L50,48.591L27.529,32.112H72.471z
	 M59.455,74.366H55.5c0.604-0.454,1.059-1.105,1.252-1.882c0.21-0.842,1.139-1.322,1.988-1.59
	C58.876,72.097,59.123,73.255,59.455,74.366z M82.729,57.934c0.212-0.035,5.192-0.895,5.492-5.187
	c0.033-0.48,0.448-0.848,0.939-0.818c0.486,0.034,0.854,0.457,0.82,0.941c-0.398,5.698-6.906,6.794-6.971,6.805
	c-0.046,0.007-0.093,0.011-0.14,0.011c-0.434,0-0.799-0.312-0.869-0.741C81.922,58.465,82.249,58.012,82.729,57.934z M62.533,59.686
	c-0.047,0-0.094-0.003-0.141-0.011c-0.063-0.01-6.571-1.106-6.969-6.804c-0.034-0.484,0.333-0.907,0.818-0.94
	c0.5-0.036,0.907,0.338,0.941,0.817c0.299,4.292,5.28,5.152,5.492,5.187c0.479,0.078,0.806,0.531,0.729,1.01
	C63.333,59.374,62.968,59.686,62.533,59.686z M93.382,72.188c-0.121,0.202-0.314,0.345-0.542,0.401
	c-0.069,0.018-0.142,0.026-0.214,0.026c-0.405,0-0.757-0.274-0.855-0.667c-0.882-3.528-5.775-3.798-5.824-3.8
	c-0.234-0.01-0.452-0.11-0.611-0.284c-0.159-0.174-0.242-0.398-0.232-0.634c0.02-0.474,0.404-0.845,0.875-0.845l0.046,0.001
	c0.251,0.01,6.252,0.315,7.457,5.134C93.539,71.75,93.503,71.986,93.382,72.188z M59.662,68.148c-0.048,0.003-4.946,0.284-5.825,3.8
	c-0.098,0.393-0.45,0.667-0.855,0.667c-0.072,0-0.145-0.009-0.214-0.026c-0.229-0.057-0.421-0.199-0.542-0.401
	s-0.156-0.439-0.1-0.667c1.205-4.819,7.206-5.124,7.46-5.134l0.037,0c0.474,0,0.861,0.371,0.881,0.843
	C60.525,67.715,60.147,68.127,59.662,68.148z M62.886,60.812l-0.349-0.159l0.188-0.334c1.434-2.557,3.518-4.525,5.891-5.572
	c-0.022-0.176-0.034-0.352-0.034-0.527c0-2.288,1.861-4.149,4.149-4.149s4.149,1.861,4.149,4.149c0,0.175-0.011,0.351-0.033,0.527
	c2.489,1.098,4.642,3.193,6.084,5.929l0.165,0.313l-0.314,0.164c-2.704,1.407-5.722,2.12-8.969,2.12h0
	C69.004,63.272,64.903,61.73,62.886,60.812z M84.853,68.679c0,8.167-5.438,14.811-12.123,14.811s-12.123-6.645-12.123-14.811
	c0-2.468,0.509-4.913,1.47-7.071l0.145-0.325l0.324,0.148c0.69,0.314,4.367,1.91,8.989,2.405l-0.019,0.346l0.318-0.044
	c0.009,0.066,0.59,4.333,0.985,9.365c0.25-3.165,0.674-6.575,1.395-9.355l0.062-0.24l0.247-0.022
	c2.652-0.243,6.287-0.916,8.534-2.078l0.34-0.176l0.147,0.354C84.414,64.072,84.853,66.324,84.853,68.679z M64.005,80.314
	c0.118,0.471-0.169,0.951-0.64,1.069c-0.046,0.012-4.73,1.272-5.338,5.444c-0.062,0.43-0.438,0.754-0.872,0.754
	c-0.042,0-0.085-0.003-0.128-0.009c-0.48-0.07-0.815-0.518-0.745-1c0.782-5.372,6.414-6.84,6.654-6.899
	c0.07-0.018,0.143-0.027,0.215-0.027C63.556,79.646,63.907,79.92,64.005,80.314z M89.326,86.572c0.069,0.481-0.265,0.93-0.746,1
	c-0.042,0.006-0.085,0.009-0.127,0.009c-0.435,0-0.809-0.325-0.872-0.755c-0.609-4.186-5.29-5.431-5.337-5.443
	c-0.228-0.057-0.42-0.199-0.542-0.401c-0.121-0.202-0.156-0.439-0.099-0.667c0.116-0.464,0.604-0.759,1.07-0.641
	C82.911,79.732,88.543,81.2,89.326,86.572z"/>
</svg>
