<?xml version="1.0" encoding="utf-8"?>
<!-- Generator: Adobe Illustrator 16.0.0, SVG Export Plug-In . SVG Version: 6.00 Build 0)  -->
<!DOCTYPE svg PUBLIC "-//W3C//DTD SVG 1.1//EN" "http://www.w3.org/Graphics/SVG/1.1/DTD/svg11.dtd">
<svg version="1.1" id="Layer_7" xmlns="http://www.w3.org/2000/svg" xmlns:xlink="http://www.w3.org/1999/xlink" x="0px" y="0px"
	 width="100px" height="100px" viewBox="0 0 100 100" enable-background="new 0 0 100 100" xml:space="preserve">
<path d="M60.261,70.323l0.891-0.083c-0.8-0.519-1.471-1.214-1.982-2.02H21.438v-33.28l28.227,20.7c0.267,0.195,0.626,0.195,0.893,0
	l28.227-20.7v18.592c0.852-0.608,1.889-0.973,3.013-0.973c1.13,0,2.169,0.371,3.023,0.985V26.72c0-0.417-0.337-0.755-0.754-0.755
	H16.156c-0.417,0-0.754,0.338-0.754,0.755v46.782c0,0.417,0.337,0.754,0.754,0.754h32.77c0.456-3.276,3.268-5.809,6.667-5.809
	C57.386,68.447,59.04,69.149,60.261,70.323z M72.582,32.001L50.11,48.48L27.639,32.001H72.582z M96.999,74.129
	c0,0.89-0.723,1.611-1.611,1.611c-0.759,0-1.391-0.526-1.563-1.232l-9.562-1.377c-0.245,0.893-0.619,1.731-1.108,2.49l4.762,3.016
	c0.53-0.59,1.298-0.964,2.154-0.964c1.602,0,2.899,1.299,2.899,2.9c0,1.602-1.298,2.899-2.899,2.899s-2.9-1.297-2.9-2.899
	c0-0.398,0.08-0.777,0.226-1.122l-4.806-3.044c-1.195,1.479-2.848,2.564-4.741,3.059l0.856,5.304
	c1.123,0.039,2.021,0.955,2.021,2.086c0,1.157-0.938,2.095-2.095,2.095c-1.156,0-2.094-0.938-2.094-2.095
	c0-0.843,0.502-1.565,1.22-1.897l-0.856-5.299c-0.436,0.064-0.877,0.108-1.33,0.108c-1.225,0-2.391-0.249-3.455-0.692L68.28,89.481
	c0.233,0.22,0.381,0.53,0.381,0.876c0,0.668-0.541,1.209-1.209,1.209c-0.666,0-1.207-0.541-1.207-1.209
	c0-0.639,0.497-1.156,1.125-1.2l3.869-10.5c-0.783-0.43-1.495-0.972-2.115-1.606l-5.959,4.353c-0.014,0.788-0.656,1.425-1.448,1.425
	c-0.801,0-1.45-0.649-1.45-1.45s0.649-1.45,1.45-1.45c0.447,0,0.843,0.207,1.108,0.525l5.661-4.135
	c-0.868-1.102-1.487-2.408-1.767-3.838l-8.831,0.828c-0.153,1.367-1.313,2.431-2.72,2.431c-1.514,0-2.74-1.227-2.74-2.739
	c0-1.513,1.227-2.74,2.74-2.74c1.285,0,2.361,0.888,2.655,2.083l8.765-0.824c-0.021-0.255-0.039-0.513-0.039-0.774
	c0-1.784,0.525-3.443,1.418-4.843l-1.949-1.469c-0.457,0.414-1.059,0.674-1.725,0.674c-1.424,0-2.577-1.154-2.577-2.578
	s1.153-2.578,2.577-2.578c1.426,0,2.579,1.154,2.579,2.578c0,0.408-0.104,0.789-0.272,1.132l1.928,1.453
	c1.225-1.529,2.938-2.645,4.901-3.125l-1.805-10.278c-0.685-0.115-1.208-0.708-1.208-1.426c0-0.801,0.648-1.45,1.449-1.45
	s1.449,0.649,1.449,1.45c0,0.541-0.299,1.006-0.738,1.256l1.803,10.27c0.391-0.052,0.787-0.088,1.191-0.088
	c1.02,0,1.996,0.173,2.91,0.486l2.063-5.751c-0.233-0.22-0.381-0.53-0.381-0.876c0-0.668,0.541-1.209,1.209-1.209
	c0.666,0,1.207,0.541,1.207,1.209c0,0.639-0.497,1.156-1.125,1.2l-2.075,5.79c1.396,0.655,2.599,1.654,3.496,2.893l6.427-3.673
	c-0.072-0.225-0.121-0.461-0.121-0.711c0-1.293,1.047-2.341,2.34-2.341s2.342,1.048,2.342,2.341c0,1.292-1.049,2.34-2.342,2.34
	c-0.695,0-1.312-0.308-1.74-0.789l-6.379,3.645c0.754,1.318,1.191,2.842,1.191,4.47c0,0.491-0.05,0.968-0.125,1.438l9.422,1.357
	c0.236-0.598,0.816-1.023,1.498-1.023C96.276,72.519,96.999,73.239,96.999,74.129z"/>
</svg>
