<?xml version="1.0" encoding="utf-8"?>
<!-- Generator: Adobe Illustrator 16.0.0, SVG Export Plug-In . SVG Version: 6.00 Build 0)  -->
<!DOCTYPE svg PUBLIC "-//W3C//DTD SVG 1.1//EN" "http://www.w3.org/Graphics/SVG/1.1/DTD/svg11.dtd">
<svg version="1.1" id="Layer_7" xmlns="http://www.w3.org/2000/svg" xmlns:xlink="http://www.w3.org/1999/xlink" x="0px" y="0px"
	 width="100px" height="100px" viewBox="0 0 100 100" enable-background="new 0 0 100 100" xml:space="preserve">
<path d="M83.955,37.453h-0.473l-7.615-6.628l-4.245,4.245l5.5,4.784l-4.651,3.636L50,59.969L27.529,43.489l-4.525-3.399l5.419-4.75
	v-8.086l-11.717,10.2h-0.661c-0.416,0-0.754,0.338-0.754,0.755v46.781c0,0.417,0.338,0.755,0.754,0.755h67.91
	c0.416,0,0.754-0.338,0.754-0.755V38.208C84.708,37.791,84.371,37.453,83.955,37.453z M78.672,79.708H21.327v-33.28l28.227,20.7
	c0.267,0.194,0.626,0.194,0.893,0l28.227-20.7V79.708z M45.542,20.333h-9.17L50.093,8.389l13.722,11.945H54.68l-4.587-3.99
	L45.542,20.333z M32.918,44.512l-3.034-2.537V21.869h37.92v0.97c-0.885,0.601-1.881,1.37-3.033,2.375v-0.311H32.918V44.512z
	 M70.902,25.628l0.345-0.346c0.674-0.674,1.665-0.833,2.493-0.484l1.242-1.243l1.877,1.877l-1.224,1.225
	c0.394,0.842,0.251,1.874-0.445,2.57L56.689,47.728c-0.529,0.53-1.256,0.736-1.944,0.634c-2.155,1.516-3.792,2.21-4.318,1.684
	c-0.526-0.526,0.169-2.163,1.684-4.318c-0.103-0.688,0.104-1.415,0.634-1.944l16.404-16.405c-1.276,0.609-3.686,2.286-8.029,6.778
	c-0.283,0.27-0.771,0.309-1.072,0.018c-0.302-0.291-0.31-0.771-0.019-1.072C67.234,25.654,69.699,25.222,70.902,25.628z"/>
</svg>
