<?xml version="1.0" encoding="utf-8"?>
<!-- Generator: Adobe Illustrator 16.0.0, SVG Export Plug-In . SVG Version: 6.00 Build 0)  -->
<!DOCTYPE svg PUBLIC "-//W3C//DTD SVG 1.1//EN" "http://www.w3.org/Graphics/SVG/1.1/DTD/svg11.dtd">
<svg version="1.1" id="Layer_7" xmlns="http://www.w3.org/2000/svg" xmlns:xlink="http://www.w3.org/1999/xlink" x="0px" y="0px"
	 width="100px" height="100px" viewBox="0 0 100 100" enable-background="new 0 0 100 100" xml:space="preserve">
<path d="M80.519,28.813L59.069,7.363c-0.191-0.191-0.501-0.19-0.691,0L27.24,38.5c-0.189,0.19-0.189,0.5,0.001,0.69l10.057,10.056
	c-6.803,1.015-12.018,2.869-12.317,5.487c-0.014,0.046-0.021,0.096-0.021,0.147v5.376c0,0.184,0.095,0.357,0.251,0.456l18.354,11.57
	v19.96c0,0.169,0.08,0.332,0.218,0.433c0.094,0.069,0.207,0.105,0.32,0.105c0.053,0,0.104-0.006,0.157-0.023l12.244-3.763
	c0.227-0.07,0.38-0.277,0.38-0.515V72.282l18.355-11.57c0.157-0.099,0.251-0.271,0.251-0.456v-5.376c0-0.048-0.006-0.097-0.02-0.143
	c-0.324-2.884-6.604-4.844-14.412-5.774l19.46-19.459C80.71,29.314,80.71,29.003,80.519,28.813z M55.879,15.396l-2.746,17.858
	l-17.857,2.747L55.879,15.396z M29.461,54.253c0-0.805,3.43-2.087,10.046-2.797l6.026,6.025
	C34.967,57.072,29.461,55.274,29.461,54.253z M70.585,54.253c0,0.14-0.217,0.421-0.737,0.713c-2.144,0.699-4.104,1.212-5.993,1.568
	c-0.909,0.17-1.843,0.315-2.758,0.452c-2.632,0.302-5.571,0.484-8.61,0.55l6.25-6.251C66.53,51.939,70.585,53.379,70.585,54.253z
	 M49.037,55.451L33.779,40.192l22.432-3.451c0.211-0.033,0.376-0.198,0.409-0.41l3.45-22.433l15.26,15.259L49.037,55.451z"/>
</svg>
