<?xml version="1.0" encoding="utf-8"?>
<!-- Generator: Adobe Illustrator 16.0.0, SVG Export Plug-In . SVG Version: 6.00 Build 0)  -->
<!DOCTYPE svg PUBLIC "-//W3C//DTD SVG 1.1//EN" "http://www.w3.org/Graphics/SVG/1.1/DTD/svg11.dtd">
<svg version="1.1" id="Layer_7" xmlns="http://www.w3.org/2000/svg" xmlns:xlink="http://www.w3.org/1999/xlink" x="0px" y="0px"
	 width="100px" height="100px" viewBox="0 0 100 100" enable-background="new 0 0 100 100" xml:space="preserve">
<path d="M83.955,41.008h-0.473L64.309,24.318l3.655,4.754c0.568,0.733,0.886,1.662,0.886,2.604c0,0.931-0.294,1.815-0.85,2.561
	c-0.19,0.252-0.415,0.469-0.653,0.668l9.775,8.503l-4.651,3.637L50,63.523L27.529,47.045l-4.525-3.4l9.807-8.596
	c-0.298-0.229-0.569-0.494-0.799-0.799c-1.156-1.534-1.144-3.666,0.03-5.185l3.27-4.254L16.706,41.008h-0.661
	c-0.416,0-0.754,0.338-0.754,0.755v46.782c0,0.417,0.338,0.754,0.754,0.754h67.91c0.416,0,0.754-0.337,0.754-0.754V41.763
	C84.709,41.346,84.371,41.008,83.955,41.008z M78.673,83.263H21.327v-33.28l28.227,20.7c0.267,0.195,0.626,0.195,0.893,0
	l28.227-20.7V83.263z M34.811,29.963l14.576-18.961c0.146-0.189,0.373-0.301,0.613-0.301s0.467,0.111,0.613,0.301l14.576,18.961
	c0.107,0.139,0.16,0.307,0.16,0.471s-0.051,0.328-0.154,0.467c-0.209,0.277-0.578,0.381-0.902,0.252l-9.652-3.811v22.344
	c0,0.428-0.346,0.773-0.773,0.773h-7.734c-0.426,0-0.771-0.346-0.771-0.773V27.342l-9.654,3.811c-0.322,0.129-0.691,0.025-0.9-0.252
	S34.598,30.238,34.811,29.963z"/>
</svg>
