<?xml version="1.0" encoding="utf-8"?>
<!-- Generator: Adobe Illustrator 16.0.0, SVG Export Plug-In . SVG Version: 6.00 Build 0)  -->
<!DOCTYPE svg PUBLIC "-//W3C//DTD SVG 1.1//EN" "http://www.w3.org/Graphics/SVG/1.1/DTD/svg11.dtd">
<svg version="1.1" id="Layer_7" xmlns="http://www.w3.org/2000/svg" xmlns:xlink="http://www.w3.org/1999/xlink" x="0px" y="0px"
	 width="100px" height="100px" viewBox="0 0 100 100" enable-background="new 0 0 100 100" xml:space="preserve">
<path d="M67.04,39.875H11.182c-0.341,0-0.618,0.278-0.618,0.621v38.477c0,0.343,0.277,0.621,0.618,0.621H67.04
	c0.342,0,0.621-0.278,0.621-0.621V40.496C67.661,40.153,67.382,39.875,67.04,39.875z M57.594,44.839L39.111,58.394L20.63,44.839
	H57.594z M62.695,74.63H15.528V47.256l23.216,17.026c0.22,0.16,0.516,0.16,0.735,0l23.216-17.026V74.63z M89.437,21.027v38.477
	c0,0.343-0.279,0.621-0.62,0.621H70.939v-4.964h13.531V27.788L71.404,37.37h-8.396l16.361-12H42.405l16.362,12H50.37l-13.066-9.582
	v9.582h-4.965V21.027c0-0.343,0.277-0.621,0.618-0.621h55.859C89.157,20.406,89.437,20.684,89.437,21.027z"/>
</svg>
