<?xml version="1.0" encoding="utf-8"?>
<!-- Generator: Adobe Illustrator 16.0.0, SVG Export Plug-In . SVG Version: 6.00 Build 0)  -->
<!DOCTYPE svg PUBLIC "-//W3C//DTD SVG 1.1//EN" "http://www.w3.org/Graphics/SVG/1.1/DTD/svg11.dtd">
<svg version="1.1" id="Layer_6" xmlns="http://www.w3.org/2000/svg" xmlns:xlink="http://www.w3.org/1999/xlink" x="0px" y="0px"
	 width="100px" height="100px" viewBox="0 0 100 100" enable-background="new 0 0 100 100" xml:space="preserve">
<path d="M90.27,53.486l-2.486,0.713v9.539h-7.164l-5.362-6.766H62.955v9.037c0,1.205-0.458,2.182-1.023,2.182L47.922,56.973H27.025
	c-0.245,0-0.488-0.004-0.73-0.008v-13.93c0.242-0.004,0.485-0.008,0.73-0.008h21.722l13.184-11.219c0.565,0,1.023,0.977,1.023,2.184
	v9.035h11.535l6.13-7.781h7.164v10.676l2.486,0.744C91.941,50.201,90.27,53.486,90.27,53.486z M8.987,50
	c0,3.477,6.214,6.359,14.341,6.887V43.115C15.202,43.643,8.987,46.523,8.987,50z"/>
</svg>
