<?xml version="1.0" encoding="utf-8"?>
<!-- Generator: Adobe Illustrator 16.0.0, SVG Export Plug-In . SVG Version: 6.00 Build 0)  -->
<!DOCTYPE svg PUBLIC "-//W3C//DTD SVG 1.1//EN" "http://www.w3.org/Graphics/SVG/1.1/DTD/svg11.dtd">
<svg version="1.1" id="Layer_4" xmlns="http://www.w3.org/2000/svg" xmlns:xlink="http://www.w3.org/1999/xlink" x="0px" y="0px"
	 width="100px" height="100px" viewBox="0 0 100 100" enable-background="new 0 0 100 100" xml:space="preserve">
<path d="M54.701,51.756c0-0.971,0.787-1.756,1.756-1.756c0.97,0,1.757,0.785,1.757,1.756s-0.787,1.756-1.757,1.756
	C55.487,53.512,54.701,52.727,54.701,51.756z M91.327,40.289v19.422c0,0.686-0.556,1.24-1.24,1.24H9.913
	c-0.685,0-1.24-0.555-1.24-1.24V40.289c0-0.686,0.556-1.24,1.24-1.24h13.225v6.922h2.479v-6.922h4.442v6.922h2.479v-6.922h4.753
	v6.922h2.479v-6.922h50.315C90.771,39.049,91.327,39.604,91.327,40.289z M63.483,46.074h16.685v-3.102H63.483V46.074z
	 M80.582,48.916H20.245v5.578h60.336V48.916z M65.239,53.512c0.97,0,1.757-0.785,1.757-1.756S66.209,50,65.239,50
	s-1.756,0.785-1.756,1.756S64.269,53.512,65.239,53.512z M74.538,53.512c0.97,0,1.756-0.785,1.756-1.756S75.508,50,74.538,50
	s-1.757,0.785-1.757,1.756S73.568,53.512,74.538,53.512z"/>
</svg>
