<?xml version="1.0" encoding="utf-8"?>
<!-- Generator: Adobe Illustrator 16.0.0, SVG Export Plug-In . SVG Version: 6.00 Build 0)  -->
<!DOCTYPE svg PUBLIC "-//W3C//DTD SVG 1.1//EN" "http://www.w3.org/Graphics/SVG/1.1/DTD/svg11.dtd">
<svg version="1.1" id="Layer_4" xmlns="http://www.w3.org/2000/svg" xmlns:xlink="http://www.w3.org/1999/xlink" x="0px" y="0px"
	 width="100px" height="100px" viewBox="0 0 100 100" enable-background="new 0 0 100 100" xml:space="preserve">
<path d="M82.777,67.418V25.549H17.223v41.869h24.883v3.117c-7.018,0.333-11.867,1.035-11.867,1.854
	c0,1.139,9.398,2.063,20.995,2.063s20.995-0.924,20.995-2.063c0-0.91-6.006-1.68-14.334-1.954v-3.017H82.777z M21.528,63.83V28.779
	H78.47V63.83H21.528z M62.607,53.793c-0.444,0.623-0.931,1.226-1.49,1.785c-5.428,5.427-14.227,5.427-19.654,0
	c-5.428-5.428-5.428-14.228,0-19.655c0.559-0.56,1.162-1.047,1.785-1.49c-3.866,5.427-3.378,13.001,1.49,17.869
	S57.181,57.657,62.607,53.793z"/>
</svg>
