<?xml version="1.0" encoding="utf-8"?>
<!-- Generator: Adobe Illustrator 16.0.0, SVG Export Plug-In . SVG Version: 6.00 Build 0)  -->
<!DOCTYPE svg PUBLIC "-//W3C//DTD SVG 1.1//EN" "http://www.w3.org/Graphics/SVG/1.1/DTD/svg11.dtd">
<svg version="1.1" id="Layer_4" xmlns="http://www.w3.org/2000/svg" xmlns:xlink="http://www.w3.org/1999/xlink" x="0px" y="0px"
	 width="100px" height="100px" viewBox="0 0 100 100" enable-background="new 0 0 100 100" xml:space="preserve">
<path d="M85.345,67.418V25.549H19.79v41.869h24.883v3.117c-7.018,0.333-11.867,1.035-11.867,1.854c0,1.139,9.398,2.063,20.995,2.063
	s20.995-0.924,20.995-2.063c0-0.91-6.006-1.68-14.334-1.954v-3.017H85.345z M24.096,63.83V28.779h56.941V63.83H24.096z
	 M40.477,40.02h-1.772c1.991-4.675,6.307-8.131,11.488-8.903c0.72-0.107,1.456-0.163,2.205-0.163c6.143,0,11.426,3.742,13.693,9.066
	h-1.773c-1.191-2.43-3.097-4.447-5.449-5.767c0.066,0.061,0.134,0.122,0.193,0.183c2.539,2.537,1.288,2.808,1.583,5.584H47.913
	c-0.08-2.147-0.348-4.293-2.206-5.64C43.455,35.7,41.629,37.665,40.477,40.02z M59.436,49.824h7.282
	c-1.751,6.266-7.503,10.879-14.32,10.879c-6.818,0-12.575-4.611-14.325-10.879h4.35c0.871,0.995,1.863,1.979,1.785,3.018
	c-0.11,1.482-1.218,1.564-2.326,1.062c1.264,1.64,2.898,2.98,4.78,3.886c-0.309-1.253-0.746-2.657-0.354-3.889
	c0.404-1.281,1.591-2.616,3.066-2.412c0.63,0.088,1.036,0.473,1.516,0.851c0.521,0.41,1.312,0.074,1.918,0.094
	c1.522,0.051,1.784,1.694,1.89,2.882c0.077,0.872,0.884,1.592,0.661,2.504c-0.1,0.408-0.313,0.819-0.653,1.072
	c2.42-0.427,4.613-1.51,6.393-3.059c-0.616-1.541-2.392-2.484-2.236-4.513C58.931,50.656,59.136,50.177,59.436,49.824z
	 M34.058,49.217h37.019v-7.775H34.058V49.217z M35.41,42.794h34.313v5.071H35.41V42.794z M37.159,44.014h9.869v2.719h-9.869V44.014z
	"/>
</svg>
