<?xml version="1.0" encoding="utf-8"?>
<!-- Generator: Adobe Illustrator 16.0.4, SVG Export Plug-In . SVG Version: 6.00 Build 0)  -->
<!DOCTYPE svg PUBLIC "-//W3C//DTD SVG 1.1//EN" "http://www.w3.org/Graphics/SVG/1.1/DTD/svg11.dtd">
<svg version="1.1" id="Capa_1" xmlns="http://www.w3.org/2000/svg" xmlns:xlink="http://www.w3.org/1999/xlink" x="0px" y="0px"
	 width="100px" height="100px" viewBox="0 0 100 100" enable-background="new 0 0 100 100" xml:space="preserve">
<g id="Layer_7">
	<path d="M79.223,66.109c1.15,3.722-1.152,8.271-5.611,10.643c-4.913,2.611-10.568,1.584-12.629-2.295
		c-2.062-3.879,0.25-9.141,5.162-11.751c2.508-1.333,5.207-1.713,7.524-1.255l-0.112-40.695l-32.781,5.726L40.771,73.07
		c1.129,3.716-1.173,8.248-5.621,10.611c-4.913,2.611-10.567,1.586-12.629-2.293c-2.061-3.88,0.25-9.142,5.163-11.753
		c2.511-1.335,5.213-1.715,7.533-1.253l0.007-46.675L79.366,14L79.223,66.109z"/>
</g>
</svg>
