<?xml version="1.0" encoding="utf-8"?>
<!-- Generator: Adobe Illustrator 16.0.0, SVG Export Plug-In . SVG Version: 6.00 Build 0)  -->
<!DOCTYPE svg PUBLIC "-//W3C//DTD SVG 1.1//EN" "http://www.w3.org/Graphics/SVG/1.1/DTD/svg11.dtd">
<svg version="1.1" id="Layer_7" xmlns="http://www.w3.org/2000/svg" xmlns:xlink="http://www.w3.org/1999/xlink" x="0px" y="0px"
	 width="100px" height="100px" viewBox="0 0 100 100" enable-background="new 0 0 100 100" xml:space="preserve">
<path d="M90.759,67.65v1.577c0,0.871-0.707,1.578-1.578,1.578H73.93v3.155c0,0.871-0.707,1.578-1.578,1.578H27.847
	c-0.871,0-1.578-0.707-1.578-1.578v-3.155H10.819c-0.872,0-1.578-0.707-1.578-1.578V67.65c0-0.872,0.706-1.578,1.578-1.578h15.449
	v-3.944c0-0.871,0.707-1.577,1.578-1.577h15.679V40.696c0-0.871,0.706-1.577,1.577-1.577h2.53v-13.08
	c0-0.871,0.708-1.578,1.578-1.578h1.577c0.873,0,1.578,0.707,1.578,1.578v13.08h2.729c0.872,0,1.578,0.706,1.578,1.577v19.854
	h15.679c0.871,0,1.578,0.706,1.578,1.577v3.944h15.251C90.052,66.072,90.759,66.778,90.759,67.65z"/>
</svg>
