<?xml version="1.0" encoding="utf-8"?>
<!-- Generator: Adobe Illustrator 16.0.0, SVG Export Plug-In . SVG Version: 6.00 Build 0)  -->
<!DOCTYPE svg PUBLIC "-//W3C//DTD SVG 1.1//EN" "http://www.w3.org/Graphics/SVG/1.1/DTD/svg11.dtd">
<svg version="1.1" id="Layer_4" xmlns="http://www.w3.org/2000/svg" xmlns:xlink="http://www.w3.org/1999/xlink" x="0px" y="0px"
	 width="100px" height="100px" viewBox="0 0 100 100" enable-background="new 0 0 100 100" xml:space="preserve">
<path d="M36.454,34.815h6.029v6.333h-6.029V34.815z M36.454,52.75h6.029v-6.334h-6.029V52.75z M73.689,29.396v41.209
	c0,1.94-1.578,3.518-3.518,3.518H29.83c-1.941,0-3.519-1.578-3.519-3.518V29.396c0-1.94,1.578-3.518,3.519-3.518h40.341
	C72.111,25.877,73.689,27.456,73.689,29.396z M48.372,34.797c0-1.387-0.594-2.606-1.781-3.656c-1.187-1.05-2.557-1.574-4.107-1.574
	h-6.01c-1.564,0-2.938,0.524-4.117,1.574c-1.181,1.05-1.771,2.274-1.771,3.674v4.705c0,0.99,0.212,1.774,0.638,2.354
	c0.424,0.579,0.961,1.219,1.608,1.918c-0.647,0.688-1.185,1.321-1.608,1.9c-0.426,0.579-0.638,1.363-0.638,2.353v4.724
	c0,1.412,0.59,2.637,1.771,3.674c1.18,1.037,2.553,1.557,4.117,1.557h6.01c1.551,0,2.921-0.52,4.107-1.557
	c1.188-1.037,1.781-2.262,1.781-3.674v-4.724c0-0.978-0.219-1.759-0.658-2.343c-0.438-0.586-0.98-1.223-1.629-1.91
	c0.648-0.699,1.191-1.339,1.629-1.918c0.439-0.579,0.658-1.369,0.658-2.371V34.797z M83.096,22.653v54.693
	c0,3.493-2.833,6.325-6.325,6.325H23.229c-3.492,0-6.325-2.832-6.325-6.325V22.653c0-3.493,2.833-6.325,6.325-6.325h53.542
	C80.263,16.329,83.096,19.161,83.096,22.653z M76.183,29.396c0-3.314-2.697-6.012-6.012-6.012H29.83
	c-3.315,0-6.013,2.697-6.013,6.012v41.209c0,3.314,2.697,6.012,6.013,6.012h40.341c3.314,0,6.012-2.697,6.012-6.012V29.396z"/>
</svg>
