<?xml version="1.0" encoding="utf-8"?>
<!-- Generator: Adobe Illustrator 16.0.0, SVG Export Plug-In . SVG Version: 6.00 Build 0)  -->
<!DOCTYPE svg PUBLIC "-//W3C//DTD SVG 1.1//EN" "http://www.w3.org/Graphics/SVG/1.1/DTD/svg11.dtd">
<svg version="1.1" id="Layer_4" xmlns="http://www.w3.org/2000/svg" xmlns:xlink="http://www.w3.org/1999/xlink" x="0px" y="0px"
	 width="100px" height="100px" viewBox="0 0 100 100" enable-background="new 0 0 100 100" xml:space="preserve">
<path d="M70.171,25.877H29.83c-1.941,0-3.52,1.578-3.52,3.518v41.209c0,1.94,1.578,3.518,3.52,3.518h40.341
	c1.94,0,3.519-1.578,3.519-3.518V29.396C73.689,27.456,72.111,25.877,70.171,25.877z M49.321,41.021c0,0.99-0.22,1.774-0.657,2.353
	c-0.439,0.579-0.969,1.219-1.589,1.918c0.62,0.688,1.149,1.321,1.589,1.9c0.438,0.579,0.657,1.363,0.657,2.353v4.724
	c0,1.412-0.594,2.636-1.78,3.674c-1.188,1.038-2.557,1.556-4.107,1.556h-6.03c-1.565,0-2.935-0.519-4.108-1.556
	c-1.173-1.038-1.76-2.256-1.76-3.656v-2.334h5.868v2.298h6.03v-6.334h-6.436v-5.267h6.436v-6.334h-6.03v2.135h-5.868v-2.135
	c0-1.399,0.594-2.624,1.781-3.674c1.186-1.05,2.563-1.574,4.127-1.574h5.99c1.551,0,2.92,0.524,4.107,1.574
	c1.187,1.05,1.78,2.269,1.78,3.656V41.021z M76.771,16.329H23.229c-3.492,0-6.324,2.832-6.324,6.325v54.693
	c0,3.493,2.832,6.325,6.324,6.325h53.543c3.492,0,6.324-2.832,6.324-6.325V22.653C83.096,19.161,80.264,16.329,76.771,16.329z
	 M76.183,70.604c0,3.314-2.697,6.012-6.012,6.012H29.83c-3.315,0-6.013-2.697-6.013-6.012V29.396c0-3.314,2.697-6.012,6.013-6.012
	h40.341c3.314,0,6.012,2.697,6.012,6.012V70.604z"/>
</svg>
