<?xml version="1.0" encoding="utf-8"?>
<!-- Generator: Adobe Illustrator 16.0.0, SVG Export Plug-In . SVG Version: 6.00 Build 0)  -->
<!DOCTYPE svg PUBLIC "-//W3C//DTD SVG 1.1//EN" "http://www.w3.org/Graphics/SVG/1.1/DTD/svg11.dtd">
<svg version="1.1" id="Layer_4" xmlns="http://www.w3.org/2000/svg" xmlns:xlink="http://www.w3.org/1999/xlink" x="0px" y="0px"
	 width="100px" height="100px" viewBox="0 0 100 100" enable-background="new 0 0 100 100" xml:space="preserve">
<path d="M70.171,25.877H29.83c-1.941,0-3.519,1.578-3.519,3.518v41.209c0,1.94,1.578,3.518,3.519,3.518h40.341
	c1.94,0,3.518-1.578,3.518-3.518V29.396C73.689,27.456,72.111,25.877,70.171,25.877z M48.667,52.901
	c0,1.412-0.594,2.637-1.779,3.674c-1.188,1.037-2.557,1.557-4.108,1.557h-5.868c-1.564,0-2.938-0.52-4.117-1.557
	c-1.181-1.037-1.771-2.262-1.771-3.674v-2.316h5.727v2.299H42.8v-6.334h-6.091c-1.565,0-2.931-0.52-4.098-1.557
	c-1.167-1.038-1.75-2.256-1.75-3.656V34.93c0-1.387,0.59-2.606,1.771-3.656c1.18-1.05,2.553-1.574,4.117-1.574h5.99
	c1.551,0,2.927,0.528,4.127,1.583c1.201,1.056,1.801,2.283,1.801,3.683V52.901z M36.749,34.948H42.8v6.333h-6.051V34.948z
	 M76.771,16.329H23.229c-3.492,0-6.325,2.832-6.325,6.325v54.693c0,3.493,2.833,6.325,6.325,6.325h53.542
	c3.492,0,6.325-2.832,6.325-6.325V22.653C83.096,19.161,80.263,16.329,76.771,16.329z M76.183,70.604
	c0,3.314-2.697,6.012-6.012,6.012H29.83c-3.315,0-6.013-2.697-6.013-6.012V29.396c0-3.314,2.697-6.012,6.013-6.012h40.341
	c3.314,0,6.012,2.697,6.012,6.012V70.604z"/>
</svg>
