<?xml version="1.0" encoding="utf-8"?>
<!-- Generator: Adobe Illustrator 16.0.0, SVG Export Plug-In . SVG Version: 6.00 Build 0)  -->
<!DOCTYPE svg PUBLIC "-//W3C//DTD SVG 1.1//EN" "http://www.w3.org/Graphics/SVG/1.1/DTD/svg11.dtd">
<svg version="1.1" id="Layer_6" xmlns="http://www.w3.org/2000/svg" xmlns:xlink="http://www.w3.org/1999/xlink" x="0px" y="0px"
	 width="100px" height="100px" viewBox="0 0 100 100" enable-background="new 0 0 100 100" xml:space="preserve">
<path d="M74.531,43.775h-0.75l1.463-10.667c0.775-5.657-0.697-11.277-4.15-15.825c-3.451-4.548-8.467-7.48-14.123-8.256
	c-7.166-0.982-14.285,1.692-19.039,7.155c-1.461,1.678-1.283,4.221,0.393,5.682c1.68,1.459,4.223,1.284,5.684-0.394
	c2.963-3.407,7.4-5.075,11.869-4.463c7.275,0.998,12.385,7.73,11.387,15.007l-1.613,11.76H25.469c-1.711,0-3.098,1.387-3.098,3.098
	v41.202c0,1.71,1.387,3.098,3.098,3.098h49.063c1.711,0,3.098-1.387,3.098-3.098V46.873C77.629,45.162,76.242,43.775,74.531,43.775z
	 M53.646,74.645v11.457h-7.564V74.334c-0.686-0.858-1.098-1.942-1.098-3.125c0-2.77,2.246-5.015,5.016-5.015
	s5.016,2.246,5.016,5.015C55.016,72.54,54.492,73.747,53.646,74.645z"/>
</svg>
