<?xml version="1.0" encoding="utf-8"?>
<!-- Generator: Adobe Illustrator 16.0.0, SVG Export Plug-In . SVG Version: 6.00 Build 0)  -->
<!DOCTYPE svg PUBLIC "-//W3C//DTD SVG 1.1//EN" "http://www.w3.org/Graphics/SVG/1.1/DTD/svg11.dtd">
<svg version="1.1" id="Layer_7" xmlns="http://www.w3.org/2000/svg" xmlns:xlink="http://www.w3.org/1999/xlink" x="0px" y="0px"
	 width="100px" height="100px" viewBox="0 0 100 100" enable-background="new 0 0 100 100" xml:space="preserve">
<path d="M83.955,40.387h-0.473L50.094,11.322L16.706,40.387h-0.661c-0.416,0-0.754,0.338-0.754,0.755v46.781
	c0,0.417,0.338,0.755,0.754,0.755h67.91c0.416,0,0.754-0.338,0.754-0.755V41.142C84.709,40.725,84.371,40.387,83.955,40.387z
	 M50.094,19.277l27.028,23.51l-4.651,3.636L50,62.902L27.529,46.423l-4.525-3.399L50.094,19.277z M78.673,82.642H21.327v-33.28
	l28.227,20.7c0.267,0.194,0.626,0.194,0.893,0l28.227-20.7V82.642z"/>
</svg>
