<?xml version="1.0" encoding="utf-8"?>
<!-- Generator: Adobe Illustrator 16.0.0, SVG Export Plug-In . SVG Version: 6.00 Build 0)  -->
<!DOCTYPE svg PUBLIC "-//W3C//DTD SVG 1.1//EN" "http://www.w3.org/Graphics/SVG/1.1/DTD/svg11.dtd">
<svg version="1.1" id="Layer_5" xmlns="http://www.w3.org/2000/svg" xmlns:xlink="http://www.w3.org/1999/xlink" x="0px" y="0px"
	 width="100px" height="100px" viewBox="0 0 100 100" enable-background="new 0 0 100 100" xml:space="preserve">
<path d="M78.444,16.301H21.556c-2.915,0-5.287,2.371-5.287,5.285v56.828c0,2.914,2.372,5.285,5.287,5.285h56.889
	c2.915,0,5.287-2.371,5.287-5.285V21.586C83.731,18.672,81.359,16.301,78.444,16.301z M74.861,22.317
	c1.251,0,2.265,1.015,2.265,2.266s-1.014,2.266-2.265,2.266c-1.252,0-2.267-1.015-2.267-2.266S73.609,22.317,74.861,22.317z
	 M66.742,22.317c1.252,0,2.267,1.015,2.267,2.266s-1.015,2.266-2.267,2.266c-1.251,0-2.265-1.015-2.265-2.266
	S65.491,22.317,66.742,22.317z M77.689,77.658H22.311V32.473h55.379V77.658z M27.139,56.893c0-0.414,0.336-0.75,0.75-0.75h7.446
	l2.903-9.757c0.095-0.318,0.387-0.536,0.719-0.536c0,0,0,0,0,0c0.332,0,0.625,0.219,0.718,0.538l2.879,9.755h3.405l3.307-15.797
	c0.075-0.358,0.412-0.608,0.764-0.596c0.366,0.015,0.667,0.291,0.714,0.654l3.344,26.125l2.149-16.216
	c0.047-0.351,0.332-0.622,0.685-0.649c0.364-0.019,0.677,0.195,0.778,0.535l2.367,7.988l0.657-2.004
	c0.101-0.308,0.389-0.516,0.713-0.516h10.675c0.414,0,0.75,0.336,0.75,0.75s-0.336,0.75-0.75,0.75H61.98l-1.237,3.771
	c-0.103,0.312-0.381,0.508-0.724,0.516c-0.328-0.005-0.615-0.222-0.708-0.537L57.262,54l-2.443,18.434
	c-0.05,0.373-0.368,0.651-0.744,0.651c0,0-0.001,0-0.001,0c-0.377-0.001-0.695-0.281-0.743-0.655l-3.509-27.417l-2.519,12.034
	c-0.073,0.347-0.379,0.596-0.734,0.596h-4.575c-0.333,0-0.625-0.219-0.719-0.538l-2.321-7.865l-2.34,7.867
	c-0.095,0.318-0.387,0.536-0.719,0.536h-8.006C27.475,57.643,27.139,57.307,27.139,56.893z"/>
</svg>
