<?xml version="1.0" encoding="utf-8"?>
<!-- Generator: Adobe Illustrator 16.0.0, SVG Export Plug-In . SVG Version: 6.00 Build 0)  -->
<!DOCTYPE svg PUBLIC "-//W3C//DTD SVG 1.1//EN" "http://www.w3.org/Graphics/SVG/1.1/DTD/svg11.dtd">
<svg version="1.1" id="Layer_5" xmlns="http://www.w3.org/2000/svg" xmlns:xlink="http://www.w3.org/1999/xlink" x="0px" y="0px"
	 width="100px" height="100px" viewBox="0 0 100 100" enable-background="new 0 0 100 100" xml:space="preserve">
<path d="M18.319,17h11.76v66h-4.32V21.32h-7.44V17z M77.42,26.6c4.44,0,4.259,3.3,4.259,3.3V56.45l-5.1,4.949h-0.045V54.74h-1.485
	v6.659h-3.87V48.26h-15.3v-12.78H42.2v14.257h13.68V49.7h13.86v11.699h-5.58V54.74h-1.44v6.659h-4.005V54.74h-1.44v6.659h-4.455
	V54.74h-1.44v6.659h-2.61v-2.79h-11.79v2.79h-3.3V26.6C33.68,26.6,72.979,26.6,77.42,26.6z M72.439,35.479h-8.64v8.641h8.64V35.479z
	 M71.198,36.62h-6.289v6.289h6.289V36.62z M55.047,39.935V39.35h-1.093v-1.962H43.945v1.962h-1.093v0.585h1.093v1.351h-1.093v0.585
	h1.093v1.467h-1.093v0.585h1.093v1.17h-1.093v0.585h1.093v1.72h10.008v-1.72h1.093v-0.585h-1.093v-1.17h1.093v-0.585h-1.093V41.87
	h1.093v-0.585h-1.093v-1.351H55.047z"/>
</svg>
