<?xml version="1.0" encoding="utf-8"?>
<!-- Generator: Adobe Illustrator 16.0.0, SVG Export Plug-In . SVG Version: 6.00 Build 0)  -->
<!DOCTYPE svg PUBLIC "-//W3C//DTD SVG 1.1//EN" "http://www.w3.org/Graphics/SVG/1.1/DTD/svg11.dtd">
<svg version="1.1" id="Layer_5" xmlns="http://www.w3.org/2000/svg" xmlns:xlink="http://www.w3.org/1999/xlink" x="0px" y="0px"
	 width="100px" height="100px" viewBox="0 0 100 100" enable-background="new 0 0 100 100" xml:space="preserve">
<path d="M18.32,17h11.76v66h-4.32V21.32h-7.44V17z M81.68,29.899V56.45l-5.1,4.949h-0.045V54.74H75.05v6.659h-3.87V48.26h-15.3
	v-12.78H42.2v14.257h13.68V49.7h13.86v11.699h-5.58V54.74h-1.44v6.659h-4.005V54.74h-1.44v6.659H52.82V54.74h-1.44v6.659h-2.61
	v-2.79H36.98v2.79h-3.3V26.6c0,0,39.3,0,43.74,0C81.86,26.6,81.68,29.899,81.68,29.899z M72.44,35.479H63.8v8.641h8.64V35.479z
	 M71.198,36.62H64.91v6.289h6.289V36.62z M55.047,39.935V39.35h-1.093v-1.962H43.946v1.962h-1.093v0.585h1.093v1.351h-1.093v0.585
	h1.093v1.467h-1.093v0.585h1.093v1.17h-1.093v0.585h1.093v1.72h10.008v-1.72h1.093v-0.585h-1.093v-1.17h1.093v-0.585h-1.093V41.87
	h1.093v-0.585h-1.093v-1.351H55.047z M62.681,71.75h-2.539v-2.625H59.33v-3h-2v3h-0.813v2.625h-2.539v1h-9.687v2h9.687v0.625h8.703
	V74.75h7.86v-2h-7.86V71.75z"/>
</svg>
