<?xml version="1.0" encoding="utf-8"?>
<!-- Generator: Adobe Illustrator 16.0.0, SVG Export Plug-In . SVG Version: 6.00 Build 0)  -->
<!DOCTYPE svg PUBLIC "-//W3C//DTD SVG 1.1//EN" "http://www.w3.org/Graphics/SVG/1.1/DTD/svg11.dtd">
<svg version="1.1" id="Layer_7" xmlns="http://www.w3.org/2000/svg" xmlns:xlink="http://www.w3.org/1999/xlink" x="0px" y="0px"
	 width="100px" height="100px" viewBox="0 0 100 100" enable-background="new 0 0 100 100" xml:space="preserve">
<path d="M78.089,74.547c-1.415,2.719-12.097,20.194-41.076-7.694C6.464,37.449,17.575,24.768,22.816,21.045v-0.009
	c0.083-0.059,0.168-0.108,0.253-0.165c0.148-0.102,0.288-0.193,0.424-0.279c0.059-0.035,0.119-0.077,0.179-0.113
	c0.753-0.462,1.251-0.674,1.251-0.674s0,0.017,0.002,0.042c3.684-1.587,7.65-0.921,9.142,2.284l3.03,7.359
	c1.778,3.821-0.256,9.404-4.544,12.474l-0.347,0.248c4.586,8.124,12.046,16.957,24.165,23.729l0.58-0.812
	c3.068-4.289,8.651-6.321,12.472-4.545l6.82,3.569C79.971,65.889,80.904,70.336,78.089,74.547z M54.615,41.463h2.485
	c0.407,0.301,0.904,0.486,1.451,0.486l10.737,8.783c1.348,0,2.439-1.093,2.439-2.438v-28.3c0.001-1.347-1.09-2.439-2.438-2.439
	l-10.739,6.353c-0.801,0-1.503,0.391-1.949,0.986h-1.987c-1.347,0-2.439,1.092-2.439,2.439v11.691
	C52.176,40.37,53.268,41.463,54.615,41.463z M78.237,34.144c0-2.248-1.83-4.078-4.078-4.078v0.975c1.71,0,3.103,1.394,3.103,3.104
	s-1.393,3.102-3.103,3.102v0.975C76.408,38.222,78.237,36.393,78.237,34.144z M75.955,26.567v0.976c3.642,0,6.602,2.962,6.602,6.601
	c0,3.642-2.96,6.602-6.602,6.602v0.976c4.178,0,7.577-3.398,7.577-7.577C83.532,29.966,80.133,26.567,75.955,26.567z"/>
</svg>
