<?xml version="1.0" encoding="utf-8"?>
<!-- Generator: Adobe Illustrator 16.0.4, SVG Export Plug-In . SVG Version: 6.00 Build 0)  -->
<!DOCTYPE svg PUBLIC "-//W3C//DTD SVG 1.1//EN" "http://www.w3.org/Graphics/SVG/1.1/DTD/svg11.dtd">
<svg version="1.1" id="Capa_1" xmlns="http://www.w3.org/2000/svg" xmlns:xlink="http://www.w3.org/1999/xlink" x="0px" y="0px"
	 width="100px" height="100px" viewBox="0 0 100 100" enable-background="new 0 0 100 100" xml:space="preserve">
<g id="Layer_8">
	<path d="M9.811,15.091v69.817h80.378V15.091H9.811z M14.992,82.812l4.028-3.845h63.287l4.028,3.845H14.992z M20.854,66.848V24.45
		h60.109v35.269c-1.154-1.427-2.512-2.675-4.249-3.215c-2.063-0.641-4.282,0.57-6.075,1.444c-4.005,1.954-8.229,3.771-12.791,3.122
		c-4.365-0.621-7.567-3.995-11.554-5.549c-5.174-2.018-9.478-0.896-13.553,2.692C28.862,61.63,25.6,65.355,20.854,66.848z
		 M82.355,21.655H18.972l-4.68-4.466h72.744L82.355,21.655z M57.516,37c0-3.774,3.059-6.833,6.832-6.833
		c3.774,0,6.834,3.059,6.834,6.833s-3.06,6.833-6.834,6.833C60.574,43.833,57.516,40.774,57.516,37z"/>
</g>
</svg>
