<?xml version="1.0" encoding="utf-8"?>
<!-- Generator: Adobe Illustrator 16.0.0, SVG Export Plug-In . SVG Version: 6.00 Build 0)  -->
<!DOCTYPE svg PUBLIC "-//W3C//DTD SVG 1.1//EN" "http://www.w3.org/Graphics/SVG/1.1/DTD/svg11.dtd">
<svg version="1.1" id="Layer_7" xmlns="http://www.w3.org/2000/svg" xmlns:xlink="http://www.w3.org/1999/xlink" x="0px" y="0px"
	 width="100px" height="100px" viewBox="0 0 100 100" enable-background="new 0 0 100 100" xml:space="preserve">
<path d="M67.5,37.824v30.852c0,2.532-2.053,4.586-4.586,4.586s-4.586-2.054-4.586-4.586v-1.354
	c-0.409,0.062-0.824,0.104-1.251,0.104h-14.26c-4.605,0-8.338-3.733-8.338-8.338v-1.918h-3.578c-1.556,0-2.216-0.807-2.495-2.017
	C20.4,53.4,14.321,44.731,19.946,36.761c2.364-3.349,7.414-7.022,5.726-11.694c-1.698-4.701-7.076-7.37-10.19-11.049
	c-2.07-2.444,1.449-6,3.535-3.535c3.119,3.684,7.636,6.195,10.148,10.405c2.309,3.869,2.462,8.612-0.131,12.406
	c-2.205,3.225-6.798,6.538-6.228,10.898c0.394,3.01,2.852,5.121,5.662,5.945l0.002-0.111c0.314-1.063,0.989-1.751,2.43-1.751h3.578
	v-0.862c0-4.604,3.733-8.338,8.338-8.338h14.26c0.427,0,0.842,0.043,1.251,0.104v-1.354c0-2.532,2.053-4.586,4.586-4.586
	S67.5,35.292,67.5,37.824z M85.231,44.689c0-1.796-1.457-3.252-3.252-3.252H68.917v6.504h13.062
	C83.775,47.941,85.231,46.486,85.231,44.689z M81.979,58.337H68.917v6.504h13.062c1.795,0,3.252-1.456,3.252-3.252
	S83.775,58.337,81.979,58.337z"/>
</svg>
