<?xml version="1.0" encoding="utf-8"?>
<!-- Generator: Adobe Illustrator 16.0.0, SVG Export Plug-In . SVG Version: 6.00 Build 0)  -->
<!DOCTYPE svg PUBLIC "-//W3C//DTD SVG 1.1//EN" "http://www.w3.org/Graphics/SVG/1.1/DTD/svg11.dtd">
<svg version="1.1" id="Layer_7" xmlns="http://www.w3.org/2000/svg" xmlns:xlink="http://www.w3.org/1999/xlink" x="0px" y="0px"
	 width="100px" height="100px" viewBox="0 0 100 100" enable-background="new 0 0 100 100" xml:space="preserve">
<path d="M72.306,11.914l16.481,16.481l-7.426,7.426L64.88,19.339L72.306,11.914z M32.967,51.434l2.75,2.75l-2.379,3.501
	l-0.383-0.383c-0.25-0.25-0.655-0.25-0.906,0c-0.25,0.25-0.25,0.656,0,0.906l0.556,0.555l-2.171,3.195l-0.523-0.523
	c-0.25-0.25-0.655-0.25-0.906,0c-0.25,0.25-0.25,0.655,0,0.905l0.696,0.696l-2.436,3.584l-0.478-0.478
	c-0.25-0.25-0.655-0.25-0.906,0c-0.25,0.25-0.25,0.655,0,0.905l0.65,0.651l-2.144,3.156l-0.437-0.437c-0.25-0.25-0.655-0.25-0.906,0
	c-0.25,0.25-0.25,0.655,0,0.905l0.609,0.609l-2.06,3.032L9.388,87.248l3.445,3.445l12.318-12.269l2.956-2.041l1.037,1.037
	c0.25,0.25,0.655,0.25,0.905,0c0.25-0.25,0.25-0.655,0.001-0.905l-0.871-0.871l3.135-2.164l1.187,1.187
	c0.25,0.25,0.655,0.25,0.906,0c0.25-0.25,0.25-0.656,0-0.906l-1.021-1.021l3.562-2.459l0.96,0.96c0.25,0.25,0.655,0.25,0.905,0
	c0.25-0.25,0.251-0.656,0-0.906l-0.793-0.793l3.175-2.191l0.519,0.519c0.25,0.25,0.655,0.25,0.906,0c0.25-0.25,0.25-0.655,0-0.906
	l-0.353-0.353l3.479-2.401l3.522,3.523L79.46,37.541l-16.3-16.299L32.967,51.434z M89.845,10.074c-1.022-1.022-2.68-1.021-3.702,0
	l-6.751,6.751l3.702,3.702l6.751-6.751C90.867,12.754,90.867,11.097,89.845,10.074z"/>
</svg>
