<?xml version="1.0" encoding="utf-8"?>
<!-- Generator: Adobe Illustrator 16.0.0, SVG Export Plug-In . SVG Version: 6.00 Build 0)  -->
<!DOCTYPE svg PUBLIC "-//W3C//DTD SVG 1.1//EN" "http://www.w3.org/Graphics/SVG/1.1/DTD/svg11.dtd">
<svg version="1.1" id="Layer_7" xmlns="http://www.w3.org/2000/svg" xmlns:xlink="http://www.w3.org/1999/xlink" x="0px" y="0px"
	 width="100px" height="100px" viewBox="0 0 100 100" enable-background="new 0 0 100 100" xml:space="preserve">
<path d="M71.151,34.574v30.852c0,2.532-2.053,4.586-4.586,4.586s-4.586-2.054-4.586-4.586v-1.354
	c-0.409,0.062-0.824,0.104-1.251,0.104h-14.26c-4.605,0-8.338-3.733-8.338-8.338v-1.918h-3.578c-1.622,0-2.274-0.871-2.533-2.167
	H11.117v-4.976h21.005c0.314-1.063,0.989-1.751,2.43-1.751h3.578v-0.862c0-4.604,3.733-8.338,8.338-8.338h14.26
	c0.427,0,0.842,0.043,1.251,0.104v-1.354c0-2.532,2.053-4.586,4.586-4.586S71.151,32.042,71.151,34.574z M88.883,41.439
	c0-1.796-1.457-3.252-3.252-3.252H72.569v6.504h13.062C87.426,44.691,88.883,43.236,88.883,41.439z M85.631,55.087H72.569v6.504
	h13.062c1.795,0,3.252-1.456,3.252-3.252S87.426,55.087,85.631,55.087z"/>
</svg>
