<?xml version="1.0" encoding="utf-8"?>
<!-- Generator: Adobe Illustrator 16.0.0, SVG Export Plug-In . SVG Version: 6.00 Build 0)  -->
<!DOCTYPE svg PUBLIC "-//W3C//DTD SVG 1.1//EN" "http://www.w3.org/Graphics/SVG/1.1/DTD/svg11.dtd">
<svg version="1.1" id="Layer_6" xmlns="http://www.w3.org/2000/svg" xmlns:xlink="http://www.w3.org/1999/xlink" x="0px" y="0px"
	 width="100px" height="100px" viewBox="0 0 100 100" enable-background="new 0 0 100 100" xml:space="preserve">
<path d="M75.431,16.49H51.434v-2.39c0-0.792-0.643-1.435-1.435-1.435s-1.434,0.643-1.434,1.435v2.39H24.569
	c-2.847,0-5.162,2.316-5.162,5.163v38.624c0,2.847,2.315,5.162,5.162,5.162h23.423v13.958h-0.286v0.815L36.571,83.53
	c-0.991,0.495-1.394,1.701-0.897,2.693c0.352,0.703,1.061,1.11,1.797,1.11c0.302,0,0.608-0.068,0.896-0.213l9.339-2.419v2.632h4.589
	v-2.632l9.838,2.419c0.289,0.145,0.595,0.213,0.896,0.213c0.736,0,1.445-0.407,1.798-1.11c0.495-0.992,0.093-2.198-0.898-2.693
	l-11.634-3.317v-0.815h-0.287V65.439h23.424c2.847,0,5.162-2.315,5.162-5.162V21.653C80.593,18.807,78.278,16.49,75.431,16.49z
	 M76.004,60.277c0,0.316-0.257,0.573-0.573,0.573H24.569c-0.316,0-0.573-0.257-0.573-0.573V21.653c0-0.316,0.257-0.574,0.573-0.574
	h50.862c0.316,0,0.573,0.258,0.573,0.574V60.277z"/>
</svg>
