<?xml version="1.0" encoding="utf-8"?>
<!-- Generator: Adobe Illustrator 16.0.0, SVG Export Plug-In . SVG Version: 6.00 Build 0)  -->
<!DOCTYPE svg PUBLIC "-//W3C//DTD SVG 1.1//EN" "http://www.w3.org/Graphics/SVG/1.1/DTD/svg11.dtd">
<svg version="1.1" id="Layer_6" xmlns="http://www.w3.org/2000/svg" xmlns:xlink="http://www.w3.org/1999/xlink" x="0px" y="0px"
	 width="100px" height="100px" viewBox="0 0 100 100" enable-background="new 0 0 100 100" xml:space="preserve">
<path d="M50.252,47.922l12.563,2.239c-1.399,5.874-6.678,10.244-12.98,10.244c-2.022,0-3.938-0.452-5.657-1.258L50.252,47.922z
	 M51.002,28.101c-2.674,0-5.192,0.658-7.41,1.814l7.993,13.39l15.352,2.736c0.073-0.621,0.114-1.251,0.114-1.891
	C67.051,35.286,59.865,28.101,51.002,28.101z M42.337,36.016c-3.53,2.402-5.849,6.451-5.849,11.042
	c0,4.793,2.527,8.994,6.322,11.348l6.131-11.329L42.337,36.016z M80.594,25.32v38.624c0,2.847-2.315,5.163-5.162,5.163H52.008
	v13.958h0.287v0.815l11.634,3.317c0.991,0.496,1.394,1.702,0.898,2.693c-0.353,0.703-1.062,1.11-1.798,1.11
	c-0.302,0-0.607-0.068-0.896-0.212l-9.838-2.419v2.632h-4.589v-2.632l-9.339,2.419c-0.288,0.144-0.595,0.212-0.896,0.212
	c-0.736,0-1.445-0.407-1.797-1.11c-0.496-0.992-0.094-2.198,0.897-2.693l11.135-3.317v-0.815h0.286V69.107H24.569
	c-2.847,0-5.162-2.316-5.162-5.163V25.32c0-2.847,2.315-5.163,5.162-5.163h23.997v-2.39c0-0.792,0.642-1.434,1.434-1.434
	s1.435,0.642,1.435,1.434v2.39h23.997C78.278,20.158,80.594,22.474,80.594,25.32z M76.005,25.32c0-0.316-0.257-0.574-0.573-0.574
	H24.569c-0.316,0-0.573,0.257-0.573,0.574v38.624c0,0.316,0.257,0.574,0.573,0.574h50.862c0.316,0,0.573-0.257,0.573-0.574V25.32z"
	/>
</svg>
