<?xml version="1.0" encoding="utf-8"?>
<!-- Generator: Adobe Illustrator 16.0.0, SVG Export Plug-In . SVG Version: 6.00 Build 0)  -->
<!DOCTYPE svg PUBLIC "-//W3C//DTD SVG 1.1//EN" "http://www.w3.org/Graphics/SVG/1.1/DTD/svg11.dtd">
<svg version="1.1" id="Layer_5" xmlns="http://www.w3.org/2000/svg" xmlns:xlink="http://www.w3.org/1999/xlink" x="0px" y="0px"
	 width="100px" height="100px" viewBox="0 0 100 100" enable-background="new 0 0 100 100" xml:space="preserve">
<path d="M92.333,33.667H43.228c-3.807-3.319-8.78-5.333-14.228-5.333c-5.446,0-10.42,2.014-14.227,5.333H7.667c-1.104,0-2,0.896-2,2
	v28.667c0,1.104,0.896,2,2,2H11v5.333h9.25V69.8c2.678,1.188,5.632,1.866,8.75,1.866c5.447,0,10.421-2.014,14.228-5.333H79.75v5.333
	H89v-5.333h3.333c1.104,0,2-0.896,2-2V35.667C94.333,34.562,93.438,33.667,92.333,33.667z M28.334,66.333
	C19.313,66.333,12,59.021,12,50s7.313-16.333,16.334-16.333c9.021,0,16.333,7.313,16.333,16.333S37.354,66.333,28.334,66.333z
	 M88.5,59.416H67.75v-3H88.5V59.416z M88.5,50.416H67.75v-3H88.5V50.416z M88.5,41.916H67.75v-3H88.5V41.916z M32.633,39.486
	c0.688,0.422,1.308,0.909,1.867,1.445c-4.794-1.676-10.271,0.143-13.034,4.65c-2.762,4.507-1.896,10.213,1.774,13.724
	c-0.731-0.255-1.447-0.586-2.136-1.008c-5.194-3.183-6.824-9.975-3.642-15.169C20.646,37.933,27.438,36.303,32.633,39.486z M80.5,33
	h-7.333v-0.833H80.5V33z M89.666,33h-7.333v-0.833h7.333V33z"/>
</svg>
