<?xml version="1.0" encoding="utf-8"?>
<!-- Generator: Adobe Illustrator 16.0.0, SVG Export Plug-In . SVG Version: 6.00 Build 0)  -->
<!DOCTYPE svg PUBLIC "-//W3C//DTD SVG 1.1//EN" "http://www.w3.org/Graphics/SVG/1.1/DTD/svg11.dtd">
<svg version="1.1" id="Layer_6" xmlns="http://www.w3.org/2000/svg" xmlns:xlink="http://www.w3.org/1999/xlink" x="0px" y="0px"
	 width="100px" height="100px" viewBox="0 0 100 100" enable-background="new 0 0 100 100" xml:space="preserve">
<path d="M74.533,42.718h-3.158V31.261c0-11.787-9.588-21.376-21.375-21.376c-11.786,0-21.375,9.589-21.375,21.376v11.458h-3.157
	c-1.711,0-3.098,1.386-3.098,3.098v41.201c0,1.711,1.387,3.098,3.098,3.098h49.064c1.71,0,3.097-1.387,3.097-3.098V45.816
	C77.629,44.104,76.243,42.718,74.533,42.718z M36.68,31.261c0-7.346,5.976-13.321,13.32-13.321c7.345,0,13.321,5.976,13.321,13.321
	v11.458H36.68V31.261z M53.648,73.587v11.458h-7.566V73.277c-0.685-0.858-1.097-1.942-1.097-3.125c0-2.771,2.246-5.016,5.015-5.016
	c2.771,0,5.016,2.245,5.016,5.016C55.016,71.483,54.493,72.689,53.648,73.587z"/>
</svg>
