<?xml version="1.0" encoding="utf-8"?>
<!-- Generator: Adobe Illustrator 16.0.0, SVG Export Plug-In . SVG Version: 6.00 Build 0)  -->
<!DOCTYPE svg PUBLIC "-//W3C//DTD SVG 1.1//EN" "http://www.w3.org/Graphics/SVG/1.1/DTD/svg11.dtd">
<svg version="1.1" id="Layer_4" xmlns="http://www.w3.org/2000/svg" xmlns:xlink="http://www.w3.org/1999/xlink" x="0px" y="0px"
	 width="100px" height="100px" viewBox="0 0 100 100" enable-background="new 0 0 100 100" xml:space="preserve">
<path d="M81.951,19.853V9.576H18.049v10.276h3.131v4.495h-3.131v10.276h63.902V24.347h-3.612v-4.495H81.951z M29.447,30.413h-4.442
	v-4.345h4.442V30.413z M29.447,24.214h-4.442v-4.345h4.442V24.214z M29.447,18.13h-4.442v-4.345h4.442V18.13z M36.013,30.413h-4.441
	v-4.345h4.441V30.413z M36.013,24.214h-4.441v-4.345h4.441V24.214z M36.013,18.13h-4.441v-4.345h4.441V18.13z M42.483,30.413h-4.441
	v-4.345h4.441V30.413z M42.483,24.214h-4.441v-4.345h4.441V24.214z M42.483,18.13h-4.441v-4.345h4.441V18.13z M48.886,30.413h-4.441
	v-4.345h4.441V30.413z M48.886,24.214h-4.441v-4.345h4.441V24.214z M48.886,18.13h-4.441v-4.345h4.441V18.13z M55.452,30.413h-4.441
	v-4.345h4.441V30.413z M55.452,24.214h-4.441v-4.345h4.441V24.214z M55.452,18.13h-4.441v-4.345h4.441V18.13z M61.922,30.413h-4.441
	v-4.345h4.441V30.413z M61.922,24.214h-4.441v-4.345h4.441V24.214z M61.922,18.13h-4.441v-4.345h4.441V18.13z M71.86,30.288h-5.735
	v-2.65h5.735V30.288z M68.97,22.85c-2.528,0-4.577-2.049-4.577-4.575s2.049-4.576,4.577-4.576c2.527,0,4.576,2.049,4.576,4.576
	S71.498,22.85,68.97,22.85z M71.86,18.246c0,1.584-1.284,2.868-2.867,2.868c-1.584,0-2.868-1.284-2.868-2.868
	c0-1.583,1.284-2.866,2.868-2.866C70.576,15.38,71.86,16.663,71.86,18.246z M18.049,48.01h3.131v4.495h-3.131v10.276h63.902V52.504
	h-3.612V48.01h3.612V37.734H18.049V48.01z M71.86,58.445h-5.735v-2.649h5.735V58.445z M68.97,41.857
	c2.527,0,4.576,2.049,4.576,4.575c0,2.527-2.048,4.576-4.576,4.576c-2.528,0-4.577-2.049-4.577-4.576
	C64.394,43.906,66.442,41.857,68.97,41.857z M57.481,41.942h4.441v4.346h-4.441V41.942z M57.481,48.026h4.441v4.346h-4.441V48.026z
	 M57.481,54.226h4.441v4.346h-4.441V54.226z M51.011,41.942h4.441v4.346h-4.441V41.942z M51.011,48.026h4.441v4.346h-4.441V48.026z
	 M51.011,54.226h4.441v4.346h-4.441V54.226z M44.445,41.942h4.441v4.346h-4.441V41.942z M44.445,48.026h4.441v4.346h-4.441V48.026z
	 M44.445,54.226h4.441v4.346h-4.441V54.226z M38.042,41.942h4.441v4.346h-4.441V41.942z M38.042,48.026h4.441v4.346h-4.441V48.026z
	 M38.042,54.226h4.441v4.346h-4.441V54.226z M31.571,41.942h4.441v4.346h-4.441V41.942z M31.571,48.026h4.441v4.346h-4.441V48.026z
	 M31.571,54.226h4.441v4.346h-4.441V54.226z M25.005,41.942h4.442v4.346h-4.442V41.942z M25.005,48.026h4.442v4.346h-4.442V48.026z
	 M25.005,54.226h4.442v4.346h-4.442V54.226z M66.125,46.404c0-1.583,1.284-2.866,2.868-2.866c1.583,0,2.867,1.283,2.867,2.866
	c0,1.583-1.284,2.868-2.867,2.868C67.409,49.271,66.125,47.987,66.125,46.404z M18.049,75.653h3.131v4.495h-3.131v10.276h63.902
	V80.148h-3.612v-4.495h3.612V65.377H18.049V75.653z M71.86,86.088h-5.735v-2.649h5.735V86.088z M68.97,69.5
	c2.527,0,4.576,2.049,4.576,4.576c0,2.526-2.048,4.576-4.576,4.576c-2.528,0-4.577-2.049-4.577-4.576
	C64.394,71.549,66.442,69.5,68.97,69.5z M57.481,69.586h4.441v4.345h-4.441V69.586z M57.481,75.669h4.441v4.345h-4.441V75.669z
	 M57.481,81.869h4.441v4.345h-4.441V81.869z M51.011,69.586h4.441v4.345h-4.441V69.586z M51.011,75.669h4.441v4.345h-4.441V75.669z
	 M51.011,81.869h4.441v4.345h-4.441V81.869z M44.445,69.586h4.441v4.345h-4.441V69.586z M44.445,75.669h4.441v4.345h-4.441V75.669z
	 M44.445,81.869h4.441v4.345h-4.441V81.869z M38.042,69.586h4.441v4.345h-4.441V69.586z M38.042,75.669h4.441v4.345h-4.441V75.669z
	 M38.042,81.869h4.441v4.345h-4.441V81.869z M31.571,69.586h4.441v4.345h-4.441V69.586z M31.571,75.669h4.441v4.345h-4.441V75.669z
	 M31.571,81.869h4.441v4.345h-4.441V81.869z M25.005,69.586h4.442v4.345h-4.442V69.586z M25.005,75.669h4.442v4.345h-4.442V75.669z
	 M25.005,81.869h4.442v4.345h-4.442V81.869z M66.125,74.047c0-1.583,1.284-2.866,2.868-2.866c1.583,0,2.867,1.283,2.867,2.866
	c0,1.583-1.284,2.868-2.867,2.868C67.409,76.915,66.125,75.63,66.125,74.047z"/>
</svg>
