<?xml version="1.0" encoding="utf-8"?>
<!-- Generator: Adobe Illustrator 16.0.4, SVG Export Plug-In . SVG Version: 6.00 Build 0)  -->
<!DOCTYPE svg PUBLIC "-//W3C//DTD SVG 1.1//EN" "http://www.w3.org/Graphics/SVG/1.1/DTD/svg11.dtd">
<svg version="1.1" id="Capa_1" xmlns="http://www.w3.org/2000/svg" xmlns:xlink="http://www.w3.org/1999/xlink" x="0px" y="0px"
	 width="100px" height="100px" viewBox="0 0 100 100" enable-background="new 0 0 100 100" xml:space="preserve">
<g id="Layer_7">
	<path d="M82.309,47.271c0,4.172-3.385,7.557-7.559,7.557s-7.559-3.385-7.559-7.557c0-4.174,3.385-7.558,7.559-7.558
		S82.309,43.098,82.309,47.271z M93.861,30.905v50.381c0,0.981-0.797,1.778-1.778,1.778H7.917c-0.982,0-1.778-0.797-1.778-1.778
		V30.905c0-0.981,0.796-1.777,1.778-1.777h66.882l-42.205-9.793c-0.956-0.223-1.642-0.791-1.53-1.269l0.134-0.578
		c0.11-0.478,0.976-0.686,1.934-0.463l52.154,12.103h6.798C93.064,29.128,93.861,29.924,93.861,30.905z M18.204,70.184
		c0-1.307-1.059-2.363-2.364-2.363c-1.305,0-2.364,1.058-2.364,2.363c0,1.307,1.059,2.363,2.364,2.363
		C17.145,72.547,18.204,71.489,18.204,70.184z M19.028,55.053c0-1.307-1.059-2.363-2.364-2.363S14.3,53.746,14.3,55.053
		s1.059,2.364,2.364,2.364S19.028,56.359,19.028,55.053z M23.757,62.617c0-1.307-1.059-2.363-2.364-2.363
		c-1.307,0-2.364,1.059-2.364,2.363s1.058,2.365,2.364,2.365C22.698,64.982,23.757,63.923,23.757,62.617z M28.252,70.184
		c0-1.307-1.059-2.363-2.364-2.363c-1.305,0-2.364,1.058-2.364,2.363c0,1.307,1.059,2.363,2.364,2.363
		C27.193,72.547,28.252,71.489,28.252,70.184z M29.076,55.053c0-1.307-1.059-2.363-2.364-2.363c-1.305,0-2.364,1.058-2.364,2.363
		c0,1.307,1.059,2.364,2.364,2.364C28.017,57.417,29.076,56.359,29.076,55.053z M33.805,62.617c0-1.307-1.059-2.363-2.364-2.363
		c-1.305,0-2.364,1.059-2.364,2.363s1.059,2.365,2.364,2.365C32.746,64.982,33.805,63.923,33.805,62.617z M38.063,70.184
		c0-1.307-1.058-2.363-2.364-2.363c-1.306,0-2.364,1.058-2.364,2.363c0,1.307,1.059,2.363,2.364,2.363
		C37.005,72.547,38.063,71.489,38.063,70.184z M38.887,55.053c0-1.307-1.058-2.363-2.363-2.363c-1.307,0-2.364,1.058-2.364,2.363
		c0,1.307,1.058,2.364,2.364,2.364C37.829,57.417,38.887,56.359,38.887,55.053z M43.615,62.617c0-1.307-1.059-2.363-2.364-2.363
		s-2.364,1.059-2.364,2.363s1.059,2.365,2.364,2.365S43.615,63.923,43.615,62.617z M49.405,70.184c0-1.307-1.059-2.363-2.364-2.363
		s-2.364,1.058-2.364,2.363c0,1.307,1.059,2.363,2.364,2.363S49.405,71.489,49.405,70.184z M50.229,55.053
		c0-1.307-1.059-2.363-2.364-2.363c-1.307,0-2.364,1.058-2.364,2.363c0,1.307,1.058,2.364,2.364,2.364
		C49.171,57.417,50.229,56.359,50.229,55.053z M54.958,62.617c0-1.307-1.06-2.363-2.364-2.363c-1.307,0-2.364,1.059-2.364,2.363
		s1.058,2.365,2.364,2.365C53.898,64.982,54.958,63.923,54.958,62.617z M56.579,36.21c0-0.982-0.796-1.778-1.777-1.778h-5.764v4.403
		h-1.111v-4.403h-9.225v4.403h-1.111v-4.403h-8.668v4.403h-1.111v-4.403h-8.113v4.403h-1.111v-4.403h-4.684
		c-0.981,0-1.778,0.796-1.778,1.778v7.582c0.148-0.04,0.3-0.067,0.46-0.067H22.92v-5.446l0.531-1.867l0.58,1.867v5.446h32.548V36.21
		z M78.656,72.759c0-2.157-1.75-3.905-3.907-3.905c-2.158,0-3.907,1.748-3.907,3.905s1.749,3.906,3.907,3.906
		C76.906,76.665,78.656,74.916,78.656,72.759z M87.342,47.43c0-6.997-5.672-12.669-12.67-12.669
		c-6.997,0-12.669,5.672-12.669,12.669c0,6.997,5.672,12.669,12.669,12.669C81.67,60.1,87.342,54.427,87.342,47.43z"/>
</g>
</svg>
