<?xml version="1.0" encoding="utf-8"?>
<!-- Generator: Adobe Illustrator 16.0.0, SVG Export Plug-In . SVG Version: 6.00 Build 0)  -->
<!DOCTYPE svg PUBLIC "-//W3C//DTD SVG 1.1//EN" "http://www.w3.org/Graphics/SVG/1.1/DTD/svg11.dtd">
<svg version="1.1" id="Layer_7" xmlns="http://www.w3.org/2000/svg" xmlns:xlink="http://www.w3.org/1999/xlink" x="0px" y="0px"
	 width="100px" height="100px" viewBox="0 0 100 100" enable-background="new 0 0 100 100" xml:space="preserve">
<path d="M24.352,27.154l28.227,20.7c0.266,0.194,0.625,0.194,0.893,0l28.227-20.7v33.28H56.945c0.043,0.255,0.078,0.513,0.078,0.779
	v5.257h29.955c0.416,0,0.754-0.338,0.754-0.755V18.935c0-0.417-0.338-0.755-0.754-0.755h-67.91c-0.416,0-0.754,0.338-0.754,0.755
	v36.838l6.037-4.641V27.154z M30.553,24.216h44.941L53.023,40.695L30.553,24.216z M12.568,65.857L31.529,51.28
	c0.275-0.213,0.66-0.213,0.938-0.004s0.381,0.578,0.252,0.901l-3.811,9.653h22.344c0.428,0,0.773,0.346,0.773,0.772v7.734
	c0,0.428-0.346,0.772-0.773,0.772H28.908l3.811,9.652c0.129,0.324,0.025,0.694-0.252,0.902C32.328,81.769,32.164,81.82,32,81.82
	s-0.332-0.053-0.471-0.16L12.568,67.084c-0.189-0.146-0.301-0.374-0.301-0.613C12.268,66.229,12.379,66.004,12.568,65.857z"/>
</svg>
