<?xml version="1.0" encoding="utf-8"?>
<!-- Generator: Adobe Illustrator 16.0.0, SVG Export Plug-In . SVG Version: 6.00 Build 0)  -->
<!DOCTYPE svg PUBLIC "-//W3C//DTD SVG 1.1//EN" "http://www.w3.org/Graphics/SVG/1.1/DTD/svg11.dtd">
<svg version="1.1" id="Layer_6" xmlns="http://www.w3.org/2000/svg" xmlns:xlink="http://www.w3.org/1999/xlink" x="0px" y="0px"
	 width="100px" height="100px" viewBox="0 0 100 100" enable-background="new 0 0 100 100" xml:space="preserve">
<path d="M91.548,48.116H81.219c-0.942-15.687-13.566-28.274-29.27-29.155V8.452h-3.521v10.509
	C32.726,19.842,20.102,32.43,19.16,48.116H8.452v3.521h10.688c0.823,15.802,13.501,28.517,29.288,29.402v10.509h3.521V81.039
	c15.787-0.886,28.465-13.601,29.288-29.402h10.311V48.116z M77.69,48.116h-9.281c-0.836-8.666-7.778-15.563-16.46-16.345v-9.282
	C65.711,23.361,76.758,34.371,77.69,48.116z M50.312,64.543c-8.087,0-14.666-6.58-14.666-14.666c0-8.088,6.579-14.668,14.666-14.668
	c8.088,0,14.667,6.58,14.667,14.668C64.979,57.963,58.399,64.543,50.312,64.543z M48.429,22.489v9.299
	c-8.567,0.884-15.386,7.744-16.214,16.328h-9.527C23.621,34.371,34.668,23.361,48.429,22.489z M22.669,51.637h9.546
	c0.828,8.584,7.646,15.442,16.214,16.328v9.546C34.585,76.633,23.486,65.498,22.669,51.637z M51.949,77.511v-9.53
	c8.682-0.78,15.624-7.679,16.46-16.344h9.3C76.893,65.498,65.794,76.633,51.949,77.511z"/>
</svg>
