<?xml version="1.0" encoding="utf-8"?>
<!-- Generator: Adobe Illustrator 16.0.0, SVG Export Plug-In . SVG Version: 6.00 Build 0)  -->
<!DOCTYPE svg PUBLIC "-//W3C//DTD SVG 1.1//EN" "http://www.w3.org/Graphics/SVG/1.1/DTD/svg11.dtd">
<svg version="1.1" id="Layer_7" xmlns="http://www.w3.org/2000/svg" xmlns:xlink="http://www.w3.org/1999/xlink" x="0px" y="0px"
	 width="100px" height="100px" viewBox="0 0 100 100" enable-background="new 0 0 100 100" xml:space="preserve">
<path d="M34.256,72.855c0.894,3.84-1.496,7.679-5.337,8.572s-7.68-1.496-8.573-5.337c-0.893-3.841,1.497-7.68,5.338-8.573
	S33.362,69.014,34.256,72.855z M31.283,52.335l-2.299,5.543c7.611,3.156,13.13,10.593,14.058,18.943l5.963-0.662
	C47.84,65.668,40.883,56.316,31.283,52.335z M34.398,34.809l-2.574,5.42c14.319,6.802,24.561,20.832,26.728,36.616l5.943-0.816
	C62.058,58.263,50.525,42.468,34.398,34.809z M37.954,18.386l-2.574,5.42c21.252,10.093,36.002,30.931,38.494,54.382l5.967-0.635
	C77.129,52.039,61.079,29.368,37.954,18.386z"/>
</svg>
