<?xml version="1.0" encoding="utf-8"?>
<!-- Generator: Adobe Illustrator 16.0.0, SVG Export Plug-In . SVG Version: 6.00 Build 0)  -->
<!DOCTYPE svg PUBLIC "-//W3C//DTD SVG 1.1//EN" "http://www.w3.org/Graphics/SVG/1.1/DTD/svg11.dtd">
<svg version="1.1" id="Layer_6" xmlns="http://www.w3.org/2000/svg" xmlns:xlink="http://www.w3.org/1999/xlink" x="0px" y="0px"
	 width="100px" height="100px" viewBox="0 0 100 100" enable-background="new 0 0 100 100" xml:space="preserve">
<path d="M71.391,30.421L61.279,76.439c-0.082,5.301-2.866,9.951-7.028,12.651c-0.287,0.225-0.581,0.442-0.884,0.652
	c-0.294,0.203-0.622,0.318-0.954,0.358c-1.977,0.928-4.173,1.462-6.496,1.462c-8.474,0-15.365-6.893-15.365-15.365V34.513
	c-1.193-0.756-1.992-2.08-1.992-3.598v-5.122c0-9.57,7.785-17.356,17.357-17.356c9.569,0,17.355,7.786,17.355,17.356v5.122
	c0,2.357-1.911,4.268-4.268,4.268s-4.268-1.91-4.268-4.268v-5.122c0-4.863-3.758-8.992-10.066-8.416l-0.034,0.079
	c-4.838,4.609,0,10.861,0,10.861c0,4.204-3.408,7.612-7.612,7.612c-0.77,0-1.507-0.129-2.204-0.344v40.612
	c0,6.118,4.977,11.098,11.097,11.098c2.105,0,4.069-0.601,5.748-1.624c2.894-2.29,4.563-5.472,4.477-8.683
	c-0.084-3.114-1.787-5.847-4.798-7.694c-3.591-2.201-8.65-1.259-11.793,0.816c-0.983,0.647-2.307,0.378-2.956-0.605
	s-0.378-2.308,0.605-2.957c4.137-2.729,11.025-4.176,16.376-0.892c1.972,1.211,3.561,2.751,4.712,4.509l8.936-40.661
	c0.253-1.15,1.391-1.879,2.542-1.626S71.644,29.27,71.391,30.421z"/>
</svg>
