<?xml version="1.0" encoding="utf-8"?>
<!-- Generator: Adobe Illustrator 16.0.0, SVG Export Plug-In . SVG Version: 6.00 Build 0)  -->
<!DOCTYPE svg PUBLIC "-//W3C//DTD SVG 1.1//EN" "http://www.w3.org/Graphics/SVG/1.1/DTD/svg11.dtd">
<svg version="1.1" id="Layer_6" xmlns="http://www.w3.org/2000/svg" xmlns:xlink="http://www.w3.org/1999/xlink" x="0px" y="0px"
	 width="100px" height="100px" viewBox="0 0 100 100" enable-background="new 0 0 100 100" xml:space="preserve">
<path d="M50,8.437c-9.57,0-17.357,7.786-17.357,17.356v5.122c0,1.518,0.799,2.842,1.992,3.599v41.686
	c0,8.471,6.893,15.364,15.365,15.364c2.324,0,4.521-0.533,6.498-1.463c0.332-0.039,0.66-0.155,0.953-0.357
	c0.311-0.214,0.607-0.437,0.898-0.664c4.217-2.743,7.016-7.487,7.016-12.88V34.514c1.193-0.757,1.992-2.081,1.992-3.599v-5.122
	C67.357,16.223,59.57,8.437,50,8.437z M38.904,76.199V35.586c0.697,0.215,1.436,0.344,2.203,0.344c4.205,0,7.613-3.408,7.613-7.612
	c0,0-4.838-6.252,0-10.861l0.033-0.079c6.311-0.576,10.066,3.553,10.066,8.416v5.122c0,1.634,0.928,3.036,2.277,3.752v33.835
	c-0.965-1.074-2.115-2.033-3.438-2.844c-5.352-3.285-12.24-1.839-16.375,0.891c-0.984,0.649-1.256,1.973-0.605,2.957
	c0.646,0.983,1.971,1.253,2.955,0.606c3.143-2.075,8.201-3.02,11.793-0.816c3.01,1.847,4.715,4.579,4.797,7.692
	c0.086,3.212-1.582,6.394-4.475,8.684c-1.68,1.023-3.645,1.624-5.75,1.624C43.881,87.296,38.904,82.317,38.904,76.199z"/>
</svg>
