<?xml version="1.0" encoding="utf-8"?>
<!-- Generator: Adobe Illustrator 16.0.0, SVG Export Plug-In . SVG Version: 6.00 Build 0)  -->
<!DOCTYPE svg PUBLIC "-//W3C//DTD SVG 1.1//EN" "http://www.w3.org/Graphics/SVG/1.1/DTD/svg11.dtd">
<svg version="1.1" id="Layer_7" xmlns="http://www.w3.org/2000/svg" xmlns:xlink="http://www.w3.org/1999/xlink" x="0px" y="0px"
	 width="100px" height="100px" viewBox="0 0 100 100" enable-background="new 0 0 100 100" xml:space="preserve">
<path d="M39.277,54.326c-11.838-11.837-11.838-31.03,0-42.867l19.689,19.689l12.094-8.283c-0.533-0.777-0.848-1.717-0.848-2.731
	c0-2.672,2.165-4.837,4.837-4.837s4.837,2.165,4.837,4.837s-2.165,4.837-4.837,4.837c-1.029,0-1.979-0.327-2.764-0.875
	l-8.371,12.001l18.23,18.229C70.308,66.164,51.114,66.164,39.277,54.326z M41.072,59.304c-12.822,0-23.218,13.09-23.218,29.237
	h7.164c0.851-6.165,5.11-10.857,10.25-10.857c5.139,0,9.398,4.692,10.249,10.857H64.29C64.29,72.394,53.896,59.304,41.072,59.304z"
	/>
</svg>
