<?xml version="1.0" encoding="utf-8"?>
<!-- Generator: Adobe Illustrator 16.0.0, SVG Export Plug-In . SVG Version: 6.00 Build 0)  -->
<!DOCTYPE svg PUBLIC "-//W3C//DTD SVG 1.1//EN" "http://www.w3.org/Graphics/SVG/1.1/DTD/svg11.dtd">
<svg version="1.1" id="Layer_5" xmlns="http://www.w3.org/2000/svg" xmlns:xlink="http://www.w3.org/1999/xlink" x="0px" y="0px"
	 width="100px" height="100px" viewBox="0 0 100 100" enable-background="new 0 0 100 100" xml:space="preserve">
<path d="M93.917,42.502H6.083v16.83h87.833V42.502z M7.795,57.621V44.214h84.409v13.407H7.795z M90.78,56.195V45.502h-8.697v10.693
	H90.78z M84.147,46.627l5.629,4.222l-5.629,4.221V46.627z M17.727,56.195V45.502H9.029v10.693H17.727z M10.031,50.849l5.631-4.222
	v8.442L10.031,50.849z M34.833,54.982h30.703v-8.27H34.833V54.982z M46.775,53.641v-5.514H48.2v5.514H46.775z M50.125,53.641v-5.514
	h1.426v5.514H50.125z M54.688,48.057v5.514h-1.426v-5.514H54.688z"/>
</svg>
