<?xml version="1.0" encoding="utf-8"?>
<!-- Generator: Adobe Illustrator 16.0.0, SVG Export Plug-In . SVG Version: 6.00 Build 0)  -->
<!DOCTYPE svg PUBLIC "-//W3C//DTD SVG 1.1//EN" "http://www.w3.org/Graphics/SVG/1.1/DTD/svg11.dtd">
<svg version="1.1" id="Layer_6" xmlns="http://www.w3.org/2000/svg" xmlns:xlink="http://www.w3.org/1999/xlink" x="0px" y="0px"
	 width="100px" height="100px" viewBox="0 0 100 100" enable-background="new 0 0 100 100" xml:space="preserve">
<path d="M83.277,41.322c-0.901-3.449,0.226-12.299-0.005-16.326c-3.537-0.707-10.049-11.02-10.049-11.02S49.984,12.73,49.984,7.238
	c0,5.541-23.556,7.105-23.556,7.105s-6.327,10.219-9.731,10.9c-0.211,3.697,0.742,12.24-0.054,15.449
	C4.783,88.5,50.811,88.852,50.811,92.762C50.811,88.852,95.193,86.926,83.277,41.322z M71.289,49.49H55.576l-5.019-15.445
	C60.261,34.289,68.425,40.686,71.289,49.49z M49.362,34.049L44.344,49.49H28.688C31.547,40.703,39.684,34.316,49.362,34.049z
	 M27.583,56.422c0-1.867,0.253-3.672,0.684-5.406l12.605,9.158l-4.542,13.98C31.02,70.059,27.583,63.648,27.583,56.422z
	 M49.988,78.828c-4.371,0-8.438-1.271-11.886-3.438l11.858-8.615l11.882,8.635C58.402,77.563,54.348,78.828,49.988,78.828z
	 M63.602,74.189l-4.554-14.016l12.653-9.193c0.437,1.744,0.693,3.561,0.693,5.441C72.395,63.668,68.939,70.094,63.602,74.189z"/>
</svg>
