<?xml version="1.0" encoding="utf-8"?>
<!-- Generator: Adobe Illustrator 16.0.0, SVG Export Plug-In . SVG Version: 6.00 Build 0)  -->
<!DOCTYPE svg PUBLIC "-//W3C//DTD SVG 1.1//EN" "http://www.w3.org/Graphics/SVG/1.1/DTD/svg11.dtd">
<svg version="1.1" id="Layer_5" xmlns="http://www.w3.org/2000/svg" xmlns:xlink="http://www.w3.org/1999/xlink" x="0px" y="0px"
	 width="100px" height="100px" viewBox="0 0 100 100" enable-background="new 0 0 100 100" xml:space="preserve">
<path d="M77.442,53.696V33.254c0-1.105-0.899-2.004-2.004-2.004H41.734c-1.105,0-2.004,0.899-2.004,2.004v8.785H23.861
	c-1.105,0-2.004,0.899-2.004,2.005v20.441c0,1.105,0.899,2.005,2.004,2.005h33.704c1.105,0,2.004-0.899,2.004-2.005V55.7h15.869
	C76.543,55.7,77.442,54.801,77.442,53.696z M57.603,64.485c0,0.021-0.017,0.039-0.039,0.039l-33.742-0.039l0.038-20.48l33.742,0.039
	V64.485z M75.476,53.696c0,0.021-0.017,0.038-0.038,0.038l-15.869-0.018v-9.672c0-1.105-0.899-2.005-2.004-2.005H41.718l0.017-8.824
	l33.742,0.039V53.696z M12.359,49.959v-9c0-0.82,0.67-1.5,1.5-1.5s1.5,0.68,1.5,1.5v9c0,0.83-0.67,1.5-1.5,1.5
	S12.359,50.79,12.359,49.959z M86.939,26.37v9c0,0.83-0.67,1.5-1.5,1.5c-0.83,0-1.5-0.67-1.5-1.5v-9c0-0.83,0.67-1.5,1.5-1.5
	C86.269,24.87,86.939,25.54,86.939,26.37z M12.359,67.959v-9c0-0.82,0.67-1.5,1.5-1.5s1.5,0.68,1.5,1.5v9c0,0.83-0.67,1.5-1.5,1.5
	S12.359,68.79,12.359,67.959z M15.869,86.6c-0.28,0.38-0.72,0.6-1.2,0.6c-0.33,0-0.64-0.1-0.9-0.29c-0.88-0.66-1.41-1.71-1.41-2.81
	v-7.14c0-0.82,0.67-1.5,1.5-1.5s1.5,0.68,1.5,1.5v7.14c0,0.16,0.07,0.3,0.2,0.4C16.229,85,16.359,85.939,15.869,86.6z M27.349,10.1
	c0-0.83,0.68-1.5,1.5-1.5h9c0.83,0,1.5,0.67,1.5,1.5c0,0.83-0.67,1.5-1.5,1.5h-9C28.029,11.6,27.349,10.929,27.349,10.1z
	 M63.349,10.1c0-0.83,0.68-1.5,1.5-1.5h9c0.83,0,1.5,0.67,1.5,1.5c0,0.83-0.67,1.5-1.5,1.5h-9
	C64.029,11.6,63.349,10.929,63.349,10.1z M45.359,10.1c0-0.83,0.67-1.5,1.5-1.5h9c0.82,0,1.49,0.67,1.49,1.5
	c0,0.83-0.67,1.5-1.49,1.5h-9C46.029,11.6,45.359,10.929,45.359,10.1z M21.349,10.1c0,0.83-0.67,1.5-1.5,1.5h-3.99
	c-0.27,0-0.5,0.22-0.5,0.5v1.85v0.01c0,0.83-0.67,1.5-1.5,1.5s-1.5-0.67-1.5-1.5V12.1c0-1.93,1.57-3.5,3.5-3.5h3.99
	C20.679,8.6,21.349,9.27,21.349,10.1z M12.359,31.959v-9c0-0.82,0.67-1.49,1.5-1.49s1.5,0.67,1.5,1.49v9c0,0.83-0.67,1.5-1.5,1.5
	S12.359,32.79,12.359,31.959z M34.079,86.1c0,0.83-0.67,1.5-1.5,1.5h-9c-0.83,0-1.5-0.67-1.5-1.5c0-0.83,0.67-1.5,1.5-1.5h9
	C33.409,84.6,34.079,85.27,34.079,86.1z M86.939,44.37v9c0,0.83-0.67,1.5-1.5,1.5c-0.83,0-1.5-0.67-1.5-1.5v-9
	c0-0.82,0.67-1.5,1.5-1.5C86.269,42.87,86.939,43.549,86.939,44.37z M86.939,80.37v3.73c0,1.93-1.57,3.5-3.5,3.5h-5.86
	c-0.83,0-1.5-0.67-1.5-1.5c0-0.83,0.67-1.5,1.5-1.5h5.86c0.27,0,0.5-0.23,0.5-0.5v-3.73c0-0.82,0.67-1.5,1.5-1.5
	C86.269,78.87,86.939,79.549,86.939,80.37z M86.939,62.37v9c0,0.83-0.67,1.5-1.5,1.5c-0.83,0-1.5-0.67-1.5-1.5v-9
	c0-0.83,0.67-1.5,1.5-1.5C86.269,60.87,86.939,61.54,86.939,62.37z M86.939,12.1v5.27c0,0.83-0.67,1.5-1.5,1.5
	c-0.83,0-1.5-0.67-1.5-1.5V12.1c0-0.28-0.23-0.5-0.5-0.5h-0.59c-0.82,0-1.49-0.67-1.49-1.5c0-0.83,0.67-1.5,1.49-1.5h0.59
	C85.369,8.6,86.939,10.169,86.939,12.1z M52.079,86.1c0,0.83-0.67,1.5-1.5,1.5h-9c-0.83,0-1.5-0.67-1.5-1.5c0-0.83,0.67-1.5,1.5-1.5
	h9C51.409,84.6,52.079,85.27,52.079,86.1z M70.079,86.1c0,0.83-0.67,1.5-1.5,1.5h-9c-0.83,0-1.5-0.67-1.5-1.5
	c0-0.83,0.67-1.5,1.5-1.5h9C69.409,84.6,70.079,85.27,70.079,86.1z"/>
</svg>
