<?xml version="1.0" encoding="utf-8"?>
<!-- Generator: Adobe Illustrator 16.0.0, SVG Export Plug-In . SVG Version: 6.00 Build 0)  -->
<!DOCTYPE svg PUBLIC "-//W3C//DTD SVG 1.1//EN" "http://www.w3.org/Graphics/SVG/1.1/DTD/svg11.dtd">
<svg version="1.1" id="Layer_7" xmlns="http://www.w3.org/2000/svg" xmlns:xlink="http://www.w3.org/1999/xlink" x="0px" y="0px"
	 width="100px" height="100px" viewBox="0 0 100 100" enable-background="new 0 0 100 100" xml:space="preserve">
<path d="M43.105,35.95H10.127c-0.592,0-1.072,0.48-1.072,1.072v9.747c0,0.211,0.077,0.397,0.184,0.563
	c-0.106,0.166-0.184,0.352-0.184,0.563v9.747c0,0.212,0.078,0.398,0.184,0.564c-0.105,0.167-0.184,0.353-0.184,0.565v9.747
	c0,0.182,0.057,0.346,0.137,0.496c-0.08,0.15-0.137,0.313-0.137,0.495v9.746c0,0.594,0.48,1.072,1.072,1.072h32.979
	c0.592,0,1.072-0.479,1.072-1.072v-9.746c0-0.182-0.057-0.345-0.137-0.495c0.08-0.15,0.137-0.314,0.137-0.496v-9.747
	c0-0.213-0.078-0.398-0.184-0.565c0.105-0.166,0.184-0.353,0.184-0.564v-9.747c0-0.212-0.077-0.397-0.184-0.563
	c0.106-0.166,0.184-0.353,0.184-0.563v-9.747C44.178,36.431,43.697,35.95,43.105,35.95z M39.973,77.201H12.54V71.57h27.433V77.201z
	 M39.973,66.041H12.54v-5.63h27.433V66.041z M39.973,55.31H12.54v-5.63h27.433V55.31z M39.973,44.436H12.54v-5.63h27.433V44.436z
	 M90.945,51.293c0,8.543-6.95,15.492-15.492,15.492H47.489c0.198-0.482,0.32-1.004,0.32-1.558v-1.713h27.644
	c6.739,0,12.223-5.482,12.223-12.222s-5.483-12.221-12.223-12.221c-0.634,0-1.303,0.061-2.045,0.186l-1.045,0.176l-0.588-0.883
	c-2.276-3.419-6.082-5.461-10.178-5.461c-0.41,0-0.828,0.021-1.238,0.063l-1.379,0.14l-0.363-1.338
	c-1.441-5.307-6.286-9.015-11.781-9.015c-6.15,0-11.239,4.572-12.084,10.493h-3.305c0.863-7.73,7.432-13.763,15.389-13.763
	c6.519,0,12.313,4.111,14.531,10.151c4.941-0.062,9.549,2.189,12.523,6.068c0.539-0.059,1.057-0.088,1.563-0.088
	C83.995,35.802,90.945,42.751,90.945,51.293z M35.098,41.529c0-0.782,0.634-1.416,1.416-1.416s1.416,0.634,1.416,1.416
	s-0.634,1.417-1.416,1.417S35.098,42.312,35.098,41.529z M35.098,52.191c0-0.782,0.634-1.416,1.416-1.416s1.416,0.634,1.416,1.416
	s-0.634,1.417-1.416,1.417S35.098,52.974,35.098,52.191z M35.098,63.124c0-0.782,0.634-1.416,1.416-1.416s1.416,0.634,1.416,1.416
	s-0.634,1.417-1.416,1.417S35.098,63.906,35.098,63.124z M35.098,74.313c0-0.782,0.634-1.416,1.416-1.416s1.416,0.634,1.416,1.416
	s-0.634,1.417-1.416,1.417S35.098,75.096,35.098,74.313z"/>
</svg>
