<?xml version="1.0" encoding="utf-8"?>
<!-- Generator: Adobe Illustrator 16.0.0, SVG Export Plug-In . SVG Version: 6.00 Build 0)  -->
<!DOCTYPE svg PUBLIC "-//W3C//DTD SVG 1.1//EN" "http://www.w3.org/Graphics/SVG/1.1/DTD/svg11.dtd">
<svg version="1.1" id="Layer_4" xmlns="http://www.w3.org/2000/svg" xmlns:xlink="http://www.w3.org/1999/xlink" x="0px" y="0px"
	 width="100px" height="100px" viewBox="0 0 100 100" enable-background="new 0 0 100 100" xml:space="preserve">
<path d="M16.059,66.297v-5.129h17.795v5.129H16.059z M31.746,24.666c0.916,0,1.66-0.744,1.66-1.659c0-0.914-0.744-1.658-1.66-1.658
	c-0.914,0-1.658,0.744-1.658,1.658C30.088,23.922,30.832,24.666,31.746,24.666z M42.512,24.666c0.916,0,1.66-0.744,1.66-1.659
	c0-0.914-0.744-1.658-1.66-1.658c-0.914,0-1.658,0.744-1.658,1.658C40.854,23.922,41.598,24.666,42.512,24.666z M33.873,52.815
	c0.104-2.003,1.75-3.604,3.777-3.604h8.576v-1.524H16.059v5.129H33.873z M33.854,74.764H9.348V14.206h43.139v35.005h-3.545v-4.239
	H13.344V55.53h20.51v2.923h-20.51v10.559h20.51V74.764z M38.139,23.007c0,2.412,1.962,4.374,4.373,4.374
	c2.412,0,4.375-1.962,4.375-4.374c0-2.411-1.963-4.374-4.375-4.374C40.101,18.633,38.139,20.596,38.139,23.007z M27.373,23.007
	c0,2.412,1.962,4.374,4.373,4.374c2.412,0,4.375-1.962,4.375-4.374c0-2.411-1.963-4.374-4.375-4.374
	C29.335,18.633,27.373,20.596,27.373,23.007z M13.344,41.861h35.598V31.303H13.344V41.861z M16.059,34.018h30.168v5.129H16.059
	V34.018z M40.042,37.11h4.13v-1.433h-4.13V37.11z M90.652,55.928v26.366c0,1.93-1.57,3.5-3.5,3.5H40.354c-1.93,0-3.5-1.57-3.5-3.5
	V55.928c0-1.93,1.57-3.5,3.5-3.5h46.799C89.082,52.428,90.652,53.998,90.652,55.928z M42.438,55.428l21.441,14.18l20.325-14.18
	H42.438z M87.652,56.682L63.925,73.233L39.854,57.314v24.979c0,0.275,0.225,0.5,0.5,0.5h46.799c0.275,0,0.5-0.225,0.5-0.5V56.682z
	 M64.709,46.518c0.15,0.116,0.36,0.117,0.512,0.001c0.15-0.113,0.206-0.314,0.137-0.49l-2.073-5.253h3.618
	c0.787,0.04,3.374,0.307,5.129,2.03c1.235,1.211,1.835,2.917,1.835,5.218l5.037,0c0.001-3.672-1.123-6.638-3.344-8.814
	c-3.606-3.54-8.771-3.482-8.996-3.478v0.044c-0.354-0.031-0.609-0.045-0.609-0.045l-2.67-0.007l2.074-5.252
	c0.069-0.176,0.013-0.377-0.138-0.491c-0.075-0.057-0.165-0.084-0.253-0.084c-0.092,0-0.182,0.028-0.258,0.086l-10.318,7.934
	c-0.104,0.08-0.165,0.203-0.164,0.333c0,0.131,0.062,0.254,0.164,0.334L64.709,46.518z"/>
</svg>
