<?xml version="1.0" encoding="utf-8"?>
<!-- Generator: Adobe Illustrator 16.0.0, SVG Export Plug-In . SVG Version: 6.00 Build 0)  -->
<!DOCTYPE svg PUBLIC "-//W3C//DTD SVG 1.1//EN" "http://www.w3.org/Graphics/SVG/1.1/DTD/svg11.dtd">
<svg version="1.1" id="Layer_4" xmlns="http://www.w3.org/2000/svg" xmlns:xlink="http://www.w3.org/1999/xlink" x="0px" y="0px"
	 width="100px" height="100px" viewBox="0 0 100 100" enable-background="new 0 0 100 100" xml:space="preserve">
<path d="M18.906,61.396h17.795v5.129H18.906V61.396z M34.594,24.894c0.916,0,1.66-0.744,1.66-1.659c0-0.914-0.744-1.658-1.66-1.658
	c-0.914,0-1.658,0.744-1.658,1.658C32.936,24.149,33.68,24.894,34.594,24.894z M45.359,24.894c0.916,0,1.66-0.744,1.66-1.659
	c0-0.914-0.744-1.658-1.66-1.658c-0.914,0-1.658,0.744-1.658,1.658C43.701,24.149,44.445,24.894,45.359,24.894z M49.074,49.438
	v-1.524H18.906v5.129h17.814c0.104-2.003,1.75-3.604,3.777-3.604H49.074z M16.191,55.758h20.51v2.923h-20.51v10.559h20.51v5.752
	H12.195V14.434h43.139v35.005h-3.545v-4.239H16.191V55.758z M40.986,23.234c0,2.412,1.962,4.374,4.373,4.374
	c2.412,0,4.375-1.962,4.375-4.374c0-2.411-1.963-4.374-4.375-4.374C42.948,18.86,40.986,20.823,40.986,23.234z M30.221,23.234
	c0,2.412,1.962,4.374,4.373,4.374c2.412,0,4.375-1.962,4.375-4.374c0-2.411-1.963-4.374-4.375-4.374
	C32.183,18.86,30.221,20.823,30.221,23.234z M16.191,42.089h35.598V31.53H16.191V42.089z M18.906,34.245h30.168v5.129H18.906V34.245
	z M42.89,37.338h4.13v-1.433h-4.13V37.338z M93.5,56.155v26.366c0,1.93-1.57,3.5-3.5,3.5H43.201c-1.93,0-3.5-1.57-3.5-3.5V56.155
	c0-1.93,1.57-3.5,3.5-3.5H90C91.93,52.655,93.5,54.226,93.5,56.155z M45.286,55.655l21.441,14.179l20.325-14.179H45.286z
	 M90.5,82.521V56.909L66.772,73.46L42.701,57.542v24.979c0,0.276,0.225,0.5,0.5,0.5H90C90.275,83.021,90.5,82.797,90.5,82.521z"/>
</svg>
