<?xml version="1.0" encoding="utf-8"?>
<!-- Generator: Adobe Illustrator 16.0.0, SVG Export Plug-In . SVG Version: 6.00 Build 0)  -->
<!DOCTYPE svg PUBLIC "-//W3C//DTD SVG 1.1//EN" "http://www.w3.org/Graphics/SVG/1.1/DTD/svg11.dtd">
<svg version="1.1" id="Layer_4" xmlns="http://www.w3.org/2000/svg" xmlns:xlink="http://www.w3.org/1999/xlink" x="0px" y="0px"
	 width="100px" height="100px" viewBox="0 0 100 100" enable-background="new 0 0 100 100" xml:space="preserve">
<path d="M18.907,61.396h17.794v5.129H18.907V61.396z M34.594,24.894c0.915,0,1.659-0.744,1.659-1.659
	c0-0.914-0.744-1.658-1.659-1.658c-0.915,0-1.659,0.744-1.659,1.658C32.936,24.149,33.68,24.894,34.594,24.894z M45.36,24.894
	c0.915,0,1.659-0.744,1.659-1.659c0-0.914-0.744-1.658-1.659-1.658c-0.915,0-1.659,0.744-1.659,1.658
	C43.701,24.149,44.445,24.894,45.36,24.894z M49.075,49.438v-1.524H18.907v5.129h17.814c0.103-2.003,1.75-3.604,3.777-3.604H49.075z
	 M16.192,55.758h20.509v2.923H16.192v10.559h20.509v5.752H12.195V14.434h43.138v35.005H51.79v-4.239H16.192V55.758z M40.986,23.234
	c0,2.412,1.962,4.374,4.374,4.374c2.412,0,4.374-1.962,4.374-4.374c0-2.411-1.962-4.374-4.374-4.374
	C42.948,18.86,40.986,20.823,40.986,23.234z M30.221,23.234c0,2.412,1.962,4.374,4.374,4.374c2.412,0,4.374-1.962,4.374-4.374
	c0-2.411-1.962-4.374-4.374-4.374C32.183,18.86,30.221,20.823,30.221,23.234z M16.192,42.089H51.79V31.53H16.192V42.089z
	 M18.907,34.245h30.168v5.129H18.907V34.245z M42.89,37.338h4.129v-1.433H42.89V37.338z M87.805,53.025V84.27
	c0,0.716-0.581,1.297-1.297,1.297h-46.26c-0.716,0-1.297-0.581-1.297-1.297V53.025c0-0.716,0.581-1.297,1.297-1.297h46.26
	C87.224,51.729,87.805,52.31,87.805,53.025z M56.162,74.628H43.623v2.379h12.539V74.628z M56.162,69.873H43.623v2.378h12.539V69.873
	z M60.484,65.226H43.623v2.378h16.861V65.226z M82.696,64.522H66.97v16.861h1.007c-0.004-0.044-0.01-0.083-0.01-0.134
	c0,0,0.115-3.255,1.102-4.718c0,0,0.282-0.384,0.949-0.641c0,0,2.281-0.692,2.437-1.281c0,0,1.684,4.357,3.901-0.013
	c0,0,0.008,0.396,1.137,0.794c0,0,2.114,0.666,2.461,1.436c0,0,1.023,2.335,0.916,4.557h1.827V64.522z M84.48,57.227
	c0-0.716-0.582-1.296-1.298-1.296H43.624c-0.716,0-1.298,0.58-1.298,1.296v2.271c0,0.716,0.582,1.297,1.298,1.297h39.559
	c0.716,0,1.298-0.581,1.298-1.297V57.227z M71.663,71.837c0,0-0.29-1.042,0.136-0.841c-0.301-1.584-0.072-2.123-0.072-2.123
	c0.384-1.192,1.709-1.71,1.709-1.71s0.219-0.084,0.344-0.066c0.126,0.019,0.172,0.081,0.172,0.081l-0.004,0.018
	c0.075-0.275,0.303-0.43,0.4-0.485c0.128-0.155,0.266-0.227,0.266-0.227c-0.131,0.112-0.213,0.251-0.262,0.398
	c0.124-0.181,0.335-0.278,0.335-0.278c0,0.318,0.337,0.604,0.505,0.726l0.424,0.146c0.909,0.271,1.283,0.782,1.283,0.782
	c0.799,0.899,0.387,2.347,0.262,2.718c0.358-0.103,0.089,0.861,0.089,0.861c-0.044,0.277-0.159,0.398-0.231,0.45
	c-0.187,1.331-1.386,2.862-2.646,2.862c-1.097,0-2.307-1.456-2.478-2.862C71.824,72.235,71.707,72.115,71.663,71.837z
	 M74.114,67.083l0.048,0.018c0.025-0.137,0.081-0.249,0.146-0.339C74.212,66.857,74.15,66.967,74.114,67.083z"/>
</svg>
