<?xml version="1.0" encoding="utf-8"?>
<!-- Generator: Adobe Illustrator 16.0.0, SVG Export Plug-In . SVG Version: 6.00 Build 0)  -->
<!DOCTYPE svg PUBLIC "-//W3C//DTD SVG 1.1//EN" "http://www.w3.org/Graphics/SVG/1.1/DTD/svg11.dtd">
<svg version="1.1" id="Layer_7" xmlns="http://www.w3.org/2000/svg" xmlns:xlink="http://www.w3.org/1999/xlink" x="0px" y="0px"
	 width="100px" height="100px" viewBox="0 0 100 100" enable-background="new 0 0 100 100" xml:space="preserve">
<path d="M85.353,53.017c0,8.543-6.95,15.492-15.492,15.492H41.896c0.198-0.482,0.32-1.004,0.32-1.558v-1.713H69.86
	c6.739,0,12.222-5.482,12.222-12.222S76.6,40.796,69.86,40.796c-0.634,0-1.303,0.061-2.045,0.186l-1.045,0.176l-0.588-0.883
	c-2.276-3.419-6.082-5.461-10.179-5.461c-0.409,0-0.827,0.021-1.237,0.063l-1.379,0.14l-0.363-1.338
	c-1.442-5.307-6.286-9.015-11.781-9.015c-6.15,0-11.239,4.572-12.084,10.493h-3.305c0.863-7.73,7.432-13.763,15.389-13.763
	c6.519,0,12.313,4.111,14.53,10.151c4.942-0.062,9.55,2.189,12.524,6.068c0.539-0.059,1.056-0.088,1.563-0.088
	C78.402,37.525,85.353,44.475,85.353,53.017z M40.392,38.375v38.355c0,1.036-0.886,1.875-1.979,1.875H16.628
	c-1.094,0-1.98-0.84-1.98-1.875V38.375c0-1.036,0.887-1.875,1.98-1.875h21.784C39.506,36.5,40.392,37.34,40.392,38.375z
	 M23.029,40.402c0,0.31,0.251,0.561,0.562,0.561h7.634c0.31,0,0.562-0.251,0.562-0.561s-0.252-0.561-0.562-0.561h-7.634
	C23.28,39.841,23.029,40.092,23.029,40.402z M30.381,73.591c0-1.302-1.056-2.357-2.357-2.357s-2.357,1.056-2.357,2.357
	c0,1.302,1.056,2.357,2.357,2.357S30.381,74.894,30.381,73.591z M37.813,44.443H17.271V68.69h20.543V44.443z"/>
</svg>
