<?xml version="1.0" encoding="utf-8"?>
<!-- Generator: Adobe Illustrator 16.0.0, SVG Export Plug-In . SVG Version: 6.00 Build 0)  -->
<!DOCTYPE svg PUBLIC "-//W3C//DTD SVG 1.1//EN" "http://www.w3.org/Graphics/SVG/1.1/DTD/svg11.dtd">
<svg version="1.1" id="Layer_5" xmlns="http://www.w3.org/2000/svg" xmlns:xlink="http://www.w3.org/1999/xlink" x="0px" y="0px"
	 width="100px" height="100px" viewBox="0 0 100 100" enable-background="new 0 0 100 100" xml:space="preserve">
<path d="M41.778,31.241v37.518l11.36-4.488c0.381-0.149,0.815-0.027,1.063,0.298c0.122,0.164,0.183,0.358,0.183,0.549
	c0,0.194-0.063,0.391-0.189,0.555L37.037,87.99c-0.173,0.224-0.44,0.355-0.722,0.355c-0.282,0-0.55-0.132-0.723-0.355L18.437,65.672
	c-0.252-0.325-0.253-0.775-0.006-1.104c0.246-0.325,0.68-0.447,1.061-0.298l11.361,4.488V31.241l-11.36,4.488
	c-0.381,0.149-0.815,0.027-1.063-0.298c-0.122-0.164-0.183-0.358-0.183-0.549c0-0.194,0.063-0.391,0.189-0.555L35.593,12.01
	c0.173-0.224,0.44-0.355,0.722-0.355c0.282,0,0.55,0.132,0.723,0.355l17.156,22.318c0.252,0.325,0.253,0.775,0.006,1.104
	c-0.246,0.325-0.68,0.447-1.061,0.298L41.778,31.241z M69.209,61.936c-2.979,0-5.141,1.96-5.141,4.66
	c0,2.628,2.184,4.609,5.08,4.609c2.979,0,5.141-1.938,5.141-4.609C74.289,63.896,72.152,61.936,69.209,61.936z M70.119,31.046
	c-3.497,0-7.207,0.872-9.451,2.222l-1.152,0.692l2.733,5.93l1.445-0.907c1.263-0.793,3.406-1.325,5.313-1.325
	c1.955,0.025,4.285,0.535,4.285,2.813c0,1.534-1.028,3.105-3.805,5.807c-4.031,3.999-4.505,7.614-4.199,9.881l0.248,2.665h7.673
	l-0.137-2.91c-0.153-2.159,0.719-3.954,3.014-6.197c3.211-3.151,5.668-5.873,5.668-9.797C81.753,35.502,78.156,31.046,70.119,31.046
	z"/>
</svg>
