<?xml version="1.0" encoding="utf-8"?>
<!-- Generator: Adobe Illustrator 16.0.0, SVG Export Plug-In . SVG Version: 6.00 Build 0)  -->
<!DOCTYPE svg PUBLIC "-//W3C//DTD SVG 1.1//EN" "http://www.w3.org/Graphics/SVG/1.1/DTD/svg11.dtd">
<svg version="1.1" id="Layer_5" xmlns="http://www.w3.org/2000/svg" xmlns:xlink="http://www.w3.org/1999/xlink" x="0px" y="0px"
	 width="100px" height="100px" viewBox="0 0 100 100" enable-background="new 0 0 100 100" xml:space="preserve">
<path d="M59.483,40.042l-11.361-4.488v47.57c0,0.503-0.408,0.909-0.91,0.909h-9.105c-0.502,0-0.91-0.406-0.91-0.909v-47.57
	l-11.36,4.488c-0.381,0.149-0.815,0.027-1.063-0.298c-0.122-0.164-0.183-0.358-0.183-0.549c0-0.194,0.063-0.391,0.189-0.555
	l17.157-22.318c0.173-0.224,0.44-0.355,0.722-0.355c0.282,0,0.55,0.132,0.723,0.355l17.156,22.318
	c0.252,0.325,0.253,0.775,0.006,1.104C60.298,40.069,59.864,40.191,59.483,40.042z M75.409,78.5v-5.25h-21v5.25H75.409z"/>
</svg>
