<?xml version="1.0" encoding="utf-8"?>
<!-- Generator: Adobe Illustrator 16.0.0, SVG Export Plug-In . SVG Version: 6.00 Build 0)  -->
<!DOCTYPE svg PUBLIC "-//W3C//DTD SVG 1.1//EN" "http://www.w3.org/Graphics/SVG/1.1/DTD/svg11.dtd">
<svg version="1.1" id="Layer_5" xmlns="http://www.w3.org/2000/svg" xmlns:xlink="http://www.w3.org/1999/xlink" x="0px" y="0px"
	 width="100px" height="100px" viewBox="0 0 100 100" enable-background="new 0 0 100 100" xml:space="preserve">
<path d="M68.068,39.195c0,0.19-0.06,0.385-0.183,0.549c-0.247,0.325-0.682,0.447-1.063,0.298l-11.359-4.488v47.57
	c0,0.503-0.409,0.909-0.911,0.909h-9.105c-0.502,0-0.909-0.406-0.909-0.909v-47.57l-11.361,4.488
	c-0.381,0.149-0.815,0.027-1.062-0.298c-0.247-0.328-0.245-0.778,0.006-1.104l17.157-22.318c0.172-0.224,0.439-0.355,0.723-0.355
	c0.281,0,0.549,0.132,0.721,0.355l17.157,22.318C68.006,38.805,68.068,39.001,68.068,39.195z"/>
</svg>
