<?xml version="1.0" encoding="utf-8"?>
<!-- Generator: Adobe Illustrator 16.0.0, SVG Export Plug-In . SVG Version: 6.00 Build 0)  -->
<!DOCTYPE svg PUBLIC "-//W3C//DTD SVG 1.1//EN" "http://www.w3.org/Graphics/SVG/1.1/DTD/svg11.dtd">
<svg version="1.1" id="Layer_5" xmlns="http://www.w3.org/2000/svg" xmlns:xlink="http://www.w3.org/1999/xlink" x="0px" y="0px"
	 width="100px" height="100px" viewBox="0 0 100 100" enable-background="new 0 0 100 100" xml:space="preserve">
<path d="M57.686,34.977l-11.359-4.488v47.57c0,0.503-0.408,0.909-0.911,0.909h-9.104c-0.503,0-0.91-0.406-0.91-0.909v-47.57
	l-11.361,4.488c-0.381,0.149-0.814,0.027-1.061-0.298c-0.248-0.328-0.246-0.778,0.005-1.104l17.157-22.318
	c0.172-0.224,0.439-0.355,0.723-0.355c0.281,0,0.549,0.132,0.721,0.355l17.158,22.318c0.127,0.164,0.189,0.36,0.189,0.555
	c0,0.19-0.061,0.385-0.184,0.549C58.501,35.004,58.066,35.126,57.686,34.977z M51.248,78.52h25.958v-6H51.248V78.52z M58.932,68.353
	h18.274v-6H58.932V68.353z M68.069,58.103h9.137v-6h-9.137V58.103z"/>
</svg>
