<?xml version="1.0" encoding="utf-8"?>
<!-- Generator: Adobe Illustrator 16.0.0, SVG Export Plug-In . SVG Version: 6.00 Build 0)  -->
<!DOCTYPE svg PUBLIC "-//W3C//DTD SVG 1.1//EN" "http://www.w3.org/Graphics/SVG/1.1/DTD/svg11.dtd">
<svg version="1.1" id="Layer_6" xmlns="http://www.w3.org/2000/svg" xmlns:xlink="http://www.w3.org/1999/xlink" x="0px" y="0px"
	 width="100px" height="100px" viewBox="0 0 100 100" enable-background="new 0 0 100 100" xml:space="preserve">
<path d="M45.954,83v-8.09h10.655l-1.963-2.555h-8.692v-8.389h19.163v4.688l2.406,0.951V43.13c0-0.334,0.062-0.652,0.148-0.958
	v-1.753h1.142c0.614-0.512,1.394-0.832,2.255-0.832h10.437c0.86,0,1.64,0.32,2.254,0.832h3.571V50h-2.281v2.555h2.281v8.857h-2.281
	v2.555h2.281v4.737l2.555-1.009V17.354c0-1.643-1.337-2.98-2.98-2.98H13.096c-1.644,0-2.98,1.338-2.98,2.98v65.293
	c0,1.009,0.507,1.899,1.277,2.439v0.47h1.069c0.205,0.044,0.416,0.071,0.634,0.071h51.752L62.828,83H45.954z M67.672,16.928h19.232
	c0.234,0,0.426,0.191,0.426,0.426v8.588H67.672V16.928z M67.672,28.496H87.33v9.368H67.672V28.496z M45.954,16.928h19.163v9.014
	H45.954V16.928z M45.954,28.496h19.163v9.368H45.954V28.496z M45.954,40.419h19.163V50H45.954V40.419z M45.954,52.555h19.163v8.857
	H45.954V52.555z M21.896,83h-9.021c-0.12-0.074-0.205-0.202-0.205-0.354V74.91h9.226V83z M21.896,72.355H12.67v-8.389h9.226V72.355z
	 M21.896,61.412H12.67v-8.857h9.226V61.412z M21.896,50H12.67v-9.581h9.226V50z M21.896,37.864H12.67v-9.368h9.226V37.864z
	 M43.399,83H24.45v-8.09h18.949V83z M43.399,72.355H24.45v-8.389h18.949V72.355z M43.399,61.412H24.45v-8.857h18.949V61.412z
	 M43.399,50H24.45v-9.581h18.949V50z M43.399,37.864H24.45v-9.368h18.949V37.864z M43.399,25.941H24.45v-9.014h18.949V25.941z
	 M96.282,68.993L76.615,94.577c-0.199,0.256-0.505,0.407-0.829,0.407c-0.323,0-0.63-0.151-0.828-0.407L55.291,68.993
	c-0.145-0.188-0.218-0.412-0.218-0.636c0-0.222,0.07-0.442,0.21-0.629c0.281-0.374,0.782-0.515,1.217-0.342l13.023,5.145V42.38
	c0-0.577,0.467-1.043,1.045-1.043h10.437c0.576,0,1.044,0.467,1.044,1.043v30.15l13.022-5.145c0.438-0.173,0.936-0.032,1.218,0.342
	C96.571,68.103,96.57,68.62,96.282,68.993z"/>
</svg>
