<?xml version="1.0" encoding="utf-8"?>
<!-- Generator: Adobe Illustrator 16.0.0, SVG Export Plug-In . SVG Version: 6.00 Build 0)  -->
<!DOCTYPE svg PUBLIC "-//W3C//DTD SVG 1.1//EN" "http://www.w3.org/Graphics/SVG/1.1/DTD/svg11.dtd">
<svg version="1.1" id="Layer_6" xmlns="http://www.w3.org/2000/svg" xmlns:xlink="http://www.w3.org/1999/xlink" x="0px" y="0px"
	 width="100px" height="100px" viewBox="0 0 100 100" enable-background="new 0 0 100 100" xml:space="preserve">
<path d="M16.59,64.363l17.157,9.044c-0.185,0.058-0.373,0.107-0.564,0.144l-9.41,1.767c-2.733,0.514-5.367-1.288-5.882-4.022
	L16.59,64.363z M96.25,24.595H85.296v0.029h-3.802v5.038h5.083l-0.002,13.657l-6.887,6.887l0.037-7.7l-7.207,1.66l-0.187-0.997
	L3.75,56.047l34.483,17.104l38.374-7.205l-0.2-1.072l3.217-0.604l0.036-7.49l0.292,0.29l11.662-11.662V29.634h4.636V24.595z"/>
</svg>
