<?xml version="1.0" encoding="utf-8"?>
<!-- Generator: Adobe Illustrator 16.0.0, SVG Export Plug-In . SVG Version: 6.00 Build 0)  -->
<!DOCTYPE svg PUBLIC "-//W3C//DTD SVG 1.1//EN" "http://www.w3.org/Graphics/SVG/1.1/DTD/svg11.dtd">
<svg version="1.1" id="Layer_5" xmlns="http://www.w3.org/2000/svg" xmlns:xlink="http://www.w3.org/1999/xlink" x="0px" y="0px"
	 width="100px" height="100px" viewBox="0 0 100 100" enable-background="new 0 0 100 100" xml:space="preserve">
<path d="M22.418,49.021l2.563,2.563l-0.892,0.893l-2.564-2.563l-2.564,2.563l-0.892-0.893l2.563-2.563l-2.563-2.563l0.893-0.893
	l2.563,2.563l2.564-2.563l0.892,0.893L22.418,49.021z M24.981,59.919l-0.892-0.893l-2.564,2.563l-2.563-2.563l-0.893,0.893
	l2.563,2.563l-2.563,2.563l0.892,0.893l2.564-2.563l2.564,2.563l0.892-0.893l-2.563-2.563L24.981,59.919z M86.629,19.563v60.875
	c0,2.139-1.732,3.869-3.869,3.869H17.24c-2.137,0-3.869-1.73-3.869-3.869V19.563c0-2.137,1.732-3.869,3.869-3.869h65.52
	C84.896,15.693,86.629,17.426,86.629,19.563z M27.172,70.57H16.467v9.094h10.705V70.57z M27.172,56.643H16.467V68.25h10.705V56.643z
	 M27.172,43.486H16.467V54.32h10.705V43.486z M27.172,31.686H16.467v9.479h10.705V31.686z M42.262,70.57H29.493v9.094h12.769V70.57z
	 M42.262,56.643H29.493V68.25h12.769V56.643z M42.262,43.486H29.493V54.32h12.769V43.486z M42.262,31.686H29.493v9.479h12.769
	V31.686z M56.191,70.57H44.583v9.094h11.608V70.57z M56.191,56.643H44.583V68.25h11.608V56.643z M56.191,43.486H44.583V54.32h11.608
	V43.486z M56.191,31.686H44.583v9.479h11.608V31.686z M69.346,70.57H58.512v9.094h10.834V70.57z M69.346,56.643H58.512V68.25h10.834
	V56.643z M69.346,43.486H58.512V54.32h10.834V43.486z M69.346,31.686H58.512v9.479h10.834V31.686z M83.533,70.57H71.668v9.094
	h11.865V70.57z M83.533,56.643H71.668V68.25h11.865V56.643z M83.533,43.486H71.668V54.32h11.865V43.486z M83.533,31.686H71.668
	v9.479h11.865V31.686z M61.438,39.644l2.564-2.563l2.564,2.563l0.892-0.893l-2.563-2.563l2.563-2.563l-0.892-0.893l-2.564,2.563
	l-2.563-2.563l-0.893,0.893l2.563,2.563l-2.563,2.563L61.438,39.644z M75.002,39.644l2.563-2.563l2.563,2.563l0.893-0.893
	l-2.563-2.563l2.563-2.563l-0.893-0.893l-2.563,2.563l-2.563-2.563l-0.893,0.893l2.563,2.563l-2.563,2.563L75.002,39.644z
	 M33.239,52.477l2.563-2.563l2.564,2.563l0.893-0.893l-2.564-2.563l2.564-2.563l-0.893-0.893l-2.564,2.563l-2.563-2.563
	l-0.893,0.893l2.563,2.563l-2.563,2.563L33.239,52.477z M47.989,52.477l2.563-2.563l2.564,2.563l0.893-0.893l-2.564-2.563
	l2.564-2.563l-0.893-0.893l-2.564,2.563l-2.563-2.563l-0.893,0.893l2.563,2.563l-2.563,2.563L47.989,52.477z M61.438,52.477
	l2.564-2.563l2.564,2.563l0.892-0.893l-2.563-2.563l2.563-2.563l-0.892-0.893l-2.564,2.563l-2.563-2.563l-0.893,0.893l2.563,2.563
	l-2.563,2.563L61.438,52.477z M75.002,52.477l2.563-2.563l2.563,2.563l0.893-0.893l-2.563-2.563l2.563-2.563l-0.893-0.893
	l-2.563,2.563l-2.563-2.563l-0.893,0.893l2.563,2.563l-2.563,2.563L75.002,52.477z M33.239,65.938l2.563-2.563l2.564,2.563
	l0.893-0.893l-2.564-2.563l2.564-2.563l-0.893-0.893l-2.564,2.563l-2.563-2.563l-0.893,0.893l2.563,2.563l-2.563,2.563
	L33.239,65.938z M47.989,65.938l2.563-2.563l2.564,2.563l0.893-0.893l-2.564-2.563l2.564-2.563l-0.893-0.893l-2.564,2.563
	l-2.563-2.563l-0.893,0.893l2.563,2.563l-2.563,2.563L47.989,65.938z M61.438,65.938l2.564-2.563l2.564,2.563l0.892-0.893
	l-2.563-2.563l2.563-2.563l-0.892-0.893l-2.564,2.563l-2.563-2.563l-0.893,0.893l2.563,2.563l-2.563,2.563L61.438,65.938z"/>
</svg>
