<?xml version="1.0" encoding="utf-8"?>
<!-- Generator: Adobe Illustrator 16.0.0, SVG Export Plug-In . SVG Version: 6.00 Build 0)  -->
<!DOCTYPE svg PUBLIC "-//W3C//DTD SVG 1.1//EN" "http://www.w3.org/Graphics/SVG/1.1/DTD/svg11.dtd">
<svg version="1.1" id="Layer_5" xmlns="http://www.w3.org/2000/svg" xmlns:xlink="http://www.w3.org/1999/xlink" x="0px" y="0px"
	 width="100px" height="100px" viewBox="0 0 100 100" enable-background="new 0 0 100 100" xml:space="preserve">
<path d="M25.161,8.379c0-0.28,0.216-0.507,0.481-0.507h5.622c0.266,0,0.481,0.228,0.481,0.507c0,0.279-0.216,0.505-0.481,0.505
	h-5.622C25.377,8.885,25.161,8.659,25.161,8.379z M82.065,33.796l-0.419,0.788l0.419,0.845v9.799c0,0.341-0.264,0.619-0.59,0.619
	c-0.324,0-0.586-0.277-0.586-0.619v42.175c0,2.605-2.019,4.726-4.499,4.726H22.431c-2.48,0-4.497-2.121-4.497-4.726V13.741
	c0-2.605,2.017-4.725,4.497-4.725H76.39c2.48,0,4.499,2.12,4.499,4.725V23.85c0-0.342,0.262-0.619,0.586-0.619
	c0.327,0,0.59,0.276,0.59,0.619V33.796z M51.498,85.169c0-1.212-0.934-2.194-2.088-2.194c-1.152,0-2.088,0.982-2.088,2.194
	c0,1.212,0.936,2.194,2.088,2.194C50.563,87.363,51.498,86.381,51.498,85.169z M77.034,13.741c0-0.372-0.289-0.675-0.644-0.675
	H22.431c-0.354,0-0.644,0.303-0.644,0.675v65.222c0,0.373,0.289,0.675,0.644,0.675H76.39c0.355,0,0.644-0.302,0.644-0.675V13.741z
	 M50,42.61c-3.016,0-5.469,2.453-5.469,5.469c0,1.339,0.489,2.628,1.378,3.628c0.343,0.386,0.935,0.422,1.323,0.079
	c0.387-0.344,0.423-0.937,0.078-1.324c-0.583-0.657-0.904-1.503-0.904-2.383c0-1.982,1.612-3.594,3.594-3.594
	s3.594,1.612,3.594,3.594c0,0.895-0.331,1.752-0.932,2.414c-0.348,0.384-0.32,0.977,0.064,1.324c0.18,0.164,0.405,0.244,0.63,0.244
	c0.255,0,0.509-0.104,0.694-0.307c0.915-1.008,1.419-2.313,1.419-3.675C55.469,45.063,53.016,42.61,50,42.61z M50,34.954
	c-7.237,0-13.125,5.888-13.125,13.125c0,3.417,1.307,6.653,3.679,9.112c0.184,0.191,0.429,0.287,0.674,0.287
	c0.234,0,0.469-0.087,0.651-0.263c0.373-0.359,0.383-0.953,0.024-1.326c-2.033-2.107-3.153-4.881-3.153-7.81
	c0-6.204,5.047-11.25,11.25-11.25s11.25,5.046,11.25,11.25c0,2.929-1.119,5.703-3.152,7.81c-0.359,0.373-0.349,0.966,0.023,1.326
	c0.373,0.359,0.966,0.349,1.325-0.024c2.373-2.458,3.679-5.695,3.679-9.112C63.125,40.841,57.237,34.954,50,34.954z M50,26.829
	c-11.718,0-21.25,9.533-21.25,21.25c0,5.589,2.153,10.867,6.062,14.861c0.362,0.37,0.956,0.376,1.326,0.015
	c0.371-0.362,0.376-0.956,0.015-1.326c-3.564-3.641-5.527-8.454-5.527-13.55c0-10.684,8.691-19.375,19.375-19.375
	s19.375,8.691,19.375,19.375c0,5.097-1.963,9.909-5.527,13.55c-0.362,0.371-0.356,0.964,0.015,1.326
	c0.182,0.179,0.419,0.268,0.655,0.268c0.243,0,0.487-0.094,0.67-0.281c3.909-3.994,6.062-9.272,6.062-14.862
	C71.25,36.361,61.718,26.829,50,26.829z"/>
</svg>
