<?xml version="1.0" encoding="utf-8"?>
<!-- Generator: Adobe Illustrator 16.0.0, SVG Export Plug-In . SVG Version: 6.00 Build 0)  -->
<!DOCTYPE svg PUBLIC "-//W3C//DTD SVG 1.1//EN" "http://www.w3.org/Graphics/SVG/1.1/DTD/svg11.dtd">
<svg version="1.1" id="Layer_5" xmlns="http://www.w3.org/2000/svg" xmlns:xlink="http://www.w3.org/1999/xlink" x="0px" y="0px"
	 width="100px" height="100px" viewBox="0 0 100 100" enable-background="new 0 0 100 100" xml:space="preserve">
<path d="M40.481,27.417v-5.831c0-2.914-2.372-5.285-5.287-5.285H21.556c-2.915,0-5.287,2.371-5.287,5.285v56.828
	c0,2.914,2.372,5.285,5.287,5.285h56.889c2.915,0,5.287-2.371,5.287-5.285V27.559L40.481,27.417z M77.689,77.658H22.311V32.473
	h55.379V77.658z M60.576,26.052l-16.202-0.001v-3.923c0-1.95,1.587-3.536,3.537-3.536h9.127c1.95,0,3.538,1.586,3.538,3.536V26.052z
	 M81.617,26.052l-16.202-0.001v-3.923c0-1.95,1.587-3.536,3.537-3.536h9.127c1.95,0,3.538,1.586,3.538,3.536V26.052z"/>
</svg>
