<?xml version="1.0" encoding="utf-8"?>
<!-- Generator: Adobe Illustrator 16.0.0, SVG Export Plug-In . SVG Version: 6.00 Build 0)  -->
<!DOCTYPE svg PUBLIC "-//W3C//DTD SVG 1.1//EN" "http://www.w3.org/Graphics/SVG/1.1/DTD/svg11.dtd">
<svg version="1.1" id="Layer_7" xmlns="http://www.w3.org/2000/svg" xmlns:xlink="http://www.w3.org/1999/xlink" x="0px" y="0px"
	 width="100px" height="100px" viewBox="0 0 100 100" enable-background="new 0 0 100 100" xml:space="preserve">
<path d="M79.991,74.276c-1.415,2.719-12.097,20.194-41.076-7.694C8.366,37.179,19.476,24.497,24.718,20.774v-0.009
	c0.083-0.059,0.168-0.108,0.253-0.165c0.148-0.102,0.288-0.193,0.424-0.279c0.059-0.035,0.119-0.077,0.179-0.113
	c0.753-0.462,1.251-0.674,1.251-0.674s0,0.017,0.002,0.042c3.684-1.587,7.65-0.921,9.142,2.284l3.03,7.359
	c1.778,3.821-0.256,9.404-4.544,12.474l-0.347,0.248c4.586,8.124,12.046,16.957,24.165,23.729l0.58-0.812
	c3.068-4.289,8.651-6.321,12.472-4.545l6.82,3.569C81.873,65.618,82.806,70.065,79.991,74.276z M72.017,27.59h-15.01
	c-0.572,0-1.035,0.464-1.035,1.036c0,0.571,0.463,1.035,1.035,1.035h15.01c0.571,0,1.035-0.464,1.035-1.035
	C73.052,28.054,72.588,27.59,72.017,27.59z M72.017,33.767h-15.01c-0.572,0-1.035,0.463-1.035,1.035s0.463,1.035,1.035,1.035h15.01
	c0.571,0,1.035-0.463,1.035-1.035S72.588,33.767,72.017,33.767z M80.729,31.281c0,4.636-2.921,8.985-7.648,11.429
	c-3.491,7.005-11.469,7.21-12.381,7.21h0l-0.127-0.001c-0.452-0.015-0.843-0.32-0.966-0.756c-0.122-0.434,0.051-0.898,0.429-1.146
	c1.486-0.972,2.673-2.077,3.547-3.3c-8.512-0.401-15.289-6.274-15.289-13.437c0-7.42,7.275-13.456,16.218-13.456
	C73.454,17.825,80.729,23.861,80.729,31.281z M78.659,31.281c0-6.277-6.347-11.386-14.147-11.386
	c-7.801,0-14.147,5.108-14.147,11.386c0,6.279,6.346,11.389,14.147,11.389c0.28,0,0.558-0.009,0.833-0.022
	c0.016-0.001,0.034-0.001,0.05-0.001c0.345,0,0.669,0.173,0.862,0.462c0.202,0.303,0.229,0.69,0.072,1.02
	c-0.556,1.162-1.312,2.245-2.261,3.238c2.452-0.656,5.601-2.208,7.294-5.858c0.1-0.214,0.271-0.389,0.483-0.492
	C76.112,38.924,78.659,35.285,78.659,31.281z"/>
</svg>
