<?xml version="1.0" encoding="utf-8"?>
<!-- Generator: Adobe Illustrator 16.0.0, SVG Export Plug-In . SVG Version: 6.00 Build 0)  -->
<!DOCTYPE svg PUBLIC "-//W3C//DTD SVG 1.1//EN" "http://www.w3.org/Graphics/SVG/1.1/DTD/svg11.dtd">
<svg version="1.1" id="Layer_7" xmlns="http://www.w3.org/2000/svg" xmlns:xlink="http://www.w3.org/1999/xlink" x="0px" y="0px"
	 width="100px" height="100px" viewBox="0 0 100 100" enable-background="new 0 0 100 100" xml:space="preserve">
<path d="M71.613,79.463c-2.434,0-4.413,1.98-4.413,4.414s1.979,4.412,4.413,4.412c2.433,0,4.413-1.979,4.413-4.412
	S74.046,79.463,71.613,79.463z M71.613,86.289c-1.331,0-2.413-1.082-2.413-2.412c0-1.332,1.083-2.414,2.413-2.414
	c1.33,0,2.413,1.082,2.413,2.414C74.026,85.207,72.943,86.289,71.613,86.289z M88.516,61.643c0-5.504-4.477-9.98-9.98-9.98
	c-0.288,0-0.572,0.02-0.854,0.043c4.44-2.564,7.443-7.352,7.443-12.838c0-8.174-6.65-14.824-14.824-14.824
	c-0.677,0-1.354,0.047-2.021,0.137c-1.889-7.281-8.521-12.469-16.128-12.469c-5.044,0-9.703,2.223-12.888,6.127
	c-1.902-0.527-3.871-0.795-5.862-0.795c-12.085,0-21.917,9.832-21.917,21.918c0,12.084,9.832,21.916,21.917,21.916
	c3.576,0,7.112-0.891,10.283-2.582c2.837,3.615,7.183,5.748,11.8,5.748c6.514,0,12.259-4.221,14.252-10.363
	c0.187,0.008,0.375,0.012,0.564,0.012c0.867,0,1.712-0.09,2.539-0.232c-2.585,1.805-4.284,4.797-4.284,8.184
	c0,5.434,4.369,9.859,9.779,9.969c-2.359,0.68-4.092,2.854-4.092,5.43c0,3.117,2.536,5.652,5.653,5.652s5.653-2.535,5.653-5.652
	c0-2.908-2.207-5.309-5.033-5.619C85.073,70.502,88.516,66.467,88.516,61.643z M69.098,51.631l-0.843-0.078l-0.217,0.818
	c-1.506,5.695-6.668,9.672-12.553,9.672c-4.265,0-8.264-2.102-10.696-5.621l-0.528-0.764l-0.801,0.471
	c-3.062,1.797-6.54,2.748-10.058,2.748c-10.982,0-19.917-8.936-19.917-19.916c0-10.982,8.935-19.918,19.917-19.918
	c2.022,0,4.019,0.303,5.933,0.9l0.673,0.209l0.423-0.564c2.806-3.734,7.078-5.877,11.72-5.877c6.981,0,13.031,4.965,14.383,11.809
	l0.195,0.986l0.986-0.201c0.844-0.174,1.714-0.262,2.585-0.262c7.071,0,12.824,5.754,12.824,12.824
	c0,7.072-5.753,12.824-12.824,12.824C69.895,51.691,69.494,51.668,69.098,51.631z M83.549,77.041c0,2.014-1.639,3.652-3.653,3.652
	s-3.653-1.639-3.653-3.652c0-2.016,1.639-3.654,3.653-3.654S83.549,75.025,83.549,77.041z M78.536,69.621
	c-4.4,0-7.979-3.578-7.979-7.979s3.58-7.98,7.979-7.98c4.4,0,7.98,3.58,7.98,7.98S82.936,69.621,78.536,69.621z"/>
</svg>
