<?xml version="1.0" encoding="utf-8"?>
<!-- Generator: Adobe Illustrator 16.0.0, SVG Export Plug-In . SVG Version: 6.00 Build 0)  -->
<!DOCTYPE svg PUBLIC "-//W3C//DTD SVG 1.1//EN" "http://www.w3.org/Graphics/SVG/1.1/DTD/svg11.dtd">
<svg version="1.1" id="Layer_5" xmlns="http://www.w3.org/2000/svg" xmlns:xlink="http://www.w3.org/1999/xlink" x="0px" y="0px"
	 width="100px" height="100px" viewBox="0 0 100 100" enable-background="new 0 0 100 100" xml:space="preserve">
<path d="M72.287,23.782H14.025v-6.356h58.262V23.782z M14.025,82.574h58.262v-6.356H14.025V82.574z M85.975,62.301
	c-1.536,0.362-2.945,0.729-4.229,1.064c-2.807,0.732-5.046,1.317-6.743,1.317c-1.15,0-2.05-0.268-2.71-0.941
	c-1.621-1.657-1.337-5.265,1.085-13.786c1.57-5.527,1.259-9.886-0.928-12.955c-2.316-3.25-6.16-4.211-7.844-4.484v42.377H21.176
	V60.875c-0.005-0.05-0.002-0.103,0-0.157v-4.712c-0.005-0.05-0.002-0.103,0-0.157v-4.514c-0.005-0.049-0.002-0.102,0-0.156v-4.399
	c-0.005-0.05-0.002-0.103,0-0.157v-4.691c-0.005-0.049-0.002-0.102,0-0.156v-5.327c-0.005-0.05-0.002-0.103,0-0.157v-5.327
	c-0.005-0.049-0.002-0.102,0-0.157v-5.701h43.431v5.798c1.79,0.253,6.35,1.263,9.136,5.174c2.481,3.48,2.872,8.297,1.163,14.311
	c-1.498,5.268-2.843,10.842-1.477,12.24c0.985,1.009,3.893,0.25,7.917-0.802c1.294-0.338,2.718-0.709,4.266-1.072L85.975,62.301z
	 M22.765,34.833c1.738-0.348,5.991-0.103,17.174,3.204c16.259,4.809,22.092,0.2,23.079-0.751v-3.453
	c-1.608,1.08-4.719,2.477-10.077,2.477c-3.476,0-7.892-0.588-13.451-2.233c-13.549-4.008-16.245-3.322-16.725-3.066V34.833z
	 M22.765,40.316c1.738-0.349,5.991-0.103,17.174,3.205c16.259,4.809,22.092,0.2,23.079-0.751v-3.452
	c-1.608,1.08-4.719,2.477-10.077,2.477c-3.476,0-7.892-0.588-13.451-2.233c-13.549-4.006-16.245-3.321-16.725-3.066V40.316z
	 M22.765,45.164c1.738-0.349,5.991-0.103,17.174,3.204c16.259,4.809,22.092,0.202,23.079-0.749v-2.818
	c-1.608,1.08-4.719,2.477-10.077,2.477c-3.476,0-7.892-0.588-13.451-2.233c-13.549-4.008-16.245-3.322-16.725-3.066V45.164z
	 M22.765,49.72c1.738-0.349,5.991-0.103,17.174,3.204c16.259,4.809,22.092,0.2,23.079-0.751v-2.524
	c-1.608,1.08-4.719,2.477-10.077,2.477c-3.476,0-7.892-0.588-13.451-2.233c-13.549-4.006-16.245-3.322-16.725-3.066V49.72z
	 M22.765,54.391c1.738-0.348,5.991-0.103,17.174,3.204c16.259,4.809,22.092,0.2,23.079-0.751v-2.64
	c-1.608,1.08-4.719,2.477-10.077,2.477c-3.476,0-7.892-0.588-13.451-2.233c-13.549-4.008-16.245-3.322-16.725-3.066V54.391z
	 M22.765,59.26c1.738-0.349,5.991-0.103,17.174,3.204c16.259,4.809,22.092,0.202,23.079-0.75v-2.839
	c-1.608,1.08-4.719,2.477-10.077,2.477c-3.476,0-7.892-0.588-13.451-2.233c-13.549-4.008-16.245-3.322-16.725-3.066V59.26z
	 M22.765,26.696v2.653c1.738-0.349,5.991-0.103,17.174,3.205c16.259,4.809,22.092,0.2,23.079-0.751v-5.106H22.765z M63.018,73.304
	v-9.56c-1.608,1.08-4.719,2.477-10.077,2.477c-3.476,0-7.892-0.588-13.451-2.233c-13.549-4.008-16.245-3.322-16.725-3.066v12.382
	H63.018z"/>
</svg>
