<?xml version="1.0" encoding="utf-8"?>
<!-- Generator: Adobe Illustrator 16.0.0, SVG Export Plug-In . SVG Version: 6.00 Build 0)  -->
<!DOCTYPE svg PUBLIC "-//W3C//DTD SVG 1.1//EN" "http://www.w3.org/Graphics/SVG/1.1/DTD/svg11.dtd">
<svg version="1.1" id="Layer_5" xmlns="http://www.w3.org/2000/svg" xmlns:xlink="http://www.w3.org/1999/xlink" x="0px" y="0px"
	 width="100px" height="100px" viewBox="0 0 100 100" enable-background="new 0 0 100 100" xml:space="preserve">
<path d="M51.788,62.014h33.718c0.986,0,1.788-0.802,1.788-1.788V39.775c0-0.986-0.802-1.788-1.788-1.788H51.788
	c-0.986,0-1.788,0.802-1.788,1.788v9.475H34.711V34.288H50.82c0.986,0,1.788-0.802,1.788-1.788V12.049
	c0-0.986-0.802-1.788-1.788-1.788H17.102c-0.986,0-1.788,0.802-1.788,1.788V32.5c0,0.986,0.802,1.788,1.788,1.788h16.109v44.448H50
	v9.476C50,89.198,50.802,90,51.788,90h33.718c0.986,0,1.788-0.802,1.788-1.788V67.761c0-0.986-0.802-1.788-1.788-1.788H51.788
	c-0.986,0-1.788,0.802-1.788,1.788v9.475H34.711V50.75H50v9.476C50,61.211,50.802,62.014,51.788,62.014z M17.102,32.755
	c-0.141,0-0.255-0.115-0.255-0.255V12.049c0-0.141,0.114-0.255,0.255-0.255H50.82c0.141,0,0.255,0.114,0.255,0.255V32.5
	c0,0.141-0.114,0.255-0.255,0.255H17.102z M51.533,67.761c0-0.141,0.114-0.255,0.255-0.255h33.718c0.141,0,0.255,0.114,0.255,0.255
	v20.451c0,0.141-0.114,0.255-0.255,0.255H51.788c-0.141,0-0.255-0.115-0.255-0.255v-9.476v-1.5V67.761z M51.533,39.775
	c0-0.141,0.114-0.255,0.255-0.255h33.718c0.141,0,0.255,0.114,0.255,0.255v20.451c0,0.141-0.114,0.255-0.255,0.255H51.788
	c-0.141,0-0.255-0.115-0.255-0.255V50.75v-1.5V39.775z"/>
</svg>
