<?xml version="1.0" encoding="utf-8"?>
<!-- Generator: Adobe Illustrator 16.0.0, SVG Export Plug-In . SVG Version: 6.00 Build 0)  -->
<!DOCTYPE svg PUBLIC "-//W3C//DTD SVG 1.1//EN" "http://www.w3.org/Graphics/SVG/1.1/DTD/svg11.dtd">
<svg version="1.1" id="Layer_5" xmlns="http://www.w3.org/2000/svg" xmlns:xlink="http://www.w3.org/1999/xlink" x="0px" y="0px"
	 width="100px" height="100px" viewBox="0 0 100 100" enable-background="new 0 0 100 100" xml:space="preserve">
<path d="M77.25,62.29c-0.016-0.231-0.029-0.458-0.053-0.696c-0.168-1.738,0.972-2.28,2.064-3.003
	c0.614-0.407,0.84-0.938,0.776-1.653c-0.2-2.226-4.822-3.708-3.086-6.03h5.316V18.38H31.34v8.913h3.346v-6.404h44.236v27.229H34.686
	V39.41H31.34v11.498h19.33v2.523c-4.241,0.212-7.15,0.646-7.15,1.146c0,0.71,5.863,1.286,13.099,1.286
	c7.234,0,13.099-0.575,13.099-1.286c0-0.486-2.738-0.908-6.779-1.127v-2.541h12.938c-0.666,1.515,0.465,2.975,1.786,4.298
	c0.54,0.542,2.223,1.853,0.787,2.801c-0.583,0.386-1.061,0.706-1.509,1.252c-0.741,0.901-0.7,1.96-0.637,3.03H26.786V81.62h60.036
	V62.29H77.25z M84.592,79.39H29.017V64.52h55.575V79.39z M35.429,69.073h-3.067v-3.066h3.067V69.073z M40.308,69.073h-3.066v-3.066
	h3.066V69.073z M45.326,69.073H42.26v-3.066h3.066V69.073z M50.205,69.073h-3.066v-3.066h3.066V69.073z M55.363,69.073h-3.066
	v-3.066h3.066V69.073z M60.242,69.073h-3.066v-3.066h3.066V69.073z M65.262,69.073h-3.068v-3.066h3.068V69.073z M70.141,69.073
	h-3.067v-3.066h3.067V69.073z M33.337,73.487h-3.065v-3.066h3.065V73.487z M38.217,73.487H35.15v-3.066h3.066V73.487z
	 M43.235,73.487h-3.067v-3.066h3.067V73.487z M48.114,73.487h-3.066v-3.066h3.066V73.487z M53.272,73.487h-3.067v-3.066h3.067
	V73.487z M58.152,73.487h-3.068v-3.066h3.068V73.487z M63.17,73.487h-3.066v-3.066h3.066V73.487z M68.049,73.487h-3.066v-3.066
	h3.066V73.487z M79.052,73.487h-3.066v-3.066h3.066V73.487z M78.69,74.51h3.065v3.066H78.69V74.51z M73.393,74.51h3.067v3.066
	h-3.067V74.51z M31.315,75.067h3.067v3.067h-3.067V75.067z M36.195,75.067h3.068v3.067h-3.068V75.067z M41.215,75.067h3.066v3.067
	h-3.066V75.067z M46.093,75.067h3.067v3.067h-3.067V75.067z M51.252,75.067h3.065v3.067h-3.065V75.067z M56.13,75.067h3.067v3.067
	H56.13V75.067z M61.149,75.067h3.065v3.067h-3.065V75.067z M66.027,75.067h3.067v3.067h-3.067V75.067z M77.631,65.547h-4.676v1.688
	h4.676V65.547z M77.406,67.01H73.18v-1.24h4.227V67.01z M83.253,65.547h-4.674v1.688h4.674V65.547z M83.03,67.01h-4.229v-1.24h4.229
	V67.01z M27.007,43.457c-0.19,0.144-0.452,0.143-0.642-0.003l-12.979-9.979c-0.132-0.099-0.209-0.254-0.209-0.419
	c0-0.165,0.077-0.32,0.207-0.419l12.98-9.98c0.094-0.072,0.209-0.108,0.322-0.108c0.112,0,0.225,0.035,0.319,0.106
	c0.189,0.143,0.261,0.396,0.174,0.616l-2.611,6.608h15.296c0.293,0,0.529,0.237,0.529,0.528v5.295c0,0.293-0.236,0.53-0.529,0.53
	H24.569l2.611,6.608C27.268,43.062,27.196,43.313,27.007,43.457z"/>
</svg>
