<?xml version="1.0" encoding="utf-8"?>
<!-- Generator: Adobe Illustrator 16.0.0, SVG Export Plug-In . SVG Version: 6.00 Build 0)  -->
<!DOCTYPE svg PUBLIC "-//W3C//DTD SVG 1.1//EN" "http://www.w3.org/Graphics/SVG/1.1/DTD/svg11.dtd">
<svg version="1.1" id="Layer_7" xmlns="http://www.w3.org/2000/svg" xmlns:xlink="http://www.w3.org/1999/xlink" x="0px" y="0px"
	 width="100px" height="100px" viewBox="0 0 100 100" enable-background="new 0 0 100 100" xml:space="preserve">
<path d="M90.535,54.329c0,10.027-8.158,18.184-18.184,18.184h-4.719v-3.838h4.719c7.91,0,14.345-6.435,14.345-14.345
	s-6.435-14.344-14.345-14.344c-0.744,0-1.529,0.071-2.4,0.218l-1.227,0.207l-0.69-1.036c-2.672-4.014-7.139-6.41-11.947-6.41
	c-0.48,0-0.971,0.025-1.452,0.073l-1.619,0.164l-0.426-1.57c-1.693-6.229-7.378-10.581-13.828-10.581
	c-7.909,0-14.344,6.435-14.344,14.344c0,0.993,0.106,2,0.317,2.992l0.365,1.717l-1.677,0.517c-6.054,1.863-10.12,7.373-10.12,13.71
	c0,7.448,5.706,13.583,12.974,14.276c-0.454,0.231-0.864,0.554-1.178,0.973c-0.439,0.588-0.68,1.316-0.68,2.049
	c0,0.198,0.02,0.396,0.054,0.59c-8.516-1.508-15.009-8.945-15.009-17.888c0-7.466,4.453-14.025,11.241-16.81
	c-0.084-0.708-0.126-1.419-0.126-2.125c0-10.026,8.157-18.183,18.183-18.183c7.651,0,14.453,4.826,17.055,11.916
	c5.801-0.073,11.209,2.569,14.701,7.123c0.633-0.069,1.239-0.104,1.834-0.104C82.377,36.146,90.535,44.303,90.535,54.329z
	 M45.59,69.8l-6.13,2.421V51.458c0-0.271-0.219-0.491-0.491-0.491h-4.912c-0.271,0-0.49,0.22-0.49,0.491v20.763L27.439,69.8
	c-0.206-0.081-0.44-0.015-0.573,0.161c-0.065,0.088-0.099,0.191-0.099,0.296c0,0.105,0.034,0.211,0.102,0.299l9.256,12.04
	c0.093,0.121,0.237,0.192,0.39,0.192s0.296-0.071,0.389-0.192l9.257-12.04c0.135-0.175,0.135-0.419,0.003-0.595
	C46.031,69.785,45.795,69.719,45.59,69.8z M70.813,63.794c0.065-0.088,0.099-0.192,0.099-0.296c0-0.105-0.034-0.211-0.102-0.299
	l-9.256-12.04c-0.093-0.121-0.237-0.192-0.39-0.192s-0.295,0.071-0.389,0.192l-9.257,12.04c-0.135,0.175-0.135,0.419-0.003,0.595
	c0.133,0.176,0.368,0.242,0.573,0.161l6.13-2.421v20.763c0,0.271,0.219,0.491,0.491,0.491h4.912c0.271,0,0.491-0.219,0.491-0.491
	V61.534l6.129,2.421C70.445,64.036,70.68,63.97,70.813,63.794z"/>
</svg>
