<?xml version="1.0" encoding="utf-8"?>
<!-- Generator: Adobe Illustrator 16.0.4, SVG Export Plug-In . SVG Version: 6.00 Build 0)  -->
<!DOCTYPE svg PUBLIC "-//W3C//DTD SVG 1.1//EN" "http://www.w3.org/Graphics/SVG/1.1/DTD/svg11.dtd">
<svg version="1.1" id="Capa_1" xmlns="http://www.w3.org/2000/svg" xmlns:xlink="http://www.w3.org/1999/xlink" x="0px" y="0px"
	 width="100px" height="100px" viewBox="0 0 100 100" enable-background="new 0 0 100 100" xml:space="preserve">
<g id="Layer_8">
	<path d="M6.666,80.191h86.668v-49.97H6.666V80.191z M57.262,40.068c0-1.398,1.133-2.533,2.531-2.533H83.43
		c1.398,0,2.532,1.135,2.532,2.533v26.591c0,1.397-1.134,2.532-2.532,2.532H59.793c-1.398,0-2.531-1.135-2.531-2.532V40.068z
		 M14.208,40.068c0-1.398,1.134-2.533,2.532-2.533h23.637c1.398,0,2.533,1.135,2.533,2.533v26.591c0,1.397-1.135,2.532-2.533,2.532
		H16.74c-1.398,0-2.532-1.135-2.532-2.532V40.068z M93.334,19.809v1.266v6.782h-4.079h-78.51H6.666v-6.782v-1.266h4.079v1.266h78.51
		v-1.266H93.334z M66.779,59.062c-3.088,0-5.592-2.504-5.592-5.594c0-3.088,2.504-5.592,5.592-5.592c3.09,0,5.594,2.504,5.594,5.592
		C72.373,56.559,69.869,59.062,66.779,59.062z M33.394,47.877c3.088,0,5.592,2.504,5.592,5.592c0,3.09-2.504,5.594-5.592,5.594
		c-3.089,0-5.593-2.504-5.593-5.594C27.801,50.381,30.305,47.877,33.394,47.877z M17.048,58.302v-9.665
		c0-4.492,3.654-8.146,8.146-8.146h16.312V44.7h-11.4c-2.171,0-3.937,1.766-3.937,3.938v9.665c0,2.172,1.766,3.938,3.937,3.938
		h11.399v4.209H25.194C20.702,66.448,17.048,62.794,17.048,58.302z M75.001,66.448H58.689v-4.209h11.397
		c2.172,0,3.938-1.767,3.938-3.938v-9.665c0-2.172-1.767-3.938-3.938-3.938H58.689V40.49h16.312c4.491,0,8.146,3.654,8.146,8.146
		v9.665C83.146,62.794,79.492,66.448,75.001,66.448z"/>
</g>
</svg>
