<?xml version="1.0" encoding="utf-8"?>
<!-- Generator: Adobe Illustrator 16.0.0, SVG Export Plug-In . SVG Version: 6.00 Build 0)  -->
<!DOCTYPE svg PUBLIC "-//W3C//DTD SVG 1.1//EN" "http://www.w3.org/Graphics/SVG/1.1/DTD/svg11.dtd">
<svg version="1.1" id="Layer_6" xmlns="http://www.w3.org/2000/svg" xmlns:xlink="http://www.w3.org/1999/xlink" x="0px" y="0px"
	 width="100px" height="100px" viewBox="0 0 100 100" enable-background="new 0 0 100 100" xml:space="preserve">
<path d="M67.099,36.113c0,9.7-7.863,17.563-17.563,17.563c-9.699,0-17.563-7.863-17.563-17.563S39.836,18.55,49.535,18.55
	C59.235,18.55,67.099,26.413,67.099,36.113z M84.903,87.795c-0.377,0.389-0.973,0.47-1.44,0.197l-12.813-7.478
	c-0.132,1.452-0.324,3.58-0.521,5.706c-0.175,1.892-0.352,3.782-0.49,5.201c-0.07,0.713-0.13,1.308-0.176,1.724
	c-0.081,0.747-0.182,1.677-1.229,1.702c-0.005,0-0.011,0-0.016,0c-0.311,0.004-0.609-0.115-0.833-0.331
	c-0.185-0.179-0.308-0.438-0.349-0.698c-0.42-1.448-6.985-16.54-12.348-28.733l-1.047,0.787c-0.373,0.279-0.78,0.518-1.207,0.704
	c-1.9,0.83-4.141,0.612-5.846-0.568l-1.858-1.286c-5.163,12.1-11.299,26.639-11.694,28.061c-0.038,0.26-0.157,0.52-0.342,0.701
	c-0.221,0.218-0.52,0.341-0.829,0.341c-0.005,0-0.011,0-0.016-0.001c-1.048-0.014-1.158-0.942-1.248-1.688
	c-0.05-0.415-0.115-1.01-0.193-1.723c-0.154-1.416-0.352-3.305-0.546-5.194c-0.22-2.125-0.436-4.249-0.583-5.7l-12.731,7.614
	c-0.466,0.278-1.062,0.203-1.442-0.182c-0.382-0.385-0.452-0.981-0.17-1.444l15.623-25.63c-2.17-0.632-3.829-2.433-4.242-4.706
	l-1.498-8.245l-5.036-6.701c-1.563-2.078-1.617-4.912-0.136-7.051l4.771-6.892l1.176-8.298c0.292-2.053,1.653-3.846,3.554-4.675
	c0.427-0.188,0.877-0.324,1.336-0.408l8.247-1.499l6.7-5.035c0.374-0.281,0.78-0.518,1.206-0.704
	c1.929-0.844,4.114-0.632,5.846,0.567L59.372,11l8.299,1.178c2.576,0.365,4.618,2.331,5.084,4.89l1.498,8.246l5.035,6.699
	c1.563,2.079,1.617,4.913,0.137,7.053l-4.771,6.891l-1.176,8.297c-0.292,2.055-1.653,3.846-3.554,4.677
	c-0.427,0.187-0.877,0.323-1.335,0.407l-0.357,0.065l16.826,26.945C85.345,86.808,85.281,87.405,84.903,87.795z M69.753,36.113
	c0-11.166-9.053-20.218-20.218-20.218c-11.166,0-20.218,9.052-20.218,20.218s9.052,20.218,20.218,20.218
	C60.7,56.331,69.753,47.279,69.753,36.113z"/>
</svg>
