<?xml version="1.0" encoding="utf-8"?>
<!-- Generator: Adobe Illustrator 16.0.0, SVG Export Plug-In . SVG Version: 6.00 Build 0)  -->
<!DOCTYPE svg PUBLIC "-//W3C//DTD SVG 1.1//EN" "http://www.w3.org/Graphics/SVG/1.1/DTD/svg11.dtd">
<svg version="1.1" id="Layer_6" xmlns="http://www.w3.org/2000/svg" xmlns:xlink="http://www.w3.org/1999/xlink" x="0px" y="0px"
	 width="100px" height="100px" viewBox="0 0 100 100" enable-background="new 0 0 100 100" xml:space="preserve">
<path d="M87.944,54.6C74.016,38.07,81.068,13.32,81.557,11.66L85.994,5l-1.675-1.094l-4.378,6.57
	c-0.323-0.193-0.766-0.188-1.083,0.033c-5.371,3.68-12.274,5.547-20.517,5.547c-0.002,0-0.002,0-0.004,0
	c-12.699,0-24.517-4.396-27.154-5.447l-3.719-6.383l-1.737,0.992l3.582,6.148c-0.001,0.033,0.001,0.07,0.006,0.109
	c4.121,28.619-17.435,50.035-17.65,50.246c-0.007,0.006-0.014,0.012-0.02,0.02l-7.555,2.023l0.533,1.926l8.147-2.182
	c25.574,3.406,40.299,23.387,42.257,26.203l0.367,6.381l1.998-0.098l-0.337-5.857c0.059-0.104,0.099-0.215,0.118-0.334
	c4.212-25.504,27.15-32.445,30.207-33.26l8.318,1.008l0.209-1.99L87.944,54.6z M31.725,15.514l6.932,11.9
	c3.189,12.482-1.51,24.914-2.734,27.824l-20.699,5.545C20.657,54.441,33.075,37.398,31.725,15.514z M41.552,32.383l10.756,18.465
	L38.33,54.594C39.897,50.449,42.497,41.859,41.552,32.383z M40.179,56.166l12.724-3.408l0.728,12.641
	C51.411,62.574,47.03,58.166,40.179,56.166z M41.318,28.01c3.245,1.273,9.262,3.223,15.677,3.223c3.9,0,7.412-0.74,10.462-2.203
	c-0.073,0.168-0.147,0.34-0.219,0.516L53.887,49.586L41.318,28.01z M35.943,57.301c0.052,0.016,0.105,0.029,0.16,0.035
	c12.074,1.627,17.519,11.566,17.57,11.662c0.014,0.027,0.029,0.051,0.046,0.074v0.023c0.009,0.168,0.061,0.33,0.15,0.473
	l0.951,16.535c-4.685-5.879-17.478-19.611-37.439-23.83L35.943,57.301z M64.891,53.822c-3.145,1.373-7.215,3.811-9.475,7.795
	l-0.519-9.006L64.891,53.822z M55.563,50.678l9.476-14.223c-0.991,4.85-0.977,10.742,2.614,15.688L55.563,50.678z M71.136,52.564
	c-0.178-0.289-0.496-0.477-0.85-0.477l-0.122,0.008c-6.072-6.824-3.357-16.43-1.223-21.5l9.491-14.244
	c-1.583,8.619-2.851,25.107,6.698,37.906L71.136,52.564z M70.205,25.092c-0.155,0.027-0.301,0.092-0.426,0.191
	c-3.375,2.625-7.68,3.957-12.796,3.959c-0.001,0-0.001,0-0.002,0c-8.842,0-17.123-4.025-17.202-4.064l-0.14-0.051l-6.87-11.793
	c4.87,1.715,14.906,4.711,25.578,4.711l0,0c7.675,0,14.268-1.557,19.637-4.631L70.205,25.092z M55.742,67.373
	c0.638-8.701,10.428-12.135,13.579-13.016l13.498,1.635c-7.411,2.949-20.907,10.473-26.156,27.322L55.742,67.373z"/>
</svg>
