<?xml version="1.0" encoding="utf-8"?>
<!-- Generator: Adobe Illustrator 16.0.0, SVG Export Plug-In . SVG Version: 6.00 Build 0)  -->
<!DOCTYPE svg PUBLIC "-//W3C//DTD SVG 1.1//EN" "http://www.w3.org/Graphics/SVG/1.1/DTD/svg11.dtd">
<svg version="1.1" id="Layer_4" xmlns="http://www.w3.org/2000/svg" xmlns:xlink="http://www.w3.org/1999/xlink" x="0px" y="0px"
	 width="100px" height="100px" viewBox="0 0 100 100" enable-background="new 0 0 100 100" xml:space="preserve">
<path d="M86.334,41.227H66.688c-0.194-1.158-0.873-2.018-1.688-2.018s-1.494,0.859-1.688,2.018H13.666c-2.762,0-5,2.238-5,5V77.65
	c0,2.762,2.238,5,5,5h72.668c2.762,0,5-2.238,5-5V46.227C91.334,43.465,89.096,41.227,86.334,41.227z M70.473,46.192h5.988v2.237
	h-5.988V46.192z M79.961,59.692v5.987h-5.988v-5.987H79.961z M51.203,48.984h5.986v5.987h-5.986V48.984z M47.029,58.418h5.988v5.987
	h-5.988V58.418z M40.316,48.984h5.988v5.987h-5.988V48.984z M36.145,58.418h5.986v5.987h-5.986V58.418z M29.611,48.984H35.6v5.987
	h-5.988V48.984z M25.439,58.418h5.986v5.987h-5.986V58.418z M18.545,48.984h5.988v5.987h-5.988V48.984z M14.373,58.418h5.986v5.987
	h-5.986V58.418z M25.803,73.567h-5.986V67.58h5.986V73.567z M36.869,73.567h-5.986V67.58h5.986V73.567z M47.574,73.567h-5.986V67.58
	h5.986V73.567z M58.461,73.567h-5.988V67.58h5.988V73.567z M58.361,64.155v-5.986h5.988v-5.167h5.986v5.167v0.819v5.167H64.35
	H58.361z M74.836,73.555h-5.988v-5.987h5.988V73.555z M84.586,73.805h-5.988v-5.987h5.988V73.805z M85.211,48.43h-5.988v-2.237
	h5.988V48.43z M65,23.842c-6.694,0-12.141,5.446-12.141,12.141h-1.012c0-7.252,5.899-13.152,13.152-13.152s13.152,5.9,13.152,13.152
	h-1.012C77.141,29.288,71.694,23.842,65,23.842z M65,29.659c3.348,0,6.07,2.724,6.07,6.07h-1.012c0-2.789-2.27-5.059-5.059-5.059
	s-5.059,2.27-5.059,5.059H58.93C58.93,32.383,61.652,29.659,65,29.659z M47.631,35.729h-1.012c0-10.135,8.246-18.38,18.381-18.38
	s18.381,8.245,18.381,18.38h-1.012c0-9.577-7.792-17.368-17.369-17.368S47.631,26.152,47.631,35.729z"/>
</svg>
