<?xml version="1.0" encoding="utf-8"?>
<!-- Generator: Adobe Illustrator 16.0.0, SVG Export Plug-In . SVG Version: 6.00 Build 0)  -->
<!DOCTYPE svg PUBLIC "-//W3C//DTD SVG 1.1//EN" "http://www.w3.org/Graphics/SVG/1.1/DTD/svg11.dtd">
<svg version="1.1" id="Layer_4" xmlns="http://www.w3.org/2000/svg" xmlns:xlink="http://www.w3.org/1999/xlink" x="0px" y="0px"
	 width="100px" height="100px" viewBox="0 0 100 100" enable-background="new 0 0 100 100" xml:space="preserve">
<path d="M52.389,51.473v32.061v3.974v0.528c0,0.727-0.589,1.317-1.318,1.317h-2.139c-0.729,0-1.319-0.591-1.319-1.317V51.473
	c0-0.644,0.461-1.178,1.07-1.294v-18.86c0-0.727,0.59-1.317,1.317-1.317s1.317,0.591,1.317,1.317v18.86
	C51.927,50.295,52.389,50.829,52.389,51.473z M65.492,29.564c0-4.063-3.307-7.37-7.371-7.37v1.099c3.459,0,6.271,2.814,6.271,6.271
	c0,3.459-2.813,6.273-6.271,6.273v1.099C62.186,36.937,65.492,33.63,65.492,29.564z M74.849,29.797
	c0-7.375-5.999-13.374-13.372-13.374v1.099c6.768,0,12.273,5.507,12.273,12.275c0,6.768-5.506,12.273-12.273,12.273v1.099
	C68.85,43.169,74.849,37.17,74.849,29.797z M64.148,10.647v1.099c10.027,0,18.187,8.159,18.187,18.187
	c0,10.028-8.159,18.187-18.187,18.187v1.099c10.634,0,19.285-8.651,19.285-19.285S74.782,10.647,64.148,10.647z M34.509,29.702
	c0,4.064,3.306,7.371,7.37,7.371v-1.099c-3.459,0-6.271-2.813-6.271-6.272c0-3.458,2.813-6.271,6.271-6.271v-1.099
	C37.814,22.332,34.509,25.639,34.509,29.702z M26.25,29.934c0-6.769,5.506-12.275,12.274-12.275V16.56
	c-7.374,0-13.373,6-13.373,13.374s5.999,13.373,13.373,13.373v-1.099C31.756,42.208,26.25,36.702,26.25,29.934z M17.665,30.07
	c0-10.028,8.159-18.187,18.187-18.187v-1.099c-10.634,0-19.285,8.651-19.285,19.285s8.651,19.285,19.285,19.285v-1.099
	C25.824,48.257,17.665,40.098,17.665,30.07z"/>
</svg>
