<?xml version="1.0" encoding="iso-8859-1"?>
<!-- Generator: Adobe Illustrator 16.0.0, SVG Export Plug-In . SVG Version: 6.00 Build 0)  -->
<!DOCTYPE svg PUBLIC "-//W3C//DTD SVG 1.1//EN" "http://www.w3.org/Graphics/SVG/1.1/DTD/svg11.dtd">
<svg version="1.1" id="Layer_1" xmlns="http://www.w3.org/2000/svg" xmlns:xlink="http://www.w3.org/1999/xlink" x="0px" y="0px"
	 width="28.53px" height="49.1px" viewBox="0 0 28.53 49.1" style="enable-background:new 0 0 28.53 49.1;" xml:space="preserve">
<g>
	<path d="M17.516,30.25c0-1.043-0.696-1.938-1.71-2.402c0-0.001,0-0.002-0.001-0.004H12.56c-0.005,0.029-0.011,0.058-0.016,0.087
		c-0.916,0.485-1.529,1.339-1.529,2.319c0,0.951,0.584,1.777,1.456,2.27h3.585C16.93,32.029,17.516,31.203,17.516,30.25z"/>
	<path d="M15.494,34.188c0,0,0.151-0.643,0.288-1.502h-3.16c0.185,0.832,0.372,1.502,0.372,1.502V49.1h1.192h1.308h1.386v-1.6h2.333
		v1.6h2.167v-5.35h-5.886V34.188z"/>
	<path d="M28.442,11.447c-0.048-0.094-0.114-0.191-0.215-0.308c-0.048-0.053-0.101-0.105-0.181-0.179
		c-0.059-0.051-0.118-0.102-0.188-0.151c-0.064-0.048-0.132-0.091-0.236-0.153c-0.047-0.025-0.094-0.051-0.156-0.078l0.063-0.144
		c0,0,0.001-0.001,0.001-0.003l0.035-0.071l-0.003-0.013c0.007-0.019,0.013-0.036,0.018-0.052l0.029-0.082
		c0.021-0.077,0.033-0.158,0.045-0.267c0.006-0.086,0.004-0.175-0.006-0.288c-0.011-0.098-0.029-0.2-0.06-0.307
		c-0.022-0.08-0.057-0.149-0.103-0.239l-0.039-0.065c-0.027-0.046-0.056-0.091-0.084-0.127l-0.045-0.054
		c-0.033-0.04-0.067-0.075-0.099-0.102l-0.052-0.043c-0.033-0.025-0.064-0.046-0.096-0.064l-0.166,0.24l0.099-0.276
		c-0.036-0.017-0.071-0.029-0.148-0.054c-0.049-0.012-0.099-0.018-0.199-0.022c-0.031,0-0.062,0.001-0.093,0.005l-0.041,0.007
		c-0.039,0.006-0.08,0.016-0.117,0.027c-0.051,0.016-0.098,0.034-0.133,0.053c-0.33,0.161-0.505,0.488-0.47,0.83
		c-0.293-0.297-0.53-0.645-0.696-0.902c-0.046-0.08-0.085-0.161-0.126-0.254c-0.016-0.032-0.028-0.067-0.041-0.102
		c-0.02-0.052-0.04-0.104-0.062-0.148c-0.106-0.245-0.143-0.467-0.106-0.64c0.015-0.064,0.04-0.121,0.08-0.176l0.041-0.058
		c0.021-0.019,0.042-0.03,0.063-0.043l0.069-0.042L24.96,6.818l0.126,0.265l0.058,0.002l0.007-0.001
		c0.033,0.01,0.069,0.032,0.104,0.063l0.681,0.752l-0.16-0.976c-0.046-0.276-0.157-0.537-0.308-0.728
		c-0.255-0.347-0.566-0.538-0.876-0.538c-0.159,0-0.395,0.052-0.617,0.298c-0.053,0.059-0.099,0.121-0.138,0.186
		c-0.132-0.339-0.33-0.705-0.728-0.99c-0.313-0.241-0.699-0.327-0.987-0.263c-0.114,0.021-0.209,0.056-0.281,0.089
		c-0.037-0.01-0.076-0.019-0.117-0.023c-0.021-0.038-0.044-0.075-0.07-0.109c0.01-0.312-0.116-0.776-0.637-1.103
		c-0.43-0.247-0.827-0.294-1.137-0.299c0.043-0.058,0.083-0.12,0.118-0.187c0.054-0.109,0.088-0.219,0.102-0.322
		c0.059-0.438-0.237-0.813-0.762-0.979c-0.214-0.076-0.49-0.09-0.739-0.054l-0.937,0.146l0.87,0.414
		c0.01,0.006,0.045,0.027,0.068,0.068c0.006,0.012,0.015,0.03,0.02,0.057l-0.043,0.226c-0.014,0.033-0.034,0.065-0.091,0.126
		c-0.018,0.019-0.035,0.035-0.098,0.073c-0.021,0.012-0.042,0.024-0.065,0.033L18.26,3.065c-0.024,0.008-0.05,0.016-0.076,0.02
		l0.045,0.287l-0.115-0.275c-0.035,0.004-0.072,0.006-0.164,0.009L17.6,3.064c-0.102-0.017-0.204-0.031-0.298-0.059
		c-0.309-0.1-0.661-0.282-0.952-0.49l0.022-0.002c0.125-0.016,0.239-0.059,0.339-0.127l0.062-0.05
		c0.026-0.022,0.052-0.045,0.057-0.054l0.058-0.065c0.025-0.032,0.048-0.065,0.066-0.099l0.03-0.053
		c0.029-0.063,0.052-0.122,0.067-0.184c0.009-0.037,0.017-0.079,0.023-0.129c0.006-0.052,0.008-0.106,0.005-0.12l-0.016-0.175
		c-0.01-0.045-0.021-0.091-0.037-0.133l-0.101-0.186c-0.023-0.032-0.048-0.062-0.069-0.084l-0.043-0.04
		c-0.031-0.032-0.067-0.061-0.114-0.09L16.64,0.89c-0.036-0.02-0.077-0.038-0.122-0.056L16.46,0.81
		c-0.062-0.021-0.132-0.041-0.212-0.056c-0.077-0.015-0.15-0.021-0.24-0.022l-0.41,0.063l-0.234,0.11
		c-0.027,0.018-0.057,0.039-0.103,0.076c-0.128-0.266-0.306-0.512-0.449-0.666c-0.09-0.097-0.176-0.167-0.259-0.219L14.552,0h-0.291
		C14.26,0,14.26,0,14.26,0l-0.285,0.006v0.096c-0.076,0.049-0.154,0.109-0.248,0.207c-0.044,0.045-0.088,0.097-0.149,0.175
		c-0.042,0.056-0.086,0.114-0.128,0.18c-0.041,0.063-0.078,0.127-0.133,0.227c-0.016,0.028-0.028,0.058-0.043,0.087l-0.036-0.025
		c-0.004-0.003-0.009-0.006-0.013-0.01l-0.058-0.044h-0.011c-0.016-0.009-0.031-0.018-0.046-0.025l-0.07-0.038
		c-0.065-0.029-0.136-0.053-0.177-0.061l-0.056-0.017c-0.074-0.016-0.152-0.023-0.257-0.028c-0.085,0-0.178,0.007-0.271,0.025
		c-0.077,0.015-0.146,0.034-0.209,0.056l-0.057,0.023c-0.045,0.018-0.089,0.038-0.125,0.058l-0.054,0.033
		c-0.044,0.027-0.081,0.056-0.107,0.082l-0.049,0.046c-0.024,0.025-0.047,0.052-0.066,0.079l-0.043,0.061
		c-0.02,0.032-0.034,0.064-0.063,0.128c-0.019,0.045-0.032,0.095-0.044,0.162c-0.007,0.041-0.011,0.078-0.013,0.116v0.037v0.004
		c0,0.038,0.002,0.078,0.007,0.115c0.006,0.05,0.015,0.096,0.024,0.133c0.093,0.359,0.361,0.6,0.695,0.632
		c-0.288,0.206-0.636,0.387-0.937,0.483c-0.083,0.023-0.167,0.039-0.25,0.053l-0.257,0.039c-0.242,0.027-0.459-0.001-0.604-0.088
		c-0.051-0.03-0.093-0.071-0.112-0.096L9.953,2.813C9.941,2.785,9.936,2.76,9.93,2.735L9.911,2.587
		c0.003-0.022,0.01-0.044,0.019-0.058c0.016-0.026,0.038-0.047,0.056-0.06l0.927-0.429l-0.979-0.14
		c-0.248-0.035-0.531-0.021-0.73,0.05c-0.354,0.112-0.61,0.319-0.72,0.582C8.417,2.69,8.373,2.944,8.535,3.26
		c0.033,0.065,0.072,0.126,0.114,0.183C8.339,3.448,7.94,3.496,7.504,3.747c-0.56,0.352-0.632,0.839-0.625,1.095
		c-0.027,0.034-0.052,0.07-0.073,0.11C6.767,4.957,6.727,4.965,6.689,4.977C6.618,4.943,6.525,4.91,6.416,4.89
		C6.093,4.818,5.731,4.912,5.428,5.146C5.022,5.438,4.823,5.806,4.694,6.14c-0.043-0.068-0.09-0.131-0.143-0.188
		c-0.084-0.09-0.177-0.16-0.272-0.208c-0.388-0.201-0.866-0.024-1.21,0.444c-0.157,0.198-0.269,0.46-0.313,0.736L2.614,7.888
		l0.665-0.744c0.011-0.01,0.049-0.045,0.094-0.058l0.063-0.005L3.52,7.106l0.115,0.082c0.026,0.022,0.049,0.051,0.082,0.117
		c0.012,0.024,0.024,0.05,0.029,0.068l0.012,0.058C3.764,7.46,3.769,7.485,3.771,7.515L3.769,7.581L3.77,7.584
		C3.769,7.612,3.768,7.641,3.763,7.672L3.619,8.138C3.561,8.296,3.495,8.439,3.431,8.552C3.257,8.822,3.02,9.171,2.726,9.469
		c0-0.001,0-0.002,0-0.004c0.012-0.13-0.003-0.255-0.045-0.369L2.646,9.021c-0.015-0.032-0.031-0.063-0.038-0.07L2.556,8.877
		C2.529,8.844,2.5,8.813,2.469,8.782L2.425,8.743c-0.057-0.045-0.112-0.081-0.17-0.107C2.218,8.618,2.176,8.602,2.124,8.584
		C2.073,8.568,2.019,8.557,1.971,8.552C1.934,8.547,1.895,8.545,1.817,8.547c-0.046,0.004-0.093,0.01-0.14,0.021L1.463,8.655
		C1.429,8.675,1.396,8.697,1.37,8.717L1.32,8.758C1.275,8.794,1.239,8.834,1.213,8.865L1.164,8.924
		C1.138,8.96,1.109,9.003,1.083,9.047L1.035,9.132C1.001,9.197,0.965,9.27,0.939,9.356C0.917,9.442,0.901,9.523,0.888,9.619
		L0.875,9.854l0.067,0.424c0.011,0.036,0.022,0.068,0.024,0.069c0.018,0.047,0.039,0.095,0.061,0.134l0.029,0.055
		c0.007,0.012,0.014,0.022,0.021,0.033c-0.151,0.068-0.306,0.161-0.452,0.274c-0.201,0.153-0.42,0.378-0.537,0.605l-0.082-0.001
		l-0.005,0.284c0,0.001,0,0.003,0,0.004c0,0,0,0.001,0,0.002L0,12.028h0.087c0.049,0.093,0.114,0.191,0.216,0.307
		c0.048,0.054,0.1,0.106,0.182,0.18c0.057,0.05,0.117,0.101,0.187,0.152c0.065,0.047,0.132,0.09,0.236,0.152
		c0.046,0.026,0.094,0.051,0.156,0.078l-0.063,0.144C1,13.043,1,13.044,0.999,13.045l-0.035,0.07l0.003,0.013
		c-0.008,0.021-0.015,0.042-0.021,0.063l0.036,0.011l0.002,0.01l0.018-0.003l0.212,0.064c0,0.002,0,0.003-0.001,0.003l-0.29-0.016
		c-0.021,0.077-0.034,0.159-0.036,0.21l-0.011,0.059c-0.006,0.085-0.003,0.174,0.006,0.287c0.012,0.098,0.03,0.201,0.061,0.306
		c0.022,0.08,0.057,0.151,0.103,0.24l0.04,0.067c0.026,0.044,0.055,0.088,0.081,0.123l0.046,0.055c0.033,0.04,0.068,0.076,0.1,0.102
		l0.053,0.045c0.033,0.025,0.063,0.045,0.111,0.072l0.051,0.028c0.037,0.017,0.071,0.028,0.146,0.051
		c0.05,0.014,0.101,0.021,0.201,0.024c0.032,0,0.063-0.002,0.094-0.005l0.043-0.008c0.038-0.006,0.078-0.015,0.115-0.026
		c0.049-0.016,0.096-0.034,0.132-0.053c0.331-0.161,0.506-0.489,0.471-0.83c0.292,0.297,0.529,0.644,0.696,0.902
		c0.045,0.079,0.085,0.162,0.126,0.254c0.016,0.033,0.028,0.066,0.041,0.1c0.019,0.054,0.039,0.106,0.061,0.15
		c0.106,0.246,0.143,0.467,0.106,0.641c-0.014,0.063-0.039,0.12-0.081,0.177l-0.041,0.056c-0.021,0.019-0.042,0.031-0.063,0.044
		l-0.129,0.062l-0.057-0.002L3.38,16.392c-0.027-0.008-0.056-0.023-0.085-0.046l-0.708-0.819l0.168,1.024
		c0.045,0.276,0.156,0.538,0.308,0.729c0.255,0.347,0.565,0.537,0.876,0.537c0.159,0,0.395-0.052,0.616-0.297
		c0.053-0.059,0.099-0.121,0.139-0.186c0.131,0.338,0.329,0.705,0.727,0.99c0.313,0.241,0.7,0.327,0.987,0.264
		c0.115-0.022,0.209-0.057,0.281-0.09c0.037,0.011,0.076,0.019,0.117,0.023c0.021,0.039,0.045,0.077,0.072,0.111
		c-0.006,0.256,0.067,0.745,0.636,1.101c0.428,0.247,0.825,0.294,1.136,0.3c-0.043,0.057-0.083,0.119-0.117,0.186
		c-0.055,0.11-0.089,0.22-0.102,0.323c-0.059,0.436,0.237,0.813,0.762,0.979c0.213,0.076,0.49,0.088,0.739,0.053l0.986-0.16
		l-0.912-0.396l-0.009-0.005c-0.01-0.006-0.044-0.028-0.067-0.068c-0.01-0.016-0.016-0.035-0.02-0.057v-0.084l0.043-0.141
		c0.014-0.034,0.034-0.066,0.092-0.128c0.018-0.019,0.035-0.035,0.096-0.072c0.022-0.013,0.044-0.025,0.068-0.034l0.061-0.02
		c0.025-0.008,0.052-0.016,0.103-0.023l0.044-0.008c0.035-0.004,0.071-0.007,0.165-0.01l0.348,0.042
		c0.102,0.016,0.205,0.031,0.299,0.06c0.309,0.099,0.661,0.281,0.952,0.489c-0.008,0-0.016,0.001-0.023,0.001
		c-0.125,0.018-0.238,0.061-0.337,0.128l-0.058,0.046c-0.028,0.024-0.055,0.048-0.059,0.054l-0.061,0.068
		c-0.023,0.032-0.046,0.064-0.065,0.099l-0.029,0.053c-0.031,0.061-0.053,0.121-0.067,0.181c-0.01,0.039-0.018,0.082-0.024,0.134
		c-0.006,0.05-0.009,0.104-0.006,0.132l0.016,0.16c0.009,0.046,0.021,0.091,0.056,0.176l0.083,0.145
		c0.022,0.032,0.047,0.06,0.11,0.122c0.039,0.041,0.082,0.07,0.115,0.092l0.062,0.038c0.036,0.019,0.077,0.038,0.12,0.056
		l0.058,0.022c0.063,0.022,0.133,0.042,0.212,0.057c0.078,0.014,0.151,0.021,0.239,0.022l0.41-0.063l0.063-0.029v3.02
		c0,0-0.21,0.934-0.404,2.006h3.193c-0.137-1.057-0.289-1.912-0.289-1.912v-3.122c0.064,0.029,0.134,0.051,0.166,0.055l0.063,0.021
		c0.074,0.016,0.152,0.023,0.261,0.027c0.085,0,0.175-0.007,0.268-0.025c0.076-0.014,0.146-0.033,0.209-0.055l0.056-0.022
		c0.045-0.019,0.089-0.038,0.126-0.059l0.054-0.033c0.043-0.027,0.079-0.056,0.107-0.082l0.047-0.044
		c0.027-0.028,0.05-0.056,0.066-0.078l0.046-0.065c0.019-0.032,0.034-0.063,0.063-0.129c0.018-0.044,0.03-0.093,0.043-0.16
		c0.006-0.04,0.011-0.077,0.013-0.115v-0.037l-0.001-0.002c0.001-0.039-0.001-0.079-0.006-0.118
		c-0.006-0.049-0.015-0.095-0.025-0.132c-0.092-0.359-0.36-0.6-0.694-0.631c0.288-0.207,0.636-0.388,0.936-0.484
		c0.084-0.022,0.168-0.039,0.25-0.053l0.257-0.039c0.242-0.028,0.46,0.001,0.604,0.089c0.051,0.029,0.094,0.071,0.117,0.102
		l0.06,0.092c0.013,0.027,0.018,0.052,0.029,0.1l0.013,0.058v0.065v0.002c-0.004,0.022-0.011,0.043-0.02,0.059
		c-0.013,0.021-0.032,0.039-0.048,0.053l-0.905,0.438l0.951,0.136c0.248,0.035,0.531,0.021,0.729-0.05
		c0.354-0.112,0.61-0.318,0.72-0.582c0.065-0.157,0.109-0.411-0.052-0.728c-0.034-0.064-0.072-0.126-0.114-0.182
		c0.311-0.006,0.71-0.055,1.146-0.306c0.56-0.351,0.631-0.838,0.625-1.094c0.027-0.034,0.051-0.071,0.072-0.111
		c0.04-0.004,0.079-0.013,0.117-0.023c0.07,0.032,0.163,0.066,0.272,0.087c0.324,0.07,0.684-0.022,0.988-0.256
		c0.405-0.291,0.604-0.66,0.733-0.995c0.044,0.069,0.091,0.133,0.144,0.189c0.085,0.09,0.177,0.16,0.271,0.208
		c0.39,0.202,0.866,0.024,1.211-0.444c0.156-0.199,0.268-0.461,0.313-0.736l0.154-1.019l-0.679,0.799
		c-0.011,0.01-0.05,0.045-0.155,0.063l-0.2-0.108c-0.026-0.022-0.049-0.049-0.081-0.117c-0.012-0.024-0.025-0.05-0.042-0.128
		c-0.005-0.026-0.011-0.052-0.012-0.08l0.001-0.066v-0.003c0-0.028,0.001-0.057,0.006-0.086l0.054-0.243l0.091-0.225
		c0.058-0.157,0.124-0.302,0.188-0.414c0.174-0.271,0.411-0.618,0.705-0.917c0,0.001,0,0.002,0,0.003
		c-0.013,0.131,0.003,0.256,0.044,0.37l0.035,0.075c0.017,0.031,0.032,0.063,0.039,0.069l0.051,0.074
		c0.027,0.033,0.056,0.064,0.087,0.094l0.045,0.04c0.056,0.045,0.111,0.08,0.17,0.107c0.037,0.018,0.079,0.035,0.13,0.051
		c0.05,0.017,0.105,0.027,0.154,0.033c0.037,0.005,0.076,0.006,0.15,0.005c0.047-0.003,0.095-0.01,0.142-0.021l0.213-0.086
		c0.035-0.021,0.068-0.042,0.097-0.063l0.049-0.041c0.036-0.029,0.072-0.066,0.107-0.107l0.049-0.059
		c0.026-0.036,0.055-0.079,0.078-0.119l0.052-0.09c0.034-0.065,0.069-0.137,0.094-0.225c0.023-0.085,0.039-0.167,0.053-0.263
		l0.013-0.233l-0.066-0.421c-0.01-0.036-0.022-0.068-0.027-0.075c-0.016-0.046-0.037-0.092-0.059-0.13l-0.03-0.056
		c-0.006-0.011-0.014-0.022-0.02-0.034c0.15-0.067,0.305-0.16,0.451-0.273c0.201-0.152,0.421-0.379,0.537-0.605l0.082,0.002
		l0.006-0.286c0,0,0-0.002,0-0.003s0-0.001,0-0.002l0.001-0.291H28.442z M21.723,6.022c0.025-0.034,0.046-0.071,0.062-0.109
		c0.015,0.004,0.028,0.008,0.043,0.012c0.059,0.014,0.123,0.039,0.238,0.098c0.081,0.042,0.161,0.089,0.227,0.135
		c0.133,0.103,0.271,0.215,0.386,0.379l0.335,0.466c0.046,0.063,0.093,0.127,0.139,0.216l0.365,0.603l-0.484-0.46
		c-0.076-0.074-0.163-0.136-0.247-0.193l-0.399-0.286c-0.069-0.059-0.14-0.108-0.207-0.158c-0.074-0.054-0.146-0.103-0.207-0.167
		c-0.057-0.058-0.108-0.119-0.172-0.207c-0.052-0.08-0.106-0.157-0.15-0.216c-0.004-0.006-0.007-0.011-0.011-0.016
		C21.67,6.089,21.698,6.057,21.723,6.022z M18.991,4.448c0.213,0.043,0.413,0.083,0.596,0.133l0.351,0.104
		c0.175,0.058,0.326,0.106,0.437,0.183c0.072,0.05,0.141,0.104,0.221,0.176c0.058,0.052,0.112,0.107,0.162,0.162
		c0.017,0.018,0.032,0.035,0.049,0.055c-0.026,0.027-0.051,0.059-0.072,0.092c-0.023,0.039-0.044,0.081-0.058,0.124
		c-0.029-0.005-0.059-0.01-0.089-0.016c-0.066-0.012-0.135-0.029-0.225-0.052c-0.072-0.023-0.144-0.049-0.197-0.073l-0.059-0.029
		c-0.125-0.063-0.263-0.132-0.403-0.225l-0.242-0.165c-0.315-0.215-0.662-0.411-1.054-0.593C18.608,4.372,18.804,4.411,18.991,4.448
		z M17.549,5.431l0.774,0.3l0.766,0.43l0.621,0.337l0.693,0.118l0.746,1.113l0.959,0.72l0.382,1.177l-0.482,0.848l-1.058,0.336
		l-0.006,0.05c-0.127,0.045-0.241,0.105-0.339,0.184c-0.078,0.045-0.152,0.097-0.217,0.156c-0.125,0.009-0.239,0.032-0.345,0.07
		c-1.047,0.018-2.002-0.187-2.838-1.104c-0.498-0.547-1.415-1.221-1.715-1.894c-0.066-0.149-0.117-0.307-0.165-0.466
		c-0.001-0.102-0.015-0.2-0.035-0.298c0.014-0.097,0.022-0.193,0.018-0.292l0.06-0.025l0.302-0.82l0.702-0.684L17.549,5.431z
		 M11.519,3.945c0.722-0.286,1.314-0.657,1.804-1.127c0.396-0.353,0.711-0.759,0.942-1.191c0.034,0.063,0.063,0.127,0.101,0.189
		c0.609,0.97,1.596,1.747,2.746,2.157c-1.182-0.095-2.329,0.56-2.846,1.608c-0.002,0.004-0.004,0.01-0.006,0.014
		c-0.193-0.375-0.451-0.715-0.786-0.993c-0.522-0.403-1.178-0.634-1.797-0.634c-0.054,0-0.107,0.002-0.151,0.004
		c-0.034,0.001-0.067,0.003-0.101,0.005C11.456,3.968,11.486,3.957,11.519,3.945z M7.738,5.244C7.789,5.184,7.85,5.125,7.939,5.039
		c0.067-0.062,0.141-0.12,0.218-0.174c0.104-0.072,0.266-0.126,0.484-0.197l0.419-0.121c0.073-0.021,0.151-0.034,0.23-0.049
		l0.826-0.178c-0.057,0.023-0.109,0.052-0.162,0.079l-0.544,0.3c-0.088,0.05-0.173,0.098-0.244,0.149L8.825,5.081
		c-0.14,0.096-0.278,0.163-0.446,0.247c-0.073,0.033-0.149,0.061-0.26,0.09c-0.078,0.021-0.157,0.038-0.223,0.05L7.854,5.474
		C7.84,5.431,7.82,5.39,7.796,5.352C7.775,5.318,7.752,5.287,7.726,5.26C7.729,5.254,7.734,5.25,7.738,5.244z M7.251,7.729
		l0.746-1.113L8.69,6.497L9.312,6.16l0.766-0.43l0.774-0.3l1.177,0.255l0.702,0.684l0.302,0.82l0.06,0.025
		c-0.005,0.099,0.004,0.195,0.018,0.292c-0.021,0.098-0.034,0.196-0.035,0.298c-0.048,0.159-0.099,0.316-0.165,0.466
		c-0.3,0.673-1.217,1.347-1.715,1.894c-0.836,0.918-1.791,1.122-2.838,1.104c-0.105-0.038-0.22-0.062-0.345-0.07
		c-0.064-0.06-0.139-0.111-0.217-0.156c-0.098-0.078-0.212-0.139-0.339-0.184l-0.006-0.05l-1.058-0.336L5.91,9.625l0.382-1.177
		L7.251,7.729z M5.27,7.405c0.132-0.222,0.255-0.433,0.395-0.611l0.195-0.267c0.108-0.155,0.242-0.266,0.368-0.362
		c0.071-0.051,0.146-0.096,0.221-0.136L6.311,5.773l0.192,0.23c0.056-0.028,0.104-0.053,0.158-0.067
		c0.028-0.01,0.057-0.018,0.085-0.025c0.016,0.038,0.036,0.075,0.061,0.11C6.832,6.057,6.86,6.089,6.893,6.117
		C6.879,6.136,6.865,6.156,6.851,6.176L6.705,6.385C6.659,6.445,6.61,6.503,6.549,6.563C6.495,6.621,6.426,6.668,6.354,6.72
		C6.285,6.77,6.213,6.822,6.157,6.869l-0.218,0.16c-0.28,0.18-0.569,0.426-0.926,0.795C5.104,7.684,5.188,7.542,5.27,7.405z
		 M1.737,10.753c0,0,0.002,0.001,0.003,0.001C1.739,10.754,1.737,10.754,1.737,10.753L1.737,10.753z M4.646,12.422
		c-0.419,0.559-0.551,1.321-0.346,1.986c0.008,0.03,0.018,0.061,0.027,0.09c-0.019-0.027-0.037-0.054-0.055-0.081
		c-0.424-0.607-0.895-1.163-1.4-1.656c-0.374-0.354-0.802-0.735-1.302-1.026c0.088-0.05,0.175-0.098,0.263-0.156
		C2.1,11.4,2.357,11.192,2.588,10.971c0.268-0.23,0.505-0.463,0.699-0.685C3.691,9.853,4.03,9.425,4.326,8.972
		c-0.171,0.521-0.155,1.108,0.053,1.613c0.125,0.278,0.285,0.519,0.486,0.729c0.187,0.173,0.399,0.312,0.627,0.425
		C5.146,11.91,4.851,12.14,4.646,12.422z M6.807,17.453c-0.024,0.035-0.045,0.071-0.061,0.109c-0.015-0.004-0.028-0.008-0.043-0.012
		c-0.06-0.015-0.124-0.04-0.238-0.098c-0.081-0.042-0.161-0.089-0.228-0.135c-0.132-0.103-0.271-0.216-0.386-0.38l-0.335-0.465
		c-0.045-0.063-0.093-0.126-0.139-0.217l-0.365-0.602l0.485,0.459c0.075,0.075,0.163,0.137,0.248,0.195l0.397,0.286
		c0.068,0.057,0.139,0.107,0.206,0.156c0.075,0.054,0.147,0.104,0.209,0.168c0.057,0.057,0.107,0.119,0.17,0.207
		c0.054,0.08,0.107,0.158,0.152,0.216c0.004,0.006,0.007,0.011,0.01,0.016C6.86,17.387,6.832,17.418,6.807,17.453z M9.539,19.026
		c-0.213-0.042-0.414-0.082-0.597-0.132l-0.354-0.105c-0.173-0.057-0.322-0.104-0.433-0.181c-0.071-0.049-0.14-0.103-0.221-0.176
		c-0.058-0.052-0.112-0.106-0.161-0.161c-0.017-0.019-0.033-0.037-0.049-0.055c0.026-0.028,0.05-0.06,0.071-0.093
		C7.82,18.085,7.84,18.043,7.854,18c0.028,0.004,0.059,0.01,0.09,0.016c0.066,0.012,0.134,0.028,0.224,0.053
		c0.072,0.021,0.143,0.049,0.197,0.072l0.06,0.03c0.124,0.063,0.262,0.131,0.401,0.225l0.243,0.164
		c0.314,0.216,0.661,0.411,1.053,0.593C9.921,19.104,9.726,19.064,9.539,19.026z M10.852,17.894l-0.774-0.301l-0.766-0.429
		L8.69,16.827l-0.693-0.118l-0.746-1.113l-0.959-0.72L5.91,13.699l0.482-0.848l1.058-0.336l0.006-0.05
		c0.127-0.045,0.241-0.105,0.339-0.183c0.078-0.046,0.152-0.098,0.217-0.157c0.125-0.009,0.239-0.033,0.345-0.07
		c1.047-0.018,2.002,0.187,2.838,1.104c0.498,0.547,1.415,1.221,1.715,1.894c0.066,0.149,0.117,0.307,0.165,0.466
		c0.001,0.102,0.015,0.2,0.035,0.298c-0.014,0.095-0.021,0.191-0.018,0.288h-0.098v0.133l-0.264,0.717l-0.702,0.684L10.852,17.894z
		 M11.418,19.502c0.556,0.045,1.1-0.08,1.576-0.328v1.197C12.527,20.004,11.993,19.708,11.418,19.502z M17.012,19.53
		c-0.597,0.236-1.085,0.546-1.518,0.904v-1.282c0.428,0.228,0.902,0.354,1.358,0.354c0.054,0,0.108-0.001,0.152-0.005
		c0.033-0.001,0.065-0.002,0.099-0.004C17.073,19.508,17.043,19.519,17.012,19.53z M20.791,18.23c-0.051,0.062-0.11,0.12-0.2,0.206
		c-0.067,0.062-0.14,0.119-0.219,0.173c-0.104,0.073-0.256,0.123-0.434,0.182l-0.47,0.138c-0.073,0.021-0.15,0.034-0.23,0.049
		l-0.825,0.178c0.055-0.024,0.106-0.051,0.159-0.078l0.549-0.302c0.087-0.05,0.171-0.099,0.241-0.148l0.343-0.232
		c0.14-0.096,0.276-0.163,0.401-0.225l0.045-0.022c0.073-0.034,0.149-0.06,0.26-0.091c0.078-0.021,0.158-0.038,0.223-0.05
		l0.041-0.006c0.015,0.043,0.034,0.084,0.059,0.123c0.021,0.033,0.045,0.064,0.07,0.092C20.8,18.221,20.795,18.227,20.791,18.23z
		 M20.872,16.865l-0.693,0.118l-0.621,0.337l-0.766,0.43l-0.774,0.301l-1.177-0.256l-0.702-0.684l-0.302-0.82l-0.06-0.026
		c0.005-0.097-0.004-0.195-0.018-0.291c0.021-0.098,0.034-0.197,0.035-0.297c0.048-0.159,0.099-0.317,0.165-0.467
		c0.3-0.673,1.217-1.346,1.715-1.894c0.836-0.918,1.791-1.122,2.838-1.104c0.105,0.037,0.22,0.06,0.345,0.069
		c0.064,0.061,0.139,0.111,0.217,0.156c0.098,0.079,0.212,0.139,0.339,0.184l0.006,0.05l1.058,0.335l0.482,0.849l-0.382,1.176
		l-0.959,0.721L20.872,16.865z M23.261,16.069c-0.132,0.224-0.256,0.433-0.396,0.612l-0.195,0.267
		c-0.107,0.155-0.242,0.266-0.367,0.362c-0.071,0.05-0.146,0.095-0.221,0.135l0.138,0.257l-0.191-0.231
		c-0.056,0.029-0.104,0.054-0.16,0.068c-0.028,0.009-0.056,0.017-0.084,0.024c-0.016-0.037-0.037-0.074-0.062-0.109
		s-0.054-0.067-0.086-0.095c0.014-0.021,0.028-0.04,0.043-0.06l0.145-0.21c0.045-0.06,0.095-0.117,0.156-0.179
		c0.054-0.056,0.123-0.103,0.194-0.155c0.069-0.049,0.142-0.102,0.197-0.149l0.219-0.16c0.28-0.18,0.569-0.426,0.927-0.796
		C23.427,15.792,23.343,15.933,23.261,16.069z M26.793,12.723c-0.001,0-0.002-0.001-0.004-0.001
		C26.791,12.723,26.792,12.722,26.793,12.723L26.793,12.723z M26.696,11.897c-0.266,0.178-0.523,0.386-0.754,0.608
		c-0.269,0.229-0.506,0.462-0.7,0.683c-0.403,0.434-0.742,0.862-1.038,1.314c0.174-0.524,0.157-1.101-0.053-1.612
		c-0.125-0.277-0.285-0.519-0.486-0.728c-0.187-0.174-0.398-0.312-0.627-0.426c0.347-0.173,0.642-0.401,0.845-0.685
		c0.419-0.559,0.551-1.321,0.347-1.986c-0.009-0.03-0.019-0.061-0.027-0.089c0.018,0.026,0.036,0.054,0.055,0.081
		c0.424,0.607,0.894,1.163,1.4,1.655c0.374,0.354,0.802,0.737,1.302,1.027C26.871,11.792,26.783,11.839,26.696,11.897z"/>
</g>
<g>
</g>
<g>
</g>
<g>
</g>
<g>
</g>
<g>
</g>
<g>
</g>
<g>
</g>
<g>
</g>
<g>
</g>
<g>
</g>
<g>
</g>
<g>
</g>
<g>
</g>
<g>
</g>
<g>
</g>
</svg>
