<?xml version="1.0" encoding="iso-8859-1"?>
<!-- Generator: Adobe Illustrator 16.0.0, SVG Export Plug-In . SVG Version: 6.00 Build 0)  -->
<!DOCTYPE svg PUBLIC "-//W3C//DTD SVG 1.1//EN" "http://www.w3.org/Graphics/SVG/1.1/DTD/svg11.dtd">
<svg version="1.1" id="Layer_1" xmlns="http://www.w3.org/2000/svg" xmlns:xlink="http://www.w3.org/1999/xlink" x="0px" y="0px"
	 width="23.868px" height="49.72px" viewBox="0 0 23.868 49.72" style="enable-background:new 0 0 23.868 49.72;"
	 xml:space="preserve">
<g>
	<path d="M18.292,41.406h-3.091v-1.775h-1.568V39.28h-0.404c0-2.716,0-5.155,0-5.662c0-0.603,0.266-1.112,0.537-1.663h-3.459
		c0.288,0.533,0.546,1.077,0.546,1.664c0,0.545,0,2.969,0,5.661h-0.546v10.44h3.326v-1.426h1.568v-1.775h3.091v2.26h1.712v-9.772
		h-1.712V41.406z"/>
	<path d="M17.399,12.235c-0.122,0.173-0.047,0.416,0.187,0.551c0.239,0.139,0.572,0.096,0.72-0.11
		c0.162-0.2,0.055-0.456-0.211-0.562C17.836,12.01,17.535,12.069,17.399,12.235z"/>
	<path d="M16.538,12.259c-0.212-0.122-0.467-0.132-0.564-0.024c-0.107,0.101-0.049,0.293,0.145,0.437
		c0.188,0.141,0.457,0.163,0.586,0.04C16.824,12.581,16.751,12.379,16.538,12.259z"/>
	<path d="M15.218,12.687c-0.062,0.051-0.074,0.135-0.038,0.219c0.015,0.034,0.036,0.068,0.068,0.1s0.069,0.057,0.108,0.076
		c0.101,0.052,0.215,0.057,0.288,0c0.104-0.076,0.087-0.222-0.037-0.326C15.483,12.652,15.308,12.621,15.218,12.687z"/>
	<path d="M12.657,14.709c-0.244,0.04-0.436,0.215-0.422,0.456c0.012,0.227,0.266,0.43,0.556,0.386c0.294-0.036,0.481-0.25,0.42-0.48
		S12.902,14.68,12.657,14.709z"/>
	<path d="M11.768,13.816c-0.166-0.009-0.318,0.155-0.337,0.363c-0.021,0.208,0.127,0.382,0.328,0.391
		c0.202,0.002,0.353-0.181,0.34-0.387C12.082,13.972,11.936,13.817,11.768,13.816z"/>
	<path d="M10.854,13.627c-0.089-0.006-0.176,0.033-0.236,0.111c-0.024,0.03-0.044,0.066-0.056,0.105
		c-0.011,0.041-0.013,0.079-0.008,0.116c0.014,0.092,0.079,0.174,0.18,0.182c0.139,0.016,0.271-0.086,0.294-0.228
		C11.053,13.769,10.975,13.641,10.854,13.627z"/>
	<path d="M6.574,13.305c-0.217,0.152-0.246,0.428-0.03,0.59c0.219,0.16,0.546,0.142,0.733-0.04c0.184-0.181,0.188-0.436,0.004-0.57
		C7.1,13.151,6.798,13.147,6.574,13.305z"/>
	<path d="M7.603,12.168c-0.098-0.107-0.354-0.098-0.57,0.019c-0.217,0.117-0.292,0.316-0.171,0.446
		c0.113,0.134,0.395,0.109,0.585-0.027C7.644,12.464,7.695,12.28,7.603,12.168z"/>
	<path d="M7.045,11.769c0.158-0.075,0.224-0.198,0.17-0.286c-0.037-0.064-0.138-0.091-0.253-0.081
		c-0.045,0.004-0.091,0.014-0.138,0.032c-0.046,0.018-0.084,0.04-0.116,0.066c-0.081,0.066-0.112,0.155-0.07,0.228
		C6.701,11.828,6.895,11.842,7.045,11.769z"/>
	<path d="M5.32,9.031c0.028-0.197-0.168-0.388-0.459-0.43c-0.284-0.041-0.563,0.115-0.597,0.35C4.25,9.188,4.476,9.382,4.769,9.385
		C5.061,9.388,5.309,9.229,5.32,9.031z"/>
	<path d="M6.087,8.711c0.261,0.034,0.477-0.047,0.527-0.174c0.042-0.128-0.128-0.283-0.377-0.345
		C5.99,8.131,5.748,8.208,5.697,8.363C5.639,8.517,5.832,8.676,6.087,8.711z"/>
	<path d="M6.656,7.942C6.827,7.993,6.987,7.957,7.04,7.87c0.04-0.063,0.004-0.144-0.078-0.208C6.93,7.635,6.892,7.612,6.846,7.594
		C6.8,7.576,6.755,7.566,6.708,7.563C6.593,7.553,6.487,7.589,6.442,7.66C6.382,7.762,6.49,7.891,6.656,7.942z"/>
	<path d="M8.256,5.155C8.469,5.052,8.526,4.8,8.387,4.595c-0.139-0.207-0.458-0.274-0.71-0.151C7.426,4.57,7.39,4.847,7.565,5.028
		C7.748,5.216,8.047,5.26,8.256,5.155z"/>
	<path d="M9.545,5.655C9.69,5.593,9.74,5.396,9.647,5.206C9.552,5.009,9.321,4.897,9.144,4.972C8.962,5.043,8.916,5.247,9.043,5.429
		C9.17,5.611,9.395,5.714,9.545,5.655z"/>
	<path d="M10.465,5.509c0.085-0.017,0.14-0.092,0.153-0.185c0.004-0.037,0.004-0.075-0.008-0.115
		c-0.013-0.04-0.031-0.075-0.056-0.106c-0.062-0.077-0.162-0.118-0.259-0.098c-0.135,0.028-0.202,0.158-0.145,0.3
		C10.205,5.438,10.349,5.533,10.465,5.509z"/>
	<path d="M13.873,4.572c0.23,0.069,0.514-0.052,0.629-0.267c0.114-0.216-0.017-0.457-0.296-0.539
		c-0.278-0.079-0.573,0.074-0.639,0.295C13.496,4.294,13.641,4.504,13.873,4.572z"/>
	<path d="M14.094,5.235c-0.099,0.193-0.06,0.398,0.091,0.455c0.153,0.053,0.375-0.037,0.505-0.215
		c0.131-0.183,0.098-0.396-0.087-0.46C14.419,4.945,14.194,5.043,14.094,5.235z"/>
	<path d="M15.18,6.156c0.038-0.019,0.075-0.045,0.108-0.077c0.03-0.031,0.053-0.065,0.068-0.099
		c0.036-0.087,0.014-0.176-0.066-0.224c-0.112-0.067-0.282-0.026-0.383,0.095c-0.099,0.12-0.103,0.267-0.005,0.326
		C14.974,6.219,15.081,6.207,15.18,6.156z"/>
	<path d="M18.594,7.951c0.289-0.064,0.449-0.298,0.342-0.519c-0.095-0.225-0.413-0.318-0.683-0.218
		c-0.26,0.098-0.391,0.324-0.313,0.512C18.031,7.91,18.317,8.013,18.594,7.951z"/>
	<path d="M17.427,8.278c-0.25,0.058-0.421,0.209-0.378,0.338c0.038,0.129,0.255,0.213,0.518,0.182
		c0.253-0.029,0.451-0.186,0.405-0.342C17.919,8.301,17.676,8.221,17.427,8.278z"/>
	<path d="M17.331,9.17c-0.178,0.013-0.32,0.103-0.313,0.2c0.005,0.071,0.086,0.131,0.2,0.162c0.04,0.012,0.086,0.019,0.139,0.019
		c0.05,0,0.098-0.007,0.142-0.019C17.604,9.5,17.675,9.431,17.67,9.35C17.663,9.238,17.512,9.157,17.331,9.17z"/>
	<path d="M11.935,0C5.344,0,0,4.276,0,9.551c0,4.982,4.77,9.069,10.853,9.507c0,1.529,0,5.081,0,6.466
		c0,0.906-0.344,1.679-0.684,2.392h3.727c-0.313-0.773-0.667-1.499-0.667-2.302c0-1.125,0-4.975,0-6.572
		c5.981-0.517,10.64-4.567,10.64-9.492C23.868,4.276,18.524,0,11.935,0z M12.958,17.643c0.006-0.003,0.011-0.006,0.018-0.009
		l-0.008,0.011L12.958,17.643z M21.29,11.119h-0.002c0.001-0.001,0.002-0.003,0.003-0.004L21.29,11.119z M19.157,10.862
		l-0.067-0.013c0.362,0.339,1.025,0.401,1.421,0.754c0.272,0.249,0.417,0.661,0.41,1.083c-0.015,0.2-0.07,0.396-0.152,0.572
		l-0.267,0.337c0.042-0.407-0.024-0.797-0.183-1.119l-0.042-0.085c-0.356-0.604-1.157-1.119-1.944-1.574
		c-0.378-0.225-0.764-0.437-1.078-0.635c-0.299-0.198-0.565-0.386-0.68-0.589c-0.011-0.02-0.021-0.041-0.029-0.061
		c-0.19-0.392-0.103-0.946,0.235-1.394c0.284-0.35,0.764-0.657,1.151-1.007L17.906,7.09c-0.403-0.108-0.808,0.225-1.155,0.564
		c-0.33,0.34-0.674,0.692-0.721,0.845c-0.137,0.354-0.049,0.679,0.17,1.033c0.077,0.177,0.248,0.361,0.387,0.531
		c0.403,0.414,1.349,0.997,2.056,1.833c0.231,0.284,0.446,0.599,0.583,0.922c0.12,0.315,0.202,0.659,0.154,0.976
		c-0.073,0.639-0.599,1.244-1.621,1.469c-0.064,0.016-0.132,0.023-0.197,0.032c-0.776,0.108-1.376-0.13-1.559-0.694
		c-0.102-0.306-0.086-0.599,0.064-0.805c0.113-0.153,0.268-0.292,0.529-0.373c0.443-0.165,1.184-0.105,1.43,0.398
		c0.104,0.232-0.077,0.555-0.352,0.7c-0.265,0.154-0.55,0.162-0.61-0.123c0.809-0.063,0.124-0.866-0.411-0.454
		c-0.101,0.08-0.158,0.167-0.191,0.249c-0.113,0.322,0.257,0.723,0.663,0.817c0.063,0.016,0.124,0.025,0.186,0.033
		c0.483,0.051,0.92-0.154,1.14-0.461c0.224-0.308,0.242-0.691,0.001-1.006c-0.365-0.479-0.923-0.61-1.402-0.587
		c-0.253,0.006-0.495,0.053-0.707,0.14c-0.23,0.073-0.425,0.194-0.605,0.338l-0.064,0.051c-0.231,0.211-0.336,0.44-0.352,0.692
		c-0.011,0.254,0.073,0.531,0.232,0.793c0.258,0.44,0.755,0.824,1.324,0.996c-0.107,0.054-0.22,0.114-0.323,0.171
		c-0.629-0.307-1.16-0.666-1.46-1.217l-0.03-0.049c-0.103,0.44,0.255,0.904,0.15,1.359c-0.079,0.31-0.378,0.696-0.803,0.928
		c-0.229,0.129-0.479,0.249-0.73,0.289l-0.248-0.074c0.348-0.199,0.618-0.461,0.808-0.721l0.057-0.082
		c0.191-0.281,0.277-0.652,0.319-1.028c0.042-0.377,0.035-0.771,0.01-1.163c-0.039-0.776-0.132-1.455,0.096-1.865
		c0.012-0.021,0.026-0.039,0.041-0.058c0.262-0.359,0.864-0.654,1.513-0.721c0.519-0.041,1.119,0.069,1.7,0.092l0.025-0.04
		c-0.146-0.321-0.724-0.366-1.271-0.375c-0.539,0.006-1.095,0.011-1.277,0.077c-0.428,0.139-0.696,0.399-0.906,0.75
		c-0.11,0.172-0.197,0.375-0.272,0.576c-0.075,0.265-0.118,0.604-0.169,1.047c-0.066,0.407-0.149,0.919-0.341,1.376
		c-0.132,0.327-0.305,0.666-0.538,0.939c-0.231,0.283-0.517,0.543-0.856,0.708c-0.67,0.367-1.585,0.394-2.444-0.093
		c-0.049-0.035-0.102-0.07-0.153-0.105c-0.593-0.417-0.733-0.944-0.296-1.408c0.235-0.253,0.531-0.427,0.827-0.462
		c0.218-0.021,0.452-0.016,0.694,0.097c0.436,0.181,0.843,0.668,0.504,1.142c-0.34,0.468-1.674,0.194-1.164-0.238
		c0.565,0.462,0.922-0.468,0.186-0.54c-0.141-0.011-0.26,0.001-0.36,0.034c-0.386,0.13-0.547,0.611-0.386,0.924
		c0.024,0.048,0.053,0.093,0.084,0.137c0.251,0.341,0.729,0.472,1.163,0.428c0.438-0.064,0.824-0.275,0.98-0.629
		c0.24-0.534,0.021-0.948-0.301-1.248c-0.165-0.154-0.362-0.269-0.579-0.352c-0.213-0.103-0.453-0.138-0.705-0.167
		c-0.029-0.003-0.059-0.005-0.091-0.008c-0.349-0.013-0.638,0.064-0.894,0.211c-0.256,0.151-0.476,0.377-0.633,0.64
		c-0.322,0.522-0.358,1.209-0.009,1.713l-0.514-0.383c-0.087-0.578-0.062-1.125,0.286-1.649l0.031-0.05
		c-0.495,0.209-0.727,0.723-1.236,0.94c-0.354,0.144-0.912,0.196-1.405,0.077c-0.275-0.062-0.553-0.148-0.747-0.285
		c-0.002,0.002-0.002,0.003-0.004,0.005l-0.052-0.195c0.408,0.088,0.821,0.098,1.191,0.052l0.113-0.015
		c0.396-0.057,0.808-0.231,1.204-0.441c0.396-0.21,0.775-0.459,1.143-0.719c0.733-0.507,1.342-0.987,1.882-1.103
		c0.027-0.005,0.053-0.008,0.08-0.01c0.509-0.059,1.177,0.126,1.649,0.5c0.358,0.28,0.633,0.752,0.969,1.12l0.056-0.012
		c0.22-0.299-0.097-0.685-0.427-1.025c-0.164-0.163-0.348-0.349-0.497-0.478c-0.152-0.132-0.28-0.23-0.376-0.28
		c-0.403-0.165-0.829-0.19-1.297-0.096c-0.117,0.017-0.239,0.045-0.365,0.083c-0.12,0.03-0.241,0.061-0.365,0.106
		c-0.585,0.213-1.525,0.843-2.688,1.191c-0.405,0.124-0.836,0.223-1.252,0.25c-0.426,0.036-0.848,0.013-1.225-0.094
		c-0.233-0.059-0.45-0.154-0.644-0.277l-0.682-0.827c-0.055-0.15-0.095-0.311-0.103-0.487c0.001-0.051,0.002-0.105,0.003-0.161
		c0.015-0.308,0.13-0.575,0.341-0.762c0.203-0.187,0.489-0.289,0.854-0.301c0.396-0.011,0.726,0.074,0.964,0.229
		c0.162,0.123,0.279,0.282,0.338,0.496C6.099,12.787,5.9,13.33,5.215,13.42c-0.675,0.083-1.228-0.929-0.494-0.877
		c-0.098,0.643,1.046,0.28,0.64-0.218c-0.065-0.101-0.15-0.166-0.25-0.208c-0.376-0.156-0.945,0.043-1.146,0.336
		c-0.031,0.045-0.057,0.09-0.078,0.137c-0.184,0.374-0.007,0.748,0.303,0.996c0.331,0.238,0.796,0.338,1.225,0.225
		c0.678-0.188,0.935-0.577,1.036-0.971c0.084-0.393-0.028-0.782-0.293-1.127c-0.016-0.021-0.033-0.041-0.053-0.062
		c-0.385-0.448-1.067-0.547-1.775-0.425c-0.63,0.109-1.261,0.445-1.574,0.887l-0.162-0.301c0.566-0.46,1.106-0.814,1.893-0.932
		l0.068-0.012c-0.529-0.176-1.14-0.006-1.684-0.188c-0.38-0.13-0.754-0.449-0.954-0.83C1.793,9.644,1.729,9.425,1.731,9.221
		l0.125-0.204c0.178,0.324,0.422,0.604,0.715,0.811l0.088,0.063c0.611,0.421,1.664,0.603,2.586,0.746
		c0.482,0.068,0.939,0.125,1.315,0.199c0.41,0.065,0.704,0.157,0.941,0.29c0.021,0.015,0.042,0.029,0.063,0.042
		c0.371,0.285,0.604,0.815,0.534,1.344c-0.044,0.396-0.337,0.865-0.485,1.305l0.046,0.027c0.43-0.049,0.609-0.487,0.734-0.906
		c0.131-0.438,0.216-0.848,0.195-1.02c-0.086-0.357-0.341-0.628-0.711-0.871c-0.205-0.118-0.396-0.24-0.648-0.337
		c-0.549-0.237-1.78-0.429-2.832-0.941c-0.387-0.175-0.73-0.384-1.024-0.627c-0.31-0.243-0.536-0.52-0.675-0.824
		C2.409,7.718,2.558,6.986,3.365,6.431C3.416,6.4,3.469,6.366,3.523,6.334c0.31-0.184,0.644-0.278,0.956-0.263
		c0.309,0.012,0.586,0.128,0.826,0.348c0.261,0.242,0.38,0.501,0.376,0.747c-0.005,0.09-0.032,0.177-0.083,0.262
		C5.56,7.517,5.498,7.602,5.407,7.686C5.234,7.84,4.993,7.959,4.726,8.004c-0.272,0.043-0.573,0.01-0.823-0.181
		C3.399,7.452,4.044,6.474,4.45,6.966c-0.688,0.34,0.378,0.83,0.614,0.266C5.122,7.128,5.133,7.034,5.11,6.946
		C5.03,6.613,4.479,6.379,4.069,6.438C4.007,6.446,3.944,6.458,3.887,6.473C3.406,6.59,3.151,6.934,3.102,7.284
		C3.071,7.64,3.272,7.995,3.644,8.191c0.604,0.307,1.147,0.226,1.596,0.043C5.674,8.042,5.984,7.731,6.157,7.35
		c0.01-0.022,0.018-0.046,0.028-0.07C6.382,6.758,6.057,6.27,5.494,5.902C4.932,5.535,4.081,5.342,3.409,5.511
		C3.39,5.515,3.374,5.524,3.356,5.529l0.537-0.343c0.779,0.069,1.443,0.189,2.034,0.6l0.054,0.034
		C5.831,5.382,5.279,5.103,5.117,4.65C5.064,4.492,5.053,4.302,5.086,4.107C5.128,3.918,5.214,3.72,5.331,3.533
		c0.108-0.188,0.276-0.339,0.45-0.467h0.275C5.884,3.353,5.78,3.648,5.759,3.93L5.755,4.023C5.729,4.674,6.203,5.439,6.64,6.108
		c0.233,0.344,0.464,0.667,0.625,0.95c0.189,0.296,0.285,0.54,0.302,0.77C7.565,7.851,7.564,7.872,7.564,7.894
		C7.52,8.304,7.141,8.773,6.589,9.061C6.162,9.28,5.55,9.391,5.005,9.572l0.003,0.046c0.324,0.238,0.855,0.079,1.344-0.105
		C6.868,9.32,7.314,9.116,7.474,8.997c0.295-0.275,0.396-0.601,0.404-0.983c-0.013-0.2-0.012-0.398-0.074-0.617
		c-0.109-0.495-0.685-1.38-0.848-2.362C6.827,4.349,6.894,3.625,7.314,3.064c0.416-0.54,1.21-0.927,2.263-0.755
		C9.64,2.321,9.704,2.333,9.771,2.344c0.759,0.176,1.169,0.6,1.026,1.171c-0.072,0.325-0.254,0.549-0.495,0.699
		c-0.179,0.118-0.41,0.146-0.68,0.153C9.128,4.348,8.505,4.061,8.55,3.509c0.023-0.26,0.381-0.45,0.695-0.512
		c0.324-0.044,0.587,0.057,0.486,0.331c-0.373-0.132-0.534,0.076-0.49,0.265c0.047,0.197,0.257,0.36,0.614,0.285
		C9.99,3.845,10.089,3.79,10.162,3.72c0.273-0.263,0.161-0.742-0.154-0.972C9.961,2.715,9.911,2.686,9.86,2.66
		C9.45,2.446,8.945,2.474,8.581,2.68C8.204,2.864,7.995,3.232,8.032,3.584c0.068,0.554,0.502,0.868,0.951,1.021
		c0.457,0.146,0.959,0.161,1.436,0.022c0.027-0.01,0.056-0.02,0.085-0.029c0.636-0.196,0.907-0.703,0.919-1.285
		c0.008-0.531-0.291-1.142-0.801-1.475l0.51,0.039c0.412,0.522,0.705,1.007,0.675,1.629v0.055c0.331-0.353,0.261-0.884,0.6-1.267
		c0.243-0.278,0.712-0.479,1.226-0.565c0.279-0.053,0.561-0.036,0.813-0.001l0.173,0.151c-0.419,0.07-0.8,0.194-1.105,0.366
		l-0.095,0.056c-0.652,0.392-1.102,1.158-1.482,1.858C11.548,4.869,11.26,5.53,10.83,5.804c-0.022,0.015-0.042,0.029-0.064,0.043
		c-0.429,0.224-1.13,0.277-1.747,0.122C8.524,5.821,8.057,5.529,7.531,5.293L7.485,5.32C7.46,5.677,7.938,5.898,8.434,6.1
		c0.249,0.101,0.498,0.188,0.703,0.25c0.216,0.074,0.39,0.124,0.494,0.126c0.461,0.031,0.829-0.135,1.212-0.36
		c0.191-0.119,0.383-0.262,0.556-0.426c0.216-0.188,0.439-0.523,0.728-0.875c0.285-0.373,0.628-0.763,1.053-1.132
		c0.59-0.506,1.341-0.919,2.149-1.003c0.79-0.075,1.661,0.182,2.147,0.946c0.027,0.046,0.058,0.094,0.086,0.144
		C17.86,4.355,17.71,4.871,17.06,5.14c-0.36,0.157-0.697,0.188-0.992,0.126c-0.227-0.038-0.402-0.162-0.574-0.328
		c-0.289-0.322-0.396-0.892,0.172-1.208c0.268-0.144,0.678-0.042,0.934,0.115c0.241,0.178,0.31,0.404-0.021,0.511
		c-0.104-0.313-0.407-0.288-0.563-0.142c-0.164,0.152-0.191,0.386,0.104,0.562c0.115,0.065,0.23,0.092,0.344,0.094
		c0.424,0.01,0.822-0.358,0.854-0.702c0.003-0.049,0.001-0.1-0.006-0.147c-0.048-0.387-0.388-0.687-0.815-0.786
		c-0.416-0.121-0.904-0.023-1.226,0.22c-0.501,0.385-0.538,0.854-0.407,1.229c0.142,0.378,0.439,0.704,0.874,0.914
		c0.027,0.011,0.054,0.022,0.082,0.035c0.588,0.277,1.251,0.131,1.829-0.229c0.516-0.323,0.913-0.872,0.938-1.395l0.405,0.319
		c-0.034-0.024-0.068-0.048-0.1-0.065c-0.25,0.609-0.545,1.119-1.197,1.504L17.64,5.804c0.555-0.015,1.029-0.392,1.62-0.419
		c0.415-0.019,0.905,0.15,1.313,0.416c0.213,0.152,0.396,0.333,0.519,0.517v0l0.091,0.296c-0.366-0.271-0.784-0.467-1.187-0.567
		l-0.112-0.026c-0.808-0.154-1.813,0.03-2.747,0.236c-0.926,0.194-1.759,0.435-2.291,0.333c-0.03-0.005-0.057-0.01-0.083-0.016
		c-0.492-0.13-0.981-0.536-1.211-1.018c-0.161-0.402-0.17-0.875-0.267-1.351l-0.054-0.011c-0.363,0.204-0.281,0.639-0.172,1.078
		c0.059,0.219,0.127,0.428,0.193,0.596c0.062,0.182,0.12,0.32,0.182,0.387c0.256,0.307,0.647,0.438,1.111,0.537
		c0.231,0.051,0.503,0.07,0.764,0.086c0.656,0.006,1.813-0.219,3.072-0.143c0.422,0.032,0.863,0.093,1.265,0.21
		c0.385,0.121,0.77,0.284,1.052,0.511c0.569,0.446,0.854,1.153,0.418,1.932c-0.026,0.049-0.054,0.097-0.083,0.143
		c-0.401,0.551-0.978,0.78-1.656,0.542c-0.373-0.127-0.635-0.32-0.737-0.542c-0.104-0.167-0.12-0.352-0.038-0.565
		c0.106-0.378,0.64-0.806,1.278-0.645c0.291,0.08,0.489,0.396,0.466,0.657c-0.02,0.262-0.191,0.445-0.506,0.306
		c0.224-0.261,0.04-0.434-0.209-0.441c-0.237-0.009-0.515,0.121-0.489,0.414c0.012,0.114,0.059,0.203,0.13,0.275
		c0.235,0.271,0.859,0.29,1.209,0.095c0.054-0.029,0.103-0.062,0.149-0.095c0.706-0.555,0.214-1.563-0.728-1.629
		c-0.692-0.071-1.17,0.196-1.446,0.51c-0.148,0.162-0.259,0.344-0.307,0.53c-0.057,0.188-0.09,0.386-0.041,0.589
		c0.003,0.023,0.006,0.047,0.008,0.073c0.108,0.541,0.65,0.864,1.367,1.001c0.627,0.12,1.383,0.033,1.912-0.261L21.35,10.68
		C20.614,10.899,19.933,11.028,19.157,10.862z M20.902,11.256v0.001c0,0-0.001,0-0.004-0.001
		C20.901,11.256,20.901,11.256,20.902,11.256z"/>
	<path d="M15.023,28.995c0-0.507-0.412-0.918-0.919-0.919H9.763c-0.506,0.001-0.918,0.412-0.918,0.919
		c0,0.419,0.285,0.758,0.668,0.87c0,0.003-0.002,0.007-0.002,0.011h4.848c0-0.003-0.001-0.007-0.001-0.011
		C14.739,29.751,15.023,29.414,15.023,28.995z"/>
	<path d="M15.023,30.955c0-0.424-0.293-0.766-0.682-0.873c0.001-0.016,0.003-0.032,0.004-0.048H9.53
		c0.002,0.016,0.004,0.031,0.006,0.046c-0.395,0.105-0.691,0.448-0.691,0.875c0,0.378,0.229,0.699,0.553,0.842h5.073
		C14.795,31.654,15.023,31.333,15.023,30.955z"/>
</g>
<g>
</g>
<g>
</g>
<g>
</g>
<g>
</g>
<g>
</g>
<g>
</g>
<g>
</g>
<g>
</g>
<g>
</g>
<g>
</g>
<g>
</g>
<g>
</g>
<g>
</g>
<g>
</g>
<g>
</g>
</svg>
