<?xml version="1.0" encoding="iso-8859-1"?>
<!-- Generator: Adobe Illustrator 16.0.0, SVG Export Plug-In . SVG Version: 6.00 Build 0)  -->
<!DOCTYPE svg PUBLIC "-//W3C//DTD SVG 1.1//EN" "http://www.w3.org/Graphics/SVG/1.1/DTD/svg11.dtd">
<svg version="1.1" id="Layer_1" xmlns="http://www.w3.org/2000/svg" xmlns:xlink="http://www.w3.org/1999/xlink" x="0px" y="0px"
	 width="20.002px" height="48.102px" viewBox="0 0 20.002 48.102" style="enable-background:new 0 0 20.002 48.102;"
	 xml:space="preserve">
<path d="M14.928,0H5.074C2.272,0,0,2.271,0,5.074l1.015,16.214c0,2.801,2.272,5.074,5.074,5.074h0.866v8.465h1.576v1.011H6.955
	v1.659h1.576v5.754H6.955v2.904h1.576v1.946h3.253v-1.946h1.698v-2.904h-1.698v-5.754h1.698v-1.659h-1.698v-1.011h1.698v-8.465
	h0.432c2.802,0,5.074-2.273,5.074-5.074l1.015-16.214C20.002,2.271,17.73,0,14.928,0z M12.356,6.792H8.079
	c-1.02,0-1.847-0.716-1.847-1.591c0-0.882,0.827-1.594,1.847-1.594h4.277c1.021,0,1.849,0.712,1.849,1.594
	C14.205,6.076,13.376,6.792,12.356,6.792z"/>
<g>
</g>
<g>
</g>
<g>
</g>
<g>
</g>
<g>
</g>
<g>
</g>
<g>
</g>
<g>
</g>
<g>
</g>
<g>
</g>
<g>
</g>
<g>
</g>
<g>
</g>
<g>
</g>
<g>
</g>
</svg>
