<?xml version="1.0" encoding="iso-8859-1"?>
<!-- Generator: Adobe Illustrator 16.0.0, SVG Export Plug-In . SVG Version: 6.00 Build 0)  -->
<!DOCTYPE svg PUBLIC "-//W3C//DTD SVG 1.1//EN" "http://www.w3.org/Graphics/SVG/1.1/DTD/svg11.dtd">
<svg version="1.1" id="Layer_1" xmlns="http://www.w3.org/2000/svg" xmlns:xlink="http://www.w3.org/1999/xlink" x="0px" y="0px"
	 width="31.409px" height="50.454px" viewBox="0 0 31.409 50.454" style="enable-background:new 0 0 31.409 50.454;"
	 xml:space="preserve">
<path d="M27.469,11.733h-1.173l-0.549-6.246C25.72,2.457,23.307,0,20.347,0h-8.683c-2.96,0-5.372,2.457-5.401,5.487l-0.55,6.246
	H3.94c-2.176,0-3.94,1.765-3.94,3.94v4.282c0,1.948,1.416,3.563,3.272,3.881C3.271,23.88,3.26,23.922,3.26,23.966v0.647
	c0,1.557,1.26,2.816,2.815,2.816c1.557,0,2.816-1.26,2.816-2.816v-0.647c0-0.022-0.006-0.045-0.006-0.067h1.994v2.124h1.369v22.036
	l1.984,1.301V26.022h0.685V49.77l0.787,0.685l3.661-3.627V45.39l-1.095-0.41l1.095-0.821v-0.753l-2.395-1.916l2.053-2.19
	l-0.753-0.958l0.753-0.615v-1.027l-1.438-1.573l0.685-1.506l-1.3-1.164v-1.506l2.053-1.916v-3.011h1.506v-2.124h2.5v0.322
	c0,1.556,1.262,2.816,2.817,2.816c1.555,0,2.815-1.261,2.815-2.816v-0.509c1.592-0.506,2.746-1.996,2.746-3.756v-4.282
	C31.409,13.498,29.646,11.733,27.469,11.733z M6.076,20.758c-1.098,0-1.987-0.89-1.987-1.987s0.89-1.987,1.987-1.987
	s1.987,0.89,1.987,1.987S7.174,20.758,6.076,20.758z M8.077,11.733l0.536-6.089l0.005-0.103c0-1.758,1.366-3.187,3.046-3.187h8.683
	c1.68,0,3.046,1.429,3.046,3.187l0.545,6.191H8.077z M25.848,20.953c-1.098,0-1.987-0.891-1.987-1.988
	c0-1.097,0.89-1.987,1.987-1.987c1.097,0,1.986,0.891,1.986,1.987C27.834,20.063,26.944,20.953,25.848,20.953z"/>
<g>
</g>
<g>
</g>
<g>
</g>
<g>
</g>
<g>
</g>
<g>
</g>
<g>
</g>
<g>
</g>
<g>
</g>
<g>
</g>
<g>
</g>
<g>
</g>
<g>
</g>
<g>
</g>
<g>
</g>
</svg>
