<?xml version="1.0" encoding="iso-8859-1"?>
<!-- Generator: Adobe Illustrator 16.0.0, SVG Export Plug-In . SVG Version: 6.00 Build 0)  -->
<!DOCTYPE svg PUBLIC "-//W3C//DTD SVG 1.1//EN" "http://www.w3.org/Graphics/SVG/1.1/DTD/svg11.dtd">
<svg version="1.1" id="Layer_1" xmlns="http://www.w3.org/2000/svg" xmlns:xlink="http://www.w3.org/1999/xlink" x="0px" y="0px"
	 width="24.865px" height="46.522px" viewBox="0 0 24.865 46.522" style="enable-background:new 0 0 24.865 46.522;"
	 xml:space="preserve">
<path d="M16.748,42.754c-0.041-6.509-0.082-13.018-0.123-19.527c4.802-1.557,8.273-6.087,8.24-11.399
	C24.823,5.264,19.449-0.042,12.886,0C6.322,0.041,1.015,5.413,1.057,11.978c0.031,5.101,3.29,9.429,7.818,11.091
	c0.014,2.191,0.027,4.383,0.041,6.573l-5.94,0.037l0.02,3.098l5.94-0.036c0.006,0.99,0.013,1.98,0.02,2.97L0,35.766l0.02,3.1
	l8.954-0.057c0.005,0.814,0.011,1.63,0.016,2.445l-5.94,0.038l0.02,3.099l6.246-0.04C10.753,47.713,16.775,47.163,16.748,42.754z
	 M5.706,11.948c-0.026-4,3.208-7.275,7.209-7.3c3.999-0.025,7.275,3.208,7.301,7.208c0.024,4.001-3.21,7.276-7.21,7.301
	C9.006,19.183,5.73,15.948,5.706,11.948z"/>
<g>
</g>
<g>
</g>
<g>
</g>
<g>
</g>
<g>
</g>
<g>
</g>
<g>
</g>
<g>
</g>
<g>
</g>
<g>
</g>
<g>
</g>
<g>
</g>
<g>
</g>
<g>
</g>
<g>
</g>
</svg>
