<?xml version="1.0" encoding="iso-8859-1"?>
<!-- Generator: Adobe Illustrator 16.0.0, SVG Export Plug-In . SVG Version: 6.00 Build 0)  -->
<!DOCTYPE svg PUBLIC "-//W3C//DTD SVG 1.1//EN" "http://www.w3.org/Graphics/SVG/1.1/DTD/svg11.dtd">
<svg version="1.1" id="Layer_1" xmlns="http://www.w3.org/2000/svg" xmlns:xlink="http://www.w3.org/1999/xlink" x="0px" y="0px"
	 width="32.17px" height="49.401px" viewBox="0 0 32.17 49.401" style="enable-background:new 0 0 32.17 49.401;"
	 xml:space="preserve">
<path d="M31.767,13.687c-1.025-2.251-3.691-3.248-5.942-2.223c-0.162,0.074-0.314,0.158-0.463,0.247
	c0.157-0.868,0.063-1.79-0.33-2.651c-0.947-2.078-3.291-3.083-5.417-2.419c0.379-0.652,0.6-1.407,0.6-2.214
	C20.215,1.986,18.229,0,15.788,0s-4.427,1.986-4.427,4.427c0,0.728,0.18,1.413,0.492,2.02C10.08,6.279,8.298,7.181,7.436,8.861
	c-0.432,0.843-0.569,1.76-0.452,2.634c-0.144-0.096-0.292-0.187-0.451-0.268c-2.201-1.129-4.91-0.256-6.039,1.944
	c-1.128,2.201-0.256,4.91,1.945,6.039c1.606,0.824,3.481,0.578,4.816-0.469c-0.071,1.695,0.823,3.361,2.43,4.185
	c1.649,0.846,3.583,0.568,4.925-0.551v2.921h-1.9v1.759h1.9v0.928h-1.9v1.759h1.9v0.888h-1.9v1.759h1.9v0.928h-1.9v1.759h1.9v0.484
	v2.307v3.216v1.188H4.511v7.132h2.723v-4.409h7.375v4.409l0,0h2.723h0v-4.409h7.375v4.409h2.723V42.27H17.333v-4.404h0v-2.307
	v-0.484h1.901v-1.759h-1.901v-0.928h1.901v-1.759h-1.901v-0.888h1.901v-1.759h-1.901v-0.928h1.901v-1.759h-1.901v-3
	c1.287,1.118,3.152,1.46,4.802,0.709c1.642-0.749,2.612-2.372,2.621-4.068c1.286,1.107,3.146,1.44,4.79,0.691
	C31.795,18.603,32.792,15.937,31.767,13.687z M24.028,9.518c0.773,1.696,0.021,3.706-1.676,4.479
	c-1.697,0.773-3.706,0.021-4.479-1.675c-0.773-1.697-0.022-3.707,1.675-4.48C21.245,7.069,23.254,7.821,24.028,9.518z
	 M23.204,15.511c0,0.007,0,0.014,0,0.021c-0.005-0.004-0.01-0.009-0.016-0.014L23.204,15.511z M15.788,1.104
	c1.832,0,3.322,1.491,3.322,3.323c0,1.832-1.49,3.323-3.322,3.323c-1.832,0-3.322-1.491-3.322-3.323
	C12.466,2.595,13.957,1.104,15.788,1.104z M7.495,16.761c-0.851,1.659-2.893,2.317-4.553,1.466
	c-1.659-0.851-2.316-2.893-1.465-4.552c0.851-1.66,2.893-2.317,4.552-1.466C7.688,13.06,8.346,15.102,7.495,16.761z M8.418,9.365
	c0.851-1.659,2.893-2.316,4.552-1.466c1.659,0.851,2.316,2.893,1.465,4.553c-0.102,0.199-0.224,0.383-0.358,0.553l-0.079,0.088
	c-0.994,1.169-2.692,1.555-4.116,0.825C8.225,13.067,7.568,11.024,8.418,9.365z M8.979,15.398c-0.005,0.004-0.011,0.008-0.017,0.013
	c0-0.007,0-0.014,0-0.021L8.979,15.398z M10.188,21.943c-1.66-0.851-2.317-2.893-1.466-4.552s2.893-2.316,4.552-1.466
	c1.66,0.851,2.317,2.893,1.466,4.552c-0.022,0.043-0.054,0.078-0.078,0.12H14.61v0.083C13.698,22.181,11.774,22.756,10.188,21.943z
	 M21.676,22c-1.697,0.773-3.706,0.021-4.479-1.675c-0.773-1.697-0.022-3.706,1.675-4.479c1.697-0.773,3.706-0.021,4.479,1.674
	C24.125,19.217,23.373,21.227,21.676,22z M29.086,18.624c-1.697,0.773-3.706,0.021-4.479-1.675
	c-0.773-1.697-0.022-3.706,1.675-4.479c1.697-0.773,3.706-0.021,4.479,1.675C31.535,15.841,30.783,17.851,29.086,18.624z"/>
<g>
</g>
<g>
</g>
<g>
</g>
<g>
</g>
<g>
</g>
<g>
</g>
<g>
</g>
<g>
</g>
<g>
</g>
<g>
</g>
<g>
</g>
<g>
</g>
<g>
</g>
<g>
</g>
<g>
</g>
</svg>
