<?xml version="1.0" encoding="iso-8859-1"?>
<!-- Generator: Adobe Illustrator 16.0.0, SVG Export Plug-In . SVG Version: 6.00 Build 0)  -->
<!DOCTYPE svg PUBLIC "-//W3C//DTD SVG 1.1//EN" "http://www.w3.org/Graphics/SVG/1.1/DTD/svg11.dtd">
<svg version="1.1" id="Layer_1" xmlns="http://www.w3.org/2000/svg" xmlns:xlink="http://www.w3.org/1999/xlink" x="0px" y="0px"
	 width="23.467px" height="48.23px" viewBox="0 0 23.467 48.23" style="enable-background:new 0 0 23.467 48.23;"
	 xml:space="preserve">
<g>
	<path d="M16.863,11.733c0-2.829-2.302-5.13-5.13-5.13s-5.13,2.301-5.13,5.13c0,2.828,2.302,5.13,5.13,5.13
		S16.863,14.562,16.863,11.733z M11.733,14.976c-1.788,0-3.243-1.454-3.243-3.242S9.945,8.49,11.733,8.49s3.243,1.455,3.243,3.243
		S13.521,14.976,11.733,14.976z"/>
	<path d="M15.094,22.967c4.967-1.477,8.373-5.993,8.373-11.233C23.467,5.263,18.203,0,11.733,0S0,5.263,0,11.733
		c0,4.971,3.192,9.421,7.847,11.061V48.23h7.247v-4.01h8.02V29.362h-8.02V22.967z M21.227,31.249v11.085h-8.02v4.01H9.733V21.393
		l-0.686-0.195c-4.217-1.199-7.161-5.091-7.161-9.464c0-5.43,4.418-9.847,9.847-9.847s9.847,4.417,9.847,9.847
		c0,4.536-3.214,8.568-7.641,9.588l-0.732,0.168v9.76H21.227z"/>
</g>
<g>
</g>
<g>
</g>
<g>
</g>
<g>
</g>
<g>
</g>
<g>
</g>
<g>
</g>
<g>
</g>
<g>
</g>
<g>
</g>
<g>
</g>
<g>
</g>
<g>
</g>
<g>
</g>
<g>
</g>
</svg>
