<?xml version="1.0" encoding="iso-8859-1"?>
<!-- Generator: Adobe Illustrator 16.0.0, SVG Export Plug-In . SVG Version: 6.00 Build 0)  -->
<!DOCTYPE svg PUBLIC "-//W3C//DTD SVG 1.1//EN" "http://www.w3.org/Graphics/SVG/1.1/DTD/svg11.dtd">
<svg version="1.1" id="Layer_1" xmlns="http://www.w3.org/2000/svg" xmlns:xlink="http://www.w3.org/1999/xlink" x="0px" y="0px"
	 width="29.104px" height="49.809px" viewBox="0 0 29.104 49.809" style="enable-background:new 0 0 29.104 49.809;"
	 xml:space="preserve">
<g>
	<path d="M23.977,15.187c0.075,0.126,0.131,0.255,0.163,0.394c0.137-0.03,0.282-0.041,0.435-0.04
		c-0.072-0.131-0.126-0.26-0.164-0.394C24.272,15.184,24.125,15.194,23.977,15.187z"/>
	<path d="M14.163,18.628l-0.098-0.065c-0.174,0.023-0.524,0.014-0.848-0.021c-0.323-0.035-0.629-0.042-0.74,0.075
		c0.216,0.146,0.639,0.585,0.894,0.653C13.798,19.358,13.81,18.842,14.163,18.628z"/>
	<path d="M15.062,20.398c0.393-0.069,0.289,0.65-0.066,0.718c-0.017,0.002-0.028,0.003-0.041,0.005
		c-0.431,0.045-0.522-0.542-0.438-0.876l0.007-0.026l-0.007-0.026c-0.087-0.327-0.003-0.921,0.37-0.908
		c0.012,0.001,0.021,0.001,0.036,0.002c0.309,0.042,0.513,0.75,0.121,0.71c0.206,0.241,0.485-0.019,0.553-0.396
		c0.07-0.378-0.048-0.799-0.536-0.951c-0.067-0.02-0.133-0.023-0.198-0.017c-0.542,0.068-1.114,0.894-0.988,1.572
		c-0.204,0.645,0.387,1.591,1.105,1.57c0.081,0,0.164-0.009,0.244-0.034c0.59-0.178,0.616-0.677,0.473-1.013
		C15.55,20.392,15.246,20.139,15.062,20.398z"/>
	<path d="M17.186,18.784c-0.299-0.272-0.639-0.397-0.932-0.248c-0.45,0.213-0.48,0.683-0.337,1.027
		c0.141,0.345,0.469,0.564,0.623,0.294c-0.379,0.097-0.317-0.623-0.024-0.722c0.38-0.149,0.594,0.441,0.575,0.792l-0.002,0.027
		l0.012,0.024c0.155,0.317,0.182,0.944-0.291,0.964c-0.362,0-0.61-0.7-0.208-0.689c-0.232-0.225-0.483,0.062-0.558,0.432
		c-0.072,0.37,0.047,0.821,0.667,0.911c0.404,0.047,0.771-0.244,0.966-0.606c0.2-0.361,0.225-0.836,0.047-1.168
		C17.722,19.437,17.482,19.059,17.186,18.784z"/>
	<path d="M15.77,19.8c-0.061,0.138-0.133,0.265-0.227,0.376c0.11,0.088,0.206,0.194,0.296,0.314
		c0.063-0.139,0.137-0.265,0.227-0.376C15.952,20.027,15.856,19.92,15.77,19.8z"/>
	<path d="M6.516,17.198c-0.139,0.053-0.279,0.088-0.423,0.097c0.01,0.14-0.001,0.283-0.026,0.432
		c0.143-0.049,0.283-0.083,0.422-0.097C6.475,17.486,6.486,17.343,6.516,17.198z"/>
	<path d="M4.789,8.835C4.714,8.71,4.657,8.581,4.626,8.442c-0.137,0.031-0.283,0.042-0.435,0.04c0.072,0.132,0.126,0.26,0.164,0.394
		C4.493,8.838,4.64,8.829,4.789,8.835z"/>
	<path d="M14.603,5.395L14.7,5.46c0.174-0.023,0.524-0.014,0.848,0.021c0.324,0.035,0.63,0.042,0.741-0.075
		c-0.216-0.146-0.639-0.584-0.894-0.653C14.968,4.665,14.955,5.18,14.603,5.395z"/>
	<path d="M14.892,3.818c0.204-0.645-0.387-1.591-1.105-1.57c-0.082,0-0.164,0.009-0.244,0.035c-0.59,0.177-0.616,0.676-0.473,1.012
		c0.145,0.335,0.45,0.588,0.634,0.329c-0.394,0.069-0.289-0.65,0.066-0.718c0.017-0.002,0.027-0.003,0.042-0.005
		c0.43-0.045,0.522,0.542,0.438,0.876l-0.007,0.026l0.007,0.026c0.087,0.327,0.003,0.921-0.369,0.908
		c-0.012-0.001-0.021-0.001-0.036-0.002c-0.309-0.042-0.514-0.75-0.122-0.71c-0.205-0.241-0.485,0.018-0.553,0.396
		c-0.07,0.378,0.048,0.8,0.536,0.951c0.067,0.02,0.133,0.023,0.199,0.017C14.446,5.322,15.018,4.496,14.892,3.818z"/>
	<path d="M12.226,4.165c0.379-0.096,0.317,0.624,0.024,0.722c-0.379,0.149-0.594-0.441-0.575-0.792l0.002-0.027l-0.013-0.024
		c-0.154-0.317-0.181-0.944,0.292-0.964c0.362,0,0.609,0.7,0.207,0.689c0.233,0.225,0.484-0.062,0.558-0.432
		c0.072-0.369-0.047-0.821-0.667-0.91c-0.404-0.047-0.771,0.244-0.967,0.606c-0.201,0.361-0.225,0.835-0.047,1.167
		c0.001,0.386,0.242,0.764,0.538,1.039c0.299,0.273,0.64,0.398,0.933,0.249c0.45-0.213,0.479-0.684,0.337-1.027
		C12.708,4.115,12.38,3.896,12.226,4.165z"/>
	<path d="M12.927,3.532c-0.064,0.139-0.137,0.265-0.228,0.376c0.114,0.088,0.21,0.194,0.296,0.315
		c0.06-0.138,0.134-0.264,0.228-0.377C13.113,3.758,13.017,3.652,12.927,3.532z"/>
	<path d="M26.64,7.356c-0.304-0.247-0.829-0.494-1.205-0.417c0.127-0.421,0.038-1.408-0.622-1.444
		c0.036,0.207,0.129,0.381,0.209,0.56c0.071,0.19,0.128,0.388,0.099,0.616c-0.06,0.471-0.336,0.878-0.753,1.116
		c0.003-0.002,0.07,0.093,0.067,0.094c0.356-0.049,0.587-0.282,0.932-0.352c0.417-0.079,0.601,0.143,1,0.198
		C26.953,7.847,26.947,7.603,26.64,7.356z"/>
	<path d="M22.249,6.825c0.139-0.053,0.279-0.088,0.423-0.098c-0.01-0.139,0.002-0.283,0.027-0.431
		c-0.144,0.049-0.284,0.084-0.423,0.096C22.29,6.536,22.278,6.679,22.249,6.825z"/>
	<path d="M22.639,3.762c-0.209-0.12-0.504-0.159-0.758-0.207c-0.005-0.623-0.421-0.991-1.069-1.074
		c0.491,0.854,0.419,1.464-0.009,2.291l-0.008,0.136c0.258-0.009,0.479-0.504,0.839-0.624c0.183-0.06,0.401-0.063,0.625-0.04
		c0.216,0.037,0.436,0.101,0.632,0.155C22.971,4.085,22.845,3.892,22.639,3.762z"/>
	<path d="M29.104,11.813C29.104,5.299,22.576,0,14.552,0C6.528,0,0,5.299,0,11.813c0,5.898,5.359,10.786,12.328,11.66
		c-0.015,0.105-0.032,0.211-0.032,0.321c0,0.847,0.442,1.587,1.106,2.013c0,0,0,1.156,0,1.688s-0.797,0.491-0.797,0.975
		s0.797,0.554,0.797,0.976s0,0.619,0,1.004c0,0.384-0.797,0.491-0.797,0.975s0.797,0.46,0.797,0.975c0,0.29,0,5.466,0,9.954h-0.381
		h-2.736l0-1.012l-4.123,0.018v-0.786H5.051v1.32h4.383v1.573H5.051v1.33h1.111V44l4.124-0.017v-0.739h2.735h0.381
		c0,1.557,0,2.973,0,4.008h-0.541h-2.576l0-0.897l-4.123,0.018v-0.786H5.051v1.32h4.383v1.573H5.051v1.33h1.111v-0.796l4.124-0.017
		l0-0.854h2.576h0.541c0,0.507,0,0.807,0,0.807h1.365h0.067h1.365c0,0,0-0.3,0-0.807h2.506l0,0.854l4.124,0.017v0.796h1.111v-1.33
		h-4.383v-1.573h4.383v-1.32h-1.111v0.786l-4.123-0.018l0,0.897h-2.506c0-1.035,0-2.451,0-4.008h2.666v0.739L22.989,44v0.796H24.1
		v-1.33h-4.383v-1.573H24.1v-1.32h-1.111v0.786l-4.123-0.018l0,1.012h-2.666c0-4.488,0-9.665,0-9.954
		c0-0.515,0.797-0.491,0.797-0.975s-0.797-0.591-0.797-0.975c0-0.385,0-0.583,0-1.004s0.797-0.491,0.797-0.976
		s-0.797-0.443-0.797-0.975s0-1.688,0-1.688c0.664-0.426,1.106-1.167,1.106-2.013c0-0.115-0.018-0.226-0.034-0.337h-0.367
		C23.811,22.539,29.104,17.674,29.104,11.813z M4.455,4.799C4.359,5.093,4.317,5.437,4.414,5.687
		C4.189,5.66,3.849,5.691,3.557,5.816C3.488,5.849,3.423,5.889,3.364,5.935C3.696,5.537,4.061,5.158,4.455,4.799z M1.648,14.716
		c-0.261-0.735-0.428-1.501-0.485-2.291c0.008,0.092,0.018,0.185,0.045,0.275c0.118,0.431,0.364,0.638,0.605,0.708
		c0.24,0.07,0.485,0.007,0.688-0.105c0.206-0.113,0.359-0.272,0.438-0.427c0.085-0.156,0.077-0.307-0.085-0.425
		c0.101,0.502-0.788,0.419-0.889-0.083c-0.029-0.143-0.011-0.262,0.036-0.357c0.201-0.334,0.736-0.354,1.056-0.253
		c0.208,0.064,0.342,0.153,0.436,0.253c0.292,0.259,0.271,0.639,0.556,0.905c0.065,0.059,0.15,0.112,0.244,0.154
		c-0.34,0.003-0.72-0.128-0.928-0.385c-0.148,0.306-0.303,0.545-0.556,0.782c0.315,0.119,0.568,0.271,0.823,0.496
		c0.095-0.332,0.389-0.602,0.727-0.733c-0.084,0.084-0.152,0.178-0.195,0.27c-0.092,0.242-0.046,0.488-0.07,0.73
		c-0.029,0.246-0.062,0.47-0.373,0.729c-0.321,0.282-1.091,0.513-1.249-0.127c-0.099-0.5,0.687-0.932,0.785-0.428
		c0.217-0.343-0.22-0.582-0.664-0.639C2.171,13.715,1.613,13.925,1.648,14.716z M3.288,17.595C3.141,17.415,3,17.23,2.867,17.042
		c0.163,0.044,0.323,0.07,0.462,0.042C3.29,17.214,3.275,17.401,3.288,17.595z M6.632,20.419c0.085,0.016,0.171,0.034,0.251,0.049
		c0,0.034,0.007,0.065,0.009,0.099C6.806,20.518,6.719,20.469,6.632,20.419z M11.412,21.521c-0.441-0.155-0.435-1.052,0.048-0.889
		c-0.185-0.348-0.611-0.113-0.863,0.266c-0.206,0.312-0.282,0.79,0.112,1.138c-0.415-0.099-0.82-0.213-1.217-0.342
		c0.514-0.105,0.687-0.542,0.672-0.917c-0.021-0.461-0.272-0.862-0.606-0.667c0.495,0.112,0.044,0.884-0.417,0.786
		c-0.134-0.028-0.228-0.089-0.293-0.169c-0.227-0.276-0.065-0.789,0.141-1.056c0.135-0.176,0.269-0.276,0.405-0.333
		c0.355-0.16,0.712,0.022,1.101-0.122c0.086-0.03,0.176-0.081,0.261-0.143c-0.159,0.31-0.447,0.563-0.778,0.665
		c0.231,0.242,0.369,0.514,0.462,0.838c0.248-0.233,0.501-0.38,0.829-0.484c-0.244-0.251-0.354-0.646-0.323-1
		c0.042,0.114,0.1,0.219,0.167,0.299c0.371,0.411,0.976,0.369,1.061,1.159C12.226,20.976,11.99,21.731,11.412,21.521z
		 M13.329,22.439c0.115-0.099,0.212-0.211,0.27-0.331c0.075,0.117,0.201,0.249,0.348,0.365
		C13.739,22.466,13.534,22.454,13.329,22.439z M17.864,22.155c0.158-0.075,0.316-0.179,0.459-0.277
		c0.051,0.052,0.106,0.098,0.162,0.138C18.28,22.066,18.073,22.113,17.864,22.155z M19.393,21.763
		c-0.622-0.302-0.922-0.796-1.129-1.522l-0.088-0.102c-0.179,0.191,0,0.702-0.174,1.044c-0.179,0.334-0.619,0.578-0.963,0.783
		c0.1,0.172,0.224,0.249,0.356,0.275c-0.833,0.144-1.695,0.225-2.579,0.238c-0.286-0.121-0.593-0.152-0.836-0.438
		c-0.304-0.351-0.448-0.825-0.375-1.298l-0.116-0.004c-0.181,0.321-0.139,0.643-0.289,0.965c-0.18,0.377-0.439,0.388-0.694,0.657
		c-0.208-0.025-0.415-0.056-0.621-0.088c0.241-0.087,0.468-0.228,0.648-0.412c0.401-0.408,0.58-0.99,0.394-1.471
		c0.214,0.353,0.63-0.003,0.381-0.438c-0.199-0.378-0.766-0.278-1.013-0.484c0.25,0.029,0.223-0.011,0.338-0.208
		c-0.29-0.177-0.596-0.222-0.862-0.321c-0.265-0.096-0.48-0.268-0.522-0.759c-0.022,0.004-0.084-0.007-0.134-0.021
		c-0.049-0.014-0.108-0.037-0.125-0.052c-0.425,0.585-0.807,0.4-1.23,0.29c-0.159-0.033-0.32-0.068-0.499-0.067
		c-0.005,0.227-0.052,0.252,0.178,0.349c-0.318,0.056-0.739-0.33-1.106-0.111c-0.439,0.237-0.278,0.76,0.09,0.572
		c-0.332,0.254-0.5,0.69-0.478,1.146c0.016,0.331,0.135,0.695,0.346,0.964c-0.2-0.084-0.397-0.171-0.59-0.263
		c-0.187-0.59-0.071-1.099,0.259-1.734l0.007-0.137c-0.257,0.009-0.479,0.504-0.84,0.624c-0.182,0.06-0.4,0.063-0.624,0.04
		c-0.216-0.037-0.436-0.102-0.631-0.155c-0.032,0.125-0.024,0.229,0.002,0.319c-0.743-0.502-1.417-1.067-2.008-1.686
		c-0.039-0.098-0.084-0.192-0.127-0.288c-0.07-0.191-0.127-0.388-0.098-0.616c0.061-0.471,0.336-0.878,0.753-1.116
		c-0.002,0.002-0.069-0.093-0.067-0.094c-0.355,0.049-0.586,0.282-0.931,0.352c-0.417,0.079-0.601-0.142-1-0.198
		c-0.005,0-0.009,0-0.015-0.002c-0.14-0.239-0.269-0.482-0.386-0.729c0.021,0.021,0.039,0.044,0.061,0.063
		c0.225,0.206,0.498,0.347,0.782,0.403c0.591,0.1,1.165-0.119,1.435-0.546c-0.139,0.372,0.372,0.494,0.58,0.029
		c0.092-0.191,0.035-0.371-0.046-0.543c-0.07-0.177-0.142-0.356-0.117-0.505c0.097,0.206,0.12,0.167,0.329,0.145
		c0.134,0.211,0.285,0.414,0.452,0.605c0.017,0.024,0.035,0.045,0.056,0.061c0.112,0.125,0.23,0.245,0.355,0.36
		c-0.335,0.063-0.69,0.209-0.897,0.462c-0.313,0.137-0.563,0.446-0.662,0.815c-0.05,0.183-0.064,0.38-0.037,0.57
		c0.038,0.179,0.118,0.348,0.24,0.483c0.057,0.063,0.121,0.12,0.195,0.165c0.554,0.322,0.93-0.011,1.074-0.345
		c0.143-0.34,0.11-0.714-0.194-0.681c0.31,0.24-0.281,0.657-0.576,0.433c-0.012-0.011-0.021-0.018-0.031-0.028
		c-0.328-0.297,0.056-0.749,0.363-0.906l0.025-0.013L5.4,16.569c0.189-0.277,0.694-0.607,0.915-0.34
		c0.007,0.009,0.013,0.016,0.021,0.026c0.159,0.243-0.221,0.876-0.448,0.565c-0.051,0.319,0.341,0.329,0.657,0.117
		c0.188-0.125,0.338-0.309,0.393-0.524c0.132,0.076,0.269,0.147,0.408,0.215c-0.26,0.064-0.456,0.271-0.563,0.51
		c-0.157,0.342-0.088,0.732,0.222,0.633c-0.347-0.175,0.218-0.653,0.49-0.531c0.356,0.162,0.096,0.737-0.159,0.974l-0.02,0.018
		l-0.009,0.027c-0.112,0.338-0.527,0.804-0.875,0.473c-0.266-0.252,0.048-0.904,0.337-0.636c-0.018-0.306-0.388-0.283-0.704-0.083
		c-0.309,0.198-0.568,0.62-0.17,1.115c0.271,0.309,0.717,0.405,1.127,0.253c0.406-0.136,0.742-0.45,0.845-0.817
		c0.262-0.276,0.356-0.729,0.329-1.114c-0.02-0.187-0.057-0.368-0.128-0.514c0.01,0.003,0.021,0.006,0.03,0.01
		c0.113,0.063,0.232,0.122,0.35,0.182c-0.025,0.008-0.053,0.006-0.076,0.02c0.158,0.237,0.241,0.736,0.192,1.091
		c0.399-0.298,1.076-0.532,1.372-0.368l0.04-0.1c1.324,0.448,2.816,0.706,4.4,0.706c1.11,0,2.171-0.13,3.167-0.358
		c-0.216,0.081-0.39,0.18-0.439,0.326c0.295,0.086,0.694,0.35,0.905,0.646c0.041-0.237,0.158-0.51,0.295-0.741
		c0.135-0.24,0.295-0.425,0.467-0.457l-0.042-0.106c0.335-0.112,0.66-0.233,0.971-0.369c0.05,0.63-0.319,0.794-0.699,0.979
		c-0.143,0.072-0.286,0.157-0.413,0.292c0.151,0.167,0.133,0.212,0.367,0.125c-0.095,0.129-0.288,0.205-0.468,0.296
		c-0.186,0.077-0.359,0.174-0.421,0.377c-0.156,0.484,0.316,0.734,0.461,0.366c-0.071,0.405,0.106,0.839,0.435,1.165
		c0.323,0.329,0.786,0.501,1.238,0.472C19.937,21.587,19.667,21.678,19.393,21.763z M14.501,16.081
		c1.014,0.61,2.26,0.975,3.611,0.975c0.428,0,0.845-0.037,1.249-0.105c-1.438,0.602-3.147,0.956-4.984,0.956
		c-1.398,0-2.719-0.208-3.906-0.571C12.013,17.335,13.422,16.858,14.501,16.081z M14.438,14.648
		c-0.818-0.696-1.322-1.62-1.322-2.637c0-0.886,0.383-1.701,1.022-2.357c0.817,0.695,1.321,1.62,1.321,2.637
		C15.46,13.177,15.076,13.993,14.438,14.648z M18.112,15.917c-1.003,0-1.936-0.234-2.719-0.633c0.755-0.838,1.207-1.872,1.207-2.992
		c0-1.287-0.594-2.459-1.563-3.351c0.849-0.521,1.915-0.833,3.075-0.833c2.755,0,4.996,1.751,4.996,3.905
		C23.108,14.165,20.867,15.917,18.112,15.917z M18.112,6.966c-1.546,0-2.956,0.477-4.037,1.256c-1.014-0.611-2.26-0.976-3.611-0.976
		c-0.829,0-1.619,0.138-2.341,0.384c1.643-0.988,3.837-1.598,6.253-1.598c1.995,0,3.839,0.417,5.348,1.117
		C19.209,7.034,18.67,6.966,18.112,6.966z M10.464,8.386c1.003,0,1.937,0.235,2.72,0.634c-0.755,0.838-1.207,1.871-1.207,2.992
		c0,1.287,0.594,2.459,1.562,3.351c-0.85,0.521-1.915,0.833-3.075,0.833c-2.754,0-4.995-1.752-4.995-3.905S7.709,8.386,10.464,8.386
		z M20.921,19.87c-0.336-0.331-0.799-0.464-0.902-0.075c0.43-0.275,0.631,0.605,0.231,0.864c-0.117,0.071-0.231,0.083-0.333,0.067
		c-0.36-0.06-0.588-0.543-0.619-0.879c-0.02-0.219,0.012-0.38,0.074-0.51c0.165-0.326,0.521-0.5,0.72-0.837
		c0.044-0.077,0.076-0.173,0.096-0.274c0.097,0.334,0.053,0.698-0.12,1.001c0.333,0.016,0.632,0.146,0.918,0.309
		c0.021-0.339,0.088-0.647,0.263-0.93c-0.36-0.033-0.694-0.216-0.917-0.5c0.107,0.052,0.219,0.085,0.319,0.096
		c0.563,0.064,0.94-0.403,1.56,0.1c0.345,0.271,0.7,0.956,0.14,1.238c-0.43,0.208-1.056-0.468-0.584-0.667
		c-0.376-0.126-0.533,0.318-0.449,0.782c0.087,0.459,0.436,0.918,1.234,0.685c0.102-0.039,0.189-0.101,0.275-0.163
		c-0.634,0.398-1.296,0.769-2.016,1.072C21.43,20.735,21.249,20.198,20.921,19.87z M24.349,19.091
		c0.066-0.26,0.085-0.542,0.003-0.755c0.224,0.027,0.565-0.004,0.857-0.129c0.061-0.03,0.118-0.066,0.172-0.106
		C25.061,18.447,24.717,18.778,24.349,19.091z M24.572,17.993c-0.476,0.005-0.923-0.208-1.222-0.583l-0.081,0.083
		c0.113,0.353,0.378,0.545,0.502,0.87c0.146,0.394-0.039,0.601-0.022,0.994c0,0.08,0.006,0.146,0.013,0.204
		c-0.261,0.197-0.551,0.367-0.831,0.547c0.314-0.276,0.495-0.7,0.479-1.141c-0.006-0.584-0.31-1.114-0.781-1.313
		c0.394,0.08,0.439-0.44-0.059-0.574c-0.417-0.13-0.692,0.37-1.034,0.364c0.2-0.141,0.157-0.147,0.092-0.368
		c-0.333,0.055-0.567,0.242-0.813,0.36c-0.24,0.09-0.498,0.096-0.818-0.155c0.378-0.179,0.736-0.375,1.073-0.588
		c-0.001,0.008-0.008,0.018-0.008,0.025c0.266-0.015,0.825-0.028,1.052-0.149c0.257-0.169,0.112-0.417,0.044-0.688
		c0.1-0.087,0.205-0.173,0.298-0.265c0.013,0.124,0.036,0.253,0.071,0.382c0.104,0.333,0.307,0.679,0.601,0.852
		c0.181,0.288,0.526,0.488,0.909,0.536c0.388,0.06,0.77-0.083,1.012-0.361c0.055-0.066,0.104-0.137,0.138-0.217
		c0.216-0.622-0.152-0.923-0.515-1.015c-0.373-0.094-0.711,0.007-0.636,0.301c0.179-0.349,0.701,0.182,0.514,0.501
		c-0.009,0.014-0.016,0.023-0.024,0.035c-0.252,0.365-0.756,0.051-0.956-0.229l-0.016-0.022l-0.025-0.012
		c-0.303-0.148-0.702-0.597-0.468-0.845c0.007-0.008,0.013-0.015,0.022-0.024c0.221-0.184,0.888,0.084,0.628,0.359
		c0.327,0.004,0.25-0.397,0-0.661c-0.147-0.157-0.354-0.277-0.571-0.304c0.076-0.089,0.145-0.182,0.214-0.274
		c0.13,0.16,0.318,0.272,0.519,0.324c0.366,0.101,0.707-0.05,0.564-0.321c-0.111,0.359-0.683-0.105-0.616-0.37
		c0.096-0.344,0.667-0.229,0.973-0.03l0.023,0.016l0.026,0.002c0.335,0.028,0.93,0.347,0.651,0.756
		c-0.209,0.313-0.909,0.118-0.693-0.207c-0.313,0.065-0.189,0.434,0.057,0.708c0.248,0.268,0.707,0.461,1.121-0.051
		c0.292-0.325,0.242-0.825,0.022-1.189c-0.212-0.367-0.604-0.604-0.985-0.612c-0.306-0.164-0.715-0.155-1.068-0.085
		c0.048-0.121,0.086-0.245,0.124-0.37c0.137-0.049,0.279-0.092,0.416-0.11c-0.114-0.077-0.22-0.177-0.323-0.283
		c0.049-0.256,0.082-0.516,0.082-0.783c0-0.035-0.005-0.069-0.007-0.104c0.007,0.035,0.012,0.069,0.02,0.104
		c0.006,0.141,0.026,0.285,0.099,0.437c0.214-0.062,0.248-0.031,0.263-0.259c0.08,0.126,0.07,0.316,0.084,0.503
		c0.01,0.187,0.003,0.367,0.163,0.509c0.363,0.352,0.797,0.051,0.535-0.239c0.33,0.235,0.797,0.278,1.24,0.105
		c0.425-0.168,0.792-0.568,0.94-1.057c0.044-0.223,0.041-0.461-0.028-0.688c-0.118-0.431-0.364-0.639-0.605-0.708
		c-0.239-0.07-0.485-0.007-0.688,0.105c-0.206,0.113-0.359,0.272-0.438,0.427c-0.085,0.155-0.077,0.307,0.085,0.424
		c-0.101-0.502,0.788-0.418,0.888,0.083c0.029,0.143,0.012,0.262-0.036,0.357c-0.2,0.334-0.736,0.354-1.056,0.253
		c-0.208-0.064-0.342-0.153-0.436-0.253c-0.292-0.258-0.271-0.639-0.555-0.905c-0.065-0.059-0.15-0.111-0.244-0.153
		c0.339-0.003,0.72,0.128,0.927,0.386c0.148-0.307,0.303-0.546,0.557-0.782c-0.316-0.119-0.568-0.271-0.824-0.496
		c-0.095,0.332-0.389,0.603-0.726,0.733c0.084-0.084,0.152-0.178,0.195-0.27c0.091-0.242,0.045-0.488,0.069-0.73
		c0.029-0.245,0.062-0.47,0.373-0.728c0.321-0.283,1.091-0.514,1.249,0.126c0.099,0.5-0.688,0.932-0.785,0.429
		c-0.217,0.342,0.219,0.582,0.664,0.639c0.444,0.05,1.043-0.175,0.943-1.065c-0.025-0.317-0.175-0.6-0.408-0.8
		c-0.225-0.206-0.498-0.348-0.782-0.402c-0.592-0.1-1.165,0.118-1.435,0.545c0.139-0.372-0.372-0.494-0.581-0.028
		c-0.091,0.191-0.034,0.371,0.046,0.542c0.069,0.177,0.142,0.357,0.117,0.506c-0.099-0.209-0.119-0.167-0.339-0.144
		c-0.024,0.324,0.144,0.553,0.159,0.81c0.005,0.043,0.006,0.086,0.006,0.129c-0.142-0.334-0.325-0.65-0.544-0.948
		c0.001-0.009,0.004-0.018,0.005-0.027c0.015-0.191,0.016-0.388-0.026-0.499c-0.086-0.234-0.288-0.2-0.515-0.163
		c-0.088-0.102-0.178-0.203-0.275-0.302c0.095,0.002,0.195-0.003,0.3-0.02c0.345-0.058,0.72-0.208,0.934-0.47
		c0.314-0.137,0.562-0.446,0.662-0.815c0.051-0.183,0.064-0.381,0.037-0.57c-0.038-0.179-0.118-0.348-0.24-0.483
		c-0.057-0.063-0.121-0.12-0.196-0.165c-0.553-0.322-0.929,0.011-1.072,0.345c-0.144,0.339-0.111,0.714,0.193,0.681
		c-0.31-0.241,0.281-0.657,0.575-0.433c0.013,0.011,0.021,0.019,0.032,0.028c0.328,0.297-0.055,0.748-0.363,0.906L23.38,7.431
		l-0.015,0.022c-0.189,0.277-0.693,0.607-0.914,0.34c-0.007-0.009-0.013-0.015-0.022-0.026c-0.159-0.242,0.222-0.875,0.448-0.564
		c0.052-0.32-0.341-0.329-0.656-0.117c-0.23,0.152-0.404,0.393-0.415,0.672c-0.152-0.119-0.308-0.234-0.472-0.346
		c0.302-0.035,0.528-0.263,0.648-0.527c0.157-0.342,0.088-0.733-0.223-0.633c0.347,0.175-0.217,0.653-0.489,0.531
		c-0.357-0.162-0.096-0.737,0.16-0.974l0.02-0.018l0.008-0.025c0.112-0.338,0.527-0.805,0.875-0.474
		c0.266,0.252-0.048,0.904-0.338,0.636c0.018,0.307,0.389,0.283,0.703,0.083c0.309-0.197,0.569-0.619,0.17-1.114
		c-0.27-0.309-0.717-0.405-1.126-0.254c-0.406,0.136-0.741,0.451-0.845,0.818c-0.262,0.276-0.356,0.729-0.33,1.114
		C20.585,6.727,20.618,6.871,20.666,7c-0.093-0.053-0.19-0.102-0.287-0.152c-0.149-0.246-0.226-0.72-0.18-1.064
		c-0.397,0.299-1.075,0.533-1.371,0.368l-0.012,0.029C18.488,6.069,18.148,5.97,17.8,5.883c0.413-0.538,0.787-0.363,1.202-0.255
		c0.159,0.034,0.32,0.068,0.499,0.066c0.005-0.226,0.052-0.251-0.178-0.349c0.318-0.056,0.739,0.33,1.106,0.111
		c0.439-0.237,0.277-0.76-0.09-0.572c0.332-0.254,0.5-0.689,0.477-1.145c-0.022-0.445-0.228-0.952-0.598-1.206
		c-0.168-0.122-0.364-0.205-0.577-0.228c-0.809-0.067-1.057,0.486-1.04,0.94c0.021,0.461,0.272,0.862,0.606,0.668
		c-0.496-0.112-0.044-0.884,0.417-0.786c0.133,0.028,0.229,0.089,0.293,0.169c0.228,0.275,0.065,0.789-0.141,1.055
		c-0.135,0.176-0.27,0.276-0.404,0.333c-0.355,0.16-0.712-0.022-1.102,0.122c-0.086,0.03-0.176,0.08-0.261,0.143
		c0.159-0.31,0.447-0.563,0.778-0.666c-0.231-0.242-0.369-0.514-0.462-0.838c-0.248,0.233-0.501,0.379-0.829,0.484
		c0.244,0.251,0.355,0.646,0.323,1.001c-0.042-0.114-0.1-0.219-0.167-0.299c-0.371-0.41-0.976-0.369-1.061-1.159
		c-0.052-0.428,0.183-1.183,0.761-0.973c0.441,0.156,0.434,1.052-0.047,0.889c0.184,0.347,0.61,0.112,0.862-0.266
		c0.248-0.375,0.317-0.995-0.409-1.336c-0.256-0.123-0.541-0.137-0.809-0.073c-0.27,0.082-0.522,0.242-0.721,0.445
		c-0.401,0.408-0.58,0.991-0.396,1.472c-0.213-0.352-0.629,0.003-0.38,0.438c0.2,0.378,0.766,0.278,1.013,0.485
		c-0.251-0.03-0.223,0.01-0.338,0.207c0.291,0.178,0.597,0.222,0.862,0.322c0.259,0.093,0.466,0.265,0.516,0.727
		c-0.984-0.223-2.035-0.35-3.131-0.35c-0.992,0-1.948,0.101-2.852,0.285c0.063-0.049,0.115-0.103,0.136-0.168
		c-0.295-0.085-0.694-0.349-0.904-0.645c-0.042,0.237-0.158,0.51-0.296,0.741c-0.135,0.241-0.295,0.425-0.467,0.457l0.011,0.028
		C9.68,6.268,9.364,6.387,9.061,6.519C9.052,5.961,9.402,5.804,9.763,5.627c0.143-0.072,0.286-0.157,0.412-0.292
		c-0.15-0.167-0.132-0.213-0.366-0.125c0.096-0.13,0.288-0.206,0.468-0.297c0.186-0.077,0.36-0.174,0.421-0.377
		c0.156-0.484-0.317-0.734-0.461-0.366c0.071-0.405-0.106-0.839-0.435-1.166C9.475,2.671,9.003,2.498,8.547,2.533
		c-0.21,0.013-0.41,0.085-0.578,0.227C7.33,3.277,7.513,3.821,7.844,4.153C8.18,4.484,8.642,4.616,8.746,4.228
		c-0.43,0.275-0.63-0.604-0.231-0.864C8.63,3.293,8.745,3.281,8.848,3.298c0.359,0.06,0.588,0.542,0.619,0.879
		c0.02,0.218-0.012,0.379-0.073,0.509c-0.165,0.326-0.522,0.5-0.72,0.837C8.63,5.601,8.598,5.697,8.578,5.798
		C8.481,5.463,8.525,5.1,8.697,4.797C8.365,4.781,8.065,4.651,7.779,4.488C7.758,4.828,7.69,5.136,7.516,5.418
		c0.361,0.033,0.696,0.216,0.918,0.5c-0.107-0.051-0.218-0.085-0.32-0.095C7.552,5.759,7.174,6.226,6.555,5.724
		c-0.345-0.272-0.7-0.957-0.141-1.239c0.43-0.207,1.056,0.469,0.583,0.667c0.377,0.126,0.533-0.318,0.449-0.782
		C7.36,3.911,7.011,3.451,6.213,3.684C5.667,3.89,5.333,4.46,5.355,5.056C5.361,5.641,5.664,6.17,6.136,6.369
		c-0.394-0.08-0.439,0.44,0.059,0.574c0.417,0.131,0.693-0.37,1.035-0.364c-0.2,0.141-0.157,0.146-0.093,0.368
		c0.334-0.055,0.567-0.242,0.813-0.36c0.221-0.083,0.458-0.091,0.745,0.103C8.298,6.878,7.922,7.085,7.574,7.311
		C7.286,7.325,6.848,7.349,6.651,7.453C6.417,7.607,6.514,7.825,6.584,8.065C6.488,8.15,6.388,8.232,6.298,8.32
		C6.283,8.223,6.264,8.124,6.237,8.024c-0.103-0.333-0.306-0.679-0.6-0.852C5.456,6.884,5.111,6.685,4.729,6.637
		C4.34,6.578,3.958,6.72,3.717,6.998C3.661,7.063,3.612,7.135,3.578,7.215C3.361,7.837,3.729,8.138,4.092,8.229
		c0.373,0.093,0.712-0.008,0.636-0.301C4.55,8.277,4.027,7.747,4.214,7.427c0.009-0.014,0.015-0.023,0.023-0.035
		C4.49,7.027,4.994,7.341,5.194,7.621l0.015,0.022l0.025,0.012C5.538,7.803,5.937,8.252,5.703,8.5
		C5.695,8.508,5.689,8.515,5.679,8.525c-0.22,0.183-0.886-0.084-0.627-0.359c-0.326-0.005-0.25,0.397,0,0.661
		c0.143,0.152,0.344,0.271,0.555,0.302C5.541,9.22,5.469,9.31,5.408,9.403c-0.129-0.158-0.317-0.27-0.517-0.322
		C4.525,8.98,4.184,9.131,4.328,9.402c0.11-0.359,0.682,0.105,0.616,0.37C4.847,10.116,4.276,10,3.969,9.802L3.947,9.786L3.92,9.784
		C3.584,9.756,2.991,9.438,3.269,9.028C3.479,8.715,4.177,8.91,3.962,9.234c0.313-0.064,0.19-0.434-0.057-0.708
		C3.657,8.258,3.198,8.065,2.785,8.578C2.492,8.902,2.541,9.402,2.762,9.766c0.212,0.367,0.605,0.604,0.985,0.613
		c0.286,0.152,0.662,0.154,0.999,0.097c-0.061,0.131-0.119,0.264-0.167,0.399c-0.102,0.031-0.205,0.057-0.303,0.07
		c0.078,0.053,0.15,0.121,0.222,0.189c-0.042,0.145-0.075,0.293-0.101,0.443c-0.206,0.058-0.24,0.032-0.256,0.256
		c-0.08-0.126-0.07-0.316-0.084-0.503c-0.01-0.187-0.003-0.367-0.163-0.509c-0.363-0.352-0.797-0.051-0.534,0.239
		c-0.331-0.235-0.798-0.277-1.241-0.105c-0.425,0.169-0.792,0.568-0.94,1.057c-0.02,0.097-0.025,0.197-0.025,0.297
		c-0.01-0.165-0.016-0.33-0.016-0.496c0-0.227,0.012-0.452,0.029-0.674c0.081-0.086,0.162-0.162,0.244-0.227
		c0.172-0.123,0.348-0.207,0.527-0.26c0.359-0.106,0.74-0.086,1.194,0.003l0.13-0.031c-0.086-0.246-0.631-0.329-0.837-0.658
		c-0.185-0.324-0.2-0.885-0.145-1.302c-0.68-0.029-0.644,0.722-0.625,1.26c-0.13,0.045-0.246,0.113-0.348,0.196
		c0.286-1.416,0.921-2.739,1.835-3.913C3.099,6.3,3.067,6.4,3.074,6.512C3.48,6.384,3.718,6.023,4.194,6.03
		c0.476-0.004,0.923,0.208,1.221,0.584L5.496,6.53C5.383,6.178,5.117,5.986,4.994,5.661C4.848,5.267,5.033,5.059,5.016,4.667
		C5.014,4.523,5,4.421,4.979,4.348c1.144-0.929,2.5-1.692,4.005-2.241c0.897,0.271,1.271,0.811,1.517,1.674l0.088,0.103
		c0.179-0.192,0-0.703,0.174-1.045c0.18-0.334,0.619-0.578,0.963-0.783c-0.323-0.552-0.865-0.2-1.284,0.087
		C10.26,1.962,10.05,1.857,9.829,1.825c1.47-0.442,3.062-0.686,4.723-0.686c0.528,0,1.048,0.027,1.56,0.075
		c-0.335,0.098-0.786,0.368-0.945,0.701c-0.24-0.375-0.971-0.928-1.41-0.472c0.332,0.222,0.729,0.186,1.027,0.538
		c0.304,0.35,0.449,0.825,0.375,1.298l0.116,0.004c0.18-0.321,0.139-0.643,0.289-0.965c0.183-0.385,0.449-0.387,0.708-0.672
		c0.188-0.196,0.244-0.321,0.223-0.394c6.478,0.751,11.47,5.2,11.47,10.56c0,0.436-0.037,0.864-0.101,1.286
		c0.012-0.152,0.001-0.315-0.041-0.488c-0.156,0.212-0.312,0.376-0.471,0.501c-0.172,0.123-0.347,0.207-0.526,0.26
		c-0.36,0.106-0.74,0.086-1.194-0.003l-0.131,0.031c0.086,0.246,0.632,0.329,0.838,0.657c0.185,0.325,0.2,0.886,0.145,1.302
		c0.68,0.029,0.644-0.721,0.624-1.26c0.385-0.136,0.656-0.45,0.734-0.865c-0.285,1.699-1.073,3.272-2.243,4.622
		c0.06-0.102,0.099-0.215,0.092-0.344C25.285,17.638,25.047,17.999,24.572,17.993z"/>
</g>
<g>
</g>
<g>
</g>
<g>
</g>
<g>
</g>
<g>
</g>
<g>
</g>
<g>
</g>
<g>
</g>
<g>
</g>
<g>
</g>
<g>
</g>
<g>
</g>
<g>
</g>
<g>
</g>
<g>
</g>
</svg>
