<?xml version="1.0" encoding="iso-8859-1"?>
<!-- Generator: Adobe Illustrator 16.0.0, SVG Export Plug-In . SVG Version: 6.00 Build 0)  -->
<!DOCTYPE svg PUBLIC "-//W3C//DTD SVG 1.1//EN" "http://www.w3.org/Graphics/SVG/1.1/DTD/svg11.dtd">
<svg version="1.1" id="Layer_1" xmlns="http://www.w3.org/2000/svg" xmlns:xlink="http://www.w3.org/1999/xlink" x="0px" y="0px"
	 width="28.633px" height="49.823px" viewBox="0 0 28.633 49.823" style="enable-background:new 0 0 28.633 49.823;"
	 xml:space="preserve">
<path d="M28.633,15.836V9.33l-7.564,0L21.067,0h-6.506v5.59h2.361v1.945h-2.617h-2.616V5.59h2.361V0H7.545v9.329L0,9.33v6.506h5.591
	v-2.361h1.944v2.898H0v6.542h5.591v-2.359l1.944,0v4.721h1.823V25.27h2.292v-0.856v-0.936v-2.966h1.273v5.411h-0.823v1.47h0.823
	v0.581h-0.823v1.47h0.823v3.502v2.36v4.505h-9.75v7.295h2.785v-4.51h6.965v1.104v1.667H7.831v4.455h2.786v-1.669h2.307v1.669h2.785
	v-1.669h2.308v1.669h2.786v-4.455h-5.094v-1.667v-1.104h6.965v4.51h2.785v-7.295h-9.75v-4.505v-2.36v-3.502h0.841v-1.47h-0.841
	v-0.581h0.841v-1.47h-0.841v-5.411h1.176v2.966h-0.006v1.792h2.396v0.007h1.823v-4.721l1.945,0v2.359h5.59v-6.542h-7.535v-2.898
	h1.945v2.361H28.633z M15.709,18.72v-5.081h-2.785v5.081H11.65v-6.178h5.234v6.178H15.709z M19.274,11.652v6.543h7.536v2.897h-1.945
	l0.001-2.359l-5.592,0v4.745h-0.567V10.75h-0.203h-1.619H9.828v0.04v1.752v6.178v1.792v2.966h-0.47v-4.745l-5.591,0l0.001,2.359
	H1.822v-2.897h7.536v-6.543h-5.59l-0.001,2.36l-1.945,0v-2.861h7.547V9.329H9.367V1.823h2.861l-0.001,1.945H9.868v5.59h4.438h4.439
	v-5.59h-2.361V1.823h2.862V9.37h0.018v1.782h7.547v2.861l-1.944,0l-0.001-2.36H19.274z"/>
<g>
</g>
<g>
</g>
<g>
</g>
<g>
</g>
<g>
</g>
<g>
</g>
<g>
</g>
<g>
</g>
<g>
</g>
<g>
</g>
<g>
</g>
<g>
</g>
<g>
</g>
<g>
</g>
<g>
</g>
</svg>
