<?xml version="1.0" encoding="iso-8859-1"?>
<!-- Generator: Adobe Illustrator 16.0.0, SVG Export Plug-In . SVG Version: 6.00 Build 0)  -->
<!DOCTYPE svg PUBLIC "-//W3C//DTD SVG 1.1//EN" "http://www.w3.org/Graphics/SVG/1.1/DTD/svg11.dtd">
<svg version="1.1" id="Layer_1" xmlns="http://www.w3.org/2000/svg" xmlns:xlink="http://www.w3.org/1999/xlink" x="0px" y="0px"
	 width="20.031px" height="46.952px" viewBox="0 0 20.031 46.952" style="enable-background:new 0 0 20.031 46.952;"
	 xml:space="preserve">
<path d="M20.031,8.292C20.031,3.72,15.538,0,10.015,0S0,3.72,0,8.292c0,4.269,3.917,7.792,8.932,8.241v16.533H9.02
	c-0.923,0.375-1.736,0.947-2.399,1.691c-0.685,0.791-1.198,1.775-1.476,2.931H3.712v1.518h1.197c0,0.216-0.02,0.43-0.02,0.645
	c0,0.127,0,0.256,0,0.363H3.712v1.518h1.39c0.192,1.135,0.621,2.054,1.199,2.781c1.197,1.584,3.123,2.439,5.22,2.439
	c1.369,0,2.61-0.405,3.337-0.814l-0.514-2.373c-0.449,0.234-1.455,0.558-2.439,0.558c-1.069,0-2.075-0.323-2.759-1.093
	c-0.321-0.363-0.557-0.855-0.707-1.498h5.37v-1.518H8.14c0-0.129,0-0.215,0-0.344c0-0.213,0-0.448,0.021-0.664h5.647v-1.518H8.482
	c0.15-0.556,0.385-1.047,0.685-1.39c0.664-0.814,1.604-1.155,2.631-1.155c0.942,0,1.819,0.277,2.375,0.514l0.599-2.439
	c-0.771-0.343-1.904-0.643-3.21-0.643c-0.151,0-0.296,0.014-0.443,0.022V16.53C16.124,16.074,20.031,12.555,20.031,8.292z M3,8.292
	C3,5.374,6.147,3,10.015,3c3.869,0,7.016,2.374,7.016,5.292s-3.147,5.292-7.016,5.292C6.147,13.584,3,11.21,3,8.292z"/>
<g>
</g>
<g>
</g>
<g>
</g>
<g>
</g>
<g>
</g>
<g>
</g>
<g>
</g>
<g>
</g>
<g>
</g>
<g>
</g>
<g>
</g>
<g>
</g>
<g>
</g>
<g>
</g>
<g>
</g>
</svg>
