<?xml version="1.0" encoding="iso-8859-1"?>
<!-- Generator: Adobe Illustrator 16.0.0, SVG Export Plug-In . SVG Version: 6.00 Build 0)  -->
<!DOCTYPE svg PUBLIC "-//W3C//DTD SVG 1.1//EN" "http://www.w3.org/Graphics/SVG/1.1/DTD/svg11.dtd">
<svg version="1.1" id="Layer_1" xmlns="http://www.w3.org/2000/svg" xmlns:xlink="http://www.w3.org/1999/xlink" x="0px" y="0px"
	 width="27.948px" height="49.24px" viewBox="0 0 27.948 49.24" style="enable-background:new 0 0 27.948 49.24;"
	 xml:space="preserve">
<path d="M21.742,21.795c3.422,0,6.206-2.784,6.206-6.207s-2.784-6.207-6.206-6.207c-0.842,0-1.636,0.183-2.367,0.487
	c0.76-1.028,1.218-2.29,1.218-3.664C20.593,2.784,17.809,0,14.386,0C10.964,0,8.18,2.784,8.18,6.206
	c0,1.393,0.478,2.668,1.256,3.705C9.412,9.934,9.391,9.959,9.367,9.983C8.438,9.429,7.364,9.097,6.206,9.097
	C2.784,9.097,0,11.881,0,15.303c0,3.422,2.784,6.207,6.206,6.207c1.546,0,2.953-0.576,4.041-1.516
	c0.192,0.138,0.4,0.254,0.607,0.372c-0.099,0.174-0.165,0.368-0.165,0.599c0,0.707,0.502,1.328,1.267,1.719
	c-0.243,0.247-0.387,0.544-0.387,0.865c0,0.387,0.214,0.736,0.557,1.007c-0.056,0.118-0.094,0.242-0.094,0.373
	c0,0.255,0.114,0.492,0.31,0.688V49.24l0,0h2.784h9.586v-4.109c-1.963,1.716-3.476,3.5-5.071,3.5c-1.563,0-2.836-0.895-2.836-1.993
	c0-0.655,0.457-1.266,1.224-1.636l0.28-0.136l-0.28-0.135c-0.767-0.37-1.224-0.981-1.224-1.636c0-1.098,1.272-1.993,2.836-1.993
	c1.602,0,3.109,1.777,5.071,3.499v-4.186h-9.586V25.731c0.274-0.215,0.446-0.494,0.446-0.803c0-0.131-0.038-0.255-0.093-0.373
	c0.342-0.271,0.556-0.62,0.556-1.007c0-0.321-0.143-0.619-0.387-0.865c0.765-0.391,1.268-1.012,1.268-1.719
	c0-0.118-0.024-0.223-0.051-0.325c0.267-0.124,0.525-0.262,0.771-0.417C18.731,21.195,20.165,21.795,21.742,21.795z M19.541,10.814
	c0.673-0.313,1.411-0.503,2.201-0.503c2.91,0,5.278,2.368,5.278,5.278s-2.368,5.278-5.278,5.278c-1.269,0-2.429-0.456-3.34-1.205
	c1.431-1.218,2.343-3.028,2.343-5.05C20.745,13.2,20.297,11.891,19.541,10.814z M9.107,6.206c0-2.911,2.368-5.278,5.278-5.278
	s5.278,2.368,5.278,5.278c0,1.287-0.469,2.462-1.237,3.378c-1.161-0.999-2.669-1.606-4.316-1.606c-1.492,0-2.867,0.502-3.978,1.337
	C9.492,8.443,9.107,7.37,9.107,6.206z M6.206,20.582c-2.91,0-5.278-2.368-5.278-5.279c0-2.91,2.368-5.278,5.278-5.278
	c0.931,0,1.799,0.251,2.558,0.676c-0.806,1.099-1.287,2.448-1.287,3.912c0,1.88,0.789,3.576,2.049,4.784
	C8.618,20.135,7.466,20.582,6.206,20.582z M14.124,19.389c-0.013,0-0.025-0.001-0.039-0.001c-2.623-0.014-4.753-2.149-4.753-4.775
	c0-2.635,2.144-4.778,4.778-4.778s4.778,2.143,4.778,4.778C18.889,17.243,16.752,19.382,14.124,19.389z"/>
<g>
</g>
<g>
</g>
<g>
</g>
<g>
</g>
<g>
</g>
<g>
</g>
<g>
</g>
<g>
</g>
<g>
</g>
<g>
</g>
<g>
</g>
<g>
</g>
<g>
</g>
<g>
</g>
<g>
</g>
</svg>
