<?xml version="1.0" encoding="iso-8859-1"?>
<!-- Generator: Adobe Illustrator 16.0.0, SVG Export Plug-In . SVG Version: 6.00 Build 0)  -->
<!DOCTYPE svg PUBLIC "-//W3C//DTD SVG 1.1//EN" "http://www.w3.org/Graphics/SVG/1.1/DTD/svg11.dtd">
<svg version="1.1" id="Layer_1" xmlns="http://www.w3.org/2000/svg" xmlns:xlink="http://www.w3.org/1999/xlink" x="0px" y="0px"
	 width="28.433px" height="49.476px" viewBox="0 0 28.433 49.476" style="enable-background:new 0 0 28.433 49.476;"
	 xml:space="preserve">
<g>
	<path d="M20.981,26.537c4.109,0,7.452-3.343,7.452-7.452s-3.343-7.452-7.452-7.452c-0.295,0-0.584,0.022-0.87,0.055
		c0.835-1.204,1.328-2.663,1.328-4.236C21.439,3.343,18.096,0,13.987,0S6.535,3.343,6.535,7.452c0,1.557,0.482,3.003,1.302,4.2
		c-0.128-0.007-0.255-0.02-0.385-0.02C3.343,11.633,0,14.976,0,19.085s3.343,7.452,7.452,7.452c2.125,0,4.032-0.908,5.389-2.341
		v21.914v2.641v0.726h12.84v-3.367H15.592v-3.012h6.344v-3.366h-6.344V24.196C16.949,25.629,18.855,26.537,20.981,26.537z
		 M20.981,13.467c3.098,0,5.618,2.52,5.618,5.618s-2.52,5.618-5.618,5.618c-2.284,0-4.25-1.371-5.127-3.332
		c1.004-0.057,1.802-0.882,1.802-1.9c0-0.218-0.043-0.423-0.111-0.618c0.233,0.101,0.49,0.159,0.76,0.159
		c1.056,0,1.911-0.855,1.911-1.911c0-0.755-0.442-1.402-1.078-1.713c0.573-0.33,0.963-0.941,0.963-1.65
		c0-0.066-0.013-0.128-0.019-0.192C20.376,13.499,20.674,13.467,20.981,13.467z M13.987,1.834c3.098,0,5.618,2.52,5.618,5.618
		c0,1.634-0.706,3.103-1.824,4.131c0.017-0.095,0.028-0.191,0.028-0.291c0-1.056-0.855-1.911-1.911-1.911
		c-0.761,0-1.413,0.448-1.72,1.092c-0.308-0.644-0.959-1.092-1.72-1.092c-1.056,0-1.911,0.855-1.911,1.911
		c0,0.218,0.044,0.423,0.111,0.619c-0.035-0.01-0.072-0.017-0.109-0.025c-1.324-1.028-2.18-2.631-2.18-4.434
		C8.37,4.354,10.89,1.834,13.987,1.834z M7.452,24.703c-3.098,0-5.618-2.52-5.618-5.618s2.52-5.618,5.618-5.618
		c0.267,0,0.528,0.025,0.785,0.061c-0.008,0.07-0.021,0.138-0.021,0.21c0,0.732,0.417,1.36,1.021,1.681
		c-0.604,0.321-1.021,0.949-1.021,1.682c0,1.056,0.855,1.911,1.911,1.911c0.176,0,0.343-0.032,0.505-0.076
		c-0.05,0.17-0.085,0.348-0.085,0.535c0,1.056,0.855,1.911,1.911,1.911c0.043,0,0.082-0.014,0.124-0.017
		C11.706,23.328,9.738,24.703,7.452,24.703z M12.48,16.595c-0.091-0.127-0.168-0.265-0.228-0.413
		c-0.096-0.236-0.151-0.493-0.151-0.762c0-1.124,0.915-2.038,2.039-2.038c1.124,0,2.038,0.914,2.038,2.038
		c0,1.124-0.915,2.038-2.038,2.038C13.455,17.458,12.851,17.115,12.48,16.595z"/>
	<path d="M14.232,15.945h-0.031c0.005,0.011,0.01,0.021,0.016,0.032C14.222,15.966,14.227,15.956,14.232,15.945z"/>
</g>
<g>
</g>
<g>
</g>
<g>
</g>
<g>
</g>
<g>
</g>
<g>
</g>
<g>
</g>
<g>
</g>
<g>
</g>
<g>
</g>
<g>
</g>
<g>
</g>
<g>
</g>
<g>
</g>
<g>
</g>
</svg>
