<?xml version="1.0" encoding="iso-8859-1"?>
<!-- Generator: Adobe Illustrator 16.0.0, SVG Export Plug-In . SVG Version: 6.00 Build 0)  -->
<!DOCTYPE svg PUBLIC "-//W3C//DTD SVG 1.1//EN" "http://www.w3.org/Graphics/SVG/1.1/DTD/svg11.dtd">
<svg version="1.1" id="Layer_1" xmlns="http://www.w3.org/2000/svg" xmlns:xlink="http://www.w3.org/1999/xlink" x="0px" y="0px"
	 width="25.175px" height="48.7px" viewBox="0 0 25.175 48.7" style="enable-background:new 0 0 25.175 48.7;" xml:space="preserve"
	>
<path d="M23.975,9.987c-0.184,0-0.355,0.041-0.511,0.108c-0.532-2.316-2.605-4.051-5.081-4.051c-0.415,0-0.825,0.049-1.223,0.146
	c-0.216-2.329-1.969-4.219-4.232-4.643c0.063-0.136,0.101-0.284,0.101-0.441c0-0.61-0.537-1.105-1.201-1.105
	c-0.662,0-1.2,0.496-1.2,1.105c0,0.18,0.051,0.346,0.133,0.496C8.462,2.147,6.746,4.211,6.746,6.673c0,0.185,0.01,0.371,0.03,0.556
	C4.232,7.056,2.024,8.77,1.405,11.111c-0.066-0.011-0.135-0.019-0.205-0.019c-0.663,0-1.2,0.495-1.2,1.105
	c0,0.611,0.537,1.106,1.2,1.106c0.036,0,0.069-0.007,0.104-0.01c0.412,2.469,2.558,4.359,5.142,4.359
	c0.348,0,0.692-0.035,1.032-0.104c0.114,1.783,1.138,3.31,2.602,4.16c-0.003,0.04-0.016,0.062-0.016,0.106
	c0,0.935,0.516,1.742,1.273,2.176v1.438H9.93v1.359h1.407v2.391H9.93v1.359h1.407v7.799h-1.52v1.375h1.52v0.904H7.176v3.307h1.773
	v-1.656h0.708v1.656h1.656v0.707H9.657v1.658H8.949V44.63H7.176v2.987h4.161V48.7h2.5v-1.083h4.161V44.63h-1.773v1.658h-0.708V44.63
	H13.86v-0.707h1.656v-1.656h0.708v1.656h1.773v-3.307h-4.161v-0.904h1.277v-1.375h-1.277v-7.799h1.409v-1.359h-1.409v-2.391h1.409
	v-1.359h-1.409v-1.446c0.749-0.437,1.258-1.238,1.258-2.167c0-0.003-0.001-0.004-0.001-0.007c1.661-0.874,2.808-2.596,2.808-4.599
	c0-0.254-0.02-0.507-0.057-0.758c0.179,0.019,0.357,0.028,0.538,0.028c2.585,0,4.731-1.892,5.141-4.363
	c0.14,0.052,0.291,0.082,0.451,0.082c0.663,0,1.2-0.495,1.2-1.105S24.638,9.987,23.975,9.987z M18.383,15.22
	c-0.408,0-0.813-0.063-1.203-0.188l-1.224-0.39l0.441,1.206c0.162,0.445,0.245,0.903,0.245,1.361c0,2.183-1.775,3.959-3.959,3.959
	c-2.183,0-3.959-1.776-3.959-3.959c0-0.148,0.01-0.294,0.026-0.439l0.114-1.037l-0.972,0.383c-0.467,0.185-0.954,0.278-1.448,0.278
	c-2.183,0-3.959-1.776-3.959-3.959c0-2.498,2.321-4.494,4.93-3.833l1.076,0.273L8.173,7.811C8.062,7.439,8.005,7.057,8.005,6.673
	c0-2.184,1.776-3.959,3.959-3.959s3.959,1.775,3.959,3.959c0,0.114-0.008,0.227-0.018,0.339l-0.088,1.056l0.97-0.428
	c0.507-0.224,1.045-0.337,1.596-0.337c2.183,0,3.959,1.775,3.959,3.958S20.565,15.22,18.383,15.22z"/>
<g>
</g>
<g>
</g>
<g>
</g>
<g>
</g>
<g>
</g>
<g>
</g>
<g>
</g>
<g>
</g>
<g>
</g>
<g>
</g>
<g>
</g>
<g>
</g>
<g>
</g>
<g>
</g>
<g>
</g>
</svg>
