<?xml version="1.0" encoding="iso-8859-1"?>
<!-- Generator: Adobe Illustrator 16.0.0, SVG Export Plug-In . SVG Version: 6.00 Build 0)  -->
<!DOCTYPE svg PUBLIC "-//W3C//DTD SVG 1.1//EN" "http://www.w3.org/Graphics/SVG/1.1/DTD/svg11.dtd">
<svg version="1.1" id="Layer_1" xmlns="http://www.w3.org/2000/svg" xmlns:xlink="http://www.w3.org/1999/xlink" x="0px" y="0px"
	 width="23.681px" height="46.852px" viewBox="0 0 23.681 46.852" style="enable-background:new 0 0 23.681 46.852;"
	 xml:space="preserve">
<path d="M23.681,11.634c0-3.369-2.833-6.109-6.314-6.109c-0.47,0-0.926,0.054-1.367,0.148c0.16-0.441,0.251-0.913,0.251-1.406
	C16.251,1.915,14.272,0,11.84,0S7.43,1.915,7.43,4.268c0,0.395,0.06,0.776,0.164,1.139C7.18,5.323,6.752,5.279,6.314,5.279
	C2.833,5.279,0,8.02,0,11.389s2.833,6.108,6.314,6.108c0.313,0,0.617-0.029,0.918-0.072c-0.14,0.415-0.217,0.856-0.217,1.315
	c0,1.934,1.345,3.553,3.172,4.075v1.093c-0.984,0.368-1.689,1.309-1.689,2.422s0.705,2.055,1.689,2.422v12.525H9.459H6.861v2.087
	h2.598v0.001h0.728v1.757h2.157v-1.757h0.92c0.022,0.076,0.037,0.153,0.065,0.228c0.225,0.604,0.6,1.095,1.085,1.42l2.741,1.837
	l1.229-1.717l-2.64-1.768h2.026v-0.001h0.058v-2.087h-2.086l2.642-1.77l-1.229-1.716l-2.741,1.836
	c-0.565,0.378-0.96,0.972-1.163,1.65h-0.908V28.589c0.796-0.443,1.341-1.283,1.341-2.258s-0.545-1.815-1.341-2.258v-1.16
	c1.992-0.41,3.493-2.124,3.493-4.171c0-0.429-0.067-0.843-0.189-1.234c0.547,0.15,1.123,0.236,1.72,0.236
	C20.849,17.743,23.681,15.002,23.681,11.634z M11.84,1.524c1.564,0,2.836,1.231,2.836,2.744c0,1.513-1.272,2.744-2.836,2.744
	c-1.563,0-2.836-1.23-2.836-2.744C9.004,2.755,10.277,1.524,11.84,1.524z M11.938,8.531c-0.009,0.014-0.018,0.028-0.026,0.042
	c-0.007-0.013-0.013-0.027-0.02-0.041C11.907,8.533,11.922,8.531,11.938,8.531z M11.79,14.491c-0.015-0.001-0.03-0.001-0.044-0.002
	c0.008-0.013,0.017-0.025,0.024-0.039C11.777,14.463,11.782,14.477,11.79,14.491z M6.314,15.974c-2.613,0-4.739-2.057-4.739-4.585
	s2.126-4.585,4.739-4.585s4.739,2.057,4.739,4.585S8.927,15.974,6.314,15.974z M11.426,21.484c-1.563,0-2.836-1.231-2.836-2.744
	s1.272-2.744,2.836-2.744c1.564,0,2.836,1.231,2.836,2.744S12.99,21.484,11.426,21.484z M12.628,11.634
	c0-2.528,2.126-4.585,4.739-4.585c2.613,0,4.739,2.057,4.739,4.585c0,2.528-2.126,4.585-4.739,4.585
	C14.754,16.219,12.628,14.162,12.628,11.634z"/>
<g>
</g>
<g>
</g>
<g>
</g>
<g>
</g>
<g>
</g>
<g>
</g>
<g>
</g>
<g>
</g>
<g>
</g>
<g>
</g>
<g>
</g>
<g>
</g>
<g>
</g>
<g>
</g>
<g>
</g>
</svg>
