<?xml version="1.0" encoding="iso-8859-1"?>
<!-- Generator: Adobe Illustrator 16.0.0, SVG Export Plug-In . SVG Version: 6.00 Build 0)  -->
<!DOCTYPE svg PUBLIC "-//W3C//DTD SVG 1.1//EN" "http://www.w3.org/Graphics/SVG/1.1/DTD/svg11.dtd">
<svg version="1.1" id="Layer_1" xmlns="http://www.w3.org/2000/svg" xmlns:xlink="http://www.w3.org/1999/xlink" x="0px" y="0px"
	 width="23.259px" height="47.583px" viewBox="0 0 23.259 47.583" style="enable-background:new 0 0 23.259 47.583;"
	 xml:space="preserve">
<g>
	<path d="M11.63,0C5.207,0,0,4.547,0,10.158c0,5.243,4.55,9.557,10.389,10.098c0,0.459,0,0.986,0,1.54H9.873
		c-0.771,0-1.396,0.625-1.396,1.396s0.625,1.396,1.396,1.396h0.517c0,0.779,0,1.449,0,1.851c0,1.341-1.351,2.546-1.41,5.083h5.009
		c-0.06-2.537-1.41-3.742-1.41-5.083c0-0.401,0-1.071,0-1.851h0.221c0.771,0,1.396-0.625,1.396-1.396s-0.625-1.396-1.396-1.396
		h-0.221c0-0.547,0-1.067,0-1.522c5.978-0.422,10.682-4.785,10.682-10.115C23.259,4.547,18.053,0,11.63,0z M13.855,14.136
		l-2.151,1.603L9.976,14.53c-2.514-1.884-4.779-3.435-4.795-5.08c-0.017-1.884,1.5-3.43,3.384-3.447
		c1.121-0.012,2.175,0.529,2.818,1.445l0.234,0.335l0.229-0.338c0.625-0.929,1.667-1.49,2.789-1.502
		c1.884-0.016,3.429,1.502,3.446,3.385C18.095,10.877,16.141,12.371,13.855,14.136z"/>
	<path d="M12.578,36.342c0-1.596,1.271-1.992,1.397-4.311H8.992c0.125,2.318,1.397,2.715,1.397,4.311c0,1.678,0,7.888,0,7.888h0.031
		v3.354h2.15v-0.371h5.374v-5.785h-5.366C12.578,39.55,12.578,37.264,12.578,36.342z M16.049,42.412h0.471v3.813h-0.471V42.412z"/>
</g>
<g>
</g>
<g>
</g>
<g>
</g>
<g>
</g>
<g>
</g>
<g>
</g>
<g>
</g>
<g>
</g>
<g>
</g>
<g>
</g>
<g>
</g>
<g>
</g>
<g>
</g>
<g>
</g>
<g>
</g>
</svg>
