<?xml version="1.0" encoding="iso-8859-1"?>
<!-- Generator: Adobe Illustrator 16.0.0, SVG Export Plug-In . SVG Version: 6.00 Build 0)  -->
<!DOCTYPE svg PUBLIC "-//W3C//DTD SVG 1.1//EN" "http://www.w3.org/Graphics/SVG/1.1/DTD/svg11.dtd">
<svg version="1.1" id="Layer_1" xmlns="http://www.w3.org/2000/svg" xmlns:xlink="http://www.w3.org/1999/xlink" x="0px" y="0px"
	 width="30.711px" height="49.651px" viewBox="0 0 30.711 49.651" style="enable-background:new 0 0 30.711 49.651;"
	 xml:space="preserve">
<path d="M22.505,0c-2.669,0.026-5.148,1.361-6.64,3.57l-0.544,0.808L14.765,3.58c-1.53-2.181-4.038-3.471-6.708-3.44
	C3.573,0.18-0.04,3.861,0,8.343c0.037,3.581,4.541,6.973,9.879,10.949v3.049h1.529v24.633l2.219,1.454V22.341h0.51l0.256,0.179
	v26.366l0.879,0.766l4.094-4.054V43.99l-1.225-0.459l1.225-0.918v-0.842l-2.678-2.142l2.295-2.448l-0.842-1.071l0.842-0.688v-1.148
	l-1.606-1.759l0.765-1.684l-1.453-1.301v-1.683l2.295-2.142v-3.366h1.683v-2.848c5.437-4.199,10.081-7.754,10.046-11.438
	C30.67,3.573,26.991-0.04,22.505,0z M15.355,12.742c-1.467,0-2.655-1.189-2.655-2.655c0-1.467,1.188-2.656,2.655-2.656
	s2.655,1.189,2.655,2.656C18.011,11.553,16.822,12.742,15.355,12.742z"/>
<g>
</g>
<g>
</g>
<g>
</g>
<g>
</g>
<g>
</g>
<g>
</g>
<g>
</g>
<g>
</g>
<g>
</g>
<g>
</g>
<g>
</g>
<g>
</g>
<g>
</g>
<g>
</g>
<g>
</g>
</svg>
