<?xml version="1.0" encoding="iso-8859-1"?>
<!-- Generator: Adobe Illustrator 16.0.0, SVG Export Plug-In . SVG Version: 6.00 Build 0)  -->
<!DOCTYPE svg PUBLIC "-//W3C//DTD SVG 1.1//EN" "http://www.w3.org/Graphics/SVG/1.1/DTD/svg11.dtd">
<svg version="1.1" id="Layer_1" xmlns="http://www.w3.org/2000/svg" xmlns:xlink="http://www.w3.org/1999/xlink" x="0px" y="0px"
	 width="29.676px" height="49.921px" viewBox="0 0 29.676 49.921" style="enable-background:new 0 0 29.676 49.921;"
	 xml:space="preserve">
<path d="M20.723,36.805h-4.246c0,0,0-2.347,0-4.041h0.474v-1.109h-0.376c0.283-1.371,1.127-2.532,1.127-2.532
	s-0.938-0.827-1.172-2.107h0.562v-1.109h-0.615c0-0.588,0-1.377,0-2.214c3.66-2.483,13.199-9.808,13.199-18.673
	c0-2.382-0.708-3.942-2.105-4.634C23.852-1.46,16.442,3.854,14.837,5.063c-1.208-0.91-5.699-4.14-9.433-4.901
	c-1.23-0.25-2.379-0.233-3.299,0.224C0.708,1.078,0,2.638,0,5.02c0,8.905,9.625,16.256,13.247,18.707c0,0.819,0,1.597,0,2.181
	h-0.664v1.109h0.627c-0.176,1.183-1.107,2.218-1.107,2.218s0.775,1.116,1.045,2.421h-0.706v1.109h0.805c0,1.637,0,4.041,0,4.041
	H8.669v-0.789H6.368v4.314h2.301v-0.79h4.578v2.873H8.669v-0.789H6.368v4.314h2.301v-0.79h4.578v1.723h-1.144v3.05h6.078v-3.05
	h-1.704v-1.723h4.246v0.79h2.301v-4.314h-2.301v0.789h-4.246V39.54h4.246v0.79h2.301v-4.314h-2.301V36.805z M0.98,5.02
	c0-1.971,0.521-3.232,1.556-3.746C2.802,1.143,3.108,1.072,3.43,1.032L1.88,5.337h3.381c-0.5-1.205-0.806-2.476-0.806-3.786
	c0-0.202,0.027-0.361,0.046-0.536c3.31,0.346,8.129,3.567,10.037,5.061l0.298,0.235l0.301-0.235
	c1.974-1.547,7.069-4.938,10.379-5.076c0.019,0.176,0.043,0.345,0.043,0.55c0,1.311-0.305,2.582-0.805,3.786h3.039l-1.548-4.306
	c0.32,0.041,0.626,0.111,0.892,0.242c1.034,0.514,1.558,1.775,1.558,3.746c0,7.432-7.459,13.952-11.53,16.958
	c0.064-0.217,0.11-0.442,0.11-0.68c0-0.511-0.163-0.983-0.436-1.372c2.902-2.165,7.938-6.668,7.938-11.887
	c0-7.326-9.941,0.459-9.941,0.459s-9.94-7.785-9.94-0.459c0,5.251,5.097,9.777,7.989,11.926c-0.255,0.381-0.405,0.839-0.405,1.333
	c0,0.267,0.054,0.52,0.135,0.76C8.571,19.09,0.98,12.523,0.98,5.02z"/>
<g>
</g>
<g>
</g>
<g>
</g>
<g>
</g>
<g>
</g>
<g>
</g>
<g>
</g>
<g>
</g>
<g>
</g>
<g>
</g>
<g>
</g>
<g>
</g>
<g>
</g>
<g>
</g>
<g>
</g>
</svg>
