<?xml version="1.0" encoding="iso-8859-1"?>
<!-- Generator: Adobe Illustrator 16.0.0, SVG Export Plug-In . SVG Version: 6.00 Build 0)  -->
<!DOCTYPE svg PUBLIC "-//W3C//DTD SVG 1.1//EN" "http://www.w3.org/Graphics/SVG/1.1/DTD/svg11.dtd">
<svg version="1.1" id="Layer_1" xmlns="http://www.w3.org/2000/svg" xmlns:xlink="http://www.w3.org/1999/xlink" x="0px" y="0px"
	 width="21.956px" height="48.329px" viewBox="0 0 21.956 48.329" style="enable-background:new 0 0 21.956 48.329;"
	 xml:space="preserve">
<g>
	<polygon points="18.026,42.546 12.323,42.518 12.321,46.961 18.026,46.99 18.026,48.329 19.563,48.329 19.563,46.092 13.5,46.092 
		13.5,43.445 19.563,43.445 19.563,41.224 18.026,41.224 	"/>
	<polygon points="3.929,41.157 2.392,41.157 2.392,43.395 8.456,43.395 8.456,46.041 2.392,46.041 2.392,48.262 3.929,48.262 
		3.929,46.939 9.632,46.969 9.634,42.525 3.929,42.496 	"/>
	<path d="M9.387,39.012c0.289,0.494,0.543,0.949,0.543,1.641c0,1.607,0,7.557,0,7.557h0.624h0.85h0.624c0,0,0-5.95,0-7.557
		c0-0.692,0.255-1.147,0.542-1.641H9.387z"/>
	<path d="M13.149,38.599c0.953-0.555,1.58-1.448,1.58-2.469c0-1.132-0.77-2.109-1.902-2.642H9.012
		c-1.14,0.532-1.917,1.507-1.917,2.642c0,1.019,0.625,1.912,1.575,2.469H13.149z"/>
	<path d="M21.109,10.495c-0.185-0.219-0.413-0.39-0.667-0.528c0.278-0.155,0.515-0.347,0.705-0.586
		c0.592-0.748,0.858-1.682,0.748-2.631c-0.109-0.95-0.583-1.798-1.331-2.391c-0.845-0.669-1.989-0.923-3.036-0.674
		c0.002-1.088-0.493-2.122-1.354-2.801c-0.628-0.497-1.415-0.771-2.216-0.771c-1.103,0-2.125,0.494-2.806,1.355
		c-0.078,0.098-0.129,0.213-0.188,0.322c-0.079-0.171-0.171-0.333-0.291-0.479C9.993,0.478,8.983,0,7.903,0
		c-0.822,0-1.625,0.287-2.26,0.807C4.793,1.501,4.315,2.543,4.335,3.63C3.284,3.397,2.146,3.669,1.31,4.352
		C0.571,4.956,0.113,5.813,0.018,6.764s0.186,1.882,0.79,2.62c0.196,0.239,0.438,0.427,0.716,0.576
		c-0.252,0.143-0.479,0.316-0.66,0.537c-0.605,0.738-0.886,1.668-0.792,2.62c0.094,0.951,0.552,1.808,1.29,2.412
		c0.834,0.686,1.973,0.958,3.025,0.727c-0.021,1.086,0.456,2.128,1.305,2.824c0.636,0.521,1.439,0.809,2.263,0.809
		c0.237,0,0.468-0.032,0.695-0.077c-0.042,0.18-0.082,0.362-0.082,0.577c0,2.187,1.361,2.41,1.361,3.794s0,5.669,0,6.982
		c0,0.612-0.296,1.206-0.612,1.912h3.319c-0.314-0.706-0.611-1.3-0.611-1.912c0-1.313,0-5.598,0-6.982s1.361-1.608,1.361-3.794
		c0-0.178-0.038-0.325-0.068-0.479c0.258,0.059,0.523,0.091,0.793,0.091c0,0,0,0,0,0c0.844,0,1.663-0.3,2.306-0.846
		c0.838-0.708,1.299-1.759,1.259-2.845c1.058,0.215,2.188-0.075,3.015-0.774c0.727-0.616,1.171-1.48,1.25-2.433
		C22.022,12.148,21.726,11.222,21.109,10.495z M11.821,1.995c0.901-1.139,2.682-1.352,3.826-0.444
		c0.701,0.554,1.084,1.417,1.024,2.307l-0.067,0.994l0.952-0.293c0.841-0.259,1.792-0.08,2.48,0.467
		c0.57,0.451,0.93,1.098,1.014,1.821c0.083,0.724-0.119,1.436-0.57,2.005c-0.283,0.358-0.785,0.567-1.397,0.692
		c-0.53-0.081-1.089-0.103-1.629-0.103c-0.149,0-0.312,0.008-0.466,0.011c0.12-0.293,0.199-0.584,0.188-0.875
		c-0.07-1.834-1.617-3.27-3.452-3.199c-0.677,0.026-1.304,0.276-1.833,0.667C11.457,4.241,11.226,2.747,11.821,1.995z M1.467,8.845
		c-0.46-0.563-0.674-1.271-0.603-1.997c0.073-0.725,0.422-1.377,0.984-1.837c0.483-0.396,1.093-0.613,1.717-0.613
		c0.255,0,0.509,0.036,0.756,0.107L5.28,4.783L5.195,3.79C5.12,2.9,5.489,2.031,6.183,1.465c0.483-0.396,1.094-0.614,1.72-0.614
		c0.824,0,1.594,0.364,2.112,0.998c0.648,0.792,0.369,2.447-0.091,4.429c-0.602-0.452-1.34-0.702-2.112-0.672
		C5.979,5.674,4.543,7.225,4.614,9.058c0.004,0.111,0.043,0.22,0.067,0.33C4.055,9.393,3.435,9.422,2.865,9.519
		C2.266,9.405,1.759,9.203,1.467,8.845z M7.955,19.036c-0.627,0-1.239-0.219-1.724-0.616c-0.691-0.566-1.059-1.435-0.983-2.324
		L5.331,15.1l-0.957,0.28c-0.845,0.246-1.792,0.051-2.473-0.51c-0.562-0.46-0.911-1.112-0.982-1.837
		c-0.072-0.726,0.142-1.435,0.603-1.996c0.283-0.346,0.771-0.543,1.349-0.657c0.608,0.099,1.271,0.127,1.939,0.127
		c0.14,0,0.293-0.005,0.438-0.007c0.846,1.079,2.442,2.15,4.179,3.375l0.721,0.473c0.322,1.522,0.45,2.774,0.023,3.507
		c-0.31,0.256-0.646,0.527-0.938,0.855C8.843,18.915,8.41,19.036,7.955,19.036z M20.144,14.884c-0.674,0.571-1.618,0.779-2.465,0.55
		l-0.961-0.265l0.099,0.993c0.09,0.888-0.263,1.763-0.947,2.341c-0.49,0.415-1.114,0.643-1.756,0.643
		c-0.472,0-0.921-0.133-1.323-0.356c-0.275-0.331-0.597-0.604-0.906-0.856c-0.401-0.747-0.279-2.001,0.025-3.537l1.287-1.017
		c1.233-1.01,2.35-1.932,3.089-2.815c0.134,0.001,0.28,0.005,0.411,0.005c0.903,0,1.699-0.042,2.383-0.163
		c0.669,0.116,1.117,0.323,1.382,0.637c0.469,0.554,0.695,1.259,0.634,1.986C21.035,13.757,20.697,14.415,20.144,14.884z"/>
</g>
<g>
</g>
<g>
</g>
<g>
</g>
<g>
</g>
<g>
</g>
<g>
</g>
<g>
</g>
<g>
</g>
<g>
</g>
<g>
</g>
<g>
</g>
<g>
</g>
<g>
</g>
<g>
</g>
<g>
</g>
</svg>
