<?xml version="1.0" encoding="iso-8859-1"?>
<!-- Generator: Adobe Illustrator 16.0.0, SVG Export Plug-In . SVG Version: 6.00 Build 0)  -->
<!DOCTYPE svg PUBLIC "-//W3C//DTD SVG 1.1//EN" "http://www.w3.org/Graphics/SVG/1.1/DTD/svg11.dtd">
<svg version="1.1" id="Layer_1" xmlns="http://www.w3.org/2000/svg" xmlns:xlink="http://www.w3.org/1999/xlink" x="0px" y="0px"
	 width="30.308px" height="46.312px" viewBox="0 0 30.308 46.312" style="enable-background:new 0 0 30.308 46.312;"
	 xml:space="preserve">
<path d="M20.823,19.908c5.089-3.855,9.485-7.185,9.485-11.177c0-4.814-3.916-8.73-8.729-8.73c-2.465,0-4.79,1.04-6.425,2.83
	C13.52,1.04,11.193,0,8.729,0C3.916,0,0,3.917,0,8.73c0,3.965,4.376,7.287,9.443,11.134c1.276,0.968,2.583,1.967,3.83,2.968v0.179
	H12.25v0.938h1.022v0.5H12.25v0.938h1.022v7.219h0.508v13.707h3v-1.286h1.414v-1.601h2.787v2.038h1.544v-8.813h-1.544v2.163h-2.787
	v-1.601h-1.414v-4.608h0.473v-7.219h1.022v-0.938h-1.022v-0.5h1.022v-0.938h-1.022v-0.343C18.45,21.715,19.652,20.794,20.823,19.908
	z M3,8.73C3,5.571,5.57,3,8.729,3c1.88,0,3.637,0.922,4.699,2.468l1.729,2.514l1.725-2.515C17.943,3.922,19.699,3,21.579,3
	c3.159,0,5.729,2.571,5.729,5.73c0,2.501-4.03,5.554-8.296,8.786c-0.732,0.555-1.479,1.125-2.23,1.705v-3.944
	c1.001-0.569,1.685-1.634,1.685-2.869c0-1.83-1.483-3.313-3.313-3.313s-3.313,1.483-3.313,3.313c0,1.338,0.797,2.484,1.94,3.007
	v3.998c-0.85-0.661-1.696-1.31-2.524-1.938C7.011,14.251,3,11.207,3,8.73z"/>
<g>
</g>
<g>
</g>
<g>
</g>
<g>
</g>
<g>
</g>
<g>
</g>
<g>
</g>
<g>
</g>
<g>
</g>
<g>
</g>
<g>
</g>
<g>
</g>
<g>
</g>
<g>
</g>
<g>
</g>
</svg>
