<?xml version="1.0" encoding="iso-8859-1"?>
<!-- Generator: Adobe Illustrator 16.0.0, SVG Export Plug-In . SVG Version: 6.00 Build 0)  -->
<!DOCTYPE svg PUBLIC "-//W3C//DTD SVG 1.1//EN" "http://www.w3.org/Graphics/SVG/1.1/DTD/svg11.dtd">
<svg version="1.1" id="Layer_1" xmlns="http://www.w3.org/2000/svg" xmlns:xlink="http://www.w3.org/1999/xlink" x="0px" y="0px"
	 width="24.651px" height="49.979px" viewBox="0 0 24.651 49.979" style="enable-background:new 0 0 24.651 49.979;"
	 xml:space="preserve">
<path d="M12.611,0L0,9.877h3.328v15.137h5.038v2.271h1.271v20.469l1.844,1.207V27.285h0.636v22.058l0.73,0.636l3.401-3.369v-1.335
	l-1.017-0.381l1.017-0.764v-0.699l-2.225-1.779l1.906-2.034l-0.698-0.89l0.698-0.572v-0.954l-1.335-1.461l0.637-1.398l-1.208-1.082
	v-1.398l1.906-1.779v-2.797h1.398v-2.271h4.565V9.877h2.757L12.611,0z M7.368,11.94h4.56v4.146h-4.56V11.94z M7.368,17.136h4.56
	v4.146h-4.56V17.136z M17.753,21.281h-4.559v-4.146h4.559V21.281z M17.753,16.087h-4.559V11.94h4.559V16.087z"/>
<g>
</g>
<g>
</g>
<g>
</g>
<g>
</g>
<g>
</g>
<g>
</g>
<g>
</g>
<g>
</g>
<g>
</g>
<g>
</g>
<g>
</g>
<g>
</g>
<g>
</g>
<g>
</g>
<g>
</g>
</svg>
