<?xml version="1.0" encoding="iso-8859-1"?>
<!-- Generator: Adobe Illustrator 16.0.0, SVG Export Plug-In . SVG Version: 6.00 Build 0)  -->
<!DOCTYPE svg PUBLIC "-//W3C//DTD SVG 1.1//EN" "http://www.w3.org/Graphics/SVG/1.1/DTD/svg11.dtd">
<svg version="1.1" id="Layer_1" xmlns="http://www.w3.org/2000/svg" xmlns:xlink="http://www.w3.org/1999/xlink" x="0px" y="0px"
	 width="23.231px" height="49.242px" viewBox="0 0 23.231 49.242" style="enable-background:new 0 0 23.231 49.242;"
	 xml:space="preserve">
<g>
	<path d="M9.089,14.771c0.279,0.352,0.703,0.529,1.258,0.529c0.563,0,1.001-0.183,1.301-0.544c0.517-0.624,0.512-1.641,0.388-2.475
		c0.388,0.093,0.876,0.179,1.352,0.179c0.538,0,0.97-0.111,1.283-0.33c0.398-0.278,0.602-0.72,0.602-1.313
		c0-0.644-0.254-1.117-0.722-1.411V9.4h-0.01c-0.354-0.219-0.825-0.34-1.417-0.34c-0.434,0-0.857,0.059-1.197,0.125
		c0.191-0.797,0.344-1.979-0.184-2.674C11.489,6.177,11.107,6,10.619,5.967V5.961h-0.075c-0.028-0.001-0.053-0.007-0.082-0.007
		c-0.57,0-1.013,0.188-1.313,0.558C8.591,7.2,8.667,8.372,8.803,9.155c-1.786-0.327-2.842,0.236-2.842,1.547
		c0,1.313,1.052,1.932,2.848,1.712C8.658,13.206,8.614,14.176,9.089,14.771z M9.144,12.701v1.277
		C9.066,13.635,9.066,13.204,9.144,12.701z M9.749,14.822V6.489c0.08-0.045,0.169-0.08,0.265-0.106v8.519
		C9.917,14.883,9.829,14.856,9.749,14.822z M10.197,14.921V6.342c0.076-0.01,0.154-0.018,0.238-0.019v8.602
		c-0.03,0.001-0.057,0.007-0.089,0.007C10.293,14.932,10.247,14.924,10.197,14.921z M11.46,14.371V9.664l0.238-0.055v2.202
		l-0.126-0.035l0.054,0.29C11.739,12.67,11.851,13.728,11.46,14.371z M13.059,12.075c-0.103-0.008-0.201-0.02-0.301-0.034v-2.6
		c0.099-0.007,0.199-0.011,0.301-0.012V12.075z M12.574,12.017c-0.088-0.015-0.17-0.033-0.253-0.051V9.49
		c0.081-0.012,0.167-0.021,0.253-0.029V12.017z M13.242,12.085V9.433c0.087,0.002,0.175,0.005,0.255,0.013v2.635
		c-0.04,0.001-0.069,0.012-0.11,0.012C13.338,12.093,13.29,12.087,13.242,12.085z M14.366,11.87
		c-0.074,0.042-0.159,0.077-0.249,0.107v-2.39c0.092,0.036,0.174,0.078,0.249,0.126V11.87z M13.934,12.034
		c-0.076,0.016-0.168,0.019-0.252,0.027V9.473c0.087,0.014,0.174,0.028,0.252,0.049V12.034z M14.903,10.817
		c0,0.418-0.12,0.719-0.354,0.929V9.859C14.782,10.087,14.903,10.402,14.903,10.817z M12.138,9.521v2.406
		c-0.091-0.021-0.177-0.043-0.255-0.065V9.569C11.962,9.552,12.047,9.537,12.138,9.521z M11.496,9.376L11.46,9.505V6.753
		C11.96,7.443,11.653,8.814,11.496,9.376z M11.276,6.558v8.046c-0.078,0.075-0.166,0.138-0.264,0.187V6.413
		C11.11,6.45,11.199,6.497,11.276,6.558z M10.828,6.36v8.501c-0.066,0.02-0.135,0.038-0.209,0.049V6.333
		C10.692,6.339,10.764,6.347,10.828,6.36z M9.565,6.618v8.102c-0.07-0.051-0.135-0.109-0.189-0.179
		c-0.021-0.026-0.03-0.066-0.049-0.094V6.918c0.034-0.06,0.065-0.123,0.108-0.175C9.475,6.695,9.52,6.657,9.565,6.618z M9.144,7.398
		v1.555C9.07,8.48,9.03,7.898,9.144,7.398z M9.144,9.602v2.391l-0.131,0.021c-0.04,0.006-0.072,0.004-0.11,0.01v-2.47
		c0.031,0.006,0.06,0.009,0.092,0.016L9.144,9.602z M8.719,12.039c-0.082,0.009-0.16,0.015-0.238,0.021V9.479
		C8.557,9.49,8.639,9.506,8.719,9.521V12.039z M7.886,9.43v2.65c-0.081-0.004-0.164-0.008-0.238-0.017V9.438
		c0.065-0.004,0.129-0.011,0.2-0.011C7.859,9.427,7.873,9.43,7.886,9.43z M6.801,9.681c0.07-0.048,0.15-0.088,0.238-0.123v2.347
		c-0.089-0.04-0.167-0.087-0.238-0.139V9.681z M7.223,9.498c0.076-0.019,0.155-0.035,0.241-0.046v2.579
		c-0.086-0.017-0.166-0.037-0.241-0.061V9.498z M6.328,10.702c0-0.371,0.1-0.655,0.288-0.863v1.754
		C6.427,11.371,6.328,11.077,6.328,10.702z M8.109,12.092c-0.014,0-0.025-0.002-0.04-0.002V9.442
		c0.075,0.004,0.148,0.007,0.227,0.015v2.618C8.236,12.078,8.167,12.092,8.109,12.092z"/>
	<polygon points="23.231,38.324 23.231,32.356 17.552,32.356 17.552,34.456 19.154,34.456 19.154,35.75 17.552,35.75 17.552,36.995 
		16.257,36.995 16.257,35.75 14.654,35.75 14.654,34.456 16.257,34.456 16.257,32.356 12.947,32.356 12.947,44.782 16.257,44.782 
		16.257,43.486 14.654,43.486 14.654,42.192 16.257,42.192 16.257,40.948 17.552,40.948 17.552,42.192 19.154,42.192 19.154,43.486 
		17.552,43.486 17.552,44.782 23.231,44.782 23.231,39.619 21.398,39.619 21.398,41.221 20.104,41.221 20.104,39.619 18.859,39.619 
		18.859,38.324 20.104,38.324 20.104,36.722 21.398,36.722 21.398,38.324 	"/>
	<path d="M1.122,8.054C0.502,8.054,0,8.557,0,9.176v2.901c0,0.62,0.502,1.123,1.122,1.123c0.619,0,1.121-0.503,1.121-1.123v-0.186
		V9.37V9.176C2.243,8.557,1.741,8.054,1.122,8.054z"/>
	<path d="M10.4,17.951c-0.817-1.089-2.109-2.743-3.256-3.889c-1.242-1.243-3.075-2.65-4.133-3.432
		c1.265-0.916,3.606-2.644,4.439-3.478c0.801-0.8,2.273-2.835,3.123-4.041c0.842,1.359,2.397,3.771,3.449,4.823
		c0.953,0.954,2.72,2.025,3.909,2.694c-1.19,0.672-2.961,1.75-3.909,2.698c-1.001,1.001-2.463,3.242-3.327,4.624h1.741
		c0.821-1.277,1.892-2.85,2.625-3.584c0.853-0.852,2.562-1.876,3.681-2.505V9.396c-1.117-0.624-2.824-1.645-3.681-2.5
		c-0.883-0.883-2.231-2.949-3.066-4.284h-2.87C8.288,3.79,7.065,5.458,6.412,6.113C5.74,6.785,3.885,8.172,2.611,9.102v3.065
		c1.039,0.784,2.49,1.931,3.494,2.934c0.804,0.803,1.705,1.902,2.442,2.849H10.4z"/>
	<path d="M9.165,2.244h0.222h2.381h0.299c0.62,0,1.123-0.502,1.123-1.122S12.687,0,12.066,0H9.165C8.546,0,8.043,0.502,8.043,1.122
		S8.546,2.244,9.165,2.244z"/>
	<path d="M12.384,47.297h-0.676v-0.619h0.872v-1.896V32.356V21.96c0.34-0.078,0.6-0.368,0.6-0.732c0-0.423-0.343-0.766-0.766-0.766
		h-1.521l0.146-0.245h2.08c0.576,0,1.042-0.466,1.042-1.041c0-0.356-0.18-0.67-0.451-0.857H7.936
		c-0.272,0.188-0.452,0.501-0.452,0.857c0,0.575,0.466,1.041,1.041,1.041h1.707l0.174,0.245H9.229c-0.423,0-0.766,0.343-0.766,0.766
		c0,0.335,0.22,0.612,0.521,0.716v24.734H9.87v0.619H9.179c-0.425,0-0.771,0.435-0.771,0.973c0,0.537,0.346,0.972,0.771,0.972h3.205
		c0.426,0,0.771-0.436,0.771-0.972C13.155,47.732,12.81,47.297,12.384,47.297z"/>
	<path d="M20.049,13.2c0.619,0,1.122-0.503,1.122-1.123V9.176c0-0.62-0.503-1.123-1.122-1.123c-0.394,0-0.738,0.203-0.938,0.509
		v4.127C19.311,12.997,19.655,13.2,20.049,13.2z"/>
</g>
<g>
</g>
<g>
</g>
<g>
</g>
<g>
</g>
<g>
</g>
<g>
</g>
<g>
</g>
<g>
</g>
<g>
</g>
<g>
</g>
<g>
</g>
<g>
</g>
<g>
</g>
<g>
</g>
<g>
</g>
</svg>
