<?xml version="1.0" encoding="iso-8859-1"?>
<!-- Generator: Adobe Illustrator 16.0.0, SVG Export Plug-In . SVG Version: 6.00 Build 0)  -->
<!DOCTYPE svg PUBLIC "-//W3C//DTD SVG 1.1//EN" "http://www.w3.org/Graphics/SVG/1.1/DTD/svg11.dtd">
<svg version="1.1" id="Layer_1" xmlns="http://www.w3.org/2000/svg" xmlns:xlink="http://www.w3.org/1999/xlink" x="0px" y="0px"
	 width="30.012px" height="48.45px" viewBox="0 0 30.012 48.45" style="enable-background:new 0 0 30.012 48.45;"
	 xml:space="preserve">
<path d="M30.012,10.355C30.012,4.645,23.28,0,15.006,0S0,4.645,0,10.355c0,5.394,6.009,9.832,13.648,10.307v0.433h-1.966v1.986
	h1.966V36.16H9.359v-0.74H7.203v4.042h2.156v-0.739h4.289v2.692H9.359v-0.74H7.203v4.042h2.156v-0.739h4.289v1.614h-1.072v2.858
	h5.695v-2.858h-1.596v-1.614h3.979v0.739h2.156v-4.042h-2.156v0.74h-3.979v-2.692h3.979v0.739h2.156V35.42h-2.156v0.74h-3.979
	V23.081h1.887v-1.986h-1.887v-0.454C24.166,20.066,30.012,15.675,30.012,10.355z M17.917,4.062l4.672,0.065
	c2.983,1.437,4.92,3.69,4.92,6.229c0,1.768-0.947,3.396-2.523,4.709l-5.582,0.787l-4.144-0.8l1.429-2.863V8.564l-1.792-3.3
	L17.917,4.062z M7.473,16.606c-3.012-1.435-4.969-3.7-4.969-6.251c0-2.036,1.251-3.887,3.282-5.284l5.379-0.921l3.312,1.198
	l-1.768,3.566v2.956l1.748,3.293l-2.878,1.146L7.473,16.606z"/>
<g>
</g>
<g>
</g>
<g>
</g>
<g>
</g>
<g>
</g>
<g>
</g>
<g>
</g>
<g>
</g>
<g>
</g>
<g>
</g>
<g>
</g>
<g>
</g>
<g>
</g>
<g>
</g>
<g>
</g>
</svg>
