<?xml version="1.0" encoding="iso-8859-1"?>
<!-- Generator: Adobe Illustrator 16.0.0, SVG Export Plug-In . SVG Version: 6.00 Build 0)  -->
<!DOCTYPE svg PUBLIC "-//W3C//DTD SVG 1.1//EN" "http://www.w3.org/Graphics/SVG/1.1/DTD/svg11.dtd">
<svg version="1.1" id="Layer_1" xmlns="http://www.w3.org/2000/svg" xmlns:xlink="http://www.w3.org/1999/xlink" x="0px" y="0px"
	 width="24.339px" height="45.714px" viewBox="0 0 24.339 45.714" style="enable-background:new 0 0 24.339 45.714;"
	 xml:space="preserve">
<g>
	<polygon points="18.194,38.161 18.194,34.727 15.939,34.727 15.939,36.771 10.573,36.743 10.573,24.083 11.727,24.083 
		11.727,19.916 10.573,19.916 10.573,19.573 11.727,19.573 11.727,15.43 9.106,15.43 9.04,15.43 6.42,15.43 6.42,19.573 
		7.573,19.573 7.573,19.916 6.42,19.916 6.42,24.083 7.573,24.083 7.573,45.714 10.573,45.714 10.573,43.615 15.939,43.644 
		15.939,45.714 18.194,45.714 18.194,42.254 15.537,42.254 15.537,38.161 	"/>
	<polygon points="6.285,2.4 6.285,5.96 9.04,5.96 9.106,5.96 11.861,5.96 11.861,2.4 10.358,2.4 10.358,1.161 12.181,1.161 
		12.181,5.941 12.179,5.941 12.179,7.102 16.985,7.102 16.985,8.925 15.748,8.925 15.745,7.421 12.186,7.421 12.186,11.588 
		16.985,11.588 16.985,13.434 15.745,13.434 15.748,11.932 12.186,11.932 12.186,15.087 13.347,15.087 13.347,13.092 14.586,13.092 
		14.586,14.595 18.146,14.595 18.146,10.428 13.347,10.428 13.347,8.582 14.586,8.582 14.586,10.086 18.146,10.086 18.146,5.942 
		13.341,5.941 13.341,0 9.197,0 9.197,3.561 10.702,3.561 10.702,4.799 9.106,4.799 9.04,4.799 7.444,4.799 7.444,3.561 
		8.949,3.561 8.949,0 4.806,0 4.806,5.941 0,5.942 0,10.086 3.561,10.086 3.561,8.582 4.8,8.582 4.8,10.428 0,10.428 0,14.595 
		3.561,14.595 3.561,13.092 4.8,13.092 4.8,15.087 5.961,15.087 5.961,11.932 2.399,11.932 2.401,13.434 1.161,13.434 1.161,11.588 
		5.961,11.588 5.961,7.421 2.401,7.421 2.399,8.925 1.161,8.925 1.161,7.102 5.968,7.102 5.968,5.941 5.966,5.941 5.966,1.161 
		7.788,1.161 7.788,2.4 	"/>
	<path d="M11.727,6.443h-2.62H9.04H6.42v4.145h2.62h0.066h2.62V6.443z M10.565,9.426h-1.24V7.922H9.106H9.04H8.821v1.504h-1.24
		V7.604H9.04h0.066h1.459V9.426z"/>
	<path d="M9.04,10.929H6.42v4.158v0.009h2.62h0.066h2.62v-0.009v-4.158h-2.62H9.04z M10.565,13.935h-1.24v-1.503H9.106H9.04H8.821
		v1.503h-1.24V12.09H9.04h0.066h1.459V13.935z"/>
</g>
<g>
	<g>
		<path style="fill:none;stroke:#000000;stroke-miterlimit:10;" d="M24.339,40.849"/>
	</g>
</g>
<g>
</g>
<g>
</g>
<g>
</g>
<g>
</g>
<g>
</g>
<g>
</g>
<g>
</g>
<g>
</g>
<g>
</g>
<g>
</g>
<g>
</g>
<g>
</g>
<g>
</g>
<g>
</g>
<g>
</g>
</svg>
