<?xml version="1.0" encoding="iso-8859-1"?>
<!-- Generator: Adobe Illustrator 16.0.0, SVG Export Plug-In . SVG Version: 6.00 Build 0)  -->
<!DOCTYPE svg PUBLIC "-//W3C//DTD SVG 1.1//EN" "http://www.w3.org/Graphics/SVG/1.1/DTD/svg11.dtd">
<svg version="1.1" id="Layer_1" xmlns="http://www.w3.org/2000/svg" xmlns:xlink="http://www.w3.org/1999/xlink" x="0px" y="0px"
	 width="19.801px" height="49.2px" viewBox="0 0 19.801 49.2" style="enable-background:new 0 0 19.801 49.2;" xml:space="preserve"
	>
<path d="M14.876,26.802l0.443,0.274l0.443-0.274c0.165-0.102,4.038-2.531,4.038-5.737c0-2.213-1.846-4.056-3.044-5.019
	c1.198-0.962,3.044-2.804,3.044-5.018c0-3.206-3.873-5.635-4.038-5.737l-0.443-0.274l-0.443,0.274
	c-0.035,0.021-0.243,0.153-0.54,0.37c-0.265-3.031-3.854-5.29-4.014-5.389L9.879,0L9.436,0.273C9.276,0.372,5.709,2.617,5.424,5.632
	C5.149,5.433,4.96,5.313,4.926,5.292L4.482,5.018L4.039,5.292C3.874,5.394,0,7.824,0,11.029c0,2.213,1.846,4.056,3.044,5.018
	C1.846,17.01,0,18.852,0,21.065c0,3.206,3.874,5.635,4.039,5.737l0.443,0.274l0.443-0.274c0.085-0.052,1.143-0.722,2.153-1.791
	c0.164,0.502,0.444,0.951,0.829,1.297H7.306v1.004h1.208v10.712H4.649v-0.878H2.089v4.798h2.561v-0.878h3.864v3.583H4.649v-0.878
	H2.089v4.798h2.561v-0.878h3.864V49.2h2.773v-1.508h3.384v0.878h2.561v-4.798h-2.561v0.878h-3.384v-3.583h3.384v0.878h2.561v-4.798
	h-2.561v0.878h-3.384V27.313h1.077v-1.004h-0.508c0.393-0.353,0.678-0.812,0.839-1.325C13.715,26.069,14.791,26.75,14.876,26.802z
	 M15.319,7.031c1.057,0.771,2.794,2.379,2.794,3.999c0,1.619-1.737,3.227-2.794,3.998c-1.057-0.771-2.795-2.379-2.795-3.998
	C12.524,9.41,14.263,7.802,15.319,7.031z M9.879,2.012c1.057,0.771,2.794,2.38,2.794,3.999c0,1.619-1.737,3.227-2.794,3.998
	C9.335,9.612,8.612,8.992,8.036,8.265C7.927,8.097,7.809,7.937,7.688,7.781c-0.358-0.56-0.603-1.164-0.603-1.77
	C7.085,4.392,8.822,2.783,9.879,2.012z M1.688,11.029c0-1.619,1.736-3.227,2.794-3.999c0.544,0.396,1.267,1.017,1.843,1.744
	c0.109,0.167,0.227,0.328,0.347,0.484c0.36,0.559,0.604,1.164,0.604,1.77c0,0.605-0.244,1.21-0.604,1.77
	c-0.12,0.156-0.237,0.317-0.347,0.484c-0.576,0.728-1.299,1.348-1.843,1.744C3.425,14.256,1.688,12.648,1.688,11.029z M4.482,25.064
	c-1.058-0.771-2.794-2.38-2.794-3.999c0-1.619,1.736-3.227,2.794-3.998c0.544,0.396,1.267,1.016,1.843,1.744
	c0.109,0.167,0.227,0.328,0.347,0.484c0.36,0.56,0.604,1.164,0.604,1.77C7.276,22.684,5.538,24.293,4.482,25.064z M9.879,20.046
	c-0.544-0.397-1.267-1.017-1.843-1.745c-0.109-0.167-0.228-0.328-0.349-0.484c-0.358-0.56-0.603-1.164-0.603-1.771
	c0-0.605,0.244-1.209,0.603-1.77c0.121-0.156,0.239-0.317,0.349-0.484c0.576-0.728,1.299-1.348,1.843-1.744
	c1.057,0.771,2.794,2.379,2.794,3.998C12.673,17.666,10.936,19.274,9.879,20.046z M15.319,17.068
	c1.057,0.771,2.794,2.378,2.794,3.998c0,1.619-1.737,3.228-2.794,3.999c-1.057-0.771-2.795-2.38-2.795-3.999
	C12.524,19.446,14.263,17.838,15.319,17.068z"/>
<g>
</g>
<g>
</g>
<g>
</g>
<g>
</g>
<g>
</g>
<g>
</g>
<g>
</g>
<g>
</g>
<g>
</g>
<g>
</g>
<g>
</g>
<g>
</g>
<g>
</g>
<g>
</g>
<g>
</g>
</svg>
