<?xml version="1.0" encoding="iso-8859-1"?>
<!-- Generator: Adobe Illustrator 16.0.0, SVG Export Plug-In . SVG Version: 6.00 Build 0)  -->
<!DOCTYPE svg PUBLIC "-//W3C//DTD SVG 1.1//EN" "http://www.w3.org/Graphics/SVG/1.1/DTD/svg11.dtd">
<svg version="1.1" id="Layer_1" xmlns="http://www.w3.org/2000/svg" xmlns:xlink="http://www.w3.org/1999/xlink" x="0px" y="0px"
	 width="29.925px" height="48.825px" viewBox="0 0 29.925 48.825" style="enable-background:new 0 0 29.925 48.825;"
	 xml:space="preserve">
<g>
	<path d="M29.925,12.712C29.925,5.703,23.213,0,14.963,0C6.712,0,0,5.703,0,12.712c0,5.926,4.802,11.023,11.527,12.366v23.747h6.923
		v-4.95h4.95v-8.213h-4.95V25.068C25.144,23.711,29.925,18.616,29.925,12.712z M21.601,37.463v4.612h-4.95v4.95h-3.322V23.551
		l-0.764-0.117C6.327,22.474,1.8,17.965,1.8,12.712C1.8,6.695,7.705,1.8,14.963,1.8s13.162,4.896,13.162,10.912
		c0,5.234-4.506,9.739-10.715,10.715l-0.76,0.119v13.917H21.601z"/>
	<path d="M25.425,12.712c0-4.527-4.693-8.212-10.462-8.212C9.193,4.5,4.5,8.185,4.5,12.712c0,4.528,4.693,8.213,10.463,8.213
		C20.731,20.925,25.425,17.24,25.425,12.712z M14.963,19.125c-4.777,0-8.663-2.877-8.663-6.413c0-3.535,3.886-6.412,8.663-6.412
		c4.776,0,8.662,2.877,8.662,6.412C23.625,16.248,19.739,19.125,14.963,19.125z"/>
</g>
<g>
</g>
<g>
</g>
<g>
</g>
<g>
</g>
<g>
</g>
<g>
</g>
<g>
</g>
<g>
</g>
<g>
</g>
<g>
</g>
<g>
</g>
<g>
</g>
<g>
</g>
<g>
</g>
<g>
</g>
</svg>
