<?xml version="1.0" encoding="iso-8859-1"?>
<!-- Generator: Adobe Illustrator 16.0.0, SVG Export Plug-In . SVG Version: 6.00 Build 0)  -->
<!DOCTYPE svg PUBLIC "-//W3C//DTD SVG 1.1//EN" "http://www.w3.org/Graphics/SVG/1.1/DTD/svg11.dtd">
<svg version="1.1" id="Layer_1" xmlns="http://www.w3.org/2000/svg" xmlns:xlink="http://www.w3.org/1999/xlink" x="0px" y="0px"
	 width="27.772px" height="48.719px" viewBox="0 0 27.772 48.719" style="enable-background:new 0 0 27.772 48.719;"
	 xml:space="preserve">
<path d="M15.767,38.086V24.914c0.732-0.1,1.302-0.617,1.302-1.271s-0.57-1.173-1.302-1.271v-0.241
	c0.732-0.1,1.302-0.618,1.302-1.271c0-0.3-0.138-0.563-0.337-0.784c0.007,0,0.013,0.002,0.02,0.002c1.823,0,3.314-1.435,3.414-3.232
	c0.467,0.24,0.994,0.377,1.554,0.377c1.887,0,3.423-1.535,3.423-3.422c0-0.922-0.368-1.758-0.963-2.375
	c1.229-0.52,2.093-1.737,2.093-3.153c0-1.887-1.536-3.423-3.423-3.423c-0.371,0-0.727,0.061-1.061,0.17
	c0.021-0.154,0.037-0.309,0.037-0.469c0-1.887-1.536-3.422-3.423-3.422c-0.99,0-1.881,0.425-2.507,1.1C15.41,0.93,14.16,0,12.693,0
	c-1.584,0-2.917,1.083-3.305,2.547C8.802,2.075,8.058,1.79,7.248,1.79c-1.887,0-3.423,1.536-3.423,3.423
	c0,0.334,0.05,0.657,0.141,0.963C3.789,6.147,3.607,6.128,3.422,6.128C1.535,6.128,0,7.663,0,9.55c0,1.671,1.204,3.063,2.79,3.362
	c-0.413,0.565-0.659,1.259-0.659,2.01c0,1.887,1.535,3.422,3.422,3.422c0.792,0,1.52-0.272,2.101-0.727
	c0.227,1.669,1.657,2.96,3.388,2.96c0.05,0,0.099-0.008,0.149-0.01c-0.026,0.096-0.068,0.188-0.068,0.291
	c0,0.724,0.688,1.312,1.536,1.312h0.097v0.16h-0.097c-0.848,0-1.536,0.588-1.536,1.313c0,0.724,0.688,1.311,1.536,1.311h0.097
	v23.765h3.011v-0.871h12.006v-9.762H15.767z M16.752,18.942c-0.354,0-0.686-0.087-0.985-0.231v-0.044h-0.081
	c-0.723-0.385-1.222-1.138-1.222-2.012c0-1.261,1.026-2.288,2.288-2.288c1.261,0,2.288,1.027,2.288,2.288
	C19.04,17.917,18.013,18.942,16.752,18.942z M17.906,13.437c0.148-0.035,0.292-0.08,0.431-0.134
	c-0.015,0.101-0.025,0.203-0.031,0.308C18.177,13.544,18.043,13.487,17.906,13.437z M17.109,12.4c-1.262,0-2.289-1.026-2.289-2.287
	c0-1.262,1.026-2.289,2.289-2.289c1.261,0,2.287,1.026,2.287,2.289C19.396,11.374,18.37,12.4,17.109,12.4z M21.72,16.088
	c-1.262,0-2.288-1.026-2.288-2.288c0-1.262,1.026-2.288,2.288-2.288c0.017,0,0.032,0.005,0.048,0.005
	c0.257,0.086,0.525,0.142,0.806,0.164c0.838,0.339,1.434,1.16,1.434,2.119C24.007,15.062,22.981,16.088,21.72,16.088z M22.85,5.985
	c1.261,0,2.288,1.026,2.288,2.288s-1.027,2.288-2.288,2.288c-0.017,0-0.032-0.004-0.048-0.005c-0.257-0.085-0.526-0.141-0.806-0.164
	c-0.839-0.339-1.434-1.159-1.434-2.119C20.562,7.012,21.588,5.985,22.85,5.985z M18.403,2.264c1.261,0,2.288,1.026,2.288,2.288
	c0,1.262-1.026,2.288-2.288,2.288c-1.262,0-2.288-1.026-2.288-2.288C16.115,3.291,17.141,2.264,18.403,2.264z M12.693,1.134
	c1.261,0,2.287,1.026,2.287,2.289c0,1.262-1.026,2.288-2.287,2.288c-1.262,0-2.288-1.026-2.288-2.288
	C10.406,2.161,11.432,1.134,12.693,1.134z M10.553,6.089c0.587,0.472,1.331,0.756,2.141,0.756c0.99,0,1.881-0.426,2.506-1.1
	c0.164,0.436,0.411,0.829,0.725,1.16c-1.304,0.483-2.239,1.736-2.239,3.208c0,1.481,0.949,2.742,2.269,3.217
	c-0.962,0.23-1.768,0.866-2.222,1.718c-0.627-0.798-1.599-1.313-2.691-1.313c-0.094,0-0.186,0.006-0.278,0.014
	c1.183-0.54,2.01-1.731,2.01-3.114c0-1.674-1.208-3.069-2.798-3.363C10.239,6.923,10.438,6.523,10.553,6.089z M9.352,12.922
	c-1.262,0-2.288-1.026-2.288-2.287c0-1.262,1.026-2.288,2.288-2.288c1.261,0,2.287,1.026,2.287,2.288
	C11.638,11.896,10.613,12.922,9.352,12.922z M9.628,14.043c-0.246,0.112-0.476,0.252-0.688,0.417
	c-0.021-0.151-0.05-0.299-0.09-0.444c0.164,0.024,0.331,0.041,0.501,0.041C9.445,14.057,9.537,14.05,9.628,14.043z M7.248,2.925
	c1.261,0,2.287,1.026,2.287,2.288c0,1.262-1.026,2.288-2.287,2.288c-1.262,0-2.288-1.026-2.288-2.288
	C4.96,3.952,5.986,2.925,7.248,2.925z M1.134,9.55c0-1.261,1.026-2.288,2.288-2.288c1.261,0,2.288,1.026,2.288,2.288
	c0,1.262-1.027,2.288-2.288,2.288C2.161,11.838,1.134,10.812,1.134,9.55z M5.553,17.21c-1.262,0-2.288-1.026-2.288-2.288
	c0-1.262,1.026-2.288,2.288-2.288c1.261,0,2.288,1.026,2.288,2.288C7.841,16.184,6.814,17.21,5.553,17.21z M8.753,17.157
	c0-1.262,1.026-2.289,2.288-2.289c1.261,0,2.288,1.026,2.288,2.289c0,1.261-1.027,2.287-2.288,2.287
	C9.78,19.444,8.753,18.418,8.753,17.157z M26.542,44.127h-2.966v2.966h-2.319v-2.966H18.29v-2.32h2.967V38.84h2.319v2.967h2.966
	V44.127z"/>
<g>
</g>
<g>
</g>
<g>
</g>
<g>
</g>
<g>
</g>
<g>
</g>
<g>
</g>
<g>
</g>
<g>
</g>
<g>
</g>
<g>
</g>
<g>
</g>
<g>
</g>
<g>
</g>
<g>
</g>
</svg>
