<?xml version="1.0" encoding="iso-8859-1"?>
<!-- Generator: Adobe Illustrator 16.0.0, SVG Export Plug-In . SVG Version: 6.00 Build 0)  -->
<!DOCTYPE svg PUBLIC "-//W3C//DTD SVG 1.1//EN" "http://www.w3.org/Graphics/SVG/1.1/DTD/svg11.dtd">
<svg version="1.1" id="Layer_1" xmlns="http://www.w3.org/2000/svg" xmlns:xlink="http://www.w3.org/1999/xlink" x="0px" y="0px"
	 width="24.121px" height="43.896px" viewBox="0 0 24.121 43.896" style="enable-background:new 0 0 24.121 43.896;"
	 xml:space="preserve">
<path d="M24.121,35.269v-1.762h-7.75v3.166h-2.63c0,0,0-2.546,0-5.583h0.979c0.595,0,1.078-0.483,1.078-1.078
	s-0.483-1.078-1.078-1.078h-0.979c0-0.153,0-0.306,0-0.458h0.979c0.595,0,1.078-0.483,1.078-1.078s-0.483-1.078-1.078-1.078h-0.979
	c0-0.201,0-0.398,0-0.594h0.979c0.595,0,1.078-0.483,1.078-1.078s-0.483-1.078-1.078-1.078h-0.979c0-0.143,0-0.283,0-0.417h0.979
	c0.595,0,1.078-0.483,1.078-1.078s-0.483-1.078-1.078-1.078h-0.952c0.265-2.407,2.556-5.141,2.556-5.141
	c0.386,0.071,0.784,0.111,1.191,0.111c3.522,0,6.389-2.766,6.389-6.166c0-3.399-2.866-6.165-6.389-6.165
	c-0.451,0-0.893,0.047-1.318,0.134c-1.557-1.204-3.474-2.955-3.713-3.199C12.163,0.24,12.125,0,12.125,0s-0.044,0.275-0.352,0.561
	c-0.239,0.223-2.366,2.066-3.907,3.248C7.392,3.699,6.897,3.635,6.389,3.635C2.866,3.635,0,6.401,0,9.8
	c0,3.4,2.866,6.166,6.389,6.166c0.595,0,1.168-0.084,1.716-0.232c0.008,0.006,0.017,0.013,0.024,0.02
	c0.567,0.857,2.283,3.556,2.569,5.243h-0.76c-0.596,0-1.078,0.483-1.078,1.078s0.482,1.078,1.078,1.078h0.803
	c0,0.135,0,0.269,0,0.417H9.938c-0.596,0-1.078,0.483-1.078,1.078s0.482,1.078,1.078,1.078h0.803c0,0.192,0,0.394,0,0.594H9.938
	c-0.596,0-1.078,0.483-1.078,1.078s0.482,1.078,1.078,1.078h0.803c0,0.151,0,0.306,0,0.458H9.938c-0.596,0-1.078,0.483-1.078,1.078
	s0.482,1.078,1.078,1.078h0.803c0,6.105,0,12.807,0,12.807h3v-3.39h2.63v3.39h7.75v-1.762h-2.322v-1.833h2.322v-3.2h-2.322v-1.833
	H24.121z M8.982,15.429c1.256-0.541,2.297-1.46,2.97-2.608c0.751,1.284,1.966,2.279,3.422,2.782
	c-1.207,0.919-2.314,2.671-3.045,3.341C11.662,18.291,10.296,16.414,8.982,15.429z M17.505,4.77c2.762,0,5,2.239,5,5s-2.238,5-5,5
	s-5-2.239-5-5S14.743,4.77,17.505,4.77z M12.114,1.285c0.65,0.636,1.874,1.783,3.152,2.752c-1.409,0.514-2.583,1.491-3.314,2.743
	c-0.709-1.211-1.829-2.167-3.176-2.694C10.05,3.135,11.343,1.991,12.114,1.285z M1.411,9.77c0-2.761,2.238-5,5-5s5,2.239,5,5
	s-2.238,5-5,5S1.411,12.531,1.411,9.77z M22.517,37.742v1.695h-2.148v2.225h-1.695v-2.225h-2.302v-1.695h2.302v-2.225h1.695v2.225
	H22.517z"/>
<g>
</g>
<g>
</g>
<g>
</g>
<g>
</g>
<g>
</g>
<g>
</g>
<g>
</g>
<g>
</g>
<g>
</g>
<g>
</g>
<g>
</g>
<g>
</g>
<g>
</g>
<g>
</g>
<g>
</g>
</svg>
