<?xml version="1.0" encoding="iso-8859-1"?>
<!-- Generator: Adobe Illustrator 16.0.0, SVG Export Plug-In . SVG Version: 6.00 Build 0)  -->
<!DOCTYPE svg PUBLIC "-//W3C//DTD SVG 1.1//EN" "http://www.w3.org/Graphics/SVG/1.1/DTD/svg11.dtd">
<svg version="1.1" id="Layer_1" xmlns="http://www.w3.org/2000/svg" xmlns:xlink="http://www.w3.org/1999/xlink" x="0px" y="0px"
	 width="22.814px" height="48.631px" viewBox="0 0 22.814 48.631" style="enable-background:new 0 0 22.814 48.631;"
	 xml:space="preserve">
<path d="M0,15.83h6.744v32.801h6.02v-6.01l3.25-2.717v-2.863l-0.184,0.262c-0.766,1.021-1.396,1.941-2.066,1.949
	c-0.766,0.008-1.395-0.609-1.402-1.375c-0.006-0.455,0.217-0.885,0.588-1.146l0.137-0.096l-0.139-0.094
	c-0.377-0.254-0.604-0.676-0.609-1.133c-0.006-0.766,0.611-1.396,1.377-1.404c0.629-0.004,1.236,0.791,1.955,1.721l0.344,0.459
	v-6.785l-0.184,0.26c-0.766,1.021-1.396,1.943-2.066,1.949c-0.766,0.01-1.395-0.609-1.402-1.375
	c-0.006-0.455,0.217-0.885,0.588-1.146l0.137-0.094l-0.139-0.094c-0.377-0.254-0.604-0.678-0.609-1.135
	c-0.006-0.766,0.611-1.395,1.377-1.402c0.629-0.006,1.236,0.789,1.955,1.719l0.344,0.461v-6.906l-0.184,0.26
	c-0.766,1.021-1.396,1.943-2.066,1.951c-0.766,0.006-1.395-0.611-1.402-1.377c-0.006-0.457,0.217-0.885,0.588-1.146l0.137-0.094
	l-0.139-0.096c-0.377-0.254-0.604-0.676-0.609-1.133c-0.006-0.766,0.611-1.395,1.377-1.402c0.629-0.006,1.236,0.789,1.955,1.719
	l0.344,0.459V15.83h6.801V0H0V15.83z M15.592,2.408v5.535H6.443V2.408H15.592z"/>
<g>
</g>
<g>
</g>
<g>
</g>
<g>
</g>
<g>
</g>
<g>
</g>
<g>
</g>
<g>
</g>
<g>
</g>
<g>
</g>
<g>
</g>
<g>
</g>
<g>
</g>
<g>
</g>
<g>
</g>
</svg>
