<?xml version="1.0" encoding="iso-8859-1"?>
<!-- Generator: Adobe Illustrator 16.0.0, SVG Export Plug-In . SVG Version: 6.00 Build 0)  -->
<!DOCTYPE svg PUBLIC "-//W3C//DTD SVG 1.1//EN" "http://www.w3.org/Graphics/SVG/1.1/DTD/svg11.dtd">
<svg version="1.1" id="Layer_1" xmlns="http://www.w3.org/2000/svg" xmlns:xlink="http://www.w3.org/1999/xlink" x="0px" y="0px"
	 width="27.761px" height="48.729px" viewBox="0 0 27.761 48.729" style="enable-background:new 0 0 27.761 48.729;"
	 xml:space="preserve">
<path d="M27.761,10.835C27.761,4.76,21.665,0,13.881,0S0,4.76,0,10.835c0,5.648,5.271,10.153,12.265,10.76
	c-0.523,0.21-0.861,0.516-0.861,0.861c0,0.386,0.418,0.726,1.054,0.934c-0.636,0.208-1.054,0.548-1.054,0.934
	c0,0.362,0.373,0.682,0.945,0.893c-0.572,0.21-0.945,0.53-0.945,0.893c0,0.391,0.428,0.736,1.078,0.943L12.45,40.639l-4.462-0.025
	v-1.388H5.574v3.313h5.577v1.737H5.574v3.297h2.414v-1.365l4.448,0.025l-0.006,2.495h2.956l0.006-2.569l4.437,0.025v1.388h2.414
	V44.26h-5.577v-1.737h5.577v-3.297h-2.414v1.365l-4.423-0.025l0.033-13.552c0.589-0.21,0.974-0.535,0.974-0.904
	c0-0.363-0.373-0.682-0.945-0.893c0.572-0.211,0.945-0.53,0.945-0.893c0-0.367-0.384-0.687-0.966-0.897l0-0.074
	c0.582-0.21,0.965-0.531,0.965-0.897c0-0.348-0.343-0.655-0.874-0.866C22.511,20.968,27.761,16.471,27.761,10.835z M14.995,5.042
	c4.331,0.36,7.814,2.777,7.943,5.632h-7.943V5.042z M13.183,5.014v5.66h-8.36C4.956,7.727,8.661,5.249,13.183,5.014z M4.9,11.598
	h8.282v5.059C8.972,16.438,5.471,14.274,4.9,11.598z M14.995,16.629v-5.031h7.865C22.309,14.186,19.018,16.294,14.995,16.629z"/>
<g>
</g>
<g>
</g>
<g>
</g>
<g>
</g>
<g>
</g>
<g>
</g>
<g>
</g>
<g>
</g>
<g>
</g>
<g>
</g>
<g>
</g>
<g>
</g>
<g>
</g>
<g>
</g>
<g>
</g>
</svg>
