<?xml version="1.0" encoding="iso-8859-1"?>
<!-- Generator: Adobe Illustrator 16.0.0, SVG Export Plug-In . SVG Version: 6.00 Build 0)  -->
<!DOCTYPE svg PUBLIC "-//W3C//DTD SVG 1.1//EN" "http://www.w3.org/Graphics/SVG/1.1/DTD/svg11.dtd">
<svg version="1.1" id="Layer_1" xmlns="http://www.w3.org/2000/svg" xmlns:xlink="http://www.w3.org/1999/xlink" x="0px" y="0px"
	 width="20.59px" height="43.126px" viewBox="0 0 20.59 43.126" style="enable-background:new 0 0 20.59 43.126;"
	 xml:space="preserve">
<polygon points="20.59,7.007 20.59,0 10.5,0 10.5,1.963 18.627,1.963 18.627,5.044 16.532,5.044 16.532,2.501 10.512,2.501 
	10.512,9.548 18.627,9.548 18.627,12.669 16.532,12.669 16.532,10.128 10.512,10.128 10.512,10.133 10.078,10.133 10.078,10.128 
	4.058,10.128 4.058,12.669 1.963,12.669 1.963,9.548 10.078,9.548 10.078,2.501 4.058,2.501 4.058,5.044 1.963,5.044 1.963,1.963 
	10.09,1.963 10.09,0 0,0 0,7.007 6.021,7.007 6.021,4.464 8.115,4.464 8.115,7.585 0,7.585 0,14.632 6.021,14.632 6.021,12.091 
	8.115,12.091 8.115,17.175 8.891,17.175 8.891,17.705 8.015,17.705 8.015,18.643 8.891,18.643 8.891,19.143 8.015,19.143 
	8.015,20.08 8.891,20.08 8.891,43.126 11.891,43.126 11.891,38.187 14.607,38.187 14.607,43.093 19.982,43.093 19.982,38.187 
	15.732,38.187 15.732,34.21 19.982,34.21 19.982,29.304 14.607,29.304 14.607,34.187 11.891,34.187 11.891,20.08 12.515,20.08 
	12.515,19.143 11.891,19.143 11.891,18.643 12.515,18.643 12.515,17.705 11.891,17.705 11.891,17.175 12.475,17.175 12.475,12.091 
	14.569,12.091 14.569,14.632 20.59,14.632 20.59,7.585 12.475,7.585 12.475,4.464 14.569,4.464 14.569,7.007 "/>
<g>
</g>
<g>
</g>
<g>
</g>
<g>
</g>
<g>
</g>
<g>
</g>
<g>
</g>
<g>
</g>
<g>
</g>
<g>
</g>
<g>
</g>
<g>
</g>
<g>
</g>
<g>
</g>
<g>
</g>
</svg>
