<?xml version="1.0" encoding="iso-8859-1"?>
<!-- Generator: Adobe Illustrator 16.0.0, SVG Export Plug-In . SVG Version: 6.00 Build 0)  -->
<!DOCTYPE svg PUBLIC "-//W3C//DTD SVG 1.1//EN" "http://www.w3.org/Graphics/SVG/1.1/DTD/svg11.dtd">
<svg version="1.1" id="Layer_1" xmlns="http://www.w3.org/2000/svg" xmlns:xlink="http://www.w3.org/1999/xlink" x="0px" y="0px"
	 width="24.385px" height="42.459px" viewBox="0 0 24.385 42.459" style="enable-background:new 0 0 24.385 42.459;"
	 xml:space="preserve">
<path d="M13.692,35.434V23.783h1.224v-0.917h-1.224v-0.771h1.224v-0.917h-1.224v-0.864h1.224v-0.917h-1.224v-1.721
	c6.017-0.541,10.693-4.277,10.693-8.801C24.385,3.981,18.916,0,12.193,0S0,3.981,0,8.875c0,4.523,4.676,8.26,10.692,8.801v1.721
	H9.25v0.917h1.443v0.864H9.25v0.917h1.443v0.771H9.25v0.917h1.443v18.676h1.5h1.5h8.974l-3.704-3.512l3.704-3.513H13.692z
	 M2.404,8.913c0-2.772,2.255-5.027,5.026-5.027c1.614,0,3.091,0.751,4.052,2.063l0.674,0.919l0.674-0.919
	c0.961-1.312,2.438-2.063,4.052-2.063c2.771,0,5.026,2.255,5.026,5.027c0,2.771-2.255,5.026-5.026,5.026
	c-1.614,0-3.091-0.751-4.052-2.063l-0.674-0.919l-0.674,0.919c-0.961,1.311-2.438,2.063-4.052,2.063
	C4.659,13.939,2.404,11.684,2.404,8.913z"/>
<g>
</g>
<g>
</g>
<g>
</g>
<g>
</g>
<g>
</g>
<g>
</g>
<g>
</g>
<g>
</g>
<g>
</g>
<g>
</g>
<g>
</g>
<g>
</g>
<g>
</g>
<g>
</g>
<g>
</g>
</svg>
