<?xml version="1.0" encoding="iso-8859-1"?>
<!-- Generator: Adobe Illustrator 16.0.0, SVG Export Plug-In . SVG Version: 6.00 Build 0)  -->
<!DOCTYPE svg PUBLIC "-//W3C//DTD SVG 1.1//EN" "http://www.w3.org/Graphics/SVG/1.1/DTD/svg11.dtd">
<svg version="1.1" id="Layer_1" xmlns="http://www.w3.org/2000/svg" xmlns:xlink="http://www.w3.org/1999/xlink" x="0px" y="0px"
	 width="25.313px" height="49.701px" viewBox="0 0 25.313 49.701" style="enable-background:new 0 0 25.313 49.701;"
	 xml:space="preserve">
<path d="M21.901,8.358C21.54,3.69,17.635,0,12.875,0c-4.713,0-8.593,3.617-9.02,8.221C1.647,8.739,0,10.71,0,13.076v1.125
	c0,2.762,2.238,5,5,5h2.75v3.25h2.5v6.625l1.438,1.25l-2.063,1.375v6.813l1.984,1.306l-1.984,1.507l1.938,2.063l-1.938,1.188v1.813
	l3.25,3.313l1.5-1.25v-26h0.75v25.504H16.5V22.451H18v-3.25h2.313c2.762,0,5-2.238,5-5v-1.125
	C25.313,10.874,23.879,9.025,21.901,8.358z M12.875,3c3.006,0,5.502,2.202,5.975,5.076H6.9C7.373,5.202,9.869,3,12.875,3z"/>
<g>
</g>
<g>
</g>
<g>
</g>
<g>
</g>
<g>
</g>
<g>
</g>
<g>
</g>
<g>
</g>
<g>
</g>
<g>
</g>
<g>
</g>
<g>
</g>
<g>
</g>
<g>
</g>
<g>
</g>
</svg>
