<?xml version="1.0" encoding="utf-8"?>
<!-- Generator: Adobe Illustrator 16.0.4, SVG Export Plug-In . SVG Version: 6.00 Build 0)  -->
<!DOCTYPE svg PUBLIC "-//W3C//DTD SVG 1.1//EN" "http://www.w3.org/Graphics/SVG/1.1/DTD/svg11.dtd">
<svg version="1.1" id="Layer_1" xmlns="http://www.w3.org/2000/svg" xmlns:xlink="http://www.w3.org/1999/xlink" x="0px" y="0px"
	 width="41.311px" height="42.508px" viewBox="0 0 41.311 42.508" enable-background="new 0 0 41.311 42.508" xml:space="preserve">
<path d="M33.934,9.283c-4.062-0.409-7.679,2.722-8.854,7.221l-15.047-0.643c-0.396-2.837-2.396-4.875-4.975-4.875
	C1.971,10.986,0,15.523,0,18.647c0,2.33,1.016,4.418,2.634,5.508l-1.218,9.105l8.354-1.911l-1.61-8.293
	c0.511-0.518,0.9-1.229,1.199-2.009l15.521,0.661c0.742,4.02,3.553,7.137,7.177,7.479c0.221,0.022,0.44,0.032,0.66,0.032
	c4.37,0,8.042-3.957,8.538-9.207C41.774,14.523,38.489,9.711,33.934,9.283z M5.059,12.747c1.604,0,2.823,1.229,3.183,3.038
	l-5.848-0.249C3.038,13.948,4.077,12.747,5.059,12.747z M7.721,30.014l-4.226,0.966l1.045-7.8L3.971,22.9
	c-0.797-0.391-1.403-1.188-1.787-2.158l5.282,0.226C7.233,21.437,6.973,21.81,6.7,22l-0.474,0.326L7.721,30.014z M37.755,19.682
	c-0.335,3.522-2.745,6.255-5.366,6.004c-2.624-0.249-4.486-3.344-4.153-6.898c0.32-3.373,2.533-6.019,5.038-6.019
	c0.11,0,0.223,0.005,0.33,0.017C36.228,13.032,38.089,16.127,37.755,19.682z"/>
</svg>
