<?xml version="1.0" encoding="iso-8859-1"?>
<!-- Generator: Adobe Illustrator 16.0.0, SVG Export Plug-In . SVG Version: 6.00 Build 0)  -->
<!DOCTYPE svg PUBLIC "-//W3C//DTD SVG 1.1//EN" "http://www.w3.org/Graphics/SVG/1.1/DTD/svg11.dtd">
<svg version="1.1" id="Layer_1" xmlns="http://www.w3.org/2000/svg" xmlns:xlink="http://www.w3.org/1999/xlink" x="0px" y="0px"
	 width="28.555px" height="48.995px" viewBox="0 0 28.555 48.995" style="enable-background:new 0 0 28.555 48.995;"
	 xml:space="preserve">
<g>
	<path d="M21.652,22.742h0.976h2.991v-3.37h2.935L28.555,3.37h-2.936V0H6.902H5.926h-2.99v3.37H0.001L0,19.372h2.936v3.37h10.749
		v0.619h-1.85v1.111h1.85v0.582h-1.438v1.111h1.438v19.244v2.813v0.773h12.827v-3.587h-9.896v-2.232h6.76v-3.587h-6.76v-2.215h3.238
		v-3.587h-3.238v-7.623h1.285v-1.111h-1.285v-0.582h2.222v-1.111h-2.222v-0.619H21.652z M4.026,21.633v-3.37H1.092V4.479h2.935
		v-3.37h1.899h0.977h17.626v3.37h2.935v13.785h-2.935v3.37h-1.9h-0.976h-5.036v-0.577h5.036h0.976h1.525v-3.37h2.934V5.056h-2.934
		v-3.37H6.902H5.926H4.401v3.37H1.468v12.631h2.934v3.37h9.283v0.577H4.026z M4.025,14.893V7.849h2.936v-3.37h14.633v3.37h2.936
		v7.044h-2.936v3.371H6.961v-3.371H4.025z M22.141,19.372l0.546-0.066v-3.304h2.389l0.545-0.066l-0.001-8.641L25.563,6.74h-2.877
		V3.925L22.628,3.37H6.414L5.868,3.436V6.74H3.479L2.934,6.806l0.002,8.641l0.056,0.554h2.877v2.816l0.058,0.555h7.759v0.576
		l-8.19-0.001v-3.369H2.559V6.165h2.935V2.794h0.433l17.135,0v3.37h2.936v10.413h-2.935v3.371h-0.434h-6.012v-0.576H22.141z"/>
	<rect x="4.953" y="8.732" width="1.948" height="5.497"/>
	<rect x="21.653" y="8.623" width="1.948" height="5.497"/>
	<rect x="7.858" y="15.064" width="12.856" height="2.609"/>
	<rect x="7.858" y="4.939" width="12.856" height="2.609"/>
</g>
<g>
</g>
<g>
</g>
<g>
</g>
<g>
</g>
<g>
</g>
<g>
</g>
<g>
</g>
<g>
</g>
<g>
</g>
<g>
</g>
<g>
</g>
<g>
</g>
<g>
</g>
<g>
</g>
<g>
</g>
</svg>
