<?xml version="1.0" encoding="iso-8859-1"?>
<!-- Generator: Adobe Illustrator 16.0.0, SVG Export Plug-In . SVG Version: 6.00 Build 0)  -->
<!DOCTYPE svg PUBLIC "-//W3C//DTD SVG 1.1//EN" "http://www.w3.org/Graphics/SVG/1.1/DTD/svg11.dtd">
<svg version="1.1" id="Layer_1" xmlns="http://www.w3.org/2000/svg" xmlns:xlink="http://www.w3.org/1999/xlink" x="0px" y="0px"
	 width="24.365px" height="49.973px" viewBox="0 0 24.365 49.973" style="enable-background:new 0 0 24.365 49.973;"
	 xml:space="preserve">
<g>
	<path d="M9.864,17.304l1.01-1.362l-1.41-2.008c-0.733-1.008-1.446-1.979-2.126-2.766c-1.406,1.212-2.3,3.003-2.3,5.006
		c0,1.809,0.728,3.445,1.904,4.639c0.764-0.785,1.583-1.816,2.424-2.881L9.864,17.304z"/>
	<path d="M10.989,12.945l1.194,1.704l1.25-1.783c0.592-0.813,1.161-1.593,1.724-2.293c-1.018-0.638-2.216-1.013-3.506-1.013
		c-0.991,0-1.928,0.225-2.772,0.615c0.671,0.794,1.345,1.718,2.052,2.69L10.989,12.945z"/>
	<path d="M16.55,11.742c-0.536,0.666-1.086,1.418-1.649,2.191l-1.409,2.008l1.507,1.99c0.643,0.813,1.272,1.608,1.875,2.289
		c0.868-1.119,1.391-2.521,1.391-4.047C18.264,14.466,17.612,12.916,16.55,11.742z"/>
	<path d="M13.082,18.433l-0.905-1.22l-1.387,1.844c-0.832,1.053-1.619,2.046-2.399,2.865c0.58,0.329,1.219,0.563,1.89,0.706
		c-0.535,0.505-0.875,1.216-0.875,2.01c0,1.129,0.676,2.096,1.644,2.53v15.265H7.77v2.542h3.279v1.129H8.493v2.542h2.556v1.327
		h2.268v-1.327h2.556v-2.542h-2.556v-1.129h3.279v-2.542h-3.279V27.168c0.968-0.435,1.644-1.401,1.644-2.53
		c0-0.917-0.45-1.722-1.136-2.227c0.632-0.222,1.222-0.532,1.75-0.923c-0.65-0.727-1.309-1.559-1.999-2.432L13.082,18.433z"/>
	<path d="M22.839,15.769c0.907-0.904,1.417-2.148,1.392-3.452c-0.05-2.573-2.186-4.667-4.76-4.667L19.378,7.65
		c-1.542,0.03-2.864,1.238-4.22,2.923c0.221,0.139,0.429,0.297,0.631,0.46l-3.179,4.225l-0.426-0.608l-0.441,0.628l-3.554-4.723
		c0.223-0.137,0.451-0.268,0.691-0.379C7.636,8.702,6.404,7.678,4.987,7.65L4.894,7.649c-2.574,0-4.709,2.094-4.76,4.667
		c-0.025,1.304,0.485,2.548,1.392,3.452c-0.942,0.868-1.5,2.092-1.525,3.396c-0.024,1.27,0.448,2.475,1.331,3.393
		c0.882,0.917,2.068,1.436,3.337,1.46l0.058,0.001c0,0,0,0,0,0c1.294,0,2.471-0.843,3.664-2.096
		c-0.233-0.133-0.453-0.284-0.667-0.442l4.066-4.789l0.388,0.522l0.406-0.54l3.627,4.271l0.074-0.063
		c-0.222,0.219-0.458,0.422-0.709,0.607c1.332,1.488,2.625,2.529,4.064,2.529l0.058-0.001c1.27-0.024,2.455-0.543,3.337-1.46
		c0.882-0.918,1.355-2.123,1.331-3.392C24.339,17.86,23.781,16.638,22.839,15.769z M7.542,21.342c-0.209-0.166-0.413-0.34-0.6-0.529
		c-0.813,0.834-1.565,1.391-2.216,1.391v0.907l-0.022-0.907c-0.786-0.016-1.519-0.337-2.065-0.904
		c-0.546-0.569-0.839-1.314-0.824-2.1c0.019-0.966,0.51-1.859,1.315-2.39l1.489-0.979L3.17,14.791
		c-0.784-0.562-1.24-1.474-1.222-2.439C1.979,10.759,3.3,9.465,4.951,9.465h0.001c0.715,0.014,1.523,0.706,2.386,1.703
		c0.234-0.202,0.484-0.388,0.746-0.555l-0.087,0.065l3.608,4.794l-0.35,0.499l0.394,0.532L7.542,21.342z M21.727,21.299
		c-0.546,0.567-1.28,0.889-2.065,0.904l-0.022,0.907v-0.907c-0.796,0-1.741-0.824-2.766-1.982c-0.155,0.199-0.327,0.383-0.503,0.563
		l-3.648-4.296l0.387-0.516l-0.363-0.519l3.217-4.275c0.206,0.177,0.404,0.363,0.586,0.564c1.048-1.303,2.037-2.262,2.921-2.279
		c1.593,0,2.915,1.296,2.946,2.888c0.019,0.967-0.438,1.879-1.222,2.44l-1.449,1.039l1.488,0.979
		c0.805,0.531,1.297,1.425,1.315,2.392C22.566,19.984,22.273,20.729,21.727,21.299z"/>
	<path d="M7.957,6.539c0.283,0,0.541-0.069,0.748-0.182c0.202,0.546,0.519,1.035,0.944,1.418H8.931v1.193h6.008V7.775h-0.604
		c0.421-0.379,0.737-0.862,0.938-1.401c0.203,0.103,0.45,0.165,0.72,0.165c0.678,0,1.228-0.382,1.228-0.855
		c0-0.473-0.55-0.855-1.228-0.855c-0.183,0-0.355,0.029-0.511,0.079c-0.113-1.494-1.148-2.716-2.545-3.107
		C13,1.628,13.039,1.436,13.039,1.229C13.039,0.55,12.656,0,12.183,0s-0.856,0.55-0.856,1.229c0,0.173,0.025,0.337,0.07,0.486
		C9.822,1.984,8.617,3.297,8.5,4.92C8.336,4.862,8.153,4.828,7.957,4.828c-0.678,0-1.228,0.383-1.228,0.855
		C6.729,6.157,7.278,6.539,7.957,6.539z"/>
</g>
<g>
</g>
<g>
</g>
<g>
</g>
<g>
</g>
<g>
</g>
<g>
</g>
<g>
</g>
<g>
</g>
<g>
</g>
<g>
</g>
<g>
</g>
<g>
</g>
<g>
</g>
<g>
</g>
<g>
</g>
</svg>
