<?xml version="1.0" encoding="iso-8859-1"?>
<!-- Generator: Adobe Illustrator 16.0.0, SVG Export Plug-In . SVG Version: 6.00 Build 0)  -->
<!DOCTYPE svg PUBLIC "-//W3C//DTD SVG 1.1//EN" "http://www.w3.org/Graphics/SVG/1.1/DTD/svg11.dtd">
<svg version="1.1" id="Layer_1" xmlns="http://www.w3.org/2000/svg" xmlns:xlink="http://www.w3.org/1999/xlink" x="0px" y="0px"
	 width="27.978px" height="46.757px" viewBox="0 0 27.978 46.757" style="enable-background:new 0 0 27.978 46.757;"
	 xml:space="preserve">
<polygon points="23.407,41.492 23.407,39.742 16.126,39.742 16.126,38.867 21.595,38.867 21.595,37.117 16.126,37.117 
	16.126,20.828 13.126,20.828 13.126,46.757 15.407,46.757 16.126,46.757 21.595,46.757 21.595,45.007 16.126,45.007 16.126,44.242 
	23.407,44.242 23.407,42.492 16.126,42.492 16.126,41.492 "/>
<g>
	<polygon points="19.033,4.775 24.377,4.775 24.377,1.782 26.235,1.782 26.235,5.29 19.033,5.29 19.033,11.543 24.377,11.543 
		24.377,9.288 26.235,9.287 26.235,12.022 19.022,12.022 19.022,13.764 19.025,13.764 19.025,20.938 16.29,20.938 16.29,19.08 
		18.547,19.08 18.547,13.736 12.293,13.736 12.293,20.938 9.523,20.938 9.523,19.08 11.778,19.08 11.778,13.736 7.767,13.778 
		7.767,15.52 10.036,15.479 10.036,17.337 7.781,17.337 7.781,22.681 14.035,22.681 14.035,15.479 16.805,15.479 16.805,17.337 
		14.549,17.337 14.549,22.681 20.767,22.681 20.768,13.764 27.978,13.764 27.978,7.545 22.635,7.545 22.635,9.802 20.775,9.802 
		20.775,7.031 27.978,7.031 27.978,0.04 22.635,0.04 22.635,3.033 20.775,3.033 20.775,0.04 19.033,0.04 	"/>
	<rect x="12.999" y="0.026" width="5.344" height="0.014"/>
	<polygon points="9.398,4.023 14.741,4.023 14.74,1.768 16.601,1.768 16.601,4.538 9.398,4.538 9.398,10.792 14.74,10.792 
		14.741,8.536 16.601,8.535 16.601,11.27 9.388,11.27 9.388,13.012 18.343,13.012 18.343,6.793 12.999,6.793 12.999,9.05 
		11.141,9.05 11.141,6.28 18.343,6.28 18.343,0.04 12.999,0.04 13,2.281 11.141,2.281 11.141,0.04 9.398,0.04 	"/>
	<rect x="3.612" width="5.343" height="0.04"/>
	<polygon points="0.011,3.997 5.354,3.997 5.354,1.742 7.214,1.742 7.214,4.512 0.011,4.512 0.011,10.766 5.354,10.766 5.354,8.51 
		7.214,8.509 7.214,11.244 0,11.244 0,12.986 8.955,12.986 8.955,6.767 3.612,6.767 3.612,9.023 1.753,9.023 1.753,6.253 
		8.955,6.253 8.955,0.04 3.612,0.04 3.612,2.255 1.753,2.255 1.753,0.04 0.011,0.04 	"/>
</g>
<rect x="11.807" y="23.495" width="5.46" height="1.418"/>
<rect x="11.807" y="25.703" width="5.46" height="1.418"/>
<g>
</g>
<g>
</g>
<g>
</g>
<g>
</g>
<g>
</g>
<g>
</g>
<g>
</g>
<g>
</g>
<g>
</g>
<g>
</g>
<g>
</g>
<g>
</g>
<g>
</g>
<g>
</g>
<g>
</g>
</svg>
