<?xml version="1.0" encoding="iso-8859-1"?>
<!-- Generator: Adobe Illustrator 16.0.0, SVG Export Plug-In . SVG Version: 6.00 Build 0)  -->
<!DOCTYPE svg PUBLIC "-//W3C//DTD SVG 1.1//EN" "http://www.w3.org/Graphics/SVG/1.1/DTD/svg11.dtd">
<svg version="1.1" id="Layer_1" xmlns="http://www.w3.org/2000/svg" xmlns:xlink="http://www.w3.org/1999/xlink" x="0px" y="0px"
	 width="26.493px" height="49.393px" viewBox="0 0 26.493 49.393" style="enable-background:new 0 0 26.493 49.393;"
	 xml:space="preserve">
<path d="M26.493,40.125v-5.267h-6.204v2.574h-3.581v-2.574h-2.107v-8.541h0.96v-1.633h-0.96v-0.765
	c0.532-0.336,0.942-0.837,1.167-1.434c0.967,0.756,2.097,1.302,3.347,1.302c3.876,0,6.604-5.224,6.903-5.82l0.089-0.177
	l-0.082-0.177c-0.386-0.834-2.109-4.3-4.706-5.704c2.676-1.366,4.462-4.775,4.699-5.25l0.089-0.177l-0.082-0.178
	C25.538,5.252,22.926,0,19.114,0c-2.778,0-4.915,2.79-6.06,4.711C11.909,2.79,9.772,0,6.991,0C3.181,0,0.567,5.252,0.082,6.304
	L0,6.482l0.089,0.177c0.237,0.475,2.023,3.883,4.699,5.25c-2.597,1.404-4.32,4.87-4.706,5.704L0,17.79l0.089,0.177
	c0.299,0.596,3.026,5.82,6.902,5.82c1.251,0,2.38-0.545,3.349-1.301c0.224,0.597,0.635,1.097,1.167,1.433v0.765h-1.018v1.633h1.018
	v6.717v15.544v0.814h3.094v-0.814h2.107v-2.155h3.581v2.155h6.204v-4.875h-2.081v-3.579H26.493z M24.246,17.776
	c-1.085,2.068-3.318,4.84-5.132,4.84c-1.083,0-2.317-0.995-3.366-2.235c-0.192-0.476-0.51-0.881-0.906-1.193
	c-0.083-0.121-0.164-0.242-0.241-0.362v-0.137h-0.087c-0.195-0.312-0.374-0.62-0.528-0.913c1.086-2.259,3.325-5.297,5.129-5.297
	C20.921,12.479,23.16,15.517,24.246,17.776z M19.114,1.171c1.807,0,4.046,3.038,5.132,5.296c-1.085,2.068-3.318,4.841-5.132,4.841
	c-1.811,0-4.044-2.773-5.129-4.841C15.068,4.208,17.307,1.171,19.114,1.171z M13.196,9.831c1.281,0,2.321,0.893,2.321,1.993
	c0,1.101-1.04,1.993-2.321,1.993c-1.28,0-2.32-0.892-2.32-1.993C10.876,10.724,11.916,9.831,13.196,9.831z M1.86,6.467
	c1.086-2.259,3.325-5.296,5.131-5.296c1.807,0,4.047,3.038,5.132,5.296c-1.084,2.068-3.318,4.841-5.132,4.841
	C5.18,11.308,2.945,8.536,1.86,6.467z M6.991,22.616c-1.812,0-4.046-2.772-5.131-4.841c1.084-2.259,3.322-5.297,5.131-5.297
	c1.807,0,4.047,3.038,5.132,5.297c-0.154,0.293-0.332,0.601-0.527,0.913h-0.089v0.139c-0.077,0.119-0.155,0.237-0.236,0.356
	c-0.4,0.313-0.721,0.722-0.913,1.202C9.308,21.624,8.075,22.616,6.991,22.616z"/>
<g>
</g>
<g>
</g>
<g>
</g>
<g>
</g>
<g>
</g>
<g>
</g>
<g>
</g>
<g>
</g>
<g>
</g>
<g>
</g>
<g>
</g>
<g>
</g>
<g>
</g>
<g>
</g>
<g>
</g>
</svg>
