<?xml version="1.0" encoding="iso-8859-1"?>
<!-- Generator: Adobe Illustrator 16.0.0, SVG Export Plug-In . SVG Version: 6.00 Build 0)  -->
<!DOCTYPE svg PUBLIC "-//W3C//DTD SVG 1.1//EN" "http://www.w3.org/Graphics/SVG/1.1/DTD/svg11.dtd">
<svg version="1.1" id="Layer_1" xmlns="http://www.w3.org/2000/svg" xmlns:xlink="http://www.w3.org/1999/xlink" x="0px" y="0px"
	 width="30.966px" height="49.86px" viewBox="0 0 30.966 49.86" style="enable-background:new 0 0 30.966 49.86;"
	 xml:space="preserve">
<path d="M30.966,11.474C30.966,5.137,24.034,0,15.482,0C6.932,0,0,5.137,0,11.474c0,5.182,4.636,9.556,11,10.98v2.476h1.396v22.486
	l2.025,1.327V24.93h0.698v24.232l0.804,0.698l3.736-3.701v-1.467l-1.118-0.419l1.118-0.838v-0.769l-2.444-1.955l2.095-2.234
	L18.542,37.5l0.769-0.629v-1.048l-1.467-1.605l0.698-1.536l-1.326-1.188v-1.536l2.095-1.955V24.93h1.536v-2.704
	C26.751,20.607,30.966,16.411,30.966,11.474z M15.483,2.663c2.078,0,3.763,1.59,3.763,3.552s-1.685,3.552-3.763,3.552
	s-3.763-1.59-3.763-3.552S13.405,2.663,15.483,2.663z"/>
<g>
</g>
<g>
</g>
<g>
</g>
<g>
</g>
<g>
</g>
<g>
</g>
<g>
</g>
<g>
</g>
<g>
</g>
<g>
</g>
<g>
</g>
<g>
</g>
<g>
</g>
<g>
</g>
<g>
</g>
</svg>
