<?xml version="1.0" encoding="iso-8859-1"?>
<!-- Generator: Adobe Illustrator 16.0.0, SVG Export Plug-In . SVG Version: 6.00 Build 0)  -->
<!DOCTYPE svg PUBLIC "-//W3C//DTD SVG 1.1//EN" "http://www.w3.org/Graphics/SVG/1.1/DTD/svg11.dtd">
<svg version="1.1" id="Layer_1" xmlns="http://www.w3.org/2000/svg" xmlns:xlink="http://www.w3.org/1999/xlink" x="0px" y="0px"
	 width="23.642px" height="48.59px" viewBox="0 0 23.642 48.59" style="enable-background:new 0 0 23.642 48.59;"
	 xml:space="preserve">
<g>
	<path d="M16.988,11.82c0-2.85-2.318-5.168-5.168-5.168c-2.849,0-5.167,2.318-5.167,5.168s2.318,5.168,5.167,5.168
		C14.67,16.988,16.988,14.67,16.988,11.82z M11.82,15.088c-1.801,0-3.267-1.466-3.267-3.268c0-1.801,1.466-3.267,3.267-3.267
		c1.802,0,3.268,1.466,3.268,3.267C15.088,13.622,13.622,15.088,11.82,15.088z"/>
	<path d="M15.207,23.139c5.003-1.488,8.435-6.039,8.435-11.318C23.642,5.303,18.339,0,11.82,0C5.303,0,0,5.303,0,11.82
		c0,5.009,3.216,9.491,7.905,11.144V48.59h7.302V45.9h8.078v-6.857h-8.078V37.94h8.078v-6.857h-8.078V23.139z M21.385,32.984v3.055
		h-8.079v4.904h8.079v3.056h-8.079v2.69h-3.5V21.552l-0.69-0.196C4.867,20.146,1.9,16.227,1.9,11.82c0-5.469,4.451-9.92,9.92-9.92
		c5.47,0,9.921,4.451,9.921,9.92c0,4.57-3.237,8.633-7.698,9.659l-0.737,0.17v11.335H21.385z"/>
</g>
<g>
</g>
<g>
</g>
<g>
</g>
<g>
</g>
<g>
</g>
<g>
</g>
<g>
</g>
<g>
</g>
<g>
</g>
<g>
</g>
<g>
</g>
<g>
</g>
<g>
</g>
<g>
</g>
<g>
</g>
</svg>
