<?xml version="1.0" encoding="iso-8859-1"?>
<!-- Generator: Adobe Illustrator 16.0.0, SVG Export Plug-In . SVG Version: 6.00 Build 0)  -->
<!DOCTYPE svg PUBLIC "-//W3C//DTD SVG 1.1//EN" "http://www.w3.org/Graphics/SVG/1.1/DTD/svg11.dtd">
<svg version="1.1" id="Layer_1" xmlns="http://www.w3.org/2000/svg" xmlns:xlink="http://www.w3.org/1999/xlink" x="0px" y="0px"
	 width="25.197px" height="50.297px" viewBox="0 0 25.197 50.297" style="enable-background:new 0 0 25.197 50.297;"
	 xml:space="preserve">
<g>
	<path d="M25.197,12.815c0-4.007-3.26-7.267-7.268-7.267c-0.262,0-0.521,0.016-0.779,0.044c0.187-0.665,0.146-1.298-0.694-1.298
		c-0.509,0-1.196,0-1.963,0c-0.009-0.085-0.021-0.166-0.039-0.238c-0.308-1.254-0.635-2.603-0.832-3.417
		c-0.199-0.814-1.803-0.887-2.084,0c-0.281,0.887-0.682,2.772-0.833,3.46c-0.011,0.05-0.015,0.118-0.015,0.195
		c-0.743,0-1.431,0-1.978,0c-0.96,0-1.01,0.627-0.799,1.288C7.699,5.563,7.483,5.548,7.267,5.548C3.26,5.548,0,8.808,0,12.815
		s3.26,7.267,7.267,7.267c0.795,0,1.573-0.136,2.312-0.387c-0.197,1.112-0.309,2.506,0.388,2.506c0.298,0,0.691,0,1.132,0v0.694
		H10.39c-0.494,0-0.896,0.401-0.896,0.896c0,0.495,0.401,0.896,0.896,0.896h0.708v14.408H7.09v-1.366H3.097v1.366v3.67v0.005H7.09
		v-0.005h2.846c-0.234,0.416-0.379,0.889-0.379,1.401c0,0.387,0.079,0.755,0.218,1.092H7.09v-0.002H3.097v0.002v3.67v1.369H7.09
		v-1.369h4.008v1.246h0.001h2.999h0.001v-1.246h4.008v1.369H22.1v-1.369v-3.67v-0.002h-3.993v0.002h-3.018
		c0.139-0.337,0.218-0.705,0.218-1.092c0-0.512-0.145-0.985-0.379-1.401h3.179v0.005H22.1v-0.005v-3.67v-1.366h-3.993v1.366h-4.008
		V24.687h0.542c0.494,0,0.896-0.401,0.896-0.896c0-0.495-0.401-0.896-0.896-0.896h-0.542v-0.694c0.336,0,0.652,0,0.913,0
		c0.766,0,0.646-1.398,0.409-2.581c0.797,0.296,1.643,0.461,2.509,0.461C21.938,20.082,25.197,16.822,25.197,12.815z M14.099,17.268
		v-0.087h-0.001h-0.09c-0.312-0.28-0.6-0.589-0.849-0.935l-0.562-0.779l-0.561,0.779c-0.249,0.346-0.537,0.655-0.849,0.935h-0.09
		h-0.001v0.088c-1.058,0.91-2.417,1.429-3.831,1.429c-3.244,0-5.883-2.639-5.883-5.883s2.639-5.883,5.883-5.883
		c1.881,0,3.664,0.917,4.771,2.451l0.561,0.779l0.562-0.779c1.107-1.535,2.891-2.451,4.771-2.451c3.245,0,5.884,2.639,5.884,5.883
		s-2.639,5.883-5.884,5.883C16.516,18.698,15.157,18.178,14.099,17.268z"/>
	<circle cx="18.152" cy="12.758" r="3.72"/>
	<circle cx="7.089" cy="12.758" r="3.72"/>
</g>
<g>
</g>
<g>
</g>
<g>
</g>
<g>
</g>
<g>
</g>
<g>
</g>
<g>
</g>
<g>
</g>
<g>
</g>
<g>
</g>
<g>
</g>
<g>
</g>
<g>
</g>
<g>
</g>
<g>
</g>
</svg>
