<?xml version="1.0" encoding="iso-8859-1"?>
<!-- Generator: Adobe Illustrator 16.0.0, SVG Export Plug-In . SVG Version: 6.00 Build 0)  -->
<!DOCTYPE svg PUBLIC "-//W3C//DTD SVG 1.1//EN" "http://www.w3.org/Graphics/SVG/1.1/DTD/svg11.dtd">
<svg version="1.1" id="Layer_1" xmlns="http://www.w3.org/2000/svg" xmlns:xlink="http://www.w3.org/1999/xlink" x="0px" y="0px"
	 width="18.378px" height="48.345px" viewBox="0 0 18.378 48.345" style="enable-background:new 0 0 18.378 48.345;"
	 xml:space="preserve">
<path d="M10.815,22.261c4.352-0.782,7.634-4.62,7.562-9.18c-0.069-4.315-3.168-7.93-7.231-8.824V1.628
	C11.146,0.729,10.269,0,9.189,0C8.108,0,7.232,0.729,7.232,1.628V4.25C3.046,5.163-0.07,8.93,0.001,13.375
	c0.072,4.431,3.336,8.121,7.562,8.888v17.913H0.84v3.252h6.723v4.917h3.252v-4.917h6.723v-3.252h-6.723V22.261z M2.287,13.338
	C2.226,9.532,5.273,6.387,9.079,6.326l0.112-0.001c3.745,0,6.84,3.047,6.899,6.792c0.062,3.807-2.986,6.953-6.792,7.013
	l-0.112,0.001C5.442,20.131,2.347,17.084,2.287,13.338z"/>
<g>
</g>
<g>
</g>
<g>
</g>
<g>
</g>
<g>
</g>
<g>
</g>
<g>
</g>
<g>
</g>
<g>
</g>
<g>
</g>
<g>
</g>
<g>
</g>
<g>
</g>
<g>
</g>
<g>
</g>
</svg>
