<?xml version="1.0" encoding="iso-8859-1"?>
<!-- Generator: Adobe Illustrator 16.0.0, SVG Export Plug-In . SVG Version: 6.00 Build 0)  -->
<!DOCTYPE svg PUBLIC "-//W3C//DTD SVG 1.1//EN" "http://www.w3.org/Graphics/SVG/1.1/DTD/svg11.dtd">
<svg version="1.1" id="Layer_1" xmlns="http://www.w3.org/2000/svg" xmlns:xlink="http://www.w3.org/1999/xlink" x="0px" y="0px"
	 width="24.084px" height="49.771px" viewBox="0 0 24.084 49.771" style="enable-background:new 0 0 24.084 49.771;"
	 xml:space="preserve">
<path d="M12.041,0C5.391,0,0,5.392,0,12.042c0,4.766,2.775,8.872,6.791,10.824v2.822h2.167v0.042l-2.188,2.401l2.188,1.641v0.572
	L6.666,32.82l2.292,1.737v0.473l-2.292,1.978l2.292,1.916v0.791l-2.083,2.146l2.083,2.813v1.229l-2.292,1l2.292,2.868h1.188h0.896
	V25.688h1.209v24.083h3.625V25.688h1.416v-2.822c4.017-1.952,6.793-6.059,6.793-10.824C24.084,5.392,18.691,0,12.041,0z
	 M12.041,9.667c-1.795,0-3.25-1.455-3.25-3.25s1.455-3.25,3.25-3.25s3.25,1.455,3.25,3.25S13.836,9.667,12.041,9.667z"/>
<g>
</g>
<g>
</g>
<g>
</g>
<g>
</g>
<g>
</g>
<g>
</g>
<g>
</g>
<g>
</g>
<g>
</g>
<g>
</g>
<g>
</g>
<g>
</g>
<g>
</g>
<g>
</g>
<g>
</g>
</svg>
