<?xml version="1.0" encoding="iso-8859-1"?>
<!-- Generator: Adobe Illustrator 16.0.0, SVG Export Plug-In . SVG Version: 6.00 Build 0)  -->
<!DOCTYPE svg PUBLIC "-//W3C//DTD SVG 1.1//EN" "http://www.w3.org/Graphics/SVG/1.1/DTD/svg11.dtd">
<svg version="1.1" id="Layer_1" xmlns="http://www.w3.org/2000/svg" xmlns:xlink="http://www.w3.org/1999/xlink" x="0px" y="0px"
	 width="25.286px" height="44.895px" viewBox="0 0 25.286 44.895" style="enable-background:new 0 0 25.286 44.895;"
	 xml:space="preserve">
<g>
	<path d="M18.659,10.345c-0.262,0-0.52,0.02-0.773,0.049c0.743-1.071,1.181-2.368,1.181-3.767C19.066,2.973,16.093,0,12.439,0
		C8.785,0,5.812,2.973,5.812,6.627c0,1.385,0.429,2.671,1.158,3.735c-0.114-0.006-0.227-0.018-0.342-0.018
		C2.973,10.345,0,13.318,0,16.973S2.973,23.6,6.627,23.6c2.015,0,3.817-0.908,5.032-2.332v21.674h0.029v1.953h0.562h1.593h3.654
		v-1.814h-3.654v-1.55h3.279v-1.815h-3.279v-2.193h3.466v-1.814h-3.466H13.66V21.31c1.214,1.401,3.003,2.291,4.999,2.291
		c3.654,0,6.627-2.973,6.627-6.627S22.313,10.345,18.659,10.345z M12.439,1.631c2.755,0,4.996,2.241,4.996,4.996
		c0,1.453-0.627,2.76-1.622,3.674c0.015-0.084,0.024-0.17,0.024-0.259c0-0.938-0.761-1.699-1.699-1.699
		c-0.677,0-1.256,0.398-1.53,0.971c-0.273-0.573-0.853-0.971-1.529-0.971c-0.939,0-1.7,0.761-1.7,1.699
		c0,0.194,0.04,0.377,0.099,0.551c-0.031-0.009-0.064-0.015-0.097-0.023C8.205,9.656,7.443,8.23,7.443,6.627
		C7.443,3.873,9.684,1.631,12.439,1.631z M6.627,21.969c-2.755,0-4.996-2.241-4.996-4.996s2.241-4.996,4.996-4.996
		c0.237,0,0.47,0.022,0.698,0.055c-0.007,0.062-0.019,0.123-0.019,0.187c0,0.651,0.37,1.21,0.907,1.495
		c-0.537,0.286-0.907,0.844-0.907,1.496c0,0.938,0.76,1.699,1.699,1.699c0.157,0,0.306-0.028,0.449-0.068
		c-0.044,0.152-0.076,0.31-0.076,0.476c0,0.939,0.761,1.7,1.7,1.7c0.038,0,0.072-0.012,0.11-0.015
		C10.41,20.747,8.66,21.969,6.627,21.969z M12.575,15.526c-0.609,0-1.147-0.305-1.476-0.768c-0.081-0.114-0.149-0.236-0.203-0.367
		c-0.084-0.21-0.134-0.438-0.134-0.678c0-1,0.813-1.813,1.813-1.813c0.999,0,1.813,0.813,1.813,1.813
		C14.388,14.712,13.574,15.526,12.575,15.526z M18.659,21.969c-2.031,0-3.779-1.22-4.56-2.963c0.893-0.051,1.603-0.784,1.603-1.69
		c0-0.193-0.039-0.376-0.099-0.549c0.208,0.09,0.436,0.141,0.676,0.141c0.938,0,1.699-0.761,1.699-1.699
		c0-0.672-0.393-1.247-0.958-1.523c0.51-0.294,0.857-0.837,0.857-1.468c0-0.059-0.012-0.114-0.017-0.171
		c0.26-0.042,0.526-0.07,0.798-0.07c2.755,0,4.996,2.241,4.996,4.996S21.414,21.969,18.659,21.969z"/>
	<path d="M12.643,14.208c0.004-0.009,0.009-0.019,0.014-0.028h-0.027C12.634,14.19,12.639,14.199,12.643,14.208z"/>
</g>
<g>
</g>
<g>
</g>
<g>
</g>
<g>
</g>
<g>
</g>
<g>
</g>
<g>
</g>
<g>
</g>
<g>
</g>
<g>
</g>
<g>
</g>
<g>
</g>
<g>
</g>
<g>
</g>
<g>
</g>
</svg>
