<?xml version="1.0" encoding="iso-8859-1"?>
<!-- Generator: Adobe Illustrator 16.0.0, SVG Export Plug-In . SVG Version: 6.00 Build 0)  -->
<!DOCTYPE svg PUBLIC "-//W3C//DTD SVG 1.1//EN" "http://www.w3.org/Graphics/SVG/1.1/DTD/svg11.dtd">
<svg version="1.1" id="Layer_1" xmlns="http://www.w3.org/2000/svg" xmlns:xlink="http://www.w3.org/1999/xlink" x="0px" y="0px"
	 width="27.072px" height="53.418px" viewBox="0 0 27.072 53.418" style="enable-background:new 0 0 27.072 53.418;"
	 xml:space="preserve">
<path d="M19.977,25.267c3.913,0,7.096-3.183,7.096-7.096c0-3.912-3.183-7.095-7.096-7.095c-0.28,0-0.556,0.021-0.828,0.052
	c0.795-1.146,1.265-2.535,1.265-4.033C20.413,3.183,17.23,0,13.318,0C9.405,0,6.222,3.183,6.222,7.096
	c0,1.482,0.459,2.859,1.24,3.999c-0.123-0.006-0.243-0.019-0.366-0.019C3.183,11.076,0,14.259,0,18.171
	c0,3.913,3.183,7.096,7.096,7.096c1.927,0,3.662-0.786,4.94-2.038v15.05c-1.016,0.52-1.719,1.565-1.719,2.785
	s0.703,2.266,1.719,2.785v2.075H9.5l0-0.959l-3.906,0.017v-0.745H4.541v1.25h4.152v1.49H4.541v1.26h1.053v-0.754L9.5,47.468v-0.7
	h2.536v3.797H11.94H9.5l0-0.85l-3.906,0.017v-0.745H4.541v1.25h4.152v1.49H4.541v1.26h1.053v-0.754L9.5,52.218l0-0.809h2.44h0.096
	v2.009h3v-2.009h2.44l0,0.809l3.907,0.016v0.754h1.053v-1.26h-4.152v-1.49h4.152v-1.25h-1.053v0.745l-3.906-0.017l0,0.85h-2.44
	v-3.797h2.591v0.7l3.907,0.016v0.754h1.053v-1.26h-4.152v-1.49h4.152v-1.25h-1.053v0.745l-3.906-0.017l0,0.959h-2.592v-2.162
	c0.929-0.545,1.56-1.543,1.56-2.699s-0.631-2.153-1.56-2.699V23.229C16.314,24.481,18.05,25.267,19.977,25.267z M13.521,15.182
	h0.029c-0.005,0.01-0.01,0.02-0.015,0.03C13.531,15.202,13.526,15.192,13.521,15.182z M19.977,12.823
	c2.95,0,5.349,2.399,5.349,5.349c0,2.95-2.399,5.349-5.349,5.349c-2.949,0-5.349-2.399-5.349-5.349
	C14.628,15.222,17.027,12.823,19.977,12.823z M13.318,1.747c2.949,0,5.349,2.399,5.349,5.349c0,2.949-2.399,5.349-5.349,5.349
	c-2.95,0-5.349-2.399-5.349-5.349C7.969,4.146,10.368,1.747,13.318,1.747z M7.096,23.521c-2.95,0-5.349-2.399-5.349-5.349
	c0-2.949,2.399-5.349,5.349-5.349c2.949,0,5.349,2.399,5.349,5.349C12.444,21.121,10.045,23.521,7.096,23.521z"/>
<g>
</g>
<g>
</g>
<g>
</g>
<g>
</g>
<g>
</g>
<g>
</g>
<g>
</g>
<g>
</g>
<g>
</g>
<g>
</g>
<g>
</g>
<g>
</g>
<g>
</g>
<g>
</g>
<g>
</g>
</svg>
