<?xml version="1.0" encoding="iso-8859-1"?>
<!-- Generator: Adobe Illustrator 16.0.0, SVG Export Plug-In . SVG Version: 6.00 Build 0)  -->
<!DOCTYPE svg PUBLIC "-//W3C//DTD SVG 1.1//EN" "http://www.w3.org/Graphics/SVG/1.1/DTD/svg11.dtd">
<svg version="1.1" id="Layer_1" xmlns="http://www.w3.org/2000/svg" xmlns:xlink="http://www.w3.org/1999/xlink" x="0px" y="0px"
	 width="35.29px" height="48.597px" viewBox="0 0 35.29 48.597" style="enable-background:new 0 0 35.29 48.597;"
	 xml:space="preserve">
<g>
	<path d="M29.119,0H6.171C2.768,0,0,2.769,0,6.171v36.255c0,3.402,2.768,6.171,6.171,6.171h22.948c3.402,0,6.171-2.769,6.171-6.171
		V6.171C35.29,2.769,32.521,0,29.119,0z M18.159,46.324c-1.059,0-1.918-0.858-1.918-1.918c0-1.061,0.859-1.919,1.918-1.919
		c1.06,0,1.918,0.858,1.918,1.919C20.078,45.466,19.219,46.324,18.159,46.324z M30.662,40.176H4.628V6.171
		c0-0.85,0.692-1.543,1.543-1.543h22.948c0.851,0,1.543,0.693,1.543,1.543V40.176z"/>
	<path d="M17.645,8.539c-4.949,0-8.961,2.973-8.961,6.641c0,3,2.684,5.531,6.367,6.356v1.433h0.809v13.016l1.172,0.769V22.969h0.404
		v14.026l0.465,0.404l2.162-2.143v-0.849l-0.647-0.242l0.647-0.485v-0.444l-1.415-1.132l1.213-1.293l-0.445-0.566l0.445-0.364
		v-0.606l-0.849-0.93l0.404-0.889l-0.768-0.688v-0.889l1.213-1.132v-1.778h0.889v-1.564c3.417-0.937,5.857-3.366,5.857-6.225
		C26.607,11.512,22.595,8.539,17.645,8.539z M17.646,14.191c-1.203,0-2.178-0.92-2.178-2.056c0-1.135,0.975-2.056,2.178-2.056
		c1.203,0,2.178,0.921,2.178,2.056C19.823,13.271,18.848,14.191,17.646,14.191z"/>
</g>
<g>
</g>
<g>
</g>
<g>
</g>
<g>
</g>
<g>
</g>
<g>
</g>
<g>
</g>
<g>
</g>
<g>
</g>
<g>
</g>
<g>
</g>
<g>
</g>
<g>
</g>
<g>
</g>
<g>
</g>
</svg>
