<?xml version="1.0" encoding="iso-8859-1"?>
<!-- Generator: Adobe Illustrator 16.0.0, SVG Export Plug-In . SVG Version: 6.00 Build 0)  -->
<!DOCTYPE svg PUBLIC "-//W3C//DTD SVG 1.1//EN" "http://www.w3.org/Graphics/SVG/1.1/DTD/svg11.dtd">
<svg version="1.1" id="Layer_1" xmlns="http://www.w3.org/2000/svg" xmlns:xlink="http://www.w3.org/1999/xlink" x="0px" y="0px"
	 width="25.133px" height="48.571px" viewBox="0 0 25.133 48.571" style="enable-background:new 0 0 25.133 48.571;"
	 xml:space="preserve">
<g>
	<path d="M21.826,14.037c0.389-0.167,0.441-0.622,0.218-1.011c-0.186-0.342-0.48-0.449-0.762-0.487
		c-0.141-0.018-0.275-0.014-0.404-0.004c-0.136,0.006-0.259,0.023-0.361,0.046l-0.032,0.048c0.374-0.041,1.026,0.102,1.23,0.622
		c0.065,0.171,0.097,0.488-0.095,0.602c-0.186,0.108-0.325-0.091-0.134-0.214C21.211,13.538,21.274,14.235,21.826,14.037z"/>
	<path d="M21.373,10.91c0.008,0.054,0.061,0.298,0.181,0.24c0.063,0.152,0.202,0.192,0.357,0.256
		c0.097,0.041,0.162,0.087,0.219,0.157c-0.018-0.085-0.015-0.158,0.016-0.25c0.053-0.146,0.111-0.275-0.027-0.416
		c0.134-0.052-0.112-0.244-0.182-0.268c0.109-0.068-0.028-0.152-0.208-0.207c-0.211-0.062-0.471-0.09-0.507-0.096l-0.008,0.005
		l-0.008,0.005c0.001,0.009,0.004,0.042,0.008,0.086C21.19,10.597,21.191,10.972,21.373,10.91z M21.289,10.399l0.01-0.006
		c0.011,0.002,0.08,0.014,0.157,0.028c0.135,0.028,0.301,0.084,0.22,0.131c0.038,0.013,0.17,0.101,0.099,0.129
		c0.07,0.065,0.048,0.127,0.034,0.2c-0.009,0.047-0.005,0.082,0.014,0.122c-0.036-0.03-0.075-0.049-0.129-0.065
		c-0.086-0.024-0.163-0.036-0.209-0.111c-0.057,0.036-0.11-0.09-0.112-0.119c-0.11,0.045-0.091-0.206-0.081-0.287
		C21.29,10.411,21.289,10.402,21.289,10.399z"/>
	<path d="M21.145,11.086c0.101,0.176,0.292,0.43,0.479,0.645c0.204,0.214,0.464,0.403,0.82,0.347
		c0.416-0.049,0.669-0.412,0.543-0.849c-0.133-0.313-0.325-0.337-0.444-0.289c-0.125,0.052-0.166,0.183-0.048,0.271
		c-0.052-0.237,0.153-0.26,0.233-0.03c0.045,0.233-0.192,0.417-0.351,0.468c-0.476,0.158-1.006-0.319-1.221-0.614L21.145,11.086z"/>
	<path d="M23.476,11.523l-0.02-0.022C23.469,11.532,23.483,11.558,23.476,11.523z"/>
	<path d="M23.03,12.807c0.381,0.011,1.119-0.266,1.184-0.975c0.058-0.369-0.177-0.771-0.416-0.813
		c-0.24-0.037-0.558,0.219-0.342,0.482c-0.007-0.019-0.015-0.04-0.016-0.05c0.378-0.347,0.337,0.404,0.097,0.668
		c-0.295,0.306-0.832,0.364-1.162,0.272c-0.557-0.154-1.001-0.618-1.25-1.012c0.002,0-0.048,0.039-0.051,0.038
		c0.171,0.272,0.454,0.599,0.787,0.882C22.197,12.579,22.59,12.809,23.03,12.807z"/>
	<path d="M19.829,16.692l0.001-0.031C19.818,16.692,19.813,16.722,19.829,16.692z"/>
	<path d="M18.18,16.506c0.041,0.243,0.058,0.438,0.025,0.603c-0.047,0.237-0.194,0.412-0.518,0.57
		c0.114,0.165,0.35,0.092,0.521-0.005c0.04,0.341,0.008,0.723,0.029,1.06c0.146-0.168,0.268-0.424,0.317-0.678
		c0.031-0.169,0.033-0.337-0.007-0.479c0.157,0.12,0.33,0.231,0.525,0.272C18.669,17.448,18.397,17.069,18.18,16.506z"/>
	<path d="M14.424,18.645l0.012-0.027C14.416,18.641,14.401,18.665,14.424,18.645z"/>
	<path d="M12.807,18.324c-0.119,0.206-0.312,0.323-0.659,0.317c0.054,0.199,0.294,0.25,0.482,0.216c-0.072,0.339-0.22,0.683-0.306,1
		c0.186-0.084,0.376-0.291,0.5-0.508c0.084-0.147,0.14-0.305,0.147-0.453c0.104,0.169,0.228,0.358,0.391,0.48
		c-0.238-0.55-0.365-1.021-0.384-1.631C12.938,17.99,12.889,18.18,12.807,18.324z"/>
	<path d="M8.797,18.303l0.021-0.022C8.791,18.295,8.771,18.313,8.797,18.303z"/>
	<path d="M5.105,14.98l0.174-0.273C5.15,14.802,5.071,14.896,5.105,14.98z"/>
	<path d="M3.653,15.499L3.68,15.49C3.649,15.489,3.623,15.492,3.653,15.499z"/>
	<path d="M1.485,9.319l0.019,0.022C1.492,9.311,1.478,9.285,1.485,9.319z"/>
	<path d="M5.132,4.151l-0.001,0.03C5.141,4.15,5.146,4.122,5.132,4.151z"/>
	<path d="M10.535,2.198l-0.012,0.027C10.546,2.202,10.56,2.178,10.535,2.198z"/>
	<path d="M12.152,2.52c0.119-0.206,0.312-0.324,0.66-0.318c-0.055-0.199-0.294-0.25-0.481-0.216c0.07-0.339,0.219-0.682,0.303-1
		c-0.183,0.084-0.373,0.291-0.498,0.508c-0.085,0.146-0.139,0.304-0.149,0.454c-0.103-0.17-0.225-0.358-0.387-0.481
		c0.235,0.55,0.363,1.021,0.38,1.632C12.022,2.854,12.07,2.663,12.152,2.52z"/>
	<path d="M16.162,2.541l-0.018,0.021C16.168,2.547,16.191,2.53,16.162,2.541z"/>
	<path d="M17.592,3.464c0.176-0.141,0.39-0.156,0.722-0.023c0.014-0.21-0.203-0.337-0.388-0.396c0.173-0.283,0.424-0.54,0.608-0.805
		c-0.207,0.012-0.448,0.109-0.637,0.258c-0.124,0.097-0.227,0.229-0.282,0.364c-0.046-0.198-0.104-0.42-0.221-0.597
		c0.055,0.604,0.028,1.093-0.146,1.672C17.363,3.725,17.471,3.559,17.592,3.464z"/>
	<path d="M21.123,9.592c0.062-0.019,0.883-0.45,0.608-0.528c0.06-0.047,0.244-0.31,0.104-0.319c0.087-0.176,0.016-0.291-0.077-0.417
		c-0.052-0.081-0.075-0.151-0.079-0.241c-0.038,0.086-0.089,0.15-0.171,0.218c-0.135,0.109-0.261,0.188-0.28,0.359
		c-0.131-0.025-0.113,0.239-0.116,0.3c-0.256-0.005,0.018,0.571-0.008,0.624L21.123,9.592z"/>
	<path d="M21.864,7.863c0.167,0.002,0.438,0.103,0.454,0.341c-0.016,0.246-0.22,0.293-0.23,0.047
		c-0.092,0.125-0.015,0.236,0.116,0.245c0.128,0.008,0.305-0.081,0.35-0.421c0.014-0.459-0.319-0.717-0.728-0.647
		c-0.357,0.048-0.568,0.302-0.712,0.574c-0.129,0.271-0.246,0.583-0.291,0.795l0.024,0.05C20.968,8.471,21.362,7.854,21.864,7.863z"
		/>
	<path d="M21.307,5.344l-0.025,0.009C21.31,5.355,21.336,5.352,21.307,5.344z"/>
	<path d="M11.349,7.86c-0.725-0.4-1.61-0.646-2.579-0.646c-2.396,0-4.346,1.451-4.346,3.234c0,1.784,1.949,3.234,4.346,3.234
		c1.042,0,1.987-0.286,2.736-0.742c-0.725-0.724-1.175-1.624-1.175-2.615C10.331,9.404,10.714,8.557,11.349,7.86z"/>
	<path d="M3.229,11.781c-0.06,0.045-0.246,0.31-0.104,0.317c-0.088,0.177-0.018,0.291,0.076,0.417
		c0.054,0.082,0.075,0.152,0.079,0.241c0.039-0.085,0.088-0.149,0.171-0.218c0.134-0.109,0.261-0.188,0.28-0.36
		c0.049,0.009,0.073-0.027,0.089-0.073c-0.119-0.222-0.204-0.458-0.273-0.698C3.314,11.545,3.056,11.73,3.229,11.781z"/>
	<path d="M3.497,11.218c-0.044-0.19-0.063-0.385-0.073-0.583c-0.161-0.072-0.334-0.15-0.48-0.214c-0.139-0.057-0.251-0.077-0.298,0
		c-0.008,0.019-0.015,0.043-0.011,0.074c-0.037-0.02-0.117-0.049-0.206-0.074c-0.128-0.036-0.28-0.06-0.349,0
		c-0.023,0.023-0.032,0.059-0.021,0.109c-0.321-0.051-0.455,0.175-0.639,0.443c-0.112,0.167-0.22,0.271-0.357,0.344
		c0.143,0.029,0.272,0.093,0.428,0.214c0.247,0.196,0.434,0.37,0.73,0.219c0.017,0.277,0.465-0.06,0.56-0.149
		c0.051,0.227,0.299-0.001,0.558-0.239C3.393,11.312,3.445,11.265,3.497,11.218z"/>
	<path d="M3.456,10C3.47,9.905,3.473,9.808,3.492,9.715C3.47,9.691,3.442,9.676,3.407,9.693C3.344,9.542,3.203,9.502,3.049,9.438
		C2.951,9.397,2.887,9.351,2.829,9.28C2.85,9.366,2.845,9.439,2.814,9.531C2.762,9.677,2.701,9.806,2.843,9.947
		C2.708,10,2.954,10.191,3.023,10.215c-0.108,0.068,0.028,0.152,0.209,0.207c0.055,0.016,0.112,0.027,0.168,0.039
		c0-0.004-0.001-0.007-0.001-0.012c0-0.018,0.006-0.035,0.007-0.053c-0.102-0.03-0.184-0.069-0.124-0.105
		c-0.037-0.012-0.169-0.101-0.097-0.128c-0.071-0.065-0.047-0.127-0.034-0.201C3.159,9.915,3.155,9.88,3.139,9.839
		c0.037,0.031,0.073,0.05,0.128,0.065C3.344,9.926,3.409,9.944,3.456,10z"/>
	<path d="M2.418,9.902c0.124-0.051,0.164-0.183,0.046-0.271c0.054,0.237-0.152,0.26-0.232,0.029
		c-0.046-0.233,0.192-0.417,0.35-0.468c0.336-0.112,0.695,0.094,0.954,0.328c0.012-0.038,0.031-0.072,0.043-0.108
		c-0.075-0.101-0.16-0.205-0.241-0.3C3.133,8.898,2.871,8.708,2.518,8.765C2.101,8.813,1.847,9.176,1.974,9.614
		C2.106,9.926,2.297,9.951,2.418,9.902z"/>
	<path d="M21.621,9.48c-0.187,0.174-0.364,0.333-0.472,0.424c0.006,0.048,0.014,0.094,0.018,0.142
		c0.187,0.077,0.566,0.253,0.849,0.375c0.14,0.057,0.253,0.077,0.299,0c0.009-0.019,0.014-0.042,0.012-0.073
		c0.036,0.02,0.117,0.049,0.206,0.073c0.128,0.036,0.279,0.06,0.348,0c0.022-0.023,0.031-0.059,0.021-0.109
		c0.322,0.05,0.453-0.175,0.636-0.443c0.115-0.167,0.222-0.271,0.358-0.344c-0.144-0.028-0.272-0.093-0.426-0.214
		c-0.247-0.197-0.436-0.37-0.73-0.219c-0.019-0.278-0.466,0.06-0.563,0.149C22.127,9.014,21.879,9.242,21.621,9.48z"/>
	<path d="M22.32,37.498h-2.07v2.148h-0.742v1.25h-1.991v-1.25h-0.978v-2.148h-1.601v-0.016h-0.837V23.89h1.089v-0.683h-1.089v-0.384
		h1.089V20.61c5.674-1.003,9.942-5.189,9.942-10.189C25.133,4.675,19.496,0,12.565,0C5.637,0,0,4.675,0,10.421
		c0,5,4.269,9.186,9.941,10.189v2.213h1.088v0.384H9.941v0.683h1.088v24.681h2.55h0.522h2.651v-2.125h0.742v-1.25h1.991v1.25h0.978
		v2.125h3.591v-3.455h-2.046v-0.742h-1.25v-1.991h1.25v-0.977h2.046v-3.924H22.32V37.498z M12.565,20.007
		c-2.244,0-4.332-0.524-6.12-1.409c0.203-0.017,0.436-0.108,0.615-0.253c0.127-0.098,0.229-0.228,0.284-0.364
		c0.046,0.198,0.104,0.42,0.222,0.597c-0.057-0.605-0.029-1.093,0.145-1.672c-0.116,0.213-0.222,0.378-0.343,0.473
		c-0.176,0.14-0.388,0.156-0.722,0.024c-0.015,0.209,0.203,0.336,0.388,0.395c-0.17,0.279-0.417,0.534-0.602,0.795
		c-1.314-0.652-2.45-1.506-3.361-2.508c0.243,0.176,0.604,0.168,0.761-0.03c0.154-0.198,0.169-0.668-0.152-0.565
		c0.018,0,0.038,0.003,0.045,0.007C3.788,16,3.25,15.655,3.184,15.298c-0.077-0.432,0.098-0.973,0.32-1.273
		c0.303-0.415,0.749-0.65,1.158-0.742c0.056,0.062,0.112,0.123,0.171,0.183c-0.146,0.015-0.302,0.042-0.457,0.1
		c-0.271,0.103-0.536,0.286-0.648,0.664c-0.062,0.211-0.069,0.429-0.009,0.608c0.067,0.167,0.205,0.292,0.409,0.327
		c0.567,0.086,0.527-0.626,0.264-0.462c0.215,0.077,0.111,0.3-0.094,0.237c-0.207-0.065-0.237-0.379-0.205-0.564
		c0.094-0.453,0.469-0.714,0.82-0.825c0.068,0.068,0.143,0.135,0.217,0.202c-0.092-0.028-0.226-0.041-0.226,0.066
		c-0.167-0.022-0.265,0.097-0.392,0.218c-0.08,0.074-0.149,0.114-0.233,0.136c0.079,0.025,0.14,0.065,0.201,0.142
		c0.103,0.121,0.174,0.248,0.352,0.21c-0.038,0.166,0.254,0.041,0.314-0.01c-0.002,0.141,0.147,0.063,0.3-0.07
		c0.088-0.073,0.176-0.163,0.246-0.236c0.066,0.048,0.135,0.097,0.203,0.144c-0.201,0.104-0.443,0.235-0.616,0.355L5.105,14.98
		c0.01,0.02,0.024,0.041,0.047,0.06c-0.035,0.021-0.104,0.074-0.173,0.139c-0.103,0.099-0.208,0.225-0.202,0.318
		c0.002,0.036,0.021,0.066,0.063,0.088c-0.225,0.263-0.151,0.522-0.095,0.844c0.037,0.193,0.038,0.339-0.005,0.5
		c0.11-0.114,0.229-0.185,0.4-0.236c0.275-0.081,0.511-0.117,0.62-0.46c0.188,0.175,0.293-0.416,0.296-0.558
		c0.192,0.116,0.221-0.233,0.225-0.623c0-0.157-0.002-0.318-0.008-0.458c0.079,0.048,0.158,0.095,0.238,0.14
		c-0.074,0.286-0.196,0.834,0,0.723c-0.013,0.083,0.022,0.425,0.136,0.325c0.05,0.2,0.179,0.229,0.324,0.28
		c0.093,0.028,0.153,0.069,0.209,0.136c-0.019-0.093-0.017-0.18,0.01-0.291c0.045-0.18,0.101-0.329,0.001-0.485
		c0.124-0.06-0.06-0.294-0.111-0.337c0.019-0.013,0.021-0.029,0.029-0.045c0.112,0.055,0.226,0.109,0.343,0.159
		c0.112,0.418,0.071,1.011-0.294,1.304c-0.138,0.108-0.411,0.236-0.549,0.043c-0.138-0.188-0.006-0.389,0.148-0.196
		c0.016-0.344-0.563-0.092-0.254,0.466c0.229,0.39,0.627,0.305,0.92,0.018c0.45-0.455,0.3-1.146,0.111-1.602
		c0.15,0.063,0.301,0.124,0.456,0.18c0.048,0.203,0.053,0.433,0.16,0.586c0.124-0.139,0.241-0.304,0.38-0.41
		c0.075,0.023,0.149,0.048,0.225,0.07c-0.545,0.427-1.075,1.294-1.011,2.227c0.027,0.437,0.267,1.19,0.772,1.246
		c0.271,0.035,0.585-0.169,0.646-0.433c0.061-0.255-0.113-0.678-0.347-0.418c0.016-0.009,0.033-0.017,0.041-0.017
		c0.249,0.414-0.337,0.38-0.538,0.124c-0.238-0.312-0.329-0.892-0.283-1.279c0.073-0.619,0.406-1.133,0.813-1.421
		c0.096,0.027,0.194,0.047,0.293,0.071c-0.411,0.244-0.951,0.681-0.821,1.404c0.083,0.451,0.365,0.742,0.753,0.595
		c0.538-0.218,0.213-0.829,0.042-0.548c0.226-0.042,0.222,0.209,0.015,0.26c-0.21,0.051-0.367-0.215-0.422-0.396
		c-0.152-0.501,0.172-1.042,0.513-1.296c0.099,0.023,0.199,0.049,0.301,0.071c-0.051,0.019-0.079,0.055-0.058,0.122
		c-0.065-0.006-0.342,0.05-0.271,0.184c-0.167,0.065-0.2,0.223-0.261,0.396c-0.038,0.108-0.081,0.18-0.148,0.244
		c0.083-0.019,0.154-0.014,0.245,0.022c0.145,0.057,0.263,0.131,0.41,0.008c0.036,0.165,0.252-0.092,0.289-0.167
		c0.056,0.129,0.159-0.015,0.251-0.209c0.084-0.177,0.156-0.389,0.188-0.481c0.104,0.017,0.205,0.038,0.311,0.051
		c-0.16,0.197-0.409,0.506-0.548,0.75c-0.081,0.148-0.116,0.272-0.051,0.331c0.017,0.015,0.038,0.026,0.067,0.032
		c-0.026,0.036-0.067,0.117-0.104,0.209c-0.056,0.139-0.102,0.305-0.061,0.386c0.017,0.031,0.045,0.05,0.09,0.049
		c-0.101,0.345,0.063,0.542,0.227,0.803c0.103,0.162,0.152,0.302,0.173,0.467c0.058-0.156,0.138-0.275,0.271-0.403
		c0.219-0.204,0.422-0.347,0.402-0.708c0.234,0.071,0.125-0.514,0.077-0.644c0.337,0.03-0.07-0.826-0.268-1.238
		c0.114,0.013,0.229,0.023,0.347,0.034c0.015,0.166,0.098,1.028,0.27,0.814c0.019,0.086,0.169,0.39,0.242,0.243
		c0.115,0.162,0.246,0.125,0.4,0.112c0.096-0.007,0.167,0.007,0.242,0.05c-0.049-0.081-0.075-0.162-0.087-0.278
		c-0.019-0.185-0.014-0.347-0.159-0.458c0.099-0.108-0.158-0.245-0.223-0.258c0.06-0.095-0.02-0.152-0.142-0.187
		c0.146,0.007,0.292,0.013,0.438,0.015c0.302,0.33,0.529,0.998,0.249,1.463c-0.095,0.158-0.306,0.368-0.498,0.257
		c-0.189-0.109-0.136-0.353,0.072-0.246c-0.101-0.321-0.554,0.173-0.082,0.541c0.339,0.259,0.678,0.054,0.862-0.355
		c0.315-0.701-0.179-1.311-0.534-1.657c0.055,0,0.108,0.005,0.163,0.005c0.124,0,0.245-0.008,0.369-0.012
		c0.03,0.029,0.059,0.063,0.084,0.101c0.112,0.164,0.19,0.388,0.344,0.491c0.082-0.202,0.146-0.439,0.277-0.592l-0.026-0.032
		c0.093-0.006,0.184-0.018,0.276-0.027c-0.426,0.622-0.69,1.676-0.327,2.584c0.161,0.415,0.606,0.994,1.097,0.872
		c0.264-0.059,0.495-0.381,0.476-0.658c-0.02-0.263-0.307-0.579-0.45-0.254c0.012-0.015,0.025-0.029,0.033-0.032
		c0.357,0.301-0.2,0.482-0.466,0.313c-0.317-0.197-0.577-0.692-0.655-1.083c-0.129-0.64,0.042-1.264,0.366-1.717l-0.054-0.027
		c0.131-0.013,0.264-0.022,0.392-0.039c-0.328,0.356-0.789,1.066-0.42,1.721c0.214,0.371,0.568,0.561,0.888,0.275
		c0.439-0.431-0.046-0.853-0.125-0.533c0.2-0.122,0.272,0.109,0.094,0.239c-0.185,0.125-0.411-0.068-0.519-0.219
		c-0.318-0.451-0.132-1.149,0.149-1.492c0.172-0.023,0.34-0.055,0.507-0.084c-0.191,0.055-0.365,0.14-0.274,0.258
		c-0.063,0.018-0.31,0.171-0.202,0.273c-0.139,0.122-0.121,0.282-0.128,0.469c-0.003,0.116-0.023,0.2-0.064,0.284
		c0.072-0.048,0.14-0.068,0.237-0.067c0.153-0.001,0.289,0.034,0.39-0.15c0.082,0.132,0.209-0.187,0.221-0.271
		c0.093,0.102,0.147-0.071,0.175-0.288c0.031-0.239,0.032-0.532,0.035-0.572l-0.005-0.004c0.113-0.023,0.224-0.052,0.334-0.079
		c-0.089,0.242-0.251,0.674-0.314,0.975c-0.033,0.169-0.029,0.299,0.051,0.331c0.02,0.008,0.043,0.011,0.073,0.005
		c-0.014,0.043-0.028,0.135-0.035,0.235c-0.011,0.152-0.004,0.325,0.059,0.386c0.024,0.023,0.057,0.031,0.1,0.014
		c0.008,0.362,0.222,0.492,0.454,0.674c0.144,0.108,0.232,0.215,0.3,0.363c0.008-0.168,0.049-0.309,0.14-0.479
		c0.145-0.271,0.292-0.48,0.165-0.815c0.242-0.018-0.038-0.529-0.124-0.634c0.216-0.062,0.024-0.343-0.216-0.626
		c-0.156-0.183-0.325-0.36-0.437-0.479c0.118-0.03,0.237-0.062,0.354-0.095l-0.003,0.01c0.029,0.068,0.412,0.983,0.509,0.685
		c0.042,0.07,0.275,0.294,0.3,0.132c0.155,0.111,0.27,0.028,0.408-0.041c0.09-0.039,0.157-0.06,0.239-0.052
		c-0.07-0.055-0.12-0.12-0.167-0.223c-0.074-0.167-0.119-0.314-0.291-0.367c0.06-0.137-0.223-0.173-0.288-0.161
		c0.038-0.167-0.171-0.141-0.37-0.088c0.191-0.062,0.38-0.128,0.564-0.199c0.38,0.173,0.825,0.703,0.717,1.278
		c-0.036,0.193-0.167,0.481-0.384,0.443c-0.213-0.034-0.236-0.283-0.006-0.259c-0.197-0.264-0.472,0.366,0.089,0.539
		c0.406,0.132,0.646-0.249,0.692-0.682c0.071-0.785-0.635-1.189-1.05-1.341l-0.034,0.011c0.184-0.07,0.364-0.143,0.538-0.221
		c0.039,0.015,0.078,0.038,0.116,0.066c0.156,0.111,0.303,0.296,0.471,0.321c0.007-0.225-0.017-0.472,0.046-0.672l-0.026-0.013
		c0.08-0.043,0.154-0.091,0.231-0.136c-0.166,0.726-0.06,1.854,0.577,2.523c0.28,0.293,0.918,0.679,1.339,0.309
		c0.228-0.191,0.336-0.587,0.217-0.825c-0.117-0.228-0.505-0.397-0.517-0.025c0.006-0.019,0.013-0.038,0.019-0.045
		c0.441,0.101-0.017,0.541-0.324,0.514c-0.373-0.054-0.785-0.402-0.983-0.724c-0.33-0.531-0.391-1.205-0.253-1.729l-0.063-0.006
		c0.11-0.064,0.223-0.125,0.329-0.193c-0.142,0.481-0.343,1.282,0.226,1.749c0.332,0.269,0.724,0.269,0.914-0.144
		c0.255-0.575-0.358-0.762-0.307-0.428c0.135-0.204,0.289-0.021,0.171,0.175c-0.121,0.201-0.397,0.13-0.545,0.041
		c-0.442-0.268-0.514-0.99-0.405-1.429c0.14-0.09,0.269-0.187,0.398-0.283c-0.031,0.029-0.063,0.059-0.089,0.089
		c-0.093,0.093-0.139,0.188-0.043,0.243c-0.05,0.044-0.206,0.294-0.077,0.339c-0.075,0.173-0.004,0.313,0.058,0.486
		c0.037,0.109,0.05,0.194,0.042,0.292c0.047-0.077,0.102-0.127,0.188-0.171c0.138-0.069,0.268-0.107,0.295-0.308
		c0.13,0.09,0.115-0.266,0.093-0.345c0.119,0.049,0.1-0.134,0.039-0.341c-0.066-0.229-0.183-0.489-0.198-0.527l-0.003-0.001
		c0.082-0.069,0.164-0.137,0.241-0.208c0.01,0.08,0.023,0.176,0.036,0.284c0.021,0.232,0.047,0.511,0.092,0.716
		c0.039,0.167,0.091,0.282,0.174,0.273c0.021-0.003,0.042-0.011,0.065-0.03c0.006,0.045,0.029,0.134,0.061,0.229
		c0.049,0.142,0.121,0.294,0.202,0.318c0.03,0.01,0.063,0,0.095-0.037c0.147,0.322,0.393,0.334,0.678,0.373
		c0.175,0.018,0.3,0.065,0.424,0.159c-0.061-0.154-0.081-0.304-0.068-0.503c0.023-0.321,0.068-0.582-0.19-0.805
		c0.192-0.164-0.271-0.442-0.385-0.487c0.142-0.181-0.139-0.307-0.458-0.43c-0.212-0.08-0.423-0.157-0.565-0.21
		c0.085-0.083,0.162-0.169,0.24-0.255l0.005,0.022c0.051,0.05,0.764,0.625,0.716,0.325c0.065,0.039,0.367,0.105,0.313-0.043
		c0.189,0.014,0.228-0.132,0.303-0.271c0.045-0.088,0.095-0.141,0.166-0.182c-0.086-0.003-0.159-0.027-0.249-0.084
		c-0.146-0.09-0.261-0.186-0.413-0.132c-0.031-0.142-0.253-0.019-0.292,0.024c-0.048-0.151-0.209-0.03-0.344,0.107
		c0.354-0.438,0.622-0.91,0.793-1.408c0.019,0.029,0.008,0.096-0.017,0.179c-0.029,0.087-0.096,0.181-0.132,0.259
		c-0.013,0.026-0.022,0.05-0.033,0.071c0.038-0.01,0.079-0.014,0.122-0.014c0.172-0.003,0.387,0.045,0.531-0.035
		c-0.132-0.166-0.302-0.324-0.387-0.487l-0.082,0.018c0.036-0.107,0.056-0.217,0.084-0.325c-0.577,1.866-2.71,3.256-5.27,3.256
		c-1.306,0-2.487-0.375-3.425-0.977c-0.951,0.677-2.194,1.1-3.572,1.1c-2.115,0-3.927-0.978-4.803-2.388
		c-0.186,0.329-0.497,0.668-0.871,0.662c-0.166-0.003-0.439-0.103-0.453-0.342c0.014-0.246,0.218-0.293,0.229-0.046
		c0.093-0.125,0.016-0.236-0.114-0.245c-0.129-0.007-0.305,0.081-0.351,0.42c-0.014,0.459,0.319,0.717,0.729,0.648
		c0.355-0.049,0.567-0.303,0.711-0.575c0.065-0.139,0.129-0.289,0.182-0.431c0.07,0.122,0.144,0.242,0.226,0.359
		c-0.06,0.13-0.12,0.263-0.116,0.395c0.104-0.029,0.217-0.074,0.329-0.108c0.044,0.054,0.086,0.107,0.132,0.16
		c-0.256,0.063-0.536,0.174-0.797,0.325c-0.361,0.21-0.713,0.519-0.915,0.971c-0.086,0.196-0.159,0.486-0.152,0.785
		c0.007,0.275,0.092,0.557,0.283,0.729c-0.463-0.517-0.886-1.058-1.216-1.646c0.093,0.025,0.187,0.043,0.277,0.044
		c0.161,0.004,0.311-0.031,0.423-0.109c-0.056,0.201-0.116,0.441-0.093,0.675c0.229-0.568,0.5-0.966,0.93-1.338
		c-0.2,0.105-0.366,0.17-0.521,0.172c-0.226,0.007-0.424-0.121-0.613-0.489c-0.122,0.155-0.023,0.443,0.112,0.615
		c-0.211,0.087-0.443,0.12-0.666,0.157c-0.584-1.135-0.909-2.38-0.909-3.685c0-0.329,0.021-0.654,0.061-0.974
		c0.077,0.198,0.219,0.352,0.359,0.376c0.241,0.038,0.56-0.218,0.343-0.482c0.007,0.02,0.016,0.04,0.016,0.05
		C1.143,9.738,1.182,8.987,1.422,8.723c0.296-0.306,0.833-0.364,1.163-0.272c0.444,0.123,0.809,0.442,1.069,0.767
		C3.663,9.194,3.673,9.17,3.683,9.146c-0.16-0.201-0.358-0.411-0.584-0.603C2.763,8.264,2.37,8.035,1.93,8.037
		C1.673,8.03,1.257,8.157,0.993,8.455c0.141-0.545,0.34-1.072,0.591-1.579c0.018,0.101,0.04,0.2,0.072,0.287
		C1.719,7.33,1.809,7.467,1.918,7.549c-0.19,0.027-0.411,0.069-0.58,0.212C1.88,7.725,2.326,7.844,2.806,8.12
		c-0.168-0.158-0.289-0.3-0.354-0.456C2.363,7.445,2.366,7.167,2.588,6.833C2.407,6.771,2.223,6.984,2.145,7.205
		C1.992,7.027,1.86,6.797,1.734,6.583c1.022-1.887,2.788-3.438,4.978-4.458C6.571,2.292,6.453,2.54,6.406,2.788
		C6.373,2.956,6.371,3.124,6.411,3.266c-0.155-0.12-0.33-0.231-0.526-0.272c0.408,0.401,0.677,0.78,0.896,1.343
		C6.739,4.094,6.723,3.899,6.754,3.734C6.8,3.497,6.949,3.321,7.274,3.165C7.158,2.999,6.922,3.072,6.752,3.169
		c-0.041-0.338-0.01-0.715-0.031-1.05c1.729-0.804,3.714-1.284,5.845-1.284c4.822,0,8.976,2.353,10.814,5.714
		c-0.152-0.082-0.333-0.128-0.498-0.13c-0.162-0.003-0.311,0.032-0.424,0.11c0.058-0.202,0.117-0.442,0.093-0.675
		c-0.229,0.567-0.499,0.966-0.928,1.337c0.2-0.105,0.365-0.17,0.521-0.172c0.225-0.007,0.424,0.121,0.612,0.489
		c0.121-0.154,0.023-0.443-0.112-0.614c0.263-0.107,0.554-0.135,0.823-0.188c0.595,1.143,0.925,2.398,0.925,3.715
		c0,1.362-0.354,2.657-0.989,3.832c0-0.195-0.036-0.404-0.098-0.572c-0.063-0.167-0.153-0.304-0.264-0.387
		c0.192-0.027,0.41-0.068,0.58-0.212c-0.542,0.037-0.987-0.082-1.466-0.358c0.168,0.158,0.29,0.3,0.354,0.455
		c0.087,0.219,0.084,0.497-0.138,0.831c0.179,0.062,0.366-0.151,0.444-0.372c0.188,0.22,0.346,0.52,0.499,0.769
		C21.446,17.708,17.333,20.007,12.565,20.007z M5.221,13.955c0-0.05,0.048-0.053,0.093-0.044c0.104,0.086,0.209,0.172,0.32,0.254
		c-0.01,0.01-0.018,0.018-0.028,0.028C5.5,14.3,5.355,14.42,5.358,14.317c-0.032,0.027-0.184,0.098-0.169,0.015
		c-0.098,0.03-0.133-0.037-0.183-0.1c-0.033-0.039-0.063-0.059-0.104-0.07c0.043-0.015,0.077-0.038,0.117-0.081
		C5.086,14.012,5.134,13.944,5.221,13.955z M9.555,16.118c-0.038-0.073,0.107-0.103,0.143-0.101
		c-0.047-0.129,0.259-0.072,0.356-0.053c0.015,0.003,0.023,0.005,0.028,0.005l0.003,0.012c-0.004,0.013-0.029,0.084-0.059,0.165
		c-0.058,0.148-0.143,0.326-0.184,0.232c-0.021,0.04-0.133,0.178-0.152,0.095c-0.078,0.074-0.14,0.034-0.215,0.002
		c-0.047-0.019-0.085-0.021-0.127-0.011c0.033-0.035,0.055-0.074,0.074-0.132C9.451,16.238,9.468,16.153,9.555,16.118z
		 M14.585,16.143c-0.084-0.105,0.223-0.161,0.32-0.179c0.014-0.002,0.023-0.004,0.027-0.005l0.008,0.01
		c0,0.015-0.003,0.09-0.008,0.177c-0.009,0.16-0.035,0.36-0.104,0.285c-0.006,0.046-0.07,0.216-0.115,0.145
		c-0.051,0.095-0.121,0.085-0.201,0.091c-0.05,0.003-0.085,0.017-0.123,0.042c0.021-0.045,0.03-0.09,0.03-0.152
		c0-0.101-0.011-0.187,0.061-0.257C14.422,16.25,14.551,16.155,14.585,16.143z M19.258,14.043c0.011-0.008,0.018-0.014,0.022-0.016
		l0.009,0.004c0.007,0.013,0.032,0.083,0.063,0.162c0.057,0.147,0.111,0.34,0.024,0.303c0.012,0.043,0.022,0.228-0.043,0.184
		c-0.007,0.11-0.07,0.136-0.144,0.169c-0.045,0.022-0.073,0.048-0.096,0.087c0.003-0.05-0.006-0.095-0.029-0.151
		c-0.038-0.091-0.079-0.165-0.039-0.255c-0.071-0.024,0.013-0.153,0.032-0.183C18.948,14.29,19.184,14.102,19.258,14.043z"/>
	<path d="M20.254,7.833l-0.01,0.054c-0.053-0.07-0.1-0.141-0.157-0.209c0.317-0.033,0.713-0.168,1.072-0.375
		c0.362-0.211,0.713-0.519,0.914-0.971c0.087-0.197,0.16-0.487,0.153-0.785c-0.009-0.296-0.092-0.614-0.318-0.779
		c-0.242-0.191-0.619-0.185-0.781,0.019c-0.153,0.199-0.167,0.669,0.154,0.566c-0.02-0.001-0.038-0.003-0.046-0.007
		c-0.064-0.503,0.475-0.158,0.542,0.2c0.075,0.432-0.1,0.973-0.32,1.272c-0.364,0.496-0.932,0.749-1.396,0.787l0.01,0.056
		c-0.077-0.091-0.165-0.179-0.251-0.267c0.225-0.003,0.493-0.018,0.764-0.117c0.271-0.103,0.536-0.285,0.647-0.663
		c0.063-0.212,0.07-0.429,0.011-0.609c-0.069-0.167-0.206-0.292-0.41-0.327c-0.568-0.086-0.527,0.626-0.263,0.462
		c-0.216-0.076-0.11-0.299,0.093-0.237c0.209,0.066,0.239,0.379,0.206,0.565c-0.119,0.573-0.688,0.843-1.09,0.882
		c-0.1-0.103-0.207-0.202-0.315-0.3c0.138,0.093,0.268,0.15,0.288,0.009c0.05,0.035,0.304,0.114,0.304-0.034
		c0.168,0.022,0.267-0.097,0.393-0.217c0.08-0.075,0.148-0.115,0.233-0.137c-0.079-0.025-0.139-0.065-0.202-0.141
		c-0.1-0.122-0.174-0.248-0.349-0.21c0.035-0.166-0.255-0.042-0.317,0.01c0.001-0.142-0.146-0.062-0.301,0.07
		c-0.163,0.139-0.333,0.333-0.371,0.374c-0.082-0.065-0.174-0.124-0.261-0.187c0.209-0.107,0.567-0.289,0.8-0.451
		c0.13-0.095,0.209-0.189,0.174-0.273c-0.009-0.021-0.023-0.041-0.048-0.06c0.038-0.021,0.105-0.073,0.174-0.139
		c0.104-0.098,0.208-0.224,0.202-0.317C20.18,5.31,20.161,5.279,20.12,5.257c0.224-0.262,0.15-0.521,0.096-0.843
		c-0.038-0.193-0.038-0.338,0.003-0.5c-0.11,0.115-0.229,0.186-0.4,0.236c-0.274,0.082-0.51,0.117-0.62,0.461
		c-0.187-0.176-0.292,0.416-0.295,0.558c-0.191-0.117-0.221,0.233-0.224,0.623c-0.001,0.24,0.007,0.491,0.013,0.663
		c-0.096-0.063-0.191-0.125-0.291-0.186c0.028-0.083,0.297-1.025,0.047-0.882c0.013-0.083-0.021-0.425-0.138-0.326
		c-0.048-0.199-0.177-0.229-0.322-0.28c-0.092-0.029-0.153-0.069-0.21-0.136c0.021,0.094,0.018,0.179-0.009,0.291
		c-0.043,0.179-0.1,0.328-0.001,0.485c-0.125,0.06,0.059,0.293,0.111,0.336c-0.095,0.069-0.025,0.164,0.086,0.255
		C17.838,5.942,17.7,5.88,17.566,5.815c-0.177-0.409-0.185-1.139,0.235-1.476c0.137-0.107,0.411-0.236,0.549-0.042
		c0.135,0.188,0.005,0.389-0.148,0.196c-0.016,0.345,0.563,0.092,0.256-0.466c-0.231-0.39-0.628-0.304-0.922-0.017
		c-0.515,0.518-0.247,1.342-0.031,1.775c-0.16-0.074-0.322-0.146-0.489-0.214c-0.02-0.042-0.034-0.088-0.046-0.138
		c-0.049-0.204-0.054-0.435-0.163-0.588c-0.142,0.159-0.272,0.358-0.439,0.456l0.012,0.033c-0.085-0.029-0.174-0.055-0.261-0.082
		c0.572-0.398,1.164-1.314,1.098-2.295c-0.027-0.436-0.268-1.19-0.773-1.245c-0.271-0.037-0.584,0.168-0.647,0.432
		c-0.06,0.255,0.113,0.678,0.35,0.418c-0.018,0.009-0.033,0.016-0.043,0.017c-0.248-0.413,0.338-0.38,0.538-0.123
		c0.238,0.312,0.329,0.893,0.284,1.278c-0.076,0.645-0.433,1.182-0.862,1.462c0,0,0.037,0.043,0.046,0.053
		c-0.124-0.039-0.247-0.08-0.376-0.115c0.416-0.231,1.046-0.68,0.906-1.453c-0.081-0.452-0.364-0.743-0.751-0.596
		c-0.539,0.218-0.215,0.829-0.043,0.547c-0.225,0.043-0.223-0.209-0.016-0.26c0.21-0.05,0.368,0.215,0.422,0.396
		c0.164,0.538-0.221,1.125-0.586,1.35c-0.154-0.041-0.313-0.077-0.47-0.112c0.183,0.019,0.348,0.008,0.3-0.134
		c0.065,0.007,0.343-0.05,0.272-0.184c0.166-0.064,0.2-0.222,0.261-0.396c0.039-0.108,0.082-0.179,0.147-0.243
		c-0.082,0.019-0.152,0.013-0.243-0.022c-0.145-0.057-0.264-0.131-0.41-0.008c-0.036-0.165-0.252,0.092-0.289,0.167
		c-0.058-0.129-0.16,0.014-0.251,0.209c-0.102,0.212-0.188,0.484-0.203,0.526c-0.109-0.02-0.221-0.038-0.33-0.055
		c0.157-0.191,0.433-0.529,0.582-0.791c0.082-0.148,0.116-0.271,0.05-0.331c-0.016-0.015-0.037-0.026-0.066-0.032
		c0.026-0.036,0.067-0.116,0.104-0.209c0.055-0.139,0.1-0.305,0.059-0.385c-0.016-0.031-0.044-0.05-0.089-0.049
		c0.101-0.346-0.063-0.543-0.227-0.803c-0.102-0.162-0.152-0.302-0.171-0.467c-0.059,0.156-0.139,0.275-0.274,0.402
		c-0.218,0.204-0.42,0.347-0.402,0.709c-0.232-0.072-0.126,0.513-0.076,0.645c-0.348-0.032,0.094,0.875,0.285,1.272
		c-0.121-0.017-0.24-0.03-0.361-0.044c-0.009-0.096-0.094-1.064-0.273-0.839c-0.018-0.087-0.168-0.39-0.242-0.243
		c-0.113-0.163-0.246-0.125-0.4-0.113c-0.096,0.008-0.166-0.007-0.241-0.05c0.05,0.081,0.075,0.163,0.086,0.278
		c0.019,0.186,0.015,0.347,0.162,0.458c-0.1,0.109,0.156,0.245,0.223,0.258c-0.074,0.115,0.057,0.173,0.22,0.204
		c-0.17-0.014-0.343-0.022-0.516-0.029c-0.304-0.328-0.533-0.999-0.252-1.466c0.095-0.158,0.306-0.368,0.499-0.257
		c0.188,0.109,0.134,0.354-0.074,0.246c0.103,0.321,0.554-0.172,0.083-0.541c-0.34-0.259-0.678-0.054-0.863,0.356
		c-0.316,0.703,0.184,1.314,0.537,1.66c-0.163-0.005-0.326-0.016-0.492-0.016c-0.019,0-0.037,0.002-0.056,0.002
		c-0.025-0.026-0.049-0.052-0.071-0.083c-0.111-0.165-0.188-0.389-0.341-0.493C11.764,4.32,11.7,4.557,11.569,4.71l0.003,0.004
		c-0.075,0.004-0.151,0.007-0.228,0.012c0.41-0.626,0.658-1.652,0.301-2.542c-0.162-0.414-0.607-0.993-1.096-0.872
		c-0.265,0.058-0.496,0.381-0.477,0.657c0.021,0.264,0.309,0.58,0.45,0.254c-0.01,0.014-0.026,0.028-0.033,0.032
		c-0.356-0.301,0.202-0.482,0.469-0.313c0.314,0.197,0.574,0.692,0.652,1.083c0.129,0.636-0.04,1.256-0.359,1.709
		c-0.104,0.008-0.205,0.02-0.307,0.03c0.325-0.367,0.738-1.046,0.381-1.677c-0.212-0.371-0.566-0.561-0.887-0.275
		c-0.438,0.431,0.047,0.853,0.126,0.533c-0.201,0.121-0.273-0.109-0.092-0.24c0.183-0.125,0.409,0.069,0.517,0.219
		c0.307,0.433,0.146,1.092-0.118,1.448c-0.103,0.011-0.207,0.018-0.308,0.03c0.063-0.044,0.092-0.097,0.043-0.16
		c0.064-0.018,0.312-0.172,0.203-0.273c0.14-0.121,0.123-0.282,0.127-0.468c0.004-0.116,0.023-0.199,0.067-0.283
		c-0.072,0.047-0.143,0.067-0.239,0.067c-0.153,0-0.29-0.034-0.389,0.149c-0.084-0.132-0.21,0.187-0.222,0.271
		c-0.093-0.102-0.147,0.072-0.176,0.289c-0.025,0.188-0.031,0.405-0.032,0.51C9.849,4.923,9.746,4.937,9.65,4.957
		C9.741,4.707,9.874,4.34,9.93,4.075c0.035-0.17,0.029-0.299-0.051-0.331C9.86,3.736,9.836,3.733,9.807,3.738
		C9.82,3.695,9.835,3.604,9.843,3.503c0.011-0.151,0.004-0.324-0.061-0.385C9.759,3.094,9.726,3.086,9.685,3.104
		C9.677,2.742,9.463,2.612,9.229,2.43c-0.145-0.107-0.232-0.215-0.3-0.363c-0.009,0.168-0.049,0.31-0.14,0.48
		C8.646,2.818,8.497,3.026,8.625,3.361C8.383,3.378,8.661,3.891,8.748,3.995C8.533,4.057,8.725,4.339,8.964,4.621
		c0.127,0.148,0.264,0.295,0.372,0.41C9.229,5.056,9.121,5.079,9.018,5.107C8.915,4.875,8.624,4.246,8.541,4.5
		c-0.042-0.07-0.273-0.293-0.299-0.132c-0.156-0.111-0.27-0.028-0.409,0.04c-0.088,0.04-0.156,0.06-0.239,0.053
		C7.665,4.516,7.713,4.581,7.76,4.684C7.836,4.85,7.88,4.998,8.052,5.05C7.993,5.188,8.275,5.224,8.34,5.212
		C8.33,5.254,8.339,5.281,8.357,5.302C8.238,5.34,8.119,5.377,8.004,5.419C7.665,5.194,7.334,4.725,7.43,4.221
		C7.466,4.027,7.595,3.74,7.814,3.778C8.025,3.811,8.05,4.06,7.821,4.037c0.194,0.265,0.47-0.366-0.09-0.539
		C7.324,3.366,7.085,3.747,7.038,4.18C6.975,4.867,7.508,5.262,7.92,5.452c-0.163,0.06-0.326,0.122-0.481,0.189
		C7.293,5.529,7.154,5.366,6.997,5.343C6.992,5.511,7.002,5.692,6.983,5.855c-0.066,0.032-0.136,0.063-0.2,0.097
		C6.886,5.232,6.746,4.248,6.17,3.64C5.889,3.348,5.251,2.961,4.831,3.332C4.603,3.522,4.493,3.918,4.613,4.158
		C4.729,4.385,5.12,4.554,5.131,4.181C5.125,4.2,5.118,4.219,5.111,4.226C4.67,4.125,5.128,3.685,5.436,3.713
		c0.373,0.053,0.785,0.402,0.983,0.723c0.295,0.476,0.366,1.061,0.28,1.557C6.62,6.035,6.547,6.082,6.471,6.126
		c0.117-0.479,0.191-1.114-0.293-1.51C5.848,4.347,5.455,4.347,5.265,4.76C5.011,5.336,5.624,5.522,5.572,5.189
		C5.438,5.393,5.283,5.21,5.4,5.013c0.123-0.2,0.398-0.129,0.547-0.041c0.373,0.227,0.479,0.772,0.44,1.202
		C6.287,6.233,6.183,6.291,6.086,6.352C6.134,6.307,6.29,6.058,6.162,6.013C6.238,5.84,6.168,5.699,6.104,5.526
		C6.066,5.418,6.054,5.332,6.063,5.235C6.015,5.312,5.962,5.363,5.875,5.406C5.739,5.476,5.606,5.513,5.581,5.714
		C5.452,5.624,5.466,5.98,5.485,6.059C5.367,6.011,5.387,6.193,5.446,6.4c0.032,0.11,0.077,0.226,0.115,0.322
		c-0.064,0.049-0.125,0.1-0.187,0.15C5.374,6.865,5.374,6.858,5.373,6.851C5.351,6.619,5.326,6.34,5.279,6.136
		c-0.037-0.168-0.09-0.283-0.174-0.273C5.087,5.865,5.063,5.875,5.04,5.893C5.035,5.847,5.013,5.758,4.98,5.664
		C4.931,5.523,4.857,5.37,4.777,5.346c-0.03-0.009-0.063,0-0.095,0.037C4.537,5.061,4.291,5.049,4.006,5.01
		C3.83,4.991,3.705,4.945,3.582,4.851c0.061,0.155,0.08,0.304,0.067,0.503C3.628,5.674,3.584,5.935,3.843,6.159
		C3.648,6.322,4.111,6.602,4.228,6.645C4.085,6.826,4.364,6.953,4.682,7.076c0.111,0.04,0.219,0.08,0.321,0.118
		C4.94,7.253,4.886,7.315,4.825,7.376c-0.223-0.168-0.57-0.397-0.536-0.184C4.223,7.155,3.923,7.088,3.976,7.236
		c-0.191-0.014-0.229,0.132-0.303,0.27C3.627,7.596,3.577,7.647,3.506,7.689c0.086,0.003,0.159,0.027,0.249,0.083
		C3.9,7.863,4.017,7.958,4.17,7.905c0.017,0.082,0.097,0.074,0.17,0.046C4.276,8.036,4.208,8.12,4.15,8.208
		C3.801,8.16,3.398,7.982,3.244,7.593C3.18,7.421,3.149,7.104,3.34,6.991c0.185-0.107,0.323,0.091,0.133,0.214
		c0.275,0.102,0.214-0.596-0.338-0.397c-0.39,0.167-0.442,0.622-0.22,1.011C3.102,8.16,3.397,8.267,3.679,8.304
		c0.14,0.018,0.272,0.014,0.403,0.005c0.004-0.001,0.009-0.001,0.012-0.001C4.02,8.431,3.946,8.554,3.884,8.68
		C3.76,8.672,3.635,8.668,3.537,8.721c0.069,0.084,0.145,0.167,0.215,0.248C4.512,7.35,6.463,6.19,8.77,6.19
		c1.29,0,2.457,0.375,3.383,0.976c0.963-0.676,2.22-1.099,3.614-1.099c2.066,0,3.841,0.913,4.762,2.243
		c-0.074-0.12-0.148-0.239-0.233-0.354c0.079,0.058,0.183,0.237,0.259,0.354c0.018,0.024,0.033,0.045,0.047,0.064
		c0.006-0.043,0.021-0.086,0.036-0.132c0.066-0.18,0.19-0.373,0.188-0.561C20.642,7.73,20.435,7.832,20.254,7.833z M5.918,6.468
		C5.815,6.538,5.716,6.608,5.62,6.681C5.615,6.67,5.61,6.662,5.606,6.649C5.551,6.502,5.498,6.311,5.583,6.346
		C5.572,6.303,5.562,6.119,5.628,6.163c0.007-0.11,0.067-0.136,0.142-0.169c0.045-0.022,0.073-0.048,0.096-0.088
		C5.863,5.957,5.871,6.001,5.895,6.057c0.036,0.091,0.078,0.164,0.039,0.255C5.993,6.332,5.948,6.419,5.918,6.468z M10.375,4.7
		c0.082,0.105-0.222,0.162-0.321,0.179c-0.014,0.003-0.022,0.004-0.027,0.005L10.02,4.875c0-0.014,0.004-0.091,0.007-0.177
		c0.01-0.16,0.037-0.36,0.104-0.285c0.007-0.045,0.07-0.216,0.115-0.145c0.053-0.095,0.12-0.086,0.201-0.09
		c0.05-0.004,0.085-0.018,0.123-0.042c-0.021,0.045-0.031,0.089-0.031,0.151c0,0.101,0.013,0.187-0.059,0.258
		C10.537,4.594,10.409,4.688,10.375,4.7z M14.905,4.878c-0.013-0.002-0.024-0.004-0.026-0.005l-0.006-0.011
		c0.006-0.014,0.032-0.084,0.06-0.165c0.059-0.148,0.144-0.326,0.186-0.231c0.019-0.041,0.131-0.178,0.152-0.095
		c0.077-0.074,0.139-0.035,0.216-0.003c0.047,0.019,0.084,0.022,0.126,0.011c-0.034,0.035-0.055,0.074-0.074,0.133
		c-0.03,0.093-0.045,0.178-0.132,0.214c0.039,0.073-0.108,0.102-0.145,0.1C15.311,4.955,15.003,4.898,14.905,4.878z M19.237,6.784
		l0.001-0.013c0.01-0.01,0.059-0.062,0.115-0.121c0.106-0.107,0.25-0.227,0.248-0.124c0.033-0.027,0.185-0.099,0.169-0.015
		c0.099-0.03,0.132,0.037,0.185,0.099c0.031,0.039,0.061,0.06,0.101,0.071c-0.043,0.014-0.076,0.038-0.118,0.081
		c-0.063,0.069-0.111,0.136-0.199,0.127c0.003,0.081-0.131,0.04-0.157,0.021c-0.014,0.135-0.248-0.05-0.323-0.111
		C19.249,6.792,19.24,6.786,19.237,6.784z"/>
	<path d="M15.767,7.091c-1.061,0-2.021,0.287-2.784,0.746c0.715,0.723,1.157,1.623,1.157,2.611c0,0.919-0.375,1.765-0.999,2.46
		c0.735,0.403,1.639,0.651,2.626,0.651c2.433,0,4.412-1.451,4.412-3.234C20.179,8.542,18.199,7.091,15.767,7.091z"/>
	<path d="M11.355,10.326c0,0.752,0.366,1.436,0.955,1.985c0.503-0.527,0.806-1.167,0.806-1.862c0-0.752-0.361-1.436-0.942-1.986
		C11.663,8.99,11.355,9.63,11.355,10.326z"/>
</g>
<g>
</g>
<g>
</g>
<g>
</g>
<g>
</g>
<g>
</g>
<g>
</g>
<g>
</g>
<g>
</g>
<g>
</g>
<g>
</g>
<g>
</g>
<g>
</g>
<g>
</g>
<g>
</g>
<g>
</g>
</svg>
