<?xml version="1.0" encoding="iso-8859-1"?>
<!-- Generator: Adobe Illustrator 16.0.0, SVG Export Plug-In . SVG Version: 6.00 Build 0)  -->
<!DOCTYPE svg PUBLIC "-//W3C//DTD SVG 1.1//EN" "http://www.w3.org/Graphics/SVG/1.1/DTD/svg11.dtd">
<svg version="1.1" id="Layer_1" xmlns="http://www.w3.org/2000/svg" xmlns:xlink="http://www.w3.org/1999/xlink" x="0px" y="0px"
	 width="28.69px" height="44.951px" viewBox="0 0 28.69 44.951" style="enable-background:new 0 0 28.69 44.951;"
	 xml:space="preserve">
<path d="M28.69,10.937c0.011-1.4-0.525-2.722-1.51-3.721s-2.298-1.556-3.723-1.567c-0.089,0-0.176,0.011-0.264,0.018
	c0.012-0.105,0.023-0.21,0.024-0.317c0.021-2.893-2.313-5.267-5.245-5.291c-1.424,0-2.774,0.579-3.752,1.579
	C13.252,0.611,11.891,0.011,10.418,0c-2.87,0-5.224,2.336-5.246,5.207C5.17,5.433,5.198,5.654,5.241,5.874
	c-2.84,0.037-5.158,2.352-5.183,5.201c-0.01,1.438,0.568,2.802,1.579,3.788C0.61,15.833,0.011,17.188,0,18.625
	c-0.022,2.893,2.313,5.265,5.207,5.288h0.025c2.395,0,4.383-2.582,6.685-5.571l0.199-0.268c0.185,0.319,0.43,0.597,0.729,0.812
	V34.03H11.36v2.219h1.484v1.167H6.644v3h6.201v0.99h-1.672v2.219h1.672v1.327h3v-1.327h1.672v-2.219h-1.672v-0.99h6.201v-3h-6.201
	v-1.167h1.859V34.03h-1.859V18.886c0.345-0.248,0.622-0.579,0.811-0.963l0.084,0.112c2.259,3.027,4.211,5.641,6.602,5.66h0.042
	c2.87,0,5.225-2.335,5.249-5.208c0.01-1.438-0.568-2.802-1.579-3.788C28.08,13.729,28.68,12.375,28.69,10.937z M10.444,2
	c1.065,0.008,2.056,0.539,2.651,1.419l1.1,1.627l1.125-1.61c0.604-0.863,1.596-1.378,2.675-1.378
	c1.791,0.015,3.237,1.484,3.224,3.275c-0.006,0.69-0.586,1.469-1.468,2.303c-0.014,0.014-0.028,0.027-0.042,0.042
	c-0.9,0.844-2.107,1.745-3.35,2.672l-2.228,1.594l-2.171-1.614c-0.942-0.726-1.863-1.436-2.643-2.116
	C8.934,7.795,8.55,7.418,8.16,7.094C7.552,6.421,7.167,5.79,7.172,5.223C7.186,3.446,8.643,2,10.444,2z M10.332,17.123
	c-1.896,2.464-3.688,4.791-5.1,4.791v1l-0.01-1C3.432,21.899,1.985,20.432,2,18.641c0.008-1.065,0.539-2.057,1.419-2.651
	l1.629-1.101l-1.611-1.124c-0.87-0.609-1.386-1.609-1.378-2.675c0.015-1.777,1.473-3.223,3.275-3.223
	c0.443,0.003,0.927,0.262,1.434,0.667c0.339,0.367,0.723,0.732,1.138,1.1c0.778,0.868,1.599,1.958,2.443,3.089l1.596,2.23
	l-1.548,2.085L10.332,17.123z M25.254,15.797c0.87,0.609,1.386,1.609,1.378,2.675c-0.015,1.777-1.473,3.223-3.249,3.223v1l-0.026-1
	c-1.397-0.011-3.154-2.365-5.015-4.856l-1.596-2.23l1.548-2.085l0.064-0.083c1.896-2.464,3.688-4.791,5.109-4.791
	c0.866,0.007,1.679,0.352,2.288,0.97c0.609,0.619,0.941,1.437,0.935,2.302c-0.008,1.065-0.539,2.057-1.419,2.651l-1.629,1.101
	L25.254,15.797z"/>
<g>
</g>
<g>
</g>
<g>
</g>
<g>
</g>
<g>
</g>
<g>
</g>
<g>
</g>
<g>
</g>
<g>
</g>
<g>
</g>
<g>
</g>
<g>
</g>
<g>
</g>
<g>
</g>
<g>
</g>
</svg>
