<?xml version="1.0" encoding="iso-8859-1"?>
<!-- Generator: Adobe Illustrator 16.0.0, SVG Export Plug-In . SVG Version: 6.00 Build 0)  -->
<!DOCTYPE svg PUBLIC "-//W3C//DTD SVG 1.1//EN" "http://www.w3.org/Graphics/SVG/1.1/DTD/svg11.dtd">
<svg version="1.1" id="Layer_1" xmlns="http://www.w3.org/2000/svg" xmlns:xlink="http://www.w3.org/1999/xlink" x="0px" y="0px"
	 width="27.762px" height="50.831px" viewBox="0 0 27.762 50.831" style="enable-background:new 0 0 27.762 50.831;"
	 xml:space="preserve">
<polygon points="23.028,45.566 23.028,43.816 15.747,43.816 15.747,42.941 21.216,42.941 21.216,41.191 15.747,41.191 
	15.747,17.837 12.747,17.837 12.747,50.831 15.028,50.831 15.747,50.831 21.216,50.831 21.216,49.081 15.747,49.081 15.747,48.316 
	23.028,48.316 23.028,46.566 15.747,46.566 15.747,45.566 "/>
<path d="M13.881,21.67C6.098,21.67,0,16.911,0,10.835C0,4.76,6.098,0,13.881,0c7.784,0,13.881,4.76,13.881,10.835
	C27.762,16.911,21.665,21.67,13.881,21.67z M13.881,4.99c-4.917,0-9.07,2.676-9.07,5.845c0,3.169,4.153,5.845,9.07,5.845
	s9.07-2.676,9.07-5.845C22.951,7.667,18.798,4.99,13.881,4.99z"/>
<g>
</g>
<g>
</g>
<g>
</g>
<g>
</g>
<g>
</g>
<g>
</g>
<g>
</g>
<g>
</g>
<g>
</g>
<g>
</g>
<g>
</g>
<g>
</g>
<g>
</g>
<g>
</g>
<g>
</g>
</svg>
