<?xml version="1.0" encoding="iso-8859-1"?>
<!-- Generator: Adobe Illustrator 16.0.0, SVG Export Plug-In . SVG Version: 6.00 Build 0)  -->
<!DOCTYPE svg PUBLIC "-//W3C//DTD SVG 1.1//EN" "http://www.w3.org/Graphics/SVG/1.1/DTD/svg11.dtd">
<svg version="1.1" id="Layer_1" xmlns="http://www.w3.org/2000/svg" xmlns:xlink="http://www.w3.org/1999/xlink" x="0px" y="0px"
	 width="20.031px" height="46.385px" viewBox="0 0 20.031 46.385" style="enable-background:new 0 0 20.031 46.385;"
	 xml:space="preserve">
<path d="M20.031,8.292C20.031,3.72,15.538,0,10.015,0S0,3.72,0,8.292c0,4.269,3.917,7.792,8.932,8.241v15.465
	c-2.378,0.422-3.756,1.796-3.756,3.55c0,1.862,1.516,2.854,3.756,3.566v3.026c-1.255-0.08-2.391-0.438-3.22-0.845l-0.669,2.336
	c0.847,0.438,2.297,0.798,3.792,0.857v1.896h2.185V44.35c2.564-0.399,3.97-1.915,3.97-3.692c0-1.797-1.071-2.894-3.725-3.733
	c-0.052-0.018-0.095-0.033-0.145-0.051v-2.741c1.244,0.099,2.099,0.448,2.598,0.638l0.646-2.256c-0.735-0.32-1.74-0.598-3.234-0.658
	v-1.757h-0.01V16.531C16.124,16.074,20.031,12.555,20.031,8.292z M3,8.292C3,5.374,6.147,3,10.015,3
	c3.869,0,7.016,2.374,7.016,5.292s-3.147,5.292-7.016,5.292C6.147,13.584,3,11.21,3,8.292z M8.587,35.209
	c0-0.254,0.104-0.505,0.344-0.706v1.366C8.697,35.666,8.587,35.454,8.587,35.209z M11.554,40.938c0,0.336-0.162,0.604-0.435,0.807
	v-1.663C11.409,40.33,11.554,40.606,11.554,40.938z"/>
<g>
</g>
<g>
</g>
<g>
</g>
<g>
</g>
<g>
</g>
<g>
</g>
<g>
</g>
<g>
</g>
<g>
</g>
<g>
</g>
<g>
</g>
<g>
</g>
<g>
</g>
<g>
</g>
<g>
</g>
</svg>
