<?xml version="1.0" encoding="iso-8859-1"?>
<!-- Generator: Adobe Illustrator 16.0.0, SVG Export Plug-In . SVG Version: 6.00 Build 0)  -->
<!DOCTYPE svg PUBLIC "-//W3C//DTD SVG 1.1//EN" "http://www.w3.org/Graphics/SVG/1.1/DTD/svg11.dtd">
<svg version="1.1" id="Layer_1" xmlns="http://www.w3.org/2000/svg" xmlns:xlink="http://www.w3.org/1999/xlink" x="0px" y="0px"
	 width="28.943px" height="49.866px" viewBox="0 0 28.943 49.866" style="enable-background:new 0 0 28.943 49.866;"
	 xml:space="preserve">
<path d="M23.079,10.691c-0.933-0.071-1.829,0.086-2.658,0.394c0.209-0.647,0.344-1.327,0.333-2.042c-0.048-2.983-2.189-5.481-5-6.1
	V1.125C15.754,0.504,15.149,0,14.402,0S13.05,0.504,13.05,1.125v1.813c-2.894,0.629-5.047,3.234-4.999,6.307
	c0.01,0.619,0.137,1.205,0.314,1.769c-0.832-0.281-1.727-0.415-2.657-0.32c-3.43,0.35-5.98,3.427-5.686,6.859l0.01,0.103
	c0.354,3.484,3.477,6.031,6.962,5.676c1.966-0.199,3.626-1.307,4.643-2.853v1.418h1.444v1.077h-1.849v2.147h1.849v1.347H11.52v1.674
	h1.563v0.641H11.52v1.674h1.563v19.407h2.601v-2.087h2.102v-3.106h2.032v3.106h1.893v-4.227h2.379v4.227h1.967v-6.212H15.683V30.458
	h1.74v-1.674h-1.74v-0.641h1.74V26.47h-1.74v-1.347h1.892v-2.147h-1.892v-1.077h1.188v-2.138c0.95,1.978,2.891,3.416,5.232,3.597
	c3.437,0.264,6.493-2.312,6.813-5.743l0.008-0.103C29.193,14.02,26.57,10.96,23.079,10.691z M6.835,21.762
	c-2.618,0.267-4.965-1.647-5.23-4.265L1.597,17.42c-0.22-2.579,1.696-4.891,4.273-5.153c2.617-0.266,4.964,1.647,5.23,4.265
	l0.007,0.078C11.328,19.188,9.412,21.5,6.835,21.762z M16.542,15.104l-0.019-0.001c0.007-0.003,0.016-0.005,0.023-0.008
	C16.545,15.097,16.543,15.1,16.542,15.104z M14.479,13.916l-0.078,0.001c-2.588,0-4.729-2.107-4.77-4.696
	c-0.042-2.631,2.064-4.806,4.695-4.848l0.078-0.001c2.589,0,4.728,2.107,4.77,4.696C19.216,11.699,17.11,13.874,14.479,13.916z
	 M27.343,17.469c-0.241,2.578-2.537,4.512-5.119,4.314c-2.624-0.202-4.593-2.5-4.392-5.124l0.007-0.078
	c0.24-2.578,2.536-4.512,5.118-4.314c2.624,0.202,4.593,2.5,4.392,5.125L27.343,17.469z"/>
<g>
</g>
<g>
</g>
<g>
</g>
<g>
</g>
<g>
</g>
<g>
</g>
<g>
</g>
<g>
</g>
<g>
</g>
<g>
</g>
<g>
</g>
<g>
</g>
<g>
</g>
<g>
</g>
<g>
</g>
</svg>
