<?xml version="1.0" encoding="iso-8859-1"?>
<!-- Generator: Adobe Illustrator 16.0.0, SVG Export Plug-In . SVG Version: 6.00 Build 0)  -->
<!DOCTYPE svg PUBLIC "-//W3C//DTD SVG 1.1//EN" "http://www.w3.org/Graphics/SVG/1.1/DTD/svg11.dtd">
<svg version="1.1" id="Layer_1" xmlns="http://www.w3.org/2000/svg" xmlns:xlink="http://www.w3.org/1999/xlink" x="0px" y="0px"
	 width="28.298px" height="47.193px" viewBox="0 0 28.298 47.193" style="enable-background:new 0 0 28.298 47.193;"
	 xml:space="preserve">
<g>
	<path d="M28.279,11.612c-0.004-0.047-0.006-0.102-0.009-0.162c-0.009-0.182-0.021-0.431-0.062-0.725
		c-0.157-1.139-0.441-2.154-0.865-3.09c-0.575-1.304-1.473-2.566-2.602-3.657c-1.23-1.172-2.757-2.144-4.408-2.808L19.74,0.925
		l-0.717-0.218c-0.112-0.032-0.223-0.065-0.334-0.098c-0.313-0.095-0.636-0.191-0.972-0.253l-0.068-0.014
		c-0.408-0.083-0.831-0.168-1.28-0.215l-1.227-0.105c-0.294-0.027-0.583-0.024-0.869-0.018c-0.099,0.002-0.197,0.003-0.295,0.003
		h-0.106L13.27,0.013c-0.144,0.005-0.284,0.022-0.423,0.039l-1.235,0.138l-1.029,0.206C9.279,0.668,8.286,1.068,7.663,1.341
		L7.378,1.46L6.318,2.006c-0.164,0.087-0.412,0.218-0.652,0.39C5,2.828,4.214,3.375,3.439,4.164
		c-0.981,0.972-1.767,2.05-2.357,3.248C1.046,7.494,1.009,7.575,0.971,7.656C0.862,7.892,0.738,8.159,0.656,8.426L0.469,8.959
		C0.427,9.09,0.393,9.226,0.36,9.363L0.322,9.517c-0.19,0.692-0.241,1.387-0.29,2.059L0,11.99l0.031,0.411
		c0.05,0.672,0.101,1.368,0.288,2.053l0.042,0.168c0.032,0.134,0.066,0.269,0.119,0.437l0.163,0.458
		c0.095,0.306,0.218,0.571,0.328,0.806c0.038,0.082,0.075,0.164,0.132,0.29c0.568,1.154,1.355,2.231,2.327,3.194
		c0.785,0.799,1.57,1.347,2.202,1.755c0.276,0.196,0.526,0.328,0.69,0.415l0.556,0.297l0.774,0.362
		c0.633,0.276,1.627,0.676,2.936,0.953l0.947,0.191l0.129,0.014c0,0.013-0.006,0.025-0.006,0.037c0,0.542,0.432,1.018,1.087,1.313
		c-0.655,0.255-1.087,0.668-1.087,1.138c0,0.544,0.579,1.011,1.417,1.245v4.035h-0.434v1.645h0.434v7.848H8.968
		c-0.002,0-0.003,0-0.004,0c-0.86,0-1.688,0.158-2.331,0.445c-1.366,0.608-1.513,1.588-1.513,1.981v3.711h2.57V43.84
		c0.231-0.1,0.671-0.216,1.274-0.216c0.001,0,0.002,0,0.003,0h4.107v2.145h2.569v-2.145h4.108c0.001,0,0.001,0,0.003,0
		c0.603,0,1.043,0.117,1.274,0.216v3.352h2.57v-3.714c-0.002-1.428-1.582-2.424-3.843-2.424c-0.001,0-0.003,0-0.004,0h-4.107v-7.848
		h0.434v-1.645h-0.434v-4.086c0.743-0.249,1.241-0.688,1.241-1.194c0-0.47-0.431-0.883-1.087-1.138
		c0.656-0.295,1.087-0.771,1.087-1.313c0-0.021-0.009-0.041-0.01-0.062c0.259-0.043,0.524-0.081,0.773-0.131l0.054-0.011
		c0.35-0.065,0.673-0.162,0.986-0.256c0.111-0.033,0.222-0.067,0.345-0.101l0.621-0.185l0.672-0.272
		c1.659-0.667,3.185-1.639,4.42-2.815c1.124-1.086,2.021-2.349,2.591-3.643c0.429-0.947,0.713-1.961,0.87-3.101
		c0.041-0.293,0.053-0.542,0.062-0.724c0.003-0.061,0.005-0.115,0.011-0.195l0.016-0.346L28.279,11.612z M26.183,12.19
		c-0.004,0.066-0.009,0.142-0.013,0.227c-0.007,0.141-0.015,0.315-0.043,0.52c-0.126,0.907-0.352,1.709-0.696,2.462
		c-0.462,1.036-1.196,2.052-2.116,2.935c-1.04,0.981-2.336,1.799-3.756,2.367l-0.54,0.222l-0.552,0.163
		c-0.118,0.033-0.236,0.068-0.354,0.104c-0.273,0.082-0.531,0.159-0.793,0.207l-0.083,0.017c-0.371,0.074-0.721,0.145-1.043,0.178
		l-1.206,0.104c-0.224,0.021-0.442,0.015-0.658,0.011c-0.104-0.001-0.208-0.003-0.311-0.003l-0.104,0.001l-0.531-0.003
		c-0.096-0.003-0.188-0.015-0.281-0.026c-0.07-0.008-0.14-0.016-0.196-0.022l-0.987-0.108l-0.883-0.177
		c-1.121-0.231-1.981-0.575-2.542-0.817l-1.177-0.577c-0.134-0.071-0.301-0.158-0.508-0.302c-0.57-0.365-1.241-0.825-1.897-1.483
		c-0.816-0.797-1.466-1.672-1.911-2.558c-0.042-0.094-0.086-0.188-0.13-0.282c-0.089-0.189-0.173-0.368-0.239-0.574L2.47,14.326
		c-0.027-0.084-0.047-0.172-0.069-0.258l-0.055-0.215c-0.136-0.488-0.177-1.049-0.221-1.643l-0.017-0.22l0.017-0.22
		c0.044-0.594,0.084-1.154,0.223-1.651L2.4,9.917C2.422,9.829,2.443,9.74,2.458,9.691l0.189-0.527
		C2.7,8.997,2.784,8.818,2.873,8.629C2.917,8.535,2.96,8.441,2.981,8.391C3.447,7.462,4.097,6.587,4.923,5.78
		C5.569,5.132,6.24,4.671,6.844,4.284C7.016,4.163,7.176,4.08,7.317,4.006l0.583-0.308l0.606-0.276
		c0.55-0.238,1.411-0.58,2.526-0.811l0.889-0.178l1.179-0.13c0.093-0.011,0.187-0.022,0.255-0.026l0.541-0.003l0.124,0
		c0.104,0,0.207-0.001,0.311-0.004c0.217-0.004,0.433-0.009,0.662,0.012l1.187,0.103c0.337,0.036,0.688,0.106,1.058,0.181
		l0.097,0.019c0.249,0.046,0.507,0.123,0.78,0.204c0.118,0.036,0.236,0.071,0.343,0.102l0.563,0.166l0.546,0.225
		c1.415,0.566,2.711,1.383,3.745,2.36c0.927,0.887,1.66,1.903,2.125,2.949c0.34,0.742,0.566,1.545,0.692,2.454
		c0.028,0.203,0.035,0.378,0.042,0.518c0.004,0.085,0.008,0.161,0.011,0.192l0.011,0.236L26.183,12.19z"/>
	<path d="M21.265,13.889c0.635-0.241,1.125-0.533,1.563-0.735c0.415-0.21,0.781-0.338,1.141-0.311
		c0.009,0.001,0.044-0.304,0.037-0.304l-4.672-0.291c0,0,0.003,0.062-0.021,0.15c-0.024,0.088-0.035,0.211-0.081,0.324
		c-0.071,0.232-0.191,0.439-0.191,0.44c-0.03,0.055-0.016,0.123,0.024,0.184c0.042,0.06,0.117,0.115,0.211,0.15
		c0.596,0.237,1.132,0.05,1.497-0.132c0.111-0.06,0.266-0.15,0.313-0.146h0l0.073-0.198l-0.791-0.137l-0.064,0.172l0.442,0.092
		c-0.022,0.006-0.221,0.138-0.515,0.205c-0.287,0.075-0.62,0.102-0.87,0.017c-0.079-0.027-0.123-0.088-0.097-0.137
		c-0.006-0.003,0.088-0.135,0.147-0.315c0.076-0.175,0.12-0.389,0.141-0.5l3.521,0.342c-0.263,0.113-0.531,0.27-0.836,0.438
		c-0.327,0.159-0.646,0.354-1.059,0.507l-0.291,0.114c-1.053,0.333-1.198,0.275-2.022-0.098c-0.175-0.083-0.284-0.144-0.364-0.196
		c0.389-0.46,0.627-0.99,0.627-1.562c0-0.563-0.232-1.083-0.609-1.538c0.078-0.048,0.187-0.105,0.332-0.175
		c0.822-0.375,0.967-0.434,2.024-0.107l0.29,0.113c0.807,0.319,1.385,0.712,1.902,0.938l-3.519,0.357
		c-0.008,0.002-0.027-0.221-0.115-0.421c-0.036-0.103-0.074-0.205-0.116-0.274c-0.038-0.072-0.063-0.12-0.063-0.12
		c-0.013-0.025-0.009-0.052,0.01-0.079c0.019-0.025,0.05-0.046,0.087-0.059c0.493-0.173,0.958-0.018,1.281,0.158
		c0.036,0.02,0.071,0.039,0.104,0.057l-0.439,0.094l0.063,0.171l0.789-0.14l-0.073-0.198h0.001
		c-0.047,0.004-0.199-0.087-0.314-0.145c-0.184-0.084-0.41-0.182-0.661-0.222c-0.256-0.039-0.543-0.013-0.837,0.097
		c-0.095,0.036-0.169,0.09-0.211,0.152c-0.04,0.061-0.051,0.126-0.022,0.183c0,0,0.122,0.208,0.194,0.44
		c0.049,0.111,0.058,0.236,0.082,0.323c0.023,0.088,0.023,0.15,0.023,0.15l4.672-0.311c0.009-0.001-0.035-0.305-0.041-0.303
		c-0.36,0.027-0.727-0.097-1.142-0.308c-0.443-0.198-0.933-0.487-1.569-0.727c0,0-0.073-0.029-0.146-0.057
		c-0.073-0.027-0.151-0.05-0.151-0.05c-0.545-0.169-0.866-0.224-1.177-0.192c-0.305,0.029-0.582,0.142-1.022,0.372
		c-0.134,0.07-0.232,0.127-0.316,0.181c-0.092-0.103-0.199-0.196-0.308-0.291c0.092-0.05,0.187-0.103,0.318-0.19
		c0.794-0.537,0.888-0.697,0.836-1.521l-0.029-0.229c-0.199-0.915-0.339-1.786,0.051-2.428l-0.273-0.126l-2.07,3.493l-0.05,0.084
		l0.063,0.027c0,0,0.199,0.072,0.387,0.171c0.095,0.049,0.189,0.098,0.26,0.134c0.068,0.042,0.114,0.07,0.114,0.07
		c0.052,0.033,0.126,0.039,0.213,0.019c0.085-0.019,0.173-0.063,0.243-0.123c0.443-0.366,0.408-0.791,0.327-1.072
		c-0.023-0.091-0.063-0.219-0.044-0.252v0.001l-0.178-0.093l-0.411,0.531l0.154,0.081l0.246-0.294
		c0.007,0.028,0.015,0.057,0.022,0.087c0.078,0.254,0.108,0.616-0.244,0.932c-0.055,0.05-0.137,0.069-0.181,0.041
		c0,0-0.129-0.085-0.292-0.163c-0.158-0.089-0.348-0.167-0.447-0.207l1.64-2.533c-0.052,0.561,0.138,1.024,0.239,1.644l0.03,0.23
		c0.043,0.395,0.016,0.625-0.081,0.814c-0.1,0.188-0.284,0.339-0.635,0.591c-0.125,0.089-0.224,0.154-0.305,0.201
		c-0.753-0.608-1.83-1.005-3.048-1.063c-0.016-0.08-0.028-0.186-0.039-0.323c-0.045-0.765-0.03-0.878,0.638-1.406l0.2-0.146
		c0.563-0.375,1.074-0.608,1.51-1.061l-0.961,2.78c0,0-0.05-0.013-0.125-0.032c-0.074-0.021-0.173-0.044-0.274-0.06
		c-0.201-0.037-0.403-0.068-0.403-0.068c-0.026-0.003-0.049-0.019-0.065-0.045c-0.016-0.025-0.024-0.056-0.022-0.089
		C15.467,8,15.769,7.771,16.03,7.63c0.03-0.018,0.058-0.034,0.084-0.049l-0.072,0.351l0.169,0.03l0.154-0.617L16.17,7.31v0
		c-0.013,0.035-0.143,0.104-0.232,0.157c-0.281,0.146-0.637,0.435-0.639,0.952c-0.002,0.084,0.021,0.165,0.061,0.229
		c0.041,0.064,0.094,0.103,0.154,0.109c0,0,0.207,0.033,0.414,0.07c0.207,0.039,0.409,0.098,0.409,0.098l0.065,0.017l0.035-0.089
		l1.465-3.731L17.609,5.04c-0.134,0.363-0.406,0.662-0.759,0.971c-0.364,0.369-0.759,0.535-1.199,0.848l-0.2,0.147
		c-0.347,0.262-0.518,0.444-0.607,0.662c-0.088,0.216-0.087,0.464-0.038,0.89c0.016,0.137,0.035,0.229,0.054,0.319
		c-0.058-0.001-0.112-0.012-0.171-0.012c-0.094,0-0.181,0.015-0.273,0.019c-0.013-0.091-0.029-0.187-0.063-0.327
		c-0.105-0.425-0.195-0.673-0.363-0.888c-0.17-0.219-0.409-0.396-0.868-0.66L12.86,6.86c-0.57-0.301-1.072-0.499-1.557-0.803
		c-0.465-0.266-0.833-0.52-1.075-0.839l-0.274,0.09l2.859,3.637c0,0,0.22-0.055,0.44-0.11c0.223-0.04,0.446-0.078,0.446-0.078
		c0.06-0.006,0.101-0.046,0.12-0.109c0.018-0.063,0.012-0.144-0.021-0.228c-0.194-0.519-0.663-0.804-1.019-0.95
		c-0.115-0.053-0.28-0.122-0.306-0.156v0L12.28,7.35l0.388,0.616l0.17-0.03l-0.206-0.351c0.017,0.008,0.244,0.107,0.472,0.262
		c0.23,0.149,0.456,0.377,0.548,0.59c0.029,0.068,0.011,0.128-0.041,0.133c0,0-0.598,0.097-0.799,0.164L10.818,6.02
		c0.578,0.369,1.229,0.62,1.959,0.994l0.263,0.145c0.89,0.527,0.938,0.638,1.173,1.404c0.041,0.142,0.066,0.249,0.081,0.33
		c-1.184,0.075-2.226,0.468-2.959,1.063c-0.117-0.046-0.262-0.112-0.474-0.221c-0.488-0.255-0.748-0.407-0.917-0.595
		C9.777,8.946,9.689,8.721,9.625,8.323L9.594,8.094C9.563,7.788,9.561,7.512,9.547,7.249c0.001-0.242-0.045-0.497-0.11-0.727
		l2.603,2.469c0,0-0.047,0.02-0.119,0.05S11.754,9.11,11.664,9.16c-0.092,0.048-0.184,0.096-0.253,0.131
		c-0.066,0.041-0.111,0.068-0.111,0.068c-0.022,0.014-0.058,0.017-0.101,0.009c-0.043-0.008-0.086-0.026-0.125-0.05
		c-0.506-0.319-0.567-0.679-0.559-0.934c0-0.03,0-0.059,0-0.085l0.373,0.293l0.154-0.08l-0.638-0.533l-0.179,0.092
		c0.033,0.032,0.026,0.16,0.026,0.251C10.24,8.6,10.317,9.032,10.946,9.398c0.1,0.06,0.214,0.104,0.321,0.124
		c0.108,0.02,0.194,0.015,0.246-0.018c0,0,0.047-0.034,0.124-0.074c0.077-0.04,0.179-0.093,0.281-0.145
		c0.209-0.097,0.421-0.182,0.421-0.182L8.974,5.711L8.719,5.84c0.571,0.559,0.521,1.273,0.595,2.23L9.345,8.3
		c0.164,0.823,0.307,0.982,1.403,1.524c0.199,0.097,0.354,0.165,0.485,0.217c-0.108,0.094-0.212,0.188-0.304,0.292
		c-0.124-0.061-0.28-0.128-0.492-0.212C9.848,9.888,9.483,9.774,9.1,9.744C8.909,9.729,8.714,9.734,8.48,9.76
		C8.255,9.792,7.998,9.847,7.667,9.93c0,0-0.092,0.024-0.184,0.047c-0.089,0.028-0.178,0.056-0.178,0.056
		c-0.752,0.238-1.414,0.517-1.818,0.729c-0.416,0.217-0.78,0.343-1.14,0.321c0,0-0.052,0.29-0.043,0.292l5.443,0.304l0.154,0.01
		c-0.002,0,0.008-0.072,0.011-0.072c0.008,0.003,0.027-0.226,0.114-0.432c0.037-0.106,0.076-0.21,0.12-0.281
		c0.039-0.074,0.064-0.123,0.064-0.123c0.027-0.058,0.01-0.12-0.053-0.182s-0.165-0.117-0.29-0.153
		c-0.388-0.114-0.746-0.137-1.067-0.104c-0.311,0.04-0.583,0.137-0.803,0.22C7.85,10.617,7.67,10.71,7.608,10.705h0.001
		l-0.073,0.198l1.019,0.145l0.063-0.173l-0.571-0.096c0.041-0.018,0.083-0.037,0.128-0.056c0.398-0.17,0.952-0.328,1.603-0.149
		c0.103,0.026,0.167,0.088,0.141,0.138c0,0-0.019,0.035-0.048,0.092c-0.027,0.058-0.077,0.13-0.104,0.221
		c-0.033,0.089-0.066,0.185-0.098,0.271c-0.02,0.091-0.037,0.172-0.048,0.227l-4.377-0.365c0.13-0.058,0.264-0.125,0.402-0.202
		c0.07-0.04,0.143-0.079,0.217-0.12c0.086-0.04,0.188-0.077,0.284-0.118c0.392-0.161,0.801-0.345,1.294-0.497l0.351-0.111
		c1.279-0.318,1.457-0.258,2.55,0.121c0.238,0.086,0.399,0.152,0.507,0.206c-0.371,0.452-0.599,0.968-0.599,1.525
		c0,0.568,0.236,1.094,0.62,1.552c-0.107,0.056-0.278,0.126-0.541,0.22c-1.097,0.376-1.277,0.435-2.553,0.108l-0.351-0.111
		c-0.496-0.153-0.897-0.344-1.293-0.504c-0.209-0.079-0.366-0.165-0.497-0.242c-0.139-0.077-0.272-0.145-0.403-0.204l4.382-0.347
		c0.008-0.002,0.027,0.221,0.115,0.421c0.036,0.103,0.075,0.205,0.117,0.274c0.038,0.072,0.063,0.12,0.063,0.12
		c0.013,0.024,0.005,0.052-0.023,0.078c-0.027,0.025-0.069,0.047-0.119,0.061c-0.648,0.173-1.209,0.017-1.602-0.159
		c-0.045-0.019-0.088-0.039-0.126-0.056l0.569-0.095l-0.063-0.171l-1.021,0.14l0.073,0.198h0c0.06-0.004,0.245,0.087,0.385,0.144
		c0.221,0.084,0.494,0.182,0.805,0.223c0.317,0.039,0.68,0.013,1.067-0.097c0.125-0.036,0.228-0.091,0.292-0.153
		c0.062-0.061,0.084-0.126,0.055-0.182c0,0-0.116-0.19-0.182-0.406c-0.044-0.103-0.064-0.214-0.083-0.297
		c-0.018-0.083-0.03-0.138-0.03-0.138c-0.003,0-0.006-0.072-0.006-0.072l-0.154,0.008l-5.446,0.283
		c-0.008,0.001,0.033,0.294,0.038,0.293c0.359-0.021,0.724,0.106,1.14,0.326c0.397,0.216,1.06,0.499,1.812,0.739
		c0,0,0.087,0.029,0.176,0.058c0.091,0.024,0.182,0.049,0.182,0.049c0.654,0.169,1.044,0.224,1.434,0.192
		c0.384-0.028,0.75-0.142,1.343-0.372c0.23-0.089,0.399-0.162,0.526-0.225c0.102,0.111,0.221,0.212,0.342,0.313
		c-0.14,0.054-0.312,0.131-0.533,0.238c-0.551,0.271-0.852,0.448-1.043,0.657c-0.185,0.205-0.289,0.47-0.349,0.868l-0.031,0.23
		c-0.068,0.954-0.017,1.669-0.587,2.232l0.255,0.128l3.349-3.401c0,0-0.21-0.089-0.421-0.179c-0.103-0.053-0.205-0.106-0.281-0.145
		c-0.078-0.038-0.125-0.072-0.125-0.072c-0.052-0.033-0.138-0.039-0.246-0.02c-0.105,0.021-0.221,0.065-0.319,0.125
		c-0.626,0.367-0.703,0.801-0.688,1.075c0,0.092,0.007,0.221-0.026,0.252h0l0.178,0.092l0.635-0.534l-0.154-0.081l-0.373,0.295
		c0.001-0.014-0.005-0.192,0.069-0.399c0.072-0.212,0.236-0.461,0.486-0.621c0.079-0.05,0.18-0.07,0.225-0.041
		c0,0,0.033,0.02,0.085,0.053c0.054,0.027,0.128,0.065,0.208,0.107c0.157,0.089,0.35,0.162,0.448,0.204L9.467,17.47
		c0.063-0.23,0.109-0.487,0.106-0.726c0.013-0.261,0.015-0.541,0.044-0.843l0.03-0.231c0.063-0.398,0.147-0.62,0.314-0.815
		c0.168-0.189,0.427-0.342,0.913-0.597c0.248-0.129,0.403-0.197,0.522-0.24c0.733,0.571,1.758,0.943,2.915,1.013
		c-0.006,0.084-0.026,0.198-0.079,0.387c-0.232,0.765-0.281,0.878-1.168,1.406l-0.261,0.146c-0.728,0.373-1.379,0.627-1.956,0.998
		l1.981-2.718c0,0,0.05,0.012,0.124,0.031c0.074,0.021,0.174,0.045,0.274,0.061c0.201,0.036,0.403,0.069,0.403,0.069
		c0.026,0.002,0.044,0.018,0.052,0.044c0.007,0.025,0.004,0.056-0.011,0.09c-0.178,0.434-0.575,0.663-0.907,0.804
		c-0.038,0.017-0.074,0.033-0.107,0.048l0.203-0.35l-0.169-0.031l-0.386,0.617l0.194,0.035c0.026-0.034,0.19-0.104,0.305-0.156
		c0.354-0.146,0.823-0.436,1.013-0.952c0.032-0.083,0.039-0.165,0.02-0.229s-0.061-0.104-0.121-0.109c0,0-0.223-0.037-0.446-0.077
		c-0.223-0.047-0.441-0.109-0.441-0.109l-2.84,3.645l0.274,0.09c0.242-0.319,0.607-0.575,1.071-0.842
		c0.484-0.311,0.984-0.502,1.553-0.809l0.261-0.147c0.458-0.263,0.695-0.443,0.865-0.662c0.167-0.215,0.256-0.464,0.359-0.89
		c0.04-0.164,0.062-0.284,0.073-0.382c0.083,0.003,0.162,0.018,0.246,0.018c0.055,0,0.107-0.01,0.162-0.011
		c-0.024,0.097-0.046,0.216-0.067,0.378c-0.052,0.425-0.055,0.674,0.032,0.889c0.089,0.216,0.258,0.403,0.604,0.664l0.199,0.148
		c0.438,0.318,0.83,0.478,1.193,0.853c0.35,0.311,0.621,0.61,0.752,0.974l0.292-0.082l-1.441-3.737l-0.034-0.09l-0.066,0.017
		c0,0-0.202,0.06-0.408,0.096c-0.207,0.039-0.414,0.069-0.414,0.069c-0.06,0.006-0.113,0.045-0.154,0.109
		c-0.041,0.063-0.064,0.145-0.063,0.228c-0.002,0.517,0.353,0.808,0.632,0.955c0.089,0.053,0.219,0.123,0.232,0.156l0.195-0.035
		l-0.15-0.618l-0.169,0.03l0.07,0.352c-0.027-0.016-0.055-0.032-0.084-0.049c-0.26-0.141-0.561-0.374-0.58-0.808
		c-0.003-0.067,0.035-0.128,0.087-0.133c0,0,0.15-0.019,0.325-0.052c0.176-0.027,0.374-0.077,0.476-0.105l0.943,2.783
		c-0.434-0.452-0.943-0.689-1.501-1.064l-0.201-0.148c-0.664-0.528-0.677-0.645-0.627-1.408c0.016-0.187,0.036-0.299,0.06-0.383
		c1.187-0.056,2.24-0.432,2.99-1.013c0.087,0.046,0.192,0.112,0.344,0.221c0.349,0.254,0.532,0.407,0.63,0.595
		c0.097,0.192,0.122,0.418,0.076,0.815l-0.03,0.23c-0.105,0.62-0.299,1.082-0.249,1.645l-1.624-2.542c0,0,0.047-0.02,0.118-0.05
		c0.072-0.029,0.167-0.068,0.258-0.119c0.092-0.048,0.184-0.096,0.252-0.131c0.067-0.041,0.111-0.068,0.111-0.068
		c0.022-0.014,0.053-0.017,0.088-0.009c0.034,0.009,0.067,0.026,0.094,0.051c0.35,0.319,0.315,0.678,0.238,0.934
		c-0.009,0.029-0.017,0.059-0.023,0.085l-0.244-0.293l-0.154,0.08L18.27,16l0.179-0.092c-0.02-0.032,0.021-0.161,0.044-0.252
		c0.085-0.276,0.12-0.708-0.32-1.074c-0.069-0.061-0.156-0.104-0.241-0.124c-0.086-0.021-0.161-0.015-0.213,0.017
		c0,0.001-0.044,0.031-0.114,0.07c-0.071,0.037-0.166,0.085-0.261,0.134c-0.19,0.096-0.388,0.171-0.388,0.171l-0.063,0.026
		l0.049,0.084l2.048,3.504l0.274-0.126c-0.387-0.645-0.242-1.518-0.037-2.431l0.03-0.229c0.057-0.823-0.035-0.983-0.826-1.523
		c-0.146-0.099-0.257-0.164-0.356-0.216c0.121-0.101,0.241-0.201,0.343-0.312c0.089,0.058,0.199,0.122,0.351,0.2
		c0.441,0.228,0.719,0.339,1.024,0.368c0.312,0.031,0.629-0.029,1.176-0.198C20.974,14.004,21.265,13.889,21.265,13.889z
		 M10.943,12.556c-0.053-0.174-0.098-0.366-0.098-0.575c0.001-0.284,0.081-0.55,0.163-0.752c0.032-0.069,0.057-0.139,0.098-0.205
		c0.009-0.016,0.02-0.038,0.028-0.052c0.591-0.902,1.961-1.535,3.556-1.535c2.132,0,3.866,1.132,3.866,2.524
		c0,1.392-1.734,2.524-3.866,2.524C12.873,14.485,11.356,13.661,10.943,12.556z"/>
	<path d="M17.947,11.981c0-0.062-0.009-0.146-0.025-0.272c-0.028-0.16-0.095-0.403-0.251-0.657
		c-0.288-0.483-0.884-0.916-1.549-1.128c-0.508-0.171-0.998-0.208-1.32-0.208c-0.18,0-0.348,0.011-0.498,0.029
		c-0.491,0.056-0.809,0.175-0.805,0.175c0,0-0.09,0.022-0.235,0.084c-0.114,0.047-0.327,0.135-0.554,0.285
		c-0.284,0.183-0.506,0.387-0.678,0.622c-0.238,0.318-0.371,0.701-0.374,1.081c0.003,0.376,0.136,0.759,0.372,1.077
		c0.173,0.236,0.396,0.439,0.678,0.622c0.227,0.148,0.432,0.234,0.553,0.285c0.058,0.024,0.149,0.061,0.22,0.08
		c0.133,0.066,0.376,0.129,0.821,0.18c0.151,0.018,0.319,0.029,0.497,0.029c0.324,0,0.814-0.036,1.319-0.207
		c0.669-0.212,1.265-0.646,1.552-1.126c0.157-0.256,0.224-0.5,0.254-0.673C17.94,12.128,17.949,12.043,17.947,11.981z
		 M17.258,12.084c-0.002,0.021-0.005,0.046-0.008,0.073c-0.019,0.103-0.062,0.261-0.167,0.432c-0.205,0.344-0.666,0.672-1.176,0.834
		c-0.411,0.138-0.812,0.167-1.076,0.167c-0.146,0-0.283-0.008-0.408-0.023c-0.397-0.045-0.654-0.14-0.656-0.142l-0.046-0.014
		c-0.026-0.008-0.073-0.025-0.136-0.052c-0.105-0.043-0.265-0.109-0.438-0.224c-0.213-0.138-0.377-0.287-0.502-0.457
		c-0.153-0.206-0.242-0.457-0.243-0.686c0.001-0.232,0.09-0.483,0.245-0.689c0.124-0.169,0.288-0.318,0.502-0.457
		c0.173-0.114,0.332-0.18,0.439-0.224c0.093-0.04,0.151-0.057,0.18-0.066c0.002-0.001,0.259-0.096,0.658-0.141
		c0.123-0.015,0.26-0.025,0.406-0.025c0.264,0,0.666,0.03,1.08,0.17c0.507,0.161,0.967,0.488,1.174,0.835
		c0.104,0.168,0.146,0.327,0.163,0.416c0.004,0.033,0.007,0.062,0.01,0.087V12.084z"/>
	<ellipse cx="14.802" cy="11.99" rx="1.623" ry="1.056"/>
	<path d="M14.094,3.07c-6.198,0-11.24,3.987-11.24,8.888c0,4.9,5.042,8.886,11.24,8.886c6.197,0,11.24-3.986,11.24-8.886
		C25.334,7.058,20.292,3.07,14.094,3.07z M22.119,16.635L20,15.211c0.003,0.004-0.173,0.127-0.173,0.127
		c0.04,0.048,0.03,0.307,0.005,0.527c-0.021,0.147-0.053,0.305-0.085,0.477c-0.031,0.169-0.022,0.394-0.034,0.58
		c-0.007,0.389,0.024,0.792,0.243,1.071l0.08,0.101c0,0,0.8-0.461,0.786-0.481c0.393-0.284,0.316-0.565,0.114-0.733l-0.232,0.161
		c0.039,0.037,0.105,0.111,0.091,0.196c-0.009,0.063-0.062,0.129-0.155,0.194c0,0-0.114,0.092-0.244,0.16
		c-0.127,0.074-0.253,0.147-0.253,0.147c-0.14-0.251-0.141-0.583-0.142-0.941c0.001-0.177,0.011-0.352,0.019-0.513
		c0.018-0.152,0.047-0.286,0.058-0.418c0.015-0.134,0.021-0.24,0.022-0.326l1.808,1.312c-1.756,1.647-4.38,2.722-7.33,2.83
		c0.032-0.396,0.135-1.659,0.187-2.297c0.067,0.061,0.153,0.131,0.264,0.218c0.105,0.079,0.228,0.146,0.36,0.257
		c0.137,0.13,0.279,0.266,0.417,0.397c0.282,0.275,0.557,0.538,0.666,0.816c0,0-0.583,0.105-0.585,0.093
		c-0.114,0.01-0.202-0.005-0.259-0.048c-0.077-0.058-0.092-0.158-0.094-0.212l-0.285,0.029c0,0.163,0.061,0.3,0.177,0.388
		c0.117,0.087,0.283,0.121,0.486,0.101c0.002,0.022,0.922-0.156,0.922-0.156l-0.027-0.126c-0.08-0.348-0.387-0.668-0.708-0.971
		c-0.16-0.139-0.33-0.322-0.484-0.432c-0.148-0.101-0.294-0.2-0.427-0.291c-0.091-0.063-0.193-0.15-0.269-0.229
		c-0.074-0.075-0.127-0.127-0.128-0.129l-0.208,0.008l-0.317,2.597c-0.057,0.001-0.112,0.007-0.169,0.007
		c-0.255,0-0.506-0.015-0.756-0.029l0.627-2.578l-0.208-0.007c0.001-0.004,0.002-0.007,0.002-0.007
		c-0.032,0.055-0.302,0.24-0.541,0.363c-0.172,0.091-0.36,0.19-0.552,0.291c-0.199,0.111-0.434,0.268-0.648,0.393
		c-0.433,0.27-0.847,0.548-1.038,0.86L10.912,19.1c0,0,0.219,0.052,0.438,0.104c0.109,0.026,0.219,0.053,0.301,0.073
		c0.082,0.022,0.139,0.027,0.139,0.026c0.476,0.073,0.743-0.174,0.836-0.43l-0.277-0.039c-0.021,0.051-0.072,0.146-0.168,0.196
		c-0.071,0.038-0.166,0.048-0.277,0.032c-0.004,0.013-0.559-0.123-0.559-0.123c0.199-0.249,0.569-0.479,0.949-0.722
		c0.187-0.122,0.379-0.247,0.565-0.367c0.176-0.107,0.329-0.176,0.467-0.255c0.145-0.081,0.257-0.155,0.348-0.216l-0.646,2.275
		c-2.781-0.226-5.222-1.324-6.865-2.926c0.337-0.177,1.605-0.842,2.234-1.172c-0.021,0.086-0.041,0.193-0.058,0.327
		c-0.069,0.49-0.013,1.266-0.378,1.689c0,0-0.474-0.29-0.466-0.301c-0.086-0.064-0.131-0.126-0.131-0.183
		c0-0.077,0.077-0.138,0.123-0.167l-0.22-0.159c-0.141,0.084-0.218,0.192-0.217,0.307c0.001,0.116,0.08,0.235,0.23,0.351
		c0,0,0.042,0.032,0.107,0.082c0.069,0.043,0.161,0.102,0.251,0.16c0.184,0.116,0.367,0.232,0.367,0.232l0.103-0.084
		c0.554-0.481,0.455-1.354,0.527-1.926c0.027-0.221,0.084-0.479,0.143-0.527c0,0-0.002,0.001-0.008,0.005l-0.169-0.132l-2.637,1.294
		c-0.22-0.23-0.426-0.468-0.612-0.717l2.749-1.065l-0.132-0.167c-0.093,0.018-0.511-0.056-0.834-0.156
		c-1.025-0.2-1.949-0.918-2.623-0.832l-0.121,0.019c0,0,0.068,0.214,0.137,0.428c0.091,0.202,0.183,0.405,0.183,0.405
		c0.186,0.43,0.565,0.47,0.8,0.402l-0.146-0.235c-0.05,0.013-0.151,0.03-0.245-0.016c-0.067-0.036-0.124-0.106-0.171-0.208
		c0,0-0.242-0.515-0.224-0.523c0.278,0.009,0.664,0.158,1.063,0.323c0.197,0.084,0.397,0.175,0.607,0.247
		c0.215,0.073,0.442,0.135,0.629,0.189c0.198,0.059,0.376,0.084,0.513,0.111l-2.361,0.844C4.428,14.494,4,13.264,4,11.958
		c0-1.3,0.425-2.524,1.166-3.601c0.305,0.11,1.707,0.618,2.393,0.867C7.421,9.248,7.248,9.279,7.044,9.33
		C6.858,9.384,6.631,9.445,6.417,9.517C6.207,9.589,5.999,9.674,5.805,9.76c-0.396,0.166-0.791,0.308-1.068,0.318
		c0,0,0.011-0.035,0.027-0.086c0.023-0.048,0.053-0.113,0.083-0.178c0.061-0.129,0.12-0.259,0.12-0.259
		c0.048-0.1,0.101-0.173,0.174-0.205c0.097-0.044,0.195-0.027,0.245-0.014l0.146-0.236C5.381,9.055,5.22,9.063,5.075,9.132
		C4.928,9.198,4.801,9.317,4.727,9.498c0,0-0.091,0.203-0.183,0.406c-0.078,0.208-0.142,0.424-0.142,0.424l0.121,0.02
		c0.674,0.09,1.603-0.624,2.629-0.818c0.165-0.046,0.367-0.093,0.537-0.114c0.166-0.024,0.283-0.04,0.287-0.041L8.119,9.21
		L5.339,8.12c0.17-0.228,0.356-0.447,0.555-0.66l2.687,1.309C8.577,8.764,8.749,8.635,8.749,8.635
		c0.004,0.003,0.008,0.005,0.008,0.005C8.696,8.592,8.638,8.335,8.61,8.113C8.535,7.54,8.631,6.667,8.077,6.188L7.974,6.104
		c0,0-0.737,0.458-0.724,0.477C6.89,6.858,7.009,7.102,7.24,7.237l0.22-0.159c-0.046-0.03-0.125-0.09-0.124-0.166
		c0-0.057,0.045-0.119,0.131-0.184C7.459,6.718,7.931,6.426,7.931,6.426c0.366,0.422,0.313,1.196,0.385,1.689
		c0.018,0.134,0.038,0.24,0.06,0.326l-2.28-1.186c1.631-1.628,4.079-2.749,6.875-2.988c0.063,0.219,0.476,1.645,0.674,2.333
		c-0.09-0.059-0.203-0.137-0.348-0.214c-0.139-0.078-0.292-0.146-0.469-0.254c-0.187-0.121-0.38-0.245-0.568-0.367
		c-0.381-0.237-0.752-0.471-0.953-0.717c0,0,0.14-0.033,0.279-0.065c0.139-0.033,0.28-0.061,0.28-0.061
		c0.112-0.017,0.206-0.006,0.278,0.031c0.099,0.05,0.149,0.144,0.17,0.195l0.278-0.039c-0.059-0.156-0.169-0.284-0.316-0.36
		c-0.148-0.077-0.325-0.099-0.523-0.068c0,0-0.056,0.008-0.138,0.029c-0.082,0.02-0.192,0.046-0.301,0.072
		c-0.219,0.053-0.438,0.105-0.438,0.105l0.07,0.115c0.192,0.312,0.608,0.589,1.042,0.857c0.215,0.127,0.449,0.279,0.649,0.39
		c0.192,0.102,0.38,0.2,0.553,0.291c0.239,0.123,0.51,0.303,0.542,0.36c0,0-0.001-0.002-0.002-0.007l0.208-0.008l-0.655-2.64
		c0.269-0.016,0.538-0.031,0.812-0.031c0.071,0,0.141,0.007,0.212,0.008l0.307,2.663l0.208,0.015
		c0.012-0.055,0.215-0.241,0.399-0.363c0.134-0.091,0.28-0.19,0.43-0.291c0.076-0.041,0.159-0.135,0.242-0.206
		c0.082-0.075,0.165-0.149,0.246-0.222c0.323-0.302,0.633-0.622,0.714-0.969l0.029-0.126c0,0-0.23-0.043-0.459-0.086
		c-0.23-0.043-0.461-0.074-0.461-0.074c-0.491-0.048-0.666,0.222-0.666,0.49l0.283,0.028c0.003-0.054,0.019-0.155,0.096-0.212
		c0.057-0.042,0.145-0.059,0.26-0.048c0,0.001,0.147,0.017,0.292,0.044c0.146,0.026,0.291,0.052,0.291,0.052
		c-0.11,0.276-0.388,0.542-0.67,0.811c-0.139,0.131-0.283,0.267-0.421,0.397c-0.132,0.112-0.255,0.178-0.361,0.257
		c-0.112,0.081-0.198,0.156-0.265,0.216l-0.177-2.364c2.974,0.119,5.609,1.222,7.357,2.9c-0.352,0.252-1.342,0.962-1.85,1.327
		c-0.001-0.086-0.008-0.193-0.022-0.326c-0.01-0.128-0.036-0.269-0.054-0.42c-0.008-0.161-0.016-0.334-0.017-0.511
		c0.004-0.361,0.007-0.689,0.147-0.941c0,0,0.126,0.074,0.253,0.147c0.126,0.075,0.242,0.164,0.242,0.164
		c0.094,0.066,0.146,0.132,0.155,0.195c0.013,0.085-0.053,0.158-0.092,0.194l0.233,0.163c0.124-0.104,0.183-0.229,0.163-0.356
		c-0.019-0.13-0.114-0.257-0.277-0.374c0.015-0.021-0.783-0.486-0.783-0.486l-0.081,0.1c-0.22,0.277-0.253,0.679-0.248,1.067
		c0.011,0.185-0.001,0.414,0.03,0.582c0.031,0.171,0.065,0.325,0.082,0.477c0.027,0.221,0,0.52,0,0.52s0.169,0.132,0.166,0.136
		l2.165-1.437c0.212,0.219,0.411,0.447,0.593,0.683l-2.302,1.2l0.143,0.164c-0.004,0.001-0.008,0.003-0.008,0.003
		c0.073-0.017,0.422,0.056,0.694,0.157c0.393,0.12,0.841,0.324,1.296,0.498c0.439,0.176,0.84,0.338,1.172,0.274l0.12-0.023
		c0,0-0.072-0.223-0.143-0.445c-0.098-0.211-0.195-0.422-0.195-0.422c-0.096-0.225-0.246-0.342-0.394-0.393
		c-0.146-0.052-0.291-0.038-0.409,0.008l0.153,0.243c0.049-0.017,0.147-0.041,0.241,0.002c0.067,0.035,0.125,0.106,0.175,0.211
		c0,0,0.256,0.534,0.236,0.543c-0.275,0.001-0.661-0.138-1.057-0.288c-0.383-0.162-0.829-0.294-1.136-0.407
		c-0.166-0.059-0.316-0.084-0.431-0.111l2.035-0.973c0.774,1.095,1.215,2.348,1.215,3.679c0,1.337-0.445,2.597-1.227,3.696
		c-0.428-0.202-1.462-0.691-2.003-0.947c0.115-0.027,0.264-0.054,0.428-0.114c0.644-0.186,1.65-0.686,2.188-0.707
		c0,0-0.012,0.036-0.03,0.089c-0.014,0.054-0.043,0.123-0.077,0.189c-0.063,0.134-0.125,0.269-0.125,0.269
		c-0.05,0.104-0.109,0.176-0.175,0.211c-0.088,0.047-0.191,0.021-0.238,0.006l-0.153,0.242c0.146,0.056,0.304,0.054,0.449-0.01
		c0.153-0.062,0.268-0.194,0.351-0.38c0,0,0.102-0.208,0.19-0.423c0.072-0.223,0.144-0.446,0.144-0.446l-0.119-0.022
		c-0.332-0.062-0.737,0.099-1.169,0.281c-0.457,0.173-0.899,0.382-1.294,0.503c-0.271,0.101-0.616,0.179-0.69,0.161
		c0,0,0.002,0,0.008,0.003l-0.143,0.164l2.269,1.172C22.571,16.151,22.354,16.398,22.119,16.635z"/>
</g>
<g>
</g>
<g>
</g>
<g>
</g>
<g>
</g>
<g>
</g>
<g>
</g>
<g>
</g>
<g>
</g>
<g>
</g>
<g>
</g>
<g>
</g>
<g>
</g>
<g>
</g>
<g>
</g>
<g>
</g>
</svg>
