<?xml version="1.0" encoding="iso-8859-1"?>
<!-- Generator: Adobe Illustrator 16.0.0, SVG Export Plug-In . SVG Version: 6.00 Build 0)  -->
<!DOCTYPE svg PUBLIC "-//W3C//DTD SVG 1.1//EN" "http://www.w3.org/Graphics/SVG/1.1/DTD/svg11.dtd">
<svg version="1.1" id="Layer_1" xmlns="http://www.w3.org/2000/svg" xmlns:xlink="http://www.w3.org/1999/xlink" x="0px" y="0px"
	 width="23.95px" height="48.995px" viewBox="0 0 23.95 48.995" style="enable-background:new 0 0 23.95 48.995;"
	 xml:space="preserve">
<path d="M21.513,9.767c-0.396,0-0.822,0.193-1.228,0.466c0.009-0.069,0.021-0.138,0.021-0.205c0-0.893-0.723-1.616-1.616-1.616
	c-0.053,0-0.107,0.007-0.163,0.018c0.622-0.932,1.027-1.723,1.023-2.196c-0.021-2.352-1.952-4.266-4.344-4.266
	c-0.59,0.007-1.16,0.14-1.684,0.369c0.06-0.155,0.099-0.311,0.099-0.46C13.621,0.842,12.779,0,11.744,0
	C10.71,0,9.868,0.842,9.868,1.876c0,0.131,0.028,0.267,0.076,0.401c-0.459-0.16-0.952-0.245-1.46-0.245h0
	c-1.148,0.01-2.225,0.469-3.031,1.29C4.647,4.144,4.208,5.228,4.219,6.377c0.005,0.469,0.367,1.196,0.928,2.047
	c-0.833,0.065-1.491,0.754-1.491,1.604c0,0.069,0.013,0.142,0.021,0.212c-0.409-0.276-0.84-0.474-1.24-0.474
	C1.093,9.767,0,10.859,0,12.204c0,1.264,1.023,3.139,2.438,3.139c0.234,0,0.478-0.088,0.722-0.231
	c0.435,3.154,3.483,5.91,7.675,6.311v3.916c0,0-0.221,0.983-0.408,2.046c-0.83,0.44-1.385,1.213-1.385,2.102
	c0,0.905,0.581,1.689,1.438,2.124c0.173,0.793,0.355,1.442,0.355,1.442v6.705h-7.88v3.886h1.876v1.569H9.87
	c0.136-0.78,0.748-1.396,1.527-1.535v3.722c-0.874-0.155-1.539-0.906-1.556-1.821H6.171v1.696h1.876v1.722h6.484v-1.722h1.917
	v-1.696h-2.83c-0.019,0.94-0.722,1.705-1.633,1.829v-3.737c0.815,0.112,1.463,0.737,1.604,1.543h4.735v-1.569h1.787v-3.886h-7.012
	v-6.705c0,0,0.14-0.593,0.264-1.384c0.928-0.418,1.567-1.233,1.567-2.183c0-0.945-0.631-1.755-1.549-2.177
	c-0.129-1.027-0.282-1.886-0.282-1.886v-4.026c4.019-0.48,7.076-3.28,7.576-6.359c0.282,0.187,0.566,0.306,0.838,0.306
	c1.414,0,2.438-1.875,2.438-3.139C23.95,10.859,22.857,9.767,21.513,9.767z M15.246,3.01c1.783,0,3.246,1.45,3.262,3.232
	c0.004,0.438-0.765,1.611-1.931,3.106c-0.305-0.369-0.62-0.739-0.935-1.104V7.466h-0.686c-1.063-1.194-2.044-2.23-2.569-2.777
	l0.167-0.247C13.152,3.555,14.147,3.021,15.246,3.01z M15.414,8.782c0.287,0.334,0.564,0.664,0.831,0.987
	c-1.045,1.311-2.347,2.821-3.693,4.293l-0.021-5.28H15.414z M12.483,7.466l0.043-1.878c0.56,0.592,1.147,1.228,1.73,1.878H12.483z
	 M11.744,0.521c0.748,0,1.355,0.609,1.355,1.355c0,0.316-0.302,0.754-0.67,1.153c-0.137,0.12-0.266,0.25-0.388,0.387
	c-0.069,0.064-0.136,0.124-0.203,0.182c-0.309-0.375-0.676-0.691-1.086-0.938C10.54,2.376,10.39,2.098,10.39,1.876
	C10.39,1.13,10.998,0.521,11.744,0.521z M6.197,4.052c0.611-0.622,1.427-0.97,2.332-0.978c1.055,0,2.048,0.517,2.654,1.379
	l0.17,0.243c-0.511,0.549-1.458,1.579-2.492,2.77H7.915v1.108C7.67,8.865,7.427,9.159,7.188,9.453
	C6.059,8.034,5.266,6.854,5.261,6.367C5.253,5.496,5.586,4.675,6.197,4.052z M11.267,7.466H9.552
	c0.594-0.679,1.192-1.345,1.76-1.961L11.267,7.466z M11.296,14.145c-1.275-1.354-2.655-2.901-3.773-4.274
	c0.288-0.356,0.586-0.72,0.896-1.088h2.869L11.296,14.145z M2.438,14.822c-0.987,0-1.917-1.476-1.917-2.618
	c0-1.057,0.86-1.916,1.917-1.916c0.491,0,1.128,0.468,1.672,0.98c0.112,0.148,0.243,0.275,0.384,0.384
	C4.695,11.863,4.869,12.064,5,12.226C4.354,13.289,3.168,14.822,2.438,14.822z M8.541,17.42c-0.006,0-0.012,0.001-0.018,0.002
	v-0.116c-1.925,0-3.505-1.565-3.522-3.49c-0.004-0.429,0.552-1.351,1.396-2.494c0.181-0.183,0.35-0.382,0.497-0.569
	c1.711,2.093,3.749,4.228,4.523,5.026c-0.647,0.945-1.713,1.516-2.861,1.527L8.541,17.42z M17.758,16.186
	c-0.66,0.673-1.541,1.047-2.518,1.056c-1.132,0-2.196-0.549-2.853-1.47c0.775-0.825,2.818-3.035,4.526-5.17
	c1.088,1.387,1.849,2.553,1.854,3.085C18.777,14.626,18.418,15.513,17.758,16.186z M19.286,13.793c0-0.038,0.004-0.074,0.004-0.112
	c0-0.013-0.003-0.028-0.004-0.043c0.009,0.013,0.018,0.023,0.027,0.036C19.303,13.714,19.295,13.754,19.286,13.793z M21.513,14.822
	c-0.311,0-0.706-0.279-1.105-0.683l-0.211-0.222c-0.468-0.516-0.924-1.162-1.246-1.692c0.129-0.16,0.301-0.357,0.499-0.566
	c0.153-0.113,0.292-0.25,0.411-0.409c0.54-0.506,1.167-0.962,1.653-0.962c1.057,0,1.917,0.859,1.917,1.916
	C23.429,13.347,22.5,14.822,21.513,14.822z"/>
<g>
</g>
<g>
</g>
<g>
</g>
<g>
</g>
<g>
</g>
<g>
</g>
<g>
</g>
<g>
</g>
<g>
</g>
<g>
</g>
<g>
</g>
<g>
</g>
<g>
</g>
<g>
</g>
<g>
</g>
</svg>
