<?xml version="1.0" encoding="iso-8859-1"?>
<!-- Generator: Adobe Illustrator 16.0.0, SVG Export Plug-In . SVG Version: 6.00 Build 0)  -->
<!DOCTYPE svg PUBLIC "-//W3C//DTD SVG 1.1//EN" "http://www.w3.org/Graphics/SVG/1.1/DTD/svg11.dtd">
<svg version="1.1" id="Layer_1" xmlns="http://www.w3.org/2000/svg" xmlns:xlink="http://www.w3.org/1999/xlink" x="0px" y="0px"
	 width="34.248px" height="48.385px" viewBox="0 0 34.248 48.385" style="enable-background:new 0 0 34.248 48.385;"
	 xml:space="preserve">
<g>
	<circle cx="11.915" cy="5.859" r="3.314"/>
	<circle cx="5.545" cy="13.423" r="3.315"/>
	<circle cx="22.354" cy="5.865" r="3.314"/>
	<circle cx="28.146" cy="13.974" r="3.315"/>
	<path d="M33.005,10.187c-1.147-1.501-2.926-2.377-4.83-2.375c0.507-1.818,0.134-3.775-1.02-5.285
		c-1.077-1.412-2.715-2.276-4.494-2.373c-1.438-0.078-2.86,0.359-4.003,1.232c-0.638,0.487-1.07,1.196-1.387,2.045
		c-0.294-0.857-0.709-1.578-1.335-2.084c-0.997-0.807-2.2-1.27-3.48-1.339c-1.94-0.105-3.827,0.73-5.045,2.235
		C6.217,3.72,5.788,5.666,6.243,7.498C4.36,7.436,2.538,8.267,1.347,9.737c-1.017,1.256-1.482,2.836-1.313,4.448
		c0.171,1.613,0.956,3.06,2.212,4.077c0.697,0.563,1.607,0.868,2.787,0.933c2.08,0.113,4.704-0.532,7.741-1.278l0.693-0.188
		c0.251,0.755,0.728,1.41,1.353,1.885h-0.369c-0.688,0-1.246,0.558-1.246,1.246c0,0.594,0.424,1.067,0.98,1.192
		c-0.102,0.155-0.175,0.329-0.175,0.527c0,0.543,0.439,0.983,0.982,0.983h0.991c0,1.031,0,1.978,0,2.221
		c0,0.594,0.195,0.565,0.195,1.204c0,0.638-0.195,0.652-0.195,1.42c0,0.769,0,17.777,0,17.777h2.458v-3.45h1.729v5.652h3.998v-1.526
		h-2.47v-4.832h0.603h0.913v3.298h2.441v-1.526h-0.914v-1.772h0.914V40.5h-0.914v-1.773h0.914v-1.526h-2.441V40.5h-0.913h-0.603
		v-4.832h2.47v-1.527h-3.998v5.034h-1.729c0,0,0-10.058,0-10.77c0-0.71-0.211-0.929-0.211-1.439c0-0.51,0.211-0.749,0.211-1.228
		c0-0.197,0-1.14,0-2.178h0.59c0.543,0,0.982-0.44,0.982-0.983c0-0.198-0.073-0.373-0.175-0.527c0.556-0.125,0.98-0.598,0.98-1.192
		c0-0.688-0.558-1.246-1.246-1.246h-0.079c0.58-0.439,1.042-1.03,1.31-1.728l0.492,0.145c2.583,0.716,5.022,1.393,6.986,1.5h0
		c1.552,0.083,2.724-0.193,3.579-0.848c1.286-0.98,2.112-2.405,2.329-4.01C34.409,13.065,33.987,11.473,33.005,10.187z
		 M19.066,16.468c0,1.072-0.87,1.941-1.942,1.941c-1.072,0-1.941-0.87-1.941-1.941c0-1.073,0.87-1.942,1.941-1.942
		C18.197,14.525,19.066,15.395,19.066,16.468z M13.267,16.286c-0.003,0.066,0.009,0.128,0.009,0.193l-0.807,0.198
		c-2.815,0.691-5.476,1.345-7.367,1.243c-0.901-0.048-1.572-0.262-2.052-0.65c-0.991-0.802-1.612-1.945-1.746-3.218
		c-0.134-1.273,0.234-2.52,1.037-3.512c0.958-1.185,2.437-1.843,4.068-1.754c0.002,0,0.003,0,0.004,0L7.988,8.91L7.538,7.395
		C7.093,5.894,7.417,4.268,8.404,3.047c0.961-1.188,2.45-1.847,3.983-1.764c1.009,0.055,1.959,0.42,2.746,1.057
		c1.066,0.862,1.388,2.735,1.447,5.115c-0.071,1.314-0.074,2.739-0.071,4.245l0.004,0.171l-0.038,0.788
		C14.734,12.974,13.367,14.441,13.267,16.286z M32.928,14.501c-0.171,1.268-0.823,2.392-1.838,3.167
		c-0.605,0.462-1.5,0.655-2.737,0.587c-1.826-0.1-4.2-0.757-6.827-1.485l-0.456-0.136c0.07-1.984-1.356-3.669-3.282-3.979
		l-0.001-0.629l0.006-0.13l0.004-0.132c0.049-1.521,0.088-2.962,0.053-4.291c0.127-2.379,0.499-4.245,1.583-5.073
		c0.902-0.688,2.024-1.033,3.159-0.972c1.406,0.076,2.698,0.759,3.548,1.872c0.953,1.248,1.231,2.883,0.744,4.372l-0.495,1.501
		l1.579-0.08c1.582-0.071,3.073,0.626,4.021,1.868C32.766,11.977,33.098,13.234,32.928,14.501z"/>
</g>
<g>
</g>
<g>
</g>
<g>
</g>
<g>
</g>
<g>
</g>
<g>
</g>
<g>
</g>
<g>
</g>
<g>
</g>
<g>
</g>
<g>
</g>
<g>
</g>
<g>
</g>
<g>
</g>
<g>
</g>
</svg>
