<?xml version="1.0" encoding="iso-8859-1"?>
<!-- Generator: Adobe Illustrator 16.0.0, SVG Export Plug-In . SVG Version: 6.00 Build 0)  -->
<!DOCTYPE svg PUBLIC "-//W3C//DTD SVG 1.1//EN" "http://www.w3.org/Graphics/SVG/1.1/DTD/svg11.dtd">
<svg version="1.1" id="Layer_1" xmlns="http://www.w3.org/2000/svg" xmlns:xlink="http://www.w3.org/1999/xlink" x="0px" y="0px"
	 width="19.206px" height="47.148px" viewBox="0 0 19.206 47.148" style="enable-background:new 0 0 19.206 47.148;"
	 xml:space="preserve">
<path d="M15.387,39.65H12.6v-1.601h-1.414V23.708h0.372c0.502,0,0.909-0.407,0.909-0.909c0-0.267-0.12-0.501-0.303-0.668
	c4.111-1.094,7.112-4.736,7.041-9.015c-0.072-4.327-3.31-7.95-7.557-8.848V1.632C11.647,0.731,10.732,0,9.603,0
	C8.474,0,7.558,0.731,7.558,1.632v2.629c-4.375,0.914-7.63,4.691-7.557,9.148c0.07,4.186,3.105,7.708,7.148,8.746
	c-0.165,0.165-0.266,0.392-0.266,0.643c0,0.502,0.407,0.909,0.909,0.909h0.394v14.404h-1.58v1.601H3.819v-2.163H2.275v8.813h1.544
	v-2.038h2.787v1.601h1.58v1.224h3v-1.286H12.6v-1.601h2.787v2.038h1.544v-8.813h-1.544V39.65z M2.39,13.374
	C2.326,9.558,5.51,6.403,9.487,6.342l0.118-0.001c3.914,0,7.148,3.056,7.211,6.811c0.056,3.333-2.366,6.16-5.63,6.863v-3.688
	c1.14-0.603,1.926-1.786,1.926-3.166c0-1.985-1.609-3.594-3.594-3.594s-3.594,1.609-3.594,3.594c0,1.513,0.938,2.802,2.261,3.332
	v3.554C4.936,19.418,2.444,16.665,2.39,13.374z"/>
<g>
</g>
<g>
</g>
<g>
</g>
<g>
</g>
<g>
</g>
<g>
</g>
<g>
</g>
<g>
</g>
<g>
</g>
<g>
</g>
<g>
</g>
<g>
</g>
<g>
</g>
<g>
</g>
<g>
</g>
</svg>
