<?xml version="1.0" encoding="iso-8859-1"?>
<!-- Generator: Adobe Illustrator 16.0.0, SVG Export Plug-In . SVG Version: 6.00 Build 0)  -->
<!DOCTYPE svg PUBLIC "-//W3C//DTD SVG 1.1//EN" "http://www.w3.org/Graphics/SVG/1.1/DTD/svg11.dtd">
<svg version="1.1" id="Layer_1" xmlns="http://www.w3.org/2000/svg" xmlns:xlink="http://www.w3.org/1999/xlink" x="0px" y="0px"
	 width="22.575px" height="49.756px" viewBox="0 0 22.575 49.756" style="enable-background:new 0 0 22.575 49.756;"
	 xml:space="preserve">
<path d="M22.575,4.383c0-2.42-1.962-4.383-4.384-4.383c-0.973,0-1.864,0.328-2.591,0.864L0,8.768L8.501,26.86v22.896h7.739v-22.87
	L21.978,6.56l-0.001-0.001C22.347,5.915,22.575,5.179,22.575,4.383z M18.287,6.837c-1.301,0-2.357-1.056-2.357-2.358
	c0-1.301,1.056-2.356,2.357-2.356c1.302,0,2.357,1.056,2.357,2.356C20.644,5.781,19.589,6.837,18.287,6.837z"/>
<g>
</g>
<g>
</g>
<g>
</g>
<g>
</g>
<g>
</g>
<g>
</g>
<g>
</g>
<g>
</g>
<g>
</g>
<g>
</g>
<g>
</g>
<g>
</g>
<g>
</g>
<g>
</g>
<g>
</g>
</svg>
