<?xml version="1.0" encoding="iso-8859-1"?>
<!-- Generator: Adobe Illustrator 16.0.0, SVG Export Plug-In . SVG Version: 6.00 Build 0)  -->
<!DOCTYPE svg PUBLIC "-//W3C//DTD SVG 1.1//EN" "http://www.w3.org/Graphics/SVG/1.1/DTD/svg11.dtd">
<svg version="1.1" id="Layer_1" xmlns="http://www.w3.org/2000/svg" xmlns:xlink="http://www.w3.org/1999/xlink" x="0px" y="0px"
	 width="17.96px" height="45.214px" viewBox="0 0 17.96 45.214" style="enable-background:new 0 0 17.96 45.214;"
	 xml:space="preserve">
<path d="M17.96,34.805V33.16H15.33v3.556h-0.984h-0.65v-5.208h2.662v-1.645h-4.309v5.426h-1.863V19.917h0.612v-1.246h1.068V18h4.885
	V0H0v18h5.531v0.672h0.901v1.246h0.849v23.344h2.904v-4.14h1.863v6.093h4.309v-1.645h-2.662v-5.208h0.65h0.984v3.555h2.631v-1.645
	h-0.984v-1.911h0.984v-1.645h-0.984v-1.911H17.96z M3,3h10.75v12h-3.565v-2.833h1.552V5.833H5.659v6.333h1.622V15H3V3z"/>
<g>
</g>
<g>
</g>
<g>
</g>
<g>
</g>
<g>
</g>
<g>
</g>
<g>
</g>
<g>
</g>
<g>
</g>
<g>
</g>
<g>
</g>
<g>
</g>
<g>
</g>
<g>
</g>
<g>
</g>
</svg>
