<?xml version="1.0" encoding="iso-8859-1"?>
<!-- Generator: Adobe Illustrator 16.0.0, SVG Export Plug-In . SVG Version: 6.00 Build 0)  -->
<!DOCTYPE svg PUBLIC "-//W3C//DTD SVG 1.1//EN" "http://www.w3.org/Graphics/SVG/1.1/DTD/svg11.dtd">
<svg version="1.1" id="Layer_1" xmlns="http://www.w3.org/2000/svg" xmlns:xlink="http://www.w3.org/1999/xlink" x="0px" y="0px"
	 width="49.925px" height="42.689px" viewBox="0 0 49.925 42.689" style="enable-background:new 0 0 49.925 42.689;"
	 xml:space="preserve">
<g>
	<path d="M18.023,38.549l-1.402-0.32l0.572-2.502l-0.027-0.007c0.125-0.547,0.217-0.953,0.247-1.08
		c0.062-0.274,0.241-0.475,0.422-0.7l0.129,0.03c0.221,0.05,0.44-0.087,0.491-0.308c0.041-0.184-0.051-0.361-0.21-0.446
		c0.003-0.006,0.004-0.014,0.006-0.021l-2.088-0.477c0,0.007-0.001,0.013-0.002,0.02c-0.181,0.007-0.344,0.127-0.386,0.312
		c-0.05,0.221,0.087,0.44,0.308,0.491l0.216,0.049c0.077,0.273,0.144,0.547,0.083,0.814c-0.031,0.136-0.123,0.54-0.246,1.08
		l-0.01-0.002l-0.571,2.503l-1.512-0.346l0.06-0.261l-0.761-0.174l-0.325,1.425l0.76,0.174l0.06-0.261l1.512,0.346l-0.217,0.948
		l-1.512-0.345l0.06-0.261l-0.761-0.173l-0.325,1.424l0.761,0.174l0.06-0.261l1.512,0.346l-0.129,0.568l-0.378-0.087l-0.23,1.008
		l2.008,0.459l0.23-1.007l-0.563-0.129l0.13-0.569l1.402,0.319l-0.059,0.262l0.761,0.174l0.325-1.425l-0.761-0.174l-0.06,0.261
		l-1.402-0.32l0.217-0.949l1.402,0.32l-0.059,0.261l0.761,0.173l0.325-1.424l-0.761-0.175L18.023,38.549z"/>
	<path d="M25.551,37.499c0.05-0.674,0.599-0.802,0.725-1.775l-2.103-0.157c-0.02,0.982,0.505,1.19,0.455,1.863
		c-0.053,0.707-0.248,3.33-0.248,3.33l0.013,0.001l-0.105,1.414l0.907,0.067l0.012-0.157l2.268,0.17l0.182-2.442l-2.264-0.168
		C25.451,38.853,25.522,37.888,25.551,37.499z M26.826,40.169l0.198,0.015l-0.12,1.608l-0.199-0.013L26.826,40.169z"/>
	<path d="M47.805,31.743c0.228,0.15,0.477,0.227,0.724,0.218l1.396-0.049l-0.003-0.893l-1.344,0.047l0.695-0.501v-0.001l0.02-0.015
		l-0.518-0.716L48.06,30.35l0.468-1.261l-0.846-0.285l-0.486,1.309c-0.1,0.27-0.088,0.571,0.01,0.854l-0.313,0.225l-3.142-4.355
		c0.165-0.349,0.143-0.771-0.098-1.106c-0.242-0.334-0.637-0.488-1.02-0.442l-0.287-0.398c0.582-0.635,0.672-1.593,0.165-2.297
		c-0.106-0.147-0.231-0.272-0.371-0.376c0.226-0.084,0.444-0.196,0.65-0.346c1.194-0.86,1.488-2.503,0.654-3.658
		c-0.834-1.157-2.485-1.396-3.679-0.534c-0.162,0.117-0.305,0.247-0.432,0.39c-0.055-0.191-0.141-0.375-0.263-0.544
		c-0.194-0.27-0.454-0.461-0.742-0.583c0.323-1.148,0.501-2.359,0.501-3.611C38.83,5.979,32.85,0,25.5,0S12.17,5.979,12.17,13.329
		c0,1.207,0.164,2.375,0.465,3.485c-0.041-0.01-0.082-0.02-0.121-0.029c-0.089-0.187-0.198-0.366-0.333-0.535
		c-0.928-1.166-2.599-1.385-3.725-0.489C7.332,16.656,7.172,18.335,8.1,19.5c0.157,0.198,0.336,0.364,0.529,0.507
		c0,0.005,0,0.009,0,0.014c-0.133,0.413-0.575,1.693-1.058,2.232l-0.2-0.252c-0.157-0.197-0.444-0.229-0.641-0.072
		S6.5,22.373,6.657,22.57l0.211,0.265c-0.044,0.036-0.089,0.072-0.138,0.11l-0.211-0.267c-0.157-0.197-0.444-0.229-0.641-0.072
		c-0.198,0.158-0.23,0.444-0.073,0.642l0.212,0.266c-0.064,0.051-0.131,0.104-0.197,0.156l-0.211-0.266
		c-0.157-0.196-0.444-0.229-0.642-0.073c-0.197,0.157-0.229,0.444-0.072,0.641l0.212,0.267c-0.05,0.04-0.102,0.081-0.152,0.12
		l-0.212-0.266c-0.157-0.196-0.443-0.229-0.641-0.072c-0.198,0.157-0.23,0.444-0.073,0.642l0.212,0.266
		C2.218,26.536,0,28.303,0,28.303l0.791,0.993l1.123-0.894l0.693,0.871l-1.123,0.894l2.043,2.564l0.583-0.463l-0.612-0.77
		l0.606-0.482l0.612,0.77l1.06-0.844l-0.612-0.769L5.77,29.69l0.613,0.769l0.583-0.465l-2.042-2.565l-1.048,0.834l-0.693-0.87
		c0,0,0.843-0.671,1.849-1.472l0.257,0.323c0.157,0.196,0.444,0.23,0.641,0.073s0.229-0.444,0.073-0.641l-0.258-0.324
		c0.05-0.041,0.101-0.081,0.152-0.121l0.258,0.323c0.156,0.197,0.443,0.23,0.641,0.073c0.197-0.156,0.23-0.443,0.073-0.641
		l-0.257-0.323c0.066-0.054,0.131-0.105,0.197-0.157l0.257,0.323c0.157,0.197,0.444,0.23,0.641,0.073
		c0.197-0.157,0.23-0.444,0.073-0.641l-0.258-0.323c0.047-0.039,0.094-0.075,0.138-0.11l0.258,0.323
		c0.157,0.197,0.444,0.231,0.641,0.073c0.197-0.157,0.229-0.444,0.073-0.642L8.379,23.27c0.339-0.214,0.775-0.338,1.182-0.409
		c0.262,0.628,0.723,1.178,1.359,1.538c0.302,0.173,0.627,0.287,0.962,0.352c-0.315,0.38-0.657,0.886-0.393,1.036
		c0.108,0.062,0.249,0.142,0.407,0.23l-0.968,0.996l0.498,0.282l-2.79,4.919l-1.288,2.271l-0.745,1.312l1.62,0.919l0.319-0.563
		l0.934,0.53l-0.319,0.563l1.62,0.918l0.722-1.273l-0.543-0.308l0.53-0.935l0.543,0.309l0.78-1.375l-1.62-0.919l-0.381,0.672
		l-0.934-0.529l0.38-0.673l-0.83-0.47l2.79-4.92l0.51,0.29l0.358-1.343c0.119,0.067,0.231,0.132,0.324,0.183
		c0.291,0.166,0.547-0.391,0.712-0.892c0.12,0.143,0.253,0.275,0.397,0.397c0.139,0.44,0.286,0.875,0.404,1.283
		c0.07,0.238,0.233,0.364,0.418,0.4c0.009,0.002,0.016,0.006,0.024,0.008c0.534,0.122,1.067,0.244,1.601,0.365
		c0.18,0.218,0.405,0.396,0.664,0.527c-0.181,0.791-0.364,1.592-0.441,1.932c-0.096,0.422-0.349,0.739-0.582,1.031l-0.142-0.032
		c-0.221-0.051-0.44,0.087-0.491,0.308c-0.042,0.181,0.049,0.355,0.203,0.443c0,0-0.001,0.003-0.001,0.005l2.102,0.479
		c0-0.002,0-0.003,0-0.005c0.177-0.011,0.334-0.13,0.375-0.311c0.051-0.222-0.087-0.44-0.308-0.491l-0.062-0.015
		c-0.059-0.394-0.159-0.766-0.074-1.139c0.065-0.285,0.262-1.149,0.457-2c0.25-0.019,0.49-0.079,0.712-0.183
		c0.427,0.098,0.854,0.195,1.281,0.293c0.342,0.078,0.764-0.209,1.18-0.613c0.726,1.002,1.903,1.741,3.299,1.977
		c-0.014,0.193-0.031,0.416-0.048,0.649l-0.219-0.017c-0.325-0.024-0.608,0.22-0.632,0.545c-0.024,0.326,0.219,0.61,0.545,0.634
		l0.218,0.016c-0.024,0.329-0.046,0.612-0.059,0.782c-0.042,0.564-0.65,1.03-0.754,2.1l2.113,0.157
		c0.055-1.073-0.478-1.623-0.435-2.188c0.013-0.169,0.034-0.452,0.058-0.781l0.093,0.007c0.325,0.024,0.609-0.22,0.633-0.546
		c0.024-0.324-0.22-0.608-0.545-0.633l-0.094-0.007c0.017-0.23,0.034-0.449,0.048-0.642c0.516,0.002,1.014-0.07,1.483-0.2
		c0.397,0.178,0.809,0.355,1.232,0.537c0.623,0.266,1.263,0.543,1.876,0.826l0.019,0.072l-0.42,0.105l0.096,0.385l0.42-0.105
		l0.051,0.206l-0.42,0.104l0.096,0.385l0.42-0.104l0.739,2.964l0.208-0.053l1.404,5.629l1.231-0.308l-0.132-0.528l0.582-0.145
		l-0.165-0.657l1.145-0.286l0.209,0.838l0.634-0.158l-0.902-3.618l-0.634,0.158l0.222,0.888l-1.144,0.286l-0.164-0.657l-0.581,0.144
		l-0.472-1.892l0.194-0.048l-0.739-2.964l0.419-0.104l-0.096-0.386l-0.419,0.104l-0.051-0.205l0.42-0.104l-0.096-0.385l-0.42,0.104
		l-0.035-0.142c0.393-0.514,0.793-1.015,1.183-1.499c0.402-0.5,0.791-0.982,1.145-1.451c0.262-0.016,0.525-0.041,0.791-0.088
		c0.005,0.025,0.006,0.052,0.015,0.076c0.082,0.256,0.345,0.416,0.666,0.444l0.063,0.195l-0.182,0.059
		c-0.221,0.07-0.342,0.307-0.271,0.526c0.071,0.223,0.307,0.344,0.528,0.274l0.182-0.059l0.095,0.295l-0.182,0.058
		c-0.221,0.07-0.342,0.308-0.271,0.528s0.307,0.344,0.528,0.272l0.182-0.058l1.864,5.813l0.225,0.701l0.332,1.034
		c0.09,0.28,0.39,0.435,0.669,0.344c0.281-0.09,0.434-0.389,0.344-0.669l-0.248-0.774c0.108,0.1,0.261,0.145,0.41,0.097
		c0.209-0.066,0.322-0.28,0.276-0.49l0.008-0.002l-0.651-2.031l0.85-0.274c0.002,0.012,0,0.021,0.004,0.031l0.766,2.39
		c0.065,0.205,0.285,0.317,0.489,0.252c0.206-0.066,0.319-0.285,0.253-0.489l-0.766-2.391c-0.002-0.007-0.008-0.012-0.01-0.019
		l-0.003-0.009l0.882-0.283l0.645,2.012c0.071,0.221,0.308,0.343,0.529,0.271c0.214-0.067,0.331-0.291,0.274-0.505l0.004-0.002
		l-0.007-0.021l-0.826-2.579l-0.125-0.387l-0.334,0.108c-0.023,0.003-0.046,0-0.069,0.007c-0.024,0.008-0.041,0.024-0.062,0.034
		l-3.551,1.139l-1.164-3.631l0.18-0.059c0.221-0.071,0.343-0.309,0.272-0.529c-0.071-0.221-0.308-0.342-0.528-0.271l-0.181,0.058
		l-0.094-0.295l0.18-0.057c0.221-0.072,0.343-0.309,0.272-0.529s-0.308-0.343-0.529-0.272l-0.18,0.059l-0.072-0.223
		c0.206-0.205,0.3-0.463,0.225-0.699c-0.008-0.025-0.022-0.047-0.033-0.07c1.226-0.588,2.188-1.483,2.773-2.508
		c0.462,0.266,1.032,0.318,1.554,0.131l0.271,0.375c-0.247,0.37-0.256,0.867,0.02,1.25c0.276,0.382,0.751,0.53,1.18,0.412
		l3.101,4.299l-0.25,0.18l-0.892,0.645l0.517,0.715l0.892-0.643h0l0.25-0.18l0.435,0.603l0.74-0.533l-0.436-0.604l0.316-0.228
		C47.753,31.7,47.777,31.725,47.805,31.743z M3.522,28.544l0.606,0.762l0.736-0.585l0.447,0.561l-0.737,0.587l0.566,0.711
		L4.58,31.025l-0.566-0.71L3.277,30.9L2.831,30.34l0.736-0.587L2.96,28.991L3.522,28.544z M40.143,18.2
		c0.896-0.646,2.135-0.466,2.761,0.4c0.626,0.868,0.406,2.1-0.491,2.748c-0.625,0.45-1.414,0.492-2.048,0.187
		c-0.232-0.572-0.592-1.069-1.049-1.481C39.239,19.364,39.527,18.646,40.143,18.2z M36.191,25.576l0.008,0.005
		c0.005,0.004,0.013,0.01,0.018,0.016l0.009,0.008c0.006,0.006,0.012,0.014,0.017,0.022c0.002,0.003,0.005,0.007,0.007,0.01
		c0.008,0.013,0.015,0.026,0.021,0.043c0.019,0.047,0.013,0.109-0.021,0.12c-0.011,0.004-0.021,0.003-0.03,0.002
		c-0.012-0.003-0.021-0.007-0.028-0.016l-0.002-0.003c-0.003-0.004-0.007-0.009-0.01-0.015c-0.023-0.051,0.012-0.048,0.025-0.062
		c0.004-0.005,0.007-0.011,0.003-0.022c-0.008-0.025-0.026-0.025-0.043-0.021c0.007-0.03,0.016-0.061,0.023-0.09
		C36.188,25.575,36.189,25.575,36.191,25.576z M11.426,22.865c-0.729-0.914-0.577-2.245,0.337-2.972
		c0.567-0.452,1.295-0.564,1.94-0.367c0.389,0.738,0.846,1.435,1.361,2.082l0.019,0.17l0.084-0.038
		c0.005,0.007,0.01,0.014,0.016,0.021c-0.01,0.097-0.033,0.191-0.056,0.287c-0.613,0.335-0.925,0.808-1.044,1.358
		C13.2,23.884,12.074,23.681,11.426,22.865z M10.588,22.381c-0.179-0.047-0.38-0.069-0.583-0.084
		c-0.152-0.57-0.107-1.192,0.161-1.759c0.147,0.003,0.295-0.004,0.441-0.024C10.38,21.101,10.372,21.765,10.588,22.381z
		 M10.553,19.944c0.344-0.393,0.794-0.662,1.281-0.789c-0.104,0.135-0.219,0.264-0.359,0.376
		C11.198,19.751,10.88,19.882,10.553,19.944z M16.238,21.69c-0.078-0.086-0.153-0.177-0.229-0.265
		c0.607-0.128,1.249-0.035,1.796,0.275c0.075,0.043,0.146,0.088,0.215,0.137C17.306,21.717,16.675,21.657,16.238,21.69z
		 M14.39,18.77c-0.024,0.036-0.044,0.078-0.061,0.124c-0.242-0.483-0.453-0.985-0.631-1.502c0.295,0.057,0.565,0.103,0.771,0.135
		C14.44,17.812,14.402,18.274,14.39,18.77z M18.801,25.147c-0.964-0.133-1.879,0.436-2.191,1.354
		c-0.267,0.008-0.537-0.024-0.801-0.104c-0.053-0.185-0.107-0.369-0.161-0.554c-0.2-0.691-0.893-2.07-0.114-2.669
		c0.166-0.128,0.445-0.207,0.718-0.258c0.798,0.77,1.691,1.44,2.661,1.994C18.88,24.99,18.842,25.069,18.801,25.147z M17.523,22.924
		c0.364,0.072,0.896,0.185,1.49,0.329c0.07,0.255,0.1,0.523,0.088,0.791C18.547,23.711,18.019,23.337,17.523,22.924z M19.667,23.42
		c0.729,0.196,1.485,0.436,2.096,0.707c-0.204,0.294-0.369,0.611-0.487,0.949c-0.551-0.199-1.083-0.437-1.596-0.708
		C19.723,24.051,19.718,23.732,19.667,23.42z M36.878,17.673c0.122-0.087,0.254-0.146,0.39-0.185
		c-0.163,0.459-0.351,0.906-0.564,1.339c-0.105-0.018-0.213-0.033-0.32-0.048C36.338,18.368,36.51,17.938,36.878,17.673z
		 M37.997,20.78C37.999,20.788,38,20.792,38,20.792c-0.074-0.063-0.117-0.173-0.198-0.273c-0.007-0.011-0.016-0.021-0.025-0.032
		c0.063,0.009,0.124,0.03,0.186,0.046C37.958,20.646,37.988,20.751,37.997,20.78z M34.343,26.541
		c-0.007-0.008-0.013-0.014-0.018-0.021c-0.009-0.013-0.016-0.028-0.022-0.042c-0.003-0.006-0.007-0.016-0.01-0.021
		c-0.008-0.023-0.013-0.049-0.015-0.077c0-0.01,0-0.018,0-0.027c0-0.017,0-0.036,0.001-0.051c0.001-0.013,0.003-0.021,0.005-0.03
		c0.003-0.017,0.006-0.031,0.011-0.044c0.008-0.022,0.018-0.039,0.028-0.054l0.002-0.003c0.021-0.029,0.044-0.041,0.058-0.048
		l0.004-0.001c0.002-0.001,0.004-0.002,0.006-0.002l0.003-0.002c-0.051-0.031-0.11-0.044-0.163-0.052
		c-0.098-0.011-0.19,0.035-0.223,0.161c-0.007,0.026-0.012,0.059-0.012,0.095c-0.003,0.21,0.166,0.359,0.166,0.359
		c-0.084-0.015-0.163-0.077-0.256-0.14c-0.092-0.07-0.2-0.13-0.352-0.147c-0.217-0.034-0.338,0.168-0.338,0.168
		c-0.038-0.008-0.073,0.004-0.107,0.021l-0.017-0.004c-0.003-0.006-0.006-0.013-0.01-0.019c-0.018-0.027-0.041-0.048-0.07-0.06
		c0,0,0-0.06-0.024-0.125c-0.027-0.064-0.071-0.147-0.169-0.194c-0.139-0.059-0.252-0.071-0.365-0.064
		c-0.113,0.009-0.208,0.012-0.284-0.024c0,0,0.004,0,0.009-0.001c0.047-0.006,0.222-0.046,0.323-0.2
		c0.105-0.164,0.067-0.285-0.024-0.337c-0.045-0.021-0.093-0.038-0.146-0.04c0,0,0.001,0.001,0.001,0.002
		c0.002,0,0.002,0.003,0.004,0.006c0,0,0.001,0,0.001,0c0.006,0.014,0.014,0.037,0.012,0.073c-0.001,0.017-0.005,0.037-0.013,0.06
		c-0.002,0.01-0.007,0.019-0.011,0.029c0,0-0.001,0.003-0.002,0.005c-0.005,0.011-0.009,0.021-0.016,0.033
		c-0.003,0.005-0.008,0.012-0.013,0.019c-0.01,0.014-0.02,0.028-0.033,0.046c-0.012,0.013-0.025,0.023-0.038,0.035l-0.003,0.002
		c-0.032,0.027-0.064,0.048-0.098,0.056c-0.082,0.024-0.176,0.001-0.265-0.049l-0.003-0.002c-0.027-0.013-0.046-0.034-0.069-0.055
		c-0.022-0.022-0.044-0.046-0.064-0.072c-0.079-0.086-0.113-0.233-0.115-0.36c-0.001-0.068,0.015-0.132,0.039-0.19
		c0.066-0.034,0.133-0.066,0.199-0.102c-0.042,0.025-0.092,0.081-0.087,0.138c0.002,0.008,0.005,0.016,0.009,0.022
		c0.036,0.057,0.126,0.069,0.232-0.006c0.009-0.007,0.02-0.014,0.031-0.022c0.01-0.01,0.02-0.019,0.03-0.027l0.002-0.001
		c0.007-0.007,0.014-0.015,0.021-0.022l0.003-0.002c0.006-0.01,0.014-0.018,0.022-0.027l0.006-0.011
		c0.005-0.006,0.008-0.013,0.014-0.02l0.006-0.012l0.008-0.02l0.004-0.012c0.002-0.007,0.004-0.013,0.005-0.021
		c0-0.004,0.001-0.007,0.001-0.012c0.001-0.007,0.001-0.015,0-0.022c0-0.003-0.001-0.006-0.002-0.008
		c-0.002-0.013-0.007-0.021-0.011-0.033c-0.004-0.014-0.011-0.025-0.02-0.035h-0.002c-0.001-0.001-0.003-0.002-0.004-0.004
		c0.744-0.427,1.441-0.923,2.087-1.481c0.363,0.316,0.637,0.74,0.763,1.241c0.125,0.505-0.136,1.163-0.601,1.913
		C34.358,26.557,34.35,26.549,34.343,26.541z M30.866,26.106c-0.013-0.12-0.031-0.238-0.054-0.355
		c0.036,0.018,0.071,0.037,0.108,0.056c0.15,0.078,0.288,0.185,0.398,0.274c0.03,0.027,0.058,0.056,0.083,0.086
		c0.025,0.026,0.045,0.058,0.07,0.082l0.003,0.004c0.08,0.091,0.134,0.19,0.145,0.292c0.005,0.042,0,0.082-0.014,0.122l0,0.004
		c-0.006,0.015-0.01,0.031-0.019,0.047c-0.003,0.005-0.006,0.008-0.01,0.013C31.415,26.442,31.164,26.225,30.866,26.106z
		 M25.595,24.875c0.14,0.108,0.267,0.236,0.36,0.392l0.088,0.148l0.107-0.134c0.293-0.372,0.751-0.577,1.225-0.547
		c0.494,0.033,0.913,0.312,1.147,0.706c-0.968,0.243-1.98,0.372-3.022,0.372c-0.155,0-0.308-0.006-0.462-0.012
		C25.151,25.454,25.342,25.139,25.595,24.875z M32.053,24.984c0.002,0.01,0.005,0.019,0.008,0.026l0.001,0.004
		c0.001,0.009,0.002,0.019,0,0.027c-0.001,0.008-0.004,0.016-0.008,0.022l-0.004,0.007c-0.003,0.007-0.007,0.013-0.012,0.02
		L32.031,25.1c-0.006,0.007-0.012,0.014-0.02,0.019l-0.009,0.009c-0.01,0.01-0.023,0.02-0.038,0.028
		c-0.042,0.027-0.103,0.037-0.119,0.011c-0.005-0.008-0.006-0.017-0.005-0.024c0-0.009,0.006-0.021,0.013-0.026l0.003-0.002
		c0.003-0.005,0.008-0.009,0.014-0.012c0.046-0.03,0.044,0,0.06,0.007c0.005,0.003,0.012,0.002,0.021-0.003
		c0.037-0.021,0.016-0.042,0.01-0.057c-0.013-0.034-0.063-0.032-0.11-0.003c0.055-0.029,0.108-0.063,0.163-0.094
		C32.027,24.963,32.046,24.968,32.053,24.984z M30.423,24.258c-0.029,0.059-0.058,0.113-0.087,0.164l0.015-0.041
		c0.045-0.121,0.103-0.235,0.165-0.345C30.49,24.11,30.46,24.186,30.423,24.258z M31.549,24.24
		c-0.002-0.027,0.053-0.056,0.103-0.058c0.002,0,0.003,0,0.005,0c-0.036,0.02-0.071,0.041-0.107,0.061L31.549,24.24z M31.751,24.127
		l-0.015-0.002l-0.002,0.001c-0.014-0.003-0.027-0.004-0.04-0.005c-0.015-0.001-0.028-0.001-0.039-0.001
		c-0.019,0-0.036,0.001-0.052,0.004l-0.014,0.003c-0.01,0.002-0.021,0.006-0.03,0.009c-0.005,0.001-0.009,0.003-0.013,0.004
		c-0.01,0.003-0.018,0.007-0.025,0.013c-0.004,0.001-0.006,0.003-0.009,0.005c-0.021,0.015-0.034,0.032-0.042,0.053l-0.002,0.007
		c-0.004,0.011-0.006,0.022-0.005,0.034c0.002,0.014,0.009,0.023,0.017,0.033c-0.037,0.02-0.075,0.039-0.112,0.059
		c-0.04-0.029-0.08-0.062-0.111-0.106c-0.072-0.104-0.131-0.243-0.117-0.36c0.003-0.056,0.011-0.112,0.027-0.165l0.011-0.021
		c0.008-0.017,0.016-0.032,0.025-0.047l0.017-0.024c0.008-0.013,0.016-0.024,0.027-0.035c0.006-0.009,0.013-0.016,0.02-0.022
		c0.01-0.009,0.021-0.019,0.031-0.027c0.008-0.005,0.015-0.011,0.022-0.015c0.013-0.008,0.025-0.014,0.038-0.018
		c0.008-0.004,0.016-0.007,0.025-0.01c0.015-0.004,0.029-0.006,0.045-0.007c0.008,0,0.018-0.001,0.025-0.001
		c0.025,0,0.051,0.003,0.079,0.012c0.01,0.001,0.017,0.006,0.026,0.008c0.017,0.005,0.035,0.01,0.048,0.016
		c0.011,0.005,0.019,0.01,0.026,0.016c0.014,0.008,0.027,0.015,0.038,0.022c0.017,0.014,0.032,0.027,0.042,0.039l0.002,0.003
		c0.021,0.027,0.029,0.051,0.031,0.064l0,0.002c0,0.002,0.001,0.005,0.001,0.005c0,0.002,0,0.004,0,0.004
		c0.04-0.033,0.07-0.074,0.094-0.118c0.037-0.078,0.017-0.172-0.089-0.243c-0.023-0.016-0.052-0.03-0.085-0.044
		c-0.101-0.037-0.194-0.033-0.267-0.016c-0.073,0.017-0.121,0.044-0.121,0.044c0.042-0.072,0.12-0.126,0.217-0.183
		c0.025-0.017,0.048-0.039,0.072-0.058c0.146-0.07,0.299-0.13,0.46-0.17c0.484-0.121,0.971-0.086,1.408,0.072
		C32.909,23.394,32.345,23.783,31.751,24.127z M34.437,22.032c-0.166-0.095-0.34-0.179-0.519-0.246
		c0.008-0.012,0.016-0.022,0.022-0.036l0.006-0.018c0.004-0.011,0.011-0.021,0.014-0.032h0c0.004-0.016,0.008-0.031,0.01-0.045
		c0-0.004,0.001-0.006,0.002-0.01c0.005-0.035,0.005-0.07,0.003-0.104c0-0.003,0-0.008,0-0.011c0-0.009-0.002-0.017-0.003-0.024
		l0.009,0.006c0.001,0.004,0.002,0.008,0.004,0.012l0.005,0.01c0.008,0.018,0.019,0.033,0.029,0.052l0.005,0.009
		c0.012,0.016,0.024,0.033,0.039,0.053c0.001,0.002,0.002,0.003,0.002,0.005c0.015,0.017,0.03,0.035,0.046,0.054l0.008,0.009
		c0.017,0.018,0.033,0.034,0.05,0.053l0,0.001c0.017,0.017,0.034,0.033,0.05,0.047l0.005,0.005c0.015,0.014,0.031,0.026,0.045,0.038
		l0.006,0.006c0.026,0.022,0.051,0.035,0.069,0.042c0.001,0.001,0.003,0.002,0.005,0.002c0.008,0.001,0.016,0.002,0.021,0
		c0.051-0.009,0.112-0.303,0.096-0.492l0.01-0.039c0.008,0.013,0.016,0.026,0.026,0.037l0.001,0.005
		c0.009,0.01,0.018,0.021,0.026,0.032l0.004,0.004c0.01,0.01,0.021,0.021,0.032,0.029l0.011,0.01l0.024,0.017
		c0.005,0.003,0.009,0.006,0.015,0.01l0.025,0.013l0.016,0.008l0.025,0.009l0.018,0.005c0.009,0.002,0.019,0.001,0.029,0.001
		l0.016,0.001c0.015,0,0.03-0.003,0.046-0.008c0.016-0.004,0.03-0.012,0.042-0.019c0.005-0.002,0.008-0.006,0.011-0.008
		c0.008-0.006,0.016-0.011,0.022-0.017c0.003-0.004,0.007-0.008,0.011-0.011c0.005-0.007,0.01-0.013,0.016-0.021
		c0.002-0.004,0.004-0.007,0.007-0.012c0.004-0.006,0.008-0.014,0.012-0.021l0.006-0.014c0.001-0.008,0.004-0.017,0.008-0.024
		l0.002-0.012c0.002-0.012,0.003-0.024,0.005-0.034l0.001-0.006v-0.029v-0.002c0-0.013-0.001-0.028-0.002-0.041
		c-0.002-0.014-0.005-0.026-0.006-0.038c-0.005-0.019-0.01-0.033-0.016-0.051l-0.007-0.013c-0.004-0.012-0.01-0.02-0.015-0.027
		c-0.002-0.005-0.005-0.009-0.008-0.012c-0.006-0.009-0.012-0.016-0.019-0.021l-0.008-0.008c-0.021-0.016-0.044-0.025-0.068-0.027
		l-0.007-0.001c-0.014-0.001-0.027,0.001-0.041,0.004c-0.075,0.022-0.093,0.114-0.084,0.169c0.011,0.056,0.048,0.096,0.095,0.082
		l0.001-0.001c0.005-0.002,0.012-0.004,0.019-0.006c0.003-0.001,0.006-0.003,0.009-0.004l0.006-0.004
		c0.003-0.002,0.007-0.007,0.008-0.01c0.001-0.001,0.002-0.002,0.002-0.002c0.002-0.008,0.002-0.016,0-0.025
		c-0.002-0.004-0.004-0.008-0.007-0.011c-0.018-0.017-0.053,0.023-0.065-0.041c0-0.008-0.001-0.018,0-0.024
		c0.002-0.008,0.006-0.015,0.011-0.021l0.002-0.005c0.007-0.006,0.014-0.012,0.025-0.014c0.034-0.011,0.076,0.036,0.086,0.085
		c0.004,0.015,0.006,0.029,0.007,0.041c0.002,0.021,0.001,0.039-0.001,0.056l-0.001,0.007c-0.002,0.015-0.008,0.026-0.015,0.038
		l-0.003,0.006c-0.008,0.009-0.017,0.019-0.028,0.026c-0.001,0-0.002,0-0.004,0.001c-0.011,0.008-0.024,0.014-0.038,0.018
		c-0.081,0.025-0.174-0.018-0.211-0.125c-0.012-0.034-0.02-0.079-0.015-0.131c0.003-0.052,0.025-0.106,0.058-0.162l0.44-0.331
		c0.014-0.004,0.029-0.01,0.044-0.013c0.058-0.009,0.118-0.02,0.175-0.012l0.026,0.004c0.018,0.002,0.036,0.006,0.053,0.01
		c0.011,0.003,0.02,0.006,0.029,0.01c0.016,0.004,0.03,0.009,0.045,0.014c0.009,0.005,0.019,0.01,0.027,0.015
		c0.009,0.005,0.018,0.009,0.026,0.014c-0.168,0.189-0.308,0.399-0.415,0.621C34.854,21.59,34.649,21.814,34.437,22.032z
		 M38.267,20.665l0-0.003c0.002-0.007,0.006-0.016,0.009-0.023c0.3,0.133,0.571,0.334,0.774,0.615
		c0.019,0.026,0.03,0.056,0.047,0.083c0.008,0.034,0.022,0.067,0.045,0.096c0.008,0.01,0.016,0.018,0.023,0.024
		c0.037,0.066,0.073,0.134,0.101,0.203c-0.095-0.021-0.203-0.076-0.315-0.136c-0.151-0.078-0.287-0.183-0.398-0.273
		c-0.029-0.028-0.057-0.057-0.083-0.086c-0.025-0.027-0.044-0.058-0.069-0.083l-0.003-0.003c-0.08-0.091-0.135-0.191-0.145-0.293
		C38.25,20.744,38.254,20.705,38.267,20.665z M37.185,19.737c0.051-0.094,0.1-0.188,0.148-0.283c0.219,0.069,0.431,0.15,0.632,0.246
		C37.71,19.8,37.435,19.811,37.185,19.737z M35.797,19.19c0.054,0.18,0.131,0.356,0.247,0.516c0.033,0.045,0.07,0.087,0.106,0.127
		c-0.032,0.054-0.067,0.104-0.1,0.157c-0.007,0.002-0.014,0.004-0.021,0.006c-0.121,0.048-0.215,0.107-0.31,0.114
		c0,0,0.202-0.134,0.237-0.342c0.005-0.037,0.005-0.068,0-0.098c-0.023-0.127-0.153-0.182-0.296-0.182
		c-0.08-0.002-0.161,0.023-0.23,0.059c0,0,0.002,0.001,0.003,0.001c0.003,0,0.006,0.001,0.01,0.001l0.003,0.001
		c0.021,0.005,0.054,0.016,0.084,0.043l0.003,0.002c0.014,0.013,0.026,0.029,0.038,0.052c0.006,0.011,0.011,0.026,0.015,0.041
		c0.003,0.011,0.007,0.019,0.007,0.031c0.002,0.016,0.001,0.033,0.001,0.052c0,0.01,0.002,0.017,0,0.028
		c-0.002,0.026-0.009,0.051-0.019,0.075c-0.003,0.01-0.008,0.017-0.012,0.023c-0.007,0.016-0.015,0.03-0.026,0.044
		c-0.006,0.006-0.013,0.014-0.02,0.022c-0.011,0.011-0.021,0.022-0.034,0.032l-0.026,0.019c-0.013,0.01-0.027,0.019-0.042,0.026
		c-0.009,0.005-0.02,0.009-0.031,0.015c-0.015,0.007-0.031,0.014-0.048,0.02c-0.01,0.005-0.021,0.008-0.032,0.012
		c-0.02,0.005-0.04,0.008-0.06,0.013l-0.029,0.006c-0.062,0.008-0.127,0.022-0.193,0.024c-0.27,0-0.667-0.105-0.8-0.283
		c-0.016-0.023-0.028-0.044-0.036-0.064c-0.009-0.021-0.014-0.04-0.016-0.059c-0.014-0.114,0.091-0.193,0.211-0.21
		c0.022-0.002,0.042-0.003,0.06-0.002h0.006c0.017,0.002,0.034,0.006,0.049,0.012l0.007,0.003c0.013,0.008,0.025,0.017,0.037,0.028
		l0.003,0.007c0.01,0.013,0.019,0.029,0.023,0.049c0.004,0.013,0.006,0.027,0.008,0.042c0.002,0.051-0.029,0.112-0.074,0.117
		c-0.015,0.003-0.026,0-0.037-0.002l-0.006-0.003c-0.01-0.003-0.017-0.009-0.022-0.016c-0.005-0.007-0.01-0.013-0.012-0.022
		c-0.014-0.064,0.048-0.041,0.064-0.065c0.002-0.004,0.004-0.009,0.003-0.013c0-0.011-0.004-0.018-0.008-0.022l-0.005-0.002
		c-0.004-0.004-0.009-0.005-0.015-0.007h-0.009h-0.016c-0.009,0.001-0.019,0.003-0.026,0.005c-0.068,0.009-0.098,0.06-0.083,0.117
		c0.015,0.053,0.079,0.128,0.176,0.115c0.018-0.002,0.033-0.006,0.048-0.012l0.01-0.005c0.026-0.013,0.051-0.032,0.07-0.056
		l0.006-0.01c0.006-0.01,0.011-0.018,0.017-0.028c0.001-0.005,0.003-0.009,0.005-0.014c0.004-0.011,0.007-0.021,0.009-0.031
		l0.003-0.016c0.003-0.017,0.004-0.034,0.003-0.053c-0.002-0.012-0.003-0.025-0.005-0.038c-0.002-0.013-0.007-0.026-0.012-0.038
		v-0.003c-0.005-0.009-0.008-0.02-0.013-0.028l-0.002-0.006c-0.007-0.011-0.013-0.021-0.021-0.029l-0.008-0.01
		c-0.007-0.007-0.013-0.013-0.021-0.019l-0.012-0.01c-0.008-0.006-0.016-0.011-0.025-0.016c-0.004-0.002-0.01-0.005-0.016-0.007
		c-0.008-0.005-0.019-0.009-0.03-0.012L34.5,19.412c-0.013-0.002-0.026-0.003-0.04-0.004c-0.005-0.001-0.012-0.002-0.019-0.002
		c-0.021,0-0.044,0-0.069,0.004c-0.025,0.002-0.047,0.008-0.069,0.015l-0.021,0.007c-0.014,0.006-0.028,0.011-0.04,0.017
		l-0.021,0.011l-0.031,0.021l-0.018,0.014l-0.026,0.023c-0.005,0.006-0.01,0.012-0.015,0.018c-0.008,0.009-0.015,0.02-0.021,0.029
		l-0.01,0.016c-0.009,0.015-0.016,0.03-0.023,0.046l-0.001,0.006c-0.006,0.014-0.01,0.027-0.015,0.042l0,0.003
		c-0.005,0.019-0.008,0.037-0.01,0.056c-0.002,0.02-0.003,0.04-0.003,0.061c0-0.012-0.002-0.023-0.004-0.035
		c-0.025-0.102-0.149-0.228-0.269-0.312C34.458,19.249,35.143,19.169,35.797,19.19z M33.817,21.42
		c0.015,0.019,0.027,0.037,0.037,0.056c0.003,0.004,0.005,0.009,0.008,0.015c0.006,0.013,0.011,0.024,0.015,0.037
		c0.002,0.005,0.003,0.011,0.006,0.015c0.004,0.016,0.007,0.032,0.008,0.047l0,0c0,0.014-0.001,0.029-0.003,0.043l-0.002,0.013
		c-0.003,0.009-0.006,0.019-0.01,0.028c-0.001,0.003-0.001,0.006-0.003,0.01c-0.016,0.029-0.044,0.048-0.072,0.063
		c-0.059-0.021-0.12-0.039-0.18-0.057c-0.006-0.012-0.013-0.022-0.017-0.037c-0.021-0.045-0.014-0.107,0.021-0.119
		c0.011-0.005,0.021-0.004,0.03-0.002c0.011,0.002,0.021,0.008,0.027,0.016l0.002,0.003c0.004,0.004,0.007,0.009,0.01,0.015
		c0.024,0.05-0.011,0.048-0.025,0.062c-0.004,0.005-0.006,0.011-0.003,0.021c0.013,0.039,0.048,0.021,0.065,0.017
		c0.047-0.017,0.055-0.071,0.03-0.123c-0.022-0.044-0.075-0.098-0.139-0.094c-0.008,0.001-0.018,0.003-0.026,0.006
		c-0.069,0.023-0.105,0.102-0.07,0.207c-0.229-0.058-0.464-0.096-0.704-0.108c0.023-0.043,0.055-0.081,0.094-0.118
		c0.001-0.001,0.002-0.002,0.002-0.003c0.023-0.021,0.046-0.042,0.074-0.058c0.029-0.017,0.06-0.033,0.091-0.048
		c0.019-0.01,0.041-0.016,0.062-0.022l0.182-0.034C33.521,21.258,33.728,21.313,33.817,21.42z M33.375,19.877
		c0.002,0.021,0.004,0.041,0.009,0.061c0,0,0.002,0.007,0.003,0.01c0.004,0.018,0.011,0.034,0.02,0.049
		c-0.01-0.017-0.021-0.032-0.035-0.047l-0.009-0.008c-0.011-0.012-0.023-0.023-0.036-0.035h0c-0.016-0.013-0.033-0.024-0.052-0.036
		c-0.002-0.002-0.006-0.003-0.009-0.005c-0.016-0.009-0.032-0.016-0.05-0.021c0,0,0,0,0,0c-0.015-0.006-0.029-0.011-0.044-0.013
		c-0.007-0.001-0.015-0.003-0.023-0.005c-0.021-0.001-0.042-0.001-0.066,0h-0.005c-0.023,0.002-0.047,0.008-0.073,0.016H33
		c-0.026,0.008-0.054,0.019-0.08,0.033c-0.021,0.013-0.04,0.024-0.058,0.038c-0.005,0.004-0.01,0.008-0.014,0.012
		c-0.011,0.009-0.021,0.019-0.03,0.026c-0.004,0.005-0.009,0.011-0.013,0.016c-0.007,0.009-0.013,0.017-0.018,0.026l-0.009,0.014
		c-0.004,0.011-0.007,0.019-0.01,0.027l-0.005,0.014c-0.002,0.01-0.004,0.02-0.004,0.028l-0.002,0.013
		c-0.001,0.012,0,0.024,0.001,0.036l0.001,0.005c0.002,0.011,0.003,0.021,0.006,0.031l0.001,0.002
		c0.003,0.013,0.007,0.027,0.014,0.038c0.005,0.012,0.012,0.024,0.018,0.035c0.069,0.107,0.183,0.13,0.27,0.081
		c0.011-0.006,0.02-0.013,0.029-0.02c0.06-0.051,0.063-0.132,0.046-0.178c-0.02-0.054-0.075-0.079-0.136-0.046
		c-0.022,0.012-0.072,0.032-0.049,0.067c0.003,0.003,0.007,0.006,0.011,0.009c0.026,0.01,0.064-0.045,0.09,0.015
		c0.003,0.006,0.004,0.012,0.004,0.019l0.001,0.004c0,0.01-0.004,0.022-0.013,0.032c-0.006,0.009-0.015,0.018-0.029,0.025
		c-0.04,0.022-0.102-0.009-0.127-0.052c-0.009-0.016-0.016-0.03-0.021-0.044l-0.003-0.012c-0.002-0.011-0.004-0.019-0.004-0.027
		l0-0.013c0.001-0.009,0.002-0.017,0.004-0.024l0.003-0.01c0.004-0.012,0.009-0.021,0.017-0.03c0.009-0.011,0.019-0.021,0.031-0.032
		c0.002-0.001,0.005-0.004,0.008-0.005c0.013-0.01,0.027-0.02,0.042-0.027c0.052-0.028,0.11-0.041,0.162-0.036
		c0.004,0,0.008,0.002,0.012,0.002c0.012,0.003,0.024,0.005,0.035,0.01c0.004,0,0.008,0.001,0.012,0.004
		c0.014,0.006,0.028,0.014,0.04,0.024v0.001c0.011,0.01,0.021,0.022,0.029,0.037l0.007,0.015c0.006,0.012,0.01,0.023,0.015,0.037
		c0.001,0.006,0.002,0.012,0.003,0.019c0.004,0.018,0.006,0.04,0.007,0.064c-0.003,0.223-0.268,0.538-0.486,0.695
		c-0.032,0.021-0.065,0.039-0.1,0.057c-0.031,0.016-0.062,0.031-0.092,0.046l-0.003,0.002c-0.107,0.049-0.216,0.069-0.312,0.047
		c-0.039-0.01-0.076-0.026-0.11-0.054c0,0-0.001-0.001-0.002-0.002c-0.013-0.011-0.027-0.019-0.04-0.033
		c-0.014-0.017-0.023-0.032-0.032-0.047c-0.004-0.006-0.009-0.012-0.013-0.019c-0.007-0.013-0.009-0.023-0.013-0.035l-0.002-0.006
		c-0.003-0.01-0.007-0.021-0.008-0.029c-0.004-0.025-0.003-0.048,0.001-0.068c0.01-0.04,0.032-0.069,0.044-0.085
		c0.001,0,0.003-0.002,0.003-0.002c0.003-0.003,0.005-0.006,0.007-0.007l0.003-0.005c-0.076,0.014-0.158,0.039-0.221,0.088
		c-0.144,0.102-0.219,0.257-0.079,0.398c0.131,0.131,0.334,0.139,0.381,0.141c0.007,0,0.01,0.001,0.01,0.001
		c-0.081,0.049-0.193,0.055-0.319,0.085c-0.121,0.039-0.265,0.094-0.396,0.237c-0.058,0.068-0.083,0.135-0.094,0.195
		c-0.615,0.209-1.156,0.573-1.576,1.052c0.533-1.395,1.832-2.638,3.582-3.242c-0.008,0.022-0.017,0.047-0.023,0.072
		c0,0.001,0,0.002,0,0.002c-0.007,0.025-0.013,0.051-0.019,0.076l-0.001,0.013c-0.004,0.025-0.007,0.051-0.01,0.075L33.374,19.8
		c-0.001,0.023-0.001,0.046,0,0.067L33.375,19.877z M23.639,26.527c0.003,0,0.007,0,0.01,0c0,0.095,0.001,0.188,0.008,0.282
		c-0.043-0.054-0.083-0.106-0.119-0.159C23.572,26.609,23.606,26.568,23.639,26.527z M24.986,27.143
		c-0.041-0.167-0.063-0.333-0.07-0.498c0.194,0.009,0.388,0.015,0.583,0.015c1.111,0,2.19-0.139,3.223-0.396
		c0,0.003,0,0.006,0,0.009c-0.042,0.653-0.914,1.224-1.934,1.896l-0.487,0.31C25.6,28.055,25.104,27.618,24.986,27.143z
		 M31.717,27.09c0.064-0.01,0.122-0.044,0.159-0.126c0.076-0.166,0.013-0.368-0.001-0.413c-0.002-0.007-0.003-0.011-0.003-0.011
		c0.075,0.063,0.118,0.173,0.198,0.274c0.078,0.103,0.185,0.227,0.373,0.287c0.135,0.048,0.239,0.027,0.309-0.013
		c0.07-0.038,0.104-0.086,0.104-0.086c0.036,0.009,0.07,0.005,0.102-0.008c0.011-0.003,0.021-0.009,0.032-0.014
		c0.021,0.041,0.054,0.075,0.1,0.092c0,0,0.021,0.231,0.296,0.301c0.188,0.041,0.338,0.002,0.458-0.039h0
		c-0.148,0.204-0.305,0.412-0.468,0.624c-0.585-0.08-1.134-0.245-1.624-0.486C31.757,27.348,31.747,27.218,31.717,27.09z
		 M36.043,23.875c-0.138-0.345-0.322-0.66-0.547-0.939c-0.061-0.254-0.069-0.516-0.026-0.772c0.348-0.393,0.673-0.805,0.973-1.237
		c0.133-0.038,0.208-0.156,0.208-0.156c0.022,0.006,0.043,0.004,0.064-0.002l0.09,0.026c0.014,0.017,0.031,0.03,0.051,0.038
		c0,0,0,0.058,0.024,0.125c0.027,0.063,0.071,0.148,0.17,0.194c0.138,0.061,0.252,0.071,0.365,0.064
		c0.114-0.009,0.207-0.011,0.283,0.023c0,0-0.003,0-0.009,0.001c-0.046,0.007-0.221,0.047-0.323,0.202
		c-0.105,0.162-0.067,0.283,0.025,0.334c0.044,0.022,0.092,0.039,0.145,0.042c0,0,0-0.002-0.001-0.003
		c-0.002,0-0.002-0.002-0.003-0.005c-0.001,0-0.001-0.002-0.001-0.002c-0.005-0.012-0.014-0.036-0.011-0.07
		c0.001-0.019,0.005-0.038,0.012-0.063c0.003-0.008,0.007-0.018,0.011-0.027c0.001-0.001,0.002-0.002,0.003-0.004
		c0.005-0.013,0.009-0.021,0.016-0.034c0.004-0.004,0.009-0.012,0.013-0.018c0.011-0.016,0.019-0.029,0.033-0.046
		c0.012-0.015,0.025-0.024,0.038-0.037l0.003-0.002c0.031-0.027,0.063-0.046,0.098-0.056c0.083-0.023,0.176,0,0.264,0.05
		l0.003,0.002c0.028,0.012,0.048,0.034,0.07,0.054c0.022,0.023,0.044,0.047,0.064,0.073c0.078,0.086,0.112,0.232,0.115,0.361
		c0.002,0.129-0.054,0.253-0.126,0.321c-0.018,0.016-0.033,0.028-0.05,0.039c-0.005,0.004-0.01,0.006-0.015,0.01
		c-0.012,0.008-0.023,0.014-0.036,0.02c-0.005,0.003-0.009,0.004-0.014,0.006c-0.016,0.007-0.03,0.012-0.044,0.014l0,0.001
		c-0.014,0.004-0.028,0.005-0.041,0.005h-0.011c-0.01,0-0.019,0-0.028-0.002c-0.002,0-0.005-0.001-0.008-0.002
		c-0.034-0.008-0.059-0.027-0.068-0.057c-0.003-0.009-0.006-0.017-0.009-0.025l-0.001-0.005c-0.001-0.009-0.003-0.018,0-0.027
		c0.001-0.007,0.004-0.014,0.008-0.022l0.003-0.008c0.004-0.006,0.009-0.013,0.013-0.019l0.007-0.008
		c0.006-0.007,0.012-0.013,0.02-0.02l0.009-0.009c0.012-0.009,0.023-0.017,0.038-0.027c0.043-0.027,0.103-0.037,0.119-0.012
		c0.006,0.009,0.006,0.018,0.005,0.025c-0.001,0.009-0.006,0.019-0.014,0.026l-0.002,0.003c-0.004,0.004-0.009,0.007-0.015,0.012
		c-0.045,0.028-0.044,0-0.06-0.007c-0.005-0.004-0.012-0.004-0.022,0.002c-0.036,0.019-0.014,0.043-0.01,0.057
		c0.014,0.036,0.065,0.031,0.113,0.002c0.041-0.027,0.092-0.083,0.087-0.14c-0.002-0.007-0.005-0.015-0.009-0.022
		c-0.036-0.058-0.126-0.071-0.231,0.005c-0.01,0.007-0.021,0.015-0.031,0.023c-0.01,0.008-0.021,0.019-0.03,0.027l-0.002,0.001
		c-0.006,0.008-0.014,0.015-0.021,0.021l-0.003,0.003c-0.007,0.009-0.015,0.018-0.022,0.027l-0.006,0.009
		c-0.005,0.007-0.009,0.014-0.014,0.021l-0.005,0.012l-0.009,0.019l-0.004,0.013c-0.001,0.006-0.004,0.014-0.005,0.021
		c-0.001,0.003-0.001,0.008-0.002,0.011c0,0.008,0,0.015,0.001,0.022c0,0.003,0,0.006,0.001,0.011
		c0.003,0.01,0.007,0.02,0.011,0.031c0.004,0.014,0.011,0.025,0.021,0.034l0.002,0.001c0.008,0.009,0.019,0.017,0.029,0.022
		l0.006,0.001c0.012,0.005,0.022,0.011,0.036,0.013l0.016,0.002c0.01,0.001,0.021,0.003,0.032,0.003c0.018,0,0.031,0,0.046,0h0.008
		c0.034-0.002,0.071-0.009,0.102-0.016c0.003,0,0.008-0.001,0.011-0.002c0.018-0.003,0.036-0.009,0.054-0.015
		c-0.015,0.006-0.031,0.014-0.049,0.021l-0.008,0.006c-0.018,0.01-0.035,0.02-0.052,0.03l-0.009,0.006
		c-0.016,0.013-0.034,0.024-0.052,0.037c-0.002,0.001-0.004,0.003-0.004,0.004c-0.019,0.014-0.037,0.027-0.056,0.042l-0.009,0.008
		c-0.018,0.015-0.036,0.029-0.054,0.044l-0.001,0.001c-0.018,0.014-0.034,0.028-0.049,0.04l-0.006,0.005
		c-0.014,0.013-0.028,0.025-0.041,0.038l-0.005,0.004c-0.023,0.021-0.04,0.039-0.047,0.051c-0.001,0.001-0.001,0.002-0.002,0.003
		c-0.002,0.005-0.005,0.011-0.002,0.013c0,0.02,0.086,0.028,0.198,0.036c0.067,0.006,0.144,0.009,0.214,0.009l0.083,0.014
		c-0.009,0.003-0.017,0.008-0.026,0.012l-0.003,0.002c-0.011,0.005-0.023,0.013-0.036,0.019c-0.002,0.001-0.003,0.002-0.004,0.002
		c-0.012,0.008-0.024,0.016-0.037,0.024c-0.003,0.003-0.008,0.006-0.011,0.008l-0.022,0.017c-0.003,0.005-0.007,0.008-0.012,0.012
		l-0.016,0.018l-0.009,0.011l-0.012,0.019l-0.005,0.012c-0.002,0.007-0.005,0.013-0.005,0.02c0,0.004-0.002,0.008-0.001,0.011
		c-0.001,0.012,0,0.022,0.003,0.032c0.003,0.013,0.004,0.023,0.009,0.034c0.002,0.003,0.003,0.006,0.005,0.009
		c0.003,0.006,0.008,0.012,0.012,0.019c0.003,0.003,0.005,0.005,0.008,0.008c0.005,0.005,0.01,0.01,0.015,0.014
		c0.003,0.003,0.006,0.005,0.011,0.008l0.02,0.01l0.01,0.006c0.008,0.004,0.016,0.007,0.024,0.01l0.01,0.004
		c0.012,0.004,0.022,0.006,0.033,0.01l0.006,0.001l0.029,0.006h0.002c0.013,0.001,0.028,0.003,0.041,0.004
		c0.014,0.001,0.026,0.001,0.039,0.001c0.019,0,0.035-0.002,0.051-0.005l0.014-0.003c0.011-0.003,0.021-0.005,0.03-0.008
		c0.005-0.002,0.009-0.002,0.013-0.005c0.01-0.004,0.018-0.009,0.026-0.013c0.003-0.002,0.006-0.004,0.009-0.006
		c0.02-0.014,0.034-0.033,0.042-0.052l0.002-0.006c0.004-0.012,0.006-0.023,0.005-0.035l0,0c-0.007-0.066-0.103-0.09-0.156-0.086
		c-0.057,0.004-0.101,0.029-0.091,0.067l0,0c0.001,0.003,0.002,0.009,0.002,0.015c0.001,0.003,0.001,0.005,0.003,0.008l0.001,0.005
		c0.002,0.003,0.004,0.006,0.008,0.009l0.003,0.002c0.006,0.002,0.013,0.003,0.022,0.002c0.006-0.001,0.01-0.002,0.013-0.004
		c0.022-0.014-0.012-0.045,0.051-0.047c0.01,0,0.018,0,0.025,0.002c0.009,0.004,0.016,0.006,0.021,0.011l0.003,0.003
		c0.004,0.007,0.009,0.014,0.009,0.022c0.003,0.029-0.052,0.057-0.102,0.06c-0.016,0.002-0.03,0.002-0.042,0.001
		c-0.02-0.002-0.038-0.005-0.053-0.009l-0.007-0.002c-0.013-0.004-0.024-0.011-0.034-0.017l-0.004-0.004
		c-0.008-0.006-0.015-0.015-0.02-0.022c0-0.002,0-0.002-0.001-0.003c-0.004-0.011-0.006-0.021-0.01-0.03
		c-0.017-0.061,0.034-0.127,0.146-0.152c0.037-0.009,0.081-0.012,0.131-0.005c0.098,0.014,0.215,0.082,0.29,0.188
		c0.072,0.105,0.13,0.244,0.116,0.361c-0.003,0.056-0.01,0.111-0.027,0.164l-0.011,0.022c-0.008,0.016-0.016,0.031-0.024,0.047
		l-0.017,0.024c-0.008,0.013-0.016,0.024-0.026,0.036c-0.007,0.007-0.014,0.014-0.021,0.021c-0.01,0.011-0.021,0.02-0.031,0.028
		c-0.008,0.004-0.016,0.01-0.023,0.015c-0.011,0.008-0.024,0.013-0.037,0.018c-0.009,0.004-0.017,0.008-0.025,0.01
		c-0.015,0.005-0.029,0.005-0.045,0.005c-0.009,0.002-0.018,0.003-0.026,0.003c-0.025-0.001-0.051-0.003-0.078-0.01
		c-0.01-0.004-0.017-0.007-0.026-0.01c-0.016-0.006-0.035-0.011-0.048-0.017c-0.011-0.005-0.02-0.011-0.028-0.016
		c-0.013-0.007-0.026-0.014-0.036-0.021c-0.017-0.014-0.032-0.027-0.042-0.039l-0.003-0.003c-0.022-0.027-0.028-0.051-0.031-0.063
		c0-0.002-0.001-0.003,0-0.004c-0.001-0.001-0.002-0.004-0.001-0.006c0-0.001,0-0.002,0-0.002c-0.041,0.032-0.071,0.075-0.095,0.117
		c-0.037,0.079-0.017,0.172,0.089,0.244c0.023,0.017,0.052,0.03,0.085,0.044c0.077,0.027,0.146,0.029,0.208,0.021
		C37.642,24.552,36.672,24.46,36.043,23.875z M39.904,23.271c0.006,0,0.012,0,0.017-0.002h0.003c0.01-0.002,0.02-0.005,0.03-0.007
		l0.005-0.003c0.011-0.004,0.023-0.009,0.034-0.016l0.011-0.009c0.008-0.006,0.015-0.011,0.023-0.019l0.012-0.012
		c0.006-0.008,0.013-0.016,0.02-0.025c0.003-0.005,0.007-0.012,0.01-0.017c0.006-0.011,0.012-0.021,0.017-0.033l0.009-0.021
		c0.004-0.014,0.009-0.03,0.012-0.045c0.002-0.008,0.003-0.014,0.005-0.022c0.003-0.024,0.009-0.052,0.008-0.082
		c0-0.01-0.002-0.02-0.003-0.029c0.023-0.026,0.05-0.051,0.076-0.076c0.022,0.484-0.055,0.97-0.221,1.439
		C39.787,23.978,39.769,23.602,39.904,23.271z M38.53,17.912c0.333,0.462,0.265,1.092-0.129,1.5
		c-0.271-0.147-0.558-0.271-0.86-0.371c0.226-0.473,0.422-0.963,0.591-1.467C38.285,17.654,38.424,17.765,38.53,17.912z
		 M13.016,13.329c0-6.884,5.6-12.483,12.483-12.483s12.483,5.6,12.483,12.483c0,1.204-0.174,2.366-0.494,3.467
		c-0.343,0.023-0.687,0.136-0.989,0.354c-0.529,0.382-0.803,0.983-0.785,1.579c-0.74-0.016-1.513,0.093-2.28,0.339
		c-2.216,0.71-3.791,2.379-4.205,4.189c-0.789-0.625-1.804-1.042-2.937-1.126c-1.385-0.103-2.671,0.307-3.624,1.047
		c-0.938-0.42-2.302-0.841-3.583-1.13c-0.255-0.347-0.585-0.647-0.984-0.874c-0.099-0.057-0.202-0.107-0.306-0.152
		c0.214-0.211,0.335-0.461,0.016-0.642c-0.193-0.11-0.454-0.259-0.746-0.424c0.015-0.034,0.028-0.066,0.036-0.099
		c0.154-0.543,0.32-1.127,0.42-1.478c0.1-0.352-0.494-0.726-0.792-0.449s-0.856,0.906-1.062,1.136
		c-0.015,0.017-0.031,0.042-0.048,0.07c-0.282-0.16-0.543-0.308-0.751-0.426c-0.049-0.029-0.094-0.047-0.136-0.06
		c0.02-0.579,0.057-1.096,0.068-1.191c0.025-0.193,0.095-0.27,0.095-0.27s-0.103,0.059-0.279,0.031
		c-0.081-0.011-0.529-0.095-1.046-0.201C13.211,15.854,13.016,14.615,13.016,13.329z M13.239,18.557
		c-0.167-0.04-0.336-0.067-0.505-0.079c0.083-0.433,0.062-0.885-0.071-1.316c0.025,0.006,0.051,0.012,0.076,0.019
		C12.881,17.649,13.047,18.109,13.239,18.557z M8.502,19.193c-0.728-0.914-0.577-2.246,0.337-2.974
		c0.914-0.729,2.246-0.577,2.973,0.337c0.448,0.563,0.561,1.284,0.369,1.925c-0.95,0.093-1.841,0.611-2.381,1.471
		C9.306,19.868,8.838,19.616,8.502,19.193z M8.68,22.251c0.04-0.393,0.301-1.338,0.281-2.033c0.188,0.101,0.386,0.17,0.588,0.223
		c-0.244,0.598-0.292,1.237-0.167,1.84C9.104,22.279,8.852,22.279,8.68,22.251z M11.218,23.873
		c-0.462-0.263-0.813-0.647-1.033-1.092c0.335-0.025,0.569-0.021,0.569-0.021c0.079,0.146,0.17,0.289,0.277,0.423
		c0.446,0.562,1.063,0.899,1.709,1.006C12.217,24.24,11.684,24.138,11.218,23.873z M13.986,24.211l-0.013-0.116
		c0.018-0.005,0.036-0.012,0.054-0.018c0.004,0.186,0.021,0.376,0.05,0.571C14.035,24.506,14.002,24.36,13.986,24.211z
		 M20.594,28.025c-0.023-0.005-0.037-0.008-0.063-0.014c-0.05-0.012-0.102-0.022-0.152-0.034c0.053-0.119,0.096-0.243,0.126-0.376
		c0.216-0.946-0.27-1.888-1.112-2.286c0.019-0.038,0.039-0.076,0.056-0.114c0.527,0.27,1.074,0.505,1.638,0.703
		c-0.006,0.05-0.016,0.099-0.02,0.149c-0.035,0.468,0.022,0.922,0.149,1.356C21.005,27.615,20.796,27.82,20.594,28.025z
		 M29.272,29.887c-0.065-0.027-0.128-0.056-0.193-0.083c0.399-0.277,0.746-0.61,1.028-0.986l0.401,1.607
		C30.09,30.24,29.677,30.061,29.272,29.887z M31.719,30.037l-0.404-1.618c0.146-0.139,0.257-0.307,0.333-0.49
		c0.435,0.202,0.908,0.35,1.407,0.438c-0.194,0.245-0.394,0.493-0.595,0.743C32.216,29.412,31.968,29.723,31.719,30.037z
		 M34.951,27.969c0.088-0.122,0.172-0.246,0.254-0.365c-0.003,0.009-0.007,0.019-0.008,0.029l-0.003,0.015
		c-0.002,0.016-0.004,0.033-0.002,0.052c0,0.012,0.002,0.024,0.005,0.039c0.002,0.013,0.007,0.026,0.011,0.039l0,0.002
		c0.005,0.01,0.008,0.019,0.013,0.028l0.002,0.005c0.007,0.011,0.013,0.021,0.02,0.03l0.008,0.01
		c0.006,0.007,0.012,0.013,0.021,0.02l0.013,0.009c0.007,0.006,0.015,0.011,0.024,0.016c0.004,0.001,0.01,0.004,0.016,0.007
		s0.014,0.006,0.021,0.008C35.213,27.936,35.082,27.953,34.951,27.969z M35.588,27.784c-0.031,0.015-0.064,0.026-0.101,0.032
		c-0.022,0.003-0.042,0.003-0.06,0.001h-0.005c-0.019,0-0.035-0.006-0.049-0.011l-0.007-0.003c-0.014-0.006-0.026-0.017-0.037-0.027
		l-0.004-0.006c-0.01-0.014-0.019-0.029-0.024-0.051c-0.004-0.013-0.006-0.025-0.007-0.041c-0.003-0.051,0.028-0.112,0.074-0.119
		c0.015-0.001,0.026,0.001,0.037,0.004l0.005,0.003c0.01,0.003,0.017,0.008,0.022,0.015c0.005,0.008,0.01,0.016,0.012,0.023
		c0.014,0.063-0.048,0.042-0.063,0.065c-0.002,0.004-0.003,0.008-0.004,0.014c0.001,0.011,0.004,0.016,0.008,0.021l0.005,0.003
		c0.004,0.003,0.009,0.003,0.016,0.006h0.009l0.015-0.001c0.009-0.002,0.02-0.002,0.026-0.003c0.068-0.008,0.098-0.061,0.083-0.116
		c-0.015-0.054-0.079-0.129-0.176-0.116c-0.018,0.002-0.034,0.006-0.049,0.014l-0.01,0.003c-0.021,0.011-0.041,0.026-0.057,0.046
		c0.05-0.076,0.101-0.151,0.148-0.228c0.109,0.047,0.201,0.104,0.252,0.174c0.012,0.018,0.02,0.032,0.028,0.048l-0.04,0.014
		l0.047,0.146C35.648,27.722,35.617,27.751,35.588,27.784z M36.084,25.933c0.015-0.043,0.025-0.085,0.038-0.129
		c0.025,0.043,0.071,0.087,0.128,0.081c0.009,0,0.017-0.001,0.026-0.005c0.075-0.027,0.115-0.113,0.062-0.234
		c-0.004-0.012-0.01-0.023-0.016-0.037c-0.006-0.01-0.014-0.022-0.021-0.033l-0.001-0.002c-0.005-0.008-0.012-0.017-0.018-0.023
		l-0.003-0.004c-0.008-0.008-0.015-0.018-0.024-0.025l-0.01-0.009c-0.006-0.004-0.012-0.009-0.02-0.015l-0.012-0.007
		c-0.003-0.002-0.006-0.004-0.009-0.006c0.047-0.229,0.066-0.454,0.056-0.676c0.575,0.259,1.24,0.303,1.865,0.112
		c-0.001,0.02-0.001,0.037,0.002,0.056c-0.012,0.001-0.022,0.002-0.032,0.005c-0.031,0.007-0.059,0.021-0.08,0.043
		c0,0-0.216-0.093-0.373,0.061c-0.114,0.103-0.167,0.214-0.201,0.324c-0.04,0.104-0.067,0.2-0.127,0.263
		c0,0,0.001-0.003,0.002-0.009c0.01-0.047,0.032-0.232-0.076-0.379c-0.116-0.161-0.25-0.152-0.339-0.073
		c-0.039,0.037-0.079,0.082-0.103,0.138c0,0,0.002-0.001,0.003-0.001c0.001-0.001,0.003-0.001,0.006-0.002
		c0.001,0,0.002-0.001,0.003-0.001c0.015-0.003,0.042-0.007,0.077,0.005c0.017,0.006,0.037,0.014,0.058,0.028
		c0.008,0.006,0.017,0.013,0.024,0.021c0,0,0.002,0.003,0.004,0.005c0.01,0.006,0.019,0.014,0.027,0.024
		c0.003,0.005,0.009,0.013,0.013,0.018c0.012,0.014,0.023,0.027,0.034,0.045c0.01,0.017,0.016,0.031,0.021,0.048l0,0.004
		c0.016,0.037,0.022,0.074,0.021,0.111c-0.005,0.089-0.059,0.174-0.135,0.245c-0.001,0.002-0.002,0.003-0.002,0.004
		c-0.022,0.02-0.046,0.042-0.074,0.057c-0.029,0.019-0.06,0.034-0.091,0.047C36.579,26.111,36.231,26.069,36.084,25.933z
		 M37.079,27.347c0.002-0.003,0.004-0.006,0.005-0.007l0.008-0.017c0.004-0.008,0.008-0.017,0.012-0.025l0.004-0.015
		c0.002-0.01,0.004-0.019,0.004-0.027l0.002-0.014c0.001-0.012,0-0.024-0.002-0.036v-0.004c-0.002-0.012-0.004-0.021-0.006-0.032
		l-0.002-0.002c-0.003-0.012-0.008-0.025-0.014-0.038c-0.005-0.014-0.013-0.023-0.018-0.033c-0.069-0.109-0.183-0.131-0.27-0.081
		c-0.011,0.005-0.021,0.011-0.029,0.018c-0.06,0.051-0.063,0.132-0.047,0.178c0.02,0.055,0.075,0.08,0.136,0.048
		c0.022-0.013,0.073-0.033,0.049-0.068c-0.003-0.005-0.008-0.006-0.011-0.008c-0.026-0.011-0.063,0.044-0.09-0.017
		c-0.002-0.005-0.004-0.012-0.004-0.019l-0.001-0.002c0-0.011,0.004-0.023,0.012-0.033c0.006-0.009,0.016-0.019,0.029-0.027
		c0.04-0.021,0.103,0.011,0.129,0.055c0.008,0.015,0.015,0.028,0.019,0.043L37,27.194c0.002,0.01,0.004,0.019,0.004,0.027l0,0.013
		c-0.001,0.008-0.002,0.017-0.005,0.024l-0.003,0.009c-0.003,0.011-0.009,0.021-0.016,0.03c-0.009,0.013-0.02,0.022-0.032,0.032
		c-0.002,0.002-0.005,0.004-0.007,0.007c-0.013,0.01-0.027,0.019-0.042,0.026c-0.053,0.028-0.11,0.041-0.162,0.036
		c-0.004,0-0.008-0.001-0.013-0.002c-0.009-0.002-0.021-0.005-0.03-0.009l-0.053-0.166l-0.059,0.02
		c-0.003-0.018-0.006-0.034-0.006-0.057c0-0.026,0.005-0.057,0.013-0.086l0.182-0.326c0.088-0.109,0.194-0.213,0.292-0.282
		c0.032-0.021,0.065-0.04,0.099-0.058c0.031-0.015,0.061-0.03,0.092-0.046l0.004-0.002c0.107-0.048,0.216-0.068,0.311-0.047
		c0.04,0.009,0.076,0.027,0.109,0.054c0.001,0.001,0.001,0.002,0.003,0.003c0.013,0.01,0.027,0.02,0.039,0.033
		c0.015,0.016,0.023,0.031,0.033,0.048c0.003,0.005,0.008,0.012,0.012,0.018c0.006,0.013,0.009,0.022,0.013,0.034l0.002,0.006
		c0.003,0.01,0.007,0.021,0.008,0.031c0.005,0.024,0.003,0.047-0.001,0.067c-0.009,0.04-0.031,0.069-0.043,0.084
		c-0.001,0.001-0.002,0.002-0.003,0.004c-0.003,0.002-0.005,0.004-0.006,0.006c-0.001,0.001-0.004,0.003-0.004,0.003
		c0.076-0.013,0.159-0.039,0.221-0.087c0.144-0.102,0.22-0.258,0.079-0.398c-0.131-0.13-0.334-0.14-0.381-0.142
		c-0.007,0-0.011,0-0.011,0c0.081-0.049,0.193-0.056,0.319-0.087c0.12-0.036,0.265-0.091,0.395-0.234
		c0.183-0.216,0.065-0.416,0.065-0.416c0.021-0.031,0.03-0.064,0.03-0.1c0-0.011-0.001-0.022-0.001-0.033
		c0.044-0.007,0.088-0.023,0.121-0.061c0,0,0.055,0.019,0.134,0.009c0.081-0.008,0.178-0.052,0.259-0.169
		c0.118-0.159,0.132-0.321,0.136-0.45c0.003-0.061-0.002-0.118-0.005-0.172c0.019-0.015,0.038-0.03,0.056-0.046
		c0.002,0.004,0.003,0.008,0.005,0.013c0.038,0.073,0.099,0.164,0.188,0.215c0.008,0.005,0.016,0.005,0.023,0.008
		c0.036,0.066,0.073,0.135,0.119,0.197c0.054,0.075,0.115,0.143,0.177,0.205C39.13,25.941,38.233,26.789,37.079,27.347z
		 M41.678,24.627c-0.42,0.302-0.962,0.298-1.359,0.036c0.275-0.672,0.39-1.379,0.315-2.079c0.483-0.17,1.032-0.025,1.338,0.398
		C42.346,23.502,42.214,24.238,41.678,24.627z"/>
</g>
<g>
</g>
<g>
</g>
<g>
</g>
<g>
</g>
<g>
</g>
<g>
</g>
<g>
</g>
<g>
</g>
<g>
</g>
<g>
</g>
<g>
</g>
<g>
</g>
<g>
</g>
<g>
</g>
<g>
</g>
</svg>
