<?xml version="1.0" encoding="iso-8859-1"?>
<!-- Generator: Adobe Illustrator 16.0.0, SVG Export Plug-In . SVG Version: 6.00 Build 0)  -->
<!DOCTYPE svg PUBLIC "-//W3C//DTD SVG 1.1//EN" "http://www.w3.org/Graphics/SVG/1.1/DTD/svg11.dtd">
<svg version="1.1" id="Layer_1" xmlns="http://www.w3.org/2000/svg" xmlns:xlink="http://www.w3.org/1999/xlink" x="0px" y="0px"
	 width="33.017px" height="49.473px" viewBox="0 0 33.017 49.473" style="enable-background:new 0 0 33.017 49.473;"
	 xml:space="preserve">
<path d="M33.017,43.646l-1.558-4.375l-3.377,1.203l-2.977-8.354c4.2-2.283,6.411-6.769,5.009-10.705
	c-0.71-1.994-2.233-3.508-4.169-4.406c0.527-1.395,0.828-2.903,0.828-4.486C26.772,5.617,21.272,0,14.513,0
	C7.752,0,2.253,5.617,2.253,12.521c0,1.676,0.33,3.273,0.917,4.736c-1.527,1.073-2.658,2.713-3.037,4.686
	c-0.641,3.344,1.074,6.599,3.975,8.061L0.832,47.091l3.637,0.697l0.522-2.719l5.442,1.043l1.688-8.802l-5.442-1.045l1.05-5.473
	c0.985-0.036,1.927-0.288,2.797-0.684c0.754,0.568,1.612,1.001,2.545,1.252c0.084,0.073,0.175,0.139,0.263,0.208l0.86,17.251
	l3.7-0.185l-0.092-1.842l5.534-0.275l-0.169-3.395l-5.534,0.275l-0.103-2.058l5.534-0.275l-0.169-3.396l-5.534,0.275l-0.23-4.616
	c1.409,0.306,2.936,0.335,4.482,0.04l5.737,16.103l3.494-1.246l-1.203-3.377L33.017,43.646z M3.818,12.521
	c0-6.041,4.797-10.956,10.694-10.956S25.207,6.48,25.207,12.521c0,1.392-0.265,2.72-0.729,3.944
	c-2.086-0.581-4.487-0.527-6.829,0.308c-0.209,0.074-0.408,0.163-0.61,0.247c-0.764-0.218-1.572-0.322-2.408-0.281
	c-0.962,0.049-1.87,0.283-2.698,0.659c-0.881-0.665-1.917-1.15-3.073-1.372c-1.504-0.289-2.992-0.1-4.306,0.459
	C4.085,15.254,3.818,13.92,3.818,12.521z M21.589,20.713c-0.247-0.467-0.541-0.903-0.877-1.304c0.723-0.082,1.43-0.086,2.095,0.015
	C22.438,19.889,22.027,20.315,21.589,20.713z M8.139,21.297c-0.332-0.254-0.65-0.524-0.951-0.815
	c0.267-0.025,0.538-0.027,0.813,0.025c0.159,0.03,0.307,0.081,0.454,0.135C8.339,20.855,8.234,21.073,8.139,21.297z M15.146,27.073
	c-0.405,0.021-0.795-0.046-1.153-0.18c0.313-0.574,0.552-1.197,0.706-1.862c1.097-0.018,2.157-0.184,3.166-0.479
	C17.69,25.916,16.564,27.004,15.146,27.073z M14.903,23.456c0.004-0.274-0.005-0.547-0.031-0.815
	c0.308-0.419,0.672-0.816,1.09-1.182c0.742,0.262,1.346,0.821,1.671,1.538C16.765,23.27,15.849,23.421,14.903,23.456z M6.91,26.19
	c-1.566-0.302-2.595-1.819-2.295-3.387c0.132-0.69,0.509-1.266,1.015-1.68c0.615,0.662,1.292,1.264,2.034,1.776
	c-0.094,0.536-0.135,1.09-0.107,1.656c0.029,0.572,0.142,1.116,0.292,1.645C7.543,26.244,7.229,26.251,6.91,26.19z M19.228,30.312
	c2.053-1.418,3.354-3.827,3.221-6.498c-0.027-0.536-0.113-1.056-0.246-1.555c0.832-0.688,1.567-1.486,2.2-2.369
	c1.239,0.53,2.212,1.414,2.641,2.618c0.98,2.751-1.149,6.032-4.747,7.313C21.258,30.191,20.217,30.333,19.228,30.312z"/>
<g>
</g>
<g>
</g>
<g>
</g>
<g>
</g>
<g>
</g>
<g>
</g>
<g>
</g>
<g>
</g>
<g>
</g>
<g>
</g>
<g>
</g>
<g>
</g>
<g>
</g>
<g>
</g>
<g>
</g>
</svg>
