<?xml version="1.0" encoding="iso-8859-1"?>
<!-- Generator: Adobe Illustrator 16.0.0, SVG Export Plug-In . SVG Version: 6.00 Build 0)  -->
<!DOCTYPE svg PUBLIC "-//W3C//DTD SVG 1.1//EN" "http://www.w3.org/Graphics/SVG/1.1/DTD/svg11.dtd">
<svg version="1.1" id="Layer_1" xmlns="http://www.w3.org/2000/svg" xmlns:xlink="http://www.w3.org/1999/xlink" x="0px" y="0px"
	 width="25.037px" height="47.916px" viewBox="0 0 25.037 47.916" style="enable-background:new 0 0 25.037 47.916;"
	 xml:space="preserve">
<path d="M20.806,0H4.231C1.894,0,0,1.896,0,4.232l2.033,12.084c0,2.065,1.478,2.763,3.433,3.136l2.99,0.431v9.354h1.525v18.68h5.337
	v-18.68h1.524v-9.392l2.729-0.393c1.955-0.373,3.433-1.07,3.433-3.136l2.033-12.084C25.037,1.896,23.143,0,20.806,0z M13.567,46.971
	c-0.579,0-1.048-0.47-1.048-1.048c0-0.579,0.47-1.049,1.048-1.049s1.048,0.47,1.048,1.049
	C14.615,46.501,14.146,46.971,13.567,46.971z M13.567,43.477c-0.579,0-1.048-0.47-1.048-1.049c0-0.578,0.47-1.048,1.048-1.048
	s1.048,0.47,1.048,1.048C14.615,43.007,14.146,43.477,13.567,43.477z M13.567,39.72c-0.579,0-1.048-0.47-1.048-1.048
	c0-0.579,0.47-1.049,1.048-1.049s1.048,0.47,1.048,1.049C14.615,39.25,14.146,39.72,13.567,39.72z M13.567,36.201
	c-0.579,0-1.048-0.469-1.048-1.048s0.47-1.049,1.048-1.049s1.048,0.47,1.048,1.049S14.146,36.201,13.567,36.201z M13.567,32.445
	c-0.579,0-1.048-0.47-1.048-1.049c0-0.578,0.47-1.048,1.048-1.048s1.048,0.47,1.048,1.048
	C14.615,31.976,14.146,32.445,13.567,32.445z M20.257,9.068H5.393V4.665h14.864V9.068z"/>
<g>
</g>
<g>
</g>
<g>
</g>
<g>
</g>
<g>
</g>
<g>
</g>
<g>
</g>
<g>
</g>
<g>
</g>
<g>
</g>
<g>
</g>
<g>
</g>
<g>
</g>
<g>
</g>
<g>
</g>
</svg>
