<?xml version="1.0" encoding="iso-8859-1"?>
<!-- Generator: Adobe Illustrator 16.0.0, SVG Export Plug-In . SVG Version: 6.00 Build 0)  -->
<!DOCTYPE svg PUBLIC "-//W3C//DTD SVG 1.1//EN" "http://www.w3.org/Graphics/SVG/1.1/DTD/svg11.dtd">
<svg version="1.1" id="Layer_1" xmlns="http://www.w3.org/2000/svg" xmlns:xlink="http://www.w3.org/1999/xlink" x="0px" y="0px"
	 width="20.756px" height="48.2px" viewBox="0 0 20.756 48.2" style="enable-background:new 0 0 20.756 48.2;" xml:space="preserve"
	>
<path d="M14.57,22.059h6.186V0H0v22.059h6.34V48.2h8.23V22.059z M5.037,6.21c0-1.654,2.31-2.997,5.157-2.997
	c2.85,0,5.158,1.343,5.158,2.997c0,1.655-2.309,2.996-5.158,2.996C7.347,9.206,5.037,7.865,5.037,6.21z M11.553,23.753
	c0-0.335,0.271-0.608,0.607-0.608s0.607,0.273,0.607,0.608c0,0.336-0.271,0.607-0.607,0.607S11.553,24.089,11.553,23.753z
	 M7.948,26.099c0-0.336,0.271-0.607,0.607-0.607s0.608,0.271,0.608,0.607c0,0.335-0.272,0.607-0.608,0.607
	S7.948,26.434,7.948,26.099z M10.467,27.39c0-0.713,0.577-1.292,1.292-1.292c0.714,0,1.291,0.579,1.291,1.292
	c0,0.714-0.577,1.292-1.291,1.292C11.044,28.682,10.467,28.104,10.467,27.39z M8.556,31.588c0-0.714,0.578-1.293,1.291-1.293
	c0.715,0,1.293,0.579,1.293,1.293c0,0.712-0.578,1.291-1.293,1.291C9.134,32.879,8.556,32.3,8.556,31.588z M11.759,34.175
	c0-0.336,0.271-0.608,0.607-0.608c0.335,0,0.608,0.272,0.608,0.608s-0.273,0.607-0.608,0.607
	C12.03,34.782,11.759,34.511,11.759,34.175z M7.601,35.737c0-0.528,0.428-0.955,0.955-0.955c0.528,0,0.955,0.427,0.955,0.955
	c0,0.527-0.427,0.955-0.955,0.955C8.028,36.692,7.601,36.265,7.601,35.737z M10.792,38.343c0-0.714,0.578-1.291,1.292-1.291
	s1.292,0.577,1.292,1.291s-0.578,1.292-1.292,1.292S10.792,39.057,10.792,38.343z M8.556,41.021c0-0.337,0.271-0.607,0.608-0.607
	c0.336,0,0.607,0.271,0.607,0.607c0,0.335-0.271,0.607-0.607,0.607C8.827,41.629,8.556,41.356,8.556,41.021z M10.456,44.259
	c0-0.527,0.427-0.955,0.955-0.955s0.955,0.428,0.955,0.955c0,0.528-0.427,0.955-0.955,0.955S10.456,44.787,10.456,44.259z"/>
<g>
</g>
<g>
</g>
<g>
</g>
<g>
</g>
<g>
</g>
<g>
</g>
<g>
</g>
<g>
</g>
<g>
</g>
<g>
</g>
<g>
</g>
<g>
</g>
<g>
</g>
<g>
</g>
<g>
</g>
</svg>
