<?xml version="1.0" encoding="iso-8859-1"?>
<!-- Generator: Adobe Illustrator 16.0.0, SVG Export Plug-In . SVG Version: 6.00 Build 0)  -->
<!DOCTYPE svg PUBLIC "-//W3C//DTD SVG 1.1//EN" "http://www.w3.org/Graphics/SVG/1.1/DTD/svg11.dtd">
<svg version="1.1" id="Layer_1" xmlns="http://www.w3.org/2000/svg" xmlns:xlink="http://www.w3.org/1999/xlink" x="0px" y="0px"
	 width="26.531px" height="50.116px" viewBox="0 0 26.531 50.116" style="enable-background:new 0 0 26.531 50.116;"
	 xml:space="preserve">
<g>
	<path d="M26.531,10.646H26.45c-0.045-0.087-0.106-0.179-0.2-0.286c-0.044-0.049-0.093-0.098-0.168-0.166
		c-0.054-0.047-0.11-0.094-0.174-0.141c-0.061-0.045-0.123-0.084-0.22-0.143c-0.043-0.024-0.087-0.048-0.146-0.073l0.059-0.133
		c0,0,0-0.002,0.001-0.003l0.033-0.065l-0.002-0.013c0.006-0.018,0.011-0.034,0.016-0.048l0.027-0.077
		c0.019-0.07,0.031-0.147,0.042-0.248c0.005-0.079,0.003-0.162-0.005-0.267c-0.01-0.092-0.028-0.188-0.056-0.285
		c-0.021-0.074-0.053-0.14-0.096-0.223l-0.036-0.061c-0.025-0.043-0.052-0.084-0.078-0.119l-0.042-0.049
		c-0.031-0.038-0.063-0.071-0.092-0.095l-0.048-0.041c-0.03-0.022-0.059-0.042-0.089-0.06l-0.154,0.224l0.093-0.258
		c-0.035-0.015-0.067-0.026-0.139-0.049c-0.045-0.012-0.092-0.018-0.185-0.021c-0.029,0-0.058,0.001-0.087,0.005l-0.038,0.006
		c-0.037,0.006-0.075,0.016-0.109,0.025c-0.047,0.015-0.09,0.032-0.124,0.05c-0.307,0.149-0.47,0.454-0.438,0.771
		c-0.272-0.275-0.493-0.599-0.647-0.839c-0.042-0.074-0.079-0.149-0.117-0.236c-0.015-0.03-0.026-0.063-0.039-0.094
		c-0.018-0.049-0.037-0.098-0.057-0.139c-0.099-0.229-0.132-0.435-0.098-0.595c0.013-0.061,0.037-0.112,0.074-0.164l0.038-0.053
		c0.02-0.018,0.04-0.028,0.058-0.04l0.064-0.039l-0.062-0.265l0.118,0.245l0.053,0.002l0.006-0.001
		c0.031,0.01,0.065,0.029,0.098,0.059l0.633,0.7l-0.15-0.907c-0.042-0.257-0.146-0.5-0.286-0.677c-0.236-0.322-0.526-0.5-0.814-0.5
		c-0.148,0-0.367,0.048-0.574,0.276c-0.049,0.055-0.092,0.112-0.129,0.173c-0.122-0.315-0.307-0.656-0.676-0.921
		c-0.291-0.225-0.65-0.305-0.918-0.245c-0.106,0.021-0.194,0.053-0.261,0.083c-0.035-0.009-0.071-0.017-0.109-0.021
		c-0.019-0.036-0.041-0.07-0.065-0.102c0.008-0.29-0.109-0.723-0.593-1.025c-0.399-0.23-0.769-0.273-1.057-0.278
		c0.04-0.053,0.077-0.111,0.109-0.173c0.05-0.103,0.083-0.204,0.095-0.301c0.054-0.405-0.221-0.756-0.708-0.911
		c-0.199-0.07-0.457-0.082-0.688-0.049l-0.871,0.136l0.809,0.386c0.009,0.005,0.042,0.025,0.063,0.063
		c0.006,0.01,0.013,0.028,0.018,0.053l-0.04,0.21c-0.013,0.03-0.032,0.061-0.084,0.116c-0.017,0.018-0.034,0.034-0.091,0.068
		c-0.02,0.012-0.039,0.022-0.061,0.031L16.98,2.851c-0.022,0.008-0.046,0.014-0.071,0.018l0.042,0.268L16.844,2.88
		c-0.032,0.004-0.066,0.006-0.152,0.009L16.367,2.85c-0.094-0.015-0.19-0.029-0.277-0.054c-0.287-0.093-0.615-0.263-0.886-0.456
		l0.021-0.002c0.116-0.015,0.222-0.055,0.314-0.118l0.058-0.046c0.024-0.021,0.048-0.043,0.053-0.05l0.053-0.062
		c0.023-0.029,0.044-0.061,0.062-0.092l0.028-0.049c0.028-0.058,0.048-0.113,0.062-0.17c0.009-0.035,0.016-0.074,0.022-0.121
		c0.006-0.048,0.007-0.098,0.004-0.11l-0.014-0.164c-0.009-0.042-0.02-0.084-0.034-0.122L15.74,1.062
		c-0.021-0.03-0.044-0.058-0.064-0.078l-0.04-0.038c-0.029-0.029-0.063-0.057-0.107-0.083l-0.055-0.035
		c-0.033-0.018-0.071-0.035-0.113-0.052l-0.054-0.021c-0.058-0.021-0.123-0.038-0.197-0.053c-0.072-0.013-0.141-0.019-0.224-0.021
		l-0.382,0.058l-0.217,0.104c-0.027,0.017-0.053,0.035-0.097,0.07c-0.118-0.247-0.284-0.476-0.417-0.619
		c-0.083-0.09-0.163-0.155-0.241-0.204V0h-0.271c0,0,0,0,0,0h-0.001h0l-0.265,0.005v0.091c-0.07,0.044-0.143,0.101-0.23,0.191
		c-0.041,0.042-0.081,0.089-0.139,0.163c-0.04,0.051-0.08,0.105-0.119,0.167c-0.038,0.058-0.072,0.117-0.124,0.211
		c-0.014,0.026-0.026,0.054-0.04,0.08L12.31,0.885c-0.004-0.003-0.008-0.006-0.012-0.009l-0.053-0.041h-0.01
		c-0.015-0.009-0.029-0.017-0.043-0.023l-0.064-0.036C12.066,0.748,12,0.728,11.962,0.721L11.91,0.704
		c-0.068-0.015-0.142-0.021-0.238-0.025c-0.08,0-0.166,0.006-0.253,0.022c-0.071,0.015-0.135,0.032-0.194,0.053l-0.052,0.021
		c-0.042,0.017-0.083,0.035-0.117,0.055l-0.049,0.03c-0.041,0.026-0.075,0.052-0.1,0.076L10.86,0.979
		c-0.023,0.024-0.043,0.048-0.062,0.073l-0.04,0.056c-0.018,0.03-0.032,0.06-0.059,0.12c-0.017,0.042-0.029,0.088-0.041,0.151
		c-0.006,0.037-0.01,0.071-0.012,0.107l0,0.034l0,0.004c0,0.035,0.002,0.071,0.006,0.107c0.005,0.046,0.013,0.089,0.023,0.123
		c0.086,0.334,0.335,0.558,0.646,0.587c-0.268,0.192-0.592,0.36-0.871,0.45c-0.077,0.021-0.155,0.037-0.232,0.049L9.981,2.877
		C9.756,2.902,9.555,2.876,9.419,2.795C9.373,2.768,9.333,2.729,9.315,2.706l-0.06-0.09c-0.011-0.025-0.016-0.05-0.022-0.072
		L9.216,2.406c0.003-0.021,0.01-0.04,0.018-0.054C9.249,2.328,9.27,2.31,9.286,2.297l0.861-0.398l-0.911-0.13
		C9.006,1.735,8.742,1.748,8.558,1.814c-0.33,0.104-0.568,0.297-0.67,0.542C7.827,2.503,7.787,2.738,7.937,3.032
		c0.032,0.061,0.067,0.117,0.106,0.169c-0.289,0.006-0.659,0.05-1.065,0.284C6.458,3.812,6.391,4.265,6.396,4.503
		C6.372,4.534,6.349,4.569,6.33,4.606C6.292,4.61,6.256,4.617,6.22,4.628c-0.066-0.03-0.152-0.062-0.253-0.081
		C5.666,4.481,5.33,4.568,5.047,4.786C4.67,5.057,4.485,5.399,4.365,5.71c-0.04-0.063-0.083-0.122-0.132-0.175
		C4.154,5.451,4.069,5.386,3.979,5.341C3.619,5.154,3.174,5.318,2.854,5.754c-0.146,0.185-0.25,0.429-0.292,0.686L2.431,7.335
		l0.618-0.691c0.01-0.01,0.046-0.041,0.087-0.053l0.058-0.006l0.079,0.024L3.38,6.685c0.024,0.022,0.045,0.047,0.076,0.109
		c0.01,0.022,0.022,0.047,0.027,0.064l0.011,0.054c0.004,0.025,0.01,0.05,0.011,0.076l0,0.062v0.003
		c0,0.026-0.002,0.053-0.006,0.083L3.365,7.567C3.311,7.716,3.25,7.849,3.19,7.953C3.029,8.204,2.808,8.529,2.534,8.806
		c0-0.001,0-0.002,0-0.003c0.011-0.122-0.003-0.237-0.042-0.344L2.46,8.389C2.446,8.359,2.431,8.332,2.425,8.324L2.377,8.256
		C2.352,8.225,2.325,8.195,2.295,8.167L2.255,8.132C2.203,8.089,2.15,8.056,2.097,8.03C2.062,8.014,2.023,7.999,1.976,7.983
		c-0.047-0.016-0.099-0.025-0.143-0.03C1.798,7.948,1.762,7.946,1.69,7.948c-0.043,0.004-0.086,0.01-0.129,0.02l-0.2,0.082
		C1.329,8.067,1.298,8.088,1.274,8.106L1.228,8.146c-0.042,0.033-0.076,0.069-0.101,0.1L1.083,8.3
		C1.058,8.333,1.032,8.372,1.007,8.413L0.962,8.492c-0.032,0.062-0.065,0.129-0.088,0.21C0.853,8.781,0.838,8.856,0.826,8.946
		L0.813,9.164l0.063,0.395c0.01,0.033,0.021,0.063,0.023,0.063C0.915,9.666,0.935,9.71,0.955,9.746l0.028,0.051
		c0.006,0.011,0.012,0.021,0.019,0.032c-0.141,0.063-0.285,0.149-0.421,0.254c-0.187,0.143-0.391,0.353-0.5,0.563l-0.076-0.001
		L0,10.91c0,0.002,0,0.002,0,0.003s0,0.002,0,0.002l0,0.271h0.081c0.045,0.085,0.106,0.177,0.2,0.285
		c0.044,0.049,0.093,0.099,0.169,0.167c0.053,0.046,0.109,0.094,0.173,0.141c0.061,0.044,0.123,0.084,0.219,0.142
		c0.043,0.024,0.087,0.048,0.146,0.073l-0.059,0.134c0,0.001-0.001,0.002-0.002,0.004l-0.032,0.065l0.002,0.011
		c-0.007,0.021-0.013,0.04-0.02,0.06l0.033,0.011l0.002,0.009l0.016-0.004l0.197,0.062c0,0.001-0.001,0.001-0.001,0.002l-0.27-0.015
		c-0.02,0.071-0.032,0.147-0.034,0.196l-0.009,0.054c-0.005,0.078-0.003,0.161,0.005,0.268c0.01,0.09,0.028,0.186,0.056,0.283
		c0.021,0.075,0.053,0.141,0.096,0.224l0.037,0.063c0.024,0.041,0.051,0.081,0.076,0.114l0.042,0.052
		c0.031,0.037,0.063,0.07,0.092,0.094l0.05,0.042c0.03,0.022,0.059,0.042,0.103,0.067l0.047,0.025
		c0.034,0.016,0.066,0.027,0.136,0.049c0.046,0.012,0.093,0.018,0.187,0.021c0.03,0,0.058-0.001,0.087-0.005l0.04-0.007
		c0.036-0.006,0.073-0.014,0.108-0.024c0.046-0.015,0.089-0.031,0.123-0.049c0.307-0.149,0.471-0.454,0.438-0.772
		c0.271,0.275,0.492,0.6,0.646,0.84c0.042,0.074,0.079,0.15,0.117,0.236c0.015,0.03,0.026,0.062,0.038,0.093
		c0.019,0.05,0.037,0.099,0.058,0.139c0.098,0.229,0.132,0.435,0.098,0.596c-0.013,0.06-0.036,0.112-0.075,0.165L3.38,15.146
		c-0.02,0.018-0.04,0.028-0.058,0.041l-0.12,0.057l-0.053-0.002l-0.006,0.001c-0.025-0.007-0.052-0.022-0.079-0.043l-0.658-0.761
		l0.155,0.952c0.042,0.257,0.146,0.5,0.287,0.678c0.236,0.322,0.525,0.5,0.814,0.5c0.148,0,0.367-0.049,0.573-0.277
		c0.049-0.055,0.092-0.112,0.129-0.172c0.123,0.314,0.307,0.655,0.677,0.921c0.291,0.224,0.65,0.305,0.917,0.245
		c0.106-0.021,0.194-0.053,0.261-0.084c0.035,0.01,0.071,0.018,0.109,0.022c0.02,0.036,0.042,0.071,0.067,0.104
		c-0.005,0.238,0.063,0.692,0.591,1.022c0.398,0.23,0.768,0.274,1.057,0.279c-0.04,0.054-0.077,0.111-0.11,0.174
		c-0.05,0.102-0.082,0.203-0.094,0.299c-0.054,0.405,0.22,0.756,0.708,0.911c0.199,0.07,0.456,0.082,0.688,0.049l0.917-0.148
		l-0.849-0.368l-0.008-0.004c-0.009-0.006-0.041-0.026-0.063-0.063c-0.008-0.015-0.015-0.033-0.018-0.053l0-0.079l0.04-0.13
		c0.013-0.032,0.032-0.063,0.086-0.119c0.016-0.017,0.033-0.033,0.088-0.067c0.021-0.012,0.041-0.022,0.063-0.031l0.057-0.019
		c0.023-0.007,0.047-0.014,0.095-0.022l0.041-0.007c0.032-0.003,0.066-0.006,0.152-0.009l0.324,0.039
		c0.094,0.015,0.19,0.029,0.278,0.056c0.286,0.092,0.615,0.261,0.885,0.454c-0.006,0.001-0.014,0.001-0.022,0.002
		c-0.116,0.016-0.221,0.056-0.313,0.119l-0.054,0.042c-0.025,0.022-0.05,0.045-0.053,0.051l-0.056,0.063
		c-0.022,0.029-0.043,0.06-0.062,0.091l-0.028,0.049c-0.028,0.057-0.048,0.112-0.062,0.169c-0.009,0.036-0.017,0.076-0.023,0.123
		c-0.006,0.048-0.007,0.097-0.005,0.123l0.015,0.149c0.008,0.042,0.02,0.085,0.051,0.163l0.078,0.135
		c0.021,0.029,0.043,0.056,0.103,0.113c0.037,0.038,0.077,0.066,0.108,0.086l0.056,0.035c0.034,0.018,0.072,0.036,0.112,0.051
		l0.053,0.021c0.058,0.021,0.124,0.039,0.197,0.053c0.072,0.013,0.141,0.02,0.223,0.021l0.377-0.056c0,1.473,0,4.248,0,5.594
		c0,0.953-0.362,1.768-0.72,2.518h3.921c-0.328-0.814-0.701-1.577-0.701-2.423c0-1.096,0-4.121,0-5.688
		c0.012,0.003,0.034,0.013,0.042,0.014l0.059,0.02c0.069,0.014,0.142,0.021,0.243,0.025c0.079,0,0.162-0.008,0.249-0.023
		c0.071-0.014,0.135-0.031,0.194-0.052l0.051-0.021c0.042-0.017,0.083-0.036,0.117-0.055l0.05-0.031
		c0.04-0.025,0.074-0.051,0.1-0.076l0.044-0.041c0.024-0.025,0.046-0.051,0.062-0.072l0.043-0.061
		c0.017-0.03,0.031-0.059,0.058-0.119c0.017-0.042,0.028-0.087,0.04-0.149c0.006-0.037,0.01-0.071,0.012-0.107v-0.034l0-0.003
		c0-0.036-0.001-0.073-0.006-0.109c-0.005-0.045-0.013-0.088-0.023-0.123c-0.086-0.334-0.335-0.557-0.646-0.587
		c0.268-0.192,0.592-0.36,0.871-0.449c0.078-0.021,0.156-0.037,0.232-0.049l0.239-0.037c0.226-0.026,0.427,0.002,0.563,0.082
		c0.047,0.027,0.086,0.066,0.108,0.096l0.056,0.085c0.011,0.024,0.016,0.048,0.027,0.092l0.012,0.054v0.063v0.001
		c-0.003,0.021-0.01,0.04-0.018,0.054c-0.013,0.021-0.03,0.037-0.045,0.05l-0.842,0.407l0.884,0.127
		c0.231,0.032,0.495,0.02,0.679-0.047c0.33-0.104,0.567-0.296,0.669-0.541c0.061-0.146,0.102-0.383-0.048-0.676
		c-0.032-0.062-0.067-0.117-0.106-0.17c0.29-0.005,0.661-0.051,1.065-0.284c0.521-0.326,0.587-0.779,0.582-1.017
		c0.025-0.032,0.047-0.066,0.067-0.104c0.038-0.005,0.074-0.012,0.109-0.022c0.066,0.03,0.151,0.062,0.254,0.081
		c0.301,0.065,0.636-0.021,0.919-0.238c0.376-0.271,0.562-0.613,0.683-0.925c0.04,0.064,0.083,0.123,0.133,0.176
		c0.079,0.083,0.164,0.149,0.253,0.194c0.361,0.187,0.805,0.022,1.125-0.414c0.146-0.185,0.249-0.428,0.292-0.685l0.144-0.947
		l-0.631,0.742c-0.01,0.01-0.046,0.042-0.145,0.059l-0.187-0.101c-0.024-0.021-0.044-0.046-0.076-0.109
		c-0.011-0.021-0.023-0.045-0.039-0.118c-0.004-0.024-0.009-0.049-0.01-0.075l0-0.061v-0.003c0-0.026,0.001-0.054,0.005-0.08
		l0.05-0.227l0.085-0.209c0.054-0.146,0.115-0.28,0.175-0.385c0.162-0.252,0.383-0.575,0.656-0.854c0,0.001,0,0.003,0,0.004
		c-0.011,0.121,0.003,0.237,0.042,0.344l0.032,0.069c0.015,0.029,0.03,0.059,0.036,0.065l0.048,0.068
		c0.025,0.03,0.052,0.06,0.081,0.087l0.041,0.037c0.052,0.042,0.104,0.075,0.158,0.101c0.035,0.017,0.073,0.032,0.121,0.048
		c0.046,0.015,0.098,0.025,0.143,0.03c0.035,0.004,0.071,0.004,0.14,0.004c0.044-0.003,0.088-0.009,0.132-0.02l0.198-0.08
		c0.032-0.018,0.063-0.038,0.089-0.059l0.046-0.038c0.034-0.027,0.067-0.062,0.1-0.1l0.045-0.054
		c0.025-0.034,0.051-0.074,0.073-0.111l0.047-0.083c0.032-0.061,0.065-0.128,0.088-0.209c0.021-0.079,0.036-0.155,0.048-0.244
		l0.012-0.218l-0.062-0.392c-0.01-0.033-0.021-0.063-0.025-0.068c-0.015-0.044-0.035-0.087-0.055-0.123l-0.028-0.051
		c-0.006-0.01-0.012-0.021-0.019-0.031c0.141-0.063,0.285-0.149,0.421-0.254c0.187-0.143,0.391-0.354,0.5-0.564l0.076,0.002
		l0.005-0.266c0-0.001,0-0.002,0-0.003s0-0.001,0-0.002L26.531,10.646z M1.615,10c0.001,0,0.002,0.001,0.003,0.001
		C1.618,10.001,1.616,10.001,1.615,10L1.615,10z M4.321,11.553c-0.39,0.519-0.513,1.229-0.322,1.847
		c0.008,0.027,0.017,0.056,0.025,0.083c-0.017-0.024-0.033-0.05-0.05-0.075c-0.394-0.564-0.831-1.082-1.302-1.54
		c-0.348-0.329-0.746-0.685-1.21-0.955c0.081-0.046,0.162-0.091,0.244-0.146c0.247-0.164,0.487-0.358,0.701-0.564
		c0.25-0.214,0.47-0.43,0.65-0.636c0.376-0.404,0.691-0.802,0.967-1.224C3.864,8.827,3.879,9.375,4.072,9.844
		c0.116,0.259,0.265,0.482,0.452,0.677c0.173,0.162,0.372,0.291,0.583,0.396C4.785,11.076,4.511,11.289,4.321,11.553z M6.33,16.231
		c-0.022,0.031-0.042,0.065-0.057,0.102c-0.013-0.004-0.026-0.008-0.04-0.012c-0.055-0.013-0.114-0.037-0.221-0.091
		c-0.075-0.039-0.149-0.083-0.211-0.126c-0.124-0.094-0.252-0.199-0.359-0.353L5.13,15.32c-0.042-0.06-0.086-0.118-0.129-0.202
		l-0.34-0.56l0.451,0.427c0.07,0.07,0.151,0.127,0.23,0.182l0.371,0.267c0.063,0.053,0.128,0.1,0.191,0.146
		c0.07,0.05,0.137,0.096,0.194,0.156c0.053,0.052,0.1,0.11,0.159,0.191c0.049,0.075,0.099,0.147,0.141,0.202
		c0.003,0.004,0.006,0.009,0.01,0.014C6.379,16.169,6.353,16.198,6.33,16.231z M6.37,5.743L6.236,5.938
		C6.193,5.994,6.147,6.047,6.09,6.104C6.04,6.157,5.976,6.201,5.908,6.25C5.844,6.296,5.777,6.344,5.726,6.388L5.523,6.537
		c-0.261,0.167-0.529,0.396-0.86,0.739C4.747,7.146,4.825,7.014,4.9,6.887C5.022,6.68,5.138,6.484,5.267,6.319L5.449,6.07
		c0.101-0.145,0.226-0.247,0.342-0.337c0.066-0.047,0.136-0.089,0.205-0.126L5.868,5.369l0.179,0.214
		c0.052-0.025,0.097-0.049,0.147-0.063c0.026-0.008,0.053-0.016,0.079-0.023C6.288,5.533,6.307,5.567,6.33,5.6
		c0.023,0.033,0.05,0.063,0.08,0.089C6.397,5.707,6.384,5.725,6.37,5.743z M16.508,7.065l0.889,0.189l0.19,0.145l0.433,0.63
		l0.653,0.487l0.471,0.606L19.243,9.7l-0.266,0.715l-0.722,0.318l-0.057,0.037H15.13l0.051-0.023l0.089-0.239l-0.033-0.193
		l-0.158-0.203L14.86,9.948l-0.146-0.211l-0.063-0.05l-0.298-0.063l-0.277-0.168l-0.242-0.072l-0.261,0.046l-0.162,0.152V7.704
		l0.204-0.685l0.566-0.531l0.778-0.137l0.722,0.212L16.508,7.065z M14.058,1.586L14.058,1.586c0,0.001,0,0.002,0,0.002
		S14.058,1.587,14.058,1.586z M10.711,3.669c0.672-0.266,1.224-0.61,1.678-1.048c0.368-0.327,0.661-0.705,0.877-1.107
		c0.032,0.059,0.059,0.117,0.094,0.175c0.565,0.903,1.483,1.625,2.554,2.007c-1.1-0.088-2.166,0.521-2.646,1.495
		c-0.002,0.005-0.004,0.01-0.006,0.014c-0.179-0.349-0.418-0.664-0.73-0.924c-0.486-0.375-1.095-0.589-1.67-0.589
		c-0.05,0-0.101,0.001-0.142,0.004c-0.031,0.001-0.062,0.002-0.092,0.004C10.653,3.69,10.682,3.68,10.711,3.669z M9.566,7.209
		l0.517-0.28l0.638-0.357l0.646-0.251l0.98,0.213l0.584,0.57l0.189,0.514v1.986l-0.163-0.157l-0.329-0.071l-0.216,0.084l-0.214,0.12
		l-0.173,0.094l-0.193,0.033l-0.209,0.311l-0.268,0.201l-0.107,0.328l0.127,0.225H8.44l-0.787-0.25L7.25,9.814l0.319-0.979
		l0.797-0.601L8.99,7.309L9.566,7.209z M7.196,4.878C7.244,4.82,7.299,4.767,7.383,4.687c0.063-0.058,0.13-0.111,0.203-0.162
		c0.097-0.067,0.247-0.116,0.45-0.183l0.39-0.113c0.068-0.02,0.141-0.032,0.215-0.045l0.767-0.166
		C9.356,4.04,9.307,4.066,9.258,4.092L8.751,4.371C8.67,4.416,8.592,4.462,8.524,4.51L8.207,4.726
		c-0.13,0.088-0.258,0.151-0.415,0.229C7.724,4.986,7.653,5.011,7.55,5.039C7.477,5.058,7.404,5.074,7.343,5.085L7.304,5.091
		C7.291,5.051,7.272,5.013,7.25,4.977c-0.019-0.031-0.042-0.06-0.065-0.085C7.188,4.887,7.192,4.883,7.196,4.878z M8.87,17.694
		c-0.197-0.04-0.384-0.077-0.555-0.123l-0.329-0.098c-0.161-0.053-0.3-0.099-0.403-0.169c-0.066-0.045-0.129-0.096-0.204-0.163
		c-0.054-0.048-0.105-0.1-0.151-0.15c-0.015-0.017-0.03-0.033-0.045-0.051c0.025-0.026,0.047-0.055,0.066-0.086
		c0.023-0.036,0.041-0.075,0.055-0.115c0.027,0.004,0.055,0.01,0.083,0.015c0.062,0.011,0.125,0.026,0.208,0.049
		c0.067,0.021,0.133,0.045,0.184,0.067l0.055,0.028c0.116,0.059,0.244,0.122,0.374,0.208l0.226,0.153
		c0.292,0.2,0.615,0.382,0.979,0.551C9.227,17.766,9.044,17.729,8.87,17.694z M10.136,14.857l-0.744-0.266l-0.312-0.1l-0.159-0.182
		l-0.471-0.653L7.6,13.065L7.304,12.29l0.129-0.684l0.433-0.372l0.42-0.173h3.123l-0.1,0.086l-0.043,0.229l0.1,0.26l0.285,0.198
		l0.158,0.219l0.053,0.062l0.104,0.033l0.25,0.089l0.196,0.135l0.283,0.066l0.331-0.089l0.094-0.11v2.143l-0.151,0.316l-0.418,0.493
		l-0.987,0.267l-0.843-0.198L10.136,14.857z M15.82,18.162c-0.672,0.267-1.224,0.612-1.678,1.048
		c-0.307,0.273-0.548,0.586-0.749,0.913h-0.237c-0.566-0.894-1.477-1.607-2.539-1.987c1.103,0.09,2.166-0.52,2.646-1.494
		c0.002-0.005,0.004-0.01,0.006-0.016c0.179,0.35,0.418,0.665,0.73,0.925c0.486,0.375,1.095,0.59,1.671,0.59
		c0.05,0,0.101-0.002,0.142-0.004c0.031-0.001,0.061-0.003,0.092-0.004C15.877,18.142,15.849,18.151,15.82,18.162z M16.873,14.706
		l-0.646,0.303l-0.364,0.229l-0.646,0.197c0,0-0.554,0.068-0.577,0.076c-0.023,0.007-0.638-0.236-0.638-0.236l-0.395-0.508
		l-0.196-0.396v-2.123l0.102,0.131c0,0,0.206,0.081,0.214,0.079c0.008-0.003,0.194-0.026,0.194-0.026l0.216-0.065l0.123-0.077
		l0.216-0.102l0.207-0.071l0.12-0.141l0.242-0.211l0.109-0.097l0.13-0.336l-0.051-0.191l-0.093-0.078h3.185l0.342,0.135l0.463,0.388
		l0.152,0.57l-0.388,1.002l-0.326,0.289l-0.722,0.63l-0.357,0.417L16.873,14.706z M19.334,16.954
		c-0.047,0.057-0.103,0.111-0.187,0.191c-0.063,0.057-0.13,0.111-0.203,0.161c-0.096,0.067-0.239,0.114-0.403,0.168l-0.437,0.129
		c-0.068,0.019-0.141,0.031-0.214,0.045l-0.767,0.165c0.051-0.022,0.099-0.047,0.147-0.072l0.511-0.281
		c0.081-0.047,0.159-0.091,0.224-0.138l0.318-0.216c0.13-0.089,0.258-0.151,0.375-0.21l0.042-0.021
		c0.068-0.031,0.139-0.056,0.241-0.084c0.073-0.019,0.147-0.034,0.207-0.046l0.039-0.005c0.014,0.039,0.032,0.078,0.054,0.113
		c0.02,0.031,0.042,0.06,0.066,0.086C19.343,16.945,19.338,16.95,19.334,16.954z M19.281,4.978
		c-0.022,0.036-0.041,0.074-0.054,0.114c-0.027-0.004-0.054-0.009-0.083-0.015c-0.063-0.011-0.125-0.026-0.209-0.048
		c-0.067-0.021-0.133-0.046-0.184-0.067l-0.054-0.028c-0.116-0.058-0.244-0.121-0.375-0.209l-0.226-0.153
		c-0.293-0.199-0.615-0.382-0.979-0.551c0.187,0.046,0.369,0.082,0.543,0.117c0.197,0.039,0.384,0.076,0.553,0.122l0.326,0.097
		c0.163,0.053,0.303,0.1,0.406,0.169c0.067,0.047,0.13,0.097,0.205,0.165c0.053,0.048,0.105,0.1,0.151,0.15
		c0.015,0.016,0.03,0.033,0.045,0.051C19.323,4.917,19.301,4.946,19.281,4.978z M20.201,5.601c0.023-0.031,0.042-0.066,0.057-0.102
		c0.014,0.004,0.027,0.008,0.041,0.012c0.054,0.012,0.114,0.035,0.221,0.09c0.076,0.039,0.15,0.083,0.211,0.126
		c0.123,0.095,0.252,0.2,0.358,0.353l0.312,0.433c0.042,0.059,0.086,0.118,0.128,0.2l0.34,0.561l-0.451-0.427
		c-0.07-0.07-0.151-0.126-0.23-0.181l-0.371-0.267c-0.063-0.053-0.129-0.101-0.192-0.146c-0.069-0.051-0.136-0.096-0.193-0.156
		c-0.053-0.053-0.1-0.111-0.159-0.192c-0.049-0.074-0.099-0.146-0.141-0.201c-0.003-0.005-0.006-0.01-0.01-0.015
		C20.152,5.662,20.178,5.633,20.201,5.601z M21.631,14.944c-0.123,0.207-0.238,0.401-0.368,0.568l-0.181,0.248
		c-0.101,0.146-0.226,0.247-0.342,0.338c-0.066,0.046-0.135,0.088-0.205,0.126l0.128,0.237l-0.178-0.214
		c-0.053,0.026-0.098,0.049-0.149,0.063c-0.026,0.009-0.052,0.016-0.079,0.023c-0.015-0.036-0.034-0.07-0.057-0.103
		c-0.023-0.033-0.05-0.063-0.08-0.089c0.013-0.018,0.026-0.036,0.04-0.055l0.134-0.194c0.042-0.056,0.088-0.109,0.146-0.166
		c0.051-0.053,0.115-0.097,0.181-0.145c0.064-0.046,0.131-0.096,0.183-0.14l0.204-0.149c0.261-0.167,0.529-0.396,0.861-0.74
		C21.785,14.686,21.707,14.816,21.631,14.944z M24.916,11.832c-0.001,0-0.002-0.001-0.003-0.001
		C24.914,11.831,24.915,11.831,24.916,11.832L24.916,11.832z M24.826,11.064c-0.247,0.165-0.487,0.358-0.701,0.565
		c-0.25,0.213-0.47,0.429-0.65,0.636c-0.376,0.403-0.691,0.801-0.966,1.222c0.162-0.487,0.146-1.023-0.05-1.499
		c-0.116-0.259-0.265-0.483-0.452-0.677c-0.173-0.162-0.371-0.291-0.583-0.396c0.322-0.16,0.596-0.373,0.786-0.636
		c0.389-0.52,0.512-1.229,0.322-1.849c-0.008-0.027-0.017-0.055-0.025-0.082c0.016,0.025,0.033,0.051,0.05,0.076
		c0.394,0.563,0.832,1.081,1.302,1.539c0.348,0.329,0.746,0.686,1.21,0.955C24.989,10.966,24.908,11.01,24.826,11.064z"/>
	<path d="M16.408,30.341c0-0.535-0.433-0.967-0.966-0.968h-4.568c-0.533,0.001-0.966,0.433-0.966,0.968
		c0,0.439,0.3,0.797,0.702,0.914c0,0.004-0.002,0.008-0.002,0.012h5.101c0-0.004-0.001-0.008-0.001-0.012
		C16.109,31.136,16.408,30.78,16.408,30.341z"/>
	<path d="M10.489,33.288h5.338c0.341-0.15,0.581-0.488,0.581-0.885c0-0.446-0.308-0.807-0.717-0.919
		c0.001-0.017,0.003-0.034,0.004-0.051h-5.066c0.002,0.017,0.004,0.033,0.006,0.05c-0.415,0.109-0.727,0.471-0.727,0.92
		C9.908,32.8,10.148,33.138,10.489,33.288z"/>
	<path d="M14.521,35.204c0-0.634,0.278-1.17,0.565-1.75h-3.641c0.304,0.561,0.575,1.133,0.575,1.752c0,0.353,0,1.458,0,2.917h-0.008
		v4.895H5.126v5.136h3.307v-1.774H6.775v-0.707h1.657v-1.657H9.14v1.657h1.657v0.707H9.14v1.774h2.873v1.963h0.008h2.492h0.008
		c0,0,0-0.773,0-1.963h2.865v-1.774h-1.658v-0.707h1.658v-1.657h0.707v1.657h1.656v0.707h-1.656v1.774h3.307v-5.136h-6.878
		C14.521,39.496,14.521,35.853,14.521,35.204z"/>
</g>
<g>
</g>
<g>
</g>
<g>
</g>
<g>
</g>
<g>
</g>
<g>
</g>
<g>
</g>
<g>
</g>
<g>
</g>
<g>
</g>
<g>
</g>
<g>
</g>
<g>
</g>
<g>
</g>
<g>
</g>
</svg>
