<?xml version="1.0" encoding="iso-8859-1"?>
<!-- Generator: Adobe Illustrator 16.0.0, SVG Export Plug-In . SVG Version: 6.00 Build 0)  -->
<!DOCTYPE svg PUBLIC "-//W3C//DTD SVG 1.1//EN" "http://www.w3.org/Graphics/SVG/1.1/DTD/svg11.dtd">
<svg version="1.1" id="Layer_1" xmlns="http://www.w3.org/2000/svg" xmlns:xlink="http://www.w3.org/1999/xlink" x="0px" y="0px"
	 width="24.431px" height="49.073px" viewBox="0 0 24.431 49.073" style="enable-background:new 0 0 24.431 49.073;"
	 xml:space="preserve">
<g>
	<path d="M17.041,38.572h-3.399v-6.066h-0.065c0-1.324,0-2.311,0-2.618c0-0.665,0.306-1.22,0.606-1.833h0.313
		c0.535,0,0.968-0.433,0.968-0.968c0-0.444-0.307-0.804-0.716-0.917c0.001-0.017,0.003-0.033,0.004-0.051H9.688
		c0.002,0.017,0.004,0.033,0.006,0.049c-0.415,0.11-0.726,0.471-0.726,0.919c0,0.535,0.433,0.968,0.968,0.968h0.524
		c0.321,0.588,0.619,1.186,0.619,1.833c0,0.329,0,1.311,0,2.618h-0.023v6.066H7.391v-0.633H5.547v3.454h1.843v-0.632h3.665v2.301
		H7.391v-0.632H5.547v3.453h1.843v-0.632h3.665v1.379H10.14v2.442h4.866v-2.442h-1.364v-1.379h3.399v0.632h1.844v-3.453h-1.844
		v0.632h-3.399v-2.301h3.399v0.632h1.844v-3.454h-1.844V38.572z"/>
	<path d="M22.254,1.538C19.312-0.166,6.266-0.587,3.356,0.951C-3.289,4.464,1.543,10.4,4.163,15.124
		c0.285,0.513,0.729,0.714,1.172,0.701c0.021,0,0.039,0.006,0.059,0.006c1.294,0,2.587,0,3.881,0
		c0.526,0.406,1.14,0.699,1.804,0.864c0,1.919,0,3.859,0,4.684c0,1.021-0.416,1.885-0.797,2.68H9.936
		c-0.535,0-0.968,0.433-0.968,0.968c0,0.441,0.3,0.796,0.702,0.915c0,0.004-0.002,0.008-0.002,0.012h5.096
		c0-0.004-0.001-0.008-0.001-0.013c0.401-0.118,0.7-0.474,0.7-0.914c0-0.535-0.433-0.968-0.968-0.968h-0.149
		c-0.342-0.876-0.769-1.683-0.769-2.586c0-0.69,0-2.784,0-4.846c0.564-0.176,1.088-0.442,1.545-0.796c1.035,0,2.069,0,3.104,0
		c2.119,0,4.208-5.737,5.012-7.12C24.71,6.179,25.265,3.281,22.254,1.538z M21.461,6.082c-1.013,2.386-2.651,4.659-4.034,6.894
		c-0.056,0.001-0.089,0.003-0.153,0.003c-0.123,0-0.247,0-0.37,0c0.06-0.302,0.094-0.611,0.094-0.931c0-2.651-2.149-4.8-4.8-4.8
		c-2.651,0-4.8,2.148-4.8,4.8c0,0.319,0.035,0.629,0.094,0.931c-0.42,0-0.839,0-1.258,0c-0.45-0.81-0.899-1.618-1.348-2.428
		C4.063,9.064,1.741,6.252,3.218,4.464C3.99,3.529,6.484,2.885,6.484,2.885S23.198,1.994,21.461,6.082z"/>
</g>
<g>
</g>
<g>
</g>
<g>
</g>
<g>
</g>
<g>
</g>
<g>
</g>
<g>
</g>
<g>
</g>
<g>
</g>
<g>
</g>
<g>
</g>
<g>
</g>
<g>
</g>
<g>
</g>
<g>
</g>
</svg>
