<?xml version="1.0" encoding="iso-8859-1"?>
<!-- Generator: Adobe Illustrator 16.0.0, SVG Export Plug-In . SVG Version: 6.00 Build 0)  -->
<!DOCTYPE svg PUBLIC "-//W3C//DTD SVG 1.1//EN" "http://www.w3.org/Graphics/SVG/1.1/DTD/svg11.dtd">
<svg version="1.1" id="Layer_1" xmlns="http://www.w3.org/2000/svg" xmlns:xlink="http://www.w3.org/1999/xlink" x="0px" y="0px"
	 width="30.187px" height="48.771px" viewBox="0 0 30.187 48.771" style="enable-background:new 0 0 30.187 48.771;"
	 xml:space="preserve">
<path d="M29.983,7.389c-0.179-0.827-0.458-1.572-0.758-2.178c-0.3-0.606-0.612-1.076-0.847-1.392C28.146,3.503,28,3.333,28,3.333
	c-0.003-0.002-0.145-0.175-0.414-0.458c-0.271-0.284-0.68-0.673-1.223-1.071C25.29,1,23.6,0.207,21.792,0.046
	c-0.86-0.095-1.88-0.043-2.723,0.149c-0.851,0.186-1.573,0.474-2.157,0.763c-0.585,0.289-1.037,0.577-1.342,0.792
	c-0.306,0.21-0.469,0.345-0.472,0.347c-0.003-0.004-0.695-0.604-1.93-1.167c-1.224-0.575-3.058-0.979-4.854-0.766
	C6.503,0.345,4.812,1.152,3.742,1.975C3.2,2.38,2.797,2.776,2.527,3.063C2.257,3.351,2.119,3.529,2.119,3.529l0,0
	C2.117,3.53,1.974,3.702,1.743,4.021C1.511,4.341,1.204,4.817,0.909,5.429c-0.295,0.61-0.563,1.363-0.73,2.196
	C0.1,8.042,0.035,8.477,0.015,8.921C0,9.147-0.001,9.353,0.001,9.605c0.009,0.287,0.029,0.571,0.074,0.846
	c0.173,1.111,0.603,2.032,1.027,2.743c0.432,0.721,0.876,1.265,1.255,1.701c0.763,0.862,1.283,1.324,1.283,1.324
	c0.001,0,0.518,0.498,1.295,1.146c0.775,0.656,1.808,1.458,2.827,2.225c1.028,0.768,1.992,1.501,2.813,2.088
	c0.48,0.334,2.193,1.471,3.443,2.299v24.794h2.166v-1.783h2.622v-2.246h0.785v-1.321h2.104v1.321h1.034v2.246h3.796v-3.652h-2.163
	v-0.785h-1.322v-2.104h1.322v-1.033h2.163v-4.147h-1.834v0.016h-2.188v2.271H21.72v1.322h-2.107v-1.322h-1.031v-2.271h-1.694v-0.016
	h-0.702V24.313c1.131-0.846,3.152-2.358,3.689-2.757c0.746-0.549,1.774-1.33,2.766-2.11c1-0.781,2.017-1.603,2.776-2.27
	c0.763-0.663,1.269-1.168,1.269-1.168s0.509-0.471,1.253-1.345c0.369-0.442,0.798-1,1.215-1.719
	c0.411-0.718,0.816-1.641,0.974-2.742c0.037-0.275,0.059-0.555,0.061-0.838c0.001-0.269-0.008-0.456-0.022-0.688
	C30.136,8.235,30.067,7.804,29.983,7.389z M8.773,18.1c0,0-0.991-0.739-1.971-1.527c-0.984-0.78-1.927-1.663-1.927-1.663v0.001
	c-0.001-0.001-0.233-0.229-0.582-0.569C3.95,13.987,3.498,13.5,3.092,12.938c-0.41-0.553-0.768-1.189-0.962-1.728
	c-0.202-0.533-0.263-0.932-0.263-0.932c0.731,0.533,1.472,1.418,1.935,1.854l0.015-0.009c-0.305-0.526-0.364-1.321,0.164-1.555
	c0.756-0.351,1.083,0.441,1.479,0.894c0.399,0.511,1.089,1.275,0.47,1.931c-0.099,0.103-0.39,0.319-0.555,0.152
	c-0.062-0.063-0.051-0.182-0.056-0.309c-0.006-0.142-0.046-0.301-0.184-0.454c-0.25-0.275-0.589-0.274-0.835-0.077
	c-0.258,0.205-0.212,0.649,0.061,0.945c0.657,0.695,1.507,0.211,1.93-0.242c-0.423,0.444-0.866,1.311-0.15,1.933
	c0.296,0.255,0.724,0.288,0.931,0.033c0.198-0.241,0.206-0.586-0.089-0.835c-0.167-0.145-0.327-0.169-0.467-0.169
	c-0.128-0.003-0.249,0.015-0.308-0.036c-0.189-0.17,0.013-0.46,0.129-0.557c0.674-0.604,1.319-0.111,1.979,0.444
	c0.495,0.421,1.573,1.173,0.978,1.811c-0.39,0.415-1.147,0.175-1.638-0.142l-0.011,0.013C8.033,16.36,8.799,17.308,8.773,18.1z
	 M6.422,3.668c0.56-0.23,1.355-0.171,1.529,0.375C8.203,4.842,7.3,5.069,6.886,5.369C6.38,5.667,5.771,6.211,5.083,5.636
	C4.977,5.54,4.75,5.265,4.906,5.097c0.062-0.06,0.182-0.047,0.304-0.05c0.14,0,0.293-0.029,0.445-0.151
	c0.273-0.221,0.301-0.555,0.13-0.818c-0.178-0.278-0.634-0.271-0.959,0C4.059,4.755,4.622,5.603,5.104,5.979
	C4.646,5.585,3.713,5.177,3.191,6.07C2.986,6.44,3.074,6.883,3.38,7c0.294,0.117,0.611,0.034,0.772-0.278
	C4.251,6.544,4.24,6.393,4.216,6.259c-0.021-0.121-0.062-0.238-0.015-0.3c0.141-0.206,0.446-0.03,0.559,0.074
	c0.664,0.618,0.349,1.155,0.111,1.771C4.656,8.266,4.612,9.229,3.767,9.142C3.198,9.077,2.982,8.309,3.098,7.725L3.08,7.72
	c-0.288,0.554-0.704,1.639-1.241,2.344c0,0-0.022-0.096-0.028-0.273C1.797,9.604,1.797,9.375,1.805,9.111
	c0.024-0.536,0.123-1.252,0.345-1.937c0.214-0.686,0.543-1.329,0.835-1.779C3.275,4.944,3.509,4.671,3.51,4.671
	c0,0,0.221-0.285,0.609-0.658c0.384-0.376,0.953-0.821,1.583-1.168C6.331,2.496,7.013,2.25,7.54,2.126
	c0.523-0.128,0.882-0.162,0.882-0.162c-0.5,0.698-1.517,1.286-2.007,1.688L6.422,3.668z M10.753,17.136
	c0.434-0.74,1.457,0.073,1.988,0.46c0.631,0.441,1.532,1.138,1.002,1.875c-0.084,0.117-0.337,0.372-0.531,0.236
	c-0.073-0.05-0.084-0.171-0.114-0.295c-0.035-0.138-0.106-0.291-0.283-0.415c-0.32-0.225-0.665-0.135-0.85,0.118
	c-0.193,0.267-0.045,0.668,0.271,0.89c0.692,0.483,1.393,0.027,1.783-0.446v2.274c-0.745-0.493-1.544-1.022-1.735-1.156
	c-0.379-0.271-0.887-0.606-1.396-0.997c-0.988-0.738-1.979-1.479-1.979-1.479c0.783-0.232,1.857,0.218,2.421,0.501l0.01-0.014
	C10.9,18.288,10.462,17.625,10.753,17.136z M18.41,19.033c-0.188-0.25-0.524-0.337-0.838-0.104c-0.182,0.135-0.24,0.284-0.271,0.423
	c-0.027,0.125-0.033,0.247-0.097,0.293c-0.204,0.153-0.452-0.094-0.526-0.228c-0.472-0.775,0.185-1.349,0.908-1.867
	c0.555-0.393,1.543-1.238,2.015-0.503c0.299,0.481-0.119,1.157-0.548,1.549l0.009,0.014c0.539-0.264,1.641-0.762,2.399-0.527
	c0,0-0.964,0.763-1.956,1.502c-0.635,0.473-2.248,1.673-3.32,2.469v-2.842c0.036,0.063,0.065,0.126,0.11,0.186
	c0.368,0.494,1.14,1.078,1.88,0.527C18.481,19.695,18.608,19.295,18.41,19.033z M23.229,15.238c0.214,0.25,0.645,0.204,0.935-0.056
	c0.694-0.627,0.254-1.491-0.184-1.933c0.427,0.438,1.275,0.928,1.923,0.215c0.266-0.3,0.298-0.735,0.035-0.937
	c-0.247-0.19-0.584-0.197-0.827,0.084c-0.14,0.163-0.17,0.313-0.171,0.455c-0.002,0.128,0.01,0.246-0.043,0.303
	c-0.175,0.184-0.457-0.029-0.551-0.149c-0.58-0.7-0.063-1.308,0.391-1.888c0.392-0.458,0.709-1.293,1.484-0.947
	c0.53,0.223,0.489,1.019,0.197,1.536l0.016,0.011c0.443-0.412,1.191-1.357,1.892-1.866c-0.001,0-0.05,0.397-0.242,0.93
	c-0.189,0.532-0.528,1.175-0.926,1.731c-0.396,0.563-0.833,1.062-1.167,1.417c-0.34,0.348-0.566,0.579-0.566,0.579
	c0-0.001-0.925,0.898-1.891,1.694c-0.965,0.806-1.94,1.562-1.94,1.562c-0.023-0.816,0.688-1.737,1.091-2.217l-0.012-0.013
	c-0.49,0.331-1.241,0.583-1.637,0.175c-0.597-0.614,0.412-1.364,0.898-1.793c0.579-0.504,1.389-1.165,2.014-0.52
	c0.1,0.103,0.306,0.4,0.134,0.559c-0.063,0.06-0.184,0.045-0.312,0.049c-0.142,0.001-0.306,0.036-0.463,0.177
	C23.021,14.65,23.026,14.999,23.229,15.238z M29.147,10.066c-0.3,1.899-1.309,3.139-1.968,3.962
	c-0.695,0.818-1.188,1.273-1.188,1.273s-0.482,0.482-1.226,1.129c-0.74,0.65-1.739,1.459-2.735,2.236
	c-0.986,0.777-2.004,1.55-2.754,2.1c-0.444,0.33-1.939,1.432-3.092,2.281v-0.604c0.91-0.677,2.301-1.71,2.793-2.075
	c0.751-0.553,1.762-1.319,2.746-2.095c0.993-0.773,1.984-1.576,2.716-2.219c0.731-0.638,1.203-1.109,1.203-1.109
	s0.483-0.447,1.155-1.238c0.641-0.793,1.589-1.982,1.856-3.709c0.107-0.912,0.011-1.578-0.124-2.301
	c-0.151-0.694-0.386-1.32-0.637-1.829c-0.252-0.51-0.516-0.905-0.713-1.17c-0.195-0.265-0.316-0.408-0.321-0.409h0.001
	c0,0-0.119-0.147-0.349-0.386c-0.226-0.239-0.57-0.566-1.026-0.902c-0.904-0.677-2.324-1.343-3.844-1.477
	c-0.736-0.08-1.552-0.037-2.254,0.121C18.68,1.8,18.066,2.044,17.568,2.291c-0.997,0.497-1.556,0.979-1.556,0.979v0.001
	c-0.001,0-0.07,0.055-0.172,0.137c-0.05,0.042-0.11,0.092-0.172,0.145c-0.063,0.055-0.13,0.113-0.195,0.172
	c-0.063,0.061-0.128,0.121-0.188,0.178c-0.06,0.059-0.115,0.113-0.163,0.16c-0.017,0.016-0.024,0.024-0.038,0.039
	c-0.023-0.025-0.048-0.05-0.071-0.075c-0.068-0.069-0.14-0.144-0.212-0.217c-0.074-0.069-0.15-0.14-0.223-0.204
	c-0.035-0.033-0.068-0.064-0.102-0.096c-0.033-0.027-0.066-0.055-0.097-0.078c-0.119-0.098-0.199-0.163-0.199-0.163l-0.193,0.246
	c0,0,0.088,0.071,0.218,0.178c0.031,0.027,0.067,0.058,0.104,0.088c0.037,0.033,0.074,0.067,0.111,0.104l0.12,0.109l0.063,0.057
	l0.058,0.062c0.078,0.081,0.155,0.161,0.228,0.237c0.069,0.079,0.135,0.153,0.19,0.218c0,0.001,0,0.001,0.001,0.001
	c0.009-0.011,0.065-0.073,0.156-0.172c0.008-0.009,0.02-0.021,0.028-0.028c0.031,0.017,0.064,0.031,0.095,0.047
	c0,0-0.026-0.031-0.065-0.076c0.095-0.096,0.205-0.205,0.321-0.319c0.146-0.129,0.291-0.255,0.401-0.351
	c0.112-0.09,0.188-0.15,0.189-0.15l0,0c0,0,1.09-0.892,2.455-1.342c0.677-0.233,1.402-0.356,1.961-0.37
	c0.546-0.019,0.897,0.021,0.897,0.021c-0.309,0.304-0.752,0.521-1.187,0.725c-0.504,0.245-0.87,0.424-1.114,0.543l0.005,0.017
	c0.591-0.127,1.359,0.077,1.412,0.654c0.081,0.823-0.774,0.881-1.254,1.102c-0.554,0.212-1.307,0.642-1.849-0.066
	c-0.086-0.115-0.249-0.435-0.061-0.567c0.071-0.045,0.187-0.008,0.309,0.015c0.135,0.021,0.296,0.029,0.469-0.065
	c0.313-0.165,0.397-0.493,0.278-0.78c-0.124-0.307-0.573-0.383-0.935-0.179c-0.873,0.503-0.504,1.45-0.116,1.926
	c0.699,0.839,1.647,0.991,2.372,0.734c0.57-0.229,0.923-0.799,1.101-1.743c0.027-0.253-0.008-0.54-0.158-0.873
	c0,0,0.172-0.095,0.345-0.188c0.182-0.083,0.364-0.167,0.364-0.167s0.173,0.113,0.33,0.239c0.158,0.121,0.304,0.255,0.304,0.254
	c-0.214,0.289-0.308,0.568-0.331,0.819c-0.057,0.956,0.324,1.614,0.83,1.927c0.341,0.194,0.697,0.263,1.112,0.219
	c0.407-0.045,0.871-0.198,1.292-0.548c0.468-0.372,1.054-1.223,0.271-1.897c-0.326-0.267-0.772-0.265-0.946,0.015
	c-0.17,0.266-0.147,0.594,0.127,0.811c0.157,0.129,0.309,0.146,0.442,0.147c0.124,0.002,0.247-0.016,0.299,0.039
	c0.173,0.177-0.052,0.443-0.177,0.533c-0.73,0.541-1.197,0.133-1.757-0.215c-0.414-0.3-1.35-0.516-1.103-1.334
	c0.169-0.543,0.962-0.616,1.512-0.392l0.009-0.016c-0.462-0.388-1.529-0.989-2.002-1.665c0,0,0.356,0.029,0.88,0.154
	C23.114,2.12,23.794,2.36,24.422,2.7c0.631,0.338,1.2,0.775,1.587,1.146c0.389,0.367,0.613,0.646,0.613,0.646
	s0.236,0.27,0.531,0.717c0.299,0.446,0.632,1.084,0.854,1.767c0.228,0.681,0.341,1.393,0.369,1.928
	c0.039,0.513-0.023,0.973-0.022,0.952c-0.555-0.733-0.976-1.75-1.271-2.33l-0.016,0.005c0.126,0.589-0.086,1.357-0.649,1.429
	c-0.835,0.101-0.893-0.826-1.107-1.285c-0.196-0.549-0.62-1.24,0.072-1.812c0.114-0.089,0.427-0.262,0.563-0.075
	c0.048,0.068,0.01,0.185-0.01,0.306c-0.021,0.134-0.026,0.294,0.068,0.463c0.166,0.308,0.487,0.395,0.778,0.275
	c0.308-0.122,0.384-0.571,0.177-0.938c-0.522-0.881-1.468-0.473-1.921-0.069c-0.416,0.354-0.645,0.787-0.761,1.182
	c-0.115,0.4-0.114,0.763,0.012,1.129c0.226,0.542,0.81,1.048,1.761,1.159c0.255,0.021,0.539-0.023,0.863-0.184
	c0.019-0.01,0.378,0.676,0.36,0.697c0.011,0.022-0.521,0.604-0.535,0.582c-0.267-0.237-0.54-0.348-0.787-0.397
	C25,9.854,24.383,9.958,23.931,10.563c-0.581,0.781-0.725,1.897,0.043,2.681c-0.78-0.763-1.856-0.717-2.851,0.115
	c-0.782,0.68-1.132,1.699-0.621,2.504c0.135,0.217,0.357,0.405,0.686,0.567l-0.321,0.747l-0.812,0.139
	c-0.078-0.356-0.207-0.619-0.386-0.801c-0.672-0.684-1.715-0.602-2.602,0.044c-0.404,0.296-0.698,0.634-0.883,0.985v-1.735
	l0.502-0.374c1.658-1.28,3.075-2.364,3.064-3.488c-0.013-1.366-1.133-2.467-2.5-2.455c-0.813,0.009-1.57,0.415-2.023,1.089
	l-0.166,0.246l-0.169-0.243c-0.468-0.665-1.231-1.057-2.046-1.05c-1.366,0.013-2.467,1.136-2.454,2.501
	c0.012,1.195,1.655,2.32,3.479,3.687l0.146,0.103v1.512c-0.183-0.254-0.42-0.494-0.713-0.708c-0.89-0.644-1.99-0.725-2.632-0.024
	c-0.176,0.185-0.3,0.449-0.371,0.809L9.494,17.29L9.15,16.542c0.323-0.167,0.544-0.36,0.676-0.58
	c0.492-0.813,0.133-1.824-0.676-2.485c-1.017-0.83-2.09-0.853-2.854-0.073c0.751-0.799,0.579-1.922-0.014-2.694
	c-0.468-0.593-1.092-0.688-2.037-0.538c-0.248,0.053-0.518,0.167-0.785,0.409c-0.009,0.022-0.556-0.543-0.539-0.567
	C2.899,9.993,3.254,9.288,3.27,9.298c0.328,0.156,0.613,0.197,0.866,0.173C5.084,9.348,5.667,8.84,5.873,8.286
	c0.13-0.368,0.126-0.734,0.01-1.133c-0.12-0.391-0.354-0.82-0.771-1.167c0.425,0.342,0.89,0.485,1.299,0.526
	c0.418,0.039,0.775-0.033,1.116-0.226c0.499-0.321,0.882-0.991,0.82-1.943c-0.025-0.252-0.123-0.529-0.34-0.819
	c0,0,0.145-0.129,0.301-0.257c0.162-0.12,0.323-0.241,0.323-0.241s0.186,0.083,0.371,0.165c0.184,0.091,0.354,0.187,0.354,0.187
	C9.208,3.705,9.173,4,9.203,4.25c0.147,0.945,0.664,1.513,1.225,1.707c0.372,0.125,0.737,0.11,1.133-0.016
	c0.388-0.129,0.812-0.375,1.15-0.8c0.387-0.468,0.777-1.409-0.13-1.917c-0.375-0.195-0.815-0.099-0.926,0.211
	c-0.109,0.298-0.018,0.61,0.295,0.767c0.184,0.092,0.331,0.082,0.467,0.051c0.121-0.023,0.235-0.062,0.298-0.021
	c0.212,0.135,0.039,0.451-0.063,0.561c-0.6,0.674-1.144,0.377-1.766,0.153c-0.466-0.208-1.433-0.225-1.362-1.073
	c0.051-0.574,0.814-0.805,1.401-0.703l0.004-0.016c-0.535-0.284-1.711-0.645-2.314-1.209c0,0,0.356-0.047,0.895-0.032
	c0.535,0.007,1.253,0.095,1.942,0.297c0.692,0.195,1.341,0.515,1.799,0.795c0.461,0.278,0.737,0.509,0.737,0.51l0.193-0.247
	c0,0-0.58-0.508-1.622-0.982c-1.03-0.483-2.568-0.821-4.081-0.643C6.955,1.794,5.536,2.471,4.635,3.164
	C4.179,3.504,3.839,3.839,3.612,4.08C3.384,4.321,3.268,4.472,3.268,4.472l0.001,0.001C3.268,4.474,3.145,4.62,2.95,4.887
	C2.756,5.154,2.499,5.556,2.25,6.07C2.002,6.583,1.778,7.216,1.636,7.915c-0.064,0.351-0.12,0.716-0.138,1.089
	c-0.013,0.19-0.013,0.369-0.012,0.571c0.008,0.219,0.023,0.438,0.059,0.649c0.295,1.737,1.273,2.911,1.931,3.693
	c0.691,0.78,1.186,1.22,1.186,1.22s0.482,0.465,1.229,1.09c0.747,0.633,1.757,1.416,2.768,2.177
	c1.016,0.757,1.998,1.504,2.789,2.069c0.437,0.305,1.622,1.09,2.572,1.717v0.602c-1.15-0.763-2.456-1.631-2.863-1.916
	c-0.803-0.571-1.777-1.314-2.797-2.075c-1.015-0.761-2.031-1.552-2.789-2.19c-0.756-0.635-1.251-1.11-1.251-1.11
	s-0.501-0.446-1.217-1.254c-0.354-0.409-0.764-0.913-1.149-1.56c-0.384-0.639-0.754-1.443-0.898-2.386
	c-0.04-0.233-0.059-0.474-0.066-0.716C0.986,9.366,0.986,9.179,1.001,8.976C1.02,8.579,1.077,8.19,1.147,7.817
	c0.151-0.744,0.39-1.416,0.654-1.962c0.263-0.547,0.536-0.974,0.744-1.259c0.209-0.286,0.337-0.44,0.337-0.44
	c-0.001,0,0.124-0.16,0.365-0.416C3.49,3.483,3.852,3.128,4.336,2.765c0.956-0.735,2.468-1.456,4.089-1.618
	c1.606-0.19,3.242,0.17,4.34,0.684c1.106,0.506,1.725,1.045,1.725,1.045l0.239-0.305l-0.239,0.305c0,0,0.057,0.046,0.141,0.116
	c0.044,0.034,0.092,0.074,0.145,0.117c0.051,0.046,0.104,0.096,0.159,0.144c0.054,0.049,0.107,0.099,0.156,0.145
	c0.069-0.059,0.15-0.131,0.236-0.205c0.045-0.04,0.093-0.082,0.136-0.12c0.046-0.035,0.087-0.069,0.124-0.098
	c0.072-0.058,0.12-0.096,0.12-0.096l0,0c0.004-0.003,0.592-0.509,1.644-1.033c0.526-0.261,1.177-0.52,1.93-0.684
	c0.751-0.17,1.636-0.216,2.413-0.132c1.614,0.144,3.125,0.853,4.087,1.571c0.486,0.356,0.851,0.704,1.092,0.959
	c0.243,0.255,0.371,0.409,0.371,0.409s0.132,0.152,0.339,0.436c0.21,0.282,0.49,0.702,0.759,1.244
	c0.268,0.542,0.517,1.207,0.677,1.946c0.075,0.37,0.136,0.757,0.162,1.151c0.013,0.204,0.021,0.381,0.019,0.61
	C29.197,9.596,29.178,9.833,29.147,10.066z"/>
<path d="M13.984,8.033l0.071,0.071l0.002,0.001c-0.006-0.007-0.004-0.005-0.011-0.014c-0.03-0.036-0.071-0.085-0.12-0.144
	c-0.002,0.001-0.008,0.007-0.008,0.007L13.984,8.033z"/>
<g>
</g>
<g>
</g>
<g>
</g>
<g>
</g>
<g>
</g>
<g>
</g>
<g>
</g>
<g>
</g>
<g>
</g>
<g>
</g>
<g>
</g>
<g>
</g>
<g>
</g>
<g>
</g>
<g>
</g>
</svg>
