<?xml version="1.0" encoding="iso-8859-1"?>
<!-- Generator: Adobe Illustrator 16.0.0, SVG Export Plug-In . SVG Version: 6.00 Build 0)  -->
<!DOCTYPE svg PUBLIC "-//W3C//DTD SVG 1.1//EN" "http://www.w3.org/Graphics/SVG/1.1/DTD/svg11.dtd">
<svg version="1.1" id="Layer_1" xmlns="http://www.w3.org/2000/svg" xmlns:xlink="http://www.w3.org/1999/xlink" x="0px" y="0px"
	 width="20.026px" height="48.24px" viewBox="0 0 20.026 48.24" style="enable-background:new 0 0 20.026 48.24;"
	 xml:space="preserve">
<g>
	<path d="M9.994,6.316c-2.851,0-3.761-0.964-4.052-1.581c0.292,1.086,1.024,9.192,4.052,9.192c3.027,0,3.76-8.105,4.052-9.192
		C13.754,5.353,12.844,6.316,9.994,6.316z"/>
	<path d="M18.266,9.922c0.6-0.915,0.944-1.938,0.944-3.026C19.21,3.087,15.092,0,10.013,0c-5.08,0-9.198,3.087-9.198,6.896
		c0,1.108,0.354,2.152,0.975,3.079C0.755,10.139,0,10.615,0,11.184c0,0.676,1.061,1.224,2.398,1.267
		c0.989,1.954,2.846,4.198,3.5,5.437c0.166,0.313,0.32,0.537,0.466,0.693l1.872,2.822c-0.687,0.051-1.234,0.609-1.234,1.309
		c0,0.734,0.595,1.327,1.328,1.327h0.135v0.902H8.439c-0.733,0-1.328,0.594-1.328,1.327s0.595,1.327,1.328,1.327h0.026V48.24h2.622
		v-2.179h5.376v-2.853h-3.672V41.66h3.672v-2.854h-5.376V27.596h0.499c0.733,0,1.328-0.594,1.328-1.327s-0.594-1.327-1.328-1.327
		h-0.499v-0.902h0.39c0.733,0,1.328-0.593,1.328-1.327c0-0.662-0.494-1.188-1.129-1.287l2.537-3.547h0
		c0.703-0.948,2.506-3.456,3.452-5.487c1.319-0.052,2.361-0.595,2.361-1.265C20.026,10.562,19.286,10.09,18.266,9.922z
		 M10.013,0.812c2.423,0,4.592,0.8,6.08,2.063h-4.109c-0.268-0.423-1.053-0.731-1.989-0.731c-0.938,0-1.722,0.308-1.989,0.731H3.933
		C5.42,1.612,7.589,0.812,10.013,0.812z M17.081,9.871c-1.231,0.093-2.179,0.617-2.179,1.255c0,0.585,0.797,1.073,1.877,1.224
		c-1.248,1.106-3.381,2.312-6.786,2.312c-3.361,0-5.471-1.169-6.715-2.258c1.063-0.155,1.844-0.639,1.844-1.219
		c0-0.631-0.924-1.152-2.135-1.253c-0.69-0.894-1.092-1.928-1.092-3.035c0-1.361,0.604-2.614,1.611-3.628h4.407
		C7.999,3.806,8.892,4.23,9.994,4.23c1.101,0,1.995-0.424,2.079-0.962h4.444c1.007,1.014,1.611,2.267,1.611,3.628
		C18.129,7.979,17.744,8.991,17.081,9.871z"/>
</g>
<g>
</g>
<g>
</g>
<g>
</g>
<g>
</g>
<g>
</g>
<g>
</g>
<g>
</g>
<g>
</g>
<g>
</g>
<g>
</g>
<g>
</g>
<g>
</g>
<g>
</g>
<g>
</g>
<g>
</g>
</svg>
