<?xml version="1.0" encoding="iso-8859-1"?>
<!-- Generator: Adobe Illustrator 16.0.0, SVG Export Plug-In . SVG Version: 6.00 Build 0)  -->
<!DOCTYPE svg PUBLIC "-//W3C//DTD SVG 1.1//EN" "http://www.w3.org/Graphics/SVG/1.1/DTD/svg11.dtd">
<svg version="1.1" id="Layer_1" xmlns="http://www.w3.org/2000/svg" xmlns:xlink="http://www.w3.org/1999/xlink" x="0px" y="0px"
	 width="34.544px" height="49.807px" viewBox="0 0 34.544 49.807" style="enable-background:new 0 0 34.544 49.807;"
	 xml:space="preserve">
<path d="M33.512,12.887c0.592-0.529,1.029-1.286,1.032-1.704c0-0.076-0.021-0.165-0.047-0.258c-0.008-0.023-0.015-0.045-0.02-0.063
	c-0.07-0.206-0.192-0.442-0.352-0.676c-0.013-0.019-0.022-0.034-0.035-0.053c-0.087-0.12-0.18-0.239-0.282-0.357l-0.036-0.037
	c-0.1-0.113-0.217-0.226-0.344-0.328c-0.002-0.002-0.008-0.006-0.008-0.006c-0.126-0.103-0.253-0.192-0.38-0.277l-0.062-0.039
	c-0.124-0.078-0.251-0.146-0.373-0.203c-0.011-0.002-0.02-0.004-0.027-0.011c-0.115-0.049-0.229-0.087-0.336-0.115
	c-0.017-0.004-0.03-0.008-0.05-0.013c-0.106-0.021-0.208-0.033-0.301-0.027c-0.018-0.003-0.035,0-0.052,0.001
	c-0.092,0.01-0.178,0.03-0.246,0.068c0.081-0.046,0.16-0.107,0.236-0.178l0.048-0.052c0.058-0.059,0.12-0.124,0.173-0.2
	c0,0,0,0,0.002-0.003c0.063-0.093,0.119-0.197,0.167-0.318C32.229,8.021,32.235,8,32.24,7.978c0.038-0.1,0.072-0.207,0.097-0.322
	c0-0.004,0-0.004,0.002-0.005c0.018-0.095,0.027-0.199,0.033-0.303c0.007-0.053,0.015-0.1,0.016-0.156
	c0.003-0.15-0.004-0.316-0.029-0.482c-0.001-0.013-0.002-0.023-0.004-0.038c-0.033-0.167-0.084-0.341-0.149-0.523
	C32.203,6.142,32.2,6.13,32.197,6.121c-0.072-0.19-0.16-0.389-0.271-0.589c-0.085-0.166-0.189-0.292-0.285-0.413
	c-0.027-0.038-0.063-0.07-0.09-0.101c-0.065-0.074-0.133-0.147-0.194-0.205c-0.036-0.031-0.07-0.06-0.102-0.086
	c-0.059-0.05-0.115-0.094-0.174-0.129c-0.032-0.022-0.063-0.042-0.097-0.06c-0.055-0.031-0.106-0.055-0.161-0.078
	c-0.026-0.01-0.058-0.022-0.087-0.034c-0.054-0.017-0.107-0.022-0.158-0.027L30.507,4.39c-0.067-0.004-0.133,0.002-0.195,0.012
	c-0.008,0.002-0.014,0-0.021,0.004c-0.056,0.011-0.106,0.023-0.155,0.042l-0.01,0.007c-0.063,0.023-0.125,0.054-0.178,0.089
	c-0.058,0.037-0.106,0.075-0.148,0.117c-0.453,0.432-0.383,1.115-0.028,1.646c0.042,0.068,0.093,0.123,0.136,0.182
	c0.309,0.392,0.729,0.472,0.957,0.395c0.268-0.091,0.356-0.441,0.12-0.869c-0.08-0.166-0.278-0.484-0.422-0.342
	c-0.018,0.019-0.028,0.042-0.03,0.064c-0.012,0.16,0.318,0.429,0.025,0.572c-0.027,0.012-0.057,0.015-0.088,0.016
	c-0.006,0.001-0.01,0.005-0.017,0.004c-0.057-0.003-0.121-0.038-0.184-0.096c-0.058-0.042-0.116-0.098-0.175-0.186
	C29.928,5.797,30,5.416,30.188,5.255c0.066-0.057,0.133-0.094,0.198-0.123c0.021-0.009,0.042-0.013,0.063-0.018
	c0.045-0.017,0.092-0.025,0.138-0.026l0.065,0.004c0.047,0.003,0.093,0.015,0.138,0.031c0.02,0.007,0.038,0.013,0.056,0.02
	c0.063,0.028,0.129,0.065,0.188,0.116c0.077,0.058,0.15,0.134,0.224,0.22c0.014,0.016,0.025,0.03,0.042,0.049
	c0.072,0.085,0.137,0.189,0.196,0.302c0.203,0.376,0.329,0.791,0.345,1.137c0.001,0.03-0.003,0.059-0.006,0.086
	c-0.005,0.083-0.016,0.161-0.033,0.236c-0.004,0.028-0.011,0.055-0.021,0.08c-0.027,0.093-0.061,0.179-0.112,0.249
	c0,0,0,0-0.003,0.001c-0.048,0.069-0.11,0.122-0.183,0.165c-0.021,0.013-0.046,0.023-0.068,0.032
	c-0.058,0.029-0.119,0.045-0.187,0.058c-0.03,0.003-0.058,0.005-0.091,0.009c-0.1,0.007-0.209,0.001-0.333-0.021
	c-0.539-0.122-1.268-0.657-2.007-1.198c-0.739-0.556-1.514-1.106-2.094-1.611C26.548,4.9,26.39,4.757,26.229,4.616
	c-0.146-0.132-0.279-0.271-0.406-0.413l-0.017-0.019c-0.461-0.458-0.814-0.964-0.964-1.439c-0.06-0.201-0.07-0.407-0.033-0.613
	c0.002-0.006,0.004-0.01,0.003-0.017c0.016-0.082,0.023-0.167,0.058-0.249c0.042-0.097,0.093-0.167,0.142-0.24
	c0.017-0.031,0.034-0.068,0.054-0.095c0.043-0.053,0.09-0.085,0.138-0.128l0.021-0.018c0.042-0.034,0.083-0.068,0.128-0.091
	c0.114-0.064,0.234-0.097,0.353-0.112c0.229-0.023,0.44,0.032,0.557,0.07c0.008,0.004,0.016,0.008,0.021,0.009
	c0.021,0.009,0.04,0.017,0.055,0.023c0.008,0.004,0.023,0.012,0.023,0.012c-0.277-0.358-0.669-0.699-1.086-0.948
	c-0.466-0.245-0.956-0.391-1.354-0.336c-0.403,0.066-0.706,0.309-0.831,0.778c-0.118,0.436-0.025,0.878,0.092,1.242
	c0.117,0.376,0.268,0.667,0.33,0.776c0.017,0.033,0.025,0.05,0.025,0.05c-0.438-0.287-0.782-0.747-1.303-1.227
	c-0.518-0.464-1.227-0.933-2.291-1.08c-0.771-0.078-1.292,0.145-1.599,0.41c-0.311,0.265-0.421,0.53-0.421,0.53
	c-0.194,0.006-0.366,0.067-0.513,0.161c-0.049,0.031-0.095,0.068-0.139,0.104C17.1,1.607,16.884,1.5,16.622,1.492
	c0,0-0.11-0.265-0.42-0.53c-0.309-0.265-0.83-0.488-1.602-0.409c-1.063,0.146-1.771,0.614-2.289,1.079
	c-0.521,0.479-0.865,0.939-1.303,1.227c0,0,0.163-0.271,0.304-0.671c0.14-0.399,0.279-0.896,0.145-1.398
	c-0.048-0.171-0.116-0.311-0.205-0.423c-0.395-0.527-1.219-0.434-1.981-0.019c-0.416,0.25-0.809,0.589-1.086,0.948
	c0,0,0.015-0.008,0.023-0.012c0.014-0.006,0.031-0.015,0.053-0.024c0.007,0,0.018-0.002,0.026-0.006
	C8.403,1.21,8.612,1.158,8.839,1.182c0.006,0,0.015,0.002,0.021,0.002c0.105,0.014,0.218,0.046,0.326,0.104
	c0.061,0.033,0.121,0.083,0.18,0.136c0.039,0.031,0.078,0.061,0.113,0.108C9.526,1.59,9.563,1.672,9.604,1.75
	c0.023,0.042,0.05,0.068,0.068,0.116C9.728,1.99,9.754,2.117,9.764,2.245c0.003,0.043-0.005,0.088-0.006,0.13
	C9.757,2.46,9.751,2.545,9.734,2.63C9.723,2.679,9.704,2.73,9.688,2.781C9.663,2.858,9.638,2.935,9.602,3.011
	C9.578,3.062,9.548,3.112,9.519,3.162c-0.042,0.071-0.081,0.155-0.133,0.23C9.354,3.442,9.319,3.495,9.283,3.55
	C9.229,3.626,9.168,3.705,9.105,3.781c-0.04,0.048-0.079,0.093-0.12,0.144C8.912,4.008,8.827,4.082,8.749,4.171L8.641,4.293
	c-0.239,0.271-0.533,0.494-0.8,0.759C7.26,5.558,6.485,6.108,5.747,6.664C5.008,7.205,4.278,7.739,3.739,7.862
	C3.599,7.886,3.478,7.897,3.368,7.888C3.258,7.876,3.162,7.848,3.081,7.8C2.835,7.667,2.712,7.373,2.701,7
	C2.707,6.642,2.837,6.217,3.048,5.83C3.12,5.69,3.201,5.572,3.291,5.474l0.024-0.028c0.082-0.094,0.169-0.168,0.254-0.23
	l0.042-0.027C3.697,5.137,3.784,5.1,3.87,5.089l0.037,0c0.089-0.006,0.184,0.007,0.276,0.05c0.058,0.026,0.115,0.065,0.173,0.113
	C4.544,5.415,4.617,5.795,4.45,6.046c-0.055,0.083-0.109,0.136-0.164,0.18C4.274,6.235,4.266,6.242,4.254,6.25
	C4.208,6.287,4.162,6.312,4.116,6.319C4.071,6.328,4.027,6.326,3.987,6.308C3.695,6.165,4.022,5.898,4.013,5.737
	C4.009,5.713,4,5.691,3.981,5.672C3.944,5.639,3.907,5.633,3.87,5.643c-0.011,0.004-0.023,0.014-0.034,0.02
	C3.809,5.676,3.784,5.695,3.755,5.722L3.713,5.77C3.692,5.797,3.674,5.824,3.651,5.853C3.612,5.906,3.583,5.969,3.56,6.013v0.002
	L3.559,6.016C3.324,6.443,3.415,6.791,3.681,6.882c0.266,0.091,0.758-0.037,1.092-0.576l0.002-0.001
	C4.839,6.213,4.888,6.117,4.93,6.016c0.01-0.021,0.017-0.039,0.025-0.059c0.067-0.179,0.106-0.363,0.103-0.546
	c0-0.023-0.004-0.045-0.006-0.066C5.044,5.283,5.04,5.223,5.026,5.167c-0.003-0.028-0.011-0.054-0.02-0.078
	C4.989,5.034,4.97,4.981,4.942,4.929C4.933,4.907,4.92,4.882,4.909,4.862C4.864,4.791,4.813,4.722,4.746,4.66
	C4.702,4.619,4.653,4.581,4.598,4.542c-0.054-0.035-0.116-0.065-0.18-0.087c-0.003,0-0.008-0.004-0.011-0.006
	C4.361,4.431,4.31,4.418,4.258,4.405C4.247,4.404,4.239,4.403,4.229,4.402C4.167,4.393,4.104,4.387,4.037,4.39
	c-0.024,0.002-0.05,0.005-0.071,0.007C3.912,4.404,3.86,4.409,3.805,4.426C3.778,4.437,3.747,4.449,3.72,4.459
	C3.666,4.48,3.612,4.506,3.559,4.536C3.526,4.552,3.493,4.574,3.46,4.598C3.404,4.63,3.346,4.675,3.289,4.724
	C3.255,4.752,3.224,4.78,3.186,4.812c-0.062,0.059-0.128,0.13-0.192,0.203c-0.03,0.034-0.062,0.063-0.092,0.104
	C2.808,5.237,2.702,5.365,2.616,5.532C2.528,5.696,2.454,5.856,2.391,6.016L2.335,6.171C2.3,6.275,2.266,6.378,2.239,6.475
	c-0.014,0.059-0.026,0.116-0.04,0.173C2.181,6.736,2.171,6.826,2.164,6.917C2.162,6.975,2.161,7.03,2.159,7.085
	c0,0.086,0.003,0.167,0.008,0.248C2.17,7.387,2.175,7.435,2.183,7.482c0.009,0.08,0.024,0.16,0.043,0.236
	c0.011,0.04,0.02,0.078,0.028,0.111c0.028,0.103,0.063,0.2,0.104,0.286c0.005,0.011,0.009,0.022,0.016,0.03
	c0.038,0.077,0.076,0.15,0.123,0.218l0.011,0.014c0.064,0.088,0.134,0.164,0.205,0.231c0.076,0.073,0.162,0.134,0.242,0.184
	C2.909,8.763,2.856,8.743,2.799,8.731c-0.433-0.102-1.149,0.21-1.767,0.747C0.44,10.006,0.003,10.763,0,11.182
	c-0.001,0.076,0.021,0.165,0.046,0.258c0.008,0.022,0.016,0.045,0.021,0.063c0.07,0.206,0.192,0.442,0.351,0.676
	c0.014,0.019,0.023,0.034,0.036,0.053c0.086,0.12,0.18,0.24,0.281,0.357l0.036,0.038c0.101,0.113,0.217,0.225,0.345,0.328
	c0.002,0.001,0.008,0.005,0.008,0.005c0.126,0.104,0.253,0.193,0.38,0.277l0.061,0.04c0.125,0.078,0.252,0.146,0.374,0.202
	c0.01,0.002,0.019,0.004,0.025,0.011c0.116,0.049,0.229,0.087,0.337,0.115c0.018,0.004,0.031,0.008,0.05,0.013
	c0.108,0.021,0.208,0.033,0.301,0.027c0.019,0.004,0.035,0,0.053,0c0.092-0.01,0.178-0.03,0.246-0.069
	c-0.082,0.047-0.161,0.107-0.237,0.178l-0.047,0.052c-0.059,0.059-0.12,0.125-0.173,0.201c-0.001,0-0.001,0-0.002,0.002
	c-0.063,0.093-0.12,0.198-0.167,0.318c-0.01,0.017-0.015,0.038-0.02,0.061c-0.039,0.1-0.073,0.207-0.098,0.323
	c0.001,0.003,0.001,0.003-0.002,0.005c-0.017,0.094-0.026,0.198-0.033,0.302c-0.005,0.052-0.014,0.1-0.015,0.156
	c-0.005,0.15,0.003,0.315,0.029,0.482c0.001,0.012,0.002,0.023,0.003,0.038c0.033,0.167,0.085,0.341,0.149,0.523
	c0.003,0.007,0.006,0.019,0.009,0.029c0.072,0.19,0.16,0.389,0.27,0.589C2.702,17,2.806,17.125,2.901,17.247
	c0.028,0.037,0.063,0.069,0.09,0.101c0.065,0.074,0.133,0.146,0.194,0.205c0.036,0.031,0.071,0.06,0.103,0.086
	c0.058,0.05,0.115,0.093,0.172,0.128c0.033,0.023,0.065,0.043,0.099,0.06c0.054,0.03,0.106,0.055,0.161,0.078
	c0.025,0.01,0.057,0.022,0.086,0.034c0.054,0.017,0.107,0.022,0.158,0.027l0.073,0.008c0.066,0.003,0.133-0.003,0.195-0.013
	c0.007-0.001,0.013,0,0.021-0.004c0.054-0.011,0.105-0.023,0.153-0.042l0.011-0.007c0.063-0.023,0.124-0.054,0.178-0.089
	c0.058-0.037,0.106-0.075,0.148-0.117c0.453-0.432,0.382-1.116,0.028-1.647c-0.043-0.067-0.094-0.123-0.136-0.182
	c-0.309-0.392-0.729-0.471-0.957-0.395c-0.268,0.091-0.356,0.441-0.12,0.869c0.08,0.166,0.279,0.484,0.421,0.343
	c0.019-0.02,0.028-0.043,0.031-0.065c0.011-0.16-0.319-0.429-0.025-0.573c0.026-0.012,0.056-0.015,0.088-0.016
	c0.005,0,0.009-0.005,0.016-0.004c0.058,0.004,0.122,0.039,0.185,0.096c0.057,0.042,0.116,0.098,0.175,0.186
	c0.167,0.251,0.094,0.633-0.096,0.793c-0.065,0.057-0.132,0.093-0.197,0.123c-0.021,0.009-0.041,0.014-0.061,0.018
	c-0.046,0.017-0.093,0.025-0.139,0.026l-0.065-0.004c-0.047-0.003-0.093-0.015-0.138-0.031c-0.021-0.007-0.038-0.014-0.056-0.02
	c-0.063-0.028-0.128-0.065-0.188-0.116c-0.077-0.058-0.15-0.134-0.224-0.219c-0.014-0.016-0.025-0.031-0.042-0.05
	c-0.072-0.085-0.137-0.188-0.196-0.302c-0.203-0.376-0.33-0.791-0.345-1.137c-0.001-0.03,0.003-0.059,0.005-0.087
	c0.006-0.082,0.017-0.161,0.034-0.236c0.003-0.027,0.01-0.054,0.02-0.08c0.028-0.093,0.062-0.179,0.113-0.248c0,0,0,0,0.002,0
	c0.048-0.07,0.11-0.122,0.183-0.166c0.021-0.013,0.046-0.023,0.069-0.032c0.058-0.029,0.119-0.045,0.187-0.059
	c0.029-0.003,0.056-0.005,0.09-0.009c0.1-0.007,0.209-0.001,0.334,0.021c0.539,0.122,1.268,0.657,2.007,1.199
	c0.738,0.555,1.513,1.105,2.093,1.61c0.157,0.152,0.315,0.296,0.475,0.438c0.146,0.132,0.28,0.271,0.407,0.413l0.017,0.018
	c0.461,0.458,0.814,0.964,0.963,1.439c0.061,0.202,0.07,0.407,0.034,0.613c-0.002,0.006-0.005,0.01-0.003,0.018
	c-0.016,0.082-0.023,0.167-0.058,0.249c-0.042,0.097-0.094,0.167-0.141,0.24c-0.018,0.031-0.034,0.068-0.055,0.095
	c-0.044,0.053-0.089,0.085-0.138,0.128L9.32,20.98c-0.042,0.034-0.083,0.068-0.129,0.091c-0.113,0.064-0.233,0.096-0.353,0.112
	c-0.228,0.023-0.439-0.032-0.557-0.07c-0.007-0.004-0.015-0.008-0.021-0.009c-0.021-0.008-0.041-0.017-0.056-0.022
	c-0.007-0.004-0.023-0.012-0.023-0.012c0.278,0.359,0.671,0.698,1.087,0.948c0.466,0.245,0.956,0.391,1.354,0.336
	c0.403-0.067,0.705-0.31,0.831-0.779c0.117-0.436,0.025-0.878-0.093-1.242c-0.117-0.376-0.268-0.666-0.329-0.776
	c-0.017-0.034-0.025-0.05-0.025-0.05c0.438,0.287,0.782,0.747,1.302,1.227c0.519,0.464,1.228,0.933,2.291,1.079
	c0.508,0.052,0.898-0.032,1.199-0.167c-0.167,0.269-0.268,0.584-0.268,0.924c0,0.107,0.013,0.211,0.031,0.313h-1.313v0.906h0.396
	v0.812h-0.396v0.854h1.653v24.354h2.735v-1.136h7.293v-3.346H18.64v-2.272h7.293v-3.346H18.64V25.453h1.653v-0.854h-0.5v-0.812h0.5
	v-0.906H18.98c0.019-0.102,0.031-0.206,0.031-0.313c0-0.34-0.101-0.655-0.268-0.923c0.301,0.135,0.691,0.218,1.198,0.167
	c1.064-0.146,1.772-0.615,2.29-1.079c0.521-0.48,0.864-0.94,1.302-1.227c0,0-0.163,0.271-0.303,0.671s-0.278,0.896-0.145,1.398
	c0.047,0.171,0.116,0.311,0.204,0.423c0.396,0.527,1.22,0.434,1.981,0.019c0.416-0.249,0.809-0.589,1.086-0.947
	c0,0-0.014,0.007-0.022,0.012c-0.015,0.007-0.032,0.015-0.053,0.024c-0.008,0-0.018,0.003-0.026,0.006
	c-0.117,0.041-0.326,0.095-0.552,0.069c-0.006,0-0.014-0.001-0.021-0.002c-0.106-0.014-0.218-0.047-0.326-0.104
	c-0.062-0.033-0.121-0.083-0.179-0.136c-0.041-0.031-0.079-0.061-0.115-0.108c-0.047-0.058-0.084-0.14-0.124-0.217
	c-0.023-0.042-0.05-0.067-0.068-0.116c-0.055-0.124-0.081-0.251-0.091-0.379c-0.004-0.044,0.006-0.088,0.006-0.13
	c0.001-0.086,0.006-0.17,0.024-0.255c0.01-0.048,0.028-0.101,0.046-0.151c0.023-0.077,0.049-0.152,0.086-0.229
	c0.025-0.051,0.053-0.102,0.082-0.151c0.043-0.071,0.083-0.155,0.134-0.23c0.032-0.05,0.066-0.103,0.103-0.158
	c0.055-0.076,0.114-0.154,0.178-0.23c0.041-0.048,0.078-0.094,0.12-0.144c0.073-0.083,0.159-0.157,0.235-0.247l0.109-0.121
	c0.239-0.271,0.533-0.494,0.8-0.759c0.58-0.506,1.354-1.056,2.093-1.611c0.74-0.541,1.47-1.076,2.009-1.198
	c0.141-0.024,0.262-0.036,0.371-0.026c0.109,0.012,0.206,0.04,0.286,0.088c0.247,0.133,0.37,0.428,0.38,0.8
	c-0.005,0.358-0.136,0.783-0.346,1.171c-0.073,0.139-0.154,0.257-0.243,0.355l-0.024,0.029c-0.082,0.093-0.169,0.167-0.254,0.229
	l-0.042,0.027c-0.087,0.051-0.174,0.089-0.26,0.1l-0.036,0c-0.089,0.006-0.184-0.007-0.276-0.05
	c-0.058-0.026-0.115-0.065-0.173-0.114c-0.188-0.163-0.261-0.543-0.094-0.794c0.056-0.083,0.109-0.136,0.164-0.18
	c0.013-0.009,0.021-0.016,0.032-0.023c0.047-0.037,0.092-0.062,0.138-0.07c0.044-0.008,0.089-0.006,0.128,0.012
	c0.293,0.143-0.034,0.409-0.023,0.571c0.002,0.023,0.012,0.045,0.03,0.065c0.037,0.033,0.074,0.039,0.11,0.028
	c0.011-0.004,0.023-0.013,0.035-0.019c0.027-0.014,0.051-0.033,0.081-0.059l0.041-0.049c0.021-0.027,0.04-0.053,0.063-0.082
	c0.038-0.054,0.068-0.117,0.091-0.161l0.001-0.001l0.001-0.001c0.234-0.427,0.145-0.775-0.122-0.867
	c-0.266-0.091-0.759,0.037-1.093,0.577v0.001c-0.066,0.091-0.114,0.188-0.156,0.29c-0.009,0.021-0.018,0.039-0.026,0.058
	c-0.067,0.18-0.105,0.363-0.103,0.547c0,0.023,0.006,0.045,0.007,0.066c0.008,0.061,0.012,0.122,0.024,0.177
	c0.004,0.028,0.012,0.054,0.021,0.078c0.017,0.055,0.037,0.107,0.063,0.16c0.012,0.023,0.023,0.047,0.033,0.067
	c0.046,0.072,0.096,0.14,0.164,0.203c0.044,0.04,0.093,0.079,0.147,0.117c0.055,0.035,0.117,0.065,0.18,0.087
	c0.004,0,0.009,0.004,0.012,0.006c0.046,0.019,0.097,0.031,0.149,0.044c0.01,0.001,0.018,0.002,0.028,0.003
	c0.062,0.009,0.126,0.015,0.192,0.013c0.025-0.003,0.049-0.005,0.071-0.007c0.054-0.008,0.105-0.012,0.161-0.03
	c0.025-0.01,0.057-0.021,0.085-0.033c0.054-0.021,0.106-0.047,0.161-0.077c0.031-0.016,0.064-0.038,0.098-0.062
	c0.058-0.032,0.114-0.077,0.171-0.126c0.034-0.029,0.066-0.056,0.104-0.087c0.063-0.06,0.129-0.131,0.193-0.204
	c0.03-0.035,0.062-0.063,0.092-0.104c0.093-0.118,0.199-0.246,0.285-0.414c0.088-0.164,0.161-0.324,0.226-0.484l0.055-0.155
	c0.035-0.103,0.07-0.206,0.096-0.304c0.015-0.059,0.027-0.116,0.041-0.173c0.018-0.088,0.028-0.178,0.034-0.269
	c0.002-0.058,0.004-0.113,0.005-0.168c0-0.086-0.001-0.167-0.008-0.248c-0.002-0.054-0.006-0.102-0.016-0.149
	c-0.008-0.08-0.023-0.16-0.043-0.236c-0.01-0.04-0.019-0.077-0.026-0.111c-0.029-0.103-0.063-0.2-0.104-0.286
	c-0.004-0.011-0.008-0.022-0.015-0.03c-0.039-0.077-0.077-0.15-0.124-0.217l-0.011-0.015c-0.065-0.087-0.134-0.164-0.205-0.231
	c-0.077-0.073-0.162-0.134-0.243-0.183c0.045,0.029,0.098,0.049,0.156,0.061C32.179,13.735,32.895,13.423,33.512,12.887z
	 M23.438,9.96c0.026,0.126,0.268,0.101,0.52-0.015c0.22-0.103,0.498-0.321,0.512-0.56c0.005-0.034-0.01-0.065-0.023-0.097
	c-0.122-0.26-0.521-0.313-1.061,0.056c-0.049,0.034-0.099,0.07-0.153,0.109c-0.046,0.038-0.098,0.08-0.152,0.125l-0.009,0.006
	c-0.031,0.03-0.068,0.064-0.107,0.1l-0.016,0.015c-0.035,0.036-0.072,0.073-0.114,0.117l-0.035,0.041
	c-0.022,0.027-0.047,0.056-0.074,0.088c-0.013,0.016-0.026,0.032-0.037,0.046c-0.021,0.026-0.041,0.053-0.062,0.082l-0.032,0.048
	c-0.015,0.024-0.028,0.05-0.045,0.079c-0.009,0.014-0.017,0.029-0.021,0.043c-0.013,0.026-0.02,0.053-0.024,0.077
	c-0.002,0.011-0.008,0.024-0.007,0.034c-0.005,0.035,0.008,0.067,0.004,0.1c0.003,0.039,0.02,0.068,0.047,0.09l0.01,0.001
	c0.029,0.02,0.065,0.035,0.113,0.045l0.025,0.002c0.039,0.009,0.076,0.018,0.131,0.02c0.023,0,0.044,0,0.066,0
	c0.047,0.001,0.094,0.002,0.137,0.004v0c0.072-0.002,0.139-0.005,0.201-0.007c0.014,0,0.028-0.001,0.039-0.001
	c0.195-0.014,0.35-0.025,0.482-0.035c0.018-0.001,0.038-0.003,0.053-0.004c0.1-0.012,0.189-0.023,0.269-0.033
	c-0.076,0.012-0.162,0.032-0.25,0.056c-0.018,0.004-0.031,0.008-0.051,0.014c-0.08,0.024-0.171,0.052-0.278,0.084l-0.046,0.015
	c-0.088,0.029-0.185,0.061-0.292,0.096c-0.011,0.003-0.017,0.005-0.022,0.007c-0.101,0.032-0.206,0.066-0.317,0.101l-0.049,0.016
	c-0.1,0.028-0.202,0.057-0.31,0.087l-0.007,0.002c-0.099,0.026-0.193,0.049-0.291,0.069L22.13,11.09
	c-0.086,0.016-0.173,0.031-0.256,0.046l-0.035,0.005c-0.11,0.013-0.215,0.026-0.303,0.036l-0.015,0.001
	c-0.023,0.002-0.037,0.003-0.032,0.004c-0.03,0.002,0.381,0.019,0.896,0.15c0.489,0.117,1.099,0.357,1.53,0.464
	c0.058,0.014,0.112,0.025,0.164,0.032c-0.082-0.01-0.172-0.021-0.274-0.033c-0.074-0.006-0.153-0.014-0.244-0.021l-0.018-0.002
	c-0.059-0.003-0.124-0.007-0.19-0.012c-0.006,0-0.016,0-0.024-0.001c-0.059-0.002-0.126-0.005-0.196-0.008
	c-0.019,0-0.041-0.001-0.063-0.001c-0.038,0-0.079,0-0.121-0.001c-0.02,0-0.04,0.001-0.063,0.002l-0.092,0.005l-0.053,0.006
	l-0.073,0.015l-0.047,0.012c-0.024,0.007-0.043,0.018-0.059,0.03c-0.009,0.005-0.021,0.01-0.026,0.016
	c-0.021,0.02-0.033,0.044-0.036,0.076c0.004,0.033-0.009,0.065-0.004,0.1c-0.001,0.01,0.005,0.023,0.007,0.034
	c0.005,0.024,0.012,0.05,0.024,0.077c0.004,0.014,0.013,0.028,0.02,0.043c0.018,0.028,0.032,0.055,0.046,0.078
	c0.011,0.017,0.022,0.034,0.032,0.048c0.021,0.029,0.043,0.057,0.062,0.082c0.012,0.016,0.025,0.033,0.037,0.046
	c0.028,0.033,0.05,0.061,0.074,0.088l0.035,0.041c0.041,0.042,0.078,0.079,0.111,0.115l0.021,0.02
	c0.037,0.034,0.074,0.067,0.105,0.097l0.009,0.006c0.056,0.046,0.106,0.087,0.151,0.125c0.056,0.039,0.106,0.075,0.154,0.109
	c0.076,0.051,0.148,0.093,0.221,0.129l0.063,0.029c0.051,0.024,0.099,0.042,0.145,0.057c0.022,0.009,0.043,0.015,0.064,0.02
	c0.049,0.013,0.09,0.02,0.129,0.023c0.014,0.002,0.028,0.003,0.045,0.006c0.112,0.001,0.206-0.027,0.278-0.078l0.022-0.019
	c0.038-0.031,0.072-0.067,0.093-0.111v-0.001c0.104-0.262-0.246-0.544-0.488-0.656c-0.252-0.116-0.493-0.143-0.518-0.017l-0.002,0v0
	c-0.006,0.012-0.003,0.032-0.012,0.05c-0.004,0.009-0.005,0.02-0.006,0.031l-0.002,0.02c0.002,0.014,0.01,0.028,0.018,0.042
	c0.004,0.005,0.009,0.014,0.012,0.018c0.018,0.019,0.047,0.042,0.09,0.063c0.023,0.011,0.043,0.017,0.061,0.02
	c0.121,0.013,0.026-0.171,0.304-0.023c0.039,0.021,0.072,0.044,0.101,0.07s0.051,0.054,0.067,0.084
	c0.004,0.007,0.008,0.013,0.011,0.021c0.006,0.03,0.007,0.063-0.01,0.098c-0.051,0.108-0.329,0.06-0.54-0.067
	c-0.064-0.038-0.124-0.075-0.174-0.111c-0.084-0.059-0.149-0.114-0.204-0.166l-0.023-0.021c-0.051-0.05-0.086-0.096-0.113-0.138
	l-0.013-0.021c-0.023-0.043-0.038-0.082-0.042-0.118c0.001-0.003,0.001-0.007-0.003-0.012l0.005-0.105
	c0.015-0.095,0.111-0.145,0.271-0.162c0.14-0.018,0.354-0.003,0.622,0.07c0.176,0.048,0.378,0.124,0.592,0.25
	c0.443,0.25,0.76,0.741,0.833,1.357c0.082,0.611-0.132,1.306-0.505,1.744c-0.16,0.229-0.403,0.388-0.624,0.54l-0.105,0.06
	c-0.072,0.047-0.16,0.075-0.239,0.106c-0.05,0.014-0.093,0.026-0.14,0.04c-0.073,0.021-0.145,0.041-0.216,0.051
	c-0.048,0.009-0.096,0.014-0.142,0.016c-0.07,0.006-0.134,0.011-0.203,0.003c-0.049-0.008-0.097-0.015-0.141-0.022
	c-0.07-0.015-0.135-0.038-0.199-0.063c-0.041-0.016-0.084-0.029-0.123-0.052c-0.066-0.034-0.13-0.08-0.189-0.127
	c-0.03-0.023-0.065-0.052-0.092-0.073c-0.09-0.084-0.169-0.178-0.243-0.294c-0.028-0.041-0.041-0.076-0.063-0.118
	c-0.045-0.075-0.092-0.151-0.121-0.219c-0.024-0.052-0.037-0.097-0.051-0.143c-0.027-0.074-0.051-0.144-0.064-0.207
	c-0.022-0.107-0.031-0.2-0.03-0.277l0.001-0.016c0.007-0.16,0.057-0.257,0.092-0.308c0.002-0.004,0.004-0.008,0.007-0.01
	c0.007-0.008,0.013-0.016,0.017-0.021c0.002-0.004,0.007-0.012,0.007-0.012c-0.256-0.033-0.494-0.006-0.682,0.09
	c-0.362,0.141-0.591,0.515-0.479,1.117c0.028,0.136,0.077,0.286,0.148,0.445c0.209,0.464,0.572,0.803,0.886,0.986
	c0.313,0.184,0.586,0.248,0.586,0.248c-0.395,0.14-0.885,0.009-1.414-0.09c-0.539-0.11-1.112-0.204-1.824-0.031
	c-1.025,0.213-1.324,1.277-1.324,1.277c-0.216,0.026-0.391,0.148-0.539,0.31c-0.037-0.041-0.077-0.079-0.119-0.112
	c-0.123-0.104-0.262-0.178-0.422-0.198c0.001,0-0.299-1.064-1.322-1.277c-0.714-0.173-1.287-0.079-1.826,0.031
	c-0.529,0.099-1.021,0.23-1.413,0.09c0,0,0.016-0.005,0.046-0.013c0.106-0.031,0.378-0.122,0.656-0.31
	c0.288-0.198,0.583-0.504,0.769-0.911c0.199-0.441,0.216-0.792,0.135-1.04c-0.075-0.261-0.237-0.44-0.466-0.521
	c-0.188-0.097-0.425-0.124-0.681-0.091c0,0,0.005,0.008,0.007,0.011c0.004,0.006,0.011,0.014,0.018,0.022
	c0.002,0.001,0.004,0.005,0.005,0.01c0.036,0.048,0.085,0.148,0.093,0.31c0.003,0.083-0.004,0.181-0.031,0.298
	c-0.01,0.046-0.025,0.093-0.042,0.146c-0.002,0.005-0.005,0.015-0.009,0.024c-0.02,0.056-0.034,0.11-0.062,0.172
	c-0.016,0.028-0.035,0.063-0.053,0.094c-0.04,0.08-0.076,0.156-0.132,0.243c-0.049,0.075-0.104,0.131-0.158,0.193
	c-0.006,0.007-0.01,0.01-0.016,0.016c-0.133,0.146-0.278,0.255-0.445,0.327c-0.407,0.18-0.868,0.095-1.318-0.129
	c-0.008-0.003-0.012-0.005-0.018-0.007c-0.122-0.074-0.243-0.157-0.361-0.25c-0.128-0.097-0.246-0.207-0.341-0.336
	c-0.372-0.437-0.586-1.132-0.505-1.743c0.073-0.617,0.39-1.108,0.833-1.358c0.098-0.056,0.188-0.101,0.28-0.139
	c0.029-0.013,0.052-0.021,0.08-0.033c0.064-0.024,0.125-0.045,0.187-0.063l0.072-0.021c0.079-0.021,0.154-0.038,0.221-0.048
	c0.003-0.001,0.003-0.001,0.003-0.001c0.067-0.011,0.131-0.016,0.188-0.019l0.046,0c0.043-0.001,0.079,0,0.112,0.004
	c0.013,0,0.025,0,0.035,0.003c0.156,0.018,0.246,0.069,0.262,0.16c0.002,0.028-0.002,0.058,0.004,0.087v0.017
	c-0.004,0.033-0.009,0.065-0.026,0.101c-0.014,0.03-0.036,0.063-0.06,0.094l-0.025,0.029c-0.025,0.027-0.051,0.054-0.071,0.077
	l-0.043,0.039c-0.037,0.03-0.071,0.058-0.104,0.084l-0.046,0.036c-0.059,0.042-0.121,0.083-0.196,0.127
	c-0.21,0.127-0.489,0.176-0.541,0.067c-0.017-0.037-0.015-0.072-0.005-0.104c0.019-0.042,0.047-0.081,0.089-0.114
	c0.008-0.004,0.009-0.005,0.016-0.009c0.021-0.016,0.046-0.032,0.07-0.046c0.24-0.126,0.2-0.01,0.267,0.02
	c0.021,0.008,0.048,0.009,0.098-0.015c0.187-0.089,0.102-0.173,0.1-0.224c-0.025-0.126-0.268-0.1-0.52,0.015
	c-0.219,0.103-0.497,0.321-0.512,0.56c-0.004,0.034,0.01,0.065,0.023,0.097c0.123,0.26,0.521,0.313,1.061-0.056
	c0.049-0.034,0.1-0.07,0.154-0.109c0.046-0.038,0.098-0.08,0.152-0.125l0.008-0.006c0.032-0.03,0.069-0.063,0.107-0.099l0.017-0.015
	c0.034-0.036,0.07-0.074,0.113-0.118l0.036-0.042c0.021-0.026,0.046-0.055,0.074-0.087c0.014-0.016,0.025-0.033,0.037-0.047
	c0.02-0.026,0.04-0.053,0.061-0.082l0.033-0.047c0.014-0.024,0.028-0.05,0.045-0.079c0.008-0.014,0.016-0.029,0.021-0.042
	c0.013-0.027,0.019-0.053,0.024-0.078c0.001-0.011,0.008-0.023,0.007-0.034c0.004-0.035-0.009-0.067-0.004-0.1
	c-0.003-0.039-0.02-0.068-0.048-0.09l-0.01-0.002c-0.027-0.02-0.065-0.035-0.112-0.045l-0.025-0.002
	c-0.039-0.009-0.077-0.017-0.13-0.02c-0.025,0-0.045,0-0.068,0c-0.046-0.001-0.093-0.002-0.137-0.003v0
	c-0.071,0.002-0.138,0.005-0.2,0.007c-0.015,0-0.028,0.001-0.039,0.001c-0.195,0.014-0.351,0.026-0.482,0.035
	c-0.018,0.001-0.039,0.003-0.054,0.004c-0.1,0.012-0.188,0.023-0.268,0.033c0.075-0.011,0.161-0.032,0.25-0.056
	c0.018-0.005,0.031-0.008,0.05-0.015c0.081-0.024,0.172-0.052,0.279-0.084l0.046-0.015c0.088-0.029,0.185-0.061,0.292-0.097
	c0.01-0.003,0.017-0.005,0.022-0.007c0.1-0.032,0.205-0.065,0.318-0.101l0.047-0.015c0.101-0.029,0.202-0.058,0.311-0.088
	l0.007-0.001c0.1-0.026,0.192-0.049,0.291-0.069l0.03-0.006c0.087-0.016,0.174-0.031,0.257-0.045l0.034-0.005
	c0.111-0.013,0.216-0.025,0.303-0.036l0.015-0.001c0.024-0.002,0.038-0.003,0.032-0.004c0.031-0.003-0.381-0.019-0.896-0.151
	c-0.488-0.118-1.099-0.356-1.529-0.464c-0.058-0.014-0.112-0.025-0.164-0.032c0.081,0.01,0.172,0.021,0.273,0.033
	c0.075,0.006,0.154,0.013,0.245,0.021l0.017,0.002c0.06,0.003,0.125,0.008,0.191,0.012c0.005,0,0.015,0.001,0.023,0.001
	c0.061,0.003,0.127,0.005,0.197,0.008c0.019,0,0.04,0.001,0.063,0.001c0.038,0,0.079,0,0.121,0c0.02,0,0.039-0.001,0.063-0.002
	l0.092-0.005l0.053-0.006l0.073-0.015l0.047-0.012c0.023-0.007,0.042-0.018,0.058-0.029c0.01-0.006,0.021-0.01,0.028-0.016
	c0.021-0.02,0.032-0.044,0.035-0.076c-0.005-0.033,0.008-0.065,0.004-0.101c0.001-0.01-0.006-0.023-0.007-0.034
	c-0.006-0.024-0.012-0.05-0.024-0.077c-0.005-0.015-0.013-0.028-0.021-0.044c-0.016-0.027-0.031-0.055-0.045-0.077
	c-0.012-0.018-0.022-0.034-0.031-0.048c-0.022-0.029-0.043-0.057-0.063-0.082c-0.013-0.015-0.025-0.032-0.037-0.046
	c-0.028-0.033-0.051-0.061-0.074-0.089l-0.036-0.041c-0.04-0.042-0.076-0.079-0.11-0.114l-0.021-0.02
	c-0.037-0.033-0.074-0.066-0.106-0.096l-0.008-0.006c-0.056-0.046-0.106-0.088-0.152-0.125c-0.054-0.039-0.105-0.075-0.153-0.109
	c-0.077-0.051-0.149-0.092-0.221-0.129l-0.063-0.029c-0.051-0.024-0.099-0.042-0.145-0.057c-0.023-0.008-0.043-0.015-0.064-0.019
	c-0.049-0.014-0.09-0.02-0.129-0.024c-0.015-0.001-0.028-0.003-0.045-0.005c-0.111-0.001-0.207,0.026-0.279,0.078L10.19,9.176
	c-0.039,0.031-0.072,0.067-0.093,0.111l-0.001,0.001c-0.103,0.262,0.247,0.545,0.488,0.657c0.252,0.116,0.494,0.142,0.519,0.016
	l0.001,0c0.006-0.012,0.004-0.032,0.013-0.05c0.004-0.01,0.005-0.021,0.006-0.031l0.002-0.02c-0.002-0.015-0.011-0.029-0.018-0.042
	c-0.004-0.006-0.009-0.014-0.013-0.019c-0.017-0.02-0.047-0.042-0.09-0.063c-0.022-0.011-0.043-0.018-0.06-0.02
	c-0.121-0.014-0.026,0.171-0.305,0.023c-0.038-0.021-0.07-0.044-0.1-0.07c-0.029-0.025-0.052-0.054-0.066-0.084
	c-0.005-0.007-0.009-0.013-0.013-0.021c-0.004-0.03-0.006-0.063,0.01-0.099c0.051-0.107,0.33-0.06,0.541,0.067
	c0.064,0.038,0.123,0.075,0.174,0.111c0.084,0.059,0.149,0.115,0.204,0.166l0.022,0.021c0.051,0.049,0.087,0.095,0.113,0.138
	l0.014,0.02c0.022,0.043,0.038,0.082,0.041,0.118c0,0.003,0,0.007,0.003,0.012l-0.005,0.105c-0.013,0.095-0.111,0.146-0.271,0.162
	c-0.139,0.018-0.354,0.003-0.621-0.07c-0.176-0.048-0.379-0.125-0.593-0.25C9.65,9.818,9.334,9.327,9.262,8.71
	C9.181,8.099,9.394,7.404,9.766,6.967c0.161-0.229,0.404-0.388,0.625-0.54l0.105-0.06c0.072-0.047,0.159-0.075,0.239-0.106
	c0.049-0.014,0.093-0.026,0.14-0.04c0.073-0.021,0.144-0.041,0.216-0.052c0.047-0.009,0.096-0.013,0.142-0.016
	c0.069-0.006,0.134-0.011,0.203-0.002c0.048,0.007,0.097,0.015,0.141,0.022c0.069,0.015,0.134,0.039,0.198,0.063
	c0.042,0.016,0.084,0.03,0.125,0.051c0.064,0.034,0.129,0.08,0.188,0.127c0.03,0.023,0.067,0.052,0.093,0.073
	c0.089,0.084,0.169,0.178,0.243,0.294c0.028,0.042,0.04,0.076,0.064,0.119c0.043,0.075,0.091,0.151,0.12,0.218
	c0.024,0.052,0.036,0.097,0.051,0.143c0.026,0.073,0.051,0.143,0.064,0.207c0.022,0.107,0.031,0.2,0.03,0.277l-0.002,0.016
	c-0.006,0.16-0.056,0.257-0.091,0.308c-0.002,0.004-0.004,0.008-0.007,0.01c-0.007,0.008-0.013,0.016-0.017,0.021
	c-0.003,0.005-0.008,0.012-0.008,0.012c0.257,0.033,0.494,0.006,0.683-0.09c0.363-0.141,0.59-0.514,0.479-1.116
	c-0.028-0.137-0.077-0.286-0.149-0.446c-0.208-0.463-0.57-0.803-0.886-0.986c-0.313-0.184-0.585-0.247-0.585-0.247
	c0.394-0.141,0.885-0.01,1.413,0.09c0.539,0.11,1.113,0.204,1.825,0.031c1.026-0.214,1.324-1.278,1.324-1.278
	c0.215-0.025,0.39-0.148,0.539-0.31c0.037,0.041,0.077,0.079,0.118,0.112c0.123,0.104,0.262,0.178,0.422,0.198
	c0,0,0.299,1.064,1.323,1.278c0.714,0.173,1.287,0.079,1.826-0.031c0.528-0.1,1.021-0.231,1.413-0.09c0,0-0.016,0.005-0.046,0.013
	C22.222,5.27,21.95,5.36,21.671,5.548c-0.287,0.199-0.583,0.503-0.767,0.911C20.704,6.9,20.688,7.25,20.769,7.5
	c0.075,0.261,0.236,0.439,0.465,0.521c0.187,0.097,0.426,0.124,0.682,0.09c0,0-0.005-0.008-0.008-0.011
	c-0.004-0.006-0.01-0.014-0.017-0.021c-0.003-0.001-0.004-0.005-0.006-0.01C21.85,8.021,21.8,7.921,21.792,7.758
	c-0.003-0.083,0.005-0.18,0.031-0.298c0.01-0.046,0.026-0.093,0.043-0.146c0.001-0.005,0.005-0.015,0.009-0.024
	c0.019-0.056,0.033-0.109,0.062-0.172c0.016-0.028,0.035-0.063,0.052-0.094c0.041-0.08,0.075-0.156,0.132-0.244
	c0.05-0.075,0.104-0.131,0.159-0.193c0.007-0.006,0.01-0.01,0.016-0.016c0.132-0.146,0.278-0.255,0.444-0.327
	c0.407-0.18,0.869-0.095,1.319,0.128c0.008,0.003,0.012,0.004,0.017,0.007c0.123,0.073,0.244,0.157,0.362,0.25
	c0.128,0.097,0.245,0.207,0.341,0.336c0.372,0.438,0.586,1.132,0.504,1.743c-0.073,0.617-0.39,1.109-0.833,1.358
	c-0.096,0.057-0.188,0.101-0.279,0.139c-0.029,0.012-0.053,0.021-0.08,0.033c-0.064,0.024-0.126,0.045-0.188,0.063l-0.07,0.021
	c-0.08,0.021-0.154,0.039-0.221,0.049c-0.003,0-0.003,0-0.003,0c-0.067,0.01-0.131,0.016-0.188,0.019l-0.046,0.001
	c-0.043,0-0.079-0.001-0.112-0.005c-0.013,0-0.026,0-0.036-0.003c-0.155-0.018-0.246-0.068-0.262-0.159
	c-0.002-0.029,0.002-0.058-0.003-0.087l-0.001-0.017c0.004-0.032,0.01-0.065,0.027-0.101c0.013-0.03,0.035-0.062,0.059-0.094
	l0.025-0.029c0.025-0.028,0.05-0.054,0.072-0.077l0.043-0.038c0.037-0.03,0.07-0.058,0.104-0.084l0.047-0.036
	c0.057-0.042,0.119-0.084,0.195-0.127c0.21-0.128,0.488-0.176,0.54-0.067c0.018,0.037,0.015,0.072,0.006,0.104
	c-0.019,0.042-0.048,0.081-0.089,0.113c-0.008,0.004-0.01,0.005-0.016,0.009c-0.021,0.016-0.045,0.033-0.07,0.046
	c-0.24,0.126-0.2,0.01-0.267-0.019c-0.021-0.008-0.049-0.009-0.099,0.015C23.353,9.826,23.438,9.91,23.438,9.96z"/>
<g>
</g>
<g>
</g>
<g>
</g>
<g>
</g>
<g>
</g>
<g>
</g>
<g>
</g>
<g>
</g>
<g>
</g>
<g>
</g>
<g>
</g>
<g>
</g>
<g>
</g>
<g>
</g>
<g>
</g>
</svg>
