<?xml version="1.0" encoding="iso-8859-1"?>
<!-- Generator: Adobe Illustrator 16.0.0, SVG Export Plug-In . SVG Version: 6.00 Build 0)  -->
<!DOCTYPE svg PUBLIC "-//W3C//DTD SVG 1.1//EN" "http://www.w3.org/Graphics/SVG/1.1/DTD/svg11.dtd">
<svg version="1.1" id="Layer_1" xmlns="http://www.w3.org/2000/svg" xmlns:xlink="http://www.w3.org/1999/xlink" x="0px" y="0px"
	 width="32.466px" height="51.633px" viewBox="0 0 32.466 51.633" style="enable-background:new 0 0 32.466 51.633;"
	 xml:space="preserve">
<path d="M16.707,51.633l-1.114-0.968l-3.196-2.094V26.43H11v-2.633C4.395,22.116,0,17.522,0,12.224C0.001,5.483,7.283,0,16.233,0
	s16.232,5.483,16.232,12.224c0,4.966-4.043,9.457-10.119,11.315v2.891h-1.536v2.648l-2.095,1.955v0.875l1.487,1.332l-0.722,1.587
	l1.329,1.454v1.695l-0.474,0.388l0.712,0.905l-1.981,2.113l2.093,1.674v1.504l-0.321,0.241l0.322,0.121v2.299L16.707,51.633z
	 M16.62,49.57l0.021,0.018l3.021-2.991v-0.635l-1.916-0.719l1.915-1.466l-2.796-2.236l2.208-2.357l-0.825-1.048l1.063-0.87v-0.402
	l-1.604-1.755l0.675-1.485l-1.165-1.045v-2.197l2.095-1.955V24.93h1.536v-2.526l0.552-0.151c5.723-1.568,9.567-5.599,9.567-10.028
	c0-5.913-6.609-10.724-14.732-10.724S1.501,6.311,1.5,12.224c0,4.661,4.282,8.876,10.414,10.25l0.586,0.131v2.325h1.396v22.831
	l0.526,0.345L14.422,24.93h2.198V49.57z M16.233,11.267c-2.488,0-4.513-1.93-4.513-4.302s2.024-4.302,4.513-4.302h0.002
	c2.486,0,4.511,1.93,4.512,4.302C20.747,9.337,18.723,11.267,16.233,11.267z M16.235,4.163c-1.662,0-3.015,1.257-3.015,2.802
	s1.352,2.802,3.013,2.802c1.662,0,3.014-1.257,3.014-2.802C19.246,5.42,17.896,4.163,16.235,4.163z"/>
<g>
</g>
<g>
</g>
<g>
</g>
<g>
</g>
<g>
</g>
<g>
</g>
<g>
</g>
<g>
</g>
<g>
</g>
<g>
</g>
<g>
</g>
<g>
</g>
<g>
</g>
<g>
</g>
<g>
</g>
</svg>
