<?xml version="1.0" encoding="iso-8859-1"?>
<!-- Generator: Adobe Illustrator 16.0.0, SVG Export Plug-In . SVG Version: 6.00 Build 0)  -->
<!DOCTYPE svg PUBLIC "-//W3C//DTD SVG 1.1//EN" "http://www.w3.org/Graphics/SVG/1.1/DTD/svg11.dtd">
<svg version="1.1" id="Layer_1" xmlns="http://www.w3.org/2000/svg" xmlns:xlink="http://www.w3.org/1999/xlink" x="0px" y="0px"
	 width="23.606px" height="45.423px" viewBox="0 0 23.606 45.423" style="enable-background:new 0 0 23.606 45.423;"
	 xml:space="preserve">
<g>
	<path style="fill:#131212;" d="M15.096,8.463l0.011,0.015c0.024,0.035,0.053,0.068,0.083,0.1c0.052,0.054,0.126,0.096,0.196,0.154
		l0.029,0.022c0.031,0.021,0.063,0.044,0.095,0.068l0.024,0.017c0.042,0.032,0.093,0.062,0.135,0.102
		c0.031,0.028,0.063,0.058,0.096,0.087c0.014,0.014,0.029,0.027,0.044,0.041c0.028,0.028,0.056,0.057,0.084,0.085
		c0.016,0.015,0.026,0.031,0.039,0.049c0.035,0.046,0.069,0.092,0.103,0.143c0.04,0.063,0.082,0.126,0.105,0.203
		c0.015,0.034,0.026,0.071,0.036,0.106c0.083,0.271,0.023,0.569-0.135,0.782c-0.156,0.216-0.423,0.346-0.707,0.387
		c0.116,0.018,0.226,0.048,0.326,0.093c0.11,0.049,0.209,0.113,0.298,0.195c0.077,0.082,0.14,0.179,0.188,0.286
		c0.088,0.217,0.091,0.476-0.007,0.703l-0.01,0.024l-0.002,0.002c-0.021,0.063-0.057,0.115-0.09,0.167
		c-0.041,0.064-0.084,0.123-0.127,0.18l-0.003,0.004c-0.143,0.149-0.278,0.273-0.417,0.362c-0.025,0.018-0.049,0.035-0.074,0.053
		l-0.031,0.024c-0.068,0.058-0.143,0.099-0.193,0.151l-0.003,0.002c-0.027,0.029-0.055,0.059-0.079,0.091l-0.004,0.011
		c-0.021,0.029-0.043,0.06-0.063,0.088c-0.038,0.051-0.07,0.105-0.099,0.156c0.006,0.003,0.01,0.005,0.015,0.007
		c0.039,0.004,0.079,0.022,0.104,0.059c0.024,0.035,0.029,0.079,0.017,0.117c0,0.005,0.003,0.009,0.003,0.015
		c0.059-0.008,0.125-0.023,0.192-0.045c0.038-0.01,0.072-0.028,0.108-0.047l0.012-0.005c0.037-0.021,0.074-0.044,0.112-0.069
		l0.003-0.002c0.065-0.051,0.137-0.109,0.195-0.194l0.028-0.036c0.019-0.027,0.038-0.055,0.058-0.083
		c0.112-0.141,0.202-0.325,0.324-0.509l0.002-0.004c0.035-0.068,0.072-0.137,0.115-0.206c0.034-0.057,0.076-0.11,0.108-0.174
		l0.001-0.002l0.014-0.024c0.14-0.226,0.308-0.439,0.499-0.645c0.092-0.104,0.195-0.204,0.306-0.299
		c0.1-0.096,0.21-0.186,0.328-0.264c0.108-0.074,0.224-0.137,0.345-0.183c-0.309-0.114-0.559-0.331-0.798-0.557
		c-0.235-0.23-0.438-0.476-0.615-0.728c-0.021-0.033-0.044-0.069-0.064-0.104c-0.039-0.075-0.087-0.143-0.127-0.209
		c-0.035-0.057-0.065-0.11-0.095-0.165c-0.011-0.021-0.021-0.041-0.032-0.059c-0.023-0.037-0.045-0.073-0.068-0.108
		c-0.012-0.019-0.022-0.038-0.033-0.055c-0.025-0.042-0.049-0.084-0.072-0.124c-0.029-0.059-0.07-0.105-0.104-0.155l-0.017-0.024
		C15.781,8.5,15.757,8.465,15.731,8.43l-0.025-0.033c-0.059-0.086-0.132-0.145-0.198-0.197c-0.04-0.026-0.081-0.052-0.124-0.073
		l-0.017-0.009c-0.04-0.02-0.079-0.036-0.119-0.045c-0.059-0.018-0.114-0.031-0.165-0.039v0.008L15.08,8.049
		c0.013,0.039,0.008,0.082-0.017,0.118c-0.025,0.035-0.065,0.054-0.105,0.058l-0.007,0.004l-0.006,0.004
		c0.023,0.043,0.052,0.088,0.083,0.134C15.051,8.396,15.072,8.43,15.096,8.463z"/>
	<polygon style="fill:#131212;" points="12.188,15.36 12.189,15.359 12.188,15.354 	"/>
	<path style="fill:#131212;" d="M7.184,12.109c0.022,0.033,0.045,0.067,0.065,0.104c0.039,0.074,0.086,0.141,0.127,0.209
		c0.031,0.049,0.059,0.098,0.084,0.146l0.036,0.049l0.026,0.059c0.016,0.025,0.032,0.052,0.049,0.077
		c0.012,0.02,0.023,0.037,0.033,0.055c0.025,0.043,0.05,0.083,0.072,0.123c0.029,0.059,0.069,0.105,0.103,0.155l0.018,0.025
		c0.026,0.037,0.052,0.071,0.076,0.105l0.026,0.034c0.06,0.086,0.133,0.146,0.198,0.196c0.04,0.028,0.082,0.053,0.123,0.074
		l0.019,0.008c0.038,0.021,0.077,0.036,0.119,0.047c0.057,0.017,0.113,0.03,0.164,0.037l0.001-0.007l0.002-0.008
		c-0.013-0.038-0.009-0.082,0.017-0.117c0.025-0.036,0.065-0.055,0.105-0.059l0.007-0.004l0.006-0.004
		c-0.023-0.043-0.052-0.089-0.083-0.134c-0.022-0.03-0.045-0.063-0.067-0.096L8.499,13.17c-0.025-0.035-0.053-0.068-0.084-0.1
		c-0.051-0.054-0.126-0.096-0.195-0.153L8.19,12.894c-0.031-0.022-0.063-0.045-0.096-0.067l-0.023-0.018
		c-0.042-0.031-0.093-0.061-0.135-0.102c-0.032-0.028-0.063-0.057-0.096-0.088c-0.014-0.013-0.029-0.027-0.044-0.041
		c-0.028-0.027-0.056-0.056-0.084-0.084c-0.016-0.014-0.026-0.031-0.039-0.048c-0.035-0.046-0.069-0.093-0.103-0.144
		c-0.04-0.063-0.082-0.126-0.105-0.202c-0.014-0.036-0.025-0.072-0.036-0.108c-0.083-0.27-0.024-0.568,0.136-0.781
		c0.155-0.215,0.422-0.347,0.707-0.388c-0.117-0.017-0.227-0.048-0.327-0.092c-0.11-0.049-0.209-0.114-0.298-0.196
		c-0.078-0.08-0.141-0.177-0.188-0.285c-0.089-0.216-0.09-0.477,0.007-0.703l0.01-0.023l0.001-0.003
		c0.021-0.062,0.058-0.115,0.091-0.167c0.041-0.064,0.084-0.123,0.127-0.18L7.697,9.17C7.84,9.021,7.976,8.897,8.114,8.808
		C8.14,8.79,8.164,8.772,8.188,8.756L8.22,8.731c0.068-0.059,0.143-0.1,0.193-0.153l0.002-0.001c0.028-0.029,0.055-0.06,0.079-0.091
		L8.5,8.477c0.021-0.03,0.042-0.061,0.063-0.089c0.038-0.052,0.07-0.106,0.098-0.156C8.655,8.229,8.651,8.228,8.647,8.224
		c-0.04-0.003-0.08-0.021-0.105-0.058C8.517,8.131,8.513,8.087,8.525,8.049C8.524,8.044,8.523,8.04,8.522,8.033
		C8.464,8.043,8.397,8.058,8.33,8.079c-0.038,0.01-0.072,0.028-0.108,0.047L8.211,8.131C8.173,8.151,8.134,8.174,8.098,8.199
		L8.095,8.202C8.029,8.253,7.958,8.312,7.899,8.396L7.871,8.432c-0.02,0.028-0.038,0.055-0.06,0.084
		c-0.109,0.141-0.2,0.325-0.322,0.509L7.488,9.027C7.452,9.097,7.415,9.166,7.372,9.234c-0.034,0.057-0.077,0.11-0.108,0.173
		L7.263,9.41L7.249,9.435C7.109,9.66,6.94,9.873,6.75,10.078c-0.092,0.104-0.195,0.204-0.306,0.3c-0.1,0.096-0.21,0.187-0.328,0.265
		c-0.108,0.072-0.224,0.135-0.345,0.181c0.308,0.115,0.559,0.333,0.797,0.558C6.805,11.611,7.007,11.856,7.184,12.109z"/>
	<ellipse style="fill:#131212;" cx="11.749" cy="10.797" rx="3.361" ry="2.364"/>
	<path style="fill:#131212;" d="M14.139,29.356c0-0.434-0.352-0.784-0.784-0.786H9.643c-0.433,0.002-0.784,0.353-0.784,0.786
		c0,0.358,0.243,0.647,0.57,0.744c0,0.003-0.002,0.006-0.002,0.01h4.145c0-0.004-0.002-0.007-0.002-0.01
		C13.896,30.003,14.139,29.715,14.139,29.356z"/>
	<path style="fill:#131212;" d="M14.139,31.032c0-0.362-0.25-0.654-0.582-0.746c0.001-0.013,0.002-0.026,0.003-0.041H9.443
		c0.002,0.015,0.004,0.027,0.005,0.04c-0.337,0.09-0.59,0.383-0.59,0.747c0,0.323,0.195,0.598,0.472,0.72h4.337
		C13.943,31.63,14.139,31.355,14.139,31.032z"/>
	<path style="fill:#131212;" d="M12.604,33.309c0-0.516,0.227-0.951,0.46-1.422h-2.957c0.247,0.455,0.467,0.92,0.467,1.423
		c0,1.15,0,12.113,0,12.113h2.03c0,0,0-0.42,0-1.098h3.267v-2.497h-2.335v-0.996h2.335V38.5h0.995v2.332h2.331v0.996h-2.331v2.497
		h4.655v-7.229h-8.917C12.604,35.223,12.604,33.676,12.604,33.309z"/>
	<path style="fill:#131212;" d="M10.574,21.508c0,1.853,0,4.057,0,4.883c0,0.774-0.295,1.436-0.585,2.045h3.186
		c-0.267-0.661-0.57-1.282-0.57-1.968c0-0.677,0-3.014,0-4.963c1.037-0.243,1.772-0.841,1.772-1.544
		c0-0.153-0.047-0.299-0.111-0.439c5.329-0.89,9.341-4.596,9.341-9.023c0-4.349-3.872-7.995-9.06-8.966
		c0.029-0.076,0.051-0.153,0.051-0.232c0-0.718-1.251-1.3-2.795-1.3S9.008,0.582,9.008,1.3c0,0.079,0.021,0.156,0.051,0.232
		C3.871,2.503,0,6.149,0,10.498c0,4.315,3.813,7.938,8.94,8.942c-0.092,0.165-0.153,0.337-0.153,0.521
		C8.787,20.668,9.53,21.267,10.574,21.508z M1.618,10.745c0.492,0.201,0.902,0.55,1.291,0.918c0.4,0.39,0.745,0.807,1.045,1.235
		c0.038,0.058,0.076,0.117,0.11,0.178c0.066,0.127,0.146,0.24,0.218,0.355c0.052,0.084,0.098,0.167,0.143,0.249l0.06,0.084
		l0.045,0.097c0.027,0.045,0.056,0.09,0.084,0.133c0.019,0.031,0.038,0.063,0.057,0.094c0.042,0.072,0.082,0.142,0.122,0.209
		c0.05,0.1,0.118,0.18,0.175,0.264l0.029,0.042c0.045,0.063,0.088,0.122,0.13,0.18l0.043,0.059c0.103,0.146,0.226,0.246,0.339,0.333
		c0.067,0.048,0.138,0.09,0.209,0.125l0.03,0.016c0.065,0.034,0.132,0.063,0.201,0.078c0.1,0.029,0.194,0.052,0.28,0.063
		l0.002-0.012l0.003-0.013c-0.021-0.066-0.015-0.14,0.029-0.2c0.043-0.062,0.111-0.093,0.179-0.1l0.011-0.006l0.011-0.006
		c-0.04-0.073-0.089-0.151-0.142-0.229c-0.038-0.05-0.076-0.105-0.114-0.163l-0.019-0.024c-0.042-0.06-0.089-0.117-0.141-0.168
		c-0.088-0.094-0.214-0.164-0.333-0.263l-0.052-0.038c-0.051-0.039-0.104-0.077-0.16-0.116l-0.04-0.029
		c-0.073-0.054-0.159-0.104-0.229-0.173c-0.054-0.048-0.107-0.098-0.164-0.148c-0.023-0.022-0.048-0.046-0.073-0.069
		c-0.048-0.048-0.095-0.096-0.144-0.144c-0.026-0.024-0.045-0.054-0.066-0.082c-0.059-0.078-0.117-0.157-0.173-0.244
		c-0.068-0.105-0.14-0.214-0.181-0.343c-0.023-0.061-0.044-0.122-0.062-0.184c-0.141-0.46-0.04-0.967,0.23-1.327
		c0.265-0.367,0.717-0.589,1.202-0.659c-0.199-0.03-0.385-0.08-0.556-0.157c-0.186-0.081-0.355-0.192-0.506-0.331
		C4.61,10.09,4.504,9.925,4.421,9.74C4.271,9.375,4.27,8.932,4.434,8.547L4.45,8.506l0.002-0.004
		c0.036-0.105,0.099-0.196,0.152-0.285C4.676,8.107,4.75,8.009,4.821,7.912l0.005-0.005c0.242-0.256,0.475-0.466,0.709-0.616
		C5.577,7.26,5.619,7.23,5.659,7.201l0.057-0.042C5.832,7.061,5.956,6.991,6.043,6.9l0.005-0.003c0.048-0.049,0.091-0.1,0.132-0.153
		L6.19,6.728c0.035-0.052,0.072-0.102,0.105-0.15c0.065-0.088,0.121-0.18,0.167-0.266C6.455,6.307,6.447,6.304,6.441,6.299
		C6.374,6.293,6.306,6.262,6.263,6.2C6.22,6.14,6.213,6.066,6.233,6.001C6.232,5.992,6.23,5.984,6.229,5.975
		C6.13,5.99,6.018,6.016,5.901,6.052C5.838,6.068,5.779,6.101,5.719,6.131L5.699,6.14c-0.065,0.035-0.13,0.074-0.191,0.117
		L5.503,6.262C5.392,6.348,5.271,6.447,5.171,6.591L5.122,6.652C5.09,6.698,5.057,6.744,5.021,6.794
		C4.835,7.032,4.681,7.348,4.474,7.658L4.471,7.665C4.41,7.781,4.347,7.897,4.274,8.016C4.217,8.111,4.143,8.203,4.09,8.31
		L4.087,8.314L4.065,8.356C3.826,8.739,3.542,9.102,3.217,9.45c-0.154,0.177-0.331,0.347-0.52,0.507
		c-0.169,0.163-0.355,0.316-0.558,0.45c-0.165,0.111-0.344,0.203-0.526,0.278c-0.001-0.063-0.012-0.125-0.012-0.188
		c0-4.152,4.464-7.533,9.99-7.618c-0.174,0.313-0.4,0.594-0.661,0.826c-0.388,0.371-0.839,0.634-1.317,0.823
		C9.55,4.552,9.484,4.573,9.418,4.592C9.281,4.628,9.153,4.677,9.024,4.707C8.918,4.735,8.817,4.758,8.716,4.779
		c-0.039,0.007-0.074,0.014-0.111,0.02c-0.07,0.018-0.141,0.034-0.209,0.05C8.359,4.856,8.324,4.864,8.289,4.873
		C8.209,4.89,8.132,4.905,8.058,4.92C7.951,4.943,7.845,4.957,7.749,4.984L7.7,4.998c-0.072,0.021-0.142,0.04-0.209,0.06
		L7.423,5.078C7.259,5.133,7.106,5.179,6.988,5.26c-0.067,0.047-0.13,0.098-0.189,0.151L6.774,5.436
		C6.721,5.485,6.669,5.537,6.625,5.59c-0.066,0.076-0.128,0.149-0.17,0.229l0.011,0.007l0.011,0.007
		C6.545,5.836,6.61,5.87,6.65,5.934s0.042,0.139,0.023,0.205l0.002,0.013l0.002,0.012C6.757,6.152,6.85,6.14,6.946,6.127
		c0.063-0.013,0.13-0.026,0.196-0.043l0.029-0.009c0.071-0.02,0.141-0.044,0.208-0.074c0.114-0.058,0.243-0.119,0.375-0.208
		l0.054-0.036C7.863,5.72,7.917,5.682,7.976,5.643l0.041-0.028c0.075-0.054,0.162-0.098,0.249-0.149
		C8.329,5.43,8.395,5.394,8.462,5.355c0.029-0.016,0.06-0.032,0.092-0.049c0.06-0.03,0.119-0.064,0.184-0.09
		C8.771,5.204,8.804,5.19,8.838,5.18c0.093-0.035,0.188-0.067,0.288-0.097c0.123-0.032,0.248-0.075,0.385-0.087
		c0.065-0.008,0.132-0.013,0.196-0.015c0.49-0.031,0.98,0.15,1.353,0.437c0.262,0.218,0.463,0.492,0.6,0.806
		c-0.101,0.177-0.221,0.342-0.37,0.475c-0.228,0.219-0.493,0.373-0.775,0.485c-0.037,0.013-0.075,0.026-0.114,0.036
		c-0.08,0.021-0.156,0.05-0.231,0.067c-0.063,0.018-0.122,0.031-0.182,0.043C9.964,7.334,9.942,7.338,9.921,7.342
		c-0.042,0.011-0.083,0.02-0.123,0.029c-0.021,0.005-0.043,0.01-0.063,0.015C9.688,7.395,9.643,7.403,9.599,7.413
		C9.536,7.427,9.474,7.434,9.417,7.45L9.389,7.459C9.346,7.471,9.305,7.481,9.265,7.494L9.226,7.506
		C9.128,7.538,9.039,7.564,8.97,7.613C8.93,7.641,8.893,7.67,8.858,7.702L8.843,7.716C8.812,7.745,8.782,7.776,8.756,7.807
		C8.717,7.853,8.681,7.895,8.655,7.941l0.007,0.004l0.007,0.004c0.04,0.003,0.078,0.023,0.102,0.061
		c0.022,0.037,0.025,0.081,0.014,0.12l0.001,0.008l0.001,0.007c0.048-0.007,0.102-0.014,0.158-0.021
		C8.982,8.115,9.021,8.107,9.06,8.098l0.019-0.005C9.12,8.081,9.16,8.067,9.2,8.049c0.066-0.033,0.143-0.07,0.221-0.122l0.031-0.021
		c0.032-0.022,0.065-0.045,0.099-0.068l0.024-0.016C9.619,7.79,9.67,7.764,9.722,7.734c0.037-0.021,0.075-0.043,0.115-0.065
		C9.854,7.66,9.871,7.65,9.89,7.641c0.036-0.018,0.071-0.038,0.109-0.053c0.019-0.007,0.039-0.016,0.059-0.022
		c0.055-0.021,0.11-0.04,0.17-0.057c0.072-0.02,0.146-0.044,0.227-0.052c0.038-0.004,0.077-0.007,0.115-0.008
		c0.289-0.019,0.577,0.088,0.796,0.257c0.223,0.185,0.375,0.435,0.438,0.728c0.025-0.117,0.064-0.228,0.118-0.33
		c0.219-0.446,0.729-0.722,1.23-0.646l0.027,0.004l0.002,0.001c0.064,0.011,0.128,0.027,0.188,0.044
		c0.074,0.021,0.144,0.047,0.211,0.071l0.004,0.003c0.191,0.086,0.354,0.179,0.491,0.271c0.026,0.018,0.051,0.035,0.076,0.052
		l0.033,0.023c0.077,0.051,0.151,0.087,0.218,0.121l0.003,0.001c0.037,0.017,0.074,0.031,0.112,0.042l0.012,0.003
		c0.035,0.01,0.07,0.018,0.105,0.024c0.063,0.014,0.13,0.018,0.185,0.026c0.001-0.005,0.002-0.01,0.002-0.015
		c-0.012-0.04-0.01-0.083,0.014-0.12s0.063-0.058,0.102-0.06l0.013-0.009c-0.028-0.053-0.07-0.104-0.118-0.155
		c-0.024-0.028-0.053-0.056-0.082-0.083l-0.01-0.009c-0.033-0.028-0.067-0.056-0.104-0.081c-0.002-0.001-0.003-0.002-0.003-0.002
		c-0.068-0.047-0.157-0.073-0.252-0.105l-0.043-0.014c-0.032-0.008-0.063-0.017-0.097-0.026c-0.17-0.047-0.37-0.075-0.581-0.128
		l-0.005-0.001c-0.073-0.014-0.149-0.03-0.227-0.052c-0.063-0.016-0.128-0.038-0.193-0.058l-0.002-0.001L13.206,7.22
		c-0.493-0.156-0.959-0.488-1.247-0.946c-0.004-0.008-0.007-0.018-0.012-0.025c0.021-0.05,0.03-0.106,0.055-0.154
		c0.374-0.759,1.238-1.227,2.093-1.098l0.044,0.006l0.006,0.001c0.11,0.02,0.216,0.048,0.319,0.075
		c0.126,0.036,0.245,0.079,0.36,0.122l0.006,0.003c0.324,0.146,0.603,0.305,0.833,0.463c0.045,0.03,0.088,0.06,0.129,0.088
		l0.059,0.04c0.13,0.087,0.257,0.146,0.369,0.204l0.006,0.004c0.063,0.026,0.125,0.051,0.19,0.07l0.02,0.004
		c0.06,0.018,0.119,0.032,0.179,0.043c0.108,0.022,0.222,0.028,0.314,0.045c0.001-0.01,0.002-0.017,0.004-0.025
		c-0.02-0.068-0.018-0.141,0.022-0.204c0.041-0.064,0.106-0.099,0.173-0.103l0.022-0.014c-0.05-0.091-0.12-0.176-0.2-0.265
		c-0.044-0.048-0.092-0.095-0.142-0.14l-0.015-0.017c-0.056-0.048-0.115-0.095-0.177-0.137c-0.004-0.002-0.005-0.003-0.007-0.004
		c-0.115-0.08-0.266-0.125-0.427-0.179l-0.074-0.022c-0.052-0.015-0.106-0.03-0.163-0.046c-0.29-0.078-0.629-0.127-0.987-0.219
		h-0.007c-0.127-0.023-0.255-0.052-0.387-0.086c-0.107-0.028-0.217-0.066-0.327-0.102l-0.005-0.001l-0.046-0.011
		c-0.839-0.266-1.631-0.829-2.118-1.606c-0.02-0.033-0.03-0.071-0.049-0.104c5.523,0.088,9.983,3.467,9.983,7.617
		c0,0.063-0.011,0.127-0.013,0.19c-0.495-0.2-0.904-0.552-1.295-0.92c-0.4-0.391-0.746-0.808-1.045-1.236
		c-0.038-0.057-0.076-0.115-0.11-0.176c-0.067-0.128-0.147-0.241-0.218-0.355c-0.058-0.095-0.109-0.187-0.16-0.279
		c-0.02-0.034-0.033-0.069-0.054-0.101c-0.039-0.063-0.079-0.123-0.117-0.184c-0.02-0.031-0.038-0.063-0.057-0.094
		c-0.042-0.071-0.082-0.141-0.122-0.208c-0.051-0.101-0.118-0.18-0.175-0.266l-0.03-0.042c-0.045-0.062-0.087-0.12-0.129-0.179
		l-0.043-0.059c-0.102-0.146-0.226-0.246-0.339-0.333c-0.067-0.047-0.137-0.089-0.209-0.126l-0.03-0.015
		c-0.065-0.033-0.133-0.063-0.201-0.078c-0.1-0.028-0.194-0.051-0.279-0.063l-0.004,0.013l-0.002,0.013
		c0.021,0.065,0.015,0.14-0.029,0.2c-0.044,0.062-0.111,0.093-0.179,0.099l-0.011,0.007l-0.011,0.006
		c0.04,0.073,0.088,0.15,0.141,0.229c0.039,0.05,0.077,0.106,0.115,0.162l0.019,0.026c0.042,0.06,0.089,0.116,0.141,0.168
		c0.087,0.092,0.214,0.163,0.332,0.263l0.053,0.038c0.051,0.038,0.104,0.076,0.16,0.116l0.04,0.028
		c0.072,0.055,0.159,0.104,0.229,0.174c0.054,0.048,0.107,0.098,0.163,0.147c0.023,0.022,0.049,0.047,0.074,0.07
		c0.047,0.047,0.095,0.094,0.144,0.143c0.026,0.024,0.045,0.054,0.066,0.082c0.059,0.078,0.116,0.158,0.173,0.244
		c0.068,0.105,0.139,0.215,0.18,0.344c0.024,0.06,0.045,0.122,0.063,0.182c0.141,0.461,0.04,0.968-0.229,1.328
		c-0.266,0.366-0.719,0.59-1.202,0.659c0.197,0.029,0.384,0.081,0.556,0.157c0.185,0.082,0.354,0.192,0.505,0.332
		c0.132,0.138,0.237,0.301,0.32,0.487c0.15,0.365,0.152,0.808-0.012,1.193l-0.016,0.04l-0.003,0.005
		c-0.035,0.104-0.098,0.195-0.152,0.284c-0.07,0.109-0.145,0.208-0.217,0.305l-0.005,0.006c-0.243,0.254-0.475,0.465-0.709,0.615
		c-0.043,0.031-0.085,0.062-0.125,0.091l-0.056,0.041c-0.116,0.098-0.24,0.168-0.328,0.259l-0.004,0.004
		c-0.048,0.047-0.092,0.099-0.133,0.152l-0.01,0.018c-0.036,0.051-0.072,0.102-0.106,0.15c-0.064,0.088-0.12,0.18-0.166,0.265
		c0.008,0.005,0.015,0.009,0.021,0.013c0.067,0.007,0.135,0.037,0.179,0.099c0.044,0.061,0.05,0.134,0.028,0.2
		c0.003,0.008,0.003,0.017,0.005,0.025c0.1-0.016,0.212-0.04,0.328-0.077c0.063-0.017,0.122-0.049,0.184-0.079l0.018-0.009
		c0.065-0.035,0.13-0.074,0.192-0.118l0.005-0.004c0.111-0.085,0.232-0.185,0.332-0.329l0.049-0.063
		c0.033-0.046,0.066-0.092,0.101-0.14c0.186-0.239,0.341-0.554,0.547-0.865l0.004-0.006c0.061-0.117,0.124-0.233,0.196-0.351
		c0.058-0.097,0.132-0.188,0.185-0.295l0.003-0.005l0.022-0.041c0.238-0.383,0.522-0.745,0.848-1.095
		c0.155-0.177,0.331-0.346,0.519-0.508c0.17-0.163,0.357-0.315,0.559-0.449c0.164-0.11,0.34-0.201,0.521-0.274
		c-0.174,3.959-4.396,7.156-9.668,7.355c0.11-0.137,0.227-0.266,0.355-0.379c0.387-0.373,0.84-0.635,1.317-0.824
		c0.063-0.023,0.129-0.045,0.195-0.063c0.136-0.036,0.265-0.085,0.394-0.116c0.106-0.028,0.207-0.05,0.309-0.071
		c0.037-0.007,0.074-0.013,0.111-0.021c0.07-0.017,0.141-0.033,0.209-0.05c0.035-0.008,0.071-0.016,0.105-0.023
		c0.081-0.016,0.158-0.031,0.232-0.048c0.106-0.021,0.211-0.035,0.309-0.063l0.049-0.015c0.072-0.021,0.141-0.04,0.209-0.06
		l0.068-0.021c0.164-0.055,0.316-0.101,0.434-0.182c0.068-0.047,0.131-0.098,0.189-0.152l0.025-0.023
		c0.053-0.051,0.105-0.102,0.149-0.154c0.066-0.076,0.128-0.149,0.169-0.229l-0.01-0.007L17.128,15.6
		c-0.068-0.004-0.133-0.038-0.173-0.102c-0.04-0.063-0.042-0.138-0.024-0.204L16.93,15.28l-0.001-0.012
		c-0.081,0.011-0.173,0.023-0.27,0.036c-0.064,0.012-0.13,0.026-0.195,0.043l-0.031,0.009c-0.07,0.02-0.14,0.044-0.207,0.075
		c-0.114,0.057-0.243,0.117-0.375,0.208l-0.055,0.035c-0.054,0.037-0.107,0.075-0.166,0.114l-0.041,0.027
		c-0.076,0.055-0.162,0.099-0.25,0.15c-0.063,0.035-0.129,0.072-0.195,0.11c-0.028,0.015-0.06,0.031-0.092,0.048
		c-0.059,0.03-0.119,0.064-0.184,0.089c-0.033,0.014-0.066,0.028-0.101,0.038c-0.093,0.035-0.188,0.067-0.288,0.097
		c-0.123,0.032-0.249,0.074-0.385,0.087c-0.065,0.008-0.132,0.013-0.196,0.016c-0.49,0.03-0.981-0.15-1.353-0.437
		c-0.229-0.192-0.409-0.428-0.544-0.692c0.09-0.138,0.193-0.266,0.314-0.373c0.227-0.219,0.494-0.373,0.775-0.484
		c0.037-0.014,0.075-0.027,0.113-0.037c0.081-0.021,0.157-0.051,0.233-0.068c0.063-0.016,0.121-0.029,0.182-0.042
		c0.021-0.004,0.043-0.008,0.064-0.013c0.042-0.01,0.083-0.02,0.123-0.028c0.021-0.005,0.043-0.009,0.063-0.015
		c0.047-0.009,0.092-0.019,0.136-0.027c0.063-0.014,0.125-0.021,0.183-0.037l0.028-0.008c0.042-0.013,0.084-0.024,0.124-0.036
		l0.039-0.013c0.097-0.031,0.187-0.059,0.255-0.105c0.041-0.028,0.078-0.059,0.112-0.09l0.016-0.014
		c0.03-0.03,0.062-0.061,0.087-0.091c0.039-0.046,0.075-0.089,0.1-0.135l-0.007-0.004l-0.006-0.004
		c-0.04-0.003-0.078-0.022-0.102-0.061c-0.023-0.036-0.025-0.081-0.014-0.12L14.82,13.51l-0.002-0.007
		c-0.047,0.007-0.102,0.014-0.158,0.021c-0.037,0.007-0.076,0.016-0.114,0.025l-0.019,0.005c-0.042,0.011-0.082,0.026-0.122,0.044
		c-0.067,0.033-0.143,0.069-0.221,0.122l-0.031,0.021c-0.032,0.022-0.064,0.044-0.099,0.066l-0.024,0.017
		c-0.044,0.032-0.095,0.059-0.146,0.089c-0.037,0.021-0.075,0.042-0.115,0.064c-0.016,0.01-0.035,0.02-0.054,0.028
		c-0.035,0.018-0.07,0.037-0.107,0.053c-0.02,0.008-0.04,0.017-0.06,0.022c-0.056,0.021-0.109,0.039-0.17,0.057
		c-0.072,0.02-0.146,0.044-0.227,0.052c-0.038,0.004-0.077,0.007-0.115,0.008c-0.289,0.019-0.577-0.088-0.796-0.257
		c-0.223-0.186-0.375-0.435-0.438-0.728c-0.024,0.117-0.063,0.228-0.117,0.33c-0.219,0.445-0.729,0.722-1.231,0.646l-0.025-0.004
		l-0.002-0.001c-0.065-0.011-0.129-0.027-0.189-0.045c-0.073-0.021-0.145-0.046-0.211-0.071l-0.004-0.001
		c-0.191-0.086-0.354-0.18-0.491-0.272c-0.025-0.019-0.051-0.035-0.076-0.052l-0.033-0.023c-0.077-0.051-0.152-0.087-0.219-0.12
		l-0.003-0.002c-0.036-0.017-0.073-0.03-0.111-0.042l-0.012-0.002c-0.034-0.011-0.071-0.02-0.105-0.025
		c-0.063-0.014-0.13-0.018-0.185-0.026c-0.002,0.005-0.002,0.01-0.002,0.015c0.012,0.04,0.009,0.084-0.014,0.12
		c-0.023,0.038-0.062,0.058-0.102,0.061l-0.014,0.008c0.004,0.007,0.009,0.012,0.013,0.018L8.7,13.734l0.016,0.06
		c0.018,0.022,0.037,0.044,0.059,0.067c0.025,0.028,0.053,0.057,0.082,0.083l0.01,0.008c0.032,0.029,0.067,0.058,0.104,0.083
		c0.002,0,0.002,0.001,0.003,0.001c0.068,0.048,0.157,0.074,0.252,0.104l0.043,0.014c0.032,0.01,0.063,0.019,0.097,0.027
		c0.17,0.046,0.37,0.074,0.582,0.129l0.004,0.001c0.074,0.013,0.149,0.029,0.227,0.05c0.063,0.017,0.128,0.039,0.193,0.059
		l0.003,0.002l0.026,0.006c0.475,0.15,0.919,0.466,1.209,0.896c-0.002,0.004-0.004,0.01-0.006,0.014
		c-0.373,0.758-1.238,1.227-2.093,1.098L9.467,16.43l-0.006-0.001c-0.11-0.019-0.218-0.047-0.319-0.076
		c-0.126-0.036-0.244-0.079-0.36-0.121l-0.006-0.003c-0.325-0.145-0.603-0.305-0.833-0.463c-0.045-0.03-0.088-0.06-0.13-0.088
		L7.755,15.64c-0.131-0.088-0.258-0.149-0.37-0.206L7.38,15.432c-0.063-0.028-0.125-0.053-0.19-0.071l-0.02-0.004
		c-0.059-0.019-0.12-0.033-0.18-0.043c-0.108-0.022-0.222-0.029-0.313-0.045c-0.001,0.009-0.002,0.017-0.004,0.025
		c0.02,0.066,0.017,0.141-0.022,0.204c-0.041,0.063-0.105,0.098-0.174,0.102l-0.021,0.014c0.006,0.01,0.015,0.021,0.021,0.03
		l0.054,0.018l0.028,0.102c0.03,0.038,0.063,0.076,0.098,0.115c0.043,0.048,0.091,0.096,0.141,0.141l0.016,0.015
		c0.056,0.049,0.114,0.096,0.177,0.139c0.003,0.001,0.004,0.002,0.007,0.003c0.114,0.08,0.266,0.125,0.427,0.178l0.074,0.024
		c0.052,0.014,0.106,0.029,0.163,0.046c0.29,0.078,0.629,0.126,0.988,0.217l0.006,0.002c0.127,0.023,0.255,0.05,0.387,0.086
		c0.107,0.028,0.217,0.066,0.327,0.1l0.005,0.003l0.045,0.01c0.707,0.225,1.367,0.668,1.854,1.264
		C6.005,17.899,1.789,14.702,1.618,10.745z"/>
</g>
<g>
</g>
<g>
</g>
<g>
</g>
<g>
</g>
<g>
</g>
<g>
</g>
<g>
</g>
<g>
</g>
<g>
</g>
<g>
</g>
<g>
</g>
<g>
</g>
<g>
</g>
<g>
</g>
<g>
</g>
</svg>
