<?xml version="1.0" encoding="iso-8859-1"?>
<!-- Generator: Adobe Illustrator 16.0.0, SVG Export Plug-In . SVG Version: 6.00 Build 0)  -->
<!DOCTYPE svg PUBLIC "-//W3C//DTD SVG 1.1//EN" "http://www.w3.org/Graphics/SVG/1.1/DTD/svg11.dtd">
<svg version="1.1" id="Layer_1" xmlns="http://www.w3.org/2000/svg" xmlns:xlink="http://www.w3.org/1999/xlink" x="0px" y="0px"
	 width="24.25px" height="44.706px" viewBox="0 0 24.25 44.706" style="enable-background:new 0 0 24.25 44.706;"
	 xml:space="preserve">
<path d="M13.708,18.123c5.947-0.584,10.542-4.394,10.542-9.019C24.25,4.076,18.821,0,12.125,0S0,4.076,0,9.104
	c0,4.796,4.941,8.717,11.208,9.069v1.952v7.726h-2.75v2.802h2.75v1.244h-2.75V34.7h2.75v1.464v0.229h-2.75v2.802h2.75v1.244h-2.75
	H8.39v2.803h0.068h2.75v1.464h2.5v-1.464h2.818v-2.803h-2.818v-1.244h2.834v-2.802h-2.834v-0.229V34.7h2.818v-2.803h-2.818v-1.244
	h2.834v-2.802h-2.834v-7.726V18.123z M17.368,4.346c2.567,0,4.648,2.082,4.648,4.647c0,2.567-2.081,4.649-4.648,4.649
	c-1.495,0-2.81-0.719-3.661-1.814v-0.244h-0.199c-0.498-0.74-0.789-1.632-0.789-2.591C12.72,6.428,14.801,4.346,17.368,4.346z
	 M7.122,13.862c-2.567,0-4.648-2.082-4.648-4.649c0-2.565,2.081-4.647,4.648-4.647c2.567,0,4.648,2.082,4.648,4.647
	C11.771,11.78,9.689,13.862,7.122,13.862z"/>
<g>
</g>
<g>
</g>
<g>
</g>
<g>
</g>
<g>
</g>
<g>
</g>
<g>
</g>
<g>
</g>
<g>
</g>
<g>
</g>
<g>
</g>
<g>
</g>
<g>
</g>
<g>
</g>
<g>
</g>
</svg>
