<?xml version="1.0" encoding="iso-8859-1"?>
<!-- Generator: Adobe Illustrator 16.0.0, SVG Export Plug-In . SVG Version: 6.00 Build 0)  -->
<!DOCTYPE svg PUBLIC "-//W3C//DTD SVG 1.1//EN" "http://www.w3.org/Graphics/SVG/1.1/DTD/svg11.dtd">
<svg version="1.1" id="Layer_1" xmlns="http://www.w3.org/2000/svg" xmlns:xlink="http://www.w3.org/1999/xlink" x="0px" y="0px"
	 width="24.559px" height="49.956px" viewBox="0 0 24.559 49.956" style="enable-background:new 0 0 24.559 49.956;"
	 xml:space="preserve">
<path style="fill:#131212;" d="M14.06,21.335h1.324l-1.324-3.236v-0.783c5.936-0.613,10.499-4.227,10.499-8.606
	C24.559,3.898,19.062,0,12.279,0S0,3.898,0,8.709c0,4.523,4.865,8.24,11.086,8.665v0.715l-1.328,3.246h1.328v28.621h2.974v-0.514
	h8.623v-2.354h-3.779v-1.345h-2.589v-2.538h2.589v-1.345h3.779v-2.603H14.06V21.335z M9.826,4.754c0-1.355,1.098-2.453,2.454-2.453
	s2.454,1.098,2.454,2.453c0,1.356-1.098,2.454-2.454,2.454S9.826,6.11,9.826,4.754z"/>
<g>
</g>
<g>
</g>
<g>
</g>
<g>
</g>
<g>
</g>
<g>
</g>
<g>
</g>
<g>
</g>
<g>
</g>
<g>
</g>
<g>
</g>
<g>
</g>
<g>
</g>
<g>
</g>
<g>
</g>
</svg>
