<?xml version="1.0" encoding="iso-8859-1"?>
<!-- Generator: Adobe Illustrator 16.0.0, SVG Export Plug-In . SVG Version: 6.00 Build 0)  -->
<!DOCTYPE svg PUBLIC "-//W3C//DTD SVG 1.1//EN" "http://www.w3.org/Graphics/SVG/1.1/DTD/svg11.dtd">
<svg version="1.1" id="Layer_1" xmlns="http://www.w3.org/2000/svg" xmlns:xlink="http://www.w3.org/1999/xlink" x="0px" y="0px"
	 width="23.146px" height="49.156px" viewBox="0 0 23.146 49.156" style="enable-background:new 0 0 23.146 49.156;"
	 xml:space="preserve">
<path d="M23.146,9.394c0-3.543-2.43-6.633-6.007-8.233l-0.017-0.012c0,0-0.012-0.003-0.019-0.004C15.459,0.415,13.574,0,11.572,0
	C5.191,0,0,4.214,0,9.394c0,3.269,2.068,6.151,5.197,7.834l1.017,0.71c0,0,2.457,0.624,2.863,0.627
	c0.535,0.095,1.086,0.149,1.645,0.184c0,0.452,0,1.014,0,1.524c-0.434,0-0.786,0.353-0.786,0.787c0,0.293,0.167,0.54,0.405,0.674
	v0.204c-0.319,0.472-0.723,0.976-0.723,2.055c0,1.057,0.39,1.547,0.708,2.009c-0.24,0.135-0.41,0.382-0.41,0.677
	c0,0.302,0.175,0.556,0.425,0.688v5.261c-0.238,0.136-0.405,0.381-0.405,0.674c0,0.294,0.167,0.539,0.405,0.674v0.038
	c-0.319,0.705-0.723,1.542-0.723,2.791c0,1.249,0.403,1.834,0.723,2.391v2.11H8.969v1.39H6.548v-1.879H5.207v7.655h1.341v-1.77
	h2.421v1.39h1.373v1.063h2.606v-1.117h1.229v-1.39h2.421v1.77h1.341v-7.655h-1.341v1.879h-2.421v-1.39h-1.229v-2.305
	c0.285-0.494,0.579-1.076,0.579-2.141c0-1.067-0.294-1.827-0.579-2.467v-0.43c0.18-0.143,0.3-0.358,0.3-0.606
	c0-0.248-0.122-0.459-0.3-0.604v-5.429c0.168-0.145,0.281-0.351,0.281-0.59c0-0.238-0.113-0.441-0.281-0.583v-0.282
	c0.285-0.416,0.579-0.905,0.579-1.822c0-0.92-0.294-1.42-0.579-1.842v-0.487c0.181-0.142,0.3-0.356,0.3-0.604
	c0-0.435-0.353-0.787-0.787-0.787h-0.038c0-0.51,0-1.07,0-1.521C18.407,18.397,23.146,14.341,23.146,9.394z M12.287,17.362
	c0.001,0.003,0.002,0.006,0.003,0.009l-0.002,0.002C12.288,17.37,12.288,17.365,12.287,17.362z M17.068,5.059
	c0.069-0.006,0.138-0.039,0.183-0.1c0.044-0.062,0.05-0.137,0.029-0.204l0.002-0.013l0.002-0.013
	c0.087,0.013,0.184,0.036,0.284,0.064c0.071,0.017,0.139,0.045,0.205,0.08l0.031,0.015c0.073,0.038,0.144,0.08,0.212,0.128
	c0.115,0.088,0.241,0.191,0.344,0.339l0.044,0.059c0.042,0.059,0.086,0.119,0.131,0.182l0.031,0.043
	c0.057,0.086,0.125,0.167,0.177,0.269c0.04,0.069,0.081,0.139,0.124,0.212c0.019,0.031,0.038,0.063,0.058,0.096
	c0.039,0.062,0.078,0.123,0.119,0.186c0.021,0.031,0.036,0.068,0.055,0.102c0.051,0.093,0.104,0.187,0.163,0.283
	c0.072,0.117,0.153,0.232,0.221,0.362c0.035,0.061,0.074,0.121,0.112,0.178c0.305,0.436,0.654,0.859,1.062,1.256
	c0.412,0.39,0.845,0.764,1.375,0.962c-0.208,0.079-0.407,0.188-0.595,0.313c-0.203,0.136-0.394,0.292-0.566,0.457
	c-0.19,0.164-0.37,0.336-0.526,0.516c-0.331,0.355-0.62,0.723-0.861,1.111l-0.022,0.042l-0.003,0.005
	c-0.054,0.108-0.129,0.201-0.188,0.299c-0.074,0.119-0.139,0.238-0.2,0.356l-0.003,0.006c-0.21,0.316-0.367,0.635-0.557,0.878
	c-0.035,0.049-0.069,0.096-0.102,0.143l-0.049,0.063c-0.101,0.146-0.224,0.247-0.336,0.334l-0.006,0.004
	c-0.063,0.045-0.128,0.084-0.194,0.12l-0.02,0.009c-0.062,0.03-0.122,0.063-0.187,0.08c-0.117,0.037-0.231,0.062-0.333,0.078
	c-0.001-0.01-0.003-0.018-0.004-0.026c0.021-0.067,0.015-0.142-0.029-0.203c-0.045-0.062-0.112-0.094-0.182-0.1
	c-0.008-0.004-0.014-0.008-0.022-0.013c0.047-0.086,0.104-0.179,0.169-0.269c0.035-0.049,0.071-0.101,0.108-0.153l0.01-0.017
	c0.041-0.054,0.086-0.106,0.135-0.155l0.004-0.004c0.089-0.092,0.215-0.163,0.333-0.262l0.056-0.042
	c0.042-0.03,0.083-0.06,0.127-0.091c0.238-0.153,0.474-0.366,0.72-0.626l0.005-0.005c0.073-0.098,0.148-0.199,0.219-0.31
	c0.056-0.09,0.119-0.182,0.155-0.289l0.002-0.004l0.017-0.041c0.167-0.392,0.165-0.841,0.012-1.212
	c-0.084-0.188-0.192-0.355-0.326-0.494c-0.152-0.142-0.324-0.255-0.513-0.339c-0.175-0.077-0.364-0.128-0.564-0.159
	c0.492-0.071,0.952-0.296,1.22-0.669c0.274-0.367,0.378-0.881,0.234-1.349c-0.018-0.062-0.039-0.124-0.063-0.185
	C19.066,7.21,18.994,7.1,18.924,6.993c-0.057-0.089-0.116-0.17-0.175-0.249c-0.021-0.029-0.042-0.058-0.067-0.083
	c-0.05-0.049-0.098-0.098-0.146-0.146c-0.026-0.024-0.051-0.048-0.075-0.071c-0.057-0.051-0.112-0.102-0.166-0.15
	c-0.071-0.071-0.159-0.121-0.234-0.176l-0.04-0.029c-0.057-0.041-0.111-0.079-0.164-0.117l-0.052-0.039
	c-0.121-0.101-0.25-0.172-0.338-0.267c-0.053-0.053-0.1-0.11-0.144-0.171l-0.019-0.026c-0.039-0.058-0.077-0.114-0.116-0.166
	c-0.054-0.079-0.103-0.158-0.143-0.232l0.011-0.006L17.068,5.059z M18.176,9.163l0.036-0.016c0.025,0.002,0.05,0.004,0.075,0.004
	c-0.031,0-0.066,0.004-0.104,0.01L18.176,9.163z M6.364,4.338c0.045-0.053,0.098-0.105,0.152-0.157l0.025-0.024
	c0.06-0.055,0.125-0.106,0.193-0.153c0.119-0.084,0.275-0.13,0.441-0.185l0.069-0.021c0.069-0.02,0.139-0.039,0.213-0.06
	l0.049-0.014c0.098-0.027,0.205-0.042,0.313-0.064c0.077-0.016,0.155-0.032,0.236-0.049C8.09,3.602,8.126,3.593,8.163,3.585
	c0.07-0.017,0.14-0.033,0.212-0.05c0.038-0.007,0.074-0.013,0.113-0.021C8.59,3.493,8.694,3.471,8.801,3.442
	c0.131-0.031,0.261-0.081,0.4-0.118c0.067-0.018,0.133-0.041,0.198-0.063c0.486-0.192,0.945-0.458,1.339-0.836
	c0.392-0.349,0.72-0.802,0.885-1.319c0.065,0.207,0.158,0.403,0.271,0.586c0.495,0.791,1.299,1.363,2.151,1.633l0.045,0.011
	l0.006,0.001c0.113,0.035,0.224,0.074,0.332,0.102c0.134,0.037,0.264,0.064,0.393,0.087l0.007,0.002
	c0.364,0.092,0.708,0.141,1.003,0.221c0.057,0.016,0.112,0.032,0.167,0.046l0.074,0.024c0.164,0.053,0.317,0.1,0.434,0.181
	c0.002,0,0.003,0.001,0.006,0.003c0.063,0.043,0.124,0.09,0.18,0.14l0.015,0.015c0.051,0.046,0.1,0.094,0.144,0.143
	c0.081,0.09,0.153,0.176,0.204,0.269l-0.023,0.014c-0.068,0.004-0.134,0.039-0.175,0.104c-0.041,0.064-0.043,0.139-0.024,0.207
	c-0.001,0.009-0.002,0.017-0.003,0.026c-0.094-0.016-0.208-0.022-0.319-0.045c-0.06-0.011-0.122-0.026-0.182-0.044l-0.02-0.003
	c-0.065-0.02-0.13-0.044-0.193-0.072L16.11,4.752c-0.115-0.058-0.243-0.119-0.375-0.208l-0.06-0.04
	c-0.043-0.029-0.086-0.059-0.132-0.089c-0.234-0.16-0.517-0.322-0.846-0.47l-0.006-0.003c-0.117-0.043-0.237-0.086-0.365-0.123
	C14.222,3.79,14.112,3.761,14,3.742l-0.004,0l-0.045-0.007c-0.869-0.13-1.747,0.346-2.126,1.116
	c-0.09,0.176-0.159,0.367-0.202,0.569c-0.108-0.506-0.372-0.937-0.755-1.256C10.49,3.872,9.992,3.688,9.495,3.72
	c-0.066,0.002-0.133,0.007-0.2,0.015C9.156,3.748,9.029,3.79,8.904,3.823C8.802,3.853,8.706,3.886,8.611,3.921
	C8.577,3.932,8.543,3.946,8.51,3.959C8.444,3.985,8.383,4.02,8.322,4.05C8.291,4.067,8.259,4.084,8.229,4.1
	C8.161,4.138,8.095,4.175,8.031,4.211C7.942,4.264,7.854,4.308,7.777,4.363L7.735,4.391C7.677,4.432,7.622,4.47,7.567,4.507
	L7.511,4.544c-0.133,0.091-0.264,0.153-0.38,0.211C7.063,4.786,6.992,4.811,6.92,4.831L6.89,4.839
	C6.823,4.856,6.756,4.872,6.69,4.882C6.592,4.896,6.499,4.909,6.417,4.92L6.416,4.908L6.414,4.896
	C6.433,4.827,6.431,4.751,6.39,4.688c-0.041-0.065-0.107-0.1-0.176-0.104L6.203,4.577L6.192,4.57
	C6.235,4.49,6.296,4.416,6.364,4.338z M0.93,9.933C0.928,9.913,0.925,9.893,0.924,9.872c0.019,0.02,0.039,0.041,0.059,0.061
	L0.93,9.933z M6.178,14.029c-0.07,0.006-0.138,0.038-0.183,0.1c-0.043,0.062-0.05,0.136-0.029,0.204l-0.002,0.013l-0.002,0.013
	c-0.087-0.013-0.184-0.036-0.284-0.065c-0.071-0.017-0.139-0.045-0.205-0.08l-0.031-0.015c-0.073-0.037-0.144-0.079-0.212-0.127
	c-0.115-0.088-0.241-0.191-0.344-0.339l-0.044-0.059c-0.042-0.059-0.086-0.119-0.131-0.182L4.68,13.449
	c-0.057-0.086-0.125-0.167-0.177-0.269c-0.04-0.068-0.081-0.138-0.124-0.211c-0.019-0.031-0.038-0.063-0.058-0.096
	c-0.028-0.044-0.057-0.09-0.086-0.135L4.19,12.641L4.13,12.555c-0.046-0.084-0.092-0.167-0.146-0.253
	c-0.071-0.116-0.153-0.232-0.22-0.362c-0.035-0.062-0.073-0.121-0.113-0.179c-0.304-0.436-0.653-0.859-1.061-1.255
	c-0.412-0.39-0.845-0.765-1.375-0.962C1.423,9.465,1.623,9.356,1.81,9.231C2.013,9.096,2.204,8.94,2.376,8.774
	c0.19-0.163,0.37-0.336,0.526-0.515c0.331-0.355,0.62-0.723,0.862-1.112l0.022-0.042L3.789,7.1c0.054-0.108,0.129-0.201,0.188-0.299
	c0.074-0.12,0.139-0.238,0.2-0.356L4.18,6.438C4.39,6.123,4.547,5.803,4.736,5.56c0.035-0.049,0.069-0.096,0.102-0.142l0.048-0.063
	c0.102-0.146,0.224-0.247,0.337-0.334l0.006-0.004c0.063-0.044,0.129-0.084,0.194-0.12l0.02-0.008
	C5.505,4.857,5.564,4.824,5.63,4.807C5.747,4.77,5.862,4.745,5.962,4.729c0.001,0.01,0.003,0.018,0.004,0.027
	C5.945,4.822,5.952,4.896,5.996,4.958c0.044,0.063,0.112,0.094,0.182,0.1C6.185,5.063,6.191,5.066,6.2,5.071
	C6.153,5.157,6.097,5.25,6.03,5.34C5.996,5.389,5.959,5.441,5.923,5.493L5.913,5.51C5.871,5.564,5.827,5.617,5.778,5.666
	L5.773,5.669C5.685,5.761,5.559,5.832,5.44,5.932L5.384,5.974c-0.042,0.03-0.083,0.06-0.126,0.091
	c-0.238,0.153-0.474,0.366-0.72,0.626L4.532,6.697c-0.073,0.097-0.148,0.199-0.22,0.309c-0.056,0.09-0.119,0.182-0.155,0.289
	L4.155,7.3L4.138,7.34C3.972,7.733,3.973,8.182,4.126,8.553C4.21,8.741,4.318,8.908,4.452,9.047
	c0.152,0.142,0.325,0.254,0.513,0.337C5.14,9.462,5.329,9.514,5.53,9.544c-0.492,0.072-0.952,0.297-1.221,0.669
	c-0.274,0.366-0.378,0.881-0.234,1.349c0.018,0.061,0.039,0.124,0.063,0.185c0.042,0.131,0.114,0.242,0.184,0.349
	c0.057,0.088,0.116,0.169,0.175,0.249c0.021,0.029,0.042,0.058,0.067,0.083c0.05,0.05,0.098,0.098,0.146,0.146
	c0.025,0.024,0.051,0.048,0.075,0.071c0.057,0.051,0.112,0.101,0.166,0.149c0.072,0.071,0.159,0.122,0.234,0.177L5.224,13
	c0.057,0.041,0.111,0.079,0.164,0.117l0.052,0.04c0.121,0.101,0.249,0.172,0.338,0.267c0.052,0.052,0.1,0.11,0.143,0.17l0.019,0.026
	c0.039,0.058,0.077,0.114,0.116,0.165c0.054,0.079,0.103,0.158,0.143,0.232l-0.011,0.006L6.178,14.029z M9.155,15.753L9.15,15.751
	c-0.114-0.035-0.224-0.074-0.333-0.102c-0.134-0.036-0.264-0.063-0.393-0.087l-0.008-0.001c-0.363-0.092-0.708-0.142-1.002-0.221
	c-0.058-0.016-0.112-0.031-0.167-0.046l-0.075-0.024c-0.164-0.054-0.316-0.1-0.434-0.181c-0.002-0.001-0.003-0.002-0.006-0.003
	c-0.064-0.043-0.124-0.091-0.18-0.14L6.539,14.93c-0.051-0.046-0.1-0.095-0.144-0.143c-0.036-0.04-0.068-0.079-0.1-0.118
	l-0.028-0.102l-0.055-0.018c-0.006-0.011-0.015-0.021-0.021-0.032l0.022-0.014C6.283,14.5,6.349,14.465,6.39,14.4
	c0.04-0.064,0.043-0.139,0.023-0.207c0.001-0.009,0.002-0.016,0.004-0.026c0.093,0.016,0.208,0.022,0.318,0.046
	c0.061,0.01,0.123,0.025,0.183,0.043l0.02,0.003c0.065,0.02,0.13,0.044,0.193,0.073l0.006,0.003c0.114,0.058,0.243,0.12,0.375,0.208
	l0.059,0.04c0.043,0.029,0.086,0.059,0.132,0.089c0.234,0.16,0.517,0.322,0.846,0.47l0.007,0.003
	c0.116,0.042,0.236,0.086,0.365,0.123c0.104,0.029,0.213,0.059,0.325,0.077l0.005,0.001l0.044,0.006
	c0.869,0.13,1.747-0.346,2.126-1.116c0.09-0.176,0.158-0.367,0.203-0.569c0.107,0.506,0.371,0.937,0.754,1.256
	c0.377,0.291,0.876,0.475,1.374,0.443c0.066-0.002,0.133-0.007,0.199-0.015c0.139-0.013,0.266-0.056,0.391-0.089
	c0.103-0.03,0.198-0.063,0.293-0.098c0.035-0.01,0.068-0.025,0.101-0.039c0.066-0.025,0.127-0.06,0.188-0.09
	c0.032-0.017,0.063-0.034,0.093-0.049c0.068-0.039,0.134-0.076,0.198-0.112c0.089-0.053,0.176-0.098,0.253-0.153l0.042-0.027
	c0.058-0.041,0.114-0.079,0.168-0.117l0.056-0.036c0.134-0.091,0.265-0.153,0.381-0.211c0.068-0.032,0.139-0.056,0.21-0.076
	l0.031-0.008c0.066-0.017,0.133-0.032,0.198-0.044c0.099-0.014,0.192-0.026,0.273-0.038l0.001,0.012l0.002,0.013
	c-0.02,0.068-0.016,0.144,0.024,0.208c0.04,0.064,0.107,0.099,0.175,0.104l0.012,0.007l0.011,0.006
	c-0.042,0.081-0.104,0.155-0.172,0.232c-0.045,0.054-0.097,0.106-0.152,0.158l-0.025,0.024c-0.06,0.055-0.125,0.106-0.193,0.154
	c-0.119,0.083-0.274,0.129-0.44,0.185l-0.069,0.021c-0.069,0.02-0.139,0.039-0.212,0.06l-0.05,0.015
	c-0.098,0.027-0.205,0.042-0.313,0.064c-0.077,0.016-0.155,0.032-0.236,0.049c-0.035,0.008-0.071,0.016-0.108,0.024
	c-0.07,0.017-0.14,0.033-0.212,0.05c-0.037,0.007-0.074,0.014-0.113,0.021c-0.103,0.021-0.206,0.044-0.313,0.073
	c-0.131,0.031-0.261,0.081-0.4,0.118c-0.067,0.019-0.133,0.04-0.197,0.063c-0.486,0.192-0.946,0.458-1.339,0.837
	c-0.365,0.325-0.669,0.743-0.843,1.216c-0.027,0-0.054,0.002-0.081,0.002c-0.062-0.169-0.138-0.333-0.231-0.486
	c-0.495-0.79-1.299-1.362-2.151-1.632L9.155,15.753z"/>
<g>
</g>
<g>
</g>
<g>
</g>
<g>
</g>
<g>
</g>
<g>
</g>
<g>
</g>
<g>
</g>
<g>
</g>
<g>
</g>
<g>
</g>
<g>
</g>
<g>
</g>
<g>
</g>
<g>
</g>
</svg>
