<?xml version="1.0" encoding="iso-8859-1"?>
<!-- Generator: Adobe Illustrator 16.0.0, SVG Export Plug-In . SVG Version: 6.00 Build 0)  -->
<!DOCTYPE svg PUBLIC "-//W3C//DTD SVG 1.1//EN" "http://www.w3.org/Graphics/SVG/1.1/DTD/svg11.dtd">
<svg version="1.1" id="Layer_1" xmlns="http://www.w3.org/2000/svg" xmlns:xlink="http://www.w3.org/1999/xlink" x="0px" y="0px"
	 width="27.534px" height="49.771px" viewBox="0 0 27.534 49.771" style="enable-background:new 0 0 27.534 49.771;"
	 xml:space="preserve">
<path d="M15.344,38.361h-0.029V27.004c0.301-0.221,0.49-0.509,0.49-0.828c0-0.134-0.041-0.26-0.102-0.382
	c0.37-0.277,0.602-0.636,0.602-1.031c0-0.329-0.154-0.634-0.417-0.887c0.826-0.401,1.37-1.038,1.37-1.763
	c0-0.361-0.146-0.643-0.383-0.872c6.098-1.106,10.659-5.378,10.659-10.477C27.534,4.829,21.358,0,13.768,0C6.176,0,0,4.829,0,10.764
	c0,5.154,4.66,9.47,10.859,10.517c-0.211,0.223-0.338,0.493-0.338,0.832c0,0.725,0.543,1.361,1.37,1.763
	c-0.263,0.253-0.418,0.558-0.418,0.887c0,0.396,0.231,0.754,0.602,1.031c-0.06,0.122-0.101,0.248-0.101,0.382
	c0,0.337,0.206,0.642,0.538,0.866v11.319h-1.566v9.24h1.566v2.17h2.802v-2.17h0.029h10.395v-1.176h-5.104v-1.816h-1.96v-0.753
	h-1.568v-1.747h1.568v-0.753h1.96v-1.404h5.104v-1.55H15.344V38.361z M10.817,17.589l0.036-0.069l0.014,0.007l-0.033,0.067
	c-0.006,0.014-0.004,0.024-0.008,0.038c-0.012-0.003-0.023-0.005-0.034-0.008C10.8,17.612,10.809,17.602,10.817,17.589z
	 M10.977,17.65c0.002,0.006,0.01,0.013,0.013,0.021c-0.005-0.001-0.009-0.002-0.014-0.003C10.975,17.663,10.978,17.654,10.977,17.65
	z M11.149,17.416c-0.012-0.124,0.004-0.228,0.031-0.319l0.065-0.129c0.022-0.04,0.04-0.087,0.066-0.12
	c-0.078,0.244,0.043,0.439,0.168,0.405c0.149-0.036,0.182-0.204,0.16-0.268c0.056,0.042,0.127-0.001,0.164-0.045
	c0.047-0.057,0.083-0.129-0.002-0.263c-0.169-0.221-0.131-0.324-0.133-0.413c0-0.091,0.08-0.096,0.068-0.021
	c0.008,0.257,0.112,0.299,0.184,0.308c0.074,0.008,0.164-0.079,0.158-0.163c0.106,0.073,0.2,0.079,0.296-0.021
	c0.112-0.131,0.041-0.239-0.128-0.31c0.132-0.029,0.146-0.18-0.015-0.239c-0.233-0.092-0.222-0.143-0.263-0.224
	c-0.011-0.02-0.004-0.031-0.005-0.048l0.019-0.038c0.006,0.004,0.012-0.007,0.018,0.007c0.071,0.16,0.223,0.198,0.291,0.133
	c0.071-0.064,0.082-0.13,0.029-0.222c0.123-0.002,0.192-0.155,0.025-0.202c-0.083-0.035-0.13-0.074-0.162-0.112l0.173-0.343
	c0.052-0.054,0.118-0.096,0.216-0.107c0.104-0.021,0.122-0.074,0.131-0.126c0.004-0.04-0.006-0.097-0.054-0.105
	c0.041-0.02,0.11-0.117,0.06-0.211c-0.01-0.022-0.033-0.03-0.057-0.034l1.076-2.127l-0.092-0.046l0.009,0.003l0.074,0.019
	c0.022-0.071,0.08-0.12,0.153-0.155c0.052,0.054,0.085,0.116,0.076,0.188l0.078,0.002l0.076-0.006
	c-0.015-0.073,0.014-0.136,0.063-0.192c0.076,0.032,0.138,0.078,0.166,0.147l0.071-0.022l0.007-0.002l-0.087,0.052l1.24,2.07
	c-0.022,0.006-0.045,0.014-0.054,0.036c-0.043,0.097,0.033,0.19,0.076,0.209c-0.046,0.01-0.053,0.068-0.045,0.107
	c0.013,0.052,0.035,0.104,0.141,0.12c0.095,0.006,0.163,0.041,0.218,0.089l0.205,0.342c-0.03,0.04-0.073,0.081-0.153,0.12
	c-0.164,0.054-0.082,0.203,0.041,0.2c-0.044,0.094-0.029,0.159,0.048,0.22c0.072,0.062,0.221,0.016,0.279-0.147
	c0.005-0.014,0.011-0.003,0.016-0.007l0.023,0.039c0,0.016,0.007,0.026-0.001,0.045c-0.034,0.083-0.02,0.132-0.246,0.236
	c-0.155,0.067-0.13,0.218,0.005,0.24c-0.163,0.079-0.227,0.19-0.104,0.316c0.104,0.094,0.196,0.084,0.298,0.005
	c0.001,0.084,0.097,0.167,0.17,0.155c0.07-0.013,0.171-0.061,0.159-0.317c-0.018-0.074,0.063-0.073,0.07,0.018
	c0.005,0.088,0.052,0.189-0.101,0.419c-0.073,0.137-0.033,0.207,0.02,0.262c0.04,0.041,0.113,0.081,0.167,0.036
	c-0.018,0.066,0.028,0.231,0.181,0.261c0.126,0.028,0.232-0.173,0.136-0.413c0.021,0.023,0.035,0.059,0.055,0.085l0.097,0.161
	c0.034,0.088,0.057,0.19,0.056,0.313c0.005,0.065,0.014,0.117,0.026,0.164c-0.002,0-0.003,0.001-0.005,0.002
	c-0.037,0.015-0.076,0.032-0.116,0.044c-0.108,0.041-0.218,0.078-0.336,0.112c-0.144,0.039-0.29,0.087-0.449,0.102
	c-0.076,0.01-0.153,0.015-0.229,0.018c-0.532,0.034-1.061-0.152-1.48-0.446c0.052-0.005,0.087-0.044,0.097-0.086
	c0.014-0.068,0.01-0.146-0.135-0.24c-0.268-0.147-0.283-0.253-0.33-0.335c-0.046-0.083,0.024-0.114,0.053-0.042
	c0.139,0.233,0.254,0.238,0.323,0.223c0.072-0.016,0.11-0.126,0.062-0.201c0.136,0.033,0.225,0.007,0.261-0.115
	c0.037-0.157-0.084-0.231-0.272-0.242c0.106-0.069,0.043-0.212-0.135-0.215c-0.259-0.007-0.275-0.059-0.354-0.119
	c-0.021-0.018-0.024-0.033-0.033-0.05l-0.002-0.033c0.008-0.001,0.009-0.014,0.025,0.001c0.146,0.123,0.302,0.108,0.333,0.027
	c0.031-0.083,0.009-0.146-0.086-0.213c0.112-0.042,0.099-0.204-0.079-0.192c-0.096-0.005-0.159-0.027-0.209-0.053l-0.014-0.344
	c0.014-0.075,0.053-0.144,0.146-0.191c0.084-0.053,0.076-0.108,0.056-0.158c-0.015-0.038-0.055-0.086-0.102-0.079
	c0.028-0.032,0.042-0.143-0.052-0.213c-0.022-0.018-0.049-0.018-0.074-0.013l-0.089-2.311l-0.187,0.007l0.088,2.309
	c-0.025-0.003-0.052-0.002-0.072,0.017c-0.086,0.074-0.066,0.185-0.034,0.215c-0.048-0.005-0.083,0.046-0.096,0.084
	c-0.017,0.051-0.021,0.105,0.067,0.155c0.095,0.04,0.139,0.104,0.16,0.175l0.014,0.354c-0.048,0.028-0.109,0.053-0.204,0.063
	c-0.178-0.004-0.179,0.159-0.065,0.195c-0.088,0.072-0.105,0.136-0.067,0.217c0.001,0.001,0.004,0,0.004,0.002
	c-0.017,0.065-0.044,0.123-0.065,0.186c-0.135,0.033-0.172,0.149-0.074,0.208c0,0,0,0.001,0,0.001
	c-0.188,0.02-0.302,0.101-0.254,0.255c0.02,0.049,0.051,0.072,0.085,0.091c-0.48,0.769-1.405,1.229-2.328,1.091l-0.011-0.001
	C11.132,17.654,11.15,17.557,11.149,17.416z M13.972,11.363c-0.003-0.001-0.005-0.001-0.006-0.002
	c-0.006-0.004-0.013-0.01-0.019-0.014c-0.001,0-0.001-0.001-0.001-0.001c-0.002-0.004-0.004-0.008-0.006-0.011
	c-0.001-0.003-0.002-0.007-0.003-0.01c0-0.003,0-0.006,0-0.009c0-0.003,0.001-0.007,0.001-0.01c0.004-0.005,0.007-0.01,0.009-0.015
	c0.002-0.001,0.003-0.003,0.004-0.004c0.004-0.003,0.009-0.006,0.013-0.009c0.003-0.002,0.006-0.004,0.009-0.005
	c0.004-0.001,0.008-0.002,0.012-0.003c0.004,0,0.009-0.001,0.013-0.002c0.009,0.001,0.018,0.003,0.025,0.003l0,0
	c0.004,0.002,0.007,0.003,0.011,0.005c0.004,0.003,0.008,0.005,0.013,0.007c0.001,0.002,0.003,0.004,0.005,0.007
	c0.003,0.004,0.006,0.007,0.009,0.011c0,0.002,0.001,0.004,0.002,0.006c0,0.005,0.001,0.01,0.001,0.015c0,0.001,0,0.001,0,0.001
	c-0.004,0.006-0.006,0.012-0.008,0.019c-0.003,0.003-0.006,0.006-0.009,0.009c-0.003,0.002-0.005,0.005-0.008,0.007
	c-0.001,0.001-0.003,0.001-0.004,0.002c-0.007,0.001-0.013,0.004-0.021,0.007c-0.008-0.001-0.017,0-0.025,0
	C13.982,11.366,13.977,11.364,13.972,11.363z M14.08,15.848c-0.008,0.016-0.009,0.031-0.029,0.049
	c-0.056,0.049-0.079,0.091-0.207,0.117c-0.012-0.04-0.023-0.079-0.035-0.12c0.067,0.017,0.155,0.007,0.247-0.08
	c0.015-0.014,0.016-0.002,0.023-0.002L14.08,15.848z M14.37,19.637c0.128-0.158,0.264-0.309,0.414-0.441
	c0.451-0.434,0.979-0.74,1.537-0.961c0.075-0.026,0.15-0.052,0.228-0.073c0.158-0.042,0.31-0.099,0.46-0.135
	c0.123-0.033,0.241-0.059,0.359-0.083c0.044-0.008,0.087-0.016,0.129-0.024c0.083-0.02,0.164-0.039,0.244-0.058
	c0.042-0.009,0.084-0.019,0.123-0.027c0.095-0.02,0.185-0.038,0.271-0.056c0.123-0.026,0.247-0.042,0.358-0.074l0.058-0.016
	c0.086-0.024,0.165-0.047,0.245-0.07l0.079-0.024c0.191-0.063,0.37-0.116,0.506-0.212c0.078-0.054,0.153-0.114,0.223-0.177
	l0.028-0.028c0.063-0.059,0.122-0.119,0.174-0.18c0.077-0.089,0.148-0.174,0.197-0.267l-0.012-0.007l-0.013-0.008
	c-0.079-0.005-0.156-0.044-0.202-0.119c-0.047-0.074-0.05-0.161-0.027-0.239l-0.003-0.015l-0.002-0.014
	c-0.094,0.013-0.2,0.027-0.313,0.042c-0.074,0.014-0.152,0.031-0.229,0.05l-0.036,0.01c-0.082,0.022-0.162,0.051-0.241,0.087
	c-0.134,0.067-0.283,0.138-0.438,0.242l-0.063,0.042c-0.063,0.043-0.126,0.087-0.194,0.133l-0.047,0.032
	c-0.088,0.064-0.189,0.115-0.291,0.175c-0.028,0.016-0.059,0.032-0.086,0.048c-0.031-0.026-0.055-0.049-0.094-0.078
	c-0.118-0.073-0.203-0.149-0.268-0.224l-0.137-0.228c-0.003-0.008-0.008-0.018-0.011-0.027c0.173,0.212,0.436,0.27,0.486,0.173
	c0.067-0.114-0.065-0.244-0.14-0.275c0.077-0.006,0.085-0.077,0.068-0.128c-0.021-0.067-0.063-0.137-0.243-0.176
	c-0.318-0.048-0.387-0.14-0.469-0.199c-0.085-0.06-0.036-0.112,0.025-0.054c0.243,0.167,0.352,0.135,0.408,0.098
	c0.058-0.038,0.036-0.151-0.044-0.204c0.139-0.014,0.207-0.066,0.18-0.19c-0.048-0.156-0.194-0.185-0.373-0.132
	c0.063-0.098-0.067-0.208-0.23-0.152c-0.241,0.077-0.281,0.036-0.383,0.006c-0.025-0.007-0.031-0.018-0.047-0.028l-0.022-0.038
	c0.007-0.001,0.001-0.011,0.018-0.005c0.196,0.065,0.332,0.001,0.318-0.083c-0.012-0.085-0.065-0.135-0.185-0.167
	c0.08-0.075-0.015-0.219-0.17-0.15c-0.087,0.025-0.154,0.027-0.212,0.021l-0.204-0.339c-0.013-0.065-0.005-0.131,0.049-0.194
	c0.051-0.077,0.015-0.123-0.028-0.163c-0.033-0.03-0.094-0.062-0.133-0.04c0.011-0.038-0.035-0.144-0.155-0.178
	c-0.027-0.008-0.05,0-0.069,0.011l-1.257-2.099l-0.015,0.009c-0.048-0.06-0.054-0.125-0.038-0.19
	c0.086,0.004,0.167,0.025,0.229,0.081l0.055-0.045l0.002-0.002l-0.055,0.081l2.187,1.48c-0.013,0.013-0.029,0.024-0.026,0.044
	c0.01,0.102,0.126,0.163,0.175,0.165c-0.036,0.025-0.013,0.08,0.015,0.113c0.037,0.044,0.084,0.083,0.189,0.063
	c0.069-0.021,0.138-0.023,0.2-0.011l0.403,0.274c-0.008,0.044-0.028,0.093-0.077,0.15c-0.121,0.104,0.029,0.213,0.139,0.168
	c0.008,0.101,0.055,0.156,0.154,0.187s0.211-0.059,0.183-0.227c-0.002-0.007,0.004-0.001,0.004-0.006l0.054,0.036
	c0.005,0.011,0.013,0.014,0.015,0.027c0.011,0.087,0.051,0.128-0.104,0.296c-0.106,0.113-0.008,0.242,0.127,0.217
	c-0.108,0.125-0.11,0.248,0.065,0.322c0.143,0.053,0.223,0.013,0.274-0.093c0.043,0.077,0.174,0.121,0.234,0.086
	c0.059-0.035,0.125-0.111-0.017-0.342c-0.054-0.062,0.021-0.087,0.073-0.006c0.051,0.079,0.144,0.155,0.123,0.415
	c0.001,0.149,0.075,0.2,0.149,0.233c0.059,0.025,0.146,0.036,0.172-0.022c0.018,0.065,0.144,0.202,0.298,0.178
	c0.126-0.014,0.122-0.225-0.078-0.41l0.269,0.183c0.071,0.067,0.14,0.144,0.195,0.249c0.052,0.078,0.099,0.136,0.144,0.177
	c-0.004,0.006-0.009,0.012-0.014,0.018c-0.075,0.103-0.141,0.21-0.193,0.309c0.009,0.006,0.017,0.01,0.025,0.015
	c0.079,0.007,0.157,0.043,0.208,0.115c0.051,0.07,0.059,0.156,0.033,0.233c0.002,0.01,0.003,0.019,0.005,0.03
	c0.116-0.019,0.247-0.047,0.383-0.09c0.074-0.02,0.143-0.057,0.213-0.092l0.023-0.011c0.075-0.04,0.15-0.086,0.223-0.137
	l0.007-0.005c0.13-0.1,0.271-0.216,0.388-0.384l0.055-0.072c0.039-0.054,0.077-0.108,0.117-0.164
	c0.219-0.279,0.399-0.646,0.64-1.009l0.004-0.007c0.069-0.136,0.145-0.272,0.229-0.409c0.066-0.112,0.153-0.22,0.215-0.344
	l0.004-0.005l0.024-0.048c0.278-0.447,0.61-0.87,0.99-1.277c0.181-0.206,0.386-0.404,0.605-0.592c0.197-0.19,0.416-0.369,0.65-0.525
	c0.191-0.128,0.397-0.233,0.608-0.32C25.443,15.675,20.52,19.404,14.37,19.637z M20.51,10.763c-0.093-0.01-0.067-0.071,0.042-0.047
	c0.107,0.022,0.241,0.017,0.468,0.203c0.024,0.017,0.042,0.016,0.064,0.028c-0.092,0.025-0.184,0.048-0.278,0.063
	c0.01-0.01,0.031-0.016,0.033-0.027C20.845,10.923,20.818,10.832,20.51,10.763z M21.716,10.661c-0.073-0.042-0.188-0.07-0.323-0.076
	l0.346-0.039c0.038,0.002,0.083,0.012,0.123,0.017C21.816,10.6,21.764,10.628,21.716,10.661z M25.666,10.764
	c0,0.075-0.013,0.147-0.015,0.222c-0.576-0.234-1.056-0.644-1.511-1.073c-0.467-0.455-0.869-0.941-1.219-1.441
	c-0.045-0.066-0.089-0.135-0.129-0.206c-0.078-0.149-0.172-0.282-0.253-0.416c-0.068-0.11-0.128-0.217-0.187-0.325
	c-0.023-0.04-0.04-0.082-0.064-0.117c-0.046-0.073-0.092-0.144-0.136-0.214c-0.022-0.037-0.045-0.074-0.066-0.11
	c-0.049-0.084-0.096-0.165-0.142-0.243c-0.061-0.117-0.139-0.209-0.204-0.309l-0.036-0.049c-0.052-0.072-0.101-0.141-0.15-0.209
	l-0.05-0.067c-0.118-0.17-0.263-0.288-0.396-0.39c-0.078-0.055-0.159-0.104-0.243-0.146L20.83,5.654
	c-0.075-0.04-0.154-0.072-0.234-0.091c-0.116-0.033-0.228-0.06-0.326-0.074l-0.004,0.014l-0.002,0.015
	c0.024,0.077,0.017,0.164-0.034,0.234S20.1,5.86,20.021,5.867l-0.014,0.007l-0.012,0.007c0.046,0.085,0.103,0.176,0.164,0.267
	c0.045,0.059,0.09,0.124,0.134,0.19l0.021,0.03c0.051,0.069,0.105,0.135,0.165,0.196c0.103,0.107,0.25,0.19,0.389,0.306l0.06,0.045
	c0.061,0.044,0.123,0.088,0.188,0.135l0.046,0.033c0.085,0.064,0.187,0.121,0.269,0.203c0.063,0.056,0.125,0.113,0.191,0.172
	c0.026,0.026,0.056,0.054,0.086,0.082c0.055,0.055,0.11,0.11,0.167,0.167c0.03,0.028,0.053,0.062,0.077,0.095
	c0.068,0.091,0.137,0.185,0.201,0.286c0.081,0.123,0.163,0.25,0.211,0.4c0.027,0.07,0.051,0.142,0.072,0.212
	c0.154,0.503,0.053,1.049-0.219,1.462c-0.059,0.018-0.127,0.045-0.204,0.082c-0.109,0.059-0.208,0.089-0.304,0.116l-0.348,0.039
	c0.271-0.075,0.402-0.239,0.309-0.303c-0.114-0.086-0.311-0.024-0.369,0.023c0.017-0.061-0.065-0.088-0.13-0.092
	c-0.087-0.004-0.182,0.008-0.283,0.133c-0.154,0.229-0.284,0.253-0.379,0.298c-0.099,0.046-0.146-0.007-0.058-0.036
	c0.272-0.136,0.267-0.229,0.241-0.283c-0.028-0.055-0.169-0.074-0.255-0.028c0.025-0.11-0.017-0.179-0.172-0.195
	c-0.198-0.012-0.277,0.092-0.271,0.245c-0.098-0.079-0.267-0.012-0.252,0.13c0.02,0.207-0.042,0.226-0.108,0.294
	c-0.002,0.004-0.007,0.005-0.01,0.008l-0.091,0.01v0c0.137-0.13,0.103-0.254-0.003-0.269c-0.105-0.018-0.18,0.009-0.254,0.09
	c-0.064-0.084-0.265-0.055-0.23,0.084c0.003,0.064-0.009,0.112-0.027,0.152l-0.541,0.061c-0.057-0.017-0.109-0.045-0.152-0.089
	c-0.075-0.062-0.142-0.049-0.201-0.027c-0.047,0.017-0.103,0.053-0.09,0.09c-0.041-0.02-0.181-0.018-0.257,0.063
	c-0.014,0.014-0.007,0.028-0.007,0.042l-2.853,0.319l0.021,0.187l2.865-0.321c0.005,0.013,0.002,0.028,0.021,0.038
	c0.101,0.062,0.236,0.033,0.271,0.005c-0.002,0.038,0.064,0.061,0.114,0.067c0.065,0.008,0.133,0.005,0.185-0.071
	c0.026-0.052,0.067-0.09,0.115-0.119l0.541-0.061c0.033,0.034,0.061,0.078,0.079,0.14c0.016,0.142,0.218,0.125,0.25,0.03
	c0.1,0.063,0.181,0.072,0.275,0.032c0.095-0.037,0.087-0.164-0.089-0.259c0,0-0.001,0-0.002,0l0.092-0.01
	c0.004,0.002,0.009,0.002,0.014,0.005c0.086,0.051,0.151,0.056,0.205,0.259c0.033,0.139,0.218,0.167,0.286,0.069
	c0.044,0.148,0.155,0.231,0.343,0.176c0.145-0.049,0.161-0.125,0.098-0.225c0.069,0.017,0.139-0.006,0.187-0.039
	c0.222,0.035,0.433,0.091,0.625,0.176c0.217,0.096,0.415,0.225,0.589,0.388c0.154,0.161,0.278,0.352,0.375,0.568
	c0.176,0.426,0.178,0.942-0.014,1.393l-0.02,0.046l-0.003,0.005c-0.041,0.123-0.113,0.228-0.178,0.332
	c-0.082,0.127-0.169,0.244-0.253,0.355l-0.006,0.006c-0.283,0.298-0.553,0.543-0.826,0.719c-0.051,0.036-0.099,0.071-0.146,0.105
	l-0.063,0.048c-0.124,0.104-0.25,0.182-0.349,0.273c-0.053-0.019-0.106-0.038-0.178-0.057c-0.138-0.027-0.241-0.068-0.336-0.111
	l-0.27-0.183c0.26,0.126,0.518,0.094,0.514-0.008c0.004-0.125-0.185-0.203-0.268-0.205c0.066-0.031,0.039-0.099-0.002-0.14
	c-0.054-0.054-0.126-0.103-0.311-0.08c-0.315,0.061-0.426,0-0.532-0.027c-0.107-0.028-0.089-0.091-0.004-0.059
	c0.309,0.073,0.391,0.007,0.423-0.044c0.034-0.054-0.043-0.15-0.144-0.171c0.12-0.059,0.156-0.129,0.066-0.233
	c-0.121-0.126-0.271-0.104-0.406,0.001c0.006-0.11-0.168-0.167-0.288-0.063c-0.181,0.149-0.238,0.125-0.348,0.131
	c-0.011,0-0.019-0.001-0.028-0.002l-0.064-0.043c0.005,0,0.005-0.002,0.01-0.002c0.213-0.006,0.304-0.109,0.249-0.182
	c-0.055-0.074-0.13-0.102-0.254-0.092c0.034-0.093-0.125-0.194-0.232-0.081c-0.062,0.048-0.117,0.073-0.171,0.087l-0.404-0.274
	c-0.026-0.047-0.034-0.102-0.021-0.16c0.008-0.086-0.049-0.117-0.109-0.139c-0.046-0.016-0.116-0.025-0.141,0.007
	c-0.012-0.038-0.105-0.12-0.232-0.111c-0.025,0.001-0.037,0.016-0.051,0.028l-2.219-1.503l-0.015,0.021
	c-0.073-0.039-0.111-0.096-0.13-0.16c0.08-0.023,0.163-0.03,0.247,0l0.028-0.058l0.006-0.024L14.88,11.62l2.758,0.644
	c-0.003,0.015-0.013,0.028-0.001,0.043c0.062,0.09,0.197,0.108,0.243,0.093c-0.019,0.035,0.029,0.077,0.071,0.099
	c0.056,0.028,0.119,0.048,0.204-0.004c0.052-0.04,0.108-0.061,0.168-0.071l0.522,0.122c0.012,0.042,0.016,0.092,0.001,0.155
	c-0.06,0.134,0.133,0.186,0.211,0.11c0.058,0.089,0.129,0.124,0.235,0.118c0.106-0.002,0.163-0.121,0.051-0.265
	c-0.001-0.001,0-0.001-0.001-0.002l0.088,0.021c0.003,0.003,0.007,0.006,0.01,0.01c0.054,0.076,0.11,0.101,0.055,0.305
	c-0.04,0.138,0.114,0.223,0.227,0.158c-0.035,0.15,0.024,0.262,0.223,0.273c0.157,0.002,0.21-0.061,0.204-0.174
	c0.078,0.056,0.22,0.053,0.258,0.002c0.036-0.051,0.059-0.142-0.188-0.308c-0.081-0.039-0.025-0.086,0.063-0.03
	c0.086,0.056,0.211,0.096,0.322,0.34c0.078,0.136,0.17,0.158,0.255,0.164c0.065,0.004,0.151-0.014,0.146-0.076
	c0.049,0.054,0.231,0.137,0.36,0.065c0.105-0.053,0.003-0.231-0.252-0.336l0.334,0.078c0.092,0.038,0.186,0.08,0.282,0.152
	c0.155,0.098,0.282,0.161,0.339,0.129c0.045-0.021,0.023-0.072-0.002-0.093c0.038,0.031,0.164,0.092,0.218,0.051
	c0.085-0.065-0.042-0.129-0.183-0.176l-0.087-0.021l0.003-0.013l0.088,0.02c0.15,0.022,0.3,0.022,0.273-0.069
	c-0.018-0.058-0.166-0.061-0.219-0.051c0.036-0.006,0.087-0.04,0.064-0.077c-0.026-0.052-0.176-0.052-0.372-0.036
	c-0.131,0.019-0.238,0.014-0.341,0.007l-0.336-0.079c0.287,0.021,0.492-0.084,0.439-0.174c-0.061-0.117-0.271-0.125-0.348-0.101
	c0.045-0.05-0.016-0.103-0.072-0.127c-0.076-0.033-0.169-0.053-0.326,0.029c-0.257,0.158-0.388,0.138-0.498,0.147
	c-0.112,0.009-0.128-0.054-0.033-0.052c0.317-0.034,0.359-0.121,0.364-0.178c0.003-0.06-0.116-0.123-0.219-0.109
	c0.079-0.093,0.077-0.168-0.058-0.234c-0.175-0.076-0.3-0.007-0.37,0.134c-0.05-0.103-0.238-0.098-0.296,0.036
	c-0.089,0.195-0.154,0.192-0.25,0.233c-0.005,0.002-0.01,0.002-0.016,0.004l-0.085-0.02c0,0,0,0,0.001-0.001
	c0.19-0.073,0.223-0.198,0.135-0.246c-0.088-0.05-0.169-0.052-0.279-0.001c-0.015-0.098-0.211-0.137-0.251,0.001
	c-0.03,0.06-0.067,0.1-0.105,0.13l-0.521-0.122c-0.044-0.034-0.078-0.077-0.095-0.132c-0.036-0.08-0.104-0.09-0.169-0.091
	c-0.05,0-0.12,0.015-0.127,0.053c-0.028-0.032-0.156-0.075-0.268-0.026c-0.02,0.008-0.021,0.023-0.026,0.037l-2.781-0.649
	l-0.007,0.031c-0.091-0.012-0.156-0.054-0.208-0.108c0.061-0.049,0.135-0.083,0.228-0.083l-0.006-0.062l-0.016-0.062
	c-0.089,0.021-0.171,0.004-0.245-0.029c0.03-0.062,0.079-0.114,0.159-0.144l0.012,0.024l2.468-1.229
	c0.011,0.013,0.019,0.028,0.041,0.032c0.125,0.023,0.233-0.047,0.25-0.083c0.02,0.035,0.091,0.035,0.139,0.023
	c0.063-0.014,0.125-0.039,0.134-0.125c-0.002-0.058,0.016-0.109,0.048-0.152l0.455-0.227c0.048,0.021,0.099,0.051,0.149,0.104
	c0.086,0.125,0.263,0.044,0.243-0.053c0.123,0.025,0.201,0.005,0.269-0.062c0.069-0.065-0.004-0.178-0.213-0.208
	c-0.004,0-0.003-0.002-0.007-0.002l0.073-0.036c0.009,0,0.017-0.001,0.025,0c0.106,0.018,0.167,0.001,0.319,0.17
	c0.1,0.116,0.283,0.081,0.297-0.03c0.115,0.121,0.259,0.161,0.401,0.049c0.107-0.092,0.085-0.166-0.023-0.238
	c0.104-0.009,0.197-0.095,0.173-0.153c-0.022-0.055-0.092-0.129-0.409-0.092c-0.091,0.021-0.098-0.042,0.015-0.058
	c0.109-0.013,0.228-0.062,0.529,0.035c0.178,0.045,0.261,0.004,0.323-0.043c0.047-0.036,0.088-0.099,0.026-0.137
	c0.084,0.007,0.284-0.047,0.303-0.171c0.021-0.101-0.221-0.16-0.496-0.071l0.298-0.149c0.099-0.031,0.206-0.059,0.344-0.07
	c0.194-0.026,0.338-0.059,0.346-0.115c0.01-0.041-0.051-0.062-0.087-0.061c0.054-0.002,0.195-0.037,0.192-0.097
	c-0.004-0.094-0.149-0.061-0.285-0.009l-0.08,0.039l-0.006-0.01l0.076-0.039c0.12-0.075,0.221-0.165,0.118-0.208
	c-0.066-0.029-0.168,0.057-0.194,0.095c0.019-0.026,0.021-0.079-0.028-0.09c-0.065-0.019-0.167,0.07-0.281,0.198
	c-0.073,0.094-0.152,0.158-0.231,0.216l-0.298,0.149c0.221-0.158,0.262-0.359,0.142-0.388c-0.148-0.042-0.298,0.079-0.326,0.141
	c-0.017-0.061-0.104-0.06-0.166-0.042c-0.081,0.024-0.162,0.065-0.191,0.214c-0.024,0.258-0.132,0.323-0.196,0.396
	c-0.065,0.074-0.135,0.041-0.07-0.015c0.182-0.212,0.13-0.294,0.077-0.336c-0.052-0.041-0.19-0.013-0.246,0.058
	c-0.033-0.111-0.105-0.159-0.256-0.123c-0.188,0.053-0.208,0.174-0.124,0.311c-0.129-0.039-0.25,0.077-0.164,0.201
	c0.122,0.184,0.075,0.221,0.05,0.305c-0.003,0.011-0.011,0.011-0.016,0.02L18.7,8.871c0.001-0.003-0.004,0-0.003-0.004
	c0.061-0.164-0.034-0.265-0.137-0.245c-0.105,0.019-0.162,0.067-0.188,0.165c-0.101-0.056-0.269,0.035-0.166,0.152
	c0.036,0.06,0.048,0.109,0.05,0.153L17.8,9.32c-0.062,0.003-0.126-0.005-0.19-0.033c-0.1-0.033-0.154,0.001-0.197,0.04
	c-0.033,0.03-0.066,0.082-0.036,0.11c-0.048-0.004-0.175,0.043-0.204,0.143c-0.005,0.019,0.009,0.03,0.018,0.044l-2.435,1.212
	l0.045,0.089l-0.003-0.005l-0.046-0.05c-0.071,0.047-0.153,0.059-0.238,0.053c-0.004-0.065,0.015-0.127,0.071-0.18l0.017,0.014
	l1.636-1.924c0.018,0.011,0.035,0.023,0.063,0.018c0.125-0.019,0.189-0.119,0.187-0.157c0.035,0.026,0.101,0.002,0.139-0.023
	c0.051-0.033,0.095-0.075,0.06-0.157c-0.037-0.063-0.039-0.124-0.022-0.182l0.279-0.328c0.057,0.001,0.122,0.012,0.2,0.046
	c0.142,0.086,0.262-0.044,0.196-0.127c0.124-0.017,0.187-0.06,0.214-0.143c0.03-0.083-0.092-0.161-0.299-0.122
	c-0.014,0.003-0.006-0.005-0.014-0.005l0.034-0.039c0.016-0.007,0.021-0.016,0.044-0.02c0.105-0.017,0.153-0.052,0.378,0.053
	c0.149,0.074,0.3-0.019,0.256-0.124c0.167,0.074,0.318,0.062,0.393-0.085c0.052-0.119-0.007-0.18-0.143-0.21
	c0.092-0.042,0.132-0.151,0.084-0.196c-0.051-0.043-0.151-0.088-0.423,0.048c-0.072,0.049-0.111-0.008-0.017-0.058
	c0.094-0.048,0.179-0.131,0.502-0.14c0.187-0.018,0.24-0.081,0.274-0.145c0.024-0.048,0.029-0.119-0.046-0.134
	c0.079-0.021,0.236-0.134,0.19-0.255c-0.032-0.102-0.303-0.076-0.513,0.113c0.005-0.01,0.019-0.02,0.023-0.03l0.174-0.204
	c0.077-0.066,0.171-0.131,0.302-0.19c0.165-0.086,0.28-0.164,0.26-0.217C19,5.78,18.934,5.78,18.9,5.794
	c0.05-0.02,0.161-0.097,0.128-0.151c-0.052-0.084-0.167-0.008-0.266,0.084l-0.054,0.061l-0.01-0.008l0.05-0.06
	c0.071-0.108,0.118-0.221,0.002-0.229c-0.075-0.005-0.124,0.107-0.128,0.15c0.002-0.029-0.021-0.079-0.072-0.074
	c-0.07,0.005-0.117,0.119-0.158,0.274c-0.021,0.119-0.063,0.212-0.111,0.294l-0.185,0.217c-0.005,0.004-0.009,0.011-0.014,0.016
	c0.142-0.226,0.073-0.438-0.058-0.424c-0.155,0.009-0.231,0.168-0.227,0.234c-0.044-0.05-0.125-0.021-0.173,0.016
	c-0.061,0.048-0.114,0.112-0.067,0.256c0.108,0.245,0.043,0.339,0.021,0.426c-0.023,0.089-0.104,0.081-0.072,0.009
	c0.06-0.253-0.031-0.312-0.099-0.333c-0.07-0.021-0.18,0.05-0.196,0.133c-0.086-0.09-0.177-0.111-0.296-0.03
	c-0.145,0.11-0.102,0.227,0.044,0.324c-0.137,0.007-0.189,0.151-0.049,0.237c0.203,0.129,0.18,0.178,0.198,0.263
	c0.004,0.019-0.005,0.026-0.006,0.041l-0.033,0.039c-0.004-0.005-0.011,0.004-0.013-0.008c-0.028-0.168-0.166-0.231-0.25-0.179
	c-0.086,0.05-0.112,0.114-0.087,0.211c-0.12-0.019-0.229,0.119-0.076,0.193c0.068,0.046,0.104,0.091,0.126,0.133L16.493,8.24
	c-0.061,0.034-0.132,0.055-0.218,0.05c-0.108,0.003-0.141,0.052-0.161,0.102c-0.016,0.037-0.021,0.096,0.023,0.112
	C16.092,8.516,16,8.6,16.023,8.701c0.005,0.022,0.025,0.031,0.044,0.04l-1.61,1.895l0.077,0.066l-0.007-0.005l-0.066-0.031
	c-0.04,0.066-0.11,0.104-0.191,0.126c-0.039-0.062-0.057-0.127-0.027-0.198l0.016,0.004l0.514-2.282
	c0.024,0.007,0.05,0.011,0.075-0.004c0.104-0.058,0.112-0.169,0.09-0.205c0.045,0.013,0.093-0.031,0.114-0.066
	c0.03-0.047,0.049-0.1-0.025-0.163c-0.08-0.055-0.107-0.125-0.11-0.199l0.078-0.347c0.054-0.02,0.12-0.033,0.216-0.027
	c0.173,0.033,0.216-0.126,0.114-0.181c0.104-0.055,0.14-0.115,0.123-0.2c-0.016-0.085-0.168-0.117-0.335-0.013
	c-0.018,0.012-0.015,0-0.023-0.001l0.009-0.035c0.012-0.015,0.016-0.029,0.04-0.043c0.088-0.051,0.113-0.099,0.371-0.075
	c0.176,0.018,0.264-0.115,0.172-0.197c0.188,0.013,0.321-0.047,0.314-0.207c-0.013-0.126-0.097-0.162-0.235-0.146
	c0.062-0.067,0.043-0.181-0.024-0.206c-0.067-0.023-0.183-0.032-0.361,0.182c-0.041,0.069-0.105,0.029-0.043-0.047
	c0.061-0.074,0.095-0.178,0.387-0.293c0.16-0.076,0.179-0.152,0.176-0.22c-0.001-0.053-0.033-0.12-0.108-0.109
	c0.063-0.045,0.146-0.2,0.044-0.295c-0.081-0.082-0.315,0.03-0.411,0.271c-0.001-0.018,0.003-0.039,0.004-0.058l0.046-0.205
	c0.037-0.09,0.096-0.187,0.19-0.288c0.106-0.134,0.171-0.242,0.126-0.284c-0.032-0.034-0.091-0.012-0.115,0.011
	c0.035-0.034,0.098-0.141,0.041-0.18c-0.09-0.06-0.157,0.048-0.2,0.165l-0.017,0.073l-0.016-0.004l0.016-0.072
	c0.011-0.116-0.005-0.227-0.103-0.209c0.334-0.109,0.693-0.148,1.052-0.094l0.051,0.007l0.006,0.001
	c0.129,0.021,0.253,0.055,0.373,0.088c0.147,0.042,0.285,0.092,0.421,0.142l0.007,0.003c0.378,0.17,0.702,0.356,0.972,0.54
	c0.052,0.035,0.102,0.069,0.15,0.103l0.068,0.045c0.151,0.102,0.299,0.172,0.431,0.239l0.006,0.003
	c0.073,0.033,0.146,0.061,0.222,0.083l0.023,0.004c0.068,0.021,0.14,0.038,0.209,0.05c0.128,0.027,0.259,0.034,0.366,0.053
	c0.001-0.011,0.003-0.02,0.004-0.03c-0.021-0.078-0.02-0.164,0.027-0.238c0.047-0.075,0.123-0.115,0.202-0.119l0.025-0.016
	c-0.058-0.107-0.142-0.206-0.233-0.309c-0.051-0.055-0.107-0.111-0.166-0.164l-0.017-0.018c-0.065-0.056-0.134-0.111-0.206-0.161
	c-0.004-0.002-0.006-0.003-0.007-0.004c-0.136-0.093-0.312-0.146-0.499-0.208l-0.085-0.027c-0.063-0.018-0.125-0.035-0.191-0.054
	c-0.338-0.091-0.733-0.148-1.152-0.254L17.44,4.107c-0.148-0.028-0.297-0.06-0.451-0.101c-0.125-0.032-0.252-0.078-0.382-0.117
	l-0.006-0.001l-0.053-0.013C15.57,3.565,14.646,2.908,14.078,2c-0.023-0.039-0.035-0.083-0.057-0.123
	C20.465,1.981,25.666,5.923,25.666,10.764z M1.888,11.053c0.575,0.234,1.052,0.642,1.505,1.07c0.469,0.455,0.87,0.941,1.219,1.441
	c0.045,0.067,0.09,0.136,0.13,0.206c0.078,0.149,0.171,0.281,0.253,0.416c0.061,0.098,0.114,0.194,0.168,0.291l0.068,0.098
	l0.052,0.112c0.032,0.052,0.067,0.104,0.099,0.155c0.022,0.037,0.045,0.074,0.066,0.11c0.049,0.084,0.096,0.165,0.142,0.243
	c0.06,0.116,0.139,0.209,0.204,0.309l0.035,0.049c0.052,0.073,0.102,0.142,0.151,0.21l0.051,0.067
	c0.117,0.17,0.262,0.288,0.394,0.389c0.079,0.055,0.161,0.104,0.244,0.146l0.035,0.018c0.076,0.04,0.154,0.072,0.236,0.091
	c0.115,0.033,0.227,0.06,0.326,0.074l0.002-0.014l0.004-0.015c-0.025-0.077-0.018-0.163,0.033-0.234
	c0.051-0.071,0.129-0.108,0.208-0.115l0.013-0.008l0.013-0.007c-0.046-0.085-0.103-0.176-0.165-0.267
	c-0.044-0.059-0.089-0.123-0.133-0.19l-0.021-0.029c-0.05-0.069-0.104-0.136-0.164-0.196c-0.102-0.108-0.25-0.191-0.389-0.306
	l-0.06-0.045c-0.061-0.044-0.123-0.088-0.188-0.134l-0.047-0.034c-0.085-0.063-0.186-0.122-0.268-0.202
	c-0.063-0.056-0.125-0.114-0.191-0.173c-0.026-0.026-0.057-0.054-0.085-0.082c-0.056-0.055-0.111-0.111-0.168-0.167
	c-0.03-0.028-0.053-0.062-0.077-0.095c-0.069-0.091-0.137-0.184-0.201-0.286c-0.081-0.123-0.163-0.25-0.211-0.4
	c-0.027-0.07-0.052-0.142-0.071-0.213c-0.166-0.537-0.048-1.128,0.268-1.548c0.197-0.274,0.489-0.471,0.819-0.604
	c0.002,0.006-0.003,0.012,0.002,0.017c0.088,0.104,0.297,0.078,0.366,0.04c-0.032,0.057,0.041,0.098,0.104,0.113
	c0.082,0.019,0.178,0.024,0.311-0.082c0.211-0.197,0.346-0.2,0.45-0.228c0.107-0.027,0.139,0.032,0.046,0.046
	c-0.302,0.085-0.321,0.177-0.311,0.234c0.013,0.06,0.145,0.102,0.242,0.071c-0.056,0.104-0.033,0.178,0.115,0.22
	c0.19,0.046,0.296-0.042,0.328-0.192c0.075,0.093,0.259,0.056,0.28-0.084c0.037-0.206,0.102-0.214,0.186-0.269
	c0.004-0.003,0.008-0.003,0.012-0.006l0.09,0.006l0,0c-0.168,0.104-0.167,0.23-0.068,0.263c0.099,0.035,0.18,0.022,0.272-0.044
	c0.04,0.092,0.243,0.099,0.247-0.044c0.013-0.063,0.038-0.108,0.067-0.144l0.545,0.033c0.05,0.027,0.094,0.062,0.123,0.113
	c0.058,0.072,0.127,0.071,0.19,0.06c0.049-0.008,0.113-0.035,0.11-0.072c0.035,0.026,0.173,0.048,0.269-0.019
	c0.017-0.011,0.013-0.025,0.017-0.039l2.879,0.176l0.013-0.187l-2.875-0.176c0-0.014,0.007-0.029-0.009-0.042
	c-0.082-0.077-0.221-0.072-0.262-0.051c0.011-0.037-0.047-0.07-0.096-0.085c-0.061-0.018-0.128-0.028-0.197,0.037
	c-0.04,0.047-0.09,0.077-0.145,0.097l-0.545-0.033c-0.022-0.039-0.039-0.087-0.04-0.151c0.023-0.141-0.179-0.159-0.235-0.072
	c-0.08-0.078-0.158-0.1-0.261-0.078c-0.103,0.021-0.128,0.146,0.019,0.269v0l-0.092-0.006c-0.003-0.002-0.006-0.003-0.01-0.007
	c-0.072-0.065-0.135-0.08-0.132-0.289c0.004-0.143-0.17-0.199-0.262-0.117c-0.004-0.152-0.091-0.252-0.288-0.23
	c-0.153,0.024-0.189,0.095-0.155,0.204c-0.091-0.042-0.229-0.017-0.253,0.041c-0.022,0.055-0.021,0.148,0.263,0.27
	c0.089,0.025,0.048,0.08-0.053,0.04c-0.101-0.041-0.231-0.059-0.402-0.279c-0.111-0.12-0.207-0.127-0.292-0.119
	c-0.066,0.007-0.145,0.039-0.124,0.099c-0.062-0.045-0.263-0.096-0.37-0.005c-0.089,0.069,0.057,0.226,0.331,0.287L6.238,10.75
	c-0.098-0.022-0.199-0.047-0.312-0.102c-0.069-0.028-0.126-0.045-0.182-0.061c-0.069-0.05-0.15-0.081-0.214-0.14
	c-0.154-0.16-0.277-0.352-0.374-0.567C4.981,9.454,4.979,8.938,5.171,8.488L5.19,8.44l0.003-0.005
	c0.041-0.123,0.114-0.228,0.178-0.332C5.453,7.976,5.539,7.86,5.623,7.748L5.63,7.742c0.282-0.298,0.553-0.543,0.827-0.718
	c0.049-0.037,0.098-0.071,0.145-0.105L6.667,6.87c0.135-0.115,0.28-0.196,0.382-0.301l0.006-0.004
	c0.055-0.057,0.107-0.117,0.154-0.179l0.012-0.02C7.263,6.306,7.305,6.247,7.344,6.19c0.076-0.103,0.141-0.21,0.194-0.31
	c-0.009-0.005-0.017-0.01-0.025-0.015C7.434,5.859,7.355,5.823,7.305,5.751C7.254,5.681,7.246,5.595,7.271,5.518
	c-0.002-0.01-0.004-0.019-0.005-0.03C7.15,5.506,7.02,5.536,6.884,5.578C6.809,5.598,6.741,5.635,6.671,5.67L6.647,5.681
	C6.571,5.721,6.496,5.767,6.425,5.817L6.418,5.823c-0.13,0.1-0.271,0.216-0.388,0.384L5.976,6.279
	C5.938,6.332,5.898,6.386,5.858,6.443C5.641,6.722,5.46,7.088,5.219,7.452L5.215,7.459C5.146,7.595,5.071,7.731,4.985,7.868
	C4.918,7.98,4.832,8.087,4.771,8.211L4.768,8.217L4.742,8.266c-0.278,0.447-0.61,0.869-0.99,1.276
	c-0.181,0.206-0.386,0.404-0.604,0.592c-0.198,0.19-0.417,0.369-0.651,0.525c-0.193,0.129-0.4,0.236-0.613,0.323
	c-0.003-0.073-0.015-0.145-0.015-0.218c0-4.843,5.206-8.787,11.653-8.886c-0.203,0.365-0.467,0.693-0.771,0.963
	c-0.451,0.434-0.979,0.74-1.537,0.961c-0.074,0.026-0.15,0.052-0.227,0.073c-0.16,0.042-0.311,0.1-0.461,0.135
	c-0.123,0.033-0.241,0.059-0.358,0.084c-0.046,0.008-0.088,0.015-0.13,0.023c-0.084,0.02-0.165,0.04-0.244,0.058
	C9.751,4.184,9.709,4.193,9.67,4.203C9.575,4.222,9.486,4.24,9.397,4.259C9.274,4.284,9.15,4.301,9.039,4.332L8.982,4.349
	C8.897,4.373,8.817,4.396,8.738,4.418L8.659,4.442C8.467,4.505,8.288,4.559,8.152,4.654C8.074,4.709,8,4.768,7.931,4.831
	L7.901,4.858C7.839,4.917,7.779,4.978,7.728,5.039C7.65,5.128,7.578,5.213,7.529,5.306l0.013,0.008l0.013,0.008
	C7.634,5.326,7.71,5.366,7.758,5.44c0.045,0.074,0.049,0.161,0.026,0.239l0.003,0.015l0.002,0.014
	c0.094-0.013,0.2-0.028,0.313-0.043c0.074-0.013,0.152-0.03,0.229-0.05l0.035-0.009c0.082-0.023,0.163-0.051,0.242-0.087
	C8.741,5.452,8.892,5.38,9.045,5.276l0.063-0.042C9.172,5.19,9.236,5.147,9.303,5.101l0.048-0.032
	c0.089-0.063,0.188-0.115,0.291-0.175c0.073-0.042,0.15-0.084,0.229-0.128c0.034-0.019,0.069-0.038,0.106-0.057
	c0.069-0.036,0.141-0.075,0.216-0.104c0.038-0.015,0.076-0.032,0.116-0.044c0.108-0.04,0.219-0.078,0.337-0.112
	c0.143-0.038,0.289-0.087,0.448-0.102c0.076-0.009,0.152-0.015,0.229-0.017c0.572-0.036,1.145,0.175,1.578,0.509
	c0.44,0.367,0.743,0.861,0.867,1.443c0.05-0.232,0.128-0.452,0.232-0.653c0.276-0.563,0.785-0.986,1.375-1.184
	c-0.065,0.024-0.057,0.135-0.038,0.175c-0.013-0.028-0.059-0.066-0.104-0.043c-0.06,0.026-0.046,0.146-0.004,0.301
	C15.272,5,15.286,5.106,15.28,5.201l-0.016,0.073c-0.013,0.067-0.024,0.133-0.051,0.187c0.016-0.253-0.155-0.424-0.268-0.369
	c-0.137,0.06-0.126,0.229-0.087,0.288c-0.066-0.03-0.126,0.022-0.15,0.071c-0.032,0.064-0.048,0.14,0.07,0.256
	c0.222,0.188,0.209,0.296,0.234,0.384c0.023,0.088-0.054,0.106-0.062,0.031c-0.074-0.25-0.187-0.275-0.259-0.272
	c-0.074,0.004-0.139,0.105-0.112,0.186c-0.124-0.054-0.218-0.044-0.285,0.07c-0.075,0.147,0.022,0.24,0.205,0.281
	c-0.122,0.051-0.097,0.201,0.075,0.233c0.252,0.05,0.254,0.103,0.314,0.175c0.018,0.02,0.015,0.034,0.02,0.052l-0.008,0.035
	c-0.007-0.001-0.011,0.011-0.022-0.004c-0.11-0.146-0.267-0.158-0.318-0.083c-0.053,0.075-0.046,0.141,0.027,0.222
	c-0.118,0.023-0.147,0.185,0.028,0.202c0.092,0.021,0.147,0.053,0.189,0.086l-0.077,0.348c-0.034,0.068-0.091,0.126-0.191,0.155
	c-0.096,0.038-0.101,0.093-0.095,0.145c0.007,0.04,0.031,0.094,0.079,0.095c-0.036,0.025-0.077,0.132-0.004,0.216
	c0.017,0.021,0.041,0.025,0.067,0.025l-0.511,2.268l0.117,0.026l-0.025-0.005l-0.078-0.007c-0.004,0.074-0.048,0.131-0.11,0.178
	c-0.066-0.044-0.116-0.099-0.126-0.172l-0.077,0.011l-0.025,0.007l0.115-0.036l-0.684-2.237c0.025-0.001,0.05-0.006,0.064-0.028
	c0.066-0.088,0.017-0.192-0.021-0.217c0.047-0.003,0.067-0.059,0.07-0.099c0.003-0.052-0.007-0.106-0.106-0.14
	c-0.1-0.023-0.16-0.077-0.199-0.141l-0.106-0.348c0.04-0.035,0.093-0.069,0.183-0.095c0.174-0.026,0.134-0.186,0.012-0.202
	c0.068-0.086,0.069-0.152,0.011-0.224c-0.057-0.072-0.213-0.053-0.313,0.098c-0.009,0.015-0.013,0.003-0.021,0.005l-0.011-0.036
	c0.004-0.017,0-0.031,0.015-0.051c0.054-0.074,0.054-0.127,0.302-0.19c0.168-0.041,0.183-0.191,0.056-0.236
	c0.18-0.051,0.271-0.148,0.184-0.292c-0.076-0.11-0.171-0.116-0.29-0.056c0.021-0.081-0.052-0.179-0.127-0.18
	c-0.071,0-0.181,0.03-0.236,0.285c-0.003,0.075-0.081,0.061-0.064-0.029c0.018-0.088-0.002-0.194,0.205-0.394
	c0.108-0.123,0.085-0.198,0.05-0.26c-0.029-0.048-0.092-0.099-0.156-0.063c0.035-0.061,0.032-0.231-0.109-0.284
	c-0.115-0.049-0.272,0.13-0.238,0.382c-0.028-0.049-0.043-0.112-0.061-0.173l-0.025-0.083c-0.012-0.095-0.008-0.202,0.027-0.327
	c0.028-0.156,0.033-0.276-0.029-0.3c-0.046-0.021-0.089,0.02-0.1,0.047c0.015-0.041,0.017-0.16-0.055-0.177
	c-0.112-0.026-0.119,0.094-0.099,0.216l0.021,0.071l-0.014,0.004l-0.023-0.072c-0.053-0.115-0.127-0.22-0.212-0.154
	c-0.055,0.042,0.017,0.146,0.055,0.177c-0.025-0.022-0.089-0.041-0.117-0.006c-0.042,0.045,0.032,0.149,0.148,0.278
	c0.1,0.095,0.166,0.187,0.21,0.273l0.065,0.216c0.003,0.017,0.007,0.034,0.007,0.049c-0.114-0.236-0.356-0.337-0.431-0.25
	c-0.095,0.1,0.001,0.25,0.066,0.292c-0.077-0.007-0.103,0.061-0.102,0.113c0.004,0.069,0.028,0.144,0.194,0.212
	c0.299,0.101,0.343,0.201,0.409,0.273c0.067,0.073,0.006,0.115-0.039,0.049c-0.195-0.205-0.312-0.19-0.375-0.164
	c-0.065,0.028-0.074,0.142-0.009,0.207c-0.14-0.009-0.222,0.031-0.225,0.157c0.006,0.159,0.143,0.212,0.33,0.19
	c-0.086,0.086,0.013,0.215,0.188,0.188c0.256-0.036,0.284,0.011,0.377,0.057c0.023,0.013,0.027,0.025,0.041,0.039l0.012,0.037
	c-0.008,0-0.004,0.013-0.021,0.002C12.374,6.875,12.225,6.915,12.217,7c-0.011,0.085,0.029,0.144,0.139,0.194
	c-0.1,0.06-0.043,0.217,0.127,0.175c0.094-0.011,0.16,0,0.216,0.016l0.107,0.35c0.001,0.071-0.021,0.14-0.097,0.198
	c-0.068,0.066-0.046,0.118-0.013,0.164c0.025,0.035,0.075,0.076,0.12,0.062c-0.021,0.035-0.003,0.146,0.105,0.199
	c0.025,0.013,0.051,0.009,0.074,0l0.69,2.256l0.016-0.005c0.033,0.069,0.021,0.136-0.013,0.199
	c-0.083-0.019-0.155-0.052-0.201-0.116l-0.064,0.035l-0.006,0.004l0.071-0.07l-1.758-1.808c0.019-0.01,0.038-0.02,0.04-0.042
	c0.017-0.101-0.082-0.181-0.129-0.19c0.041-0.019,0.032-0.076,0.014-0.114c-0.022-0.048-0.061-0.095-0.168-0.093
	c-0.082,0.01-0.153-0.005-0.215-0.033l-0.311-0.32c0.02-0.043,0.051-0.089,0.115-0.139c0.147-0.081,0.027-0.213-0.091-0.188
	c0.018-0.099-0.015-0.161-0.104-0.207c-0.089-0.047-0.221,0.022-0.235,0.192c-0.001,0.011-0.007,0.002-0.01,0.008l-0.037-0.038
	c-0.003-0.014-0.012-0.021-0.009-0.039c0.011-0.086-0.018-0.133,0.176-0.272c0.134-0.093,0.07-0.235-0.067-0.235
	c0.138-0.104,0.171-0.223,0.017-0.325c-0.125-0.076-0.215-0.05-0.291,0.044c-0.023-0.082-0.139-0.147-0.208-0.123
	c-0.065,0.024-0.15,0.088-0.071,0.337c0.036,0.069-0.042,0.082-0.074-0.005c-0.027-0.086-0.1-0.177-0.013-0.427
	c0.037-0.147-0.021-0.208-0.087-0.253c-0.05-0.034-0.133-0.06-0.174-0.006c0-0.067-0.088-0.221-0.244-0.223
	C9.424,6.155,9.373,6.371,9.53,6.588L9.313,6.364C9.259,6.286,9.21,6.195,9.181,6.079c-0.054-0.152-0.109-0.263-0.18-0.264
	C8.95,5.811,8.93,5.862,8.936,5.891c-0.009-0.043-0.066-0.152-0.14-0.145C8.68,5.76,8.736,5.871,8.814,5.975l0.055,0.058L8.86,6.042
	L8.802,5.983C8.696,5.896,8.575,5.825,8.53,5.913C8.502,5.968,8.619,6.041,8.67,6.057C8.635,6.045,8.57,6.048,8.562,6.09
	C8.546,6.144,8.666,6.215,8.838,6.293C8.971,6.344,9.067,6.404,9.15,6.465L9.369,6.69C9.144,6.514,8.872,6.501,8.849,6.605
	C8.813,6.727,8.979,6.833,9.058,6.85C8.983,6.868,8.995,6.939,9.023,6.987c0.039,0.061,0.099,0.122,0.285,0.128
	C9.633,7.108,9.725,7.187,9.821,7.23C9.919,7.274,9.885,7.334,9.81,7.288C9.527,7.166,9.43,7.216,9.384,7.262
	C9.338,7.309,9.39,7.416,9.482,7.453c-0.133,0.038-0.187,0.1-0.125,0.216c0.085,0.144,0.238,0.146,0.397,0.065
	c-0.033,0.106,0.122,0.191,0.267,0.109c0.215-0.116,0.266-0.083,0.373-0.072c0.014,0.001,0.023,0.005,0.035,0.008l0.05,0.052
	c-0.006,0-0.008,0.002-0.017,0c-0.209-0.03-0.324,0.056-0.289,0.136c0.033,0.082,0.1,0.122,0.225,0.131
	c-0.059,0.087,0.073,0.211,0.206,0.118c0.076-0.039,0.139-0.052,0.195-0.057l0.312,0.32c0.019,0.055,0.019,0.114-0.013,0.175
	C11.07,8.74,11.117,8.78,11.17,8.811c0.04,0.023,0.108,0.044,0.141,0.016c0,0.039,0.072,0.135,0.198,0.147
	c0.027,0.003,0.044-0.009,0.061-0.021l1.786,1.837l0.016-0.015c0.061,0.05,0.083,0.111,0.086,0.177
	c-0.085,0.01-0.168,0.002-0.242-0.042l-0.04,0.053l-0.006,0.01l0.041-0.096l-2.524-1.086c0.008-0.014,0.021-0.026,0.014-0.044
	c-0.037-0.098-0.166-0.138-0.215-0.131c0.029-0.031-0.008-0.08-0.043-0.108c-0.046-0.037-0.104-0.067-0.201-0.03
	c-0.061,0.031-0.124,0.043-0.186,0.043L9.58,9.315C9.578,9.271,9.587,9.221,9.619,9.16c0.092-0.122-0.083-0.205-0.18-0.143
	C9.406,8.92,9.347,8.875,9.24,8.862C9.135,8.847,9.051,8.953,9.121,9.113c0.002,0.003-0.003,0-0.002,0.003L9.051,9.087
	C9.046,9.079,9.039,9.079,9.035,9.069C9.002,8.986,8.953,8.952,9.06,8.763c0.075-0.128-0.053-0.237-0.18-0.192
	c0.073-0.14,0.044-0.261-0.147-0.304C8.58,8.238,8.512,8.291,8.488,8.402C8.426,8.335,8.286,8.313,8.236,8.357
	C8.188,8.401,8.143,8.487,8.341,8.69c0.068,0.051,0.002,0.088-0.069,0.018C8.201,8.639,8.09,8.58,8.045,8.322
	C8.004,8.176,7.919,8.139,7.837,8.12c-0.063-0.015-0.152-0.012-0.162,0.05C7.642,8.108,7.482,7.997,7.339,8.045
	C7.221,8.08,7.277,8.277,7.508,8.423L7.197,8.29C7.115,8.237,7.033,8.178,6.954,8.089C6.829,7.967,6.722,7.884,6.657,7.905
	C6.608,7.919,6.615,7.972,6.636,7.997c-0.029-0.037-0.138-0.118-0.2-0.085C6.335,7.96,6.443,8.044,6.568,8.114l0.079,0.035
	L6.643,8.16L6.562,8.125C6.419,8.08,6.272,8.054,6.275,8.148c0.004,0.061,0.146,0.088,0.201,0.087C6.439,8.236,6.38,8.26,6.394,8.3
	c0.013,0.055,0.159,0.08,0.354,0.097C6.885,8.4,6.992,8.423,7.092,8.449l0.31,0.133C7.122,8.509,6.887,8.58,6.916,8.678
	c0.029,0.124,0.232,0.167,0.315,0.156C7.172,8.875,7.218,8.937,7.268,8.97C7.334,9.015,7.42,9.051,7.594,8.996
	c0.293-0.112,0.415-0.07,0.526-0.062c0.112,0.01,0.11,0.074,0.019,0.056c-0.319-0.02-0.383,0.058-0.402,0.115
	C7.718,9.163,7.818,9.244,7.922,9.248C7.82,9.326,7.803,9.4,7.917,9.487C8.068,9.59,8.209,9.544,8.313,9.418
	c0.022,0.109,0.208,0.136,0.3,0.014c0.137-0.177,0.2-0.163,0.304-0.187c0.009-0.001,0.015,0,0.021-0.002l0.077,0.033
	C9.014,9.277,9.015,9.278,9.012,9.279c-0.206,0.04-0.27,0.156-0.196,0.218c0.072,0.064,0.152,0.079,0.272,0.047
	C9.078,9.642,9.26,9.713,9.335,9.584C9.38,9.53,9.427,9.496,9.474,9.473l0.476,0.205c0.034,0.041,0.056,0.09,0.059,0.147
	c0.014,0.085,0.077,0.107,0.141,0.117c0.05,0.009,0.122,0.006,0.138-0.03c0.02,0.035,0.134,0.1,0.256,0.069
	c0.021-0.005,0.028-0.02,0.038-0.033l2.557,1.1l0.011-0.027c0.083,0.026,0.136,0.076,0.171,0.136
	c-0.072,0.037-0.151,0.057-0.241,0.042l-0.011,0.061l-0.002,0.063c0.093-0.004,0.168,0.025,0.232,0.071
	c-0.047,0.058-0.109,0.103-0.199,0.118l-0.008-0.029l-2.73,0.79c-0.008-0.013-0.01-0.028-0.029-0.036
	c-0.116-0.044-0.241,0.006-0.268,0.039c-0.009-0.037-0.079-0.048-0.129-0.045c-0.065,0.003-0.133,0.017-0.162,0.099
	c-0.013,0.056-0.045,0.101-0.085,0.138l-0.511,0.147c-0.041-0.028-0.08-0.067-0.115-0.126c-0.052-0.135-0.245-0.086-0.253,0.012
	c-0.111-0.044-0.194-0.039-0.278,0.015c-0.083,0.053-0.043,0.176,0.154,0.24c0.002,0,0.001,0.001,0.003,0.001l-0.085,0.024
	c-0.006-0.001-0.011-0.001-0.017-0.003c-0.099-0.036-0.164-0.029-0.268-0.22c-0.069-0.131-0.258-0.126-0.299-0.021
	c-0.081-0.139-0.212-0.201-0.381-0.116c-0.129,0.073-0.126,0.148-0.038,0.237c-0.104-0.008-0.217,0.061-0.21,0.12
	c0.008,0.058,0.057,0.143,0.377,0.16c0.095-0.006,0.084,0.058-0.028,0.054c-0.111-0.004-0.241,0.021-0.51-0.123
	c-0.163-0.073-0.254-0.048-0.328-0.012c-0.055,0.027-0.112,0.083-0.063,0.131c-0.079-0.021-0.288-0.001-0.341,0.117
	c-0.045,0.092,0.17,0.188,0.454,0.153l-0.328,0.095c-0.102,0.013-0.21,0.023-0.343,0.01c-0.196-0.007-0.347,0.002-0.368,0.055
	c-0.021,0.038,0.033,0.069,0.069,0.074c-0.053-0.007-0.201,0.003-0.214,0.062c-0.021,0.092,0.129,0.084,0.278,0.056l0.087-0.025
	l0.004,0.013l-0.086,0.025c-0.138,0.053-0.259,0.124-0.17,0.185c0.058,0.04,0.18-0.029,0.216-0.062
	c-0.025,0.023-0.042,0.074,0.004,0.093c0.061,0.029,0.182-0.041,0.328-0.146c0.093-0.078,0.185-0.125,0.274-0.168l0.331-0.096
	c-0.253,0.119-0.343,0.304-0.233,0.352c0.135,0.066,0.313-0.027,0.356-0.084c-0.001,0.062,0.086,0.076,0.151,0.069
	c0.086-0.01,0.176-0.037,0.242-0.177c0.093-0.249,0.215-0.295,0.296-0.355c0.084-0.062,0.143-0.017,0.065,0.026
	c-0.232,0.177-0.203,0.268-0.165,0.316c0.042,0.05,0.185,0.044,0.257-0.014c0.004,0.112,0.063,0.172,0.219,0.163
	c0.198-0.021,0.249-0.137,0.203-0.284c0.116,0.06,0.264-0.033,0.212-0.168c-0.07-0.201-0.016-0.229,0.031-0.307
	c0.005-0.007,0.011-0.007,0.017-0.014l0.077-0.022c-0.002,0.002,0.003,0,0,0.003c-0.101,0.149-0.034,0.265,0.071,0.262
	c0.108,0,0.175-0.038,0.227-0.13c0.085,0.072,0.273,0.011,0.204-0.12c-0.021-0.063-0.02-0.113-0.011-0.156l0.51-0.147
	c0.061,0.007,0.12,0.026,0.175,0.063c0.089,0.048,0.151,0.024,0.204-0.007c0.04-0.023,0.087-0.069,0.063-0.102
	c0.046,0.012,0.182-0.014,0.236-0.106c0.011-0.016,0-0.029-0.005-0.043l2.704-0.782l-0.03-0.105l0.006,0.016l0.03,0.057
	c0.083-0.034,0.167-0.032,0.249-0.012c-0.013,0.064-0.047,0.123-0.116,0.165l-0.015-0.018L11.17,13.38
	c-0.015-0.012-0.027-0.026-0.053-0.026c-0.129-0.002-0.217,0.085-0.223,0.124c-0.027-0.031-0.099-0.019-0.143,0
	c-0.058,0.024-0.111,0.058-0.098,0.144c0.018,0.059,0.014,0.113-0.008,0.162l-0.381,0.293c-0.055-0.012-0.113-0.033-0.179-0.079
	c-0.115-0.108-0.268,0-0.225,0.093c-0.126-0.004-0.198,0.028-0.246,0.104c-0.049,0.076,0.05,0.174,0.261,0.168
	c0.007,0,0.008,0.001,0.014,0.002l-0.062,0.046c-0.011,0.001-0.019,0.004-0.03,0.004c-0.109,0-0.165,0.026-0.356-0.114
	c-0.128-0.098-0.298-0.032-0.282,0.078c-0.145-0.099-0.296-0.113-0.406,0.019c-0.081,0.108-0.04,0.177,0.086,0.229
	c-0.1,0.026-0.169,0.126-0.133,0.178c0.038,0.05,0.127,0.111,0.427,0.022c0.083-0.036,0.105,0.026,0.001,0.06
	c-0.104,0.031-0.209,0.098-0.527,0.054c-0.187-0.014-0.256,0.039-0.306,0.096c-0.036,0.043-0.06,0.112,0.011,0.14
	c-0.084,0.007-0.266,0.093-0.253,0.218c0.006,0.103,0.269,0.121,0.519-0.02l-0.255,0.196c-0.091,0.049-0.193,0.096-0.33,0.13
	c-0.184,0.058-0.315,0.115-0.31,0.17c0.002,0.042,0.067,0.052,0.103,0.044c-0.053,0.011-0.182,0.069-0.164,0.127
	c0.028,0.091,0.162,0.035,0.282-0.04l0.067-0.051l0.008,0.01l-0.063,0.05c-0.099,0.094-0.174,0.198-0.062,0.224
	c0.071,0.017,0.149-0.084,0.165-0.126c-0.011,0.028,0,0.081,0.052,0.083c0.069,0.007,0.144-0.096,0.225-0.241
	c0.049-0.109,0.111-0.19,0.178-0.261l0.254-0.196c-0.188,0.196-0.176,0.408-0.047,0.416c0.155,0.016,0.27-0.127,0.282-0.192
	c0.031,0.057,0.117,0.041,0.174,0.013c0.072-0.037,0.14-0.09,0.131-0.241c-0.042-0.257,0.046-0.339,0.09-0.42
	c0.045-0.083,0.121-0.062,0.073,0.003c-0.124,0.237-0.051,0.311,0.011,0.342c0.063,0.032,0.189-0.02,0.227-0.098
	c0.061,0.103,0.144,0.139,0.282,0.078c0.168-0.083,0.157-0.205,0.038-0.325c0.137,0.017,0.227-0.117,0.111-0.223
	c-0.168-0.16-0.132-0.204-0.128-0.291c0-0.015,0.009-0.019,0.013-0.031l0.05-0.037c0,0.005,0.007-0.002,0.006,0.006
	c-0.017,0.17,0.103,0.254,0.198,0.217c0.098-0.035,0.141-0.092,0.14-0.193c0.114,0.038,0.256-0.079,0.125-0.176
	c-0.054-0.055-0.077-0.103-0.09-0.146l0.381-0.294c0.062-0.016,0.13-0.016,0.202,0c0.105,0.015,0.15-0.026,0.184-0.072
	c0.024-0.034,0.043-0.09,0.006-0.114c0.048-0.004,0.16-0.071,0.162-0.173c0.001-0.021-0.016-0.032-0.03-0.044l2.063-1.589
	l-0.06-0.079l0.003,0.003l0.058,0.043c0.058-0.059,0.137-0.083,0.221-0.092c0.021,0.064,0.021,0.129-0.021,0.192l-0.017-0.008
	l-1.09,2.153c-0.021-0.01-0.044-0.018-0.071-0.008c-0.118,0.04-0.153,0.147-0.141,0.185c-0.041-0.02-0.099,0.016-0.13,0.047
	c-0.04,0.041-0.072,0.089-0.016,0.162c0.061,0.063,0.072,0.131,0.062,0.199l-0.173,0.342c-0.059,0.009-0.125,0.011-0.214-0.01
	c-0.161-0.061-0.245,0.088-0.159,0.158c-0.116,0.037-0.166,0.09-0.171,0.175c-0.008,0.085,0.134,0.143,0.324,0.068
	c0.018-0.007,0.011,0.003,0.02,0.004l-0.019,0.036c-0.016,0.012-0.021,0.023-0.048,0.032c-0.098,0.036-0.135,0.079-0.383,0.014
	c-0.166-0.046-0.287,0.069-0.218,0.164c-0.182-0.043-0.326-0.007-0.361,0.15c-0.018,0.125,0.054,0.173,0.195,0.181
	c-0.077,0.056-0.089,0.169-0.029,0.206c0.06,0.034,0.171,0.06,0.399-0.119c0.058-0.06,0.111-0.012,0.03,0.054
	c-0.077,0.063-0.139,0.158-0.454,0.223c-0.176,0.048-0.213,0.119-0.229,0.187c-0.012,0.051,0.002,0.122,0.08,0.125
	c-0.073,0.033-0.195,0.171-0.119,0.281c0.059,0.094,0.316,0.022,0.472-0.197c-0.003,0.011-0.009,0.024-0.012,0.036l-0.112,0.222
	c-0.059,0.079-0.139,0.16-0.252,0.241c-0.138,0.114-0.23,0.208-0.196,0.257c0.021,0.037,0.087,0.026,0.116,0.008
	c-0.011,0.006-0.022,0.022-0.034,0.034c-0.136-0.04-0.265-0.085-0.389-0.13l-0.007-0.004c-0.379-0.169-0.703-0.356-0.973-0.54
	c-0.052-0.035-0.102-0.069-0.15-0.103L9.045,16.76c-0.151-0.101-0.3-0.172-0.432-0.238l-0.006-0.004
	c-0.072-0.033-0.146-0.061-0.221-0.083l-0.023-0.004c-0.068-0.021-0.14-0.038-0.209-0.05c-0.127-0.027-0.259-0.034-0.366-0.053
	c-0.002,0.011-0.003,0.02-0.004,0.029c0.022,0.079,0.019,0.165-0.027,0.238C7.71,16.67,7.634,16.71,7.555,16.715L7.529,16.73
	c0.008,0.012,0.017,0.024,0.023,0.036l0.064,0.02l0.031,0.118c0.036,0.044,0.074,0.089,0.115,0.134
	c0.05,0.056,0.106,0.112,0.164,0.164l0.019,0.018c0.063,0.057,0.133,0.111,0.205,0.161c0.003,0.002,0.005,0.003,0.008,0.004
	c0.134,0.093,0.31,0.146,0.498,0.208l0.086,0.027c0.062,0.018,0.125,0.035,0.19,0.054c0.339,0.091,0.734,0.147,1.152,0.254
	l0.007,0.002c0.149,0.027,0.298,0.059,0.452,0.1c0.125,0.033,0.252,0.078,0.382,0.118l0.006,0.001l0.053,0.012
	c0.823,0.262,1.595,0.78,2.162,1.475C7.004,19.397,2.087,15.668,1.888,11.053z M6.557,10.958c-0.002,0-0.005-0.001-0.007-0.002
	l0.015,0.001C6.562,10.958,6.559,10.958,6.557,10.958z"/>
<g>
</g>
<g>
</g>
<g>
</g>
<g>
</g>
<g>
</g>
<g>
</g>
<g>
</g>
<g>
</g>
<g>
</g>
<g>
</g>
<g>
</g>
<g>
</g>
<g>
</g>
<g>
</g>
<g>
</g>
</svg>
