<?xml version="1.0" encoding="iso-8859-1"?>
<!-- Generator: Adobe Illustrator 16.0.0, SVG Export Plug-In . SVG Version: 6.00 Build 0)  -->
<!DOCTYPE svg PUBLIC "-//W3C//DTD SVG 1.1//EN" "http://www.w3.org/Graphics/SVG/1.1/DTD/svg11.dtd">
<svg version="1.1" id="Layer_1" xmlns="http://www.w3.org/2000/svg" xmlns:xlink="http://www.w3.org/1999/xlink" x="0px" y="0px"
	 width="24.677px" height="49.499px" viewBox="0 0 24.677 49.499" style="enable-background:new 0 0 24.677 49.499;"
	 xml:space="preserve">
<g>
	<path d="M13.538,35.181c0-0.433,0.104-0.899,0.214-1.437c0.967-0.409,1.644-1.225,1.713-2.185H9.25
		c0.067,0.931,0.707,1.724,1.627,2.146c0.141,0.526,0.261,1.03,0.261,1.477c0,0.487,0,3.45,0,6.555H7.142v3.175h1.703v-1.59h0.68
		v1.59h1.591v0.68H9.524v1.592h-0.68v-1.592H7.142v2.869h3.996c0,0.646,0,1.039,0,1.039h2.4c0,0,0-0.393,0-1.039h3.996v-2.869
		h-1.703v1.592h-0.68v-1.592h-1.591v-0.68h1.591v-1.59h0.68v1.59h1.703v-3.175h-3.996C13.538,38.599,13.538,35.607,13.538,35.181z"
		/>
	<path d="M12.581,15.64l-0.18,0.159c0.008,0.143-0.062,0.324-0.146,0.521c-0.121,0.292-0.279,0.595-0.23,0.896
		c0.069-0.033,0.11-0.014,0.19-0.076c0.013,0.091,0.029,0.188,0.052,0.287c0.08,0.356,0.236,0.746,0.508,1.034
		c0.137,0.143,0.301,0.265,0.495,0.336c0.195,0.062,0.421,0.079,0.671,0.035c-0.363-0.427-0.865-0.883-1.173-1.438
		C12.454,16.853,12.338,16.266,12.581,15.64z"/>
	<path d="M11.696,4.336l0.18-0.159c-0.007-0.144,0.063-0.324,0.146-0.521c0.121-0.293,0.279-0.596,0.23-0.896
		c-0.069,0.032-0.11,0.014-0.191,0.076c-0.011-0.092-0.027-0.188-0.05-0.287c-0.081-0.355-0.236-0.746-0.509-1.034
		c-0.137-0.143-0.301-0.265-0.496-0.336c-0.193-0.063-0.419-0.079-0.669-0.035c0.362,0.427,0.863,0.883,1.173,1.438
		C11.824,3.123,11.94,3.709,11.696,4.336z"/>
	<path d="M9.894,4.78c0.216-0.103,0.428-0.246,0.578-0.323c0.207-0.086,0.401-0.145,0.636-0.073c0.197,0.057,0.255,0.417,0.463,0.16
		l-0.054-0.15c-0.325-0.682-0.556-0.922-1.188-0.449c-0.192,0.165-0.353,0.323-0.52,0.455C9.594,4.555,9.384,4.723,9.067,4.782
		C9.305,5.032,9.596,4.917,9.894,4.78z"/>
	<path d="M16.18,5.131l0.224-0.063c0.057-0.132,0.195-0.263,0.354-0.402c0.233-0.204,0.517-0.422,0.604-0.708
		c-0.078,0.002-0.109-0.028-0.207-0.011c0.03-0.087,0.058-0.182,0.081-0.28c0.086-0.356,0.117-0.779-0.005-1.164
		c-0.123-0.376-0.411-0.696-0.907-0.84c0.15,0.545,0.406,1.192,0.452,1.803C16.822,4.099,16.661,4.676,16.18,5.131z"/>
	<path d="M12.338,0C5.535,0,0,4.493,0,10.016c0,5.193,4.896,9.474,11.138,9.966c0,1.133,0,5.964,0,7.021
		c0,1.201-0.103,1.884-0.356,2.135c-0.254,0.252-1.545,0.927-1.545,2.262h6.243c-0.017-1.484-1.478-1.989-1.734-2.404
		s-0.207-1.383-0.207-1.901c0-0.905,0-5.956,0-7.112c6.242-0.492,11.139-4.772,11.139-9.966C24.677,4.493,19.142,0,12.338,0z
		 M20.918,4.086c1.19,1.089,2.06,2.406,2.487,3.857c-0.158-0.286-0.372-0.514-0.591-0.652c-0.291-0.166-0.576-0.105-0.78,0.042
		c-0.204,0.148-0.353,0.391-0.419,0.653c-0.039,0.16-0.037,0.394,0.013,0.56c0.042,0.167,0.166,0.271,0.429,0.144
		c-0.497-0.212,0.039-0.494,0.337-0.447c0.243,0.046,0.378,0.222,0.427,0.438c0.05,0.216,0.001,0.47-0.168,0.681
		c-0.3,0.394-0.631,0.325-0.923,0.15c-0.277-0.182-0.581-0.463-0.772-0.673c-0.178-0.204-0.379-0.356-0.571-0.478
		c-0.092-0.201-0.194-0.397-0.318-0.583c0.029-0.003,0.056-0.008,0.087-0.011c0.299-0.028,0.651-0.025,0.898-0.195
		c-0.061-0.047-0.064-0.089-0.149-0.135c0.076-0.051,0.157-0.109,0.236-0.174c0.288-0.234,0.572-0.561,0.676-0.946
		c0.056-0.194,0.069-0.406,0.028-0.627C21.8,5.47,21.678,5.263,21.497,5.055c-0.073,0.281-0.152,0.579-0.234,0.89
		c-0.096,0.311-0.223,0.622-0.383,0.885c-0.221,0.372-0.525,0.644-0.909,0.816c-0.108-0.15-0.229-0.295-0.36-0.434
		c0.112-0.292,0.001-0.5-0.479-0.656c-0.161-0.039-0.313-0.076-0.457-0.112c-0.362-0.23-0.763-0.424-1.192-0.57
		c-0.279-0.155-0.579-0.293-0.889-0.423c0.116-0.082,0.266-0.117,0.428-0.104c0.238,0.017,0.52,0.096,0.711,0.232
		c0.141,0.095,0.32,0.17,0.497,0.258c0.175,0.089,0.369,0.167,0.577,0.229c0.34,0.139,0.753,0.208,1.109,0.218
		c0.366-0.001,0.74-0.104,1.031-0.432c0.191-0.217,0.273-0.52,0.255-0.875C21.178,4.696,21.073,4.39,20.918,4.086z M13.199,12.604
		c0.641-0.711,1.023-1.586,1.023-2.537c0-1.091-0.504-2.085-1.324-2.842c0.72-0.441,1.623-0.707,2.606-0.707
		c2.336,0,4.236,1.485,4.236,3.311s-1.9,3.311-4.236,3.311C14.654,13.141,13.863,12.942,13.199,12.604z M13.752,15.539
		c-0.18,0.07-0.354,0.112-0.558,0.057C13.382,15.582,13.568,15.562,13.752,15.539z M14.217,4.777
		c0.055,0.002,0.11,0.005,0.167,0.002c0.246-0.023,0.485-0.033,0.654-0.042c0.228-0.007,0.428,0.018,0.599,0.194
		c0.056,0.053,0.075,0.132,0.095,0.205C15.249,4.985,14.744,4.864,14.217,4.777z M18.859,2.609c-0.11-0.003-0.219,0.003-0.322,0.029
		c-0.62,0.135-0.72,0.834-0.481,1.291c0.162,0.267,0.57,0.764,0.785,0.223c-0.513,0.196-0.289-0.392-0.044-0.548
		c0.405-0.245,0.862,0.076,0.919,0.595c0.06,0.477-0.21,0.676-0.54,0.764c-0.326,0.077-0.741,0.075-1.039,0.048
		c-0.66-0.057-1.185-0.061-1.66,0.393c-0.161-0.065-0.323-0.128-0.491-0.185l0.013-0.113c-0.003-0.365-0.026-0.631-0.146-0.789
		c-0.117-0.162-0.338-0.211-0.726-0.106c-0.242,0.063-0.448,0.122-0.659,0.187c-0.268,0.081-0.52,0.088-0.841,0.036
		c0.059,0.149,0.164,0.241,0.298,0.293c-0.537-0.075-1.092-0.113-1.662-0.113c-0.032,0-0.063,0.003-0.096,0.003
		c0.017-0.212,0.18-0.362,0.409-0.46c0.23-0.103,0.522-0.147,0.767-0.12c0.178,0.015,0.377,0.005,0.584-0.01
		c0.206-0.005,0.422-0.029,0.639-0.073c0.392-0.081,0.773-0.178,1.094-0.395c0.317-0.207,0.562-0.485,0.625-0.924
		c0.07-0.45-0.193-0.913-0.642-1.277C16.805,1.639,17.888,2.065,18.859,2.609z M9.711,3.953c0.633-0.462,1.244-1.073,1.001-1.919
		C10.6,1.654,10.245,1.362,9.777,1.2c0.823-0.151,1.681-0.234,2.561-0.234c0.163,0,0.323,0.005,0.483,0.01
		c-0.037,0.025-0.08,0.047-0.114,0.077c-0.479,0.406-0.269,1.072,0.152,1.365c0.265,0.163,0.858,0.418,0.793-0.165
		c-0.36,0.416-0.434-0.208-0.291-0.46c0.242-0.41,0.775-0.337,1.068,0.078c0.275,0.386,0.147,0.693-0.099,0.931
		c-0.245,0.227-0.617,0.428-0.896,0.542c-0.341,0.129-0.64,0.275-0.879,0.467c-0.24,0.193-0.42,0.426-0.521,0.81
		c-1.539,0.029-2.971,0.342-4.188,0.866C7.771,5.111,8.216,4.701,8.644,4.541c0.159-0.076,0.343-0.145,0.522-0.245
		C9.35,4.201,9.528,4.067,9.711,3.953z M9.021,13.377c-2.336,0-4.235-1.485-4.235-3.311c0-1.826,1.899-3.312,4.235-3.312
		c0.851,0,1.643,0.199,2.307,0.538c-0.64,0.71-1.024,1.586-1.024,2.537c0,1.091,0.505,2.085,1.324,2.842
		C10.907,13.112,10.005,13.377,9.021,13.377z M9.223,15.237c-0.204,0.005-0.388-0.023-0.546-0.165
		C8.855,15.13,9.037,15.187,9.223,15.237z M6.214,6.415C6.268,6.318,6.316,6.227,6.36,6.157C6.486,5.986,6.627,5.852,6.854,5.81
		C6.927,5.795,7.004,5.83,7.073,5.86C6.766,6.03,6.481,6.218,6.214,6.415z M4.689,3.325c0.263,0.089,0.538,0.184,0.827,0.284
		c0.298,0.112,0.602,0.255,0.86,0.422c0.525,0.337,0.88,0.812,0.957,1.48l0.081-0.222c-0.07-0.124-0.094-0.321-0.104-0.527
		c-0.019-0.303-0.015-0.654-0.189-0.9C7.074,3.923,7.03,3.928,6.983,4.012C6.933,3.936,6.874,3.856,6.81,3.775
		C6.575,3.484,6.265,3.212,5.886,3.083C5.698,3.019,5.494,2.991,5.282,3.018c-0.09,0.014-0.182,0.046-0.271,0.085
		c0.548-0.369,1.142-0.697,1.771-0.979c-0.255,0.587,0.229,1.08,0.731,1.159c0.321,0.061,0.953,0,0.649-0.489
		C8.018,3.331,7.685,2.803,7.705,2.51c0.021-0.242,0.159-0.406,0.351-0.474c0.193-0.059,0.436-0.029,0.655,0.09
		c0.412,0.223,0.424,0.557,0.304,0.883C8.893,3.341,8.629,3.638,8.431,3.875C7.958,4.392,7.632,4.836,7.739,5.531
		C7.591,5.597,7.45,5.669,7.31,5.741L7.208,5.643C6.622,5.181,6.291,5.064,5.99,5.775c-0.081,0.232-0.136,0.44-0.209,0.627
		c-0.051,0.18-0.124,0.338-0.234,0.49C5.228,7.128,4.94,7.395,4.7,7.689c0.018-0.211,0.101-0.436,0.228-0.607
		c0.177-0.273,0.388-0.616,0.544-1.014C5.77,5.382,6.019,4.547,5.41,3.917C5.205,3.712,4.911,3.609,4.564,3.6
		C4.479,3.598,4.393,3.604,4.304,3.618C4.429,3.518,4.559,3.42,4.689,3.325z M2.03,6.2c0.13,0.609,0.813,0.688,1.271,0.472
		c0.272-0.157,0.79-0.534,0.266-0.779c0.165,0.524-0.413,0.27-0.554,0.018C2.792,5.492,3.153,5.028,3.68,5.016
		c0.481-0.027,0.658,0.259,0.722,0.595c0.033,0.17,0.029,0.35,0.021,0.53C4.421,6.325,4.404,6.5,4.382,6.645
		c-0.071,0.5-0.078,0.917,0.139,1.286c-0.067,0.097-0.13,0.197-0.189,0.298C4.233,8.163,4.136,8.066,4.033,7.957
		c-0.208-0.219-0.427-0.5-0.713-0.59C3.322,7.445,3.292,7.475,3.31,7.57C3.223,7.542,3.127,7.515,3.028,7.492
		C2.677,7.415,2.224,7.381,1.86,7.546C1.603,7.66,1.352,7.864,1.201,8.177C1.382,7.486,1.663,6.824,2.03,6.2z M1.021,9.141
		C1.042,8.962,1.07,8.786,1.104,8.61C1.36,8.488,1.625,8.339,1.916,8.22C2.226,8.098,2.54,8,2.846,7.961
		C3.357,7.889,3.85,8.018,4.28,8.314C4.217,8.432,4.159,8.553,4.106,8.676C3.954,8.696,3.83,8.733,3.748,8.798
		c-0.126,0.119-0.152,0.333,0,0.658c0.034,0.061,0.065,0.113,0.099,0.168C3.829,9.77,3.819,9.917,3.819,10.067
		c0,0.176,0.017,0.348,0.041,0.519c-0.009-0.023-0.018-0.045-0.027-0.069c-0.054-0.17-0.132-0.348-0.231-0.528
		c-0.122-0.323-0.349-0.663-0.566-0.94C2.796,8.772,2.478,8.544,2.041,8.53C1.753,8.521,1.468,8.656,1.207,8.912
		C1.14,8.979,1.077,9.057,1.021,9.141z M1.474,12.688c0.286,0.16,0.567,0.101,0.771-0.045c0.203-0.148,0.353-0.392,0.418-0.653
		c0.039-0.161,0.037-0.394-0.012-0.56c-0.043-0.167-0.166-0.271-0.429-0.144c0.497,0.212-0.04,0.494-0.338,0.447
		c-0.243-0.047-0.379-0.222-0.426-0.438c-0.05-0.216-0.002-0.47,0.167-0.681c0.3-0.394,0.632-0.325,0.925-0.15
		c0.275,0.182,0.579,0.463,0.771,0.673c0.226,0.259,0.489,0.453,0.728,0.578c0.068,0.029,0.139,0.052,0.212,0.07
		c0.067,0.124,0.141,0.246,0.221,0.363c-0.105,0.029-0.223,0.05-0.357,0.062c-0.298,0.028-0.651,0.025-0.899,0.194
		c0.062,0.047,0.066,0.09,0.151,0.136c-0.077,0.051-0.157,0.109-0.236,0.174c-0.289,0.234-0.574,0.561-0.677,0.946
		c-0.055,0.194-0.068,0.406-0.027,0.627c0.029,0.149,0.099,0.293,0.195,0.436C2.145,14.091,1.754,13.409,1.474,12.688z
		 M3.332,14.122c-0.191,0.217-0.274,0.52-0.255,0.875c0.009,0.106,0.031,0.217,0.062,0.328c-0.124-0.135-0.242-0.273-0.356-0.413
		c0.073-0.279,0.152-0.574,0.232-0.882c0.096-0.311,0.224-0.622,0.384-0.885c0.265-0.446,0.649-0.748,1.149-0.905
		c0.074,0.102,0.152,0.203,0.235,0.3c-0.263,0.413-0.232,0.687,0.364,0.879c0.227,0.056,0.446,0.109,0.634,0.155
		c0.047,0.009,0.09,0.021,0.133,0.034c0.462,0.378,0.998,0.711,1.591,0.996c-0.077,0.02-0.16,0.031-0.248,0.023
		c-0.238-0.016-0.52-0.095-0.711-0.231c-0.141-0.095-0.32-0.17-0.496-0.258c-0.175-0.089-0.37-0.167-0.577-0.229
		c-0.341-0.138-0.753-0.208-1.11-0.217C3.997,13.692,3.621,13.795,3.332,14.122z M8.551,18.547
		c-1.033-0.292-1.999-0.699-2.873-1.203c0.021-0.004,0.043-0.002,0.063-0.007c0.619-0.136,0.719-0.834,0.48-1.291
		c-0.162-0.267-0.57-0.764-0.785-0.224c0.514-0.196,0.289,0.393,0.045,0.548c-0.406,0.245-0.863-0.075-0.92-0.595
		c-0.06-0.477,0.211-0.676,0.541-0.764c0.326-0.077,0.74-0.074,1.039-0.048c0.599,0.051,1.086,0.058,1.526-0.279
		c0.129,0.06,0.268,0.112,0.404,0.166l-0.198,0.056c-0.057,0.132-0.195,0.263-0.356,0.402c-0.23,0.204-0.514,0.421-0.602,0.707
		c0.077-0.002,0.108,0.028,0.206,0.011c-0.03,0.086-0.059,0.181-0.082,0.28c-0.085,0.356-0.116,0.778,0.005,1.164
		c0.123,0.376,0.413,0.696,0.909,0.84c-0.151-0.545-0.406-1.192-0.452-1.803c-0.046-0.626,0.113-1.198,0.584-1.65
		c0.065,0.026,0.13,0.055,0.195,0.08c0.006,0.328,0.033,0.573,0.145,0.72c0.117,0.162,0.337,0.211,0.726,0.107
		c0.242-0.064,0.446-0.122,0.658-0.187c0.269-0.081,0.52-0.088,0.841-0.036c-0.003-0.007-0.008-0.011-0.012-0.018
		c0.439,0.06,0.893,0.09,1.353,0.101c-0.071,0.079-0.172,0.145-0.289,0.195c-0.23,0.103-0.523,0.147-0.768,0.12
		c-0.177-0.015-0.377-0.005-0.584,0.009c-0.205,0.005-0.422,0.029-0.639,0.074c-0.391,0.081-0.772,0.178-1.094,0.394
		c-0.316,0.207-0.562,0.485-0.626,0.924C7.927,17.763,8.154,18.194,8.551,18.547z M13.566,17.941
		c0.134,0.453,0.608,0.781,1.211,0.912c-0.785,0.137-1.602,0.212-2.439,0.212c-0.313,0-0.623-0.014-0.931-0.033
		c0.057-0.034,0.114-0.068,0.163-0.109c0.479-0.406,0.269-1.072-0.151-1.365c-0.265-0.163-0.859-0.418-0.794,0.164
		c0.36-0.416,0.434,0.208,0.291,0.461c-0.242,0.41-0.774,0.337-1.068-0.078c-0.275-0.387-0.146-0.694,0.099-0.931
		c0.246-0.227,0.617-0.427,0.896-0.541c0.342-0.129,0.64-0.275,0.88-0.467c0.176-0.142,0.318-0.306,0.422-0.535
		c0.04,0,0.079,0.004,0.118,0.004c0.175,0,0.345-0.01,0.516-0.018c0.316,0.653,0.55,0.88,1.17,0.415
		c0.192-0.165,0.354-0.323,0.52-0.455c0.099-0.071,0.197-0.144,0.304-0.208c0.548-0.119,1.067-0.277,1.56-0.466
		c-0.15,0.229-0.427,0.432-0.697,0.533c-0.159,0.076-0.342,0.145-0.522,0.245c-0.183,0.096-0.361,0.229-0.545,0.343
		C13.934,16.484,13.322,17.095,13.566,17.941z M17.291,18.16c0.082-0.094,0.155-0.194,0.203-0.305
		c0.258-0.589-0.228-1.083-0.73-1.162c-0.32-0.062-0.952,0-0.648,0.489c0.144-0.538,0.478-0.009,0.457,0.284
		c-0.022,0.242-0.16,0.405-0.351,0.474c-0.193,0.059-0.435,0.029-0.654-0.09c-0.413-0.224-0.424-0.558-0.304-0.883
		c0.121-0.332,0.384-0.629,0.583-0.866c0.385-0.421,0.672-0.793,0.71-1.291c0.103-0.042,0.209-0.082,0.309-0.127l-0.002,0.003
		c0.069,0.125,0.094,0.322,0.104,0.527c0.019,0.302,0.015,0.653,0.188,0.899c0.047-0.061,0.092-0.064,0.14-0.149
		c0.05,0.077,0.108,0.157,0.173,0.237c0.234,0.292,0.545,0.563,0.923,0.693c0.188,0.064,0.394,0.091,0.604,0.065
		c0.21-0.032,0.421-0.133,0.629-0.295c-0.272-0.093-0.562-0.193-0.863-0.296c-0.299-0.112-0.601-0.255-0.86-0.422
		c-0.479-0.308-0.807-0.739-0.92-1.32c0.098-0.046,0.192-0.095,0.286-0.144c0.465,0.329,0.755,0.347,1.021-0.28
		c0.058-0.167,0.104-0.318,0.151-0.462c0.35-0.269,0.659-0.561,0.928-0.872c-0.006,0.009-0.012,0.019-0.018,0.027
		c-0.176,0.273-0.388,0.616-0.544,1.015c-0.298,0.686-0.546,1.521,0.063,2.15c0.204,0.204,0.498,0.307,0.845,0.317
		c0.314,0.005,0.661-0.098,1.01-0.254C19.755,16.962,18.593,17.657,17.291,18.16z M22.26,13.813
		c-0.107-0.647-0.816-0.731-1.282-0.51c-0.273,0.157-0.791,0.533-0.266,0.78c-0.165-0.524,0.412-0.27,0.553-0.018
		c0.222,0.417-0.141,0.881-0.667,0.894c-0.481,0.027-0.659-0.259-0.722-0.595c-0.032-0.17-0.029-0.351-0.021-0.53
		c0.002-0.184,0.019-0.358,0.04-0.504c0.061-0.42,0.076-0.783-0.05-1.108c0.029-0.048,0.053-0.099,0.081-0.147
		c0.053-0.072,0.108-0.142,0.157-0.216c0.053,0.048,0.107,0.102,0.162,0.161c0.208,0.218,0.426,0.499,0.712,0.589
		c-0.004-0.078,0.028-0.108,0.01-0.204c0.088,0.029,0.184,0.056,0.283,0.078c0.351,0.077,0.804,0.111,1.166-0.054
		c0.365-0.161,0.723-0.499,0.786-1.078c-0.267,0.124-0.538,0.281-0.841,0.404c-0.31,0.123-0.624,0.219-0.93,0.258
		c-0.454,0.065-0.896-0.021-1.292-0.25c0.104-0.167,0.193-0.342,0.27-0.521c0.046-0.018,0.087-0.039,0.12-0.065
		c0.1-0.095,0.134-0.251,0.068-0.474c0.056-0.219,0.084-0.445,0.097-0.674c0.126,0.31,0.34,0.633,0.548,0.898
		c0.239,0.276,0.559,0.504,0.994,0.519c0.289,0.009,0.574-0.126,0.835-0.382c0.259-0.255,0.429-0.64,0.566-1.077
		c0.025-0.132,0.045-0.27,0.059-0.41c0.009,0.145,0.015,0.292,0.015,0.438c0,1.648-0.561,3.195-1.532,4.528
		C22.265,14.294,22.302,14.044,22.26,13.813z"/>
</g>
<g>
</g>
<g>
</g>
<g>
</g>
<g>
</g>
<g>
</g>
<g>
</g>
<g>
</g>
<g>
</g>
<g>
</g>
<g>
</g>
<g>
</g>
<g>
</g>
<g>
</g>
<g>
</g>
<g>
</g>
</svg>
