<?xml version="1.0" encoding="iso-8859-1"?>
<!-- Generator: Adobe Illustrator 16.0.0, SVG Export Plug-In . SVG Version: 6.00 Build 0)  -->
<!DOCTYPE svg PUBLIC "-//W3C//DTD SVG 1.1//EN" "http://www.w3.org/Graphics/SVG/1.1/DTD/svg11.dtd">
<svg version="1.1" id="Layer_1" xmlns="http://www.w3.org/2000/svg" xmlns:xlink="http://www.w3.org/1999/xlink" x="0px" y="0px"
	 width="18.891px" height="49.125px" viewBox="0 0 18.891 49.125" style="enable-background:new 0 0 18.891 49.125;"
	 xml:space="preserve">
<path d="M18.891,40.168v-1.413h-2.135h-2.973H9.752V27.882h0.867c0.391,0,0.708-0.317,0.708-0.709c0-0.336-0.24-0.604-0.555-0.677
	c0.315-0.072,0.555-0.341,0.555-0.678c0-0.391-0.317-0.708-0.708-0.708H9.752V23.77h0.867c0.391,0,0.708-0.317,0.708-0.709
	c0-0.193-0.078-0.368-0.204-0.496h0.289c0.526,0,0.954-0.427,0.954-0.954c0-0.526-0.427-0.954-0.954-0.954h-0.19
	c0.061-0.104,0.105-0.22,0.105-0.35c0-0.256-0.144-0.471-0.347-0.595c3.29-1.283,5.418-4.869,5.418-9.597
	C16.399,4.16,13.027,0,8.199,0C3.372,0,0,4.16,0,10.116c0,5,2.381,8.723,5.999,9.793c-0.081,0.115-0.139,0.248-0.139,0.398
	c0,0.13,0.044,0.245,0.106,0.35H5.957c-0.527,0-0.954,0.427-0.954,0.954c0,0.527,0.427,0.954,0.954,0.954h0.108
	c-0.126,0.128-0.205,0.303-0.205,0.496c0,0.392,0.317,0.709,0.708,0.709h0.789v1.341H6.569c-0.391,0-0.708,0.317-0.708,0.708
	c0,0.337,0.24,0.605,0.555,0.678c-0.314,0.072-0.555,0.341-0.555,0.677c0,0.392,0.317,0.709,0.708,0.709h0.789v21.242h1.736h0.659
	h4.031h2.973h2.135V47.71h-2.135v-2.926h2.135v-1.413h-2.135v-3.203H18.891z M2.873,10.116c0-3.605,1.647-7.243,5.326-7.243
	c3.68,0,5.327,3.638,5.327,7.243s-1.647,7.243-5.327,7.243C4.521,17.359,2.873,13.721,2.873,10.116z"/>
<g>
</g>
<g>
</g>
<g>
</g>
<g>
</g>
<g>
</g>
<g>
</g>
<g>
</g>
<g>
</g>
<g>
</g>
<g>
</g>
<g>
</g>
<g>
</g>
<g>
</g>
<g>
</g>
<g>
</g>
</svg>
