<?xml version="1.0" encoding="iso-8859-1"?>
<!-- Generator: Adobe Illustrator 16.0.0, SVG Export Plug-In . SVG Version: 6.00 Build 0)  -->
<!DOCTYPE svg PUBLIC "-//W3C//DTD SVG 1.1//EN" "http://www.w3.org/Graphics/SVG/1.1/DTD/svg11.dtd">
<svg version="1.1" id="Layer_1" xmlns="http://www.w3.org/2000/svg" xmlns:xlink="http://www.w3.org/1999/xlink" x="0px" y="0px"
	 width="22.093px" height="49.255px" viewBox="0 0 22.093 49.255" style="enable-background:new 0 0 22.093 49.255;"
	 xml:space="preserve">
<path d="M22.093,9.146C22.093,4.103,17.137,0,11.046,0S0,4.103,0,9.146c0,4.708,4.321,8.594,9.851,9.09v12.997
	c-1.512,0.522-2.789,1.914-2.831,4.131c-0.01,0.557,0.164,1.822,0.343,3.31H6.337c-0.37,0-0.669,0.299-0.669,0.67v1.388
	c0,0.371,0.299,0.67,0.669,0.67h1.306c0.21,2.717,0.125,5.276-1.16,5.276c-1.663,0-1.663,2.578,0,2.578c2.41,0,4.819,0,7.229,0
	c2.675,0,3.312-1.846,3.108-4.342c-0.134-1.645-2.713-1.657-2.578,0c0.018,0.221,0.025,0.439,0.031,0.659
	c0.017,0.547,0.13,1.104,0.019,1.104c-0.882,0-1.764,0-2.647,0c-0.603,0-1.206,0-1.809,0c0.197-0.675,0.295-1.436,0.346-2.222
	c0.067-1.012,0.034-2.033-0.04-3.055h1.499c0.37,0,0.669-0.299,0.669-0.67v-1.388c0-0.371-0.3-0.67-0.669-0.67H9.886
	C9.88,38.621,9.875,38.57,9.87,38.519c-0.088-0.858-0.185-1.718-0.249-2.578c-0.169-2.263,2.72-3.614,2.72-0.857
	c0,1.661,2.579,1.661,2.579,0c0-0.01,0-0.02,0-0.03c0-0.008-0.003-0.016-0.003-0.022c-0.019-2.214-1.207-3.479-2.653-3.887V18.232
	C17.783,17.729,22.093,13.847,22.093,9.146z M3.309,9.146c0-3.219,3.471-5.837,7.737-5.837c4.267,0,7.738,2.618,7.738,5.837
	c0,3.218-3.471,5.837-7.738,5.837C6.78,14.982,3.309,12.363,3.309,9.146z"/>
<g>
</g>
<g>
</g>
<g>
</g>
<g>
</g>
<g>
</g>
<g>
</g>
<g>
</g>
<g>
</g>
<g>
</g>
<g>
</g>
<g>
</g>
<g>
</g>
<g>
</g>
<g>
</g>
<g>
</g>
</svg>
