<?xml version="1.0" encoding="iso-8859-1"?>
<!-- Generator: Adobe Illustrator 16.0.0, SVG Export Plug-In . SVG Version: 6.00 Build 0)  -->
<!DOCTYPE svg PUBLIC "-//W3C//DTD SVG 1.1//EN" "http://www.w3.org/Graphics/SVG/1.1/DTD/svg11.dtd">
<svg version="1.1" id="Layer_1" xmlns="http://www.w3.org/2000/svg" xmlns:xlink="http://www.w3.org/1999/xlink" x="0px" y="0px"
	 width="49.544px" height="44.221px" viewBox="0 0 49.544 44.221" style="enable-background:new 0 0 49.544 44.221;"
	 xml:space="preserve">
<path d="M43.859,12.325l-0.132,0.001c-1.555,0.044-2.978,0.824-4.007,2.2c-0.569,0.76-0.957,1.662-1.188,2.627l-3.479,0.049
	c0.066-2.181,0.42-4.08,0.424-4.103l0.141-0.749l-0.76,0.066c-0.041,0.004-2.71,0.25-4.813-0.792
	c-1.026-0.508-1.475-1.853-1.645-2.563C29.57,8.556,31.17,7.229,31.17,4.73c0-2.589-2.108-4.694-4.701-4.694
	c-0.044,0-0.089,0.019-0.132,0.021C26.369,0.028,26.404,0,26.404,0c-2.569,0.019-2.376,0-4.514,0c-2.074,0-3.474,2.398-3.474,4.542
	c0,1.506,0.563,3.857,1.616,5.127c-2.408-1.048-4.572-3.214-4.602-3.242L14.388,5.38l-0.015-0.098c0,0-2.37,2.508-4.29,2.355
	c0.99,4.635,0.392,10.246,0.242,11.474c-0.565-0.366-1.173-0.64-1.746-0.646c0.024-0.019,0.041-0.031,0.041-0.031
	c-2.769,0-2.758,0-3.748,0c-2.69,0-4.872,2.583-4.872,5.77s2.182,5.77,4.872,5.77s3.748,0,3.748,0s-0.029-0.013-0.06-0.028
	c0.401,0,0.855-0.179,1.295-0.426c0.154,0.984,0.391,3.295-0.226,5.867c-0.817,3.418-1.992,6.944-1.992,6.944l3.521,1.555
	l-0.016,0.05l10.604,0.286h0.016c0.95,0,1.522-1.28,1.839-2.433l4.981,1.599l-0.017-0.033l6.904-0.707l-0.01-0.532
	c0,0-0.09-4.631-0.09-6.938c0-1.609,0.457-4.099,0.711-5.358c0.609,0.336,1.46,0.732,2.093,0.732c0.858,0,2.853-0.364,2.853-3.739
	c0-0.969-0.224-1.763-0.584-2.386c0.969,0.924,2.195,1.474,3.532,1.474l0.134-0.001c3.1-0.088,5.537-3.205,5.432-6.946
	C49.438,15.236,46.941,12.325,43.859,12.325z M39.638,23.487c-0.552-0.446-1.204-0.685-1.86-0.685c-0.56,0-1.244,0.3-1.735,0.561
	c-0.188-0.521-0.455-1.346-0.664-2.313l3.153-0.044C38.758,21.931,39.136,22.773,39.638,23.487z M22.816,39.435
	c-0.247-0.135-0.529-0.271-0.841-0.412c-0.381-0.17-0.72-1.305-0.406-2.765c0.118-0.554,0.553-2.051,1.825-2.755
	C23.873,34.214,25.031,36.499,22.816,39.435z M38.175,29.396c-0.477,0-1.559-0.569-2.175-0.973l-0.697-0.458l-0.183,0.814
	c-0.037,0.163-0.905,4.051-0.905,6.397c0,1.836,0.057,5.143,0.08,6.429l-5.238,0.537l-1.35-1.84
	c0.172-0.404,0.469-1.028,0.766-1.398c0.424-0.529,1.364-3.015,0.451-4.918c-0.443-0.919-1.495-2.015-4.003-2.015
	c-2.666,0-4.063,2.09-4.481,4.044c-0.348,1.625-0.095,3.541,1.063,4.062c0.693,0.312,1.022,0.517,1.173,0.626
	c-0.237,1.111-0.666,2.205-0.937,2.36l-9.051-0.243c0.679-2.298,2.676-9.311,2.551-11.821c-0.133-2.65-2.517-3.751-3.759-3.963
	l-0.292-0.05l-0.211,0.209c-0.651,0.643-1.871,1.594-2.418,1.594c-1.971,0-3.574-2.057-3.574-4.586c0-2.528,1.604-4.585,3.574-4.585
	c0.874,0,2.339,1.339,3.058,2.184l0.291,0.342l0.403-0.197c0.132-0.063,3.255-1.621,3.575-4.503c0.218-1.969-0.04-6.8-0.192-9.224
	c1.627,1.362,4.809,3.598,7.523,3.083c0.801-0.149,1.398-0.514,1.775-1.084c0.595-0.896,0.391-1.935,0.365-2.051l-0.045-0.207
	l-0.17-0.128c-0.015-0.013-1.547-1.199-1.405-2.874c0-1.94,1.539-3.767,2.731-3.767c2.189,0,3.546,1.837,3.546,3.538
	c0,2.712-2.323,3.368-2.42,3.395l-0.492,0.127l0.063,0.506c0.016,0.118,0.396,2.926,2.368,3.903
	c1.685,0.834,3.663,0.924,4.691,0.936c-0.117,0.785-0.287,2.134-0.327,3.621l-5.889,0.083c-0.584-1.189-1.627-1.992-2.828-1.992
	c-1.832,0-3.322,1.852-3.322,4.129c0,1.529,0.668,2.9,1.73,3.615l-0.777,5.809h5.236l-0.959-6.06c0.484-0.423,0.85-1,1.094-1.65
	l6.017-0.085c0.38,1.891,0.987,3.292,1.022,3.371l0.275,0.62l0.569-0.37c0.464-0.303,1.302-0.729,1.71-0.729
	c1.01,0,2.095,0.893,2.095,2.853C39.872,29.396,38.595,29.396,38.175,29.396z M26.695,27.706h-2.563l0.709-5.293l-0.374-0.185
	c-0.408-0.199-0.747-0.563-0.998-1.012l3.439-0.049c-0.201,0.37-0.454,0.693-0.771,0.913l-0.3,0.206L26.695,27.706z M23.634,17.362
	c0.395-0.553,0.941-0.898,1.548-0.898c0.59,0,1.125,0.327,1.517,0.855L23.634,17.362z M44.045,23.587l-0.069,1.157v-1.155
	c-1.791,0-3.304-1.966-3.372-4.383c-0.035-1.245,0.309-2.415,0.967-3.294c0.598-0.799,1.388-1.253,2.289-1.276
	c1.792,0,3.304,1.966,3.373,4.382C47.301,21.485,45.871,23.536,44.045,23.587z"/>
<g>
</g>
<g>
</g>
<g>
</g>
<g>
</g>
<g>
</g>
<g>
</g>
<g>
</g>
<g>
</g>
<g>
</g>
<g>
</g>
<g>
</g>
<g>
</g>
<g>
</g>
<g>
</g>
<g>
</g>
</svg>
