<?xml version="1.0" encoding="iso-8859-1"?>
<!-- Generator: Adobe Illustrator 16.0.0, SVG Export Plug-In . SVG Version: 6.00 Build 0)  -->
<!DOCTYPE svg PUBLIC "-//W3C//DTD SVG 1.1//EN" "http://www.w3.org/Graphics/SVG/1.1/DTD/svg11.dtd">
<svg version="1.1" id="Layer_1" xmlns="http://www.w3.org/2000/svg" xmlns:xlink="http://www.w3.org/1999/xlink" x="0px" y="0px"
	 width="22.753px" height="46.745px" viewBox="0 0 22.753 46.745" style="enable-background:new 0 0 22.753 46.745;"
	 xml:space="preserve">
<path d="M17.066,8.654H14.1V8.274V5.688L18.181,0h-6.825H4.531l4.082,5.688v2.587v0.379H5.688L0,4.572v6.825v6.825l5.688-4.082
	h2.925v0.134v2.877l-4.082,5.687h5.972v0.348H9.191v1.17h1.312v22.39h0.938h1.563h3.771v-1.131h-3.771v-0.917h8.143v-3.089h-3.677
	v2.463h-1.926v-2.463h-2.54v-1.926h2.54V37.22h1.926v2.463h3.677v-3.089h-8.143v-1.039h4.07v-1.131h-4.07V24.355h1.209v-1.17h-1.209
	v-0.348h5.178L14.1,17.151v-2.877V14.14h2.966l5.688,4.082v-6.825V4.572L17.066,8.654z M2.46,12.252
	c-0.673,0-1.219-0.545-1.219-1.219S1.787,9.814,2.46,9.814s1.219,0.545,1.219,1.219S3.134,12.252,2.46,12.252z M10.158,2.825
	c0-0.673,0.545-1.219,1.219-1.219s1.219,0.545,1.219,1.219s-0.545,1.219-1.219,1.219S10.158,3.499,10.158,2.825z M20.669,12.252
	c-0.673,0-1.219-0.545-1.219-1.219s0.545-1.219,1.219-1.219s1.219,0.545,1.219,1.219S21.342,12.252,20.669,12.252z"/>
<g>
</g>
<g>
</g>
<g>
</g>
<g>
</g>
<g>
</g>
<g>
</g>
<g>
</g>
<g>
</g>
<g>
</g>
<g>
</g>
<g>
</g>
<g>
</g>
<g>
</g>
<g>
</g>
<g>
</g>
</svg>
