<?xml version="1.0" encoding="iso-8859-1"?>
<!-- Generator: Adobe Illustrator 16.0.0, SVG Export Plug-In . SVG Version: 6.00 Build 0)  -->
<!DOCTYPE svg PUBLIC "-//W3C//DTD SVG 1.1//EN" "http://www.w3.org/Graphics/SVG/1.1/DTD/svg11.dtd">
<svg version="1.1" id="Layer_1" xmlns="http://www.w3.org/2000/svg" xmlns:xlink="http://www.w3.org/1999/xlink" x="0px" y="0px"
	 width="23.976px" height="49.599px" viewBox="0 0 23.976 49.599" style="enable-background:new 0 0 23.976 49.599;"
	 xml:space="preserve">
<path d="M13.849,45.928v-2.284h6.916v-3.67h-6.916v-2.267h3.314v-3.67h-3.314V20.188h0.906v-2.525h0.331
	c4.87,0,8.832-3.962,8.832-8.832S19.956,0,15.086,0H8.832C3.962,0,0,3.962,0,8.832s3.962,8.832,8.832,8.832h1.006v2.525h1.011v25.74
	v2.879v0.792h13.127v-3.67H13.849z M3,8.832C3,5.616,5.616,3,8.832,3h6.254c3.216,0,5.832,2.616,5.832,5.832
	s-2.616,5.832-5.832,5.832H8.832C5.616,14.663,3,12.047,3,8.832z"/>
<g>
</g>
<g>
</g>
<g>
</g>
<g>
</g>
<g>
</g>
<g>
</g>
<g>
</g>
<g>
</g>
<g>
</g>
<g>
</g>
<g>
</g>
<g>
</g>
<g>
</g>
<g>
</g>
<g>
</g>
</svg>
