<?xml version="1.0" encoding="iso-8859-1"?>
<!-- Generator: Adobe Illustrator 16.0.0, SVG Export Plug-In . SVG Version: 6.00 Build 0)  -->
<!DOCTYPE svg PUBLIC "-//W3C//DTD SVG 1.1//EN" "http://www.w3.org/Graphics/SVG/1.1/DTD/svg11.dtd">
<svg version="1.1" id="Layer_1" xmlns="http://www.w3.org/2000/svg" xmlns:xlink="http://www.w3.org/1999/xlink" x="0px" y="0px"
	 width="24.63px" height="45.448px" viewBox="0 0 24.63 45.448" style="enable-background:new 0 0 24.63 45.448;"
	 xml:space="preserve">
<path d="M20.467,0H4.163C1.863,0,0,1.864,0,4.163v12.888c0,2.3,1.863,4.163,4.163,4.163h4.815v24.234h8.229v-2.32l-3.206-2.96
	l3.253-3.771v-1.45l-3.014-3.54l2.918-3.829v-1.103h-3.899l0.021-2.47l3.927,0.032v-2.823h3.261c2.299,0,4.163-1.863,4.163-4.163
	V4.163C24.63,1.864,22.767,0,20.467,0z M19.927,8.921H5.305V4.589h14.623V8.921z"/>
<g>
</g>
<g>
</g>
<g>
</g>
<g>
</g>
<g>
</g>
<g>
</g>
<g>
</g>
<g>
</g>
<g>
</g>
<g>
</g>
<g>
</g>
<g>
</g>
<g>
</g>
<g>
</g>
<g>
</g>
</svg>
