<?xml version="1.0" encoding="iso-8859-1"?>
<!-- Generator: Adobe Illustrator 16.0.0, SVG Export Plug-In . SVG Version: 6.00 Build 0)  -->
<!DOCTYPE svg PUBLIC "-//W3C//DTD SVG 1.1//EN" "http://www.w3.org/Graphics/SVG/1.1/DTD/svg11.dtd">
<svg version="1.1" id="Layer_1" xmlns="http://www.w3.org/2000/svg" xmlns:xlink="http://www.w3.org/1999/xlink" x="0px" y="0px"
	 width="17.452px" height="49.584px" viewBox="0 0 17.452 49.584" style="enable-background:new 0 0 17.452 49.584;"
	 xml:space="preserve">
<path d="M8.502,0.001C4.215-0.032,0,1.143,0,2.418c0,2.595,1.879,19.343,1.879,20.228c0,0.69,3.991,0.793,5.751,0.806H6.086v1.97
	H4.475v1.789h1.611v19.511h0.626v2.863h3.49v-2.863h0.716V27.21h1.252v-1.789h-1.252v-1.97c2.087-0.04,4.743-0.208,4.743-0.806
	c0-0.983,1.79-18.08,1.79-20.228C17.452,1.325,12.939,0.039,8.502,0.001z M9.083,7.7c-1.507,0-2.729-1.224-2.729-2.729
	s1.222-2.729,2.729-2.729c1.507,0,2.729,1.224,2.729,2.729S10.591,7.7,9.083,7.7z"/>
<g>
</g>
<g>
</g>
<g>
</g>
<g>
</g>
<g>
</g>
<g>
</g>
<g>
</g>
<g>
</g>
<g>
</g>
<g>
</g>
<g>
</g>
<g>
</g>
<g>
</g>
<g>
</g>
<g>
</g>
</svg>
