<?xml version="1.0" encoding="iso-8859-1"?>
<!-- Generator: Adobe Illustrator 16.0.0, SVG Export Plug-In . SVG Version: 6.00 Build 0)  -->
<!DOCTYPE svg PUBLIC "-//W3C//DTD SVG 1.1//EN" "http://www.w3.org/Graphics/SVG/1.1/DTD/svg11.dtd">
<svg version="1.1" id="Layer_1" xmlns="http://www.w3.org/2000/svg" xmlns:xlink="http://www.w3.org/1999/xlink" x="0px" y="0px"
	 width="18.732px" height="41.497px" viewBox="0 0 18.732 41.497" style="enable-background:new 0 0 18.732 41.497;"
	 xml:space="preserve">
<path d="M10.803,19.109v-1.016h0.312v-1.047h0.516V16h0.547v-1.25h0.439v-1.113c0.277,0.049,0.559,0.08,0.849,0.08
	c2.903,0,5.266-2.502,5.266-5.577s-2.362-5.577-5.266-5.577c-0.739,0-1.442,0.164-2.082,0.456c0.008-0.093,0.022-0.184,0.022-0.279
	C11.407,1.227,10.428,0,9.221,0C8.013,0,7.034,1.227,7.034,2.739c0,0.055,0.01,0.104,0.013,0.158
	C6.489,2.686,5.891,2.563,5.265,2.563C2.362,2.563,0,5.064,0,8.14s2.362,5.577,5.265,5.577c0.189,0,0.375-0.012,0.559-0.032v1.065
	h0.542V16h0.547v1.047h0.516v1.047h0.313v1.016h0.28v12.023h-1.52v1.375h1.52v0.904H3.861v3.307h1.773v-1.655h0.708v1.655h1.656
	v0.708H6.342v1.658H5.634v-1.658H3.861v2.987h4.161v1.083h2.5v-1.083h4.161v-2.987H12.91v1.658h-0.708v-1.658h-1.656v-0.708h1.656
	v-1.655h0.708v1.655h1.773v-3.307h-4.161v-0.904h1.277v-1.375h-1.277V19.109H10.803z M12.618,4.024
	c0.273-0.065,0.557-0.103,0.849-0.103c2.154,0,3.907,1.892,3.907,4.218s-1.753,4.218-3.907,4.218c-0.292,0-0.575-0.037-0.849-0.104
	V4.024z M5.824,12.31c-0.183,0.028-0.368,0.048-0.559,0.048c-2.154,0-3.906-1.892-3.906-4.218s1.752-4.218,3.906-4.218
	c0.19,0,0.376,0.02,0.559,0.047V12.31z"/>
<g>
</g>
<g>
</g>
<g>
</g>
<g>
</g>
<g>
</g>
<g>
</g>
<g>
</g>
<g>
</g>
<g>
</g>
<g>
</g>
<g>
</g>
<g>
</g>
<g>
</g>
<g>
</g>
<g>
</g>
</svg>
