<?xml version="1.0" encoding="iso-8859-1"?>
<!-- Generator: Adobe Illustrator 16.0.0, SVG Export Plug-In . SVG Version: 6.00 Build 0)  -->
<!DOCTYPE svg PUBLIC "-//W3C//DTD SVG 1.1//EN" "http://www.w3.org/Graphics/SVG/1.1/DTD/svg11.dtd">
<svg version="1.1" id="Layer_1" xmlns="http://www.w3.org/2000/svg" xmlns:xlink="http://www.w3.org/1999/xlink" x="0px" y="0px"
	 width="25.502px" height="48.077px" viewBox="0 0 25.502 48.077" style="enable-background:new 0 0 25.502 48.077;"
	 xml:space="preserve">
<path d="M25.502,7.948c0-0.59-0.285-0.984-0.563-1.364c-0.077-0.107-0.156-0.215-0.232-0.335c-0.176-0.263-0.434-0.651-0.583-0.895
	c0.025,0.007,0.051,0.014,0.074,0.021c0.187,0.054,0.398,0.115,0.585,0.115c0.313,0,0.541-0.167,0.541-0.396
	c0-0.261-0.265-0.369-0.856-0.537c0.11-0.025,0.239-0.054,0.391-0.085c0.39-0.079,0.528-0.324,0.528-0.527
	c0-0.386-0.445-0.655-0.876-0.439C23.523,4,22.927,4.04,22.57,4.064c-0.149,0.01-0.269,0.018-0.376,0.057
	c-0.188,0.072-0.311,0.268-0.311,0.497c0,0.426,0.304,0.426,0.841,0.424c0.001,0,0.137,0.05,0.428,0.521
	c0.074,0.119,0.142,0.243,0.197,0.348c-0.595-0.257-2.942-1.018-4.605-1.018c-1.319,0-1.319,0.325-1.319,0.464
	c0,0.222,0.195,0.306,0.554,0.424c-0.164,0.036-0.334,0.073-0.478,0.104c-0.428,0.091-0.796,0.17-0.94,0.219
	c-0.083,0.028-0.123,0.034-0.127,0.037c-0.223-0.092-0.818-1.161-0.818-1.815c0-0.54,0.216-0.997,0.472-0.997
	c0.208,0,0.431,0.041,0.432,0.122c-0.007,0.02-0.055,0.071-0.086,0.104c-0.082,0.087-0.194,0.207-0.262,0.443
	c-0.011,0.05-0.022,0.106-0.022,0.17c0,0.348,0.253,0.591,0.614,0.591c0.224,0,0.633-0.196,0.665-0.667
	c0.035,0.015,0.074,0.024,0.115,0.024c0.226,0,0.372-0.205,0.372-0.522c0-0.531-0.442-1.096-1.29-1.096c-0.001,0-0.002,0-0.003,0
	L16.265,2.54c0.119-0.136,0.354-0.282,0.767-0.282c0.434,0,0.948-0.378,0.948-0.698c0-0.208-0.178-0.28-0.448-0.389
	c-0.012-0.005-0.023-0.01-0.037-0.015c0.241-0.19,0.789-0.467,1.759-0.467c1.326,0,2.668,0.563,2.668,1.64
	c0,0.806-1.034,1.522-1.85,1.522c-0.011,0-1.019-0.006-1.019-0.548c0-0.055,0.029-0.084,0.064-0.099
	c0.005,0.01,0.011,0.023,0.019,0.04c0.124,0.27,0.518,0.299,0.681,0.299c0.396,0,0.984-0.228,0.984-0.854c0-0.589-0.674-1-1.278-1
	c-0.617,0-1.535,0.394-1.535,1.477c0,1.066,1.137,1.545,1.944,1.545c2.059,0,2.754-1.489,2.87-1.959
	c0.288,0.154,0.725,0.255,1.114,0.255c0.589,0,1.586-0.276,1.586-1.312c0-0.686-0.618-1.223-1.407-1.223
	c-0.693,0-1.177,0.501-1.177,0.951c0,0.089,0.015,0.172,0.042,0.246c-0.153-0.157-0.342-0.362-0.589-0.631
	c-0.442-0.484-1.002-0.831-1.662-1.028L17.91,0l-0.066,0.009c-1.017,0.294-1.732,0.844-2.052,1.153
	c-0.026-0.151-0.048-0.395-0.048-0.674c0-0.229-0.2-0.396-0.476-0.396c-0.183,0-0.302,0.063-0.373,0.153
	c-0.02-0.016-0.04-0.036-0.065-0.059c-0.051-0.053-0.106-0.1-0.167-0.142L14.601,0h-1.479l-0.06,0.036
	c-0.113,0.07-0.218,0.153-0.311,0.248c-0.092-0.094-0.196-0.177-0.31-0.247L12.383,0h-1.451l-0.061,0.038
	c-0.062,0.039-0.121,0.083-0.172,0.124c-0.046,0.035-0.077,0.056-0.098,0.069c-0.018-0.015-0.038-0.032-0.059-0.048
	c-0.107-0.088-0.194-0.158-0.31-0.158c-0.577,0-0.577,0.479-0.577,0.917l0.01,0.157C9.315,0.796,8.622,0.288,7.659,0.009L4.862,0
	L4.794,0.01c-0.66,0.198-1.22,0.544-1.686,1.053C2.117,2.146,2.072,2.177,1.548,2.177c-0.11,0-0.661-0.023-0.661-0.49
	c0-0.106,0.125-0.373,0.419-0.373c0.205,0,0.283,0.078,0.293,0.047c-0.004,0.02-0.014,0.052-0.021,0.083
	c-0.02,0.074-0.031,0.118-0.031,0.165c0,0.207,0.135,0.415,0.437,0.415c0.288,0,0.514-0.264,0.514-0.601
	c0-0.45-0.483-0.951-1.178-0.951C0.555,0.473,0,0.987,0,1.697c0,1.035,0.998,1.311,1.587,1.311c0.381,0,0.809-0.097,1.106-0.255
	c0.079,0.504,0.644,1.96,2.687,1.96c0.808,0,1.943-0.479,1.943-1.545c0-1.083-0.918-1.477-1.534-1.477c-0.605,0-1.28,0.411-1.28,1
	c0,0.638,0.621,0.844,0.922,0.844c0.236,0,0.489-0.077,0.634-0.188c0.103-0.07,0.156-0.075,0.167-0.078
	c0.004,0.004,0.015,0.027,0.015,0.075c0,0.423-0.795,0.51-1.007,0.51c-0.867,0-1.657-0.693-1.657-1.455
	c0-1.173,1.382-1.708,2.667-1.708c0.939,0,1.843,0.37,2.107,0.578C8.313,1.276,8.27,1.282,8.247,1.283L7.87,1.232
	c-0.194,0-0.347,0.148-0.347,0.338c0,0.269,0.463,0.698,1.012,0.698c0.435,0,0.544,0.059,0.547,0.059
	c0.027,0.03,0.087,0.123,0.141,0.213L8.829,2.498c-0.863,0-1.421,0.431-1.421,1.097c0,0.317,0.146,0.522,0.373,0.522
	c0.041,0,0.079-0.009,0.114-0.024C7.929,4.564,8.337,4.76,8.56,4.76c0.363,0,0.616-0.243,0.616-0.59
	c0-0.074-0.016-0.138-0.037-0.229C9.086,3.763,8.973,3.643,8.891,3.556c-0.032-0.034-0.08-0.084-0.089-0.084
	C8.834,3.42,9.065,3.329,9.416,3.329c0.255,0,0.471,0.457,0.471,0.997c0,0.64-0.566,1.672-0.801,1.806
	C8.869,6.077,8.13,5.885,7.633,5.764c0.288-0.124,0.445-0.208,0.445-0.406c0-0.139,0-0.465-1.319-0.465
	c-1.665,0-4.018,0.762-4.605,1.018c0.055-0.105,0.122-0.229,0.195-0.348c0.283-0.456,0.415-0.517,0.393-0.521l0.224,0.021
	c0.344,0,0.54-0.198,0.54-0.542c0-0.357-0.196-0.571-0.534-0.571l-0.49,0.02c-0.081,0-0.217-0.014-0.299-0.031
	C2.049,3.599,1.756,3.268,1.459,3.268c-0.185,0-1.216,0.242-1.216,0.649c0,0.253,0.282,0.387,0.751,0.608
	c0.014,0.006,0.027,0.013,0.042,0.02C0.442,4.731,0.179,4.833,0.179,5.095c0,0.229,0.228,0.396,0.54,0.396
	c0.188,0,0.399-0.061,0.586-0.115C1.326,5.37,1.35,5.363,1.372,5.356C1.221,5.611,0.969,5.992,0.794,6.253
	c-0.074,0.115-0.153,0.224-0.23,0.33C0.286,6.963,0,7.357,0,7.949c0,0.858,0.544,1.505,1.461,1.82C0.544,10.084,0,10.731,0,11.59
	c0,0.591,0.286,0.985,0.563,1.365c0.077,0.106,0.156,0.214,0.232,0.333c0.175,0.263,0.434,0.65,0.583,0.895
	c-0.025-0.007-0.051-0.014-0.074-0.021c-0.187-0.054-0.398-0.115-0.586-0.115c-0.308,0-0.54,0.17-0.54,0.396
	c0,0.261,0.265,0.369,0.856,0.537c-0.11,0.025-0.239,0.054-0.391,0.086c-0.39,0.079-0.528,0.324-0.528,0.527
	c0,0.387,0.449,0.653,0.876,0.439c0.987-0.494,1.584-0.533,1.94-0.557c0.149-0.01,0.269-0.018,0.376-0.057
	c0.187-0.071,0.311-0.271,0.311-0.497c0-0.426-0.307-0.425-0.841-0.424c-0.006-0.002-0.136-0.05-0.429-0.521
	c-0.074-0.119-0.142-0.243-0.197-0.348c0.595,0.257,2.945,1.018,4.606,1.018c1.319,0,1.319-0.325,1.319-0.464
	c0-0.222-0.195-0.306-0.554-0.424c0.164-0.036,0.334-0.073,0.479-0.104c0.427-0.091,0.794-0.17,0.938-0.218
	c0.084-0.027,0.123-0.034,0.127-0.037c0.224,0.092,0.818,1.16,0.818,1.815c0,0.54-0.216,0.997-0.471,0.997
	c-0.208,0-0.432-0.041-0.433-0.122c0.007-0.02,0.055-0.071,0.086-0.104c0.082-0.087,0.194-0.207,0.261-0.434
	c0.011-0.053,0.024-0.112,0.024-0.18c0-0.348-0.253-0.591-0.615-0.591c-0.224,0-0.633,0.196-0.665,0.667
	c-0.184-0.079-0.486,0.02-0.486,0.499c0,0.531,0.442,1.096,1.289,1.096c0.001,0,0.002,0,0.003,0l0.357-0.041
	c-0.119,0.136-0.354,0.282-0.767,0.282c-0.434,0-0.947,0.378-0.947,0.698c0,0.208,0.178,0.28,0.447,0.389
	c0.012,0.005,0.023,0.01,0.037,0.015c-0.24,0.189-0.788,0.467-1.759,0.467c-1.325,0-2.667-0.563-2.667-1.64
	c0-0.806,1.033-1.522,1.849-1.522c0.011,0,1.019,0.006,1.019,0.548c0,0.055-0.029,0.083-0.063,0.098
	c-0.006-0.01-0.012-0.024-0.019-0.041c-0.127-0.269-0.518-0.297-0.681-0.297c-0.396,0-0.985,0.228-0.985,0.854
	c0,0.589,0.674,1,1.279,1c0.617,0,1.534-0.394,1.534-1.477c0-1.066-1.136-1.545-1.943-1.545c-2.06,0-2.756,1.49-2.87,1.96
	c-0.287-0.154-0.725-0.255-1.114-0.255C0.998,16.531,0,16.807,0,17.843c0,0.686,0.619,1.223,1.408,1.223
	c0.693,0,1.177-0.501,1.177-0.951c0-0.089-0.016-0.173-0.044-0.248c0.153,0.157,0.343,0.363,0.59,0.633
	c0.444,0.484,1.004,0.831,1.663,1.028l2.799,0.01l0.066-0.009c0.201-0.058,0.38-0.132,0.557-0.206v4.205h2.832v24.549h3v-3.39h2.63
	v3.39h7.75v-1.762h-2.322v-1.833h2.322v-3.2h-2.322v-1.833h2.322v-1.762h-7.75v3.166h-2.63V23.528h2.833v-4.277l-0.124-0.182
	c0.312,0.172,0.668,0.339,1.087,0.46l2.832,0.009l0.033-0.01c0.661-0.199,1.221-0.545,1.689-1.058
	c0.988-1.077,1.032-1.108,1.556-1.108c0.11,0,0.662,0.023,0.662,0.49c0,0.106-0.125,0.373-0.419,0.373
	c-0.2,0-0.281-0.081-0.293-0.048c0.004-0.02,0.013-0.052,0.021-0.083c0.021-0.08,0.03-0.12,0.03-0.164
	c0-0.207-0.135-0.415-0.436-0.415c-0.288,0-0.515,0.264-0.515,0.601c0,0.45,0.483,0.951,1.178,0.951
	c0.764,0,1.318-0.515,1.318-1.224c0-1.035-0.997-1.311-1.586-1.311c-0.381,0-0.808,0.097-1.106,0.255
	c-0.079-0.504-0.644-1.959-2.687-1.959c-0.808,0-1.944,0.479-1.944,1.545c0,1.083,0.919,1.477,1.535,1.477
	c0.604,0,1.278-0.411,1.278-1c0-0.638-0.62-0.844-0.921-0.844c-0.236,0-0.489,0.077-0.634,0.188c-0.1,0.068-0.152,0.075-0.166,0.079
	c-0.004-0.004-0.015-0.027-0.015-0.075c0-0.423,0.793-0.51,1.006-0.51c0.868,0,1.658,0.693,1.658,1.455
	c0,1.173-1.383,1.708-2.668,1.708c-0.939,0-1.843-0.37-2.106-0.578c0.044-0.008,0.087-0.014,0.109-0.016l0.377,0.051
	c0.194,0,0.347-0.148,0.347-0.338c0-0.269-0.463-0.698-1.012-0.698c-0.429,0-0.541-0.057-0.547-0.058
	c-0.027-0.031-0.087-0.123-0.142-0.214l0.395,0.041c0.863,0,1.421-0.431,1.421-1.097c0-0.317-0.146-0.522-0.374-0.522
	c-0.041,0-0.079,0.009-0.115,0.024c-0.032-0.47-0.44-0.667-0.662-0.667c-0.363,0-0.617,0.243-0.617,0.59
	c0,0.072,0.016,0.135,0.037,0.229c0.054,0.178,0.167,0.298,0.249,0.386c0.032,0.034,0.08,0.084,0.089,0.084
	c-0.032,0.051-0.264,0.142-0.614,0.142c-0.256,0-0.472-0.457-0.472-0.997c0-0.639,0.566-1.671,0.802-1.806
	c0.216,0.056,0.956,0.247,1.453,0.369c-0.288,0.123-0.445,0.208-0.445,0.405c0,0.139,0,0.465,1.319,0.465
	c1.668,0,4.017-0.762,4.604-1.018c-0.055,0.105-0.122,0.228-0.196,0.348c-0.273,0.445-0.411,0.515-0.393,0.521l-0.223-0.02
	c-0.343,0-0.539,0.198-0.539,0.542c0,0.357,0.196,0.571,0.533,0.571l0.49-0.02c0.081,0,0.218,0.014,0.299,0.031
	c0.133,0.339,0.426,0.67,0.724,0.67c0.185,0,1.215-0.242,1.215-0.649c0-0.253-0.282-0.387-0.751-0.608
	c-0.014-0.006-0.027-0.013-0.042-0.02c0.595-0.187,0.858-0.289,0.858-0.551c0-0.229-0.228-0.396-0.541-0.396
	c-0.187,0-0.398,0.061-0.585,0.115c-0.021,0.006-0.045,0.013-0.068,0.02c0.151-0.254,0.404-0.635,0.579-0.897
	c0.074-0.116,0.153-0.224,0.23-0.331c0.277-0.38,0.563-0.774,0.563-1.365c0-0.858-0.544-1.505-1.461-1.82
	C24.958,9.455,25.502,8.807,25.502,7.948z M23.432,2.024c0.301,0,0.437-0.208,0.437-0.415c0-0.048-0.013-0.092-0.032-0.165
	c-0.004-0.018-0.01-0.037-0.015-0.042c0.028-0.03,0.115-0.089,0.286-0.089c0.256,0,0.509,0.274,0.509,0.373
	c0,0.467-0.552,0.491-0.662,0.491c-0.268,0-0.409-0.008-0.618-0.163C23.366,2.021,23.398,2.024,23.432,2.024z M2.071,17.515
	c-0.302,0-0.437,0.208-0.437,0.415c0,0.047,0.012,0.091,0.031,0.164c0.005,0.019,0.01,0.037,0.015,0.043
	c-0.027,0.03-0.114,0.089-0.285,0.089c-0.262,0-0.509-0.271-0.509-0.373c0-0.467,0.551-0.491,0.661-0.491
	c0.268,0,0.41,0.008,0.62,0.163C2.137,17.518,2.104,17.515,2.071,17.515z M16.678,41.922h2.302v-2.225h1.695v2.225h2.148v1.695
	h-2.148v2.225h-1.695v-2.225h-2.302V41.922z M13.89,0.689c0.123,0,0.792,0.204,1.014,1.173c0.012,0.064,0.011,0.231,0.012,0.38
	c0.001,0.135,0.003,0.258,0.008,0.284c-0.008,0.085-0.136,0.435-0.185,0.566c-0.027,0.077-0.05,0.139-0.063,0.178
	c-0.03,0.104-0.054,0.187-0.07,0.263c-0.026-0.12-0.083-0.252-0.16-0.368c-0.021-0.035-0.086-0.117-0.167-0.211
	c-0.045-0.053-0.119-0.141-0.178-0.215h0.001c0.138-0.075,0.327-0.178,0.327-0.391c0-0.165-0.116-0.297-0.517-0.666
	c-0.057-0.053-0.104-0.096-0.121-0.114c-0.02-0.022-0.053-0.054-0.095-0.093c-0.234-0.219-0.286-0.314-0.289-0.354
	C13.407,0.922,13.533,0.689,13.89,0.689z M11.523,0.709c0.294,0,0.47,0.136,0.471,0.357c-0.019,0.089-0.259,0.3-0.36,0.391
	c-0.075,0.067-0.143,0.127-0.183,0.17c-0.312,0.32-0.326,0.584-0.326,0.634c0,0.177,0.108,0.312,0.3,0.347
	c0.061,0.006,0.18,0.017,0.282,0.031c-0.089,0.086-0.217,0.182-0.301,0.212c-0.229,0.079-0.371,0.271-0.371,0.5
	c0,0.233,0.165,0.483,0.526,0.483c0.424,0,0.92-0.453,1.211-0.78c0.408,0.397,1.141,0.966,1.514,0.966
	c0.118,0,0.215-0.053,0.273-0.141c-0.005,0.091-0.007,0.198-0.008,0.337c-0.551-0.21-1.168-0.131-1.637,0.208
	c-0.281-0.36-0.731-0.524-1.11-0.524c-0.435,0-0.681,0.138-0.848,0.254c-0.021-0.136-0.052-0.308-0.09-0.52
	c-0.045-0.25-0.107-0.591-0.107-0.673C10.76,1.841,10.995,0.709,11.523,0.709z M11.854,5.183c0,0.004,0,0.007,0,0.011
	c-0.084-0.073-0.205-0.115-0.343-0.115c-0.072,0-0.143,0.01-0.213,0.03c0.096-0.042,0.196-0.066,0.302-0.066
	C11.716,5.043,11.854,5.067,11.854,5.183z M10.845,5.479c-0.064,0.121-0.104,0.27-0.104,0.444c0,0.516,0.382,0.863,0.948,0.863
	c0.391,0,0.743-0.128,1.007-0.36c0.29,0.293,0.673,0.331,0.849,0.331c0.427,0,1.063-0.225,1.063-0.844
	c0.001-0.648-0.706-0.767-0.985-0.428c0.011-0.132,0.25-0.325,0.458-0.325c0.758,0,1.053,1.285,1.069,1.485
	c0,0-0.01,0.016-0.061,0.042c-1.002,0.547-1.837,1.354-2.317,2.016c-0.517-0.73-1.419-1.508-2.366-2.019
	c-0.044-0.023-0.054-0.038-0.056-0.059C10.351,6.386,10.535,5.859,10.845,5.479z M1.104,8.425c0.013-0.091,0.326-0.691,1.32-0.693
	l0.67,0.028C3.4,7.776,3.542,7.856,3.709,8.008c0.35,0.321,0.709,0.483,1.07,0.483c0.472,0,1.152-0.353,1.152-0.991
	c0-0.329-0.187-0.852-1.32-0.986C5.777,6.526,7.731,7.09,7.869,7.35C7.756,7.756,5.292,9.111,2.965,9.111
	C1.664,9.111,1.104,8.584,1.104,8.425z M6.679,10.26c-0.275-0.041-0.916-0.213-1.358-0.332C5.08,9.864,4.862,9.806,4.71,9.77
	c0.154-0.037,0.377-0.096,0.622-0.162c0.422-0.113,1.026-0.275,1.344-0.321c-0.04,0.13-0.084,0.303-0.085,0.484
	C6.592,9.953,6.638,10.129,6.679,10.26z M4.601,13.024c0.859-0.102,1.356-0.44,1.356-0.948c0-0.337-0.532-1.078-1.102-1.078
	c-0.201,0-0.637,0.091-0.985,0.43c-0.159,0.153-0.419,0.28-0.72,0.354c-0.154,0.029-0.391,0.064-0.644,0.064
	c-0.443,0-1.416-0.153-1.416-0.608c0-0.254,0.473-0.811,1.874-0.811c2.327,0,4.791,1.354,4.907,1.722
	C7.731,12.449,5.763,13.016,4.601,13.024z M9.033,11.505c-0.43,0-1.007-0.481-1.201-0.713c0.306-0.25,0.474-0.61,0.476-1.025
	C8.306,9.359,8.141,9.002,7.832,8.747c0.195-0.232,0.771-0.713,1.201-0.713c0.515,0,1.343,0.989,1.606,1.74
	C10.209,10.737,9.502,11.505,9.033,11.505z M10.738,18.079c-0.054-0.118-0.104-0.247-0.139-0.402
	c-0.012-0.065-0.011-0.235-0.013-0.386c-0.001-0.132-0.003-0.252-0.007-0.28c0.008-0.084,0.128-0.414,0.18-0.555
	c0.029-0.082,0.055-0.149,0.066-0.188c0.03-0.104,0.055-0.187,0.071-0.263c0.026,0.119,0.083,0.25,0.16,0.368
	c0.021,0.035,0.084,0.114,0.164,0.207c0.046,0.054,0.122,0.143,0.181,0.218h-0.001c-0.138,0.075-0.327,0.178-0.327,0.391
	c0,0.164,0.115,0.295,0.512,0.663c0.059,0.054,0.106,0.098,0.125,0.117c0.02,0.022,0.053,0.054,0.095,0.093
	c0.234,0.219,0.286,0.314,0.289,0.354c0,0.114-0.049,0.235-0.151,0.321L10.738,18.079z M12.548,22.289
	c-0.561,0-1.016-0.455-1.016-1.016s0.455-1.016,1.016-1.016s1.016,0.455,1.016,1.016S13.108,22.289,12.548,22.289z M14.273,18.678
	l-0.35,0.145c-0.258-0.018-0.414-0.145-0.415-0.35c0.019-0.089,0.259-0.3,0.36-0.391c0.075-0.067,0.143-0.127,0.183-0.17
	c0.312-0.32,0.326-0.584,0.326-0.634c0-0.176-0.108-0.311-0.3-0.347c-0.061-0.006-0.181-0.017-0.283-0.031
	c0.089-0.086,0.218-0.182,0.303-0.213c0.227-0.079,0.369-0.271,0.369-0.5c0-0.233-0.164-0.483-0.525-0.483
	c-0.425,0-0.921,0.453-1.212,0.78c-0.408-0.397-1.141-0.966-1.513-0.966c-0.118,0-0.215,0.053-0.273,0.14
	c0.005-0.091,0.007-0.198,0.008-0.336c0.551,0.209,1.167,0.131,1.637-0.208c0.281,0.36,0.731,0.524,1.11,0.524
	c0.435,0,0.681-0.139,0.847-0.254c0.021,0.135,0.052,0.308,0.09,0.52c0.046,0.25,0.107,0.591,0.107,0.673
	C14.742,17.459,14.594,18.34,14.273,18.678z M13.649,14.356c0-0.003,0-0.007,0-0.01c0.128,0.11,0.354,0.143,0.557,0.083
	c-0.096,0.042-0.196,0.066-0.303,0.066C13.787,14.495,13.649,14.471,13.649,14.356z M14.658,14.06
	c0.064-0.122,0.104-0.27,0.104-0.445c0-0.516-0.382-0.863-0.948-0.863c-0.392,0-0.743,0.128-1.007,0.36
	c-0.29-0.293-0.673-0.331-0.85-0.331c-0.428,0-1.063,0.225-1.063,0.844c0,0.646,0.701,0.769,0.984,0.428
	c-0.012,0.132-0.25,0.325-0.458,0.325c-0.757,0-1.052-1.285-1.068-1.485c0,0,0.01-0.015,0.06-0.041
	c1.001-0.547,1.837-1.354,2.318-2.017c0.517,0.731,1.419,1.508,2.366,2.02c0.044,0.022,0.054,0.038,0.056,0.059
	C15.152,13.152,14.968,13.68,14.658,14.06z M16.47,11.505c-0.502,0-1.346-0.997-1.607-1.74c0.431-0.964,1.139-1.732,1.607-1.732
	c0.43,0,1.006,0.481,1.2,0.713c-0.306,0.251-0.474,0.611-0.475,1.024c0.001,0.407,0.166,0.765,0.475,1.021
	C17.476,11.024,16.898,11.505,16.47,11.505z M24.398,11.114c-0.013,0.091-0.327,0.693-1.314,0.693l-0.675-0.028
	c-0.308-0.016-0.449-0.097-0.616-0.249c-0.352-0.32-0.711-0.482-1.07-0.482c-0.471,0-1.151,0.353-1.151,0.991
	c0,0.329,0.187,0.852,1.319,0.986c-1.165-0.012-3.119-0.576-3.257-0.836c0.113-0.406,2.576-1.761,4.903-1.761
	C23.838,10.428,24.398,10.955,24.398,11.114z M18.824,9.279C19.1,9.32,19.74,9.492,20.183,9.61c0.24,0.064,0.458,0.122,0.609,0.159
	c-0.153,0.037-0.376,0.096-0.62,0.162c-0.424,0.113-1.028,0.275-1.346,0.321c0.041-0.13,0.085-0.303,0.086-0.484
	C18.911,9.585,18.865,9.41,18.824,9.279z M22.537,9.111c-2.327,0-4.79-1.354-4.906-1.722c0.141-0.299,2.107-0.867,3.271-0.875
	c-0.859,0.102-1.356,0.44-1.356,0.948c0,0.337,0.532,1.078,1.102,1.078c0.201,0,0.638-0.091,0.986-0.43
	c0.158-0.154,0.419-0.28,0.719-0.354c0.223-0.042,0.444-0.064,0.645-0.064c0.443,0,1.416,0.153,1.416,0.608
	C24.412,8.554,23.939,9.111,22.537,9.111z"/>
<g>
</g>
<g>
</g>
<g>
</g>
<g>
</g>
<g>
</g>
<g>
</g>
<g>
</g>
<g>
</g>
<g>
</g>
<g>
</g>
<g>
</g>
<g>
</g>
<g>
</g>
<g>
</g>
<g>
</g>
</svg>
