<?xml version="1.0" encoding="iso-8859-1"?>
<!-- Generator: Adobe Illustrator 16.0.0, SVG Export Plug-In . SVG Version: 6.00 Build 0)  -->
<!DOCTYPE svg PUBLIC "-//W3C//DTD SVG 1.1//EN" "http://www.w3.org/Graphics/SVG/1.1/DTD/svg11.dtd">
<svg version="1.1" id="Layer_1" xmlns="http://www.w3.org/2000/svg" xmlns:xlink="http://www.w3.org/1999/xlink" x="0px" y="0px"
	 width="32.925px" height="49.617px" viewBox="0 0 32.925 49.617" style="enable-background:new 0 0 32.925 49.617;"
	 xml:space="preserve">
<path d="M31.116,41.215l0.05,0.389l-2.091,0.271l-0.183-1.415l2.091-0.271l0.05,0.389l1.134-0.146l-0.274-2.126l-1.135,0.147
	l0.05,0.389l-2.091,0.271l-0.482-3.731l-0.04,0.004c-0.106-0.813-0.185-1.42-0.209-1.609c-0.053-0.41,0.091-0.774,0.227-1.176
	l0.192-0.025c0.329-0.042,0.561-0.344,0.519-0.674c-0.036-0.271-0.253-0.469-0.514-0.506c0-0.011,0-0.021-0.001-0.032l-3.114,0.403
	c0.002,0.011,0.005,0.021,0.007,0.03c-0.247,0.101-0.409,0.348-0.374,0.622c0.043,0.33,0.344,0.563,0.673,0.52l0.322-0.041
	c0.244,0.335,0.475,0.678,0.526,1.077c0.026,0.202,0.104,0.806,0.208,1.61l-0.014,0.001l0.482,3.733l-2.255,0.292l-0.05-0.389
	l-1.134,0.146l0.274,2.125l1.134-0.147l-0.05-0.389l2.255-0.292l0.183,1.415l-2.254,0.292l-0.051-0.388l-1.134,0.146l0.057,0.438
	h-1.256h-2.021h-2.74v-7.39h0.59c0.266,0,0.481-0.216,0.481-0.481c0-0.229-0.163-0.412-0.376-0.461
	c0.214-0.048,0.376-0.231,0.376-0.46c0-0.266-0.215-0.481-0.481-0.481h-0.59v-0.911h0.59c0.266,0,0.481-0.216,0.481-0.482
	c0-0.132-0.053-0.251-0.138-0.338h0.196c0.358,0,0.648-0.289,0.648-0.647s-0.29-0.648-0.648-0.648h-0.129
	c0.042-0.071,0.071-0.148,0.071-0.237c0-0.175-0.097-0.32-0.236-0.403c1.706-0.666,2.946-2.245,3.442-4.382
	c0.927,0.245,1.939,0.354,2.997,0.291c0.142,1.103,0.328,2.538,0.414,3.201c0.082,0.629-0.106,1.193-0.277,1.713l-0.212,0.027
	c-0.33,0.043-0.561,0.343-0.519,0.672c0.035,0.272,0.248,0.467,0.504,0.508c0,0.003-0.001,0.006,0,0.008l3.135-0.406
	c0-0.002-0.001-0.005-0.001-0.008c0.237-0.104,0.393-0.347,0.357-0.618c-0.042-0.329-0.343-0.561-0.672-0.518l-0.092,0.011
	c-0.28-0.511-0.607-0.973-0.678-1.529c-0.071-0.547-0.271-2.096-0.423-3.27c3.741-0.8,6.373-3.573,5.997-6.481
	c-0.293-2.271-2.344-3.993-5.048-4.555l-0.083-0.648l-0.557,0.072l0.063,0.493c-0.358,0-0.802,0.103-1.22,0.232
	c0.028-0.15,0.041-0.307,0.02-0.47c-0.033-0.256-0.142-0.544-0.293-0.821c0.154-0.733,0.238-1.493,0.238-2.273
	C26.01,4.879,21.232,0,15.361,0C9.489,0,4.712,4.879,4.712,10.876c0,0.933,0.128,1.834,0.345,2.698
	c-1.792,0.491-3.198,1.573-3.786,3.131c-1.087,2.876,0.988,6.376,4.684,8.165l-0.414,1.095l-0.917-0.348l-0.221,0.584l0.917,0.348
	l-0.207,0.548L4.196,26.75l-0.221,0.584l0.917,0.347l-0.185,0.488l-0.917-0.347L3.57,28.407l0.918,0.346L0,40.628l0.954,0.36
	l0.954,0.361l5.706,2.154l-1.511-3.121l3.199-1.345l-5.705-2.156l2.799-7.408l0.778,0.294l0.22-0.583l-0.778-0.294l0.186-0.489
	l0.778,0.293l0.22-0.583l-0.778-0.294l0.208-0.549l0.777,0.294l0.222-0.584l-0.778-0.293l0.414-1.095
	c1.394,0.388,2.774,0.479,4.029,0.313c0.633,1.947,1.924,3.347,3.641,3.854c-0.055,0.078-0.094,0.169-0.094,0.271
	c0,0.089,0.03,0.166,0.072,0.237h-0.007c-0.358,0-0.648,0.29-0.648,0.648s0.29,0.647,0.648,0.647h0.074
	c-0.086,0.087-0.139,0.206-0.139,0.338c0,0.267,0.216,0.482,0.481,0.482h0.536v0.911H15.92c-0.266,0-0.481,0.216-0.481,0.481
	c0,0.229,0.163,0.412,0.377,0.46c-0.214,0.049-0.377,0.232-0.377,0.461c0,0.266,0.216,0.481,0.481,0.481h0.536v14.438h1.18h0.447
	h2.74h2.021h1.452v-0.96h-1.452v-1.99h1.452v-0.96h-1.452V43.53h1.381l0.094,0.724l1.134-0.147l-0.05-0.388l2.255-0.292l0.11,0.849
	l-0.563,0.072l0.194,1.504l2.994-0.388l-0.195-1.503l-0.839,0.108l-0.109-0.849l2.091-0.271l0.05,0.388l1.135-0.146l-0.274-2.123
	L31.116,41.215z M17.005,20.233c-0.1-0.667-0.329-1.333-0.676-1.977c0.221-0.047,0.452-0.077,0.699-0.077
	c0.416,0,0.789,0.073,1.13,0.198c-0.241,0.54-0.382,1.104-0.407,1.683C17.506,20.128,17.258,20.187,17.005,20.233z M13.409,23.103
	c0-0.514,0.052-1.026,0.153-1.52c0.553,0.097,1.118,0.157,1.696,0.163c-0.024,0.082-0.035,0.165-0.066,0.246
	c-0.326,0.863-0.968,1.514-1.744,1.878C13.424,23.616,13.409,23.359,13.409,23.103z M15.361,20.392
	c-0.469,0-0.926-0.047-1.376-0.116c0.229-0.496,0.53-0.933,0.906-1.278c0.261,0.423,0.425,0.896,0.484,1.394
	C15.37,20.391,15.365,20.392,15.361,20.392z M12.069,19.763c-0.913-0.355-1.758-0.85-2.507-1.465l0.57-0.37
	c0.927-0.604,2.046-0.727,3.072-0.339c0.077,0.029,0.143,0.074,0.216,0.107C12.858,18.253,12.401,18.95,12.069,19.763z
	 M22.654,16.455c0.074-0.008,0.146-0.002,0.22-0.006c-0.062,0.087-0.124,0.173-0.188,0.257L22.654,16.455z M20.443,17.523
	c0.448-0.451,1.013-0.793,1.658-0.965l0.082,0.631l0.122-0.016c-0.352,0.406-0.734,0.785-1.148,1.126
	C20.94,18.014,20.702,17.755,20.443,17.523z M19.463,19.304c0.019,0.023,0.041,0.044,0.06,0.067
	c-0.025,0.013-0.05,0.024-0.075,0.037C19.454,19.374,19.455,19.338,19.463,19.304z M20.194,20.554
	c0.281,0.712,0.427,1.521,0.449,2.336c-0.58-0.505-0.998-1.188-1.172-1.983C19.718,20.801,19.957,20.678,20.194,20.554z
	 M24.96,16.963c0.561-0.578,1.311-0.979,2.171-1.091c0.116-0.015,0.231-0.023,0.346-0.027l0.109,0.845l0.557-0.072l-0.096-0.745
	c1.635,0.196,2.995,1.476,3.216,3.184c0.261,2.021-1.165,3.872-3.185,4.132c-0.67,0.087-1.32-0.015-1.901-0.261l0.137-0.128
	c0.766-0.766,1.462-1.405,1.387-1.967c-0.087-0.644-0.68-1.097-1.323-1.01c-0.383,0.051-0.716,0.286-0.89,0.631l-0.063,0.125
	l-0.095-0.104c-0.259-0.285-0.642-0.426-1.024-0.374c-0.644,0.086-1.096,0.678-1.01,1.322c0.071,0.528,0.81,0.943,1.676,1.433
	l0.334,0.181c-0.5,0.389-1.105,0.655-1.777,0.742c-0.33,0.043-0.65,0.025-0.965-0.018c0.014-0.218,0.038-0.431,0.038-0.657
	c0-1.373-0.269-2.6-0.745-3.629c0.984-0.777,1.829-1.724,2.497-2.799C24.564,16.754,24.769,16.848,24.96,16.963z M6.072,10.876
	c0-5.247,4.167-9.517,9.289-9.517s9.289,4.27,9.289,9.517c0,0.408-0.034,0.808-0.083,1.202c-0.089-0.018-0.178-0.027-0.268-0.016
	c-0.824,0.107-1.328,1.471-1.221,2.295c0.02,0.151,0.067,0.29,0.127,0.422c-0.263-0.013-0.527-0.011-0.767,0.015l-0.084-0.651
	l-0.556,0.07l0.092,0.71c-1.038,0.456-1.928,1.078-2.618,1.805c-0.674-0.325-1.428-0.5-2.244-0.5c-0.685,0-1.323,0.13-1.91,0.361
	c-1.007-1.075-2.361-1.992-3.962-2.598c-1.626-0.614-3.275-0.816-4.76-0.663C6.191,12.545,6.072,11.726,6.072,10.876z M9.442,18.204
	c-0.94-0.799-1.721-1.784-2.296-2.898c0.016,0.006,0.032,0.007,0.048,0.013c1.026,0.388,1.785,1.22,2.081,2.286L9.442,18.204z
	 M10.789,23.982c-1.026-0.389-1.785-1.222-2.081-2.285L8.5,20.95l-0.649,0.423c-0.925,0.603-2.045,0.726-3.072,0.338
	c-1.762-0.666-2.654-2.643-1.988-4.404c0.463-1.225,1.561-2.013,2.776-2.167c1.146,2.734,3.361,4.884,6.103,5.924
	c-0.138,0.636-0.214,1.316-0.214,2.039c0,0.366,0.027,0.717,0.064,1.062C11.274,24.13,11.029,24.073,10.789,23.982z M17.028,28.026
	c-1.684,0-2.739-1.123-3.25-2.604c1.41-0.565,2.5-1.538,2.998-2.857c0.118-0.313,0.189-0.634,0.234-0.958
	c0.302-0.048,0.599-0.108,0.892-0.182c0.365,1.286,1.315,2.355,2.617,3.085C20.163,26.418,19.045,28.026,17.028,28.026z"/>
<g>
</g>
<g>
</g>
<g>
</g>
<g>
</g>
<g>
</g>
<g>
</g>
<g>
</g>
<g>
</g>
<g>
</g>
<g>
</g>
<g>
</g>
<g>
</g>
<g>
</g>
<g>
</g>
<g>
</g>
</svg>
