<?xml version="1.0" encoding="iso-8859-1"?>
<!-- Generator: Adobe Illustrator 16.0.0, SVG Export Plug-In . SVG Version: 6.00 Build 0)  -->
<!DOCTYPE svg PUBLIC "-//W3C//DTD SVG 1.1//EN" "http://www.w3.org/Graphics/SVG/1.1/DTD/svg11.dtd">
<svg version="1.1" id="Layer_1" xmlns="http://www.w3.org/2000/svg" xmlns:xlink="http://www.w3.org/1999/xlink" x="0px" y="0px"
	 width="22.429px" height="49.882px" viewBox="0 0 22.429 49.882" style="enable-background:new 0 0 22.429 49.882;"
	 xml:space="preserve">
<g>
	<path d="M15.618,40.298h-3.102v-5.536h-0.06c0-1.208,0-2.109,0-2.389c0-0.607,0.279-1.113,0.553-1.672h0.285
		c0.488,0,0.883-0.396,0.883-0.884c0-0.406-0.281-0.733-0.654-0.837c0.001-0.015,0.003-0.03,0.003-0.046h-4.62
		c0.001,0.015,0.003,0.03,0.005,0.044c-0.378,0.101-0.662,0.429-0.662,0.839c0,0.488,0.395,0.884,0.883,0.884h0.478
		c0.293,0.536,0.564,1.081,0.564,1.672c0,0.3,0,1.196,0,2.389h-0.021v5.536H6.81v-0.577H5.128v3.152H6.81v-0.577h3.345v2.1H6.81
		v-0.577H5.128v3.151H6.81v-0.576h3.345v1.258H9.32v2.229h4.441v-2.229h-1.245v-1.258h3.102v0.576h1.683v-3.151h-1.683v0.577h-3.102
		v-2.1h3.102v0.577h1.683v-3.152h-1.683V40.298z"/>
	<path d="M15.924,3.918V2.957h-0.826v0.731c-0.523-0.067-1.19,0-1.825,0.111c0.07-0.216,0.118-0.442,0.118-0.682
		C13.391,1.894,12.399,0,11.176,0C9.953,0,8.961,1.894,8.961,3.117c0,0.224,0.043,0.435,0.105,0.638
		C8.686,3.688,8.3,3.64,7.945,3.632V2.666H7.12v1.05C2.952,4.938,0,7.97,0,11.518c0,4.365,4.47,7.947,10.176,8.339
		c0,1.635,0,3.765,0,4.75c0,0.933-0.379,1.721-0.728,2.445H9.134c-0.488,0-0.883,0.396-0.883,0.883c0,0.403,0.273,0.727,0.64,0.835
		c0,0.003-0.002,0.007-0.002,0.011h4.651c0-0.003-0.001-0.007-0.001-0.012c0.366-0.107,0.639-0.433,0.639-0.834
		c0-0.488-0.396-0.883-0.883-0.883h-0.137c-0.313-0.799-0.702-1.535-0.702-2.36c0-0.813,0-3.109,0-4.851
		c5.609-0.462,9.973-4.011,9.973-8.324C22.429,8.149,19.763,5.248,15.924,3.918z M14.588,16.944c-0.994,0-1.922-0.272-2.723-0.739
		l0.224-0.161c1.261-0.972,2.397-1.774,2.394-2.608c-0.004-0.955-0.785-1.729-1.739-1.724c-0.568,0.002-1.099,0.284-1.417,0.753
		l-0.117,0.171l-0.119-0.17c-0.323-0.466-0.855-0.742-1.423-0.74c-0.955,0.004-1.727,0.784-1.723,1.739
		c0.003,0.786,1.004,1.529,2.175,2.408l0.453,0.327c-0.803,0.471-1.735,0.745-2.733,0.745c-2.997,0-5.427-2.43-5.427-5.427
		c0-2.751,2.051-5.02,4.707-5.373v0.935h0.825V6.096c1.235,0.023,2.368,0.459,3.269,1.176c0.927-0.738,2.098-1.181,3.374-1.181
		c0.172,0,0.342,0.01,0.51,0.026v1.253h0.826V6.264c2.35,0.595,4.091,2.718,4.091,5.253C20.015,14.515,17.585,16.944,14.588,16.944z
		"/>
</g>
<g>
</g>
<g>
</g>
<g>
</g>
<g>
</g>
<g>
</g>
<g>
</g>
<g>
</g>
<g>
</g>
<g>
</g>
<g>
</g>
<g>
</g>
<g>
</g>
<g>
</g>
<g>
</g>
<g>
</g>
</svg>
