<?xml version="1.0" encoding="iso-8859-1"?>
<!-- Generator: Adobe Illustrator 16.0.0, SVG Export Plug-In . SVG Version: 6.00 Build 0)  -->
<!DOCTYPE svg PUBLIC "-//W3C//DTD SVG 1.1//EN" "http://www.w3.org/Graphics/SVG/1.1/DTD/svg11.dtd">
<svg version="1.1" id="Layer_1" xmlns="http://www.w3.org/2000/svg" xmlns:xlink="http://www.w3.org/1999/xlink" x="0px" y="0px"
	 width="30.589px" height="49.757px" viewBox="0 0 30.589 49.757" style="enable-background:new 0 0 30.589 49.757;"
	 xml:space="preserve">
<path d="M30.566,9.117c-0.019-0.106-0.042-0.205-0.072-0.303l-0.033-0.092c-0.022-0.062-0.047-0.122-0.07-0.177l-0.048-0.098
	c-0.024-0.049-0.06-0.097-0.093-0.143l-0.068-0.085c-0.038-0.042-0.074-0.082-0.109-0.122c-0.024-0.026-0.047-0.048-0.071-0.07
	c-0.039-0.038-0.082-0.074-0.127-0.107c-0.022-0.019-0.042-0.034-0.063-0.049c-0.062-0.044-0.124-0.084-0.185-0.118
	c-0.009-0.004-0.014-0.008-0.021-0.011c-0.057-0.03-0.112-0.056-0.17-0.079l-0.013-0.004c-0.072-0.028-0.146-0.051-0.214-0.066
	c-0.077-0.018-0.154-0.029-0.225-0.033c0.04,0.004,0.082,0.001,0.124-0.008c0.318-0.059,0.682-0.401,0.867-0.813
	c0.198-0.41,0.258-0.892,0.129-1.105c-0.022-0.038-0.063-0.079-0.109-0.121c-0.012-0.009-0.024-0.019-0.032-0.028
	c-0.109-0.089-0.263-0.183-0.438-0.268l-0.039-0.021c-0.094-0.043-0.192-0.085-0.296-0.124L29.154,5.06
	c-0.103-0.037-0.21-0.073-0.319-0.104c-0.003,0-0.007-0.001-0.007-0.001c-0.108-0.031-0.216-0.053-0.322-0.074l-0.05-0.009
	c-0.104-0.018-0.203-0.031-0.305-0.035c-0.007,0.001-0.015,0.002-0.021,0c-0.093-0.002-0.182-0.001-0.262,0.006L27.83,4.847
	c-0.079,0.01-0.152,0.023-0.214,0.045c-0.014,0.002-0.024,0.007-0.035,0.011c-0.061,0.024-0.113,0.051-0.149,0.086
	c0.042-0.042,0.078-0.09,0.111-0.143l0.018-0.038c0.024-0.043,0.047-0.09,0.063-0.142l0.001-0.002
	c0.021-0.064,0.033-0.135,0.037-0.211c0.003-0.012,0.001-0.025-0.001-0.039c0.002-0.063,0.001-0.13-0.01-0.199
	c0-0.002,0-0.002,0.001-0.004c-0.01-0.056-0.027-0.116-0.047-0.176c-0.007-0.031-0.015-0.058-0.023-0.091
	c-0.031-0.086-0.072-0.176-0.127-0.268l-0.01-0.021c-0.062-0.089-0.135-0.179-0.218-0.272l-0.013-0.015
	c-0.09-0.096-0.192-0.195-0.31-0.292C26.81,2.997,26.718,2.929,26.63,2.87c-0.028-0.016-0.055-0.033-0.08-0.048
	c-0.058-0.036-0.116-0.072-0.169-0.097c-0.03-0.012-0.062-0.024-0.09-0.034c-0.05-0.021-0.098-0.037-0.145-0.049
	c-0.028-0.008-0.054-0.014-0.08-0.02c-0.043-0.01-0.086-0.016-0.127-0.021C25.917,2.6,25.895,2.597,25.87,2.595
	c-0.041-0.001-0.078,0-0.115,0.004l-0.051,0.004c-0.048,0.006-0.09,0.018-0.133,0.031c-0.004,0.002-0.009,0.002-0.014,0.005
	c-0.036,0.014-0.068,0.028-0.1,0.046l-0.005,0.006c-0.038,0.021-0.075,0.047-0.107,0.076c-0.03,0.029-0.058,0.059-0.079,0.09
	c-0.246,0.337-0.029,0.708,0.314,1.001c0.043,0.036,0.087,0.066,0.13,0.093c0.306,0.183,0.617,0.16,0.757,0.078
	c0.162-0.097,0.146-0.314-0.111-0.524c-0.095-0.079-0.285-0.256-0.357-0.147c-0.008,0.015-0.01,0.03-0.009,0.044
	c0.021,0.105,0.305,0.217,0.136,0.343c-0.018,0.011-0.037,0.018-0.058,0.023c-0.004,0.001-0.006,0.005-0.012,0.005
	c-0.039,0.007-0.092-0.004-0.149-0.028C25.86,3.728,25.809,3.7,25.752,3.653c-0.16-0.139-0.191-0.373-0.095-0.494
	c0.035-0.043,0.074-0.074,0.113-0.102c0.014-0.008,0.024-0.014,0.039-0.02c0.028-0.016,0.059-0.029,0.091-0.036l0.046-0.008
	c0.034-0.005,0.068-0.005,0.104-0.002l0.043,0.002c0.05,0.009,0.1,0.022,0.149,0.045c0.064,0.025,0.128,0.063,0.192,0.104
	c0.014,0.008,0.024,0.015,0.039,0.024c0.064,0.044,0.131,0.094,0.196,0.148c0.222,0.184,0.398,0.399,0.487,0.596
	c0.007,0.018,0.011,0.035,0.017,0.051c0.015,0.048,0.023,0.094,0.029,0.141c0.005,0.017,0.006,0.033,0.005,0.049
	c0.002,0.058-0.001,0.112-0.02,0.161l-0.002,0.001c-0.018,0.049-0.047,0.09-0.086,0.128l-0.038,0.031
	C27.029,4.499,26.99,4.52,26.947,4.54c-0.02,0.007-0.039,0.013-0.06,0.021c-0.065,0.022-0.142,0.037-0.233,0.045
	c-0.392,0.02-1.042-0.155-1.671-0.401c-0.653-0.225-1.307-0.512-1.83-0.77c-0.146-0.077-0.285-0.161-0.422-0.248
	c-0.128-0.076-0.256-0.145-0.373-0.222l-0.017-0.01c-0.413-0.273-0.755-0.57-0.939-0.866c-0.077-0.126-0.115-0.257-0.123-0.392
	v-0.01c-0.001-0.054-0.008-0.109,0.003-0.163c0.017-0.064,0.043-0.113,0.065-0.162c0.008-0.021,0.015-0.046,0.026-0.064
	c0.021-0.037,0.051-0.06,0.079-0.09l0.011-0.012c0.025-0.024,0.049-0.049,0.077-0.067c0.073-0.048,0.153-0.076,0.236-0.092
	c0.158-0.029,0.318-0.008,0.406,0.01c0.006,0.001,0.013,0.004,0.018,0.004c0.017,0.003,0.031,0.007,0.043,0.01
	c0.005,0.001,0.019,0.005,0.019,0.005c-0.254-0.208-0.583-0.402-0.916-0.539c-0.742-0.281-1.463-0.235-1.506,0.378
	c-0.04,0.574,0.483,1.155,0.6,1.287c0.019,0.02,0.027,0.031,0.027,0.031c-0.715-0.289-1.332-1.225-2.941-1.394
	c-0.574-0.077-0.926,0.112-1.128,0.266c-0.199,0.163-0.259,0.333-0.259,0.333c-0.145-0.004-0.266,0.033-0.364,0.099
	c-0.033,0.021-0.063,0.047-0.093,0.071c-0.142-0.102-0.313-0.177-0.505-0.19c-0.002,0-0.438-0.73-1.555-0.682
	c-0.764,0.029-1.246,0.291-1.616,0.53c-0.36,0.266-0.61,0.528-0.942,0.638c0,0,0.516-0.592,0.311-1.257
	c-0.039-0.115-0.089-0.21-0.155-0.292c-0.287-0.359-0.865-0.425-1.377-0.258C9.561,0.18,9.293,0.327,9.095,0.5
	c0,0,0.01-0.001,0.017-0.003c0.011,0,0.023-0.002,0.036-0.005l0.019,0.001C9.247,0.487,9.391,0.488,9.545,0.54l0.016,0.004
	c0.073,0.026,0.148,0.063,0.226,0.117c0.04,0.029,0.083,0.07,0.122,0.113c0.028,0.025,0.055,0.05,0.079,0.085
	c0.032,0.043,0.059,0.099,0.085,0.154c0.016,0.029,0.035,0.049,0.047,0.083c0.037,0.086,0.055,0.17,0.059,0.25
	c0.001,0.028-0.004,0.055-0.006,0.081c-0.004,0.053-0.01,0.105-0.024,0.155c-0.01,0.027-0.022,0.058-0.036,0.089
	c-0.018,0.044-0.04,0.088-0.069,0.13L9.978,1.884C9.945,1.924,9.91,1.963,9.869,2C9.842,2.025,9.813,2.049,9.785,2.076
	C9.74,2.111,9.692,2.15,9.643,2.188c-0.03,0.024-0.06,0.046-0.092,0.071C9.492,2.299,9.43,2.337,9.365,2.373l-0.088,0.05
	C9.076,2.532,8.848,2.617,8.618,2.7c-0.931,0.331-2.54,0.486-3.3,0.179C5.225,2.835,5.144,2.79,5.074,2.741
	C5.009,2.691,4.952,2.639,4.912,2.584C4.659,2.267,4.86,1.857,5.274,1.66c0.071-0.036,0.142-0.064,0.213-0.085l0.019-0.006
	c0.066-0.02,0.132-0.028,0.195-0.032l0.03,0.001C5.794,1.541,5.854,1.55,5.914,1.574l0.023,0.011C5.995,1.612,6.057,1.65,6.11,1.704
	C6.145,1.736,6.178,1.775,6.208,1.82C6.31,1.967,6.303,2.192,6.152,2.268C6.104,2.293,6.059,2.302,6.018,2.307l-0.026,0
	C5.953,2.308,5.918,2.303,5.888,2.291C5.856,2.277,5.825,2.26,5.804,2.237C5.642,2.065,5.9,2.051,5.914,1.958
	c0.002-0.013,0-0.028-0.011-0.044C5.886,1.884,5.861,1.869,5.836,1.861L5.812,1.859c-0.021-0.002-0.038,0-0.063,0.003L5.716,1.873
	L5.663,1.894C5.632,1.911,5.6,1.926,5.575,1.938v0L5.574,1.939C5.346,2.053,5.335,2.249,5.49,2.395C5.642,2.536,6,2.675,6.323,2.515
	V2.513c0.059-0.025,0.105-0.062,0.151-0.102L6.5,2.389C6.574,2.315,6.627,2.23,6.65,2.132l0.006-0.036
	C6.66,2.06,6.664,2.026,6.665,1.991c0.001-0.016-0.001-0.033-0.004-0.048C6.656,1.907,6.65,1.873,6.641,1.836L6.628,1.789
	c-0.022-0.052-0.047-0.105-0.085-0.16C6.519,1.594,6.49,1.558,6.459,1.521C6.428,1.485,6.39,1.449,6.35,1.418L6.345,1.412
	c-0.03-0.022-0.063-0.046-0.093-0.07L6.232,1.33C6.193,1.306,6.151,1.282,6.107,1.262L6.061,1.244
	C6.024,1.23,5.989,1.218,5.953,1.208l-0.06-0.011C5.856,1.19,5.818,1.187,5.779,1.184c-0.022-0.002-0.047-0.002-0.07-0.001
	C5.669,1.18,5.625,1.185,5.582,1.189C5.557,1.193,5.532,1.196,5.505,1.2C5.458,1.208,5.406,1.223,5.356,1.237
	C5.333,1.245,5.31,1.249,5.284,1.258C5.209,1.285,5.127,1.317,5.043,1.36C4.959,1.402,4.887,1.448,4.819,1.498l-0.063,0.05
	c-0.04,0.034-0.078,0.069-0.114,0.102L4.588,1.715l-0.07,0.108L4.48,1.896l-0.046,0.11C4.424,2.031,4.417,2.053,4.414,2.078
	C4.401,2.116,4.395,2.156,4.39,2.197l-0.007,0.06C4.379,2.313,4.378,2.37,4.384,2.423c0.001,0.007,0,0.013,0.002,0.019
	c0.007,0.05,0.014,0.098,0.026,0.146l0.003,0.011c0.02,0.063,0.043,0.123,0.067,0.179c0.028,0.063,0.064,0.123,0.103,0.178
	C4.564,2.925,4.537,2.895,4.504,2.865C4.015,2.378,2.348,2.169,2.068,2.448C2.04,2.469,2.02,2.503,2.002,2.542L1.991,2.569
	c-0.035,0.089-0.05,0.215-0.039,0.362l0.001,0.033c0.008,0.078,0.018,0.159,0.034,0.243l0.005,0.029
	C2.01,3.319,2.03,3.407,2.058,3.496C2.059,3.497,2.06,3.5,2.06,3.5c0.027,0.089,0.06,0.176,0.093,0.261L2.17,3.801
	c0.036,0.082,0.075,0.164,0.118,0.24c0.003,0.005,0.008,0.01,0.01,0.016c0.04,0.071,0.086,0.137,0.132,0.2l0.021,0.028
	C2.501,4.346,2.55,4.4,2.603,4.446c0.007,0.01,0.018,0.017,0.029,0.026c0.053,0.045,0.109,0.083,0.162,0.108
	C2.729,4.552,2.66,4.527,2.586,4.506L2.535,4.495c-0.059-0.016-0.121-0.03-0.185-0.038L2.348,4.456
	C2.267,4.444,2.185,4.438,2.102,4.444C2.089,4.443,2.075,4.446,2.063,4.448C1.993,4.453,1.925,4.46,1.855,4.474
	c-0.001,0.002-0.001,0.002-0.003,0c-0.054,0.013-0.11,0.033-0.163,0.052C1.66,4.536,1.634,4.543,1.604,4.553
	c-0.075,0.032-0.15,0.073-0.225,0.12L1.362,4.682C1.288,4.731,1.219,4.791,1.149,4.858l-0.011,0.01
	c-0.069,0.073-0.141,0.15-0.192,0.25c-0.042,0.08-0.075,0.156-0.1,0.229C0.84,5.371,0.833,5.394,0.828,5.415
	c-0.014,0.048-0.026,0.097-0.032,0.14C0.794,5.579,0.792,5.603,0.79,5.625C0.788,5.664,0.786,5.703,0.791,5.74
	c0.002,0.021,0.005,0.042,0.008,0.063c0.007,0.035,0.014,0.066,0.025,0.1c0.005,0.017,0.01,0.035,0.018,0.053
	c0.014,0.032,0.03,0.062,0.048,0.089l0.024,0.042C0.938,6.124,0.968,6.158,1,6.19c0.003,0.003,0.005,0.006,0.011,0.01
	c0.028,0.028,0.058,0.053,0.088,0.078l0.009,0.003c0.039,0.03,0.084,0.06,0.128,0.083c0.047,0.025,0.09,0.046,0.134,0.063
	c0.468,0.182,0.859,0.014,1.015-0.294C2.405,6.095,2.419,6.058,2.43,6.02C2.499,5.759,2.355,5.527,2.2,5.419
	C2.023,5.3,1.781,5.317,1.658,5.53C1.613,5.612,1.505,5.776,1.656,5.828c0.019,0.006,0.036,0.006,0.05,0.004
	c0.106-0.022,0.104-0.258,0.315-0.13c0.019,0.012,0.034,0.027,0.05,0.044l0.011,0.008C2.108,5.785,2.12,5.829,2.118,5.876
	c0.001,0.04-0.005,0.083-0.031,0.133C2.01,6.151,1.752,6.184,1.573,6.11C1.511,6.084,1.46,6.055,1.414,6.024L1.375,5.994
	C1.348,5.972,1.32,5.947,1.301,5.923L1.273,5.886c-0.02-0.025-0.032-0.053-0.043-0.08L1.218,5.772
	C1.206,5.732,1.199,5.691,1.203,5.65C1.2,5.598,1.213,5.544,1.229,5.489c0.005-0.01,0.008-0.02,0.011-0.032
	c0.02-0.053,0.043-0.11,0.074-0.166c0.11-0.179,0.279-0.322,0.461-0.4c0.015-0.008,0.03-0.012,0.046-0.017
	c0.043-0.016,0.089-0.028,0.134-0.036c0.017-0.004,0.034-0.007,0.05-0.008c0.061-0.007,0.121-0.009,0.182,0.001l0.002,0
	c0.06,0.009,0.118,0.03,0.177,0.057l0.051,0.028C2.459,4.94,2.498,4.968,2.541,5c0.016,0.015,0.033,0.029,0.051,0.045
	c0.055,0.051,0.107,0.11,0.159,0.181c0.428,0.65,0.294,2.032,0.054,2.91L2.674,8.501c-0.041,0.112-0.09,0.218-0.143,0.32
	L2.525,8.834C2.317,9.18,2.133,9.497,1.818,9.658C1.692,9.727,1.55,9.765,1.393,9.774L1.381,9.775
	C1.317,9.778,1.255,9.786,1.187,9.779c-0.079-0.012-0.145-0.032-0.208-0.05c-0.029-0.006-0.06-0.011-0.085-0.02
	c-0.05-0.018-0.085-0.041-0.131-0.063l-0.018-0.01c-0.036-0.02-0.071-0.04-0.101-0.064c-0.079-0.06-0.136-0.127-0.183-0.197
	C0.38,9.24,0.357,9.103,0.35,9.027c0.002-0.005,0.002-0.011,0.001-0.014c0-0.014-0.001-0.027-0.002-0.038
	C0.35,8.97,0.351,8.959,0.351,8.959C0.189,9.187,0.037,9.465,0.012,9.77c-0.036,0.332,0.013,0.664,0.163,0.905
	c0.159,0.246,0.433,0.401,0.796,0.402c0.656-0.012,1.17-0.493,1.294-0.597c0.019-0.017,0.026-0.025,0.026-0.025
	c-0.07,0.32-0.308,0.61-0.466,1.026c-0.19,0.406-0.271,0.954-0.021,1.672c0.209,0.52,0.534,0.812,0.84,0.95
	c0.291,0.143,0.513,0.154,0.513,0.154c0.073,0.123,0.177,0.218,0.292,0.289c0.039,0.024,0.08,0.044,0.119,0.064
	c-0.03,0.14-0.017,0.3,0.081,0.464c0,0-0.132,0.13-0.181,0.389c-0.063,0.263,0.018,0.639,0.402,1.1
	c0.555,0.614,1.16,0.929,1.693,1.091c0.523,0.185,0.971,0.243,1.34,0.415c0,0-0.241-0.017-0.553,0.017
	c-0.314,0.041-0.689,0.096-0.946,0.315c-0.085,0.076-0.144,0.157-0.177,0.241c-0.155,0.392,0.274,0.832,0.859,1.159
	c0.322,0.188,0.702,0.285,1.037,0.346c0,0-0.011-0.007-0.015-0.011c-0.01-0.008-0.022-0.014-0.037-0.023l-0.015-0.014
	c-0.073-0.054-0.195-0.155-0.275-0.289l-0.007-0.014C6.74,19.73,6.714,19.659,6.703,19.58c-0.004-0.044,0-0.093,0.01-0.141
	c0.002-0.032,0.002-0.063,0.02-0.097c0.014-0.043,0.05-0.089,0.081-0.135c0.016-0.025,0.021-0.048,0.044-0.073
	c0.053-0.068,0.121-0.12,0.197-0.163c0.024-0.015,0.057-0.022,0.084-0.035c0.053-0.025,0.109-0.046,0.168-0.062
	c0.034-0.005,0.075-0.012,0.115-0.019c0.058-0.008,0.116-0.017,0.18-0.019c0.042,0.001,0.085,0.001,0.132,0.003
	c0.063,0.001,0.128,0.005,0.196,0.015c0.044,0.005,0.089,0.012,0.138,0.018c0.067,0.015,0.142,0.031,0.214,0.045
	c0.049,0.008,0.091,0.016,0.141,0.024c0.083,0.017,0.167,0.038,0.252,0.061l0.118,0.031c0.262,0.069,0.519,0.186,0.782,0.274
	c1.043,0.445,2.518,1.282,2.892,1.95c0.042,0.087,0.072,0.162,0.086,0.234c0.014,0.07,0.017,0.136,0.003,0.192
	c-0.058,0.345-0.579,0.453-1.104,0.34c-0.093-0.025-0.179-0.054-0.257-0.086l-0.023-0.009c-0.072-0.03-0.138-0.068-0.191-0.106
	l-0.028-0.02c-0.049-0.042-0.094-0.085-0.121-0.136l-0.009-0.022c-0.027-0.054-0.043-0.113-0.044-0.179
	c0-0.041,0.007-0.084,0.021-0.129c0.044-0.148,0.249-0.273,0.44-0.222c0.063,0.018,0.11,0.041,0.148,0.065l0.021,0.016
	c0.034,0.023,0.059,0.048,0.074,0.076c0.016,0.028,0.024,0.056,0.023,0.084c-0.012,0.202-0.245,0.045-0.338,0.09
	c-0.014,0.007-0.023,0.017-0.029,0.033c-0.011,0.028-0.006,0.052,0.01,0.073l0.021,0.018c0.014,0.014,0.031,0.024,0.054,0.037
	l0.039,0.016l0.063,0.021c0.042,0.011,0.083,0.022,0.112,0.03l0.001,0.001h0.001c0.295,0.072,0.473-0.053,0.468-0.231
	c-0.006-0.184-0.187-0.455-0.596-0.575l-0.001,0.001c-0.073-0.022-0.144-0.032-0.216-0.038l-0.041-0.003
	c-0.124-0.005-0.245,0.01-0.352,0.051c-0.014,0.007-0.027,0.013-0.039,0.018c-0.032,0.018-0.067,0.034-0.098,0.056
	c-0.015,0.009-0.029,0.021-0.041,0.031c-0.027,0.024-0.053,0.049-0.077,0.078l-0.029,0.037c-0.029,0.044-0.054,0.091-0.072,0.146
	c-0.012,0.037-0.021,0.074-0.025,0.117c-0.007,0.04-0.006,0.084-0.001,0.126l0.001,0.008c0.001,0.031,0.009,0.064,0.016,0.098
	l0.008,0.018c0.012,0.039,0.025,0.077,0.044,0.114l0.025,0.04c0.018,0.029,0.035,0.058,0.06,0.087l0.042,0.043
	c0.025,0.028,0.054,0.055,0.084,0.081c0.017,0.016,0.037,0.031,0.06,0.045c0.032,0.027,0.071,0.053,0.113,0.077
	c0.025,0.014,0.047,0.028,0.074,0.043c0.049,0.025,0.105,0.05,0.162,0.074c0.026,0.011,0.05,0.021,0.08,0.034
	c0.088,0.034,0.188,0.065,0.297,0.095c0.11,0.032,0.212,0.039,0.311,0.05l0.098,0.005c0.063,0.001,0.127,0.003,0.187,0.004
	l0.104-0.006c0.052-0.007,0.103-0.013,0.152-0.019l0.093-0.02c0.048-0.013,0.091-0.024,0.134-0.036
	c0.029-0.008,0.056-0.018,0.078-0.029c0.043-0.015,0.087-0.034,0.124-0.056c0.021-0.011,0.038-0.021,0.057-0.03
	c0.053-0.03,0.102-0.063,0.143-0.099c0.005-0.004,0.012-0.008,0.014-0.012c0.038-0.032,0.071-0.069,0.101-0.107l0.007-0.009
	c0.039-0.049,0.069-0.101,0.097-0.153c0.028-0.056,0.05-0.115,0.064-0.172c-0.01,0.031-0.012,0.067-0.011,0.105
	c0,0.027,0.015,0.06,0.02,0.089v16.816h-3.87V38H7.338v3.647h1.945V40.98h3.87v2.429h-3.87v-0.667H7.338v3.647h1.945v-0.667h3.87
	v1.457h-0.967v2.579h5.139v-2.579h-1.44v-1.457h3.59v0.667h1.945v-3.647h-1.945v0.667h-3.59V40.98h3.59v0.667h1.945V38h-1.945v0.667
	h-3.59V22.481c0.016-0.036,0.034-0.073,0.048-0.109l0.006-0.016c0.022-0.07,0.043-0.138,0.055-0.205l0.005-0.032
	c0.009-0.066,0.014-0.13,0.008-0.19c0.002-0.011,0-0.022-0.002-0.033c-0.008-0.06-0.021-0.117-0.045-0.165
	c0.029,0.057,0.066,0.114,0.108,0.17l0.032,0.036c0.034,0.044,0.073,0.089,0.119,0.133v0.001c0.056,0.054,0.118,0.106,0.189,0.154
	c0.009,0.009,0.021,0.015,0.034,0.022c0.058,0.041,0.12,0.078,0.188,0.114c0.003-0.001,0.003-0.001,0.003,0.001
	c0.054,0.025,0.113,0.049,0.173,0.07c0.03,0.013,0.059,0.024,0.09,0.037c0.086,0.029,0.178,0.051,0.276,0.069l0.021,0.006
	c0.102,0.019,0.202,0.02,0.309,0.018l0.018,0.001c0.111-0.005,0.229-0.017,0.348-0.041c0.098-0.02,0.184-0.042,0.261-0.069
	c0.024-0.009,0.048-0.018,0.067-0.026c0.05-0.019,0.098-0.039,0.139-0.06c0.021-0.013,0.041-0.025,0.06-0.036
	c0.035-0.02,0.065-0.042,0.091-0.066c0.018-0.013,0.032-0.026,0.045-0.041c0.023-0.023,0.043-0.046,0.063-0.072
	c0.009-0.013,0.021-0.027,0.029-0.042c0.015-0.026,0.025-0.054,0.032-0.083l0.014-0.04c0.011-0.038,0.015-0.077,0.016-0.116
	c-0.001-0.005,0-0.008-0.001-0.014c-0.001-0.034-0.001-0.068-0.008-0.101l-0.002-0.008c-0.009-0.042-0.019-0.086-0.032-0.128
	c-0.018-0.043-0.035-0.082-0.056-0.119c-0.211-0.389-0.657-0.536-1.034-0.461c-0.049,0.009-0.09,0.021-0.13,0.036
	c-0.267,0.11-0.337,0.355-0.299,0.51c0.044,0.183,0.248,0.307,0.516,0.253c0.099-0.019,0.318-0.044,0.242-0.167
	c-0.012-0.016-0.024-0.027-0.039-0.035c-0.102-0.053-0.289,0.084-0.354-0.122c-0.006-0.019-0.006-0.038-0.004-0.057l-0.002-0.011
	c0.006-0.035,0.03-0.067,0.07-0.093c0.032-0.023,0.071-0.044,0.134-0.056c0.176-0.034,0.409,0.111,0.486,0.265
	c0.029,0.054,0.044,0.102,0.056,0.148l0.007,0.041c0.004,0.031,0.006,0.062,0.002,0.089l-0.009,0.037
	c-0.007,0.026-0.019,0.05-0.032,0.073l-0.017,0.027c-0.022,0.03-0.051,0.058-0.085,0.08c-0.042,0.03-0.095,0.053-0.151,0.074
	c-0.011,0.004-0.021,0.008-0.034,0.012c-0.059,0.019-0.12,0.036-0.189,0.049c-0.232,0.04-0.473,0.045-0.684-0.027
	c-0.019-0.005-0.035-0.012-0.051-0.019c-0.049-0.018-0.094-0.039-0.138-0.063c-0.016-0.006-0.03-0.016-0.046-0.026
	c-0.055-0.033-0.104-0.068-0.145-0.112v-0.002c-0.04-0.042-0.071-0.089-0.098-0.142l-0.019-0.048
	c-0.016-0.041-0.024-0.082-0.031-0.127c-0.001-0.019-0.004-0.037-0.005-0.058c-0.004-0.063,0.003-0.131,0.017-0.205
	c0.194-0.63,1.413-1.431,2.36-1.735l0.407-0.121c0.128-0.034,0.257-0.059,0.385-0.079l0.018-0.002c0.45-0.058,0.875-0.07,1.236,0.05
	c0.15,0.05,0.286,0.127,0.405,0.229c0.004,0.003,0.005,0.006,0.011,0.009c0.048,0.04,0.098,0.079,0.14,0.128
	c0.049,0.06,0.077,0.114,0.109,0.167c0.015,0.022,0.033,0.045,0.043,0.066c0.02,0.042,0.026,0.079,0.039,0.12l0.005,0.018
	c0.009,0.034,0.019,0.068,0.019,0.1c0.007,0.083-0.008,0.155-0.032,0.22c-0.053,0.122-0.149,0.204-0.207,0.246
	c-0.003,0.002-0.009,0.004-0.011,0.007c-0.012,0.007-0.021,0.014-0.028,0.02c-0.005,0.001-0.014,0.006-0.014,0.006
	c0.304,0.003,0.629-0.05,0.91-0.147c0.616-0.223,0.954-0.705,0.458-1.222c-0.466-0.486-1.25-0.619-1.431-0.649
	c-0.026-0.004-0.041-0.007-0.041-0.007c0.331-0.113,0.76-0.081,1.266-0.108c0.484-0.05,1.067-0.148,1.6-0.559
	c0.784-0.594,0.338-1.32,0.338-1.32c0.087-0.088,0.13-0.191,0.142-0.3c0.004-0.037,0.003-0.075,0.003-0.111
	c0.176,0.002,0.349-0.031,0.473-0.144c0,0,0.206,0.08,0.504,0.074c0.288-0.012,0.709-0.084,1.012-0.458
	c0.891-1.014,0.358-1.979,0.538-2.57c0,0,0.058,0.199,0.199,0.454c0.142,0.254,0.366,0.568,0.714,0.768
	c0.119,0.068,0.231,0.112,0.338,0.135c0.479,0.102,0.871-0.239,1.035-0.73c0.08-0.278,0.104-0.591,0.063-0.87
	c0,0-0.005,0.009-0.007,0.014c-0.007,0.008-0.012,0.018-0.018,0.03l-0.011,0.012c-0.039,0.063-0.121,0.165-0.255,0.233l-0.014,0.007
	c-0.064,0.032-0.141,0.054-0.229,0.065c-0.051,0.005-0.11,0.001-0.171-0.004c-0.038-0.001-0.075-0.001-0.118-0.013
	c-0.058-0.012-0.122-0.04-0.186-0.065c-0.035-0.012-0.063-0.016-0.1-0.033c-0.098-0.043-0.182-0.099-0.254-0.161
	c-0.025-0.02-0.045-0.046-0.066-0.067c-0.049-0.045-0.09-0.09-0.128-0.14c-0.018-0.029-0.036-0.062-0.056-0.095
	c-0.028-0.048-0.057-0.097-0.078-0.149c-0.012-0.035-0.023-0.072-0.035-0.109c-0.021-0.054-0.035-0.107-0.046-0.164
	c-0.009-0.039-0.019-0.078-0.03-0.121c-0.009-0.059-0.02-0.122-0.03-0.187c-0.003-0.04-0.008-0.077-0.014-0.119
	c-0.006-0.07-0.006-0.143-0.004-0.214v-0.102c0.022-0.218,0.021-0.453,0.054-0.681c0.087-0.465,0.227-1.021,0.433-1.536
	c0.169-0.515,0.423-0.996,0.699-1.204c0.077-0.051,0.149-0.089,0.222-0.113c0.074-0.023,0.146-0.035,0.219-0.031
	c0.212,0.002,0.412,0.119,0.577,0.303c0.151,0.182,0.251,0.431,0.291,0.684c0.013,0.089,0.021,0.172,0.018,0.249l-0.001,0.021
	c-0.002,0.072-0.016,0.135-0.034,0.191L30.14,9.578c-0.024,0.052-0.062,0.096-0.108,0.126l-0.024,0.011
	c-0.054,0.029-0.114,0.05-0.192,0.056c-0.046,0.004-0.1,0-0.155-0.006c-0.186-0.027-0.401-0.199-0.435-0.38
	c-0.009-0.059-0.004-0.104,0.007-0.142l0.008-0.021c0.012-0.032,0.03-0.059,0.055-0.076c0.024-0.017,0.053-0.029,0.084-0.031
	c0.238-0.012,0.163,0.219,0.256,0.3c0.012,0.012,0.029,0.02,0.05,0.024c0.038,0.007,0.063-0.001,0.08-0.018l0.01-0.02
	c0.01-0.015,0.015-0.032,0.02-0.054V9.311L29.788,9.25c-0.005-0.039-0.013-0.079-0.016-0.107l-0.001-0.001V9.141
	c-0.042-0.281-0.247-0.432-0.453-0.405c-0.199,0.028-0.468,0.23-0.412,0.61l-0.001,0.001c0.01,0.067,0.029,0.132,0.055,0.197
	l0.014,0.038c0.044,0.113,0.098,0.218,0.184,0.311c0.012,0.012,0.022,0.022,0.032,0.032c0.032,0.029,0.063,0.058,0.1,0.083
	c0.016,0.014,0.033,0.025,0.049,0.034c0.038,0.023,0.077,0.044,0.118,0.063l0.053,0.025c0.062,0.022,0.126,0.042,0.195,0.052
	c0.045,0.008,0.093,0.012,0.145,0.015c0.048,0.001,0.1-0.002,0.146-0.01l0.008-0.001c0.037-0.004,0.074-0.014,0.109-0.023
	l0.019-0.008c0.04-0.014,0.08-0.03,0.118-0.052l0.037-0.025c0.027-0.02,0.054-0.039,0.081-0.063l0.038-0.041
	c0.022-0.027,0.044-0.055,0.063-0.086c0.013-0.018,0.022-0.037,0.031-0.059c0.021-0.032,0.035-0.071,0.049-0.112l0.025-0.073
	c0.01-0.047,0.012-0.104,0.015-0.158c0-0.026,0.002-0.05,0.001-0.08C30.588,9.32,30.583,9.223,30.566,9.117z M25.591,11.177
	l-0.034,0.073c-0.022,0.052-0.047,0.103-0.073,0.151c-0.018,0.027-0.036,0.051-0.054,0.077c-0.027,0.04-0.053,0.08-0.086,0.114
	c-0.022,0.024-0.043,0.046-0.067,0.065c-0.039,0.03-0.079,0.057-0.121,0.08c-0.029,0.015-0.06,0.03-0.087,0.045
	c-0.047,0.02-0.094,0.034-0.143,0.046c-0.031,0.009-0.062,0.018-0.096,0.022c-0.055,0.009-0.115,0.01-0.172,0.01
	c-0.028-0.001-0.063-0.001-0.09-0.001c-0.094-0.009-0.187-0.026-0.29-0.057c-0.038-0.011-0.062-0.024-0.099-0.037
	c-0.063-0.022-0.13-0.042-0.184-0.067c-0.04-0.018-0.072-0.037-0.103-0.056c-0.054-0.028-0.104-0.057-0.146-0.085
	c-0.069-0.048-0.124-0.095-0.163-0.139l-0.009-0.009c-0.081-0.091-0.104-0.167-0.11-0.21c-0.003-0.004-0.003-0.008-0.002-0.009
	c-0.001-0.008-0.002-0.015-0.002-0.02c0.001-0.003,0.001-0.008,0.001-0.008c-0.164,0.093-0.282,0.215-0.336,0.352
	c-0.115,0.242-0.068,0.541,0.346,0.813c0.09,0.06,0.199,0.117,0.325,0.169c0.37,0.153,0.731,0.169,1.007,0.137
	c0.274-0.031,0.458-0.106,0.458-0.106c-0.317,0.462-1.239,0.527-1.787,1.307c-0.182,0.3-0.195,0.577-0.118,0.817
	c0.069,0.234,0.195,0.401,0.195,0.401c-0.084,0.114-0.107,0.244-0.091,0.382c-0.044-0.002-0.084-0.002-0.124,0
	c-0.12,0.007-0.232,0.034-0.321,0.098c0,0-0.773-0.368-1.423,0.021c-0.449,0.277-0.681,0.595-0.847,0.922
	c-0.184,0.304-0.311,0.603-0.558,0.766c0,0,0.004-0.011,0.009-0.03c0.05-0.141,0.189-0.718-0.184-1.247
	c-0.409-0.577-0.895-0.607-1.268-0.434c-0.176,0.076-0.325,0.205-0.429,0.364c0,0,0.01,0,0.013,0
	c0.007-0.003,0.017-0.003,0.025-0.005l0.011,0c0.055-0.003,0.158,0.004,0.286,0.059c0.064,0.028,0.134,0.067,0.207,0.125
	c0.028,0.022,0.058,0.048,0.087,0.077c0.002,0.002,0.008,0.009,0.013,0.014c0.032,0.032,0.064,0.06,0.097,0.098
	c0.013,0.019,0.029,0.043,0.043,0.063c0.039,0.052,0.077,0.101,0.115,0.164c0.031,0.055,0.046,0.108,0.066,0.161l0.003,0.014
	c0.047,0.128,0.061,0.248,0.041,0.366c-0.048,0.28-0.271,0.526-0.609,0.677c-0.006,0.003-0.009,0.004-0.012,0.007
	c-0.096,0.046-0.199,0.089-0.308,0.125c-0.118,0.037-0.234,0.078-0.364,0.095c-0.925,0.153-2.347-0.275-2.74-0.915
	c-0.045-0.069-0.078-0.133-0.106-0.196c-0.008-0.021-0.015-0.037-0.022-0.056c-0.017-0.045-0.028-0.085-0.037-0.128
	c-0.004-0.017-0.007-0.033-0.01-0.048c-0.009-0.054-0.011-0.104-0.005-0.147v-0.002c0.005-0.045,0.018-0.087,0.034-0.125
	c0.005-0.012,0.009-0.021,0.016-0.03c0.017-0.028,0.031-0.052,0.051-0.075c0.006-0.008,0.013-0.017,0.021-0.023
	c0.09-0.082,0.216-0.151,0.361-0.156c0.044-0.001,0.087,0,0.128,0.005l0.024,0.003c0.042,0.008,0.084,0.018,0.123,0.036
	c0.033,0.014,0.063,0.035,0.092,0.055l0.025,0.021c0.021,0.019,0.041,0.039,0.061,0.061l0.027,0.034
	c0.018,0.024,0.036,0.053,0.052,0.083l0.022,0.035c0.021,0.045,0.041,0.093,0.059,0.149c0.05,0.159-0.003,0.343-0.134,0.351
	c-0.045,0.003-0.082-0.007-0.114-0.02c-0.04-0.016-0.074-0.04-0.097-0.071l-0.005-0.011c-0.012-0.015-0.022-0.034-0.028-0.052
	c-0.063-0.175,0.063-0.138,0.121-0.167c0.017-0.011,0.028-0.028,0.021-0.064c-0.027-0.13-0.165-0.105-0.231-0.102
	c-0.18,0.01-0.234,0.17-0.17,0.349c0.058,0.153,0.228,0.364,0.466,0.403c0.034,0.005,0.068,0.007,0.104,0.005
	c0.297-0.016,0.482-0.256,0.338-0.673c-0.012-0.037-0.029-0.079-0.049-0.121c-0.017-0.039-0.041-0.083-0.063-0.122l-0.003-0.007
	c-0.018-0.028-0.038-0.059-0.059-0.089l-0.01-0.014c-0.024-0.029-0.05-0.061-0.079-0.095l-0.03-0.03
	c-0.022-0.02-0.044-0.042-0.068-0.065l-0.04-0.031c-0.024-0.018-0.049-0.037-0.075-0.052l-0.047-0.029
	c-0.025-0.013-0.055-0.026-0.084-0.041c-0.016-0.008-0.034-0.015-0.051-0.021c-0.032-0.012-0.068-0.021-0.104-0.028
	c-0.015-0.002-0.032-0.008-0.048-0.01c-0.054-0.007-0.109-0.011-0.168-0.009c-0.072,0.004-0.137,0.017-0.195,0.036l-0.01,0.006
	c-0.056,0.019-0.104,0.046-0.149,0.069l-0.018,0.014c-0.04,0.025-0.079,0.053-0.111,0.088l-0.033,0.044
	c-0.023,0.029-0.047,0.057-0.065,0.089h-0.002c-0.022,0.041-0.043,0.084-0.059,0.129c-0.007,0.008-0.009,0.016-0.012,0.025
	c-0.036,0.101-0.058,0.208-0.068,0.316l-0.006,0.035c-0.003,0.061-0.004,0.121-0.001,0.18c-0.003-0.051-0.017-0.107-0.034-0.167
	l-0.012-0.033c-0.021-0.06-0.048-0.121-0.078-0.185l-0.017-0.03c-0.03-0.06-0.065-0.124-0.105-0.193
	c-0.002-0.006-0.005-0.01-0.007-0.014c-0.042-0.066-0.087-0.136-0.132-0.208l-0.023-0.033c-0.047-0.07-0.094-0.14-0.143-0.212
	l-0.004-0.005c-0.047-0.066-0.097-0.132-0.141-0.195l-0.016-0.02c-0.046-0.057-0.09-0.112-0.133-0.165l-0.018-0.022
	c-0.08-0.094-0.151-0.163-0.209-0.201c-0.005-0.005-0.013-0.009-0.018-0.011c-0.025-0.016-0.049-0.027-0.065-0.025
	c-0.185-0.002-0.667,0.99-0.68,1.57c0.001,0.04,0.005,0.074,0.013,0.109c-0.013-0.06-0.029-0.121-0.051-0.182
	c-0.02-0.056-0.042-0.11-0.066-0.164l-0.005-0.01c-0.02-0.039-0.041-0.081-0.063-0.123c-0.002-0.004-0.006-0.01-0.009-0.016
	c-0.023-0.046-0.052-0.09-0.081-0.133c-0.01-0.013-0.021-0.027-0.031-0.042l-0.066-0.084c-0.013-0.014-0.028-0.028-0.041-0.044
	l-0.071-0.068l-0.047-0.04l-0.078-0.053l-0.051-0.029c-0.03-0.015-0.063-0.027-0.095-0.038l-0.048-0.018
	c-0.051-0.016-0.105-0.018-0.159-0.029c-0.054-0.008-0.105-0.008-0.15-0.005c-0.015,0-0.027,0.005-0.041,0.007
	c-0.031,0.004-0.063,0.009-0.087,0.021c-0.016,0.003-0.03,0.009-0.043,0.016c-0.025,0.01-0.048,0.022-0.068,0.035
	c-0.013,0.008-0.026,0.015-0.039,0.025c-0.018,0.014-0.038,0.031-0.055,0.047l-0.03,0.029c-0.018,0.023-0.035,0.043-0.05,0.063
	l-0.022,0.03c-0.018,0.032-0.036,0.062-0.052,0.091l-0.009,0.017l-0.034,0.085l-0.001,0.006c-0.016,0.04-0.027,0.082-0.036,0.12
	c-0.007,0.042-0.013,0.082-0.019,0.118c-0.007,0.058-0.007,0.111-0.002,0.163l0.005,0.045c0.006,0.036,0.013,0.069,0.022,0.101
	c0.003,0.015,0.01,0.028,0.016,0.042c0.012,0.032,0.027,0.061,0.044,0.087c0.004,0.01,0.01,0.02,0.015,0.031
	c0.055,0.075,0.125,0.135,0.203,0.174l0.026,0.011c0.047,0.021,0.094,0.037,0.144,0.045c0.279,0.05,0.433-0.222,0.447-0.387
	c0.019-0.178-0.076-0.329-0.246-0.347v0c-0.019-0.003-0.043-0.006-0.065-0.01c-0.013-0.001-0.025-0.001-0.038,0l-0.022,0
	c-0.015,0.004-0.025,0.01-0.036,0.017c-0.004,0.004-0.01,0.006-0.013,0.01c-0.011,0.013-0.021,0.036-0.02,0.066
	c0.002,0.017,0.005,0.031,0.011,0.042c0.045,0.077,0.198,0.004,0.177,0.206c-0.003,0.027-0.013,0.051-0.024,0.072
	c-0.013,0.02-0.033,0.036-0.056,0.047l-0.016,0.008c-0.026,0.008-0.059,0.014-0.099,0.008c-0.127-0.019-0.218-0.209-0.206-0.367
	c0.002-0.047,0.009-0.091,0.017-0.129c0.017-0.063,0.039-0.112,0.063-0.154l0.008-0.018c0.026-0.039,0.057-0.067,0.09-0.088
	l0.017-0.011c0.036-0.02,0.072-0.033,0.114-0.039c0.003,0,0.008,0,0.015-0.003c0.042-0.004,0.089-0.002,0.14,0.005
	c0.285,0.016,0.561,0.236,0.599,0.598c0.014,0.12-0.001,0.255-0.062,0.402c-0.209,0.602-1.511,1-2.452,0.73
	c-0.227-0.045-0.435-0.151-0.631-0.249l-0.086-0.05c-0.063-0.035-0.122-0.07-0.179-0.107c-0.032-0.024-0.06-0.044-0.09-0.068
	c-0.046-0.039-0.09-0.078-0.126-0.12C8.927,17.057,8.903,17.029,8.883,17c-0.034-0.041-0.064-0.083-0.091-0.123
	c-0.017-0.029-0.034-0.059-0.05-0.086c-0.021-0.045-0.035-0.088-0.05-0.133c-0.01-0.029-0.02-0.056-0.024-0.085
	c-0.008-0.048-0.007-0.098-0.004-0.145c0.001-0.025,0.002-0.052,0.004-0.075c0.013-0.075,0.037-0.148,0.076-0.225
	c0.014-0.029,0.031-0.045,0.047-0.071c0.026-0.047,0.056-0.096,0.086-0.132c0.021-0.03,0.043-0.05,0.067-0.071
	c0.034-0.037,0.07-0.07,0.104-0.096c0.06-0.044,0.116-0.076,0.168-0.097l0.01-0.004c0.108-0.042,0.197-0.041,0.248-0.035
	c0.005,0,0.008,0,0.01,0.001c0.01,0.002,0.019,0.003,0.023,0.005c0.004,0,0.01,0.001,0.01,0.001
	c-0.095-0.166-0.247-0.281-0.382-0.383c-0.244-0.175-0.588-0.187-0.903,0.05c-0.072,0.056-0.146,0.126-0.214,0.214
	c-0.203,0.255-0.267,0.562-0.237,0.792c0.021,0.235,0.101,0.411,0.101,0.411c-0.26-0.189-0.4-0.502-0.547-0.845
	c-0.172-0.328-0.323-0.691-0.704-1.038c-0.257-0.263-0.599-0.349-0.849-0.403C5.522,14.379,5.313,14.4,5.313,14.4
	c-0.097-0.119-0.243-0.192-0.407-0.243c0.015-0.032,0.026-0.063,0.034-0.095c0.028-0.096,0.031-0.194-0.008-0.293
	c0,0,0.156-0.105,0.281-0.282c0.111-0.176,0.25-0.424,0.153-0.741c-0.098-0.442-0.36-0.768-0.579-1.081
	C4.541,11.356,4.318,11.071,4.3,10.8c0,0,0.007,0.01,0.022,0.027c0.103,0.13,0.574,0.604,1.277,0.69
	c0.723,0.095,1.004-0.148,1.002-0.454c-0.014-0.142-0.029-0.305-0.133-0.467c0,0-0.004,0.004-0.005,0.006
	c-0.001,0.005-0.007,0.01-0.009,0.017c0,0.001-0.003,0.003-0.007,0.005c-0.026,0.033-0.083,0.083-0.2,0.117
	c-0.06,0.018-0.13,0.031-0.223,0.034c-0.042-0.001-0.076-0.002-0.115-0.002c-0.006,0-0.014-0.001-0.021-0.001
	c-0.046-0.002-0.089-0.003-0.139-0.009c-0.024-0.005-0.056-0.012-0.083-0.018c-0.068-0.013-0.133-0.022-0.211-0.043
	c-0.067-0.019-0.123-0.045-0.181-0.069l-0.015-0.007c-0.142-0.06-0.26-0.135-0.357-0.229c-0.22-0.222-0.36-0.548-0.307-0.872
	c0-0.005-0.001-0.008-0.001-0.012C4.608,9.42,4.625,9.325,4.65,9.229c0.027-0.101,0.06-0.202,0.118-0.293
	c0.351-0.705,1.61-1.174,2.354-0.895c0.083,0.03,0.157,0.062,0.226,0.096c0.022,0.012,0.04,0.021,0.061,0.032
	c0.046,0.026,0.089,0.053,0.129,0.083c0.015,0.011,0.032,0.023,0.045,0.033c0.051,0.039,0.096,0.079,0.13,0.119l0.001,0
	C7.747,8.444,7.777,8.486,7.8,8.526l0.018,0.034c0.017,0.031,0.027,0.061,0.034,0.091c0.005,0.011,0.01,0.021,0.011,0.032
	c0.027,0.124-0.01,0.235-0.09,0.321C7.751,9.03,7.727,9.053,7.698,9.073L7.686,9.084C7.655,9.102,7.625,9.117,7.59,9.125
	C7.56,9.132,7.526,9.135,7.493,9.135L7.46,9.132C7.434,9.13,7.405,9.126,7.375,9.119L7.331,9.108
	c-0.03-0.009-0.063-0.02-0.099-0.035L7.189,9.057c-0.05-0.024-0.102-0.049-0.16-0.083C6.862,8.876,6.731,8.699,6.796,8.616
	c0.022-0.028,0.049-0.042,0.08-0.05c0.035-0.011,0.072-0.012,0.113,0l0.012,0.005c0.02,0.005,0.041,0.015,0.062,0.025
	C7.245,8.7,7.147,8.744,7.142,8.802C7.141,8.82,7.149,8.84,7.187,8.866c0.127,0.087,0.179-0.012,0.211-0.054
	c0.096-0.107,0.005-0.261-0.185-0.369c-0.161-0.09-0.456-0.17-0.623-0.061C6.566,8.398,6.545,8.417,6.527,8.44
	C6.382,8.629,6.484,8.93,6.918,9.167c0.04,0.022,0.084,0.044,0.132,0.066c0.044,0.019,0.093,0.039,0.144,0.06l0.006,0.003
	c0.036,0.012,0.074,0.023,0.113,0.037l0.016,0.005c0.041,0.01,0.083,0.021,0.129,0.032l0.046,0.007
	c0.028,0.004,0.061,0.009,0.094,0.014l0.05,0.002l0.085-0.001l0.051-0.004c0.024-0.004,0.052-0.01,0.079-0.016
	C7.876,9.37,7.893,9.366,7.905,9.36C7.934,9.352,7.96,9.339,7.983,9.325C7.995,9.319,8.01,9.314,8.019,9.306
	c0.034-0.024,0.065-0.052,0.094-0.087c0.032-0.044,0.071-0.085,0.09-0.132V9.077c0.02-0.044,0.031-0.09,0.033-0.136L8.231,8.919
	c0-0.044-0.001-0.09-0.015-0.138c-0.006-0.02-0.013-0.037-0.02-0.056c-0.012-0.037-0.021-0.073-0.04-0.111l0.001,0
	c-0.022-0.047-0.05-0.094-0.077-0.142C8.075,8.462,8.072,8.453,8.064,8.444c-0.067-0.105-0.136-0.2-0.22-0.293
	C7.836,8.14,7.826,8.129,7.818,8.119c-0.046-0.05-0.095-0.1-0.146-0.146c0.045,0.039,0.099,0.077,0.161,0.115l0.034,0.02
	c0.061,0.038,0.129,0.072,0.201,0.108l0.034,0.016c0.07,0.03,0.146,0.063,0.228,0.099l0.018,0.007
	C8.43,8.369,8.516,8.402,8.604,8.435l0.039,0.013c0.086,0.029,0.171,0.058,0.261,0.089l0.005,0.001
	c0.082,0.024,0.164,0.049,0.243,0.073l0.025,0.008C9.25,8.638,9.322,8.656,9.391,8.674l0.026,0.007
	C9.538,8.707,9.64,8.722,9.711,8.723c0.008,0.001,0.015,0.001,0.021-0.001c0.029,0,0.055-0.005,0.066-0.017
	C9.928,8.615,9.378,7.464,8.926,7c-0.033-0.03-0.065-0.058-0.1-0.081c0.059,0.042,0.12,0.082,0.186,0.119
	c0.06,0.036,0.117,0.067,0.181,0.097l0.012,0.006c0.044,0.02,0.095,0.042,0.144,0.063l0.018,0.007
	c0.053,0.021,0.107,0.039,0.16,0.055l0.056,0.015l0.111,0.024c0.019,0.003,0.039,0.005,0.061,0.009l0.1,0.009l0.063,0.001
	l0.093-0.009l0.059-0.01c0.032-0.004,0.065-0.014,0.098-0.025l0.05-0.014c0.047-0.019,0.093-0.042,0.134-0.073
	c0.041-0.032,0.075-0.065,0.1-0.1c0.011-0.011,0.016-0.023,0.023-0.035c0.015-0.023,0.029-0.049,0.039-0.076
	c0.007-0.014,0.011-0.027,0.015-0.042c0.006-0.025,0.013-0.05,0.014-0.074c0.001-0.016,0.004-0.029,0.003-0.045
	c0.002-0.024-0.002-0.051-0.004-0.077l-0.005-0.042c-0.009-0.03-0.014-0.056-0.02-0.081l-0.011-0.037
	c-0.016-0.038-0.03-0.072-0.044-0.106L10.451,6.46L10.4,6.371l-0.005-0.007c-0.024-0.04-0.052-0.081-0.08-0.117
	c-0.03-0.038-0.063-0.073-0.088-0.105c-0.047-0.051-0.094-0.094-0.143-0.133l-0.044-0.032c-0.034-0.027-0.068-0.049-0.103-0.068
	c-0.015-0.01-0.03-0.019-0.05-0.026C9.854,5.863,9.82,5.851,9.788,5.839L9.75,5.825C9.655,5.801,9.561,5.799,9.478,5.819
	L9.452,5.828c-0.047,0.014-0.089,0.03-0.124,0.058l-0.002,0c-0.21,0.151-0.099,0.439,0.035,0.59C9.498,6.63,9.694,6.705,9.822,6.611
	v0h0.001c0.014-0.01,0.029-0.024,0.049-0.037c0.009-0.007,0.016-0.016,0.024-0.024l0.013-0.017c0.006-0.012,0.009-0.024,0.009-0.037
	c-0.001-0.007,0.001-0.012,0-0.017C9.914,6.46,9.899,6.437,9.873,6.413C9.858,6.4,9.845,6.391,9.831,6.386
	c-0.094-0.031-0.127,0.13-0.285-0.047C9.524,6.315,9.512,6.29,9.501,6.265C9.492,6.24,9.49,6.214,9.496,6.19l0.001-0.018
	C9.509,6.148,9.522,6.122,9.553,6.1c0.094-0.069,0.313,0.023,0.439,0.157c0.039,0.041,0.073,0.079,0.101,0.116
	c0.044,0.06,0.073,0.114,0.094,0.164l0.009,0.021c0.017,0.048,0.021,0.091,0.02,0.131l-0.002,0.019
	c-0.006,0.04-0.019,0.076-0.04,0.109c-0.004,0.003-0.007,0.006-0.008,0.011c-0.024,0.033-0.056,0.064-0.092,0.092
	C9.85,7.068,9.503,7.077,9.177,6.806c-0.104-0.09-0.209-0.211-0.296-0.369c-0.383-0.643,0.125-1.722,0.89-2.143
	c0.18-0.1,0.39-0.165,0.592-0.216l0.096-0.018c0.067-0.015,0.136-0.026,0.202-0.035c0.04-0.003,0.075-0.005,0.113-0.008
	c0.061-0.003,0.117-0.011,0.18-0.004c0.04,0.003,0.079,0.008,0.12,0.015c0.057,0.007,0.113,0.019,0.167,0.032l0.112,0.031
	c0.055,0.019,0.106,0.042,0.155,0.065c0.034,0.015,0.067,0.028,0.098,0.048c0.052,0.03,0.1,0.067,0.146,0.104
	c0.024,0.02,0.05,0.041,0.072,0.059C11.889,4.431,11.949,4.502,12,4.584c0.021,0.03,0.028,0.055,0.045,0.084
	c0.029,0.053,0.063,0.108,0.082,0.155c0.015,0.036,0.021,0.066,0.028,0.099c0.015,0.05,0.027,0.098,0.031,0.141
	c0.008,0.072,0.004,0.134-0.008,0.186l-0.003,0.009c-0.029,0.105-0.09,0.167-0.129,0.197l-0.008,0.007
	c-0.007,0.005-0.015,0.01-0.02,0.012c-0.003,0.002-0.008,0.005-0.008,0.005c0.228,0.047,0.456,0.049,0.646,0
	c0.347-0.083,0.602-0.279,0.515-0.696c-0.02-0.092-0.055-0.192-0.113-0.301c-0.322-0.64-1.167-0.94-1.167-0.94
	c0.327-0.031,0.711,0.095,1.138,0.191c0.438,0.124,0.911,0.203,1.483,0.134c0.822-0.108,0.962-0.785,0.962-0.785
	c0.164-0.011,0.29-0.085,0.391-0.186c0.033,0.026,0.066,0.05,0.102,0.07c0.104,0.062,0.219,0.111,0.345,0.132
	c0,0,0.084,0.18,0.274,0.374c0.189,0.202,0.478,0.376,0.898,0.473c1.148,0.207,1.82-0.269,2.495-0.142c0,0-0.013,0.003-0.034,0.01
	c-0.16,0.049-0.754,0.292-0.901,0.832c-0.165,0.588,0.153,0.914,0.544,1.025c0.174,0.061,0.374,0.074,0.575,0.044
	c0,0-0.005-0.004-0.009-0.007c-0.006-0.002-0.012-0.008-0.019-0.013c-0.003,0-0.006-0.003-0.008-0.006
	c-0.039-0.031-0.1-0.096-0.14-0.204c-0.019-0.054-0.033-0.12-0.036-0.197c0.002-0.034,0.004-0.063,0.006-0.097
	c0.001-0.003,0.002-0.01,0.002-0.016c0.004-0.038,0.006-0.073,0.016-0.115c0.006-0.019,0.015-0.042,0.022-0.063
	c0.018-0.054,0.031-0.105,0.058-0.164c0.023-0.051,0.058-0.09,0.089-0.131l0.008-0.012c0.076-0.101,0.168-0.177,0.284-0.23
	c0.279-0.134,0.648-0.107,1.029,0.024l0.015,0.003c0.107,0.038,0.226,0.076,0.331,0.132c0.111,0.063,0.219,0.132,0.323,0.205
	c0.388,0.25,0.698,0.704,0.839,1.114c0.117,0.435,0.089,0.81-0.144,1.06c-0.048,0.055-0.097,0.1-0.148,0.141
	c-0.018,0.012-0.031,0.023-0.045,0.035c-0.038,0.027-0.074,0.05-0.113,0.07c-0.015,0.008-0.032,0.017-0.044,0.024
	c-0.052,0.025-0.101,0.045-0.147,0.059v0.001c-0.048,0.014-0.096,0.021-0.14,0.026l-0.036,0.004c-0.034,0.002-0.063,0.002-0.094,0
	c-0.009,0-0.021,0.001-0.029-0.002c-0.136-0.008-0.245-0.053-0.312-0.131c-0.021-0.025-0.035-0.05-0.048-0.076l-0.007-0.015
	c-0.01-0.028-0.018-0.056-0.018-0.088c0-0.025,0.007-0.052,0.013-0.079l0.007-0.023c0.008-0.02,0.015-0.04,0.026-0.061l0.018-0.031
	c0.014-0.021,0.029-0.044,0.05-0.067l0.022-0.029c0.031-0.033,0.066-0.068,0.109-0.104c0.128-0.106,0.338-0.161,0.402-0.078
	c0.024,0.027,0.033,0.055,0.035,0.081c0.004,0.032-0.004,0.063-0.022,0.09l-0.008,0.008c-0.01,0.014-0.022,0.027-0.037,0.04
	c-0.141,0.112-0.161,0.021-0.215-0.001c-0.019-0.007-0.039-0.006-0.071,0.015c-0.109,0.074-0.026,0.146,0.007,0.184
	c0.089,0.101,0.27,0.065,0.416-0.045c0.126-0.097,0.25-0.286,0.169-0.457c-0.014-0.024-0.03-0.048-0.049-0.07
	c-0.156-0.191-0.529-0.172-0.82,0.104c-0.025,0.026-0.056,0.055-0.086,0.085c-0.026,0.03-0.054,0.063-0.08,0.097l-0.006,0.004
	c-0.018,0.024-0.034,0.051-0.052,0.078l-0.009,0.012c-0.017,0.028-0.031,0.059-0.051,0.092l-0.013,0.033
	c-0.009,0.021-0.018,0.044-0.027,0.069l-0.009,0.037l-0.012,0.064l-0.002,0.037c0.003,0.02,0.004,0.041,0.004,0.063
	c0,0.011,0.002,0.023,0.006,0.035c0.004,0.022,0.006,0.047,0.015,0.07c0.004,0.01,0.004,0.021,0.009,0.031
	c0.014,0.032,0.03,0.064,0.055,0.095c0.031,0.038,0.068,0.067,0.108,0.089l0.009,0.002c0.042,0.021,0.084,0.036,0.132,0.046
	l0.023,0.002c0.038,0.011,0.079,0.021,0.126,0.024l0.056,0c0.037,0.002,0.074,0.004,0.114,0.001v0.001
	c0.054-0.006,0.104-0.012,0.152-0.017l0.03-0.003c0.118-0.018,0.235-0.044,0.352-0.077c0.012-0.003,0.027-0.006,0.038-0.009
	c0.066-0.022,0.129-0.042,0.187-0.062c-0.051,0.02-0.104,0.048-0.157,0.079l-0.029,0.019c-0.054,0.032-0.104,0.069-0.157,0.108
	l-0.025,0.019c-0.048,0.039-0.1,0.081-0.154,0.125c-0.006,0.005-0.01,0.008-0.013,0.01c-0.055,0.046-0.111,0.095-0.17,0.146
	l-0.026,0.022C21.981,8,21.925,8.049,21.867,8.099l-0.006,0.003c-0.051,0.046-0.104,0.091-0.153,0.135l-0.015,0.014
	c-0.046,0.039-0.089,0.078-0.13,0.115l-0.018,0.015c-0.072,0.066-0.123,0.117-0.144,0.153c-0.004,0.003-0.005,0.007-0.006,0.01
	c-0.008,0.016-0.012,0.028-0.003,0.035c0.01,0.05,0.32,0.047,0.735,0.052c0.421-0.002,0.902,0.018,1.223-0.037
	c0.041-0.006,0.08-0.016,0.116-0.027c-0.058,0.021-0.122,0.042-0.188,0.065c-0.053,0.022-0.105,0.045-0.164,0.07l-0.011,0.005
	c-0.038,0.019-0.079,0.038-0.118,0.059c-0.004,0.001-0.01,0.005-0.015,0.007c-0.036,0.021-0.075,0.046-0.116,0.07
	c-0.012,0.008-0.023,0.017-0.036,0.025L22.75,8.923c-0.009,0.009-0.02,0.019-0.032,0.03l-0.048,0.05l-0.023,0.032l-0.034,0.053
	l-0.019,0.035c-0.01,0.02-0.015,0.04-0.019,0.061c-0.001,0.011-0.007,0.021-0.006,0.032c-0.003,0.031,0.004,0.064,0.017,0.098
	c0.014,0.034,0.035,0.064,0.061,0.093c0.005,0.01,0.017,0.019,0.023,0.026c0.02,0.019,0.04,0.037,0.063,0.054
	c0.009,0.01,0.02,0.018,0.03,0.027c0.021,0.015,0.039,0.03,0.061,0.043c0.014,0.008,0.024,0.017,0.039,0.023l0.073,0.037
	l0.042,0.019c0.031,0.012,0.06,0.021,0.087,0.031l0.041,0.013c0.045,0.011,0.086,0.022,0.125,0.032l0.021,0.005l0.11,0.02l0.008,0
	c0.054,0.007,0.104,0.014,0.152,0.02c0.049,0.003,0.099,0.005,0.143,0.008c0.068,0.002,0.13-0.001,0.19-0.006l0.05-0.008
	c0.042-0.005,0.077-0.013,0.11-0.021c0.017-0.003,0.033-0.007,0.046-0.014c0.033-0.01,0.063-0.023,0.089-0.037
	c0.01-0.005,0.021-0.009,0.031-0.015c0.07-0.044,0.12-0.101,0.14-0.163l0.001-0.02c0.004-0.036,0.003-0.072-0.012-0.108l-0.001,0
	c-0.073-0.213-0.404-0.289-0.608-0.281c-0.208,0.009-0.363,0.088-0.319,0.203v0h-0.001c0.006,0.012,0.012,0.03,0.018,0.045
	c0.005,0.009,0.01,0.017,0.016,0.025l0.011,0.016c0.011,0.009,0.022,0.016,0.035,0.022l0.018,0.009
	c0.021,0.007,0.049,0.011,0.084,0.008c0.02-0.002,0.034-0.005,0.044-0.011c0.066-0.037-0.083-0.137,0.157-0.14
	c0.033-0.001,0.066,0.003,0.095,0.01c0.029,0.008,0.055,0.02,0.077,0.035l0.018,0.01c0.022,0.019,0.041,0.041,0.053,0.07
	c0.04,0.092-0.155,0.172-0.344,0.174c-0.057,0-0.108-0.001-0.156-0.004c-0.079-0.006-0.141-0.018-0.198-0.032l-0.022-0.006
	c-0.055-0.014-0.092-0.035-0.135-0.055l-0.019-0.01c-0.038-0.022-0.07-0.047-0.095-0.073c-0.001-0.002-0.006-0.007-0.01-0.008
	c-0.022-0.029-0.043-0.059-0.055-0.091c-0.036-0.092-0.005-0.186,0.077-0.268c0.069-0.08,0.202-0.152,0.398-0.19
	c0.13-0.025,0.293-0.036,0.483-0.016c0.406,0.036,0.802,0.268,1.16,0.621c0.322,0.35,0.574,0.822,0.569,1.206
	C25.667,10.827,25.664,11.014,25.591,11.177z"/>
<path d="M17.021,26.824V25.97h-0.521v-0.854h-0.293c0.02-0.104,0.032-0.212,0.032-0.322c0-0.967-0.779-1.75-1.74-1.75
	c-0.96,0-1.739,0.784-1.739,1.75c0,0.11,0.013,0.218,0.032,0.322h-0.271v0.854h-0.646v0.854h-0.396v0.854h6.042v-0.854H17.021z"/>
<g>
</g>
<g>
</g>
<g>
</g>
<g>
</g>
<g>
</g>
<g>
</g>
<g>
</g>
<g>
</g>
<g>
</g>
<g>
</g>
<g>
</g>
<g>
</g>
<g>
</g>
<g>
</g>
<g>
</g>
</svg>
