<?xml version="1.0" encoding="iso-8859-1"?>
<!-- Generator: Adobe Illustrator 16.0.0, SVG Export Plug-In . SVG Version: 6.00 Build 0)  -->
<!DOCTYPE svg PUBLIC "-//W3C//DTD SVG 1.1//EN" "http://www.w3.org/Graphics/SVG/1.1/DTD/svg11.dtd">
<svg version="1.1" id="Layer_1" xmlns="http://www.w3.org/2000/svg" xmlns:xlink="http://www.w3.org/1999/xlink" x="0px" y="0px"
	 width="24.373px" height="49.634px" viewBox="0 0 24.373 49.634" style="enable-background:new 0 0 24.373 49.634;"
	 xml:space="preserve">
<g>
	<path d="M13.913,32.12c0.664-0.025,1.197-0.564,1.197-1.234c0-0.544-0.354-0.993-0.84-1.163h-3.949
		c-0.526,0.144-0.926,0.59-0.926,1.163c0,0.592,0.421,1.063,0.976,1.19c0.003,0.017,0.006,0.036,0.009,0.054h3.532
		C13.912,32.126,13.913,32.124,13.913,32.12z"/>
	<path d="M16.923,43.166h-1.761V41.9h-1.841l0.141-6.929c0,0,0.303-1.292,0.434-2.679h-3.489c0.203,1.269,0.598,2.679,0.598,2.679
		l0.226,14.662h1.936l0.021-0.983h1.977v-1.06h1.761v1.06h3.053v-2.398h-1.024v-1.761h1.024V41.9h-3.053V43.166z"/>
	<path d="M12.427,15.447l-0.177,0.157c0.007,0.142-0.063,0.32-0.146,0.515c-0.118,0.289-0.274,0.589-0.227,0.886
		c0.068-0.032,0.109-0.014,0.188-0.075c0.011,0.09,0.028,0.185,0.05,0.282c0.079,0.352,0.233,0.737,0.503,1.022
		c0.134,0.141,0.296,0.262,0.489,0.331c0.192,0.062,0.415,0.079,0.661,0.034c-0.357-0.421-0.854-0.872-1.158-1.42
		C12.301,16.646,12.187,16.066,12.427,15.447z"/>
	<path d="M11.553,4.282l0.178-0.157c-0.008-0.142,0.062-0.32,0.145-0.515c0.119-0.289,0.275-0.589,0.227-0.886
		c-0.067,0.033-0.109,0.014-0.188,0.075c-0.011-0.09-0.028-0.185-0.05-0.283c-0.08-0.351-0.233-0.736-0.504-1.021
		c-0.134-0.142-0.295-0.263-0.488-0.332c-0.192-0.062-0.415-0.079-0.661-0.034c0.358,0.421,0.854,0.872,1.157,1.42
		C11.68,3.084,11.794,3.663,11.553,4.282z"/>
	<path d="M9.771,4.721c0.215-0.101,0.424-0.242,0.571-0.318c0.205-0.085,0.396-0.144,0.628-0.072
		c0.195,0.057,0.253,0.411,0.457,0.157l-0.054-0.148c-0.32-0.673-0.547-0.911-1.172-0.443c-0.19,0.162-0.348,0.319-0.514,0.448
		C9.476,4.5,9.269,4.665,8.955,4.724C9.19,4.97,9.479,4.857,9.771,4.721z"/>
	<path d="M15.981,5.067l0.22-0.061c0.057-0.131,0.193-0.261,0.353-0.398c0.229-0.201,0.509-0.416,0.595-0.697
		c-0.077,0.001-0.107-0.028-0.203-0.012c0.028-0.086,0.057-0.179,0.079-0.277c0.085-0.352,0.116-0.769-0.005-1.148
		c-0.12-0.372-0.405-0.687-0.896-0.829c0.148,0.538,0.401,1.176,0.446,1.78C16.616,4.049,16.456,4.62,15.981,5.067z"/>
	<path d="M12.187,0C5.467,0,0,4.438,0,9.892c0,4.882,4.381,8.938,10.116,9.739c-0.27,0.27-0.428,0.596-0.428,0.946
		c0,0.643,0.535,1.193,1.315,1.479v5.105c0,0-0.33,1.208-0.543,2.396h3.389c-0.146-1.288-0.388-2.458-0.388-2.458v-5.078
		c0.729-0.295,1.223-0.828,1.223-1.445c0-0.351-0.158-0.677-0.428-0.946c5.735-0.802,10.116-4.857,10.116-9.739
		C24.373,4.438,18.906,0,12.187,0z M20.661,4.035c1.176,1.076,2.033,2.377,2.457,3.811c-0.156-0.283-0.369-0.508-0.585-0.646
		c-0.286-0.163-0.568-0.104-0.771,0.041c-0.2,0.146-0.349,0.387-0.413,0.645c-0.039,0.159-0.035,0.39,0.013,0.554
		c0.041,0.164,0.163,0.268,0.422,0.141c-0.489-0.209,0.041-0.487,0.334-0.44c0.24,0.047,0.374,0.219,0.421,0.432
		c0.049,0.215,0.002,0.466-0.164,0.675c-0.297,0.388-0.625,0.32-0.914,0.148c-0.272-0.181-0.572-0.458-0.762-0.665
		c-0.223-0.255-0.481-0.447-0.718-0.57c-0.096-0.041-0.196-0.066-0.299-0.084c-0.063-0.108-0.126-0.216-0.198-0.321
		c0.116-0.044,0.258-0.07,0.422-0.084c0.296-0.027,0.645-0.024,0.889-0.191c-0.061-0.048-0.064-0.09-0.148-0.136
		c0.076-0.049,0.153-0.106,0.232-0.171c0.285-0.23,0.565-0.554,0.668-0.935c0.055-0.191,0.069-0.401,0.027-0.619
		c-0.043-0.215-0.162-0.42-0.341-0.625c-0.074,0.277-0.151,0.572-0.232,0.879c-0.095,0.307-0.221,0.613-0.378,0.874
		c-0.273,0.461-0.678,0.767-1.206,0.913c-0.063-0.088-0.123-0.178-0.193-0.264c0.296-0.438,0.285-0.721-0.329-0.919
		c-0.224-0.056-0.44-0.108-0.625-0.153c-0.129-0.025-0.244-0.063-0.355-0.115c-0.105-0.072-0.217-0.142-0.328-0.211
		c-0.009-0.006-0.016-0.01-0.024-0.017c0,0.001,0.001,0.002,0,0.003c-0.362-0.223-0.754-0.423-1.172-0.599
		c0.114-0.081,0.262-0.115,0.421-0.103c0.237,0.017,0.514,0.095,0.703,0.229c0.139,0.093,0.315,0.168,0.49,0.255
		c0.173,0.088,0.365,0.165,0.569,0.227c0.337,0.137,0.744,0.206,1.097,0.215c0.362-0.001,0.731-0.103,1.018-0.427
		c0.189-0.214,0.272-0.513,0.253-0.864C20.917,4.639,20.814,4.336,20.661,4.035z M16.462,12.27c-0.354,0-0.694-0.051-1.01-0.141
		c-0.142-0.933-0.833-1.729-1.804-2.159c1.084-0.437,1.851-1.318,1.941-2.353c0.278-0.066,0.57-0.103,0.872-0.103
		c1.663,0,3.016,1.066,3.016,2.378C19.478,11.203,18.125,12.27,16.462,12.27z M19.424,11.396c-0.035,0.078-0.075,0.155-0.117,0.232
		c-0.013-0.013-0.03-0.026-0.044-0.039C19.319,11.527,19.373,11.463,19.424,11.396z M11.988,14.858c-1.636,0-2.969-1.035-3.01-2.319
		c0.944-0.285,1.693-0.894,2.053-1.66c0.268,0.261,0.634,0.422,1.036,0.422c0.435,0,0.823-0.188,1.095-0.484
		c0.311,0.739,0.982,1.341,1.842,1.667C15.003,13.792,13.651,14.858,11.988,14.858z M13.583,15.347
		c-0.178,0.07-0.35,0.111-0.55,0.058C13.219,15.39,13.401,15.37,13.583,15.347z M4.916,11.625c0.004-0.001,0.007-0.001,0.01-0.002
		l-0.045-0.098c-0.005,0.004-0.012,0.003-0.019,0.005c-0.034-0.071-0.063-0.145-0.094-0.217c0.607,0.84,1.724,1.406,3.002,1.406
		c0.254,0,0.5-0.024,0.738-0.065c0.063,0.851,0.582,1.602,1.363,2.091C7.554,14.28,5.71,13.11,4.916,11.625z M9.11,15.05
		c-0.203,0.005-0.383-0.022-0.54-0.163C8.747,14.944,8.926,15,9.11,15.05z M9.817,5.264c-0.642,0.461-1.08,1.108-1.176,1.84
		c-0.279-0.058-0.57-0.093-0.871-0.093c-1.046,0-1.982,0.379-2.622,0.977C6.03,6.697,7.729,5.694,9.817,5.264z M6.137,6.337
		C6.19,6.24,6.239,6.15,6.282,6.081c0.125-0.169,0.264-0.302,0.488-0.343c0.071-0.014,0.146,0.02,0.217,0.05
		C6.682,5.955,6.402,6.142,6.137,6.337z M14.042,4.718c0.055,0.003,0.107,0.007,0.165,0.003c0.242-0.023,0.479-0.033,0.646-0.042
		c0.225-0.006,0.422,0.018,0.592,0.192c0.053,0.052,0.073,0.131,0.093,0.202C15.063,4.923,14.563,4.804,14.042,4.718z M18.812,7.629
		c-0.006,0.04,0.011,0.071,0.064,0.088c0.088,0.108,0.171,0.218,0.246,0.33c-0.643-0.617-1.596-1.009-2.66-1.009
		c-0.302,0-0.595,0.035-0.874,0.095c-0.09-0.743-0.529-1.402-1.183-1.869C16.299,5.653,17.875,6.511,18.812,7.629z M15.117,7.259
		c-0.873,0.299-1.563,0.881-1.907,1.603c-0.273-0.328-0.681-0.542-1.143-0.542c-0.421,0-0.799,0.176-1.07,0.456
		C10.644,8.079,9.962,7.52,9.11,7.229c0.117-1.226,1.417-2.195,2.999-2.196c0.001,0,0.002,0,0.003,0
		C13.709,5.033,15.018,6.02,15.117,7.259z M7.771,7.487c0.299,0,0.588,0.036,0.861,0.101c0.076,1.008,0.791,1.876,1.821,2.333
		c-1.045,0.422-1.798,1.256-1.932,2.244c-0.241,0.048-0.49,0.077-0.751,0.077c-1.661,0-3.014-1.067-3.014-2.378
		S6.109,7.487,7.771,7.487z M15.473,12.628c0.313,0.076,0.645,0.118,0.989,0.118c1.111,0,2.101-0.428,2.74-1.09
		c0.021,0.021,0.034,0.046,0.05,0.071c-0.204,0.355-0.463,0.693-0.781,1.006c-0.203,0.022-0.354,0.181-0.464,0.39
		c-0.01,0.014-0.018,0.028-0.026,0.043c-1.011,0.792-2.391,1.371-3.966,1.636C14.854,14.312,15.416,13.523,15.473,12.628z
		 M18.627,2.576c-0.108-0.003-0.216,0.005-0.318,0.029c-0.61,0.134-0.71,0.824-0.475,1.274c0.16,0.265,0.563,0.755,0.774,0.221
		c-0.506,0.193-0.284-0.388-0.042-0.541c0.4-0.241,0.852,0.074,0.908,0.588c0.059,0.472-0.208,0.668-0.535,0.755
		c-0.321,0.076-0.73,0.073-1.025,0.047c-0.653-0.056-1.17-0.06-1.641,0.388c-0.159-0.063-0.319-0.125-0.483-0.182l0.011-0.111
		c-0.003-0.36-0.025-0.623-0.145-0.78c-0.115-0.159-0.332-0.208-0.716-0.104c-0.239,0.063-0.441,0.12-0.651,0.185
		c-0.263,0.079-0.512,0.086-0.829,0.035c0.058,0.147,0.162,0.239,0.293,0.29c-0.529-0.073-1.079-0.112-1.641-0.112
		c-0.001,0-0.002,0-0.003,0c-0.03,0-0.061,0.003-0.091,0.003c0.017-0.21,0.177-0.358,0.402-0.455
		c0.229-0.101,0.518-0.146,0.758-0.118c0.175,0.015,0.372,0.005,0.577-0.009c0.202-0.006,0.417-0.029,0.631-0.073
		c0.386-0.08,0.763-0.176,1.08-0.39c0.313-0.204,0.554-0.479,0.617-0.912c0.07-0.445-0.191-0.902-0.634-1.262
		C16.598,1.618,17.668,2.04,18.627,2.576z M9.592,3.904c0.624-0.456,1.229-1.06,0.987-1.895c-0.111-0.376-0.461-0.664-0.922-0.824
		c0.813-0.149,1.66-0.231,2.529-0.231c0.16,0,0.319,0.005,0.479,0.009c-0.039,0.026-0.08,0.048-0.114,0.077
		c-0.473,0.401-0.265,1.06,0.15,1.349c0.26,0.161,0.848,0.413,0.782-0.163c-0.354,0.41-0.428-0.205-0.286-0.455
		c0.239-0.404,0.766-0.332,1.056,0.078c0.272,0.382,0.145,0.685-0.098,0.919c-0.243,0.225-0.61,0.423-0.886,0.536
		c-0.337,0.126-0.632,0.27-0.87,0.46c-0.236,0.19-0.413,0.421-0.514,0.801C10.367,4.592,8.952,4.901,7.751,5.42
		C7.675,5.048,8.115,4.644,8.538,4.484c0.157-0.075,0.338-0.143,0.516-0.242C9.234,4.148,9.41,4.017,9.592,3.904z M4.631,3.284
		c0.26,0.089,0.533,0.183,0.818,0.28c0.295,0.11,0.593,0.252,0.849,0.417c0.52,0.332,0.87,0.802,0.945,1.463l0.08-0.221
		C7.255,5.102,7.23,4.906,7.222,4.704c-0.019-0.3-0.015-0.646-0.187-0.889c-0.047,0.06-0.091,0.063-0.138,0.147
		C6.847,3.888,6.789,3.809,6.726,3.729C6.494,3.441,6.188,3.173,5.814,3.045C5.629,2.981,5.427,2.954,5.218,2.981
		c-0.09,0.013-0.18,0.045-0.27,0.084C5.49,2.7,6.076,2.376,6.699,2.098c-0.252,0.58,0.227,1.066,0.723,1.145
		c0.316,0.062,0.941,0,0.642-0.483C7.919,3.29,7.591,2.769,7.61,2.479c0.022-0.239,0.158-0.4,0.348-0.468
		C8.148,1.952,8.387,1.981,8.604,2.1C9.01,2.32,9.021,2.65,8.903,2.971C8.783,3.3,8.523,3.592,8.327,3.826
		c-0.466,0.512-0.789,0.95-0.685,1.637C7.497,5.528,7.358,5.6,7.221,5.671L7.119,5.572C6.542,5.116,6.214,5.001,5.917,5.704
		C5.837,5.934,5.783,6.139,5.71,6.323c-0.07,0.25-0.182,0.458-0.382,0.664c0.015,0.004,0.025,0,0.04,0.002
		C5.096,7.263,4.86,7.555,4.664,7.859C4.592,7.595,4.687,7.241,4.867,6.995c0.174-0.271,0.382-0.609,0.538-1.002
		c0.293-0.678,0.539-1.502-0.062-2.125C5.141,3.667,4.851,3.564,4.509,3.556c-0.084-0.002-0.17,0.005-0.258,0.018
		C4.375,3.475,4.501,3.378,4.631,3.284z M2.006,6.124c0.128,0.601,0.803,0.68,1.255,0.465c0.269-0.154,0.78-0.526,0.262-0.769
		c0.163,0.517-0.406,0.266-0.547,0.017c-0.218-0.413,0.141-0.87,0.659-0.883C4.11,4.928,4.284,5.21,4.348,5.542
		C4.38,5.71,4.376,5.889,4.37,6.065c-0.003,0.182-0.02,0.355-0.042,0.498C4.248,7.133,4.249,7.596,4.584,8
		c-0.056,0.096-0.11,0.193-0.159,0.292C4.424,8.29,4.423,8.288,4.423,8.287c-0.018-0.05-0.035-0.099-0.035-0.099
		c-0.13-0.053-0.265-0.18-0.404-0.33C3.777,7.643,3.563,7.365,3.28,7.276C3.282,7.354,3.252,7.383,3.27,7.478
		C3.183,7.449,3.089,7.422,2.99,7.399C2.644,7.323,2.197,7.29,1.838,7.453C1.583,7.565,1.335,7.768,1.187,8.077
		C1.365,7.395,1.643,6.739,2.006,6.124z M1.007,9.028c0.021-0.176,0.05-0.352,0.083-0.524c0.254-0.12,0.515-0.267,0.804-0.386
		c0.305-0.12,0.616-0.217,0.917-0.255C3.386,7.781,3.937,7.95,4.4,8.337C4.367,8.407,4.34,8.479,4.312,8.549
		C4.037,8.559,3.823,8.593,3.702,8.69c-0.124,0.117-0.151,0.328,0,0.65c0.111,0.201,0.224,0.365,0.305,0.523
		c0.005,0.007,0.008,0.014,0.014,0.02c-0.002,0.038-0.01,0.076-0.01,0.115c0,0.487,0.105,0.959,0.285,1.409
		c-0.145-0.144-0.304-0.35-0.341-0.551c-0.032-0.146-0.104-0.304-0.169-0.47c-0.053-0.169-0.13-0.345-0.229-0.523
		C3.437,9.546,3.213,9.21,2.998,8.937C2.762,8.665,2.447,8.438,2.017,8.425C1.731,8.416,1.45,8.549,1.192,8.802
		C1.124,8.868,1.064,8.945,1.007,9.028z M1.455,12.532c0.283,0.157,0.563,0.1,0.762-0.044c0.201-0.146,0.348-0.387,0.413-0.646
		c0.039-0.158,0.035-0.389-0.013-0.553c-0.041-0.165-0.164-0.268-0.422-0.141c0.49,0.209-0.041,0.486-0.334,0.441
		c-0.24-0.047-0.374-0.22-0.422-0.434s-0.002-0.466,0.165-0.674c0.297-0.388,0.625-0.319,0.913-0.148
		C2.791,10.515,3.091,10.793,3.28,11c0.223,0.256,0.482,0.447,0.718,0.57c0.129,0.055,0.263,0.088,0.407,0.101
		c0.046,0.096,0.1,0.188,0.154,0.281c-0.123,0.063-0.293,0.092-0.486,0.107c-0.296,0.027-0.645,0.025-0.89,0.192
		c0.062,0.046,0.065,0.089,0.15,0.134c-0.076,0.05-0.155,0.107-0.233,0.172c-0.285,0.23-0.566,0.554-0.669,0.934
		c-0.055,0.193-0.068,0.402-0.027,0.62c0.03,0.147,0.098,0.29,0.193,0.431C2.118,13.918,1.732,13.244,1.455,12.532z M3.291,13.948
		c-0.189,0.215-0.271,0.514-0.253,0.864c0.01,0.105,0.032,0.214,0.063,0.324c-0.123-0.133-0.239-0.27-0.352-0.408
		c0.071-0.275,0.147-0.566,0.229-0.872c0.095-0.307,0.221-0.613,0.378-0.873c0.284-0.477,0.704-0.787,1.259-0.929
		c0.052,0.083,0.108,0.163,0.166,0.244c-0.321,0.458-0.326,0.751,0.305,0.955c0.223,0.055,0.439,0.107,0.625,0.152
		c0.046,0.01,0.09,0.021,0.133,0.034c0.454,0.373,0.985,0.702,1.57,0.984c-0.076,0.019-0.158,0.029-0.245,0.022
		c-0.236-0.017-0.513-0.095-0.702-0.229c-0.141-0.094-0.316-0.168-0.491-0.255c-0.173-0.088-0.365-0.165-0.569-0.227
		c-0.336-0.137-0.743-0.205-1.097-0.216C3.947,13.522,3.578,13.625,3.291,13.948z M8.446,18.319
		c-1.021-0.289-1.976-0.69-2.837-1.188c0.02-0.005,0.041-0.002,0.062-0.007c0.61-0.135,0.71-0.824,0.475-1.274
		c-0.16-0.265-0.564-0.755-0.775-0.221c0.507-0.193,0.285,0.388,0.043,0.541c-0.4,0.241-0.853-0.074-0.908-0.588
		c-0.059-0.472,0.209-0.667,0.534-0.755c0.322-0.076,0.731-0.073,1.027-0.047c0.591,0.051,1.071,0.058,1.508-0.275
		c0.128,0.059,0.265,0.11,0.399,0.164l-0.195,0.055c-0.058,0.13-0.194,0.26-0.353,0.396c-0.229,0.202-0.509,0.417-0.595,0.699
		c0.077-0.003,0.107,0.027,0.203,0.011c-0.028,0.086-0.057,0.179-0.08,0.276c-0.084,0.352-0.114,0.77,0.004,1.15
		c0.122,0.372,0.408,0.687,0.898,0.828c-0.149-0.538-0.401-1.177-0.446-1.78c-0.046-0.617,0.112-1.184,0.576-1.63
		c0.065,0.025,0.128,0.054,0.193,0.079c0.006,0.323,0.031,0.565,0.143,0.712c0.115,0.159,0.333,0.208,0.716,0.104
		c0.238-0.063,0.442-0.12,0.651-0.185c0.265-0.08,0.513-0.087,0.83-0.035c-0.003-0.006-0.008-0.01-0.011-0.018
		c0.433,0.06,0.88,0.09,1.336,0.101c-0.072,0.077-0.171,0.142-0.286,0.191c-0.229,0.101-0.518,0.146-0.759,0.118
		c-0.175-0.015-0.371-0.005-0.576,0.009c-0.203,0.006-0.416,0.029-0.632,0.073c-0.385,0.08-0.762,0.176-1.079,0.39
		c-0.313,0.204-0.555,0.479-0.618,0.913C7.829,17.544,8.055,17.971,8.446,18.319z M13.4,17.721c0.131,0.447,0.601,0.771,1.195,0.9
		c-0.777,0.136-1.581,0.209-2.409,0.209c-0.31,0-0.615-0.014-0.92-0.032c0.056-0.034,0.114-0.067,0.162-0.108
		c0.473-0.401,0.265-1.059-0.15-1.349c-0.261-0.16-0.848-0.414-0.782,0.163c0.354-0.411,0.428,0.205,0.285,0.454
		c-0.238,0.405-0.764,0.333-1.054-0.077c-0.273-0.382-0.146-0.685,0.096-0.919c0.244-0.225,0.61-0.423,0.888-0.535
		c0.336-0.127,0.631-0.271,0.868-0.461c0.173-0.141,0.313-0.302,0.417-0.528c0.039,0,0.077,0.004,0.116,0.004
		c0.172,0,0.339-0.01,0.51-0.017c0.312,0.645,0.542,0.868,1.155,0.41c0.19-0.163,0.348-0.319,0.513-0.449
		c0.098-0.07,0.194-0.143,0.301-0.207c0.54-0.117,1.055-0.273,1.539-0.46c-0.147,0.227-0.422,0.427-0.688,0.526
		c-0.156,0.075-0.338,0.143-0.517,0.242c-0.18,0.094-0.357,0.225-0.537,0.338C13.763,16.281,13.159,16.886,13.4,17.721z
		 M17.078,17.937c0.082-0.093,0.153-0.19,0.201-0.302c0.255-0.582-0.226-1.069-0.722-1.147c-0.317-0.062-0.941,0-0.641,0.483
		c0.143-0.531,0.472-0.009,0.451,0.28c-0.021,0.238-0.158,0.4-0.347,0.469c-0.191,0.059-0.43,0.028-0.646-0.089
		c-0.406-0.222-0.418-0.552-0.299-0.873c0.118-0.328,0.381-0.62,0.575-0.855c0.38-0.415,0.665-0.783,0.701-1.274
		c0.102-0.043,0.206-0.081,0.305-0.126l-0.002,0.004c0.069,0.123,0.093,0.317,0.102,0.52c0.02,0.3,0.016,0.646,0.188,0.89
		c0.047-0.061,0.09-0.065,0.137-0.148c0.051,0.075,0.109,0.155,0.172,0.233c0.231,0.289,0.539,0.557,0.911,0.686
		c0.187,0.063,0.389,0.089,0.598,0.063c0.207-0.031,0.415-0.132,0.62-0.291c-0.269-0.093-0.555-0.191-0.852-0.293
		c-0.295-0.11-0.593-0.252-0.85-0.416c-0.474-0.305-0.797-0.731-0.909-1.305c0.096-0.045,0.19-0.094,0.282-0.143
		c0.46,0.326,0.746,0.344,1.009-0.276c0.058-0.165,0.104-0.313,0.15-0.456c0.345-0.266,0.651-0.555,0.916-0.861
		c-0.006,0.009-0.011,0.02-0.017,0.027c-0.174,0.27-0.382,0.609-0.539,1.002c-0.294,0.677-0.539,1.501,0.063,2.124
		c0.203,0.201,0.493,0.304,0.835,0.313c0.31,0.004,0.652-0.098,0.996-0.251C19.512,16.753,18.364,17.439,17.078,17.937z
		 M21.985,13.644c-0.105-0.64-0.806-0.723-1.267-0.504c-0.27,0.156-0.781,0.526-0.263,0.771c-0.162-0.518,0.407-0.267,0.547-0.017
		c0.219,0.412-0.14,0.869-0.659,0.882c-0.475,0.026-0.648-0.256-0.712-0.588c-0.032-0.168-0.028-0.347-0.022-0.523
		c0.003-0.182,0.02-0.354,0.042-0.498c0.058-0.415,0.073-0.772-0.051-1.095c0.077-0.125,0.146-0.254,0.21-0.384
		c0.061,0.054,0.123,0.115,0.186,0.184c0.206,0.216,0.42,0.493,0.703,0.582c-0.003-0.077,0.028-0.106,0.011-0.2
		c0.086,0.027,0.18,0.055,0.277,0.076c0.347,0.076,0.794,0.11,1.154-0.053c0.36-0.159,0.713-0.493,0.774-1.064
		c-0.263,0.122-0.531,0.276-0.83,0.398c-0.306,0.121-0.616,0.217-0.917,0.256c-0.463,0.066-0.912-0.03-1.312-0.271
		c0.067-0.149,0.126-0.301,0.175-0.455c0.099-0.022,0.186-0.053,0.245-0.101c0.123-0.118,0.151-0.327,0-0.649
		c-0.028-0.051-0.054-0.094-0.083-0.14c0.007-0.084,0.02-0.166,0.02-0.251c0-0.317-0.049-0.627-0.127-0.93
		c0.032,0.089,0.07,0.178,0.105,0.272c0.054,0.169,0.131,0.345,0.229,0.522c0.12,0.319,0.344,0.655,0.56,0.929
		c0.236,0.272,0.551,0.498,0.981,0.512c0.285,0.009,0.566-0.124,0.824-0.378c0.255-0.251,0.424-0.631,0.56-1.063
		c0.024-0.13,0.045-0.266,0.058-0.404c0.009,0.144,0.015,0.287,0.015,0.432c0,1.629-0.554,3.156-1.514,4.473
		C21.991,14.118,22.028,13.871,21.985,13.644z"/>
</g>
<g>
</g>
<g>
</g>
<g>
</g>
<g>
</g>
<g>
</g>
<g>
</g>
<g>
</g>
<g>
</g>
<g>
</g>
<g>
</g>
<g>
</g>
<g>
</g>
<g>
</g>
<g>
</g>
<g>
</g>
</svg>
