<?xml version="1.0" encoding="iso-8859-1"?>
<!-- Generator: Adobe Illustrator 16.0.0, SVG Export Plug-In . SVG Version: 6.00 Build 0)  -->
<!DOCTYPE svg PUBLIC "-//W3C//DTD SVG 1.1//EN" "http://www.w3.org/Graphics/SVG/1.1/DTD/svg11.dtd">
<svg version="1.1" id="Layer_1" xmlns="http://www.w3.org/2000/svg" xmlns:xlink="http://www.w3.org/1999/xlink" x="0px" y="0px"
	 width="21.75px" height="49.497px" viewBox="0 0 21.75 49.497" style="enable-background:new 0 0 21.75 49.497;"
	 xml:space="preserve">
<path d="M21.75,10.875C21.75,4.878,16.872,0,10.875,0C4.879,0,0,4.878,0,10.875c0,5.307,3.823,9.731,8.858,10.68
	c-0.185,0.332-0.299,0.707-0.299,1.113c0,0.815,0.427,1.527,1.065,1.937v9.857c-0.54,0.046-0.969,0.486-0.969,1.038
	s0.429,0.991,0.969,1.037v1.081c-0.54,0.047-0.969,0.485-0.969,1.038c0,0.552,0.429,0.991,0.969,1.038v1.718H5.464v3.307h1.773
	v-1.656h0.708v1.656h1.656v0.707H7.945v1.658H7.237v-1.658H5.464v2.987h4.161v1.084h2.5v-1.084h4.161v-2.987h-1.773v1.658h-0.708
	v-1.658h-1.656v-0.707h1.656v-1.656h0.708v1.656h1.773v-3.307h-4.161v-1.718c0.54-0.047,0.969-0.486,0.969-1.038
	c0-0.553-0.429-0.991-0.969-1.038v-1.081c0.54-0.046,0.969-0.485,0.969-1.037s-0.429-0.992-0.969-1.038V24.59
	c0.625-0.411,1.039-1.118,1.039-1.922c0-0.404-0.113-0.778-0.297-1.109C17.915,20.619,21.75,16.19,21.75,10.875z M10.875,1.549
	c2.571,0,4.901,1.045,6.59,2.733c-0.052,0.017-2.043,0.679-2.414,1.051c-0.313,0.312-0.352,0.777-0.147,1.145L11.99,9.391h-0.855
	V4.917c0.404-0.116,0.705-0.473,0.705-0.914C11.84,3.471,10.875,1.549,10.875,1.549S9.909,3.471,9.909,4.004
	c0,0.441,0.301,0.797,0.704,0.913v4.474H9.76L6.847,6.478C7.051,6.11,7.012,5.646,6.699,5.333C6.328,4.962,4.34,4.301,4.286,4.282
	C5.974,2.595,8.305,1.549,10.875,1.549z M4.282,4.285c0.019,0.056,0.68,2.042,1.051,2.414C5.646,7.011,6.11,7.05,6.478,6.846
	L9.39,9.759v0.855H4.917C4.802,10.21,4.445,9.909,4.003,9.909c-0.532,0-2.449,0.964-2.453,0.966C1.55,8.305,2.595,5.974,4.282,4.285
	z M1.55,10.875c0.004,0.002,1.921,0.965,2.453,0.964c0.441,0.001,0.799-0.3,0.914-0.705H9.39v0.856l-2.912,2.913
	C6.11,14.7,5.646,14.739,5.333,15.051c-0.372,0.372-1.032,2.358-1.051,2.414C2.595,15.776,1.55,13.445,1.55,10.875z M10.875,20.201
	c-2.57,0-4.901-1.046-6.589-2.733c0.054-0.019,2.041-0.679,2.412-1.051c0.313-0.313,0.352-0.777,0.147-1.144l2.913-2.914h0.854
	v4.474c-0.403,0.116-0.704,0.472-0.704,0.913C9.909,18.28,10.875,20.201,10.875,20.201s0.965-1.921,0.965-2.455
	c0-0.441-0.301-0.798-0.705-0.913v-4.474h0.855l2.913,2.914c-0.202,0.367-0.165,0.832,0.147,1.144
	c0.373,0.372,2.362,1.034,2.414,1.051C15.776,19.156,13.446,20.201,10.875,20.201z M16.417,15.051
	c-0.313-0.313-0.777-0.351-1.145-0.147l-2.913-2.913v-0.855h4.475c0.114,0.403,0.472,0.705,0.912,0.706
	c0.533,0,2.455-0.966,2.455-0.966s-1.922-0.966-2.455-0.966c-0.44,0-0.798,0.301-0.913,0.705h-4.474V9.759l2.913-2.913
	c0.367,0.204,0.832,0.165,1.145-0.147c0.371-0.372,1.034-2.362,1.052-2.414c1.688,1.689,2.732,4.02,2.732,6.59
	s-1.045,4.901-2.732,6.59C17.451,17.413,16.79,15.423,16.417,15.051z"/>
<g>
</g>
<g>
</g>
<g>
</g>
<g>
</g>
<g>
</g>
<g>
</g>
<g>
</g>
<g>
</g>
<g>
</g>
<g>
</g>
<g>
</g>
<g>
</g>
<g>
</g>
<g>
</g>
<g>
</g>
</svg>
