<?xml version="1.0" encoding="iso-8859-1"?>
<!-- Generator: Adobe Illustrator 16.0.0, SVG Export Plug-In . SVG Version: 6.00 Build 0)  -->
<!DOCTYPE svg PUBLIC "-//W3C//DTD SVG 1.1//EN" "http://www.w3.org/Graphics/SVG/1.1/DTD/svg11.dtd">
<svg version="1.1" id="Layer_1" xmlns="http://www.w3.org/2000/svg" xmlns:xlink="http://www.w3.org/1999/xlink" x="0px" y="0px"
	 width="25.096px" height="49.789px" viewBox="0 0 25.096 49.789" style="enable-background:new 0 0 25.096 49.789;"
	 xml:space="preserve">
<path d="M25.096,12.548C25.096,5.629,19.467,0,12.548,0S0,5.629,0,12.548c0,5.157,3.129,9.596,7.587,11.522h-0.02
	c0.014,0.003,0.028,0.006,0.042,0.01c0.123,0.054,0.25,0.104,0.377,0.153v2.252h1.305v21.019l1.894,1.241v-22.26h0.652v22.651
	l0.752,0.652l3.493-3.459v-1.371l-1.046-0.392l1.046-0.784v-0.719l-2.285-1.827l1.958-2.089l-0.719-0.913l0.719-0.588v-0.979
	l-1.371-1.501l0.652-1.436l-1.239-1.11v-1.437l1.958-1.828v-2.871h1.436v-2.284C21.817,22.351,25.096,17.826,25.096,12.548z
	 M22.695,11.88h-4.322c-0.127-1.118-0.569-2.14-1.235-2.978l3.054-3.054C21.626,7.482,22.545,9.576,22.695,11.88z M13.216,2.4
	c2.302,0.15,4.397,1.068,6.031,2.503l-3.054,3.055c-0.838-0.666-1.86-1.108-2.978-1.236V2.4z M16.036,12.548
	c0,1.923-1.564,3.488-3.488,3.488S9.06,14.471,9.06,12.548c0-1.924,1.564-3.489,3.488-3.489S16.036,10.624,16.036,12.548z
	 M11.88,2.4v4.321c-1.117,0.128-2.14,0.57-2.978,1.236L5.849,4.904C7.482,3.469,9.578,2.551,11.88,2.4z M4.904,5.849l3.054,3.054
	C7.292,9.74,6.85,10.762,6.723,11.88H2.4C2.551,9.576,3.47,7.482,4.904,5.849z M2.4,13.216h4.322
	c0.127,1.117,0.569,2.139,1.235,2.976l-3.054,3.056C3.47,17.612,2.551,15.518,2.4,13.216z M8.902,17.138
	c0.838,0.666,1.86,1.107,2.978,1.235v4.322c-2.302-0.151-4.397-1.069-6.031-2.504L8.902,17.138z M13.216,22.695v-4.322
	c1.117-0.128,2.14-0.569,2.978-1.235l3.054,3.054C17.613,21.626,15.518,22.544,13.216,22.695z M17.138,16.191
	c0.666-0.837,1.108-1.858,1.235-2.976h4.322c-0.15,2.302-1.069,4.397-2.504,6.031L17.138,16.191z"/>
<g>
</g>
<g>
</g>
<g>
</g>
<g>
</g>
<g>
</g>
<g>
</g>
<g>
</g>
<g>
</g>
<g>
</g>
<g>
</g>
<g>
</g>
<g>
</g>
<g>
</g>
<g>
</g>
<g>
</g>
</svg>
