<?xml version="1.0" encoding="utf-8"?>
<!-- Generator: Adobe Illustrator 16.0.0, SVG Export Plug-In . SVG Version: 6.00 Build 0)  -->
<!DOCTYPE svg PUBLIC "-//W3C//DTD SVG 1.1//EN" "http://www.w3.org/Graphics/SVG/1.1/DTD/svg11.dtd">
<svg version="1.1" id="Layer_1" xmlns="http://www.w3.org/2000/svg" xmlns:xlink="http://www.w3.org/1999/xlink" x="0px" y="0px"
	 width="32px" height="32px" viewBox="0 0 32 32" enable-background="new 0 0 32 32" xml:space="preserve">
<path d="M28.688,0.305c-1.016,0-1.839,0.824-1.839,1.838V4.22c-0.058-0.012-0.11-0.035-0.171-0.035h-1.377V3.277
	c0-0.711-0.575-1.287-1.286-1.287s-1.287,0.576-1.287,1.287v0.907H9.421V3.277c0-0.711-0.574-1.287-1.287-1.287
	c-0.711,0-1.286,0.576-1.286,1.287v0.907H5.321c-0.061,0-0.112,0.023-0.17,0.035V2.143c0-1.014-0.823-1.838-1.839-1.838
	S1.474,1.129,1.474,2.143v27.579c0,1.014,0.823,1.838,1.839,1.838s1.839-0.824,1.839-1.838v-2.077
	c0.058,0.011,0.109,0.034,0.17,0.034h13.495v1.026c0,0.711,0.575,1.287,1.286,1.287c0.712,0,1.288-0.576,1.288-1.287v-1.026h1.337
	v1.026c0,0.711,0.576,1.287,1.287,1.287s1.286-0.576,1.286-1.287v-1.026h1.377c0.061,0,0.113-0.023,0.171-0.034v2.077
	c0,1.014,0.823,1.838,1.839,1.838s1.839-0.824,1.839-1.838V2.143C30.526,1.129,29.703,0.305,28.688,0.305z M26.849,25.698
	c-0.058-0.012-0.11-0.036-0.171-0.036h-1.377v-0.895c0-0.711-0.575-1.287-1.286-1.287s-1.287,0.576-1.287,1.287v0.895h-1.337v-0.895
	c0-0.711-0.576-1.287-1.288-1.287c-0.711,0-1.286,0.576-1.286,1.287v0.895H5.321c-0.061,0-0.112,0.024-0.17,0.036v-5.213
	c0.058,0.01,0.109,0.034,0.17,0.034h1.526v1.156c0,0.71,0.575,1.285,1.286,1.285c0.713,0,1.287-0.575,1.287-1.285V20.52h1.339v1.156
	c0,0.71,0.576,1.285,1.285,1.285c0.712,0,1.289-0.575,1.289-1.285V20.52h1.625v1.156c0,0.71,0.576,1.285,1.287,1.285
	c0.712,0,1.288-0.575,1.288-1.285V20.52h1.337v1.156c0,0.71,0.576,1.285,1.287,1.285s1.287-0.575,1.287-1.285V20.52h5.232
	c0.061,0,0.113-0.024,0.171-0.034V25.698z M26.849,18.538c-0.058-0.01-0.11-0.035-0.171-0.035h-5.232v-0.766
	c0-0.709-0.576-1.287-1.287-1.287s-1.287,0.578-1.287,1.287v0.766h-1.337v-0.766c0-0.709-0.576-1.287-1.288-1.287
	c-0.711,0-1.287,0.578-1.287,1.287v0.766h-1.625v-0.766c0-0.709-0.577-1.287-1.289-1.287c-0.709,0-1.285,0.578-1.285,1.287v0.766
	H9.421v-0.766c0-0.709-0.574-1.287-1.287-1.287c-0.711,0-1.286,0.578-1.286,1.287v0.766H5.321c-0.061,0-0.112,0.025-0.17,0.035
	v-5.213c0.058,0.01,0.109,0.035,0.17,0.035h1.526v0.976c0,0.711,0.575,1.286,1.286,1.286c0.713,0,1.287-0.575,1.287-1.286V13.36
	h1.339v0.976c0,0.711,0.576,1.286,1.285,1.286c0.712,0,1.289-0.575,1.289-1.286V13.36h13.344c0.061,0,0.113-0.025,0.171-0.035
	V18.538z M26.849,11.378c-0.058-0.01-0.11-0.033-0.171-0.033H13.334v-0.946c0-0.71-0.577-1.287-1.289-1.287
	c-0.709,0-1.285,0.577-1.285,1.287v0.946H9.421v-0.946c0-0.71-0.574-1.287-1.287-1.287c-0.711,0-1.286,0.577-1.286,1.287v0.946
	H5.321c-0.061,0-0.112,0.023-0.17,0.033V6.166c0.058,0.011,0.109,0.035,0.17,0.035h1.526v1.014c0,0.711,0.575,1.286,1.286,1.286
	c0.713,0,1.287-0.575,1.287-1.286V6.201h13.307v1.014c0,0.711,0.576,1.286,1.287,1.286s1.286-0.575,1.286-1.286V6.201h1.377
	c0.061,0,0.113-0.024,0.171-0.035V11.378z"/>
</svg>
