<?xml version="1.0" encoding="utf-8"?>
<!-- Generator: Adobe Illustrator 16.0.0, SVG Export Plug-In . SVG Version: 6.00 Build 0)  -->
<!DOCTYPE svg PUBLIC "-//W3C//DTD SVG 1.1//EN" "http://www.w3.org/Graphics/SVG/1.1/DTD/svg11.dtd">
<svg version="1.1" id="Layer_1" xmlns="http://www.w3.org/2000/svg" xmlns:xlink="http://www.w3.org/1999/xlink" x="0px" y="0px"
	 width="32px" height="32px" viewBox="0 0 32 32" enable-background="new 0 0 32 32" xml:space="preserve">
<g>
	<path d="M24.596,14.401V0.397H7.393v14.004H0.371v17.202h31.236V14.401H24.596z M10.619,3.623h10.75v10.751h-10.75V3.623z
		 M14.347,28.377H3.596V17.626h10.751V28.377z M28.381,28.377H17.63V17.626h10.751V28.377z"/>
	<path d="M15.139,6.158l-1.735,5.68h1.331l0.404-1.458h1.627l0.438,1.458h1.382l-1.761-5.68H15.139z M15.324,9.419l0.337-1.205
		c0.093-0.329,0.177-0.759,0.262-1.096h0.017c0.084,0.337,0.186,0.759,0.286,1.096l0.354,1.205H15.324z"/>
	<path d="M10.608,25.378c0.354-0.286,0.59-0.691,0.59-1.205c0-0.733-0.48-1.222-1.129-1.399v-0.017
		c0.64-0.236,0.935-0.708,0.935-1.213c0-0.515-0.286-0.902-0.683-1.113c-0.413-0.244-0.893-0.32-1.677-0.32
		c-0.641,0-1.323,0.05-1.66,0.118v5.579c0.287,0.042,0.759,0.084,1.391,0.084C9.504,25.892,10.195,25.707,10.608,25.378z
		 M8.257,21.08c0.109-0.017,0.27-0.033,0.548-0.033c0.581,0,0.91,0.227,0.91,0.657c0,0.422-0.362,0.7-1.036,0.7H8.257V21.08z
		 M8.257,23.322h0.438c0.641,0,1.155,0.228,1.155,0.801c0,0.598-0.514,0.817-1.096,0.817c-0.219,0-0.371,0-0.497-0.017V23.322z"/>
	<path d="M23.713,25.93c0.691,0,1.222-0.126,1.458-0.245l-0.194-1.003c-0.252,0.101-0.682,0.186-1.069,0.186
		c-1.146,0-1.82-0.716-1.82-1.854c0-1.264,0.792-1.879,1.812-1.879c0.455,0,0.817,0.101,1.078,0.21l0.262-1.02
		c-0.228-0.118-0.732-0.253-1.399-0.253c-1.719,0-3.101,1.079-3.101,3.017C20.738,24.708,21.75,25.93,23.713,25.93z"/>
</g>
</svg>
