<?xml version="1.0" encoding="utf-8"?>
<!-- Generator: Adobe Illustrator 16.0.0, SVG Export Plug-In . SVG Version: 6.00 Build 0)  -->
<!DOCTYPE svg PUBLIC "-//W3C//DTD SVG 1.1//EN" "http://www.w3.org/Graphics/SVG/1.1/DTD/svg11.dtd">
<svg version="1.1" id="Layer_1" xmlns="http://www.w3.org/2000/svg" xmlns:xlink="http://www.w3.org/1999/xlink" x="0px" y="0px"
	 width="32px" height="32px" viewBox="0 0 32 32" enable-background="new 0 0 32 32" xml:space="preserve">
<g>
	<path d="M26.901,15.949c2.475-2.526,3.976-4.964,4.234-6.884c0.151-1.122-0.102-2.058-0.753-2.781
		c-0.796-0.886-2.091-1.334-3.847-1.334c-1.37,0-2.976,0.272-4.775,0.81C20.357,2.228,18.266,0.208,16,0.208
		c-2.266,0-4.356,2.02-5.758,5.552c-1.8-0.538-3.406-0.81-4.775-0.81c-1.757,0-3.051,0.449-3.848,1.334
		c-0.651,0.724-0.904,1.659-0.753,2.78c0.257,1.919,1.759,4.358,4.234,6.885c-2.476,2.526-3.977,4.965-4.234,6.884
		c-0.153,1.122,0.101,2.057,0.753,2.781c0.797,0.886,2.091,1.335,3.848,1.335c1.368,0,2.974-0.272,4.775-0.811
		c1.402,3.533,3.493,5.553,5.758,5.553c2.266,0,4.357-2.021,5.76-5.553c1.801,0.538,3.407,0.811,4.775,0.811
		c1.756,0,3.051-0.449,3.847-1.334c0.651-0.724,0.905-1.66,0.753-2.782C30.877,20.914,29.376,18.475,26.901,15.949z M23.214,15.027
		c0.361,0.306,0.711,0.615,1.045,0.922c-0.334,0.308-0.684,0.616-1.045,0.922c0.009-0.305,0.014-0.612,0.014-0.922
		S23.223,15.332,23.214,15.027z M29.016,9.11c-0.206,1.525-1.489,3.558-3.622,5.74c-0.714-0.659-1.49-1.315-2.309-1.955
		c-0.176-1.91-0.516-3.694-1.011-5.31c3.235-0.965,5.721-0.92,6.592,0.047C28.983,7.984,29.101,8.481,29.016,9.11z M23.085,19.003
		c0.819-0.64,1.594-1.296,2.309-1.955c2.133,2.182,3.416,4.214,3.622,5.74c0.085,0.629-0.033,1.126-0.351,1.478
		c-0.869,0.967-3.356,1.013-6.591,0.047C22.569,22.698,22.909,20.914,23.085,19.003z M21.302,20.325
		c-0.18,1.223-0.435,2.387-0.759,3.47c-0.925-0.338-1.88-0.741-2.849-1.2c0.989-0.558,1.874-1.098,2.694-1.642
		C20.699,20.745,21.002,20.536,21.302,20.325z M16,29.599c-1.486,0-2.949-1.574-4.034-4.328c1.329-0.481,2.685-1.072,4.035-1.759
		c1.346,0.686,2.701,1.276,4.034,1.759C18.949,28.025,17.486,29.599,16,29.599z M11.613,20.952c0.815,0.542,1.7,1.082,2.693,1.642
		c-0.969,0.459-1.924,0.862-2.849,1.2c-0.325-1.083-0.58-2.248-0.759-3.471C10.997,20.536,11.302,20.745,11.613,20.952z
		 M10.698,11.575c0.18-1.224,0.435-2.388,0.759-3.471c0.928,0.339,1.884,0.742,2.85,1.2c-0.987,0.557-1.872,1.096-2.694,1.643
		C11.302,11.154,10.997,11.363,10.698,11.575z M16,2.3c1.487,0,2.95,1.574,4.035,4.328C18.702,7.11,17.347,7.701,16,8.386
		c-1.348-0.686-2.704-1.277-4.035-1.759C13.051,3.874,14.513,2.3,16,2.3z M20.388,10.947c-0.819-0.544-1.704-1.084-2.693-1.643
		c0.97-0.46,1.926-0.863,2.849-1.2c0.325,1.082,0.58,2.246,0.759,3.469C21.002,11.362,20.699,11.153,20.388,10.947z M21.619,15.949
		c0,0.722-0.029,1.465-0.088,2.269c-0.687,0.519-1.379,1.01-2.058,1.461C18.368,20.415,17.2,21.111,16,21.751
		c-1.198-0.638-2.365-1.335-3.473-2.072c-0.682-0.453-1.374-0.945-2.059-1.463c-0.059-0.803-0.088-1.546-0.088-2.268
		c0-0.721,0.029-1.465,0.088-2.268c0.688-0.52,1.38-1.011,2.059-1.462c1.105-0.735,2.273-1.432,3.473-2.073
		c1.196,0.638,2.363,1.335,3.473,2.072c0.679,0.451,1.371,0.943,2.058,1.461C21.59,14.484,21.619,15.228,21.619,15.949z
		 M8.786,16.871c-0.357-0.303-0.707-0.612-1.044-0.922c0.335-0.309,0.685-0.617,1.044-0.922c-0.008,0.305-0.013,0.612-0.013,0.922
		S8.778,16.566,8.786,16.871z M8.914,12.896c-0.819,0.64-1.594,1.296-2.307,1.954c-2.134-2.183-3.417-4.215-3.624-5.741
		C2.899,8.481,3.017,7.984,3.334,7.632c0.445-0.495,1.311-0.757,2.503-0.757c1.135,0,2.51,0.239,4.088,0.71
		C9.431,9.2,9.091,10.985,8.914,12.896z M2.983,22.789c0.206-1.525,1.49-3.558,3.624-5.741c0.712,0.657,1.488,1.313,2.307,1.955
		c0.177,1.911,0.517,3.695,1.012,5.31c-3.235,0.966-5.721,0.919-6.592-0.047C3.017,23.914,2.899,23.417,2.983,22.789z"/>
	<circle cx="16" cy="15.949" r="3.278"/>
</g>
</svg>
