<?xml version="1.0" encoding="utf-8"?>
<!-- Generator: Adobe Illustrator 16.0.0, SVG Export Plug-In . SVG Version: 6.00 Build 0)  -->
<!DOCTYPE svg PUBLIC "-//W3C//DTD SVG 1.1//EN" "http://www.w3.org/Graphics/SVG/1.1/DTD/svg11.dtd">
<svg version="1.1" id="Layer_1" xmlns="http://www.w3.org/2000/svg" xmlns:xlink="http://www.w3.org/1999/xlink" x="0px" y="0px"
	 width="32px" height="32px" viewBox="0 0 32 32" enable-background="new 0 0 32 32" xml:space="preserve">
<g>
	<path d="M9.734,23.229h12.532v-7.298H9.734V23.229z M20.226,17.369c-0.65,0.68-1.912,1.493-4.225,1.493s-3.575-0.813-4.225-1.493
		H20.226z M11.172,18.771C12.088,19.541,13.6,20.3,16,20.3c2.4,0,3.913-0.759,4.829-1.528v3.02h-9.657V18.771z"/>
	<path d="M31.768,9.451c-0.023-1.987-0.376-4.65-1.917-6.048c-0.85-0.772-1.891-1.148-3.003-1.083
		c-1.8,0.103-3.38,1.317-4.228,2.104c-0.575-0.244-1.206-0.382-1.869-0.382h-9.502c-0.663,0-1.292,0.139-1.868,0.382
		c-0.849-0.787-2.428-2-4.228-2.104C4.042,2.254,3.001,2.63,2.149,3.403C0.609,4.801,0.257,7.464,0.233,9.451
		c-0.059,4.922,1.825,11.98,5.429,15.829l-0.053,1.129H7.84v1.353h3.583v-1.353h9.153v1.353h3.584v-1.353h2.232l-0.054-1.129
		C29.942,21.43,31.826,14.373,31.768,9.451z M6.449,8.619L5.876,20.748c-1.843-3.346-2.871-7.845-2.83-11.263
		c0.028-2.308,0.532-3.579,0.995-3.999c0.295-0.268,0.595-0.375,0.947-0.358c0.757,0.042,1.616,0.621,2.228,1.138
		C6.775,6.951,6.49,7.749,6.449,8.619z M7.574,24.534L8.322,8.708c0.074-1.566,1.36-2.792,2.927-2.792h9.502
		c1.567,0,2.854,1.226,2.928,2.792l0.748,15.826H7.574z M25.552,8.619c-0.04-0.87-0.325-1.667-0.767-2.354
		c0.611-0.517,1.471-1.096,2.229-1.138c0.352-0.016,0.651,0.091,0.947,0.358c0.461,0.42,0.967,1.691,0.994,3.999
		c0.041,3.418-0.986,7.918-2.83,11.264L25.552,8.619z"/>
	<path d="M21.471,9.746H10.44c-0.552,0-1,0.448-1,1s0.448,1,1,1h8.89l-0.282,1.561c-0.02,0.108-0.021,0.225,0,0.339
		c0.094,0.518,0.589,0.861,1.107,0.768c0.518-0.093,0.861-0.589,0.768-1.107l-0.281-1.561h0.829c0.553,0,1-0.448,1-1
		S22.023,9.746,21.471,9.746z"/>
</g>
</svg>
