<?xml version="1.0" encoding="utf-8"?>
<!-- Generator: Adobe Illustrator 17.0.0, SVG Export Plug-In . SVG Version: 6.00 Build 0)  -->
<!DOCTYPE svg PUBLIC "-//W3C//DTD SVG 1.1//EN" "http://www.w3.org/Graphics/SVG/1.1/DTD/svg11.dtd">
<svg version="1.1" id="Layer_1" xmlns="http://www.w3.org/2000/svg" xmlns:xlink="http://www.w3.org/1999/xlink" x="0px" y="0px"
	 width="32px" height="32px" viewBox="0 0 32 32" enable-background="new 0 0 32 32" xml:space="preserve">
<path d="M28.104,5.688C24.096,0.976,17.909-0.787,12.29,0.622c-2.27,0.569-4.447,1.656-6.35,3.275
	c-6.615,5.625-7.417,15.548-1.791,22.164c4.007,4.711,10.195,6.476,15.814,5.066c2.271-0.568,4.447-1.657,6.351-3.275
	C32.927,22.227,33.729,12.304,28.104,5.688z M28.425,20.952c-1.163-0.812-2.538-1.118-4.05-0.867
	c-0.104-2.052-0.38-4.025-0.758-5.869c1.234-0.127,3.396-0.265,5.705-0.028C29.611,16.475,29.307,18.809,28.425,20.952z
	 M3.145,14.178c0.323-1.281,2.19-4.438,5.103-4.976c1.99-0.366,4.171-0.326,6.278-0.29c1.94,0.034,3.781,0.05,5.447-0.199
	c0.414,1.171,0.822,2.472,1.182,3.87c-9.616,1.824-15.293,5.991-17.501,7.938C3.272,19.498,2.547,16.547,3.145,14.178z M21.273,6.42
	c-0.541-1.367-1.063-2.502-1.481-3.351c1.157,0.331,2.263,0.82,3.294,1.457C23.057,5.644,22.036,6.177,21.273,6.42z M21.609,14.532
	c0.399,1.915,0.685,3.973,0.77,6.106c-2.421,0.828-3.787,1.688-5.223,2.592c-1.116,0.703-2.269,1.431-4.057,2.222
	c-2.084,0.923-3.925,0.685-5.202,0.257c-1.303-0.75-2.364-2.023-3.244-3.391C6.377,20.746,11.927,16.355,21.609,14.532z
	 M26.277,7.241c1.201,1.412,2.129,3.108,2.645,4.775c-2.75-0.125-4.999,0.15-5.758,0.236c-0.36-1.425-0.771-2.754-1.19-3.958
	c1.121-0.385,2.362-1.158,2.875-2.473C25.352,6.258,25.836,6.722,26.277,7.241z M7.491,5.722c1.578-1.342,3.388-2.275,5.38-2.774
	c1.477-0.371,2.968-0.469,4.423-0.343c0.302,0.549,1.085,2.043,1.954,4.198c-1.434,0.164-3.023,0.14-4.687,0.109
	C12.355,6.87,10.072,6.83,7.884,7.234c-1.075,0.199-2.003,0.65-2.806,1.222C5.741,7.461,6.536,6.534,7.491,5.722z M19.378,28.802
	c-2.956,0.741-5.967,0.438-8.624-0.739c0.979-0.064,2.039-0.287,3.154-0.781c1.921-0.852,3.191-1.651,4.313-2.358
	c1.244-0.784,2.366-1.483,4.172-2.162c-0.043,1.695-0.229,3.425-0.596,5.157C21.025,28.289,20.223,28.591,19.378,28.802z
	 M24.759,26.027c-0.219,0.187-0.452,0.35-0.682,0.517c0.222-1.495,0.329-2.976,0.34-4.424c1.202-0.269,2.241-0.06,3.101,0.639
	C26.795,23.959,25.884,25.07,24.759,26.027z"/>
</svg>
