<?xml version="1.0" encoding="utf-8"?>
<!-- Generator: Adobe Illustrator 16.0.0, SVG Export Plug-In . SVG Version: 6.00 Build 0)  -->
<!DOCTYPE svg PUBLIC "-//W3C//DTD SVG 1.1//EN" "http://www.w3.org/Graphics/SVG/1.1/DTD/svg11.dtd">
<svg version="1.1" id="Layer_1" xmlns="http://www.w3.org/2000/svg" xmlns:xlink="http://www.w3.org/1999/xlink" x="0px" y="0px"
	 width="32px" height="32px" viewBox="0 0 32 32" enable-background="new 0 0 32 32" xml:space="preserve">
<path d="M31.057,29.368c0.029-1.007-3.311-6.271-3.304-8.412c0.006-1.866,0.006-3.829,0.006-5.31c0-5.277-3.395-9.751-8.114-11.389
	c-0.057-2.141-1.807-3.869-3.962-3.869c-2.158,0-3.911,1.732-3.962,3.878c-4.707,1.645-8.089,6.111-8.089,11.379
	c0,1.566-0.011,3.661-0.024,5.611c-0.013,2.03-2.659,7.156-2.665,8.111h17.434c0.483,1.359,1.768,2.338,3.292,2.338
	s2.81-0.979,3.292-2.338H31.057z M15.684,2.331c0.905,0,1.665,0.599,1.927,1.418c-0.625-0.1-1.261-0.166-1.914-0.166
	c-0.662,0-1.307,0.067-1.939,0.17C14.017,2.932,14.777,2.331,15.684,2.331z M15.696,6.583c4.998,0,9.063,4.066,9.063,9.063
	c0,0.643,0,1.386-0.001,2.163H6.627c0.003-0.775,0.005-1.519,0.005-2.163C6.632,10.649,10.698,6.583,15.696,6.583z M6.608,21.278
	c0.003-0.484,0.006-0.977,0.009-1.469h18.139c-0.001,0.38-0.002,0.761-0.003,1.137c-0.005,1.506,0.676,3.247,1.709,5.422H5.241
	C6.058,24.29,6.599,22.641,6.608,21.278z"/>
</svg>
