<?xml version="1.0" encoding="utf-8"?>
<!-- Generator: Adobe Illustrator 16.0.0, SVG Export Plug-In . SVG Version: 6.00 Build 0)  -->
<!DOCTYPE svg PUBLIC "-//W3C//DTD SVG 1.1//EN" "http://www.w3.org/Graphics/SVG/1.1/DTD/svg11.dtd">
<svg version="1.1" id="Layer_1" xmlns="http://www.w3.org/2000/svg" xmlns:xlink="http://www.w3.org/1999/xlink" x="0px" y="0px"
	 width="32px" height="32px" viewBox="0 0 32 32" enable-background="new 0 0 32 32" xml:space="preserve">
<g>
	<path d="M30.488,14.271h-2.546V9.473h2.546c0.758,0,1.372-0.614,1.372-1.373c0-0.758-0.614-1.373-1.372-1.373h-2.546H2.619v10.29
		h25.323h2.546c0.758,0,1.372-0.614,1.372-1.373S31.246,14.271,30.488,14.271z M25.197,14.271H5.364V9.473h19.833V14.271z"/>
	<path d="M1.514,17.578c-0.759,0-1.373,0.614-1.373,1.373c0,0.758,0.614,1.373,1.373,1.373h2.545v4.799H1.514
		c-0.759,0-1.373,0.614-1.373,1.373s0.614,1.373,1.373,1.373h2.545h25.323v-10.29H4.059H1.514z M6.804,20.323h19.833v4.799H6.804
		V20.323z"/>
</g>
</svg>
