<?xml version="1.0" encoding="utf-8"?>
<!-- Generator: Adobe Illustrator 16.0.0, SVG Export Plug-In . SVG Version: 6.00 Build 0)  -->
<!DOCTYPE svg PUBLIC "-//W3C//DTD SVG 1.1//EN" "http://www.w3.org/Graphics/SVG/1.1/DTD/svg11.dtd">
<svg version="1.1" id="Layer_1" xmlns="http://www.w3.org/2000/svg" xmlns:xlink="http://www.w3.org/1999/xlink" x="0px" y="0px"
	 width="32px" height="32px" viewBox="0 0 32 32" enable-background="new 0 0 32 32" xml:space="preserve">
<g>
	<path d="M23.286,0.192H8.511c-4.581,0-8.295,3.714-8.295,8.295v14.775c0,4.581,3.714,8.295,8.295,8.295h14.775
		c4.581,0,8.295-3.714,8.295-8.295V8.487C31.581,3.906,27.867,0.192,23.286,0.192z M28.581,8.487v6.462H16.898V3.192h6.388
		C26.206,3.192,28.581,5.568,28.581,8.487z M8.511,3.192h6.388v11.757H3.216V8.487C3.216,5.568,5.591,3.192,8.511,3.192z
		 M3.216,23.263v-6.313h11.683v11.608H8.511C5.591,28.558,3.216,26.182,3.216,23.263z M23.286,28.558h-6.388V16.949h11.683v6.313
		C28.581,26.182,26.206,28.558,23.286,28.558z"/>
	<rect x="6.685" y="8.643" width="5.133" height="1.439"/>
	<polygon points="9.96,21.956 9.96,18.962 8.612,18.962 8.612,21.956 5.742,21.956 5.742,23.247 8.612,23.247 8.612,26.268 
		9.96,26.268 9.96,23.247 12.829,23.247 12.829,21.956 	"/>
	<polygon points="19.415,11.47 20.368,12.423 22.504,10.286 24.533,12.315 25.446,11.402 23.417,9.373 25.534,7.257 24.581,6.304 
		22.464,8.42 20.435,6.391 19.521,7.304 21.552,9.333 	"/>
	<rect x="19.926" y="20.515" width="5.097" height="1.302"/>
	<rect x="19.926" y="23.412" width="5.097" height="1.302"/>
</g>
</svg>
