<?xml version="1.0" encoding="utf-8"?>
<!-- Generator: Adobe Illustrator 16.0.0, SVG Export Plug-In . SVG Version: 6.00 Build 0)  -->
<!DOCTYPE svg PUBLIC "-//W3C//DTD SVG 1.1//EN" "http://www.w3.org/Graphics/SVG/1.1/DTD/svg11.dtd">
<svg version="1.1" id="Layer_1" xmlns="http://www.w3.org/2000/svg" xmlns:xlink="http://www.w3.org/1999/xlink" x="0px" y="0px"
	 width="32px" height="32px" viewBox="0 0 32 32" enable-background="new 0 0 32 32" xml:space="preserve">
<g>
	<path d="M26.264,3.808V2.417c0-0.802-0.65-1.451-1.451-1.451c-0.802,0-1.451,0.649-1.451,1.451v1.391h-2.944V2.417
		c0-0.802-0.649-1.451-1.451-1.451c-0.801,0-1.451,0.649-1.451,1.451v1.391H14.57V2.417c0-0.802-0.65-1.451-1.451-1.451
		c-0.802,0-1.451,0.649-1.451,1.451v1.391H8.725V2.417c0-0.802-0.65-1.451-1.452-1.451c-0.801,0-1.451,0.649-1.451,1.451v1.391
		H0.519v27.681h30.963V3.808H26.264z M3.421,6.71h2.4v0.506c0,0.802,0.65,1.452,1.451,1.452c0.802,0,1.452-0.65,1.452-1.452V6.71
		h2.943v0.506c0,0.802,0.649,1.452,1.451,1.452c0.801,0,1.451-0.65,1.451-1.452V6.71h2.944v0.506c0,0.802,0.65,1.452,1.451,1.452
		c0.802,0,1.451-0.65,1.451-1.452V6.71h2.944v0.506c0,0.802,0.649,1.452,1.451,1.452c0.801,0,1.451-0.65,1.451-1.452V6.71h2.315
		v4.141H3.421V6.71z M3.421,28.586V12.787h25.158v15.799H3.421z"/>
	<rect x="5.821" y="15.673" width="3.342" height="3.341"/>
	<rect x="11.707" y="15.673" width="3.342" height="3.341"/>
	<rect x="17.594" y="15.673" width="3.342" height="3.341"/>
	<rect x="23.479" y="15.673" width="3.342" height="3.341"/>
	<rect x="5.821" y="22.356" width="3.342" height="3.341"/>
	<rect x="11.707" y="22.356" width="3.342" height="3.341"/>
	<rect x="17.594" y="22.356" width="3.342" height="3.341"/>
	<rect x="23.479" y="22.356" width="3.342" height="3.341"/>
</g>
</svg>
