<?xml version="1.0" encoding="utf-8"?>
<!-- Generator: Adobe Illustrator 16.0.0, SVG Export Plug-In . SVG Version: 6.00 Build 0)  -->
<!DOCTYPE svg PUBLIC "-//W3C//DTD SVG 1.1//EN" "http://www.w3.org/Graphics/SVG/1.1/DTD/svg11.dtd">
<svg version="1.1" id="Layer_1" xmlns="http://www.w3.org/2000/svg" xmlns:xlink="http://www.w3.org/1999/xlink" x="0px" y="0px"
	 width="32px" height="32px" viewBox="0 0 32 32" enable-background="new 0 0 32 32" xml:space="preserve">
<g>
	<path d="M29.669,23.753c1.301-2.326,1.982-4.934,1.982-7.622c0-8.628-7.021-15.648-15.65-15.648S0.352,7.503,0.352,16.131
		c0,8.63,7.021,15.652,15.65,15.652c2.673,0,5.264-0.675,7.581-1.965c1.607,0.642,3.262,1.302,3.262,1.302
		c0.354,0.14,0.724,0.209,1.092,0.209c0.721,0,1.433-0.265,1.986-0.767c0.835-0.76,1.165-1.927,0.85-3.012L29.669,23.753z
		 M27.936,28.376c0,0-2.797-1.113-4.646-1.857c-2.063,1.449-4.573,2.312-7.289,2.312c-7.012,0-12.696-5.685-12.696-12.699
		c0-7.011,5.684-12.695,12.696-12.695S28.698,9.12,28.698,16.131c0,2.669-0.827,5.142-2.231,7.186L27.936,28.376z"/>
	<path d="M9.871,12.914h12.231c0.543,0,0.984-0.44,0.984-0.984c0-0.545-0.441-0.984-0.984-0.984H9.871
		c-0.544,0-0.984,0.439-0.984,0.984C8.886,12.474,9.327,12.914,9.871,12.914z"/>
	<path d="M22.132,15.148H9.901c-0.543,0-0.984,0.44-0.984,0.984s0.441,0.984,0.984,0.984h12.231c0.544,0,0.984-0.44,0.984-0.984
		S22.676,15.148,22.132,15.148z"/>
	<path d="M22.132,19.352H9.901c-0.543,0-0.984,0.44-0.984,0.984c0,0.545,0.441,0.984,0.984,0.984h12.231
		c0.544,0,0.984-0.439,0.984-0.984C23.117,19.792,22.676,19.352,22.132,19.352z"/>
</g>
</svg>
