<?xml version="1.0" encoding="utf-8"?>
<!-- Generator: Adobe Illustrator 16.0.0, SVG Export Plug-In . SVG Version: 6.00 Build 0)  -->
<!DOCTYPE svg PUBLIC "-//W3C//DTD SVG 1.1//EN" "http://www.w3.org/Graphics/SVG/1.1/DTD/svg11.dtd">
<svg version="1.1" id="Layer_1" xmlns="http://www.w3.org/2000/svg" xmlns:xlink="http://www.w3.org/1999/xlink" x="0px" y="0px"
	 width="32px" height="32px" viewBox="0 0 32 32" enable-background="new 0 0 32 32" xml:space="preserve">
<g>
	<path d="M11.797,0.382H11.63L3.065,9.347v0.124v22.146h25.93V0.382H11.797z M11.81,4.427l0.015,4.984L7.031,9.444L11.81,4.427z
		 M26.066,28.689H5.994V12.38l8.767-0.06l-0.025-9.009h11.332V28.689z"/>
	<rect x="17.454" y="4.824" width="5.859" height="6.17"/>
	<path d="M23.313,12.916h-5.859v6.17h5.859V12.916z M21.85,17.621h-2.931v-3.242h2.931V17.621z"/>
	<path d="M23.313,21.007h-5.859v6.17h5.859V21.007z M21.85,25.713h-2.931v-3.242h2.931V25.713z"/>
</g>
</svg>
