<?xml version="1.0" encoding="utf-8"?>
<!-- Generator: Adobe Illustrator 16.0.0, SVG Export Plug-In . SVG Version: 6.00 Build 0)  -->
<!DOCTYPE svg PUBLIC "-//W3C//DTD SVG 1.1//EN" "http://www.w3.org/Graphics/SVG/1.1/DTD/svg11.dtd">
<svg version="1.1" id="Layer_1" xmlns="http://www.w3.org/2000/svg" xmlns:xlink="http://www.w3.org/1999/xlink" x="0px" y="0px"
	 width="32px" height="32px" viewBox="0 0 32 32" enable-background="new 0 0 32 32" xml:space="preserve">
<path d="M31.562,17.903c0.002-0.102-2.244-12.232-2.244-12.232c-0.151-0.814-0.935-1.356-1.749-1.2
	c-0.814,0.151-1.352,0.935-1.2,1.749l1.271,6.83c-0.883-0.403-1.862-0.635-2.897-0.635l0,0h0c-2.855,0-5.306,1.715-6.389,4.17
	h-4.706c-1.083-2.455-3.534-4.17-6.389-4.17c-1.031,0-2.007,0.229-2.888,0.631L5.64,6.22c0.152-0.814-0.386-1.598-1.2-1.749
	c-0.818-0.155-1.597,0.386-1.749,1.2c0,0-2.241,12.104-2.241,12.192c-0.111,0.495-0.175,1.008-0.175,1.537
	c0,3.855,3.127,6.983,6.984,6.983c3.794,0,6.875-3.029,6.975-6.799h3.534c0.099,3.77,3.181,6.799,6.975,6.799h0l0,0
	c3.857,0,6.984-3.128,6.984-6.983C31.726,18.886,31.667,18.387,31.562,17.903z M20.758,19.4c0-2.197,1.787-3.985,3.984-3.985
	c2.196,0,3.983,1.788,3.983,3.985c0,2.196-1.787,3.983-3.983,3.983C22.545,23.384,20.758,21.597,20.758,19.4z M7.258,23.384
	c-2.197,0-3.984-1.787-3.984-3.983c0-2.197,1.787-3.985,3.984-3.985s3.984,1.788,3.984,3.985
	C11.242,21.597,9.455,23.384,7.258,23.384z"/>
</svg>
