<?xml version="1.0" encoding="utf-8"?>
<!-- Generator: Adobe Illustrator 16.0.0, SVG Export Plug-In . SVG Version: 6.00 Build 0)  -->
<!DOCTYPE svg PUBLIC "-//W3C//DTD SVG 1.1//EN" "http://www.w3.org/Graphics/SVG/1.1/DTD/svg11.dtd">
<svg version="1.1" id="Layer_1" xmlns="http://www.w3.org/2000/svg" xmlns:xlink="http://www.w3.org/1999/xlink" x="0px" y="0px"
	 width="32px" height="32px" viewBox="0 0 32 32" enable-background="new 0 0 32 32" xml:space="preserve">
<g>
	<path d="M16.045,3.224C8.5,3.224,2.384,9.341,2.384,16.885c0,3.743,1.507,7.132,3.945,9.6c-0.434,0.555-1.101,1.408-2.016,2.583
		c-0.5,0.641-0.384,1.565,0.257,2.066c0.269,0.209,0.587,0.311,0.904,0.311c0.438,0,0.873-0.195,1.163-0.567
		c0,0,1.232-1.582,1.979-2.536c2.14,1.392,4.688,2.207,7.43,2.207s5.291-0.815,7.432-2.207c0.746,0.954,1.978,2.536,1.978,2.536
		c0.291,0.372,0.725,0.567,1.163,0.567c0.316,0,0.636-0.102,0.903-0.311c0.642-0.501,0.757-1.426,0.257-2.066
		c-0.915-1.175-1.582-2.029-2.016-2.584c2.437-2.467,3.944-5.856,3.944-9.599C29.706,9.341,23.59,3.224,16.045,3.224z M5.015,16.885
		c0-6.081,4.949-11.029,11.03-11.029c6.084,0,11.03,4.948,11.03,11.029c0,6.084-4.946,11.033-11.03,11.033
		C9.963,27.918,5.015,22.969,5.015,16.885z"/>
	<path d="M16.946,15.031l0.007-3.83c0-0.485-0.391-0.878-0.876-0.879c-0.484-0.001-0.877,0.391-0.878,0.877l-0.007,3.806
		c-0.472,0.215-0.851,0.598-1.053,1.076l-6.351-0.012c-0.485-0.001-0.877,0.393-0.878,0.878c-0.001,0.481,0.39,0.875,0.875,0.876
		l6.433,0.011c0.344,0.663,1.029,1.12,1.828,1.12c1.145,0,2.068-0.926,2.068-2.069C18.113,16.068,17.636,15.367,16.946,15.031z"/>
	<path d="M2.036,3.019C0.023,5.018-0.069,8.21,1.759,10.322l7.583-7.521C7.244,0.957,4.048,1.023,2.036,3.019z"/>
	<path d="M30.056,3.019c-2.015-1.995-5.208-2.062-7.306-0.217l7.581,7.521C32.159,8.21,32.068,5.018,30.056,3.019z"/>
</g>
</svg>
