<?xml version="1.0" encoding="utf-8"?>
<!-- Generator: Adobe Illustrator 16.0.0, SVG Export Plug-In . SVG Version: 6.00 Build 0)  -->
<!DOCTYPE svg PUBLIC "-//W3C//DTD SVG 1.1//EN" "http://www.w3.org/Graphics/SVG/1.1/DTD/svg11.dtd">
<svg version="1.1" id="Layer_1" xmlns="http://www.w3.org/2000/svg" xmlns:xlink="http://www.w3.org/1999/xlink" x="0px" y="0px"
	 width="32px" height="32px" viewBox="0 0 32 32" enable-background="new 0 0 32 32" xml:space="preserve">
<g>
	<path d="M26.447,24.896c1.331-0.56,2.268-1.874,2.268-3.408c0-2.042-1.655-3.695-3.696-3.695c-2.04,0-3.694,1.653-3.694,3.695
		c0,1.534,0.935,2.849,2.267,3.408c-1.208,0.304-2.268,0.979-3.048,1.896c-0.78-0.918-1.84-1.593-3.048-1.896
		c1.331-0.56,2.268-1.874,2.268-3.408c0-2.042-1.655-3.695-3.695-3.695c-2.042,0-3.696,1.653-3.696,3.695
		c0,1.534,0.936,2.849,2.268,3.408c-1.209,0.304-2.269,0.979-3.049,1.896c-0.78-0.918-1.84-1.593-3.049-1.896
		c1.333-0.56,2.268-1.874,2.268-3.408c0-2.042-1.654-3.695-3.696-3.695c-2.04,0-3.695,1.653-3.695,3.695
		c0,1.534,0.936,2.849,2.268,3.408c-1.936,0.488-3.494,1.925-4.124,3.802h8.951h2.153h6.799h2.152h8.951
		C29.941,26.821,28.383,25.385,26.447,24.896z"/>
	<path d="M0.352,1.791V26.16h1.511c0.502-0.597,1.099-1.109,1.777-1.506c-0.774-0.848-1.226-1.968-1.226-3.166
		c0-1.058,0.364-2.024,0.956-2.811V4.81h25.453v13.939c0.559,0.772,0.897,1.714,0.897,2.739c0,1.198-0.451,2.318-1.225,3.166
		c0.679,0.396,1.276,0.909,1.777,1.506h1.569V1.791H0.352z"/>
</g>
</svg>
