<?xml version="1.0" encoding="utf-8"?>
<!-- Generator: Adobe Illustrator 16.0.0, SVG Export Plug-In . SVG Version: 6.00 Build 0)  -->
<!DOCTYPE svg PUBLIC "-//W3C//DTD SVG 1.1//EN" "http://www.w3.org/Graphics/SVG/1.1/DTD/svg11.dtd">
<svg version="1.1" id="Layer_1" xmlns="http://www.w3.org/2000/svg" xmlns:xlink="http://www.w3.org/1999/xlink" x="0px" y="0px"
	 width="32px" height="32px" viewBox="0 0 32 32" enable-background="new 0 0 32 32" xml:space="preserve">
<path d="M27.925,31.01l-1.477-2.769c0.409-0.45,0.519-1.121,0.216-1.688l-3.509-6.579h2.203c0.546,0,0.986-0.442,0.986-0.986
	c0-0.545-0.44-0.986-0.986-0.986h-3.255l-1.663-3.12c1.461-1.252,2.39-3.107,2.39-5.183c0-3.436-2.541-6.271-5.844-6.75V1.243
	c0-0.545-0.441-0.987-0.986-0.987s-0.986,0.442-0.986,0.987v1.705c-3.304,0.479-5.845,3.314-5.845,6.75
	c0,2.076,0.929,3.931,2.389,5.183l-1.663,3.119H7.59c-0.545,0-0.986,0.441-0.986,0.986c0,0.544,0.441,0.986,0.986,0.986h1.254
	l-3.509,6.579c-0.302,0.568-0.193,1.24,0.217,1.69L4.076,31.01c-0.128,0.24-0.037,0.539,0.203,0.667
	c0.074,0.039,0.154,0.058,0.232,0.058c0.176,0,0.347-0.095,0.436-0.261l1.479-2.771c0.071,0.011,0.143,0.026,0.214,0.026
	c0.529,0,1.041-0.285,1.307-0.784l4.251-7.971h7.605l4.251,7.971c0.266,0.5,0.777,0.784,1.306,0.784
	c0.072,0,0.145-0.015,0.216-0.026l1.479,2.772c0.089,0.166,0.26,0.261,0.436,0.261c0.079,0,0.158-0.019,0.232-0.058
	C27.962,31.549,28.053,31.25,27.925,31.01z M13.25,18.001l0.921-1.727c0.583,0.162,1.194,0.255,1.829,0.255
	c0.635,0,1.247-0.093,1.83-0.255l0.921,1.728H13.25z M15.133,14.468L16,12.843l0.867,1.625c-0.283,0.051-0.57,0.088-0.868,0.088
	C15.703,14.556,15.415,14.52,15.133,14.468z M19.479,13.076l-1.492-2.798c-0.316-0.594-0.936-0.965-1.609-0.965h-0.755
	c-0.673,0-1.292,0.371-1.608,0.965l-1.493,2.799c-0.85-0.875-1.379-2.064-1.379-3.378c0-2.678,2.179-4.857,4.857-4.857
	s4.858,2.179,4.858,4.857C20.857,11.012,20.328,12.202,19.479,13.076z"/>
</svg>
