<?xml version="1.0" encoding="utf-8"?>
<!-- Generator: Adobe Illustrator 16.0.0, SVG Export Plug-In . SVG Version: 6.00 Build 0)  -->
<!DOCTYPE svg PUBLIC "-//W3C//DTD SVG 1.1//EN" "http://www.w3.org/Graphics/SVG/1.1/DTD/svg11.dtd">
<svg version="1.1" id="Layer_1" xmlns="http://www.w3.org/2000/svg" xmlns:xlink="http://www.w3.org/1999/xlink" x="0px" y="0px"
	 width="32px" height="32px" viewBox="0 0 32 32" enable-background="new 0 0 32 32" xml:space="preserve">
<path d="M27.568,27.529H9.93L6.23,22.628c0.184-0.361,0.298-0.765,0.298-1.198c0-0.429-0.111-0.827-0.292-1.186l4.831-5.665
	l3.508,6.262l4.219-4.218c1.34,0.323,2.808-0.022,3.854-1.07c1.049-1.048,1.396-2.515,1.07-3.855l4.219-4.218l-8.943-5.01
	l-0.195-0.046c-0.068-0.016-0.155-0.042-0.219-0.065c-1.212-1.183-2.809-1.833-4.504-1.833c-1.725,0-3.345,0.672-4.563,1.891
	C8.294,3.634,7.622,5.255,7.622,6.979c0,1.696,0.65,3.293,1.834,4.506c0.021,0.063,0.047,0.148,0.063,0.212l0.042,0.184
	l-5.899,6.918c-1.364,0.11-2.439,1.239-2.439,2.632c0,1.4,1.088,2.534,2.462,2.635L6.3,27.529H4.75
	c-1.066,0-1.932,0.865-1.932,1.932s0.865,1.932,1.932,1.932h22.818c1.066,0,1.932-0.865,1.932-1.932S28.635,27.529,27.568,27.529z
	 M23.182,8.136l-7.949,7.949l-2.946-5.258c-0.036-0.132-0.096-0.273-0.15-0.414l5.366-5.366c0.144,0.056,0.286,0.105,0.421,0.144
	L23.182,8.136z M11.562,4.465c1.125-1.125,2.918-1.333,4.316-0.525L11.027,8.79c-0.324-0.544-0.508-1.162-0.508-1.812
	C10.52,6.029,10.89,5.137,11.562,4.465z"/>
</svg>
