<?xml version="1.0" encoding="utf-8"?>
<!-- Generator: Adobe Illustrator 16.0.0, SVG Export Plug-In . SVG Version: 6.00 Build 0)  -->
<!DOCTYPE svg PUBLIC "-//W3C//DTD SVG 1.1//EN" "http://www.w3.org/Graphics/SVG/1.1/DTD/svg11.dtd">
<svg version="1.1" id="Layer_1" xmlns="http://www.w3.org/2000/svg" xmlns:xlink="http://www.w3.org/1999/xlink" x="0px" y="0px"
	 width="32px" height="32px" viewBox="0 0 32 32" enable-background="new 0 0 32 32" xml:space="preserve">
<g>
	<path d="M3.86,0.514v30.972h25.712V0.514H3.86z M26.669,28.583H6.764V3.417h19.905V28.583z"/>
	<path d="M10.588,17.361h12.39c0.535,0,0.968-0.433,0.968-0.968c0-0.534-0.433-0.968-0.968-0.968h-12.39
		c-0.535,0-0.968,0.434-0.968,0.968C9.62,16.928,10.053,17.361,10.588,17.361z"/>
	<path d="M10.588,13.081h3.862c0.535,0,0.968-0.433,0.968-0.968c0-0.534-0.433-0.968-0.968-0.968h-3.862
		c-0.535,0-0.968,0.434-0.968,0.968C9.62,12.648,10.053,13.081,10.588,13.081z"/>
	<path d="M10.588,8.801h3.862c0.535,0,0.968-0.433,0.968-0.968c0-0.534-0.433-0.968-0.968-0.968h-3.862
		c-0.535,0-0.968,0.434-0.968,0.968C9.62,8.368,10.053,8.801,10.588,8.801z"/>
	<path d="M10.588,21.641h12.39c0.535,0,0.968-0.434,0.968-0.968c0-0.534-0.433-0.968-0.968-0.968h-12.39
		c-0.535,0-0.968,0.434-0.968,0.968C9.62,21.208,10.053,21.641,10.588,21.641z"/>
	<path d="M10.588,25.921h12.39c0.535,0,0.968-0.434,0.968-0.968c0-0.534-0.433-0.968-0.968-0.968h-12.39
		c-0.535,0-0.968,0.434-0.968,0.968C9.62,25.487,10.053,25.921,10.588,25.921z"/>
	<path d="M18.71,12.802c0.189,0.189,0.437,0.284,0.685,0.284s0.495-0.094,0.685-0.284l1.078-1.078l1.077,1.078
		c0.189,0.189,0.438,0.284,0.685,0.284c0.248,0,0.495-0.094,0.685-0.284c0.378-0.378,0.378-0.99,0-1.369l-0.799-0.799
		c0.543-0.466,0.894-1.148,0.894-1.92c0-1.402-1.138-2.541-2.541-2.541s-2.541,1.138-2.541,2.541c0,0.771,0.351,1.454,0.894,1.92
		l-0.8,0.799C18.332,11.812,18.332,12.424,18.71,12.802z"/>
</g>
</svg>
