<?xml version="1.0" encoding="utf-8"?>
<!-- Generator: Adobe Illustrator 16.0.0, SVG Export Plug-In . SVG Version: 6.00 Build 0)  -->
<!DOCTYPE svg PUBLIC "-//W3C//DTD SVG 1.1//EN" "http://www.w3.org/Graphics/SVG/1.1/DTD/svg11.dtd">
<svg version="1.1" id="Layer_1" xmlns="http://www.w3.org/2000/svg" xmlns:xlink="http://www.w3.org/1999/xlink" x="0px" y="0px"
	 width="32px" height="32px" viewBox="0 0 32 32" enable-background="new 0 0 32 32" xml:space="preserve">
<g>
	<path d="M16.346,0.287h-3.888h-0.169L3.672,9.306v0.125v4.162v18.12h26.089V0.287H16.346z M12.469,4.357l0.015,5.015L7.661,9.404
		L12.469,4.357z M26.814,28.767H6.618V12.357l8.82-0.06l-0.026-9.064h11.402V28.767z"/>
	<path d="M23.069,15.417H10.498c-0.543,0-0.981,0.439-0.981,0.982s0.438,0.982,0.981,0.982h12.571c0.543,0,0.982-0.439,0.982-0.982
		S23.612,15.417,23.069,15.417z"/>
	<path d="M23.069,19.759H10.498c-0.543,0-0.981,0.44-0.981,0.982c0,0.542,0.438,0.982,0.981,0.982h12.571
		c0.543,0,0.982-0.44,0.982-0.982C24.052,20.199,23.612,19.759,23.069,19.759z"/>
	<path d="M23.069,24.102H10.498c-0.543,0-0.981,0.439-0.981,0.982s0.438,0.982,0.981,0.982h12.571c0.543,0,0.982-0.439,0.982-0.982
		S23.612,24.102,23.069,24.102z"/>
	<path d="M22.708,9.04c0.553-0.389,0.916-1.028,0.916-1.755c0-1.187-0.962-2.148-2.148-2.148s-2.148,0.962-2.148,2.148
		c0,0.727,0.363,1.367,0.916,1.755c-1.311,0.496-2.248,1.749-2.263,3.23h6.99C24.956,10.788,24.019,9.536,22.708,9.04z"/>
</g>
</svg>
