<?xml version="1.0" encoding="utf-8"?>
<!-- Generator: Adobe Illustrator 16.0.0, SVG Export Plug-In . SVG Version: 6.00 Build 0)  -->
<!DOCTYPE svg PUBLIC "-//W3C//DTD SVG 1.1//EN" "http://www.w3.org/Graphics/SVG/1.1/DTD/svg11.dtd">
<svg version="1.1" id="Layer_1" xmlns="http://www.w3.org/2000/svg" xmlns:xlink="http://www.w3.org/1999/xlink" x="0px" y="0px"
	 width="32px" height="32px" viewBox="0 0 32 32" enable-background="new 0 0 32 32" xml:space="preserve">
<g>
	<path d="M25.718,5.563c-3.156-3.157-8.22-4.826-14.642-4.826c-4.628,0-8.323,0.848-8.478,0.884L1.689,1.833L1.478,2.741
		C1.33,3.376-2.059,18.383,5.419,25.862c3.157,3.158,8.221,4.827,14.643,4.827c4.628,0,8.323-0.848,8.478-0.884l0.909-0.212
		l0.212-0.909C29.808,28.048,33.196,13.042,25.718,5.563z M26.922,27.068c-1.322,0.238-3.907,0.621-6.86,0.621
		c-3.911,0-9.259-0.685-12.521-3.948C2.197,18.396,3.637,7.592,4.216,4.356c1.318-0.238,3.896-0.62,6.86-0.62
		c3.911,0,9.258,0.685,12.521,3.947C28.94,13.028,27.501,23.831,26.922,27.068z"/>
	<path d="M19.249,22.076c-0.604-0.12-1.213-0.283-1.819-0.483l0.453-0.843c0.262-0.486,0.079-1.093-0.407-1.354
		c-0.49-0.262-1.094-0.079-1.354,0.408l-0.557,1.036c-0.883-0.424-1.732-0.938-2.519-1.535l0.613-0.613
		c0.391-0.391,0.391-1.024,0-1.414c-0.391-0.391-1.023-0.391-1.414,0l-0.697,0.697c-0.682-0.71-1.271-1.504-1.738-2.375l1.371-0.737
		c0.486-0.262,0.669-0.868,0.407-1.354c-0.262-0.486-0.869-0.669-1.354-0.407l-1.186,0.637c-0.223-0.763-0.365-1.566-0.391-2.42
		c-0.017-0.542-0.461-0.971-0.999-0.971c-0.011,0-0.021,0-0.03,0c-0.552,0.016-0.986,0.477-0.971,1.029
		c0.035,1.186,0.253,2.291,0.597,3.326l-0.986,0.53C5.781,15.494,5.599,16.1,5.86,16.586c0.181,0.335,0.525,0.526,0.882,0.526
		c0.16,0,0.322-0.038,0.473-0.119l0.835-0.449c0.563,1.046,1.271,1.993,2.09,2.838L9.043,20.48c-0.391,0.391-0.391,1.024,0,1.414
		c0.195,0.195,0.451,0.293,0.707,0.293s0.512-0.098,0.707-0.293l1.165-1.166c0.931,0.732,1.944,1.356,2.997,1.87L13.99,23.77
		c-0.262,0.486-0.079,1.093,0.407,1.354c0.151,0.081,0.313,0.119,0.473,0.119c0.356,0,0.701-0.191,0.882-0.527l0.722-1.343
		c0.794,0.281,1.595,0.508,2.387,0.665c0.065,0.013,0.131,0.019,0.195,0.019c0.468,0,0.886-0.329,0.979-0.805
		C20.144,22.709,19.791,22.184,19.249,22.076z"/>
</g>
</svg>
