<?xml version="1.0" encoding="utf-8"?>
<!-- Generator: Adobe Illustrator 16.0.0, SVG Export Plug-In . SVG Version: 6.00 Build 0)  -->
<!DOCTYPE svg PUBLIC "-//W3C//DTD SVG 1.1//EN" "http://www.w3.org/Graphics/SVG/1.1/DTD/svg11.dtd">
<svg version="1.1" id="Layer_1" xmlns="http://www.w3.org/2000/svg" xmlns:xlink="http://www.w3.org/1999/xlink" x="0px" y="0px"
	 width="32px" height="32px" viewBox="0 0 32 32" enable-background="new 0 0 32 32" xml:space="preserve">
<path d="M30.804,18.652v-3.818c0.708-0.605,1.113-1.479,1.113-2.415c0-1.323-0.832-2.521-2.071-2.982L18.405,5.18
	c-1.55-0.577-3.276-0.574-4.822,0.007L2.256,9.44c-1.233,0.463-2.063,1.66-2.063,2.978s0.83,2.514,2.063,2.976l4.237,1.593
	l0.009,5.655c0.197,2.99,4.928,4.556,9.499,4.556c4.571,0,9.302-1.564,9.5-4.571l0.008-5.612l3.679-1.371v3.009
	c-0.545,0.394-0.891,1.165-0.891,2.014c0,1.123,0,2.284,1.698,2.284c1.699,0,1.699-1.161,1.699-2.284
	C31.696,19.818,31.35,19.046,30.804,18.652z M8.971,17.917l4.612,1.733c1.545,0.582,3.274,0.584,4.824,0.008l4.628-1.724v4.521
	c0,0.774-2.738,2.257-7.032,2.257c-4.292,0-7.031-1.481-7.031-2.257L8.971,17.917L8.971,17.917z M14.818,17.092l-9.457-3.551
	c-0.085-0.032-0.19-0.068-0.308-0.107c-0.542-0.181-1.552-0.518-1.552-1.014c0-0.506,0.964-0.822,1.539-1.012
	c0.123-0.04,0.232-0.077,0.321-0.109l9.455-3.553c0.381-0.143,0.78-0.215,1.185-0.215c0.404,0,0.799,0.071,1.177,0.211l9.551,3.556
	c0.077,0.029,0.172,0.062,0.278,0.096c0.52,0.178,1.603,0.544,1.603,1.026c0,0.194-0.317,0.543-1.882,1.122l-9.549,3.554
	C16.422,17.378,15.577,17.376,14.818,17.092z"/>
</svg>
