<?xml version="1.0" encoding="utf-8"?>
<!-- Generator: Adobe Illustrator 16.0.0, SVG Export Plug-In . SVG Version: 6.00 Build 0)  -->
<!DOCTYPE svg PUBLIC "-//W3C//DTD SVG 1.1//EN" "http://www.w3.org/Graphics/SVG/1.1/DTD/svg11.dtd">
<svg version="1.1" id="Layer_1" xmlns="http://www.w3.org/2000/svg" xmlns:xlink="http://www.w3.org/1999/xlink" x="0px" y="0px"
	 width="32px" height="32px" viewBox="0 0 32 32" enable-background="new 0 0 32 32" xml:space="preserve">
<g>
	<path d="M16.449,0.281c-7.705,0-13.952,6.69-13.952,13.953c9.501,0,11.348,3.918,11.782,7.602L3.932,23.742
		c-0.379-1.397-0.435-2.427-0.436-2.451c-0.023-0.551-0.503-0.979-1.039-0.958c-0.551,0.022-0.98,0.485-0.96,1.036
		c0.011,0.276,0.316,6.802,5.504,10.317c0.172,0.116,0.367,0.172,0.56,0.172c0.321,0,0.636-0.154,0.829-0.439
		c0.31-0.458,0.19-1.079-0.267-1.389c-0.507-0.344-0.954-0.728-1.357-1.135l7.673-4.329c0.075,2.067,0.227,3.621,2.009,3.621
		c7.707,0,13.953-6.247,13.953-13.952C30.401,6.527,24.155,0.281,16.449,0.281z M10.303,24.602l-4.805,2.711
		c-0.358-0.551-0.65-1.112-0.892-1.662L10.303,24.602z M17.469,25.138c-0.021-0.342-0.033-0.722-0.044-1.045
		c-0.129-3.819-0.383-11.414-11.527-12.678c1.313-4.57,5.683-8.134,10.551-8.134c6.04,0,10.953,4.914,10.953,10.953
		C27.401,19.928,23.031,24.622,17.469,25.138z"/>
	<circle cx="20.12" cy="21.362" r="1.174"/>
</g>
</svg>
