<?xml version="1.0" encoding="utf-8"?>
<!-- Generator: Adobe Illustrator 16.0.0, SVG Export Plug-In . SVG Version: 6.00 Build 0)  -->
<!DOCTYPE svg PUBLIC "-//W3C//DTD SVG 1.1//EN" "http://www.w3.org/Graphics/SVG/1.1/DTD/svg11.dtd">
<svg version="1.1" id="Layer_1" xmlns="http://www.w3.org/2000/svg" xmlns:xlink="http://www.w3.org/1999/xlink" x="0px" y="0px"
	 width="32px" height="32px" viewBox="0 0 32 32" enable-background="new 0 0 32 32" xml:space="preserve">
<g>
	<path d="M22.33,11.314V7.019h-3.642l-4.466-6.655H7.276l4.467,6.655H10.62v4.295c-3.119,1.955-5.2,5.413-5.2,9.365
		c0,6.105,4.95,11.056,11.056,11.056c6.105,0,11.055-4.951,11.055-11.056C27.53,16.728,25.449,13.269,22.33,11.314z M12.558,8.957
		h7.833v1.395c-1.219-0.463-2.535-0.728-3.917-0.728s-2.698,0.265-3.917,0.728V8.957z M16.475,28.828
		c-4.493,0-8.148-3.656-8.148-8.148c0-4.493,3.655-8.148,8.148-8.148s8.148,3.655,8.148,8.148
		C24.623,25.172,20.968,28.828,16.475,28.828z"/>
	<polygon points="22.18,5.569 25.673,0.364 18.729,0.364 17.305,2.486 19.375,5.569 	"/>
	<polygon points="13.731,17.501 14.055,18.98 15.664,18.214 15.69,18.214 15.69,24.896 17.597,24.896 17.597,16.463 15.963,16.463 	
		"/>
</g>
</svg>
