<?xml version="1.0" encoding="utf-8"?>
<!-- Generator: Adobe Illustrator 16.0.0, SVG Export Plug-In . SVG Version: 6.00 Build 0)  -->
<!DOCTYPE svg PUBLIC "-//W3C//DTD SVG 1.1//EN" "http://www.w3.org/Graphics/SVG/1.1/DTD/svg11.dtd">
<svg version="1.1" id="Layer_1" xmlns="http://www.w3.org/2000/svg" xmlns:xlink="http://www.w3.org/1999/xlink" x="0px" y="0px"
	 width="32px" height="32px" viewBox="0 0 32 32" enable-background="new 0 0 32 32" xml:space="preserve">
<path d="M23.464,15.75l8.242-2.497l-2.629-8.677l-8.24,2.498l-0.359-1.189L0.202,12.027l3.632,11.984l6.831-2.069
	c0.214,0.472,0.562,0.865,0.995,1.14v4.547H8.517c-0.774,0-1.402,0.627-1.402,1.4s0.628,1.401,1.402,1.401h9.089
	c0.774,0,1.403-0.628,1.403-1.401s-0.629-1.4-1.403-1.4h-3.143v-4.547c0.74-0.467,1.236-1.286,1.236-2.227
	c0-0.146-0.018-0.287-0.042-0.425l8.45-2.562L23.464,15.75z M27.209,8.072l1.004,3.311l-5.559,1.686l-1.005-3.312L27.209,8.072z
	 M3.697,13.897L19.679,9.11l2.009,6.619L5.704,20.517L3.697,13.897z"/>
</svg>
