<?xml version="1.0" encoding="utf-8"?>
<!-- Generator: Adobe Illustrator 16.0.0, SVG Export Plug-In . SVG Version: 6.00 Build 0)  -->
<!DOCTYPE svg PUBLIC "-//W3C//DTD SVG 1.1//EN" "http://www.w3.org/Graphics/SVG/1.1/DTD/svg11.dtd">
<svg version="1.1" id="Layer_1" xmlns="http://www.w3.org/2000/svg" xmlns:xlink="http://www.w3.org/1999/xlink" x="0px" y="0px"
	 width="32px" height="32px" viewBox="0 0 32 32" enable-background="new 0 0 32 32" xml:space="preserve">
<path d="M31.145,0.347L11.348,3.184v18.034c-1.089-0.596-2.405-0.94-3.838-0.94c-3.845,0-6.856,2.479-6.856,5.642
	c0,3.164,3.012,5.643,6.856,5.643s6.856-2.479,6.856-5.643c0-0.105-0.019-13.353-0.019-13.353l13.797-2.213v8.487
	c-1.099-0.613-2.434-0.97-3.89-0.97c-3.845,0-6.856,2.478-6.856,5.641c0,3.165,3.012,5.644,6.856,5.644
	c3.685,0,6.597-2.279,6.832-5.255C31.121,23.775,31.145,0.347,31.145,0.347z M7.51,28.562c-2.13,0-3.856-1.183-3.856-2.643
	c0-1.459,1.727-2.642,3.856-2.642c2.066,0,3.74,1.116,3.838,2.516v0.127c0,0.025,0.006,0.049,0.008,0.074
	C11.296,27.418,9.602,28.562,7.51,28.562z M14.348,9.527V5.785l13.797-1.978v3.507L14.348,9.527z M24.255,26.155
	c-2.129,0-3.856-1.183-3.856-2.644c0-1.458,1.728-2.641,3.856-2.641c2.13,0,3.855,1.183,3.855,2.641
	C28.11,24.973,26.385,26.155,24.255,26.155z"/>
</svg>
