<?xml version="1.0" encoding="utf-8"?>
<!-- Generator: Adobe Illustrator 16.0.0, SVG Export Plug-In . SVG Version: 6.00 Build 0)  -->
<!DOCTYPE svg PUBLIC "-//W3C//DTD SVG 1.1//EN" "http://www.w3.org/Graphics/SVG/1.1/DTD/svg11.dtd">
<svg version="1.1" id="Layer_1" xmlns="http://www.w3.org/2000/svg" xmlns:xlink="http://www.w3.org/1999/xlink" x="0px" y="0px"
	 width="32px" height="32px" viewBox="0 0 32 32" enable-background="new 0 0 32 32" xml:space="preserve">
<g>
	<path d="M25.732,15.854V1.257H0.371v29.195h31.127V15.854H25.732z M22.732,27.452H3.371V4.257h19.362V27.452z M28.576,27.53h-2.844
		v-8.754h2.844V27.53z"/>
	<path d="M6.095,8.814h5.859c0.552,0,1-0.448,1-1s-0.448-1-1-1H6.095c-0.552,0-1,0.448-1,1S5.543,8.814,6.095,8.814z"/>
	<path d="M6.095,12.834h5.859c0.552,0,1-0.448,1-1s-0.448-1-1-1H6.095c-0.552,0-1,0.448-1,1S5.543,12.834,6.095,12.834z"/>
	<path d="M6.095,16.854h14.062c0.552,0,1-0.448,1-1s-0.448-1-1-1H6.095c-0.552,0-1,0.448-1,1S5.543,16.854,6.095,16.854z"/>
	<path d="M6.095,20.874h14.062c0.552,0,1-0.448,1-1s-0.448-1-1-1H6.095c-0.552,0-1,0.448-1,1S5.543,20.874,6.095,20.874z"/>
	<path d="M6.095,24.894h14.062c0.552,0,1-0.448,1-1s-0.448-1-1-1H6.095c-0.552,0-1,0.448-1,1S5.543,24.894,6.095,24.894z"/>
	<rect x="14.968" y="6.814" width="6.189" height="6.25"/>
</g>
</svg>
