<?xml version="1.0" encoding="utf-8"?>
<!-- Generator: Adobe Illustrator 16.0.0, SVG Export Plug-In . SVG Version: 6.00 Build 0)  -->
<!DOCTYPE svg PUBLIC "-//W3C//DTD SVG 1.1//EN" "http://www.w3.org/Graphics/SVG/1.1/DTD/svg11.dtd">
<svg version="1.1" id="Layer_1" xmlns="http://www.w3.org/2000/svg" xmlns:xlink="http://www.w3.org/1999/xlink" x="0px" y="0px"
	 width="32px" height="32px" viewBox="0 0 32 32" enable-background="new 0 0 32 32" xml:space="preserve">
<path d="M31.541,5.663L29.78,5.935c-0.039,0.006-0.174,0.021-0.373,0.021c-0.798,0-1.928-0.23-2.78-1.331
	c-1.975-2.551-4.181-3.086-5.684-3.086c-1.976,0-3.723,0.882-4.927,1.711c-1.204-0.829-2.949-1.711-4.926-1.711
	c-1.503,0-3.709,0.536-5.684,3.087c-0.852,1.1-1.981,1.33-2.779,1.33c-0.199,0-0.334-0.016-0.357-0.019L0.475,5.616v24.556
	l1.259,0.225c0.062,0.011,0.398,0.066,0.894,0.066c1.212,0,3.5-0.327,5.195-2.517c0.99-1.279,2.126-1.901,3.473-1.901
	c1.796,0,3.364,1.077,3.802,1.407l0.919,0.692l0.919-0.692c0.903-0.681,2.375-1.408,3.803-1.408c1.347,0,2.482,0.622,3.472,1.901
	c2.388,3.085,5.875,2.488,6.089,2.45l1.259-0.226V7.441L31.541,5.663z M5.407,26.076c-0.563,0.728-1.248,1.074-1.876,1.227V8.953
	c1.255-0.164,2.958-0.732,4.292-2.457c0.99-1.279,2.059-1.901,3.268-1.901c1.679,0,3.272,1.184,3.907,1.718v17.546
	c-1.006-0.467-2.281-0.869-3.702-0.869C9.005,22.989,6.969,24.057,5.407,26.076z M28.503,27.302
	c-0.629-0.152-1.313-0.499-1.876-1.227c-1.563-2.02-3.599-3.087-5.888-3.087c-1.422,0-2.697,0.403-3.704,0.87V6.313
	c0.635-0.535,2.229-1.718,3.908-1.718c1.208,0,2.278,0.622,3.268,1.9c1.335,1.725,3.037,2.293,4.292,2.457V27.302z"/>
</svg>
