<?xml version="1.0" encoding="utf-8"?>
<!-- Generator: Adobe Illustrator 16.0.0, SVG Export Plug-In . SVG Version: 6.00 Build 0)  -->
<!DOCTYPE svg PUBLIC "-//W3C//DTD SVG 1.1//EN" "http://www.w3.org/Graphics/SVG/1.1/DTD/svg11.dtd">
<svg version="1.1" id="Layer_1" xmlns="http://www.w3.org/2000/svg" xmlns:xlink="http://www.w3.org/1999/xlink" x="0px" y="0px"
	 width="32px" height="32px" viewBox="0 0 32 32" enable-background="new 0 0 32 32" xml:space="preserve">
<g>
	<path d="M15.45,1.814c-8.452,0-15.302,6.309-15.302,14.09s6.85,14.091,15.302,14.091c1.519-8.258,4.996-9.011,8.362-9.011
		c0.751,0,1.497,0.038,2.214,0.038c2.52,0,4.687-0.463,5.502-4.645C32.892,9.4,23.9,1.814,15.45,1.814z M28.584,15.803
		c-0.433,2.219-0.841,2.219-2.558,2.219c-0.329,0-0.666-0.009-1.006-0.018c-0.399-0.01-0.803-0.02-1.208-0.02
		c-3.879,0-8.474,1.068-10.696,8.811C7.445,25.809,3.148,21.3,3.148,15.904c0-6.115,5.519-11.09,12.302-11.09
		c4.029,0,8.542,2.192,11.229,5.454C27.58,11.362,29.026,13.537,28.584,15.803z"/>
	<path d="M10.408,17.758c-1.565,0-2.839,1.273-2.839,2.838c0,1.565,1.273,2.839,2.839,2.839c1.564,0,2.838-1.273,2.838-2.839
		C13.246,19.031,11.973,17.758,10.408,17.758z M10.408,21.935c-0.738,0-1.339-0.601-1.339-1.339c0-0.738,0.601-1.338,1.339-1.338
		c0.737,0,1.338,0.601,1.338,1.338C11.746,21.334,11.146,21.935,10.408,21.935z"/>
	<circle cx="8.615" cy="12.826" r="2.088"/>
	<circle cx="13.444" cy="9.109" r="2.089"/>
	<circle cx="19.529" cy="10.601" r="2.089"/>
	<circle cx="24.237" cy="14.311" r="2.089"/>
</g>
</svg>
