<?xml version="1.0" encoding="utf-8"?>
<!-- Generator: Adobe Illustrator 16.0.0, SVG Export Plug-In . SVG Version: 6.00 Build 0)  -->
<!DOCTYPE svg PUBLIC "-//W3C//DTD SVG 1.1//EN" "http://www.w3.org/Graphics/SVG/1.1/DTD/svg11.dtd">
<svg version="1.1" id="Layer_1" xmlns="http://www.w3.org/2000/svg" xmlns:xlink="http://www.w3.org/1999/xlink" x="0px" y="0px"
	 width="32px" height="32px" viewBox="0 0 32 32" enable-background="new 0 0 32 32" xml:space="preserve">
<path d="M22.485,1.253l-2.187,2.187L17.319,0.46L6.125,11.654l1.368,1.368l9.827-9.826l1.611,1.612L1.586,22.152L1.511,31.12
	l8.968-0.074l20.899-20.899L22.485,1.253z M27.273,10.146l-4.076,4.075L18.41,9.434l4.075-4.075L27.273,10.146z M21.829,15.59
	L10.65,26.769l-4.787-4.787l11.179-11.18L21.829,15.59z M4.438,28.193l0.041-4.828l0.016-0.016l4.788,4.787l-0.016,0.016
	L4.438,28.193z"/>
</svg>
