<?xml version="1.0" encoding="utf-8"?>
<!-- Generator: Adobe Illustrator 16.0.0, SVG Export Plug-In . SVG Version: 6.00 Build 0)  -->
<!DOCTYPE svg PUBLIC "-//W3C//DTD SVG 1.1//EN" "http://www.w3.org/Graphics/SVG/1.1/DTD/svg11.dtd">
<svg version="1.1" id="Layer_1" xmlns="http://www.w3.org/2000/svg" xmlns:xlink="http://www.w3.org/1999/xlink" x="0px" y="0px"
	 width="32px" height="32px" viewBox="0 0 32 32" enable-background="new 0 0 32 32" xml:space="preserve">
<path d="M31.243,22.252l-5.924-5.925l5.349-5.348c0.189-0.188,0.322-0.426,0.385-0.686c0.036-0.15,0.85-3.704-2.432-6.987
	c-2.193-2.193-4.503-2.521-5.686-2.521c-0.719,0-1.194,0.114-1.282,0.139c-0.25,0.064-0.478,0.195-0.661,0.378l-5.349,5.349
	L9.631,0.64L0.5,9.771l6.012,6.013l-3.15,3.149c-0.225,0.225-0.37,0.517-0.412,0.831l-1.176,8.667
	c-0.061,0.445,0.088,0.895,0.404,1.215c0.275,0.279,0.648,0.434,1.036,0.434c0.057,0,0.115-0.003,0.172-0.01l8.798-1.046
	c0.323-0.038,0.625-0.185,0.855-0.416l3.15-3.149l5.924,5.925L31.243,22.252z M22.704,3.699c0.068-0.005,0.145-0.008,0.23-0.008
	c0.896,0,2.252,0.29,3.632,1.67c1.613,1.613,1.734,3.227,1.699,3.91l-1.996,1.996L20.702,5.7L22.704,3.699z M4.609,9.771
	l5.022-5.021l3.957,3.957l-5.021,5.021L4.609,9.771z M11.339,26.198l-6.434,0.764l0.857-6.321l0.095-0.096l5.567,5.567
	L11.339,26.198z M12.11,25.427L6.542,19.86L20.018,6.386l5.567,5.566L12.11,25.427z M23.264,18.382l3.87,3.87l-5.022,5.022
	l-3.87-3.87L23.264,18.382z"/>
</svg>
