<?xml version="1.0" encoding="utf-8"?>
<!-- Generator: Adobe Illustrator 16.0.0, SVG Export Plug-In . SVG Version: 6.00 Build 0)  -->
<!DOCTYPE svg PUBLIC "-//W3C//DTD SVG 1.1//EN" "http://www.w3.org/Graphics/SVG/1.1/DTD/svg11.dtd">
<svg version="1.1" id="Layer_1" xmlns="http://www.w3.org/2000/svg" xmlns:xlink="http://www.w3.org/1999/xlink" x="0px" y="0px"
	 width="32px" height="32px" viewBox="0 0 32 32" enable-background="new 0 0 32 32" xml:space="preserve">
<path d="M0.285,0.569v30.861h31.43V0.569H0.285z M21.201,17.893v10.589h-2.72V17.893c0-0.916-0.503-1.707-1.24-2.136V3.518h5.2
	v12.238C21.702,16.186,21.201,16.977,21.201,17.893z M9.559,15.756V3.518h5.202v12.238c-0.739,0.429-1.24,1.22-1.24,2.136v10.589
	h-2.722V17.893C10.799,16.977,10.298,16.186,9.559,15.756z M3.233,3.518h3.845v12.238c-0.737,0.429-1.24,1.22-1.24,2.136v10.589
	H3.233V3.518z M28.767,28.482h-2.604V17.893c0-0.916-0.503-1.707-1.24-2.136V3.518h3.845V28.482z"/>
</svg>
