<?xml version="1.0" encoding="utf-8"?>
<!-- Generator: Adobe Illustrator 17.0.0, SVG Export Plug-In . SVG Version: 6.00 Build 0)  -->
<!DOCTYPE svg PUBLIC "-//W3C//DTD SVG 1.1//EN" "http://www.w3.org/Graphics/SVG/1.1/DTD/svg11.dtd">
<svg version="1.1" id="Layer_1" xmlns="http://www.w3.org/2000/svg" xmlns:xlink="http://www.w3.org/1999/xlink" x="0px" y="0px"
	 width="32px" height="32px" viewBox="0 0 32 32" enable-background="new 0 0 32 32" xml:space="preserve">
<g>
	<path d="M28.273,4.769c0,0-4.058-2.776-12.339-2.776c-8.282,0-12.253,2.776-12.253,2.776v19.015H1.736v4.479h2.959v2.281H9.35
		v-2.281h13.253v2.281h4.655v-2.281h2.958v-4.479h-1.943V4.769z M15.934,4.979c4.621,0,7.738,0.955,9.352,1.621v17.183h-2.683
		h-1.994v-8.384h-9.267v8.384H9.35H6.668V6.589C8.258,5.928,11.338,4.979,15.934,4.979z M18.618,23.783h-5.283V17.39h5.283V23.783z"
		/>
	<rect x="0.216" y="8.91" width="2.45" height="4.986"/>
	<rect x="29.277" y="8.91" width="2.451" height="4.986"/>
	<path d="M23.469,7.224H8.664v6.473h14.805V7.224z M21.477,11.705H10.656V9.216h10.821C21.477,9.216,21.477,11.705,21.477,11.705z"
		/>
	<circle cx="8.992" cy="17.845" r="1.577"/>
	<circle cx="22.934" cy="17.845" r="1.577"/>
	<path d="M14.405,19.359h3.135c0.275,0,0.498-0.223,0.498-0.498c0-0.274-0.223-0.497-0.498-0.497h-3.135
		c-0.275,0-0.498,0.223-0.498,0.497C13.907,19.137,14.13,19.359,14.405,19.359z"/>
	<path d="M14.405,21.009h3.135c0.275,0,0.498-0.223,0.498-0.497c0-0.275-0.223-0.498-0.498-0.498h-3.135
		c-0.275,0-0.498,0.223-0.498,0.498C13.908,20.786,14.13,21.009,14.405,21.009z"/>
	<path d="M14.405,22.814h3.135c0.275,0,0.498-0.224,0.498-0.498c0-0.275-0.223-0.498-0.498-0.498h-3.135
		c-0.275,0-0.498,0.223-0.498,0.498S14.13,22.814,14.405,22.814z"/>
</g>
</svg>
