<?xml version="1.0" encoding="utf-8"?>
<!-- Generator: Adobe Illustrator 16.0.0, SVG Export Plug-In . SVG Version: 6.00 Build 0)  -->
<!DOCTYPE svg PUBLIC "-//W3C//DTD SVG 1.1//EN" "http://www.w3.org/Graphics/SVG/1.1/DTD/svg11.dtd">
<svg version="1.1" id="Layer_1" xmlns="http://www.w3.org/2000/svg" xmlns:xlink="http://www.w3.org/1999/xlink" x="0px" y="0px"
	 width="32px" height="32px" viewBox="0 0 32 32" enable-background="new 0 0 32 32" xml:space="preserve">
<path d="M30.784,21.939c-1.771-3.209-5.805-4.375-9.014-2.604c-0.453,0.25-0.861,0.55-1.23,0.882l-1.621-2.942l8.023-14.575
	L22.448,0.22l-6.455,11.746L9.521,0.22L5.027,2.699l8.044,14.583l-1.612,2.935c-0.369-0.332-0.777-0.632-1.23-0.882
	c-3.209-1.771-7.243-0.604-9.014,2.604s-0.605,7.243,2.604,9.014c3.156,1.741,7.104,0.639,8.92-2.45l3.258-5.918l3.265,5.918
	c1.815,3.089,5.764,4.191,8.92,2.45C31.39,29.183,32.555,25.148,30.784,21.939z M10.206,26.9c-0.968,1.754-3.184,2.395-4.938,1.427
	c-1.755-0.969-2.395-3.185-1.427-4.938c0.969-1.755,3.185-2.395,4.938-1.427C10.534,22.93,11.174,25.146,10.206,26.9z
	 M16.126,18.134c-0.563,0-1.021-0.457-1.021-1.021s0.457-1.021,1.021-1.021s1.021,0.457,1.021,1.021S16.689,18.134,16.126,18.134z
	 M26.731,28.327c-1.755,0.968-3.971,0.327-4.938-1.427c-0.968-1.755-0.328-3.971,1.427-4.938c1.754-0.968,3.97-0.328,4.938,1.427
	C29.126,25.143,28.486,27.358,26.731,28.327z"/>
</svg>
