<?xml version="1.0" encoding="utf-8"?>
<!-- Generator: Adobe Illustrator 16.0.0, SVG Export Plug-In . SVG Version: 6.00 Build 0)  -->
<!DOCTYPE svg PUBLIC "-//W3C//DTD SVG 1.1//EN" "http://www.w3.org/Graphics/SVG/1.1/DTD/svg11.dtd">
<svg version="1.1" id="Layer_1" xmlns="http://www.w3.org/2000/svg" xmlns:xlink="http://www.w3.org/1999/xlink" x="0px" y="0px"
	 width="32px" height="32px" viewBox="0 0 32 32" enable-background="new 0 0 32 32" xml:space="preserve">
<g>
	<path d="M16,11.309c-3.77,0-4.898,3.203-4.983,5.886h9.967C20.898,14.512,19.956,11.309,16,11.309z M13.288,15.243
		c0.448-1.318,1.355-1.983,2.712-1.983c0.747,0,2.134,0,2.74,1.983H13.288z"/>
	<path d="M28.457,14.52C26.982,9.009,21.978,4.944,16,4.944S5.018,9.009,3.543,14.52H0.389v11.143h31.223V14.52H28.457z
		 M28.685,22.735h-1.959v-1.628c0-0.539-0.437-0.976-0.977-0.976c-0.539,0-0.976,0.437-0.976,0.976v1.628h-1.896v-1.628
		c0-0.539-0.437-0.976-0.976-0.976c-0.54,0-0.977,0.437-0.977,0.976v1.628H19.03v-1.628c0-0.539-0.437-0.976-0.976-0.976
		c-0.54,0-0.977,0.437-0.977,0.976v1.628h-1.896v-1.628c0-0.539-0.437-0.976-0.976-0.976c-0.54,0-0.976,0.437-0.976,0.976v1.628
		h-1.896v-1.628c0-0.539-0.437-0.976-0.976-0.976s-0.976,0.437-0.976,0.976v1.628H7.487v-1.628c0-0.539-0.437-0.976-0.976-0.976
		s-0.976,0.437-0.976,0.976v1.628H3.315v-5.289h0.228h2.246l0.582-2.17C7.537,10.917,11.497,7.871,16,7.871s8.463,3.046,9.629,7.405
		l0.582,2.17h2.246h0.228V22.735z"/>
</g>
</svg>
