<?xml version="1.0" encoding="utf-8"?>
<!-- Generator: Adobe Illustrator 17.0.0, SVG Export Plug-In . SVG Version: 6.00 Build 0)  -->
<!DOCTYPE svg PUBLIC "-//W3C//DTD SVG 1.1//EN" "http://www.w3.org/Graphics/SVG/1.1/DTD/svg11.dtd">
<svg version="1.1" id="Layer_1" xmlns="http://www.w3.org/2000/svg" xmlns:xlink="http://www.w3.org/1999/xlink" x="0px" y="0px"
	 width="32px" height="32px" viewBox="0 0 32 32" enable-background="new 0 0 32 32" xml:space="preserve">
<path d="M16.13,0.303c-0.017,0-0.033,0.002-0.05,0.003c-0.017,0-0.033-0.003-0.05-0.003c-8.668,0-15.696,7.027-15.696,15.696
	S7.362,31.697,16.03,31.697c0.017,0,0.033-0.002,0.05-0.003c0.017,0,0.033,0.003,0.05,0.003c8.668,0,15.696-7.028,15.696-15.697
	S24.798,0.303,16.13,0.303z M17.16,4.859l4.087-0.47c1.543,0.683,2.922,1.665,4.07,2.871l0.521,4.164l-5.051,1.327l-3.627-2.525
	V4.859z M6.843,7.26c1.148-1.206,2.527-2.188,4.07-2.871L15,4.859v5.367l-3.627,2.525l-5.051-1.327L6.843,7.26z M4.928,22.143
	c-0.878-1.58-1.418-3.366-1.55-5.267l2.155-3.593l5.116,1.344l1.294,4.27l-3.331,4.965L4.928,22.143z M18.984,28.361
	c-0.919,0.212-1.871,0.335-2.854,0.336c-0.017,0-0.033-0.002-0.05-0.002c-0.017,0-0.033,0.002-0.05,0.002
	c-0.983-0.001-1.935-0.124-2.854-0.336l-2.885-3.411l3.254-4.847h2.535h2.535l3.254,4.847L18.984,28.361z M23.548,23.862
	l-3.331-4.965l1.294-4.27l5.116-1.344l2.155,3.593c-0.132,1.901-0.672,3.687-1.55,5.267L23.548,23.862z"/>
</svg>
