<?xml version="1.0" encoding="utf-8"?>
<!-- Generator: Adobe Illustrator 16.0.0, SVG Export Plug-In . SVG Version: 6.00 Build 0)  -->
<!DOCTYPE svg PUBLIC "-//W3C//DTD SVG 1.1//EN" "http://www.w3.org/Graphics/SVG/1.1/DTD/svg11.dtd">
<svg version="1.1" id="Layer_1" xmlns="http://www.w3.org/2000/svg" xmlns:xlink="http://www.w3.org/1999/xlink" x="0px" y="0px"
	 width="32px" height="32px" viewBox="0 0 32 32" enable-background="new 0 0 32 32" xml:space="preserve">
<g>
	<path d="M25.61,8.993c-1.149-4.359-5.086-7.439-9.669-7.439c-5.063,0-9.22,3.695-9.902,8.595c-3.344,1.219-5.595,4.376-5.595,8.023
		c0,0.895,0.142,1.785,0.422,2.647l0.337,1.036h17.998l0.773,7.684l6.559-7.684h4.472l0.295-1.116
		c0.228-0.86,0.343-1.724,0.343-2.567C31.643,14.151,29.252,10.564,25.61,8.993z M28.606,18.855H25.15l-2.895,3.391l-0.342-3.391
		H3.487c-0.028-0.227-0.043-0.455-0.043-0.683c0-2.572,1.821-4.848,4.33-5.412l1.134-0.255l0.036-1.162
		c0.118-3.807,3.191-6.79,6.997-6.79c3.415,0,6.316,2.442,6.899,5.807l0.152,0.884l0.853,0.283c2.869,0.954,4.797,3.624,4.797,6.645
		C28.643,18.397,28.631,18.625,28.606,18.855z"/>
	<path d="M15.484,14.582c-0.656,0-1.122,0.479-1.122,1.148c0,0.656,0.453,1.147,1.122,1.147c0.681,0,1.135-0.492,1.135-1.147
		C16.606,15.061,16.165,14.582,15.484,14.582z"/>
	<path d="M15.66,8.099c-0.896,0-1.651,0.252-2.105,0.517l0.429,1.375c0.327-0.227,0.832-0.378,1.248-0.378
		c0.631,0.025,0.92,0.315,0.92,0.757c0,0.429-0.327,0.833-0.73,1.312c-0.568,0.681-0.782,1.337-0.744,1.98l0.013,0.328h1.677v-0.227
		c-0.012-0.567,0.177-1.059,0.645-1.576c0.479-0.53,1.07-1.161,1.07-2.119C18.081,9.02,17.325,8.099,15.66,8.099z"/>
</g>
</svg>
