<?xml version="1.0" encoding="utf-8"?>
<!-- Generator: Adobe Illustrator 16.0.0, SVG Export Plug-In . SVG Version: 6.00 Build 0)  -->
<!DOCTYPE svg PUBLIC "-//W3C//DTD SVG 1.1//EN" "http://www.w3.org/Graphics/SVG/1.1/DTD/svg11.dtd">
<svg version="1.1" id="Layer_1" xmlns="http://www.w3.org/2000/svg" xmlns:xlink="http://www.w3.org/1999/xlink" x="0px" y="0px"
	 width="32px" height="32px" viewBox="0 0 32 32" enable-background="new 0 0 32 32" xml:space="preserve">
<path d="M30.805,14.702v-3.815c0.709-0.606,1.113-1.479,1.113-2.416c0-1.322-0.832-2.52-2.07-2.98L18.408,1.232
	c-1.549-0.577-3.275-0.574-4.821,0.007L2.264,5.493c-1.233,0.463-2.062,1.66-2.062,2.977c0,1.318,0.83,2.514,2.062,2.976L6.5,13.037
	l0.005,3.199c-0.091,0.94-0.76,7.993,3.183,12.388c1.601,1.783,3.729,2.688,6.32,2.688c2.592,0,4.718-0.905,6.319-2.688
	c4.014-4.474,3.248-11.748,3.18-12.434l0.004-3.126l3.679-1.37v3.008c-0.545,0.395-0.891,1.165-0.891,2.014
	c0,1.123,0,2.284,1.697,2.284c1.698,0,1.698-1.162,1.698-2.284C31.696,15.868,31.352,15.097,30.805,14.702z M20.846,27.294
	c-1.225,1.364-2.808,2.026-4.837,2.026c-2.031,0-3.611-0.664-4.836-2.026c-2.157-2.398-2.675-5.208-2.754-7.96
	c1.834,1.183,4.739,1.792,7.587,1.792c2.853,0,5.76-0.611,7.593-1.802C23.521,22.078,23.006,24.894,20.846,27.294z M8.977,16.386
	v-2.418l4.611,1.733c1.545,0.582,3.273,0.583,4.822,0.008l4.628-1.723v2.4c0,0.774-2.737,2.256-7.03,2.256S8.977,17.16,8.977,16.386
	z M26.729,9.592l-9.547,3.554c-0.756,0.283-1.603,0.281-2.36-0.003L5.367,9.591C5.283,9.56,5.177,9.523,5.06,9.484
	C4.518,9.304,3.508,8.966,3.508,8.47c0-0.505,0.963-0.822,1.538-1.011c0.123-0.04,0.232-0.077,0.321-0.11l9.454-3.552
	c0.381-0.144,0.779-0.215,1.185-0.215c0.404,0,0.798,0.071,1.176,0.211l9.549,3.555c0.078,0.029,0.172,0.062,0.278,0.097
	c0.52,0.178,1.602,0.544,1.602,1.025C28.61,8.665,28.293,9.014,26.729,9.592z"/>
</svg>
