<?xml version="1.0" encoding="utf-8"?>
<!-- Generator: Adobe Illustrator 16.0.4, SVG Export Plug-In . SVG Version: 6.00 Build 0)  -->
<!DOCTYPE svg PUBLIC "-//W3C//DTD SVG 1.1//EN" "http://www.w3.org/Graphics/SVG/1.1/DTD/svg11.dtd">
<svg version="1.1" id="Layer_1" xmlns="http://www.w3.org/2000/svg" xmlns:xlink="http://www.w3.org/1999/xlink" x="0px" y="0px"
	 width="32px" height="32px" viewBox="0 0 32 32" enable-background="new 0 0 32 32" xml:space="preserve">
<path d="M0.315,2.354v29.332H11.61V3.621V2.354H0.315z M8.86,28.936H3.065V5.104H8.86V28.936z M4.321,8.148
	c0-0.906,0.735-1.641,1.641-1.641s1.641,0.735,1.641,1.641S6.868,9.789,5.962,9.789S4.321,9.054,4.321,8.148z M7.604,27.287H4.321
	v-5.73h3.283V27.287z M22.417,0.338L11.61,3.621l8.524,28.064l10.808-3.283L22.417,0.338z M15.04,5.453l5.545-1.684l6.927,22.801
	l-5.546,1.685L15.04,5.453z M20.338,7.522c0,0.906-0.734,1.641-1.641,1.641s-1.641-0.735-1.641-1.641s0.734-1.641,1.641-1.641
	S20.338,6.616,20.338,7.522z M25.83,25.355l-3.142,0.955l-1.665-5.482l3.141-0.955L25.83,25.355z"/>
</svg>
