<?xml version="1.0" encoding="utf-8"?>
<!-- Generator: Adobe Illustrator 16.0.0, SVG Export Plug-In . SVG Version: 6.00 Build 0)  -->
<!DOCTYPE svg PUBLIC "-//W3C//DTD SVG 1.1//EN" "http://www.w3.org/Graphics/SVG/1.1/DTD/svg11.dtd">
<svg version="1.1" id="Layer_1" xmlns="http://www.w3.org/2000/svg" xmlns:xlink="http://www.w3.org/1999/xlink" x="0px" y="0px"
	 width="32px" height="32px" viewBox="0 0 32 32" enable-background="new 0 0 32 32" xml:space="preserve">
<g>
	<path d="M16,0.42C7.396,0.42,0.421,7.396,0.421,16S7.396,31.58,16,31.58S31.579,24.604,31.579,16S24.604,0.42,16,0.42z M16,28.58
		C9.063,28.58,3.421,22.937,3.421,16S9.063,3.42,16,3.42S28.579,9.063,28.579,16S22.937,28.58,16,28.58z"/>
	<path d="M22.571,15h-4.442c-0.233-0.497-0.633-0.896-1.129-1.129V6.558c0-0.552-0.447-1-1-1s-1,0.448-1,1v7.313
		c-0.801,0.377-1.358,1.185-1.358,2.129c0,1.303,1.056,2.359,2.358,2.359c0.944,0,1.752-0.558,2.129-1.359h4.442
		c0.553,0,1-0.448,1-1S23.124,15,22.571,15z"/>
</g>
</svg>
