<?xml version="1.0" encoding="utf-8"?>
<!-- Generator: Adobe Illustrator 16.0.0, SVG Export Plug-In . SVG Version: 6.00 Build 0)  -->
<!DOCTYPE svg PUBLIC "-//W3C//DTD SVG 1.1//EN" "http://www.w3.org/Graphics/SVG/1.1/DTD/svg11.dtd">
<svg version="1.1" id="Layer_1" xmlns="http://www.w3.org/2000/svg" xmlns:xlink="http://www.w3.org/1999/xlink" x="0px" y="0px"
	 width="32px" height="32px" viewBox="0 0 32 32" enable-background="new 0 0 32 32" xml:space="preserve">
<g>
	<path d="M27.331,2.28H4.669c-2.446,0-4.43,1.983-4.43,4.43v17.638h21.187v-1.664h6.464v1.664h3.871V6.709
		C31.761,4.263,29.777,2.28,27.331,2.28z M28.806,21.392H3.194V6.709c0-0.813,0.662-1.475,1.475-1.475h22.662
		c0.813,0,1.475,0.662,1.475,1.475V21.392z"/>
	<path d="M10.057,10.458l-1.749,5.72h1.342l0.407-1.468h1.639l0.441,1.468h1.391l-1.773-5.72H10.057z M10.243,13.742l0.339-1.213
		c0.094-0.331,0.178-0.764,0.265-1.104h0.016c0.085,0.34,0.188,0.764,0.288,1.104l0.357,1.213H10.243z"/>
	<path d="M17.399,13.097V13.08c0.646-0.237,0.943-0.713,0.943-1.222c0-0.518-0.289-0.908-0.688-1.121
		c-0.415-0.246-0.899-0.322-1.688-0.322c-0.645,0-1.333,0.051-1.672,0.119v5.617c0.288,0.043,0.763,0.085,1.399,0.085
		c1.138,0,1.833-0.187,2.249-0.518c0.355-0.289,0.594-0.696,0.594-1.213C18.537,13.767,18.054,13.275,17.399,13.097z M15.575,11.391
		c0.111-0.017,0.271-0.034,0.552-0.034c0.587,0,0.918,0.229,0.918,0.662c0,0.424-0.366,0.705-1.045,0.705h-0.425V11.391z
		 M16.077,15.277c-0.223,0-0.373,0-0.502-0.017v-1.612h0.442c0.645,0,1.162,0.229,1.162,0.807
		C17.18,15.057,16.662,15.277,16.077,15.277z"/>
	<path d="M22.342,11.434c0.458,0,0.823,0.102,1.087,0.212l0.264-1.027c-0.23-0.119-0.739-0.255-1.41-0.255
		c-1.731,0-3.122,1.086-3.122,3.038c0,1.629,1.019,2.86,2.994,2.86c0.697,0,1.231-0.127,1.47-0.247l-0.195-1.01
		c-0.254,0.101-0.688,0.187-1.078,0.187c-1.154,0-1.832-0.722-1.832-1.867C20.519,12.053,21.315,11.434,22.342,11.434z"/>
	<rect x="0.239" y="25.269" width="31.521" height="1.539"/>
</g>
</svg>
