<?xml version="1.0" encoding="utf-8"?>
<!-- Generator: Adobe Illustrator 16.0.0, SVG Export Plug-In . SVG Version: 6.00 Build 0)  -->
<!DOCTYPE svg PUBLIC "-//W3C//DTD SVG 1.1//EN" "http://www.w3.org/Graphics/SVG/1.1/DTD/svg11.dtd">
<svg version="1.1" id="Layer_1" xmlns="http://www.w3.org/2000/svg" xmlns:xlink="http://www.w3.org/1999/xlink" x="0px" y="0px"
	 width="32px" height="32px" viewBox="0 0 32 32" enable-background="new 0 0 32 32" xml:space="preserve">
<path d="M31.584,3.942H21.018C20.306,1.802,18.322,0.324,16,0.324s-4.306,1.478-5.018,3.618H0.416v21.422h9.268l-1.828,3.889
	c-0.344,0.73-0.03,1.601,0.7,1.944c0.201,0.094,0.412,0.139,0.621,0.139c0.549,0,1.073-0.31,1.322-0.839l2.413-5.133h6.176
	l2.413,5.133c0.249,0.529,0.773,0.839,1.322,0.839c0.209,0,0.42-0.045,0.621-0.139c0.73-0.344,1.044-1.214,0.7-1.944l-1.828-3.889
	h9.268V3.942z M16,2.272c1.23,0,2.311,0.659,2.894,1.67h-5.787C13.689,2.932,14.77,2.272,16,2.272z M28.662,22.442H3.338V6.864
	h25.324V22.442z"/>
</svg>
