<?xml version="1.0" encoding="utf-8"?>
<!-- Generator: Adobe Illustrator 16.0.0, SVG Export Plug-In . SVG Version: 6.00 Build 0)  -->
<!DOCTYPE svg PUBLIC "-//W3C//DTD SVG 1.1//EN" "http://www.w3.org/Graphics/SVG/1.1/DTD/svg11.dtd">
<svg version="1.1" id="Layer_1" xmlns="http://www.w3.org/2000/svg" xmlns:xlink="http://www.w3.org/1999/xlink" x="0px" y="0px"
	 width="32px" height="32px" viewBox="0 0 32 32" enable-background="new 0 0 32 32" xml:space="preserve">
<g>
	<path d="M14.068,23.267c6.006,0,10.875-4.869,10.875-10.875c0-6.005-4.868-10.875-10.875-10.875S3.192,6.386,3.192,12.391
		C3.192,18.397,8.062,23.267,14.068,23.267z M14.068,4.469c4.368,0,7.921,3.554,7.921,7.922c0,4.369-3.554,7.923-7.921,7.923
		c-4.368,0-7.922-3.554-7.922-7.923C6.146,8.023,9.7,4.469,14.068,4.469z"/>
	<path d="M28.787,9.895c-0.109-0.66-1.129-5.96-5.938-9.316c-0.669-0.467-1.589-0.304-2.056,0.366
		C20.327,1.613,20.491,2.533,21.16,3c3.954,2.761,4.71,7.348,4.717,7.389l0.019,0.105c0.789,3.524-0.854,11.334-8.229,13.421
		C10.666,25.897,6.248,21.3,6.045,21.083c-0.551-0.597-1.483-0.634-2.083-0.085c-0.6,0.552-0.64,1.486-0.088,2.086
		c0.192,0.209,4.024,4.283,10.32,4.283c0.465,0,0.947-0.032,1.438-0.079v1.544h-3.571c-0.816,0-1.477,0.661-1.477,1.477
		c0,0.816,0.661,1.477,1.477,1.477h10.093c0.815,0,1.477-0.661,1.477-1.477c0-0.815-0.661-1.477-1.477-1.477h-3.569v-2.116
		C27.116,24.229,29.99,15.39,28.787,9.895z"/>
</g>
</svg>
