<?xml version="1.0" encoding="utf-8"?>
<!-- Generator: Adobe Illustrator 16.0.0, SVG Export Plug-In . SVG Version: 6.00 Build 0)  -->
<!DOCTYPE svg PUBLIC "-//W3C//DTD SVG 1.1//EN" "http://www.w3.org/Graphics/SVG/1.1/DTD/svg11.dtd">
<svg version="1.1" id="Layer_1" xmlns="http://www.w3.org/2000/svg" xmlns:xlink="http://www.w3.org/1999/xlink" x="0px" y="0px"
	 width="800px" height="800px" viewBox="0 0 800 800" enable-background="new 0 0 800 800" xml:space="preserve">
<g>
	<path fill="#231F20" d="M150.079,510.782c5.637,0,11.183-0.486,16.67-1.282l-2.185,267.654l-53.109,26.554h89.323h4.827h47.985
		l-47.985-25.931v-12.695V646.6l526.59-123.479l-1.508,149.414l-27.763,17.711h94.942l-35.383-19.313V296.735l-21.729-26.554
		l-37.831,8.258V120.502c0,0-14.483-94.155-207.619-82.082l-171.407,121.5c0,0,132.779,366.159,379.026,158.545v-6.285l19.406-5.469
		l11.976,9.338l-1.699,166.613L205.605,600.373V496.846c44.585-23.157,78.35-73.33,88.951-134.739l2.543-0.582
		c16.805,63.882,62.389,123.422,166.82,128.346c205.206,9.655,239.006-107.676,239.006-107.676
		c-277.63,176.348-400.753-172.428-400.753-172.428c-4.604,10.581-9.203,28.916-11.656,51.228
		c-19.558-75.499-74.99-130.024-140.438-130.024C68.3,130.97,2.003,215.991,2.003,320.876
		C2.004,425.762,68.301,510.782,150.079,510.782z M495.831,67.904c0,0,115.354-31.9,161.224,52.598
		C657.054,120.502,566.354,186.702,495.831,67.904z M150.079,174.614c62.994,0,114.033,65.481,114.033,146.261
		c0,2.904-0.188,5.738-0.34,8.605c-0.643,14.332-2.887,28.098-6.525,41.059c-5.924,20.931-15.709,39.25-27.857,54.504
		l-34.421-61.013c1.96-4.888,3.661-10.075,4.938-15.58c2.001-8.655,3.286-17.841,3.286-27.575c0-45.337-23.783-82.08-53.114-82.08
		c-7.735,0-15.048,2.697-21.673,7.279L97.44,191.211C113.186,180.668,131.066,174.614,150.079,174.614z M68.582,218.669
		l35.289,62.528c-4.263,11.805-6.901,25.192-6.901,39.678c0,45.34,23.782,82.083,53.109,82.083c6.186,0,12.032-1.96,17.578-4.96
		c0.531-0.281,0.959-0.813,1.488-1.11l31.102,55.126c-10.297,6.471-21.387,11.054-33.156,13.318
		c-5.548,1.072-11.206,1.808-17.012,1.808c-62.996,0-114.029-65.482-114.029-146.265C36.05,281.078,48.457,245.037,68.582,218.669z"
		/>
</g>
</svg>
