<?xml version="1.0" encoding="utf-8"?>
<!-- Generator: Adobe Illustrator 16.0.0, SVG Export Plug-In . SVG Version: 6.00 Build 0)  -->
<!DOCTYPE svg PUBLIC "-//W3C//DTD SVG 1.1//EN" "http://www.w3.org/Graphics/SVG/1.1/DTD/svg11.dtd">
<svg version="1.1" id="Layer_1" xmlns="http://www.w3.org/2000/svg" xmlns:xlink="http://www.w3.org/1999/xlink" x="0px" y="0px"
	 width="800px" height="800px" viewBox="0 0 800 800" enable-background="new 0 0 800 800" xml:space="preserve">
<g>
	<path fill="#231F20" d="M180.848,605.523c0-30.482-25.248-55.188-56.433-55.188c-31.155,0-56.434,24.705-56.434,55.188
		c0,30.485,25.279,55.191,56.434,55.191C155.6,660.715,180.848,636.009,180.848,605.523z"/>
	<path fill="#231F20" d="M329.811,612.074c0-30.479-25.273-55.189-56.433-55.189c-31.186,0-56.433,24.711-56.433,55.189
		c0,30.486,25.247,55.191,56.433,55.191C304.537,667.266,329.811,642.561,329.811,612.074z"/>
	<path fill="#231F20" d="M704.791,605.523c0-30.482-25.263-55.188-56.434-55.188c-31.17,0-56.433,24.705-56.433,55.188
		c0,30.485,25.263,55.191,56.433,55.191C679.528,660.715,704.791,636.009,704.791,605.523z"/>
	<path fill="#231F20" d="M495.322,347.434c0,0-30.758,121.799-48.344,132.256h48.344V347.434z"/>
	<g>
		<polygon fill="#231F20" points="7.832,414.105 7.832,478.091 143.534,478.091 68.172,414.105 		"/>
		<path fill="#231F20" d="M468.217,215.608c0,0-168.801-140.59-424.369-55.542c0,0-61.386,44.259-36.018,173.134
			c0,0,100.574,117.094,240.582,140.739l7.097,4.151h177.184c0,0,54.443-75.404,55.939-186.308
			C488.633,291.783,489.711,246.85,468.217,215.608z"/>
	</g>
	<path fill="#231F20" d="M782.931,493.732V362.11h0.001c0-25.228-12.638-47.401-31.907-61.331
		c-12.978-9.364-28.864-15.102-46.233-15.102H603.038h-30.459h-7.882v208.057h-23.465V302.086h-32.687v191.646H2.907v95.854h32.656
		c7.685-41.209,44.5-72.475,88.854-72.475h148.963c44.353,0,81.17,31.266,88.854,72.475h197.271
		c7.688-41.209,44.488-72.475,88.854-72.475c44.367,0,81.171,31.266,88.854,72.475h61.401v-95.854H782.931z M634.04,437.632h-42.115
		V314.853h42.115V437.632z M648.355,437.621V314.853h56.434c0,0,44.174,3.823,44.174,38.333l0.002,84.436H648.355z"/>
</g>
</svg>
