<?xml version="1.0" encoding="utf-8"?>
<!-- Generator: Adobe Illustrator 16.0.0, SVG Export Plug-In . SVG Version: 6.00 Build 0)  -->
<!DOCTYPE svg PUBLIC "-//W3C//DTD SVG 1.1//EN" "http://www.w3.org/Graphics/SVG/1.1/DTD/svg11.dtd">
<svg version="1.1" id="Layer_1" xmlns="http://www.w3.org/2000/svg" xmlns:xlink="http://www.w3.org/1999/xlink" x="0px" y="0px"
	 width="800px" height="800px" viewBox="0 0 800 800" enable-background="new 0 0 800 800" xml:space="preserve">
<rect x="151.917" y="495.562" fill="none" width="44.066" height="125.18"/>
<rect x="75.808" y="500.566" fill="none" width="42.061" height="59.087"/>
<rect x="599.564" y="501.569" fill="none" width="38.053" height="92.133"/>
<path fill="none" d="M699.707,75.954c14.912,0,27.042-12.125,27.042-27.039c0-14.909-12.13-27.039-27.042-27.039
	c-14.914,0-27.039,12.13-27.039,27.039C672.668,63.829,684.793,75.954,699.707,75.954z"/>
<path fill="none" d="M708.722,501.569H659.65v92.133h79.116C738.767,593.702,739.766,520.597,708.722,501.569z"/>
<path fill="#231F20" d="M151.917,711.874c-24.332,0-44.063,19.729-44.063,44.063S127.585,800,151.917,800
	c24.327-0.002,44.066-19.729,44.066-44.063S176.244,711.874,151.917,711.874z"/>
<path fill="#231F20" d="M270.089,711.874c-24.334,0-44.064,19.729-44.064,44.063S245.755,800,270.089,800
	c24.329-0.002,44.062-19.729,44.062-44.063S294.418,711.874,270.089,711.874z"/>
<path fill="#231F20" d="M620.592,711.873c-24.332,0-44.061,19.729-44.061,44.063s19.729,44.063,44.061,44.063
	c24.329,0,44.066-19.729,44.066-44.063S644.921,711.873,620.592,711.873z"/>
<path fill="#231F20" d="M151.918,681.373c-2.745,0-5.45,0.165-8.117,0.454h134.404c-2.667-0.289-5.373-0.454-8.117-0.454H151.918z"
	/>
<path fill="#231F20" d="M741.291,376.339c-1.584-4.148-3.383-10.52-4.523-18.972c9.936-4.005,16.979-13.707,16.979-25.05
	c0-12.109-8.047-22.25-19.027-25.691V92.167c19.916-3.773,35.052-21.25,35.052-42.252c0-23.735-19.313-43.062-43.064-43.062
	c-23.753,0-43.061,19.326-43.061,43.062c0,1.754,0.313,3.443,0.513,5.134L96.839,472.306H72.766v84.344H26.7v59.082v5.01h47.178
	L74,641.77h189c5.006-149.215,438.576-557.054,438.576-557.054c5.007,3.644,10.794,6.26,17.122,7.451v214.465
	c-10.988,3.441-19.03,13.58-19.03,25.689c0,12.977,9.171,23.803,21.373,26.412c1.08,8.482,2.665,16.463,5.291,23.35
	c3.004,7.79,12.11,11.562,19.215,13.361c-2.188,10.42-9.354,18.746-17.091,18.746c-8.557,0-13.55-16.412-14.425-20.811
	l-15.724,3.049c2.424,12.55,11.5,33.784,30.146,33.784c20.22,0,33.804-21.358,33.804-41.308v-7.168l-7.118-0.802
	C749.396,380.296,742.383,377.89,741.291,376.339z M144.869,560.653h-42.061v-59.087h42.061V560.653z M222.983,621.741h-44.066
	v-125.18h44.066V621.741z M254.099,521.086l-1.075-55.569l-67.921-1.428l346.482-266.987
	C421.548,281.893,254.099,521.086,254.099,521.086z M726.707,76.954c-14.914,0-27.039-12.125-27.039-27.039
	c0-14.909,12.125-27.039,27.039-27.039c14.912,0,27.042,12.13,27.042,27.039C753.749,64.829,741.619,76.954,726.707,76.954z"/>
<path fill="#231F20" d="M774.499,694.503c0.396-77.36-11.899-182.373-51.758-208.957c-44.643-29.763-132.46-4.247-144.752-0.458
	h-8.906v164.439c-12.225,4.885-21.579,11.398-28.726,18.476l-5.889-182.457h-30.042l1.798,161.794H285.596v7.238V659h-22.498
	v-10.421H61.167v17.228H25.736v16.021v9.34h20.029v14.704H31.167v32.039H64.5h14.667h0.396c3.205-12.903,9.777-24.472,18.718-33.739
	c11.791-12.22,27.711-20.414,45.521-22.344c2.667-0.289,5.373-0.454,8.117-0.454h118.169c2.745,0,5.45,0.165,8.117,0.454
	c31.314,3.394,56.809,26.163,64.239,56.083h15.77h27.62h165.141c8-30.984,36.137-53.873,69.62-53.873s61.62,22.889,69.62,53.873
	h67.617h14.982h11.017v-27.067v-16.34H774.499z M637.617,593.702h-38.053v-92.133h38.053V593.702z M738.767,593.702H659.65v-92.133
	h49.071C739.766,520.597,738.767,593.702,738.767,593.702z"/>
</svg>
