<?xml version="1.0" encoding="utf-8"?>
<!-- Generator: Adobe Illustrator 16.0.0, SVG Export Plug-In . SVG Version: 6.00 Build 0)  -->
<!DOCTYPE svg PUBLIC "-//W3C//DTD SVG 1.1//EN" "http://www.w3.org/Graphics/SVG/1.1/DTD/svg11.dtd">
<svg version="1.1" id="Layer_1" xmlns="http://www.w3.org/2000/svg" xmlns:xlink="http://www.w3.org/1999/xlink" x="0px" y="0px"
	 width="800px" height="800px" viewBox="0 0 800 800" enable-background="new 0 0 800 800" xml:space="preserve">
<path fill="#231F20" d="M726.544,144.82c-8.724,0-17.084,1.549-24.825,4.385c0,0-460.438,102.824-518.218,169.356l-0.045,0.052
	c-1.869,2.159-43.68,92.976-53.8,114.983H97.707c0,0-196.092,95.369-28.898,210.618h207.546v-82.842
	c21.185-18.574,181.509-158.52,301.817-245.71l47.796-33.11c0.007-0.006,0.015-0.01,0.021-0.016l42.249-23.119
	c8.478,11.621,20.336,20.609,34.137,25.517v269.268c0,0.302,0.131,0.542,0.166,0.831c0.77,15.88,12.051,28.976,27.08,32.4v23.236
	c0,2.681,1.381,5.161,3.662,6.586l12.72,7.915c1.333,1.591,2.062,3.572,2.062,5.677c0,2.365-0.909,4.604-2.576,6.271
	c-3.453,3.417-9.052,3.439-12.507-0.02c-3.024-3.023-7.929-3.023-10.958,0c-3.026,3.028-3.026,7.936,0,10.961
	c4.737,4.754,10.979,7.118,17.212,7.118c6.225,0,12.46-2.365,17.212-7.101c4.604-4.616,7.119-10.721,7.119-17.232
	c0-6.508-2.528-12.609-7.131-17.195c-0.408-0.425-0.882-0.789-1.378-1.104l-9.934-6.177v-18.938
	c15.034-3.424,26.311-16.52,27.087-32.399c0.026-0.289,0.163-0.529,0.163-0.831l0.055-281.575
	c16.034-13.232,26.255-33.257,26.255-55.669C798.683,177.118,766.384,144.82,726.544,144.82z M260.056,528.579l-50.07-71.983
	l120.349-60.547c17.604-9.567,35.875-18.889,53.745-27.035l139.882-66.081l6.587,9.882L260.056,528.579z M655.314,205.53
	L355.296,337.873l-120.569,56.346l-11.106-6.059l-42.408,6.059l23.223-56.346l94.245-38.422l368.715-123.77
	C661.29,184.415,657.063,194.557,655.314,205.53z M703.979,236.175c-4.258-5.224-6.813-11.892-6.813-19.16
	c0-8.708,3.668-16.551,9.539-22.083c5.255-4.735,12.209-7.62,19.839-7.62c16.372,0,29.646,13.273,29.646,29.646
	c0,16.373-13.273,29.646-29.646,29.646C717.504,246.605,709.417,242.555,703.979,236.175z M729.62,289.02v230.289
	c-4.252,0.968-8.232,2.646-11.743,5.01V288.562c2.843,0.341,5.732,0.536,8.667,0.536C727.575,289.098,728.599,289.063,729.62,289.02
	z M737.373,572.866c-10.749,0-19.496-8.751-19.496-19.496c0-10.748,8.747-19.5,19.496-19.5c10.751,0,19.499,8.752,19.499,19.5
	C756.872,564.115,748.124,572.866,737.373,572.866z M756.872,524.318c-3.514-2.366-7.495-4.042-11.75-5.01V286.671
	c2.009-0.534,3.984-1.148,5.92-1.848h5.83V524.318z"/>
</svg>
