<?xml version="1.0" encoding="utf-8"?>
<!-- Generator: Adobe Illustrator 16.0.0, SVG Export Plug-In . SVG Version: 6.00 Build 0)  -->
<!DOCTYPE svg PUBLIC "-//W3C//DTD SVG 1.1//EN" "http://www.w3.org/Graphics/SVG/1.1/DTD/svg11.dtd">
<svg version="1.1" id="Layer_1" xmlns="http://www.w3.org/2000/svg" xmlns:xlink="http://www.w3.org/1999/xlink" x="0px" y="0px"
	 width="800px" height="800px" viewBox="0 0 800 800" enable-background="new 0 0 800 800" xml:space="preserve">
<g>
	<path fill="#231F20" d="M295.703,658.936c8.189,0,14.86-6.67,14.86-14.864c0-8.201-6.671-14.87-14.86-14.87
		c-8.211,0-14.881,6.669-14.881,14.87C280.821,652.266,287.491,658.936,295.703,658.936z"/>
	<path fill="#231F20" d="M195.888,657.17c7.229,0,13.115-5.872,13.115-13.1c0-7.23-5.885-13.104-13.115-13.104
		c-7.216,0-13.091,5.873-13.091,13.104C182.796,651.298,188.671,657.17,195.888,657.17z"/>
	<path fill="#231F20" d="M399.751,657.17c7.231,0,13.116-5.872,13.116-13.1c0-7.23-5.885-13.104-13.116-13.104
		c-7.218,0-13.091,5.873-13.091,13.104C386.66,651.298,392.534,657.17,399.751,657.17z"/>
	<path fill="#231F20" d="M86.168,657.17c7.229,0,13.103-5.872,13.103-13.1c0-7.23-5.874-13.104-13.103-13.104
		c-7.218,0-13.091,5.873-13.091,13.104C73.077,651.298,78.951,657.17,86.168,657.17z"/>
	<path fill="#231F20" d="M533.014,698.222v-3.587c25.098-3.146,44.596-24.623,44.596-50.563c0-25.947-19.498-47.425-44.596-50.57
		v-3.58H47.246v3.58c-25.112,3.146-44.597,24.623-44.597,50.57c0,25.94,19.485,47.418,44.597,50.563v3.587H533.014z M86.168,618.225
		c12.042,0,22.095,8.311,24.957,19.475h59.815c2.848-11.164,12.9-19.475,24.947-19.475c12.042,0,22.1,8.311,24.96,19.475h48.056
		c2.886-12.157,13.774-21.24,26.799-21.24c13.017,0,23.89,9.083,26.793,21.24h52.309c2.846-11.164,12.901-19.475,24.946-19.475
		c12.043,0,22.101,8.311,24.959,19.475h53.084c2.858-11.164,12.916-19.475,24.957-19.475c14.251,0,25.834,11.597,25.834,25.847
		c0,14.241-11.583,25.839-25.834,25.839c-12.041,0-22.099-8.31-24.957-19.47H424.71c-2.858,11.16-12.916,19.47-24.959,19.47
		c-12.045,0-22.1-8.31-24.946-19.47h-52.309c-2.903,12.155-13.776,21.237-26.793,21.237c-13.024,0-23.913-9.082-26.799-21.237
		h-48.056c-2.86,11.16-12.918,19.47-24.96,19.47c-12.047,0-22.099-8.31-24.947-19.47h-59.815
		c-2.862,11.16-12.915,19.47-24.957,19.47c-14.25,0-25.832-11.598-25.832-25.839C60.337,629.82,71.918,618.225,86.168,618.225z"/>
	<path fill="#231F20" d="M502.751,657.17c7.218,0,13.091-5.872,13.091-13.1c0-7.23-5.873-13.104-13.091-13.104
		c-7.229,0-13.113,5.873-13.113,13.104C489.638,651.298,495.521,657.17,502.751,657.17z"/>
	<path fill="#231F20" d="M489.638,433.174l-42.977-74.881H310.562v68.512l-75.207,3.186V412.47l-100.339-1.593v15.928H99.271v45.113
		h136.084v18.593H99.271v58.292h390.366L489.638,433.174L489.638,433.174z M462.59,471.918H335.693v-91.074h95.043l31.854,45.537
		V471.918z"/>
	<polygon fill="#231F20" points="429.142,267.535 559.744,168.791 559.744,113.045 399.751,208.606 335.693,339.206 
		429.142,339.206 	"/>
	<polygon fill="#231F20" points="785.903,423.618 602.745,90.748 577.609,113.045 577.609,159.234 741.308,423.618 	"/>
	<path fill="#231F20" d="M752.458,453.543c1.067,92.65-86.007,95.26-86.007,95.26c176.813,69.446,119.452-95.26,119.452-95.26
		H752.458L752.458,453.543z"/>
</g>
</svg>
