<?xml version="1.0" encoding="utf-8"?>
<!-- Generator: Adobe Illustrator 16.0.0, SVG Export Plug-In . SVG Version: 6.00 Build 0)  -->
<!DOCTYPE svg PUBLIC "-//W3C//DTD SVG 1.1//EN" "http://www.w3.org/Graphics/SVG/1.1/DTD/svg11.dtd">
<svg version="1.1" id="Layer_1" xmlns="http://www.w3.org/2000/svg" xmlns:xlink="http://www.w3.org/1999/xlink" x="0px" y="0px"
	 width="800px" height="800px" viewBox="0 0 800 800" enable-background="new 0 0 800 800" xml:space="preserve">
<g>
	<path fill="#231F20" d="M362.289,727.817c9.996,0,18.127-8.135,18.127-18.128c0-9.994-8.131-18.125-18.127-18.125
		c-9.998,0-18.129,8.131-18.129,18.125C344.16,719.683,352.291,727.817,362.289,727.817z"/>
	<path fill="#231F20" d="M240.617,725.663c8.812,0,15.971-7.161,15.971-15.974c0-8.816-7.158-15.972-15.971-15.972
		s-15.975,7.154-15.975,15.972C224.643,718.502,231.805,725.663,240.617,725.663z"/>
	<path fill="#231F20" d="M489.148,725.663c8.813,0,15.969-7.161,15.969-15.974c0-8.816-7.154-15.972-15.969-15.972
		c-8.815,0-15.976,7.154-15.976,15.972C473.174,718.502,480.334,725.663,489.148,725.663z"/>
	<path fill="#231F20" d="M106.852,725.663c8.812,0,15.973-7.161,15.973-15.974c0-8.816-7.16-15.972-15.973-15.972
		s-15.968,7.154-15.968,15.972C90.884,718.502,98.038,725.663,106.852,725.663z"/>
	<path fill="#231F20" d="M651.596,775.704v-4.365c30.609-3.837,54.363-30.021,54.363-61.648c0-31.625-23.754-57.812-54.363-61.646
		v-4.371H59.393v4.371C28.78,651.88,5.025,678.065,5.025,709.69c0,31.627,23.755,57.812,54.368,61.648v4.365H651.596z
		 M106.852,678.188c14.672,0,26.926,10.13,30.416,23.734h72.934c3.477-13.604,15.73-23.734,30.416-23.734
		c14.68,0,26.938,10.13,30.414,23.734h58.58c3.539-14.818,16.807-25.891,32.678-25.891c15.863,0,29.137,11.072,32.67,25.891h63.771
		c3.475-13.604,15.733-23.734,30.418-23.734c14.682,0,26.936,10.13,30.413,23.734h64.709c3.488-13.604,15.744-23.734,30.431-23.734
		c17.387,0,31.508,14.135,31.508,31.503s-14.121,31.506-31.508,31.506c-14.687,0-26.941-10.131-30.431-23.742h-64.709
		c-3.479,13.611-15.731,23.742-30.413,23.742c-14.685,0-26.943-10.131-30.418-23.742H394.96
		c-3.533,14.826-16.807,25.896-32.67,25.896c-15.871,0-29.139-11.069-32.678-25.896h-58.58
		c-3.477,13.611-15.734,23.742-30.414,23.742c-14.686,0-26.939-10.131-30.416-23.742h-72.934
		c-3.49,13.611-15.744,23.742-30.416,23.742c-17.365,0-31.5-14.138-31.5-31.506C75.352,692.321,89.486,678.188,106.852,678.188z"/>
	<path fill="#231F20" d="M614.701,725.663c8.801,0,15.975-7.161,15.975-15.974c0-8.816-7.174-15.972-15.975-15.972
		c-8.799,0-15.974,7.154-15.974,15.972C598.729,718.502,605.902,725.663,614.701,725.663z"/>
	<path fill="#231F20" d="M755.609,7.162c0-0.029-0.021-0.044-0.021-0.078c0-0.226-0.09-0.438-0.104-0.666
		c-0.05-0.439-0.152-0.861-0.275-1.304c-0.074-0.239-0.029-0.499-0.135-0.741c0-0.033-0.031-0.063-0.06-0.091
		c-0.02-0.06-0.02-0.123-0.033-0.17c-0.09-0.208-0.271-0.36-0.379-0.56c-0.104-0.185-0.104-0.392-0.229-0.578
		c-0.15-0.228-0.363-0.35-0.531-0.543c-0.164-0.229-0.287-0.504-0.467-0.701c-0.049-0.041-0.092-0.075-0.123-0.104
		c-0.014-0.029-0.027-0.062-0.041-0.078c-0.174-0.15-0.367-0.199-0.537-0.329c-0.361-0.306-0.725-0.551-1.137-0.776
		c-0.213-0.106-0.379-0.291-0.604-0.395c-0.078-0.028-0.139-0.049-0.2-0.075c-0.228-0.077-0.453-0.106-0.685-0.166
		c-0.438-0.138-0.859-0.2-1.312-0.26c-0.275-0.028-0.505-0.12-0.765-0.12c-0.043,0-0.092-0.031-0.135-0.031
		c-0.031,0-0.047,0.014-0.076,0.014c-0.211,0-0.426,0.094-0.639,0.109c-0.457,0.043-0.881,0.137-1.334,0.27
		c-0.242,0.06-0.502,0.033-0.76,0.122L88.09,253.434c-0.062,0.014-0.077,0.062-0.119,0.076c-0.076,0.027-0.15,0.061-0.228,0.09
		c-0.032,0.014-0.079,0.014-0.11,0.033c-0.33,0.151-0.543,0.421-0.848,0.606c-0.122,0.09-0.244,0.166-0.377,0.255
		c-0.322,0.242-0.688,0.393-0.957,0.669c-0.061,0.047-0.109,0.124-0.166,0.185c-0.335,0.344-0.535,0.785-0.807,1.18
		c-0.226,0.363-0.543,0.666-0.712,1.065c-0.03,0.09-0.044,0.165-0.077,0.24c-0.18,0.454-0.213,0.939-0.303,1.427
		c-0.092,0.439-0.243,0.847-0.243,1.301c0,0.049-0.026,0.075-0.026,0.123v265.234H5.024v83.852h350.47h117.68h67.938
		c0,0,73.59-83.852,0-177.463c0,0-101.4-41.593-160.695,0c0,0-19.416,50.241-25.35,93.611H250.43l174.109-173.825
		c0.033-0.026,0.045-0.046,0.061-0.062l85.982-85.824c0.014-0.014,0.029-0.029,0.059-0.062c0-0.014,0.019-0.027,0.031-0.061
		c0.029-0.016,0.043-0.016,0.063-0.028l109.44-114.317c0.017-0.013,0.017-0.027,0.035-0.027l51.391-53.686c0,0,0,0,0.017,0
		l68.459-71.522v379.474c0,0.649,0.225,1.228,0.379,1.83c-15.81,3.416-27.687,17.465-27.687,34.257
		c0,16.67,11.697,30.578,27.308,34.129v23.286c0,2.686,1.379,5.173,3.656,6.599l12.737,7.932c1.351,1.596,2.095,3.58,2.095,5.688
		c0,2.366-0.939,4.61-2.609,6.279c-3.43,3.428-9.068,3.446-12.525-0.013c-3.035-3.033-7.953-3.033-10.985,0
		c-3.031,3.035-3.031,7.949,0,10.98c4.762,4.764,11.014,7.133,17.266,7.133c6.246,0,12.498-2.369,17.244-7.113
		c4.596-4.628,7.145-10.74,7.145-17.268c0-6.521-2.549-12.638-7.159-17.228c-0.423-0.428-0.875-0.793-1.378-1.111l-9.95-6.188
		v-18.979c15.608-3.55,27.301-17.459,27.301-34.128c0-16.792-11.877-30.841-27.68-34.257c0.151-0.604,0.379-1.181,0.379-1.83V7.162
		H755.609z M433.854,445.961h89.709c19.513-3.896,23.396,97.508,23.396,97.508H433.854V445.961z M98.65,525.918V296.121
		l105.787,229.797H98.65L98.65,525.918z M230.449,525.918h-8.93L157.822,387.53L397.054,240.6l-9.527,16.29
		c0,0.033-0.012,0.047-0.031,0.062L230.449,525.918z M276.354,478.102l32.994-56.518h23.617L276.354,478.102z M336.393,406.054
		h-17.977l17.977-30.785V406.054z M351.924,402.652v-48.314h48.406L351.924,402.652z M357.691,338.805l34.176-58.554l16.896,58.554
		H357.691z M422.904,331.797L404.64,268.45h81.711L422.904,331.797z M407.842,252.916l17.273-29.592l44.418-28.49l23.979,58.082
		H407.842z M507.762,246.699l-22.694-54.973l71.489,4.002L507.762,246.699z M497.564,176.877l49.057-31.479l15.113,35.072
		L497.564,176.877z M576.322,175.086l-13.26-30.777l36.135,6.885L576.322,175.086z M606.938,136.844l-36.196-6.902l36.196-23.206
		V136.844z M545.76,127.516l-77.742,49.844c0,0-0.02,0-0.02,0.016l-52.83,33.873c0,0,0,0,0,0.015L151.283,373.33l-49.892-108.369
		L679.066,42.036L545.76,127.516z M622.469,126.878v-26.577h25.455L622.469,126.878z M662.789,84.766h-21.586L697.1,48.921
		L662.789,84.766z M767.377,442.063c0,10.77-8.766,19.534-19.535,19.534c-10.772,0-19.539-8.766-19.539-19.534
		c0-10.771,8.767-19.539,19.539-19.539C758.611,422.523,767.377,431.293,767.377,442.063z"/>
</g>
</svg>
