<?xml version="1.0" encoding="utf-8"?>
<!-- Generator: Adobe Illustrator 16.0.0, SVG Export Plug-In . SVG Version: 6.00 Build 0)  -->
<!DOCTYPE svg PUBLIC "-//W3C//DTD SVG 1.1//EN" "http://www.w3.org/Graphics/SVG/1.1/DTD/svg11.dtd">
<svg version="1.1" id="Layer_1" xmlns="http://www.w3.org/2000/svg" xmlns:xlink="http://www.w3.org/1999/xlink" x="0px" y="0px"
	 width="800px" height="800px" viewBox="0 0 800 800" enable-background="new 0 0 800 800" xml:space="preserve">
<g>
	<path fill="#231F20" d="M626.6,346.576c0,0,42.015,2.791,44.806,47.606c0,0,36.396-77.03,109.231-23.809h19.597
		C800.232,370.375,749.829,235.949,626.6,346.576z"/>
	<path fill="#231F20" d="M671.404,456.502c-2.791,44.814-44.806,47.608-44.806,47.608
		c123.229,110.628,173.634-23.801,173.634-23.801h-19.597C707.801,533.535,671.404,456.502,671.404,456.502z"/>
	<path fill="#231F20" d="M511.754,416.605c0,0,2.787-66.09,58.819-68.064L405.309,189.718c0,0-18.184,89.621-72.801,95.233
		L511.754,416.605z"/>
	<path fill="#231F20" d="M240.772,476.817l60.917-173.929c-100.83,26.337-121.838-59.951-121.838-59.951l-74.215,173.668
		C189.663,392.805,240.772,476.817,240.772,476.817z"/>
	<path fill="#231F20" d="M660.194,416.605c0-33.252-26.967-60.218-60.214-60.218c-33.25,0-60.216,26.965-60.216,60.218
		c0,33.245,26.966,60.212,60.216,60.212C633.229,476.817,660.194,449.852,660.194,416.605z M573.359,416.605
		c0-14.689,11.921-26.607,26.622-26.607c14.706,0,26.617,11.918,26.617,26.607c0,14.688-11.911,26.6-26.617,26.6
		C585.28,443.205,573.359,431.293,573.359,416.605z"/>
	<path fill="#231F20" d="M206.568,189.718c0,44.212,35.842,80.071,80.055,80.071c44.229,0,80.086-35.859,80.086-80.071
		c0-44.216-35.856-80.068-80.086-80.068C242.41,109.649,206.568,145.502,206.568,189.718z M286.623,154.335
		c19.545,0,35.381,15.852,35.381,35.383c0,19.526-15.836,35.379-35.381,35.379c-19.532,0-35.384-15.853-35.384-35.379
		C251.239,170.187,267.091,154.335,286.623,154.335z"/>
	<path fill="#231F20" d="M62.314,536.572c0,44.211,35.858,80.07,80.083,80.07c44.213,0,80.056-35.859,80.056-80.07
		c0-44.217-35.843-80.07-80.056-80.07C98.173,456.502,62.314,492.355,62.314,536.572z M142.397,501.188
		c19.532,0,35.383,15.854,35.383,35.386c0,19.524-15.851,35.377-35.383,35.377c-19.562,0-35.382-15.853-35.382-35.377
		C107.016,517.041,122.836,501.188,142.397,501.188z"/>
	<path fill="#231F20" d="M1.982,775.109h264.68l-44.209-158.467c0,0-67.6,79.608-160.139,0L1.982,775.109z"/>
</g>
</svg>
