<?xml version="1.0" encoding="utf-8"?>
<!-- Generator: Adobe Illustrator 16.0.0, SVG Export Plug-In . SVG Version: 6.00 Build 0)  -->
<!DOCTYPE svg PUBLIC "-//W3C//DTD SVG 1.1//EN" "http://www.w3.org/Graphics/SVG/1.1/DTD/svg11.dtd">
<svg version="1.1" id="Layer_1" xmlns="http://www.w3.org/2000/svg" xmlns:xlink="http://www.w3.org/1999/xlink" x="0px" y="0px"
	 width="800px" height="800px" viewBox="0 0 800 800" enable-background="new 0 0 800 800" xml:space="preserve">
<g>
	<path fill="#231F20" d="M335.565,631.678c-8.438,0-15.304,6.863-15.304,15.303c0,8.44,6.865,15.304,15.304,15.304
		s15.304-6.863,15.304-15.304C350.869,638.541,344.005,631.678,335.565,631.678z"/>
	<path fill="#231F20" d="M232.855,633.496c-7.439,0-13.484,6.045-13.484,13.484c0,7.438,6.045,13.483,13.484,13.483
		s13.484-6.045,13.484-13.483C246.339,639.541,240.295,633.496,232.855,633.496z"/>
	<path fill="#231F20" d="M442.658,633.496c-7.441,0-13.482,6.045-13.482,13.484c0,7.438,6.041,13.483,13.482,13.483
		c7.439,0,13.485-6.045,13.485-13.483C456.144,639.541,450.099,633.496,442.658,633.496z"/>
	<path fill="#231F20" d="M119.938,633.496c-7.438,0-13.482,6.045-13.482,13.484c0,7.438,6.044,13.483,13.482,13.483
		c7.44,0,13.485-6.045,13.485-13.483C133.423,639.541,127.379,633.496,119.938,633.496z"/>
	<path fill="#231F20" d="M79.869,591.25v3.691c-25.842,3.237-45.895,25.342-45.895,52.039c0,26.7,20.053,48.8,45.895,52.041v3.688
		h499.922v-3.688c25.84-3.241,45.895-25.341,45.895-52.041c0-26.697-20.055-48.802-45.895-52.039v-3.691H79.869z M548.646,673.578
		c-12.396,0-22.741-8.555-25.685-20.041h-54.63c-2.937,11.486-13.279,20.041-25.674,20.041c-12.397,0-22.744-8.555-25.676-20.041
		h-53.831c-2.988,12.512-14.193,21.859-27.587,21.859c-13.392,0-24.598-9.349-27.585-21.859h-49.45
		c-2.931,11.486-13.282,20.041-25.675,20.041c-12.398,0-22.744-8.555-25.674-20.041h-61.569
		c-2.947,11.486-13.293,20.041-25.674,20.041c-14.663,0-26.597-11.935-26.597-26.598c0-14.659,11.934-26.6,26.597-26.6
		c12.381,0,22.727,8.557,25.674,20.042h61.569c2.93-11.486,13.275-20.042,25.674-20.042c12.393,0,22.744,8.557,25.675,20.042h49.45
		c2.987-12.508,14.193-21.861,27.585-21.861c13.394,0,24.599,9.354,27.587,21.861h53.831c2.932-11.486,13.277-20.042,25.676-20.042
		c12.395,0,22.738,8.557,25.674,20.042h54.63c2.942-11.486,13.288-20.042,25.685-20.042c14.677,0,26.598,11.939,26.598,26.6
		C575.243,661.645,563.322,673.578,548.646,673.578z"/>
	<path fill="#231F20" d="M548.646,633.496c-7.429,0-13.483,6.045-13.483,13.484c0,7.438,6.056,13.483,13.483,13.483
		c7.429,0,13.484-6.045,13.484-13.483C562.131,639.541,556.074,633.496,548.646,633.496z"/>
	<path fill="#231F20" d="M714.489,469.948h-64.475v20.755h-23.075c-5.971-42.731-29.377-69.918-29.377-69.918H494.686v-69.938
		h-13.112v69.938h-39.89v-36.121H428.57v36.121h-23.318v-36.121h-13.115v36.121h-29.501l1.104-105.999H257.736v-41.528h-69.942
		v41.528h-18.927v90.696l-123.112,2.18c0,0-92.519,65.486-12.751,163.833c0,0,31.318-3.191,79.404-3.191h448.748
		c0,0,34.053-0.999,50.44,10.422c4.433-8.935,7.584-17.575,10.142-26.027l28.276,12.137v38.431
		c24.33,65.651,151.895,35.062,151.895,35.062C727.586,628.59,714.489,469.948,714.489,469.948z M328.037,469.948h-52.275V414.05
		h-89.057V341.6h141.332V469.948z M650.016,550.569l-24.972-10.718c2.674-12.757,3.612-24.843,3.085-36.035h21.887V550.569
		L650.016,550.569z"/>
</g>
</svg>
