<?xml version="1.0" encoding="utf-8"?>
<!-- Generator: Adobe Illustrator 16.0.0, SVG Export Plug-In . SVG Version: 6.00 Build 0)  -->
<!DOCTYPE svg PUBLIC "-//W3C//DTD SVG 1.1//EN" "http://www.w3.org/Graphics/SVG/1.1/DTD/svg11.dtd">
<svg version="1.1" id="Layer_1" xmlns="http://www.w3.org/2000/svg" xmlns:xlink="http://www.w3.org/1999/xlink" x="0px" y="0px"
	 width="800px" height="800px" viewBox="0 0 800 800" enable-background="new 0 0 800 800" xml:space="preserve">
<g>
	<path fill="#231F20" d="M178.535,553.144c-39.194,0-70.978,31.788-70.978,70.977c0,39.195,31.782,70.978,70.978,70.978
		c39.205,0,70.975-31.782,70.975-70.978C249.51,584.933,217.74,553.144,178.535,553.144z M178.535,662.837
		c-21.375,0-38.715-17.327-38.715-38.716c0-21.383,17.34-38.713,38.715-38.713c21.387,0,38.714,17.33,38.714,38.713
		C217.249,645.51,199.922,662.837,178.535,662.837z"/>
	<path fill="#231F20" d="M178.535,605.841c-10.097,0-18.275,8.189-18.275,18.28c0,10.097,8.18,18.289,18.275,18.289
		c10.108,0,18.297-8.192,18.297-18.289C196.832,614.03,188.644,605.841,178.535,605.841z"/>
	<path fill="#231F20" d="M496.853,553.144c-39.204,0-70.974,31.788-70.974,70.977c0,39.195,31.77,70.978,70.974,70.978
		s70.978-31.782,70.978-70.978C567.83,584.933,536.059,553.144,496.853,553.144z M496.855,662.837
		c-21.387,0-38.713-17.327-38.713-38.716c0-21.383,17.327-38.713,38.712-38.713s38.716,17.33,38.716,38.713
		C535.57,645.51,518.238,662.837,496.855,662.837z"/>
	<path fill="#231F20" d="M496.854,605.841c-10.096,0-18.284,8.189-18.284,18.28c0,10.097,8.188,18.289,18.284,18.289
		c10.094,0,18.285-8.192,18.285-18.289C515.139,614.03,506.948,605.841,496.854,605.841z"/>
	<path fill="#231F20" d="M778.602,667.236L713.009,533.88L670.5,553.144V595.5l-15.563,42.716c0,0,38.729,90.315,146.248,29.021
		H778.602z"/>
	<path fill="#231F20" d="M654.939,553.144l-32.438-28.78l-40.425-35.866h-10.468h-47.209l-45.827-41.817h-72.066l-35.737-107.847
		H387l0.168-17.603H387H225.381v17.603H237V446.68h-58.465c0.012-48.375-18.275-93.569-18.275-93.569h-13.986
		c9.313,27.942,9.078,71.457,10.727,93.569h-83.85L31.5,476.5l-5,76.645H10.775c0,0-20.417,73.146,0,89.266H46.5h25.879
		c-1.017-5.943-1.553-12.052-1.553-18.285c0-59.484,48.222-107.707,107.708-107.707s107.708,48.223,107.708,107.707
		c0,6.233-0.536,12.342-1.553,18.285H390.7c-1.017-5.943-1.553-12.052-1.553-18.285c0-59.484,48.222-107.707,107.708-107.707
		c16.326,0,31.8,3.64,45.665,10.14c23.883,11.197,42.98,30.899,53.39,55.212c7.52,23.766,6.336,48.161,6.336,60.641h0.765h19.49
		h12.007l20.432-49.463V553.144z M263.498,445.5l0.002-106.667h82.699L378.131,445.5H263.498z"/>
</g>
</svg>
