<?xml version="1.0" encoding="utf-8"?>
<!-- Generator: Adobe Illustrator 16.0.0, SVG Export Plug-In . SVG Version: 6.00 Build 0)  -->
<!DOCTYPE svg PUBLIC "-//W3C//DTD SVG 1.1//EN" "http://www.w3.org/Graphics/SVG/1.1/DTD/svg11.dtd">
<svg version="1.1" id="Layer_1" xmlns="http://www.w3.org/2000/svg" xmlns:xlink="http://www.w3.org/1999/xlink" x="0px" y="0px"
	 width="800px" height="800px" viewBox="0 0 800 800" enable-background="new 0 0 800 800" xml:space="preserve">
<g>
	<path d="M133.803,585.192c-39.573,0-71.667,32.093-71.667,71.683c0,39.574,32.093,71.668,71.667,71.668
		c39.604,0,71.683-32.094,71.683-71.668C205.485,617.285,173.406,585.192,133.803,585.192z M133.803,699.177
		c-23.367,0-42.3-18.943-42.3-42.302c0-23.372,18.933-42.316,42.3-42.316c23.374,0,42.32,18.944,42.32,42.316
		C176.123,680.232,157.176,699.177,133.803,699.177z"/>
	<path d="M133.803,641.246c-8.624,0-15.612,6.986-15.612,15.629c0,8.625,6.988,15.613,15.612,15.613
		c8.625,0,15.625-6.988,15.625-15.613C149.428,648.232,142.428,641.246,133.803,641.246z"/>
	<path d="M470.788,550.48c-49.182,0-89.034,39.865-89.034,89.03c0,49.164,39.854,89.031,89.034,89.031
		c49.173,0,89.027-39.867,89.027-89.031S519.961,550.48,470.788,550.48z M470.788,692.064c-29.038,0-52.557-23.536-52.557-52.554
		c0-29.02,23.519-52.557,52.557-52.557c29.027,0,52.552,23.537,52.552,52.557C523.34,668.528,499.815,692.064,470.788,692.064z"/>
	<path d="M470.788,620.111c-10.709,0-19.402,8.68-19.402,19.399c0,10.721,8.693,19.402,19.402,19.402
		c10.702,0,19.398-8.682,19.398-19.402C490.187,628.791,481.49,620.111,470.788,620.111z"/>
	<path d="M490.188,240.303l-19.398,12.939v63.496l-34.48,1.17l-79.959-77.605H205.485c0,0-63.082,128.771-56.058,201.374
		c0,0-225.791,10.224-109.381,199.569c0,0,14.691-90.766,93.756-90.766c79.097,0,92.573,68.485,92.573,92.572h134.683
		c0,0-9.609-119.25,119.249-119.25c128.853,0,108.86,117.442,113.572,117.442l203.416-1.734v-19.399l-169.323-22.341
		L490.188,240.303z M401.999,476.801c-40.197-2.203-65.634,35.125-65.634,35.125l-163.453-70.249
		c-3.526-44.384,44.686-173.153,44.686-173.153h129.349l71.72,72.822L401.999,476.801z M505.688,466.068l-54.302-75.843v-48.881
		h38.802l48.421,124.724H505.688L505.688,466.068z"/>
</g>
</svg>
