<?xml version="1.0" encoding="utf-8"?>
<!-- Generator: Adobe Illustrator 16.0.0, SVG Export Plug-In . SVG Version: 6.00 Build 0)  -->
<!DOCTYPE svg PUBLIC "-//W3C//DTD SVG 1.1//EN" "http://www.w3.org/Graphics/SVG/1.1/DTD/svg11.dtd">
<svg version="1.1" id="Layer_1" xmlns="http://www.w3.org/2000/svg" xmlns:xlink="http://www.w3.org/1999/xlink" x="0px" y="0px"
	 width="800px" height="800px" viewBox="0 0 800 800" enable-background="new 0 0 800 800" xml:space="preserve">
<g>
	<path fill="#231F20" d="M216.974,582.463c-48.109,0-87.112,39.004-87.112,87.112c0,48.107,39.003,87.114,87.112,87.114
		c48.106,0,87.111-39.007,87.111-87.114C304.085,621.467,265.08,582.463,216.974,582.463z M216.974,721.003
		c-28.397,0-51.428-23.03-51.428-51.428c0-28.396,23.031-51.425,51.428-51.425c28.394,0,51.423,23.028,51.423,51.425
		C268.396,697.973,245.367,721.003,216.974,721.003z"/>
	<path fill="#231F20" d="M216.974,650.592c-10.492,0-18.985,8.494-18.985,18.983c0,10.491,8.493,18.983,18.985,18.983
		c10.488,0,18.982-8.492,18.982-18.983C235.956,659.086,227.462,650.592,216.974,650.592z"/>
	<path fill="#231F20" d="M636.349,757.146c36.823,0,69.732-16.53,91.898-42.511h-183.8
		C566.611,740.616,599.525,757.146,636.349,757.146z"/>
	<path fill="#231F20" d="M636.349,515.531c-47.323,0-88.192,27.29-108.013,66.932H744.36
		C724.537,542.821,683.675,515.531,636.349,515.531z"/>
	<path fill="#231F20" d="M458.588,636.34h-54.915v-13.766l110.839-73.58l-14.192-187.949H304.085l-10.476,137.648h-95.621v-36.566
		h18.985V448.32h-56.066v13.807h13.806v36.566c0,0-187.276,22.811-175.196,170.882l113.904,45.062
		c0,0-27.613-165.062,103.552-165.643c129.029-0.566,112.754,162.471,112.19,165.614c0.63-2.219,74.509,0.027,74.509,0.027v-29.76
		l82.448-15.302v18.983h258.24l52.49-27.208v-52.528H514.512L458.588,636.34z M373.471,509.33h-40.867V404.985h40.867V509.33z
		 M392.077,509.33V404.985h11.596h61.819l20.629,104.345H392.077z"/>
	<path fill="#231F20" d="M329.164,714.608c-0.003,0.01-0.015,0.019-0.015,0.027C329.149,714.674,329.155,714.66,329.164,714.608z"/>
</g>
</svg>
