<?xml version="1.0" encoding="utf-8"?>
<!-- Generator: Adobe Illustrator 16.0.0, SVG Export Plug-In . SVG Version: 6.00 Build 0)  -->
<!DOCTYPE svg PUBLIC "-//W3C//DTD SVG 1.1//EN" "http://www.w3.org/Graphics/SVG/1.1/DTD/svg11.dtd">
<svg version="1.1" id="Layer_1" xmlns="http://www.w3.org/2000/svg" xmlns:xlink="http://www.w3.org/1999/xlink" x="0px" y="0px"
	 width="800px" height="800px" viewBox="0 0 800 800" enable-background="new 0 0 800 800" xml:space="preserve">
<g>
	<path fill="#231F20" d="M722.329,512.692c6.005-16.681,19.344-34.267,49.256-34.267v-58.87l-163.75-34.164v-59.885l17.589-4.059
		v-16.24h-35.176v76.521l-23.027-4.804l-39.235-215.182H400.762H273.555l-39.24,215.182l-204.362,42.63v58.87
		c31.101,0,44.323,19.027,49.957,36.282C38.535,533.396,9.604,574.961,9.604,623.234c0,65.676,53.431,119.105,119.107,119.105
		c65.673,0,119.104-53.432,119.104-119.105c0-54.666-37.081-100.723-87.357-114.682c13.291-38.728,50.846-28.766,50.846-28.766
		c78.472,0,69.021,197.572,69.021,197.572h120.438h120.466c0,0-9.483-197.572,69.021-197.572c0,0,38.378-10.137,51.254,30.195
		c-47.762,15.525-82.402,60.391-82.402,113.25c0,65.676,53.435,119.105,119.104,119.105c65.679,0,119.108-53.432,119.108-119.105
		C797.314,573.153,766.196,530.286,722.329,512.692z M186.911,623.234c0,32.099-26.1,58.205-58.2,58.205
		c-32.103,0-58.205-26.106-58.205-58.205s26.101-58.2,58.205-58.2C160.81,565.034,186.911,591.136,186.911,623.234z
		 M380.459,375.576H268.141l23-173.23h89.318V375.576L380.459,375.576z M421.06,375.576v-173.23h89.323l23.024,173.23H421.06z
		 M678.203,681.439c-32.102,0-58.205-26.106-58.205-58.205s26.104-58.2,58.205-58.2c32.104,0,58.206,26.102,58.206,58.2
		C736.409,655.332,710.307,681.439,678.203,681.439z"/>
	<path fill="#231F20" d="M86.744,623.234c0,23.143,18.827,41.967,41.967,41.967c23.138,0,41.963-18.824,41.963-41.967
		c0-23.137-18.825-41.963-41.963-41.962C105.571,581.271,86.744,600.098,86.744,623.234z"/>
	<path fill="#231F20" d="M678.203,581.271c-23.137,0-41.963,18.825-41.963,41.963c0,23.143,18.826,41.967,41.963,41.967
		c23.141,0,41.965-18.824,41.965-41.967C720.168,600.099,701.344,581.271,678.203,581.271z"/>
</g>
</svg>
