<?xml version="1.0" encoding="utf-8"?>
<!-- Generator: Adobe Illustrator 16.0.0, SVG Export Plug-In . SVG Version: 6.00 Build 0)  -->
<!DOCTYPE svg PUBLIC "-//W3C//DTD SVG 1.1//EN" "http://www.w3.org/Graphics/SVG/1.1/DTD/svg11.dtd">
<svg version="1.1" id="Layer_1" xmlns="http://www.w3.org/2000/svg" xmlns:xlink="http://www.w3.org/1999/xlink" x="0px" y="0px"
	 width="800px" height="800px" viewBox="0 0 800 800" enable-background="new 0 0 800 800" xml:space="preserve">
<g>
	<path d="M229.289,697.078c-26.248,0-47.501,21.264-47.501,47.504c0,26.238,21.253,47.502,47.501,47.502
		c26.225,0,47.506-21.264,47.506-47.502C276.795,718.342,255.514,697.078,229.289,697.078z"/>
	<path d="M354.653,702.719c-26.224,0-47.504,21.268-47.504,47.505c0,26.235,21.28,47.503,47.504,47.503
		c26.249,0,47.503-21.268,47.503-47.503C402.156,723.985,380.902,702.719,354.653,702.719z"/>
	<path d="M670.301,697.078c-26.235,0-47.5,21.264-47.5,47.504c0,26.238,21.265,47.502,47.5,47.502
		c26.24,0,47.506-21.264,47.506-47.502C717.807,718.342,696.541,697.078,670.301,697.078z"/>
	<path d="M783.593,535.072c0-21.713-10.652-40.797-26.87-52.787c-10.907-8.064-24.297-12.998-38.916-12.998H606.523v12.998h-1.104
		v166.076h-25.302h-27.485H127.006v82.501h27.493c6.456-35.47,37.445-62.372,74.79-62.372h125.364
		c37.349,0,68.333,26.902,74.792,62.372h166.065c6.456-35.47,37.456-62.372,74.789-62.372c37.338,0,68.338,26.902,74.795,62.372
		h51.686v-82.501h-13.188L783.593,535.072L783.593,535.072z M754.994,600.066h-84.693v-105.67h47.506
		c0,0,37.188,3.289,37.188,32.993L754.994,600.066L754.994,600.066z"/>
	<polygon points="567.452,623.028 592.754,623.028 592.754,456.951 592.754,268.498 0.58,268.498 0.58,623.028 114.342,623.028 
		539.965,623.028 	"/>
</g>
</svg>
