<?xml version="1.0" encoding="iso-8859-1"?>
<!-- Generator: Adobe Illustrator 16.0.4, SVG Export Plug-In . SVG Version: 6.00 Build 0)  -->
<!DOCTYPE svg PUBLIC "-//W3C//DTD SVG 1.1//EN" "http://www.w3.org/Graphics/SVG/1.1/DTD/svg11.dtd">
<svg version="1.1" id="Capa_1" xmlns="http://www.w3.org/2000/svg" xmlns:xlink="http://www.w3.org/1999/xlink" x="0px" y="0px"
	 width="20px" height="20px" viewBox="0 0 20 20" style="enable-background:new 0 0 20 20;" xml:space="preserve">
<path style="fill:#010002;" d="M16,0H4C1.8,0,0,1.8,0,4v12c0,2.2,1.8,4,4,4h12c2.2,0,4-1.8,4-4V4C20,1.8,18.2,0,16,0z M10.455,5.526
	c1.143,0.38,1.406-0.152,1.713-0.857c0.646-1.468,1.382-2.178,3-2.143c1.599,0.035,2.559,2.426,1.286,2.571
	c-0.703,0.08-2.353-0.378-2.572,0.857c-0.278,1.592-1.585,1.194-2.569,0.857c-1.009-0.348-1.342,0.528-0.857,1.284
	c0.415,0.649,0.429,1.286,0.429,1.286H9.16c0,0,0.625-1.117,0.01-2.143C8.476,6.084,9.312,5.146,10.455,5.526z M2.181,17.474
	c4.434-3.232,5.541-7.698,5.541-7.698h4.557c0,0,1.107,4.466,5.541,7.698H2.181z"/>
<g>
</g>
<g>
</g>
<g>
</g>
<g>
</g>
<g>
</g>
<g>
</g>
<g>
</g>
<g>
</g>
<g>
</g>
<g>
</g>
<g>
</g>
<g>
</g>
<g>
</g>
<g>
</g>
<g>
</g>
</svg>
