<?xml version="1.0" encoding="iso-8859-1"?>
<!-- Generator: Adobe Illustrator 16.0.4, SVG Export Plug-In . SVG Version: 6.00 Build 0)  -->
<!DOCTYPE svg PUBLIC "-//W3C//DTD SVG 1.1//EN" "http://www.w3.org/Graphics/SVG/1.1/DTD/svg11.dtd">
<svg version="1.1" id="Capa_1" xmlns="http://www.w3.org/2000/svg" xmlns:xlink="http://www.w3.org/1999/xlink" x="0px" y="0px"
	 width="14.482px" height="15.5px" viewBox="0 0 14.482 15.5" style="enable-background:new 0 0 14.482 15.5;" xml:space="preserve"
	>
<path style="fill:#010002;" d="M13.879,8.855l-1.836,1.756l0.557,0.162c-0.798,1.312-2.24,1.889-3.883,2.002v-6.65h1.523
	c0.128,0.128,0.304,0.206,0.498,0.206c0.387,0,0.702-0.313,0.702-0.701s-0.315-0.702-0.702-0.702c-0.194,0-0.37,0.079-0.498,0.207
	H8.717V4.333c0.741-0.289,1.27-1.006,1.27-1.848C9.986,1.392,9.096,0.5,8,0.5c-0.399,0-0.77,0.121-1.081,0.324
	C6.353,0.318,5.615,0,4.801,0H3.199C1.44,0,0,1.44,0,3.199v1.602C0,6.56,1.44,8,3.199,8h1.602c1.095,0,2.065-0.559,2.643-1.404
	v6.176c-1.731-0.129-3.242-0.802-4-2.223l0.555-0.123L2.281,8.554l-0.764,2.422l0.647-0.144c0.946,2.072,3.102,3.741,5.537,3.902
	L8.08,15.5l0.377-0.764c2.316-0.155,4.377-1.678,5.397-3.596l0.628,0.184L13.879,8.855z M7.6,4.801C7.6,6.344,6.344,7.6,4.801,7.6
	H3.199C1.656,7.6,0.4,6.344,0.4,4.801V3.199C0.4,1.656,1.656,0.4,3.199,0.4h1.602C6.344,0.4,7.6,1.656,7.6,3.199V4.801z M8,3.504
	V3.199c0-0.59-0.173-1.137-0.454-1.612C7.685,1.517,7.834,1.468,8,1.468c0.562,0,1.019,0.456,1.019,1.018S8.562,3.504,8,3.504z
	 M6.334,2.373L4.707,4l1.627,1.627L5.627,6.334L4,4.707L2.373,6.334L1.666,5.627L3.293,4L1.666,2.373l0.707-0.707L4,3.293
	l1.627-1.627L6.334,2.373z"/>
<g>
</g>
<g>
</g>
<g>
</g>
<g>
</g>
<g>
</g>
<g>
</g>
<g>
</g>
<g>
</g>
<g>
</g>
<g>
</g>
<g>
</g>
<g>
</g>
<g>
</g>
<g>
</g>
<g>
</g>
</svg>
