<?xml version="1.0" encoding="iso-8859-1"?>
<!-- Generator: Adobe Illustrator 16.0.4, SVG Export Plug-In . SVG Version: 6.00 Build 0)  -->
<!DOCTYPE svg PUBLIC "-//W3C//DTD SVG 1.1//EN" "http://www.w3.org/Graphics/SVG/1.1/DTD/svg11.dtd">
<svg version="1.1" id="Capa_1" xmlns="http://www.w3.org/2000/svg" xmlns:xlink="http://www.w3.org/1999/xlink" x="0px" y="0px"
	 width="20px" height="20px" viewBox="0 0 20 20" style="enable-background:new 0 0 20 20;" xml:space="preserve">
<path style="fill:#010002;" d="M16,0H4C1.8,0,0,1.8,0,4v12c0,2.2,1.8,4,4,4h12c2.2,0,4-1.8,4-4V4C20,1.8,18.2,0,16,0z M17.447,9.773
	c-0.058,0.087-0.428,0.335-0.532,0.358c-0.241,0.049-0.343-0.182-0.572-0.279c-0.213-0.092-0.391-0.131-0.611-0.255
	c-0.219-0.122-0.4-0.197-0.659-0.197c-0.248,0-0.521,0.055-0.756,0.134c-0.307,0.103-0.276,0.194-0.427,0.43
	c-0.455,0.717-1.5,0.996-2.047,1.667c-0.384,0.469-0.174,1.725-0.136,2.342c0.022,0.359,0.131,0.762,0.309,1.086
	c0.142,0.258,0.554,0.579,0.543,0.876c-0.208,0.027-0.756-0.337-0.859-0.502c-0.177-0.283-0.143-0.835-0.208-1.151
	c-0.07-0.341-0.192-0.664-0.316-0.985c-0.133-0.346-0.194-0.823-0.398-1.122c0.037,0.336,0.045,0.674-0.024,1.001
	c-0.064,0.301-0.238,0.56-0.282,0.859c-0.051,0.341,0,0.731,0,1.077c0,0.213-0.001,0.33,0.094,0.511
	c0.086,0.156,0.258,0.216,0.25,0.407c-0.967-0.26-0.698-1.412-0.663-2.184c0.023-0.444-0.013-0.886-0.063-1.324
	c-0.039-0.345,0.009-1.03-0.158-1.328c-0.18-0.322-0.739-0.122-1.052-0.078c-0.494,0.066-0.99,0.143-1.488,0.092
	c-0.396-0.04-0.784-0.19-1.11-0.42c-0.284-0.198-0.579-0.657-0.884-0.751c-0.016,0.552-0.293,0.726-0.49,1.203
	c-0.168,0.406-0.264,0.948-0.344,1.365c-0.215,1.111,0.356,1.91,0.764,2.861c0.074,0.173,0.229,0.425,0.152,0.596
	c-0.337-0.129-0.478-0.118-0.637-0.496c-0.137-0.32-0.188-0.665-0.302-0.998c-0.106-0.309-0.207-0.652-0.315-0.977
	c-0.055-0.159-0.23-0.955-0.487-0.666c0.108,0.22,0.098,0.549,0.136,0.792c0.045,0.29,0.136,0.577,0.218,0.856
	c0.071,0.246,0.134,0.517,0.22,0.761c0.081,0.225,0.27,0.486,0.248,0.729c-0.896-0.199-1.003-1.846-1.16-2.512
	c-0.098-0.405-0.358-0.913-0.356-1.326c0-0.472,0.353-0.929,0.506-1.363c0.195-0.546,0.071-0.999-0.149-1.502
	c-0.188-0.426-0.292-1.057-0.581-1.41c-0.066,0.986,0,1.984,0,3.005c0,0.542,0.006,1.028,0.035,1.555
	c0.015,0.351,0.095,1.188-0.193,1.4c-0.264-0.311-0.042-1.15,0-1.527c0.059-0.53,0.092-0.994,0.04-1.523
	C2.598,9.849,2.5,8.786,2.5,7.75c0-0.817,0.188-1.239,0.888-1.627c0.326-0.18,0.587-0.283,0.954-0.248
	C4.694,5.911,5.108,6.15,5.396,6.153c0.187,0.001,0.44-0.14,0.646-0.155C6.247,5.984,6.458,5.99,6.661,6.034
	c0.945,0.205,1.818,0.37,2.855,0.318c0.522-0.026,0.937-0.124,1.432-0.286c0.514-0.168,0.883-0.309,1.261,0.161
	c0.11,0.138,0.209,0.46,0.345,0.547c0.191,0.121,0.569-0.025,0.771-0.042c0.36-0.031,1.211,0.107,1.44-0.212
	c0.127-0.182-0.06-0.525-0.011-0.74c0.047-0.217,0.215-0.368,0.342-0.547c0.244-0.35,0.568-0.812,0.612-1.233
	c0.201,0.354-0.346,1.225-0.393,1.617c0.362-0.522,0.636-1.166,0.835-1.682c0.002,0.509-0.052,0.895-0.278,1.347
	c-0.178,0.359-0.381,0.942-0.155,1.317c0.195,0.323,0.573,0.414,0.658,0.831c0.106,0.515,0.311,0.802,0.601,1.238
	C17.155,8.938,17.663,9.454,17.447,9.773z"/>
<g>
</g>
<g>
</g>
<g>
</g>
<g>
</g>
<g>
</g>
<g>
</g>
<g>
</g>
<g>
</g>
<g>
</g>
<g>
</g>
<g>
</g>
<g>
</g>
<g>
</g>
<g>
</g>
<g>
</g>
</svg>
