<?xml version="1.0" encoding="iso-8859-1"?>
<!-- Generator: Adobe Illustrator 16.0.4, SVG Export Plug-In . SVG Version: 6.00 Build 0)  -->
<!DOCTYPE svg PUBLIC "-//W3C//DTD SVG 1.1//EN" "http://www.w3.org/Graphics/SVG/1.1/DTD/svg11.dtd">
<svg version="1.1" id="Capa_1" xmlns="http://www.w3.org/2000/svg" xmlns:xlink="http://www.w3.org/1999/xlink" x="0px" y="0px"
	 width="20px" height="20px" viewBox="0 0 20 20" style="enable-background:new 0 0 20 20;" xml:space="preserve">
<path style="fill:#010002;" d="M16,0H4C1.8,0,0,1.8,0,4v12c0,2.2,1.8,4,4,4h12c2.2,0,4-1.8,4-4V4C20,1.8,18.2,0,16,0z M6.737,17.499
	c-1.559,0-2.827-1.269-2.827-2.826c0-0.958,0.497-1.857,1.304-2.376l0.001-8.281c0.004-0.837,0.685-1.517,1.522-1.517
	c0.837,0,1.52,0.68,1.523,1.517c0,0.003,0,0.005,0,0.006v8.274c0.806,0.52,1.304,1.419,1.304,2.377
	C9.564,16.23,8.297,17.499,6.737,17.499z M16.09,7.278h-2.394V9.67h-0.869V7.278h-2.392V6.407h2.392V4.016h0.869v2.392h2.394V7.278z
	 M7.933,12.606l-0.108-0.062V4.021c0-0.6-0.487-1.087-1.087-1.087c-0.601,0-1.088,0.487-1.088,1.087v8.522l-0.108,0.062
	c-0.737,0.429-1.196,1.22-1.196,2.066c0,1.318,1.074,2.392,2.393,2.392c1.319,0,2.393-1.073,2.393-2.392
	C9.13,13.826,8.671,13.034,7.933,12.606z M6.737,16.194c-0.842,0-1.522-0.682-1.522-1.521c0-0.606,0.357-1.125,0.87-1.371V7.023
	H7.39v6.278c0.514,0.246,0.871,0.765,0.871,1.371C8.261,15.513,7.579,16.194,6.737,16.194z"/>
<g>
</g>
<g>
</g>
<g>
</g>
<g>
</g>
<g>
</g>
<g>
</g>
<g>
</g>
<g>
</g>
<g>
</g>
<g>
</g>
<g>
</g>
<g>
</g>
<g>
</g>
<g>
</g>
<g>
</g>
</svg>
