<?xml version="1.0" encoding="iso-8859-1"?>
<!-- Generator: Adobe Illustrator 16.0.4, SVG Export Plug-In . SVG Version: 6.00 Build 0)  -->
<!DOCTYPE svg PUBLIC "-//W3C//DTD SVG 1.1//EN" "http://www.w3.org/Graphics/SVG/1.1/DTD/svg11.dtd">
<svg version="1.1" id="Capa_1" xmlns="http://www.w3.org/2000/svg" xmlns:xlink="http://www.w3.org/1999/xlink" x="0px" y="0px"
	 width="20px" height="20px" viewBox="0 0 20 20" style="enable-background:new 0 0 20 20;" xml:space="preserve">
<path style="fill:#010002;" d="M16,0H4C1.8,0,0,1.8,0,4v12c0,2.2,1.8,4,4,4h12c2.2,0,4-1.8,4-4V4C20,1.8,18.2,0,16,0z
	 M12.595,16.264c0,0.682-0.555,1.236-1.236,1.236H8.642c-0.682,0-1.236-0.555-1.236-1.236V8.399c0-0.503,0.188-0.958,0.487-1.316
	C7.746,7.014,7.641,6.865,7.641,6.692V5.924c0-0.237,0.195-0.433,0.433-0.433h0.292l0.576-0.995l0.534-0.927
	C9.391,3.456,9.331,3.324,9.331,3.171C9.331,2.801,9.629,2.5,10,2.5s0.669,0.301,0.669,0.671c0,0.153-0.06,0.285-0.145,0.398
	l0.534,0.927l0.576,0.995h0.292c0.236,0,0.432,0.195,0.432,0.433v0.769c0,0.173-0.104,0.321-0.251,0.391
	c0.3,0.358,0.487,0.813,0.487,1.316V16.264z M11.477,7.126H8.522c-0.39,0.291-0.646,0.751-0.646,1.273v7.864
	c0,0.422,0.343,0.765,0.765,0.765h2.717c0.422,0,0.765-0.343,0.765-0.765V8.399C12.123,7.877,11.867,7.417,11.477,7.126z
	 M9.559,8.198H8.85v1.766h0.709v0.301H8.85v1.766h0.709v0.301H8.85v1.764h0.709v0.301H8.85v1.766h0.709v0.301h-1.01V7.897h1.01
	V8.198z"/>
<g>
</g>
<g>
</g>
<g>
</g>
<g>
</g>
<g>
</g>
<g>
</g>
<g>
</g>
<g>
</g>
<g>
</g>
<g>
</g>
<g>
</g>
<g>
</g>
<g>
</g>
<g>
</g>
<g>
</g>
</svg>
