<?xml version="1.0" encoding="iso-8859-1"?>
<!-- Generator: Adobe Illustrator 16.0.4, SVG Export Plug-In . SVG Version: 6.00 Build 0)  -->
<!DOCTYPE svg PUBLIC "-//W3C//DTD SVG 1.1//EN" "http://www.w3.org/Graphics/SVG/1.1/DTD/svg11.dtd">
<svg version="1.1" id="Capa_1" xmlns="http://www.w3.org/2000/svg" xmlns:xlink="http://www.w3.org/1999/xlink" x="0px" y="0px"
	 width="15px" height="14.176px" viewBox="0 0 15 14.176" style="enable-background:new 0 0 15 14.176;" xml:space="preserve">
<path style="fill:#010002;" d="M8.187,3.043v10.238h2.061v0.895H4.753v-0.895h2.061V3.043H2.349V2.148h4.465V0h1.373v2.148h4.465
	v0.895H8.187z M4.698,8.531c0,0.752-1.052,1.363-2.35,1.363C1.052,9.895,0,9.283,0,8.531l2.349-5.488L4.698,8.531z M4.309,8.531
	l-1.96-4.578L0.39,8.531H4.309z M15,8.531c0,0.752-1.052,1.363-2.349,1.363c-1.298,0-2.35-0.611-2.35-1.363l2.35-5.488L15,8.531z
	 M14.61,8.531l-1.959-4.578l-1.96,4.578H14.61z"/>
<g>
</g>
<g>
</g>
<g>
</g>
<g>
</g>
<g>
</g>
<g>
</g>
<g>
</g>
<g>
</g>
<g>
</g>
<g>
</g>
<g>
</g>
<g>
</g>
<g>
</g>
<g>
</g>
<g>
</g>
</svg>
