<?xml version="1.0" encoding="iso-8859-1"?>
<!-- Generator: Adobe Illustrator 16.0.4, SVG Export Plug-In . SVG Version: 6.00 Build 0)  -->
<!DOCTYPE svg PUBLIC "-//W3C//DTD SVG 1.1//EN" "http://www.w3.org/Graphics/SVG/1.1/DTD/svg11.dtd">
<svg version="1.1" id="Capa_1" xmlns="http://www.w3.org/2000/svg" xmlns:xlink="http://www.w3.org/1999/xlink" x="0px" y="0px"
	 width="12.684px" height="15px" viewBox="0 0 12.684 15" style="enable-background:new 0 0 12.684 15;" xml:space="preserve">
<path style="fill:#010002;" d="M12.684,8.788V15H8.303v-1.127H4.326V15H0V8.788H12.684z M9.95,7.646
	C9.777,6.862,9.386,6.208,8.77,5.681c-0.597-0.514-1.304-0.81-2.123-0.889H6.588V2.71c0.051-0.009,0.109-0.016,0.187-0.044
	c0.108-0.039,0.225-0.084,0.36-0.133C7.268,2.486,7.396,2.447,7.521,2.42c0.123-0.03,0.212-0.043,0.271-0.043
	c0.113,0,0.259,0.019,0.428,0.057c0.172,0.043,0.355,0.09,0.541,0.143c0.193,0.061,0.367,0.106,0.534,0.146
	c0.16,0.038,0.3,0.054,0.411,0.054c0.177,0,0.365-0.025,0.575-0.081V0.432c-0.174,0.074-0.362,0.115-0.575,0.115
	c-0.111,0-0.251-0.018-0.411-0.06C9.128,0.454,8.954,0.402,8.761,0.345c-0.186-0.059-0.362-0.103-0.524-0.14
	c-0.164-0.04-0.3-0.06-0.415-0.06c-0.385,0-0.796,0.094-1.233,0.268V0H6.052v4.792H6.021C5.208,4.871,4.496,5.167,3.899,5.681
	C3.295,6.208,2.902,6.862,2.717,7.646c0,0-0.579-0.097-0.579,0.55h8.446C10.584,7.621,9.95,7.646,9.95,7.646z"/>
<g>
</g>
<g>
</g>
<g>
</g>
<g>
</g>
<g>
</g>
<g>
</g>
<g>
</g>
<g>
</g>
<g>
</g>
<g>
</g>
<g>
</g>
<g>
</g>
<g>
</g>
<g>
</g>
<g>
</g>
</svg>
