<?xml version="1.0" encoding="iso-8859-1"?>
<!-- Generator: Adobe Illustrator 16.0.4, SVG Export Plug-In . SVG Version: 6.00 Build 0)  -->
<!DOCTYPE svg PUBLIC "-//W3C//DTD SVG 1.1//EN" "http://www.w3.org/Graphics/SVG/1.1/DTD/svg11.dtd">
<svg version="1.1" id="Capa_1" xmlns="http://www.w3.org/2000/svg" xmlns:xlink="http://www.w3.org/1999/xlink" x="0px" y="0px"
	 width="20px" height="20px" viewBox="0 0 20 20" style="enable-background:new 0 0 20 20;" xml:space="preserve">
<path style="fill:#010002;" d="M16,0H4C1.8,0,0,1.8,0,4v12c0,2.2,1.8,4,4,4h12c2.2,0,4-1.8,4-4V4C20,1.8,18.2,0,16,0z M10.625,2.5
	c0.397,0,0.719,0.322,0.719,0.72s-0.321,0.72-0.719,0.72c-0.399,0-0.723-0.322-0.723-0.72S10.226,2.5,10.625,2.5z M8.635,6.991
	c0,0,0.62-1.939,0.797-2.301c0.177-0.361,0.451-0.58,1.123-0.58h0.138c0.673,0,0.946,0.219,1.123,0.58
	c0.177,0.362,0.797,2.301,0.797,2.301c0.037,0.087-0.004,0.187-0.091,0.224c-0.085,0.037-0.186-0.005-0.222-0.091l-0.88-1.949
	l-0.049,1.567H11.37l0.14,3.941c0.01,0.155-0.106,0.291-0.263,0.302c-0.007,0-0.013,0-0.021,0c-0.147,0-0.272-0.113-0.281-0.262
	l-0.322-3.048l-0.32,3.048c-0.011,0.149-0.136,0.262-0.283,0.262c-0.006,0-0.013,0-0.021,0c-0.155-0.011-0.272-0.146-0.262-0.302
	l0.138-3.941L9.827,5.175L8.946,7.124C8.91,7.209,8.812,7.251,8.725,7.214C8.639,7.177,8.599,7.078,8.635,6.991z M8.251,10.761
	c0.004,0.015,0,0.095-0.002,0.099c-0.023,0.072-0.091,0.125-0.17,0.125c-0.077,0-0.141-0.047-0.168-0.115
	c0-0.001-0.199-1.384-0.199-1.384s-0.199,1.383-0.199,1.384c-0.025,0.068-0.091,0.115-0.167,0.115c-0.08,0-0.146-0.053-0.17-0.125
	c-0.002-0.004-0.007-0.084-0.002-0.099l0.081-1.7L7.229,8.479c-0.021-0.199-0.026-0.14-0.252-0.274
	C6.747,8.065,6.354,7.458,6.335,7.429C6.316,7.398,6.279,7.345,6.273,7.311C6.262,7.249,6.302,7.191,6.362,7.18
	c0.047-0.009,0.085,0.017,0.113,0.047c0.031,0.033,0.482,0.634,0.82,0.691c0.077-0.011,0.158-0.051,0.373-0.051h0.086
	c0.215,0,0.297,0.04,0.373,0.051c0.338-0.058,0.789-0.659,0.82-0.691C8.977,7.196,9.016,7.171,9.062,7.18
	c0.061,0.011,0.101,0.069,0.09,0.131C9.145,7.345,9.107,7.398,9.09,7.429C9.07,7.458,8.679,8.065,8.447,8.204
	C8.222,8.338,8.219,8.279,8.194,8.479L8.169,9.062L8.251,10.761z M7.712,6.881c0.244,0,0.443,0.197,0.443,0.443
	c0,0.243-0.199,0.44-0.443,0.44c-0.245,0-0.443-0.197-0.443-0.44C7.269,7.078,7.467,6.881,7.712,6.881z M4.801,2.502
	c0.398,0,0.722,0.322,0.722,0.72c0,0.397-0.323,0.72-0.722,0.72S4.08,3.62,4.08,3.222C4.08,2.824,4.402,2.502,4.801,2.502z
	 M5.515,8.158L5.37,10.816c0,0.093-0.075,0.169-0.169,0.169c-0.093,0-0.169-0.076-0.169-0.169L4.877,8.158H4.716L4.57,10.816
	c0,0.093-0.075,0.169-0.17,0.169c-0.093,0-0.169-0.076-0.169-0.169L4.086,8.158h-0.47l0.487-2.982l-0.979,1.95
	C3.088,7.211,2.988,7.252,2.902,7.216C2.816,7.179,2.776,7.08,2.812,6.994c0,0,0.719-1.94,0.896-2.302
	c0.176-0.361,0.353-0.581,1.023-0.581H4.87c0.673,0,0.848,0.219,1.023,0.581c0.179,0.362,0.896,2.302,0.896,2.302
	C6.826,7.08,6.785,7.179,6.7,7.216C6.613,7.252,6.515,7.211,6.478,7.125l-0.979-1.95l0.486,2.982H5.515z M16.797,12.37l-1.405-0.988
	l-3.351,4.767l-2.647-1.995l-2.297,3.114C6.985,17.42,6.812,17.5,6.638,17.5c-0.118,0-0.236-0.036-0.338-0.111
	c-0.254-0.188-0.308-0.544-0.121-0.798l2.98-4.042l2.627,1.979l2.672-3.802l-1.384-0.973l4.127-1.915L16.797,12.37z"/>
<g>
</g>
<g>
</g>
<g>
</g>
<g>
</g>
<g>
</g>
<g>
</g>
<g>
</g>
<g>
</g>
<g>
</g>
<g>
</g>
<g>
</g>
<g>
</g>
<g>
</g>
<g>
</g>
<g>
</g>
</svg>
