<?xml version="1.0" encoding="iso-8859-1"?>
<!-- Generator: Adobe Illustrator 16.0.4, SVG Export Plug-In . SVG Version: 6.00 Build 0)  -->
<!DOCTYPE svg PUBLIC "-//W3C//DTD SVG 1.1//EN" "http://www.w3.org/Graphics/SVG/1.1/DTD/svg11.dtd">
<svg version="1.1" id="Capa_1" xmlns="http://www.w3.org/2000/svg" xmlns:xlink="http://www.w3.org/1999/xlink" x="0px" y="0px"
	 width="20px" height="20px" viewBox="0 0 20 20" style="enable-background:new 0 0 20 20;" xml:space="preserve">
<path style="fill:#010002;" d="M8.651,9.397c0.576,0.281,0.933,0.695,0.933,1.233v6.08c0-0.286-2.512-1.959-5.414-0.134V9.813
	C4.495,9.926,4.838,10,5.199,10h1.602C7.49,10,8.127,9.773,8.651,9.397z M9.6,5.199v1.602C9.6,8.344,8.344,9.6,6.801,9.6H5.199
	C3.656,9.6,2.4,8.344,2.4,6.801V5.199C2.4,3.656,3.656,2.4,5.199,2.4h1.602C8.344,2.4,9.6,3.656,9.6,5.199z M8.754,4.836
	L8.047,4.129L5.366,6.811L3.953,5.398L3.246,6.105l2.12,2.119L8.754,4.836z M15.87,16.577V9.499c-0.573-0.331-1.347-0.532-2.2-0.532
	c-1.773,0-3.212,0.582-3.212,1.664v6.08C10.458,16.425,12.97,14.752,15.87,16.577z M20,4v12c0,2.2-1.8,4-4,4H4c-2.2,0-4-1.8-4-4V4
	c0-2.2,1.8-4,4-4h12C18.2,0,20,1.8,20,4z M17.5,6.232l-7.49-3.724L10.007,2.5L10,2.504L9.993,2.5L9.99,2.509L9.078,2.962
	C8.497,2.37,7.69,2,6.801,2H5.199C3.44,2,2,3.44,2,5.199v1.602C2,7.935,2.604,8.93,3.5,9.498c0,0.141,0,0.296,0,0.474v7.26h5.353
	c0.183,0.156,0.619,0.269,1.13,0.269c0.513,0,0.948-0.112,1.133-0.269H16.5v-7.26c0-0.645,0-1.065,0-1.09
	c-3.388-1.492-6.094,0.087-6.436,0.402C9.945,9.171,9.674,8.982,9.278,8.796C9.723,8.246,10,7.558,10,6.801V5.199
	c0-0.364-0.074-0.709-0.188-1.035L10,4.07l6.876,3.418L17.5,6.232z"/>
<g>
</g>
<g>
</g>
<g>
</g>
<g>
</g>
<g>
</g>
<g>
</g>
<g>
</g>
<g>
</g>
<g>
</g>
<g>
</g>
<g>
</g>
<g>
</g>
<g>
</g>
<g>
</g>
<g>
</g>
</svg>
