<?xml version="1.0" encoding="iso-8859-1"?>
<!-- Generator: Adobe Illustrator 16.0.4, SVG Export Plug-In . SVG Version: 6.00 Build 0)  -->
<!DOCTYPE svg PUBLIC "-//W3C//DTD SVG 1.1//EN" "http://www.w3.org/Graphics/SVG/1.1/DTD/svg11.dtd">
<svg version="1.1" id="Capa_1" xmlns="http://www.w3.org/2000/svg" xmlns:xlink="http://www.w3.org/1999/xlink" x="0px" y="0px"
	 width="9.189px" height="15px" viewBox="0 0 9.189 15" style="enable-background:new 0 0 9.189 15;" xml:space="preserve">
<path style="fill:#010002;" d="M0.082,6.066h8.879L7.068,15H1.83L0.115,6.253L0.082,6.066z M4.596,0C2.057,0,0,2.057,0,4.596
	c0,0.266,0.215,0.479,0.479,0.479c0.268,0,0.48-0.213,0.48-0.479c0.002-2.007,1.625-3.635,3.637-3.638
	C6.6,0.961,8.229,2.589,8.232,4.596c0,0.266,0.211,0.479,0.477,0.479c0.264,0,0.48-0.213,0.48-0.479C9.189,2.057,7.133,0,4.596,0z"
	/>
<g>
</g>
<g>
</g>
<g>
</g>
<g>
</g>
<g>
</g>
<g>
</g>
<g>
</g>
<g>
</g>
<g>
</g>
<g>
</g>
<g>
</g>
<g>
</g>
<g>
</g>
<g>
</g>
<g>
</g>
</svg>
