<?xml version="1.0" encoding="iso-8859-1"?>
<!-- Generator: Adobe Illustrator 16.0.4, SVG Export Plug-In . SVG Version: 6.00 Build 0)  -->
<!DOCTYPE svg PUBLIC "-//W3C//DTD SVG 1.1//EN" "http://www.w3.org/Graphics/SVG/1.1/DTD/svg11.dtd">
<svg version="1.1" id="Capa_1" xmlns="http://www.w3.org/2000/svg" xmlns:xlink="http://www.w3.org/1999/xlink" x="0px" y="0px"
	 width="20px" height="20px" viewBox="0 0 20 20" style="enable-background:new 0 0 20 20;" xml:space="preserve">
<path style="fill:#010002;" d="M16,0H4C1.8,0,0,1.8,0,4v12c0,2.2,1.8,4,4,4h12c2.2,0,4-1.8,4-4V4C20,1.8,18.2,0,16,0z M12.474,17.5
	H7.235L5.521,8.753L5.487,8.566h8.879L12.474,17.5z M14.114,7.574c-0.266,0-0.477-0.213-0.477-0.479
	c-0.004-2.007-1.633-3.635-3.637-3.638C7.989,3.461,6.366,5.089,6.364,7.096c0,0.266-0.213,0.479-0.48,0.479
	c-0.264,0-0.479-0.213-0.479-0.479c0-2.539,2.057-4.596,4.596-4.596c2.537,0,4.594,2.057,4.594,4.596
	C14.595,7.361,14.378,7.574,14.114,7.574z"/>
<g>
</g>
<g>
</g>
<g>
</g>
<g>
</g>
<g>
</g>
<g>
</g>
<g>
</g>
<g>
</g>
<g>
</g>
<g>
</g>
<g>
</g>
<g>
</g>
<g>
</g>
<g>
</g>
<g>
</g>
</svg>
