<?xml version="1.0" encoding="iso-8859-1"?>
<!-- Generator: Adobe Illustrator 16.0.4, SVG Export Plug-In . SVG Version: 6.00 Build 0)  -->
<!DOCTYPE svg PUBLIC "-//W3C//DTD SVG 1.1//EN" "http://www.w3.org/Graphics/SVG/1.1/DTD/svg11.dtd">
<svg version="1.1" id="Capa_1" xmlns="http://www.w3.org/2000/svg" xmlns:xlink="http://www.w3.org/1999/xlink" x="0px" y="0px"
	 width="14.999px" height="15px" viewBox="0 0 14.999 15" style="enable-background:new 0 0 14.999 15;" xml:space="preserve">
<path style="fill:#010002;" d="M6.91,3.71l2.032,2.033l-6.23,6.23c-0.876-1.538-0.133-3.293,1.002-4.841L2.997,7.012L1.582,8.482
	L0.354,8.649C0.253,8.664,0.157,8.627,0.091,8.562C0.044,8.515,0.012,8.453,0.003,8.383c-0.024-0.171,0.096-0.327,0.266-0.351
	l1.016-0.139L2.971,6.15l1.67-0.156c0.188-0.211,0.375-0.415,0.563-0.61L4.53,4.519L3.294,5.342L2.048,5.48
	c-0.097,0.011-0.189-0.025-0.254-0.09c-0.049-0.049-0.081-0.113-0.09-0.186C1.686,5.033,1.809,4.88,1.98,4.86l1.165-0.13
	l1.474-1.038l1.183,1.084c0.096-0.095,0.188-0.184,0.28-0.271l0.205-1.446l1.714-1.714l0.258-1.104
	c0.038-0.168,0.207-0.272,0.374-0.232c0.168,0.039,0.271,0.207,0.232,0.374L8.568,1.66L7.024,3.203L6.91,3.71z M10.139,13.021
	l0.131-1.166l1.038-1.474l-1.085-1.183c0.096-0.096,0.184-0.188,0.272-0.28l1.446-0.205l1.714-1.715l1.104-0.257
	c0.167-0.039,0.271-0.207,0.232-0.374c-0.039-0.168-0.207-0.271-0.375-0.232L13.34,6.432l-1.543,1.544L11.289,8.09L9.257,6.058
	l-6.118,6.118c1.519,0.865,3.222,0.181,4.726-0.901l0.123,0.729l-1.47,1.415l-0.167,1.228c-0.015,0.102,0.022,0.197,0.088,0.264
	c0.047,0.047,0.108,0.078,0.179,0.088c0.17,0.023,0.327-0.096,0.351-0.267l0.138-1.015l1.744-1.687l0.156-1.673
	c0.211-0.188,0.414-0.374,0.609-0.561l0.866,0.674l-0.823,1.235L9.52,12.951c-0.011,0.098,0.024,0.19,0.09,0.255
	c0.049,0.049,0.112,0.081,0.185,0.089C9.967,13.314,10.12,13.19,10.139,13.021z M7.263,3.406l2.034,2.035l1.085-2.938
	C9.366,2.299,8.204,2.611,7.263,3.406z M11.776,3.224C11.5,2.946,11.17,2.751,10.813,2.62L9.897,5.103l2.482-0.916
	C12.249,3.83,12.054,3.5,11.776,3.224z M12.496,4.618L9.559,5.702l2.034,2.035C12.389,6.795,12.701,5.633,12.496,4.618z"/>
<g>
</g>
<g>
</g>
<g>
</g>
<g>
</g>
<g>
</g>
<g>
</g>
<g>
</g>
<g>
</g>
<g>
</g>
<g>
</g>
<g>
</g>
<g>
</g>
<g>
</g>
<g>
</g>
<g>
</g>
</svg>
