<?xml version="1.0" encoding="iso-8859-1"?>
<!-- Generator: Adobe Illustrator 16.0.4, SVG Export Plug-In . SVG Version: 6.00 Build 0)  -->
<!DOCTYPE svg PUBLIC "-//W3C//DTD SVG 1.1//EN" "http://www.w3.org/Graphics/SVG/1.1/DTD/svg11.dtd">
<svg version="1.1" id="Capa_1" xmlns="http://www.w3.org/2000/svg" xmlns:xlink="http://www.w3.org/1999/xlink" x="0px" y="0px"
	 width="15px" height="10.914px" viewBox="0 0 15 10.914" style="enable-background:new 0 0 15 10.914;" xml:space="preserve">
<path style="fill:#010002;" d="M9.973,3.459L5.202,1.088L0.432,3.459L0,2.59l5.197-2.584V0h0.005h0.005v0.006l5.197,2.584
	L9.973,3.459z M3.831,10.395V7.363h2.742v3.031h1.403V3.459H6.573v2.729H3.831V3.459H2.428v6.936H3.831z M14.518,0.756
	c-0.095,0-0.213-0.016-0.346-0.049c-0.142-0.029-0.286-0.072-0.449-0.121c-0.157-0.049-0.306-0.086-0.441-0.117
	c-0.138-0.033-0.251-0.051-0.349-0.051c-0.324,0-0.67,0.08-1.037,0.225V0.297h-0.45v10.617h0.45v-8.34
	c0.043-0.006,0.091-0.012,0.156-0.035c0.091-0.035,0.189-0.072,0.304-0.113c0.111-0.039,0.219-0.07,0.324-0.094
	c0.104-0.025,0.18-0.037,0.228-0.037c0.095,0,0.217,0.016,0.36,0.047c0.144,0.037,0.298,0.076,0.455,0.121
	c0.163,0.051,0.308,0.088,0.449,0.123c0.133,0.031,0.251,0.043,0.346,0.043c0.147,0,0.306-0.02,0.482-0.066V0.66
	C14.854,0.723,14.696,0.756,14.518,0.756z"/>
<g>
</g>
<g>
</g>
<g>
</g>
<g>
</g>
<g>
</g>
<g>
</g>
<g>
</g>
<g>
</g>
<g>
</g>
<g>
</g>
<g>
</g>
<g>
</g>
<g>
</g>
<g>
</g>
<g>
</g>
</svg>
