<?xml version="1.0" encoding="iso-8859-1"?>
<!-- Generator: Adobe Illustrator 16.0.4, SVG Export Plug-In . SVG Version: 6.00 Build 0)  -->
<!DOCTYPE svg PUBLIC "-//W3C//DTD SVG 1.1//EN" "http://www.w3.org/Graphics/SVG/1.1/DTD/svg11.dtd">
<svg version="1.1" id="Capa_1" xmlns="http://www.w3.org/2000/svg" xmlns:xlink="http://www.w3.org/1999/xlink" x="0px" y="0px"
	 width="15px" height="10.205px" viewBox="0 0 15 10.205" style="enable-background:new 0 0 15 10.205;" xml:space="preserve">
<path style="fill:#010002;" d="M15,0.35v1.828c-0.17,0.045-0.322,0.065-0.464,0.065c-0.091,0-0.204-0.013-0.332-0.043
	c-0.136-0.032-0.275-0.069-0.432-0.118c-0.151-0.042-0.3-0.08-0.438-0.115c-0.138-0.03-0.255-0.046-0.347-0.046
	c-0.046,0-0.119,0.011-0.219,0.035c-0.101,0.022-0.204,0.054-0.312,0.092c-0.109,0.039-0.204,0.075-0.292,0.107
	c-0.062,0.022-0.108,0.028-0.149,0.035v8.015h-0.434V0h0.434v0.334c0.353-0.141,0.685-0.216,0.996-0.216
	c0.094,0,0.203,0.016,0.335,0.048c0.131,0.03,0.273,0.065,0.425,0.113c0.156,0.046,0.296,0.088,0.432,0.115
	c0.128,0.033,0.241,0.048,0.332,0.048C14.708,0.442,14.86,0.409,15,0.35z M0,5.103v5.02h3.496v-0.91H6.71v0.91h3.54v-5.02H0z
	 M4.865,1.873C4.209,1.937,3.634,2.176,3.151,2.591C2.663,3.018,2.346,3.546,2.195,4.18c0,0-0.468-0.078-0.468,0.444h6.826
	c0-0.465-0.513-0.444-0.513-0.444c-0.14-0.634-0.456-1.162-0.954-1.589C6.604,2.176,6.033,1.937,5.371,1.873H4.865z"/>
<g>
</g>
<g>
</g>
<g>
</g>
<g>
</g>
<g>
</g>
<g>
</g>
<g>
</g>
<g>
</g>
<g>
</g>
<g>
</g>
<g>
</g>
<g>
</g>
<g>
</g>
<g>
</g>
<g>
</g>
</svg>
