<?xml version="1.0" encoding="iso-8859-1"?>
<!-- Generator: Adobe Illustrator 16.0.4, SVG Export Plug-In . SVG Version: 6.00 Build 0)  -->
<!DOCTYPE svg PUBLIC "-//W3C//DTD SVG 1.1//EN" "http://www.w3.org/Graphics/SVG/1.1/DTD/svg11.dtd">
<svg version="1.1" id="Capa_1" xmlns="http://www.w3.org/2000/svg" xmlns:xlink="http://www.w3.org/1999/xlink" x="0px" y="0px"
	 width="20px" height="20px" viewBox="0 0 20 20" style="enable-background:new 0 0 20 20;" xml:space="preserve">
<path style="fill:#010002;" d="M14,12.25h-2v-3h2V12.25z M20,4v12c0,2.2-1.8,4-4,4H4c-2.2,0-4-1.8-4-4V4c0-2.2,1.8-4,4-4h12
	C18.2,0,20,1.8,20,4z M15,2.75H8.497c-0.494-0.312-1.073-0.5-1.696-0.5H5.199C3.44,2.25,2,3.69,2,5.449v1.602
	c0,1.69,1.335,3.073,3,3.179v7.521h4v-3h2v3h4V2.75z M10,7.051c0,0.068-0.016,0.132-0.021,0.199H11v-3H9.761
	C9.912,4.621,10,5.025,10,5.449V7.051z M14,4.25h-2v3h2V4.25z M6,10.25v2h2v-2.239c-0.371,0.151-0.775,0.239-1.199,0.239H6z
	 M9,9.359v2.891h2v-3H9.109C9.073,9.287,9.037,9.324,9,9.359z M6.801,2.65C8.344,2.65,9.6,3.906,9.6,5.449v1.602
	c0,1.543-1.256,2.799-2.799,2.799H5.199C3.656,9.85,2.4,8.594,2.4,7.051V5.449c0-1.543,1.256-2.799,2.799-2.799H6.801z M3.199,5.751
	v1h5.602v-1H3.199z"/>
<g>
</g>
<g>
</g>
<g>
</g>
<g>
</g>
<g>
</g>
<g>
</g>
<g>
</g>
<g>
</g>
<g>
</g>
<g>
</g>
<g>
</g>
<g>
</g>
<g>
</g>
<g>
</g>
<g>
</g>
</svg>
