<?xml version="1.0" encoding="iso-8859-1"?>
<!-- Generator: Adobe Illustrator 16.0.4, SVG Export Plug-In . SVG Version: 6.00 Build 0)  -->
<!DOCTYPE svg PUBLIC "-//W3C//DTD SVG 1.1//EN" "http://www.w3.org/Graphics/SVG/1.1/DTD/svg11.dtd">
<svg version="1.1" id="Capa_1" xmlns="http://www.w3.org/2000/svg" xmlns:xlink="http://www.w3.org/1999/xlink" x="0px" y="0px"
	 width="10.381px" height="15px" viewBox="0 0 10.381 15" style="enable-background:new 0 0 10.381 15;" xml:space="preserve">
<path style="fill:#010002;" d="M8.357,0h-6.33C0.91,0,0,0.569,0,2.023v10.949C0,14.638,0.91,15,2.027,15h6.33
	c1.115,0,2.023-0.295,2.023-2.027V2.023C10.381,0.525,9.473,0,8.357,0z M8.113,3.298c0,0.331-0.355,0.597-0.789,0.597H3.059
	c-0.434,0-0.789-0.266-0.789-0.597V1.434c0-0.331,0.355-0.597,0.789-0.597h4.266c0.434,0,0.789,0.266,0.789,0.597V3.298z"/>
<g>
</g>
<g>
</g>
<g>
</g>
<g>
</g>
<g>
</g>
<g>
</g>
<g>
</g>
<g>
</g>
<g>
</g>
<g>
</g>
<g>
</g>
<g>
</g>
<g>
</g>
<g>
</g>
<g>
</g>
</svg>
