<?xml version="1.0" encoding="iso-8859-1"?>
<!-- Generator: Adobe Illustrator 16.0.4, SVG Export Plug-In . SVG Version: 6.00 Build 0)  -->
<!DOCTYPE svg PUBLIC "-//W3C//DTD SVG 1.1//EN" "http://www.w3.org/Graphics/SVG/1.1/DTD/svg11.dtd">
<svg version="1.1" id="Capa_1" xmlns="http://www.w3.org/2000/svg" xmlns:xlink="http://www.w3.org/1999/xlink" x="0px" y="0px"
	 width="15px" height="11.861px" viewBox="0 0 15 11.861" style="enable-background:new 0 0 15 11.861;" xml:space="preserve">
<path style="fill:#010002;" d="M3.375,6.131v5.098l-0.247,0.315L0,11.861V5.654l3.128,0.191L3.375,6.131z M11.429,4.61l1.71,0.267
	h1.667c0,0,0.175-0.368,0.193-1.229s-0.193-1.271-0.193-1.271h-1.7l-1.582,0.648H9.925V0.74h-2.05V0.598
	C7.733,0.018,6.941,0,6.842,0H6.841L0.844,0.116c-0.032,0-0.771,0.01-0.812,0.93v0.287c0.04,0.913,0.777,0.925,0.811,0.925
	l5.999,0.117h0.006c0.091,0,0.886-0.017,1.03-0.631V1.633h0.617v1.393h-0.14l-1.328,3.39H6.711v4.434v0.153v0.542h5.383l0.538-0.695
	h1.484c0,0,0.443-0.633,0.475-2.169c0.03-1.536-0.475-2.265-0.475-2.265H9.655V4.61H11.429z M6.41,6.604v4.085H5.768l-0.669,0.539
	H3.676V6.131h1.423l0.669,0.474H6.41z M3.732,7.05c0,0.072,0.059,0.131,0.131,0.131h1.204l0.599,0.3
	c0.019,0.01,0.039,0.014,0.059,0.014c0.048,0,0.095-0.026,0.117-0.072c0.032-0.064,0.007-0.144-0.059-0.176L5.157,6.933
	C5.14,6.923,5.119,6.919,5.099,6.919H3.863C3.791,6.919,3.732,6.978,3.732,7.05z M3.732,7.814c0,0.072,0.059,0.131,0.131,0.131
	h1.216l0.608,0.181C5.7,8.13,5.712,8.131,5.725,8.131c0.057,0,0.109-0.036,0.126-0.094c0.021-0.069-0.02-0.143-0.089-0.163
	L5.136,7.688C5.124,7.685,5.111,7.684,5.099,7.684H3.863C3.791,7.684,3.732,7.742,3.732,7.814z M5.839,9.847
	c-0.036-0.062-0.117-0.085-0.18-0.049l-0.596,0.34h-1.2c-0.072,0-0.131,0.059-0.131,0.131s0.059,0.131,0.131,0.131h1.235
	c0.022,0,0.045-0.006,0.065-0.017l0.626-0.356C5.853,9.99,5.875,9.91,5.839,9.847z M5.853,9.214C5.838,9.144,5.767,9.09,5.697,9.113
	L5.099,9.244H3.863c-0.072,0-0.131,0.059-0.131,0.131s0.059,0.131,0.131,0.131l1.263-0.003l0.626-0.134
	C5.823,9.354,5.868,9.285,5.853,9.214z M5.855,8.637c0-0.072-0.059-0.131-0.131-0.131H3.863c-0.072,0-0.131,0.059-0.131,0.131
	s0.059,0.131,0.131,0.131h1.861C5.797,8.768,5.855,8.709,5.855,8.637z"/>
<g>
</g>
<g>
</g>
<g>
</g>
<g>
</g>
<g>
</g>
<g>
</g>
<g>
</g>
<g>
</g>
<g>
</g>
<g>
</g>
<g>
</g>
<g>
</g>
<g>
</g>
<g>
</g>
<g>
</g>
</svg>
