<?xml version="1.0" encoding="iso-8859-1"?>
<!-- Generator: Adobe Illustrator 16.0.4, SVG Export Plug-In . SVG Version: 6.00 Build 0)  -->
<!DOCTYPE svg PUBLIC "-//W3C//DTD SVG 1.1//EN" "http://www.w3.org/Graphics/SVG/1.1/DTD/svg11.dtd">
<svg version="1.1" id="Capa_1" xmlns="http://www.w3.org/2000/svg" xmlns:xlink="http://www.w3.org/1999/xlink" x="0px" y="0px"
	 width="20px" height="20.001px" viewBox="0 0 20 20.001" style="enable-background:new 0 0 20 20.001;" xml:space="preserve">
<path style="fill:#010002;" d="M10.002,10.184c-1.807,0-3.271,1.463-3.271,3.268c0,1.807,1.465,3.27,3.271,3.271
	c1.805,0,3.268-1.465,3.268-3.271C13.27,11.646,11.807,10.184,10.002,10.184z M10.002,16.141c-1.486,0-2.691-1.203-2.691-2.689
	c0-1.484,1.205-2.688,2.691-2.688c1.482,0,2.688,1.203,2.688,2.688C12.689,14.938,11.484,16.141,10.002,16.141z M16,0H4
	C1.8,0,0,1.8,0,4v12.001c0,2.2,1.8,4,4,4h12c2.2,0,4-1.8,4-4V4C20,1.8,18.2,0,16,0z M6.613,2.775c0-0.152,0.125-0.275,0.277-0.275
	h6.219c0.152,0,0.277,0.123,0.277,0.275v3.176c0,0.152-0.125,0.275-0.277,0.275h-0.721c0,0.006,0.008,0.01,0.008,0.016L12.107,9.1
	c0,0.137-0.109,0.248-0.248,0.248H8.141c-0.135,0-0.25-0.111-0.25-0.248L7.604,6.242c0-0.006,0.008-0.01,0.008-0.016H6.891
	c-0.152,0-0.277-0.123-0.277-0.275V2.775z M16.248,16.408c0,0.605-0.488,1.092-1.092,1.092H4.844c-0.604,0-1.092-0.486-1.092-1.092
	v-5.73c0-0.602,0.488-1.09,1.092-1.09H5.41c0.051-0.139,0.283-0.246,0.576-0.246s0.525,0.107,0.576,0.246h8.594
	c0.604,0,1.092,0.488,1.092,1.09V16.408z M7.029,5.703V3.021c0-0.127,0.102-0.232,0.232-0.232h5.477
	c0.129,0,0.232,0.105,0.232,0.232v2.682c0,0.129-0.104,0.234-0.232,0.234H7.262C7.131,5.938,7.029,5.832,7.029,5.703z"/>
<g>
</g>
<g>
</g>
<g>
</g>
<g>
</g>
<g>
</g>
<g>
</g>
<g>
</g>
<g>
</g>
<g>
</g>
<g>
</g>
<g>
</g>
<g>
</g>
<g>
</g>
<g>
</g>
<g>
</g>
</svg>
