<?xml version="1.0" encoding="iso-8859-1"?>
<!-- Generator: Adobe Illustrator 16.0.4, SVG Export Plug-In . SVG Version: 6.00 Build 0)  -->
<!DOCTYPE svg PUBLIC "-//W3C//DTD SVG 1.1//EN" "http://www.w3.org/Graphics/SVG/1.1/DTD/svg11.dtd">
<svg version="1.1" id="Capa_1" xmlns="http://www.w3.org/2000/svg" xmlns:xlink="http://www.w3.org/1999/xlink" x="0px" y="0px"
	 width="20px" height="20px" viewBox="0 0 20 20" style="enable-background:new 0 0 20 20;" xml:space="preserve">
<path style="fill:#010002;" d="M12.557,5.854c0.286,0.427,0.476,0.892,0.576,1.397c-0.096-0.025-0.172-0.042-0.228-0.042
	c-0.095,0-0.208,0.052-0.34,0.156C12.433,7.262,12.31,7.21,12.192,7.21c-0.114,0-0.237,0.052-0.375,0.156
	c-0.126-0.104-0.236-0.156-0.331-0.156c-0.057,0-0.134,0.017-0.234,0.042l-0.019-0.062c0.188-0.107,0.296-0.27,0.323-0.488
	c0.311-0.038,0.482-0.215,0.515-0.527C12.292,6.15,12.454,6.045,12.557,5.854z M10.704,7.729c0-0.193-0.068-0.359-0.207-0.494
	C10.36,7.103,10.195,7.032,10,7.032s-0.359,0.07-0.497,0.203C9.366,7.37,9.297,7.536,9.297,7.729c0,0.195,0.069,0.362,0.206,0.499
	C9.641,8.366,9.805,8.433,10,8.433s0.36-0.066,0.497-0.204C10.636,8.092,10.704,7.925,10.704,7.729z M12.565,8.108
	c-0.133,0.098-0.254,0.147-0.367,0.147c-0.116,0-0.243-0.05-0.381-0.147c-0.126,0.098-0.236,0.147-0.331,0.147
	c-0.057,0-0.134-0.009-0.234-0.033l-0.019,0.056c0.188,0.109,0.296,0.271,0.323,0.485c0.311,0.037,0.482,0.211,0.515,0.525
	c0.221,0.024,0.383,0.129,0.485,0.317c0.286-0.422,0.476-0.885,0.576-1.384c-0.096,0.027-0.172,0.04-0.228,0.04
	C12.811,8.263,12.697,8.211,12.565,8.108z M9.474,9.218c0-0.055,0.011-0.134,0.035-0.233L9.452,8.964
	C9.349,9.153,9.187,9.258,8.973,9.282C8.931,9.595,8.755,9.77,8.45,9.807c-0.032,0.222-0.14,0.381-0.323,0.486
	c0.423,0.284,0.884,0.476,1.382,0.573c-0.024-0.095-0.035-0.169-0.035-0.228c0-0.098,0.05-0.212,0.149-0.338
	c-0.1-0.131-0.149-0.259-0.149-0.375c0-0.119,0.05-0.24,0.149-0.367C9.523,9.425,9.474,9.313,9.474,9.218z M8.77,8.278L8.747,8.213
	c-0.1,0.028-0.177,0.043-0.232,0.043c-0.094,0-0.207-0.052-0.339-0.154C8.05,8.204,7.925,8.256,7.809,8.256
	c-0.117,0-0.241-0.052-0.375-0.154C7.308,8.204,7.194,8.256,7.095,8.256c-0.056,0-0.136-0.009-0.233-0.033
	c0.104,0.499,0.296,0.962,0.581,1.384c0.104-0.188,0.267-0.299,0.488-0.324c0.03-0.315,0.204-0.489,0.52-0.522
	C8.475,8.542,8.58,8.38,8.77,8.278z M20,4v12c0,2.199-1.8,4-4,4H4c-2.2,0-4-1.801-4-4V4c0-2.201,1.8-4,4-4h12C18.2,0,20,1.799,20,4z
	 M13.69,13.884H6.31V17.5h7.381V13.884z M15.237,7.733c0-0.346-0.173-0.518-0.522-0.518c-0.203,0-0.366,0.108-0.488,0.32
	c-0.048-1.015-0.415-1.896-1.101-2.646c0.1,0.023,0.175,0.035,0.226,0.035c0.339,0,0.507-0.174,0.507-0.524S13.684,3.88,13.333,3.88
	c-0.352,0-0.528,0.169-0.528,0.508c0,0.052,0.013,0.126,0.035,0.219c-0.748-0.689-1.628-1.057-2.64-1.103
	c0.218-0.126,0.326-0.288,0.326-0.485C10.526,2.672,10.351,2.5,10,2.5c-0.352,0-0.526,0.172-0.526,0.519
	c0,0.202,0.106,0.364,0.318,0.485c-0.953,0-1.831,0.368-2.633,1.103C7.184,4.51,7.197,4.434,7.197,4.381
	c0-0.335-0.176-0.501-0.528-0.501c-0.352,0-0.525,0.171-0.525,0.521s0.167,0.524,0.504,0.524c0.052,0,0.126-0.012,0.222-0.035
	C6.187,5.654,5.821,6.536,5.774,7.536c-0.117-0.212-0.279-0.32-0.488-0.32c-0.349,0-0.523,0.172-0.523,0.518
	c0,0.349,0.175,0.522,0.523,0.522c0.209,0,0.371-0.106,0.488-0.323c0.047,0.999,0.412,1.879,1.095,2.645
	c-0.096-0.023-0.17-0.036-0.222-0.036c-0.337,0-0.504,0.175-0.504,0.522c0,0.351,0.174,0.522,0.525,0.522
	c0.353,0,0.528-0.162,0.528-0.493c0-0.058-0.014-0.134-0.038-0.234c0.802,0.73,1.68,1.098,2.633,1.098
	c-0.212,0.123-0.318,0.284-0.318,0.489c0,0.348,0.175,0.522,0.526,0.522c0.351,0,0.526-0.175,0.526-0.522
	c0-0.198-0.108-0.363-0.326-0.489c1.012-0.048,1.892-0.41,2.64-1.09c-0.022,0.095-0.035,0.169-0.035,0.219
	c0,0.335,0.177,0.501,0.528,0.501c0.351,0,0.525-0.172,0.525-0.522c0-0.348-0.168-0.522-0.507-0.522
	c-0.051,0-0.126,0.013-0.226,0.036c0.686-0.749,1.053-1.631,1.101-2.645c0.122,0.217,0.285,0.323,0.488,0.323
	C15.064,8.256,15.237,8.082,15.237,7.733z M10.526,6.245c0,0.056-0.013,0.135-0.042,0.231l0.064,0.021
	c0.103-0.19,0.264-0.296,0.479-0.324c0.038-0.312,0.212-0.484,0.521-0.522c0.029-0.21,0.138-0.372,0.326-0.479
	C11.451,4.891,10.987,4.7,10.484,4.6c0.029,0.095,0.042,0.172,0.042,0.234c0,0.09-0.052,0.199-0.155,0.331
	c0.104,0.131,0.155,0.25,0.155,0.359c0,0.127-0.052,0.254-0.155,0.38C10.475,6.038,10.526,6.15,10.526,6.245z M8.45,5.658
	c0.305,0.038,0.48,0.21,0.522,0.522c0.214,0.021,0.376,0.132,0.479,0.325l0.057-0.029C9.484,6.38,9.474,6.301,9.474,6.245
	c0-0.095,0.05-0.207,0.149-0.341c-0.1-0.126-0.149-0.247-0.149-0.364s0.05-0.244,0.149-0.375c-0.1-0.126-0.149-0.239-0.149-0.331
	c0-0.062,0.011-0.14,0.035-0.234C9.011,4.7,8.55,4.891,8.127,5.18C8.311,5.279,8.418,5.437,8.45,5.658z M7.434,7.366
	C7.567,7.262,7.691,7.21,7.809,7.21c0.116,0,0.241,0.052,0.367,0.156C8.303,7.262,8.414,7.21,8.515,7.21
	c0.056,0,0.133,0.017,0.232,0.042L8.77,7.194C8.58,7.085,8.475,6.92,8.45,6.701c-0.315-0.032-0.489-0.205-0.52-0.521
	C7.709,6.152,7.546,6.045,7.442,5.854C7.157,6.281,6.966,6.746,6.861,7.252C6.959,7.227,7.04,7.21,7.103,7.21
	C7.198,7.21,7.308,7.262,7.434,7.366z M11.549,9.812c-0.309-0.036-0.482-0.21-0.521-0.522c-0.216-0.028-0.377-0.136-0.479-0.325
	L10.484,8.99c0.029,0.096,0.042,0.175,0.042,0.234c0,0.09-0.052,0.2-0.155,0.334c0.104,0.127,0.155,0.248,0.155,0.367
	c0,0.123-0.052,0.249-0.155,0.375c0.104,0.131,0.155,0.243,0.155,0.338c0,0.059-0.013,0.133-0.042,0.228
	c0.503-0.098,0.967-0.289,1.391-0.573C11.687,10.184,11.578,10.026,11.549,9.812z"/>
<g>
</g>
<g>
</g>
<g>
</g>
<g>
</g>
<g>
</g>
<g>
</g>
<g>
</g>
<g>
</g>
<g>
</g>
<g>
</g>
<g>
</g>
<g>
</g>
<g>
</g>
<g>
</g>
<g>
</g>
</svg>
