<?xml version="1.0" encoding="iso-8859-1"?>
<!-- Generator: Adobe Illustrator 16.0.4, SVG Export Plug-In . SVG Version: 6.00 Build 0)  -->
<!DOCTYPE svg PUBLIC "-//W3C//DTD SVG 1.1//EN" "http://www.w3.org/Graphics/SVG/1.1/DTD/svg11.dtd">
<svg version="1.1" id="Capa_1" xmlns="http://www.w3.org/2000/svg" xmlns:xlink="http://www.w3.org/1999/xlink" x="0px" y="0px"
	 width="20px" height="20px" viewBox="0 0 20 20" style="enable-background:new 0 0 20 20;" xml:space="preserve">
<path style="fill:#010002;" d="M10,6.539c0-0.119-0.022-0.23-0.035-0.348c0.305,0,0.814,0,0.963,0c0.23,0,0.742,1.064,0.885,1.338
	H10V6.539z M13.062,8.887c-0.268,0-0.488,0.215-0.488,0.488c0,0.268,0.221,0.488,0.488,0.488c0.271,0,0.489-0.221,0.489-0.488
	C13.551,9.102,13.333,8.887,13.062,8.887z M9.6,8.141c0,1.543-1.256,2.799-2.799,2.799H5.199c-1.543,0-2.799-1.256-2.799-2.799
	V6.539c0-1.543,1.256-2.799,2.799-2.799h1.602C8.344,3.74,9.6,4.996,9.6,6.539V8.141z M8.801,6.842H3.199v1h5.602V6.842z M20,4v12
	c0,2.199-1.8,4-4,4H4c-2.2,0-4-1.801-4-4V4c0-2.201,1.8-4,4-4h12C18.2,0,20,1.799,20,4z M17.5,10.281h-4.438
	c0.502,0,0.908-0.408,0.908-0.906c0-0.502-0.406-0.908-0.908-0.908c-0.498,0-0.907,0.406-0.907,0.908
	c0,0.498,0.409,0.906,0.907,0.906H9.184C9.16,10.312,9.593,9.748,9.75,9.375h2.197c0-0.617,0.499-1.119,1.114-1.119
	c0.618,0,1.119,0.502,1.119,1.119H15v-0.68h-0.175c0-0.883-0.552-0.99-0.552-0.99c-0.807-0.111-2.198-0.168-2.198-0.168
	c-0.127-0.223-0.717-1.516-1.06-1.516c-0.045,0-0.555,0-1.068,0C9.696,4.508,8.383,3.34,6.801,3.34H5.199C3.44,3.34,2,4.781,2,6.539
	v1.602c0,0.854,0.343,1.627,0.893,2.201c-0.024-0.02-0.054-0.037-0.076-0.061H2.5v6.377h2.962c-0.01-0.123-0.019-0.248-0.019-0.375
	c0-2.492,2.02-4.512,4.511-4.512s4.511,2.02,4.511,4.512c0,0.127-0.009,0.252-0.019,0.375H17.5V10.281z"/>
<g>
</g>
<g>
</g>
<g>
</g>
<g>
</g>
<g>
</g>
<g>
</g>
<g>
</g>
<g>
</g>
<g>
</g>
<g>
</g>
<g>
</g>
<g>
</g>
<g>
</g>
<g>
</g>
<g>
</g>
</svg>
