<?xml version="1.0" encoding="iso-8859-1"?>
<!-- Generator: Adobe Illustrator 16.0.4, SVG Export Plug-In . SVG Version: 6.00 Build 0)  -->
<!DOCTYPE svg PUBLIC "-//W3C//DTD SVG 1.1//EN" "http://www.w3.org/Graphics/SVG/1.1/DTD/svg11.dtd">
<svg version="1.1" id="Capa_1" xmlns="http://www.w3.org/2000/svg" xmlns:xlink="http://www.w3.org/1999/xlink" x="0px" y="0px"
	 width="15.5px" height="13.318px" viewBox="0 0 15.5 13.318" style="enable-background:new 0 0 15.5 13.318;" xml:space="preserve"
	>
<path style="fill:#010002;" d="M11.062,6.941c-0.498,0-0.907-0.408-0.907-0.906c0-0.502,0.409-0.908,0.907-0.908
	c0.502,0,0.908,0.406,0.908,0.908C11.97,6.533,11.563,6.941,11.062,6.941z M11.551,6.035c0-0.273-0.218-0.488-0.489-0.488
	c-0.268,0-0.488,0.215-0.488,0.488c0,0.268,0.221,0.488,0.488,0.488C11.333,6.523,11.551,6.303,11.551,6.035z M11.062,6.941H7.158
	C7.401,6.674,7.607,6.372,7.75,6.035h2.197c0-0.617,0.499-1.119,1.114-1.119c0.618,0,1.119,0.502,1.119,1.119H13v-0.68h-0.175
	c0-0.883-0.552-0.99-0.552-0.99c-0.807-0.111-2.198-0.168-2.198-0.168c-0.127-0.223-0.717-1.516-1.06-1.516
	c-0.046,0-0.546,0-1.068,0C7.696,1.168,6.383,0,4.801,0H3.199C1.44,0,0,1.44,0,3.199v1.602c0,0.824,0.325,1.571,0.842,2.141H0.5
	v6.377h2.962c-0.01-0.123-0.019-0.248-0.019-0.375c0-2.492,2.02-4.512,4.511-4.512s4.511,2.02,4.511,4.512
	c0,0.127-0.009,0.252-0.019,0.375H15.5V6.941H11.062z M8.928,2.852c0.23,0,0.742,1.064,0.885,1.338L8,4.222V3.199
	C8,3.08,7.978,2.968,7.965,2.852C8.259,2.852,8.773,2.852,8.928,2.852z M0.4,3.199C0.4,1.656,1.656,0.4,3.199,0.4h1.602
	C6.344,0.4,7.6,1.656,7.6,3.199v1.602C7.6,6.344,6.344,7.6,4.801,7.6H3.199C1.656,7.6,0.4,6.344,0.4,4.801V3.199z M2.373,6.334
	L4,4.707l1.627,1.627l0.707-0.707L4.707,4l1.627-1.627L5.627,1.666L4,3.293L2.373,1.666L1.666,2.373L3.293,4L1.666,5.627
	L2.373,6.334z"/>
<g>
</g>
<g>
</g>
<g>
</g>
<g>
</g>
<g>
</g>
<g>
</g>
<g>
</g>
<g>
</g>
<g>
</g>
<g>
</g>
<g>
</g>
<g>
</g>
<g>
</g>
<g>
</g>
<g>
</g>
</svg>
