<?xml version="1.0" encoding="iso-8859-1"?>
<!-- Generator: Adobe Illustrator 16.0.4, SVG Export Plug-In . SVG Version: 6.00 Build 0)  -->
<!DOCTYPE svg PUBLIC "-//W3C//DTD SVG 1.1//EN" "http://www.w3.org/Graphics/SVG/1.1/DTD/svg11.dtd">
<svg version="1.1" id="Capa_1" xmlns="http://www.w3.org/2000/svg" xmlns:xlink="http://www.w3.org/1999/xlink" x="0px" y="0px"
	 width="20px" height="20px" viewBox="0 0 20 20" style="enable-background:new 0 0 20 20;" xml:space="preserve">
<path style="fill:#010002;" d="M16,0H4C1.8,0,0,1.8,0,4v12c0,2.2,1.8,4,4,4h12c2.2,0,4-1.8,4-4V4C20,1.8,18.2,0,16,0z M17.5,16.659
	h-3.054c0.01-0.123,0.019-0.248,0.019-0.375c0-2.492-2.02-4.512-4.511-4.512s-4.511,2.02-4.511,4.512
	c0,0.127,0.009,0.252,0.019,0.375H2.5v-6.377h0.342C2.325,9.713,2,8.966,2,8.142V6.54c0-1.759,1.44-3.199,3.199-3.199h1.602
	c1.582,0,2.896,1.168,3.146,2.682c0.522,0,1.022,0,1.068,0c0.343,0,0.933,1.293,1.06,1.516c0,0,1.392,0.057,2.198,0.168
	c0,0,0.552,0.107,0.552,0.99H15v0.68h-0.819c0-0.617-0.501-1.119-1.119-1.119c-0.615,0-1.114,0.502-1.114,1.119H9.75
	c-0.143,0.337-0.349,0.639-0.592,0.906h3.903c-0.498,0-0.907-0.408-0.907-0.906c0-0.502,0.409-0.908,0.907-0.908
	c0.502,0,0.908,0.406,0.908,0.908c0,0.498-0.406,0.906-0.908,0.906H17.5V16.659z M9.6,6.54c0-1.543-1.256-2.799-2.799-2.799H5.199
	C3.656,3.741,2.4,4.997,2.4,6.54v1.602c0,1.543,1.256,2.799,2.799,2.799h1.602c1.543,0,2.799-1.256,2.799-2.799V6.54z M8.334,8.968
	L7.627,9.675L6,8.048L4.373,9.675L3.666,8.968l1.627-1.627L3.666,5.714l0.707-0.707L6,6.634l1.627-1.627l0.707,0.707L6.707,7.341
	L8.334,8.968z M10,6.54c0-0.119-0.022-0.231-0.035-0.348c0.294,0,0.809,0,0.963,0c0.23,0,0.742,1.064,0.885,1.338L10,7.562V6.54z
	 M13.551,9.376c0,0.268-0.218,0.488-0.489,0.488c-0.268,0-0.488-0.221-0.488-0.488c0-0.273,0.221-0.488,0.488-0.488
	C13.333,8.888,13.551,9.103,13.551,9.376z"/>
<g>
</g>
<g>
</g>
<g>
</g>
<g>
</g>
<g>
</g>
<g>
</g>
<g>
</g>
<g>
</g>
<g>
</g>
<g>
</g>
<g>
</g>
<g>
</g>
<g>
</g>
<g>
</g>
<g>
</g>
</svg>
