<?xml version="1.0" encoding="iso-8859-1"?>
<!-- Generator: Adobe Illustrator 16.0.4, SVG Export Plug-In . SVG Version: 6.00 Build 0)  -->
<!DOCTYPE svg PUBLIC "-//W3C//DTD SVG 1.1//EN" "http://www.w3.org/Graphics/SVG/1.1/DTD/svg11.dtd">
<svg version="1.1" id="Capa_1" xmlns="http://www.w3.org/2000/svg" xmlns:xlink="http://www.w3.org/1999/xlink" x="0px" y="0px"
	 width="20px" height="20px" viewBox="0 0 20 20" style="enable-background:new 0 0 20 20;" xml:space="preserve">
<path style="fill:#010002;" d="M16,0H4C1.8,0,0,1.8,0,4v12c0,2.2,1.8,4,4,4h12c2.2,0,4-1.8,4-4V4C20,1.8,18.2,0,16,0z
	 M16.369,11.833l0.544-0.182l0.239,0.714l-0.471,0.157c-0.2-0.03-0.349-0.093-0.453-0.184L16.369,11.833z M14.086,11.014
	c0.035-0.24,0.126-0.385,0.271-0.435c0.103,0.04,0.205,0.078,0.307,0.113c0.211,0.066,0.327,0.093,0.352,0.085l-0.004-0.013
	c0.13-0.043,0.226,0.034,0.289,0.227c0.058,0.169,0.07,0.344,0.037,0.526c-0.033,0.182-0.099,0.304-0.195,0.362
	c-0.041,0.014-0.193,0.078-0.461,0.194l-0.237,0.013l-0.138-0.129c-0.08-0.082-0.131-0.153-0.152-0.219
	C14.074,11.497,14.051,11.255,14.086,11.014z M13.973,12.745l0.545-0.183l0.238,0.714l-0.471,0.157
	c-0.199-0.029-0.349-0.092-0.452-0.183L13.973,12.745z M13.489,11.502c0.046,0.136-0.007,0.233-0.16,0.284l-0.424,0.141
	l-0.281-0.324c-0.055-0.16,0.016-0.313,0.207-0.46l0.562,0.19C13.443,11.397,13.474,11.455,13.489,11.502z M12.645,9.816
	c0.139-0.045,0.267-0.036,0.391,0.024c0.125,0.062,0.202,0.142,0.235,0.238c0.039,0.12-0.024,0.276-0.193,0.469l-0.645,0.08
	L12.41,9.962C12.495,9.889,12.571,9.841,12.645,9.816z M3.494,6.039L3.003,5.271L2.789,5.409L2.5,4.958l2.277-1.459l0.289,0.45
	L4.852,4.086l0.493,0.768L5.101,5.967l1.411,2.335l1.171-0.752c0,0,1.239,1.832,1.112,2.593c-0.128,0.762-0.519,1.467-0.519,1.467
	s-0.804,0.061-1.55-0.142c-0.745-0.204-1.892-2.092-1.892-2.092l1.176-0.754L4.596,6.28L3.494,6.039z M4.437,16.501l0.135-0.851
	l1.209-0.671l-0.188-1.424l1.604-0.14l0.083-0.741l1.863-0.16l0.107-1.332l0.32-0.426l0.745,0.16l0.086,0.709l1.192-0.075
	l0.075,1.341l1.341,0.522l0.075,1.043c0.115,0.16,0.7-0.096,0.802,0.053c-0.093-0.147,0.104,0.15,0,0
	c-0.131,0.618,0.783,0.723,0.783,0.723l0.179,0.572l0.596,0.692L4.437,16.501z M15.728,15.367c-0.03-0.071-0.174-0.212-0.432-0.423
	c-0.242-0.218-0.367-0.332-0.372-0.345c-0.058-0.174-0.021-0.413,0.107-0.716c0.132-0.318,0.289-0.563,0.479-0.732l0.06-0.02
	c0.402-0.134,0.739-0.049,1.013,0.254c0.168,0.189,0.335,0.531,0.5,1.026c0.021,0.062,0.018,0.125-0.007,0.193
	c-0.026,0.068-0.067,0.136-0.123,0.202c-0.057,0.066-0.125,0.128-0.208,0.182c-0.081,0.053-0.167,0.094-0.255,0.124L15.728,15.367z
	 M17.028,16.319c-0.199-0.03-0.348-0.092-0.452-0.184l0.14-0.505l0.545-0.183l0.239,0.714L17.028,16.319z M4.72,5.915L3.732,5.698
	L3.326,5.064L4.53,4.293l0.405,0.634L4.72,5.915z"/>
<g>
</g>
<g>
</g>
<g>
</g>
<g>
</g>
<g>
</g>
<g>
</g>
<g>
</g>
<g>
</g>
<g>
</g>
<g>
</g>
<g>
</g>
<g>
</g>
<g>
</g>
<g>
</g>
<g>
</g>
</svg>
