<?xml version="1.0" encoding="iso-8859-1"?>
<!-- Generator: Adobe Illustrator 16.0.4, SVG Export Plug-In . SVG Version: 6.00 Build 0)  -->
<!DOCTYPE svg PUBLIC "-//W3C//DTD SVG 1.1//EN" "http://www.w3.org/Graphics/SVG/1.1/DTD/svg11.dtd">
<svg version="1.1" id="Capa_1" xmlns="http://www.w3.org/2000/svg" xmlns:xlink="http://www.w3.org/1999/xlink" x="0px" y="0px"
	 width="15px" height="14.998px" viewBox="0 0 15 14.998" style="enable-background:new 0 0 15 14.998;" xml:space="preserve">
<path style="fill:#010002;" d="M3.686,4.837L2.346,3.9c1.062-1.519,2.736-2.476,4.559-2.65V0l3.529,2.037L6.904,4.074V2.888
	C5.615,3.055,4.441,3.757,3.686,4.837z M2.887,8.096h1.188L2.037,4.566L0,8.096h1.25c0.174,1.822,1.131,3.496,2.65,4.559
	l0.936-1.341C3.756,10.559,3.055,9.384,2.887,8.096z M8.098,12.11v-1.187l-3.529,2.037l3.529,2.037v-1.25
	c1.82-0.175,3.492-1.131,4.555-2.647l-1.338-0.938C10.559,11.241,9.383,11.942,8.098,12.11z M13.75,6.902
	c-0.176-1.821-1.133-3.493-2.65-4.558l-0.938,1.339c1.08,0.757,1.781,1.932,1.949,3.219h-1.186l2.037,3.529L15,6.902H13.75z"/>
<g>
</g>
<g>
</g>
<g>
</g>
<g>
</g>
<g>
</g>
<g>
</g>
<g>
</g>
<g>
</g>
<g>
</g>
<g>
</g>
<g>
</g>
<g>
</g>
<g>
</g>
<g>
</g>
<g>
</g>
</svg>
