<?xml version="1.0" encoding="iso-8859-1"?>
<!-- Generator: Adobe Illustrator 16.0.4, SVG Export Plug-In . SVG Version: 6.00 Build 0)  -->
<!DOCTYPE svg PUBLIC "-//W3C//DTD SVG 1.1//EN" "http://www.w3.org/Graphics/SVG/1.1/DTD/svg11.dtd">
<svg version="1.1" id="Capa_1" xmlns="http://www.w3.org/2000/svg" xmlns:xlink="http://www.w3.org/1999/xlink" x="0px" y="0px"
	 width="15px" height="15px" viewBox="0 0 15 15" style="enable-background:new 0 0 15 15;" xml:space="preserve">
<path style="fill:#010002;" d="M7.501,0C3.365,0,0,3.365,0,7.501S3.365,15,7.501,15S15,11.637,15,7.501S11.637,0,7.501,0z
	 M10.917,2.867L7.5,6.284L4.083,2.867c0.96-0.71,2.135-1.145,3.418-1.145C8.783,1.723,9.958,2.157,10.917,2.867z M1.723,7.501
	c0-1.281,0.435-2.456,1.143-3.415l3.417,3.415l-3.415,3.416C2.157,9.958,1.723,8.783,1.723,7.501z M4.084,12.134L7.5,8.719
	l3.417,3.417c-0.959,0.708-2.134,1.143-3.416,1.143C6.218,13.278,5.043,12.844,4.084,12.134z M12.134,10.918L8.717,7.501
	l3.417-3.417c0.71,0.959,1.145,2.134,1.145,3.417S12.844,9.959,12.134,10.918z"/>
<g>
</g>
<g>
</g>
<g>
</g>
<g>
</g>
<g>
</g>
<g>
</g>
<g>
</g>
<g>
</g>
<g>
</g>
<g>
</g>
<g>
</g>
<g>
</g>
<g>
</g>
<g>
</g>
<g>
</g>
</svg>
