<?xml version="1.0" encoding="iso-8859-1"?>
<!-- Generator: Adobe Illustrator 16.0.4, SVG Export Plug-In . SVG Version: 6.00 Build 0)  -->
<!DOCTYPE svg PUBLIC "-//W3C//DTD SVG 1.1//EN" "http://www.w3.org/Graphics/SVG/1.1/DTD/svg11.dtd">
<svg version="1.1" id="Capa_1" xmlns="http://www.w3.org/2000/svg" xmlns:xlink="http://www.w3.org/1999/xlink" x="0px" y="0px"
	 width="20px" height="20.001px" viewBox="0 0 20 20.001" style="enable-background:new 0 0 20 20.001;" xml:space="preserve">
<path style="fill:#010002;" d="M6.396,5.247h0.492V5.9H6.396V5.247z M9.204,4.496h0.8V3.943h-0.8V4.496z M7.457,5.9h0.489V5.247
	H7.457V5.9z M9.204,3.625h0.8V3.072h-0.8V3.625z M10.412,4.496h0.8V3.943h-0.8V4.496z M20,4v12.001c0,2.2-1.8,4-4,4H4
	c-2.2,0-4-1.8-4-4V4c0-2.2,1.8-4,4-4h12C18.2,0,20,1.8,20,4z M15.373,17.5l-0.383-0.667c-0.213-0.367-0.559-0.966-0.771-1.333
	c-0.213-0.367-0.559-0.367-0.771,0c-0.092,0.159-0.211,0.365-0.331,0.574l-2.337-4.049c-0.294-0.508-0.772-0.508-1.066,0
	c0,0-1.177,2.039-1.397,2.421c-0.046-0.078-0.432-0.746-0.432-0.746c-0.293-0.508-0.772-0.508-1.066,0L5.16,16.577L4.627,17.5
	H15.373z M15.373,8.869h-1.37V5.458h-1.519v3.411h-1.01V2.5H8.942v6.369H8.27V4.775H6.076v4.094H4.627v1.138h10.746V8.869z
	 M10.412,3.625h0.8V3.072h-0.8V3.625z"/>
<g>
</g>
<g>
</g>
<g>
</g>
<g>
</g>
<g>
</g>
<g>
</g>
<g>
</g>
<g>
</g>
<g>
</g>
<g>
</g>
<g>
</g>
<g>
</g>
<g>
</g>
<g>
</g>
<g>
</g>
</svg>
