<?xml version="1.0" encoding="iso-8859-1"?>
<!-- Generator: Adobe Illustrator 16.0.4, SVG Export Plug-In . SVG Version: 6.00 Build 0)  -->
<!DOCTYPE svg PUBLIC "-//W3C//DTD SVG 1.1//EN" "http://www.w3.org/Graphics/SVG/1.1/DTD/svg11.dtd">
<svg version="1.1" id="Capa_1" xmlns="http://www.w3.org/2000/svg" xmlns:xlink="http://www.w3.org/1999/xlink" x="0px" y="0px"
	 width="13px" height="15.5px" viewBox="0 0 13 15.5" style="enable-background:new 0 0 13 15.5;" xml:space="preserve">
<path style="fill:#010002;" d="M4.801,0.4C6.344,0.4,7.6,1.656,7.6,3.199v1.602C7.6,6.344,6.344,7.6,4.801,7.6H3.199
	C1.656,7.6,0.4,6.344,0.4,4.801V3.199C0.4,1.656,1.656,0.4,3.199,0.4H4.801 M6.497,0.5C6.003,0.188,5.424,0,4.801,0H3.199
	C1.44,0,0,1.44,0,3.199v1.602c0,1.69,1.335,3.073,3,3.179V15.5h4v-3h2v3h4v-15H6.497z M4,10V8h0.801C5.225,8,5.629,7.912,6,7.761V10
	H4z M9,10H7V7.109C7.037,7.074,7.073,7.037,7.109,7H9V10z M9,5H7.979C7.984,4.933,8,4.869,8,4.801V3.199
	C8,2.775,7.912,2.371,7.761,2H9V5z M12,10h-2V7h2V10z M12,5h-2V2h2V5z M6.334,2.373L5.627,1.666L4,3.293L2.373,1.666L1.666,2.373
	L3.293,4L1.666,5.627l0.707,0.707L4,4.707l1.627,1.627l0.707-0.707L4.707,4L6.334,2.373z"/>
<g>
</g>
<g>
</g>
<g>
</g>
<g>
</g>
<g>
</g>
<g>
</g>
<g>
</g>
<g>
</g>
<g>
</g>
<g>
</g>
<g>
</g>
<g>
</g>
<g>
</g>
<g>
</g>
<g>
</g>
</svg>
