<?xml version="1.0" encoding="iso-8859-1"?>
<!-- Generator: Adobe Illustrator 16.0.4, SVG Export Plug-In . SVG Version: 6.00 Build 0)  -->
<!DOCTYPE svg PUBLIC "-//W3C//DTD SVG 1.1//EN" "http://www.w3.org/Graphics/SVG/1.1/DTD/svg11.dtd">
<svg version="1.1" id="Capa_1" xmlns="http://www.w3.org/2000/svg" xmlns:xlink="http://www.w3.org/1999/xlink" x="0px" y="0px"
	 width="20px" height="20.001px" viewBox="0 0 20 20.001" style="enable-background:new 0 0 20 20.001;" xml:space="preserve">
<path style="fill:#010002;" d="M5.267,11.145h0.912v1.216H5.267V11.145z M8.521,8.126h1.487v-1.03H8.521V8.126z M3.297,12.36h0.912
	v-1.216H3.297V12.36z M8.521,9.747h1.487V8.718H8.521V9.747z M20,4v12.001c0,2.2-1.8,4-4,4H4c-2.2,0-4-1.8-4-4V4c0-2.2,1.8-4,4-4h12
	C18.2,0,20,1.8,20,4z M18.316,17.884H17.45v-6.348h-2.825v6.348h-1.882V6.033h-4.71v11.851H6.778v-7.618H2.697v7.618H1.684
	C2.234,18.56,3.062,19.001,4,19.001h12C16.938,19.001,17.766,18.56,18.316,17.884z M10.768,8.126h1.488v-1.03h-1.488V8.126z
	 M10.768,9.747h1.488V8.718h-1.488V9.747z"/>
<g>
</g>
<g>
</g>
<g>
</g>
<g>
</g>
<g>
</g>
<g>
</g>
<g>
</g>
<g>
</g>
<g>
</g>
<g>
</g>
<g>
</g>
<g>
</g>
<g>
</g>
<g>
</g>
<g>
</g>
</svg>
