<?xml version="1.0" encoding="iso-8859-1"?>
<!-- Generator: Adobe Illustrator 16.0.4, SVG Export Plug-In . SVG Version: 6.00 Build 0)  -->
<!DOCTYPE svg PUBLIC "-//W3C//DTD SVG 1.1//EN" "http://www.w3.org/Graphics/SVG/1.1/DTD/svg11.dtd">
<svg version="1.1" id="Capa_1" xmlns="http://www.w3.org/2000/svg" xmlns:xlink="http://www.w3.org/1999/xlink" x="0px" y="0px"
	 width="15.304px" height="15.5px" viewBox="0 0 15.304 15.5" style="enable-background:new 0 0 15.304 15.5;" xml:space="preserve"
	>
<path style="fill:#010002;" d="M15.304,11.612v-1.608L8.788,5.919V1.286c0-0.21-0.081-0.395-0.236-0.55
	C8.396,0.578,8.209,0.5,8.001,0.5H7.962c-0.21,0-0.386,0.078-0.531,0.236c-0.111,0.121-0.167,0.266-0.192,0.42
	C6.65,0.456,5.78,0,4.801,0H3.199C1.44,0,0,1.44,0,3.199v1.602C0,6.56,1.44,8,3.199,8h0.694l-3.197,2.004v1.608l6.519-2.12v3.496
	l-1.453,1.414V15.5l2.239-0.667l2.196,0.667v-1.098l-1.409-1.414V9.492L15.304,11.612z M0.4,4.801V3.199
	C0.4,1.656,1.656,0.4,3.199,0.4h1.602C6.344,0.4,7.6,1.656,7.6,3.199v1.602C7.6,6.344,6.344,7.6,4.801,7.6H3.199
	C1.656,7.6,0.4,6.344,0.4,4.801z M6.801,4.501H1.199v-1h5.602V4.501z"/>
<g>
</g>
<g>
</g>
<g>
</g>
<g>
</g>
<g>
</g>
<g>
</g>
<g>
</g>
<g>
</g>
<g>
</g>
<g>
</g>
<g>
</g>
<g>
</g>
<g>
</g>
<g>
</g>
<g>
</g>
</svg>
