<?xml version="1.0" encoding="iso-8859-1"?>
<!-- Generator: Adobe Illustrator 16.0.4, SVG Export Plug-In . SVG Version: 6.00 Build 0)  -->
<!DOCTYPE svg PUBLIC "-//W3C//DTD SVG 1.1//EN" "http://www.w3.org/Graphics/SVG/1.1/DTD/svg11.dtd">
<svg version="1.1" id="Capa_1" xmlns="http://www.w3.org/2000/svg" xmlns:xlink="http://www.w3.org/1999/xlink" x="0px" y="0px"
	 width="10.557px" height="15px" viewBox="0 0 10.557 15" style="enable-background:new 0 0 10.557 15;" xml:space="preserve">
<path style="fill:#010002;" d="M4.641,11.089l2.764-2.295l0.824,0.841l-3.611,3.611L2.48,11.108l1.133-1.136L4.641,11.089z
	 M7.414,4.728L6.549,3.862L4.996,5.415L3.443,3.862L2.576,4.728L4.129,6.28L2.576,7.834l0.867,0.865l1.553-1.553l1.553,1.553
	l0.865-0.865L5.861,6.28L7.414,4.728z M10.557,1.44V15H0V1.44h2.15V1.095h1.734C4.041,0.468,4.602,0,5.277,0
	s1.238,0.468,1.395,1.095h1.734V1.44H10.557z M4.629,1.095h1.299C5.801,0.86,5.562,0.696,5.279,0.696
	C4.992,0.696,4.754,0.86,4.629,1.095z M9.395,2.554H8.406V3.24H2.15V2.554H1.162v11.333h8.232V2.554z"/>
<g>
</g>
<g>
</g>
<g>
</g>
<g>
</g>
<g>
</g>
<g>
</g>
<g>
</g>
<g>
</g>
<g>
</g>
<g>
</g>
<g>
</g>
<g>
</g>
<g>
</g>
<g>
</g>
<g>
</g>
</svg>
