<?xml version="1.0" encoding="iso-8859-1"?>
<!-- Generator: Adobe Illustrator 16.0.4, SVG Export Plug-In . SVG Version: 6.00 Build 0)  -->
<!DOCTYPE svg PUBLIC "-//W3C//DTD SVG 1.1//EN" "http://www.w3.org/Graphics/SVG/1.1/DTD/svg11.dtd">
<svg version="1.1" id="Capa_1" xmlns="http://www.w3.org/2000/svg" xmlns:xlink="http://www.w3.org/1999/xlink" x="0px" y="0px"
	 width="20px" height="20px" viewBox="0 0 20 20" style="enable-background:new 0 0 20 20;" xml:space="preserve">
<path style="fill:#010002;" d="M16,0H4C1.8,0,0,1.8,0,4v12c0,2.2,1.8,4,4,4h12c2.2,0,4-1.8,4-4V4C20,1.8,18.2,0,16,0z M4.668,16.488
	l1.354-3.721h0.328l-1.393,3.828L4.668,16.488z M6.217,16.488l1.354-3.721h0.328l-1.393,3.828L6.217,16.488z M7.766,16.488
	l1.354-3.721h0.328l-1.393,3.828L7.766,16.488z M9.314,16.488l1.354-3.721h0.328l-1.393,3.828L9.314,16.488z M10.863,16.488
	l1.354-3.721h0.328l-1.393,3.828L10.863,16.488z M12.702,16.596l-0.29-0.107l1.354-3.721h0.328L12.702,16.596z M14.687,11.84
	c-0.112,0-1.175,0-2.581,0c-0.854,0-1.832,0-2.81,0c-2.467,0-4.903,0-5.155,0c-0.906,0-1.641-0.342-1.641-1.25
	c0-0.904,0.734-1.639,1.641-1.639c0.165,0,0.321,0.031,0.473,0.076c0-0.012-0.004-0.023-0.004-0.039
	c0-1.057,0.857-1.912,1.914-1.912c0.044,0,0.087,0.01,0.131,0.014C6.652,7.045,6.641,7.002,6.641,6.959
	c0-1.963,1.591-3.555,3.555-3.555c1.773,0,3.231,1.303,3.499,3.002c0.309-0.117,0.642-0.189,0.992-0.189
	c1.554,0,2.813,1.258,2.813,2.812C17.5,10.582,16.24,11.84,14.687,11.84z"/>
<g>
</g>
<g>
</g>
<g>
</g>
<g>
</g>
<g>
</g>
<g>
</g>
<g>
</g>
<g>
</g>
<g>
</g>
<g>
</g>
<g>
</g>
<g>
</g>
<g>
</g>
<g>
</g>
<g>
</g>
</svg>
