<?xml version="1.0" encoding="iso-8859-1"?>
<!-- Generator: Adobe Illustrator 16.0.4, SVG Export Plug-In . SVG Version: 6.00 Build 0)  -->
<!DOCTYPE svg PUBLIC "-//W3C//DTD SVG 1.1//EN" "http://www.w3.org/Graphics/SVG/1.1/DTD/svg11.dtd">
<svg version="1.1" id="Capa_1" xmlns="http://www.w3.org/2000/svg" xmlns:xlink="http://www.w3.org/1999/xlink" x="0px" y="0px"
	 width="20px" height="20px" viewBox="0 0 20 20" style="enable-background:new 0 0 20 20;" xml:space="preserve">
<path style="fill:#010002;" d="M16,0H4C1.8,0,0,1.8,0,4v12c0,2.2,1.8,4,4,4h12c2.2,0,4-1.8,4-4V4C20,1.8,18.2,0,16,0z M6.865,17.5
	l2.217-3.881H6.865c0.015,0,1.331-1.322,2.143-2.138h2.767l-1.584,1.583h1.663L6.865,17.5z M14.619,10.816c-0.11,0-1.157,0-2.544,0
	c-0.842,0-1.806,0-2.77,0c-2.432,0-4.833,0-5.081,0c-0.894,0-1.617-0.339-1.617-1.232c0-0.893,0.724-1.617,1.617-1.617
	c0.162,0,0.316,0.032,0.466,0.077c0-0.013-0.004-0.025-0.004-0.038c0-1.042,0.845-1.886,1.887-1.886c0.043,0,0.086,0.01,0.129,0.013
	C6.7,6.088,6.688,6.047,6.688,6.003c0-1.935,1.568-3.503,3.504-3.503c1.747,0,3.186,1.285,3.449,2.959
	c0.304-0.116,0.632-0.187,0.978-0.187c1.532,0,2.773,1.241,2.773,2.772C17.393,9.576,16.151,10.816,14.619,10.816z"/>
<g>
</g>
<g>
</g>
<g>
</g>
<g>
</g>
<g>
</g>
<g>
</g>
<g>
</g>
<g>
</g>
<g>
</g>
<g>
</g>
<g>
</g>
<g>
</g>
<g>
</g>
<g>
</g>
<g>
</g>
</svg>
