<?xml version="1.0" encoding="iso-8859-1"?>
<!-- Generator: Adobe Illustrator 16.0.4, SVG Export Plug-In . SVG Version: 6.00 Build 0)  -->
<!DOCTYPE svg PUBLIC "-//W3C//DTD SVG 1.1//EN" "http://www.w3.org/Graphics/SVG/1.1/DTD/svg11.dtd">
<svg version="1.1" id="Capa_1" xmlns="http://www.w3.org/2000/svg" xmlns:xlink="http://www.w3.org/1999/xlink" x="0px" y="0px"
	 width="20px" height="20px" viewBox="0 0 20 20" style="enable-background:new 0 0 20 20;" xml:space="preserve">
<path style="fill:#010002;" d="M4,20h12c2.2,0,4-1.8,4-4V4c0-2.2-1.8-4-4-4H4C1.8,0,0,1.8,0,4v12C0,18.2,1.8,20,4,20z M2.48,5.449
	c0-1.759,1.44-3.199,3.199-3.199h1.602c0.965,0,1.831,0.437,2.419,1.12c0,0,0.006-0.007,0.023,0.011
	c0.028-0.145,0.082-0.28,0.188-0.395c0.146-0.158,0.321-0.236,0.531-0.236h0.039c0.208,0,0.395,0.078,0.551,0.236
	c0.155,0.155,0.236,0.34,0.236,0.55v4.633l6.516,4.085v1.608l-6.516-2.12v3.496l1.409,1.414v1.098l-2.196-0.667L8.242,17.75v-1.098
	l1.453-1.414v-3.496l-6.519,2.12v-1.608l3.197-2.004H5.68c-1.759,0-3.199-1.44-3.199-3.199V5.449z M5.68,9.85h1.602
	c1.543,0,2.799-1.256,2.799-2.799V5.449c0-1.543-1.256-2.799-2.799-2.799H5.68c-1.543,0-2.799,1.256-2.799,2.799v1.602
	C2.881,8.594,4.137,9.85,5.68,9.85z M4.322,5.398l1.413,1.412l2.681-2.682l0.707,0.707L5.735,8.225l-2.12-2.119L4.322,5.398z"/>
<g>
</g>
<g>
</g>
<g>
</g>
<g>
</g>
<g>
</g>
<g>
</g>
<g>
</g>
<g>
</g>
<g>
</g>
<g>
</g>
<g>
</g>
<g>
</g>
<g>
</g>
<g>
</g>
<g>
</g>
</svg>
