<?xml version="1.0" encoding="iso-8859-1"?>
<!-- Generator: Adobe Illustrator 16.0.4, SVG Export Plug-In . SVG Version: 6.00 Build 0)  -->
<!DOCTYPE svg PUBLIC "-//W3C//DTD SVG 1.1//EN" "http://www.w3.org/Graphics/SVG/1.1/DTD/svg11.dtd">
<svg version="1.1" id="Capa_1" xmlns="http://www.w3.org/2000/svg" xmlns:xlink="http://www.w3.org/1999/xlink" x="0px" y="0px"
	 width="15px" height="13.854px" viewBox="0 0 15 13.854" style="enable-background:new 0 0 15 13.854;" xml:space="preserve">
<path style="fill:#010002;" d="M9.376,9.756c-0.002,0.481-0.81,0.874-1.812,0.874c-1,0-1.808-0.393-1.811-0.874
	c0.003-0.482,0.811-0.873,1.811-0.875C8.566,8.883,9.374,9.273,9.376,9.756z M11.315,9.756c-0.005,1.002-1.679,1.81-3.751,1.81
	c-2.07,0-3.746-0.808-3.749-1.81c0.003-1.001,1.679-1.809,3.749-1.811C9.637,7.947,11.311,8.755,11.315,9.756z M10.149,9.756
	c0-0.689-1.156-1.248-2.585-1.248c-1.427,0-2.585,0.559-2.585,1.248c0,0.69,1.158,1.247,2.585,1.247
	C8.993,11.003,10.149,10.446,10.149,9.756z M15,9.961c0,2.151-3.357,3.893-7.5,3.893c-4.141,0-7.5-1.741-7.5-3.893
	C0,7.812,3.359,6.07,7.5,6.07C11.643,6.07,15,7.812,15,9.961z M13.9,9.756c0-1.687-2.836-3.058-6.336-3.058
	c-3.498,0-6.334,1.371-6.334,3.058c0,1.688,2.836,3.058,6.334,3.058C11.064,12.813,13.9,11.443,13.9,9.756z M13.123,9.756
	c-0.005,1.48-2.488,2.681-5.559,2.685c-3.069-0.004-5.553-1.204-5.561-2.685c0.008-1.482,2.491-2.683,5.561-2.685
	C10.635,7.073,13.118,8.273,13.123,9.756z M12.091,9.756c0-1.206-2.027-2.186-4.526-2.186c-2.5,0-4.525,0.979-4.525,2.186
	s2.025,2.185,4.525,2.185C10.063,11.94,12.091,10.962,12.091,9.756z M9.622,3.376C8.274,4.528,10.139,5.58,10.139,5.58
	s-0.646-0.722,0.34-1.555c1.49-1.252-0.015-2.271-0.015-2.271S10.84,2.337,9.622,3.376z M7.76,3.674c0,0,1.771-0.391,0.85-2.104
	C8,0.433,8.864,0,8.864,0S6.742,0.292,7.572,1.859C8.322,3.273,7.76,3.674,7.76,3.674z M5.13,3.496
	C4.128,4.961,6.205,5.485,6.205,5.485S5.393,4.959,6.126,3.898c1.108-1.601-0.611-2.187-0.611-2.187S6.031,2.172,5.13,3.496z"/>
<g>
</g>
<g>
</g>
<g>
</g>
<g>
</g>
<g>
</g>
<g>
</g>
<g>
</g>
<g>
</g>
<g>
</g>
<g>
</g>
<g>
</g>
<g>
</g>
<g>
</g>
<g>
</g>
<g>
</g>
</svg>
