<?xml version="1.0" encoding="iso-8859-1"?>
<!-- Generator: Adobe Illustrator 16.0.4, SVG Export Plug-In . SVG Version: 6.00 Build 0)  -->
<!DOCTYPE svg PUBLIC "-//W3C//DTD SVG 1.1//EN" "http://www.w3.org/Graphics/SVG/1.1/DTD/svg11.dtd">
<svg version="1.1" id="Capa_1" xmlns="http://www.w3.org/2000/svg" xmlns:xlink="http://www.w3.org/1999/xlink" x="0px" y="0px"
	 width="14.998px" height="9.365px" viewBox="0 0 14.998 9.365" style="enable-background:new 0 0 14.998 9.365;"
	 xml:space="preserve">
<path style="fill-rule:evenodd;clip-rule:evenodd;fill:#010002;" d="M13.17,4.769c0,0-2.75-5.387-8.789-4.71
	c0,0,5.656-0.882,9.029,4.794L13.17,4.769z M13.17,4.769c-0.139-0.053-0.094,0.011-0.234,0.033
	c-0.135,0.024-0.311-0.035-0.428,0.072c-0.033,0.029-0.023,0.077-0.07,0.055c-0.037-0.013-0.07-0.031-0.109-0.042
	c-0.094-0.02-0.172-0.022-0.266-0.015c-0.496,0.044-0.971-0.061-1.461-0.022C9.984,4.896,9.367,4.88,8.748,4.906
	C8.666,4.909,8.588,4.917,8.51,4.917c-0.104,0-0.141,0.033-0.213-0.051C8.191,4.749,8.104,4.607,7.992,4.494
	c-0.23-0.24-0.469-0.446-0.67-0.715c-0.098-0.126-0.193-0.252-0.291-0.38C6.938,3.274,6.822,3.19,6.713,3.077
	C6.471,2.83,6.211,2.521,5.869,2.425C5.693,2.376,5.576,2.521,5.557,2.7c-0.01,0.103-0.371,0.918-0.348,0.913
	C5.15,3.625,5.199,3.757,5.1,3.763C4.773,3.788,4.697,3.117,4.316,3.254C4.133,3.318,3.992,3.596,4.074,3.779
	c0.045,0.104,0.113,0.176,0,0.264C3.982,4.114,3.592,4.617,3.639,4.604C3.607,4.611,3.543,4.739,3.514,4.769
	C3.457,4.822,3.402,4.853,3.326,4.873c-0.16,0.043-0.365,0.023-0.529,0.003C2.639,4.86,2.49,4.823,2.332,4.84
	C2.166,4.853,2.016,4.917,1.881,5.019C1.814,5.068,1.764,5.118,1.711,5.18C1.658,5.241,1.654,5.357,1.639,5.435
	C1.48,6.119,2.184,5.97,2.502,6.17c0.107,0.065-0.189,0.402-0.213,0.474C2.277,6.68,2.266,6.715,2.25,6.75
	C2.217,6.821,2.219,6.808,2.146,6.783c-0.52-0.187-1.029-0.384-1.521-0.635C0.584,6.127,0.562,6.102,0.539,6.153
	c-0.01,0.024-0.016,0.053-0.006,0.079c0.188,0.45,0.818,0.547,1.191,0.792C1.783,7.061,1.84,7.099,1.902,7.132
	C2.045,7.205,2.041,7.201,1.98,7.353c-0.068,0.174-0.158,0.35-0.244,0.52c-0.062,0.117-0.139,0.26-0.18,0.384
	c-0.031,0.09-0.041,0.24-0.109,0.311C1.381,8.634,1.24,8.679,1.16,8.727C1.027,8.808,0.877,8.855,0.75,8.941
	C0.584,9.056,0.486,9.085,0.289,9.105C0.232,9.113-0.104,9.241,0.031,9.362c0.031,0.029,0.285-0.154,0.342-0.17
	C0.332,9.25,0.816,9.063,0.842,9.043C0.904,8.992,1.375,8.83,1.439,8.806c0.057-0.02,0.352,0.024,0.371-0.104
	C1.826,8.61,1.82,8.507,1.85,8.419c0.025-0.077,0.129-0.333,0.154-0.398C2.053,7.904,2.279,7.318,2.32,7.308
	C2.344,7.3,2.416,7.364,2.447,7.374c0.484,0.15,0.99,0.227,1.494,0.161C3.971,7.529,4.234,7.479,4.227,7.52
	c-0.027,0.11-0.139,0.547,0.037,0.626C4.141,8.213,3.955,8.284,3.816,8.306C3.643,8.337,3.459,8.397,3.281,8.414
	C3.176,8.427,2.693,8.73,2.664,8.811c0.246-0.132,0.504-0.187,0.77-0.256c0.08-0.022,1.01-0.308,1.004-0.26
	c0.012-0.086,0.018-0.17,0.043-0.252C4.504,7.97,4.494,7.889,4.518,7.82C4.543,7.743,4.566,7.664,4.59,7.583
	c0.023-0.08,0.035-0.17,0.133-0.137c0.227,0.077,0.43,0.21,0.658,0.284C6.01,7.929,8.449,8.043,8.682,7.851
	c0.014,0.114-0.1,0.159-0.1,0.245c0,0.053,0.062,0.07,0.074,0.117C8.65,8.193,7.631,8.445,7.537,8.5
	c-0.09,0.053-0.152,0.093-0.244,0.139C7.178,8.696,7.074,8.766,7.021,8.892c0.205,0.003,0.326-0.073,0.426-0.155
	c0.041-0.033,0.145-0.062,0.188-0.09c0.219-0.121,0.852-0.22,0.914-0.241c0.035-0.011,0.066-0.024,0.1-0.041
	c0.057-0.027,0.068-0.04,0.109-0.003c0.023,0.02,0.096-0.042,0.098-0.057C8.863,8.233,8.877,8.16,8.883,8.087
	c0.008-0.108-0.016-0.419,0.119-0.428c1.23-0.09,2.74-0.516,2.789-0.521c0.109-0.015,0.115,0.049,0.164,0.139
	c0.033,0.059,0.059,0.135,0.07,0.201c0.016,0.086,0.033,0.172,0.057,0.256c0.027,0.113,0.111,0.091,0.162,0.101
	c0.424,0.099,0.863,0.038,1.291,0.022c-0.025,0.049,0.24,0,0.371,0.022c0.139,0.023,0.191,0.123,0.312,0.181
	c0.096,0.046,0.207,0.031,0.305,0.073c0.105,0.048,0.422,0.026,0.451,0.07c0.031-0.037,0.035-0.084-0.008-0.112
	c-0.184-0.086-0.371-0.103-0.553-0.174c-0.201-0.082-0.383-0.199-0.574-0.298c-0.1-0.051-0.084-0.35-0.107-0.454
	c-0.033-0.15-0.055-0.348-0.143-0.476c-0.057-0.079-0.078-0.114-0.029-0.2c0.035-0.064,0.09-0.128,0.109-0.197
	c0.088-0.309,0.139-0.679,0.008-0.984c-0.045-0.11-0.213-0.353-0.268-0.456 M3.885,4.668C3.854,4.736,3.818,4.805,3.787,4.873
	C4.031,4.849,4.273,4.84,4.518,4.84c0.061,0,0.139,0.013,0.139-0.055c0-0.046,0.098-0.086,0.127-0.128
	c0.074-0.112,0.109-0.232,0.15-0.362C4.908,4.342,4.969,4.18,4.998,4.148C4.889,4.073,4.74,3.925,4.609,3.896
	C4.48,3.869,4.217,4.238,4.197,4.258 M5.76,3.185C5.646,3.417,5.566,3.666,5.463,3.901C5.418,4.004,5.467,4.004,5.551,4.062
	C5.598,4.094,5.639,4.134,5.684,4.17c0.1,0.084,0.199,0.135,0.318,0.187C6.25,4.461,6.424,4.648,6.645,4.791
	c0.1,0.064,0.227,0.165,0.344,0.185c0.156,0.028,0.26,0.024,0.414,0C7.225,4.496,7.043,4.024,6.76,3.598
	C6.643,3.42,6.482,3.188,6.289,3.089C6.18,3.036,6.096,2.945,5.969,2.936c-0.09-0.007-0.088,0.022-0.131,0.101
	C5.812,3.086,5.785,3.135,5.76,3.185 M5.439,4.5C5.381,4.454,5.324,4.412,5.262,4.374c-0.057,0.152-0.104,0.3-0.186,0.442
	C5.373,4.847,5.678,4.864,5.969,4.93C5.803,4.779,5.635,4.609,5.439,4.5 M2.584,6.843C2.572,6.854,2.562,6.876,2.551,6.889
	c0.342,0.035,0.684,0.046,1.021,0.082c0.17,0.017,0.352,0.013,0.521-0.003c0.064-0.005,0.199-0.013,0.244-0.055
	c0.07-0.059,0.105-0.353,0.1-0.375C4.416,6.464,4.205,6.475,4.152,6.47C4.045,6.453,3.938,6.413,3.83,6.413
	c-0.109,0-0.215-0.002-0.324-0.02C3.303,6.364,3.062,6.241,2.861,6.345C2.785,6.384,2.686,6.506,2.686,6.594
	C2.686,6.702,2.604,6.737,2.584,6.843 M13.477,7.705c0.031-0.009,0.102-0.004,0.098-0.042c-0.01-0.055-0.016-0.112-0.025-0.167
	c-0.012-0.079-0.029-0.159-0.045-0.238c-0.031-0.152-0.084-0.284-0.148-0.428c-0.049,0.068-0.104,0.183-0.17,0.223
	C13.1,7.101,12.998,7.101,12.9,7.114c-0.082,0.011-0.131-0.181-0.141-0.236c-0.016-0.108-0.02-0.19-0.055-0.296
	c-0.076,0.033-0.102,0.003-0.178,0.042c-0.055,0.027-0.117,0.045-0.174,0.073c-0.074,0.029-0.121,0.087-0.189,0.124
	c-0.016,0.009-0.025,0.027-0.045,0.033c-0.012,0.005-0.041-0.019-0.055-0.011c-0.025,0.011-0.043,0.029-0.055,0.057
	c-0.021,0.062,0.035,0.136,0.061,0.194c0.049,0.108,0.096,0.216,0.145,0.326c0.02,0.048,0.041,0.137,0.082,0.168
	c0.051,0.04,0.219,0.101,0.311,0.106"/>
<g>
</g>
<g>
</g>
<g>
</g>
<g>
</g>
<g>
</g>
<g>
</g>
<g>
</g>
<g>
</g>
<g>
</g>
<g>
</g>
<g>
</g>
<g>
</g>
<g>
</g>
<g>
</g>
<g>
</g>
</svg>
