<?xml version="1.0" encoding="iso-8859-1"?>
<!-- Generator: Adobe Illustrator 16.0.4, SVG Export Plug-In . SVG Version: 6.00 Build 0)  -->
<!DOCTYPE svg PUBLIC "-//W3C//DTD SVG 1.1//EN" "http://www.w3.org/Graphics/SVG/1.1/DTD/svg11.dtd">
<svg version="1.1" id="Capa_1" xmlns="http://www.w3.org/2000/svg" xmlns:xlink="http://www.w3.org/1999/xlink" x="0px" y="0px"
	 width="20px" height="20px" viewBox="0 0 20 20" style="enable-background:new 0 0 20 20;" xml:space="preserve">
<path style="fill:#010002;" d="M14.634,6.584c0.71,0.959,1.145,2.134,1.145,3.417s-0.435,2.458-1.145,3.417l-3.417-3.417
	L14.634,6.584z M13.417,5.367c-0.959-0.71-2.134-1.145-3.416-1.145c-1.283,0-2.458,0.435-3.418,1.145L10,8.784L13.417,5.367z
	 M5.365,6.586C4.657,7.545,4.223,8.72,4.223,10.001c0,1.282,0.435,2.457,1.145,3.416l3.415-3.416L5.365,6.586z M20,4v12
	c0,2.2-1.8,4-4,4H4c-2.2,0-4-1.8-4-4V4c0-2.2,1.8-4,4-4h12C18.2,0,20,1.8,20,4z M17.5,10.001c0-4.136-3.363-7.501-7.499-7.501
	S2.5,5.865,2.5,10.001S5.865,17.5,10.001,17.5S17.5,14.137,17.5,10.001z M6.584,14.634c0.959,0.71,2.134,1.145,3.417,1.145
	c1.282,0,2.457-0.435,3.416-1.143L10,11.219L6.584,14.634z"/>
<g>
</g>
<g>
</g>
<g>
</g>
<g>
</g>
<g>
</g>
<g>
</g>
<g>
</g>
<g>
</g>
<g>
</g>
<g>
</g>
<g>
</g>
<g>
</g>
<g>
</g>
<g>
</g>
<g>
</g>
</svg>
