<?xml version="1.0" encoding="iso-8859-1"?>
<!-- Generator: Adobe Illustrator 16.0.4, SVG Export Plug-In . SVG Version: 6.00 Build 0)  -->
<!DOCTYPE svg PUBLIC "-//W3C//DTD SVG 1.1//EN" "http://www.w3.org/Graphics/SVG/1.1/DTD/svg11.dtd">
<svg version="1.1" id="Capa_1" xmlns="http://www.w3.org/2000/svg" xmlns:xlink="http://www.w3.org/1999/xlink" x="0px" y="0px"
	 width="20px" height="20px" viewBox="0 0 20 20" style="enable-background:new 0 0 20 20;" xml:space="preserve">
<path style="fill:#010002;" d="M10.77,7.142h-1.54v-0.65h1.54V7.142z M13.31,6.491h-1.54v0.65h1.54V6.491z M6.638,12.228
	C6.727,12.487,7.025,12.7,7.3,12.7h5.4c0.274,0,0.573-0.213,0.662-0.473l0.676-1.967c0.089-0.26-0.063-0.473-0.338-0.473H6.3
	c-0.274,0-0.427,0.213-0.338,0.473L6.638,12.228z M8.229,6.491h-1.54v0.65h1.54V6.491z M20,4v12c0,2.2-1.8,4-4,4H4c-2.2,0-4-1.8-4-4
	V4c0-2.2,1.8-4,4-4h12C18.2,0,20,1.8,20,4z M4.165,10.334l2.002,5.09c0.155,0.064,0.32,0.105,0.507,0.11
	c0.665-0.016,1.109-0.402,1.461-1.254c0.007-0.025,0.017-0.045,0.027-0.066c0.036-0.053,0.086-0.088,0.146-0.088
	c0.06,0,0.111,0.035,0.148,0.088h0.001c0.003,0.01,0.006,0.012,0.008,0.02c0.006,0.014,0.014,0.021,0.018,0.035
	c0.359,0.881,0.812,1.271,1.507,1.271h0.005c0.688,0,1.141-0.389,1.499-1.26c0.007-0.025,0.017-0.045,0.027-0.066
	c0.035-0.053,0.086-0.088,0.146-0.088s0.113,0.035,0.148,0.088h0.001c0.003,0.01,0.008,0.012,0.01,0.02
	c0.006,0.014,0.012,0.021,0.016,0.035c0.354,0.867,0.8,1.256,1.475,1.268c0.19-0.003,0.358-0.046,0.515-0.112l2.003-5.09
	C16.034,9.717,15.77,8.9,15.244,8.52l-0.601-0.438l-0.967-2.541h-2.222V4.086h-2.91v1.455H6.322L5.355,8.084l-0.6,0.436
	C4.23,8.9,3.966,9.717,4.165,10.334z M18.994,16.062c-0.187-0.203-0.354-0.459-0.501-0.816c-0.003-0.014-0.009-0.021-0.012-0.035
	c-0.005-0.008-0.008-0.01-0.012-0.02h-0.002c-0.033-0.053-0.084-0.088-0.146-0.088c-0.061,0-0.112,0.035-0.147,0.088
	c-0.013,0.021-0.021,0.041-0.027,0.066c-0.358,0.871-0.812,1.26-1.501,1.26h-0.005c-0.693,0-1.147-0.391-1.506-1.271
	c-0.005-0.014-0.01-0.021-0.014-0.035c-0.005-0.008-0.009-0.01-0.011-0.02h-0.004c-0.032-0.053-0.084-0.088-0.146-0.088
	c-0.061,0-0.11,0.035-0.146,0.088c-0.013,0.021-0.021,0.041-0.026,0.066c-0.355,0.855-0.801,1.244-1.471,1.256
	c-0.675-0.012-1.12-0.4-1.475-1.268c-0.004-0.014-0.01-0.021-0.016-0.035c-0.002-0.008-0.007-0.01-0.01-0.02h-0.001
	c-0.035-0.053-0.088-0.088-0.148-0.088s-0.111,0.035-0.146,0.088c-0.011,0.021-0.021,0.041-0.027,0.066
	c-0.358,0.871-0.811,1.26-1.499,1.26H9.99c-0.695,0-1.147-0.391-1.507-1.271c-0.004-0.014-0.012-0.021-0.018-0.035
	c-0.002-0.008-0.005-0.01-0.008-0.02H8.457c-0.037-0.053-0.089-0.088-0.148-0.088c-0.061,0-0.11,0.035-0.146,0.088
	c-0.011,0.021-0.021,0.041-0.027,0.066c-0.352,0.852-0.796,1.238-1.461,1.254c-0.667-0.016-1.111-0.404-1.465-1.266
	c-0.004-0.014-0.009-0.021-0.015-0.035c-0.003-0.008-0.007-0.01-0.008-0.02H5.184c-0.033-0.053-0.085-0.088-0.146-0.088
	c-0.062,0-0.114,0.035-0.147,0.088H4.889c-0.013,0.021-0.021,0.041-0.025,0.066c-0.359,0.871-0.815,1.26-1.504,1.26H3.356
	c-0.693,0-1.146-0.391-1.506-1.271c-0.005-0.014-0.01-0.021-0.016-0.035c-0.004-0.008-0.007-0.01-0.008-0.02H1.821
	c-0.032-0.053-0.082-0.088-0.146-0.088c-0.059,0-0.111,0.035-0.146,0.088c-0.013,0.021-0.021,0.041-0.026,0.066
	c-0.145,0.351-0.312,0.604-0.497,0.805C1.04,17.688,2.367,19,4,19h12C17.633,19,18.96,17.688,18.994,16.062z"/>
<g>
</g>
<g>
</g>
<g>
</g>
<g>
</g>
<g>
</g>
<g>
</g>
<g>
</g>
<g>
</g>
<g>
</g>
<g>
</g>
<g>
</g>
<g>
</g>
<g>
</g>
<g>
</g>
<g>
</g>
</svg>
