<?xml version="1.0" encoding="iso-8859-1"?>
<!-- Generator: Adobe Illustrator 16.0.4, SVG Export Plug-In . SVG Version: 6.00 Build 0)  -->
<!DOCTYPE svg PUBLIC "-//W3C//DTD SVG 1.1//EN" "http://www.w3.org/Graphics/SVG/1.1/DTD/svg11.dtd">
<svg version="1.1" id="Capa_1" xmlns="http://www.w3.org/2000/svg" xmlns:xlink="http://www.w3.org/1999/xlink" x="0px" y="0px"
	 width="20px" height="20px" viewBox="0 0 20 20" style="enable-background:new 0 0 20 20;" xml:space="preserve">
<path style="fill:#010002;" d="M12.854,9.35c0.188,0.225,0.281,0.541,0.281,0.951c0,0.373-0.083,0.654-0.251,0.848
	c-0.167,0.191-0.371,0.287-0.614,0.287c-0.254,0-0.463-0.1-0.631-0.299c-0.169-0.201-0.254-0.514-0.254-0.941
	c0-0.42,0.079-0.723,0.232-0.908c0.155-0.184,0.35-0.277,0.584-0.277C12.449,9.01,12.665,9.123,12.854,9.35z M20,4v12
	c0,2.2-1.8,4-4,4H4c-2.2,0-4-1.8-4-4V4c0-2.2,1.8-4,4-4h12C18.2,0,20,1.8,20,4z M17.5,2.5h-15v15h15V2.5z M16.475,16.475H3.525V6.32
	h12.949V16.475z M8.348,7.961H7.32C7.175,8.363,6.909,8.717,6.522,9.018C6.135,9.32,5.774,9.523,5.444,9.633v1.148
	c0.629-0.207,1.175-0.525,1.637-0.959v4.773h1.267V7.961z M14.556,11.295c0-1.186-0.215-2.039-0.646-2.557
	c-0.429-0.52-0.979-0.777-1.65-0.777c-0.616,0-1.121,0.205-1.52,0.615c-0.399,0.41-0.598,0.949-0.598,1.619
	c0,0.645,0.188,1.166,0.565,1.566c0.377,0.402,0.825,0.602,1.345,0.602c0.478,0,0.877-0.184,1.196-0.555
	c-0.051,0.76-0.168,1.258-0.352,1.498s-0.407,0.361-0.668,0.361c-0.208,0-0.375-0.061-0.501-0.182
	c-0.125-0.119-0.204-0.305-0.234-0.553l-1.226,0.133c0.09,0.549,0.294,0.959,0.612,1.234c0.319,0.275,0.737,0.412,1.253,0.412
	c0.719,0,1.303-0.268,1.751-0.803C14.332,13.377,14.556,12.504,14.556,11.295z"/>
<g>
</g>
<g>
</g>
<g>
</g>
<g>
</g>
<g>
</g>
<g>
</g>
<g>
</g>
<g>
</g>
<g>
</g>
<g>
</g>
<g>
</g>
<g>
</g>
<g>
</g>
<g>
</g>
<g>
</g>
</svg>
