<?xml version="1.0" encoding="iso-8859-1"?>
<!-- Generator: Adobe Illustrator 16.0.4, SVG Export Plug-In . SVG Version: 6.00 Build 0)  -->
<!DOCTYPE svg PUBLIC "-//W3C//DTD SVG 1.1//EN" "http://www.w3.org/Graphics/SVG/1.1/DTD/svg11.dtd">
<svg version="1.1" id="Capa_1" xmlns="http://www.w3.org/2000/svg" xmlns:xlink="http://www.w3.org/1999/xlink" x="0px" y="0px"
	 width="13.035px" height="12.369px" viewBox="0 0 13.035 12.369" style="enable-background:new 0 0 13.035 12.369;"
	 xml:space="preserve">
<path style="fill:#010002;" d="M10.32,12.369v-0.732H0v-3h10.32V7.881l2.715,2.244L10.32,12.369z M0,5.971l1.025,0.26h1.261
	c0-0.307,0.103-0.586,0.273-0.814H0V5.971z M11.767,3.426l-0.724-2.174V0.709h-2.27v4.707H4.727C4.898,5.645,5.001,5.924,5.001,6.23
	h4.231c0-0.75,0.608-1.357,1.358-1.357c0.527,0,0.983,0.303,1.208,0.742c0.08,0.156,0.132,0.334,0.144,0.52
	c0.002,0.031,0.007,0.062,0.007,0.096h1.086V3.969L11.767,3.426z M9.414,3.426V1.795h1.268l0.542,1.631H9.414z M3.645,5.236
	c-0.551,0-0.996,0.445-0.996,0.994c0,0.551,0.445,0.996,0.996,0.996c0.549,0,0.994-0.445,0.994-0.996
	C4.639,5.682,4.193,5.236,3.645,5.236z M3.645,6.773C3.344,6.773,3.1,6.529,3.1,6.23s0.244-0.543,0.545-0.543
	c0.298,0,0.543,0.244,0.543,0.543S3.942,6.773,3.645,6.773z M10.591,5.236c-0.551,0-0.996,0.445-0.996,0.994
	c0,0.551,0.445,0.996,0.996,0.996c0.549,0,0.996-0.445,0.996-0.996C11.587,5.682,11.14,5.236,10.591,5.236z M10.591,6.773
	c-0.3,0-0.543-0.244-0.543-0.543s0.243-0.543,0.543-0.543s0.543,0.244,0.543,0.543S10.891,6.773,10.591,6.773z M8.307,5.105H0V0
	h8.307V5.105z"/>
<g>
</g>
<g>
</g>
<g>
</g>
<g>
</g>
<g>
</g>
<g>
</g>
<g>
</g>
<g>
</g>
<g>
</g>
<g>
</g>
<g>
</g>
<g>
</g>
<g>
</g>
<g>
</g>
<g>
</g>
</svg>
