<?xml version="1.0" encoding="iso-8859-1"?>
<!-- Generator: Adobe Illustrator 16.0.4, SVG Export Plug-In . SVG Version: 6.00 Build 0)  -->
<!DOCTYPE svg PUBLIC "-//W3C//DTD SVG 1.1//EN" "http://www.w3.org/Graphics/SVG/1.1/DTD/svg11.dtd">
<svg version="1.1" id="Capa_1" xmlns="http://www.w3.org/2000/svg" xmlns:xlink="http://www.w3.org/1999/xlink" x="0px" y="0px"
	 width="15px" height="15.68px" viewBox="0 0 15 15.68" style="enable-background:new 0 0 15 15.68;" xml:space="preserve">
<path style="fill:#010002;" d="M5.939,7.259l0.945,0.301C6.74,8.087,6.498,8.478,6.16,8.736C5.824,8.992,5.395,9.12,4.877,9.12
	c-0.643,0-1.17-0.222-1.584-0.658c-0.412-0.439-0.619-1.039-0.619-1.8c0-0.807,0.207-1.432,0.623-1.875
	c0.416-0.445,0.961-0.668,1.639-0.668c0.592,0,1.072,0.175,1.441,0.522c0.221,0.207,0.385,0.504,0.494,0.893L5.906,5.763
	C5.847,5.513,5.728,5.315,5.547,5.17c-0.18-0.146-0.4-0.218-0.66-0.218c-0.359,0-0.65,0.129-0.873,0.387
	C3.791,5.596,3.68,6.013,3.68,6.59c0,0.611,0.109,1.046,0.33,1.306c0.219,0.262,0.506,0.392,0.857,0.392
	c0.26,0,0.482-0.083,0.668-0.248C5.723,7.872,5.857,7.614,5.939,7.259z M0,9.916h2.945c-0.196,0.262-0.314,0.582-0.314,0.936H1.18
	L0,10.552V9.916z M15,8.248v2.604h-1.25c0-0.037-0.005-0.072-0.008-0.109c-0.014-0.213-0.072-0.416-0.165-0.6
	c-0.259-0.506-0.783-0.852-1.39-0.852c-0.863,0-1.563,0.699-1.563,1.561H5.755c0-0.354-0.118-0.674-0.315-0.936h4.656V4.498h2.611
	v0.625l0.833,2.5L15,8.248z M12.915,7.623l-0.623-1.875h-1.459v1.875H12.915z M5.338,10.851c0,0.633-0.513,1.146-1.144,1.146
	c-0.634,0-1.146-0.516-1.146-1.146s0.513-1.145,1.146-1.145C4.825,9.707,5.338,10.22,5.338,10.851z M4.818,10.851
	c0-0.344-0.281-0.625-0.624-0.625c-0.347,0-0.628,0.281-0.628,0.625c0,0.348,0.281,0.625,0.628,0.625
	C4.537,11.476,4.818,11.198,4.818,10.851z M13.333,10.851c0,0.633-0.515,1.146-1.146,1.146c-0.636,0-1.146-0.516-1.146-1.146
	s0.514-1.145,1.146-1.145C12.818,9.707,13.333,10.22,13.333,10.851z M12.812,10.851c0-0.344-0.28-0.625-0.625-0.625
	c-0.348,0-0.625,0.281-0.625,0.625c0,0.348,0.277,0.625,0.625,0.625C12.532,11.476,12.812,11.198,12.812,10.851z M9.559,3.681H0
	v5.875h9.559V3.681z"/>
</svg>
