<?xml version="1.0" encoding="iso-8859-1"?>
<!-- Generator: Adobe Illustrator 16.0.4, SVG Export Plug-In . SVG Version: 6.00 Build 0)  -->
<!DOCTYPE svg PUBLIC "-//W3C//DTD SVG 1.1//EN" "http://www.w3.org/Graphics/SVG/1.1/DTD/svg11.dtd">
<svg version="1.1" id="Capa_1" xmlns="http://www.w3.org/2000/svg" xmlns:xlink="http://www.w3.org/1999/xlink" x="0px" y="0px"
	 width="20px" height="20px" viewBox="0 0 20 20" style="enable-background:new 0 0 20 20;" xml:space="preserve">
<path style="fill:#010002;" d="M16,0H4C1.8,0,0,1.8,0,4v12c0,2.2,1.8,4,4,4h12c2.2,0,4-1.8,4-4V4C20,1.8,18.2,0,16,0z M2.845,3.119
	c0-0.342,0.276-0.619,0.619-0.619h13.073c0.343,0,0.619,0.277,0.619,0.619v9.105c0,0.342-0.276,0.619-0.619,0.619H3.464
	c-0.343,0-0.619-0.277-0.619-0.619V3.119z M16.374,17.5L3.636,17.492c-0.781,0-1.255-0.619-1.052-1.373l0.291-1.066
	c0.203-0.758,1.011-1.373,1.792-1.373h10.628c0.782,0,1.595,0.615,1.809,1.367l0.308,1.088C17.624,16.887,17.156,17.502,16.374,17.5
	z M15.919,11.605H4.082V3.738h11.837V11.605z"/>
<g>
</g>
<g>
</g>
<g>
</g>
<g>
</g>
<g>
</g>
<g>
</g>
<g>
</g>
<g>
</g>
<g>
</g>
<g>
</g>
<g>
</g>
<g>
</g>
<g>
</g>
<g>
</g>
<g>
</g>
</svg>
