<?xml version="1.0" encoding="iso-8859-1"?>
<!-- Generator: Adobe Illustrator 16.0.4, SVG Export Plug-In . SVG Version: 6.00 Build 0)  -->
<!DOCTYPE svg PUBLIC "-//W3C//DTD SVG 1.1//EN" "http://www.w3.org/Graphics/SVG/1.1/DTD/svg11.dtd">
<svg version="1.1" id="Capa_1" xmlns="http://www.w3.org/2000/svg" xmlns:xlink="http://www.w3.org/1999/xlink" x="0px" y="0px"
	 width="20px" height="20px" viewBox="0 0 20 20" style="enable-background:new 0 0 20 20;" xml:space="preserve">
<path style="fill:#010002;" d="M16,0H4C1.8,0,0,1.8,0,4v12c0,2.2,1.8,4,4,4h12c2.2,0,4-1.8,4-4V4C20,1.8,18.2,0,16,0z M2.831,3.074
	c0-0.332,0.269-0.6,0.6-0.6h13.14c0.331,0,0.6,0.268,0.6,0.6v9.15c0,0.332-0.269,0.6-0.6,0.6H3.431c-0.331,0-0.6-0.268-0.6-0.6
	V3.074z M16.406,17.525L3.604,17.518c-0.785,0-1.261-0.621-1.057-1.379l0.292-1.072c0.204-0.762,1.017-1.379,1.802-1.379h10.68
	c0.787,0,1.604,0.617,1.818,1.373l0.31,1.094C17.662,16.91,17.192,17.529,16.406,17.525z M15.971,3.674H4.03v7.951h11.94V3.674z
	 M7.993,10.809c-0.059,0.096-0.161,0.15-0.267,0.15c-0.056,0-0.11-0.016-0.161-0.045C6.417,10.217,5.731,9,5.731,7.66
	c0-1.363,0.686-2.578,1.834-3.275C7.712,4.299,7.903,4.344,7.993,4.49c0.089,0.146,0.042,0.338-0.104,0.428
	C6.927,5.5,6.354,6.516,6.354,7.637c0,1.145,0.572,2.162,1.534,2.744C8.035,10.471,8.082,10.66,7.993,10.809z M8.657,9.801
	c-0.06,0.094-0.16,0.146-0.264,0.146c-0.057,0-0.114-0.016-0.165-0.049C7.455,9.412,6.994,8.574,6.994,7.66
	c0-0.938,0.461-1.773,1.233-2.262c0.144-0.088,0.338-0.049,0.43,0.098c0.092,0.145,0.048,0.338-0.097,0.43
	C7.97,6.299,7.617,6.938,7.617,7.637C7.617,8.359,7.97,9,8.56,9.371C8.705,9.465,8.749,9.656,8.657,9.801z M9.605,8.574
	c0.158,0.068,0.232,0.252,0.166,0.408C9.721,9.102,9.605,9.174,9.484,9.174c-0.04,0-0.082-0.01-0.121-0.025
	c-0.6-0.254-0.987-0.838-0.987-1.488c0-0.674,0.388-1.258,0.987-1.512c0.157-0.064,0.34,0.008,0.408,0.166
	c0.066,0.158-0.008,0.342-0.166,0.408C9.237,6.877,8.999,7.236,8.999,7.637C8.999,8.061,9.237,8.42,9.605,8.574z M10.637,9.148
	c-0.039,0.016-0.081,0.025-0.121,0.025c-0.121,0-0.236-0.072-0.287-0.191c-0.066-0.156,0.008-0.34,0.166-0.408
	c0.368-0.154,0.606-0.514,0.606-0.914c0-0.424-0.238-0.783-0.606-0.938c-0.158-0.066-0.232-0.25-0.166-0.408
	c0.067-0.158,0.251-0.23,0.408-0.166c0.6,0.254,0.987,0.838,0.987,1.488C11.624,8.311,11.236,8.895,10.637,9.148z M11.606,9.947
	c-0.104,0-0.204-0.053-0.264-0.146c-0.092-0.145-0.048-0.336,0.098-0.43C12.03,9,12.383,8.359,12.383,7.66
	c0-0.723-0.353-1.361-0.943-1.734c-0.145-0.092-0.188-0.285-0.097-0.43c0.092-0.146,0.285-0.186,0.43-0.098
	c0.772,0.488,1.233,1.324,1.233,2.238c0,0.938-0.461,1.775-1.234,2.262C11.721,9.932,11.663,9.947,11.606,9.947z M12.435,10.914
	c-0.051,0.029-0.105,0.045-0.161,0.045c-0.105,0-0.208-0.055-0.267-0.15c-0.089-0.148-0.042-0.338,0.105-0.428
	c0.961-0.582,1.534-1.6,1.534-2.721c0-1.145-0.573-2.16-1.534-2.742c-0.147-0.09-0.194-0.281-0.105-0.428
	c0.09-0.146,0.282-0.191,0.428-0.105c1.149,0.697,1.835,1.912,1.835,3.252C14.27,9.002,13.584,10.217,12.435,10.914z"/>
<g>
</g>
<g>
</g>
<g>
</g>
<g>
</g>
<g>
</g>
<g>
</g>
<g>
</g>
<g>
</g>
<g>
</g>
<g>
</g>
<g>
</g>
<g>
</g>
<g>
</g>
<g>
</g>
<g>
</g>
</svg>
