<?xml version="1.0" encoding="iso-8859-1"?>
<!-- Generator: Adobe Illustrator 16.0.4, SVG Export Plug-In . SVG Version: 6.00 Build 0)  -->
<!DOCTYPE svg PUBLIC "-//W3C//DTD SVG 1.1//EN" "http://www.w3.org/Graphics/SVG/1.1/DTD/svg11.dtd">
<svg version="1.1" id="Capa_1" xmlns="http://www.w3.org/2000/svg" xmlns:xlink="http://www.w3.org/1999/xlink" x="0px" y="0px"
	 width="15px" height="15.051px" viewBox="0 0 15 15.051" style="enable-background:new 0 0 15 15.051;" xml:space="preserve">
<path style="fill:#010002;" d="M12.821,11.211c0.788,0,1.604,0.62,1.819,1.376l0.309,1.093c0.214,0.756-0.256,1.374-1.042,1.371
	L1.105,15.044c-0.788,0-1.261-0.622-1.059-1.381l0.293-1.071c0.205-0.761,1.018-1.381,1.801-1.381H12.821z M14.669,9.75V0.6
	c0-0.332-0.268-0.6-0.6-0.6H0.931c-0.33,0-0.6,0.268-0.6,0.6v9.15c0,0.329,0.27,0.6,0.6,0.6H14.07
	C14.401,10.35,14.669,10.079,14.669,9.75z M1.53,1.199h11.94V9.15H1.53V1.199z"/>
<g>
</g>
<g>
</g>
<g>
</g>
<g>
</g>
<g>
</g>
<g>
</g>
<g>
</g>
<g>
</g>
<g>
</g>
<g>
</g>
<g>
</g>
<g>
</g>
<g>
</g>
<g>
</g>
<g>
</g>
</svg>
