<?xml version="1.0" encoding="iso-8859-1"?>
<!-- Generator: Adobe Illustrator 16.0.4, SVG Export Plug-In . SVG Version: 6.00 Build 0)  -->
<!DOCTYPE svg PUBLIC "-//W3C//DTD SVG 1.1//EN" "http://www.w3.org/Graphics/SVG/1.1/DTD/svg11.dtd">
<svg version="1.1" id="Capa_1" xmlns="http://www.w3.org/2000/svg" xmlns:xlink="http://www.w3.org/1999/xlink" x="0px" y="0px"
	 width="20px" height="20px" viewBox="0 0 20 20" style="enable-background:new 0 0 20 20;" xml:space="preserve">
<path style="fill:#010002;" d="M16,0H4C1.8,0,0,1.8,0,4v12c0,2.2,1.8,4,4,4h12c2.2,0,4-1.8,4-4V4C20,1.8,18.2,0,16,0z M5.157,2.501
	c1.467,0,2.654,1.19,2.654,2.655c0,1.47-1.188,2.656-2.654,2.656S2.5,6.626,2.5,5.156C2.5,3.691,3.69,2.501,5.157,2.501z
	 M5.157,17.499c-1.467,0-2.657-1.189-2.657-2.656s1.19-2.655,2.657-2.655s2.654,1.188,2.654,2.655S6.624,17.499,5.157,17.499z
	 M9.999,12.657c-1.468,0-2.656-1.189-2.656-2.656c0-1.468,1.188-2.657,2.656-2.657s2.656,1.189,2.656,2.657
	C12.655,11.468,11.467,12.657,9.999,12.657z M14.842,17.499c-1.467,0-2.655-1.189-2.655-2.656s1.188-2.655,2.655-2.655
	c1.466,0,2.658,1.188,2.658,2.655S16.308,17.499,14.842,17.499z M14.842,7.812c-1.467,0-2.655-1.187-2.655-2.656
	c0-1.465,1.188-2.655,2.655-2.655c1.466,0,2.658,1.19,2.658,2.655C17.5,6.626,16.308,7.812,14.842,7.812z"/>
<g>
</g>
<g>
</g>
<g>
</g>
<g>
</g>
<g>
</g>
<g>
</g>
<g>
</g>
<g>
</g>
<g>
</g>
<g>
</g>
<g>
</g>
<g>
</g>
<g>
</g>
<g>
</g>
<g>
</g>
</svg>
