<?xml version="1.0" encoding="iso-8859-1"?>
<!-- Generator: Adobe Illustrator 16.0.4, SVG Export Plug-In . SVG Version: 6.00 Build 0)  -->
<!DOCTYPE svg PUBLIC "-//W3C//DTD SVG 1.1//EN" "http://www.w3.org/Graphics/SVG/1.1/DTD/svg11.dtd">
<svg version="1.1" id="Capa_1" xmlns="http://www.w3.org/2000/svg" xmlns:xlink="http://www.w3.org/1999/xlink" x="0px" y="0px"
	 width="20px" height="20px" viewBox="0 0 20 20" style="enable-background:new 0 0 20 20;" xml:space="preserve">
<path style="fill:#010002;" d="M8.37,5.727c0.231-0.267,0.543-0.458,0.934-0.57v2.901c-0.431-0.156-0.752-0.36-0.964-0.616
	C8.127,7.188,8.021,6.912,8.021,6.616C8.021,6.291,8.138,5.995,8.37,5.727z M10.746,10.81v3.269
	c0.497-0.077,0.901-0.272,1.212-0.582c0.312-0.312,0.467-0.675,0.467-1.095c0-0.373-0.131-0.698-0.392-0.969
	C11.771,11.162,11.342,10.953,10.746,10.81z M20,4v12c0,2.2-1.8,4-4,4H4c-2.2,0-4-1.8-4-4V4c0-2.2,1.8-4,4-4h12C18.2,0,20,1.8,20,4z
	 M14.862,12.099c0-0.904-0.288-1.646-0.865-2.225c-0.576-0.58-1.66-1.051-3.251-1.414V5.183c0.643,0.234,1.041,0.681,1.193,1.341
	l2.516-0.277c-0.173-0.838-0.571-1.507-1.194-2.007c-0.622-0.501-1.461-0.805-2.515-0.909V2.5H9.304v0.83
	c-1.14,0.094-2.053,0.453-2.739,1.076C5.878,5.029,5.536,5.799,5.536,6.717c0,0.905,0.303,1.675,0.909,2.311
	c0.607,0.634,1.56,1.107,2.859,1.421v3.512c-0.358-0.144-0.683-0.378-0.974-0.703c-0.292-0.324-0.491-0.711-0.598-1.158
	l-2.594,0.236c0.199,1.101,0.656,1.952,1.371,2.556c0.717,0.604,1.647,0.965,2.794,1.083V17.5h1.442v-1.569
	c1.292-0.156,2.302-0.58,3.027-1.274C14.499,13.965,14.862,13.111,14.862,12.099z"/>
<g>
</g>
<g>
</g>
<g>
</g>
<g>
</g>
<g>
</g>
<g>
</g>
<g>
</g>
<g>
</g>
<g>
</g>
<g>
</g>
<g>
</g>
<g>
</g>
<g>
</g>
<g>
</g>
<g>
</g>
</svg>
