<?xml version="1.0" encoding="iso-8859-1"?>
<!-- Generator: Adobe Illustrator 16.0.4, SVG Export Plug-In . SVG Version: 6.00 Build 0)  -->
<!DOCTYPE svg PUBLIC "-//W3C//DTD SVG 1.1//EN" "http://www.w3.org/Graphics/SVG/1.1/DTD/svg11.dtd">
<svg version="1.1" id="Capa_1" xmlns="http://www.w3.org/2000/svg" xmlns:xlink="http://www.w3.org/1999/xlink" x="0px" y="0px"
	 width="13.946px" height="15px" viewBox="0 0 13.946 15" style="enable-background:new 0 0 13.946 15;" xml:space="preserve">
<path style="fill:#010002;" d="M12.492,1.574l-1.97,1.833H3.423l-1.97-1.833c0,0,0.981-1.373,2.597-1.553
	c1.582-0.176,2.131,0.794,2.924,0.834c0.791-0.04,1.342-1.01,2.922-0.834C11.513,0.201,12.492,1.574,12.492,1.574z M7.245,10.375
	v1.384c0.21-0.034,0.382-0.115,0.513-0.247c0.132-0.132,0.198-0.286,0.198-0.462c0-0.158-0.056-0.295-0.167-0.409
	C7.679,10.525,7.497,10.438,7.245,10.375z M6.092,8.603c0,0.126,0.045,0.242,0.135,0.349c0.09,0.109,0.226,0.195,0.408,0.262V7.986
	C6.469,8.032,6.338,8.113,6.24,8.227C6.141,8.342,6.092,8.465,6.092,8.603z M13.686,13.359c0,0-0.427,1.641-2.396,1.641H2.66
	c-1.971,0-2.399-1.641-2.399-1.641c-1.289-5.687,2.631-8.771,2.631-8.771h8.163C11.055,4.588,14.974,7.673,13.686,13.359z
	 M8.985,10.923c0-0.385-0.121-0.698-0.366-0.943C8.375,9.735,7.918,9.537,7.245,9.382V7.996c0.272,0.099,0.44,0.289,0.505,0.566
	l1.064-0.116C8.74,8.093,8.572,7.809,8.309,7.598S7.69,7.259,7.245,7.213V6.861h-0.61v0.352c-0.482,0.04-0.868,0.192-1.158,0.455
	c-0.291,0.264-0.435,0.59-0.435,0.977c0,0.385,0.127,0.708,0.385,0.979c0.256,0.267,0.659,0.468,1.208,0.6v1.485
	c-0.151-0.061-0.289-0.16-0.412-0.297C6.1,11.273,6.016,11.11,5.971,10.923l-1.097,0.098c0.083,0.466,0.277,0.826,0.58,1.081
	c0.303,0.257,0.696,0.409,1.181,0.457v0.646h0.61v-0.663c0.547-0.066,0.973-0.246,1.28-0.539
	C8.832,11.711,8.985,11.349,8.985,10.923z"/>
<g>
</g>
<g>
</g>
<g>
</g>
<g>
</g>
<g>
</g>
<g>
</g>
<g>
</g>
<g>
</g>
<g>
</g>
<g>
</g>
<g>
</g>
<g>
</g>
<g>
</g>
<g>
</g>
<g>
</g>
</svg>
