<?xml version="1.0" encoding="iso-8859-1"?>
<!-- Generator: Adobe Illustrator 16.0.4, SVG Export Plug-In . SVG Version: 6.00 Build 0)  -->
<!DOCTYPE svg PUBLIC "-//W3C//DTD SVG 1.1//EN" "http://www.w3.org/Graphics/SVG/1.1/DTD/svg11.dtd">
<svg version="1.1" id="Capa_1" xmlns="http://www.w3.org/2000/svg" xmlns:xlink="http://www.w3.org/1999/xlink" x="0px" y="0px"
	 width="20px" height="20px" viewBox="0 0 20 20" style="enable-background:new 0 0 20 20;" xml:space="preserve">
<path style="fill:#010002;" d="M16,0H4C1.8,0,0,1.8,0,4v12c0,2.2,1.8,4,4,4h12c2.2,0,4-1.8,4-4V4C20,1.8,18.2,0,16,0z M17.5,17.252
	h-15V8.346l7.501-5.6l7.499,5.6V17.252z M10.001,11.732l6.55,5.07H3.449L10.001,11.732z M7.926,6.742
	c-0.222,0.404-0.331,0.84-0.331,1.307c0,0.426,0.097,0.82,0.291,1.182c0.195,0.361,0.491,0.635,0.892,0.82
	c0.398,0.186,0.872,0.277,1.422,0.277c0.565,0,1.047-0.109,1.441-0.328c0.344-0.193,0.599-0.457,0.765-0.795h-0.53
	C11.7,9.428,11.47,9.592,11.184,9.703c-0.287,0.111-0.629,0.166-1.025,0.166c-0.412,0-0.778-0.066-1.099-0.197
	C8.74,9.539,8.492,9.33,8.313,9.041C8.138,8.754,8.048,8.434,8.048,8.084c0-0.361,0.079-0.709,0.237-1.041
	c0.161-0.334,0.396-0.594,0.709-0.775C9.308,6.082,9.689,5.99,10.141,5.99c0.53,0,0.944,0.139,1.241,0.412
	c0.296,0.277,0.443,0.619,0.443,1.027c0,0.229-0.053,0.449-0.158,0.662c-0.104,0.211-0.241,0.383-0.411,0.508
	c-0.126,0.098-0.229,0.145-0.31,0.145c-0.026,0-0.05-0.01-0.068-0.031c-0.02-0.021-0.028-0.051-0.028-0.094
	c0-0.033,0.012-0.105,0.035-0.219l0.377-1.789h-0.659l-0.063,0.277c-0.141-0.227-0.359-0.34-0.655-0.34
	c-0.416,0-0.756,0.197-1.022,0.59c-0.22,0.322-0.329,0.678-0.329,1.07c0,0.314,0.092,0.568,0.273,0.76
	c0.182,0.189,0.41,0.285,0.687,0.285c0.256,0,0.483-0.096,0.679-0.285c0.022,0.094,0.07,0.164,0.14,0.213
	c0.07,0.049,0.174,0.072,0.312,0.072c0.513,0,0.932-0.217,1.26-0.648c0.261-0.344,0.392-0.727,0.392-1.15
	c0-0.355-0.087-0.684-0.258-0.984c-0.173-0.301-0.421-0.531-0.747-0.695c-0.326-0.162-0.699-0.244-1.117-0.244
	c-0.495,0-0.934,0.102-1.317,0.305C8.449,6.037,8.146,6.34,7.926,6.742z M10.307,8.125c-0.063,0.195-0.14,0.344-0.228,0.445
	c-0.062,0.07-0.125,0.123-0.188,0.156c-0.083,0.047-0.171,0.07-0.266,0.07c-0.127,0-0.232-0.051-0.319-0.15
	c-0.085-0.1-0.127-0.254-0.127-0.465c0-0.158,0.03-0.34,0.092-0.545s0.153-0.361,0.274-0.473c0.122-0.111,0.254-0.166,0.396-0.166
	c0.133,0,0.243,0.051,0.33,0.152c0.088,0.1,0.132,0.244,0.132,0.432C10.403,7.75,10.37,7.932,10.307,8.125z M8.563,12.234
	l-5.534,4.283V8.523L8.563,12.234z M11.437,12.234l5.534-3.711v7.994L11.437,12.234z"/>
<g>
</g>
<g>
</g>
<g>
</g>
<g>
</g>
<g>
</g>
<g>
</g>
<g>
</g>
<g>
</g>
<g>
</g>
<g>
</g>
<g>
</g>
<g>
</g>
<g>
</g>
<g>
</g>
<g>
</g>
</svg>
