<?xml version="1.0" encoding="iso-8859-1"?>
<!-- Generator: Adobe Illustrator 16.0.4, SVG Export Plug-In . SVG Version: 6.00 Build 0)  -->
<!DOCTYPE svg PUBLIC "-//W3C//DTD SVG 1.1//EN" "http://www.w3.org/Graphics/SVG/1.1/DTD/svg11.dtd">
<svg version="1.1" id="Capa_1" xmlns="http://www.w3.org/2000/svg" xmlns:xlink="http://www.w3.org/1999/xlink" x="0px" y="0px"
	 width="20px" height="20px" viewBox="0 0 20 20" style="enable-background:new 0 0 20 20;" xml:space="preserve">
<path style="fill:#010002;" d="M16,0H4C1.8,0,0,1.8,0,4v12c0,2.2,1.8,4,4,4h12c2.2,0,4-1.8,4-4V4C20,1.8,18.2,0,16,0z
	 M11.018,12.772l-0.779,0.391c-0.381-0.058-0.585-0.218-0.78-0.391v-0.78l1.17-0.391L11.018,12.772z M7.897,8.873
	c0.068-0.455,0.114-0.686,0.391-0.78c0.195,0.076,0.197-0.066,0.391,0c0.4,0.125,0.734,0.405,0.779,0.39l0.088,0.011
	c0.245-0.081,0.569,0.014,0.692,0.379c0.106,0.322,0.062,0.434,0,0.78c-0.064,0.345-0.208,0.67-0.391,0.78
	c-0.078,0.026-0.272,0.558-0.78,0.78H8.679l-0.391-0.39c-0.153-0.155-0.349-0.266-0.391-0.39C7.745,9.974,7.831,9.33,7.897,8.873z
	 M7.117,10.043c0.089,0.257,0.294,0.292,0,0.39l-0.779,0.39l-0.779-0.779c-0.104-0.305,0.024-0.501,0.39-0.78l0.78,0.389
	C6.823,9.772,7.087,9.953,7.117,10.043z M5.168,7.312c0.16-0.139,0.253-0.345,0.391-0.39c0.263-0.087,0.544-0.115,0.779,0
	c0.237,0.119,0.329,0.208,0.391,0.39c0.076,0.229-0.068,0.415-0.391,0.78l-1.17,0.39V7.312z M4,19c-1.654,0-3-1.346-3-3V4.501
	c0.25-0.003,0.534,0.011,0.703,0.082l1.038,0.199l0.867,0.582c0.238,1.848-0.061,2.945,0.391,4.289
	c0.071,0.218,0.549,0.889,0.778,1.17l0.057,1.094c1.711,1.809,2.939,1.768,3.153,1.882l1.471,0.924
	c0.219,0.303,0.584,0.887,0.78,1.17c0.196,0.286,0.213,0.5,0.39,0.78c0.413,0.395,0.762,1.001,0.78,1.169
	c0.013,0.119,0.714,0.699,1.189,1.158H4z M14.138,15.502l-1.561,0.391c-0.06-0.135-0.292-0.379-0.779-0.78
	c-0.461-0.414-0.771-0.753-0.78-0.78c-0.109-0.331,0.146-0.984,0.391-1.56c0.251-0.603,0.418-0.851,0.779-1.17h0.39
	c0.763-0.255,1.04-0.186,1.561,0.391c0.318,0.359,0.467,1.01,0.779,1.95C14.957,14.059,14.306,15.447,14.138,15.502z"/>
<g>
</g>
<g>
</g>
<g>
</g>
<g>
</g>
<g>
</g>
<g>
</g>
<g>
</g>
<g>
</g>
<g>
</g>
<g>
</g>
<g>
</g>
<g>
</g>
<g>
</g>
<g>
</g>
<g>
</g>
</svg>
