<?xml version="1.0" encoding="iso-8859-1"?>
<!-- Generator: Adobe Illustrator 16.0.4, SVG Export Plug-In . SVG Version: 6.00 Build 0)  -->
<!DOCTYPE svg PUBLIC "-//W3C//DTD SVG 1.1//EN" "http://www.w3.org/Graphics/SVG/1.1/DTD/svg11.dtd">
<svg version="1.1" id="Capa_1" xmlns="http://www.w3.org/2000/svg" xmlns:xlink="http://www.w3.org/1999/xlink" x="0px" y="0px"
	 width="14.419px" height="15px" viewBox="0 0 14.419 15" style="enable-background:new 0 0 14.419 15;" xml:space="preserve">
<path style="fill:#010002;" d="M6.617,5.543c0.089,0.257,0.294,0.292,0,0.39l-0.779,0.39L5.059,5.543
	c-0.104-0.305,0.024-0.501,0.39-0.78l0.78,0.389C6.323,5.272,6.587,5.453,6.617,5.543z M5.838,2.422
	c-0.235-0.115-0.517-0.087-0.779,0c-0.138,0.045-0.23,0.251-0.391,0.39v1.17l1.17-0.39c0.322-0.366,0.467-0.552,0.391-0.78
	C6.167,2.631,6.075,2.541,5.838,2.422z M9.046,3.994L8.958,3.983c-0.045,0.015-0.379-0.265-0.779-0.39
	c-0.193-0.066-0.195,0.076-0.391,0c-0.276,0.094-0.322,0.325-0.391,0.78c-0.066,0.457-0.152,1.102,0,1.56
	c0.042,0.124,0.237,0.235,0.391,0.39l0.391,0.39h0.389c0.508-0.222,0.702-0.753,0.78-0.78c0.183-0.11,0.326-0.436,0.391-0.78
	c0.062-0.346,0.106-0.458,0-0.78C9.615,4.007,9.291,3.913,9.046,3.994z M8.958,7.493v0.78c0.195,0.173,0.399,0.333,0.78,0.391
	l0.779-0.391l-0.39-1.17L8.958,7.493z M13.638,7.493c-0.521-0.577-0.798-0.646-1.561-0.391h-0.39
	c-0.361,0.32-0.528,0.567-0.779,1.17c-0.245,0.576-0.5,1.229-0.391,1.56c0.01,0.026,0.319,0.366,0.78,0.78
	c0.487,0.401,0.72,0.646,0.779,0.78l1.561-0.391c0.168-0.055,0.819-1.443,0.779-1.559C14.104,8.502,13.956,7.852,13.638,7.493z
	 M12.48,14.979c-0.004-0.026-0.026-0.077-0.013-0.077c-0.292-0.416-1.543-1.401-1.56-1.56c-0.019-0.168-0.367-0.775-0.78-1.169
	c-0.177-0.28-0.193-0.494-0.39-0.78c-0.196-0.284-0.562-0.867-0.78-1.17L7.487,9.298C7.273,9.184,6.045,9.225,4.334,7.416
	L4.277,6.322C4.048,6.042,3.57,5.37,3.499,5.152C3.048,3.809,3.347,2.711,3.108,0.863L2.241,0.282L1.203,0.083
	C0.853-0.064,0,0.029,0,0.029V15h12.484h0.03L12.48,14.979z"/>
<g>
</g>
<g>
</g>
<g>
</g>
<g>
</g>
<g>
</g>
<g>
</g>
<g>
</g>
<g>
</g>
<g>
</g>
<g>
</g>
<g>
</g>
<g>
</g>
<g>
</g>
<g>
</g>
<g>
</g>
</svg>
