<?xml version="1.0" encoding="iso-8859-1"?>
<!-- Generator: Adobe Illustrator 16.0.4, SVG Export Plug-In . SVG Version: 6.00 Build 0)  -->
<!DOCTYPE svg PUBLIC "-//W3C//DTD SVG 1.1//EN" "http://www.w3.org/Graphics/SVG/1.1/DTD/svg11.dtd">
<svg version="1.1" id="Capa_1" xmlns="http://www.w3.org/2000/svg" xmlns:xlink="http://www.w3.org/1999/xlink" x="0px" y="0px"
	 width="15px" height="14.469px" viewBox="0 0 15 14.469" style="enable-background:new 0 0 15 14.469;" xml:space="preserve">
<path style="fill:#010002;" d="M3.577,8.482c-0.683,0-1.228,0.546-1.228,1.227c0,0.679,0.545,1.228,1.228,1.228
	c0.676,0,1.223-0.549,1.223-1.228C4.8,9.028,4.253,8.482,3.577,8.482z M3.574,10.321c-0.337,0-0.614-0.272-0.614-0.613
	c0-0.338,0.277-0.612,0.614-0.612c0.34,0,0.613,0.274,0.613,0.612C4.188,10.048,3.914,10.321,3.574,10.321z M11.427,8.482
	c-0.679,0-1.228,0.546-1.228,1.227c0,0.679,0.549,1.228,1.228,1.228c0.677,0,1.226-0.549,1.226-1.228
	C12.652,9.028,12.104,8.482,11.427,8.482z M11.427,10.321c-0.34,0-0.614-0.272-0.614-0.613c0-0.338,0.274-0.612,0.614-0.612
	c0.337,0,0.612,0.274,0.612,0.612C12.039,10.048,11.764,10.321,11.427,10.321z M13.119,6.414l-1.098-2.182
	c-0.193-0.385-0.705-0.7-1.137-0.7H0.784C0.354,3.532,0,3.887,0,4.316v5.774h2.108c-0.031-0.123-0.055-0.25-0.055-0.384
	c0-0.84,0.683-1.521,1.523-1.521c0.836,0,1.519,0.683,1.519,1.521c0,0.134-0.023,0.261-0.055,0.384h4.92
	c-0.032-0.123-0.056-0.25-0.056-0.384c0-0.84,0.682-1.521,1.521-1.521s1.521,0.683,1.521,1.521c0,0.134-0.021,0.261-0.055,0.384H15
	v-1.7C15,7.959,14.354,6.56,13.119,6.414z M3.199,6.414H0.6V4.113h2.6L3.199,6.414L3.199,6.414z M6.198,6.414h-2.6V4.113h2.6V6.414z
	 M9.195,6.414H6.598V4.113h2.599v2.301H9.195z M9.939,6.414V4.113h0.774c0.274,0,0.603,0.201,0.726,0.446l0.934,1.854L9.939,6.414
	L9.939,6.414z"/>
</svg>
