<?xml version="1.0" encoding="iso-8859-1"?>
<!-- Generator: Adobe Illustrator 16.0.4, SVG Export Plug-In . SVG Version: 6.00 Build 0)  -->
<!DOCTYPE svg PUBLIC "-//W3C//DTD SVG 1.1//EN" "http://www.w3.org/Graphics/SVG/1.1/DTD/svg11.dtd">
<svg version="1.1" id="Capa_1" xmlns="http://www.w3.org/2000/svg" xmlns:xlink="http://www.w3.org/1999/xlink" x="0px" y="0px"
	 width="20px" height="20px" viewBox="0 0 20 20" style="enable-background:new 0 0 20 20;" xml:space="preserve">
<path style="fill:#010002;" d="M6.673,8.343c0-0.365,0.296-0.66,0.659-0.66c0.366,0,0.662,0.295,0.662,0.66
	c0,0.364-0.296,0.66-0.662,0.66C6.969,9.003,6.673,8.707,6.673,8.343z M12.667,9.001c0.362,0,0.66-0.294,0.66-0.66
	c0-0.363-0.298-0.659-0.66-0.659c-0.366,0-0.661,0.296-0.661,0.659C12.006,8.707,12.301,9.001,12.667,9.001z M9.592,12.099
	c0,0.223,0.184,0.404,0.407,0.404c0.226,0,0.406-0.182,0.406-0.404c0-0.225-0.181-0.403-0.406-0.403
	C9.775,11.695,9.592,11.874,9.592,12.099z M11.234,11.967c-0.042-0.008-0.078,0.017-0.105,0.045
	c-0.026,0.029-0.439,0.579-0.747,0.632c-0.07-0.009-0.147-0.045-0.343-0.045H9.961c-0.196,0-0.273,0.036-0.344,0.045
	c-0.307-0.053-0.721-0.603-0.75-0.632c-0.026-0.028-0.061-0.053-0.103-0.045c-0.058,0.01-0.095,0.063-0.083,0.122
	c0.005,0.028,0.039,0.08,0.057,0.106s0.378,0.583,0.589,0.711c0.204,0.124,0.212,0.069,0.229,0.249l0.025,0.535l-0.077,1.556
	c-0.001,0.014,0,0.088,0.005,0.092c0.02,0.065,0.082,0.115,0.152,0.115s0.131-0.045,0.155-0.106c0-0.002,0.182-1.27,0.182-1.27
	s0.181,1.268,0.181,1.27c0.027,0.062,0.086,0.106,0.157,0.106s0.133-0.05,0.154-0.115c0.002-0.004,0.005-0.078,0.002-0.092
	l-0.076-1.556l0.026-0.535c0.018-0.18,0.024-0.125,0.229-0.249c0.211-0.128,0.571-0.685,0.589-0.711s0.051-0.078,0.056-0.106
	C11.328,12.03,11.291,11.977,11.234,11.967z M8.87,11.917c0.032,0.078,0.123,0.117,0.202,0.085c0.079-0.035,0.114-0.124,0.081-0.204
	c0,0-0.655-1.777-0.819-2.106C8.173,9.357,8.013,9.156,7.396,9.156H7.271c-0.615,0-0.776,0.201-0.939,0.535
	c-0.159,0.329-0.818,2.106-0.818,2.106c-0.035,0.08,0.003,0.169,0.08,0.204c0.079,0.032,0.172-0.007,0.205-0.085l0.896-1.785
	l-0.445,2.731h0.43l0.135,2.435c0,0.085,0.069,0.155,0.152,0.155c0.087,0,0.155-0.07,0.155-0.155l0.134-2.435h0.147l0.143,2.435
	c0,0.085,0.068,0.155,0.156,0.155c0.084,0,0.153-0.07,0.153-0.155l0.132-2.435h0.431l-0.443-2.731L8.87,11.917z M20,4v12
	c0,2.2-1.8,4-4,4H4c-2.2,0-4-1.8-4-4V4c0-2.2,1.8-4,4-4h12C18.2,0,20,1.8,20,4z M17.5,10.938l-7.5-7.5l-7.5,7.5h1.875v5.625h11.25
	v-5.625H17.5z M11.129,11.915l0.809-1.784l0.044,1.435l-0.129,3.609c-0.009,0.143,0.1,0.268,0.241,0.277
	c0.007,0.001,0.012,0.001,0.02,0.001c0.133,0,0.247-0.104,0.259-0.242l0.293-2.972l0.295,2.972c0.008,0.139,0.123,0.242,0.258,0.242
	c0.006,0,0.012,0,0.02-0.001c0.143-0.01,0.248-0.135,0.239-0.277l-0.127-3.609h0.002l0.044-1.435l0.805,1.784
	c0.033,0.079,0.126,0.117,0.204,0.084c0.08-0.033,0.118-0.125,0.083-0.205c0,0-0.567-1.776-0.73-2.105
	c-0.162-0.331-0.412-0.533-1.027-0.533h-0.127c-0.615,0-0.867,0.202-1.028,0.533c-0.163,0.329-0.729,2.105-0.729,2.105
	c-0.033,0.08,0.002,0.172,0.081,0.205S11.097,11.994,11.129,11.915z"/>
<g>
</g>
<g>
</g>
<g>
</g>
<g>
</g>
<g>
</g>
<g>
</g>
<g>
</g>
<g>
</g>
<g>
</g>
<g>
</g>
<g>
</g>
<g>
</g>
<g>
</g>
<g>
</g>
<g>
</g>
</svg>
