<?xml version="1.0" encoding="iso-8859-1"?>
<!-- Generator: Adobe Illustrator 16.0.4, SVG Export Plug-In . SVG Version: 6.00 Build 0)  -->
<!DOCTYPE svg PUBLIC "-//W3C//DTD SVG 1.1//EN" "http://www.w3.org/Graphics/SVG/1.1/DTD/svg11.dtd">
<svg version="1.1" id="Capa_1" xmlns="http://www.w3.org/2000/svg" xmlns:xlink="http://www.w3.org/1999/xlink" x="0px" y="0px"
	 width="15px" height="13.125px" viewBox="0 0 15 13.125" style="enable-background:new 0 0 15 13.125;" xml:space="preserve">
<path style="fill:#010002;" d="M7.5,0L0,7.5h1.875v5.625h11.25V7.5H15L7.5,0z M10.167,4.244c0.362,0,0.66,0.296,0.66,0.659
	c0,0.366-0.298,0.66-0.66,0.66c-0.366,0-0.661-0.294-0.661-0.66C9.506,4.54,9.801,4.244,10.167,4.244z M7.499,8.258
	c0.226,0,0.406,0.179,0.406,0.403c0,0.223-0.181,0.404-0.406,0.404c-0.224,0-0.407-0.182-0.407-0.404
	C7.092,8.437,7.275,8.258,7.499,8.258z M4.832,4.245c0.366,0,0.662,0.295,0.662,0.66c0,0.364-0.296,0.66-0.662,0.66
	c-0.363,0-0.659-0.296-0.659-0.66C4.173,4.54,4.469,4.245,4.832,4.245z M5.486,9.426L5.354,11.86c0,0.085-0.069,0.155-0.153,0.155
	c-0.088,0-0.156-0.07-0.156-0.155L4.902,9.426H4.755L4.621,11.86c0,0.085-0.068,0.155-0.155,0.155c-0.083,0-0.152-0.07-0.152-0.155
	L4.179,9.426h-0.43l0.445-2.731L3.298,8.479C3.265,8.558,3.172,8.597,3.093,8.564C3.016,8.529,2.978,8.44,3.013,8.36
	c0,0,0.659-1.777,0.818-2.106C3.994,5.92,4.155,5.719,4.771,5.719h0.125c0.617,0,0.777,0.201,0.938,0.535
	C5.998,6.583,6.653,8.36,6.653,8.36c0.033,0.08-0.002,0.169-0.081,0.204C6.493,8.597,6.402,8.558,6.37,8.479L5.474,6.694
	l0.443,2.731H5.486z M8.761,8.758C8.743,8.784,8.383,9.341,8.172,9.469C7.968,9.593,7.961,9.538,7.943,9.718l-0.026,0.535
	l0.076,1.556c0.003,0.014,0,0.088-0.002,0.092c-0.021,0.065-0.083,0.115-0.154,0.115s-0.13-0.045-0.157-0.106
	c0-0.002-0.181-1.27-0.181-1.27s-0.182,1.268-0.182,1.27c-0.024,0.062-0.085,0.106-0.155,0.106S7.029,11.966,7.01,11.9
	c-0.005-0.004-0.006-0.078-0.005-0.092l0.077-1.556L7.057,9.718c-0.018-0.18-0.025-0.125-0.229-0.249
	C6.616,9.341,6.256,8.784,6.238,8.758S6.187,8.68,6.182,8.651C6.17,8.593,6.207,8.539,6.265,8.529
	c0.042-0.008,0.076,0.017,0.103,0.045c0.029,0.029,0.443,0.579,0.75,0.632c0.07-0.009,0.147-0.045,0.344-0.045h0.078
	c0.195,0,0.272,0.036,0.343,0.045c0.308-0.053,0.721-0.603,0.747-0.632c0.027-0.028,0.063-0.053,0.105-0.045
	c0.057,0.01,0.094,0.063,0.082,0.122C8.812,8.68,8.778,8.731,8.761,8.758z M11.904,8.562c-0.078,0.033-0.171-0.005-0.204-0.084
	l-0.805-1.784l-0.044,1.435H10.85l0.127,3.609c0.009,0.143-0.097,0.268-0.239,0.277c-0.008,0.001-0.014,0.001-0.02,0.001
	c-0.135,0-0.25-0.104-0.258-0.242l-0.295-2.972l-0.293,2.972c-0.012,0.139-0.126,0.242-0.259,0.242c-0.008,0-0.013,0-0.02-0.001
	c-0.142-0.01-0.25-0.135-0.241-0.277l0.129-3.609L9.438,6.693L8.629,8.478C8.597,8.557,8.506,8.595,8.427,8.562
	S8.312,8.437,8.346,8.356c0,0,0.565-1.776,0.729-2.105c0.161-0.331,0.413-0.533,1.028-0.533h0.127c0.615,0,0.865,0.202,1.027,0.533
	c0.163,0.329,0.73,2.105,0.73,2.105C12.022,8.437,11.984,8.528,11.904,8.562z"/>
<g>
</g>
<g>
</g>
<g>
</g>
<g>
</g>
<g>
</g>
<g>
</g>
<g>
</g>
<g>
</g>
<g>
</g>
<g>
</g>
<g>
</g>
<g>
</g>
<g>
</g>
<g>
</g>
<g>
</g>
</svg>
