<?xml version="1.0" encoding="iso-8859-1"?>
<!-- Generator: Adobe Illustrator 16.0.4, SVG Export Plug-In . SVG Version: 6.00 Build 0)  -->
<!DOCTYPE svg PUBLIC "-//W3C//DTD SVG 1.1//EN" "http://www.w3.org/Graphics/SVG/1.1/DTD/svg11.dtd">
<svg version="1.1" id="Capa_1" xmlns="http://www.w3.org/2000/svg" xmlns:xlink="http://www.w3.org/1999/xlink" x="0px" y="0px"
	 width="14.402px" height="15px" viewBox="0 0 14.402 15" style="enable-background:new 0 0 14.402 15;" xml:space="preserve">
<path style="fill:#010002;" d="M13.998,9.87l-1.405-0.988l-3.351,4.767l-2.647-1.995l-2.297,3.114C4.187,14.92,4.014,15,3.839,15
	c-0.118,0-0.236-0.036-0.338-0.111c-0.254-0.188-0.308-0.544-0.121-0.798l2.98-4.042l2.627,1.979l2.672-3.802l-1.384-0.973
	l4.127-1.915L13.998,9.87z M2.002,0.002c-0.398,0-0.721,0.322-0.721,0.72c0,0.397,0.322,0.72,0.721,0.72s0.722-0.323,0.722-0.72
	C2.724,0.324,2.4,0.002,2.002,0.002z M1.917,5.658L1.771,8.316c0,0.093-0.075,0.169-0.17,0.169c-0.093,0-0.169-0.076-0.169-0.169
	L1.287,5.658h-0.47l0.487-2.982l-0.979,1.95C0.289,4.711,0.189,4.752,0.104,4.716C0.018,4.679-0.022,4.58,0.014,4.494
	c0,0,0.719-1.94,0.896-2.302c0.176-0.361,0.353-0.581,1.023-0.581h0.139c0.673,0,0.848,0.219,1.023,0.581
	C3.273,2.554,3.99,4.494,3.99,4.494C4.027,4.58,3.986,4.679,3.901,4.716C3.814,4.752,3.716,4.711,3.679,4.625L2.7,2.675l0.486,2.982
	H2.716L2.571,8.316c0,0.093-0.075,0.169-0.169,0.169c-0.093,0-0.169-0.076-0.169-0.169L2.078,5.658H1.917z M8.545,0.72
	c0,0.398-0.321,0.72-0.719,0.72c-0.399,0-0.723-0.322-0.723-0.72S7.427,0,7.826,0C8.224,0,8.545,0.322,8.545,0.72z M8.571,4.242
	l0.14,3.941c0.01,0.155-0.106,0.291-0.263,0.302c-0.007,0-0.013,0-0.021,0c-0.147,0-0.272-0.113-0.281-0.262L7.824,5.175
	l-0.32,3.048C7.493,8.372,7.368,8.485,7.221,8.485c-0.006,0-0.013,0-0.021,0C7.045,8.474,6.928,8.338,6.938,8.183l0.138-3.941
	L7.028,2.675L6.147,4.624C6.111,4.709,6.013,4.751,5.926,4.714C5.84,4.677,5.8,4.578,5.836,4.491c0,0,0.62-1.939,0.797-2.301
	C6.81,1.829,7.084,1.61,7.756,1.61h0.138c0.673,0,0.946,0.219,1.123,0.58c0.177,0.362,0.797,2.301,0.797,2.301
	C9.851,4.578,9.81,4.677,9.723,4.714C9.638,4.751,9.537,4.709,9.501,4.624l-0.88-1.949L8.571,4.242L8.571,4.242z M5.356,4.824
	c0,0.243-0.199,0.44-0.443,0.44c-0.245,0-0.443-0.197-0.443-0.44c0-0.246,0.198-0.443,0.443-0.443
	C5.157,4.381,5.356,4.578,5.356,4.824z M4.913,6.985c0,0-0.199,1.383-0.199,1.384C4.688,8.438,4.623,8.485,4.547,8.485
	c-0.08,0-0.146-0.053-0.17-0.125C4.375,8.356,4.37,8.276,4.375,8.261l0.081-1.7L4.43,5.979c-0.021-0.199-0.026-0.14-0.252-0.274
	C3.948,5.565,3.556,4.958,3.536,4.929C3.518,4.898,3.48,4.845,3.475,4.811C3.463,4.749,3.503,4.691,3.563,4.68
	C3.61,4.671,3.648,4.696,3.677,4.727c0.031,0.033,0.482,0.634,0.82,0.691C4.574,5.407,4.655,5.367,4.87,5.367h0.086
	c0.215,0,0.297,0.04,0.373,0.051c0.338-0.058,0.789-0.659,0.82-0.691C6.178,4.696,6.217,4.671,6.263,4.68
	c0.061,0.011,0.101,0.069,0.09,0.131C6.346,4.845,6.309,4.898,6.291,4.929C6.271,4.958,5.88,5.565,5.648,5.704
	C5.423,5.838,5.42,5.779,5.396,5.979L5.37,6.562l0.082,1.7c0.004,0.015,0,0.095-0.002,0.099C5.427,8.432,5.359,8.485,5.28,8.485
	c-0.077,0-0.141-0.047-0.168-0.115C5.112,8.369,4.913,6.985,4.913,6.985"/>
<g>
</g>
<g>
</g>
<g>
</g>
<g>
</g>
<g>
</g>
<g>
</g>
<g>
</g>
<g>
</g>
<g>
</g>
<g>
</g>
<g>
</g>
<g>
</g>
<g>
</g>
<g>
</g>
<g>
</g>
</svg>
