<?xml version="1.0" encoding="iso-8859-1"?>
<!-- Generator: Adobe Illustrator 16.0.4, SVG Export Plug-In . SVG Version: 6.00 Build 0)  -->
<!DOCTYPE svg PUBLIC "-//W3C//DTD SVG 1.1//EN" "http://www.w3.org/Graphics/SVG/1.1/DTD/svg11.dtd">
<svg version="1.1" id="Capa_1" xmlns="http://www.w3.org/2000/svg" xmlns:xlink="http://www.w3.org/1999/xlink" x="0px" y="0px"
	 width="20px" height="20.002px" viewBox="0 0 20 20.002" style="enable-background:new 0 0 20 20.002;" xml:space="preserve">
<path style="fill:#010002;" d="M16,0H4C1.8,0,0,1.799,0,4v12.002c0,2.199,1.8,4,4,4h12c2.2,0,4-1.801,4-4V4C20,1.799,18.2,0,16,0z
	 M10,2.5c0.691,0,1.252,0.561,1.252,1.253S10.691,5.004,10,5.004S8.748,4.445,8.748,3.753S9.309,2.5,10,2.5z M12.604,10.67
	c-0.03,0.008-0.061,0.012-0.09,0.012c-0.183,0-0.348-0.127-0.391-0.311l-0.889-3.159l0.862,5.28h-0.831L11.008,17.2
	c0,0.165-0.135,0.3-0.297,0.3c-0.17,0-0.304-0.135-0.304-0.3l-0.256-4.708H10H9.849L9.593,17.2c0,0.165-0.134,0.3-0.304,0.3
	c-0.162,0-0.297-0.135-0.297-0.3l-0.259-4.708H7.901l0.863-5.28l-0.889,3.159c-0.043,0.184-0.208,0.311-0.391,0.311
	c-0.029,0-0.06-0.004-0.09-0.012c-0.216-0.049-0.35-0.264-0.301-0.479c0,0,0.657-3.193,0.97-3.834V6.355c0,0,0.001,0,0.001-0.002
	c0.312-0.64,0.625-1.025,1.812-1.025H10h0.123c1.187,0,1.499,0.386,1.812,1.025c0,0.002,0.001,0.002,0.001,0.002v0.002
	c0.312,0.641,0.97,3.834,0.97,3.834C12.954,10.406,12.82,10.621,12.604,10.67z"/>
<g>
</g>
<g>
</g>
<g>
</g>
<g>
</g>
<g>
</g>
<g>
</g>
<g>
</g>
<g>
</g>
<g>
</g>
<g>
</g>
<g>
</g>
<g>
</g>
<g>
</g>
<g>
</g>
<g>
</g>
</svg>
