<?xml version="1.0" encoding="iso-8859-1"?>
<!-- Generator: Adobe Illustrator 16.0.4, SVG Export Plug-In . SVG Version: 6.00 Build 0)  -->
<!DOCTYPE svg PUBLIC "-//W3C//DTD SVG 1.1//EN" "http://www.w3.org/Graphics/SVG/1.1/DTD/svg11.dtd">
<svg version="1.1" id="Capa_1" xmlns="http://www.w3.org/2000/svg" xmlns:xlink="http://www.w3.org/1999/xlink" x="0px" y="0px"
	 width="11.271px" height="15px" viewBox="0 0 11.271 15" style="enable-background:new 0 0 11.271 15;" xml:space="preserve">
<path style="fill:#010002;" d="M8.485,8.355c0-0.228,0.979-3.26-0.927-4.177c-2.196-1.057-2.804-1.899-2.785-3.25
	c-0.002,0.055-1.328,2.193-0.465,3.25c1.342,1.635,0.775,2.901,0,2.785C3.007,6.768,3.164,5.07,3.381,4.642
	C2.7,4.57,1.913,4.993,1.523,5.57c-1.171,1.74,1.367,3.404,0.465,4.642c-0.687,0.942-1.86-0.913-1.856-0.928
	c-1.394,7.274,8.727,7.459,9.283,1.393c0.166-1.819,1.804-2.809,1.856-2.785C9.527,7.086,8.485,8.413,8.485,8.355z M5.237,13.461
	c-2.433,0.091-2.184-1.734-1.856-2.321c0.414-0.747,1.463-0.895,0.928-1.857c0.007,0.014,1.139,0.185,1.856,0.928
	C7.266,11.348,7.141,13.39,5.237,13.461z M6.63,2.321C6.346,2.016,6.165,1.65,6.165,1.392C6.165,0.909,6.56,0.445,7.094,0
	c0.054,0.387-0.231,0.967,0,1.392c0.18,0.315,0.465,0.671,0.465,0.929c0,0.345-0.129,0.66-0.465,0.928
	C7.043,3.12,6.954,2.696,6.63,2.321z"/>
<g>
</g>
<g>
</g>
<g>
</g>
<g>
</g>
<g>
</g>
<g>
</g>
<g>
</g>
<g>
</g>
<g>
</g>
<g>
</g>
<g>
</g>
<g>
</g>
<g>
</g>
<g>
</g>
<g>
</g>
</svg>
