<?xml version="1.0" encoding="iso-8859-1"?>
<!-- Generator: Adobe Illustrator 16.0.4, SVG Export Plug-In . SVG Version: 6.00 Build 0)  -->
<!DOCTYPE svg PUBLIC "-//W3C//DTD SVG 1.1//EN" "http://www.w3.org/Graphics/SVG/1.1/DTD/svg11.dtd">
<svg version="1.1" id="Capa_1" xmlns="http://www.w3.org/2000/svg" xmlns:xlink="http://www.w3.org/1999/xlink" x="0px" y="0px"
	 width="15px" height="14.998px" viewBox="0 0 15 14.998" style="enable-background:new 0 0 15 14.998;" xml:space="preserve">
<path style="fill:#010002;" d="M5.312,2.655c0,1.47-1.188,2.656-2.654,2.656S0,4.125,0,2.655C0,1.19,1.19,0,2.657,0
	S5.312,1.19,5.312,2.655z M2.657,9.687C1.19,9.687,0,10.875,0,12.342s1.19,2.656,2.657,2.656s2.654-1.189,2.654-2.656
	S4.124,9.687,2.657,9.687z M12.342,9.687c-1.467,0-2.655,1.188-2.655,2.655s1.188,2.656,2.655,2.656
	c1.466,0,2.658-1.189,2.658-2.656S13.808,9.687,12.342,9.687z M12.342,0c-1.467,0-2.655,1.19-2.655,2.655
	c0,1.47,1.188,2.656,2.655,2.656C13.808,5.312,15,4.125,15,2.655C15,1.19,13.808,0,12.342,0z M7.499,4.843
	c-1.468,0-2.656,1.189-2.656,2.657c0,1.467,1.188,2.656,2.656,2.656s2.656-1.189,2.656-2.656C10.155,6.032,8.967,4.843,7.499,4.843z
	"/>
<g>
</g>
<g>
</g>
<g>
</g>
<g>
</g>
<g>
</g>
<g>
</g>
<g>
</g>
<g>
</g>
<g>
</g>
<g>
</g>
<g>
</g>
<g>
</g>
<g>
</g>
<g>
</g>
<g>
</g>
</svg>
