<?xml version="1.0" encoding="iso-8859-1"?>
<!-- Generator: Adobe Illustrator 16.0.4, SVG Export Plug-In . SVG Version: 6.00 Build 0)  -->
<!DOCTYPE svg PUBLIC "-//W3C//DTD SVG 1.1//EN" "http://www.w3.org/Graphics/SVG/1.1/DTD/svg11.dtd">
<svg version="1.1" id="Capa_1" xmlns="http://www.w3.org/2000/svg" xmlns:xlink="http://www.w3.org/1999/xlink" x="0px" y="0px"
	 width="15px" height="14.803px" viewBox="0 0 15 14.803" style="enable-background:new 0 0 15 14.803;" xml:space="preserve">
<path style="fill:#010002;" d="M14.045,1.965c-0.033-0.061-0.057-0.111-0.084-0.168c0.023-0.117,0.041-0.268,0.016-0.436
	c-0.049-0.258-0.022-0.512,0.064-0.648c0.162-0.258,0.525-0.371,0.959-0.43c-0.102,0.225-0.446,0.438-0.466,0.74
	c-0.012,0.227,0.021,0.512-0.065,0.648C14.376,1.82,14.231,1.912,14.045,1.965z M14.279,5.527c-0.034-0.029-0.067-0.051-0.101-0.076
	c-0.07-0.055-0.143-0.104-0.214-0.141c-0.037-0.02-0.074-0.035-0.11-0.049c-0.069-0.027-0.138-0.051-0.204-0.066
	c-0.032-0.008-0.064-0.016-0.095-0.021c-0.073-0.012-0.143-0.018-0.207-0.02c-0.018,0-0.036-0.002-0.052-0.002
	c-0.092,0-0.173,0.01-0.232,0.018c-0.039,0.006-0.071,0.01-0.091,0.014c-0.008,0.002-0.027,0.006-0.031,0.006
	c-0.003,0-0.004-0.002-0.003-0.002c0.075-0.121,1.613-1.404,0.907-2.529C13.034,1.361,12.994,0.711,13.456,0
	c-0.019,0.027-1.44,0.719-1.336,1.57c0.029,0.236,0.023,0.439,0.002,0.623c-0.004,0.037-0.007,0.076-0.014,0.113
	c-0.028,0.166-0.072,0.309-0.131,0.426c-0.011,0.02-0.022,0.033-0.034,0.051c-0.058,0.1-0.124,0.18-0.197,0.236
	c-0.013,0.01-0.022,0.023-0.035,0.031c-0.08,0.055-0.163,0.08-0.244,0.084c-0.009,0.002-0.016,0.01-0.023,0.01
	c-0.011,0-0.018-0.01-0.026-0.012c-0.083-0.006-0.162-0.027-0.229-0.084c-0.627-0.541,0.026-1.389,0.284-1.545
	c-0.094-0.072-0.207-0.125-0.327-0.164c-0.038-0.014-0.077-0.018-0.117-0.025c-0.084-0.02-0.168-0.035-0.255-0.039
	c-0.039,0-0.078,0.002-0.117,0.004c-0.168,0.008-0.337,0.033-0.481,0.098C8.971,1.906,9.761,3.641,8.867,3.996
	C8.807,4.02,8.751,4.031,8.701,4.031c-0.012,0-0.02-0.008-0.03-0.01C8.643,4.02,8.617,4.01,8.592,3.998
	C8.561,3.986,8.528,3.973,8.501,3.951C8.479,3.934,8.46,3.914,8.442,3.891C8.417,3.863,8.396,3.832,8.377,3.797
	C8.361,3.77,8.347,3.742,8.334,3.713C8.317,3.672,8.304,3.635,8.29,3.592c-0.01-0.031-0.02-0.062-0.027-0.096
	C8.251,3.453,8.243,3.41,8.236,3.367C8.229,3.334,8.224,3.305,8.22,3.273C8.214,3.23,8.21,3.193,8.205,3.154
	C8.203,3.127,8.199,3.102,8.198,3.076C8.195,3.041,8.194,3.018,8.194,2.99c-0.001-0.02-0.003-0.041-0.003-0.055
	c0-0.033,0-0.055,0.001-0.055C8.014,3.072,7.87,3.264,7.743,3.453C7.707,3.508,7.675,3.562,7.642,3.617
	C7.556,3.762,7.483,3.904,7.426,4.049C7.415,4.07,7.405,4.094,7.397,4.117C7.387,4.143,7.372,4.17,7.363,4.195
	c-0.064,0.184-0.11,0.365-0.134,0.541C7.225,4.77,7.227,4.801,7.224,4.832C7.211,4.98,7.209,5.125,7.222,5.268
	C7.227,5.318,7.232,5.371,7.24,5.422c0.021,0.133,0.051,0.262,0.092,0.389c0.011,0.035,0.019,0.07,0.03,0.104
	C7.421,6.07,7.493,6.217,7.578,6.359C7.6,6.395,7.626,6.428,7.649,6.465C7.722,6.57,7.8,6.674,7.886,6.771
	c0.033,0.037,0.065,0.074,0.102,0.111C8.091,6.99,8.203,7.092,8.322,7.186c0.017,0.012,0.03,0.025,0.045,0.037
	C8.503,7.324,8.649,7.412,8.8,7.492c0.044,0.023,0.09,0.045,0.135,0.066c0.116,0.055,0.236,0.104,0.358,0.146
	C9.34,7.723,9.387,7.74,9.435,7.752c0.164,0.049,0.332,0.09,0.502,0.111c0.022,0.004,0.045,0.002,0.067,0.006
	c0.141,0.016,0.283,0.018,0.425,0.014c0.118-0.002,0.236-0.02,0.354-0.037c0.083-0.012,0.167-0.02,0.249-0.041
	c0.014-0.002,0.026-0.01,0.041-0.014c0.105-0.025,0.211-0.066,0.314-0.107c0.077-0.029,0.154-0.051,0.229-0.09
	c0.126-0.061,0.244-0.146,0.363-0.23c0.062-0.043,0.125-0.074,0.185-0.123c0.173-0.145,0.338-0.311,0.49-0.51
	c0.082-0.105,0.17-0.195,0.262-0.277c0.031-0.027,0.062-0.049,0.093-0.074c0.064-0.051,0.129-0.098,0.195-0.141
	c0.036-0.021,0.072-0.043,0.108-0.062c0.064-0.035,0.128-0.068,0.192-0.096c0.034-0.016,0.068-0.029,0.103-0.043
	c0.07-0.027,0.138-0.049,0.204-0.068c0.025-0.008,0.05-0.016,0.074-0.023c0.09-0.023,0.176-0.041,0.253-0.053
	c0.007-0.002,0.012-0.002,0.02-0.002c0.071-0.012,0.135-0.018,0.19-0.021c0.019-0.002,0.03-0.002,0.048-0.002
	c0.022-0.002,0.05-0.004,0.069-0.004c0.011,0,0.008,0.002,0.018,0.002c0.051,0.002,0.087,0.004,0.09,0.008
	C14.481,5.73,14.381,5.621,14.279,5.527z M6.933,6.25C6.579,5.438,6.616,4.561,7,3.721L6.575,3.295L0,9.871h1.646v4.932h4.11v-3.289
	h1.642v3.289h4.11V9.871h1.645L11.48,8.199c-0.358,0.129-0.733,0.215-1.132,0.215C8.89,8.414,7.484,7.523,6.933,6.25z"/>
<g>
</g>
<g>
</g>
<g>
</g>
<g>
</g>
<g>
</g>
<g>
</g>
<g>
</g>
<g>
</g>
<g>
</g>
<g>
</g>
<g>
</g>
<g>
</g>
<g>
</g>
<g>
</g>
<g>
</g>
</svg>
