<?xml version="1.0" encoding="iso-8859-1"?>
<!-- Generator: Adobe Illustrator 16.0.4, SVG Export Plug-In . SVG Version: 6.00 Build 0)  -->
<!DOCTYPE svg PUBLIC "-//W3C//DTD SVG 1.1//EN" "http://www.w3.org/Graphics/SVG/1.1/DTD/svg11.dtd">
<svg version="1.1" id="Capa_1" xmlns="http://www.w3.org/2000/svg" xmlns:xlink="http://www.w3.org/1999/xlink" x="0px" y="0px"
	 width="20px" height="20px" viewBox="0 0 20 20" style="enable-background:new 0 0 20 20;" xml:space="preserve">
<path style="fill:#010002;" d="M12.739,8.64l0.361,2.973c-0.484,0.994-1.088,0.029-1.088,0.029l-0.781-2.698
	c-0.018-1.286,0.68-1.24,1.115-0.922C12.649,8.246,12.739,8.64,12.739,8.64z M20,4v12c0,2.2-1.8,4-4,4H4c-2.2,0-4-1.8-4-4V4
	c0-2.2,1.8-4,4-4h12C18.2,0,20,1.8,20,4z M7.134,5.35h4.107V4.66h-0.4V2.754c0-0.142-0.74-0.254-1.654-0.254S7.53,2.612,7.53,2.754
	V4.66H7.134V5.35z M14.499,11.358l-1.203-4.14L11.308,5.83H7.103L5.634,7.565L5.501,17.5h8.945L14.499,11.358z"/>
<g>
</g>
<g>
</g>
<g>
</g>
<g>
</g>
<g>
</g>
<g>
</g>
<g>
</g>
<g>
</g>
<g>
</g>
<g>
</g>
<g>
</g>
<g>
</g>
<g>
</g>
<g>
</g>
<g>
</g>
</svg>
