<?xml version="1.0" encoding="iso-8859-1"?>
<!-- Generator: Adobe Illustrator 16.0.4, SVG Export Plug-In . SVG Version: 6.00 Build 0)  -->
<!DOCTYPE svg PUBLIC "-//W3C//DTD SVG 1.1//EN" "http://www.w3.org/Graphics/SVG/1.1/DTD/svg11.dtd">
<svg version="1.1" id="Capa_1" xmlns="http://www.w3.org/2000/svg" xmlns:xlink="http://www.w3.org/1999/xlink" x="0px" y="0px"
	 width="13.02px" height="14px" viewBox="0 0 13.02 14" style="enable-background:new 0 0 13.02 14;" xml:space="preserve">
<path style="fill:#010002;" d="M11.67,0l-0.443,3.025c-0.674-0.093-1.197-0.667-1.197-1.366c0-0.138-0.111-0.25-0.25-0.25
	c-0.137,0-0.25,0.112-0.25,0.25c0,0.764-0.621,1.385-1.385,1.385S6.76,2.423,6.76,1.659c0-0.138-0.111-0.25-0.25-0.25
	c-0.137,0-0.25,0.112-0.25,0.25c0,0.764-0.621,1.385-1.385,1.385S3.49,2.423,3.49,1.659c0-0.138-0.111-0.25-0.25-0.25
	c-0.137,0-0.25,0.112-0.25,0.25c0,0.699-0.523,1.272-1.197,1.365L1.35,0H0l2.047,14h8.926L13.02,0H11.67z M9.818,12.661H3.201
	L1.863,3.509C2.449,3.426,2.957,3.09,3.24,2.597c0.326,0.565,0.938,0.947,1.635,0.947c0.699,0,1.311-0.382,1.635-0.947
	c0.326,0.565,0.938,0.947,1.635,0.947c0.699,0,1.311-0.382,1.635-0.947c0.283,0.493,0.791,0.83,1.377,0.912L9.818,12.661z"/>
<g>
</g>
<g>
</g>
<g>
</g>
<g>
</g>
<g>
</g>
<g>
</g>
<g>
</g>
<g>
</g>
<g>
</g>
<g>
</g>
<g>
</g>
<g>
</g>
<g>
</g>
<g>
</g>
<g>
</g>
</svg>
