<?xml version="1.0" encoding="iso-8859-1"?>
<!-- Generator: Adobe Illustrator 16.0.4, SVG Export Plug-In . SVG Version: 6.00 Build 0)  -->
<!DOCTYPE svg PUBLIC "-//W3C//DTD SVG 1.1//EN" "http://www.w3.org/Graphics/SVG/1.1/DTD/svg11.dtd">
<svg version="1.1" id="Capa_1" xmlns="http://www.w3.org/2000/svg" xmlns:xlink="http://www.w3.org/1999/xlink" x="0px" y="0px"
	 width="20px" height="20px" viewBox="0 0 20 20" style="enable-background:new 0 0 20 20;" xml:space="preserve">
<path style="fill:#010002;" d="M16,0H4C1.8,0,0,1.8,0,4v12c0,2.2,1.8,4,4,4h12c2.2,0,4-1.8,4-4V4C20,1.8,18.2,0,16,0z M10,17.5
	c-1.881,0-3.403-1.524-3.403-3.403c0-0.524,0.129-1.016,0.342-1.46c0.547,0.14,1.706,0.236,3.062,0.236s2.515-0.097,3.062-0.236
	c0.213,0.444,0.342,0.936,0.342,1.46C13.403,15.976,11.878,17.5,10,17.5z M13.403,11.758c0,0.23-1.522,0.415-3.403,0.415
	s-3.403-0.185-3.403-0.415V9.603L10,10.983l3.403-1.381V11.758z M14.658,12.173h-0.544l0.109-0.513
	c-0.105-0.071-0.177-0.2-0.177-0.356c0-0.185,0.101-0.336,0.238-0.389V9.246l0.204-0.082v1.751c0.137,0.053,0.238,0.204,0.238,0.389
	c0,0.156-0.073,0.285-0.179,0.356L14.658,12.173z M10,10.645L4.896,8.572L10,6.5l5.104,2.072L10,10.645z M16.876,7.488L10,4.07
	L3.124,7.488L2.5,6.232l7.49-3.724L9.993,2.5L10,2.504L10.007,2.5l0.003,0.009l7.49,3.724L16.876,7.488z"/>
<g>
</g>
<g>
</g>
<g>
</g>
<g>
</g>
<g>
</g>
<g>
</g>
<g>
</g>
<g>
</g>
<g>
</g>
<g>
</g>
<g>
</g>
<g>
</g>
<g>
</g>
<g>
</g>
<g>
</g>
</svg>
