<?xml version="1.0" encoding="iso-8859-1"?>
<!-- Generator: Adobe Illustrator 16.0.4, SVG Export Plug-In . SVG Version: 6.00 Build 0)  -->
<!DOCTYPE svg PUBLIC "-//W3C//DTD SVG 1.1//EN" "http://www.w3.org/Graphics/SVG/1.1/DTD/svg11.dtd">
<svg version="1.1" id="Capa_1" xmlns="http://www.w3.org/2000/svg" xmlns:xlink="http://www.w3.org/1999/xlink" x="0px" y="0px"
	 width="20px" height="19.999px" viewBox="0 0 20 19.999" style="enable-background:new 0 0 20 19.999;" xml:space="preserve">
<path style="fill:#010002;" d="M16,0H4C1.8,0,0,1.8,0,4v11.999c0,2.2,1.8,4,4,4h12c2.2,0,4-1.8,4-4V4C20,1.8,18.2,0,16,0z
	 M15.683,4.033c0,0,0.096,3.926-1.4,3.23C12.786,6.568,15.353,4.248,15.683,4.033z M12.626,4.389c0,0-0.559,0.916,0.512,2.152
	c1.204,1.395,0.188,2.192-0.445,1.9C11.283,7.784,12.297,4.649,12.626,4.389z M11.682,6.422c0,0-0.556,0.912,0.512,2.15
	c1.204,1.396,0.188,2.195-0.446,1.902C10.337,9.817,11.353,6.682,11.682,6.422z M10.708,8.517c0,0-0.556,0.912,0.512,2.153
	c1.205,1.393,0.187,2.193-0.445,1.899C9.366,11.914,10.379,8.777,10.708,8.517z M5.315,2.499c0,0,1.742,3.52,0.091,3.52
	C3.755,6.019,5.105,2.83,5.315,2.499z M2.692,4.109c0,0-0.122,1.064,1.372,1.734c1.678,0.758,1.093,1.91,0.397,1.91
	C2.905,7.754,2.504,4.484,2.692,4.109z M2.692,6.351c0,0-0.122,1.062,1.372,1.735c1.678,0.756,1.093,1.911,0.397,1.911
	C2.905,9.997,2.504,6.725,2.692,6.351z M2.692,8.66c0,0-0.122,1.062,1.372,1.737c1.678,0.754,1.093,1.909,0.397,1.909
	C2.905,12.307,2.504,9.035,2.692,8.66z M2.692,11.027c0,0-0.122,1.062,1.372,1.737c1.678,0.754,1.093,1.909,0.397,1.909
	C2.905,14.674,2.504,11.402,2.692,11.027z M5.65,17.02c0,0.437-0.713,0.259-0.713,0.051l-0.204-2.05c0-0.188,0.24-0.021,0.543-0.021
	c0.301,0,0.544-0.167,0.544,0.021L5.65,17.02z M6.134,14.674c-0.698,0-1.281-1.155,0.395-1.909c1.494-0.675,1.374-1.737,1.374-1.737
	C8.089,11.402,7.69,14.674,6.134,14.674z M6.134,12.307c-0.698,0-1.281-1.155,0.395-1.909C8.023,9.723,7.903,8.66,7.903,8.66
	C8.089,9.035,7.69,12.307,6.134,12.307z M6.134,9.997c-0.698,0-1.281-1.155,0.395-1.911c1.494-0.673,1.374-1.735,1.374-1.735
	C8.089,6.725,7.69,9.997,6.134,9.997z M6.134,7.754c-0.698,0-1.281-1.152,0.395-1.91c1.494-0.67,1.374-1.734,1.374-1.734
	C8.089,4.484,7.69,7.754,6.134,7.754z M9.71,10.665c0,0-0.556,0.911,0.514,2.151c1.203,1.393,0.188,2.191-0.445,1.897
	C8.368,14.061,9.382,10.925,9.71,10.665z M9.869,17.345c-0.185,0.395-0.756-0.066-0.668-0.257l0.679-1.943
	c0.079-0.171,0.226,0.082,0.502,0.21c0.272,0.125,0.562,0.079,0.483,0.247L9.869,17.345z M11.297,15.421
	c-0.632-0.293-0.676-1.585,1.163-1.565c1.639,0.019,1.977-0.996,1.977-0.996C14.448,13.278,12.707,16.077,11.297,15.421z
	 M12.294,13.276c-0.633-0.296-0.677-1.587,1.162-1.567c1.639,0.019,1.977-0.996,1.977-0.996
	C15.446,11.134,13.705,13.93,12.294,13.276z M13.268,11.18c-0.633-0.292-0.677-1.586,1.163-1.566
	c1.638,0.018,1.976-0.996,1.976-0.996C16.419,9.035,14.679,11.835,13.268,11.18z M14.213,9.145
	c-0.632-0.292-0.677-1.584,1.162-1.564c1.637,0.021,1.976-0.996,1.976-0.996C17.363,7.004,15.624,9.802,14.213,9.145z"/>
<g>
</g>
<g>
</g>
<g>
</g>
<g>
</g>
<g>
</g>
<g>
</g>
<g>
</g>
<g>
</g>
<g>
</g>
<g>
</g>
<g>
</g>
<g>
</g>
<g>
</g>
<g>
</g>
<g>
</g>
</svg>
