<?xml version="1.0" encoding="iso-8859-1"?>
<!-- Generator: Adobe Illustrator 16.0.4, SVG Export Plug-In . SVG Version: 6.00 Build 0)  -->
<!DOCTYPE svg PUBLIC "-//W3C//DTD SVG 1.1//EN" "http://www.w3.org/Graphics/SVG/1.1/DTD/svg11.dtd">
<svg version="1.1" id="Capa_1" xmlns="http://www.w3.org/2000/svg" xmlns:xlink="http://www.w3.org/1999/xlink" x="0px" y="0px"
	 width="15px" height="13.663px" viewBox="0 0 15 13.663" style="enable-background:new 0 0 15 13.663;" xml:space="preserve">
<path style="fill:#010002;" d="M8.272,13.377c0,0.157-0.141,0.286-0.316,0.286H3.225c-0.176,0-0.318-0.129-0.318-0.286v-2.156
	c0-0.159,0.143-0.286,0.318-0.286h4.731c0.176,0,0.316,0.127,0.316,0.286V13.377z M15,11.222c0-0.158-0.143-0.286-0.319-0.286H9.95
	c-0.177,0-0.319,0.128-0.319,0.286v2.156c0,0.157,0.143,0.285,0.319,0.285h4.73c0.177,0,0.319-0.128,0.319-0.285V11.222z
	 M11.637,7.135c0-0.158-0.143-0.286-0.319-0.286H6.586c-0.174,0-0.318,0.128-0.318,0.286v2.156c0,0.157,0.145,0.287,0.318,0.287
	h4.731c0.177,0,0.319-0.129,0.319-0.287V7.135z M6.744,4.702L6.744,4.702c0.155,0.109,0.369,0.071,0.48-0.086l1.08-1.552
	c0.109-0.155,0.071-0.371-0.084-0.48l0,0l-0.334-0.23L6.421,4.477L6.744,4.702z M0,7.897C0.208,8.34,0.674,8.642,1.133,8.693
	l2.866-4.088L2.862,3.809L0,7.897z M6.101,3.875C6.121,3.903,6.14,3.931,6.157,3.961C6.17,3.984,6.182,4.006,6.192,4.026
	c0.019,0.044,0.039,0.087,0.049,0.129c0.422-0.604,0.846-1.207,1.269-1.81c0,0-0.987,0.12-1.505-1.055
	c-0.106-0.075-0.218-0.15-0.324-0.226C4.192,0.024,2.78-0.188,1.55,0.146C1.482,0.165,1.349,0.209,1.227,0.25
	C1.011,0.323,1.049,0.651,1.291,0.612c0.114-0.02,0.23-0.039,0.287-0.042c0.234-0.01,0.459-0.026,0.693,0.017
	C3.27,0.779,4.054,1.688,3.399,2.622C3.223,2.872,2.87,3.364,2.874,3.37C2.876,3.374,4.361,4.4,4.354,4.411
	c-0.042,0.06,0.101-0.133,0.147-0.192c0.22-0.258,0.684-0.699,1.255-0.583c0.089,0.019,0.164,0.06,0.226,0.111
	c0.03,0.027,0.062,0.055,0.088,0.087C6.082,3.847,6.091,3.861,6.101,3.875z"/>
<g>
</g>
<g>
</g>
<g>
</g>
<g>
</g>
<g>
</g>
<g>
</g>
<g>
</g>
<g>
</g>
<g>
</g>
<g>
</g>
<g>
</g>
<g>
</g>
<g>
</g>
<g>
</g>
<g>
</g>
</svg>
