<?xml version="1.0" encoding="iso-8859-1"?>
<!-- Generator: Adobe Illustrator 16.0.4, SVG Export Plug-In . SVG Version: 6.00 Build 0)  -->
<!DOCTYPE svg PUBLIC "-//W3C//DTD SVG 1.1//EN" "http://www.w3.org/Graphics/SVG/1.1/DTD/svg11.dtd">
<svg version="1.1" id="Capa_1" xmlns="http://www.w3.org/2000/svg" xmlns:xlink="http://www.w3.org/1999/xlink" x="0px" y="0px"
	 width="20px" height="20px" viewBox="0 0 20 20" style="enable-background:new 0 0 20 20;" xml:space="preserve">
<path style="fill:#010002;" d="M11.857,8.906h1.785v1.016h-1.785V8.906z M12.343,5.049h-1.089v1.707h1.089V5.049z M20,4v12
	c0,2.2-1.8,4-4,4H4c-2.2,0-4-1.8-4-4V4c0-2.2,1.8-4,4-4h12C18.2,0,20,1.8,20,4z M17.5,16c0-0.828-2.723-1.5-6.082-1.5
	c-3.361,0-6.084,0.672-6.084,1.5s2.723,1.5,6.084,1.5C14.777,17.5,17.5,16.828,17.5,16z M17.431,9.076
	c-0.094-0.089-0.241-0.089-0.336,0l-0.829,0.846h-2.229V8.906h1.894c0.181,0,0.359-0.016,0.53-0.048
	c0.173-0.034,0.317-0.123,0.433-0.272c0.1-0.116,0.15-0.278,0.15-0.496c0-0.15-0.045-0.336-0.126-0.567L16.2,5.813
	c-0.229-0.525-0.53-0.893-0.903-1.098c-0.37-0.21-0.762-0.31-1.174-0.31h-2.869v-1.36h0.84c0.05,0.084,0.11,0.137,0.176,0.16
	c0.063,0.026,0.121,0.037,0.171,0.037h4.035c0.131,0,0.229-0.037,0.294-0.11s0.107-0.16,0.123-0.26c0-0.084-0.031-0.166-0.097-0.247
	C16.728,2.542,16.622,2.5,16.476,2.5H12.59c-0.182,0-0.299,0.023-0.357,0.062c-0.058,0.043-0.104,0.095-0.139,0.163h-2.3
	C9.763,2.691,9.726,2.649,9.684,2.6C9.645,2.55,9.565,2.526,9.45,2.526H5.367c-0.065,0-0.142,0.028-0.236,0.087
	c-0.089,0.06-0.134,0.152-0.134,0.286c0,0.128,0.045,0.23,0.134,0.294c0.095,0.068,0.166,0.1,0.213,0.1H9.45
	c0.031,0,0.084-0.014,0.16-0.037C9.684,3.232,9.744,3.17,9.794,3.069h0.866v1.337H5.493C5.378,4.125,5.191,3.889,4.937,3.7
	C4.68,3.511,4.388,3.416,4.058,3.416c-0.429,0-0.793,0.152-1.101,0.457C2.65,4.178,2.5,4.545,2.5,4.976
	c0,0.428,0.15,0.79,0.457,1.087c0.308,0.3,0.672,0.446,1.101,0.446c0.493,0,0.882-0.181,1.16-0.546l3.365,1.263l0.444,1.11
	c0.065,0.134,0.152,0.26,0.26,0.387C9.395,8.846,9.623,8.906,9.97,8.906h1.496v1.016H9.027c-0.132,0-0.239,0.105-0.239,0.236
	s0.107,0.236,0.239,0.236h7.351c0.074,0,0.135-0.039,0.174-0.095l0.879-0.887C17.523,9.32,17.523,9.171,17.431,9.076z M14.073,5.025
	H12.96v1.707h1.113V5.025z M15.806,6.386c-0.05-0.115-0.092-0.224-0.123-0.323c-0.134-0.297-0.278-0.515-0.436-0.656
	c-0.155-0.139-0.342-0.244-0.555-0.307v1.656h1.261C15.903,6.622,15.854,6.498,15.806,6.386z M4.181,4.406h0.693
	c-0.2-0.281-0.471-0.42-0.816-0.42c-0.281,0-0.521,0.094-0.72,0.283C3.141,4.459,3.044,4.692,3.044,4.976
	c0,0.281,0.097,0.515,0.294,0.704c0.199,0.188,0.438,0.283,0.72,0.283c0.212,0,0.412-0.065,0.596-0.197L4.157,5.566
	C4.023,5.52,3.895,5.453,3.773,5.372C3.65,5.288,3.59,5.157,3.59,4.976c0-0.184,0.056-0.323,0.171-0.42
	C3.876,4.453,4.018,4.406,4.181,4.406z M11.506,15.088c-1.793,0-3.246,0.357-3.246,0.801c0,0.441,1.453,0.801,3.246,0.801
	s3.246-0.359,3.246-0.801C14.752,15.445,13.299,15.088,11.506,15.088z"/>
<g>
</g>
<g>
</g>
<g>
</g>
<g>
</g>
<g>
</g>
<g>
</g>
<g>
</g>
<g>
</g>
<g>
</g>
<g>
</g>
<g>
</g>
<g>
</g>
<g>
</g>
<g>
</g>
<g>
</g>
</svg>
