<?xml version="1.0" encoding="iso-8859-1"?>
<!-- Generator: Adobe Illustrator 16.0.4, SVG Export Plug-In . SVG Version: 6.00 Build 0)  -->
<!DOCTYPE svg PUBLIC "-//W3C//DTD SVG 1.1//EN" "http://www.w3.org/Graphics/SVG/1.1/DTD/svg11.dtd">
<svg version="1.1" id="Capa_1" xmlns="http://www.w3.org/2000/svg" xmlns:xlink="http://www.w3.org/1999/xlink" x="0px" y="0px"
	 width="15px" height="14.535px" viewBox="0 0 15 14.535" style="enable-background:new 0 0 15 14.535;" xml:space="preserve">
<path style="fill:#010002;" d="M14.932,9.897c-0.095-0.091-0.242-0.091-0.336,0l-0.83,0.846h-2.229V9.728h1.895
	c0.18,0,0.358-0.017,0.529-0.05c0.173-0.032,0.316-0.123,0.434-0.271c0.101-0.116,0.149-0.278,0.149-0.496
	c0-0.149-0.045-0.336-0.126-0.567L13.7,6.634c-0.229-0.524-0.53-0.893-0.903-1.098c-0.37-0.21-0.762-0.31-1.174-0.31H8.754v-1.36
	h0.84c0.051,0.084,0.11,0.137,0.176,0.16c0.063,0.026,0.121,0.038,0.17,0.038h4.035c0.131,0,0.229-0.037,0.295-0.11
	c0.064-0.073,0.106-0.16,0.123-0.26c0-0.084-0.031-0.166-0.098-0.247c-0.066-0.084-0.173-0.126-0.318-0.126H10.09
	c-0.182,0-0.299,0.023-0.357,0.062C9.675,3.426,9.628,3.479,9.594,3.547h-2.3C7.263,3.512,7.226,3.47,7.184,3.421
	C7.145,3.371,7.065,3.347,6.95,3.347H2.867c-0.065,0-0.142,0.028-0.236,0.087C2.542,3.494,2.497,3.586,2.497,3.72
	c0,0.128,0.045,0.23,0.134,0.294c0.095,0.068,0.166,0.101,0.213,0.101H6.95c0.031,0,0.084-0.015,0.16-0.037
	C7.184,4.053,7.244,3.991,7.294,3.89H8.16v1.338H2.993C2.878,4.946,2.691,4.71,2.437,4.521C2.18,4.332,1.888,4.237,1.558,4.237
	c-0.429,0-0.793,0.151-1.101,0.457C0.15,4.999,0,5.366,0,5.797c0,0.428,0.15,0.79,0.457,1.087c0.308,0.3,0.672,0.446,1.101,0.446
	c0.493,0,0.882-0.181,1.16-0.546l3.365,1.263l0.444,1.11c0.065,0.134,0.152,0.261,0.26,0.388C6.895,9.668,7.123,9.728,7.47,9.728
	h1.496v1.016H6.527c-0.132,0-0.239,0.104-0.239,0.236c0,0.131,0.107,0.234,0.239,0.234h7.351c0.074,0,0.136-0.039,0.174-0.095
	l0.88-0.887C15.023,10.141,15.023,9.992,14.932,9.897z M12.191,5.921c0.213,0.062,0.398,0.168,0.556,0.308
	c0.157,0.142,0.302,0.358,0.437,0.655c0.03,0.101,0.072,0.208,0.123,0.323c0.047,0.112,0.098,0.236,0.146,0.37h-1.262V5.921z
	 M1.273,6.193c0.121,0.081,0.25,0.146,0.384,0.193l0.496,0.199C1.97,6.718,1.77,6.784,1.558,6.784c-0.281,0-0.521-0.095-0.72-0.283
	c-0.197-0.19-0.294-0.423-0.294-0.704c0-0.283,0.097-0.517,0.294-0.706c0.199-0.188,0.438-0.283,0.72-0.283
	c0.346,0,0.616,0.14,0.816,0.421H1.681c-0.163,0-0.305,0.047-0.42,0.148C1.146,5.473,1.09,5.613,1.09,5.797
	C1.09,5.979,1.15,6.109,1.273,6.193z M10.46,5.846h1.113v1.707H10.46V5.846z M8.754,5.87h1.089v1.707H8.754V5.87z M9.357,9.728
	h1.785v1.016H9.357V9.728z"/>
</svg>
