<?xml version="1.0" encoding="iso-8859-1"?>
<!-- Generator: Adobe Illustrator 16.0.4, SVG Export Plug-In . SVG Version: 6.00 Build 0)  -->
<!DOCTYPE svg PUBLIC "-//W3C//DTD SVG 1.1//EN" "http://www.w3.org/Graphics/SVG/1.1/DTD/svg11.dtd">
<svg version="1.1" id="Capa_1" xmlns="http://www.w3.org/2000/svg" xmlns:xlink="http://www.w3.org/1999/xlink" x="0px" y="0px"
	 width="20px" height="20px" viewBox="0 0 20 20" style="enable-background:new 0 0 20 20;" xml:space="preserve">
<path style="fill:#010002;" d="M16,0H4C1.8,0,0,1.8,0,4v12c0,2.2,1.8,4,4,4h12c2.2,0,4-1.8,4-4V4C20,1.8,18.2,0,16,0z
	 M17.431,12.966l-0.879,0.887c-0.039,0.056-0.1,0.095-0.174,0.095H9.027c-0.132,0-0.239-0.105-0.239-0.236s0.107-0.236,0.239-0.236
	h2.438v-1.016H9.97c-0.347,0-0.575-0.061-0.683-0.184c-0.107-0.127-0.194-0.253-0.26-0.387l-0.444-1.11L5.218,9.516
	c-0.278,0.365-0.667,0.546-1.16,0.546c-0.429,0-0.793-0.146-1.101-0.446C2.65,9.318,2.5,8.956,2.5,8.528
	c0-0.431,0.15-0.798,0.457-1.103c0.308-0.305,0.672-0.457,1.101-0.457c0.33,0,0.622,0.095,0.879,0.284
	c0.255,0.188,0.441,0.425,0.557,0.706h5.167V6.622H9.794c-0.05,0.101-0.11,0.163-0.184,0.187C9.534,6.832,9.481,6.846,9.45,6.846
	H5.344c-0.047,0-0.118-0.031-0.213-0.1C5.042,6.683,4.997,6.58,4.997,6.452c0-0.134,0.045-0.227,0.134-0.286
	c0.095-0.059,0.171-0.087,0.236-0.087H9.45c0.115,0,0.194,0.023,0.233,0.073c0.042,0.05,0.079,0.092,0.11,0.126h2.3
	c0.034-0.068,0.081-0.12,0.139-0.163c0.059-0.039,0.176-0.062,0.357-0.062h3.886c0.146,0,0.252,0.042,0.32,0.126
	c0.065,0.081,0.097,0.163,0.097,0.247c-0.016,0.1-0.058,0.187-0.123,0.26s-0.163,0.11-0.294,0.11H12.44
	c-0.05,0-0.107-0.011-0.171-0.037c-0.065-0.023-0.126-0.076-0.176-0.16h-0.84v1.36h2.869c0.412,0,0.804,0.1,1.174,0.31
	c0.373,0.205,0.675,0.572,0.903,1.098l0.717,1.709c0.081,0.231,0.126,0.417,0.126,0.567c0,0.218-0.051,0.38-0.15,0.496
	c-0.115,0.149-0.26,0.238-0.433,0.272c-0.171,0.032-0.35,0.048-0.53,0.048h-1.894v1.016h2.229l0.829-0.846
	c0.095-0.089,0.242-0.089,0.336,0C17.523,12.724,17.523,12.873,17.431,12.966z M12.343,10.309h-1.089V8.602h1.089V10.309z
	 M14.073,10.285H12.96V8.578h1.113V10.285z M11.857,12.459h1.785v1.016h-1.785V12.459z M3.761,8.108
	C3.646,8.205,3.59,8.345,3.59,8.528c0,0.182,0.061,0.312,0.184,0.396c0.121,0.081,0.25,0.147,0.384,0.194l0.496,0.199
	C4.47,9.45,4.27,9.516,4.058,9.516c-0.281,0-0.521-0.095-0.72-0.283C3.141,9.043,3.044,8.81,3.044,8.528
	c0-0.283,0.097-0.517,0.294-0.706c0.199-0.189,0.438-0.283,0.72-0.283c0.346,0,0.616,0.139,0.816,0.42H4.181
	C4.018,7.959,3.876,8.006,3.761,8.108z M15.953,10.309h-1.261V8.652c0.213,0.062,0.399,0.168,0.555,0.307
	c0.157,0.142,0.302,0.359,0.436,0.656c0.031,0.1,0.073,0.208,0.123,0.323C15.854,10.051,15.903,10.175,15.953,10.309z"/>
<g>
</g>
<g>
</g>
<g>
</g>
<g>
</g>
<g>
</g>
<g>
</g>
<g>
</g>
<g>
</g>
<g>
</g>
<g>
</g>
<g>
</g>
<g>
</g>
<g>
</g>
<g>
</g>
<g>
</g>
</svg>
