<?xml version="1.0" encoding="iso-8859-1"?>
<!-- Generator: Adobe Illustrator 16.0.4, SVG Export Plug-In . SVG Version: 6.00 Build 0)  -->
<!DOCTYPE svg PUBLIC "-//W3C//DTD SVG 1.1//EN" "http://www.w3.org/Graphics/SVG/1.1/DTD/svg11.dtd">
<svg version="1.1" id="Capa_1" xmlns="http://www.w3.org/2000/svg" xmlns:xlink="http://www.w3.org/1999/xlink" x="0px" y="0px"
	 width="15.5px" height="14.562px" viewBox="0 0 15.5 14.562" style="enable-background:new 0 0 15.5 14.562;" xml:space="preserve"
	>
<path style="fill:#010002;" d="M4.801,0.4H3.199C1.656,0.4,0.4,1.656,0.4,3.199v1.602C0.4,6.344,1.656,7.6,3.199,7.6h1.602
	C6.344,7.6,7.6,6.344,7.6,4.801V3.199C7.6,1.656,6.344,0.4,4.801,0.4 M6.801,3.501H1.199v1h5.602V3.501z M15.5,8.938h-1.875v5.625
	H8.938v-3.75H7.062v3.75H2.375V8.938H0.5l1.284-1.284C0.733,7.127,0,6.05,0,4.801V3.199C0,1.44,1.44,0,3.199,0h1.602
	C6.05,0,7.127,0.733,7.653,1.784L8,1.438L15.5,8.938z"/>
<g>
</g>
<g>
</g>
<g>
</g>
<g>
</g>
<g>
</g>
<g>
</g>
<g>
</g>
<g>
</g>
<g>
</g>
<g>
</g>
<g>
</g>
<g>
</g>
<g>
</g>
<g>
</g>
<g>
</g>
</svg>
