<?xml version="1.0" encoding="iso-8859-1"?>
<!-- Generator: Adobe Illustrator 16.0.4, SVG Export Plug-In . SVG Version: 6.00 Build 0)  -->
<!DOCTYPE svg PUBLIC "-//W3C//DTD SVG 1.1//EN" "http://www.w3.org/Graphics/SVG/1.1/DTD/svg11.dtd">
<svg version="1.1" id="Capa_1" xmlns="http://www.w3.org/2000/svg" xmlns:xlink="http://www.w3.org/1999/xlink" x="0px" y="0px"
	 width="20px" height="20px" viewBox="0 0 20 20" style="enable-background:new 0 0 20 20;" xml:space="preserve">
<path style="fill:#010002;" d="M6.801,2.4H5.199C3.656,2.4,2.4,3.656,2.4,5.199v1.602C2.4,8.344,3.656,9.6,5.199,9.6h1.602
	C8.344,9.6,9.6,8.344,9.6,6.801V5.199C9.6,3.656,8.344,2.4,6.801,2.4z M5.366,8.225l-2.12-2.119l0.707-0.707l1.413,1.412
	l2.681-2.682l0.707,0.707L5.366,8.225z M16,0H4C1.8,0,0,1.8,0,4v12c0,2.2,1.8,4,4,4h12c2.2,0,4-1.8,4-4V4C20,1.8,18.2,0,16,0z
	 M15.625,10.938v5.625h-4.688v-3.75H9.062v3.75H4.375v-5.625H2.5l1.284-1.284C2.733,9.127,2,8.05,2,6.801V5.199
	C2,3.44,3.44,2,5.199,2h1.602C8.05,2,9.127,2.733,9.653,3.784L10,3.438l7.5,7.5H15.625z"/>
<g>
</g>
<g>
</g>
<g>
</g>
<g>
</g>
<g>
</g>
<g>
</g>
<g>
</g>
<g>
</g>
<g>
</g>
<g>
</g>
<g>
</g>
<g>
</g>
<g>
</g>
<g>
</g>
<g>
</g>
</svg>
