<?xml version="1.0" encoding="iso-8859-1"?>
<!-- Generator: Adobe Illustrator 16.0.4, SVG Export Plug-In . SVG Version: 6.00 Build 0)  -->
<!DOCTYPE svg PUBLIC "-//W3C//DTD SVG 1.1//EN" "http://www.w3.org/Graphics/SVG/1.1/DTD/svg11.dtd">
<svg version="1.1" id="Capa_1" xmlns="http://www.w3.org/2000/svg" xmlns:xlink="http://www.w3.org/1999/xlink" x="0px" y="0px"
	 width="20px" height="20px" viewBox="0 0 20 20" style="enable-background:new 0 0 20 20;" xml:space="preserve">
<path style="fill:#010002;" d="M6.801,2.401H5.199C3.656,2.401,2.4,3.657,2.4,5.2v1.602c0,1.543,1.256,2.799,2.799,2.799h1.602
	c1.543,0,2.799-1.256,2.799-2.799V5.2C9.6,3.657,8.344,2.401,6.801,2.401z M8.801,6.502H3.199v-1h5.602V6.502z M16,0H4
	C1.8,0,0,1.8,0,4v12c0,2.2,1.8,4,4,4h12c2.2,0,4-1.8,4-4V4C20,1.8,18.2,0,16,0z M15.625,10.938v5.625h-4.688v-3.75H9.062v3.75H4.375
	v-5.625H2.5l1.284-1.284C2.733,9.128,2,8.051,2,6.802V5.2c0-1.759,1.44-3.199,3.199-3.199h1.602c1.249,0,2.326,0.733,2.853,1.784
	L10,3.438l7.5,7.5H15.625z"/>
<g>
</g>
<g>
</g>
<g>
</g>
<g>
</g>
<g>
</g>
<g>
</g>
<g>
</g>
<g>
</g>
<g>
</g>
<g>
</g>
<g>
</g>
<g>
</g>
<g>
</g>
<g>
</g>
<g>
</g>
</svg>
