<?xml version="1.0" encoding="iso-8859-1"?>
<!-- Generator: Adobe Illustrator 16.0.4, SVG Export Plug-In . SVG Version: 6.00 Build 0)  -->
<!DOCTYPE svg PUBLIC "-//W3C//DTD SVG 1.1//EN" "http://www.w3.org/Graphics/SVG/1.1/DTD/svg11.dtd">
<svg version="1.1" id="Capa_1" xmlns="http://www.w3.org/2000/svg" xmlns:xlink="http://www.w3.org/1999/xlink" x="0px" y="0px"
	 width="20px" height="20px" viewBox="0 0 20 20" style="enable-background:new 0 0 20 20;" xml:space="preserve">
<path style="fill:#010002;" d="M10,5.199C10,4.775,9.912,4.371,9.761,4H11v3H9.979C9.984,6.933,10,6.869,10,6.801V5.199z M6.801,2.4
	C8.344,2.4,9.6,3.656,9.6,5.199v1.602C9.6,8.344,8.344,9.6,6.801,9.6H5.199C3.656,9.6,2.4,8.344,2.4,6.801V5.199
	C2.4,3.656,3.656,2.4,5.199,2.4H6.801z M8.047,4.129L5.366,6.811L3.953,5.398L3.246,6.105l2.12,2.119l3.388-3.389L8.047,4.129z
	 M6,10v2h2V9.761C7.629,9.912,7.225,10,6.801,10H6z M14,9h-2v3h2V9z M9,9.109V12h2V9H9.109C9.073,9.037,9.037,9.074,9,9.109z M20,4
	v12c0,2.2-1.8,4-4,4H4c-2.2,0-4-1.8-4-4V4c0-2.2,1.8-4,4-4h12C18.2,0,20,1.8,20,4z M15,2.5H8.497C8.003,2.188,7.424,2,6.801,2H5.199
	C3.44,2,2,3.44,2,5.199v1.602c0,1.69,1.335,3.073,3,3.179V17.5h4v-3h2v3h4V2.5z M14,4h-2v3h2V4z"/>
<g>
</g>
<g>
</g>
<g>
</g>
<g>
</g>
<g>
</g>
<g>
</g>
<g>
</g>
<g>
</g>
<g>
</g>
<g>
</g>
<g>
</g>
<g>
</g>
<g>
</g>
<g>
</g>
<g>
</g>
</svg>
