<?xml version="1.0" encoding="iso-8859-1"?>
<!-- Generator: Adobe Illustrator 16.0.4, SVG Export Plug-In . SVG Version: 6.00 Build 0)  -->
<!DOCTYPE svg PUBLIC "-//W3C//DTD SVG 1.1//EN" "http://www.w3.org/Graphics/SVG/1.1/DTD/svg11.dtd">
<svg version="1.1" id="Capa_1" xmlns="http://www.w3.org/2000/svg" xmlns:xlink="http://www.w3.org/1999/xlink" x="0px" y="0px"
	 width="20px" height="20px" viewBox="0 0 20 20" style="enable-background:new 0 0 20 20;" xml:space="preserve">
<path style="fill:#010002;" d="M2.89,11.443l1.959-4.578l1.96,4.578H2.89z M13.191,11.443h3.919l-1.959-4.578L13.191,11.443z M20,4
	v12c0,2.2-1.8,4-4,4H4c-2.2,0-4-1.8-4-4V4c0-2.2,1.8-4,4-4h12C18.2,0,20,1.8,20,4z M17.5,11.443l-2.349-5.488V5.061h-4.465V2.912
	H9.313v2.148H4.849v0.895L2.5,11.443c0,0.752,1.052,1.363,2.349,1.363c1.298,0,2.35-0.611,2.35-1.363l-2.35-5.488h4.465v10.238
	H7.253v0.895h5.494v-0.895h-2.061V5.955h4.465l-2.35,5.488c0,0.752,1.052,1.363,2.35,1.363C16.448,12.807,17.5,12.195,17.5,11.443z"
	/>
<g>
</g>
<g>
</g>
<g>
</g>
<g>
</g>
<g>
</g>
<g>
</g>
<g>
</g>
<g>
</g>
<g>
</g>
<g>
</g>
<g>
</g>
<g>
</g>
<g>
</g>
<g>
</g>
<g>
</g>
</svg>
