<?xml version="1.0" encoding="iso-8859-1"?>
<!-- Generator: Adobe Illustrator 16.0.4, SVG Export Plug-In . SVG Version: 6.00 Build 0)  -->
<!DOCTYPE svg PUBLIC "-//W3C//DTD SVG 1.1//EN" "http://www.w3.org/Graphics/SVG/1.1/DTD/svg11.dtd">
<svg version="1.1" id="Capa_1" xmlns="http://www.w3.org/2000/svg" xmlns:xlink="http://www.w3.org/1999/xlink" x="0px" y="0px"
	 width="20px" height="20px" viewBox="0 0 20 20" style="enable-background:new 0 0 20 20;" xml:space="preserve">
<path style="fill:#010002;" d="M16,0H4C1.8,0,0,1.8,0,4v12c0,2.2,1.8,4,4,4h12c2.2,0,4-1.8,4-4V4C20,1.8,18.2,0,16,0z M13.647,4.766
	c0.731,0,1.326,0.594,1.326,1.326c0,0.734-0.595,1.328-1.326,1.328c-0.735,0-1.33-0.594-1.33-1.328
	C12.317,5.359,12.912,4.766,13.647,4.766z M5.527,4.275c0.03,0,0.058,0.014,0.088,0.018C5.604,4.22,5.571,4.154,5.571,4.077
	c0-0.871,0.707-1.577,1.58-1.577c0.872,0,1.578,0.706,1.578,1.577c0,0.077-0.032,0.143-0.043,0.216
	c0.029-0.004,0.057-0.018,0.088-0.018c0.4,0,0.723,0.31,0.723,0.689c0,0.381-0.322,0.689-0.723,0.689
	c-0.279,0-0.514-0.155-0.634-0.377C7.867,5.502,7.532,5.654,7.151,5.654c-0.383,0-0.717-0.152-0.99-0.377
	c-0.12,0.222-0.355,0.377-0.634,0.377c-0.4,0-0.723-0.309-0.723-0.689C4.805,4.585,5.127,4.275,5.527,4.275z M16.05,12.328
	c-0.15,0.064-0.325-0.01-0.39-0.158l-0.619-2.584l-0.085,2.746h-0.002l0.246,4.541c0.016,0.273-0.188,0.51-0.461,0.529
	c-0.013,0.002-0.024,0.002-0.037,0.002c-0.258,0-0.478-0.199-0.492-0.461l-0.565-4.285l-0.561,4.285
	c-0.021,0.262-0.238,0.461-0.497,0.461c-0.011,0-0.022,0-0.036-0.002c-0.271-0.02-0.478-0.256-0.46-0.529l0.242-4.541L12.25,9.586
	c0,0-1.649,1.662-1.752,1.707c-0.18,0.076-0.387-0.008-0.464-0.188l-1.34-2.916l1.016,4.926h-0.98l-0.303,4.031
	c0,0.193-0.159,0.354-0.352,0.354c-0.199,0-0.355-0.16-0.355-0.354l-0.302-4.031H7.24H7.062L6.76,17.146
	c0,0.193-0.157,0.354-0.355,0.354c-0.193,0-0.352-0.16-0.352-0.354l-0.304-4.031H4.77l1.015-4.926l-1.339,2.916
	c-0.076,0.18-0.285,0.264-0.465,0.188c-0.178-0.076-0.262-0.283-0.184-0.465c0,0,0.796-2.895,1.164-3.648
	c0.367-0.753,0.734-1.211,2.135-1.211H7.24h0.144c1.399,0,1.768,0.458,2.135,1.211c0.27,0.551,0.764,2.24,1.012,3.111
	c0.356-0.486,0.84-1.172,1.024-1.555c0.311-0.637,0.791-1.02,1.971-1.02h0.24c1.181,0,1.658,0.383,1.971,1.02
	c0.311,0.633,0.472,3.201,0.472,3.201C16.273,12.092,16.201,12.264,16.05,12.328z"/>
<g>
</g>
<g>
</g>
<g>
</g>
<g>
</g>
<g>
</g>
<g>
</g>
<g>
</g>
<g>
</g>
<g>
</g>
<g>
</g>
<g>
</g>
<g>
</g>
<g>
</g>
<g>
</g>
<g>
</g>
</svg>
