<?xml version="1.0" encoding="iso-8859-1"?>
<!-- Generator: Adobe Illustrator 16.0.4, SVG Export Plug-In . SVG Version: 6.00 Build 0)  -->
<!DOCTYPE svg PUBLIC "-//W3C//DTD SVG 1.1//EN" "http://www.w3.org/Graphics/SVG/1.1/DTD/svg11.dtd">
<svg version="1.1" id="Capa_1" xmlns="http://www.w3.org/2000/svg" xmlns:xlink="http://www.w3.org/1999/xlink" x="0px" y="0px"
	 width="15px" height="14.828px" viewBox="0 0 15 14.828" style="enable-background:new 0 0 15 14.828;" xml:space="preserve">
<path style="fill:#010002;" d="M1.135,9.055h4.137L4.38,14.783H1.957L1.135,9.055z M11.14,6.814c0.79-0.002,1.504-0.319,2.021-0.836
	c0.521-0.52,0.84-1.231,0.838-2.021c0-0.79-0.319-1.504-0.838-2.021c-0.518-0.52-1.23-0.838-2.021-0.838
	c-0.789,0-1.502,0.316-2.021,0.838C8.601,2.453,8.281,3.165,8.281,3.957c0,0.79,0.318,1.504,0.838,2.021
	C9.636,6.495,10.35,6.814,11.14,6.814z M4.567,4.654h-3.86C0.315,4.654,0,4.34,0,3.949c0-0.392,0.315-0.708,0.707-0.708h3.86
	c0.208,0,0.392,0.094,0.521,0.236h2.062C7.385,1.521,9.032-0.002,11.05,0c2.183-0.002,3.949,1.767,3.95,3.949
	c0,2.181-1.768,3.947-3.95,3.947c-2.018,0-3.666-1.521-3.9-3.478H5.088C4.959,4.562,4.775,4.654,4.567,4.654z M7.927,3.955
	c0,0.888,0.36,1.692,0.941,2.273C9.447,6.808,10.251,7.17,11.14,7.17c0.888-0.002,1.691-0.362,2.271-0.941
	c0.583-0.583,0.941-1.386,0.941-2.271c0-0.887-0.36-1.689-0.941-2.271c-0.581-0.581-1.385-0.941-2.271-0.941
	s-1.688,0.36-2.271,0.941C8.288,2.268,7.927,3.07,7.927,3.955z M7.116,14.58c0.169,0.165,0.378,0.248,0.626,0.248h6.291
	c0.249,0,0.457-0.083,0.627-0.248c0.168-0.163,0.252-0.368,0.252-0.616H6.861C6.861,14.212,6.946,14.417,7.116,14.58z
	 M14.235,10.093c0.136,0.133,0.242,0.292,0.322,0.476c0.079,0.187,0.118,0.381,0.118,0.59s-0.039,0.403-0.118,0.584
	c-0.08,0.178-0.187,0.333-0.322,0.467c-0.133,0.135-0.294,0.242-0.476,0.321c-0.186,0.08-0.381,0.12-0.59,0.12h-0.148v0.328
	c0,0.218-0.072,0.397-0.218,0.536c-0.144,0.139-0.319,0.209-0.528,0.209H8.903c-0.209,0-0.385-0.07-0.528-0.209
	c-0.145-0.139-0.216-0.318-0.216-0.536V9.652h5.011c0.209,0,0.404,0.039,0.59,0.12C13.941,9.851,14.103,9.959,14.235,10.093z
	 M14.079,11.158c0-0.256-0.086-0.474-0.259-0.649c-0.177-0.174-0.393-0.261-0.65-0.261h-0.148v1.806h0.148
	c0.258,0,0.474-0.087,0.65-0.263C13.993,11.617,14.079,11.406,14.079,11.158z"/>
<g>
</g>
<g>
</g>
<g>
</g>
<g>
</g>
<g>
</g>
<g>
</g>
<g>
</g>
<g>
</g>
<g>
</g>
<g>
</g>
<g>
</g>
<g>
</g>
<g>
</g>
<g>
</g>
<g>
</g>
</svg>
