<?xml version="1.0" encoding="iso-8859-1"?>
<!-- Generator: Adobe Illustrator 16.0.4, SVG Export Plug-In . SVG Version: 6.00 Build 0)  -->
<!DOCTYPE svg PUBLIC "-//W3C//DTD SVG 1.1//EN" "http://www.w3.org/Graphics/SVG/1.1/DTD/svg11.dtd">
<svg version="1.1" id="Capa_1" xmlns="http://www.w3.org/2000/svg" xmlns:xlink="http://www.w3.org/1999/xlink" x="0px" y="0px"
	 width="20px" height="20px" viewBox="0 0 20 20" style="enable-background:new 0 0 20 20;" xml:space="preserve">
<path style="fill:#010002;" d="M6.801,3.129l0.327-0.061c0.019,0.217-0.155,0.824-0.563,1.561C6.021,5.605,5.604,5.98,5.453,6
	L5.414,5.949c-0.05-0.215,0.135-0.941,0.602-1.82C6.246,3.697,6.551,3.322,6.801,3.129z M20,4v12c0,2.2-1.8,4-4,4H4
	c-2.2,0-4-1.8-4-4V4c0-2.2,1.8-4,4-4h12C18.2,0,20,1.8,20,4z M17.039,5.236c-0.436,0.041-2.267-0.299-2.932-0.488
	s-1.256-1.357-2.443-0.977c-1.188,0.379-2.124-0.49-2.932-0.49c-0.56,0-0.854-0.141-1.115-0.291C7.6,2.811,7.532,2.666,7.389,2.582
	C7.295,2.527,7.192,2.5,7.083,2.5c-0.165,0-0.328,0.07-0.482,0.17L3.357,3.285V3.281H2.868V17.5h0.489V4.111l1.641,2.098
	C5.013,6.24,5.04,6.262,5.06,6.289l0.06,0.076l0.007-0.008C5.15,6.381,5.162,6.41,5.192,6.428c0.076,0.043,0.159,0.064,0.247,0.064
	H5.44c0.096,0,0.197-0.037,0.302-0.092c0.485,0.168,1.201,0.336,1.523,0.303c0.452-0.049,1.087,0.18,1.467,0.488
	s2.063-0.096,2.443,0s1.503,0.764,1.955,0.977c0.45,0.215,2.205,0.072,2.443,0c0.237-0.07,1.125-1.727,1.244-1.953
	S17.301,5.213,17.039,5.236z M5.981,3.285L3.674,3.723l1.315,1.684C5.12,4.826,5.436,4.18,5.585,3.9
	C5.618,3.838,5.768,3.57,5.981,3.285z"/>
<g>
</g>
<g>
</g>
<g>
</g>
<g>
</g>
<g>
</g>
<g>
</g>
<g>
</g>
<g>
</g>
<g>
</g>
<g>
</g>
<g>
</g>
<g>
</g>
<g>
</g>
<g>
</g>
<g>
</g>
</svg>
