<?xml version="1.0" encoding="iso-8859-1"?>
<!-- Generator: Adobe Illustrator 16.0.4, SVG Export Plug-In . SVG Version: 6.00 Build 0)  -->
<!DOCTYPE svg PUBLIC "-//W3C//DTD SVG 1.1//EN" "http://www.w3.org/Graphics/SVG/1.1/DTD/svg11.dtd">
<svg version="1.1" id="Capa_1" xmlns="http://www.w3.org/2000/svg" xmlns:xlink="http://www.w3.org/1999/xlink" x="0px" y="0px"
	 width="20px" height="20px" viewBox="0 0 20 20" style="enable-background:new 0 0 20 20;" xml:space="preserve">
<path style="fill:#010002;" d="M16,0H4C1.8,0,0,1.8,0,4v12c0,2.2,1.8,4,4,4h12c2.2,0,4-1.8,4-4V4C20,1.8,18.2,0,16,0z M19,12.088
	h-2.219l-1.68,3.166c-0.141,0.264-0.424,0.413-0.723,0.396c-0.297-0.023-0.553-0.222-0.65-0.505l-1.254-3.672l-1.126,2.675
	c-0.13,0.306-0.44,0.487-0.773,0.455c-0.329-0.036-0.597-0.285-0.655-0.611L8.87,7.515l-1.252,9.837
	C7.568,17.716,7.262,17.99,6.895,18c-0.006,0-0.014,0-0.02,0c-0.359,0-0.668-0.254-0.736-0.608l-1.463-7.62L3.77,11.663
	c-0.125,0.26-0.389,0.426-0.677,0.426H1v-1.5h1.621l1.687-3.516C4.447,6.78,4.765,6.611,5.08,6.653
	c0.321,0.042,0.58,0.284,0.641,0.602l1.031,5.373L8.023,2.617C8.073,2.252,8.381,2.01,8.75,2.001
	c0.348-0.022,0.688,0.253,0.754,0.616l1.44,8.626l0.912-2.167c0.121-0.287,0.397-0.468,0.718-0.458
	c0.311,0.011,0.582,0.212,0.684,0.507l1.33,3.896l1.08-2.034c0.13-0.245,0.385-0.398,0.662-0.398H19V12.088z"/>
<g>
</g>
<g>
</g>
<g>
</g>
<g>
</g>
<g>
</g>
<g>
</g>
<g>
</g>
<g>
</g>
<g>
</g>
<g>
</g>
<g>
</g>
<g>
</g>
<g>
</g>
<g>
</g>
<g>
</g>
</svg>
