<?xml version="1.0" encoding="iso-8859-1"?>
<!-- Generator: Adobe Illustrator 16.0.4, SVG Export Plug-In . SVG Version: 6.00 Build 0)  -->
<!DOCTYPE svg PUBLIC "-//W3C//DTD SVG 1.1//EN" "http://www.w3.org/Graphics/SVG/1.1/DTD/svg11.dtd">
<svg version="1.1" id="Capa_1" xmlns="http://www.w3.org/2000/svg" xmlns:xlink="http://www.w3.org/1999/xlink" x="0px" y="0px"
	 width="13.325px" height="13.593px" viewBox="0 0 13.325 13.593" style="enable-background:new 0 0 13.325 13.593;"
	 xml:space="preserve">
<path style="fill:#010002;" d="M9.101,2.593c0,1.434-1.16,2.594-2.59,2.594c-1.434,0-2.598-1.16-2.598-2.594S5.077,0,6.511,0
	C7.94,0,9.101,1.159,9.101,2.593z M2.179,13.593h1.586h0.084l0.059-0.12l0.574-0.565L3.95,12.794l-0.84-0.18L2.179,13.593z
	 M13.03,3.074l-0.559,0.558l0.041,0.038L12.06,4.122c0.061,0.055,0.119,0.112,0.17,0.176l0.453-0.454l0.092,0.084l0.551-0.559
	L13.03,3.074z M9.45,5.952L9.212,6.188l0.025,0.066l0.055,0.129l-3.781,3.794l0.404,0.086c0.375,0.079,0.697,0.302,0.906,0.624
	c0.029,0.047,0.037,0.102,0.061,0.15l0.01-0.01l0.279,0.184l0.098-0.024l1.104,0.801l0.74-1.015L7.472,9.689l0.037-0.106l0.27-0.001
	L9.392,7.69l0.178-1.695L9.45,5.952z M11.204,4.273c-0.486-0.052-0.967,0.313-1.021,0.822l-0.061,0.553l0,0l-0.041,0.4l-0.18,1.695
	L9.886,7.903l-0.104,0.12L8.341,9.716l1.088,0.853l0.391,0.306l-0.227,0.311L9.647,11.3c0.154,0.325,0.484,0.528,0.838,0.528
	c0.051,0,0.104-0.003,0.154-0.013c0.408-0.071,0.723-0.402,0.768-0.813l0.619-5.705C12.081,4.786,11.714,4.329,11.204,4.273z
	 M9.317,11.563L8.788,12.29l-0.303,0.415l-0.416-0.302l-0.91-0.66l-0.084,0.021l-0.033-0.022c0,0.077-0.002,0.154-0.02,0.231
	c-0.016,0.077-0.045,0.147-0.074,0.219c-0.053,0.132-0.131,0.25-0.219,0.356l0.064,0.147c0.064,0.146,0.152,0.335,0.258,0.5
	l0.254,0.397h1.949L9.317,11.563z M5.614,13.113c-0.021,0-0.045-0.006-0.068-0.007c-0.008,0.041-0.016,0.071-0.016,0.071
	l0.219,0.415h0.527l0.342-0.12c-0.115-0.179-0.209-0.374-0.295-0.571C6.108,13.026,5.874,13.113,5.614,13.113z M6.376,11.151
	c-0.039-0.059-0.096-0.104-0.148-0.153c-0.031-0.029-0.057-0.066-0.094-0.091c-0.096-0.065-0.207-0.116-0.326-0.143L5.403,10.68
	l-0.922-0.197l0,0l-0.818-0.175l-0.316-0.068l-0.521-0.11l-0.037-0.008l0.084-0.082l0.352-0.352l0.379-0.379
	c0.031,0.26,0.045,0.466,0.045,0.47l0.123,0.026l1.143,0.244l0.234-0.235L8.688,6.26l-0.08-0.198l0.027-0.026
	C8.128,5.884,7.522,5.794,6.761,5.794h-0.25c0,0-0.248,0-0.25,0c-0.535,0-1.076,0.035-1.602,0.153
	C3.753,6.152,3.192,7.039,2.571,7.65C1.931,8.28,1.31,8.935,0.687,9.583C0.55,9.728,0.411,9.874,0.271,10.018
	c-0.24,0.241-0.328,0.593-0.232,0.919c0.094,0.327,0.363,0.573,0.695,0.646l1.225,0.262l0.52,0.11l2.941,0.626
	c0.066,0.013,0.131,0.02,0.195,0.02c0.428,0,0.812-0.298,0.906-0.734c0.035-0.17,0.008-0.332-0.043-0.484l-0.059-0.117
	C6.403,11.23,6.39,11.193,6.376,11.151z M5.075,13.417l-0.088-0.169l0.043-0.186l0.008-0.037l-0.139-0.029l-0.521,0.597h0.791
	L5.075,13.417z"/>
<g>
</g>
<g>
</g>
<g>
</g>
<g>
</g>
<g>
</g>
<g>
</g>
<g>
</g>
<g>
</g>
<g>
</g>
<g>
</g>
<g>
</g>
<g>
</g>
<g>
</g>
<g>
</g>
<g>
</g>
</svg>
