<?xml version="1.0" encoding="iso-8859-1"?>
<!-- Generator: Adobe Illustrator 16.0.4, SVG Export Plug-In . SVG Version: 6.00 Build 0)  -->
<!DOCTYPE svg PUBLIC "-//W3C//DTD SVG 1.1//EN" "http://www.w3.org/Graphics/SVG/1.1/DTD/svg11.dtd">
<svg version="1.1" id="Capa_1" xmlns="http://www.w3.org/2000/svg" xmlns:xlink="http://www.w3.org/1999/xlink" x="0px" y="0px"
	 width="9.963px" height="15px" viewBox="0 0 9.963 15" style="enable-background:new 0 0 9.963 15;" xml:space="preserve">
<path style="fill:#010002;" d="M9.957,9.013C9.992,9.21,9.858,9.399,9.66,9.435C9.64,9.438,9.617,9.439,9.597,9.439
	c-0.175,0-0.328-0.125-0.358-0.303l-0.58-2.634L8.569,9.367H8.567l0.257,4.735c0.017,0.286-0.196,0.532-0.48,0.552
	c-0.013,0.002-0.024,0.002-0.039,0.002c-0.268,0-0.498-0.207-0.513-0.479l-0.59-4.469l-0.585,4.469
	c-0.021,0.272-0.248,0.479-0.519,0.479c-0.011,0-0.022,0-0.036-0.002c-0.283-0.02-0.498-0.266-0.479-0.552l0.251-4.735L5.747,6.503
	L3.662,8.468C3.593,8.53,3.506,8.562,3.419,8.562c-0.1,0-0.199-0.042-0.272-0.122C3.014,8.29,3.025,8.059,3.176,7.924
	c0,0,1.659-1.917,1.847-2.308c0.324-0.663,0.825-1.063,2.056-1.063h0.25c1.231,0,1.729,0.4,2.055,1.063
	C9.597,6.052,9.957,9.013,9.957,9.013z M7.206,1.477c-0.768,0-1.388,0.619-1.388,1.383c0,0.766,0.62,1.386,1.388,1.386
	c0.763,0,1.382-0.62,1.382-1.386C8.588,2.096,7.969,1.477,7.206,1.477z M1.886,0.686L1.839,0.689l0.142,1.52l0.32-0.027l0.501-0.047
	l0.023,0.242L2.321,2.426l0.137,1.44L2.63,3.928L2.661,4.22L2.499,4.307l0.584,6.239l0.36,0.24l-0.123,0.15l-0.211-0.094
	l0.062,0.665l-0.386,0.964L3.008,15c0,0-0.686-0.29-1.472-0.157l0.644-2.766l-0.12-1.172l-0.143-0.023
	c-0.012-0.107-0.164-0.262-0.348-0.243c-0.183,0.018-0.318,0.337-0.318,0.337l-0.518,0.217l-0.378-0.623
	c0.318-0.102,0.647-0.273,0.91-0.427c-0.005-0.029-0.025-0.071-0.068-0.119C1.045,9.842,1.021,9.779,1.041,9.642
	C1.026,9.607,1.004,9.532,0.994,9.445C0.99,9.383,0.992,9.317,1.018,9.263C1.045,9.202,1.096,9.16,1.159,9.135
	C1.313,9.091,1.46,9.103,1.562,9.124L1.532,8.77L1.241,8.738L1.189,8.666L0,8.595l0.067-1.097l1.815,0.048l0.036-0.093l-0.18-0.151
	l-0.078-5.06l0.106-0.009L1.626,0.711L1.519,0.718L1.456,0.034L1.819,0L1.886,0.686z M1.285,9.946
	c0.041,0.05,0.069,0.095,0.094,0.132c0.098-0.059,0.187-0.112,0.25-0.151L1.618,9.766c-0.19,0.047-0.375-0.008-0.47-0.051
	C1.149,9.771,1.173,9.817,1.285,9.946z M1.194,9.243C1.163,9.257,1.138,9.279,1.122,9.308c-0.04,0.09,0.005,0.237,0.027,0.298
	C1.374,9.684,1.517,9.647,1.6,9.58L1.572,9.247C1.486,9.222,1.34,9.198,1.194,9.243z"/>
<g>
</g>
<g>
</g>
<g>
</g>
<g>
</g>
<g>
</g>
<g>
</g>
<g>
</g>
<g>
</g>
<g>
</g>
<g>
</g>
<g>
</g>
<g>
</g>
<g>
</g>
<g>
</g>
<g>
</g>
</svg>
