<?xml version="1.0" encoding="iso-8859-1"?>
<!-- Generator: Adobe Illustrator 16.0.4, SVG Export Plug-In . SVG Version: 6.00 Build 0)  -->
<!DOCTYPE svg PUBLIC "-//W3C//DTD SVG 1.1//EN" "http://www.w3.org/Graphics/SVG/1.1/DTD/svg11.dtd">
<svg version="1.1" id="Capa_1" xmlns="http://www.w3.org/2000/svg" xmlns:xlink="http://www.w3.org/1999/xlink" x="0px" y="0px"
	 width="12.287px" height="15px" viewBox="0 0 12.287 15" style="enable-background:new 0 0 12.287 15;" xml:space="preserve">
<path style="fill:#010002;" d="M6.184,1.537c0,0.85-0.688,1.539-1.538,1.539S3.107,2.387,3.107,1.537S3.796,0,4.646,0
	S6.184,0.688,6.184,1.537z M4.683,14.014c-2.039,0-3.697-1.658-3.697-3.696c0-1.374,0.762-2.562,1.876-3.198V6.004
	C1.182,6.715,0,8.381,0,10.317C0,12.898,2.1,15,4.683,15c1.714,0,3.201-0.939,4.016-2.318l-0.506-1.267
	C7.722,12.916,6.337,14.014,4.683,14.014z M11.55,11.765h-1.111c0,0-0.673-1.919-0.861-2.429C9.456,8.999,9.141,8.754,8.762,8.754
	H6.063V6.867h2.56c0.339,0,0.614-0.273,0.614-0.613S8.962,5.637,8.623,5.637h-2.56c0,0-0.147-2.238-1.418-2.238
	c-0.87,0-1.168,0.706-1.168,1.576v3.951c0,0.871,0.707,1.578,1.576,1.578c0.026,0,0.048-0.014,0.073-0.014
	c0.024,0.001,0.047,0.014,0.073,0.014h3.291l1.095,2.736h1.964c0.406,0,0.737-0.331,0.737-0.738
	C12.287,12.094,11.956,11.765,11.55,11.765z"/>
<g>
</g>
<g>
</g>
<g>
</g>
<g>
</g>
<g>
</g>
<g>
</g>
<g>
</g>
<g>
</g>
<g>
</g>
<g>
</g>
<g>
</g>
<g>
</g>
<g>
</g>
<g>
</g>
<g>
</g>
</svg>
