<?xml version="1.0" encoding="iso-8859-1"?>
<!-- Generator: Adobe Illustrator 16.0.4, SVG Export Plug-In . SVG Version: 6.00 Build 0)  -->
<!DOCTYPE svg PUBLIC "-//W3C//DTD SVG 1.1//EN" "http://www.w3.org/Graphics/SVG/1.1/DTD/svg11.dtd">
<svg version="1.1" id="Capa_1" xmlns="http://www.w3.org/2000/svg" xmlns:xlink="http://www.w3.org/1999/xlink" x="0px" y="0px"
	 width="20px" height="20px" viewBox="0 0 20 20" style="enable-background:new 0 0 20 20;" xml:space="preserve">
<path style="fill:#010002;" d="M16,0H4C1.8,0,0,1.8,0,4v12c0,2.2,1.8,4,4,4h12c2.2,0,4-1.8,4-4V4C20,1.8,18.2,0,16,0z M4.99,2.809
	c0.673,0,1.22,0.547,1.22,1.222S5.663,5.252,4.99,5.252c-0.677,0-1.224-0.547-1.224-1.222S4.313,2.809,4.99,2.809z M7.11,11.109
	c-0.015,0.002-0.028,0.003-0.044,0.003c-0.207,0-0.385-0.157-0.407-0.368L6.337,7.415L6.258,9.999l0.235,6.679
	c0.017,0.264-0.182,0.494-0.444,0.512c-0.014,0.002-0.025,0.002-0.034,0.002c-0.251,0-0.463-0.193-0.481-0.446l-0.544-5.501
	l-0.544,5.501c-0.019,0.253-0.23,0.446-0.481,0.446c-0.009,0-0.021,0-0.034-0.002c-0.263-0.018-0.461-0.248-0.444-0.512L3.72,9.999
	L3.641,7.415l-0.322,3.329c-0.021,0.211-0.199,0.368-0.407,0.368c-0.015,0-0.028-0.001-0.044-0.003
	c-0.226-0.023-0.389-0.225-0.365-0.451c0,0,0.316-3.83,0.466-4.137c0.3-0.611,0.765-0.984,1.904-0.984h0.117h0.117
	c1.14,0,1.604,0.373,1.904,0.984c0.149,0.307,0.465,4.137,0.465,4.137C7.5,10.885,7.337,11.086,7.11,11.109z M14.175,17.191h-2.539
	v-2.268v-0.357h2.539V17.191z M17.044,8.615c-0.301,0.452-0.858,1.053-1.69,1.845c-0.584,0.55-0.946,1.015-1.092,1.339
	c-0.148,0.314-0.244,0.855-0.244,1.602v0.354h-2.345V13.4c0-0.906,0.104-1.65,0.336-2.248c0.241-0.617,0.738-1.256,1.475-1.969
	l0.754-0.73c0.203-0.189,0.365-0.381,0.493-0.584c0.222-0.352,0.322-0.689,0.322-1.047c-0.004-0.528-0.155-0.952-0.463-1.336
	c-0.275-0.327-0.755-0.528-1.543-0.531c-0.969,0.012-1.508,0.316-1.854,0.953c-0.185,0.343-0.312,0.904-0.343,1.671L10.838,7.92
	H8.505V7.565c-0.003-1.388,0.398-2.56,1.231-3.437c0.826-0.883,1.982-1.322,3.374-1.32c1.285-0.002,2.367,0.371,3.177,1.131
	c0.808,0.748,1.219,1.748,1.213,2.901C17.503,7.539,17.357,8.14,17.044,8.615z"/>
<g>
</g>
<g>
</g>
<g>
</g>
<g>
</g>
<g>
</g>
<g>
</g>
<g>
</g>
<g>
</g>
<g>
</g>
<g>
</g>
<g>
</g>
<g>
</g>
<g>
</g>
<g>
</g>
<g>
</g>
</svg>
