<?xml version="1.0" encoding="iso-8859-1"?>
<!-- Generator: Adobe Illustrator 16.0.4, SVG Export Plug-In . SVG Version: 6.00 Build 0)  -->
<!DOCTYPE svg PUBLIC "-//W3C//DTD SVG 1.1//EN" "http://www.w3.org/Graphics/SVG/1.1/DTD/svg11.dtd">
<svg version="1.1" id="Capa_1" xmlns="http://www.w3.org/2000/svg" xmlns:xlink="http://www.w3.org/1999/xlink" x="0px" y="0px"
	 width="14.689px" height="15px" viewBox="0 0 14.689 15" style="enable-background:new 0 0 14.689 15;" xml:space="preserve">
<path style="fill:#010002;" d="M0.23,4.403c0-1.092,0.885-1.976,1.979-1.976c1.09,0,1.973,0.884,1.973,1.976
	S3.299,6.378,2.209,6.378C1.115,6.378,0.23,5.495,0.23,4.403z M8.98,6.252C8.662,6.061,8.252,6.16,8.059,6.476L6.74,8.639L4.881,7.6
	C4.045,7.085,3.637,6.841,2.396,6.841H2.207H2.018c-2.408,0.281-1.99,2.21-1.99,2.21L0.32,15l4.238-0.047L4.391,9.051l2.26,1.072
	c0.104,0.059,0.215,0.085,0.326,0.085c0.227,0,0.447-0.114,0.574-0.321l1.654-2.714C9.396,6.857,9.297,6.445,8.98,6.252z
	 M3.627,6.047C3.48,6.173,3.32,6.28,3.145,6.365v0.312C3.32,6.697,3.48,6.726,3.627,6.766V6.047z M14.689,0H3.145v2.441
	C3.32,2.525,3.48,2.633,3.627,2.759V0.481h10.582V7.72H9.113L8.82,8.201h5.869V0z M6.766,8.201L7.061,7.72H5.52l0.861,0.481H6.766z
	 M10.844,3.322l-0.232-0.133L8.996,6.006L9.23,6.14L10.844,3.322z"/>
<g>
</g>
<g>
</g>
<g>
</g>
<g>
</g>
<g>
</g>
<g>
</g>
<g>
</g>
<g>
</g>
<g>
</g>
<g>
</g>
<g>
</g>
<g>
</g>
<g>
</g>
<g>
</g>
<g>
</g>
</svg>
