<?xml version="1.0" encoding="iso-8859-1"?>
<!-- Generator: Adobe Illustrator 16.0.4, SVG Export Plug-In . SVG Version: 6.00 Build 0)  -->
<!DOCTYPE svg PUBLIC "-//W3C//DTD SVG 1.1//EN" "http://www.w3.org/Graphics/SVG/1.1/DTD/svg11.dtd">
<svg version="1.1" id="Capa_1" xmlns="http://www.w3.org/2000/svg" xmlns:xlink="http://www.w3.org/1999/xlink" x="0px" y="0px"
	 width="15.795px" height="14.999px" viewBox="0 0 15.795 14.999" style="enable-background:new 0 0 15.795 14.999;"
	 xml:space="preserve">
<path style="fill:#010002;" d="M7.377,1.185c0.125,0.771-0.395,1.497-1.164,1.624c-0.771,0.126-1.5-0.396-1.625-1.165
	C4.461,0.872,4.982,0.145,5.754,0.019C6.523-0.108,7.252,0.414,7.377,1.185z M6.936,6.788l1.25,1.998
	C8.363,9.067,8.732,9.158,9.018,8.99c0.287-0.169,0.387-0.535,0.227-0.826L8.928,7.59C8.652,7.099,8.383,6.606,8.109,6.114
	L7.551,5.102C7.488,4.985,7.424,4.854,7.357,4.715C7.014,3.994,6.479,2.881,5.303,2.983C4.299,3.07,3.279,3.548,2.275,4.4
	C1.084,5.339,0.254,6.7,0.221,6.759C0.182,6.82,0.145,6.88,0.115,6.937C0.113,6.939,0.111,6.941,0.109,6.943v0.001
	c-0.111,0.21-0.166,0.402-0.027,0.646c0.109,0.192,0.314,0.312,0.535,0.312c0.268,0,0.404-0.126,0.537-0.318l0,0
	C1.156,7.582,1.156,7.58,1.156,7.578C1.193,7.523,1.23,7.464,1.27,7.401c0.008-0.012,0.705-1.13,1.783-2.05
	C3.385,5.091,3.701,4.911,4,4.812L3.76,7.722C3.736,8.01,3.645,8.506,3.566,8.784L3.025,10.68c-0.07,0.239-0.273,0.637-0.432,0.831
	l-1.461,1.811c-0.186,0.23-0.396,0.491-0.223,0.852c0.102,0.213,0.318,0.349,0.555,0.349c0.283,0,0.436-0.163,0.627-0.37l1.48-1.597
	c0.264-0.284,0.607-0.779,0.777-1.129l0.734-1.494l2.715,4.562c0.133,0.226,0.301,0.505,0.67,0.505l0,0
	c0.211,0,0.404-0.107,0.518-0.283c0.193-0.3,0.064-0.576-0.049-0.82l-2.195-4.77C6.656,8.939,6.609,8.558,6.646,8.354L6.936,6.788z
	 M9.236,11.753h3.289v0.978l3.27-1.888l-3.27-1.888v0.977H9.236V11.753z"/>
<g>
</g>
<g>
</g>
<g>
</g>
<g>
</g>
<g>
</g>
<g>
</g>
<g>
</g>
<g>
</g>
<g>
</g>
<g>
</g>
<g>
</g>
<g>
</g>
<g>
</g>
<g>
</g>
<g>
</g>
</svg>
