<?xml version="1.0" encoding="iso-8859-1"?>
<!-- Generator: Adobe Illustrator 16.0.4, SVG Export Plug-In . SVG Version: 6.00 Build 0)  -->
<!DOCTYPE svg PUBLIC "-//W3C//DTD SVG 1.1//EN" "http://www.w3.org/Graphics/SVG/1.1/DTD/svg11.dtd">
<svg version="1.1" id="Capa_1" xmlns="http://www.w3.org/2000/svg" xmlns:xlink="http://www.w3.org/1999/xlink" x="0px" y="0px"
	 width="20px" height="20px" viewBox="0 0 20 20" style="enable-background:new 0 0 20 20;" xml:space="preserve">
<path style="fill:#010002;" d="M16,0H4C1.8,0,0,1.8,0,4v12c0,2.2,1.8,4,4,4h12c2.2,0,4-1.8,4-4V4C20,1.8,18.2,0,16,0z M7.856,2.52
	c0.77-0.127,1.498,0.396,1.623,1.166S9.085,5.183,8.315,5.31c-0.771,0.126-1.5-0.396-1.625-1.165
	C6.563,3.373,7.085,2.646,7.856,2.52z M8.845,11.627l2.195,4.77c0.113,0.244,0.242,0.521,0.049,0.82
	c-0.113,0.176-0.307,0.283-0.518,0.283c-0.369,0-0.537-0.279-0.67-0.505l-2.715-4.562l-0.734,1.494
	c-0.17,0.35-0.514,0.845-0.777,1.129l-1.48,1.597c-0.191,0.207-0.344,0.37-0.627,0.37c-0.236,0-0.453-0.136-0.555-0.349
	c-0.174-0.36,0.037-0.621,0.223-0.852l1.461-1.811c0.158-0.194,0.361-0.592,0.432-0.831l0.541-1.896
	c0.078-0.278,0.17-0.774,0.193-1.062l0.24-2.909C5.804,7.412,5.487,7.592,5.155,7.853c-1.078,0.92-1.775,2.038-1.783,2.05
	c-0.039,0.062-0.076,0.122-0.113,0.177c0,0.002,0,0.004-0.002,0.005c-0.133,0.192-0.27,0.318-0.537,0.318
	c-0.221,0-0.426-0.119-0.535-0.312C2.046,9.848,2.101,9.655,2.212,9.445V9.444C2.214,9.442,2.216,9.44,2.218,9.438
	C2.247,9.381,2.284,9.321,2.323,9.26c0.033-0.059,0.863-1.42,2.055-2.358c1.004-0.853,2.023-1.33,3.027-1.417
	C8.581,5.382,9.116,6.495,9.46,7.216c0.066,0.14,0.131,0.271,0.193,0.387l0.559,1.013c0.273,0.492,0.543,0.984,0.818,1.476
	l0.316,0.574c0.16,0.291,0.061,0.657-0.227,0.826c-0.285,0.168-0.654,0.077-0.832-0.204l-1.25-1.998l-0.289,1.566
	C8.712,11.059,8.759,11.44,8.845,11.627z M14.628,15.231v-0.978h-3.289v-1.821h3.289v-0.977l3.27,1.888L14.628,15.231z"/>
<g>
</g>
<g>
</g>
<g>
</g>
<g>
</g>
<g>
</g>
<g>
</g>
<g>
</g>
<g>
</g>
<g>
</g>
<g>
</g>
<g>
</g>
<g>
</g>
<g>
</g>
<g>
</g>
<g>
</g>
</svg>
