<?xml version="1.0" encoding="iso-8859-1"?>
<!-- Generator: Adobe Illustrator 16.0.4, SVG Export Plug-In . SVG Version: 6.00 Build 0)  -->
<!DOCTYPE svg PUBLIC "-//W3C//DTD SVG 1.1//EN" "http://www.w3.org/Graphics/SVG/1.1/DTD/svg11.dtd">
<svg version="1.1" id="Capa_1" xmlns="http://www.w3.org/2000/svg" xmlns:xlink="http://www.w3.org/1999/xlink" x="0px" y="0px"
	 width="15px" height="13.637px" viewBox="0 0 15 13.637" style="enable-background:new 0 0 15 13.637;" xml:space="preserve">
<path style="fill:#010002;" d="M11.428,12.392c0.001,0.019,0.016,0.033,0.016,0.052c0,0.66-1.715,1.193-3.831,1.193
	c-2.075,0-3.753-0.513-3.82-1.153H3.78v-2.096h0.01c0.057,0.645,1.74,1.158,3.822,1.158c2.06,0,3.725-0.504,3.815-1.138V12.392z
	 M7.612,8.838c-2.116,0-3.832,0.531-3.832,1.191c0,0.011,0.009,0.021,0.01,0.031c0.057,0.645,1.74,1.158,3.822,1.158
	c2.06,0,3.725-0.504,3.815-1.137c0.001-0.02,0.016-0.036,0.016-0.053C11.443,9.369,9.729,8.838,7.612,8.838z M1.071,8.039
	l2.835,0.573L2.934,5.421L5.12,6.648l0.545-3.397L7.12,6.193L8.927,4.03l0.486,3.108l2.753-1.637l-0.243,3.356L13.3,8.531
	l-0.661,3.082L15,6.893l-2.284,0.772l0.688-4.257L9.956,6.116L9.879,1.317L7.427,4.568L5.204,0L4.473,5.587l-3.044-1.97l1.586,4.258
	L0,6.994l2.599,4.619L1.071,8.039z"/>
<g>
</g>
<g>
</g>
<g>
</g>
<g>
</g>
<g>
</g>
<g>
</g>
<g>
</g>
<g>
</g>
<g>
</g>
<g>
</g>
<g>
</g>
<g>
</g>
<g>
</g>
<g>
</g>
<g>
</g>
</svg>
