<?xml version="1.0" encoding="iso-8859-1"?>
<!-- Generator: Adobe Illustrator 16.0.4, SVG Export Plug-In . SVG Version: 6.00 Build 0)  -->
<!DOCTYPE svg PUBLIC "-//W3C//DTD SVG 1.1//EN" "http://www.w3.org/Graphics/SVG/1.1/DTD/svg11.dtd">
<svg version="1.1" id="Capa_1" xmlns="http://www.w3.org/2000/svg" xmlns:xlink="http://www.w3.org/1999/xlink" x="0px" y="0px"
	 width="20px" height="20px" viewBox="0 0 20 20" style="enable-background:new 0 0 20 20;" xml:space="preserve">
<path style="fill:#010002;" d="M16,0H4C1.8,0,0,1.8,0,4v12c0,2.2,1.8,4,4,4h12c2.2,0,4-1.8,4-4V4C20,1.8,18.2,0,16,0z
	 M12.175,17.062c0,0.24-0.196,0.438-0.438,0.438H8.264c-0.242,0-0.438-0.197-0.438-0.438v-7.35c0-0.242,0.196-0.438,0.438-0.438
	h1.466V7.707c-0.12-0.088-0.203-0.221-0.203-0.381c0-0.26,0.211-0.473,0.474-0.473c0.26,0,0.474,0.213,0.474,0.473
	c0,0.158-0.084,0.293-0.203,0.379v1.57h1.466c0.242,0,0.438,0.195,0.438,0.438V17.062z M11.971,7.605
	c-0.147,0-0.267-0.123-0.267-0.27C11.701,6.396,10.941,5.635,10,5.631C9.061,5.635,8.299,6.396,8.296,7.336
	c0,0.146-0.119,0.27-0.267,0.27c-0.148,0-0.268-0.123-0.268-0.27c0-1.238,1.003-2.238,2.238-2.238s2.236,1,2.238,2.238
	C12.238,7.482,12.119,7.605,11.971,7.605z M13.181,7.605c-0.147,0-0.268-0.123-0.268-0.27C12.908,5.725,11.61,4.428,10,4.424
	C8.391,4.428,7.089,5.725,7.087,7.336c0,0.146-0.118,0.27-0.268,0.27c-0.147,0-0.267-0.123-0.267-0.27
	c0-1.904,1.543-3.445,3.447-3.451c1.905,0.006,3.447,1.547,3.447,3.451C13.447,7.482,13.328,7.605,13.181,7.605z M14.568,7.605
	c-0.148,0-0.268-0.123-0.268-0.27C14.296,4.959,12.374,3.039,10,3.035C7.626,3.039,5.704,4.959,5.699,7.336
	c0,0.146-0.119,0.27-0.268,0.27c-0.147,0-0.267-0.123-0.267-0.27C5.165,4.666,7.33,2.5,10,2.5s4.835,2.166,4.835,4.836
	C14.835,7.482,14.716,7.605,14.568,7.605z M11.54,10.623v2.594c0,0.24-0.197,0.438-0.438,0.438H8.897
	c-0.243,0-0.438-0.197-0.438-0.438v-2.594c0-0.242,0.194-0.438,0.438-0.438h2.205C11.343,10.186,11.54,10.381,11.54,10.623z"/>
<g>
</g>
<g>
</g>
<g>
</g>
<g>
</g>
<g>
</g>
<g>
</g>
<g>
</g>
<g>
</g>
<g>
</g>
<g>
</g>
<g>
</g>
<g>
</g>
<g>
</g>
<g>
</g>
<g>
</g>
</svg>
