<?xml version="1.0" encoding="iso-8859-1"?>
<!-- Generator: Adobe Illustrator 16.0.4, SVG Export Plug-In . SVG Version: 6.00 Build 0)  -->
<!DOCTYPE svg PUBLIC "-//W3C//DTD SVG 1.1//EN" "http://www.w3.org/Graphics/SVG/1.1/DTD/svg11.dtd">
<svg version="1.1" id="Capa_1" xmlns="http://www.w3.org/2000/svg" xmlns:xlink="http://www.w3.org/1999/xlink" x="0px" y="0px"
	 width="9.67px" height="15px" viewBox="0 0 9.67 15" style="enable-background:new 0 0 9.67 15;" xml:space="preserve">
<path style="fill:#010002;" d="M6.571,6.775H5.105v-1.57c0.119-0.086,0.203-0.221,0.203-0.379c0-0.26-0.214-0.473-0.474-0.473
	c-0.263,0-0.474,0.213-0.474,0.473c0,0.16,0.083,0.293,0.203,0.381v1.568H3.099c-0.242,0-0.438,0.195-0.438,0.438v7.35
	C2.66,14.803,2.856,15,3.099,15h3.473c0.242,0,0.438-0.197,0.438-0.438v-7.35C7.01,6.971,6.813,6.775,6.571,6.775z M6.375,10.717
	c0,0.24-0.197,0.438-0.438,0.438H3.732c-0.243,0-0.438-0.197-0.438-0.438V8.123c0-0.242,0.194-0.438,0.438-0.438h2.205
	c0.24,0,0.438,0.195,0.438,0.438V10.717z M9.67,4.836c0,0.146-0.119,0.27-0.267,0.27c-0.148,0-0.268-0.123-0.268-0.27
	C9.131,2.459,7.209,0.539,4.835,0.535C2.461,0.539,0.539,2.459,0.534,4.836c0,0.146-0.119,0.27-0.268,0.27
	C0.119,5.105,0,4.982,0,4.836C0,2.166,2.165,0,4.835,0S9.67,2.166,9.67,4.836z M8.282,4.836c0,0.146-0.119,0.27-0.267,0.27
	s-0.268-0.123-0.268-0.27C7.743,3.225,6.445,1.928,4.835,1.924C3.226,1.928,1.924,3.225,1.922,4.836c0,0.146-0.118,0.27-0.268,0.27
	c-0.147,0-0.267-0.123-0.267-0.27c0-1.904,1.543-3.445,3.447-3.451C6.74,1.391,8.282,2.932,8.282,4.836z M7.073,4.836
	c0,0.146-0.119,0.27-0.268,0.27c-0.147,0-0.267-0.123-0.267-0.27C6.536,3.896,5.776,3.135,4.835,3.131
	C3.896,3.135,3.134,3.896,3.131,4.836c0,0.146-0.119,0.27-0.267,0.27c-0.148,0-0.268-0.123-0.268-0.27
	c0-1.238,1.003-2.238,2.238-2.238S7.071,3.598,7.073,4.836z"/>
<g>
</g>
<g>
</g>
<g>
</g>
<g>
</g>
<g>
</g>
<g>
</g>
<g>
</g>
<g>
</g>
<g>
</g>
<g>
</g>
<g>
</g>
<g>
</g>
<g>
</g>
<g>
</g>
<g>
</g>
</svg>
