<?xml version="1.0" encoding="iso-8859-1"?>
<!-- Generator: Adobe Illustrator 16.0.4, SVG Export Plug-In . SVG Version: 6.00 Build 0)  -->
<!DOCTYPE svg PUBLIC "-//W3C//DTD SVG 1.1//EN" "http://www.w3.org/Graphics/SVG/1.1/DTD/svg11.dtd">
<svg version="1.1" id="Capa_1" xmlns="http://www.w3.org/2000/svg" xmlns:xlink="http://www.w3.org/1999/xlink" x="0px" y="0px"
	 width="10px" height="10px" viewBox="0 0 10 10" style="enable-background:new 0 0 10 10;" xml:space="preserve">
<g>
	<g>
		<path style="fill:#010002;" d="M4,9.75C1.933,9.75,0.25,8.067,0.25,6V4c0-2.067,1.683-3.75,3.75-3.75h2
			c2.067,0,3.75,1.683,3.75,3.75v2c0,2.067-1.683,3.75-3.75,3.75H4z"/>
		<path style="fill:#010002;" d="M6,0.5c1.93,0,3.5,1.57,3.5,3.5v2c0,1.93-1.57,3.5-3.5,3.5H4C2.07,9.5,0.5,7.93,0.5,6V4
			c0-1.93,1.57-3.5,3.5-3.5H6 M6,0H4C1.8,0,0,1.8,0,4v2c0,2.2,1.8,4,4,4h2c2.2,0,4-1.8,4-4V4C10,1.8,8.2,0,6,0L6,0z"/>
	</g>
	<line style="fill:#010002;stroke:#FFFFFF;stroke-miterlimit:10;" x1="8.501" y1="5.002" x2="1.501" y2="5.002"/>
</g>
<g>
</g>
<g>
</g>
<g>
</g>
<g>
</g>
<g>
</g>
<g>
</g>
<g>
</g>
<g>
</g>
<g>
</g>
<g>
</g>
<g>
</g>
<g>
</g>
<g>
</g>
<g>
</g>
<g>
</g>
</svg>
