<?xml version="1.0" encoding="iso-8859-1"?>
<!-- Generator: Adobe Illustrator 16.0.4, SVG Export Plug-In . SVG Version: 6.00 Build 0)  -->
<!DOCTYPE svg PUBLIC "-//W3C//DTD SVG 1.1//EN" "http://www.w3.org/Graphics/SVG/1.1/DTD/svg11.dtd">
<svg version="1.1" id="Capa_1" xmlns="http://www.w3.org/2000/svg" xmlns:xlink="http://www.w3.org/1999/xlink" x="0px" y="0px"
	 width="15px" height="14.71px" viewBox="0 0 15 14.71" style="enable-background:new 0 0 15 14.71;" xml:space="preserve">
<path style="fill:#010002;" d="M1.264,6.934l-0.828,0.84L0,7.207l1.332-1.215H2.01v4.83H1.264V6.934z M2.957,10.344
	c0-0.146,0.049-0.271,0.146-0.375c0.098-0.104,0.215-0.156,0.352-0.156c0.133,0,0.248,0.052,0.348,0.15
	c0.1,0.099,0.15,0.223,0.15,0.368c0,0.145-0.049,0.271-0.146,0.375c-0.098,0.104-0.215,0.158-0.352,0.158
	c-0.066,0-0.131-0.015-0.189-0.041c-0.061-0.028-0.114-0.065-0.161-0.11c-0.045-0.046-0.082-0.101-0.107-0.164
	C2.971,10.488,2.957,10.417,2.957,10.344z M4.898,9.586l2.445-2.595c0.07-0.078,0.145-0.16,0.223-0.248
	c0.076-0.088,0.146-0.182,0.209-0.276c0.061-0.101,0.113-0.201,0.154-0.31C7.97,6.053,7.991,5.939,7.991,5.822
	c0-0.143-0.023-0.27-0.076-0.379C7.867,5.332,7.801,5.237,7.717,5.16c-0.082-0.078-0.18-0.139-0.289-0.182
	c-0.11-0.04-0.227-0.062-0.352-0.062C6.81,4.916,6.592,5,6.42,5.171C6.246,5.338,6.145,5.567,6.107,5.852L4.988,5.754
	c0.023-0.318,0.094-0.601,0.209-0.845c0.115-0.241,0.266-0.444,0.448-0.608c0.186-0.16,0.398-0.285,0.643-0.369
	c0.241-0.084,0.505-0.127,0.788-0.127c0.285,0,0.551,0.041,0.797,0.121c0.246,0.082,0.461,0.203,0.643,0.36
	c0.188,0.16,0.33,0.363,0.438,0.609C9.059,5.143,9.111,5.43,9.111,5.762c0,0.436-0.09,0.811-0.27,1.125
	C8.66,7.205,8.428,7.506,8.143,7.791L6.197,9.77h2.915v1.054H4.898V9.586z M10.061,10.344c0-0.146,0.049-0.271,0.146-0.375
	c0.096-0.104,0.215-0.156,0.35-0.156s0.25,0.052,0.352,0.15c0.1,0.099,0.146,0.223,0.146,0.368c0,0.145-0.047,0.271-0.145,0.375
	c-0.098,0.104-0.215,0.156-0.354,0.156c-0.064,0-0.131-0.015-0.188-0.041c-0.062-0.026-0.113-0.063-0.16-0.108
	c-0.045-0.046-0.082-0.101-0.106-0.164C10.074,10.488,10.061,10.417,10.061,10.344z M13.098,7.936h0.193
	c0.107,0,0.211-0.006,0.312-0.021c0.101-0.014,0.191-0.043,0.271-0.09c0.082-0.043,0.146-0.11,0.197-0.196
	c0.049-0.087,0.072-0.201,0.072-0.349c0-0.186-0.059-0.338-0.174-0.457s-0.266-0.177-0.453-0.177c-0.146,0-0.283,0.047-0.398,0.141
	C13,6.881,12.914,7.012,12.861,7.18L12.07,6.948c0.051-0.178,0.121-0.332,0.211-0.465c0.092-0.131,0.199-0.238,0.324-0.322
	c0.125-0.086,0.262-0.146,0.41-0.188c0.148-0.041,0.305-0.062,0.467-0.062c0.189,0,0.371,0.027,0.541,0.082
	c0.172,0.056,0.318,0.136,0.449,0.242c0.129,0.107,0.229,0.24,0.307,0.402s0.115,0.35,0.115,0.562c0,0.26-0.066,0.49-0.199,0.693
	c-0.133,0.201-0.316,0.336-0.553,0.396v0.017c0.279,0.045,0.496,0.178,0.641,0.396C14.928,8.917,15,9.178,15,9.479
	c0,0.232-0.039,0.438-0.121,0.613c-0.08,0.178-0.189,0.325-0.326,0.446s-0.295,0.211-0.475,0.272
	c-0.182,0.062-0.369,0.095-0.564,0.095c-0.182,0-0.354-0.021-0.518-0.063c-0.16-0.043-0.307-0.111-0.438-0.203
	c-0.133-0.09-0.242-0.207-0.342-0.351C12.123,10.145,12.051,9.973,12,9.772l0.797-0.231c0.046,0.201,0.126,0.354,0.243,0.465
	c0.114,0.107,0.272,0.164,0.474,0.164c0.1,0,0.192-0.021,0.282-0.057c0.091-0.037,0.168-0.088,0.236-0.152
	c0.067-0.066,0.122-0.146,0.161-0.238c0.039-0.094,0.06-0.197,0.06-0.312c0-0.152-0.028-0.279-0.09-0.379
	c-0.062-0.098-0.138-0.172-0.229-0.225c-0.094-0.053-0.197-0.088-0.313-0.105c-0.115-0.018-0.229-0.025-0.343-0.025h-0.18V7.936
	L13.098,7.936z"/>
</svg>
