<?xml version="1.0" encoding="iso-8859-1"?>
<!-- Generator: Adobe Illustrator 16.0.4, SVG Export Plug-In . SVG Version: 6.00 Build 0)  -->
<!DOCTYPE svg PUBLIC "-//W3C//DTD SVG 1.1//EN" "http://www.w3.org/Graphics/SVG/1.1/DTD/svg11.dtd">
<svg version="1.1" id="Capa_1" xmlns="http://www.w3.org/2000/svg" xmlns:xlink="http://www.w3.org/1999/xlink" x="0px" y="0px"
	 width="12.379px" height="15px" viewBox="0 0 12.379 15" style="enable-background:new 0 0 12.379 15;" xml:space="preserve">
<path style="fill:#010002;" d="M11.799,13.836h-1.717c-0.055-0.383-0.127-0.863-0.225-1.482C9.641,10.977,9.322,8.99,8.898,6.391
	V2.879h0.627L6.104,0L2.857,2.879h0.645v3.578h0.021c-0.652,3.666-1.064,6.123-1.234,7.379H0.58c-0.322,0-0.58,0.26-0.58,0.584
	C0,14.74,0.258,15,0.58,15h11.219c0.32,0,0.58-0.26,0.58-0.58C12.379,14.096,12.119,13.836,11.799,13.836z M8.928,12.562
	L6.822,10.18l1.402-1.59L8.928,12.562z M6.234,9.664L4.338,7.551L4.48,6.592l3.402-0.008l0.164,1.008L6.234,9.664z M4.279,2.887
	h3.822v1.207H4.279V2.887z M4.111,8.404l1.637,1.822l-2.479,2.76L4.111,8.404z M3.441,13.836l2.781-3.033l2.74,3.033H3.441z"/>
<g>
</g>
<g>
</g>
<g>
</g>
<g>
</g>
<g>
</g>
<g>
</g>
<g>
</g>
<g>
</g>
<g>
</g>
<g>
</g>
<g>
</g>
<g>
</g>
<g>
</g>
<g>
</g>
<g>
</g>
</svg>
