<?xml version="1.0" encoding="iso-8859-1"?>
<!-- Generator: Adobe Illustrator 16.0.4, SVG Export Plug-In . SVG Version: 6.00 Build 0)  -->
<!DOCTYPE svg PUBLIC "-//W3C//DTD SVG 1.1//EN" "http://www.w3.org/Graphics/SVG/1.1/DTD/svg11.dtd">
<svg version="1.1" id="Capa_1" xmlns="http://www.w3.org/2000/svg" xmlns:xlink="http://www.w3.org/1999/xlink" x="0px" y="0px"
	 width="9.228px" height="15px" viewBox="0 0 9.228 15" style="enable-background:new 0 0 9.228 15;" xml:space="preserve">
<path style="fill:#010002;" d="M9.228,5.475c0,0.961-0.169,1.697-0.503,2.209C8.387,8.197,7.94,8.451,7.383,8.451
	c-0.4,0-0.68-0.13-0.841-0.395C6.384,7.792,6.303,7.355,6.303,6.749V6.291c0-0.576-0.161-0.863-0.479-0.863
	c-0.271,0-0.615,0.136-1.03,0.406C5.354,6.541,5.631,7.228,5.631,7.9c0,0.562-0.183,1.009-0.55,1.343
	C4.714,9.58,4.233,9.747,3.644,9.747c-0.48,0-0.928-0.11-1.342-0.334C1.886,9.188,1.513,8.874,1.188,8.464
	C0.859,8.057,0.592,7.57,0.385,7.012C0.177,6.453,0.05,5.842,0,5.187L0.335,5.09c0.177,1.152,0.537,2.073,1.08,2.761
	c0.542,0.69,1.198,1.032,1.966,1.032c0.382,0,0.714-0.134,0.993-0.405c0.279-0.273,0.419-0.602,0.419-0.985
	c0-0.386-0.083-0.743-0.252-1.082C4.374,6.076,4.14,5.746,3.836,5.428c-0.129,0.224-0.288,0.406-0.48,0.552
	C3.163,6.122,2.956,6.242,2.732,6.341L2.326,5.33c0.989-0.272,1.484-0.743,1.484-1.417c0-0.271-0.084-0.469-0.251-0.588
	c-0.167-0.12-0.396-0.179-0.685-0.179c-0.206,0-0.427,0.043-0.657,0.133C1.985,3.367,1.749,3.474,1.51,3.603L1.08,2.546
	c0.223-0.129,0.43-0.213,0.623-0.251c0.191-0.041,0.399-0.063,0.623-0.063c0.558,0,1.014,0.186,1.365,0.554
	c0.352,0.369,0.526,0.848,0.526,1.439c0,0.129-0.015,0.254-0.047,0.374C4.14,4.719,4.105,4.834,4.074,4.947L4.218,5.09
	c0.606-0.511,1.159-0.768,1.654-0.768h0.095c0.064,0,0.105,0.008,0.121,0.023c0.224-1.039,0.727-1.561,1.51-1.561
	C8.684,2.785,9.228,3.682,9.228,5.475z M8.593,15H0.57v-3.931h8.022V15z M6.927,1.802c-0.56,0.561-1.12,0.841-1.678,0.841
	c-0.849,0-1.59-0.457-2.229-1.37l0.361-0.238c0.335,0.511,0.806,0.768,1.412,0.768c0.526,0,0.959-0.257,1.295-0.768L6.927,1.802z
	 M4.889,1.298l-0.741-0.65L4.889,0l0.648,0.72L4.889,1.298z M8.795,5.595c0-0.56-0.119-1.016-0.358-1.37
	C8.196,3.875,7.893,3.7,7.525,3.7c-0.527,0-0.91,0.244-1.15,0.742c0.24,0.145,0.358,0.401,0.358,0.77v1.175
	c0,0.735,0.218,1.105,0.649,1.105c0.397,0,0.734-0.181,1.004-0.54C8.659,6.591,8.795,6.14,8.795,5.595z"/>
<g>
</g>
<g>
</g>
<g>
</g>
<g>
</g>
<g>
</g>
<g>
</g>
<g>
</g>
<g>
</g>
<g>
</g>
<g>
</g>
<g>
</g>
<g>
</g>
<g>
</g>
<g>
</g>
<g>
</g>
</svg>
