<?xml version="1.0" encoding="iso-8859-1"?>
<!-- Generator: Adobe Illustrator 16.0.4, SVG Export Plug-In . SVG Version: 6.00 Build 0)  -->
<!DOCTYPE svg PUBLIC "-//W3C//DTD SVG 1.1//EN" "http://www.w3.org/Graphics/SVG/1.1/DTD/svg11.dtd">
<svg version="1.1" id="Capa_1" xmlns="http://www.w3.org/2000/svg" xmlns:xlink="http://www.w3.org/1999/xlink" x="0px" y="0px"
	 width="15px" height="9.82px" viewBox="0 0 15 9.82" style="enable-background:new 0 0 15 9.82;" xml:space="preserve">
<path style="fill:#010002;" d="M5.653,1.936c-0.101,0-0.197-0.054-0.248-0.149C5.331,1.649,5.383,1.479,5.521,1.405l2.557-1.37
	C8.213-0.041,8.385,0.012,8.458,0.15C8.532,0.287,8.48,0.458,8.343,0.531l-2.557,1.37C5.744,1.925,5.698,1.936,5.653,1.936z
	 M8.458,4.389C8.532,4.252,8.48,4.081,8.343,4.008l-2.557-1.37C5.65,2.562,5.479,2.615,5.405,2.753
	C5.331,2.89,5.383,3.061,5.521,3.134l2.557,1.37C8.119,4.527,8.165,4.538,8.21,4.538C8.311,4.538,8.407,4.484,8.458,4.389z
	 M9.088,2.293c0-0.155-0.127-0.282-0.282-0.282H6.567c-0.155,0-0.282,0.127-0.282,0.282s0.127,0.282,0.282,0.282h2.238
	C8.961,2.575,9.088,2.448,9.088,2.293z M3.191,4.248c0.905,0,1.639-0.732,1.639-1.639c0-0.907-0.733-1.641-1.639-1.641
	c-0.908,0-1.645,0.733-1.645,1.641C1.547,3.516,2.283,4.248,3.191,4.248z M3.348,4.633H3.191H3.032c-1.53,0-2.152,0.499-2.556,1.322
	C0.351,6.21,0.141,8.281,0,9.82h1.123l0.258-2.666L1.462,9.82H4.92l0.081-2.666L5.259,9.82h1.123
	C6.239,8.281,6.031,6.21,5.904,5.955C5.503,5.132,4.878,4.633,3.348,4.633z M11.811,4.248c0.902,0,1.638-0.732,1.638-1.639
	c0-0.907-0.735-1.641-1.638-1.641c-0.907,0-1.643,0.733-1.643,1.641C10.168,3.516,10.903,4.248,11.811,4.248z M14.523,5.955
	c-0.404-0.823-1.026-1.322-2.557-1.322h-0.158h-0.156c-1.53,0-2.155,0.499-2.558,1.322C8.971,6.21,8.761,8.281,8.618,9.82H9.74
	l0.259-2.666L10.08,9.82h3.458l0.081-2.666l0.258,2.666H15C14.858,8.281,14.648,6.21,14.523,5.955z"/>
<g>
</g>
<g>
</g>
<g>
</g>
<g>
</g>
<g>
</g>
<g>
</g>
<g>
</g>
<g>
</g>
<g>
</g>
<g>
</g>
<g>
</g>
<g>
</g>
<g>
</g>
<g>
</g>
<g>
</g>
</svg>
