<?xml version="1.0" encoding="iso-8859-1"?>
<!-- Generator: Adobe Illustrator 16.0.4, SVG Export Plug-In . SVG Version: 6.00 Build 0)  -->
<!DOCTYPE svg PUBLIC "-//W3C//DTD SVG 1.1//EN" "http://www.w3.org/Graphics/SVG/1.1/DTD/svg11.dtd">
<svg version="1.1" id="Capa_1" xmlns="http://www.w3.org/2000/svg" xmlns:xlink="http://www.w3.org/1999/xlink" x="0px" y="0px"
	 width="20px" height="20px" viewBox="0 0 20 20" style="enable-background:new 0 0 20 20;" xml:space="preserve">
<path style="fill:#010002;" d="M10.458,16.961v-6.08c0-1.082,1.438-1.664,3.212-1.664c0.854,0,1.627,0.201,2.2,0.532v7.078
	C12.97,15.002,10.458,16.675,10.458,16.961z M20,4v12c0,2.2-1.8,4-4,4H4c-2.2,0-4-1.8-4-4V4c0-2.2,1.8-4,4-4h12C18.2,0,20,1.8,20,4z
	 M17.5,6.482l-7.49-3.724L10.007,2.75L10,2.754L9.993,2.75L9.99,2.759L9.078,3.212C8.497,2.62,7.69,2.25,6.801,2.25H5.199
	C3.44,2.25,2,3.69,2,5.449v1.602C2,8.185,2.604,9.18,3.5,9.748c0,0.141,0,0.296,0,0.474v7.26h5.353
	c0.183,0.156,0.619,0.269,1.13,0.269c0.513,0,0.948-0.112,1.133-0.269H16.5v-7.26c0-0.645,0-1.065,0-1.09
	c-3.388-1.492-6.094,0.087-6.436,0.402C9.945,9.421,9.674,9.232,9.278,9.046C9.723,8.496,10,7.808,10,7.051V5.449
	c0-0.364-0.074-0.709-0.188-1.035L10,4.32l6.876,3.418L17.5,6.482z M9.6,5.449v1.602c0,1.543-1.256,2.799-2.799,2.799H5.199
	C3.656,9.85,2.4,8.594,2.4,7.051V5.449c0-1.543,1.256-2.799,2.799-2.799h1.602C8.344,2.65,9.6,3.906,9.6,5.449z M8.801,5.751H3.199
	v1h5.602V5.751z M6.801,10.25H5.199c-0.361,0-0.704-0.074-1.029-0.187v6.764c2.902-1.825,5.414-0.152,5.414,0.134v-6.08
	c0-0.538-0.356-0.952-0.933-1.233C8.127,10.023,7.49,10.25,6.801,10.25z"/>
<g>
</g>
<g>
</g>
<g>
</g>
<g>
</g>
<g>
</g>
<g>
</g>
<g>
</g>
<g>
</g>
<g>
</g>
<g>
</g>
<g>
</g>
<g>
</g>
<g>
</g>
<g>
</g>
<g>
</g>
</svg>
