<?xml version="1.0" encoding="iso-8859-1"?>
<!-- Generator: Adobe Illustrator 16.0.4, SVG Export Plug-In . SVG Version: 6.00 Build 0)  -->
<!DOCTYPE svg PUBLIC "-//W3C//DTD SVG 1.1//EN" "http://www.w3.org/Graphics/SVG/1.1/DTD/svg11.dtd">
<svg version="1.1" id="Capa_1" xmlns="http://www.w3.org/2000/svg" xmlns:xlink="http://www.w3.org/1999/xlink" x="0px" y="0px"
	 width="20px" height="20px" viewBox="0 0 20 20" style="enable-background:new 0 0 20 20;" xml:space="preserve">
<path style="fill:#010002;" d="M8.091,14.019l1.64-0.911v3.648l-3.222-1.604v-1.982L8.091,14.019z M10.271,13.102v3.653l3.222-1.604
	v-1.977l-1.572,0.844L10.271,13.102z M9.51,12.633l-2.912-1.575L5.17,11.837l2.915,1.565L9.51,12.633z M9.433,8.886L8.004,8.106
	l-2.883,1.57l1.395,0.775L9.433,8.886z M20,4v12c0,2.2-1.8,4-4,4H4c-2.2,0-4-1.8-4-4V4c0-2.2,1.8-4,4-4h12C18.2,0,20,1.8,20,4z
	 M14.04,10.787L15.997,9.7l-0.432-0.233l-3.571-1.946l-1.969,1.073l-2.021-1.1L4.003,9.67l0.426,0.24l1.561,0.867l-0.02,0.009H5.969
	v0.002L4.037,11.84l1.932,1.038v2.609l4.03,2.007l4.031-2.007v-2.602l1.947-1.046L14.04,10.787z M17.5,6.238l-7.49-3.724
	l-0.003-0.009L10,2.51L9.993,2.506L9.99,2.515L2.5,6.238l0.624,1.256L10,4.076l6.876,3.418L17.5,6.238z M10.565,8.915l2.916,1.565
	l1.396-0.776l-2.883-1.569L10.565,8.915z M10.525,12.633l1.4,0.77l2.916-1.566l-1.43-0.778L10.525,12.633z"/>
<g>
</g>
<g>
</g>
<g>
</g>
<g>
</g>
<g>
</g>
<g>
</g>
<g>
</g>
<g>
</g>
<g>
</g>
<g>
</g>
<g>
</g>
<g>
</g>
<g>
</g>
<g>
</g>
<g>
</g>
</svg>
