<?xml version="1.0" encoding="iso-8859-1"?>
<!-- Generator: Adobe Illustrator 16.0.4, SVG Export Plug-In . SVG Version: 6.00 Build 0)  -->
<!DOCTYPE svg PUBLIC "-//W3C//DTD SVG 1.1//EN" "http://www.w3.org/Graphics/SVG/1.1/DTD/svg11.dtd">
<svg version="1.1" id="Capa_1" xmlns="http://www.w3.org/2000/svg" xmlns:xlink="http://www.w3.org/1999/xlink" x="0px" y="0px"
	 width="15.5px" height="15.5px" viewBox="0 0 15.5 15.5" style="enable-background:new 0 0 15.5 15.5;" xml:space="preserve">
<path style="fill:#010002;" d="M14.876,5.488L15.5,4.232L8.01,0.509L8.007,0.5L8,0.504L7.993,0.5L7.99,0.509L7.078,0.962
	C6.497,0.37,5.69,0,4.801,0H3.199C1.44,0,0,1.44,0,3.199v1.602C0,5.935,0.604,6.93,1.5,7.498c0,0.141,0,0.296,0,0.474v7.26h5.353
	c0.183,0.156,0.619,0.269,1.13,0.269c0.513,0,0.948-0.112,1.133-0.269H14.5v-7.26c0-0.645,0-1.065,0-1.09
	C11.112,5.39,8.406,6.969,8.064,7.284C7.945,7.171,7.674,6.982,7.278,6.796C7.723,6.246,8,5.558,8,4.801V3.199
	C8,2.835,7.926,2.49,7.812,2.164L8,2.07L14.876,5.488z M8.458,8.631c0-1.082,1.438-1.664,3.212-1.664c0.854,0,1.627,0.201,2.2,0.532
	v7.078c-2.9-1.825-5.412-0.152-5.412,0.134V8.631z M7.584,8.631v6.08c0-0.286-2.512-1.959-5.414-0.134V7.813
	C2.495,7.926,2.838,8,3.199,8h1.602C5.49,8,6.127,7.773,6.651,7.397C7.228,7.679,7.584,8.093,7.584,8.631z M7.6,4.801
	C7.6,6.344,6.344,7.6,4.801,7.6H3.199C1.656,7.6,0.4,6.344,0.4,4.801V3.199C0.4,1.656,1.656,0.4,3.199,0.4h1.602
	C6.344,0.4,7.6,1.656,7.6,3.199V4.801z M6.047,2.129l0.707,0.707L3.366,6.225l-2.12-2.119l0.707-0.707l1.413,1.412L6.047,2.129z"/>
<g>
</g>
<g>
</g>
<g>
</g>
<g>
</g>
<g>
</g>
<g>
</g>
<g>
</g>
<g>
</g>
<g>
</g>
<g>
</g>
<g>
</g>
<g>
</g>
<g>
</g>
<g>
</g>
<g>
</g>
</svg>
