<?xml version="1.0" encoding="iso-8859-1"?>
<!-- Generator: Adobe Illustrator 16.0.4, SVG Export Plug-In . SVG Version: 6.00 Build 0)  -->
<!DOCTYPE svg PUBLIC "-//W3C//DTD SVG 1.1//EN" "http://www.w3.org/Graphics/SVG/1.1/DTD/svg11.dtd">
<svg version="1.1" id="Capa_1" xmlns="http://www.w3.org/2000/svg" xmlns:xlink="http://www.w3.org/1999/xlink" x="0px" y="0px"
	 width="13.912px" height="14.029px" viewBox="0 0 13.912 14.029" style="enable-background:new 0 0 13.912 14.029;"
	 xml:space="preserve">
<path style="fill:#010002;" d="M11.607,6.252l-0.1-0.441l2.303-0.527l0.102,0.443L11.607,6.252z M12.633,2.844L12.35,2.488
	l-1.846,1.473l0.283,0.355L12.633,2.844z M10.234,0.801l-0.41-0.197L8.801,2.729l0.408,0.197L10.234,0.801z M7.182,0H6.729v2.361
	h0.453V0z M5.109,2.729L4.086,0.604l-0.41,0.197l1.025,2.125L5.109,2.729z M3.406,3.961L1.561,2.488L1.277,2.844l1.846,1.473
	L3.406,3.961z M2.402,5.811L0.1,5.283L0,5.727l2.303,0.525L2.402,5.811z M5.516,12.881l3.047-0.551
	c0.004-0.037,0.006-0.076,0.006-0.115V11.92l-3.195,0.576C5.4,12.633,5.449,12.762,5.516,12.881z M5.344,12.203l3.225-0.582v-0.408
	l-3.225,0.58V12.203z M8.502,12.641l-2.797,0.504c0.092,0.102,0.197,0.188,0.316,0.258v0.627h1.871v-0.627
	C8.178,13.23,8.396,12.961,8.502,12.641z M10.596,7.082c0-2.01-1.629-3.639-3.641-3.639c-2.008,0-3.639,1.629-3.639,3.639
	c0,1.432,0.826,2.668,2.027,3.264v1.15l3.225-0.582v-0.568C9.77,9.75,10.596,8.514,10.596,7.082z"/>
<g>
</g>
<g>
</g>
<g>
</g>
<g>
</g>
<g>
</g>
<g>
</g>
<g>
</g>
<g>
</g>
<g>
</g>
<g>
</g>
<g>
</g>
<g>
</g>
<g>
</g>
<g>
</g>
<g>
</g>
</svg>
