<?xml version="1.0" encoding="iso-8859-1"?>
<!-- Generator: Adobe Illustrator 16.0.4, SVG Export Plug-In . SVG Version: 6.00 Build 0)  -->
<!DOCTYPE svg PUBLIC "-//W3C//DTD SVG 1.1//EN" "http://www.w3.org/Graphics/SVG/1.1/DTD/svg11.dtd">
<svg version="1.1" id="Capa_1" xmlns="http://www.w3.org/2000/svg" xmlns:xlink="http://www.w3.org/1999/xlink" x="0px" y="0px"
	 width="15px" height="15px" viewBox="0 0 15 15" style="enable-background:new 0 0 15 15;" xml:space="preserve">
<path style="fill:#010002;" d="M14.376,4.988L7.5,1.57L0.624,4.988L0,3.732l7.49-3.724L7.493,0L7.5,0.004L7.507,0L7.51,0.009
	L15,3.732L14.376,4.988z M14,6.382c0,0.024,0,0.445,0,1.09v7.26H8.615C8.431,14.888,7.995,15,7.482,15
	c-0.511,0-0.947-0.112-1.13-0.269H1v-7.26c0-0.645,0-1.065,0-1.09C4.532,4.86,7.114,6.354,7.564,6.784
	C7.906,6.469,10.612,4.89,14,6.382z M7.084,8.131c0-1.082-1.438-1.664-3.213-1.664c-0.854,0-1.627,0.201-2.201,0.532v7.078
	c2.902-1.825,5.414-0.152,5.414,0.134V8.131z M13.37,6.999c-0.573-0.331-1.347-0.532-2.2-0.532c-1.773,0-3.212,0.582-3.212,1.664
	v6.08c0-0.286,2.512-1.959,5.412-0.134V6.999z"/>
<g>
</g>
<g>
</g>
<g>
</g>
<g>
</g>
<g>
</g>
<g>
</g>
<g>
</g>
<g>
</g>
<g>
</g>
<g>
</g>
<g>
</g>
<g>
</g>
<g>
</g>
<g>
</g>
<g>
</g>
</svg>
