<?xml version="1.0" encoding="iso-8859-1"?>
<!-- Generator: Adobe Illustrator 16.0.4, SVG Export Plug-In . SVG Version: 6.00 Build 0)  -->
<!DOCTYPE svg PUBLIC "-//W3C//DTD SVG 1.1//EN" "http://www.w3.org/Graphics/SVG/1.1/DTD/svg11.dtd">
<svg version="1.1" id="Capa_1" xmlns="http://www.w3.org/2000/svg" xmlns:xlink="http://www.w3.org/1999/xlink" x="0px" y="0px"
	 width="20px" height="20px" viewBox="0 0 20 20" style="enable-background:new 0 0 20 20;" xml:space="preserve">
<path style="fill:#010002;" d="M16,0H4C1.8,0,0,1.8,0,4v12c0,2.2,1.8,4,4,4h12c2.2,0,4-1.8,4-4V4C20,1.8,18.2,0,16,0z M13.443,15.77
	c0-0.421,1.261-3.501,1.54-3.921c0.28,0.56,1.541,3.5,1.541,3.921C16.524,18.077,13.443,18.077,13.443,15.77z M16.627,11.282H13.43
	c-0.284,0-0.516-0.231-0.516-0.516c0-0.176,0.093-0.325,0.228-0.417c-0.049-0.567-0.219-0.863-0.679-0.863c-1.541,0-1.541,0-1.541,0
	c-0.42,0.842-1.12,1.259-1.96,1.259c-0.841,0-1.4-0.417-1.82-1.259c-3.568,0-4.192,0-4.283,0V6.404c2.602,0,3.527,0,3.851,0V5.416
	c0-0.284,0.231-0.516,0.516-0.516H8.54V4.266c-0.109-0.061-0.2-0.142-0.276-0.242c-1.565,0-2.436,0-2.913,0
	C5.178,4.25,4.916,4.408,4.609,4.408c-0.527,0-0.954-0.426-0.954-0.953c0-0.527,0.427-0.955,0.954-0.955
	c0.314,0,0.581,0.167,0.754,0.404c1.119,0,2.079,0,2.889,0C8.425,2.667,8.693,2.5,9.008,2.5c0.316,0,0.582,0.167,0.758,0.404
	c1.419,0,2.199,0,2.616,0c0.173-0.237,0.44-0.404,0.756-0.404c0.525,0,0.953,0.427,0.953,0.955c0,0.527-0.428,0.953-0.953,0.953
	c-0.309,0-0.569-0.157-0.746-0.384c-1.514,0-2.267,0-2.639,0C9.678,4.122,9.589,4.201,9.481,4.265v0.635h1.239
	c0.285,0,0.517,0.232,0.517,0.516l0.018,0.989c3.161,0,3.169,0,3.169,0c1.356,0,2.38,0.974,2.38,2.101c0,0.931,0,1.46,0,1.779
	c0.198,0.072,0.34,0.258,0.34,0.481C17.144,11.051,16.912,11.282,16.627,11.282z"/>
<g>
</g>
<g>
</g>
<g>
</g>
<g>
</g>
<g>
</g>
<g>
</g>
<g>
</g>
<g>
</g>
<g>
</g>
<g>
</g>
<g>
</g>
<g>
</g>
<g>
</g>
<g>
</g>
<g>
</g>
</svg>
