<?xml version="1.0" encoding="iso-8859-1"?>
<!-- Generator: Adobe Illustrator 16.0.4, SVG Export Plug-In . SVG Version: 6.00 Build 0)  -->
<!DOCTYPE svg PUBLIC "-//W3C//DTD SVG 1.1//EN" "http://www.w3.org/Graphics/SVG/1.1/DTD/svg11.dtd">
<svg version="1.1" id="Capa_1" xmlns="http://www.w3.org/2000/svg" xmlns:xlink="http://www.w3.org/1999/xlink" x="0px" y="0px"
	 width="20px" height="20px" viewBox="0 0 20 20" style="enable-background:new 0 0 20 20;" xml:space="preserve">
<path style="fill:#010002;" d="M16,0H4C1.8,0,0,1.8,0,4v12c0,2.2,1.8,4,4,4h12c2.2,0,4-1.8,4-4V4C20,1.8,18.2,0,16,0z M8.429,16.769
	H8.401v0.017H5.575v-2.076l-2.884-3.81c-0.115-0.142-0.19-0.317-0.19-0.508V4.537c0-0.458,0.372-0.831,0.832-0.831
	c0.457,0,0.83,0.373,0.83,0.831v3.381C3.962,7.961,3.771,8.046,3.617,8.196c-0.44,0.431-0.451,1.139-0.021,1.581l1.573,1.617
	l0.214-0.208L3.808,9.571C3.493,9.246,3.5,8.725,3.822,8.408c0.102-0.095,0.221-0.163,0.349-0.199
	c0.137-0.039,0.278-0.041,0.414-0.013c0.153,0.038,0.29,0.117,0.397,0.229l3.446,3.536V16.769z M7.696,8.782
	C7.053,8.144,6.738,7.379,6.738,6.474c0-0.899,0.314-1.671,0.958-2.308C8.327,3.527,9.1,3.215,10,3.215
	c0.902,0,1.666,0.312,2.307,0.951c0.639,0.637,0.957,1.409,0.957,2.308c0,0.905-0.318,1.669-0.957,2.308
	c-0.641,0.635-1.404,0.96-2.307,0.96C9.1,9.742,8.327,9.417,7.696,8.782z M17.501,10.391c0,0.191-0.075,0.366-0.19,0.508
	l-2.883,3.81v2.076H11.6v-0.017h-0.027v-4.807l3.448-3.536c0.107-0.113,0.244-0.191,0.396-0.229
	c0.136-0.028,0.278-0.026,0.413,0.013c0.127,0.036,0.249,0.104,0.349,0.199c0.323,0.317,0.33,0.838,0.016,1.164l-1.576,1.614
	l0.215,0.208l1.574-1.617c0.43-0.441,0.419-1.149-0.022-1.581c-0.153-0.15-0.344-0.234-0.546-0.278V4.537
	c0-0.458,0.373-0.831,0.83-0.831c0.46,0,0.832,0.373,0.832,0.831V10.391z"/>
<g>
</g>
<g>
</g>
<g>
</g>
<g>
</g>
<g>
</g>
<g>
</g>
<g>
</g>
<g>
</g>
<g>
</g>
<g>
</g>
<g>
</g>
<g>
</g>
<g>
</g>
<g>
</g>
<g>
</g>
</svg>
