<?xml version="1.0" encoding="iso-8859-1"?>
<!-- Generator: Adobe Illustrator 16.0.4, SVG Export Plug-In . SVG Version: 6.00 Build 0)  -->
<!DOCTYPE svg PUBLIC "-//W3C//DTD SVG 1.1//EN" "http://www.w3.org/Graphics/SVG/1.1/DTD/svg11.dtd">
<svg version="1.1" id="Capa_1" xmlns="http://www.w3.org/2000/svg" xmlns:xlink="http://www.w3.org/1999/xlink" x="0px" y="0px"
	 width="20px" height="20px" viewBox="0 0 20 20" style="enable-background:new 0 0 20 20;" xml:space="preserve">
<path style="fill:#010002;" d="M16,0H4C1.8,0,0,1.8,0,4v12c0,2.2,1.8,4,4,4h12c2.2,0,4-1.8,4-4V4C20,1.8,18.2,0,16,0z M4.427,5.611
	L3.848,6.383v6.051H2.948c-0.247,0-0.448-0.203-0.448-0.449V4.188l0.579-0.771c0.099-0.131,0.313-0.238,0.478-0.238h1.188
	c0.164,0,0.434,0,0.597,0H6.53c0.164,0,0.379,0.107,0.478,0.238l0.579,0.771h6.771c0.246,0,0.447,0.201,0.447,0.447v1.748h-5.87
	L8.355,5.611C8.257,5.48,8.042,5.373,7.878,5.373H6.689c-0.164,0-0.433,0-0.597,0H4.904C4.74,5.373,4.525,5.48,4.427,5.611z
	 M17.5,16.375c0,0.246-0.201,0.447-0.448,0.447H5.642c-0.245,0-0.446-0.201-0.446-0.447V8.576l0.579-0.77
	c0.099-0.131,0.313-0.238,0.478-0.238h1.188c0.165,0,0.434,0,0.598,0h1.188c0.163,0,0.378,0.107,0.477,0.238l0.58,0.77h6.77
	c0.247,0,0.448,0.201,0.448,0.449V16.375z"/>
<g>
</g>
<g>
</g>
<g>
</g>
<g>
</g>
<g>
</g>
<g>
</g>
<g>
</g>
<g>
</g>
<g>
</g>
<g>
</g>
<g>
</g>
<g>
</g>
<g>
</g>
<g>
</g>
<g>
</g>
</svg>
