<?xml version="1.0" encoding="iso-8859-1"?>
<!-- Generator: Adobe Illustrator 16.0.4, SVG Export Plug-In . SVG Version: 6.00 Build 0)  -->
<!DOCTYPE svg PUBLIC "-//W3C//DTD SVG 1.1//EN" "http://www.w3.org/Graphics/SVG/1.1/DTD/svg11.dtd">
<svg version="1.1" id="Capa_1" xmlns="http://www.w3.org/2000/svg" xmlns:xlink="http://www.w3.org/1999/xlink" x="0px" y="0px"
	 width="11.227px" height="15px" viewBox="0 0 11.227 15" style="enable-background:new 0 0 11.227 15;" xml:space="preserve">
<path style="fill:#010002;" d="M9.807,15h1.42l-2.523-3.743c0.484-0.076,0.885-0.3,1.203-0.667c0.32-0.367,0.48-0.803,0.48-1.306
	V1.972c0-0.541-0.193-1.005-0.58-1.393C9.418,0.192,8.943,0,8.385,0H2.842C2.279,0,1.807,0.192,1.42,0.579
	C1.033,0.967,0.84,1.431,0.84,1.972v7.312c0,0.503,0.164,0.943,0.494,1.32c0.328,0.377,0.725,0.594,1.189,0.652L0,15h1.42
	l0.242-0.36h7.902L9.807,15z M8.963,10.038C8.791,10.212,8.566,10.3,8.297,10.3c-0.252,0-0.465-0.088-0.639-0.262
	C7.484,9.863,7.396,9.643,7.396,9.371c0-0.251,0.088-0.468,0.262-0.652c0.174-0.184,0.387-0.276,0.639-0.276
	c0.27,0,0.494,0.093,0.666,0.276C9.137,8.903,9.225,9.12,9.225,9.371C9.225,9.643,9.137,9.863,8.963,10.038z M2.059,2.156
	c0-0.271,0.088-0.493,0.262-0.668c0.172-0.174,0.395-0.261,0.666-0.261h5.252c0.271,0,0.498,0.087,0.682,0.261
	c0.186,0.175,0.277,0.397,0.277,0.668v2.34c0,0.271-0.092,0.494-0.277,0.668c-0.184,0.174-0.41,0.26-0.682,0.26H2.986
	c-0.271,0-0.494-0.086-0.666-0.26C2.146,4.99,2.059,4.768,2.059,4.496V2.156z M2.262,10.038C2.086,9.863,2,9.643,2,9.371
	C2,9.12,2.086,8.903,2.262,8.719C2.438,8.535,2.658,8.442,2.93,8.442c0.25,0,0.463,0.093,0.639,0.276
	C3.742,8.903,3.83,9.12,3.83,9.371c0,0.271-0.088,0.492-0.262,0.667C3.393,10.212,3.18,10.3,2.93,10.3
	C2.658,10.3,2.438,10.212,2.262,10.038z M2.475,13.431l0.658-0.983h4.961l0.66,0.983H2.475z"/>
<g>
</g>
<g>
</g>
<g>
</g>
<g>
</g>
<g>
</g>
<g>
</g>
<g>
</g>
<g>
</g>
<g>
</g>
<g>
</g>
<g>
</g>
<g>
</g>
<g>
</g>
<g>
</g>
<g>
</g>
</svg>
