<?xml version="1.0" encoding="iso-8859-1"?>
<!-- Generator: Adobe Illustrator 16.0.4, SVG Export Plug-In . SVG Version: 6.00 Build 0)  -->
<!DOCTYPE svg PUBLIC "-//W3C//DTD SVG 1.1//EN" "http://www.w3.org/Graphics/SVG/1.1/DTD/svg11.dtd">
<svg version="1.1" id="Capa_1" xmlns="http://www.w3.org/2000/svg" xmlns:xlink="http://www.w3.org/1999/xlink" x="0px" y="0px"
	 width="20px" height="20px" viewBox="0 0 20 20" style="enable-background:new 0 0 20 20;" xml:space="preserve">
<path style="fill:#010002;" d="M16,0H4C1.8,0,0,1.8,0,4v12c0,2.2,1.8,4,4,4h12c2.2,0,4-1.8,4-4V4C20,1.8,18.2,0,16,0z
	 M17.304,13.612l-6.516-2.12v3.496l1.409,1.414V17.5l-2.196-0.667L7.762,17.5v-1.098l1.453-1.414v-3.496l-6.519,2.12v-1.608
	L5.894,10H5.199C3.44,10,2,8.56,2,6.801V5.199C2,3.44,3.44,2,5.199,2h1.602C7.78,2,8.65,2.456,9.238,3.156
	c0.025-0.154,0.081-0.299,0.192-0.42C9.576,2.578,9.752,2.5,9.962,2.5h0.039c0.208,0,0.395,0.078,0.551,0.236
	c0.155,0.155,0.236,0.34,0.236,0.55v4.633l6.516,4.085V13.612z M6.801,2.4H5.199C3.656,2.4,2.4,3.656,2.4,5.199v1.602
	C2.4,8.344,3.656,9.6,5.199,9.6h1.602C8.344,9.6,9.6,8.344,9.6,6.801V5.199C9.6,3.656,8.344,2.4,6.801,2.4z M8.801,6.501H3.199v-1
	h5.602V6.501z"/>
<g>
</g>
<g>
</g>
<g>
</g>
<g>
</g>
<g>
</g>
<g>
</g>
<g>
</g>
<g>
</g>
<g>
</g>
<g>
</g>
<g>
</g>
<g>
</g>
<g>
</g>
<g>
</g>
<g>
</g>
</svg>
