<?xml version="1.0" encoding="iso-8859-1"?>
<!-- Generator: Adobe Illustrator 16.0.4, SVG Export Plug-In . SVG Version: 6.00 Build 0)  -->
<!DOCTYPE svg PUBLIC "-//W3C//DTD SVG 1.1//EN" "http://www.w3.org/Graphics/SVG/1.1/DTD/svg11.dtd">
<svg version="1.1" id="Capa_1" xmlns="http://www.w3.org/2000/svg" xmlns:xlink="http://www.w3.org/1999/xlink" x="0px" y="0px"
	 width="20px" height="20px" viewBox="0 0 20 20" style="enable-background:new 0 0 20 20;" xml:space="preserve">
<path style="fill:#010002;" d="M9.623,8.301h0.754v1.51H9.623V8.301z M9.623,12.83h0.754v-1.51H9.623V12.83z M9.623,15.851h0.754
	v-1.51H9.623V15.851z M20,4v12c0,2.2-1.8,4-4,4H4c-2.2,0-4-1.8-4-4V4c0-2.2,1.8-4,4-4h12C18.2,0,20,1.8,20,4z M15.832,16.283
	l-3.773-8.738H7.941l-3.773,8.738H15.832z M17.5,3.717h-15v6.379h2.962c-0.01-0.125-0.019-0.25-0.019-0.377
	c0-2.491,2.021-4.512,4.511-4.512c2.492,0,4.512,2.021,4.512,4.512c0,0.127-0.009,0.252-0.02,0.377H17.5V3.717z"/>
<g>
</g>
<g>
</g>
<g>
</g>
<g>
</g>
<g>
</g>
<g>
</g>
<g>
</g>
<g>
</g>
<g>
</g>
<g>
</g>
<g>
</g>
<g>
</g>
<g>
</g>
<g>
</g>
<g>
</g>
</svg>
