<?xml version="1.0" encoding="iso-8859-1"?>
<!-- Generator: Adobe Illustrator 16.0.4, SVG Export Plug-In . SVG Version: 6.00 Build 0)  -->
<!DOCTYPE svg PUBLIC "-//W3C//DTD SVG 1.1//EN" "http://www.w3.org/Graphics/SVG/1.1/DTD/svg11.dtd">
<svg version="1.1" id="Capa_1" xmlns="http://www.w3.org/2000/svg" xmlns:xlink="http://www.w3.org/1999/xlink" x="0px" y="0px"
	 width="20px" height="20px" viewBox="0 0 20 20" style="enable-background:new 0 0 20 20;" xml:space="preserve">
<path style="fill:#010002;" d="M7.708,9.205l2.073,2.08l-2.57,1.041l-0.552-0.555L7.708,9.205z M6.233,13.229
	c-0.446,0.179-0.665-0.04-0.48-0.487l1.596-3.898l1.493-1.488H3.956v9.681h7.324v-6.524l-1.14,1.135L6.233,13.229z M11.743,14.679
	h1.894V8.163l-1.894,1.887V14.679z M11.206,4.999H6.312v1.893h2.995L11.206,4.999z M20,4v12c0,2.2-1.8,4-4,4H4c-2.2,0-4-1.8-4-4V4
	c0-2.2,1.8-4,4-4h12C18.2,0,20,1.8,20,4z M16.361,4.516l-1.859-1.867c-0.256-0.26-0.769-0.169-1.137,0.199L11.67,4.536H5.849v2.355
	H3.492V17.5h8.251v-2.357h2.357V7.701l2.058-2.051C16.526,5.283,16.619,4.773,16.361,4.516z"/>
<g>
</g>
<g>
</g>
<g>
</g>
<g>
</g>
<g>
</g>
<g>
</g>
<g>
</g>
<g>
</g>
<g>
</g>
<g>
</g>
<g>
</g>
<g>
</g>
<g>
</g>
<g>
</g>
<g>
</g>
</svg>
