<?xml version="1.0" encoding="iso-8859-1"?>
<!-- Generator: Adobe Illustrator 16.0.4, SVG Export Plug-In . SVG Version: 6.00 Build 0)  -->
<!DOCTYPE svg PUBLIC "-//W3C//DTD SVG 1.1//EN" "http://www.w3.org/Graphics/SVG/1.1/DTD/svg11.dtd">
<svg version="1.1" id="Capa_1" xmlns="http://www.w3.org/2000/svg" xmlns:xlink="http://www.w3.org/1999/xlink" x="0px" y="0px"
	 width="14.577px" height="15px" viewBox="0 0 14.577 15" style="enable-background:new 0 0 14.577 15;" xml:space="preserve">
<path style="fill:#010002;" d="M14.43,2.418L12.56,0.54c-0.258-0.261-0.772-0.17-1.144,0.2L9.702,2.448L7.344,0H0v15h11.555V6.221
	l2.672-2.661C14.596,3.19,14.689,2.678,14.43,2.418z M7.541,1.957l1.299,1.35L8.129,4.016H7.541V1.957z M7.811,9.228l-2.586,1.047
	L4.67,9.717l1.056-2.582L7.811,9.228z M10.338,13.784H1.216V1.216h5.413v3.712h0.585L6.521,5.617H2.514v0.608h3.398L5.363,6.771
	L4.803,8.141H2.514v0.608h2.041l-0.784,1.915H2.514v0.608h6.529v-0.608H5.522l2.649-1.073l0.845-0.842h0.026V8.723l1.295-1.29
	V13.784z"/>
<g>
</g>
<g>
</g>
<g>
</g>
<g>
</g>
<g>
</g>
<g>
</g>
<g>
</g>
<g>
</g>
<g>
</g>
<g>
</g>
<g>
</g>
<g>
</g>
<g>
</g>
<g>
</g>
<g>
</g>
</svg>
