<?xml version="1.0" encoding="iso-8859-1"?>
<!-- Generator: Adobe Illustrator 16.0.4, SVG Export Plug-In . SVG Version: 6.00 Build 0)  -->
<!DOCTYPE svg PUBLIC "-//W3C//DTD SVG 1.1//EN" "http://www.w3.org/Graphics/SVG/1.1/DTD/svg11.dtd">
<svg version="1.1" id="Capa_1" xmlns="http://www.w3.org/2000/svg" xmlns:xlink="http://www.w3.org/1999/xlink" x="0px" y="0px"
	 width="20px" height="20px" viewBox="0 0 20 20" style="enable-background:new 0 0 20 20;" xml:space="preserve">
<path style="fill:#010002;" d="M16,0H4C1.8,0,0,1.8,0,4v12c0,2.2,1.8,4,4,4h12c2.2,0,4-1.8,4-4V4C20,1.8,18.2,0,16,0z M12.57,17.5
	c-1.55,0-2.467-0.705-2.808-1.306c-0.342-0.602-0.005-0.002-0.005-0.002c-0.467-0.562-0.892-0.956-1.363-1.261
	c-0.262,0.504-1.061,0.724-1.895,0.488c-0.91-0.258-1.51-0.96-1.338-1.567c0.008-0.026,0.023-0.049,0.034-0.074
	c-0.536-0.135-1.143-0.287-1.842-0.471c-0.1-0.025-0.159-0.127-0.133-0.227c0.026-0.099,0.128-0.159,0.227-0.131
	c1.479,0.386,1.049,0.283,1.921,0.562c0.35-0.358,1.039-0.495,1.754-0.292c0.873,0.249,1.453,0.903,1.348,1.492
	c0.67,0.36,1.214,0.758,1.538,1.192c-0.005-0.004,0.002,0.003,0.002,0.003c0-0.002,0.001-0.002,0.001-0.002
	c0.116,0.074,1.115,0.707,2.573,0.707c1.552,0,2.784-0.424,2.795-0.418C15.38,16.915,14.122,17.5,12.57,17.5z M14.208,15.961
	c-0.056-0.186-0.484-0.225-0.357,0.028c-0.022-0.002-0.045-0.002-0.068-0.002c0.056-0.082,0.013-0.185-0.071-0.256
	c-0.113-0.097-0.262-0.014-0.433,0.057c-0.012-0.031-0.014-0.052-0.014-0.082c0.167,0.056,0.262-0.167,0.024-0.198
	c-0.128-0.017-0.501-0.037-0.414,0.193c-0.044,0.017-0.104,0.018-0.163,0.001c0.091-0.247-0.483-0.268-0.604-0.119
	c-0.041,0.051-0.021,0.104-0.054,0.128c-0.055,0.042-0.157,0.069-0.222,0.1c-0.087,0.042-0.049,0.121-0.222,0.088
	c0.11-0.034,0.315-0.125,0.315-0.247c0-0.1-0.147-0.129-0.235-0.092c-0.08,0.032-0.598,0.252-0.28,0.372
	c-0.049,0.09-0.188,0.236-0.024,0.288c-0.051,0.024-0.11,0.063-0.164,0.107c-0.016-0.004-0.035-0.009-0.051-0.012
	c0.058-0.045,0.078-0.118,0.027-0.195c0.376,0.07-0.228-0.585-0.271-0.109c-0.068-0.01-0.264,0.023-0.408,0.072
	c-0.305-0.132-0.5-0.254-0.547-0.283c0.494-0.296,1.388-0.582,2.576-0.582c1.551,0,2.432,0.527,2.792,0.869
	c-0.005-0.002-0.31,0.099-0.804,0.203c-0.01-0.012-0.021-0.026-0.023-0.031c-0.013,0.014-0.046-0.033-0.043-0.021
	C14.465,16.256,14.496,15.756,14.208,15.961z M14.268,16.22c-0.033,0.009-0.067,0.018-0.102,0.024
	c-0.04-0.076-0.051-0.111-0.031-0.183c-0.002,0.049,0.061,0.1,0.051,0.117C14.213,16.192,14.24,16.206,14.268,16.22z M13.38,16.105
	c0.1-0.018,0.345-0.132,0.355-0.116c-0.002-0.018-0.255,0.173-0.075,0.254c0.113,0.049,0.122,0.103,0.119,0.174
	c-0.004,0.001-0.007,0.001-0.01,0.001c-0.002-0.102-0.055-0.182-0.186-0.149C13.626,16.141,13.496,16.087,13.38,16.105z
	 M12.757,16.161c0.018-0.032,0.035-0.062,0.053-0.093c0.031,0.074,0.099,0.119,0.179,0.13l0.001,0.001
	c-0.021,0.044-0.037,0.109-0.071,0.143c0.024,0.05,0.049,0.099,0.073,0.149c-0.002,0-0.004,0-0.006,0
	c-0.033-0.044-0.049-0.067-0.116-0.11C12.977,16.279,12.889,16.163,12.757,16.161z M12.299,16.035
	c0.018-0.077,0.042-0.167,0.04-0.234c0.033-0.003,0.064-0.008,0.098-0.01c-0.113,0.14-0.08,0.344,0.087,0.412
	c-0.096,0.042-0.255,0.214-0.233,0.289c-0.02-0.001-0.037-0.002-0.056-0.002c-0.047-0.051-0.097-0.099-0.134-0.123
	c0.121,0.003,0.255-0.073,0.287-0.195C12.412,16.08,12.286,16.084,12.299,16.035z M11.589,16.205
	c0.085,0.04,0.183,0.021,0.272,0.053c0.056,0.017,0.065,0.098,0.169,0.089c-0.108-0.007-0.213,0.023-0.318,0.043
	c-0.01,0.014-0.021,0.023-0.03,0.035c-0.016-0.002-0.032-0.004-0.048-0.007C11.671,16.338,11.729,16.262,11.589,16.205z
	 M11.281,13.513c-3.041,0-5.507-2.465-5.507-5.506S8.24,2.5,11.281,2.5s5.506,2.465,5.506,5.506S14.322,13.513,11.281,13.513z
	 M9.525,11.75h3.374c0,0.491-0.755,0.888-1.688,0.888C10.281,12.639,9.525,12.241,9.525,11.75z M13.544,8.714
	c0,0.37-0.299,0.667-0.666,0.667c-0.368,0-0.667-0.297-0.667-0.667c0-0.366,0.299-0.666,0.667-0.666
	C13.245,8.049,13.544,8.348,13.544,8.714z M9.687,9.381c-0.369,0-0.666-0.297-0.666-0.667c0-0.366,0.297-0.666,0.666-0.666
	c0.368,0,0.666,0.299,0.666,0.666C10.353,9.084,10.055,9.381,9.687,9.381z"/>
<g>
</g>
<g>
</g>
<g>
</g>
<g>
</g>
<g>
</g>
<g>
</g>
<g>
</g>
<g>
</g>
<g>
</g>
<g>
</g>
<g>
</g>
<g>
</g>
<g>
</g>
<g>
</g>
<g>
</g>
</svg>
