<?xml version="1.0" encoding="iso-8859-1"?>
<!-- Generator: Adobe Illustrator 16.0.4, SVG Export Plug-In . SVG Version: 6.00 Build 0)  -->
<!DOCTYPE svg PUBLIC "-//W3C//DTD SVG 1.1//EN" "http://www.w3.org/Graphics/SVG/1.1/DTD/svg11.dtd">
<svg version="1.1" id="Capa_1" xmlns="http://www.w3.org/2000/svg" xmlns:xlink="http://www.w3.org/1999/xlink" x="0px" y="0px"
	 width="15px" height="14.906px" viewBox="0 0 15 14.906" style="enable-background:new 0 0 15 14.906;" xml:space="preserve">
<path style="fill:#010002;" d="M1.639,12.732v2.174H0.5V6.949c0-0.314,0.255-0.572,0.569-0.572l0,0c0.318,0,0.569,0.258,0.569,0.572
	v4.705h12.844v3.252h-1.148v-2.174H1.639z M3.394,9.242c0.569,0,1.03-0.461,1.03-1.033c0-0.568-0.461-1.029-1.03-1.029
	c-0.572,0-1.033,0.461-1.033,1.029C2.36,8.781,2.821,9.242,3.394,9.242z M14.5,10.799l-0.004-1.42
	c-0.004-0.451-0.383-0.762-0.822-0.816L5.566,7.756C5.549,7.752,5.535,7.744,5.521,7.744c-0.279,0-0.507,0.229-0.507,0.506v1.531
	H2.893c-0.283,0-0.51,0.23-0.51,0.51c0,0.281,0.227,0.508,0.51,0.508H14.5z M15,3.732L7.51,0.01L7.507,0L7.5,0.004L7.493,0
	L7.49,0.01L0,3.732l0.624,1.256L7.5,1.57l6.876,3.418L15,3.732z"/>
<g>
</g>
<g>
</g>
<g>
</g>
<g>
</g>
<g>
</g>
<g>
</g>
<g>
</g>
<g>
</g>
<g>
</g>
<g>
</g>
<g>
</g>
<g>
</g>
<g>
</g>
<g>
</g>
<g>
</g>
</svg>
