<?xml version="1.0" encoding="iso-8859-1"?>
<!-- Generator: Adobe Illustrator 16.0.4, SVG Export Plug-In . SVG Version: 6.00 Build 0)  -->
<!DOCTYPE svg PUBLIC "-//W3C//DTD SVG 1.1//EN" "http://www.w3.org/Graphics/SVG/1.1/DTD/svg11.dtd">
<svg version="1.1" id="Capa_1" xmlns="http://www.w3.org/2000/svg" xmlns:xlink="http://www.w3.org/1999/xlink" x="0px" y="0px"
	 width="12.496px" height="15px" viewBox="0 0 12.496 15" style="enable-background:new 0 0 12.496 15;" xml:space="preserve">
<path style="fill:#010002;" d="M11.404,7.088H2.811C2.76,6.949,2.527,6.842,2.234,6.842S1.709,6.949,1.658,7.088H1.092
	C0.488,7.088,0,7.576,0,8.178v5.73C0,14.514,0.488,15,1.092,15h10.312c0.604,0,1.092-0.486,1.092-1.092v-5.73
	C12.496,7.576,12.008,7.088,11.404,7.088z M6.25,14.223c-1.807-0.002-3.271-1.465-3.271-3.271c0-1.805,1.465-3.268,3.271-3.268
	c1.805,0,3.268,1.463,3.268,3.268C9.518,12.758,8.055,14.223,6.25,14.223z M8.938,10.951c0,1.486-1.205,2.689-2.688,2.689
	c-1.486,0-2.691-1.203-2.691-2.689c0-1.484,1.205-2.688,2.691-2.688C7.732,8.264,8.938,9.467,8.938,10.951z M9.357,0H3.139
	C2.986,0,2.861,0.123,2.861,0.275v3.176c0,0.152,0.125,0.275,0.277,0.275h0.721c0,0.006-0.008,0.01-0.008,0.016L4.139,6.6
	c0,0.137,0.115,0.248,0.25,0.248h3.719c0.139,0,0.248-0.111,0.248-0.248l0.289-2.857c0-0.006-0.008-0.01-0.008-0.016h0.721
	c0.152,0,0.277-0.123,0.277-0.275V0.275C9.635,0.123,9.51,0,9.357,0z M9.219,3.203c0,0.129-0.104,0.234-0.232,0.234H3.51
	c-0.131,0-0.232-0.105-0.232-0.234V0.521c0-0.127,0.102-0.232,0.232-0.232h5.477c0.129,0,0.232,0.105,0.232,0.232V3.203z"/>
<g>
</g>
<g>
</g>
<g>
</g>
<g>
</g>
<g>
</g>
<g>
</g>
<g>
</g>
<g>
</g>
<g>
</g>
<g>
</g>
<g>
</g>
<g>
</g>
<g>
</g>
<g>
</g>
<g>
</g>
</svg>
