<?xml version="1.0" encoding="iso-8859-1"?>
<!-- Generator: Adobe Illustrator 16.0.4, SVG Export Plug-In . SVG Version: 6.00 Build 0)  -->
<!DOCTYPE svg PUBLIC "-//W3C//DTD SVG 1.1//EN" "http://www.w3.org/Graphics/SVG/1.1/DTD/svg11.dtd">
<svg version="1.1" id="Capa_1" xmlns="http://www.w3.org/2000/svg" xmlns:xlink="http://www.w3.org/1999/xlink" x="0px" y="0px"
	 width="20px" height="15px" viewBox="0 0 20 15" style="enable-background:new 0 0 20 15;" xml:space="preserve">
<path style="fill:#010002;" d="M15.302,13.855l-3.057,0.58L7.254,11.72l1.815-2.263l4.082,1.358L15.302,13.855z M20,8.551v0.339
	l-3.219,1.019l-3.176,0.453L9.522,9.004L8.562,8.551h0.551C8.98,7.336,8.805,6.418,8.719,5.213H8.713
	C8.712,5.176,8.669,4.369,8.66,4.026C8.596,3.663,8.424,3.521,7.858,3.129C7.546,2.928,7.313,2.857,7.185,2.86
	c-0.209,0-0.393,0.225-0.438,0.904c0.909,0.154,0.971,1.16,0.971,1.16c0.08,0.713-0.271,1.758-1.08,2.029
	C5.144,7.451,5.299,4.571,6.142,3.882c0.022-0.831,0.25-1.59,1.043-1.622c0.312,0.002,0.631,0.131,1,0.365
	C8.36,2.731,8.502,2.839,8.627,2.949c-0.014-0.272-0.031-0.552-0.031-0.84C8.594,1.506,8.69,0.847,9.225,0.379
	C9.502,0.128,9.815-0.003,10.119,0c0.795,0.038,1.294,0.728,1.581,1.43c0.337-0.146,0.757-0.218,1.237-0.051
	c1.227,0.424,1.896,2.568,1.377,3.313c-1.212,1.743-4.262-1.496-3.453-2.628c0,0,0.117-0.153,0.326-0.323
	c-0.237-0.623-0.713-1.18-1.068-1.143C9.983,0.601,9.824,0.65,9.622,0.828C9.283,1.126,9.197,1.553,9.195,2.108
	c0,0.392,0.048,0.829,0.048,1.265c0,0.229,0.015,0.429,0.021,0.652c0.056,0.39,0.06,0.69,0.05,1.101
	c0.085,1.199,0.571,2.183,0.704,3.424L20,8.551z M11.41,1.98l2.311,2.517c-0.414-1.785-1.879-2.779-1.879-2.779L11.41,1.98z
	 M6.622,4.14L6.209,4.309c0,0-0.207,1.409,0,2.141L6.622,4.14z M4.555,12.629l1.836-1.106l1.914-2.368L7.707,8.551H3.479
	l-0.84,1.673L4.555,12.629z M6.697,12.248l-3.254,2.214L3.877,15h7.484l-0.024-0.112L6.697,12.248z M0,8.551v2.552l2.087-1.116
	l0.63-1.436H0z M14.21,10.908l2.021,2.927L20,14.718v-3.347l-2.715-0.875L14.21,10.908z M20,10.641V9.457l-2.118,0.574L20,10.641z
	 M2.136,10.804L0,11.823V15h1.568l2.323-1.906L2.136,10.804z M13.326,15h4.884l-2.336-0.565L13.326,15z"/>
<g>
</g>
<g>
</g>
<g>
</g>
<g>
</g>
<g>
</g>
<g>
</g>
<g>
</g>
<g>
</g>
<g>
</g>
<g>
</g>
<g>
</g>
<g>
</g>
<g>
</g>
<g>
</g>
<g>
</g>
</svg>
