<?xml version="1.0" encoding="iso-8859-1"?>
<!-- Generator: Adobe Illustrator 16.0.4, SVG Export Plug-In . SVG Version: 6.00 Build 0)  -->
<!DOCTYPE svg PUBLIC "-//W3C//DTD SVG 1.1//EN" "http://www.w3.org/Graphics/SVG/1.1/DTD/svg11.dtd">
<svg version="1.1" id="Capa_1" xmlns="http://www.w3.org/2000/svg" xmlns:xlink="http://www.w3.org/1999/xlink" x="0px" y="0px"
	 width="20px" height="20px" viewBox="0 0 20 20" style="enable-background:new 0 0 20 20;" xml:space="preserve">
<path style="fill:#010002;" d="M7.881,7.135C7.745,7.04,7.711,6.851,7.808,6.713c0.066-0.095,0.176-0.118,0.284-0.104L8.37,6.209
	l0.212,0.149L8.304,6.757c0.05,0.097,0.066,0.208,0,0.303C8.208,7.197,8.019,7.231,7.881,7.135z M0,16V4c0-2.2,1.8-4,4-4h12
	c2.2,0,4,1.8,4,4v12c0,2.2-1.8,4-4,4H4C1.8,20,0,18.2,0,16z M3.759,12.557L4.148,12c-1.066-0.915-1.296-2.497-0.475-3.674
	C4.549,7.075,6.273,6.77,7.525,7.646c1.251,0.874,1.557,2.599,0.682,3.852c-0.835,1.194-2.44,1.515-3.674,0.78l-0.389,0.557
	c1.542,0.948,3.57,0.555,4.62-0.949c0.766-1.095,0.792-2.474,0.208-3.578l0.709-1.014c0.157-0.225,0.101-0.537-0.123-0.694
	L8.812,6.077l0.353-0.366C9.277,5.803,9.413,5.86,9.558,5.86c0.084,0,0.166-0.018,0.242-0.053l0.525-0.242
	c0.197-0.092,0.308-0.285,0.33-0.498l0.576-0.091c0.008,0.017,0.008,0.035,0.017,0.052c0.081,0.139,0.208,0.238,0.357,0.277
	l0.558,0.15c0.048,0.013,0.099,0.021,0.149,0.021c0.156,0,0.3-0.067,0.414-0.173l0.583,0.362c-0.029,0.088-0.042,0.179-0.028,0.271
	l0.091,0.57c0.039,0.243,0.229,0.425,0.473,0.482v0.775h-0.857c-0.274,0-0.499,0.224-0.499,0.498v1.235
	c-1.112,0.571-1.88,1.717-1.88,3.053c0,1.81,1.399,3.277,3.173,3.418v-0.68c-1.398-0.138-2.494-1.305-2.494-2.738
	c0-1.527,1.238-2.766,2.766-2.766c1.527,0,2.766,1.238,2.766,2.766c0,1.458-1.133,2.641-2.564,2.746v0.68
	c1.807-0.106,3.244-1.593,3.244-3.426c0-1.336-0.769-2.481-1.881-3.053V8.264c0-0.274-0.224-0.498-0.498-0.498h-0.927V6.98
	c0.135-0.039,0.259-0.107,0.345-0.216c0.107-0.135,0.152-0.299,0.125-0.463l-0.091-0.57c-0.052-0.328-0.378-0.563-0.743-0.5
	c-0.114,0.018-0.213,0.071-0.302,0.138L12.92,4.99c0-0.003,0.002-0.006,0.003-0.009c0.044-0.166,0.027-0.339-0.049-0.487
	c-0.079-0.152-0.211-0.261-0.372-0.303l-0.558-0.15c-0.318-0.084-0.668,0.132-0.761,0.475c-0.008,0.031-0.002,0.063-0.006,0.096
	l-0.58,0.092c-0.151-0.312-0.524-0.465-0.823-0.328L9.25,4.617C8.959,4.752,8.838,5.105,8.959,5.423L8.522,5.875L7.809,5.377
	C7.584,5.22,7.272,5.275,7.115,5.5L6.407,6.513c-1.239-0.168-2.525,0.33-3.291,1.425C2.081,9.42,2.386,11.426,3.759,12.557z
	 M13.845,6.639V6.48c0-0.097,0.078-0.175,0.175-0.175s0.175,0.078,0.175,0.175v0.128c0.028-0.019,0.066-0.023,0.087-0.05
	c0.049-0.061,0.069-0.134,0.058-0.205l-0.092-0.57c-0.021-0.134-0.15-0.231-0.307-0.231c-0.02,0-0.04,0.002-0.059,0.005
	c-0.011,0.002-0.017,0.013-0.027,0.016c0.086,0.054,0.112,0.167,0.059,0.253c-0.035,0.056-0.095,0.088-0.157,0.088
	c-0.033,0-0.067-0.01-0.098-0.029l-0.045-0.027c0,0.01-0.01,0.02-0.008,0.029l0.092,0.57C13.71,6.538,13.769,6.599,13.845,6.639z
	 M14.184,8.126h-0.259v0.486c-0.097,0.051-0.173,0.133-0.173,0.25c0,0.166,0.135,0.302,0.303,0.302c0.167,0,0.302-0.136,0.302-0.302
	c0-0.117-0.076-0.199-0.173-0.25V8.126z M9.509,5.104C9.579,5.17,9.58,5.281,9.513,5.351l-0.116,0.12
	c0.083,0.056,0.181,0.076,0.265,0.037l0.524-0.242c0.059-0.027,0.092-0.083,0.118-0.143l-0.092,0.015
	c-0.01,0.002-0.02,0.003-0.029,0.003c-0.09,0-0.168-0.064-0.182-0.156c-0.016-0.101,0.053-0.195,0.153-0.211l0.076-0.012
	c-0.06-0.063-0.131-0.109-0.213-0.109c-0.037,0-0.072,0.008-0.104,0.022L9.389,4.917C9.31,4.954,9.268,5.031,9.251,5.119l0.01-0.011
	C9.329,5.038,9.44,5.037,9.509,5.104z M11.891,4.686c0.016,0.101-0.053,0.195-0.153,0.211l-0.135,0.021
	c0.029,0.024,0.052,0.06,0.088,0.07l0.558,0.149c0.058,0.016,0.117,0.002,0.172-0.024l-0.074-0.046
	c-0.086-0.054-0.113-0.167-0.059-0.253c0.055-0.087,0.168-0.114,0.254-0.06l0.052,0.032c-0.002-0.048,0.008-0.099-0.013-0.141
	c-0.036-0.069-0.094-0.118-0.164-0.138l-0.558-0.149c-0.021-0.006-0.042-0.008-0.063-0.008c-0.114,0-0.213,0.087-0.265,0.204
	l0.148-0.023C11.785,4.51,11.875,4.584,11.891,4.686z"/>
<g>
</g>
<g>
</g>
<g>
</g>
<g>
</g>
<g>
</g>
<g>
</g>
<g>
</g>
<g>
</g>
<g>
</g>
<g>
</g>
<g>
</g>
<g>
</g>
<g>
</g>
<g>
</g>
<g>
</g>
</svg>
