<?xml version="1.0" encoding="iso-8859-1"?>
<!-- Generator: Adobe Illustrator 16.0.4, SVG Export Plug-In . SVG Version: 6.00 Build 0)  -->
<!DOCTYPE svg PUBLIC "-//W3C//DTD SVG 1.1//EN" "http://www.w3.org/Graphics/SVG/1.1/DTD/svg11.dtd">
<svg version="1.1" id="Capa_1" xmlns="http://www.w3.org/2000/svg" xmlns:xlink="http://www.w3.org/1999/xlink" x="0px" y="0px"
	 width="5.73px" height="15px" viewBox="0 0 5.73 15" style="enable-background:new 0 0 5.73 15;" xml:space="preserve">
<path style="fill:#010002;" d="M5.207,4.67V1.029C5.326,0.92,5.406,0.768,5.406,0.592C5.406,0.266,5.141,0,4.812,0
	S4.219,0.266,4.219,0.592c0,0.176,0.08,0.328,0.199,0.438v3.588H3.26V3.309c0-0.217-0.178-0.393-0.395-0.393
	c-0.219,0-0.395,0.176-0.395,0.393v1.309H1.588V3.895c0-0.326-0.266-0.59-0.592-0.59s-0.592,0.264-0.592,0.59V4.73
	C0.168,4.867,0,5.113,0,5.404v3.184C0,9.021,0.121,9.57,0.27,9.809s0.27,0.787,0.27,1.221v3.182C0.539,14.645,0.895,15,1.328,15
	h3.074c0.434,0,0.789-0.355,0.789-0.789v-3.182c0-0.434,0.121-0.982,0.27-1.221s0.27-0.787,0.27-1.221V5.404
	C5.73,5.064,5.51,4.781,5.207,4.67z M5.191,8.49H0.539V8.096h4.652V8.49z M5.191,7.662H0.539V7.268h4.652V7.662z M5.191,6.832H0.539
	V6.438h4.652V6.832z M5.191,6.004H0.539V5.609h4.652V6.004z"/>
<g>
</g>
<g>
</g>
<g>
</g>
<g>
</g>
<g>
</g>
<g>
</g>
<g>
</g>
<g>
</g>
<g>
</g>
<g>
</g>
<g>
</g>
<g>
</g>
<g>
</g>
<g>
</g>
<g>
</g>
</svg>
