<?xml version="1.0" encoding="iso-8859-1"?>
<!-- Generator: Adobe Illustrator 16.0.4, SVG Export Plug-In . SVG Version: 6.00 Build 0)  -->
<!DOCTYPE svg PUBLIC "-//W3C//DTD SVG 1.1//EN" "http://www.w3.org/Graphics/SVG/1.1/DTD/svg11.dtd">
<svg version="1.1" id="Capa_1" xmlns="http://www.w3.org/2000/svg" xmlns:xlink="http://www.w3.org/1999/xlink" x="0px" y="0px"
	 width="15px" height="11.879px" viewBox="0 0 15 11.879" style="enable-background:new 0 0 15 11.879;" xml:space="preserve">
<path style="fill:#010002;" d="M3.24,0C1.451,0,0,0.695,0,1.553v9.713v0.348v0.266h0.546v-0.266h5.387v0.266H6.48v-0.266v-0.348
	V1.553C6.48,0.695,5.03,0,3.24,0z M5.639,6.482H5.255V5.227h0.384V6.482z M0.409,1.553c0-0.477,1.078-1.143,2.831-1.143
	c1.754,0,2.831,0.666,2.831,1.143H0.409z M11.761,0C9.971,0,8.52,0.695,8.52,1.553v9.713v0.348v0.266h0.547v-0.266h5.386v0.266H15
	v-0.266v-0.348V1.553C15,0.695,13.55,0,11.761,0z M14.159,6.482h-0.385V5.227h0.385V6.482z M8.929,1.553
	c0-0.477,1.078-1.143,2.832-1.143s2.83,0.666,2.83,1.143H8.929z"/>
<g>
</g>
<g>
</g>
<g>
</g>
<g>
</g>
<g>
</g>
<g>
</g>
<g>
</g>
<g>
</g>
<g>
</g>
<g>
</g>
<g>
</g>
<g>
</g>
<g>
</g>
<g>
</g>
<g>
</g>
</svg>
