<?xml version="1.0" encoding="iso-8859-1"?>
<!-- Generator: Adobe Illustrator 16.0.4, SVG Export Plug-In . SVG Version: 6.00 Build 0)  -->
<!DOCTYPE svg PUBLIC "-//W3C//DTD SVG 1.1//EN" "http://www.w3.org/Graphics/SVG/1.1/DTD/svg11.dtd">
<svg version="1.1" id="Capa_1" xmlns="http://www.w3.org/2000/svg" xmlns:xlink="http://www.w3.org/1999/xlink" x="0px" y="0px"
	 width="20px" height="20px" viewBox="0 0 20 20" style="enable-background:new 0 0 20 20;" xml:space="preserve">
<path style="fill:#010002;" d="M11.913,8.362c0.254,0,0.46,0.205,0.46,0.458c0,0.533-0.872,1.007-0.872,1.007
	S10.63,9.354,10.63,8.82c0-0.253,0.205-0.458,0.459-0.458c0.209,0,0.356,0.153,0.412,0.347C11.558,8.516,11.704,8.362,11.913,8.362z
	 M20,4v12c0,2.199-1.8,4-4,4H4c-2.2,0-4-1.801-4-4V4c0-2.201,1.8-4,4-4h12C18.2,0,20,1.799,20,4z M8.883,4.814
	c0.185,0.107,0.391,0.189,0.623,0.189c0.69,0,1.252-0.561,1.252-1.254c0-0.69-0.562-1.25-1.252-1.25c-0.692,0-1.253,0.56-1.253,1.25
	c0,0,0.088,0.907-0.292,1.051C7.726,4.889,8.365,4.852,8.883,4.814z M12.913,9.078c0-0.99-0.712-1.811-1.65-1.986
	c-0.319-1.013-0.838-1.766-1.688-1.766c-1.151,0-1.195,0.387-1.507,1.027c0,0-0.001,0-0.001,0.001v0.002
	c-0.312,0.64-0.97,4.395-0.97,4.395c-0.05,0.216,0.085,0.431,0.3,0.481c0.031,0.006,0.062,0.01,0.091,0.01
	c0.183,0,0.348-0.126,0.391-0.311l0.889-3.721l-0.425,5.281h0.657l0.258,4.707c0,0.164,0.135,0.301,0.299,0.301
	c0.169,0,0.302-0.137,0.302-0.301l0.257-4.707h1.589c0,0,0.044-0.664,0.036-1.582C12.431,10.588,12.913,9.891,12.913,9.078z"/>
<g>
</g>
<g>
</g>
<g>
</g>
<g>
</g>
<g>
</g>
<g>
</g>
<g>
</g>
<g>
</g>
<g>
</g>
<g>
</g>
<g>
</g>
<g>
</g>
<g>
</g>
<g>
</g>
<g>
</g>
</svg>
