<?xml version="1.0" encoding="iso-8859-1"?>
<!-- Generator: Adobe Illustrator 16.0.4, SVG Export Plug-In . SVG Version: 6.00 Build 0)  -->
<!DOCTYPE svg PUBLIC "-//W3C//DTD SVG 1.1//EN" "http://www.w3.org/Graphics/SVG/1.1/DTD/svg11.dtd">
<svg version="1.1" id="Capa_1" xmlns="http://www.w3.org/2000/svg" xmlns:xlink="http://www.w3.org/1999/xlink" x="0px" y="0px"
	 width="5.827px" height="15px" viewBox="0 0 5.827 15" style="enable-background:new 0 0 5.827 15;" xml:space="preserve">
<path style="fill:#010002;" d="M0.875,2.301C1.255,2.157,1.167,1.25,1.167,1.25C1.167,0.56,1.728,0,2.42,0
	c0.69,0,1.252,0.56,1.252,1.25c0,0.693-0.562,1.254-1.252,1.254c-0.232,0-0.438-0.082-0.623-0.189
	C1.279,2.352,0.64,2.389,0.875,2.301z M4.653,8.41c0.008,0.918-0.036,1.582-0.036,1.582H3.028l-0.257,4.707
	C2.771,14.863,2.639,15,2.47,15c-0.164,0-0.299-0.137-0.299-0.301L1.913,9.992H1.256l0.425-5.281L0.792,8.432
	C0.749,8.616,0.584,8.742,0.401,8.742c-0.029,0-0.06-0.004-0.091-0.01c-0.215-0.051-0.35-0.266-0.3-0.481
	c0,0,0.657-3.755,0.97-4.395V3.854c0-0.001,0.001-0.001,0.001-0.001c0.312-0.641,0.355-1.027,1.507-1.027
	c0.851,0,1.369,0.753,1.688,1.766c0.938,0.176,1.65,0.996,1.65,1.986C5.827,7.391,5.345,8.088,4.653,8.41z M5.287,6.32
	c0-0.253-0.206-0.458-0.46-0.458c-0.209,0-0.355,0.153-0.412,0.347C4.359,6.016,4.212,5.862,4.003,5.862
	c-0.254,0-0.459,0.205-0.459,0.458c0,0.533,0.871,1.007,0.871,1.007S5.287,6.854,5.287,6.32z"/>
<g>
</g>
<g>
</g>
<g>
</g>
<g>
</g>
<g>
</g>
<g>
</g>
<g>
</g>
<g>
</g>
<g>
</g>
<g>
</g>
<g>
</g>
<g>
</g>
<g>
</g>
<g>
</g>
<g>
</g>
</svg>
