<?xml version="1.0" encoding="iso-8859-1"?>
<!-- Generator: Adobe Illustrator 16.0.4, SVG Export Plug-In . SVG Version: 6.00 Build 0)  -->
<!DOCTYPE svg PUBLIC "-//W3C//DTD SVG 1.1//EN" "http://www.w3.org/Graphics/SVG/1.1/DTD/svg11.dtd">
<svg version="1.1" id="Capa_1" xmlns="http://www.w3.org/2000/svg" xmlns:xlink="http://www.w3.org/1999/xlink" x="0px" y="0px"
	 width="15px" height="12.042px" viewBox="0 0 15 12.042" style="enable-background:new 0 0 15 12.042;" xml:space="preserve">
<path style="fill:#010002;" d="M6.181,7.154c0.264,0.125,0.565,0.197,0.912,0.197c0.133,0,0.271-0.01,0.414-0.028
	c1.274-0.164,1.98-2.044,2.019-3.819C9.537,3.031,9.471,2.147,8.91,1.566C8.576,1.217,8.125,1.041,7.569,1.04
	C6.632,0.821,2.991-0.015,2.343,0c-1.089,0.024-2.07,1.469-2.268,2.374c-0.195,0.9-0.111,2.828,1.501,3.187L6.181,7.154z
	 M2.48,5.156l0.026-1.096c0,0,0.205,0.183,0.358,0.039l0.717,1.422C3.313,5.717,2.622,5.43,2.48,5.156z M6.04,6.49
	C5.709,6.151,5.541,5.579,5.543,4.789c0.001-1.082,0.59-3.224,1.942-3.271l0.077-0.002c0.429,0,0.769,0.129,1.014,0.385
	c0.455,0.473,0.488,1.271,0.482,1.594c-0.034,1.552-0.646,3.231-1.61,3.354C6.829,6.928,6.352,6.808,6.04,6.49z M3.452,1.715
	c0.177-0.214,0.675,1.988,0.425,2.072C3.838,3.8,2.994,3.561,2.994,3.561c0.037-0.139-0.012-0.454-0.192-0.609L3.452,1.715z
	 M2.583,3.031c0.192,0.013,0.256,0.286,0.256,0.482c0,0.196-0.051,0.391-0.205,0.365c-0.153-0.027-0.23-0.483-0.23-0.483
	C2.392,3.604,2.392,3.017,2.583,3.031z M2.198,1.244l0.219,1.591C2.275,2.938,2.25,3.122,2.275,3.356L1.443,3.095
	C1.315,2.757,1.854,1.296,2.198,1.244z M14.987,7.19c0.138,0.568-0.925,1.038-1.431,1.44c-0.505,0.401-1.645,1.012-3.117,1.797
	c-1.474,0.785-3.323,1.377-4.522,1.073c-1.199-0.306-2.073-0.358-3.093,0.279c-1.019,0.637-1.952,0.009-2.063-0.741
	c-0.111-0.75,2.03-2.042,3.066-1.955c0.821,0.07,2.387-0.761,3.196-0.934C7.339,8.081,7.885,8.072,8.79,7.732
	c0.903-0.34,1.251-1.744,1.704-1.959c0.545-0.257,1.601,0.146,1.889,0.238C12.82,6.151,14.85,6.623,14.987,7.19z"/>
<g>
</g>
<g>
</g>
<g>
</g>
<g>
</g>
<g>
</g>
<g>
</g>
<g>
</g>
<g>
</g>
<g>
</g>
<g>
</g>
<g>
</g>
<g>
</g>
<g>
</g>
<g>
</g>
<g>
</g>
</svg>
