<?xml version="1.0" encoding="iso-8859-1"?>
<!-- Generator: Adobe Illustrator 16.0.4, SVG Export Plug-In . SVG Version: 6.00 Build 0)  -->
<!DOCTYPE svg PUBLIC "-//W3C//DTD SVG 1.1//EN" "http://www.w3.org/Graphics/SVG/1.1/DTD/svg11.dtd">
<svg version="1.1" id="Capa_1" xmlns="http://www.w3.org/2000/svg" xmlns:xlink="http://www.w3.org/1999/xlink" x="0px" y="0px"
	 width="14.062px" height="15px" viewBox="0 0 14.062 15" style="enable-background:new 0 0 14.062 15;" xml:space="preserve">
<path style="fill:#010002;" d="M3.032,4.695l7.06-3.346c0.179,0.074,0.383,0.082,0.57-0.008c0.352-0.166,0.502-0.586,0.336-0.939
	C10.831,0.051,10.41-0.1,10.059,0.068C9.87,0.156,9.747,0.318,9.691,0.502L0.841,4.695H0V15h14.062V4.695H3.032z M2.112,12.859
	H1.644V9.475h0.469V12.859z M3.812,12.859H3.344V9.475h0.469V12.859z M5.514,12.859H5.045V9.475h0.469V12.859z M7.213,12.859H6.744
	V9.475h0.469V12.859z M10.727,12.859c-0.934,0-1.691-0.758-1.691-1.693c0-0.934,0.758-1.691,1.691-1.691
	c0.935,0,1.692,0.758,1.692,1.691C12.419,12.102,11.661,12.859,10.727,12.859z M12.419,7.846H1.644V6.092h10.775V7.846z"/>
<g>
</g>
<g>
</g>
<g>
</g>
<g>
</g>
<g>
</g>
<g>
</g>
<g>
</g>
<g>
</g>
<g>
</g>
<g>
</g>
<g>
</g>
<g>
</g>
<g>
</g>
<g>
</g>
<g>
</g>
</svg>
