<?xml version="1.0" encoding="iso-8859-1"?>
<!-- Generator: Adobe Illustrator 16.0.4, SVG Export Plug-In . SVG Version: 6.00 Build 0)  -->
<!DOCTYPE svg PUBLIC "-//W3C//DTD SVG 1.1//EN" "http://www.w3.org/Graphics/SVG/1.1/DTD/svg11.dtd">
<svg version="1.1" id="Capa_1" xmlns="http://www.w3.org/2000/svg" xmlns:xlink="http://www.w3.org/1999/xlink" x="0px" y="0px"
	 width="18px" height="14.152px" viewBox="0 0 18 14.152" style="enable-background:new 0 0 18 14.152;" xml:space="preserve">
<path style="fill:#010002;" d="M0,11.203V3.902h6.464v7.195c-0.14,0.057-0.289,0.096-0.457,0.1
	c-0.601-0.014-1.001-0.363-1.318-1.139c-0.004-0.014-0.009-0.02-0.014-0.033c-0.003-0.006-0.006-0.008-0.007-0.018H4.665
	C4.636,9.961,4.589,9.93,4.534,9.93c-0.056,0-0.103,0.031-0.133,0.078H4.399c-0.011,0.02-0.019,0.037-0.022,0.061
	c-0.323,0.783-0.734,1.135-1.354,1.135H3.021c-0.624,0-1.031-0.352-1.354-1.145c-0.005-0.014-0.01-0.02-0.015-0.033
	c-0.003-0.006-0.006-0.008-0.007-0.018H1.639C1.61,9.961,1.565,9.93,1.508,9.93c-0.053,0-0.1,0.031-0.132,0.078
	c-0.011,0.02-0.019,0.037-0.023,0.061C1.029,10.852,0.619,11.203,0,11.203z M11.536,3.902v7.205
	c0.138,0.055,0.285,0.088,0.449,0.092c0.604-0.012,1.004-0.361,1.324-1.131c0.004-0.023,0.012-0.041,0.023-0.061
	c0.031-0.047,0.076-0.078,0.131-0.078c0.057,0,0.103,0.031,0.132,0.078H13.6c0.002,0.01,0.005,0.012,0.01,0.018
	c0.003,0.014,0.008,0.02,0.012,0.033c0.322,0.793,0.731,1.145,1.355,1.145h0.004c0.621,0,1.029-0.352,1.352-1.135
	c0.005-0.023,0.013-0.041,0.024-0.061c0.031-0.047,0.078-0.078,0.133-0.078c0.056,0,0.102,0.031,0.132,0.078h0.002
	c0.003,0.01,0.006,0.012,0.01,0.018c0.003,0.014,0.009,0.02,0.011,0.033c0.325,0.793,0.732,1.145,1.356,1.145V3.902H11.536z
	 M8.318,2.236v11.916h1.359V2.236h1.558L9,0L6.765,2.236H8.318z"/>
<g>
</g>
<g>
</g>
<g>
</g>
<g>
</g>
<g>
</g>
<g>
</g>
<g>
</g>
<g>
</g>
<g>
</g>
<g>
</g>
<g>
</g>
<g>
</g>
<g>
</g>
<g>
</g>
<g>
</g>
</svg>
