<?xml version="1.0" encoding="iso-8859-1"?>
<!-- Generator: Adobe Illustrator 16.0.4, SVG Export Plug-In . SVG Version: 6.00 Build 0)  -->
<!DOCTYPE svg PUBLIC "-//W3C//DTD SVG 1.1//EN" "http://www.w3.org/Graphics/SVG/1.1/DTD/svg11.dtd">
<svg version="1.1" id="Capa_1" xmlns="http://www.w3.org/2000/svg" xmlns:xlink="http://www.w3.org/1999/xlink" x="0px" y="0px"
	 width="20px" height="20px" viewBox="0 0 20 20" style="enable-background:new 0 0 20 20;" xml:space="preserve">
<path style="fill:#010002;" d="M12.923,3.934v1.864c0,0.331-0.355,0.597-0.789,0.597H7.868c-0.434,0-0.789-0.266-0.789-0.597V3.934
	c0-0.331,0.355-0.597,0.789-0.597h4.266C12.567,3.337,12.923,3.603,12.923,3.934z M20,4v12c0,2.2-1.8,4-4,4H4c-2.2,0-4-1.8-4-4V4
	c0-2.2,1.8-4,4-4h12C18.2,0,20,1.8,20,4z M15.19,4.523c0-1.498-0.908-2.023-2.023-2.023h-6.33C5.72,2.5,4.81,3.069,4.81,4.523
	v10.949c0,1.665,0.91,2.027,2.027,2.027h6.33c1.115,0,2.023-0.295,2.023-2.027V4.523z"/>
<g>
</g>
<g>
</g>
<g>
</g>
<g>
</g>
<g>
</g>
<g>
</g>
<g>
</g>
<g>
</g>
<g>
</g>
<g>
</g>
<g>
</g>
<g>
</g>
<g>
</g>
<g>
</g>
<g>
</g>
</svg>
