<?xml version="1.0" encoding="iso-8859-1"?>
<!-- Generator: Adobe Illustrator 16.0.4, SVG Export Plug-In . SVG Version: 6.00 Build 0)  -->
<!DOCTYPE svg PUBLIC "-//W3C//DTD SVG 1.1//EN" "http://www.w3.org/Graphics/SVG/1.1/DTD/svg11.dtd">
<svg version="1.1" id="Capa_1" xmlns="http://www.w3.org/2000/svg" xmlns:xlink="http://www.w3.org/1999/xlink" x="0px" y="0px"
	 width="20px" height="20px" viewBox="0 0 20 20" style="enable-background:new 0 0 20 20;" xml:space="preserve">
<path style="fill:#010002;" d="M12.036,7.844h0.548V8.57h-0.548V7.844z M13.217,8.57h0.546V7.844h-0.546V8.57z M15.162,7.008h0.889
	V6.393h-0.889V7.008z M16.505,7.008h0.893V6.393h-0.893V7.008z M16.505,6.039h0.893V5.423h-0.893V6.039z M15.162,6.039h0.889V5.423
	h-0.889V6.039z M20,4v12c0,2.2-1.8,4-4,4H4c-2.2,0-4-1.8-4-4V4c0-2.2,1.8-4,4-4h12C18.2,0,20,1.8,20,4z M1,11.768h4.537v0.983
	l3.454-1.994L5.537,8.762v1.005H1V11.768z M19,14.219h-1.312V4.787H14.87v9.432h-0.747v-6.9h-2.441v6.9H1V16c0,1.654,1.346,3,3,3h12
	c1.654,0,3-1.346,3-3V14.219z"/>
<g>
</g>
<g>
</g>
<g>
</g>
<g>
</g>
<g>
</g>
<g>
</g>
<g>
</g>
<g>
</g>
<g>
</g>
<g>
</g>
<g>
</g>
<g>
</g>
<g>
</g>
<g>
</g>
<g>
</g>
</svg>
