<?xml version="1.0" encoding="iso-8859-1"?>
<!-- Generator: Adobe Illustrator 16.0.4, SVG Export Plug-In . SVG Version: 6.00 Build 0)  -->
<!DOCTYPE svg PUBLIC "-//W3C//DTD SVG 1.1//EN" "http://www.w3.org/Graphics/SVG/1.1/DTD/svg11.dtd">
<svg version="1.1" id="Capa_1" xmlns="http://www.w3.org/2000/svg" xmlns:xlink="http://www.w3.org/1999/xlink" x="0px" y="0px"
	 width="15.5px" height="15.5px" viewBox="0 0 15.5 15.5" style="enable-background:new 0 0 15.5 15.5;" xml:space="preserve">
<path style="fill:#010002;" d="M15.5,15.5l-4-15H6.497C6.003,0.188,5.424,0,4.801,0H3.199C1.44,0,0,1.44,0,3.199v1.602
	c0,1.525,1.085,2.809,2.521,3.123L0.5,15.5H15.5z M8.5,14.952h-1V12.95h1V14.952z M8.5,10.949h-1V8.948h1V10.949z M8.5,6.946h-1
	V6.497c0.287-0.454,0.459-0.983,0.485-1.552H8.5V6.946z M7.5,0.943h1v2.001H7.974C7.932,2.418,7.769,1.928,7.5,1.503V0.943z
	 M0.4,4.801V3.199C0.4,1.656,1.656,0.4,3.199,0.4h1.602C6.344,0.4,7.6,1.656,7.6,3.199v1.602C7.6,6.344,6.344,7.6,4.801,7.6H3.199
	C1.656,7.6,0.4,6.344,0.4,4.801z M4,4.707L2.373,6.334L1.666,5.627L3.293,4L1.666,2.373l0.707-0.707L4,3.293l1.627-1.627
	l0.707,0.707L4.707,4l1.627,1.627L5.627,6.334L4,4.707z"/>
<g>
</g>
<g>
</g>
<g>
</g>
<g>
</g>
<g>
</g>
<g>
</g>
<g>
</g>
<g>
</g>
<g>
</g>
<g>
</g>
<g>
</g>
<g>
</g>
<g>
</g>
<g>
</g>
<g>
</g>
</svg>
