<?xml version="1.0" encoding="iso-8859-1"?>
<!-- Generator: Adobe Illustrator 16.0.4, SVG Export Plug-In . SVG Version: 6.00 Build 0)  -->
<!DOCTYPE svg PUBLIC "-//W3C//DTD SVG 1.1//EN" "http://www.w3.org/Graphics/SVG/1.1/DTD/svg11.dtd">
<svg version="1.1" id="Capa_1" xmlns="http://www.w3.org/2000/svg" xmlns:xlink="http://www.w3.org/1999/xlink" x="0px" y="0px"
	 width="20px" height="20px" viewBox="0 0 20 20" style="enable-background:new 0 0 20 20;" xml:space="preserve">
<path style="fill:#010002;" d="M16,0H4C1.8,0,0,1.8,0,4v12c0,2.2,1.8,4,4,4h12c2.2,0,4-1.8,4-4V4C20,1.8,18.2,0,16,0z M9.999,2.5
	c1.932,0,3.496,1.564,3.496,3.494h-6.99C6.505,4.064,8.069,2.5,9.999,2.5z M5.624,17.5L6.505,6.435h6.99L14.376,17.5H5.624z
	 M11.8,13.046c0.135,0.216,0.201,0.481,0.201,0.8c0,0.289-0.08,0.56-0.238,0.811c-0.16,0.252-0.389,0.438-0.682,0.562
	c-0.293,0.122-0.658,0.185-1.096,0.185c-0.635,0-1.123-0.147-1.465-0.442c-0.34-0.294-0.545-0.723-0.611-1.285l0.99-0.097
	c0.059,0.333,0.18,0.576,0.361,0.731s0.428,0.233,0.736,0.233c0.328,0,0.574-0.069,0.74-0.207c0.166-0.139,0.248-0.301,0.248-0.486
	c0-0.118-0.035-0.221-0.104-0.303c-0.07-0.084-0.191-0.157-0.367-0.219c-0.119-0.041-0.389-0.114-0.812-0.22
	c-0.545-0.135-0.928-0.301-1.146-0.498c-0.309-0.276-0.463-0.613-0.463-1.012c0-0.257,0.072-0.497,0.217-0.721
	c0.146-0.223,0.355-0.392,0.629-0.51c0.273-0.115,0.604-0.175,0.99-0.175c0.631,0,1.105,0.14,1.426,0.415
	c0.32,0.278,0.488,0.646,0.504,1.11l-1.018,0.044c-0.043-0.259-0.137-0.444-0.279-0.558c-0.143-0.114-0.357-0.17-0.645-0.17
	c-0.295,0-0.525,0.061-0.691,0.183c-0.107,0.077-0.162,0.181-0.162,0.312c0,0.12,0.051,0.221,0.15,0.305
	c0.129,0.107,0.439,0.221,0.936,0.338c0.492,0.115,0.857,0.237,1.096,0.361C11.481,12.658,11.667,12.828,11.8,13.046z M10.464,3.141
	c0,0.257-0.205,0.465-0.463,0.465S9.536,3.397,9.536,3.141c0-0.255,0.207-0.464,0.465-0.464S10.464,2.886,10.464,3.141z
	 M11.669,4.16c0,0.257-0.207,0.463-0.463,0.463c-0.258,0-0.463-0.206-0.463-0.463c0-0.255,0.205-0.464,0.463-0.464
	C11.462,3.696,11.669,3.905,11.669,4.16z M9.241,4.16c0,0.257-0.207,0.463-0.463,0.463S8.313,4.417,8.313,4.16
	c0-0.255,0.209-0.464,0.465-0.464S9.241,3.905,9.241,4.16z"/>
<g>
</g>
<g>
</g>
<g>
</g>
<g>
</g>
<g>
</g>
<g>
</g>
<g>
</g>
<g>
</g>
<g>
</g>
<g>
</g>
<g>
</g>
<g>
</g>
<g>
</g>
<g>
</g>
<g>
</g>
</svg>
