<?xml version="1.0" encoding="iso-8859-1"?>
<!-- Generator: Adobe Illustrator 16.0.4, SVG Export Plug-In . SVG Version: 6.00 Build 0)  -->
<!DOCTYPE svg PUBLIC "-//W3C//DTD SVG 1.1//EN" "http://www.w3.org/Graphics/SVG/1.1/DTD/svg11.dtd">
<svg version="1.1" id="Capa_1" xmlns="http://www.w3.org/2000/svg" xmlns:xlink="http://www.w3.org/1999/xlink" x="0px" y="0px"
	 width="20px" height="20px" viewBox="0 0 20 20" style="enable-background:new 0 0 20 20;" xml:space="preserve">
<path style="fill:#010002;" d="M6.688,12.475c0,0.339-0.273,0.613-0.613,0.613c-0.337,0-0.614-0.274-0.614-0.613
	c0-0.338,0.277-0.614,0.614-0.614C6.414,11.86,6.688,12.137,6.688,12.475z M13.927,11.86c-0.34,0-0.615,0.276-0.615,0.614
	c0,0.339,0.275,0.613,0.615,0.613c0.337,0,0.612-0.274,0.612-0.613C14.539,12.137,14.264,11.86,13.927,11.86z M9.098,9.181h2.599
	V6.88H9.098V9.181z M20,4v12c0,2.2-1.8,4-4,4H4c-2.2,0-4-1.8-4-4V4c0-2.2,1.8-4,4-4h12C18.2,0,20,1.8,20,4z M7.3,12.476
	c0-0.681-0.547-1.227-1.223-1.227c-0.683,0-1.228,0.546-1.228,1.227c0,0.677,0.545,1.226,1.228,1.226
	C6.753,13.701,7.3,13.152,7.3,12.476z M15.152,12.476c0-0.681-0.55-1.227-1.226-1.227c-0.679,0-1.228,0.546-1.228,1.227
	c0,0.677,0.549,1.226,1.228,1.226C14.603,13.701,15.152,13.152,15.152,12.476z M17.5,11.157c0-0.432-0.646-1.831-1.881-1.977
	l-1.098-2.182c-0.193-0.385-0.705-0.7-1.137-0.7H3.284C2.854,6.299,2.5,6.652,2.5,7.083v5.774h2.108
	c-0.031-0.123-0.055-0.25-0.055-0.382c0-0.84,0.683-1.522,1.523-1.522c0.836,0,1.519,0.683,1.519,1.522
	c0,0.132-0.023,0.259-0.055,0.382h4.919c-0.032-0.123-0.055-0.25-0.055-0.382c0-0.84,0.681-1.522,1.521-1.522
	c0.838,0,1.521,0.683,1.521,1.522c0,0.132-0.022,0.259-0.055,0.382H17.5V11.157z M3.1,9.181h2.6V6.88H3.1V9.181z M13.216,6.88
	h-0.776v2.301h2.434L13.94,7.326C13.817,7.081,13.491,6.88,13.216,6.88z M6.099,9.181h2.6V6.88h-2.6V9.181z"/>
<g>
</g>
<g>
</g>
<g>
</g>
<g>
</g>
<g>
</g>
<g>
</g>
<g>
</g>
<g>
</g>
<g>
</g>
<g>
</g>
<g>
</g>
<g>
</g>
<g>
</g>
<g>
</g>
<g>
</g>
</svg>
