<?xml version="1.0" encoding="iso-8859-1"?>
<!-- Generator: Adobe Illustrator 16.0.4, SVG Export Plug-In . SVG Version: 6.00 Build 0)  -->
<!DOCTYPE svg PUBLIC "-//W3C//DTD SVG 1.1//EN" "http://www.w3.org/Graphics/SVG/1.1/DTD/svg11.dtd">
<svg version="1.1" id="Capa_1" xmlns="http://www.w3.org/2000/svg" xmlns:xlink="http://www.w3.org/1999/xlink" x="0px" y="0px"
	 width="20px" height="20px" viewBox="0 0 20 20" style="enable-background:new 0 0 20 20;" xml:space="preserve">
<path style="fill:#010002;" d="M16,0H4C1.8,0,0,1.8,0,4v12c0,2.2,1.8,4,4,4h12c2.2,0,4-1.8,4-4V4C20,1.8,18.2,0,16,0z M19,16
	c0,0.115-0.021,0.224-0.034,0.335c-0.438-0.192-0.944-0.495-1.076-0.903c-0.174-0.527-0.401-1.582,0.556-1.667
	c0,0-1.207-1.408-2.223,0.557c-0.768,1.497-1.313,2.151-1.666,2.222h-0.556c-0.352-0.085-0.906-0.48-1.111-1.111
	c-0.174-0.527-0.401-1.582,0.556-1.667c0,0-1.208-1.408-2.223,0.557c-0.771,1.497-1.312,2.151-1.667,2.222H9.001
	c-0.353-0.085-0.906-0.48-1.111-1.111c-0.174-0.527-0.401-1.582,0.556-1.667c0,0-1.209-1.408-2.223,0.557
	c-0.771,1.497-1.312,2.151-1.666,2.222H4c-0.35-0.085-0.905-0.48-1.11-1.111c-0.172-0.527-0.403-1.582,0.556-1.667
	c0,0-1.21-1.408-2.223,0.557C1.159,14.445,1.074,14.542,1,14.653V6.882c1.56-2.239,3.655-3.763,5.778-3.763
	c1.685,0,2.905,0.372,3.334,1.113c0.409,0.692,0.425,1.971-0.557,2.221C9.145,6.559,8.14,6.271,7.89,5.897
	c-0.174-0.261-0.521-0.435,0-1.111c-2.892-0.738-5.033,6.29,1.666,7.223c0.889-3.402,3.509-6.111,6.111-6.111
	c1.297,0,1.893,0.539,2.223,1.11c0.312,0.533,0.197,1.477-0.556,1.667c-0.316,0.085-0.956-0.244-1.111-0.554
	c-0.155-0.312-0.121-0.886,0.556-1.113C14.444,6.41,12.834,12.337,19,12.653V16z"/>
<g>
</g>
<g>
</g>
<g>
</g>
<g>
</g>
<g>
</g>
<g>
</g>
<g>
</g>
<g>
</g>
<g>
</g>
<g>
</g>
<g>
</g>
<g>
</g>
<g>
</g>
<g>
</g>
<g>
</g>
</svg>
