<?xml version="1.0" encoding="iso-8859-1"?>
<!-- Generator: Adobe Illustrator 16.0.4, SVG Export Plug-In . SVG Version: 6.00 Build 0)  -->
<!DOCTYPE svg PUBLIC "-//W3C//DTD SVG 1.1//EN" "http://www.w3.org/Graphics/SVG/1.1/DTD/svg11.dtd">
<svg version="1.1" id="Capa_1" xmlns="http://www.w3.org/2000/svg" xmlns:xlink="http://www.w3.org/1999/xlink" x="0px" y="0px"
	 width="20px" height="17.633px" viewBox="0 0 20 17.633" style="enable-background:new 0 0 20 17.633;" xml:space="preserve">
<path style="fill:#010002;" d="M20,14.15h-0.025v3.482H0.014V14.15H0c0.688,0,1.144-0.389,1.503-1.26
	c0.006-0.025,0.014-0.045,0.026-0.066l0,0c0.035-0.053,0.088-0.088,0.146-0.088c0.063,0,0.113,0.035,0.146,0.088h0.006
	c0.001,0.01,0.004,0.012,0.008,0.02c0.006,0.014,0.011,0.021,0.016,0.035C2.21,13.76,2.663,14.15,3.356,14.15h0.003
	c0.688,0,1.145-0.389,1.504-1.26c0.005-0.025,0.013-0.045,0.025-0.066h0.002c0.033-0.053,0.085-0.088,0.147-0.088
	c0.061,0,0.112,0.035,0.146,0.088h0.003c0.001,0.01,0.005,0.012,0.008,0.02c0.006,0.014,0.011,0.021,0.015,0.035
	c0.354,0.861,0.798,1.25,1.465,1.266c0.665-0.016,1.109-0.402,1.461-1.254c0.007-0.025,0.017-0.045,0.027-0.066l0,0
	c0.036-0.053,0.086-0.088,0.146-0.088c0.06,0,0.111,0.035,0.148,0.088h0.001c0.003,0.01,0.006,0.012,0.008,0.02
	c0.006,0.014,0.014,0.021,0.018,0.035C8.843,13.76,9.295,14.15,9.99,14.15h0.005c0.688,0,1.141-0.389,1.499-1.26
	c0.007-0.025,0.017-0.045,0.027-0.066l0,0c0.035-0.053,0.086-0.088,0.146-0.088s0.113,0.035,0.148,0.088h0.001
	c0.003,0.01,0.008,0.012,0.01,0.02c0.006,0.014,0.012,0.021,0.016,0.035c0.354,0.867,0.8,1.256,1.475,1.268
	c0.67-0.012,1.115-0.4,1.471-1.256c0.005-0.025,0.014-0.045,0.026-0.066l0,0c0.035-0.053,0.085-0.088,0.146-0.088
	c0.062,0,0.114,0.035,0.146,0.088h0.004c0.002,0.01,0.006,0.012,0.011,0.02c0.004,0.014,0.009,0.021,0.014,0.035
	c0.358,0.881,0.812,1.271,1.506,1.271h0.005c0.689,0,1.143-0.389,1.501-1.26c0.006-0.025,0.015-0.045,0.027-0.066l0,0
	c0.035-0.053,0.087-0.088,0.147-0.088c0.062,0,0.113,0.035,0.146,0.088h0.002c0.004,0.01,0.007,0.012,0.012,0.02
	c0.003,0.014,0.009,0.021,0.012,0.035C18.854,13.76,19.307,14.15,20,14.15z M16.174,8.588c0,0.264-0.047,0.512-0.15,0.74
	c-0.104,0.23-0.238,0.428-0.412,0.598c-0.168,0.176-0.373,0.312-0.605,0.412c-0.236,0.104-0.486,0.154-0.754,0.154h-0.191v0.418
	c0,0.277-0.09,0.504-0.275,0.684c-0.184,0.18-0.41,0.266-0.676,0.266H8.805c-0.266,0-0.492-0.086-0.674-0.266
	c-0.184-0.18-0.279-0.406-0.279-0.684V6.664h6.4c0.268,0,0.518,0.051,0.754,0.152c0.232,0.102,0.438,0.236,0.605,0.408
	c0.174,0.17,0.309,0.375,0.412,0.607C16.127,8.07,16.174,8.318,16.174,8.588z M15.416,8.588c0-0.332-0.111-0.605-0.336-0.832
	c-0.225-0.219-0.498-0.328-0.828-0.328h-0.191v2.301h0.191c0.33,0,0.604-0.111,0.828-0.334S15.416,8.904,15.416,8.588z
	 M11.687,4.109C11.656,1.877,9.957,0.01,7.777,0C5.58,0.01,3.867,1.904,3.861,4.162v7.676h1.387V4.162
	C5.25,2.6,6.43,1.389,7.777,1.389c1.328,0,2.496,1.186,2.522,2.721H9.223l1.809,1.811l1.811-1.811H11.687z"/>
<g>
</g>
<g>
</g>
<g>
</g>
<g>
</g>
<g>
</g>
<g>
</g>
<g>
</g>
<g>
</g>
<g>
</g>
<g>
</g>
<g>
</g>
<g>
</g>
<g>
</g>
<g>
</g>
<g>
</g>
</svg>
