<?xml version="1.0" encoding="iso-8859-1"?>
<!-- Generator: Adobe Illustrator 16.0.4, SVG Export Plug-In . SVG Version: 6.00 Build 0)  -->
<!DOCTYPE svg PUBLIC "-//W3C//DTD SVG 1.1//EN" "http://www.w3.org/Graphics/SVG/1.1/DTD/svg11.dtd">
<svg version="1.1" id="Capa_1" xmlns="http://www.w3.org/2000/svg" xmlns:xlink="http://www.w3.org/1999/xlink" x="0px" y="0px"
	 width="12.574px" height="15px" viewBox="0 0 12.574 15" style="enable-background:new 0 0 12.574 15;" xml:space="preserve">
<g>
	<path style="fill:#010002;" d="M3.14,0v2.695H0.445v10.276l-0.333,0.304c-0.139,0.125-0.149,0.342-0.023,0.48l0.356,0.394v0.676
		h0.611l0.058,0.063c0.125,0.14,0.34,0.149,0.479,0.023l0.096-0.087h8.191v-2.696h2.695V0H3.14z M2.232,14.331l2.232-2.026
		c0.139-0.126,0.148-0.344,0.023-0.481L3.462,10.69c-0.125-0.139-0.342-0.148-0.48-0.023l-2.043,1.855V3.189h8.446v2.297
		c0,0,0,0,0,0.002C8.731,4.935,7.896,4.589,6.973,4.589c-2.077,0-3.76,1.685-3.76,3.76c0,2.077,1.684,3.761,3.76,3.761
		c0.923,0,1.758-0.346,2.412-0.897v3.119H2.232z M6.973,11.092c-1.514,0-2.741-1.228-2.741-2.743c0-1.513,1.227-2.741,2.741-2.741
		c1.515,0,2.742,1.229,2.742,2.741C9.714,9.864,8.487,11.092,6.973,11.092z M12.08,11.635H9.879V10.71c0,0-0.001,0-0.001,0.002
		c0.527-0.648,0.856-1.464,0.856-2.363c0-0.897-0.328-1.712-0.854-2.358V2.695H3.634V0.494h8.446V11.635z"/>
</g>
<g>
</g>
<g>
</g>
<g>
</g>
<g>
</g>
<g>
</g>
<g>
</g>
<g>
</g>
<g>
</g>
<g>
</g>
<g>
</g>
<g>
</g>
<g>
</g>
<g>
</g>
<g>
</g>
<g>
</g>
</svg>
