<?xml version="1.0" encoding="iso-8859-1"?>
<!-- Generator: Adobe Illustrator 16.0.4, SVG Export Plug-In . SVG Version: 6.00 Build 0)  -->
<!DOCTYPE svg PUBLIC "-//W3C//DTD SVG 1.1//EN" "http://www.w3.org/Graphics/SVG/1.1/DTD/svg11.dtd">
<svg version="1.1" id="Capa_1" xmlns="http://www.w3.org/2000/svg" xmlns:xlink="http://www.w3.org/1999/xlink" x="0px" y="0px"
	 width="20px" height="20px" viewBox="0 0 20 20" style="enable-background:new 0 0 20 20;" xml:space="preserve">
<path style="fill:#010002;" d="M13.592,5.195H7.347V2.994h8.446v11.141h-2.201V13.21c0,0-0.001,0-0.001,0.002
	c0.527-0.648,0.856-1.464,0.856-2.363c0-0.897-0.328-1.712-0.854-2.358V5.195z M20,4v12c0,2.2-1.8,4-4,4H4c-2.2,0-4-1.8-4-4V4
	c0-2.2,1.8-4,4-4h12C18.2,0,20,1.8,20,4z M16.287,2.5H6.853v2.695H4.158v10.276l-0.333,0.304c-0.139,0.125-0.149,0.342-0.023,0.48
	l0.356,0.394v0.676h0.611l0.058,0.063c0.125,0.14,0.34,0.149,0.479,0.023L5.4,17.325h8.191v-2.696h2.695V2.5z M10.686,8.107
	c-1.514,0-2.741,1.229-2.741,2.741c0,1.516,1.227,2.743,2.741,2.743c1.515,0,2.742-1.228,2.742-2.743
	C13.427,9.336,12.2,8.107,10.686,8.107z M6.925,10.849c0-2.075,1.684-3.76,3.76-3.76c0.924,0,1.758,0.346,2.413,0.899
	c0-0.002,0-0.002,0-0.002V5.689H4.652v9.333l2.043-1.855c0.139-0.125,0.355-0.115,0.48,0.023L8.2,14.323
	c0.125,0.138,0.116,0.355-0.023,0.481l-2.232,2.026h7.153v-3.119c-0.654,0.552-1.489,0.897-2.412,0.897
	C8.609,14.609,6.925,12.926,6.925,10.849z"/>
<g>
</g>
<g>
</g>
<g>
</g>
<g>
</g>
<g>
</g>
<g>
</g>
<g>
</g>
<g>
</g>
<g>
</g>
<g>
</g>
<g>
</g>
<g>
</g>
<g>
</g>
<g>
</g>
<g>
</g>
</svg>
