<?xml version="1.0" encoding="iso-8859-1"?>
<!-- Generator: Adobe Illustrator 16.0.4, SVG Export Plug-In . SVG Version: 6.00 Build 0)  -->
<!DOCTYPE svg PUBLIC "-//W3C//DTD SVG 1.1//EN" "http://www.w3.org/Graphics/SVG/1.1/DTD/svg11.dtd">
<svg version="1.1" id="Capa_1" xmlns="http://www.w3.org/2000/svg" xmlns:xlink="http://www.w3.org/1999/xlink" x="0px" y="0px"
	 width="20px" height="20px" viewBox="0 0 20 20" style="enable-background:new 0 0 20 20;" xml:space="preserve">
<path style="fill:#010002;" d="M16,0H4C1.8,0,0,1.8,0,4v12c0,2.2,1.8,4,4,4h12c2.2,0,4-1.8,4-4V4C20,1.8,18.2,0,16,0z M11.845,2.5
	l2.69,0.693l-0.216,2.039h-2.475H9.369L9.153,3.193L11.845,2.5z M14.455,6.432c0,1.442-1.168,2.609-2.608,2.609h-0.002
	c-0.002,0-0.002,0-0.004,0c-1.438,0-2.607-1.167-2.607-2.609c0-0.279,0.056-0.545,0.136-0.796h2.476h2.475
	C14.401,5.887,14.455,6.152,14.455,6.432z M15.1,17.5l-0.372-3.837L14.608,17.5H9.084c0,0-0.084-4.393-0.092-4.502l-4.593,4.236
	c-0.147,0.147-0.341,0.221-0.534,0.221c-0.192,0-0.385-0.073-0.532-0.221c-0.295-0.295-0.295-0.772,0-1.067
	c0,0,4.826-5.801,6.129-6.211c0.752-0.237,1.251-0.304,2.136-0.304h0.247h0.254c2.433,0,3.425,0.796,4.065,2.104
	c0.188,0.384,0.495,3.352,0.724,5.744H15.1z M13.576,10.006c0.415,0.084,0.759,0.21,1.052,0.367l-3.966,7.092H9.406L13.576,10.006z"
	/>
<g>
</g>
<g>
</g>
<g>
</g>
<g>
</g>
<g>
</g>
<g>
</g>
<g>
</g>
<g>
</g>
<g>
</g>
<g>
</g>
<g>
</g>
<g>
</g>
<g>
</g>
<g>
</g>
<g>
</g>
</svg>
