<?xml version="1.0" encoding="iso-8859-1"?>
<!-- Generator: Adobe Illustrator 16.0.4, SVG Export Plug-In . SVG Version: 6.00 Build 0)  -->
<!DOCTYPE svg PUBLIC "-//W3C//DTD SVG 1.1//EN" "http://www.w3.org/Graphics/SVG/1.1/DTD/svg11.dtd">
<svg version="1.1" id="Capa_1" xmlns="http://www.w3.org/2000/svg" xmlns:xlink="http://www.w3.org/1999/xlink" x="0px" y="0px"
	 width="20px" height="20px" viewBox="0 0 20 20" style="enable-background:new 0 0 20 20;" xml:space="preserve">
<path style="fill:#010002;" d="M10,5.754V5.449c0-0.59-0.173-1.137-0.454-1.612C9.685,3.767,9.834,3.718,10,3.718
	c0.562,0,1.019,0.456,1.019,1.018S10.562,5.754,10,5.754z M20,4v12c0,2.2-1.8,4-4,4H4c-2.2,0-4-1.8-4-4V4c0-2.2,1.8-4,4-4h12
	C18.2,0,20,1.8,20,4z M16.482,13.574l-0.604-2.469l-1.836,1.756l0.557,0.162c-0.798,1.312-2.24,1.889-3.883,2.002v-6.65h1.523
	c0.128,0.128,0.304,0.206,0.498,0.206c0.387,0,0.702-0.313,0.702-0.701s-0.315-0.702-0.702-0.702c-0.194,0-0.37,0.079-0.498,0.207
	h-1.523V6.583c0.741-0.289,1.27-1.006,1.27-1.848c0-1.094-0.891-1.985-1.986-1.985c-0.399,0-0.77,0.121-1.081,0.324
	C8.353,2.568,7.615,2.25,6.801,2.25H5.199C3.44,2.25,2,3.69,2,5.449v1.602C2,8.81,3.44,10.25,5.199,10.25h1.602
	c1.095,0,2.065-0.559,2.643-1.404v6.176c-1.731-0.129-3.242-0.802-4-2.223l0.555-0.123l-1.717-1.872l-0.764,2.422l0.647-0.144
	c0.946,2.072,3.102,3.741,5.537,3.902l0.378,0.766l0.377-0.764c2.316-0.155,4.377-1.678,5.397-3.596L16.482,13.574z M9.6,5.449
	v1.602c0,1.543-1.256,2.799-2.799,2.799H5.199C3.656,9.85,2.4,8.594,2.4,7.051V5.449c0-1.543,1.256-2.799,2.799-2.799h1.602
	C8.344,2.65,9.6,3.906,9.6,5.449z M6.707,6.25l1.627-1.627L7.627,3.916L6,5.543L4.373,3.916L3.666,4.623L5.293,6.25L3.666,7.877
	l0.707,0.707L6,6.957l1.627,1.627l0.707-0.707L6.707,6.25z"/>
<g>
</g>
<g>
</g>
<g>
</g>
<g>
</g>
<g>
</g>
<g>
</g>
<g>
</g>
<g>
</g>
<g>
</g>
<g>
</g>
<g>
</g>
<g>
</g>
<g>
</g>
<g>
</g>
<g>
</g>
</svg>
