<?xml version="1.0" encoding="iso-8859-1"?>
<!-- Generator: Adobe Illustrator 16.0.4, SVG Export Plug-In . SVG Version: 6.00 Build 0)  -->
<!DOCTYPE svg PUBLIC "-//W3C//DTD SVG 1.1//EN" "http://www.w3.org/Graphics/SVG/1.1/DTD/svg11.dtd">
<svg version="1.1" id="Capa_1" xmlns="http://www.w3.org/2000/svg" xmlns:xlink="http://www.w3.org/1999/xlink" x="0px" y="0px"
	 width="20px" height="20px" viewBox="0 0 20 20" style="enable-background:new 0 0 20 20;" xml:space="preserve">
<path style="fill:#010002;" d="M10,5.504V5.199c0-0.59-0.173-1.137-0.454-1.612C9.685,3.517,9.834,3.468,10,3.468
	c0.562,0,1.019,0.456,1.019,1.018S10.562,5.504,10,5.504z M9.6,5.199v1.602C9.6,8.344,8.344,9.6,6.801,9.6H5.199
	C3.656,9.6,2.4,8.344,2.4,6.801V5.199C2.4,3.656,3.656,2.4,5.199,2.4h1.602C8.344,2.4,9.6,3.656,9.6,5.199z M8.754,4.836
	L8.047,4.129L5.366,6.811L3.953,5.398L3.246,6.105l2.12,2.119L8.754,4.836z M20,4v12c0,2.2-1.8,4-4,4H4c-2.2,0-4-1.8-4-4V4
	c0-2.2,1.8-4,4-4h12C18.2,0,20,1.8,20,4z M16.482,13.324l-0.604-2.469l-1.836,1.756l0.557,0.162
	c-0.798,1.312-2.24,1.889-3.883,2.002v-6.65h1.523c0.128,0.128,0.304,0.206,0.498,0.206c0.387,0,0.702-0.313,0.702-0.701
	s-0.315-0.702-0.702-0.702c-0.194,0-0.37,0.079-0.498,0.207h-1.523V6.333c0.741-0.289,1.27-1.006,1.27-1.848
	C11.986,3.392,11.096,2.5,10,2.5c-0.399,0-0.77,0.121-1.081,0.324C8.353,2.318,7.615,2,6.801,2H5.199C3.44,2,2,3.44,2,5.199v1.602
	C2,8.56,3.44,10,5.199,10h1.602c1.095,0,2.065-0.559,2.643-1.404v6.176c-1.731-0.129-3.242-0.802-4-2.223l0.555-0.123l-1.717-1.872
	l-0.764,2.422l0.647-0.144c0.946,2.072,3.102,3.741,5.537,3.902L10.08,17.5l0.377-0.764c2.316-0.155,4.377-1.678,5.397-3.596
	L16.482,13.324z"/>
<g>
</g>
<g>
</g>
<g>
</g>
<g>
</g>
<g>
</g>
<g>
</g>
<g>
</g>
<g>
</g>
<g>
</g>
<g>
</g>
<g>
</g>
<g>
</g>
<g>
</g>
<g>
</g>
<g>
</g>
</svg>
