<?xml version="1.0" encoding="iso-8859-1"?>
<!-- Generator: Adobe Illustrator 16.0.4, SVG Export Plug-In . SVG Version: 6.00 Build 0)  -->
<!DOCTYPE svg PUBLIC "-//W3C//DTD SVG 1.1//EN" "http://www.w3.org/Graphics/SVG/1.1/DTD/svg11.dtd">
<svg version="1.1" id="Capa_1" xmlns="http://www.w3.org/2000/svg" xmlns:xlink="http://www.w3.org/1999/xlink" x="0px" y="0px"
	 width="12.662px" height="15px" viewBox="0 0 12.662 15" style="enable-background:new 0 0 12.662 15;" xml:space="preserve">
<path style="fill:#010002;" d="M11.34,6.89H1.322c0-1.696,1.375-3.07,3.07-3.07h0.859V0H7.41v3.819H8.27
	C9.965,3.819,11.34,5.193,11.34,6.89z M6.843,8.114V8.109c0-0.282-0.229-0.509-0.512-0.509S5.819,7.832,5.819,8.114
	c0,0.283,0.229,0.512,0.512,0.512S6.843,8.397,6.843,8.114z M6.843,12.368v-0.011c0-0.283-0.229-0.507-0.512-0.507
	s-0.512,0.234-0.512,0.518c0,0.282,0.229,0.512,0.512,0.512S6.843,12.65,6.843,12.368z M6.843,10.242V10.23
	c0-0.282-0.229-0.505-0.512-0.505s-0.512,0.233-0.512,0.517c0,0.282,0.229,0.512,0.512,0.512S6.843,10.524,6.843,10.242z
	 M6.843,14.488v-0.005c0-0.283-0.229-0.51-0.512-0.51s-0.512,0.232-0.512,0.515C5.819,14.771,6.048,15,6.331,15
	S6.843,14.771,6.843,14.488z M12.34,14.389c0.264-0.105,0.39-0.403,0.285-0.665l-0.004-0.01c-0.104-0.263-0.4-0.388-0.662-0.279
	c-0.264,0.104-0.388,0.407-0.283,0.669c0.08,0.2,0.271,0.322,0.475,0.322C12.213,14.426,12.278,14.413,12.34,14.389z M11.634,12.457
	c0.263-0.104,0.39-0.402,0.285-0.664l-0.004-0.011c-0.105-0.263-0.402-0.389-0.663-0.279c-0.263,0.104-0.388,0.407-0.282,0.669
	c0.079,0.2,0.271,0.322,0.475,0.322C11.507,12.494,11.572,12.482,11.634,12.457z M10.885,10.541
	c0.271-0.081,0.424-0.366,0.343-0.637l-0.003-0.01c-0.081-0.271-0.363-0.419-0.636-0.338c-0.27,0.081-0.423,0.37-0.341,0.642
	c0.065,0.222,0.27,0.364,0.489,0.364C10.786,10.562,10.835,10.556,10.885,10.541z M10.222,8.594c0.263-0.104,0.39-0.402,0.285-0.664
	l-0.004-0.01c-0.104-0.262-0.401-0.388-0.663-0.28C9.577,7.745,9.452,8.048,9.558,8.31c0.08,0.199,0.271,0.321,0.475,0.321
	C10.095,8.631,10.16,8.619,10.222,8.594z M9.325,14.717c0.278-0.055,0.458-0.324,0.402-0.602l-0.002-0.01
	c-0.056-0.277-0.327-0.454-0.601-0.396c-0.278,0.055-0.457,0.33-0.4,0.606c0.049,0.244,0.262,0.412,0.5,0.412
	C9.259,14.728,9.293,14.725,9.325,14.717z M8.96,12.693c0.281-0.028,0.486-0.279,0.458-0.561l-0.001-0.01
	c-0.027-0.28-0.277-0.485-0.559-0.452c-0.282,0.027-0.487,0.283-0.458,0.564c0.026,0.264,0.249,0.461,0.508,0.461
	C8.925,12.696,8.943,12.695,8.96,12.693z M8.693,10.653c0.277-0.055,0.457-0.324,0.401-0.602l-0.002-0.01
	C9.038,9.765,8.768,9.59,8.492,9.646c-0.277,0.055-0.456,0.329-0.4,0.606c0.049,0.244,0.262,0.411,0.5,0.411
	C8.626,10.663,8.66,10.66,8.693,10.653z M8.377,8.621C8.655,8.566,8.835,8.297,8.779,8.02L8.777,8.01
	c-0.056-0.277-0.33-0.454-0.601-0.396C7.898,7.668,7.72,7.942,7.776,8.22c0.049,0.243,0.262,0.411,0.5,0.411
	C8.311,8.631,8.345,8.628,8.377,8.621z M0.986,14.104l0.004-0.01c0.105-0.262-0.023-0.555-0.287-0.659
	c-0.259-0.105-0.562,0.026-0.666,0.289c-0.104,0.262,0.021,0.56,0.285,0.665c0.062,0.024,0.127,0.037,0.189,0.037
	C0.715,14.426,0.906,14.304,0.986,14.104z M1.692,12.172l0.004-0.01c0.105-0.262-0.023-0.555-0.286-0.659
	c-0.26-0.105-0.562,0.026-0.667,0.29c-0.104,0.262,0.022,0.56,0.285,0.664c0.062,0.025,0.127,0.037,0.189,0.037
	C1.421,12.494,1.613,12.372,1.692,12.172z M2.414,10.198l0.003-0.011c0.082-0.271-0.074-0.55-0.344-0.631
	C1.798,9.471,1.515,9.633,1.435,9.904c-0.081,0.271,0.072,0.556,0.343,0.637c0.05,0.015,0.099,0.021,0.147,0.021
	C2.145,10.562,2.349,10.42,2.414,10.198z M3.104,8.31L3.108,8.3c0.105-0.263-0.023-0.555-0.286-0.66
	C2.564,7.534,2.261,7.667,2.155,7.93C2.051,8.191,2.178,8.489,2.44,8.594C2.502,8.619,2.567,8.631,2.63,8.631
	C2.833,8.631,3.024,8.509,3.104,8.31z M3.938,14.315l0.003-0.01c0.056-0.277-0.125-0.542-0.403-0.597
	c-0.275-0.057-0.546,0.129-0.603,0.406c-0.056,0.277,0.124,0.547,0.402,0.602c0.032,0.008,0.066,0.011,0.101,0.011
	C3.676,14.728,3.889,14.56,3.938,14.315z M4.262,12.235l0.001-0.01c0.029-0.281-0.177-0.527-0.459-0.555
	c-0.28-0.033-0.531,0.182-0.56,0.462c-0.028,0.281,0.177,0.532,0.458,0.561c0.017,0.002,0.035,0.003,0.052,0.003
	C4.013,12.696,4.235,12.499,4.262,12.235z M4.57,10.252l0.002-0.01C4.628,9.965,4.447,9.7,4.17,9.646
	c-0.271-0.061-0.547,0.129-0.603,0.406s0.124,0.547,0.401,0.602c0.033,0.007,0.067,0.01,0.102,0.01
	C4.309,10.663,4.521,10.496,4.57,10.252z M4.886,8.22l0.003-0.011c0.056-0.276-0.125-0.541-0.403-0.596
	C4.213,7.556,3.938,7.743,3.883,8.02C3.827,8.297,4.007,8.566,4.285,8.621c0.032,0.007,0.066,0.01,0.101,0.01
	C4.624,8.631,4.837,8.463,4.886,8.22z"/>
<g>
</g>
<g>
</g>
<g>
</g>
<g>
</g>
<g>
</g>
<g>
</g>
<g>
</g>
<g>
</g>
<g>
</g>
<g>
</g>
<g>
</g>
<g>
</g>
<g>
</g>
<g>
</g>
<g>
</g>
</svg>
