<?xml version="1.0" encoding="iso-8859-1"?>
<!-- Generator: Adobe Illustrator 16.0.4, SVG Export Plug-In . SVG Version: 6.00 Build 0)  -->
<!DOCTYPE svg PUBLIC "-//W3C//DTD SVG 1.1//EN" "http://www.w3.org/Graphics/SVG/1.1/DTD/svg11.dtd">
<svg version="1.1" id="Capa_1" xmlns="http://www.w3.org/2000/svg" xmlns:xlink="http://www.w3.org/1999/xlink" x="0px" y="0px"
	 width="9.996px" height="16.999px" viewBox="0 0 9.996 16.999" style="enable-background:new 0 0 9.996 16.999;"
	 xml:space="preserve">
<path style="fill:#010002;" d="M9.742,4.145H7.198c-0.146,0-0.259,0.116-0.259,0.258V4.62c0,0.145,0.113,0.258,0.259,0.258h0.09
	c-0.005,0,0.019,0.006,0.019,0.018C7.333,4.971,7.39,5.022,7.454,5.052c0,0.133,0,0.316,0,0.527L5.206,5.581L2.587,4.052
	c-0.44-0.234-0.882-0.284-1.323-0.15c-0.5,0.152-0.858,0.43-1.072,0.834C0.057,4.983-0.003,5.237,0.014,5.49
	C0.005,5.732,0,10.231,0,10.275c0,0.83,0.656,1.493,1.479,1.528l0.021,0.005c0.015,0,0.026,0.009,0.04,0.009
	c0.017,0,0.028-0.009,0.043-0.009h3.42v4.245c0,0.258,0.09,0.481,0.282,0.67C5.476,16.911,5.713,16.999,6,16.999
	c0.256,0,0.493-0.088,0.686-0.275c0.201-0.188,0.309-0.412,0.309-0.67c0,0,0.005-5.318,0-5.357v-0.018H6.991
	c-0.028-0.203-0.1-0.394-0.254-0.55c-0.185-0.202-0.41-0.311-0.668-0.311H3.458l0.019-3.407c0,0,1.544,0.811,1.582,0.808
	c0.03-0.003,1.539-0.006,2.396-0.024c0,1.175,0,2.441,0,2.951c0,1.069,0.367,2.236,0.367,2.241c0.145,0.532,0.152,0.7,0.152,0.72
	c0,0.021,0,0.025,0.005,0.03c-0.005,0.002-0.013,2.659-0.013,3.214c0,0.492,0.186,0.638,0.325,0.638h0.368
	c0.14,0,0.308-0.147,0.308-0.638c0-0.559,0-3.239,0-3.239l-0.071-0.005l0.069,0.004c0-0.019,0.002-0.184,0.151-0.727
	c0-0.002,0.37-1.169,0.37-2.238c0-0.896,0-4.146,0-5.094c0.057-0.029,0.111-0.075,0.14-0.146c-0.002,0,0.003-0.009,0.013-0.017
	c0.002-0.006,0.014-0.015,0.014-0.012h0.09c0.146,0,0.254-0.117,0.254-0.258V4.402C9.996,4.263,9.888,4.145,9.742,4.145z
	 M9.028,10.146c0,1.037-0.36,2.192-0.36,2.195l0.074,0.021l-0.074-0.02c-0.025,0.119-0.106,0.285-0.104,0.29
	c-0.03,0.021-0.063,0.033-0.102,0.036c-0.023-0.003-0.06-0.016-0.085-0.036c-0.015,0.001-0.079-0.171-0.107-0.29
	c0-0.005-0.362-1.16-0.362-2.197c0-0.265,0-0.737,0-1.291c0.023,0.004,0.05,0.008,0.073,0.008h0.978c0.025,0,0.05-0.004,0.07-0.006
	C9.028,9.408,9.028,9.881,9.028,10.146z M9.028,8.195c-0.021-0.007-0.045-0.011-0.07-0.011H7.98c-0.023,0-0.05,0.005-0.073,0.011
	c0-0.335,0-0.681,0-1.019c0.05-0.004,0.106-0.008,0.118-0.011c0.216-0.032,0.387-0.165,0.508-0.394
	C8.638,6.578,8.654,6.366,8.58,6.131C8.477,5.903,8.341,5.743,8.168,5.652C8.102,5.616,8.014,5.592,7.907,5.58
	c0-0.187,0-0.36,0-0.485h1.121C9.028,5.675,9.028,7.008,9.028,8.195z M0.367,2.075C0.241,1.66,0.287,1.256,0.498,0.854
	C0.699,0.474,1.01,0.212,1.43,0.079s0.82-0.1,1.2,0.104c0.403,0.213,0.662,0.531,0.783,0.952c0.123,0.423,0.08,0.825-0.124,1.209
	C3.076,2.742,2.765,3.007,2.35,3.132c-0.412,0.127-0.82,0.084-1.219-0.131C0.747,2.797,0.493,2.489,0.367,2.075z"/>
<g>
</g>
<g>
</g>
<g>
</g>
<g>
</g>
<g>
</g>
<g>
</g>
<g>
</g>
<g>
</g>
<g>
</g>
<g>
</g>
<g>
</g>
<g>
</g>
<g>
</g>
<g>
</g>
<g>
</g>
</svg>
