<?xml version="1.0" encoding="iso-8859-1"?>
<!-- Generator: Adobe Illustrator 16.0.4, SVG Export Plug-In . SVG Version: 6.00 Build 0)  -->
<!DOCTYPE svg PUBLIC "-//W3C//DTD SVG 1.1//EN" "http://www.w3.org/Graphics/SVG/1.1/DTD/svg11.dtd">
<svg version="1.1" id="Capa_1" xmlns="http://www.w3.org/2000/svg" xmlns:xlink="http://www.w3.org/1999/xlink" x="0px" y="0px"
	 width="10.61px" height="15px" viewBox="0 0 10.61 15" style="enable-background:new 0 0 10.61 15;" xml:space="preserve">
<path style="fill:#010002;" d="M10.497,13.183c-0.124,0.265-0.356,0.431-0.619,0.493c0.122,0.24,0.152,0.525,0.031,0.79
	c-0.208,0.459-0.75,0.66-1.206,0.452c-0.461-0.209-0.663-0.75-0.452-1.208c0.007-0.02,0.026-0.03,0.035-0.05l-2.99-1.343
	l-3.028,1.259c0.01,0.019,0.026,0.03,0.033,0.049c0.197,0.464-0.019,1-0.485,1.197c-0.464,0.194-0.998-0.023-1.194-0.488
	c-0.113-0.269-0.075-0.552,0.054-0.788c-0.26-0.07-0.489-0.244-0.604-0.511c-0.194-0.464,0.021-1.001,0.487-1.194
	c0.464-0.196,0.998,0.021,1.194,0.484c0.007,0.02,0.005,0.04,0.012,0.059l1.912-0.795L1.788,10.74
	c-0.007,0.019-0.005,0.04-0.014,0.059c-0.208,0.458-0.75,0.66-1.208,0.452c-0.457-0.209-0.658-0.75-0.45-1.209
	c0.122-0.265,0.356-0.429,0.618-0.494C0.61,9.309,0.58,9.023,0.701,8.759C0.91,8.3,1.451,8.099,1.91,8.307s0.661,0.749,0.45,1.208
	c-0.007,0.02-0.026,0.031-0.033,0.048l2.991,1.346l3.026-1.259c-0.01-0.02-0.026-0.03-0.035-0.05c-0.195-0.467,0.021-1,0.487-1.196
	C9.258,8.208,9.792,8.424,9.989,8.89c0.113,0.268,0.075,0.554-0.056,0.79c0.262,0.069,0.492,0.24,0.606,0.511
	c0.194,0.463-0.021,0.997-0.487,1.193c-0.464,0.196-0.998-0.021-1.194-0.484c-0.009-0.019-0.005-0.04-0.012-0.059l-1.911,0.794
	l1.888,0.85c0.007-0.019,0.005-0.04,0.014-0.059c0.211-0.458,0.75-0.66,1.207-0.452C10.504,12.183,10.706,12.723,10.497,13.183z
	 M8.373,5.287C8.61,5.503,8.759,5.803,8.759,6.136c0,0.551-0.408,0.995-0.951,1.131v0.414c0,0.714-0.584,1.299-1.299,1.299H4.101
	c-0.715,0-1.299-0.585-1.299-1.299V7.269c-0.546-0.136-0.956-0.58-0.956-1.133c0-0.335,0.15-0.635,0.39-0.851
	C1.864,4.748,1.643,4.111,1.643,3.424C1.643,1.534,3.282,0,5.305,0c2.021,0,3.663,1.534,3.663,3.424
	C8.968,4.112,8.746,4.749,8.373,5.287z M4.701,3.673c0-0.541-0.454-0.979-1.012-0.979c-0.557,0-1.014,0.438-1.014,0.979
	s0.457,0.979,1.014,0.979C4.247,4.651,4.701,4.214,4.701,3.673z M6.363,6.553L5.38,4.891L4.361,6.586l1.009-0.49L6.363,6.553z
	 M7.933,3.673c0-0.541-0.455-0.979-1.012-0.979c-0.558,0-1.012,0.438-1.012,0.979s0.454,0.979,1.012,0.979
	C7.479,4.651,7.933,4.214,7.933,3.673z"/>
<g>
</g>
<g>
</g>
<g>
</g>
<g>
</g>
<g>
</g>
<g>
</g>
<g>
</g>
<g>
</g>
<g>
</g>
<g>
</g>
<g>
</g>
<g>
</g>
<g>
</g>
<g>
</g>
<g>
</g>
</svg>
