<?xml version="1.0" encoding="iso-8859-1"?>
<!-- Generator: Adobe Illustrator 16.0.4, SVG Export Plug-In . SVG Version: 6.00 Build 0)  -->
<!DOCTYPE svg PUBLIC "-//W3C//DTD SVG 1.1//EN" "http://www.w3.org/Graphics/SVG/1.1/DTD/svg11.dtd">
<svg version="1.1" id="Capa_1" xmlns="http://www.w3.org/2000/svg" xmlns:xlink="http://www.w3.org/1999/xlink" x="0px" y="0px"
	 width="20px" height="20px" viewBox="0 0 20 20" style="enable-background:new 0 0 20 20;" xml:space="preserve">
<path style="fill:#010002;" d="M10.604,6.173c0-0.541,0.454-0.979,1.012-0.979c0.557,0,1.012,0.438,1.012,0.979
	s-0.455,0.979-1.012,0.979C11.058,7.151,10.604,6.714,10.604,6.173z M0,16V4c0-2.2,1.8-4,4-4h12c2.2,0,4,1.8,4,4v12c0,2.2-1.8,4-4,4
	H4C1.8,20,0,18.2,0,16z M6.337,5.924c0,0.688,0.221,1.324,0.593,1.861c-0.239,0.216-0.39,0.516-0.39,0.851
	c0,0.553,0.41,0.997,0.956,1.133v0.412c0,0.714,0.584,1.299,1.299,1.299h2.408c0.715,0,1.299-0.585,1.299-1.299V9.767
	c0.542-0.136,0.951-0.58,0.951-1.131c0-0.333-0.149-0.633-0.387-0.849c0.374-0.538,0.595-1.175,0.595-1.863
	c0-1.89-1.642-3.424-3.663-3.424C7.977,2.5,6.337,4.034,6.337,5.924z M8.372,14.089l-1.912,0.795
	c-0.007-0.019-0.005-0.039-0.012-0.059c-0.197-0.463-0.73-0.681-1.194-0.484c-0.466,0.193-0.681,0.73-0.487,1.194
	c0.115,0.267,0.344,0.44,0.604,0.511c-0.128,0.236-0.167,0.52-0.054,0.788c0.197,0.465,0.73,0.683,1.194,0.488
	c0.466-0.197,0.682-0.733,0.485-1.197c-0.007-0.019-0.023-0.03-0.033-0.049l3.028-1.259l2.99,1.343
	c-0.009,0.02-0.028,0.03-0.035,0.05c-0.211,0.458-0.009,0.999,0.452,1.208c0.457,0.208,0.998,0.007,1.206-0.452
	c0.122-0.265,0.091-0.55-0.031-0.79c0.263-0.062,0.495-0.229,0.619-0.493c0.208-0.46,0.007-1-0.454-1.209
	c-0.457-0.208-0.996-0.006-1.207,0.452c-0.009,0.019-0.007,0.04-0.014,0.059l-1.888-0.85l1.911-0.794
	c0.007,0.019,0.003,0.04,0.012,0.059c0.197,0.464,0.73,0.681,1.194,0.484c0.466-0.196,0.681-0.73,0.487-1.193
	c-0.115-0.271-0.344-0.441-0.606-0.511c0.131-0.236,0.169-0.522,0.056-0.79c-0.197-0.466-0.73-0.682-1.194-0.486
	c-0.466,0.196-0.682,0.729-0.487,1.196c0.009,0.02,0.025,0.03,0.035,0.05l-3.026,1.259l-2.991-1.346
	c0.007-0.017,0.026-0.028,0.033-0.048c0.211-0.459,0.009-1-0.45-1.208s-1-0.007-1.208,0.452c-0.122,0.265-0.091,0.55,0.033,0.789
	c-0.262,0.065-0.497,0.229-0.618,0.494c-0.208,0.459-0.007,1,0.45,1.209c0.459,0.208,1,0.006,1.208-0.452
	c0.009-0.019,0.007-0.04,0.014-0.059L8.372,14.089z M10.065,8.596l0.993,0.457l-0.983-1.662L9.056,9.086L10.065,8.596z M8.384,7.151
	c0.558,0,1.012-0.438,1.012-0.979S8.942,5.193,8.384,5.193c-0.557,0-1.014,0.438-1.014,0.979S7.827,7.151,8.384,7.151z"/>
<g>
</g>
<g>
</g>
<g>
</g>
<g>
</g>
<g>
</g>
<g>
</g>
<g>
</g>
<g>
</g>
<g>
</g>
<g>
</g>
<g>
</g>
<g>
</g>
<g>
</g>
<g>
</g>
<g>
</g>
</svg>
