<?xml version="1.0" encoding="iso-8859-1"?>
<!-- Generator: Adobe Illustrator 16.0.4, SVG Export Plug-In . SVG Version: 6.00 Build 0)  -->
<!DOCTYPE svg PUBLIC "-//W3C//DTD SVG 1.1//EN" "http://www.w3.org/Graphics/SVG/1.1/DTD/svg11.dtd">
<svg version="1.1" id="Capa_1" xmlns="http://www.w3.org/2000/svg" xmlns:xlink="http://www.w3.org/1999/xlink" x="0px" y="0px"
	 width="20px" height="20px" viewBox="0 0 20 20" style="enable-background:new 0 0 20 20;" xml:space="preserve">
<path style="fill:#010002;" d="M16,0H4C1.8,0,0,1.8,0,4v12c0,2.2,1.8,4,4,4h12c2.2,0,4-1.8,4-4V4C20,1.8,18.2,0,16,0z M11.562,7.775
	c-0.194-0.115-0.294-0.242-0.222-0.284c0.072-0.042,0.289,0.018,0.48,0.133c0.192,0.114,0.588,0.071,0.88-0.097
	c0.293-0.168,0.293-0.444,0-0.614c-0.292-0.168-0.688-0.213-0.88-0.1c-0.191,0.115-0.408,0.175-0.48,0.133
	c-0.072-0.041,0.027-0.168,0.222-0.283c0.193-0.114,0.16-0.319-0.075-0.455c-0.236-0.136-0.4-0.298-0.365-0.359
	c0.034-0.062,0.255-0.001,0.49,0.135s0.431,0.062,0.435-0.162c0.002-0.225,0.062-0.376,0.132-0.335
	c0.069,0.042,0.125,0.258,0.124,0.484c-0.002,0.225,0.228,0.542,0.509,0.706s0.512,0.028,0.512-0.299
	c0-0.328-0.162-0.687-0.358-0.796c-0.198-0.111-0.357-0.269-0.356-0.349c0.002-0.081,0.163-0.058,0.359,0.051
	c0.195,0.109,0.355-0.024,0.355-0.293c0-0.271,0.056-0.492,0.124-0.492s0.125,0.223,0.125,0.496s0.16,0.403,0.356,0.291
	c0.194-0.113,0.354-0.136,0.354-0.051c0,0.084-0.16,0.242-0.354,0.351c-0.196,0.109-0.356,0.465-0.356,0.793
	c0,0.328,0.23,0.463,0.512,0.299s0.512-0.481,0.51-0.706c-0.001-0.226,0.054-0.442,0.123-0.484c0.068-0.041,0.128,0.11,0.133,0.335
	c0.003,0.224,0.197,0.297,0.433,0.162c0.234-0.136,0.455-0.197,0.491-0.135c0.034,0.061-0.13,0.223-0.365,0.359
	c-0.234,0.136-0.268,0.341-0.071,0.455c0.194,0.115,0.296,0.242,0.222,0.283c-0.071,0.042-0.29-0.018-0.483-0.133
	c-0.195-0.114-0.592-0.069-0.883,0.1c-0.291,0.17-0.291,0.446,0,0.614c0.291,0.167,0.688,0.211,0.883,0.097
	c0.193-0.116,0.412-0.175,0.483-0.133c0.074,0.042-0.027,0.169-0.222,0.284c-0.196,0.114-0.163,0.319,0.071,0.455
	c0.235,0.137,0.399,0.298,0.365,0.361c-0.036,0.061-0.257,0-0.491-0.135c-0.235-0.136-0.43-0.064-0.433,0.158
	c-0.005,0.224-0.064,0.374-0.133,0.334c-0.069-0.04-0.124-0.256-0.123-0.482c0.002-0.227-0.229-0.544-0.51-0.707
	c-0.281-0.163-0.512-0.029-0.512,0.298s0.16,0.685,0.356,0.793c0.194,0.11,0.354,0.27,0.354,0.354c0,0.084-0.16,0.062-0.354-0.05
	c-0.196-0.112-0.356,0.016-0.356,0.286c0,0.271-0.057,0.491-0.125,0.491s-0.124-0.219-0.124-0.488c0-0.268-0.16-0.398-0.355-0.289
	c-0.196,0.109-0.357,0.132-0.359,0.05c-0.001-0.082,0.158-0.24,0.356-0.351c0.196-0.111,0.358-0.469,0.358-0.796
	s-0.23-0.461-0.512-0.298c-0.281,0.163-0.511,0.48-0.509,0.707c0.001,0.227-0.055,0.443-0.124,0.482
	c-0.069,0.04-0.13-0.11-0.132-0.334c-0.004-0.222-0.199-0.294-0.435-0.158c-0.235,0.135-0.456,0.196-0.49,0.135
	c-0.035-0.062,0.129-0.224,0.365-0.361C11.722,8.094,11.755,7.889,11.562,7.775z M9.323,8.637l5.188,4.324v-1.297h0.433v2.161
	h-2.162v-0.432h1.297L8.892,9.07L9.323,8.637z M4.135,6.475c0.342,0.34,0.602,0.892,0.864,1.298C5.406,8.397,5.64,9.057,6.297,9.501
	c0.905,0.615,1.753,0.586,2.595,1.297c0.528,0.447,1.836,1.886,1.297,2.595c-2.314-0.295-3.187-1.549-3.892-2.162
	c-0.721-0.624-1.978-0.949-2.594-1.73C2.905,8.493,2.92,6.84,2.838,5.61C2.851,5.812,3.968,6.309,4.135,6.475z M16,19H4
	c-1.654,0-3-1.346-3-3V4.626L2.007,4.88c-0.796,6.198,3.425,6.351,3.425,6.351c3.242,4.145,5.621,2.594,5.621,2.594
	c0.245,0.225,4.06,3.718,5.575,5.106C16.425,18.975,16.216,19,16,19z"/>
<g>
</g>
<g>
</g>
<g>
</g>
<g>
</g>
<g>
</g>
<g>
</g>
<g>
</g>
<g>
</g>
<g>
</g>
<g>
</g>
<g>
</g>
<g>
</g>
<g>
</g>
<g>
</g>
<g>
</g>
</svg>
