<?xml version="1.0" encoding="iso-8859-1"?>
<!-- Generator: Adobe Illustrator 16.0.4, SVG Export Plug-In . SVG Version: 6.00 Build 0)  -->
<!DOCTYPE svg PUBLIC "-//W3C//DTD SVG 1.1//EN" "http://www.w3.org/Graphics/SVG/1.1/DTD/svg11.dtd">
<svg version="1.1" id="Capa_1" xmlns="http://www.w3.org/2000/svg" xmlns:xlink="http://www.w3.org/1999/xlink" x="0px" y="0px"
	 width="20px" height="20px" viewBox="0 0 20 20" style="enable-background:new 0 0 20 20;" xml:space="preserve">
<path style="fill:#010002;" d="M16,0H4C1.8,0,0,1.8,0,4v12c0,2.2,1.8,4,4,4h12c2.2,0,4-1.8,4-4V4C20,1.8,18.2,0,16,0z M13.329,3.427
	c0.972,0,1.759,0.787,1.759,1.761c0,0.971-0.787,1.758-1.759,1.758c-0.973,0-1.761-0.787-1.761-1.758
	C11.568,4.214,12.356,3.427,13.329,3.427z M9.346,2.5c0.716,0,1.297,0.582,1.297,1.298c0,0.509-0.297,0.945-0.725,1.157
	C9.68,4.642,9.307,4.437,8.882,4.437c-0.205,0-0.396,0.052-0.569,0.136C8.149,4.356,8.05,4.09,8.05,3.798
	C8.05,3.082,8.63,2.5,9.346,2.5z M8.882,4.723c0.563,0,1.021,0.457,1.021,1.019c0,0.562-0.457,1.02-1.021,1.02
	c-0.562,0-1.019-0.457-1.019-1.02C7.863,5.18,8.32,4.723,8.882,4.723z M7.274,5.615c0.107,0,0.211,0.014,0.312,0.036
	c-0.002,0.03-0.009,0.059-0.009,0.09c0,0.66,0.492,1.2,1.128,1.288c0,0.006,0.002,0.012,0.002,0.018
	c0,0.792-0.641,1.433-1.433,1.433c-0.791,0-1.432-0.641-1.432-1.433C5.843,6.256,6.483,5.615,7.274,5.615z M15.752,14.954
	c0,1.4-1.146,2.546-2.546,2.546H6.795c-1.4,0-2.547-1.146-2.547-2.546v-0.449c0.519,0.873,1.46,1.465,2.547,1.465h6.411
	c1.086,0,2.027-0.592,2.546-1.465V14.954z M15.752,12.999c0,1.4-1.146,2.547-2.546,2.547H6.795c-1.4,0-2.547-1.146-2.547-2.547
	v-0.984c0-1.4,1.146-2.546,2.547-2.546h6.411c1.4,0,2.546,1.146,2.546,2.546V12.999z"/>
<g>
</g>
<g>
</g>
<g>
</g>
<g>
</g>
<g>
</g>
<g>
</g>
<g>
</g>
<g>
</g>
<g>
</g>
<g>
</g>
<g>
</g>
<g>
</g>
<g>
</g>
<g>
</g>
<g>
</g>
</svg>
