<?xml version="1.0" encoding="iso-8859-1"?>
<!-- Generator: Adobe Illustrator 16.0.4, SVG Export Plug-In . SVG Version: 6.00 Build 0)  -->
<!DOCTYPE svg PUBLIC "-//W3C//DTD SVG 1.1//EN" "http://www.w3.org/Graphics/SVG/1.1/DTD/svg11.dtd">
<svg version="1.1" id="Capa_1" xmlns="http://www.w3.org/2000/svg" xmlns:xlink="http://www.w3.org/1999/xlink" x="0px" y="0px"
	 width="11.504px" height="15px" viewBox="0 0 11.504 15" style="enable-background:new 0 0 11.504 15;" xml:space="preserve">
<path style="fill:#010002;" d="M11.504,12.005v0.449c0,1.4-1.146,2.546-2.546,2.546H2.547C1.146,15,0,13.854,0,12.454v-0.449
	c0.519,0.873,1.46,1.465,2.547,1.465h6.411C10.044,13.47,10.985,12.878,11.504,12.005z M8.958,6.969H2.547
	C1.146,6.969,0,8.114,0,9.515v0.984c0,1.4,1.146,2.547,2.547,2.547h6.411c1.4,0,2.546-1.146,2.546-2.547V9.515
	C11.504,8.114,10.358,6.969,8.958,6.969 M9.081,0.927c-0.973,0-1.761,0.787-1.761,1.761c0,0.971,0.788,1.758,1.761,1.758
	c0.972,0,1.759-0.787,1.759-1.758C10.84,1.714,10.053,0.927,9.081,0.927z M6.395,1.298C6.395,0.582,5.813,0,5.098,0
	S3.802,0.582,3.802,1.298c0,0.292,0.1,0.559,0.263,0.774c0.173-0.084,0.364-0.136,0.569-0.136c0.425,0,0.798,0.205,1.036,0.519
	C6.098,2.243,6.395,1.807,6.395,1.298z M3.329,3.241c0-0.031,0.007-0.06,0.009-0.09C3.237,3.129,3.134,3.115,3.026,3.115
	c-0.791,0-1.432,0.641-1.432,1.432c0,0.792,0.641,1.433,1.432,1.433c0.792,0,1.433-0.641,1.433-1.433
	c0-0.006-0.002-0.012-0.002-0.018C3.821,4.441,3.329,3.901,3.329,3.241z M4.634,2.223c-0.562,0-1.019,0.457-1.019,1.019
	c0,0.562,0.457,1.02,1.019,1.02c0.563,0,1.021-0.457,1.021-1.02C5.654,2.68,5.197,2.223,4.634,2.223z"/>
<g>
</g>
<g>
</g>
<g>
</g>
<g>
</g>
<g>
</g>
<g>
</g>
<g>
</g>
<g>
</g>
<g>
</g>
<g>
</g>
<g>
</g>
<g>
</g>
<g>
</g>
<g>
</g>
<g>
</g>
</svg>
