<?xml version="1.0" encoding="iso-8859-1"?>
<!-- Generator: Adobe Illustrator 16.0.4, SVG Export Plug-In . SVG Version: 6.00 Build 0)  -->
<!DOCTYPE svg PUBLIC "-//W3C//DTD SVG 1.1//EN" "http://www.w3.org/Graphics/SVG/1.1/DTD/svg11.dtd">
<svg version="1.1" id="Capa_1" xmlns="http://www.w3.org/2000/svg" xmlns:xlink="http://www.w3.org/1999/xlink" x="0px" y="0px"
	 width="20px" height="20px" viewBox="0 0 20 20" style="enable-background:new 0 0 20 20;" xml:space="preserve">
<path style="fill:#010002;" d="M16,0H4C1.8,0,0,1.8,0,4v12c0,2.2,1.8,4,4,4h12c2.2,0,4-1.8,4-4V4C20,1.8,18.2,0,16,0z M14.361,5.882
	c0.892,0,1.619,0.725,1.619,1.62s-0.727,1.619-1.619,1.619c-0.898,0-1.623-0.724-1.623-1.619S13.463,5.882,14.361,5.882z
	 M6.352,5.504H8.88l0.274,1.367H6.077L6.352,5.504z M6.077,7.122h3.077c0.05,0.157,0.084,0.322,0.084,0.494
	c0,0.896-0.726,1.623-1.621,1.623c-0.721,0-1.327-0.474-1.539-1.124C6.254,7.88,6.232,7.562,6.04,7.346
	C6.055,7.272,6.055,7.192,6.077,7.122z M4.977,14.496l0.761-0.875l0.026,0.875H4.977z M9.639,14.496l-0.231-2.385l-0.075,2.385H5.9
	l-0.074-2.385c0,0-0.016-0.316-0.074-0.601l-2.78-0.033c-0.182-0.002-0.348-0.108-0.424-0.273c-0.082-0.165-0.056-0.362,0.059-0.504
	l0.167-0.207c0.013-0.032,0.035-0.063,0.057-0.093l2.393-2.951c0.163-0.206,0.466-0.236,0.669-0.07
	c0.205,0.165,0.236,0.464,0.07,0.67v0.003l-1.616,2.007l1.741-0.242C6.091,9.815,6.096,9.819,6.1,9.817
	c0.352-0.129,0.794-0.198,1.362-0.198h0.154h0.158c1.512,0,2.129,0.494,2.527,1.308c0.117,0.238,0.308,2.082,0.449,3.569H9.639z
	 M9.942,10.188C9.781,10.023,9.597,9.89,9.387,9.785l0.07-0.068l0.122,0.047l0.734-0.735l-0.259-0.257l0.125-0.123l0.254,0.255
	l0.164,0.162l0.771-0.774l-0.024-0.024l0.35-0.349l0.186,0.185l-0.345,0.351l-0.057-0.054l-0.772,0.775l0.054,0.053L9.942,10.188z
	 M16.39,14.496l-0.242-2.502l-0.076,2.502h-3.424l-0.076-2.502l-0.242,2.502h-1.109c0.14-1.505,0.338-3.444,0.458-3.689
	c0.398-0.812,1.014-1.304,2.526-1.304h0.157h0.154c1.512,0,2.129,0.491,2.525,1.304c0.12,0.245,0.319,2.185,0.459,3.689H16.39z
	 M8.692,9.839c0.257,0.052,0.471,0.13,0.653,0.229L6.88,14.475H6.1L8.692,9.839z"/>
<g>
</g>
<g>
</g>
<g>
</g>
<g>
</g>
<g>
</g>
<g>
</g>
<g>
</g>
<g>
</g>
<g>
</g>
<g>
</g>
<g>
</g>
<g>
</g>
<g>
</g>
<g>
</g>
<g>
</g>
</svg>
