<?xml version="1.0" encoding="iso-8859-1"?>
<!-- Generator: Adobe Illustrator 16.0.4, SVG Export Plug-In . SVG Version: 6.00 Build 0)  -->
<!DOCTYPE svg PUBLIC "-//W3C//DTD SVG 1.1//EN" "http://www.w3.org/Graphics/SVG/1.1/DTD/svg11.dtd">
<svg version="1.1" id="Capa_1" xmlns="http://www.w3.org/2000/svg" xmlns:xlink="http://www.w3.org/1999/xlink" x="0px" y="0px"
	 width="20px" height="20px" viewBox="0 0 20 20" style="enable-background:new 0 0 20 20;" xml:space="preserve">
<path style="fill:#010002;" d="M16,0H4C1.799,0,0,1.8,0,4v12c0,2.2,1.799,4,4,4h12c2.199,0,4-1.8,4-4V4C20,1.8,18.199,0,16,0z
	 M5.266,11.461V9.303h-1.09C3.254,9.303,2.5,8.549,2.5,7.626V4.278c0-0.923,0.754-1.677,1.676-1.677h7.074
	c0.922,0,1.676,0.754,1.676,1.677v3.348c0,0.923-0.754,1.677-1.676,1.677H7.424L5.266,11.461z M17.5,14.037
	c0,0.923-0.756,1.678-1.678,1.678h-0.496v1.684l-1.684-1.684h-2.598c-0.922,0-1.676-0.755-1.676-1.678v-1.872
	c0-0.922,0.754-1.677,1.676-1.677h4.777c0.922,0,1.678,0.755,1.678,1.677V14.037z"/>
<g>
</g>
<g>
</g>
<g>
</g>
<g>
</g>
<g>
</g>
<g>
</g>
<g>
</g>
<g>
</g>
<g>
</g>
<g>
</g>
<g>
</g>
<g>
</g>
<g>
</g>
<g>
</g>
<g>
</g>
</svg>
