<?xml version="1.0" encoding="iso-8859-1"?>
<!-- Generator: Adobe Illustrator 16.0.4, SVG Export Plug-In . SVG Version: 6.00 Build 0)  -->
<!DOCTYPE svg PUBLIC "-//W3C//DTD SVG 1.1//EN" "http://www.w3.org/Graphics/SVG/1.1/DTD/svg11.dtd">
<svg version="1.1" id="Capa_1" xmlns="http://www.w3.org/2000/svg" xmlns:xlink="http://www.w3.org/1999/xlink" x="0px" y="0px"
	 width="20px" height="20px" viewBox="0 0 20 20" style="enable-background:new 0 0 20 20;" xml:space="preserve">
<path style="fill:#010002;" d="M16.475,14.039h-3.992v-2.486h3.992V14.039z M16.475,14.348h-3.992v2.127h3.992V14.348z M16.475,6.32
	h-3.633h-0.359v2.129h3.992V6.32z M16.475,8.756h-3.992v2.49h3.992V8.756z M12.175,8.756h-4.35v2.49h4.35V8.756z M7.518,14.348
	H3.525v2.127h3.992V14.348z M7.518,11.553H3.525v2.486h3.992V11.553z M20,4v12c0,2.2-1.8,4-4,4H4c-2.2,0-4-1.8-4-4V4
	c0-2.2,1.8-4,4-4h12C18.2,0,20,1.8,20,4z M17.5,2.5h-15v15h15V2.5z M7.518,8.756H3.525v2.49h3.992V8.756z M12.175,11.553h-4.35
	v2.486h4.35V11.553z M12.175,14.348h-4.35v2.127h4.35V14.348z M7.518,6.32H7.158H3.525v2.129h3.992V6.32z M12.175,6.32h-0.358H8.184
	H7.825v2.129h4.35V6.32z"/>
<g>
</g>
<g>
</g>
<g>
</g>
<g>
</g>
<g>
</g>
<g>
</g>
<g>
</g>
<g>
</g>
<g>
</g>
<g>
</g>
<g>
</g>
<g>
</g>
<g>
</g>
<g>
</g>
<g>
</g>
</svg>
