<?xml version="1.0" encoding="iso-8859-1"?>
<!-- Generator: Adobe Illustrator 16.0.4, SVG Export Plug-In . SVG Version: 6.00 Build 0)  -->
<!DOCTYPE svg PUBLIC "-//W3C//DTD SVG 1.1//EN" "http://www.w3.org/Graphics/SVG/1.1/DTD/svg11.dtd">
<svg version="1.1" id="Capa_1" xmlns="http://www.w3.org/2000/svg" xmlns:xlink="http://www.w3.org/1999/xlink" x="0px" y="0px"
	 width="5.83px" height="15px" viewBox="0 0 5.83 15" style="enable-background:new 0 0 5.83 15;" xml:space="preserve">
<path style="fill:#010002;" d="M4.167,1.253c0,0.692-0.561,1.251-1.252,1.251S1.663,1.945,1.663,1.253S2.224,0,2.915,0
	S4.167,0.561,4.167,1.253z M5.82,7.691c0,0-0.657-3.193-0.97-3.834V3.855c0,0-0.001,0-0.001-0.002
	c-0.312-0.64-0.625-1.025-1.812-1.025H2.915H2.792c-1.187,0-1.499,0.386-1.812,1.025c0,0.002-0.001,0.002-0.001,0.002v0.002
	C0.667,4.498,0.01,7.691,0.01,7.691c-0.049,0.215,0.085,0.43,0.301,0.479c0.03,0.008,0.061,0.012,0.09,0.012
	c0.183,0,0.348-0.127,0.391-0.311L1.68,4.712l-0.863,5.28h0.832L1.907,14.7c0,0.165,0.135,0.3,0.297,0.3
	c0.17,0,0.304-0.135,0.304-0.3l0.256-4.708h0.151h0.151L3.322,14.7c0,0.165,0.134,0.3,0.304,0.3c0.162,0,0.297-0.135,0.297-0.3
	l0.259-4.708h0.831L4.15,4.712l0.889,3.159C5.082,8.055,5.247,8.182,5.43,8.182c0.029,0,0.06-0.004,0.09-0.012
	C5.735,8.121,5.869,7.906,5.82,7.691z"/>
<g>
</g>
<g>
</g>
<g>
</g>
<g>
</g>
<g>
</g>
<g>
</g>
<g>
</g>
<g>
</g>
<g>
</g>
<g>
</g>
<g>
</g>
<g>
</g>
<g>
</g>
<g>
</g>
<g>
</g>
</svg>
