<?xml version="1.0" encoding="iso-8859-1"?>
<!-- Generator: Adobe Illustrator 16.0.4, SVG Export Plug-In . SVG Version: 6.00 Build 0)  -->
<!DOCTYPE svg PUBLIC "-//W3C//DTD SVG 1.1//EN" "http://www.w3.org/Graphics/SVG/1.1/DTD/svg11.dtd">
<svg version="1.1" id="Capa_1" xmlns="http://www.w3.org/2000/svg" xmlns:xlink="http://www.w3.org/1999/xlink" x="0px" y="0px"
	 width="20px" height="20px" viewBox="0 0 20 20" style="enable-background:new 0 0 20 20;" xml:space="preserve">
<path style="fill:#010002;" d="M6.089,13.097c-0.369-0.17-0.742-0.253-1.065-0.253c-0.432,0-0.775,0.146-0.907,0.43l-0.468,1.008
	l3.114,1.44l0.465-1.008C7.46,14.218,6.948,13.495,6.089,13.097z M6.986,14.603l-0.354,0.767l-2.631-1.218l0.355-0.766
	c0.081-0.173,0.329-0.276,0.666-0.276c0.295,0,0.634,0.081,0.953,0.229c0.494,0.229,0.879,0.582,1.004,0.924
	C7.028,14.394,7.03,14.508,6.986,14.603z M16,0H4C1.8,0,0,1.8,0,4v12c0,2.2,1.8,4,4,4h12c2.2,0,4-1.8,4-4V4C20,1.8,18.2,0,16,0z
	 M13.182,2.519c0.772-0.127,1.498,0.396,1.625,1.167s-0.396,1.498-1.166,1.624c-0.771,0.127-1.497-0.396-1.623-1.167
	S12.412,2.645,13.182,2.519z M6.494,10.255c0.19-0.194,0.439-0.298,0.686-0.298c0.018,0.087,0.045,0.177,0.1,0.271
	c-0.167-0.03-0.342,0.021-0.491,0.131c0.149,0.058,0.31,0.125,0.475,0.202s0.319,0.154,0.459,0.23
	c-0.005-0.069-0.006-0.139-0.029-0.203c0-0.002-0.001-0.003-0.002-0.004c0.091,0.039,0.187,0.064,0.287,0.072
	c0.015,0.095,0.021,0.191,0.012,0.29c0.275,0.17,0.441,0.312,0.411,0.372l-0.858,1.579c-0.049,0.104-0.589-0.043-1.21-0.329
	c-0.617-0.287-1.082-0.604-1.032-0.71l0.648-1.676C5.977,10.122,6.189,10.156,6.494,10.255z M7.162,15.679
	c-0.054,0.114-0.107,0.232-0.164,0.354l-3.737-1.729c0.058-0.121,0.111-0.238,0.164-0.354l0.624-1.316
	c0.552-1.12,0.988-1.819,1.495-2.14l-0.492,1.27l-0.036,0.094l0.035,0.133c0.088,0.241,0.565,0.521,0.95,0.714l-0.057,0.122
	l0.438,0.202l0.057-0.122c0.289,0.123,0.737,0.292,1.006,0.292c0.218,0,0.306-0.116,0.338-0.186l0.644-1.184
	c0.084,0.594-0.166,1.378-0.664,2.524L7.162,15.679z M16.441,11.479c-0.287,0.169-0.648,0.09-0.824-0.191l-1.252-1.998l-0.289,1.567
	c-0.037,0.202,0.011,0.585,0.097,0.771l2.196,4.768c0.112,0.243,0.24,0.52,0.049,0.82c-0.113,0.176-0.31,0.284-0.519,0.284
	c0,0,0,0-0.001,0c-0.368,0-0.535-0.28-0.67-0.504l-2.714-4.563l-0.737,1.494c-0.171,0.35-0.513,0.847-0.777,1.13l-1.479,1.596
	c-0.193,0.207-0.345,0.369-0.627,0.369c-0.236,0-0.452-0.136-0.555-0.349c-0.173-0.36,0.037-0.621,0.223-0.851l1.46-1.811
	c0.157-0.194,0.363-0.591,0.433-0.832l0.542-1.896c0.079-0.278,0.17-0.773,0.193-1.061l0.241-2.912
	C10.248,7.702,9.09,9.247,8.698,9.894c-0.166,0.271-0.307,0.504-0.659,0.505H8.038c-0.216,0-0.418-0.115-0.528-0.303
	c-0.182-0.308-0.048-0.55,0.106-0.828c0.089-0.161,2.274-4.015,5.223-3.783c1.273,0.109,1.68,1.066,1.949,1.699
	c0.062,0.147,0.122,0.291,0.192,0.419l1.682,3.04C16.822,10.934,16.728,11.311,16.441,11.479z"/>
<g>
</g>
<g>
</g>
<g>
</g>
<g>
</g>
<g>
</g>
<g>
</g>
<g>
</g>
<g>
</g>
<g>
</g>
<g>
</g>
<g>
</g>
<g>
</g>
<g>
</g>
<g>
</g>
<g>
</g>
</svg>
