<?xml version="1.0" encoding="iso-8859-1"?>
<!-- Generator: Adobe Illustrator 16.0.4, SVG Export Plug-In . SVG Version: 6.00 Build 0)  -->
<!DOCTYPE svg PUBLIC "-//W3C//DTD SVG 1.1//EN" "http://www.w3.org/Graphics/SVG/1.1/DTD/svg11.dtd">
<svg version="1.1" id="Capa_1" xmlns="http://www.w3.org/2000/svg" xmlns:xlink="http://www.w3.org/1999/xlink" x="0px" y="0px"
	 width="20px" height="20px" viewBox="0 0 20 20" style="enable-background:new 0 0 20 20;" xml:space="preserve">
<path style="fill:#010002;" d="M4,20h12c2.2,0,4-1.8,4-4V4c0-2.2-1.8-4-4-4H4C1.8,0,0,1.8,0,4v12C0,18.2,1.8,20,4,20z M10.507,5.771
	l0.127-2.337l1.033,1.555L13.159,2.5l0.111,2.614l1.826-1.031l-0.95,2.283l2.186-0.571l-1.199,1.869l1.237,0.104l-2.085,1.745
	l0.945-1.319l-0.718-0.129l0.805-1.535l-1.637,0.208L14.09,5.17l-1.298,0.649L12.71,4.131l-0.956,1.493l-0.78-1.029l-0.196,1.707
	L9.556,5.447L9.543,7.45L9.265,4.734L10.507,5.771z M7.595,6.923c0.634,0,1.149,0.516,1.149,1.151c0,0.638-0.516,1.154-1.149,1.154
	c-0.638,0-1.155-0.517-1.155-1.154C6.439,7.438,6.957,6.923,7.595,6.923z M3.752,8.806c0.184-0.219,0.51-0.245,0.727-0.061
	l1.382,1.17c0,0,1.819-0.331,2.471-0.758s2.168-1.217,2.168-1.217c0.151-0.144,0.376-0.182,0.565-0.099l2.209,0.982
	c0.26,0.114,0.377,0.42,0.263,0.68c-0.116,0.262-0.421,0.378-0.682,0.264l-1.894-0.842l-0.836,0.41l1.244,1.009l2.592,1.598
	c0.226,0.038,0.399,0.22,0.426,0.446l0.319,2.642c0.033,0.283-0.168,0.541-0.451,0.574c-0.277,0.031-0.539-0.167-0.574-0.451
	l-0.272-2.259l-1.836-0.76l1.022,1.797c0.075,0.135,0.085,0.293,0.032,0.436l-1.081,2.8c-0.079,0.207-0.275,0.333-0.482,0.333
	c-0.062,0-0.123-0.011-0.184-0.034c-0.267-0.101-0.4-0.399-0.299-0.665l0.915-2.405l-1.28-1.709l-2.591-2.149l-1.732,0.445
	c-0.049,0.016-0.1,0.023-0.15,0.023c-0.12,0-0.24-0.042-0.334-0.121L3.812,9.533C3.595,9.349,3.568,9.022,3.752,8.806z"/>
<g>
</g>
<g>
</g>
<g>
</g>
<g>
</g>
<g>
</g>
<g>
</g>
<g>
</g>
<g>
</g>
<g>
</g>
<g>
</g>
<g>
</g>
<g>
</g>
<g>
</g>
<g>
</g>
<g>
</g>
</svg>
