<?xml version="1.0" encoding="iso-8859-1"?>
<!-- Generator: Adobe Illustrator 16.0.4, SVG Export Plug-In . SVG Version: 6.00 Build 0)  -->
<!DOCTYPE svg PUBLIC "-//W3C//DTD SVG 1.1//EN" "http://www.w3.org/Graphics/SVG/1.1/DTD/svg11.dtd">
<svg version="1.1" id="Capa_1" xmlns="http://www.w3.org/2000/svg" xmlns:xlink="http://www.w3.org/1999/xlink" x="0px" y="0px"
	 width="20px" height="20px" viewBox="0 0 20 20" style="enable-background:new 0 0 20 20;" xml:space="preserve">
<path style="fill:#010002;" d="M16,0H4C1.8,0,0,1.8,0,4v12c0,2.2,1.8,4,4,4h12c2.2,0,4-1.8,4-4V4C20,1.8,18.2,0,16,0z M9.669,5.106
	H7.622v7.854H6.927v0.671c0,0,0.045,0.203-0.314,0.309v3.271c0,0.16-0.129,0.29-0.289,0.29s-0.289-0.13-0.289-0.29v-3.271
	c-0.359-0.105-0.314-0.309-0.314-0.309V12.96H5.022V5.106H2.978c-0.156,0-0.285-0.127-0.285-0.284c0-0.156,0.129-0.284,0.285-0.284
	h2.594V3.079h-0.9c-0.16,0-0.289-0.13-0.289-0.289c0-0.16,0.129-0.29,0.289-0.29h3.303c0.16,0,0.291,0.13,0.291,0.29
	c0,0.159-0.131,0.289-0.291,0.289h-0.9v1.459h2.596c0.156,0,0.283,0.128,0.283,0.284C9.952,4.979,9.825,5.106,9.669,5.106z
	 M16.905,11.145l-0.002,5.303c-0.16,0.862-1.229,0.99-2.451,1.053c-1.227-0.062-2.293-0.19-2.457-1.053v-5.356
	c-0.17-0.151-0.285-0.342-0.326-0.583V9.06c0.162-0.932,1.396-1.117,2.82-1.18c1.354,0.045,2.461,0.248,2.779,1.009l0.012,0.039
	l0.002,0.039l0.025,1.541C17.261,10.78,17.114,10.983,16.905,11.145z M12.815,9.163c-0.197-0.068-0.348-0.148-0.436-0.219
	c0.268-0.222,1.096-0.455,2.051-0.455c0.02,0,0.039,0,0.059,0.002c0.621,0,1.188,0.084,1.592,0.21
	c0.256,0.075,0.402,0.173,0.496,0.251c-0.098,0.075-0.256,0.169-0.488,0.235c-0.406,0.13-0.971,0.216-1.594,0.216
	C13.829,9.403,13.228,9.302,12.815,9.163z M5.562,5.106h1.521v3.821H5.562V5.106z M16.685,9.603l0.014,0.907
	c0,0-0.002,0.03-0.088,0.102c-0.258,0.231-1.129,0.474-2.121,0.467c-0.666,0-1.266-0.095-1.68-0.239
	c-0.205-0.071-0.359-0.156-0.445-0.228c-0.088-0.073-0.088-0.104-0.088-0.104V9.582c0.525,0.289,1.324,0.389,2.219,0.427
	C15.384,9.98,16.161,9.88,16.685,9.603z M14.489,11.686c0.68-0.027,1.311-0.087,1.807-0.239v5.001c0,0,0.006,0.005-0.059,0.057
	c-0.205,0.182-0.943,0.396-1.785,0.385c-0.566,0.002-1.078-0.082-1.42-0.203c-0.172-0.055-0.301-0.128-0.367-0.182
	c-0.062-0.055-0.049-0.057-0.059-0.057v-1.072c0.807,0.319,1.824,0.269,1.824,0.269v-2.808c-0.846,0-1.486-0.242-1.824-0.404v-1.006
	C13.114,11.595,13.778,11.656,14.489,11.686z"/>
<g>
</g>
<g>
</g>
<g>
</g>
<g>
</g>
<g>
</g>
<g>
</g>
<g>
</g>
<g>
</g>
<g>
</g>
<g>
</g>
<g>
</g>
<g>
</g>
<g>
</g>
<g>
</g>
<g>
</g>
</svg>
