<?xml version="1.0" encoding="iso-8859-1"?>
<!-- Generator: Adobe Illustrator 16.0.4, SVG Export Plug-In . SVG Version: 6.00 Build 0)  -->
<!DOCTYPE svg PUBLIC "-//W3C//DTD SVG 1.1//EN" "http://www.w3.org/Graphics/SVG/1.1/DTD/svg11.dtd">
<svg version="1.1" id="Capa_1" xmlns="http://www.w3.org/2000/svg" xmlns:xlink="http://www.w3.org/1999/xlink" x="0px" y="0px"
	 width="15px" height="15px" viewBox="0 0 15 15" style="enable-background:new 0 0 15 15;" xml:space="preserve">
<path style="fill:#010002;" d="M0,0v15h15V0H0z M13.975,5.949H9.982V3.82h0.359h3.633V5.949z M9.675,8.746h-4.35v-2.49h4.35V8.746z
	 M5.325,5.949V3.82h0.358h3.633h0.358v2.129H5.325z M4.658,3.82h0.359v2.129H1.025V3.82H4.658z M5.018,6.256v2.49H1.025v-2.49H5.018
	z M1.025,9.053h3.992v2.486H1.025V9.053z M5.325,9.053h4.35v2.486h-4.35V9.053z M9.982,9.053h3.992v2.486H9.982V9.053z M9.982,8.746
	v-2.49h3.992v2.49H9.982z M1.025,13.975v-2.127h3.992v2.127H1.025z M5.325,13.975v-2.127h4.35v2.127H5.325z M9.982,11.848h3.992
	v2.127H9.982V11.848z"/>
<g>
</g>
<g>
</g>
<g>
</g>
<g>
</g>
<g>
</g>
<g>
</g>
<g>
</g>
<g>
</g>
<g>
</g>
<g>
</g>
<g>
</g>
<g>
</g>
<g>
</g>
<g>
</g>
<g>
</g>
</svg>
