<?xml version="1.0" encoding="iso-8859-1"?>
<!-- Generator: Adobe Illustrator 16.0.4, SVG Export Plug-In . SVG Version: 6.00 Build 0)  -->
<!DOCTYPE svg PUBLIC "-//W3C//DTD SVG 1.1//EN" "http://www.w3.org/Graphics/SVG/1.1/DTD/svg11.dtd">
<svg version="1.1" id="Capa_1" xmlns="http://www.w3.org/2000/svg" xmlns:xlink="http://www.w3.org/1999/xlink" x="0px" y="0px"
	 width="5.193px" height="15px" viewBox="0 0 5.193 15" style="enable-background:new 0 0 5.193 15;" xml:space="preserve">
<path style="fill:#010002;" d="M2.599,0C1.894,0,1.322,0.57,1.322,1.275c0,0.703,0.571,1.273,1.276,1.273
	c0.702,0,1.272-0.57,1.272-1.273C3.871,0.57,3.301,0,2.599,0z M4.705,3.873C4.393,3.234,3.908,2.846,2.719,2.846H2.597H2.475
	c-1.189,0-1.674,0.389-1.986,1.027C0.332,4.192,0.003,8.188,0.003,8.188c-0.025,0.236,0.146,0.447,0.381,0.471
	C0.399,8.66,0.414,8.66,0.43,8.66c0.217,0,0.403-0.163,0.425-0.383L1.19,4.806l0.083,2.695l-0.245,6.965
	c-0.018,0.274,0.189,0.515,0.464,0.532C1.507,15,1.518,15,1.527,15c0.262,0,0.482-0.201,0.502-0.465l0.567-5.736l0.567,5.736
	C3.184,14.799,3.404,15,3.666,15c0.01,0,0.021,0,0.035-0.002c0.274-0.018,0.481-0.258,0.464-0.532L3.92,7.501l0.083-2.695
	l0.336,3.472C4.36,8.497,4.547,8.66,4.764,8.66c0.016,0,0.03,0,0.046-0.002C5.045,8.635,5.216,8.424,5.19,8.188
	C5.19,8.188,4.861,4.192,4.705,3.873z"/>
<g>
</g>
<g>
</g>
<g>
</g>
<g>
</g>
<g>
</g>
<g>
</g>
<g>
</g>
<g>
</g>
<g>
</g>
<g>
</g>
<g>
</g>
<g>
</g>
<g>
</g>
<g>
</g>
<g>
</g>
</svg>
