<?xml version="1.0" encoding="iso-8859-1"?>
<!-- Generator: Adobe Illustrator 16.0.4, SVG Export Plug-In . SVG Version: 6.00 Build 0)  -->
<!DOCTYPE svg PUBLIC "-//W3C//DTD SVG 1.1//EN" "http://www.w3.org/Graphics/SVG/1.1/DTD/svg11.dtd">
<svg version="1.1" id="Capa_1" xmlns="http://www.w3.org/2000/svg" xmlns:xlink="http://www.w3.org/1999/xlink" x="0px" y="0px"
	 width="20px" height="20px" viewBox="0 0 20 20" style="enable-background:new 0 0 20 20;" xml:space="preserve">
<path style="fill:#010002;" d="M16,0H4C1.8,0,0,1.8,0,4v12c0,2.2,1.8,4,4,4h12c2.2,0,4-1.8,4-4V4C20,1.8,18.2,0,16,0z M4.526,15.82
	H2.5v-1.7h2.026V15.82z M7.77,15.82H5.742v-1.7H7.77V15.82z M11.014,15.82H8.986v-1.7h2.027V15.82z M10.284,9.997h-0.022
	c0,0-0.609,1.499-1.96,2.675H4.519l5.396-7.659L9.508,4.491l0.4-0.312l0.328,0.418V4.595l0.001,0.003l0.326-0.418l0.403,0.312
	l-0.406,0.521l4.948,7.649l-3.321,0.01C10.873,11.44,10.284,9.997,10.284,9.997z M14.258,15.82h-2.028v-1.7h2.028V15.82z
	 M17.5,15.82h-2.027v-1.7H17.5V15.82z"/>
<g>
</g>
<g>
</g>
<g>
</g>
<g>
</g>
<g>
</g>
<g>
</g>
<g>
</g>
<g>
</g>
<g>
</g>
<g>
</g>
<g>
</g>
<g>
</g>
<g>
</g>
<g>
</g>
<g>
</g>
</svg>
