<?xml version="1.0" encoding="iso-8859-1"?>
<!-- Generator: Adobe Illustrator 16.0.4, SVG Export Plug-In . SVG Version: 6.00 Build 0)  -->
<!DOCTYPE svg PUBLIC "-//W3C//DTD SVG 1.1//EN" "http://www.w3.org/Graphics/SVG/1.1/DTD/svg11.dtd">
<svg version="1.1" id="Capa_1" xmlns="http://www.w3.org/2000/svg" xmlns:xlink="http://www.w3.org/1999/xlink" x="0px" y="0px"
	 width="15px" height="12.738px" viewBox="0 0 15 12.738" style="enable-background:new 0 0 15 12.738;" xml:space="preserve">
<path style="fill:#010002;" d="M7.956,10.814l-1.584,0.713c-0.07,0.033-0.144,0.047-0.217,0.047s-0.141-0.031-0.206-0.059
	l-0.014,0.01l-0.02-0.02c-0.103-0.053-1.229-1.266-1.229-1.266L4.61,12.738H1.369L1.294,10.24l-0.242,2.498H0
	c0.132-1.441,0.329-3.383,0.445-3.623c0.379-0.77,0.962-1.238,2.396-1.238h0.148h0.146c1.436,0,1.71,0.422,2.397,1.238
	c0.508,0.604,0.519,0.713,0.876,1.238l1.113-0.502C7.785,9.73,8.102,9.85,8.222,10.117C8.341,10.383,8.223,10.695,7.956,10.814z
	 M14.571,3.529c-0.288-0.059-0.564,0.133-0.619,0.42l-0.715,3.715c0,0-0.076,0.445-0.495,0.33c-0.284-0.08-0.624-0.117-1.037-0.117
	H11.56h-0.146c-0.413,0-0.754,0.037-1.037,0.117c-0.419,0.115-0.496-0.33-0.496-0.33L9.167,3.949
	c-0.055-0.287-0.331-0.479-0.619-0.42C8.262,3.586,8.074,3.861,8.129,4.148c0,0,0.823,4.361,0.938,4.879
	c0.115,0.518,0.797,0.654,0.797,0.654l0.077,3.057h1.619h1.619l0.076-3.057c0,0,0.683-0.137,0.797-0.654
	c0.115-0.518,0.938-4.879,0.938-4.879C15.045,3.861,14.857,3.586,14.571,3.529z M2.989,7.516c0.849,0,1.536-0.686,1.536-1.535
	S3.838,4.443,2.989,4.443c-0.85,0-1.539,0.688-1.539,1.537S2.14,7.516,2.989,7.516z M11.562,7.516c0.846,0,1.535-0.686,1.535-1.535
	s-0.689-1.537-1.535-1.537c-0.851,0-1.54,0.688-1.54,1.537S10.712,7.516,11.562,7.516z M1.034,2.973L2.08,3.398l0.295-1.584
	L3.037,2.83L4.03,1.496L3.995,3.08l1.258-0.521L4.767,3.998l1.547-0.086L5.458,5.295L7.31,3.291L5.226,3.682l1.042-2.074
	L4.491,2.453L4.558,0l-1.56,2.23L2.132,0.705L1.86,2.885L0.284,2.254L1.16,4.316L1.034,2.973z"/>
<g>
</g>
<g>
</g>
<g>
</g>
<g>
</g>
<g>
</g>
<g>
</g>
<g>
</g>
<g>
</g>
<g>
</g>
<g>
</g>
<g>
</g>
<g>
</g>
<g>
</g>
<g>
</g>
<g>
</g>
</svg>
