<?xml version="1.0" encoding="iso-8859-1"?>
<!-- Generator: Adobe Illustrator 16.0.4, SVG Export Plug-In . SVG Version: 6.00 Build 0)  -->
<!DOCTYPE svg PUBLIC "-//W3C//DTD SVG 1.1//EN" "http://www.w3.org/Graphics/SVG/1.1/DTD/svg11.dtd">
<svg version="1.1" id="Capa_1" xmlns="http://www.w3.org/2000/svg" xmlns:xlink="http://www.w3.org/1999/xlink" x="0px" y="0px"
	 width="15px" height="10.213px" viewBox="0 0 15 10.213" style="enable-background:new 0 0 15 10.213;" xml:space="preserve">
<path style="fill:#010002;" d="M13.914,3.717l-1.24,1.527l1.24,1.527c0.167,0.205,0.135,0.506-0.068,0.672
	c-0.088,0.07-0.194,0.105-0.3,0.105c-0.138,0-0.274-0.059-0.369-0.176L12.061,6l-1.115,1.373c-0.093,0.117-0.23,0.176-0.37,0.176
	c-0.106,0-0.213-0.035-0.301-0.105c-0.204-0.166-0.234-0.467-0.069-0.672l1.241-1.527l-1.241-1.527
	c-0.165-0.205-0.135-0.504,0.069-0.672c0.204-0.166,0.507-0.135,0.671,0.07l1.115,1.373l1.115-1.373
	c0.166-0.205,0.465-0.236,0.669-0.07C14.049,3.213,14.081,3.512,13.914,3.717z M9.324,3.047c-0.204-0.168-0.506-0.135-0.67,0.07
	L7.539,4.49L6.424,3.117c-0.165-0.205-0.465-0.238-0.671-0.07C5.55,3.213,5.52,3.512,5.685,3.715l1.241,1.529L5.685,6.771
	C5.52,6.977,5.55,7.275,5.753,7.443c0.089,0.07,0.196,0.105,0.302,0.105c0.138,0,0.274-0.059,0.369-0.176L7.539,6l1.115,1.373
	c0.093,0.117,0.23,0.176,0.37,0.176c0.106,0,0.213-0.035,0.3-0.105c0.203-0.168,0.237-0.467,0.068-0.672L8.151,5.244l1.241-1.529
	C9.561,3.512,9.527,3.213,9.324,3.047z M4.691,3.045c-0.206-0.168-0.506-0.133-0.671,0.07L2.905,4.488L1.79,3.115
	c-0.166-0.203-0.465-0.238-0.668-0.07C0.915,3.211,0.885,3.512,1.053,3.717l1.239,1.527L1.053,6.771
	C0.885,6.977,0.915,7.277,1.122,7.443c0.087,0.07,0.194,0.105,0.299,0.105c0.138,0,0.274-0.059,0.369-0.176L2.905,6l1.115,1.373
	C4.115,7.49,4.25,7.549,4.389,7.549c0.106,0,0.213-0.035,0.302-0.105C4.895,7.277,4.925,6.977,4.76,6.771L3.519,5.244L4.76,3.717
	C4.925,3.512,4.895,3.211,4.691,3.045z M0.892,1.787h13.215c0.492,0,0.893-0.4,0.893-0.896C15,0.4,14.599,0,14.107,0H0.892
	C0.399,0,0,0.4,0,0.891C0,1.387,0.399,1.787,0.892,1.787z M14.107,8.426H0.892C0.399,8.426,0,8.828,0,9.32
	c0,0.49,0.399,0.893,0.892,0.893h13.215C14.599,10.213,15,9.811,15,9.32C15,8.828,14.599,8.426,14.107,8.426z"/>
<g>
</g>
<g>
</g>
<g>
</g>
<g>
</g>
<g>
</g>
<g>
</g>
<g>
</g>
<g>
</g>
<g>
</g>
<g>
</g>
<g>
</g>
<g>
</g>
<g>
</g>
<g>
</g>
<g>
</g>
</svg>
