<?xml version="1.0" encoding="iso-8859-1"?>
<!-- Generator: Adobe Illustrator 16.0.4, SVG Export Plug-In . SVG Version: 6.00 Build 0)  -->
<!DOCTYPE svg PUBLIC "-//W3C//DTD SVG 1.1//EN" "http://www.w3.org/Graphics/SVG/1.1/DTD/svg11.dtd">
<svg version="1.1" id="Capa_1" xmlns="http://www.w3.org/2000/svg" xmlns:xlink="http://www.w3.org/1999/xlink" x="0px" y="0px"
	 width="15px" height="13.076px" viewBox="0 0 15 13.076" style="enable-background:new 0 0 15 13.076;" xml:space="preserve">
<path style="fill:#010002;" d="M5.215,8.152l-0.284-0.16l1.218-1.271L6.43,6.883L5.215,8.152z M7.993,6.602L5.121,9.594l0.28,0.158
	l2.871-2.989L7.993,6.602z M14.628,4.192l0.018,0.002l-4.182,8.859L0,13.076l3.748-8.02c-0.957-0.15-1.446-1.277-1.461-2.516
	C2.303,1.248,2.829,0.064,3.871,0l9.532,0.002C13.406,0.002,13.409,0,13.412,0C14.456,0.064,14.981,1.248,15,2.541
	C14.991,3.153,14.865,3.736,14.628,4.192z M13.412,0.668c-0.174-0.004-0.397,0.135-0.595,0.478c-0.19,0.338-0.324,0.838-0.324,1.396
	c0,0.557,0.134,1.061,0.324,1.394c0.197,0.346,0.421,0.482,0.595,0.479c0.173,0.004,0.399-0.133,0.597-0.479
	c0.19-0.333,0.324-0.837,0.321-1.394c0.003-0.558-0.131-1.058-0.321-1.396C13.812,0.803,13.585,0.664,13.412,0.668z M3.871,4.413
	h8.462c-0.324-0.479-0.497-1.154-0.507-1.872c0.01-0.719,0.183-1.396,0.508-1.873H3.871C3.699,0.664,3.474,0.803,3.277,1.146
	C3.083,1.483,2.952,1.983,2.952,2.541c0,0.557,0.131,1.061,0.325,1.394C3.474,4.28,3.699,4.417,3.871,4.413z M13.467,5.071
	c-0.02,0.002-0.035,0.01-0.055,0.011H4.436l-3.24,7.322l8.899-0.017L13.467,5.071z M6.46,9.886l0.282,0.162l1.943-2.021l-0.281-0.16
	L6.46,9.886z"/>
<g>
</g>
<g>
</g>
<g>
</g>
<g>
</g>
<g>
</g>
<g>
</g>
<g>
</g>
<g>
</g>
<g>
</g>
<g>
</g>
<g>
</g>
<g>
</g>
<g>
</g>
<g>
</g>
<g>
</g>
</svg>
