<?xml version="1.0" encoding="iso-8859-1"?>
<!-- Generator: Adobe Illustrator 16.0.4, SVG Export Plug-In . SVG Version: 6.00 Build 0)  -->
<!DOCTYPE svg PUBLIC "-//W3C//DTD SVG 1.1//EN" "http://www.w3.org/Graphics/SVG/1.1/DTD/svg11.dtd">
<svg version="1.1" id="Capa_1" xmlns="http://www.w3.org/2000/svg" xmlns:xlink="http://www.w3.org/1999/xlink" x="0px" y="0px"
	 width="20px" height="20px" viewBox="0 0 20 20" style="enable-background:new 0 0 20 20;" xml:space="preserve">
<path style="fill:#010002;" d="M16,0H4C1.8,0,0,1.8,0,4v12c0,2.2,1.8,4,4,4h12c2.2,0,4-1.8,4-4V4C20,1.8,18.2,0,16,0z M17.146,7.656
	l-4.182,8.859L2.5,16.538l3.748-8.02c-0.957-0.15-1.446-1.277-1.461-2.516C4.803,4.71,5.329,3.526,6.371,3.462l9.532,0.002
	c0.003,0,0.006-0.002,0.009-0.002c1.044,0.064,1.569,1.248,1.588,2.541c-0.009,0.612-0.135,1.195-0.372,1.651L17.146,7.656z
	 M16.509,4.607c0.19,0.338,0.324,0.838,0.321,1.396c0.003,0.557-0.131,1.061-0.321,1.394c-0.197,0.346-0.424,0.482-0.597,0.479
	c-0.174,0.004-0.397-0.133-0.595-0.479c-0.19-0.333-0.324-0.837-0.324-1.394c0-0.558,0.134-1.058,0.324-1.396
	c0.197-0.343,0.421-0.481,0.595-0.478C16.085,4.126,16.312,4.265,16.509,4.607z M6.936,8.544l-3.24,7.322l8.899-0.017l3.372-7.316
	c-0.02,0.002-0.035,0.01-0.055,0.011H6.936z M8.648,10.183l0.281,0.162l-1.215,1.27l-0.284-0.16L8.648,10.183z M7.621,13.056
	l2.872-2.992l0.279,0.161l-2.871,2.989L7.621,13.056z M9.242,13.51L8.96,13.348l1.944-2.02l0.281,0.16L9.242,13.51z M6.371,7.875
	C6.199,7.879,5.974,7.742,5.777,7.396C5.583,7.063,5.452,6.56,5.452,6.003c0-0.558,0.131-1.058,0.325-1.396
	C5.974,4.265,6.199,4.126,6.371,4.13h8.463c-0.325,0.478-0.498,1.154-0.508,1.873c0.01,0.718,0.183,1.394,0.507,1.872H6.371z"/>
<g>
</g>
<g>
</g>
<g>
</g>
<g>
</g>
<g>
</g>
<g>
</g>
<g>
</g>
<g>
</g>
<g>
</g>
<g>
</g>
<g>
</g>
<g>
</g>
<g>
</g>
<g>
</g>
<g>
</g>
</svg>
