<?xml version="1.0" encoding="iso-8859-1"?>
<!-- Generator: Adobe Illustrator 16.0.4, SVG Export Plug-In . SVG Version: 6.00 Build 0)  -->
<!DOCTYPE svg PUBLIC "-//W3C//DTD SVG 1.1//EN" "http://www.w3.org/Graphics/SVG/1.1/DTD/svg11.dtd">
<svg version="1.1" id="Capa_1" xmlns="http://www.w3.org/2000/svg" xmlns:xlink="http://www.w3.org/1999/xlink" x="0px" y="0px"
	 width="20px" height="20px" viewBox="0 0 20 20" style="enable-background:new 0 0 20 20;" xml:space="preserve">
<path style="fill:#010002;" d="M5.083,7.01c0.192,0.013,0.256,0.286,0.256,0.482c0,0.196-0.051,0.391-0.205,0.365
	c-0.153-0.027-0.23-0.483-0.23-0.483C4.892,7.583,4.892,6.996,5.083,7.01z M9.948,10.828c0.964-0.123,1.576-1.803,1.61-3.354
	c0.006-0.322-0.027-1.121-0.482-1.594c-0.245-0.255-0.585-0.385-1.014-0.385L9.985,5.497C8.633,5.544,8.044,7.687,8.043,8.768
	c-0.002,0.79,0.166,1.363,0.497,1.702C8.852,10.788,9.329,10.907,9.948,10.828z M4.917,6.814L4.698,5.223
	C4.354,5.275,3.815,6.736,3.943,7.075l0.832,0.261C4.75,7.102,4.775,6.918,4.917,6.814z M5.007,8.04L4.98,9.136
	C5.122,9.409,5.813,9.697,6.082,9.5L5.365,8.079C5.212,8.223,5.007,8.04,5.007,8.04z M5.494,7.54c0,0,0.844,0.24,0.883,0.227
	c0.25-0.084-0.248-2.286-0.425-2.072l-0.65,1.236C5.482,7.086,5.531,7.401,5.494,7.54z M20,4v12c0,2.2-1.8,4-4,4H4c-2.2,0-4-1.8-4-4
	V4c0-2.2,1.8-4,4-4h12C18.2,0,20,1.8,20,4z M4.076,9.54l4.604,1.593c0.264,0.125,0.565,0.197,0.912,0.197
	c0.133,0,0.271-0.01,0.414-0.028c1.274-0.164,1.98-2.044,2.019-3.819c0.012-0.474-0.055-1.357-0.615-1.938
	c-0.334-0.349-0.785-0.525-1.341-0.526c-0.938-0.219-4.578-1.055-5.227-1.04c-1.089,0.024-2.07,1.469-2.268,2.374
	C2.38,7.254,2.464,9.182,4.076,9.54z M17.487,11.169c-0.138-0.567-2.167-1.039-2.604-1.178c-0.288-0.092-1.344-0.495-1.889-0.238
	c-0.453,0.215-0.801,1.619-1.704,1.959c-0.905,0.34-1.451,0.348-1.767,0.417c-0.81,0.173-2.375,1.004-3.196,0.934
	c-1.036-0.087-3.178,1.205-3.066,1.955c0.111,0.75,1.045,1.377,2.063,0.741c1.02-0.637,1.894-0.585,3.093-0.279
	c1.199,0.305,3.049-0.288,4.522-1.073c1.473-0.785,2.612-1.396,3.117-1.797C16.562,12.208,17.625,11.737,17.487,11.169z"/>
<g>
</g>
<g>
</g>
<g>
</g>
<g>
</g>
<g>
</g>
<g>
</g>
<g>
</g>
<g>
</g>
<g>
</g>
<g>
</g>
<g>
</g>
<g>
</g>
<g>
</g>
<g>
</g>
<g>
</g>
</svg>
