<?xml version="1.0" encoding="iso-8859-1"?>
<!-- Generator: Adobe Illustrator 16.0.4, SVG Export Plug-In . SVG Version: 6.00 Build 0)  -->
<!DOCTYPE svg PUBLIC "-//W3C//DTD SVG 1.1//EN" "http://www.w3.org/Graphics/SVG/1.1/DTD/svg11.dtd">
<svg version="1.1" id="Capa_1" xmlns="http://www.w3.org/2000/svg" xmlns:xlink="http://www.w3.org/1999/xlink" x="0px" y="0px"
	 width="20px" height="20px" viewBox="0 0 20 20" style="enable-background:new 0 0 20 20;" xml:space="preserve">
<path style="fill:#010002;" d="M16,0H4C1.8,0,0,1.8,0,4v12c0,2.2,1.8,4,4,4h12c2.2,0,4-1.8,4-4V4C20,1.8,18.2,0,16,0z M9.557,4.258
	l0.397-0.31l0.324,0.415V4.36l0.002,0.003l0.322-0.415l0.4,0.31l-0.402,0.518l4.906,7.585l-3.293,0.01
	c-1.304-1.222-1.889-2.652-1.889-2.652h-0.021c0,0-0.604,1.486-1.943,2.652H4.609l5.35-7.595L9.557,4.258z M14.82,16.052V15.21
	H8.466H5.177v0.842L2.5,14.646l2.677-1.401v0.839H8.56h6.261v-0.839l2.68,1.403L14.82,16.052z"/>
<g>
</g>
<g>
</g>
<g>
</g>
<g>
</g>
<g>
</g>
<g>
</g>
<g>
</g>
<g>
</g>
<g>
</g>
<g>
</g>
<g>
</g>
<g>
</g>
<g>
</g>
<g>
</g>
<g>
</g>
</svg>
