<?xml version="1.0" encoding="iso-8859-1"?>
<!-- Generator: Adobe Illustrator 16.0.4, SVG Export Plug-In . SVG Version: 6.00 Build 0)  -->
<!DOCTYPE svg PUBLIC "-//W3C//DTD SVG 1.1//EN" "http://www.w3.org/Graphics/SVG/1.1/DTD/svg11.dtd">
<svg version="1.1" id="Capa_1" xmlns="http://www.w3.org/2000/svg" xmlns:xlink="http://www.w3.org/1999/xlink" x="0px" y="0px"
	 width="15px" height="11.641px" viewBox="0 0 15 11.641" style="enable-background:new 0 0 15 11.641;" xml:space="preserve">
<path style="fill:#010002;" d="M13.008,8.482l-3.32,0.01C8.373,7.261,7.783,5.817,7.783,5.817H7.76c0,0-0.607,1.499-1.959,2.675
	H2.018l5.395-7.659L7.008,0.312L7.408,0l0.328,0.418V0.415v0.003L8.062,0l0.402,0.312L8.061,0.833L13.008,8.482z M2.025,11.641
	L1.52,10.763L1.012,9.885l-0.506,0.878L0,11.641h1.012H2.025z M5.27,11.641l-0.508-0.878L4.256,9.885L3.75,10.763l-0.508,0.878
	h1.014H5.27z M8.512,11.641l-0.506-0.878L7.5,9.885l-0.508,0.878l-0.506,0.878H7.5H8.512z M11.756,11.641l-0.506-0.878l-0.508-0.878
	l-0.506,0.878L9.73,11.641h1.012H11.756z M15,11.641l-0.508-0.878l-0.506-0.878l-0.506,0.878l-0.508,0.878h1.014H15z"/>
<g>
</g>
<g>
</g>
<g>
</g>
<g>
</g>
<g>
</g>
<g>
</g>
<g>
</g>
<g>
</g>
<g>
</g>
<g>
</g>
<g>
</g>
<g>
</g>
<g>
</g>
<g>
</g>
<g>
</g>
</svg>
