<?xml version="1.0" encoding="iso-8859-1"?>
<!-- Generator: Adobe Illustrator 16.0.4, SVG Export Plug-In . SVG Version: 6.00 Build 0)  -->
<!DOCTYPE svg PUBLIC "-//W3C//DTD SVG 1.1//EN" "http://www.w3.org/Graphics/SVG/1.1/DTD/svg11.dtd">
<svg version="1.1" id="Capa_1" xmlns="http://www.w3.org/2000/svg" xmlns:xlink="http://www.w3.org/1999/xlink" x="0px" y="0px"
	 width="15px" height="11.641px" viewBox="0 0 15 11.641" style="enable-background:new 0 0 15 11.641;" xml:space="preserve">
<path style="fill:#010002;" d="M13.009,8.482l-3.321,0.01C8.373,7.261,7.784,5.817,7.784,5.817H7.762c0,0-0.609,1.499-1.96,2.675
	H2.019l5.396-7.659L7.008,0.312L7.408,0l0.328,0.418V0.415l0.001,0.003L8.063,0l0.403,0.312L8.061,0.833L13.009,8.482z M0,11.641
	h2.026v-1.7H0V11.641z M3.242,11.641H5.27v-1.7H3.242V11.641z M6.486,11.641h2.027v-1.7H6.486V11.641z M9.729,11.641h2.028v-1.7
	H9.729V11.641z M12.973,11.641H15v-1.7h-2.027V11.641z"/>
<g>
</g>
<g>
</g>
<g>
</g>
<g>
</g>
<g>
</g>
<g>
</g>
<g>
</g>
<g>
</g>
<g>
</g>
<g>
</g>
<g>
</g>
<g>
</g>
<g>
</g>
<g>
</g>
<g>
</g>
</svg>
