<?xml version="1.0" encoding="iso-8859-1"?>
<!-- Generator: Adobe Illustrator 16.0.4, SVG Export Plug-In . SVG Version: 6.00 Build 0)  -->
<!DOCTYPE svg PUBLIC "-//W3C//DTD SVG 1.1//EN" "http://www.w3.org/Graphics/SVG/1.1/DTD/svg11.dtd">
<svg version="1.1" id="Capa_1" xmlns="http://www.w3.org/2000/svg" xmlns:xlink="http://www.w3.org/1999/xlink" x="0px" y="0px"
	 width="20px" height="20px" viewBox="0 0 20 20" style="enable-background:new 0 0 20 20;" xml:space="preserve">
<path style="fill:#010002;" d="M16,0H4C1.8,0,0,1.8,0,4v12c0,2.2,1.8,4,4,4h12c2.2,0,4-1.8,4-4V4C20,1.8,18.2,0,16,0z
	 M16.607,15.105H3.392c-0.493,0-0.892-0.402-0.892-0.893c0-0.492,0.399-0.895,0.892-0.895h13.215c0.492,0,0.893,0.402,0.893,0.895
	C17.5,14.703,17.099,15.105,16.607,15.105z M3.553,8.609C3.385,8.404,3.415,8.104,3.622,7.938C3.825,7.77,4.125,7.805,4.29,8.008
	l1.115,1.373l1.115-1.373c0.165-0.203,0.465-0.238,0.671-0.07C7.395,8.104,7.425,8.404,7.26,8.609l-1.241,1.527l1.241,1.527
	c0.165,0.205,0.135,0.506-0.069,0.672c-0.089,0.07-0.196,0.105-0.302,0.105c-0.139,0-0.274-0.059-0.369-0.176l-1.115-1.373
	L4.29,12.266c-0.094,0.117-0.23,0.176-0.369,0.176c-0.105,0-0.212-0.035-0.299-0.105c-0.207-0.166-0.237-0.467-0.069-0.672
	l1.239-1.527L3.553,8.609z M8.185,8.607C8.02,8.404,8.05,8.105,8.253,7.939c0.206-0.168,0.506-0.135,0.671,0.07l1.114,1.373
	l1.115-1.373c0.164-0.205,0.466-0.238,0.67-0.07c0.203,0.166,0.237,0.465,0.068,0.668l-1.241,1.529l1.241,1.527
	c0.168,0.205,0.135,0.504-0.068,0.672c-0.087,0.07-0.194,0.105-0.3,0.105c-0.14,0-0.277-0.059-0.37-0.176l-1.115-1.373l-1.114,1.373
	c-0.094,0.117-0.23,0.176-0.369,0.176c-0.106,0-0.213-0.035-0.302-0.105c-0.204-0.168-0.234-0.467-0.069-0.672l1.241-1.527
	L8.185,8.607z M12.706,8.609c-0.165-0.205-0.135-0.504,0.069-0.672c0.204-0.166,0.507-0.135,0.671,0.07l1.115,1.373l1.115-1.373
	c0.166-0.205,0.465-0.236,0.669-0.07c0.204,0.168,0.236,0.467,0.068,0.672l-1.24,1.527l1.24,1.527
	c0.167,0.205,0.135,0.506-0.068,0.672c-0.088,0.07-0.194,0.105-0.3,0.105c-0.138,0-0.274-0.059-0.369-0.176l-1.115-1.373
	l-1.115,1.373c-0.093,0.117-0.23,0.176-0.37,0.176c-0.106,0-0.213-0.035-0.301-0.105c-0.204-0.166-0.234-0.467-0.069-0.672
	l1.241-1.527L12.706,8.609z M16.607,6.68H3.392c-0.493,0-0.892-0.4-0.892-0.896c0-0.49,0.399-0.891,0.892-0.891h13.215
	c0.492,0,0.893,0.4,0.893,0.891C17.5,6.279,17.099,6.68,16.607,6.68z"/>
<g>
</g>
<g>
</g>
<g>
</g>
<g>
</g>
<g>
</g>
<g>
</g>
<g>
</g>
<g>
</g>
<g>
</g>
<g>
</g>
<g>
</g>
<g>
</g>
<g>
</g>
<g>
</g>
<g>
</g>
</svg>
