<?xml version="1.0" encoding="iso-8859-1"?>
<!-- Generator: Adobe Illustrator 16.0.4, SVG Export Plug-In . SVG Version: 6.00 Build 0)  -->
<!DOCTYPE svg PUBLIC "-//W3C//DTD SVG 1.1//EN" "http://www.w3.org/Graphics/SVG/1.1/DTD/svg11.dtd">
<svg version="1.1" id="Capa_1" xmlns="http://www.w3.org/2000/svg" xmlns:xlink="http://www.w3.org/1999/xlink" x="0px" y="0px"
	 width="15px" height="14.893px" viewBox="0 0 15 14.893" style="enable-background:new 0 0 15 14.893;" xml:space="preserve">
<path style="fill:#010002;" d="M6.258,6.49v1.26L5.904,7.385L5.245,8.662L4.607,7.066l-2.47,2.064l0.83-2.938l-1.17,0.213
	L2.521,5.66L0,4.188l2.786,0.195C2.491,3.775,1.964,2.766,1.964,2.766L3.703,3.15L3.085,0l1.952,2.514l0.718-1.861l0.476,1.994
	l1.706-1.766L7.288,3.682l2.406,0.256L8.076,4.973C7.044,5.238,6.258,5.713,6.258,6.49z M15,12.828c0,0.373-0.072,0.562-0.214,0.562
	h-0.887v0.17c0,0.26-0.01,0.473-0.029,0.639s-0.042,0.303-0.067,0.406c-0.114,0.189-0.327,0.287-0.636,0.287
	c-0.295,0-0.502-0.098-0.617-0.287c-0.077-0.156-0.117-0.465-0.117-0.924v-0.291H8.511v0.291c0,0.459-0.04,0.768-0.117,0.924
	c-0.114,0.189-0.322,0.287-0.618,0.287c-0.307,0-0.52-0.098-0.635-0.287c-0.026-0.104-0.049-0.24-0.068-0.406
	c-0.018-0.166-0.029-0.379-0.029-0.639v-0.17H6.156c-0.142,0-0.212-0.189-0.212-0.562c0-0.385,0.07-0.574,0.212-0.574h0.135v-0.35
	c0-0.631,0.038-1.209,0.116-1.738c0.104-0.562,0.377-0.965,0.821-1.209V6.49c0-0.201,0.927-0.82,3.213-0.82
	c2.285,0,3.238,0.619,3.238,0.82v2.447c0.054,0.031,0.105,0.061,0.154,0.094V6.635h0.209V5.822h0.279v0.812h0.207v3.508
	c0.003,0.01,0.006,0.014,0.008,0.023c0.077,0.529,0.115,1.107,0.115,1.738v0.35h0.134C14.928,12.254,15,12.443,15,12.828z
	 M8.509,10.986c0-0.318-0.26-0.578-0.579-0.578c-0.317,0-0.577,0.26-0.577,0.578s0.26,0.578,0.577,0.578
	C8.249,11.564,8.509,11.305,8.509,10.986z M12.665,8.988c0.201,0,0.363-0.16,0.363-0.361V7.916c0-0.201-0.077-0.445-0.363-0.59
	c0,0-0.89-0.303-2.192-0.303c-1.305,0-2.189,0.303-2.189,0.303C8.065,7.428,7.92,7.605,7.92,7.805v0.822
	c0,0.201,0.164,0.361,0.363,0.361H12.665z M12.091,11.549c0-0.055-0.046-0.102-0.102-0.102H8.955c-0.057,0-0.103,0.047-0.103,0.102
	c0,0.057,0.046,0.102,0.103,0.102h3.034C12.044,11.65,12.091,11.605,12.091,11.549z M12.091,10.969c0-0.057-0.046-0.102-0.102-0.102
	H8.955c-0.057,0-0.103,0.045-0.103,0.102s0.046,0.104,0.103,0.104h3.034C12.044,11.072,12.091,11.025,12.091,10.969z M12.091,10.389
	c0-0.055-0.046-0.102-0.102-0.102H8.955c-0.057,0-0.103,0.047-0.103,0.102c0,0.057,0.046,0.102,0.103,0.102h3.034
	C12.044,10.49,12.091,10.445,12.091,10.389z M13.583,10.986c0-0.318-0.259-0.578-0.576-0.578c-0.319,0-0.577,0.26-0.577,0.578
	s0.257,0.578,0.577,0.578C13.324,11.564,13.583,11.305,13.583,10.986z"/>
<g>
</g>
<g>
</g>
<g>
</g>
<g>
</g>
<g>
</g>
<g>
</g>
<g>
</g>
<g>
</g>
<g>
</g>
<g>
</g>
<g>
</g>
<g>
</g>
<g>
</g>
<g>
</g>
<g>
</g>
</svg>
