<?xml version="1.0" encoding="iso-8859-1"?>
<!-- Generator: Adobe Illustrator 16.0.4, SVG Export Plug-In . SVG Version: 6.00 Build 0)  -->
<!DOCTYPE svg PUBLIC "-//W3C//DTD SVG 1.1//EN" "http://www.w3.org/Graphics/SVG/1.1/DTD/svg11.dtd">
<svg version="1.1" id="Capa_1" xmlns="http://www.w3.org/2000/svg" xmlns:xlink="http://www.w3.org/1999/xlink" x="0px" y="0px"
	 width="20px" height="20px" viewBox="0 0 20 20" style="enable-background:new 0 0 20 20;" xml:space="preserve">
<path style="fill:#010002;" d="M16,0H4C1.8,0,0,1.8,0,4v12c0,2.199,1.8,4,4,4h12c2.2,0,4-1.801,4-4V4C20,1.8,18.2,0,16,0z
	 M14.444,3.523c0.606,0,1.099,0.492,1.099,1.1s-0.492,1.1-1.099,1.1c-0.608,0-1.103-0.492-1.103-1.1S13.836,3.523,14.444,3.523z
	 M9.999,10.211c0.373,0,0.676,0.301,0.676,0.674s-0.303,0.674-0.676,0.674c-0.374,0-0.677-0.301-0.677-0.674
	S9.625,10.211,9.999,10.211z M5.556,3.526c0.607,0,1.102,0.492,1.102,1.1c0,0.607-0.494,1.099-1.102,1.099
	c-0.608,0-1.102-0.492-1.102-1.099C4.454,4.019,4.947,3.526,5.556,3.526z M6.645,12.16l-0.22,4.06c0,0.141-0.116,0.258-0.259,0.258
	c-0.142,0-0.257-0.117-0.257-0.258l-0.238-4.06H5.426l-0.222,4.06c0,0.141-0.115,0.258-0.261,0.258
	c-0.141,0-0.257-0.117-0.257-0.258l-0.223-4.06H3.747L4.49,7.609l-1.494,2.976c-0.057,0.131-0.208,0.193-0.34,0.138
	c-0.13-0.056-0.191-0.206-0.135-0.339c0,0,1.096-2.961,1.365-3.513c0.27-0.552,0.538-0.888,1.563-0.888h0.21
	c1.028,0,1.294,0.335,1.564,0.888c0.271,0.552,1.366,3.513,1.366,3.513c0.056,0.133-0.007,0.283-0.138,0.339
	c-0.132,0.056-0.283-0.007-0.338-0.138L6.621,7.609l0.741,4.551H6.645z M12.102,11.047c-0.029,0.045-0.627,0.973-0.979,1.184
	c-0.344,0.206-0.351,0.115-0.386,0.418l-0.04,0.891l0.125,2.595c0.007,0.021,0,0.146-0.002,0.151
	c-0.037,0.11-0.139,0.191-0.26,0.191c-0.118,0-0.215-0.074-0.257-0.178c0-0.002-0.304-2.113-0.304-2.113s-0.305,2.111-0.305,2.113
	c-0.039,0.104-0.139,0.178-0.255,0.178c-0.122,0-0.222-0.081-0.258-0.191c-0.005-0.006-0.012-0.131-0.005-0.151l0.124-2.595
	l-0.039-0.891c-0.033-0.303-0.041-0.212-0.386-0.418c-0.351-0.211-0.949-1.139-0.979-1.184C7.867,11,7.812,10.919,7.803,10.868
	c-0.019-0.094,0.043-0.183,0.136-0.201c0.071-0.012,0.129,0.025,0.173,0.074c0.048,0.05,0.736,0.967,1.253,1.055
	c0.117-0.017,0.242-0.078,0.569-0.078h0.13c0.329,0,0.454,0.062,0.57,0.078c0.517-0.088,1.205-1.005,1.251-1.055
	c0.045-0.049,0.104-0.086,0.175-0.074c0.093,0.019,0.153,0.107,0.136,0.201C12.185,10.919,12.131,11,12.102,11.047z M17.341,10.719
	c-0.131,0.057-0.283-0.007-0.339-0.137l-1.344-2.977l-0.073,2.393h-0.002l0.213,6.016c0.015,0.238-0.162,0.445-0.401,0.461
	c-0.011,0.002-0.021,0.002-0.031,0.002c-0.224,0-0.415-0.174-0.429-0.402l-0.493-4.954l-0.487,4.954
	c-0.018,0.229-0.208,0.402-0.434,0.402c-0.009,0-0.02,0-0.031-0.002c-0.236-0.016-0.415-0.223-0.4-0.461l0.212-6.016l-0.073-2.393
	l-1.346,2.977c-0.053,0.13-0.205,0.193-0.337,0.137s-0.192-0.207-0.137-0.34c0,0,0.946-2.961,1.215-3.512
	c0.271-0.552,0.688-0.887,1.715-0.887h0.211c1.026,0,1.443,0.335,1.714,0.887c0.271,0.551,1.217,3.512,1.217,3.512
	C17.535,10.512,17.474,10.663,17.341,10.719z"/>
<g>
</g>
<g>
</g>
<g>
</g>
<g>
</g>
<g>
</g>
<g>
</g>
<g>
</g>
<g>
</g>
<g>
</g>
<g>
</g>
<g>
</g>
<g>
</g>
<g>
</g>
<g>
</g>
<g>
</g>
</svg>
