<?xml version="1.0" encoding="iso-8859-1"?>
<!-- Generator: Adobe Illustrator 16.0.4, SVG Export Plug-In . SVG Version: 6.00 Build 0)  -->
<!DOCTYPE svg PUBLIC "-//W3C//DTD SVG 1.1//EN" "http://www.w3.org/Graphics/SVG/1.1/DTD/svg11.dtd">
<svg version="1.1" id="Capa_1" xmlns="http://www.w3.org/2000/svg" xmlns:xlink="http://www.w3.org/1999/xlink" x="0px" y="0px"
	 width="20px" height="20px" viewBox="0 0 20 20" style="enable-background:new 0 0 20 20;" xml:space="preserve">
<path style="fill:#010002;" d="M8.557,10.526h0.947v2.47c0,0.563-0.025,0.962-0.076,1.194c-0.051,0.233-0.145,0.431-0.283,0.59
	c-0.139,0.162-0.322,0.289-0.555,0.384c-0.229,0.096-0.531,0.144-0.902,0.144c-0.451,0-0.791-0.053-1.021-0.154
	c-0.232-0.106-0.416-0.239-0.551-0.405s-0.223-0.341-0.266-0.522c-0.062-0.269-0.094-0.666-0.094-1.192v-2.507h0.949v2.545
	c0,0.405,0.012,0.667,0.035,0.786c0.041,0.192,0.137,0.348,0.291,0.464c0.152,0.117,0.361,0.175,0.625,0.175
	c0.271,0,0.475-0.056,0.611-0.165s0.219-0.246,0.246-0.406c0.029-0.159,0.043-0.425,0.043-0.799V10.526z M13.361,13.665
	l-1.922-3.139h-0.924v4.701h0.881v-3.066l1.895,3.066h0.953v-4.701h-0.883V13.665z M20,4v12c0,2.2-1.8,4-4,4H4c-2.2,0-4-1.8-4-4V4
	c0-2.2,1.8-4,4-4h12C18.2,0,20,1.8,20,4z M9.71,7.504h0.536V5.21c0.051-0.009,0.109-0.016,0.187-0.044
	c0.108-0.039,0.225-0.084,0.36-0.133c0.133-0.047,0.261-0.086,0.387-0.113c0.123-0.03,0.212-0.043,0.271-0.043
	c0.113,0,0.259,0.019,0.428,0.057c0.172,0.043,0.355,0.09,0.541,0.143c0.193,0.061,0.367,0.106,0.534,0.146
	c0.16,0.038,0.3,0.054,0.411,0.054c0.177,0,0.365-0.025,0.575-0.081V2.932c-0.174,0.074-0.362,0.115-0.575,0.115
	c-0.111,0-0.251-0.018-0.411-0.06c-0.167-0.033-0.341-0.085-0.534-0.143c-0.186-0.059-0.362-0.103-0.524-0.14
	c-0.164-0.04-0.3-0.06-0.415-0.06c-0.385,0-0.796,0.094-1.233,0.268V2.5H9.71V7.504z M16.342,9.212h-2.437V7.909H6.095v1.303H3.658
	V17.5h4.326v-1.127h3.977V17.5h4.381V9.212z"/>
<g>
</g>
<g>
</g>
<g>
</g>
<g>
</g>
<g>
</g>
<g>
</g>
<g>
</g>
<g>
</g>
<g>
</g>
<g>
</g>
<g>
</g>
<g>
</g>
<g>
</g>
<g>
</g>
<g>
</g>
</svg>
