<?xml version="1.0" encoding="iso-8859-1"?>
<!-- Generator: Adobe Illustrator 16.0.4, SVG Export Plug-In . SVG Version: 6.00 Build 0)  -->
<!DOCTYPE svg PUBLIC "-//W3C//DTD SVG 1.1//EN" "http://www.w3.org/Graphics/SVG/1.1/DTD/svg11.dtd">
<svg version="1.1" id="Capa_1" xmlns="http://www.w3.org/2000/svg" xmlns:xlink="http://www.w3.org/1999/xlink" x="0px" y="0px"
	 width="20px" height="20px" viewBox="0 0 20 20" style="enable-background:new 0 0 20 20;" xml:space="preserve">
<path style="fill:#010002;" d="M11.417,12.082c-0.021,0.968-0.054,2.246-0.054,2.246L9.437,14.07
	c0.422-0.287,0.807-0.691,1.026-0.862C10.669,13.05,11.063,12.532,11.417,12.082z M6.486,6.892L5.766,6.96l0.253,2.705
	c0.023,0.245,0.006,0.439-0.054,0.58c-0.057,0.14-0.148,0.216-0.271,0.229c-0.126,0.011-0.231-0.048-0.313-0.177
	C5.295,10.166,5.243,9.98,5.22,9.74L4.967,7.035L4.246,7.103l0.247,2.642c0.021,0.219,0.066,0.466,0.138,0.743
	c0.044,0.174,0.111,0.338,0.2,0.496c0.091,0.16,0.186,0.279,0.284,0.36s0.217,0.13,0.355,0.148c0.136,0.019,0.263,0.021,0.376,0.01
	c0.197-0.018,0.36-0.083,0.492-0.195c0.094-0.08,0.179-0.211,0.253-0.394c0.077-0.183,0.125-0.394,0.146-0.63
	c0.022-0.236,0.021-0.485-0.004-0.748L6.486,6.892z M20,4v12c0,2.2-1.8,4-4,4H4c-2.2,0-4-1.8-4-4V4c0-2.2,1.8-4,4-4h12
	C18.2,0,20,1.8,20,4z M17.5,9.162c0,0-1.229-1.237-1.282-1.551c-2.001-4.476-4.281-4.918-7.555-4.453
	C5.413,3.62,1.514,5.16,2.727,12.916c0,0,0.764,1.25,2.069,1.466c0.411,0.067,0.92,0.095,1.438,0.103l5.397,0.635l1.843,1.867
	c0.781-0.012,2.958-0.371,2.249-1.604c-0.116-0.203-0.208-0.425-0.293-0.644c0,0-0.008,0.343-0.189,0.542
	c-0.182,0.2-0.834,0.618-0.834,0.618l-2.114-1.647l0.07-3.178c0.245-0.215,0.523-0.419,0.888-0.495
	C13.81,10.464,16.309,9.972,17.5,9.162z M9.621,11.073L9.206,6.639L8.525,6.702l0.229,2.453l-1.11-2.371L6.97,6.848l0.415,4.435
	l0.68-0.064L7.837,8.784l1.103,2.353L9.621,11.073z"/>
<g>
</g>
<g>
</g>
<g>
</g>
<g>
</g>
<g>
</g>
<g>
</g>
<g>
</g>
<g>
</g>
<g>
</g>
<g>
</g>
<g>
</g>
<g>
</g>
<g>
</g>
<g>
</g>
<g>
</g>
</svg>
