<?xml version="1.0" encoding="iso-8859-1"?>
<!-- Generator: Adobe Illustrator 16.0.4, SVG Export Plug-In . SVG Version: 6.00 Build 0)  -->
<!DOCTYPE svg PUBLIC "-//W3C//DTD SVG 1.1//EN" "http://www.w3.org/Graphics/SVG/1.1/DTD/svg11.dtd">
<svg version="1.1" id="Capa_1" xmlns="http://www.w3.org/2000/svg" xmlns:xlink="http://www.w3.org/1999/xlink" x="0px" y="0px"
	 width="20px" height="20px" viewBox="0 0 20 20" style="enable-background:new 0 0 20 20;" xml:space="preserve">
<path style="fill:#010002;" d="M16,0H4C1.8,0,0,1.8,0,4v12c0,2.2,1.8,4,4,4h12c2.2,0,4-1.8,4-4V4C20,1.8,18.2,0,16,0z M2.5,9.689
	V8.568h2.799v1.121H2.5z M9.676,13.658c-0.317,0.441-1.179,1.646-2.578,3.615L4.47,13.639c-0.127-0.17-0.19-0.303-0.19-0.396
	c0-0.199,0.118-0.299,0.358-0.301l1.621,0.398V2.729L7.814,2.73v10.643l1.719-0.432c0.222,0,0.332,0.102,0.335,0.301
	C9.868,13.336,9.802,13.475,9.676,13.658z M11.466,9.689H8.668V8.568h2.798V9.689z M13.855,17.273l-1.557-0.002V6.625l-1.72,0.432
	c-0.221,0-0.33-0.098-0.333-0.297c0-0.094,0.066-0.234,0.191-0.42c0.317-0.438,1.178-1.643,2.578-3.609l2.629,3.629
	c0.127,0.172,0.19,0.307,0.19,0.4c0,0.199-0.118,0.297-0.359,0.297l-1.62-0.396V17.273z M17.5,9.689h-2.8V8.568h2.8V9.689z"/>
<g>
</g>
<g>
</g>
<g>
</g>
<g>
</g>
<g>
</g>
<g>
</g>
<g>
</g>
<g>
</g>
<g>
</g>
<g>
</g>
<g>
</g>
<g>
</g>
<g>
</g>
<g>
</g>
<g>
</g>
</svg>
