<?xml version="1.0" encoding="iso-8859-1"?>
<!-- Generator: Adobe Illustrator 16.0.4, SVG Export Plug-In . SVG Version: 6.00 Build 0)  -->
<!DOCTYPE svg PUBLIC "-//W3C//DTD SVG 1.1//EN" "http://www.w3.org/Graphics/SVG/1.1/DTD/svg11.dtd">
<svg version="1.1" id="Capa_1" xmlns="http://www.w3.org/2000/svg" xmlns:xlink="http://www.w3.org/1999/xlink" x="0px" y="0px"
	 width="15px" height="14.545px" viewBox="0 0 15 14.545" style="enable-background:new 0 0 15 14.545;" xml:space="preserve">
<path style="fill:#010002;" d="M7.368,10.514c0,0.094-0.066,0.232-0.192,0.416c-0.317,0.441-1.179,1.646-2.578,3.615L1.97,10.91
	c-0.127-0.17-0.19-0.303-0.19-0.396c0-0.199,0.118-0.299,0.358-0.301l1.621,0.398V0l1.556,0.002v10.643l1.719-0.432
	C7.255,10.213,7.365,10.314,7.368,10.514z M13.335,4.031c0-0.094-0.063-0.229-0.19-0.4l-2.629-3.629
	c-1.4,1.967-2.261,3.172-2.578,3.609c-0.125,0.186-0.191,0.326-0.191,0.42C7.749,4.23,7.858,4.328,8.079,4.328l1.72-0.432v10.646
	l1.557,0.002V3.932l1.62,0.396C13.217,4.328,13.335,4.23,13.335,4.031z M2.799,5.84H0v1.121h2.799V5.84z M6.168,6.961h2.798V5.84
	H6.168V6.961z M12.2,5.84v1.121H15V5.84H12.2z"/>
<g>
</g>
<g>
</g>
<g>
</g>
<g>
</g>
<g>
</g>
<g>
</g>
<g>
</g>
<g>
</g>
<g>
</g>
<g>
</g>
<g>
</g>
<g>
</g>
<g>
</g>
<g>
</g>
<g>
</g>
</svg>
