<?xml version="1.0" encoding="iso-8859-1"?>
<!-- Generator: Adobe Illustrator 16.0.4, SVG Export Plug-In . SVG Version: 6.00 Build 0)  -->
<!DOCTYPE svg PUBLIC "-//W3C//DTD SVG 1.1//EN" "http://www.w3.org/Graphics/SVG/1.1/DTD/svg11.dtd">
<svg version="1.1" id="Capa_1" xmlns="http://www.w3.org/2000/svg" xmlns:xlink="http://www.w3.org/1999/xlink" x="0px" y="0px"
	 width="20px" height="20px" viewBox="0 0 20 20" style="enable-background:new 0 0 20 20;" xml:space="preserve">
<path style="fill:#010002;" d="M14.591,14.103c0,0.057-0.046,0.102-0.102,0.102h-3.034c-0.057,0-0.103-0.045-0.103-0.102
	c0-0.055,0.046-0.102,0.103-0.102h3.034C14.544,14.001,14.591,14.048,14.591,14.103z M14.489,13.421h-3.034
	c-0.057,0-0.103,0.045-0.103,0.102s0.046,0.104,0.103,0.104h3.034c0.056,0,0.102-0.047,0.102-0.104S14.544,13.421,14.489,13.421z
	 M10.43,14.118c0.318,0,0.579-0.26,0.579-0.578s-0.26-0.578-0.579-0.578c-0.317,0-0.577,0.26-0.577,0.578
	S10.113,14.118,10.43,14.118z M10.783,11.542h4.381c0.201,0,0.363-0.16,0.363-0.361V10.47c0-0.201-0.077-0.445-0.363-0.59
	c0,0-0.89-0.303-2.192-0.303c-1.305,0-2.189,0.303-2.189,0.303c-0.218,0.102-0.363,0.279-0.363,0.479v0.822
	C10.42,11.382,10.583,11.542,10.783,11.542z M14.931,13.54c0,0.318,0.257,0.578,0.577,0.578c0.317,0,0.576-0.26,0.576-0.578
	s-0.259-0.578-0.576-0.578C15.188,12.962,14.931,13.222,14.931,13.54z M0,16V4c0-2.2,1.8-4,4-4h12c2.2,0,4,1.8,4,4v12
	c0,2.2-1.8,4-4,4H4C1.8,20,0,18.2,0,16z M12.941,8.224c-2.286,0-3.213,0.619-3.213,0.82v2.467c-0.443,0.244-0.717,0.646-0.821,1.209
	c-0.078,0.529-0.116,1.107-0.116,1.738v0.35H8.656c-0.142,0-0.212,0.189-0.212,0.574c0,0.373,0.07,0.562,0.212,0.562h0.887v0.17
	c0,0.26,0.011,0.473,0.029,0.639c0.019,0.166,0.042,0.303,0.068,0.406c0.116,0.189,0.329,0.287,0.635,0.287
	c0.296,0,0.504-0.098,0.618-0.287c0.077-0.156,0.117-0.465,0.117-0.924v-0.291h3.922v0.291c0,0.459,0.04,0.768,0.117,0.924
	c0.115,0.189,0.322,0.287,0.617,0.287c0.309,0,0.521-0.098,0.636-0.287c0.025-0.104,0.048-0.24,0.067-0.406s0.029-0.379,0.029-0.639
	v-0.17h0.887c0.142,0,0.214-0.189,0.214-0.562c0-0.385-0.072-0.574-0.214-0.574h-0.134v-0.35c0-0.631-0.039-1.209-0.115-1.738
	c-0.002-0.01-0.005-0.014-0.008-0.023V9.188h-0.207V8.376h-0.279v0.812h-0.209v2.396c-0.049-0.033-0.1-0.062-0.154-0.094V9.044
	C16.179,8.843,15.226,8.224,12.941,8.224z M2.5,6.741l2.521,1.473L4.297,8.96l1.17-0.213l-0.83,2.938l2.47-2.064l0.638,1.596
	l0.659-1.277l0.354,0.365v-1.26c0-0.777,0.786-1.252,1.818-1.518l1.618-1.035L9.788,6.235l0.649-2.801L8.731,5.2L8.255,3.206
	L7.538,5.067L5.585,2.554l0.618,3.15L4.464,5.319c0,0,0.527,1.01,0.822,1.617L2.5,6.741z M14.489,12.841h-3.034
	c-0.057,0-0.103,0.047-0.103,0.102c0,0.057,0.046,0.102,0.103,0.102h3.034c0.056,0,0.102-0.045,0.102-0.102
	C14.591,12.888,14.544,12.841,14.489,12.841z"/>
<g>
</g>
<g>
</g>
<g>
</g>
<g>
</g>
<g>
</g>
<g>
</g>
<g>
</g>
<g>
</g>
<g>
</g>
<g>
</g>
<g>
</g>
<g>
</g>
<g>
</g>
<g>
</g>
<g>
</g>
</svg>
