<?xml version="1.0" encoding="iso-8859-1"?>
<!-- Generator: Adobe Illustrator 16.0.4, SVG Export Plug-In . SVG Version: 6.00 Build 0)  -->
<!DOCTYPE svg PUBLIC "-//W3C//DTD SVG 1.1//EN" "http://www.w3.org/Graphics/SVG/1.1/DTD/svg11.dtd">
<svg version="1.1" id="Capa_1" xmlns="http://www.w3.org/2000/svg" xmlns:xlink="http://www.w3.org/1999/xlink" x="0px" y="0px"
	 width="15px" height="10.637px" viewBox="0 0 15 10.637" style="enable-background:new 0 0 15 10.637;" xml:space="preserve">
<path style="fill:#010002;" d="M15,4.26v6.377h-3.054c0.01-0.123,0.019-0.248,0.019-0.375c0-2.492-2.02-4.512-4.511-4.512
	s-4.511,2.02-4.511,4.512c0,0.127,0.009,0.252,0.019,0.375H0V4.26H15z M4.454,4.26c-0.503,0-0.908-0.408-0.908-0.906
	c0-0.502,0.405-0.908,0.908-0.908c0.5,0,0.907,0.406,0.907,0.908C5.361,3.852,4.954,4.26,4.454,4.26z M4.454,2.865
	c-0.27,0-0.489,0.215-0.489,0.488c0,0.268,0.22,0.488,0.489,0.488c0.268,0,0.488-0.221,0.488-0.488
	C4.942,3.08,4.722,2.865,4.454,2.865z M10.562,4.26c-0.498,0-0.907-0.408-0.907-0.906c0-0.502,0.409-0.908,0.907-0.908
	c0.502,0,0.908,0.406,0.908,0.908C11.47,3.852,11.063,4.26,10.562,4.26z M10.562,2.865c-0.268,0-0.488,0.215-0.488,0.488
	c0,0.268,0.221,0.488,0.488,0.488c0.271,0,0.489-0.221,0.489-0.488C11.051,3.08,10.833,2.865,10.562,2.865z M12.325,2.674
	c0-0.883-0.552-0.99-0.552-0.99c-0.807-0.111-2.198-0.168-2.198-0.168C9.448,1.293,8.858,0,8.516,0C8.4,0,5.937,0,5.502,0
	c-0.438,0-1.151,1.26-1.31,1.547c0,0-0.55,0.092-0.809,0.152C3.242,1.732,2.845,1.74,2.845,2.85H2.5v0.504h0.835
	c0-0.617,0.502-1.119,1.119-1.119s1.117,0.502,1.117,1.119h3.876c0-0.617,0.499-1.119,1.114-1.119c0.618,0,1.119,0.502,1.119,1.119
	H12.5v-0.68H12.325z M6.976,1.43H5.234c0.236-0.734,0.671-1.26,0.854-1.26c0.233,0,0.887,0,0.887,0V1.43z M7.3,1.43V0.17
	c0,0,0.898,0,1.128,0c0.23,0,0.742,1.064,0.885,1.338L7.3,1.43z"/>
<g>
</g>
<g>
</g>
<g>
</g>
<g>
</g>
<g>
</g>
<g>
</g>
<g>
</g>
<g>
</g>
<g>
</g>
<g>
</g>
<g>
</g>
<g>
</g>
<g>
</g>
<g>
</g>
<g>
</g>
</svg>
