<?xml version="1.0" encoding="iso-8859-1"?>
<!-- Generator: Adobe Illustrator 16.0.4, SVG Export Plug-In . SVG Version: 6.00 Build 0)  -->
<!DOCTYPE svg PUBLIC "-//W3C//DTD SVG 1.1//EN" "http://www.w3.org/Graphics/SVG/1.1/DTD/svg11.dtd">
<svg version="1.1" id="Capa_1" xmlns="http://www.w3.org/2000/svg" xmlns:xlink="http://www.w3.org/1999/xlink" x="0px" y="0px"
	 width="16.08px" height="15px" viewBox="0 0 16.08 15" style="enable-background:new 0 0 16.08 15;" xml:space="preserve">
<path style="fill:#010002;" d="M7.378,1.185c0.126,0.771-0.396,1.497-1.165,1.624C5.441,2.935,4.715,2.413,4.589,1.644
	C4.463,0.872,4.983,0.145,5.755,0.019C6.524-0.108,7.254,0.414,7.378,1.185z M6.937,6.788l1.251,1.999
	C8.364,9.067,8.733,9.158,9.02,8.99c0.286-0.169,0.386-0.535,0.226-0.826L8.928,7.59C8.653,7.099,8.384,6.606,8.11,6.114
	L7.552,5.102C7.488,4.985,7.426,4.854,7.358,4.715c-0.344-0.721-0.88-1.834-2.054-1.731C4.3,3.07,3.281,3.548,2.276,4.4
	c-1.19,0.938-2.021,2.3-2.056,2.358C0.183,6.82,0.146,6.88,0.116,6.937C0.114,6.939,0.112,6.941,0.11,6.943v0.001
	c-0.111,0.21-0.166,0.402-0.027,0.646c0.109,0.192,0.313,0.312,0.535,0.312c0.267,0,0.404-0.126,0.536-0.318l0,0
	C1.156,7.582,1.156,7.58,1.158,7.578C1.194,7.523,1.23,7.464,1.271,7.401c0.008-0.012,0.705-1.13,1.783-2.05
	c0.332-0.261,0.649-0.44,0.947-0.539L3.76,7.722C3.737,8.01,3.646,8.506,3.567,8.784l-0.54,1.896
	c-0.071,0.239-0.275,0.637-0.434,0.831l-1.461,1.811c-0.185,0.23-0.395,0.491-0.221,0.852c0.101,0.213,0.316,0.349,0.554,0.349
	c0.282,0,0.435-0.163,0.628-0.37l1.479-1.597c0.263-0.284,0.606-0.779,0.776-1.129l0.735-1.494L7.8,14.495
	C7.934,14.72,8.102,15,8.47,15l0,0c0.21,0,0.404-0.108,0.518-0.284c0.192-0.3,0.064-0.576-0.048-0.82l-2.195-4.77
	C6.658,8.939,6.61,8.558,6.646,8.354L6.937,6.788z M16.08,7.805c0-1.99-1.619-3.609-3.609-3.609h-1.533v1.823h1.533
	c0.985,0,1.786,0.801,1.786,1.786s-0.801,1.788-1.786,1.788h-0.319V8.615l-3.27,1.888l3.27,1.888v-0.978h0.356v-0.004
	C14.481,11.389,16.08,9.782,16.08,7.805z"/>
<g>
</g>
<g>
</g>
<g>
</g>
<g>
</g>
<g>
</g>
<g>
</g>
<g>
</g>
<g>
</g>
<g>
</g>
<g>
</g>
<g>
</g>
<g>
</g>
<g>
</g>
<g>
</g>
<g>
</g>
</svg>
