<?xml version="1.0" encoding="iso-8859-1"?>
<!-- Generator: Adobe Illustrator 16.0.4, SVG Export Plug-In . SVG Version: 6.00 Build 0)  -->
<!DOCTYPE svg PUBLIC "-//W3C//DTD SVG 1.1//EN" "http://www.w3.org/Graphics/SVG/1.1/DTD/svg11.dtd">
<svg version="1.1" id="Capa_1" xmlns="http://www.w3.org/2000/svg" xmlns:xlink="http://www.w3.org/1999/xlink" x="0px" y="0px"
	 width="20px" height="20px" viewBox="0 0 20 20" style="enable-background:new 0 0 20 20;" xml:space="preserve">
<path style="fill:#010002;" d="M16,0H4C1.8,0,0,1.8,0,4v12c0,2.2,1.8,4,4,4h12c2.2,0,4-1.8,4-4V4C20,1.8,18.2,0,16,0z M7.715,2.519
	c0.77-0.127,1.499,0.396,1.623,1.166c0.126,0.771-0.396,1.497-1.165,1.624C7.401,5.435,6.675,4.913,6.549,4.144
	C6.423,3.372,6.943,2.645,7.715,2.519z M10.947,17.216C10.834,17.392,10.64,17.5,10.43,17.5c-0.368,0-0.536-0.28-0.67-0.505
	l-2.715-4.563L6.31,13.926c-0.17,0.35-0.514,0.845-0.776,1.129l-1.479,1.597c-0.193,0.207-0.346,0.37-0.628,0.37
	c-0.237,0-0.453-0.136-0.554-0.349c-0.174-0.36,0.036-0.621,0.221-0.852l1.461-1.811c0.158-0.194,0.362-0.592,0.434-0.831
	l0.54-1.896c0.078-0.278,0.17-0.774,0.192-1.062l0.241-2.909C5.663,7.411,5.346,7.591,5.014,7.852
	C3.936,8.771,3.238,9.89,3.23,9.901c-0.04,0.062-0.076,0.122-0.112,0.177c-0.002,0.002-0.002,0.004-0.004,0.005
	c-0.132,0.192-0.27,0.318-0.536,0.318c-0.222,0-0.426-0.119-0.535-0.312C1.904,9.847,1.959,9.654,2.07,9.444V9.443
	c0.002-0.002,0.004-0.004,0.006-0.007C2.106,9.38,2.143,9.32,2.181,9.259C2.215,9.2,3.046,7.839,4.236,6.9
	C5.241,6.048,6.26,5.57,7.265,5.483c1.174-0.103,1.71,1.011,2.054,1.731c0.067,0.14,0.13,0.271,0.193,0.387l0.559,1.013
	c0.273,0.492,0.543,0.984,0.817,1.476l0.317,0.574c0.16,0.291,0.061,0.657-0.226,0.826c-0.286,0.168-0.655,0.077-0.832-0.203
	L8.896,9.288l-0.29,1.566c-0.036,0.203,0.012,0.585,0.098,0.771l2.195,4.77C11.012,16.64,11.14,16.916,10.947,17.216z
	 M14.468,13.909v0.004h-0.356v0.978l-3.27-1.888l3.27-1.888v0.978h0.319c0.985,0,1.786-0.803,1.786-1.788s-0.801-1.786-1.786-1.786
	h-1.533V6.695h1.533c1.99,0,3.609,1.619,3.609,3.609C18.04,12.282,16.441,13.889,14.468,13.909z"/>
<g>
</g>
<g>
</g>
<g>
</g>
<g>
</g>
<g>
</g>
<g>
</g>
<g>
</g>
<g>
</g>
<g>
</g>
<g>
</g>
<g>
</g>
<g>
</g>
<g>
</g>
<g>
</g>
<g>
</g>
</svg>
