<?xml version="1.0" encoding="iso-8859-1"?>
<!-- Generator: Adobe Illustrator 16.0.4, SVG Export Plug-In . SVG Version: 6.00 Build 0)  -->
<!DOCTYPE svg PUBLIC "-//W3C//DTD SVG 1.1//EN" "http://www.w3.org/Graphics/SVG/1.1/DTD/svg11.dtd">
<svg version="1.1" id="Capa_1" xmlns="http://www.w3.org/2000/svg" xmlns:xlink="http://www.w3.org/1999/xlink" x="0px" y="0px"
	 width="20px" height="20px" viewBox="0 0 20 20" style="enable-background:new 0 0 20 20;" xml:space="preserve">
<path style="fill:#010002;" d="M16,0H4C1.8,0,0,1.8,0,4v12c0,2.2,1.8,4,4,4h12c2.2,0,4-1.8,4-4V4C20,1.8,18.2,0,16,0z M10.152,1.809
	l2.117,2.117h-1.475v4.652H9.512V3.926H8.039L10.152,1.809z M19,6.16h-3.947v12.031H4.947V6.16H1v-1.5h5.447v6.32
	c0.242-0.087,0.423-0.296,0.576-0.65c0.002-0.013,0.008-0.025,0.016-0.035c0.02-0.031,0.047-0.051,0.084-0.051
	c0.035,0,0.064,0.02,0.084,0.051h0.002c0.002,0.002,0.002,0.005,0.004,0.01c0.004,0.005,0.008,0.013,0.012,0.021
	c0.205,0.487,0.463,0.705,0.861,0.705H8.09c0.398,0,0.656-0.218,0.863-0.7c0.002-0.013,0.01-0.025,0.018-0.035
	c0.018-0.031,0.047-0.051,0.084-0.051c0.035,0,0.062,0.02,0.084,0.051c0.002,0.002,0.004,0.005,0.006,0.01
	c0.004,0.005,0.006,0.013,0.008,0.021c0.203,0.479,0.461,0.695,0.848,0.703c0.387-0.008,0.641-0.224,0.844-0.698
	c0.006-0.013,0.01-0.025,0.018-0.035c0.02-0.031,0.049-0.051,0.084-0.051s0.062,0.02,0.084,0.051h0.002
	c0,0.002,0.002,0.005,0.006,0.01c0.002,0.005,0.004,0.013,0.008,0.021c0.205,0.487,0.467,0.705,0.865,0.705h0.002
	c0.396,0,0.658-0.218,0.863-0.7c0.002-0.013,0.008-0.025,0.016-0.035c0.02-0.031,0.051-0.051,0.084-0.051
	c0.035,0,0.064,0.02,0.084,0.051h0.002c0.002,0.002,0.002,0.005,0.004,0.01c0.004,0.005,0.006,0.013,0.008,0.021
	c0.154,0.359,0.336,0.569,0.58,0.657V4.66H19V6.16z"/>
<g>
</g>
<g>
</g>
<g>
</g>
<g>
</g>
<g>
</g>
<g>
</g>
<g>
</g>
<g>
</g>
<g>
</g>
<g>
</g>
<g>
</g>
<g>
</g>
<g>
</g>
<g>
</g>
<g>
</g>
</svg>
