<?xml version="1.0" encoding="iso-8859-1"?>
<!-- Generator: Adobe Illustrator 16.0.4, SVG Export Plug-In . SVG Version: 6.00 Build 0)  -->
<!DOCTYPE svg PUBLIC "-//W3C//DTD SVG 1.1//EN" "http://www.w3.org/Graphics/SVG/1.1/DTD/svg11.dtd">
<svg version="1.1" id="Capa_1" xmlns="http://www.w3.org/2000/svg" xmlns:xlink="http://www.w3.org/1999/xlink" x="0px" y="0px"
	 width="20px" height="17.383px" viewBox="0 0 20 17.383" style="enable-background:new 0 0 20 17.383;" xml:space="preserve">
<path style="fill:#010002;" d="M20,2.852v1.5h-4.947v13.031h-1.227h-0.273h-3.549H6.447H6.168H4.947V4.352H0v-1.5h6.447v6.32
	c0.242-0.087,0.423-0.296,0.576-0.65c0.002-0.013,0.008-0.025,0.016-0.035c0.02-0.031,0.047-0.051,0.084-0.051
	c0.035,0,0.064,0.02,0.084,0.051h0.002c0.002,0.002,0.002,0.005,0.004,0.01c0.004,0.005,0.008,0.013,0.012,0.021
	C7.43,9.004,7.688,9.222,8.086,9.222H8.09c0.398,0,0.656-0.218,0.863-0.7c0.002-0.013,0.01-0.025,0.018-0.035
	c0.018-0.031,0.047-0.051,0.084-0.051c0.035,0,0.062,0.02,0.084,0.051c0.002,0.002,0.004,0.005,0.006,0.01
	C9.148,8.501,9.15,8.509,9.152,8.517C9.355,8.996,9.613,9.212,10,9.22c0.387-0.008,0.641-0.224,0.844-0.698
	c0.006-0.013,0.01-0.025,0.018-0.035c0.02-0.031,0.049-0.051,0.084-0.051s0.062,0.02,0.084,0.051h0.002
	c0,0.002,0.002,0.005,0.006,0.01c0.002,0.005,0.004,0.013,0.008,0.021c0.205,0.487,0.467,0.705,0.865,0.705h0.002
	c0.396,0,0.658-0.218,0.863-0.7c0.002-0.013,0.008-0.025,0.016-0.035c0.02-0.031,0.051-0.051,0.084-0.051
	c0.035,0,0.064,0.02,0.084,0.051h0.002c0.002,0.002,0.002,0.005,0.004,0.01c0.004,0.005,0.006,0.013,0.008,0.021
	c0.154,0.359,0.336,0.569,0.58,0.657V2.852H20z M9.512,6.77h1.283V2.117h1.475L10.152,0L8.039,2.117h1.473V6.77z"/>
<g>
</g>
<g>
</g>
<g>
</g>
<g>
</g>
<g>
</g>
<g>
</g>
<g>
</g>
<g>
</g>
<g>
</g>
<g>
</g>
<g>
</g>
<g>
</g>
<g>
</g>
<g>
</g>
<g>
</g>
</svg>
