<?xml version="1.0" encoding="iso-8859-1"?>
<!-- Generator: Adobe Illustrator 16.0.4, SVG Export Plug-In . SVG Version: 6.00 Build 0)  -->
<!DOCTYPE svg PUBLIC "-//W3C//DTD SVG 1.1//EN" "http://www.w3.org/Graphics/SVG/1.1/DTD/svg11.dtd">
<svg version="1.1" id="Capa_1" xmlns="http://www.w3.org/2000/svg" xmlns:xlink="http://www.w3.org/1999/xlink" x="0px" y="0px"
	 width="20px" height="20px" viewBox="0 0 20 20" style="enable-background:new 0 0 20 20;" xml:space="preserve">
<path style="fill:#010002;" d="M16,0H4C1.8,0,0,1.8,0,4v12c0,2.2,1.8,4,4,4h12c2.2,0,4-1.8,4-4V4C20,1.8,18.2,0,16,0z M15.006,8.5
	c0.232,0.102,0.438,0.236,0.605,0.408c0.174,0.17,0.309,0.375,0.412,0.607c0.104,0.238,0.15,0.486,0.15,0.756
	c0,0.264-0.047,0.512-0.15,0.74c-0.104,0.23-0.238,0.428-0.412,0.598c-0.168,0.176-0.373,0.312-0.605,0.412
	c-0.236,0.104-0.486,0.154-0.754,0.154h-0.191v0.418c0,0.277-0.09,0.504-0.275,0.684c-0.184,0.18-0.41,0.266-0.676,0.266H8.805
	c-0.266,0-0.492-0.086-0.674-0.266c-0.184-0.18-0.279-0.406-0.279-0.684V8.348h6.4C14.52,8.348,14.77,8.398,15.006,8.5z
	 M3.861,5.846C3.867,3.588,5.58,1.693,7.777,1.684c2.18,0.01,3.879,1.877,3.909,4.109h1.155l-1.811,1.811L9.223,5.793H10.3
	c-0.026-1.535-1.194-2.721-2.522-2.721c-1.348,0-2.527,1.211-2.529,2.773v7.676H3.861V5.846z M16,18.316H4
	c-1.633,0-2.96-1.312-2.994-2.938c0.186-0.201,0.353-0.454,0.497-0.805c0.006-0.025,0.014-0.045,0.026-0.066
	c0.035-0.053,0.088-0.088,0.146-0.088c0.063,0,0.113,0.035,0.146,0.088h0.006c0.001,0.01,0.004,0.012,0.008,0.02
	c0.006,0.014,0.011,0.021,0.016,0.035c0.359,0.881,0.812,1.271,1.506,1.271h0.003c0.688,0,1.145-0.389,1.504-1.26
	c0.005-0.025,0.013-0.045,0.025-0.066h0.002c0.033-0.053,0.085-0.088,0.147-0.088c0.061,0,0.112,0.035,0.146,0.088h0.003
	c0.001,0.01,0.005,0.012,0.008,0.02c0.006,0.014,0.011,0.021,0.015,0.035c0.354,0.861,0.798,1.25,1.465,1.266
	c0.665-0.016,1.109-0.402,1.461-1.254c0.007-0.025,0.017-0.045,0.027-0.066c0.036-0.053,0.086-0.088,0.146-0.088
	c0.06,0,0.111,0.035,0.148,0.088h0.001c0.003,0.01,0.006,0.012,0.008,0.02c0.006,0.014,0.014,0.021,0.018,0.035
	c0.359,0.881,0.812,1.271,1.507,1.271h0.005c0.688,0,1.141-0.389,1.499-1.26c0.007-0.025,0.017-0.045,0.027-0.066
	c0.035-0.053,0.086-0.088,0.146-0.088s0.113,0.035,0.148,0.088h0.001c0.003,0.01,0.008,0.012,0.01,0.02
	c0.006,0.014,0.012,0.021,0.016,0.035c0.354,0.867,0.8,1.256,1.475,1.268c0.67-0.012,1.115-0.4,1.471-1.256
	c0.005-0.025,0.014-0.045,0.026-0.066c0.035-0.053,0.085-0.088,0.146-0.088c0.062,0,0.114,0.035,0.146,0.088h0.004
	c0.002,0.01,0.006,0.012,0.011,0.02c0.004,0.014,0.009,0.021,0.014,0.035c0.358,0.881,0.812,1.271,1.506,1.271h0.005
	c0.689,0,1.143-0.389,1.501-1.26c0.006-0.025,0.015-0.045,0.027-0.066c0.035-0.053,0.087-0.088,0.147-0.088
	c0.062,0,0.113,0.035,0.146,0.088h0.002c0.004,0.01,0.007,0.012,0.012,0.02c0.003,0.014,0.009,0.021,0.012,0.035
	c0.146,0.357,0.314,0.613,0.501,0.816C18.96,17.004,17.633,18.316,16,18.316z M14.252,11.412h-0.191V9.111h0.191
	c0.33,0,0.604,0.109,0.828,0.328c0.225,0.227,0.336,0.5,0.336,0.832c0,0.316-0.111,0.584-0.336,0.807S14.582,11.412,14.252,11.412z"
	/>
<g>
</g>
<g>
</g>
<g>
</g>
<g>
</g>
<g>
</g>
<g>
</g>
<g>
</g>
<g>
</g>
<g>
</g>
<g>
</g>
<g>
</g>
<g>
</g>
<g>
</g>
<g>
</g>
<g>
</g>
</svg>
