<?xml version="1.0" encoding="iso-8859-1"?>
<!-- Generator: Adobe Illustrator 16.0.4, SVG Export Plug-In . SVG Version: 6.00 Build 0)  -->
<!DOCTYPE svg PUBLIC "-//W3C//DTD SVG 1.1//EN" "http://www.w3.org/Graphics/SVG/1.1/DTD/svg11.dtd">
<svg version="1.1" id="Capa_1" xmlns="http://www.w3.org/2000/svg" xmlns:xlink="http://www.w3.org/1999/xlink" x="0px" y="0px"
	 width="20px" height="20.002px" viewBox="0 0 20 20.002" style="enable-background:new 0 0 20 20.002;" xml:space="preserve">
<path style="fill:#010002;" d="M16,0H4C1.8,0,0,1.8,0,4v12.002c0,2.2,1.8,4,4,4h12c2.2,0,4-1.8,4-4V4C20,1.8,18.2,0,16,0z
	 M3.718,8.063c-2.263,0-2.659,0-2.718,0V6.108c1.651,0,2.239,0,2.443,0V5.483c0-0.183,0.147-0.328,0.327-0.328h0.835V4.754
	C4.537,4.713,4.479,4.663,4.432,4.598c-0.996,0-1.546,0-1.849,0c-0.11,0.146-0.276,0.244-0.471,0.244
	c-0.335,0-0.607-0.271-0.607-0.606c0-0.33,0.272-0.603,0.607-0.603c0.198,0,0.369,0.104,0.479,0.256c0.71,0,1.319,0,1.832,0
	c0.11-0.152,0.279-0.256,0.48-0.256s0.369,0.104,0.479,0.256c0.9,0,1.395,0,1.66,0c0.11-0.152,0.278-0.256,0.479-0.256
	c0.334,0,0.605,0.272,0.605,0.603c0,0.335-0.271,0.606-0.605,0.606c-0.194,0-0.361-0.099-0.472-0.244c-0.962,0-1.439,0-1.676,0
	C5.327,4.662,5.271,4.711,5.203,4.753v0.402h0.786c0.181,0,0.328,0.146,0.328,0.328l0.011,0.625c2.006,0,2.011,0,2.011,0
	c0.86,0,1.511,0.617,1.511,1.335c0,0.588,0,0.925,0,1.128c0.125,0.046,0.215,0.163,0.215,0.306c0,0.182-0.146,0.324-0.327,0.324
	H7.708c-0.181,0-0.328-0.143-0.328-0.324c0-0.113,0.061-0.207,0.146-0.265c-0.031-0.36-0.139-0.549-0.432-0.549
	c-0.976,0-0.976,0-0.976,0c-0.268,0.535-0.712,0.8-1.243,0.8C4.34,8.863,3.984,8.599,3.718,8.063z M9.673,11.887
	c0,1.463-1.956,1.463-1.956,0c0-0.268,0.799-2.224,0.977-2.488C8.872,9.753,9.673,11.619,9.673,11.887z M19,10.291v2.911h-2.137
	l-3.925,2.971c-0.148,0.119-0.328,0.196-0.524,0.196h-6.03c-0.473,0-0.857-0.383-0.857-0.857c0-0.471,0.385-0.854,0.857-0.854h3.48
	c0.047,0.207,0.133,0.404,0.287,0.562c0.446,0.453,1.176,0.464,1.63,0.022l1.665-1.622l-0.214-0.219l-1.663,1.622
	c-0.336,0.323-0.872,0.315-1.2-0.017c-0.097-0.103-0.167-0.226-0.202-0.357c-0.042-0.141-0.044-0.287-0.016-0.427
	c0.04-0.158,0.121-0.299,0.237-0.41l3.644-3.55h4.95v0.028H19z"/>
<g>
</g>
<g>
</g>
<g>
</g>
<g>
</g>
<g>
</g>
<g>
</g>
<g>
</g>
<g>
</g>
<g>
</g>
<g>
</g>
<g>
</g>
<g>
</g>
<g>
</g>
<g>
</g>
<g>
</g>
</svg>
