<?xml version="1.0" encoding="iso-8859-1"?>
<!-- Generator: Adobe Illustrator 16.0.4, SVG Export Plug-In . SVG Version: 6.00 Build 0)  -->
<!DOCTYPE svg PUBLIC "-//W3C//DTD SVG 1.1//EN" "http://www.w3.org/Graphics/SVG/1.1/DTD/svg11.dtd">
<svg version="1.1" id="Capa_1" xmlns="http://www.w3.org/2000/svg" xmlns:xlink="http://www.w3.org/1999/xlink" x="0px" y="0px"
	 width="20px" height="20.002px" viewBox="0 0 20 20.002" style="enable-background:new 0 0 20 20.002;" xml:space="preserve">
<path style="fill:#010002;" d="M7.605,14.487c0.161,0.159,0.382,0.201,0.281,0.302l-1.168,0.983
	c-0.234,0.236-0.521-0.243-0.409-0.355l0.992-1.212C7.402,14.103,7.444,14.324,7.605,14.487z M10.022,11.191
	c0.374,0.375,1.306,0.069,0.812-1.238c-0.44-1.166,0.196-1.67,0.196-1.67C10.728,8.384,9.187,10.354,10.022,11.191z M8.816,12.397
	c0.375,0.374,1.308,0.068,0.812-1.241c-0.44-1.164,0.196-1.67,0.196-1.67C9.522,9.587,7.978,11.56,8.816,12.397z M13.307,8.827
	c-0.292,0.064-2.729,1.055-1.845,1.939C12.351,11.654,13.307,8.827,13.307,8.827z M10.954,12.48
	c-1.307-0.491-1.615,0.441-1.238,0.816c0.837,0.837,2.809-0.707,2.91-1.009C12.626,12.288,12.121,12.922,10.954,12.48z M20,4v12.002
	c0,2.2-1.8,4-4,4H4c-2.2,0-4-1.8-4-4V4c0-2.2,1.8-4,4-4h12C18.2,0,20,1.8,20,4z M4.481,4.072l1.97,1.836h7.098l1.971-1.836
	c0,0-0.979-1.37-2.597-1.55c-1.579-0.176-2.132,0.795-2.922,0.832C9.209,3.317,8.66,2.347,7.078,2.522
	C5.462,2.702,4.481,4.072,4.481,4.072z M14.082,7.088H5.919c0,0-3.919,3.085-2.632,8.771c0,0,0.429,1.643,2.399,1.643h8.631
	c1.967,0,2.396-1.643,2.396-1.643C18,10.173,14.082,7.088,14.082,7.088z M9.714,13.724c-1.31-0.494-1.616,0.439-1.238,0.816
	c0.836,0.835,2.81-0.71,2.908-1.011C11.384,13.529,10.877,14.165,9.714,13.724z M8.388,12.399c-0.44-1.166,0.197-1.67,0.197-1.67
	c-0.307,0.101-1.849,2.073-1.011,2.908C7.947,14.015,8.883,13.707,8.388,12.399z M12.162,11.277
	c-1.312-0.494-1.616,0.439-1.241,0.814c0.836,0.837,2.81-0.705,2.911-1.009C13.832,11.083,13.323,11.721,12.162,11.277z"/>
<g>
</g>
<g>
</g>
<g>
</g>
<g>
</g>
<g>
</g>
<g>
</g>
<g>
</g>
<g>
</g>
<g>
</g>
<g>
</g>
<g>
</g>
<g>
</g>
<g>
</g>
<g>
</g>
<g>
</g>
</svg>
