<?xml version="1.0" encoding="iso-8859-1"?>
<!-- Generator: Adobe Illustrator 16.0.4, SVG Export Plug-In . SVG Version: 6.00 Build 0)  -->
<!DOCTYPE svg PUBLIC "-//W3C//DTD SVG 1.1//EN" "http://www.w3.org/Graphics/SVG/1.1/DTD/svg11.dtd">
<svg version="1.1" id="Capa_1" xmlns="http://www.w3.org/2000/svg" xmlns:xlink="http://www.w3.org/1999/xlink" x="0px" y="0px"
	 width="20px" height="20px" viewBox="0 0 20 20" style="enable-background:new 0 0 20 20;" xml:space="preserve">
<path style="fill:#010002;" d="M16,0H4C1.8,0,0,1.8,0,4v12c0,2.2,1.8,4,4,4h12c2.2,0,4-1.8,4-4V4C20,1.8,18.2,0,16,0z
	 M12.897,11.447c0.161-0.82,0.171-1.598,0.188-2.2c0.011-0.866,0.024-1.403,0.025-1.403l0.028,1.407
	c0,0.595,0.012,1.366-0.137,2.187c0.004,0.189,0.035,0.46-0.035,0.828c-0.216,0.03-0.436,0.056-0.663,0.077
	c0.004-0.017,0.006-0.031,0.01-0.048C12.464,11.794,12.727,11.577,12.897,11.447z M12.586,10.177
	c0.101-0.772,0.072-1.495,0.054-2.056l-0.046-1.306c0,0,0.044,0.501,0.096,1.307c0.035,0.553,0.081,1.268-0.008,2.04
	c0.019,0.216,0.087,0.535-0.02,1.022c-0.124,0.549-0.42,0.819-0.496,0.931c-0.034-0.147-0.199-0.531-0.071-1.111
	C12.199,10.527,12.435,10.31,12.586,10.177z M12.2,7.018c0.06,0.511,0.141,1.17,0.104,1.891c0.03,0.199,0.113,0.49,0.044,0.949
	c-0.08,0.517-0.336,0.789-0.399,0.897c-0.041-0.135-0.223-0.48-0.14-1.027c0.066-0.45,0.273-0.667,0.407-0.798
	c0.048-0.723-0.016-1.391-0.062-1.911l-0.107-1.208C12.045,5.811,12.11,6.274,12.2,7.018z M11.667,5.939
	c0.084,0.468,0.195,1.072,0.203,1.74c0.04,0.182,0.134,0.446,0.099,0.875c-0.041,0.48-0.259,0.75-0.311,0.855
	c-0.047-0.122-0.236-0.43-0.194-0.942c0.033-0.421,0.211-0.635,0.327-0.764c0.003-0.671-0.095-1.285-0.165-1.762l-0.165-1.11
	L11.667,5.939z M11.078,4.887c0.105,0.425,0.242,0.973,0.291,1.587c0.048,0.165,0.149,0.4,0.145,0.797
	c-0.006,0.445-0.189,0.708-0.228,0.809c-0.051-0.109-0.247-0.381-0.241-0.855c0.004-0.389,0.154-0.598,0.252-0.723
	c-0.04-0.617-0.165-1.174-0.258-1.609l-0.212-1.011L11.078,4.887z M9.505,6.689c0.25,0.378,0.547,0.88,0.922,1.409
	c0.169,0.042,0.438,0.117,0.692,0.454c0.308,0.412,0.289,0.777,0.306,0.903c-0.097-0.07-0.415-0.207-0.695-0.582
	c-0.25-0.333-0.315-0.586-0.382-0.752c-0.366-0.528-0.645-1.03-0.879-1.409C9.128,6.16,8.891,5.841,8.892,5.84
	C8.891,5.841,9.146,6.148,9.505,6.689z M8.664,4.821c0,0.001,0.238,0.283,0.576,0.781c0.237,0.348,0.519,0.81,0.875,1.293
	c0.155,0.036,0.407,0.103,0.646,0.41c0.292,0.377,0.283,0.713,0.299,0.829c-0.09-0.062-0.387-0.184-0.653-0.525
	c-0.235-0.306-0.301-0.539-0.367-0.69C9.695,6.434,9.43,5.972,9.208,5.624C8.887,5.116,8.664,4.823,8.664,4.821z M10.428,3.867
	c0.119,0.382,0.282,0.873,0.367,1.43c0.054,0.147,0.166,0.356,0.185,0.718c0.028,0.408-0.124,0.662-0.153,0.756
	c-0.053-0.095-0.247-0.33-0.277-0.765C10.529,5.65,10.65,5.45,10.73,5.328c-0.077-0.561-0.229-1.062-0.337-1.452
	c-0.165-0.559-0.258-0.909-0.257-0.909L10.428,3.867z M8.778,2.544c0.12,0.193,0.644,1.017,1.139,2.148
	c0.102,0.057,0.305,0.167,0.425,0.442c0.136,0.33,0.003,0.553-0.017,0.658c-0.096-0.089-0.292-0.194-0.413-0.484
	c-0.099-0.227-0.07-0.43-0.049-0.551C9.306,3.442,8.743,2.503,8.752,2.5L8.778,2.544z M8.95,4.509
	C9.174,4.826,9.435,5.25,9.767,5.691c0.144,0.032,0.373,0.093,0.599,0.372c0.272,0.344,0.269,0.65,0.288,0.755
	c-0.084-0.057-0.36-0.162-0.607-0.476C9.822,6.066,9.761,5.851,9.7,5.712c-0.324-0.441-0.57-0.866-0.78-1.184
	C8.622,4.062,8.41,3.796,8.412,3.794C8.41,3.796,8.636,4.051,8.95,4.509z M8.883,7.908c0.291,0.449,0.652,1.007,0.968,1.656
	C9.922,9.678,9.997,9.8,10.077,9.94c0.251,0.421,0.532,0.967,0.876,1.558c0.031-0.103,0.067-0.188,0.098-0.259
	c-0.115-0.341-0.246-0.666-0.383-0.97c-0.312-0.522-0.562-1.007-0.779-1.387C9.52,8.237,9.259,7.866,9.26,7.864
	C9.259,7.866,9.541,8.223,9.931,8.855c0.075,0.124,0.156,0.259,0.239,0.402c-0.063-0.119-0.124-0.235-0.182-0.344L9.222,7.479
	c-0.001,0,0.324,0.537,0.824,1.411c0.228,0.399,0.499,0.878,0.751,1.42c0.042,0.066,0.083,0.132,0.125,0.199
	c0.149,0.044,0.371,0.115,0.59,0.336c-0.045-0.107-0.092-0.211-0.136-0.312c-0.117-0.095-0.246-0.22-0.367-0.391
	c-0.259-0.365-0.325-0.639-0.393-0.817c-0.379-0.574-0.67-1.118-0.915-1.528C9.345,7.198,9.095,6.854,9.096,6.852
	C9.095,6.853,9.363,7.185,9.739,7.771c0.264,0.41,0.573,0.955,0.965,1.53c0.036,0.009,0.075,0.021,0.118,0.035
	c-0.288-0.61-0.454-0.972-0.453-0.972l0.511,0.993c0.166,0.064,0.368,0.182,0.557,0.445c0.322,0.451,0.289,0.846,0.302,0.983
	c-0.041-0.032-0.12-0.077-0.219-0.144c0.081,0.172,0.162,0.352,0.242,0.541c0.085,0.15,0.138,0.292,0.17,0.419
	c0.092,0.24,0.176,0.491,0.251,0.751c-0.041,0.003-0.082,0.006-0.124,0.009c-0.026-0.091-0.051-0.182-0.079-0.27
	c0,0.013,0,0.027,0,0.038c-0.076-0.062-0.282-0.174-0.502-0.399c0.037,0.078,0.073,0.165,0.107,0.258
	c0.101,0.085,0.203,0.197,0.3,0.35c0.007,0.012,0.012,0.023,0.019,0.035c-0.314,0.021-0.635,0.033-0.959,0.035
	c-0.078-0.322-0.067-0.576-0.025-0.777c-0.103-0.179-0.198-0.353-0.288-0.521c0.145,0.56,0.022,0.956,0.011,1.102
	c-0.12-0.129-0.514-0.423-0.72-1.077c-0.171-0.537-0.055-0.884,0.024-1.1C9.608,9.203,9.169,8.49,8.833,7.934L8.049,6.64
	C8.048,6.64,8.375,7.124,8.883,7.908z M7.281,11.173c-0.771-0.53-1.271-0.811-1.269-0.812c-0.001,0.001,0.514,0.257,1.303,0.763
	c0.501,0.322,1.115,0.76,1.822,1.205c-0.078-0.008-0.158-0.014-0.235-0.023C8.274,11.888,7.728,11.481,7.281,11.173z M7.909,12.149
	c-0.047-0.009-0.092-0.02-0.138-0.03c-0.649-0.458-1.064-0.692-1.062-0.695C6.707,11.426,7.183,11.666,7.909,12.149z M8.349,11.294
	c-0.745-0.447-1.372-0.905-1.875-1.238C5.743,9.573,5.27,9.315,5.271,9.314c-0.002,0,0.484,0.235,1.232,0.696
	c0.524,0.323,1.173,0.773,1.93,1.214c0.23-0.039,0.606-0.092,1.108,0.185c0.612,0.339,0.791,0.797,0.88,0.942
	c-0.158-0.035-0.626-0.035-1.18-0.345C8.747,11.731,8.525,11.459,8.349,11.294z M4.487,8.288C4.485,8.29,4.941,8.502,5.646,8.922
	c0.491,0.295,1.104,0.704,1.817,1.101c0.214-0.04,0.562-0.095,1.033,0.152c0.577,0.302,0.754,0.721,0.84,0.853
	c-0.146-0.028-0.582-0.019-1.104-0.294c-0.467-0.246-0.68-0.495-0.847-0.644C6.683,9.687,6.091,9.27,5.617,8.966
	C4.93,8.525,4.486,8.29,4.487,8.288z M7.69,6.976c0.352,0.479,0.808,1.097,1.183,1.84c0.145,0.182,0.396,0.429,0.589,0.925
	c0.217,0.559,0.117,0.971,0.116,1.116c-0.119-0.112-0.504-0.359-0.735-0.953C8.65,9.417,8.736,9.087,8.795,8.884
	c-0.365-0.75-0.81-1.385-1.151-1.882L6.851,5.845L7.69,6.976z M6.445,6.103c0.351,0.422,0.806,0.964,1.198,1.624
	c0.145,0.16,0.389,0.371,0.601,0.816C8.48,9.043,8.417,9.431,8.427,9.563C8.311,9.468,7.94,9.265,7.687,8.731
	c-0.208-0.436-0.151-0.745-0.11-0.936C7.195,7.126,6.749,6.568,6.405,6.13L5.611,5.111L6.445,6.103z M5.149,5.298
	c0.344,0.366,0.798,0.83,1.199,1.409C6.49,6.843,6.731,7.019,6.951,7.414c0.255,0.441,0.222,0.802,0.241,0.923
	C7.078,8.257,6.73,8.095,6.458,7.625C6.24,7.237,6.269,6.952,6.292,6.774c-0.393-0.587-0.84-1.068-1.177-1.448
	c-0.493-0.54-0.79-0.882-0.788-0.882L5.149,5.298z M2.554,4.667c0.242,0.155,1.288,0.805,2.467,1.815
	c0.148,0.011,0.438,0.031,0.725,0.277c0.335,0.298,0.306,0.616,0.34,0.744c-0.159-0.052-0.439-0.067-0.733-0.33
	c-0.236-0.202-0.315-0.444-0.358-0.59C3.644,5.398,2.492,4.639,2.5,4.63L2.554,4.667z M3.823,6.773
	c0.427,0.238,0.957,0.58,1.574,0.9c0.181-0.037,0.475-0.086,0.884,0.108C6.777,8.028,6.942,8.37,7.02,8.478
	c-0.126-0.02-0.498,0.003-0.949-0.221C5.666,8.063,5.478,7.855,5.332,7.731C4.724,7.404,4.211,7.057,3.8,6.811
	C3.207,6.441,2.821,6.252,2.821,6.25C2.821,6.252,3.216,6.422,3.823,6.773z M3.67,7.267C3.669,7.269,4.094,7.462,4.751,7.844
	C5.211,8.111,5.783,8.483,6.45,8.84c0.198-0.038,0.518-0.094,0.958,0.126c0.538,0.271,0.71,0.652,0.792,0.772
	c-0.136-0.024-0.54-0.007-1.028-0.254C6.738,9.266,6.536,9.038,6.379,8.902C5.723,8.54,5.169,8.16,4.727,7.884
	C4.083,7.483,3.669,7.27,3.67,7.267z M17.5,11.287c-0.043,1.107-0.42,2.308-0.999,3.415c0,0-1.382,2.799-5.721,2.799
	s-5.746-2.774-5.746-2.774c-0.58-1.113-0.932-2.305-0.976-3.439h0.003c-0.002-0.029-0.003-0.058-0.003-0.088
	c0-0.532,0.329-1.03,0.896-1.46l0.604,0.387c-0.374,0.251-0.59,0.531-0.59,0.829c0,1.048,2.602,1.898,5.812,1.898
	c3.209,0,5.811-0.85,5.811-1.898c0-0.725-1.248-1.355-3.08-1.675l0.008-0.762c2.345,0.459,3.982,1.486,3.982,2.681
	c0,0.03-0.001,0.059-0.003,0.088H17.5z"/>
<g>
</g>
<g>
</g>
<g>
</g>
<g>
</g>
<g>
</g>
<g>
</g>
<g>
</g>
<g>
</g>
<g>
</g>
<g>
</g>
<g>
</g>
<g>
</g>
<g>
</g>
<g>
</g>
<g>
</g>
</svg>
