<?xml version="1.0" encoding="iso-8859-1"?>
<!-- Generator: Adobe Illustrator 16.0.4, SVG Export Plug-In . SVG Version: 6.00 Build 0)  -->
<!DOCTYPE svg PUBLIC "-//W3C//DTD SVG 1.1//EN" "http://www.w3.org/Graphics/SVG/1.1/DTD/svg11.dtd">
<svg version="1.1" id="Capa_1" xmlns="http://www.w3.org/2000/svg" xmlns:xlink="http://www.w3.org/1999/xlink" x="0px" y="0px"
	 width="14.999px" height="9.706px" viewBox="0 0 14.999 9.706" style="enable-background:new 0 0 14.999 9.706;"
	 xml:space="preserve">
<path style="fill:#010002;" d="M5.082,4.54C3.59,3.922,2.279,3.866,1.076,4.366L1.002,4.184c1.254-0.52,2.615-0.462,4.156,0.175
	L5.082,4.54z M5.158,5.552C3.619,4.916,2.256,4.858,1.002,5.377l0.074,0.182c1.207-0.498,2.516-0.441,4.006,0.175L5.158,5.552z
	 M5.158,3.165C3.619,2.529,2.256,2.472,1.002,2.989l0.074,0.183c1.207-0.499,2.516-0.442,4.006,0.175L5.158,3.165z M11.797,5.52
	l0.598-0.599v4.526H7.277C7.1,9.599,6.684,9.706,6.197,9.706S5.295,9.599,5.119,9.447H0V2.468C0,1.85,0,1.445,0,1.423
	C3.369-0.04,5.83,1.395,6.258,1.809c0.299-0.276,2.475-1.558,5.309-0.69l-0.57,0.57c-0.395-0.114-0.832-0.185-1.299-0.185
	c-1.691,0-3.064,0.561-3.064,1.599v5.845c0-0.274,2.395-1.881,5.164-0.127V5.52z M5.801,3.103c0-1.038-1.373-1.599-3.064-1.599
	c-0.812,0-1.551,0.194-2.098,0.511V8.82c2.766-1.754,5.162-0.147,5.162,0.127V3.103z M7.021,4.358L7.096,4.54
	c0.588-0.244,1.193-0.376,1.789-0.446l0.086-0.207C8.322,3.952,7.662,4.094,7.021,4.358z M7.021,5.552l0.074,0.182
	c0.42-0.173,0.848-0.292,1.277-0.377l0.084-0.209C7.977,5.234,7.492,5.357,7.021,5.552z M7.021,3.165l0.074,0.182
	c0.902-0.373,1.844-0.521,2.727-0.483l0.186-0.186C9.047,2.609,8.01,2.756,7.021,3.165z M14.789,1.904l-3.635,3.634L10.221,5.92
	c-0.215,0.085-0.516,0.209-0.773,0.312c-0.07,0.029-0.154,0.062-0.211,0.086L8.793,6.5c-0.27,0.108-0.402-0.022-0.291-0.294
	L8.68,5.764c0.025-0.058,0.059-0.14,0.088-0.211C8.873,5.296,8.994,4.992,9.08,4.78l0.383-0.935l3.633-3.634
	c0.223-0.224,0.533-0.279,0.688-0.123l1.129,1.129C15.066,1.373,15.012,1.682,14.789,1.904z M10.615,5.43L9.57,4.384L9.363,4.896
	L9.242,5.191L9.125,5.48L9.52,5.876l0.588-0.239L10.615,5.43z"/>
<g>
</g>
<g>
</g>
<g>
</g>
<g>
</g>
<g>
</g>
<g>
</g>
<g>
</g>
<g>
</g>
<g>
</g>
<g>
</g>
<g>
</g>
<g>
</g>
<g>
</g>
<g>
</g>
<g>
</g>
</svg>
