<?xml version="1.0" encoding="iso-8859-1"?>
<!-- Generator: Adobe Illustrator 16.0.4, SVG Export Plug-In . SVG Version: 6.00 Build 0)  -->
<!DOCTYPE svg PUBLIC "-//W3C//DTD SVG 1.1//EN" "http://www.w3.org/Graphics/SVG/1.1/DTD/svg11.dtd">
<svg version="1.1" id="Capa_1" xmlns="http://www.w3.org/2000/svg" xmlns:xlink="http://www.w3.org/1999/xlink" x="0px" y="0px"
	 width="20px" height="20px" viewBox="0 0 20 20" style="enable-background:new 0 0 20 20;" xml:space="preserve">
<path style="fill:#010002;" d="M10.84,6.516h-0.588V4.457l1.299,1.35L10.84,6.516z M20,4v12c0,2.2-1.801,4-4,4H4c-2.201,0-4-1.8-4-4
	V4c0-2.2,1.799-4,4-4h12C18.199,0,20,1.8,20,4z M17.141,4.918l-1.87-1.878c-0.258-0.261-0.772-0.17-1.144,0.2l-1.714,1.708
	L10.055,2.5H2.711v15h11.555V8.721l2.672-2.661C17.307,5.69,17.4,5.178,17.141,4.918z M7.381,12.217l0.555,0.558l2.586-1.047
	L8.437,9.635L7.381,12.217z M11.754,11.249h-0.026l-0.845,0.842l-2.649,1.073h3.521v0.608H5.225v-0.608h1.257l0.784-1.915H5.225
	v-0.608h2.289l0.561-1.369l0.549-0.546H5.225V8.117h4.008l0.692-0.689H9.34V3.716H3.927v12.568h9.122V9.933l-1.295,1.29V11.249z"/>
<g>
</g>
<g>
</g>
<g>
</g>
<g>
</g>
<g>
</g>
<g>
</g>
<g>
</g>
<g>
</g>
<g>
</g>
<g>
</g>
<g>
</g>
<g>
</g>
<g>
</g>
<g>
</g>
<g>
</g>
</svg>
