<?xml version="1.0" encoding="iso-8859-1"?>
<!-- Generator: Adobe Illustrator 17.0.0, SVG Export Plug-In . SVG Version: 6.00 Build 0)  -->
<!DOCTYPE svg PUBLIC "-//W3C//DTD SVG 1.1//EN" "http://www.w3.org/Graphics/SVG/1.1/DTD/svg11.dtd">
<svg version="1.1" id="Capa_1" xmlns="http://www.w3.org/2000/svg" xmlns:xlink="http://www.w3.org/1999/xlink" x="0px" y="0px"
	 width="64px" height="64px" viewBox="0 0 64 64" style="enable-background:new 0 0 64 64;" xml:space="preserve">
<g>
	<path d="M63.31,44.738c-0.016-0.028-0.039-0.05-0.06-0.074c-0.018-0.022-0.033-0.046-0.056-0.065
		c-0.002-0.002-0.003-0.005-0.006-0.007L34.228,21.324c-0.138-0.11-0.319-0.14-0.486-0.08l-13.05,4.801
		c-0.013,0.005-0.019,0.018-0.031,0.023c-0.016,0.007-0.034,0.006-0.049,0.015c-0.046,0.027-0.079,0.07-0.114,0.109
		c-0.013,0.015-0.032,0.025-0.043,0.042c-0.047,0.069-0.08,0.147-0.088,0.232l-0.3,3.071l-3.253-1.134
		c-0.128-0.047-0.271-0.036-0.394,0.027l-14,7.25c-0.193,0.101-0.3,0.312-0.264,0.527c0.036,0.214,0.206,0.38,0.421,0.412
		l12.408,1.825l3.33,5.08c0.09,0.138,0.243,0.223,0.408,0.226l34.724,0.697L56.177,45l6.625,0.725
		c0.024,0.003,0.049-0.12,0.072-0.12c-0.067,0-0.136-0.076-0.201-0.104L54.78,41.97l7.893,3.47c0.065,0.028,0.134,0.042,0.201,0.042
		c0.076,0,0.148-0.023,0.216-0.056c0.016-0.008,0.031-0.016,0.045-0.025c0.063-0.039,0.119-0.089,0.161-0.154
		c0.002-0.002,0.004-0.003,0.006-0.006c0.012-0.02,0.015-0.042,0.023-0.062c0.012-0.026,0.027-0.05,0.034-0.079
		c0.001-0.005,0-0.009,0.001-0.013c0.008-0.039,0.007-0.077,0.006-0.116c0-0.022,0.003-0.044,0-0.065
		c-0.006-0.036-0.02-0.069-0.033-0.102C63.326,44.782,63.322,44.758,63.31,44.738z M33.821,22.28l25.79,20.721L35.585,32.439
		L22.2,26.556L33.821,22.28z M56.22,44.065l-2.44,0.084l-1.541-0.227l3.419,0.069L56.22,44.065z M53.567,43.615l-1.307-0.191
		l3.969,0.328L53.567,43.615z M57.736,43.721L4.255,35.855l12.433-6.438L57.736,43.721z"/>
</g>
</svg>
