<?xml version="1.0" encoding="iso-8859-1"?>
<!-- Generator: Adobe Illustrator 17.0.0, SVG Export Plug-In . SVG Version: 6.00 Build 0)  -->
<!DOCTYPE svg PUBLIC "-//W3C//DTD SVG 1.1//EN" "http://www.w3.org/Graphics/SVG/1.1/DTD/svg11.dtd">
<svg version="1.1" id="Capa_1" xmlns="http://www.w3.org/2000/svg" xmlns:xlink="http://www.w3.org/1999/xlink" x="0px" y="0px"
	 width="64px" height="64px" viewBox="0 0 64 64" style="enable-background:new 0 0 64 64;" xml:space="preserve">
<g>
	<path d="M61.975,29.438c0,0-4.972,0.863-11.591,1.655c-0.724-1.42-2.185-2.405-3.884-2.405c-0.932,0-1.793,0.298-2.503,0.797
		C43.988,29.216,43.771,29,43.5,29H43v-1.164C43,27.374,42.626,25,42.164,25h-0.329C41.374,25,41,27.374,41,27.836V29h-8v-2.164
		C33,26.374,32.626,24,32.164,24h-0.329C31.374,24,31,26.374,31,26.836V29h-8v-1.164C23,27.374,22.626,25,22.164,25h-0.329
		C21.374,25,21,27.374,21,27.836V29h-0.5c-0.271,0-0.488,0.216-0.497,0.484c-0.711-0.499-1.571-0.797-2.503-0.797
		c-1.7,0-3.16,0.985-3.884,2.405C6.996,30.3,2.025,29.438,2.025,29.438c-0.376,1.469,4.895,2.634,11.114,3.493
		c-0.001,0.045-0.013,0.087-0.013,0.132c0,2.412,1.963,4.375,4.375,4.375c1.632,0,3.042-0.909,3.794-2.238
		c0.504,1.859,2.19,3.238,4.206,3.238c1.965,0,3.613-1.312,4.163-3.099C30.253,36.274,31.034,37,31.892,37
		c0.929,0,1.769-0.847,2.373-1.894c0.471,1.907,2.185,3.331,4.235,3.331c2.016,0,3.702-1.379,4.206-3.238
		c0.752,1.329,2.161,2.238,3.794,2.238c2.412,0,4.375-1.963,4.375-4.375c0-0.045-0.012-0.087-0.013-0.132
		C57.081,32.072,62.352,30.906,61.975,29.438z M43.384,30c-0.141,0.143-0.263,0.303-0.384,0.465V30H43.384z M41,30v0.482
		c-0.279-0.195-0.581-0.355-0.901-0.482H41z M36.901,30c-0.712,0.281-1.322,0.748-1.795,1.336c-0.148-0.511-0.439-0.971-0.846-1.336
		H36.901z M31.049,30.41c0.006,0.019,0.005,0.041,0.012,0.06c0.254-0.099,0.534-0.157,0.831-0.157c0.365,0,0.703,0.091,1.001,0.238
		c0.009-0.017,0.014-0.036,0.022-0.053c0.616,0.305,1.036,0.515,1.036,1.503h-4.118C29.833,31.006,30.333,30.69,31.049,30.41z
		 M31,30.164c0,0.061,0.021,0.114,0.034,0.171C31.015,30.285,31,30.24,31,30.164z M29.524,30c-0.358,0.32-0.62,0.716-0.782,1.152
		c-0.45-0.501-1.006-0.901-1.643-1.152H29.524z M23.901,30c-0.321,0.127-0.623,0.287-0.901,0.482V30H23.901z M21,30v0.465
		c-0.12-0.161-0.243-0.321-0.384-0.465H21z M17.5,36.438c-1.858,0-3.369-1.509-3.374-3.366c0.853,0.051,0.784,0.102,1.182,0.151
		c-0.004-0.054,0.046-0.105,0.046-0.16c0-0.682,0.326-1.284,0.824-1.678c-0.487-0.053-1.024-0.107-1.502-0.161
		c0.001-0.002,0.002-0.004,0.004-0.006c0.604-0.919,1.64-1.53,2.82-1.53c1.423,0,2.637,0.888,3.132,2.136
		c-0.503-0.044-1.003-0.09-1.499-0.137c0.315,0.374,0.513,0.85,0.513,1.376c0,0.22-0.043,0.429-0.105,0.629
		c0.418,0.043,0.832,0.084,1.242,0.124C20.439,35.314,19.101,36.438,17.5,36.438z M25.5,37.438c-1.861,0-3.375-1.514-3.375-3.375
		c0-0.04,0.01-0.077,0.012-0.117c0.413,0.038,0.818,0.075,1.218,0.111c0.003-0.855,0.511-1.589,1.238-1.931
		c-0.583-0.037-1.166-0.078-1.748-0.122c0.618-0.795,1.572-1.316,2.655-1.316c1.22,0,2.281,0.657,2.874,1.629
		c-0.582-0.021-1.167-0.047-1.755-0.076c0.613,0.378,1.027,1.05,1.027,1.822c0,0.118-0.016,0.231-0.035,0.344
		c0.432,0.033,0.84,0.063,1.22,0.09C28.615,36.151,27.213,37.438,25.5,37.438z M38.5,37.438c-1.713,0-3.115-1.286-3.331-2.941
		c0.38-0.027,0.788-0.058,1.22-0.09c-0.018-0.113-0.035-0.226-0.035-0.344c0-0.772,0.413-1.444,1.027-1.822
		c-0.588,0.029-1.173,0.055-1.755,0.076c0.593-0.972,1.654-1.629,2.874-1.629c1.083,0,2.037,0.521,2.655,1.316
		c-0.582,0.044-1.165,0.084-1.748,0.122c0.728,0.342,1.236,1.076,1.238,1.931c0.4-0.036,0.805-0.072,1.218-0.111
		c0.001,0.04,0.012,0.077,0.012,0.117C41.875,35.924,40.361,37.438,38.5,37.438z M46.5,36.438c-1.601,0-2.939-1.123-3.283-2.621
		c0.411-0.04,0.825-0.082,1.242-0.124c-0.062-0.2-0.105-0.409-0.105-0.629c0-0.526,0.198-1.002,0.513-1.376
		c-0.497,0.047-0.996,0.093-1.499,0.137c0.495-1.249,1.709-2.136,3.132-2.136c1.18,0,2.216,0.61,2.82,1.53
		c0.001,0.002,0.002,0.004,0.004,0.007c-0.476,0.054-0.984,0.108-1.471,0.161c0.498,0.393,0.793,0.995,0.793,1.678
		c0,0.055,0.05,0.106,0.046,0.16c0.398-0.049,0.328-0.1,1.182-0.151C49.869,34.929,48.358,36.438,46.5,36.438z"/>
	<path d="M18.24,31.6c-0.223-0.113-0.472-0.183-0.74-0.183c-0.15,0-0.292,0.026-0.429,0.064c-0.699,0.19-1.216,0.823-1.216,1.582
		c0,0.076,0.012,0.148,0.022,0.221c0.109,0.803,0.79,1.425,1.624,1.425c0.705,0,1.302-0.446,1.537-1.07
		c0.068-0.18,0.109-0.373,0.109-0.576C19.146,32.421,18.775,31.872,18.24,31.6z"/>
	<path d="M25.5,32.417c-0.909,0-1.646,0.737-1.646,1.646c0,0.013,0.004,0.025,0.004,0.038c0.021,0.891,0.746,1.608,1.642,1.608
		c0.804,0,1.471-0.577,1.615-1.34c0.019-0.099,0.031-0.201,0.031-0.306C27.146,33.154,26.409,32.417,25.5,32.417z"/>
	<path d="M46.929,31.48c-0.138-0.037-0.28-0.064-0.429-0.064c-0.268,0-0.517,0.07-0.74,0.183c-0.535,0.272-0.906,0.821-0.906,1.463
		c0,0.203,0.042,0.396,0.109,0.576c0.234,0.624,0.831,1.07,1.536,1.07c0.833,0,1.515-0.622,1.624-1.425
		c0.01-0.073,0.022-0.145,0.022-0.221C48.146,32.303,47.629,31.67,46.929,31.48z"/>
	<path d="M38.5,32.417c-0.909,0-1.646,0.737-1.646,1.646c0,0.105,0.012,0.207,0.031,0.306c0.144,0.762,0.811,1.34,1.615,1.34
		c0.896,0,1.621-0.717,1.642-1.608c0-0.013,0.004-0.025,0.004-0.038C40.146,33.154,39.409,32.417,38.5,32.417z"/>
</g>
</svg>
