<?xml version="1.0" encoding="iso-8859-1"?>
<!-- Generator: Adobe Illustrator 17.0.0, SVG Export Plug-In . SVG Version: 6.00 Build 0)  -->
<!DOCTYPE svg PUBLIC "-//W3C//DTD SVG 1.1//EN" "http://www.w3.org/Graphics/SVG/1.1/DTD/svg11.dtd">
<svg version="1.1" id="Capa_1" xmlns="http://www.w3.org/2000/svg" xmlns:xlink="http://www.w3.org/1999/xlink" x="0px" y="0px"
	 width="64px" height="64px" viewBox="0 0 64 64" style="enable-background:new 0 0 64 64;" xml:space="preserve">
<g>
	<path d="M62,22H41v-2h-4v2H14c-0.553,0-1,0.447-1,1s0.447,1,1,1h23v1.135c-1.353,0.082-2.695,0.265-3.917,0.615
		c0,0-0.417,0.292,0.333,0.542L32,28.958l-20.083,1.167c0,0-4.417-7.417-5.833-9.375C4.667,18.792,2,20.542,2,20.542l2.333,7.167
		l-1.708,2.958l-0.042,1l1.75,1.583c0,0-0.167,1.542-0.375,2.208c-0.208,0.667,1.792,1,3.167,1.167l4.458-4.125l18.167,0.833
		c0,0,6.943,4.374,10.25,5.004V42h2v-3.534c1.816,0.081,4.87,0.226,8.063,0.174L50,42v0.008L38.023,42c-0.553,0-1.011,0.447-1.011,1
		s0.436,1,0.989,1h12.525c0.122,0.013,0.379,0.035,0.719,0.035c1.055,0,2.918-0.211,4.116-1.551
		c0.926-1.034,1.246-2.477,0.964-4.291c3.358-0.497,5.985-1.483,6.259-3.36c0,0-1-6.208-12.083-7L47,25.958c0,0-2.663-0.59-6-0.803
		V24h21c0.553,0,1-0.447,1-1S62.553,22,62,22z M7.833,33.25c-1.381,0-2.5-1.119-2.5-2.5c0-1.381,1.119-2.5,2.5-2.5
		c1.381,0,2.5,1.119,2.5,2.5C10.333,32.131,9.214,33.25,7.833,33.25z M53.875,41.146c-0.473,0.533-1.237,0.758-1.918,0.844
		l0.014,0.565L50,42.504V42.5l1.971,0.055l0-0.569l0.079-3.405h-0.004c0.768-0.035,1.532-0.082,2.278-0.15
		C54.525,39.645,54.387,40.57,53.875,41.146z M61.232,34.438c0,0-2.272,3.088-3.862,1.167l-2.726-5.686
		C54.643,29.919,59.868,30.258,61.232,34.438z"/>
</g>
</svg>
