<?xml version="1.0" encoding="iso-8859-1"?>
<!-- Generator: Adobe Illustrator 17.1.0, SVG Export Plug-In . SVG Version: 6.00 Build 0)  -->
<!DOCTYPE svg PUBLIC "-//W3C//DTD SVG 1.1//EN" "http://www.w3.org/Graphics/SVG/1.1/DTD/svg11.dtd">
<svg version="1.1" id="Capa_1" xmlns="http://www.w3.org/2000/svg" xmlns:xlink="http://www.w3.org/1999/xlink" x="0px" y="0px"
	 viewBox="0 0 200 200" style="enable-background:new 0 0 200 200;" xml:space="preserve">
<g>
	<path d="M160.957,38.5H18.853C12.317,38.5,7,43.803,7,50.321v99.357c0,6.518,5.317,11.821,11.853,11.821h142.104
		c6.536,0,11.854-5.303,11.854-11.821V50.321C172.811,43.803,167.493,38.5,160.957,38.5z M160.5,144.93
		c0,3.745-3.044,6.78-6.798,6.78l-129.204,0c-3.755,0-6.798-3.035-6.798-6.78V55.07c0-3.744,3.044-6.78,6.798-6.78h119.593
		L100.264,78.98l-0.993,0.695c-1.284,0.904-2.226,2.295-2.527,3.963l-7.187,39.926L39,135.845l54.973-4.522
		c1.442-0.121,2.752-1.069,3.257-2.524l0.22-0.635l12.89-37.107L160.5,66.52V144.93z"/>
	<path d="M181.147,64.155c0,0-0.526,0-1.174,0c-0.648,0-1.174,0.891-1.174,1.989v67.712c0,1.099,0.525,1.989,1.174,1.989h1.174
		c6.536,0,11.853-5.303,11.853-11.821V75.976C193,69.458,187.683,64.155,181.147,64.155z"/>
</g>
</svg>
