<?xml version="1.0" encoding="iso-8859-1"?>
<!-- Generator: Adobe Illustrator 17.1.0, SVG Export Plug-In . SVG Version: 6.00 Build 0)  -->
<!DOCTYPE svg PUBLIC "-//W3C//DTD SVG 1.1//EN" "http://www.w3.org/Graphics/SVG/1.1/DTD/svg11.dtd">
<svg version="1.1" id="Capa_1" xmlns="http://www.w3.org/2000/svg" xmlns:xlink="http://www.w3.org/1999/xlink" x="0px" y="0px"
	 viewBox="0 0 200 200" style="enable-background:new 0 0 200 200;" xml:space="preserve">
<g>
	<path d="M115.692,39.159l1.482-0.659H18.853C12.317,38.5,7,43.803,7,50.321v99.357c0,6.365,5.074,11.557,11.397,11.798
		l30.57-13.594l12.11-44.91l42.5-18.9L115.692,39.159z"/>
	<path d="M161.415,38.523l-30.576,13.599l-12.114,44.913l-42.5,18.9l-12.11,44.91l-1.471,0.654h98.314
		c6.536,0,11.854-5.303,11.854-11.821V50.321C172.811,43.957,167.738,38.766,161.415,38.523z"/>
	<path d="M181.147,64.154c0,0-0.526,0-1.174,0c-0.648,0-1.174,0.891-1.174,1.989v67.712c0,1.099,0.525,1.989,1.174,1.989h1.174
		c6.536,0,11.853-5.303,11.853-11.821V75.976C193,69.458,187.683,64.154,181.147,64.154z"/>
</g>
</svg>
