<?xml version="1.0" encoding="iso-8859-1"?>
<!-- Generator: Adobe Illustrator 17.1.0, SVG Export Plug-In . SVG Version: 6.00 Build 0)  -->
<!DOCTYPE svg PUBLIC "-//W3C//DTD SVG 1.1//EN" "http://www.w3.org/Graphics/SVG/1.1/DTD/svg11.dtd">
<svg version="1.1" id="Capa_1" xmlns="http://www.w3.org/2000/svg" xmlns:xlink="http://www.w3.org/1999/xlink" x="0px" y="0px"
	 viewBox="0 0 200 200" style="enable-background:new 0 0 200 200;" xml:space="preserve">
<g>
	<path d="M18.853,162.438h1.965l105.267-123H18.853C12.317,39.438,7,44.741,7,51.259v99.357
		C7,157.134,12.317,162.438,18.853,162.438z"/>
	<path d="M160.957,39.438h-1.965l-105.267,123h107.232c6.536,0,11.854-5.303,11.854-11.821V51.259
		C172.811,44.741,167.493,39.438,160.957,39.438z"/>
	<path d="M181.147,65.092c0,0-0.526,0-1.174,0c-0.648,0-1.174,0.891-1.174,1.989v67.712c0,1.099,0.525,1.989,1.174,1.989h1.174
		c6.536,0,11.853-5.303,11.853-11.821V76.913C193,70.395,187.683,65.092,181.147,65.092z"/>
	<path d="M15.941,175.827L15.941,175.827c-2.693,3.147-2.325,7.882,0.822,10.575c1.414,1.21,3.147,1.802,4.873,1.802
		c2.116,0,4.218-0.89,5.701-2.623c0,0,0,0,0,0l19.806-23.143l105.267-123l11.459-13.389l0,0c2.693-3.147,2.325-7.881-0.822-10.575
		c-3.147-2.694-7.881-2.326-10.574,0.822c0,0,0,0,0,0l-19.806,23.143l-105.267,123L15.941,175.827z"/>
</g>
</svg>
