<?xml version="1.0" encoding="iso-8859-1"?>
<!-- Generator: Adobe Illustrator 17.1.0, SVG Export Plug-In . SVG Version: 6.00 Build 0)  -->
<!DOCTYPE svg PUBLIC "-//W3C//DTD SVG 1.1//EN" "http://www.w3.org/Graphics/SVG/1.1/DTD/svg11.dtd">
<svg version="1.1" id="Capa_1" xmlns="http://www.w3.org/2000/svg" xmlns:xlink="http://www.w3.org/1999/xlink" x="0px" y="0px"
	 viewBox="0 0 200 200" style="enable-background:new 0 0 200 200;" xml:space="preserve">
<g>
	<path d="M160.957,38.5H18.853C12.317,38.5,7,43.803,7,50.321v99.357c0,6.518,5.317,11.821,11.853,11.821h142.104
		c6.536,0,11.853-5.303,11.853-11.821V50.321C172.811,43.803,167.493,38.5,160.957,38.5z M72.087,103.596
		c0,1.469-1.191,2.66-2.66,2.66H24.746c-1.469,0-2.66-1.191-2.66-2.66v-7.193c0-1.469,1.191-2.66,2.66-2.66h44.681
		c1.469,0,2.66,1.191,2.66,2.66V103.596z M159.161,103.596c0,1.469-1.191,2.66-2.66,2.66h-16.084v16.084
		c0,1.469-1.191,2.66-2.66,2.66h-7.193c-1.469,0-2.66-1.191-2.66-2.66v-16.084h-16.084c-1.469,0-2.66-1.191-2.66-2.66v-7.193
		c0-1.469,1.191-2.66,2.66-2.66h16.084V77.66c0-1.469,1.191-2.66,2.66-2.66h7.193c1.469,0,2.66,1.191,2.66,2.66v16.084h16.084
		c1.469,0,2.66,1.191,2.66,2.66V103.596z"/>
	<path d="M181.147,64.155c0,0-0.525,0-1.174,0s-1.174,0.891-1.174,1.989v67.712c0,1.099,0.525,1.989,1.174,1.989h1.174
		c6.536,0,11.853-5.303,11.853-11.821V75.976C193,69.458,187.683,64.155,181.147,64.155z"/>
</g>
</svg>
