<?xml version="1.0" encoding="iso-8859-1"?>
<!-- Generator: Adobe Illustrator 17.1.0, SVG Export Plug-In . SVG Version: 6.00 Build 0)  -->
<!DOCTYPE svg PUBLIC "-//W3C//DTD SVG 1.1//EN" "http://www.w3.org/Graphics/SVG/1.1/DTD/svg11.dtd">
<svg version="1.1" id="Capa_1" xmlns="http://www.w3.org/2000/svg" xmlns:xlink="http://www.w3.org/1999/xlink" x="0px" y="0px"
	 viewBox="0 0 200 200" style="enable-background:new 0 0 200 200;" xml:space="preserve">
<g>
	<path d="M161.374,39.438H19.27c-6.536,0-11.853,5.303-11.853,11.821v99.357c0,6.518,5.317,11.821,11.853,11.821h142.104
		c6.536,0,11.853-5.303,11.853-11.821V51.259C173.227,44.741,167.91,39.438,161.374,39.438z M48.891,145.867
		c0,3.744-3.044,6.78-6.798,6.78H24.914c-3.755,0-6.798-3.036-6.798-6.78V56.008c0-3.745,3.044-6.78,6.798-6.78l17.178,0
		c3.755,0,6.798,3.035,6.798,6.78V145.867z M86.747,145.867c0,3.744-3.044,6.78-6.798,6.78H62.771c-3.755,0-6.798-3.036-6.798-6.78
		V56.008c0-3.745,3.044-6.78,6.798-6.78l17.178,0c3.755,0,6.798,3.035,6.798,6.78V145.867z M124.604,145.867
		c0,3.744-3.044,6.78-6.798,6.78h-17.178c-3.755,0-6.798-3.036-6.798-6.78V56.008c0-3.745,3.044-6.78,6.798-6.78l17.178,0
		c3.755,0,6.798,3.035,6.798,6.78V145.867z M162.461,145.867c0,3.744-3.044,6.78-6.798,6.78h-17.178
		c-3.755,0-6.798-3.036-6.798-6.78V56.008c0-3.745,3.044-6.78,6.798-6.78l17.178,0c3.755,0,6.798,3.035,6.798,6.78V145.867z"/>
	<path d="M181.563,65.092c0,0-0.525,0-1.174,0s-1.174,0.891-1.174,1.989v67.712c0,1.099,0.525,1.989,1.174,1.989h1.174
		c6.536,0,11.853-5.303,11.853-11.821V76.913C193.417,70.395,188.099,65.092,181.563,65.092z"/>
</g>
</svg>
