<?xml version="1.0" encoding="iso-8859-1"?>
<!-- Generator: Adobe Illustrator 17.1.0, SVG Export Plug-In . SVG Version: 6.00 Build 0)  -->
<!DOCTYPE svg PUBLIC "-//W3C//DTD SVG 1.1//EN" "http://www.w3.org/Graphics/SVG/1.1/DTD/svg11.dtd">
<svg version="1.1" id="Capa_1" xmlns="http://www.w3.org/2000/svg" xmlns:xlink="http://www.w3.org/1999/xlink" x="0px" y="0px"
	 viewBox="0 0 200 200" style="enable-background:new 0 0 200 200;" xml:space="preserve">
<g>
	<path d="M160.957,38.5H18.853C12.317,38.5,7,43.803,7,50.321v99.357c0,6.518,5.317,11.821,11.853,11.821h142.104
		c6.536,0,11.853-5.303,11.853-11.821V50.321C172.811,43.803,167.493,38.5,160.957,38.5z M140.681,98.468
		c-0.767,1.071-1.499,2.184-1.725,2.446c-3.24,3.76-6.782,7.271-10.582,10.464c-8.355,7.021-18.218,12.679-29.07,14.596
		c-14.695,2.596-31.076-2.982-42.258-12.666c-1.138-0.986-2.21-2.073-3.189-3.24c-1.102-1.314-3.165-2.003-4.733-1.307
		c-3.07,1.362-6.038,3.01-8.828,4.848c-1.886,1.243-3.71,2.58-5.473,3.992c-2.499,2.002-1.021-1.698-0.487-2.892
		c0.954-2.132,2.384-4.079,4.031-5.747c3.048-3.086,6.852-5.604,10.67-7.623c0.782-0.413,1.579-0.822,2.408-1.219
		c9.73-4.667,20.473-6.272,31.061-4.468c1.691,0.288,4.203,0.877,5.61,1.283c0.849,0.245,1.692,0.513,2.528,0.803
		c7.342,2.546,14.263,6.843,22.233,6.771c3.391-0.031,6.183-0.623,8.223-1.156c1.378-0.352,2.422-0.763,3.131-1.022
		c0.21-0.082,0.389-0.155,0.537-0.218c0.295-0.125-0.444-0.125-1.652-0.057c-0.614,0.035-1.348,0.065-2.189,0.081
		c-1.382,0.022-3.052-0.037-4.93-0.184c-8.605-0.673-15.468-6.208-23.216-9.47c-10.394-4.377-22.625-5.064-33.339-1.406
		c-2.967,1.013-5.832,2.324-8.538,3.906c-1.481,0.866-2.525,1.159-2.541,0.526c-0.012-0.484-0.037-0.976-0.019-1.147
		c0.29-2.756,1.304-5.39,2.812-7.706c6.098-9.364,21.204-13.736,31.893-14.03c14.584-0.401,27.776,6.777,38.146,16.574
		c5.858,5.358,13.981,6.68,18.363,6.989C141.271,96.311,141.645,97.124,140.681,98.468z"/>
	<path d="M181.147,64.154c0,0-0.525,0-1.174,0s-1.174,0.891-1.174,1.989v67.712c0,1.099,0.525,1.989,1.174,1.989h1.174
		c6.536,0,11.853-5.303,11.853-11.821V75.976C193,69.458,187.683,64.154,181.147,64.154z"/>
</g>
</svg>
