<?xml version="1.0" encoding="iso-8859-1"?>
<!-- Generator: Adobe Illustrator 17.1.0, SVG Export Plug-In . SVG Version: 6.00 Build 0)  -->
<!DOCTYPE svg PUBLIC "-//W3C//DTD SVG 1.1//EN" "http://www.w3.org/Graphics/SVG/1.1/DTD/svg11.dtd">
<svg version="1.1" id="Capa_1" xmlns="http://www.w3.org/2000/svg" xmlns:xlink="http://www.w3.org/1999/xlink" x="0px" y="0px"
	 viewBox="0 0 200 200" style="enable-background:new 0 0 200 200;" xml:space="preserve">
<g>
	<path d="M160.957,38.5H18.853C12.317,38.5,7,43.803,7,50.321v99.357c0,6.518,5.317,11.821,11.853,11.821h142.104
		c6.536,0,11.853-5.303,11.853-11.821V50.321C172.811,43.803,167.493,38.5,160.957,38.5z M67.958,70.199
		c5.442,0,9.853,4.411,9.853,9.853s-4.411,9.853-9.853,9.853s-9.853-4.411-9.853-9.853S62.516,70.199,67.958,70.199z
		 M108.162,130.109c-5.442,0-9.853-4.411-9.853-9.853s4.411-9.853,9.853-9.853s9.853,4.411,9.853,9.853
		S113.603,130.109,108.162,130.109z M120.663,81.575L69.48,132.758c-1.683,1.683-4.411,1.683-6.093,0l-8.24-8.24
		c-1.683-1.683-1.683-4.411,0-6.093l51.182-51.182c1.683-1.683,4.411-1.683,6.093,0l8.24,8.24
		C122.345,77.165,122.345,79.893,120.663,81.575z"/>
	<path d="M181.147,64.155c0,0-0.525,0-1.174,0s-1.174,0.891-1.174,1.989v67.712c0,1.099,0.525,1.989,1.174,1.989h1.174
		c6.536,0,11.853-5.303,11.853-11.821V75.976C193,69.458,187.683,64.155,181.147,64.155z"/>
</g>
</svg>
