<?xml version="1.0" encoding="iso-8859-1"?>
<!-- Generator: Adobe Illustrator 17.1.0, SVG Export Plug-In . SVG Version: 6.00 Build 0)  -->
<!DOCTYPE svg PUBLIC "-//W3C//DTD SVG 1.1//EN" "http://www.w3.org/Graphics/SVG/1.1/DTD/svg11.dtd">
<svg version="1.1" id="Capa_1" xmlns="http://www.w3.org/2000/svg" xmlns:xlink="http://www.w3.org/1999/xlink" x="0px" y="0px"
	 viewBox="0 0 200 200" style="enable-background:new 0 0 200 200;" xml:space="preserve">
<g>
	<path d="M160.957,39.438H18.853C12.317,39.438,7,44.741,7,51.259v99.357c0,6.518,5.317,11.821,11.853,11.821h142.104
		c6.536,0,11.854-5.303,11.854-11.821V51.259C172.811,44.741,167.493,39.438,160.957,39.438z M148.821,130.523
		c0,0.955-0.885,1.287-1.976,0.741l-39.77-19.897c-1.091-0.546-1.959-0.214-1.938,0.74l0.258,11.733
		c0.021,0.955-0.712,1.173-1.638,0.487L31.594,70.849c-0.926-0.686-0.771-0.821,0.345-0.302l49.912,23.206
		c1.116,0.519,2.021,0.166,2.021-0.789V78.166c0-0.955,0.89-1.293,1.989-0.754l60.971,29.882c1.098,0.538,1.989,1.749,1.989,2.704
		V130.523z"/>
	<path d="M181.147,65.092c0,0-0.526,0-1.174,0c-0.648,0-1.174,0.891-1.174,1.989v67.712c0,1.099,0.525,1.989,1.174,1.989h1.174
		c6.536,0,11.853-5.303,11.853-11.821V76.913C193,70.395,187.683,65.092,181.147,65.092z"/>
</g>
</svg>
