<?xml version="1.0" encoding="iso-8859-1"?>
<!-- Generator: Adobe Illustrator 17.1.0, SVG Export Plug-In . SVG Version: 6.00 Build 0)  -->
<!DOCTYPE svg PUBLIC "-//W3C//DTD SVG 1.1//EN" "http://www.w3.org/Graphics/SVG/1.1/DTD/svg11.dtd">
<svg version="1.1" id="Capa_1" xmlns="http://www.w3.org/2000/svg" xmlns:xlink="http://www.w3.org/1999/xlink" x="0px" y="0px"
	 viewBox="0 0 200 200" style="enable-background:new 0 0 200 200;" xml:space="preserve">
<g>
	<path d="M160.957,38.5H18.853C12.317,38.5,7,43.803,7,50.321v99.357c0,6.518,5.317,11.821,11.853,11.821h142.104
		c6.536,0,11.854-5.303,11.854-11.821V50.321C172.811,43.803,167.493,38.5,160.957,38.5z M122.663,118.425
		c1.683,1.683,1.683,4.411,0,6.093l-8.24,8.24c-1.683,1.683-4.411,1.683-6.093,0l-18.425-18.425L71.48,132.758
		c-1.683,1.683-4.411,1.683-6.093,0l-8.24-8.24c-1.683-1.683-1.683-4.411,0-6.093L75.572,100L57.148,81.575
		c-1.683-1.683-1.683-4.411,0-6.093l8.24-8.24c1.683-1.683,4.411-1.683,6.093,0l18.425,18.425l18.425-18.425
		c1.683-1.683,4.411-1.683,6.093,0l8.24,8.24c1.683,1.683,1.683,4.411,0,6.093L104.238,100L122.663,118.425z"/>
	<path d="M181.147,64.154c0,0-0.526,0-1.174,0c-0.648,0-1.174,0.891-1.174,1.989v67.712c0,1.099,0.525,1.989,1.174,1.989h1.174
		c6.536,0,11.853-5.303,11.853-11.821V75.976C193,69.458,187.683,64.154,181.147,64.154z"/>
</g>
</svg>
