<?xml version="1.0" encoding="iso-8859-1"?>
<!-- Generator: Adobe Illustrator 17.1.0, SVG Export Plug-In . SVG Version: 6.00 Build 0)  -->
<!DOCTYPE svg PUBLIC "-//W3C//DTD SVG 1.1//EN" "http://www.w3.org/Graphics/SVG/1.1/DTD/svg11.dtd">
<svg version="1.1" id="Capa_1" xmlns="http://www.w3.org/2000/svg" xmlns:xlink="http://www.w3.org/1999/xlink" x="0px" y="0px"
	 viewBox="0 0 200 200" style="enable-background:new 0 0 200 200;" xml:space="preserve">
<g>
	<path d="M160.957,38.5H18.853C12.317,38.5,7,43.803,7,50.321v99.357c0,6.518,5.317,11.821,11.853,11.821h142.104
		c6.536,0,11.854-5.303,11.854-11.821V50.321C172.811,43.803,167.493,38.5,160.957,38.5z M160.5,144.93
		c0,3.745-3.044,6.78-6.798,6.78l-129.204,0c-3.755,0-6.798-3.035-6.798-6.78V55.07c0-3.744,3.044-6.78,6.798-6.78h129.204
		c3.755,0,6.798,3.036,6.798,6.78V144.93z"/>
	<path d="M181.147,64.155c0,0-0.526,0-1.174,0c-0.648,0-1.174,0.891-1.174,1.989v67.712c0,1.099,0.525,1.989,1.174,1.989h1.174
		c6.536,0,11.853-5.303,11.853-11.821V75.976C193,69.458,187.683,64.155,181.147,64.155z"/>
	<path d="M137.238,76.736h-20.5v15h20.5c4.143,0,7.5-3.357,7.5-7.5S141.381,76.736,137.238,76.736z"/>
	<path d="M137.238,108.264h-20.5v15h20.5c4.143,0,7.5-3.357,7.5-7.5S141.381,108.264,137.238,108.264z"/>
	<path d="M108.739,65.572H76.667c-5.22,0-9.451,4.231-9.451,9.451V87.5h-3h-3H42.572c-6.903,0-12.5,5.597-12.5,12.5
		s5.597,12.5,12.5,12.5h18.644h3h3v12.477c0,5.22,4.231,9.451,9.451,9.451h32.072c1.105,0,2-0.895,2-2v-9.485v-14.358V91.416V77.057
		v-9.485C110.739,66.467,109.843,65.572,108.739,65.572z"/>
</g>
</svg>
