<?xml version="1.0" encoding="iso-8859-1"?>
<!-- Generator: Adobe Illustrator 17.1.0, SVG Export Plug-In . SVG Version: 6.00 Build 0)  -->
<!DOCTYPE svg PUBLIC "-//W3C//DTD SVG 1.1//EN" "http://www.w3.org/Graphics/SVG/1.1/DTD/svg11.dtd">
<svg version="1.1" id="Capa_1" xmlns="http://www.w3.org/2000/svg" xmlns:xlink="http://www.w3.org/1999/xlink" x="0px" y="0px"
	 viewBox="0 0 200 200" style="enable-background:new 0 0 200 200;" xml:space="preserve">
<g>
	<path d="M160.957,39.438H18.853C12.317,39.438,7,44.741,7,51.259v99.357c0,6.518,5.317,11.821,11.853,11.821h142.104
		c6.536,0,11.854-5.303,11.854-11.821V51.259C172.811,44.741,167.493,39.438,160.957,39.438z M30.072,101.938
		c0-6.904,5.597-12.5,12.5-12.5h18.644h3h3V76.96c0-5.22,4.231-9.451,9.451-9.451h32.072c1.105,0,2,0.895,2,2v9.486v2.124v10.11
		v2.124v17.168v2.124v10.11v2.124v9.486c0,1.105-0.895,2-2,2H76.667c-5.22,0-9.451-4.231-9.451-9.451v-12.477h-3h-3H42.572
		C35.669,114.438,30.072,108.841,30.072,101.938z M137.238,125.201h-20.5v-2v-11v-2h20.5c4.143,0,7.5,3.358,7.5,7.5
		S141.381,125.201,137.238,125.201z M137.238,93.674h-20.5v-2v-11v-2h20.5c4.143,0,7.5,3.358,7.5,7.5S141.381,93.674,137.238,93.674
		z"/>
	<path d="M181.147,65.092c0,0-0.526,0-1.174,0c-0.648,0-1.174,0.891-1.174,1.989v67.712c0,1.099,0.525,1.989,1.174,1.989h1.174
		c6.536,0,11.853-5.303,11.853-11.821V76.913C193,70.395,187.683,65.092,181.147,65.092z"/>
</g>
</svg>
