<?xml version="1.0" encoding="iso-8859-1"?>
<!-- Generator: Adobe Illustrator 16.0.0, SVG Export Plug-In . SVG Version: 6.00 Build 0)  -->
<!DOCTYPE svg PUBLIC "-//W3C//DTD SVG 1.1//EN" "http://www.w3.org/Graphics/SVG/1.1/DTD/svg11.dtd">
<svg version="1.1" id="Layer_1" xmlns="http://www.w3.org/2000/svg" xmlns:xlink="http://www.w3.org/1999/xlink" x="0px" y="0px"
	 width="512px" height="512px" viewBox="0 0 512 512" style="enable-background:new 0 0 512 512;" xml:space="preserve">
<g>
	<path d="M252.413,66.955H53.112v378.09h199.301V66.955z M85.983,101.277h133.559v157.749H85.983V101.277z M205.402,302.723
		c-8.891,0-16.099-7.208-16.099-16.099s7.208-16.099,16.099-16.099s16.099,7.208,16.099,16.099S214.293,302.723,205.402,302.723z"/>
	<path d="M458.888,66.955H259.587v378.09h199.301V66.955z M306.598,302.723c-8.891,0-16.099-7.208-16.099-16.099
		s7.208-16.099,16.099-16.099s16.099,7.208,16.099,16.099S315.488,302.723,306.598,302.723z M426.017,259.026H292.458V101.277
		h133.559V259.026z"/>
	<path d="M7.781,21.774v468.451h496.438V21.774H7.781z M470.219,456.226H41.781V55.774h428.438V456.226z"/>
</g>
</svg>
