<?xml version="1.0" encoding="iso-8859-1"?>
<!-- Generator: Adobe Illustrator 16.0.0, SVG Export Plug-In . SVG Version: 6.00 Build 0)  -->
<!DOCTYPE svg PUBLIC "-//W3C//DTD SVG 1.1//EN" "http://www.w3.org/Graphics/SVG/1.1/DTD/svg11.dtd">
<svg version="1.1" id="Layer_1" xmlns="http://www.w3.org/2000/svg" xmlns:xlink="http://www.w3.org/1999/xlink" x="0px" y="0px"
	 width="512px" height="512px" viewBox="0 0 512 512" style="enable-background:new 0 0 512 512;" xml:space="preserve">
<g>
	<path d="M399.723,50.586H112.277V460.12l287.445,0.497V50.586z M372.689,433.538l-233.379-0.403V270.007h9.236v154.535h214.907
		V270.007h9.235V433.538z M172.916,256c0-8.698,7.051-15.75,15.75-15.75c8.697,0,15.75,7.052,15.75,15.75s-7.053,15.75-15.75,15.75
		C179.967,271.75,172.916,264.698,172.916,256z M372.689,241.172h-9.235V86.637H148.547v154.535h-9.236V77.619h233.379V241.172z"/>
	<path d="M75,13.998v483.418l362,0.587V13.998H75z M409.968,470.926l-307.936-0.499V41.031h307.936V470.926z"/>
</g>
</svg>
