<?xml version="1.0" encoding="iso-8859-1"?>
<!-- Generator: Adobe Illustrator 16.0.0, SVG Export Plug-In . SVG Version: 6.00 Build 0)  -->
<!DOCTYPE svg PUBLIC "-//W3C//DTD SVG 1.1//EN" "http://www.w3.org/Graphics/SVG/1.1/DTD/svg11.dtd">
<svg version="1.1" id="Layer_1" xmlns="http://www.w3.org/2000/svg" xmlns:xlink="http://www.w3.org/1999/xlink" x="0px" y="0px"
	 width="512px" height="512px" viewBox="0 0 512 512" style="enable-background:new 0 0 512 512;" xml:space="preserve">
<g>
	<polygon points="19.563,17.902 19.563,494.098 61.091,494.098 61.091,59.43 450.909,59.43 450.909,494.098 492.437,494.098 
		492.437,17.902 	"/>
	<polygon points="75.356,206.863 107.287,71.817 75.356,71.817 	"/>
	<polygon points="75.356,413.161 156.986,71.817 142.37,71.817 75.356,352.485 	"/>
	<polygon points="436.645,494.098 436.645,316.184 393.782,494.098 	"/>
	<polygon points="376.241,494.098 436.645,243.369 436.645,182.692 361.623,494.098 	"/>
	<path d="M75.356,485.976v8.122H250.81V71.817h-76.281L75.356,485.976z M215.164,250.03c9.029,0,16.352,7.321,16.352,16.352
		s-7.322,16.352-16.352,16.352c-9.031,0-16.352-7.321-16.352-16.352S206.133,250.03,215.164,250.03z"/>
	<path d="M261.191,71.817v422.28h65.351l101.13-422.28H261.191z M296.836,282.733c-9.031,0-16.352-7.321-16.352-16.352
		s7.32-16.352,16.352-16.352c9.029,0,16.352,7.321,16.352,16.352S305.865,282.733,296.836,282.733z"/>
</g>
</svg>
