<?xml version="1.0" encoding="iso-8859-1"?>
<!-- Generator: Adobe Illustrator 16.0.0, SVG Export Plug-In . SVG Version: 6.00 Build 0)  -->
<!DOCTYPE svg PUBLIC "-//W3C//DTD SVG 1.1//EN" "http://www.w3.org/Graphics/SVG/1.1/DTD/svg11.dtd">
<svg version="1.1" id="Layer_1" xmlns="http://www.w3.org/2000/svg" xmlns:xlink="http://www.w3.org/1999/xlink" x="0px" y="0px"
	 width="512px" height="512px" viewBox="0 0 512 512" style="enable-background:new 0 0 512 512;" xml:space="preserve">
<g>
	<rect x="311.098" y="227.723" width="27.371" height="230.054"/>
	<path d="M74.608,20.75v470.5h34.118V54.868h294.548v42.657h-11.941V67.672v-0.313H121.805v423.664h269.528v-13.516V451.92v-28.005
		h11.941v67.108h34.117V20.75H74.608z M212.784,469.705h-51.227v-253.91h51.227V469.705z M281.147,469.705h-51.227v-253.91h51.227
		V469.705z M350.396,469.705H299.17v-253.91h51.226V469.705z M350.442,199.158h-188.82v-45.025h188.82V199.158z M350.442,136.32
		h-188.82V91.295h188.82V136.32z M403.274,370.844h-11.941v-7.061v-25.588v-88.137v-25.588v-73.874h11.941V370.844z"/>
	<rect x="173.484" y="227.723" width="27.372" height="230.054"/>
	<rect x="241.849" y="227.723" width="27.372" height="230.054"/>
</g>
</svg>
