<?xml version="1.0" encoding="iso-8859-1"?>
<!-- Generator: Adobe Illustrator 16.0.0, SVG Export Plug-In . SVG Version: 6.00 Build 0)  -->
<!DOCTYPE svg PUBLIC "-//W3C//DTD SVG 1.1//EN" "http://www.w3.org/Graphics/SVG/1.1/DTD/svg11.dtd">
<svg version="1.1" id="Layer_1" xmlns="http://www.w3.org/2000/svg" xmlns:xlink="http://www.w3.org/1999/xlink" x="0px" y="0px"
	 width="512px" height="512px" viewBox="0 0 512 512" style="enable-background:new 0 0 512 512;" xml:space="preserve">
<path d="M8.771,8.246v451.5h34v-82.953h12.49V329.77h-12.49V155.219h12.49v-47.02h-12.49V42.246h93.285L55.331,59.9V467.1
	l167.598,36.654V42.246h66.143v461.508L456.669,467.1v-90.307h12.561v82.953h34V8.246H8.771z M186.713,262.559
	c-5.982,0-10.834-5.689-10.834-12.709c0-7.018,4.852-12.707,10.834-12.707s10.834,5.689,10.834,12.707
	C197.547,256.869,192.695,262.559,186.713,262.559z M469.229,42.246v65.953h-12.561V59.9l-80.725-17.654H469.229z M325.287,262.559
	c-5.982,0-10.834-5.689-10.834-12.709c0-7.018,4.852-12.707,10.834-12.707s10.834,5.689,10.834,12.707
	C336.122,256.869,331.27,262.559,325.287,262.559z M456.669,329.77V155.219h12.561V329.77H456.669z"/>
</svg>
