<?xml version="1.0" encoding="iso-8859-1"?>
<!-- Generator: Adobe Illustrator 16.0.0, SVG Export Plug-In . SVG Version: 6.00 Build 0)  -->
<!DOCTYPE svg PUBLIC "-//W3C//DTD SVG 1.1//EN" "http://www.w3.org/Graphics/SVG/1.1/DTD/svg11.dtd">
<svg version="1.1" id="Layer_1" xmlns="http://www.w3.org/2000/svg" xmlns:xlink="http://www.w3.org/1999/xlink" x="0px" y="0px"
	 width="512px" height="512px" viewBox="0 0 512 512" style="enable-background:new 0 0 512 512;" xml:space="preserve">
<g>
	<path d="M74.609,20.75v470.5h34.118V54.868h294.548v42.656h-11.941V67.671h-37.16v9.241h-25.588v-9.241h-88.137v9.241h-25.587
		v-9.241h-88.139v9.241h-4.918v88.137h4.918v25.589h-4.918v88.137h4.918v25.588h-4.918v88.137h4.918v25.588h-4.918v72.937h269.529
		v-13.516h-6.055v-25.587h6.055v-28.006h11.941v67.108h34.115V20.75H74.609z M157.828,110.745h25.587v25.588h-25.587V110.745z
		 M183.415,477.508h-25.587v-25.587h25.587V477.508z M183.415,363.784h-25.587v-25.589h25.587V363.784z M210.754,270.375h-36.607
		c-2.275,5.032-7.328,8.542-13.208,8.542c-8.007,0-14.499-6.493-14.499-14.501s6.492-14.5,14.499-14.5
		c6.016,0,11.175,3.665,13.37,8.884h36.445V270.375z M240.449,418.087h-25.587v-25.588h25.587V418.087z M240.449,304.362h-25.587
		v-25.588h25.587V304.362z M240.449,190.638h-25.587v-25.589h25.587V190.638z M297.141,477.508h-25.588v-25.587h25.588V477.508z
		 M297.141,363.784h-25.588v-25.589h25.588V363.784z M297.141,250.06h-25.588v-25.59h25.588V250.06z M297.141,136.333h-25.588
		v-25.588h25.588V136.333z M354.174,418.087h-25.588v-25.588h25.588V418.087z M354.174,304.362h-25.588v-25.588h25.588V304.362z
		 M354.174,190.638h-25.588v-25.589h25.588V190.638z M403.275,370.843h-11.941v-7.059h-6.055v-25.589h6.055V250.06h-6.055v-25.59
		h6.055v-73.873h11.941V370.843z"/>
</g>
</svg>
