<?xml version="1.0" encoding="iso-8859-1"?>
<!-- Generator: Adobe Illustrator 16.0.0, SVG Export Plug-In . SVG Version: 6.00 Build 0)  -->
<!DOCTYPE svg PUBLIC "-//W3C//DTD SVG 1.1//EN" "http://www.w3.org/Graphics/SVG/1.1/DTD/svg11.dtd">
<svg version="1.1" id="Layer_1" xmlns="http://www.w3.org/2000/svg" xmlns:xlink="http://www.w3.org/1999/xlink" x="0px" y="0px"
	 width="512px" height="512px" viewBox="0 0 512 512" style="enable-background:new 0 0 512 512;" xml:space="preserve">
<path d="M8.771,30.25v451.5h34v-82.953h9.99v82.953h196.598V74.551H52.761v55.652h-9.99V64.25h426.459v65.953h-9.988V74.551H262.644
	V481.75h196.598v-82.953h9.988v82.953h34V30.25H8.771z M206.876,251.792c7.018,0,12.709,5.689,12.709,12.708
	s-5.691,12.708-12.709,12.708s-12.709-5.689-12.709-12.708S199.858,251.792,206.876,251.792z M52.761,177.223v174.551h-9.99V177.223
	H52.761z M305.126,277.208c-7.018,0-12.709-5.689-12.709-12.708s5.691-12.708,12.709-12.708s12.709,5.689,12.709,12.708
	S312.144,277.208,305.126,277.208z M459.241,351.774V177.223h9.988v174.551H459.241z"/>
</svg>
