<?xml version="1.0" encoding="iso-8859-1"?>
<!-- Generator: Adobe Illustrator 16.0.0, SVG Export Plug-In . SVG Version: 6.00 Build 0)  -->
<!DOCTYPE svg PUBLIC "-//W3C//DTD SVG 1.1//EN" "http://www.w3.org/Graphics/SVG/1.1/DTD/svg11.dtd">
<svg version="1.1" id="Layer_1" xmlns="http://www.w3.org/2000/svg" xmlns:xlink="http://www.w3.org/1999/xlink" x="0px" y="0px"
	 width="512px" height="512px" viewBox="0 0 512 512" style="enable-background:new 0 0 512 512;" xml:space="preserve">
<path d="M8.771,30.25v451.5h34v-82.953h11.536v82.456l141.086-30.854V107.611L54.307,76.756v53.447H42.771V64.25h426.459v65.953
	h-12.536V76.756l-141.086,30.855v342.787l141.086,30.854v-82.456h12.536v82.953h34V30.25H8.771z M171.742,256.817
	c5.036,0,9.12,4.788,9.12,10.696c0,5.909-4.084,10.698-9.12,10.698s-9.121-4.789-9.121-10.698
	C162.621,261.605,166.706,256.817,171.742,256.817z M54.307,177.223v174.551H42.771V177.223H54.307z M339.258,278.212
	c-5.035,0-9.121-4.789-9.121-10.698c0-5.908,4.086-10.696,9.121-10.696s9.121,4.788,9.121,10.696
	C348.379,273.423,344.293,278.212,339.258,278.212z M469.229,351.773h-12.536V177.223h12.536V351.773z"/>
</svg>
