<?xml version="1.0" encoding="iso-8859-1"?>
<!-- Generator: Adobe Illustrator 16.0.0, SVG Export Plug-In . SVG Version: 6.00 Build 0)  -->
<!DOCTYPE svg PUBLIC "-//W3C//DTD SVG 1.1//EN" "http://www.w3.org/Graphics/SVG/1.1/DTD/svg11.dtd">
<svg version="1.1" id="Layer_1" xmlns="http://www.w3.org/2000/svg" xmlns:xlink="http://www.w3.org/1999/xlink" x="0px" y="0px"
	 width="512px" height="512px" viewBox="0 0 512 512" style="enable-background:new 0 0 512 512;" xml:space="preserve">
<path d="M81.615,4.67l20.75,426.727l30.726-1.492L113.909,35.432h284.112L395.049,93.9l-9.053-0.002l2.65-52.072l-255.163,70.203
	l20.489,395.301l214.285-79.586l3.213-48.492h9.072l-2.574,50.619l30.725,1.563L430.385,4.67H81.615z M173.965,313.496
	c-5.922,0-10.723-6.045-10.723-13.504c0-7.455,4.801-13.5,10.723-13.5s10.723,6.045,10.723,13.5
	C184.688,307.451,179.887,313.496,173.965,313.496z M373.514,329.293l9.939-185.441l9.057,0.002l-9.428,185.441L373.514,329.293z"/>
</svg>
