<?xml version="1.0" encoding="iso-8859-1"?>
<!-- Generator: Adobe Illustrator 16.0.0, SVG Export Plug-In . SVG Version: 6.00 Build 0)  -->
<!DOCTYPE svg PUBLIC "-//W3C//DTD SVG 1.1//EN" "http://www.w3.org/Graphics/SVG/1.1/DTD/svg11.dtd">
<svg version="1.1" id="Layer_1" xmlns="http://www.w3.org/2000/svg" xmlns:xlink="http://www.w3.org/1999/xlink" x="0px" y="0px"
	 width="512px" height="512px" viewBox="0 0 512 512" style="enable-background:new 0 0 512 512;" xml:space="preserve">
<g>
	<rect x="36.901" y="440.199" width="92.107" height="53.898"/>
	<rect x="382.99" y="440.199" width="92.107" height="53.898"/>
	<rect x="379.322" y="399.515" width="53.732" height="34.218"/>
	<rect x="78.944" y="399.515" width="53.732" height="34.218"/>
	<rect x="36.901" y="339.148" width="92.107" height="53.899"/>
	<rect x="36.901" y="238.1" width="92.107" height="53.9"/>
	<rect x="382.99" y="339.148" width="92.107" height="53.899"/>
	<rect x="382.99" y="238.1" width="92.107" height="53.9"/>
	<path d="M380.524,202.885l95.241-22.63l-28.657-82.439l-97.271,45.298C364.959,159.64,375.783,180.158,380.524,202.885z"/>
	<path d="M162.162,143.113L64.892,97.815l-28.657,82.439l95.241,22.63C136.217,180.158,147.04,159.64,162.162,143.113z"/>
	<path d="M343.815,17.902H168.185l27.712,98.915c17.91-9.644,38.378-15.122,60.104-15.122s42.193,5.479,60.104,15.122
		L343.815,17.902z"/>
	<path d="M379.322,231.633h53.732v-34.582l-55.153,13.104c0.937,6.112,1.421,12.372,1.421,18.743V231.633z"/>
	<rect x="78.944" y="298.467" width="53.732" height="34.216"/>
	<rect x="379.322" y="298.467" width="53.732" height="34.216"/>
	<path d="M191.198,124.018l-23.843-85.105l-50.494,6.02l-24.343,58.616l78.156,36.396
		C176.923,133.947,183.803,128.604,191.198,124.018z"/>
	<path d="M341.325,139.943l77.313-36.003l-26.343-58.999l-47.799-5.502l-23.695,84.578
		C328.197,128.604,335.076,133.947,341.325,139.943z"/>
	<path d="M78.944,231.633h53.732v-2.734c0-6.371,0.485-12.631,1.422-18.743l-55.154-13.104V231.633z"/>
	<path d="M261.738,494.098h38.523V120.725c-11.976-4.905-24.943-7.885-38.523-8.541V494.098z"/>
	<path d="M211.738,494.098h38.523V112.184c-13.58,0.656-26.548,3.636-38.523,8.541V494.098z"/>
	<path d="M311.738,126.167v367.931h38.523V159.832C340.088,145.97,326.935,134.43,311.738,126.167z"/>
	<path d="M361.738,494.098h11.118V228.898c0-17.811-3.991-34.688-11.118-49.794V494.098z"/>
	<path d="M161.738,159.832v334.266h38.523V126.167C185.065,134.43,171.912,145.97,161.738,159.832z M191.475,310.133
		c0,5.785-4.689,10.475-10.475,10.475s-10.475-4.689-10.475-10.475c0-5.786,4.689-10.475,10.475-10.475
		S191.475,304.347,191.475,310.133z"/>
	<path d="M139.144,494.098h11.118V179.104c-7.127,15.106-11.118,31.983-11.118,49.794V494.098z"/>
</g>
</svg>
