<?xml version="1.0" encoding="utf-8"?>
<!-- Generator: Adobe Illustrator 16.0.0, SVG Export Plug-In . SVG Version: 6.00 Build 0)  -->
<!DOCTYPE svg PUBLIC "-//W3C//DTD SVG 1.1//EN" "http://www.w3.org/Graphics/SVG/1.1/DTD/svg11.dtd">
<svg version="1.1" id="Layer_1" xmlns="http://www.w3.org/2000/svg" xmlns:xlink="http://www.w3.org/1999/xlink" x="0px" y="0px"
	 width="100px" height="100px" viewBox="0 0 100 100" enable-background="new 0 0 100 100" xml:space="preserve">
<path d="M50,27.386c-13.509,0-24.5,10.991-24.5,24.5s10.991,24.5,24.5,24.5c13.51,0,24.5-10.991,24.5-24.5S63.51,27.386,50,27.386z
	 M64.174,52.886H51v13.173c0,0.552-0.447,1-1,1c-0.552,0-1-0.448-1-1V52.886H35.827c-0.552,0-1-0.448-1-1s0.448-1,1-1H49V37.712
	c0-0.552,0.448-1,1-1c0.553,0,1,0.448,1,1v13.173h13.174c0.553,0,1,0.448,1,1S64.727,52.886,64.174,52.886z"/>
</svg>
