<?xml version="1.0" encoding="utf-8"?>
<!-- Generator: Adobe Illustrator 16.0.0, SVG Export Plug-In . SVG Version: 6.00 Build 0)  -->
<!DOCTYPE svg PUBLIC "-//W3C//DTD SVG 1.1//EN" "http://www.w3.org/Graphics/SVG/1.1/DTD/svg11.dtd">
<svg version="1.1" id="Layer_1" xmlns="http://www.w3.org/2000/svg" xmlns:xlink="http://www.w3.org/1999/xlink" x="0px" y="0px"
	 width="100px" height="100px" viewBox="0 0 100 100" enable-background="new 0 0 100 100" xml:space="preserve">
<g>
	<path d="M49.713,35.615c-11.579,0-21,9.42-21,21s9.421,21,21,21c11.58,0,21-9.42,21-21S61.293,35.615,49.713,35.615z
		 M51.102,58.057l-8.132,8.131c-0.195,0.195-0.451,0.293-0.707,0.293s-0.512-0.098-0.707-0.293c-0.391-0.391-0.391-1.023,0-1.414
		l7.425-7.424L38.197,46.566c-0.391-0.391-0.391-1.023,0-1.414s1.023-0.391,1.414,0l11.49,11.491
		C51.492,57.034,51.492,57.667,51.102,58.057z"/>
	<path d="M43.263,30.13c0-0.265-0.105-0.519-0.293-0.707c-2.106-2.106-4.907-3.267-7.886-3.267s-5.779,1.16-7.885,3.267
		c-2.107,2.106-3.267,4.906-3.268,7.885c0,2.979,1.16,5.779,3.268,7.886c0.195,0.195,0.451,0.293,0.707,0.293
		s0.512-0.098,0.707-0.293L42.97,30.837C43.157,30.65,43.263,30.396,43.263,30.13z"/>
	<path d="M73.023,29.423c-2.105-2.106-4.906-3.267-7.885-3.267s-5.779,1.16-7.886,3.267c-0.188,0.188-0.293,0.442-0.293,0.707
		s0.105,0.52,0.293,0.707l14.356,14.356c0.195,0.195,0.451,0.293,0.707,0.293s0.512-0.098,0.707-0.293
		c2.107-2.106,3.268-4.907,3.268-7.886C76.29,34.33,75.131,31.529,73.023,29.423z"/>
</g>
</svg>
