<?xml version="1.0" encoding="utf-8"?>
<!-- Generator: Adobe Illustrator 16.0.0, SVG Export Plug-In . SVG Version: 6.00 Build 0)  -->
<!DOCTYPE svg PUBLIC "-//W3C//DTD SVG 1.1//EN" "http://www.w3.org/Graphics/SVG/1.1/DTD/svg11.dtd">
<svg version="1.1" id="Layer_1" xmlns="http://www.w3.org/2000/svg" xmlns:xlink="http://www.w3.org/1999/xlink" x="0px" y="0px"
	 width="100px" height="100px" viewBox="0 0 100 100" enable-background="new 0 0 100 100" xml:space="preserve">
<path d="M62.337,28.971H49.032v24.429l7.127-7.126c0.391-0.391,1.023-0.391,1.414,0s0.391,1.023,0,1.414L48.74,56.52
	c-0.093,0.094-0.203,0.166-0.325,0.217c-0.123,0.051-0.252,0.077-0.383,0.077c-0.13,0-0.26-0.026-0.382-0.077
	s-0.233-0.123-0.325-0.217l-8.832-8.832c-0.391-0.391-0.391-1.023,0-1.414s1.023-0.391,1.414,0l7.125,7.126V28.971H33.729
	c-3.605,0-6.539,2.934-6.539,6.539v28.607c0,3.605,2.934,6.54,6.539,6.54h28.607c3.605,0,6.539-2.935,6.539-6.54V35.51
	C68.876,31.904,65.942,28.971,62.337,28.971z"/>
</svg>
