<?xml version="1.0" encoding="utf-8"?>
<!-- Generator: Adobe Illustrator 16.0.0, SVG Export Plug-In . SVG Version: 6.00 Build 0)  -->
<!DOCTYPE svg PUBLIC "-//W3C//DTD SVG 1.1//EN" "http://www.w3.org/Graphics/SVG/1.1/DTD/svg11.dtd">
<svg version="1.1" id="Layer_1" xmlns="http://www.w3.org/2000/svg" xmlns:xlink="http://www.w3.org/1999/xlink" x="0px" y="0px"
	 width="100px" height="100px" viewBox="0 0 100 100" enable-background="new 0 0 100 100" xml:space="preserve">
<path d="M33.486,70.657h13.305V46.229l-7.127,7.126c-0.391,0.391-1.023,0.391-1.414,0s-0.391-1.023,0-1.414l8.834-8.832
	c0.092-0.093,0.203-0.166,0.324-0.217c0.123-0.05,0.252-0.077,0.383-0.077s0.26,0.027,0.383,0.077
	c0.121,0.051,0.232,0.124,0.324,0.217l8.833,8.832c0.391,0.391,0.391,1.023,0,1.414s-1.023,0.391-1.414,0l-7.126-7.126v24.429
	h13.303c3.605,0,6.539-2.935,6.539-6.54V35.51c0-3.605-2.934-6.539-6.539-6.539H33.486c-3.605,0-6.538,2.934-6.538,6.539v28.607
	C26.948,67.723,29.881,70.657,33.486,70.657z"/>
</svg>
