<?xml version="1.0" encoding="utf-8"?>
<!-- Generator: Adobe Illustrator 16.0.0, SVG Export Plug-In . SVG Version: 6.00 Build 0)  -->
<!DOCTYPE svg PUBLIC "-//W3C//DTD SVG 1.1//EN" "http://www.w3.org/Graphics/SVG/1.1/DTD/svg11.dtd">
<svg version="1.1" id="Layer_1" xmlns="http://www.w3.org/2000/svg" xmlns:xlink="http://www.w3.org/1999/xlink" x="0px" y="0px"
	 width="100px" height="100px" viewBox="0 0 100 100" enable-background="new 0 0 100 100" xml:space="preserve">
<path d="M74.424,26.955H33.758c-2.113,0-3.834,1.72-3.834,3.834v38.671c0,2.114,1.721,3.835,3.834,3.835h40.666
	c2.113,0,3.834-1.721,3.834-3.835V30.789C78.258,28.674,76.537,26.955,74.424,26.955z M69.07,37.625h-1.584v14.838
	c0,2.113-1.721,3.834-3.834,3.834H44.529c-2.113,0-3.834-1.721-3.834-3.834V37.625h-1.584c-0.553,0-1-0.447-1-1s0.447-1,1-1h5.168
	c0.551,0,1,0.447,1,1s-0.449,1-1,1h-1.584v14.838c0,1.012,0.822,1.834,1.834,1.834h19.123c1.012,0,1.834-0.822,1.834-1.834V37.625
	h-1.584c-0.551,0-1-0.447-1-1s0.449-1,1-1h5.168c0.553,0,1,0.447,1,1S69.623,37.625,69.07,37.625z"/>
</svg>
