<?xml version="1.0" encoding="utf-8"?>
<!-- Generator: Adobe Illustrator 16.0.0, SVG Export Plug-In . SVG Version: 6.00 Build 0)  -->
<!DOCTYPE svg PUBLIC "-//W3C//DTD SVG 1.1//EN" "http://www.w3.org/Graphics/SVG/1.1/DTD/svg11.dtd">
<svg version="1.1" id="Layer_1" xmlns="http://www.w3.org/2000/svg" xmlns:xlink="http://www.w3.org/1999/xlink" x="0px" y="0px"
	 width="100px" height="100px" viewBox="0 0 100 100" enable-background="new 0 0 100 100" xml:space="preserve">
<g>
	<path d="M34.326,32.391c0.149,0.119,0.292,0.244,0.438,0.365c0.212,0.178,0.424,0.354,0.629,0.537
		c0.148,0.133,0.289,0.271,0.433,0.406c0.193,0.182,0.386,0.364,0.572,0.551c0.144,0.146,0.283,0.297,0.423,0.445
		c0.177,0.188,0.353,0.375,0.523,0.568c0.137,0.154,0.269,0.313,0.402,0.473c0.163,0.194,0.324,0.389,0.48,0.587
		c0.129,0.165,0.253,0.331,0.378,0.499c0.149,0.201,0.297,0.404,0.44,0.609c0.12,0.172,0.236,0.347,0.351,0.521
		c0.136,0.209,0.27,0.418,0.4,0.629c0.11,0.181,0.217,0.361,0.323,0.543c0.124,0.215,0.244,0.432,0.361,0.65
		c0.1,0.186,0.197,0.372,0.292,0.559c0.111,0.223,0.218,0.446,0.323,0.672c0.088,0.19,0.176,0.379,0.259,0.573
		c0.1,0.228,0.192,0.46,0.285,0.692c0.077,0.193,0.154,0.387,0.226,0.584c0.086,0.234,0.166,0.474,0.245,0.713
		c0.065,0.197,0.132,0.394,0.191,0.592c0.074,0.244,0.14,0.49,0.206,0.738c0.052,0.197,0.107,0.393,0.155,0.59
		c0.062,0.258,0.113,0.516,0.166,0.775c0.04,0.193,0.083,0.385,0.118,0.578c0.049,0.272,0.086,0.547,0.125,0.822
		c0.026,0.184,0.058,0.365,0.079,0.55c0.037,0.308,0.061,0.617,0.085,0.927c0.012,0.154,0.031,0.307,0.04,0.461
		c0.027,0.465,0.042,0.932,0.042,1.4s-0.015,0.934-0.042,1.398c-0.009,0.152-0.027,0.305-0.04,0.457
		c-0.024,0.311-0.048,0.62-0.084,0.928c-0.021,0.182-0.053,0.362-0.078,0.543c-0.039,0.275-0.077,0.553-0.126,0.826
		c-0.034,0.191-0.077,0.381-0.115,0.57c-0.053,0.26-0.105,0.522-0.167,0.781c-0.046,0.193-0.1,0.385-0.151,0.576
		c-0.067,0.252-0.134,0.502-0.208,0.752c-0.059,0.194-0.124,0.385-0.187,0.578c-0.08,0.242-0.16,0.485-0.248,0.725
		c-0.07,0.191-0.145,0.381-0.22,0.57c-0.093,0.236-0.188,0.472-0.289,0.705c-0.081,0.188-0.167,0.373-0.252,0.559
		c-0.106,0.229-0.215,0.458-0.328,0.684c-0.092,0.184-0.187,0.363-0.283,0.545c-0.119,0.223-0.242,0.443-0.368,0.664
		c-0.103,0.176-0.206,0.352-0.313,0.527c-0.132,0.217-0.268,0.43-0.408,0.642c-0.112,0.171-0.225,0.341-0.341,0.509
		c-0.145,0.209-0.295,0.416-0.447,0.621c-0.121,0.162-0.242,0.326-0.368,0.486c-0.158,0.203-0.323,0.402-0.488,0.6
		c-0.129,0.154-0.257,0.311-0.39,0.461c-0.173,0.197-0.352,0.389-0.532,0.58c-0.136,0.145-0.271,0.291-0.411,0.432
		c-0.188,0.191-0.382,0.375-0.577,0.559c-0.142,0.135-0.281,0.27-0.426,0.401c-0.207,0.187-0.421,0.365-0.635,0.544
		c-0.143,0.119-0.281,0.242-0.427,0.357c-0.028,0.023-0.054,0.048-0.082,0.07c4.214,3.623,9.48,5.699,15.033,5.922v-49.21
		c-5.571,0.224-10.852,2.312-15.073,5.958C34.272,32.344,34.298,32.367,34.326,32.391z"/>
	<path d="M66.522,68.462c-0.216-0.167-0.433-0.334-0.642-0.509c-0.167-0.139-0.328-0.283-0.491-0.428
		c-0.201-0.176-0.402-0.354-0.597-0.536c-0.16-0.149-0.313-0.304-0.468-0.458c-0.187-0.185-0.374-0.371-0.554-0.563
		c-0.15-0.16-0.296-0.323-0.442-0.486c-0.173-0.195-0.346-0.391-0.512-0.592c-0.14-0.168-0.277-0.34-0.413-0.511
		c-0.16-0.204-0.318-0.409-0.471-0.617c-0.13-0.177-0.256-0.355-0.381-0.535c-0.147-0.212-0.292-0.427-0.432-0.644
		C61,62.4,60.885,62.217,60.771,62.03c-0.135-0.222-0.265-0.446-0.392-0.671c-0.107-0.189-0.212-0.379-0.314-0.572
		c-0.121-0.229-0.236-0.461-0.35-0.692c-0.095-0.196-0.189-0.392-0.279-0.589c-0.107-0.238-0.208-0.477-0.308-0.719
		c-0.083-0.199-0.166-0.398-0.243-0.6c-0.094-0.246-0.181-0.496-0.267-0.746c-0.069-0.202-0.141-0.402-0.204-0.605
		c-0.081-0.256-0.152-0.516-0.225-0.777c-0.056-0.201-0.114-0.401-0.165-0.604c-0.067-0.27-0.123-0.541-0.181-0.813
		c-0.042-0.199-0.089-0.396-0.126-0.598c-0.053-0.285-0.093-0.574-0.136-0.861c-0.028-0.191-0.062-0.381-0.085-0.571
		c-0.04-0.321-0.065-0.646-0.091-0.97c-0.013-0.162-0.033-0.322-0.043-0.484c-0.03-0.486-0.046-0.977-0.046-1.469
		c0-0.451,0.013-0.9,0.038-1.346c0.008-0.146,0.025-0.291,0.036-0.438c0.021-0.299,0.043-0.598,0.076-0.893
		c0.02-0.174,0.047-0.344,0.07-0.517c0.036-0.267,0.07-0.533,0.114-0.798c0.031-0.184,0.069-0.363,0.104-0.545
		c0.048-0.25,0.095-0.5,0.151-0.748c0.042-0.188,0.091-0.373,0.138-0.559c0.06-0.238,0.121-0.479,0.188-0.715
		c0.053-0.187,0.112-0.371,0.17-0.557c0.072-0.231,0.145-0.463,0.225-0.693c0.063-0.184,0.132-0.367,0.201-0.551
		c0.084-0.225,0.17-0.449,0.262-0.672c0.074-0.182,0.152-0.361,0.231-0.541c0.096-0.219,0.195-0.438,0.298-0.654
		c0.084-0.176,0.171-0.352,0.26-0.527c0.109-0.213,0.221-0.426,0.336-0.637c0.094-0.171,0.189-0.342,0.287-0.512
		c0.121-0.208,0.246-0.414,0.373-0.619c0.103-0.166,0.207-0.332,0.314-0.494c0.134-0.203,0.271-0.404,0.411-0.604
		c0.111-0.158,0.223-0.316,0.338-0.473c0.146-0.197,0.298-0.393,0.451-0.586c0.119-0.15,0.237-0.302,0.359-0.451
		c0.16-0.193,0.327-0.381,0.494-0.57c0.125-0.141,0.248-0.285,0.377-0.424c0.177-0.19,0.362-0.377,0.546-0.563
		c0.127-0.129,0.251-0.26,0.382-0.387c0.202-0.193,0.411-0.383,0.62-0.57c0.123-0.109,0.241-0.225,0.366-0.332
		c0.021-0.018,0.04-0.036,0.06-0.054c-4.079-3.231-9.076-5.087-14.275-5.299v49.21c5.941-0.234,11.489-2.561,15.827-6.633
		c-0.038-0.027-0.073-0.059-0.11-0.086C66.859,68.729,66.692,68.594,66.522,68.462z"/>
	<path d="M34.912,66.41c0.144-0.145,0.284-0.289,0.423-0.436c0.153-0.163,0.304-0.326,0.453-0.494
		c0.134-0.149,0.265-0.301,0.395-0.455c0.144-0.17,0.284-0.344,0.422-0.52c0.124-0.156,0.247-0.314,0.367-0.475
		c0.133-0.178,0.262-0.359,0.389-0.541c0.115-0.164,0.229-0.328,0.339-0.495c0.123-0.187,0.241-0.374,0.358-0.563
		c0.104-0.169,0.208-0.338,0.307-0.51c0.113-0.193,0.22-0.391,0.327-0.588c0.094-0.173,0.188-0.346,0.276-0.521
		c0.102-0.201,0.197-0.406,0.292-0.609c0.083-0.178,0.167-0.354,0.245-0.533c0.091-0.209,0.175-0.422,0.259-0.633
		c0.072-0.18,0.145-0.357,0.212-0.539c0.08-0.217,0.151-0.437,0.224-0.654c0.06-0.182,0.124-0.363,0.179-0.546
		c0.067-0.225,0.126-0.45,0.188-0.677c0.049-0.182,0.101-0.363,0.146-0.547c0.056-0.234,0.103-0.473,0.151-0.707
		c0.037-0.18,0.078-0.357,0.11-0.537c0.045-0.25,0.079-0.504,0.115-0.757c0.024-0.169,0.054-0.335,0.074-0.505
		c0.034-0.285,0.056-0.571,0.079-0.859c0.011-0.139,0.028-0.277,0.036-0.416c0.026-0.429,0.04-0.859,0.04-1.291
		s-0.014-0.863-0.04-1.291c-0.008-0.143-0.026-0.285-0.037-0.429c-0.023-0.284-0.044-0.569-0.078-0.853
		c-0.02-0.167-0.049-0.332-0.073-0.498c-0.037-0.256-0.071-0.514-0.117-0.768c-0.032-0.176-0.072-0.35-0.108-0.525
		c-0.05-0.241-0.097-0.482-0.155-0.723c-0.043-0.178-0.094-0.354-0.142-0.533c-0.063-0.23-0.123-0.463-0.193-0.693
		c-0.054-0.178-0.116-0.355-0.175-0.532c-0.074-0.224-0.148-0.448-0.229-0.669c-0.065-0.178-0.138-0.354-0.208-0.529
		c-0.086-0.217-0.172-0.434-0.266-0.646c-0.076-0.174-0.158-0.348-0.239-0.52c-0.098-0.209-0.196-0.42-0.301-0.625
		c-0.087-0.171-0.179-0.34-0.27-0.51c-0.109-0.201-0.22-0.404-0.335-0.604c-0.097-0.166-0.198-0.33-0.3-0.493
		c-0.121-0.197-0.243-0.392-0.371-0.583c-0.106-0.16-0.217-0.32-0.328-0.479c-0.132-0.188-0.267-0.375-0.405-0.559
		c-0.116-0.156-0.235-0.309-0.355-0.459c-0.143-0.182-0.289-0.359-0.438-0.536c-0.126-0.148-0.254-0.296-0.383-0.442
		c-0.153-0.172-0.309-0.34-0.468-0.507c-0.135-0.144-0.271-0.283-0.411-0.423c-0.163-0.162-0.33-0.322-0.499-0.479
		c-0.144-0.136-0.288-0.269-0.436-0.398c-0.173-0.155-0.351-0.304-0.53-0.452c-0.152-0.127-0.305-0.254-0.461-0.377
		c-0.067-0.053-0.138-0.102-0.206-0.154c-4.564,4.634-7.068,10.729-7.068,17.256c0,6.549,2.516,12.656,7.105,17.295
		c0.065-0.05,0.133-0.098,0.197-0.149c0.162-0.126,0.32-0.259,0.478-0.39c0.171-0.143,0.342-0.287,0.509-0.436
		c0.153-0.137,0.303-0.275,0.452-0.414C34.594,66.721,34.755,66.566,34.912,66.41z"/>
	<path d="M50.317,22.623c-15.655,0-28.347,12.69-28.347,28.346s12.691,28.347,28.347,28.347s28.346-12.691,28.346-28.347
		S65.972,22.623,50.317,22.623z M69.427,69.5c-5.057,5.214-11.834,8.088-19.085,8.095c-0.001,0-0.003,0-0.005,0
		c-0.008,0.001-0.014,0-0.02,0c-6.829,0-13.325-2.589-18.291-7.288c-5.374-5.084-8.334-11.953-8.334-19.338
		c0-7.363,2.945-14.217,8.292-19.299c4.972-4.723,11.482-7.325,18.333-7.325c6.438,0,12.655,2.335,17.506,6.573
		c0,0,0.001,0.002,0.001,0.002c5.795,5.063,9.118,12.371,9.118,20.049C76.942,57.922,74.273,64.502,69.427,69.5z"/>
	<path d="M67.133,32.989c-0.057,0.048-0.116,0.095-0.173,0.142c-0.148,0.127-0.293,0.258-0.438,0.387
		c-0.162,0.146-0.322,0.291-0.479,0.441c-0.141,0.135-0.279,0.271-0.416,0.408c-0.151,0.152-0.301,0.307-0.447,0.463
		c-0.133,0.141-0.264,0.284-0.392,0.431c-0.141,0.157-0.281,0.318-0.417,0.481c-0.125,0.148-0.247,0.297-0.367,0.449
		c-0.132,0.166-0.261,0.334-0.387,0.503c-0.115,0.153-0.229,0.308-0.339,0.464c-0.123,0.174-0.242,0.35-0.359,0.527
		c-0.104,0.158-0.208,0.316-0.309,0.478c-0.113,0.181-0.223,0.362-0.33,0.548c-0.095,0.162-0.19,0.326-0.281,0.49
		c-0.103,0.188-0.201,0.377-0.298,0.566c-0.085,0.166-0.171,0.334-0.252,0.502c-0.093,0.195-0.181,0.393-0.268,0.588
		c-0.076,0.171-0.151,0.34-0.223,0.512c-0.083,0.201-0.159,0.404-0.236,0.608c-0.064,0.171-0.131,0.343-0.192,0.517
		c-0.073,0.209-0.139,0.42-0.205,0.633c-0.054,0.172-0.111,0.344-0.161,0.518c-0.063,0.217-0.116,0.437-0.172,0.654
		c-0.044,0.174-0.091,0.344-0.13,0.518c-0.052,0.229-0.095,0.459-0.139,0.688c-0.033,0.168-0.069,0.336-0.098,0.506
		c-0.042,0.242-0.072,0.488-0.105,0.735c-0.021,0.157-0.047,0.316-0.065,0.476c-0.03,0.271-0.049,0.545-0.07,0.818
		c-0.01,0.137-0.026,0.272-0.034,0.41c-0.023,0.41-0.035,0.824-0.035,1.24c0,0.453,0.015,0.905,0.042,1.354
		c0.009,0.152,0.028,0.302,0.041,0.452c0.024,0.296,0.047,0.593,0.083,0.888c0.022,0.18,0.055,0.355,0.081,0.533
		c0.039,0.264,0.076,0.527,0.124,0.787c0.035,0.188,0.08,0.373,0.12,0.561c0.053,0.246,0.104,0.494,0.164,0.738
		c0.048,0.191,0.105,0.379,0.158,0.568c0.065,0.234,0.129,0.471,0.203,0.703c0.061,0.191,0.129,0.379,0.195,0.568
		c0.079,0.227,0.156,0.454,0.242,0.678c0.073,0.189,0.153,0.375,0.231,0.562c0.091,0.218,0.181,0.437,0.279,0.651
		c0.085,0.186,0.176,0.369,0.267,0.553c0.103,0.21,0.206,0.418,0.316,0.626c0.097,0.181,0.199,0.36,0.302,0.54
		c0.114,0.201,0.229,0.402,0.351,0.6c0.108,0.178,0.222,0.352,0.335,0.525c0.126,0.193,0.254,0.387,0.387,0.576
		c0.119,0.17,0.242,0.338,0.367,0.505c0.138,0.188,0.278,0.372,0.422,0.554c0.13,0.162,0.263,0.324,0.398,0.484
		c0.15,0.178,0.302,0.354,0.458,0.527c0.14,0.155,0.282,0.308,0.426,0.459c0.162,0.17,0.326,0.338,0.494,0.502
		c0.149,0.147,0.3,0.291,0.454,0.436c0.173,0.16,0.35,0.318,0.528,0.475c0.158,0.137,0.318,0.273,0.48,0.406
		c0.186,0.152,0.374,0.301,0.564,0.447c0.166,0.127,0.333,0.254,0.503,0.377c0.078,0.057,0.159,0.109,0.238,0.165
		c4.115-4.54,6.372-10.372,6.372-16.521C74.942,44.148,72.105,37.643,67.133,32.989z"/>
</g>
</svg>
