<?xml version="1.0" encoding="utf-8"?>
<!-- Generator: Adobe Illustrator 16.0.0, SVG Export Plug-In . SVG Version: 6.00 Build 0)  -->
<!DOCTYPE svg PUBLIC "-//W3C//DTD SVG 1.1//EN" "http://www.w3.org/Graphics/SVG/1.1/DTD/svg11.dtd">
<svg version="1.1" id="Layer_1" xmlns="http://www.w3.org/2000/svg" xmlns:xlink="http://www.w3.org/1999/xlink" x="0px" y="0px"
	 width="100px" height="100px" viewBox="0 0 100 100" enable-background="new 0 0 100 100" xml:space="preserve">
<g>
	<path d="M28.385,41.052v18.145c0,1.012,0.822,1.834,1.834,1.834h22.916V39.218H30.219C29.207,39.218,28.385,40.041,28.385,41.052z"
		/>
	<path d="M78.049,39.218H55.135v21.813h22.914c1.012,0,1.836-0.822,1.836-1.834V41.052C79.885,40.041,79.061,39.218,78.049,39.218z"
		/>
	<path d="M83.018,43.509v-2.457c0-2.739-2.229-4.968-4.969-4.968h-47.83c-2.74,0-4.969,2.229-4.969,4.968v18.145
		c0,2.739,2.229,4.968,4.969,4.968h47.83c2.74,0,4.969-2.229,4.969-4.968V56.74c1.084-0.708,1.75-1.91,1.75-3.24v-6.75
		C84.768,45.419,84.102,44.217,83.018,43.509z M83.635,53.5c0,1.163-0.729,2.154-1.75,2.555v3.143c0,2.113-1.721,3.834-3.836,3.834
		h-47.83c-2.115,0-3.834-1.721-3.834-3.834V41.052c0-2.113,1.719-3.834,3.834-3.834h47.83c2.115,0,3.836,1.721,3.836,3.834v3.143
		c1.021,0.4,1.75,1.392,1.75,2.555V53.5z"/>
</g>
</svg>
