<?xml version="1.0" encoding="utf-8"?>
<!-- Generator: Adobe Illustrator 16.0.0, SVG Export Plug-In . SVG Version: 6.00 Build 0)  -->
<!DOCTYPE svg PUBLIC "-//W3C//DTD SVG 1.1//EN" "http://www.w3.org/Graphics/SVG/1.1/DTD/svg11.dtd">
<svg version="1.1" id="Layer_1" xmlns="http://www.w3.org/2000/svg" xmlns:xlink="http://www.w3.org/1999/xlink" x="0px" y="0px"
	 width="100px" height="100px" viewBox="0 0 100 100" enable-background="new 0 0 100 100" xml:space="preserve">
<path d="M67.909,31.747h-36.16c-3.678,0-6.67,2.991-6.67,6.669v17.328c0,3.678,2.992,6.67,6.67,6.67h8.442l-6.036,7.014
	c-0.255,0.297-0.314,0.715-0.151,1.07s0.519,0.582,0.909,0.582h30.332c0.394,0,0.751-0.23,0.912-0.59s0.097-0.779-0.165-1.074
	l-6.228-7.002h8.145c3.678,0,6.67-2.992,6.67-6.67V38.416C74.579,34.738,71.587,31.747,67.909,31.747z M72.579,55.744
	c0,2.575-2.095,4.67-4.67,4.67h-9.922l-7.411-8.332c-0.189-0.213-0.462-0.335-0.747-0.335c-0.003,0-0.006,0-0.008,0
	c-0.289,0.003-0.562,0.129-0.75,0.348l-7.16,8.319H31.749c-2.575,0-4.67-2.095-4.67-4.67V38.416c0-2.574,2.095-4.669,4.67-4.669
	h36.16c2.575,0,4.67,2.095,4.67,4.669V55.744z"/>
</svg>
