<?xml version="1.0" encoding="utf-8"?>
<!-- Generator: Adobe Illustrator 16.0.0, SVG Export Plug-In . SVG Version: 6.00 Build 0)  -->
<!DOCTYPE svg PUBLIC "-//W3C//DTD SVG 1.1//EN" "http://www.w3.org/Graphics/SVG/1.1/DTD/svg11.dtd">
<svg version="1.1" id="Layer_1" xmlns="http://www.w3.org/2000/svg" xmlns:xlink="http://www.w3.org/1999/xlink" x="0px" y="0px"
	 width="100px" height="100px" viewBox="0 0 100 100" enable-background="new 0 0 100 100" xml:space="preserve">
<g>
	<rect x="47.922" y="45.099" width="4.268" height="4.269"/>
	<rect x="57.401" y="63.648" width="4.269" height="4.269"/>
	<rect x="47.922" y="63.648" width="4.268" height="4.269"/>
	<rect x="38.442" y="54.441" width="4.269" height="4.268"/>
	<rect x="57.401" y="54.441" width="4.269" height="4.268"/>
	<rect x="47.922" y="54.441" width="4.268" height="4.268"/>
	<rect x="38.442" y="33.289" width="23.228" height="4.582"/>
	<rect x="38.442" y="45.099" width="4.269" height="4.269"/>
	<rect x="38.442" y="63.648" width="4.269" height="4.269"/>
	<path d="M62.887,25.521H37.225c-3.678,0-6.669,2.992-6.669,6.67V69.62c0,3.678,2.991,6.669,6.669,6.669h25.662
		c3.678,0,6.669-2.991,6.669-6.669V32.191C69.556,28.513,66.564,25.521,62.887,25.521z M44.711,68.917c0,0.552-0.448,1-1,1h-6.269
		c-0.552,0-1-0.448-1-1v-6.269c0-0.552,0.448-1,1-1h6.269c0.552,0,1,0.448,1,1V68.917z M44.711,59.708c0,0.553-0.448,1-1,1h-6.269
		c-0.552,0-1-0.447-1-1v-6.268c0-0.552,0.448-1,1-1h6.269c0.552,0,1,0.448,1,1V59.708z M44.711,50.368c0,0.552-0.448,1-1,1h-6.269
		c-0.552,0-1-0.448-1-1v-6.269c0-0.552,0.448-1,1-1h6.269c0.552,0,1,0.448,1,1V50.368z M54.189,68.917c0,0.552-0.447,1-1,1h-6.268
		c-0.553,0-1-0.448-1-1v-6.269c0-0.552,0.447-1,1-1h6.268c0.553,0,1,0.448,1,1V68.917z M54.189,59.708c0,0.553-0.447,1-1,1h-6.268
		c-0.553,0-1-0.447-1-1v-6.268c0-0.552,0.447-1,1-1h6.268c0.553,0,1,0.448,1,1V59.708z M54.189,50.368c0,0.552-0.447,1-1,1h-6.268
		c-0.553,0-1-0.448-1-1v-6.269c0-0.552,0.447-1,1-1h6.268c0.553,0,1,0.448,1,1V50.368z M63.67,68.917c0,0.552-0.448,1-1,1h-6.269
		c-0.552,0-1-0.448-1-1v-6.269c0-0.552,0.448-1,1-1h6.269c0.552,0,1,0.448,1,1V68.917z M63.67,59.708c0,0.553-0.448,1-1,1h-6.269
		c-0.552,0-1-0.447-1-1v-6.268c0-0.552,0.448-1,1-1h6.269c0.552,0,1,0.448,1,1V59.708z M63.67,50.368c0,0.552-0.448,1-1,1h-6.269
		c-0.552,0-1-0.448-1-1v-6.269c0-0.552,0.448-1,1-1h6.269c0.552,0,1,0.448,1,1V50.368z M63.67,38.871c0,0.552-0.448,1-1,1H37.442
		c-0.552,0-1-0.448-1-1v-6.582c0-0.552,0.448-1,1-1H62.67c0.552,0,1,0.448,1,1V38.871z"/>
	<rect x="57.401" y="45.099" width="4.269" height="4.269"/>
</g>
</svg>
