<?xml version="1.0" encoding="utf-8"?>
<!-- Generator: Adobe Illustrator 16.0.0, SVG Export Plug-In . SVG Version: 6.00 Build 0)  -->
<!DOCTYPE svg PUBLIC "-//W3C//DTD SVG 1.1//EN" "http://www.w3.org/Graphics/SVG/1.1/DTD/svg11.dtd">
<svg version="1.1" id="Layer_1" xmlns="http://www.w3.org/2000/svg" xmlns:xlink="http://www.w3.org/1999/xlink" x="0px" y="0px"
	 width="100px" height="100px" viewBox="0 0 100 100" enable-background="new 0 0 100 100" xml:space="preserve">
<g>
	<path d="M67.387,27.947h-33.66c-2.575,0-4.67,2.095-4.67,4.669v4.435h43v-4.435C72.057,30.042,69.962,27.947,67.387,27.947z"/>
	<path d="M29.057,67.384c0,2.575,2.095,4.669,4.67,4.669h33.66c2.575,0,4.67-2.094,4.67-4.669V39.051h-43V67.384z M58.895,57.176
		c-0.068-0.537-0.227-1.037-0.474-1.504c-0.222-0.475-0.555-0.844-0.998-1.107c-0.436-0.255-1.003-0.383-1.702-0.383
		c-1.307,0-2.223,0.611-2.752,1.833h-1.921l1.149-10.413h8.339v2.027H53.94l-0.87,5.936l0.064,0.053
		c0.783-0.975,1.818-1.463,3.105-1.463c1.797,0.062,3.088,0.721,3.871,1.977c0.75,1.258,1.124,2.742,1.124,4.456
		c0.018,1.854-0.356,3.511-1.123,4.97c-0.8,1.494-2.2,2.259-4.2,2.294c-3.56-0.07-5.296-1.969-5.207-5.695h2.238
		c-0.053,1.099,0.147,1.979,0.602,2.638c0.435,0.686,1.203,1.029,2.304,1.029c1.144-0.018,1.958-0.523,2.444-1.518
		c0.469-0.967,0.704-2.092,0.704-3.375C58.997,58.34,58.963,57.756,58.895,57.176z M40.025,48.964
		c1.404,0.018,2.502-0.229,3.293-0.741c0.748-0.503,1.199-1.514,1.353-3.031h1.689v20.25h-2.159v-14.74h-4.176V48.964z"/>
</g>
</svg>
