<?xml version="1.0" encoding="utf-8"?>
<!-- Generator: Adobe Illustrator 16.0.0, SVG Export Plug-In . SVG Version: 6.00 Build 0)  -->
<!DOCTYPE svg PUBLIC "-//W3C//DTD SVG 1.1//EN" "http://www.w3.org/Graphics/SVG/1.1/DTD/svg11.dtd">
<svg version="1.1" id="Layer_1" xmlns="http://www.w3.org/2000/svg" xmlns:xlink="http://www.w3.org/1999/xlink" x="0px" y="0px"
	 width="100px" height="100px" viewBox="0 0 100 100" enable-background="new 0 0 100 100" xml:space="preserve">
<g>
	<path d="M59.515,48.815L59.515,48.815l-6.128-6.127l-1.415-1.415L28.613,64.632c-0.391,0.391-0.391,1.023,0,1.414l1.477,1.476
		l-4.104,0.259c-0.424,0.027-0.785,0.319-0.899,0.728L22.141,79c-0.025,0.088-0.036,0.178-0.036,0.267
		c-0.001,0.004,0.001,0.009,0.001,0.014c0.001,0.081,0.024,0.157,0.046,0.234l4.582-4.583c0.195-0.195,0.512-0.195,0.707,0
		s0.195,0.512,0,0.707l-4.582,4.582c0.077,0.021,0.153,0.044,0.233,0.045c0.005,0,0.01,0.002,0.015,0.002
		c0.089,0,0.179-0.012,0.268-0.037l10.489-2.946c0.408-0.115,0.7-0.476,0.728-0.901l0.259-4.102l1.307,1.305
		c0.391,0.39,1.023,0.39,1.414,0L60.93,50.23L59.515,48.815L59.515,48.815z M36.863,71.467l-6.129-6.128L51.91,44.165l0.063-0.063
		l6.128,6.127l-0.063,0.063L36.863,71.467z"/>
	<path d="M74.811,34.934l-7.542-7.542l-2.357-2.358c-0.39-0.39-1.023-0.39-1.414,0l-18.62,18.621c-0.391,0.391-0.391,1.024,0,1.414
		c0.391,0.391,1.023,0.391,1.414,0l4.738-4.738l1.414-1.414l11.761-11.761l0.942,0.943l-11.761,11.76l8.958,8.957l12.467-12.467
		C75.201,35.957,75.201,35.325,74.811,34.934z M62.083,46.248l-6.128-6.128l10.605-10.606l6.129,6.128L62.083,46.248z"/>
</g>
</svg>
