<?xml version="1.0" encoding="utf-8"?>
<!-- Generator: Adobe Illustrator 16.0.0, SVG Export Plug-In . SVG Version: 6.00 Build 0)  -->
<!DOCTYPE svg PUBLIC "-//W3C//DTD SVG 1.1//EN" "http://www.w3.org/Graphics/SVG/1.1/DTD/svg11.dtd">
<svg version="1.1" id="Layer_1" xmlns="http://www.w3.org/2000/svg" xmlns:xlink="http://www.w3.org/1999/xlink" x="0px" y="0px"
	 width="100px" height="100px" viewBox="0 0 100 100" enable-background="new 0 0 100 100" xml:space="preserve">
<g>
	<path d="M29.046,57.678c-2.575,0-4.67-2.095-4.67-4.669V32.014c0-2.575,2.095-4.669,4.67-4.669h35.803
		c2.574,0,4.67,2.094,4.67,4.669v3.038H38.712c-3.678,0-6.669,2.992-6.669,6.67v15.956H29.046z"/>
	<path d="M79.185,62.716c0,2.575-2.094,4.67-4.669,4.67h-2.391c-0.552,0-1,0.447-1,1v4.27l-4.16-4.916
		c-0.19-0.225-0.47-0.354-0.763-0.354h-27.49c-2.574,0-4.669-2.095-4.669-4.67v-3.038v-2V41.722c0-2.574,2.095-4.67,4.669-4.67
		h30.807h2h2.997c2.575,0,4.669,2.096,4.669,4.67V62.716z"/>
</g>
</svg>
