<?xml version="1.0" encoding="utf-8"?>
<!-- Generator: Adobe Illustrator 16.0.0, SVG Export Plug-In . SVG Version: 6.00 Build 0)  -->
<!DOCTYPE svg PUBLIC "-//W3C//DTD SVG 1.1//EN" "http://www.w3.org/Graphics/SVG/1.1/DTD/svg11.dtd">
<svg version="1.1" id="Layer_1" xmlns="http://www.w3.org/2000/svg" xmlns:xlink="http://www.w3.org/1999/xlink" x="0px" y="0px"
	 width="100px" height="100px" viewBox="0 0 100 100" enable-background="new 0 0 100 100" xml:space="preserve">
<path d="M50.194,26.405c-13.509,0-24.5,10.99-24.5,24.5s10.991,24.5,24.5,24.5c13.51,0,24.5-10.99,24.5-24.5
	S63.704,26.405,50.194,26.405z M50.944,52.03c0,0.553-0.447,1-1,1l-11.5-0.001c-0.275,0-0.525-0.112-0.707-0.292
	c-0.181-0.182-0.293-0.432-0.293-0.707c0-0.553,0.447-1,1-1h10.5V35.78c0-0.553,0.448-1,1-1c0.553,0,1,0.447,1,1V52.03z"/>
</svg>
