<?xml version="1.0" encoding="utf-8"?>
<!-- Generator: Adobe Illustrator 16.0.0, SVG Export Plug-In . SVG Version: 6.00 Build 0)  -->
<!DOCTYPE svg PUBLIC "-//W3C//DTD SVG 1.1//EN" "http://www.w3.org/Graphics/SVG/1.1/DTD/svg11.dtd">
<svg version="1.1" id="Layer_1" xmlns="http://www.w3.org/2000/svg" xmlns:xlink="http://www.w3.org/1999/xlink" x="0px" y="0px"
	 width="100px" height="100px" viewBox="0 0 100 100" enable-background="new 0 0 100 100" xml:space="preserve">
<path d="M67.324,32.74c-9.553-9.552-25.096-9.553-34.648,0s-9.551,25.097,0,34.648c9.553,9.553,25.096,9.552,34.648,0
	S76.877,42.293,67.324,32.74z M49.736,56.39c-0.391,0.391-1.023,0.391-1.414,0l-8.133-8.132c-0.193-0.195-0.291-0.451-0.293-0.707
	c0-0.256,0.098-0.512,0.293-0.707c0.391-0.391,1.023-0.391,1.414,0l7.424,7.425l10.783-10.782c0.393-0.392,1.025-0.391,1.416,0
	s0.391,1.023,0,1.414L49.736,56.39z"/>
</svg>
