<?xml version="1.0" encoding="utf-8"?>
<!-- Generator: Adobe Illustrator 16.0.0, SVG Export Plug-In . SVG Version: 6.00 Build 0)  -->
<!DOCTYPE svg PUBLIC "-//W3C//DTD SVG 1.1//EN" "http://www.w3.org/Graphics/SVG/1.1/DTD/svg11.dtd">
<svg version="1.1" id="Layer_1" xmlns="http://www.w3.org/2000/svg" xmlns:xlink="http://www.w3.org/1999/xlink" x="0px" y="0px"
	 width="100px" height="100px" viewBox="0 0 100 100" enable-background="new 0 0 100 100" xml:space="preserve">
<g>
	<path d="M70.694,69.085H33.663c-7.565,0-13.72-6.154-13.72-13.72s6.155-13.721,13.72-13.721c1.233,0,2.465,0.171,3.673,0.511
		c2.143-5.025,7.094-8.338,12.611-8.338c3.96,0,7.66,1.68,10.27,4.637c1.211-0.512,2.521-0.779,3.833-0.779
		c5.438,0,9.862,4.425,9.862,9.862c0,0.763-0.091,1.524-0.272,2.275c4.066,1.27,6.917,5.066,6.917,9.41
		C80.557,64.661,76.132,69.085,70.694,69.085z"/>
</g>
</svg>
