<?xml version="1.0" encoding="utf-8"?>
<!-- Generator: Adobe Illustrator 16.0.0, SVG Export Plug-In . SVG Version: 6.00 Build 0)  -->
<!DOCTYPE svg PUBLIC "-//W3C//DTD SVG 1.1//EN" "http://www.w3.org/Graphics/SVG/1.1/DTD/svg11.dtd">
<svg version="1.1" id="Layer_1" xmlns="http://www.w3.org/2000/svg" xmlns:xlink="http://www.w3.org/1999/xlink" x="0px" y="0px"
	 width="100px" height="100px" viewBox="0 0 100 100" enable-background="new 0 0 100 100" xml:space="preserve">
<g>
	<path d="M69.563,43.084h-0.04c-0.227-0.63-0.49-1.261-0.79-1.888l0.034-0.033c2.601-2.602,2.601-6.832,0-9.433l-0.35-0.349
		c-1.26-1.26-2.934-1.954-4.715-1.954c-1.782,0-3.457,0.694-4.717,1.954l-0.034,0.033c-0.626-0.299-1.257-0.562-1.888-0.789v-0.041
		c0-3.678-2.991-6.669-6.669-6.669h-0.494c-3.678,0-6.669,2.991-6.669,6.669v0.041c-0.631,0.227-1.262,0.49-1.888,0.789
		l-0.034-0.033c-1.26-1.26-2.935-1.954-4.716-1.954c-1.782,0-3.456,0.694-4.716,1.954l-0.35,0.35
		c-1.26,1.259-1.953,2.934-1.953,4.715s0.693,3.457,1.953,4.717l0.034,0.033c-0.3,0.627-0.563,1.258-0.79,1.888h-0.04
		c-3.678,0-6.669,2.991-6.669,6.669v0.494c0,3.678,2.991,6.67,6.669,6.67h0.04c0.227,0.63,0.49,1.261,0.789,1.887l-0.033,0.034
		c-2.6,2.601-2.6,6.831,0,9.433l0.35,0.35c1.26,1.26,2.935,1.953,4.716,1.953s3.456-0.693,4.716-1.953l0.034-0.035
		c0.626,0.3,1.257,0.563,1.888,0.791v0.039c0,3.678,2.991,6.67,6.669,6.67h0.494c3.678,0,6.669-2.992,6.669-6.67v-0.039
		c0.631-0.228,1.262-0.491,1.888-0.791l0.034,0.035c1.26,1.26,2.935,1.953,4.716,1.953c1.782,0,3.456-0.693,4.716-1.953l0.35-0.35
		c1.26-1.26,1.953-2.935,1.953-4.717c0-1.781-0.693-3.455-1.953-4.715l-0.034-0.035c0.3-0.626,0.563-1.257,0.79-1.887h0.04
		c3.678,0,6.669-2.992,6.669-6.67v-0.494C76.232,46.075,73.241,43.084,69.563,43.084z M50.148,58.535
		c-4.706,0-8.535-3.829-8.535-8.534c0-4.707,3.829-8.535,8.535-8.535s8.535,3.828,8.535,8.535
		C58.684,54.706,54.854,58.535,50.148,58.535z"/>
</g>
</svg>
