<?xml version="1.0" encoding="utf-8"?>
<!-- Generator: Adobe Illustrator 16.0.0, SVG Export Plug-In . SVG Version: 6.00 Build 0)  -->
<!DOCTYPE svg PUBLIC "-//W3C//DTD SVG 1.1//EN" "http://www.w3.org/Graphics/SVG/1.1/DTD/svg11.dtd">
<svg version="1.1" id="Layer_1" xmlns="http://www.w3.org/2000/svg" xmlns:xlink="http://www.w3.org/1999/xlink" x="0px" y="0px"
	 width="100px" height="100px" viewBox="0 0 100 100" enable-background="new 0 0 100 100" xml:space="preserve">
<path d="M70.09,29.333H34.287c-3.678,0-6.669,2.992-6.669,6.67v20.994c0,3.678,2.991,6.67,6.669,6.67h27.025l5.624,6.646
	c0.193,0.229,0.475,0.354,0.764,0.354c0.115,0,0.23-0.021,0.344-0.062c0.394-0.145,0.656-0.52,0.656-0.938v-6h1.391
	c3.678,0,6.669-2.992,6.669-6.67V36.003C76.759,32.325,73.768,29.333,70.09,29.333z M44.491,49.13c-1.292,0-2.339-1.047-2.339-2.338
	c0-1.293,1.047-2.34,2.339-2.34c1.291,0,2.339,1.047,2.339,2.34C46.83,48.083,45.782,49.13,44.491,49.13z M52.188,49.13
	c-1.292,0-2.339-1.047-2.339-2.338c0-1.293,1.047-2.34,2.339-2.34c1.291,0,2.339,1.047,2.339,2.34
	C54.527,48.083,53.479,49.13,52.188,49.13z M60.366,49.13c-1.292,0-2.339-1.047-2.339-2.338c0-1.293,1.047-2.34,2.339-2.34
	c1.291,0,2.339,1.047,2.339,2.34C62.705,48.083,61.657,49.13,60.366,49.13z"/>
</svg>
