<?xml version="1.0" encoding="utf-8"?>
<!-- Generator: Adobe Illustrator 16.0.0, SVG Export Plug-In . SVG Version: 6.00 Build 0)  -->
<!DOCTYPE svg PUBLIC "-//W3C//DTD SVG 1.1//EN" "http://www.w3.org/Graphics/SVG/1.1/DTD/svg11.dtd">
<svg version="1.1" id="Layer_1" xmlns="http://www.w3.org/2000/svg" xmlns:xlink="http://www.w3.org/1999/xlink" x="0px" y="0px"
	 width="100px" height="100px" viewBox="0 0 100 100" enable-background="new 0 0 100 100" xml:space="preserve">
<g>
	<path d="M47.548,69.005h12.411c3.678,0,6.67-2.992,6.67-6.67V32.174c0-3.678-2.992-6.669-6.67-6.669H47.548
		c-3.678,0-6.669,2.991-6.669,6.669v30.161C40.879,66.013,43.871,69.005,47.548,69.005z"/>
	<path d="M69.004,47.091c-0.553,0-1,0.447-1,1v17.41c0,2.575-1.867,4.67-4.162,4.67H43.666c-2.295,0-4.161-2.095-4.161-4.67v-17.41
		c0-0.553-0.448-1-1-1c-0.553,0-1,0.447-1,1v17.41c0,3.678,2.764,6.67,6.161,6.67h9.089v5.084h-8.875c-0.553,0-1,0.447-1,1
		c0,0.552,0.447,1,1,1h19.75c0.552,0,1-0.448,1-1c0-0.553-0.448-1-1-1h-8.875v-5.084h9.088c3.397,0,6.162-2.992,6.162-6.67v-17.41
		C70.004,47.538,69.556,47.091,69.004,47.091z"/>
</g>
</svg>
