<?xml version="1.0" encoding="utf-8"?>
<!-- Generator: Adobe Illustrator 16.0.0, SVG Export Plug-In . SVG Version: 6.00 Build 0)  -->
<!DOCTYPE svg PUBLIC "-//W3C//DTD SVG 1.1//EN" "http://www.w3.org/Graphics/SVG/1.1/DTD/svg11.dtd">
<svg version="1.1" id="Layer_1" xmlns="http://www.w3.org/2000/svg" xmlns:xlink="http://www.w3.org/1999/xlink" x="0px" y="0px"
	 width="100px" height="100px" viewBox="0 0 100 100" enable-background="new 0 0 100 100" xml:space="preserve">
<g>
	<path d="M36.281,65.304v-30.32c0-0.552-0.447-1-1-1s-1,0.448-1,1v30.32c-2.486,0.471-4.375,2.652-4.375,5.273
		c0,2.964,2.412,5.375,5.375,5.375c2.965,0,5.375-2.411,5.375-5.375C40.656,67.956,38.768,65.774,36.281,65.304z"/>
	<path d="M71.508,33.374c-2.963,0-5.375,2.412-5.375,5.375c0,2.622,1.889,4.804,4.375,5.274v30.319c0,0.553,0.449,1,1,1
		c0.553,0,1-0.447,1-1V44.023c2.486-0.471,4.375-2.652,4.375-5.274C76.883,35.786,74.473,33.374,71.508,33.374z"/>
	<path d="M54.197,49.085V34.983c0-0.552-0.447-1-1-1c-0.551,0-1,0.448-1,1v14.102c-2.486,0.471-4.375,2.652-4.375,5.273
		c0,2.622,1.889,4.804,4.375,5.274v14.101c0,0.553,0.449,1,1,1c0.553,0,1-0.447,1-1V59.633c2.486-0.471,4.375-2.652,4.375-5.274
		C58.572,51.737,56.684,49.556,54.197,49.085z"/>
</g>
</svg>
