<?xml version="1.0" encoding="utf-8"?>
<!-- Generator: Adobe Illustrator 16.0.0, SVG Export Plug-In . SVG Version: 6.00 Build 0)  -->
<!DOCTYPE svg PUBLIC "-//W3C//DTD SVG 1.1//EN" "http://www.w3.org/Graphics/SVG/1.1/DTD/svg11.dtd">
<svg version="1.1" id="Layer_1" xmlns="http://www.w3.org/2000/svg" xmlns:xlink="http://www.w3.org/1999/xlink" x="0px" y="0px"
	 width="100px" height="100px" viewBox="0 0 100 100" enable-background="new 0 0 100 100" xml:space="preserve">
<g>
	<g>
		<path d="M27.777,42.136v25.33c0,2.575,2.095,4.669,4.669,4.669h35.994c2.575,0,4.669-2.095,4.669-4.669v-25.33H27.777z
			 M56.113,57.303H44.774c-2.114,0-3.834-1.72-3.834-3.834s1.72-3.834,3.834-3.834h11.339c2.114,0,3.834,1.72,3.834,3.834
			S58.228,57.303,56.113,57.303z"/>
		<path d="M56.113,51.634H44.774c-1.012,0-1.834,0.823-1.834,1.834c0,1.012,0.823,1.834,1.834,1.834h11.339
			c1.012,0,1.834-0.823,1.834-1.834C57.948,52.458,57.125,51.634,56.113,51.634z"/>
	</g>
	<path d="M76.111,40.136h-2H26.777h-2.5v-3.831c0-2.575,2.095-4.669,4.669-4.669h42.495c2.575,0,4.669,2.095,4.669,4.669V40.136z"/>
</g>
</svg>
