<?xml version="1.0" encoding="utf-8"?>
<!-- Generator: Adobe Illustrator 16.0.0, SVG Export Plug-In . SVG Version: 6.00 Build 0)  -->
<!DOCTYPE svg PUBLIC "-//W3C//DTD SVG 1.1//EN" "http://www.w3.org/Graphics/SVG/1.1/DTD/svg11.dtd">
<svg version="1.1" id="Layer_1" xmlns="http://www.w3.org/2000/svg" xmlns:xlink="http://www.w3.org/1999/xlink" x="0px" y="0px"
	 width="100px" height="100px" viewBox="0 0 100 100" enable-background="new 0 0 100 100" xml:space="preserve">
<g>
	<path d="M52.191,73.742c-13.783,0-24.996-11.213-24.996-24.996c0-9.546,5.314-18.123,13.869-22.383
		c0.385-0.191,0.848-0.117,1.151,0.186s0.381,0.766,0.192,1.15c-1.561,3.172-2.352,6.582-2.352,10.133
		c0,12.681,10.316,22.997,22.996,22.997c3.59,0,7.033-0.809,10.236-2.403c0.385-0.191,0.848-0.117,1.15,0.186
		c0.305,0.303,0.381,0.766,0.192,1.15C70.391,68.385,61.792,73.742,52.191,73.742z"/>
</g>
</svg>
