<?xml version="1.0" encoding="utf-8"?>
<!-- Generator: Adobe Illustrator 16.0.0, SVG Export Plug-In . SVG Version: 6.00 Build 0)  -->
<!DOCTYPE svg PUBLIC "-//W3C//DTD SVG 1.1//EN" "http://www.w3.org/Graphics/SVG/1.1/DTD/svg11.dtd">
<svg version="1.1" id="Layer_1" xmlns="http://www.w3.org/2000/svg" xmlns:xlink="http://www.w3.org/1999/xlink" x="0px" y="0px"
	 width="100px" height="100px" viewBox="0 0 100 100" enable-background="new 0 0 100 100" xml:space="preserve">
<g>
	<path d="M72.327,37.468c0,1.998-1.273,3.773-3.17,4.418c-0.491,0.166-0.996,0.251-1.5,0.251H32.62
		c-0.501,0-1.002-0.083-1.488-0.247l0,0c-1.903-0.641-3.182-2.418-3.182-4.422v-1.465h44.377V37.468z"/>
	<path d="M32.62,44.137c-0.27,0-0.539-0.017-0.808-0.05v17.051c0,2.575,2.095,4.67,4.669,4.67H63.81c2.574,0,4.67-2.095,4.67-4.67
		V44.085L32.62,44.137z M57.29,60.08c0.391,0.391,0.391,1.023,0,1.414c-0.195,0.195-0.451,0.293-0.707,0.293
		s-0.512-0.098-0.707-0.293l-5.699-5.699l-5.699,5.699c-0.195,0.195-0.451,0.293-0.707,0.293s-0.512-0.098-0.707-0.293
		c-0.391-0.391-0.391-1.023,0-1.414l5.699-5.699l-5.699-5.699c-0.391-0.391-0.391-1.023,0-1.414s1.023-0.391,1.414,0l5.699,5.699
		l5.699-5.699c0.391-0.391,1.023-0.391,1.414,0s0.391,1.023,0,1.414l-5.699,5.699L57.29,60.08z"/>
</g>
</svg>
