<?xml version="1.0" encoding="utf-8"?>
<!-- Generator: Adobe Illustrator 16.0.0, SVG Export Plug-In . SVG Version: 6.00 Build 0)  -->
<!DOCTYPE svg PUBLIC "-//W3C//DTD SVG 1.1//EN" "http://www.w3.org/Graphics/SVG/1.1/DTD/svg11.dtd">
<svg version="1.1" id="Layer_1" xmlns="http://www.w3.org/2000/svg" xmlns:xlink="http://www.w3.org/1999/xlink" x="0px" y="0px"
	 width="100px" height="100px" viewBox="0 0 100 100" enable-background="new 0 0 100 100" xml:space="preserve">
<g>
	<path d="M54.881,25.38l13.654,13.653H59.55c-2.575,0-4.669-2.094-4.669-4.669V25.38z"/>
	<path d="M58.617,70.994c0,2.574-2.096,4.669-4.67,4.669H31.271c-2.575,0-4.669-2.095-4.669-4.669V36.979
		c0-2.575,2.094-4.67,4.669-4.67h5.663h4.614v10.399c0,3.678,2.991,6.669,6.669,6.669h10.4v18.942V70.994z"/>
	<path d="M57.203,47.377h-8.986c-2.574,0-4.669-2.094-4.669-4.669v-8.985L57.203,47.377z"/>
	<path d="M65.281,67.319h-4.664V48.377c0-0.023-0.012-0.044-0.014-0.067c-0.006-0.086-0.022-0.167-0.05-0.249
		c-0.012-0.033-0.021-0.066-0.036-0.1c-0.048-0.105-0.109-0.205-0.193-0.29V47.67l0,0c-0.001,0-0.002-0.001-0.002-0.001
		L43.255,30.602c-0.087-0.086-0.188-0.147-0.295-0.196c-0.028-0.013-0.058-0.021-0.087-0.031c-0.086-0.03-0.173-0.048-0.264-0.053
		c-0.021-0.002-0.04-0.013-0.062-0.013h-4.614v-1.674c0-2.575,2.096-4.67,4.67-4.67h10.277v10.399c0,3.678,2.992,6.669,6.669,6.669
		h10.399V62.65C69.949,65.225,67.855,67.319,65.281,67.319z"/>
</g>
</svg>
