<?xml version="1.0" encoding="utf-8"?>
<!-- Generator: Adobe Illustrator 16.0.0, SVG Export Plug-In . SVG Version: 6.00 Build 0)  -->
<!DOCTYPE svg PUBLIC "-//W3C//DTD SVG 1.1//EN" "http://www.w3.org/Graphics/SVG/1.1/DTD/svg11.dtd">
<svg version="1.1" id="Layer_1" xmlns="http://www.w3.org/2000/svg" xmlns:xlink="http://www.w3.org/1999/xlink" x="0px" y="0px"
	 width="100px" height="100px" viewBox="0 0 100 100" enable-background="new 0 0 100 100" xml:space="preserve">
<g>
	<path d="M68.77,37.032c0.746,0,1.441,0.192,2.067,0.504L50.439,57.145L30.042,37.536c0.626-0.312,1.321-0.504,2.067-0.504H68.77z"
		/>
	<path d="M27.439,41.702c0-1.1,0.398-2.099,1.037-2.898l12.546,12.062L28.476,62.928c-0.639-0.799-1.037-1.799-1.037-2.898V41.702z"
		/>
	<path d="M32.109,64.699c-0.746,0-1.441-0.191-2.067-0.504l12.423-11.942l7.282,7c0.193,0.187,0.443,0.279,0.693,0.279
		s0.5-0.093,0.693-0.279l7.282-7l12.423,11.942c-0.626,0.313-1.321,0.504-2.067,0.504H32.109z"/>
	<path d="M73.439,60.029c0,1.1-0.398,2.1-1.037,2.898L59.856,50.865l12.546-12.062c0.639,0.8,1.037,1.799,1.037,2.898V60.029z"/>
</g>
</svg>
