<?xml version="1.0" encoding="utf-8"?>
<!-- Generator: Adobe Illustrator 16.0.0, SVG Export Plug-In . SVG Version: 6.00 Build 0)  -->
<!DOCTYPE svg PUBLIC "-//W3C//DTD SVG 1.1//EN" "http://www.w3.org/Graphics/SVG/1.1/DTD/svg11.dtd">
<svg version="1.1" id="Layer_1" xmlns="http://www.w3.org/2000/svg" xmlns:xlink="http://www.w3.org/1999/xlink" x="0px" y="0px"
	 width="100px" height="100px" viewBox="0 0 100 100" enable-background="new 0 0 100 100" xml:space="preserve">
<path d="M73.31,48.876L50.894,31.309c-0.35-0.301-0.842-0.371-1.26-0.179s-0.688,0.61-0.688,1.071v15.113L28.522,31.309
	c-0.348-0.301-0.84-0.371-1.26-0.179c-0.418,0.192-0.686,0.61-0.686,1.071v35.727c0,0.464,0.271,0.884,0.695,1.074
	s0.918,0.114,1.266-0.194l20.408-16.533v15.653c0,0.464,0.273,0.884,0.697,1.074c0.422,0.19,0.918,0.114,1.264-0.194l22.416-18.158
	c0.254-0.226,0.4-0.562,0.396-0.889C73.716,49.421,73.567,49.099,73.31,48.876z"/>
</svg>
