<?xml version="1.0" encoding="utf-8"?>
<!-- Generator: Adobe Illustrator 16.0.0, SVG Export Plug-In . SVG Version: 6.00 Build 0)  -->
<!DOCTYPE svg PUBLIC "-//W3C//DTD SVG 1.1//EN" "http://www.w3.org/Graphics/SVG/1.1/DTD/svg11.dtd">
<svg version="1.1" id="Layer_1" xmlns="http://www.w3.org/2000/svg" xmlns:xlink="http://www.w3.org/1999/xlink" x="0px" y="0px"
	 width="100px" height="100px" viewBox="0 0 100 100" enable-background="new 0 0 100 100" xml:space="preserve">
<g>
	<path d="M62.42,71.932c-0.159,0-0.319-0.038-0.466-0.115l-11.926-6.27l-11.926,6.27c-0.337,0.177-0.745,0.148-1.054-0.076
		c-0.308-0.224-0.462-0.603-0.397-0.978l2.277-13.28l-9.648-9.405c-0.273-0.266-0.371-0.663-0.254-1.025
		c0.118-0.362,0.432-0.626,0.809-0.681l13.334-1.938l5.963-12.083c0.336-0.683,1.457-0.683,1.793,0l5.963,12.083l13.334,1.938
		c0.377,0.055,0.69,0.319,0.809,0.681c0.117,0.362,0.02,0.759-0.254,1.025l-9.648,9.405l2.277,13.28
		c0.064,0.375-0.09,0.754-0.397,0.978C62.833,71.867,62.627,71.932,62.42,71.932z"/>
</g>
</svg>
