<?xml version="1.0" encoding="utf-8"?>
<!-- Generator: Adobe Illustrator 16.0.0, SVG Export Plug-In . SVG Version: 6.00 Build 0)  -->
<!DOCTYPE svg PUBLIC "-//W3C//DTD SVG 1.1//EN" "http://www.w3.org/Graphics/SVG/1.1/DTD/svg11.dtd">
<svg version="1.1" id="Layer_1" xmlns="http://www.w3.org/2000/svg" xmlns:xlink="http://www.w3.org/1999/xlink" x="0px" y="0px"
	 width="100px" height="100px" viewBox="0 0 100 100" enable-background="new 0 0 100 100" xml:space="preserve">
<path d="M72.478,29.268H27.479c-2.113,0-3.834,1.72-3.834,3.834V62.1c0,2.114,1.721,3.834,3.834,3.834h21.499v7.75h-6.875
	c-0.552,0-1,0.448-1,1s0.448,1,1,1h15.625c0.552,0,1-0.448,1-1s-0.448-1-1-1h-6.75v-7.75h21.499c2.114,0,3.834-1.72,3.834-3.834
	V33.102C76.312,30.987,74.592,29.268,72.478,29.268z"/>
</svg>
