<?xml version="1.0" encoding="utf-8"?>
<!-- Generator: Adobe Illustrator 16.0.0, SVG Export Plug-In . SVG Version: 6.00 Build 0)  -->
<!DOCTYPE svg PUBLIC "-//W3C//DTD SVG 1.1//EN" "http://www.w3.org/Graphics/SVG/1.1/DTD/svg11.dtd">
<svg version="1.1" id="Layer_1" xmlns="http://www.w3.org/2000/svg" xmlns:xlink="http://www.w3.org/1999/xlink" x="0px" y="0px"
	 width="100px" height="100px" viewBox="0 0 100 100" enable-background="new 0 0 100 100" xml:space="preserve">
<g>
	<path d="M27.5,37.888c0-2.575,2.095-4.669,4.669-4.669h35.994c2.575,0,4.669,2.094,4.669,4.669v1.243
		c-0.071-0.07-0.149-0.133-0.224-0.2c-0.076-0.068-0.149-0.139-0.229-0.204c-0.084-0.069-0.175-0.131-0.263-0.196
		c-0.083-0.062-0.164-0.126-0.249-0.184c-0.091-0.061-0.187-0.114-0.281-0.171c-0.089-0.054-0.176-0.11-0.267-0.16
		c-0.097-0.053-0.2-0.097-0.3-0.145c-0.093-0.044-0.185-0.093-0.28-0.133c-0.107-0.045-0.218-0.081-0.328-0.121
		c-0.093-0.033-0.185-0.072-0.28-0.101c-0.122-0.038-0.249-0.065-0.374-0.096c-0.087-0.021-0.172-0.049-0.261-0.066
		c-0.139-0.028-0.282-0.046-0.424-0.065c-0.078-0.011-0.155-0.027-0.233-0.035c-0.223-0.022-0.448-0.034-0.677-0.034h-6.328
		c-2.992,0-5.554,1.954-6.384,4.753H32.169c-0.229,0-0.454,0.012-0.676,0.034c-0.081,0.008-0.159,0.025-0.238,0.036
		c-0.141,0.019-0.282,0.036-0.42,0.064c-0.089,0.018-0.176,0.045-0.264,0.067c-0.124,0.031-0.25,0.058-0.371,0.096
		c-0.095,0.029-0.187,0.067-0.28,0.102c-0.11,0.039-0.221,0.075-0.328,0.12c-0.096,0.04-0.187,0.089-0.28,0.133
		c-0.1,0.048-0.203,0.092-0.3,0.145c-0.093,0.05-0.182,0.109-0.272,0.164c-0.092,0.055-0.186,0.108-0.274,0.167
		c-0.088,0.059-0.171,0.125-0.257,0.189s-0.173,0.124-0.255,0.191c-0.081,0.066-0.155,0.139-0.233,0.208
		c-0.073,0.065-0.149,0.127-0.22,0.196V37.888z"/>
	<path d="M72.833,65.883c0,2.575-2.095,4.669-4.669,4.669H32.169c-2.575,0-4.669-2.095-4.669-4.669V48.641
		c0-2.252,1.604-4.138,3.729-4.574c0.304-0.062,0.618-0.095,0.94-0.095h24.078c0.49,0,0.908-0.355,0.987-0.839
		c0.37-2.268,2.305-3.914,4.602-3.914h6.328c2.575,0,4.669,2.095,4.669,4.669V65.883z"/>
</g>
</svg>
