<?xml version="1.0" encoding="utf-8"?>
<!-- Generator: Adobe Illustrator 16.0.0, SVG Export Plug-In . SVG Version: 6.00 Build 0)  -->
<!DOCTYPE svg PUBLIC "-//W3C//DTD SVG 1.1//EN" "http://www.w3.org/Graphics/SVG/1.1/DTD/svg11.dtd">
<svg version="1.1" id="Layer_1" xmlns="http://www.w3.org/2000/svg" xmlns:xlink="http://www.w3.org/1999/xlink" x="0px" y="0px"
	 width="100px" height="100px" viewBox="0 0 100 100" enable-background="new 0 0 100 100" xml:space="preserve">
<g>
	<path d="M73.225,38.75h-8.818h-8.012H34.42c-2.07,0-3.756,1.721-3.756,3.834v14.332c0,0.072,0.006,0.144,0.016,0.23l-0.004,0.07
		c-0.006,0.094-0.012,0.188-0.012,0.283c0,8.369,5.512,15.471,13.096,17.875H31.664c-0.553,0-1,0.447-1,1s0.447,1,1,1h35.5
		c0.551,0,1-0.447,1-1s-0.449-1-1-1H55.066c6.578-2.085,11.58-7.709,12.795-14.625h5.363c2.115,0,3.836-1.721,3.836-3.834V42.583
		C77.061,40.47,75.34,38.75,73.225,38.75z M75.061,56.916c0,1.012-0.824,1.834-1.836,1.834H68.1c0.027-0.415,0.064-0.828,0.064-1.25
		c0-0.096-0.006-0.189-0.014-0.283l-0.006-0.049c0.01-0.084,0.02-0.166,0.02-0.252V42.583c0-0.668-0.184-1.287-0.479-1.834h5.539
		c1.012,0,1.836,0.822,1.836,1.834V56.916z"/>
	<path d="M41.922,37.375c0.553,0,1-0.447,1-1v-9.5c0-0.553-0.447-1-1-1c-0.551,0-1,0.447-1,1v9.5
		C40.922,36.927,41.371,37.375,41.922,37.375z"/>
	<path d="M49.922,37.375c0.553,0,1-0.447,1-1v-12.5c0-0.553-0.447-1-1-1c-0.551,0-1,0.447-1,1v12.5
		C48.922,36.927,49.371,37.375,49.922,37.375z"/>
	<path d="M56.904,37.375c0.551,0,1-0.447,1-1v-9.5c0-0.553-0.449-1-1-1c-0.553,0-1,0.447-1,1v9.5
		C55.904,36.927,56.352,37.375,56.904,37.375z"/>
</g>
</svg>
