<?xml version="1.0" encoding="utf-8"?>
<!-- Generator: Adobe Illustrator 16.0.0, SVG Export Plug-In . SVG Version: 6.00 Build 0)  -->
<!DOCTYPE svg PUBLIC "-//W3C//DTD SVG 1.1//EN" "http://www.w3.org/Graphics/SVG/1.1/DTD/svg11.dtd">
<svg version="1.1" id="Layer_1" xmlns="http://www.w3.org/2000/svg" xmlns:xlink="http://www.w3.org/1999/xlink" x="0px" y="0px"
	 width="100px" height="100px" viewBox="0 0 100 100" enable-background="new 0 0 100 100" xml:space="preserve">
<g>
	<path d="M28.64,50.865c0-11.953,9.725-21.677,21.677-21.677s21.677,9.724,21.677,21.677c0,5.654-2.145,10.963-6.055,15.023
		l-9.307-3.237v-3.476c2.107-1.167,3.435-3.389,3.435-5.832V40.682c0-3.678-2.992-6.669-6.669-6.669h-6.161
		c-3.678,0-6.669,2.991-6.669,6.669v12.662c0,2.443,1.329,4.666,3.436,5.832v3.391l-9.37,3.26
		C30.763,61.775,28.64,56.487,28.64,50.865z"/>
	<path d="M50.317,72.543c-5.201,0-10.129-1.824-14.048-5.17l9.842-3.422l-0.067-0.775c-0.006-0.073-0.016-0.146-0.025-0.219
		c-0.007-0.05-0.017-0.1-0.017-0.15v-4.912l-0.605-0.259c-1.719-0.738-2.83-2.423-2.83-4.292V40.682
		c0-2.253,1.604-4.138,3.729-4.574c0.304-0.063,0.618-0.095,0.94-0.095h6.161c0.322,0,0.636,0.032,0.94,0.095
		c2.126,0.437,3.729,2.321,3.729,4.574v12.662c0,1.869-1.111,3.553-2.83,4.291l-0.605,0.26v4.912c0,0.078-0.013,0.153-0.023,0.229
		L54.5,64.027l9.792,3.405C60.384,70.739,55.481,72.543,50.317,72.543z"/>
</g>
</svg>
