<?xml version="1.0" encoding="utf-8"?>
<!-- Generator: Adobe Illustrator 16.0.0, SVG Export Plug-In . SVG Version: 6.00 Build 0)  -->
<!DOCTYPE svg PUBLIC "-//W3C//DTD SVG 1.1//EN" "http://www.w3.org/Graphics/SVG/1.1/DTD/svg11.dtd">
<svg version="1.1" id="Layer_1" xmlns="http://www.w3.org/2000/svg" xmlns:xlink="http://www.w3.org/1999/xlink" x="0px" y="0px"
	 width="100px" height="100px" viewBox="0 0 100 100" enable-background="new 0 0 100 100" xml:space="preserve">
<g>
	<path d="M53.571,73.498c0,2.575-2.095,4.67-4.67,4.67h-2.162c-2.574,0-4.668-2.095-4.668-4.67v-1.412h11.5V73.498z"/>
	<rect x="42.071" y="69.251" width="11.5" height="0.835"/>
	<path d="M56.763,57.396c-0.687,0.737-1.369,1.444-2.039,2.12l-0.135,0.166c-0.449,0.707-0.791,1.477-1.015,2.287l-0.05,0.183
		l0.02,0.188c0.018,0.164,0.027,0.33,0.027,0.498v4.413h-11.5v-4.413c0-0.168,0.01-0.334,0.027-0.498l0.02-0.188l-0.051-0.183
		c-0.223-0.811-0.564-1.58-1.016-2.287l-0.133-0.166c-0.671-0.676-1.354-1.383-2.04-2.12c-6.362-6.832-9.726-12.673-9.726-16.895
		c0-10.293,8.375-18.667,18.668-18.667s18.666,8.374,18.666,18.667C66.487,44.723,63.125,50.563,56.763,57.396z"/>
</g>
</svg>
