<?xml version="1.0" encoding="utf-8"?>
<!-- Generator: Adobe Illustrator 16.0.0, SVG Export Plug-In . SVG Version: 6.00 Build 0)  -->
<!DOCTYPE svg PUBLIC "-//W3C//DTD SVG 1.1//EN" "http://www.w3.org/Graphics/SVG/1.1/DTD/svg11.dtd">
<svg version="1.1" id="Layer_1" xmlns="http://www.w3.org/2000/svg" xmlns:xlink="http://www.w3.org/1999/xlink" x="0px" y="0px"
	 width="100px" height="100px" viewBox="0 0 100 100" enable-background="new 0 0 100 100" xml:space="preserve">
<g>
	<path d="M50.028,26.521c-13.445,0-24.385,10.938-24.385,24.384s10.939,24.384,24.385,24.384s24.383-10.938,24.383-24.384
		S63.474,26.521,50.028,26.521z M48.31,37.999c0.482-0.477,1.104-0.714,1.863-0.714c0.813,0,1.49,0.252,2.028,0.756
		s0.808,1.073,0.808,1.708c0,0.469-0.107,0.938-0.32,1.406c-0.215,0.471-0.553,0.846-1.016,1.129s-0.935,0.424-1.418,0.424
		c-0.662,0-1.272-0.282-1.831-0.848c-0.56-0.566-0.839-1.242-0.839-2.029C47.585,39.086,47.827,38.476,48.31,37.999z M55.368,64.505
		c-0.372,0.014-0.647,0.021-0.826,0.021c-0.207,0-0.523-0.014-0.95-0.042c-1.405-0.068-3.286-0.104-5.641-0.104
		c-0.675,0-1.329,0.025-1.962,0.073c-0.635,0.049-1.068,0.072-1.302,0.072l-0.042-1.346l2.34-0.31
		c0.344-0.098,0.582-0.238,0.713-0.426c0.132-0.186,0.197-0.603,0.197-1.252v-0.228c0-0.165,0.01-0.466,0.031-0.899
		c0.021-0.436,0.031-0.818,0.031-1.149c0-0.263-0.021-0.767-0.062-1.511l0.031-1.035l-0.031-0.973l0.062-3.375
		c0-0.427-0.042-0.869-0.125-1.324c-0.153-0.207-0.432-0.387-0.834-0.538s-1.104-0.263-2.104-0.331V48.67
		c1.421-0.083,2.67-0.38,3.747-0.89c0.73-0.332,1.523-0.918,2.38-1.76h1.387c0.056,1.711,0.083,3.933,0.083,6.665l-0.145,8.445
		c0,0.579,0.027,1.104,0.082,1.573c0.428,0.152,1.125,0.304,2.091,0.455c0.372,0.056,0.669,0.124,0.89,0.207L55.368,64.505z"/>
</g>
</svg>
