<?xml version="1.0" encoding="utf-8"?>
<!-- Generator: Adobe Illustrator 16.0.0, SVG Export Plug-In . SVG Version: 6.00 Build 0)  -->
<!DOCTYPE svg PUBLIC "-//W3C//DTD SVG 1.1//EN" "http://www.w3.org/Graphics/SVG/1.1/DTD/svg11.dtd">
<svg version="1.1" id="Layer_1" xmlns="http://www.w3.org/2000/svg" xmlns:xlink="http://www.w3.org/1999/xlink" x="0px" y="0px"
	 width="100px" height="100px" viewBox="0 0 100 100" enable-background="new 0 0 100 100" xml:space="preserve">
<g>
	<path d="M64.315,36H37v27.946c0,0.779,0.453,1.543,0.793,2.189l29.079-29.146C66.095,36.411,65.355,36,64.315,36z M39,61.659V38
		h24.122L39,61.659z"/>
	<path d="M75.735,66H72V40.785c0-1.169,0.219-2.287-0.182-3.303l6.139-5.898c0.552-0.551,0.976-1.281,1.001-2.056
		c0.026-0.815-0.233-1.612-0.808-2.187c-0.566-0.566-1.293-0.879-2.094-0.879c-0.803,0-1.541,0.313-2.116,0.887l-5.724,5.66
		C67.042,32.434,65.725,32,64.315,32H39v-3.635c0-1.654-1.346-3-3-3s-3,1.346-3,3V32h-3.265c-1.654,0-3,1.346-3,3s1.346,3,3,3H33
		v25.946c0,1.94,0.932,3.675,1.893,5.059l2.284,1.801C38.536,71.673,40.384,72,42.155,72H66v3.115c0,1.654,1.346,3,3,3s3-1.346,3-3
		V72h3.735c1.654,0,3-1.346,3-3S77.39,66,75.735,66z M75.735,70H70v5.115c0,0.553-0.447,1-1,1s-1-0.447-1-1V70H42.155
		c-1.957,0-3.667-0.55-4.888-1.893c0.03,0.035,0.049,0.146,0.079,0.18c0.005,0.005-0.086,0.044-0.081,0.049
		c0.003,0.003-0.038-0.149-0.036-0.147c0.012,0.014-0.399,0.033-0.388,0.046C35.865,67.072,35,65.587,35,63.946V36h-5.265
		c-0.553,0-1-0.447-1-1s0.447-1,1-1H35v-5.635c0-0.553,0.447-1,1-1s1,0.447,1,1V34h27.315c1.592,0,3.055,0.62,4.203,1.556
		l6.857-6.868c0.391-0.391,1.023-0.357,1.414,0.034s0.356,1.041-0.034,1.432l-7.383,6.932C70.078,38.143,70,39.42,70,40.785V68
		h5.735c0.552,0,1,0.447,1,1S76.287,70,75.735,70z"/>
	<path d="M39.325,67.327C40.112,67.933,41.087,68,42.155,68H68V40.785c0-0.809,0.268-1.712-0.096-2.376L39.325,67.327z M66,66
		H43.347L66,42.782V66z"/>
</g>
</svg>
