<?xml version="1.0" encoding="utf-8"?>
<!-- Generator: Adobe Illustrator 16.0.0, SVG Export Plug-In . SVG Version: 6.00 Build 0)  -->
<!DOCTYPE svg PUBLIC "-//W3C//DTD SVG 1.1//EN" "http://www.w3.org/Graphics/SVG/1.1/DTD/svg11.dtd">
<svg version="1.1" id="Layer_1" xmlns="http://www.w3.org/2000/svg" xmlns:xlink="http://www.w3.org/1999/xlink" x="0px" y="0px"
	 width="100px" height="100px" viewBox="0 0 100 100" enable-background="new 0 0 100 100" xml:space="preserve">
<g>
	<path d="M37.313,30.325c-2.896,0-5.252,2.356-5.252,5.252s2.355,5.252,5.252,5.252s5.252-2.356,5.252-5.252
		S40.209,30.325,37.313,30.325z"/>
	<path d="M54.311,30.325c-2.896,0-5.252,2.356-5.252,5.252s2.356,5.252,5.252,5.252c2.896,0,5.252-2.356,5.252-5.252
		S57.208,30.325,54.311,30.325z"/>
	<path d="M71.584,40.829c2.896,0,5.252-2.356,5.252-5.252s-2.355-5.252-5.252-5.252s-5.252,2.356-5.252,5.252
		S68.688,40.829,71.584,40.829z"/>
	<path d="M37.176,57.658c2.896,0,5.252-2.355,5.252-5.252c0-2.896-2.356-5.252-5.252-5.252c-2.896,0-5.253,2.356-5.253,5.252
		C31.923,55.303,34.28,57.658,37.176,57.658z"/>
	<path d="M54.174,57.658c2.896,0,5.252-2.355,5.252-5.252c0-2.896-2.355-5.252-5.252-5.252s-5.252,2.356-5.252,5.252
		C48.922,55.303,51.278,57.658,54.174,57.658z"/>
	<path d="M71.448,57.658c2.896,0,5.252-2.355,5.252-5.252c0-2.896-2.356-5.252-5.252-5.252c-2.896,0-5.253,2.356-5.253,5.252
		C66.195,55.303,68.551,57.658,71.448,57.658z"/>
	<path d="M37.296,63.93c-2.896,0-5.253,2.356-5.253,5.252c0,2.896,2.357,5.252,5.253,5.252s5.252-2.355,5.252-5.252
		C42.548,66.286,40.192,63.93,37.296,63.93z"/>
	<path d="M54.295,63.93c-2.896,0-5.253,2.356-5.253,5.252c0,2.896,2.356,5.252,5.253,5.252c2.896,0,5.252-2.355,5.252-5.252
		C59.547,66.286,57.191,63.93,54.295,63.93z"/>
	<path d="M71.568,63.93c-2.896,0-5.253,2.356-5.253,5.252c0,2.896,2.357,5.252,5.253,5.252s5.252-2.355,5.252-5.252
		C76.82,66.286,74.463,63.93,71.568,63.93z"/>
</g>
</svg>
