<?xml version="1.0" encoding="utf-8"?>
<!-- Generator: Adobe Illustrator 16.0.0, SVG Export Plug-In . SVG Version: 6.00 Build 0)  -->
<!DOCTYPE svg PUBLIC "-//W3C//DTD SVG 1.1//EN" "http://www.w3.org/Graphics/SVG/1.1/DTD/svg11.dtd">
<svg version="1.1" id="Layer_1" xmlns="http://www.w3.org/2000/svg" xmlns:xlink="http://www.w3.org/1999/xlink" x="0px" y="0px"
	 width="100px" height="100px" viewBox="0 0 100 100" enable-background="new 0 0 100 100" xml:space="preserve">
<g>
	<path d="M53.381,80.505h0.16c2.242,0,4.117-1.59,4.565-3.7h-9.291C49.264,78.915,51.139,80.505,53.381,80.505z"/>
	<rect x="40.795" y="24.255" width="24.666" height="4.375"/>
	<path d="M53.461,59.38c0.724,0,1.312-0.59,1.312-1.312v-4.75c0-0.725-0.589-1.312-1.312-1.312s-1.312,0.588-1.312,1.312v4.75
		C52.149,58.79,52.738,59.38,53.461,59.38z"/>
	<path d="M48.35,35.217c0.229,0.19,0.361,0.472,0.361,0.77v38.818h9.5V35.924c0-0.009-0.012-0.194-0.012-0.204
		c-0.012-0.301,0.111-0.59,0.337-0.79l4.86-4.3H42.818L48.35,35.217z M50.149,53.317c0-1.827,1.486-3.312,3.312-3.312
		s3.312,1.485,3.312,3.312v4.75c0,1.826-1.486,3.312-3.312,3.312s-3.312-1.486-3.312-3.312V53.317z"/>
</g>
</svg>
