<?xml version="1.0" encoding="utf-8"?>
<!-- Generator: Adobe Illustrator 16.0.0, SVG Export Plug-In . SVG Version: 6.00 Build 0)  -->
<!DOCTYPE svg PUBLIC "-//W3C//DTD SVG 1.1//EN" "http://www.w3.org/Graphics/SVG/1.1/DTD/svg11.dtd">
<svg version="1.1" id="Layer_1" xmlns="http://www.w3.org/2000/svg" xmlns:xlink="http://www.w3.org/1999/xlink" x="0px" y="0px"
	 width="100px" height="100px" viewBox="0 0 100 100" enable-background="new 0 0 100 100" xml:space="preserve">
<g>
	<path d="M50.057,26.383c-14.085,0-25.503,11.418-25.503,25.502s11.418,25.502,25.503,25.502c14.084,0,25.502-11.418,25.502-25.502
		S64.141,26.383,50.057,26.383z M38.402,40.005c0.394-0.387,1.027-0.381,1.414,0.014L50.77,51.186
		c0.387,0.394,0.381,1.027-0.014,1.414c-0.193,0.191-0.447,0.286-0.699,0.286c-0.26,0-0.519-0.1-0.715-0.3L38.389,41.419
		C38.002,41.025,38.008,40.392,38.402,40.005z M50.057,75.386c-12.959,0-23.5-10.542-23.5-23.5c0-6.667,2.848-13.045,7.814-17.5
		c0.412-0.368,1.043-0.333,1.412,0.077s0.334,1.043-0.077,1.412c-4.544,4.076-7.149,9.912-7.149,16.011
		c0,11.855,9.645,21.5,21.5,21.5c11.854,0,21.5-9.645,21.5-21.5c0-11.417-9.152-20.952-20.5-21.477v10.435c0,0.552-0.448,1-1,1
		c-0.553,0-1-0.448-1-1V29.386c0-0.552,0.447-1,1-1c0.189,0,0.377,0.002,0.566,0.007c12.645,0.299,22.934,10.838,22.934,23.493
		C73.557,64.844,63.014,75.386,50.057,75.386z"/>
</g>
</svg>
