<?xml version="1.0" encoding="utf-8"?>
<!-- Generator: Adobe Illustrator 16.0.0, SVG Export Plug-In . SVG Version: 6.00 Build 0)  -->
<!DOCTYPE svg PUBLIC "-//W3C//DTD SVG 1.1//EN" "http://www.w3.org/Graphics/SVG/1.1/DTD/svg11.dtd">
<svg version="1.1" id="Layer_1" xmlns="http://www.w3.org/2000/svg" xmlns:xlink="http://www.w3.org/1999/xlink" x="0px" y="0px"
	 width="100px" height="100px" viewBox="0 0 100 100" enable-background="new 0 0 100 100" xml:space="preserve">
<g>
	<path d="M51.374,34.714c-8.174,0-14.822,6.649-14.822,14.822c0,8.172,6.648,14.821,14.822,14.821c8.172,0,14.82-6.649,14.82-14.821
		C66.194,41.363,59.545,34.714,51.374,34.714z"/>
	<path d="M51.373,32.208c0.552,0,1-0.447,1-1V20.417c0-0.553-0.448-1-1-1s-1,0.447-1,1v10.791
		C50.373,31.761,50.821,32.208,51.373,32.208z"/>
	<path d="M51.373,67.792c-0.552,0-1,0.447-1,1v10.791c0,0.553,0.448,1,1,1s1-0.447,1-1V68.792
		C52.373,68.239,51.924,67.792,51.373,67.792z"/>
	<path d="M37.377,37.419c0.195,0.195,0.451,0.293,0.707,0.293s0.512-0.098,0.707-0.293c0.391-0.391,0.391-1.023,0-1.414
		l-7.631-7.631c-0.391-0.391-1.023-0.391-1.414,0s-0.391,1.023,0,1.414L37.377,37.419z"/>
	<path d="M65.368,62.581c-0.391-0.391-1.023-0.391-1.414,0s-0.391,1.023,0,1.414l7.631,7.631c0.195,0.195,0.451,0.293,0.707,0.293
		s0.512-0.098,0.707-0.293c0.391-0.391,0.391-1.023,0-1.414L65.368,62.581z"/>
	<path d="M33.581,50.001c0-0.553-0.447-1-1-1H21.79c-0.553,0-1,0.447-1,1c0,0.552,0.447,1,1,1h10.791
		C33.133,51.001,33.581,50.553,33.581,50.001z"/>
	<path d="M80.956,49.001H70.165c-0.553,0-1,0.447-1,1c0,0.552,0.447,1,1,1h10.791c0.553,0,1-0.448,1-1
		C81.956,49.448,81.508,49.001,80.956,49.001z"/>
	<path d="M37.379,62.581l-7.631,7.631c-0.391,0.391-0.391,1.023,0,1.414c0.195,0.195,0.451,0.293,0.707,0.293
		s0.512-0.098,0.707-0.293l7.631-7.631c0.391-0.391,0.391-1.023,0-1.414S37.77,62.19,37.379,62.581z"/>
	<path d="M64.661,37.712c0.256,0,0.512-0.098,0.707-0.293l7.631-7.631c0.391-0.391,0.391-1.023,0-1.414s-1.023-0.391-1.414,0
		l-7.631,7.631c-0.391,0.391-0.391,1.023,0,1.414C64.149,37.614,64.405,37.712,64.661,37.712z"/>
</g>
</svg>
