<?xml version="1.0" encoding="utf-8"?>
<!-- Generator: Adobe Illustrator 16.0.0, SVG Export Plug-In . SVG Version: 6.00 Build 0)  -->
<!DOCTYPE svg PUBLIC "-//W3C//DTD SVG 1.1//EN" "http://www.w3.org/Graphics/SVG/1.1/DTD/svg11.dtd">
<svg version="1.1" id="Layer_1" xmlns="http://www.w3.org/2000/svg" xmlns:xlink="http://www.w3.org/1999/xlink" x="0px" y="0px"
	 width="100px" height="100px" viewBox="0 0 100 100" enable-background="new 0 0 100 100" xml:space="preserve">
<path d="M79.3,48.559h-1.932c-1.393-5.479-6.352-9.55-12.258-9.55s-10.865,4.07-12.258,9.55H46.48
	c-1.203-5.737-6.299-10.06-12.389-10.06c-6.089,0-11.186,4.322-12.389,10.06h-2.027c-0.553,0-1,0.448-1,1s0.447,1,1,1h1.787
	c-0.01,0.2-0.031,0.397-0.031,0.601c0,6.981,5.68,12.66,12.66,12.66c6.981,0,12.66-5.679,12.66-12.66c0-0.203-0.021-0.4-0.029-0.601
	h5.785c-0.032,0.366-0.057,0.735-0.057,1.11c0,6.981,5.68,12.66,12.66,12.66s12.66-5.679,12.66-12.66
	c0-0.375-0.024-0.744-0.057-1.11H79.3c0.553,0,1-0.448,1-1S79.853,48.559,79.3,48.559z"/>
</svg>
