<?xml version="1.0" encoding="utf-8"?>
<!-- Generator: Adobe Illustrator 16.0.0, SVG Export Plug-In . SVG Version: 6.00 Build 0)  -->
<!DOCTYPE svg PUBLIC "-//W3C//DTD SVG 1.1//EN" "http://www.w3.org/Graphics/SVG/1.1/DTD/svg11.dtd">
<svg version="1.1" id="Layer_1" xmlns="http://www.w3.org/2000/svg" xmlns:xlink="http://www.w3.org/1999/xlink" x="0px" y="0px"
	 width="100px" height="100px" viewBox="0 0 100 100" enable-background="new 0 0 100 100" xml:space="preserve">
<g>
	<path d="M73.932,37.757h-41.83c-2.113,0-3.834,1.721-3.834,3.834v2.332c0,2.113,1.721,3.834,3.834,3.834h41.83
		c2.115,0,3.836-1.721,3.836-3.834v-2.332C77.768,39.478,76.047,37.757,73.932,37.757z"/>
	<path d="M73.932,49.569h-41.83c-2.113,0-3.834,1.721-3.834,3.834v2.332c0,2.113,1.721,3.834,3.834,3.834h41.83
		c2.115,0,3.836-1.721,3.836-3.834v-2.332C77.768,51.29,76.047,49.569,73.932,49.569z"/>
	<path d="M73.932,61.569h-41.83c-2.113,0-3.834,1.721-3.834,3.834v2.332c0,2.113,1.721,3.834,3.834,3.834h41.83
		c2.115,0,3.836-1.721,3.836-3.834v-2.332C77.768,63.29,76.047,61.569,73.932,61.569z"/>
</g>
</svg>
