<?xml version="1.0" encoding="utf-8"?>
<!-- Generator: Adobe Illustrator 16.0.0, SVG Export Plug-In . SVG Version: 6.00 Build 0)  -->
<!DOCTYPE svg PUBLIC "-//W3C//DTD SVG 1.1//EN" "http://www.w3.org/Graphics/SVG/1.1/DTD/svg11.dtd">
<svg version="1.1" id="Layer_1" xmlns="http://www.w3.org/2000/svg" xmlns:xlink="http://www.w3.org/1999/xlink" x="0px" y="0px"
	 width="100px" height="100px" viewBox="0 0 100 100" enable-background="new 0 0 100 100" xml:space="preserve">
<g>
	<g>
		<path d="M21.666,59.115c-3.678,0-6.67-2.991-6.67-6.669c0-3.677,2.992-6.669,6.67-6.669s6.67,2.992,6.67,6.669
			C28.336,56.124,25.344,59.115,21.666,59.115z"/>
	</g>
	<g>
		<path d="M45.166,59.115c-3.678,0-6.67-2.991-6.67-6.669c0-3.677,2.992-6.669,6.67-6.669s6.67,2.992,6.67,6.669
			C51.836,56.124,48.844,59.115,45.166,59.115z"/>
	</g>
	<g>
		<path d="M69.416,59.115c-3.678,0-6.67-2.991-6.67-6.669c0-3.677,2.992-6.669,6.67-6.669s6.67,2.992,6.67,6.669
			C76.086,56.124,73.094,59.115,69.416,59.115z"/>
	</g>
</g>
</svg>
