<?xml version="1.0" encoding="utf-8"?>
<!-- Generator: Adobe Illustrator 16.0.0, SVG Export Plug-In . SVG Version: 6.00 Build 0)  -->
<!DOCTYPE svg PUBLIC "-//W3C//DTD SVG 1.1//EN" "http://www.w3.org/Graphics/SVG/1.1/DTD/svg11.dtd">
<svg version="1.1" id="Layer_1" xmlns="http://www.w3.org/2000/svg" xmlns:xlink="http://www.w3.org/1999/xlink" x="0px" y="0px"
	 width="100px" height="100px" viewBox="0 0 100 100" enable-background="new 0 0 100 100" xml:space="preserve">
<path d="M70.266,39.558h-0.287l-8.005,5.006c-1.7,0.075-3.233,0.794-4.372,1.914V41.99c0-3.677-2.992-6.669-6.67-6.669h-25.16
	c-3.678,0-6.67,2.992-6.67,6.669v20.912c0,3.677,2.992,6.669,6.67,6.669h25.16c3.678,0,6.67-2.992,6.67-6.669v-4.265
	c1.139,1.119,2.672,1.839,4.372,1.914l8.005,5.006h0.287c4.669,0,4.669-4.673,4.669-6.669V46.227
	C74.935,44.232,74.935,39.558,70.266,39.558z"/>
</svg>
