<?xml version="1.0" encoding="utf-8"?>
<!-- Generator: Adobe Illustrator 16.0.0, SVG Export Plug-In . SVG Version: 6.00 Build 0)  -->
<!DOCTYPE svg PUBLIC "-//W3C//DTD SVG 1.1//EN" "http://www.w3.org/Graphics/SVG/1.1/DTD/svg11.dtd">
<svg version="1.1" id="Layer_1" xmlns="http://www.w3.org/2000/svg" xmlns:xlink="http://www.w3.org/1999/xlink" x="0px" y="0px"
	 width="100px" height="100px" viewBox="0 0 100 100" enable-background="new 0 0 100 100" xml:space="preserve">
<g>
	<path d="M71.2,29.354c-4.322-3.469-10.82-2.076-11.095-2.016c-0.458,0.102-0.783,0.508-0.783,0.977v36.32
		c-1.169-1.125-2.753-1.82-4.5-1.82h-3.5c-3.584,0-6.5,2.916-6.5,6.5s2.916,6.5,6.5,6.5h3.5c3.584,0,6.5-2.916,6.5-6.5v-30h12.511
		c0.552,0,1-0.447,1-1C74.833,34.302,73.61,31.288,71.2,29.354z"/>
	<path d="M26.166,38.731h23.5c0.552,0,1-0.447,1-1c0-0.552-0.448-1-1-1h-23.5c-0.552,0-1,0.448-1,1
		C25.166,38.284,25.614,38.731,26.166,38.731z"/>
	<path d="M26.166,47.649h23.5c0.552,0,1-0.448,1-1c0-0.553-0.448-1-1-1h-23.5c-0.552,0-1,0.447-1,1
		C25.166,47.201,25.614,47.649,26.166,47.649z"/>
	<path d="M50.666,55.815c0-0.553-0.448-1-1-1h-23.5c-0.552,0-1,0.447-1,1s0.448,1,1,1h23.5
		C50.218,56.815,50.666,56.368,50.666,55.815z"/>
</g>
</svg>
