<?xml version="1.0" encoding="utf-8"?>
<!-- Generator: Adobe Illustrator 16.0.0, SVG Export Plug-In . SVG Version: 6.00 Build 0)  -->
<!DOCTYPE svg PUBLIC "-//W3C//DTD SVG 1.1//EN" "http://www.w3.org/Graphics/SVG/1.1/DTD/svg11.dtd">
<svg version="1.1" id="Layer_1" xmlns="http://www.w3.org/2000/svg" xmlns:xlink="http://www.w3.org/1999/xlink" x="0px" y="0px"
	 width="100px" height="100px" viewBox="0 0 100 100" enable-background="new 0 0 100 100" xml:space="preserve">
<g>
	<path d="M71.146,75.476h-42.33c-1.012,0-1.835-0.822-1.835-1.835V39.726h46v33.915C72.981,74.653,72.158,75.476,71.146,75.476z"/>
	<path d="M71.146,29.476h-42.33c-1.012,0-1.835,0.824-1.835,1.836v6.414h46v-6.414C72.981,30.3,72.158,29.476,71.146,29.476z
		 M31.325,34.643h-0.688c-0.553,0-1-0.447-1-1c0-0.552,0.447-1,1-1h0.688c0.553,0,1,0.448,1,1
		C32.325,34.195,31.878,34.643,31.325,34.643z M35.356,34.643h-0.688c-0.553,0-1-0.447-1-1c0-0.552,0.447-1,1-1h0.688
		c0.553,0,1,0.448,1,1C36.356,34.195,35.909,34.643,35.356,34.643z M67.606,34.643h-28.25c-0.553,0-1-0.447-1-1c0-0.552,0.447-1,1-1
		h28.25c0.553,0,1,0.448,1,1C68.606,34.195,68.159,34.643,67.606,34.643z"/>
</g>
</svg>
