<?xml version="1.0" encoding="utf-8"?>
<!-- Generator: Adobe Illustrator 16.0.0, SVG Export Plug-In . SVG Version: 6.00 Build 0)  -->
<!DOCTYPE svg PUBLIC "-//W3C//DTD SVG 1.1//EN" "http://www.w3.org/Graphics/SVG/1.1/DTD/svg11.dtd">
<svg version="1.1" id="Layer_1" xmlns="http://www.w3.org/2000/svg" xmlns:xlink="http://www.w3.org/1999/xlink" x="0px" y="0px"
	 width="100px" height="100px" viewBox="0 0 100 100" enable-background="new 0 0 100 100" xml:space="preserve">
<path d="M52.663,51.646l-1.186,0.104l0.102-1.186c0.363-4.23,0.909-4.776,1.115-4.982l13.649-13.648
	c-0.668-0.208-1.379-0.32-2.115-0.32H39.982c-3.931,0-7.13,3.198-7.13,7.131v24.243c0,3.932,3.199,7.13,7.13,7.13h24.245
	c3.931,0,7.129-3.198,7.129-7.13V38.744c0-0.59-0.08-1.16-0.216-1.709L57.642,50.533C57.44,50.735,56.903,51.272,52.663,51.646z"/>
</svg>
