<?xml version="1.0" encoding="utf-8"?>
<!-- Generator: Adobe Illustrator 16.0.0, SVG Export Plug-In . SVG Version: 6.00 Build 0)  -->
<!DOCTYPE svg PUBLIC "-//W3C//DTD SVG 1.1//EN" "http://www.w3.org/Graphics/SVG/1.1/DTD/svg11.dtd">
<svg version="1.1" id="Layer_1" xmlns="http://www.w3.org/2000/svg" xmlns:xlink="http://www.w3.org/1999/xlink" x="0px" y="0px"
	 width="100px" height="100px" viewBox="0 0 100 100" enable-background="new 0 0 100 100" xml:space="preserve">
<g>
	<path d="M28.016,51.135c-2.548,0-4.894,1.041-6.571,2.783c1.466-12.897,11.429-23.247,24.136-25.317
		C34.98,36.195,34.268,49.58,34.314,53.695C32.642,52.093,30.396,51.135,28.016,51.135z"/>
	<path d="M42.696,51.135c-2.419,0-4.702,0.989-6.383,2.641c-0.066-3.91,0.559-18.418,12.894-25.09v25.199
		C47.526,52.163,45.208,51.135,42.696,51.135z"/>
	<path d="M57.719,51.135c-2.512,0-4.83,1.029-6.512,2.751v-25.2c12.335,6.672,12.96,21.18,12.894,25.09
		C62.42,52.124,60.139,51.135,57.719,51.135z"/>
	<path d="M72.399,51.135c-2.38,0-4.625,0.958-6.299,2.561c0.047-4.119-0.669-17.525-11.3-25.117
		c12.819,2.026,22.875,12.476,24.288,25.486C77.402,52.244,74.999,51.135,72.399,51.135z"/>
	<path d="M50.258,58.135c-0.427,0-0.785-0.235-1-0.57v16.438c0,0.146,0.036,0.283,0.092,0.408c0.212,2.563,2.342,4.592,4.958,4.592
		c2.757,0,5-2.244,5-5c0-0.553-0.448-1-1-1s-1,0.447-1,1c0,1.654-1.346,3-3,3s-3-1.346-3-3c0-0.09-0.029-0.169-0.051-0.252V57.564
		C51.043,57.899,50.686,58.135,50.258,58.135z"/>
	<path d="M51.208,26.884v-2.948c0-0.552-0.448-1-1-1s-1,0.448-1,1v2.948c0,0.029,0.014,0.055,0.017,0.084h1.967
		C51.193,26.938,51.208,26.913,51.208,26.884z"/>
</g>
</svg>
