<?xml version="1.0" encoding="utf-8"?>
<!-- Generator: Adobe Illustrator 16.0.0, SVG Export Plug-In . SVG Version: 6.00 Build 0)  -->
<!DOCTYPE svg PUBLIC "-//W3C//DTD SVG 1.1//EN" "http://www.w3.org/Graphics/SVG/1.1/DTD/svg11.dtd">
<svg version="1.1" id="Layer_1" xmlns="http://www.w3.org/2000/svg" xmlns:xlink="http://www.w3.org/1999/xlink" x="0px" y="0px"
	 width="100px" height="100px" viewBox="0 0 100 100" enable-background="new 0 0 100 100" xml:space="preserve">
<g>
	<path d="M44.547,67.734H29.553c-2.575,0-4.669-2.094-4.669-4.669V36.738c0-2.575,2.095-4.67,4.669-4.67h14.995
		c2.575,0,4.669,2.095,4.669,4.67v32.924C48.002,68.467,46.341,67.734,44.547,67.734z"/>
	<path d="M75.55,63.065c0,2.575-2.095,4.669-4.669,4.669H55.886c-1.794,0-3.455,0.732-4.669,1.928V36.738
		c0-2.575,2.095-4.67,4.669-4.67h14.995c2.575,0,4.669,2.095,4.669,4.67V63.065z"/>
</g>
</svg>
