<?xml version="1.0" encoding="utf-8"?>
<!-- Generator: Adobe Illustrator 16.0.0, SVG Export Plug-In . SVG Version: 6.00 Build 0)  -->
<!DOCTYPE svg PUBLIC "-//W3C//DTD SVG 1.1//EN" "http://www.w3.org/Graphics/SVG/1.1/DTD/svg11.dtd">
<svg version="1.1" id="Layer_1" xmlns="http://www.w3.org/2000/svg" xmlns:xlink="http://www.w3.org/1999/xlink" x="0px" y="0px"
	 width="100px" height="100px" viewBox="0 0 100 100" enable-background="new 0 0 100 100" xml:space="preserve">
<g>
	<path d="M73.735,44.841c0.034,0.053,0.078,0.1,0.102,0.156C73.813,44.94,73.77,44.894,73.735,44.841z"/>
	<path d="M25.165,69.978c-0.059-0.057-0.095-0.124-0.137-0.189C25.07,69.854,25.108,69.923,25.165,69.978z"/>
	<path d="M73.915,45.378c0-0.025-0.014-0.048-0.016-0.073c0.003,0.027,0.016,0.054,0.016,0.082V45.378z"/>
	<path d="M24.94,69.658c-0.019-0.041-0.019-0.086-0.03-0.129C24.922,69.572,24.923,69.618,24.94,69.658z"/>
	<path d="M25.481,70.184c-0.053-0.021-0.099-0.062-0.147-0.093C25.383,70.123,25.427,70.162,25.481,70.184z"/>
	<path d="M24.91,69.529c-0.023-0.082-0.05-0.163-0.052-0.253C24.86,69.363,24.886,69.445,24.91,69.529z"/>
	<path d="M25.176,69.993c0.047,0.044,0.104,0.065,0.158,0.099c-0.059-0.036-0.12-0.066-0.169-0.113
		C25.17,69.982,25.171,69.988,25.176,69.993z"/>
	<path d="M25.028,69.789c-0.028-0.045-0.067-0.082-0.088-0.131C24.961,69.705,25,69.744,25.028,69.789z"/>
	<path d="M73.915,45.387v0.004C73.915,45.39,73.915,45.389,73.915,45.387z"/>
	<path d="M73.837,44.998c0.039,0.097,0.055,0.202,0.063,0.308C73.892,45.2,73.877,45.096,73.837,44.998z"/>
	<path d="M71.915,74.068c-2.771-2.667-8.477-8.15-13.579-13.021l13.579-13.29V74.068z"/>
	<polygon points="63.799,40.25 71.402,45.459 63.799,52.901 	"/>
	<polygon points="48.241,29.592 55.153,34.328 41.524,34.328 	"/>
	<polygon points="33.446,40.023 33.446,53.226 25.696,45.488 	"/>
	<path d="M25.249,47.751L38,60.484c-4.753,4.86-10.066,10.518-12.751,13.393V47.751z"/>
	<path d="M26.546,75.418c4.146-4.439,15.405-16.416,20.035-20.545c0.428-0.382,1.024-0.744,1.278-0.818
		c0.113,0.052,0.423,0.228,1.041,0.804c4.714,4.391,16.935,16.134,21.534,20.559H26.546z"/>
	<path d="M61.799,54.708V39.017c0-0.041,0.021-0.077,0.029-0.116l-3.881-2.659H38.81h-3.05v2.15v17.009
		c0,0.039-0.021,0.071-0.026,0.108l3.611,3.606c2.323-2.352,4.428-4.417,5.905-5.734c0.259-0.23,1.606-1.373,2.706-1.335
		c0.629,0.026,1.318,0.429,2.308,1.35c1.565,1.458,3.96,3.729,6.625,6.269l4.94-4.835C61.821,54.789,61.799,54.751,61.799,54.708z
		 M41.77,42.127h13.625c0.552,0,1,0.448,1,1c0,0.553-0.448,1-1,1H41.77c-0.552,0-1-0.447-1-1
		C40.77,42.576,41.218,42.127,41.77,42.127z M55.469,49.085H41.844c-0.552,0-1-0.447-1-1c0-0.552,0.448-1,1-1h13.625
		c0.552,0,1,0.448,1,1C56.469,48.638,56.021,49.085,55.469,49.085z"/>
</g>
</svg>
