<?xml version="1.0" encoding="utf-8"?>
<!-- Generator: Adobe Illustrator 16.0.0, SVG Export Plug-In . SVG Version: 6.00 Build 0)  -->
<!DOCTYPE svg PUBLIC "-//W3C//DTD SVG 1.1//EN" "http://www.w3.org/Graphics/SVG/1.1/DTD/svg11.dtd">
<svg version="1.1" id="Layer_1" xmlns="http://www.w3.org/2000/svg" xmlns:xlink="http://www.w3.org/1999/xlink" x="0px" y="0px"
	 width="100px" height="100px" viewBox="0 0 100 100" enable-background="new 0 0 100 100" xml:space="preserve">
<g>
	<path d="M28.919,30.701c-2.575,0-4.669,2.095-4.669,4.669v23.328c0,2.575,2.095,4.669,4.669,4.669h1.497V44.204
		c0-3.678,2.992-6.669,6.669-6.669h30.831v-2.164c0-2.575-2.095-4.669-4.669-4.669H28.919z"/>
	<path d="M37.086,39.535c-2.575,0-4.669,2.095-4.669,4.669v23.328c0,2.575,2.095,4.669,4.669,4.669h34.328
		c2.575,0,4.669-2.095,4.669-4.669V44.204c0-2.575-2.095-4.669-4.669-4.669H37.086z"/>
</g>
</svg>
