<?xml version="1.0" encoding="utf-8"?>
<!-- Generator: Adobe Illustrator 16.0.0, SVG Export Plug-In . SVG Version: 6.00 Build 0)  -->
<!DOCTYPE svg PUBLIC "-//W3C//DTD SVG 1.1//EN" "http://www.w3.org/Graphics/SVG/1.1/DTD/svg11.dtd">
<svg version="1.1" id="Layer_1" xmlns="http://www.w3.org/2000/svg" xmlns:xlink="http://www.w3.org/1999/xlink" x="0px" y="0px"
	 width="100px" height="100px" viewBox="0 0 100 100" enable-background="new 0 0 100 100" xml:space="preserve">
<path d="M75.979,31.49h-1.001v-1.83c0-3.678-2.991-6.67-6.669-6.67H38.314c-3.678,0-6.669,2.992-6.669,6.67v1.83h-0.917
	c-0.05,0-0.099,0.005-0.147,0.012c-0.672,0.101-1.563,0.282-1.998,0.579c-0.422,0.286-0.896,1.016-1.221,1.576
	c-0.088,0.152-0.134,0.324-0.134,0.5v8.833c0,0.134,0.026,0.267,0.079,0.391c0.273,0.647,0.686,1.495,1.086,1.854
	c0.402,0.359,1.289,0.678,1.963,0.88c0.094,0.028,0.191,0.042,0.289,0.042h20.572c0.398,0.08,0.847,0.206,1.088,0.305
	c0.029,0.249,0.034,0.691,0.006,1.112v7.985c-2.73,0.404-4.834,2.757-4.834,5.598v13.667c0,3.124,2.543,5.666,5.667,5.666
	c3.125,0,5.667-2.542,5.667-5.666V61.157c0-2.725-1.934-5.005-4.5-5.544l-0.002-7.966c0.086-1.185-0.04-2.004-0.375-2.436
	c-0.353-0.456-1.175-0.806-2.443-1.037c-0.059-0.012-0.119-0.018-0.18-0.018H30.796c-0.468-0.148-0.962-0.341-1.041-0.385
	c-0.098-0.114-0.332-0.557-0.526-0.99v-8.349c0.2-0.325,0.411-0.634,0.441-0.677c0.14-0.068,0.667-0.191,1.136-0.267h0.84v1.831
	c0,3.678,2.991,6.669,6.669,6.669h29.994c3.678,0,6.669-2.991,6.669-6.669V33.49h1.001c0.552,0,1-0.447,1-1
	C76.979,31.938,76.53,31.49,75.979,31.49z"/>
</svg>
