<?xml version="1.0" encoding="utf-8"?>
<!-- Generator: Adobe Illustrator 16.0.0, SVG Export Plug-In . SVG Version: 6.00 Build 0)  -->
<!DOCTYPE svg PUBLIC "-//W3C//DTD SVG 1.1//EN" "http://www.w3.org/Graphics/SVG/1.1/DTD/svg11.dtd">
<svg version="1.1" id="Layer_1" xmlns="http://www.w3.org/2000/svg" xmlns:xlink="http://www.w3.org/1999/xlink" x="0px" y="0px"
	 width="100px" height="100px" viewBox="0 0 100 100" enable-background="new 0 0 100 100" xml:space="preserve">
<g>
	<path d="M68.024,38.159h-4.373c-0.375-3.324-3.205-5.916-6.627-5.916H43.363c-3.423,0-6.252,2.592-6.627,5.916h-4.373
		c-3.678,0-6.669,2.992-6.669,6.67V63.99c0,3.678,2.992,6.669,6.669,6.669h35.661c3.678,0,6.669-2.991,6.669-6.669V44.829
		C74.694,41.151,71.702,38.159,68.024,38.159z M50.194,64.909c-6.617,0-12-5.383-12-12c0-6.616,5.383-12,12-12s12,5.384,12,12
		C62.194,59.526,56.811,64.909,50.194,64.909z"/>
	<path d="M50.194,42.909c-5.514,0-10,4.486-10,10c0,5.515,4.486,10,10,10s10-4.485,10-10C60.194,47.396,55.708,42.909,50.194,42.909
		z M50.194,60.743c-4.319,0-7.833-3.515-7.833-7.834s3.514-7.833,7.833-7.833s7.833,3.514,7.833,7.833S54.513,60.743,50.194,60.743z
		"/>
	<path d="M50.194,47.076c-3.217,0-5.833,2.616-5.833,5.833s2.617,5.834,5.833,5.834s5.833-2.617,5.833-5.834
		S53.411,47.076,50.194,47.076z"/>
</g>
</svg>
