<?xml version="1.0" encoding="utf-8"?>
<!-- Generator: Adobe Illustrator 16.0.0, SVG Export Plug-In . SVG Version: 6.00 Build 0)  -->
<!DOCTYPE svg PUBLIC "-//W3C//DTD SVG 1.1//EN" "http://www.w3.org/Graphics/SVG/1.1/DTD/svg11.dtd">
<svg version="1.1" id="Layer_1" xmlns="http://www.w3.org/2000/svg" xmlns:xlink="http://www.w3.org/1999/xlink" x="0px" y="0px"
	 width="100px" height="100px" viewBox="0 0 100 100" enable-background="new 0 0 100 100" xml:space="preserve">
<path d="M68.104,32.033c-4.809-4.809-11.212-7.457-18.031-7.457s-13.223,2.648-18.031,7.457c-9.942,9.941-9.942,26.12,0,36.062
	c4.809,4.809,11.212,7.457,18.031,7.458c0.001,0,0.001,0,0.003,0c6.816,0,13.22-2.648,18.028-7.458
	c4.81-4.809,7.458-11.212,7.458-18.03S72.914,36.842,68.104,32.033z M51.24,62.796h-3.076v-3.485h3.076V62.796z M56.896,46.025
	c-0.309,0.844-0.731,1.592-1.268,2.242c-0.491,0.65-1.067,1.318-1.729,2.003c-0.651,0.697-1.314,1.479-1.988,2.346
	c-0.239,0.377-0.428,0.776-0.564,1.199c-0.16,0.958-0.217,1.951-0.172,2.979h-3.01c-0.023-1.734,0.143-3.059,0.495-3.973
	c0.353-0.912,1.11-1.997,2.272-3.252c0.468-0.537,0.924-1.062,1.367-1.576c0.627-0.753,1.105-1.478,1.436-2.175
	c0.331-0.707,0.496-1.54,0.496-2.499c0-1.096-0.26-2.089-0.779-2.979c-0.566-0.879-1.502-1.335-2.807-1.369
	c-1.801,0.057-2.984,0.668-3.55,1.832c-0.3,0.536-0.503,1.141-0.606,1.814c-0.139,0.708-0.207,1.433-0.207,2.175h-2.938
	c-0.091-2.208,0.407-4.114,1.494-5.72c1.062-1.639,2.855-2.48,5.377-2.527c2.16,0.023,3.874,0.609,5.141,1.758
	c1.278,1.16,1.929,2.764,1.951,4.812C57.307,44.256,57.17,45.226,56.896,46.025z"/>
</svg>
