<?xml version="1.0" encoding="utf-8"?>
<!-- Generator: Adobe Illustrator 16.0.0, SVG Export Plug-In . SVG Version: 6.00 Build 0)  -->
<!DOCTYPE svg PUBLIC "-//W3C//DTD SVG 1.1//EN" "http://www.w3.org/Graphics/SVG/1.1/DTD/svg11.dtd">
<svg version="1.1" id="Layer_1" xmlns="http://www.w3.org/2000/svg" xmlns:xlink="http://www.w3.org/1999/xlink" x="0px" y="0px"
	 width="100px" height="100px" viewBox="0 0 100 100" enable-background="new 0 0 100 100" xml:space="preserve">
<g>
	<path d="M66.418,35.684h-2.393v-8.532c0-0.552-0.447-1-1-1s-1,0.448-1,1v8.532H28.424c-3.678,0-6.669,2.991-6.669,6.669v24.829
		c0,3.677,2.991,6.669,6.669,6.669h37.994c3.678,0,6.67-2.992,6.67-6.669V42.353C73.088,38.675,70.096,35.684,66.418,35.684z
		 M50.713,47.746c0.794,0,1.438,0.644,1.438,1.438s-0.644,1.438-1.438,1.438s-1.438-0.644-1.438-1.438S49.919,47.746,50.713,47.746z
		 M45.481,50.715c0.794,0,1.438,0.644,1.438,1.438s-0.644,1.438-1.438,1.438s-1.438-0.644-1.438-1.438S44.688,50.715,45.481,50.715z
		 M33.65,43.684c0.794,0,1.438,0.644,1.438,1.438s-0.644,1.438-1.438,1.438s-1.438-0.644-1.438-1.438S32.856,43.684,33.65,43.684z
		 M26.275,55.184c0-0.794,0.644-1.438,1.438-1.438s1.438,0.644,1.438,1.438s-0.644,1.438-1.438,1.438S26.275,55.978,26.275,55.184z
		 M29.588,62.559c-0.794,0-1.438-0.644-1.438-1.438s0.644-1.438,1.438-1.438s1.438,0.644,1.438,1.438S30.382,62.559,29.588,62.559z
		 M29.588,50.746c-0.794,0-1.438-0.644-1.438-1.438s0.644-1.438,1.438-1.438s1.438,0.644,1.438,1.438S30.382,50.746,29.588,50.746z
		 M33.65,66.621c-0.794,0-1.438-0.644-1.438-1.438s0.644-1.438,1.438-1.438s1.438,0.644,1.438,1.438S34.444,66.621,33.65,66.621z
		 M34.606,59.527c-0.794,0-1.438-0.644-1.438-1.438s0.644-1.438,1.438-1.438s1.438,0.644,1.438,1.438S35.4,59.527,34.606,59.527z
		 M34.606,53.59c-0.794,0-1.438-0.644-1.438-1.438s0.644-1.438,1.438-1.438s1.438,0.644,1.438,1.438S35.4,53.59,34.606,53.59z
		 M40.15,68.621c-0.794,0-1.438-0.644-1.438-1.438s0.644-1.438,1.438-1.438s1.438,0.644,1.438,1.438S40.944,68.621,40.15,68.621z
		 M40.15,62.434c-0.794,0-1.438-0.644-1.438-1.438s0.644-1.438,1.438-1.438s1.438,0.644,1.438,1.438S40.944,62.434,40.15,62.434z
		 M40.15,56.559c-0.794,0-1.438-0.644-1.438-1.438s0.644-1.438,1.438-1.438s1.438,0.644,1.438,1.438S40.944,56.559,40.15,56.559z
		 M40.15,50.621c-0.794,0-1.438-0.644-1.438-1.438s0.644-1.438,1.438-1.438s1.438,0.644,1.438,1.438S40.944,50.621,40.15,50.621z
		 M40.15,44.559c-0.794,0-1.438-0.644-1.438-1.438s0.644-1.438,1.438-1.438s1.438,0.644,1.438,1.438S40.944,44.559,40.15,44.559z
		 M44.044,58.09c0-0.794,0.644-1.438,1.438-1.438s1.438,0.644,1.438,1.438s-0.644,1.438-1.438,1.438S44.044,58.884,44.044,58.09z
		 M46.65,66.621c-0.794,0-1.438-0.644-1.438-1.438s0.644-1.438,1.438-1.438s1.438,0.644,1.438,1.438S47.444,66.621,46.65,66.621z
		 M46.65,46.621c-0.794,0-1.438-0.644-1.438-1.438s0.644-1.438,1.438-1.438s1.438,0.644,1.438,1.438S47.444,46.621,46.65,46.621z
		 M50.713,62.434c-0.794,0-1.438-0.644-1.438-1.438s0.644-1.438,1.438-1.438s1.438,0.644,1.438,1.438S51.507,62.434,50.713,62.434z
		 M52.588,56.559c-0.794,0-1.438-0.644-1.438-1.438s0.644-1.438,1.438-1.438s1.438,0.644,1.438,1.438S53.382,56.559,52.588,56.559z
		 M63.025,47.746c-1.76,0-3.188-1.427-3.188-3.188c0-1.76,1.428-3.187,3.188-3.187s3.188,1.427,3.188,3.187
		C66.213,46.319,64.785,47.746,63.025,47.746z"/>
</g>
</svg>
