<?xml version="1.0" encoding="utf-8"?>
<!-- Generator: Adobe Illustrator 16.0.0, SVG Export Plug-In . SVG Version: 6.00 Build 0)  -->
<!DOCTYPE svg PUBLIC "-//W3C//DTD SVG 1.1//EN" "http://www.w3.org/Graphics/SVG/1.1/DTD/svg11.dtd">
<svg version="1.1" id="Layer_1" xmlns="http://www.w3.org/2000/svg" xmlns:xlink="http://www.w3.org/1999/xlink" x="0px" y="0px"
	 width="100px" height="100px" viewBox="0 0 100 100" enable-background="new 0 0 100 100" xml:space="preserve">
<path d="M77.28,53.375c-0.553,0-1,0.447-1,1c0,11.855-9.646,21.5-21.5,21.5c-11.855,0-21.5-9.645-21.5-21.5
	c0-11.518,9.109-20.922,20.5-21.449v7.449c0,0.328,0.16,0.636,0.432,0.822c0.168,0.117,0.367,0.178,0.568,0.178
	c0.119,0,0.238-0.021,0.354-0.064l22.5-8.5c0.389-0.146,0.646-0.52,0.646-0.936s-0.258-0.789-0.646-0.936l-22.5-8.5
	c-0.309-0.116-0.652-0.074-0.922,0.113c-0.271,0.187-0.432,0.494-0.432,0.822V30.9c-12.496,0.526-22.5,10.852-22.5,23.475
	c0,12.958,10.541,23.5,23.5,23.5c12.957,0,23.5-10.542,23.5-23.5C78.28,53.822,77.831,53.375,77.28,53.375z"/>
</svg>
