<?xml version="1.0" encoding="utf-8"?>
<!-- Generator: Adobe Illustrator 16.0.0, SVG Export Plug-In . SVG Version: 6.00 Build 0)  -->
<!DOCTYPE svg PUBLIC "-//W3C//DTD SVG 1.1//EN" "http://www.w3.org/Graphics/SVG/1.1/DTD/svg11.dtd">
<svg version="1.1" id="Layer_1" xmlns="http://www.w3.org/2000/svg" xmlns:xlink="http://www.w3.org/1999/xlink" x="0px" y="0px"
	 width="100px" height="100px" viewBox="0 0 100 100" enable-background="new 0 0 100 100" xml:space="preserve">
<path d="M27.061,51.252L49.477,68.82c0.35,0.3,0.842,0.37,1.26,0.178c0.418-0.191,0.688-0.609,0.688-1.07V52.813L71.848,68.82
	c0.348,0.3,0.84,0.37,1.26,0.178c0.418-0.191,0.686-0.609,0.686-1.07V32.2c0-0.463-0.271-0.884-0.695-1.074
	c-0.424-0.189-0.918-0.113-1.266,0.194L51.424,47.854V32.2c0-0.463-0.273-0.884-0.697-1.074c-0.422-0.189-0.918-0.113-1.264,0.194
	L27.047,49.479c-0.254,0.225-0.4,0.562-0.396,0.889C26.654,50.708,26.803,51.029,27.061,51.252z"/>
</svg>
