<?xml version="1.0" encoding="utf-8"?>
<!-- Generator: Adobe Illustrator 16.0.0, SVG Export Plug-In . SVG Version: 6.00 Build 0)  -->
<!DOCTYPE svg PUBLIC "-//W3C//DTD SVG 1.1//EN" "http://www.w3.org/Graphics/SVG/1.1/DTD/svg11.dtd">
<svg version="1.1" id="Layer_1" xmlns="http://www.w3.org/2000/svg" xmlns:xlink="http://www.w3.org/1999/xlink" x="0px" y="0px"
	 width="100px" height="100px" viewBox="0 0 100 100" enable-background="new 0 0 100 100" xml:space="preserve">
<g>
	<path d="M30.063,29.561V75.45l19.167-9.603l19.166,9.603V29.561H30.063z M55.396,55.896H41.771c-0.553,0-1-0.449-1-1.001
		s0.447-1.001,1-1.001h13.625c0.553,0,1,0.449,1,1.001S55.949,55.896,55.396,55.896z M55.396,48.847H41.771
		c-0.553,0-1-0.448-1-1.001s0.447-1.001,1-1.001h13.625c0.553,0,1,0.448,1,1.001S55.949,48.847,55.396,48.847z M55.396,40.373
		H41.771c-0.553,0-1-0.448-1-1.001s0.447-1.001,1-1.001h13.625c0.553,0,1,0.448,1,1.001S55.949,40.373,55.396,40.373z"/>
</g>
</svg>
