<?xml version="1.0" encoding="utf-8"?>
<!-- Generator: Adobe Illustrator 16.0.0, SVG Export Plug-In . SVG Version: 6.00 Build 0)  -->
<!DOCTYPE svg PUBLIC "-//W3C//DTD SVG 1.1//EN" "http://www.w3.org/Graphics/SVG/1.1/DTD/svg11.dtd">
<svg version="1.1" id="Layer_1" xmlns="http://www.w3.org/2000/svg" xmlns:xlink="http://www.w3.org/1999/xlink" x="0px" y="0px"
	 width="100px" height="100px" viewBox="0 0 100 100" enable-background="new 0 0 100 100" xml:space="preserve">
<path d="M73.612,49.812c0.181-0.751,0.272-1.513,0.272-2.275c0-5.438-4.424-9.862-9.862-9.862c-1.312,0-2.623,0.268-3.833,0.779
	c-2.61-2.957-6.309-4.637-10.27-4.637c-5.517,0-10.468,3.312-12.611,8.338c-1.208-0.34-2.439-0.511-3.673-0.511
	c-7.565,0-13.72,6.155-13.72,13.721s6.155,13.72,13.72,13.72h37.032c5.438,0,9.862-4.424,9.862-9.862
	C80.529,54.879,77.678,51.082,73.612,49.812z M50.222,62.752c-5.101,0-9.25-4.149-9.25-9.25c0-5.03,4.038-9.128,9.042-9.239V42.71
	c0-0.374,0.209-0.718,0.542-0.889c0.333-0.171,0.734-0.142,1.039,0.075l3.5,2.5c0.261,0.187,0.417,0.485,0.419,0.806
	s-0.148,0.622-0.406,0.812l-3.5,2.584c-0.175,0.129-0.384,0.195-0.594,0.195c-0.154,0-0.308-0.035-0.451-0.107
	c-0.337-0.17-0.549-0.516-0.549-0.893v-1.531c-3.901,0.111-7.042,3.312-7.042,7.239c0,3.997,3.252,7.25,7.25,7.25
	s7.25-3.253,7.25-7.25c0-0.553,0.448-1,1-1s1,0.447,1,1C59.472,58.603,55.322,62.752,50.222,62.752z"/>
</svg>
