<?xml version="1.0" encoding="utf-8"?>
<!-- Generator: Adobe Illustrator 16.0.0, SVG Export Plug-In . SVG Version: 6.00 Build 0)  -->
<!DOCTYPE svg PUBLIC "-//W3C//DTD SVG 1.1//EN" "http://www.w3.org/Graphics/SVG/1.1/DTD/svg11.dtd">
<svg version="1.1" id="Layer_1" xmlns="http://www.w3.org/2000/svg" xmlns:xlink="http://www.w3.org/1999/xlink" x="0px" y="0px"
	 width="100px" height="100px" viewBox="0 0 100 100" enable-background="new 0 0 100 100" xml:space="preserve">
<g>
	<path d="M66.979,38.142l2.607-2.61l1.875,1.875c0.195,0.195,0.451,0.293,0.707,0.293s0.512-0.098,0.707-0.293
		c0.391-0.391,0.391-1.023,0-1.414l-4.748-4.748c-0.391-0.391-1.023-0.391-1.414,0s-0.391,1.023,0,1.414l1.459,1.459l-2.645,2.645
		c-3.898-3.409-8.926-5.553-14.443-5.785V26.82c0-0.552-0.447-1-1-1s-1,0.448-1,1v4.157c-12.496,0.526-22.5,10.852-22.5,23.475
		c0,12.958,10.541,23.5,23.5,23.5c12.957,0,23.5-10.542,23.5-23.5C73.584,48.121,71.062,42.371,66.979,38.142z M53.619,55.452
		h-2.535v5.118c0,0.552-0.447,1-1,1s-1-0.448-1-1v-5.118h-2.465c-0.553,0-1-0.448-1-1s0.447-1,1-1h2.465V38.136c0-0.552,0.447-1,1-1
		s1,0.448,1,1v15.315h2.535c0.553,0,1,0.448,1,1S54.172,55.452,53.619,55.452z"/>
</g>
</svg>
