<?xml version="1.0" encoding="utf-8"?>
<!-- Generator: Adobe Illustrator 16.0.0, SVG Export Plug-In . SVG Version: 6.00 Build 0)  -->
<!DOCTYPE svg PUBLIC "-//W3C//DTD SVG 1.1//EN" "http://www.w3.org/Graphics/SVG/1.1/DTD/svg11.dtd">
<svg version="1.1" id="Layer_1" xmlns="http://www.w3.org/2000/svg" xmlns:xlink="http://www.w3.org/1999/xlink" x="0px" y="0px"
	 width="100px" height="100px" viewBox="0 0 100 100" enable-background="new 0 0 100 100" xml:space="preserve">
<g>
	<path fill="none" d="M33.476,46.064c-0.008,0.095-0.027,0.187-0.059,0.272l-0.083,23.821h15.583v-38.46
		c-0.576,0-1.154,0.042-1.859,0.126C39.724,32.703,34.011,38.692,33.476,46.064z"/>
	<g>
		<path d="M48.917,78.522c2.541,0,4.602-2.06,4.602-4.601h-9.203C44.315,76.462,46.376,78.522,48.917,78.522z"/>
		<path d="M66.417,45.992c0-0.15-0.033-0.292-0.092-0.42c-0.745-8.031-6.939-14.524-14.913-15.668
			c0.081-0.249,0.134-0.511,0.134-0.788c0-1.451-1.178-2.628-2.629-2.628s-2.629,1.177-2.629,2.628c0,0.277,0.053,0.539,0.134,0.788
			c-7.974,1.144-14.168,7.637-14.913,15.668c-0.059,0.128-0.092,0.27-0.092,0.42l-0.083,19.751v4.415v1c0,0.553,0.448,1,1,1h16.583
			H65.5c0.552,0,1-0.447,1-1v-1v-4.415L66.417,45.992z"/>
	</g>
</g>
</svg>
