<?xml version="1.0" encoding="utf-8"?>
<!-- Generator: Adobe Illustrator 16.0.0, SVG Export Plug-In . SVG Version: 6.00 Build 0)  -->
<!DOCTYPE svg PUBLIC "-//W3C//DTD SVG 1.1//EN" "http://www.w3.org/Graphics/SVG/1.1/DTD/svg11.dtd">
<svg version="1.1" id="Layer_1" xmlns="http://www.w3.org/2000/svg" xmlns:xlink="http://www.w3.org/1999/xlink" x="0px" y="0px"
	 width="100px" height="100px" viewBox="0 0 100 100" enable-background="new 0 0 100 100" xml:space="preserve">
<g>
	<path d="M46.906,68.323c-2.482,0-4.5,2.019-4.5,4.5c0,2.482,2.018,4.5,4.5,4.5c2.48,0,4.5-2.018,4.5-4.5
		C51.406,70.342,49.386,68.323,46.906,68.323z"/>
	<path d="M67.006,68.323c-2.481,0-4.5,2.019-4.5,4.5c0,2.482,2.019,4.5,4.5,4.5s4.5-2.018,4.5-4.5
		C71.506,70.342,69.488,68.323,67.006,68.323z"/>
	<path d="M72.708,40.235l-0.098-0.02l-5.465,0.031c-0.424-0.039-0.947-0.033-1.194,0.002l-8.079,0.039l-7.99-0.034
		c-0.438-0.045-0.975-0.041-1.197-0.011l-5.561-0.027l-0.098,0.02c-2.047,0.405-3.688,1.714-4.596,3.428l-3.885-16.732
		c-0.105-0.453-0.51-0.774-0.975-0.774h-8.334c-0.552,0-1,0.448-1,1c0,0.553,0.448,1,1,1h7.539l7.213,31.062
		c0,0.005,0.004,0.009,0.006,0.014c0.551,2.687,2.646,4.734,5.344,5.22c0.119,0.032,0.239,0.063,0.362,0.089l0.101,0.021
		l0.637-0.004l-0.006-1l0.133,1l11.297-0.056l11.307,0.056l0.005-1l0.122,1l0.637,0.004l0.101-0.021
		c0.123-0.025,0.243-0.057,0.351-0.09c2.725-0.487,4.832-2.555,5.369-5.264l2.201-11.112C78.669,44.467,76.316,40.95,72.708,40.235z
		"/>
</g>
</svg>
