<?xml version="1.0" encoding="utf-8"?>
<!-- Generator: Adobe Illustrator 16.0.0, SVG Export Plug-In . SVG Version: 6.00 Build 0)  -->
<!DOCTYPE svg PUBLIC "-//W3C//DTD SVG 1.1//EN" "http://www.w3.org/Graphics/SVG/1.1/DTD/svg11.dtd">
<svg version="1.1" id="Layer_1" xmlns="http://www.w3.org/2000/svg" xmlns:xlink="http://www.w3.org/1999/xlink" x="0px" y="0px"
	 width="100px" height="100px" viewBox="0 0 100 100" enable-background="new 0 0 100 100" xml:space="preserve">
<g>
	<path d="M64.539,55.672c-0.566-0.567-1.32-0.883-2.121-0.883s-1.555,0.304-2.12,0.87c-0.567,0.566-0.88,1.304-0.88,2.106
		s0.313,1.728,0.879,2.293L63.099,63h-6.252c-0.036,0-0.072-0.159-0.107-0.169c-0.151-0.186-0.354-0.484-0.552-0.764
		c-0.082-0.116-0.172-0.279-0.264-0.377l-8.385-8.99l-0.799,0.841l-4.107-4.395l0.8-0.858l-7.949-8.5
		c-1.146-1.611-1.788-2.046-2.006-2.191c-0.198-0.131-0.801-0.339-2.511-0.708C30.755,36.843,30.536,37,30.316,37H21.9
		c-1.654,0-3,1.346-3,3s1.346,3,3,3h8.073c0.058,0,0.115-0.155,0.17-0.14c0.148,0.183,0.345,0.358,0.534,0.629
		c0.09,0.131,0.188,0.198,0.281,0.294l8.364,8.911l0.796-0.864l4.109,4.389l-0.794,0.846l7.972,8.515
		c1.151,1.598,1.782,2.002,1.989,2.14c0.328,0.22,0.936,0.724,2.428,1.067C56.04,68.836,56.262,69,56.482,69h6.27l-1.882,1.743
		c-0.567,0.566-0.88,1.283-0.88,2.084c0,0.801,0.313,1.503,0.877,2.068c0.566,0.568,1.32,0.854,2.123,0.854s1.557-0.325,2.121-0.892
		l7.176-7.184c0.567-0.566,0.88-1.324,0.88-2.125s-0.313-1.559-0.879-2.124L64.539,55.672z M70.874,66.254l-7.177,7.178
		c-0.195,0.196-0.451,0.293-0.707,0.293s-0.512-0.097-0.707-0.293c-0.391-0.391-0.391-0.884,0-1.274L67.579,67H56.482
		c-0.074,0-0.148-0.148-0.223-0.165c-0.48-0.11-1.348-0.404-1.75-0.674c-0.504-0.336-1.227-1.342-1.554-1.802L32.42,42.392
		c-0.033-0.035-0.063-0.081-0.091-0.121c-0.405-0.581-0.907-1.024-1.075-1.151C31.152,41.069,30.659,41,30.207,41H21.9
		c-0.553,0-1-0.448-1-1s0.447-1,1-1h8.416c0.07,0,0.142-0.174,0.211-0.159c0.508,0.109,1.422,0.244,1.844,0.524
		c0.508,0.339,1.23,1.273,1.558,1.739L54.463,63.03c0.031,0.033,0.061,0.058,0.087,0.095c0.408,0.578,0.913,1.329,1.079,1.455
		C55.723,64.627,56.178,65,56.599,65h11.328l-6.216-6.356c-0.391-0.39-0.391-1.094,0-1.484c0.391-0.391,1.023-0.426,1.414-0.035
		l7.749,7.733C71.265,65.247,71.265,65.864,70.874,66.254z"/>
	<path d="M30.947,61.613c-0.097,0.105-0.184,0.197-0.261,0.309c-0.188,0.27-0.386,0.703-0.538,0.892
		C30.094,62.829,30.034,63,29.972,63H21.9c-1.654,0-3,1.346-3,3s1.346,3,3,3h8.416c0.215,0,0.429-0.163,0.632-0.208
		c1.731-0.373,2.334-0.812,2.533-0.945c0.214-0.143,0.855-0.623,2.001-2.234l7.952-8.525l-4.111-4.407L30.947,61.613z
		 M33.929,64.298c-0.327,0.466-1.05,1.446-1.558,1.785c-0.422,0.281-1.336,0.646-1.844,0.755C30.458,66.853,30.387,67,30.316,67
		H21.9c-0.553,0-1-0.448-1-1s0.447-1,1-1h8.307c0.453,0,0.948-0.388,1.078-0.457c0.138-0.107,0.641-0.797,1.044-1.378
		c0.027-0.04,0.058-0.111,0.091-0.147l7.699-8.248l1.37,1.456L33.929,64.298z"/>
	<path d="M55.93,43.704c0.093-0.101,0.179-0.212,0.254-0.318c0.194-0.275,0.399-0.347,0.553-0.537C56.772,42.838,56.81,43,56.848,43
		h6.363l-2.343,2.162c-1.169,1.17-1.168,2.994,0.003,4.165c0.567,0.566,1.319,0.826,2.119,0.826s1.552-0.337,2.121-0.905
		l7.178-7.191c0.566-0.567,0.878-1.327,0.878-2.128c0-0.802-0.313-1.559-0.878-2.124l-7.75-7.754
		c-0.566-0.567-1.32-0.882-2.121-0.882s-1.555,0.306-2.12,0.872c-1.171,1.169-1.171,3.265-0.001,4.437L62.639,37h-6.156
		c-0.221,0-0.442-0.157-0.67-0.106c-1.478,0.339-2.086,0.592-2.417,0.813c-0.211,0.141-0.842,0.514-1.989,2.106l-7.974,8.497
		l4.106,4.377L55.93,43.704z M52.956,41.033c0.327-0.46,1.051-1.43,1.554-1.767c0.402-0.269,1.27-0.312,1.75-0.422
		C56.334,38.827,56.408,39,56.482,39h10.984l-5.756-5.938c-0.391-0.391-0.391-1.115,0-1.505c0.391-0.391,1.23-0.436,1.621-0.045
		L71,38.926v0.002l0.08,0.286c0.391,0.391,0.287,1.024-0.104,1.415l-7.228,7.178c-0.195,0.195-0.477,0.293-0.732,0.293
		s-0.525-0.099-0.721-0.293c-0.391-0.391-0.397-0.841-0.007-1.232L68.039,41h-11.44c-0.421,0-0.878,0.059-0.999,0.124
		c-0.137,0.106-0.642,0.632-1.05,1.21c-0.026,0.038-0.056,0.027-0.087,0.061l-7.723,8.232l-1.369-1.476L52.956,41.033z"/>
</g>
</svg>
