<?xml version="1.0" encoding="utf-8"?>
<!-- Generator: Adobe Illustrator 16.0.0, SVG Export Plug-In . SVG Version: 6.00 Build 0)  -->
<!DOCTYPE svg PUBLIC "-//W3C//DTD SVG 1.1//EN" "http://www.w3.org/Graphics/SVG/1.1/DTD/svg11.dtd">
<svg version="1.1" id="Layer_1" xmlns="http://www.w3.org/2000/svg" xmlns:xlink="http://www.w3.org/1999/xlink" x="0px" y="0px"
	 width="100px" height="100px" viewBox="0 0 100 100" enable-background="new 0 0 100 100" xml:space="preserve">
<g>
	<path d="M32.435,33.392l18.467-5.21c1.21-0.34,3.22-0.379,4.485-0.083l19.228,4.492c1.26,0.294,1.3,0.812,0.091,1.151l-18.468,5.21
		c-1.209,0.341-3.219,0.379-4.479,0.085l-19.228-4.492C31.266,34.25,31.226,33.732,32.435,33.392z"/>
	<path d="M52.374,71.996c-0.008,0.621-0.119,1.185-0.313,1.671c-0.192,0.485-0.468,0.894-0.805,1.207s-0.735,0.531-1.176,0.636
		c-0.439,0.104-0.92,0.096-1.422-0.044L28.755,69.95c-0.468-0.129-0.914-0.373-1.32-0.703c-0.404-0.329-0.771-0.744-1.078-1.218
		c-0.307-0.473-0.557-1.004-0.729-1.565s-0.271-1.154-0.273-1.75L25.231,39.95c-0.004-0.613,0.09-1.177,0.262-1.671
		c0.171-0.495,0.42-0.921,0.73-1.258c0.31-0.337,0.68-0.584,1.092-0.722c0.413-0.137,0.868-0.164,1.346-0.06l20.348,4.433
		c0.515,0.111,1.004,0.35,1.447,0.683c0.445,0.334,0.846,0.764,1.18,1.261s0.604,1.06,0.786,1.659c0.184,0.6,0.28,1.234,0.272,1.875
		L52.374,71.996z"/>
	<path d="M81.683,64.714c-0.002,0.596-0.1,1.188-0.273,1.75c-0.173,0.562-0.422,1.093-0.729,1.565
		c-0.308,0.474-0.673,0.889-1.078,1.218c-0.405,0.33-0.853,0.574-1.319,0.703l-19.904,5.516c-0.503,0.14-0.983,0.147-1.423,0.044
		c-0.44-0.104-0.839-0.322-1.175-0.636c-0.338-0.313-0.613-0.722-0.806-1.207c-0.193-0.486-0.304-1.05-0.312-1.671L54.342,46.15
		c-0.008-0.641,0.089-1.275,0.272-1.875s0.453-1.162,0.787-1.659s0.734-0.927,1.179-1.261c0.444-0.333,0.933-0.571,1.447-0.683
		l20.348-4.433c0.478-0.104,0.933-0.077,1.346,0.06c0.412,0.138,0.782,0.385,1.093,0.722c0.31,0.337,0.559,0.763,0.73,1.258
		c0.172,0.494,0.265,1.058,0.262,1.671L81.683,64.714z"/>
</g>
</svg>
