<?xml version="1.0" encoding="utf-8"?>
<!-- Generator: Adobe Illustrator 16.0.0, SVG Export Plug-In . SVG Version: 6.00 Build 0)  -->
<!DOCTYPE svg PUBLIC "-//W3C//DTD SVG 1.1//EN" "http://www.w3.org/Graphics/SVG/1.1/DTD/svg11.dtd">
<svg version="1.1" id="Layer_1" xmlns="http://www.w3.org/2000/svg" xmlns:xlink="http://www.w3.org/1999/xlink" x="0px" y="0px"
	 width="100px" height="100px" viewBox="0 0 100 100" enable-background="new 0 0 100 100" xml:space="preserve">
<g>
	<path d="M36.386,31.341c0-1.012,0.822-1.835,1.834-1.835H58.8c1.012,0,1.836,0.824,1.836,1.835v6.165h-24.25V31.341z"/>
	<path d="M60.636,73.67c0,1.013-0.824,1.835-1.836,1.835H38.22c-1.012,0-1.834-0.823-1.834-1.835v-3.915V58.93
		c0-1.011,0.822-1.834,1.834-1.834H58.8c1.012,0,1.836,0.823,1.836,1.834v10.825V73.67z"/>
	<path d="M71.05,39.505h-8.414h-28.25H26.47c-1.012,0-1.834,0.824-1.834,1.835v24.58c0,1.012,0.822,1.834,1.834,1.834h7.916V58.93
		c0-2.115,1.721-3.834,3.834-3.834H58.8c2.115,0,3.836,1.72,3.836,3.834v8.825h8.414c1.012,0,1.836-0.823,1.836-1.834v-24.58
		C72.886,40.329,72.062,39.505,71.05,39.505z M32.718,49.922c-1.012,0-1.834-0.821-1.834-1.833s0.822-1.833,1.834-1.833
		c1.014,0,1.834,0.821,1.834,1.833S33.731,49.922,32.718,49.922z M38.884,49.922c-1.012,0-1.832-0.821-1.832-1.833
		s0.82-1.833,1.832-1.833c1.014,0,1.834,0.821,1.834,1.833S39.897,49.922,38.884,49.922z"/>
</g>
</svg>
