<?xml version="1.0" encoding="utf-8"?>
<!-- Generator: Adobe Illustrator 16.0.0, SVG Export Plug-In . SVG Version: 6.00 Build 0)  -->
<!DOCTYPE svg PUBLIC "-//W3C//DTD SVG 1.1//EN" "http://www.w3.org/Graphics/SVG/1.1/DTD/svg11.dtd">
<svg version="1.1" id="Layer_1" xmlns="http://www.w3.org/2000/svg" xmlns:xlink="http://www.w3.org/1999/xlink" x="0px" y="0px"
	 width="100px" height="100px" viewBox="0 0 100 100" enable-background="new 0 0 100 100" xml:space="preserve">
<path d="M60.291,32.037c-0.168,0-0.34,0.006-0.512,0.017c-0.566,0.044-1.169,0.065-1.777,0.065c-3.604,0-7.213-0.779-10.702-1.535
	c-3.933-0.85-7.981-1.731-11.918-1.429c-2.252,0.142-4.116,2.559-4.612,4.885c-0.077,0.142-0.133,0.297-0.133,0.471v0.696v13.742
	v22.687c0,0.552,0.447,1,1,1c0.552,0,1-0.448,1-1V51.946c0.726,0.28,1.605,0.403,2.592,0.327c0.68-0.061,1.402-0.093,2.137-0.093
	c3.482,0,6.971,0.706,10.344,1.389c3.277,0.663,6.666,1.349,9.948,1.349c0.675,0,1.337-0.029,1.97-0.086
	c2.643-0.205,4.76-3.461,4.76-6.02V35.344C64.387,32.359,61.521,32.037,60.291,32.037z"/>
</svg>
