<?xml version="1.0" encoding="utf-8"?>
<!-- Generator: Adobe Illustrator 16.0.0, SVG Export Plug-In . SVG Version: 6.00 Build 0)  -->
<!DOCTYPE svg PUBLIC "-//W3C//DTD SVG 1.1//EN" "http://www.w3.org/Graphics/SVG/1.1/DTD/svg11.dtd">
<svg version="1.1" id="Layer_1" xmlns="http://www.w3.org/2000/svg" xmlns:xlink="http://www.w3.org/1999/xlink" x="0px" y="0px"
	 width="100px" height="100px" viewBox="0 0 100 100" enable-background="new 0 0 100 100" xml:space="preserve">
<g>
	<g>
		<path d="M70.988,76.498h-42.66c-3.678,0-6.67-2.992-6.67-6.67V41.834c0-3.678,2.992-6.67,6.67-6.67h42.66
			c3.678,0,6.67,2.992,6.67,6.67v27.994C77.658,73.506,74.666,76.498,70.988,76.498z"/>
	</g>
	<g>
		<path d="M70.533,32.331h-41.75c-0.553,0-1-0.448-1-1s0.447-1,1-1h41.75c0.553,0,1,0.448,1,1S71.086,32.331,70.533,32.331z"/>
	</g>
	<g>
		<path d="M66.658,28.331h-34c-0.553,0-1-0.448-1-1s0.447-1,1-1h34c0.553,0,1,0.448,1,1S67.211,28.331,66.658,28.331z"/>
	</g>
</g>
</svg>
