<?xml version="1.0" encoding="utf-8"?>
<!-- Generator: Adobe Illustrator 16.0.0, SVG Export Plug-In . SVG Version: 6.00 Build 0)  -->
<!DOCTYPE svg PUBLIC "-//W3C//DTD SVG 1.1//EN" "http://www.w3.org/Graphics/SVG/1.1/DTD/svg11.dtd">
<svg version="1.1" id="Layer_1" xmlns="http://www.w3.org/2000/svg" xmlns:xlink="http://www.w3.org/1999/xlink" x="0px" y="0px"
	 width="100px" height="100px" viewBox="0 0 100 100" enable-background="new 0 0 100 100" xml:space="preserve">
<g>
	<path d="M48.865,49.463h-4v5.197h4.428c0.242,0,0.478,0.09,0.66,0.25l3.246,2.857V46.684l-3.766,2.602
		C49.267,49.4,49.068,49.463,48.865,49.463z"/>
	<path d="M50.626,26.379c-14.337,0-26,11.664-26,26s11.663,26,26,26s26-11.664,26-26S64.963,26.379,50.626,26.379z M64.412,39.639
		c7.025,7.025,7.025,18.455,0,25.48c-0.195,0.195-0.451,0.293-0.707,0.293s-0.512-0.098-0.707-0.293
		c-0.391-0.391-0.391-1.023,0-1.414c6.246-6.244,6.246-16.406,0-22.652c-0.391-0.391-0.391-1.023,0-1.414
		S64.021,39.248,64.412,39.639z M58.566,45.484c-0.391-0.391-0.391-1.023,0-1.414s1.023-0.391,1.414,0
		c4.582,4.582,4.582,12.035,0,16.617c-0.195,0.195-0.451,0.293-0.707,0.293s-0.512-0.098-0.707-0.293
		c-0.391-0.391-0.391-1.023,0-1.414C62.368,55.473,62.368,49.287,58.566,45.484z M64.488,71.457c-4.079,3-8.92,4.584-14,4.584
		c-13.047,0-23.662-10.615-23.662-23.662s10.615-23.662,23.662-23.662c4.478,0,8.836,1.256,12.604,3.633
		c0.468,0.295,0.607,0.912,0.312,1.379c-0.294,0.467-0.913,0.607-1.379,0.312c-3.449-2.174-7.438-3.324-11.538-3.324
		c-11.943,0-21.662,9.719-21.662,21.662c0,11.945,9.719,21.662,21.662,21.662c4.65,0,9.082-1.451,12.816-4.195
		c0.444-0.328,1.07-0.23,1.397,0.213C65.029,70.504,64.934,71.131,64.488,71.457z M55.199,44.777V59.98
		c0,0.393-0.23,0.75-0.589,0.912c-0.132,0.059-0.272,0.088-0.411,0.088c-0.239,0-0.475-0.086-0.661-0.25l-4.623-4.07h-5.05
		c-0.553,0-1-0.447-1-1v-7.197c0-0.553,0.447-1,1-1h4.688l5.078-3.508c0.305-0.211,0.704-0.234,1.032-0.062
		C54.992,44.064,55.199,44.406,55.199,44.777z M68.082,68.203c-0.197,0.219-0.47,0.33-0.744,0.33c-0.238,0-0.477-0.084-0.668-0.256
		c-0.41-0.369-0.443-1.002-0.074-1.412c3.582-3.98,5.556-9.125,5.556-14.486c0-5.229-1.889-10.279-5.318-14.217
		c-0.362-0.416-0.319-1.049,0.098-1.412c0.417-0.361,1.048-0.318,1.411,0.098c3.746,4.303,5.81,9.818,5.81,15.531
		C74.151,58.234,71.996,63.854,68.082,68.203z"/>
</g>
</svg>
