<?xml version="1.0" encoding="utf-8"?>
<!-- Generator: Adobe Illustrator 16.0.0, SVG Export Plug-In . SVG Version: 6.00 Build 0)  -->
<!DOCTYPE svg PUBLIC "-//W3C//DTD SVG 1.1//EN" "http://www.w3.org/Graphics/SVG/1.1/DTD/svg11.dtd">
<svg version="1.1" id="Layer_1" xmlns="http://www.w3.org/2000/svg" xmlns:xlink="http://www.w3.org/1999/xlink" x="0px" y="0px"
	 width="100px" height="100px" viewBox="0 0 100 100" enable-background="new 0 0 100 100" xml:space="preserve">
<g>
	<path d="M50,29.967c-12.359,0-22.412,10.055-22.412,22.412c0,12.358,10.053,22.412,22.412,22.412
		c12.357,0,22.412-10.054,22.412-22.412C72.412,40.021,62.357,29.967,50,29.967z M54.631,59.841c0,0.394-0.23,0.749-0.59,0.911
		c-0.131,0.06-0.271,0.089-0.41,0.089c-0.24,0-0.475-0.085-0.662-0.249l-4.623-4.071h-5.049c-0.553,0-1-0.448-1-1v-7.198
		c0-0.552,0.447-1,1-1h4.688l5.078-3.508c0.305-0.211,0.703-0.234,1.031-0.062c0.33,0.173,0.537,0.514,0.537,0.886V59.841z"/>
	<path d="M48.297,49.322h-4v5.198h4.428c0.242,0,0.477,0.089,0.66,0.249l3.246,2.858V46.544l-3.766,2.602
		C48.697,49.261,48.5,49.322,48.297,49.322z"/>
	<path d="M50,26.379c-14.338,0-26,11.664-26,26c0,14.337,11.662,26,26,26c14.336,0,26-11.663,26-26
		C76,38.043,64.336,26.379,50,26.379z M50,76.791c-13.461,0-24.412-10.951-24.412-24.412S36.539,27.967,50,27.967
		s24.412,10.951,24.412,24.412S63.461,76.791,50,76.791z"/>
</g>
</svg>
