<?xml version="1.0" encoding="utf-8"?>
<!-- Generator: Adobe Illustrator 16.0.0, SVG Export Plug-In . SVG Version: 6.00 Build 0)  -->
<!DOCTYPE svg PUBLIC "-//W3C//DTD SVG 1.1//EN" "http://www.w3.org/Graphics/SVG/1.1/DTD/svg11.dtd">
<svg version="1.1" id="Layer_1" xmlns="http://www.w3.org/2000/svg" xmlns:xlink="http://www.w3.org/1999/xlink" x="0px" y="0px"
	 width="100px" height="100px" viewBox="0 0 100 100" enable-background="new 0 0 100 100" xml:space="preserve">
<path d="M66.516,27h-2.875c-0.292,0-0.579,0-0.862,0H37.166c-0.282,0-0.569,0-0.862,0h-2.875c-3.688,0-6.688,2.813-6.688,6.5
	s3,6.5,6.688,6.5H33v1.161v2.82l0.391,0.136C33.618,52.608,41,59.492,49,60.004V76h-8v2h18v-2h-8V60.004
	c8-0.509,15.036-7.32,15.333-15.747l-0.118,0.132L66,44.355v-2.821V40h0.516c3.688,0,6.688-2.813,6.688-6.5S70.203,27,66.516,27z
	 M33,28.804V38h0.429c-2.584,0-4.688-1.915-4.688-4.5c0-2.584,2.104-4.5,4.688-4.5H33V28.804z M66.46,26.805h-0.111v-0.001
	L66.46,26.805L66.46,26.805z M66.516,38H66v-9.196V29h0.516c2.585,0,4.688,1.916,4.688,4.5C71.203,36.085,69.101,38,66.516,38z"/>
</svg>
