<?xml version="1.0" encoding="utf-8"?>
<!-- Generator: Adobe Illustrator 16.0.0, SVG Export Plug-In . SVG Version: 6.00 Build 0)  -->
<!DOCTYPE svg PUBLIC "-//W3C//DTD SVG 1.1//EN" "http://www.w3.org/Graphics/SVG/1.1/DTD/svg11.dtd">
<svg version="1.1" id="Layer_1" xmlns="http://www.w3.org/2000/svg" xmlns:xlink="http://www.w3.org/1999/xlink" x="0px" y="0px"
	 width="100px" height="100px" viewBox="0 0 100 100" enable-background="new 0 0 100 100" xml:space="preserve">
<g>
	<path d="M53.047,27.101c10.855,0,20.035,4.482,20.346,9.847c-0.311,5.365-9.49,9.848-20.346,9.848s-20.035-4.482-20.346-9.848
		C33.012,31.583,42.191,27.101,53.047,27.101z"/>
	<path d="M73.422,66.253c0,5.488-9.33,10.125-20.375,10.125s-20.375-4.637-20.375-10.125v-4.841
		c3.488,4.188,11.203,7.036,20.375,7.036s16.887-2.849,20.375-7.036V66.253z"/>
	<path d="M73.422,56.324c0,5.488-9.33,10.125-20.375,10.125s-20.375-4.637-20.375-10.125v-5.043
		c3.488,4.187,11.203,7.035,20.375,7.035s16.887-2.849,20.375-7.035V56.324z"/>
	<path d="M73.422,46.191c0,5.488-9.33,10.125-20.375,10.125s-20.375-4.637-20.375-10.125V41.76
		c3.488,4.188,11.203,7.035,20.375,7.035s16.887-2.848,20.375-7.035V46.191z"/>
</g>
</svg>
