<?xml version="1.0" encoding="utf-8"?>
<!-- Generator: Adobe Illustrator 16.0.0, SVG Export Plug-In . SVG Version: 6.00 Build 0)  -->
<!DOCTYPE svg PUBLIC "-//W3C//DTD SVG 1.1//EN" "http://www.w3.org/Graphics/SVG/1.1/DTD/svg11.dtd">
<svg version="1.1" id="Layer_1" xmlns="http://www.w3.org/2000/svg" xmlns:xlink="http://www.w3.org/1999/xlink" x="0px" y="0px"
	 width="100px" height="100px" viewBox="0 0 100 100" enable-background="new 0 0 100 100" xml:space="preserve">
<g>
	<path d="M73.954,34.003H61.071v-2.172c0-2.114-1.721-3.835-3.836-3.835h-5.83c-2.115,0-3.834,1.721-3.834,3.835v2.172H34.687
		c-2.113,0-3.834,1.72-3.834,3.835v14.165h46.936V37.838C77.788,35.723,76.067,34.003,73.954,34.003z M59.071,34.003h-9.5v-2.172
		c0-1.012,0.822-1.835,1.834-1.835h5.83c1.012,0,1.836,0.823,1.836,1.835V34.003z"/>
	<path d="M30.853,68.418c0,2.115,1.721,3.835,3.834,3.835h39.268c2.113,0,3.834-1.72,3.834-3.835V54.003H30.853V68.418z"/>
</g>
</svg>
