<?xml version="1.0" encoding="utf-8"?>
<!-- Generator: Adobe Illustrator 16.0.0, SVG Export Plug-In . SVG Version: 6.00 Build 0)  -->
<!DOCTYPE svg PUBLIC "-//W3C//DTD SVG 1.1//EN" "http://www.w3.org/Graphics/SVG/1.1/DTD/svg11.dtd">
<svg version="1.1" id="Layer_1" xmlns="http://www.w3.org/2000/svg" xmlns:xlink="http://www.w3.org/1999/xlink" x="0px" y="0px"
	 width="100px" height="100px" viewBox="0 0 100 100" enable-background="new 0 0 100 100" xml:space="preserve">
<g>
	<path d="M68.667,32.156h-8.834v-0.465c0-3.678-2.992-6.67-6.67-6.67h-6.327c-3.678,0-6.669,2.992-6.669,6.67v0.465h-8.5
		c-0.553,0-1,0.447-1,1V70.12c0,3.678,2.991,6.669,6.669,6.669h25.661c3.678,0,6.67-2.991,6.67-6.669V33.156
		C69.667,32.603,69.218,32.156,68.667,32.156z M42.167,31.691c0-2.574,2.094-4.67,4.669-4.67h6.327c2.575,0,4.67,2.096,4.67,4.67
		v0.465H42.167V31.691z M44.083,70.206c0,0.552-0.447,1-1,1s-1-0.448-1-1v-30.25c0-0.552,0.447-1,1-1s1,0.448,1,1V70.206z
		 M51.167,70.206c0,0.552-0.448,1-1,1c-0.553,0-1-0.448-1-1v-30.25c0-0.552,0.447-1,1-1c0.552,0,1,0.448,1,1V70.206z M58.833,70.206
		c0,0.552-0.447,1-1,1s-1-0.448-1-1v-30.25c0-0.552,0.447-1,1-1s1,0.448,1,1V70.206z"/>
</g>
</svg>
