<?xml version="1.0" encoding="utf-8"?>
<!-- Generator: Adobe Illustrator 16.0.0, SVG Export Plug-In . SVG Version: 6.00 Build 0)  -->
<!DOCTYPE svg PUBLIC "-//W3C//DTD SVG 1.1//EN" "http://www.w3.org/Graphics/SVG/1.1/DTD/svg11.dtd">
<svg version="1.1" id="Layer_1" xmlns="http://www.w3.org/2000/svg" xmlns:xlink="http://www.w3.org/1999/xlink" x="0px" y="0px"
	 width="100px" height="100px" viewBox="0 0 100 100" enable-background="new 0 0 100 100" xml:space="preserve">
<g>
	<path d="M39.975,35.407h26.277l5.954,6.427c-0.063-0.002-0.124-0.01-0.187-0.01H60.022v2.998c0,3.404-3.574,3.669-4.669,3.669
		h-3.995c-1.095,0-4.669-0.265-4.669-3.669v-2.998H34.692c-0.125,0-0.247,0.012-0.37,0.018L39.975,35.407z"/>
	<path d="M76.689,61.654c0,2.575-2.095,4.67-4.669,4.67H34.692c-2.575,0-4.669-2.095-4.669-4.67V48.492
		c0-2.574,2.095-4.668,4.669-4.668h9.997v0.998c0,3.443,2.618,5.669,6.669,5.669h3.995c4.052,0,6.669-2.226,6.669-5.669v-0.998
		h9.997c1.287,0,2.454,0.523,3.3,1.368l0.001,0.001c0.845,0.846,1.368,2.013,1.368,3.299V61.654z"/>
</g>
</svg>
