<?xml version="1.0" encoding="utf-8"?>
<!-- Generator: Adobe Illustrator 16.0.0, SVG Export Plug-In . SVG Version: 6.00 Build 0)  -->
<!DOCTYPE svg PUBLIC "-//W3C//DTD SVG 1.1//EN" "http://www.w3.org/Graphics/SVG/1.1/DTD/svg11.dtd">
<svg version="1.1" id="Layer_1" xmlns="http://www.w3.org/2000/svg" xmlns:xlink="http://www.w3.org/1999/xlink" x="0px" y="0px"
	 width="100px" height="100px" viewBox="0 0 100 100" enable-background="new 0 0 100 100" xml:space="preserve">
<g>
	<path d="M72.088,31.822l-7.305-7.304c-1.534-1.535-3.691-2.416-5.919-2.416s-4.384,0.881-5.919,2.415l-11.43,11.43
		c-0.596,0.596-1.01,1.298-1.277,2.043c-0.904,0.41-1.74,0.976-2.465,1.699L21.158,56.305c-3.263,3.263-3.264,8.573,0,11.837
		l7.305,7.304c1.58,1.582,3.682,2.452,5.919,2.452s4.339-0.87,5.919-2.451l11.43-11.43c0.596-0.596,1.01-1.298,1.276-2.042
		c0.905-0.41,1.742-0.977,2.466-1.7l16.615-16.615C75.35,40.397,75.35,35.087,72.088,31.822z M48.523,60.81l-11.43,11.43
		c-0.725,0.725-1.688,1.123-2.712,1.123s-1.987-0.398-2.712-1.123l-7.305-7.305c-1.495-1.496-1.494-3.928,0-5.423L40.98,42.896
		c1.496-1.495,3.93-1.493,5.423,0l5.126,5.126c0.391,0.391,0.391,1.023,0,1.414s-1.023,0.391-1.414,0l-5.126-5.126
		c-0.715-0.715-1.879-0.716-2.595,0L25.779,60.926c-0.715,0.716-0.715,1.88,0,2.595l7.305,7.305c0.693,0.693,1.902,0.693,2.596,0
		l11.43-11.43c0.391-0.391,1.023-0.391,1.414,0S48.914,60.419,48.523,60.81z M51.52,41.599l7.345-7.344l3.485,3.486l-7.371,7.371
		c-0.084-0.098-0.15-0.205-0.242-0.297L51.52,41.599z M38.51,55.148l3.217,3.216l-7.345,7.345l-3.485-3.485l7.371-7.372
		C38.352,54.948,38.418,55.056,38.51,55.148z M68.881,40.452L52.266,57.067c-0.748,0.748-1.729,1.121-2.711,1.121
		c-0.982,0-1.965-0.373-2.712-1.121l-5.126-5.126c-0.391-0.391-0.391-1.023,0-1.414s1.023-0.391,1.414,0l5.126,5.126
		c0.715,0.715,1.879,0.715,2.595,0l16.615-16.615c0.715-0.715,0.715-1.879,0-2.595l-7.306-7.305c-0.693-0.693-1.901-0.693-2.595,0
		l-11.43,11.43c-0.391,0.391-1.023,0.391-1.414,0s-0.391-1.023,0-1.414l11.43-11.43c1.449-1.449,3.975-1.448,5.423,0l7.306,7.305
		C70.375,36.525,70.375,38.958,68.881,40.452z"/>
</g>
</svg>
