<?xml version="1.0" encoding="utf-8"?>
<!-- Generator: Adobe Illustrator 16.0.0, SVG Export Plug-In . SVG Version: 6.00 Build 0)  -->
<!DOCTYPE svg PUBLIC "-//W3C//DTD SVG 1.1//EN" "http://www.w3.org/Graphics/SVG/1.1/DTD/svg11.dtd">
<svg version="1.1" id="Layer_1" xmlns="http://www.w3.org/2000/svg" xmlns:xlink="http://www.w3.org/1999/xlink" x="0px" y="0px"
	 width="100px" height="100px" viewBox="0 0 100 100" enable-background="new 0 0 100 100" xml:space="preserve">
<g>
	<path d="M69,46.742c-1.654,0-3,1.346-3,3v11.192C66,62.406,64.13,64,62.657,64H31.32l5.06-5.258
		c0.566-0.566,0.879-1.412,0.879-2.213s-0.313-1.608-0.879-2.174c-0.566-0.567-1.32-0.905-2.121-0.905s-1.555,0.298-2.121,0.865
		L21.969,64.478c-0.282,0.278-0.505,0.605-0.66,0.98c-0.308,0.741-0.308,1.554,0,2.298c0.154,0.371,0.375,0.7,0.649,0.971
		l9.971,9.971c0.566,0.567,1.32,0.878,2.121,0.878s1.555-0.319,2.121-0.886c1.17-1.169,1.17-2.867,0-4.037L31.32,70h31.337
		C67.438,70,72,65.714,72,60.934V49.742C72,48.087,70.654,46.742,69,46.742z M70,60.934C70,64.612,66.335,68,62.657,68H26.491
		l8.266,8.067c0.391,0.391,0.391,0.924,0,1.315c-0.195,0.195-0.451,0.244-0.707,0.244s-0.512-0.123-0.707-0.318l-9.971-9.984
		c-0.094-0.093-0.166-0.209-0.217-0.331c-0.102-0.245-0.102-0.523,0-0.768c0.051-0.122,0.123-0.234,0.217-0.327l10.18-10.181
		c0.391-0.391,1.023-0.391,1.414,0s0.391,1.221,0,1.612L26.491,66h36.166C65.233,66,68,63.509,68,60.934V49.742c0-0.552,0.447-1,1-1
		s1,0.448,1,1V60.934z"/>
	<path d="M24,58.242c1.654,0,3-1.346,3-3V44.036C27,42.564,28.274,42,29.747,42h32.248l-4.956,4.64
		c-1.169,1.17-1.168,2.862,0.003,4.033c0.567,0.566,1.319,0.825,2.119,0.825s1.552-0.337,2.121-0.906l10.18-10.194
		c0.566-0.566,0.879-1.324,0.879-2.125s-0.313-1.555-0.879-2.122l-9.971-9.967c-0.566-0.567-1.32-0.867-2.121-0.867
		s-1.555,0.337-2.121,0.904c-1.17,1.169-1.17,3.337,0,4.506L62.204,36H29.747C24.967,36,21,39.255,21,44.036v11.206
		C21,56.896,22.346,58.242,24,58.242z M23,44.036C23,40.358,26.069,38,29.747,38h37.285l-8.369-8.687
		c-0.391-0.391-0.391-1.182,0-1.572s1.023-0.47,1.414-0.079l9.971,9.933c0.391,0.391,0.391,1.003,0,1.394l-10.18,10.172
		c-0.195,0.195-0.451,0.288-0.707,0.288s-0.512-0.101-0.707-0.296c-0.391-0.391-0.391-0.708,0-1.099L66.823,40H29.747
		C27.173,40,25,41.461,25,44.036v11.206c0,0.553-0.447,1-1,1s-1-0.447-1-1V44.036z"/>
</g>
</svg>
