<?xml version="1.0" encoding="utf-8"?>
<!-- Generator: Adobe Illustrator 16.0.0, SVG Export Plug-In . SVG Version: 6.00 Build 0)  -->
<!DOCTYPE svg PUBLIC "-//W3C//DTD SVG 1.1//EN" "http://www.w3.org/Graphics/SVG/1.1/DTD/svg11.dtd">
<svg version="1.1" id="Layer_1" xmlns="http://www.w3.org/2000/svg" xmlns:xlink="http://www.w3.org/1999/xlink" x="0px" y="0px"
	 width="100px" height="100px" viewBox="0 0 100 100" enable-background="new 0 0 100 100" xml:space="preserve">
<path d="M68.794,34.295c-7.721,0-14.326,4.863-16.916,11.687c-2.59-6.823-9.195-11.687-16.916-11.687
	c-9.973,0-18.085,8.112-18.085,18.085c0,9.971,8.112,18.084,18.085,18.084h34.833c0.289,0,0.575-0.035,0.865-0.105
	c9.118-0.943,16.218-8.785,16.218-17.979C86.878,42.407,78.766,34.295,68.794,34.295z M54.007,62.795h-4.26
	c0.885-1.25,1.598-2.588,2.131-3.991C52.411,60.208,53.124,61.546,54.007,62.795z M70.13,67.562
	c-0.105,0.038-0.217,0.068-0.335,0.068H34.962c-8.409,0-15.25-6.842-15.25-15.25c0-8.409,6.841-15.25,15.25-15.25
	c8.408,0,15.25,6.841,15.25,15.25c0,3.426-1.11,6.662-3.21,9.359c-0.34,0.437-0.968,0.514-1.403,0.175s-0.514-0.968-0.175-1.403
	c1.823-2.342,2.788-5.154,2.788-8.131c0-7.307-5.944-13.25-13.25-13.25c-7.307,0-13.25,5.943-13.25,13.25
	c0,7.306,5.943,13.25,13.25,13.25h33.832c7.307,0,13.25-5.944,13.25-13.25c0-7.307-5.943-13.25-13.25-13.25
	s-13.25,5.943-13.25,13.25c0,2.977,0.964,5.789,2.787,8.131c0.34,0.436,0.262,1.064-0.174,1.403
	c-0.437,0.339-1.064,0.262-1.404-0.175c-2.1-2.697-3.209-5.934-3.209-9.359c0-8.409,6.842-15.25,15.25-15.25
	s15.25,6.841,15.25,15.25C84.044,60.337,77.914,66.882,70.13,67.562z M42.407,61.599c0.053,0.422,0.172,0.824,0.352,1.196h-7.797
	c-5.744,0-10.416-4.673-10.416-10.415c0-5.744,4.672-10.416,10.416-10.416c5.742,0,10.415,4.672,10.415,10.416
	c0,2.34-0.757,4.55-2.188,6.389C42.558,59.577,42.28,60.582,42.407,61.599z M60.568,58.77c-1.433-1.84-2.19-4.05-2.19-6.39
	c0-5.744,4.673-10.416,10.416-10.416S79.21,46.636,79.21,52.38c0,5.742-4.673,10.415-10.416,10.415h-7.797
	c0.18-0.372,0.299-0.774,0.351-1.196C61.475,60.582,61.197,59.577,60.568,58.77z"/>
</svg>
