<?xml version="1.0" encoding="utf-8"?>
<!-- Generator: Adobe Illustrator 16.0.0, SVG Export Plug-In . SVG Version: 6.00 Build 0)  -->
<!DOCTYPE svg PUBLIC "-//W3C//DTD SVG 1.1//EN" "http://www.w3.org/Graphics/SVG/1.1/DTD/svg11.dtd">
<svg version="1.1" id="Layer_1" xmlns="http://www.w3.org/2000/svg" xmlns:xlink="http://www.w3.org/1999/xlink" x="0px" y="0px"
	 width="100px" height="100px" viewBox="0 0 100 100" enable-background="new 0 0 100 100" xml:space="preserve">
<g>
	<path d="M64.051,26.006h5.164c1.012,0,1.834,0.823,1.834,1.835v4.94h-8.833v-4.94C62.216,26.829,63.039,26.006,64.051,26.006z"/>
	<path d="M31.219,26.006h5.164c1.012,0,1.834,0.823,1.834,1.835v4.748h-8.833v-4.748C29.384,26.829,30.207,26.006,31.219,26.006z"/>
	<path d="M70.525,59.74c-2.17,9.533-10.521,16.191-20.308,16.191c-9.786,0-18.137-6.657-20.307-16.19
		c-0.349-1.531-0.526-3.094-0.526-4.643v-18.05h8.833v18.05c0,6.616,5.383,12,12,12c6.616,0,11.999-5.384,11.999-12V37.241h8.833
		v17.895C71.046,56.672,70.87,58.222,70.525,59.74z"/>
</g>
</svg>
