<?xml version="1.0" encoding="utf-8"?>
<!-- Generator: Adobe Illustrator 16.0.0, SVG Export Plug-In . SVG Version: 6.00 Build 0)  -->
<!DOCTYPE svg PUBLIC "-//W3C//DTD SVG 1.1//EN" "http://www.w3.org/Graphics/SVG/1.1/DTD/svg11.dtd">
<svg version="1.1" id="Layer_1" xmlns="http://www.w3.org/2000/svg" xmlns:xlink="http://www.w3.org/1999/xlink" x="0px" y="0px"
	 width="100px" height="100px" viewBox="0 0 100 100" enable-background="new 0 0 100 100" xml:space="preserve">
<g>
	<path d="M28.387,29.615h32.41c2.575,0,4.67,2.095,4.67,4.669v3.831h-37.5c-2.301,0-4.15-1.798-4.231-4.1
		C23.876,31.545,25.91,29.615,28.387,29.615z"/>
	<g>
		<path d="M72.047,40.115h-4.91c-0.188,0-0.372,0.015-0.553,0.036c-0.039,0.004-0.078,0.007-0.117,0.007
			c-0.063,0-0.121-0.022-0.183-0.033c-0.035-0.007-0.073,0.001-0.107-0.01h-38.21c-0.209,0-0.416-0.011-0.62-0.03
			c-0.067-0.007-0.132-0.02-0.199-0.028c-0.136-0.018-0.271-0.034-0.403-0.06c-0.078-0.015-0.154-0.038-0.23-0.056
			c-0.118-0.028-0.236-0.054-0.351-0.087c-0.082-0.024-0.161-0.056-0.242-0.083c-0.105-0.037-0.213-0.071-0.316-0.113
			c-0.081-0.033-0.158-0.071-0.237-0.107c-0.1-0.045-0.198-0.088-0.295-0.139c-0.078-0.041-0.153-0.087-0.23-0.131
			c-0.091-0.053-0.184-0.104-0.271-0.161c-0.076-0.049-0.148-0.103-0.222-0.155c-0.084-0.06-0.169-0.118-0.249-0.183
			c-0.071-0.056-0.139-0.115-0.207-0.175c-0.059-0.05-0.119-0.097-0.176-0.148v30.738c0,2.575,2.095,4.669,4.67,4.669h43.66
			c2.575,0,4.67-2.094,4.67-4.669V44.784C76.717,42.209,74.622,40.115,72.047,40.115z M63.467,62.732
			c-2.824,0-5.122-2.297-5.122-5.122s2.298-5.122,5.122-5.122s5.122,2.298,5.122,5.122S66.291,62.732,63.467,62.732z"/>
		<path d="M63.467,54.489c-1.722,0-3.122,1.4-3.122,3.122c0,1.721,1.4,3.122,3.122,3.122s3.122-1.4,3.122-3.122
			C66.589,55.889,65.188,54.489,63.467,54.489z"/>
	</g>
</g>
</svg>
