<?xml version="1.0" encoding="utf-8"?>
<!-- Generator: Adobe Illustrator 16.0.0, SVG Export Plug-In . SVG Version: 6.00 Build 0)  -->
<!DOCTYPE svg PUBLIC "-//W3C//DTD SVG 1.1//EN" "http://www.w3.org/Graphics/SVG/1.1/DTD/svg11.dtd">
<svg version="1.1" id="Layer_1" xmlns="http://www.w3.org/2000/svg" xmlns:xlink="http://www.w3.org/1999/xlink" x="0px" y="0px"
	 width="100px" height="100px" viewBox="0 0 100 100" enable-background="new 0 0 100 100" xml:space="preserve">
<g>
	<path d="M59.968,58.763c-0.104-0.104-0.216-0.194-0.394-0.334c-0.398-0.319-0.973-0.287-1.332,0.073l-1.389,1.389l-6.594-6.594
		l9.805-9.805c1.227,0.454,2.515,0.684,3.837,0.684c2.946,0,5.716-1.146,7.798-3.229c3.241-3.242,4.135-8.228,2.225-12.405
		c-0.137-0.298-0.41-0.51-0.732-0.568c-0.323-0.058-0.652,0.045-0.885,0.277l-3.998,3.999l-3.283-0.252l-0.253-3.283l3.999-3.999
		c0.232-0.231,0.335-0.563,0.277-0.885c-0.059-0.322-0.271-0.596-0.568-0.731c-1.434-0.656-3.027-1.003-4.609-1.003
		c-2.945,0-5.713,1.146-7.795,3.228c-3.084,3.084-4.049,7.584-2.545,11.635l-9.805,9.805l-11.29-11.29l0.708-0.707
		c0.188-0.188,0.293-0.442,0.293-0.707s-0.105-0.52-0.293-0.707l-7.529-7.528c-0.375-0.375-1.039-0.375-1.414,0l-2.828,2.828
		c-0.391,0.391-0.391,1.023,0,1.414l7.528,7.528c0.195,0.195,0.451,0.293,0.707,0.293s0.512-0.098,0.707-0.293l0.707-0.707
		l11.29,11.29l-8.333,8.332c-1.228-0.453-2.515-0.684-3.837-0.684c-2.945,0-5.715,1.146-7.797,3.229
		c-3.242,3.242-4.137,8.228-2.225,12.405c0.136,0.298,0.409,0.511,0.731,0.568c0.321,0.057,0.653-0.045,0.884-0.277l4-4l3.283,0.253
		l0.252,3.283l-3.999,3.999c-0.231,0.231-0.335,0.563-0.277,0.884c0.058,0.322,0.271,0.597,0.568,0.732
		c1.434,0.656,3.028,1.003,4.61,1.003l0,0c2.945,0,5.713-1.146,7.795-3.228c3.084-3.085,4.049-7.585,2.545-11.635l8.332-8.332
		l6.594,6.594l-1.389,1.389c-0.357,0.356-0.34,0.99-0.03,1.388c0.091,0.117,0.185,0.232,0.29,0.338l11.307,11.307
		c0.84,0.841,1.969,1.322,3.098,1.322c0.998,0,1.922-0.372,2.6-1.05l0.232-0.233c0.742-0.741,1.111-1.756,1.041-2.855
		c-0.066-1.052-0.533-2.06-1.313-2.84L59.968,58.763z"/>
</g>
</svg>
