<?xml version="1.0" encoding="utf-8"?>
<!-- Generator: Adobe Illustrator 15.0.0, SVG Export Plug-In . SVG Version: 6.00 Build 0)  -->
<!DOCTYPE svg PUBLIC "-//W3C//DTD SVG 1.1//EN" "http://www.w3.org/Graphics/SVG/1.1/DTD/svg11.dtd">
<svg version="1.1" id="Capa_1" xmlns="http://www.w3.org/2000/svg" xmlns:xlink="http://www.w3.org/1999/xlink" x="0px" y="0px"
	 width="790.004px" height="800px" viewBox="0 0 790.004 800" enable-background="new 0 0 790.004 800" xml:space="preserve">
<g>
	<path fill="#222221" d="M727.672,400.001l-175.913-70.583L600.81,214.63l-114.787,49.051L415.44,87.769l-70.583,175.912
		L230.068,214.63l49.051,114.788l-175.913,70.583l175.913,70.583l-49.051,114.789l114.789-49.052l70.583,175.912l70.583-175.912
		l114.787,49.052l-49.051-114.789L727.672,400.001z M482.99,467.553l-67.55,168.355l-67.553-168.355l-168.355-67.551l168.355-67.551
		l67.553-168.356l67.55,168.356l168.357,67.551L482.99,467.553z"/>
	<g>
		<path d="M387.261,68.217V-0.166l46.695,48.851V4.189h9.663v67.927l-46.695-48.727v44.828H387.261z"/>
	</g>
	<g>
		<path d="M434.309,744.472l-7.84,4.645c-1.464-2.543-2.859-4.201-4.187-4.976c-1.383-0.886-3.166-1.327-5.35-1.327
			c-2.682,0-4.909,0.761-6.676,2.282c-1.771,1.494-2.654,3.376-2.654,5.643c0,3.127,2.321,5.645,6.966,7.554l6.387,2.613
			c5.197,2.104,8.998,4.67,11.404,7.7c2.404,3.029,3.607,6.742,3.607,11.142c0,5.893-1.963,10.763-5.89,14.608
			c-3.952,3.873-8.859,5.811-14.72,5.811c-5.56,0-10.147-1.654-13.769-4.958c-3.565-3.302-5.793-7.939-6.677-13.911l9.788-2.156
			c0.441,3.76,1.215,6.359,2.322,7.796c1.99,2.764,4.894,4.147,8.708,4.147c3.014,0,5.516-1.01,7.507-3.025
			c1.99-2.015,2.985-4.573,2.985-7.668c0-1.241-0.174-2.381-0.519-3.418c-0.345-1.036-0.885-1.989-1.617-2.859
			c-0.733-0.87-1.681-1.686-2.841-2.443c-1.161-0.761-2.544-1.487-4.147-2.178l-6.178-2.568
			c-8.766-3.702-13.147-9.117-13.147-16.244c0-4.808,1.84-8.826,5.517-12.059c3.675-3.26,8.252-4.889,13.727-4.889
			C424.397,733.732,430.163,737.312,434.309,744.472z"/>
	</g>
	<g>
		<path d="M10.492,367.489l16.67,42.796l17.417-45.906l16.671,45.906l17.707-42.796h10.492l-28.613,68.093l-16.464-45.368
			l-17.168,45.409L0,367.489H10.492z"/>
	</g>
	<g>
		<path d="M790.751,377.069h-25.67v15.385h24.923v9.082h-24.923v21.398h25.67v9.082H755.42v-64.029h35.331V377.069z"/>
	</g>
</g>
</svg>
