<?xml version="1.0" encoding="utf-8"?>
<!-- Generator: Adobe Illustrator 15.0.0, SVG Export Plug-In . SVG Version: 6.00 Build 0)  -->
<!DOCTYPE svg PUBLIC "-//W3C//DTD SVG 1.1//EN" "http://www.w3.org/Graphics/SVG/1.1/DTD/svg11.dtd">
<svg version="1.1" id="Capa_1" xmlns="http://www.w3.org/2000/svg" xmlns:xlink="http://www.w3.org/1999/xlink" x="0px" y="0px"
	 width="581.674px" height="800px" viewBox="0 0 581.674 800" enable-background="new 0 0 581.674 800" xml:space="preserve">
<g>
	<path fill="#222221" d="M425.915,456.531v-172.96h-58.374v172.96h-45.402V220.875h-58.374v235.657h-38.913v136.207H0v207.551
		h224.851h319.974V592.738V456.531H425.915z M214.04,687.865H21.623v-75.311H214.04V687.865z M315.653,588.415h-67.02V475.99h67.02
		V588.415z M418.587,588.415h-67.022V475.99h67.022V588.415z M525.607,588.415h-67.023V475.99h67.023V588.415z"/>
	<path fill="#222221" d="M297.816,176.77C290.239,66.896,581.674-70.672,581.674,41.346c0,90.74-169.264,36.464-247.579,85.833
		C304.006,146.146,297.816,176.77,297.816,176.77z"/>
	<path fill="#222221" d="M402.904,265.299c-4.27-61.916,159.962-139.44,159.962-76.315c0,51.135-95.384,20.549-139.518,48.37
		C406.393,248.042,402.904,265.299,402.904,265.299z"/>
</g>
</svg>
