<?xml version="1.0" encoding="utf-8"?>
<!-- Generator: Adobe Illustrator 15.0.0, SVG Export Plug-In . SVG Version: 6.00 Build 0)  -->
<!DOCTYPE svg PUBLIC "-//W3C//DTD SVG 1.1//EN" "http://www.w3.org/Graphics/SVG/1.1/DTD/svg11.dtd">
<svg version="1.1" id="Capa_1" xmlns="http://www.w3.org/2000/svg" xmlns:xlink="http://www.w3.org/1999/xlink" x="0px" y="0px"
	 width="755.583px" height="800px" viewBox="0 0 755.583 800" enable-background="new 0 0 755.583 800" xml:space="preserve">
<g>
	<path fill="#222221" d="M56.317,56.317v384.374c13.235-18.905,23.829-44.922,29.792-62.967
		c4.431-13.412,3.796-32.269,10.008-44.882c8.326-16.908,20.817-21.738,25.88-36.922c6.896-20.686-15.324-26.515,14.51-40.174
		c17.576-8.048,34.808,0.442,51.494,6.426c15.331,5.5,26.57,12.876,39.989,8.781c-13.636-31.024-26.517-45.558-31.34-61.845
		c-4.526-15.277,6.258-34.366,24.919-57.051c27.216-33.089,1.31-83.281-44.683-56.873c-24.251,13.925-48.435,74.578-66.793,59.103
		c-18.903-15.935-17.547-46.669-26.933-64.439c17.749-0.087,15.403,49.271,32.175,53.029c16.208,3.631,21.802-25.999,32.789-39.346
		c9.664-11.74,19.992-17.59,35.854-24.87c25.886-11.88,50.763,6.407,57.918,22.247c14.3,31.65-20.053,54.979-30.381,84.766
		c-6.417,18.502,4.314,29.006,17.878,41.924c7.62,7.256,15.996,15.276,24.569,22.978c1.392-1.663,2.809-3.405,4.276-5.306
		c10.565-13.703,30.267,7.396,47.984,10.097c16.645,2.536,21.93-21.342,20.923-37.078c-1.094-17.014-22.036-23.268-22.604-35.095
		c-0.762-15.838,9.455-18.487,16.381-33.131c1.768-3.746-2.64-34.196,10.156-38.879c42.407-15.521,41.123,26.454,69.807,27.019
		c20.54,0.406,29.993-22.516,48.885-30.067V56.317H56.317z"/>
	<path fill="#222221" d="M171.804,288.575c-7.942,0.823-18.816-7.276-24.004-1.748c-6.799,7.245-2.013,22.636-5.216,31.498
		c-2.672,7.398-15.975,17.082-11.573,26.521c6.446,13.828,18.876,1.57,26.263-2.685c12.418-7.156,63.461,4.374,60.352-20.917
		c-1.539-12.507-18.328-6.172-23.338-15.999c-5.259-10.315,7.335-23.346-9.442-23.346
		C176.336,281.898,175.448,288.197,171.804,288.575z"/>
	<path fill="#222221" d="M129.785,371.246c-15.096,2.67-34.748,31.37-27.301,41.982c7.714,10.998,40.882-15.698,38.62-25.156
		c-1.795-7.513,5.383-10.628,1.335-16.553C141.423,370.03,132.9,370.695,129.785,371.246z"/>
	<path fill="none" d="M473.378,260.996V32.71H32.71v440.668h189.619C247.627,355.771,349.611,266.668,473.378,260.996z"/>
	<path fill="#222221" d="M506.088,261.444V0H0v506.089h217.377c-0.714,7.993-1.098,16.08-1.098,24.259
		C216.279,679.271,337.006,800,485.93,800s269.653-120.729,269.653-269.652C755.583,388.204,645.597,271.755,506.088,261.444z
		 M32.71,473.379V32.71h440.668v228.285c-123.767,5.672-225.751,94.775-251.05,212.383H32.71z M485.93,769.519
		c-132.088,0-239.17-107.08-239.17-239.171c0-8.189,0.415-16.28,1.218-24.259c1.123-11.148,3.028-22.065,5.628-32.71
		C278.207,372.713,366.51,297.03,473.378,291.504c4.155-0.215,8.342-0.327,12.552-0.327c6.791,0,13.511,0.299,20.158,0.854
		c122.655,10.238,219.01,113.018,219.01,238.317C725.098,662.438,618.021,769.519,485.93,769.519z"/>
	<path fill="#222221" d="M509.871,506.409c-8.714-8.714-20.994-11.682-32.142-8.908l17.597-17.598l-142.015-82.178l82.176,142.015
		l17.595-17.595c-2.771,11.146,0.197,23.429,8.911,32.142c8.714,8.714,20.99,11.68,32.139,8.908l-17.593,17.596l142.014,82.178
		l-82.179-142.015l-17.593,17.594C521.549,527.401,518.581,515.122,509.871,506.409z M474.985,541.295
		c-6.046-6.046-6.046-15.849,0-21.895c6.044-6.044,15.848-6.046,21.895,0c6.046,6.046,6.043,15.849,0,21.895
		C490.833,547.34,481.032,547.343,474.985,541.295z M594.565,638.983l-103.793-60.061l43.733-43.732L594.565,638.983z"/>
</g>
</svg>
