<?xml version="1.0" encoding="utf-8"?>
<!-- Generator: Adobe Illustrator 15.0.0, SVG Export Plug-In . SVG Version: 6.00 Build 0)  -->
<!DOCTYPE svg PUBLIC "-//W3C//DTD SVG 1.1//EN" "http://www.w3.org/Graphics/SVG/1.1/DTD/svg11.dtd">
<svg version="1.1" id="Capa_1" xmlns="http://www.w3.org/2000/svg" xmlns:xlink="http://www.w3.org/1999/xlink" x="0px" y="0px"
	 width="800px" height="760.36px" viewBox="0 0 800 760.36" enable-background="new 0 0 800 760.36" xml:space="preserve">
<g>
	<path fill="#222221" d="M399.992,0c-94.506,0-171.12,76.613-171.12,171.12v142.845c0,6.543,0.403,12.991,1.118,19.345h144.705
		V193.438h-56.542c-16.435,0-29.759-13.324-29.759-29.759c0-16.435,13.324-29.759,29.759-29.759h160.707
		c16.435,0,29.757,13.325,29.757,29.759c0,16.436-13.322,29.759-29.757,29.759h-53.571V333.31h144.708
		c0.716-6.354,1.116-12.802,1.116-19.345V171.12C571.112,76.613,494.501,0,399.992,0z"/>
	<path fill="#222221" d="M768.269,653.622v-38.741H643.647c0.005,0.282,0.021,0.559,0.021,0.846v37.896H768.269z"/>
	<path fill="#222221" d="M31.714,614.881v38.741h124.601v-37.896c0-0.287,0.02-0.563,0.022-0.846H31.714z"/>
	<g>
		<path fill="#222221" d="M257.134,380.925h-6.685c-110.96,0-202.557,82.644-216.759,189.717h129.824
			c14.429-44.037,49.425-78.721,93.621-92.793V380.925z"/>
		<path fill="#222221" d="M549.533,380.925h-9.678v96.053c45.599,13.438,81.865,48.642,96.617,93.664h129.826
			C752.095,463.568,660.497,380.925,549.533,380.925z"/>
	</g>
	<path fill="#222221" d="M529.555,343.563c0,60.463-58.01,109.471-129.562,109.471c-71.554,0-129.562-49.008-129.562-109.471
		c0,0,66.815,81.355,129.562,81.355C460.738,424.918,529.555,343.563,529.555,343.563z"/>
	<polygon fill="#222221" points="768.269,697.861 643.669,697.861 613.346,697.861 613.346,760.36 643.669,760.36 768.269,760.36 
		798.602,760.36 798.602,697.861 	"/>
	<polygon fill="#222221" points="156.315,697.861 31.714,697.861 1.399,697.861 1.399,760.36 31.714,760.36 156.315,760.36 
		186.654,760.36 186.654,697.861 	"/>
	<path fill="#222221" d="M472.993,508.111h-146c-58.968,0-106.773,47.805-106.773,106.77V760.36h141.086v-50.22h-71.413v-77.374
		h71.413v-62.125h77.375v62.125h71.411v77.374H438.68v50.22h141.087V614.881C579.767,555.916,531.962,508.111,472.993,508.111z"/>
</g>
</svg>
