<?xml version="1.0" encoding="utf-8"?>
<!-- Generator: Adobe Illustrator 15.0.0, SVG Export Plug-In . SVG Version: 6.00 Build 0)  -->
<!DOCTYPE svg PUBLIC "-//W3C//DTD SVG 1.1//EN" "http://www.w3.org/Graphics/SVG/1.1/DTD/svg11.dtd">
<svg version="1.1" id="Capa_1" xmlns="http://www.w3.org/2000/svg" xmlns:xlink="http://www.w3.org/1999/xlink" x="0px" y="0px"
	 width="687.368px" height="800px" viewBox="0 0 687.368 800" enable-background="new 0 0 687.368 800" xml:space="preserve">
<g>
	<path fill="#222221" d="M677.119,89.948h-76.076c-2.719,0-5.325,1.08-7.248,3.002L483.983,202.762l-91.813-91.812
		c-1.923-1.922-4.529-3.002-7.248-3.002H284.439L211.725,4.683c-2.572-3.653-7.214-5.22-11.476-3.871
		c-4.259,1.35-7.154,5.303-7.154,9.771v232.179h-71.919c-5.66,0-10.249,4.588-10.249,10.25v104.786H55.442
		c-5.66,0-10.249,4.587-10.249,10.249v82.031L3.001,492.27C1.08,494.19,0,496.799,0,499.517v78.06h20.5v-73.814l42.189-42.19
		c1.922-1.923,3.002-4.528,3.002-7.248v-76.027h55.485c5.661,0,10.25-4.589,10.25-10.249V263.262h61.668V539.73h20.5V42.942
		l57.146,81.156c1.919,2.726,5.046,4.348,8.381,4.348h101.555l96.059,96.059c4.003,4.003,10.492,4.002,14.495,0l114.057-114.058
		h61.582v467.129h20.499V100.198C687.368,94.537,682.78,89.948,677.119,89.948z"/>
	<rect x="280.064" y="166.025" fill="#222221" width="54.66" height="54.661"/>
	<rect x="410.649" y="272.374" fill="#222221" width="54.661" height="54.66"/>
	<rect x="543.885" y="272.374" fill="#222221" width="54.66" height="54.66"/>
	<rect x="543.885" y="378.721" fill="#222221" width="54.66" height="54.661"/>
	<rect x="543.885" y="485.07" fill="#222221" width="54.66" height="54.66"/>
	<rect x="410.649" y="378.721" fill="#222221" width="54.661" height="54.661"/>
	<rect x="280.064" y="272.374" fill="#222221" width="54.66" height="54.66"/>
	<rect x="280.064" y="378.721" fill="#222221" width="54.66" height="54.661"/>
	<rect x="105.255" y="406.053" fill="#222221" width="54.66" height="54.66"/>
	<rect x="105.255" y="500" fill="#222221" width="54.66" height="54.66"/>
	<g>
		<path fill="#222221" d="M613.388,580.389h-27.283c-10.247-17.7-29.373-29.614-51.296-29.614H417.388
			c1.659-4.215,2.578-8.798,2.578-13.602c0-20.528-16.644-37.173-37.172-37.173h-81.602c-20.53,0-37.173,16.645-37.173,37.173
			c0,4.804,0.921,9.387,2.579,13.602h-8.62c-30.085,0-54.914,22.432-58.718,51.479H21.538c-8.292,0-15.014,6.722-15.014,15.012
			c0,8.293,6.722,15.014,15.014,15.014h177.598c2.919,22.558,22.189,39.988,45.543,39.988h13.299h276.831h78.579
			c25.374,0,45.942-20.566,45.942-45.938S638.762,580.389,613.388,580.389z"/>
		<path fill="#222221" d="M622.815,683.612H163.729c-32.047,0-58.027,25.979-58.027,58.028c0,32.047,25.98,58.026,58.027,58.026
			h459.086c32.047,0,58.027-25.979,58.027-58.026C680.842,709.592,654.862,683.612,622.815,683.612z M160.993,778.574
			c-21.214,0-38.414-17.198-38.414-38.413c0-21.216,17.199-38.414,38.414-38.414c21.215,0,38.414,17.198,38.414,38.414
			C199.407,761.376,182.208,778.574,160.993,778.574z M276.235,778.574c-21.216,0-38.415-17.198-38.415-38.413
			c0-21.216,17.199-38.414,38.415-38.414c21.214,0,38.413,17.198,38.413,38.414C314.648,761.376,297.45,778.574,276.235,778.574z
			 M391.478,778.574c-21.216,0-38.414-17.198-38.414-38.413c0-21.216,17.198-38.414,38.414-38.414
			c21.212,0,38.411,17.198,38.411,38.414C429.889,761.376,412.69,778.574,391.478,778.574z M506.719,778.574
			c-21.215,0-38.414-17.198-38.414-38.413c0-21.216,17.199-38.414,38.414-38.414c21.216,0,38.415,17.198,38.415,38.414
			C545.134,761.376,527.935,778.574,506.719,778.574z M621.961,778.574c-21.216,0-38.412-17.198-38.412-38.413
			c0-21.216,17.196-38.414,38.412-38.414c21.213,0,38.413,17.198,38.413,38.414C660.375,761.376,643.174,778.574,621.961,778.574z"
			/>
	</g>
</g>
</svg>
