<?xml version="1.0" encoding="utf-8"?>
<!-- Generator: Adobe Illustrator 15.0.0, SVG Export Plug-In . SVG Version: 6.00 Build 0)  -->
<!DOCTYPE svg PUBLIC "-//W3C//DTD SVG 1.1//EN" "http://www.w3.org/Graphics/SVG/1.1/DTD/svg11.dtd">
<svg version="1.1" id="Capa_1" xmlns="http://www.w3.org/2000/svg" xmlns:xlink="http://www.w3.org/1999/xlink" x="0px" y="0px"
	 width="800px" height="612.406px" viewBox="0 0 800 612.406" enable-background="new 0 0 800 612.406" xml:space="preserve">
<g>
	<path fill="#222221" d="M316.611,572.479h-19.338v-59.562c14.691-4.778,25.311-18.57,25.311-34.861
		c0-20.237-16.412-36.647-36.655-36.647c-20.245,0-36.656,16.41-36.656,36.647c0,16.291,10.619,30.083,25.311,34.861v59.562h-19.338
		c-8.405,0-16.2,2.604-22.632,7.04c-6.434-4.437-14.228-7.04-22.633-7.04H190.64v-59.562c14.692-4.778,25.311-18.57,25.311-34.861
		c0-20.237-16.411-36.647-36.654-36.647c-20.246,0-36.657,16.41-36.657,36.647c0,16.291,10.619,30.083,25.31,34.861v59.562h-19.338
		c-8.405,0-16.199,2.604-22.632,7.04c-6.434-4.437-14.229-7.04-22.633-7.04H84.007v-59.562c14.692-4.778,25.311-18.57,25.311-34.861
		c0-20.237-16.411-36.647-36.654-36.647c-20.246,0-36.657,16.41-36.657,36.647c0,16.291,10.619,30.083,25.311,34.861v59.562H41.978
		c-22.05,0-39.925,17.88-39.925,39.927h106.633h34.587h72.045h34.587h106.632C356.538,590.359,338.661,572.479,316.611,572.479z"/>
	<path fill="#222221" d="M758.021,131.07h-19.339V71.508c14.691-4.779,25.311-18.571,25.311-34.861
		C763.992,16.41,747.58,0,727.338,0c-20.246,0-36.656,16.41-36.656,36.647c0,16.29,10.617,30.082,25.311,34.861v59.562h-19.339
		c-8.404,0-16.2,2.604-22.632,7.04c-6.435-4.437-14.228-7.04-22.634-7.04h-19.339V71.508c14.691-4.779,25.311-18.571,25.311-34.861
		C657.359,16.41,640.948,0,620.705,0c-20.246,0-36.656,16.41-36.656,36.647c0,16.29,10.618,30.082,25.311,34.861v59.562h-19.339
		c-8.404,0-16.2,2.604-22.632,7.04c-6.435-4.437-14.228-7.04-22.634-7.04h-19.338V71.508c14.69-4.779,25.311-18.571,25.311-34.861
		C550.728,16.41,534.315,0,514.072,0c-20.245,0-36.656,16.41-36.656,36.647c0,16.29,10.618,30.082,25.311,34.861v59.562h-19.339
		c-22.051,0-39.926,17.88-39.926,39.926h106.633h34.587h72.046h34.587h106.633C797.947,148.95,780.07,131.07,758.021,131.07z"/>
	<path fill="#222221" d="M492.193,252.542c-5.346-0.823-10.345,2.843-11.167,8.188c-8.344,54.218-50.874,100.444-107.309,119.756
		c13.224-67.357,54.544-129.938,87.039-147.944c4.73-2.621,6.439-8.58,3.819-13.31c-2.623-4.73-8.583-6.441-13.312-3.818
		c-39.7,21.998-79.965,88.056-94.995,153.144l-17.434-16.823l-18.87,75.791l75.077-21.553l-9.369-9.04
		c22.956-8.676,44.262-21.521,62.058-37.701c28.866-26.248,47.072-59.278,52.649-95.522
		C501.204,258.364,497.538,253.365,492.193,252.542z"/>
	<path fill="#222221" d="M301.07,87.534c-57.087,16.104-108.524,50.134-145.841,96.729C114.192,235.5,92.501,297.396,92.501,363.259
		c0,6.163,4.996,11.159,11.159,11.159c6.164,0,11.16-4.996,11.16-11.159c0-118.308,77.134-220.53,189.267-253.371l4.355,32.282
		l70.447-54.415l-82.35-33.807L301.07,87.534z"/>
	<path fill="#222221" d="M740.799,344.352L707,262.003l-54.423,70.446l32.775,4.422
		c-32.841,112.133-135.063,189.267-253.371,189.267c-6.164,0-11.159,4.996-11.159,11.159s4.995,11.159,11.159,11.159
		c65.863,0,127.758-21.691,178.997-62.729c46.595-37.317,80.624-88.753,96.728-145.84L740.799,344.352z"/>
</g>
</svg>
