<?xml version="1.0" encoding="utf-8"?>
<!-- Generator: Adobe Illustrator 15.0.0, SVG Export Plug-In . SVG Version: 6.00 Build 0)  -->
<!DOCTYPE svg PUBLIC "-//W3C//DTD SVG 1.1//EN" "http://www.w3.org/Graphics/SVG/1.1/DTD/svg11.dtd">
<svg version="1.1" id="Capa_1" xmlns="http://www.w3.org/2000/svg" xmlns:xlink="http://www.w3.org/1999/xlink" x="0px" y="0px"
	 width="732.885px" height="800px" viewBox="0 0 732.885 800" enable-background="new 0 0 732.885 800" xml:space="preserve">
<g>
	<path fill="#222221" d="M374.957,751.836h-23.965v-73.815c18.205-5.922,31.367-23.018,31.367-43.198
		c0-25.088-20.34-45.427-45.428-45.427c-25.088,0-45.426,20.339-45.426,45.427c0,20.181,13.162,37.276,31.366,43.198v73.815h-23.964
		c-27.328,0-49.481,22.152-49.481,49.48h175.012C424.438,773.988,402.284,751.836,374.957,751.836z"/>
	<g>
		<path fill="#222221" d="M624.382,751.836h-23.965v-73.815c18.204-5.922,31.366-23.018,31.366-43.198
			c0-25.088-20.339-45.427-45.427-45.427s-45.428,20.339-45.428,45.427c0,20.181,13.163,37.276,31.367,43.198v73.815h-23.965
			c-27.327,0-49.48,22.152-49.48,49.48h175.011C673.861,773.988,651.709,751.836,624.382,751.836z"/>
		<path fill="#222221" d="M125.531,751.836h-23.964v-73.815c18.204-5.922,31.366-23.018,31.366-43.198
			c0-25.088-20.339-45.427-45.427-45.427c-25.088,0-45.427,20.339-45.427,45.427c0,20.181,13.162,37.276,31.366,43.198v73.815
			H49.481C22.154,751.836,0,773.988,0,801.316h175.011C175.011,773.988,152.858,751.836,125.531,751.836z"/>
	</g>
	<path fill="#222221" d="M647.968,282.18l84.917-59.233l-93.758-43.929l3.332,38.881c-31.025,2.901-67.459,6.561-106.265,10.961
		c-27.269-24.167-57.699-47.205-74.002-55.991c-1.451-0.783-3.239-1.72-5.329-2.795c38.647-49.748,83.874-86.466,131.592-106.518
		l7.078,36.805l78.275-67.763L575.982-1.316l7.476,38.872c-58.276,23.051-109.275,66.623-150.274,120.659
		c-15.923-7.86-36.572-17.925-59.883-29.289c-41.309-20.139-91.664-44.689-133.331-65.603l18.003-34.061l-103.46,3.866
		l55.077,87.674l18.248-34.524c41.9,21.036,92.558,45.734,134.089,65.98c20.904,10.19,40.35,19.67,55.917,27.335
		c-15.117,22.277-28.62,45.975-40.366,70.469c-61.352,9.753-118.778,21.211-161.063,34.314
		c-72.041,22.322-106.824,71.504-123.317,108.832c-17.739,40.146-18.543,74.926-18.568,76.387
		c-0.125,7.157,5.568,13.051,12.725,13.19c0.086,0.001,0.172,0.003,0.257,0.003c7.041,0,12.821-5.644,12.972-12.715
		c0.007-0.312,0.858-31.771,16.748-67.248c20.891-46.645,56.847-78.155,106.866-93.654c37.317-11.564,86.954-21.845,140.74-30.789
		c-26.344,63.54-40.884,130.721-40.884,191.439c0,7.169,5.811,12.979,12.979,12.979s12.979-5.811,12.979-12.979
		c0-62.793,16.129-131.927,45.149-196.262c43.842-6.728,89.354-12.599,132.417-17.583c16.264,14.992,30.149,29.451,36.716,39.331
		c35.059,52.747,34.411,95.708,19.696,172.059c-1.357,7.039,3.251,13.844,10.29,15.2c0.828,0.16,1.656,0.238,2.47,0.238
		c6.096,0,11.534-4.316,12.729-10.526c7.368-38.229,11.771-69.915,9.301-100.298c-2.628-32.332-13.072-61.261-32.868-91.042
		c-5.41-8.14-14.195-18.12-24.753-28.729c30.302-3.297,58.708-6.116,83.619-8.447L647.968,282.18z M408.827,245.271
		c4.23-8.086,8.656-16.07,13.289-23.919c6.154-10.417,12.565-20.445,19.21-30.066c3.574,1.815,6.467,3.312,8.549,4.435
		c12.168,6.557,31.622,20.918,51.274,37.248C470.771,236.646,439.555,240.75,408.827,245.271z"/>
</g>
</svg>
