<?xml version="1.0" encoding="utf-8"?>
<!-- Generator: Adobe Illustrator 15.0.0, SVG Export Plug-In . SVG Version: 6.00 Build 0)  -->
<!DOCTYPE svg PUBLIC "-//W3C//DTD SVG 1.1//EN" "http://www.w3.org/Graphics/SVG/1.1/DTD/svg11.dtd">
<svg version="1.1" id="Capa_1" xmlns="http://www.w3.org/2000/svg" xmlns:xlink="http://www.w3.org/1999/xlink" x="0px" y="0px"
	 width="422.728px" height="800px" viewBox="0 0 422.728 800" enable-background="new 0 0 422.728 800" xml:space="preserve">
<g>
	<g>
		<rect x="17.606" y="428.229" fill="#222221" width="49.81" height="40.25"/>
		<polygon fill="#222221" points="405.122,289.364 405.122,223.956 405.111,223.956 341.794,160.561 354.258,146.474 
			354.258,130.373 285.831,130.373 211.364,164.587 136.902,130.373 68.472,130.373 68.472,146.474 80.936,160.561 17.624,223.956 
			17.606,223.956 17.606,289.364 0,289.364 0,420.18 83.519,420.18 83.519,289.364 67.416,289.364 67.416,244.584 114.001,197.939 
			114.762,198.801 114.762,309.491 150.988,365.841 211.364,365.841 271.74,365.841 307.966,309.491 307.966,198.801 
			308.726,197.939 355.312,244.584 355.312,289.364 339.21,289.364 339.21,420.18 422.728,420.18 422.728,289.364 		"/>
		<rect x="355.312" y="428.229" fill="#222221" width="49.81" height="40.25"/>
	</g>
	<path fill="#222221" d="M265.098-0.32v15.563H158.421V-0.32h-11.51v128.905l64.453,29.505l64.457-29.505V-0.32H265.098z
		 M262.726,68.547l-51.362,17.521l-51.359-17.521V43.984h102.721V68.547z"/>
	<g>
		<rect x="104.014" y="762.849" fill="#222221" width="85.651" height="35.974"/>
		<polygon fill="#222221" points="303.296,567.564 303.296,446.8 279.599,446.8 279.599,427.1 279.599,394.552 304.436,394.552 
			304.436,376.564 211.934,376.564 119.431,376.564 119.431,394.552 139.987,394.552 139.987,446.8 119.431,446.8 119.431,567.564 
			104.014,567.564 104.014,744.007 189.665,744.007 189.665,567.564 174.248,567.564 174.248,462.215 175.817,462.215 
			189.665,477.635 211.934,477.635 234.202,477.635 248.053,462.215 248.479,462.215 248.479,567.564 233.062,567.564 
			233.062,744.007 318.714,744.007 318.714,567.564 		"/>
		<rect x="233.062" y="762.849" fill="#222221" width="85.651" height="35.974"/>
	</g>
</g>
</svg>
