<?xml version="1.0" encoding="utf-8"?>
<!-- Generator: Adobe Illustrator 15.0.0, SVG Export Plug-In . SVG Version: 6.00 Build 0)  -->
<!DOCTYPE svg PUBLIC "-//W3C//DTD SVG 1.1//EN" "http://www.w3.org/Graphics/SVG/1.1/DTD/svg11.dtd">
<svg version="1.1" id="Capa_1" xmlns="http://www.w3.org/2000/svg" xmlns:xlink="http://www.w3.org/1999/xlink" x="0px" y="0px"
	 width="800px" height="774.449px" viewBox="0 0 800 774.449" enable-background="new 0 0 800 774.449" xml:space="preserve">
<polygon fill="#222221" points="580.984,20.141 554.373,66.234 527.766,20.141 516.135,0 504.506,20.141 477.894,66.234 
	451.284,20.141 439.655,0 428.026,20.141 401.416,66.234 374.805,20.141 363.176,0 351.549,20.141 324.936,66.234 298.324,20.141 
	286.696,0.001 275.069,20.141 248.457,66.234 221.846,20.141 212.035,3.148 212.035,165.08 587.966,165.08 587.966,8.052 "/>
<g>
	<path fill="#222221" d="M620.609,598.826H513.486L400,778.84h400.626C800.626,679.419,720.032,598.826,620.609,598.826z"/>
	<path fill="#222221" d="M179.39,598.826c-99.421,0-180.016,80.594-180.016,180.015H400L286.514,598.826H179.39z"/>
	<path fill="#222221" d="M513.486,598.826l74.479-74.479h-99.723v-9.182c59.823-31.686,100.601-94.549,100.601-166.955V196.432
		c0-4.42-0.207-8.79-0.505-13.133H211.663c-0.298,4.344-0.504,8.713-0.504,13.133v151.778c0,72.406,40.773,135.27,100.599,166.955
		v9.182h-99.723l74.479,74.479L400,657.287L513.486,598.826z"/>
</g>
</svg>
