<?xml version="1.0" encoding="utf-8"?>
<!-- Generator: Adobe Illustrator 15.0.0, SVG Export Plug-In . SVG Version: 6.00 Build 0)  -->
<!DOCTYPE svg PUBLIC "-//W3C//DTD SVG 1.1//EN" "http://www.w3.org/Graphics/SVG/1.1/DTD/svg11.dtd">
<svg version="1.1" id="Capa_1" xmlns="http://www.w3.org/2000/svg" xmlns:xlink="http://www.w3.org/1999/xlink" x="0px" y="0px"
	 width="800px" height="696.535px" viewBox="0 0 800 696.535" enable-background="new 0 0 800 696.535" xml:space="preserve">
<g>
	<g>
		<path fill="#222221" d="M706.692,406.862c0-14.579-11.819-26.399-26.399-26.399s-26.399,11.82-26.399,26.399h-98.603v-37.453
			h-20.188v-54.352H264.897v54.352h-20.188v37.453h-98.618c0-14.579-11.819-26.399-26.399-26.399
			c-14.58,0-26.399,11.82-26.399,26.399H2.455v214.902h242.254v-13.207h65.532h16.382h65.532h16.383h65.532h16.383h64.837v13.207
			h242.254V406.862H706.692z M310.241,587h-65.532v-89.92c0-18.097,14.669-32.766,32.766-32.766s32.767,14.669,32.767,32.766V587z
			 M392.156,587h-65.532v-89.92c0-18.097,14.67-32.766,32.767-32.766s32.766,14.669,32.766,32.766V587z M474.071,587h-65.532v-89.92
			c0-18.097,14.67-32.766,32.767-32.766s32.766,14.669,32.766,32.766V587z M555.291,587h-64.837v-89.92
			c0-18.097,14.669-32.766,32.766-32.766c15.793,0,28.972,11.174,32.071,26.048V587z"/>
		<rect x="244.709" y="622.717" fill="#222221" width="310.582" height="22.259"/>
		<rect x="244.709" y="661.877" fill="#222221" width="310.582" height="34.658"/>
	</g>
	<polygon fill="#222221" points="498.609,156.844 498.609,256.23 445.811,256.23 445.811,156.844 426.399,156.844 426.399,256.23 
		373.601,256.23 373.601,156.844 354.189,156.844 354.189,256.23 301.39,256.23 301.39,156.844 283.532,156.844 283.532,307.477 
		516.469,307.477 516.469,156.844 	"/>
	<path fill="#222221" d="M411.646,33.193V11.647C411.646,5.214,406.433,0,400,0c-6.432,0-11.647,5.214-11.647,11.647v21.546
		c-58.854,5.844-104.821,55.495-104.821,115.887h232.937C516.469,88.688,470.501,39.037,411.646,33.193z"/>
</g>
</svg>
