<?xml version="1.0" encoding="utf-8"?>
<!-- Generator: Adobe Illustrator 15.0.0, SVG Export Plug-In . SVG Version: 6.00 Build 0)  -->
<!DOCTYPE svg PUBLIC "-//W3C//DTD SVG 1.1//EN" "http://www.w3.org/Graphics/SVG/1.1/DTD/svg11.dtd">
<svg version="1.1" id="Capa_1" xmlns="http://www.w3.org/2000/svg" xmlns:xlink="http://www.w3.org/1999/xlink" x="0px" y="0px"
	 width="659.353px" height="800px" viewBox="0 0 659.353 800" enable-background="new 0 0 659.353 800" xml:space="preserve">
<g>
	<g>
		<rect y="335.84" fill="#222221" width="659.353" height="44.388"/>
		<rect y="755.451" fill="#222221" width="659.353" height="44.386"/>
	</g>
	<g>
		<path fill="#222221" d="M607.457,2.191L328.109,138.482c-0.514,0.25-1,0.532-1.481,0.817c-6.063-1.697-12.74-1.291-18.841,1.688
			c-13.225,6.451-18.715,22.401-12.262,35.626c6.45,13.222,22.403,18.713,35.625,12.263c6.103-2.979,10.532-7.991,12.926-13.813
			c0.522-0.203,1.046-0.415,1.555-0.665L624.98,38.107c9.919-4.838,14.036-16.8,9.196-26.72
			C629.337,1.469,617.376-2.648,607.457,2.191z"/>
		<path fill="#222221" d="M49.824,84.917l266.738,159.569c0.49,0.292,0.949,0.614,1.404,0.941
			c6.186-1.175,12.803-0.202,18.629,3.284c12.629,7.554,16.739,23.913,9.186,36.542c-7.551,12.625-23.912,16.738-36.539,9.186
			c-5.826-3.487-9.815-8.858-11.704-14.863c-0.503-0.246-1.003-0.5-1.492-0.794L29.309,119.211
			c-9.473-5.664-12.556-17.934-6.888-27.405C28.086,82.336,40.353,79.251,49.824,84.917z"/>
	</g>
	<g>
		<polygon fill="#222221" points="154.284,706.218 316.041,414.656 0,414.656 0,428.122 		"/>
		<polygon fill="#222221" points="487.893,721.021 329.676,435.839 171.459,721.021 		"/>
		<polygon fill="#222221" points="505.069,706.218 659.353,428.125 659.353,414.656 343.311,414.656 		"/>
		<polygon fill="#222221" points="522.246,721.021 659.353,721.021 659.353,473.887 		"/>
		<polygon fill="#222221" points="0,473.886 0,721.021 137.108,721.021 		"/>
	</g>
</g>
</svg>
