<?xml version="1.0" encoding="utf-8"?>
<!-- Generator: Adobe Illustrator 15.0.0, SVG Export Plug-In . SVG Version: 6.00 Build 0)  -->
<!DOCTYPE svg PUBLIC "-//W3C//DTD SVG 1.1//EN" "http://www.w3.org/Graphics/SVG/1.1/DTD/svg11.dtd">
<svg version="1.1" id="Capa_1" xmlns="http://www.w3.org/2000/svg" xmlns:xlink="http://www.w3.org/1999/xlink" x="0px" y="0px"
	 width="689.918px" height="800px" viewBox="0 0 689.918 800" enable-background="new 0 0 689.918 800" xml:space="preserve">
<g>
	<path fill="#222221" d="M603.984,633.999H432.761v-35.438c58.154-31.049,97.736-92.325,97.736-162.854V267.792
		c0-4.984-0.204-9.922-0.593-14.807c-6.586,4.699-13.779,9.181-21.587,13.408c-43.88,23.752-101.895,36.834-163.358,36.834
		c-61.465,0-119.48-13.082-163.358-36.834c-7.806-4.227-14.998-8.709-21.583-13.404c-0.388,4.883-0.592,9.818-0.592,14.803v167.915
		c0,70.529,39.58,131.806,97.735,162.854v35.438H85.933C38.473,633.999,0,672.472,0,719.931v80.172h689.918v-80.172
		C689.918,672.472,651.445,633.999,603.984,633.999z"/>
	<path fill="#222221" d="M344.959,169.938c-66.186,0-152.701,26.873-200.373,43.693c30.644,43.765,108.789,74.878,200.373,74.878
		c91.663,0,169.865-31.168,200.452-74.991C498.146,196.702,412.343,169.938,344.959,169.938z"/>
	<path fill="#222221" d="M344.959-0.103c-58.56,0-242.032,94.748-242.032,211.627c0,0,141.805-58.17,242.032-58.17
		c102.319,0,242.032,58.17,242.032,58.17C586.991,94.646,402.704-0.103,344.959-0.103z M376.771,120.86l-31.812-23.115
		l-31.812,23.115l12.151-37.399l-31.812-23.113h39.322l12.152-37.397l12.15,37.397h39.323L364.62,83.46L376.771,120.86z"/>
</g>
</svg>
