<?xml version="1.0" encoding="utf-8"?>
<!-- Generator: Adobe Illustrator 15.0.0, SVG Export Plug-In . SVG Version: 6.00 Build 0)  -->
<!DOCTYPE svg PUBLIC "-//W3C//DTD SVG 1.1//EN" "http://www.w3.org/Graphics/SVG/1.1/DTD/svg11.dtd">
<svg version="1.1" id="Capa_1" xmlns="http://www.w3.org/2000/svg" xmlns:xlink="http://www.w3.org/1999/xlink" x="0px" y="0px"
	 width="631.846px" height="800px" viewBox="0 0 631.846 800" enable-background="new 0 0 631.846 800" xml:space="preserve">
<g>
	<path fill="#222221" d="M122.389,89.674c0,11.761-9.533,21.292-21.292,21.292H21.292C9.533,110.966,0,101.435,0,89.674l0,0
		c0-11.758,9.533-21.292,21.292-21.292h79.804C112.856,68.383,122.389,77.916,122.389,89.674L122.389,89.674z"/>
	<path fill="#222221" d="M122.389,193.156c0,11.761-9.533,21.292-21.292,21.292H21.292C9.533,214.449,0,204.917,0,193.156l0,0
		c0-11.758,9.533-21.292,21.292-21.292h79.804C112.856,171.865,122.389,181.398,122.389,193.156L122.389,193.156z"/>
	<path fill="#222221" d="M122.389,296.639c0,11.76-9.533,21.292-21.292,21.292H21.292C9.533,317.931,0,308.399,0,296.639l0,0
		c0-11.759,9.533-21.292,21.292-21.292h79.804C112.856,275.347,122.389,284.88,122.389,296.639L122.389,296.639z"/>
	<path fill="#222221" d="M122.389,400.121c0,11.76-9.533,21.293-21.292,21.293H21.292C9.533,421.414,0,411.881,0,400.121l0,0
		c0-11.759,9.533-21.292,21.292-21.292h79.804C112.856,378.829,122.389,388.362,122.389,400.121L122.389,400.121z"/>
	<path fill="#222221" d="M122.389,503.603c0,11.76-9.533,21.293-21.292,21.293H21.292C9.533,524.896,0,515.362,0,503.603l0,0
		c0-11.758,9.533-21.291,21.292-21.291h79.804C112.856,482.312,122.389,491.845,122.389,503.603L122.389,503.603z"/>
	<path fill="#222221" d="M122.389,607.084c0,11.761-9.533,21.294-21.292,21.294H21.292C9.533,628.378,0,618.845,0,607.084l0,0
		c0-11.757,9.533-21.289,21.292-21.289h79.804C112.856,585.795,122.389,595.327,122.389,607.084L122.389,607.084z"/>
	<path fill="#222221" d="M122.389,710.566c0,11.762-9.533,21.294-21.292,21.294H21.292C9.533,731.86,0,722.328,0,710.566l0,0
		c0-11.758,9.533-21.291,21.292-21.291h79.804C112.856,689.275,122.389,698.809,122.389,710.566L122.389,710.566z"/>
	<path fill="#222221" d="M596.616,0.728H88.718c-19.457,0-35.231,15.772-35.231,35.229v22.77h48.591
		c17.025,0,30.825,13.801,30.825,30.825s-13.8,30.825-30.825,30.825H53.487v41.832h48.591c17.025,0,30.825,13.801,30.825,30.825
		s-13.8,30.825-30.825,30.825H53.487v41.834h48.591c17.025,0,30.825,13.8,30.825,30.825s-13.8,30.825-30.825,30.825H53.487v41.833
		h48.591c17.025,0,30.825,13.8,30.825,30.825c0,17.023-13.8,30.824-30.825,30.824H53.487v41.834h48.591
		c17.025,0,30.825,13.8,30.825,30.824c0,17.023-13.8,30.826-30.825,30.826H53.487v41.832h48.591c17.025,0,30.825,13.8,30.825,30.823
		c0,17.025-13.8,30.827-30.825,30.827H53.487v41.833h48.591c17.025,0,30.825,13.799,30.825,30.822
		c0,17.024-13.8,30.826-30.825,30.826H53.487v22.771c0,19.457,15.774,35.229,35.231,35.229h507.898
		c19.457,0,35.23-15.772,35.23-35.229V35.957C631.846,16.5,616.073,0.728,596.616,0.728z M545.274,715.132H201.072
		c-5.881,0-10.647-4.768-10.647-10.647s4.766-10.645,10.647-10.645h344.202c5.877,0,10.645,4.765,10.645,10.645
		S551.151,715.132,545.274,715.132z M545.274,654.234H201.072c-5.881,0-10.647-4.768-10.647-10.646
		c0-5.881,4.766-10.645,10.647-10.645h344.202c5.877,0,10.645,4.764,10.645,10.645C555.918,649.467,551.151,654.234,545.274,654.234
		z M545.274,593.338H201.072c-5.881,0-10.647-4.768-10.647-10.647s4.766-10.646,10.647-10.646h344.202
		c5.877,0,10.645,4.766,10.645,10.646S551.151,593.338,545.274,593.338z M545.274,532.44H201.072
		c-5.881,0-10.647-4.769-10.647-10.646c0-5.881,4.766-10.645,10.647-10.645h344.202c5.877,0,10.645,4.764,10.645,10.645
		C555.918,527.672,551.151,532.44,545.274,532.44z M545.274,471.544H201.072c-5.881,0-10.647-4.768-10.647-10.647
		s4.766-10.646,10.647-10.646h344.202c5.877,0,10.645,4.766,10.645,10.646S551.151,471.544,545.274,471.544z M545.274,410.646
		H201.072c-5.881,0-10.647-4.769-10.647-10.646c0-5.88,4.766-10.646,10.647-10.646h344.202c5.877,0,10.645,4.767,10.645,10.646
		C555.918,405.878,551.151,410.646,545.274,410.646z M545.274,349.749H201.072c-5.881,0-10.647-4.766-10.647-10.646
		s4.766-10.646,10.647-10.646h344.202c5.877,0,10.645,4.766,10.645,10.646S551.151,349.749,545.274,349.749z M545.274,288.852
		H201.072c-5.881,0-10.647-4.766-10.647-10.646s4.766-10.646,10.647-10.646h344.202c5.877,0,10.645,4.766,10.645,10.646
		S551.151,288.852,545.274,288.852z M545.274,227.955H201.072c-5.881,0-10.647-4.767-10.647-10.646
		c0-5.879,4.766-10.646,10.647-10.646h344.202c5.877,0,10.645,4.767,10.645,10.646C555.918,223.188,551.151,227.955,545.274,227.955
		z M545.274,167.058H201.072c-5.881,0-10.647-4.767-10.647-10.646c0-5.879,4.766-10.646,10.647-10.646h344.202
		c5.877,0,10.645,4.767,10.645,10.646C555.918,162.292,551.151,167.058,545.274,167.058z M545.274,106.161H201.072
		c-5.881,0-10.647-4.767-10.647-10.646c0-5.88,4.766-10.646,10.647-10.646h344.202c5.877,0,10.645,4.766,10.645,10.646
		C555.918,101.395,551.151,106.161,545.274,106.161z"/>
</g>
</svg>
