<?xml version="1.0" encoding="utf-8"?>
<!-- Generator: Adobe Illustrator 16.0.4, SVG Export Plug-In . SVG Version: 6.00 Build 0)  -->
<!DOCTYPE svg PUBLIC "-//W3C//DTD SVG 1.1//EN" "http://www.w3.org/Graphics/SVG/1.1/DTD/svg11.dtd">
<svg version="1.1" id="Capa_1" xmlns="http://www.w3.org/2000/svg" xmlns:xlink="http://www.w3.org/1999/xlink" x="0px" y="0px"
	 width="800px" height="670px" viewBox="0 0 800 670" enable-background="new 0 0 800 670" xml:space="preserve">
<g>
	<path fill="#222221" d="M48.577,448.196c6.591,18.644,24.317,32.012,45.221,32.012h22.729v38.598c0,8.054,6.527,14.58,14.581,14.58
		c8.055,0,14.582-6.526,14.582-14.58v-38.598h508.623v38.598c0,8.054,6.526,14.58,14.58,14.58c8.057,0,14.582-6.526,14.582-14.58
		v-38.598h22.729c20.906,0,38.631-13.368,45.224-32.012H48.577L48.577,448.196z"/>
	<path fill="#222221" d="M799.104,401.214c-12.041-17.978-142.924-46.997-173.044-85.615
		c-13.749-17.624-18.595-29.105-57.986-95.045C521.346,142.335,432.734,136.106,400,136.643
		c-32.727-0.537-121.346,5.692-168.071,83.911c-39.395,65.94-44.239,77.422-57.989,95.045
		c-30.12,38.618-162.703,68.027-173.043,85.615c0,0-12.503,15.031,34.516,29.808h729.174
		C811.606,416.246,799.104,401.214,799.104,401.214z M261.051,333.145c-15.633,0-28.304-12.671-28.304-28.305
		c0-15.633,12.671-28.304,28.304-28.304c15.633,0,28.305,12.671,28.305,28.304C289.355,320.474,276.684,333.145,261.051,333.145z
		 M360.545,354.583c-15.633,0-28.305-12.67-28.305-28.3c0-15.633,12.671-28.304,28.305-28.304c15.634,0,28.304,12.671,28.304,28.304
		C388.85,341.914,376.179,354.583,360.545,354.583z M449.747,354.583c-15.633,0-28.305-12.67-28.305-28.3
		c0-15.633,12.672-28.304,28.305-28.304c15.634,0,28.305,12.671,28.305,28.304C478.052,341.914,465.381,354.583,449.747,354.583z
		 M538.948,333.145c-15.632,0-28.306-12.671-28.306-28.305c0-15.633,12.674-28.304,28.306-28.304
		c15.634,0,28.305,12.671,28.305,28.304C567.253,320.474,554.582,333.145,538.948,333.145z"/>
</g>
</svg>
