<?xml version="1.0" encoding="utf-8"?>
<!-- Generator: Adobe Illustrator 15.0.0, SVG Export Plug-In . SVG Version: 6.00 Build 0)  -->
<!DOCTYPE svg PUBLIC "-//W3C//DTD SVG 1.1//EN" "http://www.w3.org/Graphics/SVG/1.1/DTD/svg11.dtd">
<svg version="1.1" id="Capa_1" xmlns="http://www.w3.org/2000/svg" xmlns:xlink="http://www.w3.org/1999/xlink" x="0px" y="0px"
	 width="800px" height="800px" viewBox="0 0 800 800" enable-background="new 0 0 800 800" xml:space="preserve">
<path fill="#222221" d="M421.974,799.623c20.867-1.141,41.311-3.889,61.214-8.115c0,0,0.955-0.026,1.202-0.264
	C664.518,752.4,799.925,591.878,799.925,400.305c0-191.573-135.407-352.092-315.535-390.939c-0.247-0.245-0.48-0.497-0.725-0.742
	l-0.478,0.482c-26.845-5.703-54.665-8.729-83.189-8.729c-28.514,0-56.34,3.026-83.18,8.729l-0.478-0.482
	c-0.25,0.245-0.484,0.497-0.724,0.742C135.489,48.208,0.075,208.729,0.075,400.305c0,191.573,135.415,352.095,315.542,390.939
	c0.247,0.248,1.195,0.264,1.195,0.264c19.906,4.227,40.347,6.975,61.208,8.115H421.974z M250.792,87.58
	c-59.037,86.247-90.997,185.598-95.791,286.03H54.587C64.262,247.348,141.805,139.792,250.792,87.58z M54.587,426.995h100.415
	c4.794,100.438,36.754,199.792,95.797,286.039C141.805,660.816,64.262,553.262,54.587,426.995z M373.306,745.716
	c-10.485-0.8-20.843-2.053-31.052-3.776c-83.171-88.968-127.781-201.106-133.8-314.944h164.853V745.716z M373.306,373.61H208.453
	c6.02-113.834,50.629-225.975,133.794-314.941c10.211-1.72,20.573-2.971,31.059-3.778V373.61z M745.413,373.61H645.005
	c-4.801-100.433-36.754-199.78-95.791-286.027C658.195,139.795,735.737,247.35,745.413,373.61z M426.688,54.891
	c10.492,0.807,20.854,2.058,31.065,3.778c83.164,88.966,127.774,201.107,133.796,314.941H426.688V54.891z M457.747,741.939
	c-10.209,1.724-20.567,2.977-31.06,3.776V426.995h164.861C585.527,540.833,540.917,652.972,457.747,741.939z M549.208,713.023
	c59.043-86.245,90.996-185.595,95.797-286.028h100.408C735.737,553.262,658.195,660.816,549.208,713.023z"/>
</svg>
