<?xml version="1.0" encoding="utf-8"?>
<!-- Generator: Adobe Illustrator 15.0.0, SVG Export Plug-In . SVG Version: 6.00 Build 0)  -->
<!DOCTYPE svg PUBLIC "-//W3C//DTD SVG 1.1//EN" "http://www.w3.org/Graphics/SVG/1.1/DTD/svg11.dtd">
<svg version="1.1" id="Capa_1" xmlns="http://www.w3.org/2000/svg" xmlns:xlink="http://www.w3.org/1999/xlink" x="0px" y="0px"
	 width="800px" height="761.391px" viewBox="0 0 800 761.391" enable-background="new 0 0 800 761.391" xml:space="preserve">
<g>
	<g>
		<path fill="#222221" d="M800,0H0v598.462h270.88v81.98H529.12v-81.98H800V0z M767.208,565.669H32.792V32.792h734.416V565.669z"/>
		<rect x="184.8" y="695.807" fill="#222221" width="422.202" height="65.584"/>
	</g>
	<g>
		<path fill="#222221" d="M284.402,359.472v0.987c0,63.845,51.754,115.6,115.598,115.6s115.601-51.755,115.601-115.6v-0.987H284.402
			z"/>
		<g>
			<path fill="#222221" d="M284.404,274.348v14.198c0,27.256,22.094,49.349,49.347,49.349c27.256,0,49.351-22.092,49.351-49.349
				v-14.198H284.404z"/>
			<path fill="#222221" d="M416.901,274.348v14.198c0,27.256,22.094,49.349,49.348,49.349c27.255,0,49.352-22.092,49.352-49.349
				v-14.198H416.901z"/>
		</g>
		<path fill="#222221" d="M574.432,203.188h-65.983C496.44,154.452,452.445,118.305,400,118.305
			c-52.443,0-96.438,36.147-108.449,84.883H225.57c-11.847,0-21.454,9.605-21.454,21.453c0,11.849,9.607,21.455,21.454,21.455
			h348.862c11.849,0,21.453-9.606,21.453-21.455C595.885,212.793,586.28,203.188,574.432,203.188z"/>
	</g>
</g>
</svg>
