<?xml version="1.0" encoding="utf-8"?>
<!-- Generator: Adobe Illustrator 16.0.4, SVG Export Plug-In . SVG Version: 6.00 Build 0)  -->
<!DOCTYPE svg PUBLIC "-//W3C//DTD SVG 1.1//EN" "http://www.w3.org/Graphics/SVG/1.1/DTD/svg11.dtd">
<svg version="1.1" id="Capa_1" xmlns="http://www.w3.org/2000/svg" xmlns:xlink="http://www.w3.org/1999/xlink" x="0px" y="0px"
	 width="790.613px" height="787.664px" viewBox="0 0 790.613 787.664" enable-background="new 0 0 790.613 787.664"
	 xml:space="preserve">
<path fill="#222221" d="M326.481,614.467L616.707,324.24l-54.287-54.287l49.211-49.211c37.014,26.562,83.531,41.212,125.925,41.541
	l-44.639-44.639c0.747-0.992,1.209-2.208,1.209-3.544v-96.733l42.639-42.64l-12.525-12.528l-40.554,40.551l-105.661-0.001
	L528.33,53.057c-0.611,44.796,13.053,89.388,41.062,126.401l-48.731,48.735l-54.289-54.287L176.146,464.132l54.287,54.288
	l-17.611,17.61l-21.545-21.546l-41.76,41.758l84.854,84.853l41.759-41.759l-21.547-21.547l17.611-17.609L326.481,614.467z
	 M682.314,114.561v92.479l-92.479-92.479H682.314z M150.143,461.934l-40.713-40.712l40.712-40.712l40.713,40.712L150.143,461.934z
	 M204.945,407.142l-40.714-40.714l40.715-40.715l40.714,40.714L204.945,407.142z M259.755,352.32l-40.713-40.713l40.713-40.713
	l40.713,40.713L259.755,352.32z M314.562,297.531l-40.714-40.714l40.713-40.713l40.714,40.714L314.562,297.531z M369.367,242.716
	l-40.713-40.713l40.713-40.713l40.713,40.713L369.367,242.716z M383.459,147.191l40.712-40.712l40.713,40.712l-40.713,40.712
	L383.459,147.191z M137.617,367.979l-40.713,40.713L56.19,367.979l40.713-40.714L137.617,367.979z M151.706,272.466l40.713,40.712
	l-40.712,40.712l-40.713-40.713L151.706,272.466z M206.513,217.664l40.713,40.713l-40.713,40.712L165.8,258.376L206.513,217.664z
	 M261.321,162.851l40.712,40.713l-40.713,40.713l-40.712-40.712L261.321,162.851z M316.125,189.473l-40.713-40.713l40.714-40.714
	l40.713,40.713L316.125,189.473z M330.221,93.955l40.712-40.712l40.712,40.713l-40.711,40.712L330.221,93.955z M84.369,314.752
	l-40.712,40.712L2.942,314.75l40.713-40.712L84.369,314.752z M98.471,300.645l-40.712-40.712l40.713-40.713l40.712,40.712
	L98.471,300.645z M153.274,245.851l-40.713-40.713l40.713-40.713l40.713,40.713L153.274,245.851z M208.08,191.036l-40.712-40.713
	l40.714-40.714l40.713,40.712L208.08,191.036z M262.885,136.229l-40.713-40.713l40.712-40.713l40.714,40.713L262.885,136.229z
	 M317.7,81.433l-40.714-40.714l40.711-40.711l40.714,40.714L317.7,81.433z M475.854,706.254l40.715,40.715l-40.714,40.713
	l-40.715-40.715L475.854,706.254z M530.668,651.418l40.713,40.713l-40.714,40.714l-40.713-40.713L530.668,651.418z M585.472,596.631
	l40.713,40.714l-40.714,40.714l-40.713-40.713L585.472,596.631z M640.277,541.796l40.713,40.713l-40.713,40.713l-40.713-40.713
	L640.277,541.796z M695.08,486.982l40.712,40.713l-40.712,40.712l-40.713-40.712L695.08,486.982z M790.615,472.96l-40.712,40.713
	l-40.716-40.716l40.713-40.713L790.615,472.96z M463.325,693.737l-40.712,40.712l-40.714-40.713l40.712-40.712L463.325,693.737z
	 M477.428,679.606l-40.713-40.713l40.712-40.713l40.714,40.714L477.428,679.606z M532.232,624.828l-40.715-40.714L532.23,543.4
	l40.715,40.715L532.232,624.828z M587.04,570.021l-40.714-40.713l40.714-40.714l40.713,40.714L587.04,570.021z M641.845,515.198
	l-40.713-40.713l40.714-40.714l40.713,40.713L641.845,515.198z M696.663,460.429l-40.714-40.713l40.711-40.711l40.714,40.714
	L696.663,460.429z M410.1,640.442l-40.712,40.713l-40.712-40.712l40.712-40.713L410.1,640.442z M424.186,544.949l40.714,40.713
	l-40.713,40.713l-40.713-40.714L424.186,544.949z M478.994,490.144l40.713,40.713l-40.713,40.713l-40.713-40.713L478.994,490.144z
	 M533.8,435.338l40.713,40.713L533.8,516.764l-40.713-40.713L533.8,435.338z M588.609,380.555l40.715,40.715l-40.715,40.714
	l-40.714-40.714L588.609,380.555z M643.406,407.125l-40.712-40.712l40.712-40.713l40.712,40.713L643.406,407.125z"/>
</svg>
