<?xml version="1.0" encoding="utf-8"?>
<!-- Generator: Adobe Illustrator 15.0.0, SVG Export Plug-In . SVG Version: 6.00 Build 0)  -->
<!DOCTYPE svg PUBLIC "-//W3C//DTD SVG 1.1//EN" "http://www.w3.org/Graphics/SVG/1.1/DTD/svg11.dtd">
<svg version="1.1" id="Capa_1" xmlns="http://www.w3.org/2000/svg" xmlns:xlink="http://www.w3.org/1999/xlink" x="0px" y="0px"
	 width="766.506px" height="800px" viewBox="0 0 766.506 800" enable-background="new 0 0 766.506 800" xml:space="preserve">
<g>
	<g>
		<g>
			<path fill="#222221" d="M303.826,323.687h-58.404v-36.913c3.813-2.021,7.45-4.326,10.883-6.893
				c2.871-2.144,5.577-4.487,8.146-6.977c10.738-10.411,18.702-23.669,22.62-38.58c1.518-5.782,2.433-11.808,2.67-18.009
				c0.041-1.064,0.068-2.132,0.068-3.207v-58.593H123.164h-0.001v58.593c0,7.333,0.959,14.441,2.738,21.216
				c5.976,22.738,21.312,41.678,41.649,52.449v36.913h-58.403h-0.001c-21.934,0-41.791,8.89-56.164,23.265
				c-14.373,14.375-23.263,34.231-23.263,56.164l0,0h353.535C383.253,359.25,347.693,323.687,303.826,323.687z"/>
			<path fill="#222221" d="M332.265,127.343C329.671,55.921,278.643-1.063,206.486-1.063c-72.158,0-123.186,56.984-125.779,128.406
				c-8.582,1.841-15.019,9.462-15.019,18.594v39.433c0,9.091,6.381,16.682,14.907,18.565v5.787h0.004
				c0,0.022-0.004,0.044-0.004,0.066c0,9.217,7.473,16.689,16.688,16.689c9.218,0,16.69-7.473,16.69-16.689
				c0-0.127-0.016-0.25-0.019-0.377h0.017v-65.055h92.514h92.513v65.055h0.017c-0.002,0.127-0.018,0.25-0.018,0.377
				c0,9.217,7.472,16.689,16.688,16.689c9.218,0,16.69-7.473,16.69-16.689c0-0.022-0.002-0.044-0.002-0.066h0.002v-5.787
				c8.525-1.883,14.907-9.474,14.907-18.565v-39.433C347.283,136.806,340.847,129.184,332.265,127.343z"/>
		</g>
		<g>
			<path fill="#222221" d="M657.36,437.458h-58.404v-36.913c3.813-2.02,7.45-4.327,10.883-6.892
				c2.871-2.145,5.577-4.489,8.146-6.978c10.738-10.411,18.702-23.669,22.62-38.579c1.519-5.783,2.434-11.81,2.671-18.01
				c0.041-1.064,0.067-2.132,0.067-3.206v-58.594H476.697l0,0v58.594c0,7.332,0.959,14.44,2.738,21.216
				c5.976,22.737,21.312,41.678,41.648,52.449v36.913H462.68l0,0c-21.934,0-41.79,8.89-56.164,23.265
				c-14.373,14.374-23.263,34.231-23.263,56.165l0,0h353.534C736.787,473.021,701.228,437.458,657.36,437.458z"/>
			<path fill="#222221" d="M685.799,241.113c-2.594-71.421-53.621-128.406-125.778-128.406
				c-72.158,0-123.186,56.985-125.779,128.406c-8.582,1.842-15.019,9.463-15.019,18.594v39.434c0,9.091,6.381,16.682,14.906,18.564
				v5.787h0.003c0,0.023-0.003,0.044-0.003,0.065c0,9.217,7.473,16.69,16.688,16.69c9.218,0,16.69-7.473,16.69-16.69
				c0-0.126-0.016-0.25-0.019-0.377h0.018v-65.054h92.514h92.514v65.054h0.017c-0.003,0.128-0.019,0.251-0.019,0.377
				c0,9.217,7.473,16.69,16.688,16.69c9.218,0,16.69-7.473,16.69-16.69c0-0.021-0.003-0.042-0.003-0.065h0.003v-5.787
				c8.525-1.882,14.906-9.473,14.906-18.564v-39.434C700.817,250.576,694.381,242.955,685.799,241.113z"/>
		</g>
	</g>
	<path fill="#222221" d="M747.093,660.635l-100.712-36.867c0.023-0.687,0.052-1.376,0.052-2.071c0-31.06-25.18-56.236-56.238-56.236
		H259.87c-26.784,0-49.179,18.73-54.84,43.803h-34.548c-18.963,0-34.336,15.373-34.336,34.336h-1.774h-24.273H91.156H74.022
		c-0.013,0-0.023-0.003-0.035-0.003H53.274V630.87c0-6.867-5.565-12.435-12.432-12.435c-6.866,0-12.431,5.567-12.431,12.435v12.726
		H17.169C7.687,643.596,0,651.282,0,660.766c0,9.482,7.687,17.17,17.169,17.17h40.836h15.983h17.168h18.942h24.273h8.878h27.232
		h15.983h73.405h14.798h111.396v85.633c0,20.707,16.784,37.494,37.492,37.494s37.492-16.787,37.492-37.494v-85.633h55.977
		c-0.52,2.287-0.82,4.659-0.82,7.104c0,17.655,14.313,31.968,31.967,31.968c6.573,0,12.68-1.989,17.759-5.392v20.188
		c0,12.752,10.337,23.089,23.087,23.089c12.752,0,23.088-10.337,23.088-23.089v-47.468l98.305,55.651
		c16.76,7.749,45.255-18.217,53.001-34.975C771.161,688.252,763.854,668.384,747.093,660.635z M565.931,697.758
		c-3.967,5.53-10.435,9.146-17.759,9.146c-12.074,0-21.862-9.789-21.862-21.863c0-2.491,0.437-4.875,1.203-7.104H546.1v11.12
		c0,2.179,1.768,3.946,3.946,3.946c2.183,0,3.95-1.768,3.95-3.946v-11.12h11.935V697.758z"/>
</g>
</svg>
