<?xml version="1.0" encoding="utf-8"?>
<!-- Generator: Adobe Illustrator 15.0.0, SVG Export Plug-In . SVG Version: 6.00 Build 0)  -->
<!DOCTYPE svg PUBLIC "-//W3C//DTD SVG 1.1//EN" "http://www.w3.org/Graphics/SVG/1.1/DTD/svg11.dtd">
<svg version="1.1" id="Capa_1" xmlns="http://www.w3.org/2000/svg" xmlns:xlink="http://www.w3.org/1999/xlink" x="0px" y="0px"
	 width="800px" height="800px" viewBox="0 0 800 800" enable-background="new 0 0 800 800" xml:space="preserve">
<path fill="#222221" d="M0,0v800h800V0H0z M190.141,752.073c1.891-1.222,3.708-2.453,5.428-3.687
	c54.526-39.1,50.751-96.626,81.657-147.381c40.198-66.014,103.802-70.561,168.772-88.563
	c113.49-31.448,128.424-175.59,230.616-214.547c30.44-11.604,56.756-10.783,75.459-18.549v472.727H190.141z"/>
<path fill="#222221" d="M672.443,558.97v-47.757h-59.978h-14.541v47.757v45.927c-19.027,3.429-33.468,20.062-33.468,40.077
	c0,22.502,18.238,40.74,40.74,40.74c22.499,0,40.738-18.238,40.738-40.74c0-20.015-14.44-36.648-33.47-40.077V558.97H672.443z"/>
<g>
	<path fill="#FFFFFF" d="M298.652,466.95l-63.298-50.63l-2.961,19.455c-47.744-21.079-80.858-67.868-84.011-120.728l-38.642,2.304
		c2.211,37.052,15.514,71.943,38.471,100.901c20.545,25.918,47.449,45.425,78.195,56.852l-3.25,21.353L298.652,466.95z"/>
	<path fill="#FFFFFF" d="M533.25,313.915l-35.016-73.101l19.621,1.511c-9.746-51.272-47.842-94.104-98.621-109.119l10.977-37.121
		c35.594,10.525,66.576,31.369,89.598,60.275c20.604,25.871,33.525,56.486,37.712,89.019l21.535,1.66L533.25,313.915z"/>
	<polygon fill="#FFFFFF" points="182.005,139.226 333.631,305.658 306.267,330.587 411.354,364.047 387.793,256.315 
		360.883,280.831 209.258,114.398 	"/>
</g>
</svg>
