<?xml version="1.0" encoding="utf-8"?>
<!-- Generator: Adobe Illustrator 15.0.0, SVG Export Plug-In . SVG Version: 6.00 Build 0)  -->
<!DOCTYPE svg PUBLIC "-//W3C//DTD SVG 1.1//EN" "http://www.w3.org/Graphics/SVG/1.1/DTD/svg11.dtd">
<svg version="1.1" id="Capa_1" xmlns="http://www.w3.org/2000/svg" xmlns:xlink="http://www.w3.org/1999/xlink" x="0px" y="0px"
	 width="710.841px" height="800px" viewBox="0 0 710.841 800" enable-background="new 0 0 710.841 800" xml:space="preserve">
<g>
	<g>
		<path fill="#222221" d="M377.102,691.244h-80.35v-50.783c36.313-19.232,61.065-57.39,61.065-101.344v-92.134
			c0-63.308-51.322-114.63-114.63-114.63s-114.631,51.323-114.631,114.63v92.134c0,43.954,24.751,82.111,61.065,101.344v50.783
			h-80.348C48.923,691.244,0,740.167,0,800.518h486.375C486.375,740.167,437.452,691.244,377.102,691.244z"/>
	</g>
	<g>
		<g>
			<path fill="#222221" d="M346.49,112.467l35.232,45.473c-10.792,8.375-16.758,22.253-14.352,36.671
				c3.49,20.912,23.272,35.036,44.185,31.545c6.496-1.084,12.335-3.742,17.193-7.514l39.359,50.802L581.34,149.598L490.825,32.764
				L346.49,112.467z"/>
			<path fill="#222221" d="M708.393,186.158l-76.748-99.062c3.752-20.049-0.741-41.547-14.216-58.938
				C592.405-4.141,545.938-10.04,513.64,14.985l90.616,116.962c7.166-5.551,13.021-12.162,17.541-19.434l68.137,87.947
				c3.948,5.099,11.282,6.027,16.38,2.08C711.414,198.589,712.344,191.255,708.393,186.158z"/>
		</g>
		<g>
			<path fill="#222221" d="M379.651,279.524c-5.082,0.197-10.311-0.213-15.604-1.246c-16.901-3.295-32.231-12.747-42.061-25.931
				c-21.206-28.447-16.819-70.537,9.386-90.073c2.534-1.887,6.11-1.361,7.996,1.167c1.886,2.53,1.363,6.11-1.166,7.996
				c-21.324,15.897-24.62,50.515-7.054,74.081c8.151,10.932,20.938,18.785,35.085,21.544c14.48,2.823,28.267,0.05,38.81-7.81
				c2.534-1.889,6.111-1.364,7.997,1.165c1.885,2.531,1.363,6.11-1.166,7.996C402.656,275.288,391.554,279.065,379.651,279.524z"/>
		</g>
		<g>
			<path fill="#222221" d="M362.293,321.241c-6.78,0.261-13.712-0.225-20.704-1.478c-24.219-4.341-46.282-17.793-60.529-36.906
				c-30.637-41.098-23.727-100.267,15.094-129.208c2.532-1.886,6.111-1.362,7.996,1.167c1.886,2.531,1.363,6.11-1.167,7.996
				c-33.854,25.237-39.698,77.084-12.761,113.216c12.531,16.813,31.99,28.652,53.382,32.489
				c21.914,3.925,43.095-0.707,59.646-13.046c2.533-1.889,6.112-1.363,7.997,1.166c1.886,2.53,1.363,6.11-1.166,7.996
				C396.302,314.904,379.812,320.564,362.293,321.241z"/>
		</g>
	</g>
</g>
</svg>
