<?xml version="1.0" encoding="utf-8"?>
<!-- Generator: Adobe Illustrator 16.0.0, SVG Export Plug-In . SVG Version: 6.00 Build 0)  -->
<!DOCTYPE svg PUBLIC "-//W3C//DTD SVG 1.1//EN" "http://www.w3.org/Graphics/SVG/1.1/DTD/svg11.dtd">
<svg version="1.1" id="Layer_1" xmlns="http://www.w3.org/2000/svg" xmlns:xlink="http://www.w3.org/1999/xlink" x="0px" y="0px"
	 width="126px" height="126px" viewBox="0 0 126 126" enable-background="new 0 0 126 126" xml:space="preserve">
<path stroke="#6D6E70" stroke-width="0" stroke-linecap="round" stroke-linejoin="round" d="M25.486,25.484
	C4.799,46.17,4.801,79.828,25.488,100.518c20.682,20.684,54.34,20.684,75.027-0.006c20.686-20.684,20.684-54.34,0.002-75.023
	C79.828,4.799,46.17,4.799,25.486,25.484z M94.729,94.729c-17.494,17.492-45.963,17.494-63.455,0.002
	c-17.498-17.498-17.496-45.967,0-63.461c17.492-17.492,45.959-17.494,63.457,0.004C112.225,48.766,112.223,77.234,94.729,94.729z
	 M55.801,100.549c3.139,0.939,6.307,1.385,9.426,1.385c14.191,0,27.332-9.25,31.604-23.523l-26.922,1.051L55.801,100.549z
	 M66.496,97.889c-0.422,0.02-0.844,0.045-1.27,0.045c-0.926,0-1.852-0.045-2.773-0.135l4.043-6.045V97.889z M87.162,82.791
	l3.602-0.141c-1.01,1.867-2.227,3.598-3.602,5.182V82.791z M78.33,83.135l5.832-0.227v7.912c-1.779,1.537-3.734,2.867-5.832,3.938
	V83.135z M75.33,83.252v12.824c-1.873,0.705-3.826,1.223-5.834,1.527V87.27l2.604-3.891L75.33,83.252z M73.736,56.307
	c-1.229-1.229-1.229-3.221,0-4.451l9.457-9.455c1.229-1.229,3.221-1.229,4.451,0c1.229,1.229,1.229,3.223-0.002,4.451l-9.455,9.455
	C76.959,57.535,74.965,57.535,73.736,56.307z M87.848,58.682c0,2.254-1.826,4.08-4.078,4.08s-4.078-1.826-4.078-4.08
	c0-2.252,1.826-4.08,4.078-4.08S87.848,56.43,87.848,58.682z M52.262,51.855c1.229,1.23,1.229,3.223,0,4.451s-3.223,1.229-4.451,0
	l-9.455-9.455c-1.229-1.229-1.229-3.223,0-4.451s3.221-1.229,4.451,0L52.262,51.855z M46.309,58.682c0,2.254-1.828,4.08-4.08,4.08
	s-4.078-1.826-4.078-4.08c0-2.252,1.826-4.08,4.078-4.08S46.309,56.43,46.309,58.682z"/>
</svg>
