<?xml version="1.0" encoding="utf-8"?>
<!-- Generator: Adobe Illustrator 16.0.0, SVG Export Plug-In . SVG Version: 6.00 Build 0)  -->
<!DOCTYPE svg PUBLIC "-//W3C//DTD SVG 1.1//EN" "http://www.w3.org/Graphics/SVG/1.1/DTD/svg11.dtd">
<svg version="1.1" id="Layer_1" xmlns="http://www.w3.org/2000/svg" xmlns:xlink="http://www.w3.org/1999/xlink" x="0px" y="0px"
	 width="126px" height="126px" viewBox="0 0 126 126" enable-background="new 0 0 126 126" xml:space="preserve">
<path stroke="#6D6E70" stroke-width="0" stroke-linecap="round" stroke-linejoin="round" d="M25.486,25.483
	C4.799,46.169,4.801,79.829,25.488,100.517c20.682,20.684,54.34,20.684,75.027-0.004c20.686-20.684,20.684-54.341,0.002-75.024
	C79.828,4.799,46.17,4.799,25.486,25.483z M94.729,94.728c-17.494,17.494-45.963,17.496-63.455,0.002
	c-17.498-17.497-17.496-45.966,0-63.46c17.492-17.493,45.959-17.495,63.457,0.002C112.225,48.766,112.223,77.235,94.729,94.728z
	 M62.93,67.749c-11.246,0-21.281,7.315-25.564,18.636c-0.191,0.506-0.148,1.089,0.117,1.55s0.715,0.739,1.197,0.74l48.639,0.068
	h0.002c0.479,0,0.926-0.273,1.191-0.729c0.268-0.455,0.316-1.033,0.133-1.54C84.51,75.099,74.416,67.749,62.93,67.749z
	 M43.896,85.972l-2.469-0.002c-0.43-0.001-0.828-0.202-1.066-0.534c-0.234-0.333-0.273-0.754-0.104-1.119
	c0.533-1.144,1.178-2.225,1.9-3.249h1.738V85.972z M74.141,73.152c2.641,1.154,5.018,2.712,7.014,4.615h-7.014V73.152z
	 M57.24,85.988l-9.785-0.012v-4.908h9.785V85.988z M57.24,77.768h-9.785v-2.016c2.834-2.045,6.17-3.52,9.785-4.283V77.768z
	 M70.582,86.002l-9.785-0.011v-4.924h9.785V86.002z M70.582,77.768h-9.785v-6.809c0.729-0.057,1.461-0.095,2.201-0.095
	c2.635,0,5.186,0.36,7.584,1.024V77.768z M83.926,86.018l-9.785-0.011v-4.939h9.785V86.018z M73.736,56.307
	c-1.229-1.229-1.229-3.221,0-4.451l9.457-9.455c1.229-1.229,3.221-1.229,4.451,0c1.229,1.229,1.229,3.222-0.002,4.451l-9.455,9.455
	C76.959,57.536,74.965,57.536,73.736,56.307z M87.848,58.682c0,2.254-1.826,4.08-4.078,4.08s-4.078-1.826-4.078-4.08
	c0-2.253,1.826-4.08,4.078-4.08S87.848,56.429,87.848,58.682z M38.355,46.852c-1.229-1.229-1.229-3.223,0-4.451s3.221-1.229,4.451,0
	l9.455,9.455c1.229,1.23,1.229,3.223,0,4.451s-3.223,1.229-4.451,0L38.355,46.852z M42.229,54.602c2.252,0,4.08,1.827,4.08,4.08
	c0,2.254-1.828,4.08-4.08,4.08s-4.078-1.826-4.078-4.08C38.15,56.429,39.977,54.602,42.229,54.602z"/>
</svg>
