<?xml version="1.0" encoding="utf-8"?>
<!-- Generator: Adobe Illustrator 16.0.0, SVG Export Plug-In . SVG Version: 6.00 Build 0)  -->
<!DOCTYPE svg PUBLIC "-//W3C//DTD SVG 1.1//EN" "http://www.w3.org/Graphics/SVG/1.1/DTD/svg11.dtd">
<svg version="1.1" id="Layer_1" xmlns="http://www.w3.org/2000/svg" xmlns:xlink="http://www.w3.org/1999/xlink" x="0px" y="0px"
	 width="126px" height="126px" viewBox="0 0 126 126" enable-background="new 0 0 126 126" xml:space="preserve">
<path stroke="#6D6E70" stroke-width="0" stroke-linecap="round" stroke-linejoin="round" d="M100.515,100.512
	c20.686-20.684,20.684-54.341,0.002-75.024C79.829,4.799,46.169,4.799,25.486,25.483C4.798,46.169,4.8,79.829,25.488,100.517
	C46.169,121.201,79.829,121.201,100.515,100.512z M31.273,31.27c17.493-17.493,45.959-17.495,63.457,0.002
	c17.494,17.494,17.492,45.962-0.002,63.455c-17.494,17.494-45.962,17.496-63.455,0.002C13.775,77.233,13.777,48.764,31.273,31.27z
	 M45.32,94.029h35.36c4.687,0,8.486-3.8,8.486-8.486v-9.752c0-4.687-3.799-8.486-8.486-8.486H45.32c-4.687,0-8.486,3.8-8.486,8.486
	v9.752C36.833,90.229,40.633,94.029,45.32,94.029z M77.075,70.608h5.322c1.297,0.939,2.271,2.294,2.725,3.872v4.175h-8.047V70.608z
	 M77.075,82.678h8.047v4.175c-0.454,1.578-1.427,2.933-2.725,3.872h-5.322V82.678z M65.019,70.608h8.033v8.047h-8.033V70.608z
	 M65.019,82.678h8.033v8.046h-8.033V82.678z M52.949,70.608h8.033v8.047h-8.033V70.608z M52.949,82.678h8.033v8.046h-8.033V82.678z
	 M40.878,74.48c0.454-1.578,1.428-2.933,2.725-3.872h5.322v8.047h-8.047V74.48z M40.878,82.678h8.047v8.046h-5.322
	c-1.297-0.938-2.271-2.293-2.725-3.872V82.678z M38.355,46.14c-1.229-1.229-1.229-3.222,0-4.451c1.229-1.229,3.222-1.229,4.451,0
	l9.456,9.455c1.229,1.229,1.229,3.222,0,4.451c-1.229,1.229-3.222,1.229-4.451,0L38.355,46.14z M73.737,55.596
	c-1.229-1.229-1.228-3.223,0-4.451l9.456-9.455c1.229-1.229,3.222-1.229,4.451,0c1.229,1.229,1.229,3.222,0,4.451l-9.456,9.456
	C76.959,56.824,74.966,56.825,73.737,55.596z"/>
</svg>
