<?xml version="1.0" encoding="utf-8"?>
<!-- Generator: Adobe Illustrator 16.0.0, SVG Export Plug-In . SVG Version: 6.00 Build 0)  -->
<!DOCTYPE svg PUBLIC "-//W3C//DTD SVG 1.1//EN" "http://www.w3.org/Graphics/SVG/1.1/DTD/svg11.dtd">
<svg version="1.1" id="Layer_1" xmlns="http://www.w3.org/2000/svg" xmlns:xlink="http://www.w3.org/1999/xlink" x="0px" y="0px"
	 width="126px" height="126px" viewBox="0 0 126 126" enable-background="new 0 0 126 126" xml:space="preserve">
<path stroke="#6D6E70" stroke-width="0" stroke-linecap="round" stroke-linejoin="round" d="M100.516,100.512
	c20.686-20.684,20.684-54.341,0.002-75.024C79.828,4.799,46.17,4.799,25.486,25.483C4.799,46.169,4.801,79.829,25.488,100.517
	C46.17,121.201,79.828,121.201,100.516,100.512z M31.273,31.27c17.492-17.493,45.959-17.495,63.457,0.002
	c17.494,17.494,17.492,45.962-0.002,63.455c-17.494,17.494-45.963,17.496-63.455,0.002C13.775,77.233,13.777,48.764,31.273,31.27z
	 M38.68,88.674l48.639,0.068h0.002c0.479,0,0.926-0.273,1.191-0.729c0.268-0.455,0.316-1.033,0.133-1.54
	C84.51,75.099,74.416,67.749,62.93,67.749c-11.246,0-21.281,7.315-25.564,18.636c-0.191,0.506-0.148,1.089,0.117,1.55
	S38.197,88.673,38.68,88.674z M74.141,73.152c2.641,1.154,5.018,2.712,7.014,4.615h-7.014V73.152z M74.141,81.068h9.785v4.95
	l-9.785-0.011V81.068z M60.797,70.958c0.729-0.057,1.461-0.095,2.201-0.095c2.635,0,5.186,0.36,7.584,1.024v5.88h-9.785V70.958z
	 M60.797,81.068h9.785v4.935l-9.785-0.011V81.068z M47.455,75.752c2.834-2.045,6.17-3.52,9.785-4.283v6.299h-9.785V75.752z
	 M47.455,81.068h9.785v4.92l-9.785-0.012V81.068z M40.258,84.317c0.533-1.144,1.178-2.225,1.9-3.249h1.738v4.904l-2.469-0.002
	c-0.43-0.001-0.828-0.202-1.066-0.534C40.127,85.103,40.088,84.682,40.258,84.317z M38.855,46.588c-1.229-1.229-1.229-3.221,0-4.45
	s3.221-1.229,4.451,0.001l9.455,9.455c0.014,0.014,0.023,0.031,0.037,0.045c1.16,1.127,1.885,2.701,1.885,4.446
	c0,3.427-2.777,6.203-6.199,6.203c-3.424,0-6.201-2.776-6.201-6.203c0-1.678,0.67-3.198,1.754-4.315L38.855,46.588z M72.314,56.085
	c0-1.744,0.723-3.318,1.883-4.445c0.016-0.015,0.023-0.032,0.039-0.046l9.457-9.455c1.229-1.23,3.221-1.23,4.451-0.001
	c1.229,1.229,1.229,3.222-0.002,4.45l-5.182,5.182c1.084,1.117,1.754,2.637,1.754,4.315c0,3.427-2.777,6.203-6.199,6.203
	C75.092,62.288,72.314,59.512,72.314,56.085z"/>
</svg>
