<?xml version="1.0" encoding="utf-8"?>
<!-- Generator: Adobe Illustrator 16.0.0, SVG Export Plug-In . SVG Version: 6.00 Build 0)  -->
<!DOCTYPE svg PUBLIC "-//W3C//DTD SVG 1.1//EN" "http://www.w3.org/Graphics/SVG/1.1/DTD/svg11.dtd">
<svg version="1.1" id="Layer_1" xmlns="http://www.w3.org/2000/svg" xmlns:xlink="http://www.w3.org/1999/xlink" x="0px" y="0px"
	 width="126px" height="126px" viewBox="0 0 126 126" enable-background="new 0 0 126 126" xml:space="preserve">
<path stroke="#6D6E70" stroke-width="0" stroke-linecap="round" stroke-linejoin="round" d="M100.517,25.488
	C79.828,4.799,46.17,4.799,25.486,25.483C4.798,46.17,4.8,79.828,25.488,100.517c20.682,20.685,54.34,20.685,75.026-0.005
	C121.2,79.828,121.198,46.172,100.517,25.488z M94.728,94.728c-17.493,17.493-45.962,17.495-63.455,0.003
	c-17.498-17.498-17.495-45.967,0-63.461c17.493-17.492,45.96-17.494,63.457,0.003C112.224,48.766,112.222,77.234,94.728,94.728z
	 M49.411,55.844c-2.258,0-4.09-2.777-4.09-6.203c0-3.424,1.832-6.201,4.09-6.201s4.09,2.777,4.09,6.201
	C53.501,53.066,51.669,55.844,49.411,55.844z M81.619,49.641c0,3.426-1.832,6.203-4.09,6.203s-4.09-2.777-4.09-6.203
	c0-3.424,1.832-6.201,4.09-6.201S81.619,46.217,81.619,49.641z M75.833,81.14c0,8.183-5.755,14.84-12.833,14.84
	s-12.833-6.657-12.833-14.84c0-8.181,5.755-14.835,12.833-14.835S75.833,72.959,75.833,81.14z M82.694,34.517
	c0.545,1.649-0.351,3.432-1.999,3.978l-16.681,5.52c-0.194,0.065-0.395,0.111-0.601,0.138c-0.027,0.004-0.055,0.012-0.082,0.015
	c-0.109,0.012-0.222,0.008-0.334,0.007c-0.11,0.001-0.22,0.005-0.328-0.006c-0.029-0.003-0.058-0.012-0.087-0.016
	c-0.202-0.026-0.399-0.071-0.591-0.136l-16.686-5.522c-1.649-0.546-2.544-2.326-1.999-3.976c0.546-1.65,2.325-2.546,3.978-1.999
	l15.717,5.2l15.715-5.201C80.367,31.973,82.148,32.868,82.694,34.517z"/>
</svg>
