<?xml version="1.0" encoding="utf-8"?>
<!-- Generator: Adobe Illustrator 16.0.0, SVG Export Plug-In . SVG Version: 6.00 Build 0)  -->
<!DOCTYPE svg PUBLIC "-//W3C//DTD SVG 1.1//EN" "http://www.w3.org/Graphics/SVG/1.1/DTD/svg11.dtd">
<svg version="1.1" id="Layer_1" xmlns="http://www.w3.org/2000/svg" xmlns:xlink="http://www.w3.org/1999/xlink" x="0px" y="0px"
	 width="126px" height="126px" viewBox="0 0 126 126" enable-background="new 0 0 126 126" xml:space="preserve">
<path stroke="#6D6E70" stroke-width="0" stroke-linecap="round" stroke-linejoin="round" d="M25.486,25.483
	C4.798,46.169,4.8,79.829,25.488,100.517c20.682,20.684,54.341,20.684,75.027-0.004c20.686-20.684,20.684-54.341,0.002-75.024
	C79.829,4.799,46.169,4.799,25.486,25.483z M94.728,94.728c-17.494,17.494-45.962,17.496-63.455,0.002
	c-17.498-17.497-17.496-45.966,0-63.46c17.493-17.493,45.959-17.495,63.457,0.002C112.224,48.766,112.222,77.235,94.728,94.728z
	 M38.355,46.14c-1.229-1.229-1.229-3.222,0-4.451c1.229-1.229,3.222-1.229,4.451,0l9.456,9.455c1.229,1.229,1.229,3.222,0,4.451
	c-1.229,1.229-3.222,1.229-4.451,0L38.355,46.14z M73.737,55.596c-1.229-1.229-1.228-3.223,0-4.451l9.456-9.455
	c1.229-1.229,3.222-1.229,4.451,0c1.229,1.229,1.229,3.222,0,4.451l-9.456,9.456C76.959,56.824,74.966,56.825,73.737,55.596z
	 M62.929,67.749c-11.245,0-21.28,7.315-25.563,18.636c-0.191,0.506-0.148,1.089,0.117,1.55s0.715,0.739,1.197,0.74l48.638,0.068
	c0,0,0.001,0,0.002,0c0.479,0,0.926-0.273,1.191-0.729c0.267-0.455,0.316-1.033,0.132-1.54
	C84.509,75.099,74.416,67.749,62.929,67.749z M43.896,85.972l-2.469-0.002c-0.43-0.001-0.828-0.202-1.065-0.534
	c-0.235-0.333-0.274-0.754-0.104-1.119c0.533-1.144,1.178-2.225,1.9-3.249h1.738V85.972z M74.141,73.152
	c2.64,1.154,5.017,2.712,7.013,4.615h-7.013V73.152z M57.24,85.988l-9.785-0.012v-4.908h9.785V85.988z M57.24,77.768h-9.785v-2.016
	c2.835-2.045,6.17-3.52,9.785-4.283V77.768z M70.583,86.002l-9.785-0.011v-4.924h9.785V86.002z M70.583,77.768h-9.785v-6.809
	c0.728-0.057,1.46-0.095,2.2-0.095c2.636,0,5.186,0.36,7.585,1.024V77.768z M83.926,86.018l-9.785-0.011v-4.939h9.785V86.018z"/>
</svg>
