<?xml version="1.0" encoding="utf-8"?>
<!-- Generator: Adobe Illustrator 16.0.0, SVG Export Plug-In . SVG Version: 6.00 Build 0)  -->
<!DOCTYPE svg PUBLIC "-//W3C//DTD SVG 1.1//EN" "http://www.w3.org/Graphics/SVG/1.1/DTD/svg11.dtd">
<svg version="1.1" id="Layer_1" xmlns="http://www.w3.org/2000/svg" xmlns:xlink="http://www.w3.org/1999/xlink" x="0px" y="0px"
	 width="126px" height="126px" viewBox="0 0 126 126" enable-background="new 0 0 126 126" xml:space="preserve">
<path stroke="#6D6E70" stroke-width="0" stroke-linecap="round" stroke-linejoin="round" d="M100.515,100.512
	c20.686-20.684,20.684-54.341,0.002-75.024C79.829,4.799,46.17,4.799,25.487,25.483C4.798,46.169,4.8,79.829,25.489,100.517
	C46.17,121.201,79.829,121.201,100.515,100.512z M31.273,31.27c17.493-17.493,45.96-17.495,63.457,0.002
	c17.494,17.494,17.492,45.962-0.002,63.455c-17.493,17.494-45.962,17.496-63.455,0.002C13.775,77.233,13.778,48.764,31.273,31.27z
	 M42.94,50.401l1.759-1.759l-1.76-1.761c-1.233-1.233-1.296-3.229-0.143-4.544c0.025-0.035,0.078-0.097,0.137-0.157
	c1.277-1.278,3.46-1.27,4.718-0.011l1.76,1.759l1.76-1.76c1.198-1.199,3.267-1.262,4.544-0.145c0.041,0.03,0.106,0.086,0.167,0.146
	c0.629,0.629,0.976,1.465,0.977,2.354c0,0.89-0.346,1.727-0.976,2.356l-1.76,1.76l1.758,1.759c0.63,0.629,0.977,1.466,0.977,2.355
	c0,0.89-0.346,1.727-0.976,2.357c-1.258,1.26-3.452,1.261-4.712,0l-1.758-1.758l-1.758,1.758c-0.631,0.63-1.467,0.977-2.356,0.977
	c-0.89,0-1.727-0.347-2.356-0.977C41.642,53.814,41.642,51.701,42.94,50.401z M71.057,50.386l1.759-1.759l-1.76-1.761
	c-1.233-1.233-1.296-3.229-0.143-4.544c0.025-0.035,0.078-0.097,0.137-0.157c1.277-1.278,3.46-1.27,4.718-0.011l1.76,1.759
	l1.76-1.76c1.198-1.199,3.267-1.262,4.544-0.145c0.041,0.03,0.106,0.086,0.167,0.146c0.629,0.629,0.976,1.465,0.977,2.354
	c0,0.89-0.346,1.727-0.976,2.356l-1.76,1.76l1.758,1.759c0.63,0.629,0.977,1.466,0.977,2.355c0,0.89-0.346,1.727-0.976,2.357
	c-1.258,1.26-3.452,1.261-4.712,0l-1.758-1.758l-1.758,1.758c-0.631,0.63-1.467,0.977-2.356,0.977c-0.89,0-1.727-0.347-2.356-0.977
	C69.758,53.8,69.758,51.686,71.057,50.386z M40.148,83.655v-4.104c0-0.552,0.448-1,1-1c1.268,0,3.809-0.976,4.904-2.504
	c0.188-0.262,0.491-0.417,0.813-0.417c0,0,0,0,0.001,0c0.323,0,0.625,0.156,0.813,0.419c1.119,1.567,2.949,2.503,4.895,2.503
	c1.949,0,3.779-0.936,4.896-2.502c0.188-0.263,0.49-0.419,0.813-0.419c0,0,0,0,0.001,0c0.322,0,0.625,0.155,0.813,0.417
	c1.124,1.568,2.957,2.504,4.902,2.504c1.948,0,3.779-0.936,4.9-2.503c0.375-0.525,1.251-0.525,1.627,0
	c1.121,1.567,2.952,2.503,4.898,2.503c1.948,0,3.779-0.936,4.9-2.503c0.188-0.262,0.49-0.418,0.813-0.418h0
	c0.322,0,0.625,0.155,0.813,0.417c1.095,1.529,3.634,2.504,4.9,2.504c0.552,0,1,0.448,1,1v4.104c0,0.552-0.448,1-1,1
	c-1.666,0-4.097-0.933-5.688-2.401c-1.492,1.521-3.561,2.401-5.739,2.401c-2.164,0-4.222-0.871-5.712-2.375
	c-1.49,1.504-3.548,2.375-5.713,2.375c-2.163,0-4.222-0.871-5.714-2.375c-1.488,1.504-3.546,2.375-5.712,2.375
	c-2.176,0-4.244-0.88-5.735-2.401c-1.592,1.468-4.024,2.401-5.691,2.401C40.596,84.655,40.148,84.208,40.148,83.655z"/>
</svg>
