<?xml version="1.0" encoding="utf-8"?>
<!-- Generator: Adobe Illustrator 16.0.0, SVG Export Plug-In . SVG Version: 6.00 Build 0)  -->
<!DOCTYPE svg PUBLIC "-//W3C//DTD SVG 1.1//EN" "http://www.w3.org/Graphics/SVG/1.1/DTD/svg11.dtd">
<svg version="1.1" id="Layer_1" xmlns="http://www.w3.org/2000/svg" xmlns:xlink="http://www.w3.org/1999/xlink" x="0px" y="0px"
	 width="126px" height="126px" viewBox="0 0 126 126" enable-background="new 0 0 126 126" xml:space="preserve">
<path stroke="#6D6E70" stroke-width="0" stroke-linecap="round" stroke-linejoin="round" d="M25.486,25.483
	C4.798,46.17,4.8,79.828,25.488,100.517c20.682,20.685,54.342,20.685,75.027-0.005c20.686-20.684,20.684-54.34,0.002-75.023
	C79.83,4.799,46.169,4.799,25.486,25.483z M94.728,94.728c-17.494,17.493-45.961,17.495-63.455,0.003
	c-17.498-17.498-17.496-45.967,0-63.461c17.494-17.492,45.959-17.494,63.457,0.003C112.224,48.766,112.222,77.234,94.728,94.728z
	 M43.042,56.98c-0.236,0.189-0.579,0.229-0.858,0.1c-0.294-0.146-0.468-0.428-0.468-0.741v-3.554c0-0.181,0.084-0.351,0.225-0.463
	l4.664-3.68l-4.664-3.681c-0.141-0.112-0.225-0.281-0.225-0.462v-3.552c0-0.313,0.181-0.604,0.46-0.738
	c0.112-0.055,0.236-0.082,0.358-0.082c0.183,0,0.363,0.062,0.507,0.175l9.755,7.695c0.197,0.158,0.308,0.392,0.308,0.645
	s-0.11,0.486-0.304,0.641L43.042,56.98z M74.144,49.285c-0.197-0.158-0.309-0.392-0.309-0.645S73.947,48.154,74.14,48l9.757-7.697
	c0.237-0.189,0.58-0.229,0.859-0.1c0.293,0.146,0.467,0.428,0.467,0.741v3.554c0,0.181-0.083,0.351-0.225,0.463l-4.664,3.68
	l4.664,3.681c0.142,0.112,0.225,0.281,0.225,0.462v3.552c0,0.313-0.18,0.604-0.459,0.738c-0.113,0.055-0.237,0.082-0.359,0.082
	c-0.183,0-0.363-0.062-0.506-0.175L74.144,49.285z M73.697,70.672c-3.975,0-7.481,0.274-9.572,3.495
	c-2.091-3.221-5.597-3.495-9.572-3.495c-6.408,0-11.602,5.49-11.602,12.265c0,6.771,5.194,9.676,11.602,9.676h19.144
	c6.408,0,11.602-2.904,11.602-9.676C85.299,76.162,80.104,70.672,73.697,70.672z M73.697,89.162H54.553
	c-4.598,0-8.338-1.366-8.338-6.226c0-4.86,3.741-8.815,8.338-8.815c4.279,0,5.887,0.467,6.88,1.998
	c0.609,0.938,1.616,1.498,2.691,1.498s2.083-0.561,2.691-1.498c0.993-1.531,2.601-1.998,6.88-1.998c4.598,0,8.338,3.955,8.338,8.815
	C82.035,87.796,78.294,89.162,73.697,89.162z"/>
</svg>
