<?xml version="1.0" encoding="utf-8"?>
<!-- Generator: Adobe Illustrator 16.0.0, SVG Export Plug-In . SVG Version: 6.00 Build 0)  -->
<!DOCTYPE svg PUBLIC "-//W3C//DTD SVG 1.1//EN" "http://www.w3.org/Graphics/SVG/1.1/DTD/svg11.dtd">
<svg version="1.1" id="Layer_1" xmlns="http://www.w3.org/2000/svg" xmlns:xlink="http://www.w3.org/1999/xlink" x="0px" y="0px"
	 width="126px" height="126px" viewBox="0 0 126 126" enable-background="new 0 0 126 126" xml:space="preserve">
<path stroke="#6D6E70" stroke-width="0" stroke-linecap="round" stroke-linejoin="round" d="M100.517,25.488
	C79.829,4.799,46.169,4.799,25.486,25.483C4.798,46.169,4.8,79.829,25.488,100.517c20.682,20.684,54.341,20.684,75.027-0.004
	C121.201,79.829,121.199,46.171,100.517,25.488z M94.728,94.728c-17.494,17.494-45.962,17.496-63.455,0.002
	c-17.498-17.497-17.496-45.966,0-63.46c17.493-17.493,45.959-17.495,63.457,0.002C112.224,48.766,112.222,77.235,94.728,94.728z
	 M47.811,55.595l-9.456-9.456c-1.229-1.229-1.229-3.222,0-4.451c1.229-1.229,3.222-1.229,4.451,0l9.456,9.455
	c1.229,1.229,1.229,3.222,0,4.451C51.033,56.824,49.04,56.824,47.811,55.595z M87.644,41.689c1.229,1.229,1.229,3.222,0,4.451
	l-9.456,9.456c-1.229,1.229-3.222,1.229-4.451,0c-1.229-1.229-1.228-3.223,0-4.451l9.456-9.455
	C84.422,40.46,86.415,40.46,87.644,41.689z M85.61,81c0,1.921-1.558,3.478-3.479,3.478H43.873c-1.921,0-3.479-1.557-3.479-3.478
	s1.558-3.478,3.479-3.478h38.259C84.052,77.522,85.61,79.079,85.61,81z"/>
</svg>
