<?xml version="1.0" encoding="utf-8"?>
<!-- Generator: Adobe Illustrator 16.0.0, SVG Export Plug-In . SVG Version: 6.00 Build 0)  -->
<!DOCTYPE svg PUBLIC "-//W3C//DTD SVG 1.1//EN" "http://www.w3.org/Graphics/SVG/1.1/DTD/svg11.dtd">
<svg version="1.1" id="Layer_1" xmlns="http://www.w3.org/2000/svg" xmlns:xlink="http://www.w3.org/1999/xlink" x="0px" y="0px"
	 width="126px" height="126px" viewBox="0 0 126 126" enable-background="new 0 0 126 126" xml:space="preserve">
<path stroke="#6D6E70" stroke-width="0" stroke-linecap="round" stroke-linejoin="round" d="M25.486,25.484
	C4.798,46.17,4.8,79.829,25.488,100.518c20.682,20.684,54.341,20.684,75.027-0.005c20.686-20.684,20.684-54.341,0.002-75.024
	C79.829,4.8,46.17,4.8,25.486,25.484z M94.728,94.729c-17.494,17.493-45.961,17.495-63.455,0.002
	c-17.498-17.497-17.496-45.966,0-63.46c17.494-17.493,45.959-17.495,63.457,0.003C112.224,48.767,112.222,77.235,94.728,94.729z
	 M44.436,42.45c-3.46-1.343-2.093-4.774-2.093-4.774c1.303-3.355,5.027-1.91,5.027-1.91c3.202,1.244,5.376,6.973,5.376,6.973
	c-2.719-0.586-4.6-0.154-4.6-0.154C46.01,43.061,44.436,42.45,44.436,42.45z M48.412,55.313c-1.818,0-3.292-2.091-3.292-4.671
	c0-2.578,1.475-4.67,3.292-4.67c1.817,0,3.292,2.092,3.292,4.67C51.703,53.222,50.229,55.313,48.412,55.313z M82.73,37.576
	c0,0,1.367,3.43-2.093,4.773c0,0-1.574,0.611-3.71,0.133c0,0-1.88-0.43-4.6,0.156c0,0,2.174-5.729,5.376-6.974
	C77.703,35.665,81.427,34.219,82.73,37.576z M79.954,50.541c0,2.58-1.475,4.672-3.292,4.672c-1.817,0-3.292-2.092-3.292-4.672
	c0-2.578,1.475-4.67,3.292-4.67C78.479,45.871,79.954,47.963,79.954,50.541z M79.363,81.14c0,9.027-7.34,16.371-16.363,16.371
	S46.636,90.167,46.636,81.14c0-9.023,7.34-16.365,16.363-16.365S79.363,72.116,79.363,81.14z"/>
</svg>
