<?xml version="1.0" encoding="utf-8"?>
<!-- Generator: Adobe Illustrator 16.0.0, SVG Export Plug-In . SVG Version: 6.00 Build 0)  -->
<!DOCTYPE svg PUBLIC "-//W3C//DTD SVG 1.1//EN" "http://www.w3.org/Graphics/SVG/1.1/DTD/svg11.dtd">
<svg version="1.1" id="Layer_1" xmlns="http://www.w3.org/2000/svg" xmlns:xlink="http://www.w3.org/1999/xlink" x="0px" y="0px"
	 width="126px" height="126px" viewBox="0 0 126 126" enable-background="new 0 0 126 126" xml:space="preserve">
<path stroke="#6D6E70" stroke-width="0" stroke-linecap="round" stroke-linejoin="round" d="M25.486,25.483
	C4.798,46.17,4.8,79.828,25.488,100.517c20.682,20.685,54.342,20.685,75.027-0.005c20.686-20.684,20.684-54.34,0.002-75.023
	C79.83,4.799,46.169,4.799,25.486,25.483z M55.099,93.292c-0.032-0.22-0.046-0.454-0.072-0.68c-0.103-0.903-0.168-1.838-0.167-2.811
	c0-0.218,0.006-0.428,0.012-0.64c0.055-2.208,0.359-4.061,0.583-5.141c0.324-0.062,0.69-0.093,1.092-0.093
	c3.049,0,6.922,1.734,6.956,1.751c0.008,0.003,0.079,0.034,0.087,0.036c0.375,0.146,0.786,0.136,1.164-0.036
	c0.038-0.018,3.901-1.751,6.955-1.751c0.402,0,0.769,0.031,1.094,0.094c0.226,1.076,0.533,2.928,0.591,5.14
	c0.005,0.21,0.012,0.418,0.012,0.634c0.003,0.972-0.062,1.908-0.165,2.816c-0.025,0.223-0.039,0.454-0.07,0.672
	c-0.853,5.879-3.895,9.92-9.042,12.014C58.995,103.212,55.958,99.173,55.099,93.292z M53.431,80.689
	c-0.467,0.218-0.819,0.657-0.969,1.205c-0.008,0.028-0.748,2.822-0.89,6.617c-0.005,0.137,0,0.27-0.003,0.405
	c-3.126-0.568-5.354-2.233-5.354-5.98c0-4.86,3.741-8.815,8.338-8.815c4.279,0,5.887,0.467,6.88,1.998
	c0.609,0.938,1.616,1.498,2.691,1.498s2.083-0.561,2.691-1.498c0.993-1.531,2.601-1.998,6.88-1.998c4.598,0,8.338,3.955,8.338,8.815
	c0,3.747-2.229,5.412-5.355,5.98c-0.003-0.138,0.002-0.272-0.003-0.41c-0.145-3.848-0.884-6.592-0.889-6.61
	c-0.149-0.549-0.501-0.988-0.968-1.207c-0.864-0.406-1.912-0.612-3.114-0.612c-2.904,0-6.168,1.184-7.581,1.758
	c-1.41-0.574-4.667-1.758-7.581-1.758C55.342,80.077,54.294,80.283,53.431,80.689z M94.728,94.728
	c-7.484,7.483-16.977,11.755-26.758,12.836c6.274-3.787,8.19-10.146,8.621-15.177c5.005-0.785,8.708-3.736,8.708-9.45
	c0-6.774-5.194-12.265-11.602-12.265c-3.975,0-7.481,0.274-9.572,3.495c-2.091-3.221-5.597-3.495-9.572-3.495
	c-6.408,0-11.602,5.49-11.602,12.265c0,5.714,3.704,8.665,8.709,9.451c0.438,5.126,2.414,11.635,8.981,15.395
	c-10.691-0.557-21.22-4.904-29.369-13.052c-17.498-17.498-17.496-45.967,0-63.461c17.494-17.492,45.959-17.494,63.457,0.003
	C112.224,48.766,112.222,77.234,94.728,94.728z M52.796,47.998c0.197,0.158,0.308,0.392,0.308,0.645s-0.11,0.486-0.304,0.641
	l-9.758,7.697c-0.236,0.189-0.579,0.229-0.858,0.1c-0.294-0.146-0.468-0.428-0.468-0.741v-3.554c0-0.181,0.084-0.351,0.225-0.463
	l4.664-3.68l-4.664-3.681c-0.141-0.112-0.225-0.281-0.225-0.462v-3.552c0-0.313,0.181-0.604,0.46-0.738
	c0.112-0.055,0.236-0.082,0.358-0.082c0.183,0,0.363,0.062,0.507,0.175L52.796,47.998z M85.223,40.944v3.554
	c0,0.181-0.083,0.351-0.225,0.463l-4.664,3.68l4.664,3.681c0.142,0.112,0.225,0.281,0.225,0.462v3.552
	c0,0.313-0.18,0.604-0.459,0.738c-0.113,0.055-0.237,0.082-0.359,0.082c-0.183,0-0.363-0.062-0.506-0.175l-9.755-7.695
	c-0.197-0.158-0.309-0.392-0.309-0.645S73.947,48.154,74.14,48l9.757-7.697c0.237-0.189,0.58-0.229,0.859-0.1
	C85.049,40.349,85.223,40.631,85.223,40.944z"/>
</svg>
