<?xml version="1.0" encoding="utf-8"?>
<!-- Generator: Adobe Illustrator 16.0.0, SVG Export Plug-In . SVG Version: 6.00 Build 0)  -->
<!DOCTYPE svg PUBLIC "-//W3C//DTD SVG 1.1//EN" "http://www.w3.org/Graphics/SVG/1.1/DTD/svg11.dtd">
<svg version="1.1" id="Layer_1" xmlns="http://www.w3.org/2000/svg" xmlns:xlink="http://www.w3.org/1999/xlink" x="0px" y="0px"
	 width="126px" height="126px" viewBox="0 0 126 126" enable-background="new 0 0 126 126" xml:space="preserve">
<path stroke="#6D6E70" stroke-width="0" stroke-linecap="round" stroke-linejoin="round" d="M100.515,100.513
	c20.686-20.684,20.684-54.341,0.002-75.024C79.828,4.8,46.17,4.8,25.486,25.483C4.798,46.17,4.8,79.829,25.488,100.517
	C46.17,121.201,79.828,121.201,100.515,100.513z M31.272,31.271c17.493-17.493,45.96-17.495,63.457,0.002
	c17.494,17.494,17.492,45.963-0.002,63.455c-17.493,17.494-45.962,17.496-63.455,0.003C13.774,77.233,13.777,48.765,31.272,31.271z
	 M43.211,48.642c0-3.424,2.777-6.201,6.2-6.201s6.2,2.777,6.2,6.201c0,3.426-2.777,6.203-6.2,6.203S43.211,52.067,43.211,48.642z
	 M71.327,48.642c0-3.424,2.78-6.201,6.203-6.201s6.2,2.777,6.2,6.201c0,3.426-2.777,6.203-6.2,6.203S71.327,52.067,71.327,48.642z
	 M63.071,94.696c11.245,0,21.278-6.399,25.563-16.304c0.191-0.442,0.146-0.952-0.118-1.356c-0.265-0.402-0.714-0.646-1.196-0.646
	l-48.638-0.06c-0.001,0-0.002,0-0.002,0c-0.479,0-0.926,0.239-1.192,0.638c-0.266,0.398-0.315,0.903-0.131,1.347
	C41.491,88.266,51.585,94.696,63.071,94.696z M73.816,88.263h0.006v-4.574h-0.006v-5.152l4.028,0.005v8.389
	c-1.219,1.126-2.568,2.109-4.028,2.925V88.263z M65.422,78.525l3.82,0.005v13.231c-1.233,0.354-2.514,0.594-3.82,0.731V78.525z
	 M56.569,78.515l4.348,0.006v14.001c-1.495-0.137-2.952-0.408-4.348-0.82V78.515z M48.421,83.531h0.004v-5.025l3.569,0.004v11.251
	c-1.255-0.71-2.429-1.536-3.5-2.477V87.25h-0.073V83.531z"/>
</svg>
