<?xml version="1.0" encoding="utf-8"?>
<!-- Generator: Adobe Illustrator 16.0.0, SVG Export Plug-In . SVG Version: 6.00 Build 0)  -->
<!DOCTYPE svg PUBLIC "-//W3C//DTD SVG 1.1//EN" "http://www.w3.org/Graphics/SVG/1.1/DTD/svg11.dtd">
<svg version="1.1" id="Layer_1" xmlns="http://www.w3.org/2000/svg" xmlns:xlink="http://www.w3.org/1999/xlink" x="0px" y="0px"
	 width="126px" height="126px" viewBox="0 0 126 126" enable-background="new 0 0 126 126" xml:space="preserve">
<path stroke="#6D6E70" stroke-width="0" stroke-linecap="round" stroke-linejoin="round" d="M101.016,100.512
	c20.686-20.684,20.684-54.341,0.002-75.024C80.329,4.799,46.671,4.799,25.987,25.483C5.299,46.169,5.301,79.829,25.989,100.517
	C46.671,121.201,80.329,121.201,101.016,100.512z M31.773,31.27c17.493-17.493,45.96-17.495,63.457,0.002
	c17.494,17.494,17.492,45.962-0.002,63.455c-17.493,17.494-45.962,17.496-63.455,0.002C14.275,77.233,14.278,48.764,31.773,31.27z"
	/>
<path stroke="#6D6E70" stroke-width="0" stroke-linecap="round" stroke-linejoin="round" d="M49.466,54.937
	c0.134,0.092,0.29,0.138,0.446,0.138c0.159,0,0.318-0.048,0.455-0.145c0.059-0.041,1.456-1.032,2.87-2.466
	c1.985-2.013,2.991-3.857,2.991-5.485c0-1.024-0.365-2.114-1.002-2.988c-0.728-1-1.683-1.551-2.688-1.551
	c-1,0-1.942,0.437-2.626,1.173c-0.683-0.736-1.625-1.173-2.625-1.173c-1.008,0-1.963,0.551-2.691,1.551
	c-0.637,0.874-1.002,1.963-1.002,2.988C43.594,50.869,49.226,54.772,49.466,54.937z"/>
<path stroke="#6D6E70" stroke-width="0" stroke-linecap="round" stroke-linejoin="round" d="M63.561,88.668
	c10.085,0,19.085-5.742,22.928-14.629c0.657-1.521-0.042-3.287-1.563-3.944c-1.521-0.66-3.286,0.042-3.944,1.563
	c-2.893,6.689-9.73,11.011-17.421,11.011c-7.868,0-14.747-4.319-17.523-11.004c-0.479-1.154-1.596-1.85-2.771-1.85
	c-0.384,0-0.773,0.074-1.149,0.23c-1.531,0.636-2.256,2.392-1.62,3.921C44.206,82.897,53.26,88.668,63.561,88.668z"/>
<path stroke="#6D6E70" stroke-width="0" stroke-linecap="round" stroke-linejoin="round" d="M77.585,54.937
	c0.134,0.092,0.29,0.138,0.446,0.138c0.159,0,0.318-0.048,0.455-0.145c0.059-0.041,1.456-1.032,2.87-2.466
	c1.985-2.013,2.991-3.857,2.991-5.485c0-1.024-0.365-2.114-1.002-2.988c-0.728-1-1.683-1.551-2.688-1.551
	c-1,0-1.942,0.437-2.626,1.173c-0.683-0.736-1.625-1.173-2.625-1.173c-1.008,0-1.963,0.551-2.691,1.551
	c-0.637,0.874-1.002,1.963-1.002,2.988C71.713,50.869,77.345,54.772,77.585,54.937z"/>
</svg>
