<?xml version="1.0" encoding="utf-8"?>
<!-- Generator: Adobe Illustrator 16.0.0, SVG Export Plug-In . SVG Version: 6.00 Build 0)  -->
<!DOCTYPE svg PUBLIC "-//W3C//DTD SVG 1.1//EN" "http://www.w3.org/Graphics/SVG/1.1/DTD/svg11.dtd">
<svg version="1.1" id="Layer_1" xmlns="http://www.w3.org/2000/svg" xmlns:xlink="http://www.w3.org/1999/xlink" x="0px" y="0px"
	 width="126px" height="126px" viewBox="0 0 126 126" enable-background="new 0 0 126 126" xml:space="preserve">
<path stroke="#6D6E70" stroke-width="0" stroke-linecap="round" stroke-linejoin="round" d="M100.518,25.488
	C79.829,4.799,46.17,4.799,25.486,25.483C4.798,46.17,4.8,79.828,25.488,100.517c20.682,20.685,54.341,20.685,75.027-0.005
	C121.201,79.828,121.199,46.172,100.518,25.488z M94.729,94.728c-17.494,17.493-45.962,17.495-63.456,0.003
	c-17.498-17.498-17.495-45.967,0-63.461c17.494-17.492,45.96-17.494,63.458,0.003C112.225,48.766,112.223,77.234,94.729,94.728z
	 M90.524,48.643c0,1.738-1.408,3.146-3.146,3.146h-4.982c-1.079,1.826-3.062,3.055-5.334,3.055c-3.423,0-6.201-2.774-6.203-6.199
	c0-0.001,0-0.001,0-0.002c0,0,0,0,0-0.001v-0.001c0-3.423,2.779-6.2,6.203-6.2c2.273,0,4.256,1.229,5.335,3.056h4.981
	C89.116,45.496,90.524,46.904,90.524,48.643z M43.606,51.789h-4.983c-1.738,0-3.147-1.409-3.147-3.146
	c0-1.738,1.409-3.147,3.147-3.147h4.983c1.079-1.826,3.063-3.055,5.335-3.055c3.424,0,6.201,2.777,6.201,6.2v0.001
	c0,0.001,0,0.001,0,0.001c0,0.001,0,0.001,0,0.002c-0.003,3.425-2.778,6.199-6.201,6.199C46.669,54.844,44.687,53.615,43.606,51.789
	z M86.338,81.858c-0.382,0.816-3.932,7.99-10.653,8.478c-0.235,0.018-0.472,0.026-0.708,0.026c-4.216,0-8.309-2.741-12.177-8.16
	c-1.956-2.739-4.956-5.978-8.213-5.978c-0.049,0-0.097,0-0.145,0.001c-3.674,0.109-6.985,4.249-7.951,5.835
	c-0.682,1.118-2.288,1.557-3.589,0.97c-1.3-0.585-1.808-1.966-1.131-3.088c0.198-0.329,4.942-8.065,12.468-8.301
	c4.725-0.144,9.124,2.596,13.092,8.155c2.863,4.011,5.67,6.148,7.907,5.969c2.761-0.201,5.346-3.876,6.164-5.625
	c0.552-1.174,2.1-1.744,3.465-1.269C86.23,79.347,86.888,80.684,86.338,81.858z"/>
</svg>
