<?xml version="1.0" encoding="utf-8"?>
<!-- Generator: Adobe Illustrator 16.0.0, SVG Export Plug-In . SVG Version: 6.00 Build 0)  -->
<!DOCTYPE svg PUBLIC "-//W3C//DTD SVG 1.1//EN" "http://www.w3.org/Graphics/SVG/1.1/DTD/svg11.dtd">
<svg version="1.1" id="Layer_1" xmlns="http://www.w3.org/2000/svg" xmlns:xlink="http://www.w3.org/1999/xlink" x="0px" y="0px"
	 width="126px" height="126px" viewBox="0 0 126 126" enable-background="new 0 0 126 126" xml:space="preserve">
<path stroke="#6D6E70" stroke-width="0" stroke-linecap="round" stroke-linejoin="round" d="M25.486,25.483
	C4.798,46.169,4.8,79.829,25.488,100.517c20.682,20.684,54.341,20.684,75.027-0.004c20.686-20.684,20.684-54.341,0.002-75.024
	C79.829,4.799,46.17,4.799,25.486,25.483z M94.729,94.728c-17.494,17.494-45.962,17.496-63.456,0.002
	c-17.498-17.497-17.495-45.966,0-63.46c17.494-17.493,45.96-17.495,63.458,0.002C112.225,48.766,112.223,77.235,94.729,94.728z
	 M90.524,48.643c0,1.738-1.408,3.147-3.146,3.147h-4.982c-1.079,1.826-3.062,3.055-5.334,3.055c-3.423,0-6.201-2.775-6.203-6.2
	v-0.001v0v0c0,0,0,0,0,0c0-3.423,2.779-6.201,6.203-6.201c2.272,0,4.256,1.229,5.335,3.055h4.981
	C89.116,45.496,90.524,46.905,90.524,48.643z M53.997,52.233c0.721-1.013,1.145-2.252,1.146-3.59v0
	C55.142,49.981,54.718,51.22,53.997,52.233z M43.606,51.789h-4.983c-1.738,0-3.147-1.409-3.147-3.147s1.409-3.147,3.147-3.147h4.983
	c1.079-1.826,3.063-3.055,5.335-3.055c3.424,0,6.201,2.777,6.201,6.201c0,0,0,0,0,0v0c0,0,0,0,0,0l-2.735,5.143
	c-0.989,0.669-2.183,1.059-3.466,1.059C46.669,54.844,44.686,53.616,43.606,51.789z M85.609,81c0,1.921-1.558,3.478-3.479,3.478
	H43.872c-1.921,0-3.479-1.557-3.479-3.478s1.558-3.478,3.479-3.478h38.259C84.052,77.522,85.609,79.079,85.609,81z"/>
</svg>
