<?xml version="1.0" encoding="utf-8"?>
<!-- Generator: Adobe Illustrator 16.0.0, SVG Export Plug-In . SVG Version: 6.00 Build 0)  -->
<!DOCTYPE svg PUBLIC "-//W3C//DTD SVG 1.1//EN" "http://www.w3.org/Graphics/SVG/1.1/DTD/svg11.dtd">
<svg version="1.1" id="Layer_1" xmlns="http://www.w3.org/2000/svg" xmlns:xlink="http://www.w3.org/1999/xlink" x="0px" y="0px"
	 width="126px" height="126px" viewBox="0 0 126 126" enable-background="new 0 0 126 126" xml:space="preserve">
<path stroke="#6D6E70" stroke-width="0" stroke-linecap="round" stroke-linejoin="round" d="M100.515,100.512
	c20.686-20.684,20.684-54.341,0.002-75.024C79.828,4.799,46.169,4.799,25.485,25.483C4.798,46.169,4.8,79.829,25.487,100.517
	C46.169,121.201,79.828,121.201,100.515,100.512z M31.272,31.27c17.493-17.493,45.959-17.495,63.457,0.002
	c17.494,17.494,17.492,45.962-0.002,63.455c-17.494,17.494-45.962,17.496-63.455,0.002C13.774,77.233,13.776,48.764,31.272,31.27z"
	/>
<path stroke="#6D6E70" stroke-width="0" stroke-linecap="round" stroke-linejoin="round" d="M85.609,81
	c0-1.921-1.558-3.478-3.479-3.478H43.872c-1.921,0-3.479,1.557-3.479,3.478s1.558,3.478,3.479,3.478h38.259
	C84.052,84.478,85.609,82.921,85.609,81z"/>
<path stroke="#6D6E70" stroke-width="0" stroke-linecap="round" stroke-linejoin="round" d="M41.686,57.08
	c0.279,0.13,0.622,0.09,0.858-0.1l9.758-7.697c0.193-0.154,0.304-0.388,0.304-0.641s-0.11-0.486-0.308-0.645l-9.755-7.695
	c-0.144-0.113-0.324-0.175-0.507-0.175c-0.122,0-0.246,0.027-0.358,0.082c-0.279,0.135-0.46,0.425-0.46,0.738V44.5
	c0,0.181,0.084,0.35,0.225,0.462l4.664,3.681l-4.664,3.68c-0.141,0.112-0.225,0.282-0.225,0.463v3.554
	C41.218,56.652,41.392,56.935,41.686,57.08z"/>
<path stroke="#6D6E70" stroke-width="0" stroke-linecap="round" stroke-linejoin="round" d="M83.4,56.98
	c0.143,0.113,0.323,0.175,0.506,0.175c0.122,0,0.246-0.027,0.359-0.082c0.279-0.135,0.459-0.425,0.459-0.738v-3.552
	c0-0.181-0.083-0.35-0.225-0.462l-4.664-3.681l4.664-3.68c0.142-0.112,0.225-0.282,0.225-0.463v-3.554
	c0-0.313-0.174-0.596-0.467-0.741c-0.279-0.13-0.622-0.09-0.859,0.1L73.642,48c-0.193,0.154-0.305,0.388-0.305,0.641
	s0.111,0.486,0.309,0.645L83.4,56.98z"/>
</svg>
