<?xml version="1.0" encoding="utf-8"?>
<!-- Generator: Adobe Illustrator 16.0.0, SVG Export Plug-In . SVG Version: 6.00 Build 0)  -->
<!DOCTYPE svg PUBLIC "-//W3C//DTD SVG 1.1//EN" "http://www.w3.org/Graphics/SVG/1.1/DTD/svg11.dtd">
<svg version="1.1" id="Layer_1" xmlns="http://www.w3.org/2000/svg" xmlns:xlink="http://www.w3.org/1999/xlink" x="0px" y="0px"
	 width="126px" height="126px" viewBox="0 0 126 126" enable-background="new 0 0 126 126" xml:space="preserve">
<path stroke="#6D6E70" stroke-width="0" stroke-linecap="round" stroke-linejoin="round" d="M25.486,25.483
	C4.799,46.169,4.801,79.829,25.488,100.517c20.682,20.684,54.34,20.684,75.027-0.004c20.686-20.684,20.684-54.341,0.002-75.024
	C79.828,4.799,46.17,4.799,25.486,25.483z M94.729,94.728c-17.494,17.494-45.963,17.496-63.455,0.002
	c-17.498-17.497-17.496-45.966,0-63.46c17.492-17.493,45.959-17.495,63.457,0.002C112.225,48.766,112.223,77.235,94.729,94.728z
	 M47.811,55.595l-9.455-9.456c-1.229-1.229-1.229-3.222,0-4.451s3.221-1.229,4.451,0l9.455,9.455c1.229,1.229,1.229,3.222,0,4.451
	C51.033,56.824,49.039,56.824,47.811,55.595z M87.645,41.689c1.229,1.229,1.229,3.222-0.002,4.451l-9.455,9.456
	c-1.229,1.229-3.223,1.229-4.451,0c-1.229-1.229-1.227-3.223,0-4.451l9.457-9.455C84.422,40.46,86.414,40.46,87.645,41.689z
	 M80.125,80.169c0,7.057-7.906,12.798-17.625,12.798s-17.625-5.741-17.625-12.798c0-7.055,7.906-12.794,17.625-12.794
	S80.125,73.114,80.125,80.169z"/>
</svg>
