<?xml version="1.0" encoding="utf-8"?>
<!-- Generator: Adobe Illustrator 16.0.0, SVG Export Plug-In . SVG Version: 6.00 Build 0)  -->
<!DOCTYPE svg PUBLIC "-//W3C//DTD SVG 1.1//EN" "http://www.w3.org/Graphics/SVG/1.1/DTD/svg11.dtd">
<svg version="1.1" id="Layer_1" xmlns="http://www.w3.org/2000/svg" xmlns:xlink="http://www.w3.org/1999/xlink" x="0px" y="0px"
	 width="126px" height="126px" viewBox="0 0 126 126" enable-background="new 0 0 126 126" xml:space="preserve">
<path stroke="#6D6E70" stroke-width="0" stroke-linecap="round" stroke-linejoin="round" d="M100.515,100.512
	c20.686-20.684,20.684-54.341,0.002-75.024C79.828,4.799,46.17,4.799,25.486,25.483C4.798,46.169,4.8,79.829,25.488,100.517
	C46.17,121.201,79.828,121.201,100.515,100.512z M31.272,31.27c17.493-17.493,45.96-17.495,63.457,0.002
	c17.494,17.494,17.492,45.962-0.002,63.455c-17.493,17.494-45.962,17.496-63.455,0.002C13.774,77.233,13.777,48.764,31.272,31.27z
	 M63.071,90.696c11.245,0,21.278-6.4,25.563-16.304c0.191-0.443,0.146-0.953-0.118-1.356s-0.714-0.646-1.196-0.647l-48.638-0.06
	c-0.001,0-0.002,0-0.002,0c-0.479,0-0.926,0.239-1.192,0.637c-0.266,0.398-0.315,0.904-0.131,1.347
	C41.491,84.265,51.585,90.696,63.071,90.696z M83.005,76.384c-4.288,6.369-11.729,10.313-19.934,10.313
	c-8.401,0-15.917-3.962-20.132-10.361L83.005,76.384z M43.211,48.641c0-3.423,2.777-6.201,6.2-6.201s6.2,2.777,6.2,6.201
	c0,3.426-2.777,6.203-6.2,6.203S43.211,52.067,43.211,48.641z M71.327,48.641c0-3.423,2.78-6.201,6.203-6.201s6.2,2.777,6.2,6.201
	c0,3.426-2.777,6.203-6.2,6.203S71.327,52.067,71.327,48.641z"/>
</svg>
