<?xml version="1.0" encoding="utf-8"?>
<!-- Generator: Adobe Illustrator 16.0.0, SVG Export Plug-In . SVG Version: 6.00 Build 0)  -->
<!DOCTYPE svg PUBLIC "-//W3C//DTD SVG 1.1//EN" "http://www.w3.org/Graphics/SVG/1.1/DTD/svg11.dtd">
<svg version="1.1" id="Layer_1" xmlns="http://www.w3.org/2000/svg" xmlns:xlink="http://www.w3.org/1999/xlink" x="0px" y="0px"
	 width="126px" height="126px" viewBox="0 0 126 126" enable-background="new 0 0 126 126" xml:space="preserve">
<path stroke="#6D6E70" stroke-width="0" stroke-linecap="round" stroke-linejoin="round" d="M100.016,100.512
	c20.686-20.684,20.684-54.341,0.002-75.024C79.329,4.799,45.67,4.799,24.986,25.483C4.299,46.169,4.301,79.829,24.988,100.517
	C45.67,121.201,79.329,121.201,100.016,100.512z M30.773,31.27c17.493-17.493,45.959-17.495,63.457,0.002
	c17.494,17.494,17.492,45.962-0.002,63.455c-17.494,17.494-45.962,17.496-63.455,0.002C13.275,77.233,13.277,48.764,30.773,31.27z"
	/>
<path stroke="#6D6E70" stroke-width="0" stroke-linecap="round" stroke-linejoin="round" d="M38.123,51.789h13.372
	c1.738,0,3.147-1.409,3.147-3.147s-1.409-3.147-3.147-3.147H38.123c-1.738,0-3.147,1.409-3.147,3.147S36.385,51.789,38.123,51.789z"
	/>
<path stroke="#6D6E70" stroke-width="0" stroke-linecap="round" stroke-linejoin="round" d="M73.505,51.79h13.372
	c1.738,0,3.147-1.409,3.147-3.147s-1.409-3.147-3.147-3.147H73.505c-1.737,0-3.147,1.409-3.147,3.147S71.768,51.79,73.505,51.79z"/>
<path stroke="#6D6E70" stroke-width="0" stroke-linecap="round" stroke-linejoin="round" d="M39.895,81
	c0,1.921,1.558,3.478,3.479,3.478h38.259c1.921,0,3.479-1.557,3.479-3.478s-1.558-3.478-3.479-3.478H43.373
	C41.452,77.522,39.895,79.079,39.895,81z"/>
</svg>
