<?xml version="1.0" encoding="utf-8"?>
<!-- Generator: Adobe Illustrator 16.0.0, SVG Export Plug-In . SVG Version: 6.00 Build 0)  -->
<!DOCTYPE svg PUBLIC "-//W3C//DTD SVG 1.1//EN" "http://www.w3.org/Graphics/SVG/1.1/DTD/svg11.dtd">
<svg version="1.1" id="Layer_1" xmlns="http://www.w3.org/2000/svg" xmlns:xlink="http://www.w3.org/1999/xlink" x="0px" y="0px"
	 width="126px" height="126px" viewBox="0 0 126 126" enable-background="new 0 0 126 126" xml:space="preserve">
<path stroke="#6D6E70" stroke-width="0" stroke-linecap="round" stroke-linejoin="round" d="M100.517,25.488
	C79.829,4.799,46.17,4.799,25.486,25.483C4.798,46.169,4.8,79.829,25.488,100.517c20.682,20.684,54.341,20.684,75.027-0.004
	C121.201,79.829,121.199,46.171,100.517,25.488z M94.728,94.728c-17.494,17.494-45.961,17.496-63.455,0.002
	c-17.498-17.497-17.496-45.966,0-63.46c17.494-17.493,45.959-17.495,63.457,0.002C112.224,48.766,112.222,77.235,94.728,94.728z
	 M88.517,71.036c0.265,0.403,0.309,0.913,0.118,1.356c-4.284,9.904-14.318,16.304-25.563,16.304
	c-11.486,0-21.58-6.431-25.714-16.382c-0.184-0.443-0.135-0.949,0.132-1.347c0.266-0.398,0.713-0.637,1.192-0.637
	c0,0,0.001,0,0.002,0l48.638,0.06C87.803,70.39,88.252,70.633,88.517,71.036z M43.211,48.641c0-3.423,2.777-6.201,6.201-6.201
	c3.423,0,6.2,2.777,6.2,6.201c0,3.426-2.777,6.203-6.2,6.203C45.988,54.844,43.211,52.067,43.211,48.641z M71.328,48.641
	c0-3.423,2.78-6.201,6.203-6.201c3.423,0,6.201,2.777,6.201,6.201c0,3.426-2.777,6.203-6.201,6.203
	C74.108,54.844,71.328,52.067,71.328,48.641z"/>
</svg>
