<?xml version="1.0" encoding="utf-8"?>
<!-- Generator: Adobe Illustrator 16.0.0, SVG Export Plug-In . SVG Version: 6.00 Build 0)  -->
<!DOCTYPE svg PUBLIC "-//W3C//DTD SVG 1.1//EN" "http://www.w3.org/Graphics/SVG/1.1/DTD/svg11.dtd">
<svg version="1.1" id="Layer_1" xmlns="http://www.w3.org/2000/svg" xmlns:xlink="http://www.w3.org/1999/xlink" x="0px" y="0px"
	 width="126px" height="126px" viewBox="0 0 126 126" enable-background="new 0 0 126 126" xml:space="preserve">
<path stroke="#6D6E70" stroke-width="0" stroke-linecap="round" stroke-linejoin="round" d="M25.486,25.484
	C4.798,46.17,4.8,79.828,25.488,100.518c20.682,20.684,54.341,20.684,75.027-0.006c20.686-20.684,20.684-54.34,0.002-75.023
	C79.829,4.799,46.169,4.799,25.486,25.484z M94.728,94.729c-17.494,17.492-45.962,17.494-63.455,0.002
	c-9.995-9.994-14.27-23.568-12.846-36.633l45.824,3.76l43.221-4.605C109.178,70.574,104.938,84.52,94.728,94.729z M42.283,52.086
	c0-3.424,2.777-6.201,6.201-6.201c3.422,0,6.199,2.777,6.199,6.201c0,3.426-2.777,6.203-6.199,6.203
	C45.06,58.289,42.283,55.512,42.283,52.086z M72.314,52.086c0-3.424,2.777-6.201,6.201-6.201c3.422,0,6.199,2.777,6.199,6.201
	c0,3.426-2.777,6.203-6.199,6.203C75.091,58.289,72.314,55.512,72.314,52.086z M63.75,41.5l-42.219,4.375
	c2.187-5.316,5.431-10.295,9.742-14.605c17.493-17.492,45.959-17.494,63.457,0.004c4.53,4.529,7.876,9.799,10.061,15.42L63.75,41.5z
	 M37.366,88.385c-0.191,0.506-0.148,1.088,0.117,1.549s0.715,0.74,1.197,0.74l48.638,0.068h0.002c0.479,0,0.926-0.273,1.191-0.729
	c0.268-0.455,0.316-1.033,0.133-1.539C84.509,77.1,74.416,69.748,62.929,69.748C51.684,69.748,41.649,77.064,37.366,88.385z
	 M43.896,87.973l-2.469-0.002c-0.43-0.002-0.828-0.201-1.065-0.535c-0.235-0.332-0.274-0.754-0.104-1.119
	c0.533-1.143,1.178-2.225,1.9-3.248h1.738V87.973z M57.24,87.988l-9.785-0.012v-4.908h9.785V87.988z M57.24,79.768h-9.785v-2.016
	c2.835-2.045,6.17-3.52,9.785-4.283V79.768z M70.583,88.002l-9.785-0.01v-4.924h9.785V88.002z M74.141,75.152
	c2.64,1.154,5.017,2.713,7.013,4.615h-7.013V75.152z M74.141,83.068h9.785v4.949l-9.785-0.01V83.068z M70.583,73.887v5.881h-9.785
	v-6.809c0.728-0.057,1.46-0.096,2.2-0.096C65.633,72.863,68.183,73.223,70.583,73.887z"/>
</svg>
