<?xml version="1.0" encoding="utf-8"?>
<!-- Generator: Adobe Illustrator 16.0.0, SVG Export Plug-In . SVG Version: 6.00 Build 0)  -->
<!DOCTYPE svg PUBLIC "-//W3C//DTD SVG 1.1//EN" "http://www.w3.org/Graphics/SVG/1.1/DTD/svg11.dtd">
<svg version="1.1" id="Layer_1" xmlns="http://www.w3.org/2000/svg" xmlns:xlink="http://www.w3.org/1999/xlink" x="0px" y="0px"
	 width="126px" height="126px" viewBox="0 0 126 126" enable-background="new 0 0 126 126" xml:space="preserve">
<path stroke="#6D6E70" stroke-width="0" stroke-linecap="round" stroke-linejoin="round" d="M100.515,100.512
	c20.686-20.684,20.684-54.34,0.002-75.023C79.829,4.799,46.17,4.799,25.486,25.482C4.798,46.17,4.8,79.828,25.488,100.516
	C46.17,121.201,79.829,121.201,100.515,100.512z M31.273,31.27c17.494-17.492,45.96-17.494,63.457,0.002
	c2.769,2.77,5.096,5.814,6.988,9.045l-9.992,4.51c-1.628-5.424-6.661-9.389-12.608-9.389c-6.293,0-11.563,4.441-12.856,10.354
	h-6.677c-1.307-5.893-6.566-10.316-12.847-10.316c-5.972,0-11.021,4-12.626,9.461l-9.91-4.473
	C26.11,37.176,28.462,34.08,31.273,31.27z M22.658,43.377l10.931,4.934c-0.002,0.111-0.017,0.219-0.017,0.33
	c0,7.262,5.907,13.168,13.166,13.168c7.11,0,12.908-5.67,13.144-12.725h6.095c0.255,7.037,6.044,12.688,13.142,12.688
	c7.26,0,13.167-5.906,13.167-13.168c0-0.137-0.017-0.271-0.021-0.408l11.005-4.967c8.206,16.752,5.367,37.592-8.542,51.498
	c-17.493,17.494-45.961,17.496-63.455,0.004C17.403,80.861,14.541,60.104,22.658,43.377z M39.996,73.965
	c-0.636-1.529,0.089-3.285,1.62-3.922c0.376-0.156,0.766-0.23,1.15-0.23c1.176,0.002,2.292,0.697,2.771,1.852
	c2.777,6.684,9.655,11.004,17.523,11.004c7.69,0,14.528-4.322,17.421-11.012c0.658-1.52,2.424-2.221,3.944-1.563
	s2.22,2.424,1.563,3.945c-3.843,8.887-12.843,14.629-22.928,14.629C52.759,88.668,43.706,82.896,39.996,73.965z"/>
</svg>
