<?xml version="1.0" encoding="utf-8"?>
<!-- Generator: Adobe Illustrator 16.0.0, SVG Export Plug-In . SVG Version: 6.00 Build 0)  -->
<!DOCTYPE svg PUBLIC "-//W3C//DTD SVG 1.1//EN" "http://www.w3.org/Graphics/SVG/1.1/DTD/svg11.dtd">
<svg version="1.1" id="Layer_1" xmlns="http://www.w3.org/2000/svg" xmlns:xlink="http://www.w3.org/1999/xlink" x="0px" y="0px"
	 width="126px" height="126px" viewBox="0 0 126 126" enable-background="new 0 0 126 126" xml:space="preserve">
<path stroke="#6D6E70" stroke-width="0" stroke-linecap="round" stroke-linejoin="round" d="M25.488,100.517
	c20.682,20.685,54.34,20.685,75.027-0.004c20.686-20.684,20.684-54.341,0.002-75.024C79.828,4.8,46.17,4.8,25.486,25.483
	C4.799,46.17,4.801,79.829,25.488,100.517z M54.16,81.166c-1.404,0-2.627,0.214-3.635,0.635c-0.543,0.227-0.955,0.683-1.129,1.251
	c-0.008,0.023-0.617,2.079-0.91,5.069c-3.523-2.146-5.979-5.201-7.266-9.077c-0.369-1.54-0.41-3.828,0.088-4.468
	c0.068-0.086,0.338-0.122,0.547-0.127c0.326,0.007,0.871,0.054,1.361,0.164c2.055,1.013,9.283,4.167,19.539,4.167
	c6.785,0,13.502-1.399,19.887-4.135c0.996-0.244,1.912-0.244,2.047-0.071c0.5,0.643,0.459,2.929,0.102,4.427
	c-1.297,3.913-3.75,6.969-7.271,9.116c-0.293-3.021-0.904-5.047-0.91-5.063c-0.174-0.569-0.584-1.025-1.129-1.253
	c-1.008-0.421-2.23-0.635-3.633-0.635c-3.389,0-7.195,1.228-8.844,1.823C61.359,82.394,57.559,81.166,54.16,81.166z M31.273,31.271
	c17.492-17.493,45.959-17.495,63.457,0.002c17.494,17.494,17.492,45.963-0.002,63.455c-6.643,6.643-14.867,10.756-23.473,12.354
	c4.389-3.893,5.902-9.001,6.297-13.202c0.023-0.248,0.027-0.506,0.043-0.758c5.938-2.705,9.951-7.114,11.92-13.161
	c0.057-0.219,1.363-5.4-0.789-8.181c-0.871-1.123-2.164-1.692-3.848-1.692c-0.805,0-1.707,0.132-2.752,0.415
	c-6.279,2.714-12.801,4.09-19.381,4.09c-11.178,0-18.76-4.03-18.834-4.07c-0.035-0.019-0.072-0.033-0.109-0.044
	c-0.848-0.226-1.82-0.365-2.67-0.384v0.002c-0.021-0.003-0.041-0.004-0.063-0.004l-0.133-0.005c-0.047,0-0.094,0.008-0.139,0.021
	c-1.547,0.073-2.742,0.657-3.555,1.738c-2.098,2.789-0.814,7.896-0.75,8.144c1.959,6.021,5.977,10.431,11.916,13.135
	c0.018,0.251,0.021,0.511,0.045,0.758c0.395,4.201,1.908,9.309,6.299,13.201c-8.607-1.597-16.836-5.71-23.48-12.354
	C13.775,77.233,13.777,48.765,31.273,31.271z M43.211,48.642c0-3.424,2.777-6.201,6.201-6.201c3.422,0,6.199,2.777,6.199,6.201
	c0,3.426-2.777,6.203-6.199,6.203C45.988,54.845,43.211,52.067,43.211,48.642z M71.328,48.642c0-3.424,2.779-6.201,6.203-6.201
	c3.422,0,6.199,2.777,6.199,6.201c0,3.426-2.777,6.203-6.199,6.203C74.107,54.845,71.328,52.067,71.328,48.642z"/>
</svg>
