<?xml version="1.0" encoding="utf-8"?>
<!-- Generator: Adobe Illustrator 16.0.0, SVG Export Plug-In . SVG Version: 6.00 Build 0)  -->
<!DOCTYPE svg PUBLIC "-//W3C//DTD SVG 1.1//EN" "http://www.w3.org/Graphics/SVG/1.1/DTD/svg11.dtd">
<svg version="1.1" id="Layer_1" xmlns="http://www.w3.org/2000/svg" xmlns:xlink="http://www.w3.org/1999/xlink" x="0px" y="0px"
	 width="126px" height="126px" viewBox="0 0 126 126" enable-background="new 0 0 126 126" xml:space="preserve">
<path stroke="#6D6E70" stroke-width="0" stroke-linecap="round" stroke-linejoin="round" d="M25.486,25.483
	C4.799,46.17,4.801,79.829,25.488,100.517c20.682,20.685,54.34,20.685,75.027-0.004c20.686-20.684,20.684-54.341,0.002-75.024
	C79.828,4.8,46.17,4.8,25.486,25.483z M63.004,106.334c-5.986-2.165-9.529-6.355-10.531-12.457c-0.188-1.142-0.281-2.36-0.279-3.621
	c0.004-2.584,0.406-4.77,0.693-5.997c0.377-0.064,0.805-0.097,1.273-0.097c3.557,0,8.074,1.8,8.113,1.816
	c0.01,0.004,0.092,0.035,0.104,0.038c0.438,0.151,0.916,0.141,1.357-0.038c0.043-0.018,4.551-1.816,8.113-1.816
	c0.469,0,0.896,0.032,1.275,0.098c0.289,1.223,0.695,3.402,0.705,5.989c0.004,1.256-0.088,2.474-0.275,3.62
	C72.559,99.969,69.01,104.162,63.004,106.334z M50.525,80.801c-0.543,0.227-0.955,0.683-1.129,1.251
	c-0.008,0.026-0.75,2.521-0.99,6.021c-3.48-2.145-5.908-5.182-7.186-9.028c-0.369-1.54-0.41-3.828,0.088-4.468
	c0.068-0.086,0.338-0.122,0.547-0.127c0.326,0.007,0.871,0.054,1.361,0.164c2.055,1.013,9.283,4.167,19.539,4.167
	c6.785,0,13.502-1.399,19.887-4.135c0.996-0.244,1.912-0.244,2.047-0.071c0.5,0.643,0.459,2.929,0.102,4.427
	c-1.287,3.884-3.715,6.922-7.191,9.066c-0.242-3.542-0.984-5.995-0.99-6.014c-0.174-0.569-0.584-1.025-1.129-1.253
	c-1.008-0.421-2.23-0.635-3.633-0.635c-3.389,0-7.195,1.228-8.844,1.823c-1.645-0.596-5.445-1.823-8.844-1.823
	C52.756,80.166,51.533,80.38,50.525,80.801z M94.729,94.728c-7.061,7.06-15.906,11.267-25.098,12.629
	c5.533-3.918,7.402-9.565,7.889-14.196c5.98-2.702,10.02-7.126,11.996-13.199c0.057-0.219,1.363-5.4-0.789-8.181
	c-0.871-1.123-2.164-1.692-3.848-1.692c-0.805,0-1.707,0.132-2.752,0.415c-6.279,2.714-12.801,4.09-19.381,4.09
	c-11.178,0-18.76-4.03-18.834-4.07c-0.035-0.019-0.072-0.033-0.109-0.044c-0.848-0.226-1.82-0.365-2.67-0.384v0.002
	c-0.021-0.003-0.041-0.004-0.063-0.004l-0.133-0.005c-0.047,0-0.094,0.008-0.139,0.021c-1.547,0.073-2.742,0.657-3.555,1.738
	c-2.098,2.789-0.814,7.896-0.75,8.144c1.969,6.048,6.01,10.473,11.992,13.173c0.486,4.63,2.357,10.276,7.893,14.194
	c-9.193-1.359-18.045-5.566-25.105-12.628c-17.498-17.497-17.496-45.966,0-63.46c17.492-17.493,45.959-17.495,63.457,0.002
	C112.225,48.767,112.223,77.235,94.729,94.728z M52.799,47.842c0.197,0.158,0.309,0.392,0.309,0.645s-0.111,0.486-0.305,0.641
	l-9.758,7.697c-0.236,0.189-0.578,0.229-0.857,0.1c-0.295-0.146-0.469-0.428-0.469-0.741v-3.554c0-0.181,0.084-0.351,0.225-0.463
	l4.664-3.68l-4.664-3.681c-0.141-0.112-0.225-0.281-0.225-0.462v-3.552c0-0.313,0.182-0.604,0.461-0.738
	c0.111-0.055,0.236-0.082,0.357-0.082c0.184,0,0.363,0.062,0.508,0.175L52.799,47.842z M74.146,49.129
	c-0.197-0.158-0.309-0.392-0.309-0.645s0.111-0.486,0.305-0.641l9.758-7.697c0.236-0.189,0.58-0.229,0.859-0.1
	c0.293,0.146,0.467,0.428,0.467,0.741v3.554c0,0.181-0.084,0.351-0.225,0.463l-4.664,3.68l4.664,3.681
	c0.141,0.112,0.225,0.281,0.225,0.462v3.552c0,0.313-0.18,0.604-0.459,0.738c-0.113,0.055-0.238,0.082-0.359,0.082
	c-0.184,0-0.363-0.062-0.506-0.175L74.146,49.129z"/>
</svg>
