<?xml version="1.0" encoding="utf-8"?>
<!-- Generator: Adobe Illustrator 16.0.0, SVG Export Plug-In . SVG Version: 6.00 Build 0)  -->
<!DOCTYPE svg PUBLIC "-//W3C//DTD SVG 1.1//EN" "http://www.w3.org/Graphics/SVG/1.1/DTD/svg11.dtd">
<svg version="1.1" id="Layer_1" xmlns="http://www.w3.org/2000/svg" xmlns:xlink="http://www.w3.org/1999/xlink" x="0px" y="0px"
	 width="126px" height="126px" viewBox="0 0 126 126" enable-background="new 0 0 126 126" xml:space="preserve">
<path stroke="#6D6E70" stroke-width="0" stroke-linecap="round" stroke-linejoin="round" d="M100.516,100.512
	c20.686-20.684,20.684-54.34,0.002-75.023C79.828,4.799,46.17,4.799,25.486,25.483C4.799,46.17,4.801,79.828,25.488,100.517
	C46.17,121.201,79.828,121.201,100.516,100.512z M31.273,31.27c17.492-17.492,45.959-17.494,63.457,0.003
	c17.494,17.493,17.492,45.962-0.002,63.455s-45.963,17.495-63.455,0.003C13.775,77.232,13.777,48.764,31.273,31.27z M32.74,49.775
	c0-1.738,1.408-3.146,3.146-3.146l13.373-0.002c0.029,0,0.055,0.008,0.082,0.009c1.609-0.018,3.225,0.581,4.453,1.81
	c2.422,2.422,2.422,6.35,0.002,8.77c-2.42,2.421-6.348,2.421-8.771-0.002c-1.186-1.187-1.783-2.735-1.805-4.291h-7.334
	C34.148,52.922,32.74,51.514,32.74,49.775z M73.408,57.309c-2.42-2.42-2.42-6.348,0.002-8.77c1.229-1.229,2.842-1.827,4.453-1.81
	c0.027-0.001,0.053-0.009,0.082-0.009l13.373,0.002c1.738,0,3.146,1.408,3.146,3.146s-1.408,3.146-3.146,3.146h-7.334
	c-0.023,1.556-0.619,3.104-1.805,4.291C79.756,59.729,75.828,59.729,73.408,57.309z M43.873,77.521h38.26
	c1.92,0,3.479,1.558,3.479,3.479s-1.559,3.479-3.479,3.479h-38.26c-1.92,0-3.479-1.558-3.479-3.479S41.953,77.521,43.873,77.521z"/>
</svg>
