<?xml version="1.0" encoding="utf-8"?>
<!-- Generator: Adobe Illustrator 16.0.0, SVG Export Plug-In . SVG Version: 6.00 Build 0)  -->
<!DOCTYPE svg PUBLIC "-//W3C//DTD SVG 1.1//EN" "http://www.w3.org/Graphics/SVG/1.1/DTD/svg11.dtd">
<svg version="1.1" id="Layer_1" xmlns="http://www.w3.org/2000/svg" xmlns:xlink="http://www.w3.org/1999/xlink" x="0px" y="0px"
	 width="126px" height="126px" viewBox="0 0 126 126" enable-background="new 0 0 126 126" xml:space="preserve">
<path stroke="#6D6E70" stroke-width="0" stroke-linecap="round" stroke-linejoin="round" d="M63,116.029
	c13.586,0,27.172-5.172,37.516-15.518c20.686-20.684,20.684-54.34,0.002-75.023C90.173,15.143,76.586,9.971,63,9.971
	c-13.587,0-27.173,5.17-37.515,15.514C4.798,46.17,4.8,79.828,25.487,100.516C35.828,110.859,49.414,116.029,63,116.029z
	 M31.272,31.27C40.02,22.523,51.509,18.15,63,18.15c11.49,0,22.98,4.373,31.729,13.123c17.494,17.492,17.492,45.961-0.002,63.453
	C85.98,103.475,74.49,107.848,63,107.85c-11.49,0-22.98-4.373-31.728-13.119c-2.188-2.188-4.101-4.547-5.741-7.033
	C14.049,70.287,15.964,46.578,31.272,31.27z M61.955,83c0-2.482,1.305-4.496,2.912-4.496h24.27c1.607,0,2.911,2.014,2.911,4.496
	s-1.304,4.496-2.911,4.496h-24.27C63.26,87.496,61.955,85.482,61.955,83z M41.711,40.641c0-4.113,3.12-7.451,6.965-7.451
	c3.846,0,6.966,3.338,6.966,7.451c0,4.117-3.12,7.453-6.966,7.453C44.831,48.094,41.711,44.758,41.711,40.641z M71.297,40.641
	c0-4.113,3.123-7.451,6.969-7.451c3.845,0,6.965,3.338,6.965,7.451c0,4.117-3.12,7.453-6.965,7.453
	C74.42,48.094,71.297,44.758,71.297,40.641z"/>
</svg>
