<?xml version="1.0" encoding="utf-8"?>
<!-- Generator: Adobe Illustrator 16.0.0, SVG Export Plug-In . SVG Version: 6.00 Build 0)  -->
<!DOCTYPE svg PUBLIC "-//W3C//DTD SVG 1.1//EN" "http://www.w3.org/Graphics/SVG/1.1/DTD/svg11.dtd">
<svg version="1.1" id="Layer_1" xmlns="http://www.w3.org/2000/svg" xmlns:xlink="http://www.w3.org/1999/xlink" x="0px" y="0px"
	 width="126px" height="126px" viewBox="0 0 126 126" enable-background="new 0 0 126 126" xml:space="preserve">
<path stroke="#6D6E70" stroke-width="0" stroke-linecap="round" stroke-linejoin="round" d="M100.517,25.488
	C79.829,4.799,46.17,4.799,25.486,25.483C4.798,46.169,4.8,79.829,25.488,100.517c20.682,20.684,54.341,20.684,75.026-0.004
	C121.2,79.829,121.198,46.171,100.517,25.488z M94.728,94.728c-17.493,17.494-45.961,17.496-63.455,0.002
	c-17.498-17.497-17.495-45.966,0-63.46c17.494-17.493,45.96-17.495,63.457,0.002C112.224,48.766,112.222,77.235,94.728,94.728z
	 M87.32,71.816l-48.638-0.068c0,0-0.001,0-0.002,0c-0.479,0-0.926,0.273-1.191,0.729c-0.267,0.455-0.316,1.033-0.132,1.54
	c4.134,11.375,14.228,18.725,25.714,18.725c11.245,0,21.28-7.315,25.563-18.636c0.191-0.506,0.148-1.089-0.117-1.55
	S87.803,71.817,87.32,71.816z M51.859,87.338c-2.64-1.154-5.017-2.712-7.013-4.615h7.013V87.338z M51.859,79.422h-9.785v-4.95
	l9.785,0.011V79.422z M65.203,89.532c-0.728,0.057-1.46,0.095-2.2,0.095c-2.636,0-5.186-0.36-7.585-1.024v-5.88h9.785V89.532z
	 M65.203,79.422h-9.785v-4.935l9.785,0.011V79.422z M78.546,84.738c-2.835,2.045-6.17,3.52-9.785,4.283v-6.299h9.785V84.738z
	 M78.546,79.422h-9.785v-4.92l9.785,0.012V79.422z M85.743,76.173c-0.533,1.144-1.178,2.225-1.9,3.249h-1.738v-4.904l2.469,0.002
	c0.43,0.001,0.828,0.202,1.065,0.534C85.874,75.388,85.913,75.808,85.743,76.173z M43.211,48.641c0-3.423,2.777-6.201,6.2-6.201
	c3.424,0,6.2,2.777,6.2,6.201c0,3.426-2.776,6.203-6.2,6.203C45.988,54.844,43.211,52.067,43.211,48.641z M71.327,48.641
	c0-3.423,2.781-6.201,6.203-6.201c3.424,0,6.201,2.777,6.201,6.201c0,3.426-2.777,6.203-6.201,6.203
	C74.108,54.844,71.327,52.067,71.327,48.641z"/>
</svg>
