<?xml version="1.0" encoding="utf-8"?>
<!-- Generator: Adobe Illustrator 16.0.0, SVG Export Plug-In . SVG Version: 6.00 Build 0)  -->
<!DOCTYPE svg PUBLIC "-//W3C//DTD SVG 1.1//EN" "http://www.w3.org/Graphics/SVG/1.1/DTD/svg11.dtd">
<svg version="1.1" id="Layer_1" xmlns="http://www.w3.org/2000/svg" xmlns:xlink="http://www.w3.org/1999/xlink" x="0px" y="0px"
	 width="126px" height="126px" viewBox="0 0 126 126" enable-background="new 0 0 126 126" xml:space="preserve">
<path stroke="#6D6E70" stroke-width="0" stroke-linecap="round" stroke-linejoin="round" d="M25.486,25.483
	C4.798,46.169,4.8,79.828,25.488,100.517c20.682,20.684,54.341,20.684,75.027-0.005c20.686-20.684,20.684-54.341,0.002-75.024
	C79.829,4.799,46.169,4.799,25.486,25.483z M94.728,94.728c-17.494,17.493-45.962,17.495-63.455,0.002
	c-5.689-5.689-9.517-12.541-11.506-19.796c4.55,2.507,11.675,5.726,21.101,7.813c5.376,1.19,11.882,2.069,19.372,2.069
	c12.776,0,28.418-2.579,46.166-10.525C104.47,81.782,100.584,88.871,94.728,94.728z M107.528,68.272
	c-28.25,13.52-51.026,12.763-65.311,9.651c-12.363-2.693-20.609-7.536-23.742-9.613c-1.559-13.19,2.699-26.943,12.797-37.041
	c17.493-17.493,45.959-17.495,63.457,0.003C104.818,41.359,109.075,55.095,107.528,68.272z M48.064,89.911
	c3.636,0.595,8.033,1.034,13.097,1.034c8.638,0,19.213-1.288,31.213-5.258c-1.309,3.743-3.937,7.283-7.895,10.21
	c-11.828,8.737-31.075,8.739-42.902,0.001c-3.847-2.843-6.434-6.266-7.779-9.89C36.875,87.261,41.692,88.869,48.064,89.911z
	 M52.799,51.639c1.16,1.127,1.884,2.701,1.884,4.446c0,3.426-2.777,6.203-6.199,6.203c-3.424,0-6.201-2.777-6.201-6.203
	c0-1.679,0.67-3.198,1.754-4.315l-5.182-5.183c-1.229-1.229-1.229-3.221,0-4.449c1.229-1.23,3.221-1.23,4.451,0l9.455,9.455
	C52.775,51.607,52.785,51.624,52.799,51.639z M88.144,42.138c1.229,1.229,1.229,3.221-0.002,4.449L82.96,51.77
	c1.084,1.116,1.754,2.637,1.754,4.315c0,3.426-2.777,6.203-6.199,6.203c-3.424,0-6.201-2.777-6.201-6.203
	c0-1.744,0.724-3.318,1.884-4.445c0.014-0.015,0.023-0.032,0.038-0.047l9.457-9.455C84.921,40.907,86.914,40.907,88.144,42.138z"/>
</svg>
