<?xml version="1.0" encoding="utf-8"?>
<!-- Generator: Adobe Illustrator 16.0.0, SVG Export Plug-In . SVG Version: 6.00 Build 0)  -->
<!DOCTYPE svg PUBLIC "-//W3C//DTD SVG 1.1//EN" "http://www.w3.org/Graphics/SVG/1.1/DTD/svg11.dtd">
<svg version="1.1" id="Layer_1" xmlns="http://www.w3.org/2000/svg" xmlns:xlink="http://www.w3.org/1999/xlink" x="0px" y="0px"
	 width="126px" height="126px" viewBox="0 0 126 126" enable-background="new 0 0 126 126" xml:space="preserve">
<path stroke="#6D6E70" stroke-width="0" stroke-linecap="round" stroke-linejoin="round" d="M100.517,25.488
	C79.829,4.799,46.169,4.799,25.486,25.483C4.798,46.169,4.8,79.829,25.488,100.517c20.682,20.684,54.341,20.684,75.027-0.004
	C121.201,79.829,121.199,46.171,100.517,25.488z M94.728,94.728c-17.494,17.494-45.962,17.496-63.455,0.002
	c-17.498-17.497-17.496-45.966,0-63.46c17.493-17.493,45.959-17.495,63.457,0.002C112.224,48.766,112.222,77.235,94.728,94.728z
	 M73.737,55.596c-1.229-1.229-1.229-3.222,0-4.451l9.456-9.455c1.229-1.229,3.222-1.229,4.451,0
	c1.229,1.229,1.229,3.222-0.001,4.451l-9.455,9.456C76.959,56.824,74.965,56.824,73.737,55.596z M87.849,57.97
	c0,2.254-1.827,4.081-4.079,4.081c-2.252,0-4.079-1.827-4.079-4.081c0-2.252,1.827-4.08,4.079-4.08
	C86.021,53.89,87.849,55.717,87.849,57.97z M38.356,46.14c-1.229-1.229-1.229-3.222-0.001-4.451c1.229-1.229,3.222-1.229,4.451,0
	l9.456,9.455c1.229,1.229,1.229,3.222,0,4.451c-1.229,1.229-3.223,1.229-4.451,0L38.356,46.14z M42.229,53.89
	c2.252,0,4.079,1.827,4.079,4.08c0,2.254-1.827,4.081-4.079,4.081c-2.251,0-4.079-1.827-4.079-4.081
	C38.15,55.717,39.978,53.89,42.229,53.89z M80.683,67.304H45.322c-4.687,0-8.486,3.8-8.486,8.486v9.752
	c0,4.687,3.799,8.486,8.486,8.486h35.361c4.687,0,8.486-3.8,8.486-8.486v-9.752C89.169,71.104,85.369,67.304,80.683,67.304z
	 M48.927,90.725h-5.322c-1.297-0.939-2.271-2.294-2.725-3.872v-4.175h8.047V90.725z M48.927,78.655H40.88v-4.174
	c0.454-1.578,1.428-2.934,2.725-3.873h5.322V78.655z M60.983,90.725H52.95v-8.047h8.033V90.725z M60.983,78.655H52.95v-8.047h8.033
	V78.655z M73.054,90.725h-8.033v-8.047h8.033V90.725z M73.054,78.655h-8.033v-8.047h8.033V78.655z M85.124,86.853
	c-0.454,1.578-1.428,2.933-2.725,3.872h-5.322v-8.047h8.047V86.853z M85.124,78.655h-8.047v-8.047h5.322
	c1.297,0.939,2.271,2.295,2.725,3.873V78.655z"/>
</svg>
