<?xml version="1.0" encoding="utf-8"?>
<!-- Generator: Adobe Illustrator 16.0.0, SVG Export Plug-In . SVG Version: 6.00 Build 0)  -->
<!DOCTYPE svg PUBLIC "-//W3C//DTD SVG 1.1//EN" "http://www.w3.org/Graphics/SVG/1.1/DTD/svg11.dtd">
<svg version="1.1" id="Layer_1" xmlns="http://www.w3.org/2000/svg" xmlns:xlink="http://www.w3.org/1999/xlink" x="0px" y="0px"
	 width="126px" height="126px" viewBox="0 0 126 126" enable-background="new 0 0 126 126" xml:space="preserve">
<path stroke="#6D6E70" stroke-width="0" stroke-linecap="round" stroke-linejoin="round" d="M25.486,25.483
	C4.798,46.17,4.8,79.829,25.488,100.517c20.682,20.685,54.341,20.685,75.027-0.004c20.686-20.684,20.684-54.341,0.002-75.024
	C79.829,4.8,46.17,4.8,25.486,25.483z M94.728,94.728c-17.494,17.494-45.961,17.496-63.455,0.003
	c-17.498-17.497-17.496-45.966,0-63.46c17.494-17.493,45.959-17.495,63.457,0.002C112.224,48.767,112.222,77.235,94.728,94.728z
	 M84.878,70.588c-0.733,0-1.579,0.115-2.553,0.374c-7.17,3.099-13.853,4.131-19.58,4.131c-11.451,0-19.072-4.131-19.072-4.131
	c-0.898-0.239-1.834-0.352-2.551-0.367v-0.007c0,0-0.001,0-0.001,0c-0.019,0-0.033,0.005-0.052,0.005
	c-0.042-0.001-0.092-0.005-0.132-0.005l0.001,0.017c-6.297,0.186-3.969,9.231-3.969,9.231c4.749,14.586,20.583,15.606,24.922,15.606
	c0.706,0,1.108-0.027,1.108-0.027s0.401,0.027,1.108,0.027c4.34,0,20.174-1.022,24.923-15.606
	C89.031,79.836,91.423,70.588,84.878,70.588z M42.75,83.342c-0.803-1.219-1.491-2.602-2.015-4.182
	c-0.356-1.487-0.494-4.026,0.182-4.894c0.072-0.092,0.242-0.301,0.95-0.317c0.246,0.005,0.561,0.032,0.883,0.076V83.342z
	 M52.083,90.404c-1.813-0.659-3.647-1.574-5.333-2.834V75.545c1.421,0.513,3.218,1.067,5.333,1.546V90.404z M61.667,92.082
	c-1.265-0.013-3.274-0.122-5.583-0.575V77.815c1.728,0.239,3.595,0.398,5.583,0.443V92.082z M70.667,91.349
	c-1.908,0.428-3.65,0.613-5,0.688V78.185c1.673-0.1,3.341-0.286,5-0.559V91.349z M79.583,87.313
	c-1.547,1.214-3.23,2.126-4.917,2.805V76.797c1.651-0.412,3.291-0.909,4.917-1.493V87.313z M85.266,79.158
	c-0.449,1.356-1.022,2.564-1.683,3.652v-8.829c0.158-0.016,0.322-0.035,0.463-0.035c0.787,0,0.962,0.225,1.037,0.32
	C85.761,75.135,85.621,77.681,85.266,79.158z M43.211,48.642c0-3.424,2.777-6.201,6.201-6.201c3.423,0,6.2,2.777,6.2,6.201
	c0,3.426-2.777,6.203-6.2,6.203C45.988,54.845,43.211,52.067,43.211,48.642z M71.328,48.642c0-3.424,2.78-6.201,6.203-6.201
	c3.423,0,6.201,2.777,6.201,6.201c0,3.426-2.777,6.203-6.201,6.203C74.108,54.845,71.328,52.067,71.328,48.642z"/>
</svg>
