<?xml version="1.0" encoding="utf-8"?>
<!-- Generator: Adobe Illustrator 16.0.0, SVG Export Plug-In . SVG Version: 6.00 Build 0)  -->
<!DOCTYPE svg PUBLIC "-//W3C//DTD SVG 1.1//EN" "http://www.w3.org/Graphics/SVG/1.1/DTD/svg11.dtd">
<svg version="1.1" id="Layer_1" xmlns="http://www.w3.org/2000/svg" xmlns:xlink="http://www.w3.org/1999/xlink" x="0px" y="0px"
	 width="126px" height="126px" viewBox="0 0 126 126" enable-background="new 0 0 126 126" xml:space="preserve">
<path stroke="#6D6E70" stroke-width="0" stroke-linecap="round" stroke-linejoin="round" d="M25.486,25.483
	C4.799,46.17,4.801,79.829,25.488,100.517c20.682,20.685,54.34,20.685,75.027-0.004c20.686-20.684,20.684-54.341,0.002-75.024
	C79.828,4.8,46.17,4.8,25.486,25.483z M94.729,94.728c-17.494,17.494-45.963,17.496-63.455,0.003
	c-17.498-17.497-17.496-45.966,0-63.46c17.492-17.493,45.959-17.495,63.457,0.002C112.225,48.767,112.223,77.235,94.729,94.728z
	 M38.766,55.452c-1.23,1.148-3.115,1.07-4.248-0.143c-1.133-1.212-1.07-3.113,0.143-4.246c5.863-5.483,12.408-2.385,15.072,0
	c1.236,1.107,1.342,3.007,0.234,4.243c-0.117,0.13-0.242,0.249-0.375,0.354c-1.127,0.892-2.762,0.871-3.867-0.119
	C45.354,55.211,42.016,52.4,38.766,55.452z M91.236,51.099c1.236,1.107,1.342,3.007,0.236,4.243
	c-0.117,0.13-0.244,0.249-0.377,0.354c-1.125,0.892-2.762,0.871-3.867-0.119c-0.369-0.33-3.707-3.141-6.959-0.089
	c-1.229,1.148-3.115,1.07-4.246-0.143c-1.133-1.212-1.07-3.113,0.141-4.246C82.029,45.615,88.572,48.714,91.236,51.099z
	 M87.178,71.281l-48.639-0.067c0,0,0,0-0.002,0c-0.479,0-0.926,0.273-1.191,0.729s-0.316,1.033-0.131,1.54
	c4.133,11.374,14.227,18.725,25.713,18.725c11.246,0,21.281-7.314,25.564-18.636c0.191-0.507,0.148-1.089-0.117-1.55
	S87.66,71.282,87.178,71.281z M51.717,86.803c-2.641-1.154-5.018-2.712-7.014-4.615h7.014V86.803z M51.717,78.888h-9.785v-4.95
	l9.785,0.012V78.888z M65.061,88.997c-0.729,0.058-1.461,0.095-2.201,0.095c-2.635,0-5.186-0.359-7.584-1.023v-5.881h9.785V88.997z
	 M65.061,78.888h-9.785v-4.935l9.785,0.011V78.888z M78.402,84.203c-2.834,2.046-6.17,3.52-9.785,4.283v-6.299h9.785V84.203z
	 M78.402,78.888h-9.785v-4.92l9.785,0.012V78.888z M85.6,75.639c-0.533,1.145-1.178,2.225-1.9,3.249h-1.738v-4.904l2.469,0.002
	c0.43,0.001,0.828,0.202,1.066,0.534C85.73,74.854,85.77,75.273,85.6,75.639z"/>
</svg>
