<?xml version="1.0" encoding="utf-8"?>
<!-- Generator: Adobe Illustrator 16.0.0, SVG Export Plug-In . SVG Version: 6.00 Build 0)  -->
<!DOCTYPE svg PUBLIC "-//W3C//DTD SVG 1.1//EN" "http://www.w3.org/Graphics/SVG/1.1/DTD/svg11.dtd">
<svg version="1.1" id="Layer_1" xmlns="http://www.w3.org/2000/svg" xmlns:xlink="http://www.w3.org/1999/xlink" x="0px" y="0px"
	 width="126px" height="126px" viewBox="0 0 126 126" enable-background="new 0 0 126 126" xml:space="preserve">
<path stroke="#6D6E70" stroke-width="0" stroke-linecap="round" stroke-linejoin="round" d="M80.109,45.354
	c1.768,0,3.203,1.436,3.203,3.203c0,1.771-1.436,3.205-3.203,3.205c-1.77,0-3.203-1.434-3.203-3.205
	C76.906,46.79,78.34,45.354,80.109,45.354z M44.695,48.558c0,1.771,1.434,3.205,3.203,3.205c1.768,0,3.203-1.434,3.203-3.205
	c0-1.768-1.436-3.203-3.203-3.203C46.129,45.354,44.695,46.79,44.695,48.558z M100.516,100.512
	c-20.688,20.689-54.346,20.689-75.027,0.005C4.801,79.828,4.799,46.17,25.486,25.483C46.17,4.799,79.828,4.799,100.518,25.488
	C121.199,46.172,121.201,79.828,100.516,100.512z M105.359,42.674l-0.09,0.04h0.107L105.359,42.674z M22.996,42.714h13.109
	c2.158-4.336,6.633-7.322,11.793-7.322c6.279,0,11.541,4.424,12.848,10.316h6.676c1.293-5.912,6.564-10.354,12.857-10.354
	c5.176,0,9.658,3.005,11.807,7.359h10.92c-2.086-4.125-4.834-7.999-8.275-11.441C77.232,13.775,48.766,13.777,31.273,31.27
	C27.83,34.713,25.082,38.588,22.996,42.714z M80.279,39.433c-5.012,0-9.09,4.076-9.09,9.088s4.078,9.09,9.09,9.09
	c5.01,0,9.088-4.078,9.088-9.09S85.289,39.433,80.279,39.433z M47.898,39.47c-5.012,0-9.09,4.076-9.09,9.088s4.078,9.09,9.09,9.09
	c5.01,0,9.088-4.078,9.088-9.09S52.908,39.47,47.898,39.47z M105.139,47.691H93.359l0.066,0.421c0.004,0.137,0.02,0.271,0.02,0.408
	c0,7.262-5.906,13.168-13.166,13.168c-7.098,0-12.887-5.65-13.143-12.688h-6.094c-0.236,7.055-6.035,12.725-13.145,12.725
	c-7.26,0-13.166-5.906-13.166-13.168c0-0.084,0.01-0.168,0.012-0.252l0.098-0.614H20.863C15.127,63.56,18.572,82.03,31.273,94.73
	c17.492,17.492,45.961,17.49,63.455-0.003C107.426,82.03,110.873,63.56,105.139,47.691z M63.953,71.379
	c-10.301,0-19.354,5.771-23.064,14.703c-0.635,1.529,0.09,3.285,1.619,3.922c0.377,0.156,0.768,0.23,1.15,0.23
	c1.176-0.001,2.291-0.697,2.771-1.851c2.777-6.685,9.654-11.005,17.523-11.005c7.689,0,14.527,4.322,17.42,11.012
	c0.658,1.521,2.424,2.222,3.945,1.563c1.52-0.658,2.221-2.424,1.563-3.945C83.037,77.121,74.037,71.379,63.953,71.379z
	 M64.34,80.445c-3.697,0-6.691,2.997-6.691,6.693s2.994,6.693,6.691,6.693c3.695,0,6.691-2.997,6.691-6.693
	S68.035,80.445,64.34,80.445z"/>
</svg>
