<?xml version="1.0" encoding="utf-8"?>
<!-- Generator: Adobe Illustrator 16.0.0, SVG Export Plug-In . SVG Version: 6.00 Build 0)  -->
<!DOCTYPE svg PUBLIC "-//W3C//DTD SVG 1.1//EN" "http://www.w3.org/Graphics/SVG/1.1/DTD/svg11.dtd">
<svg version="1.1" id="Layer_1" xmlns="http://www.w3.org/2000/svg" xmlns:xlink="http://www.w3.org/1999/xlink" x="0px" y="0px"
	 width="126px" height="126px" viewBox="0 0 126 126" enable-background="new 0 0 126 126" xml:space="preserve">
<path stroke="#6D6E70" stroke-width="0" stroke-linecap="round" stroke-linejoin="round" d="M25.486,25.483
	C4.799,46.17,4.801,79.828,25.488,100.517c20.682,20.685,54.34,20.685,75.027-0.005c20.686-20.684,20.684-54.34,0.002-75.023
	C79.828,4.799,46.17,4.799,25.486,25.483z M94.729,94.728c-17.494,17.493-45.963,17.495-63.455,0.003
	c-12.986-12.985-16.324-32.01-10.037-48.11l12.348,5.77c-0.002,0.084-0.012,0.167-0.012,0.252c0,7.261,5.906,13.167,13.166,13.167
	c7.109,0,12.908-5.67,13.145-12.725h6.094c0.256,7.038,6.045,12.688,13.143,12.688c7.26,0,13.166-5.906,13.166-13.167
	c0-0.138-0.016-0.271-0.02-0.408l12.477-5.632C111.059,62.677,107.727,81.73,94.729,94.728z M37.648,52.642
	c0-5.012,4.078-9.089,9.09-9.089c5.01,0,9.088,4.077,9.088,9.089s-4.078,9.089-9.088,9.089
	C41.727,61.73,37.648,57.653,37.648,52.642z M70.029,52.604c0-5.012,4.078-9.089,9.09-9.089c5.01,0,9.088,4.077,9.088,9.089
	s-4.078,9.089-9.088,9.089C74.107,61.693,70.029,57.616,70.029,52.604z M91.727,48.827c-1.627-5.424-6.662-9.389-12.607-9.389
	c-6.293,0-11.564,4.441-12.857,10.354h-6.676c-1.307-5.894-6.568-10.316-12.848-10.316c-5.92,0-10.938,3.928-12.59,9.314
	l-11.508-5.378c2.125-4.389,4.994-8.505,8.633-12.143c17.492-17.492,45.959-17.494,63.457,0.003
	c3.674,3.674,6.564,7.835,8.695,12.273L91.727,48.827z M86.047,80.427v5.609c0,2.803-2.084,5.083-4.643,5.083
	c-2.561,0-4.643-2.28-4.643-5.083c0,2.803-2.082,5.083-4.643,5.083c-2.18,0-4.002-1.66-4.496-3.882
	c-0.496,2.222-2.316,3.882-4.498,3.882c-2.561,0-4.643-2.28-4.643-5.083c0,2.803-2.082,5.083-4.643,5.083
	c-2.18,0-4.002-1.66-4.496-3.882c-0.496,2.222-2.316,3.882-4.498,3.882c-2.559,0-4.643-2.28-4.643-5.083v-5.609
	c0-2.803,2.084-5.083,4.643-5.083c0.195,0,0.379,0.037,0.566,0.063c0.201-0.04,0.408-0.063,0.621-0.063H80.68
	c0.129,0,0.252,0.022,0.379,0.038c0.115-0.01,0.227-0.038,0.346-0.038C83.963,75.344,86.047,77.624,86.047,80.427z M46.738,55.847
	c-1.77,0-3.203-1.435-3.203-3.205c0-1.769,1.434-3.203,3.203-3.203c1.768,0,3.203,1.435,3.203,3.203
	C49.941,54.412,48.506,55.847,46.738,55.847z M78.949,55.847c-1.77,0-3.203-1.435-3.203-3.205c0-1.769,1.434-3.203,3.203-3.203
	c1.768,0,3.203,1.435,3.203,3.203C82.152,54.412,80.717,55.847,78.949,55.847z"/>
</svg>
