<?xml version="1.0" encoding="utf-8"?>
<!-- Generator: Adobe Illustrator 16.0.0, SVG Export Plug-In . SVG Version: 6.00 Build 0)  -->
<!DOCTYPE svg PUBLIC "-//W3C//DTD SVG 1.1//EN" "http://www.w3.org/Graphics/SVG/1.1/DTD/svg11.dtd">
<svg version="1.1" id="Layer_1" xmlns="http://www.w3.org/2000/svg" xmlns:xlink="http://www.w3.org/1999/xlink" x="0px" y="0px"
	 width="126px" height="126px" viewBox="0 0 126 126" enable-background="new 0 0 126 126" xml:space="preserve">
<path stroke="#6D6E70" stroke-width="0" stroke-linecap="round" stroke-linejoin="round" d="M25.486,25.483
	C4.798,46.17,4.8,79.828,25.488,100.517c20.682,20.685,54.341,20.685,75.027-0.005c20.686-20.684,20.684-54.34,0.002-75.023
	C79.829,4.799,46.169,4.799,25.486,25.483z M94.728,94.728c-4.374,4.373-9.433,7.653-14.835,9.84
	c-5.402,2.188-11.148,3.281-16.893,3.281c-11.49,0-22.98-4.372-31.727-13.118C18.288,81.745,14.949,62.72,21.237,46.62l12.347,5.77
	c-0.001,0.084-0.013,0.167-0.013,0.252c0,7.261,5.907,13.167,13.166,13.167c7.11,0,12.908-5.67,13.144-12.725h6.095
	c0.255,7.038,6.044,12.688,13.142,12.688c7.26,0,13.167-5.906,13.167-13.167c0-0.138-0.017-0.271-0.021-0.408l12.478-5.632
	C111.059,62.676,107.726,81.729,94.728,94.728z M37.649,52.642c0-5.012,4.078-9.089,9.088-9.089c5.011,0,9.089,4.077,9.089,9.089
	s-4.078,9.089-9.089,9.089C41.727,61.73,37.649,57.653,37.649,52.642z M70.03,52.604c0-5.012,4.078-9.089,9.088-9.089
	c5.011,0,9.089,4.077,9.089,9.089s-4.078,9.089-9.089,9.089C74.108,61.693,70.03,57.616,70.03,52.604z M91.727,48.827
	c-1.628-5.424-6.661-9.389-12.608-9.389c-6.293,0-11.563,4.441-12.856,10.354h-6.677c-1.307-5.894-6.566-10.316-12.847-10.316
	c-5.919,0-10.937,3.928-12.588,9.314l-11.51-5.377c2.125-4.39,4.996-8.506,8.633-12.144C40.02,22.523,51.509,18.149,63,18.15
	c7.182,0,14.363,1.708,20.875,5.126c3.908,2.05,7.574,4.715,10.855,7.996c3.674,3.674,6.566,7.835,8.696,12.273L91.727,48.827z
	 M46.738,55.847c-1.769,0-3.203-1.435-3.203-3.205c0-1.769,1.435-3.203,3.203-3.203s3.204,1.435,3.204,3.203
	C49.941,54.412,48.506,55.847,46.738,55.847z M64.06,72.342c-10.301,0-19.354,5.771-23.065,14.703
	c-0.636,1.529,0.089,3.285,1.62,3.922c0.376,0.156,0.766,0.23,1.15,0.23c1.176-0.001,2.292-0.697,2.772-1.851
	c1.382-3.328,3.782-6.069,6.814-7.983v4.536c0,3.096,2.3,5.613,5.127,5.613c2.395,0,4.405-1.81,4.966-4.244
	c0.561,2.435,2.571,4.244,4.966,4.244c2.827,0,5.127-2.518,5.127-5.613v-5.162c3.511,1.92,6.337,4.9,7.943,8.616
	c0.658,1.521,2.424,2.222,3.945,1.563c1.52-0.658,2.22-2.424,1.563-3.945C83.144,78.084,74.144,72.342,64.06,72.342z M60.509,85.899
	c0,1.227-0.912,2.225-2.031,2.225c-1.12,0-2.031-0.998-2.031-2.225v-6.102c1.218-0.488,2.499-0.859,3.83-1.104
	c0.144,0.305,0.232,0.646,0.232,1.012V85.899z M70.441,85.899c0,1.227-0.911,2.225-2.031,2.225c-1.12,0-2.031-0.998-2.031-2.225
	v-6.193c0-0.438,0.12-0.842,0.319-1.187c1.28,0.168,2.521,0.461,3.713,0.86c0.015,0.107,0.03,0.215,0.03,0.326V85.899z
	 M78.949,55.847c-1.769,0-3.203-1.435-3.203-3.205c0-1.769,1.435-3.203,3.203-3.203s3.204,1.435,3.204,3.203
	C82.152,54.412,80.717,55.847,78.949,55.847z"/>
</svg>
