<?xml version="1.0" encoding="utf-8"?>
<!-- Generator: Adobe Illustrator 16.0.0, SVG Export Plug-In . SVG Version: 6.00 Build 0)  -->
<!DOCTYPE svg PUBLIC "-//W3C//DTD SVG 1.1//EN" "http://www.w3.org/Graphics/SVG/1.1/DTD/svg11.dtd">
<svg version="1.1" id="Layer_1" xmlns="http://www.w3.org/2000/svg" xmlns:xlink="http://www.w3.org/1999/xlink" x="0px" y="0px"
	 width="126px" height="126px" viewBox="0 0 126 126" enable-background="new 0 0 126 126" xml:space="preserve">
<path stroke="#6D6E70" stroke-width="0" stroke-linecap="round" stroke-linejoin="round" d="M25.486,100.517
	c10.986,10.989,25.637,16.14,40.059,15.452c12.727-0.605,25.275-5.758,34.973-15.457c20.686-20.684,20.684-54.34,0.002-75.023
	C87.588,12.557,69.592,7.708,52.861,10.94c-10.039,1.938-19.621,6.786-27.377,14.544C4.797,46.17,4.799,79.829,25.486,100.517z
	 M31.275,31.27c8.199-8.199,18.809-12.555,29.57-13.068c12.197-0.58,24.588,3.777,33.883,13.072
	c17.494,17.493,17.492,45.962-0.002,63.454c-7.107,7.106-16.023,11.326-25.281,12.659c-13.529,1.947-27.783-2.271-38.17-12.656
	C13.777,77.232,13.779,48.764,31.275,31.27z M38.613,48.05c0-0.418,0.043-0.825,0.107-1.226c0.588,3.619,3.719,6.385,7.5,6.385
	c3.783,0,6.914-2.766,7.5-6.385c0.064,0.4,0.107,0.808,0.107,1.226c0,4.204-3.406,7.611-7.607,7.611
	C42.021,55.661,38.613,52.254,38.613,48.05z M73.115,48.05c0-0.418,0.045-0.825,0.109-1.226c0.588,3.619,3.719,6.385,7.5,6.385
	c3.783,0,6.912-2.766,7.5-6.385c0.064,0.4,0.107,0.808,0.107,1.226c0,4.204-3.406,7.611-7.607,7.611S73.115,52.254,73.115,48.05z
	 M53.176,79.36h19.648c1.303,0,2.357,1.63,2.357,3.641c0,2.009-1.055,3.64-2.357,3.64H53.176c-1.301,0-2.357-1.631-2.357-3.64
	C50.818,80.99,51.875,79.36,53.176,79.36z"/>
</svg>
