<?xml version="1.0" encoding="utf-8"?>
<!-- Generator: Adobe Illustrator 16.0.0, SVG Export Plug-In . SVG Version: 6.00 Build 0)  -->
<!DOCTYPE svg PUBLIC "-//W3C//DTD SVG 1.1//EN" "http://www.w3.org/Graphics/SVG/1.1/DTD/svg11.dtd">
<svg version="1.1" id="Layer_1" xmlns="http://www.w3.org/2000/svg" xmlns:xlink="http://www.w3.org/1999/xlink" x="0px" y="0px"
	 width="126px" height="126px" viewBox="0 0 126 126" enable-background="new 0 0 126 126" xml:space="preserve">
<path stroke="#6D6E70" stroke-width="0" stroke-linecap="round" stroke-linejoin="round" d="M100.515,100.512
	c20.686-20.684,20.684-54.341,0.002-75.024C79.829,4.799,46.17,4.799,25.486,25.483C4.798,46.169,4.8,79.829,25.488,100.517
	C46.17,121.201,79.829,121.201,100.515,100.512z M31.273,31.27c17.494-17.493,45.959-17.495,63.457,0.002
	c17.494,17.494,17.492,45.962-0.002,63.455c-17.494,17.494-45.961,17.496-63.455,0.002C13.775,77.233,13.777,48.764,31.273,31.27z
	 M68.828,51.641c0-4.797,3.904-8.701,8.703-8.701c4.797,0,8.701,3.903,8.701,8.701c0,1.381-1.119,2.5-2.5,2.5s-2.5-1.119-2.5-2.5
	c0-2.041-1.66-3.701-3.701-3.701c-2.042,0-3.703,1.66-3.703,3.701c0,1.381-1.119,2.5-2.5,2.5S68.828,53.021,68.828,51.641z
	 M41.105,51.614c0-4.797,3.904-8.701,8.703-8.701c4.797,0,8.701,3.903,8.701,8.701c0,1.381-1.119,2.5-2.5,2.5s-2.5-1.119-2.5-2.5
	c0-2.041-1.66-3.701-3.701-3.701c-2.042,0-3.703,1.66-3.703,3.701c0,1.381-1.119,2.5-2.5,2.5S41.105,52.995,41.105,51.614z
	 M40.996,84.045c3.71-8.932,12.764-14.703,23.064-14.703c10.084,0,19.084,5.742,22.927,14.629c0.658,1.521-0.041,3.287-1.563,3.944
	c-1.52,0.66-3.285-0.042-3.943-1.563c-2.894-6.689-9.731-11.011-17.421-11.011c-7.868,0-14.747,4.319-17.523,11.004
	c-0.479,1.154-1.596,1.85-2.771,1.85c-0.384,0-0.773-0.074-1.15-0.23C41.085,87.331,40.36,85.575,40.996,84.045z"/>
</svg>
