<?xml version="1.0" encoding="utf-8"?>
<!-- Generator: Adobe Illustrator 16.0.0, SVG Export Plug-In . SVG Version: 6.00 Build 0)  -->
<!DOCTYPE svg PUBLIC "-//W3C//DTD SVG 1.1//EN" "http://www.w3.org/Graphics/SVG/1.1/DTD/svg11.dtd">
<svg version="1.1" id="Layer_1" xmlns="http://www.w3.org/2000/svg" xmlns:xlink="http://www.w3.org/1999/xlink" x="0px" y="0px"
	 width="126px" height="126px" viewBox="0 0 126 126" enable-background="new 0 0 126 126" xml:space="preserve">
<path stroke="#6D6E70" stroke-width="0" stroke-linecap="round" stroke-linejoin="round" d="M25.486,25.483
	C4.798,46.17,4.8,79.828,25.488,100.517c20.682,20.685,54.341,20.685,75.027-0.005c20.686-20.684,20.684-54.34,0.002-75.023
	C79.829,4.799,46.17,4.799,25.486,25.483z M94.728,94.728c-17.494,17.493-45.961,17.495-63.455,0.003
	c-17.498-17.498-17.496-45.967,0-63.461c17.494-17.492,45.959-17.494,63.457,0.003C112.224,48.766,112.222,77.234,94.728,94.728z
	 M86.988,83.971c0.658,1.521-0.042,3.287-1.563,3.945c-1.521,0.659-3.286-0.042-3.944-1.563
	c-2.893-6.689-9.731-11.012-17.421-11.012c-7.868,0-14.747,4.32-17.523,11.005c-0.479,1.153-1.596,1.85-2.771,1.851
	c-0.384,0-0.773-0.074-1.15-0.23c-1.53-0.637-2.255-2.393-1.62-3.922c3.71-8.932,12.764-14.703,23.064-14.703
	C74.145,69.342,83.145,75.084,86.988,83.971z M43.163,50.03l-2.585,0.833c-1.654,0.533-3.428-0.375-3.961-2.029
	s0.376-3.427,2.03-3.96l12.728-4.104c1.654-0.531,3.427,0.377,3.96,2.031c0.48,1.488-0.215,3.065-1.564,3.756
	c2.316,2.43,2.286,6.274-0.098,8.658c-2.421,2.421-6.349,2.421-8.771-0.002C43.487,53.799,42.924,51.872,43.163,50.03z
	 M90.338,48.645c-0.533,1.654-2.307,2.563-3.961,2.029l-2.585-0.833c0.239,1.842-0.324,3.769-1.738,5.183
	c-2.423,2.423-6.351,2.423-8.771,0.002c-2.384-2.384-2.414-6.229-0.098-8.658c-1.349-0.69-2.044-2.268-1.564-3.756
	c0.533-1.654,2.306-2.563,3.96-2.031l12.728,4.104C89.962,45.218,90.872,46.99,90.338,48.645z"/>
</svg>
