<?xml version="1.0" encoding="utf-8"?>
<!-- Generator: Adobe Illustrator 16.0.0, SVG Export Plug-In . SVG Version: 6.00 Build 0)  -->
<!DOCTYPE svg PUBLIC "-//W3C//DTD SVG 1.1//EN" "http://www.w3.org/Graphics/SVG/1.1/DTD/svg11.dtd">
<svg version="1.1" id="Layer_1" xmlns="http://www.w3.org/2000/svg" xmlns:xlink="http://www.w3.org/1999/xlink" x="0px" y="0px"
	 width="126px" height="126px" viewBox="0 0 126 126" enable-background="new 0 0 126 126" xml:space="preserve">
<path stroke="#6D6E70" stroke-width="0" stroke-linecap="round" stroke-linejoin="round" d="M100.515,100.512
	c20.686-20.684,20.684-54.34,0.002-75.023C79.829,4.799,46.169,4.799,25.486,25.484C4.798,46.17,4.8,79.828,25.488,100.518
	C46.169,121.201,79.829,121.201,100.515,100.512z M31.273,31.27c17.493-17.492,45.959-17.494,63.457,0.004
	c17.494,17.492,17.492,45.961-0.002,63.455c-17.494,17.492-45.962,17.494-63.455,0.002C13.775,77.232,13.777,48.764,31.273,31.27z
	 M38.68,88.674l48.638,0.068h0.002c0.479,0,0.926-0.273,1.191-0.729c0.268-0.455,0.316-1.033,0.133-1.539
	C84.509,75.1,74.416,67.748,62.929,67.748c-11.245,0-21.28,7.316-25.563,18.637c-0.191,0.506-0.148,1.088,0.117,1.549
	S38.198,88.674,38.68,88.674z M74.141,73.152c2.64,1.154,5.017,2.713,7.013,4.615h-7.013V73.152z M74.141,81.068h9.785v4.949
	l-9.785-0.01V81.068z M60.797,70.959c0.728-0.057,1.46-0.096,2.2-0.096c2.636,0,5.186,0.359,7.585,1.023v5.881h-9.785V70.959z
	 M60.797,81.068h9.785v4.934l-9.785-0.01V81.068z M47.455,75.752c2.835-2.045,6.17-3.52,9.785-4.283v6.299h-9.785V75.752z
	 M47.455,81.068h9.785v4.92l-9.785-0.012V81.068z M40.257,84.316c0.533-1.143,1.178-2.225,1.9-3.248h1.738v4.904l-2.469-0.002
	c-0.43-0.002-0.828-0.201-1.065-0.535C40.126,85.104,40.087,84.682,40.257,84.316z M48.467,46.385c0-3.424,2.777-6.201,6.201-6.201
	c3.422,0,6.199,2.777,6.199,6.201c0,3.426-2.777,6.203-6.199,6.203C51.245,52.588,48.467,49.811,48.467,46.385z M64.499,46.385
	c0-3.424,2.777-6.201,6.201-6.201c3.422,0,6.199,2.777,6.199,6.201c0,3.426-2.777,6.203-6.199,6.203
	C67.276,52.588,64.499,49.811,64.499,46.385z"/>
</svg>
