<?xml version="1.0" encoding="utf-8"?>
<!-- Generator: Adobe Illustrator 16.0.0, SVG Export Plug-In . SVG Version: 6.00 Build 0)  -->
<!DOCTYPE svg PUBLIC "-//W3C//DTD SVG 1.1//EN" "http://www.w3.org/Graphics/SVG/1.1/DTD/svg11.dtd">
<svg version="1.1" id="Layer_1" xmlns="http://www.w3.org/2000/svg" xmlns:xlink="http://www.w3.org/1999/xlink" x="0px" y="0px"
	 width="126px" height="126px" viewBox="0 0 126 126" enable-background="new 0 0 126 126" xml:space="preserve">
<path stroke="#6D6E70" stroke-width="0" stroke-linecap="round" stroke-linejoin="round" d="M25.487,25.483
	C4.798,46.17,4.8,79.828,25.489,100.517c20.682,20.685,54.34,20.685,75.026-0.005c20.686-20.684,20.684-54.34,0.002-75.023
	C79.829,4.799,46.17,4.799,25.487,25.483z M94.728,94.728c-17.493,17.493-45.962,17.495-63.455,0.003
	c-17.498-17.498-17.495-45.967,0-63.461c17.493-17.492,45.96-17.494,63.457,0.003C112.224,48.766,112.222,77.234,94.728,94.728z
	 M74.25,82.848c0,10.019-2.823,18.142-9.998,18.142c-7.179,0-8.002-8.123-8.002-18.142c0-10.014,0.823-18.138,8.002-18.138
	C71.428,64.71,74.25,72.834,74.25,82.848z M55.142,48.642c0,1.737-1.409,3.147-3.147,3.147H38.623c-1.738,0-3.147-1.41-3.147-3.147
	s1.409-3.147,3.147-3.147h13.372C53.733,45.494,55.142,46.904,55.142,48.642z M90.524,48.643c0,1.737-1.409,3.146-3.147,3.146
	H74.004c-1.737,0-3.147-1.409-3.147-3.146c0-1.738,1.41-3.147,3.147-3.147h13.372C89.115,45.495,90.524,46.904,90.524,48.643z"/>
</svg>
