<?xml version="1.0" encoding="utf-8"?>
<!-- Generator: Adobe Illustrator 16.0.0, SVG Export Plug-In . SVG Version: 6.00 Build 0)  -->
<!DOCTYPE svg PUBLIC "-//W3C//DTD SVG 1.1//EN" "http://www.w3.org/Graphics/SVG/1.1/DTD/svg11.dtd">
<svg version="1.1" id="Layer_1" xmlns="http://www.w3.org/2000/svg" xmlns:xlink="http://www.w3.org/1999/xlink" x="0px" y="0px"
	 width="126px" height="126px" viewBox="0 0 126 126" enable-background="new 0 0 126 126" xml:space="preserve">
<path stroke="#6D6E70" stroke-width="0" stroke-linecap="round" stroke-linejoin="round" d="M25.486,25.483
	C4.798,46.169,4.8,79.829,25.488,100.517c20.682,20.684,54.341,20.684,75.027-0.004c20.686-20.684,20.684-54.341,0.002-75.024
	C79.829,4.799,46.17,4.799,25.486,25.483z M94.728,94.728c-17.494,17.494-45.961,17.496-63.455,0.002
	c-17.498-17.497-17.496-45.966,0-63.46c17.494-17.493,45.959-17.495,63.457,0.002C112.224,48.766,112.222,77.235,94.728,94.728z
	 M43.343,37.676c1.303-3.356,5.027-1.911,5.027-1.911c3.202,1.244,5.376,6.973,5.376,6.973c-2.719-0.586-4.6-0.155-4.6-0.155
	c-2.136,0.478-3.71-0.133-3.71-0.133C41.976,41.106,43.343,37.676,43.343,37.676z M49.412,45.971c1.817,0,3.292,2.092,3.292,4.67
	c0,2.58-1.475,4.671-3.292,4.671c-1.818,0-3.292-2.091-3.292-4.671C46.119,48.063,47.594,45.971,49.412,45.971z M85.988,74.039
	c-3.843,8.887-12.843,14.629-22.928,14.629c-10.301,0-19.354-5.771-23.064-14.703c-0.636-1.53,0.089-3.286,1.62-3.921
	c0.376-0.156,0.766-0.23,1.15-0.23c1.176,0,2.292,0.696,2.771,1.85c2.777,6.685,9.655,11.004,17.523,11.004
	c7.69,0,14.528-4.322,17.421-11.011c0.658-1.521,2.424-2.222,3.944-1.563C85.946,70.752,86.646,72.518,85.988,74.039z
	 M71.327,42.638c0,0,2.174-5.729,5.376-6.973c0,0,3.724-1.446,5.027,1.911c0,0,1.367,3.431-2.093,4.774c0,0-1.574,0.611-3.71,0.133
	C75.927,42.482,74.046,42.052,71.327,42.638z M75.661,45.871c1.818,0,3.292,2.092,3.292,4.67c0,2.58-1.475,4.671-3.292,4.671
	c-1.817,0-3.292-2.091-3.292-4.671C72.37,47.962,73.844,45.871,75.661,45.871z"/>
</svg>
