<?xml version="1.0" encoding="utf-8"?>
<!-- Generator: Adobe Illustrator 16.0.0, SVG Export Plug-In . SVG Version: 6.00 Build 0)  -->
<!DOCTYPE svg PUBLIC "-//W3C//DTD SVG 1.1//EN" "http://www.w3.org/Graphics/SVG/1.1/DTD/svg11.dtd">
<svg version="1.1" id="Layer_1" xmlns="http://www.w3.org/2000/svg" xmlns:xlink="http://www.w3.org/1999/xlink" x="0px" y="0px"
	 width="126px" height="126px" viewBox="0 0 126 126" enable-background="new 0 0 126 126" xml:space="preserve">
<path stroke="#6D6E70" stroke-width="0" stroke-linecap="round" stroke-linejoin="round" d="M100.517,25.488
	C79.829,4.799,46.17,4.799,25.487,25.483C4.798,46.17,4.8,79.828,25.489,100.517c20.682,20.685,54.34,20.685,75.026-0.005
	C121.201,79.828,121.199,46.172,100.517,25.488z M94.728,94.728c-17.493,17.493-45.962,17.495-63.455,0.003
	c-17.498-17.498-17.495-45.967,0-63.461c17.493-17.492,45.96-17.494,63.457,0.003C112.224,48.766,112.222,77.234,94.728,94.728z
	 M87.321,75.389L38.683,75.33c-0.001,0-0.002,0-0.002,0c-0.479,0-0.926,0.238-1.192,0.637c-0.266,0.398-0.315,0.904-0.131,1.348
	c4.134,9.951,14.228,18.382,25.714,18.382c11.245,0,21.278-8.399,25.563-18.304c0.191-0.443,0.146-0.953-0.118-1.356
	S87.803,75.39,87.321,75.389z M63.072,91.696c-8.401,0-15.917-5.962-20.132-12.361l40.065,0.049
	C78.717,85.753,71.276,91.696,63.072,91.696z M43.211,48.641c0-3.424,2.777-6.201,6.2-6.201s6.2,2.777,6.2,6.201
	c0,3.426-2.777,6.203-6.2,6.203S43.211,52.066,43.211,48.641z M71.328,48.641c0-3.424,2.78-6.201,6.203-6.201s6.2,2.777,6.2,6.201
	c0,3.426-2.777,6.203-6.2,6.203S71.328,52.066,71.328,48.641z M51.379,85.159c-0.083-0.121-0.061-0.258,0.06-0.366
	c0.121-0.108,0.324-0.173,0.54-0.173c0,0,0,0,0.001,0l22.042,0.016c0.219,0,0.422,0.066,0.542,0.176
	c0.121,0.109,0.141,0.248,0.054,0.369c-1.941,2.688-6.489,4.968-11.585,4.968C57.828,90.148,53.253,87.86,51.379,85.159z"/>
</svg>
