<?xml version="1.0" encoding="utf-8"?>
<!-- Generator: Adobe Illustrator 16.0.0, SVG Export Plug-In . SVG Version: 6.00 Build 0)  -->
<!DOCTYPE svg PUBLIC "-//W3C//DTD SVG 1.1//EN" "http://www.w3.org/Graphics/SVG/1.1/DTD/svg11.dtd">
<svg version="1.1" id="Layer_1" xmlns="http://www.w3.org/2000/svg" xmlns:xlink="http://www.w3.org/1999/xlink" x="0px" y="0px"
	 width="126px" height="126px" viewBox="0 0 126 126" enable-background="new 0 0 126 126" xml:space="preserve">
<path stroke="#6D6E70" stroke-width="0" stroke-linecap="round" stroke-linejoin="round" d="M100.517,25.488
	C79.828,4.799,46.17,4.799,25.486,25.483C4.798,46.169,4.8,79.829,25.488,100.517c20.682,20.684,54.34,20.684,75.026-0.004
	C121.2,79.829,121.198,46.171,100.517,25.488z M94.728,94.728c-17.493,17.494-45.962,17.496-63.455,0.002
	c-17.498-17.497-17.495-45.966,0-63.46c17.493-17.493,45.96-17.495,63.457,0.002C112.224,48.766,112.222,77.235,94.728,94.728z
	 M43.269,54.335h-3.552c-0.313,0-0.604-0.18-0.738-0.459c-0.055-0.113-0.082-0.237-0.082-0.359c0-0.183,0.062-0.363,0.175-0.506
	l7.695-9.755c0.158-0.197,0.392-0.308,0.645-0.308s0.486,0.111,0.641,0.304l7.697,9.757c0.189,0.237,0.229,0.58,0.1,0.859
	c-0.146,0.293-0.428,0.467-0.741,0.467h-3.554c-0.181,0-0.351-0.083-0.463-0.225l-3.68-4.664l-3.681,4.664
	C43.618,54.252,43.449,54.335,43.269,54.335z M87.868,53.009c0.189,0.237,0.229,0.58,0.1,0.859
	c-0.146,0.293-0.428,0.467-0.741,0.467h-3.554c-0.181,0-0.351-0.083-0.463-0.225l-3.68-4.664l-3.681,4.664
	c-0.112,0.141-0.281,0.225-0.462,0.225h-3.552c-0.313,0-0.604-0.18-0.738-0.459c-0.055-0.113-0.082-0.237-0.082-0.359
	c0-0.183,0.062-0.363,0.175-0.506l7.695-9.755c0.158-0.197,0.392-0.308,0.645-0.308s0.486,0.111,0.641,0.304L87.868,53.009z
	 M85.987,74.039c-3.843,8.887-12.843,14.629-22.928,14.629c-10.301,0-19.354-5.771-23.064-14.703
	c-0.636-1.53,0.089-3.286,1.62-3.921c0.376-0.156,0.766-0.23,1.149-0.23c1.176,0,2.292,0.696,2.771,1.85
	c2.776,6.685,9.655,11.004,17.523,11.004c7.69,0,14.528-4.322,17.421-11.011c0.658-1.521,2.424-2.222,3.944-1.563
	C85.945,70.752,86.645,72.518,85.987,74.039z"/>
</svg>
