<?xml version="1.0" encoding="utf-8"?>
<!-- Generator: Adobe Illustrator 16.0.0, SVG Export Plug-In . SVG Version: 6.00 Build 0)  -->
<!DOCTYPE svg PUBLIC "-//W3C//DTD SVG 1.1//EN" "http://www.w3.org/Graphics/SVG/1.1/DTD/svg11.dtd">
<svg version="1.1" id="Layer_1" xmlns="http://www.w3.org/2000/svg" xmlns:xlink="http://www.w3.org/1999/xlink" x="0px" y="0px"
	 width="126px" height="126px" viewBox="0 0 126 126" enable-background="new 0 0 126 126" xml:space="preserve">
<path stroke="#6D6E70" stroke-width="0" stroke-linecap="round" stroke-linejoin="round" d="M25.486,25.483
	C4.799,46.169,4.801,79.829,25.488,100.517c20.682,20.684,54.34,20.684,75.027-0.004c20.686-20.684,20.684-54.341,0.002-75.024
	C79.828,4.799,46.17,4.799,25.486,25.483z M94.729,94.728c-17.494,17.494-45.963,17.496-63.455,0.002
	c-17.498-17.497-17.496-45.966,0-63.46c17.492-17.493,45.959-17.495,63.457,0.002C112.225,48.766,112.223,77.235,94.729,94.728z
	 M51.994,51.789H38.623c-1.738,0-3.148-1.409-3.148-3.147s1.41-3.147,3.148-3.147h13.371c1.738,0,3.148,1.409,3.148,3.147
	S53.732,51.789,51.994,51.789z M90.523,48.643c0,1.738-1.408,3.147-3.146,3.147H74.004c-1.736,0-3.146-1.409-3.146-3.147
	s1.41-3.147,3.146-3.147h13.373C89.115,45.496,90.523,46.905,90.523,48.643z M85.988,74.039
	c-3.844,8.887-12.844,14.629-22.928,14.629c-10.301,0-19.355-5.771-23.064-14.703c-0.637-1.53,0.088-3.286,1.619-3.921
	c0.377-0.156,0.766-0.23,1.15-0.23c1.176,0,2.291,0.696,2.771,1.85c2.775,6.685,9.654,11.004,17.523,11.004
	c7.689,0,14.527-4.322,17.42-11.011c0.658-1.521,2.424-2.222,3.945-1.563C85.945,70.752,86.645,72.518,85.988,74.039z"/>
</svg>
