<?xml version="1.0" encoding="utf-8"?>
<!-- Generator: Adobe Illustrator 16.0.0, SVG Export Plug-In . SVG Version: 6.00 Build 0)  -->
<!DOCTYPE svg PUBLIC "-//W3C//DTD SVG 1.1//EN" "http://www.w3.org/Graphics/SVG/1.1/DTD/svg11.dtd">
<svg version="1.1" id="Layer_1" xmlns="http://www.w3.org/2000/svg" xmlns:xlink="http://www.w3.org/1999/xlink" x="0px" y="0px"
	 width="126px" height="126px" viewBox="0 0 126 126" enable-background="new 0 0 126 126" xml:space="preserve">
<path stroke="#6D6E70" stroke-width="0" stroke-linecap="round" stroke-linejoin="round" d="M100.515,100.513
	c20.686-20.684,20.684-54.341,0.002-75.024C79.829,4.8,46.17,4.8,25.486,25.483C4.798,46.17,4.8,79.829,25.488,100.517
	C46.17,121.201,79.829,121.201,100.515,100.513z M31.273,31.271c17.494-17.493,45.959-17.495,63.457,0.002
	c17.494,17.494,17.492,45.963-0.002,63.455c-17.494,17.494-45.961,17.496-63.455,0.003C13.775,77.233,13.777,48.765,31.273,31.271z
	 M61.892,95.442c0.706,0,1.108-0.027,1.108-0.027s0.401,0.027,1.108,0.027c4.34,0,20.174-1.022,24.923-15.606
	c0,0,2.392-9.248-4.152-9.248c-0.733,0-1.579,0.115-2.553,0.374c-7.17,3.099-13.853,4.131-19.58,4.131
	c-11.451,0-19.072-4.131-19.072-4.131c-0.898-0.239-1.834-0.352-2.551-0.367v-0.007h-0.001c-0.019,0-0.033,0.005-0.052,0.005
	c-0.042-0.001-0.092-0.005-0.132-0.005l0.001,0.017c-6.297,0.186-3.969,9.231-3.969,9.231
	C41.718,94.422,57.553,95.442,61.892,95.442z M83.583,73.981c0.159-0.016,0.322-0.035,0.463-0.035c0.787,0,0.962,0.225,1.037,0.32
	c0.677,0.868,0.537,3.414,0.182,4.892c-0.343,1.034-0.758,1.98-1.227,2.856h-0.456V73.981z M74.667,76.797
	c1.651-0.412,3.291-0.909,4.917-1.493v6.711h-4.917V76.797z M74.667,85.4h4.917v1.913c-1.547,1.214-3.23,2.126-4.917,2.805V85.4z
	 M65.667,78.185c1.674-0.1,3.341-0.286,5-0.559v4.389h-5V78.185z M65.667,85.4h5v5.948c-1.908,0.428-3.65,0.613-5,0.688V85.4z
	 M56.083,77.815c1.728,0.239,3.595,0.398,5.583,0.443v3.756h-5.583V77.815z M56.083,85.4h5.583v6.682
	c-1.265-0.013-3.274-0.122-5.583-0.575V85.4z M46.75,75.545c1.421,0.513,3.218,1.067,5.333,1.546v4.924H46.75V75.545z M46.75,85.4
	h5.333v5.004c-1.813-0.659-3.647-1.574-5.333-2.834V85.4z M40.917,74.267c0.072-0.092,0.242-0.301,0.95-0.317
	c0.246,0.005,0.561,0.032,0.883,0.076v7.989h-0.789c-0.468-0.876-0.884-1.821-1.226-2.854
	C40.379,77.673,40.242,75.134,40.917,74.267z M43.211,48.642c0-3.424,2.777-6.201,6.201-6.201c3.423,0,6.2,2.777,6.2,6.201
	c0,3.426-2.777,6.203-6.2,6.203C45.988,54.845,43.211,52.067,43.211,48.642z M71.328,48.642c0-3.424,2.78-6.201,6.203-6.201
	c3.423,0,6.201,2.777,6.201,6.201c0,3.426-2.777,6.203-6.201,6.203C74.108,54.845,71.328,52.067,71.328,48.642z"/>
</svg>
