<?xml version="1.0" encoding="utf-8"?>
<!-- Generator: Adobe Illustrator 16.0.0, SVG Export Plug-In . SVG Version: 6.00 Build 0)  -->
<!DOCTYPE svg PUBLIC "-//W3C//DTD SVG 1.1//EN" "http://www.w3.org/Graphics/SVG/1.1/DTD/svg11.dtd">
<svg version="1.1" id="Layer_1" xmlns="http://www.w3.org/2000/svg" xmlns:xlink="http://www.w3.org/1999/xlink" x="0px" y="0px"
	 width="126px" height="126px" viewBox="0 0 126 126" enable-background="new 0 0 126 126" xml:space="preserve">
<path stroke="#6D6E70" stroke-width="0" stroke-linecap="round" stroke-linejoin="round" d="M25.486,25.483
	C4.798,46.17,4.8,79.829,25.488,100.517c20.682,20.685,54.341,20.685,75.027-0.004c20.686-20.684,20.684-54.341,0.002-75.024
	C79.829,4.8,46.17,4.8,25.486,25.483z M94.728,94.728c-17.494,17.494-45.961,17.496-63.455,0.003
	c-17.498-17.497-17.496-45.966,0-63.46c17.494-17.493,45.959-17.495,63.457,0.002C112.224,48.767,112.222,77.235,94.728,94.728z
	 M84.878,70.088c-0.804,0-1.706,0.132-2.751,0.415c-6.28,2.714-12.8,4.09-19.381,4.09c-11.178,0-18.758-4.03-18.833-4.07
	c-0.035-0.019-0.072-0.033-0.109-0.044c-0.847-0.226-1.82-0.365-2.669-0.384V70.1c-0.032-0.006-0.064-0.009-0.096-0.009
	c-0.008,0-0.092-0.003-0.101-0.003c-0.047,0-0.093,0.008-0.138,0.021c-1.547,0.073-2.743,0.658-3.555,1.738
	c-2.098,2.789-0.815,7.896-0.751,8.143c4.819,14.802,20.658,15.952,25.398,15.952c0.672,0,1.077-0.024,1.081-0.028
	c0.058,0.004,0.462,0.028,1.135,0.028c4.74,0,20.579-1.15,25.407-15.981c0.057-0.219,1.364-5.4-0.789-8.18
	C87.856,70.657,86.562,70.088,84.878,70.088z M84.792,79.001C80.923,90.677,67.95,91.584,64.066,91.584
	c-0.519,0-0.825-0.018-0.833-0.018c-0.076-0.006-0.153-0.009-0.231-0.009c-0.077,0-0.153,0.003-0.222,0.008
	c-0.044,0.002-0.347,0.019-0.846,0.019c-3.884,0-16.856-0.907-20.712-12.54c-0.369-1.54-0.41-3.829,0.088-4.468
	c0.067-0.086,0.338-0.122,0.546-0.127c0.326,0.007,0.871,0.054,1.361,0.164c2.055,1.013,9.283,4.167,19.538,4.167
	c6.786,0,13.503-1.399,19.888-4.135c0.538-0.132,1.01-0.199,1.403-0.199c0.263,0,0.569,0.033,0.643,0.128
	C85.19,75.217,85.149,77.503,84.792,79.001z M43.211,48.642c0-3.424,2.777-6.201,6.201-6.201c3.423,0,6.2,2.777,6.2,6.201
	c0,3.426-2.777,6.203-6.2,6.203C45.988,54.845,43.211,52.067,43.211,48.642z M71.328,48.642c0-3.424,2.78-6.201,6.203-6.201
	c3.423,0,6.201,2.777,6.201,6.201c0,3.426-2.777,6.203-6.201,6.203C74.108,54.845,71.328,52.067,71.328,48.642z"/>
</svg>
