<?xml version="1.0" encoding="utf-8"?>
<!-- Generator: Adobe Illustrator 16.0.0, SVG Export Plug-In . SVG Version: 6.00 Build 0)  -->
<!DOCTYPE svg PUBLIC "-//W3C//DTD SVG 1.1//EN" "http://www.w3.org/Graphics/SVG/1.1/DTD/svg11.dtd">
<svg version="1.1" id="Layer_1" xmlns="http://www.w3.org/2000/svg" xmlns:xlink="http://www.w3.org/1999/xlink" x="0px" y="0px"
	 width="126px" height="126px" viewBox="0 0 126 126" enable-background="new 0 0 126 126" xml:space="preserve">
<path stroke="#6D6E70" stroke-width="0" stroke-linecap="round" stroke-linejoin="round" d="M25.486,25.483
	C4.798,46.17,4.8,79.829,25.488,100.517c20.682,20.685,54.34,20.685,75.026-0.004c20.686-20.684,20.684-54.341,0.002-75.024
	C79.828,4.8,46.17,4.8,25.486,25.483z M94.728,94.728c-17.493,17.494-45.962,17.496-63.455,0.003
	c-17.498-17.497-17.495-45.966,0-63.46c17.493-17.493,45.96-17.495,63.457,0.002C112.224,48.767,112.222,77.235,94.728,94.728z
	 M85.987,74.04c-3.843,8.887-12.843,14.629-22.928,14.629c-10.301,0-19.354-5.771-23.064-14.703
	c-0.636-1.529,0.089-3.285,1.62-3.922c0.376-0.156,0.766-0.23,1.149-0.23c1.176,0.001,2.292,0.697,2.771,1.851
	c2.776,6.685,9.655,11.005,17.523,11.005c7.69,0,14.528-4.322,17.421-11.012c0.658-1.521,2.424-2.222,3.944-1.563
	C85.945,70.753,86.645,72.519,85.987,74.04z M38.539,40.444c-0.205,0.058-0.407-0.063-0.461-0.262
	c-0.055-0.2,0.063-0.406,0.262-0.461c2.304-0.633,5.31,2.141,7.121,4.142c0.837-0.693,1.862-1.164,2.983-1.34
	c-0.633-2.564-1.779-5.603-3.502-5.986c-0.202-0.045-0.329-0.246-0.284-0.448c0.045-0.2,0.232-0.331,0.448-0.284
	c2.22,0.495,3.467,4.047,4.093,6.646c0.071-0.002,0.141-0.011,0.212-0.011c0.629,0,1.234,0.096,1.807,0.27
	c-0.452-2.587-0.92-7.245,1.218-8.71c0.17-0.115,0.403-0.074,0.521,0.098c0.117,0.171,0.073,0.404-0.098,0.521
	c-1.771,1.213-1.337,5.717-0.825,8.41c2.111,0.989,3.577,3.128,3.577,5.612c0,3.426-2.777,6.203-6.2,6.203s-6.2-2.777-6.2-6.203
	c0-1.652,0.651-3.151,1.706-4.263C43.076,42.356,40.356,39.948,38.539,40.444z M88.86,40.046c-0.054,0.198-0.256,0.319-0.461,0.262
	c-1.817-0.496-4.537,1.912-6.378,3.935c1.055,1.111,1.706,2.61,1.706,4.263c0,3.426-2.777,6.203-6.2,6.203s-6.2-2.777-6.2-6.203
	c0-2.484,1.466-4.623,3.577-5.612c0.512-2.693,0.945-7.197-0.825-8.41c-0.171-0.117-0.215-0.351-0.098-0.521
	c0.118-0.172,0.352-0.213,0.521-0.098c2.138,1.465,1.67,6.123,1.218,8.71c0.572-0.174,1.178-0.27,1.807-0.27
	c0.071,0,0.142,0.009,0.212,0.011c0.626-2.6,1.873-6.151,4.093-6.646c0.216-0.047,0.403,0.084,0.448,0.284
	c0.045,0.202-0.082,0.403-0.284,0.448c-1.724,0.384-2.869,3.422-3.503,5.986c1.123,0.176,2.147,0.646,2.984,1.34
	c1.812-2.001,4.817-4.774,7.121-4.142C88.798,39.64,88.915,39.846,88.86,40.046z"/>
</svg>
