<?xml version="1.0" encoding="utf-8"?>
<!-- Generator: Adobe Illustrator 16.0.0, SVG Export Plug-In . SVG Version: 6.00 Build 0)  -->
<!DOCTYPE svg PUBLIC "-//W3C//DTD SVG 1.1//EN" "http://www.w3.org/Graphics/SVG/1.1/DTD/svg11.dtd">
<svg version="1.1" id="Layer_1" xmlns="http://www.w3.org/2000/svg" xmlns:xlink="http://www.w3.org/1999/xlink" x="0px" y="0px"
	 width="126px" height="126px" viewBox="0 0 126 126" enable-background="new 0 0 126 126" xml:space="preserve">
<path stroke="#6D6E70" stroke-width="0" stroke-linecap="round" stroke-linejoin="round" d="M25.486,25.483
	C4.799,46.169,4.801,79.828,25.488,100.517c20.682,20.684,54.34,20.684,75.027-0.005c20.686-20.684,20.684-54.341,0.002-75.024
	C79.828,4.799,46.17,4.799,25.486,25.483z M94.729,94.728c-17.494,17.493-45.963,17.495-63.455,0.002
	c-17.498-17.497-17.496-45.966,0-63.46c17.492-17.493,45.959-17.495,63.457,0.003C112.225,48.766,112.223,77.234,94.729,94.728z
	 M52.799,51.639c1.16,1.127,1.885,2.701,1.885,4.446c0,3.426-2.777,6.203-6.199,6.203c-3.424,0-6.201-2.777-6.201-6.203
	c0-1.679,0.67-3.199,1.754-4.315l-5.182-5.183c-1.229-1.229-1.229-3.221,0-4.449c1.229-1.23,3.221-1.23,4.451,0l9.455,9.455
	C52.775,51.606,52.785,51.624,52.799,51.639z M73.314,56.085c0-1.744,0.723-3.318,1.883-4.445c0.014-0.015,0.023-0.032,0.039-0.047
	l9.457-9.455c1.229-1.23,3.221-1.23,4.451,0c1.229,1.229,1.229,3.221-0.002,4.449l-5.182,5.183c1.084,1.116,1.754,2.637,1.754,4.315
	c0,3.426-2.777,6.203-6.199,6.203C76.092,62.288,73.314,59.511,73.314,56.085z M69.908,79.269l26.92-1.052
	c-5.207,17.413-23.615,27.348-41.029,22.14L69.908,79.269z"/>
</svg>
