<?xml version="1.0" encoding="utf-8"?>
<!-- Generator: Adobe Illustrator 16.0.0, SVG Export Plug-In . SVG Version: 6.00 Build 0)  -->
<!DOCTYPE svg PUBLIC "-//W3C//DTD SVG 1.1//EN" "http://www.w3.org/Graphics/SVG/1.1/DTD/svg11.dtd">
<svg version="1.1" id="Layer_1" xmlns="http://www.w3.org/2000/svg" xmlns:xlink="http://www.w3.org/1999/xlink" x="0px" y="0px"
	 width="126px" height="126px" viewBox="0 0 126 126" enable-background="new 0 0 126 126" xml:space="preserve">
<path stroke="#6D6E70" stroke-width="0" stroke-linecap="round" stroke-linejoin="round" d="M100.515,100.512
	c20.686-20.684,20.684-54.341,0.002-75.024C79.829,4.799,46.17,4.799,25.486,25.483C4.798,46.169,4.8,79.829,25.488,100.517
	C46.17,121.201,79.829,121.201,100.515,100.512z M31.273,31.27c17.494-17.493,45.96-17.495,63.457,0.002
	c17.494,17.494,17.492,45.962-0.002,63.455c-17.493,17.494-45.961,17.496-63.455,0.002C13.775,77.233,13.777,48.764,31.273,31.27z
	 M85.988,74.039c-3.843,8.887-12.843,14.629-22.928,14.629c-10.301,0-19.354-5.771-23.064-14.703
	c-0.636-1.53,0.089-3.286,1.62-3.921c0.376-0.156,0.766-0.23,1.15-0.23c1.176,0,2.292,0.696,2.771,1.85
	c2.777,6.685,9.655,11.004,17.523,11.004c7.69,0,14.528-4.322,17.421-11.011c0.658-1.521,2.424-2.222,3.944-1.563
	C85.946,70.752,86.645,72.518,85.988,74.039z M38.56,57.617h12.982c4.127,0,7.479-3.8,7.589-8.533h7.737
	c0.11,4.733,3.462,8.533,7.589,8.533H87.44c4.197,0,7.6-3.926,7.6-8.771v-0.409c0-4.844-3.403-8.771-7.6-8.771H74.458
	c-3.397,0-6.273,2.574-7.246,6.125h-8.423c-0.973-3.55-3.849-6.125-7.246-6.125H38.56c-4.197,0-7.6,3.926-7.6,8.771v0.409
	C30.96,53.69,34.363,57.617,38.56,57.617z M69.858,48.438c0-3.182,2.063-5.771,4.6-5.771H87.44c2.536,0,4.6,2.589,4.6,5.771v0.409
	c0,3.182-2.063,5.771-4.6,5.771H74.458c-2.536,0-4.6-2.589-4.6-5.771V48.438z M33.96,48.438c0-3.182,2.063-5.771,4.6-5.771h12.982
	c2.536,0,4.6,2.589,4.6,5.771v0.409c0,3.182-2.063,5.771-4.6,5.771H38.56c-2.536,0-4.6-2.589-4.6-5.771V48.438z M41.535,48.641
	c0-1.769,1.435-3.204,3.203-3.204s3.204,1.435,3.204,3.204c0,1.771-1.435,3.205-3.204,3.205S41.535,50.412,41.535,48.641z
	 M77.746,48.641c0-1.769,1.435-3.204,3.203-3.204s3.204,1.435,3.204,3.204c0,1.771-1.435,3.205-3.204,3.205
	S77.746,50.412,77.746,48.641z"/>
</svg>
