<?xml version="1.0" encoding="utf-8"?>
<!-- Generator: Adobe Illustrator 16.0.0, SVG Export Plug-In . SVG Version: 6.00 Build 0)  -->
<!DOCTYPE svg PUBLIC "-//W3C//DTD SVG 1.1//EN" "http://www.w3.org/Graphics/SVG/1.1/DTD/svg11.dtd">
<svg version="1.1" id="Layer_1" xmlns="http://www.w3.org/2000/svg" xmlns:xlink="http://www.w3.org/1999/xlink" x="0px" y="0px"
	 width="126px" height="126px" viewBox="0 0 126 126" enable-background="new 0 0 126 126" xml:space="preserve">
<path stroke="#6D6E70" stroke-width="0" stroke-linecap="round" stroke-linejoin="round" d="M100.517,25.488
	C79.829,4.8,46.17,4.8,25.487,25.483C4.798,46.17,4.8,79.829,25.489,100.517c20.682,20.685,54.34,20.685,75.026-0.004
	C121.201,79.829,121.199,46.172,100.517,25.488z M94.728,94.728c-17.493,17.494-45.962,17.496-63.455,0.003
	c-17.498-17.497-17.495-45.966,0-63.46c17.493-17.493,45.96-17.495,63.457,0.002C112.224,48.767,112.222,77.235,94.728,94.728z
	 M48.412,54.143c3.586,0,6.5-2.913,6.5-6.5c0-3.588-2.914-6.5-6.5-6.5c-3.588,0-6.5,2.912-6.5,6.5
	C41.912,51.229,44.824,54.143,48.412,54.143z M48.412,43.143c2.48,0,4.5,2.019,4.5,4.5s-2.02,4.5-4.5,4.5
	c-2.482,0-4.5-2.019-4.5-4.5S45.929,43.143,48.412,43.143z M46.412,47.643c0-1.104,0.896-2,2-2s2,0.896,2,2s-0.896,2-2,2
	S46.412,48.746,46.412,47.643z M76.25,54.143c3.586,0,6.5-2.913,6.5-6.5c0-3.588-2.914-6.5-6.5-6.5c-3.588,0-6.5,2.912-6.5,6.5
	C69.75,51.229,72.662,54.143,76.25,54.143z M76.25,43.143c2.48,0,4.5,2.019,4.5,4.5s-2.02,4.5-4.5,4.5c-2.482,0-4.5-2.019-4.5-4.5
	S73.768,43.143,76.25,43.143z M74.25,47.643c0-1.104,0.896-2,2-2s2,0.896,2,2s-0.896,2-2,2S74.25,48.746,74.25,47.643z
	 M84.689,87.521c-22.713,20.02-43.377,0-43.377,0c0-11.55,9.711-20.913,21.688-20.913S84.689,75.971,84.689,87.521z"/>
</svg>
