<?xml version="1.0" encoding="utf-8"?>
<!-- Generator: Adobe Illustrator 16.0.0, SVG Export Plug-In . SVG Version: 6.00 Build 0)  -->
<!DOCTYPE svg PUBLIC "-//W3C//DTD SVG 1.1//EN" "http://www.w3.org/Graphics/SVG/1.1/DTD/svg11.dtd">
<svg version="1.1" id="Layer_1" xmlns="http://www.w3.org/2000/svg" xmlns:xlink="http://www.w3.org/1999/xlink" x="0px" y="0px"
	 width="126px" height="126px" viewBox="0 0 126 126" enable-background="new 0 0 126 126" xml:space="preserve">
<path stroke="#6D6E70" stroke-width="0" stroke-linecap="round" stroke-linejoin="round" d="M25.488,100.517
	c20.682,20.684,54.34,20.684,75.027-0.004c20.686-20.684,20.684-54.341,0.002-75.024C79.828,4.799,46.17,4.799,25.486,25.483
	C4.799,46.169,4.801,79.829,25.488,100.517z M31.273,31.27c17.492-17.493,45.959-17.495,63.457,0.002
	c17.494,17.494,17.492,45.962-0.002,63.455c-17.494,17.494-45.963,17.496-63.455,0.002C13.775,77.233,13.777,48.764,31.273,31.27z
	 M68.828,51.641c0-4.797,3.904-8.701,8.703-8.701c4.797,0,8.699,3.903,8.699,8.701c0,1.381-1.119,2.5-2.5,2.5s-2.5-1.119-2.5-2.5
	c0-2.041-1.66-3.701-3.699-3.701c-2.043,0-3.703,1.66-3.703,3.701c0,1.381-1.119,2.5-2.5,2.5S68.828,53.021,68.828,51.641z
	 M41.105,51.614c0-4.797,3.904-8.701,8.703-8.701c4.797,0,8.701,3.903,8.701,8.701c0,1.381-1.119,2.5-2.5,2.5s-2.5-1.119-2.5-2.5
	c0-2.041-1.66-3.701-3.701-3.701c-2.043,0-3.703,1.66-3.703,3.701c0,1.381-1.119,2.5-2.5,2.5S41.105,52.995,41.105,51.614z
	 M81.607,58.919c0,2.254-1.826,4.081-4.078,4.081s-4.08-1.827-4.08-4.081c0-2.252,1.828-4.08,4.08-4.08S81.607,56.667,81.607,58.919
	z M53.885,58.919c0,2.254-1.826,4.081-4.078,4.081s-4.078-1.827-4.078-4.081c0-2.252,1.826-4.08,4.078-4.08
	S53.885,56.667,53.885,58.919z M40.393,81c0-1.921,1.559-3.478,3.479-3.478h38.26c1.92,0,3.479,1.557,3.479,3.478
	s-1.559,3.478-3.479,3.478h-38.26C41.951,84.478,40.393,82.921,40.393,81z"/>
</svg>
