<?xml version="1.0" encoding="utf-8"?>
<!-- Generator: Adobe Illustrator 16.0.0, SVG Export Plug-In . SVG Version: 6.00 Build 0)  -->
<!DOCTYPE svg PUBLIC "-//W3C//DTD SVG 1.1//EN" "http://www.w3.org/Graphics/SVG/1.1/DTD/svg11.dtd">
<svg version="1.1" id="Layer_1" xmlns="http://www.w3.org/2000/svg" xmlns:xlink="http://www.w3.org/1999/xlink" x="0px" y="0px"
	 width="126px" height="126px" viewBox="0 0 126 126" enable-background="new 0 0 126 126" xml:space="preserve">
<path stroke="#6D6E70" stroke-width="0" stroke-linecap="round" stroke-linejoin="round" d="M100.518,25.488
	C79.828,4.799,46.17,4.799,25.486,25.483C4.799,46.17,4.801,79.828,25.488,100.517c20.682,20.685,54.34,20.685,75.027-0.005
	C121.201,79.828,121.199,46.172,100.518,25.488z M94.729,94.728c-17.494,17.493-45.963,17.495-63.455,0.003
	c-17.498-17.498-17.496-45.967,0-63.461c17.492-17.492,45.959-17.494,63.457,0.003C112.225,48.766,112.223,77.234,94.729,94.728z
	 M86.23,51.641c0,1.381-1.119,2.5-2.5,2.5s-2.5-1.119-2.5-2.5c0-2.041-1.66-3.701-3.699-3.701c-2.043,0-3.703,1.66-3.703,3.701
	c0,1.381-1.119,2.5-2.5,2.5s-2.5-1.119-2.5-2.5c0-4.797,3.904-8.701,8.703-8.701C82.328,42.939,86.23,46.844,86.23,51.641z
	 M41.105,51.614c0-4.798,3.904-8.7,8.703-8.7c4.797,0,8.701,3.902,8.701,8.7c0,1.381-1.119,2.5-2.5,2.5s-2.5-1.119-2.5-2.5
	c0-2.04-1.66-3.7-3.701-3.7c-2.043,0-3.703,1.66-3.703,3.7c0,1.381-1.119,2.5-2.5,2.5S41.105,52.995,41.105,51.614z M77.529,63
	c-2.252,0-4.08-1.827-4.08-4.081c0-2.253,1.828-4.079,4.08-4.079s4.078,1.826,4.078,4.079C81.607,61.173,79.781,63,77.529,63z
	 M53.885,58.919c0,2.254-1.826,4.081-4.078,4.081s-4.078-1.827-4.078-4.081c0-2.253,1.826-4.079,4.078-4.079
	S53.885,56.666,53.885,58.919z M85.609,81c0,1.921-1.559,3.479-3.479,3.479h-38.26c-1.92,0-3.479-1.558-3.479-3.479
	s1.559-3.479,3.479-3.479h38.26C84.051,77.521,85.609,79.079,85.609,81z M32.707,58.927c0,0,0.541,3.958-3.027,4.444
	c0,0-3.654,0.532-4.156-3.145c0,0-0.229-1.674,0.732-3.64c0,0,0.857-1.729,0.918-4.51C27.174,52.077,32.242,55.523,32.707,58.927z
	 M85.053,32.462c1.219,1.818,1.219,3.508,1.219,3.508c0,3.711-3.693,3.678-3.693,3.678c-3.6,0-3.6-3.994-3.6-3.994
	c0-3.436,4.555-7.535,4.555-7.535C83.971,30.865,85.053,32.462,85.053,32.462z M101,67.946c0,3.711-3.693,3.678-3.693,3.678
	c-3.6,0-3.6-3.994-3.6-3.994c0-3.436,4.555-7.535,4.555-7.535c0.438,2.747,1.52,4.344,1.52,4.344C101,66.257,101,67.946,101,67.946z
	"/>
</svg>
