<?xml version="1.0" encoding="utf-8"?>
<!-- Generator: Adobe Illustrator 16.0.0, SVG Export Plug-In . SVG Version: 6.00 Build 0)  -->
<!DOCTYPE svg PUBLIC "-//W3C//DTD SVG 1.1//EN" "http://www.w3.org/Graphics/SVG/1.1/DTD/svg11.dtd">
<svg version="1.1" id="Layer_1" xmlns="http://www.w3.org/2000/svg" xmlns:xlink="http://www.w3.org/1999/xlink" x="0px" y="0px"
	 width="126px" height="126px" viewBox="0 0 126 126" enable-background="new 0 0 126 126" xml:space="preserve">
<path stroke="#6D6E70" stroke-width="0" stroke-linecap="round" stroke-linejoin="round" d="M100.515,100.512
	c20.686-20.684,20.684-54.341,0.002-75.024C79.829,4.799,46.169,4.799,25.486,25.483C4.798,46.169,4.8,79.829,25.488,100.517
	C46.169,121.201,79.829,121.201,100.515,100.512z M31.273,31.27c17.493-17.493,45.959-17.495,63.457,0.002
	c17.494,17.494,17.492,45.962-0.002,63.455c-17.494,17.494-45.962,17.496-63.455,0.002C13.775,77.233,13.777,48.764,31.273,31.27z
	 M68.828,51.641c0-4.797,3.904-8.701,8.703-8.701c4.797,0,8.7,3.903,8.7,8.701c0,1.381-1.119,2.5-2.5,2.5s-2.5-1.119-2.5-2.5
	c0-2.041-1.66-3.701-3.7-3.701c-2.043,0-3.703,1.66-3.703,3.701c0,1.381-1.119,2.5-2.5,2.5S68.828,53.021,68.828,51.641z
	 M41.105,51.614c0-4.797,3.904-8.701,8.703-8.701c4.797,0,8.701,3.903,8.701,8.701c0,1.381-1.119,2.5-2.5,2.5s-2.5-1.119-2.5-2.5
	c0-2.041-1.66-3.701-3.701-3.701c-2.042,0-3.703,1.66-3.703,3.701c0,1.381-1.119,2.5-2.5,2.5S41.105,52.995,41.105,51.614z
	 M64.06,69.342c10.084,0,19.084,5.742,22.927,14.629c0.658,1.521-0.041,3.287-1.563,3.944c-1.52,0.66-3.285-0.042-3.943-1.563
	c-2.894-6.689-9.731-11.011-17.421-11.011c-7.869,0-14.747,4.319-17.523,11.004c-0.48,1.154-1.596,1.85-2.771,1.85
	c-0.385,0-0.773-0.074-1.15-0.23c-1.53-0.636-2.256-2.392-1.619-3.921C44.706,75.113,53.759,69.342,64.06,69.342z M35.175,66.771
	c0.001-3.435,4.556-7.535,4.556-7.535c0.438,2.747,1.52,4.344,1.52,4.344c1.218,1.818,1.218,3.507,1.218,3.507
	c0,3.712-3.692,3.679-3.692,3.679C35.175,70.765,35.175,66.771,35.175,66.771z"/>
</svg>
