<?xml version="1.0" encoding="utf-8"?>
<!-- Generator: Adobe Illustrator 16.0.0, SVG Export Plug-In . SVG Version: 6.00 Build 0)  -->
<!DOCTYPE svg PUBLIC "-//W3C//DTD SVG 1.1//EN" "http://www.w3.org/Graphics/SVG/1.1/DTD/svg11.dtd">
<svg version="1.1" id="Layer_1" xmlns="http://www.w3.org/2000/svg" xmlns:xlink="http://www.w3.org/1999/xlink" x="0px" y="0px"
	 width="126px" height="126px" viewBox="0 0 126 126" enable-background="new 0 0 126 126" xml:space="preserve">
<path stroke="#6D6E70" stroke-width="0" stroke-linecap="round" stroke-linejoin="round" d="M100.515,100.512
	c20.686-20.684,20.684-54.34,0.002-75.023C79.828,4.799,46.17,4.799,25.486,25.482C4.798,46.17,4.8,79.828,25.488,100.516
	C46.17,121.201,79.828,121.201,100.515,100.512z M31.272,31.27c17.493-17.492,45.96-17.494,63.457,0.002
	c17.494,17.494,17.492,45.963-0.002,63.455c-17.493,17.494-45.962,17.496-63.455,0.004C13.774,77.232,13.777,48.764,31.272,31.27z
	 M71.327,48.641c0-3.424,2.78-6.201,6.203-6.201s6.2,2.777,6.2,6.201c0,3.426-2.777,6.203-6.2,6.203S71.327,52.066,71.327,48.641z
	 M39.995,73.965c-0.636-1.529,0.089-3.285,1.62-3.922c0.376-0.156,0.766-0.23,1.149-0.23c1.176,0.002,2.292,0.697,2.771,1.852
	c2.776,6.684,9.655,11.004,17.523,11.004c7.69,0,14.528-4.322,17.421-11.012c0.658-1.52,2.424-2.221,3.944-1.563
	s2.22,2.424,1.563,3.945c-3.843,8.887-12.843,14.629-22.928,14.629C52.759,88.668,43.705,82.896,39.995,73.965z M43.257,48.688
	c0-0.338,0.036-0.668,0.088-0.992c0.476,2.93,3.008,5.166,6.066,5.166c3.061,0,5.593-2.236,6.067-5.166
	c0.052,0.324,0.087,0.654,0.087,0.992c0,3.4-2.756,6.156-6.154,6.156C46.014,54.844,43.257,52.088,43.257,48.688z"/>
</svg>
