<?xml version="1.0" encoding="utf-8"?>
<!-- Generator: Adobe Illustrator 16.0.0, SVG Export Plug-In . SVG Version: 6.00 Build 0)  -->
<!DOCTYPE svg PUBLIC "-//W3C//DTD SVG 1.1//EN" "http://www.w3.org/Graphics/SVG/1.1/DTD/svg11.dtd">
<svg version="1.1" id="Layer_1" xmlns="http://www.w3.org/2000/svg" xmlns:xlink="http://www.w3.org/1999/xlink" x="0px" y="0px"
	 width="126px" height="126px" viewBox="0 0 126 126" enable-background="new 0 0 126 126" xml:space="preserve">
<path stroke="#6D6E70" stroke-width="0" stroke-linecap="round" stroke-linejoin="round" d="M100.518,25.488
	C79.828,4.799,46.17,4.799,25.486,25.483C4.799,46.169,4.801,79.829,25.488,100.517c20.682,20.684,54.34,20.684,75.027-0.004
	C121.201,79.829,121.199,46.171,100.518,25.488z M94.729,94.728c-17.494,17.494-45.963,17.496-63.455,0.002
	c-17.498-17.497-17.496-45.966,0-63.46c17.492-17.493,45.959-17.495,63.457,0.002C112.225,48.766,112.223,77.235,94.729,94.728z
	 M85.988,72.039c-2.512,5.805-7.23,10.254-13.006,12.652v3.941c0,5.295-4.471,9.587-9.982,9.587s-9.98-4.292-9.98-9.587V84.7
	c-5.863-2.405-10.594-6.885-13.023-12.734c-0.637-1.53,0.09-3.286,1.619-3.921c0.377-0.156,0.766-0.23,1.15-0.23
	c1.176,0,2.291,0.696,2.771,1.85c2.777,6.685,9.654,11.004,17.523,11.004c7.689,0,14.527-4.322,17.42-11.011
	c0.658-1.521,2.424-2.222,3.945-1.563C85.945,68.752,86.646,70.518,85.988,72.039z M71.328,48.642c0-1.198,2.779-2.17,6.203-2.17
	c3.422,0,6.199,0.972,6.199,2.17c0,1.199-2.777,2.171-6.199,2.171C74.107,50.813,71.328,49.841,71.328,48.642z M43.211,48.641
	c0-3.423,2.777-6.201,6.201-6.201c3.422,0,6.199,2.777,6.199,6.201c0,3.426-2.777,6.203-6.199,6.203
	C45.988,54.844,43.211,52.067,43.211,48.641z"/>
</svg>
