<?xml version="1.0" encoding="utf-8"?>
<!-- Generator: Adobe Illustrator 16.0.0, SVG Export Plug-In . SVG Version: 6.00 Build 0)  -->
<!DOCTYPE svg PUBLIC "-//W3C//DTD SVG 1.1//EN" "http://www.w3.org/Graphics/SVG/1.1/DTD/svg11.dtd">
<svg version="1.1" id="Layer_1" xmlns="http://www.w3.org/2000/svg" xmlns:xlink="http://www.w3.org/1999/xlink" x="0px" y="0px"
	 width="126px" height="126px" viewBox="0 0 126 126" enable-background="new 0 0 126 126" xml:space="preserve">
<path stroke="#6D6E70" stroke-width="0" stroke-linecap="round" stroke-linejoin="round" d="M25.486,25.483
	C4.799,46.17,4.801,79.828,25.488,100.517c20.682,20.685,54.34,20.685,75.027-0.005c20.686-20.684,20.684-54.34,0.002-75.023
	C79.828,4.799,46.17,4.799,25.486,25.483z M94.729,94.728c-17.494,17.493-45.963,17.495-63.455,0.003
	c-17.498-17.498-17.496-45.967,0-63.461c17.492-17.492,45.959-17.494,63.457,0.003C112.225,48.766,112.223,77.234,94.729,94.728z
	 M86.988,83.971c0.656,1.521-0.043,3.287-1.563,3.945c-1.521,0.659-3.287-0.042-3.945-1.563c-2.893-6.689-9.73-11.012-17.42-11.012
	c-7.869,0-14.748,4.32-17.523,11.005c-0.48,1.153-1.596,1.85-2.771,1.851c-0.385,0-0.773-0.074-1.15-0.23
	c-1.531-0.637-2.256-2.393-1.619-3.922c3.709-8.932,12.764-14.703,23.064-14.703C74.145,69.342,83.145,75.084,86.988,83.971z
	 M47.521,53.856c-1.688-1.688-1.688-4.426,0-6.113c1.689-1.689,4.428-1.689,6.117,0c1.688,1.689,1.688,4.429,0,6.115
	C51.951,55.547,49.213,55.547,47.521,53.856z M63.018,29.374c0.541-1.596,2.271-2.452,3.869-1.911l4.117,1.394l2.248-3.72
	c0.873-1.44,2.748-1.903,4.189-1.031c1.441,0.871,1.904,2.748,1.031,4.188l-1.551,2.566l2.246,0.761
	c1.596,0.542,2.451,2.272,1.91,3.869c-0.539,1.596-2.271,2.452-3.869,1.91l-3.521-1.192l-1.924,3.181
	c-0.871,1.443-2.746,1.906-4.189,1.033c-1.441-0.871-1.904-2.747-1.031-4.189l1.227-2.028l-2.842-0.962
	C63.332,32.701,62.477,30.969,63.018,29.374z M79.432,47.672c1.688,1.688,1.688,4.426,0,6.113c-1.691,1.69-4.43,1.69-6.117,0.002
	c-1.688-1.687-1.688-4.426,0-6.115C75.004,45.982,77.742,45.982,79.432,47.672z"/>
</svg>
