<?xml version="1.0" encoding="utf-8"?>
<!-- Generator: Adobe Illustrator 16.0.0, SVG Export Plug-In . SVG Version: 6.00 Build 0)  -->
<!DOCTYPE svg PUBLIC "-//W3C//DTD SVG 1.1//EN" "http://www.w3.org/Graphics/SVG/1.1/DTD/svg11.dtd">
<svg version="1.1" id="Layer_1" xmlns="http://www.w3.org/2000/svg" xmlns:xlink="http://www.w3.org/1999/xlink" x="0px" y="0px"
	 width="126px" height="126px" viewBox="0 0 126 126" enable-background="new 0 0 126 126" xml:space="preserve">
<path stroke="#6D6E70" stroke-width="0" stroke-linecap="round" stroke-linejoin="round" d="M100.515,100.512
	c20.686-20.684,20.684-54.341,0.002-75.024C79.829,4.799,46.169,4.799,25.486,25.483C4.798,46.169,4.8,79.829,25.488,100.517
	C46.169,121.201,79.829,121.201,100.515,100.512z M31.273,31.27c17.493-17.493,45.959-17.495,63.457,0.002
	c17.494,17.494,17.492,45.962-0.002,63.455c-17.494,17.494-45.962,17.496-63.455,0.002C13.775,77.233,13.777,48.764,31.273,31.27z
	 M63,64.774c9.023,0,16.363,7.341,16.363,16.365c0,9.027-7.34,16.371-16.363,16.371s-16.363-7.344-16.363-16.371
	C46.636,72.115,53.976,64.774,63,64.774z M38.979,53.876c-0.055-0.113-0.082-0.237-0.082-0.359c0-0.183,0.062-0.363,0.175-0.506
	l7.695-9.755c0.158-0.197,0.392-0.308,0.645-0.308s0.486,0.111,0.641,0.304l7.697,9.757c0.189,0.237,0.229,0.58,0.1,0.859
	c-0.146,0.293-0.428,0.467-0.741,0.467h-3.554c-0.181,0-0.351-0.083-0.463-0.225l-3.68-4.664l-3.681,4.664
	c-0.112,0.141-0.281,0.225-0.462,0.225h-3.552C39.403,54.335,39.113,54.155,38.979,53.876z M71.098,53.876
	c-0.055-0.113-0.082-0.237-0.082-0.359c0-0.183,0.062-0.363,0.175-0.506l7.695-9.755c0.158-0.197,0.392-0.308,0.645-0.308
	s0.486,0.111,0.641,0.304l7.697,9.757c0.189,0.237,0.229,0.58,0.1,0.859c-0.146,0.293-0.428,0.467-0.741,0.467h-3.554
	c-0.181,0-0.351-0.083-0.463-0.225l-3.68-4.664l-3.681,4.664c-0.112,0.141-0.281,0.225-0.462,0.225h-3.552
	C71.522,54.335,71.232,54.155,71.098,53.876z"/>
</svg>
