<?xml version="1.0" encoding="utf-8"?>
<!-- Generator: Adobe Illustrator 16.0.0, SVG Export Plug-In . SVG Version: 6.00 Build 0)  -->
<!DOCTYPE svg PUBLIC "-//W3C//DTD SVG 1.1//EN" "http://www.w3.org/Graphics/SVG/1.1/DTD/svg11.dtd">
<svg version="1.1" id="Layer_1" xmlns="http://www.w3.org/2000/svg" xmlns:xlink="http://www.w3.org/1999/xlink" x="0px" y="0px"
	 width="126px" height="126px" viewBox="0 0 126 126" enable-background="new 0 0 126 126" xml:space="preserve">
<path stroke="#6D6E70" stroke-width="0" stroke-linecap="round" stroke-linejoin="round" d="M57.912,115.787
	c0.505,0.049,1.012,0.074,1.519,0.108c0.341,0.022,0.681,0.058,1.022,0.073c14.421,0.687,29.073-4.465,40.063-15.457
	c20.686-20.684,20.684-54.34,0.002-75.023C90.174,15.144,76.586,9.971,63,9.971c-13.587-0.001-27.173,5.17-37.515,15.513
	C4.797,46.17,4.799,79.828,25.487,100.516C34.536,109.566,46.068,114.656,57.912,115.787z M31.274,31.27
	C40.021,22.523,51.51,18.15,63,18.15s22.98,4.374,31.729,13.122c17.494,17.493,17.492,45.962-0.002,63.454
	c-9.293,9.293-21.683,13.65-33.879,13.07c-10.763-0.512-21.374-4.867-29.573-13.066C13.776,77.232,13.778,48.764,31.274,31.27z
	 M56.251,82.848c0-10.014,0.823-18.138,8.002-18.138c7.176,0,9.998,8.124,9.998,18.138c0,10.019-2.822,18.142-9.998,18.142
	C57.074,100.989,56.251,92.866,56.251,82.848z M42.739,47.082c0-1.363,0.445-2.619,1.189-3.643c1.12,1.609,2.981,2.666,5.09,2.666
	c2.062,0,3.884-1.012,5.011-2.561c0.698,1.004,1.11,2.222,1.11,3.537c0,3.424-2.776,6.201-6.2,6.201
	C45.517,53.283,42.739,50.506,42.739,47.082z M70.857,47.082c0-1.363,0.445-2.619,1.189-3.643c1.12,1.609,2.981,2.666,5.09,2.666
	c2.062,0,3.884-1.012,5.011-2.561c0.698,1.004,1.11,2.222,1.11,3.537c0,3.424-2.776,6.201-6.2,6.201
	C73.635,53.283,70.857,50.506,70.857,47.082z"/>
</svg>
