<?xml version="1.0" encoding="utf-8"?>
<!-- Generator: Adobe Illustrator 16.0.0, SVG Export Plug-In . SVG Version: 6.00 Build 0)  -->
<!DOCTYPE svg PUBLIC "-//W3C//DTD SVG 1.1//EN" "http://www.w3.org/Graphics/SVG/1.1/DTD/svg11.dtd">
<svg version="1.1" id="Layer_1" xmlns="http://www.w3.org/2000/svg" xmlns:xlink="http://www.w3.org/1999/xlink" x="0px" y="0px"
	 width="126px" height="126px" viewBox="0 0 126 126" enable-background="new 0 0 126 126" xml:space="preserve">
<g>
	<path d="M116.88,0.75H9.12c-4.615,0-8.37,3.755-8.37,8.37V116.88c0,4.615,3.755,8.37,8.37,8.37H116.88
		c4.615,0,8.37-3.755,8.37-8.37V9.12C125.25,4.505,121.495,0.75,116.88,0.75z M117.229,115.202c0,1.118-0.909,2.027-2.027,2.027
		H10.798c-1.118,0-2.027-0.909-2.027-2.027V10.798c0-1.118,0.909-2.027,2.027-2.027h104.403c1.118,0,2.027,0.909,2.027,2.027
		V115.202z"/>
	<path d="M109.708,31.613H55.415v-2.354c0-2.889-2.342-5.231-5.231-5.231h-1.046c-2.889,0-5.231,2.342-5.231,5.231v2.354h-8.37
		v-2.354c0-2.889-2.342-5.231-5.231-5.231h-1.046c-2.889,0-5.231,2.342-5.231,5.231v2.354h-7.737c-1.589,0-2.877,1.289-2.877,2.877
		c0,1.588,1.288,2.877,2.877,2.877h7.737v2.354c0,2.889,2.342,5.231,5.231,5.231h1.046c2.889,0,5.231-2.342,5.231-5.231v-2.354h8.37
		v2.354c0,2.889,2.342,5.231,5.231,5.231h1.046c2.889,0,5.231-2.342,5.231-5.231v-2.354h54.293c1.589,0,2.877-1.289,2.877-2.877
		C112.585,32.902,111.297,31.613,109.708,31.613z"/>
	<path d="M109.708,60.671H94.387v-2.354c0-2.889-2.342-5.231-5.231-5.231h-1.046c-2.889,0-5.231,2.342-5.231,5.231v2.354h-8.37
		v-2.354c0-2.889-2.342-5.231-5.231-5.231h-1.046c-2.889,0-5.231,2.342-5.231,5.231v2.354H39.634v-2.354
		c0-2.889-2.342-5.231-5.231-5.231h-1.046c-2.889,0-5.231,2.342-5.231,5.231v2.354H16.292c-1.589,0-2.877,1.289-2.877,2.877
		c0,1.588,1.288,2.877,2.877,2.877h11.834v2.354c0,2.889,2.342,5.231,5.231,5.231h1.046c2.889,0,5.231-2.342,5.231-5.231v-2.354H63
		v2.354c0,2.889,2.342,5.231,5.231,5.231h1.046c2.889,0,5.231-2.342,5.231-5.231v-2.354h8.37v2.354c0,2.889,2.342,5.231,5.231,5.231
		h1.046c2.889,0,5.231-2.342,5.231-5.231v-2.354h15.322c1.589,0,2.877-1.289,2.877-2.877
		C112.585,61.959,111.297,60.671,109.708,60.671z"/>
	<path d="M109.708,93.104H90.986V90.75c0-2.889-2.342-5.231-5.231-5.231h-1.046c-2.889,0-5.231,2.342-5.231,5.231v2.354h-8.37V90.75
		c0-2.889-2.342-5.231-5.231-5.231h-1.046c-2.889,0-5.231,2.342-5.231,5.231v2.354H16.292c-1.589,0-2.877,1.288-2.877,2.877
		s1.288,2.877,2.877,2.877H59.6v2.354c0,2.889,2.342,5.231,5.231,5.231h1.046c2.889,0,5.231-2.342,5.231-5.231v-2.354h8.37v2.354
		c0,2.889,2.342,5.231,5.231,5.231h1.046c2.889,0,5.231-2.342,5.231-5.231v-2.354h18.722c1.589,0,2.877-1.288,2.877-2.877
		S111.297,93.104,109.708,93.104z"/>
</g>
</svg>
