<?xml version="1.0" encoding="utf-8"?>
<!-- Generator: Adobe Illustrator 16.0.0, SVG Export Plug-In . SVG Version: 6.00 Build 0)  -->
<!DOCTYPE svg PUBLIC "-//W3C//DTD SVG 1.1//EN" "http://www.w3.org/Graphics/SVG/1.1/DTD/svg11.dtd">
<svg version="1.1" id="Layer_1" xmlns="http://www.w3.org/2000/svg" xmlns:xlink="http://www.w3.org/1999/xlink" x="0px" y="0px"
	 width="126px" height="126px" viewBox="0 0 126 126" enable-background="new 0 0 126 126" xml:space="preserve">
<g>
	<polygon points="27.129,56.748 8.121,56.748 8.121,85.28 27.129,74.864 	"/>
	<polygon points="8.121,111.058 27.129,111.058 27.129,94.44 8.121,104.857 	"/>
	<polygon points="58.25,37.481 39.242,37.481 39.242,68.225 58.25,57.809 	"/>
	<polygon points="39.242,111.058 58.25,111.058 58.25,77.385 39.242,87.803 	"/>
	<polygon points="71.276,111.058 90.283,111.058 90.283,59.83 71.276,70.246 	"/>
	<polygon points="90.283,14.942 71.276,14.942 71.276,50.67 90.283,40.253 	"/>
	<polygon points="98.012,24.666 104.406,36.945 1.675,93.671 1.675,103.479 108.374,44.562 115.044,56.051 124.225,31.287 	"/>
</g>
</svg>
