<?xml version="1.0" encoding="utf-8"?>
<!-- Generator: Adobe Illustrator 16.0.0, SVG Export Plug-In . SVG Version: 6.00 Build 0)  -->
<!DOCTYPE svg PUBLIC "-//W3C//DTD SVG 1.1//EN" "http://www.w3.org/Graphics/SVG/1.1/DTD/svg11.dtd">
<svg version="1.1" id="Layer_1" xmlns="http://www.w3.org/2000/svg" xmlns:xlink="http://www.w3.org/1999/xlink" x="0px" y="0px"
	 width="126px" height="126px" viewBox="0 0 126 126" enable-background="new 0 0 126 126" xml:space="preserve">
<g>
	<path d="M102.12,91.124v4.694c3.883,0,7.041-3.158,7.041-7.041v-8.763c0-3.883-3.158-7.042-7.041-7.042H27.636
		c-3.883,0-7.041,3.159-7.041,7.042v8.763c0,3.883,3.158,7.041,7.041,7.041v-4.694c-1.294,0-2.347-1.053-2.347-2.347v-8.763
		c0-1.294,1.053-2.347,2.347-2.347h74.483c1.294,0,2.347,1.053,2.347,2.347v8.763C104.467,90.071,103.414,91.124,102.12,91.124z"/>
	<path d="M112.603,0.523H13.397c-4.4,0-7.98,3.58-7.98,7.98v99.206c0,4.4,3.58,7.98,7.98,7.98h14.005v-4.07v-1.498v-1.004H13.397
		c-0.777,0-1.409-0.632-1.409-1.409V8.504c0-0.777,0.632-1.409,1.409-1.409h99.206c0.777,0,1.409,0.632,1.409,1.409v99.206
		c0,0.777-0.632,1.409-1.409,1.409h-10.249v1.004v1.498v4.07h10.249c4.4,0,7.98-3.58,7.98-7.98V8.504
		C120.583,4.104,117.003,0.523,112.603,0.523z"/>
	<rect x="19.813" y="17.423" width="71.041" height="42.249"/>
	<rect x="95.547" y="17.423" width="11.266" height="11.266"/>
	<rect x="95.547" y="32.914" width="11.266" height="11.266"/>
	<rect x="95.547" y="48.405" width="11.266" height="11.266"/>
	<path d="M29.279,111.386h71.197V82.827H29.279V111.386z M33.265,89.795c2.607-0.418,4.693-1.928,5.424-3.887h52.907
		c0.68,1.824,2.539,3.256,4.896,3.783v14.833c-2.356,0.527-4.213,1.958-4.895,3.78H38.69c-0.731-1.959-2.817-3.474-5.425-3.891
		V89.795z"/>
	<ellipse cx="64.878" cy="97.106" rx="9.83" ry="9.708"/>
	<path d="M91.597,115.222H38.69c-0.213-0.571-0.554-1.098-0.977-1.578h-8.434v4.66h71.197v-4.66h-7.9
		C92.152,114.123,91.811,114.65,91.597,115.222z"/>
	<path d="M91.597,122.395H38.69c-0.213-0.572-0.554-1.099-0.977-1.579h-8.434v4.66h71.197v-4.66h-7.9
		C92.152,121.295,91.811,121.823,91.597,122.395z"/>
</g>
</svg>
