<?xml version="1.0" encoding="utf-8"?>
<!-- Generator: Adobe Illustrator 16.0.0, SVG Export Plug-In . SVG Version: 6.00 Build 0)  -->
<!DOCTYPE svg PUBLIC "-//W3C//DTD SVG 1.1//EN" "http://www.w3.org/Graphics/SVG/1.1/DTD/svg11.dtd">
<svg version="1.1" id="Layer_1" xmlns="http://www.w3.org/2000/svg" xmlns:xlink="http://www.w3.org/1999/xlink" x="0px" y="0px"
	 width="126px" height="126px" viewBox="0 0 126 126" enable-background="new 0 0 126 126" xml:space="preserve">
<g>
	<path d="M33.126,68.126C6.258,67.762,0.294,74.509,0.294,74.509s5.663,7.164,1.826,9.671c-3.841,2.507,10.431,2.187,10.431,2.187
		c-0.154-0.713-0.248-1.449-0.248-2.205c0-5.5,4.457-9.957,9.955-9.957c5.498,0,9.957,4.457,9.957,9.957
		c0,0.756-0.092,1.492-0.253,2.205h7.546h48.337h1.549c-0.163-0.713-0.253-1.449-0.253-2.205c0-5.5,4.455-9.957,9.957-9.957
		c5.496,0,9.958,4.457,9.958,9.957c0,0.756-0.096,1.492-0.255,2.205c0.045,0,0.693,0,7.319,0c5.333-5.331,0.041-14.877,0.041-14.877
		C60.22,42.228,33.126,68.126,33.126,68.126z M65.429,68.58H37.98c0,0,10.779-8.297,27.448-8.252V68.58z M68.443,68.58v-8.313
		c0,0,18.572,0.165,27.182,8.313H68.443z"/>
	<path d="M99.323,76.091c-4.415,0-7.995,3.579-7.995,7.995c0,4.414,3.58,7.994,7.995,7.994c4.414,0,7.995-3.58,7.995-7.994
		C107.317,79.67,103.737,76.091,99.323,76.091z M99.323,87.158c-1.695,0-3.074-1.376-3.074-3.072s1.379-3.074,3.074-3.074
		c1.694,0,3.077,1.378,3.077,3.074S101.017,87.158,99.323,87.158z"/>
	<path d="M22.415,76.091c-4.415,0-7.995,3.579-7.995,7.995c0,4.414,3.58,7.994,7.995,7.994s7.995-3.58,7.995-7.994
		C30.409,79.67,26.829,76.091,22.415,76.091z M22.415,87.158c-1.695,0-3.073-1.376-3.073-3.072s1.378-3.074,3.073-3.074
		c1.694,0,3.076,1.378,3.076,3.074S24.108,87.158,22.415,87.158z"/>
	<path d="M106.527,64.891h0.126c-0.042-0.017-0.083-0.035-0.126-0.053V64.891z"/>
	<path d="M107.967,33.92c-9.796,0-17.737,7.941-17.737,17.738c0,2.889,0.706,5.607,1.93,8.018c4.692,1.354,9.486,3.077,14.368,5.162
		v-3.087c-2.038-0.064-4.076-0.646-5.241-1.422l0.875-3.041c1.261,0.743,3.072,1.423,5.046,1.423c2.039,0,3.43-1.002,3.43-2.556
		c0-1.456-1.133-2.395-3.527-3.268c-3.398-1.229-5.598-2.784-5.598-5.791c0-2.783,1.941-4.918,5.209-5.5v-3.172h2.654v3.01
		c2.038,0.064,3.429,0.549,4.463,1.068l-0.872,2.977c-0.776-0.356-2.2-1.101-4.401-1.101c-2.264,0-3.072,1.165-3.072,2.263
		c0,1.328,1.165,2.071,3.914,3.172c3.624,1.359,5.242,3.106,5.242,5.984c0,2.751-1.909,5.179-5.468,5.761v3.332h-2.527
		c2.447,1.048,4.915,2.178,7.406,3.408c6.791-2.487,11.646-8.988,11.646-16.641C125.706,41.861,117.764,33.92,107.967,33.92z"/>
</g>
</svg>
