<?xml version="1.0" encoding="utf-8"?>
<!-- Generator: Adobe Illustrator 16.0.0, SVG Export Plug-In . SVG Version: 6.00 Build 0)  -->
<!DOCTYPE svg PUBLIC "-//W3C//DTD SVG 1.1//EN" "http://www.w3.org/Graphics/SVG/1.1/DTD/svg11.dtd">
<svg version="1.1" id="Layer_1" xmlns="http://www.w3.org/2000/svg" xmlns:xlink="http://www.w3.org/1999/xlink" x="0px" y="0px"
	 width="126px" height="126px" viewBox="0 0 126 126" enable-background="new 0 0 126 126" xml:space="preserve">
<g>
	<path d="M84.366,37.563v16.446H41.635V37.563c-3.749,0.631-6.608,3.883-6.608,7.811v70.654c0,4.379,3.55,7.929,7.93,7.929h40.088
		c4.38,0,7.93-3.55,7.93-7.929V45.374C90.974,41.445,88.114,38.194,84.366,37.563z M54.096,116.185h-7.544v-7.543h7.544V116.185z
		 M54.096,102.526h-7.544v-7.542h7.544V102.526z M54.096,89.47h-7.544v-7.542h7.544V89.47z M66.666,116.185h-7.543v-7.543h7.543
		V116.185z M66.666,102.526h-7.543v-7.542h7.543V102.526z M66.666,89.47h-7.543v-7.542h7.543V89.47z M79.447,116.185h-7.544v-7.543
		h7.544V116.185z M79.447,102.526h-7.544v-7.542h7.544V102.526z M79.447,89.47h-7.544v-7.542h7.544V89.47z M83.852,77.176H41.268
		V60.143h42.584V77.176z"/>
	<path d="M65.646,2.828c0-0.269,0.027-0.531,0.078-0.784H49.183c-2.165,0-3.919,1.755-3.919,3.92v45.221h20.383V2.828z"/>
	<path d="M73.877,51.185h6.859V5.963c0-2.165-1.754-3.92-3.919-3.92h-3.019c0.051,0.253,0.078,0.515,0.078,0.784V51.185z"/>
</g>
</svg>
