<?xml version="1.0" encoding="utf-8"?>
<!-- Generator: Adobe Illustrator 16.0.0, SVG Export Plug-In . SVG Version: 6.00 Build 0)  -->
<!DOCTYPE svg PUBLIC "-//W3C//DTD SVG 1.1//EN" "http://www.w3.org/Graphics/SVG/1.1/DTD/svg11.dtd">
<svg version="1.1" id="Layer_1" xmlns="http://www.w3.org/2000/svg" xmlns:xlink="http://www.w3.org/1999/xlink" x="0px" y="0px"
	 width="126px" height="126px" viewBox="0 0 126 126" enable-background="new 0 0 126 126" xml:space="preserve">
<g>
	<path d="M26.432,7.509h-1.617c-1.933,0-3.502,1.568-3.502,3.503v9.516h9.47L26.432,7.509z"/>
	<path d="M58.849,50.893l5.083,10.101L64.8,62.72l-1.145,2.274l-7.078-14.067L37.159,9.881L26.538,0.777L45.251,56.79L57.08,78.063
		l-4.835,9.606c-1.613-0.674-3.387-1.023-5.248-1.023c-6.133,0-12.744,3.792-17.254,9.896c-3.128,4.233-4.938,9.122-5.097,13.769
		c-0.178,5.218,1.792,9.742,5.406,12.41c2.215,1.639,4.935,2.503,7.863,2.503c6.134,0,12.745-3.792,17.255-9.897
		c4.467-6.049,5.992-12.948,4.633-18.515l3.852-6.927l2.862,5.147c-2.217,5.817-0.883,13.581,4.077,20.294
		c4.51,6.104,11.12,9.897,17.254,9.897l0,0c2.93,0,5.648-0.864,7.861-2.501c3.616-2.67,5.585-7.194,5.408-12.412
		c-0.158-4.646-1.969-9.535-5.096-13.767c-4.511-6.105-11.123-9.897-17.255-9.897c-1.368,0-2.688,0.194-3.935,0.563l-4.602-9.146
		l7.869-14.153h23.085c1.936,0,3.502-1.567,3.502-3.503V30.57H49.234L58.849,50.893z M47.652,109.772
		c-3.114,4.216-7.135,6.104-9.736,6.104c-0.929,0-1.704-0.227-2.309-0.671c-1.507-1.113-1.661-3.346-1.619-4.576
		c0.094-2.735,1.286-5.846,3.272-8.533c3.114-4.218,7.135-6.106,9.736-6.106c0.929,0,1.705,0.227,2.309,0.672
		C51.759,98.475,51.573,104.466,47.652,109.772z M76.457,96.663c0.604-0.447,1.382-0.674,2.311-0.674
		c2.601,0,6.62,1.889,9.737,6.106c1.984,2.688,3.178,5.798,3.271,8.533c0.042,1.23-0.112,3.463-1.619,4.576
		c-0.604,0.444-1.38,0.671-2.309,0.671c-2.603,0-6.622-1.888-9.736-6.104C74.192,104.466,74.005,98.475,76.457,96.663z
		 M64.028,79.469l-4.462-5.378l2.405-1.996l4.464,5.377L64.028,79.469z"/>
	<path d="M46.487,63.909l-3.053-5.511L34.138,30.57H21.313v29.836c0,1.936,1.569,3.503,3.502,3.503H46.487z"/>
	<path d="M101.186,7.509H36.997l2.231,1.912l5.255,11.106h60.204v-9.516C104.688,9.077,103.121,7.509,101.186,7.509z"/>
	<polygon points="100.771,0.777 95.39,5.391 99.23,5.391 	"/>
</g>
</svg>
