<?xml version="1.0" encoding="utf-8"?>
<!-- Generator: Adobe Illustrator 16.0.0, SVG Export Plug-In . SVG Version: 6.00 Build 0)  -->
<!DOCTYPE svg PUBLIC "-//W3C//DTD SVG 1.1//EN" "http://www.w3.org/Graphics/SVG/1.1/DTD/svg11.dtd">
<svg version="1.1" id="Layer_1" xmlns="http://www.w3.org/2000/svg" xmlns:xlink="http://www.w3.org/1999/xlink" x="0px" y="0px"
	 width="126px" height="126px" viewBox="0 0 126 126" enable-background="new 0 0 126 126" xml:space="preserve">
<g>
	<polygon points="75.363,53.342 94.371,53.342 94.371,81.875 75.363,71.459 	"/>
	<polygon points="94.371,107.652 75.363,107.652 75.363,91.035 94.371,101.451 	"/>
	<polygon points="44.242,34.076 63.25,34.076 63.25,64.818 44.242,54.402 	"/>
	<polygon points="63.25,107.652 44.242,107.652 44.242,73.979 63.25,84.396 	"/>
	<polygon points="31.216,107.652 12.209,107.652 12.209,56.424 31.216,66.84 	"/>
	<polygon points="12.209,11.537 31.216,11.537 31.216,47.264 12.209,36.848 	"/>
	<polygon points="98.012,114.463 104.406,102.184 1.675,45.457 1.675,35.65 108.374,94.566 115.044,83.078 124.325,108.039 	"/>
</g>
</svg>
