<?xml version="1.0" encoding="utf-8"?>
<!-- Generator: Adobe Illustrator 16.0.0, SVG Export Plug-In . SVG Version: 6.00 Build 0)  -->
<!DOCTYPE svg PUBLIC "-//W3C//DTD SVG 1.1//EN" "http://www.w3.org/Graphics/SVG/1.1/DTD/svg11.dtd">
<svg version="1.1" id="Layer_1" xmlns="http://www.w3.org/2000/svg" xmlns:xlink="http://www.w3.org/1999/xlink" x="0px" y="0px"
	 width="126px" height="126px" viewBox="0 0 126 126" enable-background="new 0 0 126 126" xml:space="preserve">
<g>
	<path d="M103.192,108.482c-0.353-1.223-0.751-2.621-1.11-4.217c-0.546-2.043-0.936-4.426-1.458-6.994
		c-0.347-2.609-0.893-5.409-1.12-8.433c-0.136-1.507-0.326-3.05-0.449-4.636c-0.02-0.383-0.04-0.786-0.06-1.174h2.191
		c1.111,0,2.013-0.901,2.013-2.013v-4.348c0-1.111-0.901-2.013-2.013-2.013h-2.495c0-0.123,0-0.243,0-0.365
		c0.002-1.707,0.003-3.436,0.006-5.177c0.046-1.743,0.18-3.499,0.265-5.263c0.121-1.762,0.138-3.537,0.344-5.301
		c0.194-1.767,0.39-3.532,0.583-5.291c0.21-1.757,0.335-3.52,0.67-5.241c0.609-3.448,1.079-6.868,1.764-10.138
		c0.737-3.263,1.449-6.414,2.123-9.404c0.766-2.969,1.624-5.744,2.343-8.326c0.369-1.288,0.722-2.523,1.058-3.697
		c0.329-1.179,0.764-2.257,1.106-3.29c0.718-2.061,1.344-3.854,1.859-5.333c1.463-4.585,1.072-4.896,0.76-5.063
		c-0.313-0.168-4.021-2.188-5.07-0.502c-0.124,0.159-0.251,0.346-0.378,0.548l-2.556-0.783l-5.577,18.215l1.601,0.49
		c-0.597,1.899-1.225,3.889-1.815,5.981c-0.768,3.077-1.577,6.319-2.414,9.675c-0.785,3.369-1.357,6.908-2.066,10.476
		c-0.386,1.781-0.562,3.611-0.821,5.437c-0.243,1.828-0.486,3.663-0.73,5.498c-0.161,1.169-0.246,2.349-0.33,3.525
		c-0.081,0.006-0.155,0.018-0.236,0.022c-0.656,0.042-1.322,0.084-1.996,0.127c-0.677,0.011-1.365-0.012-2.058-0.014
		c-0.694-0.012-1.393-0.005-2.099-0.031c-0.708-0.048-1.423-0.096-2.144-0.146c-1.439-0.077-2.901-0.275-4.376-0.483
		c-1.477-0.166-2.965-0.438-4.461-0.73c-0.747-0.138-1.497-0.277-2.249-0.418l-2.255-0.51c-1.504-0.346-3.017-0.646-4.514-1.08
		c-1.497-0.417-3-0.787-4.479-1.242c-1.472-0.487-2.938-0.974-4.392-1.455c-0.749-0.252-1.495-0.501-2.237-0.75
		c-0.736-0.25-1.458-0.499-2.203-0.724c-1.55-0.461-3.105-0.875-4.62-1.198c-3.049-0.63-6.077-1.013-9.008-1.044
		c-2.927-0.057-5.75,0.173-8.348,0.732c-2.596,0.548-4.959,1.447-6.886,2.601c-0.952,0.613-1.81,1.225-2.527,1.903
		c-0.712,0.681-1.292,1.377-1.737,2.058c-0.903,1.354-1.258,2.59-1.387,3.416c-0.065,0.417-0.083,0.738-0.081,0.958
		c0.007,0.232,0.012,0.352,0.012,0.352l0.82,0.116c-0.012,0.08,0.699-1.47,2.789-2.764c1.031-0.643,2.389-1.193,4.016-1.543
		c0.955-0.19,2.009-0.313,3.133-0.38c0.532,5.559,0.757,10.753,0.758,15.557h-2.794c-1.111,0-2.013,0.901-2.013,2.013v4.348
		c0,1.111,0.901,2.013,2.013,2.013h2.566c-0.699,12.586-2.844,21.688-4.316,26.655c-2.915-0.846-3.797-1.244-6.568-2.298
		l-3.405,8.958c15.045,5.719,30.298,8.058,47.542,8.058c17.24,0,34.487-2.859,49.529-8.577l-3.404-8.958
		C106.292,107.441,104.748,107.97,103.192,108.482z M91.256,89.64c0,0.006,0.001,0.012,0.001,0.018
		c-5.223-3.513-11.659-5.607-18.064-6.628h17.639c0.016,0.559,0.033,1.137,0.048,1.688C90.975,86.397,91.129,88.041,91.256,89.64z
		 M37.447,59.708c2.505,0.408,5.168,0.896,7.95,1.438c1.384,0.256,2.792,0.517,4.217,0.78c0.75,0.147,1.504,0.297,2.263,0.447
		c0.754,0.142,1.514,0.285,2.276,0.429c1.568,0.3,3.149,0.602,4.736,0.904c1.595,0.271,3.197,0.541,4.798,0.813
		c1.59,0.301,3.217,0.473,4.821,0.687c0.803,0.099,1.605,0.2,2.404,0.299c0.807,0.06,1.611,0.119,2.413,0.179
		c1.598,0.133,3.184,0.239,4.764,0.254c1.575,0.056,3.127,0.088,4.665,0.025c0.766-0.013,1.525-0.023,2.276-0.034
		c0.753-0.034,1.5-0.101,2.237-0.149c1.307-0.07,2.582-0.21,3.832-0.365c-0.092,1.142-0.181,2.281-0.237,3.416
		c-0.043,1.829-0.087,3.644-0.13,5.436c-0.002,0.131-0.006,0.258-0.008,0.39H36.122c-0.008-4.721-0.226-9.805-0.714-15.226
		C36.076,59.514,36.754,59.604,37.447,59.708z M35.916,83.029h17.937c-6.569,1.046-13.162,3.231-18.452,6.908
		C35.615,87.756,35.792,85.454,35.916,83.029z M31.354,111.56c0.819-2.757,1.781-6.532,2.629-11.272
		c4.955-7.056,16.27-11.528,29.54-11.528c12.782,0,23.734,4.156,28.952,10.766c0.437,2.426,0.8,4.679,1.296,6.677
		c0.365,1.736,0.779,3.29,1.151,4.65C74.676,115.908,51.837,116.154,31.354,111.56z"/>
	<path d="M63.686,48.984c11.495,0,20.813-9.317,20.813-20.813S75.181,7.358,63.686,7.358c-11.494,0-20.813,9.318-20.813,20.813
		S52.191,48.984,63.686,48.984z M62.308,30.632c-3.999-1.447-8.092-3.602-8.092-8.595c0-4.021,2.665-7.07,7.004-8.096V9.52h5.285
		v4.089c2.052,0.154,3.826,0.631,5.528,1.482l0.643,0.322l-1.657,5.644l-1.148-0.527c-1.03-0.481-2.758-1.287-5.313-1.287
		c-2.048,0-3.271,0.816-3.271,2.187c0,1.192,1.147,2.034,4.724,3.465c5.312,1.992,7.588,4.641,7.588,8.846
		c0,4.197-2.862,7.45-7.354,8.453v4.631h-5.285v-4.268c-2.547-0.204-5.096-0.964-6.665-2.011l-0.523-0.35l1.655-5.758l0.956,0.564
		c1.935,1.141,4.25,1.795,6.351,1.795c2.279,0,3.753-1.012,3.753-2.578C66.486,33.146,65.979,31.971,62.308,30.632z"/>
</g>
</svg>
