<?xml version="1.0" encoding="utf-8"?>
<!-- Generator: Adobe Illustrator 16.0.0, SVG Export Plug-In . SVG Version: 6.00 Build 0)  -->
<!DOCTYPE svg PUBLIC "-//W3C//DTD SVG 1.1//EN" "http://www.w3.org/Graphics/SVG/1.1/DTD/svg11.dtd">
<svg version="1.1" id="Layer_1" xmlns="http://www.w3.org/2000/svg" xmlns:xlink="http://www.w3.org/1999/xlink" x="0px" y="0px"
	 width="126px" height="126px" viewBox="0 0 126 126" enable-background="new 0 0 126 126" xml:space="preserve">
<path d="M103.078,72.953V56.537c0-3.795-3.076-6.871-6.871-6.871h-0.888V31.054c0-16.579-13.489-30.068-30.07-30.068h-4.498
	c-16.581,0-30.07,13.489-30.07,30.068v18.613h-0.888c-3.795,0-6.871,3.076-6.871,6.871v61.606c0,3.795,3.076,6.871,6.871,6.871
	h66.414c3.795,0,6.871-3.076,6.871-6.871v-17.994H79.489v-7.559h23.589V80.512H79.489v-7.559H103.078z M55.155,108.012v7.555h-8.624
	v-6.963c-4.155-0.333-8.313-1.572-10.872-3.281l-0.854-0.568l2.7-9.395l1.559,0.92c3.156,1.861,6.934,2.931,10.36,2.931
	c3.718,0,6.122-1.652,6.122-4.208c0-1.748-0.827-3.666-6.816-5.852c-6.524-2.361-13.201-5.875-13.201-14.021
	c0-6.561,4.349-11.535,11.428-13.208v-7.214h8.622v6.671c3.348,0.251,6.243,1.029,9.02,2.419l1.05,0.525l-2.704,9.207l-1.874-0.86
	c-1.681-0.786-4.5-2.099-8.668-2.099c-3.341,0-5.337,1.33-5.337,3.565c0,1.945,1.871,3.32,7.707,5.653
	c8.665,3.251,12.379,7.57,12.379,14.432C67.15,101.067,62.481,106.375,55.155,108.012z M41.728,49.667V31.054
	c0-10.488,8.533-19.023,19.023-19.023h4.498c10.49,0,19.023,8.535,19.023,19.023v18.613H41.728z"/>
</svg>
