<?xml version="1.0" encoding="utf-8"?>
<!-- Generator: Adobe Illustrator 16.0.0, SVG Export Plug-In . SVG Version: 6.00 Build 0)  -->
<!DOCTYPE svg PUBLIC "-//W3C//DTD SVG 1.1//EN" "http://www.w3.org/Graphics/SVG/1.1/DTD/svg11.dtd">
<svg version="1.1" id="Layer_1" xmlns="http://www.w3.org/2000/svg" xmlns:xlink="http://www.w3.org/1999/xlink" x="0px" y="0px"
	 width="126px" height="126px" viewBox="0 0 126 126" enable-background="new 0 0 126 126" xml:space="preserve">
<g>
	<rect x="57.797" y="67.375" width="44.277" height="11.385"/>
	<path d="M85.082,18.438c8.409,0,16.065,2.434,20.919,5.045l4.669-17.369c-6.165-2.992-15.501-5.795-26.711-5.795
		c-9.8,0-18.555,2.225-26.162,6.336v26.881c1.06-1.809,2.242-3.443,3.564-4.828C67.52,21.801,75.746,18.438,85.082,18.438z"/>
	<rect x="57.797" y="46.08" width="44.277" height="11.584"/>
	<path d="M107.677,101.555c-4.299,2.424-12.886,5.592-22.036,5.592c-9.712,0-18.681-3.168-25.021-10.074
		c-1.021-1.117-1.962-2.355-2.823-3.705v26.82c7.553,3.701,16.146,5.639,25.229,5.639c11.95,0,22.411-3.73,28.574-7.473
		L107.677,101.555z"/>
	<path d="M48.821,28.324c2.204,0,2,0.182,3.881,0.445L52.68,0.174H40.102v14.994c-15.45,2.75-24.63,12.85-24.63,26.006
		c0,14.223,10.401,21.572,26.465,27.387c4.82,1.758,7.875,3.586,10.567,5.625V54.162c-0.111-0.047,0.096-0.096-0.023-0.141
		c-13.002-5.203-18.19-8.713-18.19-14.996C34.291,33.834,38.114,28.324,48.821,28.324z"/>
	<path d="M42.397,96.09c-9.333,0-17.898-3.215-23.863-6.727l-4.136,14.383c5.51,3.67,15.149,6.418,24.784,6.727v14.846h12.547
		l-0.013-31.174C49.166,95.387,46.02,96.09,42.397,96.09z"/>
</g>
</svg>
