<?xml version="1.0" encoding="utf-8"?>
<!-- Generator: Adobe Illustrator 16.0.0, SVG Export Plug-In . SVG Version: 6.00 Build 0)  -->
<!DOCTYPE svg PUBLIC "-//W3C//DTD SVG 1.1//EN" "http://www.w3.org/Graphics/SVG/1.1/DTD/svg11.dtd">
<svg version="1.1" id="Layer_1" xmlns="http://www.w3.org/2000/svg" xmlns:xlink="http://www.w3.org/1999/xlink" x="0px" y="0px"
	 width="126px" height="126px" viewBox="0 0 126 126" enable-background="new 0 0 126 126" xml:space="preserve">
<g>
	<path d="M50.524,38.385c0,0-52.831,69.334,15.949,70.773c0,0,67.483,0,1.677-74.055C55.906,33.998,50.524,38.385,50.524,38.385z
		 M67.531,72.039c7.378,2.607,10.357,6.016,10.357,11.602c0,5.52-3.909,10.229-11.041,11.473v6.322h-6.08v-5.887
		c-4.155-0.188-8.184-1.305-10.543-2.666l1.862-7.258c2.606,1.426,6.264,2.727,10.299,2.727c3.533,0,5.952-1.363,5.952-3.844
		c0-2.357-1.983-3.848-6.574-5.398c-6.636-2.23-11.165-5.33-11.165-11.348c0-5.457,3.849-9.734,10.483-11.037V50.83h6.075v5.461
		c4.155,0.186,6.948,1.049,8.993,2.043l-1.797,7.01c-1.612-0.682-4.464-2.109-8.933-2.109c-4.031,0-5.334,1.736-5.334,3.473
		C60.087,68.754,62.26,70.057,67.531,72.039z"/>
	<path d="M67.073,31.805c0,0,4.583-14.154-0.798-14.752c-4.533-0.504-11.468-0.4-18.544,4.471c2.209,2.826,4.688,5.598,4.688,5.598
		l-6.017-4.623c-0.887,0.688-1.774,1.447-2.657,2.299l6.978,10.127C50.724,34.924,58.824,30.609,67.073,31.805z"/>
	<path d="M13.732,78.959v-4.248c2.779-1.152,5.876-4.143,5.876-7.707c0-0.732-0.052-1.361-0.158-2.096h-5.14v-5.4h4.195
		c-0.26-1.311-0.419-2.834-0.419-4.25c0-6.607,4.826-10.957,11.849-10.957c2.887,0,5.035,0.627,6.187,1.258l-1.31,6.027
		c-0.997-0.574-2.464-0.941-4.402-0.941c-3.722,0-4.877,2.412-4.877,4.932c0,1.361,0.155,2.621,0.47,3.932h7.188v0.168
		c2.388-5.504,5.181-10.564,7.668-14.656c-3.011-4.221-6.716-8.846-11.223-13.918c-9.567-0.863-13.774,2.564-13.774,2.564
		s-40.785,53.535,11.53,55.268c-0.458-3.221-0.399-6.578,0.043-9.975H13.732z"/>
	<path d="M26.213,68.631c-0.469,1.313-1.311,2.623-2.565,3.725v0.102h5.061c0.646-2.514,1.453-5.014,2.364-7.457
		c0.01-0.031,0.021-0.061,0.03-0.092h-4.414C26.737,66.219,26.637,67.424,26.213,68.631z"/>
	<path d="M28.792,28.525c0,0,3.582-11.061-0.623-11.527c-3.541-0.393-8.96-0.311-14.49,3.494c1.727,2.207,3.663,4.373,3.663,4.373
		l-4.699-3.611c-0.693,0.537-1.387,1.131-2.076,1.797l5.451,7.912C16.018,30.963,22.349,27.59,28.792,28.525z"/>
	<path d="M102.763,31.102c-9.567-0.863-13.774,2.564-13.774,2.564s-3.539,4.645-7.195,11.242c1.176,1.521,2.299,3.02,3.367,4.496
		h7.075l3.67,8.389c0.944,2.096,1.521,3.881,2.204,5.717h0.104c0.684-1.729,1.365-3.723,2.258-5.768l3.723-8.338h8.391
		l-8.971,14.891h6.24v3.725h-8.23v3.354h8.23v3.723h-8.23v8.391h-0.613l-0.006,5.465c0.125,0.004,0.249,0.01,0.378,0.012
		C101.382,88.963,154.177,88.963,102.763,31.102z"/>
	<path d="M101.917,28.525c0,0,3.581-11.061-0.624-11.527c-3.541-0.393-8.957-0.311-14.488,3.494
		c1.726,2.207,3.664,4.373,3.664,4.373l-4.702-3.611c-0.691,0.537-1.385,1.131-2.075,1.797l5.453,7.912
		C89.145,30.963,95.471,27.59,101.917,28.525z"/>
</g>
</svg>
