<?xml version="1.0" encoding="utf-8"?>
<!-- Generator: Adobe Illustrator 16.0.0, SVG Export Plug-In . SVG Version: 6.00 Build 0)  -->
<!DOCTYPE svg PUBLIC "-//W3C//DTD SVG 1.1//EN" "http://www.w3.org/Graphics/SVG/1.1/DTD/svg11.dtd">
<svg version="1.1" id="Layer_1" xmlns="http://www.w3.org/2000/svg" xmlns:xlink="http://www.w3.org/1999/xlink" x="0px" y="0px"
	 width="126px" height="126px" viewBox="0 0 126 126" enable-background="new 0 0 126 126" xml:space="preserve">
<g>
	<polygon points="109.797,0.428 93.18,0.428 59.569,54.529 59.514,125.572 72.917,125.572 72.917,93.422 103.147,93.422 
		103.147,81.678 72.917,81.678 72.917,68.587 103.147,68.587 103.147,56.844 73.638,56.844 	"/>
	<path d="M50.625,28.579c2.205,0,2.002,0.181,3.883,0.445l0.001-28.597H41.906v14.994c-15.449,2.751-24.629,12.85-24.629,26.006
		c0,14.223,10.4,21.572,26.465,27.388c4.82,1.757,7.875,3.585,10.568,5.624V54.416c-0.111-0.047,0.096-0.095-0.023-0.14
		c-13.002-5.203-18.191-8.714-18.191-14.996C36.096,34.088,39.918,28.579,50.625,28.579z"/>
	<path d="M44.203,96.344c-9.334,0-17.898-3.214-23.863-6.726l-4.137,14.383c5.51,3.669,15.15,6.418,24.785,6.726v14.846h12.547
		l-0.014-31.173C50.971,95.641,47.824,96.344,44.203,96.344z"/>
</g>
</svg>
