<?xml version="1.0" encoding="utf-8"?>
<!-- Generator: Adobe Illustrator 16.0.0, SVG Export Plug-In . SVG Version: 6.00 Build 0)  -->
<!DOCTYPE svg PUBLIC "-//W3C//DTD SVG 1.1//EN" "http://www.w3.org/Graphics/SVG/1.1/DTD/svg11.dtd">
<svg version="1.1" id="Layer_1" xmlns="http://www.w3.org/2000/svg" xmlns:xlink="http://www.w3.org/1999/xlink" x="0px" y="0px"
	 width="126px" height="126px" viewBox="0 0 126 126" enable-background="new 0 0 126 126" xml:space="preserve">
<g>
	<path d="M69.389,72.532h24.365V56.481H67.318c-1.137-5.468-2.082-10.569-2.082-16.988c0-10.957,5.102-20.396,19.072-20.396
		c7.363,0,12.838,1.703,16.422,3.778l4.158-17.556c-4.158-2.459-11.328-4.722-21.525-4.722c-9.27,0-17.438,2.378-23.934,6.683
		v96.441c4.08-4.195,7.041-8.948,8.635-14.388C69.582,84.046,69.582,78.386,69.389,72.532z"/>
	<rect x="59.43" y="106.323" width="50.748" height="19.078"/>
	<path d="M50.242,28.579c2.205,0,2.002,0.181,3.883,0.445L54.121,0.428H41.523v14.994c-15.449,2.751-24.629,12.85-24.629,26.006
		c0,14.223,10.4,21.572,26.465,27.388c4.82,1.757,7.875,3.585,10.568,5.624V54.416c-0.111-0.047,0.096-0.095-0.023-0.14
		c-13.002-5.203-18.191-8.714-18.191-14.996C35.713,34.088,39.535,28.579,50.242,28.579z"/>
	<path d="M43.82,96.344c-9.334,0-17.898-3.214-23.863-6.726l-4.137,14.383c5.51,3.669,15.15,6.418,24.785,6.726v14.846h12.547
		l-0.014-31.173C50.588,95.641,47.441,96.344,43.82,96.344z"/>
</g>
</svg>
