<?xml version="1.0" encoding="utf-8"?>
<!-- Generator: Adobe Illustrator 16.0.0, SVG Export Plug-In . SVG Version: 6.00 Build 0)  -->
<!DOCTYPE svg PUBLIC "-//W3C//DTD SVG 1.1//EN" "http://www.w3.org/Graphics/SVG/1.1/DTD/svg11.dtd">
<svg version="1.1" id="Layer_1" xmlns="http://www.w3.org/2000/svg" xmlns:xlink="http://www.w3.org/1999/xlink" x="0px" y="0px"
	 width="126px" height="126px" viewBox="0 0 126 126" enable-background="new 0 0 126 126" xml:space="preserve">
<g>
	<path d="M62.992,101.117v0.004L63,101.12c0,0,0.008,0.001,0.008,0.001v-0.004c0.377-0.047,23.159-3.084,23.159-27.613V55.689
		c0-4.05-18.672-3.41-22.881-11.162h-0.572c-4.209,7.752-22.882,7.112-22.882,11.162v17.814
		C39.832,98.033,62.615,101.07,62.992,101.117z M43.597,57.043c1.192-0.463,3.375-0.997,5.065-1.41
		c4.41-1.082,9.532-2.337,13.309-4.94L63,49.987l1.029,0.705c3.776,2.604,8.899,3.858,13.309,4.94
		c1.69,0.413,3.874,0.947,5.065,1.41v16.461c0,8.797-3.244,15.45-9.642,19.775c-4.128,2.791-8.376,3.767-9.761,4.025
		c-1.39-0.261-5.636-1.237-9.762-4.025c-6.397-4.325-9.642-10.979-9.642-19.775V57.043z"/>
	<path d="M79.804,73.346V58.797c-0.991-0.274-2.137-0.556-3.076-0.785C72.211,56.905,67.1,55.656,63,52.991l-0.011,41.493
		c1.514-0.331,4.993-1.273,8.323-3.524C76.946,87.148,79.804,81.223,79.804,73.346z"/>
	<path d="M118.204,14.416H7.796c-3.928,0-7.123,3.195-7.123,7.124v82.921c0,3.927,3.195,7.123,7.123,7.123h110.408
		c3.928,0,7.123-3.196,7.123-7.123V21.54C125.327,17.611,122.132,14.416,118.204,14.416z M117.108,102.678
		c0,1.207-0.983,2.192-2.192,2.192H11.083c-1.209,0-2.192-0.985-2.192-2.192V43.183h108.217V102.678z M81.219,37.887v-6.575h6.575
		v6.575H81.219z M96.014,37.887v-6.575h6.575v6.575H96.014z M110.442,37.887v-6.575h6.575v6.575H110.442z M122.04,25.923H3.96V21.54
		c0-2.115,1.721-3.836,3.836-3.836h110.408c2.115,0,3.836,1.721,3.836,3.836V25.923z"/>
</g>
</svg>
