<?xml version="1.0" encoding="utf-8"?>
<!-- Generator: Adobe Illustrator 16.0.0, SVG Export Plug-In . SVG Version: 6.00 Build 0)  -->
<!DOCTYPE svg PUBLIC "-//W3C//DTD SVG 1.1//EN" "http://www.w3.org/Graphics/SVG/1.1/DTD/svg11.dtd">
<svg version="1.1" id="Layer_1" xmlns="http://www.w3.org/2000/svg" xmlns:xlink="http://www.w3.org/1999/xlink" x="0px" y="0px"
	 width="126px" height="126px" viewBox="0 0 126 126" enable-background="new 0 0 126 126" xml:space="preserve">
<g>
	<path d="M47.148,72.218c9.877,0,17.884-8.007,17.884-17.884s-8.006-17.884-17.884-17.884c-9.878,0-17.884,8.007-17.884,17.884
		S37.271,72.218,47.148,72.218z M46.284,55.573c-3.425-1.24-5.643-2.806-5.643-5.839c0-2.805,1.957-4.958,5.251-5.545v-3.197h2.676
		v3.034c2.054,0.065,3.457,0.554,4.5,1.076l-0.88,3.001c-0.782-0.359-2.218-1.109-4.437-1.109c-2.283,0-3.098,1.174-3.098,2.283
		c0,1.337,1.173,2.088,3.946,3.197c3.654,1.37,5.286,3.131,5.286,6.034c0,2.772-1.924,5.219-5.513,5.806v3.36h-2.675v-3.166
		c-2.055-0.063-4.11-0.651-5.285-1.433l0.882-3.066c1.271,0.75,3.098,1.435,5.088,1.435c2.056,0,3.458-1.011,3.458-2.576
		C49.839,57.399,48.697,56.454,46.284,55.573z"/>
	<path d="M73.823,40.073c9.909,0,17.941-8.033,17.941-17.942S83.732,4.189,73.823,4.189s-17.941,8.033-17.941,17.942
		S63.914,40.073,73.823,40.073z M64.4,22.884h1.833c0-0.164,0-0.36,0-0.524c0-0.393,0.033-0.817,0.066-1.177H64.4v-2.029h2.193
		c0.393-1.997,1.276-3.698,2.454-4.941c1.767-1.963,4.156-3.076,7.068-3.076c1.964,0,3.601,0.491,4.68,1.015l-0.818,3.043
		c-0.85-0.457-2.192-0.884-3.665-0.884c-1.637,0-3.078,0.589-4.156,1.8c-0.688,0.72-1.179,1.8-1.44,3.043h8.574v2.029h-8.967
		c-0.064,0.36-0.064,0.752-0.064,1.145c0,0.196,0,0.36,0,0.557h9.032v1.995h-8.673c0.23,1.408,0.721,2.455,1.41,3.208
		c1.11,1.21,2.682,1.766,4.384,1.766c1.603,0,3.107-0.556,3.861-0.98l0.688,2.944c-1.08,0.655-2.913,1.31-5.007,1.31
		c-2.978,0-5.661-1.179-7.395-3.371c-1.047-1.211-1.767-2.848-2.062-4.877H64.4V22.884z"/>
	<path d="M109.567,48.351c8.531,0,15.447-6.916,15.447-15.447s-6.916-15.447-15.447-15.447S94.12,24.373,94.12,32.904
		S101.036,48.351,109.567,48.351z M105.989,23.747l2.367,5.1c0.507,1.042,0.817,1.916,1.184,2.817h0.056
		c0.339-0.845,0.704-1.831,1.184-2.874l2.452-5.043h3.662l-4.93,8.255h3.494v1.719h-4.424v1.916h4.424v1.719h-4.424v4.705h-3.24
		v-4.705h-4.395v-1.719h4.395v-1.916h-4.395v-1.719h3.522l-4.677-8.255H105.989z"/>
	<path d="M75.688,61.585c0,8.813,7.144,15.958,15.957,15.958c8.814,0,15.958-7.145,15.958-15.958
		c0-8.814-7.144-15.958-15.958-15.958C82.831,45.627,75.688,52.771,75.688,61.585z M97.204,52.693l-0.64,2.707
		c-0.554-0.321-1.397-0.583-2.533-0.583c-2.153,0-2.94,1.455-2.94,3.144c0,0.989,0.146,1.776,0.321,2.619h4.075v2.474h-3.755
		c0.03,0.902,0.03,1.775-0.204,2.59c-0.291,0.99-0.873,1.834-1.688,2.562v0.058h8.179v2.941H85.27v-1.951
		c1.748-0.814,3.29-2.562,3.29-4.628c0-0.552-0.028-1.019-0.116-1.571h-2.911v-2.474h2.503c-0.146-0.815-0.291-1.775-0.291-2.707
		c0-3.58,2.533-5.908,6.141-5.908C95.458,51.966,96.563,52.314,97.204,52.693z"/>
	<path d="M117.197,82.574c-2.056-1.637-6.037-3.549-10.499-3.549c-3.776,0-9.246,1.369-13.893,7.879
		c-4.179,5.335-9.419,7.496-13.673,8.314c0.381-0.953,0.629-2.098,0.636-3.717c0.038-9.051-7.175-15.855-17.151-15.9l-35.608,0.031
		c-3.342,0-6.631,0.987-9.404,2.771v-4.633H0.985v48.039h16.619v-5.104c0.628,0.31,1.493,0.938,1.493,0.938
		c2.861,1.578,7.295,3.515,11.818,3.515h32.713c28.179,0,47.634-15.787,54.69-23.607c2.109-2.339,4.292-4.757,4.041-7.802
		C122.137,87.029,120.135,84.913,117.197,82.574z M12.038,84.382H6.229v-5.809h5.809V84.382z M114.007,93.66
		c-6.536,7.244-24.529,21.69-50.378,21.69H30.916c-5.531,0-11.487-4.326-11.541-4.368c-0.51-0.376-1.117-0.568-1.729-0.568
		c-0.013,0-0.027,0.003-0.042,0.004V84.82c0.636,0.011,1.27-0.171,1.795-0.57l0.635-0.48c1.976-1.501,4.452-2.328,6.961-2.328
		L62.59,81.41c5.68,0.025,11.399,3.286,11.369,10.068c0,3.916-2.611,4.117-2.751,4.152H45.115c-1.604,0-2.904,1.301-2.904,2.904
		s1.3,2.903,2.904,2.903h27.693l1.543-0.004c4.347-0.001,15.295-1.028,23.073-11.008c0.026-0.034,0.053-0.069,0.077-0.104
		c2.585-3.641,5.679-5.487,9.196-5.487c3.175,0,5.889,1.493,6.88,2.283c2.91,2.317,2.991,3.077,2.993,3.108
		C116.58,90.809,114.711,92.881,114.007,93.66z"/>
</g>
</svg>
