<?xml version="1.0" encoding="utf-8"?>
<!-- Generator: Adobe Illustrator 16.0.0, SVG Export Plug-In . SVG Version: 6.00 Build 0)  -->
<!DOCTYPE svg PUBLIC "-//W3C//DTD SVG 1.1//EN" "http://www.w3.org/Graphics/SVG/1.1/DTD/svg11.dtd">
<svg version="1.1" id="Layer_1" xmlns="http://www.w3.org/2000/svg" xmlns:xlink="http://www.w3.org/1999/xlink" x="0px" y="0px"
	 width="126px" height="126px" viewBox="0 0 126 126" enable-background="new 0 0 126 126" xml:space="preserve">
<g>
	<path d="M114.84,99.518l-2.891,1.047c-0.328-1.576-0.19-2.346,0.019-3.516c0.194-1.09,0.436-2.443,0.445-4.666
		c0.029-5.965-4.014-14.682-4.205-15.086l-0.072-0.135c-2.787-4.723-6.564-4.217-8.82-3.912c-0.638,0.086-1.354,0.18-1.729,0.1
		c-2.629-1.495-7.149-1.892-11.215-0.078c-0.694,0.035-2.084,0.174-3.607,0.727c-1.319,0.479-2.448,1.154-3.366,2.018
		c-1.834-5.031-4.564-12.521-4.921-13.506c-0.781-2.158-3.677-3.139-4.022-3.25c-1.365-0.402-2.792-0.363-4.122,0.119
		c-3.438,1.244-5.222,5.055-3.978,8.49l8.696,24.016c0.151,0.42,0.259,0.795,0.337,1.121c-6.349-0.744-10.566,0.121-12.592,2.557
		c-2.022,2.434-1.016,5.305-0.972,5.426c1.66,4.582,7.69,4.662,8.298,4.652c9.1,0.795,12.059,4.348,13.008,6.809l-3.146,1.139
		l4.271,11.797l38.854-14.07L114.84,99.518z M81.849,119.945l-1.288-3.562l3.561-1.288l1.288,3.56L81.849,119.945z M108.172,101.934
		l-25.313,9.164c-0.449-1.199-1.1-2.314-1.938-3.324c-2.889-3.473-7.771-5.527-14.56-6.107l-0.173-0.006
		c-0.038,0-3.887-0.008-4.61-2.002c-0.011-0.035-0.273-0.881,0.281-1.547c0.191-0.23,0.587-0.566,1.37-0.852
		c1.403-0.508,4.265-0.916,9.934,0.021l1.771,0.295l0.478-1.736c0.093-0.348,0.5-2.234-0.616-5.311L66.1,66.514
		c-0.496-1.373,0.216-2.893,1.588-3.391c1.374-0.498,2.896,0.215,3.393,1.588l6.376,17.75c0.374,1.033,1.519,1.568,2.551,1.195
		c0.942-0.342,1.471-1.324,1.271-2.277l-0.247-0.883c-0.438-1.449,1.569-2.203,3.098-2.756c1.393-0.504,2.676-0.5,2.688-0.5
		c0.065,0,0.127-0.004,0.192-0.012c0.366,0.029,0.699-0.02,1.084-0.221c0.002,0,0.24-0.127,0.672-0.283
		c1.387-0.502,4.177-1.129,7.336,0.324l0.16,0.061c1.212,0.406,2.469,0.236,3.581,0.086c2.036-0.273,3.386-0.453,4.812,1.906
		c0.317,0.697,3.798,8.445,3.774,13.26c-0.009,1.885-0.21,3.004-0.386,3.99C107.726,98.123,107.572,99.436,108.172,101.934z"/>
	<path d="M65.558,110.998c-4.73-0.053-10.926-2.219-13.087-8.186c-0.22-0.6-0.391-1.291-0.497-2.035H13.318V9.188
		c0-1.182,0.962-2.143,2.143-2.143h66.17c1.182,0,2.144,0.961,2.144,2.143v58.955l6.43-1.262V9.188c0-4.727-3.846-8.572-8.573-8.572
		h-66.17c-4.727,0-8.572,3.846-8.572,8.572v99.594c0,4.729,3.846,8.574,8.572,8.574h55.873l-2.079-5.744
		C68.22,111.346,66.994,111.133,65.558,110.998z M52.357,112.586h-7.622v-6.297l3.862-2.855l3.76,2.861V112.586z"/>
	<polygon points="26.727,70.674 20.272,68.033 18.428,72.541 29.829,77.205 34.969,60.319 41.704,68.474 56.396,50.001 
		79.88,40.906 78.122,36.365 53.406,45.938 41.633,60.74 32.949,50.229 	"/>
	<path d="M59.582,30.441c0-6.864-5.564-12.429-12.429-12.429s-12.428,5.564-12.428,12.429S40.289,42.87,47.153,42.87
		S59.582,37.306,59.582,30.441z M41.48,37.839l0.715-2.489c1.033,0.607,2.516,1.164,4.13,1.164c1.668,0,2.807-0.82,2.807-2.092
		c0-1.191-0.927-1.959-2.886-2.674c-2.781-1.006-4.581-2.278-4.581-4.74c0-2.276,1.589-4.024,4.263-4.501v-2.595H48.1v2.463
		c1.668,0.053,2.807,0.45,3.652,0.873l-0.714,2.437c-0.635-0.292-1.799-0.9-3.601-0.9c-1.854,0-2.515,0.954-2.515,1.853
		c0,1.086,0.952,1.695,3.203,2.596c2.966,1.112,4.29,2.542,4.29,4.897c0,2.251-1.563,4.237-4.476,4.714v2.728h-2.172v-2.569
		C44.102,38.949,42.434,38.473,41.48,37.839z"/>
</g>
</svg>
