<?xml version="1.0" encoding="utf-8"?>
<!-- Generator: Adobe Illustrator 16.0.0, SVG Export Plug-In . SVG Version: 6.00 Build 0)  -->
<!DOCTYPE svg PUBLIC "-//W3C//DTD SVG 1.1//EN" "http://www.w3.org/Graphics/SVG/1.1/DTD/svg11.dtd">
<svg version="1.1" id="Layer_1" xmlns="http://www.w3.org/2000/svg" xmlns:xlink="http://www.w3.org/1999/xlink" x="0px" y="0px"
	 width="126px" height="126px" viewBox="0 0 126 126" enable-background="new 0 0 126 126" xml:space="preserve">
<g>
	<polygon points="66.19,2.815 62.759,0.405 59.256,2.813 31.786,21.616 31.786,12.046 16.386,12.046 16.386,32.159 0.355,43.135 
		7.269,53.23 62.683,15.303 118.739,53.571 125.645,43.473 	"/>
	<path d="M61.07,29.912c-26.42,0-47.841,21.419-47.841,47.842c0,26.422,21.421,47.841,47.841,47.841
		c26.422,0,47.841-21.419,47.841-47.841C108.911,51.331,87.492,29.912,61.07,29.912z M66.957,109.982v10.645h-12.15v-9.81
		c-5.854-0.47-11.712-2.216-15.318-4.623l-1.204-0.802l3.804-13.236l2.196,1.297c4.448,2.622,9.77,4.129,14.598,4.129
		c5.238,0,8.626-2.328,8.626-5.928c0-2.465-1.165-5.167-9.604-8.245c-9.193-3.328-18.6-8.278-18.6-19.757
		c0-9.243,6.126-16.251,16.101-18.607V34.88h12.148v9.399c4.716,0.354,8.795,1.449,12.707,3.408l1.479,0.74l-3.81,12.971
		l-2.64-1.211c-2.369-1.107-6.34-2.958-12.212-2.958c-4.708,0-7.521,1.875-7.521,5.024c0,2.741,2.637,4.679,10.859,7.966
		c12.208,4.579,17.44,10.666,17.44,20.332C83.856,100.199,77.279,107.678,66.957,109.982z"/>
</g>
</svg>
