<?xml version="1.0" encoding="utf-8"?>
<!-- Generator: Adobe Illustrator 16.0.0, SVG Export Plug-In . SVG Version: 6.00 Build 0)  -->
<!DOCTYPE svg PUBLIC "-//W3C//DTD SVG 1.1//EN" "http://www.w3.org/Graphics/SVG/1.1/DTD/svg11.dtd">
<svg version="1.1" id="Layer_1" xmlns="http://www.w3.org/2000/svg" xmlns:xlink="http://www.w3.org/1999/xlink" x="0px" y="0px"
	 width="126px" height="126px" viewBox="0 0 126 126" enable-background="new 0 0 126 126" xml:space="preserve">
<g>
	<path d="M31.843,33.975v38.649h8.385V28.316L65.822,10.72l25.024,17.57v54.497c2.137-1.767,4.254-3.559,6.299-5.436
		c0.705-0.647,1.398-1.302,2.087-1.959v-41.87l5.007,3.425l4.733-6.921L68.227,2.162L65.874,0.51l-2.4,1.65L44.648,15.046V8.487
		H34.095v13.785l-10.987,7.522l4.737,6.918L31.843,33.975z"/>
	<path d="M67.543,71.689v-5.023c4.871-1.088,7.976-4.616,7.976-9.167c0-4.562-2.47-7.433-8.23-9.594
		c-3.879-1.551-5.123-2.465-5.123-3.758c0-1.486,1.327-2.37,3.55-2.37c2.769,0,4.643,0.872,5.761,1.394l1.245,0.572l1.797-6.121
		l-0.696-0.348c-1.848-0.923-3.771-1.441-5.995-1.607v-4.435h-5.731v4.796c-4.707,1.111-7.598,4.419-7.598,8.779
		c0,5.416,4.438,7.751,8.775,9.321c3.981,1.454,4.53,2.729,4.53,3.891c0,1.698-1.598,2.796-4.07,2.796
		c-2.277,0-4.787-0.71-6.886-1.947l-1.036-0.612l-1.796,6.246l0.567,0.378c1.703,1.136,4.467,1.96,7.229,2.181v4.629H67.543z"/>
	<path d="M123.678,91.027c-0.224-2.721-2.226-4.836-5.163-7.175c-2.056-1.637-6.037-3.548-10.499-3.548
		c-3.776,0-9.246,1.369-13.893,7.878c-4.179,5.335-9.419,7.497-13.673,8.315c0.381-0.954,0.629-2.098,0.636-3.716
		c0.038-9.052-7.175-15.856-17.151-15.901L28.326,76.91c-3.342,0-6.631,0.987-9.404,2.772v-4.633H2.303v48.039h16.619v-5.104
		c0.628,0.31,1.493,0.938,1.493,0.938c2.861,1.578,7.295,3.515,11.818,3.515h32.713c28.179,0,47.634-15.787,54.69-23.607
		C121.746,96.491,123.929,94.072,123.678,91.027z M13.355,85.659H7.547v-5.809h5.809V85.659z M115.324,94.938
		c-6.536,7.245-24.529,21.69-50.378,21.69H32.233c-5.531,0-11.487-4.326-11.541-4.368c-0.51-0.376-1.117-0.568-1.729-0.568
		c-0.013,0-0.027,0.003-0.042,0.004V86.098c0.636,0.01,1.27-0.171,1.795-0.57l0.635-0.48c1.976-1.501,4.452-2.329,6.961-2.329
		l35.595-0.032c5.68,0.025,11.399,3.287,11.369,10.069c0,3.916-2.611,4.118-2.751,4.152H46.433c-1.604,0-2.904,1.301-2.904,2.904
		c0,1.604,1.3,2.904,2.904,2.904h27.693l1.543-0.004c4.347-0.001,15.295-1.029,23.073-11.008c0.026-0.034,0.053-0.069,0.077-0.104
		c2.585-3.642,5.679-5.488,9.196-5.488c3.175,0,5.889,1.494,6.88,2.283c2.91,2.318,2.991,3.077,2.993,3.108
		C117.897,92.086,116.028,94.158,115.324,94.938z"/>
</g>
</svg>
