<?xml version="1.0" encoding="utf-8"?>
<!-- Generator: Adobe Illustrator 16.0.0, SVG Export Plug-In . SVG Version: 6.00 Build 0)  -->
<!DOCTYPE svg PUBLIC "-//W3C//DTD SVG 1.1//EN" "http://www.w3.org/Graphics/SVG/1.1/DTD/svg11.dtd">
<svg version="1.1" id="Layer_1" xmlns="http://www.w3.org/2000/svg" xmlns:xlink="http://www.w3.org/1999/xlink" x="0px" y="0px"
	 width="126px" height="126px" viewBox="0 0 126 126" enable-background="new 0 0 126 126" xml:space="preserve">
<g>
	<path d="M88.317,73.847v39.673H71.165V73.276H41.493v40.244H23.674V56.933l29.649-20.388c0.128-5.292,1.379-10.31,3.54-14.817
		l-0.438-0.308l-3.064,2.106l-24.043,16.46v-8.379H15.837v17.606l-14.03,9.605l6.051,8.836l5.106-3.496v49.362v9.956h86.042
		l0.02-50.793c-2.963,0.781-6.07,1.2-9.274,1.2C89.27,73.884,88.794,73.866,88.317,73.847z"/>
	<path d="M91.079,2.523c-18.287,0-33.113,14.826-33.113,33.114c0,18.289,14.826,33.114,33.113,33.114
		c18.289,0,33.114-14.825,33.114-33.114C124.193,17.349,109.368,2.523,91.079,2.523z M95.153,57.945v7.368h-8.409v-6.79
		c-4.053-0.326-8.107-1.534-10.604-3.2l-0.833-0.555l2.633-9.162l1.521,0.898c3.078,1.814,6.762,2.857,10.104,2.857
		c3.626,0,5.971-1.611,5.971-4.103c0-1.705-0.807-3.576-6.647-5.707c-6.362-2.303-12.874-5.73-12.874-13.675
		c0-6.397,4.24-11.249,11.145-12.879V5.962h8.408v6.506c3.265,0.245,6.088,1.003,8.796,2.359l1.023,0.512l-2.637,8.979l-1.827-0.838
		c-1.64-0.766-4.389-2.047-8.453-2.047c-3.259,0-5.205,1.298-5.205,3.478c0,1.897,1.825,3.238,7.516,5.514
		c8.451,3.17,12.073,7.383,12.073,14.073C106.853,51.174,102.299,56.35,95.153,57.945z"/>
</g>
</svg>
