<?xml version="1.0" encoding="utf-8"?>
<!-- Generator: Adobe Illustrator 16.0.0, SVG Export Plug-In . SVG Version: 6.00 Build 0)  -->
<!DOCTYPE svg PUBLIC "-//W3C//DTD SVG 1.1//EN" "http://www.w3.org/Graphics/SVG/1.1/DTD/svg11.dtd">
<svg version="1.1" id="Layer_1" xmlns="http://www.w3.org/2000/svg" xmlns:xlink="http://www.w3.org/1999/xlink" x="0px" y="0px"
	 width="126px" height="126px" viewBox="0 0 126 126" enable-background="new 0 0 126 126" xml:space="preserve">
<g>
	<polygon points="4.052,77.99 4.198,84.108 123.305,70.178 123.158,64.06 	"/>
	<polygon points="49.434,96.651 76.853,96.652 63.145,78.267 	"/>
	<path d="M4.054,72.481h27.561V53.892l1.601,1.096l1.897-2.771l-17.331-12.23v-0.036l-0.025,0.018l-0.025-0.018v0.036l-8.549,6.329
		V43.69H4.955v5.517l-4.396,3.01l1.896,2.771l1.599-1.096V72.481z M7.412,51.627l10.344-7.409v-0.052l0.002,0.052l10.501,7.409
		v17.735h-5.584V56.749H12.84v12.613H7.412V51.627z"/>
	<path d="M108.532,63.17c9.338,0,16.909-7.571,16.909-16.911c0-9.34-7.571-16.911-16.909-16.911
		c-9.341,0-16.911,7.571-16.911,16.911C91.621,55.599,99.191,63.17,108.532,63.17z M107.414,48.258
		c-3.252-1.176-6.576-2.926-6.576-6.983c0-3.267,2.166-5.744,5.69-6.578v-3.593h4.295v3.322c1.667,0.125,3.109,0.513,4.493,1.204
		l0.521,0.262l-1.348,4.584l-0.934-0.428c-0.836-0.391-2.241-1.045-4.315-1.045c-1.665,0-2.658,0.663-2.658,1.776
		c0,0.969,0.931,1.654,3.838,2.816c4.315,1.619,6.166,3.77,6.166,7.187c0,3.41-2.326,6.054-5.975,6.869v3.763h-4.294v-3.468
		c-2.07-0.166-4.141-0.783-5.416-1.634l-0.426-0.283l1.345-4.679l0.776,0.459c1.573,0.926,3.453,1.458,5.16,1.458
		c1.854,0,3.049-0.822,3.049-2.095C110.807,50.302,110.396,49.346,107.414,48.258z"/>
</g>
</svg>
