<?xml version="1.0" encoding="utf-8"?>
<!-- Generator: Adobe Illustrator 16.0.0, SVG Export Plug-In . SVG Version: 6.00 Build 0)  -->
<!DOCTYPE svg PUBLIC "-//W3C//DTD SVG 1.1//EN" "http://www.w3.org/Graphics/SVG/1.1/DTD/svg11.dtd">
<svg version="1.1" id="Layer_1" xmlns="http://www.w3.org/2000/svg" xmlns:xlink="http://www.w3.org/1999/xlink" x="0px" y="0px"
	 width="126px" height="126px" viewBox="0 0 126 126" enable-background="new 0 0 126 126" xml:space="preserve">
<g>
	<path d="M50.511,38.381c0,0-52.831,69.336,15.949,70.771c0,0,67.484,0,1.68-74.055C55.895,33.995,50.511,38.381,50.511,38.381z
		 M67.518,72.036c7.375,2.604,10.356,6.015,10.356,11.601c0,5.517-3.908,10.229-11.039,11.472v6.322h-6.081v-5.889
		c-4.154-0.186-8.185-1.302-10.543-2.664l1.863-7.258c2.605,1.425,6.263,2.728,10.297,2.728c3.535,0,5.954-1.364,5.954-3.844
		c0-2.357-1.985-3.847-6.575-5.398c-6.636-2.232-11.165-5.332-11.165-11.347c0-5.459,3.847-9.736,10.483-11.039v-5.895h6.075v5.459
		c4.155,0.187,6.948,1.051,8.994,2.047l-1.799,7.009c-1.61-0.682-4.463-2.11-8.934-2.11c-4.028,0-5.332,1.736-5.332,3.474
		C60.073,68.748,62.245,70.051,67.518,72.036z"/>
	<path d="M67.059,31.802c0,0,4.584-14.156-0.798-14.754c-4.532-0.503-11.465-0.401-18.542,4.472
		c2.208,2.826,4.687,5.597,4.687,5.597l-6.016-4.623c-0.887,0.687-1.773,1.448-2.655,2.3l6.977,10.128
		C50.711,34.921,58.81,30.604,67.059,31.802z"/>
	<path d="M27.718,78.965h-13.96v-4.249c2.779-1.152,5.874-4.143,5.874-7.706c0-0.734-0.05-1.363-0.157-2.096h-5.14v-5.403h4.196
		c-0.261-1.311-0.42-2.833-0.42-4.246c0-6.61,4.825-10.96,11.85-10.96c2.887,0,5.034,0.626,6.185,1.258l-1.311,6.03
		c-0.994-0.577-2.463-0.945-4.4-0.945c-3.723,0-4.876,2.414-4.876,4.932c0,1.362,0.152,2.621,0.469,3.932h7.187v0.17
		c2.39-5.503,5.181-10.565,7.669-14.655c-3.012-4.222-6.716-8.846-11.223-13.918c-9.567-0.863-13.773,2.564-13.773,2.564
		s-41.111,53.957,12.146,55.287C27.417,85.755,27.361,82.386,27.718,78.965z"/>
	<path d="M26.237,68.635c-0.47,1.313-1.311,2.623-2.566,3.724v0.103h5.176c0.605-2.537,1.385-5.07,2.281-7.547h-4.416
		C26.763,66.225,26.66,67.428,26.237,68.635z"/>
	<path d="M28.815,28.53c0,0,3.582-11.061-0.622-11.526c-3.542-0.394-8.96-0.313-14.489,3.494c1.727,2.207,3.663,4.372,3.663,4.372
		l-4.7-3.61c-0.693,0.536-1.386,1.13-2.076,1.795l5.452,7.912C16.043,30.967,22.371,27.596,28.815,28.53z"/>
	<path d="M102.739,31.107c-9.566-0.863-13.773,2.564-13.773,2.564s-3.567,4.682-7.238,11.32c2.25,2.943,4.286,5.795,6.131,8.563
		c0.539-0.964,1.159-1.854,1.855-2.658c2.989-3.355,7.181-5.349,12.112-5.349c3.197,0,5.976,0.732,7.865,1.574l-1.47,5.978
		c-1.361-0.576-3.514-1.259-5.819-1.259c-2.518,0-4.824,0.837-6.45,2.83c-0.734,0.841-1.312,2.045-1.679,3.406h13.057v3.724H92.784
		c0.273,0.409,1.183,1.979,1.431,2.464h13.115v3.722H95.999c0.359,0.806,0.702,1.604,1.016,2.387c0.4,1.004,0.755,1.991,1.084,2.967
		c1.358,0.686,2.931,0.992,4.564,0.992c2.412,0,4.876-0.786,5.978-1.362l1.26,5.819c-1.785,0.998-4.825,1.993-8.181,1.993
		c-0.604,0-1.201-0.031-1.792-0.089c0.441,2.916,0.484,5.661,0.145,8.232c0.446,0.018,0.896,0.031,1.355,0.041
		C101.428,88.967,154.154,88.967,102.739,31.107z"/>
	<path d="M101.894,28.53c0,0,3.582-11.061-0.622-11.526c-3.54-0.394-8.96-0.313-14.487,3.494c1.726,2.207,3.662,4.372,3.662,4.372
		l-4.7-3.61c-0.693,0.536-1.387,1.13-2.076,1.795l5.451,7.912C89.121,30.967,95.449,27.596,101.894,28.53z"/>
</g>
</svg>
