<?xml version="1.0" encoding="utf-8"?>
<!-- Generator: Adobe Illustrator 16.0.0, SVG Export Plug-In . SVG Version: 6.00 Build 0)  -->
<!DOCTYPE svg PUBLIC "-//W3C//DTD SVG 1.1//EN" "http://www.w3.org/Graphics/SVG/1.1/DTD/svg11.dtd">
<svg version="1.1" id="Layer_1" xmlns="http://www.w3.org/2000/svg" xmlns:xlink="http://www.w3.org/1999/xlink" x="0px" y="0px"
	 width="126px" height="126px" viewBox="0 0 126 126" enable-background="new 0 0 126 126" xml:space="preserve">
<g>
	<path d="M58.165,46.501c-2.606-2.172-5.347-0.033-6.248,0.67c-2.091,1.632-5.577,4.944-5.724,5.085
		c-0.224,0.213-0.42,0.45-0.585,0.7c-0.284,0.127-0.558,0.287-0.812,0.485l-5.386,4.161c-0.329,0.265-0.654,0.602-0.89,0.962
		c-0.501,0.087-0.995,0.269-1.445,0.553c-0.138,0.086-3.385,2.136-6.329,4.433c-3.819,2.98-6.25,5.593-5.711,8.664
		c0.302,1.707,1.652,3.013,3.375,3.226c1.736,0.353,7.17,4.98,11.635,9.898c0.392,0.432,0.865,0.747,1.371,0.963
		c-0.422,1.566,1.786,4.193,1.786,4.193l4.691,6.012c1.932,2.476,5.518,2.917,7.994,0.986l4.885-3.813l0.272,0.297
		c0.483,0.528,0.954,1.069,1.403,1.609c0.368,0.433,0.725,0.88,1.088,1.337c0.359,0.452,0.652,0.842,0.912,1.223
		c0.509,0.728,0.97,1.5,1.335,2.232c0.394,0.793,0.59,1.368,0.656,1.577l0.031,0.09c0.053,0.157,0.086,0.277,0.102,0.348
		c0.321,1.716,1.127,3.259,2.271,4.487c0.603,0.505,1.269,0.938,2.003,1.265c2.897,1.291,6.255,0.879,8.756-1.073
		c1.1-0.858,1.983-1.991,2.552-3.269c1.914-4.298-0.012-9.346-4.288-11.283c-0.054-0.028-0.141-0.078-0.249-0.149
		c-0.028-0.019-0.057-0.036-0.084-0.052c-0.163-0.101-0.608-0.386-1.203-0.897c-0.557-0.475-1.128-1.047-1.676-1.672
		c-0.251-0.289-0.532-0.631-0.859-1.061c-0.312-0.407-0.627-0.82-0.953-1.274c-0.369-0.502-0.733-1.029-1.088-1.561l4.195-3.274
		c2.448-1.911,2.883-5.455,0.974-7.901l-6.381-8.176c-0.501-0.643-1.119-1.144-1.798-1.505c-0.103-0.64-0.36-1.263-0.786-1.811
		c-3.484-4.463-7.576-10.455-8.443-12.676C59.906,48.741,59.114,47.292,58.165,46.501z M64.799,65.45l-21.875,17.07
		c0,0-9.624-10.616-14.042-11.161c-0.415-2.354,10.253-9.07,10.253-9.07l5.38,5.184l-2.732-6.915l5.386-4.162l5.064,2.861
		l-3.362-4.309c0,0,7.804-7.425,6.629-5.173C54.324,52.027,64.799,65.45,64.799,65.45z"/>
	<path d="M102.133,63.51c-2.735,1.019-5.641,1.682-8.66,1.945v47.644H18.419V54.553l37.527-32.999l2.565,2.257
		c0.805-3.005,2.02-5.843,3.584-8.45l-3.331-2.86l-2.819-2.478l-2.799,2.46l-26.673,23.16V23.731H14.802v22.047L1.989,56.903
		l5.678,6.539l2.092-1.817v51.474H0.457v9.383h110.962v-9.383h-9.285V63.51z"/>
	<path d="M106.07,29.933c0.431,1.601,0.682,3.274,0.682,5.008c0,8.817-5.94,16.256-14.025,18.569L92,53.697
		c-1.469,0.359-2.996,0.569-4.573,0.569c-10.657,0-19.326-8.669-19.326-19.326c0-10.656,8.669-19.326,19.326-19.326
		c3.04,0,5.906,0.725,8.468,1.98c1.771-2.003,3.692-3.916,5.749-5.63c-4.138-2.569-8.998-4.08-14.217-4.08
		c-14.919,0-27.057,12.137-27.057,27.056c0,14.919,12.138,27.057,27.057,27.057c14.918,0,27.056-12.137,27.056-27.057
		c0-3.988-0.889-7.764-2.445-11.175C109.983,25.434,107.956,27.582,106.07,29.933z"/>
	<path d="M125.153,3.519c-4.528,0.958-8.603,3.259-12.351,5.815c-3.731,2.613-7.169,5.595-10.418,8.742
		c-3.243,3.158-6.312,6.481-9.24,9.922c-1.466,1.72-2.896,3.469-4.296,5.249l-0.273,0.353l-7.301-11.876l-9.124,6.638l12.756,14.944
		l4.264,4.994l2.578-5.269l0.001-0.001l1.539-2.783l1.641-2.799c1.114-1.861,2.268-3.701,3.456-5.52
		c2.375-3.639,4.9-7.18,7.601-10.573c2.707-3.387,5.603-6.619,8.794-9.52c3.208-2.844,6.721-5.454,10.764-6.861L125.153,3.519z"/>
</g>
</svg>
