<?xml version="1.0" encoding="utf-8"?>
<!-- Generator: Adobe Illustrator 16.0.0, SVG Export Plug-In . SVG Version: 6.00 Build 0)  -->
<!DOCTYPE svg PUBLIC "-//W3C//DTD SVG 1.1//EN" "http://www.w3.org/Graphics/SVG/1.1/DTD/svg11.dtd">
<svg version="1.1" id="Layer_1" xmlns="http://www.w3.org/2000/svg" xmlns:xlink="http://www.w3.org/1999/xlink" x="0px" y="0px"
	 width="126px" height="126px" viewBox="0 0 126 126" enable-background="new 0 0 126 126" xml:space="preserve">
<g>
	<rect x="47.104" y="54.214" width="8.065" height="14.786"/>
	<path d="M97.705,10.083C97.683,3.896,94.115,0.4,87.911,0.4L51.717,0.456c-6.974,0-12.647,5.673-12.647,12.647v27.284h3.036V13.104
		c0-5.3,4.312-9.611,9.611-9.611h27.997c-1.691,2.354-1.691,5.621-1.691,9.611v27.284h3.034V18.667l13.123-0.005
		c0.577,0,1.483-0.124,2.262-0.775c0.576-0.481,1.264-1.417,1.261-3.044C97.86,12.342,97.734,10.458,97.705,10.083z M94.824,14.752
		c0,0.452-0.084,0.796-0.226,0.92c-0.127,0.112-0.406,0.124-0.479,0.11l-13.063,0.005v-2.684c0-2.343,0.025-4.085,0.235-5.422
		c0.724-2.973,2.891-4.452,6.619-4.452c4.651,0,6.913,2.262,6.913,6.913l0.006,0.124C94.831,10.285,94.986,12.149,94.824,14.752z"/>
	<path d="M59.5,29.038h14.222c0.839,0,1.519-0.68,1.519-1.517c0-0.839-0.68-1.518-1.519-1.518H59.5V29.038z"/>
	<rect x="51.833" y="26.004" width="5.667" height="3.034"/>
	<path d="M45.899,29.038h3.934v-3.034h-3.934c-0.838,0-1.518,0.679-1.518,1.518C44.382,28.358,45.062,29.038,45.899,29.038z"/>
	<rect x="72.647" y="54.214" width="8.065" height="14.786"/>
	<path d="M44.382,15.633c0,0.838,0.68,1.518,1.518,1.518h7.268v-3.035h-7.268C45.062,14.115,44.382,14.796,44.382,15.633z"/>
	<path d="M85.068,26.058v18.948H35.834V26.058c-4.32,0.727-7.614,4.474-7.614,8.999v81.406c0,5.046,4.09,9.137,9.137,9.137h46.188
		c5.046,0,9.137-4.091,9.137-9.137V35.057C92.682,30.531,89.387,26.784,85.068,26.058z M50.191,116.645h-8.692v-8.69h8.692V116.645z
		 M50.191,100.906h-8.692v-8.688h8.692V100.906z M50.191,85.865h-8.692v-8.69h8.692V85.865z M64.674,116.645h-8.69v-8.69h8.69
		V116.645z M64.674,100.906h-8.69v-8.688h8.69V100.906z M64.674,85.865h-8.69v-8.69h8.69V85.865z M79.4,116.645h-8.691v-8.69H79.4
		V116.645z M79.4,100.906h-8.691v-8.688H79.4V100.906z M79.4,85.865h-8.691v-8.69H79.4V85.865z M84.476,71.699H35.41V52.074h49.065
		V71.699z"/>
	<rect x="55.167" y="14.115" width="10.666" height="3.035"/>
	<path d="M75.24,15.633c0-0.837-0.68-1.518-1.519-1.518h-5.889v3.035h5.889C74.561,17.15,75.24,16.471,75.24,15.633z"/>
	<rect x="59.778" y="54.214" width="8.065" height="14.786"/>
</g>
</svg>
