<?xml version="1.0" encoding="utf-8"?>
<!-- Generator: Adobe Illustrator 16.0.0, SVG Export Plug-In . SVG Version: 6.00 Build 0)  -->
<!DOCTYPE svg PUBLIC "-//W3C//DTD SVG 1.1//EN" "http://www.w3.org/Graphics/SVG/1.1/DTD/svg11.dtd">
<svg version="1.1" id="Layer_1" xmlns="http://www.w3.org/2000/svg" xmlns:xlink="http://www.w3.org/1999/xlink" x="0px" y="0px"
	 width="126px" height="126px" viewBox="0 0 126 126" enable-background="new 0 0 126 126" xml:space="preserve">
<path d="M47.791,57.631c0,1.989-1.617,3.608-3.607,3.608c-1.99,0-3.608-1.619-3.608-3.608s1.618-3.608,3.608-3.608
	C46.173,54.023,47.791,55.642,47.791,57.631z M124.045,62.715c-0.281,0.343-0.792,0.392-1.126,0.108
	c-0.346-0.282-0.392-0.787-0.11-1.128c0.695-0.839,0.814-2.014,0.329-3.137c-0.436-0.998-1.472-2.101-3.082-2.197
	c-0.79-0.045-1.597,0.108-2.354,0.401c1.512,1.956,2.029,4.504,1.496,6.14c-0.406,1.25-1.34,1.934-2.555,1.934
	c-0.375,0-0.779-0.069-1.202-0.204c-3.363-1.074-3.315-3.385-3.141-4.328c0.251-1.349,1.287-2.795,2.722-3.872
	c-0.357-0.238-0.755-0.431-1.19-0.574c-1.094-0.366-3.361-0.175-4.994,0.538c1.523,3.581,2.303,7.295,2.303,11.125
	c0,7.957-3.419,15.666-9.649,21.813v21.233l-4.06,0.001c-7.291,0-16.366,0-16.366-8.913v-1.268
	c-6.949,1.719-14.297,1.957-21.396,0.687v0.583c0,8.91-9.073,8.91-16.363,8.91l-4.06-0.001V92.146
	c-4.777-3.763-8.382-8.363-10.53-13.431h-1.014c-2.853,0-5.527-2.19-6.09-4.986l-2.298-11.497c-0.292-1.467,0.019-2.848,0.876-3.892
	c0.982-1.197,2.482-1.773,4.257-1.511l3.857,0.567c0.269-0.708,0.576-1.404,0.9-2.096l-3.446-6.968L3.781,50.224l1.796,3.626
	l-0.793,1.749l0.793,17.667l-2.305,4.609l-2.305-4.609l0.793-17.667L0.968,53.85l1.751-3.534L1.857,50.39l1.363-1.086l0.053-0.106
	l0.023,0.046l37.088-29.562l51.883-4.25l-16.552,13.39l1.074,5.115c5.904,1.014,10.407,2.723,10.679,2.825
	c7.462,3.008,13.567,7.572,17.708,13.222l0.991,1.396c0.764,1.171,1.43,2.362,2.019,3.566c2.061-0.905,4.721-1.084,6.147-0.611
	c0.819,0.269,1.547,0.688,2.167,1.192c1.125-0.541,2.392-0.859,3.653-0.769c1.952,0.115,3.654,1.328,4.456,3.155
	C125.333,59.579,125.117,61.416,124.045,62.715z M106.542,67.52c0-4.745-1.404-9.304-4.177-13.552l-0.919-1.293
	c-3.614-4.93-9.031-8.96-15.645-11.625c-0.021-0.008-3.947-1.451-9.092-2.413C55.5,36.656,36.219,50.25,32.016,60.768l-0.53,1.744
	l-7.65-1.126l2.288,11.438c0.131,0.651,0.913,1.292,1.58,1.292H31.9l0.548,1.521c1.852,5.142,5.471,9.819,10.468,13.526l0.929,0.689
	v16.116c9.006-0.032,11.227-0.912,11.227-4.311v-6.318l2.83,0.672c8.165,1.938,16.818,1.644,24.775-0.849l2.987-0.936v7.429
	c0,3.401,2.221,4.282,11.229,4.313V87.355l0.729-0.681C103.375,81.297,106.542,74.495,106.542,67.52z M116.33,57.736
	c0,0-5.49,4.338,0,5.343C116.33,63.079,119.784,63.593,116.33,57.736z M59.984,46.409c-1.398,0.599-2.045,2.216-1.449,3.616
	c0.595,1.399,2.215,2.051,3.617,1.458c0.652-0.275,16.104-6.633,26.558,4.628c0.544,0.585,1.281,0.881,2.022,0.881
	c0.672,0,1.346-0.244,1.877-0.738c1.117-1.036,1.181-2.782,0.144-3.899C79.625,38.219,60.778,46.069,59.984,46.409z"/>
</svg>
