<?xml version="1.0" encoding="utf-8"?>
<!-- Generator: Adobe Illustrator 16.0.0, SVG Export Plug-In . SVG Version: 6.00 Build 0)  -->
<!DOCTYPE svg PUBLIC "-//W3C//DTD SVG 1.1//EN" "http://www.w3.org/Graphics/SVG/1.1/DTD/svg11.dtd">
<svg version="1.1" id="Layer_1" xmlns="http://www.w3.org/2000/svg" xmlns:xlink="http://www.w3.org/1999/xlink" x="0px" y="0px"
	 width="126px" height="126px" viewBox="0 0 126 126" enable-background="new 0 0 126 126" xml:space="preserve">
<g>
	<path d="M63.616,2.167h-1.23c-9.051,16.663-49.193,15.29-49.193,23.995v38.3c0,52.734,48.98,59.263,49.789,59.365v0.006
		c0,0,0.018-0.002,0.02-0.002l0.018,0.002v-0.006c0.811-0.103,49.789-6.631,49.789-59.365v-38.3
		C112.808,17.457,72.665,18.83,63.616,2.167z M104.716,64.462c0,18.91-6.975,33.215-20.729,42.513
		c-8.875,6-18.008,8.099-20.986,8.655c-2.988-0.56-12.115-2.659-20.986-8.655c-13.754-9.298-20.729-23.603-20.729-42.513V29.07
		c2.563-0.992,7.258-2.142,10.889-3.032c9.482-2.322,20.494-5.022,28.613-10.616l2.213-1.518l2.211,1.518
		c8.119,5.594,19.133,8.294,28.613,10.616c3.633,0.891,8.326,2.04,10.891,3.032V64.462z"/>
	<path d="M100.194,32.077c-2.063-0.574-4.383-1.151-6.633-1.706c-9.526-2.354-20.323-5.022-28.909-10.651l-1.531-1.004
		l-0.004,13.016h-7.881v7.972c-7.111,2.528-11.331,8.256-11.331,15.45c0,8.015,5.078,13.687,15.092,16.856
		c3.474,1.1,4.693,2.401,4.696,2.404l0.165,0.151c0.003,0.002,0.215,0.188,0.24,0.471c0.012,0.131-0.164,0.305-0.215,0.343
		l-0.088,0.068c-0.01,0.007-0.964,0.775-3.215,0.787c-2.833,0-5.998-0.916-8.685-2.515l-4.854-2.89l-4.34,15.23l2.658,1.783
		c2.351,1.583,5.759,2.817,9.453,3.436v7.312h8.286l-0.003,12.414l1.202-0.264c3.722-0.818,11.02-2.909,18.085-7.727
		c12.301-8.389,18.538-21.406,18.538-38.691V32.279L100.194,32.077z M49.882,77.165c3.279,1.95,7.206,3.069,10.775,3.069
		c1.611,0,2.624-0.212,4.167-0.871c1.761-0.752,2.481-2.422,2.504-2.476c0.259-0.586,0.391-1.212,0.391-1.861
		c0-0.699-0.128-1.329-0.399-1.945c-0.707-1.512-2.183-2.484-2.32-2.571c-1.155-0.794-2.689-1.538-4.693-2.275
		c-6.148-2.244-12.434-5.554-12.434-13.081c0-6.084,3.95-10.658,10.566-12.233l0.764-0.183v-7.006l6.224,0.025v6.574l0.918,0.069
		c3.197,0.241,5.921,0.977,8.573,2.315l0.299,0.151l-2.124,7.295l-0.81-0.375c-1.362-0.643-3.89-1.835-7.52-2.111l-0.512-0.06
		c-0.21-0.011-0.42-0.021-0.642-0.021c-4.632,0-6.283,2.358-6.283,4.565c0,2.614,2.541,4.263,6.383,5.943l0.119,0.048
		c0.447,0.191,0.913,0.386,1.441,0.599c8.261,3.126,11.63,7.035,11.63,13.495c0,6.194-4.106,11.064-10.728,12.713
		c-0.011,0.003-1.108,0.288-1.892,0.415l-0.834,0.135l-0.003,7.083h-4.662v-6.886l-0.912-0.074
		c-3.982-0.321-7.933-1.516-10.311-3.117l-0.243-0.163l2.124-7.449L49.882,77.165z"/>
</g>
</svg>
