<?xml version="1.0" encoding="utf-8"?>
<!-- Generator: Adobe Illustrator 16.0.0, SVG Export Plug-In . SVG Version: 6.00 Build 0)  -->
<!DOCTYPE svg PUBLIC "-//W3C//DTD SVG 1.1//EN" "http://www.w3.org/Graphics/SVG/1.1/DTD/svg11.dtd">
<svg version="1.1" id="Layer_1" xmlns="http://www.w3.org/2000/svg" xmlns:xlink="http://www.w3.org/1999/xlink" x="0px" y="0px"
	 width="126px" height="126px" viewBox="0 0 126 126" enable-background="new 0 0 126 126" xml:space="preserve">
<g>
	<path d="M82.168,109.834H15.18c-0.08,0-0.154,0.02-0.233,0.023V13.168c0-1.67,1.358-3.028,3.028-3.028H79.14
		c1.669,0,3.028,1.358,3.028,3.028v1.831h6.056v-4.081c0-5.009-4.075-9.084-9.084-9.084H17.974c-5.009,0-9.084,4.075-9.084,9.084
		v104.164c0,5.009,4.075,9.084,9.084,9.084H79.14c5.009,0,9.084-4.075,9.084-9.084V69.25h-6.056V109.834z M48.557,121.457
		c-2.656,0-4.81-2.153-4.81-4.81s2.154-4.81,4.81-4.81s4.81,2.153,4.81,4.81S51.213,121.457,48.557,121.457z"/>
	<path d="M113.787,18.203H56.625c-1.835,0-3.323,1.486-3.323,3.322v39.582c0,1.836,1.488,3.324,3.323,3.324h3.829l0.022,16.318
		l14.806-16.318h38.506c1.835,0,3.323-1.488,3.323-3.324V21.525C117.11,19.689,115.622,18.203,113.787,18.203z M86.961,54.768v4.825
		h-3.84v-4.545c-2.95-0.093-5.9-0.936-7.586-2.058l1.265-4.402c1.827,1.075,4.449,2.059,7.306,2.059c2.95,0,4.963-1.45,4.963-3.698
		c0-2.107-1.639-3.466-5.104-4.729c-4.918-1.779-8.102-4.029-8.102-8.383c0-4.027,2.81-7.119,7.54-7.961v-4.59h3.841v4.356
		c2.949,0.093,4.963,0.795,6.461,1.545l-1.263,4.309c-1.124-0.517-3.184-1.593-6.37-1.593c-3.278,0-4.447,1.687-4.447,3.276
		c0,1.921,1.685,2.998,5.666,4.59c5.245,1.969,7.587,4.497,7.587,8.663C94.876,50.412,92.113,53.926,86.961,54.768z"/>
</g>
</svg>
