<?xml version="1.0" encoding="utf-8"?>
<!-- Generator: Adobe Illustrator 17.0.2, SVG Export Plug-In . SVG Version: 6.00 Build 0)  -->
<!DOCTYPE svg PUBLIC "-//W3C//DTD SVG 1.0//EN" "http://www.w3.org/TR/2001/REC-SVG-20010904/DTD/svg10.dtd">
<svg version="1.0" id="Layer_1" xmlns="http://www.w3.org/2000/svg" xmlns:xlink="http://www.w3.org/1999/xlink" x="0px" y="0px"
	 width="13.93px" height="19.072px" viewBox="0 0 13.93 19.072" enable-background="new 0 0 13.93 19.072" xml:space="preserve">
<g>
	<path d="M10.52,12.122c0.156-0.257,3.818-6.326,3.372-9.044C13.661,1.674,12.272,0,6.965,0C1.657,0,0.268,1.674,0.038,3.078
		c-0.446,2.718,3.216,8.788,3.345,8.989c0.026,0.07,0.62,1.735-0.548,3.293c-1.42,1.894-0.598,3.121-0.563,3.173l0.055,0.079
		l0.089,0.036c0.043,0.017,1.078,0.423,3.885,0.423c0.213,0,0.436-0.003,0.657-0.008c0.234,0.005,0.457,0.008,0.67,0.008
		c0,0,0,0,0,0c2.807,0,3.842-0.406,3.885-0.423l0.089-0.036l0.055-0.079c0.035-0.051,0.857-1.279-0.563-3.173
		C9.927,13.803,10.521,12.138,10.52,12.122z M0.79,4.726l0.003-0.002C0.663,4.14,0.608,3.607,0.677,3.183
		c0.344-2.095,3.609-2.535,6.287-2.535c2.679,0,5.944,0.44,6.288,2.535c0.07,0.424,0.014,0.958-0.115,1.543h-1.079
		c0,0-0.973,0.014-1.396,0.18c-0.584,0.23-0.677,0.483-0.368,1.296c0.594,1.566-0.012,3.321-0.513,3.333
		c-0.81,0.019-0.783-1.614-0.603-2.19c0.18-0.576,0.36-1.427-0.001-1.833C8.817,5.107,8.554,4.998,7.999,4.947
		C7.116,4.867,5.755,6.092,4.318,5.978C2.05,5.798,0.79,4.726,0.79,4.726z M11.169,18.082c-0.313,0.092-1.366,0.343-3.541,0.343
		c-0.208,0-0.427-0.003-0.67-0.008c-2.627,0.059-3.855-0.235-4.196-0.335C2.646,17.823,2.415,17,3.353,15.749
		c0.024-0.031,0.042-0.063,0.064-0.095c0.965,0.278,3.992,0.979,7.096,0.001c0.022,0.031,0.04,0.063,0.064,0.094
		C11.517,17.003,11.283,17.827,11.169,18.082z"/>
</g>
</svg>
