<?xml version="1.0" encoding="utf-8"?>
<!-- Generator: Adobe Illustrator 17.0.2, SVG Export Plug-In . SVG Version: 6.00 Build 0)  -->
<!DOCTYPE svg PUBLIC "-//W3C//DTD SVG 1.0//EN" "http://www.w3.org/TR/2001/REC-SVG-20010904/DTD/svg10.dtd">
<svg version="1.0" id="Layer_1" xmlns="http://www.w3.org/2000/svg" xmlns:xlink="http://www.w3.org/1999/xlink" x="0px" y="0px"
	 width="10.336px" height="22.275px" viewBox="0 0 10.336 22.275" enable-background="new 0 0 10.336 22.275" xml:space="preserve">
<g>
	<path d="M7.133,21.278c1.888-2.897,3.203-9.712,3.203-14.017c0-0.803-0.053-1.63-0.158-2.457l-0.03-0.233l0.009-0.002
		c-0.003-0.01-0.011-0.026-0.014-0.038l-0.003-0.021h-0.005C9.964,3.985,9.102,2.694,7.838,1.767
		c-1.351-0.991-3.64-1.584-3.736-1.609L3.482,0l0.222,0.601C3.706,0.606,3.907,1.162,3.645,1.59C3.457,1.896,3.061,2.086,2.47,2.155
		C0.526,2.379,0.109,3.97,0.157,4.823C0.053,5.646,0,6.466,0,7.262c0,4.307,1.316,11.123,3.205,14.019l0.031,0.046l-0.419,0.947
		h4.724l-0.428-0.966L7.133,21.278z M2.546,2.822C3.357,2.728,3.92,2.429,4.221,1.934c0.201-0.332,0.241-0.689,0.226-0.979
		C5.186,1.183,6.56,1.661,7.44,2.308c1.07,0.785,1.725,1.749,1.964,2.204H8.16C8.045,4.197,7.862,3.834,7.578,3.634L6.204,2.665
		c0,0,0.736,0.939,0.964,1.378c0.08,0.155,0.144,0.319,0.194,0.469H5.644C5.563,4.182,5.475,3.835,5.475,3.835l-0.367-1.17
		l-0.15,1.26c0,0-0.028,0.301-0.055,0.587H2.996C3.055,4.327,3.122,4.14,3.18,4.042c0.137-0.23,0.964-1.378,0.964-1.378L2.77,3.634
		c-0.284,0.2-0.467,0.563-0.582,0.878H0.832C0.881,3.983,1.156,2.982,2.546,2.822z M0.671,7.262c0-0.679,0.04-1.377,0.118-2.079
		h1.812l0.007,0.001l0-0.001h2.594l0,0.001L5.21,5.183h2.53l0,0.001l0.007-0.001h1.801c0.078,0.701,0.118,1.399,0.118,2.079
		c0,4.125-1.276,10.688-2.998,13.498H3.67C1.947,17.949,0.671,11.388,0.671,7.262z"/>
	<path d="M6.493,20.371c1.578-2.725,2.751-8.642,2.844-12.655H1.032c0.093,4.014,1.266,9.931,2.846,12.657L6.493,20.371z"/>
</g>
</svg>
