<?xml version="1.0" encoding="utf-8"?>
<!-- Generator: Adobe Illustrator 17.0.2, SVG Export Plug-In . SVG Version: 6.00 Build 0)  -->
<!DOCTYPE svg PUBLIC "-//W3C//DTD SVG 1.0//EN" "http://www.w3.org/TR/2001/REC-SVG-20010904/DTD/svg10.dtd">
<svg version="1.0" id="Layer_1" xmlns="http://www.w3.org/2000/svg" xmlns:xlink="http://www.w3.org/1999/xlink" x="0px" y="0px"
	 width="19.438px" height="46.003px" viewBox="0 0 19.438 46.003" enable-background="new 0 0 19.438 46.003" xml:space="preserve">
<g>
	<path d="M11.442,44.981c-0.154-0.251-0.396-0.463-0.7-0.611c-0.637-7.584-0.645-11.44-0.027-18.914
		c2.955-0.21,5.198-1.36,6.663-3.445c4.802-6.833-0.271-21.157-0.49-21.763L16.8,0H2.638L2.548,0.248
		C2.33,0.854-2.743,15.179,2.059,22.011c1.465,2.085,3.708,3.235,6.663,3.445c0.618,7.474,0.61,11.331-0.027,18.914
		c-0.304,0.148-0.546,0.36-0.7,0.611c-4.281,0.091-7.521,0.513-7.521,1.022c8.922,0,10.991,0,18.489,0
		C18.963,45.495,15.723,45.072,11.442,44.981z M2.673,21.581C-1.574,15.539,2.513,2.695,3.169,0.75h13.1
		c0.657,1.946,4.745,14.785,0.497,20.83c-1.479,2.104-3.849,3.17-7.046,3.17C6.522,24.75,4.151,23.684,2.673,21.581z"/>
	<circle cx="12.212" cy="20.484" r="1.425"/>
	<circle cx="13.562" cy="16.883" r="0.925"/>
	<circle cx="6.012" cy="10.5" r="1.875"/>
	<circle cx="4.701" cy="6.546" r="1.056"/>
	<circle cx="6.465" cy="4.25" r="0.792"/>
	<circle cx="14.955" cy="19.058" r="0.607"/>
</g>
</svg>
