<?xml version="1.0" encoding="utf-8"?>
<!-- Generator: Adobe Illustrator 17.0.2, SVG Export Plug-In . SVG Version: 6.00 Build 0)  -->
<!DOCTYPE svg PUBLIC "-//W3C//DTD SVG 1.0//EN" "http://www.w3.org/TR/2001/REC-SVG-20010904/DTD/svg10.dtd">
<svg version="1.0" id="Layer_1" xmlns="http://www.w3.org/2000/svg" xmlns:xlink="http://www.w3.org/1999/xlink" x="0px" y="0px"
	 width="24.562px" height="35.567px" viewBox="0 0 24.562 35.567" enable-background="new 0 0 24.562 35.567" xml:space="preserve">
<g>
	<polygon points="3.409,26.982 21.153,26.982 22.036,17.769 2.526,17.769 	"/>
	<path d="M21.987,9.184H2.575c-0.223,0-0.436,0.094-0.586,0.259c-0.15,0.166-0.224,0.386-0.202,0.609l0.664,6.925h19.662
		l0.664-6.925c0.021-0.223-0.052-0.443-0.202-0.609C22.423,9.278,22.21,9.184,21.987,9.184z"/>
	<path d="M4.163,34.851c0.039,0.406,0.381,0.716,0.789,0.716H19.61c0.408,0,0.75-0.31,0.789-0.716l0.678-7.077H3.485L4.163,34.851z"
		/>
	<path d="M22.42,4.106h-0.025L20.018,0H4.903L2.526,4.106H2.142C0.959,4.106,0,5.065,0,6.248C0,7.431,0.959,8.39,2.142,8.39H22.42
		c1.183,0,2.142-0.959,2.142-2.142C24.562,5.065,23.603,4.106,22.42,4.106z M14.391,2.499H10.17c-0.246,0-0.446-0.2-0.446-0.446
		s0.2-0.446,0.446-0.446h4.221c0.246,0,0.446,0.2,0.446,0.446S14.637,2.499,14.391,2.499z"/>
</g>
</svg>
