<?xml version="1.0" encoding="utf-8"?>
<!-- Generator: Adobe Illustrator 17.0.2, SVG Export Plug-In . SVG Version: 6.00 Build 0)  -->
<!DOCTYPE svg PUBLIC "-//W3C//DTD SVG 1.0//EN" "http://www.w3.org/TR/2001/REC-SVG-20010904/DTD/svg10.dtd">
<svg version="1.0" id="Layer_1" xmlns="http://www.w3.org/2000/svg" xmlns:xlink="http://www.w3.org/1999/xlink" x="0px" y="0px"
	 width="13.653px" height="32.527px" viewBox="0 0 13.653 32.527" enable-background="new 0 0 13.653 32.527" xml:space="preserve">
<path d="M9.327,0.499C9.327,0.223,9.104,0,8.828,0H4.833C4.558,0,4.334,0.223,4.334,0.499v2.41c0.767,0,4.45,0,4.992,0V0.499z"/>
<g>
	<path d="M13.573,9.761L9.467,3.754C9.382,3.629,9.241,3.555,9.09,3.555H4.562c-0.151,0-0.292,0.074-0.377,0.199L0.08,9.761
		C0.028,9.837,0,9.927,0,10.019v20.227c0,1.258,1.023,2.281,2.281,2.281h9.09c1.258,0,2.281-1.023,2.281-2.281V10.019
		C13.653,9.927,13.625,9.837,13.573,9.761z M4.803,4.467H8.85l3.891,5.692v4.003h-0.912H1.825H0.912V10.16L4.803,4.467z
		 M11.372,31.614h-9.09c-0.755,0-1.369-0.614-1.369-1.369v-8.098h0.912h10.003h0.912v8.098C12.74,31,12.126,31.614,11.372,31.614z"
		/>
	<polygon points="11.828,10.442 10.499,8.498 3.154,8.498 1.825,10.442 1.825,13.136 11.828,13.136 	"/>
	<path d="M1.825,30.245c0,0.252,0.205,0.456,0.456,0.456h9.09c0.252,0,0.456-0.205,0.456-0.456v-7.072H1.825V30.245z"/>
</g>
</svg>
