<?xml version="1.0" encoding="utf-8"?>
<!-- Generator: Adobe Illustrator 17.0.2, SVG Export Plug-In . SVG Version: 6.00 Build 0)  -->
<!DOCTYPE svg PUBLIC "-//W3C//DTD SVG 1.0//EN" "http://www.w3.org/TR/2001/REC-SVG-20010904/DTD/svg10.dtd">
<svg version="1.0" id="Layer_1" xmlns="http://www.w3.org/2000/svg" xmlns:xlink="http://www.w3.org/1999/xlink" x="0px" y="0px"
	 width="25.667px" height="95.083px" viewBox="0 0 25.667 95.083" enable-background="new 0 0 25.667 95.083" xml:space="preserve">
<g>
	<path d="M25.667,36.292c0-4.841-3.469-8.958-8.333-10.564V7.25h-9v18.478C3.469,27.333,0,31.451,0,36.292
		c0,0.385,0.023,0.766,0.066,1.141C0.031,37.646,0,37.861,0,38.083v53c0,2.209,1.791,4,4,4h17.667c2.209,0,4-1.791,4-4v-53
		c0-0.223-0.031-0.438-0.066-0.65C25.644,37.058,25.667,36.677,25.667,36.292z M12.833,66.044c-5.487,0-9.935-3.696-9.935-8.256
		s4.448-8.256,9.935-8.256c5.487,0,9.935,3.696,9.935,8.256S18.32,66.044,12.833,66.044z"/>
	<path d="M17.333,2c0-1.105-0.895-2-2-2h-5c-1.105,0-2,0.895-2,2v3.5h9V2z"/>
</g>
</svg>
