<?xml version="1.0" encoding="utf-8"?>
<!-- Generator: Adobe Illustrator 17.0.2, SVG Export Plug-In . SVG Version: 6.00 Build 0)  -->
<!DOCTYPE svg PUBLIC "-//W3C//DTD SVG 1.0//EN" "http://www.w3.org/TR/2001/REC-SVG-20010904/DTD/svg10.dtd">
<svg version="1.0" id="Layer_1" xmlns="http://www.w3.org/2000/svg" xmlns:xlink="http://www.w3.org/1999/xlink" x="0px" y="0px"
	 width="18.718px" height="34.65px" viewBox="0 0 18.718 34.65" enable-background="new 0 0 18.718 34.65" xml:space="preserve">
<path d="M18.663,5.761l0.023-0.02l-1.855-2.396V0.73C16.831,0.328,16.503,0,16.1,0H3.151C2.748,0,2.42,0.328,2.42,0.73v2.511
	L0.043,9.247C0.029,9.288,0.018,9.329,0.012,9.366C0.009,9.384,0.007,9.403,0.005,9.431l0.209,0.034l0,0l0,0l0,0L0,9.488v24.431
	c0,0.402,0.328,0.73,0.731,0.73h12.95c0.069,0,0.138-0.011,0.251-0.046c0.065-0.023,0.13-0.058,0.152-0.081l4.362-3.49
	c0.173-0.14,0.273-0.348,0.273-0.57V6.031C18.718,5.939,18.699,5.847,18.663,5.761z M12.95,10.219v22.969H1.461V10.219H12.95z
	 M17.257,7.554v22.557l-2.846,2.285V9.839L17.257,7.554z M15.377,7.19l0.874-2.207l0.719,0.928L15.377,7.19z M3.881,2.65V1.461
	H15.37V2.65H3.881z M15.025,4.111l-1.841,4.647H1.806l1.841-4.647H15.025z"/>
<ellipse cx="7.097" cy="20.009" rx="4.079" ry="2.684"/>
</svg>
