<?xml version="1.0" encoding="utf-8"?>
<!-- Generator: Adobe Illustrator 17.0.2, SVG Export Plug-In . SVG Version: 6.00 Build 0)  -->
<!DOCTYPE svg PUBLIC "-//W3C//DTD SVG 1.0//EN" "http://www.w3.org/TR/2001/REC-SVG-20010904/DTD/svg10.dtd">
<svg version="1.0" id="Layer_1" xmlns="http://www.w3.org/2000/svg" xmlns:xlink="http://www.w3.org/1999/xlink" x="0px" y="0px"
	 width="26.472px" height="21.395px" viewBox="0 0 26.472 21.395" enable-background="new 0 0 26.472 21.395" xml:space="preserve">
<g>
	<path d="M11.856,3.745L4.342,1.413l-0.13,0.138C4.102,1.667,1.53,4.432,2.425,7.379c0.805,2.649-0.836,7.358-2.154,11.141
		l-0.096,0.28c-0.067,0.146-0.272,0.648-0.12,0.99c0.062,0.138,0.174,0.238,0.318,0.282l4.188,1.3h0
		c0.143,0.044,0.293,0.026,0.422-0.053c0.319-0.195,0.434-0.725,0.455-0.856l0.086-0.313c1.056-3.864,2.371-8.674,4.534-10.402
		c2.406-1.922,1.853-5.657,1.828-5.815L11.856,3.745z M4.532,2.11l6.773,2.103c0.027,0.276,0.058,0.842,0,1.512
		c-0.55,0.503-1.972,1.595-3.507,1.092C5.145,5.713,3.451,6.211,2.872,6.458C2.695,4.466,4.1,2.622,4.532,2.11z M0.657,19.252
		c0.022-0.073,0.049-0.151,0.083-0.226l0.107-0.306c1.325-3.803,2.963-8.517,2.196-11.373C3.02,7.234,2.999,7.144,2.983,7.08
		l1.138,0.353C3.639,13.115,1.199,18.186,0.657,19.252z"/>
	<path d="M26.211,17.526l-0.146-0.289c-1.808-3.575-4.057-8.025-3.611-10.757c0.496-3.039-2.419-5.439-2.543-5.54l-0.148-0.12
		l-7.139,3.308l-0.004,0.19c-0.004,0.16-0.058,3.936,2.582,5.522c2.373,1.426,4.313,6.019,5.872,9.709l0.117,0.272
		c0.048,0.153,0.233,0.664,0.575,0.814c0.138,0.061,0.289,0.059,0.425-0.004l3.979-1.843c0,0,0,0,0,0
		c0.136-0.063,0.235-0.177,0.277-0.322C26.553,18.108,26.283,17.637,26.211,17.526z M19.668,1.536
		c0.499,0.453,2.152,2.108,2.225,4.119L20.67,6.222c-0.776,0.217-1.755,0.252-2.779-0.31c-1.957-1.075-3.851-0.096-4.421,0.255
		c-0.175-0.721-0.226-1.351-0.237-1.649L19.668,1.536z M21.762,19.61l-0.126-0.299c-1.567-3.71-3.513-8.306-5.996-9.91
		c-0.093-0.068-0.168-0.121-0.223-0.158l1.081-0.501c3.452,4.538,5.042,9.937,5.355,11.091C21.82,19.764,21.788,19.688,21.762,19.61
		z"/>
	<path d="M10.183,2.786c0.031,0.018,0.065,0.025,0.098,0.025c0.072,0,0.141-0.038,0.178-0.105c0.055-0.099,0.019-0.223-0.08-0.277
		l-0.925-0.51C9.357,1.864,9.232,1.9,9.178,1.998c-0.055,0.099-0.019,0.223,0.08,0.277L10.183,2.786z"/>
	<path d="M10.639,2.057c0.04,0.046,0.097,0.07,0.154,0.07c0.048,0,0.096-0.017,0.134-0.05c0.085-0.074,0.094-0.203,0.02-0.287
		l-0.695-0.796c-0.074-0.085-0.204-0.093-0.288-0.02C9.879,1.048,9.87,1.177,9.944,1.261L10.639,2.057z"/>
	<path d="M11.506,1.66c0.024,0,0.049-0.004,0.073-0.014c0.105-0.041,0.157-0.158,0.117-0.264l-0.381-0.986
		c-0.04-0.105-0.159-0.157-0.264-0.117c-0.105,0.041-0.157,0.158-0.117,0.264l0.381,0.986C11.348,1.611,11.425,1.66,11.506,1.66z"/>
	<path d="M12.317,0c-0.001,0-0.002,0-0.004,0c-0.113,0.002-0.202,0.096-0.2,0.208l0.02,1.056c0.002,0.111,0.093,0.2,0.204,0.2
		c0.001,0,0.003,0,0.004,0c0.113-0.002,0.202-0.096,0.2-0.208L12.521,0.2C12.519,0.088,12.428,0,12.317,0z"/>
	<path d="M13.119,1.554c0.022,0.008,0.044,0.011,0.066,0.011c0.085,0,0.164-0.053,0.193-0.138l0.343-1
		c0.037-0.107-0.02-0.222-0.127-0.259c-0.106-0.039-0.223,0.02-0.259,0.127l-0.343,1C12.956,1.402,13.013,1.517,13.119,1.554z"/>
	<path d="M13.947,1.95c0.059,0,0.118-0.026,0.158-0.076l0.664-0.822c0.071-0.088,0.057-0.216-0.03-0.287
		c-0.088-0.07-0.216-0.057-0.287,0.03l-0.664,0.822c-0.071,0.088-0.057,0.216,0.03,0.287C13.857,1.935,13.902,1.95,13.947,1.95z"/>
	<path d="M14.358,2.473c0.038,0.064,0.105,0.099,0.174,0.099c0.036,0,0.072-0.01,0.105-0.029l0.906-0.546
		c0.096-0.058,0.127-0.183,0.069-0.279c-0.058-0.096-0.184-0.127-0.279-0.069l-0.906,0.546C14.33,2.251,14.3,2.376,14.358,2.473z"/>
</g>
</svg>
