<?xml version="1.0" encoding="utf-8"?>
<!-- Generator: Adobe Illustrator 17.0.2, SVG Export Plug-In . SVG Version: 6.00 Build 0)  -->
<!DOCTYPE svg PUBLIC "-//W3C//DTD SVG 1.0//EN" "http://www.w3.org/TR/2001/REC-SVG-20010904/DTD/svg10.dtd">
<svg version="1.0" id="Layer_1" xmlns="http://www.w3.org/2000/svg" xmlns:xlink="http://www.w3.org/1999/xlink" x="0px" y="0px"
	 width="22.127px" height="19.68px" viewBox="0 0 22.127 19.68" enable-background="new 0 0 22.127 19.68" xml:space="preserve">
<g>
	<path d="M22.067,17.177c-0.062-0.172-0.277-0.172-0.347-0.172c-0.396,0-1.325,0.227-2.438,0.594
		c-0.064-0.038-0.136-0.066-0.212-0.084c-1.068-2.353-1.534-3.646-2.188-6.081c0.939-0.449,1.539-1.123,1.782-2.006
		c0.814-2.948-2.658-7.219-2.807-7.4l-0.139-0.169l-4.655,1.664L6.408,1.859L6.27,2.028c-0.148,0.18-3.623,4.444-2.807,7.4
		c0.244,0.883,0.843,1.557,1.783,2.006c-0.654,2.433-1.12,3.726-2.188,6.081c-0.077,0.018-0.148,0.046-0.212,0.084
		c-1.113-0.368-2.042-0.594-2.438-0.594c-0.071,0-0.286,0-0.347,0.172L0,17.344l6.535,2.336l0.06-0.168
		c0.048-0.134,0.16-0.446-2.422-1.439c-0.026-0.07-0.063-0.136-0.111-0.199c0.666-2.499,1.126-3.795,2.162-6.09
		c1.011,0.247,1.907,0.103,2.65-0.421c1.24-0.876,1.869-2.661,2.189-4.272c0.32,1.611,0.949,3.396,2.189,4.272
		c0.744,0.525,1.64,0.669,2.65,0.421c1.036,2.296,1.496,3.591,2.162,6.09c-0.048,0.063-0.085,0.129-0.111,0.199
		c-2.581,0.992-2.47,1.304-2.422,1.439l0.06,0.168l6.535-2.336L22.067,17.177z M11.392,4.068l4.119-1.472
		c0.293,0.38,1.112,1.489,1.764,2.795c-0.337,0.232-0.922,0.488-2.369-0.28c-1.501-0.796-2.833,0.212-3.4,0.759
		c-0.072-0.557-0.11-1.046-0.129-1.398C11.385,4.307,11.389,4.17,11.392,4.068z M10.664,5.503c-0.285,0.478-0.885,0.898-2.116,0.083
		C7.073,4.608,5.81,4.763,5.069,4.976c0.606-1.121,1.286-2.042,1.547-2.381l4.119,1.472c0.002,0.102,0.006,0.238,0.014,0.402
		C10.734,4.742,10.708,5.097,10.664,5.503z"/>
	<path d="M9.461,2.258c0.07,0.07,0.161,0.104,0.252,0.104c0.091,0,0.182-0.035,0.252-0.104c0.139-0.139,0.139-0.364,0-0.504
		L9.119,0.908c-0.139-0.139-0.364-0.139-0.504,0s-0.139,0.364,0,0.504L9.461,2.258z"/>
	<path d="M10.225,1.603c0.042,0.159,0.186,0.264,0.344,0.264c0.031,0,0.062-0.004,0.093-0.012c0.19-0.051,0.303-0.246,0.252-0.436
		l-0.31-1.155c-0.051-0.19-0.247-0.302-0.436-0.252c-0.19,0.051-0.303,0.246-0.252,0.436L10.225,1.603z"/>
	<path d="M11.465,1.855c0.031,0.008,0.062,0.012,0.093,0.012c0.157,0,0.301-0.105,0.344-0.264l0.31-1.155
		c0.051-0.19-0.062-0.385-0.252-0.436c-0.189-0.05-0.385,0.062-0.436,0.252l-0.31,1.155C11.163,1.609,11.275,1.804,11.465,1.855z"/>
	<path d="M12.162,2.257c0.07,0.07,0.161,0.104,0.252,0.104c0.091,0,0.182-0.035,0.252-0.104l0.846-0.846
		c0.139-0.139,0.139-0.364,0-0.504s-0.364-0.139-0.504,0l-0.846,0.846C12.022,1.893,12.022,2.118,12.162,2.257z"/>
</g>
</svg>
