<?xml version="1.0" encoding="utf-8"?>
<!-- Generator: Adobe Illustrator 17.0.2, SVG Export Plug-In . SVG Version: 6.00 Build 0)  -->
<!DOCTYPE svg PUBLIC "-//W3C//DTD SVG 1.0//EN" "http://www.w3.org/TR/2001/REC-SVG-20010904/DTD/svg10.dtd">
<svg version="1.0" id="Layer_1" xmlns="http://www.w3.org/2000/svg" xmlns:xlink="http://www.w3.org/1999/xlink" x="0px" y="0px"
	 width="17.831px" height="43.139px" viewBox="0 0 17.831 43.139" enable-background="new 0 0 17.831 43.139" xml:space="preserve">
<g>
	<path fill="none" d="M10.105,10.565c0.471,0,1.086,0,1.937,0c-0.785,5.739-0.086,8.419,1.976,14.024
		c0.128,0.477,0.203,0.975,0.203,1.492c0,3.177-2.575,5.03-5.752,5.03c-3.177,0-5.752-1.853-5.752-5.03
		c0-0.517,0.075-1.016,0.203-1.492c2.061-5.605,2.76-8.245,1.976-14.024c2.987,0,3.256,0,4.194,0l0.983-5.459H1.46
		c2.649,7.437,2.583,11.487-0.188,19.042l-0.05,0.181C1.074,24.926,1,25.521,1,26.103c0,4.469,3.751,6.469,7.469,6.469
		s7.469-2,7.469-6.469c0-0.582-0.075-1.181-0.223-1.779l-0.05-0.179c-2.77-7.552-2.836-11.604-0.187-19.039h-4.39L10.105,10.565z"/>
	<path d="M13.662,1.021c2.416,0.218,4.087,0.354,4.087,0.354l0.082-0.996c-0.001,0-1.669-0.137-4.08-0.354
		c-1.039-0.098-1.844,0.099-2.403,0.568c-0.606,0.51-0.675,1.151-0.675,1.175l-0.421,2.338H0.03l0.248,0.673
		c2.765,7.519,2.838,11.268,0.232,18.536l-0.047-0.026l-0.293,0.959l0.035,0.021L0.2,24.285l0.004,0.002
		C0.068,24.897,0,25.506,0,26.103c0,3.834,2.648,6.658,6.631,7.32c-0.551,0.501-0.904,1.218-0.904,2.022
		c0,1.132,0.687,2.104,1.666,2.522c0.637,0.835,0.614,1.346-0.07,2.205c-2.557,0.141-4.479,0.745-4.479,1.469
		c0,0.828,2.518,1.5,5.625,1.5s5.625-0.672,5.625-1.5c0-0.724-1.922-1.328-4.479-1.469c-0.684-0.859-0.707-1.371-0.07-2.205
		c0.98-0.418,1.666-1.389,1.666-2.522c0-0.804-0.352-1.52-0.904-2.022c3.983-0.661,6.631-3.486,6.631-7.32
		c0-0.597-0.068-1.206-0.204-1.815l0.008-0.004l-0.004-0.017l0.031-0.02l-0.293-0.959l-0.047,0.026
		c-2.606-7.268-2.533-11.017,0.232-18.536l0.248-0.673h-5.64l0.395-2.198C11.676,1.799,11.842,0.857,13.662,1.021z M15.478,5.105
		c-2.649,7.436-2.583,11.487,0.187,19.039l0.05,0.179c0.148,0.599,0.223,1.197,0.223,1.779c0,4.469-3.751,6.469-7.469,6.469
		S1,30.571,1,26.103c0-0.581,0.074-1.177,0.222-1.774l0.05-0.181C4.043,16.593,4.109,12.542,1.46,5.105h8.612l-0.983,5.459
		c-0.938,0-1.208,0-4.194,0c0.784,5.779,0.085,8.419-1.976,14.024c-0.128,0.477-0.203,0.975-0.203,1.492
		c0,3.177,2.575,5.03,5.752,5.03c3.177,0,5.752-1.853,5.752-5.03c0-0.517-0.075-1.016-0.203-1.492
		c-2.061-5.605-2.76-8.285-1.976-14.024c-0.851,0-1.465,0-1.937,0l0.982-5.459H15.478z M8.657,21.992
		c0,0.131-0.106,0.237-0.237,0.237s-0.237-0.106-0.237-0.237c0-0.131,0.106-0.237,0.237-0.237S8.657,21.861,8.657,21.992z
		 M7.649,16.929c0.089,0,0.161,0.072,0.161,0.161c0,0.089-0.072,0.162-0.161,0.162S7.487,17.18,7.487,17.09
		C7.487,17.001,7.56,16.929,7.649,16.929z M7.598,13.976c0-0.089,0.072-0.161,0.161-0.161c0.089,0,0.162,0.072,0.162,0.161
		c0,0.089-0.072,0.162-0.162,0.162C7.67,14.138,7.598,14.065,7.598,13.976z M7.598,19.877c0.131,0,0.237,0.106,0.237,0.237
		c0,0.131-0.106,0.237-0.237,0.237S7.36,20.245,7.36,20.114C7.36,19.983,7.467,19.877,7.598,19.877z M7.649,23.751
		c0,0.201-0.163,0.364-0.364,0.364S6.92,23.952,6.92,23.751s0.163-0.364,0.364-0.364S7.649,23.55,7.649,23.751z M7.107,18.601
		c-0.089,0-0.161-0.072-0.161-0.161c0-0.089,0.072-0.162,0.161-0.162c0.089,0,0.162,0.072,0.162,0.162
		C7.268,18.529,7.196,18.601,7.107,18.601z M7.029,16.076c-0.089,0-0.161-0.072-0.161-0.162c0-0.089,0.072-0.161,0.161-0.161
		c0.089,0,0.162,0.072,0.162,0.161C7.19,16.004,7.118,16.076,7.029,16.076z M7.401,26.937c0.327,0,0.592,0.265,0.592,0.592
		c0,0.327-0.265,0.592-0.592,0.592S6.81,27.855,6.81,27.528C6.81,27.201,7.075,26.937,7.401,26.937z M6.337,20.583
		c0,0.129-0.105,0.234-0.234,0.234c-0.13,0-0.234-0.105-0.234-0.234c0-0.13,0.105-0.234,0.234-0.234
		C6.232,20.349,6.337,20.454,6.337,20.583z M5.401,25.062c0.258,0,0.467,0.209,0.467,0.467c0,0.258-0.209,0.467-0.467,0.467
		s-0.467-0.209-0.467-0.467C4.935,25.27,5.144,25.062,5.401,25.062z M5.259,22.691c0-0.155,0.126-0.281,0.281-0.281
		c0.155,0,0.281,0.126,0.281,0.281c0,0.155-0.126,0.281-0.281,0.281C5.385,22.972,5.259,22.846,5.259,22.691z"/>
</g>
</svg>
