<?xml version="1.0" encoding="utf-8"?>
<!-- Generator: Adobe Illustrator 17.0.2, SVG Export Plug-In . SVG Version: 6.00 Build 0)  -->
<!DOCTYPE svg PUBLIC "-//W3C//DTD SVG 1.0//EN" "http://www.w3.org/TR/2001/REC-SVG-20010904/DTD/svg10.dtd">
<svg version="1.0" id="Layer_1" xmlns="http://www.w3.org/2000/svg" xmlns:xlink="http://www.w3.org/1999/xlink" x="0px" y="0px"
	 width="8.319px" height="15.95px" viewBox="0 0 8.319 15.95" enable-background="new 0 0 8.319 15.95" xml:space="preserve">
<path d="M8.249,1.067C7.877,0.337,5.959,0,4.16,0S0.442,0.337,0.07,1.067C0.028,1.149,0,1.235,0,1.328
	c0,0.028,0.008,0.053,0.012,0.08C0.026,1.502,0.06,1.591,0.118,1.674l3.664,9.158v3.501c-1.552,0.049-2.76,0.388-2.76,0.803
	c0,0.449,1.404,0.813,3.136,0.813s3.136-0.364,3.136-0.813c0-0.416-1.207-0.755-2.76-0.803v-3.5L8.2,1.674l0.106-0.266
	c0.004-0.027,0.012-0.052,0.012-0.08C8.319,1.235,8.291,1.149,8.249,1.067z M4.16,10.366c0,0,0.249-4.102,1.945-4.861L4.16,10.366z
	 M6.551,4.39C5.91,3.944,4.375,3.926,4.16,3.926c-0.216,0-1.751,0.018-2.391,0.464L0.886,2.186C1.699,2.504,2.955,2.656,4.16,2.656
	c1.204,0,2.46-0.151,3.273-0.469L6.551,4.39z M7.492,1.589C6.996,1.843,5.883,2.133,4.16,2.133S1.323,1.843,0.827,1.589
	C0.632,1.49,0.523,1.396,0.523,1.328s0.109-0.162,0.304-0.261c0.497-0.253,1.61-0.544,3.333-0.544s2.836,0.291,3.333,0.544
	C7.687,1.166,7.796,1.26,7.796,1.328S7.687,1.49,7.492,1.589z"/>
</svg>
