<?xml version="1.0" encoding="utf-8"?>
<!-- Generator: Adobe Illustrator 17.0.2, SVG Export Plug-In . SVG Version: 6.00 Build 0)  -->
<!DOCTYPE svg PUBLIC "-//W3C//DTD SVG 1.0//EN" "http://www.w3.org/TR/2001/REC-SVG-20010904/DTD/svg10.dtd">
<svg version="1.0" id="Layer_1" xmlns="http://www.w3.org/2000/svg" xmlns:xlink="http://www.w3.org/1999/xlink" x="0px" y="0px"
	 width="24.388px" height="25.418px" viewBox="0 0 24.388 25.418" enable-background="new 0 0 24.388 25.418" xml:space="preserve">
<g>
	<polygon points="9.457,13.753 15.991,6.552 2.923,6.552 	"/>
	<path d="M24.237,3.033c-0.611-2.2-2.898-3.493-5.098-2.882c-2.046,0.568-3.305,2.586-2.98,4.635H0.344
		c-0.136,0-0.259,0.08-0.314,0.205c-0.055,0.125-0.032,0.27,0.06,0.37l8.764,9.659v8.684c-2.539,0.05-4.51,0.413-4.51,0.853
		c0,0.475,2.29,0.86,5.114,0.86c2.824,0,5.114-0.385,5.114-0.86c0-0.441-1.972-0.803-4.512-0.853v-8.682l7.239-7.979
		c1.022,1.035,2.559,1.503,4.057,1.087C23.555,7.52,24.848,5.233,24.237,3.033z M17.424,5.881l-0.57,0.628l-7.258,8h-0.28
		L1.12,5.474h15.212h0.878h0.584L17.424,5.881z M21.138,7.351c-1.221,0.339-2.464-0.062-3.286-0.917l0.552-0.608l1.393-1.419
		l-1.369,0.38h-1.433c-0.335-1.691,0.673-3.386,2.36-3.855c1.77-0.492,3.609,0.548,4.1,2.318C23.947,5.02,22.908,6.859,21.138,7.351
		z"/>
	<path d="M18.526,6.087c0.273,0.241,0.594,0.423,0.942,0.532l0.522-2.024L18.526,6.087z"/>
	<path d="M22.708,3.318c-0.119-0.356-0.307-0.671-0.548-0.932l-1.464,1.491L22.708,3.318z"/>
	<path d="M17.713,4.705l2.012-0.559l-2.023-0.522C17.631,3.972,17.632,4.339,17.713,4.705z"/>
	<path d="M20.765,1.597c-0.348-0.071-0.715-0.07-1.081,0.011l0.559,2.012L20.765,1.597z"/>
	<path d="M21.968,2.196c-0.273-0.241-0.594-0.423-0.942-0.532l-0.523,2.024L21.968,2.196z"/>
	<path d="M19.729,6.686c0.348,0.071,0.715,0.07,1.081-0.011l-0.559-2.012L19.729,6.686z"/>
	<path d="M17.769,3.362l2.024,0.522L18.302,2.42C18.06,2.694,17.879,3.015,17.769,3.362z"/>
	<path d="M20.769,4.137l2.023,0.522c0.071-0.348,0.07-0.715-0.011-1.081L20.769,4.137z"/>
	<path d="M22.192,5.862c0.241-0.273,0.423-0.594,0.532-0.942l-2.024-0.522L22.192,5.862z"/>
	<path d="M19.423,1.68c-0.356,0.119-0.671,0.307-0.932,0.548l1.491,1.464L19.423,1.68z"/>
	<path d="M21.071,6.603c0.356-0.119,0.671-0.308,0.932-0.548l-1.491-1.464L21.071,6.603z"/>
</g>
</svg>
