<?xml version="1.0" encoding="utf-8"?>
<!-- Generator: Adobe Illustrator 17.0.2, SVG Export Plug-In . SVG Version: 6.00 Build 0)  -->
<!DOCTYPE svg PUBLIC "-//W3C//DTD SVG 1.0//EN" "http://www.w3.org/TR/2001/REC-SVG-20010904/DTD/svg10.dtd">
<svg version="1.0" id="Layer_1" xmlns="http://www.w3.org/2000/svg" xmlns:xlink="http://www.w3.org/1999/xlink" x="0px" y="0px"
	 width="23px" height="23.495px" viewBox="0 0 23 23.495" enable-background="new 0 0 23 23.495" xml:space="preserve">
<path d="M22.883,0.822c0.125-0.148,0.152-0.356,0.07-0.533C22.871,0.113,22.694,0,22.5,0h-22C0.306,0,0.128,0.113,0.046,0.289
	c-0.082,0.177-0.054,0.385,0.071,0.533l10.858,12.884v8.25c-2.094,0.113-3.846,0.713-4.641,1.539H17.04
	c-0.83-0.863-2.707-1.476-4.926-1.548v-8.348L22.883,0.822z M13.244,10.706L19.194,1h2.231L13.244,10.706z M3.806,1l5.949,9.706
	L1.575,1H3.806z"/>
</svg>
