<?xml version="1.0" encoding="utf-8"?>
<!-- Generator: Adobe Illustrator 17.0.2, SVG Export Plug-In . SVG Version: 6.00 Build 0)  -->
<!DOCTYPE svg PUBLIC "-//W3C//DTD SVG 1.0//EN" "http://www.w3.org/TR/2001/REC-SVG-20010904/DTD/svg10.dtd">
<svg version="1.0" id="Layer_1" xmlns="http://www.w3.org/2000/svg" xmlns:xlink="http://www.w3.org/1999/xlink" x="0px" y="0px"
	 width="6.621px" height="14.563px" viewBox="0 0 6.621 14.563" enable-background="new 0 0 6.621 14.563" xml:space="preserve">
<path d="M5.448,7.287C5.449,7.288,5.45,7.292,5.451,7.293C5.45,7.29,5.448,7.287,5.447,7.283c-0.032-0.112-0.073-0.22-0.119-0.326
	c-0.004-0.009-0.006-0.019-0.01-0.028c0.002,0.007,0.005,0.013,0.007,0.02C5.319,6.938,5.315,6.927,5.31,6.916
	c0.002,0.005,0.005,0.009,0.007,0.013c-0.242-0.733-0.651-2.444,0.17-4.166H4.254l0.24-0.717l0.675,0.226l1.452,0.486L4.99,0
	L2.027,1.22l1.452,0.486l0.714,0.239L3.92,2.763H0.063c0.821,1.722,0.412,3.433,0.17,4.166C0.235,6.925,0.238,6.921,0.24,6.916
	C0.236,6.927,0.232,6.938,0.227,6.949c0.002-0.007,0.004-0.013,0.007-0.02C0.23,6.938,0.227,6.948,0.224,6.957
	c-0.047,0.106-0.087,0.215-0.12,0.327C0.103,7.287,0.101,7.29,0.1,7.293c0-0.001,0.002-0.004,0.002-0.006
	C0.101,7.292,0.099,7.296,0.098,7.301C0.036,7.523,0,7.754,0,7.995c0,1.177,0.794,1.988,1.894,2.267l0.197,0.477
	c0.067,0.184,0.131,0.293,0.293,0.293h0.123v3.056c-0.875,0.017-1.547,0.116-1.547,0.236c0,0.132,0.813,0.239,1.815,0.239
	s1.815-0.107,1.815-0.239c0-0.12-0.672-0.219-1.547-0.236v-3.056h0.098c0.162,0,0.22-0.101,0.293-0.293l0.194-0.469
	c1.116-0.272,1.924-1.087,1.924-2.275c0-0.24-0.036-0.472-0.098-0.694C5.452,7.296,5.45,7.292,5.448,7.287z M5.97,2.232L5.144,1.955
	L5.043,0.664L5.97,2.232z M2.864,1.192l1.685-0.693L3.69,1.468L2.864,1.192z M3.991,1.569L4.753,0.71l0.09,1.144L3.991,1.569z
	 M5.046,3.056c-0.191,0.509-0.287,1.01-0.323,1.485c-0.11,0.076-0.58,0.371-1.189,0.371l0.622-1.856
	C4.156,3.056,5.046,3.056,5.046,3.056z M0.505,3.056h3.316L3.21,4.88C3.065,4.854,2.915,4.81,2.763,4.739
	C1.898,4.336,1.095,4.596,0.837,4.701C0.812,4.18,0.718,3.623,0.505,3.056z"/>
</svg>
