<?xml version="1.0" encoding="utf-8"?>
<!-- Generator: Adobe Illustrator 17.0.2, SVG Export Plug-In . SVG Version: 6.00 Build 0)  -->
<!DOCTYPE svg PUBLIC "-//W3C//DTD SVG 1.0//EN" "http://www.w3.org/TR/2001/REC-SVG-20010904/DTD/svg10.dtd">
<svg version="1.0" id="Layer_1" xmlns="http://www.w3.org/2000/svg" xmlns:xlink="http://www.w3.org/1999/xlink" x="0px" y="0px"
	 width="38.869px" height="39.76px" viewBox="0 0 38.869 39.76" enable-background="new 0 0 38.869 39.76" xml:space="preserve">
<g>
	<path d="M31.736,0.012c-4.188-0.234-7.739,2.978-7.973,7.121c-0.009,0.16-0.011,0.319-0.01,0.478H1.282H0v1.282
		c0,2.734,1.323,5.373,3.724,7.432c2.022,1.733,4.734,2.988,7.727,3.59v1.956c0,1.413,1.15,2.563,2.563,2.563h0.21v11.743
		c-2.552,0.084-5.688,0.456-5.688,1.781c0,1.568,4.391,1.802,7.009,1.802s7.009-0.234,7.009-1.802c0-1.325-3.136-1.698-5.688-1.781
		V24.433h0.244c1.413,0,2.563-1.15,2.563-2.563v-1.939c3.989-0.781,7.293-2.677,9.329-5.17c0.602,0.192,1.232,0.309,1.879,0.346
		c0.145,0.008,0.289,0.012,0.432,0.012c4.003,0,7.315-3.133,7.541-7.133C39.092,3.824,35.898,0.247,31.736,0.012z M20.881,37.958
		c-0.867,0.249-2.638,0.521-5.235,0.521s-4.368-0.271-5.235-0.521c0.867-0.249,2.638-0.521,5.235-0.521S20.015,37.708,20.881,37.958
		z M28.39,13.477c-0.189,0.263-0.392,0.519-0.611,0.769c-2.06,2.344-5.431,4.049-9.388,4.601c0,0.011,0.003,0.021,0.003,0.033v2.991
		c0,0.708-0.574,1.282-1.282,1.282h-3.097c-0.708,0-1.282-0.574-1.282-1.282v-2.991c0-0.015,0.004-0.029,0.004-0.044
		C6.201,17.893,1.282,13.8,1.282,8.892c5.617,0,15.416,0,22.587,0c0.334,0,0.662,0,0.985,0c1.993,0,3.743,0,5.083,0
		C29.936,10.543,29.377,12.1,28.39,13.477z M37.897,7.931c-0.204,3.617-3.304,6.425-6.959,6.215
		c-0.452-0.025-0.893-0.097-1.321-0.21c1.028-1.53,1.601-3.246,1.601-5.044V7.611h-1.282H24.72
		c-0.001-0.141-0.005-0.282,0.003-0.424c0.197-3.491,3.088-6.226,6.581-6.226c0.125,0,0.251,0.004,0.378,0.011
		c1.76,0.099,3.375,0.878,4.549,2.193C37.405,4.479,37.997,6.172,37.897,7.931z"/>
	<path d="M30.884,5.513l0.178-3.153c-0.56,0.026-1.097,0.144-1.599,0.336L30.884,5.513z"/>
	<path d="M27.281,4.273L29.918,6l-1.42-2.815C28.038,3.482,27.627,3.849,27.281,4.273z"/>
	<path d="M26.172,6.727l3.153,0.178l-2.639-1.729C26.439,5.654,26.261,6.174,26.172,6.727z"/>
	<path d="M35.683,4.747c-0.296-0.46-0.663-0.871-1.087-1.217l-1.728,2.637L35.683,4.747z"/>
	<path d="M32.142,2.422l-0.178,3.153l1.729-2.639C33.215,2.689,32.695,2.511,32.142,2.422z"/>
	<path d="M33.356,7.133l3.153,0.178c-0.026-0.56-0.145-1.096-0.336-1.599L33.356,7.133z"/>
	<path d="M34.122,11.933c0.46-0.296,0.871-0.663,1.217-1.087l-2.637-1.728L34.122,11.933z"/>
	<path d="M31.558,12.758c0.56-0.026,1.096-0.145,1.599-0.336l-1.421-2.817L31.558,12.758z"/>
	<path d="M35.934,9.942c0.247-0.478,0.425-0.998,0.514-1.551l-3.153-0.178L35.934,9.942z"/>
	<path d="M24.388,10.601c-6.028,0-15.674,0-20.748,0c0.526,3.364,5.516,6.729,11.968,6.729c4.845,0,8.74-1.684,10.696-4.108
		c0.207-0.257,0.39-0.522,0.553-0.794c0.347-0.58,0.592-1.193,0.719-1.827c-0.603,0-1.318,0-2.115,0
		C25.119,10.601,24.76,10.601,24.388,10.601z"/>
</g>
</svg>
