<?xml version="1.0" encoding="utf-8"?>
<!-- Generator: Adobe Illustrator 17.0.2, SVG Export Plug-In . SVG Version: 6.00 Build 0)  -->
<!DOCTYPE svg PUBLIC "-//W3C//DTD SVG 1.0//EN" "http://www.w3.org/TR/2001/REC-SVG-20010904/DTD/svg10.dtd">
<svg version="1.0" id="Layer_1" xmlns="http://www.w3.org/2000/svg" xmlns:xlink="http://www.w3.org/1999/xlink" x="0px" y="0px"
	 width="8.427px" height="8.256px" viewBox="0 0 8.427 8.256" enable-background="new 0 0 8.427 8.256" xml:space="preserve">
<g>
	<path d="M6.054,0.609c-0.33,0.047-0.625,0.196-0.854,0.413l0.926,0.824L6.054,0.609z"/>
	<path d="M7.833,2.192L6.595,2.264l0.926,0.824C7.71,2.836,7.824,2.526,7.833,2.192z"/>
	<path d="M6.386,1.832L7.21,0.906c-0.252-0.19-0.562-0.304-0.896-0.312L6.386,1.832z"/>
	<path d="M6.494,3.696C6.824,3.649,7.119,3.5,7.348,3.282L6.422,2.458L6.494,3.696z"/>
	<path d="M6.234,3.711L6.165,2.518L5.393,3.434C5.635,3.601,5.923,3.703,6.234,3.711z"/>
	<path d="M4.725,2.019h1.203L5.028,1.217C4.856,1.445,4.751,1.721,4.725,2.019z"/>
	<path d="M6.58,2.004l1.238-0.072c-0.047-0.33-0.196-0.625-0.413-0.854L6.58,2.004z"/>
	<path d="M8.423,2.028C8.354,0.843,7.334-0.065,6.149,0.004C5.052,0.067,4.193,0.948,4.127,2.019h0.348
		C4.541,1.13,5.256,0.403,6.17,0.35c0.994-0.058,1.85,0.704,1.907,1.698c0.058,0.994-0.704,1.849-1.698,1.907
		C5.954,3.98,5.555,3.854,5.232,3.625L5.007,3.891c0.389,0.284,0.874,0.44,1.391,0.41C7.584,4.232,8.492,3.213,8.423,2.028z"/>
	<path d="M4.341,8.125L3.236,7.801V5.785l2.877-3.413c0.033-0.04,0.041-0.095,0.019-0.142C6.11,2.183,6.062,2.152,6.011,2.152H0.134
		c-0.052,0-0.099,0.03-0.121,0.077c-0.022,0.047-0.014,0.103,0.019,0.142l2.901,3.442v1.98L1.803,8.125
		C1.771,8.135,1.75,8.166,1.755,8.199C1.76,8.232,1.788,8.256,1.821,8.256h2.501c0.033,0,0.061-0.025,0.066-0.057
		C4.394,8.166,4.373,8.135,4.341,8.125z M0.421,2.42h0.596l1.589,2.593L0.421,2.42z"/>
</g>
</svg>
