<?xml version="1.0" encoding="utf-8"?>
<!-- Generator: Adobe Illustrator 17.0.2, SVG Export Plug-In . SVG Version: 6.00 Build 0)  -->
<!DOCTYPE svg PUBLIC "-//W3C//DTD SVG 1.0//EN" "http://www.w3.org/TR/2001/REC-SVG-20010904/DTD/svg10.dtd">
<svg version="1.0" id="Layer_1" xmlns="http://www.w3.org/2000/svg" xmlns:xlink="http://www.w3.org/1999/xlink" x="0px" y="0px"
	 width="29.928px" height="37.372px" viewBox="0 0 29.928 37.372" enable-background="new 0 0 29.928 37.372" xml:space="preserve">
<path d="M29.646,9.246c0.281-0.294,0.36-0.728,0.2-1.101c-0.16-0.374-0.528-0.617-0.934-0.617h-7.734l1.176-2.521
	c1.122,0.354,2.327-0.1,2.803-1.119c0.475-1.019,0.048-2.233-0.944-2.866l0.252-0.54c0.079-0.17,0.006-0.371-0.164-0.45
	c-0.17-0.079-0.371-0.006-0.45,0.164l-0.252,0.54c-1.123-0.354-2.327,0.1-2.803,1.119c-0.475,1.019-0.048,2.233,0.944,2.866
	L20.43,7.527H1.016c-0.407,0-0.775,0.243-0.934,0.617c-0.16,0.374-0.081,0.808,0.2,1.101l13.755,14.37v11.978h-3.821
	c-0.491,0-0.889,0.398-0.889,0.889c0,0.491,0.398,0.889,0.889,0.889h9.497c0.491,0,0.889-0.398,0.889-0.889
	c0-0.491-0.398-0.889-0.889-0.889h-3.822V23.616L29.646,9.246z M19.482,9.56l-1.316,2.821H7.581l7.383,7.713l7.383-7.713h-3.433
	L20.23,9.56h6.302L14.964,21.646L3.395,9.56H19.482z"/>
</svg>
