<?xml version="1.0" encoding="utf-8"?>
<!-- Generator: Adobe Illustrator 17.0.2, SVG Export Plug-In . SVG Version: 6.00 Build 0)  -->
<!DOCTYPE svg PUBLIC "-//W3C//DTD SVG 1.0//EN" "http://www.w3.org/TR/2001/REC-SVG-20010904/DTD/svg10.dtd">
<svg version="1.0" id="Layer_1" xmlns="http://www.w3.org/2000/svg" xmlns:xlink="http://www.w3.org/1999/xlink" x="0px" y="0px"
	 width="8.172px" height="17.893px" viewBox="0 0 8.172 17.893" enable-background="new 0 0 8.172 17.893" xml:space="preserve">
<path d="M8.094,3.584C8.09,3.575,8.085,3.565,8.081,3.556C8.068,3.511,8.053,3.458,8.036,3.399C7.891,2.878,7.59,1.794,6.689,1.133
	c-0.638-0.469-1.74-0.806-3.276-0.999L2.882,0.009C2.796-0.013,2.708,0.005,2.64,0.058c-0.068,0.052-0.11,0.133-0.111,0.22
	c0,0.008-0.022,0.853-0.689,1.535c-0.254,0.259-0.449,0.37-0.655,0.488c-0.29,0.166-0.589,0.336-0.951,0.878
	C0.024,3.511,0.01,3.923,0.002,4.143c-0.009,0.079,0.017,0.16,0.071,0.219c0.053,0.059,0.13,0.094,0.209,0.094
	C0.225,4.985,0.189,5.511,0.189,6.024c0,3.244,0.992,8.379,2.414,10.56l0.023,0.035l-0.018,0.04
	c-0.541,0.281-1.005,0.705-1.339,1.234h5.624c-0.33-0.523-0.786-0.943-1.319-1.224l-0.028-0.064l0.015-0.023
	C6.985,14.4,7.976,9.266,7.976,6.024c0-0.513-0.035-1.04-0.092-1.568c0.142-0.001,0.262-0.107,0.279-0.249
	C8.201,3.89,8.105,3.614,8.094,3.584z M7.492,3.55c0.024,0.087,0.045,0.161,0.064,0.218c0.004,0.013,0.01,0.026,0.015,0.038
	c0.006,0.02,0.013,0.049,0.02,0.085H5.994C5.988,2.247,5.092,1.334,4.306,0.85c1.139,0.223,1.742,0.512,2.05,0.738
	C7.098,2.133,7.354,3.055,7.492,3.55z M3.295,3.891c0.614-1.051,0.51-2.082,0.293-2.795c0.709,0.309,1.834,1.07,1.842,2.795H3.295z
	 M0.707,3.486C0.991,3.062,1.2,2.943,1.464,2.793c0.221-0.126,0.47-0.268,0.779-0.583c0.398-0.406,0.608-0.857,0.72-1.221
	c0.255,0.636,0.488,1.771-0.345,2.903H0.584C0.6,3.758,0.634,3.603,0.707,3.486z M7.414,7.415H0.751
	c-0.035-0.49-0.056-0.959-0.056-1.391c0-0.511,0.03-1.037,0.089-1.566h1.365l0.005,0.001l0-0.001h1.954l0,0.001l0.005-0.001H6.02
	l0,0.001l0.005-0.001h1.356C7.44,4.986,7.47,5.511,7.47,6.024C7.47,6.455,7.45,6.925,7.414,7.415z"/>
</svg>
