<?xml version="1.0" encoding="utf-8"?>
<!-- Generator: Adobe Illustrator 17.0.2, SVG Export Plug-In . SVG Version: 6.00 Build 0)  -->
<!DOCTYPE svg PUBLIC "-//W3C//DTD SVG 1.0//EN" "http://www.w3.org/TR/2001/REC-SVG-20010904/DTD/svg10.dtd">
<svg version="1.0" id="Layer_1" xmlns="http://www.w3.org/2000/svg" xmlns:xlink="http://www.w3.org/1999/xlink" x="0px" y="0px"
	 width="15.375px" height="16.274px" viewBox="0 0 15.375 16.274" enable-background="new 0 0 15.375 16.274" xml:space="preserve">
<g>
	<g>
		<path d="M5.003,7.939c-0.167-0.273-0.37-0.559-0.66-0.868C0.259,3.197,3.036,1.324,3.036,1.324
			c-0.439,1.861,0.05,2.33,2.027,4.616C5.456,6.395,5.722,6.804,5.91,7.179c0.732-0.513,1.502-0.832,2.246-0.972
			C8.062,5.555,7.879,4.883,7.589,4.218C6.37,1.426,3.826-0.158,1.908,0.68s-2.484,3.78-1.265,6.571
			c0.62,1.419,1.582,2.52,2.63,3.156c0.266-0.611,0.628-1.219,1.094-1.789C4.567,8.372,4.784,8.152,5.003,7.939z"/>
		<path d="M11.433,7.098C10.732,6.526,9.792,6.381,8.8,6.566C8.056,6.705,7.285,7.024,6.554,7.538
			c-0.313,0.22-0.615,0.478-0.906,0.76c-0.219,0.213-0.436,0.433-0.637,0.68c-0.465,0.57-0.827,1.178-1.094,1.789
			c-0.836,1.918-0.685,3.878,0.545,4.881c1.622,1.323,4.498,0.481,6.423-1.88S13.055,8.421,11.433,7.098z M8.199,12.308
			c-1.406,3.492-3.493,2.194-3.493,2.194s1.354-0.056,2.158-2.317c0.139-0.475,0.291-0.879,0.448-1.252
			c0.429-1.02,0.913-1.686,1.396-2.1c1.346-1.156,2.669-0.439,2.669-0.439C9.52,8.856,9.328,9.505,8.199,12.308z"/>
	</g>
	<path d="M10.512,0.393c-1.139,0.836-1.17,2.73-0.068,4.231c1.101,1.501,2.918,2.041,4.057,1.206c1.139-0.836,1.17-2.73,0.068-4.231
		C13.467,0.097,11.651-0.442,10.512,0.393z M13.833,5.531c0,0,0.227-0.848-1.029-1.64C9.737,2.21,11.31,0.597,11.31,0.597
		c-0.071,1.212,0.297,1.416,1.828,2.48C15.046,4.403,13.833,5.531,13.833,5.531z"/>
</g>
</svg>
