<?xml version="1.0" encoding="utf-8"?>
<!-- Generator: Adobe Illustrator 17.0.2, SVG Export Plug-In . SVG Version: 6.00 Build 0)  -->
<!DOCTYPE svg PUBLIC "-//W3C//DTD SVG 1.0//EN" "http://www.w3.org/TR/2001/REC-SVG-20010904/DTD/svg10.dtd">
<svg version="1.0" id="Layer_1" xmlns="http://www.w3.org/2000/svg" xmlns:xlink="http://www.w3.org/1999/xlink" x="0px" y="0px"
	 width="23.164px" height="21.468px" viewBox="0 0 23.164 21.468" enable-background="new 0 0 23.164 21.468" xml:space="preserve">
<g>
	<path d="M17.979,16.73c2.398-0.144,5.064-1.24,5.182-3.943c0.048-1.095-0.333-2.029-1.073-2.628c-0.57-0.461-1.311-0.71-2.206-0.74
		c0.005-0.236,0.007-0.475,0.007-0.719c0-0.414-0.336-0.75-0.75-0.75H0.75C0.336,7.951,0,8.287,0,8.701
		c0,3.956,0.362,7.929,4.221,9.906H2.104h-0.75v0.75c0,0.911,0.741,1.653,1.653,1.653h2.495c0.236,0.283,0.588,0.458,0.978,0.458
		h6.707c0.391,0,0.743-0.175,0.978-0.458h2.495c0.911,0,1.653-0.741,1.653-1.653v-0.75h-0.75h-1.949
		C16.567,18.122,17.362,17.511,17.979,16.73z M16.661,20.26h-2.95c-0.041,0.258-0.254,0.458-0.523,0.458H6.48
		c-0.269,0-0.482-0.2-0.523-0.458H3.006c-0.499,0-0.903-0.404-0.903-0.903h15.46C17.564,19.856,17.159,20.26,16.661,20.26z
		 M13.627,18.594H6.261C1.502,17.257,0.75,13.67,0.75,8.701h18.388c0,0.516-0.011,1.014-0.031,1.5
		c0.177-0.02,0.378-0.034,0.59-0.034c0.625,0,1.357,0.121,1.918,0.575c0.39,0.316,0.844,0.92,0.796,2.013
		c-0.108,2.494-3.013,3.205-4.82,3.24C16.761,17.177,15.512,18.065,13.627,18.594z"/>
	<path d="M21.058,12.697c0.027-0.639-0.215-0.837-0.294-0.901c-0.257-0.21-0.667-0.274-1.06-0.274c-0.255,0-0.502,0.027-0.694,0.058
		c-0.113,1.1-0.318,2.1-0.664,2.988C19.398,14.422,21.002,13.988,21.058,12.697z M19.45,13.528c0.093-0.394,0.171-0.811,0.232-1.255
		c0.007,0,0.015,0,0.022,0c0.356,0,0.535,0.066,0.583,0.103c0,0.007,0.03,0.091,0.022,0.29
		C20.291,13.074,19.904,13.347,19.45,13.528z"/>
	<path d="M9.505,5.242c-0.05,0.267-0.333,0.509-0.428,0.573c-0.299,0.199-0.418,0.584-0.28,0.915
		c0.118,0.284,0.392,0.463,0.69,0.463c0.049,0,0.1-0.005,0.15-0.015c0.206-0.042,2.03-0.45,2.584-1.735
		c0.192-0.445,0.304-1.166-0.256-2.073c-0.888-1.439-0.872-1.449-0.056-1.997C12.2,1.178,12.317,0.807,12.19,0.48
		C12.078,0.188,11.797,0,11.491,0c-0.036,0-0.072,0.003-0.109,0.008c-0.234,0.034-2.299,0.376-2.855,1.839
		c-0.328,0.864-0.05,1.836,0.828,2.892C9.546,5.019,9.515,5.186,9.505,5.242z M11.491,0.75c-1.295,0.869-1.176,1.374-0.164,3.014
		c1.261,2.043-1.841,2.679-1.841,2.679s1.375-0.875,0.466-2.159C7.477,1.338,11.491,0.75,11.491,0.75z"/>
</g>
</svg>
