<?xml version="1.0" encoding="utf-8"?>
<!-- Generator: Adobe Illustrator 17.0.2, SVG Export Plug-In . SVG Version: 6.00 Build 0)  -->
<!DOCTYPE svg PUBLIC "-//W3C//DTD SVG 1.0//EN" "http://www.w3.org/TR/2001/REC-SVG-20010904/DTD/svg10.dtd">
<svg version="1.0" id="Layer_1" xmlns="http://www.w3.org/2000/svg" xmlns:xlink="http://www.w3.org/1999/xlink" x="0px" y="0px"
	 width="33.227px" height="29.958px" viewBox="0 0 33.227 29.958" enable-background="new 0 0 33.227 29.958" xml:space="preserve">
<g>
	<path d="M7.903,23.629c-3.235-2.532-2.954-7.173-2.954-7.173H3.328c-0.092,0.525-0.154,1.069-0.154,1.648
		c0,6.126,5.334,9.209,11.914,9.209s11.914-3.084,11.914-9.209c0-0.58-0.062-1.123-0.154-1.648H6.424
		C6.424,16.456,6.075,20.042,7.903,23.629z"/>
	<path d="M32.939,15.176c-0.774-1.16-1.125-6.329-1.125-6.329s0.598-6.716-3.622-5.978c-3.217,0.563-4.919,0.241-5.548,0.056
		c-0.088-0.05-0.185-0.086-0.291-0.102L4.023,0.01C3.635-0.05,3.257,0.167,3.111,0.531c-0.145,0.365-0.02,0.782,0.303,1.006
		l3.692,2.561v3.627C2.635,9.638,0,13.304,0,18.104c0,7.201,5.922,11.854,15.087,11.854s15.087-4.653,15.087-11.854
		c0-4.766-2.599-8.411-7.011-10.334c1.782-1.352,5.564-3.737,6.47-0.435c1.196,4.36,1.125,6.329,2.672,9.001
		C32.728,16.688,33.712,16.337,32.939,15.176z M8.794,7.033V3.657c0-0.276-0.136-0.536-0.363-0.693L7.376,2.232l14.005,2.149v2.651
		h-0.28H9.073H8.794z M28.487,18.104c0,4.914-3.52,10.166-13.399,10.166c-9.88,0-13.4-5.252-13.4-10.166
		c0-3.774,2.08-7.743,7.516-9.384h11.767C26.407,10.361,28.487,14.331,28.487,18.104z"/>
</g>
</svg>
