<?xml version="1.0" encoding="utf-8"?>
<!-- Generator: Adobe Illustrator 17.0.2, SVG Export Plug-In . SVG Version: 6.00 Build 0)  -->
<!DOCTYPE svg PUBLIC "-//W3C//DTD SVG 1.0//EN" "http://www.w3.org/TR/2001/REC-SVG-20010904/DTD/svg10.dtd">
<svg version="1.0" id="Layer_1" xmlns="http://www.w3.org/2000/svg" xmlns:xlink="http://www.w3.org/1999/xlink" x="0px" y="0px"
	 width="31.932px" height="39.26px" viewBox="0 0 31.932 39.26" enable-background="new 0 0 31.932 39.26" xml:space="preserve">
<g>
	<path d="M31.672,0.307C31.489,0.111,31.234,0,30.966,0H0.965C0.698,0,0.442,0.111,0.26,0.307s-0.276,0.458-0.257,0.725
		l2.574,37.329c0.035,0.506,0.456,0.899,0.963,0.899h24.852c0.507,0,0.928-0.393,0.963-0.899l2.574-37.329
		C31.948,0.765,31.854,0.502,31.672,0.307z M27.791,32.979H4.141L2,1.931h27.932L27.791,32.979z"/>
	<path d="M5.717,31.697h20.499L27.85,9.654h-2.539c-0.008-0.217-0.115-0.427-0.319-0.541L18.53,5.505
		c-0.15-0.084-0.327-0.104-0.489-0.057c-0.164,0.047-0.304,0.157-0.387,0.305l-2.179,3.901H4.082L5.717,31.697z M23.803,9.924
		l-2.981,5.339l-5.339-2.982l2.982-5.339L23.803,9.924z M23.785,23.803l-2.9,5.383l-5.383-2.899l2.899-5.383L23.785,23.803z
		 M7.906,16.651l5.8-1.935l1.936,5.801l-5.8,1.935L7.906,16.651z"/>
</g>
</svg>
