<?xml version="1.0" encoding="utf-8"?>
<!-- Generator: Adobe Illustrator 17.0.2, SVG Export Plug-In . SVG Version: 6.00 Build 0)  -->
<!DOCTYPE svg PUBLIC "-//W3C//DTD SVG 1.0//EN" "http://www.w3.org/TR/2001/REC-SVG-20010904/DTD/svg10.dtd">
<svg version="1.0" id="Layer_1" xmlns="http://www.w3.org/2000/svg" xmlns:xlink="http://www.w3.org/1999/xlink" x="0px" y="0px"
	 width="13.59px" height="19.508px" viewBox="0 0 13.59 19.508" enable-background="new 0 0 13.59 19.508" xml:space="preserve">
<g>
	<path d="M12.079,1.506h-0.33c-0.082-0.003-0.235-0.051-0.314-0.28C11.299,0.516,10.676,0,9.952,0H3.504
		C2.792,0,2.159,0.512,2.043,1.14C1.936,1.471,1.768,1.504,1.738,1.506H1.51C0.677,1.506,0,2.183,0,3.016v1.237
		c0,0.31,0.089,0.888,0.18,1.454c0.021,0.134,0.039,0.24,0.046,0.295L1.821,18.45c0.077,0.603,0.594,1.058,1.202,1.058h7.545
		c0.608,0,1.124-0.455,1.202-1.058l1.595-12.448c0.007-0.055,0.024-0.161,0.046-0.296c0.091-0.565,0.18-1.143,0.18-1.453V3.016
		C13.59,2.183,12.912,1.506,12.079,1.506z M1.51,2.334l0.247-0.001c0.183-0.008,0.802-0.101,1.086-0.989
		c0.055-0.289,0.345-0.516,0.661-0.516h6.448c0.327,0,0.608,0.233,0.683,0.606c0.266,0.803,0.893,0.892,1.096,0.9h0.348
		c0.377,0,0.683,0.306,0.683,0.682v1.191H0.828V3.016C0.828,2.64,1.134,2.334,1.51,2.334z M12.543,5.897l-1.595,12.448
		c-0.024,0.192-0.188,0.335-0.38,0.335H3.023c-0.192,0-0.356-0.144-0.38-0.335L1.047,5.897c-0.008-0.06-0.026-0.175-0.05-0.321
		C0.974,5.431,0.943,5.234,0.913,5.034h11.763c-0.029,0.199-0.06,0.396-0.084,0.541C12.569,5.722,12.55,5.837,12.543,5.897z"/>
	<path d="M5.897,2.982h1.795c0.376,0,0.681-0.306,0.681-0.682c0-0.375-0.306-0.681-0.681-0.681H5.897
		c-0.376,0-0.681,0.306-0.681,0.681C5.216,2.676,5.522,2.982,5.897,2.982z"/>
	<path d="M8.425,7.225C8.118,7.108,7.793,7.048,7.459,7.048c-1.47,0-2.89,1.124-3.531,2.797c-0.381,0.994-0.435,2.05-0.152,2.972
		c0.294,0.958,0.914,1.661,1.746,1.979c0.308,0.118,0.634,0.178,0.968,0.178c1.47,0,2.889-1.125,3.53-2.798
		C10.82,10.09,10.105,7.869,8.425,7.225z M6.289,8.637C5.763,9.4,5.747,10.524,6.233,11.951c0.328,1.211-0.212,1.592-0.234,1.607
		l-0.504,0.324c-0.435-0.271-0.765-0.722-0.943-1.302c-0.231-0.751-0.183-1.618,0.134-2.445c0.492-1.282,1.557-2.194,2.627-2.27
		C6.986,7.981,6.586,8.205,6.289,8.637z M9.262,11.887c-0.425,1.107-1.276,1.938-2.19,2.195c0.183-0.098,0.371-0.237,0.531-0.438
		c0.424-0.528,0.528-1.294,0.309-2.277l-0.051-0.227C7.468,9.376,7.417,9.148,8.187,8.442L8.49,8.164
		C9.486,8.815,9.838,10.384,9.262,11.887z"/>
</g>
</svg>
