<?xml version="1.0" encoding="utf-8"?>
<!-- Generator: Adobe Illustrator 17.0.2, SVG Export Plug-In . SVG Version: 6.00 Build 0)  -->
<!DOCTYPE svg PUBLIC "-//W3C//DTD SVG 1.0//EN" "http://www.w3.org/TR/2001/REC-SVG-20010904/DTD/svg10.dtd">
<svg version="1.0" id="Layer_1" xmlns="http://www.w3.org/2000/svg" xmlns:xlink="http://www.w3.org/1999/xlink" x="0px" y="0px"
	 width="12.292px" height="14.617px" viewBox="0 0 12.292 14.617" enable-background="new 0 0 12.292 14.617" xml:space="preserve">
<path d="M11.964,0H0.328C0.147,0,0,0.147,0,0.328v2.335c0,0.093,0.04,0.182,0.109,0.245c0.069,0.061,0.16,0.091,0.255,0.081
	l5.003-0.564v3.958c0,0.072,0.059,0.131,0.131,0.131h0.063C5.506,6.589,5.445,6.681,5.397,6.86C5.383,6.911,5.375,6.977,5.37,7.038
	L5.366,7.085L5.365,7.108c0.003,0.051-0.008-0.099,0.007,0.118L5.373,7.23l0.005,0.031C5.367,7.242,5.42,7.494,5.508,7.62
	C5.72,7.893,5.861,7.915,6.004,7.995C6.025,8.004,6.04,8.012,6.061,8.021C5.959,8.066,5.849,8.118,5.715,8.212L5.627,8.286
	C5.593,8.32,5.556,8.365,5.524,8.407C5.488,8.455,5.446,8.545,5.417,8.621C5.403,8.664,5.392,8.723,5.383,8.776l-0.01,0.083
	L5.371,8.9c0.003,0.054-0.008-0.091,0.007,0.125l0.001,0.006l0.007,0.045c0.003,0.015,0,0.017,0.021,0.095
	C5.434,9.28,5.518,9.434,5.54,9.448c0.075,0.097,0.134,0.139,0.194,0.185C5.884,9.73,6.01,9.782,6.128,9.83
	c-0.136,0.058-0.283,0.115-0.476,0.277c-0.064,0.061-0.143,0.147-0.208,0.324C5.429,10.47,5.418,10.53,5.41,10.582l-0.009,0.082
	l-0.003,0.04c0.003,0.048-0.008-0.08,0.007,0.113l0.001,0.006l0.008,0.047l0.004,0.023c0.004,0.021,0.014,0.055,0.022,0.082
	c0.098,0.274,0.169,0.287,0.23,0.357c0.063,0.054,0.117,0.085,0.169,0.115c0.168,0.088,0.311,0.137,0.441,0.19
	c-0.014,0.007-0.024,0.014-0.038,0.02c-0.152,0.075-0.307,0.128-0.493,0.266c-0.078,0.067-0.241,0.18-0.285,0.518l-0.005,0.059
	l-0.001,0.015c-0.002-0.011,0.011,0.154,0.006,0.086l0.002,0.01l0.007,0.039c-0.003,0.001,0.024,0.114,0.059,0.186
	c0.041,0.09,0.067,0.114,0.091,0.143c0.026,0.03,0.054,0.062,0.075,0.077c0.185,0.147,0.325,0.185,0.458,0.242
	c0.131,0.051,0.251,0.097,0.338,0.149c0.003,0.001,0.002,0.002,0.004,0.003c-0.018,0.016-0.032,0.029-0.057,0.049
	c-0.083,0.062-0.182,0.149-0.26,0.25c-0.04,0.047-0.072,0.113-0.103,0.166l-0.022,0.041l-0.016,0.041l-0.001,0.002l-0.001,0.004
	l-0.002,0.008L6.031,14.03c-0.007,0.022-0.01,0.045-0.014,0.066c-0.007,0.044-0.01,0.087-0.011,0.128
	c0.005,0.055,0.008,0.105,0.019,0.15c0.04,0.18,0.105,0.242,0.105,0.242s0.124-0.379,0.517-0.549
	c0.039-0.028,0.094-0.063,0.154-0.121c0.037-0.044,0.059-0.048,0.107-0.131c0.023-0.041,0.044-0.088,0.061-0.136l0.023-0.072
	l0.005-0.029l0.009-0.058l0.002-0.015l0.001-0.007l0.001-0.004c-0.001,0.015,0.01-0.137,0.005-0.078l-0.007-0.082
	c-0.012-0.12-0.048-0.198-0.09-0.274c-0.079-0.122-0.157-0.183-0.225-0.23c-0.138-0.094-0.268-0.148-0.396-0.208
	c-0.057-0.026-0.117-0.055-0.172-0.085c0.083-0.038,0.176-0.076,0.277-0.115c0.081-0.032,0.166-0.067,0.261-0.119
	c0.047-0.026,0.098-0.057,0.155-0.106c0.025-0.017,0.06-0.057,0.091-0.093c0.017-0.023,0.027-0.028,0.05-0.067
	c0.024-0.042,0.047-0.089,0.065-0.139c0.044-0.132,0.035-0.135,0.042-0.167l0.004-0.022c0.013-0.18,0.003-0.06,0.006-0.105
	l-0.001-0.018L7.07,11.549c-0.005-0.048-0.012-0.097-0.022-0.143c-0.021-0.088-0.054-0.147-0.089-0.214
	c-0.032-0.05-0.062-0.083-0.095-0.122c-0.119-0.117-0.216-0.168-0.309-0.219c-0.084-0.043-0.165-0.08-0.241-0.115
	c0.039-0.016,0.076-0.033,0.116-0.049c0.092-0.041,0.184-0.077,0.296-0.148c0.054-0.034,0.115-0.075,0.186-0.155
	c0.037-0.049,0.064-0.06,0.126-0.195c0.025-0.057,0.045-0.119,0.059-0.179l0.01-0.056c0.04-0.248-0.034-0.469-0.112-0.599
	C6.92,9.243,6.849,9.18,6.792,9.137C6.676,9.051,6.577,9.002,6.487,8.961C6.463,8.95,6.443,8.941,6.419,8.93
	c0.01-0.004,0.019-0.008,0.029-0.012c0.084-0.037,0.168-0.071,0.267-0.132c0.046-0.025,0.103-0.069,0.158-0.118
	c0.061-0.076,0.123-0.091,0.219-0.353C7.135,8.169,7.121,8.189,7.13,8.153l0.003-0.02l0.009-0.113L7.141,8.001L7.138,7.963
	c-0.004-0.05-0.011-0.101-0.021-0.15C7.08,7.63,6.991,7.5,6.937,7.44C6.811,7.298,6.722,7.258,6.639,7.21
	c-0.15-0.078-0.273-0.124-0.385-0.173C6.35,6.945,6.453,6.84,6.537,6.714c0.044-0.063,0.069-0.133,0.102-0.2h0.154
	c0.072,0,0.131-0.059,0.131-0.131V2.425l5.003,0.564c0.012,0.001,0.025,0.002,0.037,0.002c0.08,0,0.158-0.029,0.218-0.083
	c0.07-0.062,0.109-0.151,0.109-0.245V0.328C12.292,0.147,12.145,0,11.964,0z M6,10.558C5.994,10.555,5.992,10.546,6,10.558L6,10.558
	z M11.521,0.703H0.771c-0.081,0-0.146-0.065-0.146-0.146c0-0.081,0.065-0.146,0.146-0.146h10.75c0.081,0,0.146,0.065,0.146,0.146
	C11.667,0.638,11.601,0.703,11.521,0.703z"/>
</svg>
