<?xml version="1.0" encoding="utf-8"?>
<!-- Generator: Adobe Illustrator 17.0.2, SVG Export Plug-In . SVG Version: 6.00 Build 0)  -->
<!DOCTYPE svg PUBLIC "-//W3C//DTD SVG 1.0//EN" "http://www.w3.org/TR/2001/REC-SVG-20010904/DTD/svg10.dtd">
<svg version="1.0" id="Layer_1" xmlns="http://www.w3.org/2000/svg" xmlns:xlink="http://www.w3.org/1999/xlink" x="0px" y="0px"
	 width="12.292px" height="15.651px" viewBox="0 0 12.292 15.651" enable-background="new 0 0 12.292 15.651" xml:space="preserve">
<g>
	<path d="M7.106,8.997C7.1,8.947,7.09,8.896,7.076,8.847C7.022,8.664,6.895,8.534,6.817,8.474c-0.181-0.141-0.308-0.182-0.428-0.23
		C6.174,8.166,5.995,8.119,5.837,8.07c0.137-0.091,0.287-0.197,0.405-0.321c0.235-0.234,0.36-0.502,0.387-0.757
		c0.02-0.187,0.009-0.204,0.013-0.219L5.659,6.737C5.657,6.722,5.66,6.836,5.647,6.889c-0.001-0.016-0.015,0.067-0.11,0.147
		C5.435,7.142,5.259,7.218,4.904,7.487C4.815,7.569,4.692,7.668,4.605,7.894c-0.02,0.051-0.031,0.117-0.039,0.178L4.561,8.119
		L4.559,8.142C4.564,8.194,4.547,8.044,4.57,8.26l0.001,0.004l0.006,0.032c-0.015-0.02,0.061,0.233,0.188,0.359
		C5.069,8.927,5.272,8.95,5.477,9.029c0.029,0.009,0.056,0.017,0.084,0.026C5.413,9.1,5.255,9.153,5.061,9.247L4.935,9.321
		C4.887,9.354,4.834,9.399,4.787,9.442C4.736,9.49,4.675,9.58,4.635,9.655C4.614,9.698,4.598,9.757,4.586,9.81L4.571,9.895
		L4.567,9.936c0.005,0.053-0.012-0.092,0.01,0.125l0.001,0.006l0.01,0.045c0.005,0.015,0,0.017,0.031,0.095
		c0.038,0.109,0.159,0.262,0.191,0.277c0.107,0.097,0.192,0.139,0.278,0.185c0.216,0.096,0.397,0.149,0.567,0.197
		c-0.196,0.058-0.406,0.115-0.683,0.276c-0.091,0.061-0.205,0.147-0.299,0.324c-0.021,0.04-0.036,0.1-0.048,0.152L4.612,11.7
		l-0.004,0.04c0.005,0.048-0.011-0.08,0.01,0.113l0.001,0.006l0.011,0.047l0.006,0.023c0.007,0.02,0.02,0.055,0.032,0.082
		c0.141,0.274,0.243,0.288,0.33,0.357c0.09,0.054,0.167,0.085,0.242,0.115c0.241,0.088,0.446,0.137,0.633,0.19
		c-0.019,0.006-0.034,0.013-0.054,0.02c-0.219,0.075-0.441,0.128-0.708,0.266C5,13.025,4.765,13.138,4.702,13.477l-0.007,0.059
		l-0.001,0.015c-0.002-0.011,0.016,0.154,0.009,0.086l0.002,0.01l0.009,0.039c-0.005,0,0.034,0.113,0.084,0.186
		c0.058,0.09,0.097,0.114,0.131,0.143c0.037,0.03,0.078,0.062,0.108,0.077c0.266,0.147,0.466,0.185,0.658,0.242
		c0.188,0.051,0.361,0.097,0.485,0.149c0.004,0.001,0.003,0.002,0.006,0.003c-0.026,0.016-0.046,0.029-0.082,0.049
		c-0.119,0.062-0.262,0.15-0.374,0.25c-0.057,0.047-0.103,0.113-0.148,0.166L5.55,14.992l-0.023,0.041l-0.001,0.002l-0.002,0.004
		l-0.003,0.008l-0.006,0.017c-0.009,0.021-0.014,0.044-0.02,0.066c-0.01,0.044-0.015,0.087-0.015,0.128
		c0.008,0.055,0.012,0.105,0.027,0.15c0.058,0.18,0.15,0.242,0.15,0.242s0.178-0.379,0.743-0.549
		c0.056-0.028,0.135-0.063,0.222-0.121c0.052-0.043,0.084-0.048,0.153-0.131c0.033-0.041,0.063-0.088,0.087-0.136l0.032-0.072
		l0.007-0.029l0.013-0.058l0.003-0.015l0.002-0.007l0.001-0.004c-0.001,0.014,0.014-0.137,0.007-0.078l-0.01-0.082
		c-0.017-0.119-0.07-0.197-0.129-0.274c-0.113-0.122-0.225-0.183-0.323-0.23c-0.199-0.093-0.385-0.148-0.569-0.208
		c-0.083-0.026-0.169-0.055-0.247-0.084c0.119-0.038,0.253-0.075,0.398-0.116c0.116-0.032,0.239-0.067,0.375-0.119
		c0.068-0.026,0.14-0.057,0.222-0.106c0.036-0.017,0.086-0.056,0.13-0.093c0.025-0.023,0.039-0.028,0.072-0.067
		c0.035-0.041,0.067-0.089,0.093-0.139C7.002,12.8,6.989,12.797,7,12.765l0.005-0.022c0.018-0.18,0.004-0.06,0.008-0.105
		L7.011,12.62l-0.004-0.036c-0.006-0.048-0.017-0.097-0.032-0.143c-0.03-0.088-0.078-0.147-0.128-0.214
		c-0.046-0.05-0.089-0.083-0.137-0.122c-0.17-0.118-0.31-0.168-0.443-0.219c-0.121-0.043-0.238-0.08-0.348-0.115
		c0.055-0.016,0.112-0.032,0.167-0.048c0.132-0.041,0.264-0.077,0.425-0.148c0.078-0.034,0.165-0.075,0.268-0.155
		c0.053-0.049,0.092-0.06,0.181-0.195c0.036-0.056,0.065-0.118,0.085-0.178l0.014-0.056c0.058-0.249-0.048-0.47-0.161-0.599
		c-0.106-0.113-0.208-0.177-0.29-0.22c-0.166-0.086-0.309-0.135-0.438-0.176c-0.034-0.011-0.064-0.02-0.098-0.031
		C6.087,9.961,6.1,9.957,6.115,9.953c0.121-0.037,0.241-0.072,0.383-0.132c0.066-0.025,0.148-0.069,0.227-0.118
		C6.813,9.628,6.902,9.612,7.04,9.35c0.062-0.146,0.042-0.127,0.054-0.163l0.004-0.02L7.11,9.054v-0.02L7.106,8.997z M5.471,11.593
		C5.462,11.59,5.46,11.581,5.471,11.593L5.471,11.593z"/>
	<path d="M11.964,0H0.328C0.147,0,0,0.147,0,0.328v2.335c0,0.093,0.04,0.182,0.109,0.245c0.069,0.061,0.16,0.091,0.255,0.081
		l5.003-0.564v3.958c0,0.072,0.059,0.131,0.131,0.131h1.295c0.072,0,0.131-0.059,0.131-0.131V2.425l5.003,0.564
		c0.012,0.001,0.025,0.002,0.037,0.002c0.08,0,0.158-0.029,0.218-0.083c0.07-0.062,0.109-0.151,0.109-0.245V0.328
		C12.292,0.147,12.145,0,11.964,0z M11.636,2.296L6.183,1.682C6.17,1.681,6.158,1.68,6.146,1.68S6.121,1.681,6.109,1.682
		L0.656,2.296v-1.64h10.981v1.64H11.636z"/>
</g>
</svg>
