<?xml version="1.0" encoding="utf-8"?>
<!-- Generator: Adobe Illustrator 17.0.2, SVG Export Plug-In . SVG Version: 6.00 Build 0)  -->
<!DOCTYPE svg PUBLIC "-//W3C//DTD SVG 1.0//EN" "http://www.w3.org/TR/2001/REC-SVG-20010904/DTD/svg10.dtd">
<svg version="1.0" id="Layer_1" xmlns="http://www.w3.org/2000/svg" xmlns:xlink="http://www.w3.org/1999/xlink" x="0px" y="0px"
	 width="26.574px" height="24.662px" viewBox="0 0 26.574 24.662" enable-background="new 0 0 26.574 24.662" xml:space="preserve">
<g>
	<path d="M9.668,6.533c-2.604,0-4.714,2.47-4.714,5.516c0,3.046,2.111,5.516,4.714,5.516c2.604,0,4.714-2.47,4.714-5.516
		C14.383,9.002,12.272,6.533,9.668,6.533z M9.003,16.523c0,0,1.261-0.899,0.26-3.159c-2.727-5.184,1.37-5.79,1.37-5.79
		c-1.427,1.53-1.103,2.155,0.013,5.041C12.035,16.21,9.003,16.523,9.003,16.523z"/>
	<path d="M20.637,5.829c-0.447,0-0.881,0.059-1.3,0.162V1.08c0-0.596-0.485-1.08-1.08-1.08H1.08C0.485,0,0,0.485,0,1.08v22.501
		c0,0.596,0.485,1.08,1.08,1.08h17.176c0.596,0,1.08-0.485,1.08-1.08v-4.911c0.419,0.103,0.853,0.162,1.3,0.162
		c3.274,0,5.937-2.917,5.937-6.502S23.911,5.829,20.637,5.829z M17.98,23.305H1.357V1.357H17.98v5.168V9.41v5.842v2.885V23.305z
		 M20.637,16.572c-0.458,0-0.895-0.102-1.3-0.279V8.37c0.405-0.178,0.842-0.279,1.3-0.279c2.027,0,3.675,1.902,3.675,4.241
		S22.664,16.572,20.637,16.572z"/>
</g>
</svg>
