<?xml version="1.0" encoding="utf-8"?>
<!-- Generator: Adobe Illustrator 17.0.2, SVG Export Plug-In . SVG Version: 6.00 Build 0)  -->
<!DOCTYPE svg PUBLIC "-//W3C//DTD SVG 1.0//EN" "http://www.w3.org/TR/2001/REC-SVG-20010904/DTD/svg10.dtd">
<svg version="1.0" id="Layer_1" xmlns="http://www.w3.org/2000/svg" xmlns:xlink="http://www.w3.org/1999/xlink" x="0px" y="0px"
	 width="13.723px" height="12.418px" viewBox="0 0 13.723 12.418" enable-background="new 0 0 13.723 12.418" xml:space="preserve">
<g>
	<g>
		<path d="M9.569,12.418H0.893C0.401,12.418,0,12.017,0,11.525V0.893C0,0.401,0.401,0,0.893,0h8.676
			c0.492,0,0.893,0.401,0.893,0.893v1.343c1.908,0.434,3.261,2.02,3.261,3.883s-1.353,3.449-3.261,3.883v1.523
			C10.462,12.017,10.061,12.418,9.569,12.418z M0.893,0.766c-0.07,0-0.128,0.057-0.128,0.128v10.632c0,0.07,0.057,0.128,0.128,0.128
			h8.676c0.07,0,0.128-0.057,0.128-0.128V9.358l0.325-0.05c1.701-0.261,2.936-1.602,2.936-3.188s-1.235-2.927-2.936-3.189
			l-0.325-0.05V0.893c0-0.07-0.057-0.128-0.128-0.128L0.893,0.766L0.893,0.766z M9.696,8.611V3.628l0.475,0.118
			c1.19,0.296,2.021,1.271,2.021,2.373c0,1.101-0.831,2.077-2.021,2.373L9.696,8.611z M10.462,4.667v2.904
			c0.586-0.304,0.965-0.852,0.965-1.452S11.048,4.971,10.462,4.667z"/>
	</g>
	<path d="M6.387,4.017c-0.402,0-0.763,0.17-1.021,0.439c-0.257-0.27-0.618-0.439-1.021-0.439c-0.781,0-1.414,0.633-1.414,1.414
		c0,0.271,0.08,0.522,0.213,0.737c0.031,0.05,0.065,0.096,0.101,0.141l2.121,2.093l2.121-2.093c0.036-0.045,0.071-0.091,0.101-0.141
		C7.72,5.953,7.801,5.702,7.801,5.431C7.801,4.65,7.168,4.017,6.387,4.017z"/>
</g>
</svg>
