<?xml version="1.0" encoding="utf-8"?>
<!-- Generator: Adobe Illustrator 17.0.2, SVG Export Plug-In . SVG Version: 6.00 Build 0)  -->
<!DOCTYPE svg PUBLIC "-//W3C//DTD SVG 1.0//EN" "http://www.w3.org/TR/2001/REC-SVG-20010904/DTD/svg10.dtd">
<svg version="1.0" id="Layer_1" xmlns="http://www.w3.org/2000/svg" xmlns:xlink="http://www.w3.org/1999/xlink" x="0px" y="0px"
	 width="5.417px" height="15.631px" viewBox="0 0 5.417 15.631" enable-background="new 0 0 5.417 15.631" xml:space="preserve">
<g>
	<ellipse fill="none" cx="2.708" cy="9.889" rx="1.896" ry="1.411"/>
	<path fill="none" d="M3.647,2.864H2.681H1.769C1.706,3.147,1.669,3.415,1.653,3.647h2.11C3.748,3.415,3.711,3.147,3.647,2.864z"/>
	<path d="M0.271,15.346c0,0-0.017,0.237,0.15,0.275c0.192,0.014,4.382,0.014,4.574,0c0.167-0.038,0.15-0.275,0.15-0.275l0.006-0.194
		H0.265L0.271,15.346z"/>
	<path d="M5.417,6.989c0,0,0.017-1.181-1.194-1.527c-0.361-0.152-0.223-0.67-0.223-0.67S4.253,3.054,3.39,1.429
		c0.341-0.301,0.176-0.399,0.176-0.399V0.293c0,0,0.128-0.293-0.143-0.293C3.291,0,3.076,0,2.889,0c0,0-0.165,0-0.361,0
		C2.341,0,2.126,0,1.994,0C1.723,0,1.851,0.293,1.851,0.293v0.737c0,0-0.166,0.098,0.176,0.399C1.164,3.054,1.417,4.792,1.417,4.792
		s0.137,0.518-0.223,0.67C-0.017,5.808,0,6.989,0,6.989l0.259,7.982h4.899L5.417,6.989z M1.769,2.864h0.912h0.966
		c0.064,0.284,0.101,0.552,0.116,0.784h-2.11C1.669,3.415,1.706,3.147,1.769,2.864z M2.708,11.3c-1.047,0-1.896-0.632-1.896-1.411
		c0-0.779,0.849-1.411,1.896-1.411s1.896,0.632,1.896,1.411C4.604,10.668,3.755,11.3,2.708,11.3z"/>
</g>
<ellipse cx="2.708" cy="9.889" rx="1.577" ry="1.174"/>
</svg>
