<?xml version="1.0" encoding="utf-8"?>
<!-- Generator: Adobe Illustrator 17.0.2, SVG Export Plug-In . SVG Version: 6.00 Build 0)  -->
<!DOCTYPE svg PUBLIC "-//W3C//DTD SVG 1.0//EN" "http://www.w3.org/TR/2001/REC-SVG-20010904/DTD/svg10.dtd">
<svg version="1.0" id="Layer_1" xmlns="http://www.w3.org/2000/svg" xmlns:xlink="http://www.w3.org/1999/xlink" x="0px" y="0px"
	 width="7.678px" height="13.862px" viewBox="0 0 7.678 13.862" enable-background="new 0 0 7.678 13.862" xml:space="preserve">
<g>
	<path d="M5.041,2.237l0.067-0.468c0.028-0.141,0.156-0.527,0.407-0.623c0.421-0.161,2.146-0.682,2.164-0.687L7.54,0
		C7.468,0.022,5.78,0.531,5.343,0.699C4.801,0.906,4.653,1.6,4.636,1.69L4.569,2.154C2.62,1.88,0,2.278,0,3.349
		c0,0.01,0.003,0.02,0.004,0.03c0,0.003-0.001,0.006,0,0.009l0.006,0.036L0.026,3.52l0.156,0.924l0.029,0.174l1.226,7.265
		c0,0.079,0.013,0.17,0.048,0.263c-0.388,0.164-0.644,0.398-0.644,0.706c0,0.694,1.286,1.009,2.481,1.009s2.481-0.316,2.481-1.009
		c0-0.307-0.253-0.54-0.638-0.704c0.03-0.082,0.041-0.16,0.04-0.225l1.23-7.306l0.029-0.171L6.62,3.52l0.016-0.095l0.006-0.037
		c0.001-0.003-0.001-0.006,0-0.009c0-0.01,0.004-0.02,0.004-0.03C6.645,2.804,5.965,2.434,5.041,2.237z M0.479,3.349
		c0-0.075,0.063-0.157,0.168-0.239c0.365-0.288,1.327-0.58,2.676-0.58c0.439,0,0.832,0.033,1.181,0.085L4.29,4.113
		C3.996,4.148,3.673,4.168,3.323,4.168c-0.714,0-1.314-0.084-1.783-0.204c-0.255-0.065-0.473-0.14-0.639-0.22
		C0.796,3.693,0.714,3.641,0.647,3.588C0.542,3.506,0.479,3.424,0.479,3.349z M0.659,4.398L0.614,4.133
		c0.065,0.035,0.134,0.068,0.207,0.099c0.64,0.274,1.574,0.415,2.501,0.415c0.302,0,0.604-0.017,0.897-0.046L4.148,5.108
		C3.892,5.131,3.62,5.147,3.323,5.147c-1.425,0-2.401-0.308-2.634-0.572L0.659,4.398z M5.325,12.853c0,0.154-0.701,0.53-2.002,0.53
		s-2.002-0.376-2.002-0.53c0-0.075,0.171-0.204,0.495-0.316c0.274,0.18,0.734,0.316,1.507,0.316c0.776,0,1.238-0.137,1.511-0.314
		C5.155,12.65,5.325,12.778,5.325,12.853z M4.729,11.883c0,0.04-0.012,0.078-0.031,0.114c-0.093,0.173-0.402,0.296-0.86,0.348
		c-0.156,0.018-0.327,0.029-0.516,0.029c-0.188,0-0.358-0.011-0.513-0.029c-0.44-0.051-0.741-0.172-0.849-0.352
		c-0.028-0.047-0.047-0.096-0.048-0.15L0.782,5.127C1.384,5.406,2.356,5.55,3.323,5.55c0.258,0,0.515-0.011,0.766-0.031l-0.147,1.03
		C3.75,6.528,3.545,6.516,3.323,6.516c-0.977,0-1.674,0.217-1.939,0.43c-0.058,0.046-0.09,0.092-0.106,0.136
		C1.274,7.091,1.268,7.1,1.267,7.109l0.007,0.046C1.288,7.202,1.322,7.25,1.384,7.3c0.048,0.039,0.108,0.077,0.184,0.115
		c0.121,0.06,0.279,0.115,0.463,0.163C2.37,7.667,2.805,7.729,3.323,7.729s0.952-0.062,1.292-0.151
		C4.799,7.53,4.957,7.474,5.077,7.415C5.153,7.377,5.213,7.339,5.261,7.3c0.062-0.05,0.096-0.098,0.11-0.145l0.007-0.046
		C5.377,7.1,5.371,7.091,5.367,7.081C5.351,7.038,5.319,6.992,5.261,6.946c-0.15-0.121-0.444-0.242-0.846-0.325L4.58,5.464
		c0.499-0.07,0.949-0.182,1.284-0.337L4.729,11.883z M5.987,4.399L5.957,4.574C5.806,4.746,5.338,4.935,4.64,5.047l0.073-0.511
		c0.417-0.069,0.799-0.171,1.111-0.304c0.073-0.031,0.142-0.064,0.208-0.099L5.987,4.399z M5.998,3.588
		C5.931,3.641,5.849,3.693,5.744,3.744C5.578,3.824,5.36,3.899,5.105,3.964c-0.1,0.026-0.209,0.049-0.321,0.07L4.975,2.7
		c0.481,0.11,0.834,0.26,1.023,0.409c0.105,0.083,0.168,0.165,0.168,0.239C6.166,3.424,6.103,3.506,5.998,3.588z"/>
	<path d="M5.261,7.466C5.213,7.501,5.153,7.537,5.077,7.571c-0.121,0.055-0.279,0.106-0.463,0.15
		C4.275,7.804,3.84,7.861,3.323,7.861S2.37,7.804,2.031,7.722c-0.185-0.045-0.342-0.095-0.463-0.15
		c-0.076-0.035-0.136-0.07-0.184-0.106C1.322,7.42,1.288,7.375,1.274,7.332l0.756,4.492c0.003,0.019,0.005,0.039,0.005,0.059
		c0,0.143,0.35,0.371,1.287,0.371c0.937,0,1.287-0.227,1.287-0.371c0-0.02,0.002-0.04,0.005-0.06l0.756-4.491
		C5.357,7.375,5.323,7.42,5.261,7.466z"/>
</g>
</svg>
