<?xml version="1.0" encoding="utf-8"?>
<!-- Generator: Adobe Illustrator 17.0.2, SVG Export Plug-In . SVG Version: 6.00 Build 0)  -->
<!DOCTYPE svg PUBLIC "-//W3C//DTD SVG 1.0//EN" "http://www.w3.org/TR/2001/REC-SVG-20010904/DTD/svg10.dtd">
<svg version="1.0" id="Layer_1" xmlns="http://www.w3.org/2000/svg" xmlns:xlink="http://www.w3.org/1999/xlink" x="0px" y="0px"
	 width="4.595px" height="11.899px" viewBox="0 0 4.595 11.899" enable-background="new 0 0 4.595 11.899" xml:space="preserve">
<g>
	<path d="M4.594,4.157l0-0.227L4.586,3.887C4.434,3.48,4.182,3.159,3.938,2.849c-0.342-0.435-0.62-0.792-0.551-1.262
		C3.512,1.537,3.594,1.47,3.594,1.378C3.6,1.333,3.707,0.801,3.773,0.477l0,0l0.021-0.102C3.791,0.36,3.79,0.344,3.784,0.33
		C3.657,0.025,2.633,0,2.305,0S0.953,0.025,0.826,0.33C0.82,0.344,0.818,0.36,0.816,0.376l0.021,0.101l0,0
		c0.066,0.324,0.174,0.855,0.179,0.888c0,0.091,0.075,0.158,0.189,0.209C1.282,2.051,1.001,2.41,0.656,2.849
		C0.412,3.159,0.16,3.48,0.008,3.887L0,3.908v7.47c0,0.515,2.204,0.521,2.298,0.521s2.298-0.006,2.298-0.521L4.594,4.173
		c0-0.003,0.001-0.005,0.001-0.008C4.595,4.162,4.594,4.159,4.594,4.157z M1.106,0.394C1.154,0.374,1.233,0.351,1.335,0.33
		c0.213-0.045,0.538-0.084,0.97-0.084s0.757,0.039,0.97,0.084c0.102,0.021,0.181,0.044,0.229,0.065
		c-0.15,0.064-0.56,0.148-1.199,0.148S1.255,0.458,1.106,0.394z M0.849,3.001c0.332-0.422,0.648-0.826,0.612-1.35
		c0.284,0.058,0.637,0.068,0.844,0.068c0.203,0,0.545-0.01,0.827-0.063C3.099,2.177,3.414,2.58,3.745,3.001
		C3.959,3.274,4.178,3.558,4.32,3.893c-0.594-0.246-1.95-0.25-2.023-0.25c-0.073,0-1.431,0.004-2.024,0.25
		C0.416,3.559,0.634,3.274,0.849,3.001z M2.298,11.653c-1.105,0-1.939-0.17-2.052-0.292v-0.329c0.357,0.119,0.989,0.246,1.751,0.246
		c1.105,0,1.939-0.113,2.052-0.234L4.048,4.521c0.113-0.028,0.216-0.059,0.3-0.097l0.001,6.937
		C4.236,11.483,3.402,11.653,2.298,11.653z"/>
</g>
</svg>
