<?xml version="1.0" encoding="utf-8"?>
<!-- Generator: Adobe Illustrator 17.0.2, SVG Export Plug-In . SVG Version: 6.00 Build 0)  -->
<!DOCTYPE svg PUBLIC "-//W3C//DTD SVG 1.0//EN" "http://www.w3.org/TR/2001/REC-SVG-20010904/DTD/svg10.dtd">
<svg version="1.0" id="Layer_1" xmlns="http://www.w3.org/2000/svg" xmlns:xlink="http://www.w3.org/1999/xlink" x="0px" y="0px"
	 width="20.352px" height="39.378px" viewBox="0 0 20.352 39.378" enable-background="new 0 0 20.352 39.378" xml:space="preserve">
<g>
	<path d="M13.319,7.515l1.075-4.226c0.032-0.129,0.252-0.779,1.383-0.873c1.978-0.164,4.549-0.447,4.574-0.45L20.136,0
		c-0.026,0.003-2.571,0.283-4.522,0.445c-2.161,0.179-3.002,1.625-3.145,2.39l-1.191,4.68H2.638L0,10.58h19.249l-2.638-3.065H13.319
		z"/>
	<path d="M2.808,31.271l0.398,2.808c4.565-4.724,10.135-6.995,13.98-8.067l0.459-3.241C13.426,23.693,7.312,25.919,2.808,31.271z"/>
	<path d="M1.861,24.582l0.352,2.485c5.288-5.091,11.735-7.042,15.927-7.785l0.369-2.601C14.063,17.186,7.091,18.921,1.861,24.582z"
		/>
	<path d="M3.824,38.437l0.133,0.941h2.2c3.231-3.334,6.948-5.451,10.096-6.781l0.417-2.945C12.794,30.948,7.611,33.504,3.824,38.437
		z"/>
	<path d="M0.959,18.22l0.326,2.3c6.009-5.362,13.249-6.853,17.703-7.228l0.261-1.844h-3.066C12.036,11.965,5.901,13.55,0.959,18.22z
		"/>
	<path d="M0,11.448l0.406,2.864c1.437-1.147,2.929-2.088,4.423-2.864H0z"/>
	<path d="M15.293,39.378l0.403-2.845c-1.476,0.746-3.026,1.681-4.536,2.845H15.293z"/>
</g>
</svg>
