<?xml version="1.0" encoding="utf-8"?>
<!-- Generator: Adobe Illustrator 17.0.2, SVG Export Plug-In . SVG Version: 6.00 Build 0)  -->
<!DOCTYPE svg PUBLIC "-//W3C//DTD SVG 1.0//EN" "http://www.w3.org/TR/2001/REC-SVG-20010904/DTD/svg10.dtd">
<svg version="1.0" id="Layer_1" xmlns="http://www.w3.org/2000/svg" xmlns:xlink="http://www.w3.org/1999/xlink" x="0px" y="0px"
	 width="12.263px" height="10.94px" viewBox="0 0 12.263 10.94" enable-background="new 0 0 12.263 10.94" xml:space="preserve">
<g>
	<path d="M10.609,10.221H0.359C0.161,10.221,0,10.382,0,10.58s0.161,0.359,0.359,0.359h10.25c0.198,0,0.359-0.161,0.359-0.359
		S10.808,10.221,10.609,10.221z"/>
	<path d="M11.924,6.148c-0.333-0.345-0.829-0.455-1.21-0.486C10.73,5.495,10.75,5.33,10.75,5.158c0-0.193-0.037-0.375-0.057-0.562
		H0.057C0.037,4.783,0,4.966,0,5.158c0,2.045,1.182,3.8,2.896,4.687h4.958c0.537-0.278,1.013-0.649,1.425-1.08
		c0.028,0,0.047,0.002,0.078,0.002c0.904,0,2.708-0.168,2.89-1.496C12.325,6.7,12.114,6.346,11.924,6.148z M11.503,7.17
		c-0.074,0.543-0.873,0.75-1.596,0.817c0.311-0.478,0.538-1.01,0.679-1.578c0.275,0.016,0.619,0.075,0.799,0.262
		C11.426,6.713,11.548,6.84,11.503,7.17z"/>
	<path d="M5.154,3.377c-0.161,0.071-0.232,0.26-0.161,0.421c0.053,0.119,0.169,0.188,0.291,0.188c0.044,0,0.088-0.009,0.13-0.028
		C6.21,3.602,6.959,2.924,7.323,2.229c0.278-0.531,0.215-1.194-0.163-1.69C6.86,0.146,6.323-0.065,5.859,0.018
		c-0.395,0.072-0.69,0.347-0.81,0.753c-0.106,0.36-0.047,0.752,0.159,1.049c0.188,0.273,0.475,0.437,0.807,0.462
		C6.189,2.3,6.343,2.164,6.356,1.988S6.238,1.659,6.062,1.646s-0.277-0.11-0.331-0.188C5.636,1.319,5.608,1.125,5.659,0.951
		c0.053-0.178,0.155-0.278,0.314-0.307C6.206,0.6,6.498,0.722,6.652,0.926c0.229,0.3,0.27,0.695,0.106,1.008
		C6.462,2.5,5.817,3.08,5.154,3.377z"/>
</g>
</svg>
