<?xml version="1.0" encoding="utf-8"?>
<!-- Generator: Adobe Illustrator 17.0.2, SVG Export Plug-In . SVG Version: 6.00 Build 0)  -->
<!DOCTYPE svg PUBLIC "-//W3C//DTD SVG 1.0//EN" "http://www.w3.org/TR/2001/REC-SVG-20010904/DTD/svg10.dtd">
<svg version="1.0" id="Layer_1" xmlns="http://www.w3.org/2000/svg" xmlns:xlink="http://www.w3.org/1999/xlink" x="0px" y="0px"
	 width="19.089px" height="21.021px" viewBox="0 0 19.089 21.021" enable-background="new 0 0 19.089 21.021" xml:space="preserve">
<g>
	<path d="M18.971,0.163C18.88,0.059,18.749,0,18.612,0H0.478C0.34,0,0.209,0.059,0.119,0.163C0.028,0.266-0.014,0.403,0.004,0.54
		l2.628,20.065c0.031,0.238,0.234,0.416,0.474,0.416h12.879c0.24,0,0.443-0.178,0.474-0.416L19.085,0.54
		C19.103,0.403,19.061,0.266,18.971,0.163z M15.358,15.925H3.731L1.022,0.955h17.045L15.358,15.925z"/>
	<polygon points="4.13,15.447 12.81,15.447 14.683,5.096 2.257,5.096 	"/>
	<polygon points="14.959,15.447 16.833,5.096 15.877,5.096 14.004,15.447 	"/>
</g>
</svg>
