<?xml version="1.0" encoding="utf-8"?>
<!-- Generator: Adobe Illustrator 17.0.2, SVG Export Plug-In . SVG Version: 6.00 Build 0)  -->
<!DOCTYPE svg PUBLIC "-//W3C//DTD SVG 1.0//EN" "http://www.w3.org/TR/2001/REC-SVG-20010904/DTD/svg10.dtd">
<svg version="1.0" id="Layer_1" xmlns="http://www.w3.org/2000/svg" xmlns:xlink="http://www.w3.org/1999/xlink" x="0px" y="0px"
	 width="5.11px" height="14.305px" viewBox="0 0 5.11 14.305" enable-background="new 0 0 5.11 14.305" xml:space="preserve">
<g>
	<path d="M2.049,1.612h1.012c0.237,0,0.43-0.192,0.43-0.43V0.43C3.491,0.192,3.299,0,3.061,0H2.049c-0.237,0-0.43,0.192-0.43,0.43
		v0.752C1.619,1.419,1.811,1.612,2.049,1.612z"/>
	<path d="M5.11,4.931L3.392,1.787H1.719L0,4.931v8.3h0.01C0.006,13.26,0,13.289,0,13.32c0,0.455,0.401,0.985,0.895,0.985
		c0.377,0,0.698-0.308,0.83-0.656c0.132,0.348,0.453,0.656,0.83,0.656s0.698-0.308,0.83-0.656c0.132,0.348,0.453,0.656,0.83,0.656
		c0.494,0,0.895-0.53,0.895-0.985c0-0.031-0.006-0.06-0.01-0.09h0.01V4.931z M4.543,8.934H4.542c0,0.237-0.192,0.43-0.43,0.43H0.998
		c-0.237,0-0.43-0.192-0.43-0.43v-2.1c0-0.237,0.192-0.43,0.43-0.43h3.115c0.237,0,0.43,0.192,0.43,0.43V8.934z"/>
	<path d="M3.911,6.638H1.199C0.992,6.638,0.825,6.8,0.825,7v1.768c0,0.2,0.167,0.362,0.374,0.362h2.712
		c0.207,0,0.374-0.162,0.374-0.362V7C4.285,6.8,4.117,6.638,3.911,6.638z"/>
</g>
</svg>
