<?xml version="1.0" encoding="utf-8"?>
<!-- Generator: Adobe Illustrator 17.0.2, SVG Export Plug-In . SVG Version: 6.00 Build 0)  -->
<!DOCTYPE svg PUBLIC "-//W3C//DTD SVG 1.0//EN" "http://www.w3.org/TR/2001/REC-SVG-20010904/DTD/svg10.dtd">
<svg version="1.0" id="Layer_1" xmlns="http://www.w3.org/2000/svg" xmlns:xlink="http://www.w3.org/1999/xlink" x="0px" y="0px"
	 width="13.749px" height="26.961px" viewBox="0 0 13.749 26.961" enable-background="new 0 0 13.749 26.961" xml:space="preserve">
<g>
	<path d="M8.667,0C7.499,0,7.043,0.96,6.965,1.468L6.725,3.09h-5.82H0.592L0.44,3.363C0.388,3.455-0.798,5.66,0.955,9.416
		c1.991,4.266,1.381,9.841,1.374,9.897l-0.003,0.029v0.029c0,0.012-0.028,1.406-1.037,2.832c-1.055,1.492-0.784,2.649-0.529,3.205
		c0.103,0.225,0.213,0.38,0.269,0.451l0.021,0.027l0.025,0.024c0.028,0.028,0.057,0.056,0.089,0.083
		c0.698,0.597,2.221,0.968,3.974,0.968s3.276-0.371,3.974-0.968c0.03-0.026,0.058-0.052,0.085-0.079l0.025-0.025l0.022-0.028
		c0.057-0.073,0.168-0.229,0.273-0.458c0.254-0.556,0.523-1.712-0.531-3.202c-1.02-1.442-1.037-2.819-1.037-2.832V19.34
		l-0.003-0.029C7.94,19.258,7.333,13.674,9.32,9.416c1.753-3.756,0.567-5.961,0.515-6.053L9.683,3.09H9.37H7.91l0.214-1.447
		c0.008-0.048,0.088-0.47,0.544-0.47c0.425,0,2.632,0.773,4.433,1.489l0.215,0.085l0.433-1.09l-0.214-0.085
		C12.872,1.309,9.532,0,8.667,0z M9.37,3.623c0,0,1.125,2.016-0.533,5.568c-2.077,4.451-1.42,10.183-1.42,10.183
		s0.006,1.542,1.135,3.138c0.882,1.248,0.708,2.177,0.481,2.673c-0.076,0.167-0.158,0.287-0.208,0.351
		c-0.019,0.019-0.038,0.037-0.059,0.055c-0.575,0.492-1.981,0.84-3.628,0.84s-3.052-0.348-3.628-0.84
		c-0.022-0.019-0.042-0.038-0.062-0.058c-0.05-0.064-0.13-0.182-0.205-0.346c-0.227-0.495-0.404-1.425,0.48-2.675
		c1.129-1.596,1.135-3.138,1.135-3.138s0.656-5.732-1.421-10.183C-0.22,5.639,0.905,3.623,0.905,3.623h5.741L5.99,8.066H3.439
		c0.586,1.181,0.256,4.988,0.256,4.988c0.114-1.112-0.854-4.192-1.369-4.988H1.36c0.109,0.31,0.241,0.635,0.399,0.975
		c2.058,4.412,1.5,9.937,1.454,10.356c-0.005,0.206-0.079,1.735-1.2,3.32c-0.758,1.072-0.662,1.855-0.447,2.322
		c0.057,0.125,0.115,0.212,0.147,0.256l0.028,0.026c0.439,0.375,1.66,0.755,3.396,0.755s2.957-0.379,3.396-0.755l0.001-0.001
		l0.025-0.023c0.033-0.045,0.091-0.133,0.149-0.259c0.214-0.468,0.309-1.25-0.447-2.321c-1.121-1.585-1.195-3.113-1.2-3.32
		c-0.046-0.419-0.605-5.945,1.454-10.356c0.159-0.34,0.29-0.665,0.399-0.975h-1.74L7.83,3.623C7.83,3.623,9.37,3.623,9.37,3.623z
		 M6.457,8.066l0.656-4.443h0.251L6.708,8.066H6.457z M13.056,2.147C12.237,1.828,9.328,0.711,8.667,0.71
		c-0.686,0-0.954,0.564-1,0.863L7.443,3.09H7.192l0.229-1.553c0.057-0.372,0.391-1.075,1.246-1.075c0.616,0,3.01,0.877,4.481,1.454
		L13.056,2.147z"/>
</g>
</svg>
