<?xml version="1.0" encoding="utf-8"?>
<!-- Generator: Adobe Illustrator 17.0.2, SVG Export Plug-In . SVG Version: 6.00 Build 0)  -->
<!DOCTYPE svg PUBLIC "-//W3C//DTD SVG 1.0//EN" "http://www.w3.org/TR/2001/REC-SVG-20010904/DTD/svg10.dtd">
<svg version="1.0" id="Layer_1" xmlns="http://www.w3.org/2000/svg" xmlns:xlink="http://www.w3.org/1999/xlink" x="0px" y="0px"
	 width="17.401px" height="34.971px" viewBox="0 0 17.401 34.971" enable-background="new 0 0 17.401 34.971" xml:space="preserve">
<g>
	<polygon points="16.62,6.382 17.189,5.926 16.267,3.371 14.47,7.907 	"/>
	<path d="M0,34.971h12.793V9.897H0V34.971z M6.397,19.023c2.348,0,4.251,1.035,4.251,2.313c0,1.277-1.903,2.313-4.251,2.313
		s-4.251-1.035-4.251-2.313C2.146,20.059,4.049,19.023,6.397,19.023z"/>
	<rect x="2.588" y="0" width="12.794" height="2.307"/>
	<polygon points="2.419,3.364 0.249,8.839 12.963,8.839 15.133,3.364 	"/>
	<polygon points="13.851,9.641 13.851,34.397 17.401,31.548 17.401,7.124 	"/>
</g>
</svg>
