<?xml version="1.0" encoding="utf-8"?>
<!-- Generator: Adobe Illustrator 17.0.2, SVG Export Plug-In . SVG Version: 6.00 Build 0)  -->
<!DOCTYPE svg PUBLIC "-//W3C//DTD SVG 1.0//EN" "http://www.w3.org/TR/2001/REC-SVG-20010904/DTD/svg10.dtd">
<svg version="1.0" id="Layer_1" xmlns="http://www.w3.org/2000/svg" xmlns:xlink="http://www.w3.org/1999/xlink" x="0px" y="0px"
	 width="9.713px" height="19.993px" viewBox="0 0 9.713 19.993" enable-background="new 0 0 9.713 19.993" xml:space="preserve">
<g>
	<g>
		<path d="M7.343,19.993L7.343,19.993H2.371c-0.158,0-0.303-0.065-0.408-0.184c-0.26-0.295-0.21-0.865-0.188-1.032
			c0.171-5.099-0.266-9.119-1.34-12.258C-0.52,3.731,0.39,0.377,0.429,0.235L0.494,0h8.725l0.065,0.235
			c0.039,0.141,0.948,3.495-0.006,6.284C8.204,9.658,7.766,13.677,7.94,18.806c0.019,0.138,0.069,0.707-0.191,1.002
			C7.645,19.928,7.501,19.993,7.343,19.993z M2.43,19.352h4.853c0.032-0.096,0.042-0.313,0.019-0.494
			c-0.179-5.238,0.27-9.333,1.37-12.547c0.752-2.198,0.236-4.872,0.052-5.669H0.989C0.806,1.44,0.291,4.117,1.042,6.311
			c1.1,3.214,1.549,7.309,1.372,12.517C2.389,19.034,2.399,19.255,2.43,19.352z"/>
	</g>
	<g>
		<path d="M6.289,10.038c0,0-0.001,0-0.002,0c-0.084,0-0.142,0.052-0.149,0.121c-0.004,0.037,0.006,0.072,0.029,0.101
			s0.055,0.047,0.092,0.051l0.016,0.001c0.07,0,0.128-0.052,0.136-0.122C6.419,10.114,6.364,10.047,6.289,10.038z"/>
		<path d="M5.88,11.375C5.879,11.375,5.879,11.375,5.88,11.375c-0.049,0-0.083,0.03-0.087,0.07c-0.005,0.043,0.026,0.082,0.07,0.087
			h0.009c0.04,0,0.074-0.03,0.078-0.07C5.954,11.419,5.923,11.38,5.88,11.375z"/>
		<path d="M5.549,10.454c0,0-0.001,0-0.002,0c-0.063,0-0.105,0.039-0.111,0.09C5.43,10.6,5.47,10.65,5.526,10.657l0.012,0.001
			c0.052,0,0.095-0.039,0.101-0.091c0.003-0.027-0.005-0.054-0.022-0.075C5.6,10.47,5.576,10.457,5.549,10.454z"/>
		<path d="M5.719,9.312l0.019,0.001c0.084,0,0.155-0.063,0.164-0.147c0.005-0.044-0.008-0.087-0.035-0.122
			C5.839,9.009,5.8,8.987,5.755,8.982c-0.001,0-0.002,0-0.003,0c-0.102,0-0.171,0.063-0.181,0.147
			C5.562,9.219,5.628,9.301,5.719,9.312z"/>
		<path d="M6.598,8.401c-0.001,0-0.002,0-0.003,0c-0.107,0-0.18,0.066-0.189,0.153C6.4,8.601,6.413,8.646,6.442,8.682
			s0.07,0.059,0.116,0.064l0.02,0.001c0.088,0,0.163-0.066,0.172-0.154c0.005-0.046-0.008-0.092-0.037-0.128
			C6.685,8.429,6.644,8.406,6.598,8.401z"/>
		<path d="M8.405,6.088C7.768,6.124,7.011,6.044,6.113,5.773C4.042,5.149,2.381,5.25,1.155,5.52c0.051,0.233,0.113,0.463,0.19,0.688
			C2.458,9.46,2.912,13.591,2.734,18.84L2.729,18.9c-0.005,0.041-0.008,0.087-0.009,0.132h4.272
			c-0.001-0.048-0.004-0.095-0.009-0.132l-0.005-0.06c-0.177-5.25,0.278-9.381,1.39-12.633C8.382,6.168,8.392,6.128,8.405,6.088z
			 M5.949,7.398c0.093,0.015,0.174,0.065,0.23,0.141c0.055,0.076,0.078,0.169,0.063,0.262C6.214,7.974,6.068,8.099,5.894,8.099
			c-0.018,0-0.037-0.002-0.055-0.004C5.646,8.064,5.515,7.883,5.545,7.691C5.576,7.501,5.753,7.368,5.949,7.398z M5.773,8.823
			c0.086,0.009,0.164,0.052,0.218,0.12S6.07,9.096,6.06,9.183c-0.018,0.165-0.158,0.29-0.323,0.29c-0.012,0-0.025-0.001-0.037-0.002
			c-0.179-0.02-0.308-0.181-0.288-0.36C5.433,8.933,5.592,8.8,5.773,8.823z M5.508,10.816c-0.143-0.016-0.247-0.146-0.231-0.29
			c0.016-0.143,0.148-0.249,0.29-0.231c0.069,0.008,0.132,0.042,0.176,0.096c0.044,0.055,0.064,0.123,0.056,0.193
			c-0.015,0.133-0.127,0.233-0.26,0.233C5.528,10.817,5.518,10.817,5.508,10.816z M5.871,11.693l-0.027-0.002
			c-0.131-0.014-0.226-0.133-0.211-0.264c0.013-0.121,0.116-0.213,0.238-0.213l0.027,0.002c0.131,0.014,0.226,0.133,0.211,0.264
			C6.095,11.601,5.993,11.693,5.871,11.693z M6.275,10.472c-0.011,0-0.022-0.001-0.034-0.002c-0.079-0.008-0.15-0.048-0.199-0.11
			s-0.072-0.14-0.063-0.219c0.018-0.161,0.163-0.28,0.328-0.262c0.163,0.018,0.281,0.166,0.263,0.328
			C6.553,10.358,6.426,10.472,6.275,10.472z M6.579,8.908c-0.013,0-0.025-0.001-0.038-0.002c-0.088-0.01-0.168-0.053-0.224-0.123
			c-0.056-0.07-0.081-0.157-0.071-0.246c0.02-0.182,0.187-0.318,0.369-0.295c0.088,0.01,0.168,0.053,0.224,0.123
			C6.895,8.435,6.92,8.522,6.91,8.611C6.892,8.78,6.749,8.908,6.579,8.908z M6.612,7.26c-0.013,0-0.026-0.001-0.04-0.003
			C6.478,7.247,6.394,7.2,6.335,7.126S6.249,6.961,6.26,6.867c0.022-0.193,0.194-0.336,0.391-0.313
			c0.094,0.01,0.178,0.057,0.237,0.13c0.059,0.074,0.086,0.167,0.075,0.261C6.944,7.124,6.793,7.26,6.612,7.26z"/>
		<path d="M5.864,7.936C5.97,7.953,6.067,7.88,6.084,7.777C6.092,7.726,6.08,7.675,6.05,7.634C6.02,7.592,5.975,7.565,5.925,7.557
			c-0.01-0.002-0.02-0.003-0.03-0.003c-0.095,0-0.175,0.068-0.19,0.162C5.687,7.821,5.759,7.919,5.864,7.936z"/>
		<path d="M6.633,6.713c-0.007,0-0.014-0.001-0.022-0.001c-0.099,0-0.181,0.074-0.192,0.173C6.413,6.936,6.428,6.986,6.461,7.027
			c0.032,0.04,0.078,0.066,0.13,0.072c0.111,0.01,0.202-0.066,0.214-0.171c0.005-0.052-0.01-0.103-0.042-0.143
			C6.731,6.744,6.685,6.719,6.633,6.713z"/>
	</g>
</g>
</svg>
