<?xml version="1.0" encoding="utf-8"?>
<!-- Generator: Adobe Illustrator 17.0.2, SVG Export Plug-In . SVG Version: 6.00 Build 0)  -->
<!DOCTYPE svg PUBLIC "-//W3C//DTD SVG 1.0//EN" "http://www.w3.org/TR/2001/REC-SVG-20010904/DTD/svg10.dtd">
<svg version="1.0" id="Layer_1" xmlns="http://www.w3.org/2000/svg" xmlns:xlink="http://www.w3.org/1999/xlink" x="0px" y="0px"
	 width="15.419px" height="22.569px" viewBox="0 0 15.419 22.569" enable-background="new 0 0 15.419 22.569" xml:space="preserve">
<g>
	<path d="M15.419,4.639V3.144c0-0.731-0.594-1.325-1.325-1.325l-0.42,0c-0.184-0.008-0.637-0.1-0.849-0.744
		C12.705,0.452,12.159,0,11.524,0h-7.79c-0.633,0-1.181,0.452-1.29,1.031C2.221,1.719,1.769,1.811,1.6,1.819H1.325
		C0.594,1.819,0,2.413,0,3.144v1.495c0,0.49,0.271,0.914,0.667,1.143c-0.06,0.043-0.116,0.091-0.166,0.147
		C0.318,6.137,0.234,6.414,0.269,6.689l1.927,15.039c0.062,0.481,0.471,0.841,0.956,0.841h9.115c0.485,0,0.894-0.36,0.956-0.841
		L15.15,6.689c0.035-0.275-0.049-0.551-0.232-0.759c-0.05-0.056-0.106-0.105-0.166-0.147C15.149,5.553,15.419,5.129,15.419,4.639z
		 M0.723,3.144c0-0.332,0.27-0.602,0.602-0.602l0.29,0c0.261-0.011,1.143-0.136,1.529-1.33c0.054-0.283,0.302-0.488,0.59-0.488h7.79
		c0.288,0,0.537,0.206,0.602,0.532c0.374,1.15,1.255,1.276,1.532,1.287h0.436c0.332,0,0.602,0.27,0.602,0.602v1.495
		c0,0.332-0.27,0.602-0.602,0.602H1.325c-0.332,0-0.602-0.27-0.602-0.602V3.144z M10.848,15.365
		c-1.135,2.028-3.46,2.886-5.194,1.916c-1.734-0.97-2.219-3.401-1.084-5.429c1.135-2.028,3.46-2.886,5.194-1.916
		S11.983,13.337,10.848,15.365z"/>
	<path d="M6.625,3.144h2.168c0.454,0,0.823-0.369,0.823-0.823c0-0.454-0.369-0.823-0.823-0.823H6.625
		c-0.454,0-0.823,0.369-0.823,0.823C5.802,2.774,6.171,3.144,6.625,3.144z M6.625,2.22h2.168c0.055,0,0.1,0.045,0.1,0.1
		c0,0.056-0.045,0.101-0.1,0.101H6.625c-0.055,0-0.1-0.045-0.1-0.101C6.525,2.265,6.57,2.22,6.625,2.22z"/>
	<path d="M6.95,14.333C6.774,16.211,5.6,16.34,5.6,16.34s2.136,0.921,2.55-1.99c0.332-2.337,0.349-2.874,1.87-3.361
		C10.019,10.989,7.065,9.865,6.95,14.333z"/>
</g>
</svg>
