<?xml version="1.0" encoding="utf-8"?>
<!-- Generator: Adobe Illustrator 17.0.2, SVG Export Plug-In . SVG Version: 6.00 Build 0)  -->
<!DOCTYPE svg PUBLIC "-//W3C//DTD SVG 1.0//EN" "http://www.w3.org/TR/2001/REC-SVG-20010904/DTD/svg10.dtd">
<svg version="1.0" id="Layer_1" xmlns="http://www.w3.org/2000/svg" xmlns:xlink="http://www.w3.org/1999/xlink" x="0px" y="0px"
	 width="11.741px" height="23.302px" viewBox="0 0 11.741 23.302" enable-background="new 0 0 11.741 23.302" xml:space="preserve">
<path d="M10.799,0.209L10.696,0H1.045L0.943,0.209C0.856,0.385-1.151,4.56,0.969,7.687c1.906,2.811,1.697,8.923,1.529,13.835
	l-0.011,0.363c-0.025,0.195-0.083,0.859,0.22,1.203c0.122,0.139,0.291,0.215,0.475,0.215H8.56c0,0,0,0,0,0
	c0.184,0,0.353-0.076,0.475-0.215c0.303-0.344,0.245-1.008,0.222-1.168l-0.014-0.398C9.076,16.61,8.867,10.497,10.773,7.687
	C12.893,4.56,10.885,0.385,10.799,0.209z M1.681,7.425C1.613,7.301,1.556,7.203,1.514,7.134h1.461
	c1.502,6.831,0.488,13.66,0.241,15.106c-0.001-0.094,0.003-0.195,0.015-0.295l0.014-0.398C3.414,16.61,3.618,10.491,1.681,7.425z
	 M1.521,0.748h8.7c0.322,0.762,1.309,3.456,0.352,5.732H1.169C0.212,4.204,1.199,1.509,1.521,0.748z"/>
</svg>
