<?xml version="1.0" encoding="utf-8"?>
<!-- Generator: Adobe Illustrator 17.0.2, SVG Export Plug-In . SVG Version: 6.00 Build 0)  -->
<!DOCTYPE svg PUBLIC "-//W3C//DTD SVG 1.0//EN" "http://www.w3.org/TR/2001/REC-SVG-20010904/DTD/svg10.dtd">
<svg version="1.0" id="Layer_1" xmlns="http://www.w3.org/2000/svg" xmlns:xlink="http://www.w3.org/1999/xlink" x="0px" y="0px"
	 width="17.958px" height="32.037px" viewBox="0 0 17.958 32.037" enable-background="new 0 0 17.958 32.037" xml:space="preserve">
<g>
	<polygon points="17.448,32.037 0.51,32.037 0,30.317 17.958,30.317 	"/>
	<path d="M16.165,0.573C16.165,0.257,15.908,0,15.592,0H2.366C2.049,0,1.793,0.257,1.793,0.573l0,0c0,0.317,0.257,0.573,0.573,0.573
		h13.226C15.908,1.147,16.165,0.89,16.165,0.573L16.165,0.573z"/>
	<g>
		<path d="M15.919,2.019H2.039L0,5.459v24.208h17.958V5.459L15.919,2.019z M16.887,19.177c-4.314,1.359-5.029-0.51-9.276-1.614
			s-6.54,2.888-6.54,2.888v-9.428c0,0,1.615-4.668,6.71-1.274c6.965,4.639,9.106,1.699,9.106,1.699S16.887,16.204,16.887,19.177z"/>
	</g>
</g>
</svg>
