<?xml version="1.0" encoding="utf-8"?>
<!-- Generator: Adobe Illustrator 17.0.2, SVG Export Plug-In . SVG Version: 6.00 Build 0)  -->
<!DOCTYPE svg PUBLIC "-//W3C//DTD SVG 1.0//EN" "http://www.w3.org/TR/2001/REC-SVG-20010904/DTD/svg10.dtd">
<svg version="1.0" id="Layer_1" xmlns="http://www.w3.org/2000/svg" xmlns:xlink="http://www.w3.org/1999/xlink" x="0px" y="0px"
	 width="19.555px" height="26.713px" viewBox="0 0 19.555 26.713" enable-background="new 0 0 19.555 26.713" xml:space="preserve">
<path d="M11.778,1.165c1.92,0.35,7.393,1.091,7.625,1.122l0.152-1.13c-0.056-0.008-5.678-0.768-7.573-1.113
	C10.44-0.239,9.73,0.898,9.563,1.576L9.477,2.059C8.933,1.996,8.368,1.96,7.784,1.96C3.419,1.96,0,3.817,0,6.186
	c0,0.059,0.012,0.116,0.016,0.174C0.011,6.399-0.001,6.437,0.002,6.476l0.811,8.783c0,0.015-0.004,0.029-0.004,0.044
	c0,0.152,0.019,0.3,0.049,0.447l0.722,7.821c0.002,0.022,0.013,0.041,0.018,0.062c0.31,1.754,2.915,3.08,6.186,3.08
	c3.271,0,5.876-1.327,6.186-3.08c0.005-0.021,0.016-0.04,0.018-0.062l0.722-7.821c0.03-0.147,0.049-0.295,0.049-0.447
	c0-0.015-0.004-0.029-0.004-0.044l0.811-8.783c0.004-0.04-0.009-0.077-0.013-0.116c0.004-0.058,0.016-0.115,0.016-0.174
	c0-1.827-2.036-3.344-4.967-3.946l0.076-0.427C10.697,1.731,10.907,1.008,11.778,1.165z M1.188,5.854
	C1.547,4.468,4.104,3.1,7.784,3.1c0.523,0,1.02,0.03,1.494,0.082L8.2,9.264C8.062,9.268,7.925,9.273,7.784,9.273
	c-3.257,0-5.635-1.072-6.388-2.279C1.23,6.728,1.14,6.455,1.14,6.186C1.14,6.076,1.159,5.965,1.188,5.854z M1.342,8.587
	c1.389,1.11,3.732,1.826,6.442,1.826c0.073,0,0.142-0.006,0.214-0.007l-0.192,1.083c-0.008,0-0.015-0.001-0.022-0.001
	c-2.589,0-4.799,0.737-6.003,1.854L1.342,8.587z M1.987,15.572L1.956,15.24c0.076-1.227,2.363-2.56,5.647-2.609l-0.939,5.296
	C4.061,17.684,2.256,16.617,1.987,15.572z M13.581,15.572c-0.306,1.185-2.586,2.4-5.768,2.407l0.941-5.31
	c2.856,0.23,4.789,1.445,4.858,2.571L13.581,15.572z M13.787,13.341c-1.017-0.944-2.758-1.611-4.835-1.796l0.213-1.204
	c2.114-0.199,3.915-0.839,5.06-1.754L13.787,13.341z M14.38,5.854c0.029,0.111,0.048,0.222,0.048,0.332
	c0,0.269-0.09,0.541-0.256,0.807C13.548,7.995,11.804,8.9,9.371,9.181l1.032-5.827C12.642,3.814,14.114,4.828,14.38,5.854z"/>
</svg>
