<?xml version="1.0" encoding="utf-8"?>
<!-- Generator: Adobe Illustrator 17.0.2, SVG Export Plug-In . SVG Version: 6.00 Build 0)  -->
<!DOCTYPE svg PUBLIC "-//W3C//DTD SVG 1.0//EN" "http://www.w3.org/TR/2001/REC-SVG-20010904/DTD/svg10.dtd">
<svg version="1.0" id="Layer_1" xmlns="http://www.w3.org/2000/svg" xmlns:xlink="http://www.w3.org/1999/xlink" x="0px" y="0px"
	 width="7.654px" height="15.439px" viewBox="0 0 7.654 15.439" enable-background="new 0 0 7.654 15.439" xml:space="preserve">
<path d="M7.608,1.168C7.322,0.401,5.567,0,3.827,0c-1.74,0-3.495,0.401-3.782,1.168C0.019,1.239,0,1.312,0,1.39
	c0,0.021,0.006,0.041,0.008,0.062C0.019,1.561,0.057,1.663,0.12,1.759l3.485,9.564v2.3c-1.061,0.035-2.122,0.322-2.122,0.906
	c0,0.625,1.215,0.91,2.344,0.91s2.344-0.285,2.344-0.91c0-0.584-1.061-0.871-2.122-0.906v-2.301l3.484-9.564
	c0.063-0.096,0.101-0.198,0.112-0.307C7.648,1.431,7.654,1.411,7.654,1.39C7.654,1.312,7.635,1.239,7.608,1.168z M3.827,0.445
	c1.69,0,2.879,0.375,3.254,0.723C7.165,1.244,7.209,1.32,7.209,1.39S7.165,1.535,7.081,1.612C6.706,1.96,5.517,2.335,3.827,2.335
	S0.948,1.96,0.573,1.612C0.489,1.535,0.445,1.46,0.445,1.39s0.045-0.145,0.128-0.222C0.948,0.82,2.137,0.445,3.827,0.445z
	 M5.727,14.529c0,0.119-0.653,0.465-1.9,0.465c-1.246,0-1.9-0.346-1.9-0.465c0-0.112,0.576-0.423,1.677-0.461v0.461h0.445v-0.461
	C5.151,14.106,5.727,14.417,5.727,14.529z M3.827,10.634L2.065,5.797C2.523,5.989,3.189,6.08,3.827,6.08
	c0.638,0,1.304-0.091,1.762-0.283L3.827,10.634z M3.827,5.636c-1.246,0-1.9-0.346-1.9-0.465s0.653-0.465,1.9-0.465
	c1.246,0,1.9,0.346,1.9,0.465S5.073,5.636,3.827,5.636z M5.965,4.766c-0.394-0.344-1.29-0.505-2.138-0.505
	c-0.848,0-1.744,0.161-2.138,0.505L0.776,2.26C1.512,2.603,2.672,2.78,3.827,2.78c1.154,0,2.315-0.177,3.051-0.519L5.965,4.766z"/>
</svg>
