<?xml version="1.0" encoding="utf-8"?>
<!-- Generator: Adobe Illustrator 17.0.2, SVG Export Plug-In . SVG Version: 6.00 Build 0)  -->
<!DOCTYPE svg PUBLIC "-//W3C//DTD SVG 1.0//EN" "http://www.w3.org/TR/2001/REC-SVG-20010904/DTD/svg10.dtd">
<svg version="1.0" id="Layer_1" xmlns="http://www.w3.org/2000/svg" xmlns:xlink="http://www.w3.org/1999/xlink" x="0px" y="0px"
	 width="14.179px" height="25.114px" viewBox="-0.001 0 14.179 25.114" enable-background="new -0.001 0 14.179 25.114"
	 xml:space="preserve">
<path d="M12.915,7.175c-1.538-2.603-1.275-6.662-1.272-6.703L11.676,0H2.503l0.033,0.472c0.003,0.041,0.269,4.095-1.272,6.703
	c-1.694,2.866-1.204,5.668-1.184,5.772c0.008,0.051,0.825,5.049,6.454,5.283v5.326l-0.007,0c-1.778,0.057-4.142,0.382-4.142,0.774
	c0,0.433,2.658,0.784,4.703,0.784s4.703-0.351,4.703-0.784c0-0.394-2.27-0.718-4.148-0.774v-5.327
	c5.63-0.234,6.447-5.23,6.452-5.267C14.118,12.843,14.608,10.04,12.915,7.175z M4.679,2.242V2.24c0,0-0.322,3.766-1.782,6.237
	s-1.011,4.914-1.011,4.914s0.319,2.123,2.22,3.423c-2.679-1.174-3.133-3.857-3.157-4.011c-0.005-0.026-0.446-2.607,1.074-5.179
	c1.371-2.319,1.44-5.539,1.412-6.741h7.308c-0.008,0.324-0.007,0.798,0.023,1.359H4.679z"/>
</svg>
