<?xml version="1.0" encoding="utf-8"?>
<!-- Generator: Adobe Illustrator 17.0.2, SVG Export Plug-In . SVG Version: 6.00 Build 0)  -->
<!DOCTYPE svg PUBLIC "-//W3C//DTD SVG 1.0//EN" "http://www.w3.org/TR/2001/REC-SVG-20010904/DTD/svg10.dtd">
<svg version="1.0" id="Layer_1" xmlns="http://www.w3.org/2000/svg" xmlns:xlink="http://www.w3.org/1999/xlink" x="0px" y="0px"
	 width="9.714px" height="16.482px" viewBox="0 0 9.714 16.482" enable-background="new 0 0 9.714 16.482" xml:space="preserve">
<path d="M0.818,16.01c-0.05,0-0.093-0.02-0.141-0.028c0.032,0.28,0.261,0.5,0.55,0.5h7.26c0.289,0,0.518-0.22,0.55-0.5
	C8.989,15.99,8.946,16.01,8.896,16.01H0.818z"/>
<g>
	<path d="M9.662,1.69C9.651,1.657,9.641,1.626,9.626,1.595l0,0c-0.1-0.206-0.283-0.355-0.507-0.419l0,0
		C9.047,1.154,8.975,1.13,8.896,1.13H0.818C0.366,1.13,0,1.497,0,1.948v8.822v3.286v0.818c0,0.402,0.295,0.721,0.677,0.79
		c-0.002-0.021,8.362-0.021,8.36,0c0.382-0.069,0.677-0.388,0.677-0.79v-0.818V1.948C9.714,1.856,9.692,1.771,9.662,1.69z
		 M6.715,8.163c0.931,4.929-3.984,6.182-5.897,6.481v-0.588v-3.41c1.235-0.266,3.42-1.101,3.268-3.685
		C3.922,4.179,5.404,2.715,6.847,1.948H8.22C7.081,2.536,5.945,4.085,6.715,8.163z"/>
	<path d="M9.714,0.383C9.714,0.172,9.542,0,9.331,0H0.464C0.253,0,0.081,0.172,0.081,0.383l0,0c0,0.212,0.172,0.383,0.383,0.383
		H9.33C9.542,0.767,9.714,0.595,9.714,0.383L9.714,0.383z"/>
</g>
</svg>
