<?xml version="1.0" encoding="utf-8"?>
<!-- Generator: Adobe Illustrator 17.0.2, SVG Export Plug-In . SVG Version: 6.00 Build 0)  -->
<!DOCTYPE svg PUBLIC "-//W3C//DTD SVG 1.0//EN" "http://www.w3.org/TR/2001/REC-SVG-20010904/DTD/svg10.dtd">
<svg version="1.0" id="Layer_1" xmlns="http://www.w3.org/2000/svg" xmlns:xlink="http://www.w3.org/1999/xlink" x="0px" y="0px"
	 width="13.566px" height="17.873px" viewBox="0 0 13.566 17.873" enable-background="new 0 0 13.566 17.873" xml:space="preserve">
<g>
	<path d="M10.512,3.283c0.163-0.012,0.397-0.482,0.356-1.038c-0.041-0.556-0.058-1.008-0.504-0.975
		c-0.446,0.033-0.397,0.482-0.356,1.038C10.049,2.864,10.348,3.295,10.512,3.283z"/>
	<path d="M9.198,3.089c0.422,0.364,0.939,0.457,1.046,0.334c0.107-0.124-0.06-0.622-0.483-0.986C9.34,2.072,9.008,1.765,8.716,2.103
		C8.424,2.441,8.776,2.725,9.198,3.089z"/>
	<path d="M10.154,3.71c-0.012-0.163-0.482-0.397-1.038-0.356C8.559,3.395,8.107,3.412,8.14,3.858
		c0.033,0.446,0.482,0.397,1.038,0.356C9.734,4.173,10.166,3.874,10.154,3.71z"/>
	<path d="M10.293,3.978c-0.124-0.107-0.622,0.06-0.986,0.483S8.635,5.214,8.973,5.506c0.338,0.292,0.622-0.06,0.986-0.483
		C10.324,4.602,10.417,4.085,10.293,3.978z"/>
	<path d="M10.581,4.068c-0.163,0.012-0.397,0.482-0.356,1.038c0.041,0.556,0.058,1.008,0.504,0.975
		c0.446-0.033,0.397-0.482,0.356-1.038C11.044,4.488,10.744,4.056,10.581,4.068z"/>
	<path d="M11.894,4.263c-0.422-0.364-0.939-0.457-1.046-0.334c-0.107,0.124,0.06,0.622,0.483,0.986
		c0.422,0.364,0.754,0.672,1.046,0.334C12.668,4.91,12.316,4.627,11.894,4.263z"/>
	<path d="M11.914,3.138c-0.556,0.041-0.987,0.34-0.975,0.504c0.012,0.163,0.482,0.397,1.038,0.356
		c0.556-0.041,1.008-0.058,0.975-0.504C12.92,3.048,12.47,3.097,11.914,3.138z"/>
	<path d="M10.799,3.374c0.124,0.107,0.622-0.06,0.986-0.483c0.364-0.422,0.672-0.754,0.334-1.046
		c-0.338-0.292-0.622,0.06-0.986,0.483C10.768,2.75,10.675,3.267,10.799,3.374z"/>
	<path d="M13.558,3.455c-0.122-1.661-1.572-2.913-3.233-2.791C9.428,0.73,8.653,1.185,8.147,1.849
		c-0.62-0.105-1.293-0.158-1.965-0.158c-0.53,0-1.062,0.033-1.567,0.099L4.55,1.244C4.538,0.938,4.302,0.382,3.469,0.316
		C2.714,0.256,0.092,0.003,0.066,0L0,0.679c0.026,0.002,2.654,0.257,3.415,0.317C3.82,1.028,3.865,1.22,3.869,1.268L3.943,1.9
		C2.542,2.18,1.482,2.738,1.482,3.558c0,0.123,0.025,0.241,0.071,0.352L2.67,16.378c-0.001,0.012-0.004,0.024-0.004,0.036
		c0,0.064,0.009,0.125,0.024,0.185c0.014,0.056,0.035,0.11,0.062,0.163c0.371,0.727,1.907,1.109,3.427,1.111h0.017h0
		c1.482,0,3.064-0.351,3.424-1.111c0.021-0.045,0.038-0.092,0.051-0.14c0.016-0.062,0.026-0.127,0.026-0.194
		c0-0.015-0.004-0.029-0.005-0.043l0.869-9.692c0.068,0,0.136,0,0.205-0.005C12.428,6.566,13.68,5.116,13.558,3.455z M6.182,2.373
		c0.586,0,1.118,0.041,1.593,0.108C7.588,2.914,7.498,3.395,7.534,3.897c0.019,0.262,0.075,0.512,0.156,0.75
		c-0.453,0.06-0.957,0.096-1.508,0.096c-0.438,0-0.847-0.023-1.225-0.063L4.695,2.466C5.142,2.408,5.64,2.373,6.182,2.373z
		 M2.164,3.558c0-0.048,0.02-0.099,0.05-0.15c0.171-0.291,0.814-0.621,1.81-0.829l0.237,2.004C3.579,4.461,3.042,4.282,2.682,4.09
		C2.348,3.911,2.164,3.722,2.164,3.558z M9.081,15.57l-0.046,0.51c0,0-0.02,0.261-0.02,0.346c0,0.084-0.131,0.21-0.389,0.336
		c-0.442,0.215-1.256,0.43-2.431,0.43H6.181c-1.144-0.002-1.96-0.215-2.414-0.43c-0.276-0.13-0.418-0.261-0.418-0.346
		c0-0.084-0.02-0.336-0.02-0.336l-0.047-0.529L2.304,4.66c0.517,0.293,1.237,0.502,2.04,0.628l1.339,11.316l0.677-0.08L5.039,5.373
		c0.375,0.034,0.759,0.052,1.143,0.052c0.618,0,1.237-0.046,1.814-0.134c0.425,0.668,1.103,1.154,1.888,1.331L9.081,15.57z
		 M10.731,6.197c-0.042,0.003-0.083,0.002-0.124,0.003c-0.233,0.006-0.461-0.019-0.678-0.074c-0.563-0.143-1.056-0.475-1.4-0.931
		c-0.143-0.189-0.26-0.399-0.346-0.626C8.099,4.346,8.044,4.109,8.025,3.861C7.992,3.398,8.087,2.956,8.278,2.567
		c0.109-0.223,0.25-0.427,0.418-0.608c0.42-0.452,1.002-0.755,1.665-0.804c1.39-0.102,2.604,0.946,2.705,2.336
		C13.169,4.881,12.121,6.095,10.731,6.197z"/>
</g>
</svg>
