<?xml version="1.0" encoding="utf-8"?>
<!-- Generator: Adobe Illustrator 17.0.2, SVG Export Plug-In . SVG Version: 6.00 Build 0)  -->
<!DOCTYPE svg PUBLIC "-//W3C//DTD SVG 1.0//EN" "http://www.w3.org/TR/2001/REC-SVG-20010904/DTD/svg10.dtd">
<svg version="1.0" id="Layer_1" xmlns="http://www.w3.org/2000/svg" xmlns:xlink="http://www.w3.org/1999/xlink" x="0px" y="0px"
	 width="11.636px" height="19.346px" viewBox="0 0 11.636 19.346" enable-background="new 0 0 11.636 19.346" xml:space="preserve">
<g>
	<path d="M8.774,0.839V2.49l1.167-1.167C9.612,1.062,9.212,0.889,8.774,0.839z"/>
	<path d="M8.247,2.49V0.839c-0.438,0.05-0.838,0.224-1.167,0.485L8.247,2.49z"/>
	<path d="M10.798,2.862c-0.05-0.438-0.224-0.838-0.485-1.167L9.146,2.862H10.798z"/>
	<path d="M10.313,4.556c0.261-0.328,0.435-0.729,0.485-1.167H9.146L10.313,4.556z"/>
	<path d="M8.511,0C6.876,0,5.533,1.262,5.398,2.862H4.33L4.076,1.604C4.016,1.091,3.628,0.372,2.775,0.445
		C1.989,0.511,0.081,0.723,0,0.732l0.087,0.785c0.02-0.002,1.978-0.22,2.753-0.284c0.366-0.031,0.438,0.355,0.452,0.471l0.233,1.159
		H2.808c-0.291,0-0.526,0.236-0.526,0.526V18.82c0,0.291,0.236,0.526,0.526,0.526h5.44c0.291,0,0.526-0.236,0.526-0.526V6.238
		c1.601-0.134,2.862-1.478,2.862-3.112C11.636,1.402,10.234,0,8.511,0z M8.247,5.712v0.526v11.529h-5.44V3.389h0.824l0.507,2.517
		H3.161v11.475h4.732V5.906h-2.95L4.436,3.389h0.963h0.526h2.323V5.712z M8.774,5.712V5.413c0.438-0.05,0.838-0.224,1.167-0.485
		L8.774,3.761V3.389c0-0.291-0.236-0.526-0.526-0.526H7.875L6.708,1.696C6.447,2.024,6.274,2.424,6.224,2.862H5.925
		c0.132-1.312,1.239-2.336,2.586-2.336c1.436,0,2.599,1.164,2.599,2.599C11.11,4.472,10.086,5.58,8.774,5.712z"/>
</g>
</svg>
