<?xml version="1.0" encoding="utf-8"?>
<!-- Generator: Adobe Illustrator 17.0.2, SVG Export Plug-In . SVG Version: 6.00 Build 0)  -->
<!DOCTYPE svg PUBLIC "-//W3C//DTD SVG 1.0//EN" "http://www.w3.org/TR/2001/REC-SVG-20010904/DTD/svg10.dtd">
<svg version="1.0" id="Layer_1" xmlns="http://www.w3.org/2000/svg" xmlns:xlink="http://www.w3.org/1999/xlink" x="0px" y="0px"
	 width="11.45px" height="18.917px" viewBox="0 0 11.45 18.917" enable-background="new 0 0 11.45 18.917" xml:space="preserve">
<path d="M7.522,0.885h3.927V0H7.522c-0.918,0-1.267,0.774-1.32,1.166C6.144,1.485,6.081,1.83,6.016,2.19H0v16.063
	c0,0.366,0.298,0.664,0.664,0.664h7.744c0.366,0,0.664-0.298,0.664-0.664V2.19H6.915c0.056-0.308,0.11-0.605,0.16-0.879
	C7.091,1.21,7.172,0.885,7.522,0.885z M0.442,2.632h5.492C5.576,4.591,5.159,6.833,4.976,7.721h-4.14V17.99
	c-0.005,0.328,0.072,0.444,0.116,0.484H0.805c-0.326-0.078-0.361-0.367-0.362-0.464v-0.034V7.721V2.632z M8.629,2.632v5.089H5.877
	c0.222-1.086,0.622-3.247,0.958-5.089H8.629z"/>
</svg>
