<?xml version="1.0" encoding="utf-8"?>
<!-- Generator: Adobe Illustrator 17.0.2, SVG Export Plug-In . SVG Version: 6.00 Build 0)  -->
<!DOCTYPE svg PUBLIC "-//W3C//DTD SVG 1.0//EN" "http://www.w3.org/TR/2001/REC-SVG-20010904/DTD/svg10.dtd">
<svg version="1.0" id="Layer_1" xmlns="http://www.w3.org/2000/svg" xmlns:xlink="http://www.w3.org/1999/xlink" x="0px" y="0px"
	 width="6.645px" height="10.783px" viewBox="0 0 6.645 10.783" enable-background="new 0 0 6.645 10.783" xml:space="preserve">
<g>
	<path d="M6.645,1.279c0-1.705-6.645-1.705-6.645,0c0,0.006,0.002,0.012,0.002,0.018c0,0.003-0.001,0.006-0.001,0.008L0.959,9.84
		c0,0.004,0.003,0.007,0.003,0.01c0.045,0.64,1.243,0.933,2.36,0.933c1.116,0,2.313-0.293,2.36-0.931
		C5.683,9.847,5.685,9.844,5.686,9.84l0.958-8.534c0-0.003-0.001-0.006-0.001-0.008C6.643,1.291,6.645,1.285,6.645,1.279z
		 M3.323,0.459c1.349,0,2.31,0.293,2.676,0.58c0.105,0.083,0.168,0.165,0.168,0.239c0,0.075-0.063,0.157-0.168,0.239
		c-0.366,0.287-1.327,0.58-2.675,0.58s-2.31-0.293-2.675-0.58c-0.107-0.081-0.17-0.164-0.17-0.238c0-0.075,0.063-0.157,0.168-0.239
		C1.012,0.752,1.974,0.459,3.323,0.459z M5.272,9.234l-0.038,0.34c0,0-0.026,0.181-0.026,0.239c0,0.058-0.116,0.15-0.33,0.239
		c-0.31,0.129-0.831,0.251-1.555,0.251s-1.246-0.122-1.556-0.251c-0.214-0.089-0.33-0.181-0.33-0.239
		c0-0.058-0.025-0.239-0.025-0.239l-0.038-0.34l-0.809-7.2c0.629,0.358,1.696,0.544,2.757,0.544S5.451,2.392,6.08,2.034L5.272,9.234
		z"/>
	<g>
		<path d="M1.091,4.569L1.67,9.73c0.149,0.125,0.744,0.334,1.653,0.334c0.908,0,1.503-0.209,1.652-0.334l0.579-5.161
			c-0.433,0.273-1.264,0.46-2.232,0.46S1.523,4.841,1.091,4.569z M2.208,9.421c-0.007,0-0.014,0.001-0.02,0.001
			c-0.09,0-0.168-0.068-0.178-0.16L1.591,5.478C1.58,5.38,1.651,5.291,1.75,5.28c0.1-0.007,0.187,0.06,0.198,0.159l0.419,3.783
			C2.378,9.321,2.307,9.41,2.208,9.421z"/>
		<path d="M3.322,3.563c-1.471,0-2.265,0.418-2.265,0.589s0.794,0.589,2.265,0.589s2.265-0.418,2.265-0.589S4.794,3.563,3.322,3.563
			z"/>
	</g>
</g>
</svg>
