<?xml version="1.0" encoding="utf-8"?>
<!-- Generator: Adobe Illustrator 17.0.2, SVG Export Plug-In . SVG Version: 6.00 Build 0)  -->
<!DOCTYPE svg PUBLIC "-//W3C//DTD SVG 1.0//EN" "http://www.w3.org/TR/2001/REC-SVG-20010904/DTD/svg10.dtd">
<svg version="1.0" id="Layer_1" xmlns="http://www.w3.org/2000/svg" xmlns:xlink="http://www.w3.org/1999/xlink" x="0px" y="0px"
	 width="25.562px" height="37.448px" viewBox="0 0 25.562 37.448" enable-background="new 0 0 25.562 37.448" xml:space="preserve">
<g>
	<path d="M3.455,27.981h18.652l0.979-10.213H2.477L3.455,27.981z M21.986,18.769l-0.787,8.213H4.363l-0.787-8.213H21.986z"/>
	<path d="M4.165,36.279c0.064,0.666,0.617,1.169,1.287,1.169H20.11c0.668,0,1.221-0.502,1.287-1.169l0.729-7.624H3.436L4.165,36.279
		z M21.027,29.655l-0.626,6.527c-0.015,0.151-0.14,0.266-0.291,0.266H5.452c-0.151,0-0.276-0.114-0.291-0.265l-0.626-6.528H21.027z"
		/>
	<path d="M25.562,6.747c0-1.357-1.03-2.479-2.369-2.625L20.807,0H5.115L2.738,4.105H2.643C1.186,4.105,0,5.29,0,6.747
		c0,1.182,0.785,2.173,1.858,2.51C1.797,9.431,1.771,9.618,1.788,9.806l0.708,7.377h20.57l0.707-7.377
		c0.018-0.187-0.008-0.374-0.068-0.549C24.777,8.92,25.562,7.929,25.562,6.747z M22.159,16.183H3.405l-0.62-6.471
		C2.777,9.628,2.803,9.547,2.861,9.484C2.914,9.424,2.993,9.39,3.076,9.39h19.412c0.082,0,0.161,0.034,0.216,0.095
		c0.056,0.062,0.083,0.143,0.074,0.226L22.159,16.183z M22.92,8.39h-0.432H3.076H2.643C1.737,8.39,1,7.652,1,6.747
		s0.737-1.642,1.643-1.642h0.672L5.691,1H20.23l2.232,3.856l0.169,0.249h0.288c0.905,0,1.643,0.736,1.643,1.642
		S23.825,8.39,22.92,8.39z"/>
	<path d="M14.892,2.249h-4.221c-0.521,0-0.946,0.425-0.946,0.946s0.425,0.945,0.946,0.945h4.221c0.521,0,0.946-0.424,0.946-0.945
		S15.413,2.249,14.892,2.249z"/>
</g>
</svg>
