<?xml version="1.0" encoding="utf-8"?>
<!-- Generator: Adobe Illustrator 17.0.2, SVG Export Plug-In . SVG Version: 6.00 Build 0)  -->
<!DOCTYPE svg PUBLIC "-//W3C//DTD SVG 1.0//EN" "http://www.w3.org/TR/2001/REC-SVG-20010904/DTD/svg10.dtd">
<svg version="1.0" id="Layer_1" xmlns="http://www.w3.org/2000/svg" xmlns:xlink="http://www.w3.org/1999/xlink" x="0px" y="0px"
	 width="11.694px" height="14.023px" viewBox="0 0 11.694 14.023" enable-background="new 0 0 11.694 14.023" xml:space="preserve">
<g>
	<path fill="none" d="M9.337,6.863l-0.19,3.33c0.032,0.002,0.062,0.01,0.095,0.01c0.891,0,1.615-0.751,1.615-1.675
		C10.856,7.638,10.182,6.915,9.337,6.863z"/>
	<path d="M10.567,12.728H0.209c-0.104,0-0.192,0.076-0.207,0.18c-0.015,0.103,0.048,0.201,0.148,0.231l2.959,0.877
		c0.019,0.006,0.039,0.009,0.059,0.009h4.439c0.02,0,0.04-0.003,0.059-0.009l2.959-0.877c0.1-0.029,0.163-0.128,0.148-0.231
		C10.759,12.804,10.671,12.728,10.567,12.728z"/>
	<path d="M9.385,6.023L9.45,4.876C9.454,4.818,9.433,4.762,9.393,4.72C9.354,4.678,9.299,4.654,9.241,4.654H1.535
		c-0.058,0-0.113,0.024-0.152,0.065c-0.04,0.042-0.06,0.099-0.057,0.156l0.419,7.328c0.006,0.111,0.098,0.198,0.209,0.198h6.869
		c0.111,0,0.203-0.087,0.209-0.198l0.067-1.171c0.048,0.003,0.095,0.007,0.143,0.007c1.352,0,2.452-1.127,2.452-2.512
		C11.694,7.192,10.67,6.099,9.385,6.023z M2.77,11.668c-0.007,0-0.013,0-0.02,0c-0.165,0-0.303-0.128-0.313-0.295L2.088,5.72
		C2.078,5.547,2.21,5.399,2.383,5.387c0.179-0.013,0.322,0.121,0.333,0.294l0.349,5.653C3.075,11.508,2.943,11.657,2.77,11.668z
		 M9.241,10.203c-0.032,0-0.063-0.008-0.095-0.01l0.19-3.33c0.845,0.052,1.52,0.775,1.52,1.665
		C10.856,9.451,10.132,10.203,9.241,10.203z"/>
	<path d="M2.875,2.947c0.14,0.636,0.827,0.936,0.905,0.968l0.239-0.581C3.9,3.285,3.548,3.084,3.488,2.812
		C3.447,2.626,3.545,2.403,3.779,2.151c0.386-0.418,0.535-0.829,0.442-1.224C4.076,0.306,3.396,0.029,3.319,0L3.094,0.586
		c0.004,0.002,0.445,0.183,0.515,0.483c0.052,0.224-0.13,0.479-0.292,0.655C2.936,2.137,2.787,2.548,2.875,2.947z"/>
	<path d="M4.55,2.947c0.14,0.636,0.827,0.936,0.905,0.968l0.239-0.581c-0.118-0.049-0.47-0.249-0.53-0.522
		C5.122,2.626,5.22,2.403,5.454,2.151c0.386-0.418,0.535-0.829,0.442-1.224C5.751,0.306,5.071,0.029,4.993,0L4.769,0.586
		c0.004,0.002,0.445,0.183,0.515,0.483c0.052,0.224-0.13,0.479-0.292,0.655C4.611,2.137,4.462,2.548,4.55,2.947z"/>
	<path d="M6.225,2.947c0.14,0.636,0.827,0.936,0.905,0.968l0.239-0.581c-0.118-0.049-0.47-0.249-0.53-0.522
		C6.797,2.626,6.895,2.403,7.129,2.151c0.386-0.418,0.535-0.829,0.442-1.224C7.426,0.306,6.745,0.029,6.668,0L6.444,0.586
		c0.004,0.002,0.445,0.183,0.515,0.483c0.052,0.224-0.13,0.479-0.292,0.655C6.286,2.137,6.137,2.548,6.225,2.947z"/>
</g>
</svg>
