<?xml version="1.0" encoding="utf-8"?>
<!-- Generator: Adobe Illustrator 17.0.2, SVG Export Plug-In . SVG Version: 6.00 Build 0)  -->
<!DOCTYPE svg PUBLIC "-//W3C//DTD SVG 1.0//EN" "http://www.w3.org/TR/2001/REC-SVG-20010904/DTD/svg10.dtd">
<svg version="1.0" id="Layer_1" xmlns="http://www.w3.org/2000/svg" xmlns:xlink="http://www.w3.org/1999/xlink" x="0px" y="0px"
	 width="8.239px" height="11.001px" viewBox="0 0 8.239 11.001" enable-background="new 0 0 8.239 11.001" xml:space="preserve">
<g>
	<path d="M6.681,5.007c-0.299,0-0.576,0.108-0.814,0.287V4.067c0-0.101-0.023-0.196-0.065-0.284c-0.597-1.254-5.14-1.254-5.737,0
		C0.023,3.871,0,3.966,0,4.067v5.69c0,0.101,0.023,0.196,0.065,0.284c0.299,0.631,1.59,0.96,2.868,0.96s2.569-0.329,2.868-0.96
		c0.042-0.089,0.065-0.184,0.065-0.284V8.512C6.104,8.691,6.381,8.799,6.68,8.799c0.859,0,1.557-0.85,1.557-1.896
		S7.54,5.007,6.681,5.007z M2.934,4.743c-0.972,0-1.686-0.192-2.063-0.391C0.679,4.251,0.569,4.148,0.569,4.067
		c0-0.08,0.11-0.183,0.302-0.284c0.377-0.199,1.091-0.391,2.063-0.391S4.62,3.584,4.997,3.783c0.192,0.101,0.302,0.204,0.302,0.284
		S5.189,4.25,4.997,4.351C4.62,4.551,3.906,4.743,2.934,4.743z M6.681,7.946c-0.382,0-0.704-0.478-0.704-1.042
		S6.3,5.861,6.681,5.861c0.382,0,0.704,0.478,0.704,1.042S7.063,7.946,6.681,7.946z"/>
	<g>
		<g>
			<path d="M1.571,2.499c-0.072,0-0.142-0.034-0.187-0.098C1.312,2.299,1.337,2.157,1.44,2.085c0.081-0.057,0.313-0.26,0.315-0.439
				c0-0.082-0.057-0.166-0.171-0.249c-0.285-0.208-0.42-0.441-0.401-0.691c0.032-0.412,0.48-0.655,0.531-0.681
				C1.826-0.031,1.962,0.01,2.02,0.122C2.079,0.234,2.035,0.37,1.924,0.429C1.835,0.476,1.647,0.615,1.637,0.741
				C1.63,0.849,1.769,0.968,1.853,1.03C2.151,1.248,2.211,1.488,2.21,1.651C2.204,2.095,1.752,2.423,1.7,2.458
				C1.661,2.486,1.615,2.499,1.571,2.499z"/>
		</g>
		<g>
			<path d="M2.809,2.499c-0.072,0-0.142-0.034-0.187-0.098C2.55,2.299,2.575,2.157,2.678,2.085c0.081-0.057,0.313-0.26,0.315-0.439
				c0-0.082-0.057-0.166-0.171-0.249c-0.285-0.208-0.42-0.441-0.401-0.691c0.032-0.412,0.48-0.655,0.531-0.681
				C3.064-0.031,3.201,0.01,3.258,0.122C3.317,0.234,3.273,0.37,3.162,0.429C3.073,0.476,2.885,0.615,2.875,0.741
				C2.868,0.849,3.007,0.968,3.091,1.03c0.298,0.218,0.358,0.458,0.357,0.621C3.442,2.095,2.99,2.423,2.938,2.458
				C2.899,2.486,2.853,2.499,2.809,2.499z"/>
		</g>
		<g>
			<path d="M4.047,2.499c-0.072,0-0.142-0.034-0.187-0.098C3.788,2.299,3.813,2.157,3.916,2.085c0.081-0.057,0.313-0.26,0.315-0.439
				c0-0.082-0.057-0.166-0.171-0.249C3.775,1.189,3.64,0.956,3.659,0.706c0.032-0.412,0.48-0.655,0.531-0.681
				C4.303-0.031,4.438,0.01,4.496,0.122C4.554,0.234,4.511,0.37,4.4,0.429C4.311,0.476,4.123,0.615,4.113,0.741
				C4.106,0.849,4.245,0.968,4.329,1.03c0.298,0.218,0.358,0.458,0.357,0.621C4.68,2.095,4.228,2.423,4.176,2.458
				C4.137,2.486,4.091,2.499,4.047,2.499z"/>
		</g>
	</g>
</g>
</svg>
