<?xml version="1.0" encoding="utf-8"?>
<!-- Generator: Adobe Illustrator 17.0.2, SVG Export Plug-In . SVG Version: 6.00 Build 0)  -->
<!DOCTYPE svg PUBLIC "-//W3C//DTD SVG 1.0//EN" "http://www.w3.org/TR/2001/REC-SVG-20010904/DTD/svg10.dtd">
<svg version="1.0" id="Layer_1" xmlns="http://www.w3.org/2000/svg" xmlns:xlink="http://www.w3.org/1999/xlink" x="0px" y="0px"
	 width="37.053px" height="26.867px" viewBox="0 0 37.053 26.867" enable-background="new 0 0 37.053 26.867" xml:space="preserve">
<line fill="none" stroke="#FFFFFF" stroke-linecap="round" stroke-miterlimit="10" x1="36.553" y1="19.755" x2="34.464" y2="26.367"/>
<g>
	<g>
		<path d="M1.927,26.253h14.985c1.064,0,1.927-0.732,1.927-1.635H0C0,25.521,0.863,26.253,1.927,26.253z"/>
		<path d="M15.91,2.207c0.011,0.015,0.013,0.031,0.017,0.047l0.012-0.047H15.91z"/>
		<path d="M2.899,2.207l0.012,0.047c0.004-0.016,0.006-0.031,0.017-0.047H2.899z"/>
		<path d="M2.942,2.379L2.911,2.253C2.908,2.264,2.899,2.275,2.899,2.285C2.899,2.317,2.916,2.348,2.942,2.379z"/>
		<path d="M15.939,2.285c0-0.011-0.009-0.021-0.012-0.032l-0.031,0.125C15.922,2.348,15.939,2.317,15.939,2.285z"/>
		<path d="M3.196,2.333C4.069,3.065,6.82,3.596,9.419,3.596s5.35-0.531,6.223-1.262c0.125-0.105,0.212-0.214,0.254-0.326
			l0.031-0.281c-0.004-0.035-0.006-0.07-0.017-0.105C15.625,0.711,12.428,0,9.419,0S3.213,0.711,2.928,1.622
			c-0.011,0.035-0.013,0.07-0.017,0.105l0.031,0.281C2.984,2.12,3.07,2.228,3.196,2.333z"/>
	</g>
	<g>
		<path d="M5.138,3.842C4.265,3.631,3.561,3.364,3.196,3.058l1.803,4.82L0.25,22.908C0.096,23.143,0,23.41,0,23.698h1.864
			l4.94-15.404L5.138,3.842z"/>
		<path d="M30.693,6.281c-1.068,1.068-4.541,1.781-6.054,1.87s-5.253,1.78-5.253,1.78l0.168,0.478
			c-1.295,0.457-2.55,0.886-3.011,1.002c-0.636,0.159-0.951,0.528-1.102,0.81c-0.058,0.108-0.096,0.217-0.126,0.326L13.84,7.879
			l1.803-4.82c-0.874,0.73-3.625,1.261-6.224,1.261c-0.806,0-1.621-0.056-2.396-0.148l1.527,4.08L3.597,23.698h15.241
			c0-0.288-0.096-0.555-0.25-0.79l-1.954-6.184c0.028,0.003,0.055,0.014,0.084,0.014c0.062,0,0.126-0.008,0.188-0.025
			c0.387-0.104,0.616-0.501,0.512-0.888l-0.699-2.595c-0.018-0.052-0.047-0.242-0.003-0.323c0.026-0.05,0.142-0.081,0.178-0.091
			c0.528-0.132,1.872-0.592,3.14-1.04l0.197,0.559c0,0,3.161-2.137,5.386-2.404c2.298-0.276,6.143-2.448,6.41-3.65
			C32.206,5.881,31.761,5.213,30.693,6.281z"/>
	</g>
</g>
</svg>
