<?xml version="1.0" encoding="utf-8"?>
<!-- Generator: Adobe Illustrator 17.0.2, SVG Export Plug-In . SVG Version: 6.00 Build 0)  -->
<!DOCTYPE svg PUBLIC "-//W3C//DTD SVG 1.0//EN" "http://www.w3.org/TR/2001/REC-SVG-20010904/DTD/svg10.dtd">
<svg version="1.0" id="Layer_1" xmlns="http://www.w3.org/2000/svg" xmlns:xlink="http://www.w3.org/1999/xlink" x="0px" y="0px"
	 width="8.273px" height="11.588px" viewBox="0 0 8.273 11.588" enable-background="new 0 0 8.273 11.588" xml:space="preserve">
<g>
	<path d="M7.906,0H0.368C0.165,0,0,0.165,0,0.368v0.23c0,0.203,0.165,0.367,0.368,0.368h7.537c0.203,0,0.368-0.165,0.368-0.368
		h0.001v-0.23C8.274,0.165,8.109,0,7.906,0z"/>
	<polygon points="1.03,7.699 7.243,7.699 7.461,5.355 0.812,5.355 	"/>
	<polygon points="0.791,5.125 7.483,5.125 7.53,4.619 0.744,4.619 	"/>
	<polygon points="1.099,8.434 7.175,8.434 7.222,7.929 1.052,7.929 	"/>
	<polygon points="1.167,9.17 7.106,9.17 7.153,8.664 1.12,8.664 	"/>
	<polygon points="0.722,4.389 7.551,4.389 7.598,3.884 0.675,3.884 	"/>
	<polygon points="0.654,3.654 7.62,3.654 7.837,1.322 0.437,1.322 	"/>
	<path d="M1.188,9.398L1.188,9.398l0.173,1.862h0.001c0.002,0.181,0.148,0.327,0.33,0.327h4.892c0.182,0,0.33-0.148,0.33-0.33
		c0-0.003-0.001-0.005-0.002-0.008l0.172-1.851H1.188z"/>
</g>
</svg>
