<?xml version="1.0" encoding="utf-8"?>
<!-- Generator: Adobe Illustrator 17.0.2, SVG Export Plug-In . SVG Version: 6.00 Build 0)  -->
<!DOCTYPE svg PUBLIC "-//W3C//DTD SVG 1.0//EN" "http://www.w3.org/TR/2001/REC-SVG-20010904/DTD/svg10.dtd">
<svg version="1.0" id="Layer_1" xmlns="http://www.w3.org/2000/svg" xmlns:xlink="http://www.w3.org/1999/xlink" x="0px" y="0px"
	 width="13.477px" height="20.625px" viewBox="0 0 13.477 20.625" enable-background="new 0 0 13.477 20.625" xml:space="preserve">
<g>
	<path d="M12.606,6.147l-1.744,13.606H2.616L0.872,6.147H12.606 M12.606,5.275H0.872c-0.251,0-0.489,0.108-0.655,0.296
		s-0.242,0.438-0.21,0.687l1.744,13.606c0.056,0.435,0.426,0.761,0.865,0.761h8.246c0.439,0,0.809-0.326,0.865-0.761L13.47,6.258
		c0.032-0.249-0.045-0.499-0.21-0.687S12.856,5.275,12.606,5.275L12.606,5.275z"/>
	<g>
		<path d="M12.515,1.645h-0.394c-0.2-0.009-0.804-0.105-1.075-0.938h-0.001C10.968,0.305,10.615,0,10.19,0H3.142
			C2.717,0,2.364,0.305,2.287,0.707H2.286C2.015,1.54,1.412,1.637,1.211,1.645H0.963c-0.482,0-0.872,0.39-0.872,0.872V3.87
			c0,0.482,0.39,0.872,0.872,0.872h11.552c0.482,0,0.872-0.39,0.872-0.872V2.517C13.387,2.036,12.996,1.645,12.515,1.645z
			 M7.72,1.754H5.758c-0.231,0-0.418-0.187-0.418-0.418s0.187-0.418,0.418-0.418H7.72c0.231,0,0.418,0.187,0.418,0.418
			C8.137,1.567,7.95,1.754,7.72,1.754z"/>
	</g>
	<g>
		<path d="M7.913,10.42c-0.99-0.554-2.319-0.064-2.967,1.095s-0.371,2.548,0.619,3.102s2.319,0.064,2.967-1.095
			C9.18,12.363,8.903,10.974,7.913,10.42z M6.99,12.942c-0.237,1.663-1.457,1.137-1.457,1.137s0.671-0.074,0.771-1.147
			c0.066-2.553,1.754-1.911,1.754-1.911C7.189,11.3,7.18,11.607,6.99,12.942z"/>
		<path d="M6.739,8.586c-2.168,0-3.933,1.765-3.933,3.933s1.764,3.933,3.933,3.933s3.933-1.765,3.933-3.933S8.907,8.586,6.739,8.586
			z M9.835,12.519c0,1.707-1.389,3.096-3.096,3.096s-3.096-1.389-3.096-3.096c0-1.708,1.389-3.097,3.096-3.097
			S9.835,10.811,9.835,12.519z"/>
	</g>
</g>
</svg>
