<?xml version="1.0" encoding="utf-8"?>
<!-- Generator: Adobe Illustrator 17.0.2, SVG Export Plug-In . SVG Version: 6.00 Build 0)  -->
<!DOCTYPE svg PUBLIC "-//W3C//DTD SVG 1.0//EN" "http://www.w3.org/TR/2001/REC-SVG-20010904/DTD/svg10.dtd">
<svg version="1.0" id="Layer_1" xmlns="http://www.w3.org/2000/svg" xmlns:xlink="http://www.w3.org/1999/xlink" x="0px" y="0px"
	 width="13.296px" height="20.098px" viewBox="0 0 13.296 20.098" enable-background="new 0 0 13.296 20.098" xml:space="preserve">
<g>
	<g>
		<path fill="none" d="M5.765,1.713h1.766c0.208,0,0.376-0.168,0.376-0.376S7.739,0.96,7.531,0.96H5.765
			c-0.208,0-0.376,0.168-0.376,0.376S5.557,1.713,5.765,1.713z"/>
		<path d="M6.648,13.056c-1.21,0-2.25-0.564-2.79-1.385H1.841l1.03,8.427h7.35l1.03-8.427H9.438
			C8.898,12.492,7.858,13.056,6.648,13.056z"/>
		<path d="M6.648,7.786c1.21,0,2.25,0.564,2.79,1.385h2.12l0.664-5.429h0.203c0.482,0,0.872-0.39,0.872-0.872V2.517
			c0-0.482-0.39-0.872-0.872-0.872H12.03c-0.2-0.009-0.804-0.105-1.075-0.938h-0.001C10.877,0.305,10.524,0,10.099,0H3.052
			C2.626,0,2.273,0.305,2.196,0.707H2.195C1.924,1.54,1.321,1.637,1.12,1.645H0.872C0.39,1.645,0,2.036,0,2.517V2.87
			c0,0.482,0.39,0.872,0.872,0.872l0.664,5.429h2.322C4.398,8.35,5.438,7.786,6.648,7.786z M5.765,0.96h1.766
			c0.208,0,0.376,0.168,0.376,0.376S7.739,1.713,7.531,1.713H5.765c-0.208,0-0.376-0.168-0.376-0.376S5.557,0.96,5.765,0.96z"/>
	</g>
	<g>
		<path d="M6.648,12.48c-1.381,0-2.505-0.924-2.505-2.06c0-1.135,1.124-2.059,2.505-2.059s2.504,0.924,2.504,2.059
			C9.152,11.556,8.029,12.48,6.648,12.48z M6.648,9.362c-0.815,0-1.505,0.484-1.505,1.059s0.689,1.06,1.505,1.06
			s1.504-0.485,1.504-1.06S7.464,9.362,6.648,9.362z"/>
	</g>
</g>
</svg>
