<?xml version="1.0" encoding="utf-8"?>
<!-- Generator: Adobe Illustrator 17.0.2, SVG Export Plug-In . SVG Version: 6.00 Build 0)  -->
<!DOCTYPE svg PUBLIC "-//W3C//DTD SVG 1.0//EN" "http://www.w3.org/TR/2001/REC-SVG-20010904/DTD/svg10.dtd">
<svg version="1.0" id="Layer_1" xmlns="http://www.w3.org/2000/svg" xmlns:xlink="http://www.w3.org/1999/xlink" x="0px" y="0px"
	 width="25.157px" height="30.718px" viewBox="0 0 25.157 30.718" enable-background="new 0 0 25.157 30.718" xml:space="preserve">
<path d="M25.07,19.386L20.589,8.422c-0.198-0.483-0.681-0.758-1.175-0.72L18.4,5.05c-0.053-0.139-0.187-0.232-0.337-0.232h-2.582
	c-0.102,0-0.2,0.043-0.268,0.12c-0.043,0.048-0.066,0.107-0.079,0.168l-0.287-2.839c0-0.006,0.002-0.012,0.002-0.018
	c0-0.299-0.242-0.541-0.541-0.541h-4.051c0.66-0.209,1.273-0.544,1.273-0.923C11.531,0.154,10.896,0,10.113,0H7.904
	C7.121,0,6.486,0.154,6.486,0.787c0,0.379,0.613,0.713,1.273,0.923H5.531C5.849,2.087,6.21,2.523,6.635,3.044l0.14,0.172
	L4.758,23.924c-0.027,0.279-0.263,0.488-0.537,0.488c-0.018,0-0.035-0.001-0.053-0.002c-0.297-0.029-0.514-0.293-0.486-0.59
	L5.656,3.554C5.132,2.914,4.579,2.256,4.107,1.71H3.711c-0.002,0-0.003,0-0.005,0l-1.421,0c-0.071,0-0.135,0.041-0.164,0.106
	C2.093,1.879,2.104,1.955,2.15,2.008l1.503,1.727L1.292,24.43L0,29.276c0,0.796,0.645,1.441,1.441,1.441h15.135
	c0.796,0,1.441-0.645,1.441-1.441l-0.961-4.805h0.034L15.487,8.591c0.026,0.193,0.201,0.332,0.394,0.311
	c0.198-0.021,0.341-0.199,0.32-0.397L15.883,5.54h1.933l0.932,2.437c-0.375,0.32-0.526,0.852-0.329,1.333l4.481,10.964
	c0.245,0.599,0.93,0.887,1.529,0.642C25.028,20.67,25.315,19.985,25.07,19.386z"/>
</svg>
