<?xml version="1.0" encoding="utf-8"?>
<!-- Generator: Adobe Illustrator 17.0.2, SVG Export Plug-In . SVG Version: 6.00 Build 0)  -->
<!DOCTYPE svg PUBLIC "-//W3C//DTD SVG 1.0//EN" "http://www.w3.org/TR/2001/REC-SVG-20010904/DTD/svg10.dtd">
<svg version="1.0" id="Layer_1" xmlns="http://www.w3.org/2000/svg" xmlns:xlink="http://www.w3.org/1999/xlink" x="0px" y="0px"
	 width="18.235px" height="44.297px" viewBox="0 0 18.235 44.297" enable-background="new 0 0 18.235 44.297" xml:space="preserve">
<path d="M12.262,3.874c-0.01-0.214-0.007-1.291,1.1-1.464c2.104-0.332,4.763-0.921,4.874-0.946L17.91,0
	c-0.028,0.007-2.726,0.605-4.783,0.928c-2.007,0.316-2.422,2.127-2.357,2.897l-0.192,1.534H0l0.056,22.116l0.026,0.195
	c0.482,1.77,3.216,3.05,6.82,3.292c0.745,1.016,0.657,1.636-0.282,2.755c0.001,0.001,0.002,0.001,0.002,0.001
	c-0.647,0.472-1.073,1.231-1.073,2.093c0,0.868,0.431,1.632,1.086,2.102c1.029,1.234,1.026,1.859-0.014,3.1
	c0.007,0.006,0.013,0.01,0.02,0.016c-2.711,0.18-4.728,0.828-4.728,1.607c0,0.917,2.789,1.661,6.228,1.661
	c3.44,0,6.228-0.744,6.228-1.661c0-0.779-2.017-1.427-4.728-1.607c0.007-0.006,0.013-0.01,0.02-0.016
	c-1.041-1.241-1.044-1.865-0.014-3.1c0.655-0.47,1.086-1.234,1.086-2.102c0-0.863-0.426-1.621-1.074-2.092
	c0.001-0.001,0.002-0.001,0.002-0.002c-0.939-1.119-1.028-1.74-0.282-2.755c3.605-0.242,6.339-1.523,6.82-3.293l0.083-22.31h-4.203
	L12.262,3.874z M14.778,6.858l-0.054,20.497c-0.401,1.057-3.08,2.158-6.584,2.158c-3.502,0-6.183-1.101-6.585-2.158L1.502,6.858
	h8.887L9.86,11.079H2.874l0.039,15.223c0.304,1.12,2.527,1.697,5.226,1.697c2.7,0,4.922-0.578,5.226-1.697l0.039-15.223H11.37
	l0.522-4.221H14.778z"/>
</svg>
