<?xml version="1.0" encoding="utf-8"?>
<!-- Generator: Adobe Illustrator 17.0.2, SVG Export Plug-In . SVG Version: 6.00 Build 0)  -->
<!DOCTYPE svg PUBLIC "-//W3C//DTD SVG 1.0//EN" "http://www.w3.org/TR/2001/REC-SVG-20010904/DTD/svg10.dtd">
<svg version="1.0" id="Layer_1" xmlns="http://www.w3.org/2000/svg" xmlns:xlink="http://www.w3.org/1999/xlink" x="0px" y="0px"
	 width="16.396px" height="15.578px" viewBox="0 0 16.396 15.578" enable-background="new 0 0 16.396 15.578" xml:space="preserve">
<path d="M14.217,2.795h-1.815v-2.25C12.402,0.244,12.158,0,11.857,0H6.42v2.392h1.242l1.285,1.644v5.707H3.38V4.036l1.285-1.644
	h1.242V0H0.545C0.244,0,0,0.244,0,0.545v14.489c0,0.301,0.244,0.545,0.545,0.545h11.313c0.301,0,0.545-0.244,0.545-0.545v-3.248
	h1.815c1.201,0,2.178-0.977,2.178-2.178V4.973C16.396,3.772,15.419,2.795,14.217,2.795z M14.944,9.607
	c0,0.401-0.325,0.726-0.726,0.726h-1.815V4.247h1.815c0.401,0,0.726,0.325,0.726,0.726V9.607z"/>
<circle cx="5.396" cy="1.771" r="0.542"/>
</svg>
