<?xml version="1.0" encoding="utf-8"?>
<!-- Generator: Adobe Illustrator 17.0.2, SVG Export Plug-In . SVG Version: 6.00 Build 0)  -->
<!DOCTYPE svg PUBLIC "-//W3C//DTD SVG 1.0//EN" "http://www.w3.org/TR/2001/REC-SVG-20010904/DTD/svg10.dtd">
<svg version="1.0" id="Layer_1" xmlns="http://www.w3.org/2000/svg" xmlns:xlink="http://www.w3.org/1999/xlink" x="0px" y="0px"
	 width="23.834px" height="16.786px" viewBox="0 0 23.834 16.786" enable-background="new 0 0 23.834 16.786" xml:space="preserve">
<g>
	<path d="M16.063,3.167c-0.939-0.744-2.077-1.268-3.318-1.417c0.171-0.186,0.278-0.432,0.278-0.705C13.023,0.468,12.555,0,11.978,0
		s-1.045,0.468-1.045,1.045c0,0.279,0.111,0.531,0.289,0.719c-1.203,0.165-2.307,0.679-3.22,1.403H16.063z"/>
	<path d="M23.098,5.427c-0.406-0.478-1.184-1.011-2.579-0.85c-1.143,0.126-1.668,0.676-1.908,1.115
		c-0.196,0.359-0.266,0.754-0.268,1.141c-0.48-1.192-1.166-2.303-1.997-3.198H7.718c-1.251,1.346-2.171,3.18-2.56,5.046
		c-0.45-0.155-1.5-0.756-1.776-3.032C3.189,4.058,1.257,3.636,1.257,3.636L0.822,4.284L0,4.24c0,0,1.209,0.529,1.644,1.411
		c0.429,0.869,0.109,6.62,3.575,6.908c0.397,1.359,1.217,2.38,2.317,3.077H7.518v1.15h9.029v-1.15h-0.018
		c0.981-0.621,1.74-1.5,2.174-2.647c0.08,0.24,0.3,0.399,0.545,0.399c0.049,0,0.098-0.006,0.148-0.019
		c0.31-0.081,0.495-0.398,0.414-0.708c0-0.001-0.018-0.137,0.059-0.257c0.105-0.161,0.367-0.283,0.738-0.343
		c1.692-0.274,2.778-1.968,3.065-2.971C23.85,8.467,24.093,6.599,23.098,5.427z M22.556,8.769c-0.218,0.761-1.047,1.969-2.135,2.145
		c-0.608,0.099-1.067,0.322-1.372,0.661c0.04-0.312,0.063-0.637,0.063-0.978c0-0.523-0.052-1.056-0.145-1.589
		c0.172,0.157,0.429,0.202,0.649,0.091c0.287-0.143,0.403-0.491,0.26-0.778c-0.171-0.342-0.583-1.457-0.246-2.074
		c0.058-0.107,0.235-0.431,1.019-0.518c0.724-0.084,1.236,0.062,1.564,0.448C22.82,6.893,22.703,8.256,22.556,8.769z"/>
</g>
</svg>
