<?xml version="1.0" encoding="utf-8"?>
<!-- Generator: Adobe Illustrator 17.0.2, SVG Export Plug-In . SVG Version: 6.00 Build 0)  -->
<!DOCTYPE svg PUBLIC "-//W3C//DTD SVG 1.0//EN" "http://www.w3.org/TR/2001/REC-SVG-20010904/DTD/svg10.dtd">
<svg version="1.0" id="Layer_1" xmlns="http://www.w3.org/2000/svg" xmlns:xlink="http://www.w3.org/1999/xlink" x="0px" y="0px"
	 width="19.958px" height="21.073px" viewBox="0 0 19.958 21.073" enable-background="new 0 0 19.958 21.073" xml:space="preserve">
<path d="M19.148,0.81l-1.621,19.452H2.431L0.811,0.81H19.148 M19.148,0H0.811C0.584,0,0.368,0.095,0.214,0.262
	c-0.153,0.167-0.23,0.39-0.211,0.616L1.624,20.33c0.035,0.42,0.386,0.743,0.808,0.743h15.095c0.422,0,0.773-0.323,0.808-0.743
	l1.621-19.452c0.019-0.226-0.058-0.449-0.211-0.616C19.591,0.095,19.375,0,19.148,0L19.148,0z"/>
<g>
	<path d="M2.112,6.674l0.735,8.827h14.263l0.735-8.827H2.112z M9.179,9.736l-0.828,2.276c-0.135,0.372-0.547,0.564-0.92,0.429
		l-2.276-0.828c-0.372-0.135-0.564-0.547-0.429-0.92l0.828-2.276c0.136-0.372,0.547-0.564,0.92-0.429L8.75,8.817
		C9.123,8.952,9.315,9.364,9.179,9.736z M15.266,12.899l-2.271,0.84c-0.372,0.138-0.784-0.052-0.922-0.424l-0.84-2.271
		c-0.137-0.372,0.052-0.784,0.424-0.922l2.271-0.84c0.372-0.137,0.784,0.052,0.922,0.424l0.84,2.271
		C15.828,12.349,15.638,12.762,15.266,12.899z"/>
</g>
</svg>
