<?xml version="1.0" encoding="utf-8"?>
<!-- Generator: Adobe Illustrator 17.0.2, SVG Export Plug-In . SVG Version: 6.00 Build 0)  -->
<!DOCTYPE svg PUBLIC "-//W3C//DTD SVG 1.0//EN" "http://www.w3.org/TR/2001/REC-SVG-20010904/DTD/svg10.dtd">
<svg version="1.0" id="Layer_1" xmlns="http://www.w3.org/2000/svg" xmlns:xlink="http://www.w3.org/1999/xlink" x="0px" y="0px"
	 width="19.489px" height="46.503px" viewBox="3.503 3.375 19.489 46.503" enable-background="new 3.503 3.375 19.489 46.503"
	 xml:space="preserve">
<g>
	<path fill="#231F20" d="M15.223,47.858c-0.132-0.154-0.295-0.286-0.474-0.403c-0.618-7.445-0.618-11.221,0.001-18.67
		c2.705-0.301,4.777-1.435,6.158-3.399c4.802-6.833-0.271-21.157-0.49-21.763l-0.089-0.248H6.167L6.078,3.623
		C5.859,4.229,0.786,18.554,5.588,25.386c1.381,1.964,3.453,3.098,6.158,3.399c0.618,7.448,0.619,11.224,0.001,18.669
		c-0.179,0.117-0.342,0.25-0.474,0.404c-3.9,0.08-7.77,0.432-7.77,1.52v0.5h19.489v-0.5C22.993,48.291,19.123,47.938,15.223,47.858z
		 M6.626,24.425C2.634,18.746,19.404,4.846,19.404,4.846c0.617,1.829,4.459,13.897,0.467,19.578
		c-1.39,1.977-3.618,2.979-6.623,2.979C10.243,27.404,8.015,26.401,6.626,24.425z"/>
	<path fill="#231F20" d="M15.154,22.058c-0.993,0-1.8,0.808-1.8,1.801c0,0.993,0.808,1.8,1.8,1.8s1.8-0.808,1.8-1.8
		C16.955,22.866,16.147,22.058,15.154,22.058z M15.154,24.909c-0.579,0-1.05-0.471-1.05-1.05c0-0.58,0.471-1.051,1.05-1.051
		s1.05,0.471,1.05,1.051C16.205,24.438,15.733,24.909,15.154,24.909z"/>
	<path fill="#231F20" d="M16.955,17.659c-0.717,0-1.3,0.583-1.3,1.3s0.583,1.3,1.3,1.3s1.3-0.583,1.3-1.3
		S17.672,17.659,16.955,17.659z M16.955,19.508c-0.303,0-0.55-0.247-0.55-0.55s0.247-0.55,0.55-0.55s0.55,0.247,0.55,0.55
		S17.258,19.508,16.955,19.508z"/>
</g>
<g>
	<path fill="#231F20" d="M18.484,22.808c-0.542,0-0.982-0.44-0.982-0.982s0.44-0.982,0.982-0.982s0.982,0.44,0.982,0.982
		S19.026,22.808,18.484,22.808z M18.484,21.594c-0.128,0-0.232,0.104-0.232,0.232c0,0.256,0.464,0.256,0.464,0
		C18.717,21.698,18.612,21.594,18.484,21.594z"/>
</g>
</svg>
