<?xml version="1.0" encoding="utf-8"?>
<!-- Generator: Adobe Illustrator 17.0.2, SVG Export Plug-In . SVG Version: 6.00 Build 0)  -->
<!DOCTYPE svg PUBLIC "-//W3C//DTD SVG 1.0//EN" "http://www.w3.org/TR/2001/REC-SVG-20010904/DTD/svg10.dtd">
<svg version="1.0" id="Layer_1" xmlns="http://www.w3.org/2000/svg" xmlns:xlink="http://www.w3.org/1999/xlink" x="0px" y="0px"
	 width="5.511px" height="14.518px" viewBox="0 0 5.511 14.518" enable-background="new 0 0 5.511 14.518" xml:space="preserve">
<g>
	<path d="M5.511,4.943c0-0.033-0.009-0.066-0.025-0.096L3.767,1.704C3.748,1.669,3.718,1.643,3.683,1.625
		c0.07-0.083,0.117-0.187,0.117-0.305V0.48C3.801,0.215,3.586,0,3.321,0H2.19C1.925,0,1.71,0.215,1.71,0.48v0.84
		c0,0.118,0.047,0.222,0.117,0.305C1.793,1.643,1.763,1.669,1.744,1.704L0.025,4.848C0.009,4.877,0,4.91,0,4.943v8.3
		c0,0.012,0.001,0.023,0.003,0.035C0.001,13.296,0,13.314,0,13.332c0,0.548,0.479,1.186,1.095,1.186c0.35,0,0.639-0.196,0.83-0.449
		c0.191,0.253,0.48,0.449,0.83,0.449s0.638-0.196,0.83-0.449c0.191,0.253,0.479,0.449,0.83,0.449c0.617,0,1.096-0.638,1.096-1.186
		c0-0.017-0.001-0.033-0.003-0.053c0.002-0.012,0.003-0.023,0.003-0.036V4.943z M5.11,13.182c-0.009,0.027-0.012,0.056-0.008,0.085
		c0,0.002,0.008,0.063,0.008,0.065c0,0.354-0.321,0.785-0.695,0.785c-0.304,0-0.546-0.273-0.643-0.527
		c-0.029-0.077-0.104-0.129-0.187-0.129s-0.157,0.052-0.187,0.129c-0.097,0.254-0.339,0.527-0.643,0.527
		c-0.305,0-0.547-0.273-0.643-0.527c-0.059-0.154-0.315-0.154-0.374,0c-0.096,0.254-0.338,0.527-0.643,0.527
		c-0.375,0-0.695-0.432-0.695-0.785l0.008-0.065c0.003-0.026,0-0.053-0.008-0.078V4.994L2.038,2h1.436L5.11,4.994V13.182z"/>
	<path d="M0.872,7.422v1.989c0,0.225,0.182,0.407,0.407,0.407h2.952c0.225,0,0.407-0.182,0.407-0.407V7.422
		c0-0.225-0.182-0.407-0.407-0.407H1.279C1.054,7.015,0.872,7.197,0.872,7.422z"/>
	<ellipse cx="2.755" cy="4.685" rx="1.219" ry="0.656"/>
</g>
</svg>
