<?xml version="1.0" encoding="utf-8"?>
<!-- Generator: Adobe Illustrator 17.0.2, SVG Export Plug-In . SVG Version: 6.00 Build 0)  -->
<!DOCTYPE svg PUBLIC "-//W3C//DTD SVG 1.0//EN" "http://www.w3.org/TR/2001/REC-SVG-20010904/DTD/svg10.dtd">
<svg version="1.0" id="Layer_1" xmlns="http://www.w3.org/2000/svg" xmlns:xlink="http://www.w3.org/1999/xlink" x="0px" y="0px"
	 width="6.74px" height="19.86px" viewBox="0 0 6.74 19.86" enable-background="new 0 0 6.74 19.86" xml:space="preserve">
<path d="M6.739,15.84c-0.001-0.143-0.002-0.283-0.004-0.419c-0.025-1.808-0.124-2.97-0.189-3.716
	c-0.001-0.013-0.002-0.028-0.004-0.041l-0.03-0.354c-0.001-0.007-0.003-0.017-0.003-0.024c-0.04-0.406-0.333-1.498-0.704-2.88
	C5.28,6.452,4.401,3.179,4.601,2.781c0.406-0.513,0.216-1.025,0.015-1.287c0.024-0.19,0.061-0.619-0.015-1
	C4.511,0.045,3.46,0,3.45,0C3.42,0,3.393,0.002,3.37,0.004C3.346,0.002,3.319,0,3.29,0C3.279,0,2.229,0.045,2.139,0.494
	c-0.076,0.381-0.039,0.81-0.015,1c-0.201,0.262-0.392,0.773,0.01,1.28C2.339,3.179,1.46,6.452,0.935,8.407
	c-0.371,1.381-0.664,2.473-0.704,2.88c-0.001,0.007-0.003,0.017-0.003,0.024l-0.03,0.354c-0.001,0.013-0.002,0.028-0.004,0.041
	c-0.065,0.746-0.164,1.906-0.189,3.716c-0.002,0.136-0.003,0.275-0.004,0.419c-0.006,0.858,0.004,1.847,0.041,2.997
	c0.02,0.212,0.078,0.848,2.759,0.999c0,0,0.384,0.028,0.564,0.023c0.19,0.004,0.585-0.024,0.585-0.024
	c2.671-0.153,2.729-0.787,2.749-1.011C6.735,17.68,6.745,16.695,6.739,15.84z M2.535,0.612c0.067-0.075,0.476-0.19,0.792-0.19
	c0.003,0,0.007,0,0.01,0l0.08,0.003L3.45,0.419c0.271,0,0.688,0.117,0.741,0.157c0.047,0.234,0.041,0.496,0.027,0.686H2.521
	C2.505,1.076,2.497,0.824,2.535,0.612z M2.467,2.521c-0.331-0.419-0.01-0.779,0.027-0.817L2.518,1.68h1.704l0.024,0.025
	C4.261,1.72,4.614,2.09,4.273,2.521C4.001,2.865,4.266,4.212,5.043,7.173H4.807c-0.129-0.501-0.713-0.87-1.438-0.87
	s-1.309,0.368-1.438,0.87H1.697C2.474,4.212,2.739,2.865,2.467,2.521z M1.34,8.516c0.087-0.325,0.168-0.63,0.247-0.925h0.346
	c0.129,0.502,0.713,0.87,1.438,0.87s1.309-0.369,1.438-0.87h0.346C5.232,7.887,5.313,8.191,5.4,8.516
	c0.328,1.22,0.635,2.366,0.686,2.771H0.654C0.704,10.883,1.012,9.736,1.34,8.516z M6.281,18.799
	c-0.017,0.191-0.574,0.538-2.55,0.629l-0.126,0.018c-0.062-0.001-0.143-0.002-0.239-0.004c-0.057,0.002-0.109,0.002-0.155,0.003
	l-0.2-0.017c-1.976-0.091-2.533-0.438-2.549-0.616c-0.036-1.14-0.046-2.121-0.04-2.971h5.9C6.326,16.688,6.317,17.665,6.281,18.799z
	"/>
</svg>
