<?xml version="1.0" encoding="utf-8"?>
<!-- Generator: Adobe Illustrator 17.0.2, SVG Export Plug-In . SVG Version: 6.00 Build 0)  -->
<!DOCTYPE svg PUBLIC "-//W3C//DTD SVG 1.0//EN" "http://www.w3.org/TR/2001/REC-SVG-20010904/DTD/svg10.dtd">
<svg version="1.0" id="Layer_1" xmlns="http://www.w3.org/2000/svg" xmlns:xlink="http://www.w3.org/1999/xlink" x="0px" y="0px"
	 width="7.639px" height="17.498px" viewBox="0 0 7.639 17.498" enable-background="new 0 0 7.639 17.498" xml:space="preserve">
<g>
	<path d="M4.588,15.617c-0.038-0.038-0.074-0.071-0.104-0.098c-0.028-0.025-0.047-0.043-0.06-0.056
		c0.083-1.659,0.135-4.179,0.151-5.05c1.88-0.807,3.064-4.466,3.064-6.26c0-1.086-0.384-2.596-0.979-3.847L6.622,0.225
		C6.556,0.088,6.418,0,6.265,0H1.374C1.222,0,1.083,0.088,1.017,0.225L0.979,0.306C0.384,1.558,0,3.068,0,4.153
		c0,1.794,1.184,5.453,3.064,6.26c0.016,0.871,0.068,3.39,0.151,5.05c-0.013,0.013-0.032,0.031-0.06,0.056
		c-0.03,0.027-0.066,0.059-0.104,0.098c-2.179,0.14-2.179,0.731-2.179,0.928c0,0.829,1.847,0.953,2.948,0.953
		s2.948-0.124,2.948-0.953C6.768,16.348,6.768,15.757,4.588,15.617z M3.82,17.103c-1.41,0-2.553-0.25-2.553-0.558
		c0-0.264,0.843-0.485,1.973-0.543c0.147-0.202,0.317-0.251,0.374-0.459c-0.092-1.771-0.148-4.635-0.161-5.412
		C1.693,9.675,0.395,6.035,0.395,4.153c0-1.032,0.369-2.475,0.94-3.677l0.038-0.081h4.891l0.038,0.081
		c0.571,1.202,0.94,2.646,0.94,3.677c0,1.881-1.298,5.521-3.059,5.977c-0.013,0.778-0.069,3.642-0.161,5.412
		c0.057,0.208,0.228,0.257,0.374,0.459c1.13,0.057,1.973,0.278,1.973,0.543C6.372,16.853,5.229,17.103,3.82,17.103z"/>
	<path d="M6.013,7.782C6.58,6.618,6.96,5.159,6.96,4.153c0-0.955-0.35-2.34-0.875-3.475H1.554c-0.525,1.135-0.875,2.52-0.875,3.475
		c0,1.904,1.37,5.599,3.046,5.735C3.756,9.888,3.788,9.888,3.82,9.888c0.033,0,0.066,0,0.099,0.001
		C4.631,9.824,5.389,9.065,6.013,7.782z M1.811,1.074h4.018c0.207,0.483,0.376,1.002,0.503,1.504
		c-0.421-0.21-1.49-0.617-2.442,0.104c-1,0.757-2.224,0.27-2.627,0.074C1.392,2.2,1.579,1.615,1.811,1.074z"/>
</g>
</svg>
