<?xml version="1.0" encoding="utf-8"?>
<!-- Generator: Adobe Illustrator 17.0.2, SVG Export Plug-In . SVG Version: 6.00 Build 0)  -->
<!DOCTYPE svg PUBLIC "-//W3C//DTD SVG 1.0//EN" "http://www.w3.org/TR/2001/REC-SVG-20010904/DTD/svg10.dtd">
<svg version="1.0" id="Layer_1" xmlns="http://www.w3.org/2000/svg" xmlns:xlink="http://www.w3.org/1999/xlink" x="0px" y="0px"
	 width="8.659px" height="21.125px" viewBox="0 0 8.659 21.125" enable-background="new 0 0 8.659 21.125" xml:space="preserve">
<g>
	<path d="M4.33,11.653c1.792,0,3.613-4.428,3.613-6.901c0-0.523-0.09-1.155-0.244-1.818H0.961C0.806,3.597,0.717,4.229,0.717,4.752
		C0.717,7.225,2.538,11.653,4.33,11.653z"/>
	<path d="M5.062,19.733c-0.186-0.256-0.401-0.317-0.474-0.581c0.117-2.238,0.187-5.86,0.203-6.843
		c2.226-0.577,3.867-5.179,3.867-7.558c0-1.304-0.467-3.13-1.189-4.65L7.421,0H1.238L1.189,0.102C0.467,1.622,0,3.447,0,4.752
		c0,2.379,1.641,6.981,3.867,7.558c0.017,0.983,0.087,4.604,0.203,6.843c-0.072,0.263-0.288,0.325-0.474,0.581
		c-1.429,0.073-2.495,0.352-2.495,0.686c0,0.39,1.445,0.705,3.228,0.705c1.783,0,3.228-0.316,3.228-0.705
		C7.557,20.085,6.491,19.806,5.062,19.733z M0.358,4.752c0-1.207,0.442-2.959,1.106-4.393h5.73c0.664,1.435,1.106,3.186,1.106,4.393
		c0,1.272-0.481,3.116-1.198,4.588c-0.789,1.623-1.747,2.582-2.649,2.664c-0.08-0.002-0.164-0.002-0.245,0
		C2.091,11.832,0.358,7.16,0.358,4.752z"/>
</g>
</svg>
