<?xml version="1.0" encoding="utf-8"?>
<!-- Generator: Adobe Illustrator 17.0.2, SVG Export Plug-In . SVG Version: 6.00 Build 0)  -->
<!DOCTYPE svg PUBLIC "-//W3C//DTD SVG 1.0//EN" "http://www.w3.org/TR/2001/REC-SVG-20010904/DTD/svg10.dtd">
<svg version="1.0" id="Layer_1" xmlns="http://www.w3.org/2000/svg" xmlns:xlink="http://www.w3.org/1999/xlink" x="0px" y="0px"
	 width="11.205px" height="12.342px" viewBox="0 0 11.205 12.342" enable-background="new 0 0 11.205 12.342" xml:space="preserve">
<path d="M6.655,0L6.507,0.069c-0.703,0.326-1.339,0.838-1.837,1.48c-1.321,1.7-1.736,4.406-0.451,5.738l-2.282,2.938
	C1.275,9.782,0.581,9.542,0,9.541l3.605,2.801c-0.144-0.563-0.548-1.176-1.141-1.707l2.282-2.938
	c1.609,0.916,4.128-0.155,5.449-1.856c0.499-0.642,0.838-1.384,0.98-2.146l0.03-0.161L6.655,0z M10.138,4.951L4.107,3.993
	c0.176-0.759,0.52-1.513,0.987-2.114c0.412-0.53,0.925-0.959,1.493-1.251l4.027,3.128C10.519,4.169,10.355,4.571,10.138,4.951z"/>
</svg>
