<?xml version="1.0" encoding="utf-8"?>
<!-- Generator: Adobe Illustrator 15.0.0, SVG Export Plug-In . SVG Version: 6.00 Build 0)  -->
<!DOCTYPE svg PUBLIC "-//W3C//DTD SVG 1.1//EN" "http://www.w3.org/Graphics/SVG/1.1/DTD/svg11.dtd">
<svg version="1.1" id="Capa_1" xmlns="http://www.w3.org/2000/svg" xmlns:xlink="http://www.w3.org/1999/xlink" x="0px" y="0px"
	 width="800px" height="800px" viewBox="-45 0 800 800" enable-background="new -45 0 800 800" xml:space="preserve">
<g>
	<path fill="#222221" d="M285.163,30.244c11.57,8.797,22.044,18.964,31.178,30.257h352.005v295.213H387.092l66.144,124.636
		l44.694-42.971v-51.405h57.95c13.729-7.643,29.243-11.739,45.334-11.739c16.205,0,31.716,4.079,45.43,11.739h56.182V30.244H285.163
		z"/>
	<path fill="#222221" d="M500.492,145.446c0-25.909-21.003-46.911-46.914-46.911c-25.907,0-46.909,21.002-46.909,46.911
		s21.002,46.911,46.909,46.911C479.49,192.357,500.492,171.354,500.492,145.446z"/>
	<path fill="#222221" d="M502.47,211.511c0.225,1.893,0.383,3.807,0.383,5.763c0,17.489-20.34,44.343-34.886,61.315l-9.547-64.629
		h-0.002l6.191-6.189l-11.031-11.032l-11.031,11.032l6.19,6.19l-9.546,64.63c-14.545-16.972-34.889-43.828-34.889-61.318
		c0-1.955,0.157-3.869,0.387-5.762c-10.146,9.698-16.475,23.355-16.475,38.5v81.456h130.734v-81.456
		C518.948,234.867,512.618,221.21,502.47,211.511z"/>
	<g>
		<path fill="#222221" d="M302.341,278.581c23.912-28.489,38.325-65.215,38.325-105.319c0-90.565-73.419-163.986-163.986-163.986
			c-90.568,0-163.988,73.421-163.988,163.986c0,40.104,14.413,76.83,38.325,105.319H302.341L302.341,278.581z"/>
		<path fill="#222221" d="M657.207,413.616c-29.827-30.917-79.07-31.802-109.988-1.98l-98.074,94.287L358.348,334.83
			c-12.282-23.143-34.591-37.506-58.736-40.649H10.8v496.544h285.409c-0.178-8.806-0.77-242.563-0.77-242.563l62.341,117.476
			c0.068,0.129,8.653,15.403,14.903,21.881c29.824,30.916,79.067,31.803,109.986,1.979l172.557-165.893
			C686.145,493.777,687.033,444.535,657.207,413.616z"/>
	</g>
</g>
</svg>
