<?xml version="1.0" encoding="utf-8"?>
<!-- Generator: Adobe Illustrator 15.0.0, SVG Export Plug-In . SVG Version: 6.00 Build 0)  -->
<!DOCTYPE svg PUBLIC "-//W3C//DTD SVG 1.1//EN" "http://www.w3.org/Graphics/SVG/1.1/DTD/svg11.dtd">
<svg version="1.1" id="Capa_1" xmlns="http://www.w3.org/2000/svg" xmlns:xlink="http://www.w3.org/1999/xlink" x="0px" y="0px"
	 width="800px" height="634.469px" viewBox="0 0 800 634.469" enable-background="new 0 0 800 634.469" xml:space="preserve">
<polygon fill="#222221" points="430.151,328.805 400,298.654 369.849,328.805 379.426,338.385 379.426,367.19 420.573,367.19 
	420.573,338.385 "/>
<path fill="#222221" d="M533.66,137.366c0-75.132-60.906-136.034-136.035-136.034c-75.13,0-136.032,60.902-136.032,136.034
	c0,75.126,60.902,136.03,136.032,136.03C472.754,273.396,533.66,212.492,533.66,137.366z"/>
<path fill="#222221" d="M718.505,603.478c0.328-0.088,0.651-0.186,0.976-0.279c0.506-0.143,1.01-0.28,1.51-0.437
	c0.354-0.11,0.707-0.237,1.062-0.357c0.491-0.167,0.982-0.327,1.471-0.505c0.365-0.138,0.729-0.286,1.094-0.433
	c0.466-0.181,0.935-0.362,1.395-0.554c0.371-0.162,0.741-0.34,1.115-0.505c0.44-0.2,0.889-0.397,1.328-0.609
	c0.363-0.177,0.727-0.37,1.089-0.56c0.438-0.224,0.878-0.439,1.309-0.68c0.342-0.185,0.679-0.39,1.017-0.582
	c0.447-0.256,0.894-0.512,1.332-0.778c0.312-0.193,0.618-0.398,0.926-0.596c0.46-0.294,0.921-0.589,1.372-0.896
	c0.283-0.198,0.562-0.402,0.841-0.599c0.469-0.335,0.932-0.664,1.388-1.016c0.267-0.2,0.531-0.413,0.798-0.62
	c0.453-0.359,0.902-0.725,1.343-1.095c0.104-0.087,0.216-0.169,0.322-0.259c0.173-0.15,0.332-0.304,0.503-0.453
	c0.4-0.347,0.796-0.704,1.184-1.062c0.312-0.291,0.623-0.586,0.928-0.885c0.318-0.307,0.635-0.622,0.943-0.94
	c0.354-0.362,0.703-0.72,1.045-1.089c0.241-0.26,0.481-0.524,0.716-0.791c0.384-0.429,0.76-0.858,1.125-1.298
	c0.185-0.218,0.368-0.438,0.547-0.662c0.394-0.484,0.781-0.972,1.154-1.467c0.148-0.196,0.291-0.394,0.439-0.591
	c0.383-0.523,0.761-1.046,1.124-1.581c0.137-0.197,0.269-0.402,0.404-0.603c0.352-0.535,0.697-1.066,1.03-1.604
	c0.146-0.24,0.287-0.48,0.431-0.725c0.301-0.503,0.595-1.011,0.881-1.522c0.172-0.313,0.335-0.633,0.504-0.951
	c0.232-0.444,0.467-0.89,0.688-1.343c0.201-0.413,0.395-0.825,0.584-1.247c0.169-0.361,0.341-0.727,0.498-1.093
	c0.223-0.512,0.432-1.031,0.639-1.55c0.112-0.284,0.227-0.562,0.333-0.842c0.228-0.599,0.438-1.2,0.645-1.81
	c0.072-0.218,0.149-0.429,0.22-0.646c0.211-0.651,0.408-1.31,0.599-1.974c0.051-0.183,0.104-0.362,0.153-0.543
	c0.183-0.673,0.351-1.351,0.51-2.031c0.043-0.185,0.088-0.373,0.129-0.562c0.146-0.653,0.275-1.313,0.398-1.974
	c0.041-0.233,0.085-0.465,0.126-0.697c0.103-0.609,0.193-1.223,0.276-1.837c0.042-0.304,0.078-0.606,0.117-0.908
	c0.063-0.547,0.119-1.094,0.169-1.645c0.034-0.39,0.062-0.783,0.091-1.177c0.031-0.473,0.059-0.948,0.078-1.424
	c0.02-0.48,0.029-0.952,0.04-1.429c0.004-0.259,0.017-0.516,0.017-0.774c0-0.162-0.01-0.319-0.01-0.478
	c-0.003-0.518-0.02-1.033-0.038-1.549c-0.013-0.397-0.026-0.796-0.05-1.188c-0.027-0.504-0.068-1.012-0.112-1.516
	c-0.034-0.409-0.067-0.818-0.108-1.223c-0.05-0.469-0.116-0.938-0.178-1.404c-0.058-0.438-0.111-0.874-0.18-1.303
	c-0.065-0.429-0.149-0.851-0.229-1.275c-0.083-0.467-0.162-0.936-0.26-1.4c-0.081-0.385-0.175-0.767-0.264-1.153
	c-0.116-0.491-0.224-0.987-0.349-1.471c-0.096-0.365-0.21-0.731-0.312-1.097c-0.14-0.496-0.275-0.991-0.429-1.48
	c-0.115-0.373-0.25-0.739-0.375-1.108c-0.159-0.477-0.312-0.952-0.489-1.425c-0.144-0.385-0.301-0.767-0.454-1.156
	c-0.175-0.44-0.345-0.889-0.531-1.329c-0.169-0.395-0.354-0.788-0.532-1.182c-0.193-0.421-0.378-0.845-0.577-1.259
	c-0.19-0.389-0.396-0.775-0.594-1.164c-0.213-0.409-0.42-0.827-0.643-1.231c-0.201-0.366-0.418-0.728-0.628-1.094
	c-0.242-0.42-0.48-0.838-0.731-1.256c-0.209-0.333-0.428-0.66-0.641-0.991c-0.28-0.439-0.557-0.873-0.851-1.298
	c-0.211-0.311-0.431-0.609-0.646-0.916c-0.315-0.44-0.631-0.878-0.957-1.311c-0.222-0.291-0.455-0.578-0.687-0.869
	c-0.336-0.425-0.674-0.85-1.022-1.268c-0.098-0.113-0.188-0.235-0.287-0.349L570.859,309.188
	c-10.898-12.761-26.378-19.272-41.943-19.234v76.173h23.63c15.487,0,28.091,12.604,28.091,28.09V514.04
	c15.129,9.457,25.199,26.254,25.199,45.41c0,18.257-9.145,34.367-23.096,44.027h-29.521c8.674-2.107,15.123-9.906,15.123-19.225
	V398.937c0-10.939-8.869-19.807-19.807-19.807h-297.07c-10.938,0-19.805,8.867-19.805,19.807v185.316
	c0,9.318,6.447,17.117,15.12,19.225h-29.519c-13.952-9.66-23.098-25.771-23.098-44.027c0-19.156,10.071-35.953,25.2-45.409V394.218
	c0-15.485,12.6-28.09,28.089-28.09h23.631v-76.259h-2.374v0.111c-14.754,0.599-29.226,7.097-39.569,19.208L53.704,514.649
	c-0.097,0.113-0.187,0.235-0.283,0.349c-0.348,0.418-0.688,0.843-1.027,1.268c-0.228,0.291-0.46,0.578-0.683,0.869
	c-0.327,0.433-0.643,0.87-0.956,1.311c-0.219,0.307-0.439,0.605-0.649,0.916c-0.292,0.425-0.571,0.858-0.85,1.298
	c-0.214,0.331-0.433,0.658-0.639,0.991c-0.252,0.418-0.492,0.836-0.734,1.256c-0.21,0.366-0.427,0.728-0.627,1.094
	c-0.222,0.404-0.429,0.822-0.641,1.231c-0.199,0.389-0.406,0.775-0.597,1.164c-0.198,0.414-0.383,0.838-0.574,1.259
	c-0.181,0.394-0.366,0.787-0.535,1.182c-0.187,0.44-0.354,0.889-0.531,1.329c-0.151,0.39-0.312,0.771-0.455,1.156
	c-0.173,0.473-0.328,0.948-0.489,1.425c-0.125,0.369-0.256,0.735-0.375,1.108c-0.153,0.489-0.289,0.984-0.429,1.48
	c-0.104,0.365-0.216,0.731-0.311,1.097c-0.126,0.483-0.236,0.979-0.349,1.471c-0.09,0.387-0.187,0.769-0.267,1.153
	c-0.097,0.465-0.176,0.934-0.26,1.4c-0.079,0.425-0.161,0.847-0.228,1.275c-0.065,0.429-0.122,0.865-0.177,1.303
	c-0.062,0.467-0.128,0.936-0.177,1.404c-0.045,0.404-0.075,0.813-0.11,1.223c-0.041,0.504-0.084,1.012-0.114,1.516
	c-0.021,0.392-0.033,0.79-0.047,1.188c-0.018,0.516-0.036,1.031-0.038,1.549c-0.002,0.158-0.011,0.315-0.011,0.478
	c0,0.259,0.016,0.516,0.019,0.774c0.008,0.477,0.02,0.948,0.038,1.429c0.02,0.476,0.047,0.951,0.079,1.424
	c0.025,0.394,0.057,0.787,0.09,1.177c0.049,0.551,0.106,1.098,0.169,1.645c0.038,0.302,0.077,0.604,0.117,0.908
	c0.084,0.614,0.177,1.228,0.279,1.837c0.039,0.232,0.083,0.464,0.125,0.697c0.122,0.66,0.251,1.32,0.397,1.974
	c0.041,0.189,0.089,0.378,0.13,0.562c0.158,0.681,0.327,1.358,0.509,2.031c0.05,0.181,0.104,0.36,0.155,0.543
	c0.187,0.664,0.384,1.322,0.598,1.974c0.071,0.218,0.146,0.429,0.216,0.646c0.209,0.609,0.419,1.211,0.647,1.81
	c0.106,0.279,0.221,0.558,0.331,0.842c0.208,0.519,0.417,1.038,0.639,1.55c0.161,0.366,0.33,0.731,0.498,1.093
	c0.193,0.422,0.384,0.834,0.586,1.247c0.221,0.453,0.455,0.898,0.689,1.343c0.167,0.318,0.333,0.638,0.505,0.951
	c0.281,0.512,0.578,1.02,0.877,1.522c0.144,0.244,0.286,0.484,0.434,0.725c0.33,0.538,0.678,1.069,1.03,1.604
	c0.133,0.2,0.266,0.405,0.401,0.603c0.365,0.535,0.743,1.058,1.127,1.581c0.146,0.197,0.29,0.395,0.437,0.591
	c0.374,0.495,0.761,0.982,1.157,1.467c0.181,0.225,0.36,0.444,0.543,0.662c0.368,0.439,0.743,0.869,1.125,1.298
	c0.238,0.267,0.477,0.531,0.718,0.791c0.342,0.369,0.688,0.727,1.042,1.089c0.311,0.318,0.628,0.634,0.945,0.94
	c0.307,0.299,0.613,0.594,0.929,0.885c0.389,0.358,0.785,0.716,1.186,1.062c0.171,0.149,0.33,0.303,0.501,0.453
	c0.109,0.09,0.217,0.172,0.323,0.259c0.441,0.37,0.89,0.735,1.346,1.095c0.262,0.207,0.527,0.42,0.794,0.62
	c0.455,0.352,0.921,0.681,1.387,1.016c0.281,0.196,0.559,0.4,0.845,0.599c0.45,0.307,0.908,0.602,1.369,0.896
	c0.307,0.197,0.614,0.402,0.926,0.596c0.437,0.267,0.885,0.522,1.33,0.778c0.34,0.192,0.677,0.397,1.019,0.582
	c0.432,0.24,0.871,0.456,1.309,0.68c0.362,0.189,0.723,0.383,1.09,0.56c0.437,0.212,0.883,0.409,1.328,0.609
	c0.372,0.165,0.742,0.343,1.116,0.505c0.458,0.191,0.926,0.373,1.391,0.554c0.366,0.146,0.73,0.295,1.096,0.433
	c0.486,0.178,0.979,0.338,1.471,0.505c0.354,0.12,0.706,0.247,1.064,0.357c0.496,0.156,1,0.294,1.506,0.437
	c0.325,0.094,0.65,0.191,0.978,0.279H-0.189v31.639h800.379v-31.639H718.505z"/>
</svg>
