<?xml version="1.0" encoding="utf-8"?>
<!-- Generator: Adobe Illustrator 15.0.0, SVG Export Plug-In . SVG Version: 6.00 Build 0)  -->
<!DOCTYPE svg PUBLIC "-//W3C//DTD SVG 1.1//EN" "http://www.w3.org/Graphics/SVG/1.1/DTD/svg11.dtd">
<svg version="1.1" id="Capa_1" xmlns="http://www.w3.org/2000/svg" xmlns:xlink="http://www.w3.org/1999/xlink" x="0px" y="0px"
	 width="800px" height="760.461px" viewBox="0 0 800 760.461" enable-background="new 0 0 800 760.461" xml:space="preserve">
<g>
	<circle fill="#222221" cx="400" cy="128.304" r="87.188"/>
	<g>
		<path fill="#222221" d="M517.438,296.876v-13.807c0-30.168-24.457-54.625-54.625-54.625h-3.226v95.504
			C474.819,308.982,495.005,299.048,517.438,296.876z"/>
		<path fill="#222221" d="M341.239,324.756v-96.312h-4.052c-30.169,0-54.625,24.457-54.625,54.625v13.807
			C305.399,299.087,325.915,309.335,341.239,324.756z"/>
	</g>
	<g>
		<circle fill="#222221" cx="526.748" cy="392.31" r="83.754"/>
		<circle fill="#222221" cx="273.252" cy="392.31" r="83.754"/>
	</g>
	<path fill="#FFFFFF" d="M278.48,713.11c-15.521,0-28.149-12.627-28.149-28.149V540.979c0-15.521,12.628-28.149,28.149-28.149
		h243.042c15.521,0,28.147,12.628,28.147,28.149V684.96c0,15.522-12.626,28.149-28.147,28.149H278.48z"/>
	<path fill="#222221" d="M381.155,512.83h37.69l5.901-10.936c2.318-4.296,5.304-8.154,8.791-11.465
		c-0.562-2.538-1.107-5.103-1.617-7.723c-13.032-66.916-20.164-177.307-22.565-220.324l12.291-12.291L400,228.445l-21.647,21.647
		l12.291,12.291c-2.402,43.017-9.532,153.408-22.563,220.324c-0.51,2.619-1.056,5.182-1.617,7.719
		c3.486,3.312,6.471,7.172,8.791,11.469L381.155,512.83z"/>
	<g>
		<path fill="#222221" d="M694.24,648.795l-76.173-141.135c-4.658-8.632-12.526-14.42-21.328-16.698
			c-0.081-0.021-0.676-0.167-0.894-0.217c-2.436-0.57-4.97-0.881-7.578-0.881h-50.814h-21.41h-50.814
			c-2.608,0-5.143,0.311-7.576,0.881c-0.22,0.05-0.815,0.195-0.896,0.217c-8.801,2.278-16.667,8.066-21.325,16.698l-2.791,5.169
			h88.882c15.521,0,28.147,12.628,28.147,28.149V684.96c0,4.5-1.066,8.754-2.953,12.53h41.552h67.029
			c11.979-0.299,19.935-0.675,25.224-2.8C697.879,687.715,703.126,665.256,694.24,648.795z"/>
		<path fill="#222221" d="M250.33,684.96V540.979c0-15.521,12.628-28.149,28.149-28.149h88.881l-2.79-5.169
			c-4.659-8.632-12.526-14.42-21.327-16.698c-0.081-0.021-0.676-0.167-0.895-0.217c-2.434-0.57-4.969-0.881-7.577-0.881h-50.814
			h-21.41h-50.815c-2.608,0-5.143,0.311-7.577,0.881c-0.219,0.05-0.814,0.195-0.895,0.217c-8.801,2.278-16.668,8.066-21.327,16.698
			L105.76,648.795c-8.886,16.461-3.639,38.92,13.72,45.896c5.289,2.125,13.245,2.501,25.223,2.8h67.03h41.551
			C251.397,693.714,250.33,689.46,250.33,684.96z"/>
	</g>
	<path fill="#222221" d="M536.613,693.45c1.417-2.507,2.229-5.402,2.229-8.489V540.979c0-9.567-7.755-17.322-17.321-17.322H278.48
		c-9.567,0-17.323,7.755-17.323,17.322V684.96c0,3.087,0.812,5.982,2.23,8.489H68.003v25.896h13.353h637.289h13.353V693.45H536.613z
		"/>
</g>
</svg>
