<?xml version="1.0" encoding="utf-8"?>
<!-- Generator: Adobe Illustrator 15.0.0, SVG Export Plug-In . SVG Version: 6.00 Build 0)  -->
<!DOCTYPE svg PUBLIC "-//W3C//DTD SVG 1.1//EN" "http://www.w3.org/Graphics/SVG/1.1/DTD/svg11.dtd">
<svg version="1.1" id="Capa_1" xmlns="http://www.w3.org/2000/svg" xmlns:xlink="http://www.w3.org/1999/xlink" x="0px" y="0px"
	 width="800px" height="800px" viewBox="0 -93.265 800 800" enable-background="new 0 -93.265 800 800" xml:space="preserve">
<g>
	<polygon fill="#222221" points="196.317,161.713 181.622,147.016 166.923,161.713 	"/>
	<path fill="#222221" d="M86.36,278.711V177.125c0-8.266,6.726-14.992,14.992-14.992h17.43v-23.629
		c-7.19,0.292-14.245,3.435-19.286,9.338L13.987,247.986c-0.047,0.056-0.091,0.114-0.139,0.17c-0.169,0.203-0.335,0.41-0.501,0.615
		c-0.111,0.143-0.224,0.283-0.332,0.424c-0.159,0.211-0.312,0.424-0.466,0.64c-0.106,0.148-0.214,0.295-0.316,0.446
		c-0.143,0.207-0.278,0.419-0.414,0.633c-0.104,0.161-0.211,0.321-0.312,0.485c-0.123,0.201-0.241,0.406-0.358,0.611
		c-0.102,0.178-0.207,0.354-0.306,0.533c-0.107,0.198-0.208,0.4-0.312,0.601c-0.098,0.19-0.199,0.375-0.29,0.567
		c-0.099,0.202-0.188,0.408-0.281,0.613c-0.088,0.191-0.178,0.384-0.262,0.577c-0.09,0.212-0.172,0.431-0.257,0.648
		c-0.076,0.187-0.154,0.374-0.223,0.563c-0.084,0.229-0.16,0.462-0.239,0.692c-0.06,0.182-0.125,0.36-0.183,0.542
		c-0.075,0.238-0.142,0.479-0.209,0.72c-0.051,0.179-0.104,0.356-0.151,0.535c-0.062,0.237-0.116,0.477-0.169,0.717
		c-0.044,0.187-0.09,0.374-0.13,0.563c-0.048,0.225-0.085,0.453-0.128,0.681c-0.038,0.206-0.078,0.414-0.11,0.621
		c-0.033,0.209-0.06,0.423-0.087,0.635c-0.031,0.229-0.062,0.457-0.085,0.686c-0.021,0.198-0.038,0.397-0.055,0.594
		c-0.021,0.247-0.042,0.492-0.055,0.74c-0.012,0.191-0.017,0.385-0.023,0.577c-0.01,0.252-0.017,0.505-0.018,0.756
		c-0.001,0.078-0.006,0.155-0.006,0.231c0,0.127,0.007,0.252,0.01,0.378c0.002,0.233,0.008,0.463,0.018,0.696
		c0.009,0.234,0.023,0.464,0.039,0.696c0.013,0.19,0.027,0.381,0.044,0.573c0.023,0.269,0.051,0.535,0.083,0.801
		c0.017,0.146,0.036,0.295,0.056,0.443c0.041,0.3,0.085,0.598,0.136,0.896c0.019,0.112,0.04,0.226,0.061,0.339
		c0.058,0.323,0.123,0.645,0.193,0.962c0.02,0.093,0.043,0.185,0.063,0.276c0.077,0.331,0.159,0.66,0.248,0.988
		c0.023,0.088,0.049,0.177,0.075,0.265c0.092,0.324,0.188,0.646,0.292,0.963c0.034,0.105,0.071,0.21,0.106,0.314
		c0.101,0.298,0.204,0.59,0.314,0.882c0.051,0.138,0.107,0.273,0.161,0.41c0.102,0.252,0.205,0.506,0.312,0.756
		c0.079,0.179,0.161,0.357,0.242,0.533c0.094,0.204,0.188,0.407,0.287,0.607c0.107,0.221,0.221,0.437,0.336,0.654
		c0.081,0.156,0.162,0.311,0.246,0.464c0.138,0.249,0.282,0.497,0.428,0.743c0.07,0.118,0.139,0.235,0.21,0.352
		c0.162,0.264,0.33,0.523,0.502,0.783c0.065,0.097,0.129,0.197,0.195,0.293c0.178,0.26,0.362,0.515,0.55,0.77
		c0.071,0.096,0.141,0.193,0.212,0.289c0.183,0.241,0.372,0.479,0.563,0.715c0.089,0.108,0.175,0.218,0.266,0.323
		c0.179,0.215,0.363,0.424,0.549,0.633c0.116,0.129,0.232,0.257,0.349,0.386c0.167,0.18,0.335,0.356,0.507,0.531
		c0.152,0.155,0.307,0.308,0.461,0.458c0.148,0.144,0.299,0.289,0.453,0.431c0.189,0.175,0.382,0.347,0.578,0.519
		c0.082,0.072,0.161,0.148,0.244,0.22c0.051,0.042,0.106,0.083,0.157,0.126c0.215,0.182,0.435,0.358,0.656,0.533
		c0.128,0.102,0.257,0.205,0.388,0.304c0.222,0.169,0.449,0.331,0.676,0.494c0.137,0.098,0.272,0.197,0.41,0.294
		c0.22,0.147,0.443,0.292,0.667,0.437c0.15,0.095,0.3,0.194,0.452,0.288c0.213,0.132,0.431,0.255,0.648,0.379
		c0.166,0.095,0.329,0.194,0.496,0.284c0.212,0.116,0.425,0.223,0.638,0.331c0.177,0.091,0.352,0.186,0.531,0.273
		c0.214,0.104,0.431,0.198,0.647,0.297c0.182,0.082,0.361,0.168,0.544,0.245c0.223,0.096,0.451,0.184,0.677,0.272
		c0.179,0.069,0.356,0.144,0.535,0.21c0.234,0.085,0.477,0.164,0.717,0.246c0.173,0.059,0.345,0.121,0.518,0.174
		c0.241,0.077,0.489,0.144,0.735,0.212c0.174,0.05,0.348,0.103,0.523,0.147c0.239,0.063,0.48,0.117,0.725,0.172
		c0.185,0.044,0.369,0.091,0.556,0.129c0.226,0.047,0.455,0.086,0.686,0.127c0.206,0.038,0.41,0.078,0.618,0.109
		c0.21,0.033,0.423,0.06,0.632,0.087c0.229,0.032,0.458,0.062,0.689,0.086c0.197,0.021,0.394,0.037,0.591,0.054
		c0.248,0.021,0.497,0.04,0.745,0.056c0.189,0.011,0.379,0.017,0.571,0.021c0.255,0.01,0.509,0.02,0.764,0.02
		c0.077,0.001,0.152,0.007,0.229,0.007l60.261-0.062C89.74,289.633,86.36,284.566,86.36,278.711z"/>
	<path fill="#222221" d="M272.631,278.558c0,5.838-4.733,10.571-10.572,10.571H103.494c-5.838,0-10.572-4.733-10.572-10.571v-98.915
		c0-5.837,4.733-10.57,10.572-10.57h158.564c5.839,0,10.572,4.733,10.572,10.57V278.558z"/>
	<circle fill="#222221" cx="181.62" cy="72.149" r="66.304"/>
	<polygon fill="#222221" points="630.764,161.713 616.068,147.016 601.369,161.713 	"/>
	<path fill="#222221" d="M792.424,265.173c-0.003-0.251-0.01-0.503-0.02-0.756c-0.008-0.192-0.014-0.386-0.024-0.577
		c-0.015-0.247-0.033-0.492-0.055-0.74c-0.018-0.197-0.033-0.397-0.053-0.594c-0.023-0.229-0.059-0.457-0.089-0.686
		c-0.025-0.211-0.053-0.426-0.085-0.635c-0.034-0.208-0.076-0.415-0.113-0.621c-0.041-0.228-0.078-0.456-0.127-0.681
		c-0.04-0.188-0.086-0.375-0.128-0.563c-0.058-0.24-0.109-0.48-0.17-0.717c-0.049-0.179-0.103-0.356-0.152-0.535
		c-0.067-0.242-0.134-0.483-0.207-0.72c-0.059-0.183-0.123-0.361-0.185-0.542c-0.079-0.23-0.153-0.463-0.239-0.692
		c-0.068-0.189-0.146-0.375-0.219-0.563c-0.088-0.217-0.171-0.436-0.262-0.648c-0.082-0.193-0.171-0.386-0.26-0.577
		c-0.094-0.205-0.186-0.411-0.283-0.613c-0.09-0.191-0.192-0.377-0.287-0.567c-0.104-0.2-0.203-0.402-0.313-0.601
		c-0.098-0.179-0.202-0.355-0.306-0.533c-0.119-0.205-0.233-0.41-0.357-0.611c-0.101-0.165-0.208-0.324-0.312-0.485
		c-0.137-0.213-0.27-0.426-0.413-0.633c-0.102-0.151-0.211-0.296-0.314-0.446c-0.153-0.215-0.308-0.429-0.469-0.64
		c-0.106-0.143-0.22-0.282-0.331-0.424c-0.166-0.206-0.333-0.414-0.502-0.615c-0.048-0.056-0.092-0.114-0.139-0.17l-85.509-100.144
		c-5.583-6.536-13.631-9.698-21.603-9.337v-0.054l0,0v23.682h19.747c8.267,0,14.993,6.726,14.993,14.992v101.585
		c0,5.855-3.38,10.922-8.284,13.389l60.261,0.062c0.077,0,0.152-0.006,0.229-0.007c0.253,0,0.51-0.01,0.764-0.02
		c0.188-0.004,0.38-0.011,0.57-0.021c0.249-0.016,0.495-0.036,0.745-0.056c0.196-0.018,0.395-0.033,0.59-0.054
		c0.229-0.024,0.458-0.055,0.688-0.086c0.212-0.028,0.424-0.054,0.635-0.087c0.206-0.032,0.412-0.072,0.619-0.109
		c0.229-0.042,0.458-0.081,0.685-0.127c0.187-0.039,0.369-0.085,0.556-0.129c0.24-0.055,0.482-0.108,0.723-0.172
		c0.177-0.045,0.348-0.098,0.522-0.147c0.245-0.069,0.491-0.137,0.735-0.212c0.175-0.054,0.347-0.117,0.518-0.174
		c0.238-0.082,0.48-0.161,0.716-0.246c0.181-0.066,0.356-0.14,0.536-0.209c0.225-0.088,0.453-0.176,0.677-0.272
		c0.182-0.077,0.362-0.164,0.544-0.245c0.216-0.099,0.436-0.193,0.647-0.296c0.18-0.085,0.355-0.182,0.532-0.272
		c0.213-0.108,0.428-0.216,0.637-0.332c0.165-0.09,0.329-0.189,0.496-0.284c0.218-0.125,0.436-0.248,0.647-0.38
		c0.152-0.094,0.301-0.193,0.455-0.288c0.223-0.145,0.444-0.289,0.664-0.437c0.139-0.097,0.275-0.196,0.411-0.294
		c0.229-0.163,0.453-0.325,0.678-0.494c0.129-0.099,0.258-0.201,0.39-0.304c0.221-0.174,0.437-0.351,0.652-0.533
		c0.052-0.042,0.106-0.083,0.156-0.126c0.087-0.071,0.162-0.148,0.246-0.22c0.196-0.172,0.389-0.344,0.578-0.519
		c0.152-0.143,0.304-0.287,0.451-0.431c0.156-0.15,0.31-0.303,0.46-0.458c0.174-0.175,0.345-0.351,0.51-0.531
		c0.119-0.128,0.234-0.257,0.35-0.386c0.187-0.208,0.37-0.418,0.548-0.633c0.092-0.105,0.179-0.213,0.267-0.322
		c0.19-0.235,0.38-0.474,0.562-0.715c0.072-0.095,0.142-0.192,0.213-0.289c0.188-0.254,0.372-0.51,0.549-0.77
		c0.067-0.096,0.133-0.196,0.195-0.293c0.172-0.26,0.343-0.519,0.504-0.783c0.071-0.117,0.143-0.234,0.211-0.352
		c0.145-0.246,0.29-0.494,0.428-0.743c0.085-0.153,0.165-0.308,0.248-0.463c0.112-0.217,0.226-0.433,0.334-0.654
		c0.1-0.2,0.19-0.403,0.284-0.607c0.083-0.177,0.167-0.354,0.244-0.533c0.109-0.25,0.21-0.503,0.31-0.756
		c0.055-0.137,0.111-0.273,0.163-0.41c0.11-0.292,0.215-0.585,0.312-0.882c0.037-0.104,0.075-0.209,0.108-0.315
		c0.102-0.316,0.198-0.638,0.292-0.962c0.022-0.088,0.05-0.177,0.073-0.265c0.091-0.328,0.172-0.656,0.248-0.988
		c0.022-0.091,0.043-0.183,0.064-0.276c0.07-0.318,0.135-0.639,0.192-0.963c0.021-0.112,0.041-0.226,0.062-0.339
		c0.052-0.297,0.094-0.596,0.135-0.896c0.021-0.148,0.04-0.297,0.058-0.443c0.031-0.267,0.06-0.533,0.084-0.801
		c0.014-0.19,0.027-0.381,0.043-0.573c0.016-0.232,0.027-0.462,0.038-0.696c0.009-0.232,0.015-0.462,0.02-0.696
		c0.002-0.126,0.01-0.25,0.01-0.378C792.429,265.328,792.424,265.25,792.424,265.173z"/>
	<path fill="#222221" d="M707.077,278.558c0,5.838-4.734,10.571-10.572,10.571H537.939c-5.838,0-10.573-4.733-10.573-10.571v-98.915
		c0-5.837,4.734-10.57,10.573-10.57h158.565c5.837,0,10.572,4.733,10.572,10.57V278.558z"/>
	<circle fill="#222221" cx="616.067" cy="72.149" r="66.304"/>
	<polygon fill="#222221" points="418.294,432.184 400,413.891 381.706,432.184 	"/>
	<path fill="#222221" d="M601.299,589.75c0.021-0.012,0.039-0.022,0.061-0.034c0.269-0.154,0.541-0.309,0.806-0.472
		c0.189-0.117,0.376-0.241,0.562-0.359c0.279-0.181,0.559-0.357,0.831-0.546c0.173-0.118,0.343-0.243,0.512-0.363
		c0.285-0.203,0.564-0.402,0.843-0.615c0.161-0.122,0.32-0.251,0.483-0.377c0.274-0.217,0.548-0.439,0.813-0.664
		c0.064-0.052,0.132-0.103,0.195-0.157c0.106-0.09,0.201-0.183,0.307-0.274c0.241-0.21,0.483-0.427,0.718-0.644
		c0.19-0.177,0.377-0.355,0.562-0.538c0.193-0.184,0.386-0.376,0.573-0.569c0.216-0.22,0.427-0.437,0.634-0.661
		c0.147-0.157,0.293-0.316,0.436-0.48c0.231-0.261,0.46-0.521,0.681-0.788c0.112-0.131,0.225-0.266,0.333-0.4
		c0.238-0.293,0.473-0.589,0.7-0.891c0.09-0.118,0.177-0.238,0.267-0.357c0.232-0.317,0.462-0.635,0.684-0.96
		c0.081-0.119,0.162-0.244,0.243-0.364c0.214-0.324,0.422-0.647,0.627-0.974c0.087-0.146,0.174-0.292,0.26-0.439
		c0.184-0.306,0.36-0.615,0.534-0.924c0.105-0.19,0.203-0.385,0.308-0.576c0.142-0.271,0.282-0.54,0.416-0.813
		c0.123-0.252,0.241-0.502,0.354-0.76c0.103-0.218,0.206-0.438,0.303-0.663c0.137-0.31,0.263-0.625,0.389-0.939
		c0.067-0.173,0.138-0.342,0.201-0.511c0.139-0.363,0.267-0.729,0.392-1.099c0.044-0.133,0.09-0.261,0.133-0.392
		c0.129-0.395,0.247-0.795,0.362-1.198c0.032-0.109,0.064-0.221,0.095-0.33c0.109-0.407,0.212-0.817,0.309-1.23
		c0.025-0.113,0.054-0.227,0.078-0.342c0.089-0.396,0.167-0.799,0.241-1.2c0.025-0.14,0.051-0.28,0.077-0.423
		c0.06-0.368,0.116-0.74,0.168-1.113c0.024-0.184,0.047-0.368,0.069-0.553c0.039-0.332,0.073-0.662,0.103-0.997
		c0.021-0.237,0.038-0.475,0.055-0.714c0.02-0.286,0.036-0.576,0.049-0.864c0.011-0.292,0.018-0.579,0.023-0.868
		c0.002-0.157,0.011-0.311,0.011-0.471c0-0.097-0.006-0.193-0.006-0.287c-0.003-0.315-0.014-0.628-0.024-0.941
		c-0.006-0.241-0.016-0.481-0.029-0.72c-0.018-0.307-0.042-0.614-0.067-0.92c-0.021-0.247-0.04-0.497-0.065-0.742
		c-0.029-0.285-0.07-0.568-0.106-0.854c-0.036-0.265-0.067-0.529-0.11-0.789c-0.039-0.261-0.091-0.516-0.14-0.773
		c-0.049-0.285-0.097-0.568-0.156-0.849c-0.05-0.234-0.105-0.467-0.159-0.701c-0.071-0.297-0.137-0.599-0.213-0.893
		c-0.059-0.221-0.127-0.443-0.188-0.665c-0.084-0.301-0.167-0.603-0.261-0.898c-0.069-0.227-0.15-0.448-0.227-0.671
		c-0.098-0.291-0.189-0.581-0.296-0.866c-0.089-0.233-0.184-0.465-0.276-0.701c-0.106-0.268-0.21-0.539-0.322-0.807
		c-0.103-0.237-0.216-0.479-0.323-0.718c-0.116-0.255-0.229-0.511-0.35-0.763c-0.115-0.236-0.24-0.471-0.359-0.706
		c-0.131-0.25-0.257-0.501-0.391-0.748c-0.122-0.222-0.253-0.44-0.381-0.663c-0.146-0.258-0.291-0.509-0.443-0.763
		c-0.127-0.202-0.26-0.399-0.39-0.601c-0.17-0.268-0.338-0.528-0.515-0.788c-0.128-0.188-0.262-0.37-0.394-0.555
		c-0.19-0.267-0.382-0.532-0.58-0.797c-0.135-0.176-0.275-0.349-0.416-0.527c-0.204-0.258-0.41-0.513-0.621-0.767
		c-0.061-0.069-0.114-0.144-0.174-0.213L503.667,414.498c-6.613-7.743-16.005-11.691-25.449-11.669v29.461h23.139
		c10.29,0,18.663,8.374,18.663,18.663v126.454c0,4.736-1.785,9.056-4.707,12.344h-12.616c5.307-1.695,9.155-6.664,9.155-12.534
		v-123.13c0-7.27-5.893-13.16-13.161-13.16H301.309c-7.27,0-13.16,5.891-13.16,13.16v123.13c0,5.87,3.846,10.839,9.154,12.534
		h-12.617c-2.921-3.29-4.707-7.607-4.707-12.344V450.951c0-10.289,8.371-18.663,18.663-18.663h23.141v-29.479h-1.441v0.035
		c-8.951,0.363-17.733,4.305-24.008,11.653L189.889,539.16c-0.059,0.068-0.113,0.143-0.172,0.211
		c-0.212,0.255-0.418,0.512-0.624,0.77c-0.138,0.176-0.279,0.351-0.414,0.527c-0.198,0.263-0.391,0.528-0.58,0.795
		c-0.133,0.186-0.267,0.368-0.394,0.555c-0.177,0.26-0.346,0.521-0.516,0.789c-0.13,0.2-0.262,0.397-0.389,0.601
		c-0.152,0.255-0.297,0.508-0.445,0.762c-0.128,0.223-0.26,0.44-0.38,0.663c-0.134,0.247-0.261,0.5-0.389,0.748
		c-0.122,0.235-0.246,0.472-0.362,0.708c-0.121,0.25-0.233,0.508-0.348,0.763c-0.11,0.237-0.222,0.479-0.324,0.716
		c-0.114,0.268-0.215,0.539-0.323,0.807c-0.092,0.236-0.189,0.468-0.275,0.703c-0.105,0.285-0.199,0.575-0.296,0.864
		c-0.076,0.224-0.156,0.446-0.228,0.673c-0.093,0.296-0.175,0.596-0.261,0.896c-0.062,0.224-0.13,0.444-0.188,0.667
		c-0.077,0.294-0.144,0.594-0.211,0.893c-0.056,0.234-0.115,0.465-0.163,0.698c-0.059,0.283-0.107,0.566-0.158,0.852
		c-0.047,0.258-0.099,0.511-0.139,0.772c-0.04,0.261-0.073,0.524-0.107,0.79c-0.038,0.285-0.078,0.568-0.107,0.853
		c-0.027,0.246-0.045,0.494-0.067,0.741c-0.024,0.306-0.051,0.615-0.068,0.92c-0.015,0.238-0.021,0.48-0.029,0.72
		c-0.011,0.313-0.021,0.626-0.022,0.941c-0.001,0.096-0.007,0.192-0.007,0.289c0,0.158,0.01,0.312,0.012,0.471
		c0.005,0.289,0.011,0.576,0.022,0.866c0.012,0.29,0.028,0.578,0.048,0.864c0.016,0.239,0.035,0.477,0.055,0.714
		c0.03,0.335,0.064,0.667,0.103,0.999c0.022,0.185,0.046,0.369,0.069,0.551c0.051,0.373,0.108,0.745,0.17,1.115
		c0.024,0.143,0.05,0.283,0.074,0.422c0.074,0.402,0.153,0.804,0.241,1.201c0.025,0.113,0.055,0.227,0.079,0.34
		c0.095,0.413,0.198,0.823,0.308,1.232c0.031,0.109,0.063,0.221,0.095,0.328c0.113,0.403,0.233,0.804,0.362,1.198
		c0.042,0.133,0.089,0.261,0.131,0.392c0.126,0.371,0.254,0.735,0.392,1.099c0.064,0.169,0.133,0.34,0.201,0.511
		c0.125,0.314,0.252,0.632,0.388,0.941c0.098,0.223,0.2,0.442,0.302,0.663c0.117,0.256,0.233,0.508,0.356,0.758
		c0.133,0.273,0.275,0.545,0.417,0.813c0.101,0.193,0.202,0.386,0.307,0.578c0.171,0.309,0.351,0.618,0.533,0.924
		c0.087,0.147,0.173,0.293,0.263,0.438c0.2,0.328,0.412,0.648,0.625,0.974c0.082,0.122,0.161,0.245,0.244,0.366
		c0.222,0.325,0.451,0.642,0.684,0.958c0.089,0.121,0.175,0.24,0.266,0.359c0.226,0.302,0.461,0.598,0.701,0.891
		c0.109,0.135,0.219,0.27,0.33,0.4c0.224,0.266,0.451,0.527,0.682,0.788c0.145,0.161,0.29,0.321,0.436,0.48
		c0.207,0.223,0.417,0.439,0.632,0.661c0.189,0.191,0.38,0.384,0.574,0.569c0.186,0.181,0.371,0.359,0.562,0.538
		c0.236,0.217,0.476,0.432,0.72,0.644c0.104,0.092,0.201,0.185,0.305,0.273c0.065,0.056,0.131,0.106,0.196,0.158
		c0.267,0.225,0.539,0.445,0.817,0.662c0.158,0.127,0.319,0.255,0.481,0.379c0.276,0.213,0.558,0.412,0.841,0.615
		c0.171,0.119,0.339,0.243,0.512,0.364c0.273,0.186,0.551,0.364,0.831,0.545c0.187,0.116,0.373,0.241,0.562,0.359
		c0.266,0.161,0.537,0.315,0.808,0.472c0.02,0.009,0.039,0.021,0.059,0.033h-41.51v19.195h485.62v-19.195h-41.513V589.75z"/>
	<path fill="#222221" d="M270.911,292.1l41.174,0.042c6.349-19.795,19.201-36.702,36.042-48.186l-82.071-96.116
		c-5.582-6.537-13.629-9.698-21.602-9.337v23.628h19.747c8.265,0,14.992,6.726,14.992,14.992v101.585
		C279.194,284.566,275.814,289.633,270.911,292.1z"/>
	<path fill="#222221" d="M533.944,147.842l-82.071,96.115c16.841,11.483,29.693,28.391,36.043,48.187l41.173-0.042
		c-4.902-2.467-8.282-7.534-8.282-13.389V177.125c0-8.266,6.726-14.992,14.992-14.992h17.431v-23.629
		C546.038,138.796,538.985,141.938,533.944,147.842z"/>
	<circle fill="#222221" cx="400" cy="320.275" r="82.537"/>
</g>
</svg>
