<?xml version="1.0" encoding="utf-8"?>
<!-- Generator: Adobe Illustrator 15.0.0, SVG Export Plug-In . SVG Version: 6.00 Build 0)  -->
<!DOCTYPE svg PUBLIC "-//W3C//DTD SVG 1.1//EN" "http://www.w3.org/Graphics/SVG/1.1/DTD/svg11.dtd">
<svg version="1.1" id="Capa_1" xmlns="http://www.w3.org/2000/svg" xmlns:xlink="http://www.w3.org/1999/xlink" x="0px" y="0px"
	 width="800px" height="800px" viewBox="0 0 800 800" enable-background="new 0 0 800 800" xml:space="preserve">
<g>
	<path fill="#222221" d="M714.916,396.609H614.384H405.819c-8.696,0-15.745,7.048-15.745,15.745v9.688
		c0,8.696,7.05,15.747,15.745,15.747h208.564h100.531h52.083v-41.18L714.916,396.609L714.916,396.609z"/>
	<g>
		<path fill="#222221" d="M581.004,275.369l-199.767-0.109l-4.729,0.016l0-23.212l-88.887-103.328
			c-43.701,0-79.127,35.427-79.127,79.125v249.817c0,1.179,0.038,2.349,0.09,3.517v22.812c-0.057,1.02-0.09,2.047-0.09,3.082
			c0,1.034,0.033,2.061,0.09,3.084v0.021h0.001c1.61,29.346,25.91,52.646,55.656,52.646h46.518h51.609h22.056h64.249V749.53
			c0,24.669,20.062,44.666,44.813,44.666c24.748,0,44.812-19.997,44.812-44.666V496.01c0-24.666-20.063-44.666-44.812-44.666
			c-1.738,0-8.975,0-10.934,0h-20.56h-77.569h-7.917v-95.359c0,0-2.418-0.018-2.517-0.018c-11.369,0-22.262-4.784-29.941-13.171
			l-68.194-74.438c-2.173-2.371-2.012-6.057,0.36-8.229c2.372-2.174,6.057-2.012,8.229,0.359l68.195,74.439
			c5.541,6.047,13.221,9.35,21.445,9.656c0.341,0.013,8.156,0.325,8.156,0.325h198.764c19.204,0,34.77-15.566,34.77-34.77
			C615.773,290.937,600.207,275.369,581.004,275.369z"/>
		<circle fill="#222221" cx="390.073" cy="92.975" r="87.173"/>
	</g>
	<path fill="#222221" d="M181.671,576.715c-13.485,0-25.188,7.604-31.071,18.756C88.219,590.658,38.924,538.4,38.924,474.807
		c0-58.205,41.292-106.936,96.117-118.469v68.699c0,16.573,13.434,30.011,30.008,30.011c16.573,0,30.008-13.438,30.008-30.011
		V250.523c0-16.574-13.436-30.009-30.008-30.009c-16.574,0-30.008,13.436-30.008,30.009v73.339
		C62.508,335.811,6.999,398.942,6.999,474.807c0,81.079,63.402,147.617,143.231,152.666c5.752,11.541,17.667,19.475,31.439,19.475
		H435.28v-70.232L181.671,576.715L181.671,576.715z"/>
	<path fill="#222221" d="M736.887,176.911c-7.33-2.51-15.307,1.398-17.815,8.727l-59.477,173.629H446.771
		c-7.745,0-14.026,6.278-14.026,14.026c0,7.747,6.281,14.026,14.026,14.026h222.676c4.771,0,8.98-2.388,11.514-6.028
		c0.874-1.155,1.588-2.46,2.083-3.906l62.572-182.66C748.12,187.397,744.218,179.42,736.887,176.911z"/>
</g>
</svg>
