<?xml version="1.0" encoding="utf-8"?>
<!-- Generator: Adobe Illustrator 15.0.0, SVG Export Plug-In . SVG Version: 6.00 Build 0)  -->
<!DOCTYPE svg PUBLIC "-//W3C//DTD SVG 1.1//EN" "http://www.w3.org/Graphics/SVG/1.1/DTD/svg11.dtd">
<svg version="1.1" id="Capa_1" xmlns="http://www.w3.org/2000/svg" xmlns:xlink="http://www.w3.org/1999/xlink" x="0px" y="0px"
	 width="800px" height="800px" viewBox="-81 0 800 800" enable-background="new -81 0 800 800" xml:space="preserve">
<g>
	<rect x="160.129" y="107.236" fill="#222221" width="62.186" height="240.137"/>
	<path fill="#222221" d="M148.386,741.854c0-8.468,1.544-16.578,4.35-24.077H34.553V532.484h180.923v140.51
		c0.604-0.016,1.208-0.046,1.816-0.046h25.062V515.506c0-7.852-6.363-14.214-14.215-14.214H21.888
		c-7.85,0-14.213,6.362-14.213,14.214v233.977c0,7.851,6.364,14.216,14.213,14.216h130.069
		C149.653,756.828,148.386,749.489,148.386,741.854z"/>
	<path fill="#222221" d="M425.533,281.207V153.745h-62.186v144.31C381.881,287.815,403.037,281.766,425.533,281.207z"/>
	<path fill="#222221" d="M527.142,323.094V200.252h-62.184v85.75C488.977,292.596,510.364,305.615,527.142,323.094z"/>
	<path fill="#222221" d="M582.646,6.468H96.947c-28.542,0-51.679,23.138-51.679,51.68V396.62c0,28.541,23.137,51.679,51.679,51.679
		h199.462c-2.331-9.966-3.578-20.339-3.578-31.005c0-5.242,0.307-10.414,0.889-15.503H102.065V52.977H577.53v348.812h-13.327
		c0.579,5.091,0.887,10.263,0.887,15.505c0,10.665-1.247,21.038-3.578,31.004h21.134c28.541,0,51.68-23.139,51.68-51.68V58.147
		C634.326,29.606,611.188,6.468,582.646,6.468z"/>
	<path fill="#222221" d="M573.605,693.394v-95.154c0-28.541-23.139-51.678-51.678-51.678H335.995
		c-28.542,0-51.678,23.137-51.678,51.678v91.938h-67.026c-28.542,0-51.679,23.137-51.679,51.678s23.137,51.679,51.679,51.679
		h338.337c28.541,0,51.679-23.138,51.679-51.679C607.308,719.636,593.283,700.695,573.605,693.394z"/>
	<circle fill="#222221" cx="428.962" cy="417.294" r="118.904"/>
	<path fill="#222221" d="M323.924,330.516v-103.21h-62.187v120.069h50.272C315.56,341.448,319.542,335.812,323.924,330.516z"/>
</g>
</svg>
