<?xml version="1.0" encoding="utf-8"?>
<!-- Generator: Adobe Illustrator 15.0.0, SVG Export Plug-In . SVG Version: 6.00 Build 0)  -->
<!DOCTYPE svg PUBLIC "-//W3C//DTD SVG 1.1//EN" "http://www.w3.org/Graphics/SVG/1.1/DTD/svg11.dtd">
<svg version="1.1" id="Capa_1" xmlns="http://www.w3.org/2000/svg" xmlns:xlink="http://www.w3.org/1999/xlink" x="0px" y="0px"
	 width="800px" height="800px" viewBox="-2.5 -24 800 800" enable-background="new -2.5 -24 800 800" xml:space="preserve">
<path fill="#222221" d="M642.841,16.486c-0.107-0.107-0.21-0.218-0.316-0.324l-0.209,0.21c-11.735-2.493-23.897-3.815-36.368-3.815
	c-12.465,0-24.629,1.323-36.362,3.815l-0.209-0.21c-0.109,0.107-0.211,0.218-0.316,0.324
	c-78.744,16.98-137.941,87.153-137.941,170.902c0,83.747,59.197,153.92,137.941,170.901c0.386,0.097,0.522,0.116,0.522,0.116
	c8.702,1.848,17.639,3.048,26.758,3.548v236.773c0,15.136-12.312,27.449-27.449,27.449H467.243l-16.985-48.424l-12.165-227.667
	c0-28.53-23.128-51.656-51.657-51.656H116.141c-28.528,0-51.656,23.126-51.656,51.656L52.318,577.751L14.781,713.537
	c-0.354,1.534-0.56,3.126-0.56,4.769c0,11.674,9.463,21.137,21.137,21.137h441.86c11.675,0,21.138-9.463,21.138-21.137
	c0-1.642-0.206-3.234-0.56-4.769c0,0-0.719-2.444-1.197-3.657l-22.616-64.49h94.909c25.731,0,46.664-20.934,46.664-46.664V361.954
	c9.122-0.5,18.059-1.701,26.76-3.548c0,0,0.083-0.004,0.525-0.116c78.744-16.981,137.938-87.154,137.938-170.901
	C780.78,103.641,721.585,33.469,642.841,16.486z M540.723,50.678c-25.809,37.703-39.78,81.135-41.876,125.04H454.95
	C459.18,120.521,493.077,73.503,540.723,50.678z M454.95,199.057h43.896c2.096,43.907,16.067,87.339,41.879,125.042
	C493.077,301.272,459.18,254.254,454.95,199.057z M594.279,338.387c-4.583-0.35-9.111-0.896-13.574-1.652
	c-36.358-38.892-55.86-87.914-58.492-137.679h72.066V338.387z M594.279,175.718h-72.066c2.632-49.763,22.134-98.786,58.489-137.679
	c4.464-0.752,8.994-1.299,13.577-1.652V175.718L594.279,175.718z M308.064,721.145H195.523c-5.684,0-10.294-4.607-10.294-10.294
	c0-5.686,4.609-10.293,10.294-10.293h112.541c5.685,0,10.293,4.607,10.293,10.293C318.357,716.537,313.75,721.145,308.064,721.145z
	 M376.687,544.557H126.896c-18.191,0-32.938-14.748-32.938-32.94l7.78-149.138c0-18.192,14.747-32.94,32.939-32.94h234.229
	c18.193,0,32.944,14.748,32.944,32.94l7.781,149.138C409.631,529.809,394.881,544.557,376.687,544.557z M756.949,175.718h-43.895
	c-2.099-43.904-16.066-87.334-41.875-125.039C718.821,73.505,752.72,120.522,756.949,175.718z M617.616,36.388
	c4.587,0.353,9.116,0.899,13.58,1.652c36.356,38.892,55.857,87.915,58.49,137.679h-72.07V36.388z M631.193,336.734
	c-4.463,0.755-8.99,1.302-13.577,1.652v-139.33h72.07C687.054,248.82,667.553,297.843,631.193,336.734z M671.177,324.095
	c25.812-37.702,39.779-81.134,41.878-125.039h43.895C752.72,254.254,718.821,301.272,671.177,324.095z"/>
</svg>
