<?xml version="1.0" encoding="utf-8"?>
<!-- Generator: Adobe Illustrator 16.0.4, SVG Export Plug-In . SVG Version: 6.00 Build 0)  -->
<!DOCTYPE svg PUBLIC "-//W3C//DTD SVG 1.1//EN" "http://www.w3.org/Graphics/SVG/1.1/DTD/svg11.dtd">
<svg version="1.1" id="Capa_1" xmlns="http://www.w3.org/2000/svg" xmlns:xlink="http://www.w3.org/1999/xlink" x="0px" y="0px"
	 width="800px" height="800px" viewBox="0 0 800 800" enable-background="new 0 0 800 800" xml:space="preserve">
<path fill="#222221" d="M324.412,238.221c0-41.748,33.841-75.589,75.587-75.589c41.744,0,75.589,33.841,75.589,75.589
	c0,41.743-33.844,75.585-75.589,75.585C358.253,313.806,324.412,279.965,324.412,238.221z M302.279,335.464l-10.818,24.608
	l57.173,0.001v-42.435c0,0-15.597,0.047-16.53,0.117C318.396,317.912,307.544,323.478,302.279,335.464z M466.485,317.909
	c-1.659-0.173-15.118-0.271-15.118-0.271v42.435l57.173,0.001l-10.817-24.609C492.251,323.022,481.428,317.911,466.485,317.909z
	 M384.203,336.786l15.805,15.805l15.805-15.805l-15.806-15.805L384.203,336.786z M773.794,707.86
	c0,18.029-14.615,32.642-32.642,32.642H58.845c-18.027,0-32.639-14.613-32.639-32.642c0-2.535,0.317-4.993,0.864-7.362
	l57.964-209.677l18.788-351.558c0-44.055,35.713-79.766,79.766-79.766h417.38c44.055,0,79.769,35.711,79.769,79.766l18.785,351.559
	l26.228,74.773l10.408,29.671l34.922,99.584c0.74,1.873,1.849,5.647,1.849,5.647C773.476,702.869,773.794,705.327,773.794,707.86z
	 M495.844,696.349c0-8.779-7.115-15.894-15.894-15.894H306.167c-8.78,0-15.896,7.115-15.896,15.894
	c0,8.783,7.118,15.896,15.896,15.896H479.95C488.729,712.245,495.844,705.131,495.844,696.349z M636.786,388.7L624.77,158.405
	c0-28.092-22.777-50.865-50.869-50.865H212.209c-28.09,0-50.862,22.773-50.862,50.865L149.333,388.7
	c0,28.091,22.772,50.863,50.863,50.863h385.72C614.01,439.563,636.786,416.79,636.786,388.7z"/>
</svg>
