<?xml version="1.0" encoding="utf-8"?>
<!-- Generator: Adobe Illustrator 15.0.0, SVG Export Plug-In . SVG Version: 6.00 Build 0)  -->
<!DOCTYPE svg PUBLIC "-//W3C//DTD SVG 1.1//EN" "http://www.w3.org/Graphics/SVG/1.1/DTD/svg11.dtd">
<svg version="1.1" id="Capa_1" xmlns="http://www.w3.org/2000/svg" xmlns:xlink="http://www.w3.org/1999/xlink" x="0px" y="0px"
	 width="800px" height="800px" viewBox="-33 0 800 800" enable-background="new -33 0 800 800" xml:space="preserve">
<g>
	<path fill="#222221" d="M493.045,536.439V325.817L47.41,234.1l-34.499,8.635v289.938v51.436v97.844l448.677,105.326l9.799-5.227
		l253.702-135.307v-58.56L493.045,536.439z M493.076,661.525l0.089-100.043l141.211,33.002L493.076,661.525z"/>
	<path fill="#222221" d="M555.886,17.356c-0.124-0.126-0.244-0.256-0.371-0.383l-0.248,0.248c-13.84-2.94-28.182-4.5-42.888-4.5
		c-14.7,0-29.045,1.56-42.883,4.5l-0.246-0.248c-0.128,0.127-0.249,0.256-0.372,0.383
		c-92.864,20.024-162.677,102.78-162.677,201.545c0,19.337,2.688,38.056,7.69,55.815l31.082,6.398
		c-5.692-15.282-9.37-31.537-10.667-48.453h51.767c0.945,19.786,3.951,39.486,8.984,58.765l30.446,6.268
		c-6.751-21.166-10.71-43.038-11.873-65.032h84.988v80.086l8.454,1.74l0.271,110.525c1.673,0.042,3.352,0.065,5.034,0.065
		c14.705,0,29.048-1.556,42.889-4.497c0,0,0.272-0.044,0.617-0.137c92.865-20.026,162.674-102.781,162.674-201.545
		C718.56,120.137,648.751,37.384,555.886,17.356z M386.073,205.14h-51.767c4.99-65.094,44.963-120.542,101.153-147.461
		C405.021,102.143,388.547,153.361,386.073,205.14z M498.62,205.14h-84.988c3.104-58.686,26.1-116.499,68.978-162.365
		c5.262-0.886,10.604-1.532,16.011-1.947V205.14L498.62,205.14z M690.455,205.14h-51.766
		c-2.475-51.778-18.948-102.995-49.384-147.459C645.492,84.598,685.466,140.047,690.455,205.14z M526.141,40.827
		c5.408,0.416,10.75,1.061,16.014,1.947c42.877,45.866,65.873,103.679,68.978,162.365h-84.991V40.827z M542.152,395.027
		c-5.265,0.889-10.604,1.534-16.012,1.947V232.662h84.991C608.027,291.349,585.031,349.162,542.152,395.027z M589.303,380.121
		c30.439-44.462,46.913-95.682,49.387-147.459h51.766C685.466,297.757,645.492,353.206,589.303,380.121z"/>
</g>
</svg>
