<?xml version="1.0" encoding="utf-8"?>
<!-- Generator: Adobe Illustrator 15.0.0, SVG Export Plug-In . SVG Version: 6.00 Build 0)  -->
<!DOCTYPE svg PUBLIC "-//W3C//DTD SVG 1.1//EN" "http://www.w3.org/Graphics/SVG/1.1/DTD/svg11.dtd">
<svg version="1.1" id="Capa_1" xmlns="http://www.w3.org/2000/svg" xmlns:xlink="http://www.w3.org/1999/xlink" x="0px" y="0px"
	 width="800px" height="800px" viewBox="0 -96 800 800" enable-background="new 0 -96 800 800" xml:space="preserve">
<g>
	<polygon fill="#222221" points="428.697,322.059 399.324,292.685 369.951,322.059 	"/>
	<circle fill="#222221" cx="400" cy="141.21" r="132.517"/>
	<path fill="#222221" d="M55.033,67.618v126.903h110.931v-7.987c30.633,0,55.466-24.833,55.466-55.465
		c0-30.632-24.833-55.465-55.466-55.465v-7.986H55.033z M165.964,170.583V91.556c21.823,0,39.513,17.69,39.513,39.512
		S187.788,170.583,165.964,170.583z"/>
	<g>
		<path fill="#222221" d="M720.597,570.488c0.031-0.018,0.062-0.037,0.097-0.055c0.433-0.251,0.869-0.499,1.296-0.76
			c0.304-0.188,0.602-0.384,0.903-0.578c0.446-0.286,0.895-0.574,1.333-0.875c0.275-0.188,0.548-0.388,0.821-0.582
			c0.455-0.325,0.906-0.65,1.35-0.986c0.263-0.198,0.518-0.404,0.777-0.608c0.44-0.349,0.878-0.702,1.31-1.062
			c0.103-0.086,0.211-0.168,0.312-0.255c0.168-0.143,0.322-0.297,0.489-0.441c0.391-0.341,0.776-0.685,1.154-1.036
			c0.307-0.284,0.607-0.572,0.904-0.86c0.312-0.3,0.617-0.607,0.921-0.917c0.343-0.349,0.684-0.702,1.015-1.06
			c0.236-0.257,0.469-0.513,0.702-0.771c0.372-0.418,0.737-0.835,1.094-1.263c0.179-0.213,0.354-0.43,0.532-0.646
			c0.384-0.472,0.76-0.948,1.124-1.432c0.144-0.188,0.282-0.382,0.427-0.573c0.374-0.509,0.741-1.021,1.098-1.54
			c0.133-0.194,0.26-0.391,0.391-0.587c0.344-0.519,0.682-1.038,1.006-1.566c0.144-0.23,0.277-0.468,0.421-0.701
			c0.291-0.493,0.579-0.987,0.855-1.488c0.166-0.304,0.327-0.614,0.491-0.924c0.227-0.433,0.457-0.867,0.671-1.305
			c0.195-0.401,0.384-0.809,0.569-1.215c0.164-0.354,0.328-0.71,0.483-1.068c0.218-0.499,0.424-1.003,0.624-1.511
			c0.108-0.273,0.223-0.546,0.322-0.819c0.223-0.582,0.428-1.171,0.629-1.763c0.07-0.21,0.145-0.42,0.215-0.629
			c0.207-0.636,0.398-1.278,0.583-1.923c0.051-0.179,0.104-0.354,0.15-0.53c0.177-0.655,0.341-1.312,0.496-1.975
			c0.043-0.184,0.085-0.367,0.127-0.551c0.143-0.638,0.267-1.279,0.387-1.924c0.042-0.225,0.084-0.453,0.121-0.678
			c0.101-0.593,0.19-1.189,0.272-1.789c0.039-0.296,0.075-0.593,0.113-0.888c0.062-0.532,0.115-1.064,0.162-1.6
			c0.035-0.384,0.064-0.764,0.089-1.146c0.03-0.463,0.059-0.925,0.079-1.389c0.019-0.467,0.028-0.927,0.036-1.393
			c0.002-0.254,0.02-0.502,0.02-0.755c0-0.155-0.011-0.309-0.011-0.466c-0.007-0.501-0.02-1.004-0.037-1.507
			c-0.015-0.387-0.026-0.774-0.048-1.157c-0.028-0.492-0.068-0.985-0.11-1.478c-0.034-0.397-0.063-0.795-0.105-1.19
			c-0.05-0.456-0.11-0.912-0.175-1.368c-0.056-0.425-0.107-0.851-0.175-1.272c-0.062-0.413-0.143-0.825-0.222-1.239
			c-0.079-0.456-0.158-0.91-0.254-1.361c-0.079-0.378-0.169-0.752-0.256-1.127c-0.114-0.479-0.221-0.959-0.342-1.432
			c-0.093-0.356-0.203-0.713-0.304-1.07c-0.139-0.482-0.267-0.963-0.418-1.441c-0.115-0.363-0.242-0.721-0.363-1.083
			c-0.159-0.462-0.31-0.925-0.476-1.382c-0.141-0.379-0.296-0.751-0.443-1.127c-0.172-0.433-0.338-0.869-0.521-1.295
			c-0.164-0.387-0.343-0.769-0.518-1.153c-0.187-0.41-0.367-0.821-0.562-1.225c-0.185-0.381-0.386-0.756-0.579-1.135
			c-0.206-0.399-0.409-0.804-0.626-1.197c-0.195-0.359-0.407-0.712-0.61-1.068c-0.234-0.408-0.47-0.817-0.716-1.222
			c-0.2-0.326-0.413-0.646-0.622-0.969c-0.272-0.426-0.545-0.851-0.83-1.265c-0.202-0.302-0.418-0.594-0.629-0.891
			c-0.306-0.429-0.615-0.857-0.933-1.276c-0.216-0.285-0.442-0.565-0.665-0.848c-0.33-0.416-0.66-0.828-1.001-1.232
			c-0.096-0.112-0.182-0.229-0.276-0.343L563.842,289.111c-10.009-11.722-23.985-18.027-38.259-18.68v52.65h37.151
			c16.522,0,29.966,13.443,29.966,29.965v203.033c0,5.22-1.345,10.132-3.702,14.409h-15.401c3.701-3.805,5.988-8.99,5.988-14.718
			V358.079c0-11.668-9.462-21.129-21.131-21.129h-316.91c-11.669,0-21.128,9.46-21.128,21.129v197.691
			c0,5.728,2.287,10.913,5.986,14.718H10.154v30.819h779.691v-30.819H720.597L720.597,570.488z"/>
		<path fill="#222221" d="M90.39,553.77c7.661,3.041,34.574,8.757,52.031-8.327c4.957-4.927,32.758-33.551,64.878-66.688V353.046
			c0-16.522,13.442-29.965,29.966-29.965h37.151v-52.723c-13.046,0.007-26.075,5.071-35.881,15.17l-73.79,75.919l0.259-104.876
			c0.054-27.641-22.311-50.092-49.951-50.147l-11.863-0.022c-27.641-0.055-50.092,22.309-50.146,49.951l-0.597,240.605
			c-0.003,0.425-0.012,0.848-0.003,1.271l-0.013,4.845C52.386,527.32,67.299,544.601,90.39,553.77z"/>
	</g>
</g>
</svg>
