<?xml version="1.0" encoding="utf-8"?>
<!-- Generator: Adobe Illustrator 16.0.0, SVG Export Plug-In . SVG Version: 6.00 Build 0)  -->
<!DOCTYPE svg PUBLIC "-//W3C//DTD SVG 1.1//EN" "http://www.w3.org/Graphics/SVG/1.1/DTD/svg11.dtd">
<svg version="1.1" id="Layer_1" xmlns="http://www.w3.org/2000/svg" xmlns:xlink="http://www.w3.org/1999/xlink" x="0px" y="0px"
	 width="126px" height="126px" viewBox="0 0 126 126" enable-background="new 0 0 126 126" xml:space="preserve">
<g>
	<circle cx="22.529" cy="10.515" r="8.957"/>
	<path d="M12.28,40.228c0.364-1.516,0.747-2.849,1.158-4.006v4.006h18.66v-4.006c0.41,1.157,0.794,2.49,1.158,4.006h2.297h4.849
		c-2.112-9.801-7.642-17.784-15.568-20.394l-2.23,2.243l-2.163-2.268c-0.007,0.004-0.015,0.004-0.021,0.006
		c-1.107,0.262-12.752,5.423-15.287,20.412h4.849H12.28z M22.156,25.274l0.162-1.074l0.268-1.787h0.039l2.164,14.439l-2.164,2.956
		h-0.039l-2.161-2.956L22.156,25.274z"/>
	<path d="M35.648,25.846c4.938,4.942,6.901,14.382,6.901,14.382h78.316V25.846H35.648z M117.827,37.188H74.015v-8.304h43.812V37.188
		z"/>
	<circle cx="22.529" cy="52.427" r="8.956"/>
	<path d="M24.835,61.746l-2.23,2.243l-2.163-2.268c-0.007,0.004-0.015,0.004-0.021,0.006C19.314,61.989,7.669,67.15,5.134,82.14
		h4.849h2.297c0.364-1.516,0.747-2.849,1.158-4.006v4.006h18.66v-4.006c0.41,1.157,0.794,2.49,1.158,4.006h2.297h4.849
		C38.291,72.339,32.761,64.355,24.835,61.746z M22.625,81.721h-0.039l-2.161-2.956l2.161-14.439h0.039l2.164,14.439L22.625,81.721z"
		/>
	<path d="M42.549,82.14h78.316V67.758H35.648C40.587,72.7,42.549,82.14,42.549,82.14z M89.083,70.797h28.743v8.304H89.083V70.797z"
		/>
	<circle cx="22.529" cy="94.729" r="8.956"/>
	<path d="M24.835,104.048l-2.23,2.243l-2.163-2.268c-0.007,0.004-0.015,0.004-0.021,0.006c-1.107,0.262-12.752,5.424-15.287,20.412
		h4.849h2.297c0.364-1.516,0.747-2.849,1.158-4.006v4.006h18.66v-4.006c0.41,1.157,0.794,2.49,1.158,4.006h2.297h4.849
		C38.291,114.641,32.761,106.657,24.835,104.048z M22.625,124.022h-0.039l-2.161-2.956l2.161-14.439h0.039l2.164,14.439
		L22.625,124.022z"/>
	<path d="M42.549,124.441h78.316v-14.381H35.648C40.587,115.002,42.549,124.441,42.549,124.441z M55.36,113.099h62.466v8.304H55.36
		V113.099z"/>
</g>
</svg>
