<?xml version="1.0" encoding="utf-8"?>
<!-- Generator: Adobe Illustrator 16.0.0, SVG Export Plug-In . SVG Version: 6.00 Build 0)  -->
<!DOCTYPE svg PUBLIC "-//W3C//DTD SVG 1.1//EN" "http://www.w3.org/Graphics/SVG/1.1/DTD/svg11.dtd">
<svg version="1.1" id="Layer_1" xmlns="http://www.w3.org/2000/svg" xmlns:xlink="http://www.w3.org/1999/xlink" x="0px" y="0px"
	 width="126px" height="126px" viewBox="0 0 126 126" enable-background="new 0 0 126 126" xml:space="preserve">
<g>
	<polygon points="12.405,116.152 31.072,116.152 31.072,98.291 66.483,98.291 66.483,116.131 84.505,116.131 84.505,87.801 
		12.405,87.801 	"/>
	<path d="M122.61,45.822c-2.976-3.66-5.946-7.43-8.822-11.074c-0.922-1.17-1.845-2.338-2.767-3.506
		c0.253-0.352,0.505-0.697,0.756-1.043c1.418-1.953,2.759-3.801,3.897-5.844c0.409-0.734,2.345-4.514,0.23-6.727
		c-0.608-0.635-1.455-0.984-2.388-0.984c-1.436,0-2.856,0.822-3.796,1.367l-0.188,0.107c-2.037,1.168-3.985,2.43-6.05,3.76
		c-0.091,0.061-0.185,0.121-0.275,0.182c-0.528-1.324-1.027-2.541-1.517-3.732c-0.771-1.885-1.5-3.664-2.323-5.789
		c-0.654-1.662-1.989-2.691-3.48-2.691c-0.9,0-1.765,0.383-2.433,1.076c-1.135,1.18-1.657,3.145-1.553,5.826
		c0.104,3.16-0.178,5.25-0.784,8.514c-0.19,1.029-0.675,2.082-1.234,2.684l-13.908,14.18c-1.349,1.447-2.576,1.986-4.527,1.986
		l-0.096-0.002L22.32,44.123l-0.234-0.002c-4.048,0-6.632,1.469-8.635,4.912L0.172,70.129l8.485,6.089l3.597-5.503v10.336h73.282
		c0.086-0.199,0.17-0.393,0.247-0.566c2.902-6.451,5.918-12.988,8.836-19.309l1.861-4.039c0.165-0.357,0.341-0.713,0.526-1.074
		c1.342,0.566,2.67,1.123,3.992,1.678c4.847,2.035,9.425,3.957,14.011,6.02c1.088,0.488,2.082,0.727,3.043,0.727
		c1.875,0,3.502-0.902,4.978-2.758C126.902,56.857,126.747,50.91,122.61,45.822z M34.963,62.424l-3.733,2.711l1.426,4.389
		c0.176,0.541-0.016,1.131-0.477,1.465c-0.228,0.168-0.499,0.25-0.77,0.25s-0.54-0.082-0.771-0.25l-3.732-2.711l-3.731,2.711
		c-0.461,0.334-1.082,0.334-1.541,0c-0.461-0.334-0.652-0.924-0.479-1.465l1.428-4.389l-3.732-2.711
		c-0.46-0.334-0.652-0.926-0.477-1.465c0.175-0.541,0.679-0.906,1.247-0.906h4.612l1.426-4.387c0.176-0.541,0.679-0.906,1.247-0.906
		s1.071,0.365,1.247,0.906l1.426,4.387h4.612c0.569,0,1.071,0.365,1.248,0.906C35.613,61.498,35.422,62.09,34.963,62.424z
		 M58.959,62.424l-3.733,2.711l1.426,4.389c0.175,0.541-0.017,1.131-0.477,1.465c-0.229,0.168-0.5,0.25-0.771,0.25
		c-0.27,0-0.539-0.082-0.771-0.25l-3.731-2.711l-3.732,2.711c-0.459,0.334-1.081,0.334-1.541,0
		c-0.459-0.334-0.651-0.924-0.476-1.465l1.425-4.389l-3.732-2.711c-0.457-0.334-0.65-0.926-0.476-1.465
		c0.175-0.541,0.679-0.906,1.247-0.906h4.612l1.427-4.387c0.174-0.541,0.679-0.906,1.246-0.906c0.569,0,1.071,0.365,1.248,0.906
		l1.425,4.387h4.614c0.566,0,1.069,0.365,1.245,0.906C59.61,61.498,59.417,62.09,58.959,62.424z M82.127,62.424l-3.731,2.711
		l1.426,4.389c0.174,0.541-0.019,1.131-0.477,1.465c-0.23,0.168-0.5,0.25-0.771,0.25s-0.541-0.082-0.771-0.25l-3.732-2.711
		l-3.732,2.711c-0.459,0.334-1.082,0.334-1.541,0s-0.65-0.924-0.476-1.465l1.426-4.389l-3.732-2.711
		c-0.46-0.334-0.652-0.926-0.476-1.465c0.176-0.541,0.679-0.906,1.245-0.906h4.614l1.426-4.387c0.175-0.541,0.68-0.906,1.246-0.906
		c0.567,0,1.071,0.365,1.247,0.906l1.425,4.387h4.613c0.568,0,1.072,0.365,1.247,0.906C82.777,61.498,82.588,62.09,82.127,62.424z"
		/>
</g>
</svg>
