<?xml version="1.0" encoding="utf-8"?>
<!-- Generator: Adobe Illustrator 16.0.0, SVG Export Plug-In . SVG Version: 6.00 Build 0)  -->
<!DOCTYPE svg PUBLIC "-//W3C//DTD SVG 1.1//EN" "http://www.w3.org/Graphics/SVG/1.1/DTD/svg11.dtd">
<svg version="1.1" id="Layer_1" xmlns="http://www.w3.org/2000/svg" xmlns:xlink="http://www.w3.org/1999/xlink" x="0px" y="0px"
	 width="126px" height="126px" viewBox="0 0 126 126" enable-background="new 0 0 126 126" xml:space="preserve">
<g>
	<path d="M63.987,18.137c-14.899,0-26.98,12.08-26.98,26.981c0,14.9,12.081,26.981,26.98,26.981
		c14.902,0,26.983-12.081,26.983-26.981C90.971,30.217,78.89,18.137,63.987,18.137z M81.897,42.448l-6.539,6.411l1.521,9.027
		c0.208,1.234-0.299,2.479-1.313,3.215c-0.574,0.417-1.253,0.629-1.937,0.629c-0.521,0-1.045-0.123-1.525-0.374l-8.117-4.237
		l-8.117,4.237c-1.106,0.579-2.448,0.479-3.462-0.255c-1.011-0.736-1.518-1.98-1.31-3.215l1.521-9.027l-6.539-6.411
		c-0.895-0.875-1.213-2.182-0.827-3.371c0.387-1.189,1.413-2.059,2.651-2.242l9.057-1.343l4.076-8.199
		c0.557-1.119,1.7-1.827,2.95-1.827c1.251,0,2.396,0.708,2.95,1.827l4.079,8.199l9.057,1.343c1.236,0.184,2.265,1.053,2.651,2.242
		C83.109,40.267,82.789,41.573,81.897,42.448z"/>
	<path d="M123.958,104.534c-5.454-2.751-10.646-6.116-15.567-9.725c-6.551-4.806-14.549-11.508-17.212-19.719
		c3.12-1.704,5.403-4.66,6.24-8.165l1.281-5.388l3.232-4.499c2.408-3.352,3.027-7.666,1.662-11.56l-1.834-5.227l0.287-5.531
		c0.215-4.12-1.597-8.086-4.852-10.622l-4.368-3.406l-2.749-4.808c-2.047-3.582-5.714-5.939-9.824-6.313l-5.516-0.503l-4.911-2.559
		c-3.66-1.906-8.019-1.906-11.68,0l-4.91,2.559l-5.516,0.503c-4.11,0.374-7.777,2.731-9.824,6.313l-2.75,4.808L30.78,24.1
		c-3.254,2.536-5.066,6.502-4.851,10.622l0.284,5.531l-1.831,5.227c-1.368,3.894-0.746,8.208,1.661,11.56l3.23,4.499l1.284,5.388
		c0.679,2.85,2.316,5.332,4.583,7.078c-2.278,8.731-10.711,15.717-17.532,20.806c-4.882,3.643-10.123,6.979-15.567,9.725
		c-1.946,0.981-0.581,4.069,1.464,3.474c9.697-2.83,19.396-5.661,29.094-8.491c-2.115,6.315-4.233,12.632-6.35,18.947
		c-0.5,1.488,1.449,3.16,2.79,2.146c11.98-9.047,22.158-21.686,28.276-35.518c0.414-0.04,0.825-0.095,1.236-0.175l5.435-1.071
		l4.543,0.896c6.099,13.968,16.349,26.744,28.43,35.868c1.341,1.015,3.29-0.657,2.79-2.146c-2.116-6.315-4.234-12.632-6.35-18.947
		c9.697,2.83,19.396,5.661,29.094,8.491C124.539,108.604,125.904,105.516,123.958,104.534z M38.018,107.105
		c-1.896,2.07-3.893,4.053-5.955,5.959c1.776-5.295,3.55-10.59,5.326-15.885c0.462-1.382-0.999-2.728-2.338-2.338
		c-6.19,1.808-12.38,3.612-18.57,5.42c1.854-1.291,3.67-2.625,5.446-3.999c6.743-5.209,13.925-12.02,16.566-20.398l4.863,1.925
		l3.993,3.838c1.676,1.611,3.736,2.704,5.941,3.21C49.463,93.024,44.134,100.429,38.018,107.105z M32.32,45.118
		c0-17.49,14.178-31.668,31.667-31.668c17.492,0,31.67,14.178,31.67,31.668c0,17.489-14.178,31.668-31.67,31.668
		C46.498,76.786,32.32,62.607,32.32,45.118z M87.979,107.105c-6.077-6.528-11.345-13.915-15.146-21.996
		c2.888-0.221,5.654-1.426,7.794-3.483l3.993-3.837l3.112-1.231c2.812,8.067,9.803,14.561,16.34,19.705
		c1.74,1.371,3.536,2.696,5.367,3.976c-6.164-1.8-12.327-3.598-18.491-5.396c-1.339-0.39-2.8,0.956-2.338,2.338
		c1.776,5.297,3.553,10.596,5.329,15.894C91.875,111.163,89.895,109.163,87.979,107.105z"/>
</g>
</svg>
