<?xml version="1.0" encoding="utf-8"?>
<!-- Generator: Adobe Illustrator 16.0.0, SVG Export Plug-In . SVG Version: 6.00 Build 0)  -->
<!DOCTYPE svg PUBLIC "-//W3C//DTD SVG 1.1//EN" "http://www.w3.org/Graphics/SVG/1.1/DTD/svg11.dtd">
<svg version="1.1" id="Layer_1" xmlns="http://www.w3.org/2000/svg" xmlns:xlink="http://www.w3.org/1999/xlink" x="0px" y="0px"
	 width="126px" height="126px" viewBox="0 0 126 126" enable-background="new 0 0 126 126" xml:space="preserve">
<g>
	<path d="M41.543,19.857c-14.939,0-27.055,12.113-27.055,27.056c0,28.905,18.006,38.262,24.465,40.688l-5.239,5.38l4.964-0.552
		c-0.445,2.954-0.275,7.588,2.124,14.403c4.095,11.639-0.296,16.47-0.474,16.659l1.981,1.956c0.24-0.244,5.841-6.129,1.117-19.54
		c-2.487-7.067-2.337-11.443-1.829-13.803l5.426-0.604l-4.396-3.576c5.58-1.832,25.97-10.611,25.97-41.012
		C68.598,31.971,56.485,19.857,41.543,19.857z M55.093,48.378l-5.853,5.706l1.38,8.06c0.082,0.475-0.113,0.956-0.504,1.24
		c-0.22,0.16-0.483,0.242-0.746,0.242c-0.2,0-0.403-0.049-0.589-0.146l-7.238-3.804l-7.235,3.804
		c-0.426,0.224-0.944,0.188-1.335-0.096s-0.586-0.765-0.506-1.24l1.382-8.06l-5.853-5.706c-0.346-0.338-0.472-0.841-0.321-1.3
		c0.148-0.458,0.546-0.794,1.022-0.863l8.092-1.176l3.617-7.333c0.215-0.432,0.656-0.706,1.137-0.706
		c0.483,0,0.924,0.274,1.137,0.706l3.619,7.333l8.093,1.176c0.476,0.069,0.874,0.405,1.022,0.863
		C55.563,47.537,55.438,48.04,55.093,48.378z"/>
	<path d="M72.345,46.595c0,0.799-0.015,1.584-0.04,2.355h35.037c1.014-2.236,1.891-4.711,2.577-7.447H71.906
		C72.189,43.16,72.345,44.859,72.345,46.595z"/>
	<path d="M84.477,0.553c-7.901,0-15.012,3.39-19.959,8.794h39.919C99.489,3.943,92.382,0.553,84.477,0.553z"/>
	<path d="M66.441,28.677c1.47,1.991,2.7,4.168,3.651,6.489h40.995c0.248-2.039,0.387-4.208,0.424-6.489H66.441z"/>
	<path d="M70.659,61.111c5.117,4.603,10.316,6.714,12.735,7.508l-4.396,3.576l5.405,0.602c0.684,1.78,1.643,6.409-1.436,15.156
		c-4.721,13.411,0.877,19.296,1.117,19.54l1.994-1.946c-0.19-0.199-4.581-5.03-0.483-16.669c2.798-7.951,2.564-12.933,1.854-15.743
		l4.858,0.54l-5.239-5.38c3.645-1.369,10.97-4.949,16.66-13.007H71.771C71.493,57.342,71.117,59.279,70.659,61.111z"/>
	<path d="M111.016,22.339c-0.463-2.342-1.227-4.573-2.252-6.654H60.189c-0.834,1.693-1.484,3.492-1.951,5.363
		c0.646,0.409,1.28,0.836,1.892,1.292H111.016z"/>
</g>
</svg>
