<?xml version="1.0" encoding="utf-8"?>
<!-- Generator: Adobe Illustrator 16.0.0, SVG Export Plug-In . SVG Version: 6.00 Build 0)  -->
<!DOCTYPE svg PUBLIC "-//W3C//DTD SVG 1.1//EN" "http://www.w3.org/Graphics/SVG/1.1/DTD/svg11.dtd">
<svg version="1.1" id="Layer_1" xmlns="http://www.w3.org/2000/svg" xmlns:xlink="http://www.w3.org/1999/xlink" x="0px" y="0px"
	 width="126px" height="126px" viewBox="0 0 126 126" enable-background="new 0 0 126 126" xml:space="preserve">
<g>
	<path d="M108.545,17.759L92.718,1.021H17.63v123.957h90.94L108.545,17.759z M99.576,24.914v91.167H26.431V9.918h58.971v14.984
		L99.576,24.914z"/>
	<rect x="30.197" y="40.453" width="43.938" height="6.5"/>
	<polygon points="88.879,46.313 84.535,41.968 86.243,40.259 88.879,42.896 94.145,37.63 94.145,36.824 80.387,36.824 
		80.387,50.581 94.145,50.581 94.145,41.048 	"/>
	<rect x="30.197" y="60.828" width="43.938" height="6.5"/>
	<polygon points="80.387,57.199 80.387,70.956 94.145,70.956 94.145,58.005 94.145,57.199 	"/>
	<rect x="30.197" y="81.953" width="43.938" height="6.5"/>
	<rect x="80.387" y="78.324" width="13.758" height="13.757"/>
</g>
</svg>
