<?xml version="1.0" encoding="utf-8"?>
<!-- Generator: Adobe Illustrator 16.0.0, SVG Export Plug-In . SVG Version: 6.00 Build 0)  -->
<!DOCTYPE svg PUBLIC "-//W3C//DTD SVG 1.1//EN" "http://www.w3.org/Graphics/SVG/1.1/DTD/svg11.dtd">
<svg version="1.1" id="Layer_1" xmlns="http://www.w3.org/2000/svg" xmlns:xlink="http://www.w3.org/1999/xlink" x="0px" y="0px"
	 width="126px" height="126px" viewBox="0 0 126 126" enable-background="new 0 0 126 126" xml:space="preserve">
<g>
	<path d="M63.986,16.988H40.669c-18.453,0-33.932,12.718-38.158,29.866h99.631C97.918,29.706,82.438,16.988,63.986,16.988z
		 M36.24,32.775l-3.775,2.742l1.441,4.438c0.178,0.547-0.016,1.145-0.481,1.482c-0.23,0.168-0.505,0.253-0.779,0.253
		c-0.273,0-0.546-0.085-0.778-0.253l-3.774-2.742l-3.774,2.742c-0.466,0.338-1.094,0.338-1.559,0
		c-0.466-0.338-0.659-0.936-0.482-1.482l1.442-4.438l-3.774-2.742c-0.465-0.338-0.659-0.937-0.481-1.482
		c0.177-0.545,0.687-0.915,1.261-0.915h4.665l1.441-4.438c0.179-0.547,0.687-0.916,1.262-0.916c0.574,0,1.083,0.369,1.261,0.916
		l1.442,4.438h4.664c0.575,0,1.084,0.37,1.262,0.915C36.898,31.839,36.704,32.438,36.24,32.775z M60.507,32.775l-3.775,2.742
		l1.442,4.438c0.176,0.547-0.018,1.145-0.482,1.482c-0.231,0.168-0.505,0.253-0.779,0.253c-0.272,0-0.546-0.085-0.78-0.253
		l-3.773-2.742l-3.774,2.742c-0.464,0.338-1.093,0.338-1.558,0s-0.659-0.936-0.481-1.482l1.441-4.438l-3.775-2.742
		c-0.463-0.338-0.658-0.937-0.481-1.482c0.178-0.545,0.687-0.915,1.262-0.915h4.665l1.442-4.438c0.176-0.547,0.687-0.916,1.26-0.916
		c0.575,0,1.084,0.369,1.262,0.916l1.441,4.438h4.666c0.573,0,1.082,0.37,1.26,0.915C61.166,31.839,60.971,32.438,60.507,32.775z
		 M83.937,32.775l-3.773,2.742l1.442,4.438c0.176,0.547-0.019,1.145-0.481,1.482c-0.234,0.168-0.507,0.253-0.78,0.253
		s-0.547-0.085-0.779-0.253l-3.775-2.742l-3.773,2.742c-0.465,0.338-1.095,0.338-1.559,0c-0.465-0.338-0.659-0.936-0.481-1.482
		l1.441-4.438l-3.774-2.742c-0.465-0.338-0.659-0.937-0.481-1.482c0.178-0.545,0.687-0.915,1.261-0.915h4.666l1.441-4.438
		c0.177-0.547,0.687-0.916,1.26-0.916c0.574,0,1.084,0.369,1.262,0.916l1.44,4.438h4.666c0.574,0,1.084,0.37,1.261,0.915
		C84.596,31.839,84.402,32.438,83.937,32.775z"/>
	<path d="M112.055,71.744v20.104c0,2.528-2.058,4.588-4.588,4.588c-2.736,0-4.167-2.309-4.167-4.588V71.744h-0.011l-0.005-15.458
		c0-0.88-0.032-1.753-0.089-2.62H1.459c-0.058,0.867-0.09,1.74-0.09,2.62v52.137h21.287V80.39h39.953v28.033h19.978V79.604
		c0-2.315,1.876-4.192,4.191-4.192c1.821,0,3.946,1.458,3.946,4.164v12.273c0,9.625,7.354,17.163,16.742,17.163
		c9.465,0,17.164-7.7,17.164-17.163V71.744H112.055z"/>
</g>
</svg>
