<?xml version="1.0" encoding="utf-8"?>
<!-- Generator: Adobe Illustrator 16.0.0, SVG Export Plug-In . SVG Version: 6.00 Build 0)  -->
<!DOCTYPE svg PUBLIC "-//W3C//DTD SVG 1.1//EN" "http://www.w3.org/Graphics/SVG/1.1/DTD/svg11.dtd">
<svg version="1.1" id="Layer_1" xmlns="http://www.w3.org/2000/svg" xmlns:xlink="http://www.w3.org/1999/xlink" x="0px" y="0px"
	 width="126px" height="126px" viewBox="0 0 126 126" enable-background="new 0 0 126 126" xml:space="preserve">
<path d="M105.083,0.375V3.9c-1.194-0.21-2.45-0.419-3.444-0.564C74.101-0.741,49.66,7.093,30.954,21.527
	C10.435,37.358,2.937,67.892,2.824,68.925c-0.229,2.085,0.205,4.083,1.123,5.8c-2.034,4.918,0.104,10.604,4.97,12.894
	c1.379,0.65,2.833,0.958,4.264,0.958c1.408,0,2.796-0.298,4.071-0.861v37.91h55.206v-1.116v-13.27V73.696
	c3.964-0.207,7.591-2.757,8.962-6.741c2.327-6.742,16.788-18.639,23.664-28.289l18.154-0.005V0.375H105.083z M58.044,44.478
	c12.36,1.896,7.553,8.276,4.962,14.471H34.66C40.74,50.347,48.752,43.047,58.044,44.478z M66.721,119.89H22.986V81.054
	c1.24-3.064,3.998-9.616,7.979-16.37h31.001c0.313,3.089,2.036,5.923,4.754,7.57V119.89z M119.464,34.89h-10.609V4.146h10.609V34.89
	z"/>
</svg>
