<?xml version="1.0" encoding="utf-8"?>
<!-- Generator: Adobe Illustrator 16.0.0, SVG Export Plug-In . SVG Version: 6.00 Build 0)  -->
<!DOCTYPE svg PUBLIC "-//W3C//DTD SVG 1.1//EN" "http://www.w3.org/Graphics/SVG/1.1/DTD/svg11.dtd">
<svg version="1.1" id="Layer_1" xmlns="http://www.w3.org/2000/svg" xmlns:xlink="http://www.w3.org/1999/xlink" x="0px" y="0px"
	 width="126px" height="126px" viewBox="0 0 126 126" enable-background="new 0 0 126 126" xml:space="preserve">
<path d="M89.051,63.204c-3.098,6.238-1.744,6.878-4.892,13.09l-1.126,2.116c0,0-0.648-6.001-0.733-7.816
	c-0.975-20.789-1.866-31.942-2.864-52.73c-0.272-5.765-2.673-8.333-7.126-8.026c-4.237,0.304-6.097,2.915-5.874,8.518
	c0.459,11.35,1.002,13.046,1.46,24.385c0.216,4.278-2.566,3.466-2.549-0.017c-0.736-15.47-1.438-18.885-2.06-34.354
	c-0.174-4.201-1.921-6.957-6.23-7.418c-4.16-0.44-7.004,3.013-6.791,8.273c0.618,14.951,1.358,17.849,1.974,32.804
	c0.218,4.425-2.505,3.728-2.515,0.402c-0.55-11.853-0.9-14.081-1.759-25.914C47.802,14.132,46.353,11,44.478,9.75
	c-4.57-3.043-9.569,0.836-9.356,7.149c0.442,13.239,1.155,16.828,1.703,30.056c0.33,3.395-2.331,4.306-2.475,0.354
	c-0.41-8.421-0.729-7.21-1.187-15.622c-0.213-3.834-2.396-6.027-6.254-6.176c-3.897-0.142-6.042,2.125-6.675,5.788
	c-0.271,1.498-0.127,3.084-0.056,4.621c0.887,19.94,1.275,30.272,2.894,50.157c0.707,8.688,0.929,13.756,7.532,24.934
	c-0.174,3.224-0.387,10.195-0.259,14.077h48.401c-0.582-3.842-0.543-10.073-0.832-13.332c-0.01-0.092-0.004-0.175-0.01-0.266
	c1.851-2.652,4.364-5.038,7.421-7.261c3.053-2.192,5.454-5.841,7.049-9.336c6.196-13.767,8.892-21.653,13.34-36.092
	C107.592,52.719,96.374,45.985,89.051,63.204z"/>
</svg>
