<?xml version="1.0" encoding="utf-8"?>
<!-- Generator: Adobe Illustrator 16.0.0, SVG Export Plug-In . SVG Version: 6.00 Build 0)  -->
<!DOCTYPE svg PUBLIC "-//W3C//DTD SVG 1.1//EN" "http://www.w3.org/Graphics/SVG/1.1/DTD/svg11.dtd">
<svg version="1.1" id="Layer_1" xmlns="http://www.w3.org/2000/svg" xmlns:xlink="http://www.w3.org/1999/xlink" x="0px" y="0px"
	 width="126px" height="126px" viewBox="0 0 126 126" enable-background="new 0 0 126 126" xml:space="preserve">
<g>
	<circle cx="62.558" cy="14.667" r="13.867"/>
	<path d="M48.555,54.635v6.205h29.799c0.08-3.455-1.167-6.743-1.379-7.272c0.043,0.114-1.737-4.074-4.633-5.177
		c-0.294,0.103-0.597,0.153-0.906,0.153h-3.459c-1.554,0-2.817-1.264-2.817-2.817c0-1.553,1.264-2.816,2.817-2.816h3.459
		c1.113,0,2.089,0.639,2.545,1.61c6.865,2.64,8.489,11.046,8.815,16.319h7.503c-3.268-15.174-11.828-27.529-24.095-31.573
		l-3.456,3.478l-3.349-3.518c-0.012,0.004-0.022,0.004-0.034,0.007c-1.714,0.411-19.741,8.398-23.664,31.606h11.06
		C47.325,58.491,47.922,56.428,48.555,54.635z M62.053,37.689l0.663-4.431h0.065l3.345,22.354l-3.345,4.577h-0.065l-3.343-4.577
		L62.053,37.689z"/>
	<rect x="30.046" y="62.308" width="65.908" height="7.179"/>
	<path d="M40.03,125.2H85.97l4.56-54.083H35.471L40.03,125.2z M62.556,78.108c10.494,0,19.001,8.506,19.001,18.999
		c0,10.491-8.507,18.997-19.001,18.997c-10.489,0-18.996-8.506-18.996-18.997C43.56,86.614,52.066,78.108,62.556,78.108z"/>
	<path d="M54.552,99.741l-1.07,6.356c-0.146,0.869,0.211,1.745,0.923,2.264c0.713,0.518,1.659,0.587,2.438,0.18l5.714-2.983
		l5.716,2.983c0.339,0.176,0.707,0.263,1.074,0.263c0.481,0,0.959-0.148,1.364-0.442c0.714-0.519,1.07-1.395,0.924-2.264
		l-1.069-6.356l4.603-4.514c0.629-0.617,0.854-1.537,0.583-2.374c-0.272-0.837-0.996-1.45-1.867-1.578l-6.377-0.946l-2.872-5.772
		c-0.391-0.788-1.196-1.286-2.078-1.286c-0.879,0-1.685,0.498-2.077,1.286l-2.869,5.772l-6.377,0.946
		c-0.872,0.128-1.594,0.741-1.866,1.578s-0.049,1.757,0.583,2.374L54.552,99.741z"/>
</g>
</svg>
