<?xml version="1.0" encoding="utf-8"?>
<!-- Generator: Adobe Illustrator 16.0.0, SVG Export Plug-In . SVG Version: 6.00 Build 0)  -->
<!DOCTYPE svg PUBLIC "-//W3C//DTD SVG 1.1//EN" "http://www.w3.org/Graphics/SVG/1.1/DTD/svg11.dtd">
<svg version="1.1" id="Layer_1" xmlns="http://www.w3.org/2000/svg" xmlns:xlink="http://www.w3.org/1999/xlink" x="0px" y="0px"
	 width="126px" height="126px" viewBox="0 0 126 126" enable-background="new 0 0 126 126" xml:space="preserve">
<g>
	<path d="M56.426,102.521l-0.893-7.79l-1.616,0.758l0.49,3.278c0.132,0.877,0.296,1.773,0.506,2.662l-0.029,0.015
		c-0.553-0.764-1.125-1.436-1.728-2.126l-2.154-2.46l-1.667,0.782l5.314,5.716L56.426,102.521z"/>
	<polygon points="67.514,97.317 69.041,96.601 66.482,91.15 68.319,90.288 67.719,89.011 62.548,91.438 63.148,92.715 
		64.955,91.868 	"/>
	<path d="M56.138,80.081c-6.828,3.206-10.366,10.611-8.988,17.7l28.346-13.308C70.923,78.885,62.966,76.876,56.138,80.081z"/>
	<path d="M96.23,47.763H74.792V31.726c1.693-0.089,3.243-1.178,3.828-2.88c0.994-2.881,7.171-7.98,10.109-12.103v0.017h7.755V0.404
		h-7.755V1.91c-0.51-0.089-1.047-0.18-1.472-0.241C75.494-0.072,65.053,3.273,57.062,9.439
		c-8.765,6.763-11.968,19.806-12.017,20.247c-0.098,0.891,0.088,1.744,0.48,2.478c-0.869,2.102,0.044,4.53,2.123,5.509
		c0.589,0.277,1.21,0.409,1.821,0.409c0.602,0,1.194-0.128,1.739-0.369v10.05H29.77L19.357,68.641v56.955h87.286V68.641
		L96.23,47.763z M90.34,2.016h4.532v13.133H90.34V2.016z M68.635,19.243c5.28,0.811,3.226,3.535,2.12,6.183H58.646
		C61.243,21.751,64.665,18.633,68.635,19.243z M53.659,34.867c0.53-1.308,1.708-4.107,3.409-6.992h13.243
		c0.133,1.32,0.87,2.53,2.031,3.233v20.35H53.659V34.867z M47.687,53.431h3.522v0.478h23.583v-0.478h3.522v3.471H47.687V53.431z
		 M71.099,111.95c-9.513,4.466-20.885,0.36-25.351-9.152c-4.466-9.514-0.36-20.885,9.153-25.352
		c9.513-4.467,20.885-0.36,25.351,9.152C84.718,96.111,80.612,107.483,71.099,111.95z"/>
	<path d="M51.432,105.958c4.669,4.79,12.043,6.354,18.43,3.356c6.387-2.999,9.893-9.672,9.19-16.324L51.432,105.958z"/>
	<path d="M59.089,92.928c-1.986,0.933-2.566,3.044-1.62,5.061c0.9,1.917,2.775,2.875,4.772,1.938
		c1.966-0.923,2.676-2.889,1.64-5.095C63.01,92.975,61.155,91.958,59.089,92.928z M61.753,98.681
		c-1.017,0.478-2.072-0.159-2.69-1.477c-0.614-1.308-0.474-2.567,0.554-3.05c1.048-0.492,2.114,0.274,2.681,1.481
		C62.912,96.943,62.782,98.197,61.753,98.681z"/>
	<polygon points="75.981,93.342 75.396,92.094 72.631,93.393 71.881,91.796 74.356,90.634 73.775,89.395 71.3,90.558 70.644,89.159 
		73.269,87.928 72.684,86.68 68.531,88.63 71.689,95.356 	"/>
</g>
</svg>
