<?xml version="1.0" encoding="utf-8"?>
<!-- Generator: Adobe Illustrator 16.0.0, SVG Export Plug-In . SVG Version: 6.00 Build 0)  -->
<!DOCTYPE svg PUBLIC "-//W3C//DTD SVG 1.1//EN" "http://www.w3.org/Graphics/SVG/1.1/DTD/svg11.dtd">
<svg version="1.1" id="Layer_1" xmlns="http://www.w3.org/2000/svg" xmlns:xlink="http://www.w3.org/1999/xlink" x="0px" y="0px"
	 width="126px" height="126px" viewBox="0 0 126 126" enable-background="new 0 0 126 126" xml:space="preserve">
<g>
	<circle cx="62.482" cy="11.218" r="10.229"/>
	<path d="M66.479,32.051h2.552c0.821,0,1.54,0.471,1.877,1.188c5.064,1.946,6.263,8.148,6.503,12.037h5.534
		c-2.41-11.194-8.725-20.307-17.772-23.291l-2.55,2.566l-2.47-2.594c-0.01,0.003-0.018,0.003-0.026,0.005
		c-1.264,0.302-14.562,6.196-17.455,23.313h8.157c0.417-1.732,0.856-3.255,1.324-4.576v4.576h21.98
		c0.059-2.547-0.861-4.973-1.017-5.364c0.031,0.085-1.282-3.005-3.418-3.819c-0.216,0.076-0.439,0.114-0.668,0.114h-2.552
		c-1.146,0-2.078-0.932-2.078-2.078C64.4,32.984,65.332,32.051,66.479,32.051z M65.113,41.421l-2.467,3.376h-0.049l-2.466-3.376
		l2.466-16.489h0.049L65.113,41.421z"/>
	<rect x="38.5" y="46.36" width="48.616" height="5.295"/>
	<path d="M81.275,74.687l1.84-21.829H42.5l1.893,22.44c2.649,2.437,4.322,5.919,4.322,9.792c0,2.856-0.921,5.491-2.46,7.661h2.958
		c-0.068-0.546-0.106-1.102-0.106-1.668c0-7.344,5.974-13.318,13.316-13.318S75.74,83.739,75.74,91.083
		c0,0.566-0.043,1.121-0.113,1.668h3.063c-1.535-2.167-2.44-4.809-2.44-7.661C76.25,80.882,78.218,77.129,81.275,74.687z"/>
	<circle cx="35.59" cy="84.96" r="10.229"/>
	<circle cx="89.759" cy="84.961" r="10.228"/>
	<path d="M92.448,95.729l-2.549,2.565l-2.471-2.593c-0.009,0.002-0.017,0.002-0.024,0.004c-0.919,0.221-8.188,3.397-13.204,11.679
		c-2.548-2.594-5.532-4.554-8.896-5.662l-2.549,2.565l-2.471-2.593c-0.01,0.002-0.016,0.002-0.025,0.005
		c-0.655,0.155-4.542,1.82-8.537,5.765c-3.233-5.639-7.808-9.877-13.443-11.735l-2.55,2.565l-2.47-2.593
		c-0.01,0.002-0.018,0.002-0.026,0.004c-1.264,0.303-14.562,6.196-17.455,23.313h8.157c0.417-1.732,0.857-3.254,1.324-4.575v4.575
		h19.108c-0.659,1.825-1.195,3.817-1.564,5.993h8.158c0.416-1.732,0.856-3.255,1.324-4.575v4.575h21.311v-4.575
		c0.467,1.32,0.908,2.843,1.323,4.575h2.623h5.535c-0.447-2.078-1.031-4.083-1.74-5.993h19.402v-4.575
		c0.468,1.321,0.907,2.843,1.324,4.575h2.622h5.535C107.812,107.825,101.497,98.711,92.448,95.729z M35.753,118.539h-0.048
		l-2.466-3.375l2.466-16.49h0.048l2.468,16.49L35.753,118.539z M62.78,124.532h-0.049l-2.465-3.375l2.465-16.49h0.049l2.468,16.49
		L62.78,124.532z M89.924,118.539h-0.049l-2.466-3.375l2.466-16.49h0.049l2.467,16.49L89.924,118.539z"/>
	<circle cx="62.615" cy="90.953" r="10.229"/>
</g>
</svg>
