<?xml version="1.0" encoding="utf-8"?>
<!-- Generator: Adobe Illustrator 16.0.0, SVG Export Plug-In . SVG Version: 6.00 Build 0)  -->
<!DOCTYPE svg PUBLIC "-//W3C//DTD SVG 1.1//EN" "http://www.w3.org/Graphics/SVG/1.1/DTD/svg11.dtd">
<svg version="1.1" id="Layer_1" xmlns="http://www.w3.org/2000/svg" xmlns:xlink="http://www.w3.org/1999/xlink" x="0px" y="0px"
	 width="126px" height="126px" viewBox="0 0 126 126" enable-background="new 0 0 126 126" xml:space="preserve">
<g>
	<circle cx="85.992" cy="63.377" r="17.54"/>
	<path d="M90.326,81.747c-7.188-0.601-13.985,2.823-19.002,8.765c-7.326,0.667-13.009-2.786-18.282-3.457L29.878,57.227
		C70,62.336,74.75,38.041,74.75,38.041c8.958-29.705,40.852-34.602,40.852-34.602s-9.803-2.925-22.466-2.487
		c-25.595,0.884-38.63,23.374-38.63,23.374C44.438,40.377,14.134,36.952,14.134,36.952l-3.736,2.899l37.168,47.862
		C36.378,92.839,63,119.854,63,119.854l0.046-0.067c7.444,6.57,21.105,5.172,30.291,5.195c12.331,0.034,18.244-4.636,18.893-9.525
		c0.005-0.053,0.011-0.104,0.016-0.158C113.699,97.9,103.884,82.881,90.326,81.747z"/>
</g>
</svg>
