<?xml version="1.0" encoding="utf-8"?>
<!-- Generator: Adobe Illustrator 16.0.0, SVG Export Plug-In . SVG Version: 6.00 Build 0)  -->
<!DOCTYPE svg PUBLIC "-//W3C//DTD SVG 1.1//EN" "http://www.w3.org/Graphics/SVG/1.1/DTD/svg11.dtd">
<svg version="1.1" id="Layer_1" xmlns="http://www.w3.org/2000/svg" xmlns:xlink="http://www.w3.org/1999/xlink" x="0px" y="0px"
	 width="126px" height="126px" viewBox="0 0 126 126" enable-background="new 0 0 126 126" xml:space="preserve">
<g>
	<circle cx="62.555" cy="14.27" r="13.981"/>
	<path d="M68.018,42.746h3.487c1.123,0,2.105,0.644,2.565,1.624c6.922,2.661,8.56,11.137,8.888,16.453h7.565
		C87.229,45.523,78.598,33.066,66.23,28.989l-3.484,3.506l-3.376-3.544c-0.013,0.003-0.022,0.003-0.035,0.006
		c-1.728,0.414-19.902,8.468-23.857,31.865h11.149c0.568-2.369,1.171-4.448,1.81-6.255v6.255h30.043
		c0.081-3.483-1.177-6.797-1.391-7.332c0.044,0.115-1.751-4.108-4.671-5.22c-0.296,0.104-0.601,0.155-0.913,0.155h-3.487
		c-1.566,0-2.841-1.274-2.841-2.84C65.177,44.02,66.451,42.746,68.018,42.746z M66.152,55.552l-3.373,4.614h-0.065l-3.37-4.614
		l3.37-22.538h0.065L66.152,55.552z"/>
	<rect x="29.775" y="62.303" width="66.449" height="7.237"/>
	<polygon points="39.841,125.711 86.159,125.711 90.756,71.185 35.244,71.185 	"/>
</g>
</svg>
