<?xml version="1.0" encoding="utf-8"?>
<!-- Generator: Adobe Illustrator 16.0.0, SVG Export Plug-In . SVG Version: 6.00 Build 0)  -->
<!DOCTYPE svg PUBLIC "-//W3C//DTD SVG 1.1//EN" "http://www.w3.org/Graphics/SVG/1.1/DTD/svg11.dtd">
<svg version="1.1" id="Layer_1" xmlns="http://www.w3.org/2000/svg" xmlns:xlink="http://www.w3.org/1999/xlink" x="0px" y="0px"
	 width="126px" height="126px" viewBox="0 0 126 126" enable-background="new 0 0 126 126" xml:space="preserve">
<g>
	<path d="M88.908,43.095l3.376-6.504l-7.246-1.09l1.203-7.229l-7.228,1.2l-1.092-7.245l-6.503,3.377l-3.277-6.555L63,24.271
		l-5.141-5.222l-3.276,6.555l-6.503-3.377l-1.091,7.245l-7.228-1.2l1.201,7.229l-7.246,1.09l3.376,6.504l-6.554,3.276l5.221,5.142
		l-5.221,5.142l6.554,3.276l-3.376,6.503l7.246,1.09l-1.201,7.229l7.228-1.202l1.091,7.247l6.503-3.377l3.276,6.555L63,78.754
		l5.141,5.222l3.277-6.555l6.503,3.377l1.092-7.247l7.228,1.202l-1.203-7.229l7.246-1.09l-3.376-6.503l6.554-3.276l-5.221-5.142
		l5.221-5.142L88.908,43.095z M62.811,25.381c11.223,0,20.792,7.076,24.493,17.01c-1.749,1.02-3.537,1.915-5.364,2.687v-9.242
		c-1.335-1.626-2.875-3.075-4.578-4.316V46.72c-1.234,0.371-2.481,0.694-3.746,0.958V29.264c-1.453-0.706-2.985-1.274-4.579-1.688
		V48.39c-1.236,0.13-2.484,0.218-3.746,0.254V26.91c-0.813-0.08-1.635-0.123-2.468-0.123c-0.712,0-1.415,0.037-2.111,0.096v21.68
		c-1.236-0.077-2.487-0.209-3.746-0.375V27.492c-1.593,0.387-3.124,0.927-4.579,1.605v18.312c-1.316-0.28-2.569-0.595-3.746-0.924
		V31.264c-1.695,1.19-3.233,2.586-4.58,4.153v9.59c-2.834-1.039-4.857-2.02-5.788-2.497C41.94,32.513,51.542,25.381,62.811,25.381z
		 M83.347,56.545c0.197-0.269,0.463-0.459,0.797-0.571c0.353-0.12,0.627-0.116,0.823,0.018c0.196,0.136,0.294,0.354,0.294,0.656
		c0,0.303-0.098,0.59-0.294,0.86c-0.195,0.271-0.465,0.469-0.809,0.585c-0.343,0.116-0.614,0.104-0.811-0.032
		c-0.197-0.137-0.296-0.358-0.296-0.661C83.051,57.098,83.15,56.813,83.347,56.545z M83.273,48.298c0-0.361,0.067-0.639,0.203-0.835
		c0.135-0.196,0.391-0.357,0.763-0.483c0.378-0.13,0.632-0.145,0.765-0.04c0.132,0.104,0.198,0.335,0.198,0.698
		c-0.237,2.914-0.356,4.373-0.595,7.284c-0.388,0.136-0.583,0.2-0.973,0.33C83.489,52.472,83.417,51.08,83.273,48.298z
		 M76.033,53.486c1.817-0.37,2.722-0.588,4.515-1.086c0,0.844,0,1.268,0,2.11c-1.794,0.499-2.698,0.716-4.516,1.086
		c0,1.03,0,1.549,0,2.58c2.419-0.493,3.621-0.797,5.997-1.517c0,0.847,0,1.271,0,2.117c-3.267,0.99-4.928,1.377-8.271,1.938
		c0-4.534,0-6.802,0-11.335c3.349-0.564,5.013-0.956,8.286-1.951c0,0.848,0,1.27,0,2.116c-2.381,0.723-3.587,1.026-6.013,1.521
		C76.033,52.035,76.033,52.519,76.033,53.486z M62.5,52.664c0-0.846,0-1.269,0-2.116c3.993-0.026,5.993-0.191,9.948-0.819
		c0,0.848,0,1.271,0,2.117c-1.521,0.242-2.284,0.34-3.813,0.492c0,3.69,0,5.537,0,9.227c-0.918,0.092-1.377,0.131-2.298,0.189
		c0-3.689,0-5.536,0-9.228C64.805,52.627,64.036,52.654,62.5,52.664z M62.893,56.168c0,1.613-0.55,2.971-1.65,4.034
		c-1.101,1.065-2.47,1.556-4.104,1.425c-1.634-0.133-2.995-0.842-4.087-2.085c-1.093-1.243-1.637-2.689-1.637-4.298
		c0-1.613,0.544-2.861,1.637-3.789c1.092-0.928,2.453-1.303,4.087-1.172c1.634,0.133,3.003,0.724,4.104,1.827
		C62.343,53.216,62.893,54.555,62.893,56.168z M51.145,49.645c-1.82,4.224-2.679,6.192-4.478,10.29l-2.298-0.697
		c-1.792-5.044-2.629-8.176-4.392-13.347c0.59,0.335,1.703,0.827,2.358,1.061c1.261,3.727,1.896,5.994,3.171,9.655
		c1.299-2.98,1.952-4.488,3.263-7.535C49.587,49.27,50.323,49.477,51.145,49.645z M62.811,77.644
		c-12.202,0-22.45-8.363-25.326-19.672c11.527,6.803,37.652,7.972,50.604,0.182C85.151,69.368,74.948,77.644,62.811,77.644z"/>
	<path d="M57.132,52.4c-1.016-0.081-1.841,0.169-2.478,0.775C54.019,53.78,53.7,54.58,53.7,55.588c0,1.01,0.319,1.899,0.955,2.654
		c0.636,0.755,1.467,1.186,2.493,1.268c1.017,0.082,1.843-0.215,2.483-0.867c0.64-0.654,0.959-1.49,0.959-2.5
		c0-1.008-0.319-1.859-0.959-2.567C58.992,52.867,58.159,52.484,57.132,52.4z"/>
	<polygon points="49.592,66.58 47.933,63.885 47.16,66.019 44.513,65.781 46.824,68.115 46.845,70.664 49.05,69.971 51.709,71.783 
		50.757,69.02 52.381,67.594 	"/>
	<polygon points="72.94,71.783 75.6,69.971 77.805,70.664 77.825,68.115 80.137,65.781 77.489,66.019 76.717,63.885 75.058,66.58 
		72.269,67.594 73.892,69.02 	"/>
	<polygon points="61.787,68.321 59.074,68.715 61.036,70.63 60.574,73.333 63,72.057 65.426,73.333 64.964,70.63 66.927,68.715 
		64.213,68.321 63,65.864 	"/>
	<path d="M116.122,10.755H9.878c-5.058,0-9.172,4.114-9.172,9.172v62.728c0,5.058,4.115,9.172,9.172,9.172h33.44v13.573
		c-13.733,0.868-23.122,2.615-23.122,4.631c0,2.881,19.164,5.215,42.804,5.215s42.804-2.334,42.804-5.215
		c0-2.016-9.389-3.763-23.122-4.631V91.826h33.44c5.058,0,9.172-4.114,9.172-9.172V19.927
		C125.294,14.869,121.18,10.755,116.122,10.755z M118.415,82.654c0,1.265-1.028,2.293-2.293,2.293H9.878
		c-1.265,0-2.293-1.028-2.293-2.293V19.927c0-1.264,1.028-2.293,2.293-2.293h106.244c1.265,0,2.293,1.029,2.293,2.293V82.654z"/>
</g>
</svg>
