<?xml version="1.0" encoding="utf-8"?>
<!-- Generator: Adobe Illustrator 16.0.0, SVG Export Plug-In . SVG Version: 6.00 Build 0)  -->
<!DOCTYPE svg PUBLIC "-//W3C//DTD SVG 1.1//EN" "http://www.w3.org/Graphics/SVG/1.1/DTD/svg11.dtd">
<svg version="1.1" id="Layer_1" xmlns="http://www.w3.org/2000/svg" xmlns:xlink="http://www.w3.org/1999/xlink" x="0px" y="0px"
	 width="126px" height="126px" viewBox="0 0 126 126" enable-background="new 0 0 126 126" xml:space="preserve">
<g>
	<path d="M114.608,62.999l9.891-9.74l-12.417-6.207l6.396-12.32l-13.728-2.066l2.277-13.694l-13.693,2.276L91.268,7.521
		l-12.32,6.396L72.739,1.501l-9.74,9.891l-9.74-9.891l-6.207,12.416l-12.32-6.396l-2.066,13.727l-13.693-2.276l2.275,13.694
		L7.521,34.731l6.396,12.32L1.501,53.259l9.891,9.74l-9.891,9.742l12.416,6.207L7.521,91.267l13.727,2.066l-2.275,13.695
		l13.693-2.277l2.066,13.729l12.32-6.396l6.207,12.416l9.74-9.891l9.74,9.891l6.208-12.416l12.32,6.396l2.067-13.729l13.693,2.277
		l-2.277-13.695l13.728-2.066l-6.396-12.318l12.417-6.207L114.608,62.999z M62.642,13.493c21.262,0,39.389,13.406,46.4,32.226
		c-3.313,1.93-6.701,3.628-10.162,5.089v-17.51c-2.529-3.08-5.447-5.825-8.674-8.176v28.799c-2.338,0.701-4.701,1.314-7.098,1.814
		V20.85c-2.752-1.339-5.653-2.415-8.674-3.198v39.432c-2.342,0.248-4.707,0.414-7.098,0.48V16.392
		c-1.539-0.152-3.098-0.232-4.676-0.232c-1.348,0-2.68,0.069-3.999,0.182v41.07c-2.343-0.146-4.712-0.396-7.097-0.709V17.493
		c-3.018,0.732-5.918,1.756-8.675,3.041v34.691c-2.494-0.531-4.866-1.125-7.097-1.75V24.64c-3.212,2.255-6.125,4.899-8.676,7.868
		v18.167c-5.369-1.969-9.203-3.824-10.965-4.73C23.103,27.005,41.294,13.493,62.642,13.493z M101.547,72.532
		c0.373-0.508,0.878-0.867,1.51-1.082c0.669-0.227,1.188-0.219,1.56,0.035c0.371,0.256,0.557,0.67,0.557,1.242
		c0,0.574-0.186,1.117-0.557,1.631s-0.881,0.887-1.533,1.107c-0.65,0.221-1.163,0.199-1.536-0.061
		c-0.374-0.26-0.561-0.68-0.561-1.254C100.986,73.579,101.173,73.042,101.547,72.532z M101.407,56.911
		c0-0.688,0.127-1.213,0.385-1.584c0.256-0.37,0.739-0.676,1.445-0.916c0.717-0.246,1.198-0.272,1.449-0.075
		c0.25,0.197,0.375,0.636,0.375,1.323c-0.449,5.52-0.676,8.284-1.127,13.799c-0.734,0.258-1.104,0.381-1.843,0.625
		C101.817,64.817,101.681,62.181,101.407,56.911z M87.691,66.739c3.442-0.701,5.155-1.113,8.554-2.057
		c0,1.598,0.001,2.4,0.001,3.998c-3.399,0.945-5.112,1.354-8.555,2.057c0,1.953-0.001,2.934-0.001,4.887
		c4.583-0.934,6.859-1.508,11.361-2.871c0,1.604,0,2.404,0,4.008c-6.189,1.877-9.336,2.611-15.668,3.674c0-8.59,0-12.885,0-21.474
		c6.345-1.069,9.496-1.81,15.697-3.696c0,1.605,0,2.404,0,4.01c-4.512,1.368-6.797,1.944-11.391,2.881
		C87.69,63.989,87.691,64.905,87.691,66.739z M62.054,65.183c0-1.604,0-2.404,0-4.009c7.563-0.053,11.354-0.364,18.846-1.554
		c0,1.605,0,2.406,0,4.012c-2.881,0.457-4.326,0.643-7.225,0.932c0,6.99,0,10.488,0,17.48c-1.739,0.172-2.609,0.246-4.354,0.357
		c0-6.99,0.001-10.488,0.001-17.48C66.419,65.11,64.963,65.163,62.054,65.183z M62.798,71.819c0,3.057-1.042,5.629-3.127,7.645
		c-2.084,2.016-4.678,2.945-7.773,2.697c-3.096-0.25-5.674-1.596-7.742-3.949c-2.07-2.355-3.102-5.096-3.102-8.143
		c0-3.057,1.031-5.422,3.102-7.18c2.068-1.758,4.646-2.467,7.742-2.219c3.096,0.25,5.689,1.372,7.773,3.463
		C61.755,66.226,62.798,68.763,62.798,71.819z M40.54,59.461c-3.447,8.002-5.074,11.731-8.482,19.493l-4.354-1.32
		c-3.396-9.555-4.982-15.488-8.321-25.285c1.117,0.636,3.227,1.567,4.467,2.01c2.39,7.059,3.593,11.355,6.008,18.291
		c2.461-5.646,3.697-8.501,6.181-14.275C37.59,58.751,38.984,59.143,40.54,59.461z M62.642,112.505
		c-23.117,0-42.531-15.846-47.979-37.27c21.837,12.89,71.33,15.102,95.867,0.344C104.964,96.827,85.636,112.505,62.642,112.505z"/>
	<path d="M51.884,64.683c-1.925-0.154-3.488,0.32-4.693,1.467s-1.809,2.662-1.809,4.572s0.604,3.596,1.809,5.027
		s2.779,2.246,4.724,2.402c1.925,0.154,3.491-0.408,4.703-1.645c1.212-1.238,1.817-2.824,1.817-4.734s-0.604-3.525-1.816-4.865
		C55.407,65.565,53.828,64.839,51.884,64.683z"/>
	<polygon points="37.599,91.544 34.455,86.438 32.991,90.482 27.976,90.032 32.355,94.453 32.395,99.283 36.572,97.969 
		41.61,101.401 39.807,96.166 42.883,93.465 	"/>
	<polygon points="81.831,101.401 86.869,97.969 91.047,99.283 91.086,94.453 95.466,90.032 90.45,90.482 88.986,86.438 
		85.843,91.544 80.559,93.465 83.635,96.166 	"/>
	<polygon points="55.562,95.591 59.279,99.218 58.403,104.339 63,101.92 67.596,104.339 66.72,99.218 70.439,95.591 65.299,94.844 
		63,90.188 60.702,94.844 	"/>
</g>
</svg>
