<?xml version="1.0" encoding="utf-8"?>
<!-- Generator: Adobe Illustrator 16.0.0, SVG Export Plug-In . SVG Version: 6.00 Build 0)  -->
<!DOCTYPE svg PUBLIC "-//W3C//DTD SVG 1.1//EN" "http://www.w3.org/Graphics/SVG/1.1/DTD/svg11.dtd">
<svg version="1.1" id="Layer_1" xmlns="http://www.w3.org/2000/svg" xmlns:xlink="http://www.w3.org/1999/xlink" x="0px" y="0px"
	 width="126px" height="126px" viewBox="0 0 126 126" enable-background="new 0 0 126 126" xml:space="preserve">
<path d="M117.677,0.493c-2.883,0-5.221,2.337-5.221,5.22v3.183L44.939,26.448c-2.553-3.141-6.443-5.15-10.807-5.15
	c-4.889,0-9.182,2.524-11.666,6.335c-7.166,0.379-12.866,6.293-12.866,13.556v15.251c0,6.774,4.963,12.376,11.448,13.406
	L3.832,112.018c-2.043,5,0.356,10.71,5.357,12.752c5.001,2.041,20.335,1.266,19.267-21.319c-0.334-7.075,3.886-9.516,3.886-9.516
	s7.599-3.7,4.636-11.354c-0.923-2.383-0.729-4.605-0.026-6.537c3.202-0.659,6-2.419,7.988-4.864l67.517,17.552v4.258
	c0,2.884,2.338,5.221,5.221,5.221c2.882,0,5.22-2.336,5.22-5.221V5.713C122.896,2.83,120.559,0.493,117.677,0.493z"/>
</svg>
