<?xml version="1.0" encoding="utf-8"?>
<!-- Generator: Adobe Illustrator 16.0.0, SVG Export Plug-In . SVG Version: 6.00 Build 0)  -->
<!DOCTYPE svg PUBLIC "-//W3C//DTD SVG 1.1//EN" "http://www.w3.org/Graphics/SVG/1.1/DTD/svg11.dtd">
<svg version="1.1" id="Layer_1" xmlns="http://www.w3.org/2000/svg" xmlns:xlink="http://www.w3.org/1999/xlink" x="0px" y="0px"
	 width="126px" height="126px" viewBox="0 0 126 126" enable-background="new 0 0 126 126" xml:space="preserve">
<path d="M123.817,55.705L111.059,3.093c-0.342-1.404-1.588-2.385-3.101-2.385l-0.071,0.001c-0.937,0.001-1.812,0.417-2.401,1.128
	L64.856,19.792c-0.946-0.539-2.041-0.851-3.209-0.851c-3.102,0-5.692,2.17-6.347,5.074L18.364,40.34
	c-0.057-0.003-0.103-0.027-0.19-0.004l-0.068,0.001c-2.721,0.307-3.011,2.295-3.011,2.295c-0.008,0.029-0.017,0.059-0.024,0.089
	L2.313,95.334H1.677v1.068c0,7.109,7.371,12.893,16.431,12.893s16.431-5.783,16.431-12.893v-1.068h-0.506l-11.98-48.706
	l35.859-15.846v83.603H47.332v10.908h29.433v-10.908H66.238V30.071c1.187-1.18,1.92-2.512,1.92-4.317l35.118-15.752L92.098,55.705
	h-0.636v1.068c0,7.109,7.371,12.893,16.431,12.893s16.431-5.784,16.431-12.893v-1.068H123.817z M27.603,95.334H8.742l9.43-38.889
	L27.603,95.334z M98.527,55.705l9.429-38.888l9.432,38.888H98.527z"/>
</svg>
