<?xml version="1.0" encoding="utf-8"?>
<!-- Generator: Adobe Illustrator 16.0.0, SVG Export Plug-In . SVG Version: 6.00 Build 0)  -->
<!DOCTYPE svg PUBLIC "-//W3C//DTD SVG 1.1//EN" "http://www.w3.org/Graphics/SVG/1.1/DTD/svg11.dtd">
<svg version="1.1" id="Layer_1" xmlns="http://www.w3.org/2000/svg" xmlns:xlink="http://www.w3.org/1999/xlink" x="0px" y="0px"
	 width="126px" height="126px" viewBox="0 0 126 126" enable-background="new 0 0 126 126" xml:space="preserve">
<g>
	<path d="M92.326,91.576c-8.02-46.672,3.087-69.634,5.574-74.036c0.48-0.546,1.231-1.111,1.231-1.691
		c0-4.904-16.64-8.399-36.55-8.399c-19.91,0-36.05,3.761-36.05,8.399c0,0.737,0.41,1.451,1.176,2.132
		c2.136,3.662,13.806,26.391,5.842,73.604C14.6,94.027,1.75,98.752,1.75,104.183c0,7.936,27.422,14.368,61.25,14.368
		s61.25-6.433,61.25-14.368C124.25,98.741,111.342,94.012,92.326,91.576z M35.557,21.405c6.605,1.743,16.261,2.844,27.024,2.844
		c10.958,0,20.766-1.142,27.378-2.939c-3.763,9.689-8.456,28.774-4.899,59.263c-20.456,6.653-38.478,1.902-44.278-0.015
		C44.256,49.833,39.329,30.818,35.557,21.405z M37.989,98.444c0.828-4.243,1.52-8.323,2.067-12.216
		c4.367,1.38,12.592,3.427,22.964,3.427c6.828,0,14.585-0.891,22.78-3.438c0.558,3.883,1.255,7.943,2.091,12.172
		C66.521,104.676,46.879,100.892,37.989,98.444z"/>
	<path d="M47.568,80.681c2.573,0.827,4.921,1.202,6.935,1.319c1.466-28.214-2.222-48.673-4.113-56.856
		c-1.143-0.099-2.289-0.202-3.442-0.312c-1.294-0.122-2.622-0.246-3.948-0.415C44.326,29.612,49.017,50.608,47.568,80.681z"/>
	<path d="M77.967,80.541c-1.448-30.072,3.243-51.068,4.569-56.264c-1.326,0.169-2.654,0.293-3.948,0.415
		c-1.153,0.109-2.299,0.213-3.442,0.312c-1.891,8.184-5.58,28.643-4.113,56.856C73.046,81.743,75.394,81.368,77.967,80.541z"/>
	<rect x="59.5" y="25.999" width="7" height="56.315"/>
	<polygon points="47.697,89.468 45.822,92.161 43,92.031 44.451,94.777 43.261,97.932 46.033,96.937 48.12,99.016 48.381,95.652 
		50.861,93.784 48.251,92.704 	"/>
	<polygon points="80.1,92.161 78.225,89.468 77.67,92.704 75.061,93.784 77.541,95.652 77.803,99.016 79.889,96.937 82.662,97.932 
		81.471,94.777 82.923,92.031 	"/>
	<polygon points="64.056,94.237 62.649,91.389 61.243,94.237 58.099,94.694 60.374,96.913 59.837,100.046 62.649,98.566 
		65.461,100.046 64.925,96.913 67.2,94.694 	"/>
</g>
</svg>
