<?xml version="1.0" encoding="utf-8"?>
<!-- Generator: Adobe Illustrator 16.0.0, SVG Export Plug-In . SVG Version: 6.00 Build 0)  -->
<!DOCTYPE svg PUBLIC "-//W3C//DTD SVG 1.1//EN" "http://www.w3.org/Graphics/SVG/1.1/DTD/svg11.dtd">
<svg version="1.1" id="Layer_1" xmlns="http://www.w3.org/2000/svg" xmlns:xlink="http://www.w3.org/1999/xlink" x="0px" y="0px"
	 width="126px" height="126px" viewBox="0 0 126 126" enable-background="new 0 0 126 126" xml:space="preserve">
<g>
	<path d="M19.772,11.044c0,24.193,0,48.385,0,72.578c34.557,11.924,66.804-11.925,101.357,0c0-24.193,0-48.385,0-72.578
		C86.574-0.88,54.329,22.97,19.772,11.044z M57.406,32.629c0.323-1.054,0.484-1.582,0.809-2.638c0.322,0.93,0.481,1.396,0.805,2.325
		c1.046-0.209,1.569-0.319,2.613-0.543c-0.846,0.796-1.269,1.192-2.112,1.979c0.322,0.928,0.481,1.39,0.805,2.317
		c-0.846-0.438-1.267-0.659-2.11-1.108c-0.848,0.778-1.269,1.164-2.112,1.93c0.323-1.051,0.482-1.577,0.805-2.63
		c-0.846-0.457-1.267-0.689-2.112-1.161C55.839,32.922,56.362,32.827,57.406,32.629z M48.832,25.688
		c0.322-1.028,0.483-1.542,0.807-2.574c0.322,0.956,0.484,1.433,0.808,2.386c1.044-0.131,1.567-0.205,2.612-0.364
		c-0.847,0.743-1.268,1.11-2.114,1.835c0.324,0.951,0.485,1.426,0.808,2.375c-0.846-0.496-1.268-0.748-2.113-1.263
		c-0.846,0.712-1.267,1.063-2.113,1.754c0.323-1.023,0.484-1.536,0.807-2.562c-0.846-0.529-1.269-0.797-2.112-1.349
		C47.265,25.85,47.785,25.8,48.832,25.688z M48.832,41.711c0.322-1.028,0.483-1.543,0.807-2.574
		c0.322,0.956,0.484,1.432,0.808,2.385c1.044-0.131,1.567-0.204,2.612-0.364c-0.847,0.743-1.268,1.111-2.114,1.834
		c0.324,0.952,0.485,1.426,0.808,2.374c-0.846-0.496-1.268-0.748-2.113-1.263c-0.846,0.713-1.267,1.064-2.113,1.755
		c0.323-1.022,0.484-1.535,0.807-2.561c-0.846-0.528-1.269-0.797-2.112-1.348C47.265,41.872,47.785,41.823,48.832,41.711z
		 M41.288,34.36c0.322-0.994,0.485-1.491,0.81-2.489c0.322,0.988,0.484,1.481,0.807,2.467c1.044-0.028,1.567-0.053,2.612-0.12
		c-0.847,0.668-1.268,0.997-2.113,1.64c0.323,0.982,0.484,1.471,0.807,2.45c-0.846-0.575-1.269-0.868-2.112-1.469
		c-0.847,0.626-1.268,0.933-2.113,1.53c0.322-0.987,0.483-1.483,0.807-2.474c-0.846-0.62-1.27-0.936-2.115-1.586
		C39.723,34.353,40.243,34.361,41.288,34.36z M32.067,25.377c0.323-0.939,0.484-1.409,0.808-2.353
		c0.322,1.043,0.481,1.563,0.807,2.601c1.045,0.143,1.566,0.201,2.612,0.291c-0.846,0.541-1.27,0.802-2.113,1.309
		c0.322,1.034,0.483,1.551,0.808,2.581c-0.847-0.708-1.27-1.07-2.113-1.814c-0.847,0.484-1.268,0.717-2.111,1.163
		c0.322-0.929,0.482-1.395,0.805-2.33c-0.846-0.767-1.267-1.16-2.113-1.966C30.5,25.096,31.023,25.199,32.067,25.377z
		 M32.067,41.399c0.323-0.938,0.484-1.408,0.808-2.353c0.322,1.043,0.481,1.563,0.807,2.601c1.045,0.143,1.566,0.201,2.612,0.291
		c-0.846,0.542-1.27,0.805-2.113,1.312c0.322,1.034,0.483,1.549,0.808,2.578c-0.847-0.707-1.27-1.069-2.113-1.813
		c-0.847,0.484-1.268,0.718-2.111,1.164c0.322-0.929,0.482-1.396,0.805-2.331c-0.846-0.767-1.267-1.16-2.113-1.966
		C30.5,41.118,31.023,41.221,32.067,41.399z M115.795,76.149c-31.091-6.869-59.596,11.14-90.688,4.275c0-2.307,0-3.46,0-5.767
		c31.091,6.871,59.598-11.142,90.688-4.274C115.795,72.69,115.795,73.843,115.795,76.149z M115.795,65.05
		c-31.091-6.871-59.596,11.142-90.688,4.274c0-2.217,0-3.326,0-5.543c31.091,6.869,59.598-11.143,90.688-4.273
		C115.795,61.725,115.795,62.833,115.795,65.05z M115.795,54.173c-31.091-6.87-59.598,11.144-90.688,4.273c0-2.258,0-3.387,0-5.645
		c31.093,6.866,59.598-11.144,90.688-4.274C115.795,50.785,115.795,51.915,115.795,54.173z M115.795,43.191
		c-16.323-3.762-30.236-1.358-46.349,2.375c0-2.439,0-3.657,0-6.096c16.11-3.732,30.027-6.139,46.349-2.375
		C115.795,39.535,115.795,40.752,115.795,43.191z M115.795,31.76c-16.323-3.762-30.238-1.358-46.349,2.375c0-2.21,0-3.314,0-5.524
		c16.109-3.734,30.027-6.138,46.349-2.375C115.795,28.447,115.795,29.551,115.795,31.76z M115.795,20.901
		c-16.323-3.762-30.236-1.357-46.349,2.374c0-2.663,0-3.994,0-6.658c16.11-3.733,30.027-6.139,46.349-2.374
		C115.795,16.906,115.795,18.237,115.795,20.901z"/>
	<path d="M13.709,0.881h-3.352c-3.025,0-5.487,2.461-5.487,5.487c0,2.111,1.183,3.959,2.976,4.873v113.877h8.616V11.113
		c1.664-0.958,2.734-2.738,2.734-4.745C19.196,3.343,16.733,0.881,13.709,0.881z"/>
</g>
</svg>
