<?xml version="1.0" encoding="utf-8"?>
<!-- Generator: Adobe Illustrator 16.0.4, SVG Export Plug-In . SVG Version: 6.00 Build 0)  -->
<!DOCTYPE svg PUBLIC "-//W3C//DTD SVG 1.1//EN" "http://www.w3.org/Graphics/SVG/1.1/DTD/svg11.dtd">
<svg version="1.1" id="Layer_1" xmlns="http://www.w3.org/2000/svg" xmlns:xlink="http://www.w3.org/1999/xlink" x="0px" y="0px"
	 width="50px" height="50px" viewBox="0 0 50 50" enable-background="new 0 0 50 50" xml:space="preserve">
<g>
	<polygon points="22,31.073 20,33.073 30,33.073 28,31.073 	"/>
	<path d="M15,16.927v13h20v-13H15z M24.868,20.7c0.01-0.077,0.026-0.155,0.05-0.229c0.048-0.154,0.111-0.302,0.193-0.441
		c0.175-0.302,0.408-0.546,0.709-0.724c0.13-0.077,0.269-0.146,0.41-0.201c0.123-0.045,0.254-0.067,0.381-0.094
		c0.061-0.013,0.07,0,0.072,0.062c0.002,0.053,0,0.106,0,0.145c0.012,0.193-0.021,0.364-0.072,0.532
		c-0.071,0.228-0.182,0.439-0.322,0.633c-0.137,0.188-0.303,0.345-0.497,0.472c-0.138,0.089-0.28,0.161-0.437,0.21
		c-0.144,0.046-0.287,0.071-0.438,0.076c-0.038,0.001-0.049-0.016-0.053-0.053C24.85,20.958,24.852,20.829,24.868,20.7z
		 M28.436,26.242c-0.106,0.188-0.229,0.367-0.354,0.543c-0.124,0.175-0.257,0.344-0.396,0.507c-0.143,0.163-0.307,0.303-0.498,0.408
		c-0.213,0.116-0.435,0.173-0.683,0.134c-0.181-0.029-0.342-0.105-0.508-0.174c-0.116-0.049-0.235-0.094-0.356-0.129
		c-0.218-0.063-0.439-0.068-0.666-0.049c-0.188,0.018-0.369,0.062-0.541,0.137c-0.103,0.043-0.203,0.089-0.307,0.129
		c-0.206,0.079-0.416,0.125-0.643,0.086c-0.262-0.045-0.478-0.174-0.674-0.343c-0.17-0.146-0.312-0.314-0.445-0.489
		c-0.2-0.262-0.379-0.538-0.532-0.829c-0.088-0.167-0.165-0.341-0.239-0.514c-0.057-0.132-0.105-0.265-0.15-0.4
		c-0.039-0.117-0.067-0.238-0.1-0.358c-0.021-0.083-0.044-0.166-0.06-0.25c-0.021-0.116-0.038-0.234-0.052-0.351
		c-0.015-0.124-0.025-0.249-0.03-0.373c-0.004-0.132-0.002-0.265,0.004-0.396c0.005-0.11,0.013-0.22,0.028-0.328
		c0.015-0.098,0.037-0.195,0.062-0.29c0.033-0.12,0.071-0.24,0.113-0.357c0.055-0.156,0.137-0.298,0.232-0.433
		c0.143-0.206,0.309-0.392,0.506-0.548c0.146-0.119,0.304-0.226,0.479-0.301c0.109-0.047,0.221-0.098,0.336-0.129
		c0.223-0.059,0.447-0.096,0.678-0.058c0.107,0.018,0.215,0.03,0.319,0.054c0.089,0.02,0.175,0.052,0.261,0.081
		c0.1,0.032,0.196,0.066,0.295,0.099c0.084,0.027,0.166,0.06,0.252,0.08c0.185,0.045,0.371,0.08,0.562,0.039
		c0.106-0.023,0.213-0.047,0.317-0.077c0.068-0.021,0.136-0.05,0.203-0.074c0.076-0.028,0.153-0.058,0.232-0.083
		c0.095-0.031,0.189-0.064,0.288-0.082c0.203-0.038,0.409-0.068,0.619-0.042c0.079,0.01,0.163,0.018,0.241,0.036
		c0.084,0.019,0.17,0.039,0.25,0.073c0.137,0.058,0.271,0.12,0.4,0.195c0.236,0.139,0.445,0.314,0.618,0.529
		c0.015,0.017,0.028,0.034,0.049,0.055c-0.028,0.018-0.053,0.034-0.075,0.049c-0.322,0.19-0.566,0.45-0.733,0.785
		c-0.068,0.138-0.114,0.283-0.151,0.434c-0.044,0.184-0.047,0.37-0.04,0.558c0.004,0.085,0.021,0.17,0.04,0.254
		c0.027,0.114,0.055,0.23,0.098,0.339c0.043,0.11,0.101,0.218,0.162,0.319c0.086,0.142,0.19,0.272,0.313,0.385
		c0.172,0.156,0.362,0.28,0.575,0.372c0.011,0.005,0.022,0.005,0.033,0.009c0.025,0.012,0.037,0.03,0.022,0.058
		C28.676,25.77,28.562,26.011,28.436,26.242z"/>
</g>
</svg>
