<?xml version="1.0" encoding="utf-8"?>
<!-- Generator: Adobe Illustrator 16.0.4, SVG Export Plug-In . SVG Version: 6.00 Build 0)  -->
<!DOCTYPE svg PUBLIC "-//W3C//DTD SVG 1.1//EN" "http://www.w3.org/Graphics/SVG/1.1/DTD/svg11.dtd">
<svg version="1.1" id="Layer_1" xmlns="http://www.w3.org/2000/svg" xmlns:xlink="http://www.w3.org/1999/xlink" x="0px" y="0px"
	 width="50px" height="50px" viewBox="0 0 50 50" enable-background="new 0 0 50 50" xml:space="preserve">
<g>
	<path d="M28.497,24.999c0-1.93-1.569-3.5-3.5-3.5c-1.93,0-3.5,1.57-3.5,3.5s1.57,3.5,3.5,3.5c1.019,0,1.931-0.445,2.569-1.145
		l-0.59-1.885l1.357,0.526C28.43,25.679,28.497,25.349,28.497,24.999z M24.997,26.999c-1.104,0-2-0.896-2-2s0.896-2,2-2
		c1.104,0,2,0.896,2,2S26.102,26.999,24.997,26.999z"/>
	<path d="M27.186,28.517c0.141-0.177,0.234-0.305,0.308-0.416c-0.687,0.553-1.547,0.898-2.495,0.898c-2.206,0-4-1.794-4-4
		s1.794-4,4-4s4,1.794,4,4c0,0.413-0.081,0.805-0.197,1.18l0.114,0.043c0.308,0.119,0.597,0.27,0.862,0.445
		c-0.045-0.811,0.123-1.706,0.893-2.592l1.442-1.664l0.304,2.18c0.098,0.7,0.857,1.658,1.528,2.504
		c0.21,0.266,0.421,0.533,0.625,0.805C34.848,26.981,35,26.008,35,25c0-5.522-4.477-10-10-10c-5.523,0-10,4.478-10,10
		s4.477,10,10,10c0.881,0,1.73-0.125,2.545-0.34c-0.896-0.902-1.445-2.132-1.445-3.466C26.098,29.885,26.725,29.095,27.186,28.517z"
		/>
	<path d="M30.67,30.135c-0.072-1.096-0.592-2.389-2.119-2.981c0.539,1.725-1.455,2.029-1.455,4.041c0,1.832,1.254,3.357,2.945,3.806
		c-0.557-0.517,0.202-1.522-0.377-2.252c0.727,0.231,1.382,0.763,1.382,1.696c0.728-0.495-0.179-1.85,1.167-2.747
		c-0.412,1.222,0.7,1.813,0.518,2.618c-0.053,0.236-0.17,0.418-0.318,0.572c1.505-0.559,2.584-1.994,2.584-3.693
		c0-2.182-3.286-4.399-3.573-6.465C29.664,26.759,31.436,28.041,30.67,30.135z"/>
</g>
</svg>
