<?xml version="1.0" encoding="utf-8"?>
<!-- Generator: Adobe Illustrator 16.0.4, SVG Export Plug-In . SVG Version: 6.00 Build 0)  -->
<!DOCTYPE svg PUBLIC "-//W3C//DTD SVG 1.1//EN" "http://www.w3.org/Graphics/SVG/1.1/DTD/svg11.dtd">
<svg version="1.1" id="Layer_1" xmlns="http://www.w3.org/2000/svg" xmlns:xlink="http://www.w3.org/1999/xlink" x="0px" y="0px"
	 width="50px" height="50px" viewBox="0 0 50 50" enable-background="new 0 0 50 50" xml:space="preserve">
<g>
	<g>
		<path d="M31.5,12.5h-13c-0.55,0-1,0.45-1,1v23c0,0.55,0.45,1,1,1h13c0.55,0,1-0.45,1-1v-23C32.5,12.95,32.05,12.5,31.5,12.5z
			 M25,30.889c-0.828,0-1.5-0.673-1.5-1.5c0-0.828,0.672-1.5,1.5-1.5s1.5,0.672,1.5,1.5C26.5,30.216,25.828,30.889,25,30.889z
			 M30.5,23.594h-11v-0.5h11V23.594z M30.5,20.594h-11v-0.5h11V20.594z M30.5,17.344h-11v-3h11V17.344z"/>
	</g>
	<g>
		<ellipse cx="29.164" cy="16.403" rx="0.5" ry="0.25"/>
	</g>
</g>
</svg>
