<?xml version="1.0" encoding="utf-8"?>
<!-- Generator: Adobe Illustrator 16.0.4, SVG Export Plug-In . SVG Version: 6.00 Build 0)  -->
<!DOCTYPE svg PUBLIC "-//W3C//DTD SVG 1.1//EN" "http://www.w3.org/Graphics/SVG/1.1/DTD/svg11.dtd">
<svg version="1.1" id="Layer_1" xmlns="http://www.w3.org/2000/svg" xmlns:xlink="http://www.w3.org/1999/xlink" x="0px" y="0px"
	 width="50px" height="50px" viewBox="0 0 50 50" enable-background="new 0 0 50 50" xml:space="preserve">
<g>
	<g>
		<path d="M26.542,33.636l-0.515-2.571c4.634-0.512,8.238-4.437,8.238-9.206c0-5.117-4.148-9.265-9.266-9.265
			s-9.265,4.148-9.265,9.265c0,4.769,3.604,8.694,8.237,9.206l-0.514,2.571c-4.381,0.215-7.723,1.319-7.723,2.654
			c0,1.488,18.531,1.488,18.531,0C34.266,34.955,30.923,33.851,26.542,33.636z M20.676,21.859c0-2.387,1.936-4.324,4.324-4.324
			c2.389,0,4.324,1.937,4.324,4.324c0,2.388-1.936,4.325-4.324,4.325C22.612,26.184,20.676,24.247,20.676,21.859z"/>
	</g>
	<g>
		<path d="M28.706,21.859c0-2.047-1.659-3.706-3.706-3.706s-3.706,1.659-3.706,3.706c0,2.047,1.659,3.708,3.706,3.708
			S28.706,23.907,28.706,21.859z M23.765,21.859H25v-1.235c0.684,0,1.234,0.553,1.234,1.235c0,0.683-0.553,1.235-1.234,1.235
			C24.318,23.094,23.765,22.542,23.765,21.859z"/>
	</g>
</g>
</svg>
