<?xml version="1.0" encoding="utf-8"?>
<!-- Generator: Adobe Illustrator 16.0.4, SVG Export Plug-In . SVG Version: 6.00 Build 0)  -->
<!DOCTYPE svg PUBLIC "-//W3C//DTD SVG 1.1//EN" "http://www.w3.org/Graphics/SVG/1.1/DTD/svg11.dtd">
<svg version="1.1" id="Layer_1" xmlns="http://www.w3.org/2000/svg" xmlns:xlink="http://www.w3.org/1999/xlink" x="0px" y="0px"
	 width="50px" height="50px" viewBox="0 0 50 50" enable-background="new 0 0 50 50" xml:space="preserve">
<g>
	<g>
		<path d="M31.13,30.373c-1.661,1.391-3.798,2.23-6.13,2.23s-4.469-0.84-6.13-2.23c-2.314,1.507-3.806,3.513-3.806,4.572
			c0,1.834,4.447,0.133,9.936,0.133s9.936,1.701,9.936-0.133C34.936,33.885,33.444,31.879,31.13,30.373z"/>
	</g>
	<g>
		<g>
			<g>
				<path d="M25,31.868c-4.87,0-8.832-3.962-8.832-8.832S20.13,14.204,25,14.204s8.832,3.962,8.832,8.832S29.87,31.868,25,31.868z
					 M25,14.939c-4.464,0-8.096,3.632-8.096,8.096c0,4.464,3.632,8.096,8.096,8.096s8.096-3.632,8.096-8.096
					C33.096,18.571,29.464,14.939,25,14.939z"/>
			</g>
		</g>
		<g>
			<path d="M25,15.675c-4.066,0-7.36,3.295-7.36,7.36c0,4.064,3.294,7.359,7.36,7.359s7.36-3.295,7.36-7.359
				C32.36,18.97,29.066,15.675,25,15.675z M25,26.256c-1.775,0-3.22-1.444-3.22-3.22c0-1.776,1.443-3.22,3.22-3.22
				s3.22,1.444,3.22,3.22C28.22,24.812,26.775,26.256,25,26.256z"/>
		</g>
		<g>
			<path d="M25,20.368c-1.472,0-2.668,1.197-2.668,2.668c0,1.471,1.196,2.668,2.668,2.668s2.668-1.197,2.668-2.668
				C27.668,21.565,26.472,20.368,25,20.368z M25,24.875c-1.015,0-1.84-0.824-1.84-1.84H25v-1.84c1.015,0,1.84,0.824,1.84,1.84
				C26.84,24.051,26.015,24.875,25,24.875z"/>
		</g>
	</g>
</g>
</svg>
