<?xml version="1.0" encoding="utf-8"?>
<!-- Generator: Adobe Illustrator 16.0.4, SVG Export Plug-In . SVG Version: 6.00 Build 0)  -->
<!DOCTYPE svg PUBLIC "-//W3C//DTD SVG 1.1//EN" "http://www.w3.org/Graphics/SVG/1.1/DTD/svg11.dtd">
<svg version="1.1" id="Layer_1" xmlns="http://www.w3.org/2000/svg" xmlns:xlink="http://www.w3.org/1999/xlink" x="0px" y="0px"
	 width="50px" height="50px" viewBox="0 0 50 50" enable-background="new 0 0 50 50" xml:space="preserve">
<g>
	<polygon points="22,31.073 20,33.073 30,33.073 28,31.073 	"/>
	<path d="M15,16.927v13h20v-13H15z M29.686,27.539l-1.717-1.716l0.086-0.085l-0.294-0.294c-0.711,0.582-1.759,0.548-2.421-0.114
		c-0.707-0.707-0.707-1.856,0-2.562c0.707-0.707,1.855-0.707,2.562,0c0.662,0.662,0.695,1.71,0.115,2.421l0.293,0.294l0.086-0.085
		l1.715,1.715L29.686,27.539z M29.727,25.271c-0.102,0-0.375,0-0.748,0l-0.264-0.264c0.4-0.86,0.238-1.897-0.459-2.595
		c-0.872-0.873-2.396-0.873-3.27,0c-0.436,0.436-0.676,1.017-0.676,1.635c0,0.441,0.127,0.86,0.355,1.224c-1.637,0-3.127,0-3.495,0
		c-1.263,0-2.286-1.023-2.286-2.285c0-1.262,1.023-2.285,2.286-2.285c0.23,0,0.448,0.044,0.659,0.108
		c0.341-1.202,1.435-2.087,2.746-2.087c0.973,0,1.831,0.487,2.349,1.229c0.167-0.039,0.338-0.064,0.518-0.064
		c1.262,0,2.285,1.023,2.285,2.285c0,0.112-0.018,0.22-0.033,0.328c0.013,0,0.021-0.007,0.033-0.007c0.768,0,1.39,0.622,1.39,1.39
		C31.115,24.649,30.493,25.271,29.727,25.271z"/>
	<path d="M27.73,22.937c-0.612-0.612-1.608-0.612-2.222,0c-0.613,0.612-0.612,1.609,0,2.221c0.576,0.576,1.488,0.603,2.104,0.095
		l0.211-0.211C28.333,24.425,28.307,23.513,27.73,22.937z"/>
</g>
</svg>
