<?xml version="1.0" encoding="utf-8"?>
<!-- Generator: Adobe Illustrator 16.0.4, SVG Export Plug-In . SVG Version: 6.00 Build 0)  -->
<!DOCTYPE svg PUBLIC "-//W3C//DTD SVG 1.1//EN" "http://www.w3.org/Graphics/SVG/1.1/DTD/svg11.dtd">
<svg version="1.1" id="Layer_1" xmlns="http://www.w3.org/2000/svg" xmlns:xlink="http://www.w3.org/1999/xlink" x="0px" y="0px"
	 width="50px" height="50px" viewBox="0 0 50 50" enable-background="new 0 0 50 50" xml:space="preserve">
<g>
	<path d="M34.717,29.195v-0.883v-5.3v-5.3c0-0.485-0.398-0.883-0.884-0.883H16.168c-0.486,0-0.885,0.396-0.885,0.883v5.3v5.3v0.883
		l-2.207,2.65c0,0.73,0.593,1.324,1.324,1.324h21.2c0.731,0,1.324-0.594,1.324-1.324L34.717,29.195z M26.768,32.729h-3.534
		c-0.122,0-0.221-0.098-0.221-0.221s0.099-0.221,0.221-0.221h3.534c0.121,0,0.221,0.098,0.221,0.221
		C26.986,32.631,26.889,32.729,26.768,32.729z M21.359,31.846l0.674-0.809h5.934l0.674,0.809H21.359z M33.473,27.633
		c0,0.426-0.347,0.771-0.77,0.771H17.297c-0.423,0-0.77-0.348-0.77-0.771v-9.24c0-0.426,0.347-0.771,0.77-0.771h15.406
		c0.423,0,0.77,0.347,0.77,0.771V27.633z"/>
	<path d="M29.105,23.858c-0.01,0-0.019,0.006-0.028,0.006c0.014-0.094,0.028-0.188,0.028-0.285c0-1.096-0.89-1.984-1.984-1.984
		c-0.156,0-0.307,0.022-0.45,0.057c-0.45-0.645-1.195-1.067-2.041-1.067c-1.139,0-2.089,0.771-2.386,1.813
		c-0.183-0.057-0.372-0.095-0.572-0.095c-1.097,0-1.985,0.888-1.985,1.985c0,1.096,0.889,1.984,1.985,1.984c0.752,0,6.875,0,7.436,0
		c0.666,0,1.205-0.541,1.205-1.207C30.312,24.399,29.771,23.858,29.105,23.858z"/>
</g>
</svg>
