<?xml version="1.0" encoding="utf-8"?>
<!-- Generator: Adobe Illustrator 16.0.4, SVG Export Plug-In . SVG Version: 6.00 Build 0)  -->
<!DOCTYPE svg PUBLIC "-//W3C//DTD SVG 1.1//EN" "http://www.w3.org/Graphics/SVG/1.1/DTD/svg11.dtd">
<svg version="1.1" id="Layer_1" xmlns="http://www.w3.org/2000/svg" xmlns:xlink="http://www.w3.org/1999/xlink" x="0px" y="0px"
	 width="50px" height="50px" viewBox="0 0 50 50" enable-background="new 0 0 50 50" xml:space="preserve">
<g>
	<polygon points="22,31.073 20,33.073 30,33.073 28,31.073 	"/>
	<circle cx="21.667" cy="21.536" r="0.87"/>
	<circle cx="27.295" cy="24.28" r="1.237"/>
	<path d="M15,16.927v13h20v-13H15z M22.823,22.827c-0.065,0.057-0.139,0.101-0.208,0.149l0.055,0.863l-0.719,0.192l-0.383-0.775
		c-0.085-0.006-0.172-0.008-0.255-0.024l-0.564,0.642l-0.645-0.373l0.273-0.81c-0.058-0.064-0.109-0.133-0.158-0.208l-0.854,0.055
		l-0.192-0.72l0.768-0.379c0.004-0.089,0.014-0.174,0.032-0.259l-0.642-0.564l0.373-0.645l0.81,0.273
		c0.063-0.056,0.138-0.101,0.208-0.149l-0.055-0.863l0.719-0.192l0.383,0.775c0.085,0.006,0.172,0.009,0.255,0.025l0.564-0.642
		l0.645,0.373l-0.273,0.809c0.058,0.065,0.11,0.134,0.158,0.209l0.855-0.056l0.191,0.72l-0.767,0.379
		c-0.004,0.089-0.014,0.174-0.032,0.259l0.642,0.564L23.633,23.1L22.823,22.827z M30.829,24.81l-1.194,0.238
		c-0.039,0.119-0.084,0.233-0.141,0.343l0.675,1.011l-0.75,0.75l-1.012-0.674c-0.108,0.056-0.226,0.09-0.341,0.129l-0.241,1.207
		h-1.06l-0.242-1.207c-0.114-0.041-0.232-0.074-0.34-0.129l-1.013,0.676l-0.75-0.75l0.675-1.012
		c-0.056-0.11-0.102-0.224-0.141-0.343L23.76,24.81v-1.06l1.195-0.239c0.039-0.119,0.084-0.233,0.141-0.343l-0.675-1.013l0.75-0.75
		l1.013,0.675c0.107-0.054,0.226-0.089,0.34-0.129l0.242-1.206h1.06l0.241,1.206c0.115,0.04,0.232,0.075,0.341,0.129l1.012-0.675
		l0.749,0.75l-0.674,1.011c0.056,0.11,0.102,0.224,0.141,0.343l1.195,0.239L30.829,24.81z"/>
</g>
</svg>
