<?xml version="1.0" encoding="utf-8"?>
<!-- Generator: Adobe Illustrator 16.0.4, SVG Export Plug-In . SVG Version: 6.00 Build 0)  -->
<!DOCTYPE svg PUBLIC "-//W3C//DTD SVG 1.1//EN" "http://www.w3.org/Graphics/SVG/1.1/DTD/svg11.dtd">
<svg version="1.1" id="Layer_1" xmlns="http://www.w3.org/2000/svg" xmlns:xlink="http://www.w3.org/1999/xlink" x="0px" y="0px"
	 width="50px" height="50px" viewBox="0 0 50 50" enable-background="new 0 0 50 50" xml:space="preserve">
<g>
	<path d="M15,16.927v13h20v-13H15z M34,28.927H16v-11h18V28.927z"/>
	<path d="M25.256,25.072l-1.715,0.343v1.522l1.715,0.342c0.057,0.171,0.122,0.335,0.202,0.492l-0.436,0.654h7.188l-0.437-0.654
		c0.082-0.157,0.146-0.32,0.203-0.492l1.713-0.342l0.002-1.522l-1.717-0.343c-0.056-0.171-0.121-0.335-0.201-0.493l0.969-1.453
		l-1.076-1.078l-1.455,0.969c-0.154-0.078-0.324-0.128-0.488-0.185L29.375,21.1h-1.521l-0.348,1.732
		c-0.166,0.058-0.334,0.107-0.488,0.185l-1.455-0.969l-1.077,1.077l0.969,1.454C25.377,24.737,25.312,24.901,25.256,25.072z
		 M28.616,24.399c0.981,0,1.776,0.796,1.776,1.777c0,0.981-0.795,1.777-1.776,1.777s-1.777-0.796-1.777-1.777
		C26.839,25.195,27.635,24.399,28.616,24.399z"/>
	<path d="M19.246,23.253l0.196,0.735l0.874-0.056c0.049,0.076,0.102,0.147,0.16,0.212l-0.279,0.827l0.659,0.38l0.577-0.655
		c0.084,0.017,0.173,0.019,0.26,0.025l0.392,0.792l0.735-0.196l-0.057-0.882c0.071-0.049,0.147-0.095,0.212-0.152l0.828,0.278
		l0.38-0.658l-0.656-0.577c0.019-0.086,0.029-0.173,0.033-0.265l0.783-0.387l-0.195-0.735l-0.874,0.057
		c-0.049-0.077-0.102-0.147-0.161-0.214l0.28-0.827l-0.659-0.38l-0.577,0.656c-0.084-0.017-0.173-0.02-0.26-0.025l-0.392-0.792
		L20.77,20.61l0.057,0.882c-0.072,0.049-0.147,0.095-0.212,0.152l-0.828-0.279l-0.38,0.659l0.656,0.577
		c-0.019,0.086-0.029,0.174-0.033,0.265L19.246,23.253z M21.565,22.105c0.474-0.127,0.961,0.155,1.088,0.628
		s-0.154,0.961-0.628,1.088c-0.474,0.127-0.961-0.155-1.088-0.628S21.091,22.232,21.565,22.105z"/>
	<polygon points="22,31.073 20,33.073 30,33.073 28,31.073 	"/>
</g>
</svg>
