<?xml version="1.0" encoding="utf-8"?>
<!-- Generator: Adobe Illustrator 16.0.4, SVG Export Plug-In . SVG Version: 6.00 Build 0)  -->
<!DOCTYPE svg PUBLIC "-//W3C//DTD SVG 1.1//EN" "http://www.w3.org/Graphics/SVG/1.1/DTD/svg11.dtd">
<svg version="1.1" id="Layer_1" xmlns="http://www.w3.org/2000/svg" xmlns:xlink="http://www.w3.org/1999/xlink" x="0px" y="0px"
	 width="50px" height="50px" viewBox="0 0 50 50" enable-background="new 0 0 50 50" xml:space="preserve">
<g>
	<path d="M34.717,29.195v-0.883v-5.3v-5.3c0-0.485-0.397-0.883-0.884-0.883H16.168c-0.486,0-0.885,0.396-0.885,0.883v5.3v5.3v0.883
		l-2.207,2.65c0,0.73,0.593,1.324,1.324,1.324H35.6c0.731,0,1.324-0.594,1.324-1.324L34.717,29.195z M26.767,32.729h-3.532
		c-0.122,0-0.222-0.098-0.222-0.221s0.1-0.221,0.222-0.221h3.532c0.122,0,0.222,0.098,0.222,0.221
		C26.987,32.631,26.889,32.729,26.767,32.729z M21.359,31.846l0.674-0.809h5.934l0.674,0.809H21.359z M33.473,27.633
		c0,0.426-0.347,0.771-0.77,0.771H17.297c-0.423,0-0.77-0.348-0.77-0.771v-9.24c0-0.426,0.347-0.771,0.77-0.771h15.406
		c0.423,0,0.77,0.347,0.77,0.771V27.633z"/>
	<path d="M29.494,23.168l0.674-1.012l-0.748-0.75l-1.013,0.674c-0.108-0.055-0.227-0.089-0.341-0.129l-0.241-1.205h-1.061
		l-0.241,1.205c-0.115,0.041-0.232,0.074-0.341,0.129l-1.013-0.674l-0.749,0.748l0.674,1.014c-0.056,0.109-0.102,0.225-0.141,0.343
		L23.76,23.75v1.061l1.194,0.238c0.039,0.119,0.085,0.232,0.141,0.344l-0.675,1.011l0.75,0.75l1.013-0.676
		c0.107,0.057,0.226,0.09,0.341,0.129l0.241,1.207h1.061l0.241-1.207c0.114-0.039,0.231-0.072,0.341-0.129l1.012,0.676l0.75-0.75
		l-0.675-1.011c0.057-0.11,0.102-0.225,0.141-0.344l1.193-0.238l0.002-1.061l-1.195-0.239
		C29.596,23.393,29.551,23.278,29.494,23.168z M27.295,25.518c-0.684,0-1.236-0.554-1.236-1.238c0-0.682,0.554-1.235,1.236-1.235
		s1.238,0.554,1.238,1.235C28.533,24.963,27.979,25.518,27.295,25.518z"/>
	<path d="M23.363,21.891c0.018-0.084,0.026-0.17,0.031-0.26l0.768-0.379l-0.191-0.719l-0.854,0.056
		c-0.048-0.075-0.102-0.146-0.158-0.21l0.273-0.809l-0.646-0.373l-0.563,0.643c-0.083-0.017-0.17-0.02-0.256-0.025l-0.384-0.774
		l-0.72,0.192l0.056,0.863c-0.069,0.049-0.145,0.094-0.208,0.148l-0.811-0.273l-0.372,0.646l0.642,0.564
		c-0.018,0.084-0.026,0.17-0.03,0.258l-0.77,0.379l0.192,0.722l0.854-0.056c0.048,0.074,0.101,0.144,0.157,0.207l-0.272,0.811
		l0.646,0.372l0.563-0.642c0.082,0.017,0.171,0.019,0.256,0.023l0.384,0.775l0.719-0.191l-0.055-0.863
		c0.068-0.049,0.143-0.093,0.208-0.148l0.81,0.271l0.373-0.645L23.363,21.891z M21.893,22.376c-0.465,0.124-0.94-0.151-1.064-0.615
		s0.15-0.94,0.614-1.065c0.465-0.123,0.94,0.152,1.065,0.615C22.632,21.774,22.356,22.251,21.893,22.376z"/>
</g>
</svg>
