<?xml version="1.0" encoding="utf-8"?>
<!-- Generator: Adobe Illustrator 16.0.4, SVG Export Plug-In . SVG Version: 6.00 Build 0)  -->
<!DOCTYPE svg PUBLIC "-//W3C//DTD SVG 1.1//EN" "http://www.w3.org/Graphics/SVG/1.1/DTD/svg11.dtd">
<svg version="1.1" id="Layer_1" xmlns="http://www.w3.org/2000/svg" xmlns:xlink="http://www.w3.org/1999/xlink" x="0px" y="0px"
	 width="50px" height="50px" viewBox="0 0 50 50" enable-background="new 0 0 50 50" xml:space="preserve">
<g>
	<polygon points="22,31.073 20,33.073 30,33.073 28,31.073 	"/>
	<path d="M15,16.927v13h20v-13H15z M26.889,21.775c-0.105,0-0.209,0-0.314,0c0,0.01-0.001,0.017-0.001,0.024
		c0,0.233,0,0.467,0,0.701c0.001,0.225-0.087,0.416-0.234,0.579c-0.089,0.098-0.19,0.185-0.287,0.276
		c-0.257,0.244-0.516,0.487-0.771,0.732c-0.069,0.066-0.103,0.154-0.118,0.249c-0.003,0.024-0.004,0.049-0.004,0.074
		c0,0.559,0,1.117-0.001,1.677c0,0.022,0.006,0.029,0.027,0.034c0.32,0.076,0.556,0.338,0.6,0.665
		c0.056,0.415-0.235,0.808-0.647,0.877c-0.425,0.071-0.821-0.201-0.908-0.623c-0.084-0.41,0.179-0.822,0.586-0.918
		c0.025-0.005,0.031-0.017,0.031-0.04c-0.001-0.167-0.001-0.333,0-0.499c0-0.113-0.039-0.211-0.106-0.3
		c-0.005-0.006-0.011-0.012-0.017-0.018c-0.343-0.325-0.689-0.647-1.028-0.976c-0.17-0.165-0.264-0.37-0.264-0.612
		c0-0.242,0-0.483,0.001-0.725c0-0.019-0.005-0.027-0.023-0.034c-0.195-0.08-0.316-0.282-0.291-0.484
		c0.028-0.222,0.192-0.389,0.409-0.418c0.289-0.038,0.547,0.198,0.531,0.488c-0.011,0.199-0.114,0.335-0.294,0.416
		c-0.015,0.006-0.021,0.014-0.021,0.03c0,0.253-0.001,0.506,0.001,0.759c0.001,0.128,0.048,0.24,0.143,0.329
		c0.312,0.296,0.625,0.591,0.937,0.887c0.006,0.005,0.012,0.011,0.021,0.02c0-1.609,0-3.213,0-4.819c-0.127,0-0.255,0-0.388,0
		c0.183-0.316,0.363-0.629,0.545-0.945c0.183,0.315,0.363,0.627,0.544,0.942c-0.131,0-0.258,0-0.387,0c0,1.214,0,2.426,0,3.641
		c0.007-0.006,0.011-0.009,0.016-0.014c0.321-0.304,0.643-0.606,0.963-0.912c0.066-0.064,0.1-0.148,0.116-0.239
		c0.004-0.023,0.007-0.047,0.007-0.071c0-0.243,0-0.486,0-0.73c0-0.006,0-0.012,0-0.021c-0.104,0-0.209,0-0.313,0
		c0-0.316,0-0.629,0-0.943c0.313,0,0.626,0,0.94,0C26.889,21.146,26.889,21.459,26.889,21.775z"/>
</g>
</svg>
