<?xml version="1.0" encoding="utf-8"?>
<!-- Generator: Adobe Illustrator 16.0.4, SVG Export Plug-In . SVG Version: 6.00 Build 0)  -->
<!DOCTYPE svg PUBLIC "-//W3C//DTD SVG 1.1//EN" "http://www.w3.org/Graphics/SVG/1.1/DTD/svg11.dtd">
<svg version="1.1" id="Layer_1" xmlns="http://www.w3.org/2000/svg" xmlns:xlink="http://www.w3.org/1999/xlink" x="0px" y="0px"
	 width="50px" height="50px" viewBox="0 0 50 50" enable-background="new 0 0 50 50" xml:space="preserve">
<g>
	<g>
		<polygon points="20.375,32.698 18.375,34.698 28.375,34.698 26.375,32.698 		"/>
	</g>
	<g>
		<path d="M31.375,15.302c-2.188,0-4.062,1.345-4.85,3.25h-13.15v13h20v-6.15c1.904-0.788,3.25-2.663,3.25-4.85
			C36.625,17.657,34.27,15.302,31.375,15.302z M31.375,25.302c-2.619,0-4.75-2.131-4.75-4.75c0-2.619,2.131-4.75,4.75-4.75
			s4.75,2.131,4.75,4.75C36.125,23.171,33.994,25.302,31.375,25.302z"/>
	</g>
	<g>
		<polygon points="31.911,21.582 32.115,17.359 30.633,17.359 30.848,21.582 		"/>
	</g>
	<g>
		<path d="M31.379,22.048c-0.493,0-0.839,0.354-0.839,0.848c0,0.484,0.335,0.848,0.839,0.848s0.83-0.364,0.83-0.848
			C32.199,22.402,31.873,22.048,31.379,22.048z"/>
	</g>
</g>
</svg>
