<?xml version="1.0" encoding="utf-8"?>
<!-- Generator: Adobe Illustrator 16.0.4, SVG Export Plug-In . SVG Version: 6.00 Build 0)  -->
<!DOCTYPE svg PUBLIC "-//W3C//DTD SVG 1.1//EN" "http://www.w3.org/Graphics/SVG/1.1/DTD/svg11.dtd">
<svg version="1.1" id="Layer_1" xmlns="http://www.w3.org/2000/svg" xmlns:xlink="http://www.w3.org/1999/xlink" x="0px" y="0px"
	 width="50px" height="50px" viewBox="0 0 50 50" enable-background="new 0 0 50 50" xml:space="preserve">
<g>
	<polygon points="22,31.073 20,33.073 30,33.073 28,31.073 	"/>
	<path d="M15,16.927v13h20v-13H15z M24.287,26.418c-0.983-0.143-1.94-0.282-2.901-0.422c0-0.795,0-1.566,0-2.353
		c0.97,0,1.928,0,2.901,0C24.287,24.562,24.287,25.479,24.287,26.418z M24.29,23.222c-0.968,0-1.92,0-2.895,0
		c0-0.779,0-1.557,0-2.369c0.953-0.138,1.916-0.278,2.895-0.421C24.29,21.369,24.29,22.281,24.29,23.222z M28.592,27.04
		c-1.304-0.188-2.591-0.374-3.89-0.562c0-0.947,0-1.882,0-2.833c1.291,0,2.575,0,3.89,0C28.592,24.773,28.592,25.887,28.592,27.04z
		 M28.613,23.22c-1.32,0-2.604,0-3.906,0c0-0.945,0-1.885,0-2.846c0.604-0.088,1.206-0.173,1.809-0.264
		c0.635-0.096,1.27-0.197,1.903-0.295c0.065,0,0.131,0,0.196,0C28.613,20.944,28.613,22.075,28.613,23.22z"/>
</g>
</svg>
