<?xml version="1.0" encoding="utf-8"?>
<!-- Generator: Adobe Illustrator 16.0.4, SVG Export Plug-In . SVG Version: 6.00 Build 0)  -->
<!DOCTYPE svg PUBLIC "-//W3C//DTD SVG 1.1//EN" "http://www.w3.org/Graphics/SVG/1.1/DTD/svg11.dtd">
<svg version="1.1" id="Layer_1" xmlns="http://www.w3.org/2000/svg" xmlns:xlink="http://www.w3.org/1999/xlink" x="0px" y="0px"
	 width="50px" height="50px" viewBox="0 0 50 50" enable-background="new 0 0 50 50" xml:space="preserve">
<g>
	<g>
		<path d="M16.359,19.946v-1.141c0-0.208-0.168-0.375-0.375-0.375h-2.045c-0.207,0-0.375,0.168-0.375,0.375
			c0,0.208,0.168,0.375,0.375,0.375h1.67v2.518h-1.67v0.585h1.67v0.73h-1.67v4.09h1.67v0.729h-1.67v0.585h1.67v2.775
			c0,0.207,0.168,0.375,0.375,0.375s0.375-0.168,0.375-0.375V30.17h20.076V19.945L16.359,19.946L16.359,19.946z M34.256,26.593
			H18.029c-0.281,0-0.512-0.229-0.512-0.511s0.229-0.512,0.512-0.512h16.227c0.281,0,0.512,0.229,0.512,0.512
			S34.537,26.593,34.256,26.593z M34.256,24.548H18.029c-0.281,0-0.512-0.229-0.512-0.511c0-0.283,0.229-0.512,0.512-0.512h16.227
			c0.281,0,0.512,0.229,0.512,0.512C34.768,24.319,34.537,24.548,34.256,24.548z"/>
	</g>
	<g>
		<path d="M18.042,30.518c0.03,0.379,0.192,1.053,0.397,1.053h9.406c0.204,0,0.367-0.674,0.397-1.053H18.042z"/>
	</g>
	<g>
		<path d="M29.289,30.518c0.029,0.379,0.193,1.053,0.398,1.053h4.293c0.205,0,0.369-0.674,0.397-1.053H29.289z"/>
	</g>
</g>
</svg>
