<?xml version="1.0" encoding="utf-8"?>
<!-- Generator: Adobe Illustrator 16.0.4, SVG Export Plug-In . SVG Version: 6.00 Build 0)  -->
<!DOCTYPE svg PUBLIC "-//W3C//DTD SVG 1.1//EN" "http://www.w3.org/Graphics/SVG/1.1/DTD/svg11.dtd">
<svg version="1.1" id="Layer_1" xmlns="http://www.w3.org/2000/svg" xmlns:xlink="http://www.w3.org/1999/xlink" x="0px" y="0px"
	 width="50px" height="50px" viewBox="0 0 50 50" enable-background="new 0 0 50 50" xml:space="preserve">
<g>
	<polygon points="22,31.073 20,33.073 30,33.073 28,31.073 	"/>
	<path d="M25,21.927c-0.828,0-1.5,0.672-1.5,1.5c0,0.828,0.672,1.5,1.5,1.5s1.5-0.672,1.5-1.5C26.5,22.599,25.828,21.927,25,21.927z
		 M25,24.584c-0.639,0-1.158-0.519-1.158-1.158c0-0.639,0.519-1.158,1.158-1.158c0.639,0,1.158,0.519,1.158,1.158
		C26.158,24.065,25.639,24.584,25,24.584z"/>
	<circle cx="25" cy="23.427" r="0.579"/>
	<path d="M15,16.927v13h20v-13H15z M25,27.286c-2.131,0-3.859-1.728-3.859-3.859c0-2.131,1.728-3.859,3.859-3.859
		s3.859,1.728,3.859,3.859C28.859,25.559,27.131,27.286,25,27.286z"/>
</g>
</svg>
