<?xml version="1.0" encoding="utf-8"?>
<!-- Generator: Adobe Illustrator 16.0.4, SVG Export Plug-In . SVG Version: 6.00 Build 0)  -->
<!DOCTYPE svg PUBLIC "-//W3C//DTD SVG 1.1//EN" "http://www.w3.org/Graphics/SVG/1.1/DTD/svg11.dtd">
<svg version="1.1" id="Layer_1" xmlns="http://www.w3.org/2000/svg" xmlns:xlink="http://www.w3.org/1999/xlink" x="0px" y="0px"
	 width="50px" height="50px" viewBox="0 0 50 50" enable-background="new 0 0 50 50" xml:space="preserve">
<g>
	<path d="M28.512,23.122c1.518-0.646,3.497-1.04,6.398-0.958c-1.389-1.766-2.631-3.055-3.375-4.35
		c-2.057,1.186-3.564,2.414-4.686,3.658c-0.517-0.271-1.095-0.438-1.713-0.459c0.193-1.625,0.831-3.529,2.364-6.015
		c-1.667,0-3.333,0-5,0c-0.349,2.957-0.121,5.011,0.378,6.621c-0.515,0.323-0.947,0.761-1.269,1.278
		c-1.309-0.953-2.633-2.293-4.001-4.183c-0.686,1.532-1.367,2.562-2.519,3.446c2.371,1.77,4.273,2.615,5.926,2.994
		c0.025,0.623,0.195,1.201,0.472,1.719c-1.518,0.646-3.497,1.039-6.398,0.957c1.388,1.766,2.63,3.055,3.376,4.35
		c2.055-1.186,3.563-2.412,4.684-3.656c0.517,0.271,1.095,0.438,1.715,0.459c-0.193,1.625-0.831,3.529-2.364,6.015
		c1.667,0,3.333,0,5,0c0.35-2.957,0.121-5.011-0.379-6.621c0.516-0.323,0.947-0.761,1.27-1.278c1.31,0.952,2.635,2.293,4.002,4.18
		c0.686-1.531,1.366-2.562,2.519-3.445c-2.371-1.77-4.272-2.614-5.927-2.994C28.959,24.219,28.789,23.641,28.512,23.122z M25,26.25
		c-0.69,0-1.25-0.561-1.25-1.25s0.56-1.25,1.25-1.25c0.689,0,1.25,0.561,1.25,1.25S25.689,26.25,25,26.25z"/>
	<path d="M35.5,12.5h-21c-1.1,0-2,0.9-2,2v21c0,1.1,0.9,2,2,2h21c1.1,0,2-0.9,2-2v-21C37.5,13.4,36.6,12.5,35.5,12.5z M14.25,13.5
		c0.415,0,0.75,0.335,0.75,0.75S14.665,15,14.25,15s-0.75-0.335-0.75-0.75S13.835,13.5,14.25,13.5z M14.25,36.5
		c-0.415,0-0.75-0.335-0.75-0.75S13.835,35,14.25,35S15,35.335,15,35.75S14.665,36.5,14.25,36.5z M25,36c-6.07,0-11-4.921-11-11
		s4.93-11,11-11c6.07,0,11,4.921,11,11S31.07,36,25,36z M35.75,36.5c-0.415,0-0.75-0.335-0.75-0.75S35.335,35,35.75,35
		s0.75,0.335,0.75,0.75S36.165,36.5,35.75,36.5z M35.75,15C35.335,15,35,14.665,35,14.25s0.335-0.75,0.75-0.75s0.75,0.335,0.75,0.75
		S36.165,15,35.75,15z"/>
</g>
</svg>
