<?xml version="1.0" encoding="utf-8"?>
<!-- Generator: Adobe Illustrator 16.0.4, SVG Export Plug-In . SVG Version: 6.00 Build 0)  -->
<!DOCTYPE svg PUBLIC "-//W3C//DTD SVG 1.1//EN" "http://www.w3.org/Graphics/SVG/1.1/DTD/svg11.dtd">
<svg version="1.1" id="Layer_1" xmlns="http://www.w3.org/2000/svg" xmlns:xlink="http://www.w3.org/1999/xlink" x="0px" y="0px"
	 width="50px" height="50px" viewBox="0 0 50 50" enable-background="new 0 0 50 50" xml:space="preserve">
<g>
	<polygon points="22,31.073 20,33.073 30,33.073 28,31.073 	"/>
	<path d="M15,16.927v13h20v-13H15z M29.105,26.271c-0.56,0-6.683,0-7.435,0c-1.097,0-1.985-0.89-1.985-1.985
		c0-1.097,0.89-1.985,1.985-1.985c0.2,0,0.39,0.039,0.572,0.094c0.297-1.044,1.247-1.813,2.386-1.813
		c0.846,0,1.592,0.423,2.041,1.068c0.145-0.034,0.294-0.056,0.45-0.056c1.096,0,1.985,0.889,1.985,1.985
		c0,0.097-0.017,0.191-0.029,0.285c0.011,0,0.02-0.006,0.029-0.006c0.666,0,1.205,0.541,1.205,1.207
		C30.311,25.73,29.771,26.271,29.105,26.271z"/>
</g>
</svg>
