<?xml version="1.0" encoding="utf-8"?>
<!-- Generator: Adobe Illustrator 16.0.4, SVG Export Plug-In . SVG Version: 6.00 Build 0)  -->
<!DOCTYPE svg PUBLIC "-//W3C//DTD SVG 1.1//EN" "http://www.w3.org/Graphics/SVG/1.1/DTD/svg11.dtd">
<svg version="1.1" id="Layer_1" xmlns="http://www.w3.org/2000/svg" xmlns:xlink="http://www.w3.org/1999/xlink" x="0px" y="0px"
	 width="50px" height="50px" viewBox="0 0 50 50" enable-background="new 0 0 50 50" xml:space="preserve">
<g>
	<g>
		<ellipse cx="28.469" cy="17.836" rx="0.417" ry="0.208"/>
	</g>
	<g>
		<path d="M26.794,29.693c-0.565,0.326-0.979,0.664-1.287,1.005c-0.142-0.074-0.3-0.12-0.471-0.125
			c0.054-0.447,0.229-0.97,0.647-1.651c-0.457,0-0.915,0-1.371,0c-0.096,0.811-0.034,1.376,0.103,1.817
			c-0.141,0.089-0.26,0.209-0.348,0.351c-0.359-0.261-0.722-0.629-1.098-1.146c-0.188,0.421-0.376,0.703-0.691,0.945
			c0.65,0.486,1.173,0.719,1.626,0.822c0.007,0.171,0.052,0.329,0.129,0.473c-0.415,0.176-0.959,0.284-1.755,0.262
			c0.38,0.484,0.721,0.839,0.926,1.193c0.564-0.324,0.979-0.662,1.286-1.004c0.142,0.075,0.3,0.121,0.471,0.126
			c-0.054,0.446-0.229,0.968-0.648,1.651c0.457,0,0.915,0,1.372,0c0.096-0.811,0.033-1.375-0.104-1.817
			c0.141-0.09,0.26-0.209,0.348-0.351c0.359,0.261,0.723,0.629,1.098,1.146c0.189-0.421,0.377-0.703,0.691-0.945
			c-0.65-0.486-1.173-0.719-1.626-0.822c-0.007-0.171-0.052-0.33-0.129-0.473c0.415-0.176,0.959-0.284,1.755-0.262
			C27.339,30.404,26.999,30.05,26.794,29.693z M25,32.01c-0.188,0-0.343-0.152-0.343-0.343c0-0.188,0.154-0.343,0.343-0.343
			s0.344,0.154,0.344,0.343C25.343,31.855,25.189,32.01,25,32.01z"/>
	</g>
	<g>
		<path d="M31.322,24.17l0.689-7.923c0.039-0.457-0.303-0.83-0.762-0.83h-0.193l0.084-1.254C31.2,13.248,30.5,12.5,29.583,12.5
			h-9.166c-0.917,0-1.617,0.748-1.557,1.663l0.084,1.254H18.75c-0.459,0-0.801,0.373-0.762,0.83l0.69,7.923
			c0.039,0.456,0.039,1.204,0,1.66l-0.69,7.923c-0.039,0.457,0.303,0.83,0.762,0.83h0.194l-0.084,1.254
			C18.8,36.752,19.5,37.5,20.417,37.5h9.166c0.917,0,1.617-0.748,1.558-1.663l-0.084-1.254h0.193c0.459,0,0.801-0.373,0.762-0.83
			l-0.689-7.923C31.283,25.374,31.283,24.626,31.322,24.17z M28.886,13.434c0.345,0,0.625,0.28,0.625,0.625
			c0,0.345-0.28,0.625-0.625,0.625s-0.625-0.28-0.625-0.625C28.261,13.714,28.542,13.434,28.886,13.434z M27.245,13.584
			c0.263,0,0.476,0.211,0.476,0.474c0,0.263-0.213,0.474-0.476,0.474s-0.474-0.211-0.474-0.474
			C26.771,13.795,26.982,13.584,27.245,13.584z M25,35c-1.841,0-3.333-1.493-3.333-3.333s1.492-3.333,3.333-3.333
			s3.333,1.493,3.333,3.333S26.841,35,25,35z M23.542,27.37v-6.667c0-0.115,0.092-0.208,0.208-0.208
			c0.115,0,0.208,0.093,0.208,0.208v6.667c0,0.114-0.093,0.208-0.208,0.208S23.542,27.484,23.542,27.37z M26.042,27.37v-6.667
			c0-0.115,0.093-0.208,0.208-0.208c0.116,0,0.208,0.093,0.208,0.208v6.667c0,0.114-0.092,0.208-0.208,0.208
			C26.135,27.578,26.042,27.484,26.042,27.37z M29.583,18.62h-9.166v-2.5h9.166V18.62z"/>
	</g>
</g>
</svg>
