<?xml version="1.0" encoding="utf-8"?>
<!-- Generator: Adobe Illustrator 16.0.4, SVG Export Plug-In . SVG Version: 6.00 Build 0)  -->
<!DOCTYPE svg PUBLIC "-//W3C//DTD SVG 1.1//EN" "http://www.w3.org/Graphics/SVG/1.1/DTD/svg11.dtd">
<svg version="1.1" id="Layer_1" xmlns="http://www.w3.org/2000/svg" xmlns:xlink="http://www.w3.org/1999/xlink" x="0px" y="0px"
	 width="50px" height="50px" viewBox="0 0 50 50" enable-background="new 0 0 50 50" xml:space="preserve">
<g>
	<g>
		<polygon points="22,31.073 20,33.073 30,33.073 28,31.073 		"/>
	</g>
	<g>
		<rect x="24.107" y="20.942" width="4.12" height="0.617"/>
	</g>
	<g>
		<path d="M15,16.927v13h20v-13H15z M29.05,25.472c0,0.698-0.707,1.264-1.579,1.264c-0.871,0-1.578-0.565-1.578-1.264
			c0-0.696,0.707-1.263,1.578-1.263c0.275,0,0.53,0.062,0.756,0.161v-2.399h-4.12v3.501c0,0.698-0.707,1.264-1.578,1.264
			c-0.872,0-1.579-0.565-1.579-1.264c0-0.696,0.707-1.263,1.579-1.263c0.274,0,0.529,0.062,0.755,0.161v-4.253h5.767L29.05,25.472
			L29.05,25.472z"/>
	</g>
</g>
</svg>
