<?xml version="1.0" encoding="utf-8"?>
<!-- Generator: Adobe Illustrator 16.0.4, SVG Export Plug-In . SVG Version: 6.00 Build 0)  -->
<!DOCTYPE svg PUBLIC "-//W3C//DTD SVG 1.1//EN" "http://www.w3.org/Graphics/SVG/1.1/DTD/svg11.dtd">
<svg version="1.1" id="Layer_1" xmlns="http://www.w3.org/2000/svg" xmlns:xlink="http://www.w3.org/1999/xlink" x="0px" y="0px"
	 width="50px" height="50px" viewBox="0 0 50 50" enable-background="new 0 0 50 50" xml:space="preserve">
<g>
	<g>
		<path d="M31.967,36.486c-0.154,0-0.303-0.029-0.445-0.074c-1.897,1.252-4.166,1.986-6.605,1.986c-2.416,0-4.663-0.723-6.55-1.953
			c-0.109,0.023-0.221,0.041-0.335,0.041h-1.213c2.222,1.781,5.035,2.854,8.098,2.854c3.062,0,5.876-1.072,8.098-2.854H31.967z"/>
		<path d="M29.732,15.157l0.277,0.332c4.09,1.923,6.936,6.07,6.936,10.882c0,0.576-0.055,1.139-0.135,1.693h0.953
			c0.072-0.557,0.123-1.117,0.123-1.693c0-5.45-3.382-10.116-8.154-12.034V15.157z"/>
		<path d="M13.021,28.064c-0.079-0.555-0.134-1.117-0.134-1.693c0-4.812,2.845-8.959,6.935-10.882l0.277-0.332v-0.819
			c-4.772,1.919-8.154,6.585-8.154,12.034c0,0.576,0.051,1.139,0.124,1.693H13.021z"/>
	</g>
	<g>
		<path d="M28.732,15.518V15.17v-2.082v-2.082c0-0.189-0.155-0.347-0.346-0.347h-6.941c-0.191,0-0.348,0.155-0.348,0.347v2.082
			v2.082v0.348l-0.867,1.041c0,0.287,0.233,0.521,0.52,0.521h8.329c0.287,0,0.52-0.232,0.52-0.521L28.732,15.518z M25.609,16.907
			h-1.387c-0.048,0-0.087-0.038-0.087-0.087c0-0.048,0.039-0.087,0.087-0.087h1.387c0.049,0,0.088,0.039,0.088,0.087
			C25.697,16.869,25.658,16.907,25.609,16.907z M23.486,16.559l0.265-0.316h2.331l0.266,0.316H23.486z M28.245,14.905
			c0,0.167-0.136,0.303-0.302,0.303H21.89c-0.166,0-0.302-0.136-0.302-0.303v-3.631c0-0.168,0.136-0.303,0.302-0.303h6.053
			c0.166,0,0.302,0.135,0.302,0.303V14.905z"/>
		<path d="M39.95,33.926v-0.35v-2.082v-2.082c0-0.189-0.156-0.348-0.349-0.348h-6.938c-0.192,0.002-0.349,0.156-0.349,0.35v2.082
			v2.08v0.348l-0.866,1.043c0,0.285,0.231,0.52,0.52,0.52l8.329,0.002c0.287-0.002,0.52-0.234,0.52-0.521L39.95,33.926z
			 M36.825,35.312l-1.388-0.002c-0.047,0.002-0.086-0.037-0.086-0.086s0.039-0.086,0.086-0.086h1.388
			c0.048,0,0.086,0.039,0.087,0.086C36.912,35.273,36.874,35.312,36.825,35.312z M34.702,34.967l0.265-0.318h2.33l0.266,0.316
			L34.702,34.967z M39.46,33.309c0,0.168-0.136,0.305-0.302,0.305h-6.053c-0.166,0-0.303-0.137-0.303-0.303v-3.633
			c0-0.166,0.137-0.303,0.303-0.303h6.053c0.166,0,0.302,0.137,0.302,0.303V33.309z"/>
		<path d="M17.684,33.926v-0.348l0.001-2.082v-2.082c0-0.191-0.155-0.348-0.347-0.35h-6.94c-0.192,0.002-0.348,0.156-0.348,0.348
			v2.082v2.084v0.346l-0.867,1.041c-0.001,0.287,0.233,0.521,0.52,0.521h8.329c0.288,0,0.521-0.234,0.52-0.521L17.684,33.926z
			 M14.561,35.312h-1.388c-0.048-0.002-0.086-0.039-0.087-0.088c0-0.047,0.04-0.086,0.088-0.086h1.387
			c0.048,0.002,0.087,0.039,0.087,0.086C14.647,35.273,14.608,35.312,14.561,35.312z M12.437,34.965l0.264-0.316l2.332,0.002
			l0.265,0.316L12.437,34.965z M17.196,33.311c-0.001,0.166-0.137,0.303-0.304,0.303h-6.053c-0.165,0-0.301-0.137-0.301-0.305V29.68
			c0-0.168,0.136-0.303,0.303-0.303l6.054-0.002c0.165,0,0.301,0.137,0.301,0.305V33.311z"/>
	</g>
	<g>
		<path d="M21.707,31.916c-0.02,0-0.031,0.012-0.038,0.029c0.032,0.016,0.062,0.033,0.095,0.053
			C21.74,31.973,21.72,31.945,21.707,31.916z"/>
		<path d="M30.646,29.336c0.461-0.887,0.723-1.895,0.723-2.967c0-2.025-0.934-3.829-2.391-5.013c0.113,0.104,0.22,0.205,0.308,0.285
			c0.45,0.414,0.841,0.895,1.157,1.416c-0.008,0-0.014,0.002-0.021,0.006c0.216,0.312,0.384,0.662,0.521,1.024
			c-0.077-0.108-0.34-0.272-0.213-0.018c0.062,0.126,0.213,0.192,0.259,0.313c0.032-0.004,0.014-0.047,0.04-0.049
			c0.031,0.062-0.008,0.135,0.062,0.18c0.09,0.297,0.158,0.604,0.205,0.918c-0.271,0.074-0.492,0.347-0.662,0.016
			c-0.09-0.176-0.135-0.299-0.257-0.463c-0.091-0.122-0.219-0.217-0.254-0.375c-0.06-0.258-0.483-0.414-0.496-0.697
			c-0.003-0.043-0.108-0.245-0.099-0.251c0.025-0.022,0.017-0.128,0.02-0.159c0.006-0.107,0.03-0.189,0.002-0.298
			c-0.23,0.062-0.424-0.032-0.658-0.054c0.008-0.004,0.019-0.01,0.021-0.018c-0.069-0.06-0.115-0.104-0.196-0.148
			c0.09-0.092-0.002-0.053-0.015-0.11c-0.017-0.081,0.196-0.046,0.233-0.06c-0.004-0.01-0.03-0.023-0.029-0.034
			c-0.085-0.015-0.072,0.073-0.166,0.008c-0.071-0.052-0.082-0.021-0.148-0.008c0.008,0.021,0.014,0.034,0.012,0.056
			c0,0-0.115-0.083-0.104-0.021c0.069,0.065,0.106,0.132,0.187,0.197c-0.047,0.025-0.092-0.002-0.131-0.037
			c0.004,0.018,0.026,0.121,0.043,0.129c-0.094-0.01-0.15-0.055-0.111-0.135c-0.072-0.008-0.227-0.16-0.241-0.235
			c-0.022-0.134-0.205-0.151-0.219-0.235c-0.033-0.003-0.408-0.263-0.396-0.188c0.017,0.119,0.212,0.285,0.335,0.297
			c0.019,0.099,0.205,0.074,0.209,0.184c-0.179-0.047-0.111-0.062-0.089,0.066c-0.002-0.016-0.102,0.14-0.116,0.061
			c0.187,0.018-0.408-0.449-0.384-0.396c-0.133-0.135-0.155-0.188-0.329-0.098c-0.085,0.043-0.367-0.107-0.293,0.082
			c-0.004,0.014-0.394,0.182-0.225,0.256c-0.051,0.071-0.131,0.131-0.203,0.16c-0.086-0.033-0.246,0.088-0.296,0.01
			c-0.063-0.101-0.104-0.062-0.207-0.068c-0.106-0.01-0.015-0.362-0.015-0.408c0-0.066-0.055-0.154,0.082-0.145
			c0.117,0.009,0.23,0.037,0.349,0.048c0.131-0.019,0.183,0.03,0.173-0.151c-0.002,0.001-0.004,0.004-0.005,0.004
			c0.08-0.132-0.28-0.169-0.28-0.238c0-0.047,0.209-0.004,0.234-0.01c0-0.023-0.014-0.041-0.016-0.068
			c0.168,0.015,0.19-0.049,0.334-0.079c0.119-0.025,0.104-0.153,0.246-0.142c0.043,0.002,0.195,0.012,0.157-0.053
			c-0.084-0.146-0.083-0.146,0.07-0.205c0.007,0.045,0.03,0.061,0.04,0.079c-0.006,0-0.014,0.026-0.021,0.058
			c0.029,0.004,0.049,0.016,0.043,0.053c-0.005-0.024-0.033-0.014-0.051-0.022c-0.007,0.034-0.012,0.062-0.005,0.044
			c0.078,0.008,0.171,0.002,0.25,0.014c-0.013,0.093,0.284-0.012,0.354,0.016c-0.002,0.007-0.006,0.014-0.006,0.018
			c0.029,0.002,0.06,0.002,0.088,0.004c-0.022-0.16,0.268-0.224,0.268-0.181c0-0.04-0.128-0.086-0.092-0.104
			c0.111-0.057,0.24,0.029,0.359-0.016c-0.046-0.05-0.607-0.033-0.523-0.14c-0.049-0.013-0.043-0.046-0.066-0.076
			c0.02,0.003,0.252-0.081,0.249-0.09c-0.045-0.11-0.228-0.015-0.25,0.017c0.017,0.053-0.239,0.028-0.228,0.107
			c0.015,0.083,0.115,0.061,0.136,0.136c0.003,0.013-0.25,0.116-0.09,0.146c0.002,0.062-0.19,0.111-0.233,0.107
			c-0.037-0.007-0.113-0.152-0.133-0.183c-0.049-0.07-0.07-0.125-0.152-0.074c-0.029,0.017-0.269,0.079-0.277-0.009
			c-0.002-0.023,0.041,0.002,0.037-0.037c-0.033-0.004-0.033-0.004-0.062,0.001c0.008-0.013,0.021-0.024,0.035-0.03
			c-0.169-0.117,0.153-0.181,0.228-0.172c-0.025-0.005-0.035-0.008-0.056-0.013c0.047-0.002,0.422-0.154,0.435-0.193
			c-0.052,0.003-0.07,0.011-0.121,0.009c0.009-0.004,0.031-0.009,0.039-0.01c-0.011-0.001-0.033-0.005-0.033-0.005
			c0.006-0.021,0.173-0.006,0.178-0.006c-0.016-0.002-0.016-0.002-0.034-0.002c0.027-0.011,0.056-0.017,0.085-0.011
			c-0.013-0.006-0.009-0.006-0.02-0.008c0.078-0.023,0.174,0,0.256-0.012c-0.061-0.011,0.145-0.047,0.126,0.012
			c0.083,0.008,0.17,0.037,0.259,0.08c-1-0.636-2.184-1.006-3.456-1.006c-3.563,0-6.453,2.891-6.453,6.453
			c0,2.352,1.257,4.406,3.135,5.533c-0.038-0.055-0.008-0.115-0.038-0.18c-0.041-0.086-0.109-0.1-0.11-0.221
			c0-0.24-0.016-0.389-0.113-0.625c-0.104-0.137-0.088-0.436-0.115-0.605c-0.058-0.16-0.081-0.326-0.149-0.484
			c-0.074-0.172-0.283-0.289-0.468-0.314c-0.238-0.041-0.275-0.246-0.421-0.404c-0.122-0.129-0.245-0.279-0.343-0.424
			c-0.05-0.064-0.146-0.07-0.174-0.184c-0.027-0.104,0.074-0.146,0.073-0.24c-0.142-0.078-0.1-0.098-0.096-0.252
			c0.003-0.133,0.184-0.273,0.181-0.41c-0.037-0.012-0.047-0.031-0.032-0.062c-0.028-0.129-0.194-0.342-0.028-0.41
			c-0.033-0.176,0.184-0.297,0.316-0.355c0.029-0.014,0.061-0.104,0.1-0.051c0.021,0.02,0.017,0.041-0.01,0.062
			c0,0.043-0.026,0.248,0.069,0.244c0.041-0.006-0.117-0.223,0.099-0.236c-0.02-0.039-0.062-0.021-0.07-0.062
			c0.077-0.002,0.17,0.064,0.215,0.117c0.034,0.039,0.173,0.021,0.221,0.035c0.066,0.025,0.193-0.061,0.282-0.061
			c-0.01,0.01-0.033,0.014-0.044,0.01c0.029,0.146,0.352,0.182,0.441,0.314c0.071,0.104,0.373,0.133,0.487,0.129
			c0.132-0.01,0.358,0.314,0.296,0.396c-0.094,0.125,0.041,0.281,0.16,0.268c0.12-0.014,0.01-0.227,0.242-0.131
			c0.087,0.039,0.12,0.033,0.144,0.135c0.108-0.012,0.248-0.053,0.374-0.018c0.125,0.037,0.202,0.117,0.335,0.145
			c0.286,0.062,0.013,0.588-0.054,0.715c-0.05,0.098,0.097,0.424,0.076,0.564c-0.063,0.248-0.1,0.336-0.314,0.473
			c-0.059,0.035-0.169,0.152-0.154,0.234c0.021,0.068,0.042,0.139,0.065,0.207c-0.04,0.047-0.059,0.102-0.058,0.162h-0.001
			c-0.021,0.156-0.08,0.295-0.11,0.455c-0.021,0.107-0.35,0.156-0.363,0.123c0.063,0.164,0.296,0.094,0.186,0.342
			c-0.039,0.088-0.173,0.105-0.253,0.125c-0.096,0.023,0.004,0.133,0.001,0.184c0.044,0.104-0.109,0.053-0.17,0.068
			c-0.117,0.033,0.175,0.166,0.155,0.125c0.029,0.062-0.069,0.029-0.089,0.035c0.027,0.062,0.118,0.209,0.004,0.262
			c-0.173,0.107,0.131,0.168,0.161,0.252c0.745,0.301,1.559,0.469,2.412,0.469c2.441,0,4.564-1.355,5.66-3.354
			C30.587,29.4,30.613,29.363,30.646,29.336z M28.205,21.41c-0.001,0.021-0.016,0.047-0.045,0.044c-0.021,0-0.028-0.016-0.03-0.023
			c0.019,0,0.031-0.006,0.05-0.006C28.125,21.383,28.188,21.401,28.205,21.41z M27.945,21.444c-0.014,0.017-0.028,0.033-0.043,0.053
			C27.871,21.469,27.932,21.442,27.945,21.444z M27.544,21.563c-0.048,0.002-0.028,0.096-0.104,0.045c0.009-0.01,0.015-0.01,0.019,0
			c0.017,0,0.032-0.01,0.031-0.018C27.38,21.565,27.486,21.465,27.544,21.563z M27.018,20.758c-0.008,0.002-0.013,0.002-0.017,0.004
			c0.015,0.006,0.028,0.006,0.038,0.01c-0.03-0.006,0.066,0.007,0.078,0.009c-0.062-0.054,0.066-0.021,0.068-0.019
			c0,0.006-0.004,0.006-0.004,0.012c0.028-0.006,0.067,0,0.106,0.007c-0.006-0.002-0.013-0.007-0.015-0.013
			c0.023,0.002,0.047,0,0.072,0c-0.007,0-0.074-0.004-0.076-0.004c-0.013,0-0.07,0.004-0.08-0.017c0.019,0,0.037,0,0.053,0.002
			v-0.002c0.009,0,0.017,0,0.025,0c-0.002-0.003-0.006-0.004-0.009-0.005c0.108,0.001,0.275-0.021,0.374,0.027
			c-0.035,0.007-0.203,0.031-0.297,0.021c0.016,0.007,0.03,0.011,0.041,0.017c-0.005,0.002-0.011,0-0.018,0
			c0.05,0.006,0.113,0.016,0.164,0.039c-0.049,0.004-0.066,0.015-0.109,0.018c-0.005-0.004-0.005-0.01-0.001-0.014
			c-0.021,0-0.058-0.004-0.078-0.006c0.001-0.011,0.021-0.007,0.022-0.016c-0.012,0-0.024-0.01-0.033-0.018
			c-0.07,0.018-0.278,0.093-0.284,0.016c0.035,0,0.065,0.003,0.101,0.002c-0.014-0.005-0.119,0-0.121-0.018
			c0,0,0.061-0.008,0.094-0.012c-0.041,0-0.117,0.008-0.137-0.007c0.004-0.003,0.006-0.003,0.01-0.003
			c-0.022-0.002-0.043-0.008-0.037-0.016c-0.016-0.002-0.029-0.008-0.045-0.014C26.943,20.751,26.979,20.75,27.018,20.758z
			 M26.911,20.779L26.911,20.779C26.91,20.78,26.91,20.78,26.911,20.779C26.91,20.78,26.91,20.779,26.911,20.779z M26.909,20.779
			c0.016,0.007,0.032,0.011,0.043,0.022C26.927,20.799,26.891,20.784,26.909,20.779z M29.523,23.305
			c0.002,0.039-0.129,0.117-0.146,0.037C29.414,23.327,29.479,23.307,29.523,23.305z M28.877,23.282
			c-0.044,0.021-0.143-0.014-0.182-0.035C28.756,23.242,28.827,23.264,28.877,23.282z M27.955,22.934
			c-0.005,0.023-0.008,0.117-0.01,0.117c-0.038-0.004-0.206-0.098-0.211-0.13C27.766,22.912,27.918,22.924,27.955,22.934z
			 M27.439,22.488c0,0.012,0.006,0.022,0.015,0.024c-0.005,0.028-0.008,0.084-0.015,0.096c-0.028-0.008-0.043-0.078-0.061-0.1
			C27.4,22.508,27.42,22.501,27.439,22.488z M27.41,22.707c-0.002-0.021-0.029-0.035-0.034-0.058
			C27.588,22.619,27.438,22.934,27.41,22.707z M26.991,22.723c0.002,0.03-0.06-0.014-0.062-0.017
			C26.962,22.682,26.982,22.688,26.991,22.723z M26.428,21.303c-0.02,0.014-0.039,0.023-0.062,0.032
			c0.026,0.05,0.075,0.06,0.151,0.021c0.01,0.043-0.076,0.076-0.084,0.101c0.1,0.026,0.25,0.127,0.256,0.228
			c0.017-0.004,0.02-0.008,0.029-0.01c0.057-0.027,0.057,0.036-0.003,0.105c0.017,0.003,0.035,0.007,0.054,0.013
			c0,0.021-0.441,0.058-0.492,0.056c0.029-0.053,0.175-0.074,0.174-0.104c-0.02,0.018-0.159-0.009-0.159-0.018
			c0-0.033,0.052-0.041,0.052-0.104c0.041,0.003,0.114,0.004,0.113-0.05c-0.04,0-0.072-0.006-0.043-0.044
			c-0.016-0.002-0.122,0.011-0.121-0.016c0.001-0.059,0.069-0.029-0.016-0.071c-0.014,0.01-0.006,0.017,0,0.021
			c-0.008,0-0.014,0-0.021,0c0-0.06-0.009-0.048-0.008-0.095c-0.036-0.007-0.056-0.015-0.055-0.03c0.006,0,0.067,0.018,0.067,0.008
			C26.217,21.331,26.432,21.221,26.428,21.303z M26.314,21.574c0-0.009,0.002-0.017,0.018-0.021c0.002,0,0.01,0.002,0.012,0.002
			c0,0.004-0.002,0.01-0.002,0.02C26.337,21.575,26.329,21.575,26.314,21.574z M26.223,21.293c0,0.018-0.021,0.031-0.049,0.03
			C26.124,21.322,26.217,21.293,26.223,21.293z M25.96,21.557c0.002-0.029,0.085-0.021,0.104-0.029
			c-0.049-0.053,0.08-0.051,0.104-0.045c0.147,0.011,0.038,0.076,0.038,0.093c-0.003,0.121-0.084,0.159-0.217,0.149
			c-0.139-0.011,0.006-0.097,0.016-0.131C25.991,21.582,25.977,21.569,25.96,21.557z M22.356,20.913
			c0.026-0.001,0.054-0.001,0.079-0.001c-0.017,0.001-0.033-0.001-0.047-0.01c0.018-0.011,0.042-0.007,0.065-0.007
			c-0.002-0.002-0.008-0.004-0.011-0.006c0.03-0.006,0.06-0.006,0.09-0.008c-0.013-0.003-0.038-0.003-0.027-0.009
			c0.051,0,0.157,0.046,0.191,0.024l-0.003-0.002c0.04-0.002,0.032,0.004,0.005,0.021c0.051-0.028,0.064,0.035,0.149-0.022
			c0.005-0.004-0.039-0.018-0.056-0.021c0.04,0,0.049-0.002,0.025-0.01c-0.041,0-0.074-0.005-0.081-0.015
			c0.016-0.002,0.032-0.006,0.047-0.008c-0.021,0.002-0.044,0.002-0.067,0.002c0.037-0.013,0.071-0.013,0.112-0.015
			c-0.04-0.005-0.077,0.012-0.117,0.005c0.022-0.004,0.035-0.005,0.054-0.01c-0.035,0.005-0.068,0.007-0.103,0.007
			c0.187-0.069,0.715-0.117,0.903-0.05c-0.098,0.025,0.159-0.014,0.148,0.009c-0.008,0.019-0.161,0.019-0.174,0.021
			c0.007,0.002,0.051-0.002,0.076-0.002c-0.135,0.039-0.282,0.034-0.417,0.068c0.013,0,0.024,0,0.036,0
			c-0.009,0.008-0.021,0.008-0.047,0.008c0.013,0.004,0.026,0.004,0.027,0.012c-0.062,0.013-0.095,0.026-0.157,0.033
			c-0.012,0.029-0.068,0.016-0.093,0.04c0.017-0.003,0.061-0.006,0.055,0.001c-0.102,0.1-0.343,0.012-0.495,0.026
			c0.03-0.009,0.062-0.015,0.093-0.015c-0.085-0.039,0.107-0.017,0.133-0.02c-0.041-0.031-0.113-0.025-0.154-0.016
			c0.001,0.004,0.005,0.005,0.003,0.011c-0.037,0-0.149-0.011-0.18,0.002c0.006,0,0.013,0,0.021-0.001
			c-0.007,0.001-0.015,0.003-0.027,0.004c0.002-0.001,0.005-0.003,0.006-0.003c-0.009,0-0.02-0.002-0.026-0.013
			c0.044-0.008,0.089-0.014,0.134-0.014c-0.019-0.002-0.086-0.007-0.128-0.007c0.004,0,0.008,0,0.012-0.004
			C22.363,20.93,22.334,20.93,22.356,20.913z M22.918,21.125c-0.04,0.021-0.126,0.017-0.168,0.019c-0.004,0-0.066-0.014-0.05-0.025
			C22.749,21.08,22.867,21.114,22.918,21.125z M22.198,20.922c0.021,0,0.042,0,0.051-0.002c-0.005,0.004-0.012,0.01-0.018,0.012
			C22.257,20.932,22.176,20.934,22.198,20.922z M22.273,20.983C22.285,20.981,22.288,20.983,22.273,20.983L22.273,20.983
			c-0.037,0-0.16,0.008-0.083-0.002C22.15,20.95,22.311,20.938,22.273,20.983z M22.332,20.989c-0.014,0.009-0.028,0.013-0.045,0.013
			c-0.008,0-0.088-0.004-0.088-0.004C22.243,20.989,22.288,20.992,22.332,20.989z M22.409,21.039
			c-0.021,0.002-0.042,0.002-0.063,0.002c-0.015,0.017,0.038,0.007,0.051,0.013c-0.034,0.008,0.445-0.033,0.451-0.004
			c-0.01,0-0.021,0.004-0.03,0.01c0.01,0,0.021,0,0.021,0c-0.12,0.074-0.346-0.034-0.452,0.024
			c-0.029,0.001-0.225-0.001-0.121-0.021c-0.008-0.032-0.026-0.039-0.058-0.021c-0.027,0-0.053-0.006-0.079-0.017
			C22.153,21.012,22.401,21.014,22.409,21.039z M22.176,21.07c0.049,0.024-0.135,0.021-0.137,0.021
			c0.009-0.007,0.032-0.011,0.035-0.011C22.108,21.061,22.141,21.059,22.176,21.07z M21.884,20.971c0.005,0,0.014-0.004,0.02-0.006
			c-0.021,0-0.023-0.002-0.012-0.007c0.043-0.006,0.173-0.021,0.205,0.013c-0.006,0-0.016,0.002-0.021,0.006
			c0.014,0.013-0.036,0.02-0.091,0.021c-0.014,0.004-0.029,0.004-0.048,0.005c0.01-0.001,0.022-0.003,0.034-0.005
			c-0.046,0-0.094-0.006-0.104-0.015c0.024,0.002,0.048-0.004,0.068-0.016C21.902,20.971,21.889,20.973,21.884,20.971z
			 M21.784,21.008c0.038-0.002,0.021,0.012,0.044,0.014c-0.009,0.004-0.022,0.008-0.033,0.009
			C21.779,21.031,21.771,21.016,21.784,21.008z M21.778,21.053L21.778,21.053c0-0.019,0.071,0.008,0.091,0.012h0.002
			c-0.005-0.002-0.01-0.004-0.011-0.006c0.031-0.021,0.06,0.009,0.096-0.013c-0.026,0.003-0.047,0.003-0.04-0.006
			c0.012-0.002,0.145,0,0.145,0c0,0.084-0.165,0.032-0.199,0.054c0.021-0.015,0.065-0.019,0.085-0.022
			c-0.02-0.009-0.047-0.007-0.076-0.007c0,0.002,0.001,0.002,0.001,0.002s-0.001,0-0.003-0.002
			c-0.032,0.006-0.065,0.009-0.088,0.011c0.002-0.003,0.003-0.004,0.006-0.009c-0.019,0.005-0.021,0-0.027-0.002L21.778,21.053z
			 M21.924,21.145c-0.029,0.014-0.059,0.021-0.089,0.026c0.021-0.001,0.079-0.02,0.036,0.011c0.006,0,0.025,0.002,0.033,0.002
			c-0.06,0.037-0.209,0.088-0.266,0.01c0.042-0.027,0.083,0.002,0.127-0.027C21.646,21.164,21.914,21.152,21.924,21.145z
			 M21.735,21.335c-0.03,0.011-0.236,0.011-0.128-0.009C21.566,21.335,21.769,21.264,21.735,21.335z M21.691,21.104
			c-0.014,0.002-0.015,0-0.028,0.002c0.024-0.012,0.044-0.016,0.07-0.021C21.728,21.102,21.713,21.111,21.691,21.104z
			 M21.504,21.006c0.024-0.015,0.101-0.009,0.145-0.009c0.009-0.002,0.02-0.003,0.029-0.004c-0.004,0.002-0.015,0.004-0.029,0.004
			c-0.007,0-0.015,0.002-0.021,0.002c0.003,0.002,0.007,0.005,0.007,0.009c-0.086,0.01-0.097,0.012-0.033,0.008
			c-0.019,0.014-0.076,0.021-0.107,0.021c-0.036,0.002,0.02-0.021,0.071-0.034C21.544,20.998,21.524,21,21.504,21.006z
			 M21.463,21.02c-0.018,0.012-0.032,0.012-0.045,0.002C21.434,21.014,21.449,21.014,21.463,21.02z M21.362,21.057
			c0.017-0.002,0.033-0.002,0.049-0.004c-0.014,0.008-0.029,0.015-0.045,0.012C21.359,21.063,21.353,21.061,21.362,21.057z
			 M21.344,21.037c0.021,0.006,0.013,0.013-0.024,0.017c-0.014,0.021-0.037,0.028-0.066,0.022
			C21.277,21.046,21.308,21.032,21.344,21.037z M21.22,21.1c0.015-0.01,0.027-0.01,0.045-0.01c-0.004-0.001-0.007-0.002-0.01-0.002
			c0.015-0.007,0.03-0.01,0.046-0.01c-0.005,0-0.008-0.004-0.001-0.007c0.073-0.009,0.149,0.044,0.229,0.014
			c-0.016,0.003-0.021,0-0.026-0.002c0.014,0,0.025-0.002,0.032-0.01c-0.062-0.002,0.073-0.025,0.087-0.025
			c-0.073,0.034,0.077,0.023,0.064,0.032c-0.105,0.062-0.275,0.012-0.39,0.037c0,0.023-0.018,0.029-0.054,0.021
			c0.016-0.011,0.034-0.018,0.054-0.021c0,0,0-0.002,0-0.003c-0.01,0-0.023,0.007-0.03,0.009c-0.03,0.006-0.06,0.01-0.09,0.006
			c0.014-0.02,0.032-0.029,0.055-0.025C21.227,21.102,21.223,21.1,21.22,21.1z M20.941,21.309c0.02-0.018,0.101-0.086,0.151-0.108
			c-0.004,0-0.006,0-0.01-0.001c0.013-0.01,0.025-0.018,0.038-0.027c0.002,0.01,0,0.016-0.002,0.02c0.013,0,0.019,0.005,0.014,0.027
			c0.081-0.02,0.211,0.026,0.198,0.026c0.077-0.004,0.154-0.126,0.258-0.089c-0.006-0.002-0.093,0.054-0.101,0.068
			c-0.038,0.08,0.006,0.031,0.062,0.076c-0.027,0.008-0.081,0.002-0.104,0.021c0.004-0.004,0.014,0.015,0.014,0.015
			c-0.074,0.036-0.513,0.051-0.534,0.029c-0.005-0.003-0.035-0.001-0.058,0c0.064-0.051,0.099-0.048,0.179-0.057
			C21.015,21.297,20.966,21.305,20.941,21.309z M20.849,21.38c0.02-0.003,0.018,0.005,0.015,0.025
			c-0.013,0.004-0.04,0.004-0.057,0.01C20.82,21.403,20.835,21.391,20.849,21.38z M19.811,24.971
			c0.008-0.023,0.021-0.037,0.043-0.043c0.01-0.023,0.01-0.045,0.026-0.027C19.832,25.036,19.824,24.943,19.811,24.971z M20.14,25.6
			c-0.188,0.006-0.104-0.098-0.082-0.094c0.033,0.008,0.062,0.043,0.075,0.057c0-0.004-0.001-0.008-0.001-0.012
			C20.145,25.564,20.145,25.58,20.14,25.6z M20.142,25.248c0.056-0.132,0.014-0.342-0.183-0.364
			c-0.051-0.173-0.069,0.045-0.226,0.022c0.159-0.202,0.28-0.235,0.455-0.063c0.056,0.057,0.185,0.239,0.178,0.287
			c0.087,0.027,0.023,0.075,0.064,0.135C20.338,25.387,20.241,25.264,20.142,25.248z M20.409,24.516
			c0.009-0.016,0.021,0.047,0.014,0.062C20.392,24.643,20.403,24.524,20.409,24.516z M20.673,25.615
			c-0.006-0.062-0.101,0.086-0.124,0.08c-0.001,0-0.141-0.252-0.2-0.09c-0.153-0.09,0.147-0.117,0.165-0.108
			c0.002-0.028,0.007-0.315,0.08-0.205c0.033,0.056,0.084,0.013,0.132,0.021c0.099,0.016,0.086,0.113,0.123,0.181
			c-0.007-0.024-0.009-0.033,0.001,0.004c-0.001-0.001-0.001-0.002-0.001-0.004c0.011,0.043,0.037,0.133,0.037,0.127
			C20.877,25.619,20.673,25.619,20.673,25.615z M20.457,24.331c0.012-0.013,0.037-0.023,0.051-0.023
			c0.019,0.002,0.018,0.021,0.018,0.031C20.497,24.34,20.472,24.332,20.457,24.331z M20.645,25.012
			c-0.005,0.041-0.029,0.062-0.075,0.059C20.527,25.057,20.636,25.022,20.645,25.012z M20.569,24.36
			c-0.001,0.011-0.001,0.021-0.001,0.031C20.558,24.393,20.561,24.372,20.569,24.36z M20.986,25.703
			c0.022-0.068,0.132,0.023,0.134,0.057C21.086,25.809,20.964,25.773,20.986,25.703z M22.366,22.76
			c-0.104,0.058,0.004-0.119,0.144-0.127c-0.037,0.006-0.044-0.005-0.024-0.033c-0.104,0.002-0.277,0.123-0.36,0.104
			c-0.088-0.019-0.354,0.2-0.207,0.197c-0.09,0.032-0.223,0.026-0.321,0.069c0.019,0,0.075-0.014,0.089,0.002
			c-0.056,0.016-0.3,0.103-0.285,0.139c-0.044,0.027-0.06,0.17-0.146,0.169c0.005,0.001,0.035-0.124,0.038-0.136
			c-0.018,0.021-0.093,0.147-0.086,0.17c0.005,0,0.014,0,0.019,0c-0.012,0.029-0.035,0.051-0.069,0.06
			c0,0.019,0.011,0.022,0.022,0.026c-0.026,0.033-0.095,0.021-0.048,0.07c-0.059,0.045-0.135,0.055-0.196,0.097
			c0.001,0,0.002,0.005,0.004,0.006c-0.248,0.104-0.469,0.212-0.501,0.508c-0.008,0.074-0.096,0.405-0.207,0.392
			c-0.1-0.014,0.089-0.49,0.077-0.531c-0.001-0.004-0.278-0.051-0.264-0.076c-0.042,0.01-0.084,0-0.132,0.016
			c0.016,0.012,0.013,0.012,0.031,0.004c-0.03,0.045-0.066,0.071-0.053,0.099c-0.082,0.036-0.156-0.128-0.266-0.068
			c-0.164,0.087-0.283,0.164-0.377,0.329c-0.002,0-0.004-0.001-0.005-0.001c-0.024,0.058-0.507,0.86-0.284,0.907
			c0.304,0.064,0.317-0.363,0.647-0.305c-0.042,0.086-0.115,0.148-0.154,0.235c-0.027,0.056-0.052,0.084-0.079,0.116
			c-0.038,0.062-0.374,0.339-0.082,0.353c0.352,0.023,0.091,0.355,0.021,0.537c-0.061,0.16-0.192,0.688,0.112,0.559
			c0.145-0.062,0.147,0.156,0.171,0.238c-0.01,0.016-0.118,0.113-0.118,0.113c-0.007-0.049,0.048-0.219-0.019-0.246
			c-0.136-0.047-0.146,0.273-0.212,0.244c-0.13-0.051-0.066-0.549-0.163-0.58c-0.011,0.014-0.02,0.035-0.019,0.047
			c-0.008-0.004-0.015-0.006-0.024-0.01c-0.025-0.1,0.062-0.203,0.055-0.309c-0.006-0.094-0.021-0.174,0.005-0.268
			c-0.086-0.027-0.168-0.088-0.212-0.199c-0.017-0.041,0.004-0.25-0.041-0.259c-0.03-0.121-0.085,0.034-0.14,0.02
			c-0.063-0.017-0.081-0.223-0.133-0.223c0.172-0.933,0.553-1.824,1.108-2.597c0.272-0.381,0.588-0.728,0.936-1.04
			c0.114-0.104,0.251-0.225,0.425-0.164c0.03,0.01,0.12,0.002,0.17-0.04c-0.002,0-0.005,0-0.006,0
			c-0.028,0.005-0.115,0.021-0.103,0.009c0.012-0.009,0.05-0.009,0.103-0.009c0.005,0,0.008,0,0.008,0c-0.001,0-0.002,0-0.002,0
			c0.135,0.007,0.353,0.031,0.431,0.013c0.012-0.011,0.03-0.019,0.029-0.021c0,0.01-0.012,0.016-0.029,0.021
			c-0.013,0.008-0.019,0.012,0.016,0.008c0.055-0.043,0.144-0.031,0.167-0.064c-0.019,0.003-0.03,0.005-0.047,0.01
			c0.017-0.01,0.031-0.017,0.047-0.027c0.017-0.012-0.078-0.021-0.062-0.031c0.06-0.045,0.276-0.051,0.225-0.012
			c-0.023,0.008-0.044,0.016-0.068,0.021c0.004,0.014,0.053,0.002,0.07,0.01c-0.071,0.021,0.015,0.004-0.032,0.043
			c-0.009,0,0.179-0.045,0.142-0.015c-0.045-0.002-0.063,0.015-0.056,0.048c0.053,0.051,0.208-0.089,0.248-0.101
			c-0.002,0-0.319-0.005-0.281-0.034c0.045,0.02,0.084,0.016,0.115-0.012c-0.011-0.006-0.109-0.008-0.109-0.008
			c-0.021-0.043,0.119-0.06,0.143-0.07c-0.038,0.012-0.107,0.007-0.146,0.025c0.006,0,0.014,0,0.021-0.002
			c-0.034,0.021-0.067,0.029-0.105,0.027c0.114-0.079,0.171-0.079,0.327-0.085c-0.025,0.012-0.049,0.019-0.076,0.026
			c0.075-0.016,0.141-0.016,0.213-0.012c-0.027,0.006-0.152,0.038-0.113,0.038c-0.083,0.038,0.267-0.081,0.288-0.021
			c0.002,0.004-0.015,0.033-0.022,0.033c0.148,0,0.271,0.047,0.412,0.052c-0.001,0.004-0.002,0.007-0.004,0.01
			c0.017-0.003,0.032,0.001,0.044,0.015c-0.017,0.004-0.032,0-0.043,0.01c0.017-0.004,0.034,0,0.048,0.007
			c-0.02,0.006-0.028,0.006-0.043,0.017c0.012,0.006,0.184,0.062,0.182,0.067c-0.012,0.079-0.139,0.043-0.201,0.034
			c-0.007,0.016-0.019,0.002-0.027,0.022c0.034-0.002,0.047,0.043,0.094,0.036c-0.035,0.117-0.031,0.05-0.166,0.073
			c-0.002-0.005,0.147,0.069,0.068,0.088c-0.099,0.021-0.217-0.052-0.278-0.081c-0.024-0.014-0.288,0.018-0.277,0.003
			c0.057-0.076,0.209-0.053,0.291-0.09c-0.064-0.021,0.167-0.062,0.089-0.116c-0.001,0.051-0.125,0.016-0.124,0.014
			c0.032-0.021,0.066-0.028,0.103-0.025c-0.021-0.008-0.11-0.014-0.112-0.012c0.015-0.004,0.03-0.006,0.046-0.012
			c-0.011-0.011-0.022-0.018-0.035-0.018c-0.021,0-0.041,0.007-0.056,0.02c0.021-0.017,0.039-0.021,0.056-0.02
			c0.001,0,0.003-0.001,0.005-0.001c-0.04-0.021-0.185,0.017-0.155-0.007c-0.022,0-0.061,0-0.104,0.002
			c0.031,0.004,0.066,0.019,0.098,0.018c-0.06,0.053-0.178,0.108-0.303,0.145c0.027-0.006,0.016,0.006,0.019,0.014
			c-0.023,0-0.029-0.006-0.021-0.014c-0.021,0.006-0.042,0.012-0.064,0.019c0,0.005,0.002,0.009,0,0.015
			c0.021-0.008,0.107,0.002,0.117,0.027c0.001,0.006-0.011,0.014-0.007,0.018c0.018,0.012,0.058,0.004,0.063,0.017
			c-0.088,0.024-0.237,0.04-0.327,0.045c-0.022,0-0.005-0.009,0.01-0.021c-0.026-0.004-0.064,0.002-0.08,0.002
			c0.03-0.024,0.111-0.069,0.171-0.096c-0.068,0.01-0.133,0.01-0.185-0.007c-0.007,0.029,0.061,0.021,0.113,0.025
			c-0.075,0.063-0.266,0.086-0.379,0.075c0.01,0.004,0.02,0.011,0.028,0.017c-0.099,0.089-0.337,0.164-0.46,0.245
			c0.096-0.016,0.086,0.021,0.022,0.087c0.228-0.009,0.206,0.125,0.391,0.118c0.061,0.043-0.029,0.1-0.037,0.132
			c0.024-0.003,0.064-0.002,0.045,0.021c-0.015,0.002-0.029-0.002-0.044-0.008c0.007,0.012,0.038,0.021,0.117,0.018
			c0.089-0.1-0.013-0.135,0.161-0.205c0.218-0.086,0.059-0.086,0.054-0.201c0.237-0.051,0.141-0.26,0.454-0.109
			c0.091,0.043,0.362,0.122,0.429-0.002c-0.042,0.072-0.015,0.082,0.022,0.094c-0.015-0.01-0.027-0.017-0.037-0.029
			c0.08-0.109,0.254,0.123,0.116,0.17c0.021,0.013,0.04,0.031,0.095,0.031l-0.002,0.004c-0.046,0.076,0.184,0.056,0.165,0.078
			c-0.033,0.031-0.182,0.045-0.244,0.063c0.006,0.033,0.27-0.036,0.294-0.045c0.081,0.272-0.731,0.245-0.899,0.38
			c0.021-0.001,0.428-0.096,0.396-0.037c-0.028,0.049-0.104,0.037-0.146,0.063c0.023,0,0.049,0.007,0.062,0.007
			c-0.145,0.178,0.182,0.156,0.166,0.188C22.709,22.682,22.428,22.727,22.366,22.76z M21.912,21.608
			c-0.031,0.016-0.102,0.039-0.134,0.041c0.005-0.004,0.01-0.01,0.015-0.014C21.831,21.617,21.869,21.596,21.912,21.608z
			 M22.83,22.268C22.882,22.279,22.785,22.307,22.83,22.268L22.83,22.268z M22.824,22.348c-0.05,0.039-0.122-0.016-0.161-0.045
			C22.751,22.291,22.781,22.327,22.824,22.348z M22.692,22.551c-0.032,0.066-0.152-0.004-0.142-0.021
			c0.003-0.01,0.012-0.012,0.019-0.018C22.6,22.553,22.641,22.565,22.692,22.551z M22.741,22.59c0.028-0.029,0.061-0.055,0.1-0.07
			c0,0.011,0.013,0.013,0.009,0.021c-0.011,0.021-0.057,0.031,0.006,0.031C22.838,22.613,22.728,22.619,22.741,22.59z M23.09,22.501
			c0.001-0.001-0.132,0.069-0.125,0.056c0.012-0.016,0.027-0.026,0.046-0.033c-0.033,0-0.328-0.022-0.326-0.023
			c0.014-0.031,0.06-0.021,0.074-0.052c-0.009,0-0.018-0.004-0.018-0.011c0.117-0.035,0.208-0.211,0.332-0.211
			c0.039,0-0.113,0.123-0.116,0.131c0.029-0.02,0.058-0.021,0.089-0.008c-0.015,0.006-0.024,0.017-0.026,0.028
			c0.017,0,0.033,0,0.05,0c0,0.003-0.005,0.011-0.005,0.011c0.014,0,0.026-0.006,0.038-0.008c0.029,0.008,0.066,0.008,0.083,0
			c-0.007,0.02-0.018,0.037-0.03,0.066c0.006-0.004,0.022-0.006,0.034-0.006c-0.023,0.046-0.017,0.021-0.034,0.064
			c0.029,0.002,0.022-0.005,0.043-0.013C23.14,22.643,23.146,22.559,23.09,22.501z M24.735,21.159c-0.026,0.077-0.123-0.048-0.137,0
			c0.023,0.012,0.154,0.031,0.139,0.085c-0.01,0.034-0.168-0.022-0.189-0.03c-0.008,0.023,0.018,0.023-0.029,0.029
			c-0.007,0.023,0.14,0.021,0.172,0.027c-0.138,0.048-0.291,0.072-0.436,0.07c-0.094,0.026-0.15,0.09-0.258,0.086
			c0.002-0.006,0.004-0.011,0.005-0.016c-0.1,0.02-0.22,0.223-0.272,0.217c-0.034-0.002-0.279-0.113-0.19-0.162
			c-0.019-0.021-0.089-0.031-0.047-0.089c-0.007-0.002-0.015-0.002-0.021,0c0.016-0.053,0.102-0.062,0.134-0.102
			c-0.031-0.007-0.105-0.011-0.102-0.029c0.029-0.007,0.071,0.03,0.09-0.001c-0.01,0-0.08-0.042-0.106-0.04
			c0.03-0.015,0.032-0.026,0.002-0.032c0.044-0.111-0.191-0.111-0.254-0.095c0.002,0.001,0.004,0.003,0.007,0.004
			c-0.021,0.004-0.041,0.001-0.061-0.01c0.009-0.002,0.015-0.003,0.02-0.009c-0.019-0.01-0.038-0.012-0.058-0.006
			c0.024-0.037,0.104,0,0.133-0.033c-0.014,0-0.156,0.012-0.147-0.01c0.028-0.058,0.176-0.002,0.211-0.065
			c-0.021,0.003-0.041,0-0.06-0.007c0.034-0.067,0.36-0.081,0.408-0.083c0.012-0.023,0.047-0.019,0.073-0.009
			c-0.002-0.002-0.005-0.008-0.002-0.01c0.015-0.023,0.144,0,0.172,0c-0.02,0-0.038-0.004-0.054-0.018
			c0.016-0.005,0.033-0.008,0.049-0.008c-0.005-0.004-0.014-0.004-0.017-0.006c0.322-0.074,0.68-0.057,1.011-0.049
			c-0.023,0.021-0.061,0.032-0.106,0.039c0.037-0.004,0.063-0.005,0.062,0c-0.003,0.004-0.131,0.043-0.14,0.051
			c0.036-0.006,0.661-0.082,0.655-0.072c-0.019,0.031-0.151,0.04-0.221,0.043c-0.02,0.035-0.272,0.09-0.317,0.115
			c0.039-0.008,0.078-0.004,0.117,0.006c-0.01,0.002-0.023,0.006-0.034,0.006c0.024,0.003,0.046,0.011,0.067,0.021
			c-0.018,0.043-0.15-0.019-0.168,0.025c-0.005,0.009,0.079,0.004,0.065,0.039c-0.012,0.034-0.056,0-0.066,0.025
			c0.021,0.014,0.042,0.018,0.066,0.014c-0.015,0.014-0.052,0.021-0.087,0.021c-0.001,0.006,0.005,0.01,0.014,0.014
			c-0.043,0.05-0.124,0.012-0.173,0.013C24.682,21.13,24.709,21.143,24.735,21.159z M24.816,21.301c0.025,0,0.073,0,0.096-0.004
			c0.003,0.004-0.074-0.033-0.07-0.043c0.025-0.002,0.065-0.015,0.091-0.013c-0.025,0.058,0.033,0.034,0.053,0.024
			c0.019,0.025,0.052,0.004,0.079,0.019c0.003-0.021,0.199-0.002,0.223,0c-0.051,0.015,0.025,0.051,0.011,0.075
			c-0.188,0.082-0.287,0.006-0.463-0.008c0.007-0.006,0.014-0.008,0.019-0.008c0.01-0.015,0.02-0.021,0.032-0.033
			C24.862,21.303,24.825,21.313,24.816,21.301z M30.027,28.299c-0.002,0.115,0.152,0.234,0.106,0.338
			c-0.133,0.281,0.12,0.566-0.207,0.77c-0.114,0.07-0.263,0.135-0.286,0.283c-0.209,0.043-0.017,0.291-0.021,0.395
			c-0.009,0.238-0.056,0.188-0.203,0.312c-0.155,0.131-0.006,0.246-0.14,0.402c-0.122,0.146-0.188,0.32-0.301,0.473
			c-0.047,0.064-0.281,0.148-0.291,0.199c-0.125,0.016-0.232-0.016-0.354,0.049c-0.117,0.061-0.251-0.021-0.293,0.002
			c0.004-0.414-0.325-0.727-0.373-1.158c-0.021-0.199-0.027-0.277-0.119-0.459c-0.096-0.191-0.178-0.404-0.139-0.619
			c0.029-0.158,0.154-0.264,0.189-0.414c0.036-0.15-0.035-0.381-0.074-0.525c-0.043-0.156-0.053-0.35-0.154-0.477
			c-0.102-0.129-0.28-0.301-0.213-0.484c0.103-0.281,0.152-0.572-0.256-0.566c-0.127,0.004-0.114-0.244-0.26-0.242
			c-0.199,0.006-0.363,0.236-0.529,0.24c-0.069,0.002-0.125-0.062-0.196-0.059c-0.087,0-0.149,0.049-0.226,0.076
			c-0.17,0.059-0.296-0.109-0.403-0.217c-0.141-0.145-0.169-0.338-0.301-0.486c-0.075-0.08-0.147-0.164-0.206-0.262
			c0.004,0,0.007,0,0.01,0c0.001-0.113-0.071-0.225-0.015-0.312c0.059-0.091,0.098-0.216,0.102-0.325
			c0.006-0.154-0.102-0.378-0.022-0.519c0.061-0.106,0.102-0.215,0.153-0.328c0.064-0.139,0.125-0.312,0.278-0.367
			c0.085-0.031,0.186-0.118,0.213-0.207c0.029-0.094,0.009-0.204,0.07-0.286c0.087-0.123,0.191-0.229,0.283-0.349
			c-0.002,0-0.004,0-0.006,0c0.103-0.14,0.262,0.016,0.441-0.09c0.146-0.082,0.326-0.173,0.496-0.181
			c0.113-0.003,0.217,0,0.333-0.004c0.054-0.001,0.125-0.104,0.174-0.027c0.028,0.038,0.058,0.04,0.089,0.009
			c-0.006,0.101-0.048,0.185-0.049,0.295c-0.001,0.197,0.188,0.133,0.303,0.17c0.105,0.035,0.516,0.481,0.51,0.139
			c-0.007-0.297,0.431-0.043,0.539-0.003c0.155,0.056,0.273,0.075,0.426,0.019c0.115-0.043,0.219,0.033,0.338,0
			c0.07,0.176,0.063,0.221,0.021,0.401c-0.066-0.011-0.131-0.179-0.188-0.243c0.01,0.188,0.187,0.41,0.273,0.574
			c0.057,0.111,0.07,0.227,0.133,0.333c0.073,0.125,0.041,0.299,0.131,0.399c0.097,0.107,0.133,0.16,0.166,0.309
			c0.041,0.193,0.355,0.32,0.397,0.503c0.06,0.264,0.144,0.199,0.362,0.16c0.123-0.025,0.238-0.09,0.354-0.129
			c0.127,0.305-0.207,0.893-0.379,1.145c-0.197,0.287-0.518,0.393-0.6,0.766c-0.021,0.1-0.11,0.152-0.111,0.262
			C30.003,28.088,30.027,28.191,30.027,28.299z"/>
	</g>
</g>
</svg>
