<?xml version="1.0" encoding="utf-8"?>
<!-- Generator: Adobe Illustrator 16.0.4, SVG Export Plug-In . SVG Version: 6.00 Build 0)  -->
<!DOCTYPE svg PUBLIC "-//W3C//DTD SVG 1.1//EN" "http://www.w3.org/Graphics/SVG/1.1/DTD/svg11.dtd">
<svg version="1.1" id="Layer_1" xmlns="http://www.w3.org/2000/svg" xmlns:xlink="http://www.w3.org/1999/xlink" x="0px" y="0px"
	 width="50px" height="50px" viewBox="0 0 50 50" enable-background="new 0 0 50 50" xml:space="preserve">
<g>
	<polygon points="22,31.073 20,33.073 30,33.073 28,31.073 	"/>
	<path d="M15,16.927v13h9.184v-1.702c0-0.022,0.01-0.043,0.015-0.065h1.605c0.004,0.022,0.014,0.043,0.014,0.065v1.702H35v-13H15z
		 M26.291,20.123c0-0.382,0.309-0.69,0.689-0.69c0.383,0,0.689,0.309,0.689,0.69v2.755c0,0.381-0.309,0.305-0.689,0.305
		s-0.689,0.076-0.689-0.305V20.123z M22.33,20.123c0-0.382,0.311-0.69,0.691-0.69c0.379,0,0.688,0.309,0.688,0.69v2.755
		c0,0.381-0.31,0.312-0.688,0.312c-0.381,0-0.691,0.07-0.691-0.312V20.123z M28.703,26.607c0,0.795-0.668,1.447-1.48,1.447h-4.444
		c-0.813,0-1.479-0.65-1.479-1.447v-3.008c0-0.096,0.011-0.174,0.029-0.243c0.017,0.123,0.17,0.21,0.437,0.21h6.487
		c0.246,0,0.391-0.076,0.424-0.183c0.018,0.062,0.027,0.13,0.027,0.215V26.607L28.703,26.607z"/>
</g>
</svg>
