<?xml version="1.0" encoding="utf-8"?>
<!-- Generator: Adobe Illustrator 16.0.4, SVG Export Plug-In . SVG Version: 6.00 Build 0)  -->
<!DOCTYPE svg PUBLIC "-//W3C//DTD SVG 1.1//EN" "http://www.w3.org/Graphics/SVG/1.1/DTD/svg11.dtd">
<svg version="1.1" id="Layer_1" xmlns="http://www.w3.org/2000/svg" xmlns:xlink="http://www.w3.org/1999/xlink" x="0px" y="0px"
	 width="50px" height="50px" viewBox="0 0 50 50" enable-background="new 0 0 50 50" xml:space="preserve">
<g>
	<polygon points="27.999,31.073 21.999,31.073 19.999,33.073 29.999,33.073 	"/>
	<path d="M14.999,16.927v13h4.842v-0.519c0.139-0.129,0.301-0.232,0.475-0.326c0.297-0.159,0.59-0.321,0.893-0.466
		c0.293-0.14,0.598-0.261,0.896-0.386c0.283-0.119,0.569-0.231,0.85-0.354c0.048-0.021,0.097-0.072,0.117-0.122
		c0.062-0.157,0.115-0.319,0.164-0.481c0.037-0.123,0.062-0.244,0.221-0.276c0.038-0.008,0.088-0.077,0.096-0.123
		c0.031-0.235,0.055-0.474,0.071-0.71c0.004-0.05-0.022-0.114-0.058-0.153c-0.207-0.231-0.32-0.501-0.369-0.809
		c-0.024-0.154-0.111-0.298-0.155-0.45c-0.058-0.205-0.108-0.411-0.153-0.618c-0.019-0.075-0.01-0.156-0.02-0.231
		c-0.02-0.112-0.016-0.198,0.117-0.242c0.037-0.011,0.068-0.101,0.068-0.154c0.008-0.331,0.002-0.662,0.006-0.993
		c0.002-0.204,0-0.408,0.015-0.609c0.028-0.388,0.256-0.662,0.542-0.897c0.417-0.344,0.916-0.505,1.428-0.625
		c0.271-0.063,0.546-0.103,0.819-0.147c0.073-0.011,0.147,0,0.224,0c0.014,0.019,0.025,0.037,0.038,0.055
		c-0.06,0.042-0.121,0.078-0.172,0.126c-0.11,0.112-0.101,0.189,0.021,0.291c0.248,0.209,0.493,0.419,0.734,0.636
		c0.213,0.19,0.295,0.44,0.295,0.721c0.001,0.481,0.001,0.963,0.001,1.445c-0.001,0.099-0.008,0.196,0.114,0.241
		c0.025,0.008,0.053,0.062,0.052,0.094c-0.021,0.247-0.047,0.493-0.073,0.739c0,0.01-0.002,0.021-0.007,0.028
		c-0.223,0.323-0.251,0.72-0.409,1.067c-0.008,0.013-0.01,0.029-0.021,0.04c-0.293,0.348-0.2,0.762-0.206,1.16
		c-0.002,0.04,0.025,0.104,0.061,0.118c0.119,0.052,0.148,0.155,0.184,0.264c0.051,0.171,0.104,0.345,0.177,0.507
		c0.027,0.061,0.106,0.112,0.175,0.137c0.903,0.348,1.799,0.715,2.661,1.158c0.175,0.088,0.321,0.197,0.448,0.326v0.541h4.842v-13
		H14.999V16.927z M22.724,26.438c-0.211,0.211-0.287,0.465-0.324,0.584c-0.017,0.055-0.032,0.108-0.051,0.162l-0.775,0.322
		c-0.249,0.104-0.498,0.207-0.741,0.323c-0.147,0.069-0.288,0.147-0.433,0.224c-0.978,0-1.953,0-2.93,0v-0.406
		c0.107-0.103,0.235-0.183,0.371-0.256c0.231-0.123,0.461-0.25,0.697-0.365c0.23-0.108,0.468-0.203,0.703-0.303
		c0.222-0.093,0.445-0.181,0.665-0.275c0.036-0.018,0.075-0.059,0.092-0.096c0.049-0.123,0.091-0.25,0.129-0.377
		c0.029-0.096,0.05-0.191,0.173-0.217c0.029-0.007,0.068-0.061,0.074-0.097c0.025-0.185,0.043-0.37,0.057-0.557
		c0.002-0.04-0.018-0.089-0.043-0.12c-0.164-0.182-0.254-0.393-0.291-0.634c-0.021-0.121-0.088-0.233-0.121-0.353
		c-0.047-0.16-0.086-0.322-0.121-0.484c-0.015-0.059-0.006-0.122-0.016-0.181c-0.015-0.088-0.012-0.155,0.092-0.189
		c0.03-0.009,0.056-0.079,0.056-0.121c0.006-0.259,0.001-0.519,0.003-0.778c0.002-0.16,0-0.319,0.013-0.478
		c0.021-0.304,0.2-0.519,0.425-0.703c0.325-0.27,0.717-0.396,1.118-0.49c0.211-0.05,0.427-0.081,0.642-0.115
		c0.059-0.009,0.117,0,0.176,0c0.009,0.014,0.02,0.029,0.029,0.043c-0.045,0.032-0.096,0.061-0.136,0.098
		c-0.087,0.088-0.077,0.148,0.017,0.228c0.065,0.056,0.131,0.115,0.197,0.171c-0.134,0.226-0.24,0.504-0.267,0.84
		c-0.013,0.186-0.015,0.374-0.015,0.562l-0.004,0.81c-0.129,0.175-0.244,0.444-0.184,0.81c0.002,0.069,0.005,0.185,0.033,0.295
		c0.048,0.225,0.104,0.449,0.168,0.681c0.027,0.092,0.062,0.183,0.1,0.27c0.014,0.033,0.028,0.065,0.031,0.07
		c0.062,0.389,0.191,0.725,0.396,1.021C22.728,26.385,22.726,26.412,22.724,26.438z M32.528,28.053c-0.969,0-1.939,0-2.91,0
		c-0.711-0.34-1.414-0.638-2.035-0.88c-0.018-0.054-0.035-0.112-0.057-0.183c-0.029-0.094-0.084-0.264-0.209-0.434
		c-0.002-0.103-0.008-0.25-0.002-0.274l0.158-0.243c0.08-0.18,0.139-0.366,0.192-0.556c0.043-0.148,0.086-0.301,0.149-0.397
		l0.074-0.122l0.088-0.441c0.021-0.203,0.043-0.406,0.062-0.659c0.005-0.197-0.059-0.403-0.166-0.572l-0.001-1.23
		c0-0.417-0.115-0.788-0.333-1.09c0.297-0.202,0.635-0.313,0.982-0.396c0.211-0.05,0.427-0.081,0.641-0.115
		c0.059-0.009,0.115,0,0.176,0c0.01,0.014,0.02,0.029,0.029,0.043c-0.045,0.032-0.096,0.061-0.135,0.098
		c-0.088,0.088-0.078,0.148,0.016,0.228c0.193,0.164,0.388,0.328,0.576,0.498c0.166,0.149,0.229,0.344,0.229,0.564
		c0.001,0.377,0.001,0.755,0.001,1.132c-0.001,0.077-0.006,0.153,0.09,0.188c0.021,0.006,0.043,0.049,0.041,0.073
		c-0.017,0.193-0.037,0.386-0.058,0.579c-0.001,0.008-0.002,0.016-0.007,0.021c-0.174,0.253-0.196,0.564-0.319,0.836
		c-0.006,0.011-0.008,0.023-0.017,0.031c-0.229,0.272-0.156,0.598-0.161,0.909c-0.001,0.031,0.021,0.082,0.047,0.093
		c0.095,0.041,0.117,0.121,0.144,0.207c0.041,0.134,0.082,0.271,0.139,0.396c0.021,0.048,0.085,0.088,0.139,0.107
		c0.707,0.271,1.407,0.559,2.083,0.906c0.138,0.07,0.252,0.154,0.353,0.256V28.053L32.528,28.053z"/>
</g>
</svg>
