<?xml version="1.0" encoding="utf-8"?>
<!-- Generator: Adobe Illustrator 16.0.4, SVG Export Plug-In . SVG Version: 6.00 Build 0)  -->
<!DOCTYPE svg PUBLIC "-//W3C//DTD SVG 1.1//EN" "http://www.w3.org/Graphics/SVG/1.1/DTD/svg11.dtd">
<svg version="1.1" id="Layer_1" xmlns="http://www.w3.org/2000/svg" xmlns:xlink="http://www.w3.org/1999/xlink" x="0px" y="0px"
	 width="50px" height="50px" viewBox="0 0 50 50" enable-background="new 0 0 50 50" xml:space="preserve">
<g>
	<polygon points="22.937,32.365 21.562,33.742 28.438,33.742 27.062,32.365 	"/>
	<path d="M26.351,25.58c-0.017-0.004-0.084-0.011-0.099-0.006c0.002,0.014,0.078,0.057,0.094,0.057
		C26.348,25.633,26.349,25.59,26.351,25.58z"/>
	<path d="M26.094,25.454c0.002,0.009,0.014,0.016,0.015,0.024C26.121,25.58,26.188,25.439,26.094,25.454z"/>
	<path d="M23.481,24.722c0.009-0.003,0.018-0.003,0.027-0.001c-0.023,0.005-0.048,0.016-0.032,0.015c0.014,0,0.04-0.004,0.048-0.009
		c-0.029,0.001-0.024,0,0.015-0.003c0-0.002-0.001-0.003-0.003-0.004c0.003,0,0.006-0.001,0.01-0.001
		C23.526,24.718,23.493,24.716,23.481,24.722z"/>
	<path d="M25.592,24.884c0,0.021,0.005,0.016,0.004,0.042c0.003,0,0.006,0,0.009,0.001c-0.002-0.003-0.005-0.005,0-0.011
		c0.038,0.019,0.007,0.007,0.007,0.032c0,0.012,0.047,0.006,0.055,0.007c-0.014,0.017,0,0.02,0.019,0.02
		c0,0.024-0.032,0.023-0.052,0.022c0,0.028-0.022,0.031-0.022,0.046c0,0.004,0.062,0.015,0.071,0.007
		c0,0.013-0.064,0.023-0.078,0.047c0.023,0.001,0.221-0.016,0.219-0.025c-0.008-0.002-0.016-0.003-0.023-0.005
		c0.027-0.031,0.027-0.06,0.002-0.047c-0.006,0.001-0.006,0.003-0.014,0.004c-0.002-0.044-0.07-0.089-0.113-0.101
		c0.004-0.011,0.041-0.026,0.037-0.044c-0.032,0.015-0.055,0.012-0.066-0.01c0.01-0.004,0.02-0.009,0.027-0.015
		c0-0.037-0.094,0.012-0.074,0.02c0,0.003-0.027-0.004-0.03-0.004C25.567,24.878,25.576,24.881,25.592,24.884z"/>
	<path d="M26.127,25.394c-0.004-0.001-0.006-0.007-0.006-0.012c-0.009,0.006-0.017,0.01-0.026,0.01
		c0.007,0.009,0.014,0.041,0.026,0.044C26.125,25.428,26.125,25.405,26.127,25.394z"/>
	<path d="M23.137,26.637c-0.021-0.002-0.044,0.016-0.059-0.008c-0.033-0.049-0.035,0.078-0.036,0.092
		c-0.008-0.004-0.141,0.007-0.073,0.047c0.027-0.073,0.088,0.04,0.089,0.04c0.01,0.002,0.052-0.063,0.055-0.035
		c0,0.001,0.09,0.001,0.094,0.002c0,0.002-0.011-0.038-0.017-0.058C23.174,26.688,23.18,26.645,23.137,26.637z"/>
	<path d="M23.251,26.812c-0.01,0.03,0.044,0.047,0.06,0.026C23.311,26.821,23.262,26.78,23.251,26.812z"/>
	<path d="M27.049,25.744c-0.021,0.002-0.049,0.01-0.065,0.016C26.992,25.797,27.049,25.762,27.049,25.744z"/>
	<path d="M25.629,24.965c-0.006,0.002-0.008,0.005-0.008,0.009c0.006,0,0.01,0,0.012,0.001c0-0.004,0.002-0.007,0.002-0.009
		C25.633,24.966,25.631,24.965,25.629,24.965z"/>
	<path d="M23.689,24.718c-0.005,0.001-0.011,0.002-0.015,0.002c0.009,0,0.016-0.001,0.021-0.002c0.024,0,0.046-0.004,0.041-0.009
		c0.002-0.001,0.006-0.002,0.009-0.003c-0.015-0.014-0.072-0.007-0.091-0.006c-0.005,0.003-0.004,0.003,0.005,0.003
		c-0.003,0.001-0.006,0.002-0.009,0.002c0.002,0.001,0.008,0,0.022,0c-0.009,0.005-0.019,0.008-0.03,0.006
		C23.648,24.716,23.668,24.718,23.689,24.718z"/>
	<path d="M23.831,24.719c0.008,0,0.014-0.001,0.021-0.005c-0.02,0.001-0.04,0-0.059,0.004C23.792,24.718,23.827,24.72,23.831,24.719
		z"/>
	<path d="M25.56,24.863c0.012,0,0.021-0.007,0.021-0.014C25.578,24.851,25.537,24.861,25.56,24.863z"/>
	<path d="M23.626,24.729c-0.01-0.001-0.003-0.006-0.02-0.006c-0.005,0.003-0.002,0.01,0.005,0.009
		C23.617,24.732,23.623,24.73,23.626,24.729z"/>
	<path d="M25.478,25.042c0.06,0.004,0.095-0.013,0.097-0.066c0-0.008,0.049-0.038-0.018-0.042c-0.012-0.001-0.068-0.003-0.047,0.02
		c-0.008,0.005-0.045,0-0.046,0.014c0.007,0.005,0.014,0.011,0.021,0.017C25.479,25,25.417,25.038,25.478,25.042z"/>
	<path d="M23.807,24.688c0.002-0.001,0.005-0.003,0.008-0.004c-0.004,0-0.014,0-0.023,0.001
		C23.782,24.69,23.816,24.688,23.807,24.688z"/>
	<path d="M18.123,22.637v8.941h13.754v-8.941H18.123z M27.681,26.092c-0.005-0.006-0.015-0.014-0.022-0.021
		c0.018,0.047,0.035,0.096,0.051,0.145c0.002-0.006,0.004-0.01,0.01-0.012c0.014,0.028-0.004,0.062,0.027,0.08
		c0.008,0.03,0.012,0.062,0.021,0.092c-0.015-0.056-0.039-0.106-0.058-0.16c0,0.004-0.002,0.01-0.008,0.011
		c-0.021-0.056-0.088-0.084-0.115-0.14c-0.049-0.098,0.027-0.06,0.072-0.016c-0.009-0.023-0.016-0.048-0.025-0.07
		C27.646,26.031,27.668,26.061,27.681,26.092z M27.457,25.635c-0.002,0-0.006,0-0.008,0.002c0.008,0.011,0.01,0.025,0.018,0.035
		c-0.023-0.041-0.049-0.078-0.074-0.117C27.412,25.584,27.439,25.605,27.457,25.635z M26.942,25.004
		c0.021,0.02,0.035,0.047,0.056,0.068c-0.064-0.064-0.121-0.137-0.192-0.194C26.856,24.923,26.903,24.969,26.942,25.004z
		 M23.374,24.758c0.001,0,0.001,0,0.003,0.001c-0.003,0-0.005,0.001-0.008,0.002C23.371,24.76,23.373,24.759,23.374,24.758z
		 M22.67,25.439c0.006-0.008,0.015-0.015,0.021-0.023c-0.008,0.011-0.017,0.02-0.025,0.03c-0.121,0.168-0.222,0.349-0.303,0.539
		c0.082-0.19,0.184-0.372,0.303-0.539C22.668,25.443,22.669,25.441,22.67,25.439z M23.556,29.586
		c0.003-0.006,0.008-0.012,0.017-0.012c0.006,0.012,0.015,0.024,0.025,0.036C23.583,29.603,23.569,29.594,23.556,29.586z
		 M27.547,28.426c-0.014,0.013-0.024,0.029-0.03,0.06c-0.487,0.89-1.433,1.492-2.517,1.492c-0.379,0-0.741-0.074-1.073-0.208
		c-0.013-0.038-0.148-0.064-0.071-0.111c0.05-0.023,0.01-0.09-0.002-0.117c0.009-0.002,0.053,0.014,0.04-0.016
		c0.008,0.018-0.121-0.041-0.069-0.055c0.027-0.008,0.095,0.014,0.076-0.031c0.001-0.023-0.043-0.07-0.001-0.081
		c0.036-0.009,0.096-0.017,0.113-0.056c0.049-0.11-0.055-0.079-0.083-0.152c0.006,0.016,0.152-0.006,0.162-0.055
		c0.013-0.07,0.04-0.133,0.049-0.203v0.001c0-0.026,0.008-0.052,0.026-0.072c-0.01-0.03-0.02-0.062-0.029-0.093
		c-0.006-0.036,0.042-0.088,0.069-0.104c0.095-0.061,0.111-0.101,0.14-0.209c0.009-0.063-0.057-0.209-0.034-0.252
		c0.03-0.057,0.151-0.291,0.024-0.318c-0.06-0.012-0.094-0.047-0.149-0.062c-0.056-0.016-0.118,0.002-0.167,0.008
		c-0.01-0.045-0.025-0.043-0.063-0.06c-0.104-0.043-0.055,0.052-0.108,0.058c-0.054,0.006-0.113-0.063-0.071-0.119
		c0.027-0.037-0.073-0.182-0.132-0.176c-0.05,0-0.185-0.012-0.216-0.058c-0.04-0.06-0.18-0.075-0.195-0.14
		c-0.038,0.008-0.082,0.031-0.107,0.021c-0.021-0.007-0.083,0.001-0.098-0.016c-0.02-0.023-0.062-0.053-0.096-0.053
		c0.003,0.019,0.022,0.01,0.031,0.027c-0.096,0.006-0.026,0.104-0.044,0.104c-0.042,0.002-0.031-0.088-0.031-0.107
		c0.012-0.009,0.014-0.02,0.004-0.027c-0.017-0.025-0.031,0.016-0.044,0.022c-0.059,0.026-0.155,0.079-0.14,0.157
		c-0.074,0.031,0,0.127,0.012,0.184c-0.007,0.014-0.002,0.021,0.014,0.027c0.001,0.06-0.079,0.123-0.08,0.183
		c-0.001,0.069-0.021,0.078,0.042,0.111c0.001,0.042-0.044,0.062-0.032,0.108c0.012,0.049,0.055,0.051,0.077,0.082
		c0.043,0.062,0.099,0.129,0.153,0.188c0.064,0.07,0.082,0.16,0.187,0.18c0.083,0.012,0.175,0.062,0.208,0.141
		c0.03,0.07,0.041,0.144,0.066,0.215c0.012,0.076,0.005,0.207,0.051,0.269c0.043,0.104,0.05,0.171,0.05,0.278
		c0,0.054,0.031,0.061,0.049,0.1c0.013,0.027,0,0.055,0.017,0.079c-0.835-0.501-1.394-1.416-1.394-2.461
		c0-0.174,0.021-0.342,0.051-0.507c-0.001,0-0.002-0.005-0.003-0.005c0.001-0.007,0.004-0.011,0.005-0.017
		c-0.001,0.006-0.001,0.014-0.002,0.021c0.02,0.008,0.029,0.087,0.056,0.094c0.024,0.007,0.048-0.062,0.062-0.009
		c0.02,0.005,0.01,0.098,0.018,0.115c0.02,0.051,0.057,0.076,0.095,0.089c-0.012,0.042-0.005,0.077-0.002,0.118
		c0.003,0.048-0.036,0.094-0.024,0.138c0.004,0.001,0.007,0.002,0.011,0.004c0-0.005,0.003-0.015,0.008-0.021
		c0.043,0.015,0.015,0.234,0.073,0.258c0.029,0.014,0.034-0.129,0.094-0.107c0.03,0.012,0.005,0.088,0.009,0.107
		c0,0.002,0.048-0.043,0.052-0.049c-0.01-0.037-0.011-0.135-0.076-0.105c-0.135,0.059-0.077-0.177-0.049-0.248
		c0.031-0.081,0.147-0.229-0.009-0.238c-0.129-0.009,0.02-0.129,0.036-0.158c0.012-0.014,0.023-0.026,0.035-0.053
		c0.018-0.037,0.05-0.066,0.069-0.104c-0.147-0.027-0.153,0.164-0.288,0.134c-0.099-0.021,0.115-0.377,0.126-0.403h0.002
		c0.042-0.074,0.095-0.106,0.167-0.146c0.049-0.025,0.083,0.047,0.119,0.031c-0.006-0.012,0.01-0.023,0.023-0.045
		c-0.008,0.004-0.006,0.004-0.013,0c0.021-0.008,0.04-0.002,0.059-0.008c-0.006,0.012,0.117,0.031,0.118,0.034
		c0.005,0.019-0.079,0.231-0.034,0.236c0.049,0.006,0.088-0.142,0.092-0.175c0.014-0.131,0.113-0.178,0.223-0.226
		c0-0.001-0.001-0.002-0.001-0.002c0.027-0.019,0.061-0.022,0.087-0.043c-0.021-0.022,0.01-0.017,0.021-0.03
		c-0.005-0.002-0.01-0.004-0.01-0.013c0.015-0.004,0.025-0.013,0.03-0.026c-0.002,0-0.005,0-0.008,0
		c-0.003-0.011,0.03-0.066,0.038-0.074c-0.001,0.004-0.014,0.06-0.017,0.059c0.039,0.001,0.045-0.062,0.065-0.074
		c-0.006-0.017,0.102-0.056,0.127-0.062c-0.006-0.008-0.031-0.002-0.04-0.002c0.044-0.018,0.103-0.016,0.143-0.03
		c-0.065,0.001,0.053-0.096,0.092-0.088c0.037,0.008,0.114-0.045,0.16-0.047c-0.009,0.013-0.006,0.017,0.011,0.015
		c-0.062,0.003-0.11,0.081-0.064,0.057c0.028-0.015,0.153-0.034,0.165-0.058c0.007-0.014-0.139-0.004-0.074-0.084
		c-0.006,0-0.017-0.003-0.028-0.003c0.019-0.012,0.053-0.006,0.065-0.028c0.014-0.026-0.167,0.016-0.176,0.017
		c0.075-0.06,0.436-0.047,0.4-0.168c-0.011,0.003-0.128,0.034-0.131,0.02c0.027-0.008,0.094-0.014,0.108-0.028
		c0.008-0.011-0.094-0.001-0.073-0.035l0.001-0.001c-0.024,0-0.033-0.009-0.042-0.015c0.056-0.018-0.001-0.098-0.039-0.079
		c0.003,0.004-0.003,0.015,0.004,0.017c-0.007-0.003-0.012-0.007-0.017-0.013c0.003-0.005,0.008-0.002,0.013-0.004
		c-0.005-0.005-0.017-0.005-0.006-0.024c-0.03,0.055-0.15,0.02-0.19,0c-0.14-0.067-0.097,0.026-0.202,0.049
		c0.002,0.051,0.073,0.051-0.024,0.089c-0.078,0.031-0.032,0.048-0.072,0.093c-0.022,0-0.025-0.003-0.033-0.005l0,0l0,0
		c0.006-0.009-0.009-0.011-0.02-0.008c0.003-0.015,0.043-0.04,0.016-0.059c-0.082,0.002-0.072-0.057-0.173-0.053
		c0.028-0.029,0.032-0.045-0.01-0.039c0.055-0.037,0.161-0.069,0.205-0.109c-0.004-0.003-0.008-0.005-0.013-0.007
		c0.05,0.004,0.135-0.005,0.168-0.034c-0.023-0.002-0.054,0.001-0.05-0.012c0.023,0.007,0.052,0.007,0.082,0.003
		c-0.027,0.011-0.063,0.031-0.076,0.042c0.007,0,0.024-0.003,0.036-0.001c-0.007,0.005-0.014,0.01-0.004,0.009
		c0.04-0.002,0.106-0.009,0.146-0.02c-0.002-0.005-0.021-0.002-0.028-0.007c-0.002-0.001,0.003-0.005,0.003-0.008
		c-0.004-0.01-0.042-0.015-0.052-0.011c0.001-0.003,0-0.005,0-0.008c0.01-0.002,0.019-0.004,0.028-0.007
		c-0.004,0.003-0.001,0.006,0.009,0.006c-0.001-0.003,0.003-0.009-0.008-0.006c0.055-0.016,0.108-0.041,0.134-0.064
		c-0.014,0-0.029-0.006-0.043-0.007c0.02-0.001,0.037-0.001,0.046-0.001c-0.013,0.01,0.052-0.006,0.068,0.003c0,0-0.001,0-0.002,0
		c0.006,0,0.011,0.003,0.016,0.007c-0.007,0.002-0.014,0.004-0.021,0.005c0.001-0.001,0.041,0,0.05,0.005
		c-0.017-0.001-0.032,0.002-0.046,0.012c0,0,0.055,0.016,0.055-0.007c0.034,0.025-0.068,0.044-0.04,0.053
		c-0.036,0.016-0.104,0.005-0.129,0.04c-0.005,0.006,0.112-0.008,0.124-0.001c0.027,0.013,0.08,0.045,0.124,0.036
		c0.035-0.008-0.031-0.04-0.031-0.04c0.06-0.01,0.058,0.02,0.074-0.032c-0.021,0.002-0.027-0.017-0.042-0.016
		c0.003-0.01,0.008-0.004,0.012-0.011c0.028,0.004,0.084,0.02,0.089-0.016c0.001-0.002-0.076-0.028-0.081-0.03
		c0.006-0.005,0.01-0.005,0.019-0.007c-0.006-0.003-0.014-0.004-0.021-0.003c0.005-0.004,0.012-0.003,0.02-0.004
		c-0.006-0.006-0.013-0.008-0.02-0.006c0.001-0.002,0.001-0.003,0.002-0.005c-0.062-0.002-0.117-0.022-0.183-0.023
		c0.003,0,0.011-0.013,0.01-0.015c-0.01-0.026-0.165,0.026-0.128,0.01c-0.017,0,0.039-0.014,0.051-0.017
		c-0.032-0.002-0.062-0.002-0.095,0.005c0.012-0.004,0.023-0.006,0.034-0.012c-0.069,0.003-0.095,0.003-0.146,0.038
		c0.017,0.001,0.032-0.003,0.047-0.012c-0.003,0-0.006,0-0.01,0c0.018-0.008,0.048-0.006,0.065-0.012
		c-0.011,0.006-0.073,0.013-0.063,0.032c0,0,0.043,0.001,0.049,0.003c-0.014,0.012-0.031,0.013-0.051,0.005
		c-0.017,0.014,0.125,0.016,0.125,0.016c-0.018,0.005-0.087,0.067-0.11,0.045c-0.003-0.016,0.005-0.022,0.025-0.021
		c0.016-0.014-0.067,0.006-0.063,0.006c0.021-0.017-0.018-0.01,0.014-0.019c-0.007-0.003-0.029,0.001-0.031-0.004
		c0.01-0.002,0.02-0.006,0.03-0.009c0.022-0.017-0.074-0.015-0.1,0.005c-0.007,0.005,0.035,0.009,0.027,0.015
		c-0.007,0.004-0.013,0.008-0.021,0.011c0.008-0.001,0.013-0.002,0.021-0.004c-0.01,0.016-0.05,0.01-0.075,0.029
		c-0.015,0.002-0.013,0-0.007-0.003c-0.035,0.009-0.132-0.003-0.192-0.005c-0.022,0.019-0.062,0.022-0.075,0.018
		c-0.044-0.015-0.082-0.003-0.117,0.018c-0.03,0.025-0.062,0.049-0.091,0.075c0.007-0.006,0.012-0.014,0.019-0.021
		c0.022-0.02,0.047-0.039,0.073-0.055c0.009-0.007,0.017-0.014,0.025-0.021c-0.005,0-0.009,0.001-0.013,0.002
		c0.006-0.005,0.013-0.009,0.019-0.015c0.004,0,0.003,0.004,0.003,0.006c0.004-0.004,0.009-0.008,0.014-0.012
		c-0.004,0-0.005,0-0.009,0c0.005-0.004,0.011-0.002,0.016-0.005c0.008-0.007,0.017-0.014,0.025-0.021c-0.002,0-0.005,0-0.007,0
		c0.008-0.006,0.039-0.031,0.062-0.044c0.001-0.001,0.003-0.003,0.005-0.004c-0.001,0-0.002,0-0.004,0
		c0.005-0.004,0.011-0.007,0.017-0.012v0.001c0.01-0.007,0.022-0.013,0.032-0.02c0.011,0,0.022,0,0.033-0.002
		c0.003-0.002,0.009-0.004,0.013-0.004v0.001c0.051-0.012,0.126,0.011,0.174-0.017c0.005-0.003-0.062,0.001-0.029-0.014
		c-0.006,0-0.067,0.011-0.039,0.012c-0.003,0.003-0.008,0.004-0.014,0.005c0.004-0.001,0.007,0.002,0.011,0c-0.007,0-0.01,0-0.012,0
		l0,0c-0.031,0.005-0.062-0.009-0.091-0.006c-0.002,0.002-0.002,0.002,0,0.003c-0.006,0-0.012,0.001-0.017,0.003
		c0.008-0.005,0.017-0.01,0.025-0.016l0,0c0.017-0.001,0.021-0.003,0.011-0.006c-0.001,0-0.002,0.002-0.004,0.002
		c0.457-0.309,1-0.5,1.592-0.5c0.565,0,1.092,0.165,1.537,0.447c-0.039-0.019-0.078-0.032-0.115-0.035
		c0.009-0.027-0.082-0.01-0.055-0.005c-0.037,0.005-0.08-0.006-0.113,0.005c0.004,0.001,0.002,0.001,0.009,0.003
		c-0.013-0.001-0.026,0-0.039,0.004c0.008,0,0.008,0,0.015,0.001c-0.002,0-0.076-0.006-0.078,0.003c0,0,0.01,0.001,0.014,0.001
		c-0.004,0-0.014,0.002-0.018,0.004c0.023,0.001,0.031-0.003,0.055-0.003c-0.006,0.018-0.172,0.085-0.193,0.086
		c0.009,0.002,0.014,0.003,0.025,0.005c-0.033-0.004-0.176,0.024-0.102,0.076c-0.007,0.003-0.012,0.008-0.016,0.014
		c0.013-0.002,0.013-0.002,0.027,0c0.002,0.017-0.017,0.006-0.017,0.017c0.004,0.039,0.11,0.011,0.123,0.003
		c0.037-0.022,0.046,0.001,0.067,0.033c0.009,0.012,0.043,0.079,0.06,0.081c0.021,0.001,0.104-0.02,0.104-0.048
		c-0.072-0.012,0.041-0.059,0.039-0.065c-0.008-0.033-0.054-0.023-0.06-0.06c-0.005-0.036,0.108-0.025,0.101-0.048
		c0.01-0.014,0.092-0.058,0.111-0.008c0.001,0.004-0.102,0.042-0.109,0.041c0.01,0.013,0.006,0.028,0.028,0.034
		c-0.036,0.046,0.214,0.04,0.233,0.062c-0.053,0.02-0.11-0.019-0.16,0.007c-0.016,0.008,0.041,0.029,0.041,0.046
		c0-0.019-0.129,0.01-0.119,0.081c-0.013,0-0.025-0.001-0.04-0.002c0-0.001,0.001-0.005,0.003-0.008
		c-0.031-0.012-0.164,0.035-0.158-0.006c-0.035-0.006-0.076-0.003-0.111-0.007c-0.002,0.009,0-0.003,0.003-0.019
		c0.008,0.003,0.021-0.002,0.022,0.01c0.002-0.017-0.007-0.021-0.02-0.023c0.003-0.014,0.007-0.026,0.01-0.025
		c-0.004-0.009-0.016-0.016-0.018-0.036c-0.068,0.026-0.069,0.026-0.031,0.091c0.018,0.028-0.051,0.025-0.07,0.023
		c-0.064-0.005-0.056,0.052-0.109,0.062c-0.063,0.014-0.074,0.042-0.148,0.036c0,0.012,0.006,0.02,0.007,0.031
		c-0.011,0.002-0.104-0.017-0.104,0.004c0,0.03,0.16,0.047,0.125,0.105c0,0,0,0,0.003-0.001c0.004,0.081-0.019,0.059-0.077,0.067
		c-0.053-0.004-0.104-0.018-0.155-0.022c-0.061-0.004-0.036,0.036-0.036,0.065c0,0.021-0.041,0.177,0.006,0.181
		c0.046,0.004,0.063-0.014,0.091,0.031c0.022,0.035,0.094-0.02,0.132-0.004c0.032-0.013,0.067-0.039,0.091-0.07
		c-0.076-0.034,0.098-0.107,0.1-0.115c-0.033-0.084,0.092-0.017,0.131-0.037c0.076-0.039,0.086-0.017,0.146,0.044
		c-0.011-0.024,0.254,0.184,0.171,0.175c0.006,0.036,0.051-0.032,0.051-0.026c-0.01-0.058-0.039-0.049,0.039-0.029
		c0-0.047-0.084-0.037-0.093-0.082c-0.056-0.005-0.142-0.079-0.149-0.132c-0.004-0.034,0.162,0.082,0.176,0.083
		c0.008,0.038,0.088,0.047,0.099,0.105c0.006,0.034,0.075,0.102,0.106,0.105c-0.018,0.035,0.008,0.056,0.05,0.061
		c-0.007-0.004-0.017-0.05-0.019-0.059c0.018,0.017,0.036,0.027,0.057,0.018c-0.034-0.029-0.051-0.059-0.082-0.088
		c-0.006-0.025,0.046,0.01,0.046,0.01c0.001-0.01-0.001-0.016-0.005-0.025c0.029-0.006,0.035-0.018,0.066,0.004
		c0.041,0.029,0.035-0.01,0.073-0.004c0,0.006,0.011,0.012,0.013,0.016c-0.017,0.006-0.111-0.009-0.104,0.025
		c0.006,0.027,0.046,0.01,0.006,0.051c0.037,0.02,0.057,0.04,0.087,0.066c-0.001,0.002-0.005,0.004-0.009,0.006
		c0.104,0.01,0.189,0.052,0.292,0.023c0.013,0.049,0.002,0.084-0.001,0.133c-0.001,0.014,0.003,0.062-0.01,0.07
		c-0.004,0.003,0.043,0.094,0.045,0.111c0.005,0.125,0.195,0.195,0.221,0.311c0.016,0.07,0.073,0.112,0.113,0.167
		c0.055,0.073,0.074,0.128,0.115,0.206c0.072,0.143,0.166,0.039,0.278,0c-0.007-0.05-0.008-0.102-0.018-0.15
		c0.01,0.049,0.024,0.094,0.032,0.145c-0.004,0.001-0.01,0.004-0.015,0.006c0.021,0.137,0.048,0.27,0.048,0.41
		C27.869,27.584,27.752,28.031,27.547,28.426z"/>
	<path d="M22.977,26.557c0.003-0.021-0.054-0.104-0.079-0.129c-0.078-0.075-0.131-0.061-0.202,0.029
		c0.069,0.01,0.077-0.088,0.1-0.011c0.088,0.011,0.106,0.104,0.082,0.162c0.044,0.007,0.087,0.062,0.128,0.007
		C22.986,26.59,23.015,26.567,22.977,26.557z"/>
	<path d="M22.873,26.748c-0.005-0.006-0.019-0.021-0.033-0.024c-0.01-0.003-0.047,0.045,0.036,0.042
		c0.002-0.01,0.002-0.016-0.004-0.021C22.873,26.746,22.873,26.746,22.873,26.748z"/>
	<polygon points="23.35,24.886 23.352,24.886 23.353,24.886 	"/>
	<path d="M26.328,24.939c0.006-0.008,0.012-0.016,0.019-0.023C26.34,24.917,26.313,24.928,26.328,24.939z"/>
	<path d="M23.35,24.886c-0.023,0-0.04,0-0.045,0.004C23.297,24.896,23.336,24.888,23.35,24.886z"/>
	<path d="M23.462,24.87c0,0-0.004-0.009-0.007-0.008c0.011-0.007,0.035-0.005,0.047-0.008c-0.025-0.02-0.044,0.002-0.028-0.034
		c0.003-0.007,0.042-0.031,0.045-0.031c-0.046-0.016-0.081,0.038-0.115,0.04c0.006,0-0.052-0.021-0.088-0.012
		c0.002-0.009-0.001-0.013-0.006-0.012c0.001-0.002,0.001-0.004,0.001-0.007c-0.005,0.003-0.009,0.007-0.013,0.011l0,0
		c-0.002,0.001-0.003,0.003-0.005,0.004c-0.019,0.014-0.036,0.03-0.054,0.044c0.012-0.001,0.028-0.004,0.039,0
		c-0.029,0.003-0.044,0.009-0.064,0.021c-0.002,0.001-0.004,0.003-0.006,0.005c0.007,0,0.015-0.001,0.017,0
		C23.233,24.892,23.43,24.885,23.462,24.87z"/>
	<polygon points="23.194,24.895 23.186,24.901 23.198,24.899 	"/>
	<path d="M26.168,24.969c-0.024-0.043-0.072,0.002-0.023,0.012c0,0.004-0.006,0.008-0.014,0.008c-0.002-0.004-0.004-0.004-0.008,0
		C26.156,25.012,26.146,24.971,26.168,24.969z"/>
	<path d="M26.441,24.921c0.014,0.001,0.02-0.011,0.02-0.021c-0.006-0.003-0.035-0.011-0.01,0.007c-0.009,0-0.015,0.003-0.022,0.003
		C26.43,24.915,26.433,24.92,26.441,24.921z"/>
	<polygon points="25.887,24.622 25.887,24.622 25.886,24.622 	"/>
	<path d="M23.04,26.189c-0.006,0-0.017,0.005-0.022,0.012c0.007,0,0.018,0.004,0.031,0.002C23.047,26.199,23.047,26.19,23.04,26.189
		z"/>
	<path d="M22.729,26.485c0.006-0.013,0.009,0.028,0.031-0.032c-0.007-0.008-0.007,0.002-0.012,0.014
		C22.738,26.469,22.732,26.475,22.729,26.485z"/>
	<path d="M22.996,26.283c-0.002,0.004-0.008,0.057,0.006,0.027C23.004,26.305,23,26.276,22.996,26.283z"/>
	<path d="M23.067,26.529c0.02,0.001,0.031-0.007,0.033-0.025C23.097,26.508,23.047,26.523,23.067,26.529z"/>
	<path d="M25.92,24.627c-0.002,0-0.002,0-0.004,0c0.01,0.007,0.043,0.003,0.062,0.002c-0.015,0.002-0.042,0.006-0.042,0.006
		c0,0.007,0.047,0.006,0.053,0.007c-0.016,0.001-0.029,0-0.044,0c0.002,0.034,0.097,0.001,0.126-0.006
		c0.004,0.002,0.01,0.006,0.014,0.007c0,0.004-0.008,0.002-0.008,0.007c0.008,0.001,0.024,0.001,0.034,0.002
		c-0.002,0.001-0.001,0.003,0,0.005c0.019-0.001,0.027-0.006,0.048-0.007c-0.021-0.012-0.05-0.015-0.072-0.018
		c0.002,0,0.006,0,0.008,0c-0.006-0.002-0.012-0.004-0.018-0.007c0.041,0.004,0.115-0.008,0.131-0.01
		c-0.043-0.022-0.117-0.012-0.166-0.012c0.002,0,0.002,0.001,0.004,0.002c-0.004,0-0.008,0-0.012,0v0.001
		c-0.007,0-0.016-0.001-0.022-0.001c0.004,0.009,0.028,0.007,0.034,0.007c0.002,0,0.031,0.002,0.035,0.002
		c-0.012,0-0.021,0.001-0.033,0c0.002,0.002,0.004,0.004,0.008,0.005c-0.018-0.003-0.035-0.005-0.047-0.003
		c0-0.002,0.002-0.003,0.002-0.004c-0.002-0.001-0.059-0.017-0.031,0.007c-0.005-0.001-0.048-0.007-0.035-0.004
		c-0.004-0.001-0.011-0.002-0.018-0.004c0.002,0,0.005-0.001,0.008-0.002c-0.018-0.004-0.033-0.003-0.049,0.002
		c0.006,0.003,0.013,0.005,0.02,0.006C25.901,24.624,25.91,24.625,25.92,24.627z"/>
	<path d="M23.604,25.008c0.015-0.002,0.046-0.013,0.06-0.019c-0.019-0.005-0.036,0.004-0.053,0.012
		C23.608,25.003,23.606,25.006,23.604,25.008z"/>
	<path d="M23.788,24.71c-0.034,0.004,0.021,0.001,0.038,0C23.84,24.691,23.77,24.696,23.788,24.71z"/>
	<path d="M24.069,25.319c-0.019-0.01-0.033-0.026-0.072-0.02C24.016,25.312,24.046,25.335,24.069,25.319z"/>
	<path d="M24.065,24.746c0.004-0.002,0.009-0.003,0.014-0.003c-0.002-0.014-0.215,0.005-0.201,0
		c-0.005-0.002-0.029,0.002-0.022-0.004c0.009,0,0.019-0.001,0.028-0.001c-0.004-0.011-0.114-0.012-0.125-0.005
		c0.012,0.004,0.023,0.007,0.035,0.007c0.014-0.008,0.022-0.005,0.025,0.009c-0.046,0.008,0.041,0.01,0.054,0.009
		c0.047-0.027,0.147,0.021,0.201-0.012C24.076,24.746,24.07,24.746,24.065,24.746z"/>
	<path d="M23.948,25.398c-0.005,0.009,0.049,0.04,0.063,0.01c-0.023,0.007-0.041,0.002-0.055-0.016
		C23.954,25.395,23.95,25.396,23.948,25.398z"/>
	<polygon points="23.889,24.704 23.895,24.703 23.891,24.703 	"/>
	<path d="M24.037,24.784c0.019-0.001,0.057,0,0.075-0.008c-0.023-0.005-0.075-0.02-0.097-0.003
		C24.006,24.776,24.035,24.784,24.037,24.784z"/>
	<path d="M24.245,24.673c0-0.003-0.006-0.003-0.012-0.004c0.011,0,0.018,0,0.021-0.004c-0.005,0-0.01,0-0.016,0
		c0.06-0.015,0.125-0.013,0.186-0.03c-0.011,0-0.03,0.001-0.034,0c0.006-0.001,0.074,0,0.077-0.008
		c0.005-0.01-0.109,0.007-0.066-0.004c-0.083-0.03-0.318-0.009-0.401,0.022c0.015,0,0.03-0.001,0.045-0.002
		c-0.009,0.001-0.014,0.002-0.024,0.004c0.018,0.003,0.034-0.004,0.052-0.003c-0.019,0.002-0.034,0.002-0.05,0.007
		c0.01,0,0.02,0,0.03-0.001c-0.007,0.001-0.014,0.002-0.021,0.003c0.003,0.005,0.018,0.006,0.036,0.006
		c0.01,0.003,0.006,0.005-0.011,0.005c0.007,0.001,0.026,0.008,0.024,0.009c-0.038,0.026-0.043-0.003-0.066,0.01
		c0.011-0.006,0.01-0.008-0.002-0.008c-0.016,0.008-0.062-0.011-0.084-0.011c-0.005,0.002,0.006,0.002,0.012,0.003
		c-0.013,0-0.027,0.001-0.04,0.003c0.001,0.002,0.003,0.002,0.005,0.003c-0.01,0-0.021-0.001-0.029,0.003
		c0.006,0.003,0.014,0.004,0.021,0.004c-0.011,0-0.023,0-0.035,0c-0.01,0.007,0.003,0.007,0.026,0.006
		c-0.001,0.001-0.003,0.001-0.005,0.001c0.019,0,0.048,0.002,0.057,0.003c-0.021,0-0.04,0.002-0.06,0.006
		c0.003,0.004,0.007,0.006,0.012,0.006c0.003,0,0.006,0,0.009-0.001c-0.001,0-0.004,0-0.005,0.001
		c0.016-0.004,0.061-0.001,0.076-0.001c0.001-0.002-0.001-0.002-0.001-0.004c0.019-0.004,0.05-0.007,0.068,0.007
		c-0.011,0.001-0.097-0.009-0.059,0.008c-0.014,0.001-0.028,0.003-0.042,0.007c0.068-0.007,0.175,0.032,0.22-0.012
		c0.003-0.002-0.017-0.001-0.024,0c0.011-0.01,0.036-0.005,0.041-0.018C24.203,24.686,24.216,24.678,24.245,24.673z"/>
	<path d="M23.42,24.749c0.007,0.001,0.014-0.001,0.02-0.005c-0.007,0.001-0.014,0.001-0.021,0.001
		C23.416,24.748,23.417,24.749,23.42,24.749z"/>
	<path d="M27.59,26.916c-0.098,0.018-0.135,0.045-0.161-0.072c-0.019-0.082-0.158-0.137-0.177-0.225
		c-0.015-0.064-0.03-0.088-0.073-0.136c-0.04-0.045-0.026-0.123-0.058-0.178c-0.029-0.048-0.035-0.099-0.061-0.147
		c-0.038-0.074-0.117-0.173-0.122-0.256c0.026,0.027,0.054,0.104,0.084,0.107c0.019-0.082,0.021-0.102-0.01-0.18
		c-0.054,0.014-0.099-0.019-0.149,0c-0.068,0.025-0.121,0.018-0.189-0.008c-0.047-0.017-0.242-0.131-0.239,0.002
		c0.003,0.152-0.179-0.047-0.228-0.062s-0.135,0.013-0.133-0.074c0-0.049,0.018-0.087,0.021-0.131
		c-0.014,0.014-0.027,0.013-0.04-0.004c-0.022-0.034-0.054,0.011-0.078,0.012c-0.052,0.002-0.097,0.001-0.147,0.002
		c-0.076,0.003-0.156,0.043-0.221,0.08c-0.08,0.047-0.151-0.021-0.197,0.04c0.001,0,0.002,0,0.003,0
		c-0.041,0.054-0.087,0.101-0.126,0.155c-0.027,0.037-0.018,0.086-0.031,0.127c-0.013,0.041-0.057,0.078-0.095,0.092
		c-0.068,0.025-0.095,0.104-0.124,0.165c-0.023,0.05-0.042,0.097-0.068,0.146c-0.036,0.062,0.013,0.162,0.01,0.229
		c-0.001,0.048-0.02,0.104-0.045,0.146c-0.025,0.039,0.007,0.088,0.006,0.139c-0.001,0-0.002,0-0.004,0
		c0.026,0.043,0.058,0.08,0.091,0.117c0.059,0.065,0.071,0.152,0.134,0.215c0.047,0.048,0.104,0.123,0.179,0.098
		c0.034-0.012,0.062-0.034,0.101-0.035c0.031-0.001,0.056,0.027,0.088,0.025c0.073-0.002,0.145-0.104,0.234-0.105
		c0.064-0.002,0.059,0.109,0.115,0.108c0.182-0.003,0.16,0.126,0.113,0.252c-0.029,0.081,0.051,0.157,0.096,0.214
		s0.05,0.143,0.068,0.212c0.018,0.063,0.049,0.167,0.032,0.233c-0.015,0.066-0.071,0.115-0.083,0.184
		c-0.018,0.098,0.02,0.191,0.062,0.275c0.041,0.082,0.043,0.115,0.053,0.205c0.021,0.191,0.168,0.33,0.166,0.516
		c0.02-0.012,0.078,0.025,0.13-0.001c0.056-0.028,0.103-0.017,0.157-0.021c0.005-0.023,0.109-0.062,0.13-0.09
		c0.05-0.068,0.08-0.146,0.134-0.209c0.059-0.07-0.007-0.121,0.062-0.18c0.064-0.055,0.086-0.033,0.09-0.139
		c0.002-0.045-0.084-0.156,0.009-0.176c0.011-0.065,0.077-0.094,0.128-0.125c0.145-0.09,0.033-0.217,0.092-0.342
		c0.021-0.047-0.048-0.1-0.048-0.15c0.001-0.047-0.011-0.094-0.01-0.143c0-0.048,0.04-0.072,0.049-0.115
		c0.036-0.168,0.179-0.213,0.267-0.342c0.076-0.111,0.226-0.373,0.168-0.508C27.695,26.875,27.645,26.903,27.59,26.916z"/>
	<path d="M24.96,24.769c-0.004,0-0.007-0.002-0.006-0.005c0.015,0,0.032-0.004,0.039-0.009c-0.011,0.001-0.02-0.001-0.029-0.006
		c0.004-0.011,0.024,0.003,0.029-0.012c0.006-0.016-0.031-0.014-0.029-0.018c0.008-0.019,0.067,0.008,0.075-0.012
		c-0.009-0.005-0.019-0.008-0.03-0.009c0.004,0,0.011-0.001,0.015-0.002c-0.018-0.004-0.035-0.005-0.052-0.003
		c0.02-0.011,0.133-0.036,0.141-0.051c0.031-0.001,0.09-0.005,0.098-0.019c0.003-0.004-0.275,0.03-0.292,0.032
		c0.004-0.003,0.061-0.021,0.062-0.023c0.001-0.001-0.011-0.001-0.027,0.001c0.02-0.003,0.037-0.009,0.047-0.018
		c-0.147-0.003-0.306-0.012-0.45,0.021c0.001,0.001,0.005,0.001,0.008,0.002c-0.007,0-0.015,0.001-0.022,0.004
		c0.007,0.005,0.015,0.007,0.024,0.006c-0.012,0.001-0.07-0.011-0.077,0c-0.001,0.002,0,0.003,0.001,0.004
		c-0.011-0.004-0.027-0.007-0.033,0.003c-0.021,0.001-0.166,0.007-0.181,0.037c0.009,0.003,0.018,0.004,0.027,0.003
		c-0.016,0.029-0.082,0.003-0.094,0.03c-0.004,0.009,0.059,0.004,0.065,0.004c-0.013,0.015-0.048-0.001-0.059,0.015
		c0.009-0.002,0.018-0.001,0.026,0.003c-0.002,0.002-0.005,0.002-0.009,0.004c0.009,0.005,0.018,0.006,0.027,0.004
		c-0.001,0-0.002-0.001-0.003-0.002c0.028-0.007,0.133-0.007,0.113,0.042c0.013,0.003,0.012,0.008-0.001,0.015
		c0.012-0.001,0.043,0.017,0.047,0.018c-0.009,0.014-0.027-0.003-0.041,0c-0.001,0.009,0.032,0.01,0.045,0.013
		c-0.015,0.017-0.053,0.022-0.06,0.045c0.003-0.001,0.006-0.001,0.009,0c-0.019,0.025,0.013,0.029,0.021,0.039
		c-0.04,0.021,0.069,0.071,0.084,0.073C24.492,25,24.545,24.91,24.589,24.9c0,0.002-0.001,0.004-0.002,0.007
		c0.048,0.001,0.073-0.026,0.115-0.038c0.064,0.001,0.132-0.01,0.193-0.031c-0.015-0.002-0.08-0.001-0.076-0.013
		c0.021-0.002,0.009-0.002,0.013-0.013c0.009,0.003,0.08,0.029,0.084,0.014c0.007-0.023-0.051-0.033-0.062-0.039
		c0.007-0.021,0.049,0.035,0.061,0c-0.011-0.006-0.023-0.012-0.036-0.015C24.906,24.773,24.94,24.791,24.96,24.769z"/>
	<path d="M24.081,25.404c0.002-0.004-0.003-0.006-0.004-0.01c-0.018,0.007-0.032,0.018-0.044,0.032
		c-0.006,0.012,0.043,0.01,0.052-0.008C24.056,25.418,24.076,25.416,24.081,25.404z"/>
	<path d="M24.231,25.36c-0.005,0-0.012,0.001-0.015,0.003c0.005-0.014,0.01-0.021,0.014-0.03c-0.008,0.003-0.024,0.002-0.037,0
		c-0.005,0.001-0.011,0.002-0.017,0.003c0,0,0.002-0.003,0.002-0.004c-0.007,0-0.015,0-0.022,0c0.001-0.006,0.005-0.011,0.012-0.012
		c-0.014-0.007-0.026-0.006-0.039,0.002c0.001-0.002,0.068-0.058,0.051-0.058c-0.055,0-0.095,0.078-0.147,0.094
		c0,0.003,0.004,0.005,0.008,0.005c-0.006,0.013-0.026,0.009-0.033,0.022c-0.001,0.001,0.13,0.011,0.145,0.011
		c-0.008,0.003-0.015,0.008-0.021,0.015c-0.002,0.005,0.057-0.025,0.056-0.025c0.025,0.026,0.022,0.063,0.048-0.003
		c-0.009,0.004-0.006,0.005-0.019,0.005C24.224,25.371,24.222,25.38,24.231,25.36z"/>
	<path d="M24.963,24.875c0.079,0.007,0.122,0.041,0.206,0.004c0.006-0.011-0.028-0.028-0.004-0.034c-0.011-0.001-0.098-0.01-0.1,0
		c-0.012-0.007-0.027,0.003-0.035-0.008c-0.009,0.004-0.035,0.014-0.023-0.011c-0.012-0.001-0.03,0.004-0.041,0.006
		c-0.002,0.004,0.032,0.021,0.031,0.019c-0.01,0.001-0.031,0.002-0.043,0.001c0.004,0.006,0.021,0.002,0.031,0.005
		c-0.005,0.006-0.01,0.009-0.014,0.016C24.971,24.874,24.966,24.875,24.963,24.875z"/>
	<path d="M23.6,24.793c-0.021,0.014-0.039,0-0.057,0.012c0.025,0.035,0.092,0.012,0.118-0.004c-0.003,0-0.012,0-0.014-0.001
		c0.019-0.013-0.007-0.004-0.017-0.004c0.014-0.002,0.027-0.007,0.04-0.012C23.665,24.788,23.545,24.792,23.6,24.793z"/>
	<path d="M23.721,24.759c0.001,0,0.083,0.002,0.061-0.009c-0.016-0.004-0.031-0.003-0.045,0.005
		C23.734,24.754,23.725,24.756,23.721,24.759z"/>
	<path d="M23.583,24.757c-0.011,0.002-0.021,0.003-0.031,0.009c0.006,0,0.006,0,0.013,0C23.576,24.769,23.582,24.765,23.583,24.757z
		"/>
	<path d="M23.527,24.866c-0.047,0.007,0.044,0.007,0.057,0.004C23.601,24.836,23.509,24.87,23.527,24.866z"/>
	<path d="M23.666,24.737c-0.003,0.004,0.006,0.003,0.017,0.003c-0.016,0.009-0.028-0.003-0.042,0.005
		c0,0.001,0.002,0.002,0.004,0.003c0.013,0,0.025-0.001,0.034,0.002c-0.009,0.002-0.028,0.004-0.038,0.011
		c0.015-0.009,0.089,0.014,0.088-0.024C23.729,24.737,23.67,24.736,23.666,24.737z"/>
	<polygon points="23.646,24.75 23.646,24.749 23.645,24.749 	"/>
	<path d="M23.604,24.743l-0.008,0.005c0.002,0.001,0.004,0.002,0.012,0.001c-0.001,0.001-0.002,0.002-0.002,0.003
		c0.009-0.001,0.025-0.003,0.039-0.004C23.636,24.747,23.604,24.734,23.604,24.743C23.604,24.744,23.604,24.744,23.604,24.743z"/>
	<path d="M25,17.259c1.799,0,3.525,0.768,4.733,2.104l0.742-0.671c-1.396-1.546-3.393-2.433-5.476-2.434
		c-2.083,0-4.078,0.887-5.475,2.434l0.742,0.67C21.475,18.026,23.2,17.259,25,17.259z"/>
	<path d="M29.082,19.952c-1.043-1.153-2.529-1.814-4.083-1.814c-1.552,0-3.041,0.661-4.083,1.814l0.742,0.671
		c0.853-0.944,2.071-1.485,3.341-1.485c1.271,0,2.488,0.541,3.34,1.484L29.082,19.952z"/>
	<path d="M22.401,21.292l0.742,0.671c0.946-1.049,2.765-1.049,3.711,0l0.742-0.671c-0.663-0.733-1.609-1.154-2.598-1.154
		C24.009,20.137,23.064,20.558,22.401,21.292z"/>
</g>
</svg>
