<?xml version="1.0" encoding="utf-8"?>
<!-- Generator: Adobe Illustrator 16.0.4, SVG Export Plug-In . SVG Version: 6.00 Build 0)  -->
<!DOCTYPE svg PUBLIC "-//W3C//DTD SVG 1.1//EN" "http://www.w3.org/Graphics/SVG/1.1/DTD/svg11.dtd">
<svg version="1.1" id="Layer_1" xmlns="http://www.w3.org/2000/svg" xmlns:xlink="http://www.w3.org/1999/xlink" x="0px" y="0px"
	 width="50px" height="50px" viewBox="0 0 50 50" enable-background="new 0 0 50 50" xml:space="preserve">
<g>
	<polygon points="28,31.073 22,31.073 20,33.073 30,33.073 	"/>
	<path d="M15,16.927v13h4.089v-0.594c0.158-0.147,0.345-0.267,0.544-0.374c0.34-0.182,0.676-0.368,1.021-0.534
		c0.336-0.159,0.684-0.298,1.027-0.442c0.323-0.137,0.652-0.266,0.973-0.404c0.056-0.025,0.111-0.084,0.135-0.141
		c0.07-0.18,0.133-0.364,0.188-0.551c0.045-0.141,0.072-0.281,0.254-0.316c0.043-0.01,0.101-0.088,0.107-0.141
		c0.037-0.271,0.062-0.543,0.083-0.814c0.004-0.059-0.024-0.131-0.063-0.176c-0.239-0.267-0.369-0.574-0.426-0.927
		c-0.027-0.177-0.127-0.341-0.178-0.516c-0.066-0.234-0.125-0.471-0.176-0.708c-0.021-0.086-0.012-0.179-0.021-0.265
		c-0.021-0.128-0.019-0.227,0.135-0.277c0.043-0.013,0.078-0.115,0.078-0.177c0.01-0.379,0.002-0.759,0.006-1.139
		c0.002-0.233,0-0.467,0.018-0.698c0.032-0.445,0.293-0.759,0.621-1.028c0.479-0.394,1.05-0.579,1.637-0.717
		c0.311-0.073,0.625-0.118,0.938-0.168c0.086-0.013,0.17-0.001,0.258-0.001c0.014,0.021,0.027,0.042,0.043,0.063
		c-0.066,0.048-0.139,0.089-0.197,0.145c-0.127,0.128-0.113,0.217,0.023,0.333c0.283,0.24,0.566,0.48,0.842,0.729
		c0.244,0.218,0.338,0.504,0.338,0.826c0.002,0.552,0.002,1.104,0.002,1.656c-0.002,0.113-0.01,0.225,0.131,0.276
		c0.029,0.009,0.061,0.071,0.061,0.107c-0.023,0.283-0.055,0.565-0.084,0.847c-0.002,0.011-0.004,0.024-0.01,0.032
		c-0.254,0.371-0.287,0.825-0.469,1.224c-0.01,0.015-0.012,0.033-0.023,0.045c-0.334,0.397-0.229,0.874-0.236,1.331
		c-0.002,0.045,0.031,0.118,0.068,0.135c0.139,0.06,0.172,0.178,0.211,0.303c0.059,0.195,0.119,0.395,0.203,0.581
		c0.031,0.069,0.123,0.128,0.201,0.157c1.033,0.396,2.061,0.817,3.049,1.326c0.199,0.102,0.369,0.227,0.514,0.375v0.619H35v-13
		L15,16.927L15,16.927z"/>
</g>
</svg>
