<?xml version="1.0" encoding="utf-8"?>
<!-- Generator: Adobe Illustrator 16.0.4, SVG Export Plug-In . SVG Version: 6.00 Build 0)  -->
<!DOCTYPE svg PUBLIC "-//W3C//DTD SVG 1.1//EN" "http://www.w3.org/Graphics/SVG/1.1/DTD/svg11.dtd">
<svg version="1.1" id="Layer_1" xmlns="http://www.w3.org/2000/svg" xmlns:xlink="http://www.w3.org/1999/xlink" x="0px" y="0px"
	 width="50px" height="50px" viewBox="0 0 50 50" enable-background="new 0 0 50 50" xml:space="preserve">
<g>
	<g>
		<polygon points="20.375,32.698 18.375,34.698 28.375,34.698 26.375,32.698 		"/>
	</g>
	<g>
		<path d="M31.375,15.302c-2.188,0-4.062,1.345-4.85,3.25h-13.15v13h20v-6.15c1.904-0.788,3.25-2.663,3.25-4.85
			C36.625,17.657,34.27,15.302,31.375,15.302z M31.375,25.302c-2.619,0-4.75-2.131-4.75-4.75c0-2.619,2.131-4.75,4.75-4.75
			s4.75,2.131,4.75,4.75C36.125,23.171,33.994,25.302,31.375,25.302z"/>
	</g>
	<g>
		<polygon points="35.389,19.672 32.252,19.671 32.252,16.536 30.497,16.537 30.498,19.674 27.359,19.673 27.359,21.428 
			30.496,21.426 30.496,24.565 32.254,24.566 32.253,21.429 35.391,21.43 		"/>
	</g>
</g>
</svg>
