<?xml version="1.0" encoding="utf-8"?>
<!-- Generator: Adobe Illustrator 16.0.4, SVG Export Plug-In . SVG Version: 6.00 Build 0)  -->
<!DOCTYPE svg PUBLIC "-//W3C//DTD SVG 1.1//EN" "http://www.w3.org/Graphics/SVG/1.1/DTD/svg11.dtd">
<svg version="1.1" id="Layer_1" xmlns="http://www.w3.org/2000/svg" xmlns:xlink="http://www.w3.org/1999/xlink" x="0px" y="0px"
	 width="50px" height="50px" viewBox="0 0 50 50" enable-background="new 0 0 50 50" xml:space="preserve">
<g>
	<polygon points="31,19.005 30.991,19 19.009,19 19,19.005 19,30.994 19.009,31 30.991,31 31,30.994 	"/>
	<g>
		<path d="M32.716,21.116h2.146c0.396,0,0.717-0.321,0.717-0.715s-0.32-0.716-0.717-0.716h-2.146C32.32,19.685,32,20.005,32,20.4
			S32.32,21.116,32.716,21.116z"/>
		<path d="M34.861,22.75h-2.146C32.32,22.75,32,23.072,32,23.466s0.32,0.716,0.716,0.716h2.146c0.396,0,0.717-0.321,0.717-0.716
			S35.258,22.75,34.861,22.75z"/>
		<path d="M34.861,25.817h-2.146c-0.396,0-0.716,0.321-0.716,0.716c0,0.396,0.32,0.717,0.716,0.717h2.146
			c0.396,0,0.717-0.321,0.717-0.717C35.578,26.139,35.258,25.817,34.861,25.817z"/>
		<path d="M34.861,28.885h-2.146C32.32,28.885,32,29.205,32,29.6s0.32,0.716,0.716,0.716h2.146c0.396,0,0.717-0.321,0.717-0.716
			S35.258,28.885,34.861,28.885z"/>
	</g>
	<g>
		<path d="M21.115,17.285v-2.146c0-0.396-0.32-0.716-0.715-0.716c-0.396,0-0.717,0.32-0.717,0.716v2.146
			c0,0.396,0.321,0.716,0.717,0.716C20.795,18,21.115,17.68,21.115,17.285z"/>
		<path d="M22.751,15.138v2.146c0,0.396,0.321,0.716,0.716,0.716s0.715-0.32,0.715-0.716v-2.146c0-0.396-0.32-0.716-0.715-0.716
			S22.751,14.743,22.751,15.138z"/>
		<path d="M25.818,15.138v2.146c0,0.396,0.32,0.716,0.715,0.716s0.717-0.32,0.717-0.716v-2.146c0-0.396-0.322-0.716-0.717-0.716
			S25.818,14.743,25.818,15.138z"/>
		<path d="M28.885,15.138v2.146c0,0.396,0.32,0.716,0.715,0.716c0.396,0,0.717-0.32,0.717-0.716v-2.146
			c0-0.396-0.321-0.716-0.717-0.716C29.205,14.421,28.885,14.743,28.885,15.138z"/>
	</g>
	<g>
		<path d="M21.115,34.863v-2.146c0-0.396-0.32-0.717-0.715-0.717c-0.396,0-0.717,0.32-0.717,0.717v2.146
			c0,0.396,0.321,0.715,0.717,0.715C20.795,35.578,21.115,35.258,21.115,34.863z"/>
		<path d="M22.751,32.716v2.146c0,0.396,0.321,0.717,0.716,0.717s0.715-0.32,0.715-0.717v-2.146c0-0.396-0.32-0.716-0.715-0.716
			S22.751,32.32,22.751,32.716z"/>
		<path d="M25.818,32.716v2.146c0,0.396,0.32,0.717,0.715,0.717s0.717-0.32,0.717-0.717v-2.146c0-0.396-0.322-0.716-0.717-0.716
			S25.818,32.32,25.818,32.716z"/>
		<path d="M28.885,32.716v2.146c0,0.396,0.32,0.717,0.715,0.717c0.396,0,0.717-0.32,0.717-0.717v-2.146
			C30.316,32.32,29.995,32,29.6,32C29.205,32,28.885,32.32,28.885,32.716z"/>
	</g>
	<g>
		<path d="M15.139,21.116h2.146C17.68,21.116,18,20.794,18,20.4s-0.32-0.716-0.716-0.716h-2.146c-0.396,0-0.717,0.321-0.717,0.716
			S14.742,21.116,15.139,21.116z"/>
		<path d="M17.284,22.75h-2.146c-0.396,0-0.717,0.321-0.717,0.715s0.32,0.716,0.717,0.716h2.146c0.396,0,0.716-0.321,0.716-0.716
			S17.68,22.75,17.284,22.75z"/>
		<path d="M17.284,25.817h-2.146c-0.396,0-0.717,0.321-0.717,0.716c0,0.396,0.32,0.717,0.717,0.717h2.146
			c0.396,0,0.716-0.321,0.716-0.717C18,26.139,17.68,25.817,17.284,25.817z"/>
		<path d="M17.284,28.885h-2.146c-0.396,0-0.717,0.32-0.717,0.715s0.32,0.716,0.717,0.716h2.146C17.68,30.315,18,29.994,18,29.6
			S17.68,28.885,17.284,28.885z"/>
	</g>
</g>
</svg>
