<?xml version="1.0" encoding="utf-8"?>
<!-- Generator: Adobe Illustrator 16.0.4, SVG Export Plug-In . SVG Version: 6.00 Build 0)  -->
<!DOCTYPE svg PUBLIC "-//W3C//DTD SVG 1.1//EN" "http://www.w3.org/Graphics/SVG/1.1/DTD/svg11.dtd">
<svg version="1.1" id="Layer_1" xmlns="http://www.w3.org/2000/svg" xmlns:xlink="http://www.w3.org/1999/xlink" x="0px" y="0px"
	 width="50px" height="50px" viewBox="0 0 50 50" enable-background="new 0 0 50 50" xml:space="preserve">
<g>
	<polygon points="23.383,22.69 22.305,23.77 27.695,23.77 26.617,22.69 	"/>
	<polygon points="12.598,33.858 11.52,34.937 16.912,34.937 15.834,33.858 	"/>
	<polygon points="34.166,33.858 33.088,34.937 38.48,34.937 37.402,33.858 	"/>
	<path d="M18.268,20.839c0.129,0,0.256-0.048,0.354-0.146l0.109-0.109c0.195-0.195,0.195-0.512,0.002-0.707
		c-0.195-0.196-0.513-0.196-0.707-0.002l-0.109,0.109c-0.196,0.195-0.196,0.512-0.002,0.707
		C18.011,20.791,18.14,20.839,18.268,20.839z"/>
	<path d="M14.702,24.406c0.128,0,0.256-0.049,0.354-0.147l0.202-0.203c0.195-0.195,0.195-0.512,0-0.707
		c-0.195-0.194-0.512-0.195-0.707,0.001l-0.202,0.203c-0.194,0.195-0.194,0.512,0,0.707C14.446,24.356,14.574,24.406,14.702,24.406z
		"/>
	<path d="M15.891,23.216c0.128,0,0.257-0.049,0.354-0.147l0.202-0.203c0.194-0.195,0.194-0.512,0-0.707
		c-0.195-0.194-0.513-0.195-0.707,0.001l-0.202,0.203c-0.195,0.195-0.195,0.512,0,0.707C15.635,23.167,15.763,23.216,15.891,23.216z
		"/>
	<path d="M17.079,22.027c0.128,0,0.256-0.049,0.354-0.146l0.202-0.202c0.195-0.195,0.195-0.512,0-0.707
		c-0.194-0.195-0.512-0.195-0.707,0l-0.202,0.202c-0.194,0.195-0.194,0.512,0,0.707C16.823,21.979,16.951,22.027,17.079,22.027z"/>
	<path d="M13.607,25.5c0.128,0,0.255-0.048,0.353-0.146l0.109-0.109c0.195-0.195,0.195-0.512,0.002-0.707
		c-0.195-0.196-0.513-0.196-0.707-0.002l-0.109,0.109c-0.196,0.195-0.196,0.512-0.002,0.707C13.351,25.451,13.479,25.5,13.607,25.5z
		"/>
	<path d="M31.38,20.693c0.098,0.097,0.226,0.146,0.354,0.146s0.257-0.049,0.354-0.147c0.194-0.195,0.194-0.512-0.002-0.707
		l-0.109-0.109c-0.194-0.194-0.512-0.194-0.707,0.002c-0.193,0.195-0.193,0.512,0.003,0.707L31.38,20.693z"/>
	<path d="M33.554,22.868l0.202,0.203c0.098,0.098,0.227,0.147,0.354,0.147s0.256-0.049,0.354-0.146c0.195-0.195,0.195-0.512,0-0.707
		l-0.202-0.203c-0.194-0.196-0.512-0.195-0.707-0.001C33.358,22.354,33.358,22.671,33.554,22.868z"/>
	<path d="M32.365,21.68l0.202,0.202c0.098,0.098,0.226,0.146,0.354,0.146s0.256-0.049,0.354-0.146c0.194-0.195,0.194-0.512,0-0.707
		l-0.202-0.202c-0.195-0.195-0.513-0.195-0.707,0C32.171,21.167,32.17,21.483,32.365,21.68z"/>
	<path d="M34.742,24.056l0.202,0.203c0.098,0.098,0.226,0.147,0.354,0.147s0.256-0.049,0.354-0.146c0.194-0.195,0.194-0.512,0-0.707
		L35.45,23.35c-0.195-0.196-0.512-0.195-0.707-0.001C34.547,23.543,34.547,23.86,34.742,24.056z"/>
	<path d="M35.931,25.246l0.109,0.109c0.098,0.097,0.225,0.146,0.353,0.146c0.129,0,0.258-0.048,0.354-0.146
		c0.194-0.195,0.194-0.512-0.002-0.707l-0.109-0.109c-0.194-0.194-0.512-0.194-0.707,0.002
		C35.734,24.733,35.734,25.05,35.931,25.246z"/>
	<path d="M30.393,22.073v-7.009H19.608v7.009h2.511v-0.29c0.078-0.073,0.169-0.13,0.266-0.182c0.165-0.089,0.328-0.18,0.498-0.261
		c0.163-0.078,0.333-0.145,0.501-0.216c0.158-0.066,0.318-0.129,0.475-0.197c0.025-0.012,0.055-0.041,0.064-0.068
		c0.035-0.088,0.065-0.178,0.092-0.269c0.021-0.068,0.035-0.137,0.124-0.155c0.021-0.005,0.049-0.043,0.054-0.069
		c0.019-0.132,0.029-0.264,0.041-0.396c0.001-0.029-0.014-0.063-0.032-0.086c-0.117-0.13-0.181-0.28-0.207-0.452
		c-0.015-0.087-0.062-0.167-0.087-0.252c-0.032-0.114-0.062-0.229-0.086-0.345c-0.012-0.042-0.005-0.087-0.012-0.129
		c-0.011-0.062-0.008-0.111,0.065-0.135c0.021-0.006,0.039-0.056,0.039-0.086c0.004-0.185,0.001-0.37,0.003-0.555
		c0.001-0.113,0-0.228,0.008-0.34c0.017-0.217,0.144-0.37,0.303-0.501c0.233-0.192,0.514-0.282,0.799-0.35
		c0.15-0.036,0.305-0.057,0.458-0.082c0.041-0.007,0.082,0,0.125,0c0.007,0.01,0.014,0.021,0.021,0.031
		c-0.032,0.023-0.068,0.043-0.096,0.07c-0.063,0.063-0.058,0.106,0.01,0.163c0.14,0.117,0.276,0.234,0.411,0.355
		c0.119,0.106,0.165,0.245,0.165,0.402c0.001,0.27,0.001,0.539,0.001,0.807c-0.001,0.056-0.005,0.11,0.062,0.135
		c0.016,0.004,0.029,0.035,0.029,0.052c-0.012,0.138-0.026,0.275-0.042,0.413c0,0.005-0.001,0.012-0.004,0.016
		c-0.124,0.181-0.14,0.402-0.228,0.597c-0.006,0.007-0.007,0.016-0.013,0.021c-0.164,0.194-0.111,0.426-0.116,0.648
		c0,0.022,0.018,0.058,0.034,0.066c0.067,0.029,0.084,0.086,0.104,0.148c0.028,0.095,0.058,0.192,0.099,0.283
		c0.016,0.033,0.061,0.062,0.098,0.076c0.506,0.194,1.006,0.399,1.487,0.646c0.097,0.05,0.18,0.11,0.25,0.183v0.302h2.511V22.073z"
		/>
	<path d="M8.824,33.24h2.51v-0.291c0.078-0.072,0.169-0.13,0.266-0.182c0.165-0.089,0.328-0.18,0.498-0.262
		c0.163-0.077,0.333-0.145,0.501-0.215c0.158-0.066,0.318-0.129,0.475-0.197c0.025-0.012,0.055-0.041,0.064-0.068
		c0.035-0.088,0.065-0.178,0.093-0.27c0.021-0.067,0.034-0.137,0.123-0.154c0.021-0.005,0.05-0.043,0.054-0.068
		c0.019-0.133,0.03-0.265,0.041-0.396c0.001-0.029-0.014-0.064-0.032-0.086c-0.117-0.131-0.18-0.28-0.207-0.452
		c-0.014-0.087-0.062-0.167-0.087-0.252c-0.032-0.114-0.062-0.229-0.086-0.345c-0.011-0.043-0.005-0.088-0.011-0.129
		c-0.012-0.062-0.009-0.111,0.064-0.135c0.021-0.007,0.039-0.057,0.039-0.087c0.004-0.185,0.001-0.37,0.003-0.555
		c0.001-0.113,0-0.228,0.008-0.341c0.017-0.217,0.144-0.369,0.304-0.5c0.232-0.192,0.513-0.282,0.798-0.35
		c0.15-0.037,0.305-0.058,0.458-0.082c0.041-0.008,0.082,0,0.125,0c0.007,0.01,0.014,0.021,0.021,0.03
		c-0.032,0.022-0.067,0.043-0.096,0.069c-0.063,0.064-0.057,0.107,0.01,0.164c0.141,0.117,0.276,0.234,0.411,0.354
		c0.119,0.106,0.165,0.245,0.165,0.402c0.001,0.269,0.001,0.538,0.001,0.807c-0.001,0.056-0.005,0.11,0.063,0.136
		c0.015,0.004,0.028,0.035,0.028,0.051c-0.012,0.139-0.025,0.275-0.042,0.414c0,0.004-0.001,0.012-0.004,0.016
		c-0.124,0.182-0.14,0.402-0.228,0.598c-0.005,0.006-0.006,0.016-0.013,0.02c-0.163,0.195-0.111,0.427-0.115,0.648
		c0,0.022,0.017,0.059,0.033,0.066c0.067,0.029,0.085,0.086,0.104,0.148c0.029,0.094,0.058,0.191,0.099,0.283
		c0.017,0.032,0.061,0.061,0.099,0.075c0.505,0.194,1.005,0.399,1.486,0.646c0.098,0.051,0.181,0.111,0.25,0.184v0.303h2.511v-7.01
		H8.824V33.24L8.824,33.24z"/>
	<path d="M30.393,26.23v7.01h2.511v-0.291c0.078-0.072,0.169-0.13,0.266-0.182c0.165-0.089,0.328-0.18,0.498-0.262
		c0.163-0.077,0.333-0.145,0.501-0.215c0.158-0.066,0.318-0.129,0.474-0.197c0.026-0.012,0.056-0.041,0.065-0.068
		c0.035-0.088,0.065-0.178,0.092-0.27c0.021-0.067,0.035-0.137,0.124-0.154c0.021-0.005,0.049-0.043,0.053-0.068
		c0.02-0.133,0.03-0.265,0.041-0.396c0.001-0.029-0.013-0.064-0.031-0.086c-0.117-0.131-0.181-0.28-0.207-0.452
		c-0.015-0.087-0.062-0.167-0.087-0.252c-0.032-0.114-0.062-0.229-0.086-0.345c-0.012-0.043-0.006-0.088-0.012-0.129
		c-0.011-0.062-0.008-0.111,0.065-0.135c0.021-0.007,0.039-0.057,0.039-0.087c0.004-0.185,0.001-0.37,0.003-0.555
		c0.001-0.113,0-0.228,0.008-0.341c0.016-0.217,0.143-0.369,0.303-0.5c0.233-0.192,0.514-0.282,0.798-0.35
		c0.151-0.037,0.306-0.058,0.458-0.082c0.041-0.008,0.082,0,0.125,0c0.008,0.01,0.015,0.021,0.021,0.03
		c-0.032,0.022-0.068,0.043-0.096,0.069c-0.063,0.064-0.058,0.107,0.01,0.164c0.14,0.117,0.275,0.234,0.411,0.354
		c0.119,0.106,0.165,0.245,0.165,0.402c0.001,0.269,0.001,0.538,0.001,0.807c-0.001,0.056-0.005,0.11,0.062,0.136
		c0.016,0.004,0.029,0.035,0.029,0.051c-0.012,0.139-0.026,0.275-0.042,0.414c0,0.004-0.001,0.012-0.004,0.016
		c-0.124,0.182-0.141,0.402-0.229,0.598c-0.005,0.006-0.006,0.016-0.012,0.02c-0.164,0.195-0.112,0.427-0.116,0.648
		c0,0.022,0.018,0.059,0.034,0.066c0.067,0.029,0.084,0.086,0.104,0.148c0.028,0.094,0.058,0.191,0.099,0.283
		c0.016,0.032,0.06,0.061,0.098,0.075c0.505,0.194,1.005,0.399,1.487,0.646c0.097,0.051,0.18,0.111,0.25,0.184v0.303h2.51v-7.01
		H30.393V26.23z"/>
</g>
</svg>
