<?xml version="1.0" encoding="utf-8"?>
<!-- Generator: Adobe Illustrator 16.0.4, SVG Export Plug-In . SVG Version: 6.00 Build 0)  -->
<!DOCTYPE svg PUBLIC "-//W3C//DTD SVG 1.1//EN" "http://www.w3.org/Graphics/SVG/1.1/DTD/svg11.dtd">
<svg version="1.1" id="Layer_1" xmlns="http://www.w3.org/2000/svg" xmlns:xlink="http://www.w3.org/1999/xlink" x="0px" y="0px"
	 width="50px" height="50px" viewBox="0 0 50 50" enable-background="new 0 0 50 50" xml:space="preserve">
<g>
	<g>
		<path d="M18.439,31.57h9.406c0.204,0,0.367-0.674,0.397-1.053H18.041C18.072,30.896,18.234,31.57,18.439,31.57z"/>
	</g>
	<g>
		<path d="M29.688,31.57h4.293c0.205,0,0.369-0.674,0.398-1.053h-5.09C29.318,30.896,29.482,31.57,29.688,31.57z"/>
	</g>
	<g>
		<path d="M16.359,19.946v-1.141c0-0.208-0.168-0.375-0.375-0.375h-2.045c-0.207,0-0.375,0.168-0.375,0.375
			c0,0.208,0.168,0.375,0.375,0.375h1.67v2.518h-1.67v0.585h1.67v0.73h-1.67v4.09h1.67v0.729h-1.67v0.585h1.67v2.775
			c0,0.207,0.168,0.375,0.375,0.375s0.375-0.168,0.375-0.375V30.17h20.076V19.945L16.359,19.946L16.359,19.946z M25.256,26.593
			h-7.227c-0.281,0-0.512-0.229-0.512-0.511s0.229-0.512,0.512-0.512h7.227c0.281,0,0.512,0.229,0.512,0.512
			S25.537,26.593,25.256,26.593z M25.256,24.548h-7.227c-0.281,0-0.512-0.229-0.512-0.511c0-0.283,0.229-0.512,0.512-0.512h7.227
			c0.281,0,0.512,0.229,0.512,0.512C25.768,24.319,25.537,24.548,25.256,24.548z M31.059,29.042c-2.232,0-4.043-1.81-4.043-4.042
			c0-2.232,1.811-4.042,4.043-4.042c2.231,0,4.041,1.81,4.041,4.042C35.1,27.232,33.29,29.042,31.059,29.042z"/>
	</g>
	<g>
		<path d="M33.21,22.634c-0.678,0.39-1.175,0.795-1.544,1.205c-0.169-0.089-0.359-0.144-0.564-0.151
			c0.064-0.536,0.274-1.163,0.779-1.981c-0.549,0-1.099,0-1.646,0c-0.114,0.974-0.039,1.651,0.125,2.181
			c-0.17,0.107-0.312,0.251-0.42,0.421c-0.431-0.314-0.865-0.755-1.315-1.377c-0.228,0.505-0.451,0.844-0.83,1.135
			c0.781,0.583,1.408,0.862,1.952,0.986c0.009,0.206,0.062,0.396,0.154,0.566c-0.498,0.213-1.15,0.342-2.106,0.314
			c0.457,0.582,0.866,1.006,1.112,1.433c0.677-0.39,1.174-0.794,1.542-1.204c0.17,0.089,0.36,0.145,0.565,0.15
			c-0.064,0.537-0.274,1.164-0.779,1.981c0.549,0,1.099,0,1.646,0c0.114-0.974,0.039-1.651-0.125-2.181
			c0.17-0.107,0.312-0.252,0.419-0.422c0.431,0.313,0.866,0.756,1.316,1.377c0.227-0.504,0.45-0.844,0.829-1.135
			c-0.78-0.583-1.407-0.861-1.951-0.986c-0.01-0.205-0.062-0.396-0.155-0.566c0.499-0.212,1.151-0.342,2.106-0.315
			C33.863,23.485,33.455,23.06,33.21,22.634z M31.057,25.412c-0.227,0-0.41-0.185-0.41-0.412s0.185-0.412,0.41-0.412
			c0.229,0,0.412,0.185,0.412,0.412S31.284,25.412,31.057,25.412z"/>
	</g>
</g>
</svg>
