<?xml version="1.0" encoding="utf-8"?>
<!-- Generator: Adobe Illustrator 16.0.4, SVG Export Plug-In . SVG Version: 6.00 Build 0)  -->
<!DOCTYPE svg PUBLIC "-//W3C//DTD SVG 1.1//EN" "http://www.w3.org/Graphics/SVG/1.1/DTD/svg11.dtd">
<svg version="1.1" id="Layer_1" xmlns="http://www.w3.org/2000/svg" xmlns:xlink="http://www.w3.org/1999/xlink" x="0px" y="0px"
	 width="50px" height="50px" viewBox="0 0 50 50" enable-background="new 0 0 50 50" xml:space="preserve">
<g>
	<polygon points="22,31.073 20,33.073 30,33.073 28,31.073 	"/>
	<path d="M25.432,20.309c-0.979-0.979-2.572-0.979-3.55,0c-0.979,0.979-0.979,2.572,0,3.551c0.921,0.921,2.379,0.964,3.364,0.152
		l0.338-0.338C26.396,22.688,26.354,21.229,25.432,20.309z"/>
	<path d="M15,16.927v13h20v-13H15z M28.557,27.666l-2.744-2.743l0.138-0.137l-0.471-0.471c-1.137,0.928-2.812,0.876-3.871-0.183
		c-1.13-1.13-1.13-2.967,0-4.097s2.967-1.13,4.097,0c1.061,1.059,1.111,2.734,0.184,3.871l0.471,0.47l0.137-0.136l2.743,2.742
		L28.557,27.666z"/>
</g>
</svg>
