<?xml version="1.0" encoding="utf-8"?>
<!-- Generator: Adobe Illustrator 16.0.4, SVG Export Plug-In . SVG Version: 6.00 Build 0)  -->
<!DOCTYPE svg PUBLIC "-//W3C//DTD SVG 1.1//EN" "http://www.w3.org/Graphics/SVG/1.1/DTD/svg11.dtd">
<svg version="1.1" id="Layer_1" xmlns="http://www.w3.org/2000/svg" xmlns:xlink="http://www.w3.org/1999/xlink" x="0px" y="0px"
	 width="50px" height="50px" viewBox="0 0 50 50" enable-background="new 0 0 50 50" xml:space="preserve">
<g>
	<polygon points="22,31.073 20,33.073 30,33.073 28,31.073 	"/>
	<path d="M15,16.927v13h20v-13H15z M19.5,25.936h-1.016l1.016-1.017h1.016L19.5,25.936z M19.5,23.935h-1.016l1.016-1.016h1.016
		L19.5,23.935z M19.5,21.935h-1.016l1.016-1.016h1.016L19.5,21.935z M26.391,25.936h-4.656v-1.017h4.656V25.936z M29.797,23.935
		h-8.062v-1.016h8.062V23.935z M31.516,21.935h-9.781v-1.016h9.781V21.935z"/>
</g>
</svg>
