<?xml version="1.0" encoding="utf-8"?>
<!-- Generator: Adobe Illustrator 16.0.4, SVG Export Plug-In . SVG Version: 6.00 Build 0)  -->
<!DOCTYPE svg PUBLIC "-//W3C//DTD SVG 1.1//EN" "http://www.w3.org/Graphics/SVG/1.1/DTD/svg11.dtd">
<svg version="1.1" id="Layer_1" xmlns="http://www.w3.org/2000/svg" xmlns:xlink="http://www.w3.org/1999/xlink" x="0px" y="0px"
	 width="50px" height="50px" viewBox="0 0 50 50" enable-background="new 0 0 50 50" xml:space="preserve">
<g>
	<polygon points="22,31.073 20,33.073 30,33.073 28,31.073 	"/>
	<path d="M15,16.927v13h20v-13H15z M24.482,25.105l-0.217,0.218c0.219,0.649,0.077,1.395-0.439,1.913
		c-0.485,0.484-1.167,0.639-1.785,0.478l1.131-1.131l0.066-0.597l-0.797-0.797l-0.598,0.066l-1.132,1.131
		c-0.16-0.618-0.006-1.301,0.479-1.785c0.518-0.518,1.263-0.66,1.912-0.44l0.9-0.9l0.312,0.313l-0.58,0.581l0.711,0.711l0.062-0.032
		L24.482,25.105z M29.223,26.453l-1.195,1.193l-0.723,0.076l-2.589-2.589l0.073-0.707l-0.296,0.152l-0.425-0.424l0.58-0.581
		l-2.227-2.227l-0.529-0.198l-0.807-1.055l0.58-0.581l1.055,0.806l0.198,0.53l2.228,2.227l0.582-0.581l0.424,0.424l-0.151,0.296
		l0.706-0.073l2.589,2.588L29.223,26.453z M28.811,22.252c-0.519,0.518-1.264,0.66-1.914,0.44l-0.217,0.217l-0.271,0.028
		l0.031-0.063l-0.711-0.711l-0.58,0.581l-0.312-0.313l0.9-0.9c-0.221-0.65-0.078-1.396,0.438-1.913
		c0.484-0.484,1.167-0.639,1.785-0.478l-1.131,1.131l-0.065,0.597l0.795,0.797l0.599-0.066l1.132-1.131
		C29.448,21.085,29.294,21.768,28.811,22.252z"/>
</g>
</svg>
