<?xml version="1.0" encoding="utf-8"?>
<!-- Generator: Adobe Illustrator 16.0.4, SVG Export Plug-In . SVG Version: 6.00 Build 0)  -->
<!DOCTYPE svg PUBLIC "-//W3C//DTD SVG 1.1//EN" "http://www.w3.org/Graphics/SVG/1.1/DTD/svg11.dtd">
<svg version="1.1" id="Layer_1" xmlns="http://www.w3.org/2000/svg" xmlns:xlink="http://www.w3.org/1999/xlink" x="0px" y="0px"
	 width="50px" height="50px" viewBox="0 0 50 50" enable-background="new 0 0 50 50" xml:space="preserve">
<g>
	<rect x="19.608" y="15.063" width="10.785" height="7.009"/>
	<polygon points="23.382,22.691 22.304,23.77 27.695,23.77 26.618,22.691 	"/>
	<rect x="8.824" y="26.23" width="10.784" height="7.01"/>
	<polygon points="12.598,33.859 11.52,34.938 16.912,34.938 15.833,33.859 	"/>
	<rect x="30.393" y="26.23" width="10.783" height="7.01"/>
	<polygon points="34.167,33.859 33.088,34.938 38.48,34.938 37.402,33.859 	"/>
	<path d="M18.268,20.84c0.128,0,0.256-0.049,0.354-0.146l0.109-0.109c0.195-0.195,0.195-0.512,0-0.707
		c-0.195-0.195-0.512-0.195-0.707,0l-0.109,0.109c-0.195,0.195-0.195,0.512,0,0.707C18.012,20.791,18.14,20.84,18.268,20.84z"/>
	<path d="M17.08,22.028c0.128,0,0.256-0.049,0.354-0.146l0.202-0.202c0.195-0.195,0.195-0.512,0-0.707
		c-0.195-0.195-0.512-0.195-0.707,0l-0.202,0.202c-0.195,0.195-0.195,0.512,0,0.707C16.824,21.979,16.952,22.028,17.08,22.028z"/>
	<path d="M15.891,23.217c0.128,0,0.256-0.049,0.354-0.146l0.203-0.203c0.195-0.195,0.195-0.512,0-0.707
		c-0.195-0.195-0.512-0.195-0.707,0l-0.203,0.203c-0.195,0.195-0.195,0.512,0,0.707C15.635,23.168,15.763,23.217,15.891,23.217z"/>
	<path d="M14.702,24.406c0.128,0,0.256-0.049,0.354-0.146l0.203-0.203c0.195-0.195,0.195-0.512,0-0.707
		c-0.195-0.195-0.512-0.195-0.707,0l-0.203,0.203c-0.195,0.195-0.195,0.512,0,0.707C14.446,24.357,14.574,24.406,14.702,24.406z"/>
	<path d="M13.607,25.5c0.128,0,0.256-0.049,0.354-0.146l0.109-0.109c0.195-0.195,0.195-0.512,0-0.707
		c-0.195-0.195-0.512-0.195-0.707,0l-0.109,0.109c-0.195,0.195-0.195,0.512,0,0.707C13.352,25.452,13.479,25.5,13.607,25.5z"/>
	<path d="M31.378,20.693c0.099,0.098,0.226,0.146,0.354,0.146c0.127,0,0.256-0.049,0.354-0.146c0.195-0.195,0.195-0.512,0-0.707
		l-0.109-0.109c-0.194-0.195-0.512-0.195-0.707,0c-0.194,0.195-0.194,0.512,0,0.707L31.378,20.693z"/>
	<path d="M34.742,24.057l0.203,0.203c0.098,0.098,0.226,0.146,0.354,0.146s0.256-0.049,0.354-0.146c0.195-0.195,0.195-0.512,0-0.707
		L35.45,23.35c-0.195-0.195-0.513-0.195-0.707,0C34.548,23.545,34.546,23.861,34.742,24.057z"/>
	<path d="M33.553,22.868l0.203,0.203c0.098,0.098,0.227,0.146,0.354,0.146c0.129,0,0.257-0.049,0.354-0.146
		c0.195-0.195,0.195-0.512,0-0.707l-0.202-0.203c-0.195-0.195-0.513-0.195-0.707,0C33.359,22.356,33.357,22.673,33.553,22.868z"/>
	<path d="M32.365,21.68l0.201,0.202c0.099,0.098,0.227,0.146,0.354,0.146s0.256-0.049,0.354-0.146c0.195-0.195,0.195-0.512,0-0.707
		l-0.202-0.202c-0.195-0.195-0.513-0.195-0.707,0C32.171,21.168,32.169,21.484,32.365,21.68z"/>
	<path d="M35.93,25.245l0.109,0.109c0.098,0.098,0.227,0.146,0.354,0.146c0.129,0,0.256-0.049,0.354-0.146
		c0.194-0.195,0.194-0.512,0-0.707l-0.108-0.109c-0.195-0.195-0.513-0.195-0.707,0C35.736,24.733,35.734,25.05,35.93,25.245z"/>
</g>
</svg>
