<?xml version="1.0" encoding="utf-8"?>
<!-- Generator: Adobe Illustrator 16.0.4, SVG Export Plug-In . SVG Version: 6.00 Build 0)  -->
<!DOCTYPE svg PUBLIC "-//W3C//DTD SVG 1.1//EN" "http://www.w3.org/Graphics/SVG/1.1/DTD/svg11.dtd">
<svg version="1.1" id="Layer_1" xmlns="http://www.w3.org/2000/svg" xmlns:xlink="http://www.w3.org/1999/xlink" x="0px" y="0px"
	 width="50px" height="50px" viewBox="0 0 50 50" enable-background="new 0 0 50 50" xml:space="preserve">
<g>
	<g>
		<path d="M31.967,36.486c-0.154,0-0.303-0.029-0.445-0.074c-1.897,1.252-4.166,1.986-6.605,1.986c-2.416,0-4.663-0.723-6.55-1.953
			c-0.109,0.023-0.221,0.041-0.335,0.041h-1.213c2.222,1.781,5.035,2.854,8.098,2.854c3.062,0,5.876-1.072,8.098-2.854H31.967z"/>
		<path d="M29.732,15.157l0.277,0.332c4.09,1.923,6.936,6.07,6.936,10.882c0,0.576-0.055,1.139-0.135,1.693h0.953
			c0.072-0.557,0.123-1.117,0.123-1.693c0-5.45-3.382-10.116-8.154-12.034V15.157L29.732,15.157z"/>
		<path d="M13.021,28.064c-0.079-0.555-0.134-1.117-0.134-1.693c0-4.812,2.845-8.959,6.935-10.882l0.277-0.332v-0.819
			c-4.772,1.919-8.154,6.585-8.154,12.034c0,0.576,0.051,1.139,0.124,1.693H13.021z"/>
	</g>
	<g>
		<path d="M28.732,15.518V15.17v-2.082v-2.082c0-0.189-0.155-0.347-0.346-0.347h-6.941c-0.191,0-0.348,0.155-0.348,0.347v2.082
			v2.082v0.348l-0.867,1.041c0,0.287,0.233,0.521,0.52,0.521h8.329c0.287,0,0.52-0.232,0.52-0.521L28.732,15.518z M25.609,16.907
			h-1.387c-0.048,0-0.087-0.038-0.087-0.087c0-0.048,0.039-0.087,0.087-0.087h1.387c0.049,0,0.088,0.039,0.088,0.087
			C25.697,16.869,25.658,16.907,25.609,16.907z M23.486,16.559l0.265-0.316h2.331l0.266,0.316H23.486z M28.245,14.905
			c0,0.167-0.136,0.303-0.302,0.303H21.89c-0.166,0-0.302-0.136-0.302-0.303v-3.631c0-0.168,0.136-0.303,0.302-0.303h6.053
			c0.166,0,0.302,0.135,0.302,0.303V14.905z"/>
		<path d="M39.95,33.926v-0.35v-2.082v-2.082c0-0.189-0.156-0.348-0.349-0.348h-6.938c-0.192,0.002-0.349,0.156-0.349,0.35v2.082
			v2.08v0.348l-0.866,1.043c0,0.285,0.231,0.52,0.52,0.52l8.329,0.002c0.287-0.002,0.52-0.234,0.52-0.521L39.95,33.926z
			 M36.825,35.312l-1.388-0.002c-0.047,0.002-0.086-0.037-0.086-0.086s0.039-0.086,0.086-0.086h1.388
			c0.048,0,0.086,0.039,0.087,0.086C36.912,35.273,36.874,35.312,36.825,35.312z M34.702,34.967l0.265-0.318h2.33l0.266,0.316
			L34.702,34.967z M39.46,33.309c0,0.168-0.136,0.305-0.302,0.305h-6.053c-0.166,0-0.303-0.137-0.303-0.303v-3.633
			c0-0.166,0.137-0.303,0.303-0.303h6.053c0.166,0,0.302,0.137,0.302,0.303V33.309z"/>
		<path d="M17.684,33.926v-0.348l0.001-2.082v-2.082c0-0.191-0.155-0.348-0.347-0.35h-6.94c-0.192,0.002-0.348,0.156-0.348,0.348
			v2.082v2.084v0.346l-0.867,1.041c-0.001,0.287,0.233,0.521,0.52,0.521h8.329c0.288,0,0.521-0.234,0.52-0.521L17.684,33.926z
			 M14.561,35.312h-1.388c-0.048-0.002-0.086-0.039-0.087-0.088c0-0.047,0.04-0.086,0.088-0.086h1.387
			c0.048,0.002,0.087,0.039,0.087,0.086C14.647,35.273,14.608,35.312,14.561,35.312z M12.437,34.965l0.264-0.316l2.332,0.002
			l0.265,0.316L12.437,34.965z M17.196,33.311c-0.001,0.166-0.137,0.303-0.304,0.303h-6.053c-0.165,0-0.301-0.137-0.301-0.305V29.68
			c0-0.168,0.136-0.303,0.303-0.303l6.054-0.002c0.165,0,0.301,0.137,0.301,0.305V33.311z"/>
	</g>
</g>
</svg>
