<?xml version="1.0" encoding="utf-8"?>
<!-- Generator: Adobe Illustrator 16.0.4, SVG Export Plug-In . SVG Version: 6.00 Build 0)  -->
<!DOCTYPE svg PUBLIC "-//W3C//DTD SVG 1.1//EN" "http://www.w3.org/Graphics/SVG/1.1/DTD/svg11.dtd">
<svg version="1.1" id="Layer_1" xmlns="http://www.w3.org/2000/svg" xmlns:xlink="http://www.w3.org/1999/xlink" x="0px" y="0px"
	 width="50px" height="50px" viewBox="0 0 50 50" enable-background="new 0 0 50 50" xml:space="preserve">
<g>
	<polygon points="22,31.073 20,33.073 30,33.073 28,31.073 	"/>
	<path d="M24.5,23.927v-0.5v-2.958c-1.417,0.239-2.5,1.475-2.5,2.958c0,1.654,1.346,3,3,3c1.484,0,2.72-1.083,2.958-2.5H25H24.5z"/>
	<path d="M15,16.927v13h20v-13H15z M25,26.927c-1.934,0-3.5-1.567-3.5-3.5c0-1.933,1.566-3.5,3.5-3.5v3.5h3.5
		C28.5,25.359,26.934,26.927,25,26.927z M25.51,22.917v-2.991c1.593,0.122,2.869,1.397,2.99,2.991H25.51z"/>
</g>
</svg>
