<?xml version="1.0" encoding="utf-8"?>
<!-- Generator: Adobe Illustrator 16.0.4, SVG Export Plug-In . SVG Version: 6.00 Build 0)  -->
<!DOCTYPE svg PUBLIC "-//W3C//DTD SVG 1.1//EN" "http://www.w3.org/Graphics/SVG/1.1/DTD/svg11.dtd">
<svg version="1.1" id="Layer_1" xmlns="http://www.w3.org/2000/svg" xmlns:xlink="http://www.w3.org/1999/xlink" x="0px" y="0px"
	 width="50px" height="50px" viewBox="0 0 50 50" enable-background="new 0 0 50 50" xml:space="preserve">
<g>
	<g>
		<polygon points="20.375,32.698 18.375,34.698 28.375,34.698 26.375,32.698 		"/>
	</g>
	<g>
		<path d="M36.625,20.552c0-2.895-2.355-5.25-5.25-5.25c-2.188,0-4.062,1.345-4.85,3.25h-13.15v13h20v-6.15
			C35.279,24.613,36.625,22.738,36.625,20.552z M31.375,25.302c-2.619,0-4.75-2.131-4.75-4.75c0-2.619,2.131-4.75,4.75-4.75
			s4.75,2.131,4.75,4.75C36.125,23.171,33.994,25.302,31.375,25.302z"/>
	</g>
	<g>
		<polygon points="34.834,18.332 33.593,17.092 31.375,19.311 29.158,17.092 27.916,18.332 30.135,20.549 27.916,22.768 
			29.158,24.012 31.375,21.793 33.593,24.012 34.834,22.768 32.618,20.549 		"/>
	</g>
</g>
</svg>
