<?xml version="1.0" encoding="utf-8"?>
<!-- Generator: Adobe Illustrator 16.0.4, SVG Export Plug-In . SVG Version: 6.00 Build 0)  -->
<!DOCTYPE svg PUBLIC "-//W3C//DTD SVG 1.1//EN" "http://www.w3.org/Graphics/SVG/1.1/DTD/svg11.dtd">
<svg version="1.1" id="Layer_1" xmlns="http://www.w3.org/2000/svg" xmlns:xlink="http://www.w3.org/1999/xlink" x="0px" y="0px"
	 width="50px" height="50px" viewBox="0 0 50 50" enable-background="new 0 0 50 50" xml:space="preserve">
<g>
	<path d="M15,15.21v13h15.999c0,0.77,0.642,0.77,1.108,0.77c0.582,0,0.819,0.043,0.819,0.479h0.289c0-0.768-0.642-0.768-1.108-0.768
		c-0.582,0-0.819-0.043-0.819-0.48H35v-13H15z"/>
	<polygon points="22,29.357 20,31.357 30,31.357 28,29.357 	"/>
	<path d="M33.607,29.459c0.026,0.084,0.041,0.174,0.041,0.269v1.257c0,0.396-0.26,0.721-0.576,0.721
		c-0.318,0-0.578-0.324-0.578-0.721v-1.258c0-0.095,0.015-0.186,0.041-0.268c-0.797,0.211-1.393,0.934-1.393,1.795v1.673
		c0,1.024,0.84,1.862,1.863,1.862h0.13c1.025,0,1.863-0.838,1.863-1.862v-1.673C35,30.393,34.404,29.671,33.607,29.459z"/>
	<ellipse cx="33.072" cy="30.356" rx="0.289" ry="0.579"/>
</g>
</svg>
