<?xml version="1.0" encoding="utf-8"?>
<!-- Generator: Adobe Illustrator 16.0.4, SVG Export Plug-In . SVG Version: 6.00 Build 0)  -->
<!DOCTYPE svg PUBLIC "-//W3C//DTD SVG 1.1//EN" "http://www.w3.org/Graphics/SVG/1.1/DTD/svg11.dtd">
<svg version="1.1" id="Layer_1" xmlns="http://www.w3.org/2000/svg" xmlns:xlink="http://www.w3.org/1999/xlink" x="0px" y="0px"
	 width="50px" height="50px" viewBox="0 0 50 50" enable-background="new 0 0 50 50" xml:space="preserve">
<g>
	<g>
		<ellipse cx="37.125" cy="18.973" rx="0.35" ry="0.176"/>
	</g>
	<g>
		<path d="M35.715,28.949c-0.475,0.273-0.823,0.557-1.083,0.844c-0.118-0.062-0.251-0.101-0.396-0.105
			c0.046-0.375,0.193-0.814,0.548-1.389c-0.386,0-0.771,0-1.156,0c-0.08,0.683-0.027,1.158,0.088,1.529
			c-0.119,0.075-0.219,0.176-0.293,0.295c-0.302-0.22-0.607-0.529-0.923-0.965c-0.159,0.354-0.316,0.592-0.582,0.795
			c0.547,0.409,0.986,0.604,1.369,0.691c0.006,0.145,0.044,0.277,0.107,0.396c-0.35,0.149-0.807,0.24-1.477,0.222
			c0.319,0.407,0.606,0.706,0.779,1.004c0.475-0.272,0.823-0.558,1.081-0.845c0.119,0.062,0.252,0.102,0.397,0.106
			c-0.045,0.375-0.193,0.815-0.547,1.39c0.385,0,0.771,0,1.156,0c0.079-0.684,0.026-1.158-0.089-1.528
			c0.119-0.076,0.22-0.177,0.293-0.296c0.303,0.221,0.607,0.531,0.924,0.966c0.158-0.353,0.315-0.591,0.582-0.796
			c-0.548-0.408-0.987-0.604-1.369-0.691c-0.006-0.144-0.044-0.277-0.109-0.396c0.351-0.148,0.808-0.239,1.479-0.221
			C36.174,29.547,35.887,29.248,35.715,28.949z M34.206,30.896c-0.159,0-0.288-0.129-0.288-0.289s0.129-0.289,0.288-0.289
			c0.16,0,0.289,0.129,0.289,0.289C34.494,30.768,34.365,30.896,34.206,30.896z"/>
	</g>
	<g>
		<path d="M39.523,24.301l0.579-6.665c0.034-0.384-0.254-0.699-0.64-0.699H39.3l0.07-1.054c0.051-0.77-0.538-1.399-1.31-1.399H30.35
			c-0.771,0-1.358,0.63-1.309,1.399l0.069,1.054h-0.164c-0.385,0-0.673,0.314-0.641,0.699l0.064,0.733h1.979v-0.84h7.712v2.104
			h-7.168v13.736h-1.802l-0.05,0.748c-0.051,0.77,0.538,1.398,1.309,1.398h7.712c0.771,0,1.36-0.629,1.31-1.398l-0.07-1.055h0.164
			c0.385,0,0.673-0.314,0.64-0.699l-0.579-6.664C39.491,25.313,39.491,24.686,39.523,24.301z M36.095,16.194
			c-0.22,0-0.399-0.178-0.399-0.399c0-0.22,0.18-0.399,0.399-0.399c0.221,0,0.399,0.179,0.399,0.399
			C36.494,16.017,36.314,16.194,36.095,16.194z M37.476,16.32c-0.29,0-0.524-0.235-0.524-0.526s0.234-0.526,0.524-0.526
			s0.526,0.235,0.526,0.526S37.766,16.32,37.476,16.32z M35.083,21.384c0-0.097,0.078-0.175,0.175-0.175s0.175,0.079,0.175,0.175
			v5.61c0,0.096-0.078,0.174-0.175,0.174s-0.175-0.078-0.175-0.174V21.384z M32.979,21.384c0-0.097,0.078-0.175,0.174-0.175
			c0.098,0,0.176,0.079,0.176,0.175v5.61c0,0.096-0.078,0.174-0.176,0.174c-0.096,0-0.174-0.078-0.174-0.174V21.384z M34.206,33.412
			c-1.548,0-2.805-1.254-2.805-2.804c0-1.549,1.257-2.804,2.805-2.804c1.549,0,2.805,1.255,2.805,2.804
			C37.01,32.158,35.754,33.412,34.206,33.412z"/>
	</g>
	<g>
		<rect x="9.893" y="19.37" width="20" height="13"/>
	</g>
	<g>
		<polygon points="16.893,33.516 14.893,35.516 24.893,35.516 22.893,33.516 		"/>
	</g>
</g>
</svg>
