<?xml version="1.0" encoding="utf-8"?>
<!-- Generator: Adobe Illustrator 16.0.4, SVG Export Plug-In . SVG Version: 6.00 Build 0)  -->
<!DOCTYPE svg PUBLIC "-//W3C//DTD SVG 1.1//EN" "http://www.w3.org/Graphics/SVG/1.1/DTD/svg11.dtd">
<svg version="1.1" id="Layer_1" xmlns="http://www.w3.org/2000/svg" xmlns:xlink="http://www.w3.org/1999/xlink" x="0px" y="0px"
	 width="50px" height="50px" viewBox="0 0 50 50" enable-background="new 0 0 50 50" xml:space="preserve">
<g>
	<polygon points="22,31.072 20,33.072 30,33.072 28,31.072 	"/>
	<polygon points="21.062,21.993 20.286,21.993 20.286,22.77 21.062,22.77 21.293,22.381 	"/>
	<circle cx="27.136" cy="24.104" r="0.765"/>
	<circle cx="22.864" cy="24.104" r="0.765"/>
	<circle cx="27.521" cy="22.381" r="0.389"/>
	<polygon points="21.188,22.895 21.188,23.67 21.963,23.67 21.963,22.895 21.574,22.665 	"/>
	<polygon points="22.864,21.993 22.088,21.993 21.857,22.381 22.088,22.77 22.864,22.77 	"/>
	<circle cx="28.425" cy="23.283" r="0.388"/>
	<path d="M15,16.927v13h20v-13H15z M29.271,26.828c-0.528,0.094-1.182-0.818-1.722-1.874c-0.127,0.062-0.264,0.104-0.414,0.104
		c-0.526,0-0.956-0.429-0.956-0.957c0-0.031,0.016-0.058,0.019-0.086c-0.378-0.035-0.779-0.064-1.197-0.064
		s-0.819,0.029-1.197,0.064c0.003,0.028,0.019,0.055,0.019,0.086c0,0.528-0.43,0.957-0.957,0.957c-0.15,0-0.287-0.043-0.414-0.104
		c-0.539,1.055-1.192,1.967-1.721,1.874c-1.04-0.184-1.204-4.187-1.02-5.228s1.175-1.734,2.216-1.552
		c0.493,0.086,0.904,0.358,1.186,0.729c0.56-0.092,1.198-0.117,1.889-0.117c0.691,0,1.329,0.025,1.889,0.117
		c0.281-0.37,0.692-0.644,1.187-0.729c1.041-0.184,2.032,0.511,2.217,1.552C30.475,22.641,30.311,26.646,29.271,26.828z"/>
	<polygon points="21.963,21.869 21.963,21.092 21.188,21.092 21.188,21.869 21.575,22.098 	"/>
	<circle cx="29.325" cy="22.381" r="0.389"/>
	<circle cx="28.425" cy="21.48" r="0.388"/>
</g>
</svg>
