<?xml version="1.0" encoding="utf-8"?>
<!-- Generator: Adobe Illustrator 16.0.4, SVG Export Plug-In . SVG Version: 6.00 Build 0)  -->
<!DOCTYPE svg PUBLIC "-//W3C//DTD SVG 1.1//EN" "http://www.w3.org/Graphics/SVG/1.1/DTD/svg11.dtd">
<svg version="1.1" id="Layer_1" xmlns="http://www.w3.org/2000/svg" xmlns:xlink="http://www.w3.org/1999/xlink" x="0px" y="0px"
	 width="50px" height="50px" viewBox="0 0 50 50" enable-background="new 0 0 50 50" xml:space="preserve">
<g>
	<g>
		<ellipse cx="37.504" cy="17.768" rx="0.422" ry="0.21"/>
	</g>
	<g>
		<path d="M39.47,14.484H28.533c-0.463,0-0.842,0.379-0.842,0.841v3.044h1.684v-2.334h9.254v2.523h-7.939v2.313h7.939v0.421h-7.939
			v2.103h7.939v0.42h-7.939v9.553h-2.997v1.305c0,0.462,0.379,0.841,0.841,0.841h10.938c0.462,0,0.841-0.379,0.841-0.841V15.324
			C40.311,14.863,39.932,14.484,39.47,14.484z M34,29.953c-0.696,0-1.262-0.564-1.262-1.262c0-0.696,0.565-1.262,1.262-1.262
			c0.697,0,1.263,0.564,1.263,1.262S34.697,29.953,34,29.953z"/>
	</g>
	<g>
		<rect x="9.688" y="19.37" width="20" height="13"/>
	</g>
	<g>
		<polygon points="16.688,33.516 14.688,35.516 24.688,35.516 22.688,33.516 		"/>
	</g>
</g>
</svg>
