<?xml version="1.0" encoding="utf-8"?>
<!-- Generator: Adobe Illustrator 16.0.4, SVG Export Plug-In . SVG Version: 6.00 Build 0)  -->
<!DOCTYPE svg PUBLIC "-//W3C//DTD SVG 1.1//EN" "http://www.w3.org/Graphics/SVG/1.1/DTD/svg11.dtd">
<svg version="1.1" id="Layer_1" xmlns="http://www.w3.org/2000/svg" xmlns:xlink="http://www.w3.org/1999/xlink" x="0px" y="0px"
	 width="50px" height="50px" viewBox="0 0 50 50" enable-background="new 0 0 50 50" xml:space="preserve">
<g>
	<polygon points="22,31.073 20,33.073 30,33.073 28,31.073 	"/>
	<circle cx="25" cy="23.427" r="1.4"/>
	<path d="M15,16.927v13h20v-13H15z M28.999,24.027l-1.351,0.27c-0.045,0.135-0.097,0.264-0.16,0.388l0.765,1.146l-0.849,0.848
		l-1.146-0.763c-0.122,0.062-0.255,0.102-0.385,0.146L25.6,27.427h-1.2l-0.273-1.364c-0.13-0.045-0.264-0.084-0.385-0.146
		l-1.146,0.764l-0.849-0.849l0.764-1.146c-0.063-0.125-0.115-0.253-0.159-0.388L21,24.026v-1.2l1.352-0.271
		c0.044-0.135,0.096-0.264,0.159-0.388l-0.764-1.146l0.848-0.848l1.146,0.764c0.122-0.062,0.255-0.101,0.385-0.146l0.273-1.365H25.6
		l0.272,1.365c0.13,0.045,0.263,0.084,0.385,0.146l1.146-0.764l0.849,0.849l-0.763,1.145c0.062,0.125,0.115,0.254,0.158,0.389
		l1.353,0.271V24.027z"/>
</g>
</svg>
