<?xml version="1.0" encoding="utf-8"?>
<!-- Generator: Adobe Illustrator 16.0.4, SVG Export Plug-In . SVG Version: 6.00 Build 0)  -->
<!DOCTYPE svg PUBLIC "-//W3C//DTD SVG 1.1//EN" "http://www.w3.org/Graphics/SVG/1.1/DTD/svg11.dtd">
<svg version="1.1" id="Layer_1" xmlns="http://www.w3.org/2000/svg" xmlns:xlink="http://www.w3.org/1999/xlink" x="0px" y="0px"
	 width="50px" height="50px" viewBox="0 0 50 50" enable-background="new 0 0 50 50" xml:space="preserve">
<g>
	<path d="M27.5,14.965V14.5c0-0.415-1.119-0.75-2.5-0.75s-2.5,0.335-2.5,0.75v0.465c-1.568,0.254-2.75,0.765-2.75,1.535v18
		c0,1.148,2.641,1.75,5.25,1.75s5.25-0.602,5.25-1.75v-18C30.25,15.729,29.068,15.219,27.5,14.965z M22.5,15.458V16.5
		c0,0.415,1.119,0.75,2.5,0.75s2.5-0.335,2.5-0.75v-1.042c1.423,0.253,2.25,0.691,2.25,1.042c0,0.522-1.807,1.25-4.75,1.25
		s-4.75-0.728-4.75-1.25C20.25,16.149,21.077,15.711,22.5,15.458z M25,35.749c-2.943,0-4.75-0.728-4.75-1.25V17.288
		c0.887,0.633,2.825,0.961,4.75,0.961s3.863-0.328,4.75-0.961v17.211C29.75,35.021,27.943,35.749,25,35.749z"/>
	<path d="M20.855,22.499v12c0.455,0.308,1.892,0.75,4.145,0.75c2.252,0,3.688-0.442,4.145-0.75v-12
		c-0.455-0.307-1.893-0.75-4.145-0.75C22.747,21.749,21.312,22.192,20.855,22.499z"/>
</g>
</svg>
