<?xml version="1.0" encoding="utf-8"?>
<!-- Generator: Adobe Illustrator 16.0.4, SVG Export Plug-In . SVG Version: 6.00 Build 0)  -->
<!DOCTYPE svg PUBLIC "-//W3C//DTD SVG 1.1//EN" "http://www.w3.org/Graphics/SVG/1.1/DTD/svg11.dtd">
<svg version="1.1" id="Layer_1" xmlns="http://www.w3.org/2000/svg" xmlns:xlink="http://www.w3.org/1999/xlink" x="0px" y="0px"
	 width="50px" height="50px" viewBox="0 0 50 50" enable-background="new 0 0 50 50" xml:space="preserve">
<g>
	<path d="M34.717,29.195v-0.883v-5.3v-5.3c0-0.485-0.397-0.883-0.883-0.883H16.168c-0.486,0-0.885,0.396-0.885,0.883v5.3v5.3v0.883
		l-2.207,2.65c0,0.73,0.593,1.324,1.324,1.324H35.6c0.73,0,1.324-0.594,1.324-1.324L34.717,29.195z M26.768,32.729h-3.533
		c-0.122,0-0.221-0.098-0.221-0.221s0.099-0.221,0.221-0.221h3.533c0.122,0,0.221,0.098,0.221,0.221
		C26.987,32.631,26.89,32.729,26.768,32.729z M21.359,31.846l0.674-0.809h5.933l0.675,0.809H21.359z M33.474,27.633
		c0,0.426-0.347,0.771-0.771,0.771H17.297c-0.423,0-0.77-0.348-0.77-0.771v-9.24c0-0.426,0.347-0.771,0.77-0.771h15.406
		c0.424,0,0.771,0.347,0.771,0.771V27.633z"/>
	<path d="M25,22.27c-0.639,0-1.158,0.519-1.158,1.157c0,0.64,0.519,1.157,1.158,1.157s1.158-0.518,1.158-1.157
		C26.158,22.789,25.64,22.27,25,22.27z M25,24.006c-0.319,0-0.579-0.26-0.579-0.579s0.26-0.579,0.579-0.579s0.58,0.26,0.58,0.579
		S25.319,24.006,25,24.006z"/>
	<path d="M27.824,23.342v-0.392h-1.053v-1.312h-0.5v-1.841c-0.4-0.141-0.823-0.231-1.271-0.231c-2.131,0-3.859,1.729-3.859,3.859
		c0,2.13,1.728,3.859,3.859,3.859c2.13,0,3.859-1.729,3.859-3.859c0-0.029-0.008-0.056-0.009-0.085L27.824,23.342L27.824,23.342z
		 M25,24.927c-0.828,0-1.5-0.672-1.5-1.5c0-0.827,0.672-1.5,1.5-1.5c0.828,0,1.5,0.673,1.5,1.5C26.5,24.255,25.828,24.927,25,24.927
		z"/>
	<rect x="26.771" y="20.141" width="1" height="1"/>
	<rect x="27.271" y="21.586" width="0.863" height="0.864"/>
	<rect x="28.422" y="21.204" width="0.766" height="0.766"/>
	<rect x="29.52" y="21.487" width="0.6" height="0.6"/>
	<rect x="30.5" y="21.209" width="0.299" height="0.3"/>
	<rect x="28.383" y="22.362" width="0.48" height="0.479"/>
	<rect x="28.183" y="19.877" width="0.883" height="0.882"/>
	<rect x="29.447" y="20.27" width="0.742" height="0.742"/>
	<rect x="30.556" y="20.098" width="0.485" height="0.486"/>
</g>
</svg>
