<?xml version="1.0" encoding="utf-8"?>
<!-- Generator: Adobe Illustrator 16.0.4, SVG Export Plug-In . SVG Version: 6.00 Build 0)  -->
<!DOCTYPE svg PUBLIC "-//W3C//DTD SVG 1.1//EN" "http://www.w3.org/Graphics/SVG/1.1/DTD/svg11.dtd">
<svg version="1.1" id="Layer_1" xmlns="http://www.w3.org/2000/svg" xmlns:xlink="http://www.w3.org/1999/xlink" x="0px" y="0px"
	 width="50px" height="50px" viewBox="0 0 50 50" enable-background="new 0 0 50 50" xml:space="preserve">
<g>
	<g>
		<polygon points="18.552,31.073 16.552,33.073 26.552,33.073 24.552,31.073 		"/>
	</g>
	<g>
		<path d="M37.948,25.042h-3.5c-0.275,0-0.5-0.225-0.5-0.5v-0.469c0-0.275-0.226-0.5-0.5-0.5h-3.5c-0.275,0-0.5,0.225-0.5,0.5v2.575
			h-1v-2.575c0-0.827,0.673-1.5,1.5-1.5h1.604v-5.646h-20v13h16.896v-1.585h1v2.231c0,0.274,0.225,0.5,0.5,0.5h8
			c0.274,0,0.5-0.226,0.5-0.5v-5.031C38.448,25.267,38.223,25.042,37.948,25.042z M30.922,29.562l0.473-1.472h-5.861
			c-0.33,0-0.597-0.268-0.597-0.597s0.268-0.598,0.597-0.598h5.861l-0.473-1.471l2.941,2.068L30.922,29.562z"/>
	</g>
</g>
</svg>
