<?xml version="1.0" encoding="utf-8"?>
<!-- Generator: Adobe Illustrator 16.0.4, SVG Export Plug-In . SVG Version: 6.00 Build 0)  -->
<!DOCTYPE svg PUBLIC "-//W3C//DTD SVG 1.1//EN" "http://www.w3.org/Graphics/SVG/1.1/DTD/svg11.dtd">
<svg version="1.1" id="Layer_1" xmlns="http://www.w3.org/2000/svg" xmlns:xlink="http://www.w3.org/1999/xlink" x="0px" y="0px"
	 width="50px" height="50px" viewBox="0 0 50 50" enable-background="new 0 0 50 50" xml:space="preserve">
<g>
	<g>
		<path d="M20.146,23.986c0.818-0.349,1.889-0.562,3.455-0.517c-0.75-0.953-1.42-1.649-1.822-2.349
			c-1.11,0.64-1.926,1.303-2.531,1.976c-0.278-0.147-0.59-0.237-0.924-0.248c0.103-0.878,0.447-1.905,1.275-3.248
			c-0.898,0-1.802,0-2.701,0c-0.188,1.597-0.063,2.706,0.207,3.575c-0.279,0.175-0.513,0.411-0.688,0.69
			c-0.706-0.515-1.421-1.238-2.161-2.258c-0.37,0.827-0.737,1.384-1.358,1.861c1.279,0.956,2.309,1.412,3.199,1.617
			c0.014,0.336,0.105,0.647,0.256,0.929c-0.819,0.348-1.89,0.561-3.455,0.517c0.75,0.952,1.42,1.649,1.822,2.348
			c1.109-0.64,1.924-1.303,2.529-1.975c0.279,0.146,0.591,0.237,0.926,0.247c-0.104,0.879-0.449,1.906-1.277,3.248
			c0.899,0,1.803,0,2.701,0c0.188-1.597,0.064-2.705-0.205-3.574c0.278-0.176,0.512-0.411,0.687-0.69
			c0.706,0.515,1.422,1.238,2.161,2.257c0.369-0.828,0.736-1.384,1.359-1.86c-1.281-0.956-2.31-1.412-3.201-1.617
			C20.389,24.578,20.296,24.266,20.146,23.986z M18.25,25.675c-0.372,0-0.675-0.302-0.675-0.675s0.303-0.675,0.675-0.675
			s0.675,0.302,0.675,0.675S18.622,25.675,18.25,25.675z"/>
	</g>
	<g>
		<path d="M33.646,23.986c0.818-0.349,1.889-0.562,3.455-0.517c-0.75-0.953-1.42-1.649-1.822-2.349
			c-1.11,0.64-1.926,1.303-2.531,1.976c-0.278-0.147-0.59-0.237-0.924-0.248c0.103-0.878,0.447-1.905,1.275-3.248
			c-0.898,0-1.802,0-2.701,0c-0.188,1.597-0.063,2.706,0.207,3.575c-0.279,0.175-0.513,0.411-0.688,0.69
			c-0.706-0.515-1.421-1.238-2.161-2.258c-0.37,0.827-0.737,1.384-1.358,1.861c1.279,0.956,2.309,1.412,3.199,1.617
			c0.014,0.336,0.105,0.647,0.256,0.929c-0.819,0.348-1.89,0.561-3.455,0.517c0.75,0.952,1.42,1.649,1.822,2.348
			c1.109-0.64,1.924-1.303,2.529-1.975c0.279,0.146,0.591,0.237,0.926,0.247c-0.104,0.879-0.449,1.906-1.277,3.248
			c0.899,0,1.803,0,2.701,0c0.188-1.597,0.064-2.705-0.205-3.574c0.278-0.176,0.512-0.411,0.687-0.69
			c0.706,0.515,1.422,1.238,2.161,2.257c0.369-0.828,0.736-1.384,1.359-1.86c-1.281-0.956-2.31-1.412-3.201-1.617
			C33.889,24.578,33.796,24.266,33.646,23.986z M31.75,25.675c-0.372,0-0.675-0.302-0.675-0.675s0.303-0.675,0.675-0.675
			s0.675,0.302,0.675,0.675S32.122,25.675,31.75,25.675z"/>
	</g>
	<g>
		<path d="M37.42,18.25H12.58c-0.594,0-1.08,0.486-1.08,1.08v11.34c0,0.594,0.486,1.08,1.08,1.08h24.84
			c0.594,0,1.08-0.486,1.08-1.08V19.33C38.5,18.736,38.014,18.25,37.42,18.25z M12.443,18.79c0.226,0,0.406,0.181,0.406,0.405
			c0,0.224-0.182,0.405-0.406,0.405c-0.223,0-0.403-0.181-0.403-0.405C12.04,18.971,12.223,18.79,12.443,18.79z M12.443,31.21
			c-0.223,0-0.403-0.181-0.403-0.405c0-0.224,0.183-0.404,0.403-0.404c0.226,0,0.406,0.181,0.406,0.404
			C12.85,31.029,12.669,31.21,12.443,31.21z M18.25,30.939c-3.277,0-5.939-2.656-5.939-5.939s2.662-5.94,5.939-5.94
			s5.939,2.657,5.939,5.94S21.527,30.939,18.25,30.939z M31.75,30.939c-3.277,0-5.939-2.656-5.939-5.939s2.662-5.94,5.939-5.94
			s5.939,2.657,5.939,5.94S35.027,30.939,31.75,30.939z M37.557,31.21c-0.226,0-0.406-0.181-0.406-0.405
			c0-0.224,0.182-0.404,0.406-0.404c0.223,0,0.403,0.181,0.403,0.404C37.96,31.029,37.777,31.21,37.557,31.21z M37.557,19.6
			c-0.226,0-0.406-0.181-0.406-0.405c0-0.224,0.182-0.405,0.406-0.405c0.223,0,0.403,0.181,0.403,0.405
			C37.96,19.419,37.777,19.6,37.557,19.6z"/>
	</g>
</g>
</svg>
