<?xml version="1.0" encoding="utf-8"?>
<!-- Generator: Adobe Illustrator 16.0.4, SVG Export Plug-In . SVG Version: 6.00 Build 0)  -->
<!DOCTYPE svg PUBLIC "-//W3C//DTD SVG 1.1//EN" "http://www.w3.org/Graphics/SVG/1.1/DTD/svg11.dtd">
<svg version="1.1" id="Layer_1" xmlns="http://www.w3.org/2000/svg" xmlns:xlink="http://www.w3.org/1999/xlink" x="0px" y="0px"
	 width="50px" height="50px" viewBox="0 0 50 50" enable-background="new 0 0 50 50" xml:space="preserve">
<g>
	<path d="M34.717,29.195v-0.883v-5.3v-5.3c0-0.485-0.397-0.883-0.883-0.883H16.168c-0.486,0-0.885,0.396-0.885,0.883v5.3v5.3v0.883
		l-2.207,2.65c0,0.73,0.593,1.324,1.324,1.324H35.6c0.73,0,1.324-0.594,1.324-1.324L34.717,29.195z M26.768,32.729h-3.533
		c-0.122,0-0.221-0.098-0.221-0.221s0.099-0.221,0.221-0.221h3.533c0.122,0,0.221,0.098,0.221,0.221
		C26.987,32.631,26.89,32.729,26.768,32.729z M21.359,31.846l0.674-0.809h5.933l0.675,0.809H21.359z M33.474,27.633
		c0,0.426-0.347,0.771-0.771,0.771H17.297c-0.423,0-0.77-0.348-0.77-0.771v-9.24c0-0.426,0.347-0.771,0.77-0.771h15.406
		c0.424,0,0.771,0.347,0.771,0.771V27.633z"/>
	<path d="M24.19,20.651l-1.783-1.783l-1.968,1.967l1.783,1.783L24.19,20.651z M22.911,19.901l0.43,0.43l-0.43,0.431l-0.43-0.431
		L22.911,19.901z M21.475,21.336l0.431-0.43l0.43,0.431l-0.43,0.431L21.475,21.336z"/>
	<path d="M25.357,20.834c-0.27-0.27-0.713-0.27-0.983,0l-1.967,1.967c-0.271,0.27-0.271,0.713,0,0.982l3.934,3.933
		c0.271,0.271,0.771,0.352,1.111,0.182l0.725-0.361c0.343-0.17,0.762-0.592,0.933-0.934l0.362-0.723
		c0.171-0.342,0.089-0.843-0.182-1.113L25.357,20.834z M27.519,25.836c-0.142,0.197-0.408,0.248-0.61,0.113
		c-0.197-0.131-0.257-0.398-0.134-0.599c0.011-0.014,0.009-0.02-0.002-0.029c-0.067-0.064-0.134-0.131-0.2-0.197
		c-0.045-0.045-0.1-0.068-0.16-0.078c-0.006,0-0.01-0.001-0.016,0c-0.266,0.007-0.531,0.018-0.799,0.02
		c-0.132,0.002-0.251-0.041-0.349-0.139c-0.096-0.096-0.191-0.191-0.288-0.289c-0.007-0.007-0.013-0.008-0.023-0.004
		c-0.109,0.047-0.237,0.014-0.309-0.076c-0.077-0.1-0.078-0.231-0.004-0.33c0.101-0.131,0.297-0.139,0.406-0.018
		c0.074,0.084,0.088,0.18,0.048,0.283c-0.004,0.01-0.003,0.014,0.004,0.021c0.101,0.1,0.203,0.201,0.304,0.303
		c0.052,0.05,0.115,0.074,0.188,0.072c0.243-0.006,0.485-0.013,0.729-0.021c0.004,0.001,0.009,0.001,0.015,0.001
		c-0.642-0.643-1.28-1.281-1.92-1.922c-0.051,0.051-0.102,0.103-0.155,0.154c-0.053-0.199-0.105-0.396-0.158-0.595
		c0.199,0.054,0.395,0.104,0.593,0.158c-0.054,0.053-0.104,0.104-0.154,0.153c0.484,0.484,0.967,0.969,1.451,1.451
		c0-0.004,0.001-0.008,0-0.011c0.008-0.25,0.016-0.499,0.021-0.747c0-0.053-0.021-0.1-0.051-0.143
		c-0.007-0.012-0.016-0.021-0.025-0.03c-0.096-0.098-0.192-0.194-0.291-0.292c-0.002-0.002-0.004-0.004-0.008-0.008
		c-0.041,0.042-0.084,0.084-0.125,0.127c-0.127-0.127-0.252-0.252-0.377-0.377c0.126-0.125,0.25-0.25,0.377-0.377
		c0.125,0.125,0.249,0.25,0.375,0.376c-0.041,0.041-0.084,0.083-0.125,0.126c0.002,0.004,0.006,0.007,0.008,0.01
		c0.094,0.094,0.188,0.188,0.279,0.279c0.092,0.09,0.133,0.199,0.139,0.324c0.002,0.074-0.002,0.149-0.006,0.225
		c-0.004,0.2-0.01,0.398-0.016,0.6c-0.001,0.056,0.021,0.104,0.053,0.146c0.008,0.011,0.02,0.021,0.027,0.029
		c0.223,0.226,0.445,0.447,0.668,0.671c0.01,0.009,0.014,0.01,0.023,0.002c0.158-0.099,0.356-0.086,0.504,0.024
		C27.613,25.372,27.654,25.645,27.519,25.836z"/>
</g>
</svg>
