<?xml version="1.0" encoding="utf-8"?>
<!-- Generator: Adobe Illustrator 16.0.4, SVG Export Plug-In . SVG Version: 6.00 Build 0)  -->
<!DOCTYPE svg PUBLIC "-//W3C//DTD SVG 1.1//EN" "http://www.w3.org/Graphics/SVG/1.1/DTD/svg11.dtd">
<svg version="1.1" id="Layer_1" xmlns="http://www.w3.org/2000/svg" xmlns:xlink="http://www.w3.org/1999/xlink" x="0px" y="0px"
	 width="50px" height="50px" viewBox="0 0 50 50" enable-background="new 0 0 50 50" xml:space="preserve">
<g>
	<g>
		<path d="M32.458,22.114c-0.019-0.116-0.074-0.243-0.218-0.387l-4.469-4.468c-0.129-0.13-0.248-0.19-0.354-0.216L27.375,17H18.5
			c-0.55,0-1,0.45-1,1v14c0,0.55,0.45,1,1,1h13c0.55,0,1-0.45,1-1v-9.844L32.458,22.114z M19.5,21.25v-3.031
			c0-0.413,0.337-0.75,0.75-0.75h6c0.413,0,0.75,0.337,0.75,0.75v3.031c0,0.413-0.337,0.75-0.75,0.75h-6
			C19.837,22,19.5,21.663,19.5,21.25z M30,29.625c0,0.55-0.45,1-1,1h-8c-0.55,0-1-0.45-1-1v-2c0-0.55,0.45-1,1-1h8
			c0.55,0,1,0.45,1,1V29.625z"/>
	</g>
	<g>
		<path d="M25.625,21c0.275,0,0.5-0.225,0.5-0.5v-2c0-0.275-0.225-0.5-0.5-0.5c-0.275,0-0.5,0.225-0.5,0.5v2
			C25.125,20.775,25.35,21,25.625,21z"/>
	</g>
	<g>
		<rect x="21" y="28" width="8" height="0.5"/>
	</g>
	<g>
		<rect x="21" y="29" width="8" height="0.5"/>
	</g>
</g>
</svg>
