<?xml version="1.0" encoding="utf-8"?>
<!-- Generator: Adobe Illustrator 16.0.4, SVG Export Plug-In . SVG Version: 6.00 Build 0)  -->
<!DOCTYPE svg PUBLIC "-//W3C//DTD SVG 1.1//EN" "http://www.w3.org/Graphics/SVG/1.1/DTD/svg11.dtd">
<svg version="1.1" id="Layer_1" xmlns="http://www.w3.org/2000/svg" xmlns:xlink="http://www.w3.org/1999/xlink" x="0px" y="0px"
	 width="50px" height="50px" viewBox="0 0 50 50" enable-background="new 0 0 50 50" xml:space="preserve">
<g>
	<g>
		<polygon points="25.448,31.073 23.448,33.073 33.448,33.073 31.448,31.073 		"/>
	</g>
	<g>
		<path d="M18.448,16.927v5.646h1.604c0.827,0,1.5,0.673,1.5,1.5v1.575h-1v-1.575c0-0.275-0.225-0.5-0.5-0.5h-3.5
			c-0.275,0-0.5,0.225-0.5,0.5v0.469c0,0.275-0.225,0.5-0.5,0.5h-3.5c-0.275,0-0.5,0.225-0.5,0.5v5.031c0,0.274,0.225,0.5,0.5,0.5h8
			c0.275,0,0.5-0.226,0.5-0.5v-3.231h1v2.585h16.896v-13H18.448z M22.939,28.562l0.472-1.472H17.55c-0.33,0-0.597-0.268-0.597-0.597
			s0.268-0.598,0.597-0.598h5.861l-0.472-1.471l2.941,2.068L22.939,28.562z"/>
	</g>
</g>
</svg>
