<?xml version="1.0" encoding="utf-8"?>
<!-- Generator: Adobe Illustrator 16.0.4, SVG Export Plug-In . SVG Version: 6.00 Build 0)  -->
<!DOCTYPE svg PUBLIC "-//W3C//DTD SVG 1.1//EN" "http://www.w3.org/Graphics/SVG/1.1/DTD/svg11.dtd">
<svg version="1.1" id="Layer_1" xmlns="http://www.w3.org/2000/svg" xmlns:xlink="http://www.w3.org/1999/xlink" x="0px" y="0px"
	 width="50px" height="50px" viewBox="0 0 50 50" enable-background="new 0 0 50 50" xml:space="preserve">
<g>
	<polygon points="25.866,31.073 19.866,31.073 17.866,33.073 27.866,33.073 	"/>
	<path d="M27.101,27.399c-0.05-0.07-0.101-0.146-0.147-0.229l-0.562-0.976l2.305-1.334l0.341,0.591
		c0.011-0.005,0.021-0.011,0.03-0.017c0.381-0.221,0.956-0.552,1.631-0.552c0.353,0,0.683,0.089,0.977,0.261
		c0.023-0.012,0.047-0.022,0.07-0.035c0.166-0.414,0.432-0.781,0.776-1.071c0.106-0.091,0.226-0.161,0.345-0.231v-6.879h-20v13
		h13.881C26.43,29.047,26.593,28.108,27.101,27.399z"/>
	<path d="M35.511,25.101c-0.572-0.681-1.585-0.771-2.267-0.197c-0.321,0.27-0.507,0.641-0.557,1.027
		c-0.375,0.143-0.775,0.35-1.19,0.581c-0.544-0.854-1.305-0.425-1.865-0.101c-0.716,0.413-1.037,0.527-1.348-0.01l-0.354,0.205
		c0.545,0.945,1.333,0.492,1.908,0.16c0.684-0.396,1.008-0.512,1.305-0.055c-0.452,0.266-0.866,0.529-1.204,0.807
		c-0.36-0.151-0.774-0.178-1.169-0.033c-0.835,0.305-1.265,1.226-0.961,2.062c0.303,0.834,2.105,3.683,2.939,3.378
		c0.425-0.152,0.518-1.093,0.466-2.088c0.118-0.008,0.235-0.034,0.345-0.098c0.384-0.223,0.517-0.715,0.295-1.1
		c-0.013-0.022-0.035-0.035-0.05-0.055c0.261-0.184,0.541-0.375,0.845-0.55c0.304-0.177,0.609-0.323,0.898-0.458
		c0.01,0.023,0.01,0.048,0.022,0.07c0.222,0.386,0.715,0.517,1.099,0.295c0.109-0.062,0.191-0.152,0.258-0.25
		c0.837,0.541,1.694,0.932,2.04,0.642C37.646,28.765,36.081,25.778,35.511,25.101z M28.669,28.556l0.564-0.324l0.327,0.564
		l-0.187,0.33l-0.379-0.005L28.669,28.556z M28.719,30.155l-0.327-0.565l0.563-0.325l0.333,0.187l-0.006,0.38L28.719,30.155z
		 M30.317,30.106l-0.563,0.326l-0.326-0.565l0.185-0.329l0.379,0.004L30.317,30.106z M29.699,29.213l0.004-0.38l0.565-0.326
		l0.327,0.566l-0.565,0.324L29.699,29.213z M31.478,30.601c-0.307,0.178-0.701,0.071-0.878-0.235
		c-0.177-0.308-0.072-0.7,0.234-0.878c0.309-0.178,0.701-0.072,0.879,0.234C31.89,30.028,31.785,30.422,31.478,30.601z
		 M34.587,28.806c-0.309,0.176-0.7,0.07-0.879-0.236c-0.178-0.308-0.071-0.7,0.235-0.877c0.307-0.178,0.7-0.072,0.877,0.233
		C34.999,28.233,34.895,28.628,34.587,28.806z M33.986,27.115c-0.155,0.09-0.354,0.034-0.444-0.121
		c-0.091-0.156-0.037-0.354,0.118-0.446c0.157-0.09,0.356-0.036,0.447,0.12C34.196,26.824,34.144,27.024,33.986,27.115z
		 M35.022,27.392c-0.157,0.09-0.355,0.036-0.446-0.119c-0.09-0.155-0.037-0.354,0.12-0.446c0.156-0.091,0.355-0.035,0.445,0.12
		C35.231,27.103,35.179,27.301,35.022,27.392z M34.265,26.078c-0.156,0.092-0.356,0.038-0.445-0.117
		c-0.09-0.157-0.038-0.356,0.119-0.446c0.156-0.091,0.354-0.037,0.446,0.119C34.474,25.789,34.422,25.987,34.265,26.078z
		 M35.3,26.356c-0.155,0.09-0.355,0.037-0.445-0.119s-0.037-0.356,0.119-0.446s0.355-0.037,0.447,0.119
		C35.51,26.065,35.454,26.267,35.3,26.356z"/>
</g>
</svg>
