<?xml version="1.0" encoding="utf-8"?>
<!-- Generator: Adobe Illustrator 16.0.4, SVG Export Plug-In . SVG Version: 6.00 Build 0)  -->
<!DOCTYPE svg PUBLIC "-//W3C//DTD SVG 1.1//EN" "http://www.w3.org/Graphics/SVG/1.1/DTD/svg11.dtd">
<svg version="1.1" id="Layer_1" xmlns="http://www.w3.org/2000/svg" xmlns:xlink="http://www.w3.org/1999/xlink" x="0px" y="0px"
	 width="50px" height="50px" viewBox="0 0 50 50" enable-background="new 0 0 50 50" xml:space="preserve">
<g>
	<polygon points="22,31.073 20,33.073 30,33.073 28,31.073 	"/>
	<path d="M23.234,25.06c0.383-0.192,0.877-0.429,1.324-0.641l0.428-0.203l-0.202,0.429c-0.141,0.298-0.294,0.617-0.437,0.912
		c0.211,0.045,0.429,0.073,0.653,0.073c1.686,0,3.05-1.366,3.05-3.05c0-1.685-1.364-3.05-3.05-3.05c-1.685,0-3.05,1.365-3.05,3.05
		C21.95,23.604,22.458,24.506,23.234,25.06z M25,21.562c0.562,0,1.018,0.456,1.018,1.017S25.562,23.596,25,23.596
		c-0.562,0-1.017-0.456-1.017-1.017S24.438,21.562,25,21.562z"/>
	<path d="M22.695,25.557l0.95,0.95c0.008-0.008,0.019-0.01,0.027-0.018c0.097-0.099,0.958-1.917,0.958-1.917
		s-1.819,0.861-1.917,0.959C22.706,25.539,22.703,25.549,22.695,25.557z"/>
	<circle cx="25" cy="22.579" r="0.678"/>
	<polygon points="28.05,27.324 28.05,25.291 26.018,27.324 	"/>
	<polygon points="21.95,25.291 21.95,27.324 23.983,27.324 	"/>
	<path d="M15,16.927v13h20v-13H15z M28.391,27.833h-6.78v-8.812h6.78V27.833z"/>
</g>
</svg>
