<?xml version="1.0" encoding="utf-8"?>
<!-- Generator: Adobe Illustrator 16.0.4, SVG Export Plug-In . SVG Version: 6.00 Build 0)  -->
<!DOCTYPE svg PUBLIC "-//W3C//DTD SVG 1.1//EN" "http://www.w3.org/Graphics/SVG/1.1/DTD/svg11.dtd">
<svg version="1.1" id="Layer_1" xmlns="http://www.w3.org/2000/svg" xmlns:xlink="http://www.w3.org/1999/xlink" x="0px" y="0px"
	 width="50px" height="50px" viewBox="0 0 50 50" enable-background="new 0 0 50 50" xml:space="preserve">
<g>
	<path d="M34.717,29.195v-0.883v-5.3v-5.3c0-0.485-0.398-0.883-0.884-0.883H16.168c-0.486,0-0.885,0.396-0.885,0.883v5.3v5.3v0.883
		l-2.207,2.65c0,0.73,0.593,1.324,1.324,1.324H35.6c0.731,0,1.324-0.594,1.324-1.324L34.717,29.195z M26.768,32.729h-3.533
		c-0.123,0-0.221-0.098-0.221-0.221s0.098-0.221,0.221-0.221h3.533c0.121,0,0.221,0.098,0.221,0.221
		C26.986,32.631,26.889,32.729,26.768,32.729z M21.359,31.846l0.674-0.809h5.934l0.674,0.809H21.359z M33.473,27.633
		c0,0.426-0.347,0.771-0.77,0.771H17.297c-0.423,0-0.77-0.348-0.77-0.771v-9.24c0-0.426,0.347-0.771,0.77-0.771h15.406
		c0.423,0,0.77,0.347,0.77,0.771V27.633z"/>
	<path d="M29.661,24.698c-0.001,0-0.002,0-0.003,0v-1.191c0-0.021,0.003-0.041,0.003-0.062c0-0.021-0.003-0.039-0.003-0.06v-0.192
		h-0.01c-0.133-2.457-2.158-4.409-4.648-4.409s-4.518,1.952-4.648,4.409h-0.01v0.192c0,0.021-0.003,0.039-0.003,0.06
		c0,0.021,0.003,0.043,0.003,0.062v1.191c-0.001,0-0.002,0-0.003,0c-0.344,0-0.621,0.365-0.621,0.814
		c0,0.451,0.277,0.816,0.621,0.816c0.045,0,0.091-0.008,0.134-0.02c0.172,0.492,0.494,0.83,0.867,0.83
		c0.553,0,0.65-0.729,0.65-1.627c0-0.897-0.098-1.625-0.65-1.625c-0.238,0-0.453,0.142-0.626,0.366v-0.975
		c0.488-1.914,2.22-3.334,4.286-3.334c2.07,0,3.805,1.424,4.289,3.345v0.967c-0.172-0.228-0.391-0.369-0.629-0.369
		c-0.553,0-0.65,0.728-0.65,1.625c0,0.898,0.098,1.627,0.65,1.627c0.373,0,0.695-0.338,0.867-0.83
		c0.043,0.012,0.088,0.02,0.134,0.02c0.344,0,0.621-0.365,0.621-0.814C30.282,25.063,30.005,24.698,29.661,24.698z"/>
</g>
</svg>
