<?xml version="1.0" encoding="utf-8"?>
<!-- Generator: Adobe Illustrator 16.0.4, SVG Export Plug-In . SVG Version: 6.00 Build 0)  -->
<!DOCTYPE svg PUBLIC "-//W3C//DTD SVG 1.1//EN" "http://www.w3.org/Graphics/SVG/1.1/DTD/svg11.dtd">
<svg version="1.1" id="Layer_1" xmlns="http://www.w3.org/2000/svg" xmlns:xlink="http://www.w3.org/1999/xlink" x="0px" y="0px"
	 width="50px" height="50px" viewBox="0 0 50 50" enable-background="new 0 0 50 50" xml:space="preserve">
<g>
	<g>
		<path d="M34.717,29.195v-0.883v-5.3v-5.3c0-0.486-0.398-0.883-0.884-0.883H16.168c-0.486,0-0.885,0.396-0.885,0.883v5.3v5.3v0.883
			l-2.207,2.65c0,0.73,0.593,1.324,1.324,1.324H35.6c0.731,0,1.324-0.594,1.324-1.324L34.717,29.195z M26.768,32.729h-3.533
			c-0.123,0-0.221-0.099-0.221-0.222s0.098-0.221,0.221-0.221h3.533c0.121,0,0.221,0.098,0.221,0.221
			C26.986,32.631,26.889,32.729,26.768,32.729z M21.359,31.846l0.674-0.809h5.934l0.674,0.809H21.359z M33.473,27.633
			c0,0.425-0.347,0.771-0.77,0.771H17.297c-0.423,0-0.77-0.347-0.77-0.771v-9.241c0-0.425,0.347-0.771,0.77-0.771h15.406
			c0.423,0,0.77,0.347,0.77,0.771V27.633z"/>
	</g>
	<g>
		<polygon points="28.107,22.776 26.057,18.57 24.122,25.169 22.012,21.532 20.176,23.657 18,23.657 18,24.657 20.635,24.657 
			21.852,23.248 24.426,27.687 26.289,21.331 27.369,23.544 29.799,24.615 32,24.657 32,23.657 30.105,23.657 		"/>
	</g>
</g>
</svg>
