<?xml version="1.0" encoding="utf-8"?>
<!-- Generator: Adobe Illustrator 16.0.4, SVG Export Plug-In . SVG Version: 6.00 Build 0)  -->
<!DOCTYPE svg PUBLIC "-//W3C//DTD SVG 1.1//EN" "http://www.w3.org/Graphics/SVG/1.1/DTD/svg11.dtd">
<svg version="1.1" id="Layer_1" xmlns="http://www.w3.org/2000/svg" xmlns:xlink="http://www.w3.org/1999/xlink" x="0px" y="0px"
	 width="50px" height="50px" viewBox="0 0 50 50" enable-background="new 0 0 50 50" xml:space="preserve">
<g>
	<path d="M34.717,29.195v-0.883v-5.3v-5.3c0-0.485-0.398-0.883-0.884-0.883H16.168c-0.486,0-0.885,0.396-0.885,0.883v5.3v5.3v0.883
		l-2.207,2.65c0,0.73,0.593,1.324,1.324,1.324H35.6c0.731,0,1.324-0.594,1.324-1.324L34.717,29.195z M26.768,32.729h-3.533
		c-0.123,0-0.221-0.098-0.221-0.221s0.098-0.221,0.221-0.221h3.533c0.121,0,0.221,0.098,0.221,0.221
		C26.986,32.631,26.889,32.729,26.768,32.729z M21.359,31.846l0.674-0.809h5.934l0.674,0.809H21.359z M33.473,27.633
		c0,0.426-0.347,0.771-0.77,0.771H17.297c-0.423,0-0.77-0.348-0.77-0.771v-9.24c0-0.426,0.347-0.771,0.77-0.771h15.406
		c0.423,0,0.77,0.347,0.77,0.771V27.633z"/>
	<path d="M27.488,22.168l0.764-1.145l-0.848-0.851l-1.146,0.765c-0.121-0.062-0.255-0.102-0.385-0.146L25.6,19.426H24.4
		l-0.273,1.365c-0.131,0.046-0.264,0.085-0.385,0.146l-1.146-0.765l-0.848,0.849l0.764,1.146c-0.063,0.125-0.115,0.254-0.16,0.389
		L21,22.829v1.199l1.352,0.271c0.045,0.136,0.097,0.265,0.16,0.39l-0.765,1.146l0.849,0.848l1.146-0.764
		c0.121,0.061,0.254,0.1,0.385,0.146L24.4,27.43H25.6l0.272-1.365c0.13-0.045,0.265-0.084,0.385-0.146l1.146,0.764l0.849-0.848
		l-0.765-1.146c0.064-0.125,0.115-0.254,0.16-0.39l1.352-0.271l0.001-1.199l-1.353-0.271C27.604,22.422,27.553,22.293,27.488,22.168
		z M25,24.828c-0.773,0-1.4-0.628-1.4-1.4s0.627-1.399,1.4-1.399s1.4,0.627,1.4,1.399S25.773,24.828,25,24.828z"/>
</g>
</svg>
