<?xml version="1.0" encoding="utf-8"?>
<!-- Generator: Adobe Illustrator 16.0.4, SVG Export Plug-In . SVG Version: 6.00 Build 0)  -->
<!DOCTYPE svg PUBLIC "-//W3C//DTD SVG 1.1//EN" "http://www.w3.org/Graphics/SVG/1.1/DTD/svg11.dtd">
<svg version="1.1" id="Layer_1" xmlns="http://www.w3.org/2000/svg" xmlns:xlink="http://www.w3.org/1999/xlink" x="0px" y="0px"
	 width="50px" height="50px" viewBox="0 0 50 50" enable-background="new 0 0 50 50" xml:space="preserve">
<g>
	<path d="M34.717,29.312v-5.3v-0.022c1.312-0.756,2.207-2.157,2.207-3.782c0-2.416-1.961-4.377-4.379-4.377
		c-1.539,0-2.888,0.799-3.669,2H16.168c-0.486,0-0.885,0.396-0.885,0.883v5.3v5.3v0.883l-2.207,2.65c0,0.73,0.593,1.324,1.324,1.324
		H35.6c0.731,0,1.324-0.594,1.324-1.324l-2.207-2.65V29.312z M33.285,17.115l-0.204,4.223h-1.063l-0.215-4.223H33.285z
		 M32.549,21.804c0.494,0,0.82,0.354,0.83,0.848c0,0.484-0.326,0.848-0.83,0.848s-0.839-0.364-0.839-0.848
		C31.71,22.158,32.057,21.804,32.549,21.804z M26.768,33.729h-3.533c-0.123,0-0.221-0.1-0.221-0.223
		c0-0.121,0.098-0.219,0.221-0.219h3.533c0.121,0,0.221,0.098,0.221,0.219C26.986,33.631,26.889,33.729,26.768,33.729z
		 M21.359,32.846l0.674-0.809h5.934l0.674,0.809H21.359z M33.473,28.633c0,0.425-0.347,0.771-0.77,0.771H17.297
		c-0.423,0-0.77-0.347-0.77-0.771v-9.241c0-0.425,0.347-0.771,0.77-0.771h11.178c-0.192,0.493-0.309,1.025-0.309,1.587
		c0,2.42,1.962,4.38,4.379,4.38c0.319,0,0.628-0.038,0.928-0.103V28.633L33.473,28.633z"/>
</g>
</svg>
