<?xml version="1.0" encoding="utf-8"?>
<!-- Generator: Adobe Illustrator 16.0.4, SVG Export Plug-In . SVG Version: 6.00 Build 0)  -->
<!DOCTYPE svg PUBLIC "-//W3C//DTD SVG 1.1//EN" "http://www.w3.org/Graphics/SVG/1.1/DTD/svg11.dtd">
<svg version="1.1" id="Layer_1" xmlns="http://www.w3.org/2000/svg" xmlns:xlink="http://www.w3.org/1999/xlink" x="0px" y="0px"
	 width="50px" height="50px" viewBox="0 0 50 50" enable-background="new 0 0 50 50" xml:space="preserve">
<path d="M34.717,29.312v-5.301v-0.022c1.312-0.757,2.207-2.157,2.207-3.782c0-2.416-1.961-4.377-4.379-4.377
	c-1.539,0-2.888,0.799-3.669,2H16.168c-0.486,0-0.885,0.396-0.885,0.883v5.301v5.299v0.883l-2.207,2.65
	c0,0.73,0.593,1.324,1.324,1.324H35.6c0.731,0,1.324-0.594,1.324-1.324l-2.207-2.65V29.312z M29.085,17.989l1.242-1.24l2.218,2.219
	l2.219-2.219l1.24,1.24l-2.217,2.217l2.217,2.219l-1.24,1.244l-2.219-2.219l-2.218,2.219l-1.242-1.244l2.22-2.219L29.085,17.989z
	 M26.768,33.729h-3.533c-0.123,0-0.221-0.1-0.221-0.223c0-0.121,0.098-0.219,0.221-0.219h3.533c0.121,0,0.221,0.098,0.221,0.219
	C26.986,33.631,26.889,33.729,26.768,33.729z M21.359,32.846l0.674-0.809h5.934l0.674,0.809H21.359z M33.473,28.633
	c0,0.426-0.347,0.771-0.77,0.771H17.297c-0.423,0-0.77-0.348-0.77-0.771v-9.241c0-0.426,0.347-0.771,0.77-0.771h11.178
	c-0.192,0.493-0.309,1.025-0.309,1.587c0,2.42,1.962,4.38,4.379,4.38c0.319,0,0.628-0.038,0.928-0.104V28.633L33.473,28.633z"/>
</svg>
