<?xml version="1.0" encoding="utf-8"?>
<!-- Generator: Adobe Illustrator 16.0.4, SVG Export Plug-In . SVG Version: 6.00 Build 0)  -->
<!DOCTYPE svg PUBLIC "-//W3C//DTD SVG 1.1//EN" "http://www.w3.org/Graphics/SVG/1.1/DTD/svg11.dtd">
<svg version="1.1" id="Layer_1" xmlns="http://www.w3.org/2000/svg" xmlns:xlink="http://www.w3.org/1999/xlink" x="0px" y="0px"
	 width="50px" height="50px" viewBox="0 0 50 50" enable-background="new 0 0 50 50" xml:space="preserve">
<path d="M34.717,29.195v-0.883v-5.3v-5.3c0-0.485-0.397-0.883-0.883-0.883H16.168c-0.486,0-0.885,0.396-0.885,0.883v5.3v5.3v0.883
	l-2.207,2.65c0,0.73,0.593,1.324,1.324,1.324H35.6c0.73,0,1.324-0.594,1.324-1.324L34.717,29.195z M26.768,32.729h-3.533
	c-0.122,0-0.221-0.098-0.221-0.221s0.099-0.221,0.221-0.221h3.533c0.122,0,0.221,0.098,0.221,0.221
	C26.987,32.631,26.89,32.729,26.768,32.729z M21.359,31.846l0.674-0.809h5.933l0.675,0.809H21.359z M33.474,27.633
	c0,0.426-0.347,0.771-0.771,0.771h-2.258c-0.076-0.055-0.141-0.121-0.229-0.168c-0.957-0.49-1.946-0.896-2.947-1.281
	c-0.075-0.027-0.164-0.084-0.193-0.15c-0.082-0.18-0.139-0.371-0.197-0.561c-0.037-0.121-0.068-0.234-0.201-0.293
	c-0.036-0.018-0.068-0.086-0.068-0.131c0.008-0.439-0.094-0.901,0.23-1.284c0.011-0.013,0.015-0.029,0.021-0.044
	c0.176-0.385,0.207-0.824,0.453-1.182c0.006-0.01,0.008-0.021,0.008-0.031c0.028-0.272,0.059-0.547,0.082-0.818
	c0.002-0.034-0.027-0.094-0.057-0.104c-0.135-0.049-0.129-0.157-0.127-0.267c0.001-0.534,0-1.067,0-1.603
	c0-0.309-0.092-0.586-0.326-0.797c-0.268-0.239-0.541-0.473-0.814-0.703c-0.133-0.112-0.146-0.198-0.021-0.321
	c0.055-0.056,0.126-0.095,0.189-0.14c-0.015-0.021-0.029-0.041-0.041-0.062c-0.084,0-0.168-0.011-0.25,0.002
	c-0.303,0.049-0.606,0.092-0.905,0.161c-0.569,0.136-1.122,0.312-1.583,0.692c-0.317,0.262-0.568,0.564-0.6,0.994
	c-0.017,0.224-0.014,0.451-0.016,0.676c-0.002,0.367,0.002,0.732-0.004,1.1c-0.001,0.061-0.036,0.157-0.077,0.171
	c-0.148,0.048-0.152,0.144-0.132,0.267c0.014,0.086,0.002,0.175,0.022,0.258c0.051,0.229,0.105,0.458,0.171,0.685
	c0.049,0.168,0.145,0.326,0.171,0.497c0.053,0.342,0.18,0.639,0.41,0.896c0.038,0.043,0.067,0.115,0.062,0.171
	c-0.018,0.263-0.044,0.524-0.08,0.786c-0.007,0.051-0.062,0.127-0.105,0.137c-0.174,0.035-0.202,0.172-0.244,0.307
	c-0.055,0.18-0.113,0.357-0.183,0.533c-0.022,0.053-0.076,0.107-0.129,0.133c-0.311,0.135-0.626,0.26-0.939,0.391
	c-0.333,0.141-0.669,0.273-0.994,0.43c-0.335,0.158-0.66,0.342-0.987,0.516c-0.076,0.041-0.136,0.098-0.207,0.143h-2.311
	c-0.423,0-0.77-0.348-0.77-0.771v-9.24c0-0.426,0.347-0.771,0.77-0.771h15.406c0.424,0,0.771,0.347,0.771,0.771V27.633z"/>
</svg>
