<?xml version="1.0" encoding="utf-8"?>
<!-- Generator: Adobe Illustrator 16.0.4, SVG Export Plug-In . SVG Version: 6.00 Build 0)  -->
<!DOCTYPE svg PUBLIC "-//W3C//DTD SVG 1.1//EN" "http://www.w3.org/Graphics/SVG/1.1/DTD/svg11.dtd">
<svg version="1.1" id="Layer_1" xmlns="http://www.w3.org/2000/svg" xmlns:xlink="http://www.w3.org/1999/xlink" x="0px" y="0px"
	 width="50px" height="50px" viewBox="0 0 50 50" enable-background="new 0 0 50 50" xml:space="preserve">
<g>
	<path d="M34.717,29.195v-0.883v-5.3v-5.3c0-0.485-0.397-0.883-0.883-0.883H16.168c-0.486,0-0.885,0.396-0.885,0.883v5.3v5.3v0.883
		l-2.207,2.65c0,0.73,0.593,1.324,1.324,1.324H35.6c0.73,0,1.324-0.594,1.324-1.324L34.717,29.195z M26.768,32.729h-3.533
		c-0.122,0-0.221-0.098-0.221-0.221s0.099-0.221,0.221-0.221h3.533c0.122,0,0.221,0.098,0.221,0.221
		C26.987,32.631,26.89,32.729,26.768,32.729z M21.359,31.846l0.674-0.809h5.933l0.675,0.809H21.359z M33.474,27.633
		c0,0.426-0.347,0.771-0.771,0.771H17.297c-0.423,0-0.77-0.348-0.77-0.771v-9.24c0-0.426,0.347-0.771,0.77-0.771h15.406
		c0.424,0,0.771,0.347,0.771,0.771V27.633z"/>
	<path d="M18.689,22.946l0.854,0.771c1.392-1.541,3.38-2.424,5.455-2.424c2.076,0,4.063,0.885,5.457,2.426l0.854-0.772
		c-1.609-1.782-3.91-2.805-6.311-2.805C22.601,20.141,20.299,21.163,18.689,22.946z"/>
	<path d="M20.293,24.395l0.855,0.773c0.982-1.088,2.388-1.711,3.851-1.711c1.463,0,2.868,0.623,3.85,1.711l0.855-0.771
		c-1.201-1.33-2.916-2.092-4.706-2.092C23.209,22.305,21.495,23.067,20.293,24.395z"/>
	<path d="M22.005,25.939l0.855,0.773c1.091-1.209,3.187-1.209,4.277,0l0.854-0.773c-0.763-0.846-1.854-1.33-2.994-1.33
		S22.769,25.094,22.005,25.939z"/>
</g>
</svg>
