<?xml version="1.0" encoding="utf-8"?>
<!-- Generator: Adobe Illustrator 16.0.4, SVG Export Plug-In . SVG Version: 6.00 Build 0)  -->
<!DOCTYPE svg PUBLIC "-//W3C//DTD SVG 1.1//EN" "http://www.w3.org/Graphics/SVG/1.1/DTD/svg11.dtd">
<svg version="1.1" id="Layer_1" xmlns="http://www.w3.org/2000/svg" xmlns:xlink="http://www.w3.org/1999/xlink" x="0px" y="0px"
	 width="50px" height="50px" viewBox="0 0 50 50" enable-background="new 0 0 50 50" xml:space="preserve">
<g>
	<path d="M34.717,29.195v-0.883v-5.3v-5.3c0-0.485-0.398-0.883-0.884-0.883H16.168c-0.486,0-0.885,0.396-0.885,0.883v5.3v5.3v0.883
		l-2.207,2.65c0,0.73,0.593,1.324,1.324,1.324H35.6c0.731,0,1.324-0.594,1.324-1.324L34.717,29.195z M26.768,32.729h-3.533
		c-0.123,0-0.221-0.098-0.221-0.221s0.098-0.221,0.221-0.221h3.533c0.121,0,0.221,0.098,0.221,0.221
		C26.986,32.631,26.889,32.729,26.768,32.729z M21.359,31.846l0.674-0.809h5.934l0.674,0.809H21.359z M33.473,27.633
		c0,0.426-0.347,0.771-0.77,0.771H17.297c-0.423,0-0.77-0.348-0.77-0.771v-9.24c0-0.426,0.347-0.771,0.77-0.771h15.406
		c0.423,0,0.77,0.347,0.77,0.771V27.633z"/>
	<path d="M21.609,27.834h6.779v-8.812h-6.779V27.834z M28.051,27.324h-2.033l2.033-2.033V27.324z M25,19.53
		c1.686,0,3.051,1.365,3.051,3.051c0,1.684-1.365,3.05-3.051,3.05c-0.225,0-0.441-0.029-0.652-0.074
		c0.144-0.294,0.295-0.613,0.437-0.912l0.202-0.429l-0.428,0.203c-0.447,0.212-0.94,0.448-1.324,0.642
		c-0.774-0.555-1.284-1.455-1.284-2.479C21.949,20.895,23.314,19.53,25,19.53z M23.672,26.49c-0.008,0.008-0.02,0.01-0.027,0.018
		l-0.949-0.951c0.009-0.008,0.011-0.018,0.019-0.023c0.099-0.099,1.917-0.959,1.917-0.959S23.77,26.393,23.672,26.49z
		 M21.949,25.292l2.033,2.033h-2.033V25.292z"/>
	<path d="M25,23.596c0.562,0,1.018-0.455,1.018-1.016c0-0.562-0.455-1.018-1.018-1.018s-1.018,0.455-1.018,1.018
		C23.982,23.141,24.438,23.596,25,23.596z M25,21.901c0.375,0,0.678,0.305,0.678,0.68c0,0.373-0.303,0.678-0.678,0.678
		s-0.678-0.305-0.678-0.678C24.322,22.206,24.625,21.901,25,21.901z"/>
</g>
</svg>
