<?xml version="1.0" encoding="utf-8"?>
<!-- Generator: Adobe Illustrator 16.0.4, SVG Export Plug-In . SVG Version: 6.00 Build 0)  -->
<!DOCTYPE svg PUBLIC "-//W3C//DTD SVG 1.1//EN" "http://www.w3.org/Graphics/SVG/1.1/DTD/svg11.dtd">
<svg version="1.1" id="Layer_1" xmlns="http://www.w3.org/2000/svg" xmlns:xlink="http://www.w3.org/1999/xlink" x="0px" y="0px"
	 width="50px" height="50px" viewBox="0 0 50 50" enable-background="new 0 0 50 50" xml:space="preserve">
<g>
	<path d="M34.717,29.195v-0.883v-5.3v-5.3c0-0.485-0.397-0.883-0.883-0.883H16.168c-0.486,0-0.885,0.396-0.885,0.883v5.3v5.3v0.883
		l-2.207,2.65c0,0.73,0.593,1.324,1.324,1.324H35.6c0.73,0,1.324-0.594,1.324-1.324L34.717,29.195z M26.768,32.729h-3.533
		c-0.122,0-0.221-0.098-0.221-0.221s0.099-0.221,0.221-0.221h3.533c0.122,0,0.221,0.098,0.221,0.221
		C26.987,32.631,26.89,32.729,26.768,32.729z M21.359,31.846l0.674-0.809h5.933l0.675,0.809H21.359z M33.474,27.633
		c0,0.426-0.347,0.771-0.771,0.771h-7.025v-1.686c0-0.018-0.008-0.035-0.012-0.055h-1.331c-0.003,0.02-0.011,0.037-0.011,0.055
		v1.686h-7.027c-0.423,0-0.77-0.348-0.77-0.771v-9.24c0-0.426,0.347-0.771,0.77-0.771h15.406c0.424,0,0.771,0.347,0.771,0.771
		V27.633L33.474,27.633z"/>
	<path d="M23.36,22.546c0.315,0,0.571,0.058,0.571-0.259v-2.282c0-0.317-0.256-0.573-0.571-0.573c-0.316,0-0.573,0.256-0.573,0.573
		v2.282C22.788,22.604,23.044,22.546,23.36,22.546z"/>
	<path d="M26.643,22.541c0.316,0,0.572,0.063,0.572-0.253v-2.282c0-0.317-0.256-0.573-0.572-0.573c-0.314,0-0.571,0.256-0.571,0.573
		v2.282C26.07,22.604,26.326,22.541,26.643,22.541z"/>
	<path d="M27.695,22.858h-5.377c-0.22,0-0.348-0.071-0.361-0.174c-0.017,0.057-0.024,0.121-0.024,0.201v2.493
		c0,0.661,0.552,1.2,1.227,1.2h3.683c0.673,0,1.227-0.539,1.227-1.2v-2.493c0-0.07-0.01-0.128-0.021-0.18
		C28.019,22.796,27.899,22.858,27.695,22.858z"/>
</g>
</svg>
