<?xml version="1.0" encoding="utf-8"?>
<!-- Generator: Adobe Illustrator 16.0.4, SVG Export Plug-In . SVG Version: 6.00 Build 0)  -->
<!DOCTYPE svg PUBLIC "-//W3C//DTD SVG 1.1//EN" "http://www.w3.org/Graphics/SVG/1.1/DTD/svg11.dtd">
<svg version="1.1" id="Layer_1" xmlns="http://www.w3.org/2000/svg" xmlns:xlink="http://www.w3.org/1999/xlink" x="0px" y="0px"
	 width="50px" height="50px" viewBox="0 0 50 50" enable-background="new 0 0 50 50" xml:space="preserve">
<g>
	<path d="M34.717,29.195v-0.883v-5.3v-5.3c0-0.485-0.398-0.883-0.884-0.883H16.168c-0.486,0-0.885,0.396-0.885,0.883v5.3v5.3v0.883
		l-2.207,2.65c0,0.73,0.593,1.324,1.324,1.324H35.6c0.731,0,1.324-0.594,1.324-1.324L34.717,29.195z M26.768,32.729h-3.533
		c-0.123,0-0.221-0.098-0.221-0.221s0.098-0.221,0.221-0.221h3.533c0.121,0,0.221,0.098,0.221,0.221
		C26.986,32.631,26.889,32.729,26.768,32.729z M21.359,31.846l0.674-0.809h5.934l0.674,0.809H21.359z M33.473,27.633
		c0,0.426-0.347,0.771-0.77,0.771H17.297c-0.423,0-0.77-0.348-0.77-0.771v-9.24c0-0.426,0.347-0.771,0.77-0.771h15.406
		c0.423,0,0.77,0.347,0.77,0.771V27.633z"/>
	<path d="M26.562,23.634l-2.17-2.17c0.183-0.537,0.064-1.151-0.361-1.578c-0.399-0.399-0.965-0.524-1.473-0.395l0.934,0.934
		l0.054,0.493l-0.657,0.655l-0.49-0.056l-0.935-0.932c-0.132,0.51-0.006,1.073,0.394,1.473c0.429,0.428,1.043,0.543,1.58,0.361
		l2.168,2.17c-0.182,0.537-0.063,1.15,0.362,1.578c0.399,0.398,0.964,0.525,1.474,0.395l-0.935-0.934l-0.054-0.492l0.654-0.656
		l0.494,0.055l0.934,0.933c0.133-0.509,0.006-1.071-0.395-1.473C27.714,23.569,27.1,23.453,26.562,23.634z"/>
</g>
</svg>
