<?xml version="1.0" encoding="utf-8"?>
<!-- Generator: Adobe Illustrator 16.0.4, SVG Export Plug-In . SVG Version: 6.00 Build 0)  -->
<!DOCTYPE svg PUBLIC "-//W3C//DTD SVG 1.1//EN" "http://www.w3.org/Graphics/SVG/1.1/DTD/svg11.dtd">
<svg version="1.1" id="Layer_1" xmlns="http://www.w3.org/2000/svg" xmlns:xlink="http://www.w3.org/1999/xlink" x="0px" y="0px"
	 width="50px" height="50px" viewBox="0 0 50 50" enable-background="new 0 0 50 50" xml:space="preserve">
<g>
	<path d="M34.717,32.314v-0.883v-5.301v-5.3c0-0.485-0.397-0.883-0.883-0.883H16.168c-0.486,0-0.885,0.396-0.885,0.883v5.3v5.301
		v0.883l-2.207,2.65c0,0.73,0.593,1.324,1.324,1.324H35.6c0.73,0,1.324-0.594,1.324-1.324L34.717,32.314z M26.768,35.848h-3.533
		c-0.122,0-0.221-0.099-0.221-0.222c0-0.122,0.099-0.22,0.221-0.22h3.533c0.122,0,0.221,0.098,0.221,0.22
		C26.987,35.75,26.89,35.848,26.768,35.848z M21.359,34.965l0.674-0.809h5.933l0.675,0.809H21.359z M33.474,30.752
		c0,0.426-0.347,0.771-0.771,0.771H17.297c-0.423,0-0.77-0.348-0.77-0.771v-9.24c0-0.426,0.347-0.771,0.77-0.771h15.406
		c0.424,0,0.771,0.347,0.771,0.771V30.752z"/>
	<path d="M23.381,28.99c0.016,0.009,0.032,0.018,0.048,0.027c-0.012-0.015-0.021-0.027-0.028-0.043
		C23.391,28.977,23.385,28.98,23.381,28.99z"/>
	<path d="M23.028,23.686c-0.01,0.009-0.02,0.018-0.029,0.024c0.022-0.013,0.04-0.021,0.072-0.022
		C23.06,23.682,23.042,23.686,23.028,23.686z"/>
	<path d="M23.108,23.619c-0.006,0.006-0.013,0.009-0.019,0.014c0.002,0,0.003,0,0.004,0c-0.024,0.014-0.064,0.049-0.075,0.055
		c0.002,0,0.006,0,0.009,0c0.027-0.021,0.052-0.045,0.08-0.065C23.107,23.62,23.108,23.62,23.108,23.619z"/>
	<path d="M22.974,23.723c-0.007,0.008-0.014,0.014-0.021,0.018c0.005-0.001,0.01-0.002,0.016-0.002
		c0.003-0.003,0.006-0.005,0.009-0.008C22.977,23.727,22.979,23.723,22.974,23.723z"/>
	<path d="M22.981,23.717c0.004,0,0.006,0.002,0.01,0c0.002-0.002,0.005-0.004,0.007-0.006
		C22.994,23.715,22.987,23.712,22.981,23.717z"/>
	<path d="M21.843,25.618c0.086-0.456,0.272-0.896,0.543-1.271C22.121,24.721,21.932,25.15,21.843,25.618z"/>
	<path d="M21.837,25.637c0.001,0,0.002,0.006,0.003,0.006c0.001-0.008,0.001-0.017,0.002-0.023
		C21.842,25.624,21.838,25.63,21.837,25.637z"/>
	<path d="M22.856,23.823c-0.007,0.007-0.012,0.015-0.02,0.021c0.032-0.027,0.066-0.054,0.099-0.08
		C22.908,23.78,22.88,23.803,22.856,23.823z"/>
	<path d="M22.391,24.342c-0.001,0.002-0.002,0.004-0.003,0.006c0.007-0.008,0.015-0.017,0.021-0.025
		C22.402,24.329,22.396,24.334,22.391,24.342z"/>
	<path d="M22.409,24.321c0.127-0.173,0.271-0.332,0.429-0.478C22.678,23.989,22.536,24.148,22.409,24.321z"/>
	<path d="M27.898,25.064c0.031,0.062,0.105,0.096,0.129,0.158c0.008-0.002,0.01-0.008,0.01-0.014
		C28.019,25.154,28,25.1,27.979,25.046C27.928,24.998,27.846,24.957,27.898,25.064z"/>
	<path d="M27.951,24.967c-0.054-0.127-0.117-0.248-0.187-0.367C27.84,24.715,27.896,24.84,27.951,24.967z"/>
	<path d="M28.146,25.58c-0.013-0.064-0.026-0.127-0.043-0.189C28.119,25.452,28.131,25.516,28.146,25.58z"/>
	<path d="M27.681,24.467c-0.128-0.195-0.272-0.371-0.437-0.533C27.408,24.094,27.553,24.273,27.681,24.467z"/>
	<polygon points="23.757,23.516 23.766,23.516 23.768,23.514 	"/>
	<path d="M27.853,25.752c-0.045-0.088-0.067-0.148-0.129-0.23c-0.045-0.061-0.108-0.108-0.126-0.188
		c-0.029-0.129-0.242-0.206-0.247-0.349c-0.002-0.021-0.056-0.12-0.05-0.125c0.013-0.009,0.008-0.063,0.01-0.079
		c0.003-0.055,0.016-0.094,0.001-0.148c-0.115,0.031-0.211-0.015-0.328-0.025c0.004-0.002,0.009-0.004,0.011-0.008
		c-0.035-0.029-0.058-0.055-0.099-0.074c0.044-0.045,0-0.027-0.007-0.057c-0.01-0.039,0.097-0.021,0.117-0.029
		c-0.004-0.004-0.017-0.012-0.016-0.016c-0.041-0.007-0.035,0.036-0.082,0.002c-0.037-0.024-0.041-0.009-0.076-0.002
		c0.006,0.01,0.008,0.016,0.006,0.025c0,0-0.057-0.04-0.051-0.012c0.034,0.035,0.053,0.066,0.092,0.102
		c-0.022,0.012-0.043-0.002-0.063-0.021c0.001,0.01,0.013,0.062,0.021,0.065c-0.047-0.006-0.074-0.028-0.056-0.067
		c-0.036-0.004-0.112-0.08-0.12-0.117c-0.012-0.065-0.103-0.074-0.109-0.118c-0.016,0-0.203-0.13-0.198-0.093
		c0.008,0.061,0.106,0.144,0.167,0.148c0.009,0.049,0.104,0.036,0.104,0.09c-0.088-0.021-0.055-0.029-0.043,0.033
		c-0.002-0.007-0.052,0.069-0.059,0.03c0.092,0.009-0.205-0.224-0.191-0.197c-0.066-0.067-0.078-0.093-0.164-0.048
		c-0.043,0.021-0.184-0.055-0.146,0.04c-0.002,0.007-0.195,0.091-0.111,0.127c-0.025,0.037-0.066,0.065-0.103,0.08
		c-0.042-0.017-0.122,0.045-0.147,0.005c-0.031-0.049-0.052-0.031-0.104-0.034c-0.053-0.004-0.008-0.179-0.008-0.202
		c0-0.033-0.027-0.078,0.041-0.072c0.06,0.006,0.115,0.021,0.175,0.023c0.065-0.008,0.09,0.016,0.086-0.074
		c-0.002,0.002-0.002,0.002-0.002,0.002c0.038-0.065-0.14-0.086-0.14-0.119c0-0.023,0.104-0.002,0.117-0.004
		c0-0.015-0.008-0.021-0.008-0.035c0.083,0.007,0.094-0.023,0.167-0.039c0.06-0.014,0.05-0.077,0.122-0.07
		c0.021,0.001,0.098,0.005,0.079-0.025c-0.042-0.074-0.041-0.074,0.036-0.104c0.003,0.021,0.015,0.029,0.02,0.039
		c-0.003,0-0.007,0.014-0.011,0.027c0.015,0.002,0.024,0.009,0.021,0.026c-0.002-0.013-0.016-0.007-0.024-0.011
		c-0.003,0.018-0.005,0.029-0.002,0.021c0.04,0.004,0.085,0,0.125,0.006c-0.007,0.047,0.142-0.006,0.177,0.008
		c-0.002,0.004-0.003,0.008-0.003,0.008c0.015,0.003,0.03,0.003,0.044,0.003c-0.012-0.079,0.133-0.11,0.133-0.09
		c0-0.021-0.064-0.043-0.046-0.052c0.056-0.029,0.12,0.015,0.179-0.008c-0.021-0.024-0.303-0.018-0.261-0.069
		c-0.024-0.007-0.021-0.022-0.032-0.037c0.01,0.001,0.125-0.042,0.125-0.046c-0.022-0.057-0.115-0.008-0.125,0.008
		c0.008,0.025-0.119,0.016-0.115,0.055c0.009,0.041,0.059,0.028,0.068,0.065c0.002,0.009-0.125,0.062-0.045,0.073
		c0.002,0.031-0.095,0.056-0.117,0.055c-0.019-0.002-0.057-0.077-0.065-0.091c-0.024-0.037-0.035-0.062-0.076-0.038
		c-0.015,0.01-0.134,0.04-0.138-0.003c0-0.013,0.02,0,0.019-0.021c-0.017-0.002-0.017-0.002-0.03,0
		c0.004-0.007,0.01-0.011,0.018-0.016c-0.084-0.059,0.076-0.089,0.113-0.085c-0.014-0.002-0.019-0.003-0.028-0.007
		c0.022,0,0.21-0.075,0.216-0.096c-0.025,0.002-0.035,0.006-0.061,0.004c0.004-0.002,0.015-0.004,0.02-0.004
		c-0.006,0-0.018-0.002-0.018-0.002c0.004-0.013,0.086-0.004,0.088-0.005c-0.008-0.001-0.008-0.001-0.018-0.001
		c0.016-0.006,0.029-0.007,0.043-0.005c-0.006-0.002-0.004-0.002-0.01-0.004c0.039-0.013,0.086,0,0.127-0.006
		c-0.029-0.005,0.072-0.022,0.062,0.006c0.041,0.004,0.084,0.021,0.129,0.039c-0.499-0.315-1.09-0.5-1.723-0.5
		c-0.71,0-1.36,0.237-1.893,0.627c0,0.004,0,0.007-0.001,0.009c0.006-0.001,0.01,0.002,0.007,0.014
		c0.04-0.012,0.105,0.014,0.098,0.014c0.038-0.002,0.077-0.062,0.129-0.043c-0.003-0.001-0.046,0.025-0.05,0.033
		c-0.019,0.039,0.003,0.017,0.031,0.037c-0.014,0.004-0.041,0-0.053,0.01c0.003-0.001,0.008,0.01,0.008,0.01
		c-0.037,0.018-0.256,0.021-0.267,0.016c-0.001-0.002-0.011-0.002-0.019-0.002c-0.005,0.004-0.01,0.01-0.015,0.014
		c0,0.002,0.004,0,0.003,0.006c-0.003,0.001-0.008,0.001-0.013,0.002c-0.011,0.009-0.021,0.017-0.032,0.025
		c0.04-0.023,0.082-0.039,0.133-0.021c0.015,0.004,0.06,0,0.083-0.021h-0.002c-0.014,0-0.058,0.01-0.051,0.004
		c0.006-0.004,0.025-0.006,0.051-0.004c0.002-0.002,0.004-0.002,0.004-0.002l-0.001,0.002c0.068,0.002,0.176,0.016,0.215,0.004
		c-0.006,0.006-0.009,0.008,0.008,0.006c0.028-0.022,0.072-0.016,0.084-0.034c-0.009,0.003-0.015,0.005-0.024,0.006
		c0.009-0.004,0.016-0.008,0.024-0.013c0.008-0.008-0.039-0.01-0.031-0.018c0.03-0.021,0.137-0.022,0.112-0.006
		c-0.011,0.004-0.022,0.01-0.034,0.012c0.002,0.006,0.026,0.002,0.034,0.004c-0.035,0.011,0.008,0.002-0.016,0.021
		c-0.004,0,0.089-0.021,0.071-0.008c-0.022-0.001-0.032,0.008-0.028,0.023c0.026,0.024,0.104-0.043,0.124-0.05
		c0,0-0.159-0.002-0.14-0.018c0.022,0.009,0.042,0.008,0.058-0.005c-0.006-0.004-0.055-0.004-0.055-0.004
		c-0.01-0.021,0.059-0.029,0.071-0.037c-0.019,0.008-0.053,0.005-0.073,0.015c0.003,0,0.007,0,0.011,0
		c-0.017,0.009-0.034,0.015-0.053,0.013c0.057-0.039,0.085-0.037,0.163-0.043c-0.012,0.008-0.024,0.01-0.038,0.014
		c0.037-0.006,0.07-0.006,0.106-0.004c-0.013,0.002-0.076,0.018-0.057,0.018c-0.041,0.02,0.133-0.04,0.144-0.012
		c0.001,0.005-0.007,0.019-0.011,0.019c0.074,0.001,0.135,0.022,0.205,0.026c0,0.002-0.001,0.002-0.002,0.004
		c0.008-0.002,0.016,0,0.022,0.007c-0.008,0.002-0.016,0.001-0.021,0.005c0.008-0.001,0.017-0.001,0.024,0.004
		c-0.01,0.002-0.014,0.002-0.022,0.01c0.006,0.002,0.092,0.029,0.09,0.031c-0.005,0.039-0.068,0.022-0.1,0.02
		c-0.004,0.006-0.009,0-0.013,0.012c0.017-0.001,0.023,0.021,0.047,0.018c-0.018,0.059-0.016,0.025-0.083,0.036
		c0-0.001,0.074,0.034,0.035,0.044c-0.05,0.012-0.109-0.025-0.139-0.039c-0.013-0.009-0.144,0.008-0.139,0
		c0.028-0.037,0.104-0.025,0.145-0.043c-0.031-0.012,0.083-0.033,0.045-0.062c-0.001,0.024-0.062,0.01-0.062,0.009
		c0.016-0.012,0.033-0.016,0.052-0.014c-0.011-0.006-0.055-0.008-0.057-0.006c0.008-0.002,0.016-0.004,0.023-0.006
		c-0.005-0.004-0.011-0.008-0.018-0.008c0.001,0,0.002-0.002,0.002-0.002c-0.019-0.01-0.091,0.01-0.077-0.002
		c-0.011,0-0.03,0-0.052,0c0.016,0.002,0.034,0.01,0.049,0.01c-0.03,0.025-0.089,0.055-0.151,0.07
		c0.013-0.003,0.008,0.002,0.009,0.008c-0.012,0-0.015-0.004-0.01-0.008c-0.011,0.002-0.021,0.008-0.032,0.01
		c0,0.002,0.001,0.004,0,0.008c0.01-0.004,0.054,0.002,0.058,0.012c0,0.005-0.005,0.009-0.003,0.01
		c0.008,0.007,0.029,0.003,0.032,0.01c-0.044,0.012-0.119,0.02-0.163,0.021c-0.011,0.001-0.003-0.005,0.005-0.011
		c-0.013,0-0.032,0.002-0.04,0.002c0.015-0.012,0.055-0.035,0.085-0.047c-0.034,0.004-0.066,0.004-0.092-0.004
		c-0.004,0.014,0.03,0.01,0.056,0.014c-0.037,0.031-0.133,0.041-0.189,0.037c0.005,0.002,0.01,0.004,0.014,0.008
		c-0.049,0.045-0.167,0.08-0.23,0.123c0.048-0.008,0.043,0.01,0.012,0.042c0.113-0.005,0.102,0.062,0.194,0.059
		c0.031,0.022-0.014,0.052-0.018,0.067c0.011-0.004,0.027-0.001,0.021,0.009c0.008,0.004,0.012,0.008,0.038,0.007
		c0.044-0.049-0.007-0.068,0.08-0.104c0.108-0.045,0.029-0.045,0.027-0.102c0.118-0.025,0.07-0.13,0.227-0.056
		c0.045,0.022,0.18,0.062,0.213,0c-0.012,0.021,0.001,0.021,0.006,0.026c0.042-0.021,0.105,0.069,0.043,0.09
		c0.011,0.007,0.021,0.017,0.048,0.017l-0.001,0.001c-0.022,0.039,0.092,0.028,0.082,0.039c-0.016,0.016-0.09,0.021-0.121,0.031
		c0.002,0.018,0.134-0.018,0.146-0.021c0.04,0.135-0.364,0.121-0.448,0.188c0.01-0.001,0.214-0.048,0.197-0.019
		c-0.014,0.022-0.052,0.019-0.073,0.031c0.012,0,0.025,0.002,0.032,0.002c-0.073,0.09,0.09,0.079,0.082,0.094
		c-0.013,0.027-0.152,0.049-0.184,0.065c-0.051,0.026,0.003-0.06,0.071-0.062c-0.018,0.002-0.021-0.004-0.011-0.019
		c-0.052,0.002-0.138,0.062-0.18,0.052c-0.043-0.008-0.175,0.103-0.103,0.1c-0.045,0.018-0.111,0.014-0.161,0.035
		c0.01,0,0.038-0.006,0.045,0c-0.028,0.009-0.149,0.053-0.142,0.069c-0.022,0.015-0.03,0.085-0.073,0.083
		c0.002,0.001,0.017-0.062,0.019-0.064c-0.009,0.009-0.046,0.072-0.043,0.082c0.003,0,0.007,0,0.009,0
		c-0.005,0.016-0.017,0.025-0.034,0.031c0,0.008,0.005,0.01,0.011,0.014c-0.013,0.017-0.047,0.009-0.024,0.035
		c-0.029,0.021-0.067,0.025-0.097,0.047l0.001,0.002c-0.124,0.055-0.234,0.105-0.25,0.255c-0.004,0.038-0.048,0.2-0.104,0.194
		c-0.049-0.006,0.044-0.244,0.039-0.265c-0.001-0.003-0.139-0.024-0.132-0.038c-0.021,0.006-0.042,0-0.066,0.008
		c0.008,0.006,0.006,0.004,0.015,0.002c-0.015,0.021-0.033,0.035-0.026,0.049c-0.041,0.018-0.078-0.063-0.133-0.035
		c-0.081,0.045-0.141,0.083-0.188,0.164c0,0-0.001,0-0.002,0c-0.013,0.027-0.253,0.43-0.142,0.451
		c0.152,0.035,0.158-0.18,0.323-0.148c-0.021,0.041-0.058,0.072-0.078,0.116c-0.013,0.028-0.025,0.041-0.04,0.058
		c-0.018,0.032-0.185,0.169-0.04,0.178c0.176,0.01,0.045,0.176,0.01,0.269c-0.031,0.079-0.096,0.343,0.055,0.278
		c0.073-0.033,0.074,0.078,0.085,0.117c-0.005,0.006-0.059,0.057-0.059,0.055c-0.003-0.022,0.024-0.107-0.01-0.119
		c-0.067-0.024-0.073,0.135-0.104,0.121c-0.065-0.026-0.033-0.274-0.082-0.29c-0.005,0.007-0.01,0.018-0.009,0.024
		c-0.004-0.003-0.008-0.004-0.012-0.006c-0.013-0.05,0.031-0.102,0.027-0.154c-0.003-0.047-0.011-0.086,0.002-0.133
		c-0.043-0.014-0.084-0.043-0.106-0.1c-0.009-0.021,0.002-0.123-0.02-0.13c-0.016-0.06-0.043,0.018-0.07,0.011
		c-0.03-0.008-0.04-0.096-0.062-0.104c-0.033,0.186-0.058,0.373-0.058,0.568c0,1.172,0.627,2.195,1.563,2.758
		c-0.019-0.027-0.004-0.058-0.019-0.089c-0.021-0.045-0.055-0.051-0.056-0.112c0-0.117-0.008-0.191-0.056-0.311
		c-0.052-0.068-0.044-0.217-0.057-0.302c-0.029-0.08-0.041-0.163-0.074-0.242c-0.037-0.086-0.141-0.144-0.233-0.155
		c-0.118-0.021-0.137-0.123-0.209-0.201c-0.061-0.065-0.123-0.141-0.171-0.213c-0.025-0.033-0.073-0.035-0.086-0.092
		c-0.013-0.053,0.037-0.072,0.036-0.119c-0.07-0.039-0.049-0.049-0.047-0.125c0.001-0.066,0.091-0.139,0.09-0.205
		c-0.018-0.007-0.023-0.017-0.016-0.031c-0.014-0.063-0.096-0.17-0.014-0.203c-0.016-0.09,0.092-0.149,0.157-0.178
		c0.015-0.006,0.031-0.054,0.05-0.026c0.01,0.012,0.008,0.021-0.005,0.03c0,0.021-0.013,0.125,0.035,0.123
		c0.02-0.002-0.059-0.111,0.049-0.117c-0.01-0.021-0.031-0.012-0.035-0.032c0.038-0.001,0.085,0.034,0.107,0.062
		c0.017,0.018,0.086,0.008,0.11,0.017c0.028,0.011,0.079-0.017,0.121-0.025c0.017,0.073,0.174,0.091,0.218,0.157
		c0.036,0.052,0.187,0.064,0.243,0.062c0.066-0.004,0.179,0.158,0.148,0.199c-0.047,0.062,0.019,0.141,0.08,0.131
		c0.059-0.004,0.004-0.109,0.121-0.062c0.043,0.02,0.06,0.018,0.071,0.066c0.054-0.006,0.123-0.025,0.186-0.008
		c0.062,0.019,0.101,0.057,0.167,0.07c0.143,0.03,0.006,0.293-0.027,0.355c-0.025,0.05,0.048,0.211,0.039,0.283
		c-0.032,0.123-0.05,0.166-0.157,0.233c-0.029,0.019-0.084,0.077-0.077,0.116c0.01,0.035,0.021,0.07,0.033,0.104
		c-0.02,0.023-0.03,0.052-0.029,0.081v-0.002c-0.011,0.078-0.04,0.148-0.055,0.229c-0.011,0.054-0.175,0.078-0.182,0.062
		c0.032,0.082,0.148,0.047,0.093,0.171c-0.019,0.043-0.086,0.053-0.126,0.062c-0.047,0.011,0.002,0.063,0.001,0.09
		c0.022,0.052-0.054,0.025-0.084,0.035c-0.058,0.016,0.087,0.082,0.078,0.062c0.014,0.032-0.035,0.017-0.044,0.019
		c0.014,0.029,0.058,0.104,0.002,0.133c-0.086,0.051,0.065,0.081,0.08,0.124c0.372,0.149,0.777,0.233,1.203,0.233
		c1.217,0,2.275-0.678,2.821-1.674c0.006-0.031,0.019-0.053,0.034-0.066c0.23-0.44,0.361-0.942,0.361-1.477
		c0-0.158-0.031-0.309-0.053-0.46C28.037,25.796,27.933,25.91,27.853,25.752z M26.64,23.737c0,0.011-0.007,0.024-0.022,0.024
		c-0.011-0.002-0.014-0.011-0.015-0.015c0.009,0,0.015-0.003,0.024-0.003C26.601,23.723,26.631,23.734,26.64,23.737z M26.51,23.756
		c-0.006,0.008-0.014,0.018-0.02,0.025C26.474,23.768,26.502,23.756,26.51,23.756z M26.269,23.837c0.008,0,0.017-0.006,0.015-0.01
		c-0.054-0.011,0-0.062,0.027-0.013c-0.023,0.002-0.014,0.048-0.051,0.022C26.264,23.831,26.267,23.831,26.269,23.837z
		 M26.047,23.414c-0.002,0-0.006,0.002-0.008,0.002c0.008,0.002,0.015,0.002,0.02,0.004c-0.016-0.003,0.033,0.004,0.039,0.006
		c-0.031-0.027,0.033-0.01,0.035-0.01c0,0.002-0.002,0.003-0.002,0.005c0.014-0.002,0.033,0,0.053,0.005
		c-0.003-0.002-0.006-0.005-0.008-0.007c0.013,0.001,0.023,0,0.037-0.001c-0.004,0-0.037-0.002-0.037-0.002
		c-0.008,0-0.035,0.002-0.041-0.009c0.01,0,0.019,0.001,0.027,0.001v-0.001c0.002,0,0.008,0,0.012,0.001
		c-0.002-0.002-0.004-0.002-0.004-0.003c0.054,0.001,0.137-0.011,0.186,0.015c-0.018,0.002-0.102,0.016-0.146,0.012
		c0.006,0.002,0.015,0.004,0.02,0.008c-0.003,0.002-0.005,0-0.008,0c0.023,0.004,0.056,0.007,0.08,0.02
		c-0.023,0.001-0.032,0.006-0.053,0.008c-0.002-0.002-0.004-0.005,0-0.007c-0.012,0-0.029-0.001-0.039-0.002
		c0-0.006,0.01-0.004,0.01-0.009c-0.006,0-0.012-0.004-0.016-0.006c-0.035,0.006-0.14,0.043-0.143,0.006c0.018,0,0.031,0.001,0.05,0
		c-0.006-0.001-0.06,0-0.06-0.007c0,0,0.029-0.007,0.046-0.009c-0.021,0.002-0.06,0.008-0.068-0.002c0.001,0,0.002,0,0.005,0
		c-0.012-0.002-0.021-0.004-0.02-0.01c-0.008-0.001-0.016-0.003-0.021-0.006C26.01,23.409,26.029,23.408,26.047,23.414z
		 M23.437,23.857c0.003-0.002,0.005-0.004,0.008-0.006c0.019-0.01,0.038-0.021,0.059-0.016
		C23.487,23.846,23.453,23.855,23.437,23.857z M22.873,25.533c-0.003,0.021-0.015,0.029-0.038,0.029
		C22.812,25.557,22.867,25.54,22.873,25.533z M22.802,25.182c0.01,0,0.01,0.012,0.01,0.017c-0.015,0.001-0.027-0.002-0.035-0.003
		C22.784,25.186,22.796,25.182,22.802,25.182z M22.753,25.288c0.004-0.009,0.01,0.022,0.007,0.029
		C22.746,25.35,22.75,25.292,22.753,25.288z M22.457,25.514c0.003-0.012,0.01-0.02,0.021-0.021c0.006-0.013,0.005-0.022,0.013-0.015
		C22.466,25.546,22.462,25.499,22.457,25.514z M22.579,25.78c0.016,0.004,0.031,0.022,0.037,0.028c0-0.002,0-0.004,0-0.006
		c0.006,0.006,0.006,0.015,0.004,0.023C22.526,25.831,22.567,25.778,22.579,25.78z M22.621,25.65
		c0.027-0.065,0.007-0.168-0.091-0.182c-0.026-0.086-0.034,0.021-0.112,0.014c0.08-0.103,0.14-0.118,0.227-0.033
		c0.028,0.027,0.092,0.12,0.089,0.145c0.043,0.014,0.011,0.039,0.031,0.066C22.717,25.721,22.669,25.66,22.621,25.65z
		 M22.885,25.835c-0.004-0.03-0.051,0.042-0.062,0.039c-0.001,0-0.07-0.126-0.101-0.043c-0.076-0.047,0.074-0.06,0.083-0.054
		c0.001-0.016,0.003-0.159,0.04-0.104c0.016,0.026,0.042,0.004,0.066,0.01c0.048,0.008,0.042,0.058,0.061,0.09
		c0.006,0.021,0.019,0.064,0.019,0.062C22.986,25.837,22.885,25.837,22.885,25.835z M23.042,25.878
		c0.011-0.032,0.065,0.013,0.067,0.029C23.091,25.932,23.03,25.914,23.042,25.878z M27.297,24.684
		c0.002,0.019-0.062,0.058-0.072,0.017C27.242,24.694,27.274,24.684,27.297,24.684z M26.515,24.498
		c-0.002,0.014-0.003,0.059-0.005,0.059c-0.018-0.002-0.102-0.047-0.104-0.063C26.42,24.486,26.498,24.492,26.515,24.498z
		 M26.258,24.276c0.002,0.005,0.004,0.011,0.008,0.013c-0.003,0.014-0.003,0.039-0.008,0.047c-0.014-0.003-0.021-0.039-0.029-0.049
		C26.24,24.287,26.248,24.283,26.258,24.276z M26.244,24.385c0-0.01-0.015-0.018-0.018-0.027
		C26.332,24.342,26.258,24.497,26.244,24.385z M26.035,24.395c0,0.015-0.029-0.01-0.031-0.01
		C26.021,24.373,26.03,24.376,26.035,24.395z M25.754,23.684c-0.01,0.008-0.021,0.013-0.031,0.02
		c0.013,0.021,0.039,0.027,0.076,0.01c0.005,0.021-0.039,0.037-0.043,0.049c0.05,0.014,0.125,0.063,0.129,0.114
		c0.008-0.002,0.009-0.005,0.015-0.007c0.028-0.014,0.028,0.02-0.001,0.055c0.008,0,0.018,0.002,0.025,0.006
		c0.002,0.01-0.219,0.029-0.244,0.027c0.015-0.025,0.087-0.038,0.087-0.053c-0.011,0.01-0.079-0.002-0.079-0.008
		c0-0.018,0.025-0.021,0.025-0.053c0.021,0.004,0.059,0.004,0.058-0.022c-0.021,0-0.036-0.004-0.021-0.022
		c-0.008,0-0.062,0.006-0.061-0.008c0-0.027,0.034-0.015-0.008-0.035c-0.006,0.006-0.003,0.008,0,0.012
		c-0.003-0.002-0.006-0.002-0.01-0.002c0-0.027-0.006-0.021-0.004-0.047c-0.019-0.002-0.028-0.006-0.027-0.016
		c0.003,0.001,0.033,0.008,0.033,0.005C25.648,23.699,25.756,23.643,25.754,23.684z M25.699,23.821c0-0.005,0-0.011,0.008-0.013
		c0,0,0.004,0.002,0.006,0.002c0,0.002-0.002,0.006-0.002,0.011C25.709,23.821,25.705,23.821,25.699,23.821z M25.651,23.682
		c-0.001,0.008-0.011,0.015-0.024,0.015C25.603,23.693,25.648,23.682,25.651,23.682z M25.521,23.811
		c0.001-0.015,0.042-0.01,0.052-0.015c-0.023-0.026,0.041-0.024,0.053-0.022c0.074,0.005,0.019,0.037,0.019,0.048
		c-0.001,0.059-0.042,0.079-0.108,0.073c-0.068-0.004,0.004-0.047,0.008-0.064C25.537,23.824,25.528,23.817,25.521,23.811z
		 M23.671,23.494c-0.003,0.002-0.006,0.005-0.009,0.005c0.012,0-0.028,0.002-0.017-0.004C23.655,23.494,23.667,23.494,23.671,23.494
		z M23.642,23.523c-0.02-0.016,0.061-0.021,0.042,0C23.665,23.523,23.604,23.53,23.642,23.523z M23.712,23.528
		c-0.007,0.005-0.014,0.007-0.022,0.006c-0.004,0.001-0.043,0-0.043,0C23.667,23.528,23.69,23.53,23.712,23.528z M23.49,23.518
		c0.003,0,0.006,0,0.01-0.002c-0.011,0-0.011,0-0.006-0.004c0.022-0.002,0.086-0.009,0.102,0.006
		c-0.003,0.002-0.008,0.002-0.01,0.004c0.007,0.007-0.018,0.011-0.045,0.012c-0.006,0.001-0.014,0.002-0.024,0.003
		c0.005-0.001,0.011-0.002,0.017-0.003c-0.024,0-0.046-0.002-0.052-0.01c0.012,0.004,0.024,0,0.034-0.006
		C23.499,23.518,23.493,23.52,23.49,23.518z M23.461,23.545c-0.005,0.002-0.012,0.004-0.017,0.004c-0.008,0-0.012-0.006-0.006-0.011
		C23.458,23.538,23.45,23.544,23.461,23.545z M23.437,23.561c0-0.01,0.035,0.004,0.045,0.006c-0.015,0.003-0.033,0.005-0.043,0.005
		c0.001-0.001,0.001-0.002,0.003-0.004c-0.009,0.002-0.011-0.001-0.014-0.001L23.437,23.561z M23.331,23.536
		c-0.01-0.002-0.021-0.002-0.031,0.001c0.012-0.006,0.05-0.004,0.072-0.004c-0.004,0-0.008,0.001-0.011,0.001
		c0.002,0.001,0.003,0.002,0.003,0.004c-0.043,0.005-0.048,0.006-0.016,0.005c-0.01,0.006-0.038,0.008-0.054,0.01
		C23.276,23.553,23.305,23.541,23.331,23.536z M23.253,23.561c-0.007,0.004-0.015,0.006-0.022,0.006
		c-0.003,0-0.007-0.002-0.001-0.004C23.237,23.562,23.246,23.562,23.253,23.561z M23.219,23.553
		c0.011,0.004,0.006,0.006-0.012,0.008c-0.007,0.012-0.018,0.015-0.033,0.014C23.187,23.559,23.203,23.551,23.219,23.553z
		 M23.195,23.594L23.195,23.594c-0.005-0.002-0.011,0.002-0.015,0.004c-0.015,0.002-0.03,0.004-0.045,0.002
		c0.007-0.01,0.016-0.015,0.027-0.014c-0.002-0.001-0.004-0.001-0.005-0.001c0.007-0.007,0.013-0.007,0.023-0.006
		c-0.002-0.001-0.004-0.001-0.005-0.002c0.007-0.002,0.014-0.004,0.022-0.004c-0.003,0-0.003,0-0.001-0.002
		c0.037-0.005,0.075,0.021,0.114,0.006c-0.008,0-0.01,0-0.013,0c0.006,0,0.012-0.002,0.016-0.006c-0.032,0,0.036-0.013,0.043-0.013
		c-0.037,0.017,0.038,0.013,0.032,0.016C23.337,23.605,23.253,23.579,23.195,23.594z M23.415,23.577
		c-0.003,0.008-0.01,0.013-0.021,0.01c-0.007,0-0.007,0-0.015,0C23.391,23.58,23.401,23.579,23.415,23.577z M23.351,23.697
		c-0.02,0.006,0.082-0.032,0.064,0.006C23.4,23.706,23.297,23.706,23.351,23.697z M23.464,23.62c0.011-0.001,0.04-0.01,0.019,0.005
		c0.003,0.001,0.012,0.001,0.016,0.001c-0.03,0.019-0.104,0.044-0.132,0.005c0.021-0.014,0.041,0.002,0.064-0.014
		c-0.061-0.001,0.073-0.007,0.078-0.012C23.495,23.613,23.479,23.617,23.464,23.62z M23.478,23.58
		c0.011-0.007,0.032-0.009,0.042-0.011c-0.01-0.005-0.024-0.003-0.038-0.003c-0.002-0.002-0.004-0.002-0.005-0.004
		c0.016-0.01,0.03,0.005,0.047-0.004c-0.013,0-0.023,0-0.019-0.006c0.006,0,0.071,0,0.071,0
		C23.578,23.598,23.495,23.571,23.478,23.58z M23.566,23.578c0.004-0.003,0.016-0.005,0.018-0.005
		c0.016-0.009,0.034-0.011,0.051-0.004C23.66,23.582,23.567,23.578,23.566,23.578z M23.74,23.575c-0.014,0.001-0.112,0-0.06-0.011
		c-0.003-0.016-0.013-0.02-0.028-0.008c-0.014,0-0.026-0.006-0.04-0.011c0.012-0.007,0.135-0.006,0.14,0.007
		c-0.011,0-0.021,0-0.032,0.002c-0.008,0.008,0.019,0.004,0.025,0.006c-0.017,0.004,0.223-0.018,0.225-0.002
		c-0.005,0-0.011,0.002-0.015,0.004c0.005,0,0.01,0,0.01,0C23.904,23.6,23.792,23.546,23.74,23.575z M23.921,23.605
		c-0.002,0-0.033-0.008-0.025-0.014c0.025-0.02,0.083-0.002,0.109,0.004C23.984,23.605,23.941,23.604,23.921,23.605z M24.057,23.518
		c-0.051,0.052-0.171,0.006-0.247,0.016c0.015-0.003,0.03-0.007,0.046-0.01c-0.042-0.018,0.054-0.006,0.066-0.008
		c-0.02-0.016-0.056-0.013-0.077-0.008c0,0.002,0.003,0.004,0.001,0.006c-0.017,0-0.062-0.004-0.082,0
		c-0.003,0.002-0.006,0.002-0.011,0.002l0.003-0.002c-0.005,0-0.01,0-0.013-0.006c0.022-0.004,0.044-0.007,0.067-0.007
		c-0.009-0.001-0.042-0.003-0.064-0.003c0.002,0,0.004,0,0.006-0.003c-0.025,0.003-0.04,0.003-0.029-0.006c0.013,0,0.027,0,0.04,0
		c-0.008,0-0.017,0-0.024-0.005c0.009-0.004,0.021-0.004,0.033-0.004c-0.002,0-0.004,0-0.006-0.002
		c0.015-0.002,0.03-0.006,0.045-0.006c-0.006,0-0.019,0-0.013-0.002c0.025-0.002,0.076,0.021,0.095,0.012
		c0.014,0,0.015,0.003,0.002,0.009c0.025-0.015,0.032,0.019,0.074-0.011c0.002-0.002-0.019-0.01-0.027-0.01
		c0.02,0,0.024-0.002,0.013-0.006c-0.021,0-0.037-0.003-0.041-0.008c0.008-0.002,0.016-0.002,0.023-0.004
		c-0.011,0.001-0.022,0.001-0.033,0.002c0.018-0.006,0.035-0.006,0.056-0.009c-0.02-0.001-0.039,0.007-0.058,0.004
		c0.011-0.003,0.017-0.004,0.026-0.005c-0.018,0.001-0.034,0.002-0.051,0.004c0.092-0.035,0.356-0.061,0.449-0.025
		c-0.048,0.012,0.08-0.008,0.074,0.004c-0.003,0.01-0.08,0.008-0.086,0.012c0.004,0,0.025,0,0.038,0
		c-0.067,0.018-0.141,0.016-0.208,0.031c0.007,0,0.012,0,0.018,0c-0.004,0.006-0.011,0.006-0.023,0.006
		c0.007,0.002,0.013,0.002,0.014,0.004c-0.031,0.006-0.047,0.015-0.078,0.018c-0.006,0.014-0.034,0.01-0.046,0.02
		C24.038,23.518,24.06,23.516,24.057,23.518z M23.958,24.206c-0.025,0.019-0.061-0.008-0.08-0.022
		C23.921,24.178,23.937,24.195,23.958,24.206z M23.821,24.296c0.001-0.004,0.005-0.006,0.009-0.007
		c0.015,0.021,0.035,0.025,0.061,0.018C23.876,24.34,23.816,24.307,23.821,24.296z M23.917,24.327
		c0.014-0.017,0.03-0.026,0.049-0.036c0,0.005,0.006,0.008,0.004,0.012c-0.005,0.012-0.028,0.016,0.004,0.016
		C23.964,24.34,23.91,24.342,23.917,24.327z M24.089,24.283c0.001,0-0.065,0.033-0.062,0.027c0.007-0.008,0.014-0.015,0.023-0.019
		c-0.016,0-0.164-0.01-0.162-0.013c0.007-0.014,0.029-0.01,0.036-0.023c-0.003,0-0.008-0.003-0.008-0.006
		c0.059-0.018,0.104-0.105,0.165-0.105c0.019,0-0.057,0.062-0.058,0.064c0.014-0.009,0.028-0.01,0.044-0.002
		c-0.007,0.001-0.012,0.006-0.013,0.014c0.009,0,0.017,0,0.025,0c0,0.002-0.002,0.004-0.002,0.004c0.006,0,0.013-0.002,0.019-0.002
		c0.014,0.002,0.033,0.002,0.042,0c-0.003,0.01-0.009,0.018-0.015,0.033c0.003-0.003,0.012-0.004,0.017-0.004
		c-0.012,0.021-0.009,0.01-0.017,0.032c0.015,0,0.011-0.001,0.021-0.006C24.115,24.354,24.119,24.311,24.089,24.283z M24.911,23.613
		c-0.013,0.039-0.061-0.023-0.068,0c0.012,0.006,0.077,0.017,0.069,0.043c-0.005,0.018-0.083-0.014-0.094-0.016
		c-0.003,0.012,0.009,0.012-0.014,0.014c-0.004,0.013,0.069,0.012,0.085,0.016c-0.068,0.022-0.145,0.036-0.217,0.035
		c-0.047,0.014-0.075,0.043-0.129,0.041c0.001-0.002,0.002-0.004,0.002-0.007c-0.05,0.009-0.109,0.11-0.136,0.108
		c-0.017-0.002-0.14-0.059-0.095-0.082c-0.009-0.011-0.045-0.017-0.023-0.045c-0.004,0-0.008,0-0.011,0
		c0.007-0.025,0.05-0.029,0.066-0.05c-0.015-0.005-0.052-0.005-0.051-0.016c0.015-0.002,0.036,0.016,0.045,0
		c-0.005,0-0.04-0.021-0.053-0.021c0.015-0.008,0.017-0.013,0.001-0.018c0.022-0.055-0.095-0.055-0.126-0.046
		c0.001,0,0.002,0.001,0.003,0.002c-0.01,0.002-0.021,0-0.03-0.004c0.004-0.002,0.007-0.002,0.01-0.005
		c-0.009-0.004-0.019-0.006-0.029-0.004c0.012-0.019,0.052,0,0.066-0.017c-0.006,0-0.078,0.005-0.073-0.004
		c0.014-0.03,0.087-0.002,0.105-0.034c-0.01,0.002-0.02,0.002-0.03-0.003c0.017-0.032,0.18-0.04,0.203-0.042
		c0.006-0.011,0.024-0.009,0.037-0.005c-0.001-0.001-0.002-0.002-0.001-0.004c0.007-0.013,0.072,0,0.086,0
		c-0.01,0-0.019-0.002-0.027-0.008c0.008-0.003,0.016-0.005,0.024-0.004c-0.003-0.001-0.007-0.001-0.009-0.003
		c0.161-0.038,0.339-0.027,0.504-0.024c-0.011,0.011-0.03,0.017-0.053,0.019c0.019-0.002,0.032-0.002,0.031,0
		s-0.066,0.022-0.07,0.025c0.018-0.002,0.33-0.04,0.327-0.035c-0.01,0.016-0.076,0.021-0.11,0.021
		c-0.009,0.018-0.136,0.044-0.158,0.058c0.02-0.003,0.039-0.003,0.059,0.003c-0.005,0.002-0.012,0.002-0.017,0.004
		c0.012,0,0.022,0.004,0.033,0.01c-0.009,0.021-0.075-0.008-0.084,0.014c-0.002,0.004,0.04,0.001,0.032,0.02
		c-0.006,0.018-0.027,0-0.033,0.014c0.01,0.006,0.021,0.008,0.033,0.008c-0.007,0.005-0.026,0.009-0.043,0.011
		c0,0.003,0.003,0.005,0.007,0.005c-0.022,0.025-0.062,0.006-0.087,0.006C24.883,23.6,24.897,23.605,24.911,23.613z M24.951,23.682
		c0.013,0.002,0.037,0.002,0.048,0c0.001,0.002-0.038-0.018-0.036-0.021c0.012-0.002,0.033-0.007,0.046-0.006
		c-0.013,0.027,0.016,0.018,0.026,0.013c0.01,0.015,0.026,0.001,0.04,0.011c0.002-0.013,0.1-0.002,0.112,0
		c-0.026,0.006,0.012,0.025,0.005,0.035c-0.094,0.043-0.143,0.006-0.231-0.004c0.003-0.001,0.007-0.002,0.009-0.002
		c0.005-0.01,0.01-0.012,0.016-0.018C24.974,23.684,24.956,23.689,24.951,23.682z M27.592,26.883
		c-0.01,0.049-0.055,0.076-0.055,0.131c-0.002,0.055,0.012,0.106,0.01,0.158c0,0.059,0.078,0.117,0.055,0.17
		c-0.066,0.141,0.061,0.281-0.104,0.383c-0.058,0.035-0.131,0.066-0.144,0.143c-0.104,0.02-0.008,0.146-0.01,0.195
		c-0.005,0.119-0.027,0.095-0.101,0.154c-0.078,0.065-0.004,0.123-0.07,0.202c-0.062,0.071-0.094,0.159-0.149,0.236
		c-0.024,0.03-0.142,0.071-0.146,0.099c-0.062,0.006-0.115-0.01-0.176,0.023c-0.059,0.029-0.125-0.012-0.146,0.002
		c0.003-0.208-0.162-0.363-0.186-0.579c-0.012-0.099-0.016-0.138-0.061-0.229c-0.048-0.094-0.089-0.201-0.068-0.309
		c0.014-0.077,0.076-0.132,0.092-0.206c0.019-0.075-0.017-0.19-0.035-0.263c-0.021-0.077-0.027-0.174-0.078-0.237
		s-0.141-0.149-0.105-0.239c0.051-0.143,0.074-0.287-0.129-0.283c-0.062,0-0.057-0.125-0.129-0.121
		c-0.1,0.002-0.182,0.117-0.264,0.119c-0.034,0-0.062-0.029-0.097-0.029c-0.043,0.002-0.075,0.025-0.113,0.039
		c-0.085,0.027-0.147-0.055-0.201-0.108c-0.071-0.071-0.084-0.169-0.15-0.241c-0.037-0.041-0.073-0.084-0.102-0.131
		c0.001,0,0.003,0,0.004,0c0.001-0.059-0.035-0.113-0.007-0.156c0.029-0.045,0.05-0.106,0.051-0.162
		c0.003-0.075-0.051-0.188-0.011-0.258c0.03-0.055,0.051-0.107,0.077-0.162c0.032-0.07,0.062-0.158,0.139-0.186
		c0.042-0.016,0.092-0.059,0.106-0.102c0.015-0.049,0.005-0.104,0.035-0.146c0.044-0.062,0.096-0.114,0.142-0.173
		c-0.001,0-0.003,0-0.004,0c0.052-0.068,0.131,0.007,0.221-0.046c0.072-0.04,0.162-0.086,0.247-0.088
		c0.057-0.003,0.108-0.001,0.166-0.003c0.026-0.002,0.063-0.053,0.087-0.014c0.014,0.019,0.029,0.02,0.045,0.004
		c-0.004,0.049-0.023,0.092-0.025,0.147c0,0.097,0.094,0.065,0.15,0.082c0.053,0.019,0.257,0.242,0.254,0.069
		c-0.003-0.147,0.215-0.021,0.27-0.002c0.078,0.029,0.137,0.037,0.213,0.01c0.056-0.021,0.107,0.017,0.166,0
		c0.035,0.088,0.033,0.111,0.012,0.201c-0.033-0.006-0.064-0.09-0.094-0.12c0.005,0.092,0.094,0.204,0.137,0.284
		c0.029,0.058,0.036,0.113,0.066,0.166c0.037,0.062,0.021,0.149,0.065,0.201c0.048,0.053,0.065,0.078,0.082,0.151
		c0.021,0.097,0.177,0.16,0.198,0.251c0.029,0.132,0.072,0.1,0.181,0.079c0.062-0.013,0.119-0.043,0.177-0.063
		c0.063,0.152-0.104,0.445-0.188,0.569C27.793,26.645,27.633,26.695,27.592,26.883z"/>
	<path d="M23.336,24.118C23.336,24.117,23.334,24.118,23.336,24.118c-0.006-0.002-0.021-0.002-0.021-0.004
		C23.321,24.116,23.33,24.118,23.336,24.118z"/>
	<path d="M27.951,24.967c0.012,0.025,0.018,0.055,0.029,0.08c0.01,0.01,0.02,0.018,0.025,0.025
		C27.99,25.035,27.967,25.003,27.951,24.967z"/>
	<path d="M23.932,23.91c-0.008-0.002-0.001-0.016-0.005-0.02c-0.005,0.002-0.01,0-0.014,0.004
		C23.917,23.903,23.923,23.906,23.932,23.91z"/>
	<path d="M28.047,25.197c-0.006,0-0.008,0.007-0.01,0.013c0.021,0.062,0.047,0.118,0.064,0.181c-0.01-0.033-0.014-0.069-0.023-0.104
		C28.043,25.266,28.063,25.229,28.047,25.197z"/>
	<path d="M27.756,24.559c-0.021-0.035-0.055-0.061-0.076-0.094c0.029,0.045,0.058,0.09,0.084,0.135
		c-0.008-0.012-0.012-0.025-0.02-0.037C27.748,24.561,27.752,24.559,27.756,24.559z"/>
	<path d="M27.025,23.712c0.081,0.065,0.145,0.147,0.219,0.222c-0.025-0.024-0.041-0.057-0.064-0.08
		C27.135,23.814,27.082,23.764,27.025,23.712z"/>
	<path d="M28.146,25.58c0.011,0.057,0.011,0.114,0.021,0.172c0.006-0.003,0.012-0.006,0.018-0.008
		C28.174,25.688,28.156,25.635,28.146,25.58z"/>
	<path d="M25,14.711c1.8,0,3.525,0.768,4.733,2.104l0.742-0.67c-1.397-1.547-3.394-2.434-5.476-2.434
		c-2.083,0-4.078,0.887-5.475,2.434l0.742,0.67C21.476,15.477,23.201,14.711,25,14.711z"/>
	<path d="M29.082,17.402c-1.041-1.153-2.529-1.814-4.082-1.814c-1.552,0-3.041,0.661-4.083,1.814l0.742,0.67
		c0.853-0.943,2.071-1.484,3.341-1.484c1.271,0,2.488,0.541,3.339,1.484L29.082,17.402z"/>
	<path d="M22.402,18.742l0.742,0.67c0.946-1.049,2.766-1.049,3.711,0l0.742-0.67c-0.663-0.734-1.609-1.154-2.598-1.154
		C24.01,17.588,23.065,18.008,22.402,18.742z"/>
</g>
</svg>
