<?xml version="1.0" encoding="utf-8"?>
<!-- Generator: Adobe Illustrator 16.0.4, SVG Export Plug-In . SVG Version: 6.00 Build 0)  -->
<!DOCTYPE svg PUBLIC "-//W3C//DTD SVG 1.1//EN" "http://www.w3.org/Graphics/SVG/1.1/DTD/svg11.dtd">
<svg version="1.1" id="Layer_1" xmlns="http://www.w3.org/2000/svg" xmlns:xlink="http://www.w3.org/1999/xlink" x="0px" y="0px"
	 width="50px" height="50px" viewBox="0 0 50 50" enable-background="new 0 0 50 50" xml:space="preserve">
<g>
	<path d="M34.717,29.195v-0.883v-5.3v-5.3c0-0.485-0.398-0.883-0.884-0.883H16.168c-0.486,0-0.885,0.396-0.885,0.883v5.3v5.3v0.883
		l-2.207,2.65c0,0.73,0.593,1.324,1.324,1.324H35.6c0.731,0,1.324-0.594,1.324-1.324L34.717,29.195z M26.768,32.729h-3.533
		c-0.123,0-0.221-0.098-0.221-0.221s0.098-0.221,0.221-0.221h3.533c0.121,0,0.221,0.098,0.221,0.221
		C26.986,32.631,26.889,32.729,26.768,32.729z M21.359,31.846l0.674-0.809h5.934l0.674,0.809H21.359z M33.473,27.633
		c0,0.426-0.347,0.771-0.77,0.771H17.297c-0.423,0-0.77-0.348-0.77-0.771v-9.24c0-0.426,0.347-0.771,0.77-0.771h15.406
		c0.423,0,0.77,0.347,0.77,0.771V27.633z"/>
	<path d="M27.596,20.813c1.441,1.44,1.441,3.787,0,5.228l0.58,0.582c1.764-1.763,1.764-4.63,0-6.392L27.596,20.813z"/>
	<path d="M27.305,21.104l-0.58,0.58c0.961,0.961,0.961,2.525,0,3.486l0.58,0.58C28.587,24.469,28.587,22.384,27.305,21.104z"/>
	<path d="M26.434,21.975l-0.58,0.58c0.479,0.48,0.479,1.264-0.002,1.744l0.582,0.58C27.232,24.079,27.232,22.774,26.434,21.975z"/>
	<path d="M25.139,22.764v-3.752l-3.312,3.312h-1.324v2.208h1.324l3.312,3.312V24.09c0.365,0,0.662-0.297,0.662-0.662
		C25.801,23.061,25.504,22.764,25.139,22.764z"/>
</g>
</svg>
