<?xml version="1.0" encoding="utf-8"?>
<!-- Generator: Adobe Illustrator 16.0.4, SVG Export Plug-In . SVG Version: 6.00 Build 0)  -->
<!DOCTYPE svg PUBLIC "-//W3C//DTD SVG 1.1//EN" "http://www.w3.org/Graphics/SVG/1.1/DTD/svg11.dtd">
<svg version="1.1" id="Layer_1" xmlns="http://www.w3.org/2000/svg" xmlns:xlink="http://www.w3.org/1999/xlink" x="0px" y="0px"
	 width="50px" height="50px" viewBox="0 0 50 50" enable-background="new 0 0 50 50" xml:space="preserve">
<g>
	<path d="M31.622,26.305c-0.388-0.143-0.765-0.309-1.14-0.479c-0.106-0.049-0.187-0.154-0.282-0.23
		c-0.042-0.031-0.095-0.061-0.146-0.07c-0.175-0.026-0.252-0.087-0.291-0.259c-0.056-0.226-0.095-0.451-0.047-0.686
		c0.021-0.104,0.059-0.168,0.156-0.207c0.206-0.08,0.409-0.17,0.613-0.256c0.152-0.064,0.162-0.118,0.105-0.275
		c-0.175-0.497-0.305-1.004-0.348-1.535c-0.026-0.336-0.02-0.679-0.1-1.009h-0.014c-0.007-0.03-0.011-0.062-0.02-0.092
		c-0.147-0.581-0.771-0.896-1.297-0.931c-0.002,0-0.006-0.002-0.012-0.002c-0.039-0.002-0.078,0.004-0.117,0.006
		c-0.22,0.031-0.398,0.168-0.605,0.229c0.01,0.14,0.021,0.28,0.027,0.409c0.007,0.131,0.014,0.262,0.022,0.391
		c0.052,0.637,0.2,1.284,0.466,2.036c0.26,0.732,0,1.345-0.685,1.649c-0.013,0.09-0.027,0.181-0.05,0.27
		c-0.031,0.139-0.103,0.195-0.211,0.23c0.009,0.007,0.02,0.009,0.029,0.017c0.075,0.059,0.151,0.129,0.228,0.201
		c0.438,0.223,1.026,0.482,1.627,0.705c0.761,0.279,1.268,0.688,1.612,1.129c0.518,0,1.033,0,1.552,0
		C32.605,26.902,32.215,26.521,31.622,26.305z"/>
	<path d="M22.134,25.266c-0.021-0.09-0.036-0.18-0.049-0.271c-0.685-0.306-0.942-0.918-0.687-1.647
		c0.268-0.754,0.416-1.402,0.468-2.041c0.011-0.136,0.017-0.273,0.022-0.414c0.004-0.125,0.01-0.256,0.02-0.39
		c-0.227-0.13-0.481-0.212-0.721-0.228c-0.004,0-0.006-0.002-0.012-0.002c-0.04-0.002-0.078,0.004-0.117,0.006
		c-0.222,0.031-0.401,0.171-0.611,0.231c-0.272,0.081-0.441,0.331-0.543,0.603c-0.146,0.385-0.118,0.795-0.15,1.193
		c-0.043,0.53-0.173,1.037-0.348,1.534c-0.057,0.157-0.047,0.211,0.104,0.275c0.205,0.086,0.408,0.176,0.614,0.256
		c0.1,0.039,0.136,0.104,0.156,0.207c0.048,0.233,0.009,0.46-0.047,0.685c-0.039,0.172-0.116,0.233-0.291,0.261
		c-0.051,0.01-0.104,0.037-0.146,0.07c-0.097,0.074-0.176,0.182-0.282,0.229c-0.375,0.172-0.752,0.336-1.14,0.479
		c-0.593,0.219-0.983,0.6-1.08,1.244c0.517,0,1.034,0,1.552,0c0.346-0.441,0.853-0.85,1.613-1.129
		c0.6-0.223,1.188-0.482,1.633-0.686c0.068-0.092,0.145-0.164,0.227-0.225c0.008-0.006,0.017-0.009,0.023-0.015
		C22.234,25.459,22.166,25.401,22.134,25.266z"/>
	<path d="M34.717,29.195v-0.883v-5.3v-5.3c0-0.485-0.398-0.883-0.884-0.883H16.168c-0.486,0-0.885,0.396-0.885,0.883v5.3v5.3v0.883
		l-2.207,2.65c0,0.73,0.593,1.324,1.324,1.324H35.6c0.731,0,1.324-0.594,1.324-1.324L34.717,29.195z M26.768,32.729h-3.533
		c-0.123,0-0.221-0.098-0.221-0.221s0.098-0.221,0.221-0.221h3.533c0.121,0,0.221,0.098,0.221,0.221
		C26.986,32.631,26.889,32.729,26.768,32.729z M21.359,31.846l0.674-0.809h5.934l0.674,0.809H21.359z M33.473,27.633
		c0,0.426-0.347,0.771-0.77,0.771h-2.189c-0.281-0.484-0.727-0.828-1.322-1.049c-0.575-0.213-1.141-0.457-1.7-0.713
		c-0.159-0.072-0.277-0.23-0.423-0.342c-0.062-0.049-0.141-0.094-0.217-0.105c-0.26-0.041-0.375-0.135-0.436-0.391
		c-0.081-0.336-0.139-0.672-0.068-1.021c0.03-0.153,0.086-0.251,0.234-0.309c0.309-0.121,0.611-0.254,0.916-0.384
		c0.229-0.097,0.242-0.177,0.159-0.411c-0.263-0.742-0.456-1.498-0.521-2.293c-0.039-0.5-0.027-1.014-0.148-1.506h-0.021
		c-0.01-0.046-0.016-0.092-0.026-0.137c-0.221-0.868-1.153-1.342-1.937-1.391c-0.006,0-0.012-0.002-0.019-0.002
		c-0.061-0.004-0.117,0.004-0.176,0.008c-0.33,0.047-0.601,0.255-0.914,0.347c-0.408,0.12-0.658,0.495-0.812,0.899
		c-0.216,0.574-0.177,1.187-0.224,1.781c-0.064,0.793-0.258,1.549-0.521,2.291c-0.083,0.235-0.068,0.315,0.159,0.412
		c0.306,0.129,0.606,0.264,0.916,0.383c0.147,0.059,0.204,0.155,0.233,0.31c0.07,0.35,0.014,0.686-0.067,1.02
		c-0.062,0.258-0.177,0.35-0.437,0.391c-0.076,0.014-0.153,0.059-0.217,0.105c-0.145,0.111-0.263,0.271-0.422,0.344
		c-0.561,0.254-1.125,0.5-1.701,0.713c-0.596,0.221-1.039,0.562-1.32,1.047h-2.19c-0.423,0-0.771-0.346-0.771-0.77v-9.242
		c0-0.425,0.348-0.771,0.771-0.771H32.7c0.423,0,0.771,0.347,0.771,0.771v9.242H33.473z"/>
</g>
</svg>
