<?xml version="1.0" encoding="utf-8"?>
<!-- Generator: Adobe Illustrator 16.0.4, SVG Export Plug-In . SVG Version: 6.00 Build 0)  -->
<!DOCTYPE svg PUBLIC "-//W3C//DTD SVG 1.1//EN" "http://www.w3.org/Graphics/SVG/1.1/DTD/svg11.dtd">
<svg version="1.1" id="Layer_1" xmlns="http://www.w3.org/2000/svg" xmlns:xlink="http://www.w3.org/1999/xlink" x="0px" y="0px"
	 width="50px" height="50px" viewBox="0 0 50 50" enable-background="new 0 0 50 50" xml:space="preserve">
<g>
	<path d="M35.985,28.705v-0.883v-5.3v-5.3c0-0.485-0.397-0.883-0.884-0.883H21.938v0.79h12.034c0.423,0,0.771,0.347,0.771,0.771
		v9.24c0,0.426-0.348,0.771-0.771,0.771H18.565c-0.064,0-0.121-0.021-0.181-0.037v4.805h18.482c0.731,0,1.324-0.594,1.324-1.326
		L35.985,28.705z M28.035,32.238h-3.533c-0.122,0-0.221-0.098-0.221-0.221s0.099-0.221,0.221-0.221h3.533
		c0.123,0,0.221,0.098,0.221,0.221S28.158,32.238,28.035,32.238z M22.627,31.355l0.674-0.809h5.934l0.675,0.809H22.627z"/>
	<g>
		<g>
			<path d="M20.728,23.806h-8.919v-8.013c0-0.501,0.406-0.907,0.907-0.907c0.501,0,0.907,0.406,0.907,0.907v6.197h5.291v-6.197
				c0-0.501,0.406-0.907,0.907-0.907c0.5,0,0.907,0.406,0.907,0.907V23.806z"/>
		</g>
		<g>
			<path d="M15.361,20.69v-4.896c0-0.501,0.406-0.907,0.907-0.907s0.907,0.406,0.907,0.907v4.896H15.361z"/>
		</g>
		<g>
			<path d="M16.269,35.113c-0.501,0-0.907-0.404-0.907-0.906v-9.099h1.814v9.099C17.176,34.707,16.77,35.113,16.269,35.113z"/>
		</g>
	</g>
</g>
</svg>
