<?xml version="1.0" encoding="utf-8"?>
<!-- Generator: Adobe Illustrator 16.0.4, SVG Export Plug-In . SVG Version: 6.00 Build 0)  -->
<!DOCTYPE svg PUBLIC "-//W3C//DTD SVG 1.1//EN" "http://www.w3.org/Graphics/SVG/1.1/DTD/svg11.dtd">
<svg version="1.1" id="Layer_1" xmlns="http://www.w3.org/2000/svg" xmlns:xlink="http://www.w3.org/1999/xlink" x="0px" y="0px"
	 width="50px" height="50px" viewBox="0 0 50 50" enable-background="new 0 0 50 50" xml:space="preserve">
<g>
	<g>
		<polygon points="22,31.073 20,33.073 30,33.073 28,31.073 		"/>
	</g>
	<g>
		<path d="M15,16.927v13h20v-13H15z M22.938,27.152h-1.55v-4.978h1.55V27.152z M22.163,21.495c-0.497,0-0.897-0.402-0.897-0.897
			c0-0.495,0.4-0.896,0.897-0.896c0.496,0,0.896,0.402,0.896,0.896C23.061,21.093,22.659,21.495,22.163,21.495z M28.734,27.152
			h-1.547v-2.419c0-0.578-0.012-1.32-0.806-1.32c-0.805,0-0.928,0.628-0.928,1.278v2.461h-1.546v-4.978h1.482v0.681h0.021
			c0.206-0.392,0.711-0.804,1.465-0.804c1.565,0,1.855,1.03,1.855,2.371v2.729H28.734z"/>
	</g>
</g>
</svg>
