<?xml version="1.0" encoding="utf-8"?>
<!-- Generator: Adobe Illustrator 16.0.4, SVG Export Plug-In . SVG Version: 6.00 Build 0)  -->
<!DOCTYPE svg PUBLIC "-//W3C//DTD SVG 1.1//EN" "http://www.w3.org/Graphics/SVG/1.1/DTD/svg11.dtd">
<svg version="1.1" id="Layer_1" xmlns="http://www.w3.org/2000/svg" xmlns:xlink="http://www.w3.org/1999/xlink" x="0px" y="0px"
	 width="50px" height="50px" viewBox="0 0 50 50" enable-background="new 0 0 50 50" xml:space="preserve">
<g>
	<polygon points="22,31.073 20,33.073 30,33.073 28,31.073 	"/>
	<path d="M15,16.927v13h20v-13H15z M28.08,26.258c0,0.283-0.23,0.514-0.514,0.514h-5.135c-0.281,0-0.513-0.23-0.513-0.514v-3.593
		c0-0.282,0.231-0.513,0.513-0.513h0.473v-0.833c0-1.156,0.938-2.096,2.096-2.096s2.096,0.94,2.096,2.096v0.833h0.473
		c0.281,0,0.513,0.231,0.513,0.513L28.08,26.258L28.08,26.258z"/>
	<path d="M25,20.121c-0.66,0-1.197,0.537-1.197,1.198v0.833h2.396v-0.833C26.197,20.658,25.66,20.121,25,20.121z"/>
</g>
</svg>
