<?xml version="1.0" encoding="utf-8"?>
<!-- Generator: Adobe Illustrator 16.0.4, SVG Export Plug-In . SVG Version: 6.00 Build 0)  -->
<!DOCTYPE svg PUBLIC "-//W3C//DTD SVG 1.1//EN" "http://www.w3.org/Graphics/SVG/1.1/DTD/svg11.dtd">
<svg version="1.1" id="Layer_1" xmlns="http://www.w3.org/2000/svg" xmlns:xlink="http://www.w3.org/1999/xlink" x="0px" y="0px"
	 width="50px" height="50px" viewBox="0 0 50 50" enable-background="new 0 0 50 50" xml:space="preserve">
<g>
	<polygon points="22,31.073 20,33.073 30,33.073 28,31.073 	"/>
	<path d="M15,16.927v13h20v-13H15z M25.139,24.089v3.752l-3.312-3.311h-1.324v-2.208h1.324l3.312-3.312v3.752
		c0.365,0,0.662,0.296,0.662,0.663C25.801,23.792,25.504,24.089,25.139,24.089z M25.852,24.298c0.48-0.481,0.481-1.263,0.002-1.744
		l0.58-0.581c0.801,0.8,0.801,2.104,0,2.905L25.852,24.298z M26.725,25.17c0.961-0.961,0.961-2.525,0-3.487l0.58-0.581
		c1.282,1.281,1.282,3.367,0,4.648L26.725,25.17z M28.176,26.622l-0.58-0.581c1.441-1.442,1.441-3.789,0-5.23l0.58-0.581
		C29.938,21.993,29.938,24.86,28.176,26.622z"/>
</g>
</svg>
