<?xml version="1.0" encoding="utf-8"?>
<!-- Generator: Adobe Illustrator 16.0.4, SVG Export Plug-In . SVG Version: 6.00 Build 0)  -->
<!DOCTYPE svg PUBLIC "-//W3C//DTD SVG 1.1//EN" "http://www.w3.org/Graphics/SVG/1.1/DTD/svg11.dtd">
<svg version="1.1" id="Layer_1" xmlns="http://www.w3.org/2000/svg" xmlns:xlink="http://www.w3.org/1999/xlink" x="0px" y="0px"
	 width="50px" height="50px" viewBox="0 0 50 50" enable-background="new 0 0 50 50" xml:space="preserve">
<path d="M35,28.727c-0.002,0-0.004,0.001-0.006,0.001v-2.557c0-0.046,0.006-0.091,0.006-0.137c0-0.042-0.006-0.083-0.006-0.126
	v-0.416h-0.021c-0.283-5.271-4.631-9.458-9.973-9.458s-9.69,4.188-9.973,9.458h-0.021v0.416c0,0.042-0.006,0.083-0.006,0.126
	c0,0.046,0.006,0.091,0.006,0.137v2.556c-0.002,0-0.004-0.001-0.006-0.001c-0.736,0-1.333,0.784-1.333,1.75
	c0,0.967,0.597,1.75,1.333,1.75c0.098,0,0.193-0.016,0.286-0.042c0.369,1.06,1.06,1.781,1.862,1.781
	c1.186,0,1.395-1.562,1.395-3.489c0-1.927-0.209-3.487-1.395-3.487c-0.511,0-0.975,0.302-1.343,0.787v-2.089
	c1.046-4.108,4.76-7.151,9.196-7.151c4.442,0,8.162,3.053,9.201,7.173v2.075c-0.37-0.489-0.835-0.794-1.349-0.794
	c-1.187,0-1.396,1.562-1.396,3.487c0,1.927,0.209,3.489,1.396,3.489c0.802,0,1.492-0.723,1.861-1.781
	c0.092,0.026,0.188,0.042,0.285,0.042c0.736,0,1.333-0.783,1.333-1.75C36.333,29.511,35.736,28.727,35,28.727z"/>
</svg>
