<?xml version="1.0" encoding="utf-8"?>
<!-- Generator: Adobe Illustrator 16.0.4, SVG Export Plug-In . SVG Version: 6.00 Build 0)  -->
<!DOCTYPE svg PUBLIC "-//W3C//DTD SVG 1.1//EN" "http://www.w3.org/Graphics/SVG/1.1/DTD/svg11.dtd">
<svg version="1.1" id="Layer_1" xmlns="http://www.w3.org/2000/svg" xmlns:xlink="http://www.w3.org/1999/xlink" x="0px" y="0px"
	 width="50px" height="50px" viewBox="0 0 50 50" enable-background="new 0 0 50 50" xml:space="preserve">
<g>
	<g>
		<path d="M15,16.927v13h20v-13H15z M24.653,21.023l0.789,4.475c0.121,0.689-0.478,1.371-1.34,1.521
			c-0.861,0.152-1.657-0.282-1.779-0.973c-0.121-0.688,0.479-1.37,1.34-1.521c0.272-0.049,0.534-0.032,0.773,0.026l-0.812-4.604
			l0.813-0.145c0.799,0.589,2.848,0.24,3.256,2.555C27.333,20.984,25.607,21.532,24.653,21.023z"/>
	</g>
	<g>
		<polygon points="22,31.073 20,33.073 30,33.073 28,31.073 		"/>
	</g>
</g>
</svg>
