<?xml version="1.0" encoding="utf-8"?>
<!-- Generator: Adobe Illustrator 16.0.4, SVG Export Plug-In . SVG Version: 6.00 Build 0)  -->
<!DOCTYPE svg PUBLIC "-//W3C//DTD SVG 1.1//EN" "http://www.w3.org/Graphics/SVG/1.1/DTD/svg11.dtd">
<svg version="1.1" id="Layer_1" xmlns="http://www.w3.org/2000/svg" xmlns:xlink="http://www.w3.org/1999/xlink" x="0px" y="0px"
	 width="50px" height="50px" viewBox="0 0 50 50" enable-background="new 0 0 50 50" xml:space="preserve">
<g>
	<polygon points="23.382,22.691 22.304,23.77 27.695,23.77 26.618,22.691 	"/>
	<path d="M22.942,18.008c0.003-0.022-0.055-0.105-0.08-0.13c-0.08-0.078-0.134-0.063-0.206,0.029
		c0.071,0.009,0.079-0.089,0.102-0.011c0.089,0.011,0.108,0.105,0.083,0.165c0.045,0.007,0.089,0.063,0.13,0.007
		C22.953,18.042,22.981,18.02,22.942,18.008z"/>
	<path d="M26.146,16.825c-0.004-0.002-0.006-0.007-0.006-0.013c-0.009,0.006-0.018,0.01-0.027,0.01
		c0.008,0.009,0.015,0.041,0.027,0.044C26.145,16.861,26.145,16.837,26.146,16.825z"/>
	<path d="M25.604,16.308c0,0.021,0.004,0.016,0.004,0.043c0.002,0,0.006,0,0.009,0c-0.002-0.003-0.005-0.005,0-0.011
		c0.038,0.019,0.008,0.007,0.007,0.033c0,0.012,0.048,0.006,0.055,0.007c-0.013,0.017,0.002,0.02,0.021,0.02
		c0,0.024-0.033,0.024-0.052,0.022c0,0.028-0.023,0.031-0.023,0.046c0,0.004,0.062,0.016,0.07,0.007
		c0,0.013-0.064,0.024-0.078,0.047c0.023,0.001,0.223-0.017,0.223-0.025c-0.008-0.002-0.016-0.004-0.023-0.005
		c0.026-0.031,0.026-0.061,0-0.048c-0.004,0.001-0.006,0.003-0.014,0.004c-0.002-0.045-0.07-0.091-0.115-0.103
		c0.004-0.011,0.043-0.026,0.039-0.045c-0.035,0.016-0.058,0.012-0.069-0.01c0.01-0.004,0.019-0.009,0.028-0.015
		c0-0.038-0.096,0.012-0.076,0.02c0,0.004-0.026-0.004-0.029-0.004C25.578,16.302,25.587,16.305,25.604,16.308z"/>
	<path d="M25.641,16.391c-0.007,0.002-0.008,0.005-0.008,0.009c0.008,0,0.01,0,0.014,0.001c0-0.004,0-0.007,0-0.009
		C25.645,16.391,25.643,16.391,25.641,16.391z"/>
	<path d="M23.161,18.173C23.156,18.155,23.158,18.16,23.161,18.173c-0.017-0.031-0.011-0.076-0.055-0.083
		c-0.021-0.003-0.045,0.016-0.06-0.009c-0.033-0.05-0.035,0.08-0.036,0.093c-0.008-0.004-0.144,0.008-0.075,0.048
		c0.027-0.074,0.09,0.041,0.091,0.041c0.01,0.002,0.053-0.064,0.056-0.036c0,0.001,0.092,0.001,0.096,0.002
		c0,0.002-0.012-0.039-0.016-0.058C23.161,18.172,23.161,18.173,23.161,18.173z"/>
	<path d="M26.374,17.015c-0.017-0.004-0.086-0.01-0.101-0.005c0.002,0.015,0.078,0.057,0.096,0.059
		C26.371,17.068,26.372,17.025,26.374,17.015z"/>
	<path d="M23.223,18.267c-0.01,0.032,0.045,0.048,0.061,0.026C23.283,18.278,23.233,18.236,23.223,18.267z"/>
	<path d="M27.083,17.182c-0.021,0.001-0.05,0.01-0.065,0.017C27.025,17.235,27.084,17.2,27.083,17.182z"/>
	<path d="M26.111,16.886c0.003,0.009,0.016,0.016,0.016,0.025C26.141,17.014,26.208,16.872,26.111,16.886z"/>
	<path d="M23.668,16.139c-0.005,0-0.011,0.001-0.016,0.002c0.009,0,0.016,0,0.022-0.002c0.025-0.001,0.047-0.004,0.041-0.01
		c0.002-0.001,0.007-0.002,0.01-0.002c-0.015-0.014-0.073-0.008-0.093-0.006c-0.005,0.002-0.004,0.003,0.005,0.003
		c-0.002,0.001-0.006,0.002-0.009,0.002c0.002,0.001,0.008,0,0.023-0.001c-0.009,0.006-0.02,0.008-0.03,0.007
		C23.626,16.137,23.647,16.139,23.668,16.139z"/>
	<path d="M23.604,16.149c-0.011-0.001-0.003-0.006-0.021-0.006c-0.006,0.003-0.002,0.01,0.005,0.01
		C23.594,16.153,23.6,16.152,23.604,16.149z"/>
	<path d="M23.811,16.141c0.008,0,0.014-0.002,0.021-0.006c-0.02,0.001-0.041,0-0.06,0.004
		C23.771,16.139,23.807,16.141,23.811,16.141z"/>
	<path d="M25.486,16.467c0.06,0.004,0.097-0.013,0.098-0.067c0-0.008,0.05-0.038-0.018-0.043c-0.01-0.001-0.068-0.003-0.047,0.021
		c-0.01,0.004-0.046,0-0.047,0.013c0.007,0.006,0.015,0.012,0.021,0.018C25.489,16.424,25.424,16.463,25.486,16.467z"/>
	<path d="M23.768,16.131c-0.035,0.004,0.021,0.001,0.038,0C23.822,16.112,23.749,16.117,23.768,16.131z"/>
	<path d="M25.568,16.287c0.013,0,0.021-0.007,0.022-0.014C25.588,16.273,25.546,16.285,25.568,16.287z"/>
	<path d="M23.787,16.108c0.002-0.001,0.005-0.003,0.008-0.004c-0.004,0-0.014,0-0.023,0.001
		C23.761,16.11,23.798,16.108,23.787,16.108z"/>
	<path d="M22.692,17.936c0.006-0.013,0.009,0.03,0.031-0.032c-0.007-0.008-0.007,0.002-0.012,0.013
		C22.701,17.918,22.695,17.925,22.692,17.936z"/>
	<polygon points="23.322,16.31 23.325,16.31 23.326,16.31 	"/>
	<path d="M26.352,16.364c0.006-0.008,0.013-0.016,0.019-0.024C26.363,16.34,26.336,16.353,26.352,16.364z"/>
	<path d="M26.467,16.346c0.014,0.001,0.02-0.011,0.02-0.021c-0.006-0.003-0.035-0.011-0.01,0.007c-0.009,0-0.015,0.003-0.022,0.003
		C26.454,16.338,26.457,16.345,26.467,16.346z"/>
	<path d="M22.837,18.204c-0.006-0.007-0.019-0.023-0.034-0.026c-0.01-0.002-0.047,0.045,0.037,0.042
		c0.002-0.009,0.002-0.016-0.004-0.021C22.836,18.2,22.837,18.201,22.837,18.204z"/>
	<path d="M23.322,16.31c-0.023,0-0.041,0-0.046,0.004C23.27,16.318,23.31,16.312,23.322,16.31z"/>
	<polygon points="23.165,16.317 23.155,16.325 23.168,16.323 	"/>
	<path d="M23.437,16.292c0,0-0.004-0.009-0.007-0.008c0.011-0.007,0.035-0.005,0.048-0.008c-0.025-0.02-0.045,0.002-0.029-0.034
		c0.003-0.008,0.043-0.032,0.046-0.031c-0.047-0.017-0.082,0.038-0.117,0.04c0.006,0-0.053-0.021-0.089-0.012
		c0.002-0.01-0.001-0.013-0.006-0.013c0.001-0.001,0.001-0.004,0.001-0.008c-0.005,0.004-0.009,0.008-0.013,0.011l0,0
		c-0.002,0.001-0.004,0.003-0.006,0.004c-0.019,0.014-0.036,0.03-0.055,0.045c0.012-0.001,0.028-0.004,0.039,0.001
		c-0.029,0.003-0.044,0.008-0.065,0.021c-0.002,0.001-0.004,0.003-0.006,0.005c0.007,0,0.016-0.001,0.017,0
		C23.205,16.315,23.403,16.309,23.437,16.292z"/>
	<path d="M23.006,17.635c-0.005,0-0.017,0.005-0.022,0.011c0.007,0.001,0.018,0.004,0.031,0.003
		C23.015,17.645,23.015,17.636,23.006,17.635z"/>
	<path d="M22.962,17.73c-0.002,0.004-0.008,0.058,0.006,0.027C22.971,17.751,22.966,17.723,22.962,17.73z"/>
	<path d="M23.583,16.174c0.01,0,0.025-0.003,0.04-0.004c-0.009-0.002-0.041-0.015-0.041-0.006l0,0l-0.009,0.005
		c0.003,0.001,0.004,0.003,0.013,0.002C23.583,16.172,23.583,16.172,23.583,16.174z"/>
	<path d="M23.035,17.98c0.021,0.001,0.032-0.007,0.034-0.026C23.064,17.958,23.016,17.975,23.035,17.98z"/>
	<path d="M25.938,16.046c-0.002,0-0.004,0-0.006,0c0.01,0.007,0.045,0.003,0.062,0.002c-0.016,0.002-0.042,0.007-0.042,0.006
		c0,0.007,0.048,0.006,0.054,0.007c-0.016,0-0.029,0-0.045,0c0.003,0.034,0.098,0.001,0.129-0.006
		c0.003,0.003,0.01,0.006,0.016,0.007c-0.002,0.004-0.011,0.002-0.011,0.007c0.009,0.001,0.025,0.002,0.035,0.003
		c-0.002,0.001-0.001,0.003,0,0.005c0.021-0.001,0.028-0.006,0.05-0.007c-0.022-0.012-0.052-0.015-0.074-0.018
		c0.002,0,0.004,0,0.008,0c-0.006-0.002-0.012-0.004-0.02-0.007c0.042,0.004,0.118-0.008,0.135-0.01
		c-0.045-0.022-0.121-0.012-0.17-0.013c0.002,0.001,0.002,0.001,0.004,0.002c-0.004,0-0.008,0-0.012,0v0.001
		c-0.008-0.001-0.016-0.001-0.023-0.001c0.004,0.009,0.029,0.008,0.035,0.008c0.002,0,0.031,0.001,0.035,0.002
		c-0.011,0-0.021,0.001-0.033,0c0.002,0.002,0.004,0.004,0.008,0.005c-0.018-0.004-0.035-0.005-0.049-0.004
		c0-0.001,0.002-0.002,0.002-0.004c0-0.001-0.06-0.017-0.031,0.008c-0.006-0.001-0.049-0.007-0.035-0.004
		c-0.004-0.001-0.012-0.001-0.018-0.004c0.002,0,0.004-0.001,0.008-0.002c-0.018-0.003-0.033-0.002-0.051,0.002
		c0.006,0.003,0.014,0.005,0.021,0.006C25.917,16.042,25.926,16.044,25.938,16.046z"/>
	<path d="M23.581,16.434c0.015-0.002,0.047-0.013,0.061-0.019c-0.02-0.005-0.037,0.004-0.054,0.012
		C23.586,16.429,23.583,16.432,23.581,16.434z"/>
	<polygon points="25.902,16.041 25.902,16.04 25.9,16.041 	"/>
	<path d="M26.15,16.415c0.019,0.004,0.02-0.019,0.037-0.021c-0.025-0.043-0.074,0.002-0.023,0.012
		C26.165,16.411,26.158,16.414,26.15,16.415z"/>
	<path d="M23.931,16.831c-0.005,0.009,0.049,0.04,0.064,0.01c-0.023,0.007-0.042,0.002-0.056-0.016
		C23.936,16.826,23.932,16.828,23.931,16.831z"/>
	<path d="M24.232,16.093c0-0.003-0.006-0.004-0.012-0.004c0.011,0,0.018,0,0.021-0.004c-0.005,0-0.01,0-0.016,0
		c0.061-0.016,0.127-0.014,0.188-0.031c-0.011,0-0.031,0.001-0.034,0c0.006-0.001,0.075-0.001,0.079-0.009
		c0.005-0.01-0.111,0.007-0.067-0.004c-0.085-0.03-0.324-0.009-0.408,0.022c0.016,0,0.031-0.002,0.046-0.003
		c-0.009,0.001-0.014,0.002-0.024,0.004c0.018,0.003,0.035-0.004,0.053-0.003c-0.019,0.002-0.034,0.002-0.051,0.007
		c0.01,0,0.021-0.001,0.03-0.001c-0.007,0.001-0.014,0.002-0.021,0.003c0.003,0.005,0.018,0.006,0.037,0.006
		c0.01,0.003,0.006,0.005-0.012,0.005c0.007,0.001,0.027,0.008,0.025,0.01c-0.039,0.026-0.044-0.003-0.067,0.01
		c0.011-0.006,0.01-0.008-0.002-0.008c-0.016,0.008-0.062-0.012-0.085-0.011c-0.005,0.003,0.006,0.003,0.012,0.003
		c-0.014,0-0.027,0.001-0.041,0.003c0.001,0.002,0.003,0.002,0.005,0.003c-0.01,0-0.021-0.001-0.03,0.003
		c0.007,0.003,0.014,0.004,0.021,0.004c-0.011,0-0.024,0-0.036,0c-0.009,0.007,0.003,0.007,0.027,0.006
		c-0.002,0.001-0.004,0.001-0.005,0.001c0.019,0,0.049,0.002,0.058,0.003c-0.021,0-0.041,0.002-0.062,0.006
		c0.003,0.004,0.008,0.005,0.012,0.006c0.002,0,0.006,0,0.009-0.001c-0.001,0-0.004,0-0.005,0.001
		c0.016-0.004,0.062-0.001,0.077-0.002c0.001-0.002-0.001-0.002-0.001-0.004c0.019-0.004,0.051-0.007,0.069,0.007
		c-0.012,0.001-0.098-0.009-0.06,0.008c-0.014,0.001-0.029,0.003-0.042,0.007c0.069-0.007,0.178,0.033,0.224-0.012
		c0.003-0.002-0.017-0.001-0.024,0c0.011-0.01,0.037-0.005,0.042-0.019C24.189,16.105,24.204,16.099,24.232,16.093z"/>
	<path d="M24.054,16.75c-0.02-0.01-0.033-0.026-0.073-0.021C23.999,16.743,24.031,16.767,24.054,16.75z"/>
	<path d="M23.457,16.143c0.009-0.003,0.019-0.003,0.028-0.001c-0.023,0.005-0.049,0.016-0.032,0.016c0.014,0,0.04-0.004,0.048-0.01
		c-0.029,0.002-0.024,0.001,0.015-0.003c0-0.002-0.002-0.003-0.003-0.004c0.003,0,0.006,0,0.01-0.001
		C23.503,16.139,23.468,16.137,23.457,16.143z"/>
	<polygon points="23.87,16.124 23.876,16.123 23.873,16.123 	"/>
	<path d="M24.964,16.298c0.08,0.008,0.124,0.042,0.209,0.004c0.006-0.01-0.028-0.028-0.005-0.034c-0.011-0.001-0.1-0.011-0.101,0
		c-0.012-0.007-0.027,0.003-0.036-0.009c-0.009,0.005-0.035,0.015-0.024-0.011c-0.012-0.001-0.03,0.004-0.042,0.006
		c-0.001,0.004,0.033,0.021,0.032,0.02c-0.01,0.001-0.032,0.002-0.043,0.001c0.004,0.006,0.021,0.002,0.032,0.005
		c-0.005,0.006-0.01,0.009-0.015,0.016C24.97,16.296,24.967,16.298,24.964,16.298z"/>
	<path d="M24.021,16.205c0.02,0,0.058,0,0.076-0.008c-0.023-0.005-0.076-0.021-0.099-0.003
		C23.991,16.198,24.019,16.205,24.021,16.205z"/>
	<path d="M27.634,18.373c-0.099,0.018-0.137,0.047-0.163-0.073c-0.02-0.083-0.162-0.14-0.181-0.228
		c-0.015-0.066-0.03-0.09-0.074-0.139c-0.041-0.046-0.026-0.125-0.059-0.181c-0.028-0.049-0.035-0.1-0.062-0.15
		c-0.039-0.075-0.119-0.175-0.123-0.259c0.025,0.028,0.055,0.104,0.084,0.109c0.02-0.082,0.021-0.103-0.01-0.182
		c-0.054,0.015-0.102-0.019-0.152,0c-0.068,0.026-0.123,0.017-0.192-0.008c-0.05-0.018-0.247-0.133-0.244,0.001
		c0.003,0.155-0.183-0.047-0.229-0.062c-0.053-0.017-0.138,0.013-0.138-0.077c0-0.05,0.021-0.088,0.022-0.133
		c-0.016,0.014-0.028,0.013-0.041-0.003c-0.022-0.035-0.055,0.011-0.079,0.012c-0.052,0.002-0.099,0-0.149,0.002
		c-0.078,0.003-0.158,0.044-0.225,0.081c-0.082,0.048-0.153-0.022-0.2,0.041c0.001,0,0.001,0,0.002,0
		c-0.041,0.054-0.088,0.102-0.128,0.158c-0.027,0.038-0.018,0.087-0.031,0.13c-0.013,0.041-0.058,0.079-0.097,0.093
		c-0.069,0.025-0.097,0.104-0.126,0.167c-0.023,0.051-0.042,0.099-0.069,0.147c-0.036,0.064,0.013,0.166,0.01,0.234
		c-0.002,0.049-0.02,0.106-0.046,0.147c-0.025,0.041,0.008,0.089,0.007,0.142c-0.001,0-0.003,0-0.005,0
		c0.027,0.043,0.059,0.082,0.093,0.119c0.06,0.066,0.072,0.154,0.136,0.219c0.048,0.048,0.105,0.125,0.182,0.098
		c0.035-0.012,0.063-0.034,0.103-0.035c0.032-0.001,0.057,0.028,0.088,0.027c0.075-0.002,0.149-0.107,0.239-0.109
		c0.065-0.001,0.061,0.111,0.117,0.11c0.185-0.004,0.162,0.128,0.115,0.256c-0.029,0.082,0.051,0.16,0.096,0.218
		c0.047,0.058,0.052,0.145,0.07,0.215c0.018,0.066,0.049,0.169,0.033,0.238c-0.016,0.068-0.072,0.117-0.085,0.187
		c-0.019,0.098,0.021,0.195,0.062,0.281c0.043,0.082,0.045,0.117,0.055,0.207c0.021,0.196,0.17,0.337,0.168,0.525
		c0.019-0.012,0.08,0.026,0.133-0.001c0.055-0.029,0.104-0.016,0.16-0.021c0.004-0.023,0.109-0.061,0.132-0.09
		c0.05-0.069,0.081-0.149,0.136-0.214c0.061-0.071-0.008-0.123,0.062-0.182c0.066-0.055,0.088-0.033,0.092-0.141
		c0.001-0.046-0.086-0.159,0.009-0.178c0.011-0.068,0.078-0.097,0.13-0.128c0.147-0.092,0.033-0.221,0.094-0.348
		c0.021-0.046-0.049-0.101-0.049-0.152c0-0.048-0.011-0.096-0.01-0.146c0-0.048,0.041-0.073,0.051-0.118
		c0.036-0.169,0.182-0.216,0.271-0.347c0.077-0.113,0.229-0.38,0.171-0.517C27.742,18.332,27.689,18.361,27.634,18.373z"/>
	<path d="M24.219,16.792c-0.005,0-0.012,0.001-0.016,0.003c0.005-0.014,0.01-0.022,0.014-0.03c-0.008,0.003-0.024,0.002-0.038,0
		c-0.005,0.001-0.011,0.002-0.017,0.003l0.002-0.004c-0.008,0-0.015,0-0.023,0c0.001-0.007,0.005-0.011,0.012-0.013
		c-0.014-0.006-0.027-0.005-0.04,0.002c0.001-0.002,0.07-0.059,0.052-0.059c-0.056,0-0.097,0.079-0.15,0.095
		c0,0.003,0.004,0.005,0.008,0.005c-0.006,0.014-0.027,0.01-0.033,0.022c-0.001,0.001,0.132,0.011,0.147,0.011
		c-0.009,0.003-0.016,0.008-0.021,0.016c-0.002,0.006,0.058-0.026,0.057-0.025c0.026,0.027,0.023,0.065,0.049-0.003
		c-0.009,0.004-0.006,0.006-0.02,0.005C24.211,16.801,24.208,16.812,24.219,16.792z"/>
	<path d="M24.96,16.189c-0.004,0-0.007-0.002-0.006-0.005c0.015-0.001,0.032-0.004,0.039-0.01c-0.011,0.001-0.021,0-0.03-0.006
		c0.004-0.011,0.024,0.003,0.03-0.012c0.006-0.016-0.031-0.014-0.029-0.018c0.008-0.02,0.068,0.008,0.076-0.012
		c-0.01-0.005-0.02-0.008-0.03-0.009c0.004,0,0.011-0.001,0.015-0.002c-0.017-0.005-0.035-0.006-0.053-0.003
		c0.021-0.011,0.135-0.036,0.144-0.052c0.031-0.001,0.091-0.005,0.1-0.019c0.002-0.004-0.28,0.03-0.296,0.032
		c0.003-0.003,0.062-0.021,0.063-0.023c0.001-0.001-0.011-0.001-0.028,0.001c0.021-0.003,0.038-0.009,0.048-0.018
		c-0.149-0.003-0.312-0.012-0.457,0.022c0.001,0.001,0.005,0.001,0.008,0.003c-0.007,0-0.015,0.001-0.022,0.003
		c0.007,0.005,0.015,0.007,0.024,0.007c-0.013,0.001-0.071-0.011-0.078,0c-0.001,0.001,0,0.003,0.001,0.004
		c-0.012-0.004-0.028-0.007-0.034,0.003c-0.021,0.001-0.168,0.007-0.184,0.038c0.009,0.003,0.018,0.004,0.027,0.002
		c-0.016,0.03-0.083,0.004-0.096,0.03c-0.004,0.009,0.061,0.005,0.066,0.004c-0.013,0.015-0.049-0.002-0.06,0.015
		c0.009-0.002,0.018-0.001,0.026,0.003c-0.002,0.002-0.005,0.002-0.009,0.004c0.009,0.005,0.019,0.006,0.028,0.004
		c-0.001,0-0.002-0.001-0.003-0.001c0.028-0.008,0.135-0.008,0.115,0.042c0.013,0.003,0.013,0.008-0.001,0.016
		c0.012-0.001,0.043,0.017,0.048,0.018c-0.009,0.014-0.028-0.003-0.041,0c-0.001,0.009,0.032,0.01,0.046,0.013
		c-0.015,0.018-0.054,0.022-0.061,0.046c0.003-0.001,0.006-0.001,0.009,0c-0.019,0.026,0.013,0.03,0.021,0.04
		c-0.041,0.021,0.07,0.072,0.086,0.074c0.024,0.002,0.078-0.09,0.123-0.098c0,0.002-0.001,0.004-0.002,0.007
		c0.049,0.001,0.074-0.027,0.117-0.039c0.066,0.001,0.135-0.01,0.197-0.032c-0.015-0.002-0.082-0.001-0.078-0.013
		c0.021-0.002,0.01-0.002,0.013-0.013c0.01,0.002,0.081,0.029,0.086,0.014c0.007-0.024-0.052-0.034-0.063-0.04
		c0.007-0.021,0.05,0.036,0.062,0c-0.012-0.006-0.024-0.012-0.037-0.015C24.904,16.195,24.94,16.212,24.96,16.189z"/>
	<path d="M24.066,16.836c0.001-0.003-0.004-0.005-0.004-0.009c-0.018,0.007-0.032,0.018-0.045,0.032
		c-0.006,0.012,0.044,0.01,0.052-0.008C24.04,16.851,24.061,16.847,24.066,16.836z"/>
	<path d="M23.576,16.216c-0.021,0.014-0.039,0-0.058,0.012c0.025,0.035,0.093,0.012,0.12-0.004c-0.003,0-0.012,0-0.015-0.001
		c0.019-0.013-0.007-0.004-0.017-0.004c0.014-0.002,0.027-0.007,0.04-0.012C23.643,16.208,23.521,16.214,23.576,16.216z"/>
	<path d="M23.561,16.179c-0.011,0.002-0.021,0.004-0.032,0.009c0.006,0,0.007,0,0.013,0C23.552,16.189,23.558,16.186,23.561,16.179z
		"/>
	<path d="M24.051,16.166c0.004-0.002,0.009-0.003,0.014-0.003c-0.002-0.014-0.219,0.005-0.205,0
		c-0.005-0.002-0.029,0.002-0.022-0.004c0.009,0,0.019-0.001,0.028-0.001c-0.003-0.011-0.115-0.012-0.126-0.005
		c0.011,0.005,0.023,0.007,0.036,0.007c0.014-0.009,0.022-0.005,0.025,0.009c-0.046,0.008,0.042,0.01,0.055,0.009
		c0.048-0.027,0.15,0.022,0.205-0.012C24.061,16.166,24.056,16.167,24.051,16.166z"/>
	<path d="M23.395,16.169c0.007,0.001,0.014-0.001,0.021-0.005c-0.008,0.001-0.015,0.001-0.022,0.001
		C23.389,16.168,23.392,16.169,23.395,16.169z"/>
	<path d="M23.699,16.18c0.001,0,0.084,0.003,0.062-0.009c-0.016-0.004-0.031-0.003-0.046,0.005
		C23.713,16.176,23.703,16.178,23.699,16.18z"/>
	<path d="M23.644,16.158c-0.003,0.004,0.006,0.003,0.018,0.003c-0.016,0.01-0.029-0.004-0.043,0.005
		c0,0.001,0.002,0.002,0.005,0.004c0.013-0.001,0.025-0.001,0.034,0.001c-0.009,0.003-0.029,0.005-0.039,0.011
		c0.016-0.01,0.09,0.014,0.09-0.024C23.708,16.158,23.649,16.157,23.644,16.158z"/>
	<path d="M30.393,15.063H19.608v7.009h10.785V15.063z M27.727,17.536c-0.006-0.007-0.015-0.015-0.022-0.022
		c0.019,0.048,0.036,0.097,0.052,0.146c0.001-0.005,0.003-0.011,0.01-0.011c0.014,0.028-0.005,0.061,0.027,0.081
		c0.009,0.031,0.014,0.064,0.021,0.095c-0.016-0.057-0.041-0.109-0.06-0.165c-0.001,0.005-0.002,0.01-0.009,0.011
		c-0.021-0.056-0.089-0.085-0.117-0.142c-0.049-0.099,0.028-0.059,0.074-0.015c-0.01-0.023-0.016-0.048-0.025-0.071
		C27.691,17.475,27.713,17.503,27.727,17.536z M27.499,17.07c-0.003,0-0.006,0.001-0.009,0.002c0.007,0.01,0.01,0.022,0.017,0.034
		c-0.022-0.04-0.048-0.077-0.071-0.115C27.454,17.02,27.48,17.042,27.499,17.07z M26.977,16.43c0.021,0.02,0.034,0.047,0.056,0.068
		c-0.066-0.064-0.123-0.138-0.195-0.196C26.889,16.348,26.936,16.394,26.977,16.43z M23.346,16.18c0.001,0,0.002,0,0.004,0.001
		c-0.003,0-0.006,0.001-0.008,0.002C23.343,16.182,23.344,16.181,23.346,16.18z M22.632,16.872c0.006-0.008,0.015-0.015,0.021-0.023
		c-0.007,0.01-0.017,0.019-0.024,0.029c-0.123,0.171-0.226,0.355-0.309,0.548c0.083-0.194,0.187-0.378,0.309-0.548
		C22.63,16.876,22.631,16.874,22.632,16.872z M23.531,21.089c0.003-0.008,0.009-0.013,0.018-0.013
		c0.006,0.013,0.015,0.025,0.025,0.038C23.56,21.105,23.546,21.097,23.531,21.089z M27.591,19.909
		c-0.015,0.013-0.026,0.029-0.03,0.06c-0.496,0.904-1.457,1.517-2.561,1.517c-0.386,0-0.753-0.076-1.091-0.211
		c-0.013-0.039-0.151-0.066-0.073-0.113c0.051-0.024,0.01-0.092-0.002-0.119c0.009-0.002,0.054,0.012,0.041-0.017
		c0.009,0.019-0.123-0.042-0.07-0.056c0.028-0.008,0.097,0.014,0.077-0.032c0.001-0.023-0.044-0.072-0.001-0.083
		c0.037-0.009,0.097-0.017,0.115-0.057c0.05-0.112-0.056-0.081-0.084-0.155c0.006,0.016,0.155-0.007,0.165-0.055
		c0.014-0.072,0.04-0.135,0.05-0.207c0,0,0,0,0,0.001c0-0.028,0.008-0.052,0.026-0.073c-0.01-0.031-0.021-0.062-0.029-0.094
		c-0.007-0.037,0.043-0.09,0.069-0.107c0.097-0.061,0.113-0.101,0.142-0.212c0.009-0.065-0.057-0.212-0.035-0.256
		c0.031-0.058,0.154-0.295,0.025-0.323c-0.061-0.012-0.095-0.049-0.152-0.064c-0.057-0.017-0.12,0.002-0.169,0.007
		c-0.01-0.045-0.025-0.043-0.064-0.06c-0.105-0.044-0.056,0.053-0.11,0.058c-0.054,0.006-0.115-0.064-0.072-0.12
		c0.028-0.038-0.074-0.185-0.134-0.18c-0.052,0.001-0.188-0.011-0.22-0.058c-0.04-0.06-0.183-0.077-0.198-0.143
		c-0.038,0.008-0.083,0.033-0.109,0.023c-0.021-0.007-0.084,0.001-0.1-0.016c-0.02-0.023-0.062-0.054-0.097-0.052
		c0.003,0.018,0.023,0.009,0.032,0.027c-0.098,0.006-0.026,0.104-0.045,0.106c-0.043,0.002-0.031-0.09-0.031-0.109
		c0.012-0.01,0.014-0.02,0.005-0.029c-0.018-0.024-0.032,0.018-0.045,0.023c-0.06,0.026-0.158,0.081-0.143,0.161
		c-0.075,0.031,0,0.128,0.013,0.186c-0.007,0.014-0.002,0.022,0.014,0.028c0.001,0.061-0.081,0.126-0.082,0.186
		c-0.001,0.07-0.021,0.079,0.043,0.113c0,0.042-0.045,0.062-0.033,0.109c0.013,0.051,0.057,0.053,0.079,0.083
		c0.044,0.064,0.1,0.132,0.155,0.192c0.066,0.071,0.083,0.163,0.19,0.183c0.084,0.011,0.178,0.063,0.211,0.142
		c0.031,0.072,0.042,0.146,0.067,0.22c0.012,0.077,0.005,0.211,0.052,0.273c0.044,0.107,0.051,0.174,0.051,0.282
		c0,0.055,0.032,0.062,0.05,0.101c0.014,0.029,0,0.056,0.017,0.081c-0.849-0.51-1.417-1.439-1.417-2.502
		c0-0.177,0.022-0.348,0.052-0.516c-0.001,0-0.001-0.005-0.003-0.005c0.001-0.006,0.004-0.012,0.005-0.019
		c-0.001,0.008-0.001,0.016-0.002,0.024c0.021,0.009,0.03,0.088,0.058,0.095c0.024,0.006,0.049-0.063,0.063-0.009
		c0.02,0.005,0.011,0.099,0.018,0.118c0.02,0.05,0.057,0.077,0.096,0.09c-0.012,0.042-0.005,0.078-0.002,0.121
		c0.003,0.047-0.036,0.095-0.024,0.139c0.004,0.002,0.007,0.003,0.011,0.004c0-0.005,0.003-0.015,0.008-0.021
		c0.044,0.015,0.015,0.24,0.074,0.264c0.029,0.012,0.035-0.132,0.096-0.11c0.03,0.011,0.005,0.088,0.008,0.109
		c0,0.001,0.049-0.044,0.053-0.05c-0.01-0.037-0.012-0.136-0.077-0.108c-0.137,0.059-0.078-0.18-0.05-0.252
		c0.032-0.082,0.15-0.233-0.009-0.243c-0.132-0.008,0.02-0.131,0.037-0.16c0.013-0.015,0.024-0.027,0.036-0.053
		c0.018-0.039,0.051-0.067,0.07-0.106c-0.149-0.027-0.155,0.167-0.292,0.137c-0.101-0.021,0.117-0.384,0.128-0.41
		c0,0,0.001,0,0.002,0c0.043-0.075,0.097-0.109,0.17-0.149c0.05-0.027,0.084,0.048,0.121,0.031
		c-0.006-0.012,0.011-0.024,0.024-0.045c-0.008,0.004-0.006,0.004-0.014-0.001c0.021-0.007,0.041-0.002,0.06-0.007
		c-0.006,0.012,0.119,0.032,0.12,0.035c0.005,0.019-0.08,0.234-0.035,0.24c0.05,0.006,0.09-0.144,0.093-0.177
		c0.015-0.134,0.115-0.182,0.227-0.23c0-0.001-0.001-0.001-0.001-0.002c0.027-0.019,0.062-0.022,0.088-0.043
		c-0.021-0.023,0.01-0.016,0.021-0.032c-0.005-0.001-0.01-0.003-0.01-0.012c0.016-0.004,0.026-0.013,0.031-0.027
		c-0.002,0-0.006,0-0.008,0c-0.003-0.009,0.031-0.067,0.039-0.075c-0.001,0.004-0.015,0.061-0.017,0.06
		c0.039,0.001,0.046-0.064,0.066-0.076c-0.007-0.016,0.104-0.056,0.129-0.062c-0.006-0.008-0.032-0.001-0.041-0.001
		c0.044-0.02,0.104-0.017,0.145-0.032c-0.066,0.001,0.054-0.098,0.093-0.089c0.038,0.008,0.116-0.046,0.163-0.047
		c-0.009,0.013-0.006,0.018,0.011,0.015c-0.062,0.003-0.112,0.083-0.065,0.058c0.028-0.015,0.156-0.035,0.167-0.059
		c0.007-0.014-0.141-0.004-0.075-0.086c-0.006,0-0.017-0.003-0.028-0.003c0.019-0.012,0.054-0.006,0.066-0.028
		c0.015-0.026-0.17,0.016-0.179,0.017c0.076-0.061,0.443-0.048,0.407-0.171c-0.011,0.003-0.13,0.035-0.133,0.02
		c0.027-0.008,0.095-0.014,0.11-0.028c0.009-0.011-0.095-0.001-0.075-0.036l0.001-0.002c-0.024,0-0.033-0.009-0.043-0.015
		c0.056-0.018-0.001-0.099-0.04-0.081c0.003,0.004-0.002,0.016,0.004,0.018c-0.007-0.003-0.013-0.007-0.017-0.013
		c0.003-0.005,0.009-0.002,0.013-0.005c-0.005-0.005-0.017-0.005-0.006-0.024c-0.03,0.055-0.152,0.02-0.193,0
		c-0.142-0.068-0.099,0.026-0.205,0.05c0.002,0.052,0.074,0.052-0.025,0.091c-0.079,0.032-0.032,0.049-0.073,0.094
		c-0.023,0-0.026-0.003-0.034-0.006c0,0,0.001,0,0,0c-0.007,0-0.013-0.001-0.021-0.003c0.001,0.002,0.015,0.002,0.019,0.003
		c0.006-0.009-0.009-0.01-0.02-0.008c0.003-0.016,0.044-0.041,0.017-0.06c-0.083,0.002-0.073-0.058-0.177-0.054
		c0.029-0.029,0.033-0.046-0.01-0.039c0.056-0.038,0.164-0.071,0.208-0.111c-0.004-0.003-0.008-0.006-0.013-0.007
		c0.051,0.004,0.137-0.005,0.171-0.034c-0.024-0.002-0.055,0.001-0.051-0.012c0.023,0.008,0.053,0.008,0.083,0.003
		c-0.027,0.011-0.064,0.032-0.078,0.043c0.007,0,0.025-0.003,0.036-0.001c-0.007,0.005-0.014,0.01-0.004,0.009
		c0.041-0.002,0.108-0.009,0.148-0.021c-0.002-0.005-0.021-0.002-0.029-0.007c-0.002-0.001,0.004-0.005,0.003-0.008
		c-0.004-0.01-0.043-0.016-0.053-0.012c0-0.003,0-0.005,0-0.007c0.01-0.002,0.019-0.005,0.029-0.007
		c-0.004,0.002-0.001,0.006,0.009,0.006c-0.001-0.003,0.003-0.009-0.008-0.006c0.056-0.016,0.11-0.042,0.136-0.065
		c-0.014,0-0.03-0.006-0.044-0.008c0.02,0,0.037-0.001,0.047-0.001c-0.014,0.011,0.052-0.006,0.069,0.003c0,0-0.001,0-0.002,0
		c0.005,0.001,0.011,0.003,0.016,0.008c-0.007,0.002-0.014,0.004-0.021,0.005c0.001-0.001,0.042,0,0.051,0.005
		c-0.017-0.001-0.033,0.002-0.047,0.012c0,0,0.055,0.016,0.056-0.006c0.035,0.025-0.069,0.044-0.041,0.054
		c-0.037,0.017-0.106,0.005-0.132,0.04c-0.004,0.006,0.115-0.007,0.126-0.001c0.027,0.014,0.081,0.046,0.126,0.036
		c0.035-0.008-0.032-0.041-0.032-0.04c0.062-0.011,0.059,0.02,0.075-0.033c-0.021,0.003-0.027-0.018-0.042-0.016
		c0.004-0.01,0.009-0.004,0.012-0.011c0.028,0.004,0.086,0.02,0.091-0.016c0-0.002-0.077-0.028-0.082-0.031
		c0.007-0.004,0.01-0.005,0.019-0.007c-0.006-0.003-0.014-0.004-0.021-0.003c0.005-0.003,0.012-0.003,0.02-0.004
		c-0.006-0.006-0.013-0.008-0.02-0.006c0.001-0.002,0.001-0.003,0.002-0.005c-0.063-0.003-0.119-0.022-0.187-0.023
		c0.003,0,0.011-0.013,0.01-0.015c-0.01-0.027-0.167,0.026-0.13,0.01c-0.018,0,0.039-0.015,0.051-0.017
		c-0.033-0.002-0.063-0.002-0.097,0.005c0.012-0.004,0.023-0.006,0.034-0.012c-0.07,0.003-0.096,0.002-0.148,0.039
		c0.017,0,0.033-0.003,0.047-0.013c-0.003,0-0.006,0-0.009,0c0.018-0.008,0.049-0.006,0.066-0.012
		c-0.011,0.006-0.074,0.013-0.064,0.032c0,0,0.044,0.001,0.049,0.003c-0.014,0.012-0.032,0.014-0.052,0.005
		c-0.017,0.014,0.126,0.016,0.127,0.016c-0.018,0.004-0.088,0.068-0.112,0.045c-0.003-0.016,0.005-0.022,0.025-0.022
		c0.017-0.014-0.069,0.006-0.064,0.006c0.021-0.018-0.018-0.01,0.014-0.02c-0.007-0.003-0.029,0.001-0.031-0.004
		c0.011-0.003,0.021-0.006,0.031-0.01c0.023-0.017-0.075-0.015-0.102,0.005c-0.007,0.005,0.036,0.009,0.028,0.015
		c-0.007,0.004-0.014,0.008-0.021,0.012c0.008-0.002,0.013-0.002,0.021-0.004c-0.011,0.016-0.051,0.01-0.076,0.029
		c-0.016,0.002-0.013,0-0.007-0.003c-0.036,0.009-0.134-0.003-0.195-0.005c-0.023,0.019-0.063,0.022-0.077,0.018
		c-0.045-0.015-0.083-0.002-0.118,0.019c-0.031,0.026-0.064,0.05-0.094,0.077c0.007-0.006,0.012-0.015,0.02-0.021
		c0.022-0.02,0.047-0.04,0.074-0.056c0.008-0.007,0.017-0.014,0.025-0.021c-0.005,0-0.009,0.001-0.013,0.002
		c0.006-0.005,0.013-0.01,0.021-0.016c0.004,0,0.002,0.004,0.003,0.006c0.004-0.004,0.009-0.008,0.014-0.012
		c-0.004,0-0.005,0-0.009,0c0.006-0.004,0.011-0.002,0.016-0.005c0.009-0.007,0.017-0.015,0.026-0.021c-0.002,0-0.006,0-0.008,0
		c0.008-0.007,0.04-0.032,0.062-0.045c0.002-0.001,0.003-0.003,0.005-0.004c-0.001,0-0.003,0-0.004,0
		c0.005-0.004,0.011-0.008,0.017-0.012v0.001c0.01-0.007,0.022-0.013,0.032-0.02c0.012,0,0.022,0,0.034-0.002
		c0.003-0.002,0.009-0.004,0.014-0.004v0.001c0.052-0.012,0.128,0.011,0.176-0.017c0.005-0.003-0.062,0.001-0.029-0.015
		c-0.006,0-0.068,0.011-0.039,0.012c-0.003,0.003-0.008,0.004-0.014,0.005c0.004-0.001,0.008,0.002,0.012,0c-0.007,0-0.01,0-0.012,0
		l0,0c-0.032,0.005-0.062-0.008-0.092-0.005c-0.003,0.001-0.002,0.002,0,0.002c-0.006,0-0.012,0.001-0.018,0.003
		c0.008-0.005,0.017-0.01,0.025-0.016h0.001c0.017-0.001,0.021-0.003,0.011-0.006c-0.002,0-0.003,0.002-0.006,0.002
		c0.465-0.314,1.018-0.509,1.621-0.509c0.574,0,1.109,0.167,1.562,0.454c-0.041-0.019-0.08-0.032-0.117-0.036
		c0.008-0.027-0.084-0.01-0.058-0.006c-0.037,0.006-0.08-0.006-0.114,0.006c0.004,0.001,0.002,0.001,0.008,0.003
		c-0.012-0.002-0.025,0-0.039,0.004c0.01,0,0.01,0,0.017,0.001c-0.002,0-0.078-0.006-0.08,0.003c0,0,0.011,0.001,0.015,0.002
		c-0.002,0-0.014,0.002-0.018,0.004c0.023,0.001,0.031-0.003,0.055-0.003c-0.006,0.018-0.175,0.087-0.197,0.088
		c0.01,0.001,0.015,0.003,0.025,0.005c-0.033-0.004-0.18,0.025-0.103,0.077c-0.007,0.003-0.013,0.008-0.017,0.015
		c0.014-0.002,0.014-0.002,0.028-0.001c0.002,0.018-0.017,0.006-0.017,0.018c0.004,0.039,0.111,0.011,0.125,0.004
		c0.037-0.023,0.047,0.001,0.068,0.033c0.01,0.013,0.043,0.08,0.061,0.083c0.02,0.001,0.105-0.021,0.104-0.048
		c-0.073-0.013,0.042-0.06,0.041-0.066c-0.009-0.034-0.055-0.023-0.061-0.061c-0.007-0.036,0.11-0.026,0.103-0.049
		c0.01-0.014,0.094-0.058,0.113-0.007c0.001,0.004-0.104,0.042-0.112,0.041c0.011,0.014,0.009,0.029,0.03,0.035
		c-0.039,0.047,0.216,0.041,0.236,0.062c-0.053,0.02-0.112-0.019-0.162,0.007c-0.016,0.008,0.042,0.03,0.042,0.047
		c0-0.02-0.132,0.01-0.121,0.082c-0.013,0-0.027-0.001-0.04-0.001c0-0.001,0.001-0.005,0.003-0.008
		c-0.033-0.012-0.167,0.035-0.161-0.006c-0.035-0.006-0.076-0.003-0.113-0.007c-0.002,0.009,0-0.003,0.002-0.019
		c0.008,0.003,0.021-0.001,0.022,0.01c0.003-0.017-0.006-0.021-0.019-0.024c0.002-0.014,0.006-0.026,0.01-0.025
		c-0.004-0.009-0.016-0.016-0.018-0.036c-0.07,0.027-0.07,0.027-0.033,0.092c0.018,0.029-0.051,0.026-0.07,0.024
		c-0.064-0.005-0.057,0.053-0.111,0.064c-0.064,0.014-0.076,0.042-0.15,0.036c0,0.013,0.006,0.021,0.007,0.032
		c-0.011,0.002-0.106-0.017-0.106,0.004c0,0.031,0.163,0.048,0.127,0.107c0,0,0.002,0,0.002-0.001
		c0.004,0.082-0.019,0.061-0.078,0.068c-0.054-0.004-0.104-0.018-0.158-0.022c-0.062-0.004-0.036,0.036-0.036,0.066
		c0,0.021-0.042,0.18,0.006,0.184c0.047,0.003,0.063-0.014,0.094,0.031c0.022,0.036,0.095-0.02,0.134-0.004
		c0.033-0.013,0.069-0.04,0.092-0.072c-0.076-0.034,0.1-0.109,0.102-0.116c-0.033-0.085,0.094-0.018,0.133-0.038
		c0.079-0.04,0.09-0.017,0.148,0.045c-0.012-0.025,0.258,0.186,0.174,0.178c0.006,0.036,0.051-0.034,0.052-0.027
		c-0.01-0.059-0.041-0.051,0.04-0.03c-0.001-0.049-0.086-0.039-0.094-0.083c-0.057-0.005-0.145-0.08-0.151-0.134
		c-0.005-0.034,0.165,0.083,0.179,0.084c0.008,0.039,0.09,0.047,0.1,0.106c0.007,0.035,0.077,0.104,0.109,0.107
		c-0.019,0.036,0.008,0.057,0.049,0.062c-0.006-0.004-0.018-0.05-0.019-0.058c0.019,0.016,0.038,0.027,0.06,0.017
		c-0.036-0.03-0.053-0.06-0.084-0.09c-0.006-0.027,0.047,0.01,0.047,0.01c0.001-0.009,0-0.016-0.006-0.025
		c0.031-0.005,0.037-0.019,0.068,0.003c0.043,0.031,0.036-0.009,0.075-0.003c0,0.005,0.011,0.012,0.013,0.016
		c-0.017,0.006-0.113-0.01-0.104,0.027c0.006,0.026,0.047,0.009,0.006,0.051c0.037,0.019,0.058,0.041,0.089,0.067
		c-0.001,0.002-0.005,0.005-0.009,0.006c0.106,0.01,0.192,0.053,0.297,0.025c0.013,0.049,0.002,0.086-0.001,0.135
		c-0.001,0.014,0.003,0.062-0.009,0.072c-0.005,0.003,0.044,0.094,0.045,0.113c0.005,0.128,0.196,0.199,0.224,0.316
		c0.016,0.071,0.074,0.113,0.115,0.169c0.057,0.074,0.076,0.129,0.116,0.209c0.073,0.144,0.169,0.039,0.284,0
		c-0.008-0.051-0.008-0.104-0.019-0.155c0.011,0.05,0.025,0.098,0.033,0.148c-0.005,0.001-0.01,0.005-0.017,0.006
		c0.021,0.138,0.049,0.274,0.049,0.417C27.918,19.052,27.8,19.508,27.591,19.909z"/>
	<path d="M23.504,16.288c-0.049,0.008,0.044,0.008,0.058,0.004C23.577,16.259,23.485,16.292,23.504,16.288z"/>
	<rect x="8.824" y="26.23" width="10.784" height="7.01"/>
	<polygon points="12.598,33.859 11.52,34.938 16.912,34.938 15.833,33.859 	"/>
	<rect x="30.393" y="26.23" width="10.783" height="7.01"/>
	<polygon points="34.167,33.859 33.088,34.938 38.48,34.938 37.402,33.859 	"/>
	<path d="M18.268,20.84c0.128,0,0.256-0.049,0.354-0.146l0.109-0.109c0.195-0.195,0.195-0.512,0-0.707
		c-0.195-0.195-0.512-0.195-0.707,0l-0.109,0.109c-0.195,0.195-0.195,0.512,0,0.707C18.012,20.791,18.14,20.84,18.268,20.84z"/>
	<path d="M17.08,22.028c0.128,0,0.256-0.049,0.354-0.146l0.202-0.202c0.195-0.195,0.195-0.512,0-0.707
		c-0.195-0.195-0.512-0.195-0.707,0l-0.202,0.202c-0.195,0.195-0.195,0.512,0,0.707C16.824,21.979,16.952,22.028,17.08,22.028z"/>
	<path d="M14.702,24.406c0.128,0,0.256-0.049,0.354-0.146l0.203-0.203c0.195-0.195,0.195-0.512,0-0.707
		c-0.195-0.195-0.512-0.195-0.707,0l-0.203,0.203c-0.195,0.195-0.195,0.512,0,0.707C14.446,24.357,14.574,24.406,14.702,24.406z"/>
	<path d="M15.891,23.217c0.128,0,0.256-0.049,0.354-0.146l0.203-0.203c0.195-0.195,0.195-0.512,0-0.707
		c-0.195-0.195-0.512-0.195-0.707,0l-0.203,0.203c-0.195,0.195-0.195,0.512,0,0.707C15.635,23.168,15.763,23.217,15.891,23.217z"/>
	<path d="M13.607,25.5c0.128,0,0.256-0.049,0.354-0.146l0.109-0.109c0.195-0.195,0.195-0.512,0-0.707
		c-0.195-0.195-0.512-0.195-0.707,0l-0.109,0.109c-0.195,0.195-0.195,0.512,0,0.707C13.352,25.452,13.479,25.5,13.607,25.5z"/>
	<path d="M31.378,20.693c0.099,0.098,0.226,0.146,0.354,0.146c0.127,0,0.256-0.049,0.354-0.146c0.195-0.195,0.195-0.512,0-0.707
		l-0.109-0.109c-0.194-0.195-0.512-0.195-0.707,0c-0.194,0.195-0.194,0.512,0,0.707L31.378,20.693z"/>
	<path d="M34.742,24.057l0.203,0.203c0.098,0.098,0.226,0.146,0.354,0.146s0.256-0.049,0.354-0.146c0.195-0.195,0.195-0.512,0-0.707
		L35.45,23.35c-0.195-0.195-0.513-0.195-0.707,0C34.548,23.545,34.546,23.861,34.742,24.057z"/>
	<path d="M33.553,22.868l0.203,0.203c0.098,0.098,0.227,0.146,0.354,0.146c0.129,0,0.257-0.049,0.354-0.146
		c0.195-0.195,0.195-0.512,0-0.707l-0.203-0.203c-0.194-0.195-0.512-0.195-0.706,0C33.359,22.356,33.357,22.673,33.553,22.868z"/>
	<path d="M32.365,21.68l0.201,0.202c0.099,0.098,0.227,0.146,0.354,0.146s0.256-0.049,0.354-0.146c0.195-0.195,0.195-0.512,0-0.707
		l-0.202-0.202c-0.195-0.195-0.513-0.195-0.707,0C32.171,21.168,32.169,21.484,32.365,21.68z"/>
	<path d="M35.93,25.245l0.109,0.109c0.098,0.098,0.227,0.146,0.354,0.146c0.129,0,0.256-0.049,0.354-0.146
		c0.194-0.195,0.194-0.512,0-0.707l-0.108-0.109c-0.195-0.195-0.513-0.195-0.707,0C35.736,24.733,35.734,25.05,35.93,25.245z"/>
</g>
</svg>
