<?xml version="1.0" encoding="utf-8"?>
<!-- Generator: Adobe Illustrator 16.0.4, SVG Export Plug-In . SVG Version: 6.00 Build 0)  -->
<!DOCTYPE svg PUBLIC "-//W3C//DTD SVG 1.1//EN" "http://www.w3.org/Graphics/SVG/1.1/DTD/svg11.dtd">
<svg version="1.1" id="Layer_1" xmlns="http://www.w3.org/2000/svg" xmlns:xlink="http://www.w3.org/1999/xlink" x="0px" y="0px"
	 width="50px" height="50px" viewBox="0 0 50 50" enable-background="new 0 0 50 50" xml:space="preserve">
<g>
	<path d="M28.129,34.499c0,0.522-1.807,1.25-4.75,1.25s-4.75-0.728-4.75-1.25V17.288c0.887,0.633,2.825,0.961,4.75,0.961
		s3.863-0.328,4.75-0.961v6.371c0.167-0.017,0.329-0.05,0.5-0.05V16.5c0-0.77-1.182-1.281-2.75-1.535V14.5
		c0-0.415-1.119-0.75-2.5-0.75s-2.5,0.335-2.5,0.75v0.465c-1.568,0.254-2.75,0.765-2.75,1.535v18c0,1.148,2.641,1.75,5.25,1.75
		s5.25-0.602,5.25-1.75v-0.837c-0.171,0-0.333-0.034-0.5-0.05V34.499z M20.879,15.458V16.5c0,0.415,1.119,0.75,2.5,0.75
		s2.5-0.335,2.5-0.75v-1.042c1.423,0.253,2.25,0.691,2.25,1.042c0,0.522-1.807,1.25-4.75,1.25s-4.75-0.728-4.75-1.25
		C18.629,16.149,19.456,15.711,20.879,15.458z"/>
	<path d="M27.523,23.74V22.5c-0.455-0.307-1.893-0.75-4.145-0.75c-2.253,0-3.688,0.443-4.145,0.75v12
		c0.455,0.307,1.892,0.75,4.145,0.75c2.252,0,3.688-0.443,4.145-0.75v-0.968c-2.24-0.505-3.92-2.501-3.92-4.897
		C23.604,26.241,25.281,24.245,27.523,23.74z"/>
	<polygon points="31.871,26.557 30.707,25.393 28.629,27.473 26.552,25.393 25.387,26.557 27.467,28.634 25.387,30.712 
		26.552,31.878 28.629,29.8 30.707,31.878 31.871,30.712 29.793,28.634 	"/>
</g>
</svg>
