<?xml version="1.0" encoding="utf-8"?>
<!-- Generator: Adobe Illustrator 16.0.4, SVG Export Plug-In . SVG Version: 6.00 Build 0)  -->
<!DOCTYPE svg PUBLIC "-//W3C//DTD SVG 1.1//EN" "http://www.w3.org/Graphics/SVG/1.1/DTD/svg11.dtd">
<svg version="1.1" id="Layer_1" xmlns="http://www.w3.org/2000/svg" xmlns:xlink="http://www.w3.org/1999/xlink" x="0px" y="0px"
	 width="50px" height="50px" viewBox="0 0 50 50" enable-background="new 0 0 50 50" xml:space="preserve">
<g>
	<path d="M34.717,29.195v-0.883v-5.3v-5.3c0-0.485-0.398-0.883-0.884-0.883H16.168c-0.486,0-0.885,0.396-0.885,0.883v5.3v5.3v0.883
		l-2.207,2.65c0,0.73,0.593,1.324,1.324,1.324H35.6c0.731,0,1.324-0.594,1.324-1.324L34.717,29.195z M26.768,32.729h-3.533
		c-0.123,0-0.221-0.098-0.221-0.221s0.098-0.221,0.221-0.221h3.533c0.121,0,0.221,0.098,0.221,0.221
		C26.986,32.631,26.889,32.729,26.768,32.729z M21.359,31.846l0.674-0.809h5.934l0.674,0.809H21.359z M33.473,27.633
		c0,0.426-0.347,0.771-0.77,0.771H17.297c-0.423,0-0.77-0.348-0.77-0.771v-9.24c0-0.426,0.347-0.771,0.77-0.771h15.406
		c0.423,0,0.77,0.347,0.77,0.771V27.633z"/>
	<path d="M26.064,19.112V18.93c0-0.164-0.439-0.296-0.983-0.296s-0.983,0.132-0.983,0.296v0.182
		c-0.617,0.102-1.084,0.303-1.084,0.605v7.087c0,0.453,1.041,0.689,2.067,0.689c1.028,0,2.067-0.236,2.067-0.689v-7.087
		C27.148,19.415,26.684,19.213,26.064,19.112z M26.952,26.807c0,0.205-0.712,0.492-1.871,0.492s-1.87-0.287-1.87-0.492v-6.779
		c0.35,0.25,1.112,0.38,1.87,0.38s1.522-0.13,1.871-0.38V26.807z M25.081,20.21c-1.159,0-1.87-0.287-1.87-0.492
		c0-0.139,0.325-0.312,0.887-0.411v0.411c0,0.163,0.439,0.296,0.983,0.296s0.983-0.133,0.983-0.296v-0.411
		c0.562,0.101,0.888,0.272,0.888,0.411C26.952,19.923,26.24,20.21,25.081,20.21z"/>
	<path d="M23.449,22.081v4.726c0.18,0.121,0.744,0.295,1.632,0.295c0.887,0,1.453-0.174,1.633-0.295v-4.726
		c-0.18-0.121-0.746-0.295-1.633-0.295C24.193,21.786,23.629,21.959,23.449,22.081z"/>
</g>
</svg>
