<?xml version="1.0" encoding="utf-8"?>
<!-- Generator: Adobe Illustrator 16.0.4, SVG Export Plug-In . SVG Version: 6.00 Build 0)  -->
<!DOCTYPE svg PUBLIC "-//W3C//DTD SVG 1.1//EN" "http://www.w3.org/Graphics/SVG/1.1/DTD/svg11.dtd">
<svg version="1.1" id="Layer_1" xmlns="http://www.w3.org/2000/svg" xmlns:xlink="http://www.w3.org/1999/xlink" x="0px" y="0px"
	 width="50px" height="50px" viewBox="0 0 50 50" enable-background="new 0 0 50 50" xml:space="preserve">
<g>
	<path d="M34.717,29.195v-0.883v-5.3v-5.3c0-0.485-0.397-0.883-0.884-0.883H16.168c-0.486,0-0.885,0.396-0.885,0.883v5.3v5.3v0.883
		l-2.207,2.65c0,0.73,0.593,1.324,1.324,1.324H35.6c0.731,0,1.324-0.594,1.324-1.324L34.717,29.195z M26.767,32.729h-3.532
		c-0.122,0-0.222-0.098-0.222-0.221s0.1-0.221,0.222-0.221h3.532c0.122,0,0.222,0.098,0.222,0.221
		C26.987,32.631,26.889,32.729,26.767,32.729z M21.359,31.846l0.674-0.809h5.934l0.674,0.809H21.359z M33.473,27.633
		c0,0.426-0.347,0.771-0.77,0.771H17.297c-0.423,0-0.77-0.348-0.77-0.771v-9.24c0-0.426,0.347-0.771,0.77-0.771h15.406
		c0.423,0,0.77,0.347,0.77,0.771V27.633z"/>
	<path d="M26.952,26.807c0,0.205-0.712,0.492-1.871,0.492s-1.87-0.287-1.87-0.492v-6.779c0.349,0.25,1.112,0.38,1.87,0.38
		s1.521-0.13,1.871-0.38v2.511c0.064-0.007,0.129-0.021,0.196-0.021v-2.8c0-0.304-0.466-0.505-1.083-0.604V18.93
		c0-0.162-0.44-0.295-0.984-0.295s-0.984,0.133-0.984,0.295v0.184c-0.616,0.101-1.083,0.302-1.083,0.604v7.088
		c0,0.451,1.04,0.689,2.067,0.689c1.028,0,2.067-0.238,2.067-0.689v-0.33c-0.067,0-0.132-0.014-0.196-0.02V26.807L26.952,26.807z
		 M24.097,19.307v0.411c0,0.163,0.44,0.296,0.984,0.296s0.984-0.133,0.984-0.296v-0.411c0.561,0.101,0.887,0.272,0.887,0.411
		c0,0.205-0.712,0.492-1.871,0.492s-1.87-0.287-1.87-0.492C23.211,19.58,23.536,19.407,24.097,19.307z"/>
	<path d="M26.714,22.569v-0.488c-0.18-0.121-0.746-0.295-1.633-0.295s-1.452,0.174-1.632,0.295v4.726
		c0.18,0.121,0.745,0.295,1.632,0.295s1.453-0.174,1.633-0.295v-0.381c-0.883-0.199-1.545-0.986-1.545-1.929
		C25.169,23.555,25.831,22.768,26.714,22.569z"/>
	<polygon points="27.967,23.221 27.148,24.039 26.331,23.221 25.872,23.678 26.691,24.497 25.872,25.315 26.331,25.773 
		27.148,24.956 27.967,25.773 28.426,25.315 27.607,24.497 28.426,23.678 	"/>
</g>
</svg>
