<?xml version="1.0" encoding="utf-8"?>
<!-- Generator: Adobe Illustrator 16.0.4, SVG Export Plug-In . SVG Version: 6.00 Build 0)  -->
<!DOCTYPE svg PUBLIC "-//W3C//DTD SVG 1.1//EN" "http://www.w3.org/Graphics/SVG/1.1/DTD/svg11.dtd">
<svg version="1.1" id="Layer_1" xmlns="http://www.w3.org/2000/svg" xmlns:xlink="http://www.w3.org/1999/xlink" x="0px" y="0px"
	 width="50px" height="50px" viewBox="0 0 50 50" enable-background="new 0 0 50 50" xml:space="preserve">
<path d="M34.584,31.768v-5.301v-0.609c1.475-0.869,2.472-2.455,2.472-4.291c0-2.766-4.166-5.576-4.53-8.193
	c-2.229,2.572,0.014,4.198-0.956,6.854c-0.091-1.39-0.751-3.028-2.686-3.779c0.548,1.755-0.973,2.352-1.593,3.839H16.036
	c-0.485,0-0.885,0.396-0.885,0.883v5.3v5.301v0.883l-2.207,2.65c0,0.73,0.593,1.324,1.324,1.324h21.199
	c0.73,0,1.323-0.594,1.323-1.324l-2.207-2.65V31.768L34.584,31.768z M26.635,36.184h-3.533c-0.122,0-0.221-0.099-0.221-0.222
	c0-0.122,0.099-0.22,0.221-0.22h3.533c0.122,0,0.221,0.098,0.221,0.22C26.854,36.086,26.757,36.184,26.635,36.184z M21.227,35.301
	l0.674-0.809h5.934l0.675,0.809H21.227z M32.57,31.859H17.164c-0.423,0-0.77-0.348-0.77-0.771v-9.24c0-0.426,0.347-0.771,0.77-0.771
	h9.91c-0.021,0.154-0.036,0.316-0.036,0.492c0,2.322,1.589,4.258,3.733,4.824c-0.706-0.654,0.256-1.93-0.479-2.854
	c0.92,0.294,1.753,0.968,1.753,2.151c0.884-0.604-0.132-2.205,1.293-3.342v8.74C33.341,31.514,32.993,31.859,32.57,31.859z"/>
</svg>
