<?xml version="1.0" encoding="utf-8"?>
<!-- Generator: Adobe Illustrator 16.0.4, SVG Export Plug-In . SVG Version: 6.00 Build 0)  -->
<!DOCTYPE svg PUBLIC "-//W3C//DTD SVG 1.1//EN" "http://www.w3.org/Graphics/SVG/1.1/DTD/svg11.dtd">
<svg version="1.1" id="Layer_1" xmlns="http://www.w3.org/2000/svg" xmlns:xlink="http://www.w3.org/1999/xlink" x="0px" y="0px"
	 width="50px" height="50px" viewBox="0 0 50 50" enable-background="new 0 0 50 50" xml:space="preserve">
<path d="M34.717,29.312v-5.301v-0.023c1.312-0.756,2.207-2.158,2.207-3.781c0-2.417-1.961-4.377-4.379-4.377
	c-1.54,0-2.889,0.799-3.669,2H16.168c-0.486,0-0.885,0.396-0.885,0.883v5.301v5.299v0.883l-2.207,2.65
	c0,0.73,0.593,1.324,1.324,1.324H35.6c0.731,0,1.324-0.594,1.324-1.324l-2.207-2.65V29.312z M30.043,19.146l2.008,1.674l2.69-3.787
	l1.43,1.016l-3.786,5.336l-3.466-2.889L30.043,19.146z M26.767,33.729h-3.532c-0.122,0-0.222-0.1-0.222-0.223
	c0-0.121,0.1-0.219,0.222-0.219h3.532c0.122,0,0.222,0.098,0.222,0.219C26.987,33.631,26.889,33.729,26.767,33.729z M21.359,32.846
	l0.674-0.809h5.934l0.674,0.809H21.359z M33.473,28.633c0,0.426-0.347,0.771-0.77,0.771H17.297c-0.423,0-0.77-0.348-0.77-0.771
	v-9.241c0-0.426,0.347-0.771,0.77-0.771h11.177c-0.191,0.493-0.308,1.025-0.308,1.587c0,2.418,1.96,4.38,4.379,4.38
	c0.319,0,0.628-0.038,0.928-0.104V28.633z"/>
</svg>
