<?xml version="1.0" encoding="utf-8"?>
<!-- Generator: Adobe Illustrator 16.0.4, SVG Export Plug-In . SVG Version: 6.00 Build 0)  -->
<!DOCTYPE svg PUBLIC "-//W3C//DTD SVG 1.1//EN" "http://www.w3.org/Graphics/SVG/1.1/DTD/svg11.dtd">
<svg version="1.1" id="Layer_1" xmlns="http://www.w3.org/2000/svg" xmlns:xlink="http://www.w3.org/1999/xlink" x="0px" y="0px"
	 width="50px" height="50px" viewBox="0 0 50 50" enable-background="new 0 0 50 50" xml:space="preserve">
<g>
	<path d="M33.673,30.211V26.82h-1.244v2.711c0,0.424-0.347,0.77-0.77,0.77H16.253c-0.423,0-0.77-0.346-0.77-0.77V20.29
		c0-0.425,0.347-0.771,0.77-0.771h8.814v-0.79h-9.943c-0.486,0-0.885,0.396-0.885,0.883v5.301v5.298v0.883l-2.207,2.65
		c0,0.732,0.593,1.326,1.324,1.326h21.199c0.731,0,1.324-0.594,1.324-1.326l-2.207-2.65V30.211L33.673,30.211z M25.724,34.627H22.19
		c-0.123,0-0.221-0.098-0.221-0.221s0.098-0.221,0.221-0.221h3.533c0.121,0,0.221,0.098,0.221,0.221
		C25.942,34.529,25.845,34.627,25.724,34.627z M20.315,33.744l0.674-0.809h5.934l0.674,0.809H20.315z"/>
	<g>
		<rect x="22.506" y="25.245" width="1.845" height="1.843"/>
		<rect x="23.662" y="22.711" width="1.844" height="1.845"/>
		<rect x="25.476" y="25.025" width="1.844" height="1.844"/>
		<rect x="26.942" y="21.961" width="2.188" height="2.188"/>
		<rect x="30.037" y="15.254" width="2.188" height="2.188"/>
		<rect x="26.067" y="19.211" width="2.188" height="2.188"/>
		<rect x="29.506" y="18.275" width="3.125" height="3.125"/>
		<rect x="31.84" y="22.042" width="3.78" height="3.781"/>
		<rect x="33.271" y="14.93" width="4.697" height="4.697"/>
		<rect x="28.942" y="24.4" width="2.188" height="2.188"/>
	</g>
</g>
</svg>
