<?xml version="1.0" encoding="utf-8"?>
<!-- Generator: Adobe Illustrator 16.0.4, SVG Export Plug-In . SVG Version: 6.00 Build 0)  -->
<!DOCTYPE svg PUBLIC "-//W3C//DTD SVG 1.1//EN" "http://www.w3.org/Graphics/SVG/1.1/DTD/svg11.dtd">
<svg version="1.1" id="Layer_1" xmlns="http://www.w3.org/2000/svg" xmlns:xlink="http://www.w3.org/1999/xlink" x="0px" y="0px"
	 width="50px" height="50px" viewBox="0 0 50 50" enable-background="new 0 0 50 50" xml:space="preserve">
<g>
	<path d="M22.171,25.313c-0.025-0.013-0.048-0.061-0.047-0.092c0.003-0.199-0.019-0.406,0.023-0.6
		c-0.055-0.161-0.105-0.325-0.132-0.501c-0.004-0.004-0.019-0.036-0.033-0.068c-0.041-0.1-0.081-0.198-0.11-0.302
		c-0.073-0.249-0.132-0.498-0.188-0.748c-0.031-0.133-0.035-0.256-0.037-0.329c-0.062-0.394,0.035-0.702,0.204-0.931
		c0-0.117,0-0.235,0-0.354l0.001-0.531c0-0.105,0.007-0.211,0.009-0.317c-0.037-0.031-0.073-0.063-0.109-0.095
		c-0.092-0.078-0.101-0.139-0.015-0.225c0.039-0.039,0.088-0.066,0.132-0.099c-0.009-0.015-0.02-0.028-0.028-0.043
		c-0.058,0-0.118-0.009-0.174,0.001c-0.211,0.034-0.424,0.064-0.633,0.111c-0.397,0.097-0.784,0.22-1.106,0.485
		c-0.221,0.183-0.396,0.396-0.419,0.693c-0.012,0.155-0.01,0.315-0.011,0.473c-0.001,0.257,0.001,0.513-0.003,0.769
		c-0.001,0.043-0.025,0.109-0.053,0.119c-0.104,0.033-0.106,0.102-0.093,0.188c0.01,0.061,0.002,0.121,0.016,0.18
		c0.036,0.16,0.073,0.32,0.12,0.479c0.034,0.116,0.101,0.228,0.12,0.347c0.037,0.238,0.125,0.446,0.286,0.626
		c0.027,0.03,0.047,0.081,0.044,0.12c-0.012,0.184-0.031,0.367-0.056,0.55c-0.005,0.035-0.043,0.089-0.073,0.095
		c-0.122,0.024-0.141,0.119-0.17,0.214c-0.038,0.125-0.079,0.25-0.127,0.371c-0.016,0.039-0.053,0.078-0.091,0.094
		c-0.217,0.096-0.438,0.182-0.656,0.273c-0.232,0.098-0.468,0.191-0.695,0.299c-0.234,0.111-0.461,0.238-0.69,0.361
		C17.243,27,17.116,27.08,17.01,27.18v0.4c0.668,0,1.336,0,2.004,0c0.103-0.066,0.208-0.135,0.331-0.199l0.212-0.115
		c0.27-0.145,0.54-0.289,0.816-0.422c0.267-0.127,0.542-0.242,0.818-0.355l0.6-0.25c0.083-0.033,0.165-0.066,0.247-0.102
		c0.018-0.055,0.035-0.111,0.052-0.166c0.055-0.182,0.132-0.33,0.22-0.461C22.286,25.428,22.262,25.352,22.171,25.313z"/>
	<path d="M30.585,26.014c-0.053-0.02-0.114-0.059-0.136-0.104c-0.057-0.127-0.098-0.262-0.137-0.395
		c-0.025-0.083-0.049-0.164-0.142-0.203c-0.024-0.013-0.048-0.061-0.047-0.092c0.004-0.308-0.065-0.63,0.161-0.896
		c0.007-0.01,0.01-0.021,0.015-0.031c0.123-0.27,0.146-0.576,0.316-0.826c0.004-0.006,0.005-0.014,0.006-0.021
		c0.021-0.189,0.041-0.381,0.058-0.571c0-0.022-0.021-0.065-0.041-0.072c-0.095-0.034-0.09-0.11-0.089-0.186
		c0.001-0.374,0-0.746,0-1.12c0-0.217-0.063-0.409-0.228-0.557c-0.188-0.168-0.379-0.33-0.57-0.492
		c-0.092-0.078-0.102-0.139-0.016-0.225c0.039-0.039,0.089-0.065,0.133-0.099c-0.01-0.015-0.02-0.028-0.028-0.043
		c-0.058,0-0.118-0.008-0.174,0.001c-0.211,0.034-0.424,0.064-0.633,0.111c-0.288,0.07-0.562,0.175-0.817,0.316v1.336
		c0.131,0.2,0.199,0.441,0.182,0.688c-0.02,0.236-0.043,0.461-0.066,0.685l-0.043,0.412l-0.146,0.236
		c-0.062,0.092-0.109,0.253-0.158,0.424c-0.026,0.091-0.064,0.178-0.094,0.269c0.024,0.029,0.045,0.075,0.043,0.112
		c-0.013,0.185-0.031,0.367-0.057,0.55c-0.005,0.035-0.043,0.088-0.072,0.094c-0.119,0.024-0.14,0.115-0.168,0.207
		c0.108,0.17,0.168,0.336,0.195,0.426c0.02,0.062,0.037,0.121,0.054,0.178c0.855,0.332,1.826,0.73,2.785,1.225
		c0.136,0.068,0.259,0.148,0.376,0.232c0.646,0,1.294,0,1.941,0v-0.418c-0.098-0.102-0.213-0.186-0.346-0.252
		C31.977,26.566,31.285,26.283,30.585,26.014z"/>
	<path d="M34.717,29.195v-0.883v-5.3v-5.3c0-0.485-0.398-0.883-0.884-0.883H16.168c-0.486,0-0.885,0.396-0.885,0.883v5.3v5.3v0.883
		l-2.207,2.65c0,0.73,0.593,1.324,1.324,1.324h21.2c0.731,0,1.324-0.594,1.324-1.324L34.717,29.195z M26.768,32.729h-3.534
		c-0.122,0-0.221-0.098-0.221-0.221s0.099-0.221,0.221-0.221h3.534c0.121,0,0.221,0.098,0.221,0.221
		C26.986,32.631,26.889,32.729,26.768,32.729z M21.359,31.846l0.674-0.809h5.934l0.674,0.809H21.359z M33.473,27.633
		c0,0.426-0.347,0.771-0.77,0.771h-2.258c-0.077-0.055-0.141-0.121-0.229-0.168c-0.956-0.49-1.946-0.896-2.946-1.281
		c-0.076-0.027-0.164-0.084-0.194-0.15c-0.081-0.18-0.138-0.371-0.196-0.561c-0.037-0.121-0.068-0.234-0.202-0.293
		c-0.036-0.018-0.067-0.086-0.067-0.131c0.007-0.439-0.094-0.901,0.23-1.284c0.01-0.013,0.014-0.029,0.021-0.044
		c0.175-0.385,0.207-0.824,0.453-1.182c0.006-0.01,0.008-0.021,0.008-0.031c0.027-0.272,0.059-0.547,0.082-0.818
		c0.002-0.034-0.027-0.094-0.057-0.104c-0.136-0.049-0.129-0.157-0.127-0.267c0-0.534,0-1.067,0-1.603
		c0-0.309-0.092-0.586-0.326-0.797c-0.268-0.239-0.541-0.473-0.815-0.703c-0.132-0.112-0.146-0.198-0.021-0.321
		c0.055-0.056,0.125-0.095,0.188-0.14c-0.015-0.021-0.028-0.041-0.041-0.062c-0.083,0-0.168-0.011-0.249,0.002
		c-0.303,0.049-0.607,0.092-0.905,0.161c-0.569,0.136-1.122,0.312-1.583,0.692c-0.317,0.262-0.568,0.564-0.6,0.994
		c-0.017,0.224-0.014,0.451-0.016,0.676c-0.002,0.367,0.002,0.732-0.004,1.1c-0.001,0.061-0.036,0.157-0.077,0.171
		c-0.148,0.048-0.152,0.144-0.132,0.267c0.014,0.086,0.002,0.175,0.022,0.258c0.051,0.229,0.105,0.458,0.171,0.685
		c0.049,0.168,0.145,0.326,0.171,0.497c0.053,0.342,0.18,0.639,0.41,0.896c0.038,0.043,0.067,0.115,0.062,0.171
		c-0.018,0.263-0.044,0.524-0.08,0.786c-0.007,0.051-0.062,0.127-0.105,0.137c-0.174,0.035-0.202,0.172-0.244,0.307
		c-0.055,0.18-0.113,0.357-0.183,0.533c-0.022,0.053-0.076,0.107-0.129,0.133c-0.311,0.135-0.626,0.26-0.939,0.391
		c-0.333,0.141-0.669,0.273-0.994,0.43c-0.335,0.158-0.66,0.342-0.987,0.516c-0.076,0.041-0.136,0.098-0.207,0.143h-2.311
		c-0.423,0-0.77-0.348-0.77-0.771v-9.24c0-0.426,0.347-0.771,0.77-0.771h15.406c0.423,0,0.77,0.347,0.77,0.771V27.633z"/>
</g>
</svg>
