<?xml version="1.0" encoding="utf-8"?>
<!-- Generator: Adobe Illustrator 16.0.4, SVG Export Plug-In . SVG Version: 6.00 Build 0)  -->
<!DOCTYPE svg PUBLIC "-//W3C//DTD SVG 1.1//EN" "http://www.w3.org/Graphics/SVG/1.1/DTD/svg11.dtd">
<svg version="1.1" id="Layer_1" xmlns="http://www.w3.org/2000/svg" xmlns:xlink="http://www.w3.org/1999/xlink" x="0px" y="0px"
	 width="50px" height="50px" viewBox="0 0 50 50" enable-background="new 0 0 50 50" xml:space="preserve">
<g>
	<path d="M34.289,23.978h-3.317v-6.581c0-0.365-0.299-0.664-0.663-0.664H19.691c-0.365,0-0.663,0.299-0.663,0.664v6.581H15.71
		c-1.095,0-1.99,0.896-1.99,1.989v5.31c0,1.095,0.896,1.991,1.99,1.991h3.34c-0.006-0.038-0.021-0.071-0.021-0.111v-2.654
		c0-0.396,0.323-0.719,0.719-0.719h10.505c0.396,0,0.72,0.324,0.72,0.719v2.654c0,0.04-0.017,0.073-0.022,0.111h3.34
		c1.095,0,1.991-0.896,1.991-1.991v-5.31C36.279,24.874,35.384,23.978,34.289,23.978z M20.022,19.541h9.953v4.438h-9.953V19.541z
		 M32.961,28.125c-0.458,0-0.829-0.371-0.829-0.83s0.371-0.83,0.829-0.83c0.459,0,0.83,0.371,0.83,0.83S33.42,28.125,32.961,28.125z
		"/>
	<rect x="19.69" y="30.447" width="10.617" height="1.41"/>
</g>
</svg>
