<?xml version="1.0" encoding="utf-8"?>
<!-- Generator: Adobe Illustrator 16.0.4, SVG Export Plug-In . SVG Version: 6.00 Build 0)  -->
<!DOCTYPE svg PUBLIC "-//W3C//DTD SVG 1.1//EN" "http://www.w3.org/Graphics/SVG/1.1/DTD/svg11.dtd">
<svg version="1.1" id="Layer_1" xmlns="http://www.w3.org/2000/svg" xmlns:xlink="http://www.w3.org/1999/xlink" x="0px" y="0px"
	 width="50px" height="50px" viewBox="0 0 50 50" enable-background="new 0 0 50 50" xml:space="preserve">
<g>
	<path d="M34.717,29.195v-0.883v-5.3v-5.3c0-0.485-0.398-0.883-0.884-0.883H16.168c-0.486,0-0.885,0.396-0.885,0.883v5.3v5.3v0.883
		l-2.207,2.65c0,0.73,0.593,1.324,1.324,1.324h21.2c0.731,0,1.324-0.594,1.324-1.324L34.717,29.195z M26.768,32.729h-3.534
		c-0.122,0-0.221-0.098-0.221-0.221s0.099-0.221,0.221-0.221h3.534c0.121,0,0.221,0.098,0.221,0.221
		C26.986,32.631,26.889,32.729,26.768,32.729z M21.359,31.846l0.674-0.809h5.934l0.674,0.809H21.359z M33.473,27.633
		c0,0.426-0.347,0.771-0.77,0.771H17.297c-0.423,0-0.77-0.348-0.77-0.771v-9.24c0-0.426,0.347-0.771,0.77-0.771h15.406
		c0.423,0,0.77,0.347,0.77,0.771V27.633z"/>
	<path d="M27.261,19.958c0,0-0.461,0.289-1.09,0.289c-0.626,0-1.171-0.34-1.171-0.34s-0.545,0.34-1.171,0.34
		c-0.628,0-1.09-0.289-1.09-0.289s-0.499,0.588-0.832,0.814c0.137,0.196,0.875,1.346,0.362,2.854
		c-0.489,1.442-0.402,1.806,0.294,2.34c0.764,0.588,1.48,0.156,2.437,0.979c0.956-0.822,1.673-0.391,2.438-0.979
		c0.695-0.535,0.785-0.896,0.293-2.34c-0.513-1.51,0.227-2.658,0.362-2.854C27.76,20.545,27.261,19.958,27.261,19.958z"/>
</g>
</svg>
