<?xml version="1.0" encoding="utf-8"?>
<!-- Generator: Adobe Illustrator 16.0.4, SVG Export Plug-In . SVG Version: 6.00 Build 0)  -->
<!DOCTYPE svg PUBLIC "-//W3C//DTD SVG 1.1//EN" "http://www.w3.org/Graphics/SVG/1.1/DTD/svg11.dtd">
<svg version="1.1" id="Layer_1" xmlns="http://www.w3.org/2000/svg" xmlns:xlink="http://www.w3.org/1999/xlink" x="0px" y="0px"
	 width="50px" height="50px" viewBox="0 0 50 50" enable-background="new 0 0 50 50" xml:space="preserve">
<path d="M29.506,22.283v-9.137h-9.013l0.001,9.137c-1.974,1-3.264,2.785-3.264,5.394c0,4.292,3.479,9.177,7.77,9.177
	s7.77-4.886,7.77-9.177C32.77,25.067,31.479,23.284,29.506,22.283z M26.323,16.667h1.969l-0.001,1.969l-1.969,0.001L26.323,16.667z
	 M21.712,16.665l1.971,0.001l-0.002,1.971h-1.969V16.665z M29.337,31.863l-1.558,1.557L25,30.643l-2.779,2.777l-1.558-1.557
	l2.782-2.779l-2.782-2.779l1.558-1.558L25,27.529l2.779-2.782l1.558,1.558l-2.778,2.779L29.337,31.863z"/>
</svg>
