<?xml version="1.0" encoding="utf-8"?>
<!-- Generator: Adobe Illustrator 16.0.4, SVG Export Plug-In . SVG Version: 6.00 Build 0)  -->
<!DOCTYPE svg PUBLIC "-//W3C//DTD SVG 1.1//EN" "http://www.w3.org/Graphics/SVG/1.1/DTD/svg11.dtd">
<svg version="1.1" id="Layer_1" xmlns="http://www.w3.org/2000/svg" xmlns:xlink="http://www.w3.org/1999/xlink" x="0px" y="0px"
	 width="50px" height="50px" viewBox="0 0 50 50" enable-background="new 0 0 50 50" xml:space="preserve">
<g>
	<path d="M33.354,21.244h-7.992c0-1.618,1.199-1.7,3.158-1.7c1.75,0,3.732,0,3.732-2.273h-0.574c0,1.618-1.199,1.699-3.158,1.699
		c-1.75,0-3.732,0-3.732,2.274h-8.141c-1.724,0-3.133,1.41-3.133,3.131v5.222c0,1.723,1.409,3.133,3.133,3.133h16.707
		c1.725,0,3.133-1.41,3.133-3.133v-5.222C36.486,22.652,35.077,21.244,33.354,21.244z M24.998,22.288
		c0.384,0,0.695,0.311,0.695,0.696c0,0.385-0.312,0.696-0.695,0.696c-0.385,0-0.697-0.312-0.697-0.696
		C24.301,22.6,24.613,22.288,24.998,22.288z M24.998,25.418c0.384,0,0.695,0.312,0.695,0.697s-0.312,0.695-0.695,0.695
		c-0.385,0-0.697-0.311-0.697-0.695C24.301,25.731,24.613,25.418,24.998,25.418z M22.214,22.288c0.384,0,0.695,0.311,0.695,0.696
		c0,0.385-0.312,0.696-0.695,0.696c-0.383,0-0.696-0.312-0.696-0.696C21.518,22.6,21.83,22.288,22.214,22.288z M22.214,25.418
		c0.384,0,0.695,0.312,0.695,0.697s-0.312,0.695-0.695,0.695c-0.383,0-0.696-0.311-0.696-0.695
		C21.518,25.731,21.83,25.418,22.214,25.418z M19.432,22.288c0.383,0,0.694,0.311,0.694,0.696c0,0.385-0.312,0.696-0.694,0.696
		c-0.386,0-0.697-0.312-0.697-0.696C18.734,22.6,19.046,22.288,19.432,22.288z M19.432,25.418c0.383,0,0.694,0.312,0.694,0.697
		s-0.312,0.695-0.694,0.695c-0.386,0-0.697-0.311-0.697-0.695C18.734,25.731,19.046,25.418,19.432,25.418z M16.646,29.943
		c-0.386,0-0.696-0.312-0.696-0.695c0-0.385,0.312-0.697,0.696-0.697c0.383,0,0.695,0.312,0.695,0.697
		C17.343,29.631,17.029,29.943,16.646,29.943z M16.646,26.812c-0.386,0-0.696-0.312-0.696-0.694c0-0.385,0.312-0.698,0.696-0.698
		c0.383,0,0.695,0.312,0.695,0.698C17.342,26.502,17.029,26.812,16.646,26.812z M16.646,23.68c-0.386,0-0.696-0.312-0.696-0.696
		c0-0.384,0.312-0.696,0.696-0.696c0.383,0,0.695,0.311,0.695,0.696C17.342,23.369,17.029,23.68,16.646,23.68z M27.782,29.943H19.43
		c-0.385,0-0.695-0.312-0.695-0.695c0-0.385,0.312-0.697,0.695-0.697h8.353c0.383,0,0.694,0.312,0.694,0.697
		C28.479,29.631,28.165,29.943,27.782,29.943z M27.782,26.812c-0.386,0-0.697-0.312-0.697-0.694c0-0.385,0.312-0.698,0.697-0.698
		c0.383,0,0.694,0.312,0.694,0.698C28.477,26.502,28.165,26.812,27.782,26.812z M27.782,23.68c-0.386,0-0.697-0.312-0.697-0.696
		c0-0.384,0.312-0.696,0.697-0.696c0.383,0,0.694,0.311,0.694,0.696C28.477,23.369,28.165,23.68,27.782,23.68z M30.564,29.943
		c-0.385,0-0.695-0.312-0.695-0.695c0-0.385,0.312-0.697,0.695-0.697c0.385,0,0.697,0.312,0.697,0.697
		C31.262,29.631,30.949,29.943,30.564,29.943z M30.564,26.812c-0.385,0-0.695-0.312-0.695-0.694c0-0.385,0.312-0.698,0.695-0.698
		c0.385,0,0.697,0.312,0.697,0.698C31.262,26.502,30.949,26.812,30.564,26.812z M30.564,23.68c-0.385,0-0.695-0.312-0.695-0.696
		c0-0.384,0.312-0.696,0.695-0.696c0.385,0,0.697,0.311,0.697,0.696C31.262,23.369,30.949,23.68,30.564,23.68z M33.35,29.943
		c-0.385,0-0.695-0.312-0.695-0.695c0-0.385,0.312-0.697,0.695-0.697c0.383,0,0.695,0.312,0.695,0.697
		C34.045,29.631,33.732,29.943,33.35,29.943z M33.35,26.812c-0.385,0-0.695-0.312-0.695-0.694c0-0.385,0.312-0.698,0.695-0.698
		c0.383,0,0.695,0.312,0.695,0.698C34.045,26.502,33.732,26.812,33.35,26.812z M33.35,23.68c-0.385,0-0.695-0.312-0.695-0.696
		c0-0.384,0.312-0.696,0.695-0.696c0.383,0,0.695,0.311,0.695,0.696C34.045,23.369,33.732,23.68,33.35,23.68z"/>
</g>
</svg>
