<?xml version="1.0" encoding="utf-8"?>
<!-- Generator: Adobe Illustrator 16.0.4, SVG Export Plug-In . SVG Version: 6.00 Build 0)  -->
<!DOCTYPE svg PUBLIC "-//W3C//DTD SVG 1.1//EN" "http://www.w3.org/Graphics/SVG/1.1/DTD/svg11.dtd">
<svg version="1.1" id="Layer_1" xmlns="http://www.w3.org/2000/svg" xmlns:xlink="http://www.w3.org/1999/xlink" x="0px" y="0px"
	 width="50px" height="50px" viewBox="0 0 50 50" enable-background="new 0 0 50 50" xml:space="preserve">
<g>
	<path d="M34.717,29.195v-0.883v-5.3v-5.3c0-0.485-0.398-0.883-0.884-0.883H16.168c-0.486,0-0.885,0.396-0.885,0.883v5.3v5.3v0.883
		l-2.207,2.65c0,0.73,0.593,1.324,1.324,1.324h21.2c0.731,0,1.324-0.594,1.324-1.324L34.717,29.195z M26.768,32.729h-3.534
		c-0.122,0-0.221-0.098-0.221-0.221s0.099-0.221,0.221-0.221h3.534c0.121,0,0.221,0.098,0.221,0.221
		C26.986,32.631,26.889,32.729,26.768,32.729z M21.359,31.846l0.674-0.809h5.934l0.674,0.809H21.359z M33.473,27.633
		c0,0.426-0.347,0.771-0.77,0.771H17.297c-0.423,0-0.77-0.348-0.77-0.771v-9.24c0-0.426,0.347-0.771,0.77-0.771h15.406
		c0.423,0,0.77,0.347,0.77,0.771V27.633z"/>
	<path d="M26.359,24.377l-0.471-0.471c0.928-1.137,0.877-2.812-0.184-3.871c-1.13-1.129-2.967-1.129-4.097,0
		c-1.13,1.131-1.13,2.968,0,4.098c1.06,1.059,2.734,1.111,3.871,0.184l0.471,0.472l-0.138,0.137l2.744,2.743l0.682-0.684
		l-2.742-2.743L26.359,24.377z M25.246,24.012c-0.985,0.812-2.443,0.77-3.364-0.152c-0.979-0.979-0.979-2.571,0-3.551
		c0.979-0.979,2.572-0.979,3.55,0c0.921,0.922,0.964,2.379,0.152,3.365L25.246,24.012z"/>
</g>
</svg>
