<?xml version="1.0" encoding="utf-8"?>
<!-- Generator: Adobe Illustrator 16.0.4, SVG Export Plug-In . SVG Version: 6.00 Build 0)  -->
<!DOCTYPE svg PUBLIC "-//W3C//DTD SVG 1.1//EN" "http://www.w3.org/Graphics/SVG/1.1/DTD/svg11.dtd">
<svg version="1.1" id="Layer_1" xmlns="http://www.w3.org/2000/svg" xmlns:xlink="http://www.w3.org/1999/xlink" x="0px" y="0px"
	 width="50px" height="50px" viewBox="0 0 50 50" enable-background="new 0 0 50 50" xml:space="preserve">
<g>
	<path d="M34.717,29.195v-0.883v-5.3v-5.3c0-0.485-0.398-0.883-0.884-0.883H16.168c-0.486,0-0.885,0.396-0.885,0.883v5.3v5.3v0.883
		l-2.207,2.65c0,0.73,0.593,1.324,1.324,1.324H35.6c0.731,0,1.324-0.594,1.324-1.324L34.717,29.195z M26.768,32.729h-3.533
		c-0.123,0-0.221-0.098-0.221-0.221s0.098-0.221,0.221-0.221h3.533c0.121,0,0.221,0.098,0.221,0.221
		C26.986,32.631,26.889,32.729,26.768,32.729z M21.359,31.846l0.674-0.809h5.934l0.674,0.809H21.359z M33.473,27.633
		c0,0.426-0.347,0.771-0.77,0.771H17.297c-0.423,0-0.77-0.348-0.77-0.771v-9.24c0-0.426,0.347-0.771,0.77-0.771h15.406
		c0.423,0,0.77,0.347,0.77,0.771V27.633z"/>
	<path d="M29.727,22.493c-0.012,0-0.021,0.008-0.033,0.008c0.017-0.107,0.033-0.217,0.033-0.328c0-1.262-1.022-2.285-2.285-2.285
		c-0.18,0-0.352,0.026-0.518,0.064c-0.52-0.741-1.377-1.229-2.35-1.229c-1.311,0-2.404,0.885-2.746,2.088
		c-0.211-0.064-0.428-0.108-0.658-0.108c-1.264,0-2.286,1.022-2.286,2.284s1.022,2.285,2.286,2.285c0.367,0,1.857,0,3.494,0
		c-0.229-0.363-0.355-0.783-0.355-1.226c0-0.617,0.24-1.198,0.678-1.635c0.871-0.873,2.396-0.873,3.27,0
		c0.698,0.696,0.859,1.733,0.46,2.596l0.265,0.265c0.371,0,0.646,0,0.748,0c0.767,0,1.389-0.623,1.389-1.39
		C31.115,23.116,30.493,22.493,29.727,22.493z"/>
	<path d="M28.311,25.481l-0.295-0.293c0.582-0.711,0.549-1.761-0.113-2.422c-0.707-0.707-1.856-0.707-2.562,0s-0.706,1.855,0,2.562
		c0.663,0.663,1.71,0.694,2.422,0.114l0.295,0.294l-0.086,0.084l1.715,1.719l0.428-0.43l-1.715-1.714L28.311,25.481z M27.613,25.252
		c-0.615,0.507-1.527,0.48-2.104-0.094c-0.611-0.613-0.611-1.609,0-2.223c0.612-0.612,1.609-0.611,2.221,0
		c0.576,0.576,0.604,1.488,0.096,2.104L27.613,25.252z"/>
</g>
</svg>
