<?xml version="1.0" encoding="utf-8"?>
<!-- Generator: Adobe Illustrator 16.0.4, SVG Export Plug-In . SVG Version: 6.00 Build 0)  -->
<!DOCTYPE svg PUBLIC "-//W3C//DTD SVG 1.1//EN" "http://www.w3.org/Graphics/SVG/1.1/DTD/svg11.dtd">
<svg version="1.1" id="Layer_1" xmlns="http://www.w3.org/2000/svg" xmlns:xlink="http://www.w3.org/1999/xlink" x="0px" y="0px"
	 width="50px" height="50px" viewBox="0 0 50 50" enable-background="new 0 0 50 50" xml:space="preserve">
<g>
	<polygon points="22,31.073 20,33.073 30,33.073 28,31.073 	"/>
	<path d="M15,16.927v13h20v-13H15z M27.73,23.627c0.49,1.443,0.401,1.804-0.295,2.34c-0.764,0.588-1.479,0.155-2.437,0.98
		c-0.956-0.825-1.673-0.393-2.437-0.98c-0.696-0.536-0.783-0.896-0.295-2.34c0.514-1.51-0.226-2.659-0.361-2.856
		c0.332-0.227,0.832-0.814,0.832-0.814s0.462,0.289,1.09,0.289c0.626,0,1.171-0.34,1.171-0.34s0.545,0.34,1.171,0.34
		c0.629,0,1.09-0.289,1.09-0.289s0.499,0.587,0.832,0.814C27.956,20.968,27.218,22.117,27.73,23.627z"/>
</g>
</svg>
