<?xml version="1.0" encoding="utf-8"?>
<!-- Generator: Adobe Illustrator 16.0.4, SVG Export Plug-In . SVG Version: 6.00 Build 0)  -->
<!DOCTYPE svg PUBLIC "-//W3C//DTD SVG 1.1//EN" "http://www.w3.org/Graphics/SVG/1.1/DTD/svg11.dtd">
<svg version="1.1" id="Layer_1" xmlns="http://www.w3.org/2000/svg" xmlns:xlink="http://www.w3.org/1999/xlink" x="0px" y="0px"
	 width="50px" height="50px" viewBox="0 0 50 50" enable-background="new 0 0 50 50" xml:space="preserve">
<g>
	<polygon points="22,31.073 20,33.073 30,33.073 28,31.073 	"/>
	<path d="M15,16.927v13h20v-13H15z M27.139,26.713c-1.092-1.209-3.188-1.209-4.277,0l-0.855-0.773
		c0.764-0.846,1.855-1.33,2.994-1.33s2.23,0.484,2.994,1.33L27.139,26.713z M28.85,25.168c-0.981-1.087-2.387-1.711-3.851-1.711
		c-1.463,0-2.868,0.624-3.851,1.711l-0.855-0.773c1.201-1.329,2.916-2.091,4.706-2.091c1.789,0,3.505,0.762,4.705,2.091
		L28.85,25.168z M30.455,23.719c-1.393-1.541-3.381-2.425-5.456-2.426c-2.075,0-4.063,0.884-5.455,2.425l-0.854-0.772
		c1.609-1.783,3.91-2.805,6.311-2.805s4.7,1.023,6.311,2.805L30.455,23.719z"/>
</g>
</svg>
