<?xml version="1.0" encoding="utf-8"?>
<!-- Generator: Adobe Illustrator 16.0.4, SVG Export Plug-In . SVG Version: 6.00 Build 0)  -->
<!DOCTYPE svg PUBLIC "-//W3C//DTD SVG 1.1//EN" "http://www.w3.org/Graphics/SVG/1.1/DTD/svg11.dtd">
<svg version="1.1" id="Layer_1" xmlns="http://www.w3.org/2000/svg" xmlns:xlink="http://www.w3.org/1999/xlink" x="0px" y="0px"
	 width="50px" height="50px" viewBox="0 0 50 50" enable-background="new 0 0 50 50" xml:space="preserve">
<path d="M34.717,29.195v-0.883v-5.3v-5.3c0-0.485-0.398-0.883-0.884-0.883H16.168c-0.486,0-0.885,0.396-0.885,0.883v5.3v5.3v0.883
	l-2.207,2.65c0,0.73,0.593,1.324,1.324,1.324h21.2c0.731,0,1.324-0.594,1.324-1.324L34.717,29.195z M26.768,32.729h-3.534
	c-0.122,0-0.221-0.098-0.221-0.221s0.099-0.221,0.221-0.221h3.534c0.121,0,0.221,0.098,0.221,0.221
	C26.986,32.631,26.889,32.729,26.768,32.729z M21.359,31.846l0.674-0.809h5.934l0.674,0.809H21.359z M33.473,27.633
	c0,0.426-0.347,0.771-0.77,0.771h-2.189c-0.281-0.484-0.726-0.828-1.322-1.049c-0.575-0.213-1.141-0.457-1.7-0.713
	c-0.16-0.072-0.278-0.23-0.423-0.342c-0.062-0.049-0.141-0.094-0.217-0.105c-0.26-0.041-0.375-0.135-0.437-0.391
	c-0.081-0.336-0.138-0.672-0.067-1.021c0.03-0.153,0.086-0.251,0.234-0.309c0.309-0.121,0.611-0.254,0.916-0.384
	c0.229-0.097,0.242-0.177,0.159-0.411c-0.263-0.742-0.457-1.498-0.521-2.293c-0.041-0.5-0.027-1.014-0.148-1.506h-0.021
	c-0.01-0.046-0.016-0.092-0.026-0.137c-0.221-0.868-1.153-1.342-1.936-1.391c-0.006,0-0.013-0.002-0.019-0.002
	c-0.06-0.004-0.117,0.004-0.175,0.008c-0.331,0.047-0.6,0.255-0.913,0.347c-0.408,0.12-0.658,0.495-0.812,0.899
	c-0.216,0.574-0.176,1.187-0.224,1.781c-0.064,0.793-0.258,1.549-0.521,2.291c-0.083,0.235-0.068,0.315,0.159,0.412
	c0.305,0.129,0.607,0.264,0.916,0.383c0.149,0.059,0.204,0.155,0.235,0.31c0.07,0.35,0.012,0.686-0.068,1.02
	c-0.062,0.258-0.176,0.35-0.437,0.391c-0.076,0.014-0.153,0.059-0.217,0.105c-0.144,0.111-0.262,0.271-0.422,0.344
	c-0.56,0.254-1.125,0.5-1.701,0.713c-0.596,0.221-1.04,0.562-1.321,1.047h-2.19c-0.423,0-0.77-0.346-0.77-0.77v-9.242
	c0-0.425,0.347-0.771,0.77-0.771h15.406c0.423,0,0.771,0.347,0.771,0.771V27.633L33.473,27.633z"/>
</svg>
