<?xml version="1.0" encoding="utf-8"?>
<!-- Generator: Adobe Illustrator 16.0.4, SVG Export Plug-In . SVG Version: 6.00 Build 0)  -->
<!DOCTYPE svg PUBLIC "-//W3C//DTD SVG 1.1//EN" "http://www.w3.org/Graphics/SVG/1.1/DTD/svg11.dtd">
<svg version="1.1" id="Layer_1" xmlns="http://www.w3.org/2000/svg" xmlns:xlink="http://www.w3.org/1999/xlink" x="0px" y="0px"
	 width="50px" height="50px" viewBox="0 0 50 50" enable-background="new 0 0 50 50" xml:space="preserve">
<g>
	<path d="M30.283,27.281v-0.479v-2.883v-2.883c0-0.264-0.217-0.48-0.479-0.48h-9.61c-0.265,0-0.481,0.216-0.481,0.48v2.883v2.883
		v0.479l-1.199,1.442c0,0.397,0.322,0.721,0.721,0.721h11.531c0.396,0,0.721-0.323,0.721-0.721L30.283,27.281z M25.959,29.203
		h-1.921c-0.066,0-0.121-0.054-0.121-0.121c0-0.065,0.055-0.119,0.121-0.119h1.921c0.066,0,0.119,0.053,0.119,0.119
		C26.08,29.149,26.025,29.203,25.959,29.203z M23.018,28.724l0.366-0.44h3.227l0.367,0.44H23.018z M29.607,26.432
		c0,0.23-0.189,0.42-0.42,0.42h-8.379c-0.229,0-0.419-0.188-0.419-0.42v-5.026c0-0.231,0.188-0.42,0.419-0.42h8.379
		c0.23,0,0.42,0.188,0.42,0.42V26.432z"/>
</g>
<g>
	<path d="M30.284,27.281v-0.479v-2.883v-2.883c0-0.265-0.217-0.48-0.479-0.48h-9.608c-0.266,0-0.481,0.216-0.481,0.48v2.883v2.883
		v0.479l-1.2,1.442c0,0.397,0.322,0.721,0.721,0.721h11.53c0.397,0,0.72-0.322,0.72-0.721L30.284,27.281z M25.961,29.205h-1.922
		c-0.066,0-0.12-0.055-0.12-0.121s0.054-0.12,0.12-0.12h1.922c0.065,0,0.12,0.053,0.12,0.12
		C26.081,29.15,26.028,29.205,25.961,29.205z M23.021,28.724l0.365-0.44h3.229l0.367,0.44H23.021z M29.608,26.432
		c0,0.231-0.188,0.42-0.418,0.42H20.81c-0.23,0-0.419-0.188-0.419-0.42v-5.026c0-0.23,0.188-0.42,0.419-0.42h8.381
		c0.229,0,0.418,0.188,0.418,0.42V26.432z"/>
</g>
<g>
	<g>
		<path d="M20.844,22.38c-0.172,0-0.311-0.139-0.311-0.311v-0.25c0-0.171,0.139-0.311,0.311-0.311s0.311,0.139,0.311,0.311v0.25
			C21.154,22.241,21.016,22.38,20.844,22.38z"/>
	</g>
	<g>
		<path d="M20.844,27.176c-0.172,0-0.311-0.14-0.311-0.312v-0.533c0-0.171,0.139-0.311,0.311-0.311s0.311,0.139,0.311,0.311v0.533
			C21.154,27.036,21.016,27.176,20.844,27.176z M20.844,25.577c-0.172,0-0.311-0.139-0.311-0.311v-0.533
			c0-0.171,0.139-0.311,0.311-0.311s0.311,0.139,0.311,0.311v0.533C21.154,25.438,21.016,25.577,20.844,25.577z M20.844,23.979
			c-0.172,0-0.311-0.139-0.311-0.312v-0.532c0-0.172,0.139-0.312,0.311-0.312s0.311,0.139,0.311,0.312v0.532
			C21.154,23.84,21.016,23.979,20.844,23.979z"/>
	</g>
	<g>
		<path d="M21.094,28.491h-0.561v-0.561c0-0.171,0.139-0.312,0.311-0.312c0.152,0,0.279,0.11,0.307,0.255
			c0.145,0.026,0.254,0.153,0.254,0.307C21.404,28.352,21.266,28.491,21.094,28.491z"/>
	</g>
	<g>
		<path d="M27.988,28.491h-0.461c-0.172,0-0.311-0.139-0.311-0.311s0.139-0.312,0.311-0.312h0.461c0.172,0,0.311,0.14,0.311,0.312
			S28.158,28.491,27.988,28.491z M26.609,28.491h-0.461c-0.172,0-0.311-0.139-0.311-0.311s0.139-0.312,0.311-0.312h0.461
			c0.172,0,0.311,0.14,0.311,0.312S26.781,28.491,26.609,28.491z M25.23,28.491h-0.46c-0.172,0-0.311-0.139-0.311-0.311
			s0.139-0.312,0.311-0.312h0.46c0.172,0,0.311,0.14,0.311,0.312S25.402,28.491,25.23,28.491z M23.851,28.491h-0.459
			c-0.172,0-0.312-0.139-0.312-0.311s0.14-0.312,0.312-0.312h0.459c0.173,0,0.312,0.14,0.312,0.312S24.023,28.491,23.851,28.491z
			 M22.473,28.491h-0.46c-0.172,0-0.312-0.139-0.312-0.311s0.14-0.312,0.312-0.312h0.46c0.172,0,0.311,0.14,0.311,0.312
			S22.645,28.491,22.473,28.491z"/>
	</g>
	<g>
		<path d="M29.156,28.491h-0.25c-0.172,0-0.312-0.139-0.312-0.311s0.14-0.312,0.312-0.312h0.25c0.172,0,0.311,0.14,0.311,0.312
			S29.328,28.491,29.156,28.491z"/>
	</g>
</g>
</svg>
