<?xml version="1.0" encoding="utf-8"?>
<!-- Generator: Adobe Illustrator 16.0.4, SVG Export Plug-In . SVG Version: 6.00 Build 0)  -->
<!DOCTYPE svg PUBLIC "-//W3C//DTD SVG 1.1//EN" "http://www.w3.org/Graphics/SVG/1.1/DTD/svg11.dtd">
<svg version="1.1" id="Layer_1" xmlns="http://www.w3.org/2000/svg" xmlns:xlink="http://www.w3.org/1999/xlink" x="0px" y="0px"
	 width="50px" height="50px" viewBox="0 0 50 50" enable-background="new 0 0 50 50" xml:space="preserve">
<g>
	<g>
		<polygon points="23.275,28.492 22.125,29.643 27.875,29.643 26.725,28.492 		"/>
	</g>
	<g>
		<rect x="19.25" y="20.358" width="11.5" height="7.475"/>
	</g>
</g>
<g>
	<g>
		<polygon points="23.275,28.492 22.125,29.643 27.875,29.643 26.725,28.492 		"/>
	</g>
	<g>
		<rect x="19.25" y="20.358" width="11.5" height="7.475"/>
	</g>
</g>
<g>
	<g>
		<path d="M20.844,22.38c-0.172,0-0.311-0.139-0.311-0.311v-0.25c0-0.171,0.139-0.311,0.311-0.311s0.311,0.139,0.311,0.311v0.25
			C21.154,22.241,21.016,22.38,20.844,22.38z"/>
	</g>
	<g>
		<path d="M20.844,27.176c-0.172,0-0.311-0.14-0.311-0.312v-0.533c0-0.171,0.139-0.311,0.311-0.311s0.311,0.139,0.311,0.311v0.533
			C21.154,27.036,21.016,27.176,20.844,27.176z M20.844,25.577c-0.172,0-0.311-0.139-0.311-0.311v-0.533
			c0-0.171,0.139-0.311,0.311-0.311s0.311,0.139,0.311,0.311v0.533C21.154,25.438,21.016,25.577,20.844,25.577z M20.844,23.979
			c-0.172,0-0.311-0.139-0.311-0.312v-0.532c0-0.172,0.139-0.312,0.311-0.312s0.311,0.139,0.311,0.312v0.532
			C21.154,23.84,21.016,23.979,20.844,23.979z"/>
	</g>
	<g>
		<path d="M21.094,28.491h-0.561v-0.561c0-0.171,0.139-0.312,0.311-0.312c0.152,0,0.279,0.11,0.307,0.255
			c0.145,0.026,0.254,0.153,0.254,0.307C21.404,28.352,21.266,28.491,21.094,28.491z"/>
	</g>
	<g>
		<path d="M27.988,28.491h-0.461c-0.172,0-0.311-0.139-0.311-0.311s0.139-0.312,0.311-0.312h0.461c0.172,0,0.311,0.14,0.311,0.312
			S28.158,28.491,27.988,28.491z M26.609,28.491h-0.461c-0.172,0-0.311-0.139-0.311-0.311s0.139-0.312,0.311-0.312h0.461
			c0.172,0,0.311,0.14,0.311,0.312S26.781,28.491,26.609,28.491z M25.23,28.491h-0.46c-0.172,0-0.311-0.139-0.311-0.311
			s0.139-0.312,0.311-0.312h0.46c0.172,0,0.311,0.14,0.311,0.312S25.402,28.491,25.23,28.491z M23.851,28.491h-0.459
			c-0.172,0-0.312-0.139-0.312-0.311s0.14-0.312,0.312-0.312h0.459c0.173,0,0.312,0.14,0.312,0.312S24.023,28.491,23.851,28.491z
			 M22.473,28.491h-0.46c-0.172,0-0.312-0.139-0.312-0.311s0.14-0.312,0.312-0.312h0.46c0.172,0,0.311,0.14,0.311,0.312
			S22.645,28.491,22.473,28.491z"/>
	</g>
	<g>
		<path d="M29.156,28.491h-0.25c-0.172,0-0.312-0.139-0.312-0.311s0.14-0.312,0.312-0.312h0.25c0.172,0,0.311,0.14,0.311,0.312
			S29.328,28.491,29.156,28.491z"/>
	</g>
</g>
</svg>
