<?xml version="1.0" encoding="utf-8"?>
<!-- Generator: Adobe Illustrator 16.0.4, SVG Export Plug-In . SVG Version: 6.00 Build 0)  -->
<!DOCTYPE svg PUBLIC "-//W3C//DTD SVG 1.1//EN" "http://www.w3.org/Graphics/SVG/1.1/DTD/svg11.dtd">
<svg version="1.1" id="Layer_1" xmlns="http://www.w3.org/2000/svg" xmlns:xlink="http://www.w3.org/1999/xlink" x="0px" y="0px"
	 width="50px" height="50px" viewBox="0 0 50 50" enable-background="new 0 0 50 50" xml:space="preserve">
<g>
	<path d="M31.214,15.324l-1.761,1.76c4.365,4.365,4.366,11.467,0,15.834l1.761,1.758C36.55,29.342,36.55,20.661,31.214,15.324z"/>
	<path d="M28.574,17.963l-1.76,1.758c2.911,2.911,2.911,7.646,0.001,10.557l1.759,1.759C32.456,28.158,32.456,21.843,28.574,17.963z
		"/>
	<path d="M25.937,20.603l-1.759,1.759c1.454,1.455,1.453,3.822-0.001,5.277l1.759,1.759C28.361,26.973,28.361,23.026,25.937,20.603z
		"/>
	<path d="M21.896,23.5v-5.087L17.308,23h-2.523v4h2.523l4.588,4.588V26.5c0.828,0,1.5-0.67,1.5-1.5
		C23.396,24.171,22.724,23.5,21.896,23.5z"/>
</g>
</svg>
