<?xml version="1.0" encoding="utf-8"?>
<!-- Generator: Adobe Illustrator 16.0.4, SVG Export Plug-In . SVG Version: 6.00 Build 0)  -->
<!DOCTYPE svg PUBLIC "-//W3C//DTD SVG 1.1//EN" "http://www.w3.org/Graphics/SVG/1.1/DTD/svg11.dtd">
<svg version="1.1" id="Layer_1" xmlns="http://www.w3.org/2000/svg" xmlns:xlink="http://www.w3.org/1999/xlink" x="0px" y="0px"
	 width="50px" height="50px" viewBox="0 0 50 50" enable-background="new 0 0 50 50" xml:space="preserve">
<g>
	<g>
		<path d="M24.5,21.94v0.723h-0.723c0,0.399,0.323,0.722,0.723,0.722s0.723-0.323,0.723-0.722S24.899,21.94,24.5,21.94z"/>
	</g>
	<g>
		<path d="M24.5,20.134c-1.396,0-2.529,1.133-2.529,2.529s1.132,2.529,2.529,2.529c1.396,0,2.529-1.132,2.529-2.529
			C27.029,21.267,25.896,20.134,24.5,20.134z M24.5,24.831c-1.197,0-2.167-0.97-2.167-2.167c0-1.197,0.97-2.167,2.167-2.167
			s2.167,0.97,2.167,2.167C26.667,23.861,25.697,24.831,24.5,24.831z"/>
	</g>
	<g>
		<path d="M35.488,30.464C36.452,28.691,37,26.66,37,24.5C37,17.596,31.404,12,24.5,12C17.596,12,12,17.596,12,24.5
			C12,31.404,17.596,37,24.5,37c2.16,0,4.191-0.548,5.965-1.512L38,38L35.488,30.464z M25.402,29.55
			c2.562,0.125,4.517,0.771,4.517,1.552c0,0.871-10.837,0.871-10.837,0c0-0.781,1.955-1.427,4.517-1.552l0.301-1.504
			c-2.709-0.299-4.817-2.594-4.817-5.383c0-2.993,2.426-5.418,5.418-5.418s5.418,2.426,5.418,5.418c0,2.789-2.108,5.084-4.817,5.383
			L25.402,29.55z"/>
	</g>
</g>
</svg>
