<?xml version="1.0" encoding="utf-8"?>
<!-- Generator: Adobe Illustrator 16.0.4, SVG Export Plug-In . SVG Version: 6.00 Build 0)  -->
<!DOCTYPE svg PUBLIC "-//W3C//DTD SVG 1.1//EN" "http://www.w3.org/Graphics/SVG/1.1/DTD/svg11.dtd">
<svg version="1.1" id="Layer_1" xmlns="http://www.w3.org/2000/svg" xmlns:xlink="http://www.w3.org/1999/xlink" x="0px" y="0px"
	 width="50px" height="50px" viewBox="0 0 50 50" enable-background="new 0 0 50 50" xml:space="preserve">
<g>
	<g>
		<path d="M19.247,24.159h5.446c0.212,0,0.385-0.172,0.385-0.385s-0.173-0.386-0.385-0.386h-5.446c-0.212,0-0.385,0.172-0.385,0.386
			C18.861,23.987,19.034,24.159,19.247,24.159z"/>
	</g>
	<g>
		<circle cx="29.064" cy="24.5" r="0.311"/>
	</g>
	<g>
		<path d="M29.066,27.546c1.682,0,3.045-1.364,3.045-3.046c0-1.683-1.363-3.046-3.045-3.046c-1.684,0-3.047,1.364-3.047,3.046
			C26.02,26.182,27.383,27.546,29.066,27.546z M28.077,24.539c-0.41-0.094-0.884-0.304-1.472-0.743
			c0.285-0.22,0.455-0.475,0.625-0.856c0.34,0.469,0.668,0.802,0.992,1.039c0.082-0.128,0.188-0.236,0.316-0.318
			c-0.124-0.399-0.18-0.91-0.094-1.644c0.414,0,0.828,0,1.242,0c-0.381,0.617-0.539,1.09-0.588,1.494
			c0.155,0.004,0.299,0.046,0.426,0.113c0.279-0.309,0.652-0.614,1.164-0.908c0.185,0.321,0.494,0.641,0.838,1.079
			c-0.721-0.02-1.213,0.078-1.588,0.238c0.068,0.128,0.109,0.272,0.117,0.427c0.409,0.094,0.881,0.304,1.471,0.743
			c-0.286,0.22-0.455,0.477-0.625,0.855c-0.34-0.469-0.668-0.802-0.992-1.039c-0.08,0.128-0.188,0.236-0.316,0.318
			c0.124,0.398,0.18,0.91,0.094,1.645c-0.414,0-0.828,0-1.242,0c0.381-0.617,0.539-1.09,0.588-1.495
			c-0.155-0.005-0.299-0.046-0.426-0.114c-0.278,0.31-0.652,0.614-1.164,0.907c-0.186-0.321-0.493-0.641-0.838-1.079
			c0.721,0.021,1.213-0.077,1.588-0.238C28.124,24.837,28.083,24.694,28.077,24.539z"/>
	</g>
	<g>
		<path d="M19.247,25.701h5.446c0.212,0,0.385-0.172,0.385-0.385c0-0.213-0.173-0.386-0.385-0.386h-5.446
			c-0.212,0-0.385,0.172-0.385,0.386C18.861,25.527,19.034,25.701,19.247,25.701z"/>
	</g>
	<g>
		<path d="M35.488,30.464C36.452,28.691,37,26.66,37,24.5C37,17.596,31.404,12,24.5,12C17.596,12,12,17.596,12,24.5
			C12,31.404,17.596,37,24.5,37c2.16,0,4.191-0.548,5.965-1.512L38,38L35.488,30.464z M26.645,29.452h-7.089
			c-0.155,0-0.276-0.507-0.299-0.792h7.689C26.922,28.943,26.799,29.452,26.645,29.452z M31.27,29.452h-3.236
			c-0.154,0-0.277-0.507-0.301-0.792h3.836C31.547,28.943,31.423,29.452,31.27,29.452z M33.119,28.396H17.988v0.771
			c0,0.156-0.126,0.283-0.283,0.283c-0.156,0-0.283-0.127-0.283-0.283v-2.091h-1.258v-0.441h1.258v-0.55h-1.258v-3.083h1.258v-0.551
			h-1.258v-0.441h1.258v-1.896h-1.258c-0.156,0-0.283-0.126-0.283-0.283c0-0.156,0.127-0.283,0.283-0.283h1.542
			c0.157,0,0.283,0.127,0.283,0.283v0.859H33.12L33.119,28.396L33.119,28.396z"/>
	</g>
</g>
</svg>
