<?xml version="1.0" encoding="utf-8"?>
<!-- Generator: Adobe Illustrator 16.0.4, SVG Export Plug-In . SVG Version: 6.00 Build 0)  -->
<!DOCTYPE svg PUBLIC "-//W3C//DTD SVG 1.1//EN" "http://www.w3.org/Graphics/SVG/1.1/DTD/svg11.dtd">
<svg version="1.1" id="Layer_1" xmlns="http://www.w3.org/2000/svg" xmlns:xlink="http://www.w3.org/1999/xlink" x="0px" y="0px"
	 width="50px" height="50px" viewBox="0 0 50 50" enable-background="new 0 0 50 50" xml:space="preserve">
<g>
	<g>
		<path d="M26.5,20.75v-3.031c0-0.413-0.337-0.75-0.75-0.75h-6c-0.413,0-0.75,0.337-0.75,0.75v3.031c0,0.413,0.337,0.75,0.75,0.75h6
			C26.163,21.5,26.5,21.163,26.5,20.75z M25.625,20c0,0.275-0.225,0.5-0.5,0.5s-0.5-0.225-0.5-0.5v-2c0-0.275,0.225-0.5,0.5-0.5
			s0.5,0.225,0.5,0.5V20z"/>
	</g>
	<g>
		<rect x="20.5" y="28.5" width="8" height="0.5"/>
	</g>
	<g>
		<rect x="20.5" y="26.5" width="8" height="0.5"/>
	</g>
	<g>
		<path d="M35.488,30.464C36.452,28.691,37,26.66,37,24.5C37,17.596,31.404,12,24.5,12C17.596,12,12,17.596,12,24.5
			C12,31.404,17.596,37,24.5,37c2.16,0,4.191-0.548,5.965-1.512L38,38L35.488,30.464z M32,31.5c0,0.55-0.45,1-1,1H18
			c-0.55,0-1-0.45-1-1v-14c0-0.55,0.45-1,1-1h8.875l0.042,0.043c0.108,0.026,0.226,0.086,0.354,0.216l4.469,4.468
			c0.144,0.144,0.199,0.271,0.218,0.387L32,21.656V31.5z"/>
	</g>
</g>
</svg>
