<?xml version="1.0" encoding="utf-8"?>
<!-- Generator: Adobe Illustrator 16.0.4, SVG Export Plug-In . SVG Version: 6.00 Build 0)  -->
<!DOCTYPE svg PUBLIC "-//W3C//DTD SVG 1.1//EN" "http://www.w3.org/Graphics/SVG/1.1/DTD/svg11.dtd">
<svg version="1.1" id="Layer_1" xmlns="http://www.w3.org/2000/svg" xmlns:xlink="http://www.w3.org/1999/xlink" x="0px" y="0px"
	 width="50px" height="50px" viewBox="0 0 50 50" enable-background="new 0 0 50 50" xml:space="preserve">
<g>
	<g>
		<path d="M24.5,28.086c2.609,0,4.734-2.124,4.734-4.735s-2.125-4.735-4.734-4.735c-2.61,0-4.734,2.124-4.734,4.735
			S21.89,28.086,24.5,28.086z M24.5,19.046c2.378,0,4.305,1.927,4.305,4.305c0,2.377-1.927,4.303-4.305,4.303
			s-4.305-1.926-4.305-4.303C20.195,20.973,22.122,19.046,24.5,19.046z"/>
	</g>
	<g>
		<path d="M24.5,24.427c0.593,0,1.076-0.481,1.076-1.076c0-0.595-0.483-1.076-1.076-1.076v1.076h-1.076
			C23.424,23.945,23.907,24.427,24.5,24.427z"/>
	</g>
	<g>
		<path d="M35.488,30.464C36.452,28.691,37,26.66,37,24.5C37,17.596,31.404,12,24.5,12C17.596,12,12,17.596,12,24.5
			C12,31.404,17.596,37,24.5,37c2.16,0,4.191-0.548,5.965-1.512L38,38L35.488,30.464z M24.5,18.186c2.848,0,5.165,2.317,5.165,5.166
			s-2.317,5.166-5.165,5.166c-2.848,0-5.165-2.317-5.165-5.166S21.652,18.186,24.5,18.186z M24.5,30.395
			c-3.209,0-5.811,0.994-5.811-0.078c0-0.621,0.872-1.793,2.226-2.674c0.972,0.812,2.221,1.305,3.585,1.305s2.613-0.491,3.585-1.305
			c1.354,0.881,2.226,2.053,2.226,2.674C30.311,31.389,27.709,30.395,24.5,30.395z"/>
	</g>
	<g>
		<path d="M24.5,25.234c1.038,0,1.883-0.844,1.883-1.883s-0.845-1.883-1.883-1.883s-1.883,0.845-1.883,1.883
			S23.462,25.234,24.5,25.234z M24.5,21.791c0.861,0,1.561,0.7,1.561,1.561s-0.7,1.56-1.561,1.56s-1.56-0.7-1.56-1.56
			S23.639,21.791,24.5,21.791z"/>
	</g>
</g>
</svg>
