<?xml version="1.0" encoding="utf-8"?>
<!-- Generator: Adobe Illustrator 16.0.4, SVG Export Plug-In . SVG Version: 6.00 Build 0)  -->
<!DOCTYPE svg PUBLIC "-//W3C//DTD SVG 1.1//EN" "http://www.w3.org/Graphics/SVG/1.1/DTD/svg11.dtd">
<svg version="1.1" id="Layer_1" xmlns="http://www.w3.org/2000/svg" xmlns:xlink="http://www.w3.org/1999/xlink" x="0px" y="0px"
	 width="50px" height="50px" viewBox="0 0 50 50" enable-background="new 0 0 50 50" xml:space="preserve">
<g>
	<g>
		<polygon points="22.609,28.348 22.179,28.863 26.82,28.863 26.391,28.348 		"/>
	</g>
	<g>
		<path d="M25.626,29.145h-2.253c-0.078,0-0.141,0.062-0.141,0.142s0.063,0.141,0.141,0.141h2.253c0.078,0,0.142-0.062,0.142-0.141
			S25.704,29.145,25.626,29.145z"/>
	</g>
	<g>
		<path d="M35.488,30.464C36.452,28.691,37,26.66,37,24.5C37,17.596,31.404,12,24.5,12C17.596,12,12,17.596,12,24.5
			C12,31.404,17.596,37,24.5,37c2.16,0,4.191-0.548,5.964-1.512L38,38L35.488,30.464z M31.257,29.708H17.743
			c-0.466,0-0.844-0.378-0.844-0.845l1.407-1.689v-0.562v-3.378v-3.378c0-0.31,0.254-0.563,0.564-0.563h11.261
			c0.309,0,0.562,0.253,0.562,0.563v3.378v3.378v0.562l1.408,1.689C32.102,29.33,31.723,29.708,31.257,29.708z"/>
	</g>
	<g>
		<path d="M29.411,19.795H19.59c-0.269,0-0.49,0.221-0.49,0.492v5.891c0,0.271,0.221,0.492,0.49,0.492h9.821
			c0.269,0,0.489-0.221,0.489-0.492v-5.891C29.9,20.016,29.68,19.795,29.411,19.795z"/>
	</g>
</g>
</svg>
