<?xml version="1.0" encoding="utf-8"?>
<!-- Generator: Adobe Illustrator 16.0.4, SVG Export Plug-In . SVG Version: 6.00 Build 0)  -->
<!DOCTYPE svg PUBLIC "-//W3C//DTD SVG 1.1//EN" "http://www.w3.org/Graphics/SVG/1.1/DTD/svg11.dtd">
<svg version="1.1" id="Layer_1" xmlns="http://www.w3.org/2000/svg" xmlns:xlink="http://www.w3.org/1999/xlink" x="0px" y="0px"
	 width="50px" height="50px" viewBox="0 0 50 50" enable-background="new 0 0 50 50" xml:space="preserve">
<g>
	<g>
		<polygon points="29.305,30.639 29.305,27.438 26.102,30.639 		"/>
	</g>
	<g>
		<circle cx="24.5" cy="23.166" r="1.068"/>
	</g>
	<g>
		<path d="M21.719,27.072c0.604-0.303,1.383-0.676,2.086-1.01l0.674-0.319l-0.319,0.675c-0.222,0.469-0.462,0.973-0.688,1.436
			c0.334,0.071,0.676,0.116,1.029,0.116c2.654,0,4.805-2.151,4.805-4.804c0-2.654-2.15-4.805-4.805-4.805s-4.805,2.15-4.805,4.805
			C19.695,24.78,20.498,26.2,21.719,27.072z M24.5,21.564c0.885,0,1.602,0.717,1.602,1.603c0,0.883-0.717,1.6-1.602,1.6
			s-1.602-0.716-1.602-1.6C22.898,22.281,23.615,21.564,24.5,21.564z"/>
	</g>
	<g>
		<path d="M35.488,30.464C36.452,28.691,37,26.66,37,24.5C37,17.596,31.404,12,24.5,12S12,17.596,12,24.5
			C12,31.404,17.596,37,24.5,37c2.16,0,4.191-0.548,5.965-1.512L38,38L35.488,30.464z M29.839,31.439H19.161V17.561h10.678V31.439z"
			/>
	</g>
	<g>
		<path d="M20.87,27.855l1.495,1.498c0.013-0.015,0.029-0.018,0.043-0.029c0.154-0.154,1.509-3.02,1.509-3.02
			s-2.865,1.356-3.021,1.51C20.887,27.827,20.883,27.842,20.87,27.855z"/>
	</g>
	<g>
		<polygon points="19.695,27.438 19.695,30.639 22.898,30.639 		"/>
	</g>
</g>
</svg>
