<?xml version="1.0" encoding="utf-8"?>
<!-- Generator: Adobe Illustrator 16.0.4, SVG Export Plug-In . SVG Version: 6.00 Build 0)  -->
<!DOCTYPE svg PUBLIC "-//W3C//DTD SVG 1.1//EN" "http://www.w3.org/Graphics/SVG/1.1/DTD/svg11.dtd">
<svg version="1.1" id="Layer_1" xmlns="http://www.w3.org/2000/svg" xmlns:xlink="http://www.w3.org/1999/xlink" x="0px" y="0px"
	 width="50px" height="50px" viewBox="0 0 50 50" enable-background="new 0 0 50 50" xml:space="preserve">
<g>
	<g>
		<path d="M31.53,31.702c-0.298,0.064-0.605,0.104-0.921,0.104H19.393c-0.316,0-0.624-0.04-0.922-0.104
			c-0.602,0.331-0.948,0.712-0.948,1.117c0,1.27,14.955,1.27,14.955,0C32.478,32.414,32.132,32.032,31.53,31.702z"/>
	</g>
	<g>
		<path d="M33.35,19.959c-0.138-2.051-1.932-3.73-3.987-3.73h-8.724c-2.056,0-3.851,1.679-3.987,3.73l-0.749,7.495
			c-0.137,2.051,1.434,3.729,3.49,3.729h11.216c2.056,0,3.626-1.679,3.49-3.729L33.35,19.959z M20.883,22.148h-1.246v-0.312h1.246
			V22.148z M20.26,21.058c-0.344,0-0.623-0.279-0.623-0.623c0-0.345,0.279-0.623,0.623-0.623c0.344,0,0.623,0.278,0.623,0.623
			C20.883,20.779,20.604,21.058,20.26,21.058z M23.253,22.148h-1.246v-0.312h1.246V22.148z M22.63,21.058
			c-0.344,0-0.623-0.279-0.623-0.623c0-0.345,0.279-0.623,0.623-0.623c0.344,0,0.623,0.278,0.623,0.623
			C23.253,20.779,22.974,21.058,22.63,21.058z M25.623,22.148h-1.246v-0.312h1.246V22.148z M25,21.058
			c-0.344,0-0.623-0.279-0.623-0.623c0-0.345,0.279-0.623,0.623-0.623s0.623,0.278,0.623,0.623
			C25.623,20.779,25.344,21.058,25,21.058z M27.993,22.148h-1.246v-0.312h1.246V22.148z M27.37,21.058
			c-0.344,0-0.623-0.279-0.623-0.623c0-0.345,0.279-0.623,0.623-0.623s0.623,0.278,0.623,0.623
			C27.993,20.779,27.714,21.058,27.37,21.058z M30.363,22.148h-1.246v-0.312h1.246V22.148z M29.74,21.058
			c-0.344,0-0.623-0.279-0.623-0.623c0-0.345,0.279-0.623,0.623-0.623s0.623,0.278,0.623,0.623
			C30.363,20.779,30.084,21.058,29.74,21.058z"/>
	</g>
</g>
</svg>
