<?xml version="1.0" encoding="utf-8"?>
<!-- Generator: Adobe Illustrator 16.0.4, SVG Export Plug-In . SVG Version: 6.00 Build 0)  -->
<!DOCTYPE svg PUBLIC "-//W3C//DTD SVG 1.1//EN" "http://www.w3.org/Graphics/SVG/1.1/DTD/svg11.dtd">
<svg version="1.1" id="Layer_1" xmlns="http://www.w3.org/2000/svg" xmlns:xlink="http://www.w3.org/1999/xlink" x="0px" y="0px"
	 width="50px" height="50px" viewBox="0 0 50 50" enable-background="new 0 0 50 50" xml:space="preserve">
<g>
	<g>
		<polygon points="22,31.073 20,33.073 30,33.073 28,31.073 		"/>
	</g>
	<g>
		<path d="M15,16.927v13h20v-13H15z M27.911,21.934c0.003,0.065,0.004,0.13,0.004,0.195c0,1.985-1.511,4.273-4.272,4.273
			c-0.849,0-1.639-0.25-2.303-0.676c0.117,0.015,0.236,0.021,0.357,0.021c0.703,0,1.352-0.24,1.865-0.643
			c-0.658-0.013-1.211-0.447-1.402-1.043c0.092,0.018,0.186,0.027,0.281,0.027c0.138,0,0.271-0.019,0.396-0.053
			c-0.688-0.138-1.204-0.745-1.204-1.473v-0.019c0.202,0.112,0.435,0.18,0.681,0.188c-0.402-0.269-0.668-0.729-0.668-1.25
			c0-0.275,0.073-0.533,0.203-0.755c0.74,0.909,1.848,1.507,3.096,1.569c-0.025-0.11-0.038-0.224-0.038-0.342
			c0-0.829,0.672-1.502,1.502-1.502c0.432,0,0.821,0.182,1.097,0.475c0.342-0.067,0.663-0.193,0.953-0.365
			c-0.111,0.351-0.352,0.645-0.66,0.831c0.305-0.036,0.594-0.117,0.862-0.237C28.459,21.458,28.204,21.722,27.911,21.934z"/>
	</g>
</g>
</svg>
