<?xml version="1.0" encoding="utf-8"?>
<!-- Generator: Adobe Illustrator 16.0.4, SVG Export Plug-In . SVG Version: 6.00 Build 0)  -->
<!DOCTYPE svg PUBLIC "-//W3C//DTD SVG 1.1//EN" "http://www.w3.org/Graphics/SVG/1.1/DTD/svg11.dtd">
<svg version="1.1" id="Layer_1" xmlns="http://www.w3.org/2000/svg" xmlns:xlink="http://www.w3.org/1999/xlink" x="0px" y="0px"
	 width="50px" height="50px" viewBox="0 0 50 50" enable-background="new 0 0 50 50" xml:space="preserve">
<g>
	<path d="M29.01,12.596h-8.023v7.274h8.023V12.596z M23.822,17.485h-1.755V15.73h1.755V17.485z M27.93,17.485h-1.754V15.73h1.754
		V17.485z"/>
	<path d="M30.881,20.68c-0.057,0.171-0.287,0.292-0.68,0.292H19.819c-0.426,0-0.674-0.139-0.698-0.335
		c-0.029,0.109-0.047,0.235-0.047,0.39v8.015c0,1.273,1.067,2.315,2.37,2.315h7.109c1.303,0,2.369-1.042,2.369-2.315v-8.015
		C30.924,20.889,30.904,20.781,30.881,20.68z M26.656,24.265c-0.092-0.001-0.184,0-0.275,0c-0.004,0.008-0.004,0.015-0.004,0.021
		c0,0.205,0,0.41,0,0.615c0.004,0.196-0.072,0.364-0.201,0.508c-0.08,0.085-0.17,0.162-0.254,0.241
		c-0.225,0.216-0.451,0.427-0.678,0.643c-0.062,0.058-0.091,0.135-0.103,0.217c-0.002,0.022-0.004,0.044-0.004,0.066
		c0,0.489,0,0.979,0,1.47c0,0.019,0.004,0.024,0.025,0.03c0.277,0.065,0.482,0.297,0.521,0.582c0.049,0.364-0.203,0.711-0.565,0.771
		c-0.374,0.062-0.72-0.177-0.798-0.546c-0.072-0.361,0.158-0.722,0.515-0.805c0.022-0.006,0.026-0.015,0.026-0.036
		c-0.002-0.146-0.002-0.292-0.002-0.438c0-0.099-0.031-0.185-0.092-0.263c-0.006-0.006-0.006-0.01-0.017-0.017
		c-0.299-0.283-0.603-0.567-0.899-0.855c-0.146-0.144-0.229-0.324-0.229-0.537c0-0.212,0-0.421,0-0.636
		c0-0.016-0.004-0.023-0.021-0.03c-0.174-0.068-0.276-0.246-0.256-0.425c0.023-0.195,0.17-0.341,0.36-0.367
		c0.252-0.032,0.479,0.174,0.465,0.43c-0.01,0.173-0.099,0.294-0.26,0.364c-0.015,0.005-0.019,0.013-0.019,0.026
		c0,0.222,0,0.445,0.002,0.667c0.002,0.112,0.045,0.209,0.125,0.288c0.275,0.261,0.549,0.52,0.824,0.778
		c0.006,0.004,0.01,0.01,0.016,0.019c0-1.411,0-2.819,0-4.228c-0.109,0-0.223,0-0.34,0c0.162-0.278,0.317-0.552,0.479-0.829
		c0.162,0.276,0.319,0.55,0.479,0.826c-0.119,0-0.229,0-0.34,0c0,1.064-0.004,2.128,0,3.193c0.004-0.004,0.008-0.008,0.012-0.011
		c0.283-0.269,0.566-0.532,0.845-0.801c0.059-0.058,0.088-0.13,0.104-0.209c0.004-0.021,0.004-0.042,0.004-0.062
		c0-0.214,0-0.426,0-0.642c0-0.004,0-0.009,0-0.018c-0.092,0-0.182,0-0.273,0c0-0.277,0-0.553,0-0.826c0.273,0.001,0.547,0,0.826,0
		C26.656,23.713,26.656,23.988,26.656,24.265z"/>
	<path d="M25.76,33.324h1.418c0.4,0,0.729-0.327,0.729-0.728v-0.515c0-0.038-0.018-0.07-0.021-0.106h-5.77
		c-0.007,0.036-0.021,0.069-0.021,0.106v0.515c0,0.399,0.325,0.728,0.727,0.728h1.471c0.045,0.393,0.219,1.207,0.891,2.021
		c1.126,1.365,3.058,2.059,5.744,2.059v-1.453C26.672,35.95,25.898,34.016,25.76,33.324z"/>
</g>
</svg>
