<?xml version="1.0" encoding="utf-8"?>
<!-- Generator: Adobe Illustrator 16.0.4, SVG Export Plug-In . SVG Version: 6.00 Build 0)  -->
<!DOCTYPE svg PUBLIC "-//W3C//DTD SVG 1.1//EN" "http://www.w3.org/Graphics/SVG/1.1/DTD/svg11.dtd">
<svg version="1.1" id="Layer_1" xmlns="http://www.w3.org/2000/svg" xmlns:xlink="http://www.w3.org/1999/xlink" x="0px" y="0px"
	 width="50px" height="50px" viewBox="0 0 50 50" enable-background="new 0 0 50 50" xml:space="preserve">
<g>
	<polygon points="22,31.073 20,33.073 30,33.073 28,31.073 	"/>
	<path d="M15,16.927v13h20v-13H15z M28.24,26.719c0,0.242-0.198,0.439-0.439,0.439h-4.396c-0.24,0-0.438-0.197-0.438-0.439v-3.077
		c0-0.242,0.198-0.439,0.438-0.439h0.404h0.77h0.004V21.49c0-0.566-0.46-1.026-1.025-1.026c-0.564,0-1.024,0.46-1.024,1.026v0.713
		h-0.771V21.49c0-0.99,0.805-1.795,1.795-1.795s1.795,0.805,1.795,1.795v1.713h1.277h0.77h0.404c0.24,0,0.438,0.198,0.438,0.439
		L28.24,26.719L28.24,26.719z"/>
</g>
</svg>
