<?xml version="1.0" encoding="utf-8"?>
<!-- Generator: Adobe Illustrator 16.0.4, SVG Export Plug-In . SVG Version: 6.00 Build 0)  -->
<!DOCTYPE svg PUBLIC "-//W3C//DTD SVG 1.1//EN" "http://www.w3.org/Graphics/SVG/1.1/DTD/svg11.dtd">
<svg version="1.1" id="Layer_1" xmlns="http://www.w3.org/2000/svg" xmlns:xlink="http://www.w3.org/1999/xlink" x="0px" y="0px"
	 width="50px" height="50px" viewBox="0 0 50 50" enable-background="new 0 0 50 50" xml:space="preserve">
<g>
	<path d="M25.594,18.951v-5.804h-6.404l0.001,5.803L25.594,18.951z M23.332,15.647h1.399l-0.001,1.399l-1.399,0.001L23.332,15.647z
		 M20.056,15.646l1.4,0.001l-0.001,1.4h-1.399V15.646z"/>
	<path d="M20.827,29.092c0-3.511,2.855-6.366,6.366-6.366V21.15c0.001-0.879-0.72-1.601-1.599-1.601H19.19
		c-0.879-0.001-1.598,0.719-1.598,1.599V33.95c0,0.881,0.682,1.826,1.515,2.106l1.768,0.588c0.836,0.278,2.2,0.278,3.035,0
		l1.767-0.586c0.349-0.116,0.654-0.365,0.912-0.661C23.365,35.087,20.827,32.396,20.827,29.092z"/>
	<path d="M27.192,23.876c-2.881,0-5.215,2.333-5.215,5.215c0,2.88,2.334,5.216,5.215,5.216c2.882,0,5.216-2.336,5.216-5.216
		C32.408,26.209,30.074,23.876,27.192,23.876z M27,32.874l-4.126-3.441l1.338-1.606l2.393,1.993l3.204-4.51l1.704,1.209L27,32.874z"
		/>
</g>
</svg>
