<?xml version="1.0" encoding="utf-8"?>
<!-- Generator: Adobe Illustrator 16.0.4, SVG Export Plug-In . SVG Version: 6.00 Build 0)  -->
<!DOCTYPE svg PUBLIC "-//W3C//DTD SVG 1.1//EN" "http://www.w3.org/Graphics/SVG/1.1/DTD/svg11.dtd">
<svg version="1.1" id="Layer_1" xmlns="http://www.w3.org/2000/svg" xmlns:xlink="http://www.w3.org/1999/xlink" x="0px" y="0px"
	 width="50px" height="50px" viewBox="0 0 50 50" enable-background="new 0 0 50 50" xml:space="preserve">
<g>
	<path d="M24.021,12.843h-7.867v7.129h7.867V12.843z M18.934,17.633h-1.719v-1.72h1.719V17.633z M22.961,17.633H21.24v-1.72h1.721
		V17.633z"/>
	<path d="M20.838,33.159h1.387c0.394,0,0.711-0.321,0.711-0.712v-0.504c0-0.036-0.016-0.069-0.021-0.104h-5.653
		c-0.007,0.035-0.021,0.067-0.021,0.104v0.504c0,0.391,0.319,0.712,0.712,0.712h1.441c0.043,0.382,0.209,1.177,0.873,1.981
		c1.104,1.336,2.996,2.017,5.629,2.017v-1.425C21.707,35.732,20.971,33.827,20.838,33.159z"/>
	<path d="M23.573,31.229c-0.228-0.674-0.38-1.385-0.38-2.136c0-2.196,1.07-4.13,2.701-5.361v-2.628c0-0.132-0.02-0.239-0.041-0.337
		c-0.058,0.167-0.281,0.284-0.666,0.284H15.012c-0.419,0-0.662-0.134-0.686-0.328c-0.027,0.107-0.047,0.231-0.047,0.381v7.855
		c0,1.249,1.047,2.27,2.324,2.27h6.967H23.573z M21.712,24.28c-0.089-0.002-0.179,0-0.271,0c-0.002,0.008-0.002,0.012-0.002,0.02
		c0,0.201,0,0.401,0,0.604c0.002,0.191-0.072,0.356-0.199,0.496c-0.078,0.084-0.166,0.161-0.248,0.237
		c-0.221,0.211-0.441,0.418-0.664,0.631c-0.061,0.057-0.09,0.131-0.1,0.211c-0.002,0.021-0.006,0.045-0.006,0.064
		c0,0.48,0,0.96,0,1.439c0,0.021,0.006,0.025,0.026,0.031c0.271,0.065,0.474,0.291,0.51,0.571c0.05,0.356-0.196,0.694-0.554,0.755
		c-0.366,0.061-0.706-0.174-0.78-0.536c-0.071-0.354,0.154-0.708,0.505-0.788c0.021-0.008,0.024-0.015,0.024-0.037
		c-0.002-0.143-0.002-0.283-0.002-0.426c0-0.098-0.031-0.182-0.091-0.26c-0.006-0.005-0.006-0.01-0.016-0.014
		c-0.293-0.28-0.592-0.557-0.883-0.842c-0.143-0.14-0.225-0.316-0.225-0.525c0-0.207,0-0.414,0-0.624
		c0-0.015-0.004-0.023-0.021-0.029c-0.169-0.067-0.27-0.24-0.25-0.417c0.023-0.189,0.166-0.334,0.354-0.358
		c0.246-0.033,0.472,0.169,0.455,0.421c-0.008,0.169-0.096,0.287-0.254,0.356c-0.014,0.004-0.019,0.013-0.019,0.025
		c0,0.217,0,0.437,0.003,0.653c0.002,0.111,0.043,0.207,0.123,0.283c0.27,0.254,0.537,0.51,0.807,0.762
		c0.006,0.004,0.01,0.01,0.017,0.021c0-1.385,0-2.766,0-4.144c-0.106,0-0.218,0-0.334,0c0.157-0.274,0.312-0.542,0.471-0.812
		c0.16,0.271,0.312,0.538,0.472,0.811c-0.117,0-0.226,0-0.334,0c0,1.042-0.004,2.083,0,3.126c0.004-0.002,0.008-0.006,0.012-0.008
		c0.277-0.263,0.555-0.521,0.828-0.786c0.057-0.055,0.086-0.127,0.101-0.205c0.005-0.021,0.005-0.043,0.005-0.062
		c0-0.21,0-0.417,0-0.629c0-0.004,0-0.009,0-0.017c-0.092,0-0.18,0-0.27,0c0-0.272,0-0.541,0-0.811c0.27,0,0.537,0,0.81,0
		C21.712,23.739,21.712,24.008,21.712,24.28z"/>
	<path d="M29.936,23.31c-3.194,0-5.785,2.588-5.785,5.783s2.591,5.787,5.785,5.787c3.195,0,5.785-2.593,5.785-5.787
		S33.131,23.31,29.936,23.31z M29.723,33.289l-4.578-3.816l1.484-1.781l2.652,2.209l3.555-5.002l1.891,1.341L29.723,33.289z"/>
</g>
</svg>
