<?xml version="1.0" encoding="utf-8"?>
<!-- Generator: Adobe Illustrator 16.0.4, SVG Export Plug-In . SVG Version: 6.00 Build 0)  -->
<!DOCTYPE svg PUBLIC "-//W3C//DTD SVG 1.1//EN" "http://www.w3.org/Graphics/SVG/1.1/DTD/svg11.dtd">
<svg version="1.1" id="Layer_1" xmlns="http://www.w3.org/2000/svg" xmlns:xlink="http://www.w3.org/1999/xlink" x="0px" y="0px"
	 width="50px" height="50px" viewBox="0 0 50 50" enable-background="new 0 0 50 50" xml:space="preserve">
<g>
	<path d="M34.717,29.195v-0.883v-5.3v-5.3c0-0.485-0.397-0.883-0.883-0.883H16.168c-0.486,0-0.885,0.396-0.885,0.883v5.3v5.3v0.883
		l-2.207,2.65c0,0.73,0.593,1.324,1.324,1.324H35.6c0.73,0,1.324-0.594,1.324-1.324L34.717,29.195z M26.768,32.729h-3.533
		c-0.122,0-0.221-0.098-0.221-0.221s0.099-0.221,0.221-0.221h3.533c0.122,0,0.221,0.098,0.221,0.221
		C26.987,32.631,26.89,32.729,26.768,32.729z M21.359,31.846l0.674-0.809h5.933l0.675,0.809H21.359z M33.474,27.633
		c0,0.426-0.347,0.771-0.771,0.771H17.297c-0.423,0-0.77-0.348-0.77-0.771v-9.24c0-0.426,0.347-0.771,0.77-0.771h15.406
		c0.424,0,0.771,0.347,0.771,0.771V27.633z"/>
	<path d="M25.946,21.776c0.104,0,0.209,0,0.313,0c0,0.01,0,0.016,0,0.021c0,0.244,0,0.487,0,0.73c0,0.022-0.002,0.048-0.006,0.07
		c-0.018,0.092-0.051,0.176-0.117,0.239c-0.319,0.306-0.641,0.606-0.962,0.912c-0.005,0.004-0.009,0.008-0.016,0.015
		c0-1.216,0-2.428,0-3.642c0.129,0,0.256,0,0.386,0c-0.182-0.315-0.361-0.627-0.543-0.942c-0.182,0.315-0.362,0.629-0.545,0.944
		c0.133,0,0.26,0,0.388,0c0,1.604,0,3.211,0,4.819c-0.01-0.01-0.016-0.016-0.021-0.021c-0.312-0.295-0.625-0.591-0.937-0.887
		c-0.094-0.09-0.141-0.201-0.143-0.329c-0.002-0.253,0-0.507-0.001-0.759c0-0.018,0.005-0.024,0.021-0.031
		c0.181-0.08,0.284-0.217,0.294-0.416c0.016-0.289-0.243-0.525-0.531-0.486c-0.217,0.028-0.381,0.195-0.409,0.418
		c-0.025,0.201,0.096,0.404,0.291,0.484c0.018,0.006,0.023,0.016,0.023,0.033c-0.001,0.242-0.001,0.484-0.001,0.726
		c0,0.242,0.094,0.446,0.264,0.612c0.339,0.328,0.685,0.65,1.028,0.975c0.006,0.006,0.012,0.012,0.017,0.019
		c0.067,0.09,0.106,0.188,0.106,0.301c0,0.166,0,0.332,0,0.498c0,0.023-0.006,0.035-0.031,0.041
		c-0.408,0.096-0.67,0.508-0.586,0.918c0.086,0.422,0.482,0.691,0.908,0.623c0.413-0.07,0.704-0.463,0.647-0.877
		c-0.044-0.328-0.279-0.592-0.6-0.666c-0.021-0.004-0.027-0.014-0.027-0.033c0.001-0.561,0-1.118,0.001-1.677
		c0-0.024,0.001-0.051,0.004-0.073c0.015-0.095,0.048-0.183,0.118-0.249c0.256-0.245,0.516-0.486,0.771-0.73
		c0.097-0.092,0.197-0.18,0.287-0.277c0.147-0.162,0.234-0.354,0.233-0.578c0-0.234,0-0.467,0-0.701c0-0.007,0-0.014,0.001-0.023
		c0.105,0,0.209,0,0.314,0c0-0.315,0-0.629,0-0.941c-0.315,0-0.629,0-0.941,0C25.946,21.147,25.946,21.461,25.946,21.776z"/>
</g>
</svg>
