<?xml version="1.0" encoding="utf-8"?>
<!-- Generator: Adobe Illustrator 16.0.4, SVG Export Plug-In . SVG Version: 6.00 Build 0)  -->
<!DOCTYPE svg PUBLIC "-//W3C//DTD SVG 1.1//EN" "http://www.w3.org/Graphics/SVG/1.1/DTD/svg11.dtd">
<svg version="1.1" id="Layer_1" xmlns="http://www.w3.org/2000/svg" xmlns:xlink="http://www.w3.org/1999/xlink" x="0px" y="0px"
	 width="50px" height="50px" viewBox="0 0 50 50" enable-background="new 0 0 50 50" xml:space="preserve">
<g>
	<polygon points="22,31.073 20,33.073 30,33.073 28,31.073 	"/>
	<path d="M22.333,21.34l-0.431,0.429l-0.43-0.431l0.431-0.429L22.333,21.34z M22.908,20.761l-0.43-0.43l0.43-0.43l0.43,0.43
		L22.908,20.761z"/>
	<path d="M15,16.927v13h20v-13H15z M22.407,18.867l1.782,1.783l-1.967,1.967l-1.783-1.783L22.407,18.867z M29.473,25.88
		l-0.363,0.724c-0.17,0.342-0.59,0.763-0.933,0.935l-0.724,0.36c-0.342,0.17-0.842,0.088-1.112-0.183l-3.934-3.933
		c-0.271-0.271-0.271-0.713,0-0.982l1.967-1.967c0.271-0.27,0.714-0.27,0.983,0l3.933,3.933
		C29.561,25.037,29.643,25.539,29.473,25.88z"/>
	<path d="M26.922,25.201c-0.012,0.008-0.016,0.007-0.023-0.002c-0.224-0.223-0.444-0.445-0.668-0.669
		c-0.01-0.009-0.021-0.021-0.026-0.031c-0.031-0.043-0.056-0.091-0.054-0.146c0.004-0.2,0.013-0.399,0.018-0.599
		c0.003-0.075,0.008-0.151,0.005-0.225c-0.006-0.124-0.047-0.235-0.138-0.324c-0.096-0.092-0.188-0.186-0.279-0.279
		c-0.003-0.003-0.006-0.006-0.009-0.01c0.041-0.042,0.084-0.085,0.125-0.126c-0.126-0.125-0.25-0.25-0.375-0.375
		c-0.127,0.126-0.251,0.251-0.377,0.376c0.125,0.125,0.25,0.25,0.377,0.376c0.042-0.042,0.084-0.084,0.126-0.126
		c0.003,0.004,0.006,0.006,0.008,0.008c0.1,0.097,0.194,0.194,0.29,0.292c0.013,0.01,0.021,0.019,0.024,0.03
		c0.029,0.043,0.053,0.089,0.052,0.143c-0.006,0.249-0.017,0.497-0.021,0.747c0,0.003,0,0.007,0,0.011
		c-0.483-0.484-0.969-0.967-1.452-1.452c0.05-0.05,0.101-0.102,0.153-0.154c-0.198-0.053-0.394-0.106-0.593-0.158
		c0.053,0.199,0.105,0.396,0.158,0.595c0.054-0.053,0.104-0.104,0.154-0.155c0.641,0.64,1.279,1.28,1.919,1.921
		c-0.006,0-0.01,0-0.016,0c-0.24,0.008-0.482,0.014-0.728,0.021c-0.072,0.001-0.137-0.024-0.188-0.074
		c-0.102-0.1-0.203-0.202-0.305-0.303c-0.007-0.006-0.008-0.011-0.004-0.021c0.04-0.104,0.025-0.2-0.049-0.284
		c-0.108-0.121-0.305-0.112-0.405,0.018c-0.074,0.098-0.073,0.23,0.004,0.33c0.071,0.091,0.199,0.124,0.31,0.077
		c0.011-0.004,0.017-0.003,0.022,0.004c0.097,0.097,0.192,0.192,0.288,0.289c0.098,0.097,0.217,0.141,0.35,0.139
		c0.266-0.002,0.533-0.013,0.799-0.02c0.006-0.001,0.008-0.001,0.017,0c0.062,0.009,0.114,0.033,0.159,0.078
		c0.066,0.066,0.135,0.132,0.199,0.198c0.013,0.01,0.015,0.016,0.002,0.029c-0.123,0.2-0.062,0.468,0.137,0.599
		c0.199,0.134,0.469,0.083,0.607-0.113c0.137-0.191,0.096-0.464-0.092-0.609C27.277,25.115,27.079,25.104,26.922,25.201z"/>
</g>
</svg>
