<?xml version="1.0" encoding="utf-8"?>
<!-- Generator: Adobe Illustrator 16.0.4, SVG Export Plug-In . SVG Version: 6.00 Build 0)  -->
<!DOCTYPE svg PUBLIC "-//W3C//DTD SVG 1.1//EN" "http://www.w3.org/Graphics/SVG/1.1/DTD/svg11.dtd">
<svg version="1.1" id="Layer_1" xmlns="http://www.w3.org/2000/svg" xmlns:xlink="http://www.w3.org/1999/xlink" x="0px" y="0px"
	 width="50px" height="50px" viewBox="0 0 50 50" enable-background="new 0 0 50 50" xml:space="preserve">
<g>
	<path d="M24.021,12.843h-7.866v7.129h7.866V12.843z M18.934,17.633h-1.72v-1.72h1.72V17.633z M22.959,17.633h-1.72v-1.72h1.72
		V17.633z"/>
	<path d="M20.837,33.159h1.387c0.393,0,0.712-0.321,0.712-0.712v-0.504c0-0.036-0.017-0.069-0.021-0.104h-5.653
		c-0.008,0.035-0.021,0.067-0.021,0.104v0.504c0,0.391,0.319,0.712,0.711,0.712h1.442c0.042,0.382,0.21,1.177,0.873,1.981
		c1.104,1.336,2.996,2.017,5.629,2.017v-1.425C21.707,35.732,20.97,33.827,20.837,33.159z"/>
	<path d="M23.572,31.229c-0.227-0.674-0.38-1.385-0.38-2.136c0-2.196,1.071-4.13,2.702-5.361v-2.628c0-0.132-0.02-0.239-0.042-0.337
		c-0.057,0.167-0.281,0.284-0.666,0.284H15.011c-0.419,0-0.661-0.134-0.685-0.328c-0.028,0.107-0.046,0.231-0.046,0.381v7.855
		c0,1.249,1.046,2.27,2.323,2.27h6.967H23.572z M21.711,24.28c-0.088-0.002-0.179,0-0.27,0c-0.003,0.008-0.003,0.012-0.003,0.02
		c0,0.201,0,0.401,0,0.604c0.003,0.191-0.072,0.356-0.199,0.496c-0.079,0.084-0.166,0.161-0.248,0.237
		c-0.22,0.211-0.441,0.418-0.665,0.631c-0.06,0.057-0.089,0.131-0.099,0.211c-0.002,0.021-0.005,0.045-0.005,0.064
		c0,0.48,0,0.96,0,1.439c0,0.021,0.005,0.025,0.026,0.031c0.271,0.065,0.474,0.291,0.51,0.571c0.05,0.356-0.197,0.694-0.554,0.755
		c-0.366,0.061-0.706-0.174-0.781-0.536c-0.071-0.354,0.155-0.708,0.505-0.788c0.021-0.008,0.025-0.015,0.025-0.037
		c-0.002-0.143-0.002-0.283-0.002-0.426c0-0.098-0.031-0.182-0.09-0.26c-0.005-0.005-0.007-0.01-0.017-0.014
		c-0.292-0.28-0.591-0.557-0.883-0.842c-0.142-0.14-0.225-0.316-0.225-0.525c0-0.207,0-0.414,0-0.624
		c0-0.015-0.003-0.023-0.021-0.029c-0.169-0.067-0.271-0.24-0.25-0.417c0.023-0.189,0.167-0.334,0.354-0.358
		c0.246-0.033,0.47,0.169,0.454,0.421c-0.008,0.169-0.096,0.287-0.254,0.356c-0.015,0.004-0.019,0.013-0.019,0.025
		c0,0.217,0,0.437,0.003,0.653c0.001,0.111,0.042,0.207,0.123,0.283c0.271,0.254,0.537,0.51,0.807,0.762
		c0.007,0.004,0.01,0.01,0.017,0.021c0-1.385,0-2.766,0-4.144c-0.107,0-0.218,0-0.333,0c0.158-0.274,0.312-0.542,0.471-0.812
		c0.16,0.271,0.312,0.538,0.471,0.811c-0.116,0-0.226,0-0.333,0c0,1.042-0.003,2.083,0,3.126c0.004-0.002,0.008-0.006,0.012-0.008
		c0.277-0.263,0.554-0.521,0.827-0.786c0.057-0.055,0.086-0.127,0.101-0.205c0.004-0.021,0.004-0.043,0.004-0.062
		c0-0.21,0-0.417,0-0.629c0-0.004,0-0.009,0-0.017c-0.091,0-0.179,0-0.269,0c0-0.272,0-0.541,0-0.811c0.269,0,0.536,0,0.809,0
		C21.711,23.739,21.711,24.008,21.711,24.28z"/>
	<path d="M29.936,23.31c-3.194,0-5.785,2.59-5.785,5.783c0,3.196,2.591,5.787,5.785,5.787s5.784-2.59,5.784-5.787
		C35.72,25.9,33.13,23.31,29.936,23.31z M32.864,33.666l-2.929-2.93l-2.931,2.93l-1.642-1.643l2.932-2.931l-2.932-2.929l1.642-1.641
		l2.931,2.932l2.929-2.932l1.642,1.641l-2.93,2.929l2.93,2.931L32.864,33.666z"/>
</g>
</svg>
