<?xml version="1.0" encoding="utf-8"?>
<!-- Generator: Adobe Illustrator 16.0.4, SVG Export Plug-In . SVG Version: 6.00 Build 0)  -->
<!DOCTYPE svg PUBLIC "-//W3C//DTD SVG 1.1//EN" "http://www.w3.org/Graphics/SVG/1.1/DTD/svg11.dtd">
<svg version="1.1" id="Layer_1" xmlns="http://www.w3.org/2000/svg" xmlns:xlink="http://www.w3.org/1999/xlink" x="0px" y="0px"
	 width="50px" height="50px" viewBox="0 0 50 50" enable-background="new 0 0 50 50" xml:space="preserve">
<g>
	<g>
		<path d="M23.602,26.531c-1.279-0.956-2.309-1.412-3.199-1.617c-0.015-0.335-0.105-0.648-0.256-0.928
			c0.819-0.349,1.89-0.562,3.455-0.517c-0.75-0.953-1.42-1.649-1.821-2.349c-1.11,0.64-1.925,1.303-2.531,1.976
			c-0.278-0.147-0.59-0.237-0.924-0.248c0.103-0.878,0.448-1.905,1.275-3.248c-0.898,0-1.802,0-2.7,0
			c-0.188,1.597-0.064,2.706,0.205,3.575c-0.278,0.175-0.512,0.411-0.687,0.69c-0.706-0.515-1.421-1.238-2.161-2.258
			c-0.37,0.827-0.737,1.384-1.359,1.861c1.28,0.956,2.31,1.412,3.199,1.617c0.016,0.336,0.106,0.647,0.256,0.929
			c-0.818,0.348-1.889,0.561-3.454,0.517c0.75,0.952,1.42,1.649,1.822,2.348c1.109-0.64,1.924-1.303,2.529-1.975
			c0.279,0.146,0.591,0.237,0.926,0.247c-0.104,0.879-0.449,1.906-1.276,3.248c0.898,0,1.802,0,2.7,0
			c0.188-1.597,0.064-2.705-0.205-3.574c0.278-0.176,0.513-0.411,0.687-0.69c0.706,0.515,1.422,1.238,2.161,2.257
			C22.611,27.564,22.979,27.007,23.602,26.531z M18.25,25.675c-0.372,0-0.675-0.302-0.675-0.675s0.303-0.675,0.675-0.675
			s0.675,0.302,0.675,0.675S18.622,25.675,18.25,25.675z"/>
	</g>
	<g>
		<path d="M33.646,23.986c0.818-0.349,1.889-0.562,3.454-0.517c-0.75-0.953-1.42-1.649-1.821-2.349
			c-1.11,0.64-1.926,1.303-2.531,1.976c-0.278-0.147-0.59-0.237-0.924-0.248c0.103-0.878,0.447-1.905,1.275-3.248
			c-0.898,0-1.802,0-2.7,0c-0.188,1.597-0.064,2.706,0.206,3.575c-0.279,0.175-0.513,0.411-0.688,0.69
			c-0.706-0.515-1.421-1.238-2.161-2.258c-0.37,0.827-0.737,1.384-1.358,1.861c1.279,0.956,2.309,1.412,3.198,1.617
			c0.016,0.336,0.106,0.647,0.256,0.929c-0.818,0.348-1.889,0.561-3.454,0.517c0.75,0.952,1.42,1.649,1.822,2.348
			c1.109-0.64,1.924-1.303,2.529-1.975c0.279,0.146,0.591,0.237,0.926,0.247c-0.104,0.879-0.449,1.906-1.276,3.248
			c0.898,0,1.802,0,2.7,0c0.188-1.597,0.064-2.705-0.205-3.574c0.278-0.176,0.513-0.411,0.687-0.69
			c0.706,0.515,1.422,1.238,2.161,2.257c0.369-0.828,0.736-1.384,1.358-1.86c-1.279-0.956-2.309-1.412-3.199-1.617
			C33.888,24.578,33.796,24.266,33.646,23.986z M31.75,25.675c-0.372,0-0.675-0.302-0.675-0.675s0.303-0.675,0.675-0.675
			s0.675,0.302,0.675,0.675S32.122,25.675,31.75,25.675z"/>
	</g>
	<g>
		<path d="M37.42,18.25h-8.67c0,0-1.679-1.25-3.75-1.25s-3.75,1.25-3.75,1.25h-8.67c-0.594,0-1.08,0.486-1.08,1.08v11.34
			c0,0.594,0.486,1.08,1.08,1.08h8.67c0,0,1.679,1.25,3.75,1.25s3.75-1.25,3.75-1.25h8.67c0.594,0,1.08-0.486,1.08-1.08V19.33
			C38.5,18.736,38.014,18.25,37.42,18.25z M25,18c1.657,0,3,1.094,3,1.094s-1.343,1.094-3,1.094s-3-1.094-3-1.094S23.343,18,25,18z
			 M12.444,18.79c0.225,0,0.404,0.181,0.404,0.405c0,0.224-0.181,0.405-0.404,0.405s-0.404-0.181-0.404-0.405
			C12.04,18.971,12.222,18.79,12.444,18.79z M12.444,31.21c-0.224,0-0.404-0.181-0.404-0.405c0-0.224,0.182-0.404,0.404-0.404
			c0.225,0,0.404,0.181,0.404,0.404C12.85,31.029,12.669,31.21,12.444,31.21z M18.25,30.939c-3.277,0-5.939-2.656-5.939-5.939
			s2.662-5.94,5.939-5.94s5.94,2.657,5.94,5.94S21.527,30.939,18.25,30.939z M25,32c-1.657,0-3-1.094-3-1.094s1.343-1.094,3-1.094
			s3,1.094,3,1.094S26.657,32,25,32z M31.75,30.939c-3.277,0-5.939-2.656-5.939-5.939s2.662-5.94,5.939-5.94s5.939,2.657,5.939,5.94
			S35.027,30.939,31.75,30.939z M37.556,31.21c-0.225,0-0.404-0.181-0.404-0.405c0-0.224,0.181-0.404,0.404-0.404
			s0.404,0.181,0.404,0.404C37.96,31.029,37.778,31.21,37.556,31.21z M37.556,19.6c-0.225,0-0.404-0.181-0.404-0.405
			c0-0.224,0.181-0.405,0.404-0.405s0.404,0.181,0.404,0.405C37.96,19.419,37.778,19.6,37.556,19.6z"/>
	</g>
</g>
</svg>
