<?xml version="1.0" encoding="utf-8"?>
<!-- Generator: Adobe Illustrator 16.0.4, SVG Export Plug-In . SVG Version: 6.00 Build 0)  -->
<!DOCTYPE svg PUBLIC "-//W3C//DTD SVG 1.1//EN" "http://www.w3.org/Graphics/SVG/1.1/DTD/svg11.dtd">
<svg version="1.1" id="Layer_1" xmlns="http://www.w3.org/2000/svg" xmlns:xlink="http://www.w3.org/1999/xlink" x="0px" y="0px"
	 width="50px" height="50px" viewBox="0 0 50 50" enable-background="new 0 0 50 50" xml:space="preserve">
<g>
	<path d="M34.717,29.195v-0.883v-5.3v-5.3c0-0.485-0.397-0.883-0.883-0.883H16.168c-0.486,0-0.885,0.396-0.885,0.883v5.3v5.3v0.883
		l-2.207,2.65c0,0.73,0.593,1.324,1.324,1.324H35.6c0.73,0,1.324-0.594,1.324-1.324L34.717,29.195z M26.768,32.729h-3.533
		c-0.122,0-0.221-0.098-0.221-0.221s0.099-0.221,0.221-0.221h3.533c0.122,0,0.221,0.098,0.221,0.221
		C26.987,32.631,26.89,32.729,26.768,32.729z M21.359,31.846l0.674-0.809h5.933l0.675,0.809H21.359z M33.474,27.633
		c0,0.426-0.347,0.771-0.771,0.771H17.297c-0.423,0-0.77-0.348-0.77-0.771v-9.24c0-0.426,0.347-0.771,0.77-0.771h15.406
		c0.424,0,0.771,0.347,0.771,0.771V27.633z"/>
	<path d="M22.9,27.031c0.021,0.012,0.041,0.023,0.062,0.035c-0.015-0.018-0.028-0.033-0.037-0.053
		C22.913,27.014,22.905,27.021,22.9,27.031z"/>
	<path d="M22.382,20.192c0.005,0,0.008,0,0.013,0c0.003-0.002,0.006-0.006,0.008-0.008C22.397,20.188,22.391,20.186,22.382,20.192z"
		/>
	<path d="M22.545,20.067c-0.008,0.006-0.017,0.011-0.024,0.017c0.002,0.001,0.003,0.001,0.004,0.001
		C22.533,20.08,22.54,20.073,22.545,20.067L22.545,20.067z"/>
	<path d="M22.431,20.155c0.002,0,0.007,0,0.01,0c0.026-0.021,0.05-0.045,0.077-0.063C22.484,20.11,22.441,20.145,22.431,20.155z"/>
	<path d="M22.371,20.201c-0.009,0.008-0.019,0.015-0.027,0.022c0.005-0.002,0.011-0.002,0.018-0.004
		c0.004-0.004,0.009-0.008,0.014-0.012C22.375,20.207,22.376,20.2,22.371,20.201z"/>
	<path d="M20.897,22.682c0.002,0,0.003,0.008,0.004,0.008c0.002-0.012,0.001-0.022,0.003-0.033
		C20.904,22.665,20.899,22.673,20.897,22.682z"/>
	<path d="M22.219,20.33c-0.01,0.009-0.016,0.021-0.026,0.028c0.041-0.037,0.085-0.068,0.126-0.104
		C22.285,20.276,22.25,20.302,22.219,20.33z"/>
	<path d="M20.905,22.655c0.113-0.59,0.354-1.156,0.705-1.646C21.266,21.493,21.02,22.049,20.905,22.655z"/>
	<polygon points="22.525,20.084 22.518,20.091 22.527,20.084 	"/>
	<path d="M21.615,21.002c-0.001,0.002-0.002,0.005-0.004,0.008c0.009-0.013,0.02-0.021,0.028-0.033
		C21.631,20.985,21.622,20.993,21.615,21.002z"/>
	<path d="M21.639,20.977c0.164-0.226,0.351-0.432,0.556-0.617C21.988,20.546,21.802,20.751,21.639,20.977z"/>
	<path d="M28.953,22.112c-0.009,0-0.011,0.009-0.013,0.017c0.026,0.079,0.062,0.154,0.084,0.235
		c-0.012-0.045-0.019-0.092-0.03-0.137C28.949,22.2,28.975,22.153,28.953,22.112z"/>
	<path d="M28.375,21.004c-0.071-0.1-0.145-0.197-0.225-0.29C28.23,20.807,28.305,20.905,28.375,21.004z"/>
	<path d="M28.83,21.815c-0.07-0.166-0.152-0.322-0.242-0.478C28.684,21.487,28.76,21.649,28.83,21.815z"/>
	<path d="M29.08,22.608c-0.018-0.082-0.035-0.164-0.056-0.244C29.045,22.444,29.062,22.526,29.08,22.608z"/>
	<path d="M28.76,21.94c0.041,0.082,0.139,0.125,0.168,0.203c0.01,0,0.011-0.009,0.013-0.016c-0.022-0.07-0.047-0.141-0.073-0.209
		C28.799,21.856,28.69,21.8,28.76,21.94z"/>
	<path d="M22.44,20.155c-0.012,0.01-0.024,0.021-0.037,0.029c0.029-0.018,0.052-0.024,0.094-0.029
		C22.48,20.147,22.458,20.153,22.44,20.155z"/>
	<path d="M23.389,19.93c0.002,0,0.01,0,0.013,0l0,0C23.396,19.93,23.393,19.93,23.389,19.93z"/>
	<path d="M28.699,22.832c-0.059-0.114-0.088-0.192-0.168-0.299c-0.059-0.079-0.141-0.142-0.164-0.242
		c-0.037-0.167-0.312-0.269-0.32-0.452c-0.002-0.027-0.07-0.156-0.064-0.162c0.018-0.014,0.012-0.082,0.014-0.103
		c0.004-0.069,0.02-0.123,0-0.192c-0.148,0.04-0.272-0.021-0.425-0.035c0.005-0.002,0.011-0.006,0.013-0.01
		c-0.043-0.039-0.074-0.068-0.127-0.098c0.059-0.059,0-0.033-0.008-0.071c-0.012-0.052,0.125-0.028,0.15-0.038
		c-0.003-0.006-0.02-0.016-0.02-0.021c-0.055-0.01-0.047,0.047-0.106,0.004c-0.046-0.032-0.054-0.014-0.097-0.004
		c0.006,0.014,0.008,0.021,0.006,0.035c0,0-0.073-0.053-0.066-0.014c0.045,0.043,0.068,0.085,0.121,0.128
		c-0.029,0.017-0.059-0.001-0.084-0.024c0.002,0.013,0.018,0.078,0.027,0.084c-0.062-0.006-0.098-0.035-0.072-0.088
		c-0.047-0.004-0.146-0.104-0.156-0.151c-0.015-0.085-0.132-0.099-0.143-0.152c-0.02-0.002-0.264-0.17-0.256-0.12
		c0.012,0.077,0.138,0.184,0.217,0.191c0.012,0.062,0.133,0.048,0.135,0.117c-0.115-0.029-0.07-0.04-0.057,0.044
		c-0.002-0.011-0.066,0.09-0.075,0.038c0.12,0.013-0.265-0.289-0.249-0.254c-0.085-0.09-0.1-0.123-0.212-0.064
		c-0.056,0.027-0.237-0.068-0.188,0.055c-0.004,0.008-0.256,0.116-0.146,0.164c-0.033,0.047-0.085,0.086-0.132,0.104
		c-0.057-0.021-0.159,0.058-0.191,0.007c-0.042-0.064-0.066-0.041-0.134-0.045c-0.068-0.006-0.009-0.232-0.009-0.264
		c0-0.043-0.037-0.102,0.053-0.094c0.076,0.006,0.148,0.024,0.225,0.03c0.086-0.012,0.118,0.021,0.112-0.099
		c-0.001,0.002-0.002,0.002-0.003,0.002c0.051-0.084-0.182-0.108-0.182-0.153c0-0.03,0.136-0.002,0.151-0.006
		c0-0.017-0.009-0.027-0.01-0.045c0.108,0.01,0.123-0.031,0.216-0.052c0.077-0.017,0.066-0.1,0.159-0.092
		c0.028,0.002,0.126,0.008,0.103-0.033c-0.056-0.094-0.055-0.094,0.045-0.133c0.004,0.028,0.02,0.039,0.025,0.051
		c-0.003,0-0.009,0.019-0.014,0.037c0.019,0.004,0.031,0.011,0.027,0.035c-0.002-0.018-0.021-0.011-0.033-0.016
		c-0.004,0.021-0.006,0.04-0.002,0.027c0.051,0.006,0.11,0.002,0.162,0.01c-0.008,0.059,0.184-0.008,0.229,0.009
		c-0.002,0.005-0.004,0.011-0.004,0.013c0.019,0,0.038,0.002,0.058,0.002c-0.016-0.104,0.172-0.145,0.172-0.117
		c0-0.024-0.082-0.055-0.06-0.066c0.071-0.037,0.155,0.02,0.231-0.011c-0.028-0.031-0.393-0.021-0.338-0.089
		c-0.031-0.01-0.027-0.03-0.041-0.051c0.012,0.002,0.162-0.053,0.16-0.059c-0.029-0.072-0.146-0.009-0.162,0.011
		c0.012,0.034-0.154,0.019-0.146,0.07c0.009,0.054,0.073,0.038,0.087,0.087c0.002,0.009-0.162,0.076-0.059,0.096
		c0.002,0.039-0.123,0.07-0.15,0.068c-0.023-0.004-0.074-0.1-0.086-0.118c-0.032-0.046-0.045-0.081-0.1-0.048
		c-0.018,0.011-0.172,0.051-0.178-0.006c-0.002-0.016,0.025,0.001,0.023-0.024c-0.021-0.002-0.021-0.002-0.04,0.001
		c0.005-0.009,0.013-0.016,0.022-0.021c-0.108-0.075,0.1-0.116,0.147-0.11c-0.017-0.003-0.022-0.005-0.036-0.008
		c0.031-0.001,0.273-0.1,0.281-0.125c-0.034,0.001-0.045,0.007-0.079,0.005c0.006-0.003,0.021-0.005,0.024-0.006
		c-0.006-0.001-0.021-0.003-0.021-0.003c0.004-0.014,0.112-0.004,0.114-0.004c-0.01-0.002-0.01-0.002-0.021-0.002
		c0.018-0.008,0.037-0.01,0.057-0.006c-0.008-0.004-0.006-0.004-0.014-0.006c0.051-0.017,0.112,0,0.165-0.008
		c-0.038-0.007,0.093-0.029,0.082,0.008c0.054,0.006,0.11,0.024,0.167,0.053c-0.646-0.411-1.412-0.65-2.234-0.65
		c-0.921,0-1.765,0.309-2.455,0.812c0.001,0.006,0,0.009-0.001,0.012c0.008,0,0.012,0.004,0.009,0.018
		c0.052-0.013,0.137,0.019,0.128,0.019c0.049-0.003,0.1-0.081,0.167-0.058c-0.004-0.002-0.061,0.033-0.065,0.045
		c-0.024,0.051,0.004,0.021,0.041,0.049c-0.018,0.004-0.052,0-0.068,0.013c0.003-0.002,0.009,0.011,0.009,0.011
		c-0.048,0.021-0.332,0.032-0.345,0.02c-0.002-0.002-0.014-0.002-0.024,0c-0.007,0.006-0.013,0.011-0.02,0.017
		c0.001,0.003,0.006,0.002,0.005,0.009c-0.004,0.002-0.012,0.002-0.019,0.004c-0.014,0.012-0.027,0.021-0.041,0.033
		c0.052-0.031,0.108-0.054,0.174-0.031c0.02,0.008,0.078,0.002,0.11-0.024c0.087,0.004,0.228,0.021,0.279,0.008
		c-0.008,0.005-0.012,0.008,0.01,0.005c0.036-0.027,0.093-0.021,0.108-0.042c-0.012,0.002-0.02,0.004-0.03,0.006
		c0.011-0.006,0.02-0.01,0.03-0.017c0.011-0.01-0.05-0.014-0.04-0.021c0.039-0.027,0.178-0.031,0.146-0.007
		c-0.015,0.005-0.029,0.011-0.044,0.015c0.003,0.008,0.034,0,0.045,0.006c-0.046,0.013,0.01,0.002-0.021,0.027
		c-0.006,0,0.116-0.029,0.092-0.01c-0.029-0.001-0.042,0.01-0.036,0.031c0.034,0.031,0.135-0.059,0.16-0.065
		c-0.001,0-0.207-0.002-0.182-0.022c0.029,0.014,0.054,0.011,0.074-0.006c-0.007-0.004-0.07-0.006-0.07-0.006
		c-0.014-0.027,0.077-0.037,0.092-0.045c-0.024,0.008-0.069,0.004-0.095,0.017c0.004,0,0.009,0,0.014-0.001
		c-0.021,0.014-0.043,0.02-0.068,0.018c0.074-0.051,0.111-0.051,0.211-0.055c-0.016,0.008-0.032,0.012-0.049,0.018
		c0.048-0.01,0.091-0.01,0.138-0.008c-0.018,0.004-0.099,0.025-0.073,0.025c-0.053,0.022,0.172-0.053,0.187-0.016
		c0.001,0.004-0.01,0.022-0.015,0.022c0.096,0,0.176,0.028,0.267,0.032c-0.001,0.002-0.001,0.004-0.003,0.007
		c0.011-0.003,0.021,0.001,0.029,0.01c-0.011,0.001-0.02,0-0.028,0.006c0.011-0.002,0.021-0.001,0.031,0.004
		c-0.013,0.005-0.018,0.005-0.028,0.011c0.008,0.004,0.119,0.041,0.118,0.045c-0.007,0.051-0.09,0.026-0.13,0.021
		c-0.005,0.011-0.012,0.002-0.018,0.017c0.022-0.002,0.031,0.026,0.061,0.022c-0.023,0.075-0.02,0.031-0.107,0.047
		c0-0.002,0.096,0.045,0.045,0.058c-0.064,0.014-0.141-0.033-0.18-0.053c-0.016-0.009-0.187,0.012-0.18,0.002
		c0.037-0.05,0.136-0.033,0.188-0.058c-0.041-0.015,0.108-0.04,0.058-0.076c-0.001,0.032-0.081,0.011-0.08,0.009
		c0.021-0.014,0.043-0.019,0.067-0.017c-0.013-0.006-0.072-0.009-0.073-0.007c0.01-0.004,0.02-0.006,0.03-0.008
		c-0.007-0.008-0.015-0.012-0.022-0.012c0.001,0,0.002-0.001,0.003-0.001c-0.025-0.014-0.12,0.011-0.1-0.005
		c-0.014,0-0.039,0.001-0.067,0.002c0.02,0.002,0.043,0.012,0.063,0.012c-0.038,0.032-0.115,0.069-0.195,0.092
		c0.017-0.002,0.01,0.005,0.012,0.011c-0.015,0-0.019-0.005-0.013-0.009c-0.014,0.003-0.027,0.007-0.041,0.011
		c0,0.004,0.001,0.006,0,0.01c0.013-0.005,0.069,0.002,0.075,0.019c0.001,0.004-0.007,0.009-0.004,0.011
		c0.012,0.008,0.038,0.003,0.041,0.011c-0.058,0.018-0.154,0.026-0.211,0.029c-0.014,0-0.003-0.006,0.006-0.014
		c-0.017-0.002-0.042,0.002-0.052,0.002c0.019-0.017,0.072-0.045,0.111-0.062c-0.044,0.006-0.086,0.006-0.12-0.005
		c-0.004,0.019,0.039,0.015,0.073,0.019c-0.048,0.041-0.171,0.055-0.245,0.049c0.006,0.002,0.013,0.006,0.018,0.01
		c-0.064,0.058-0.218,0.105-0.298,0.158c0.062-0.01,0.056,0.015,0.015,0.057c0.147-0.006,0.133,0.08,0.252,0.076
		c0.04,0.027-0.019,0.064-0.023,0.086c0.015-0.003,0.04-0.002,0.029,0.012c0.011,0.004,0.015,0.01,0.047,0.008
		c0.058-0.063-0.008-0.088,0.104-0.134c0.141-0.056,0.038-0.056,0.035-0.13c0.153-0.033,0.091-0.168,0.293-0.07
		c0.059,0.027,0.234,0.078,0.277-0.002c-0.027,0.047-0.009,0.053,0.014,0.062c-0.009-0.007-0.018-0.011-0.024-0.021
		c0.052-0.07,0.164,0.08,0.075,0.109c0.014,0.009,0.026,0.021,0.062,0.021l-0.001,0.002c-0.03,0.049,0.119,0.035,0.106,0.051
		c-0.021,0.021-0.118,0.029-0.157,0.041c0.003,0.021,0.174-0.023,0.19-0.028c0.052,0.177-0.473,0.158-0.581,0.245
		c0.013-0.001,0.277-0.062,0.256-0.023c-0.018,0.031-0.067,0.023-0.095,0.04c0.016,0,0.032,0.005,0.041,0.005
		c-0.094,0.115,0.117,0.103,0.107,0.123c-0.017,0.033-0.198,0.062-0.239,0.084c-0.067,0.035,0.003-0.078,0.093-0.082
		c-0.024,0.002-0.029-0.005-0.016-0.022c-0.067,0.003-0.179,0.08-0.233,0.067c-0.057-0.012-0.228,0.131-0.134,0.129
		c-0.058,0.021-0.144,0.017-0.208,0.045c0.013,0,0.049-0.01,0.058,0c-0.036,0.011-0.194,0.066-0.185,0.091
		c-0.028,0.017-0.039,0.108-0.095,0.108c0.003,0,0.022-0.08,0.024-0.086c-0.012,0.012-0.06,0.094-0.056,0.107
		c0.003,0,0.008,0,0.012,0c-0.007,0.02-0.022,0.033-0.044,0.039c0,0.012,0.007,0.015,0.014,0.017
		c-0.017,0.022-0.061,0.013-0.031,0.046c-0.038,0.029-0.087,0.035-0.126,0.062c0.001,0,0.001,0.002,0.002,0.003
		c-0.16,0.069-0.303,0.138-0.324,0.329c-0.005,0.048-0.062,0.262-0.134,0.253c-0.064-0.009,0.058-0.317,0.05-0.345
		c-0.001-0.002-0.18-0.031-0.171-0.049c-0.027,0.006-0.055,0-0.085,0.01c0.01,0.008,0.008,0.008,0.02,0.002
		c-0.019,0.029-0.042,0.047-0.034,0.063c-0.053,0.023-0.101-0.083-0.172-0.045c-0.105,0.058-0.183,0.106-0.244,0.214
		c-0.001,0-0.002,0-0.003,0c-0.016,0.036-0.328,0.555-0.184,0.586c0.196,0.043,0.205-0.234,0.418-0.195
		c-0.027,0.055-0.074,0.096-0.1,0.15c-0.017,0.036-0.033,0.055-0.051,0.075c-0.024,0.041-0.241,0.22-0.053,0.229
		c0.228,0.015,0.059,0.229,0.013,0.348c-0.04,0.104-0.124,0.443,0.072,0.359c0.094-0.041,0.096,0.103,0.11,0.154
		c-0.006,0.01-0.076,0.073-0.076,0.072c-0.004-0.031,0.031-0.143-0.012-0.157c-0.087-0.03-0.095,0.177-0.137,0.157
		c-0.084-0.033-0.043-0.355-0.106-0.376c-0.007,0.009-0.012,0.022-0.012,0.03c-0.005-0.002-0.01-0.004-0.016-0.006
		c-0.016-0.063,0.04-0.131,0.035-0.199c-0.004-0.061-0.014-0.111,0.003-0.174c-0.056-0.018-0.109-0.055-0.138-0.127
		c-0.011-0.027,0.002-0.162-0.026-0.168c-0.02-0.078-0.056,0.021-0.09,0.013c-0.039-0.011-0.052-0.122-0.082-0.136
		c-0.043,0.24-0.074,0.483-0.074,0.736c0,1.521,0.813,2.849,2.027,3.578c-0.024-0.035-0.005-0.074-0.024-0.115
		c-0.026-0.057-0.071-0.064-0.071-0.145c0-0.154-0.011-0.25-0.073-0.402c-0.067-0.09-0.057-0.281-0.074-0.393
		c-0.037-0.104-0.052-0.211-0.096-0.312c-0.048-0.111-0.183-0.188-0.302-0.203c-0.154-0.027-0.178-0.16-0.272-0.263
		c-0.079-0.084-0.159-0.182-0.222-0.272c-0.032-0.045-0.095-0.047-0.113-0.119c-0.017-0.068,0.048-0.096,0.047-0.156
		c-0.092-0.05-0.064-0.062-0.062-0.162c0.001-0.086,0.118-0.179,0.117-0.266c-0.024-0.008-0.031-0.021-0.021-0.04
		c-0.018-0.083-0.125-0.222-0.018-0.267c-0.021-0.113,0.119-0.191,0.204-0.229c0.019-0.01,0.04-0.068,0.064-0.034
		c0.013,0.015,0.011,0.026-0.007,0.041c0,0.028-0.017,0.16,0.045,0.157c0.026-0.002-0.076-0.143,0.064-0.152
		c-0.013-0.025-0.041-0.014-0.045-0.039c0.05-0.002,0.11,0.042,0.139,0.075c0.022,0.024,0.112,0.013,0.143,0.022
		c0.037,0.015,0.101-0.021,0.155-0.032c0.021,0.095,0.227,0.118,0.284,0.204c0.046,0.065,0.241,0.084,0.315,0.082
		c0.086-0.006,0.231,0.203,0.191,0.258c-0.061,0.08,0.026,0.181,0.104,0.172c0.077-0.008,0.006-0.146,0.157-0.084
		c0.057,0.023,0.078,0.021,0.093,0.086c0.07-0.006,0.16-0.033,0.242-0.01c0.081,0.023,0.13,0.074,0.217,0.093
		c0.185,0.04,0.008,0.38-0.035,0.462c-0.033,0.062,0.062,0.273,0.049,0.366c-0.041,0.159-0.064,0.215-0.203,0.303
		c-0.038,0.023-0.109,0.1-0.1,0.152c0.013,0.045,0.027,0.09,0.042,0.135c-0.026,0.031-0.038,0.064-0.038,0.104l0,0
		c-0.014,0.102-0.052,0.191-0.071,0.295c-0.013,0.068-0.227,0.102-0.235,0.078c0.041,0.107,0.191,0.062,0.12,0.223
		c-0.025,0.057-0.112,0.068-0.164,0.082c-0.062,0.014,0.003,0.084,0.001,0.117c0.028,0.066-0.07,0.033-0.11,0.045
		c-0.075,0.021,0.113,0.105,0.101,0.08c0.019,0.041-0.045,0.02-0.058,0.023c0.018,0.039,0.076,0.135,0.003,0.17
		c-0.112,0.068,0.085,0.107,0.104,0.162c0.482,0.193,1.008,0.303,1.56,0.303c1.578,0,2.951-0.877,3.66-2.169
		c0.008-0.044,0.023-0.068,0.045-0.086c0.299-0.574,0.468-1.226,0.468-1.918c0-0.205-0.04-0.398-0.068-0.596
		C28.94,22.887,28.804,23.037,28.699,22.832z M27.127,20.219c0,0.016-0.01,0.031-0.029,0.029c-0.014,0-0.018-0.01-0.02-0.016
		c0.012,0,0.02-0.004,0.031-0.004C27.076,20.203,27.117,20.214,27.127,20.219z M26.959,20.242c-0.01,0.011-0.019,0.022-0.027,0.034
		C26.912,20.258,26.949,20.241,26.959,20.242z M26.701,20.319c-0.027,0.002-0.027,0.035-0.056,0.029
		c0.011-0.002,0.021-0.007,0.021-0.013C26.594,20.321,26.664,20.256,26.701,20.319z M26.289,19.813L26.289,19.813L26.289,19.813
		L26.289,19.813z M26.358,19.798c-0.004,0.001-0.008,0.002-0.01,0.003c0.009,0.004,0.019,0.004,0.024,0.006
		c-0.02-0.004,0.043,0.004,0.049,0.006c-0.041-0.035,0.043-0.013,0.045-0.012c0,0.004-0.004,0.004-0.002,0.008
		c0.019-0.004,0.043,0,0.068,0.004c-0.004-0.002-0.008-0.004-0.01-0.008c0.016,0.002,0.031,0,0.047,0
		c-0.004,0-0.047-0.003-0.049-0.003c-0.008,0-0.045,0.003-0.051-0.011c0.012,0,0.023,0,0.033,0.002c0-0.001,0-0.002,0-0.002
		c0.006,0,0.012,0,0.018,0c-0.002-0.001-0.004-0.002-0.006-0.003c0.07,0.001,0.178-0.015,0.242,0.019
		c-0.023,0.004-0.131,0.021-0.192,0.014c0.009,0.005,0.019,0.008,0.026,0.011c-0.004,0.001-0.008,0-0.012,0
		c0.032,0.004,0.073,0.01,0.105,0.024c-0.031,0.002-0.042,0.01-0.07,0.012c-0.003-0.004-0.003-0.006,0-0.008
		c-0.014-0.002-0.037-0.004-0.051-0.004c0-0.008,0.014-0.006,0.014-0.012c-0.007,0-0.016-0.006-0.021-0.01
		c-0.046,0.01-0.181,0.059-0.185,0.009c0.023,0,0.043,0.002,0.065,0.001c-0.008-0.002-0.077,0-0.077-0.01
		c0,0,0.039-0.006,0.061-0.009c-0.026,0.001-0.076,0.006-0.09-0.005c0.002,0,0.004,0,0.008,0c-0.016-0.002-0.028-0.006-0.024-0.012
		c-0.01,0-0.019-0.004-0.028-0.009C26.312,19.794,26.334,19.793,26.358,19.798z M22.535,20.204c0.008-0.006,0.033-0.006,0.066-0.006
		C22.583,20.201,22.526,20.21,22.535,20.204z M22.972,20.375c0.003-0.004,0.006-0.007,0.009-0.01
		c0.025-0.012,0.049-0.025,0.077-0.018C23.039,20.358,22.993,20.374,22.972,20.375z M22.24,22.549
		c-0.003,0.026-0.019,0.039-0.048,0.037C22.163,22.579,22.232,22.555,22.24,22.549z M22.149,22.092
		c0.012,0.002,0.012,0.014,0.012,0.021c-0.019,0.001-0.035-0.004-0.044-0.006C22.125,22.1,22.142,22.092,22.149,22.092z
		 M22.085,22.229c0.006-0.01,0.014,0.03,0.009,0.039C22.075,22.311,22.083,22.235,22.085,22.229z M21.7,22.522
		c0.005-0.016,0.014-0.023,0.028-0.027c0.007-0.016,0.006-0.029,0.017-0.018C21.713,22.565,21.708,22.504,21.7,22.522z
		 M21.859,22.869c0.021,0.005,0.04,0.028,0.048,0.036c0-0.002,0-0.004-0.001-0.008c0.009,0.01,0.009,0.02,0.006,0.031
		C21.792,22.934,21.844,22.866,21.859,22.869z M21.914,22.702c0.036-0.085,0.009-0.221-0.118-0.236
		c-0.033-0.111-0.045,0.029-0.146,0.016c0.103-0.131,0.181-0.151,0.294-0.041c0.036,0.035,0.119,0.154,0.115,0.187
		c0.056,0.019,0.015,0.049,0.042,0.086C22.041,22.792,21.978,22.711,21.914,22.702z M22.257,22.94
		c-0.004-0.041-0.066,0.055-0.08,0.051c-0.001,0-0.091-0.163-0.129-0.059c-0.099-0.058,0.095-0.074,0.106-0.068
		c0.001-0.02,0.004-0.205,0.051-0.133c0.021,0.035,0.055,0.008,0.085,0.013c0.063,0.01,0.056,0.073,0.079,0.116
		c0.007,0.026,0.024,0.086,0.024,0.082C22.389,22.942,22.257,22.942,22.257,22.94z M22.459,22.997
		c0.014-0.045,0.085,0.016,0.086,0.037C22.523,23.065,22.444,23.042,22.459,22.997z M27.979,21.446
		c0.001,0.023-0.083,0.074-0.095,0.022C27.908,21.459,27.951,21.446,27.979,21.446z M27.562,21.43
		c-0.029,0.014-0.093-0.009-0.117-0.021C27.483,21.405,27.529,21.418,27.562,21.43z M26.965,21.206
		c-0.002,0.016-0.004,0.076-0.006,0.076c-0.023-0.002-0.133-0.062-0.135-0.084C26.842,21.19,26.941,21.2,26.965,21.206z
		 M26.631,20.917c0.002,0.008,0.004,0.016,0.01,0.018c-0.003,0.019-0.004,0.053-0.01,0.062c-0.019-0.004-0.028-0.052-0.039-0.063
		C26.606,20.93,26.619,20.926,26.631,20.917z M26.612,21.059c-0.001-0.014-0.019-0.022-0.021-0.037
		C26.729,21.001,26.631,21.206,26.612,21.059z M26.342,21.069c0.002,0.021-0.038-0.008-0.039-0.01
		C26.324,21.043,26.336,21.046,26.342,21.069z M25.979,20.151c-0.012,0.009-0.025,0.016-0.04,0.021
		c0.017,0.031,0.049,0.037,0.099,0.015c0.006,0.026-0.05,0.049-0.056,0.063c0.063,0.017,0.163,0.082,0.166,0.146
		c0.011-0.002,0.013-0.004,0.021-0.006c0.037-0.018,0.037,0.023-0.002,0.068c0.01,0.002,0.022,0.004,0.033,0.008
		c0.002,0.014-0.285,0.038-0.318,0.036c0.021-0.034,0.113-0.049,0.113-0.067c-0.013,0.012-0.103-0.004-0.103-0.011
		c0-0.021,0.032-0.026,0.032-0.065c0.027,0.002,0.074,0.002,0.074-0.032c-0.025,0-0.047-0.005-0.027-0.028
		c-0.01-0.001-0.079,0.008-0.078-0.01c0-0.037,0.044-0.02-0.012-0.047c-0.008,0.007-0.002,0.011,0,0.015c-0.004,0-0.008,0-0.012,0
		c0-0.039-0.007-0.03-0.006-0.062c-0.023-0.006-0.035-0.01-0.035-0.021c0.002,0,0.043,0.012,0.043,0.006
		C25.842,20.168,25.98,20.098,25.979,20.151z M25.904,20.326c0-0.005,0.001-0.011,0.012-0.013c0.002,0,0.006,0,0.008,0
		c0,0.004,0,0.008,0,0.014C25.92,20.327,25.914,20.327,25.904,20.326z M25.846,20.145c-0.002,0.01-0.014,0.021-0.031,0.021
		C25.781,20.163,25.842,20.145,25.846,20.145z M25.676,20.315c0-0.021,0.055-0.015,0.066-0.021c-0.031-0.034,0.053-0.03,0.068-0.028
		c0.096,0.006,0.023,0.049,0.023,0.061c-0.002,0.078-0.055,0.104-0.14,0.097c-0.089-0.007,0.004-0.062,0.011-0.084
		C25.695,20.331,25.686,20.323,25.676,20.315z M23.276,19.903c-0.003,0.002-0.007,0.006-0.011,0.008
		c0.016,0-0.036,0.002-0.022-0.006C23.256,19.905,23.271,19.905,23.276,19.903z M23.237,19.942
		c-0.026-0.021,0.078-0.027,0.054,0.002C23.268,19.944,23.188,19.949,23.237,19.942z M23.33,19.948
		c-0.009,0.006-0.018,0.008-0.029,0.008c-0.005,0-0.057-0.002-0.057-0.002C23.271,19.948,23.3,19.95,23.33,19.948z M23.041,19.936
		c0.003,0,0.009-0.002,0.013-0.004c-0.014,0-0.015,0-0.007-0.005c0.028-0.003,0.111-0.012,0.132,0.009
		c-0.004,0-0.01,0.002-0.014,0.004c0.009,0.009-0.023,0.014-0.059,0.015c-0.009,0.002-0.019,0.002-0.031,0.003
		c0.006-0.001,0.014-0.002,0.022-0.003c-0.03,0-0.061-0.004-0.067-0.011c0.016,0.002,0.031-0.002,0.043-0.01
		C23.051,19.936,23.043,19.938,23.041,19.936z M23.003,19.969c-0.006,0.002-0.015,0.004-0.021,0.006
		c-0.011,0-0.016-0.01-0.008-0.015C23,19.959,22.988,19.967,23.003,19.969z M22.832,19.958c0.021-0.001,0.039-0.004,0.056-0.004
		c-0.005,0-0.01,0.001-0.014,0.001c0.002,0.001,0.004,0.003,0.005,0.006c-0.056,0.006-0.063,0.007-0.021,0.005
		c-0.012,0.008-0.049,0.014-0.069,0.014C22.765,19.979,22.799,19.965,22.832,19.958z M22.734,19.99
		c-0.009,0.005-0.019,0.009-0.029,0.007c-0.004,0-0.009-0.002-0.002-0.005C22.713,19.991,22.724,19.991,22.734,19.99z M22.69,19.979
		c0.013,0.004,0.008,0.008-0.016,0.011c-0.009,0.014-0.023,0.019-0.042,0.016C22.647,19.985,22.667,19.977,22.69,19.979z
		 M22.66,20.032V20.03c-0.006,0-0.015,0.004-0.019,0.006c-0.02,0.004-0.039,0.006-0.058,0.004c0.009-0.014,0.021-0.02,0.035-0.018
		c-0.003-0.002-0.005-0.002-0.007-0.002c0.01-0.008,0.018-0.008,0.03-0.006c-0.002-0.002-0.004-0.003-0.006-0.003
		c0.01-0.004,0.019-0.006,0.029-0.006c-0.003,0-0.004-0.002,0-0.004c0.047-0.005,0.097,0.028,0.148,0.009
		c-0.01,0.002-0.014,0-0.017-0.001c0.009,0,0.016-0.002,0.021-0.007c-0.041-0.001,0.047-0.018,0.056-0.018
		c-0.047,0.022,0.05,0.017,0.042,0.021C22.843,20.048,22.733,20.016,22.66,20.032z M22.942,20.01
		c-0.004,0.012-0.013,0.016-0.027,0.014c-0.009,0-0.01,0-0.019,0C22.913,20.016,22.925,20.014,22.942,20.01z M22.86,20.167
		c-0.026,0.006,0.104-0.041,0.083,0.006C22.924,20.178,22.792,20.178,22.86,20.167z M23.008,20.067
		c0.014-0.002,0.051-0.014,0.024,0.006c0.004,0.001,0.016,0.002,0.021,0.002c-0.039,0.023-0.135,0.057-0.172,0.006
		c0.027-0.018,0.053,0.002,0.083-0.018c-0.078-0.002,0.095-0.011,0.102-0.015C23.047,20.057,23.028,20.063,23.008,20.067z
		 M23.025,20.016c0.014-0.01,0.042-0.012,0.055-0.016c-0.012-0.005-0.03-0.004-0.049-0.003c0,0.001,0.001,0.001,0.001,0.001
		s-0.001,0-0.002-0.001c-0.021,0.002-0.042,0.005-0.057,0.006c0.001-0.002,0.002-0.003,0.004-0.005
		c-0.012,0.002-0.014,0-0.018-0.002l0.012-0.008c0,0,0,0,0,0.001c0-0.013,0.046,0.005,0.059,0.008h0.001
		c-0.003-0.002-0.006-0.004-0.007-0.005c0.02-0.014,0.039,0.006,0.062-0.008c-0.017,0-0.03,0.002-0.025-0.004
		c0.008-0.002,0.093,0,0.093,0C23.154,20.036,23.047,20.002,23.025,20.016z M23.141,20.012c0.006-0.003,0.021-0.006,0.023-0.006
		c0.021-0.012,0.043-0.014,0.066-0.007C23.26,20.016,23.142,20.012,23.141,20.012z M23.365,20.009
		c-0.019,0.001-0.145-0.001-0.078-0.014c-0.004-0.021-0.017-0.024-0.037-0.013c-0.018,0-0.035-0.004-0.051-0.012
		c0.016-0.01,0.175-0.008,0.181,0.008c-0.014,0.002-0.027,0.002-0.041,0.002c-0.01,0.011,0.025,0.004,0.033,0.008
		c-0.021,0.006,0.289-0.021,0.292-0.002c-0.007,0-0.014,0.002-0.02,0.006c0.007,0,0.014,0,0.014,0
		C23.58,20.041,23.434,19.971,23.365,20.009z M23.601,20.047c-0.003,0-0.043-0.009-0.033-0.018c0.032-0.023,0.108-0.002,0.142,0.006
		C23.683,20.048,23.627,20.046,23.601,20.047z M23.775,19.936c-0.066,0.064-0.222,0.008-0.32,0.019
		c0.02-0.006,0.04-0.009,0.061-0.011c-0.055-0.023,0.069-0.01,0.086-0.012c-0.026-0.021-0.073-0.017-0.1-0.01
		c0,0.002,0.003,0.003,0.002,0.006c-0.021,0-0.076-0.003-0.103,0.002c-0.004,0-0.009,0.002-0.017,0.002
		c0.001,0,0.003-0.002,0.004-0.002c-0.006,0-0.013-0.002-0.017-0.008c0.029-0.006,0.058-0.009,0.087-0.009
		c-0.013-0.001-0.056-0.005-0.083-0.005c0.002,0,0.005,0,0.008-0.002c-0.033,0.002-0.052,0.002-0.038-0.008
		c0.017-0.002,0.035-0.002,0.051-0.002c-0.011,0.002-0.021,0-0.03-0.006c0.011-0.007,0.027-0.005,0.042-0.005
		c-0.002-0.001-0.005-0.002-0.007-0.004c0.019-0.003,0.039-0.004,0.058-0.005c-0.008-0.001-0.024-0.001-0.018-0.005
		c0.033,0,0.1,0.028,0.123,0.017c0.02,0,0.02,0.002,0.003,0.012c0.033-0.02,0.042,0.022,0.096-0.015
		c0.003-0.002-0.025-0.012-0.036-0.014c0.026,0,0.032-0.002,0.017-0.007c-0.027,0-0.048-0.004-0.052-0.01
		c0.01-0.002,0.021-0.004,0.03-0.004c-0.014,0-0.029,0-0.043,0c0.024-0.008,0.046-0.008,0.073-0.01
		c-0.025-0.002-0.05,0.008-0.076,0.004c0.015-0.003,0.022-0.004,0.035-0.006c-0.022,0.002-0.044,0.004-0.066,0.004
		c0.121-0.045,0.462-0.074,0.583-0.031c-0.063,0.016,0.103-0.01,0.096,0.006c-0.005,0.011-0.104,0.011-0.112,0.013
		c0.005,0.002,0.033-0.001,0.049-0.001c-0.087,0.023-0.182,0.021-0.27,0.044c0.008,0,0.016,0,0.023,0
		c-0.005,0.006-0.014,0.006-0.03,0.006c0.008,0.002,0.017,0.002,0.018,0.007c-0.041,0.008-0.062,0.018-0.102,0.021
		c-0.008,0.02-0.044,0.012-0.06,0.025C23.751,19.934,23.779,19.932,23.775,19.936z M23.647,20.827
		c-0.033,0.023-0.079-0.01-0.104-0.029C23.601,20.79,23.621,20.813,23.647,20.827z M23.472,20.944
		c0.002-0.006,0.008-0.008,0.012-0.01c0.02,0.024,0.046,0.032,0.079,0.022C23.542,21,23.464,20.956,23.472,20.944z M23.594,20.983
		c0.018-0.021,0.039-0.035,0.064-0.045c0,0.006,0.008,0.008,0.006,0.014c-0.007,0.015-0.037,0.021,0.004,0.021
		C23.657,20.999,23.585,21.001,23.594,20.983z M23.819,20.926c0.001-0.001-0.085,0.045-0.081,0.035
		c0.008-0.01,0.018-0.018,0.03-0.021c-0.021,0-0.212-0.015-0.211-0.016c0.009-0.02,0.039-0.014,0.048-0.033
		c-0.005,0-0.011-0.002-0.011-0.006c0.076-0.023,0.134-0.137,0.214-0.137c0.025,0-0.073,0.08-0.075,0.084
		c0.019-0.012,0.037-0.014,0.057-0.004c-0.01,0.002-0.016,0.009-0.017,0.018c0.011,0,0.021,0,0.033,0
		c0,0.002-0.003,0.008-0.003,0.008c0.009-0.002,0.017-0.004,0.024-0.006c0.019,0.004,0.042,0.004,0.054,0
		c-0.005,0.012-0.012,0.023-0.02,0.043c0.004-0.002,0.015-0.004,0.022-0.004c-0.015,0.029-0.011,0.014-0.022,0.043
		c0.019,0,0.014-0.003,0.028-0.009C23.852,21.018,23.855,20.963,23.819,20.926z M24.883,20.057c-0.017,0.051-0.079-0.031-0.089,0
		c0.015,0.008,0.1,0.021,0.09,0.057c-0.006,0.021-0.109-0.016-0.123-0.021c-0.005,0.017,0.012,0.017-0.019,0.019
		c-0.005,0.017,0.09,0.016,0.111,0.019c-0.089,0.031-0.188,0.048-0.282,0.046c-0.061,0.018-0.097,0.059-0.167,0.057
		c0.001-0.004,0.002-0.008,0.003-0.01c-0.065,0.012-0.142,0.143-0.176,0.141c-0.022-0.002-0.181-0.074-0.123-0.105
		c-0.012-0.015-0.058-0.021-0.031-0.057c-0.004-0.002-0.009-0.002-0.014,0c0.01-0.034,0.066-0.041,0.087-0.066
		c-0.02-0.004-0.068-0.006-0.066-0.019c0.019-0.005,0.046,0.02,0.059-0.001c-0.006,0-0.052-0.027-0.069-0.025
		c0.02-0.01,0.021-0.018,0.001-0.021c0.028-0.071-0.124-0.071-0.165-0.062c0.001,0.001,0.003,0.002,0.004,0.003
		c-0.013,0.004-0.026,0.001-0.04-0.006c0.006-0.002,0.01-0.003,0.013-0.006c-0.012-0.006-0.024-0.008-0.038-0.004
		c0.016-0.023,0.067,0,0.086-0.021c-0.009,0-0.101,0.008-0.095-0.006c0.018-0.037,0.114-0.001,0.136-0.043
		c-0.013,0.002-0.026,0-0.039-0.004c0.022-0.044,0.233-0.053,0.264-0.055c0.008-0.016,0.031-0.012,0.048-0.006
		c-0.001-0.002-0.003-0.004-0.002-0.006c0.01-0.017,0.094,0,0.112,0c-0.013,0-0.024-0.002-0.035-0.011
		c0.01-0.004,0.021-0.006,0.032-0.006c-0.003-0.002-0.009-0.002-0.011-0.004c0.208-0.048,0.44-0.035,0.654-0.031
		c-0.015,0.015-0.04,0.021-0.068,0.026c0.023-0.003,0.041-0.004,0.04-0.001c-0.002,0.002-0.085,0.028-0.09,0.032
		c0.023-0.004,0.428-0.053,0.424-0.047c-0.012,0.021-0.098,0.025-0.143,0.027c-0.012,0.021-0.176,0.059-0.205,0.074
		c0.025-0.004,0.051-0.002,0.076,0.005c-0.006,0.001-0.015,0.003-0.021,0.003c0.016,0.002,0.03,0.008,0.043,0.014
		c-0.012,0.028-0.097-0.011-0.109,0.019c-0.003,0.006,0.051,0.002,0.042,0.024c-0.008,0.021-0.036,0-0.042,0.018
		c0.013,0.009,0.027,0.011,0.042,0.009c-0.01,0.009-0.034,0.015-0.056,0.015c-0.001,0.004,0.003,0.006,0.009,0.008
		c-0.028,0.033-0.08,0.008-0.112,0.009C24.85,20.04,24.867,20.047,24.883,20.057z M24.937,20.149c0.017,0,0.047,0,0.062-0.002
		c0.002,0.002-0.048-0.021-0.045-0.027c0.016-0.002,0.042-0.01,0.059-0.01c-0.016,0.037,0.021,0.022,0.034,0.018
		c0.012,0.018,0.034,0.002,0.051,0.012c0.002-0.015,0.129,0,0.145,0c-0.034,0.01,0.016,0.033,0.007,0.049
		c-0.122,0.054-0.186,0.004-0.3-0.006c0.004-0.002,0.009-0.004,0.012-0.004c0.006-0.01,0.013-0.014,0.021-0.021
		C24.965,20.151,24.941,20.158,24.937,20.149z M28.362,24.299c-0.014,0.062-0.071,0.1-0.071,0.168
		c-0.002,0.07,0.016,0.139,0.015,0.208c-0.001,0.073,0.101,0.151,0.069,0.218c-0.086,0.183,0.076,0.366-0.135,0.498
		c-0.074,0.045-0.17,0.086-0.186,0.183c-0.135,0.027-0.01,0.188-0.014,0.256c-0.004,0.152-0.035,0.121-0.131,0.199
		c-0.101,0.086-0.004,0.16-0.09,0.262c-0.078,0.094-0.121,0.207-0.193,0.307c-0.031,0.041-0.183,0.096-0.188,0.129
		c-0.082,0.008-0.149-0.012-0.229,0.031c-0.076,0.039-0.162-0.016-0.188,0.002c0.003-0.27-0.21-0.471-0.241-0.75
		c-0.014-0.129-0.018-0.18-0.076-0.297c-0.062-0.123-0.115-0.261-0.091-0.402c0.019-0.101,0.101-0.168,0.122-0.267
		c0.023-0.099-0.021-0.246-0.047-0.34c-0.027-0.103-0.035-0.226-0.1-0.31c-0.065-0.082-0.182-0.193-0.139-0.312
		c0.066-0.183,0.098-0.371-0.166-0.366c-0.082,0.001-0.072-0.158-0.166-0.156c-0.129,0.002-0.236,0.151-0.343,0.154
		c-0.045,0.001-0.081-0.04-0.126-0.038c-0.057,0.001-0.096,0.032-0.146,0.05c-0.109,0.037-0.19-0.07-0.259-0.141
		c-0.091-0.093-0.109-0.219-0.195-0.312c-0.048-0.053-0.095-0.107-0.133-0.17c0.002,0,0.004,0,0.006,0
		c0.001-0.074-0.046-0.146-0.009-0.203c0.038-0.059,0.063-0.139,0.066-0.209c0.004-0.101-0.066-0.244-0.014-0.336
		c0.039-0.068,0.066-0.139,0.099-0.211c0.041-0.09,0.081-0.203,0.18-0.238c0.055-0.021,0.12-0.076,0.138-0.133
		c0.02-0.062,0.006-0.133,0.045-0.188c0.057-0.079,0.125-0.146,0.183-0.227c-0.001,0-0.002,0-0.004,0
		c0.065-0.088,0.169,0.012,0.286-0.058c0.094-0.053,0.21-0.11,0.32-0.116c0.072-0.002,0.14,0,0.215-0.002
		c0.035-0.002,0.08-0.066,0.113-0.018c0.018,0.023,0.037,0.025,0.058,0.005c-0.004,0.063-0.031,0.119-0.032,0.19
		c-0.001,0.128,0.122,0.086,0.195,0.109c0.068,0.022,0.333,0.312,0.328,0.09c-0.004-0.191,0.279-0.027,0.35-0.002
		c0.1,0.035,0.176,0.049,0.275,0.012c0.074-0.027,0.141,0.021,0.218,0c0.045,0.113,0.042,0.144,0.015,0.26
		c-0.044-0.006-0.086-0.115-0.123-0.156c0.006,0.121,0.121,0.266,0.178,0.371c0.037,0.072,0.045,0.146,0.086,0.215
		c0.048,0.081,0.027,0.193,0.084,0.26c0.062,0.068,0.086,0.104,0.106,0.197c0.027,0.127,0.229,0.208,0.257,0.326
		c0.039,0.171,0.094,0.129,0.234,0.104c0.08-0.016,0.154-0.058,0.229-0.082c0.082,0.195-0.135,0.576-0.244,0.738
		C28.623,23.99,28.416,24.057,28.362,24.299z"/>
	<path d="M22.841,20.712L22.841,20.712c-0.007-0.003-0.026-0.002-0.028-0.005C22.822,20.711,22.833,20.713,22.841,20.712z"/>
	<path d="M29.08,22.608c0.014,0.072,0.015,0.148,0.024,0.224c0.008-0.003,0.015-0.008,0.022-0.011
		C29.117,22.749,29.094,22.68,29.08,22.608z"/>
	<path d="M27.627,20.186c0.192,0.156,0.36,0.34,0.523,0.528c-0.104-0.12-0.209-0.237-0.324-0.345
		C27.77,20.317,27.701,20.252,27.627,20.186z"/>
	<path d="M28.83,21.815c0.014,0.033,0.022,0.069,0.037,0.104c0.01,0.012,0.024,0.021,0.031,0.032
		C28.879,21.903,28.85,21.862,28.83,21.815z"/>
	<path d="M28.574,21.286c-0.059-0.098-0.131-0.188-0.197-0.281c0.076,0.107,0.144,0.221,0.211,0.334
		c-0.01-0.016-0.016-0.033-0.025-0.05C28.564,21.287,28.569,21.286,28.574,21.286z"/>
</g>
</svg>
