<?xml version="1.0" encoding="utf-8"?>
<!-- Generator: Adobe Illustrator 16.0.4, SVG Export Plug-In . SVG Version: 6.00 Build 0)  -->
<!DOCTYPE svg PUBLIC "-//W3C//DTD SVG 1.1//EN" "http://www.w3.org/Graphics/SVG/1.1/DTD/svg11.dtd">
<svg version="1.1" id="Layer_1" xmlns="http://www.w3.org/2000/svg" xmlns:xlink="http://www.w3.org/1999/xlink" x="0px" y="0px"
	 width="50px" height="50px" viewBox="0 0 50 50" enable-background="new 0 0 50 50" xml:space="preserve">
<g>
	<circle cx="12.076" cy="27.604" r="1.226"/>
	<path d="M14.671,28.947l-0.288-5.314C14.35,22.96,13.771,22,13.098,22h-2.043c-0.675,0-1.253,0.96-1.285,1.633L9.48,28.947
		c-0.032,0.674,0.49,1.225,1.166,1.225h2.858C14.182,30.172,14.704,29.621,14.671,28.947z M12.076,22.817
		c0.676,0,1.225,0.55,1.225,1.226c0,0.679-0.549,1.228-1.225,1.228c-0.678,0-1.227-0.55-1.227-1.228
		C10.852,23.367,11.398,22.817,12.076,22.817z M12.076,29.441c-1.018,0-1.84-0.822-1.84-1.838s0.822-1.838,1.84-1.838
		c1.016,0,1.838,0.822,1.838,1.838S13.092,29.441,12.076,29.441z"/>
	<circle cx="12.076" cy="24.043" r="0.611"/>
	<circle cx="37.925" cy="27.604" r="1.226"/>
	<path d="M40.23,23.633C40.198,22.96,39.62,22,38.945,22h-2.043c-0.674,0-1.252,0.96-1.285,1.633l-0.288,5.314
		c-0.033,0.674,0.489,1.225,1.166,1.225h2.858c0.676,0,1.198-0.551,1.166-1.225L40.23,23.633z M37.925,22.817
		c0.677,0,1.226,0.55,1.226,1.226c0,0.679-0.549,1.228-1.226,1.228s-1.226-0.55-1.226-1.228
		C36.699,23.367,37.248,22.817,37.925,22.817z M37.925,29.441c-1.017,0-1.839-0.822-1.839-1.838s0.822-1.838,1.839-1.838
		s1.839,0.822,1.839,1.838S38.939,29.441,37.925,29.441z"/>
	<circle cx="37.925" cy="24.043" r="0.611"/>
	<path d="M34.717,28.312v-5.3v-5.3c0-0.485-0.398-0.883-0.884-0.883H16.168c-0.486,0-0.885,0.396-0.885,0.883v5.3v5.3v0.883
		l-2.207,2.65c0,0.73,0.593,1.324,1.324,1.324H35.6c0.731,0,1.324-0.594,1.324-1.324l-2.207-2.65V28.312L34.717,28.312z
		 M26.768,32.729h-3.533c-0.123,0-0.221-0.098-0.221-0.221s0.098-0.221,0.221-0.221h3.533c0.121,0,0.221,0.098,0.221,0.221
		C26.986,32.631,26.889,32.729,26.768,32.729z M21.359,31.846l0.674-0.809h5.934l0.674,0.809H21.359z M33.473,27.633
		c0,0.426-0.347,0.771-0.77,0.771H17.297c-0.423,0-0.77-0.348-0.77-0.771v-9.24c0-0.426,0.347-0.771,0.77-0.771h15.406
		c0.423,0,0.77,0.347,0.77,0.771V27.633z"/>
</g>
</svg>
