<?xml version="1.0" encoding="utf-8"?>
<!-- Generator: Adobe Illustrator 16.0.4, SVG Export Plug-In . SVG Version: 6.00 Build 0)  -->
<!DOCTYPE svg PUBLIC "-//W3C//DTD SVG 1.1//EN" "http://www.w3.org/Graphics/SVG/1.1/DTD/svg11.dtd">
<svg version="1.1" id="Layer_1" xmlns="http://www.w3.org/2000/svg" xmlns:xlink="http://www.w3.org/1999/xlink" x="0px" y="0px"
	 width="50px" height="50px" viewBox="0 0 50 50" enable-background="new 0 0 50 50" xml:space="preserve">
<g>
	<g>
		<circle cx="28.558" cy="25.767" r="0.477"/>
	</g>
	<g>
		<circle cx="27.287" cy="25.767" r="0.477"/>
	</g>
	<g>
		<circle cx="29.828" cy="25.767" r="0.477"/>
	</g>
	<g>
		<path d="M35.488,30.464C36.452,28.691,37,26.66,37,24.5C37,17.596,31.404,12,24.5,12S12,17.596,12,24.5
			C12,31.404,17.596,37,24.5,37c2.16,0,4.191-0.548,5.965-1.512L38,38L35.488,30.464z M31.007,17.164
			c0.487,0.441,0.768,1.069,0.768,1.727c0,0.656-0.279,1.286-0.768,1.726l-0.211-0.233c0.422-0.381,0.663-0.925,0.663-1.493
			s-0.242-1.112-0.663-1.493L31.007,17.164z M30.61,17.603c0.362,0.328,0.57,0.798,0.57,1.288c0,0.49-0.208,0.958-0.57,1.288
			l-0.212-0.234c0.298-0.269,0.469-0.652,0.469-1.053c0-0.4-0.171-0.785-0.469-1.053L30.61,17.603z M29.977,18.305l0.211-0.234
			c0.231,0.209,0.363,0.507,0.363,0.819c0,0.311-0.132,0.61-0.363,0.818l-0.211-0.234C30.307,19.177,30.307,18.603,29.977,18.305z
			 M28.608,18.305c-0.331,0.298-0.331,0.872,0,1.17l-0.214,0.234c-0.229-0.208-0.362-0.507-0.362-0.818
			c0-0.312,0.133-0.61,0.362-0.819L28.608,18.305z M28.186,17.837c-0.298,0.268-0.468,0.653-0.468,1.053
			c0,0.401,0.17,0.784,0.468,1.053l-0.212,0.234c-0.362-0.329-0.571-0.798-0.571-1.288c0-0.49,0.209-0.959,0.571-1.288
			L28.186,17.837z M27.577,17.164l0.212,0.234c-0.422,0.381-0.664,0.925-0.664,1.493c0,0.567,0.242,1.111,0.663,1.493l-0.211,0.233
			c-0.488-0.44-0.769-1.069-0.769-1.726C26.81,18.233,27.089,17.604,27.577,17.164z M33.051,27.135c0,0.188-0.152,0.342-0.342,0.342
			h-1.005v0.514h-2.052v-0.514H19.369v0.514h-2.052v-0.514h-1.026c-0.188,0-0.342-0.153-0.342-0.342v-2.736
			c0-0.188,0.152-0.342,0.342-0.342h12.521l0.224-5.13c0-0.142,0.115-0.257,0.258-0.257c0.141,0,0.256,0.115,0.256,0.257l0.225,5.13
			h2.937c0.188,0,0.342,0.154,0.342,0.342L33.051,27.135L33.051,27.135z"/>
	</g>
	<g>
		<circle cx="31.1" cy="25.767" r="0.477"/>
	</g>
</g>
</svg>
