<?xml version="1.0" encoding="utf-8"?>
<!-- Generator: Adobe Illustrator 16.0.4, SVG Export Plug-In . SVG Version: 6.00 Build 0)  -->
<!DOCTYPE svg PUBLIC "-//W3C//DTD SVG 1.1//EN" "http://www.w3.org/Graphics/SVG/1.1/DTD/svg11.dtd">
<svg version="1.1" id="Layer_1" xmlns="http://www.w3.org/2000/svg" xmlns:xlink="http://www.w3.org/1999/xlink" x="0px" y="0px"
	 width="50px" height="50px" viewBox="0 0 50 50" enable-background="new 0 0 50 50" xml:space="preserve">
<g>
	<g>
		<path d="M37,28.084h-4.62v-6.577c0.366-0.149,0.625-0.505,0.625-0.924c0-0.552-0.448-1-1-1s-1,0.448-1,1
			c0,0.419,0.259,0.775,0.625,0.924v6.577H18.37v-6.577c0.366-0.149,0.625-0.505,0.625-0.924c0-0.552-0.448-1-1-1
			c-0.552,0-1,0.448-1,1c0,0.419,0.259,0.775,0.625,0.924v6.577H13c-0.275,0-0.5,0.225-0.5,0.5v4c0,0.274,0.225,0.5,0.5,0.5h1.5
			v0.75h3v-0.75h15.031v0.75h3v-0.75H37c0.275,0,0.5-0.226,0.5-0.5v-4C37.5,28.309,37.275,28.084,37,28.084z M33.984,32.021
			c0,0.197-0.162,0.359-0.359,0.359h-17.25c-0.197,0-0.359-0.162-0.359-0.359v-2.875c0-0.197,0.162-0.359,0.359-0.359h17.25
			c0.197,0,0.359,0.162,0.359,0.359V32.021z"/>
	</g>
	<g>
		<circle cx="17.995" cy="30.584" r="0.453"/>
	</g>
	<g>
		<circle cx="19.997" cy="30.584" r="0.453"/>
	</g>
	<g>
		<circle cx="21.998" cy="30.584" r="0.453"/>
	</g>
	<g>
		<circle cx="23.999" cy="30.584" r="0.453"/>
	</g>
	<g>
		<circle cx="26.001" cy="30.584" r="0.453"/>
	</g>
	<g>
		<circle cx="28.002" cy="30.584" r="0.453"/>
	</g>
	<g>
		<circle cx="30.003" cy="30.584" r="0.453"/>
	</g>
	<g>
		<circle cx="32.005" cy="30.584" r="0.453"/>
	</g>
	<g>
		<path d="M17.995,17.003c1.507,0,2.951,0.643,3.962,1.761l0.621-0.561c-1.169-1.295-2.839-2.037-4.583-2.037
			s-3.414,0.742-4.583,2.037l0.621,0.56C15.044,17.646,16.488,17.003,17.995,17.003z"/>
	</g>
	<g>
		<path d="M14.577,19.256l0.621,0.562c0.714-0.791,1.734-1.243,2.797-1.243s2.083,0.452,2.795,1.243l0.621-0.561
			c-0.872-0.966-2.117-1.519-3.417-1.519C16.694,17.739,15.45,18.292,14.577,19.256z"/>
	</g>
	<g>
		<path d="M32.005,17.003c1.507,0,2.951,0.643,3.962,1.761l0.621-0.561c-1.169-1.295-2.839-2.037-4.583-2.037
			s-3.414,0.742-4.583,2.037l0.621,0.56C29.055,17.646,30.498,17.003,32.005,17.003z"/>
	</g>
	<g>
		<path d="M28.587,19.256l0.621,0.562c0.714-0.791,1.733-1.243,2.797-1.243s2.083,0.452,2.795,1.243l0.621-0.561
			c-0.872-0.966-2.116-1.519-3.417-1.519C30.704,17.739,29.459,18.292,28.587,19.256z"/>
	</g>
</g>
</svg>
