<?xml version="1.0" encoding="utf-8"?>
<!-- Generator: Adobe Illustrator 16.0.4, SVG Export Plug-In . SVG Version: 6.00 Build 0)  -->
<!DOCTYPE svg PUBLIC "-//W3C//DTD SVG 1.1//EN" "http://www.w3.org/Graphics/SVG/1.1/DTD/svg11.dtd">
<svg version="1.1" id="Layer_1" xmlns="http://www.w3.org/2000/svg" xmlns:xlink="http://www.w3.org/1999/xlink" x="0px" y="0px"
	 width="50px" height="50px" viewBox="0 0 50 50" enable-background="new 0 0 50 50" xml:space="preserve">
<g>
	<path d="M34.717,29.195v-0.883v-5.3v-5.3c0-0.485-0.398-0.883-0.884-0.883H16.168c-0.486,0-0.885,0.396-0.885,0.883v5.3v5.3v0.883
		l-2.207,2.65c0,0.73,0.593,1.324,1.324,1.324H35.6c0.731,0,1.324-0.594,1.324-1.324L34.717,29.195z M26.768,32.729h-3.533
		c-0.123,0-0.221-0.098-0.221-0.221s0.098-0.221,0.221-0.221h3.533c0.121,0,0.221,0.098,0.221,0.221
		C26.986,32.631,26.889,32.729,26.768,32.729z M21.359,31.846l0.674-0.809h5.934l0.674,0.809H21.359z M33.473,27.633
		c0,0.426-0.347,0.771-0.77,0.771H17.297c-0.423,0-0.77-0.348-0.77-0.771v-9.24c0-0.426,0.347-0.771,0.77-0.771h15.406
		c0.423,0,0.77,0.347,0.77,0.771V27.633z"/>
	<path d="M26.516,19.797c-0.603,0.092-1.205,0.176-1.809,0.264c0,0.963,0,1.902,0,2.848c1.303,0,2.586,0,3.906,0
		c0-1.146,0-2.275,0-3.405c-0.064,0-0.131,0-0.195,0C27.784,19.6,27.15,19.702,26.516,19.797z"/>
	<path d="M24.702,26.166c1.3,0.188,2.587,0.373,3.89,0.561c0-1.15,0-2.265,0-3.394c-1.314,0-2.6,0-3.89,0
		C24.702,24.284,24.702,25.219,24.702,26.166z"/>
	<path d="M21.395,22.911c0.976,0,1.929,0,2.896,0c0-0.941,0-1.854,0-2.791c-0.979,0.143-1.941,0.283-2.896,0.422
		C21.395,21.354,21.395,22.131,21.395,22.911z"/>
	<path d="M21.387,25.684c0.961,0.141,1.918,0.279,2.9,0.422c0-0.937,0-1.854,0-2.774c-0.975,0-1.932,0-2.9,0
		C21.387,24.118,21.387,24.889,21.387,25.684z"/>
</g>
</svg>
