<?xml version="1.0" encoding="utf-8"?>
<!-- Generator: Adobe Illustrator 16.0.4, SVG Export Plug-In . SVG Version: 6.00 Build 0)  -->
<!DOCTYPE svg PUBLIC "-//W3C//DTD SVG 1.1//EN" "http://www.w3.org/Graphics/SVG/1.1/DTD/svg11.dtd">
<svg version="1.1" id="Layer_1" xmlns="http://www.w3.org/2000/svg" xmlns:xlink="http://www.w3.org/1999/xlink" x="0px" y="0px"
	 width="50px" height="50px" viewBox="0 0 50 50" enable-background="new 0 0 50 50" xml:space="preserve">
<g>
	<g>
		<path d="M35.488,30.464C36.452,28.691,37,26.66,37,24.5C37,17.596,31.404,12,24.5,12S12,17.596,12,24.5
			C12,31.404,17.596,37,24.5,37c2.16,0,4.191-0.548,5.965-1.512L38,38L35.488,30.464z M29.292,16.534
			c1.192,0,2.335,0.508,3.135,1.394l-0.425,0.384c-0.691-0.765-1.68-1.205-2.71-1.205s-2.019,0.439-2.71,1.205l-0.426-0.383
			C26.957,17.041,28.1,16.534,29.292,16.534z M31.63,18.647l-0.426,0.384c-0.487-0.541-1.185-0.85-1.912-0.85
			s-1.425,0.309-1.913,0.85l-0.425-0.385c0.597-0.66,1.448-1.038,2.338-1.038C30.182,17.609,31.033,17.987,31.63,18.647z
			 M19.708,16.534c1.192,0,2.335,0.508,3.136,1.394l-0.425,0.384c-0.692-0.765-1.681-1.205-2.711-1.205s-2.019,0.439-2.71,1.205
			l-0.425-0.383C17.373,17.041,18.516,16.534,19.708,16.534z M22.045,18.647l-0.424,0.384c-0.488-0.541-1.186-0.85-1.913-0.85
			s-1.425,0.309-1.913,0.85l-0.425-0.385c0.597-0.66,1.448-1.038,2.338-1.038C20.598,17.609,21.449,17.987,22.045,18.647z
			 M33.051,27.764c0,0.188-0.152,0.342-0.342,0.342h-1.005v0.514h-2.052v-0.514H19.369v0.514h-2.053v-0.514h-1.025
			c-0.188,0-0.342-0.153-0.342-0.342v-2.736c0-0.188,0.152-0.342,0.342-0.342h3.16v-4.498c-0.25-0.102-0.428-0.346-0.428-0.633
			c0-0.377,0.308-0.684,0.685-0.684s0.685,0.306,0.685,0.684c0,0.287-0.178,0.531-0.428,0.633v4.498h9.07v-4.498
			c-0.251-0.102-0.428-0.346-0.428-0.633c0-0.377,0.308-0.684,0.685-0.684s0.685,0.306,0.685,0.684c0,0.287-0.178,0.531-0.428,0.633
			v4.498h3.16c0.188,0,0.342,0.154,0.342,0.342V27.764L33.051,27.764z"/>
	</g>
	<g>
		<path d="M30.4,25.167H18.6c-0.135,0-0.246,0.111-0.246,0.246v1.967c0,0.136,0.111,0.246,0.246,0.246H30.4
			c0.135,0,0.244-0.11,0.244-0.246v-1.967C30.646,25.277,30.535,25.167,30.4,25.167z M19.708,26.706c-0.17,0-0.312-0.14-0.312-0.31
			c0-0.172,0.142-0.311,0.312-0.311c0.172,0,0.31,0.139,0.31,0.311C20.018,26.566,19.88,26.706,19.708,26.706z M21.078,26.706
			c-0.172,0-0.311-0.14-0.311-0.31c0-0.172,0.139-0.311,0.311-0.311c0.17,0,0.311,0.139,0.311,0.311
			C21.389,26.566,21.248,26.706,21.078,26.706z M22.445,26.706c-0.17,0-0.309-0.14-0.309-0.31c0-0.172,0.139-0.311,0.309-0.311
			c0.172,0,0.311,0.139,0.311,0.311C22.756,26.566,22.617,26.706,22.445,26.706z M23.814,26.706c-0.17,0-0.311-0.14-0.311-0.31
			c0-0.172,0.141-0.311,0.311-0.311c0.172,0,0.311,0.139,0.311,0.311C24.125,26.566,23.986,26.706,23.814,26.706z M25.186,26.706
			c-0.172,0-0.311-0.14-0.311-0.31c0-0.172,0.139-0.311,0.311-0.311c0.17,0,0.311,0.139,0.311,0.311
			C25.495,26.566,25.355,26.706,25.186,26.706z M26.553,26.706c-0.17,0-0.309-0.14-0.309-0.31c0-0.172,0.139-0.311,0.309-0.311
			c0.172,0,0.312,0.139,0.312,0.311C26.863,26.566,26.725,26.706,26.553,26.706z M27.922,26.706c-0.17,0-0.311-0.14-0.311-0.31
			c0-0.172,0.141-0.311,0.311-0.311c0.172,0,0.311,0.139,0.311,0.311C28.232,26.566,28.094,26.706,27.922,26.706z M29.292,26.706
			c-0.172,0-0.31-0.14-0.31-0.31c0-0.172,0.138-0.311,0.31-0.311c0.17,0,0.312,0.139,0.312,0.311
			C29.604,26.566,29.462,26.706,29.292,26.706z"/>
	</g>
</g>
</svg>
