<?xml version="1.0" encoding="utf-8"?>
<!-- Generator: Adobe Illustrator 16.0.4, SVG Export Plug-In . SVG Version: 6.00 Build 0)  -->
<!DOCTYPE svg PUBLIC "-//W3C//DTD SVG 1.1//EN" "http://www.w3.org/Graphics/SVG/1.1/DTD/svg11.dtd">
<svg version="1.1" id="Layer_1" xmlns="http://www.w3.org/2000/svg" xmlns:xlink="http://www.w3.org/1999/xlink" x="0px" y="0px"
	 width="50px" height="50px" viewBox="0 0 50 50" enable-background="new 0 0 50 50" xml:space="preserve">
<g>
	<g>
		<path d="M37,27.163h-4.292l-0.328-7.5c0-0.207-0.168-0.375-0.375-0.375c-0.208,0-0.375,0.168-0.375,0.375l-0.328,7.5H13
			c-0.275,0-0.5,0.226-0.5,0.5v4c0,0.274,0.225,0.5,0.5,0.5h1.5v0.75h3v-0.75h15.031v0.75h3v-0.75H37c0.275,0,0.5-0.226,0.5-0.5v-4
			C37.5,27.389,37.275,27.163,37,27.163z M29.073,30.359c-0.386,0-0.697-0.312-0.697-0.696c0-0.386,0.312-0.697,0.697-0.697
			c0.384,0,0.696,0.312,0.696,0.697C29.77,30.048,29.457,30.359,29.073,30.359z M30.932,30.359c-0.387,0-0.697-0.312-0.697-0.696
			c0-0.386,0.312-0.697,0.697-0.697c0.385,0,0.695,0.312,0.695,0.697C31.627,30.048,31.316,30.359,30.932,30.359z M32.788,30.359
			c-0.384,0-0.697-0.312-0.697-0.696c0-0.386,0.313-0.697,0.697-0.697c0.385,0,0.696,0.312,0.696,0.697
			C33.484,30.048,33.173,30.359,32.788,30.359z M34.646,30.359c-0.386,0-0.697-0.312-0.697-0.696c0-0.386,0.312-0.697,0.697-0.697
			c0.383,0,0.696,0.312,0.696,0.697C35.343,30.048,35.029,30.359,34.646,30.359z"/>
	</g>
	<g>
		<path d="M29.807,21.793c-0.615-0.557-0.97-1.352-0.97-2.182c0-0.83,0.354-1.625,0.972-2.182l-0.31-0.342
			c-0.713,0.644-1.122,1.563-1.122,2.523c0,0.959,0.408,1.88,1.122,2.523L29.807,21.793z"/>
	</g>
	<g>
		<path d="M30.078,21.493l0.309-0.342c-0.435-0.394-0.684-0.954-0.684-1.54c0-0.585,0.249-1.147,0.684-1.54l-0.309-0.342
			c-0.532,0.479-0.836,1.166-0.836,1.882C29.242,20.327,29.546,21.012,30.078,21.493z"/>
	</g>
	<g>
		<path d="M30.695,20.808l0.31-0.342c-0.483-0.436-0.483-1.274,0-1.71l-0.31-0.342c-0.338,0.306-0.531,0.742-0.531,1.198
			C30.164,20.066,30.357,20.503,30.695,20.808z"/>
	</g>
	<g>
		<path d="M34.203,21.793l0.308,0.341c0.714-0.643,1.122-1.563,1.122-2.523s-0.408-1.879-1.122-2.523l-0.309,0.342
			c0.616,0.556,0.97,1.352,0.97,2.182C35.172,20.441,34.818,21.236,34.203,21.793z"/>
	</g>
	<g>
		<path d="M33.623,21.151l0.309,0.342c0.531-0.481,0.836-1.166,0.836-1.882c0-0.716-0.305-1.402-0.836-1.882l-0.309,0.342
			c0.436,0.393,0.684,0.955,0.684,1.54C34.307,20.197,34.059,20.757,33.623,21.151z"/>
	</g>
	<g>
		<path d="M33.314,20.808c0.338-0.304,0.531-0.742,0.531-1.197c0-0.456-0.193-0.892-0.531-1.198l-0.31,0.342
			c0.484,0.436,0.484,1.274,0,1.71L33.314,20.808z"/>
	</g>
</g>
</svg>
