<?xml version="1.0" encoding="utf-8"?>
<!-- Generator: Adobe Illustrator 16.0.4, SVG Export Plug-In . SVG Version: 6.00 Build 0)  -->
<!DOCTYPE svg PUBLIC "-//W3C//DTD SVG 1.1//EN" "http://www.w3.org/Graphics/SVG/1.1/DTD/svg11.dtd">
<svg version="1.1" id="Layer_1" xmlns="http://www.w3.org/2000/svg" xmlns:xlink="http://www.w3.org/1999/xlink" x="0px" y="0px"
	 width="50px" height="50px" viewBox="0 0 50 50" enable-background="new 0 0 50 50" xml:space="preserve">
<g>
	<polygon points="22,31.073 20,33.073 30,33.073 28,31.073 	"/>
	<path d="M25.695,20.423c0.084,0.006,0.138-0.019,0.14-0.096c0-0.011,0.071-0.054-0.024-0.061c-0.016-0.001-0.099-0.005-0.067,0.029
		c-0.013,0.007-0.066,0-0.067,0.02c0.01,0.008,0.021,0.017,0.031,0.025C25.699,20.361,25.605,20.417,25.695,20.423z"/>
	<path d="M23.265,19.91c0.004-0.002,0.008-0.004,0.011-0.006c-0.006,0-0.02,0-0.033,0.001C23.229,19.912,23.281,19.91,23.265,19.91z
		"/>
	<path d="M25.812,20.164c0.018,0.001,0.03-0.01,0.031-0.02C25.841,20.145,25.781,20.162,25.812,20.164z"/>
	<path d="M26.591,21.022c0.003,0.013,0.021,0.022,0.021,0.036C26.63,21.205,26.729,21.001,26.591,21.022z"/>
	<path d="M26.341,21.069c-0.005-0.023-0.018-0.026-0.039-0.01C26.305,21.061,26.343,21.09,26.341,21.069z"/>
	<path d="M23.237,19.942c-0.05,0.006,0.03,0.001,0.054,0C23.315,19.915,23.211,19.921,23.237,19.942z"/>
	<path d="M25.863,20.194c-0.002,0.031,0.005,0.023,0.005,0.061c0.004,0,0.008,0,0.013,0.001c-0.003-0.005-0.008-0.008,0-0.015
		c0.055,0.027,0.012,0.01,0.012,0.047c0,0.017,0.067,0.009,0.078,0.01c-0.02,0.024,0.002,0.028,0.027,0.028
		c0,0.035-0.047,0.034-0.074,0.032c0,0.04-0.033,0.045-0.033,0.066c0,0.006,0.09,0.022,0.104,0.01c0,0.019-0.094,0.034-0.113,0.068
		c0.034,0.002,0.319-0.023,0.318-0.037c-0.012-0.003-0.023-0.005-0.034-0.007c0.039-0.045,0.039-0.086,0.002-0.069
		c-0.007,0.001-0.009,0.005-0.021,0.006c-0.002-0.064-0.102-0.13-0.166-0.146c0.006-0.016,0.062-0.038,0.056-0.064
		c-0.05,0.022-0.082,0.018-0.099-0.014c0.015-0.006,0.027-0.013,0.041-0.021c0.002-0.054-0.137,0.018-0.107,0.029
		c0,0.005-0.04-0.005-0.043-0.006C25.827,20.186,25.839,20.19,25.863,20.194z"/>
	<path d="M22.705,19.996c0.011,0.001,0.021-0.001,0.029-0.007c-0.011,0.001-0.021,0.001-0.032,0.002
		C22.696,19.995,22.7,19.996,22.705,19.996z"/>
	<path d="M22.793,19.958c0.013-0.004,0.026-0.005,0.04-0.002c-0.033,0.008-0.069,0.023-0.046,0.022
		c0.021-0.001,0.057-0.006,0.069-0.014c-0.042,0.002-0.035,0.001,0.021-0.005c0-0.003-0.002-0.004-0.005-0.006
		c0.004,0,0.009-0.001,0.014-0.001C22.859,19.953,22.809,19.95,22.793,19.958z"/>
	<path d="M23.096,19.953c-0.008,0.001-0.016,0.002-0.022,0.003c0.013,0,0.022-0.001,0.031-0.003
		c0.036-0.001,0.068-0.006,0.059-0.014c0.003-0.001,0.01-0.003,0.014-0.004c-0.021-0.02-0.104-0.011-0.132-0.008
		c-0.007,0.004-0.006,0.005,0.007,0.005c-0.004,0.001-0.009,0.003-0.013,0.003c0.003,0.002,0.012,0,0.033-0.001
		c-0.013,0.008-0.028,0.011-0.043,0.009C23.035,19.95,23.065,19.953,23.096,19.953z"/>
	<path d="M23.003,19.968c-0.015-0.001-0.004-0.009-0.029-0.008c-0.008,0.005-0.003,0.014,0.008,0.014
		C22.989,19.973,22.998,19.971,23.003,19.968z"/>
	<path d="M23.3,19.955c0.011,0,0.021-0.002,0.029-0.008c-0.029,0.002-0.058,0-0.086,0.007C23.243,19.954,23.294,19.956,23.3,19.955z
		"/>
	<path d="M25.916,20.313c-0.01,0.002-0.012,0.007-0.012,0.012c0.01,0.001,0.015,0.001,0.018,0.001c0-0.006,0.001-0.01,0.001-0.013
		C25.922,20.313,25.917,20.313,25.916,20.313z"/>
	<path d="M22.149,22.092c-0.008-0.001-0.025,0.007-0.033,0.016c0.01,0.001,0.026,0.006,0.044,0.005
		C22.161,22.106,22.162,22.093,22.149,22.092z"/>
	<path d="M22.085,22.229c-0.003,0.006-0.011,0.082,0.009,0.039C22.099,22.259,22.091,22.218,22.085,22.229z"/>
	<polygon points="26.29,19.812 26.29,19.812 26.289,19.812 	"/>
	<path d="M21.907,22.905c-0.008-0.009-0.027-0.032-0.048-0.037c-0.015-0.003-0.068,0.065,0.053,0.061
		c0.003-0.013,0.003-0.022-0.006-0.031C21.906,22.9,21.907,22.902,21.907,22.905z"/>
	<path d="M22.19,22.586c0.029,0.001,0.045-0.011,0.048-0.037C22.232,22.555,22.162,22.578,22.19,22.586z"/>
	<path d="M26.339,19.821c-0.003,0-0.004,0-0.007,0c0.014,0.01,0.062,0.005,0.089,0.004c-0.021,0.003-0.06,0.009-0.06,0.008
		c0,0.01,0.068,0.008,0.076,0.01c-0.021,0.001-0.041-0.001-0.064-0.001c0.004,0.049,0.139,0.001,0.184-0.009
		c0.006,0.004,0.014,0.009,0.021,0.01c-0.001,0.006-0.014,0.003-0.014,0.01c0.014,0.001,0.037,0.002,0.051,0.004
		c-0.004,0.002-0.002,0.004,0,0.008c0.027-0.002,0.039-0.008,0.07-0.01c-0.033-0.017-0.074-0.021-0.105-0.025
		c0.003,0,0.007,0,0.011,0c-0.007-0.003-0.017-0.006-0.026-0.01c0.062,0.006,0.17-0.011,0.192-0.015
		c-0.063-0.032-0.172-0.017-0.241-0.018c0.002,0.001,0.004,0.002,0.006,0.003c-0.006,0-0.013,0-0.018,0v0.001
		c-0.011-0.001-0.021-0.001-0.033-0.001c0.006,0.013,0.043,0.011,0.051,0.011c0.002,0,0.045,0.002,0.049,0.003
		c-0.016,0-0.031,0.001-0.047,0c0.002,0.003,0.004,0.006,0.01,0.008c-0.025-0.005-0.051-0.008-0.069-0.005
		c0-0.002,0.002-0.004,0.002-0.006c-0.001-0.001-0.085-0.024-0.044,0.011c-0.007-0.001-0.068-0.01-0.05-0.006
		c-0.006-0.002-0.017-0.002-0.024-0.005c0.002-0.001,0.006-0.002,0.01-0.003c-0.023-0.005-0.047-0.004-0.071,0.003
		c0.009,0.004,0.019,0.007,0.028,0.009C26.312,19.814,26.324,19.818,26.339,19.821z"/>
	<path d="M22.971,20.375c0.021-0.002,0.066-0.018,0.086-0.027c-0.028-0.007-0.052,0.006-0.077,0.018
		C22.978,20.368,22.974,20.372,22.971,20.375z"/>
	<path d="M26.965,21.205c-0.023-0.006-0.123-0.015-0.142-0.007c0.002,0.021,0.11,0.081,0.136,0.083
		C26.96,21.282,26.961,21.221,26.965,21.205z"/>
	<path d="M27.979,21.445c-0.028,0.001-0.07,0.014-0.095,0.024C27.896,21.521,27.98,21.47,27.979,21.445z"/>
	<path d="M27.443,21.407c0.024,0.014,0.089,0.037,0.117,0.023C27.529,21.418,27.482,21.404,27.443,21.407z"/>
	<path d="M26.641,20.934c-0.005-0.002-0.008-0.01-0.009-0.018c-0.012,0.009-0.024,0.014-0.039,0.014
		c0.011,0.013,0.021,0.059,0.04,0.064C26.636,20.986,26.637,20.952,26.641,20.934z"/>
	<path d="M22.291,22.743c-0.031-0.005-0.064,0.022-0.085-0.013c-0.047-0.072-0.05,0.114-0.051,0.133
		c-0.012-0.006-0.206,0.011-0.106,0.069c0.039-0.105,0.128,0.058,0.129,0.058c0.014,0.003,0.076-0.092,0.08-0.051
		c0,0.001,0.131,0.001,0.137,0.002c0,0.003-0.017-0.055-0.024-0.083C22.346,22.817,22.354,22.753,22.291,22.743z"/>
	<path d="M22.099,22.711c-0.026-0.037,0.015-0.069-0.042-0.085c0.004-0.031-0.079-0.15-0.115-0.186
		c-0.113-0.111-0.191-0.09-0.294,0.042c0.101,0.013,0.113-0.128,0.146-0.016c0.127,0.016,0.154,0.151,0.118,0.236
		C21.977,22.711,22.04,22.791,22.099,22.711z"/>
	<path d="M22.459,22.996c-0.015,0.045,0.064,0.069,0.086,0.037C22.544,23.012,22.473,22.952,22.459,22.996z"/>
	<path d="M21.699,22.522c0.008-0.019,0.014,0.043,0.045-0.046c-0.011-0.012-0.01,0.003-0.017,0.019
		C21.713,22.498,21.704,22.507,21.699,22.522z"/>
	<path d="M28.766,23.147c-0.141,0.025-0.195,0.067-0.233-0.104c-0.027-0.118-0.23-0.2-0.257-0.326
		c-0.021-0.095-0.045-0.128-0.106-0.198c-0.058-0.066-0.037-0.178-0.084-0.258c-0.041-0.07-0.049-0.143-0.087-0.215
		c-0.057-0.107-0.17-0.251-0.178-0.371c0.037,0.04,0.08,0.149,0.123,0.156c0.027-0.117,0.031-0.147-0.014-0.26
		c-0.078,0.021-0.145-0.028-0.219,0c-0.1,0.037-0.176,0.023-0.275-0.011c-0.069-0.025-0.353-0.19-0.349,0.001
		c0.004,0.222-0.261-0.067-0.329-0.089c-0.074-0.023-0.195,0.018-0.195-0.109c0-0.072,0.028-0.126,0.032-0.191
		c-0.021,0.02-0.04,0.019-0.058-0.004c-0.032-0.05-0.078,0.015-0.113,0.016c-0.074,0.003-0.142,0.001-0.215,0.003
		c-0.109,0.004-0.227,0.063-0.32,0.116c-0.117,0.068-0.22-0.031-0.285,0.058c0,0,0.002,0,0.004,0
		c-0.06,0.078-0.126,0.146-0.184,0.226c-0.039,0.054-0.025,0.125-0.045,0.186c-0.018,0.058-0.083,0.113-0.138,0.133
		c-0.099,0.036-0.139,0.149-0.18,0.239c-0.033,0.073-0.06,0.142-0.099,0.211c-0.052,0.091,0.018,0.236,0.014,0.335
		c-0.002,0.07-0.028,0.152-0.066,0.21c-0.037,0.058,0.011,0.127,0.009,0.203c-0.002,0-0.004,0-0.006,0
		c0.038,0.061,0.084,0.116,0.133,0.169c0.085,0.094,0.104,0.221,0.195,0.313c0.069,0.069,0.15,0.178,0.26,0.141
		c0.05-0.018,0.09-0.049,0.146-0.05c0.047-0.001,0.082,0.04,0.127,0.039c0.106-0.003,0.213-0.152,0.342-0.155
		c0.094-0.002,0.086,0.159,0.167,0.157c0.264-0.005,0.231,0.184,0.166,0.367c-0.044,0.118,0.071,0.229,0.138,0.312
		s0.073,0.208,0.1,0.309c0.025,0.094,0.071,0.242,0.047,0.34c-0.021,0.097-0.104,0.167-0.121,0.267
		c-0.025,0.141,0.027,0.279,0.09,0.402c0.059,0.117,0.062,0.167,0.076,0.297c0.031,0.279,0.244,0.481,0.242,0.75
		c0.026-0.018,0.113,0.037,0.188-0.003c0.079-0.042,0.147-0.021,0.229-0.03c0.006-0.035,0.156-0.088,0.188-0.129
		c0.072-0.1,0.115-0.213,0.193-0.307c0.086-0.102-0.01-0.176,0.091-0.261c0.095-0.079,0.126-0.048,0.131-0.201
		c0.002-0.065-0.123-0.228,0.013-0.255c0.016-0.097,0.111-0.138,0.186-0.184c0.212-0.131,0.049-0.315,0.135-0.498
		c0.029-0.066-0.07-0.144-0.068-0.217c0-0.069-0.017-0.138-0.016-0.208c0-0.069,0.059-0.104,0.072-0.168
		c0.053-0.242,0.26-0.309,0.388-0.496c0.11-0.162,0.327-0.543,0.245-0.739C28.92,23.089,28.846,23.13,28.766,23.147z"/>
	<path d="M26.932,20.275c0.01-0.012,0.019-0.023,0.027-0.034C26.949,20.241,26.911,20.258,26.932,20.275z"/>
	<path d="M23.664,20.951c0.002-0.005-0.005-0.008-0.006-0.014c-0.025,0.011-0.046,0.026-0.064,0.046
		c-0.009,0.018,0.062,0.015,0.075-0.012C23.627,20.972,23.657,20.966,23.664,20.951z"/>
	<path d="M24.943,20.025c-0.005-0.001-0.01-0.004-0.009-0.007c0.022-0.001,0.046-0.006,0.056-0.014
		c-0.016,0.001-0.029-0.001-0.042-0.009c0.006-0.016,0.035,0.004,0.042-0.017c0.009-0.023-0.045-0.02-0.042-0.026
		c0.012-0.028,0.097,0.011,0.109-0.017c-0.014-0.007-0.028-0.012-0.043-0.013c0.006,0,0.016-0.002,0.021-0.003
		c-0.025-0.007-0.05-0.008-0.076-0.005c0.029-0.016,0.193-0.052,0.205-0.074c0.045-0.002,0.131-0.008,0.143-0.027
		c0.004-0.006-0.4,0.043-0.424,0.046c0.005-0.004,0.088-0.031,0.09-0.033c0.001-0.002-0.016-0.001-0.04,0.001
		c0.029-0.005,0.053-0.013,0.068-0.026c-0.214-0.004-0.445-0.017-0.654,0.031c0.002,0.002,0.008,0.001,0.011,0.004
		c-0.011,0-0.021,0.001-0.032,0.005c0.01,0.007,0.021,0.01,0.035,0.01c-0.018,0.001-0.102-0.016-0.112,0
		c-0.001,0.002,0,0.004,0.002,0.006c-0.017-0.006-0.04-0.01-0.048,0.005c-0.031,0.002-0.241,0.011-0.264,0.054
		c0.013,0.005,0.026,0.006,0.039,0.004c-0.022,0.042-0.118,0.005-0.136,0.043c-0.006,0.013,0.086,0.006,0.095,0.006
		c-0.019,0.021-0.07-0.002-0.086,0.021c0.013-0.003,0.025-0.001,0.038,0.004c-0.003,0.003-0.007,0.003-0.013,0.005
		c0.013,0.007,0.026,0.009,0.04,0.006c-0.001,0-0.003-0.001-0.004-0.002c0.041-0.011,0.193-0.011,0.165,0.061
		c0.019,0.005,0.018,0.012-0.001,0.022c0.017-0.001,0.062,0.025,0.069,0.026c-0.013,0.02-0.04-0.004-0.059,0
		c-0.002,0.012,0.046,0.014,0.066,0.019c-0.021,0.025-0.077,0.032-0.087,0.066c0.004-0.002,0.009-0.001,0.014,0
		c-0.027,0.037,0.019,0.042,0.031,0.057c-0.058,0.031,0.101,0.104,0.123,0.105c0.034,0.003,0.111-0.128,0.176-0.14
		c-0.001,0.003-0.002,0.006-0.003,0.01c0.07,0.002,0.106-0.038,0.167-0.056c0.094,0.002,0.193-0.015,0.282-0.045
		c-0.021-0.003-0.116-0.002-0.111-0.018c0.03-0.003,0.014-0.003,0.019-0.019c0.014,0.004,0.116,0.042,0.123,0.02
		c0.01-0.034-0.075-0.048-0.09-0.056c0.01-0.031,0.072,0.051,0.089,0c-0.017-0.009-0.034-0.017-0.052-0.022
		C24.863,20.034,24.915,20.058,24.943,20.025z"/>
	<path d="M27.098,20.249c0.021,0.001,0.028-0.015,0.029-0.03c-0.011-0.004-0.051-0.016-0.018,0.01c-0.012,0-0.02,0.004-0.031,0.004
		C27.08,20.238,27.083,20.248,27.098,20.249z"/>
	<path d="M23.883,20.887c-0.007,0-0.018,0.001-0.022,0.004c0.008-0.02,0.015-0.031,0.02-0.043c-0.011,0.004-0.035,0.003-0.054,0
		c-0.008,0.002-0.016,0.003-0.024,0.005c0,0,0.003-0.005,0.003-0.006c-0.011,0-0.021,0-0.033,0c0.001-0.009,0.007-0.016,0.017-0.018
		c-0.02-0.01-0.039-0.008-0.057,0.003c0.001-0.004,0.1-0.084,0.075-0.084c-0.08,0-0.139,0.113-0.214,0.136
		c0,0.004,0.006,0.007,0.011,0.007c-0.009,0.02-0.039,0.014-0.048,0.032c-0.001,0.001,0.189,0.016,0.211,0.016
		c-0.012,0.004-0.022,0.012-0.03,0.022c-0.004,0.008,0.082-0.037,0.081-0.036c0.037,0.038,0.032,0.093,0.07-0.004
		c-0.014,0.006-0.009,0.008-0.028,0.008C23.872,20.9,23.868,20.916,23.883,20.887z"/>
	<path d="M24.948,20.181c0.114,0.011,0.178,0.06,0.3,0.006c0.009-0.015-0.041-0.04-0.007-0.048c-0.016-0.001-0.143-0.015-0.145,0
		c-0.018-0.01-0.039,0.004-0.051-0.013c-0.013,0.007-0.05,0.021-0.034-0.016c-0.017-0.001-0.043,0.006-0.059,0.008
		c-0.002,0.006,0.047,0.03,0.045,0.028c-0.015,0.002-0.045,0.003-0.062,0.001c0.006,0.009,0.03,0.003,0.045,0.007
		c-0.008,0.009-0.014,0.013-0.021,0.022C24.957,20.178,24.953,20.18,24.948,20.181z"/>
	<path d="M22.375,20.208c-0.004,0.004-0.009,0.007-0.014,0.011c0.007-0.001,0.014-0.001,0.019-0.003
		C22.381,20.21,22.376,20.211,22.375,20.208z"/>
	<path d="M22.765,20.173c0,0-0.006-0.013-0.009-0.011c0.016-0.011,0.05-0.007,0.068-0.012c-0.036-0.028-0.065,0.003-0.041-0.049
		c0.005-0.011,0.062-0.046,0.065-0.045c-0.067-0.023-0.118,0.055-0.167,0.058c0.009,0-0.076-0.03-0.128-0.017
		c0.003-0.014-0.001-0.019-0.009-0.018c0.001-0.002,0.002-0.006,0.001-0.01c-0.007,0.005-0.013,0.011-0.019,0.016c0,0,0,0,0.001,0
		c-0.002,0.001-0.005,0.003-0.007,0.004c-0.028,0.021-0.053,0.045-0.08,0.066c0.017-0.002,0.04-0.006,0.057,0.001
		c-0.042,0.004-0.064,0.012-0.093,0.03c-0.003,0.002-0.006,0.005-0.009,0.007c0.01,0,0.022-0.002,0.024,0
		C22.433,20.205,22.716,20.195,22.765,20.173z"/>
	<path d="M22.6,20.198c-0.033-0.001-0.058,0-0.066,0.006C22.526,20.21,22.583,20.2,22.6,20.198z"/>
	<polygon points="22.6,20.198 22.604,20.198 22.606,20.197 	"/>
	<path d="M15,16.927v13h20v-13H15z M28.898,21.951c-0.008-0.011-0.021-0.021-0.033-0.033c0.027,0.069,0.051,0.139,0.074,0.209
		c0.002-0.008,0.004-0.016,0.014-0.017c0.021,0.041-0.005,0.088,0.04,0.116c0.013,0.044,0.019,0.092,0.03,0.137
		c-0.021-0.082-0.058-0.157-0.084-0.236c-0.002,0.007-0.002,0.014-0.013,0.016c-0.028-0.08-0.127-0.122-0.168-0.203
		c-0.069-0.14,0.04-0.085,0.106-0.022c-0.014-0.034-0.022-0.07-0.037-0.104C28.85,21.862,28.879,21.903,28.898,21.951z
		 M28.574,21.285c-0.004,0-0.01,0.001-0.014,0.003c0.012,0.016,0.017,0.035,0.026,0.051c-0.067-0.115-0.136-0.23-0.213-0.338
		C28.441,21.095,28.514,21.186,28.574,21.285z M27.826,20.37c0.115,0.107,0.221,0.225,0.324,0.344
		c-0.162-0.188-0.33-0.372-0.523-0.528C27.7,20.252,27.77,20.317,27.826,20.37z M22.635,20.012c0.001,0,0.002,0.001,0.004,0.001
		c-0.004,0-0.007,0.002-0.011,0.002C22.631,20.014,22.633,20.013,22.635,20.012z M21.614,21.001c0.008-0.011,0.02-0.02,0.028-0.031
		c-0.01,0.014-0.023,0.025-0.033,0.04c-0.175,0.245-0.323,0.508-0.441,0.784c0.119-0.278,0.267-0.54,0.441-0.784
		C21.611,21.008,21.612,21.004,21.614,21.001z M22.9,27.031c0.005-0.012,0.012-0.018,0.025-0.018
		c0.009,0.019,0.021,0.036,0.037,0.053C22.941,27.055,22.92,27.043,22.9,27.031z M28.705,25.345
		c-0.021,0.019-0.038,0.042-0.045,0.086C27.951,26.723,26.578,27.6,25,27.6c-0.552,0-1.078-0.108-1.56-0.303
		c-0.019-0.055-0.216-0.094-0.104-0.162c0.073-0.035,0.015-0.131-0.003-0.17c0.013-0.003,0.077,0.018,0.058-0.023
		c0.012,0.026-0.176-0.06-0.101-0.08c0.04-0.01,0.139,0.021,0.11-0.045c0.001-0.033-0.063-0.104-0.001-0.117
		c0.052-0.014,0.139-0.024,0.164-0.082c0.071-0.16-0.08-0.115-0.12-0.221c0.008,0.022,0.222-0.011,0.235-0.08
		c0.02-0.104,0.057-0.192,0.071-0.295v0.002c0-0.041,0.012-0.074,0.038-0.104c-0.015-0.044-0.029-0.09-0.042-0.135
		c-0.01-0.054,0.062-0.128,0.1-0.152c0.139-0.087,0.162-0.145,0.203-0.303c0.013-0.093-0.082-0.304-0.049-0.366
		c0.043-0.082,0.22-0.422,0.035-0.462c-0.086-0.018-0.136-0.07-0.217-0.092c-0.082-0.023-0.172,0.003-0.242,0.01
		c-0.015-0.065-0.036-0.062-0.093-0.086c-0.15-0.063-0.08,0.076-0.157,0.083c-0.078,0.009-0.164-0.091-0.104-0.172
		c0.04-0.053-0.105-0.264-0.191-0.257c-0.074,0.002-0.269-0.016-0.315-0.083c-0.057-0.086-0.263-0.109-0.284-0.204
		c-0.054,0.011-0.118,0.046-0.155,0.033c-0.031-0.011-0.121,0.001-0.143-0.023c-0.029-0.033-0.089-0.077-0.139-0.075
		c0.005,0.026,0.033,0.014,0.045,0.04c-0.14,0.009-0.038,0.15-0.064,0.151c-0.062,0.003-0.045-0.128-0.045-0.157
		c0.018-0.014,0.02-0.027,0.007-0.041c-0.025-0.035-0.045,0.025-0.064,0.034c-0.085,0.038-0.226,0.115-0.204,0.23
		c-0.107,0.044,0,0.183,0.018,0.266c-0.01,0.02-0.003,0.032,0.021,0.04c0.001,0.087-0.115,0.18-0.117,0.265
		c-0.002,0.1-0.03,0.113,0.062,0.162c0.001,0.061-0.064,0.089-0.047,0.157c0.018,0.072,0.081,0.075,0.113,0.119
		c0.063,0.092,0.143,0.189,0.222,0.274c0.094,0.102,0.119,0.234,0.272,0.261c0.12,0.016,0.254,0.091,0.302,0.203
		c0.044,0.104,0.059,0.209,0.096,0.313c0.018,0.11,0.007,0.303,0.074,0.391c0.062,0.153,0.073,0.249,0.073,0.404
		c0,0.079,0.045,0.088,0.071,0.144c0.02,0.042,0,0.08,0.024,0.116c-1.214-0.729-2.027-2.059-2.027-3.578
		c0-0.252,0.031-0.497,0.074-0.737c-0.001,0-0.002-0.007-0.004-0.007c0.001-0.009,0.006-0.017,0.008-0.026
		c-0.002,0.011-0.001,0.023-0.003,0.034c0.029,0.013,0.043,0.125,0.082,0.136c0.035,0.009,0.07-0.091,0.09-0.013
		c0.028,0.007,0.015,0.141,0.026,0.168c0.029,0.072,0.082,0.11,0.138,0.128c-0.017,0.061-0.007,0.112-0.003,0.173
		c0.005,0.068-0.051,0.136-0.035,0.199c0.005,0.002,0.01,0.004,0.016,0.006c0-0.008,0.005-0.021,0.012-0.03
		c0.063,0.021,0.021,0.342,0.106,0.376c0.042,0.018,0.049-0.188,0.137-0.158c0.043,0.016,0.008,0.126,0.012,0.157
		c0,0.001,0.07-0.063,0.076-0.072c-0.015-0.052-0.017-0.195-0.11-0.154c-0.196,0.084-0.112-0.258-0.072-0.36
		c0.045-0.118,0.214-0.333-0.013-0.348c-0.188-0.011,0.029-0.188,0.053-0.229c0.018-0.021,0.034-0.039,0.051-0.075
		c0.026-0.056,0.073-0.096,0.1-0.151c-0.213-0.039-0.222,0.238-0.418,0.195c-0.145-0.03,0.167-0.549,0.184-0.586
		c0,0,0.002,0.001,0.003,0.001c0.061-0.106,0.138-0.157,0.244-0.214c0.071-0.038,0.12,0.068,0.172,0.045
		c-0.008-0.017,0.015-0.034,0.034-0.063c-0.012,0.005-0.009,0.006-0.02-0.001c0.031-0.01,0.059-0.003,0.085-0.01
		c-0.009,0.017,0.17,0.046,0.171,0.049c0.008,0.026-0.114,0.335-0.05,0.344c0.072,0.009,0.129-0.205,0.134-0.253
		c0.021-0.192,0.164-0.259,0.324-0.329c-0.001-0.001-0.001-0.002-0.002-0.003c0.04-0.027,0.088-0.033,0.126-0.062
		c-0.03-0.033,0.015-0.023,0.031-0.045c-0.007-0.002-0.015-0.004-0.014-0.017c0.022-0.006,0.037-0.019,0.044-0.039
		c-0.003,0-0.008,0-0.012,0c-0.004-0.014,0.044-0.096,0.056-0.108c-0.002,0.006-0.021,0.086-0.024,0.086
		c0.056,0.001,0.066-0.092,0.095-0.108c-0.01-0.023,0.148-0.08,0.185-0.089c-0.009-0.011-0.045-0.001-0.058-0.001
		c0.063-0.028,0.149-0.023,0.208-0.045c-0.094,0.002,0.077-0.14,0.134-0.128c0.054,0.012,0.166-0.065,0.233-0.068
		c-0.013,0.018-0.008,0.025,0.016,0.022c-0.09,0.004-0.16,0.118-0.093,0.082c0.041-0.021,0.223-0.049,0.239-0.084
		c0.01-0.02-0.201-0.006-0.107-0.123c-0.009,0-0.025-0.004-0.041-0.004c0.027-0.017,0.077-0.009,0.095-0.041
		c0.021-0.038-0.243,0.023-0.256,0.024c0.108-0.087,0.633-0.069,0.581-0.245c-0.016,0.005-0.187,0.05-0.19,0.028
		c0.04-0.012,0.136-0.021,0.157-0.04c0.013-0.016-0.136-0.002-0.106-0.051l0.001-0.002c-0.035,0-0.047-0.013-0.062-0.022
		c0.089-0.028-0.023-0.179-0.075-0.108c0.006,0.009,0.015,0.014,0.024,0.019c-0.023-0.007-0.041-0.013-0.014-0.06
		c-0.043,0.079-0.218,0.028-0.277,0c-0.203-0.097-0.141,0.038-0.293,0.072c0.003,0.074,0.105,0.074-0.035,0.129
		c-0.113,0.045-0.046,0.07-0.104,0.134c-0.032,0-0.036-0.004-0.047-0.008l0,0c-0.01,0.001-0.02-0.001-0.029-0.005
		c0.002,0.003,0.021,0.002,0.028,0.005c0.01-0.014-0.014-0.015-0.029-0.012c0.005-0.022,0.063-0.058,0.023-0.086
		c-0.12,0.003-0.105-0.083-0.252-0.077c0.041-0.042,0.047-0.066-0.015-0.056c0.08-0.054,0.234-0.101,0.298-0.159
		c-0.005-0.004-0.012-0.008-0.018-0.01c0.073,0.006,0.196-0.007,0.245-0.049c-0.034-0.003-0.078,0.001-0.073-0.017
		c0.034,0.011,0.076,0.011,0.12,0.005c-0.039,0.016-0.092,0.045-0.111,0.062c0.01-0.001,0.035-0.004,0.052-0.002
		c-0.01,0.007-0.021,0.014-0.006,0.014c0.058-0.003,0.154-0.013,0.211-0.029c-0.003-0.007-0.029-0.003-0.041-0.011
		c-0.003-0.002,0.005-0.007,0.004-0.011c-0.006-0.015-0.062-0.022-0.075-0.017c0.001-0.004,0-0.007,0-0.011
		c0.014-0.003,0.027-0.007,0.041-0.01c-0.006,0.004-0.001,0.008,0.013,0.008c-0.002-0.005,0.005-0.012-0.012-0.009
		c0.081-0.023,0.157-0.06,0.195-0.093c-0.02,0.001-0.043-0.008-0.063-0.011c0.028-0.001,0.053-0.001,0.067-0.001
		c-0.02,0.015,0.075-0.009,0.1,0.004c-0.001,0-0.002,0-0.003,0c0.008,0.001,0.016,0.004,0.022,0.011
		c-0.01,0.002-0.02,0.005-0.03,0.008c0.001-0.002,0.06,0,0.073,0.007c-0.024-0.002-0.046,0.003-0.067,0.017
		c-0.001,0.001,0.079,0.023,0.08-0.009c0.05,0.037-0.099,0.063-0.058,0.077c-0.052,0.023-0.151,0.007-0.188,0.057
		c-0.007,0.009,0.164-0.011,0.18-0.002c0.04,0.02,0.116,0.065,0.18,0.052c0.051-0.012-0.045-0.058-0.045-0.057
		c0.087-0.015,0.084,0.029,0.107-0.046c-0.03,0.004-0.039-0.025-0.061-0.023c0.005-0.015,0.013-0.006,0.018-0.016
		c0.04,0.006,0.123,0.029,0.13-0.022c0.001-0.003-0.11-0.041-0.118-0.043c0.01-0.007,0.015-0.007,0.028-0.011
		c-0.009-0.005-0.02-0.006-0.031-0.004c0.008-0.005,0.017-0.005,0.028-0.006c-0.008-0.008-0.018-0.011-0.029-0.009
		c0.001-0.002,0.002-0.004,0.003-0.007c-0.091-0.004-0.17-0.032-0.267-0.033c0.005,0,0.016-0.019,0.015-0.022
		c-0.014-0.039-0.24,0.038-0.187,0.014c-0.025,0,0.056-0.021,0.073-0.024c-0.047-0.003-0.09-0.003-0.138,0.007
		c0.017-0.006,0.033-0.009,0.049-0.017c-0.101,0.004-0.138,0.004-0.211,0.055c0.024,0.001,0.046-0.005,0.068-0.018
		c-0.004,0-0.009,0-0.014,0c0.026-0.012,0.07-0.008,0.095-0.017c-0.015,0.009-0.106,0.019-0.092,0.046c0,0,0.063,0.002,0.07,0.004
		c-0.02,0.017-0.045,0.02-0.074,0.007c-0.025,0.021,0.181,0.023,0.182,0.023c-0.025,0.007-0.126,0.097-0.16,0.065
		c-0.005-0.022,0.007-0.032,0.036-0.031c0.023-0.02-0.098,0.009-0.092,0.009c0.03-0.025-0.025-0.015,0.021-0.027
		c-0.011-0.005-0.042,0.002-0.045-0.006c0.015-0.004,0.029-0.009,0.044-0.014c0.033-0.025-0.107-0.022-0.146,0.007
		c-0.01,0.008,0.051,0.013,0.04,0.021c-0.01,0.006-0.02,0.011-0.03,0.017c0.011-0.002,0.019-0.003,0.03-0.006
		c-0.015,0.022-0.073,0.014-0.108,0.042c-0.022,0.003-0.019,0-0.01-0.005c-0.051,0.013-0.191-0.004-0.279-0.007
		c-0.032,0.027-0.09,0.032-0.11,0.025c-0.066-0.022-0.122-0.002-0.173,0.03c-0.042,0.036-0.087,0.068-0.128,0.105
		c0.01-0.009,0.017-0.021,0.026-0.029c0.03-0.027,0.065-0.054,0.102-0.076c0.014-0.012,0.027-0.022,0.041-0.034
		c-0.007,0-0.013,0.001-0.019,0.003c0.009-0.007,0.019-0.014,0.027-0.022c0.006,0,0.004,0.005,0.005,0.008
		c0.007-0.005,0.013-0.011,0.02-0.017c-0.005,0-0.008,0-0.013,0c0.008-0.006,0.015-0.003,0.022-0.007
		c0.012-0.01,0.024-0.021,0.037-0.031c-0.003,0-0.008,0-0.011,0c0.012-0.01,0.058-0.048,0.091-0.066
		c0.002-0.001,0.004-0.003,0.006-0.004c-0.002,0-0.003,0-0.005,0c0.008-0.006,0.016-0.011,0.024-0.017c0,0.001,0,0.001,0,0.002
		c0.015-0.011,0.032-0.02,0.046-0.029c0.016,0,0.032,0,0.048-0.003c0.004-0.003,0.013-0.006,0.019-0.006c0,0.001,0,0.001,0,0.002
		c0.074-0.017,0.184,0.016,0.252-0.025c0.008-0.005-0.089,0.002-0.042-0.021c-0.009,0-0.097,0.016-0.056,0.017
		c-0.005,0.005-0.012,0.007-0.021,0.007c0.003,0,0.007,0.001,0.017,0c-0.051,0.02-0.101-0.014-0.148-0.009
		c-0.004,0.002-0.003,0.003,0,0.004c-0.009,0-0.017,0.002-0.025,0.005c0.011-0.008,0.024-0.015,0.035-0.022c0,0,0.001,0,0.002,0
		c0.024-0.001,0.029-0.005,0.016-0.009c-0.003,0-0.004,0.003-0.007,0.003c0.664-0.45,1.454-0.727,2.316-0.727
		c0.822,0,1.588,0.239,2.233,0.649c-0.057-0.027-0.113-0.046-0.166-0.051c0.012-0.039-0.12-0.015-0.082-0.008
		c-0.053,0.008-0.115-0.009-0.165,0.008c0.006,0.002,0.004,0.001,0.013,0.004c-0.02-0.002-0.038,0-0.057,0.006
		c0.013,0,0.013,0,0.022,0.002c-0.003,0-0.11-0.009-0.114,0.005c0,0,0.015,0.002,0.021,0.002c-0.005,0-0.021,0.003-0.024,0.006
		c0.032,0.002,0.045-0.004,0.078-0.005c-0.008,0.026-0.25,0.124-0.281,0.125c0.014,0.002,0.021,0.004,0.037,0.007
		c-0.049-0.005-0.257,0.035-0.147,0.11c-0.011,0.005-0.019,0.012-0.022,0.021c0.018-0.003,0.018-0.003,0.039-0.001
		c0.002,0.025-0.025,0.009-0.023,0.025c0.006,0.056,0.16,0.016,0.179,0.005c0.054-0.033,0.067,0.001,0.099,0.048
		c0.012,0.018,0.062,0.115,0.086,0.118c0.028,0.002,0.152-0.028,0.151-0.069c-0.104-0.018,0.062-0.086,0.058-0.095
		c-0.013-0.048-0.078-0.033-0.086-0.087c-0.009-0.051,0.157-0.037,0.146-0.07c0.015-0.02,0.133-0.083,0.162-0.011
		c0.002,0.006-0.148,0.061-0.161,0.059c0.015,0.019,0.011,0.041,0.042,0.049c-0.056,0.067,0.31,0.058,0.338,0.089
		c-0.077,0.028-0.16-0.027-0.231,0.01c-0.023,0.012,0.059,0.042,0.06,0.067c0-0.028-0.188,0.014-0.173,0.117
		c-0.02,0-0.038-0.001-0.057-0.002c0-0.002,0.002-0.007,0.004-0.012c-0.047-0.017-0.238,0.05-0.23-0.008
		c-0.051-0.009-0.111-0.005-0.162-0.01c-0.004,0.012-0.001-0.005,0.003-0.027c0.011,0.004,0.03-0.002,0.032,0.014
		c0.004-0.024-0.008-0.031-0.027-0.034c0.006-0.02,0.012-0.037,0.014-0.037c-0.006-0.013-0.021-0.023-0.025-0.052
		c-0.1,0.039-0.1,0.039-0.045,0.132c0.023,0.042-0.074,0.037-0.102,0.034c-0.094-0.007-0.082,0.075-0.16,0.091
		c-0.092,0.02-0.107,0.061-0.215,0.051c0,0.018,0.008,0.03,0.01,0.045c-0.016,0.003-0.152-0.025-0.151,0.006
		c0,0.044,0.231,0.069,0.181,0.154c0.002,0,0.002-0.001,0.004-0.002c0.006,0.117-0.027,0.086-0.112,0.098
		c-0.076-0.006-0.149-0.026-0.226-0.032c-0.088-0.006-0.053,0.051-0.053,0.094c0,0.03-0.061,0.258,0.01,0.263
		c0.066,0.004,0.092-0.02,0.133,0.045c0.033,0.051,0.137-0.028,0.191-0.006c0.047-0.02,0.1-0.057,0.133-0.104
		c-0.111-0.048,0.141-0.156,0.145-0.166c-0.049-0.122,0.134-0.025,0.189-0.053c0.111-0.057,0.127-0.024,0.211,0.064
		c-0.016-0.035,0.369,0.267,0.25,0.254c0.008,0.051,0.072-0.048,0.074-0.039c-0.014-0.083-0.058-0.073,0.057-0.042
		c0-0.071-0.123-0.055-0.135-0.119c-0.08-0.008-0.205-0.115-0.216-0.192c-0.007-0.049,0.235,0.119,0.256,0.12
		c0.011,0.056,0.128,0.068,0.142,0.152c0.01,0.049,0.109,0.148,0.156,0.153c-0.024,0.052,0.012,0.081,0.072,0.088
		c-0.01-0.005-0.025-0.072-0.027-0.083c0.025,0.022,0.055,0.04,0.084,0.024c-0.051-0.043-0.076-0.085-0.121-0.128
		c-0.006-0.038,0.067,0.014,0.067,0.014c0.001-0.013-0.001-0.022-0.007-0.036c0.044-0.008,0.05-0.028,0.098,0.005
		c0.06,0.043,0.051-0.013,0.106-0.005c0,0.007,0.017,0.017,0.019,0.022c-0.023,0.009-0.162-0.014-0.15,0.039
		c0.008,0.038,0.066,0.013,0.009,0.072c0.053,0.027,0.083,0.058,0.127,0.097c-0.001,0.003-0.008,0.008-0.013,0.009
		c0.15,0.015,0.275,0.076,0.425,0.036c0.019,0.069,0.003,0.123-0.001,0.192c-0.002,0.02,0.004,0.089-0.014,0.103
		c-0.006,0.005,0.062,0.135,0.064,0.162c0.008,0.184,0.283,0.285,0.321,0.452c0.022,0.102,0.104,0.163,0.164,0.242
		c0.079,0.105,0.108,0.185,0.167,0.299c0.105,0.205,0.242,0.056,0.406,0c-0.012-0.074-0.012-0.15-0.025-0.223
		c0.015,0.072,0.037,0.141,0.048,0.213c-0.008,0.002-0.015,0.007-0.022,0.009c0.029,0.197,0.068,0.391,0.068,0.596
		C29.172,24.119,29.003,24.771,28.705,25.345z"/>
	<path d="M22.963,20.063c-0.029,0.02-0.056,0-0.083,0.018c0.037,0.05,0.133,0.017,0.172-0.006c-0.005,0-0.017-0.001-0.021-0.002
		c0.027-0.02-0.01-0.007-0.024-0.006c0.02-0.003,0.039-0.01,0.058-0.018C23.059,20.053,22.886,20.061,22.963,20.063z"/>
	<path d="M22.971,19.989C22.971,19.989,22.971,19.988,22.971,19.989l-0.012,0.007c0.004,0.001,0.006,0.004,0.018,0.002
		c-0.002,0.001-0.003,0.002-0.004,0.004c0.014-0.001,0.036-0.004,0.057-0.006C23.017,19.994,22.971,19.977,22.971,19.989z"/>
	<path d="M23.14,20.012c0.001,0,0.121,0.004,0.089-0.013c-0.023-0.007-0.044-0.004-0.066,0.007
		C23.16,20.006,23.146,20.009,23.14,20.012z"/>
	<path d="M23.06,19.98c-0.005,0.005,0.009,0.005,0.025,0.004c-0.023,0.014-0.042-0.005-0.062,0.007c0,0.001,0.003,0.003,0.007,0.005
		c0.019-0.001,0.037-0.002,0.049,0.002c-0.013,0.004-0.041,0.007-0.055,0.016c0.022-0.014,0.129,0.02,0.128-0.036
		C23.153,19.98,23.068,19.979,23.06,19.98z"/>
	<polygon points="23.032,19.998 23.031,19.997 23.029,19.997 	"/>
	<path d="M22.86,20.167c-0.069,0.011,0.063,0.011,0.083,0.006C22.965,20.125,22.834,20.172,22.86,20.167z"/>
	<path d="M22.942,20.01c-0.017,0.003-0.03,0.005-0.045,0.013c0.009,0,0.009,0,0.019,0C22.929,20.025,22.938,20.021,22.942,20.01z"/>
	<path d="M23.471,20.943c-0.007,0.012,0.071,0.057,0.091,0.014c-0.033,0.01-0.06,0.003-0.079-0.022
		C23.479,20.935,23.473,20.938,23.471,20.943z"/>
	<path d="M26.645,20.348c0.028,0.008,0.028-0.027,0.056-0.03c-0.037-0.062-0.106,0.003-0.035,0.018
		C26.665,20.341,26.654,20.348,26.645,20.348z"/>
	<path d="M23.384,19.932c0.005,0,0.009-0.001,0.012-0.002c-0.002,0-0.007,0-0.008,0S23.385,19.931,23.384,19.932z"/>
	<path d="M23.902,19.888c-0.001-0.004-0.009-0.005-0.018-0.006c0.016,0,0.025,0,0.03-0.006c-0.008,0-0.015,0-0.023,0
		c0.087-0.022,0.183-0.02,0.27-0.044c-0.016,0-0.044,0.002-0.049,0c0.008-0.001,0.107-0.001,0.112-0.012
		c0.007-0.015-0.159,0.01-0.096-0.006c-0.121-0.043-0.463-0.013-0.583,0.032c0.022,0,0.044-0.002,0.066-0.004
		c-0.013,0.002-0.021,0.003-0.035,0.006c0.026,0.004,0.05-0.006,0.076-0.004c-0.027,0.002-0.049,0.002-0.073,0.01
		c0.015,0,0.029-0.001,0.043-0.001c-0.01,0.001-0.02,0.003-0.03,0.004c0.004,0.007,0.025,0.009,0.052,0.009
		c0.015,0.005,0.009,0.007-0.017,0.007c0.011,0.002,0.039,0.012,0.036,0.014c-0.055,0.038-0.063-0.005-0.096,0.014
		c0.015-0.009,0.014-0.012-0.003-0.012c-0.023,0.012-0.09-0.017-0.123-0.016c-0.007,0.004,0.009,0.004,0.018,0.005
		c-0.02,0-0.039,0.002-0.058,0.004c0.001,0.003,0.005,0.003,0.007,0.004c-0.015,0-0.031-0.001-0.042,0.005
		c0.009,0.005,0.02,0.007,0.03,0.006c-0.016,0-0.034,0-0.051,0c-0.014,0.01,0.005,0.01,0.038,0.009
		c-0.002,0.001-0.005,0.001-0.008,0.001c0.027,0,0.07,0.003,0.083,0.005c-0.03,0-0.059,0.003-0.087,0.009
		c0.004,0.006,0.011,0.008,0.017,0.008c0.004,0,0.008,0,0.014-0.001c-0.001,0-0.004,0-0.005,0.001
		c0.025-0.005,0.086-0.001,0.108-0.002c0.001-0.003-0.001-0.003-0.002-0.006c0.027-0.006,0.073-0.01,0.1,0.01
		c-0.017,0.001-0.141-0.013-0.086,0.011c-0.021,0.001-0.041,0.005-0.061,0.01c0.099-0.01,0.254,0.047,0.32-0.018
		c0.004-0.003-0.024-0.001-0.035,0c0.016-0.014,0.052-0.007,0.06-0.026C23.84,19.905,23.861,19.896,23.902,19.888z"/>
	<path d="M23.647,20.827c-0.028-0.015-0.047-0.038-0.104-0.029C23.568,20.816,23.615,20.851,23.647,20.827z"/>
	<path d="M23.567,20.03c-0.01,0.008,0.03,0.017,0.033,0.017c0.027-0.001,0.083,0.001,0.109-0.012
		C23.675,20.028,23.599,20.006,23.567,20.03z"/>
	<path d="M23.643,19.992c0.006-0.003,0.013-0.005,0.02-0.005c-0.003-0.02-0.313,0.007-0.292,0.001
		c-0.008-0.003-0.042,0.003-0.033-0.007c0.014,0,0.027-0.001,0.041-0.001c-0.005-0.016-0.165-0.018-0.181-0.008
		c0.017,0.007,0.033,0.01,0.051,0.01c0.02-0.012,0.032-0.008,0.037,0.013c-0.067,0.012,0.06,0.015,0.078,0.014
		c0.069-0.039,0.214,0.031,0.292-0.017C23.656,19.992,23.649,19.992,23.643,19.992z"/>
</g>
</svg>
