<?xml version="1.0" encoding="utf-8"?>
<!-- Generator: Adobe Illustrator 16.0.4, SVG Export Plug-In . SVG Version: 6.00 Build 0)  -->
<!DOCTYPE svg PUBLIC "-//W3C//DTD SVG 1.1//EN" "http://www.w3.org/Graphics/SVG/1.1/DTD/svg11.dtd">
<svg version="1.1" id="Layer_1" xmlns="http://www.w3.org/2000/svg" xmlns:xlink="http://www.w3.org/1999/xlink" x="0px" y="0px"
	 width="50px" height="50px" viewBox="0 0 50 50" enable-background="new 0 0 50 50" xml:space="preserve">
<g>
	<path d="M22.524,23.526c0.024,0.014,0.048,0.028,0.072,0.042c-0.018-0.02-0.033-0.041-0.043-0.063
		C22.538,23.505,22.53,23.514,22.524,23.526z"/>
	<path d="M21.008,16.417c-0.003,0.005-0.006,0.01-0.01,0.015c0.013-0.019,0.03-0.035,0.044-0.053
		C21.032,16.393,21.018,16.402,21.008,16.417z"/>
	<path d="M21.042,16.378c0.192-0.26,0.409-0.501,0.647-0.72C21.451,15.877,21.234,16.118,21.042,16.378z"/>
	<path d="M21.721,15.625c-0.012,0.011-0.02,0.024-0.032,0.035c0.049-0.044,0.103-0.083,0.153-0.126
		C21.799,15.561,21.757,15.591,21.721,15.625z"/>
	<path d="M21.899,15.473c-0.011,0.009-0.022,0.017-0.032,0.026c0.007-0.001,0.014-0.002,0.022-0.003
		c0.005-0.004,0.01-0.009,0.016-0.013C21.903,15.479,21.907,15.473,21.899,15.473z"/>
	<path d="M21.913,15.461c0.006,0,0.009,0,0.016,0c0.01-0.008,0.02-0.017,0.03-0.024C21.944,15.442,21.931,15.448,21.913,15.461z"/>
	<path d="M20.163,18.398c0.002,0,0.003,0.004,0.005,0.005c0.003-0.016,0.002-0.033,0.005-0.048
		C20.171,18.371,20.166,18.383,20.163,18.398z"/>
	<path d="M20.226,18.141c0.051-0.214,0.116-0.422,0.194-0.625C20.34,17.719,20.276,17.928,20.226,18.141z"/>
	<path d="M20.173,18.355c0.014-0.072,0.035-0.143,0.052-0.215C20.208,18.212,20.188,18.283,20.173,18.355z"/>
	<path d="M20.555,17.201c0.08-0.171,0.17-0.335,0.268-0.494C20.724,16.867,20.634,17.031,20.555,17.201z"/>
	<path d="M20.823,16.707c0.057-0.092,0.112-0.186,0.175-0.274C20.935,16.521,20.88,16.614,20.823,16.707z"/>
	<path d="M20.419,17.516c0.042-0.106,0.086-0.211,0.135-0.315C20.506,17.305,20.461,17.409,20.419,17.516z"/>
	<path d="M21.969,15.417c0.003,0,0.009,0.001,0.013,0c0.032-0.025,0.062-0.054,0.095-0.079
		C22.039,15.359,21.983,15.406,21.969,15.417z"/>
	<path d="M29.702,17.851c0.005,0.018,0.011,0.037,0.016,0.055c-0.004-0.014-0.005-0.029-0.01-0.043
		C29.703,17.859,29.705,17.854,29.702,17.851z"/>
	<path d="M29.359,18.575c-0.067-0.135-0.103-0.228-0.195-0.353c-0.068-0.094-0.167-0.166-0.193-0.286
		c-0.045-0.197-0.369-0.316-0.378-0.533c-0.001-0.032-0.083-0.185-0.075-0.191c0.021-0.016,0.014-0.097,0.016-0.121
		c0.005-0.082,0.023-0.145,0.001-0.227c-0.177,0.047-0.322-0.025-0.501-0.042c0.006-0.002,0.013-0.007,0.015-0.011
		c-0.053-0.045-0.087-0.082-0.149-0.114c0.067-0.07,0-0.041-0.01-0.085c-0.014-0.062,0.148-0.034,0.178-0.045
		c-0.004-0.006-0.023-0.017-0.022-0.026c-0.065-0.01-0.055,0.057-0.126,0.006c-0.055-0.039-0.062-0.016-0.113-0.006
		c0.008,0.016,0.01,0.027,0.008,0.042c0,0-0.086-0.061-0.078-0.016c0.053,0.051,0.082,0.101,0.142,0.151
		c-0.036,0.019-0.069-0.001-0.099-0.028c0.002,0.013,0.02,0.092,0.031,0.098c-0.07-0.008-0.115-0.042-0.084-0.104
		c-0.056-0.006-0.173-0.122-0.185-0.18c-0.019-0.1-0.156-0.114-0.167-0.18c-0.025-0.002-0.311-0.2-0.303-0.142
		c0.014,0.091,0.162,0.217,0.256,0.226c0.014,0.075,0.156,0.057,0.158,0.14c-0.135-0.036-0.082-0.048-0.066,0.05
		c-0.001-0.011-0.078,0.106-0.088,0.046c0.143,0.014-0.312-0.342-0.294-0.3c-0.101-0.104-0.118-0.143-0.25-0.076
		c-0.065,0.033-0.28-0.082-0.224,0.062c-0.004,0.011-0.301,0.138-0.172,0.195c-0.039,0.055-0.1,0.1-0.154,0.122
		c-0.066-0.025-0.188,0.067-0.227,0.007c-0.049-0.077-0.078-0.048-0.158-0.053c-0.08-0.006-0.01-0.275-0.01-0.311
		c0-0.051-0.042-0.119,0.062-0.111c0.089,0.007,0.176,0.03,0.266,0.037c0.1-0.013,0.139,0.023,0.132-0.115
		c-0.002,0.001-0.003,0.002-0.004,0.002c0.06-0.1-0.214-0.129-0.214-0.181c0-0.037,0.16-0.003,0.18-0.007
		c0-0.019-0.012-0.032-0.013-0.054c0.127,0.011,0.146-0.037,0.255-0.061c0.092-0.019,0.078-0.116,0.188-0.107
		c0.033,0.003,0.149,0.008,0.121-0.041c-0.064-0.11-0.063-0.11,0.054-0.156c0.005,0.034,0.022,0.046,0.03,0.061
		c-0.004-0.001-0.012,0.02-0.018,0.043c0.021,0.003,0.037,0.012,0.032,0.041c-0.003-0.02-0.024-0.012-0.038-0.017
		c-0.005,0.026-0.008,0.047-0.003,0.032c0.06,0.006,0.131,0.001,0.19,0.012c-0.011,0.069,0.217-0.01,0.271,0.01
		c-0.002,0.005-0.005,0.012-0.005,0.014c0.021,0.001,0.045,0.002,0.066,0.003c-0.017-0.122,0.205-0.17,0.205-0.138
		c0-0.029-0.099-0.065-0.07-0.079c0.084-0.044,0.183,0.021,0.272-0.012c-0.034-0.037-0.463-0.026-0.399-0.105
		c-0.036-0.01-0.031-0.036-0.049-0.058c0.015,0.002,0.191-0.062,0.188-0.07c-0.035-0.085-0.174-0.01-0.19,0.013
		c0.012,0.04-0.184,0.022-0.174,0.083c0.01,0.063,0.088,0.045,0.104,0.103c0.003,0.01-0.191,0.09-0.068,0.112
		c0.001,0.048-0.146,0.083-0.178,0.081c-0.028-0.003-0.087-0.118-0.102-0.139c-0.037-0.055-0.054-0.095-0.117-0.057
		c-0.021,0.013-0.203,0.06-0.209-0.006c-0.002-0.019,0.031,0.001,0.027-0.029c-0.025-0.002-0.025-0.002-0.047,0.001
		c0.006-0.01,0.016-0.018,0.027-0.024c-0.129-0.089,0.117-0.136,0.173-0.13c-0.021-0.004-0.027-0.006-0.042-0.009
		c0.036-0.002,0.322-0.118,0.332-0.148c-0.04,0.001-0.055,0.008-0.094,0.006c0.008-0.003,0.024-0.006,0.031-0.007
		c-0.009-0.001-0.025-0.003-0.025-0.003c0.004-0.017,0.132-0.005,0.135-0.006c-0.012-0.002-0.012-0.002-0.025-0.002
		c0.021-0.007,0.043-0.01,0.064-0.007c-0.01-0.003-0.007-0.003-0.016-0.005c0.06-0.02,0.133,0,0.194-0.009
		c-0.045-0.008,0.11-0.036,0.097,0.009c0.062,0.006,0.129,0.029,0.196,0.061c-0.762-0.484-1.665-0.766-2.634-0.766
		c-1.086,0-2.081,0.363-2.895,0.959c0.001,0.005,0,0.009-0.001,0.012c0.01,0,0.015,0.005,0.011,0.021
		c0.062-0.016,0.161,0.021,0.151,0.021c0.058-0.003,0.117-0.096,0.197-0.068c-0.005-0.001-0.071,0.04-0.077,0.053
		c-0.029,0.062,0.005,0.024,0.048,0.058c-0.021,0.006-0.062,0.002-0.08,0.015c0.003-0.002,0.011,0.013,0.011,0.013
		c-0.057,0.026-0.391,0.037-0.407,0.022c-0.003-0.002-0.017-0.001-0.029,0c-0.008,0.006-0.016,0.013-0.024,0.02
		c0.001,0.003,0.007,0.002,0.006,0.01c-0.005,0.001-0.014,0.002-0.021,0.003c-0.016,0.013-0.032,0.025-0.047,0.039
		c0.06-0.037,0.126-0.062,0.203-0.034c0.023,0.008,0.092,0.002,0.129-0.03c-0.001,0-0.003,0-0.004,0
		c-0.021,0.003-0.087,0.014-0.078,0.007c0.009-0.007,0.039-0.008,0.078-0.007c0.004,0,0.007,0,0.007,0s-0.001,0-0.002,0
		c0.103,0.003,0.269,0.023,0.329,0.008c-0.01,0.006-0.015,0.011,0.012,0.006c0.042-0.033,0.11-0.023,0.128-0.05
		c-0.014,0.003-0.023,0.004-0.036,0.007c0.013-0.006,0.023-0.012,0.036-0.02c0.013-0.01-0.059-0.016-0.047-0.025
		c0.046-0.034,0.21-0.037,0.172-0.008c-0.018,0.005-0.034,0.011-0.052,0.016c0.003,0.009,0.04,0.001,0.053,0.007
		c-0.054,0.015,0.012,0.003-0.024,0.032c-0.007,0,0.136-0.034,0.108-0.01c-0.034-0.001-0.049,0.01-0.042,0.037
		c0.041,0.038,0.159-0.068,0.189-0.077c-0.001,0-0.244-0.003-0.214-0.027c0.035,0.014,0.064,0.011,0.088-0.009
		c-0.009-0.003-0.083-0.005-0.083-0.005c-0.017-0.033,0.09-0.044,0.108-0.055c-0.028,0.01-0.081,0.005-0.111,0.02
		c0.005,0,0.011,0,0.016,0c-0.025,0.015-0.051,0.021-0.08,0.021c0.087-0.061,0.13-0.06,0.249-0.065
		c-0.018,0.01-0.037,0.013-0.058,0.02c0.057-0.011,0.108-0.011,0.163-0.008c-0.021,0.004-0.116,0.029-0.086,0.029
		c-0.062,0.028,0.203-0.062,0.22-0.017c0.001,0.003-0.012,0.026-0.018,0.026c0.114,0.001,0.208,0.035,0.314,0.04
		c-0.001,0.002-0.001,0.005-0.003,0.008c0.013-0.003,0.024,0,0.034,0.01c-0.013,0.002-0.024,0.001-0.033,0.008
		c0.013-0.002,0.025-0.001,0.037,0.004c-0.015,0.004-0.021,0.004-0.033,0.013c0.009,0.003,0.14,0.048,0.139,0.051
		c-0.009,0.061-0.106,0.033-0.153,0.026c-0.006,0.012-0.015,0.001-0.021,0.019c0.026-0.002,0.036,0.032,0.072,0.027
		c-0.027,0.089-0.023,0.038-0.126,0.055c-0.001-0.001,0.113,0.054,0.053,0.067c-0.076,0.016-0.166-0.038-0.212-0.061
		c-0.019-0.01-0.22,0.013-0.212,0.002c0.043-0.059,0.16-0.04,0.222-0.067c-0.048-0.016,0.127-0.048,0.068-0.091
		c-0.001,0.039-0.095,0.012-0.094,0.011c0.024-0.016,0.051-0.022,0.079-0.02c-0.015-0.007-0.084-0.01-0.086-0.008
		c0.012-0.003,0.023-0.006,0.036-0.009c-0.008-0.008-0.018-0.012-0.027-0.013c0.001,0,0.003-0.001,0.004-0.001
		c-0.03-0.016-0.141,0.013-0.118-0.005c-0.017,0-0.046,0-0.08,0.001c0.024,0.003,0.051,0.014,0.074,0.013
		c-0.045,0.039-0.135,0.083-0.23,0.11c0.02-0.004,0.011,0.004,0.014,0.01c-0.017,0-0.022-0.005-0.016-0.01
		c-0.016,0.004-0.032,0.008-0.048,0.012c0,0.005,0.001,0.008,0,0.013c0.016-0.006,0.082,0.002,0.089,0.02
		c0.001,0.005-0.009,0.011-0.005,0.013c0.014,0.009,0.044,0.004,0.048,0.013c-0.068,0.02-0.181,0.031-0.249,0.034
		c-0.017,0-0.004-0.007,0.007-0.016c-0.021-0.002-0.049,0.002-0.061,0.003c0.022-0.02,0.084-0.054,0.131-0.073
		c-0.052,0.007-0.102,0.007-0.141-0.005c-0.005,0.021,0.046,0.016,0.086,0.02c-0.057,0.049-0.202,0.065-0.289,0.058
		c0.007,0.002,0.015,0.007,0.021,0.012c-0.076,0.068-0.257,0.124-0.352,0.187c0.073-0.012,0.066,0.017,0.018,0.066
		c0.174-0.007,0.156,0.095,0.297,0.09c0.047,0.033-0.022,0.076-0.027,0.102c0.018-0.004,0.046-0.003,0.034,0.014
		c0.014,0.004,0.019,0.01,0.056,0.009c0.068-0.076-0.01-0.104,0.123-0.158c0.166-0.066,0.045-0.066,0.042-0.153
		c0.18-0.04,0.107-0.199,0.346-0.084c0.069,0.033,0.276,0.093,0.327,0c-0.032,0.055-0.011,0.062,0.017,0.07
		c-0.011-0.006-0.021-0.012-0.028-0.022c0.061-0.083,0.194,0.094,0.088,0.128c0.017,0.011,0.031,0.026,0.072,0.026l-0.001,0.003
		c-0.035,0.058,0.14,0.042,0.125,0.061c-0.025,0.023-0.139,0.033-0.186,0.047c0.004,0.025,0.206-0.027,0.224-0.033
		c0.062,0.208-0.558,0.187-0.685,0.289c0.016-0.001,0.326-0.073,0.302-0.028c-0.021,0.038-0.08,0.028-0.112,0.048
		c0.019,0,0.037,0.005,0.048,0.005c-0.111,0.137,0.138,0.121,0.126,0.145c-0.02,0.041-0.234,0.074-0.282,0.099
		c-0.079,0.042,0.004-0.092,0.11-0.097c-0.028,0.003-0.034-0.004-0.018-0.026c-0.08,0.003-0.211,0.094-0.275,0.08
		c-0.067-0.015-0.269,0.153-0.158,0.151c-0.068,0.025-0.17,0.02-0.245,0.053c0.015,0,0.058-0.011,0.068,0.002
		c-0.042,0.011-0.229,0.078-0.217,0.105c-0.034,0.02-0.045,0.129-0.112,0.127c0.004,0.001,0.026-0.094,0.029-0.101
		c-0.014,0.014-0.071,0.111-0.066,0.127c0.004,0,0.01,0.001,0.014,0.001c-0.009,0.023-0.026,0.039-0.052,0.045
		c-0.001,0.015,0.008,0.018,0.017,0.02c-0.02,0.026-0.072,0.015-0.037,0.054c-0.045,0.035-0.103,0.042-0.149,0.074
		c0.001,0.001,0.001,0.002,0.003,0.004c-0.188,0.082-0.357,0.162-0.382,0.388c-0.006,0.057-0.073,0.31-0.158,0.298
		c-0.076-0.01,0.068-0.375,0.059-0.405c-0.001-0.004-0.212-0.038-0.201-0.058c-0.032,0.007-0.064,0-0.101,0.012
		c0.012,0.008,0.009,0.008,0.023,0.001c-0.022,0.036-0.05,0.056-0.04,0.076c-0.062,0.027-0.119-0.098-0.203-0.053
		c-0.125,0.067-0.215,0.125-0.288,0.252c-0.001,0-0.003,0-0.003-0.001c-0.019,0.044-0.387,0.655-0.216,0.691
		c0.231,0.051,0.242-0.276,0.493-0.229c-0.031,0.065-0.087,0.113-0.118,0.178c-0.021,0.043-0.04,0.064-0.06,0.089
		c-0.028,0.049-0.284,0.257-0.062,0.271c0.268,0.017,0.069,0.271,0.016,0.41c-0.047,0.121-0.146,0.524,0.085,0.425
		c0.11-0.048,0.113,0.12,0.13,0.182c-0.007,0.011-0.089,0.087-0.089,0.085c-0.005-0.036,0.037-0.166-0.015-0.185
		c-0.103-0.036-0.112,0.207-0.161,0.186c-0.1-0.041-0.051-0.419-0.125-0.444c-0.008,0.01-0.014,0.026-0.014,0.036
		c-0.006-0.002-0.012-0.004-0.019-0.007c-0.019-0.075,0.047-0.155,0.042-0.235c-0.004-0.072-0.016-0.132,0.004-0.204
		c-0.065-0.021-0.128-0.066-0.162-0.151c-0.013-0.032,0.003-0.19-0.031-0.198c-0.023-0.092-0.065,0.026-0.106,0.015
		c-0.046-0.012-0.061-0.149-0.096-0.163c-0.051,0.284-0.088,0.574-0.088,0.873c0,1.792,0.958,3.359,2.39,4.219
		c-0.029-0.042-0.006-0.087-0.029-0.136c-0.031-0.066-0.083-0.077-0.084-0.17c0-0.183-0.013-0.295-0.086-0.476
		c-0.079-0.104-0.066-0.332-0.087-0.461c-0.044-0.123-0.062-0.249-0.113-0.37c-0.057-0.132-0.215-0.22-0.356-0.239
		c-0.181-0.032-0.21-0.188-0.321-0.308c-0.093-0.1-0.187-0.214-0.261-0.323c-0.038-0.052-0.112-0.056-0.133-0.141
		c-0.02-0.08,0.057-0.113,0.056-0.185c-0.108-0.058-0.076-0.073-0.073-0.191c0.002-0.101,0.139-0.21,0.138-0.312
		c-0.028-0.009-0.036-0.024-0.024-0.047c-0.021-0.097-0.147-0.261-0.021-0.313c-0.025-0.135,0.14-0.227,0.241-0.271
		c0.022-0.01,0.046-0.081,0.076-0.04c0.016,0.016,0.013,0.032-0.008,0.048c0,0.033-0.02,0.189,0.053,0.185
		c0.031-0.002-0.089-0.168,0.076-0.179c-0.015-0.03-0.048-0.016-0.054-0.046c0.059-0.002,0.13,0.049,0.164,0.088
		c0.026,0.029,0.132,0.015,0.168,0.027c0.043,0.016,0.12-0.025,0.184-0.039c0.025,0.111,0.267,0.139,0.334,0.24
		c0.054,0.079,0.285,0.1,0.372,0.097c0.101-0.007,0.273,0.241,0.226,0.304c-0.071,0.095,0.031,0.213,0.122,0.203
		c0.091-0.008,0.007-0.172,0.185-0.098c0.066,0.028,0.091,0.025,0.109,0.103c0.083-0.008,0.188-0.039,0.285-0.012
		c0.096,0.027,0.154,0.088,0.256,0.109c0.218,0.047,0.01,0.448-0.042,0.545c-0.039,0.073,0.074,0.322,0.058,0.432
		c-0.048,0.187-0.076,0.254-0.239,0.357c-0.045,0.028-0.129,0.118-0.118,0.18c0.016,0.054,0.032,0.107,0.05,0.159
		c-0.031,0.036-0.045,0.077-0.044,0.124v-0.002c-0.017,0.121-0.061,0.227-0.084,0.349c-0.015,0.082-0.267,0.12-0.277,0.093
		c0.048,0.125,0.225,0.072,0.142,0.261c-0.03,0.067-0.132,0.081-0.193,0.096c-0.072,0.017,0.003,0.1,0.002,0.139
		c0.033,0.078-0.083,0.04-0.13,0.054c-0.088,0.023,0.133,0.125,0.119,0.094c0.022,0.049-0.053,0.023-0.068,0.027
		c0.021,0.046,0.089,0.16,0.003,0.201c-0.132,0.08,0.1,0.126,0.123,0.191c0.568,0.229,1.188,0.356,1.839,0.356
		c1.861,0,3.479-1.033,4.315-2.557c0.009-0.052,0.027-0.081,0.053-0.102c0.352-0.677,0.551-1.445,0.551-2.261
		c0-0.243-0.022-0.479-0.058-0.712C29.657,18.623,29.489,18.826,29.359,18.575z M27.507,15.494c0,0.018-0.011,0.038-0.034,0.036
		c-0.017-0.001-0.021-0.012-0.022-0.019c0.015,0,0.022-0.005,0.038-0.005C27.447,15.475,27.495,15.489,27.507,15.494z
		 M27.309,15.521c-0.01,0.013-0.021,0.026-0.031,0.04C27.253,15.541,27.298,15.521,27.309,15.521z M27.004,15.61
		c-0.031,0.003-0.031,0.044-0.064,0.035c0.013,0,0.024-0.007,0.023-0.015C26.878,15.615,26.96,15.538,27.004,15.61z M26.52,15.014
		C26.52,15.014,26.52,15.015,26.52,15.014h0.002v0.001c0.011,0.005,0.023,0.008,0.03,0.016
		C26.533,15.028,26.505,15.017,26.52,15.014z M26.602,14.998C26.598,14.999,26.593,15,26.59,15c0.012,0.003,0.021,0.004,0.029,0.006
		c-0.021-0.004,0.051,0.006,0.061,0.008C26.631,14.973,26.73,15,26.73,15c0,0.003-0.002,0.005-0.002,0.008
		c0.021-0.003,0.052,0,0.08,0.006c-0.004-0.002-0.009-0.006-0.011-0.009c0.019,0,0.036,0,0.056,0c-0.006,0-0.057-0.003-0.059-0.003
		c-0.01,0-0.053,0.002-0.061-0.013c0.014,0,0.027,0,0.041,0.001V14.99c0.006,0,0.013,0,0.02,0c-0.002-0.002-0.005-0.003-0.007-0.004
		c0.082,0.001,0.209-0.017,0.285,0.021c-0.027,0.005-0.154,0.025-0.226,0.018c0.01,0.004,0.021,0.007,0.03,0.011
		c-0.004,0-0.009,0-0.013,0c0.037,0.005,0.085,0.01,0.124,0.03c-0.036,0.002-0.05,0.01-0.083,0.012
		c-0.004-0.004-0.004-0.007,0-0.009c-0.018-0.001-0.043-0.002-0.061-0.004c0-0.009,0.016-0.005,0.018-0.012
		c-0.008-0.001-0.02-0.007-0.025-0.012c-0.053,0.012-0.212,0.068-0.217,0.01c0.027,0,0.05,0.002,0.076,0.001
		c-0.01-0.002-0.09,0-0.092-0.012c0,0.001,0.045-0.006,0.071-0.01c-0.03,0.001-0.09,0.007-0.104-0.004c0.003,0,0.004,0,0.008,0
		c-0.019-0.003-0.033-0.008-0.029-0.013c-0.011-0.002-0.022-0.005-0.032-0.011C26.545,14.994,26.573,14.992,26.602,14.998z
		 M22.608,15.678c0.003-0.004,0.007-0.008,0.011-0.012c0.03-0.013,0.059-0.029,0.091-0.021
		C22.686,15.657,22.633,15.675,22.608,15.678z M21.744,18.242c-0.004,0.031-0.022,0.045-0.057,0.044
		C21.654,18.275,21.737,18.249,21.744,18.242z M21.639,17.704c0.014,0.001,0.014,0.016,0.014,0.024
		c-0.022,0.001-0.041-0.004-0.052-0.005C21.61,17.71,21.629,17.702,21.639,17.704z M21.563,17.864
		c0.007-0.012,0.016,0.036,0.011,0.045C21.55,17.96,21.56,17.872,21.563,17.864z M21.108,18.209
		c0.005-0.018,0.016-0.029,0.033-0.032c0.008-0.019,0.007-0.036,0.02-0.021C21.125,18.26,21.118,18.188,21.108,18.209z
		 M21.296,18.618c0.025,0.006,0.047,0.033,0.057,0.044c0-0.003,0-0.006-0.001-0.009c0.011,0.01,0.011,0.022,0.007,0.037
		C21.216,18.694,21.279,18.615,21.296,18.618z M21.36,18.42c0.042-0.1,0.011-0.26-0.139-0.278c-0.04-0.132-0.053,0.034-0.172,0.019
		c0.122-0.155,0.213-0.18,0.347-0.049c0.042,0.042,0.141,0.183,0.135,0.219c0.066,0.02,0.018,0.058,0.049,0.101
		C21.509,18.526,21.436,18.433,21.36,18.42z M21.766,18.703c-0.005-0.048-0.078,0.064-0.094,0.06c-0.001,0-0.107-0.193-0.153-0.068
		c-0.117-0.068,0.112-0.088,0.125-0.081c0.001-0.022,0.005-0.242,0.061-0.157c0.025,0.041,0.064,0.009,0.101,0.015
		c0.075,0.012,0.066,0.087,0.093,0.138c0.009,0.032,0.028,0.101,0.028,0.097C21.92,18.704,21.766,18.704,21.766,18.703z
		 M22.004,18.769c0.017-0.052,0.101,0.019,0.102,0.044C22.08,18.85,21.987,18.823,22.004,18.769z M28.514,16.939
		c0,0.029-0.099,0.089-0.113,0.028C28.43,16.957,28.479,16.941,28.514,16.939z M28.02,16.922c-0.033,0.016-0.108-0.011-0.138-0.027
		C27.928,16.892,27.98,16.908,28.02,16.922z M27.316,16.657c-0.004,0.019-0.006,0.09-0.008,0.09
		c-0.029-0.003-0.156-0.074-0.16-0.098C27.171,16.64,27.289,16.649,27.316,16.657z M26.923,16.316
		c0.001,0.008,0.005,0.018,0.011,0.021c-0.004,0.021-0.004,0.061-0.011,0.071c-0.021-0.006-0.034-0.06-0.046-0.075
		C26.895,16.333,26.909,16.328,26.923,16.316z M26.9,16.482c0-0.016-0.021-0.026-0.024-0.042
		C27.037,16.417,26.922,16.657,26.9,16.482z M26.582,16.497c0.002,0.025-0.044-0.01-0.046-0.012
		C26.561,16.465,26.575,16.469,26.582,16.497z M26.152,15.415c-0.014,0.01-0.03,0.018-0.047,0.024
		c0.021,0.038,0.059,0.043,0.117,0.017c0.006,0.031-0.059,0.057-0.065,0.075c0.075,0.02,0.19,0.097,0.196,0.173
		c0.013-0.002,0.015-0.006,0.022-0.008c0.043-0.021,0.043,0.028-0.002,0.082c0.013,0.002,0.026,0.005,0.041,0.008
		c0.001,0.016-0.336,0.046-0.375,0.043c0.022-0.04,0.133-0.058,0.133-0.08c-0.015,0.014-0.121-0.005-0.121-0.012
		c0-0.025,0.039-0.031,0.039-0.078c0.032,0.002,0.087,0.003,0.087-0.038c-0.031,0-0.055-0.005-0.033-0.033
		c-0.012-0.001-0.093,0.008-0.092-0.012c0-0.044,0.053-0.023-0.013-0.055c-0.011,0.008-0.004,0.012,0,0.018
		c-0.005,0-0.011-0.001-0.015-0.001c0-0.045-0.008-0.036-0.006-0.072c-0.027-0.005-0.043-0.01-0.043-0.024
		c0.004,0,0.051,0.013,0.051,0.007C25.992,15.435,26.154,15.351,26.152,15.415z M26.066,15.62c0-0.006,0-0.012,0.014-0.015
		c0.001,0,0.007,0,0.009,0c0,0.003-0.002,0.009-0.002,0.016C26.083,15.621,26.078,15.621,26.066,15.62z M25.996,15.407
		c-0.001,0.012-0.018,0.024-0.037,0.023C25.92,15.426,25.991,15.407,25.996,15.407z M25.795,15.605
		c0.002-0.022,0.064-0.015,0.08-0.023c-0.036-0.04,0.062-0.036,0.081-0.034c0.112,0.008,0.028,0.059,0.028,0.072
		c-0.002,0.091-0.063,0.121-0.164,0.113c-0.105-0.007,0.004-0.072,0.013-0.099C25.82,15.625,25.809,15.616,25.795,15.605z
		 M22.967,15.123c-0.004,0.002-0.009,0.005-0.013,0.007c0.019,0-0.043,0.003-0.026-0.006C22.943,15.123,22.959,15.123,22.967,15.123
		z M22.922,15.167c-0.031-0.024,0.092-0.033,0.063,0C22.957,15.169,22.863,15.174,22.922,15.167z M23.03,15.173
		c-0.01,0.007-0.021,0.01-0.034,0.01c-0.006,0-0.067-0.002-0.067-0.002C22.962,15.173,22.996,15.176,23.03,15.173z M22.688,15.16
		c0.004-0.001,0.01-0.002,0.015-0.004c-0.016,0-0.018-0.001-0.009-0.005c0.033-0.003,0.131-0.014,0.156,0.01
		c-0.005,0.001-0.012,0.003-0.016,0.004c0.011,0.01-0.027,0.016-0.069,0.017c-0.01,0.002-0.022,0.003-0.037,0.003
		c0.007,0,0.017-0.002,0.026-0.003c-0.036,0-0.072-0.004-0.079-0.011c0.019,0.002,0.036-0.002,0.051-0.011
		C22.702,15.159,22.692,15.162,22.688,15.16z M22.646,15.199c-0.007,0.003-0.018,0.006-0.025,0.006c-0.013,0-0.019-0.01-0.009-0.016
		C22.641,15.188,22.628,15.197,22.646,15.199z M22.445,15.185c-0.015-0.003-0.031-0.002-0.046,0.003
		c0.019-0.01,0.077-0.006,0.11-0.007c-0.006,0-0.011,0.002-0.017,0.002c0.003,0.001,0.005,0.003,0.006,0.007
		c-0.066,0.007-0.074,0.008-0.025,0.006c-0.015,0.009-0.058,0.015-0.082,0.016C22.363,15.211,22.406,15.193,22.445,15.185z
		 M22.328,15.224c-0.01,0.006-0.022,0.01-0.035,0.008c-0.005,0-0.01-0.002-0.003-0.006C22.303,15.226,22.315,15.225,22.328,15.224z
		 M22.277,15.21c0.016,0.005,0.009,0.009-0.019,0.011c-0.011,0.016-0.027,0.022-0.05,0.02C22.226,15.218,22.249,15.208,22.277,15.21
		z M22.24,15.273c0-0.001,0-0.001,0-0.003c-0.008,0-0.018,0.004-0.022,0.007c-0.023,0.005-0.046,0.006-0.069,0.005
		c0.011-0.017,0.025-0.023,0.042-0.022c-0.003,0-0.006-0.001-0.008-0.001c0.011-0.009,0.021-0.009,0.035-0.008
		c-0.002,0-0.005-0.001-0.007-0.002c0.012-0.004,0.022-0.006,0.035-0.006c-0.004-0.001-0.005-0.002,0-0.005
		c0.056-0.006,0.114,0.034,0.174,0.01c-0.012,0.001-0.017,0-0.02,0c0.01,0,0.018-0.003,0.024-0.009
		c-0.048-0.001,0.056-0.021,0.066-0.021c-0.055,0.027,0.059,0.019,0.049,0.025C22.457,15.292,22.328,15.253,22.24,15.273z
		 M22.573,15.249c-0.004,0.012-0.016,0.017-0.032,0.015c-0.011,0-0.011,0-0.021,0C22.538,15.254,22.554,15.251,22.573,15.249z
		 M22.477,15.433c-0.031,0.006,0.124-0.049,0.098,0.007C22.552,15.444,22.396,15.444,22.477,15.433z M22.651,15.314
		c0.017-0.001,0.061-0.015,0.028,0.007c0.005,0.001,0.019,0.001,0.025,0.002c-0.045,0.027-0.16,0.066-0.203,0.007
		c0.032-0.021,0.062,0.002,0.097-0.021c-0.091-0.002,0.112-0.012,0.121-0.017C22.697,15.302,22.675,15.311,22.651,15.314z
		 M22.671,15.254c0.016-0.011,0.049-0.014,0.064-0.019c-0.015-0.005-0.036-0.004-0.058-0.003h0.001c0,0-0.001,0-0.003,0
		c-0.024,0.002-0.05,0.006-0.066,0.007c0.001-0.002,0.002-0.003,0.004-0.005c-0.014,0.001-0.017-0.001-0.021-0.003l0.015-0.009
		c0,0,0,0,0,0.001c0-0.015,0.054,0.005,0.069,0.009h0.002c-0.004-0.002-0.007-0.004-0.008-0.006
		c0.024-0.014,0.046,0.008,0.073-0.008c-0.02,0-0.036,0.001-0.03-0.005c0.009-0.001,0.11,0,0.11,0
		C22.823,15.277,22.697,15.237,22.671,15.254z M22.807,15.25c0.007-0.004,0.024-0.007,0.027-0.007
		c0.025-0.014,0.051-0.016,0.078-0.008C22.949,15.254,22.808,15.25,22.807,15.25z M23.071,15.247
		c-0.022,0.001-0.171-0.002-0.092-0.016c-0.005-0.025-0.02-0.03-0.043-0.016c-0.021,0-0.041-0.004-0.061-0.012
		c0.019-0.012,0.207-0.009,0.213,0.009c-0.016,0-0.032,0.001-0.049,0.001c-0.011,0.012,0.03,0.005,0.039,0.008
		c-0.025,0.007,0.34-0.025,0.344-0.001c-0.008,0-0.017,0.001-0.024,0.005c0.008,0.001,0.016,0,0.016,0
		C23.324,15.284,23.152,15.201,23.071,15.247z M23.349,15.292c-0.003,0-0.05-0.011-0.039-0.02c0.038-0.029,0.128-0.002,0.167,0.005
		C23.446,15.292,23.381,15.291,23.349,15.292z M23.556,15.16c-0.078,0.076-0.261,0.009-0.378,0.021
		c0.023-0.006,0.047-0.01,0.072-0.012c-0.064-0.028,0.082-0.011,0.101-0.013c-0.031-0.024-0.085-0.021-0.117-0.012
		c0,0.003,0.004,0.004,0.002,0.007c-0.026,0-0.102-0.005-0.129,0.002c-0.004,0-0.007,0.001-0.012,0.002
		c0.001-0.001,0.003-0.001,0.005-0.001c-0.008,0-0.015-0.003-0.02-0.01c0.034-0.007,0.068-0.011,0.103-0.011
		c-0.015-0.001-0.066-0.006-0.098-0.005c0.003,0,0.006,0,0.009-0.002c-0.039,0.001-0.061,0.001-0.045-0.01c0.02,0,0.042,0,0.061,0
		c-0.013,0.001-0.025,0-0.036-0.007c0.013-0.008,0.032-0.006,0.05-0.006c-0.002-0.001-0.006-0.002-0.008-0.005
		c0.022-0.003,0.045-0.004,0.068-0.005c-0.01-0.001-0.029-0.001-0.021-0.006c0.039,0,0.118,0.033,0.145,0.019
		c0.019,0,0.021,0.003,0.003,0.014c0.039-0.022,0.049,0.028,0.113-0.017c0.003-0.002-0.03-0.014-0.042-0.016
		c0.03,0,0.038-0.002,0.02-0.008c-0.032,0-0.057-0.003-0.062-0.011c0.012-0.002,0.024-0.003,0.036-0.005
		c-0.017,0.001-0.034,0.001-0.051,0.002c0.028-0.009,0.054-0.009,0.086-0.012c-0.03-0.002-0.059,0.01-0.089,0.004
		c0.017-0.003,0.026-0.004,0.042-0.007c-0.026,0.002-0.052,0.004-0.079,0.005c0.143-0.053,0.545-0.089,0.688-0.038
		c-0.074,0.019,0.122-0.01,0.113,0.007c-0.006,0.013-0.123,0.013-0.132,0.015c0.006,0.002,0.039-0.001,0.058-0.001
		c-0.103,0.03-0.215,0.026-0.318,0.053c0.01,0,0.019,0,0.028,0c-0.006,0.007-0.017,0.007-0.036,0.007
		c0.01,0.001,0.02,0.002,0.021,0.007c-0.048,0.009-0.072,0.021-0.12,0.024c-0.009,0.022-0.052,0.014-0.071,0.031
		C23.527,15.158,23.561,15.156,23.556,15.16z M23.405,16.21c-0.039,0.028-0.093-0.012-0.123-0.034
		C23.35,16.167,23.373,16.193,23.405,16.21z M23.197,16.348c0.002-0.005,0.009-0.009,0.015-0.01c0.023,0.03,0.054,0.039,0.093,0.026
		C23.28,16.416,23.189,16.362,23.197,16.348z M23.342,16.396c0.021-0.024,0.046-0.042,0.076-0.055c0,0.007,0.01,0.01,0.007,0.016
		c-0.009,0.018-0.043,0.025,0.005,0.025C23.416,16.413,23.332,16.417,23.342,16.396z M23.607,16.328c0.001,0-0.1,0.052-0.096,0.042
		c0.01-0.012,0.021-0.021,0.036-0.026c-0.025,0-0.25-0.017-0.249-0.019c0.011-0.022,0.045-0.015,0.056-0.038
		c-0.006,0-0.013-0.003-0.013-0.008c0.089-0.027,0.159-0.161,0.253-0.161c0.029,0-0.086,0.094-0.088,0.099
		c0.021-0.014,0.043-0.016,0.067-0.004c-0.011,0.002-0.018,0.01-0.02,0.021c0.013,0,0.025,0,0.039,0
		c0,0.001-0.004,0.007-0.004,0.007c0.01-0.001,0.02-0.003,0.029-0.006c0.022,0.005,0.05,0.005,0.063,0
		c-0.006,0.014-0.014,0.028-0.023,0.051c0.005-0.003,0.018-0.004,0.026-0.004c-0.018,0.033-0.014,0.016-0.026,0.049
		c0.022,0,0.017-0.002,0.033-0.009C23.646,16.437,23.65,16.373,23.607,16.328z M24.862,15.302c-0.02,0.06-0.093-0.037-0.105,0
		c0.018,0.01,0.118,0.026,0.106,0.066c-0.007,0.026-0.128-0.019-0.145-0.023c-0.005,0.02,0.014,0.02-0.021,0.022
		c-0.006,0.019,0.106,0.018,0.131,0.021c-0.104,0.036-0.221,0.056-0.332,0.053c-0.072,0.021-0.114,0.068-0.197,0.066
		c0.001-0.004,0.003-0.008,0.004-0.012c-0.077,0.014-0.167,0.169-0.208,0.166c-0.026-0.002-0.213-0.088-0.145-0.125
		c-0.015-0.017-0.069-0.023-0.037-0.067c-0.005-0.001-0.011-0.002-0.016,0c0.012-0.04,0.078-0.048,0.103-0.078
		c-0.023-0.005-0.08-0.007-0.078-0.022c0.022-0.005,0.054,0.023,0.069,0c-0.007-0.001-0.061-0.032-0.081-0.03
		c0.023-0.012,0.024-0.021,0.002-0.026c0.033-0.085-0.146-0.085-0.194-0.072c0.002,0.001,0.003,0.002,0.005,0.003
		c-0.016,0.004-0.031,0.002-0.046-0.007c0.007-0.002,0.011-0.003,0.015-0.006c-0.014-0.006-0.029-0.009-0.044-0.005
		c0.018-0.027,0.079,0,0.101-0.024c-0.01,0-0.119,0.008-0.112-0.007c0.021-0.045,0.134-0.001,0.161-0.051
		c-0.016,0.002-0.031,0.001-0.046-0.005c0.026-0.051,0.274-0.062,0.311-0.064c0.009-0.017,0.037-0.013,0.056-0.006
		c-0.001-0.002-0.004-0.004-0.002-0.007c0.012-0.019,0.11,0,0.132,0c-0.016,0-0.029-0.003-0.041-0.012
		c0.012-0.004,0.025-0.007,0.037-0.006c-0.004-0.002-0.011-0.002-0.013-0.004c0.246-0.057,0.519-0.042,0.771-0.037
		c-0.018,0.015-0.046,0.024-0.081,0.031c0.028-0.003,0.048-0.004,0.047-0.001c-0.002,0.002-0.101,0.034-0.107,0.039
		c0.028-0.003,0.504-0.062,0.5-0.054c-0.015,0.023-0.116,0.03-0.169,0.032c-0.014,0.026-0.207,0.068-0.242,0.087
		c0.03-0.004,0.06-0.002,0.089,0.006c-0.007,0.001-0.018,0.003-0.025,0.004c0.019,0.001,0.035,0.007,0.051,0.016
		c-0.014,0.033-0.115-0.013-0.128,0.02c-0.003,0.007,0.06,0.003,0.049,0.03c-0.009,0.025-0.042,0.001-0.05,0.02
		c0.016,0.01,0.032,0.013,0.05,0.011c-0.011,0.009-0.04,0.015-0.066,0.016c-0.001,0.004,0.004,0.007,0.01,0.009
		c-0.033,0.039-0.094,0.01-0.132,0.01C24.821,15.283,24.842,15.292,24.862,15.302z M24.924,15.411c0.02,0.001,0.056,0,0.073-0.002
		c0.002,0.002-0.056-0.025-0.054-0.033c0.019-0.002,0.05-0.012,0.07-0.01c-0.019,0.043,0.025,0.027,0.041,0.019
		c0.014,0.02,0.04,0.003,0.06,0.015c0.002-0.018,0.152-0.001,0.17,0c-0.04,0.01,0.019,0.04,0.008,0.057
		c-0.144,0.063-0.219,0.005-0.354-0.007c0.005-0.001,0.01-0.003,0.014-0.003c0.008-0.012,0.015-0.017,0.024-0.027
		C24.959,15.415,24.931,15.421,24.924,15.411z M28.964,20.305c-0.016,0.075-0.084,0.117-0.085,0.198
		c-0.001,0.083,0.02,0.164,0.018,0.246c0,0.086,0.117,0.178,0.082,0.256c-0.101,0.215,0.092,0.433-0.158,0.587
		c-0.086,0.053-0.199,0.103-0.219,0.216c-0.158,0.032-0.012,0.223-0.015,0.301c-0.006,0.181-0.042,0.143-0.155,0.236
		c-0.119,0.1-0.004,0.188-0.105,0.308c-0.094,0.11-0.145,0.244-0.229,0.361c-0.037,0.049-0.216,0.112-0.223,0.152
		c-0.096,0.01-0.177-0.014-0.271,0.036c-0.088,0.046-0.19-0.018-0.223,0.002c0.003-0.316-0.249-0.554-0.285-0.885
		c-0.017-0.152-0.021-0.21-0.091-0.349c-0.073-0.145-0.136-0.308-0.106-0.474c0.022-0.118,0.117-0.2,0.145-0.314
		c0.027-0.115-0.025-0.291-0.057-0.401c-0.031-0.119-0.041-0.266-0.117-0.364c-0.077-0.098-0.215-0.229-0.163-0.368
		c0.078-0.216,0.116-0.438-0.196-0.432c-0.096,0.001-0.086-0.188-0.197-0.186c-0.151,0.003-0.277,0.179-0.403,0.183
		c-0.054,0.001-0.095-0.047-0.149-0.045c-0.066,0.002-0.113,0.039-0.173,0.06c-0.129,0.043-0.226-0.085-0.307-0.166
		c-0.108-0.109-0.129-0.258-0.23-0.369c-0.057-0.062-0.111-0.127-0.156-0.2c0.002,0,0.005,0,0.007,0
		c0.001-0.089-0.054-0.171-0.011-0.239c0.044-0.069,0.075-0.166,0.078-0.249c0.004-0.116-0.078-0.287-0.017-0.395
		c0.046-0.082,0.078-0.163,0.117-0.249c0.048-0.106,0.095-0.239,0.212-0.282c0.065-0.024,0.142-0.089,0.163-0.157
		c0.023-0.072,0.007-0.156,0.053-0.219c0.066-0.093,0.146-0.175,0.216-0.266c-0.002,0-0.003,0-0.004,0
		c0.078-0.105,0.2,0.012,0.337-0.068c0.109-0.062,0.248-0.131,0.377-0.137c0.086-0.003,0.165,0,0.253-0.004
		c0.042-0.001,0.095-0.078,0.134-0.019c0.021,0.027,0.043,0.029,0.067,0.005c-0.004,0.076-0.037,0.14-0.037,0.225
		c-0.001,0.15,0.144,0.101,0.229,0.129c0.082,0.026,0.395,0.367,0.389,0.105c-0.005-0.227,0.329-0.032,0.412-0.002
		c0.117,0.042,0.208,0.057,0.324,0.013c0.088-0.032,0.166,0.025,0.258,0c0.053,0.133,0.049,0.169,0.017,0.307
		c-0.051-0.008-0.1-0.137-0.144-0.185c0.008,0.142,0.143,0.312,0.208,0.438c0.044,0.085,0.055,0.171,0.103,0.253
		c0.057,0.095,0.031,0.227,0.1,0.305c0.074,0.083,0.102,0.122,0.125,0.234c0.033,0.149,0.271,0.245,0.304,0.384
		c0.046,0.202,0.11,0.153,0.276,0.123c0.094-0.02,0.182-0.068,0.27-0.098c0.098,0.231-0.16,0.68-0.289,0.872
		C29.27,19.939,29.025,20.019,28.964,20.305z"/>
	<path d="M28.098,15.455c0.086,0.079,0.166,0.156,0.234,0.217c0.343,0.315,0.643,0.681,0.882,1.079
		c-0.005,0-0.011,0.002-0.015,0.004c0.164,0.238,0.292,0.506,0.396,0.782c-0.059-0.083-0.259-0.208-0.162-0.013
		c0.047,0.096,0.162,0.146,0.197,0.239c0.023-0.003,0.01-0.036,0.031-0.038c0.021,0.044,0.005,0.091,0.041,0.125
		C29.413,16.898,28.852,16.065,28.098,15.455z"/>
	<path d="M29.85,18.495c-0.031-0.201-0.076-0.397-0.132-0.589C29.773,18.098,29.816,18.293,29.85,18.495z"/>
	<path d="M22.106,15.313c-0.01,0.007-0.02,0.013-0.029,0.02c0.002,0,0.004,0,0.006,0C22.091,15.328,22.098,15.32,22.106,15.313
		C22.105,15.314,22.106,15.314,22.106,15.313z"/>
	<rect x="26.521" y="15.015" width="0" height="0.001"/>
	<path d="M23.099,15.153c0.001,0,0.006,0,0.007,0c0.003,0,0.006-0.001,0.009-0.001C23.109,15.153,23.104,15.153,23.099,15.153z"/>
	<path d="M22.455,16.076C22.455,16.075,22.454,16.075,22.455,16.076c-0.008-0.003-0.031-0.003-0.033-0.006
		C22.432,16.074,22.443,16.077,22.455,16.076z"/>
	<path d="M21.982,15.417c-0.008,0.007-0.016,0.014-0.024,0.02c0.025-0.01,0.051-0.015,0.09-0.019
		C22.03,15.41,22.002,15.416,21.982,15.417z"/>
	<polygon points="22.083,15.334 22.078,15.338 22.084,15.334 	"/>
	<path d="M29.85,18.495c0.004,0.023,0.008,0.046,0.012,0.069c0.002,0,0.003-0.001,0.004-0.001
		C29.861,18.54,29.854,18.518,29.85,18.495z"/>
	<rect x="8.824" y="26.939" width="10.784" height="7.01"/>
	<polygon points="12.598,34.567 11.52,35.646 16.912,35.646 15.833,34.567 	"/>
	<rect x="30.393" y="26.939" width="10.783" height="7.01"/>
	<polygon points="34.167,34.567 33.088,35.646 38.48,35.646 37.402,34.567 	"/>
	<path d="M18.268,21.548c0.128,0,0.256-0.049,0.354-0.146l0.109-0.109c0.195-0.195,0.195-0.512,0-0.707
		c-0.195-0.195-0.512-0.195-0.707,0l-0.109,0.109c-0.195,0.195-0.195,0.512,0,0.707C18.012,21.5,18.14,21.548,18.268,21.548z"/>
	<path d="M15.891,23.925c0.128,0,0.256-0.049,0.354-0.146l0.203-0.203c0.195-0.195,0.195-0.512,0-0.707
		c-0.195-0.195-0.512-0.195-0.707,0l-0.203,0.203c-0.195,0.195-0.195,0.512,0,0.707C15.635,23.876,15.763,23.925,15.891,23.925z"/>
	<path d="M17.08,22.736c0.128,0,0.256-0.049,0.354-0.146l0.202-0.202c0.195-0.195,0.195-0.512,0-0.707
		c-0.195-0.195-0.512-0.195-0.707,0l-0.202,0.202c-0.195,0.195-0.195,0.512,0,0.707C16.824,22.688,16.952,22.736,17.08,22.736z"/>
	<path d="M14.702,25.115c0.128,0,0.256-0.049,0.354-0.146l0.203-0.203c0.195-0.195,0.195-0.512,0-0.707
		c-0.195-0.195-0.512-0.195-0.707,0l-0.203,0.203c-0.195,0.195-0.195,0.512,0,0.707C14.446,25.065,14.574,25.115,14.702,25.115z"/>
	<path d="M13.607,26.209c0.128,0,0.256-0.049,0.354-0.146l0.109-0.109c0.195-0.195,0.195-0.512,0-0.707
		c-0.195-0.195-0.512-0.195-0.707,0l-0.109,0.109c-0.195,0.195-0.195,0.512,0,0.707C13.352,26.16,13.479,26.209,13.607,26.209z"/>
	<path d="M31.378,21.401c0.099,0.098,0.226,0.146,0.354,0.146c0.127,0,0.256-0.049,0.354-0.146c0.195-0.195,0.195-0.512,0-0.707
		l-0.109-0.109c-0.194-0.195-0.512-0.195-0.707,0c-0.194,0.195-0.194,0.512,0,0.707L31.378,21.401z"/>
	<path d="M33.553,23.577l0.203,0.203c0.098,0.098,0.227,0.146,0.354,0.146c0.129,0,0.257-0.049,0.354-0.146
		c0.195-0.195,0.195-0.512,0-0.707l-0.203-0.203c-0.194-0.195-0.512-0.195-0.706,0C33.359,23.064,33.357,23.381,33.553,23.577z"/>
	<path d="M34.742,24.766l0.203,0.203c0.098,0.098,0.226,0.146,0.354,0.146s0.256-0.049,0.354-0.146c0.195-0.195,0.195-0.512,0-0.707
		l-0.202-0.203c-0.195-0.195-0.513-0.195-0.707,0C34.548,24.253,34.546,24.569,34.742,24.766z"/>
	<path d="M32.365,22.389l0.201,0.202c0.099,0.098,0.227,0.146,0.354,0.146s0.256-0.049,0.354-0.146c0.195-0.195,0.195-0.512,0-0.707
		l-0.202-0.202c-0.195-0.195-0.513-0.195-0.707,0C32.171,21.876,32.169,22.192,32.365,22.389z"/>
	<path d="M35.93,25.953l0.109,0.109c0.098,0.098,0.227,0.146,0.354,0.146c0.129,0,0.256-0.049,0.354-0.146
		c0.194-0.195,0.194-0.512,0-0.707l-0.108-0.109c-0.195-0.195-0.513-0.195-0.707,0C35.736,25.441,35.734,25.758,35.93,25.953z"/>
</g>
</svg>
