<?xml version="1.0" encoding="utf-8"?>
<!-- Generator: Adobe Illustrator 16.0.4, SVG Export Plug-In . SVG Version: 6.00 Build 0)  -->
<!DOCTYPE svg PUBLIC "-//W3C//DTD SVG 1.1//EN" "http://www.w3.org/Graphics/SVG/1.1/DTD/svg11.dtd">
<svg version="1.1" id="Layer_1" xmlns="http://www.w3.org/2000/svg" xmlns:xlink="http://www.w3.org/1999/xlink" x="0px" y="0px"
	 width="50px" height="50px" viewBox="0 0 50 50" enable-background="new 0 0 50 50" xml:space="preserve">
<g>
	<g>
		<polygon points="22,31.073 20,33.073 30,33.073 28,31.073 		"/>
	</g>
	<g>
		<path d="M21.662,23.039c-0.123,0-0.182,0.097-0.182,0.291v0.882c0,0.194,0.059,0.291,0.182,0.291c0.122,0,0.181-0.097,0.181-0.291
			V23.33C21.843,23.136,21.784,23.039,21.662,23.039z"/>
	</g>
	<g>
		<path d="M28.139,22.672c-0.139,0-0.268,0.076-0.389,0.225v-0.91h-0.376v2.785h0.376v-0.201c0.125,0.155,0.254,0.23,0.389,0.23
			c0.148,0,0.25-0.079,0.301-0.233c0.024-0.088,0.037-0.226,0.037-0.418v-0.826c0-0.196-0.013-0.333-0.037-0.417
			C28.389,22.751,28.287,22.672,28.139,22.672z M28.102,24.179c0,0.188-0.057,0.28-0.164,0.28c-0.062,0-0.125-0.03-0.188-0.092
			v-1.264c0.062-0.062,0.125-0.092,0.188-0.092c0.107,0,0.164,0.096,0.164,0.283V24.179z"/>
	</g>
	<g>
		<polygon points="24.602,22.38 25.044,22.38 25.044,24.772 25.462,24.772 25.462,22.38 25.913,22.38 25.913,21.988 24.602,21.988 
					"/>
	</g>
	<g>
		<path d="M26.672,24.283c-0.083,0.118-0.162,0.176-0.236,0.176c-0.051,0-0.08-0.03-0.09-0.087
			c-0.003-0.013-0.003-0.059-0.003-0.146v-1.527h-0.375v1.641c0,0.146,0.013,0.245,0.032,0.308c0.037,0.105,0.121,0.155,0.243,0.155
			c0.138,0,0.28-0.083,0.429-0.255v0.226h0.376v-2.075h-0.376V24.283L26.672,24.283z"/>
	</g>
	<g>
		<path d="M29.335,22.672c-0.19,0-0.342,0.07-0.448,0.212c-0.082,0.105-0.117,0.268-0.117,0.489V24.1
			c0,0.22,0.041,0.384,0.121,0.488c0.107,0.142,0.258,0.213,0.455,0.213c0.195,0,0.35-0.075,0.454-0.225
			c0.046-0.066,0.074-0.142,0.087-0.226c0.004-0.038,0.01-0.121,0.01-0.242v-0.055h-0.385c0,0.151-0.005,0.234-0.009,0.255
			c-0.021,0.1-0.075,0.15-0.168,0.15c-0.129,0-0.19-0.096-0.19-0.288v-0.367h0.752v-0.43c0-0.222-0.039-0.384-0.117-0.489
			C29.673,22.743,29.523,22.672,29.335,22.672z M29.52,23.491h-0.375v-0.192c0-0.192,0.062-0.288,0.188-0.288
			c0.125,0,0.188,0.096,0.188,0.288V23.491z"/>
	</g>
	<g>
		<path d="M15,16.927v13h20v-13H15z M20.591,23.68v1.139h-0.422V23.68c-0.038-0.202-0.122-0.498-0.258-0.89
			c-0.088-0.261-0.183-0.523-0.271-0.784h0.443l0.299,1.105l0.287-1.105h0.426L20.591,23.68z M22.223,24.14
			c0,0.223-0.037,0.388-0.117,0.494c-0.104,0.143-0.252,0.214-0.442,0.214c-0.188,0-0.338-0.072-0.442-0.214
			c-0.08-0.105-0.119-0.271-0.119-0.494v-0.734c0-0.224,0.039-0.387,0.119-0.494c0.104-0.143,0.254-0.215,0.442-0.215
			c0.19,0,0.338,0.072,0.442,0.215c0.08,0.106,0.117,0.27,0.117,0.494V24.14z M23.628,24.819h-0.38V24.59
			c-0.15,0.173-0.296,0.258-0.436,0.258c-0.121,0-0.207-0.05-0.244-0.156c-0.021-0.064-0.033-0.164-0.033-0.312v-1.658h0.379v1.543
			c0,0.089,0,0.135,0.005,0.148c0.008,0.059,0.038,0.089,0.089,0.089c0.076,0,0.155-0.059,0.24-0.178v-1.603h0.38V24.819
			L23.628,24.819z M30.249,24.897c-0.075,0.331-0.347,0.575-0.672,0.611c-0.771,0.086-1.552,0.088-2.329,0.086
			c-0.777,0.002-1.559,0-2.329-0.086c-0.326-0.036-0.597-0.28-0.672-0.611c-0.108-0.471-0.108-0.985-0.108-1.471
			c0-0.486,0.002-0.999,0.109-1.47c0.075-0.331,0.348-0.575,0.672-0.611c0.771-0.086,1.553-0.087,2.329-0.086
			c0.776,0,1.56,0,2.329,0.086c0.326,0.036,0.597,0.28,0.673,0.611c0.108,0.471,0.106,0.985,0.106,1.47
			C30.357,23.911,30.357,24.426,30.249,24.897z"/>
	</g>
</g>
</svg>
