<?xml version="1.0" encoding="utf-8"?>
<!-- Generator: Adobe Illustrator 16.0.0, SVG Export Plug-In . SVG Version: 6.00 Build 0)  -->
<!DOCTYPE svg PUBLIC "-//W3C//DTD SVG 1.1//EN" "http://www.w3.org/Graphics/SVG/1.1/DTD/svg11.dtd">
<svg version="1.1" id="Layer_2" xmlns="http://www.w3.org/2000/svg" xmlns:xlink="http://www.w3.org/1999/xlink" x="0px" y="0px"
	 width="100px" height="100px" viewBox="0 0 100 100" enable-background="new 0 0 100 100" xml:space="preserve">
<g>
	<g>
		<path d="M56.495,93.555c-0.203,0-0.403-0.03-0.597-0.088c-0.115-0.033-0.247-0.086-0.373-0.153
			c-0.83-0.442-1.257-1.387-1.045-2.298c1.208-5.135,1.395-8.427,1.417-11.221c0.02-1.513-0.264-3.172-0.564-4.93
			c-0.286-1.68-0.579-3.396-0.686-5.266c-0.091-1.549,0.956-2.902,1.279-3.28c0.399-0.462,0.97-0.723,1.571-0.723
			c0.062,0,0.193,0.008,0.254,0.016c0.694,0.088,1.29,0.512,1.599,1.136c5.441,11.009,5.015,19.317-1.342,26.148
			C57.617,93.315,57.065,93.555,56.495,93.555z M57.71,70.333c0.128,1.379,0.355,2.711,0.576,4.007
			c0.327,1.917,0.633,3.708,0.61,5.486c-0.017,2.15-0.125,4.583-0.672,7.829C60.999,82.918,60.816,77.472,57.71,70.333z
			 M50.521,64.288c-5.63,0-11.223-1.228-16.176-3.55c-11.451-5.369-17.233-16.27-15.469-29.159c0.458-3.34,4.645-5.042,7.428-4.274
			c3.716,1.022,4.618,4.467,4.223,7.35c-0.568,4.149,0.488,7.898,3.054,10.84c3.608,4.135,10.258,6.705,17.355,6.705
			c2.618,0,5.173-0.363,7.39-1.05c3.616-1.121,10.387-4.497,11.127-9.478c-2.269,0.378-4.594,0.79-6.816,1.464
			c-2.062,0.62-4.874-0.299-6.404-2.048c-0.977-1.116-1.415-2.476-1.233-3.828c1.057-7.88,4.222-12.513,9.151-13.398
			c0.79-0.143,1.593-0.215,2.385-0.215c4.1,0,7.893,1.875,10.682,5.279c3.578,4.368,4.917,9.527,3.875,14.92
			c-1.239,6.406-5.736,12.293-12.028,15.75C63.475,62.665,57.063,64.288,50.521,64.288z M24.842,30.115
			c-1.292,0-2.846,0.8-2.992,1.871c-1.578,11.52,3.57,21.253,13.77,26.036c4.557,2.137,9.71,3.266,14.902,3.266
			c6.038,0,11.951-1.495,17.098-4.322c5.52-3.031,9.455-8.149,10.527-13.689c0.868-4.489-0.255-8.793-3.25-12.449
			c-2.634-3.216-6.403-4.702-10.214-4.013c-4.45,0.799-6.104,6.338-6.709,10.844c-0.067,0.496,0.107,0.984,0.518,1.453
			c0.632,0.723,1.745,1.228,2.707,1.228c0.212,0,0.404-0.025,0.569-0.076c2.615-0.793,5.264-1.232,7.826-1.657l1.218-0.202
			c0.443-0.072,0.897,0.056,1.236,0.354c0.338,0.297,0.524,0.731,0.508,1.181l-0.044,1.231c-0.386,8.6-11.977,12.435-13.297,12.844
			c-2.5,0.775-5.362,1.185-8.275,1.185c-7.939,0-15.456-2.963-19.618-7.732c-3.153-3.615-4.456-8.186-3.766-13.22
			c0.172-1.255,0.135-3.45-2.046-4.05C25.312,30.143,25.088,30.115,24.842,30.115z M64.9,20.447c-0.29,0-0.572-0.054-0.841-0.16
			l-7.644-2.995c-0.677-0.263-1.194-0.844-1.379-1.552c-0.186-0.707-0.019-1.467,0.446-2.032l5.274-6.431
			c0.65-0.791,1.8-1.056,2.728-0.629l7.79,3.571c0.667,0.308,1.149,0.918,1.292,1.635c0.143,0.719-0.069,1.469-0.567,2.005
			l-5.417,5.854C66.147,20.18,65.536,20.447,64.9,20.447z M58.421,14.855l6.288,2.464l4.424-4.781l-6.404-2.936L58.421,14.855z"/>
	</g>
</g>
</svg>
