<?xml version="1.0" encoding="utf-8"?>
<!-- Generator: Adobe Illustrator 16.0.0, SVG Export Plug-In . SVG Version: 6.00 Build 0)  -->
<!DOCTYPE svg PUBLIC "-//W3C//DTD SVG 1.1//EN" "http://www.w3.org/Graphics/SVG/1.1/DTD/svg11.dtd">
<svg version="1.1" id="Layer_2" xmlns="http://www.w3.org/2000/svg" xmlns:xlink="http://www.w3.org/1999/xlink" x="0px" y="0px"
	 width="100px" height="100px" viewBox="0 0 100 100" enable-background="new 0 0 100 100" xml:space="preserve">
<g>
	<g>
		<path d="M48.678,73.176c-5.746,0-10.371-2.342-13.179-6.314v3.24c0,1.378-1.122,2.5-2.5,2.5H11.461c-1.378,0-2.5-1.122-2.5-2.5
			v-38.71c0-1.378,1.122-2.5,2.5-2.5h4.997c1.378,0,2.5,1.122,2.5,2.5v32.018h14.041c0.249,0,0.489,0.037,0.716,0.104
			c-0.786-2.037-1.206-4.339-1.206-6.851c0-10.298,6.389-17.49,15.538-17.49c9.662,0,13.987,7.833,13.987,15.595
			c0,1.028-0.097,1.854-0.161,2.4l-0.027,0.235c-0.14,1.263-1.208,2.219-2.484,2.219H42.654c0.997,3.795,4.113,4.649,6.713,4.649
			c3.343,0,5.205-0.595,6.72-1.237c0.67-0.284,1.452-0.257,2.101,0.068c0.663,0.335,1.138,0.938,1.308,1.656l0.861,3.617
			c0.278,1.162-0.312,2.364-1.402,2.857C56.989,72.119,53.611,73.176,48.678,73.176z M48.046,42.172
			c-7.382,0-12.538,5.958-12.538,14.49c0,8.335,5.046,13.514,13.169,13.514c4.088,0,6.921-0.788,8.663-1.514l-0.629-2.643
			c-1.71,0.675-3.848,1.251-7.345,1.251c-2.155,0-9.243-0.65-9.977-9.018c-0.037-0.419,0.104-0.834,0.388-1.144
			s0.686-0.487,1.106-0.487h18.031c0.054-0.472,0.118-1.113,0.118-1.855C59.033,48.957,56.156,42.172,48.046,42.172z M11.961,69.602
			h20.538v-3.193H17.458c-0.829,0-1.5-0.671-1.5-1.5V31.892h-3.997V69.602z M88.536,72.602h-6.145c-0.802,0-1.561-0.389-2.029-1.04
			l-7.647-10.623v9.163c0,1.378-1.122,2.5-2.5,2.5h-4.997c-1.378,0-2.5-1.122-2.5-2.5V29.324c0-1.378,1.122-2.5,2.5-2.5h4.997
			c1.378,0,2.5,1.122,2.5,2.5v18.812l6.336-7.451c0.476-0.56,1.17-0.88,1.904-0.88h6.088c0.997,0,1.897,0.591,2.294,1.507
			c0.396,0.917,0.21,1.979-0.474,2.706l-9.303,9.9l10.978,14.689c0.57,0.763,0.659,1.765,0.233,2.616
			C90.345,72.073,89.488,72.602,88.536,72.602z M82.647,69.602h4.891L76.404,54.705c-0.436-0.583-0.39-1.395,0.108-1.925
			l9.374-9.975h-4.701l-8.016,9.427c-0.225,0.273-0.5,0.609-0.787,0.965c-0.398,0.495-1.066,0.686-1.667,0.474
			c-0.6-0.211-1.001-0.778-1.001-1.415V29.824h-3.997v39.778h3.997v-9.569c0-0.371,0.137-0.728,0.385-1.003l1.498-1.664
			c0.303-0.337,0.74-0.521,1.196-0.494c0.453,0.024,0.871,0.253,1.136,0.621L82.647,69.602z M53.617,54.003H41.077
			c-0.457,0-0.888-0.208-1.173-0.565s-0.391-0.824-0.29-1.269c0.814-3.567,3.351-7.379,8.03-7.379c2.139,0,3.879,0.668,5.174,1.986
			c1.654,1.685,2.161,3.978,2.294,5.604c0.034,0.418-0.108,0.831-0.392,1.139C54.437,53.828,54.036,54.003,53.617,54.003z
			 M43.154,51.003h8.679c-0.212-0.74-0.565-1.524-1.155-2.124c-0.719-0.733-1.712-1.089-3.034-1.089
			C45.186,47.791,43.856,49.465,43.154,51.003z"/>
	</g>
</g>
</svg>
