<?xml version="1.0" encoding="utf-8"?>
<!-- Generator: Adobe Illustrator 16.0.0, SVG Export Plug-In . SVG Version: 6.00 Build 0)  -->
<!DOCTYPE svg PUBLIC "-//W3C//DTD SVG 1.1//EN" "http://www.w3.org/Graphics/SVG/1.1/DTD/svg11.dtd">
<svg version="1.1" id="Layer_2" xmlns="http://www.w3.org/2000/svg" xmlns:xlink="http://www.w3.org/1999/xlink" x="0px" y="0px"
	 width="100px" height="100px" viewBox="0 0 100 100" enable-background="new 0 0 100 100" xml:space="preserve">
<g>
	<g>
		<path d="M35.22,91.235c-1.681,0-3.267-0.384-4.584-1.111c-1.06-0.586-4.541-2.821-4.851-7.004
			c-0.002-0.037-0.004-0.074-0.004-0.11c0-1.745,0.603-3.393,1.698-4.64c1.142-1.299,2.677-2.015,4.321-2.015
			c3.32,0,6.021,2.968,6.021,6.617c0,0.289-0.017,0.574-0.049,0.854c1.007-0.72,1.872-2.037,2.284-4.461
			c1.177-6.913,2.225-14.322,3.203-22.653l2.075-16.986l-6.962-0.008c-2.048,0-3.717-1.668-3.717-3.719s1.668-3.719,3.719-3.719
			h8.005l0.757-4.204c0.528-2.802,1.188-5.465,1.965-7.927c2.005-6.35,6.97-10.672,12.958-11.28c0.688-0.07,1.361-0.105,2.003-0.105
			c8.29,0,10.155,5.575,10.155,7.528c0,3.24-2.636,5.875-5.876,5.875c-3.239,0-5.875-2.636-5.875-5.875
			c0-0.354,0.057-0.727,0.161-1.124c-1.88,0.403-2.197,1.594-2.315,2.038c-0.485,1.822-1.484,6.144-2.894,15.073h6.892
			c2.05,0,3.719,1.668,3.719,3.719s-1.668,3.719-3.719,3.719l-7.74,0.006c-0.355,2.38-0.69,4.761-1.023,7.137l-0.025,0.176
			c-0.978,6.974-1.988,14.185-3.518,21.203c-1.169,5.359-2.578,11.052-5.764,16.575C43.991,88.715,39.665,91.235,35.22,91.235z
			 M28.782,82.954c0.227,2.646,2.583,4.146,3.304,4.544c0.874,0.482,1.958,0.737,3.134,0.737c3.393,0,6.699-1.931,8.424-4.92
			c2.972-5.149,4.313-10.587,5.432-15.714c1.505-6.907,2.508-14.062,3.478-20.98l0.025-0.177c0.395-2.812,0.791-5.628,1.221-8.445
			c0.112-0.732,0.741-1.273,1.482-1.273l9.03-0.007c0.397,0,0.72-0.322,0.72-0.719s-0.322-0.719-0.719-0.719h-8.644
			c-0.438,0-0.854-0.191-1.138-0.523c-0.285-0.332-0.411-0.772-0.344-1.205c1.573-10.246,2.698-15.123,3.228-17.118
			c0.438-1.644,1.882-4.401,6.634-4.401c0.291,0,0.594,0.011,0.906,0.032c0.493,0.033,0.938,0.306,1.19,0.731
			c0.252,0.425,0.279,0.947,0.071,1.396c-0.497,1.075-0.749,1.782-0.749,2.101c0,1.585,1.29,2.875,2.875,2.875
			c1.586,0,2.876-1.29,2.876-2.875c0-0.045-0.308-4.528-7.155-4.528c-0.542,0-1.113,0.03-1.701,0.089
			c-4.776,0.485-8.761,4.01-10.399,9.199c-0.741,2.349-1.372,4.895-1.876,7.567l-0.977,5.426c-0.128,0.714-0.75,1.234-1.476,1.234
			h-9.26c-0.396,0-0.719,0.322-0.719,0.719s0.322,0.719,0.719,0.719l8.656,0.01c0.429,0,0.837,0.185,1.122,0.506
			c0.285,0.322,0.417,0.75,0.365,1.175l-2.279,18.659c-0.984,8.376-2.039,15.835-3.224,22.799c-1.019,5.998-4.675,7.551-7.563,7.798
			c-0.587,0.049-1.143-0.244-1.432-0.753s-0.256-1.14,0.085-1.616c0.47-0.654,0.718-1.458,0.718-2.325
			c0-1.995-1.355-3.617-3.021-3.617c-0.77,0-1.504,0.354-2.068,0.995C29.13,81.037,28.793,81.959,28.782,82.954z"/>
	</g>
</g>
</svg>
