<?xml version="1.0" encoding="utf-8"?>
<!-- Generator: Adobe Illustrator 16.0.0, SVG Export Plug-In . SVG Version: 6.00 Build 0)  -->
<!DOCTYPE svg PUBLIC "-//W3C//DTD SVG 1.1//EN" "http://www.w3.org/Graphics/SVG/1.1/DTD/svg11.dtd">
<svg version="1.1" id="Layer_2" xmlns="http://www.w3.org/2000/svg" xmlns:xlink="http://www.w3.org/1999/xlink" x="0px" y="0px"
	 width="100px" height="100px" viewBox="0 0 100 100" enable-background="new 0 0 100 100" xml:space="preserve">
<g>
	<g>
		<g>
			<path d="M10.601,68.409L10.601,68.409l-3.247-0.001c-0.675,0-1.307-0.263-1.779-0.741c-0.464-0.457-0.728-1.089-0.728-1.766
				l0.073-31.81c0.005-1.379,1.13-2.5,2.507-2.5h5.238c1.063,0,2.014,0.674,2.364,1.677l5.426,15.379
				c0.348,1.03,0.668,2,0.964,2.917c0.311-0.92,0.646-1.891,1.009-2.917l5.676-15.416c0.359-0.98,1.305-1.64,2.352-1.64h5.237
				c1.382,0,2.507,1.124,2.507,2.506L38.22,65.9c0,0.672-0.262,1.303-0.738,1.776c-0.467,0.47-1.098,0.731-1.769,0.731H32.38
				c-0.671,0-1.302-0.262-1.774-0.737c-0.47-0.467-0.731-1.098-0.731-1.769l0.004-12.791l-4.875,13.456
				c-0.352,0.986-1.3,1.653-2.355,1.653h-3.114c-1.07,0-2.022-0.68-2.371-1.693l-4.066-11.913l0.002,10.964
				c0.014,0.105,0.021,0.214,0.021,0.323c0,1.362-1.093,2.474-2.447,2.505C10.647,68.409,10.624,68.409,10.601,68.409z
				 M7.848,65.408l1.651,0c0.163-0.176,0.367-0.313,0.599-0.396l-0.003-19.728c0-0.742,0.543-1.373,1.276-1.483
				c0.732-0.109,1.438,0.333,1.657,1.042c0.523,1.699,1.113,3.521,1.804,5.57l5.055,14.808H22.3l5.473-15.104
				c0.811-2.217,1.525-4.258,2.185-6.244c0.233-0.698,0.94-1.125,1.664-1.007c0.727,0.118,1.26,0.745,1.26,1.481l-0.007,21.061
				h2.346l-0.021-30.817h-4.4l-5.55,15.073c-1.005,2.851-1.801,5.263-2.424,7.357c-0.189,0.636-0.774,1.072-1.438,1.072
				c-0.003,0-0.006,0-0.009,0c-0.667-0.004-1.252-0.448-1.434-1.09c-0.593-2.083-1.354-4.497-2.326-7.377l-5.305-15.035H7.919
				L7.848,65.408z"/>
		</g>
	</g>
	<g>
		<g>
			<path d="M92.646,68.404h-4.101c-1.382,0-2.507-1.124-2.507-2.506V53.665H75.846v12.233c0,1.382-1.125,2.506-2.507,2.506h-4.061
				c-1.382,0-2.507-1.124-2.507-2.506V34.461c0-1.382,1.125-2.507,2.507-2.507h4.061c1.382,0,2.507,1.125,2.507,2.507v10.647h10.193
				V34.461c0-1.382,1.125-2.507,2.507-2.507h4.101c1.382,0,2.507,1.125,2.507,2.507v31.438
				C95.153,67.28,94.028,68.404,92.646,68.404z M89.039,65.404h3.114v-30.45h-3.114v11.654c0,0.829-0.672,1.5-1.5,1.5H74.346
				c-0.828,0-1.5-0.671-1.5-1.5V34.954h-3.074v30.45h3.074V52.165c0-0.829,0.672-1.5,1.5-1.5h13.193c0.828,0,1.5,0.671,1.5,1.5
				V65.404z"/>
		</g>
	</g>
	<g>
		<g>
			<path d="M48.988,68.404c-7.552,0-10.932-5.464-10.932-10.88c0-5.919,3.093-12.949,17.541-13.475
				c-0.349-3.183-2.061-3.881-4.495-3.881c-2.26,0-4.642,0.623-6.534,1.71c-0.643,0.367-1.442,0.429-2.128,0.173
				c-0.699-0.26-1.243-0.817-1.489-1.528l-0.932-2.704c-0.385-1.107,0.066-2.354,1.073-2.962c3.089-1.866,6.56-2.813,10.317-2.813
				c6.159,0,13.502,2.543,13.502,14.657L64.9,65.025c0.058,0.627-0.168,1.307-0.61,1.813c-0.463,0.543-1.155,0.861-1.89,0.861
				h-3.243c-1.054,0-1.97-0.654-2.336-1.597C54.588,67.587,51.862,68.404,48.988,68.404z M51.103,37.169
				c3.449,0,7.562,1.421,7.562,8.19v0.159c0,0.826-0.668,1.497-1.494,1.5c-16.113,0.064-16.113,7.923-16.113,10.506
				c0,1.316,0.383,7.88,7.932,7.88c3.184,0,6.114-1.247,8.041-3.421c0.414-0.465,1.072-0.628,1.653-0.408
				c0.583,0.22,0.969,0.777,0.97,1.4l0.004,1.726H61.9l0.012-17.998c0-7.952-3.337-11.656-10.502-11.656
				c-3.063,0-5.895,0.733-8.423,2.179l0.609,1.768C45.834,37.829,48.536,37.169,51.103,37.169z M49.677,63.281
				c-3.847,0-6.333-2.511-6.333-6.397c0-3.653,2.296-8.008,13.233-8.008l0.435,0.002c0.824,0.005,1.494,0.675,1.494,1.5l0.001,4.905
				c0,0.643-0.13,1.39-0.366,2.104C57.207,60.114,54.435,63.281,49.677,63.281z M55.506,51.891c-6.081,0.172-9.162,1.85-9.162,4.993
				c0,2.254,1.121,3.397,3.333,3.397c3.176,0,5.013-2.075,5.621-3.851c0.131-0.397,0.209-0.82,0.209-1.147L55.506,51.891z"/>
		</g>
	</g>
</g>
</svg>
