<?xml version="1.0" encoding="utf-8"?>
<!-- Generator: Adobe Illustrator 16.0.0, SVG Export Plug-In . SVG Version: 6.00 Build 0)  -->
<!DOCTYPE svg PUBLIC "-//W3C//DTD SVG 1.1//EN" "http://www.w3.org/Graphics/SVG/1.1/DTD/svg11.dtd">
<svg version="1.1" id="Layer_2" xmlns="http://www.w3.org/2000/svg" xmlns:xlink="http://www.w3.org/1999/xlink" x="0px" y="0px"
	 width="100px" height="100px" viewBox="0 0 100 100" enable-background="new 0 0 100 100" xml:space="preserve">
<g>
	<g>
		<path d="M43.057,25.209c-7.779,0-14.108,7.467-14.108,16.645c0,9.177,6.329,16.644,14.108,16.644c7.78,0,14.11-7.466,14.11-16.644
			C57.167,32.676,50.837,25.209,43.057,25.209z M43.057,55.497c-6.125,0-11.108-6.121-11.108-13.644
			c0-7.523,4.983-13.645,11.108-13.645c6.126,0,11.11,6.121,11.11,13.645C54.167,49.376,49.183,55.497,43.057,55.497z"/>
	</g>
	<g>
		<path d="M44.253,17.34c-4.896,0-8.92,1.372-12.202,4.176l-0.002-0.795c-0.005-1.328-1.09-2.41-2.418-2.412L23.158,18.3
			c-0.646,0-1.253,0.251-1.711,0.708c-0.451,0.45-0.71,1.075-0.71,1.713l-0.019,59.518c0,0.639,0.259,1.263,0.707,1.71
			c0.457,0.458,1.066,0.711,1.714,0.711h6.714c1.335,0,2.422-1.086,2.422-2.421V63.158c2.937,2.07,6.62,3.183,10.677,3.183
			c10.55,0,21.904-7.858,21.904-25.111C64.856,27.387,56.191,17.34,44.253,17.34z M42.952,63.34c-4.515,0-8.443-1.601-11.063-4.508
			c-0.415-0.462-1.07-0.617-1.652-0.396c-0.579,0.223-0.962,0.779-0.962,1.4V79.66h-5.557l0.019-58.358l5.313,0.007l0.011,3.938
			c0.002,0.638,0.407,1.206,1.011,1.414c0.607,0.209,1.272,0.011,1.668-0.49c3.087-3.923,7.18-5.83,12.513-5.83
			c10.2,0,17.604,8.785,17.604,20.889C61.856,56.421,52.057,63.34,42.952,63.34z"/>
	</g>
	<g>
		<path d="M71.362,50.422c-4.515,0-7.919,3.242-7.919,7.542c0,4.419,3.33,7.626,7.919,7.626s7.919-3.171,7.919-7.54
			C79.281,53.702,75.877,50.422,71.362,50.422z M71.362,62.59c-2.942,0-4.919-1.859-4.919-4.626c0-2.674,2.022-4.542,4.919-4.542
			s4.919,1.903,4.919,4.628C76.281,60.766,74.305,62.59,71.362,62.59z"/>
	</g>
</g>
</svg>
