<?xml version="1.0" encoding="utf-8"?>
<!-- Generator: Adobe Illustrator 16.0.0, SVG Export Plug-In . SVG Version: 6.00 Build 0)  -->
<!DOCTYPE svg PUBLIC "-//W3C//DTD SVG 1.1//EN" "http://www.w3.org/Graphics/SVG/1.1/DTD/svg11.dtd">
<svg version="1.1" id="Layer_2" xmlns="http://www.w3.org/2000/svg" xmlns:xlink="http://www.w3.org/1999/xlink" x="0px" y="0px"
	 width="100px" height="100px" viewBox="0 0 100 100" enable-background="new 0 0 100 100" xml:space="preserve">
<g>
	<path d="M76.811,78.542c-2.08,0-3.771-1.693-3.771-3.773v-4.711c-6.182-1.235-9.49-5.475-9.84-12.621
		c0.021-2.264,1.693-3.903,3.887-3.903c2.117,0,3.842,1.716,3.842,3.826v0.301c0.078,2.056,0.758,3.463,2.111,4.293v-9.388
		c-1.084-0.355-2.049-0.715-2.883-1.074c-1.391-0.598-2.57-1.345-3.502-2.218c-0.973-0.909-1.695-2.033-2.15-3.342
		c-0.432-1.251-0.652-2.808-0.652-4.629c0-1.689,0.291-3.26,0.865-4.671c0.58-1.423,1.43-2.678,2.527-3.728
		c1.088-1.042,2.418-1.871,3.949-2.462c0.572-0.221,1.189-0.402,1.846-0.541v-4.669c0-2.081,1.691-3.773,3.771-3.773
		s3.773,1.693,3.773,3.773v4.733c5.498,1.133,8.463,4.657,8.822,10.491l0.041,0.345c0.006,0.061,0.01,0.123,0.01,0.185
		c-0.023,2.138-1.73,3.813-3.889,3.813c-2.074,0-3.756-1.62-3.83-3.688l-0.008-0.114c-0.006-0.043-0.012-0.086-0.016-0.131
		c-0.09-1.218-0.451-2.109-1.131-2.729v7.667c1.162,0.385,2.205,0.774,3.111,1.162c1.453,0.621,2.689,1.393,3.674,2.294
		c1.023,0.938,1.803,2.114,2.314,3.496c0.492,1.333,0.74,2.96,0.74,4.836c0,1.775-0.307,3.455-0.912,4.992
		c-0.613,1.555-1.508,2.931-2.662,4.089c-1.15,1.158-2.555,2.084-4.174,2.756c-0.643,0.267-1.342,0.482-2.092,0.646v4.694
		C80.584,76.849,78.891,78.542,76.811,78.542z M67.086,56.533c-0.551,0-0.883,0.316-0.889,0.846
		c0.299,6.045,3.008,9.224,8.527,9.914c0.75,0.094,1.314,0.732,1.314,1.488v5.988c0,0.426,0.346,0.773,0.771,0.773
		s0.773-0.347,0.773-0.773v-5.958c0-0.755,0.561-1.392,1.309-1.488c0.99-0.127,1.877-0.351,2.633-0.665
		c1.252-0.519,2.328-1.226,3.197-2.101c0.863-0.868,1.535-1.902,1.998-3.074c0.467-1.186,0.703-2.495,0.703-3.892
		c0-1.521-0.186-2.798-0.555-3.796c-0.344-0.929-0.857-1.711-1.527-2.324c-0.732-0.672-1.684-1.26-2.824-1.748
		c-1.08-0.46-2.385-0.929-3.879-1.394c-0.627-0.195-1.055-0.776-1.055-1.433V35.769c0-0.46,0.211-0.895,0.572-1.179
		c0.361-0.285,0.834-0.387,1.281-0.278c3.148,0.766,4.963,2.901,5.258,6.178c0.01,0.055,0.016,0.111,0.02,0.168l0.02,0.303
		c0.02,0.497,0.375,0.839,0.834,0.839c0.5,0,0.848-0.307,0.885-0.772l-0.035-0.31c-0.305-4.914-2.623-7.356-7.529-7.996
		c-0.746-0.097-1.305-0.734-1.305-1.487v-6.002c0-0.426-0.348-0.773-0.773-0.773s-0.771,0.347-0.771,0.773v5.94
		c0,0.759-0.566,1.398-1.32,1.489c-0.912,0.11-1.734,0.305-2.443,0.58c-1.162,0.448-2.156,1.064-2.957,1.831
		c-0.791,0.756-1.402,1.662-1.822,2.691c-0.428,1.05-0.645,2.242-0.645,3.541c0,1.486,0.164,2.713,0.486,3.646
		c0.293,0.842,0.754,1.561,1.365,2.135c0.68,0.636,1.566,1.191,2.639,1.652c0.996,0.429,2.219,0.865,3.633,1.295
		c0.633,0.192,1.064,0.775,1.064,1.435v12.649c0,0.454-0.205,0.883-0.559,1.167c-0.352,0.285-0.814,0.396-1.26,0.298
		c-3.955-0.857-6.131-3.576-6.291-7.86l-0.002-0.357C67.928,56.903,67.549,56.533,67.086,56.533z M79.084,65.725
		c-0.354,0-0.699-0.125-0.973-0.358c-0.334-0.285-0.527-0.703-0.527-1.142v-11.27c0-0.487,0.236-0.943,0.633-1.224
		c0.396-0.282,0.906-0.354,1.365-0.19l0.676,0.239c1.281,0.463,2.309,0.954,3.059,1.461c0.93,0.628,1.58,1.389,1.934,2.261
		c0.307,0.754,0.461,1.648,0.461,2.66c0,2.338-0.744,4.234-2.209,5.635c-1.031,0.986-2.438,1.628-4.18,1.91
		C79.242,65.718,79.162,65.725,79.084,65.725z M80.584,55.148v7.065c0.326-0.165,0.609-0.361,0.844-0.586
		c0.863-0.825,1.283-1.959,1.283-3.467c0-0.615-0.084-1.145-0.24-1.532c-0.125-0.306-0.412-0.619-0.834-0.903
		C81.42,55.578,81.084,55.38,80.584,55.148z M74.539,46.981c-0.158,0-0.318-0.025-0.473-0.076l-0.691-0.233
		c-1.313-0.455-2.242-0.905-2.932-1.417c-0.863-0.641-1.418-1.406-1.643-2.274c-0.154-0.606-0.232-1.361-0.232-2.248
		c0-1.12,0.234-2.135,0.695-3.019c0.465-0.885,1.109-1.62,1.914-2.186c0.742-0.522,1.605-0.917,2.564-1.173
		c0.143-0.038,0.293-0.071,0.445-0.104c0.445-0.095,0.924,0.011,1.275,0.296c0.354,0.285,0.576,0.709,0.576,1.163v9.771
		c0,0.481-0.232,0.934-0.623,1.216C75.158,46.884,74.85,46.981,74.539,46.981z M73.039,37.891c-0.047,0.029-0.092,0.06-0.135,0.091
		c-0.414,0.29-0.744,0.668-0.982,1.124c-0.234,0.448-0.354,0.996-0.354,1.627c0,0.792,0.074,1.253,0.139,1.5
		c0.045,0.177,0.232,0.396,0.525,0.613c0.203,0.152,0.473,0.307,0.807,0.465V37.891z M18.811,70.224
		c-3.678,0-6.238-0.278-7.436-0.444c-1.025-0.141-1.799-1.028-1.799-2.063V32.601c0-0.979,0.693-1.836,1.652-2.039
		c2.305-0.486,5.695-0.787,8.854-0.787c5.066,0,8.494,0.943,11.109,3.059c2.428,1.803,3.738,4.556,3.738,7.923
		c0,2.972-1.332,5.696-3.662,7.655c3.164,2.077,4.986,5.384,4.986,9.241c0,3.384-1.229,6.292-3.65,8.645
		C29.705,68.95,25.205,70.224,18.811,70.224z M12.576,66.907c1.299,0.147,3.412,0.317,6.234,0.317c5.609,0,9.449-1.017,11.734-3.108
		c1.787-1.735,2.709-3.92,2.709-6.462c0-4.997-3.834-7.037-5.482-7.682c-0.551-0.215-0.922-0.733-0.951-1.322
		c-0.029-0.59,0.289-1.142,0.814-1.41c2.689-1.375,4.295-3.797,4.295-6.481c0-2.38-0.891-4.3-2.576-5.553
		c-2.094-1.692-4.938-2.429-9.271-2.429c-2.641,0-5.434,0.22-7.506,0.583V66.907z M20.135,65.455c-1.531,0-2.631-0.046-3.459-0.144
		c-0.756-0.089-1.324-0.729-1.324-1.49V51.298c0-0.829,0.672-1.5,1.5-1.5h3.23c6.344,0,10.133,2.917,10.133,7.802
		C30.215,62.592,26.541,65.455,20.135,65.455z M18.352,62.426c0.508,0.02,1.1,0.029,1.783,0.029c4.697,0,7.08-1.633,7.08-4.855
		c0-4.178-4.469-4.802-7.133-4.802h-1.73V62.426z M20.451,48.135h-3.6c-0.828,0-1.5-0.671-1.5-1.5V36.21
		c0-0.736,0.533-1.364,1.26-1.481c0.979-0.158,2.234-0.238,3.734-0.238c7.617,0,8.756,4.225,8.756,6.743
		C29.102,45.362,25.625,48.135,20.451,48.135z M18.352,45.135h2.1c2.73,0,5.65-1.025,5.65-3.901c0-1.12,0-3.743-5.756-3.743
		c-0.742,0-1.408,0.021-1.994,0.062V45.135z M61.705,69.906H35.646c-1.15,0-2.084-0.935-2.084-2.083v-2.701
		c0-0.423,0.125-0.831,0.365-1.179l17.686-25.869H37.342c-1.15,0-2.084-0.935-2.084-2.083v-3.867c0-1.149,0.934-2.083,2.084-2.083
		h24.098c1.148,0,2.084,0.935,2.084,2.083v2.807c0,0.421-0.127,0.828-0.363,1.175L45.574,61.873h16.131
		c1.148,0,2.084,0.935,2.084,2.083v3.866C63.789,68.972,62.854,69.906,61.705,69.906z M36.563,66.906h24.227v-2.033H42.734
		c-0.557,0-1.066-0.308-1.326-0.799s-0.227-1.087,0.086-1.546l19.029-27.879v-1.608H38.258v2.034h16.199
		c0.557,0,1.066,0.308,1.326,0.8c0.26,0.492,0.227,1.087-0.088,1.547L36.563,65.404V66.906z"/>
</g>
</svg>
