<?xml version="1.0" encoding="utf-8"?>
<!-- Generator: Adobe Illustrator 16.0.0, SVG Export Plug-In . SVG Version: 6.00 Build 0)  -->
<!DOCTYPE svg PUBLIC "-//W3C//DTD SVG 1.1//EN" "http://www.w3.org/Graphics/SVG/1.1/DTD/svg11.dtd">
<svg version="1.1" id="Layer_2" xmlns="http://www.w3.org/2000/svg" xmlns:xlink="http://www.w3.org/1999/xlink" x="0px" y="0px"
	 width="100px" height="100px" viewBox="0 0 100 100" enable-background="new 0 0 100 100" xml:space="preserve">
<g>
	<g>
		<path d="M70.939,85.028c-4.532,0-8.317-1.263-11.299-3.763l-0.029,0.581c-0.066,1.284-1.123,2.288-2.405,2.288H51.03
			c-0.66,0-1.297-0.275-1.751-0.754c-0.458-0.49-0.693-1.144-0.653-1.8c0.155-2.557,0.32-6.53,0.32-10.012V24.029
			c0-1.328,1.08-2.408,2.408-2.408h7.07c1.328,0,2.408,1.08,2.408,2.408v18.564c3.026-2.277,6.877-3.5,11.163-3.5
			c4.938,0,9.34,1.803,12.729,5.215c4.083,4.112,6.306,10.249,6.257,17.282C90.982,77.69,80.592,85.028,70.939,85.028z
			 M57.023,73.534l2.486,3.261c2.647,3.472,6.493,5.233,11.43,5.233c8.208,0,17.042-6.399,17.042-20.449
			c0.042-6.238-1.87-11.617-5.386-15.157c-2.813-2.832-6.478-4.329-10.6-4.329c-4.829,0-8.809,1.709-11.512,4.943l-2.651,3.172
			V24.621h-5.887v46.947c0,3.274-0.144,6.971-0.29,9.566h4.986L57.023,73.534z"/>
	</g>
	<g>
		<path d="M70.628,77.86c-7.57,0-13.728-7.152-13.728-15.943s6.158-15.943,13.728-15.943c7.569,0,13.728,7.152,13.728,15.943
			S78.197,77.86,70.628,77.86z M70.628,48.974c-5.916,0-10.728,5.806-10.728,12.943S64.712,74.86,70.628,74.86
			c5.915,0,10.728-5.806,10.728-12.943S76.543,48.974,70.628,48.974z"/>
	</g>
	<g>
		<path d="M29.268,71.786V52.042l2.952,1.04c1.75,0.632,3.153,1.301,4.167,1.986c1.203,0.815,2.042,1.792,2.494,2.905
			c0.4,0.985,0.603,2.167,0.603,3.515c0,3.118-0.982,5.638-2.92,7.491c-1.361,1.3-3.231,2.15-5.557,2.526L29.268,71.786z
			 M32.268,56.313v11.8c0.902-0.316,1.646-0.752,2.223-1.303c1.322-1.264,1.993-3.055,1.993-5.322c0-0.959-0.128-1.761-0.382-2.385
			c-0.225-0.553-0.695-1.075-1.397-1.55C34.098,57.143,33.281,56.727,32.268,56.313z"/>
	</g>
	<g>
		<path d="M25.868,45.72l-2.94-0.986c-1.754-0.606-3.049-1.229-3.958-1.905c-1.102-0.816-1.803-1.78-2.084-2.864
			c-0.206-0.803-0.311-1.815-0.311-3.011c0-1.473,0.307-2.807,0.911-3.965c0.605-1.156,1.447-2.118,2.504-2.86
			c0.986-0.694,2.136-1.22,3.416-1.561c0.174-0.047,0.357-0.088,0.54-0.127l1.923-0.423V45.72z M22.868,31.929
			c-0.416,0.188-0.801,0.406-1.152,0.653c-0.664,0.466-1.191,1.069-1.571,1.795c-0.378,0.724-0.57,1.591-0.57,2.576
			c0,1.176,0.117,1.879,0.215,2.261c0.104,0.399,0.43,0.806,0.967,1.205c0.483,0.359,1.191,0.725,2.111,1.093V31.929z"/>
	</g>
	<g>
		<path d="M27.568,89.568c-2.592,0-4.7-2.108-4.7-4.7v-7.141c-8.707-1.556-13.364-7.366-13.85-17.29
			c0.027-2.804,2.117-4.852,4.859-4.852c2.645,0,4.796,2.142,4.796,4.774l0.001,0.427c0.136,3.599,1.48,5.89,4.193,7.051V53.167
			c-1.678-0.539-3.163-1.085-4.425-1.629c-1.895-0.814-3.495-1.827-4.755-3.007c-1.296-1.211-2.261-2.712-2.866-4.459
			c-0.586-1.692-0.883-3.817-0.883-6.315c0-2.297,0.395-4.432,1.172-6.344c0.783-1.926,1.932-3.621,3.414-5.038
			c1.475-1.412,3.277-2.534,5.357-3.336c0.915-0.353,1.916-0.631,2.987-0.831v-7.076c0-2.591,2.108-4.7,4.7-4.7s4.7,2.108,4.7,4.7
			V22.3c7.749,1.432,11.925,6.237,12.42,14.303l0.071,0.608l-0.001,0.092c-0.028,2.671-2.164,4.764-4.862,4.764
			c-2.233,0-4.105-1.508-4.635-3.583h-0.066l-0.052-0.639c-0.012-0.108-0.021-0.218-0.026-0.329l-0.034-0.42
			c-0.18-2.404-1.085-4.023-2.814-4.975v12.415c1.784,0.581,3.378,1.169,4.75,1.754c1.981,0.846,3.664,1.895,4.999,3.119
			c1.371,1.256,2.414,2.831,3.098,4.682c0.667,1.811,1.005,4.029,1.005,6.595c0,2.42-0.418,4.709-1.244,6.805
			c-0.829,2.108-2.044,3.975-3.61,5.55c-1.562,1.57-3.472,2.83-5.677,3.745c-1.006,0.418-2.119,0.744-3.321,0.974v7.108
			C32.268,87.459,30.16,89.568,27.568,89.568z M13.877,58.585c-1.102,0-1.85,0.721-1.861,1.794
			c0.438,8.898,4.423,13.556,12.538,14.57l1.314,0.164v9.754c0,0.937,0.763,1.7,1.7,1.7s1.7-0.763,1.7-1.7V75.16l1.31-0.167
			c1.447-0.185,2.746-0.514,3.861-0.977c1.837-0.763,3.419-1.803,4.701-3.09c1.275-1.283,2.267-2.808,2.945-4.533
			c0.687-1.744,1.035-3.664,1.035-5.706c0-2.211-0.276-4.081-0.82-5.557c-0.516-1.397-1.293-2.578-2.31-3.509
			c-1.084-0.994-2.48-1.859-4.149-2.571c-1.544-0.659-3.4-1.326-5.519-1.984l-1.055-0.328V28.057l1.855,0.452
			c3.759,0.916,6.078,3.315,6.771,6.976h0.096l0.121,1.835c0.038,0.995,0.821,1.748,1.786,1.748c1.041,0,1.811-0.717,1.859-1.715
			L41.7,36.862c-0.44-7.137-3.973-10.86-11.126-11.793l-1.306-0.17v-9.767c0-0.937-0.763-1.7-1.7-1.7s-1.7,0.763-1.7,1.7v9.693
			l-1.32,0.159c-1.33,0.16-2.536,0.447-3.586,0.853c-1.708,0.659-3.176,1.569-4.363,2.706c-1.175,1.123-2.086,2.469-2.708,4
			c-0.631,1.552-0.951,3.306-0.951,5.214c0,2.163,0.242,3.957,0.718,5.333c0.443,1.281,1.144,2.375,2.081,3.25
			c1.007,0.943,2.315,1.764,3.891,2.442c1.422,0.612,3.164,1.233,5.177,1.847l1.063,0.324V71.73l-1.818-0.394
			c-5.264-1.141-8.16-4.768-8.375-10.49l-0.002-0.483C15.673,59.381,14.868,58.585,13.877,58.585z"/>
	</g>
</g>
</svg>
