<?xml version="1.0" encoding="utf-8"?>
<!-- Generator: Adobe Illustrator 16.0.0, SVG Export Plug-In . SVG Version: 6.00 Build 0)  -->
<!DOCTYPE svg PUBLIC "-//W3C//DTD SVG 1.1//EN" "http://www.w3.org/Graphics/SVG/1.1/DTD/svg11.dtd">
<svg version="1.1" id="Layer_2" xmlns="http://www.w3.org/2000/svg" xmlns:xlink="http://www.w3.org/1999/xlink" x="0px" y="0px"
	 width="100px" height="100px" viewBox="0 0 100 100" enable-background="new 0 0 100 100" xml:space="preserve">
<g>
	<g>
		<g>
			<path d="M42.493,76.767h-7.839c-0.718,0-1.415-0.295-1.911-0.81L16.981,59.539v14.608c0,1.445-1.186,2.62-2.644,2.62H7.716
				c-1.458,0-2.645-1.175-2.645-2.62V25.854c0-1.445,1.187-2.62,2.645-2.62h6.621c1.458,0,2.644,1.175,2.644,2.62v15.594
				l13.556-17.207c0.493-0.629,1.273-1.007,2.083-1.007h8.219c0.987,0,1.884,0.538,2.342,1.403c0.487,0.91,0.382,2.029-0.271,2.845
				L24.494,50.517l19.961,21.873c0.724,0.802,0.887,1.936,0.421,2.895C44.429,76.188,43.495,76.767,42.493,76.767z M34.799,73.767
				h6.852L21.414,51.592c-0.498-0.545-0.524-1.372-0.063-1.948l18.718-23.411h-7.282L16.66,46.704
				c-0.396,0.502-1.065,0.697-1.669,0.489c-0.604-0.209-1.009-0.778-1.009-1.417V26.233h-5.91v47.533h5.91V56.832
				c0-0.818,0.656-1.486,1.474-1.5l0.965-0.017c0.409,0,0.819,0.16,1.108,0.461L34.799,73.767z"/>
		</g>
	</g>
	<g>
		<g>
			<path d="M55.263,76.207C55.263,76.207,55.263,76.207,55.263,76.207l-4.745-0.001c-0.8,0-1.548-0.312-2.108-0.878
				c-0.551-0.542-0.862-1.291-0.862-2.092l0.107-46.479c0.005-1.634,1.337-2.963,2.971-2.963h7.654c1.26,0,2.386,0.798,2.802,1.986
				l7.928,22.473c0.769,2.276,1.447,4.354,2.048,6.269c0.629-1.922,1.339-4.001,2.14-6.269l8.29-22.516
				c0.428-1.162,1.548-1.943,2.788-1.943h7.653c1.638,0,2.971,1.332,2.971,2.97l0.03,46.472c0,0.796-0.311,1.543-0.875,2.104
				c-0.553,0.557-1.299,0.867-2.096,0.867h-4.87c-0.797,0-1.543-0.311-2.103-0.874c-0.557-0.555-0.867-1.302-0.867-2.096
				l0.007-22.627c-0.099,0.273-0.199,0.548-0.3,0.824l-8.167,22.54c-0.417,1.169-1.54,1.959-2.792,1.959h-4.55
				c-1.268,0-2.397-0.806-2.81-2.006l-7.289-21.353L58.22,72.81c0.02,0.138,0.03,0.279,0.03,0.427c0,1.622-1.307,2.945-2.923,2.969
				C55.305,76.207,55.284,76.207,55.263,76.207z M58.251,26.773l-7.625,0.02l-0.078,46.446l3.439-0.023
				c0.257-0.416,0.711-0.697,1.234-0.712L55.216,43.11c0-0.742,0.542-1.373,1.276-1.483c0.738-0.108,1.438,0.333,1.657,1.042
				c0.766,2.486,1.63,5.154,2.641,8.156l7.554,22.129l4.522-0.021l8.139-22.524c1.191-3.259,2.237-6.248,3.199-9.141
				c0.232-0.699,0.937-1.122,1.663-1.008c0.727,0.118,1.26,0.746,1.26,1.481l-0.01,31.497l4.84-0.031l-0.059-46.442l-7.624,0.029
				l-8.255,22.476c-1.474,4.175-2.639,7.711-3.556,10.792c-0.189,0.636-0.774,1.072-1.438,1.072c-0.003,0-0.006,0-0.009,0
				c-0.667-0.004-1.251-0.448-1.434-1.089c-0.871-3.061-1.986-6.597-3.409-10.813L58.251,26.773z"/>
		</g>
	</g>
</g>
</svg>
