<?xml version="1.0" encoding="utf-8"?>
<!-- Generator: Adobe Illustrator 16.0.0, SVG Export Plug-In . SVG Version: 6.00 Build 0)  -->
<!DOCTYPE svg PUBLIC "-//W3C//DTD SVG 1.1//EN" "http://www.w3.org/Graphics/SVG/1.1/DTD/svg11.dtd">
<svg version="1.1" id="Layer_2" xmlns="http://www.w3.org/2000/svg" xmlns:xlink="http://www.w3.org/1999/xlink" x="0px" y="0px"
	 width="100px" height="100px" viewBox="0 0 100 100" enable-background="new 0 0 100 100" xml:space="preserve">
<g>
	<g>
		<path d="M39.432,82.389h-7.631c-1.407,0-2.552-1.145-2.552-2.551V20.163c0-0.676,0.275-1.336,0.756-1.813
			c0.426-0.421,1.024-0.682,1.687-0.734c0.044-0.004,0.091-0.008,0.13-0.005l14.647,0.121c8.009,0,14.157,1.873,18.263,5.566
			c3.874,3.35,6.019,8.422,6.019,14.264c0,5.952-1.777,10.8-5.283,14.408c-4.39,4.677-11.463,7.264-19.897,7.264
			c-1.113,0-2.353-0.017-3.589-0.115v20.719C41.982,81.245,40.838,82.389,39.432,82.389z M32.249,79.389h6.733V57.438
			c0-0.438,0.192-0.854,0.524-1.14c0.333-0.285,0.777-0.409,1.207-0.342c1.567,0.245,3.335,0.278,4.857,0.278
			c7.597,0,13.893-2.25,17.728-6.335c2.96-3.048,4.452-7.192,4.452-12.336c0-4.957-1.777-9.223-5.004-12.014
			c-3.559-3.202-9.033-4.816-16.29-4.816l-14.208-0.117V79.389z M45.746,50.992c-2.264,0-4.08-0.14-5.552-0.428
			c-0.704-0.138-1.212-0.755-1.212-1.472V27.373c0-0.398,0.159-0.78,0.44-1.062c0.281-0.28,0.663-0.438,1.06-0.438
			c0.001,0,0.002,0,0.003,0l6.141,0.013c9.145,0,14.392,4.384,14.392,12.027C61.019,46.103,55.309,50.992,45.746,50.992z
			 M41.982,47.806c1.056,0.125,2.299,0.186,3.764,0.186c7.914,0,12.272-3.579,12.272-10.079c0-7.461-6.197-9.027-11.396-9.027
			l-4.641-0.01V47.806z"/>
	</g>
</g>
</svg>
