<?xml version="1.0" encoding="utf-8"?>
<!-- Generator: Adobe Illustrator 16.0.0, SVG Export Plug-In . SVG Version: 6.00 Build 0)  -->
<!DOCTYPE svg PUBLIC "-//W3C//DTD SVG 1.1//EN" "http://www.w3.org/Graphics/SVG/1.1/DTD/svg11.dtd">
<svg version="1.1" id="Layer_2" xmlns="http://www.w3.org/2000/svg" xmlns:xlink="http://www.w3.org/1999/xlink" x="0px" y="0px"
	 width="100px" height="100px" viewBox="0 0 100 100" enable-background="new 0 0 100 100" xml:space="preserve">
<g>
	<g>
		<path d="M68.714,87.982c-2.519,0-4.567-2.049-4.567-4.566v-6.791c-8.343-1.51-12.806-7.095-13.272-16.618
			c0.025-2.728,2.055-4.717,4.719-4.717c2.569,0,4.659,2.081,4.659,4.638l0.002,0.406c0.128,3.382,1.376,5.55,3.893,6.665V53.08
			c-1.595-0.514-3.005-1.033-4.202-1.549c-1.823-0.784-3.362-1.758-4.575-2.894c-1.251-1.17-2.182-2.616-2.764-4.3
			c-0.563-1.632-0.85-3.675-0.85-6.072c0-2.207,0.38-4.261,1.128-6.103c0.752-1.851,1.857-3.482,3.286-4.85
			c1.418-1.357,3.152-2.438,5.155-3.21c0.866-0.335,1.812-0.599,2.821-0.79v-6.729c0-2.518,2.049-4.566,4.567-4.566
			c2.518,0,4.566,2.049,4.566,4.566v6.817c7.426,1.389,11.428,6.011,11.902,13.755l0.058,0.492c0.007,0.062,0.011,0.123,0.01,0.185
			c-0.027,2.594-2.101,4.626-4.722,4.626c-2.512,0-4.552-1.963-4.645-4.47l-0.013-0.211c-0.008-0.046-0.014-0.093-0.018-0.14
			c-0.167-2.236-0.996-3.756-2.573-4.665v11.744c1.697,0.554,3.212,1.113,4.516,1.669c1.904,0.813,3.522,1.822,4.808,3.001
			c1.323,1.212,2.327,2.73,2.985,4.512c0.642,1.741,0.967,3.875,0.967,6.343c0,2.328-0.402,4.53-1.196,6.544
			c-0.798,2.028-1.967,3.825-3.474,5.339c-1.503,1.512-3.341,2.725-5.462,3.604c-0.952,0.396-2.006,0.706-3.144,0.927v6.761
			C73.28,85.934,71.231,87.982,68.714,87.982z M55.593,58.29c-1.02,0-1.711,0.666-1.721,1.658c0.419,8.488,4.22,12.934,11.96,13.9
			c0.751,0.094,1.314,0.731,1.314,1.488v8.079c0,0.863,0.703,1.566,1.567,1.566c0.863,0,1.566-0.703,1.566-1.566v-8.039
			c0-0.755,0.562-1.393,1.311-1.487c1.381-0.177,2.62-0.49,3.684-0.932c1.753-0.728,3.262-1.719,4.484-2.948
			c1.217-1.223,2.162-2.677,2.81-4.322c0.655-1.663,0.987-3.495,0.987-5.445c0-2.113-0.263-3.897-0.781-5.305
			c-0.491-1.328-1.229-2.452-2.197-3.338c-1.035-0.948-2.367-1.773-3.959-2.453c-1.474-0.629-3.252-1.268-5.283-1.899
			c-0.627-0.195-1.055-0.775-1.055-1.433V30.801c0-0.461,0.211-0.896,0.573-1.18c0.361-0.284,0.833-0.388,1.281-0.278
			c4.015,0.978,6.327,3.708,6.696,7.9c0.013,0.063,0.021,0.128,0.024,0.193l0.024,0.408c0.034,0.921,0.758,1.614,1.648,1.614
			c0.96,0,1.672-0.659,1.72-1.578l-0.053-0.464c-0.42-6.809-3.788-10.357-10.609-11.247c-0.747-0.098-1.306-0.734-1.306-1.487
			v-8.099c0-0.863-0.703-1.566-1.566-1.566c-0.864,0-1.567,0.703-1.567,1.566v8.015c0,0.759-0.566,1.398-1.32,1.489
			c-1.267,0.153-2.418,0.427-3.421,0.814c-1.631,0.629-3.03,1.496-4.161,2.578c-1.121,1.073-1.989,2.355-2.581,3.813
			c-0.602,1.481-0.907,3.154-0.907,4.973c0,2.063,0.23,3.776,0.686,5.092c0.42,1.217,1.086,2.257,1.978,3.09
			c0.959,0.898,2.207,1.682,3.711,2.328c1.357,0.585,3.023,1.18,4.954,1.769c0.631,0.192,1.063,0.774,1.063,1.435v17.064
			c0,0.454-0.205,0.883-0.559,1.168c-0.352,0.284-0.813,0.396-1.259,0.298c-5.075-1.1-7.867-4.596-8.074-10.111l-0.003-0.462
			C57.252,59.025,56.508,58.29,55.593,58.29z M47.787,76.074h-6.594c-0.915,0-1.738-0.578-2.05-1.438l-7.226-19.955h-7.74v19.213
			c0,1.202-0.978,2.181-2.18,2.181h-6.373c-1.202,0-2.181-0.979-2.181-2.181V24.188c0-1.199,0.976-2.178,2.174-2.181l12.233-0.04
			c7.389,0,12.247,1.416,15.758,4.593c2.962,2.613,4.601,6.522,4.601,10.994c0,6.022-1.806,10.081-6.384,14.178L49.83,73.13
			c0.248,0.672,0.154,1.418-0.248,2.002C49.168,75.725,48.499,76.074,47.787,76.074z M41.769,73.074h4.837L38.65,51.806
			c-0.223-0.595-0.046-1.266,0.441-1.675c4.518-3.789,6.118-7.08,6.118-12.577c0-3.599-1.278-6.709-3.599-8.757
			c-2.933-2.652-7.171-3.83-13.755-3.83l-11.412,0.037v48.07h4.733V53.181c0-0.829,0.672-1.5,1.5-1.5H32.97
			c0.632,0,1.195,0.396,1.41,0.989L41.769,73.074z M71.78,70.69c-0.354,0-0.699-0.125-0.972-0.357
			c-0.335-0.285-0.528-0.702-0.528-1.143V53.986c0-0.487,0.236-0.943,0.633-1.225c0.397-0.281,0.906-0.353,1.365-0.19l0.915,0.324
			c1.681,0.606,3.029,1.249,4.007,1.911c1.164,0.787,1.977,1.733,2.414,2.812c0.387,0.955,0.582,2.096,0.582,3.393
			c0,3.006-0.948,5.436-2.818,7.223c-1.311,1.254-3.114,2.074-5.357,2.438C71.94,70.685,71.86,70.69,71.78,70.69z M73.28,56.144
			v11.127c0.819-0.298,1.497-0.701,2.024-1.206c1.256-1.199,1.892-2.899,1.892-5.054c0-0.909-0.122-1.672-0.362-2.265
			c-0.209-0.517-0.652-1.007-1.315-1.455C74.957,56.91,74.207,56.526,73.28,56.144z M28.519,48.484h-5.841
			c-0.828,0-1.5-0.671-1.5-1.5V29.742c0-0.828,0.671-1.499,1.498-1.5l5.619-0.007c0.006,0,0.013,0,0.019,0
			c7.842,0.087,12.161,3.656,12.161,10.052C40.475,44.387,35.67,48.484,28.519,48.484z M24.178,45.484h4.341
			c5.524,0,8.956-2.758,8.956-7.197c0-1.719,0-6.947-9.186-7.052l-4.111,0.005V45.484z M65.646,45.403
			c-0.159,0-0.32-0.025-0.475-0.077l-0.925-0.313c-1.688-0.584-2.933-1.184-3.811-1.836c-1.066-0.79-1.747-1.726-2.021-2.777
			c-0.199-0.777-0.3-1.752-0.3-2.903c0-1.423,0.296-2.712,0.881-3.83c0.583-1.116,1.396-2.046,2.419-2.763
			c0.952-0.67,2.061-1.177,3.292-1.504c0.176-0.048,0.36-0.088,0.542-0.128c0.447-0.099,0.946,0.006,1.299,0.29
			c0.354,0.284,0.598,0.705,0.598,1.159v13.182c0,0.482-0.231,0.935-0.623,1.217C66.265,45.307,65.957,45.403,65.646,45.403z
			 M64.146,32.779c-0.36,0.169-0.697,0.362-1.006,0.58c-0.628,0.439-1.126,1.01-1.484,1.696c-0.358,0.686-0.54,1.507-0.54,2.441
			c0,1.121,0.111,1.79,0.204,2.153c0.096,0.366,0.4,0.745,0.904,1.118c0.444,0.33,1.088,0.667,1.922,1.006V32.779z"/>
	</g>
</g>
</svg>
