<?xml version="1.0" encoding="utf-8"?>
<!-- Generator: Adobe Illustrator 16.0.0, SVG Export Plug-In . SVG Version: 6.00 Build 0)  -->
<!DOCTYPE svg PUBLIC "-//W3C//DTD SVG 1.1//EN" "http://www.w3.org/Graphics/SVG/1.1/DTD/svg11.dtd">
<svg version="1.1" id="Layer_2" xmlns="http://www.w3.org/2000/svg" xmlns:xlink="http://www.w3.org/1999/xlink" x="0px" y="0px"
	 width="100px" height="100px" viewBox="0 0 100 100" enable-background="new 0 0 100 100" xml:space="preserve">
<g>
	<g>
		<g>
			<path d="M73.223,76.569c-0.641,0-1.274-0.01-1.93-0.028l-12.285-0.036c-0.699,0-1.361-0.273-1.86-0.769
				c-0.506-0.505-0.783-1.171-0.783-1.88v-48c0-1.46,1.188-2.647,2.649-2.647l14.902-0.002c6.899,0,23.056,0,23.455,14.283
				c0.12,4.341-1.809,8.012-5.478,10.521c3.512,2.36,5.314,6.347,5.367,11.884c0.039,4.236-1.306,7.761-3.997,10.479
				C89.189,74.484,82.447,76.569,73.223,76.569z M59.364,73.506l11.975,0.036c0.665,0.018,1.271,0.028,1.884,0.028
				c8.395,0,14.42-1.786,17.91-5.308c2.107-2.127,3.159-4.933,3.128-8.339c-0.051-5.324-1.792-8.57-5.481-10.214l-0.616-0.274
				c-0.528-0.235-0.874-0.754-0.889-1.332s0.305-1.113,0.82-1.375l0.601-0.305c3.875-1.968,5.785-4.945,5.677-8.847
				C94.146,29.5,88.22,26.207,73.916,26.207l-14.552,0.002V73.506z M78.246,67.911c-0.244,0-0.412-0.008-0.616-0.018l-9.596,0
				c-0.828,0-1.5-0.672-1.5-1.5V54.415c0-0.399,0.159-0.782,0.442-1.063c0.282-0.282,0.673-0.447,1.065-0.437l9.78,0.047
				l0.132-0.001c5.134,0,8.445,2.852,8.445,7.265c0.042,2.268-0.595,4.101-1.892,5.422C82.503,67.69,79.461,67.911,78.246,67.911z
				 M69.534,64.893l8.161,0.001c0.234,0.01,0.363,0.016,0.551,0.016c0.652,0,2.878-0.099,4.121-1.364
				c0.712-0.725,1.06-1.833,1.033-3.293c-0.001-3.876-3.803-4.292-5.437-4.292l-0.14,0.001l-8.29-0.04V64.893z M77.91,45.687
				c-0.096,0-0.192-0.003-0.313-0.009l-9.563,0.001c-0.828,0-1.5-0.671-1.5-1.5V32.228c0-0.398,0.159-0.78,0.44-1.062
				c0.282-0.282,0.674-0.424,1.063-0.438l9.998,0.02c5.08,0,8.364,2.852,8.364,7.265c0.042,2.268-0.595,4.101-1.891,5.422
				c-1.864,1.898-4.12,2.072-5.767,2.2l-0.42,0.033C78.162,45.681,78.037,45.687,77.91,45.687z M69.534,42.679l8.376,0.008
				c0.051,0,0.101-0.003,0.168-0.009l0.431-0.034c1.433-0.11,2.783-0.215,3.859-1.311c0.711-0.725,1.059-1.833,1.032-3.292
				c-0.001-3.877-3.755-4.292-5.368-4.292l-8.498-0.017V42.679z"/>
		</g>
	</g>
	<g>
		<g>
			<path d="M6.154,76.793c-1.323,0-2.454-0.99-2.629-2.302l-0.879-6.743c-0.184-1.412,0.771-2.71,2.171-2.955
				c1.571-0.277,2.835-0.869,3.39-1.333c3.399-2.5,3.984-7.921,3.984-18.41V26.014c0-1.462,1.189-2.652,2.651-2.652h32.801
				c1.462,0,2.651,1.189,2.651,2.652v48.125c0,1.462-1.189,2.651-2.651,2.651H39.15c-1.462,0-2.651-1.189-2.651-2.651V35.402H25.597
				v9.648c0,14.02-1.448,23.667-8.647,28.407C14.026,75.764,10.693,76.793,6.154,76.793z M5.663,67.687l0.796,6.105
				c3.73-0.042,6.339-0.865,8.677-2.726c0.037-0.03,0.075-0.058,0.115-0.083c6.117-3.986,7.346-12.877,7.346-25.932V33.902
				c0-0.829,0.671-1.5,1.5-1.5h13.902c0.828,0,1.5,0.671,1.5,1.5V73.79h7.796V26.362H15.191V45.05
				c0,11.518-0.769,17.563-5.134,20.77C9.106,66.619,7.458,67.325,5.663,67.687z"/>
		</g>
	</g>
</g>
</svg>
