<?xml version="1.0" encoding="utf-8"?>
<!-- Generator: Adobe Illustrator 16.0.0, SVG Export Plug-In . SVG Version: 6.00 Build 0)  -->
<!DOCTYPE svg PUBLIC "-//W3C//DTD SVG 1.1//EN" "http://www.w3.org/Graphics/SVG/1.1/DTD/svg11.dtd">
<svg version="1.1" id="Layer_2" xmlns="http://www.w3.org/2000/svg" xmlns:xlink="http://www.w3.org/1999/xlink" x="0px" y="0px"
	 width="100px" height="100px" viewBox="0 0 100 100" enable-background="new 0 0 100 100" xml:space="preserve">
<g>
	<g>
		<path d="M51.349,88.973L51.349,88.973c-1.497,0-2.964-0.396-4.361-1.176c-3.162-1.765-5.567-4.714-7.69-7.316l-1.991-2.443
			c-2.491-3.063-5.066-6.231-7.806-9.137c-1.688-1.791-2.125-4.179-1.171-6.389c1.006-2.33,3.269-3.896,5.631-3.896
			c1.525,0,2.938,0.645,4.087,1.863c2.8,2.971,5.397,6.164,7.91,9.254l1.221,1.499c0.729,0.895,1.473,1.808,2.239,2.693
			c0.821-6.221,1.037-11.377,0.661-15.749c-0.196-2.282-0.581-4.007-1.821-5.006c-0.886-0.714-2.506-0.892-3.936-1.049
			c-0.289-0.032-0.571-0.063-0.84-0.097c-8.085-1.025-12.907-4.347-14.742-10.153c-2.227-7.054,0.396-14.153,2.159-17.758
			c1.698-3.478,6.541-11.691,14.796-12.849c1.124-0.157,2.287-0.237,3.456-0.237c4.832,0,9.425,1.353,13.865,2.66
			c1.112,0.327,2.228,0.656,3.354,0.966c3.398,0.937,4.572,3.92,4.229,6.462c-0.359,2.657-2.44,5.347-5.723,5.347
			c-0.554,0-1.124-0.08-1.695-0.237c-1.138-0.313-2.369-0.736-3.673-1.184c-3.055-1.049-6.519-2.237-9.534-2.237
			c-1.808,0-3.256,0.425-4.428,1.298c-3.076,2.291-5.61,7.522-5.65,11.662c-0.027,2.635,0.48,3.161,0.485,3.166
			c1.348,0.848,3.036,1.063,4.824,1.289l0.514,0.066c8.02,1.047,13.117,4.73,15.149,10.948c0.037,0.112,0.073,0.227,0.108,0.343
			c0.019-0.024,0.037-0.048,0.056-0.072c2.1-2.736,5.403-3.575,8.105-1.995c1.456,0.854,2.575,2.483,2.921,4.253
			c0.298,1.527-0.013,2.988-0.876,4.112c-2.734,3.565-5.754,6.31-9.217,8.373c-0.045,0.688-0.092,1.376-0.139,2.058l-0.021,0.307
			c-0.053,0.769-0.093,1.566-0.135,2.381c-0.228,4.473-0.485,9.542-2.866,13.529C57.139,87.309,54.352,88.973,51.349,88.973z
			 M33.96,61.615c-1.146,0-2.355,0.877-2.877,2.085c-0.277,0.642-0.567,1.903,0.601,3.143c2.814,2.985,5.425,6.196,7.949,9.302
			l1.989,2.439c2.048,2.511,4.166,5.107,6.828,6.594c0.944,0.527,1.92,0.795,2.898,0.795l0,0c1.967,0,3.744-1.09,4.879-2.989
			c1.999-3.347,2.236-8.021,2.446-12.144c0.043-0.833,0.084-1.648,0.139-2.434l0.021-0.308c0.065-0.947,0.131-1.903,0.189-2.862
			c0.032-0.531,0.343-1.006,0.817-1.247c0.034-0.018,0.126-0.058,0.182-0.082c3.308-1.896,6.177-4.465,8.78-7.859
			c0.426-0.554,0.404-1.236,0.312-1.711c-0.181-0.922-0.78-1.821-1.493-2.239c-1.434-0.839-3.021-0.317-4.209,1.233
			c-0.602,0.783-1.36,1.587-2.255,2.387c-0.404,0.361-0.975,0.477-1.482,0.303c-0.513-0.174-0.892-0.611-0.992-1.144
			c-0.204-1.086-0.415-1.947-0.665-2.71C56.35,47.07,52.2,44.156,45.329,43.26l-0.503-0.064c-2.034-0.259-4.137-0.526-6.072-1.747
			c-1.301-0.819-1.892-2.636-1.859-5.715c0.05-5.127,2.998-11.162,6.857-14.038c1.685-1.255,3.778-1.892,6.221-1.892
			c3.517,0,7.231,1.275,10.509,2.4c1.259,0.432,2.447,0.84,3.495,1.128c0.312,0.086,0.613,0.13,0.898,0.13
			c1.634,0,2.57-1.425,2.75-2.749c0.079-0.588,0.166-2.556-2.053-3.167c-1.143-0.314-2.275-0.648-3.403-0.98
			c-4.433-1.306-8.619-2.538-13.019-2.538c-1.03,0-2.053,0.07-3.04,0.208c-6.829,0.958-11.028,8.148-12.517,11.195
			c-1.565,3.202-3.906,9.479-1.993,15.537c1.466,4.638,5.36,7.205,12.258,8.08c0.254,0.032,0.519,0.062,0.791,0.091
			c1.747,0.192,3.921,0.431,5.489,1.694c2.19,1.765,2.701,4.448,2.928,7.085c0.406,4.712,0.163,10.244-0.744,16.91
			c-0.109,0.81-0.267,1.656-0.494,2.662c-0.121,0.535-0.524,0.962-1.052,1.112c-0.526,0.149-1.094,0.001-1.479-0.39l-0.59-0.604
			c-1.377-1.441-2.637-2.987-3.854-4.483l-1.223-1.501c-2.479-3.047-5.042-6.198-7.767-9.089
			C35.288,61.925,34.647,61.615,33.96,61.615z"/>
	</g>
</g>
</svg>
