<?xml version="1.0" encoding="utf-8"?>
<!-- Generator: Adobe Illustrator 16.0.0, SVG Export Plug-In . SVG Version: 6.00 Build 0)  -->
<!DOCTYPE svg PUBLIC "-//W3C//DTD SVG 1.1//EN" "http://www.w3.org/Graphics/SVG/1.1/DTD/svg11.dtd">
<svg version="1.1" id="Layer_2" xmlns="http://www.w3.org/2000/svg" xmlns:xlink="http://www.w3.org/1999/xlink" x="0px" y="0px"
	 width="100px" height="100px" viewBox="0 0 100 100" enable-background="new 0 0 100 100" xml:space="preserve">
<g>
	<g>
		<path d="M45.092,93.667c-0.349,0-0.698-0.045-1.039-0.134c-1.056-0.278-1.938-0.949-2.486-1.892
			c-0.549-0.94-0.698-2.04-0.421-3.093l1.544-5.86c-0.647-0.191-1.293-0.413-1.933-0.663l-2.039,7.741
			c-0.473,1.79-2.094,3.041-3.943,3.041c-0.349,0-0.698-0.046-1.039-0.135c-1.056-0.278-1.938-0.949-2.487-1.891
			s-0.698-2.04-0.421-3.094l2.68-10.168c-1.148-1.053-2.223-2.23-3.204-3.511c-1.587-2.107-2.951-4.485-4.064-7.077
			c-1.108-2.579-1.951-5.369-2.504-8.292c-0.551-2.904-0.83-6.029-0.83-9.287c0-5.297,0.704-10.118,2.093-14.33
			c1.401-4.251,3.442-7.946,6.067-10.983c2.639-3.054,5.778-5.412,9.331-7.012c3.028-1.362,6.275-2.15,9.67-2.348l1.397-5.308
			c0.473-1.79,2.095-3.04,3.944-3.04c0.35,0,0.699,0.045,1.04,0.135c1.054,0.277,1.937,0.949,2.485,1.891s0.698,2.04,0.42,3.094
			l-1.027,3.899c0.669,0.155,1.325,0.335,1.966,0.538l1.49-5.656c0.472-1.79,2.094-3.04,3.945-3.04c0.349,0,0.697,0.045,1.037,0.134
			c1.055,0.278,1.938,0.949,2.486,1.891s0.698,2.04,0.42,3.094l-1.953,7.412c2.524,1.838,4.569,3.978,6.09,6.373
			c2.078,3.277,3.132,6.453,3.132,9.439c0,1.838-0.59,3.483-1.754,4.892c-1.216,1.472-2.794,2.249-4.563,2.249
			c-1.91,0-3.404-0.555-4.438-1.649c-0.863-0.913-1.763-2.37-2.752-4.454c-0.033-0.068-0.066-0.137-0.099-0.205l-8.94,33.93
			c1.75-0.364,3.273-1.076,4.619-2.153c2.068-1.657,3.663-4.164,4.741-7.452c0.521-1.785,1.21-3.319,2.029-4.514
			c0.705-1.025,2.103-2.247,4.762-2.247c1.812,0,3.382,0.707,4.667,2.102c1.252,1.361,1.886,3.056,1.886,5.039
			c0,2.213-0.488,4.62-1.45,7.156c-0.954,2.521-2.471,5.021-4.506,7.433c-2.063,2.443-4.722,4.449-7.903,5.961
			c-3.514,1.672-7.647,2.419-12.427,2.268l-1.774,6.737C48.563,92.417,46.941,93.667,45.092,93.667z M39.751,78.456
			c0.221,0,0.441,0.049,0.646,0.146c1.243,0.593,2.525,1.063,3.811,1.395c0.114,0.03,0.232,0.054,0.35,0.078l0.305,0.065
			c0.396,0.091,0.739,0.338,0.949,0.686s0.271,0.766,0.167,1.159l-1.931,7.328c-0.074,0.279-0.034,0.569,0.111,0.818
			c0.145,0.249,0.378,0.427,0.657,0.5c0.572,0.15,1.171-0.205,1.318-0.769l2.084-7.911c0.183-0.691,0.827-1.159,1.543-1.115
			c0.822,0.051,1.587,0.075,2.335,0.075c3.75,0,7.065-0.672,9.853-1.998c2.793-1.328,5.114-3.073,6.899-5.188
			c1.815-2.15,3.159-4.357,3.993-6.56c0.833-2.196,1.255-4.246,1.255-6.094c0-1.225-0.357-2.208-1.093-3.008
			c-0.712-0.772-1.494-1.133-2.46-1.133c-1.47,0-2.01,0.54-2.289,0.945c-0.64,0.932-1.19,2.179-1.638,3.705
			c-1.276,3.896-3.199,6.876-5.729,8.904c-2.332,1.866-5.169,2.9-8.432,3.071c-0.485,0.027-0.94-0.18-1.242-0.552
			c-0.303-0.371-0.409-0.865-0.287-1.328l10.432-39.593c0.15-0.567,0.616-0.996,1.194-1.096c0.582-0.1,1.162,0.146,1.494,0.63
			c0.754,1.1,1.458,2.333,2.094,3.665c1.048,2.208,1.787,3.221,2.223,3.683c0.445,0.471,1.206,0.71,2.259,0.71
			c0.881,0,1.597-0.368,2.251-1.16c0.718-0.868,1.066-1.843,1.066-2.98c0-2.408-0.896-5.043-2.665-7.832
			c-1.47-2.315-3.525-4.369-6.109-6.105c-0.53-0.356-0.777-1.01-0.614-1.628l2.22-8.424c0.073-0.278,0.034-0.569-0.111-0.818
			c-0.145-0.249-0.379-0.427-0.657-0.5c-0.565-0.148-1.171,0.206-1.318,0.769l-1.906,7.234c-0.109,0.415-0.392,0.763-0.774,0.956
			s-0.831,0.214-1.229,0.056c-1.415-0.562-2.946-0.983-4.553-1.254c-0.416-0.07-0.782-0.312-1.011-0.666
			c-0.229-0.354-0.298-0.788-0.19-1.195l1.433-5.44c0.074-0.279,0.034-0.569-0.11-0.818c-0.146-0.249-0.379-0.427-0.657-0.5
			c-0.576-0.153-1.171,0.205-1.319,0.769l-1.681,6.381c-0.171,0.648-0.752,1.104-1.422,1.117c-3.399,0.065-6.642,0.781-9.635,2.128
			c-3.151,1.419-5.941,3.518-8.293,6.238c-2.364,2.736-4.211,6.087-5.487,9.96c-1.289,3.909-1.942,8.414-1.942,13.392
			c0,3.071,0.262,6.008,0.777,8.729c0.513,2.709,1.291,5.288,2.313,7.667c1.019,2.371,2.262,4.54,3.697,6.447
			c1.045,1.363,2.216,2.601,3.472,3.669c0.44,0.374,0.627,0.967,0.479,1.525l-2.915,11.063c-0.073,0.278-0.034,0.569,0.111,0.818
			s0.379,0.427,0.657,0.5c0.573,0.152,1.171-0.205,1.319-0.77l2.484-9.429c0.114-0.432,0.414-0.79,0.819-0.979
			C39.32,78.502,39.536,78.456,39.751,78.456z M47.19,72.992c-0.144,0-0.289-0.021-0.43-0.063c-1.518-0.454-2.94-1.148-4.229-2.064
			c-0.3-0.212-0.589-0.438-0.868-0.673c-0.446-0.373-0.636-0.97-0.488-1.532l11.192-42.475c0.191-0.729,0.897-1.205,1.641-1.105
			c2.002,0.256,3.813,0.884,5.381,1.867c0.557,0.349,0.821,1.019,0.654,1.653L48.642,71.875c-0.104,0.393-0.362,0.727-0.717,0.926
			C47.698,72.928,47.445,72.992,47.19,72.992z M44.331,68.463c0.579,0.406,1.191,0.756,1.831,1.046l10.683-40.54
			c-0.603-0.284-1.247-0.51-1.93-0.676L44.331,68.463z M38.738,65.051c-0.594,0-1.136-0.352-1.375-0.902
			c-0.164-0.377-0.323-0.765-0.477-1.171c-1.313-3.464-1.978-7.827-1.978-12.972c0-7.74,1.521-13.841,4.52-18.131
			c2.398-3.429,5.206-5.536,8.584-6.441c0.515-0.141,1.067,0.008,1.447,0.386c0.379,0.378,0.528,0.929,0.392,1.445l-9.662,36.669
			c-0.163,0.617-0.699,1.064-1.337,1.113C38.814,65.05,38.776,65.051,38.738,65.051z M46.179,29.43
			c-1.576,0.931-2.994,2.31-4.292,4.164c-2.64,3.776-3.978,9.298-3.978,16.412c0,3.019,0.239,5.729,0.713,8.102L46.179,29.43z"/>
	</g>
</g>
</svg>
