<?xml version="1.0" encoding="utf-8"?>
<!-- Generator: Adobe Illustrator 16.0.0, SVG Export Plug-In . SVG Version: 6.00 Build 0)  -->
<!DOCTYPE svg PUBLIC "-//W3C//DTD SVG 1.1//EN" "http://www.w3.org/Graphics/SVG/1.1/DTD/svg11.dtd">
<svg version="1.1" id="Layer_2" xmlns="http://www.w3.org/2000/svg" xmlns:xlink="http://www.w3.org/1999/xlink" x="0px" y="0px"
	 width="100px" height="100px" viewBox="0 0 100 100" enable-background="new 0 0 100 100" xml:space="preserve">
<g>
	<g>
		<path d="M44.222,82.718h-6.928c-0.682,0-1.343-0.28-1.813-0.768l-13.63-14.198v12.477c0,1.373-1.126,2.489-2.511,2.489h-5.851
			c-1.385,0-2.512-1.117-2.512-2.489V19.771c0-1.373,1.127-2.489,2.512-2.489h5.851c1.384,0,2.511,1.117,2.511,2.489v31.057
			L33.52,36.017c0.469-0.598,1.209-0.957,1.977-0.957h7.265c0.935,0,1.786,0.51,2.222,1.332c0.463,0.867,0.365,1.931-0.254,2.705
			L28.545,59.339l17.538,19.219c0.689,0.761,0.845,1.84,0.399,2.754C46.061,82.168,45.174,82.718,44.222,82.718z M37.496,79.718
			h5.584L25.465,60.415c-0.498-0.545-0.524-1.372-0.063-1.948l16.315-20.406h-5.988l-14.2,18.024
			c-0.395,0.502-1.065,0.697-1.669,0.489c-0.604-0.209-1.009-0.778-1.009-1.417V20.282h-4.873v59.436h4.873V64.927
			c0-0.818,0.656-1.486,1.474-1.5l0.854-0.015c0.431,0.003,0.819,0.16,1.108,0.461L37.496,79.718z M86.979,82.688h-6.817
			c-1.126,0-2.043-0.917-2.043-2.044V55.583c0-9.682-4.42-10.802-7.745-10.802c-3.852,0-7.138,2.606-8.374,6.64
			c-0.294,0.817-0.45,1.915-0.45,3.084v26.139c0,1.127-0.917,2.044-2.043,2.044h-8.448c-1.127,0-2.044-0.917-2.044-2.043
			l-0.033-43.474c0-0.539,0.218-1.066,0.599-1.446c0.386-0.386,0.899-0.599,1.445-0.599h7.17c0.541,0,1.07,0.22,1.451,0.604
			c0.384,0.384,0.596,0.901,0.592,1.453l-0.007,1.254c2.783-2.521,6.365-3.756,10.844-3.756c8.676,0,17.947,5.255,17.947,20.004
			v25.959C89.022,81.771,88.105,82.688,86.979,82.688z M81.118,79.688h4.904V54.685c0-15.347-10.453-17.004-14.947-17.004
			c-5.109,0-8.635,1.819-11.098,5.726c-0.356,0.566-1.044,0.828-1.689,0.64c-0.643-0.188-1.083-0.779-1.08-1.448l0.025-4.472h-5.251
			l0.032,41.562h6.536V54.505c0-1.526,0.215-2.959,0.605-4.035c1.606-5.25,6.019-8.688,11.218-8.688
			c4.902,0,10.745,2.395,10.745,13.802V79.688z"/>
	</g>
</g>
</svg>
