<?xml version="1.0" encoding="utf-8"?>
<!-- Generator: Adobe Illustrator 16.0.0, SVG Export Plug-In . SVG Version: 6.00 Build 0)  -->
<!DOCTYPE svg PUBLIC "-//W3C//DTD SVG 1.1//EN" "http://www.w3.org/Graphics/SVG/1.1/DTD/svg11.dtd">
<svg version="1.1" id="Layer_2" xmlns="http://www.w3.org/2000/svg" xmlns:xlink="http://www.w3.org/1999/xlink" x="0px" y="0px"
	 width="100px" height="100px" viewBox="0 0 100 100" enable-background="new 0 0 100 100" xml:space="preserve">
<g>
	<g>
		<path d="M30.982,91.987c-3.694,0-6.699-3.005-6.699-6.699v-6.549c0-0.05,0.005-0.125,0.012-0.192V44.804h-8.148
			c-2.16,0-3.918-1.758-3.918-3.918s1.758-3.918,3.918-3.918h8.148v-5.06h-8.148c-2.16,0-3.918-1.758-3.918-3.919
			c0-2.16,1.758-3.918,3.918-3.918h8.148v-7.002c-0.009-0.09-0.25-4.444,2.234-7.089c1.227-1.305,2.854-1.967,4.838-1.967h17.516
			c3.593,0,7.12,0.374,10.485,1.112c3.46,0.759,6.563,2.105,9.222,4c2.689,1.919,4.87,4.506,6.481,7.69
			c0.499,0.987,0.929,2.079,1.28,3.256h7.502c2.16,0,3.918,1.758,3.918,3.918c0,2.161-1.758,3.919-3.918,3.919h-6.37
			c0.007,0.281,0.011,0.556,0.011,0.828c0,1.463-0.079,2.88-0.236,4.231h6.596c2.16,0,3.918,1.758,3.918,3.918
			s-1.758,3.918-3.918,3.918h-8.691c-1.34,2.967-3.264,5.497-5.729,7.531c-5.26,4.342-13.111,6.543-23.336,6.543h-8.398v24.597
			c0,0.083-0.007,0.164-0.02,0.243v1.571C37.68,88.982,34.676,91.987,30.982,91.987z M27.283,78.814v6.474
			c0,2.04,1.659,3.699,3.699,3.699c2.039,0,3.697-1.66,3.697-3.699v-1.813c0-0.083,0.007-0.164,0.02-0.243V57.378
			c0-0.829,0.672-1.5,1.5-1.5h9.898c9.509,0,16.718-1.971,21.426-5.857c2.329-1.922,4.097-4.369,5.253-7.272
			c0.228-0.57,0.779-0.945,1.394-0.945h9.684c0.506,0,0.918-0.412,0.918-0.918s-0.412-0.918-0.918-0.918h-8.328
			c-0.443,0-0.863-0.196-1.148-0.535s-0.405-0.787-0.329-1.224c0.296-1.691,0.446-3.533,0.446-5.473c0-0.691-0.025-1.4-0.079-2.231
			c-0.026-0.414,0.119-0.82,0.402-1.123c0.284-0.302,0.68-0.474,1.095-0.474h7.941c0.506,0,0.918-0.412,0.918-0.919
			c0-0.506-0.412-0.918-0.918-0.918h-8.648c-0.69,0-1.292-0.472-1.457-1.142c-0.343-1.398-0.799-2.663-1.354-3.759
			c-1.39-2.747-3.256-4.968-5.547-6.602c-2.327-1.659-5.061-2.841-8.122-3.513c-3.154-0.692-6.466-1.042-9.843-1.042H31.367
			c-1.139,0-2.006,0.334-2.651,1.021c-1.58,1.682-1.426,4.909-1.424,4.941l0.003,8.596c0,0.829-0.672,1.5-1.5,1.5h-9.648
			c-0.506,0-0.918,0.412-0.918,0.918c0,0.507,0.412,0.919,0.918,0.919h9.648c0.828,0,1.5,0.671,1.5,1.5v8.06
			c0,0.829-0.672,1.5-1.5,1.5h-9.648c-0.506,0-0.918,0.412-0.918,0.918s0.412,0.918,0.918,0.918h9.648c0.828,0,1.5,0.671,1.5,1.5
			v35.318C27.295,78.672,27.29,78.747,27.283,78.814z M46.15,49.315h-9.951c-0.828,0-1.5-0.671-1.5-1.5v-4.512
			c0-0.829,0.672-1.5,1.5-1.5h25.305c0.605,0,1.151,0.364,1.385,0.923c0.232,0.559,0.106,1.203-0.32,1.633
			c-0.282,0.285-0.569,0.569-0.886,0.83c-1.642,1.354-3.782,2.397-6.362,3.101C52.822,48.971,49.737,49.315,46.15,49.315z
			 M37.699,46.315h8.451c3.32,0,6.141-0.309,8.382-0.919c0.643-0.175,1.249-0.373,1.819-0.593H37.699V46.315z M64.279,39.968h-28.08
			c-0.828,0-1.5-0.671-1.5-1.5v-8.06c0-0.829,0.672-1.5,1.5-1.5h28.635c0.753,0,1.39,0.559,1.487,1.305
			c0.131,1.001,0.192,1.886,0.192,2.786c0,2.111-0.268,4.093-0.795,5.891C65.531,39.529,64.945,39.968,64.279,39.968z
			 M37.699,36.968h25.414c0.266-1.233,0.4-2.563,0.4-3.969c0-0.361-0.012-0.72-0.036-1.091H37.699V36.968z M63.287,27.071H36.199
			c-0.828,0-1.5-0.671-1.5-1.5v-6.653c0-0.829,0.672-1.5,1.5-1.5H46.99c2.57,0,5.032,0.221,7.319,0.656
			c2.391,0.456,4.509,1.28,6.298,2.452c1.612,1.058,2.951,2.504,3.98,4.298c0.267,0.464,0.266,1.035-0.003,1.499
			C64.317,26.786,63.822,27.071,63.287,27.071z M37.699,24.071h22.562c-0.4-0.386-0.832-0.73-1.299-1.036
			c-1.457-0.955-3.212-1.632-5.213-2.014c-2.103-0.4-4.377-0.604-6.759-0.604h-9.291V24.071z"/>
	</g>
</g>
</svg>
