<?xml version="1.0" encoding="utf-8"?>
<!-- Generator: Adobe Illustrator 16.0.0, SVG Export Plug-In . SVG Version: 6.00 Build 0)  -->
<!DOCTYPE svg PUBLIC "-//W3C//DTD SVG 1.1//EN" "http://www.w3.org/Graphics/SVG/1.1/DTD/svg11.dtd">
<svg version="1.1" id="Layer_2" xmlns="http://www.w3.org/2000/svg" xmlns:xlink="http://www.w3.org/1999/xlink" x="0px" y="0px"
	 width="100px" height="100px" viewBox="0 0 100 100" enable-background="new 0 0 100 100" xml:space="preserve">
<g>
	<g>
		<path d="M75.22,80.666c-13.637,0-23.16-9.422-23.16-22.914c0-13.214,8.681-22.093,21.602-22.093
			c5.502,0,10.037,1.349,12.249,2.504c0.729,0.375,1.119,1.207,0.941,2.018l-1.233,5.425c-0.119,0.534-0.472,0.984-0.965,1.231
			c-0.475,0.24-1.07,0.257-1.567,0.033c-1.983-0.872-4.422-1.808-8.112-1.808c-7.26,0-11.951,5.109-11.951,13.016
			c0,6.081,3.194,13.182,12.197,13.182c3.784,0,6.145-0.896,7.459-1.646c0.484-0.276,1.071-0.314,1.582-0.113
			c0.537,0.218,0.927,0.65,1.084,1.192l1.639,5.573c0.255,0.837-0.134,1.748-0.93,2.151C83.973,79.458,79.894,80.666,75.22,80.666z
			 M73.661,38.66c-11.126,0-18.602,7.673-18.602,19.093c0,11.725,8.29,19.914,20.16,19.914c3.547,0,6.655-0.757,8.597-1.532
			l-0.959-3.265c-1.708,0.73-4.204,1.393-7.638,1.393c-10.498,0-15.197-8.127-15.197-16.182c0-9.58,6.009-16.016,14.951-16.016
			c3.492,0,5.99,0.713,8.028,1.519l0.713-3.136C81.598,39.552,78,38.66,73.661,38.66z M54.762,79.206h-8.944
			c-0.582,0-1.147-0.239-1.55-0.657l-19.487-20.3v18.839c0,1.167-0.961,2.117-2.143,2.117h-7.554c-1.183,0-2.145-0.95-2.145-2.117
			v-55.1c0-1.167,0.962-2.116,2.145-2.116h7.554c1.182,0,2.143,0.949,2.143,2.116V42.3l17.027-21.612
			c0.401-0.51,1.033-0.816,1.69-0.816h9.379c0.807,0,1.537,0.44,1.905,1.15c0.39,0.722,0.303,1.626-0.23,2.285L33.076,50.166
			L56.354,75.67c0.585,0.65,0.718,1.562,0.346,2.329C56.335,78.736,55.576,79.206,54.762,79.206z M46.177,76.206h6.604
			L29.996,51.241c-0.497-0.545-0.524-1.372-0.063-1.948l21.126-26.421h-7.152L24.459,47.556c-0.396,0.502-1.065,0.698-1.67,0.489
			c-0.604-0.209-1.009-0.778-1.009-1.417V22.872h-5.841v53.333h5.841V56.683c0-0.818,0.656-1.486,1.475-1.5l2.043-0.035
			c0.403-0.001,0.818,0.16,1.107,0.461L46.177,76.206z M74.892,34.727h-5.251c-0.61,0-1.178-0.303-1.52-0.81l-7.798-11.738
			c-0.378-0.571-0.409-1.293-0.084-1.888c0.321-0.59,0.938-0.957,1.608-0.957h5.497c0.636,0,1.217,0.323,1.554,0.863l3.368,5.423
			l3.366-5.421c0.338-0.542,0.919-0.865,1.556-0.865h5.414c0.676,0,1.294,0.37,1.613,0.965s0.286,1.315-0.087,1.877l-7.707,11.725
			C76.08,34.419,75.509,34.727,74.892,34.727z M70.268,31.727h3.993l6.175-9.393h-2.597l-4.298,6.92
			c-0.273,0.44-0.756,0.708-1.274,0.708s-1.001-0.268-1.274-0.708l-4.299-6.92h-2.666L70.268,31.727z"/>
	</g>
</g>
</svg>
