<?xml version="1.0" encoding="utf-8"?>
<!-- Generator: Adobe Illustrator 16.0.0, SVG Export Plug-In . SVG Version: 6.00 Build 0)  -->
<!DOCTYPE svg PUBLIC "-//W3C//DTD SVG 1.1//EN" "http://www.w3.org/Graphics/SVG/1.1/DTD/svg11.dtd">
<svg version="1.1" id="Layer_3" xmlns="http://www.w3.org/2000/svg" xmlns:xlink="http://www.w3.org/1999/xlink" x="0px" y="0px"
	 width="100px" height="100px" viewBox="0 0 100 100" enable-background="new 0 0 100 100" xml:space="preserve">
<g>
	<path d="M55.979,89.967h-13.46c-0.829,0-1.5-0.671-1.5-1.5V77.694H18.634c-0.829,0-1.5-0.671-1.5-1.5v-10.54
		c0-0.398,0.158-0.78,0.44-1.062c0.281-0.281,0.662-0.438,1.06-0.438c0.001,0,0.002,0,0.002,0l46.654,0.083v-8.012H18.634
		c-0.829,0-1.5-0.671-1.5-1.5V23.358c0-0.829,0.671-1.5,1.5-1.5h22.385V11.533c0-0.829,0.671-1.5,1.5-1.5h13.46
		c0.829,0,1.5,0.671,1.5,1.5v10.325h23.888c0.829,0,1.5,0.671,1.5,1.5v10.456c0,0.829-0.671,1.5-1.5,1.5H33.523v7.455h47.843
		c0.829,0,1.5,0.671,1.5,1.5v31.925c0,0.829-0.671,1.5-1.5,1.5H57.479v10.772C57.479,89.295,56.807,89.967,55.979,89.967z
		 M44.019,86.967h10.46V76.194c0-0.829,0.671-1.5,1.5-1.5h23.888V45.77H32.023c-0.829,0-1.5-0.671-1.5-1.5V33.814
		c0-0.829,0.671-1.5,1.5-1.5h47.843v-7.456H55.979c-0.829,0-1.5-0.671-1.5-1.5V13.033h-10.46v10.325c0,0.829-0.671,1.5-1.5,1.5
		H20.134v28.366H66.79c0.829,0,1.5,0.671,1.5,1.5v11.015c0,0.398-0.158,0.78-0.44,1.062c-0.281,0.281-0.662,0.438-1.06,0.438
		c-0.001,0-0.002,0-0.002,0l-46.654-0.083v7.538h22.385c0.829,0,1.5,0.671,1.5,1.5V86.967z"/>
</g>
</svg>
