<?xml version="1.0" encoding="utf-8"?>
<!-- Generator: Adobe Illustrator 16.0.0, SVG Export Plug-In . SVG Version: 6.00 Build 0)  -->
<!DOCTYPE svg PUBLIC "-//W3C//DTD SVG 1.1//EN" "http://www.w3.org/Graphics/SVG/1.1/DTD/svg11.dtd">
<svg version="1.1" id="Layer_3" xmlns="http://www.w3.org/2000/svg" xmlns:xlink="http://www.w3.org/1999/xlink" x="0px" y="0px"
	 width="100px" height="100px" viewBox="0 0 100 100" enable-background="new 0 0 100 100" xml:space="preserve">
<g>
	<path d="M50.704,97.516c-2.906,0-5.27-2.363-5.27-5.269V81.34H32.722c-2.905,0-5.269-2.363-5.269-5.269
		c0-2.906,2.363-5.271,5.269-5.271h12.713V55.269h-1.086c-10.093,0-18.305-8.211-18.305-18.304c0-10.093,8.211-18.305,18.305-18.305
		h1.086V7.753c0-2.905,2.364-5.269,5.27-5.269c2.906,0,5.271,2.363,5.271,5.269V18.66h11.304c2.905,0,5.269,2.364,5.269,5.27
		s-2.363,5.27-5.269,5.27H55.975v15.535c9.945,0.173,17.981,8.316,17.981,18.301c0,9.985-8.037,18.129-17.981,18.302v10.91
		C55.975,95.152,53.61,97.516,50.704,97.516z M32.722,73.801c-1.251,0-2.269,1.019-2.269,2.271c0,1.251,1.018,2.269,2.269,2.269
		h14.213c0.829,0,1.5,0.671,1.5,1.5v12.407c0,1.251,1.018,2.269,2.27,2.269c1.252,0,2.271-1.018,2.271-2.269V79.84
		c0-0.829,0.671-1.5,1.5-1.5h1.177c8.439,0,15.305-6.866,15.305-15.305c0-8.438-6.866-15.304-15.305-15.304h-1.177
		c-0.829,0-1.5-0.671-1.5-1.5V27.699c0-0.829,0.671-1.5,1.5-1.5h12.804c1.251,0,2.269-1.018,2.269-2.27s-1.018-2.27-2.269-2.27
		H54.475c-0.829,0-1.5-0.671-1.5-1.5V7.753c0-1.251-1.019-2.269-2.271-2.269c-1.251,0-2.27,1.018-2.27,2.269V20.16
		c0,0.829-0.671,1.5-1.5,1.5h-2.586c-8.439,0-15.305,6.866-15.305,15.305c0,8.438,6.866,15.304,15.305,15.304h2.586
		c0.829,0,1.5,0.671,1.5,1.5v18.532c0,0.829-0.671,1.5-1.5,1.5H32.722z M55.651,73.801h-1.177c-0.829,0-1.5-0.671-1.5-1.5V53.769
		c0-0.829,0.671-1.5,1.5-1.5h1.177c5.937,0,10.767,4.83,10.767,10.767C66.418,68.971,61.588,73.801,55.651,73.801z M55.975,55.275
		v15.519c4.133-0.17,7.443-3.585,7.443-7.759C63.418,58.861,60.108,55.445,55.975,55.275z M46.935,47.731h-2.586
		c-5.937,0-10.767-4.83-10.767-10.767c0-5.936,4.83-10.766,10.767-10.766h2.586c0.829,0,1.5,0.671,1.5,1.5v18.532
		C48.435,47.06,47.763,47.731,46.935,47.731z M44.349,29.199c-4.283,0-7.767,3.484-7.767,7.766c0,4.283,3.484,7.767,7.767,7.767
		h1.086V29.199H44.349z"/>
</g>
</svg>
