<?xml version="1.0" encoding="utf-8"?>
<!-- Generator: Adobe Illustrator 16.0.0, SVG Export Plug-In . SVG Version: 6.00 Build 0)  -->
<!DOCTYPE svg PUBLIC "-//W3C//DTD SVG 1.1//EN" "http://www.w3.org/Graphics/SVG/1.1/DTD/svg11.dtd">
<svg version="1.1" id="Layer_3" xmlns="http://www.w3.org/2000/svg" xmlns:xlink="http://www.w3.org/1999/xlink" x="0px" y="0px"
	 width="100px" height="100px" viewBox="0 0 100 100" enable-background="new 0 0 100 100" xml:space="preserve">
<g>
	<path d="M48.137,93.359c-0.322,0-0.645-0.104-0.913-0.31l-0.401-0.309c-0.168-0.127-0.375-0.286-0.58-0.47
		c-0.309-0.262-0.636-0.542-0.955-0.86l-0.464-0.441c-0.512-0.444-0.706-1.093-0.54-1.708c0.001-0.012,0.001-0.024,0.002-0.036
		l-0.002-10.422c-0.762-0.197-1.496-0.434-2.193-0.71c-3.782-1.532-6.601-3.909-8.162-6.88c-0.908-1.738-1.238-3.712-0.908-5.417
		c0.287-1.529,1.043-2.976,2.127-4.068c0.933-0.973,1.919-1.534,2.579-1.87c0.704-0.377,1.372-0.588,1.859-0.742l0.135-0.043
		c0.694-0.182,1.096-0.266,1.422-0.302l0.353-0.05c0.628-0.089,1.26,0.236,1.551,0.812c0.288,0.575,0.178,1.271-0.274,1.729
		l-1.069,1.082c-0.713,0.724-1.519,1.61-2.081,2.689c-0.53,1.068-0.498,1.915,0.122,2.895c0.826,1.309,2.709,2.55,4.797,3.163
		c2.354,0.707,4.989,0.593,6.901-0.313c1.064-0.504,1.929-1.197,2.72-2.181c0.314-0.4,0.592-0.861,0.696-1.161
		c0.129-0.335,0.165-0.592,0.144-0.939c-0.045-0.72-0.541-1.806-1.328-2.907c-0.862-1.208-1.999-2.546-3.379-3.979
		c-0.916-0.957-1.868-1.917-2.84-2.895c-1.89-1.901-3.843-3.868-5.724-6.017c-1.267-1.458-2.75-3.231-4.169-5.353
		c-1.525-2.302-2.563-4.845-3.003-7.361c-0.492-2.754-0.277-5.593,0.623-8.204c0.918-2.638,2.461-4.959,4.466-6.716
		c1.477-1.318,3.227-2.347,5.106-3.007v-9.288c-0.165-0.612,0.028-1.258,0.534-1.703l0.486-0.47
		c0.291-0.294,0.613-0.574,0.887-0.811c0.254-0.229,0.467-0.394,0.638-0.525l0.39-0.304c0.543-0.422,1.304-0.419,1.847,0.005
		l0.382,0.299c0.171,0.131,0.384,0.295,0.593,0.487l0.046,0.039c0.272,0.236,0.594,0.515,0.907,0.83l0.469,0.453
		c0.501,0.444,0.692,1.089,0.53,1.7c-0.001,0.015-0.001,0.029-0.002,0.043l0.002,8.693c0.547,0.105,1.081,0.24,1.597,0.403
		c2.038,0.626,3.992,1.709,5.8,3.213c1.41,1.185,2.676,2.564,3.873,4.224l0.235,0.339c0.181,0.258,0.356,0.511,0.545,0.823
		l0.149,0.256c0.152,0.261,0.303,0.519,0.475,0.847c0.467,0.823,0.795,1.643,1.077,2.399c0.641,1.822,0.937,3.523,0.889,5.082
		c-0.01,1.611-0.479,3.291-1.318,4.695c-0.767,1.262-1.785,2.277-2.95,2.944c-1.404,0.817-2.933,1.234-4.532,1.234l0,0
		c-0.22,0-0.424-0.008-0.609-0.019c-0.481-0.024-0.942-0.084-1.355-0.178l-0.36-0.077c-0.735-0.16-1.238-0.84-1.177-1.59
		c0.063-0.75,0.671-1.338,1.423-1.374l0,0c-0.001,0,0.437-0.028,1.192-0.198c1.103-0.273,1.979-0.739,2.647-1.417
		c0.462-0.474,0.785-0.989,0.954-1.526c0.199-0.61,0.232-1.341,0.102-2.128c-0.126-0.795-0.468-1.676-1.019-2.631
		c-0.284-0.458-0.613-0.976-0.933-1.392c-0.146-0.208-0.304-0.401-0.459-0.595l-0.796-0.974c-1.811-2.138-3.959-3.589-6.04-4.073
		c-2.231-0.545-4.601,0.159-6.178,1.756c-0.854,0.852-1.478,1.9-1.811,3.039c-0.328,1.134-0.366,2.398-0.108,3.652
		c0.281,1.281,0.849,2.517,1.73,3.758c0.895,1.273,2.092,2.742,3.465,4.255c1.438,1.569,2.935,3.114,4.077,4.285l0.764,0.779
		c1.169,1.19,2.378,2.42,3.551,3.73c1.558,1.746,2.946,3.35,4.188,5.334c0.767,1.231,1.322,2.338,1.75,3.486
		c0.569,1.554,0.846,3.059,0.825,4.481c-0.019,1.595-0.408,3.248-1.096,4.649c-0.582,1.211-1.314,2.265-2.371,3.406
		c-1.665,1.774-3.877,3.242-6.074,4.035c-0.821,0.308-1.682,0.541-2.598,0.705l0.005,10.13c0.158,0.61-0.038,1.263-0.539,1.7
		l-0.487,0.464c-0.303,0.302-0.637,0.586-0.916,0.823c-0.222,0.199-0.43,0.358-0.598,0.486l-0.4,0.307
		C48.781,93.256,48.459,93.359,48.137,93.359z M47.283,89.169l0.096,0.091c0.276,0.275,0.537,0.497,0.758,0.684
		c0.221-0.188,0.48-0.408,0.732-0.659l0.122-0.116L48.99,78.04c0-0.012,0.003-0.093,0.003-0.105c0.003-0.113,0.01-0.226,0.027-0.336
		c0.105-0.674,0.652-1.191,1.331-1.26c1.172-0.118,2.217-0.353,3.197-0.72c1.783-0.644,3.568-1.831,4.914-3.265
		c0.849-0.916,1.409-1.717,1.867-2.67c0.5-1.021,0.78-2.217,0.794-3.379c0.016-1.059-0.199-2.202-0.639-3.402
		c-0.354-0.947-0.825-1.883-1.481-2.937c-1.115-1.782-2.417-3.284-3.88-4.924c-1.125-1.256-2.31-2.461-3.455-3.627L50.9,50.631
		c-1.159-1.187-2.678-2.754-4.148-4.36c-1.46-1.608-2.737-3.178-3.698-4.545c-1.116-1.571-1.842-3.165-2.214-4.866
		c-0.36-1.748-0.303-3.509,0.162-5.113c0.475-1.625,1.361-3.116,2.563-4.316c2.297-2.325,5.835-3.332,9.001-2.558
		c2.688,0.625,5.409,2.426,7.645,5.066l0.837,1.024c0.201,0.251,0.401,0.503,0.537,0.699c0.358,0.464,0.737,1.058,1.088,1.623
		c0.759,1.315,1.224,2.543,1.404,3.69c0.009,0.049,0.016,0.097,0.023,0.146c0-0.028,0.001-0.056,0.001-0.084
		c0.037-1.224-0.202-2.56-0.71-4.005c-0.267-0.714-0.525-1.34-0.892-1.986c-0.17-0.323-0.299-0.542-0.429-0.764l-0.145-0.248
		c-0.135-0.224-0.275-0.423-0.419-0.628l-0.235-0.34c-1.025-1.419-2.126-2.622-3.34-3.642c-1.495-1.244-3.101-2.138-4.769-2.65
		c-0.747-0.236-1.537-0.397-2.356-0.481c-0.765-0.079-1.347-0.723-1.347-1.492v-9.945l-0.105-0.102
		c-0.27-0.271-0.528-0.494-0.748-0.684c-0.22,0.189-0.478,0.411-0.727,0.662l-0.128,0.125v10.308c0,0.68-0.457,1.274-1.113,1.449
		c-1.849,0.493-3.58,1.427-5.006,2.699c-1.625,1.424-2.872,3.306-3.618,5.45c-0.723,2.094-0.901,4.475-0.504,6.7
		c0.371,2.118,1.251,4.268,2.545,6.221c1.32,1.972,2.672,3.59,3.935,5.044c1.814,2.073,3.733,4.005,5.59,5.874
		c0.985,0.992,1.952,1.965,2.876,2.932c1.479,1.535,2.71,2.987,3.656,4.313c0.801,1.121,1.778,2.806,1.881,4.463
		c0.05,0.783-0.054,1.472-0.324,2.165c-0.273,0.788-0.846,1.586-1.16,1.988c-1.082,1.345-2.316,2.33-3.785,3.026
		c-2.577,1.221-6.008,1.387-9.04,0.478c-2.823-0.829-5.249-2.488-6.479-4.436c-0.923-1.458-1.176-2.984-0.759-4.551
		c-0.202,0.383-0.38,0.842-0.48,1.379c-0.202,1.043,0.029,2.335,0.618,3.463c1.226,2.331,3.515,4.229,6.621,5.487
		c0.864,0.342,1.815,0.618,2.816,0.815c0.395,0.078,0.742,0.31,0.963,0.646c0.137,0.207,0.219,0.442,0.241,0.684
		c0.063,0.253,0.059,0.447,0.057,0.548V89.169z"/>
</g>
</svg>
