<?xml version="1.0" encoding="utf-8"?>
<!-- Generator: Adobe Illustrator 16.0.0, SVG Export Plug-In . SVG Version: 6.00 Build 0)  -->
<!DOCTYPE svg PUBLIC "-//W3C//DTD SVG 1.1//EN" "http://www.w3.org/Graphics/SVG/1.1/DTD/svg11.dtd">
<svg version="1.1" id="Layer_3" xmlns="http://www.w3.org/2000/svg" xmlns:xlink="http://www.w3.org/1999/xlink" x="0px" y="0px"
	 width="100px" height="100px" viewBox="0 0 100 100" enable-background="new 0 0 100 100" xml:space="preserve">
<g>
	<path d="M50.896,95.051c-1.965,0-3.563-1.598-3.563-3.562V80.858c-2.78-0.195-5.724-0.877-7.634-1.481
		c-0.981-0.349-2.021-0.547-2.567-0.571c-0.624-0.028-1.165-0.439-1.359-1.032c-0.779-2.383-1.307-7.405-1.153-10.967
		c0.014-0.295,0.113-0.581,0.287-0.819c0.588-0.806,1.671-1.093,2.487-1.093c0.881,0,1.61,0.322,2.055,0.905
		c0.131,0.171,0.223,0.37,0.271,0.58c0.842,3.752,2.428,7.637,7.614,8.672v-20.31l-5.646-4.032
		c-6.178-4.473-9.432-10.261-9.17-16.303c0.352-8.067,6.113-13.866,14.815-15.074V8.511c0-1.964,1.598-3.562,3.563-3.562
		c1.963,0,3.561,1.598,3.561,3.562v10.818c1.935,0.261,4.035,0.724,5.843,1.295c0.981,0.349,2.021,0.547,2.567,0.571
		c0.624,0.028,1.165,0.439,1.359,1.032c0.779,2.383,1.307,7.405,1.153,10.967c-0.014,0.295-0.113,0.581-0.287,0.819
		c-0.588,0.806-1.67,1.093-2.486,1.093c-0.879,0-1.608-0.321-2.054-0.902c-0.132-0.172-0.225-0.371-0.272-0.583
		c-0.728-3.241-2.01-6.653-5.823-8.155v21.071l3.854,2.753c6.178,4.475,9.432,10.263,9.17,16.303
		c-0.32,7.354-5.384,13.029-13.024,14.751v11.145C54.457,93.453,52.859,95.051,50.896,95.051z M49.554,78.082
		c0.465,0.255,0.78,0.749,0.78,1.316v12.091c0,0.31,0.252,0.562,0.563,0.562c0.31,0,0.561-0.252,0.561-0.562V79.107
		c0-0.535,0.282-1.013,0.716-1.279c-0.057-0.035-0.11-0.073-0.162-0.115c-0.351-0.285-0.554-0.712-0.554-1.164V56.913
		c0-0.563,0.314-1.078,0.814-1.334c0.501-0.257,1.102-0.213,1.56,0.116l0.193,0.139c2.855,1.95,7.653,6.137,7.396,12.052
		c-0.082,1.883-0.654,5.689-3.749,8.151c4.102-2.11,6.607-5.878,6.812-10.573c0.278-6.408-4.156-11.008-7.926-13.738l-4.472-3.194
		c-0.395-0.281-0.629-0.736-0.629-1.221V23.475c0-0.449,0.201-0.875,0.549-1.16c0.127-0.104,0.269-0.186,0.418-0.243
		c-0.568-0.216-0.967-0.766-0.967-1.402V8.511c0-0.31-0.251-0.562-0.561-0.562c-0.311,0-0.563,0.252-0.563,0.562v12.166
		c0,0.53-0.275,1-0.696,1.267c0.079,0.05,0.153,0.108,0.223,0.173c0.302,0.283,0.474,0.679,0.474,1.094v21.156
		c0,0.562-0.314,1.077-0.813,1.334c-0.501,0.257-1.1,0.213-1.559-0.114l-1.984-1.418c-2.857-1.951-7.655-6.139-7.398-12.053
		c0.154-3.555,1.498-6.357,3.791-8.158c-4.108,2.105-6.648,5.868-6.854,10.58c-0.279,6.41,4.156,11.009,7.926,13.738l6.263,4.474
		c0.395,0.281,0.629,0.736,0.629,1.221v22.796c0,0.418-0.174,0.817-0.48,1.101C49.762,77.951,49.661,78.023,49.554,78.082z
		 M38.382,75.938c0.739,0.128,1.551,0.338,2.274,0.596c1.154,0.365,2.764,0.769,4.466,1.045c-4.277-1.385-6.352-4.505-7.479-7.583
		C37.755,72.216,38.046,74.461,38.382,75.938z M54.457,59.975v14.516c3.217-1.508,3.88-4.754,3.966-6.737
		C58.565,64.496,56.503,61.815,54.457,59.975z M47.334,24.92c-4.734,1.005-5.653,4.926-5.757,7.325
		c-0.186,4.244,3.37,7.509,5.757,9.211V24.92z M54.85,22.418c4.312,1.399,6.388,4.542,7.508,7.591
		c-0.112-2.222-0.403-4.47-0.739-5.947c-0.739-0.128-1.551-0.338-2.274-0.596C57.971,23.033,56.38,22.665,54.85,22.418z"/>
</g>
</svg>
