<?xml version="1.0" encoding="utf-8"?>
<!-- Generator: Adobe Illustrator 16.0.0, SVG Export Plug-In . SVG Version: 6.00 Build 0)  -->
<!DOCTYPE svg PUBLIC "-//W3C//DTD SVG 1.1//EN" "http://www.w3.org/Graphics/SVG/1.1/DTD/svg11.dtd">
<svg version="1.1" id="Layer_3" xmlns="http://www.w3.org/2000/svg" xmlns:xlink="http://www.w3.org/1999/xlink" x="0px" y="0px"
	 width="100px" height="100px" viewBox="0 0 100 100" enable-background="new 0 0 100 100" xml:space="preserve">
<g>
	<path d="M50.08,96.736c-2.386,0-4.327-1.941-4.327-4.327v-8.872h-0.987c-3.92,0-7.375-1.451-10.27-4.313
		c-2.908-2.874-4.383-6.341-4.383-10.305v-4.557c0-2.386,1.941-4.327,4.327-4.327s4.327,1.941,4.327,4.327v4.557
		c0,1.609,0.576,2.929,1.813,4.151c1.251,1.236,2.581,1.813,4.185,1.813h0.987V54.962L37.8,53.524
		c-0.626-0.114-1.23-0.37-1.747-0.739c-3.886-2.78-5.94-6.767-5.94-11.53v-7.691c0-3.939,1.48-7.4,4.4-10.287
		c2.907-2.874,6.369-4.33,10.289-4.33h0.951V7.591c0-2.386,1.941-4.327,4.327-4.327s4.327,1.941,4.327,4.327v11.355h0.756
		c3.893,0,7.351,1.46,10.28,4.339c2.949,2.9,4.444,6.37,4.444,10.314v4.521c0,2.386-1.941,4.327-4.327,4.327
		s-4.328-1.941-4.328-4.327v-4.521c0-1.58-0.59-2.896-1.857-4.143c-1.288-1.266-2.626-1.855-4.211-1.855h-0.756v20.132l6.923,1.252
		c0.317,0.049,0.664,0.149,0.995,0.292c0.324,0.139,0.634,0.32,0.918,0.537c3.76,2.763,5.759,6.704,5.759,11.38v7.691
		c0,3.973-1.498,7.452-4.453,10.34c-2.895,2.83-6.307,4.281-10.143,4.312v8.872C54.407,94.795,52.466,96.736,50.08,96.736z
		 M34.44,63.035c-0.732,0-1.327,0.595-1.327,1.327v4.557c0,3.133,1.175,5.882,3.492,8.172c2.313,2.287,5.058,3.446,8.161,3.446
		h2.487c0.829,0,1.5,0.671,1.5,1.5v10.372c0,0.732,0.595,1.327,1.327,1.327s1.327-0.595,1.327-1.327V82.037
		c0-0.829,0.671-1.5,1.5-1.5h1.373c3.077,0,5.827-1.164,8.173-3.458c2.356-2.303,3.55-5.06,3.55-8.195v-7.691
		c0-3.683-1.576-6.788-4.558-8.979c-0.109-0.083-0.204-0.139-0.304-0.182c-0.102-0.044-0.204-0.073-0.308-0.089l-8.194-1.482
		c-0.714-0.129-1.233-0.75-1.233-1.476V26.101c0-0.829,0.671-1.5,1.5-1.5h2.256c2.357,0,4.481,0.914,6.315,2.716
		c1.828,1.798,2.754,3.911,2.754,6.282v4.521c0,0.732,0.596,1.327,1.328,1.327s1.327-0.595,1.327-1.327v-4.521
		c0-3.109-1.193-5.86-3.547-8.175c-2.348-2.308-5.098-3.478-8.176-3.478h-2.256c-0.829,0-1.5-0.671-1.5-1.5V7.591
		c0-0.732-0.595-1.327-1.327-1.327s-1.327,0.595-1.327,1.327v12.855c0,0.829-0.671,1.5-1.5,1.5h-2.451
		c-3.102,0-5.854,1.165-8.18,3.463c-2.328,2.302-3.509,5.046-3.509,8.154v7.691c0,3.754,1.62,6.898,4.686,9.09
		c0.159,0.114,0.344,0.192,0.537,0.227l9.184,1.661c0.714,0.129,1.233,0.75,1.233,1.476v22.674c0,0.829-0.671,1.5-1.5,1.5h-2.487
		c-2.378,0-4.496-0.901-6.294-2.679c-1.794-1.773-2.704-3.888-2.704-6.285v-4.557C35.768,63.63,35.172,63.035,34.44,63.035z
		 M54.279,77.883h-1.373c-0.829,0-1.5-0.671-1.5-1.5V54.732c0-0.444,0.197-0.866,0.539-1.151c0.341-0.285,0.79-0.405,1.229-0.325
		l6.525,1.18c0.255,0.046,0.495,0.158,0.694,0.325c1.989,1.66,2.956,3.764,2.956,6.433v7.691c0,2.394-0.926,4.512-2.752,6.296
		C58.763,76.974,56.638,77.883,54.279,77.883z M54.407,56.527v18.354c1.535-0.03,2.838-0.619,4.093-1.846
		c1.262-1.233,1.849-2.552,1.849-4.151v-7.691c0-1.637-0.495-2.849-1.595-3.879L54.407,56.527z M47.252,49.462
		c-0.089,0-0.178-0.008-0.267-0.024l-7.51-1.358c-0.25-0.045-0.486-0.154-0.683-0.315c-2.035-1.665-3.024-3.795-3.024-6.511v-7.691
		c0-2.373,0.916-4.481,2.721-6.266c1.811-1.789,3.935-2.696,6.313-2.696h2.451c0.829,0,1.5,0.671,1.5,1.5v21.861
		c0,0.444-0.197,0.866-0.538,1.151C47.942,49.341,47.601,49.462,47.252,49.462z M40.412,45.201l5.341,0.966V27.601h-0.951
		c-1.605,0-2.941,0.582-4.205,1.83c-1.248,1.234-1.83,2.548-1.83,4.133v7.691C38.768,42.93,39.277,44.163,40.412,45.201z"/>
</g>
</svg>
