<?xml version="1.0" encoding="utf-8"?>
<!-- Generator: Adobe Illustrator 16.0.0, SVG Export Plug-In . SVG Version: 6.00 Build 0)  -->
<!DOCTYPE svg PUBLIC "-//W3C//DTD SVG 1.1//EN" "http://www.w3.org/Graphics/SVG/1.1/DTD/svg11.dtd">
<svg version="1.1" id="Layer_3" xmlns="http://www.w3.org/2000/svg" xmlns:xlink="http://www.w3.org/1999/xlink" x="0px" y="0px"
	 width="100px" height="100px" viewBox="0 0 100 100" enable-background="new 0 0 100 100" xml:space="preserve">
<g>
	<path d="M54.15,94.214c-0.011,0-0.021,0-0.033,0l-6.467,0c-0.924,0-1.815-0.385-2.448-1.057c-0.603-0.64-0.892-1.504-0.834-2.5
		l-0.029-6.065c-5.729-0.196-11.243-0.899-16.411-2.093c-1.771-0.408-2.909-2.188-2.534-3.968l1.939-9.189
		c0.201-0.962,0.814-1.786,1.682-2.259c0.852-0.466,1.902-0.535,2.814-0.184c5.005,1.925,10.425,2.901,16.108,2.901
		c3.95,0,10.578-0.489,10.578-3.765c0-1.403-0.626-2.551-1.971-3.613c-1.052-0.831-3.461-2.277-8.967-4.451
		c-6.118-2.437-10.462-4.701-13.285-6.924c-5.002-4-7.533-9.029-7.533-14.956c0-5.084,1.762-9.625,5.235-13.497
		c2.938-3.274,7.121-5.446,12.444-6.468l-0.045-6.769c-0.058-0.914,0.263-1.817,0.885-2.49c0.636-0.688,1.536-1.082,2.471-1.082
		h6.377c0.933,0,1.832,0.393,2.467,1.079c0.622,0.675,0.942,1.575,0.887,2.483v6.183c5.005,0.258,9.229,0.871,12.572,1.826
		c1.694,0.484,2.732,2.213,2.363,3.936l-1.938,9.063c-0.208,0.973-0.831,1.798-1.709,2.266c-0.868,0.461-1.926,0.517-2.836,0.149
		c-4.12-1.663-8.871-2.506-14.121-2.506c-8.641,0-8.641,2.739-8.641,3.64c0,1.322,0.37,2.182,1.237,2.875
		c0.785,0.628,3.063,2.055,9.498,4.557c5.921,2.316,10.234,4.586,13.189,6.942c5.032,4.036,7.581,9.021,7.581,14.819
		c0,11.142-5.937,18.259-17.191,20.65l-0.021,6.547c0.031,0.183,0.047,0.371,0.047,0.56C57.512,92.707,56.004,94.214,54.15,94.214z
		 M30.62,69.673c-0.06,0-0.118,0.015-0.169,0.042c-0.095,0.052-0.161,0.14-0.182,0.242l-1.94,9.192
		c-0.04,0.191,0.082,0.382,0.273,0.426c5.405,1.249,11.212,1.94,17.258,2.056c0.814,0.015,1.468,0.678,1.472,1.493l0.033,7.611
		c-0.013,0.263,0.015,0.352,0.025,0.369c0.064,0.068,0.16,0.109,0.26,0.109h6.477c0.007,0,0.015,0,0.023,0l0,0
		c0.199,0,0.361-0.162,0.361-0.361c-0.026-0.113-0.047-0.305-0.047-0.421l0.025-7.927c0.002-0.726,0.524-1.346,1.24-1.472
		c10.582-1.864,15.947-7.898,15.947-17.936c0-4.843-2.172-9.041-6.454-12.476c-2.713-2.163-6.772-4.286-12.407-6.49
		c-5.188-2.018-8.649-3.703-10.281-5.009c-1.59-1.272-2.363-2.979-2.363-5.218c0-4.406,3.916-6.64,11.641-6.64
		c5.637,0,10.765,0.917,15.243,2.724c0.099,0.04,0.212,0.033,0.306-0.016c0.094-0.05,0.161-0.14,0.184-0.245l1.938-9.063
		c0.04-0.186-0.072-0.371-0.254-0.423c-3.429-0.979-7.904-1.577-13.304-1.776c-0.806-0.03-1.444-0.692-1.444-1.499V9.295
		c0-0.042,0.002-0.083,0.005-0.124c0.009-0.098-0.026-0.196-0.094-0.27c-0.067-0.072-0.165-0.115-0.265-0.115H47.75
		c-0.101,0-0.198,0.043-0.268,0.119c-0.067,0.072-0.102,0.171-0.093,0.271c0.003,0.038,0.005,0.076,0.005,0.114l0.053,8.089
		c0.005,0.745-0.537,1.38-1.273,1.493c-5.232,0.799-9.252,2.726-11.946,5.727c-2.965,3.305-4.468,7.172-4.468,11.494
		c0,4.97,2.152,9.211,6.397,12.606c2.585,2.035,6.685,4.158,12.526,6.485c4.755,1.877,7.937,3.476,9.721,4.885
		c2.064,1.63,3.111,3.638,3.111,5.967c0,4.489-4.568,6.765-13.578,6.765c-6.053,0-11.836-1.043-17.187-3.102
		C30.708,69.682,30.664,69.673,30.62,69.673z"/>
</g>
</svg>
