<?xml version="1.0" encoding="utf-8"?>
<!-- Generator: Adobe Illustrator 16.0.0, SVG Export Plug-In . SVG Version: 6.00 Build 0)  -->
<!DOCTYPE svg PUBLIC "-//W3C//DTD SVG 1.1//EN" "http://www.w3.org/Graphics/SVG/1.1/DTD/svg11.dtd">
<svg version="1.1" id="Layer_3" xmlns="http://www.w3.org/2000/svg" xmlns:xlink="http://www.w3.org/1999/xlink" x="0px" y="0px"
	 width="100px" height="100px" viewBox="0 0 100 100" enable-background="new 0 0 100 100" xml:space="preserve">
<g>
	<path d="M52.756,93.759h-5.512c-1.261,0-2.287-1.026-2.287-2.287V81.329c-13.662-1.357-15.067-8.743-15.446-18.208
		c-0.053-1.319,0.848-2.47,2.143-2.735l3.889-0.793c0.734-0.155,1.609,0.042,2.231,0.549c0.627,0.514,0.985,1.27,0.985,2.078
		c0,6.638,0,8.984,6.198,9.747V53.892c-12.468-3.381-15.131-10.879-15.131-16.663c0-10.214,5.224-16.342,15.131-17.794V8.528
		c0-1.261,1.026-2.287,2.287-2.287h5.512c1.261,0,2.288,1.026,2.288,2.287v10.833c11.767,1.421,14.526,8.217,14.969,17.945
		c0.06,1.262-0.788,2.406-2.014,2.72l-3.888,0.993c-0.817,0.203-1.667,0.018-2.309-0.481c-0.659-0.514-1.036-1.285-1.036-2.118
		c0-6.074-0.912-8.698-5.723-9.62v17.866c12.73,3.34,15.448,10.902,15.448,16.745c0,10.222-5.333,16.352-15.448,17.797v10.265
		C55.043,92.733,54.017,93.759,52.756,93.759z M47.957,90.759h4.087V79.877c0-0.771,0.585-1.417,1.354-1.493
		c9.484-0.932,14.095-5.831,14.095-14.974c0-7.27-4.673-11.885-14.286-14.109c-0.68-0.157-1.162-0.763-1.162-1.461V27.07
		c0-0.424,0.18-0.829,0.495-1.114c0.314-0.284,0.733-0.424,1.158-0.378c8.271,0.851,10.008,5.204,10.068,12.44l3.238-0.834
		c-0.45-9.037-2.799-14.098-13.581-14.971c-0.779-0.063-1.379-0.714-1.379-1.495V9.241h-4.087v11.521
		c0,0.771-0.584,1.416-1.351,1.493c-9.272,0.929-13.78,5.828-13.78,14.975c0,7.194,4.573,11.786,13.98,14.038
		c0.675,0.162,1.151,0.765,1.151,1.459v20.89c0,0.417-0.173,0.815-0.479,1.099c-0.305,0.283-0.712,0.427-1.13,0.397
		c-10.396-0.757-10.586-5.671-10.589-12.509l-3.239,0.667c0.375,8.902,1.604,14.362,14.036,15.18
		c0.789,0.052,1.401,0.707,1.401,1.497V90.759z M53.543,74.999c-0.36,0-0.711-0.13-0.986-0.37c-0.326-0.285-0.514-0.697-0.514-1.13
		V54.547c0-0.484,0.233-0.938,0.626-1.22c0.394-0.281,0.897-0.356,1.356-0.2c6.726,2.287,10.136,5.747,10.136,10.283
		c0,6.734-3.504,10.629-10.416,11.575C53.679,74.995,53.611,74.999,53.543,74.999z M55.043,56.723v14.969
		c4.216-1.045,6.119-3.655,6.119-8.282C61.163,60.708,59.106,58.464,55.043,56.723z M46.457,47.483
		c-0.167,0-0.335-0.028-0.498-0.085c-6.505-2.286-9.804-5.708-9.804-10.169c0-6.719,3.395-10.612,10.089-11.569
		c0.433-0.064,0.867,0.067,1.195,0.352c0.328,0.285,0.517,0.698,0.517,1.133v18.838c0,0.486-0.236,0.943-0.633,1.224
		C47.067,47.389,46.763,47.483,46.457,47.483z M44.957,28.972c-3.997,1.059-5.802,3.665-5.802,8.257c0,2.63,1.95,4.827,5.802,6.548
		V28.972z"/>
</g>
</svg>
