<?xml version="1.0" encoding="utf-8"?>
<!-- Generator: Adobe Illustrator 16.0.0, SVG Export Plug-In . SVG Version: 6.00 Build 0)  -->
<!DOCTYPE svg PUBLIC "-//W3C//DTD SVG 1.1//EN" "http://www.w3.org/Graphics/SVG/1.1/DTD/svg11.dtd">
<svg version="1.1" id="Layer_2" xmlns="http://www.w3.org/2000/svg" xmlns:xlink="http://www.w3.org/1999/xlink" x="0px" y="0px"
	 width="100px" height="100px" viewBox="0 0 100 100" enable-background="new 0 0 100 100" xml:space="preserve">
<g>
	<g>
		<path d="M82.322,78.757c-2.09,0-3.79-1.701-3.79-3.791v-4.76c-6.229-1.24-9.563-5.51-9.918-12.711
			c0.021-2.274,1.702-3.921,3.906-3.921c2.128,0,3.858,1.724,3.858,3.844l0.001,0.304c0.08,2.087,0.773,3.513,2.152,4.35v-9.493
			c-1.093-0.358-2.069-0.722-2.913-1.085c-1.404-0.604-2.592-1.356-3.527-2.234c-0.981-0.919-1.709-2.051-2.162-3.365
			c-0.436-1.254-0.656-2.822-0.656-4.66c0-1.698,0.293-3.28,0.871-4.702c0.583-1.434,1.438-2.697,2.542-3.754
			c1.101-1.052,2.438-1.886,3.977-2.479c0.579-0.223,1.204-0.406,1.869-0.547v-4.717c0-2.09,1.7-3.791,3.79-3.791
			c2.091,0,3.791,1.701,3.791,3.791v4.781c5.542,1.139,8.531,4.688,8.892,10.566l0.052,0.439l-0.001,0.091
			c-0.021,2.149-1.736,3.833-3.906,3.833c-1.68,0-3.106-1.062-3.635-2.565h-0.126l-0.07-0.869c-0.007-0.068-0.013-0.137-0.017-0.207
			l-0.025-0.313c-0.092-1.243-0.464-2.149-1.163-2.777v7.765c1.17,0.388,2.224,0.781,3.143,1.173c1.461,0.623,2.706,1.4,3.7,2.311
			c1.033,0.945,1.817,2.129,2.33,3.52c0.495,1.342,0.746,2.98,0.746,4.869c0,1.784-0.31,3.475-0.921,5.028
			c-0.614,1.563-1.516,2.948-2.679,4.118c-1.16,1.166-2.574,2.1-4.204,2.776c-0.649,0.27-1.357,0.487-2.115,0.651v4.742
			C86.113,77.056,84.413,78.757,82.322,78.757z M72.521,56.573c-0.563,0-0.902,0.323-0.908,0.864
			c0.303,6.102,3.038,9.309,8.605,10.003l1.314,0.164v7.362c0,0.436,0.354,0.791,0.79,0.791c0.437,0,0.791-0.355,0.791-0.791V67.64
			l1.31-0.167c0.998-0.128,1.892-0.354,2.656-0.67c1.262-0.523,2.348-1.237,3.227-2.121c0.872-0.877,1.55-1.92,2.015-3.1
			c0.473-1.202,0.712-2.523,0.712-3.93c0-1.533-0.188-2.822-0.561-3.831c-0.346-0.937-0.864-1.725-1.542-2.345
			c-0.743-0.682-1.702-1.275-2.851-1.764c-1.094-0.467-2.41-0.94-3.911-1.406l-1.055-0.328V33.747l1.854,0.451
			c2.753,0.669,4.492,2.38,5.094,4.983h0.132l0.103,1.723c0.019,0.49,0.386,0.842,0.854,0.842c0.512,0,0.867-0.314,0.903-0.79
			l-0.035-0.314c-0.307-4.958-2.647-7.424-7.599-8.069l-1.306-0.17v-7.368c0-0.436-0.354-0.791-0.791-0.791
			c-0.436,0-0.79,0.355-0.79,0.791v7.317l-1.319,0.16c-0.922,0.111-1.752,0.308-2.47,0.585c-1.167,0.451-2.171,1.072-2.982,1.848
			c-0.796,0.762-1.414,1.677-1.837,2.716c-0.432,1.062-0.65,2.264-0.65,3.572c0,1.501,0.165,2.74,0.491,3.679
			c0.293,0.85,0.757,1.575,1.378,2.157c0.683,0.64,1.578,1.201,2.662,1.667c1.008,0.434,2.24,0.873,3.664,1.306l1.063,0.324v15.721
			l-1.817-0.394c-3.98-0.862-6.171-3.598-6.334-7.911l-0.002-0.36C73.379,56.952,72.994,56.573,72.521,56.573z"/>
	</g>
	<g>
		<path d="M47.143,66.215c-1.229,0-3.023-0.021-4.422-0.197l-1.312-0.166V34.813l1.233-0.222c1.029-0.186,2.78-0.407,5.279-0.407
			c5.242,0,7.513,1.356,10.346,4.207c2.638,2.653,3.96,6.385,3.93,11.095C62.197,60.896,57.413,66.215,47.143,66.215z
			 M44.409,63.154c0.952,0.053,1.961,0.061,2.733,0.061c8.563,0,12.055-3.98,12.055-13.738c0.024-3.89-1.004-6.905-3.057-8.97
			c-2.245-2.258-3.787-3.322-8.219-3.322c-1.46,0-2.625,0.08-3.513,0.181V63.154z"/>
	</g>
	<g>
		<path d="M83.113,66.099V50.854l2.689,0.954c1.281,0.463,2.317,0.957,3.072,1.467c0.933,0.633,1.585,1.396,1.941,2.272
			c0.309,0.762,0.464,1.662,0.464,2.679c0,2.353-0.748,4.26-2.224,5.67c-1.038,0.992-2.453,1.638-4.204,1.921L83.113,66.099z
			 M86.113,55.17v7.159c0.338-0.169,0.629-0.369,0.871-0.601c0.872-0.833,1.296-1.979,1.296-3.501c0-0.621-0.084-1.158-0.243-1.551
			c-0.128-0.314-0.412-0.624-0.844-0.916C86.973,55.61,86.628,55.408,86.113,55.17z"/>
	</g>
	<g>
		<path d="M81.532,47.52l-2.598-0.862c-1.373-0.475-2.336-0.941-3.022-1.449c-0.87-0.646-1.426-1.416-1.651-2.287
			c-0.156-0.612-0.235-1.372-0.235-2.263c0-1.128,0.235-2.15,0.7-3.038c0.464-0.885,1.111-1.625,1.925-2.197
			c0.751-0.528,1.619-0.925,2.582-1.181c0.152-0.042,0.313-0.076,0.477-0.112l1.815-0.391L81.532,47.52z M78.532,37.773
			c-0.054,0.034-0.105,0.069-0.156,0.105c-0.418,0.294-0.753,0.676-0.992,1.135c-0.238,0.454-0.358,1.008-0.358,1.646
			c0,0.798,0.076,1.264,0.141,1.515c0.047,0.182,0.237,0.405,0.534,0.626c0.209,0.155,0.487,0.314,0.832,0.477V37.773z"/>
	</g>
	<g>
		<path d="M46.199,71.413c-3.306,0-6.342-0.154-9.022-0.459l-1.911-0.215V30.125l1.827-0.28c3.53-0.532,7.098-0.802,10.606-0.802
			c7.72,0,11.424,2.007,14.899,5.245c3.954,3.626,5.964,8.684,5.964,15.023c0,6.646-2.086,12.21-6.033,16.093
			C58.265,69.669,53.53,71.413,46.199,71.413z M38.266,68.054c2.384,0.239,5.048,0.359,7.934,0.359c6.533,0,10.52-1.441,14.218-5.14
			c3.369-3.314,5.146-8.14,5.146-13.963c0-5.464-1.683-9.777-5-12.82c-3.1-2.888-6.063-4.448-12.863-4.448
			c-3.12,0-6.29,0.223-9.434,0.664V68.054z"/>
	</g>
	<g>
		<path d="M31.104,71.884h-5.097c-0.952,0-1.812-0.602-2.138-1.498l-5.446-15.039h-4.978v14.261c0,1.255-1.021,2.275-2.275,2.275
			H6.243c-1.255,0-2.275-1.021-2.275-2.275V31.187c0-1.255,1.02-2.275,2.273-2.275l9.45-0.031c5.871,0,9.749,1.142,12.58,3.703
			c2.412,2.127,3.749,5.305,3.749,8.936c0,4.727-1.369,7.929-4.831,11.127l6.047,16.166c0.256,0.709,0.157,1.484-0.259,2.089
			C32.542,71.521,31.845,71.884,31.104,71.884z M26.516,68.884h3.545l-6.41-17.139l0.802-0.682c3.373-2.867,4.568-5.364,4.568-9.544
			c0-2.757-0.976-5.136-2.748-6.698c-2.252-2.038-5.51-2.94-10.576-2.94l-8.729,0.029v36.975h3.478V52.348h10.081L26.516,68.884z"/>
	</g>
	<g>
		<path d="M16.209,50.059h-5.764V34.231l5.591-0.005c6.048,0.066,9.506,2.931,9.506,7.86C25.542,46.854,21.791,50.059,16.209,50.059
			z M13.445,47.059h2.764c3.906,0,6.333-1.905,6.333-4.973c0-1.185,0-4.789-6.521-4.86l-2.575,0.002V47.059z"/>
	</g>
</g>
</svg>
