<?xml version="1.0" encoding="utf-8"?>
<!-- Generator: Adobe Illustrator 16.0.0, SVG Export Plug-In . SVG Version: 6.00 Build 0)  -->
<!DOCTYPE svg PUBLIC "-//W3C//DTD SVG 1.1//EN" "http://www.w3.org/Graphics/SVG/1.1/DTD/svg11.dtd">
<svg version="1.1" id="Layer_2" xmlns="http://www.w3.org/2000/svg" xmlns:xlink="http://www.w3.org/1999/xlink" x="0px" y="0px"
	 width="100px" height="100px" viewBox="0 0 100 100" enable-background="new 0 0 100 100" xml:space="preserve">
<g>
	<g>
		<path d="M66.25,83.889h-8.175c-0.507,0-1.001-0.207-1.354-0.567c-0.341-0.334-0.548-0.828-0.548-1.334L56.18,36.51
			c0-1.048,0.853-1.901,1.9-1.901h7.137c1.048,0,1.9,0.853,1.9,1.901v2.25c2.547-2.123,6.776-4.3,13.414-4.3
			c1.049,0,1.902,0.853,1.902,1.902v7.115c0,0.511-0.201,0.991-0.565,1.351c-0.336,0.343-0.83,0.55-1.337,0.55h-2.819
			c-4.843,0.121-8.216,3.349-9.215,8.855c-0.168,1.009-0.344,2.235-0.344,3.512v24.242C68.153,83.036,67.3,83.889,66.25,83.889z
			 M59.173,80.889h5.98V57.745c0-1.495,0.196-2.875,0.389-4.026c1.242-6.847,5.89-11.185,12.133-11.34l1.759,0v-4.896
			c-7.946,0.333-11.419,4.236-12.569,5.957c-0.368,0.549-1.056,0.792-1.683,0.602c-0.632-0.192-1.064-0.775-1.064-1.436v-4.997
			H59.18L59.173,80.889z M52.001,83.889h-7.188c-0.691,0-1.362-0.284-1.841-0.78l-14.237-14.83v13.084
			c0,1.393-1.144,2.526-2.549,2.526h-6.07c-1.405,0-2.549-1.133-2.549-2.526V18.638c0-1.393,1.144-2.526,2.549-2.526h6.07
			c1.405,0,2.549,1.133,2.549,2.526v32.384l12.208-15.495c0.474-0.606,1.225-0.971,2.007-0.971h7.537
			c0.946,0,1.811,0.517,2.255,1.348c0.473,0.881,0.372,1.961-0.259,2.75L35.663,59.692l18.228,19.975
			c0.698,0.771,0.856,1.865,0.407,2.792C53.865,83.332,52.966,83.889,52.001,83.889z M44.999,80.889h5.944l-18.36-20.121
			c-0.497-0.545-0.524-1.372-0.063-1.948l17-21.263h-6.356l-14.75,18.721c-0.396,0.502-1.066,0.698-1.67,0.489
			c-0.604-0.209-1.009-0.778-1.009-1.417V19.111h-5.168v61.777h5.168V65.486c0-0.819,0.656-1.486,1.476-1.5l0.885-0.015
			c0.41,0.001,0.818,0.161,1.106,0.461L44.999,80.889z"/>
	</g>
</g>
</svg>
