<?xml version="1.0" encoding="utf-8"?>
<!-- Generator: Adobe Illustrator 16.0.0, SVG Export Plug-In . SVG Version: 6.00 Build 0)  -->
<!DOCTYPE svg PUBLIC "-//W3C//DTD SVG 1.1//EN" "http://www.w3.org/Graphics/SVG/1.1/DTD/svg11.dtd">
<svg version="1.1" id="Layer_3" xmlns="http://www.w3.org/2000/svg" xmlns:xlink="http://www.w3.org/1999/xlink" x="0px" y="0px"
	 width="100px" height="100px" viewBox="0 0 100 100" enable-background="new 0 0 100 100" xml:space="preserve">
<g>
	<path d="M60.876,87.25c-13.445,0-25.54-9.498-30.404-23.75h-9.471c-3.032,0-5.5-2.467-5.5-5.5s2.468-5.5,5.5-5.5h7.327
		c-0.052-0.845-0.077-1.681-0.077-2.5c0-0.975,0.037-1.979,0.111-3h-7.361c-3.032,0-5.5-2.467-5.5-5.5s2.468-5.5,5.5-5.5h9.645
		c4.972-13.953,16.998-23.25,30.23-23.25c8.225,0,16.077,3.496,22.111,9.844c2.09,2.199,2.001,5.688-0.197,7.776
		c-1.028,0.976-2.373,1.513-3.789,1.513c-1.5,0-2.953-0.624-3.986-1.71c-3.938-4.142-8.958-6.422-14.139-6.422
		c-7.481,0-14.317,4.638-18.275,12.25h22.9c3.032,0,5.5,2.467,5.5,5.5s-2.468,5.5-5.5,5.5H39.396c-0.096,1.004-0.145,2.008-0.145,3
		c0,0.823,0.034,1.66,0.101,2.5h26.149c3.032,0,5.5,2.467,5.5,5.5s-2.468,5.5-5.5,5.5H42.343c3.89,7.814,10.969,12.75,18.533,12.75
		c5.181,0,10.201-2.281,14.139-6.422c1.033-1.087,2.486-1.711,3.986-1.711c1.416,0,2.762,0.538,3.789,1.513
		c2.198,2.089,2.287,5.577,0.197,7.776C76.953,83.754,69.101,87.25,60.876,87.25z M21.001,55.5c-1.379,0-2.5,1.122-2.5,2.5
		s1.121,2.5,2.5,2.5h10.56c0.657,0,1.237,0.427,1.433,1.054c4.224,13.575,15.43,22.696,27.883,22.696
		c7.395,0,14.475-3.165,19.938-8.911c0.949-0.999,0.909-2.585-0.09-3.534c-0.969-0.92-2.615-0.877-3.535,0.089
		c-4.509,4.744-10.302,7.356-16.313,7.356c-9.441,0-18.171-6.552-22.24-16.691c-0.186-0.462-0.13-0.986,0.149-1.399
		c0.278-0.413,0.744-0.66,1.242-0.66h25.474c1.379,0,2.5-1.122,2.5-2.5s-1.121-2.5-2.5-2.5H37.994c-0.759,0-1.398-0.567-1.489-1.321
		c-0.169-1.4-0.254-2.806-0.254-4.179c0-1.554,0.108-3.137,0.322-4.703C36.675,44.554,37.31,44,38.06,44h27.441
		c1.379,0,2.5-1.122,2.5-2.5s-1.121-2.5-2.5-2.5H40.24c-0.503,0-0.973-0.252-1.25-0.671c-0.278-0.419-0.327-0.95-0.132-1.413
		C43.07,26.944,51.507,20.75,60.876,20.75c6.011,0,11.804,2.612,16.313,7.356c0.92,0.967,2.565,1.011,3.536,0.089
		c0.998-0.949,1.038-2.535,0.089-3.534c-5.463-5.746-12.543-8.911-19.938-8.911c-12.255,0-23.398,8.928-27.731,22.215
		C32.943,38.582,32.368,39,31.719,39H21.001c-1.379,0-2.5,1.122-2.5,2.5s1.121,2.5,2.5,2.5h9.005c0.427,0,0.833,0.182,1.117,0.499
		s0.42,0.741,0.374,1.165c-0.163,1.485-0.246,2.944-0.246,4.336c0,1.251,0.065,2.548,0.193,3.854
		c0.041,0.421-0.098,0.84-0.382,1.154c-0.284,0.314-0.688,0.493-1.111,0.493H21.001z"/>
</g>
</svg>
