<?xml version="1.0" encoding="utf-8"?>
<!-- Generator: Adobe Illustrator 16.0.0, SVG Export Plug-In . SVG Version: 6.00 Build 0)  -->
<!DOCTYPE svg PUBLIC "-//W3C//DTD SVG 1.1//EN" "http://www.w3.org/Graphics/SVG/1.1/DTD/svg11.dtd">
<svg version="1.1" id="Layer_2" xmlns="http://www.w3.org/2000/svg" xmlns:xlink="http://www.w3.org/1999/xlink" x="0px" y="0px"
	 width="100px" height="100px" viewBox="0 0 100 100" enable-background="new 0 0 100 100" xml:space="preserve">
<g>
	<g>
		<path d="M40.639,93.938c-0.354,0-0.708-0.046-1.053-0.137c-1.063-0.279-1.956-0.958-2.511-1.91
			c-0.555-0.951-0.705-2.062-0.425-3.126l1.425-5.406c-0.726-0.38-1.413-0.786-2.051-1.215c-2.183-1.461-4.212-3.405-6.03-5.779
			c-1.613-2.142-3-4.558-4.13-7.19c-1.126-2.62-1.982-5.455-2.544-8.426c-0.559-2.952-0.843-6.128-0.843-9.438
			c0-5.383,0.715-10.283,2.127-14.563c1.422-4.318,3.496-8.072,6.163-11.159c2.681-3.102,5.87-5.498,9.479-7.123
			c3.605-1.622,7.497-2.444,11.567-2.444c1.342,0,2.662,0.083,3.94,0.248l1.879-7.134c0.477-1.809,2.117-3.072,3.987-3.072
			c0.353,0,0.706,0.046,1.049,0.136c1.065,0.28,1.958,0.959,2.512,1.911c0.554,0.951,0.705,2.062,0.425,3.126l-1.938,7.352
			c0.527,0.251,1.027,0.512,1.511,0.787c3.889,2.219,6.919,5.012,9.006,8.303c2.11,3.327,3.181,6.552,3.181,9.584
			c0,1.862-0.598,3.53-1.777,4.957c-1.232,1.49-2.83,2.278-4.621,2.278c-1.935,0-3.447-0.562-4.495-1.669
			c-0.874-0.926-1.788-2.405-2.793-4.522c-1.103-2.313-2.355-4.184-3.735-5.582L49.39,72.776c0.685,0.102,1.389,0.153,2.104,0.153
			c3.075,0,5.588-0.816,7.684-2.494c2.106-1.688,3.731-4.241,4.829-7.589c0.529-1.812,1.227-3.369,2.059-4.582
			c0.713-1.038,2.128-2.274,4.822-2.274c1.835,0,3.426,0.716,4.727,2.129c1.268,1.378,1.91,3.096,1.91,5.105
			c0,2.248-0.495,4.693-1.472,7.269c-0.971,2.562-2.511,5.102-4.578,7.549c-2.094,2.48-4.794,4.519-8.027,6.056
			c-3.243,1.542-7.05,2.324-11.317,2.324c-2.157,0-4.238-0.168-6.205-0.499l-1.302,4.942C44.147,92.674,42.509,93.938,40.639,93.938
			z M51.813,19.021c-3.643,0-7.121,0.733-10.336,2.18c-3.208,1.444-6.048,3.58-8.441,6.35c-2.407,2.785-4.286,6.195-5.583,10.136
			c-1.312,3.977-1.976,8.561-1.976,13.624c0,3.124,0.266,6.111,0.79,8.88c0.521,2.756,1.313,5.381,2.354,7.801
			c1.036,2.412,2.302,4.619,3.763,6.56c1.611,2.103,3.401,3.822,5.312,5.102c0.844,0.566,1.75,1.069,2.772,1.54
			c0.662,0.305,1.009,1.041,0.823,1.745l-1.737,6.593c-0.077,0.29-0.036,0.592,0.115,0.851s0.394,0.443,0.684,0.52
			c0.605,0.16,1.218-0.213,1.372-0.799l1.659-6.297c0.205-0.774,0.982-1.251,1.766-1.084c2.166,0.466,4.515,0.702,6.983,0.702
			c3.817,0,7.191-0.685,10.029-2.033c2.844-1.353,5.207-3.13,7.023-5.282c1.847-2.187,3.214-4.434,4.064-6.677
			c0.847-2.234,1.277-4.321,1.277-6.205c0-1.251-0.365-2.257-1.117-3.074c-0.729-0.791-1.53-1.16-2.52-1.16
			c-1.506,0-2.062,0.555-2.348,0.972c-0.652,0.951-1.213,2.221-1.668,3.773c-1.296,3.956-3.249,6.982-5.818,9.041
			c-2.612,2.093-5.828,3.153-9.56,3.153c-1.498,0-2.96-0.188-4.345-0.558c-0.798-0.214-1.274-1.032-1.063-1.832l11.558-43.86
			c0.124-0.471,0.469-0.852,0.925-1.022c0.456-0.171,0.966-0.109,1.369,0.164l0.093,0.063c0.163,0.109,0.325,0.22,0.482,0.341
			c2.263,1.738,4.24,4.359,5.876,7.791c1.068,2.249,1.821,3.281,2.265,3.751c0.458,0.483,1.237,0.729,2.314,0.729
			c0.904,0,1.638-0.378,2.309-1.189c0.733-0.888,1.09-1.884,1.09-3.046c0-2.454-0.913-5.138-2.714-7.978
			c-1.822-2.873-4.5-5.33-7.958-7.304c-0.728-0.414-1.506-0.793-2.378-1.157c-0.691-0.289-1.063-1.043-0.873-1.767l2.262-8.585
			c0.077-0.29,0.036-0.592-0.116-0.851c-0.151-0.26-0.394-0.444-0.683-0.521c-0.592-0.157-1.217,0.215-1.372,0.8l-2.224,8.439
			c-0.199,0.757-0.951,1.234-1.716,1.094C55.071,19.159,53.463,19.021,51.813,19.021z M42.746,73.018
			c-0.334,0-0.665-0.112-0.934-0.326c-2.213-1.76-3.84-4.155-5.123-7.539c-1.333-3.517-2.009-7.951-2.009-13.179
			c0-7.867,1.545-14.064,4.591-18.422c3.313-4.736,7.44-7.038,12.62-7.038c0.85,0,1.688,0.061,2.494,0.18
			c0.422,0.063,0.797,0.303,1.032,0.658c0.235,0.356,0.307,0.796,0.198,1.208l-11.42,43.34c-0.129,0.49-0.497,0.882-0.978,1.041
			C43.064,72.992,42.905,73.018,42.746,73.018z M51.892,29.514c-4.185,0-7.414,1.829-10.161,5.758
			c-2.687,3.843-4.05,9.462-4.05,16.702c0,4.863,0.61,8.939,1.814,12.116c0.711,1.876,1.503,3.347,2.461,4.538l10.305-39.11
			C52.139,29.515,52.016,29.514,51.892,29.514z"/>
	</g>
</g>
</svg>
