<?xml version="1.0" encoding="utf-8"?>
<!-- Generator: Adobe Illustrator 16.0.0, SVG Export Plug-In . SVG Version: 6.00 Build 0)  -->
<!DOCTYPE svg PUBLIC "-//W3C//DTD SVG 1.1//EN" "http://www.w3.org/Graphics/SVG/1.1/DTD/svg11.dtd">
<svg version="1.1" id="Layer_2" xmlns="http://www.w3.org/2000/svg" xmlns:xlink="http://www.w3.org/1999/xlink" x="0px" y="0px"
	 width="100px" height="100px" viewBox="0 0 100 100" enable-background="new 0 0 100 100" xml:space="preserve">
<g>
	<g>
		<path d="M63.456,91.824c-2.132,0-4.087-1.064-5.241-2.851l-2.727-3.708l-3.929-5.029l-2.67-0.036
			c-15.416-0.578-30.934-11.721-30.934-35.318c0-21.612,13.422-36.707,32.64-36.707c18.518,0,31.451,14.523,31.451,35.318
			c0,15.553-6.611,27.616-17.792,32.708l4.403,5.963c0.021,0.029,0.041,0.059,0.06,0.088c0.891,1.407,1.181,3.076,0.816,4.7
			c-0.364,1.625-1.34,3.011-2.747,3.901C65.786,91.489,64.635,91.824,63.456,91.824z M50.595,11.176
			c-17.729,0-29.64,13.545-29.64,33.707c0,21.601,14.068,31.796,28.011,32.319l3.354,0.045c0.455,0.006,0.882,0.218,1.162,0.577
			l4.398,5.63l2.782,3.782c0.021,0.028,0.04,0.057,0.059,0.086c0.596,0.941,1.619,1.503,2.736,1.503c0.61,0,1.206-0.174,1.725-0.502
			c0.73-0.462,1.236-1.181,1.425-2.023c0.186-0.827,0.044-1.676-0.398-2.397L60.7,76.44c-0.279-0.379-0.365-0.867-0.23-1.318
			c0.134-0.452,0.473-0.813,0.914-0.978c11.059-4.117,17.662-15.575,17.662-30.65C79.045,24.164,67.612,11.176,50.595,11.176z
			 M47.114,72.951c-0.069,0-0.138-0.005-0.208-0.014c-11.722-1.632-19.834-13.255-19.729-28.264
			c-0.066-9.563,2.915-18.099,8.177-23.397c3.937-3.963,9.104-6.059,14.943-6.059c15.544,0,22.624,14.863,22.624,28.673
			c0,13.073-5.557,23.619-14.503,27.522c-0.64,0.279-1.388,0.08-1.804-0.481l-3.304-4.454c-0.022-0.029-0.043-0.06-0.063-0.091
			c-0.596-0.941-1.619-1.502-2.735-1.502c-0.61,0-1.207,0.174-1.726,0.502c-1.491,0.944-1.946,2.917-1.027,4.419l0.559,0.752
			c0.36,0.485,0.395,1.14,0.086,1.66C48.131,72.676,47.638,72.951,47.114,72.951z M50.297,18.217c-5.094,0-9.405,1.74-12.814,5.172
			c-4.703,4.736-7.366,12.494-7.305,21.284c-0.085,12.148,5.63,21.789,14.217,24.614c-0.463-2.439,0.565-5.029,2.787-6.436
			c1-0.633,2.152-0.968,3.331-0.968c2.131,0,4.084,1.063,5.238,2.847l2.536,3.419c7.208-3.788,11.635-12.946,11.635-24.259
			C69.921,31.525,63.78,18.217,50.297,18.217z"/>
	</g>
</g>
</svg>
