<?xml version="1.0" encoding="utf-8"?>
<!-- Generator: Adobe Illustrator 16.0.0, SVG Export Plug-In . SVG Version: 6.00 Build 0)  -->
<!DOCTYPE svg PUBLIC "-//W3C//DTD SVG 1.1//EN" "http://www.w3.org/Graphics/SVG/1.1/DTD/svg11.dtd">
<svg version="1.1" id="Layer_2" xmlns="http://www.w3.org/2000/svg" xmlns:xlink="http://www.w3.org/1999/xlink" x="0px" y="0px"
	 width="100px" height="100px" viewBox="0 0 100 100" enable-background="new 0 0 100 100" xml:space="preserve">
<g>
	<g>
		<g>
			<path d="M26.063,81.755h-7.683c-1.342,0-2.434-1.091-2.434-2.433V19.794c0-1.341,1.092-2.433,2.434-2.433h32.06
				c1.342,0,2.433,1.091,2.433,2.433v6.447c0,1.341-1.091,2.433-2.433,2.433H28.496v14.919h20.09c1.342,0,2.434,1.091,2.434,2.433
				v6.359c0,1.341-1.092,2.433-2.434,2.433h-20.09v24.506C28.496,80.664,27.405,81.755,26.063,81.755z M18.947,78.755h6.549V53.317
				c0-0.829,0.672-1.5,1.5-1.5H48.02v-5.224H26.996c-0.828,0-1.5-0.671-1.5-1.5V27.174c0-0.829,0.672-1.5,1.5-1.5h22.877v-5.313
				H18.947V78.755z"/>
		</g>
	</g>
	<g>
		<g>
			<path d="M74.29,82.639c-4.342,0-7.876-1.417-10.222-4.098c-2.445-2.539-3.606-6.601-3.606-12.731V44.925h-4.19
				c-1.342,0-2.433-1.091-2.433-2.433v-5.918c0-1.341,1.091-2.433,2.433-2.433h4.19V26.33c0-1.099,0.742-2.065,1.804-2.35
				c0.127-0.034,0.257-0.051,0.388-0.051l7.449-0.003c0.658-0.103,1.345,0.069,1.87,0.471c0.597,0.458,0.952,1.18,0.952,1.93v7.815
				h8.694c1.342,0,2.433,1.091,2.433,2.433v5.918c0,1.341-1.091,2.433-2.433,2.433h-8.694v20.62c0,5.87,1.883,5.87,3.396,5.87
				c1.761,0,3.407-0.23,4.192-0.445c0.729-0.195,1.466-0.052,2.054,0.368c0.599,0.43,0.966,1.093,1.015,1.824l0.028,5.922
				c0.059,0.955-0.545,1.917-1.503,2.312C80.156,82.198,77.381,82.639,74.29,82.639z M56.839,41.925h5.123
				c0.828,0,1.5,0.671,1.5,1.5V65.81c0,5.306,0.895,8.707,2.816,10.703c1.808,2.063,4.561,3.126,8.012,3.126
				c2.515,0,4.738-0.312,6.32-0.881l-0.022-4.729c-1.02,0.201-2.542,0.386-4.268,0.386c-4.363,0-6.396-2.818-6.396-8.87v-22.12
				c0-0.829,0.672-1.5,1.5-1.5h9.627v-4.783h-9.627c-0.828,0-1.5-0.671-1.5-1.5v-8.716l-6.463,0.002v8.714
				c0,0.829-0.672,1.5-1.5,1.5h-5.123V41.925z"/>
		</g>
	</g>
</g>
</svg>
