<?xml version="1.0" encoding="utf-8"?>
<!-- Generator: Adobe Illustrator 16.0.0, SVG Export Plug-In . SVG Version: 6.00 Build 0)  -->
<!DOCTYPE svg PUBLIC "-//W3C//DTD SVG 1.1//EN" "http://www.w3.org/Graphics/SVG/1.1/DTD/svg11.dtd">
<svg version="1.1" id="Layer_2" xmlns="http://www.w3.org/2000/svg" xmlns:xlink="http://www.w3.org/1999/xlink" x="0px" y="0px"
	 width="100px" height="100px" viewBox="0 0 100 100" enable-background="new 0 0 100 100" xml:space="preserve">
<g>
	<g>
		<g>
			<path d="M52.001,84.139h-7.188c-0.758,0-1.493-0.312-2.019-0.854L28.984,68.9v12.462c0,1.531-1.255,2.776-2.799,2.776h-6.07
				c-1.543,0-2.799-1.246-2.799-2.776V18.638c0-1.531,1.255-2.776,2.799-2.776h6.07c1.543,0,2.799,1.246,2.799,2.776v31.663
				l11.762-14.928c0.519-0.666,1.344-1.066,2.203-1.066h7.537c1.039,0,1.987,0.567,2.475,1.48c0.52,0.969,0.41,2.157-0.283,3.023
				L35.992,59.681l18.083,19.818c0.768,0.844,0.943,2.048,0.448,3.069C54.047,83.527,53.06,84.139,52.001,84.139z M44.893,81.139
				h6.617L32.912,60.757c-0.498-0.545-0.524-1.372-0.063-1.948L50.04,37.307h-6.998l-14.379,18.25
				c-0.396,0.502-1.065,0.697-1.669,0.489c-0.604-0.209-1.009-0.778-1.009-1.417V18.861h-5.668v62.277h5.668V65.732
				c0-0.819,0.657-1.486,1.475-1.5l0.53-0.009c0.4-0.009,0.818,0.161,1.107,0.461L44.893,81.139z"/>
		</g>
	</g>
	<g>
		<g>
			<path d="M66.25,84.139h-8.175c-0.575,0-1.135-0.235-1.536-0.646c-0.382-0.37-0.617-0.929-0.617-1.505L55.93,36.51
				c0-1.186,0.965-2.151,2.15-2.151h7.137c1.186,0,2.15,0.965,2.15,2.151v1.723c2.623-2.049,6.802-4.023,13.164-4.023
				c1.187,0,2.152,0.965,2.152,2.152v7.115c0,0.578-0.227,1.121-0.639,1.528c-0.381,0.39-0.939,0.623-1.513,0.623h-2.819
				c-4.71,0.118-7.993,3.271-8.968,8.649c-0.167,0.999-0.34,2.211-0.34,3.468v24.242C68.403,83.173,67.438,84.139,66.25,84.139z
				 M58.923,81.139h6.48V57.745c0-1.475,0.194-2.841,0.385-3.982c1.22-6.724,5.773-10.982,11.886-11.134l2.009,0v-5.405
				c-7.426,0.235-11.087,3.532-12.63,5.526c-0.393,0.507-1.064,0.708-1.671,0.501c-0.607-0.208-1.015-0.778-1.015-1.419v-4.473
				H58.93L58.923,81.139z"/>
		</g>
	</g>
</g>
</svg>
