<?xml version="1.0" encoding="utf-8"?>
<!-- Generator: Adobe Illustrator 16.0.0, SVG Export Plug-In . SVG Version: 6.00 Build 0)  -->
<!DOCTYPE svg PUBLIC "-//W3C//DTD SVG 1.1//EN" "http://www.w3.org/Graphics/SVG/1.1/DTD/svg11.dtd">
<svg version="1.1" id="Layer_2" xmlns="http://www.w3.org/2000/svg" xmlns:xlink="http://www.w3.org/1999/xlink" x="0px" y="0px"
	 width="100px" height="100px" viewBox="0 0 100 100" enable-background="new 0 0 100 100" xml:space="preserve">
<g>
	<g>
		<path d="M65.765,92.233c-1.554,0-3.027-0.593-4.148-1.671c-2.426-2.335-3.818-6.069-4.559-8.791
			c-0.843-2.499-1.954-6.821-3.47-13.518c-1.774-8.249-4.521-10.975-11.307-11.232l-6.827,0.001c-0.055,0-0.113-0.004-0.173-0.011
			h-4.238c-2.873,0-5.21-2.337-5.21-5.21c0-2.873,2.337-5.21,5.21-5.21h11.998c5.092,0,9.016-1.695,11.121-4.723H27.76
			c-2.925,0-5.304-2.38-5.304-5.305s2.379-5.305,5.304-5.305h27.124c-1.969-4.014-6.554-5.237-10.311-5.519H27.76
			c-2.974,0-5.304-2.271-5.304-5.17c0-2.924,2.33-5.215,5.304-5.215H72.24c2.974,0,5.304,2.291,5.304,5.215
			c0,2.899-2.33,5.17-5.304,5.17h-6.062c0.862,1.666,1.482,3.528,1.834,5.519h4.228c2.925,0,5.304,2.38,5.304,5.305
			s-2.379,5.305-5.304,5.305h-5.013c-1.563,4.418-4.67,7.992-8.95,10.329c3.513,2.528,5.915,6.757,7.303,12.83
			c1.919,8.202,3.612,15.19,4.886,17.555c0.001,0.002,0.002,0.004,0.003,0.006c1.831,2.343,1.681,5.656-0.392,7.811
			C68.938,91.582,67.407,92.233,65.765,92.233z M42.338,54.022c8.29,0.314,12.118,3.996,14.179,13.585
			c1.49,6.579,2.574,10.808,3.41,13.292c0.932,3.417,2.262,6.05,3.77,7.501c1.149,1.106,3.114,1.068,4.219-0.081
			c1.059-1.101,1.104-2.816,0.103-3.989c-0.118-0.139-0.21-0.297-0.271-0.469c0-0.002-0.001-0.005-0.002-0.007
			c-1.428-2.768-3.015-9.287-5.088-18.15c-1.491-6.519-4.189-10.527-8.251-12.262c-0.562-0.24-0.922-0.796-0.91-1.407
			c0.011-0.611,0.392-1.154,0.962-1.373c5.184-1.989,8.818-5.792,10.234-10.708c0.185-0.643,0.773-1.085,1.441-1.085h6.107
			c1.271,0,2.304-1.034,2.304-2.305s-1.034-2.305-2.304-2.305h-5.524c-0.763,0-1.404-0.572-1.49-1.33
			c-0.339-2.966-1.388-5.729-2.952-7.779c-0.346-0.453-0.405-1.064-0.152-1.575c0.253-0.511,0.774-0.835,1.344-0.835h8.774
			c1.313,0,2.304-0.933,2.304-2.17c0-1.242-1.012-2.215-2.304-2.215H27.76c-1.292,0-2.304,0.973-2.304,2.215
			c0,1.237,0.991,2.17,2.304,2.17h16.868c0.036,0,0.073,0.001,0.109,0.004c7.474,0.544,12.349,3.975,13.726,9.662
			c0.108,0.447,0.005,0.919-0.279,1.28c-0.284,0.362-0.719,0.573-1.179,0.573H27.76c-1.271,0-2.304,1.034-2.304,2.305
			s1.034,2.305,2.304,2.305h28.866c0.492,0,0.953,0.241,1.233,0.646c0.28,0.404,0.344,0.92,0.172,1.38
			c-2.04,5.446-7.643,8.697-14.99,8.697H31.043c-1.219,0-2.21,0.992-2.21,2.21s0.992,2.21,2.21,2.21h4.359
			c0.054,0,0.108,0.003,0.162,0.009c0.006,0,0.012,0.001,0.017,0.002L42.338,54.022z"/>
	</g>
</g>
</svg>
