<?xml version="1.0" encoding="utf-8"?>
<!-- Generator: Adobe Illustrator 16.0.0, SVG Export Plug-In . SVG Version: 6.00 Build 0)  -->
<!DOCTYPE svg PUBLIC "-//W3C//DTD SVG 1.1//EN" "http://www.w3.org/Graphics/SVG/1.1/DTD/svg11.dtd">
<svg version="1.1" id="Layer_2" xmlns="http://www.w3.org/2000/svg" xmlns:xlink="http://www.w3.org/1999/xlink" x="0px" y="0px"
	 width="100px" height="100px" viewBox="0 0 100 100" enable-background="new 0 0 100 100" xml:space="preserve">
<g>
	<g>
		<g>
			<path d="M57.891,87.344h-5.813c-0.639,0-1.24-0.248-1.692-0.698c-0.458-0.462-0.707-1.063-0.707-1.7l0.016-51.525
				c0-0.64,0.25-1.243,0.703-1.696c0.456-0.454,1.058-0.702,1.696-0.702l5.604,0.008c1.32,0.005,2.393,1.079,2.396,2.394v0.048
				c2.803-2.202,6.19-3.28,10.262-3.28c10.511,0,18.139,8.825,18.139,20.983c0,15.145-9.986,22.042-19.265,22.042
				c-3.351,0-6.427-0.869-8.94-2.491v14.219C60.29,86.268,59.214,87.344,57.891,87.344z M52.68,84.344h4.61V67.542
				c0-0.615,0.375-1.167,0.947-1.395c0.571-0.227,1.224-0.082,1.645,0.367c2.247,2.387,5.566,3.702,9.348,3.702
				c7.834,0,16.265-5.959,16.265-19.042c0-10.42-6.367-17.983-15.139-17.983c-4.493,0-7.957,1.571-10.588,4.803
				c-0.399,0.492-1.064,0.68-1.664,0.467c-0.597-0.211-0.998-0.775-1-1.409l-0.009-3.023l-4.4-0.006L52.68,84.344z M69.321,66.224
				c-6.79,0-12.314-6.509-12.314-14.509s5.524-14.509,12.314-14.509c6.791,0,12.315,6.509,12.315,14.509
				S76.112,66.224,69.321,66.224z M69.321,40.206c-5.136,0-9.314,5.163-9.314,11.509s4.178,11.509,9.314,11.509
				c5.137,0,9.315-5.163,9.315-11.509S74.458,40.206,69.321,40.206z"/>
		</g>
	</g>
	<g>
		<g>
			<path d="M46.348,67.764h-6.594c-1.124,0-2.137-0.71-2.52-1.768L30.127,46.37h-6.889v18.713c0,1.478-1.202,2.681-2.68,2.681
				h-6.373c-1.478,0-2.681-1.203-2.681-2.681V15.377c0-1.475,1.199-2.677,2.673-2.681l12.233-0.04
				c7.523,0,12.485,1.457,16.095,4.722c3.068,2.707,4.765,6.748,4.765,11.365c0,6.011-1.837,10.229-6.297,14.32l7.885,21.081
				c0.305,0.826,0.19,1.744-0.305,2.462C48.047,67.333,47.224,67.764,46.348,67.764z M39.978,64.764h5.909l-8.084-21.615
				c-0.221-0.59-0.049-1.254,0.429-1.665c4.402-3.772,6.039-7.226,6.039-12.741c0-3.744-1.336-6.986-3.764-9.128
				c-3.031-2.742-7.373-3.959-14.091-3.959l-11.911,0.039v49.068h5.733V44.87c0-0.829,0.671-1.5,1.5-1.5h9.441
				c0.631,0,1.195,0.396,1.41,0.989L39.978,64.764z M27.079,39.174h-5.341c-0.829,0-1.5-0.671-1.5-1.5V21.431
				c0-0.828,0.67-1.499,1.498-1.5l5.117-0.006c0.004-0.001,0.012,0,0.019,0c9.64,0.107,11.664,5.253,11.664,9.552
				C38.535,35.277,33.931,39.174,27.079,39.174z M23.238,36.174h3.841c5.216,0,8.456-2.566,8.456-6.697
				c0-2.77-0.9-6.462-8.688-6.552l-3.609,0.004V36.174z"/>
		</g>
	</g>
</g>
</svg>
