<?xml version="1.0" encoding="utf-8"?>
<!-- Generator: Adobe Illustrator 16.0.0, SVG Export Plug-In . SVG Version: 6.00 Build 0)  -->
<!DOCTYPE svg PUBLIC "-//W3C//DTD SVG 1.1//EN" "http://www.w3.org/Graphics/SVG/1.1/DTD/svg11.dtd">
<svg version="1.1" id="Layer_2" xmlns="http://www.w3.org/2000/svg" xmlns:xlink="http://www.w3.org/1999/xlink" x="0px" y="0px"
	 width="100px" height="100px" viewBox="0 0 100 100" enable-background="new 0 0 100 100" xml:space="preserve">
<g>
	<g>
		<g>
			<path d="M60.558,65.261h-0.003c-3.075,0-5.601-0.021-7.95-0.068c-3.928-0.08-6.6-2.68-7.332-7.136
				c-0.408-2.477-0.661-4.95-0.905-7.342c-0.192-1.878-0.408-3.981-0.699-5.982c-0.287-1.965-0.651-3.977-1.002-5.923l-0.026-0.145
				c-0.572-3.162-1.163-6.426-1.481-9.692c-0.183-1.886,0.588-3.599,1.267-5.11c0.25-0.557,0.502-1.117,0.669-1.608
				c0.323-0.961,1.227-1.609,2.246-1.609c1.004,0,1.904,0.636,2.241,1.582c0.411,1.192,2.458,7.275,2.811,11.22
				c0.199,2.231,0.512,6.145,0.845,10.312c0.255,3.189,0.523,6.528,0.759,9.372c0.097,1.176,0.321,1.655,2.171,1.655l0.265-0.004
				c1.858-0.062,3.887-0.09,6.359-0.09c1.34,0,2.708,0.008,4.116,0.017l0.493,0.003c0.763,0.005,1.522,0.01,2.287,0.014
				c-0.006-0.028-0.012-0.056-0.017-0.084c-0.364-1.773-0.677-3.299-1.346-4.17c-2.826-3.672-2.899-7.209-0.227-10.811
				c0.388-0.527,0.988-0.873,1.644-0.945l0.177-0.012c0.004,0,0.008,0,0.013,0c0.632,0,1.165,0.193,1.587,0.543
				c4.499,3.755,5.687,9.753,4.713,23.774c-0.088,1.24-1.128,2.21-2.37,2.21c-1.924,0-3.829,0.007-5.722,0.016l-0.662,0.002
				C63.83,65.255,62.191,65.261,60.558,65.261z M45.281,24.828c-0.038,0.083-0.075,0.167-0.112,0.25
				c-0.585,1.301-1.13,2.514-1.025,3.606c0.307,3.142,0.886,6.345,1.447,9.443l0.019,0.101c0.365,2.019,0.733,4.057,1.028,6.073
				c0.3,2.064,0.519,4.201,0.712,6.086c0.243,2.37,0.491,4.797,0.883,7.184c0.496,3.019,1.987,4.574,4.432,4.624
				c2.328,0.046,4.835,0.067,7.89,0.067h0.003c1.63,0,3.265-0.006,4.909-0.012l0.661-0.002c1.704-0.008,3.419-0.014,5.15-0.016
				c0.785-11.838-0.028-17.166-3.164-20.215c-1.474,2.286-1.285,4.193,0.588,6.628c1.091,1.419,1.469,3.259,1.905,5.388
				c0.125,0.612,0.251,1.226,0.4,1.854c0.106,0.447,0.002,0.918-0.283,1.278c-0.285,0.359-0.718,0.569-1.176,0.569
				c-0.001,0-0.002,0-0.003,0c-1.413-0.003-2.782-0.012-4.166-0.021l-0.491-0.003c-1.402-0.008-2.763-0.017-4.098-0.017
				c-2.438,0-4.436,0.028-6.287,0.089l-0.314,0.005c-3.205,0-4.941-1.483-5.184-4.407c-0.236-2.846-0.504-6.188-0.759-9.38
				c-0.332-4.156-0.644-8.059-0.843-10.284C47.166,31.04,45.993,27.06,45.281,24.828z"/>
		</g>
	</g>
	<g>
		<g>
			<path d="M63.688,76.738c-0.039,0-0.078-0.001-0.116-0.004l-0.101-0.008c-0.526-0.009-1.146-0.312-1.574-0.804l-2.358-2.69
				l-2.957,2.688c-0.45,0.414-1.089,0.647-1.702,0.615c-0.667-0.037-1.268-0.329-1.693-0.821l-3.766-4.375
				c-0.845-0.984-0.755-2.437,0.203-3.307l3.779-3.437c0.435-0.398,1.003-0.618,1.599-0.618c0.776,0.041,1.391,0.341,1.815,0.847
				l2.337,2.769l2.988-2.755c0.426-0.398,1.014-0.63,1.607-0.63c0.771,0.042,1.359,0.321,1.789,0.812l3.711,4.268
				c0.843,0.966,0.769,2.413-0.169,3.291l-3.772,3.523C64.867,76.511,64.291,76.738,63.688,76.738z M60.816,70.139l2.917,3.327
				l2.856-2.668l-2.887-3.32L60.816,70.139z M52.091,69.841l2.948,3.425l2.818-2.562L54.94,67.25L52.091,69.841z"/>
		</g>
	</g>
	<g>
		<g>
			<path d="M20.865,73.804c-2.035,0-3.887-0.104-5.663-0.319c-3.815-0.462-7.021-2.305-9.026-5.188
				c-1.967-2.832-2.571-6.384-1.702-10.004c0.247-1.108,1.658-6.961,4.632-11.156c0.598-0.91,1.725-1.501,2.914-1.501
				c0.686,0,1.341,0.193,1.897,0.56c0.778,0.512,1.313,1.299,1.501,2.216c0.189,0.914,0.01,1.849-0.504,2.63
				c-1.873,2.847-3.083,6.793-3.166,7.779c-0.05,0.606,0.052,1.195,0.713,2.096c1.338,1.823,4.084,2.791,7.939,2.798l1.711,0.009
				c0.645,0,1.414-0.009,2.175-0.08c4.328-0.4,6.86-1.305,8.21-2.934c1.288-1.556,1.709-4.132,1.326-8.107l-0.247-2.62
				c-0.657-6.991-1.336-14.219-2.951-21.011l-0.204-0.846c-0.924-3.81-1.798-7.41,0.617-11.554c0.353-0.612,0.963-1.034,1.67-1.149
				c0.043-0.007,0.086-0.012,0.13-0.016l0.138-0.01c0.624-0.038,1.23,0.185,1.692,0.597c0.412,0.364,0.801,0.74,1.177,1.105
				c0.625,0.607,1.218,1.183,1.789,1.524c2.313,1.377,3.556,2.949,3.798,4.804c0.256,1.939-0.6,3.861-2.694,6.038
				c-0.066,0.193-0.14,0.665-0.09,1.143c0.337,3.22,0.719,6.489,1.09,9.663l0.067,0.572c0.527,4.497,1.073,9.146,1.515,13.816
				c0.557,5.869-0.553,10.494-3.3,13.748c-2.575,3.052-6.499,4.793-11.66,5.175C24.348,73.731,22.55,73.804,20.865,73.804z
				 M12.021,48.635c-0.18,0-0.364,0.081-0.438,0.193c-2.671,3.77-3.956,9.108-4.187,10.141c-0.672,2.8-0.229,5.496,1.243,7.615
				c1.51,2.171,3.969,3.564,6.923,3.922c3.047,0.37,6.337,0.399,10.575,0.084c4.327-0.32,7.554-1.706,9.589-4.118
				c2.208-2.614,3.084-6.493,2.606-11.529c-0.439-4.636-0.983-9.269-1.508-13.749l-0.067-0.574c-0.372-3.186-0.755-6.467-1.094-9.7
				c-0.113-1.084,0.038-2.639,0.835-3.456c1.446-1.482,2.086-2.675,1.958-3.646c-0.114-0.874-0.908-1.754-2.361-2.619
				c-0.874-0.522-1.621-1.249-2.344-1.95c-0.16-0.156-0.323-0.314-0.49-0.473c-1.337,2.827-0.707,5.422,0.074,8.643l0.206,0.853
				c1.664,7,2.353,14.334,3.02,21.428l0.247,2.616c0.464,4.818-0.171,8.094-2.001,10.305c-1.899,2.293-5.059,3.529-10.245,4.008
				c-0.883,0.082-1.738,0.092-2.458,0.092l-1.714-0.009c-4.842-0.009-8.421-1.4-10.347-4.022c-1.01-1.376-1.406-2.646-1.285-4.119
				c0.141-1.696,1.632-6.115,3.649-9.181c0.076-0.115,0.101-0.241,0.073-0.375c-0.028-0.134-0.101-0.243-0.213-0.316
				C12.185,48.646,12.088,48.635,12.021,48.635z"/>
		</g>
	</g>
	<g>
		<g>
			<path d="M74.523,84.607L74.523,84.607c-3.458-0.001-6.811-1.22-10.054-2.399c-1.365-0.496-2.888-1.05-4.302-1.447
				c-1.199-0.337-1.938-1.556-1.683-2.773c0.017-0.082,0.041-0.162,0.071-0.24c0.338-0.865,1.235-1.738,2.476-1.738
				c0.198,0,0.399,0.023,0.597,0.069c0.284,0.066,0.636,0.138,0.999,0.211c0.306,0.062,0.62,0.126,0.911,0.189
				c1.306,0.287,2.646,0.581,3.909,0.695c0.509,0.046,1.017,0.069,1.51,0.069c6.341,0,12.13-3.868,17.208-11.496
				c2.251-3.384,0.653-6.498-1.084-8.513c-0.216-0.251-0.397-0.491-0.579-0.733c-0.176-0.237-0.328-0.443-0.528-0.663
				c-0.024-0.027-0.047-0.054-0.07-0.083c-1.92-2.437-3.575-4.452-4.92-5.987c-1.726-1.97-1.527-4.978,0.443-6.703
				c0.84-0.735,1.945-1.14,3.111-1.14c1.4,0,2.71,0.577,3.592,1.583c2.354,2.688,4.974,6.025,5.99,7.335l0.483,0.577
				c0.123,0.142,3.404,4.01,3.305,10.523c-0.092,6.034-2.687,9.277-3.276,9.938c-5.099,7.309-9.993,12.261-17.259,12.699
				C75.083,84.598,74.804,84.607,74.523,84.607z M67.801,80.209c2.5,0.852,4.973,1.517,7.399,1.377
				c6.082-0.367,10.407-4.863,15.028-11.501c0.043-0.063,0.092-0.122,0.145-0.178c0.099-0.105,2.456-2.68,2.537-8.009
				c0.082-5.36-2.564-8.504-2.591-8.535l-0.533-0.638c-1.034-1.331-3.609-4.612-5.91-7.239c-0.563-0.643-1.826-0.728-2.471-0.163
				c-0.725,0.635-0.798,1.743-0.162,2.469c1.371,1.566,3.049,3.607,4.988,6.067c0.255,0.284,0.456,0.55,0.653,0.814
				c0.164,0.218,0.304,0.407,0.473,0.604c3.363,3.902,3.84,8.325,1.308,12.132c-5.669,8.516-12.298,12.834-19.704,12.834
				C68.579,80.244,68.191,80.232,67.801,80.209z"/>
		</g>
	</g>
</g>
</svg>
