<?xml version="1.0" encoding="utf-8"?>
<!-- Generator: Adobe Illustrator 16.0.0, SVG Export Plug-In . SVG Version: 6.00 Build 0)  -->
<!DOCTYPE svg PUBLIC "-//W3C//DTD SVG 1.1//EN" "http://www.w3.org/Graphics/SVG/1.1/DTD/svg11.dtd">
<svg version="1.1" id="Layer_2" xmlns="http://www.w3.org/2000/svg" xmlns:xlink="http://www.w3.org/1999/xlink" x="0px" y="0px"
	 width="100px" height="100px" viewBox="0 0 100 100" enable-background="new 0 0 100 100" xml:space="preserve">
<g>
	<g>
		<path d="M84.934,86H56.957c-14.337,0-26-11.664-26-26V37c0-3.309,2.691-6,6-6s6,2.691,6,6v23c0,7.72,6.28,14,14,14h21.981
			l0.021-49.001c0-3.308,2.691-5.999,6-5.999s6,2.691,6,6l-0.025,55.005C90.93,83.312,88.238,86,84.934,86z M36.957,34
			c-1.654,0-3,1.346-3,3v23c0,12.682,10.317,23,23,23h27.977c1.652,0,2.998-1.344,3-2.997L87.959,25c0-1.654-1.346-3-3-3
			s-3,1.346-3,3L81.938,75.5c0,0.828-0.672,1.5-1.5,1.5h-23.48c-9.374,0-17-7.626-17-17V37C39.957,35.346,38.611,34,36.957,34z
			 M15.041,81c-3.309,0-6-2.691-6-6l0.025-55.005c0.004-3.306,2.695-5.995,6-5.995h27.977c14.337,0,26,11.664,26,26v23
			c0,3.309-2.691,6-6,6s-6-2.691-6-6V40c0-7.72-6.28-14-14-14H21.062l-0.021,49.001C21.041,78.309,18.35,81,15.041,81z M15.066,17
			c-1.652,0-2.998,1.344-3,2.997L12.041,75c0,1.654,1.346,3,3,3s3-1.346,3-3L18.063,24.5c0-0.828,0.672-1.5,1.5-1.5h23.48
			c9.374,0,17,7.626,17,17v23c0,1.654,1.346,3,3,3s3-1.346,3-3V40c0-12.682-10.317-23-23-23H15.066z"/>
	</g>
</g>
</svg>
