<?xml version="1.0" encoding="utf-8"?>
<!-- Generator: Adobe Illustrator 16.0.0, SVG Export Plug-In . SVG Version: 6.00 Build 0)  -->
<!DOCTYPE svg PUBLIC "-//W3C//DTD SVG 1.1//EN" "http://www.w3.org/Graphics/SVG/1.1/DTD/svg11.dtd">
<svg version="1.1" id="Layer_2" xmlns="http://www.w3.org/2000/svg" xmlns:xlink="http://www.w3.org/1999/xlink" x="0px" y="0px"
	 width="100px" height="100px" viewBox="0 0 100 100" enable-background="new 0 0 100 100" xml:space="preserve">
<g>
	<g>
		<path d="M64.668,45.534l-1.975-0.658c-0.351-0.117-0.688-0.23-0.994-0.336c-1.799-0.621-3.127-1.26-4.061-1.954
			c-1.128-0.838-1.844-1.822-2.128-2.925c-0.212-0.82-0.319-1.859-0.319-3.086c0-1.506,0.313-2.872,0.931-4.059
			c0.623-1.187,1.486-2.172,2.567-2.93c1.011-0.712,2.188-1.25,3.499-1.6c0.179-0.047,0.358-0.087,0.536-0.126l1.943-0.433V45.534z
			 M61.668,31.336c-0.453,0.2-0.872,0.435-1.253,0.704c-0.688,0.483-1.237,1.11-1.634,1.865c-0.391,0.751-0.59,1.65-0.59,2.669
			c0,1.214,0.122,1.941,0.224,2.337c0.109,0.422,0.45,0.848,1.013,1.267c0.51,0.379,1.261,0.765,2.24,1.153V31.336z"/>
	</g>
	<g>
		<path d="M68.254,72.37V52.165l2.979,1.047c1.801,0.65,3.241,1.337,4.28,2.041c1.231,0.833,2.09,1.833,2.551,2.97
			c0.409,1.009,0.616,2.22,0.616,3.6c0,3.198-1.007,5.78-2.991,7.677c-1.392,1.331-3.308,2.202-5.694,2.588L68.254,72.37z
			 M71.254,56.431v12.271c0.961-0.329,1.752-0.788,2.361-1.371c1.37-1.309,2.064-3.162,2.064-5.508c0-0.992-0.133-1.824-0.396-2.473
			c-0.233-0.576-0.722-1.119-1.452-1.613C73.192,57.305,72.328,56.867,71.254,56.431z"/>
	</g>
	<g>
		<path d="M66.461,90.675c-2.643,0-4.793-2.15-4.793-4.793v-7.385c-8.96-1.588-13.753-7.556-14.252-17.758
			c0.025-2.858,2.157-4.948,4.957-4.948c2.698,0,4.893,2.184,4.893,4.869v0.443c0.142,3.748,1.553,6.126,4.402,7.319V53.227
			c-1.737-0.557-3.273-1.122-4.579-1.684c-1.946-0.837-3.589-1.875-4.882-3.086c-1.328-1.242-2.316-2.781-2.937-4.572
			c-0.603-1.735-0.907-3.917-0.907-6.485c0-2.358,0.404-4.549,1.202-6.512c0.803-1.974,1.981-3.713,3.503-5.169
			c1.517-1.45,3.367-2.603,5.5-3.424c0.948-0.366,1.986-0.654,3.1-0.859v-7.317c0-2.643,2.15-4.793,4.793-4.793
			s4.793,2.15,4.793,4.793v7.413c7.975,1.461,12.272,6.396,12.782,14.685l0.072,0.627l-0.001,0.091
			c-0.027,2.725-2.206,4.859-4.959,4.859c-2.29,0-4.207-1.554-4.736-3.687h-0.06l-0.048-0.581c-0.017-0.134-0.028-0.271-0.033-0.408
			l-0.033-0.399c-0.188-2.521-1.148-4.209-2.984-5.19v12.882c1.851,0.601,3.501,1.21,4.916,1.813
			c2.034,0.868,3.761,1.945,5.133,3.202c1.405,1.289,2.474,2.904,3.175,4.801c0.685,1.859,1.032,4.137,1.032,6.772
			c0,2.488-0.43,4.839-1.276,6.987c-0.853,2.164-2.1,4.08-3.705,5.695c-1.607,1.614-3.567,2.907-5.828,3.845
			c-1.044,0.433-2.199,0.77-3.446,1.006v7.351C71.254,88.525,69.104,90.675,66.461,90.675z M52.373,58.792
			c-1.16,0-1.948,0.759-1.959,1.89c0.452,9.185,4.564,13.991,12.939,15.038l1.314,0.164v10c0,0.989,0.805,1.793,1.793,1.793
			s1.793-0.804,1.793-1.793V75.93l1.311-0.167c1.49-0.19,2.832-0.53,3.986-1.008c1.893-0.786,3.525-1.859,4.852-3.19
			c1.314-1.323,2.338-2.897,3.04-4.679c0.708-1.797,1.067-3.777,1.067-5.887c0-2.28-0.285-4.209-0.847-5.734
			c-0.534-1.444-1.337-2.665-2.388-3.628c-1.121-1.026-2.562-1.919-4.282-2.653c-1.586-0.677-3.499-1.364-5.685-2.044l-1.055-0.328
			V27.475l1.854,0.451c3.862,0.94,6.24,3.41,6.943,7.18h0.099l0.116,1.851c0.04,1.042,0.865,1.835,1.882,1.835
			c1.097,0,1.907-0.756,1.957-1.81l-0.057-0.508c-0.455-7.366-4.104-11.21-11.489-12.173l-1.306-0.17V14.118
			c0-0.989-0.805-1.793-1.793-1.793s-1.793,0.804-1.793,1.793v9.936l-1.32,0.16c-1.371,0.166-2.616,0.462-3.699,0.881
			c-1.763,0.679-3.278,1.618-4.506,2.793c-1.215,1.162-2.156,2.552-2.798,4.131c-0.651,1.603-0.981,3.414-0.981,5.382
			c0,2.232,0.249,4.083,0.741,5.502c0.46,1.326,1.184,2.458,2.152,3.364c1.04,0.973,2.392,1.821,4.018,2.521
			c1.465,0.631,3.259,1.271,5.33,1.901l1.063,0.324V72.31l-1.818-0.395c-5.395-1.17-8.362-4.889-8.583-10.755l-0.001-0.5
			C54.266,59.63,53.417,58.792,52.373,58.792z"/>
	</g>
	<g>
		<path d="M24.369,81.967c-2.833,0-6.287-0.603-8.399-1.466c-1.038-0.429-1.642-1.535-1.441-2.632l1.047-5.725
			c0.131-0.702,0.56-1.301,1.176-1.649c0.639-0.354,1.393-0.397,2.044-0.14c1.438,0.559,3.267,0.882,5.008,0.882
			c4.313,0,7.613-0.815,7.613-11.077V24.375c0-1.314,1.069-2.383,2.383-2.383h7.012c1.313,0,2.383,1.069,2.383,2.383v36.35
			C43.193,78.281,32.957,81.967,24.369,81.967z M17.572,77.899c1.785,0.619,4.592,1.067,6.797,1.067
			c10.648,0,15.824-5.967,15.824-18.242V24.992h-5.777V60.16c0,9.999-3.075,14.077-10.613,14.077c-1.833,0-3.762-0.303-5.407-0.84
			L17.572,77.899z"/>
	</g>
</g>
</svg>
