<?xml version="1.0" encoding="utf-8"?>
<!-- Generator: Adobe Illustrator 16.0.0, SVG Export Plug-In . SVG Version: 6.00 Build 0)  -->
<!DOCTYPE svg PUBLIC "-//W3C//DTD SVG 1.1//EN" "http://www.w3.org/Graphics/SVG/1.1/DTD/svg11.dtd">
<svg version="1.1" id="Layer_2" xmlns="http://www.w3.org/2000/svg" xmlns:xlink="http://www.w3.org/1999/xlink" x="0px" y="0px"
	 width="100px" height="100px" viewBox="0 0 100 100" enable-background="new 0 0 100 100" xml:space="preserve">
<g>
	<g>
		<g>
			<path d="M6.155,76.793c-1.323,0-2.454-0.99-2.629-2.302l-0.88-6.743c-0.183-1.413,0.772-2.71,2.172-2.955
				c1.571-0.277,2.835-0.869,3.389-1.333c3.4-2.5,3.985-7.922,3.985-18.411V26.014c0-1.462,1.189-2.652,2.651-2.652h32.801
				c1.462,0,2.651,1.189,2.651,2.652v48.125c0,1.462-1.189,2.651-2.651,2.651h-8.493c-1.462,0-2.651-1.189-2.651-2.651V35.402
				H25.598v9.648c0,14.02-1.448,23.667-8.647,28.407C14.027,75.764,10.694,76.793,6.155,76.793z M5.664,67.687l0.796,6.105
				c3.73-0.042,6.339-0.865,8.677-2.726c0.037-0.03,0.076-0.058,0.115-0.083c6.117-3.986,7.346-12.877,7.346-25.932V33.902
				c0-0.829,0.672-1.5,1.5-1.5H38c0.828,0,1.5,0.671,1.5,1.5V73.79h7.796V26.362H15.192V45.05c0,11.518-0.769,17.564-5.135,20.771
				C9.107,66.62,7.459,67.326,5.664,67.687z"/>
		</g>
	</g>
	<g>
		<g>
			<path d="M73.224,76.569c-0.64,0-1.274-0.01-1.93-0.028l-12.286-0.036c-0.697,0-1.359-0.272-1.858-0.768
				c-0.507-0.505-0.783-1.172-0.783-1.881v-48c0-1.46,1.188-2.647,2.648-2.647l14.902-0.002c6.899,0,23.057,0,23.454,14.284
				c0.121,4.341-1.808,8.011-5.477,10.52c3.512,2.36,5.314,6.347,5.367,11.884c0.039,4.236-1.306,7.762-3.997,10.479
				C89.19,74.484,82.447,76.569,73.224,76.569z M59.366,73.506l11.975,0.036c0.665,0.018,1.271,0.028,1.883,0.028
				c8.394,0,14.42-1.786,17.91-5.308c2.106-2.127,3.159-4.933,3.128-8.339c-0.05-5.324-1.792-8.57-5.481-10.214l-0.616-0.274
				c-0.528-0.236-0.874-0.754-0.889-1.332c-0.014-0.578,0.305-1.113,0.82-1.375l0.601-0.305c3.875-1.968,5.785-4.944,5.677-8.847
				c-0.225-8.074-6.151-11.367-20.456-11.367l-14.551,0.002V73.506z M78.247,67.911c-0.243,0-0.41-0.008-0.614-0.018l-9.597,0
				c-0.828,0-1.5-0.672-1.5-1.5V54.415c0-0.399,0.159-0.782,0.442-1.063c0.28-0.28,0.661-0.437,1.058-0.437c0.002,0,0.005,0,0.007,0
				l9.779,0.047l0.133-0.001c5.135,0,8.446,2.852,8.446,7.264c0.042,2.268-0.595,4.101-1.892,5.422
				C82.503,67.69,79.462,67.911,78.247,67.911z M69.536,64.893l8.16,0.001c0.236,0.01,0.365,0.016,0.551,0.016
				c0.652,0,2.878-0.099,4.122-1.365c0.712-0.725,1.059-1.833,1.032-3.293c0-3.876-3.802-4.292-5.437-4.292l-0.14,0.001l-8.289-0.04
				V64.893z M77.907,45.687c-0.095,0-0.192-0.003-0.313-0.009l-9.558,0.001c-0.828,0-1.5-0.671-1.5-1.5V32.228
				c0-0.398,0.158-0.78,0.44-1.062c0.281-0.281,0.662-0.438,1.06-0.438c0.001,0,0.002,0,0.003,0l9.997,0.02
				c5.08,0,8.365,2.852,8.365,7.265c0.042,2.267-0.595,4.101-1.891,5.422c-1.865,1.898-4.12,2.072-5.767,2.2l-0.42,0.033
				C78.161,45.681,78.035,45.687,77.907,45.687z M69.536,42.679l8.371,0.008c0.053,0,0.104-0.003,0.175-0.009l0.428-0.034
				c1.433-0.11,2.784-0.215,3.859-1.31c0.712-0.725,1.059-1.833,1.032-3.293c0-3.876-3.754-4.292-5.368-4.292l-8.497-0.017V42.679z"
				/>
		</g>
	</g>
</g>
</svg>
