<?xml version="1.0" encoding="utf-8"?>
<!-- Generator: Adobe Illustrator 16.0.0, SVG Export Plug-In . SVG Version: 6.00 Build 0)  -->
<!DOCTYPE svg PUBLIC "-//W3C//DTD SVG 1.1//EN" "http://www.w3.org/Graphics/SVG/1.1/DTD/svg11.dtd">
<svg version="1.1" id="Layer_2" xmlns="http://www.w3.org/2000/svg" xmlns:xlink="http://www.w3.org/1999/xlink" x="0px" y="0px"
	 width="100px" height="100px" viewBox="0 0 100 100" enable-background="new 0 0 100 100" xml:space="preserve">
<g>
	<g>
		<path d="M78.247,68.41c-0.249,0-0.422-0.008-0.602-0.017l-11.609-0.001V52.404l11.784,0.059l0.125-0.002
			c5.448,0,8.956,3.044,8.956,7.756c0.043,2.407-0.641,4.361-2.035,5.781C82.727,68.175,79.524,68.41,78.247,68.41z M69.036,65.393
			l8.661,0.002c0.228,0.009,0.36,0.016,0.55,0.016c0.702,0,3.099-0.109,4.479-1.514c0.809-0.824,1.204-2.053,1.175-3.652
			c0-4.319-4.151-4.783-5.937-4.783l-0.133,0.002l-8.796-0.043V65.393z"/>
	</g>
	<g>
		<path d="M77.896,46.187L77.896,46.187c-0.11,0-0.21-0.004-0.312-0.009l-11.549,0.001V30.224l11.925,0.026c0.001,0,0.003,0,0.005,0
			c5.456,0,8.935,3.044,8.935,7.754c0.043,2.407-0.641,4.361-2.035,5.781c-1.994,2.031-4.357,2.214-6.082,2.348l-0.411,0.033
			C78.185,46.181,78.034,46.187,77.896,46.187z M69.036,43.179l8.861,0.008l0,0c0.065,0,0.138-0.003,0.227-0.011l0.429-0.034
			c1.525-0.118,2.966-0.229,4.173-1.458c0.809-0.824,1.205-2.053,1.176-3.652c0-4.319-4.104-4.783-5.868-4.783l-8.997-0.019V43.179z
			"/>
	</g>
	<g>
		<path d="M6.155,76.293c-1.074,0-1.991-0.803-2.133-1.868l-0.879-6.74c-0.148-1.146,0.625-2.198,1.76-2.398
			c1.464-0.258,2.887-0.823,3.626-1.441c3.552-2.611,4.164-8.134,4.164-18.794V26.014c0-1.187,0.965-2.152,2.151-2.152h32.801
			c1.186,0,2.151,0.966,2.151,2.152v48.125c0,1.186-0.965,2.15-2.151,2.15h-8.493c-1.186,0-2.151-0.965-2.151-2.15V34.902H25.097
			v10.148c0,13.852-1.411,23.371-8.421,27.987C13.822,75.288,10.573,76.293,6.155,76.293z M40,73.289h6.796V26.861H15.692v18.189
			c0,11.689-0.795,17.836-5.313,21.153c-0.928,0.78-2.463,1.473-4.16,1.873l0.679,5.205c3.377-0.101,5.791-0.905,7.965-2.636
			l0.115-0.083c5.928-3.862,7.119-12.626,7.119-25.513V31.902H40V73.289z"/>
	</g>
	<g>
		<path d="M73.223,76.069c-0.636,0-1.265-0.01-1.917-0.029L59.01,76.005c-0.566,0-1.104-0.222-1.509-0.624
			c-0.409-0.406-0.635-0.947-0.635-1.525V25.856c0-1.185,0.964-2.147,2.148-2.147l14.902-0.002c6.754,0,22.57,0,22.955,13.797
			c0.123,4.407-1.965,8.099-5.91,10.514c3.796,2.201,5.747,6.191,5.8,11.881c0.038,4.098-1.258,7.503-3.852,10.122
			C88.932,74.034,82.309,76.069,73.223,76.069z M59.866,73.008l11.489,0.033c0.661,0.019,1.262,0.028,1.869,0.028
			c8.256,0,14.162-1.736,17.555-5.16c2.01-2.029,3.014-4.716,2.983-7.982c-0.048-5.105-1.696-8.208-5.185-9.762l-4.446-1.981
			l4.338-2.208c3.689-1.874,5.506-4.696,5.403-8.388c-0.215-7.729-5.997-10.881-19.956-10.881l-14.051,0.002V73.008z"/>
	</g>
</g>
</svg>
