<?xml version="1.0" encoding="utf-8"?>
<!-- Generator: Adobe Illustrator 16.0.0, SVG Export Plug-In . SVG Version: 6.00 Build 0)  -->
<!DOCTYPE svg PUBLIC "-//W3C//DTD SVG 1.1//EN" "http://www.w3.org/Graphics/SVG/1.1/DTD/svg11.dtd">
<svg version="1.1" id="Layer_2" xmlns="http://www.w3.org/2000/svg" xmlns:xlink="http://www.w3.org/1999/xlink" x="0px" y="0px"
	 width="100px" height="100px" viewBox="0 0 100 100" enable-background="new 0 0 100 100" xml:space="preserve">
<g>
	<g>
		<path d="M79.22,84.533H68.972c-0.812,0-1.602-0.334-2.166-0.917l-21.4-22.292v20.245c0,1.635-1.344,2.964-2.996,2.964h-8.656
			c-1.653,0-2.997-1.329-2.997-2.964V55.012h-7.964c-2.764,0-5.012-2.248-5.012-5.012s2.248-5.012,5.012-5.012h7.964V18.432
			c0-1.635,1.344-2.965,2.997-2.965h8.656c1.652,0,2.996,1.33,2.996,2.965v21.718l18.546-23.542
			c0.562-0.714,1.445-1.141,2.362-1.141H77.06c1.12,0,2.137,0.61,2.655,1.592c0.549,1.025,0.432,2.29-0.305,3.212L59.645,44.988
			h15.517c2.764,0,5.012,2.248,5.012,5.012s-2.248,5.012-5.012,5.012h-16.14l22.423,24.571c0.818,0.905,1.003,2.187,0.478,3.271
			C81.416,83.878,80.357,84.533,79.22,84.533z M22.794,47.988c-1.109,0-2.012,0.902-2.012,2.012s0.902,2.012,2.012,2.012h9.464
			c0.829,0,1.5,0.672,1.5,1.5v28.058l8.653-0.036l-0.004-22.602c0-0.818,0.656-1.486,1.475-1.5l1.262-0.021
			c0.408-0.011,0.818,0.16,1.107,0.461l22.716,23.663l10.254-0.001c0.003,0,0.009-0.003,0.012-0.005L54.514,54.522
			c-0.401-0.438-0.504-1.072-0.265-1.616c0.24-0.544,0.778-0.895,1.373-0.895h19.539c1.109,0,2.012-0.902,2.012-2.012
			s-0.902-2.012-2.012-2.012H56.524c-0.577,0-1.102-0.33-1.352-0.85c-0.25-0.521-0.18-1.137,0.181-1.587l21.713-27.154
			l-10.752,0.069l-21.23,26.939c-0.396,0.501-1.064,0.697-1.669,0.488c-0.604-0.209-1.009-0.778-1.009-1.417V18.432l-8.651,0.035
			l0.003,28.021c0,0.828-0.671,1.5-1.5,1.5H22.794z"/>
	</g>
</g>
</svg>
