<?xml version="1.0" encoding="utf-8"?>
<!-- Generator: Adobe Illustrator 16.0.0, SVG Export Plug-In . SVG Version: 6.00 Build 0)  -->
<!DOCTYPE svg PUBLIC "-//W3C//DTD SVG 1.1//EN" "http://www.w3.org/Graphics/SVG/1.1/DTD/svg11.dtd">
<svg version="1.1" id="Layer_2" xmlns="http://www.w3.org/2000/svg" xmlns:xlink="http://www.w3.org/1999/xlink" x="0px" y="0px"
	 width="100px" height="100px" viewBox="0 0 100 100" enable-background="new 0 0 100 100" xml:space="preserve">
<g>
	<g>
		<g>
			<path d="M48.723,83.797H16.639c-1.626,0-2.949-1.323-2.949-2.949V18.241c0-1.626,1.323-2.948,2.949-2.948h8.082
				c1.626,0,2.949,1.322,2.949,2.948v52.878h21.053c1.626,0,2.95,1.322,2.95,2.947v6.781C51.673,82.474,50.35,83.797,48.723,83.797z
				 M24.67,18.241l-8.031,0.052l0.051,62.555l31.983-0.051v-6.73L26.17,74.119c-0.829,0-1.5-0.672-1.5-1.5V18.241z"/>
		</g>
	</g>
	<g>
		<g>
			<path d="M67.118,84.707c-5.024,0-9.981-1.222-13.6-3.351l-0.634-0.374c-1-0.587-1.448-1.77-1.088-2.875l2.525-7.688
				c0.236-0.722,0.784-1.286,1.504-1.546c0.807-0.272,1.55-0.154,2.182,0.263l0.982,0.642c1.852,1.21,5.238,2.513,8.303,2.513
				c1.459,0,4.854-0.285,4.854-2.93c0-1.434-0.417-2.685-5.671-4.625C55.41,60.791,53.084,54.327,53.084,49.601
				c0-9.294,7.389-15.784,17.968-15.784c4.316,0,8.847,1.156,12.121,3.093l0.64,0.38c0.996,0.589,1.446,1.814,1.068,2.911
				l-2.539,7.385c-0.24,0.704-0.805,1.272-1.509,1.52c-0.692,0.24-1.484,0.155-2.11-0.232l-0.986-0.622
				c-0.918-0.581-3.421-1.931-6.859-1.931c-1.715,0-3.717,0.63-3.717,2.405c0,0.879,0,1.788,5.877,4.028
				c9.055,3.446,13.272,8.501,13.272,15.909C86.31,78.409,78.776,84.707,67.118,84.707z M54.785,78.621l0.255,0.15
				c3.17,1.865,7.572,2.936,12.077,2.936c9.988,0,16.192-4.998,16.192-13.045c0-6.161-3.391-10.081-11.34-13.105
				c-5.292-2.017-7.81-3.554-7.81-6.832c0-3.183,2.762-5.405,6.717-5.405c4.223,0,7.325,1.675,8.462,2.395l0.39,0.246l2.171-6.317
				l-0.257-0.152c-2.829-1.674-6.789-2.674-10.591-2.674c-8.813,0-14.968,5.257-14.968,12.784c0,5.395,3.947,9.653,11.415,12.315
				c4.85,1.791,7.648,3.581,7.648,7.445c0,2.866-2.063,5.93-7.854,5.93c-3.698,0-7.659-1.508-9.943-3.001l-0.399-0.261
				L54.785,78.621z"/>
		</g>
	</g>
</g>
</svg>
