<?xml version="1.0" encoding="utf-8"?>
<!-- Generator: Adobe Illustrator 16.0.0, SVG Export Plug-In . SVG Version: 6.00 Build 0)  -->
<!DOCTYPE svg PUBLIC "-//W3C//DTD SVG 1.1//EN" "http://www.w3.org/Graphics/SVG/1.1/DTD/svg11.dtd">
<svg version="1.1" id="Layer_2" xmlns="http://www.w3.org/2000/svg" xmlns:xlink="http://www.w3.org/1999/xlink" x="0px" y="0px"
	 width="100px" height="100px" viewBox="0 0 100 100" enable-background="new 0 0 100 100" xml:space="preserve">
<g>
	<g>
		<g>
			<path d="M71.228,84.401c-4.143,0-7.531-1.37-9.8-3.963c-2.332-2.419-3.441-6.242-3.441-11.978v-17.96h-2.955
				c-1.654,0-3-1.346-3-3v-5.319c0-1.654,1.346-3,3-3h2.955v-8.035c0-1.637,1.332-2.982,2.969-3h6.848
				c0.036,0,0.071,0.001,0.107,0.004c0.462,0.033,1.338,0.19,2.019,0.868c0.56,0.55,0.885,1.328,0.885,2.128v8.035h7.004
				c1.654,0,3,1.346,3,3v5.319c0,1.654-1.346,3-3,3h-7.004v17.722c0,4.463,1.19,4.463,2.24,4.463c1.57,0,2.639-0.202,3.258-0.371
				c0.896-0.238,1.813-0.065,2.541,0.458c0.733,0.525,1.188,1.347,1.244,2.251l0.317,5.243c0.08,1.278-0.664,2.467-1.853,2.956
				C76.714,83.982,74.109,84.401,71.228,84.401z M55.031,42.182v5.319h4.455c0.828,0,1.5,0.672,1.5,1.5v19.46
				c0,4.91,0.843,8.072,2.65,9.949c1.73,1.976,4.339,2.991,7.591,2.991c2.499,0,4.698-0.339,6.193-0.953l-0.318-5.24
				c-0.797,0.218-2.146,0.478-4.049,0.478c-3.624,0-5.24-2.302-5.24-7.463V49.001c0-0.828,0.672-1.5,1.5-1.5h8.504v-5.319h-8.504
				c-0.828,0-1.5-0.672-1.5-1.5v-9.527c-0.01,0.006-0.042-0.003-0.081-0.008h-6.762l0.016,9.535c0,0.828-0.672,1.5-1.5,1.5H55.031z"
				/>
		</g>
	</g>
	<g>
		<g>
			<path d="M54.216,84.103H22.132c-1.626,0-2.949-1.323-2.949-2.949V18.547c0-1.626,1.323-2.948,2.949-2.948h8.082
				c1.626,0,2.949,1.322,2.949,2.948v52.878h21.053c1.626,0,2.949,1.322,2.949,2.947v6.781
				C57.165,82.779,55.842,84.103,54.216,84.103z M30.163,18.547l-8.031,0.052l0.051,62.555l31.982-0.051v-6.73l-22.502,0.053
				c-0.828,0-1.5-0.672-1.5-1.5V18.547z"/>
		</g>
	</g>
</g>
</svg>
