<?xml version="1.0" encoding="utf-8"?>
<!-- Generator: Adobe Illustrator 16.0.0, SVG Export Plug-In . SVG Version: 6.00 Build 0)  -->
<!DOCTYPE svg PUBLIC "-//W3C//DTD SVG 1.1//EN" "http://www.w3.org/Graphics/SVG/1.1/DTD/svg11.dtd">
<svg version="1.1" id="Layer_2" xmlns="http://www.w3.org/2000/svg" xmlns:xlink="http://www.w3.org/1999/xlink" x="0px" y="0px"
	 width="100px" height="100px" viewBox="0 0 100 100" enable-background="new 0 0 100 100" xml:space="preserve">
<g>
	<g>
		<path d="M33.987,71.563h-3.554c-1.273,0-2.663-0.977-2.702-2.434l-0.006-6.613H13.242l-0.005,6.574
			c-0.04,1.496-1.43,2.473-2.703,2.473H6.48c-1.27,0-2.702-1.008-2.729-2.453L3.745,56.217c-0.024-1.344,1.069-2.484,2.438-2.52
			l1.074-0.025c0.77-1.303,1.384-2.678,1.831-4.1c0.956-3.02,1.03-6.293,1.03-10.588v-7.402c0-1.379,1.121-2.5,2.5-2.5h19.225
			c1.379,0,2.5,1.121,2.5,2.5v22.117c0.662,0.014,1.283,0.289,1.744,0.771c0.46,0.477,0.708,1.111,0.693,1.783l-0.065,12.84
			C36.682,70.582,35.277,71.563,33.987,71.563z M6.745,56.686L6.752,68.57l3.486-0.006l0.005-7.549c0.001-0.828,0.672-1.5,1.5-1.5
			h17.481c0.828,0,1.499,0.672,1.5,1.5l0.006,7.547h2.988l0.061-11.879l-0.976-0.025c-0.813-0.021-1.46-0.688-1.46-1.5V32.082
			H13.119v6.902c0,3.656,0,7.799-1.17,11.492c-0.604,1.918-1.472,3.766-2.581,5.488c-0.269,0.418-0.728,0.674-1.225,0.688
			L6.745,56.686z M52.637,63.104c-9.858,0-16.481-6.766-16.481-16.834c0-10.5,6.512-17.832,15.835-17.832
			c9.844,0,14.25,7.982,14.25,15.893c0,1.051-0.099,1.893-0.165,2.449l-0.027,0.242c-0.142,1.264-1.21,2.219-2.484,2.219H46.401
			c1.007,3.977,4.242,4.869,6.94,4.869c3.428,0,5.34-0.611,6.896-1.271c0.665-0.281,1.45-0.258,2.101,0.068
			c0.661,0.334,1.137,0.938,1.308,1.654l0.881,3.701c0.278,1.164-0.313,2.365-1.404,2.857
			C61.119,62.025,57.673,63.104,52.637,63.104z M51.99,31.438c-7.557,0-12.835,6.1-12.835,14.832
			c0,8.533,5.166,13.834,13.481,13.834c4.191,0,7.094-0.811,8.874-1.555l-0.648-2.725c-1.751,0.693-3.938,1.285-7.521,1.285
			c-2.206,0-9.46-0.666-10.195-9.242c-0.036-0.418,0.105-0.832,0.389-1.143c0.284-0.309,0.686-0.484,1.105-0.484h18.478
			c0.056-0.482,0.122-1.145,0.122-1.91C63.24,38.383,60.294,31.438,51.99,31.438z M93.755,62.516h-5.11c-1.379,0-2.5-1.121-2.5-2.5
			V49.65h-8.512v10.365c0,1.379-1.121,2.5-2.5,2.5h-5.111c-1.379,0-2.5-1.121-2.5-2.5V31.582c0-1.379,1.121-2.5,2.5-2.5h5.111
			c1.379,0,2.5,1.121,2.5,2.5v8.957h8.512v-8.957c0-1.379,1.121-2.5,2.5-2.5h5.11c1.379,0,2.5,1.121,2.5,2.5v28.434
			C96.255,61.395,95.134,62.516,93.755,62.516z M89.145,59.516h4.11V32.082h-4.11v9.957c0,0.828-0.672,1.5-1.5,1.5H76.133
			c-0.828,0-1.5-0.672-1.5-1.5v-9.957h-4.111v27.434h4.111V48.15c0-0.828,0.672-1.5,1.5-1.5h11.512c0.828,0,1.5,0.672,1.5,1.5
			V59.516z M25.792,56.58H15.594c-0.519,0-1-0.268-1.273-0.707c-0.274-0.439-0.301-0.99-0.072-1.455
			c0.636-1.291,1.129-2.525,1.508-3.775c0.945-3.193,0.945-7.035,0.945-10.424V36.52c0-0.828,0.672-1.5,1.5-1.5h7.591
			c0.828,0,1.5,0.672,1.5,1.5V55.08C27.292,55.908,26.62,56.58,25.792,56.58z M17.903,53.58h6.389V38.02h-4.591v2.199
			c0,3.592,0,7.664-1.071,11.283C18.418,52.199,18.178,52.889,17.903,53.58z M57.714,43.539H44.833
			c-0.456,0-0.887-0.207-1.172-0.564c-0.284-0.355-0.392-0.822-0.291-1.266c0.825-3.66,3.415-7.57,8.209-7.57
			c2.186,0,3.964,0.682,5.285,2.029c1.696,1.727,2.211,4.08,2.345,5.752c0.033,0.416-0.109,0.828-0.393,1.137
			C58.532,43.363,58.133,43.539,57.714,43.539z M46.896,40.539h9.043c-0.217-0.787-0.587-1.629-1.216-2.27
			c-0.747-0.762-1.775-1.131-3.145-1.131C48.99,37.139,47.612,38.926,46.896,40.539z"/>
	</g>
</g>
</svg>
