<?xml version="1.0" encoding="utf-8"?>
<!-- Generator: Adobe Illustrator 16.0.0, SVG Export Plug-In . SVG Version: 6.00 Build 0)  -->
<!DOCTYPE svg PUBLIC "-//W3C//DTD SVG 1.1//EN" "http://www.w3.org/Graphics/SVG/1.1/DTD/svg11.dtd">
<svg version="1.1" id="Layer_2" xmlns="http://www.w3.org/2000/svg" xmlns:xlink="http://www.w3.org/1999/xlink" x="0px" y="0px"
	 width="100px" height="100px" viewBox="0 0 100 100" enable-background="new 0 0 100 100" xml:space="preserve">
<g>
	<g>
		<g>
			<path d="M53.632,73.388L53.632,73.388l-4.191-0.001c-0.754,0-1.46-0.294-1.987-0.827c-0.518-0.508-0.813-1.214-0.813-1.972
				l0.095-41.063c0.004-1.54,1.26-2.792,2.8-2.792h6.762c1.188,0,2.249,0.752,2.641,1.872l7.004,19.854
				c0.619,1.834,1.163,3.492,1.648,5.024c0.513-1.552,1.084-3.22,1.722-5.024l7.325-19.895c0.401-1.095,1.457-1.831,2.625-1.831
				h6.762c1.544,0,2.8,1.256,2.8,2.799l0.026,41.056c0,0.752-0.294,1.456-0.826,1.984c-0.519,0.523-1.223,0.815-1.974,0.815h-4.303
				c-0.751,0-1.455-0.292-1.981-0.823c-0.524-0.522-0.816-1.226-0.816-1.975l0.006-19.002l-7.142,19.712
				c-0.393,1.102-1.451,1.846-2.63,1.846h-4.021c-1.196,0-2.26-0.76-2.647-1.892l-6.099-17.868l0.003,16.817
				c0.018,0.126,0.026,0.256,0.026,0.387c0,1.525-1.229,2.771-2.749,2.798C53.676,73.388,53.653,73.388,53.632,73.388z
				 M49.641,70.387l2.775,0.001c0.232-0.322,0.591-0.549,1.004-0.607l-0.005-25.807c0-0.742,0.542-1.372,1.276-1.483
				c0.73-0.104,1.438,0.332,1.657,1.041c0.684,2.216,1.446,4.571,2.333,7.2l6.626,19.413h3.733l7.168-19.784
				c1.053-2.879,1.977-5.518,2.825-8.071c0.233-0.698,0.939-1.13,1.664-1.007c0.727,0.117,1.26,0.745,1.26,1.48l-0.009,27.624h3.9
				l-0.026-40.654h-6.42l-7.271,19.743c-1.303,3.693-2.332,6.814-3.138,9.522c-0.189,0.637-0.774,1.072-1.438,1.072
				c-0.003,0-0.006,0-0.009,0c-0.667-0.004-1.252-0.448-1.434-1.09c-0.774-2.721-1.73-5.753-3.01-9.544l-6.951-19.704h-6.419
				L49.641,70.387z"/>
		</g>
	</g>
	<g>
		<g>
			<path d="M40.711,73.279h-5.634c-0.876,0-1.662-0.554-1.958-1.377L27,55h-6.243v16.197c0,1.148-0.934,2.082-2.08,2.082h-5.444
				c-1.148,0-2.082-0.934-2.082-2.082v-42.47c0-1.144,0.931-2.077,2.075-2.081l10.452-0.034c6.37,0,10.565,1.228,13.609,3.98
				c2.577,2.272,4.004,5.67,4.004,9.555c0,5.168-1.533,8.664-5.415,12.178l6.786,18.144c0.233,0.639,0.146,1.347-0.229,1.902
				C42.021,72.95,41.385,73.279,40.711,73.279z M35.723,70.279h3.665l-6.687-17.877c-0.223-0.595-0.046-1.266,0.441-1.675
				c3.801-3.189,5.148-5.959,5.148-10.58c0-3.011-1.066-5.61-3.002-7.317c-2.465-2.229-6.04-3.218-11.606-3.218l-9.532,0.031v40.636
				h3.606V53.5c0-0.828,0.672-1.5,1.5-1.5h8.795c0.632,0,1.195,0.396,1.41,0.989L35.723,70.279z M24.248,49.705h-4.991
				c-0.828,0-1.5-0.672-1.5-1.5V33.474c0-0.828,0.671-1.499,1.498-1.5l4.8-0.005c0.008,0,0.013,0,0.019,0
				c6.841,0.075,10.608,3.203,10.608,8.806C34.682,46.116,30.488,49.705,24.248,49.705z M20.757,46.705h3.491
				c4.585,0,7.434-2.272,7.434-5.931c0-1.415,0-5.719-7.633-5.806l-3.292,0.003V46.705z"/>
		</g>
	</g>
</g>
</svg>
