<?xml version="1.0" encoding="utf-8"?>
<!-- Generator: Adobe Illustrator 16.0.0, SVG Export Plug-In . SVG Version: 6.00 Build 0)  -->
<!DOCTYPE svg PUBLIC "-//W3C//DTD SVG 1.1//EN" "http://www.w3.org/Graphics/SVG/1.1/DTD/svg11.dtd">
<svg version="1.1" id="Layer_2" xmlns="http://www.w3.org/2000/svg" xmlns:xlink="http://www.w3.org/1999/xlink" x="0px" y="0px"
	 width="100px" height="100px" viewBox="0 0 100 100" enable-background="new 0 0 100 100" xml:space="preserve">
<g>
	<g>
		<path d="M50,87.561c-2.207,0-4.029-0.764-5.416-2.269c-1.387-1.504-2.091-3.81-2.091-6.851v-7.743l-10.488,6.146
			c-0.711,0.418-1.525,0.64-2.352,0.64c-1.648,0-3.188-0.882-4.021-2.302c-0.629-1.073-0.803-2.327-0.489-3.531
			c0.314-1.204,1.079-2.214,2.152-2.843L42.493,59.9v-6.499L32.006,59.55c-0.718,0.419-1.53,0.64-2.353,0.64
			c-1.648,0-3.188-0.882-4.021-2.302c-1.299-2.215-0.554-5.074,1.662-6.375l15.199-8.909v-17.82H26.169
			c-2.54,0-4.456-0.567-5.693-1.687c-1.238-1.121-1.865-2.622-1.865-4.46c0-1.905,0.653-3.431,1.94-4.533
			c1.286-1.104,3.176-1.664,5.618-1.664H73.73c2.574,0,4.515,0.576,5.769,1.713c1.254,1.139,1.889,2.647,1.889,4.484
			c0,1.84-0.644,3.34-1.915,4.459c-1.271,1.12-3.203,1.688-5.744,1.688H57.406v9.079l10.587-6.207
			c0.715-0.419,1.528-0.64,2.353-0.64c1.648,0,3.188,0.882,4.021,2.302c1.298,2.216,0.553,5.075-1.662,6.375L57.406,44.66v6.497
			l10.588-6.205c0.715-0.419,1.528-0.64,2.353-0.64c1.647,0,3.188,0.881,4.021,2.3c1.298,2.216,0.553,5.075-1.662,6.375
			l-15.299,8.968v16.486c0,3.075-0.695,5.389-2.065,6.876C53.968,86.806,52.171,87.561,50,87.561z M43.993,66.58
			c0.257,0,0.515,0.066,0.746,0.198c0.467,0.268,0.754,0.764,0.754,1.302v10.361c0,2.231,0.448,3.897,1.296,4.817
			c0.819,0.888,1.839,1.302,3.21,1.302c1.336,0,2.332-0.405,3.135-1.276c0.832-0.902,1.271-2.577,1.271-4.843V61.096
			c0-0.532,0.282-1.024,0.741-1.294l16.04-9.402c0.788-0.463,1.054-1.481,0.591-2.27c-0.442-0.754-1.501-1.039-2.269-0.589
			l-12.846,7.528c-0.464,0.272-1.038,0.274-1.504,0.008c-0.467-0.268-0.754-0.764-0.754-1.302v-9.975
			c0-0.532,0.282-1.024,0.741-1.294l16.04-9.402c0.788-0.463,1.054-1.481,0.591-2.27c-0.443-0.758-1.502-1.04-2.269-0.591
			l-12.845,7.53c-0.465,0.271-1.039,0.273-1.504,0.008c-0.467-0.268-0.754-0.764-0.754-1.302V23.283c0-0.828,0.671-1.5,1.5-1.5
			H73.73c1.764,0,3.064-0.324,3.76-0.938c0.621-0.547,0.898-1.228,0.898-2.208c0-0.996-0.279-1.694-0.905-2.263
			c-0.674-0.611-1.972-0.935-3.753-0.935H26.169c-1.68,0-2.948,0.325-3.665,0.94c-0.618,0.53-0.893,1.226-0.893,2.257
			c0,0.996,0.271,1.686,0.878,2.236c0.458,0.414,1.471,0.91,3.68,0.91h17.824c0.829,0,1.5,0.672,1.5,1.5v20.18
			c0,0.532-0.282,1.024-0.741,1.294l-15.94,9.344c-0.789,0.463-1.055,1.48-0.592,2.27c0.443,0.757,1.496,1.045,2.271,0.59
			l12.743-7.471c0.464-0.273,1.038-0.274,1.504-0.008c0.467,0.268,0.754,0.764,0.754,1.302v9.977c0,0.532-0.282,1.024-0.741,1.294
			l-15.94,9.344c-0.382,0.224-0.654,0.583-0.766,1.011c-0.112,0.429-0.05,0.875,0.174,1.257c0.446,0.762,1.503,1.041,2.267,0.593
			l12.748-7.472C43.469,66.648,43.731,66.58,43.993,66.58z"/>
	</g>
</g>
</svg>
