<?xml version="1.0" encoding="utf-8"?>
<!-- Generator: Adobe Illustrator 16.0.0, SVG Export Plug-In . SVG Version: 6.00 Build 0)  -->
<!DOCTYPE svg PUBLIC "-//W3C//DTD SVG 1.1//EN" "http://www.w3.org/Graphics/SVG/1.1/DTD/svg11.dtd">
<svg version="1.1" id="Layer_2" xmlns="http://www.w3.org/2000/svg" xmlns:xlink="http://www.w3.org/1999/xlink" x="0px" y="0px"
	 width="100px" height="100px" viewBox="0 0 100 100" enable-background="new 0 0 100 100" xml:space="preserve">
<g>
	<g>
		<g>
			<path d="M78.485,76.707h-6.271c-1.48,0-2.684-1.203-2.684-2.683V33.941H57.602c-1.479,0-2.683-1.203-2.683-2.683v-5.274
				c0-1.479,1.204-2.683,2.683-2.683h35.567c1.479,0,2.683,1.203,2.683,2.683v5.274c0,1.479-1.204,2.683-2.683,2.683H81.168v40.083
				C81.168,75.504,79.964,76.707,78.485,76.707z M72.53,73.707h5.638V32.441c0-0.828,0.671-1.5,1.5-1.5h13.184v-4.64H57.919v4.64
				H71.03c0.829,0,1.5,0.672,1.5,1.5V73.707z"/>
		</g>
	</g>
	<g>
		<g>
			<path d="M12.864,76.707C12.864,76.707,12.864,76.707,12.864,76.707L7.62,76.706c-0.935,0-1.81-0.364-2.464-1.026
				c-0.645-0.636-1.007-1.508-1.007-2.444l0.107-46.48c0.007-1.909,1.564-3.462,3.471-3.462h7.654c1.473,0,2.789,0.933,3.274,2.322
				l7.928,22.471c0.58,1.717,1.106,3.314,1.586,4.813c0.502-1.501,1.053-3.099,1.658-4.813l8.292-22.523
				c0.499-1.357,1.808-2.27,3.257-2.27h7.652c1.914,0,3.472,1.557,3.472,3.47l0.029,46.472c0,0.932-0.364,1.806-1.023,2.46
				c-0.644,0.649-1.516,1.012-2.447,1.012h-4.87c-0.931,0-1.804-0.362-2.458-1.021c-0.65-0.648-1.012-1.52-1.012-2.449l0.006-19.781
				l-7.496,20.688c-0.489,1.367-1.801,2.289-3.262,2.289h-4.55c-1.482,0-2.802-0.942-3.283-2.345l-6.315-18.5l0.002,17.187
				c0.02,0.149,0.03,0.303,0.03,0.463c0,1.451-0.896,2.729-2.224,3.239C13.398,76.62,13.135,76.707,12.864,76.707z M7.727,26.293
				c-0.254,0-0.47,0.216-0.471,0.472L7.148,73.239c0,0.124,0.044,0.235,0.127,0.317c0.103,0.104,0.214,0.149,0.345,0.149
				l4.822,0.001c0.018-0.005,0.036-0.01,0.054-0.015c0.176-0.045,0.355-0.216,0.355-0.456c-0.017-0.09-0.03-0.256-0.03-0.347
				l-0.003-26.523c0-0.739,0.538-1.368,1.268-1.482c0.732-0.108,1.435,0.322,1.66,1.024c0.511,1.593,1.064,3.273,1.672,5.077
				l7.554,22.13c0.065,0.188,0.244,0.316,0.445,0.316h4.55c0.195,0,0.375-0.126,0.44-0.306l8.169-22.547
				c0.806-2.207,1.544-4.283,2.233-6.285c0.239-0.694,0.94-1.11,1.666-0.992c0.723,0.121,1.252,0.747,1.252,1.479l-0.009,28.455
				c0,0.128,0.046,0.241,0.134,0.329c0.095,0.095,0.206,0.141,0.335,0.141h4.87c0.127,0,0.24-0.046,0.326-0.133
				c0.099-0.098,0.145-0.209,0.145-0.338L49.5,26.764c0-0.26-0.211-0.471-0.472-0.471h-7.652c-0.194,0-0.375,0.126-0.441,0.306
				l-8.286,22.505c-1.236,3.503-2.246,6.523-3.078,9.217c-0.195,0.631-0.75,1.059-1.442,1.057c-0.661-0.004-1.242-0.44-1.43-1.074
				c-0.797-2.692-1.763-5.715-2.953-9.238l-7.922-22.456c-0.066-0.19-0.244-0.315-0.443-0.315H7.727z"/>
		</g>
	</g>
</g>
</svg>
