<?xml version="1.0" encoding="utf-8"?>
<!-- Generator: Adobe Illustrator 16.0.0, SVG Export Plug-In . SVG Version: 6.00 Build 0)  -->
<!DOCTYPE svg PUBLIC "-//W3C//DTD SVG 1.1//EN" "http://www.w3.org/Graphics/SVG/1.1/DTD/svg11.dtd">
<svg version="1.1" id="Layer_2" xmlns="http://www.w3.org/2000/svg" xmlns:xlink="http://www.w3.org/1999/xlink" x="0px" y="0px"
	 width="100px" height="100px" viewBox="0 0 100 100" enable-background="new 0 0 100 100" xml:space="preserve">
<g>
	<g>
		<path d="M72.713,80.037c-4.133,0-8.209-1.003-11.187-2.752c-0.021,0.036-0.045,0.072-0.069,0.108
			c-0.438,0.618-1.123,0.973-1.85,0.973h-7.146c-0.943,0-1.79-0.597-2.106-1.484l-7.859-21.707h-8.606v20.953
			c0,1.234-1.003,2.238-2.236,2.238h-6.908c-1.234,0-2.238-1.004-2.238-2.238V40.902H15.57c-2.226,0-4.037-1.812-4.037-4.039
			c0-2.226,1.812-4.037,4.037-4.037h6.936V22.243c0-1.232,1.003-2.235,2.236-2.235l13.257-0.045c7.973,0,13.213,1.526,16.995,4.948
			c2.266,1.997,3.814,4.718,4.515,7.915h6.177c2.226,0,4.037,1.812,4.037,4.037c0,1.103-0.444,2.104-1.163,2.834
			c2.129-0.99,4.639-1.535,7.417-1.535c3.555,0,7.28,0.95,9.968,2.541l0.529,0.313c0.764,0.459,1.104,1.394,0.818,2.227
			l-2.105,6.125c-0.186,0.541-0.619,0.977-1.16,1.163c-0.497,0.179-1.135,0.118-1.617-0.186l-0.807-0.51
			c-0.772-0.489-2.876-1.624-5.772-1.624c-1.495,0-3.24,0.563-3.24,2.15c0,0.932,0.356,1.728,4.976,3.487
			c7.438,2.831,10.901,6.977,10.901,13.043C88.467,74.755,82.136,80.037,72.713,80.037z M63.296,74.841
			c2.506,1.397,5.919,2.196,9.417,2.196c7.867,0,12.754-3.887,12.754-10.145c0-4.783-2.683-7.846-8.97-10.24
			c-4.581-1.744-6.907-3.196-6.907-6.29c0-3.032,2.566-5.15,6.24-5.15c3.269,0,5.765,1.15,6.978,1.849l1.349-3.925
			c-2.224-1.239-5.255-1.974-8.18-1.974c-6.912,0-11.74,4.082-11.74,9.926c0,4.162,3.12,7.476,9.023,9.582
			c4.192,1.549,6.781,3.225,6.781,6.803c0,2.701-1.887,5.587-7.184,5.587c-3.188,0-6.313-1.211-8.206-2.345L63.296,74.841z
			 M52.996,75.366h5.515l-8.688-23.226c-0.223-0.595-0.046-1.266,0.441-1.675c4.239-3.558,6.075-6.704,6.548-11.22
			c0.08-0.764,0.725-1.344,1.492-1.344h7.381c0.572,0,1.037-0.466,1.037-1.039c0-0.572-0.465-1.037-1.037-1.037h-7.43
			c-0.746,0-1.38-0.549-1.485-1.288c-0.434-3.04-1.738-5.595-3.774-7.39c-3.204-2.898-7.823-4.186-14.992-4.186l-12.498,0.042
			v11.321c0,0.828-0.672,1.5-1.5,1.5H15.57c-0.572,0-1.037,0.465-1.037,1.037c0,0.573,0.465,1.039,1.037,1.039h8.436
			c0.828,0,1.5,0.672,1.5,1.5v35.964h5.383V53.675c0-0.828,0.672-1.5,1.5-1.5h11.158c0.632,0,1.195,0.396,1.41,0.989L52.996,75.366z
			 M52.999,52.067l7.784,20.812l1.472-4.479c0.185-0.551,0.597-0.976,1.133-1.177c0.678-0.233,1.224-0.12,1.703,0.209l0.797,0.519
			c1.553,1.017,4.394,2.109,6.97,2.109c1.563,0,4.184-0.336,4.184-2.587c0-1.292-0.345-2.335-4.805-3.982
			c-9.089-3.243-11-8.535-11-12.402c0-4.387,2.015-8.012,5.383-10.295c-0.3,0.071-0.612,0.109-0.934,0.109h-6.07
			C58.889,45.244,56.892,48.604,52.999,52.067z M38.721,48.457h-6.332c-0.828,0-1.5-0.672-1.5-1.5v-7.555c0-0.828,0.672-1.5,1.5-1.5
			h17.49c0.446,0,0.87,0.199,1.154,0.543c0.285,0.343,0.402,0.796,0.319,1.234C50.333,45.094,45.493,48.457,38.721,48.457z
			 M33.889,45.457h4.832c4.466,0,7.735-1.67,9.109-4.555H33.889V45.457z M49.58,35.826H32.389c-0.828,0-1.5-0.672-1.5-1.5v-6.062
			c0-0.828,0.671-1.499,1.499-1.5l6.09-0.004c6.741,0.075,11.068,2.534,12.531,7.108c0.146,0.456,0.065,0.955-0.217,1.342
			C50.509,35.598,50.059,35.826,49.58,35.826z M33.889,32.826h13.23c-1.578-1.989-4.478-3.019-8.657-3.065l-4.573,0.003V32.826z"/>
	</g>
</g>
</svg>
