<?xml version="1.0" encoding="utf-8"?>
<!-- Generator: Adobe Illustrator 16.0.0, SVG Export Plug-In . SVG Version: 6.00 Build 0)  -->
<!DOCTYPE svg PUBLIC "-//W3C//DTD SVG 1.1//EN" "http://www.w3.org/Graphics/SVG/1.1/DTD/svg11.dtd">
<svg version="1.1" id="Layer_2" xmlns="http://www.w3.org/2000/svg" xmlns:xlink="http://www.w3.org/1999/xlink" x="0px" y="0px"
	 width="100px" height="100px" viewBox="0 0 100 100" enable-background="new 0 0 100 100" xml:space="preserve">
<g>
	<g>
		<path d="M35.22,91.235c-1.68,0-3.265-0.384-4.583-1.111c-1.062-0.586-4.542-2.821-4.852-7.005
			c-0.003-0.036-0.004-0.073-0.004-0.109c-0.001-1.745,0.603-3.393,1.698-4.64c1.142-1.299,2.677-2.015,4.321-2.015
			c3.32,0,6.021,2.969,6.021,6.617c0,0.288-0.017,0.573-0.049,0.854c1.007-0.721,1.872-2.037,2.284-4.462
			c1.176-6.911,2.224-14.32,3.202-22.652l2.075-16.986l-6.962-0.009c-2.049,0-3.717-1.668-3.717-3.719s1.668-3.719,3.719-3.719
			h8.006l0.756-4.203c0.528-2.802,1.189-5.465,1.966-7.927c2.005-6.35,6.97-10.672,12.958-11.28c0.69-0.07,1.364-0.105,2.003-0.105
			c8.29,0,10.155,5.576,10.155,7.529c0,3.239-2.636,5.875-5.876,5.875c-3.239,0-5.875-2.636-5.875-5.875
			c0-0.354,0.058-0.727,0.161-1.124c-1.88,0.403-2.197,1.594-2.315,2.037c-0.484,1.821-1.483,6.143-2.893,15.073h6.892
			c2.051,0,3.719,1.668,3.719,3.719s-1.668,3.719-3.719,3.719l-7.739,0.007c-0.358,2.396-0.695,4.794-1.031,7.188l-0.018,0.126
			c-0.978,6.974-1.988,14.186-3.518,21.202c-1.17,5.359-2.578,11.053-5.765,16.575C43.99,88.716,39.664,91.235,35.22,91.235z
			 M28.781,82.953c0.227,2.646,2.583,4.146,3.305,4.545c0.875,0.482,1.959,0.737,3.134,0.737c3.392,0,6.699-1.932,8.425-4.92
			c2.971-5.149,4.312-10.587,5.431-15.714c1.506-6.906,2.509-14.062,3.479-20.98l0.018-0.126c0.397-2.829,0.795-5.663,1.229-8.496
			c0.111-0.732,0.74-1.272,1.481-1.273l9.03-0.008c0.397,0,0.72-0.322,0.72-0.719s-0.322-0.719-0.719-0.719h-8.644
			c-0.438,0-0.854-0.191-1.139-0.523c-0.284-0.332-0.41-0.771-0.344-1.204c1.573-10.248,2.697-15.123,3.229-17.117
			c0.438-1.644,1.881-4.401,6.634-4.401c0.291,0,0.594,0.011,0.906,0.031c0.493,0.033,0.938,0.307,1.19,0.731
			s0.278,0.947,0.071,1.396c-0.497,1.074-0.749,1.781-0.749,2.102c0,1.585,1.29,2.875,2.875,2.875c1.586,0,2.876-1.29,2.876-2.875
			c0-0.045-0.308-4.529-7.155-4.529c-0.538,0-1.11,0.03-1.7,0.09c-4.776,0.486-8.762,4.011-10.399,9.198
			c-0.741,2.35-1.373,4.896-1.877,7.568l-0.976,5.425c-0.129,0.715-0.751,1.234-1.477,1.234h-9.26c-0.396,0-0.719,0.322-0.719,0.719
			s0.322,0.719,0.719,0.719l8.656,0.011c0.429,0.001,0.838,0.185,1.122,0.507c0.284,0.321,0.417,0.749,0.365,1.175l-2.279,18.659
			c-0.984,8.377-2.039,15.837-3.225,22.799c-1.019,5.997-4.675,7.551-7.563,7.798c-0.595,0.049-1.144-0.245-1.432-0.753
			c-0.29-0.509-0.256-1.141,0.085-1.616c0.47-0.653,0.718-1.457,0.718-2.324c0-1.994-1.355-3.617-3.021-3.617
			c-0.77,0-1.504,0.354-2.068,0.995C29.13,81.037,28.793,81.959,28.781,82.953z"/>
	</g>
</g>
</svg>
