<?xml version="1.0" encoding="utf-8"?>
<!-- Generator: Adobe Illustrator 16.0.0, SVG Export Plug-In . SVG Version: 6.00 Build 0)  -->
<!DOCTYPE svg PUBLIC "-//W3C//DTD SVG 1.1//EN" "http://www.w3.org/Graphics/SVG/1.1/DTD/svg11.dtd">
<svg version="1.1" id="Layer_2" xmlns="http://www.w3.org/2000/svg" xmlns:xlink="http://www.w3.org/1999/xlink" x="0px" y="0px"
	 width="100px" height="100px" viewBox="0 0 100 100" enable-background="new 0 0 100 100" xml:space="preserve">
<g>
	<g>
		<path d="M72.16,88.75c-2.553,0-4.631-2.077-4.631-4.631v-6.96c-8.52-1.533-13.076-7.228-13.553-16.944
			c0.027-2.765,2.086-4.782,4.787-4.782c2.605,0,4.727,2.11,4.727,4.704v0.418c0.133,3.486,1.428,5.714,4.039,6.851V53.122
			c-1.631-0.524-3.078-1.057-4.311-1.587c-1.855-0.799-3.426-1.791-4.662-2.949c-1.273-1.188-2.219-2.662-2.813-4.377
			c-0.574-1.66-0.867-3.742-0.867-6.189c0-2.251,0.387-4.344,1.148-6.22c0.768-1.886,1.895-3.548,3.35-4.941
			c1.447-1.385,3.215-2.485,5.254-3.271c0.889-0.344,1.861-0.615,2.9-0.811v-6.896c0-2.554,2.078-4.631,4.631-4.631
			c2.555,0,4.633,2.077,4.633,4.631v6.987c7.582,1.409,11.668,6.12,12.152,14.021l0.059,0.501c0.008,0.063,0.012,0.125,0.01,0.187
			c-0.027,2.632-2.131,4.693-4.789,4.693c-2.549,0-4.619-1.991-4.711-4.534L79.5,37.526c-0.008-0.05-0.016-0.1-0.02-0.151
			c-0.172-2.316-1.037-3.884-2.688-4.814V44.63c1.74,0.567,3.293,1.141,4.627,1.71c1.943,0.829,3.592,1.857,4.902,3.059
			c1.344,1.232,2.367,2.777,3.039,4.593c0.654,1.775,0.984,3.95,0.984,6.466c0,2.373-0.41,4.617-1.219,6.671
			c-0.813,2.066-2.004,3.897-3.539,5.44c-1.531,1.539-3.404,2.774-5.566,3.673c-0.979,0.406-2.061,0.724-3.229,0.949v6.929
			C76.793,86.673,74.715,88.75,72.16,88.75z M58.764,58.433c-1.059,0-1.777,0.693-1.789,1.725
			c0.428,8.687,4.318,13.234,12.24,14.225c0.752,0.094,1.314,0.731,1.314,1.488v8.249c0,0.899,0.732,1.631,1.631,1.631
			c0.9,0,1.633-0.731,1.633-1.631v-8.208c0-0.755,0.561-1.393,1.309-1.488c1.414-0.18,2.682-0.501,3.77-0.952
			c1.795-0.746,3.338-1.761,4.59-3.018c1.244-1.252,2.213-2.74,2.875-4.424c0.67-1.703,1.01-3.577,1.01-5.572
			c0-2.161-0.268-3.986-0.799-5.427c-0.504-1.361-1.262-2.513-2.252-3.421c-1.059-0.971-2.422-1.814-4.051-2.51
			c-1.506-0.643-3.322-1.295-5.396-1.94c-0.627-0.195-1.055-0.775-1.055-1.433v-15.33c0-0.46,0.211-0.896,0.572-1.18
			c0.361-0.285,0.832-0.39,1.283-0.277c4.082,0.994,6.434,3.771,6.811,8.033c0.012,0.065,0.021,0.132,0.025,0.2l0.025,0.417
			c0.035,0.958,0.787,1.68,1.715,1.68c0.998,0,1.738-0.687,1.787-1.645l-0.055-0.474c-0.43-6.971-3.877-10.604-10.859-11.515
			c-0.746-0.098-1.305-0.733-1.305-1.487v-8.269c0-0.899-0.732-1.631-1.633-1.631c-0.898,0-1.631,0.731-1.631,1.631v8.184
			c0,0.759-0.566,1.398-1.32,1.489c-1.297,0.156-2.477,0.437-3.502,0.833c-1.666,0.643-3.1,1.53-4.258,2.64
			c-1.148,1.099-2.037,2.411-2.645,3.903c-0.615,1.515-0.928,3.228-0.928,5.09c0,2.112,0.236,3.864,0.701,5.208
			c0.434,1.249,1.115,2.314,2.027,3.167c0.984,0.922,2.262,1.724,3.799,2.385c1.393,0.6,3.096,1.207,5.063,1.806
			c0.631,0.191,1.063,0.774,1.063,1.435v17.425c0,0.453-0.205,0.883-0.559,1.168c-0.352,0.284-0.813,0.396-1.258,0.298
			c-5.168-1.12-8.01-4.68-8.221-10.295l-0.002-0.475C60.49,59.197,59.715,58.433,58.764,58.433z M39.008,79.462
			c-17.559,0-29.354-11.857-29.354-29.507c0-17.366,10.92-28.587,27.82-28.587c6.986,0,12.303,1.464,14.73,2.718
			c0.973,0.502,1.471,1.595,1.213,2.656l-1.305,5.368c-0.174,0.7-0.643,1.273-1.289,1.578c-0.627,0.296-1.406,0.296-2.041-0.013
			c-2.42-1.178-6.227-1.909-9.93-1.909c-11.072,0-17.422,6.714-17.422,18.419c0,12.046,6.488,18.955,17.805,18.955
			c4.787,0,7.879-1.188,9.295-1.897c0.605-0.305,1.35-0.329,1.982-0.062c0.645,0.276,1.127,0.813,1.332,1.478l1.686,5.441
			c0.338,1.088-0.15,2.263-1.16,2.792C51.215,77.496,46.838,79.462,39.008,79.462z M37.475,24.368
			c-15.078,0-24.82,10.044-24.82,25.587c0,15.854,10.59,26.507,26.354,26.507c6.299,0,10.016-1.324,11.496-1.997l-1.309-4.221
			c-1.863,0.823-5.207,1.896-9.959,1.896c-12.834,0-20.805-8.413-20.805-21.955c0-13.212,7.824-21.419,20.422-21.419
			c3.791,0,7.734,0.715,10.525,1.888l1.002-4.118C47.918,25.425,43.145,24.368,37.475,24.368z M75.293,71.094
			c-0.354,0-0.699-0.125-0.973-0.358c-0.336-0.284-0.527-0.702-0.527-1.142V54.07c0-0.486,0.236-0.943,0.633-1.224
			c0.396-0.283,0.906-0.352,1.365-0.191l0.93,0.329c1.719,0.622,3.094,1.277,4.088,1.949c1.182,0.8,2.006,1.761,2.453,2.856
			c0.393,0.969,0.592,2.13,0.592,3.452c0,3.061-0.965,5.534-2.869,7.353c-1.334,1.276-3.17,2.111-5.453,2.479
			C75.451,71.088,75.371,71.094,75.293,71.094z M76.793,56.226v11.453c0.857-0.307,1.568-0.726,2.119-1.253
			c1.287-1.23,1.941-2.975,1.941-5.184c0-0.934-0.125-1.716-0.371-2.323c-0.219-0.534-0.674-1.04-1.355-1.501
			C78.543,57.023,77.762,56.624,76.793,56.226z M69.029,45.275c-0.16,0-0.32-0.025-0.475-0.077l-0.945-0.32
			c-1.721-0.595-2.988-1.206-3.881-1.869c-1.084-0.802-1.775-1.751-2.053-2.82c-0.203-0.791-0.305-1.784-0.305-2.954
			c0-1.446,0.301-2.757,0.895-3.895c0.596-1.138,1.424-2.083,2.463-2.812c0.969-0.683,2.096-1.198,3.352-1.531
			c0.166-0.045,0.34-0.084,0.514-0.122l0.111-0.024c0.441-0.098,0.908,0.01,1.264,0.295s0.561,0.715,0.561,1.17v13.46
			c0,0.482-0.232,0.936-0.623,1.217C69.648,45.179,69.34,45.275,69.029,45.275z M67.529,32.367
			c-0.387,0.178-0.746,0.383-1.076,0.615c-0.645,0.452-1.158,1.04-1.529,1.747c-0.367,0.703-0.553,1.546-0.553,2.505
			c0,1.144,0.113,1.831,0.211,2.205c0.123,0.479,0.576,0.896,0.934,1.159c0.463,0.345,1.139,0.696,2.014,1.05V32.367z"/>
	</g>
</g>
</svg>
