<?xml version="1.0" encoding="utf-8"?>
<!-- Generator: Adobe Illustrator 16.0.0, SVG Export Plug-In . SVG Version: 6.00 Build 0)  -->
<!DOCTYPE svg PUBLIC "-//W3C//DTD SVG 1.1//EN" "http://www.w3.org/Graphics/SVG/1.1/DTD/svg11.dtd">
<svg version="1.1" id="Layer_2" xmlns="http://www.w3.org/2000/svg" xmlns:xlink="http://www.w3.org/1999/xlink" x="0px" y="0px"
	 width="100px" height="100px" viewBox="0 0 100 100" enable-background="new 0 0 100 100" xml:space="preserve">
<g>
	<g>
		<path d="M71.115,85.06c-1.207,0-2.303-0.175-3.256-0.519c-0.947-0.339-1.854-0.892-2.691-1.641
			c-0.842-0.751-1.645-1.651-2.377-2.674c-0.746-1.044-1.492-2.107-2.213-3.16l-9.885-15.155H33.955v15.54
			c0,2.519-0.584,4.438-1.734,5.708c-1.162,1.279-2.611,1.9-4.428,1.9c-1.881,0-3.342-0.628-4.469-1.919
			c-1.125-1.283-1.695-3.198-1.695-5.689v-15.54h-9.58c-2.506,0-4.545-2.038-4.545-4.544s2.039-4.545,4.545-4.545h9.58v-7.757h-9.58
			c-2.506,0-4.545-2.038-4.545-4.544s2.039-4.545,4.545-4.545h9.58V24.651c0-2.189,0.238-3.909,0.707-5.11
			c0.586-1.39,1.508-2.464,2.834-3.322c1.326-0.86,2.719-1.278,4.258-1.278c1.189,0,2.221,0.194,3.061,0.579
			c0.863,0.394,1.594,0.906,2.236,1.565c0.654,0.669,1.33,1.547,2.012,2.606c0.701,1.09,1.424,2.225,2.191,3.437l8.492,12.849
			h18.746V22.551c0-2.554,0.547-4.484,1.625-5.739c1.082-1.259,2.506-1.871,4.352-1.871c1.908,0,3.371,0.613,4.469,1.874
			c1.092,1.254,1.646,3.185,1.646,5.736v13.426h9.693c2.506,0,4.545,2.039,4.545,4.545s-2.039,4.544-4.545,4.544h-9.693v7.757h9.693
			c2.506,0,4.545,2.039,4.545,4.545s-2.039,4.544-4.545,4.544h-9.693v14.466C78.258,82.22,75.922,85.06,71.115,85.06z
			 M32.455,58.911h19.051c0.506,0,0.979,0.256,1.256,0.681l10.311,15.808c0.689,1.009,1.426,2.055,2.158,3.081
			c0.604,0.841,1.256,1.575,1.938,2.183c0.549,0.491,1.121,0.845,1.707,1.055c0.629,0.228,1.381,0.342,2.24,0.342
			c1.748,0,4.143,0,4.143-5.683V60.411c0-0.828,0.672-1.5,1.5-1.5h11.193c0.852,0,1.545-0.692,1.545-1.544s-0.693-1.545-1.545-1.545
			H76.758c-0.828,0-1.5-0.672-1.5-1.5V43.565c0-0.828,0.672-1.5,1.5-1.5h11.193c0.852,0,1.545-0.692,1.545-1.544
			s-0.693-1.545-1.545-1.545H76.758c-0.828,0-1.5-0.672-1.5-1.5V22.551c0-2.25-0.494-3.29-0.91-3.767
			c-0.363-0.418-0.908-0.844-2.205-0.844c-0.971,0-1.572,0.239-2.076,0.826c-0.41,0.479-0.9,1.523-0.9,3.784v14.926
			c0,0.828-0.672,1.5-1.5,1.5H46.613c-0.504,0-0.975-0.253-1.252-0.673L36.41,24.758c-0.781-1.23-1.5-2.359-2.197-3.443
			c-0.572-0.891-1.123-1.609-1.637-2.135c-0.379-0.391-0.814-0.694-1.334-0.932c-0.439-0.201-1.068-0.308-1.814-0.308
			c-0.955,0-1.789,0.253-2.627,0.796c-0.816,0.529-1.352,1.144-1.686,1.934c-0.172,0.44-0.486,1.602-0.486,3.981v12.825
			c0,0.828-0.672,1.5-1.5,1.5h-11.08c-0.852,0-1.545,0.693-1.545,1.545s0.693,1.544,1.545,1.544h11.08c0.828,0,1.5,0.672,1.5,1.5
			v10.757c0,0.828-0.672,1.5-1.5,1.5h-11.08c-0.852,0-1.545,0.693-1.545,1.545s0.693,1.544,1.545,1.544h11.08
			c0.828,0,1.5,0.672,1.5,1.5v17.04c0,1.719,0.33,3.003,0.953,3.715c0.547,0.627,1.207,0.894,2.211,0.894
			c0.963,0,1.621-0.274,2.205-0.917c0.625-0.689,0.957-1.966,0.957-3.691v-17.04C30.955,59.583,31.627,58.911,32.455,58.911z
			 M67.666,70.835c-0.494,0-0.969-0.245-1.252-0.673l-5.896-8.924c-0.303-0.461-0.33-1.052-0.068-1.538
			c0.262-0.485,0.77-0.789,1.32-0.789h5.896c0.828,0,1.5,0.672,1.5,1.5v8.924c0,0.662-0.436,1.246-1.068,1.437
			C67.955,70.814,67.809,70.835,67.666,70.835z M64.559,61.911l1.607,2.432v-2.432H64.559z M67.666,55.822h-9.92
			c-0.504,0-0.975-0.253-1.252-0.673l-7.107-10.757c-0.305-0.461-0.332-1.052-0.07-1.538c0.262-0.485,0.77-0.789,1.32-0.789h17.029
			c0.828,0,1.5,0.672,1.5,1.5v10.757C69.166,55.15,68.494,55.822,67.666,55.822z M58.553,52.822h7.613v-7.757h-12.74L58.553,52.822z
			 M47.533,55.822H32.455c-0.828,0-1.5-0.672-1.5-1.5V43.565c0-0.828,0.672-1.5,1.5-1.5h8.063c0.506,0,0.979,0.256,1.256,0.681
			l7.016,10.757c0.301,0.461,0.324,1.05,0.063,1.534C48.59,55.521,48.084,55.822,47.533,55.822z M33.955,52.822h10.809l-5.059-7.757
			h-5.75V52.822z M36.545,38.977h-4.09c-0.828,0-1.5-0.672-1.5-1.5v-6.271c0-0.664,0.436-1.249,1.072-1.438
			c0.635-0.188,1.322,0.062,1.684,0.618l4.09,6.271c0.301,0.461,0.326,1.05,0.064,1.534C37.602,38.675,37.096,38.977,36.545,38.977z
			"/>
	</g>
</g>
</svg>
