<?xml version="1.0" encoding="utf-8"?>
<!-- Generator: Adobe Illustrator 16.0.0, SVG Export Plug-In . SVG Version: 6.00 Build 0)  -->
<!DOCTYPE svg PUBLIC "-//W3C//DTD SVG 1.1//EN" "http://www.w3.org/Graphics/SVG/1.1/DTD/svg11.dtd">
<svg version="1.1" id="Layer_2" xmlns="http://www.w3.org/2000/svg" xmlns:xlink="http://www.w3.org/1999/xlink" x="0px" y="0px"
	 width="100px" height="100px" viewBox="0 0 100 100" enable-background="new 0 0 100 100" xml:space="preserve">
<g>
	<g>
		<path d="M66.25,84.139h-8.175c-0.576,0-1.135-0.235-1.536-0.646c-0.382-0.372-0.617-0.931-0.617-1.506L55.93,36.51
			c0-1.186,0.965-2.15,2.15-2.15h7.137c1.186,0,2.15,0.965,2.15,2.15v1.724c2.623-2.049,6.801-4.023,13.164-4.023
			c1.187,0,2.152,0.965,2.152,2.151v7.115c0,0.579-0.227,1.122-0.639,1.529c-0.379,0.389-0.938,0.623-1.513,0.623h-2.819
			c-4.71,0.117-7.992,3.27-8.968,8.648c-0.167,0.999-0.34,2.212-0.34,3.468v24.242C68.403,83.174,67.438,84.139,66.25,84.139z
			 M58.923,81.139h6.48V57.745c0-1.475,0.194-2.841,0.385-3.982c1.22-6.724,5.773-10.981,11.887-11.134h2.009v-5.405
			c-7.427,0.234-11.087,3.531-12.63,5.526c-0.392,0.506-1.064,0.707-1.671,0.502c-0.607-0.208-1.015-0.778-1.015-1.42v-4.473H58.93
			L58.923,81.139z M52.001,84.139h-7.188c-0.759,0-1.495-0.312-2.02-0.855L28.984,68.9v12.462c0,1.531-1.255,2.776-2.799,2.776
			h-6.07c-1.543,0-2.799-1.245-2.799-2.776V18.638c0-1.531,1.255-2.776,2.799-2.776h6.07c1.543,0,2.799,1.245,2.799,2.776v31.664
			l11.762-14.93c0.521-0.665,1.345-1.065,2.203-1.065h7.537c1.039,0,1.987,0.567,2.475,1.48c0.52,0.969,0.41,2.156-0.283,3.022
			L35.992,59.682l18.083,19.817c0.768,0.843,0.943,2.047,0.449,3.069C54.048,83.527,53.061,84.139,52.001,84.139z M44.893,81.139
			h6.617L32.912,60.757c-0.498-0.545-0.524-1.371-0.063-1.947l17.19-21.503h-6.997L28.663,55.558
			c-0.395,0.501-1.065,0.696-1.669,0.488c-0.604-0.209-1.009-0.778-1.009-1.417V18.861h-5.668v62.277h5.668V65.732
			c0-0.818,0.657-1.486,1.475-1.5l0.53-0.009c0.42,0.002,0.818,0.16,1.107,0.461L44.893,81.139z"/>
	</g>
</g>
</svg>
