<?xml version="1.0" encoding="utf-8"?>
<!-- Generator: Adobe Illustrator 16.0.0, SVG Export Plug-In . SVG Version: 6.00 Build 0)  -->
<!DOCTYPE svg PUBLIC "-//W3C//DTD SVG 1.1//EN" "http://www.w3.org/Graphics/SVG/1.1/DTD/svg11.dtd">
<svg version="1.1" id="Layer_2" xmlns="http://www.w3.org/2000/svg" xmlns:xlink="http://www.w3.org/1999/xlink" x="0px" y="0px"
	 width="100px" height="100px" viewBox="0 0 100 100" enable-background="new 0 0 100 100" xml:space="preserve">
<g>
	<g>
		<g>
			<path d="M60.558,65.263h-0.003c-3.083,0-5.608-0.021-7.95-0.068c-3.928-0.08-6.6-2.681-7.332-7.136
				c-0.408-2.48-0.661-4.954-0.906-7.348c-0.182-1.778-0.407-3.97-0.698-5.977c-0.289-1.98-0.656-4.007-1.01-5.967l-0.019-0.105
				c-0.571-3.156-1.162-6.418-1.481-9.688c-0.182-1.885,0.588-3.599,1.267-5.11c0.246-0.547,0.5-1.112,0.669-1.608
				c0.324-0.96,1.227-1.608,2.246-1.608c1.004,0,1.905,0.636,2.241,1.582c0.411,1.19,2.458,7.269,2.811,11.22
				c0.199,2.229,0.512,6.146,0.845,10.312c0.255,3.189,0.523,6.528,0.759,9.372c0.097,1.176,0.321,1.655,2.171,1.655l0.258-0.006
				c1.886-0.062,3.914-0.09,6.366-0.09c1.124,0,2.267,0.007,3.437,0.013l1.17,0.007c0.777,0.006,1.534,0.011,2.289,0.015
				c-0.005-0.027-0.011-0.055-0.017-0.082c-0.363-1.772-0.676-3.3-1.346-4.171c-2.826-3.674-2.899-7.21-0.227-10.812
				c0.391-0.53,0.993-0.876,1.649-0.945l0.171-0.012c0.004,0,0.008,0,0.013,0c0.629,0,1.16,0.191,1.583,0.538
				c4.502,3.759,5.69,9.757,4.717,23.777c-0.087,1.24-1.128,2.211-2.37,2.211c-1.925,0-3.83,0.008-5.722,0.016l-0.662,0.002
				C63.832,65.257,62.192,65.263,60.558,65.263z M45.282,24.829c-0.04,0.089-0.08,0.177-0.119,0.266
				c-0.578,1.285-1.123,2.499-1.018,3.59c0.307,3.146,0.887,6.347,1.447,9.441l0.019,0.106c0.359,1.986,0.73,4.038,1.027,6.069
				c0.301,2.07,0.529,4.297,0.712,6.086c0.242,2.366,0.491,4.795,0.883,7.185c0.496,3.018,1.987,4.573,4.432,4.622
				c2.321,0.047,4.828,0.068,7.89,0.068h0.003c1.629,0,3.264-0.006,4.908-0.014l0.663-0.002c1.704-0.007,3.418-0.014,5.149-0.016
				c0.785-11.839-0.028-17.166-3.164-20.216c-1.474,2.285-1.285,4.193,0.588,6.63c1.092,1.419,1.469,3.261,1.906,5.393
				c0.124,0.604,0.25,1.22,0.399,1.849c0.106,0.446,0.002,0.917-0.283,1.277c-0.285,0.36-0.74,0.562-1.178,0.569
				c-1.395-0.002-2.748-0.012-4.113-0.021l-1.222-0.007c-1.164-0.006-2.301-0.013-3.419-0.013c-2.418,0-4.417,0.028-6.287,0.089
				l-0.307,0.007c0,0,0,0-0.001,0c-3.211,0-4.947-1.483-5.19-4.407c-0.236-2.848-0.504-6.188-0.759-9.382
				c-0.332-4.154-0.644-8.059-0.843-10.282C47.166,31.037,45.993,27.059,45.282,24.829z"/>
		</g>
	</g>
	<g>
		<g>
			<path d="M63.688,76.739c-0.039,0-0.078-0.002-0.116-0.005l-0.101-0.008c-0.526-0.009-1.146-0.312-1.574-0.804l-2.358-2.69
				l-2.957,2.688c-0.444,0.41-1.072,0.633-1.697,0.614c-0.666-0.034-1.268-0.325-1.696-0.817l-3.768-4.378
				c-0.845-0.985-0.755-2.438,0.202-3.308l3.779-3.437c0.435-0.398,1.004-0.619,1.599-0.619c0.774,0.039,1.39,0.34,1.815,0.847
				l2.338,2.77l2.988-2.756c0.428-0.398,1.015-0.63,1.607-0.63c0.769,0.039,1.359,0.319,1.79,0.812l3.71,4.267
				c0.841,0.969,0.768,2.414-0.168,3.291L65.309,76.1C64.867,76.512,64.291,76.739,63.688,76.739z M60.817,70.14l2.916,3.326
				l2.857-2.668l-2.887-3.32L60.817,70.14z M52.091,69.842l2.948,3.426l2.819-2.562l-2.917-3.455L52.091,69.842z"/>
		</g>
	</g>
	<g>
		<g>
			<path d="M20.866,73.804c-2.047,0-3.9-0.104-5.664-0.319c-3.814-0.463-7.02-2.305-9.024-5.188
				c-1.967-2.832-2.571-6.385-1.702-10.004c0.247-1.106,1.657-6.959,4.632-11.155c0.597-0.91,1.725-1.502,2.914-1.502
				c0.686,0,1.342,0.194,1.898,0.562c0.777,0.507,1.312,1.296,1.5,2.215c0.189,0.914,0.01,1.849-0.505,2.63
				c-1.872,2.847-3.083,6.793-3.165,7.778c-0.05,0.607,0.052,1.196,0.714,2.098c1.337,1.821,4.083,2.789,7.939,2.798l1.709,0.008
				c0.648,0,1.419-0.01,2.175-0.079c4.33-0.4,6.862-1.305,8.211-2.935c1.288-1.556,1.709-4.131,1.326-8.106l-0.247-2.62
				c-0.657-6.99-1.336-14.219-2.951-21.011l-0.204-0.847c-0.924-3.81-1.798-7.409,0.616-11.554c0.354-0.612,0.963-1.033,1.668-1.149
				c0.045-0.007,0.091-0.013,0.138-0.016l0.138-0.01c0.619-0.05,1.228,0.187,1.689,0.6c0.409,0.361,0.8,0.737,1.175,1.104
				c0.63,0.612,1.222,1.187,1.789,1.525c2.313,1.375,3.556,2.947,3.798,4.804c0.256,1.938-0.6,3.859-2.694,6.036
				c-0.066,0.192-0.14,0.665-0.09,1.144c0.335,3.204,0.715,6.455,1.084,9.615l0.073,0.621c0.527,4.498,1.073,9.148,1.515,13.814
				c0.557,5.87-0.553,10.495-3.3,13.748c-2.574,3.051-6.498,4.792-11.66,5.175C24.353,73.731,22.556,73.804,20.866,73.804z
				 M12.021,48.636c-0.179,0-0.363,0.081-0.437,0.193c-2.673,3.771-3.957,9.109-4.187,10.142c-0.672,2.799-0.229,5.495,1.243,7.614
				c1.51,2.17,3.968,3.563,6.923,3.921c3.021,0.368,6.338,0.399,10.575,0.085c4.328-0.32,7.554-1.706,9.589-4.118
				c2.208-2.613,3.084-6.492,2.606-11.529c-0.439-4.633-0.983-9.267-1.508-13.748l-0.073-0.623c-0.37-3.172-0.751-6.435-1.088-9.651
				c-0.113-1.084,0.038-2.64,0.835-3.456c1.446-1.482,2.086-2.675,1.958-3.645c-0.114-0.874-0.908-1.755-2.36-2.618
				c-0.869-0.52-1.615-1.244-2.337-1.944c-0.164-0.16-0.329-0.32-0.497-0.479c-1.337,2.826-0.708,5.421,0.074,8.642l0.206,0.854
				c1.664,7.001,2.353,14.335,3.02,21.428l0.247,2.617c0.464,4.818-0.171,8.093-2.002,10.304c-1.898,2.293-5.058,3.529-10.245,4.008
				c-0.877,0.082-1.735,0.093-2.458,0.093l-1.713-0.008c-4.844-0.011-8.424-1.401-10.348-4.022c-1.01-1.377-1.406-2.647-1.285-4.12
				c0.141-1.695,1.632-6.114,3.649-9.182c0.076-0.115,0.1-0.24,0.073-0.374c-0.028-0.134-0.1-0.242-0.21-0.313
				C12.185,48.646,12.088,48.636,12.021,48.636z"/>
		</g>
	</g>
	<g>
		<g>
			<path d="M74.524,84.608C74.523,84.608,74.523,84.608,74.524,84.608c-3.461-0.002-6.813-1.221-10.054-2.398
				c-1.387-0.505-2.899-1.055-4.302-1.448c-1.2-0.339-1.938-1.557-1.683-2.773c0.017-0.081,0.041-0.161,0.071-0.238
				c0.338-0.865,1.234-1.738,2.475-1.738c0.2,0,0.401,0.023,0.601,0.069c0.281,0.065,0.633,0.137,0.995,0.209
				c0.308,0.063,0.624,0.127,0.915,0.191c1.324,0.291,2.653,0.582,3.905,0.693c0.508,0.047,1.015,0.07,1.512,0.07
				c6.341,0,12.13-3.868,17.208-11.497c2.251-3.384,0.653-6.497-1.084-8.512c-0.216-0.25-0.397-0.491-0.58-0.735
				c-0.17-0.229-0.325-0.438-0.529-0.663c-0.024-0.026-0.047-0.053-0.068-0.081c-1.917-2.435-3.573-4.448-4.92-5.986
				c-0.835-0.953-1.249-2.176-1.165-3.443s0.655-2.425,1.608-3.26c0.84-0.734,1.945-1.14,3.11-1.14c1.4,0,2.709,0.577,3.592,1.582
				c2.26,2.58,4.723,5.703,5.99,7.335l0.484,0.578c0.119,0.136,3.404,3.982,3.304,10.522c-0.092,6.034-2.687,9.278-3.276,9.938
				c-5.099,7.309-9.993,12.262-17.26,12.698C75.082,84.598,74.804,84.608,74.524,84.608z M67.8,80.21
				c2.51,0.854,4.977,1.516,7.403,1.377c6.08-0.365,10.405-4.861,15.025-11.5c0.043-0.063,0.092-0.122,0.145-0.177
				c0.099-0.105,2.456-2.682,2.537-8.01c0.082-5.362-2.562-8.502-2.588-8.533l-0.536-0.642c-1.037-1.334-3.619-4.623-5.909-7.238
				c-0.563-0.64-1.826-0.728-2.471-0.162c-0.35,0.307-0.559,0.732-0.59,1.2c-0.031,0.468,0.121,0.918,0.428,1.269
				c1.374,1.568,3.052,3.61,4.989,6.067c0.258,0.289,0.461,0.558,0.66,0.824c0.156,0.208,0.295,0.397,0.463,0.592
				c3.364,3.903,3.841,8.325,1.309,12.133C82.702,76.367,75.697,80.685,67.8,80.21z"/>
		</g>
	</g>
</g>
</svg>
