<?xml version="1.0" encoding="utf-8"?>
<!-- Generator: Adobe Illustrator 16.0.0, SVG Export Plug-In . SVG Version: 6.00 Build 0)  -->
<!DOCTYPE svg PUBLIC "-//W3C//DTD SVG 1.1//EN" "http://www.w3.org/Graphics/SVG/1.1/DTD/svg11.dtd">
<svg version="1.1" id="Layer_2" xmlns="http://www.w3.org/2000/svg" xmlns:xlink="http://www.w3.org/1999/xlink" x="0px" y="0px"
	 width="100px" height="100px" viewBox="0 0 100 100" enable-background="new 0 0 100 100" xml:space="preserve">
<g>
	<g>
		<path d="M72.714,80.037c-4.134,0-8.21-1.003-11.187-2.753c-0.022,0.037-0.045,0.073-0.069,0.109
			c-0.437,0.617-1.122,0.973-1.849,0.973H52.46c-0.943,0-1.789-0.597-2.105-1.484l-7.86-21.707h-8.607v20.953
			c0,1.234-1.003,2.238-2.236,2.238h-6.907c-1.234,0-2.238-1.004-2.238-2.238V40.902H15.57c-2.226,0-4.037-1.812-4.037-4.039
			c0-2.226,1.811-4.037,4.037-4.037h6.937V22.243c0-1.232,1.003-2.235,2.236-2.235l13.256-0.045c7.973,0,13.213,1.526,16.996,4.948
			c2.267,1.998,3.815,4.718,4.514,7.915h6.177c2.226,0,4.037,1.812,4.037,4.037c0,1.103-0.444,2.104-1.163,2.833
			c2.128-0.989,4.638-1.534,7.416-1.534c3.554,0,7.28,0.95,9.969,2.541l0.53,0.314c0.772,0.463,1.106,1.375,0.819,2.222
			l-2.107,6.129c-0.186,0.544-0.622,0.979-1.166,1.165c-0.481,0.173-1.125,0.117-1.608-0.187l-0.81-0.511
			c-0.771-0.489-2.873-1.624-5.771-1.624c-1.495,0-3.241,0.563-3.241,2.15c0,0.933,0.357,1.728,4.975,3.487
			c7.438,2.831,10.902,6.976,10.902,13.043C88.467,74.755,82.136,80.037,72.714,80.037z M63.297,74.841
			c2.506,1.397,5.918,2.196,9.417,2.196c7.867,0,12.753-3.887,12.753-10.145c0-4.784-2.683-7.846-8.969-10.24
			c-4.582-1.744-6.908-3.196-6.908-6.29c0-3.032,2.566-5.15,6.241-5.15c3.269,0,5.764,1.15,6.977,1.849l1.349-3.925
			c-2.224-1.239-5.256-1.974-8.181-1.974c-6.912,0-11.739,4.082-11.739,9.926c0,4.163,3.12,7.477,9.022,9.582
			c4.193,1.549,6.782,3.225,6.782,6.803c0,2.701-1.887,5.587-7.184,5.587c-3.188,0-6.313-1.211-8.207-2.345L63.297,74.841z
			 M52.997,75.366h5.513l-8.687-23.226c-0.223-0.595-0.046-1.266,0.44-1.675c4.24-3.557,6.076-6.703,6.549-11.22
			c0.08-0.764,0.724-1.344,1.492-1.344h7.381c0.572,0,1.037-0.466,1.037-1.039c0-0.572-0.465-1.037-1.037-1.037h-7.431
			c-0.747,0-1.38-0.55-1.485-1.289c-0.433-3.038-1.738-5.594-3.774-7.389c-3.205-2.898-7.824-4.186-14.993-4.186l-12.497,0.042
			v11.321c0,0.828-0.671,1.5-1.5,1.5H15.57c-0.572,0-1.037,0.465-1.037,1.037c0,0.573,0.465,1.039,1.037,1.039h8.437
			c0.829,0,1.5,0.672,1.5,1.5v35.964h5.381V53.675c0-0.828,0.671-1.5,1.5-1.5h11.159c0.631,0,1.195,0.396,1.41,0.989L52.997,75.366z
			 M53,52.067l7.784,20.813l1.471-4.48c0.186-0.553,0.599-0.979,1.137-1.179c0.673-0.227,1.215-0.117,1.694,0.207l0.802,0.522
			c1.553,1.017,4.395,2.109,6.97,2.109c1.563,0,4.184-0.336,4.184-2.587c0-1.293-0.345-2.335-4.806-3.982
			c-9.088-3.243-10.999-8.535-10.999-12.402c0-4.387,2.014-8.012,5.382-10.295c-0.299,0.071-0.612,0.109-0.933,0.109h-6.071
			C58.889,45.245,56.892,48.605,53,52.067z M38.721,48.457h-6.333c-0.829,0-1.5-0.672-1.5-1.5v-7.555c0-0.828,0.671-1.5,1.5-1.5
			h17.49c0.446,0,0.87,0.199,1.155,0.543c0.285,0.343,0.402,0.796,0.319,1.234C50.333,45.094,45.493,48.457,38.721,48.457z
			 M33.888,45.457h4.833c4.466,0,7.734-1.67,9.109-4.555H33.888V45.457z M49.58,35.826H32.388c-0.829,0-1.5-0.672-1.5-1.5v-6.062
			c0-0.828,0.671-1.499,1.499-1.5l6.09-0.004c6.742,0.075,11.068,2.534,12.531,7.108c0.146,0.456,0.065,0.955-0.217,1.342
			S50.059,35.826,49.58,35.826z M33.888,32.826h13.23c-1.577-1.989-4.477-3.019-8.657-3.065l-4.573,0.003V32.826z"/>
	</g>
</g>
</svg>
