<?xml version="1.0" encoding="utf-8"?>
<!-- Generator: Adobe Illustrator 16.0.0, SVG Export Plug-In . SVG Version: 6.00 Build 0)  -->
<!DOCTYPE svg PUBLIC "-//W3C//DTD SVG 1.1//EN" "http://www.w3.org/Graphics/SVG/1.1/DTD/svg11.dtd">
<svg version="1.1" id="Layer_2" xmlns="http://www.w3.org/2000/svg" xmlns:xlink="http://www.w3.org/1999/xlink" x="0px" y="0px"
	 width="100px" height="100px" viewBox="0 0 100 100" enable-background="new 0 0 100 100" xml:space="preserve">
<g>
	<g>
		<path d="M58.024,79.195h-5.092c-0.858,0-1.663-0.422-2.151-1.127c-0.489-0.715-0.596-1.617-0.289-2.42L71.35,22.471
			c0.381-0.992,1.362-1.666,2.436-1.666h5.246c0.862,0,1.668,0.424,2.156,1.137c0.486,0.715,0.59,1.617,0.281,2.42L60.457,77.535
			C60.076,78.523,59.097,79.195,58.024,79.195z M53.499,76.195h4.262l20.702-52.391H74.05L53.499,76.195z M26.739,78.945
			c-0.705,0-1.403-0.012-2.151-0.031l-13.671-0.039c-0.6,0-1.167-0.234-1.593-0.656c-0.438-0.438-0.677-1.014-0.677-1.623V23.172
			c0-1.256,1.022-2.277,2.278-2.277l16.586-0.004c8.119,0,25.011,0,25.437,15.248c0.171,6.139-3.32,9.701-6.686,11.703
			c4.295,2.406,6.503,6.848,6.563,13.221c0.042,4.529-1.389,8.291-4.255,11.184C44.166,76.691,36.821,78.945,26.739,78.945z
			 M11.646,75.877l12.986,0.037c0.755,0.02,1.429,0.031,2.107,0.031c9.251,0,15.879-1.955,19.699-5.811
			c2.281-2.303,3.42-5.346,3.386-9.045c-0.054-5.781-1.93-9.299-5.904-11.068l-1.646-0.738c-0.527-0.236-0.872-0.756-0.886-1.334
			s0.306-1.111,0.822-1.373l1.604-0.811c4.187-2.127,6.251-5.338,6.134-9.543c-0.285-10.234-9.176-12.332-22.437-12.332
			l-15.865,0.004V75.877z M84.18,78.381h-0.076c-4.003,0-7.022-3.182-7.022-7.402c0-4.219,3.084-7.402,7.174-7.402
			c4.046,0,7.098,3.184,7.098,7.402C91.354,75.199,88.27,78.381,84.18,78.381z M84.256,66.576c-2.418,0-4.174,1.852-4.174,4.402
			s1.691,4.402,4.022,4.402h0.076c2.458,0,4.174-1.811,4.174-4.402S86.668,66.576,84.256,66.576z M32.331,70.309
			c-0.246,0-0.424-0.006-0.649-0.016l-11.217-0.004c-0.828,0-1.5-0.672-1.5-1.5V54.453c0-0.398,0.159-0.781,0.442-1.063
			s0.676-0.473,1.065-0.438l11.551,0.057c4.831,0,9.713,2.604,9.713,8.424c0.048,2.607-0.692,4.723-2.2,6.258
			C37.214,70.055,33.724,70.309,32.331,70.309z M21.965,67.291l9.782,0.002c0.245,0.01,0.387,0.016,0.583,0.016
			c0.792,0,3.497-0.123,5.066-1.721c0.922-0.939,1.373-2.328,1.34-4.127c0-5.189-5.599-5.451-6.721-5.451l-10.051-0.049V67.291z
			 M31.969,45.572c-0.111,0-0.224-0.004-0.365-0.01l-11.139,0.002c-0.398,0-0.779-0.158-1.061-0.439s-0.439-0.664-0.439-1.061
			V29.762c0-0.398,0.159-0.781,0.44-1.063c0.281-0.281,0.663-0.438,1.06-0.438c0.001,0,0.002,0,0.003,0l11.629,0.023
			c4.797,0,9.64,2.605,9.64,8.426c0.048,2.605-0.692,4.721-2.199,6.258c-2.162,2.201-4.743,2.4-6.627,2.547l-0.468,0.037
			C32.252,45.566,32.111,45.572,31.969,45.572z M31.721,42.564c0.188,0.008,0.292,0.012,0.487-0.002l0.467-0.037
			c1.723-0.135,3.348-0.26,4.721-1.658c0.922-0.941,1.374-2.33,1.341-4.129c0-5.191-5.534-5.453-6.643-5.453l-10.129-0.021v11.301
			l9.67-0.002l0,0C31.662,42.563,31.691,42.564,31.721,42.564L31.721,42.564z"/>
	</g>
</g>
</svg>
