<?xml version="1.0" encoding="utf-8"?>
<!-- Generator: Adobe Illustrator 16.0.0, SVG Export Plug-In . SVG Version: 6.00 Build 0)  -->
<!DOCTYPE svg PUBLIC "-//W3C//DTD SVG 1.1//EN" "http://www.w3.org/Graphics/SVG/1.1/DTD/svg11.dtd">
<svg version="1.1" id="Layer_2" xmlns="http://www.w3.org/2000/svg" xmlns:xlink="http://www.w3.org/1999/xlink" x="0px" y="0px"
	 width="100px" height="100px" viewBox="0 0 100 100" enable-background="new 0 0 100 100" xml:space="preserve">
<g>
	<g>
		<path d="M76.363,83.117c-4.503,0-8.941-1.092-12.178-2.996l-0.577-0.342c-0.77-0.446-1.127-1.396-0.842-2.25l2.286-6.962
			c0.188-0.563,0.61-0.996,1.16-1.2c0.667-0.228,1.235-0.12,1.726,0.212l0.878,0.572c1.717,1.124,4.858,2.331,7.705,2.331
			c1.763,0,4.72-0.386,4.72-2.973c0-1.425-0.395-2.66-5.353-4.491c-9.868-3.521-11.942-9.252-11.942-13.438
			c0-8.245,6.574-14.004,15.986-14.004c3.865,0,7.917,1.032,10.838,2.762l0.577,0.342c0.778,0.469,1.126,1.421,0.834,2.271
			l-2.303,6.701c-0.191,0.556-0.636,0.999-1.188,1.188c-0.529,0.182-1.146,0.114-1.632-0.186l-0.894-0.563
			c-0.854-0.543-3.178-1.8-6.391-1.8c-1.701,0-3.688,0.653-3.688,2.494c0,1.111,0.386,1.987,5.536,3.948
			c8.077,3.075,11.839,7.568,11.839,14.142C93.461,77.526,86.75,83.117,76.363,83.117z M65.888,77.64
			c2.772,1.576,6.576,2.478,10.476,2.478c8.695,0,14.098-4.308,14.098-11.242c0-5.304-2.963-8.694-9.907-11.339
			c-5.06-1.926-7.468-3.428-7.468-6.751c0-3.235,2.75-5.494,6.688-5.494c3.688,0,6.462,1.347,7.712,2.091l1.57-4.569
			c-2.464-1.403-5.855-2.236-9.124-2.236c-7.646,0-12.986,4.525-12.986,11.004c0,4.62,3.446,8.292,9.966,10.618
			c4.53,1.673,7.329,3.477,7.329,7.312c0,2.888-2.028,5.973-7.72,5.973c-3.546,0-7.021-1.381-9.06-2.638L65.888,77.64z
			 M39.835,83.117c-10.182,0-18.083-2.817-24.154-8.612c-5.813-5.609-9.142-14.41-9.142-24.149c0-20.021,14.06-33.473,34.986-33.473
			c7.311,0,13.258,1.621,16.129,3.009c1.122,0.54,1.67,1.798,1.301,2.99l-1.958,6.32c-0.216,0.692-0.719,1.256-1.38,1.547
			c-0.649,0.288-1.435,0.28-2.083-0.031c-3.377-1.595-7.252-2.339-12.187-2.339c-13.336,0-21.62,8.285-21.62,21.621
			c0,13.391,7.909,21.709,20.642,21.709c3.969,0,6.42-0.438,7.824-0.833V57.217h-4.104c-1.379,0-2.5-1.121-2.5-2.5v-6.23
			c0-1.379,1.121-2.5,2.5-2.5h14.259c1.379,0,2.5,1.121,2.5,2.5v28.838c0,1.027-0.644,1.965-1.602,2.334
			C57.138,80.47,49.507,83.117,39.835,83.117z M41.525,19.883c-19.132,0-31.986,12.246-31.986,30.473
			c0,8.93,2.995,16.943,8.219,21.985c5.48,5.23,12.704,7.776,22.077,7.776c8.717,0,15.654-2.262,18.013-3.138V48.986H44.589v5.23
			h5.104c0.828,0,1.5,0.672,1.5,1.5v16.24c0,0.617-0.378,1.171-0.952,1.396c-1.574,0.618-4.566,1.355-9.872,1.355
			c-14.583,0-23.642-9.468-23.642-24.709c0-15.187,9.434-24.621,24.62-24.621c5.147,0,9.282,0.762,12.953,2.391l1.659-5.356
			C53.239,21.206,48.003,19.883,41.525,19.883z"/>
	</g>
</g>
</svg>
