<?xml version="1.0" encoding="utf-8"?>
<!-- Generator: Adobe Illustrator 16.0.0, SVG Export Plug-In . SVG Version: 6.00 Build 0)  -->
<!DOCTYPE svg PUBLIC "-//W3C//DTD SVG 1.1//EN" "http://www.w3.org/Graphics/SVG/1.1/DTD/svg11.dtd">
<svg version="1.1" id="Layer_2" xmlns="http://www.w3.org/2000/svg" xmlns:xlink="http://www.w3.org/1999/xlink" x="0px" y="0px"
	 width="100px" height="100px" viewBox="0 0 100 100" enable-background="new 0 0 100 100" xml:space="preserve">
<g>
	<g>
		<path d="M26.231,80.548c-5.634,0-12.358-1.67-15.988-3.971c-1.312-0.829-1.89-2.43-1.404-3.893l1.891-5.699
			c0.324-0.988,1.117-1.79,2.119-2.138c0.979-0.333,2.065-0.211,2.93,0.313c3.063,1.864,7.051,2.933,10.945,2.933
			c2.456,0,8.167-0.546,8.167-5.6c0-2.355-0.615-4.523-8.175-7.206C15.352,51.362,9.821,45.418,9.821,37.118
			c0-10.401,8.776-17.666,21.342-17.666c7.612,0,12.221,2.106,13.849,3.013c1.45,0.81,2.101,2.519,1.546,4.064l-1.972,5.538
			c-0.34,0.97-1.105,1.727-2.099,2.07c-0.996,0.334-2.024,0.218-2.881-0.283c-0.809-0.478-3.814-2.025-8.69-2.025
			c-4.846,0-7.015,2.264-7.015,4.508c0,2.268,0.611,3.979,8.786,6.985c11.417,4.281,16.284,9.851,16.284,18.624
			C48.972,70.527,43.016,80.548,26.231,80.548z M13.976,67.66c-0.053,0-0.104,0.009-0.15,0.024
			c-0.112,0.039-0.212,0.135-0.247,0.241l-1.892,5.704c-0.051,0.151,0.016,0.321,0.161,0.413c3.153,1.998,9.337,3.505,14.384,3.505
			c14.57,0,19.74-8.404,19.74-15.602c0-7.512-4.018-11.944-14.328-15.812c-8.13-2.99-10.742-5.372-10.742-9.798
			c0-3.737,3.097-7.508,10.015-7.508c5.636,0,9.239,1.866,10.21,2.438c0.112,0.065,0.247,0.08,0.394,0.031
			c0.11-0.039,0.2-0.122,0.238-0.23l1.975-5.548c0.06-0.165-0.016-0.343-0.182-0.436c-1.421-0.791-5.479-2.633-12.388-2.633
			c-10.8,0-18.342,6.031-18.342,14.666c0,6.861,4.869,11.878,14.886,15.337c7.427,2.636,10.184,5.355,10.184,10.038
			c0,5.305-4.279,8.6-11.167,8.6c-4.429,0-8.986-1.228-12.503-3.368C14.153,67.684,14.065,67.66,13.976,67.66z M55.641,79.718h-5.47
			c-0.873,0-1.696-0.416-2.201-1.112c-0.527-0.73-0.641-1.661-0.307-2.491L70.069,21.86c0.404-1.003,1.388-1.658,2.502-1.658h5.636
			c0.876,0,1.699,0.418,2.203,1.117c0.525,0.731,0.638,1.662,0.303,2.491L58.141,78.065C57.742,79.062,56.758,79.718,55.641,79.718z
			 M50.66,76.718h4.792l22.265-53.516h-4.956L50.66,76.718z M83.737,78.886h-0.082c-4.236,0-7.432-3.232-7.432-7.52
			c0-4.289,3.266-7.523,7.596-7.523c4.283,0,7.513,3.234,7.513,7.523C91.332,75.653,88.067,78.886,83.737,78.886z M83.819,66.843
			c-2.663,0-4.596,1.902-4.596,4.523c0,2.619,1.864,4.52,4.432,4.52h0.082c2.705,0,4.595-1.858,4.595-4.52
			C88.332,68.703,86.477,66.843,83.819,66.843z"/>
	</g>
</g>
</svg>
