<?xml version="1.0" encoding="utf-8"?>
<!-- Generator: Adobe Illustrator 16.0.0, SVG Export Plug-In . SVG Version: 6.00 Build 0)  -->
<!DOCTYPE svg PUBLIC "-//W3C//DTD SVG 1.1//EN" "http://www.w3.org/Graphics/SVG/1.1/DTD/svg11.dtd">
<svg version="1.1" id="Layer_2" xmlns="http://www.w3.org/2000/svg" xmlns:xlink="http://www.w3.org/1999/xlink" x="0px" y="0px"
	 width="100px" height="100px" viewBox="0 0 100 100" enable-background="new 0 0 100 100" xml:space="preserve">
<g>
	<g>
		<path d="M31.102,84.187c-2.158,0-3.926-0.748-5.252-2.224c-1.313-1.456-1.98-3.599-1.98-6.365V45.455h-6.203
			c-1.93,0-3.5-1.57-3.5-3.5s1.57-3.5,3.5-3.5h6.203v-3.667h-6.203c-1.93,0-3.5-1.57-3.5-3.5s1.57-3.5,3.5-3.5h6.203v-3.25
			c0-3.085,0.738-5.337,2.194-6.693c1.443-1.348,3.731-2.031,6.8-2.031h17.215c4.984,0,8.499,0.369,11.395,1.197
			c3.022,0.839,5.014,2.35,6.714,3.856c2.019,1.787,3.576,4.008,4.627,6.6c0.043,0.105,0.084,0.213,0.123,0.321h9.397
			c1.93,0,3.5,1.57,3.5,3.5s-1.57,3.5-3.5,3.5h-7.991c0.029,0.488,0.044,0.952,0.044,1.408c0,0.746-0.031,1.494-0.096,2.259h8.043
			c1.93,0,3.5,1.57,3.5,3.5s-1.57,3.5-3.5,3.5h-9.656c-1.08,2.582-2.66,4.753-4.705,6.466c-4.411,3.689-9.93,5.334-17.895,5.334
			H38.289v18.253c0,2.798-0.683,4.964-2.029,6.438C34.9,83.433,33.165,84.187,31.102,84.187z M17.666,41.455
			c-0.275,0-0.5,0.225-0.5,0.5s0.225,0.5,0.5,0.5h7.703c0.828,0,1.5,0.672,1.5,1.5v31.643c0,2.002,0.407,3.468,1.21,4.357
			c0.756,0.841,1.716,1.231,3.022,1.231c1.22,0,2.155-0.402,2.943-1.265c0.825-0.903,1.244-2.389,1.244-4.414V55.755
			c0-0.828,0.672-1.5,1.5-1.5h13.289c7.211,0,12.137-1.43,15.97-4.635c1.886-1.58,3.296-3.655,4.189-6.168
			c0.212-0.598,0.778-0.997,1.413-0.997h10.684c0.275,0,0.5-0.225,0.5-0.5s-0.225-0.5-0.5-0.5h-9.721
			c-0.435,0-0.848-0.188-1.132-0.516c-0.285-0.328-0.414-0.764-0.354-1.193c0.174-1.237,0.259-2.398,0.259-3.55
			c0-0.828-0.056-1.698-0.174-2.738c-0.049-0.425,0.087-0.85,0.371-1.169c0.284-0.318,0.691-0.501,1.119-0.501h9.631
			c0.275,0,0.5-0.225,0.5-0.5s-0.225-0.5-0.5-0.5h-10.48c-0.651,0-1.228-0.42-1.428-1.039l-0.075-0.234
			c-0.099-0.313-0.196-0.624-0.317-0.922c-0.875-2.157-2.166-4.002-3.836-5.48c-1.701-1.508-3.22-2.57-5.538-3.214
			c-2.627-0.751-5.887-1.085-10.581-1.085H32.863c-2.251,0-3.895,0.424-4.754,1.226c-0.812,0.756-1.24,2.312-1.24,4.499v4.75
			c0,0.828-0.672,1.5-1.5,1.5h-7.703c-0.275,0-0.5,0.225-0.5,0.5s0.225,0.5,0.5,0.5h7.703c0.828,0,1.5,0.672,1.5,1.5v6.667
			c0,0.828-0.672,1.5-1.5,1.5H17.666z M46.826,49.134H36.789c-0.828,0-1.5-0.672-1.5-1.5v-3.679c0-0.828,0.672-1.5,1.5-1.5h22.766
			c0.605,0,1.152,0.364,1.385,0.924c0.232,0.559,0.106,1.203-0.32,1.633c-1.351,1.361-3.072,2.375-5.117,3.015
			C53.146,48.762,50.227,49.134,46.826,49.134z M38.289,46.134h8.537c2.588,0,4.841-0.228,6.717-0.679H38.289V46.134z
			 M61.848,41.455H36.789c-0.828,0-1.5-0.672-1.5-1.5v-6.667c0-0.828,0.672-1.5,1.5-1.5h25.125c0.69,0,1.291,0.471,1.456,1.141
			c0.275,1.116,0.415,2.307,0.415,3.538c0,1.39-0.165,2.696-0.491,3.885C63.115,41.003,62.523,41.455,61.848,41.455z M38.289,38.455
			h22.348c0.099-0.627,0.148-1.292,0.148-1.988c0-0.575-0.037-1.137-0.111-1.679H38.289V38.455z M59.982,30.788H36.789
			c-0.828,0-1.5-0.672-1.5-1.5v-3.897c0-0.828,0.672-1.5,1.5-1.5h10.037c6.754,0,11.224,1.205,13.664,3.684
			c0.254,0.271,0.461,0.522,0.665,0.779c0.359,0.45,0.429,1.066,0.179,1.586C61.084,30.458,60.559,30.788,59.982,30.788z
			 M38.289,27.788h16.552c-2.027-0.595-4.707-0.897-8.015-0.897h-8.537V27.788z"/>
	</g>
</g>
</svg>
