<?xml version="1.0" encoding="utf-8"?>
<!-- Generator: Adobe Illustrator 16.0.0, SVG Export Plug-In . SVG Version: 6.00 Build 0)  -->
<!DOCTYPE svg PUBLIC "-//W3C//DTD SVG 1.1//EN" "http://www.w3.org/Graphics/SVG/1.1/DTD/svg11.dtd">
<svg version="1.1" id="Layer_2" xmlns="http://www.w3.org/2000/svg" xmlns:xlink="http://www.w3.org/1999/xlink" x="0px" y="0px"
	 width="100px" height="100px" viewBox="0 0 100 100" enable-background="new 0 0 100 100" xml:space="preserve">
<g>
	<g>
		<g>
			<path d="M52.763,88.072H13.519c-1.445,0-2.621-1.176-2.621-2.622v-5.093c0-0.573,0.192-1.14,0.542-1.596L33.308,50.3
				c1.048-1.287,2.001-2.449,2.937-3.569H15.515c-1.445,0-2.621-1.176-2.621-2.622v-6.99c0-1.446,1.176-2.622,2.621-2.622h36.849
				c1.446,0,2.622,1.176,2.622,2.622v5.493c0,0.573-0.192,1.14-0.542,1.596L32.772,72.369c-0.813,1.056-1.727,2.232-2.731,3.469
				h22.722c1.446,0,2.623,1.176,2.623,2.622v6.99C55.386,86.896,54.209,88.072,52.763,88.072z M13.897,85.072h38.488v-6.234H26.827
				c-0.587,0-1.12-0.343-1.364-0.877s-0.154-1.161,0.23-1.605c1.797-2.074,3.385-4.104,4.701-5.815l21.591-28.058v-4.986H15.894
				v6.234h23.59c0.587,0,1.119,0.342,1.364,0.876c0.244,0.533,0.154,1.16-0.229,1.604c-1.639,1.898-3.168,3.752-4.959,5.95
				L13.897,80.486V85.072z"/>
		</g>
	</g>
	<g>
		<g>
			<path d="M74.183,88.072h-8.789c-1.445,0-2.621-1.176-2.621-2.622V57.967l-6.188,4.635c-0.787,0.588-1.719,0.898-2.696,0.898
				c-1.41,0-2.757-0.673-3.604-1.801c-0.721-0.963-1.023-2.148-0.854-3.338c0.171-1.19,0.795-2.243,1.757-2.963l11.585-8.677V14.55
				c0-1.446,1.176-2.622,2.621-2.622h8.789c1.446,0,2.622,1.176,2.622,2.622v21.662l5.098-3.817
				c0.787-0.588,1.719-0.897,2.696-0.897c1.41,0,2.758,0.673,3.604,1.8c0.721,0.963,1.023,2.148,0.854,3.338
				c-0.171,1.19-0.795,2.243-1.757,2.963l-10.494,7.86V85.45C76.805,86.896,75.629,88.072,74.183,88.072z M65.772,85.072h8.032
				V46.707c0-0.473,0.223-0.917,0.601-1.2l11.095-8.31c0.321-0.24,0.528-0.591,0.586-0.988c0.057-0.396-0.044-0.792-0.284-1.112
				c-0.48-0.639-1.454-0.785-2.103-0.3l-7.495,5.613c-0.455,0.342-1.063,0.394-1.57,0.142c-0.508-0.255-0.829-0.773-0.829-1.342
				V14.928h-8.032v32.545c0,0.473-0.223,0.917-0.601,1.2l-12.186,9.126c-0.321,0.24-0.528,0.591-0.586,0.988
				c-0.057,0.396,0.044,0.792,0.284,1.112c0.48,0.641,1.45,0.787,2.103,0.3l8.586-6.43c0.455-0.342,1.064-0.394,1.57-0.142
				c0.509,0.255,0.829,0.773,0.829,1.342V85.072z"/>
		</g>
	</g>
</g>
</svg>
