<?xml version="1.0" encoding="utf-8"?>
<!-- Generator: Adobe Illustrator 16.0.0, SVG Export Plug-In . SVG Version: 6.00 Build 0)  -->
<!DOCTYPE svg PUBLIC "-//W3C//DTD SVG 1.1//EN" "http://www.w3.org/Graphics/SVG/1.1/DTD/svg11.dtd">
<svg version="1.1" id="Layer_3" xmlns="http://www.w3.org/2000/svg" xmlns:xlink="http://www.w3.org/1999/xlink" x="0px" y="0px"
	 width="100px" height="100px" viewBox="0 0 100 100" enable-background="new 0 0 100 100" xml:space="preserve">
<g>
	<g>
		<path d="M23.835,88.832c-2.815,0-5.317-2.108-5.82-4.904c-0.378-2.106,0.359-5.01,5.995-6.919
			c1.503-0.789,2.854-1.699,4.015-2.705c1.164-1.006,2.16-2.198,2.965-3.548c0.81-1.362,1.443-2.965,1.881-4.762
			c0.446-1.83,0.673-3.979,0.673-6.389c0-1.583-0.169-3.175-0.501-4.734l-8.487-0.007c-0.089,0-0.178-0.008-0.265-0.024
			l-0.292-0.052c-2.569-0.299-4.499-2.451-4.499-5.031c0-2.64,1.98-4.817,4.607-5.065c0.048-0.005,0.072-0.012,0.144-0.007
			l5.94,0.012c-0.619-2.142-1.091-4.086-1.403-5.78c-0.41-2.21-0.619-4.131-0.619-5.706c0-3.351,0.591-6.438,1.757-9.177
			c1.17-2.75,2.838-5.106,4.956-7.004c2.097-1.878,4.639-3.343,7.554-4.354c2.88-1,6.104-1.507,9.582-1.507
			c3.209,0,6.204,0.43,8.902,1.279c2.735,0.859,5.142,2.151,7.153,3.839c2.011,1.686,3.661,3.8,4.906,6.286
			c1.239,2.482,2.014,5.358,2.304,8.549c0.003,0.035,0.005,0.071,0.006,0.106l0.002,0.103c0.008,0.095,0.015,0.258,0.005,0.353
			l-0.021,0.562c-0.34,3.248-2.985,5.628-6.161,5.628c-3.042,0-5.592-2.2-6.106-5.248c-0.101-0.34-0.161-0.662-0.175-0.938
			c-0.003-0.057-0.003-0.114,0.001-0.171l-0.008-0.094c-0.016-0.07-0.03-0.148-0.036-0.216c-0.615-6.824-4.011-9.867-11.009-9.867
			c-1.697,0-3.244,0.289-4.597,0.861c-1.349,0.57-2.504,1.359-3.435,2.346c-0.952,1.008-1.712,2.195-2.26,3.53
			c-0.543,1.327-0.818,2.751-0.818,4.23c0,3.261,0.781,7.43,2.323,12.394l14.255-0.009c0.065-0.004,0.131-0.005,0.196,0
			c0.02-0.001,0.042,0,0.06,0c0.202,0.006,0.408,0.03,0.633,0.08c2.361,0.433,4.112,2.533,4.112,4.983
			c0,2.172-1.403,4.098-3.501,4.817c-0.342,0.146-0.695,0.233-1.078,0.267c-0.042,0.004-0.085,0.006-0.127,0.006l-12.026,0.023
			c0.225,0.969,0.338,1.971,0.338,2.979c0,2.135-0.168,4.112-0.5,5.878c-0.341,1.804-0.903,3.5-1.674,5.041
			c-0.764,1.527-1.758,3.01-2.954,4.408c-0.183,0.213-0.37,0.427-0.566,0.642c0.812-0.068,1.631-0.104,2.44-0.104
			c1.298,0,2.964,0.178,5.096,0.545c2.032,0.35,4.106,0.713,6.219,1.095c2.104,0.38,4.074,0.729,5.881,1.039
			c2.288,0.442,3.169,0.508,3.494,0.508c3.468,0,6.89-0.843,10.17-2.505c0.048-0.024,0.098-0.047,0.147-0.065l0.17-0.064
			c0.325-0.146,0.667-0.246,1.069-0.31l0.301-0.068c0.096-0.031,0.196-0.052,0.299-0.063c3.019-0.322,5.826,1.732,6.479,4.637
			c0.713,3.182-1.295,6.363-4.486,7.146c-0.327,0.121-1.487,0.555-1.907,0.737c-0.288,0.115-6.082,2.394-11.562,2.394l-0.211-0.001
			c-0.767,0-1.749-0.127-2.999-0.386c-1.152-0.241-2.421-0.521-3.812-0.841c-1.389-0.318-2.835-0.671-4.337-1.054
			c-1.479-0.379-2.908-0.722-4.29-1.035c-1.39-0.317-2.668-0.586-3.801-0.8c-1.345-0.255-2.097-0.308-2.491-0.308
			c-4.937,0-10.618,1.448-16.885,4.306c-0.158,0.077-0.299,0.122-0.508,0.157C24.335,88.816,24.084,88.832,23.835,88.832z
			 M24.69,51.864l9.56,0.008c0.704,0,1.313,0.491,1.464,1.179l0.24,1.097c0.391,1.798,0.589,3.633,0.589,5.458
			c0,2.648-0.255,5.037-0.759,7.1c-0.508,2.085-1.254,3.965-2.218,5.586c-0.97,1.627-2.173,3.066-3.579,4.281
			c-1.363,1.182-2.944,2.242-4.697,3.152c-0.07,0.036-0.144,0.067-0.219,0.092c-2.043,0.68-4.414,1.852-4.104,3.58
			c0.262,1.459,1.604,2.537,3.076,2.428c6.63-3.001,12.666-4.512,17.985-4.512c0.771,0,1.769,0.117,3.048,0.36
			c1.169,0.22,2.485,0.496,3.91,0.821c1.405,0.319,2.862,0.669,4.366,1.055c1.477,0.376,2.897,0.723,4.266,1.035
			c1.37,0.315,2.619,0.592,3.753,0.828c1.03,0.214,1.836,0.323,2.394,0.323l0.211,0.001c4.905,0,10.18-2.074,10.402-2.163
			c0.484-0.211,2.103-0.813,2.103-0.813c0.062-0.023,0.125-0.042,0.189-0.057c1.643-0.373,2.687-1.981,2.326-3.587
			c-0.312-1.386-1.666-2.412-3.117-2.32l-0.476,0.104c-0.266,0.045-0.351,0.077-0.403,0.103c-0.037,0.018-0.075,0.034-0.113,0.049
			l-0.146,0.055c-3.682,1.853-7.534,2.792-11.452,2.792c-0.778,0-2.098-0.183-4.033-0.557c-1.783-0.306-3.761-0.656-5.875-1.038
			c-2.104-0.38-4.169-0.742-6.194-1.09c-1.962-0.338-3.462-0.502-4.587-0.502c-0.807,0-1.625,0.038-2.432,0.115l-3.646,0.347
			c-0.601,0.053-1.211-0.271-1.486-0.829c-0.276-0.559-0.178-1.229,0.246-1.686l2.492-2.683c0.237-0.254,0.459-0.506,0.672-0.754
			c1.038-1.212,1.896-2.49,2.55-3.798c0.646-1.293,1.12-2.725,1.409-4.256c0.297-1.582,0.448-3.373,0.448-5.322
			c0-0.815-0.096-1.624-0.284-2.402l-0.416-1.721c-0.108-0.446-0.005-0.918,0.278-1.279c0.284-0.361,0.718-0.572,1.177-0.573
			l13.848-0.027c0.054-0.008,0.089-0.021,0.125-0.037c0.052-0.023,0.104-0.044,0.158-0.062c0.917-0.3,1.509-1.081,1.509-1.991
			c0-1.003-0.718-1.862-1.707-2.044c-0.029,0.01-0.081-0.019-0.126-0.02l-0.047-0.002l-0.109,0.008L41.89,47.7
			c-0.656,0-1.236-0.427-1.432-1.054l-0.306-0.979c-1.647-5.285-2.482-9.78-2.482-13.36c0-1.871,0.351-3.677,1.042-5.368
			c0.689-1.679,1.649-3.176,2.854-4.452c1.217-1.29,2.714-2.316,4.448-3.05c1.725-0.729,3.664-1.098,5.765-1.098
			c8.495,0,13.2,4.2,13.986,12.485c0.008,0.035,0.016,0.07,0.021,0.105c0.009,0.049,0.016,0.099,0.02,0.148l0.027,0.342
			c0.005,0.059,0.006,0.118,0.004,0.177c0.011,0.05,0.029,0.128,0.061,0.226c0.025,0.077,0.044,0.156,0.056,0.236
			c0.249,1.656,1.548,2.813,3.158,2.813c1.636,0,3-1.227,3.173-2.852l0.016-0.463l-0.011-0.215c-0.26-2.797-0.931-5.297-1.994-7.429
			c-1.06-2.115-2.456-3.909-4.151-5.329c-1.708-1.433-3.769-2.535-6.126-3.276c-2.406-0.757-5.099-1.141-8.002-1.141
			c-3.143,0-6.035,0.451-8.598,1.341c-2.538,0.881-4.737,2.145-6.536,3.756c-1.789,1.602-3.201,3.602-4.198,5.943
			c-1.006,2.365-1.517,5.058-1.517,8.002c0,1.392,0.191,3.128,0.569,5.16c0.301,1.634,0.764,3.526,1.374,5.627l0.518,1.786
			c0.132,0.453,0.042,0.942-0.242,1.32c-0.283,0.376-0.728,0.598-1.198,0.598c-0.001,0-0.002,0-0.003,0l-7.859-0.017
			c-1.029,0.129-1.827,1.027-1.827,2.072c0,1.06,0.805,1.942,1.871,2.054c0.036,0.004,0.073,0.009,0.109,0.016L24.69,51.864z"/>
	</g>
</g>
</svg>
