<?xml version="1.0" encoding="utf-8"?>
<!-- Generator: Adobe Illustrator 16.0.0, SVG Export Plug-In . SVG Version: 6.00 Build 0)  -->
<!DOCTYPE svg PUBLIC "-//W3C//DTD SVG 1.1//EN" "http://www.w3.org/Graphics/SVG/1.1/DTD/svg11.dtd">
<svg version="1.1" id="Layer_2" xmlns="http://www.w3.org/2000/svg" xmlns:xlink="http://www.w3.org/1999/xlink" x="0px" y="0px"
	 width="100px" height="100px" viewBox="0 0 100 100" enable-background="new 0 0 100 100" xml:space="preserve">
<g>
	<g>
		<path d="M51.674,83.657c-14.083,0-23.184-9.302-23.184-23.697c0-14.863,9.18-25.244,22.324-25.244
			c14.64,0,19.835,12.026,19.835,22.324c0,1.738-0.102,3.094-0.311,4.144c-0.258,1.282-1.391,2.211-2.695,2.211l-26.112-0.075
			c1.307,7.714,7.463,8.918,11.172,8.918c5.196,0,8.208-0.939,10.471-1.858c0.717-0.293,1.568-0.262,2.27,0.09
			c0.712,0.362,1.229,1.006,1.426,1.769l1.375,5.323c0.333,1.299-0.311,2.641-1.529,3.192C63.78,82.078,58.79,83.657,51.674,83.657z
			 M50.815,37.716c-11.378,0-19.324,9.147-19.324,22.244c0,12.573,7.922,20.697,20.184,20.697c6.426,0,10.923-1.367,13.613-2.552
			l-1.25-4.841c-2.502,0.994-5.822,1.973-11.333,1.973c-3.138,0-13.446-0.96-14.358-13.313c-0.031-0.417,0.114-0.827,0.398-1.133
			c0.284-0.305,0.682-0.478,1.098-0.478c0.001,0,0.003,0,0.004,0l27.588,0.079c0.145-0.831,0.215-1.932,0.215-3.354
			C67.65,48.126,63.241,37.716,50.815,37.716z M84.816,82.799h-7.555c-1.516,0-2.749-1.232-2.749-2.748V38.494
			c0-1.516,1.233-2.748,2.749-2.748h7.555c1.516,0,2.749,1.232,2.749,2.748v41.557C87.564,81.566,86.332,82.799,84.816,82.799z
			 M77.512,79.799h7.052V38.746h-7.052V79.799z M21.708,82.799h-7.555c-1.515,0-2.748-1.232-2.748-2.748v-60.96
			c0-1.516,1.233-2.748,2.748-2.748h7.555c1.516,0,2.749,1.232,2.749,2.748v60.96C24.457,81.566,23.224,82.799,21.708,82.799z
			 M14.405,79.799h7.052V19.343h-7.052V79.799z M59.323,55.402H40.081c-0.449,0-0.874-0.201-1.159-0.548
			c-0.285-0.347-0.399-0.804-0.312-1.243c1.052-5.313,4.653-10.989,11.604-10.989c3,0,5.447,0.942,7.271,2.8
			c2.591,2.639,3.202,6.384,3.334,8.381c0.028,0.414-0.118,0.821-0.401,1.124C60.135,55.23,59.738,55.402,59.323,55.402z
			 M42.028,52.402H57.63c-0.282-1.556-0.908-3.476-2.285-4.879c-1.239-1.262-2.965-1.901-5.13-1.901
			C45.125,45.622,42.927,49.691,42.028,52.402z M80.953,33.602h-0.086c-4.259,0-7.471-3.286-7.471-7.644
			c0-4.307,3.285-7.554,7.642-7.554c4.308,0,7.557,3.247,7.557,7.554C88.595,30.315,85.31,33.602,80.953,33.602z M81.038,21.404
			c-2.69,0-4.642,1.915-4.642,4.554c0,2.69,1.88,4.644,4.471,4.644h0.086c2.69,0,4.642-1.953,4.642-4.644
			C85.595,23.319,83.678,21.404,81.038,21.404z"/>
	</g>
</g>
</svg>
