<?xml version="1.0" encoding="utf-8"?>
<!-- Generator: Adobe Illustrator 16.0.0, SVG Export Plug-In . SVG Version: 6.00 Build 0)  -->
<!DOCTYPE svg PUBLIC "-//W3C//DTD SVG 1.1//EN" "http://www.w3.org/Graphics/SVG/1.1/DTD/svg11.dtd">
<svg version="1.1" id="Layer_3" xmlns="http://www.w3.org/2000/svg" xmlns:xlink="http://www.w3.org/1999/xlink" x="0px" y="0px"
	 width="100px" height="100px" viewBox="0 0 100 100" enable-background="new 0 0 100 100" xml:space="preserve">
<g>
	<path d="M45.899,95.413h-6.566c-0.829,0-1.5-0.671-1.5-1.5V83.078c-8.042-2.177-13.168-7.833-13.168-14.66
		c0-7.807,5.669-13.694,13.187-13.694c4.756,0,7.596,2.207,7.596,5.904c0,3.261-2.337,4.746-4.508,4.746
		c-0.23,0-0.442-0.019-0.626-0.05c-0.438-0.073-0.795-0.17-1.141-0.268c-0.455-0.127-0.784-0.22-1.322-0.22
		c-0.702,0-2.566,0-2.566,3.411c0,3.066,4.154,6.629,9.509,6.629c5.313,0,11.033-3.028,11.033-9.678
		c0-4.527-2.98-8.413-8.859-11.547c-1.737-0.923-3.217-1.814-4.516-2.72c-0.091-0.043-0.177-0.095-0.254-0.154
		c-5.979-4.598-8.646-9.465-8.646-15.784c0-10.703,7.108-18.262,18.234-19.576V6.087c0-0.829,0.671-1.5,1.5-1.5h6.566
		c0.829,0,1.5,0.671,1.5,1.5v9.823c8.416,1.983,13.982,7.833,13.982,14.85c0,7.807-5.669,13.695-13.187,13.695
		c-4.756,0-7.596-2.207-7.596-5.904c0-3.261,2.337-4.747,4.509-4.747c0.229,0,0.44,0.019,0.625,0.049
		c0.438,0.073,0.795,0.171,1.141,0.268c0.455,0.127,0.784,0.22,1.322,0.22c0.768,0,2.566,0,2.566-3.411
		c0-3.066-4.154-6.63-9.51-6.63c-5.313,0-11.031,3.029-11.031,9.679c0,4.527,2.98,8.412,8.858,11.546
		c1.745,0.926,3.233,1.823,4.541,2.738c0.14,0.074,0.266,0.169,0.375,0.282c6.034,4.693,8.5,9.238,8.5,15.639
		c0,11.023-7.425,18.609-19.047,19.646v10.083C47.399,94.742,46.728,95.413,45.899,95.413z M40.833,92.413h3.566v-9.987
		c0-0.804,0.634-1.465,1.438-1.499c10.698-0.447,17.61-7.019,17.61-16.743c0-5.488-2.107-9.247-7.516-13.406
		c-0.008-0.006-0.016-0.012-0.023-0.019c-1.219-0.856-2.621-1.703-4.284-2.585c-6.934-3.699-10.449-8.474-10.449-14.195
		c0-8.711,7.273-12.679,14.031-12.679c6.664,0,12.51,4.5,12.51,9.63c0,4.014-2.081,6.411-5.566,6.411
		c-0.951,0-1.579-0.176-2.132-0.331c-0.25-0.07-0.507-0.145-0.823-0.197c-0.491-0.082-1.641,0.088-1.641,1.738
		c0,1.927,1.546,2.904,4.596,2.904c5.807,0,10.187-4.598,10.187-10.695c0-6.768-6.406-10.983-12.755-12.158
		c-0.711-0.132-1.227-0.752-1.227-1.475V7.587h-3.566v9.198c0,0.788-0.61,1.442-1.396,1.497
		c-10.386,0.72-16.837,7.124-16.837,16.713c0,5.309,2.187,9.289,7.303,13.273c0.056,0.029,0.11,0.062,0.161,0.097
		c1.233,0.873,2.659,1.736,4.361,2.64c6.935,3.698,10.449,8.474,10.449,14.196c0,8.71-7.274,12.678-14.033,12.678
		c-6.664,0-12.509-4.5-12.509-9.629c0-4.015,2.081-6.411,5.566-6.411c0.951,0,1.578,0.176,2.131,0.331
		c0.25,0.07,0.507,0.145,0.824,0.197c0.496,0.079,1.641-0.086,1.641-1.737c0-1.927-1.546-2.904-4.596-2.904
		c-5.807,0-10.187,4.597-10.187,10.694c0,5.691,4.707,10.409,11.992,12.02c0.687,0.152,1.176,0.761,1.176,1.465V92.413z"/>
</g>
</svg>
