<?xml version="1.0" encoding="utf-8"?>
<!-- Generator: Adobe Illustrator 16.0.0, SVG Export Plug-In . SVG Version: 6.00 Build 0)  -->
<!DOCTYPE svg PUBLIC "-//W3C//DTD SVG 1.1//EN" "http://www.w3.org/Graphics/SVG/1.1/DTD/svg11.dtd">
<svg version="1.1" id="Layer_2" xmlns="http://www.w3.org/2000/svg" xmlns:xlink="http://www.w3.org/1999/xlink" x="0px" y="0px"
	 width="100px" height="100px" viewBox="0 0 100 100" enable-background="new 0 0 100 100" xml:space="preserve">
<g>
	<g>
		<path d="M81.03,61.581c-5.842,0-8.02-7.105-8.02-11.584c0-2.344,0.487-4.415,1.447-6.157c1.277-2.489,3.576-3.882,6.455-3.882
			c5.918,0,8.019,5.792,8.019,10.752C88.931,55.725,86.862,61.581,81.03,61.581z M80.912,42.958c-1.771,0-3.015,0.749-3.806,2.29
			c-0.734,1.333-1.095,2.918-1.095,4.749c0,2.801,1.227,8.584,5.02,8.584c4.664,0,4.9-6.557,4.9-7.871
			C85.931,48.892,85.569,42.958,80.912,42.958z"/>
	</g>
	<g>
		<path d="M80.912,68.501c-10.285,0-16.426-8.316-16.426-22.246c0-7.475,1.659-13.278,5.072-17.741
			c3.006-4.291,7.407-6.745,14.234-7.907c2.486-0.384,4.988-0.817,6.606-1.407c0.934-0.339,2.021-0.179,2.817,0.413
			c0.808,0.598,1.26,1.56,1.205,2.57l-0.238,4.336c-0.066,1.205-0.842,2.248-1.975,2.658c-1.731,0.622-4.521,1.131-6.556,1.449
			c-3.28,0.506-5.555,1.421-7.135,2.902c1.12-0.285,2.281-0.432,3.463-0.432c9.114,0,15.237,6.911,15.237,17.197
			C97.218,61.354,90.817,68.501,80.912,68.501z M91.426,22.019c-1.758,0.641-4.131,1.082-7.152,1.549
			c-5.951,1.014-9.75,3.087-12.295,6.719c-3.035,3.971-4.492,9.178-4.492,15.969c0,12.052,5.019,19.246,13.426,19.246
			c8.332,0,13.306-5.685,13.306-15.207c0-8.757-4.689-14.197-12.237-14.197c-2.35,0-4.592,0.735-6.483,2.126l-4.125,3.034
			l1.836-4.78c0.508-1.323,1.103-2.472,1.767-3.414c2.068-2.963,5.22-4.631,10.217-5.401c2.692-0.42,4.823-0.884,5.998-1.307
			L91.426,22.019z"/>
	</g>
	<g>
		<path d="M10.95,79.61H5.782c-0.805,0-1.56-0.314-2.126-0.885C3.1,78.17,2.78,77.395,2.782,76.603l0.037-40.509
			c0.004-1.653,1.35-2.997,3-2.997h4.668c0.805,0,1.56,0.314,2.126,0.885c0.146,0.146,0.276,0.308,0.388,0.48
			c2.249-1.341,4.865-2.018,7.809-2.018c8.794,0,15.178,7.407,15.178,17.613c0,12.672-8.33,18.443-16.068,18.443
			c-2.144,0-4.167-0.419-5.97-1.226v9.335C13.95,78.265,12.604,79.61,10.95,79.61z M10.487,36.096l-4.668,0.001L5.782,76.607
			l5.17,0.003L10.95,61.699l2.392,1.77c1.796,1.329,4.071,2.032,6.578,2.032c6.294,0,13.068-4.833,13.068-15.443
			c0-8.468-5.122-14.613-12.178-14.613c-3.121,0-5.759,0.919-7.841,2.732l-2.495,2.174L10.487,36.096z"/>
	</g>
	<g>
		<path d="M39.099,80.976c-1.318,0-2.5-0.883-2.875-2.146l-1.306-4.393c-0.463-1.556,0.418-3.222,1.965-3.715
			c0.577-0.183,2.076-0.743,3.547-1.987c0.565-0.448,2.379-2.022,3.592-4.749c0.018-0.041,0.04-0.089,0.062-0.14
			c-0.022-0.065-0.049-0.141-0.081-0.227L33.405,37.214c-0.372-0.923-0.26-1.969,0.298-2.797c0.561-0.827,1.49-1.32,2.486-1.32
			h5.702c1.248,0,2.378,0.786,2.813,1.955l5.321,14.358l4.825-14.274c0.412-1.22,1.554-2.039,2.842-2.039h5.524
			c0.988,0,1.913,0.486,2.472,1.301c0.56,0.814,0.684,1.852,0.33,2.773l-7.84,20.493c-3.639,9.587-6.422,15.486-10.698,19.193
			c-3.497,3.089-6.889,3.896-7.845,4.07C39.448,80.961,39.272,80.976,39.099,80.976z M41.892,36.097h-5.703l10.615,26.449
			c0.24,0.656,0.306,0.928,0.336,1.079l0.074,0.371l-0.11,0.361c-0.062,0.203-0.237,0.612-0.334,0.832
			c-1.457,3.276-3.59,5.193-4.44,5.866c-1.846,1.563-3.79,2.288-4.538,2.525l1.308,4.395l0.011-0.001
			c0.751-0.137,3.469-0.791,6.395-3.375c3.806-3.299,6.403-8.872,9.87-18.004l7.842-20.498l-5.525-0.001l-5.701,16.865
			c-0.168,0.492-0.329,0.987-0.483,1.48l-1.394,4.456l-1.462-4.434c-0.157-0.476-0.316-0.949-0.475-1.41L41.892,36.097z"/>
	</g>
	<g>
		<path d="M19.029,61.403c-3.7,0-6.845-2.433-7.825-6.054l-0.029-0.126c-0.109-0.608-0.226-1.32-0.226-2.078v-4.93
			c0-0.744,0.194-1.547,0.363-2.163c0.975-3.788,4.224-6.45,7.894-6.45c5.877,0,8.555,5.542,8.555,10.691
			C27.762,57.043,24.334,61.403,19.029,61.403z M14.117,54.626c0.639,2.262,2.605,3.777,4.913,3.777
			c5.319,0,5.732-6.207,5.732-8.109c0-3.548-1.455-7.691-5.555-7.691c-2.301,0-4.354,1.736-4.995,4.222
			c-0.176,0.642-0.262,1.103-0.262,1.392v4.93C13.95,53.634,14.031,54.143,14.117,54.626z"/>
	</g>
</g>
</svg>
