<?xml version="1.0" encoding="utf-8"?>
<!-- Generator: Adobe Illustrator 16.0.0, SVG Export Plug-In . SVG Version: 6.00 Build 0)  -->
<!DOCTYPE svg PUBLIC "-//W3C//DTD SVG 1.1//EN" "http://www.w3.org/Graphics/SVG/1.1/DTD/svg11.dtd">
<svg version="1.1" id="Layer_2" xmlns="http://www.w3.org/2000/svg" xmlns:xlink="http://www.w3.org/1999/xlink" x="0px" y="0px"
	 width="100px" height="100px" viewBox="0 0 100 100" enable-background="new 0 0 100 100" xml:space="preserve">
<g>
	<g>
		<path d="M32.273,72.374h-3.292c-1.156,0-2.095-0.904-2.136-2.06l-0.215-5.783H10.174L9.96,70.316
			c-0.043,1.154-0.981,2.058-2.136,2.058H4.532c-1.167,0-2.106-0.914-2.137-2.081l-0.29-11.184
			c-0.029-1.163,0.892-2.146,2.053-2.191l1.248-0.049c0.936-1.772,1.845-3.674,2.455-5.694c1.165-3.95,1.708-8.126,1.708-13.133
			v-8.278c0-1.179,0.959-2.138,2.138-2.138h18.002c1.178,0,2.137,0.959,2.137,2.138v27.127l0.792,0.027
			c1.167,0.039,2.094,1.021,2.064,2.19l-0.291,11.184C34.377,71.461,33.439,72.374,32.273,72.374z M29.813,69.374h1.621l0.247-9.487
			l-1.386-0.047c-0.808-0.027-1.449-0.69-1.449-1.499V30.626H12.568v7.416c0,5.302-0.583,9.747-1.833,13.989
			c-0.776,2.575-1.945,4.894-3.092,7.017c-0.252,0.467-0.732,0.766-1.261,0.786l-1.255,0.049l0.246,9.491h1.621l0.237-6.398
			c0.03-0.807,0.692-1.444,1.499-1.444h19.347c0.807,0,1.469,0.638,1.499,1.444L29.813,69.374z M92.854,65.064
			c-2.847,0-4.994-2.23-4.994-5.188s2.168-5.188,5.042-5.188c2.847,0,4.994,2.23,4.994,5.188
			C97.896,62.883,95.775,65.064,92.854,65.064z M92.902,57.689c-1.222,0-2.042,0.879-2.042,2.188s0.801,2.188,1.994,2.188
			c1.26,0,2.042-0.838,2.042-2.188C94.896,58.568,94.095,57.689,92.902,57.689z M84.038,64.531h-4.212
			c-1.178,0-2.137-0.959-2.137-2.137v-8.466h-6.861v8.466c0,1.178-0.959,2.137-2.137,2.137h-4.212c-1.179,0-2.138-0.959-2.138-2.137
			V38.962c0-1.179,0.959-2.138,2.138-2.138h4.212c1.178,0,2.137,0.959,2.137,2.138v7.304h6.861v-7.304
			c0-1.179,0.959-2.138,2.137-2.138h4.212c1.178,0,2.137,0.959,2.137,2.138v23.433C86.175,63.572,85.216,64.531,84.038,64.531z
			 M80.688,61.531h2.487V39.824h-2.487v7.941c0,0.828-0.671,1.5-1.5,1.5h-9.861c-0.829,0-1.5-0.672-1.5-1.5v-7.941H65.34v21.707
			h2.487v-9.103c0-0.828,0.671-1.5,1.5-1.5h9.861c0.829,0,1.5,0.672,1.5,1.5V61.531z M57.648,64.531h-4.066
			c-1.178,0-2.137-0.959-2.137-2.137v-9.926c0-0.288,0-0.565,0.001-0.833c-1.047,1.719-2.134,3.563-3.252,5.46
			c-1.255,2.128-2.548,4.319-3.828,6.413c-0.393,0.641-1.074,1.022-1.824,1.022h-4.89c-1.178,0-2.137-0.959-2.137-2.137V38.962
			c0-1.179,0.959-2.138,2.137-2.138h4.019c1.179,0,2.138,0.959,2.138,2.138v9.877c0,0.222,0,0.438,0,0.648l7.023-11.631
			c0.388-0.638,1.088-1.032,1.83-1.032h4.986c1.179,0,2.137,0.959,2.137,2.138v23.433C59.785,63.572,58.827,64.531,57.648,64.531z
			 M54.444,61.531h2.341V39.824h-3.637l-7.066,11.7c-0.948,1.658-1.69,3.039-2.543,4.733c-0.319,0.63-1.036,0.951-1.716,0.777
			c-0.684-0.177-1.151-0.807-1.123-1.513c0.078-1.912,0.109-3.849,0.109-6.684v-9.015h-2.293v21.707h3.543
			c1.188-1.953,2.386-3.984,3.551-5.959c1.221-2.071,2.406-4.081,3.518-5.895c0.999-1.748,1.796-3.21,2.643-4.848
			c0.324-0.625,1.039-0.94,1.721-0.76c0.681,0.183,1.143,0.814,1.11,1.519c-0.102,2.205-0.157,3.954-0.157,6.88V61.531z
			 M24.858,59.771H12.133c-0.523,0-1.009-0.272-1.281-0.72c-0.272-0.447-0.292-1.004-0.051-1.469
			c0.908-1.757,1.614-3.476,2.101-5.107c1.238-3.924,1.863-8.316,1.863-13.078v-5.511c0-0.828,0.671-1.5,1.5-1.5h8.594
			c0.829,0,1.5,0.672,1.5,1.5v24.385C26.358,59.1,25.687,59.771,24.858,59.771z M14.509,56.771h8.849V35.387h-5.594v4.011
			c0,5.068-0.671,9.765-1.995,13.957C15.44,54.459,15.018,55.604,14.509,56.771z"/>
	</g>
</g>
</svg>
