<?xml version="1.0" encoding="utf-8"?>
<!-- Generator: Adobe Illustrator 16.0.0, SVG Export Plug-In . SVG Version: 6.00 Build 0)  -->
<!DOCTYPE svg PUBLIC "-//W3C//DTD SVG 1.1//EN" "http://www.w3.org/Graphics/SVG/1.1/DTD/svg11.dtd">
<svg version="1.1" id="Layer_2" xmlns="http://www.w3.org/2000/svg" xmlns:xlink="http://www.w3.org/1999/xlink" x="0px" y="0px"
	 width="100px" height="100px" viewBox="0 0 100 100" enable-background="new 0 0 100 100" xml:space="preserve">
<g>
	<g>
		<path d="M47.06,85.029c-6.181,0-13.527-1.907-17.467-4.535c-0.936-0.624-1.355-1.811-1.019-2.886l2.148-6.815
			c0.238-0.76,0.806-1.354,1.558-1.629c0.75-0.272,1.583-0.175,2.244,0.248c3.675,2.355,8.447,3.705,13.095,3.705
			c6.645,0,10.612-3.06,10.612-8.185c0-3.936-1.668-6.838-10.197-10.025C35.745,50.439,29.765,43.795,29.765,34.6
			c0-11.558,9.415-19.629,22.895-19.629c8.357,0,13.346,2.399,15.103,3.431c1.037,0.604,1.511,1.873,1.125,3.014l-2.241,6.627
			c-0.25,0.74-0.815,1.316-1.551,1.582c-0.73,0.263-1.546,0.174-2.2-0.227c-0.993-0.615-4.664-2.609-10.518-2.609
			c-6.866,0-9.303,3.706-9.303,6.879c0,3.758,1.627,6.176,10.877,9.757c12.331,4.867,17.588,11.104,17.588,20.855
			C71.542,73.852,65.13,85.029,47.06,85.029z M31.539,78.18c3.525,2.207,10.106,3.85,15.521,3.85
			c15.855,0,21.481-9.562,21.481-17.75c0-8.543-4.396-13.607-15.681-18.062c-8.289-3.209-12.785-6.161-12.785-12.551
			c0-4.758,3.85-9.879,12.303-9.879c5.923,0,9.974,1.857,11.604,2.769l1.944-5.748c-1.788-0.98-6.118-2.838-13.267-2.838
			c-11.713,0-19.895,6.838-19.895,16.629c0,7.781,5.334,13.503,16.307,17.492c7.303,2.73,12.159,5.956,12.159,12.841
			c0,6.794-5.343,11.185-13.612,11.185c-5,0-10.142-1.404-14.21-3.866L31.539,78.18z"/>
	</g>
</g>
</svg>
