<?xml version="1.0" encoding="utf-8"?>
<!-- Generator: Adobe Illustrator 16.0.0, SVG Export Plug-In . SVG Version: 6.00 Build 0)  -->
<!DOCTYPE svg PUBLIC "-//W3C//DTD SVG 1.1//EN" "http://www.w3.org/Graphics/SVG/1.1/DTD/svg11.dtd">
<svg version="1.1" id="Layer_2" xmlns="http://www.w3.org/2000/svg" xmlns:xlink="http://www.w3.org/1999/xlink" x="0px" y="0px"
	 width="100px" height="100px" viewBox="0 0 100 100" enable-background="new 0 0 100 100" xml:space="preserve">
<g>
	<g>
		<path d="M68.681,81.826c-1.952,0-3.545-0.501-4.737-1.488c-1.175-0.975-2.005-2.091-2.466-3.316
			c-0.441-1.171-1.072-3.21-1.875-6.059l-4.238-15.719H44.689L40.404,70.94c-0.779,2.781-1.404,4.797-1.861,6.001
			c-0.475,1.251-1.311,2.387-2.484,3.374c-1.209,1.017-2.759,1.511-4.739,1.511c-1.574,0-2.894-0.302-3.924-0.896
			c-1.042-0.602-1.862-1.428-2.507-2.526c-0.622-1.061-1.136-2.332-1.529-3.777c-0.389-1.43-0.736-2.755-1.04-3.974L18.51,55.244
			H5.575c-1.875,0-3.4-1.525-3.4-3.4s1.525-3.4,3.4-3.4h11.254l-1.138-4.602H5.575c-1.875,0-3.4-1.525-3.4-3.401
			c0-1.875,1.525-3.4,3.4-3.4h8.436l-1.834-7.419c-0.619-2.421-0.921-4.228-0.921-5.513c0-1.664,0.592-3.085,1.761-4.223
			c1.165-1.136,2.625-1.712,4.34-1.712c2.361,0,3.981,0.783,4.815,2.329c0.787,1.463,1.484,3.608,2.072,6.377l2.279,10.16h11.88
			l2.123-7.911c0.661-2.534,1.267-4.505,1.795-5.846c0.547-1.378,1.446-2.583,2.675-3.583c1.245-1.013,2.95-1.526,5.067-1.526
			c2.148,0,3.849,0.537,5.054,1.596c1.187,1.044,2.021,2.2,2.481,3.438c0.444,1.191,1.048,3.186,1.796,5.926l2.142,7.907h11.944
			l2.286-10.193c0.384-1.84,0.758-3.32,1.106-4.379c0.365-1.109,0.975-2.076,1.866-2.954c0.907-0.89,2.22-1.34,3.907-1.34
			c1.684,0,3.136,0.568,4.316,1.688c1.185,1.126,1.785,2.554,1.785,4.246c0,1.172-0.302,2.977-0.922,5.518l-1.833,7.414h8.435
			c1.875,0,3.4,1.525,3.4,3.4c0,1.876-1.525,3.401-3.4,3.401H84.31l-1.138,4.602h11.253c1.875,0,3.4,1.525,3.4,3.4
			s-1.525,3.4-3.4,3.4H81.491l-3.808,15.403c-0.692,2.769-1.276,4.826-1.734,6.119c-0.474,1.335-1.287,2.521-2.417,3.523
			C72.378,81.31,70.747,81.826,68.681,81.826z M43.544,52.244h12.97c0.678,0,1.272,0.455,1.448,1.109l4.533,16.812
			c0.775,2.751,1.379,4.707,1.791,5.8c0.275,0.732,0.804,1.426,1.572,2.063c0.639,0.529,1.589,0.798,2.823,0.798
			c1.293,0,2.283-0.271,2.861-0.781c0.745-0.662,1.277-1.43,1.58-2.281c0.426-1.203,0.982-3.168,1.65-5.841l4.089-16.539
			c0.166-0.669,0.766-1.14,1.456-1.14h14.109c0.221,0,0.4-0.18,0.4-0.4s-0.18-0.4-0.4-0.4H81.256c-0.461,0-0.897-0.212-1.181-0.575
			s-0.386-0.837-0.275-1.285l1.879-7.602c0.166-0.669,0.766-1.14,1.456-1.14h11.29c0.221,0,0.4-0.18,0.4-0.401
			c0-0.221-0.18-0.4-0.4-0.4H84.075c-0.461,0-0.897-0.212-1.181-0.575s-0.386-0.837-0.275-1.285l2.292-9.27
			c0.69-2.827,0.835-4.172,0.835-4.802c0-0.873-0.262-1.512-0.851-2.071c-0.629-0.597-1.323-0.863-2.25-0.863
			c-0.849,0-1.489,0.17-1.803,0.479c-0.548,0.54-0.905,1.099-1.12,1.753c-0.314,0.953-0.659,2.324-1.024,4.076l-2.554,11.387
			c-0.154,0.686-0.762,1.172-1.464,1.172H60.388c-0.677,0-1.271-0.454-1.448-1.107l-2.442-9.013
			c-0.723-2.651-1.299-4.559-1.712-5.667c-0.286-0.769-0.841-1.519-1.65-2.23c-0.632-0.555-1.695-0.849-3.074-0.849
			c-1.41,0-2.478,0.287-3.173,0.853c-0.826,0.673-1.425,1.467-1.779,2.36c-0.484,1.228-1.052,3.082-1.686,5.51l-2.424,9.032
			c-0.176,0.655-0.77,1.111-1.449,1.111H25.321c-0.702,0-1.31-0.486-1.464-1.172L21.312,27.52c-0.532-2.507-1.13-4.383-1.781-5.593
			c-0.1-0.186-0.406-0.753-2.175-0.753c-0.943,0-1.636,0.266-2.247,0.86c-0.591,0.576-0.854,1.215-0.854,2.074
			c0,0.699,0.144,2.096,0.831,4.781l2.297,9.29c0.111,0.448,0.009,0.922-0.275,1.285s-0.72,0.575-1.181,0.575H5.575
			c-0.221,0-0.4,0.18-0.4,0.4c0,0.222,0.18,0.401,0.4,0.401h11.291c0.69,0,1.291,0.471,1.456,1.14l1.879,7.602
			c0.111,0.448,0.009,0.922-0.275,1.285s-0.72,0.575-1.181,0.575H5.575c-0.221,0-0.4,0.18-0.4,0.4s0.18,0.4,0.4,0.4h14.11
			c0.69,0,1.291,0.471,1.456,1.14l4.09,16.545c0.299,1.196,0.64,2.502,1.023,3.909c0.324,1.191,0.734,2.216,1.222,3.047
			c0.38,0.647,0.832,1.107,1.42,1.447c0.56,0.323,1.398,0.494,2.424,0.494c1.244,0,2.162-0.264,2.808-0.807
			c0.777-0.653,1.319-1.375,1.61-2.143c0.425-1.12,1.022-3.051,1.774-5.736l4.584-16.792C42.275,52.696,42.868,52.244,43.544,52.244
			z M31.8,68.924c-0.011,0-0.021,0-0.032,0c-0.69-0.015-1.281-0.498-1.432-1.172l-3.069-13.68c-0.1-0.444,0.008-0.91,0.292-1.266
			s0.715-0.563,1.171-0.563h6.74c0.466,0,0.906,0.217,1.19,0.587c0.284,0.37,0.379,0.852,0.258,1.302l-3.671,13.68
			C33.072,68.469,32.477,68.924,31.8,68.924z M30.604,55.244l1.326,5.907l1.585-5.907H30.604z M68.207,68.901
			c-0.676,0-1.27-0.453-1.447-1.107l-3.7-13.657c-0.122-0.451-0.027-0.934,0.256-1.304c0.284-0.371,0.724-0.589,1.191-0.589h6.763
			c0.456,0,0.886,0.207,1.171,0.563s0.393,0.821,0.293,1.266l-3.063,13.657c-0.151,0.673-0.741,1.156-1.431,1.172
			C68.229,68.901,68.218,68.901,68.207,68.901z M66.468,55.244l1.602,5.914l1.327-5.914H66.468z M72.123,51.443h-8.645
			c-0.677,0-1.271-0.454-1.448-1.107l-2.06-7.602c-0.122-0.451-0.027-0.934,0.256-1.304c0.284-0.371,0.724-0.589,1.191-0.589h12.41
			c0.456,0,0.886,0.207,1.171,0.563s0.393,0.821,0.293,1.266l-1.705,7.602C73.433,50.957,72.825,51.443,72.123,51.443z
			 M64.625,48.443h6.297l1.032-4.602h-8.576L64.625,48.443z M55.489,51.443H44.582c-0.468,0-0.908-0.218-1.192-0.59
			c-0.284-0.371-0.378-0.854-0.255-1.306l2.075-7.602c0.178-0.652,0.771-1.104,1.447-1.104h6.782c0.678,0,1.272,0.455,1.448,1.109
			l2.05,7.602c0.122,0.451,0.026,0.933-0.257,1.303C56.396,51.227,55.956,51.443,55.489,51.443z M46.546,48.443h6.984l-1.241-4.602
			h-4.487L46.546,48.443z M36.492,51.443h-8.613c-0.702,0-1.31-0.486-1.464-1.172l-1.705-7.602c-0.1-0.444,0.008-0.91,0.293-1.266
			s0.715-0.563,1.171-0.563h12.358c0.466,0,0.906,0.217,1.19,0.587c0.284,0.37,0.379,0.852,0.258,1.302l-2.04,7.602
			C37.765,50.987,37.17,51.443,36.492,51.443z M29.079,48.443h6.262l1.235-4.602h-8.529L29.079,48.443z M52.414,40.04h-4.719
			c-0.468,0-0.909-0.218-1.192-0.59c-0.284-0.371-0.378-0.854-0.254-1.306l2.375-8.695c0.178-0.652,0.771-1.104,1.447-1.104
			c0.001,0,0.001,0,0.002,0c0.677,0.001,1.27,0.456,1.446,1.109l2.344,8.695c0.122,0.451,0.026,0.933-0.257,1.303
			C53.321,39.823,52.881,40.04,52.414,40.04z M49.66,37.04h0.796l-0.396-1.467L49.66,37.04z"/>
	</g>
</g>
</svg>
