<?xml version="1.0" encoding="utf-8"?>
<!-- Generator: Adobe Illustrator 16.0.0, SVG Export Plug-In . SVG Version: 6.00 Build 0)  -->
<!DOCTYPE svg PUBLIC "-//W3C//DTD SVG 1.1//EN" "http://www.w3.org/Graphics/SVG/1.1/DTD/svg11.dtd">
<svg version="1.1" id="Layer_2" xmlns="http://www.w3.org/2000/svg" xmlns:xlink="http://www.w3.org/1999/xlink" x="0px" y="0px"
	 width="100px" height="100px" viewBox="0 0 100 100" enable-background="new 0 0 100 100" xml:space="preserve">
<g>
	<g>
		<g>
			<path d="M71.038,85.583h-8.626c-1.278,0-2.429-0.808-2.862-2.011l-9.406-25.977h-9.799v24.941c0,1.68-1.365,3.046-3.043,3.046
				h-8.338c-1.679,0-3.044-1.366-3.044-3.046V17.514c0-1.675,1.362-3.041,3.036-3.045l16.003-0.052
				c9.715,0,16.11,1.868,20.743,6.058c3.917,3.457,6.081,8.619,6.081,14.523c0,7.822-2.424,13.282-8.319,18.603l10.426,27.87
				c0.347,0.941,0.215,1.985-0.349,2.8C72.971,85.093,72.035,85.583,71.038,85.583z M38.845,54.596h12.351
				c0.632,0,1.195,0.396,1.41,0.989l9.766,26.968l8.667,0.03c0.01,0,0.023-0.002,0.037-0.021L60.291,53.683
				c-0.221-0.59-0.049-1.255,0.43-1.664c5.802-4.971,8.063-9.743,8.063-17.021c0-5.031-1.804-9.395-5.08-12.287
				c-4.053-3.665-9.828-5.294-18.739-5.294l-15.999,0.052L28.92,82.537l8.382,0.046l0.043-26.487
				C37.345,55.268,38.017,54.596,38.845,54.596z M45.832,48.183h-6.987c-0.828,0-1.5-0.672-1.5-1.5V25.434
				c0-0.828,0.67-1.499,1.498-1.5l6.694-0.009c0.001,0,0.002,0,0.002,0c0.006,0,0.012,0,0.017,0
				c12.233,0.138,14.801,6.62,14.801,12.034C60.356,43.271,54.52,48.183,45.832,48.183z M40.345,45.183h5.487
				c7.108,0,11.524-3.534,11.524-9.224c0-5.986-3.868-8.942-11.824-9.034l-5.188,0.007V45.183z"/>
		</g>
	</g>
</g>
</svg>
