<?xml version="1.0" encoding="utf-8"?>
<!-- Generator: Adobe Illustrator 16.0.0, SVG Export Plug-In . SVG Version: 6.00 Build 0)  -->
<!DOCTYPE svg PUBLIC "-//W3C//DTD SVG 1.1//EN" "http://www.w3.org/Graphics/SVG/1.1/DTD/svg11.dtd">
<svg version="1.1" id="Layer_2" xmlns="http://www.w3.org/2000/svg" xmlns:xlink="http://www.w3.org/1999/xlink" x="0px" y="0px"
	 width="100px" height="100px" viewBox="0 0 100 100" enable-background="new 0 0 100 100" xml:space="preserve">
<g>
	<g>
		<path d="M66.25,84.139h-8.176c-0.578,0-1.139-0.237-1.538-0.65c-0.38-0.368-0.614-0.927-0.614-1.501L55.93,36.51
			c0-1.186,0.965-2.15,2.15-2.15h7.137c1.186,0,2.15,0.965,2.15,2.15v1.724c2.623-2.049,6.802-4.023,13.164-4.023
			c1.187,0,2.152,0.965,2.152,2.151v7.115c0,0.58-0.228,1.124-0.641,1.531c-0.378,0.387-0.937,0.621-1.512,0.621h-2.82
			c-4.71,0.117-7.992,3.27-8.968,8.648c-0.167,1.002-0.341,2.217-0.341,3.468v24.242C68.402,83.174,67.437,84.139,66.25,84.139z
			 M58.922,81.139h6.48V57.745c0-1.47,0.195-2.838,0.386-3.982c1.22-6.724,5.772-10.981,11.886-11.134h2.01v-5.405
			c-7.428,0.234-11.088,3.531-12.63,5.526c-0.392,0.507-1.064,0.706-1.671,0.502c-0.607-0.208-1.016-0.778-1.016-1.42v-4.473H58.93
			L58.922,81.139z M52,84.139h-7.188c-0.759,0-1.496-0.312-2.021-0.855L28.984,68.9v12.462c0,1.531-1.256,2.776-2.799,2.776h-6.07
			c-1.543,0-2.799-1.245-2.799-2.776V18.638c0-1.531,1.256-2.776,2.799-2.776h6.07c1.543,0,2.799,1.245,2.799,2.776v31.663
			l11.761-14.929c0.523-0.666,1.348-1.065,2.204-1.065h7.537c1.039,0,1.987,0.567,2.476,1.48c0.521,0.973,0.408,2.16-0.286,3.025
			L35.991,59.682l18.084,19.817c0.766,0.842,0.941,2.045,0.45,3.065C54.049,83.527,53.061,84.139,52,84.139z M44.892,81.139h6.618
			L32.911,60.757c-0.497-0.545-0.524-1.371-0.063-1.947l17.19-21.503h-6.997L28.663,55.558c-0.396,0.501-1.067,0.696-1.67,0.488
			c-0.604-0.209-1.009-0.778-1.009-1.417V18.861h-5.668v62.277h5.668V65.732c0-0.818,0.656-1.486,1.475-1.5l0.529-0.009
			c0.465,0.007,0.819,0.16,1.107,0.461L44.892,81.139z"/>
	</g>
</g>
</svg>
