<?xml version="1.0" encoding="utf-8"?>
<!-- Generator: Adobe Illustrator 16.0.0, SVG Export Plug-In . SVG Version: 6.00 Build 0)  -->
<!DOCTYPE svg PUBLIC "-//W3C//DTD SVG 1.1//EN" "http://www.w3.org/Graphics/SVG/1.1/DTD/svg11.dtd">
<svg version="1.1" id="Layer_2" xmlns="http://www.w3.org/2000/svg" xmlns:xlink="http://www.w3.org/1999/xlink" x="0px" y="0px"
	 width="100px" height="100px" viewBox="0 0 100 100" enable-background="new 0 0 100 100" xml:space="preserve">
<g>
	<g>
		<path d="M66.505,85.83c-1.333,0-2.613-0.268-3.802-0.795c-5.982-2.654-6.028-10.119-6.014-10.961l0-33.904h-9.852
			c1.124,35.18-22.274,41.57-23.285,41.828c-0.445,0.115-0.905,0.174-1.366,0.174c-2.512,0-4.702-1.701-5.325-4.138
			c-0.746-2.916,1.014-5.913,3.924-6.682c0.648-0.18,16.014-4.752,15.05-31.183H24.688c-3.033,0-5.5-2.467-5.5-5.5
			c0-3.032,2.467-5.5,5.5-5.5h51c3.033,0,5.5,2.468,5.5,5.5c0,3.033-2.467,5.5-5.5,5.5h-8v34c0,0.069,0.002,0.141,0.007,0.212
			c1.149-0.57,3.181-1.873,6.358-4.85c1.023-0.958,2.358-1.486,3.76-1.486c1.515,0,2.979,0.634,4.014,1.739
			c2.074,2.212,1.96,5.699-0.252,7.774C77.785,81.11,72.1,85.83,66.505,85.83z M45.272,37.17h12.916c0.829,0,1.5,0.672,1.5,1.5
			l0,35.43c-0.011,0.665,0.015,6.322,4.231,8.193c0.814,0.361,1.66,0.537,2.585,0.537c4.532,0,9.6-4.258,13.018-7.46
			c1.005-0.943,1.058-2.528,0.115-3.534c-0.912-0.972-2.559-1.027-3.534-0.114c-5.395,5.055-8.174,5.984-9.35,6.089
			c-0.589,0.057-1.164-0.253-1.45-0.777c-0.405-0.743-0.616-2.003-0.615-2.864V38.67c0-0.828,0.671-1.5,1.5-1.5h9.5
			c1.378,0,2.5-1.121,2.5-2.5s-1.122-2.5-2.5-2.5h-51c-1.378,0-2.5,1.121-2.5,2.5s1.122,2.5,2.5,2.5h12.577
			c0.795,0,1.452,0.621,1.498,1.415c1.711,30.069-16.422,35.449-17.195,35.663c-1.341,0.354-2.141,1.717-1.802,3.042
			c0.335,1.31,1.715,2.146,3.038,1.803c0.933-0.238,22.729-6.206,20.97-40.346c-0.021-0.41,0.127-0.812,0.411-1.11
			C44.468,37.339,44.861,37.17,45.272,37.17z M75.688,25.17h-51c-3.033,0-5.5-2.467-5.5-5.5c0-3.032,2.467-5.5,5.5-5.5h51
			c3.033,0,5.5,2.468,5.5,5.5C81.188,22.703,78.721,25.17,75.688,25.17z M24.688,17.17c-1.378,0-2.5,1.121-2.5,2.5
			s1.122,2.5,2.5,2.5h51c1.378,0,2.5-1.121,2.5-2.5s-1.122-2.5-2.5-2.5H24.688z"/>
	</g>
</g>
</svg>
