<?xml version="1.0" encoding="utf-8"?>
<!-- Generator: Adobe Illustrator 16.0.0, SVG Export Plug-In . SVG Version: 6.00 Build 0)  -->
<!DOCTYPE svg PUBLIC "-//W3C//DTD SVG 1.1//EN" "http://www.w3.org/Graphics/SVG/1.1/DTD/svg11.dtd">
<svg version="1.1" id="Layer_2" xmlns="http://www.w3.org/2000/svg" xmlns:xlink="http://www.w3.org/1999/xlink" x="0px" y="0px"
	 width="100px" height="100px" viewBox="0 0 100 100" enable-background="new 0 0 100 100" xml:space="preserve">
<g>
	<g>
		<path d="M45.579,97.666c-2.548,0-4.621-2.073-4.621-4.621V81.803h-9.317c-2.96,0-5.11-0.681-6.39-2.024
			c-1.277-1.338-1.926-3.485-1.926-6.382V23.742c0-2.957,0.665-5.12,1.975-6.432c1.31-1.311,3.443-1.975,6.341-1.975h9.317V6.955
			c0-2.548,2.073-4.621,4.621-4.621S50.2,4.407,50.2,6.955v8.381h0.902c3.14,0,5.91,0.197,8.233,0.587
			c2.33,0.396,4.449,1.165,6.3,2.286c1.562,0.931,2.974,2.135,4.188,3.574c1.212,1.441,2.149,3.054,2.785,4.794
			c0.636,1.742,0.959,3.607,0.959,5.546c0,6.507-3.218,11.374-9.566,14.474c8.417,2.836,12.676,8.271,12.676,16.165
			c0,3.718-0.966,7.114-2.871,10.093c-1.905,2.978-4.505,5.206-7.728,6.624c-2.053,0.858-4.406,1.461-7.019,1.804
			c-2.522,0.335-5.501,0.51-8.857,0.521v11.242C50.2,95.593,48.126,97.666,45.579,97.666z M31.641,18.336
			c-2.043,0-3.502,0.379-4.219,1.096c-0.5,0.5-1.097,1.654-1.097,4.311v49.654c0,2.069,0.379,3.561,1.097,4.312
			c0.672,0.706,2.17,1.095,4.218,1.095h10.817c0.829,0,1.5,0.672,1.5,1.5v12.742c0,0.894,0.727,1.621,1.621,1.621
			s1.621-0.728,1.621-1.621V80.303c0-0.828,0.671-1.5,1.5-1.5h1.185c3.353,0,6.307-0.166,8.78-0.495
			c2.352-0.308,4.446-0.842,6.229-1.586c2.646-1.165,4.803-3.013,6.383-5.483c1.591-2.488,2.398-5.341,2.398-8.477
			c0-6.781-3.519-11.061-11.075-13.467l-3.156-0.971c-0.591-0.182-1.01-0.708-1.055-1.325c-0.045-0.616,0.294-1.198,0.853-1.463
			l3.019-1.434c5.671-2.631,8.306-6.435,8.306-11.979c0-1.586-0.261-3.105-0.777-4.517c-0.515-1.41-1.276-2.719-2.262-3.891
			c-0.997-1.183-2.153-2.17-3.438-2.935c-1.537-0.932-3.301-1.568-5.254-1.9c-2.157-0.361-4.76-0.545-7.734-0.545H48.7
			c-0.829,0-1.5-0.672-1.5-1.5V6.955c0-0.894-0.727-1.621-1.621-1.621s-1.621,0.728-1.621,1.621v9.881c0,0.828-0.671,1.5-1.5,1.5
			H31.641z M49.344,74.346H48.7c-0.829,0-1.5-0.672-1.5-1.5V50.969c0-0.828,0.671-1.5,1.5-1.5h0.193
			c5.25,0,9.178,0.882,12.007,2.696c3.141,2.013,4.802,5.335,4.802,9.606C65.702,66.468,63.577,74.346,49.344,74.346z M50.2,52.489
			v18.846c8.297-0.203,12.502-3.418,12.502-9.563c0-3.29-1.119-5.605-3.42-7.081C57.173,53.339,54.194,52.615,50.2,52.489z
			 M42.458,74.346h-8.783c-0.829,0-1.5-0.672-1.5-1.5V50.969c0-0.828,0.671-1.5,1.5-1.5h8.783c0.829,0,1.5,0.672,1.5,1.5v21.877
			C43.958,73.674,43.286,74.346,42.458,74.346z M35.175,71.346h5.783V52.469h-5.783V71.346z M42.458,45.463h-8.783
			c-0.829,0-1.5-0.672-1.5-1.5v-19.67c0-0.828,0.671-1.5,1.5-1.5h8.783c0.829,0,1.5,0.672,1.5,1.5v19.67
			C43.958,44.791,43.286,45.463,42.458,45.463z M35.175,42.463h5.783v-16.67h-5.783V42.463z M48.7,45.439
			c-0.39,0-0.764-0.151-1.044-0.424c-0.292-0.282-0.456-0.671-0.456-1.076v-19.57c0-0.411,0.168-0.804,0.467-1.087
			c0.297-0.284,0.694-0.434,1.109-0.411c3.881,0.197,6.853,0.794,9.085,1.826c2.364,1.091,5.183,3.569,5.183,9.182
			c0,2.064-0.511,3.971-1.52,5.665c-1.236,2.282-3.202,3.966-5.654,4.816c-1.833,0.637-4.164,0.989-7.126,1.078
			C48.73,45.439,48.715,45.439,48.7,45.439z M50.2,25.975v16.39c1.917-0.136,3.46-0.412,4.687-0.838
			c1.759-0.61,3.114-1.775,4.03-3.464c0.758-1.276,1.127-2.666,1.127-4.184c0-3.277-1.125-5.39-3.44-6.458
			C55.019,26.688,52.915,26.212,50.2,25.975z"/>
	</g>
</g>
</svg>
