<?xml version="1.0" encoding="utf-8"?>
<!-- Generator: Adobe Illustrator 16.0.0, SVG Export Plug-In . SVG Version: 6.00 Build 0)  -->
<!DOCTYPE svg PUBLIC "-//W3C//DTD SVG 1.1//EN" "http://www.w3.org/Graphics/SVG/1.1/DTD/svg11.dtd">
<svg version="1.1" id="Layer_2" xmlns="http://www.w3.org/2000/svg" xmlns:xlink="http://www.w3.org/1999/xlink" x="0px" y="0px"
	 width="100px" height="100px" viewBox="0 0 100 100" enable-background="new 0 0 100 100" xml:space="preserve">
<g>
	<g>
		<path d="M80.488,79.902L80.488,79.902c-0.004,0-0.03,0-0.035,0c-1.037-0.009-2.009-0.422-2.738-1.163
			c-0.729-0.741-1.125-1.72-1.116-2.757l0.044-5.013c-6.482-1.329-9.918-5.793-10.221-13.286c0.042-2.31,1.761-3.984,4-3.984
			c1.096,0.009,2.084,0.427,2.826,1.175c0.745,0.752,1.149,1.746,1.14,2.801l-0.001,0.316c0.066,2.251,0.815,3.777,2.327,4.665
			L76.8,52.604c-1.147-0.386-2.172-0.776-3.059-1.166c-1.451-0.639-2.674-1.428-3.64-2.346c-1.006-0.959-1.749-2.138-2.208-3.505
			c-0.44-1.308-0.655-2.937-0.639-4.84c0.016-1.762,0.333-3.4,0.945-4.87c0.028-0.068,0.058-0.138,0.088-0.205
			c-0.038,0.036-0.078,0.072-0.118,0.108c-0.822,0.722-2.034,1.085-3.607,1.085h-7.155v30.456c0,1.889-0.44,3.323-1.31,4.264
			c-0.873,0.951-2.02,1.436-3.405,1.436c-1.404,0-2.564-0.488-3.45-1.45c-0.877-0.949-1.322-2.379-1.322-4.249V36.866h-6.641
			c-1.6,0-2.771-0.355-3.58-1.087c-0.159-0.145-0.303-0.297-0.431-0.46c-0.132,0.163-0.279,0.317-0.442,0.462
			c-0.822,0.722-2.034,1.085-3.607,1.085h-7.155v30.456c0,1.889-0.44,3.323-1.31,4.264c-0.873,0.951-2.02,1.436-3.405,1.436
			c-1.403,0-2.564-0.487-3.45-1.449c-0.877-0.951-1.323-2.381-1.323-4.25V36.866H9.936c-1.601,0-2.771-0.355-3.58-1.087
			c-0.811-0.734-1.222-1.71-1.222-2.9c0-1.237,0.429-2.231,1.276-2.955c0.822-0.707,2.009-1.066,3.525-1.066h23.283
			c1.599,0,2.818,0.373,3.626,1.107c0.157,0.143,0.3,0.294,0.427,0.455c0.142-0.178,0.303-0.343,0.482-0.496
			c0.822-0.707,2.009-1.066,3.525-1.066h23.283c1.599,0,2.819,0.373,3.626,1.107c0.818,0.741,1.233,1.723,1.233,2.914
			c0,0.324-0.031,0.632-0.093,0.924c0.447-0.649,0.962-1.248,1.542-1.792c1.149-1.08,2.544-1.932,4.146-2.532
			c0.611-0.232,1.277-0.421,1.988-0.563l0.042-4.966c0.019-2.125,1.763-3.853,3.887-3.853c1.07,0.008,2.042,0.42,2.771,1.16
			c0.729,0.741,1.126,1.721,1.117,2.758l-0.044,5.035c5.766,1.222,8.85,4.932,9.172,11.042l0.04,0.368
			c0.006,0.061,0.009,0.122,0.008,0.184c-0.041,2.185-1.8,3.896-4.005,3.896c-2.173-0.022-3.892-1.707-3.952-3.836l-0.007-0.127
			c-0.007-0.044-0.012-0.088-0.015-0.133c-0.091-1.378-0.509-2.367-1.313-3.04l-0.071,8.274c1.225,0.416,2.332,0.84,3.302,1.264
			c1.511,0.659,2.796,1.478,3.818,2.431c1.06,0.987,1.861,2.22,2.38,3.662c0.501,1.396,0.747,3.099,0.729,5.061
			c-0.017,1.854-0.352,3.605-0.999,5.208c-0.653,1.616-1.6,3.044-2.815,4.245c-1.212,1.197-2.688,2.152-4.384,2.84
			c-0.688,0.279-1.44,0.502-2.249,0.667l-0.043,4.992C84.355,78.174,82.612,79.902,80.488,79.902z M70.437,56.699
			c-0.622,0-1.005,0.365-1.016,0.952c0.261,6.401,3.1,9.787,8.932,10.566c0.75,0.1,1.308,0.743,1.302,1.499l-0.055,6.291
			c-0.002,0.236,0.088,0.459,0.255,0.629c0.167,0.169,0.388,0.264,0.624,0.266l0.009,1.5v-1.5c0.485,0,0.882-0.395,0.887-0.88
			l0.054-6.258c0.006-0.755,0.573-1.388,1.322-1.477c1.05-0.125,1.988-0.354,2.788-0.679c1.33-0.538,2.474-1.276,3.403-2.194
			c0.923-0.911,1.644-1.999,2.142-3.233c0.504-1.252,0.767-2.636,0.78-4.111c0.014-1.606-0.172-2.959-0.553-4.02
			c-0.355-0.987-0.895-1.823-1.603-2.482c-0.773-0.722-1.773-1.352-2.972-1.875c-1.149-0.502-2.517-1.008-4.068-1.503
			c-0.626-0.2-1.049-0.784-1.043-1.441l0.101-11.688c0.004-0.461,0.219-0.894,0.583-1.175c0.364-0.281,0.838-0.381,1.284-0.267
			c3.265,0.824,5.132,3.061,5.408,6.471c0.01,0.058,0.017,0.116,0.02,0.176l0.017,0.316c0.016,0.559,0.422,0.954,0.946,0.959
			c0.573,0,0.967-0.351,1.01-0.879l-0.035-0.335c-0.273-5.131-2.781-7.818-7.901-8.533c-0.746-0.104-1.299-0.745-1.292-1.498
			l0.055-6.306c0.002-0.235-0.088-0.458-0.255-0.628c-0.167-0.169-0.387-0.263-0.623-0.265l0,0c-0.495,0-0.893,0.395-0.897,0.879
			l-0.054,6.239c-0.006,0.759-0.579,1.394-1.333,1.478c-0.966,0.108-1.835,0.308-2.584,0.593c-1.235,0.462-2.293,1.104-3.151,1.91
			c-0.843,0.792-1.501,1.746-1.956,2.836c-0.461,1.109-0.702,2.368-0.714,3.741c-0.014,1.569,0.148,2.867,0.482,3.858
			c0.303,0.9,0.785,1.67,1.434,2.288c0.712,0.678,1.647,1.274,2.778,1.772c1.05,0.461,2.332,0.931,3.81,1.394
			c0.63,0.198,1.056,0.784,1.051,1.444l-0.114,13.289c-0.004,0.454-0.213,0.882-0.569,1.163c-0.355,0.281-0.818,0.39-1.262,0.287
			c-4.107-0.929-6.347-3.779-6.477-8.241l0.001-0.374c0.002-0.255-0.094-0.49-0.271-0.669
			C70.936,56.803,70.695,56.701,70.437,56.699L70.437,56.699z M41.279,31.857c-1.087,0-1.479,0.264-1.573,0.345
			c-0.098,0.084-0.228,0.194-0.228,0.677c0,0.428,0.111,0.564,0.235,0.677c0.158,0.143,0.664,0.311,1.566,0.311h8.141
			c0.829,0,1.5,0.672,1.5,1.5v31.956c0,1.431,0.331,2.002,0.528,2.216c0.221,0.24,0.54,0.483,1.245,0.483
			c0.678,0,0.986-0.236,1.199-0.468c0.157-0.17,0.516-0.722,0.516-2.231V35.366c0-0.828,0.671-1.5,1.5-1.5h8.655
			c0.915,0,1.438-0.173,1.624-0.336c0.126-0.111,0.236-0.242,0.236-0.651c0-0.431-0.114-0.569-0.25-0.693
			c-0.062-0.057-0.421-0.328-1.609-0.328H41.279z M9.936,31.857c-1.087,0-1.479,0.264-1.573,0.345
			c-0.098,0.084-0.228,0.194-0.228,0.677c0,0.428,0.111,0.564,0.235,0.677c0.158,0.143,0.664,0.311,1.566,0.311h8.141
			c0.829,0,1.5,0.672,1.5,1.5v31.956c0,1.431,0.331,2.002,0.528,2.216c0.221,0.239,0.541,0.483,1.245,0.483
			c0.678,0,0.986-0.236,1.199-0.468c0.157-0.17,0.516-0.722,0.516-2.231V35.366c0-0.828,0.671-1.5,1.5-1.5h8.655
			c0.915,0,1.438-0.173,1.624-0.336c0.126-0.111,0.236-0.242,0.236-0.651c0-0.431-0.114-0.569-0.25-0.693
			c-0.062-0.057-0.421-0.328-1.609-0.328H9.936z M82.97,66.46c-0.358,0-0.708-0.128-0.982-0.366
			c-0.333-0.288-0.522-0.707-0.518-1.146l0.102-11.836c0.004-0.486,0.244-0.94,0.643-1.219c0.399-0.277,0.909-0.344,1.365-0.18
			l0.72,0.262c1.321,0.489,2.391,1.012,3.172,1.55c0.958,0.66,1.624,1.453,1.982,2.358c0.311,0.78,0.464,1.713,0.454,2.77
			c-0.021,2.432-0.81,4.398-2.346,5.843c-1.083,1.015-2.55,1.669-4.365,1.947C83.122,66.454,83.045,66.46,82.97,66.46z
			 M84.553,55.322l-0.066,7.658c0.399-0.185,0.741-0.408,1.022-0.673c0.927-0.872,1.386-2.077,1.399-3.682
			c0.006-0.657-0.078-1.224-0.243-1.637c-0.134-0.34-0.443-0.684-0.895-0.995C85.524,55.825,85.138,55.595,84.553,55.322z
			 M78.364,46.732c-0.162,0-0.325-0.026-0.483-0.08c-0.26-0.088-0.51-0.175-0.737-0.257c-1.357-0.482-2.325-0.96-3.035-1.499
			c-0.886-0.668-1.45-1.464-1.674-2.362c-0.157-0.63-0.232-1.418-0.224-2.343c0.009-1.157,0.261-2.211,0.749-3.128
			c0.489-0.912,1.162-1.669,2.004-2.252c0.779-0.537,1.681-0.939,2.682-1.198c0.127-0.032,0.245-0.058,0.363-0.084l0.115-0.025
			c0.446-0.101,0.914,0.009,1.271,0.297c0.356,0.288,0.561,0.723,0.557,1.18l-0.088,10.265c-0.004,0.481-0.239,0.932-0.632,1.211
			C78.975,46.638,78.671,46.732,78.364,46.732z M76.934,37.111c-0.09,0.054-0.178,0.109-0.263,0.168
			c-0.445,0.309-0.804,0.712-1.063,1.196c-0.257,0.483-0.391,1.069-0.396,1.74c-0.008,0.84,0.069,1.33,0.135,1.594
			c0.052,0.208,0.255,0.455,0.573,0.695c0.237,0.18,0.559,0.364,0.963,0.554L76.934,37.111z"/>
	</g>
</g>
</svg>
