<?xml version="1.0" encoding="utf-8"?>
<!-- Generator: Adobe Illustrator 16.0.0, SVG Export Plug-In . SVG Version: 6.00 Build 0)  -->
<!DOCTYPE svg PUBLIC "-//W3C//DTD SVG 1.1//EN" "http://www.w3.org/Graphics/SVG/1.1/DTD/svg11.dtd">
<svg version="1.1" id="Layer_2" xmlns="http://www.w3.org/2000/svg" xmlns:xlink="http://www.w3.org/1999/xlink" x="0px" y="0px"
	 width="100px" height="100px" viewBox="0 0 100 100" enable-background="new 0 0 100 100" xml:space="preserve">
<g>
	<g>
		<path d="M41.709,86.402c-0.968,0-1.888-0.307-2.664-0.887l-0.064-0.042c-1.525-0.848-2.364-2.334-2.364-4.192V62.09l-4.018,3.638
			c-0.829,0.753-1.905,1.169-3.028,1.169c-1.272,0-2.492-0.541-3.348-1.484c-1.67-1.847-1.526-4.706,0.317-6.376l10.076-9.125V46.87
			l-4.66,4.221c-0.828,0.752-1.904,1.167-3.028,1.167c-1.271,0-2.491-0.54-3.346-1.482c-1.67-1.845-1.529-4.705,0.313-6.377
			l10.721-9.706V18.469c0-3.347,2.605-4.871,5.026-4.871c2.42,0,5.025,1.524,5.025,4.871v7.122l7.044-6.379
			c0.832-0.753,1.907-1.167,3.029-1.167c1.272,0,2.492,0.54,3.347,1.482c1.67,1.848,1.528,4.708-0.315,6.377L46.668,37.769v3.041
			l7.687-6.959c0.832-0.753,1.907-1.168,3.029-1.168c1.271,0,2.492,0.541,3.347,1.483c1.67,1.847,1.527,4.706-0.315,6.375
			L46.668,52.989v20.899c4.004-2.182,7.919-5.269,11.352-8.954c6.164-6.616,8.578-12.907,7.174-18.698
			c-0.377-1.546-0.08-3.039,0.837-4.203c0.996-1.27,2.663-2.059,4.349-2.059c1.758,0,3.866,0.948,4.513,3.609
			c3.01,12.412-4.479,22.785-9.21,27.864c-6.767,7.262-14.758,12.495-22.503,14.736C42.679,86.329,42.185,86.402,41.709,86.402z
			 M38.116,57.209c0.206,0,0.413,0.042,0.608,0.129c0.542,0.24,0.892,0.778,0.892,1.371v22.572c0,0.77,0.27,1.272,0.847,1.584
			c0.036,0.02,0.071,0.04,0.105,0.063l0.156,0.102c0.033,0.021,0.066,0.045,0.098,0.069c0.27,0.207,0.551,0.304,0.885,0.304h0.002
			c0.194,0,0.408-0.033,0.637-0.1c7.23-2.093,14.739-7.029,21.141-13.899c4.32-4.638,11.168-14.066,8.489-25.112
			c-0.087-0.359-0.319-1.316-1.597-1.316c-0.773,0-1.555,0.358-1.99,0.913c-0.35,0.443-0.441,0.979-0.28,1.64
			c1.657,6.834-0.999,14.051-7.894,21.452c-3.795,4.075-8.161,7.471-12.626,9.818l-1.724,0.905
			c-0.465,0.245-1.024,0.227-1.474-0.044c-0.449-0.272-0.724-0.759-0.724-1.284V52.324c0-0.424,0.179-0.827,0.493-1.112
			l14.24-12.895c0.618-0.56,0.665-1.519,0.105-2.138c-0.542-0.597-1.537-0.648-2.139-0.105l-10.193,9.229
			c-0.44,0.396-1.074,0.499-1.615,0.259c-0.542-0.24-0.892-0.778-0.892-1.371v-7.088c0-0.424,0.179-0.827,0.493-1.112l13.598-12.311
			c0.618-0.56,0.666-1.52,0.105-2.14c-0.542-0.597-1.539-0.649-2.139-0.104l-9.551,8.648c-0.44,0.396-1.074,0.499-1.615,0.259
			c-0.542-0.24-0.892-0.778-0.892-1.371V18.469c0-1.688-1.416-1.871-2.025-1.871s-2.026,0.183-2.026,1.871v16.889
			c0,0.424-0.179,0.827-0.493,1.112L27.91,46.622c-0.618,0.561-0.666,1.521-0.105,2.139c0.542,0.599,1.541,0.647,2.136,0.107
			l7.169-6.492c0.439-0.398,1.073-0.5,1.615-0.259c0.542,0.24,0.892,0.778,0.892,1.371v7.088c0,0.424-0.179,0.827-0.493,1.111
			L28.554,61.26c-0.619,0.561-0.667,1.52-0.107,2.139c0.543,0.598,1.538,0.652,2.137,0.106l6.526-5.908
			C37.391,57.342,37.751,57.209,38.116,57.209z"/>
	</g>
</g>
</svg>
