<?xml version="1.0" encoding="utf-8"?>
<!-- Generator: Adobe Illustrator 16.0.0, SVG Export Plug-In . SVG Version: 6.00 Build 0)  -->
<!DOCTYPE svg PUBLIC "-//W3C//DTD SVG 1.1//EN" "http://www.w3.org/Graphics/SVG/1.1/DTD/svg11.dtd">
<svg version="1.1" id="Layer_3" xmlns="http://www.w3.org/2000/svg" xmlns:xlink="http://www.w3.org/1999/xlink" x="0px" y="0px"
	 width="100px" height="100px" viewBox="0 0 100 100" enable-background="new 0 0 100 100" xml:space="preserve">
<g>
	<path d="M25.707,86.163c-2.666,0-5.035-1.997-5.512-4.644c-0.357-1.998,0.334-4.746,5.631-6.54
		c1.381-0.726,2.625-1.565,3.701-2.496c1.072-0.928,1.992-2.026,2.729-3.266c0.592-0.996,1.08-2.129,1.459-3.377h-7.148
		c-2.645,0-4.797-2.147-4.797-4.787s2.152-4.787,4.797-4.787h7.875c-0.068-0.55-0.162-1.096-0.273-1.636l-7.793-0.007
		c-0.088,0-0.176-0.008-0.262-0.023l-0.27-0.048c-2.438-0.284-4.27-2.328-4.27-4.778c0-2.505,1.881-4.573,4.373-4.81
		c0.047-0.005,0.09-0.021,0.145-0.007l5.373,0.011c-0.559-1.946-0.984-3.708-1.266-5.239c-0.383-2.059-0.578-3.849-0.578-5.319
		c0-3.125,0.553-6.006,1.641-8.562c1.094-2.568,2.65-4.769,4.629-6.54c1.961-1.756,4.334-3.124,7.053-4.065
		c2.68-0.932,5.686-1.405,8.93-1.405c2.994,0,5.787,0.401,8.299,1.192c2.551,0.803,4.797,2.009,6.676,3.583
		c1.879,1.574,3.42,3.549,4.582,5.871c1.158,2.317,1.881,5.001,2.15,7.978c0.004,0.035,0.006,0.069,0.006,0.104l0.004,0.103
		c0.008,0.077,0.01,0.165,0.006,0.252h0.002l-0.021,0.493c0.002,0.065,0,0.131-0.008,0.197c-0.318,2.984-2.82,5.234-5.822,5.234
		c-2.875,0-5.285-2.076-5.773-4.954c-0.096-0.319-0.152-0.623-0.168-0.885c-0.002-0.058-0.002-0.116,0.002-0.174l-0.006-0.06
		c-0.016-0.07-0.027-0.143-0.035-0.215c-0.564-6.268-3.684-9.063-10.113-9.063c-1.561,0-2.982,0.266-4.229,0.791
		c-1.236,0.523-2.297,1.248-3.15,2.153c-0.877,0.929-1.574,2.021-2.076,3.245c-0.5,1.219-0.752,2.527-0.752,3.888
		c0,2.995,0.715,6.829,2.127,11.398l13.16-0.007c0.059-0.003,0.115-0.003,0.174,0c0.027,0,0.057,0,0.082,0
		c0.188,0.007,0.379,0.031,0.59,0.077c2.238,0.409,3.9,2.403,3.9,4.73c0,2.061-1.328,3.888-3.316,4.574
		c-0.328,0.14-0.668,0.224-1.035,0.255c-0.041,0.003-0.082,0.005-0.123,0.005l-11.033,0.021c0.119,0.539,0.201,1.087,0.246,1.639
		h10.643c2.646,0,4.799,2.147,4.799,4.787s-2.152,4.787-4.799,4.787H44.932c-0.213,0.575-0.447,1.121-0.701,1.632
		c-0.715,1.428-1.643,2.813-2.76,4.115c-0.111,0.131-0.227,0.264-0.346,0.398c0.66-0.05,1.334-0.075,2.004-0.075
		c1.211,0,2.764,0.166,4.75,0.506c1.889,0.325,3.814,0.664,5.775,1.018c1.953,0.353,3.781,0.676,5.461,0.964
		c2.111,0.409,2.926,0.469,3.225,0.469c3.203,0,6.363-0.778,9.393-2.313c0.047-0.024,0.096-0.045,0.145-0.064l0.154-0.059
		c0.309-0.14,0.645-0.237,1.025-0.296l0.256-0.059c0.098-0.031,0.199-0.053,0.303-0.064c2.855-0.309,5.516,1.64,6.131,4.39
		c0.676,3.008-1.223,6.017-4.238,6.759c-0.311,0.115-1.373,0.512-1.76,0.681c-0.271,0.109-5.658,2.23-10.777,2.23h-0.189
		c-0.729,0-1.648-0.118-2.814-0.362c-1.068-0.222-2.248-0.482-3.541-0.78c-1.289-0.295-2.633-0.623-4.029-0.979
		c-1.371-0.35-2.697-0.669-3.98-0.961c-1.289-0.293-2.475-0.542-3.525-0.74c-1.246-0.235-1.934-0.285-2.291-0.285
		c-4.568,0-9.828,1.342-15.633,3.99c-0.156,0.079-0.301,0.119-0.471,0.149C26.18,86.147,25.943,86.163,25.707,86.163z
		 M26.566,59.265c-0.99,0-1.797,0.802-1.797,1.787s0.807,1.787,1.797,1.787h9.055c0.449,0,0.873,0.201,1.158,0.547
		c0.285,0.347,0.4,0.802,0.314,1.242l-0.039,0.199c-0.045,0.241-0.092,0.481-0.148,0.708c-0.475,1.941-1.17,3.696-2.07,5.213
		c-0.904,1.518-2.029,2.864-3.346,4.002c-1.279,1.107-2.754,2.097-4.385,2.943c-0.07,0.036-0.143,0.067-0.217,0.092
		c-1.857,0.616-4.014,1.672-3.74,3.202c0.232,1.294,1.434,2.254,2.727,2.168c6.17-2.79,11.779-4.192,16.725-4.192
		c0.717,0,1.648,0.11,2.848,0.336c1.086,0.205,2.309,0.462,3.635,0.764c1.307,0.297,2.658,0.623,4.057,0.979
		c1.371,0.351,2.691,0.672,3.959,0.962c1.271,0.292,2.432,0.548,3.482,0.767c0.947,0.198,1.689,0.298,2.201,0.298h0.189
		c4.551,0,9.418-1.917,9.623-1.999c0.449-0.197,1.957-0.757,1.957-0.757c0.063-0.023,0.125-0.042,0.189-0.056
		c1.469-0.333,2.4-1.769,2.078-3.201c-0.275-1.234-1.508-2.149-2.773-2.073l-0.432,0.096c-0.264,0.044-0.328,0.075-0.348,0.085
		c-0.039,0.018-0.076,0.035-0.115,0.05l-0.133,0.05c-3.432,1.726-7.023,2.601-10.678,2.601c-0.734,0-1.965-0.169-3.764-0.518
		c-1.656-0.284-3.492-0.609-5.455-0.963c-1.953-0.353-3.871-0.69-5.752-1.014c-1.814-0.311-3.201-0.462-4.24-0.462
		c-0.754,0-1.51,0.036-2.244,0.106l-3.389,0.32c-0.613,0.061-1.211-0.271-1.486-0.83c-0.275-0.558-0.178-1.229,0.246-1.685
		l2.316-2.49c0.219-0.234,0.422-0.464,0.615-0.691c0.963-1.123,1.754-2.301,2.357-3.509c0.334-0.667,0.627-1.417,0.873-2.228
		c0.193-0.632,0.775-1.064,1.436-1.064h13.006c0.992,0,1.799-0.802,1.799-1.787s-0.807-1.787-1.799-1.787H44.748
		c-0.4,0-0.785-0.161-1.066-0.446s-0.438-0.671-0.434-1.073l0.01-0.462c0-0.745-0.088-1.487-0.26-2.205l-0.387-1.596
		c-0.109-0.447-0.006-0.918,0.277-1.279s0.719-0.573,1.178-0.574l12.852-0.025c0.035-0.006,0.055-0.014,0.076-0.023
		c0.051-0.023,0.105-0.044,0.158-0.062c0.807-0.264,1.326-0.95,1.326-1.749c0-0.879-0.629-1.632-1.494-1.79v-0.019
		c-0.047,0.002-0.094,0.003-0.135,0l-0.016-0.001l-0.098,0.006L42.469,47.97c-0.656,0-1.236-0.427-1.432-1.053l-0.283-0.908
		c-1.533-4.923-2.309-9.107-2.309-12.437c0-1.752,0.328-3.443,0.975-5.025c0.643-1.566,1.541-2.968,2.672-4.166
		c1.141-1.21,2.543-2.171,4.164-2.858c1.619-0.682,3.434-1.027,5.396-1.027c7.951,0,12.354,3.93,13.092,11.682
		c0.006,0.028,0.012,0.056,0.018,0.084c0.01,0.053,0.018,0.107,0.021,0.161l0.025,0.316c0.004,0.055,0.006,0.109,0.004,0.164
		c0.01,0.043,0.025,0.106,0.051,0.185c0.025,0.078,0.043,0.157,0.057,0.238c0.223,1.484,1.385,2.52,2.826,2.52
		c1.436,0,2.635-1.053,2.828-2.464l0.023-0.514l-0.008-0.105c0-0.008-0.002-0.046-0.002-0.08c-0.238-2.583-0.857-4.889-1.84-6.856
		c-0.979-1.952-2.266-3.605-3.826-4.914c-1.576-1.32-3.479-2.337-5.652-3.021c-2.219-0.699-4.709-1.054-7.396-1.054
		c-2.908,0-5.582,0.417-7.945,1.239c-2.344,0.811-4.373,1.977-6.035,3.466c-1.648,1.476-2.951,3.32-3.871,5.48
		c-0.928,2.183-1.4,4.668-1.4,7.387c0,1.287,0.178,2.893,0.527,4.773c0.277,1.504,0.705,3.257,1.273,5.213l0.48,1.659
		c0.131,0.454,0.041,0.942-0.242,1.32c-0.283,0.376-0.729,0.598-1.199,0.598h-0.002l-7.291-0.016
		c-0.898,0.117-1.594,0.903-1.594,1.816c0,0.929,0.705,1.704,1.641,1.801c0.035,0.003,0.072,0.009,0.107,0.015l0.188,0.033
		l8.867,0.008c0.705,0,1.314,0.492,1.465,1.181l0.223,1.018c0.275,1.263,0.447,2.562,0.516,3.859c0.021,0.411-0.127,0.812-0.41,1.11
		c-0.283,0.298-0.678,0.467-1.088,0.467H26.566z"/>
</g>
</svg>
