<?xml version="1.0" encoding="utf-8"?>
<!-- Generator: Adobe Illustrator 16.0.0, SVG Export Plug-In . SVG Version: 6.00 Build 0)  -->
<!DOCTYPE svg PUBLIC "-//W3C//DTD SVG 1.1//EN" "http://www.w3.org/Graphics/SVG/1.1/DTD/svg11.dtd">
<svg version="1.1" id="Layer_2" xmlns="http://www.w3.org/2000/svg" xmlns:xlink="http://www.w3.org/1999/xlink" x="0px" y="0px"
	 width="100px" height="100px" viewBox="0 0 100 100" enable-background="new 0 0 100 100" xml:space="preserve">
<g>
	<g>
		<path d="M52.349,86.506c-5.824,0-10.73-1.886-14.188-5.452c-4.659-4.806-6.283-11.531-4.518-18.313H28.5c-2.757,0-5-2.243-5-5
			s2.243-5,5-5h10.585c0.493-0.544,1-1.056,1.512-1.525c0.458-0.421,0.921-0.825,1.382-1.213H28.5c-2.757,0-5-2.243-5-5s2.243-5,5-5
			h26.225c3.154-3.125,4.572-6.091,4.333-9.054c-0.242-2.986-2.602-5.791-5.736-6.822c-4.268-1.404-9.021-0.78-13.94,1.804
			c-0.768,0.403-1.566,0.607-2.375,0.607c-2.297,0-4.385-1.709-4.965-4.063c-0.536-2.173,0.388-4.183,2.412-5.246
			c4.585-2.408,9.791-3.734,14.66-3.734c7.363,0,13.425,3.036,17.068,8.549c2.929,4.431,3.698,10.214,2.01,15.093
			c-0.337,0.974-0.743,1.923-1.226,2.866H71.5c2.757,0,5,2.243,5,5s-2.243,5-5,5H58.421c-0.333,0.27-0.67,0.537-1.013,0.8
			c-0.827,0.634-1.712,1.278-2.623,1.938H71.5c2.757,0,5,2.243,5,5s-2.243,5-5,5H44.145c-1.508,2.728-1.705,5.441-0.628,8.479
			c1.545,4.356,5.752,5.271,9.01,5.271c3.202,0,6.928-0.884,9.967-2.364c0.737-0.358,1.502-0.54,2.273-0.54
			c2.349,0,4.534,1.796,5.084,4.177c0.496,2.152-0.465,4.108-2.51,5.105C62.523,85.214,57.199,86.506,52.349,86.506z M28.5,55.74
			c-1.103,0-2,0.897-2,2s0.897,2,2,2h7.178c0.488,0,0.946,0.238,1.228,0.638c0.28,0.399,0.35,0.911,0.184,1.37
			c-2.283,6.343-1.077,12.779,3.227,17.218c2.92,3.013,6.969,4.54,12.033,4.54c4.341,0,9.326-1.216,13.678-3.336
			c0.776-0.378,1.079-0.961,0.901-1.733c-0.211-0.91-1.076-1.852-2.161-1.852c-0.313,0-0.636,0.079-0.96,0.237
			c-3.428,1.67-7.646,2.667-11.28,2.667c-5.972,0-10.176-2.581-11.838-7.269c-1.46-4.117-1.011-8.082,1.336-11.783
			c0.274-0.435,0.753-0.697,1.267-0.697H71.5c1.103,0,2-0.897,2-2s-0.897-2-2-2H50.228c-0.643,0-1.213-0.409-1.42-1.017
			s-0.004-1.28,0.505-1.672c1.136-0.875,2.293-1.713,3.416-2.526c0.993-0.719,1.959-1.418,2.855-2.104
			c0.459-0.352,0.906-0.713,1.349-1.077c0.269-0.221,0.605-0.342,0.953-0.342H71.5c1.103,0,2-0.897,2-2s-0.897-2-2-2h-7.142
			c-0.551,0-1.057-0.302-1.319-0.785c-0.262-0.484-0.237-1.073,0.063-1.534c0.984-1.509,1.722-2.99,2.255-4.528
			c1.39-4.016,0.747-8.789-1.677-12.457c-3.936-5.953-10.093-7.203-14.566-7.203c-4.392,0-9.103,1.204-13.266,3.391
			c-0.797,0.418-1.098,1.048-0.895,1.871c0.216,0.876,1.043,1.781,2.053,1.781c0.317,0,0.647-0.089,0.98-0.264
			c5.645-2.966,11.23-3.653,16.272-1.997c4.316,1.419,7.446,5.208,7.789,9.43c0.328,4.056-1.531,7.942-5.684,11.884
			c-0.278,0.265-0.647,0.412-1.032,0.412H28.5c-1.103,0-2,0.897-2,2s0.897,2,2,2h17.838c0.647,0,1.223,0.416,1.425,1.031
			s-0.013,1.29-0.533,1.676c-1.406,1.037-3.052,2.291-4.604,3.716c-0.587,0.538-1.167,1.141-1.726,1.792
			c-0.285,0.332-0.701,0.523-1.139,0.523H28.5z"/>
	</g>
</g>
</svg>
