<?xml version="1.0" encoding="utf-8"?>
<!-- Generator: Adobe Illustrator 16.0.0, SVG Export Plug-In . SVG Version: 6.00 Build 0)  -->
<!DOCTYPE svg PUBLIC "-//W3C//DTD SVG 1.1//EN" "http://www.w3.org/Graphics/SVG/1.1/DTD/svg11.dtd">
<svg version="1.1" id="Layer_3" xmlns="http://www.w3.org/2000/svg" xmlns:xlink="http://www.w3.org/1999/xlink" x="0px" y="0px"
	 width="100px" height="100px" viewBox="0 0 100 100" enable-background="new 0 0 100 100" xml:space="preserve">
<g>
	<path d="M24.586,91.125c-2.664,0-4.831-2.167-4.831-4.83v-7.484c-9.063-1.602-13.911-7.633-14.416-17.948
		c0.026-2.881,2.174-4.987,4.996-4.987c2.719,0,4.932,2.202,4.932,4.908v0.449c0.145,3.812,1.583,6.224,4.488,7.428V53.251
		c-1.763-0.564-3.321-1.136-4.644-1.706c-1.968-0.848-3.627-1.897-4.931-3.12c-1.341-1.251-2.341-2.806-2.968-4.617
		c-0.608-1.756-0.917-3.96-0.917-6.553c0-2.382,0.409-4.596,1.216-6.581c0.81-1.994,2-3.75,3.538-5.222
		c1.532-1.465,3.402-2.63,5.557-3.46c0.963-0.372,2.018-0.664,3.148-0.871v-7.416c0-2.664,2.167-4.831,4.831-4.831
		s4.831,2.167,4.831,4.831v7.512c8.066,1.473,12.413,6.46,12.928,14.84l0.063,0.539c0.007,0.062,0.01,0.124,0.01,0.186
		c-0.029,2.747-2.225,4.898-4.999,4.898c-2.659,0-4.818-2.078-4.917-4.73l-0.014-0.239c-0.009-0.049-0.015-0.098-0.019-0.148
		c-0.192-2.569-1.174-4.284-3.052-5.277v13.071c1.874,0.608,3.545,1.225,4.982,1.838c2.055,0.875,3.8,1.964,5.186,3.235
		c1.421,1.301,2.5,2.934,3.208,4.851c0.691,1.873,1.042,4.176,1.042,6.844c0,2.511-0.434,4.886-1.289,7.059
		c-0.862,2.189-2.123,4.126-3.746,5.757c-1.62,1.628-3.601,2.936-5.888,3.885c-1.055,0.439-2.227,0.78-3.495,1.02v7.449
		C29.417,88.958,27.25,91.125,24.586,91.125z M10.335,58.875c-1.184,0-1.987,0.775-1.998,1.929
		c0.458,9.301,4.622,14.168,13.104,15.228c0.75,0.094,1.314,0.732,1.314,1.488v8.775c0,1.009,0.821,1.83,1.831,1.83
		s1.831-0.821,1.831-1.83v-8.73c0-0.755,0.561-1.392,1.31-1.488c1.514-0.194,2.871-0.538,4.034-1.021
		c1.921-0.797,3.574-1.884,4.913-3.23c1.333-1.339,2.37-2.934,3.081-4.74c0.717-1.821,1.08-3.827,1.08-5.96
		c0-2.313-0.288-4.265-0.856-5.805c-0.541-1.465-1.355-2.702-2.42-3.678c-1.135-1.041-2.594-1.944-4.336-2.687
		c-1.608-0.687-3.542-1.382-5.75-2.067c-0.627-0.195-1.055-0.775-1.055-1.433V29.146c0-0.46,0.211-0.895,0.573-1.18
		c0.363-0.284,0.837-0.386,1.282-0.278c4.303,1.049,6.78,3.977,7.174,8.473c0.013,0.066,0.021,0.133,0.026,0.202l0.026,0.443
		c0.04,1.066,0.883,1.875,1.92,1.875c1.119,0,1.946-0.772,1.997-1.849l-0.058-0.513c-0.46-7.462-4.155-11.356-11.634-12.331
		c-0.747-0.097-1.306-0.734-1.306-1.487v-8.796c0-1.01-0.821-1.831-1.831-1.831s-1.831,0.821-1.831,1.831v8.705
		c0,0.759-0.567,1.398-1.32,1.489c-1.389,0.168-2.65,0.468-3.748,0.892c-1.784,0.688-3.319,1.64-4.563,2.829
		c-1.229,1.177-2.183,2.584-2.833,4.184c-0.66,1.625-0.995,3.458-0.995,5.451c0,2.258,0.253,4.132,0.751,5.572
		c0.465,1.345,1.2,2.491,2.182,3.408c1.052,0.987,2.42,1.845,4.068,2.555c1.481,0.638,3.296,1.285,5.394,1.923
		c0.632,0.192,1.063,0.775,1.063,1.435v18.535c0,0.454-0.205,0.883-0.558,1.167c-0.354,0.285-0.816,0.395-1.259,0.298
		c-5.448-1.179-8.446-4.935-8.67-10.86l-0.001-0.506C12.267,59.731,11.4,58.875,10.335,58.875z M72.237,83.519
		c-4.519,0-6.912-0.478-10.271-1.483c-2.993-0.895-5.8-2.584-8.119-4.888c-2.086-2.071-3.639-4.762-4.613-7.997
		c-0.971-3.221-1.463-7.121-1.463-11.592V29.061c0-2.458,0.566-4.333,1.682-5.575c1.124-1.247,2.616-1.878,4.438-1.878
		c1.903,0,3.436,0.632,4.557,1.877c1.117,1.241,1.683,3.117,1.683,5.576v29.146c0,3.279,0.371,6.055,1.102,8.25
		c0.482,1.444,2.402,4.126,3.871,5.081c1.829,1.191,2.934,1.562,6.282,1.562c4.847,0,6.23-1.096,8.041-3.421
		c1.906-2.449,2.873-6.227,2.873-11.229V29.061c0-2.485,0.559-4.367,1.662-5.594c1.108-1.233,2.608-1.859,4.458-1.859
		c1.847,0,3.366,0.625,4.515,1.856c1.145,1.228,1.725,3.111,1.725,5.597V57.56c0,4.63-0.458,8.55-1.36,11.651
		c-0.909,3.116-2.644,5.888-5.158,8.24c-2.474,2.288-5.025,3.862-7.59,4.685C77.717,83.044,76.059,83.519,72.237,83.519z
		 M53.893,24.607c-0.976,0-1.656,0.273-2.208,0.885c-0.596,0.663-0.912,1.897-0.912,3.568V57.56c0,4.177,0.449,7.786,1.335,10.726
		c0.829,2.752,2.125,5.018,3.854,6.734c1.97,1.956,4.343,3.388,6.864,4.142c3.137,0.938,5.24,1.357,9.411,1.357
		c3.531,0,4.824-0.415,7.399-1.24c2.145-0.688,4.319-2.042,6.463-4.024c2.109-1.974,3.565-4.292,4.321-6.883
		c0.823-2.828,1.241-6.465,1.241-10.812V29.061c0-1.678-0.318-2.906-0.919-3.551c-0.582-0.624-1.297-0.902-2.321-0.902
		c-1.002,0-1.689,0.267-2.226,0.864c-0.584,0.65-0.893,1.892-0.893,3.589v29.389c0,5.685-1.18,10.083-3.506,13.072
		c-2.364,3.037-4.623,4.579-10.408,4.579c-3.749,0-5.45-0.44-7.918-2.047c-2.09-1.358-4.407-4.629-5.081-6.646
		c-0.833-2.503-1.256-5.598-1.256-9.2V29.061c0-1.671-0.315-2.905-0.913-3.569C55.669,24.88,54.952,24.607,53.893,24.607z
		 M27.917,72.344c-0.354,0-0.699-0.125-0.972-0.358c-0.335-0.285-0.528-0.703-0.528-1.142V54.33c0-0.486,0.235-0.942,0.632-1.223
		c0.397-0.281,0.906-0.352,1.363-0.193l-0.495,1.416l0.5-1.414c0.341,0.119,0.682,0.239,0.988,0.349
		c1.817,0.657,3.272,1.351,4.325,2.062c1.242,0.839,2.108,1.848,2.575,2.997c0.414,1.02,0.623,2.243,0.623,3.635
		c0,3.229-1.017,5.837-3.022,7.753c-1.407,1.344-3.341,2.224-5.75,2.613C28.077,72.337,27.997,72.344,27.917,72.344z M29.417,56.48
		v12.46c0.984-0.334,1.793-0.801,2.417-1.398c1.391-1.328,2.095-3.206,2.095-5.583c0-1.004-0.135-1.848-0.403-2.506
		c-0.239-0.587-0.735-1.139-1.475-1.64C31.396,57.371,30.514,56.924,29.417,56.48z M21.255,44.879c-0.16,0-0.32-0.025-0.476-0.077
		c-0.356-0.119-0.696-0.234-1.005-0.341c-1.82-0.628-3.162-1.274-4.102-1.974c-1.134-0.839-1.858-1.832-2.146-2.947
		c-0.213-0.828-0.321-1.877-0.321-3.119c0-1.523,0.316-2.902,0.94-4.099c0.627-1.197,1.498-2.19,2.588-2.956
		c1.024-0.72,2.214-1.264,3.537-1.616c0.169-0.046,0.349-0.086,0.529-0.125l0.129-0.028c0.445-0.101,0.909,0.008,1.265,0.293
		c0.355,0.285,0.562,0.715,0.562,1.17v14.318c0,0.482-0.232,0.936-0.624,1.217C21.873,44.782,21.565,44.879,21.255,44.879z
		 M19.755,31.096c-0.47,0.206-0.903,0.447-1.297,0.725c-0.697,0.489-1.253,1.125-1.654,1.891c-0.397,0.761-0.599,1.674-0.599,2.709
		c0,0.976,0.078,1.795,0.226,2.369c0.111,0.431,0.458,0.865,1.029,1.287c0.522,0.388,1.291,0.783,2.295,1.18V31.096z"/>
</g>
</svg>
