<?xml version="1.0" encoding="utf-8"?>
<!-- Generator: Adobe Illustrator 16.0.0, SVG Export Plug-In . SVG Version: 6.00 Build 0)  -->
<!DOCTYPE svg PUBLIC "-//W3C//DTD SVG 1.1//EN" "http://www.w3.org/Graphics/SVG/1.1/DTD/svg11.dtd">
<svg version="1.1" id="Layer_3" xmlns="http://www.w3.org/2000/svg" xmlns:xlink="http://www.w3.org/1999/xlink" x="0px" y="0px"
	 width="100px" height="100px" viewBox="0 0 100 100" enable-background="new 0 0 100 100" xml:space="preserve">
<g>
	<g>
		<path d="M73.223,76.569c-0.642,0-1.275-0.01-1.931-0.029l-12.284-0.036c-0.699,0-1.362-0.273-1.86-0.77
			c-0.504-0.502-0.782-1.169-0.782-1.879V25.856c0-1.46,1.188-2.647,2.648-2.647l14.902-0.002c6.899,0,23.057,0,23.455,14.283
			c0.122,4.341-1.808,8.012-5.477,10.52c3.512,2.361,5.315,6.348,5.367,11.884c0.04,4.235-1.305,7.761-3.997,10.478
			C89.189,74.484,82.447,76.569,73.223,76.569z M59.365,73.506l11.974,0.035c0.666,0.019,1.271,0.028,1.883,0.028
			c8.394,0,14.42-1.786,17.91-5.309c2.108-2.127,3.16-4.933,3.128-8.338c-0.05-5.324-1.792-8.57-5.481-10.214l-0.616-0.274
			c-0.528-0.235-0.874-0.753-0.889-1.331s0.304-1.114,0.819-1.376l0.601-0.306c3.876-1.968,5.786-4.945,5.677-8.848
			c-0.225-8.073-6.151-11.366-20.456-11.366l-14.551,0.002V73.506z M78.246,67.91c-0.246,0-0.415-0.007-0.623-0.018h-9.589
			c-0.828,0-1.5-0.672-1.5-1.5V54.415c0-0.399,0.159-0.782,0.442-1.063c0.281-0.28,0.662-0.437,1.058-0.437c0.002,0,0.005,0,0.007,0
			l9.779,0.048l0.123-0.002c5.145,0,8.456,2.852,8.456,7.266c0.041,2.269-0.596,4.102-1.893,5.422
			C82.504,67.69,79.461,67.91,78.246,67.91z M69.535,64.893l8.161,0.001c0.231,0.009,0.361,0.016,0.55,0.016
			c0.653,0,2.879-0.098,4.121-1.363c0.711-0.725,1.059-1.833,1.033-3.294c0-3.876-3.802-4.292-5.437-4.292l-0.13,0.002l-8.299-0.041
			V64.893z M77.909,45.687c-0.094,0-0.189-0.003-0.309-0.008l-9.565,0c-0.829,0-1.5-0.671-1.5-1.5v-11.95
			c0-0.398,0.158-0.78,0.44-1.062c0.282-0.282,0.623-0.441,1.063-0.438l9.997,0.02c5.081,0,8.365,2.852,8.365,7.266
			c0.041,2.268-0.596,4.101-1.891,5.421c-1.864,1.897-4.119,2.072-5.765,2.199l-0.422,0.033
			C78.166,45.681,78.038,45.687,77.909,45.687z M69.535,42.679l8.374,0.008c0.049,0,0.098-0.003,0.163-0.009l0.438-0.035
			c1.434-0.111,2.784-0.215,3.859-1.31c0.71-0.724,1.058-1.833,1.032-3.293c0-3.876-3.754-4.292-5.368-4.292l-8.497-0.017V42.679z"
			/>
	</g>
	<g>
		<path d="M6.154,76.793c-1.324,0-2.454-0.989-2.629-2.301l-0.878-6.743c-0.182-1.413,0.771-2.709,2.171-2.955
			c1.572-0.277,2.836-0.87,3.39-1.333c3.399-2.5,3.984-7.921,3.984-18.41V26.014c0-1.462,1.189-2.652,2.651-2.652h32.801
			c1.462,0,2.651,1.19,2.651,2.652v48.125c0,1.461-1.189,2.65-2.651,2.65H39.15c-1.462,0-2.651-1.189-2.651-2.65V35.402H25.597
			v9.648c0,14.02-1.449,23.667-8.648,28.406C14.026,75.764,10.693,76.793,6.154,76.793z M5.664,67.687l0.795,6.104
			c3.731-0.042,6.339-0.864,8.677-2.726c0.037-0.03,0.075-0.058,0.115-0.083c6.117-3.986,7.345-12.877,7.345-25.932V33.902
			c0-0.829,0.671-1.5,1.5-1.5h13.902c0.829,0,1.5,0.671,1.5,1.5v39.887h7.796V26.361H15.191v18.689
			c0,11.517-0.768,17.563-5.133,20.77C9.107,66.619,7.459,67.325,5.664,67.687z"/>
	</g>
</g>
</svg>
