<?xml version="1.0" encoding="utf-8"?>
<!-- Generator: Adobe Illustrator 16.0.0, SVG Export Plug-In . SVG Version: 6.00 Build 0)  -->
<!DOCTYPE svg PUBLIC "-//W3C//DTD SVG 1.1//EN" "http://www.w3.org/Graphics/SVG/1.1/DTD/svg11.dtd">
<svg version="1.1" id="Layer_3" xmlns="http://www.w3.org/2000/svg" xmlns:xlink="http://www.w3.org/1999/xlink" x="0px" y="0px"
	 width="100px" height="100px" viewBox="0 0 100 100" enable-background="new 0 0 100 100" xml:space="preserve">
<g>
	<g>
		<path d="M69.881,79.027c-4.502,0-8.941-1.092-12.178-2.996l-0.578-0.342c-0.768-0.446-1.125-1.395-0.84-2.25l2.285-6.962
			c0.195-0.568,0.616-0.998,1.162-1.2c0.653-0.226,1.229-0.122,1.72,0.208l0.883,0.577c1.715,1.123,4.857,2.33,7.705,2.33
			c1.762,0,4.719-0.386,4.719-2.973c0-1.425-0.394-2.661-5.352-4.491c-9.869-3.521-11.943-9.252-11.943-13.438
			c0-8.245,6.574-14.004,15.986-14.004c3.866,0,7.918,1.033,10.838,2.762l0.577,0.342c0.777,0.464,1.126,1.418,0.833,2.27
			l-2.303,6.701c-0.195,0.566-0.629,0.999-1.191,1.189c-0.519,0.178-1.142,0.114-1.627-0.186l-0.894-0.563
			c-0.855-0.543-3.179-1.8-6.392-1.8c-1.701,0-3.688,0.653-3.688,2.494c0,1.112,0.385,1.987,5.536,3.948
			c8.077,3.076,11.839,7.569,11.839,14.142C86.979,73.437,80.267,79.027,69.881,79.027z M59.405,73.55
			c2.772,1.575,6.577,2.477,10.476,2.477c8.696,0,14.098-4.308,14.098-11.242c0-5.303-2.963-8.694-9.907-11.338
			c-5.06-1.926-7.468-3.428-7.468-6.751c0-3.235,2.75-5.494,6.688-5.494c3.688,0,6.462,1.347,7.712,2.091l1.57-4.57
			c-2.463-1.402-5.855-2.235-9.124-2.235c-7.646,0-12.986,4.525-12.986,11.004c0,4.62,3.447,8.292,9.967,10.619
			c4.53,1.672,7.328,3.476,7.328,7.311c0,2.887-2.028,5.973-7.719,5.973c-3.547,0-7.022-1.381-9.061-2.637L59.405,73.55z"/>
	</g>
	<g>
		<path d="M36.344,45.654c-0.112,0-0.225-0.003-0.367-0.009l-0.022-0.001l-12.614,0.002V28.341l13.132,0.026
			c4.797,0,9.64,2.605,9.64,8.426c0.047,2.607-0.693,4.721-2.2,6.257c-2.163,2.204-4.744,2.402-6.629,2.547l-0.466,0.037
			C36.631,45.649,36.488,45.654,36.344,45.654z M36.225,42.651l0.12,0.003c0.071,0,0.141-0.003,0.234-0.011l0.473-0.037
			c1.723-0.132,3.346-0.257,4.721-1.657c0.922-0.94,1.374-2.33,1.341-4.129c0-5.191-5.533-5.453-6.643-5.453l-10.129-0.021v11.299
			l9.855-0.001L36.225,42.651z"/>
	</g>
	<g>
		<path d="M31.115,79.027c-0.705,0-1.404-0.012-2.151-0.032l-13.671-0.039c-0.6,0-1.167-0.233-1.594-0.656
			c-0.439-0.442-0.677-1.016-0.677-1.623V23.254c0-1.256,1.022-2.277,2.279-2.277l16.585-0.004c8.119,0,25.011,0,25.437,15.249
			c0.137,4.924-2.227,9.039-6.687,11.701c4.297,2.408,6.504,6.849,6.563,13.222c0.043,4.529-1.389,8.292-4.255,11.185
			C48.542,76.774,41.197,79.027,31.115,79.027z M16.021,75.959l12.987,0.037c0.755,0.02,1.429,0.031,2.107,0.031
			c9.252,0,15.879-1.955,19.698-5.81c2.282-2.303,3.421-5.346,3.386-9.045c-0.053-5.782-1.929-9.299-5.903-11.07l-4.518-2.025
			l4.413-2.23c4.187-2.125,6.25-5.336,6.133-9.541c-0.285-10.236-9.176-12.333-22.437-12.333l-15.865,0.004V75.959z"/>
	</g>
	<g>
		<path d="M36.706,70.391c-0.249,0-0.429-0.006-0.656-0.018l-12.709-0.002V53.028L36.4,53.092c4.831,0,9.712,2.604,9.712,8.424
			c0.047,2.608-0.693,4.722-2.201,6.256C41.591,70.135,38.1,70.391,36.706,70.391z M26.341,67.372l9.782,0.003
			c0.249,0.01,0.389,0.016,0.583,0.016c0.792,0,3.498-0.124,5.065-1.721c0.922-0.939,1.374-2.327,1.341-4.127
			c0-5.189-5.598-5.451-6.72-5.451l-10.052-0.049V67.372z"/>
	</g>
</g>
</svg>
