<?xml version="1.0" encoding="utf-8"?>
<!-- Generator: Adobe Illustrator 16.0.0, SVG Export Plug-In . SVG Version: 6.00 Build 0)  -->
<!DOCTYPE svg PUBLIC "-//W3C//DTD SVG 1.1//EN" "http://www.w3.org/Graphics/SVG/1.1/DTD/svg11.dtd">
<svg version="1.1" id="Layer_3" xmlns="http://www.w3.org/2000/svg" xmlns:xlink="http://www.w3.org/1999/xlink" x="0px" y="0px"
	 width="100px" height="100px" viewBox="0 0 100 100" enable-background="new 0 0 100 100" xml:space="preserve">
<g>
	<path d="M65.423,93.877H25.962c-2.063,0-3.742-1.679-3.742-3.742s1.679-3.742,3.742-3.742h39.461c2.063,0,3.741,1.679,3.741,3.742
		S67.486,93.877,65.423,93.877z M25.962,89.393c-0.409,0-0.742,0.333-0.742,0.742s0.333,0.742,0.742,0.742h39.461
		c0.409,0,0.741-0.333,0.741-0.742s-0.333-0.742-0.741-0.742H25.962z M63.069,85.458c-2.123,0-3.903-0.782-5.293-2.325
		c-0.926-1.027-1.539-2.335-1.833-3.905c-0.909,0.869-1.815,1.638-2.712,2.3c-1.731,1.279-3.637,2.265-5.665,2.93
		c-2.024,0.664-4.256,1-6.633,1c-3.171,0-6.155-0.683-8.868-2.031c-2.704-1.344-5.072-3.284-7.037-5.767
		c-1.947-2.458-3.44-5.375-4.438-8.672c-0.987-3.257-1.487-6.823-1.487-10.601c0-8.048,2.025-14.444,6.018-19.013
		c4.045-4.627,9.426-6.974,15.993-6.974c3.772,0,7.022,0.669,9.661,1.988c1.601,0.801,3.277,1.729,4.967,3.072V23.925h-5.715
		c-2.063,0-3.742-1.679-3.742-3.742s1.679-3.742,3.742-3.742h5.715v-1.139c0-2.86,0.616-5.101,1.831-6.659
		c1.304-1.673,3.153-2.521,5.498-2.521c2.318,0,4.154,0.779,5.458,2.314c1.241,1.463,1.87,3.561,1.87,6.233v1.771h6.758
		c2.063,0,3.742,1.679,3.742,3.742s-1.679,3.742-3.742,3.742h-6.758v52.986c0,2.729-0.682,4.849-2.025,6.303
		C67,84.703,65.215,85.458,63.069,85.458z M57.242,74.191c0.176,0,0.354,0.031,0.526,0.095c0.586,0.22,0.974,0.779,0.974,1.405
		v1.221c0,1.866,0.425,3.283,1.264,4.213c0.819,0.91,1.793,1.333,3.064,1.333c1.292,0,2.305-0.418,3.098-1.278
		c0.817-0.883,1.23-2.319,1.23-4.269V22.425c0-0.829,0.671-1.5,1.5-1.5h8.258c0.409,0,0.742-0.333,0.742-0.742
		s-0.333-0.742-0.742-0.742h-8.258c-0.829,0-1.5-0.671-1.5-1.5V14.67c0-1.942-0.39-3.387-1.158-4.292
		c-0.717-0.845-1.754-1.255-3.17-1.255c-1.411,0-2.406,0.434-3.131,1.365c-0.794,1.019-1.197,2.639-1.197,4.815v2.639
		c0,0.829-0.671,1.5-1.5,1.5h-7.215c-0.409,0-0.742,0.333-0.742,0.742s0.333,0.742,0.742,0.742h7.215c0.829,0,1.5,0.671,1.5,1.5
		v18.482c0,0.619-0.38,1.174-0.956,1.398c-0.578,0.226-1.232,0.072-1.649-0.384c-2.227-2.429-4.538-3.765-6.703-4.848
		c-2.218-1.109-5.018-1.672-8.319-1.672c-5.743,0-10.235,1.946-13.734,5.948c-3.501,4.005-5.277,9.738-5.277,17.038
		c0,3.482,0.457,6.756,1.358,9.731c0.888,2.935,2.207,5.519,3.919,7.679c1.689,2.134,3.715,3.797,6.02,4.943
		c2.294,1.14,4.829,1.717,7.533,1.717c2.06,0,3.977-0.286,5.699-0.851c1.723-0.565,3.344-1.403,4.817-2.492
		c1.52-1.123,3.089-2.606,4.663-4.411C56.401,74.372,56.816,74.191,57.242,74.191z M42.934,75.927c-2.426,0-4.694-0.684-6.743-2.032
		c-2.043-1.344-3.664-3.348-4.817-5.955c-1.119-2.53-1.687-5.606-1.687-9.145c0-3.343,0.531-6.338,1.579-8.902
		c1.083-2.649,2.646-4.722,4.646-6.162c2.029-1.461,4.361-2.203,6.93-2.203c2.467,0,4.767,0.719,6.835,2.138
		c2.042,1.399,3.675,3.432,4.855,6.04c1.153,2.549,1.738,5.607,1.738,9.089c0,3.694-0.586,6.845-1.741,9.366
		c-1.188,2.593-2.821,4.558-4.856,5.839C47.646,75.279,45.379,75.927,42.934,75.927z M42.843,44.529
		c-1.955,0-3.648,0.536-5.177,1.637c-1.537,1.106-2.755,2.742-3.622,4.862c-0.9,2.203-1.356,4.816-1.356,7.768
		c0,3.118,0.481,5.786,1.43,7.931c0.916,2.071,2.168,3.64,3.723,4.663c1.572,1.035,3.238,1.538,5.093,1.538
		c1.896,0,3.578-0.479,5.141-1.464c1.533-0.966,2.788-2.497,3.728-4.551c0.974-2.126,1.468-4.857,1.468-8.117
		c0-3.052-0.495-5.694-1.471-7.853c-0.95-2.101-2.235-3.716-3.818-4.802C46.399,45.056,44.719,44.529,42.843,44.529z"/>
</g>
</svg>
