<?xml version="1.0" encoding="utf-8"?>
<!-- Generator: Adobe Illustrator 16.0.0, SVG Export Plug-In . SVG Version: 6.00 Build 0)  -->
<!DOCTYPE svg PUBLIC "-//W3C//DTD SVG 1.1//EN" "http://www.w3.org/Graphics/SVG/1.1/DTD/svg11.dtd">
<svg version="1.1" id="Layer_3" xmlns="http://www.w3.org/2000/svg" xmlns:xlink="http://www.w3.org/1999/xlink" x="0px" y="0px"
	 width="100px" height="100px" viewBox="0 0 100 100" enable-background="new 0 0 100 100" xml:space="preserve">
<g>
	<path d="M50.634,90.426c-3.394,0-6.154-2.761-6.154-6.154V64.969H24.577c-2.46,0-4.461-2.001-4.461-4.462s2.001-4.462,4.461-4.462
		h19.902v-5.462H24.577c-2.46,0-4.461-2.001-4.461-4.462c0-2.46,2.001-4.461,4.461-4.461h13.862L21.927,19.395
		c-2.021-2.726-1.448-6.588,1.276-8.61c1.069-0.792,2.335-1.21,3.662-1.21c1.942,0,3.792,0.93,4.948,2.488l18.678,25.186
		l17.61-24.93c1.152-1.631,3.033-2.604,5.032-2.604c1.275,0,2.502,0.39,3.546,1.128c2.771,1.958,3.434,5.805,1.477,8.577
		L62.444,41.66h12.977c2.461,0,4.463,2.001,4.463,4.461c0,2.46-2.002,4.462-4.463,4.462H56.788v5.462h18.633
		c2.461,0,4.463,2.001,4.463,4.462s-2.002,4.462-4.463,4.462H56.788v19.303C56.788,87.665,54.027,90.426,50.634,90.426z
		 M24.577,59.045c-0.806,0-1.461,0.656-1.461,1.462s0.655,1.462,1.461,1.462h21.402c0.828,0,1.5,0.671,1.5,1.5v20.803
		c0,1.739,1.415,3.154,3.154,3.154s3.154-1.415,3.154-3.154V63.469c0-0.829,0.672-1.5,1.5-1.5h20.133
		c0.807,0,1.463-0.656,1.463-1.462s-0.656-1.462-1.463-1.462H55.288c-0.828,0-1.5-0.671-1.5-1.5V49.19
		c0-0.311,0.097-0.614,0.276-0.868l0.076-0.107c0.281-0.396,0.737-0.632,1.224-0.632h20.057c0.807,0,1.463-0.656,1.463-1.462
		c0-0.806-0.656-1.461-1.463-1.461H59.548c-0.561,0-1.074-0.313-1.332-0.81s-0.217-1.098,0.106-1.556l17.383-24.605
		c1.003-1.42,0.664-3.393-0.757-4.396c-0.535-0.378-1.162-0.578-1.814-0.578c-1.026,0-1.991,0.499-2.581,1.334L51.746,40.672
		c-0.278,0.393-0.728,0.629-1.208,0.635c-0.509-0.006-0.936-0.22-1.223-0.606L29.403,13.85c-0.601-0.811-1.526-1.275-2.538-1.275
		c-0.68,0-1.328,0.214-1.876,0.62c-1.396,1.036-1.688,3.016-0.652,4.413l18.287,24.659c0.337,0.455,0.39,1.062,0.135,1.568
		c-0.255,0.506-0.773,0.826-1.34,0.826H24.577c-0.806,0-1.461,0.655-1.461,1.461c0,0.806,0.655,1.462,1.461,1.462h21.234
		c0.477,0,0.924,0.226,1.207,0.609l0.168,0.228c0.19,0.258,0.293,0.57,0.293,0.891v8.234c0,0.829-0.672,1.5-1.5,1.5H24.577z"/>
</g>
</svg>
