<?xml version="1.0" encoding="utf-8"?>
<!-- Generator: Adobe Illustrator 16.0.0, SVG Export Plug-In . SVG Version: 6.00 Build 0)  -->
<!DOCTYPE svg PUBLIC "-//W3C//DTD SVG 1.1//EN" "http://www.w3.org/Graphics/SVG/1.1/DTD/svg11.dtd">
<svg version="1.1" id="Layer_3" xmlns="http://www.w3.org/2000/svg" xmlns:xlink="http://www.w3.org/1999/xlink" x="0px" y="0px"
	 width="100px" height="100px" viewBox="0 0 100 100" enable-background="new 0 0 100 100" xml:space="preserve">
<g>
	<g>
		<path d="M74.152,89.958c-2.609,0-4.732-2.123-4.732-4.732V78c-8.795-1.567-13.502-7.434-13.992-17.456
			c0.025-2.823,2.131-4.886,4.893-4.886c2.664,0,4.832,2.157,4.832,4.808v0.436c0.137,3.65,1.506,5.972,4.268,7.144V53.188
			c-1.703-0.547-3.207-1.1-4.48-1.649c-1.912-0.822-3.527-1.843-4.799-3.035c-1.309-1.222-2.281-2.736-2.893-4.498
			c-0.592-1.712-0.891-3.857-0.891-6.376c0-2.317,0.396-4.471,1.182-6.402c0.791-1.942,1.949-3.653,3.445-5.084
			c1.488-1.424,3.307-2.557,5.406-3.368c0.928-0.358,1.943-0.64,3.029-0.841v-7.16c0-2.61,2.123-4.733,4.732-4.733
			s4.732,2.124,4.732,4.733v7.252c7.828,1.443,12.047,6.295,12.547,14.439l0.063,0.521c0.006,0.062,0.01,0.124,0.01,0.186
			c-0.029,2.69-2.18,4.797-4.896,4.797c-2.604,0-4.719-2.036-4.816-4.634l-0.014-0.226c-0.008-0.048-0.014-0.098-0.018-0.147
			c-0.184-2.446-1.107-4.089-2.875-5.051V44.49c1.807,0.587,3.42,1.183,4.809,1.776c2.004,0.854,3.701,1.914,5.047,3.148
			c1.383,1.268,2.436,2.857,3.125,4.723c0.674,1.828,1.014,4.068,1.014,6.659c0,2.442-0.422,4.753-1.254,6.869
			c-0.838,2.127-2.064,4.011-3.645,5.601c-1.578,1.585-3.506,2.857-5.73,3.781c-1.018,0.423-2.145,0.753-3.365,0.985v7.194
			C78.885,87.835,76.762,89.958,74.152,89.958z M60.32,58.658c-1.123,0-1.885,0.734-1.895,1.828c0.443,9,4.473,13.711,12.68,14.736
			c0.75,0.094,1.314,0.732,1.314,1.488v8.517c0,0.955,0.777,1.732,1.732,1.732s1.732-0.777,1.732-1.732v-8.475
			c0-0.755,0.563-1.393,1.311-1.488c1.463-0.187,2.777-0.519,3.904-0.987c1.857-0.771,3.457-1.823,4.756-3.126
			c1.289-1.297,2.291-2.84,2.979-4.584c0.693-1.763,1.045-3.705,1.045-5.77c0-2.236-0.277-4.127-0.828-5.62
			c-0.521-1.412-1.309-2.607-2.338-3.55c-1.096-1.004-2.508-1.879-4.197-2.601c-1.561-0.666-3.436-1.341-5.576-2.005
			c-0.627-0.195-1.055-0.776-1.055-1.433V29.761c0-0.46,0.211-0.895,0.574-1.179c0.361-0.285,0.832-0.387,1.281-0.278
			c4.195,1.021,6.611,3.874,6.996,8.257c0.014,0.066,0.021,0.133,0.025,0.202l0.025,0.43c0.039,1.011,0.838,1.778,1.82,1.778
			c1.061,0,1.844-0.73,1.895-1.748l-0.057-0.495c-0.445-7.22-4.02-10.986-11.254-11.931c-0.748-0.098-1.307-0.734-1.307-1.487
			v-8.535c0-0.956-0.777-1.733-1.732-1.733s-1.732,0.778-1.732,1.733v8.447c0,0.759-0.566,1.398-1.32,1.489
			c-1.344,0.163-2.564,0.453-3.629,0.863c-1.727,0.667-3.213,1.588-4.412,2.736c-1.189,1.137-2.111,2.499-2.74,4.046
			c-0.639,1.571-0.961,3.345-0.961,5.273c0,2.185,0.244,4,0.727,5.395c0.447,1.295,1.156,2.402,2.105,3.288
			c1.02,0.955,2.344,1.785,3.936,2.47c1.434,0.617,3.193,1.245,5.232,1.867c0.631,0.192,1.063,0.774,1.063,1.435v17.989
			c0,0.454-0.205,0.883-0.559,1.167c-0.352,0.284-0.813,0.395-1.26,0.298c-5.311-1.15-8.232-4.811-8.449-10.583v-0.492
			C62.152,59.469,61.33,58.658,60.32,58.658z M77.385,71.73c-0.354,0-0.699-0.125-0.973-0.358c-0.334-0.285-0.527-0.703-0.527-1.142
			V54.203c0-0.486,0.236-0.942,0.633-1.223s0.904-0.352,1.361-0.193l-0.494,1.416l0.504-1.413c0.33,0.115,0.664,0.232,0.959,0.339
			c1.77,0.639,3.186,1.314,4.205,2.005c1.213,0.82,2.059,1.805,2.516,2.926c0.402,0.994,0.607,2.186,0.607,3.546
			c0,3.146-0.992,5.688-2.947,7.556c-1.371,1.311-3.258,2.169-5.604,2.548C77.545,71.724,77.465,71.73,77.385,71.73z M78.885,56.355
			v11.966c0.922-0.321,1.684-0.765,2.271-1.327c1.34-1.28,2.02-3.092,2.02-5.387c0-0.971-0.131-1.784-0.387-2.416
			c-0.229-0.562-0.705-1.091-1.418-1.572C80.754,57.201,79.92,56.777,78.885,56.355z M70.92,45.073c-0.16,0-0.32-0.025-0.475-0.077
			c-0.346-0.115-0.68-0.227-0.979-0.331c-1.768-0.611-3.074-1.24-3.992-1.922c-1.111-0.824-1.818-1.795-2.1-2.885
			c-0.209-0.81-0.314-1.831-0.314-3.038c0-1.486,0.311-2.832,0.92-4c0.607-1.163,1.457-2.133,2.523-2.883
			c0.998-0.702,2.158-1.231,3.447-1.575c0.184-0.049,0.371-0.09,0.557-0.13c0.443-0.098,0.951,0.001,1.307,0.287
			c0.354,0.285,0.605,0.704,0.605,1.158v13.896c0,0.482-0.232,0.935-0.623,1.217C71.537,44.976,71.23,45.073,70.92,45.073z
			 M69.42,31.72c-0.43,0.192-0.826,0.417-1.191,0.672c-0.67,0.472-1.205,1.083-1.588,1.818c-0.385,0.735-0.58,1.613-0.58,2.61
			c0,1.189,0.119,1.901,0.219,2.289c0.105,0.407,0.436,0.82,0.982,1.226c0.494,0.366,1.217,0.74,2.158,1.115V31.72z"/>
	</g>
	<g>
		<path d="M50.164,78.761H9.621c-1.379,0-2.5-1.122-2.5-2.5V71c0-0.545,0.182-1.084,0.514-1.518l22.58-29.384
			c1.203-1.48,2.273-2.784,3.33-4.046H11.684c-1.379,0-2.5-1.122-2.5-2.5V26.33c0-1.378,1.121-2.5,2.5-2.5h38.068
			c1.379,0,2.5,1.122,2.5,2.5v5.674c0,0.551-0.186,1.094-0.521,1.527L29.346,62.62c-0.852,1.109-1.914,2.475-3.096,3.919h23.914
			c1.379,0,2.5,1.122,2.5,2.5v7.222C52.664,77.64,51.543,78.761,50.164,78.761z M10.121,75.761h39.543V69.54H23.029
			c-0.586,0-1.117-0.34-1.363-0.871c-0.244-0.531-0.158-1.156,0.221-1.602l0.703-0.825c1.689-1.981,3.229-3.954,4.379-5.451
			l22.283-28.958V26.83H12.184v6.222h24.605c0.586,0,1.117,0.341,1.361,0.873c0.246,0.532,0.158,1.158-0.223,1.603l-0.705,0.825
			c-1.523,1.778-2.963,3.527-4.656,5.606L10.121,71.17V75.761z"/>
	</g>
</g>
</svg>
